<svg width="300" height="300" viewBox="0 0 300 300" fill="none" xmlns="http://www.w3.org/2000/svg">
<path d="M57.4209 77.9297C58.042 78.5154 58.5074 79.0844 58.9441 79.8168C59.0614 80.0105 59.1787 80.2042 59.2995 80.4038C59.4844 80.7109 59.4844 80.7109 59.6731 81.0242C61.3928 83.8229 63.3826 86.2546 65.5977 88.678C66.1173 89.2529 66.6147 89.8379 67.1072 90.4358C67.8705 91.3294 68.7011 92.0928 69.5974 92.8516C70.1416 93.3129 70.6765 93.78 71.2087 94.2547C79.0194 101.168 88.5044 105.964 98.2168 109.599C98.6575 109.765 99.0981 109.93 99.5388 110.096C100.405 110.422 101.272 110.742 102.141 111.059C109.008 113.601 114.893 117.705 118.065 124.512C118.481 125.512 118.869 126.522 119.256 127.533C120.057 129.622 120.843 131.409 122.46 133.008C122.619 133.174 122.777 133.339 122.941 133.51C125.235 135.702 128.285 136.342 131.371 136.291C133.765 136.099 135.527 135.097 137.108 133.301C137.958 132.011 138.154 130.726 137.987 129.199C137.606 128.099 137.299 127.581 136.358 126.892C135.023 126.455 133.812 126.488 132.421 126.562C132.324 126.949 132.228 127.336 132.128 127.734C131.249 127.441 131.249 127.441 130.907 126.96C129.948 124.922 129.66 122.877 130.24 120.671C130.998 119.04 132.613 118.228 134.179 117.48C134.856 117.286 134.856 117.286 135.351 117.188C135.332 116.789 135.332 116.789 135.314 116.382C135.351 115.427 135.435 115.045 135.937 114.258C140.521 110.925 149.631 112.421 154.833 113.177C155.166 113.224 155.166 113.224 155.507 113.271C157.392 113.581 158.891 114.227 160.192 115.684C160.838 116.601 161.184 117.33 161.516 118.396C161.574 118.576 161.631 118.757 161.69 118.942C162.327 120.988 162.892 123.055 163.476 125.116C164.512 130.041 164.512 130.041 166.936 134.253C169.299 135.55 171.785 135.695 174.37 134.985C176.924 134.133 178.642 132.556 179.867 130.187C180.404 129.085 180.843 127.959 181.27 126.81C183.731 120.248 188.035 115.581 194.355 112.5C196.124 111.704 197.95 111.051 199.767 110.376C207.488 107.505 215.305 104.071 222.069 99.3164C222.281 99.1693 222.492 99.0221 222.709 98.8705C225.873 96.6514 228.798 94.2914 231.553 91.5805C231.99 91.1522 232.437 90.7329 232.884 90.3145C236.58 86.7887 239.705 82.5012 241.991 77.9297C242.185 77.9297 242.378 77.9297 242.577 77.9297C244.688 84.6835 243.03 91.9987 239.849 98.1079C236.849 103.632 232.433 107.944 227.636 111.914C232.997 109.598 237.799 107.113 242.381 103.472C242.911 103.096 243.454 102.816 244.042 102.539C244.042 102.346 244.042 102.152 244.042 101.953C244.525 101.76 245.009 101.566 245.507 101.367C244.954 107.726 242.675 112.687 238.476 117.48C238.297 117.694 238.119 117.908 237.935 118.128C236.76 119.523 235.492 120.72 234.081 121.875C233.935 121.996 233.789 122.116 233.638 122.24C229.955 125.261 225.988 127.585 221.776 129.785C225.148 129.649 228.401 129.228 231.719 128.632C232.169 128.553 232.62 128.475 233.07 128.396C235.176 128.028 237.273 127.639 239.355 127.148C238.992 130.28 236.453 132.559 234.374 134.766C234.216 134.943 234.058 135.12 233.895 135.302C230.018 139.472 224.313 142.223 218.847 143.555C218.595 143.617 218.343 143.679 218.083 143.742C215.543 144.28 212.937 144.325 210.351 144.434C211.131 144.62 211.912 144.802 212.694 144.983C212.907 145.034 213.119 145.085 213.338 145.137C217.413 146.07 221.57 146.308 225.731 146.521C226.204 146.546 226.677 146.572 227.149 146.598C228.288 146.659 229.427 146.719 230.565 146.777C228.397 151.305 222.422 154.096 217.968 155.859C216.614 156.336 215.265 156.715 213.866 157.031C213.591 157.097 213.316 157.163 213.033 157.23C208.579 158.104 203.705 157.811 199.218 157.324C203.882 159.798 208.473 161.403 213.618 162.597C214.053 162.699 214.053 162.699 214.497 162.804C214.886 162.893 214.886 162.893 215.284 162.984C215.917 163.184 215.917 163.184 216.503 163.77C212.429 167.843 206.042 169.574 200.445 169.72C194.702 169.612 189.694 167.623 184.862 164.648C188.485 169.427 193.2 174.53 198.632 177.246C198.632 177.439 198.632 177.633 198.632 177.832C191.759 179.777 184.049 178.717 177.773 175.388C174.37 173.376 171.491 170.695 168.749 167.871C166.882 170.62 166.882 170.62 165.819 173.73C166.276 175.259 167.176 176.306 168.163 177.539C170.523 181.772 171.144 186.232 171.111 190.997C171.11 191.365 171.108 191.733 171.107 192.113C171.104 193.016 171.099 193.92 171.093 194.824C173.651 195.871 173.651 195.871 176.385 195.941C176.73 195.905 177.076 195.869 177.432 195.832C178.037 195.753 178.642 195.67 179.247 195.583C180.92 195.359 182.22 195.377 183.69 196.289C184.894 197.388 185.406 198.411 185.54 200.043C185.526 201.317 185.109 202.052 184.276 203.027C183.986 203.124 183.696 203.221 183.397 203.32C183.277 203 183.156 202.68 183.031 202.35C182.619 201.408 182.309 200.845 181.347 200.391C180.272 200.317 180.272 200.317 179.296 200.391C179.519 200.554 179.743 200.717 179.973 200.885C180.944 201.72 181.537 202.349 181.733 203.645C181.814 205.236 181.548 206.187 180.468 207.422C180.178 207.519 179.888 207.615 179.589 207.715C179.438 207.364 179.287 207.014 179.131 206.653C177.98 204.376 176.073 203.286 173.73 202.441C172.853 202.174 172.081 202.117 171.166 202.13C170.815 202.134 170.815 202.134 170.456 202.138C170.28 202.142 170.103 202.145 169.921 202.148C169.393 203.203 169.477 204.274 169.808 205.393C170.74 207.68 172.247 209.827 174.022 211.542C174.216 211.729 174.409 211.916 174.608 212.109C174.608 212.303 174.608 212.496 174.608 212.695C172.487 213.07 170.718 213.055 168.749 212.109C167.361 211.138 166.23 209.964 165.233 208.594C164.907 208.787 164.581 208.98 164.245 209.18C163.256 209.766 163.256 209.766 162.597 209.766C162.005 208.582 162.151 207.107 162.49 205.855C162.646 205.413 162.803 204.971 162.963 204.53C163.422 203.226 163.678 202.298 163.091 201.013C161.99 199.578 160.41 197.979 158.788 197.168C158.908 196.305 159.011 195.792 159.557 195.099C160.02 194.575 160.02 194.575 159.919 194.001C159.573 193.12 159.033 192.582 158.385 191.895C157.589 191.044 156.831 190.205 156.151 189.258C154.145 196.237 157.079 204.408 160.361 210.508C161.54 212.622 162.868 214.592 164.355 216.504C163.962 217.45 163.657 217.842 162.723 218.262C162.511 218.358 162.299 218.454 162.08 218.553C161.852 218.65 161.624 218.747 161.388 218.848C161.152 218.95 160.915 219.052 160.671 219.157C153.16 222.297 146.095 221.845 138.573 218.848C137.453 218.34 136.387 217.752 135.351 217.09C135.468 216.908 135.585 216.727 135.707 216.539C136.276 215.652 136.839 214.76 137.401 213.867C137.506 213.703 137.611 213.538 137.72 213.368C142.563 205.743 144.922 198.006 144.14 188.965C143.057 190.016 142.075 191.113 141.118 192.279C140.985 192.44 140.852 192.601 140.715 192.767C140.391 193.159 140.068 193.552 139.745 193.945C140.161 194.805 140.619 195.537 141.21 196.289C140.625 197.794 139.334 198.649 138.143 199.677C137.161 200.622 136.853 201.167 136.724 202.515C136.812 203.571 137.092 204.289 137.499 205.254C137.905 206.715 137.756 208.263 137.694 209.766C136.587 209.332 135.531 208.843 134.472 208.301C134.344 208.499 134.216 208.697 134.085 208.9C132.854 210.745 131.934 211.979 129.784 212.695C129.083 212.716 128.38 212.72 127.678 212.714C127.306 212.711 126.933 212.708 126.549 212.706C126.12 212.701 126.12 212.701 125.683 212.695C125.683 211.488 126.326 210.916 127.056 210.022C128.79 207.825 130.271 205.916 130.37 203.027C130.273 202.737 130.177 202.447 130.077 202.148C126.921 201.996 124.321 202.719 121.874 204.785C121.152 205.71 120.607 206.652 120.116 207.715C118.953 206.611 118.42 206.026 118.267 204.401C118.414 202.66 119.408 201.512 120.702 200.391C120.896 200.391 121.089 200.391 121.288 200.391C121.288 200.197 121.288 200.004 121.288 199.805C119.221 200.005 119.221 200.005 117.626 201.215C117.253 202.007 116.892 202.787 116.601 203.613C114.867 201.924 114.867 201.924 114.77 200.464C114.795 199.073 115.14 198.049 116.141 197.038C117.359 195.977 118.222 195.663 119.805 195.695C120.092 195.699 120.378 195.702 120.674 195.706C121.269 195.716 121.865 195.728 122.461 195.74C124.464 195.763 126.372 195.616 128.319 195.117C128.843 194.594 128.657 193.809 128.664 193.102C128.782 186.177 129.785 181.062 133.47 175.066C133.852 174.378 134.063 173.914 134.179 173.145C134.019 172.575 134.019 172.575 133.715 172.025C133.611 171.82 133.507 171.615 133.4 171.404C133.233 171.087 133.233 171.087 133.062 170.764C132.899 170.444 132.899 170.444 132.734 170.118C132.115 168.909 132.115 168.909 131.249 167.871C131.046 168.087 130.843 168.304 130.634 168.527C125.785 173.601 120.053 177.149 113.085 178.418C112.827 178.465 112.57 178.512 112.304 178.561C110.408 178.811 108.491 178.693 106.585 178.619C106.31 178.609 106.034 178.599 105.751 178.589C104.115 178.509 102.647 178.285 101.073 177.832C102.113 176.732 103.207 175.862 104.461 175.012C106.527 173.572 108.348 171.964 110.155 170.215C110.419 169.963 110.682 169.712 110.953 169.453C112.495 167.95 113.867 166.388 115.136 164.648C114.859 164.801 114.583 164.953 114.298 165.11C107.365 168.892 100.413 170.853 92.5772 168.75C89.0735 167.714 85.945 166.086 82.9092 164.062C82.9092 163.869 82.9092 163.676 82.9092 163.477C83.2804 163.386 83.2804 163.386 83.6592 163.294C89.7761 161.793 95.5888 160.219 101.073 157.031C100.775 157.074 100.477 157.116 100.169 157.159C91.5729 158.315 83.7929 157.139 76.1709 152.93C75.8782 152.77 75.5855 152.611 75.284 152.447C73.0193 151.115 71.1507 149.339 69.4326 147.363C69.4326 147.17 69.4326 146.977 69.4326 146.777C69.6694 146.764 69.9062 146.751 70.1501 146.738C74.3036 146.502 78.4476 146.249 82.5796 145.752C83.0169 145.7 83.0169 145.7 83.463 145.647C84.9664 145.457 86.4284 145.207 87.899 144.839C88.4756 144.727 88.4756 144.727 89.6475 144.727C89.6475 144.533 89.6475 144.34 89.6475 144.141C89.3771 144.154 89.1067 144.168 88.8281 144.182C80.8005 144.404 72.85 141.501 66.9241 136.029C66.3876 135.515 65.8595 134.995 65.3311 134.473C65.0444 134.218 65.0444 134.218 64.752 133.958C62.9023 132.277 60.8793 129.612 60.3506 127.148C60.8361 127.255 60.8361 127.255 61.3314 127.364C64.0352 127.949 66.7439 128.485 69.4692 128.961C69.7465 129.01 70.0237 129.059 70.3093 129.109C72.5037 129.486 74.6893 129.835 76.9216 129.803C77.1698 129.801 77.4179 129.798 77.6735 129.795C77.8544 129.792 78.0353 129.789 78.2217 129.785C77.9199 129.636 77.6182 129.486 77.3073 129.332C72.4444 126.871 68.1914 123.773 64.1592 120.117C63.9443 119.927 63.7294 119.737 63.508 119.54C59.1506 115.46 55.0037 109.198 54.7579 103.053C54.7569 102.491 54.7693 101.929 54.7842 101.367C55.7838 101.8 56.4394 102.371 57.2195 103.125C60.6419 106.248 67.8355 111.914 72.6553 111.914C72.4989 111.797 72.3426 111.679 72.1815 111.558C64.5197 105.712 58.0912 97.6516 56.613 87.862C56.3339 84.5173 56.35 81.1425 57.4209 77.9297ZM83.4951 109.277C84.6354 113.625 87.7792 116.712 91.5518 118.982C93.7232 120.203 96.0365 121.047 98.3631 121.92C104.76 124.324 107.772 127.858 110.763 133.941C113.718 139.913 117.874 143.464 124.181 145.597C126.276 146.184 128.319 146.272 130.48 146.283C130.893 146.285 130.893 146.285 131.314 146.288C132.867 146.272 134.174 146.114 135.644 145.605C135.592 145.783 135.54 145.96 135.487 146.142C135.251 146.952 135.017 147.762 134.783 148.572C134.702 148.85 134.62 149.129 134.536 149.416C134.004 151.263 133.545 153.008 133.574 154.944C133.577 155.173 133.58 155.402 133.582 155.637C133.586 155.807 133.589 155.977 133.593 156.152C136.077 155.236 138.418 154.107 140.624 152.637C140.619 152.827 140.615 153.017 140.61 153.213C140.592 154.089 140.58 154.965 140.569 155.841C140.562 156.14 140.554 156.44 140.547 156.748C140.528 158.671 140.755 160.235 141.503 162.012C142.643 161.377 143.565 160.642 144.524 159.76C144.783 159.523 145.042 159.286 145.308 159.042C145.503 158.862 145.697 158.682 145.897 158.496C146.05 158.807 146.202 159.118 146.359 159.439C147.389 161.531 148.41 163.584 149.706 165.527C150.952 165.112 151.213 164.218 151.775 163.11C151.878 162.914 151.981 162.718 152.087 162.516C153.177 160.468 153.177 160.468 153.515 158.203C153.73 158.38 153.946 158.557 154.168 158.739C154.454 158.973 154.74 159.207 155.034 159.448C155.317 159.679 155.599 159.91 155.889 160.149C156.309 160.491 156.309 160.491 156.737 160.84C157.002 161.062 157.267 161.284 157.54 161.513C158.142 162.07 158.142 162.07 158.788 162.012C159.324 160.189 159.456 158.559 159.429 156.665C159.429 156.406 159.429 156.147 159.428 155.88C159.421 154.744 159.394 153.735 159.081 152.637C159.402 152.82 159.724 153.004 160.055 153.193C160.481 153.435 160.907 153.677 161.333 153.918C161.545 154.039 161.756 154.16 161.974 154.285C164.059 155.493 164.059 155.493 166.405 155.859C166.394 152.317 165.659 148.508 164.062 145.312C164.22 145.374 164.378 145.436 164.54 145.5C166.223 146.116 167.695 146.342 169.481 146.32C169.735 146.317 169.989 146.314 170.251 146.312C175.875 146.164 180.856 144.213 184.937 140.333C186.887 138.267 188.26 136.06 189.513 133.521C192.55 127.574 195.505 124.38 201.782 121.913C207.622 119.617 213.077 117.002 215.962 111.094C216.263 110.428 216.263 110.428 216.21 109.57C215.328 109.974 214.645 110.451 213.903 111.072C210.01 114.107 205.542 115.726 200.976 117.48C193.904 120.203 189.691 123.496 186.335 130.341C183.785 135.525 181.048 138.898 175.498 140.945C172.642 141.791 168.98 142.168 166.204 140.9C163.269 139.102 162.05 136.122 161.15 132.905C160.816 131.416 160.562 129.923 160.35 128.413C159.818 124.653 159.215 120.947 156.151 118.359C153.951 116.828 151.43 116.428 148.827 116.016C148.592 115.977 148.357 115.938 148.114 115.898C146.026 115.61 143.899 115.698 141.796 115.723C142.58 116.507 143.473 116.714 144.506 117.041C144.698 117.103 144.89 117.166 145.088 117.23C145.651 117.412 146.214 117.593 146.776 117.773C147.363 117.968 147.949 118.163 148.534 118.359C148.299 118.45 148.063 118.541 147.82 118.634C147.101 118.876 147.101 118.876 146.776 119.238C145.466 119.314 144.41 119.323 143.261 118.652C143.122 118.417 142.983 118.181 142.84 117.938C142.237 116.95 141.707 116.691 140.624 116.309C140.035 116.388 139.448 116.483 138.866 116.602C141.21 120.495 141.21 120.495 145.019 122.754C143.133 122.899 143.133 122.899 141.21 123.047C142.327 124.173 142.327 124.173 143.627 124.841C143.834 124.933 144.041 125.024 144.254 125.118C145.276 125.482 146.308 125.725 147.362 125.977C147.127 126.041 147.127 126.041 146.888 126.106C146.179 126.301 145.471 126.496 144.762 126.691C144.516 126.758 144.269 126.825 144.015 126.895C143.779 126.96 143.543 127.025 143.3 127.092C143.082 127.152 142.864 127.212 142.639 127.274C142.07 127.43 142.07 127.43 141.503 127.734C141.545 128.196 141.545 128.196 141.588 128.667C141.885 132.257 141.823 134.786 139.452 137.695C137.698 139.674 135.021 140.85 132.421 141.211C127.518 141.5 122.843 141.158 118.889 137.933C116.743 135.9 115.408 133.385 114.165 130.737C110.687 123.578 106.44 120.213 99.0293 117.448C89.1688 113.768 89.1688 113.768 85.5894 110.672C84.926 110.128 84.2395 109.702 83.4951 109.277ZM144.433 118.066C144.433 118.26 144.433 118.453 144.433 118.652C144.819 118.556 145.206 118.459 145.605 118.359C145.218 118.263 144.831 118.166 144.433 118.066Z" fill="black"/>
<path d="M141.425 115.788C142.487 116.041 143.495 116.37 144.525 116.73C146.141 117.286 147.735 117.743 149.414 118.067C148.632 118.588 147.937 118.897 147.07 119.239C146.974 119.335 146.877 119.432 146.777 119.532C145.251 119.651 144.259 119.493 142.969 118.653C142.884 118.462 142.799 118.272 142.711 118.076C142.277 117.29 141.851 117.151 141.028 116.822C140.788 116.724 140.549 116.625 140.302 116.524C140.119 116.453 139.935 116.382 139.746 116.309C140.625 115.723 140.625 115.723 141.425 115.788ZM144.434 118.067C144.434 118.26 144.434 118.454 144.434 118.653C144.82 118.556 145.207 118.459 145.605 118.36C145.219 118.263 144.832 118.166 144.434 118.067Z" fill="black"/>
</svg>
