<svg width="300" height="300" viewBox="0 0 300 300" fill="none" xmlns="http://www.w3.org/2000/svg">
<path d="M150.586 79.6875C152.192 80.7159 152.872 82.1693 153.736 83.8074C153.953 84.2076 153.953 84.2076 154.174 84.6159C155.223 86.565 155.223 86.565 155.567 87.5977C156.243 87.6943 156.92 87.791 157.617 87.8906C158.839 85.7538 159.381 83.5238 159.961 81.1523C160.251 81.1523 160.541 81.1523 160.84 81.1523C161.999 83.0498 162.118 85.1544 162.414 87.3219C162.693 89.1862 163.014 90.6985 164.063 92.2852C164.761 92.7224 164.761 92.7224 165.528 92.5781C166.242 92.0999 166.242 92.0999 166.864 91.3879C167.092 91.1462 167.32 90.9045 167.554 90.6555C168.043 90.0834 168.464 89.5342 168.86 88.8977C169.017 88.662 169.174 88.4264 169.336 88.1836C169.626 88.1836 169.916 88.1836 170.215 88.1836C170.502 89.5136 170.468 90.5462 170.233 91.8823C169.601 95.4008 169.601 95.4008 170.508 98.7305C171.991 98.9031 171.991 98.9031 173.371 98.4524C174.771 97.3058 175.849 95.8471 176.949 94.4218C177.539 93.75 177.539 93.75 178.418 93.457C178.738 96.4427 177.456 99.3442 176.075 101.953C176.269 101.869 176.464 101.784 176.664 101.697C177.052 101.534 177.052 101.534 177.448 101.367C177.703 101.258 177.958 101.15 178.22 101.038C179.026 100.774 179.627 100.71 180.469 100.781C180.566 100.878 180.662 100.975 180.762 101.074C180.624 102.932 180.624 102.932 180.011 103.693C179.872 103.795 179.733 103.898 179.59 104.004C180.012 105.101 180.725 105.753 181.57 106.533C181.934 106.934 181.934 106.934 181.934 107.52C182.116 107.442 182.297 107.364 182.484 107.284C184.154 106.618 185.593 106.288 187.39 106.165C189.102 105.976 189.845 105.684 190.943 104.352C191.144 104.09 191.345 103.828 191.553 103.559C193.198 101.677 195.934 101.063 198.34 100.781C199.033 100.745 199.697 100.751 200.391 100.781C200.777 102.826 200.757 105.029 199.805 106.934C200.722 106.763 201.637 106.583 202.552 106.403C202.812 106.354 203.073 106.306 203.341 106.256C203.59 106.205 203.84 106.155 204.097 106.104C204.442 106.037 204.442 106.037 204.794 105.969C205.48 105.787 205.48 105.787 205.957 104.883C206.286 102.769 205.773 101.251 204.767 99.4263C202.741 95.4831 200.726 90.3466 200.977 85.8398C201.17 85.5498 201.364 85.2598 201.563 84.9609C202.552 85.3724 203.012 85.8219 203.614 86.7004C204.407 87.8535 205.077 88.6228 206.47 88.9709C206.688 89.0012 206.905 89.0314 207.129 89.0625C207.827 86.2334 207.772 83.4571 207.715 80.5664C208.418 80.6683 208.418 80.6683 209.18 80.8594C209.855 81.8726 210.146 82.9207 210.462 84.082C210.869 85.4877 211.327 86.3058 212.403 87.3047C213.185 87.5846 213.185 87.5846 213.867 87.5977C214.715 85.7659 215.438 83.9102 216.111 82.0072C216.522 81.1136 216.915 80.5977 217.676 79.9805C218.317 80.0171 218.317 80.0171 218.848 80.2734C219.207 80.9922 219.22 81.5471 219.277 82.3494C219.311 82.7947 219.311 82.7947 219.346 83.2489C219.392 83.8752 219.437 84.5016 219.481 85.128C219.516 85.5744 219.516 85.5744 219.552 86.0298C219.581 86.4385 219.581 86.4385 219.611 86.8554C219.73 87.62 219.88 88.1288 220.313 88.7695C221.209 89.0085 221.209 89.0085 222.071 89.0625C222.367 88.3299 222.657 87.5969 222.929 86.8549C223.92 84.205 223.92 84.205 225 83.4961C225.623 83.6185 225.623 83.6185 226.172 83.7891C226.239 85.8968 226.123 87.8551 225.736 89.9277C225.491 91.3882 225.393 92.8593 225.293 94.3359C226.089 94.1568 226.613 93.958 227.089 93.2764C227.41 92.6672 227.702 92.0519 227.985 91.4246C228.184 91.0005 228.383 90.5767 228.583 90.1531C228.669 89.9651 228.755 89.777 228.843 89.5833C229.102 89.0625 229.102 89.0625 229.688 88.1836C229.978 88.2803 230.268 88.377 230.567 88.4766C231.523 93.0176 230.636 98.01 228.436 102.053C226.175 105.458 221.581 106.877 217.969 108.398C217.752 108.49 217.535 108.583 217.312 108.677C214.126 110.011 211.1 110.592 207.656 110.863C207.102 110.908 206.548 110.953 205.994 110.999C205.582 111.032 205.582 111.032 205.162 111.066C202.711 111.287 200.403 111.805 198.047 112.5C198.123 112.827 198.123 112.827 198.201 113.161C198.322 114.112 198.335 114.933 198.297 115.885C198.281 116.337 198.281 116.337 198.266 116.797C198.242 117.422 198.212 118.046 198.174 118.67C198.132 120.285 198.182 121.322 199.261 122.575C199.63 122.936 200.006 123.289 200.391 123.633C200.694 123.931 200.997 124.229 201.298 124.528C201.442 124.664 201.585 124.8 201.732 124.94C204.89 127.947 206.747 131.331 206.896 135.759C206.958 139.656 206.734 142.541 204.035 145.569C202.758 146.556 201.336 146.373 199.805 146.191C198.71 145.991 197.628 145.761 196.545 145.505C195.752 145.291 195.752 145.291 195.117 145.312C195.036 145.62 194.954 145.928 194.869 146.245C193.942 149.56 192.85 151.993 189.842 153.902C189.075 154.164 188.563 154.019 187.793 153.809C187.708 153.486 187.623 153.164 187.535 152.832C186.821 150.23 186.019 147.91 184.571 145.605C184.179 145.886 184.179 145.886 183.779 146.172C183.432 146.417 183.086 146.661 182.74 146.906C182.568 147.029 182.396 147.152 182.219 147.279C180.632 148.393 180.632 148.393 179.59 148.535C179.605 148.791 179.605 148.791 179.621 149.052C179.737 152.557 178.582 155.55 177.063 158.661C176.909 158.983 176.754 159.305 176.594 159.637C175.622 161.603 174.656 163.262 173.069 164.794C172.278 165.931 172.172 167.102 171.973 168.457C171.918 168.822 171.863 169.187 171.806 169.563C167.881 191.967 167.881 191.967 172.266 213.574C172.447 213.664 172.628 213.754 172.815 213.847C174.448 214.669 175.346 216.32 175.973 217.971C176.102 218.712 175.942 219.29 175.782 220.02C174.526 220.027 173.27 220.032 172.014 220.036C171.587 220.037 171.161 220.039 170.735 220.042C170.118 220.045 169.503 220.047 168.886 220.048C168.517 220.05 168.147 220.051 167.766 220.053C166.706 220.02 165.694 219.897 164.649 219.727C164.626 219.393 164.626 219.393 164.603 219.053C164.5 218.146 164.379 217.361 164.063 216.504C163.275 215.928 162.696 215.83 161.719 215.625C161.816 213.733 161.955 211.859 162.227 209.984C162.704 206.679 162.977 203.44 162.982 200.098C162.984 199.759 162.986 199.421 162.987 199.072C162.971 197.093 162.802 195.181 162.533 193.221C162.202 190.706 162.114 188.177 162.01 185.644C161.976 184.795 161.937 183.946 161.899 183.097C161.78 180.385 161.708 177.682 161.731 174.966C161.745 173.024 161.675 171.172 161.28 169.263C161.238 169.038 161.196 168.813 161.153 168.581C161.053 168.05 160.947 167.521 160.84 166.992C157.834 171.051 157.248 175.246 157.617 180.176C157.803 181.409 158.067 182.619 158.372 183.828C159.045 186.53 158.818 188.604 157.965 191.235C156.546 195.972 156.076 200.55 156.043 205.481C156.039 205.867 156.035 206.253 156.03 206.651C156.053 211.361 156.81 215.05 159.943 218.701C160.547 219.434 160.547 219.434 160.547 220.312C156.777 220.312 153.006 220.312 149.121 220.312C149.121 218.669 149.121 217.025 149.121 215.332C148.928 215.429 148.735 215.525 148.535 215.625C147.852 215.637 147.168 215.638 146.485 215.625C145.99 214.425 146.436 213.574 146.869 212.402C147.987 209.238 148.369 206.08 148.535 202.734C148.551 202.446 148.567 202.157 148.584 201.86C148.65 199.443 148.37 197.111 148.078 194.714C147.765 192.126 147.606 189.746 147.85 187.148C148.389 181.127 147.412 175.443 145.777 169.664C145.506 168.68 145.263 167.69 145.02 166.699C144.563 166.789 144.563 166.789 144.097 166.881C143.685 166.961 143.272 167.041 142.859 167.12C142.66 167.16 142.461 167.199 142.256 167.24C136.622 168.319 130.845 168.258 125.272 166.927C124.924 166.852 124.577 166.777 124.219 166.699C123.732 167.186 123.829 167.806 123.767 168.461C123.329 172.924 121.717 176.44 119.605 180.341C118.448 182.523 117.76 184.445 117.481 186.914C117.429 187.248 117.378 187.581 117.325 187.925C116.47 194.404 118.69 199.851 121.289 205.664C121.432 205.985 121.574 206.305 121.72 206.636C122.147 207.595 122.578 208.553 123.011 209.509C123.143 209.803 123.275 210.096 123.412 210.398C124.369 212.479 125.422 214.228 126.984 215.918C127.213 216.169 127.442 216.42 127.677 216.679C127.89 216.911 128.102 217.144 128.321 217.383C129.785 219 129.785 219 129.785 220.02C126.498 220.02 123.211 220.02 119.825 220.02C119.534 219.149 119.244 218.279 118.946 217.383C118.413 216.788 118.413 216.788 117.774 216.449C116.632 215.768 116.199 215.117 115.723 213.867C115.652 213.041 115.617 212.257 115.613 211.432C115.532 208.863 115.007 206.623 114.168 204.202C113.98 203.657 113.806 203.108 113.632 202.558C112.549 199.367 110.96 196.428 109.364 193.47C106.948 188.967 106.591 186.181 108.057 181.264C108.164 180.917 108.271 180.57 108.38 180.212C109.457 176.697 110.282 173.326 110.157 169.629C109.894 169.877 109.632 170.124 109.362 170.38C107.583 172.053 105.802 173.685 103.876 175.19C97.1941 180.456 92.5517 185.926 91.431 194.661C90.826 199.949 91.002 205.096 91.8002 210.35C91.9397 211.283 92.0045 212.156 91.973 213.098C91.9933 214.203 92.1063 214.62 92.7432 215.497C92.9015 215.716 93.0597 215.936 93.2227 216.162C93.8908 216.966 94.621 217.669 95.4143 218.349C95.8011 218.848 95.8011 218.848 95.8011 220.312C91.8372 220.312 87.8734 220.312 83.7894 220.312C83.1347 218.676 83.0962 217.388 83.0398 215.649C82.9971 215.351 82.9544 215.053 82.9105 214.746C82.6204 214.553 82.3304 214.359 82.0316 214.16C81.4684 212.34 81.8471 210.46 82.1597 208.63C82.6937 205.13 82.6864 201.675 82.6363 198.145C82.604 195.749 82.6778 193.402 82.9105 191.016C82.9934 189.314 82.9929 187.702 82.6175 186.035C82.1725 184.036 81.9044 181.962 82.7823 180.066C83.4964 179.297 83.4964 179.297 84.4119 178.583C88.0669 175.577 91.2896 169.33 91.7916 164.674C91.8385 163.772 91.8513 162.878 91.846 161.975C91.845 161.646 91.8439 161.317 91.8429 160.978C91.7799 157.712 91.1611 154.637 90.4327 151.464C90.1161 150.06 89.8407 148.65 89.5755 147.235C89.524 146.972 89.4725 146.709 89.4194 146.439C89.1841 145.161 89.0367 143.96 89.0697 142.66C89.2341 140.396 89.2341 140.396 88.3727 138.401C87.528 137.7 86.6243 137.189 85.641 136.708C84.2163 136.009 84.2163 136.009 83.7894 135.352C83.8282 134.803 83.8282 134.803 84.0823 134.18C84.7045 133.661 84.7045 133.661 85.514 133.128C87.3621 131.838 88.9009 130.35 90.4727 128.741C90.869 128.343 90.869 128.343 91.2732 127.936C92.3858 126.811 93.4751 125.685 94.4862 124.467C94.7267 124.192 94.9673 123.916 95.2152 123.633C95.4085 123.633 95.6019 123.633 95.8011 123.633C95.8011 123.439 95.8011 123.246 95.8011 123.047C99.8699 119.119 104.453 116.501 110.179 116.535C113.866 116.659 117.573 117.166 121.224 117.669C127.321 118.502 135.62 119.113 140.916 115.303C141.316 114.965 141.705 114.613 142.09 114.258C142.284 114.258 142.477 114.258 142.676 114.258C142.773 113.968 142.869 113.678 142.969 113.379C145.747 110.262 150.021 107.719 153.809 106.055C153.576 105.888 153.342 105.722 153.102 105.55C152.791 105.324 152.481 105.098 152.161 104.865C151.855 104.644 151.549 104.423 151.234 104.195C149.208 102.597 148.077 100.649 146.942 98.3643C146.086 96.6773 145.239 95.0271 144.178 93.457C142.734 91.2774 141.687 88.7578 141.504 86.1328C142.676 86.1328 142.676 86.1328 143.431 86.8378C143.696 87.137 143.956 87.4393 144.214 87.7441C144.349 87.8978 144.483 88.0516 144.622 88.2099C144.953 88.5892 145.28 88.972 145.606 89.3555C145.606 88.5164 145.506 88.1149 145.211 87.3528C145.09 87.0299 145.09 87.0299 144.967 86.7004C144.795 86.2504 144.622 85.801 144.447 85.3523C143.997 84.14 143.695 83.3094 144.141 82.0312C145.154 82.4516 145.652 82.9499 146.302 83.8257C146.478 84.0598 146.655 84.294 146.837 84.5352C147.173 84.9937 147.506 85.4543 147.835 85.9177C147.982 86.1216 148.128 86.3255 148.279 86.5356C148.407 86.7192 148.534 86.9027 148.666 87.0918C149.23 87.7181 149.851 88.0732 150.586 88.4766C150.565 88.1578 150.544 87.8391 150.522 87.5107C150.168 81.9851 150.168 81.9851 150.293 79.9805C150.39 79.8838 150.487 79.7871 150.586 79.6875ZM192.115 105.432C191.841 105.733 191.57 106.036 191.309 106.348C191.868 107.573 192.516 108.234 193.653 108.984C194.904 109.028 195.488 108.852 196.491 108.105C197.796 106.412 198.453 104.66 198.633 102.539C196.106 102.385 193.874 103.673 192.115 105.432ZM174.28 106.439C174.063 106.53 173.846 106.62 173.622 106.713C173.061 106.957 172.515 107.236 171.973 107.52C171.579 108.358 171.579 108.358 171.954 108.956C173.274 110.743 174.579 111.513 176.66 112.207C177.848 112.321 178.929 112.351 180.048 111.914C180.59 111.16 180.632 110.522 180.581 109.606C180.242 107.726 179.054 106.532 177.539 105.469C176.309 105.469 175.395 105.952 174.28 106.439ZM150.879 110.156C150.68 110.294 150.481 110.431 150.276 110.573C147.966 112.172 145.722 113.728 143.8 115.789C139.868 119.587 134.395 120.233 129.181 120.227C128.816 120.227 128.452 120.228 128.076 120.228C123.951 120.199 119.851 119.778 115.75 119.362C108.034 118.559 108.034 118.559 101.075 121.582C97.9579 124.254 95.1047 127.225 92.2122 130.133C91.7343 130.612 91.2563 131.092 90.7783 131.571C89.6197 132.733 88.462 133.895 87.305 135.059C88.3834 135.778 89.1928 135.711 90.4361 135.681C90.6417 135.679 90.8474 135.676 91.0592 135.673C91.5657 135.666 92.0721 135.656 92.5784 135.645C92.515 135.862 92.4515 136.08 92.3862 136.305C90.7577 142.691 91.9817 148.66 93.5288 154.906C95.0601 161.496 94.0215 167.976 90.5277 173.73C89.3053 175.582 87.9202 177.267 86.3162 178.802C85.2741 179.819 84.3981 180.771 84.0823 182.227C84.164 183.531 84.4591 184.758 84.8365 186.005C85.3621 188.6 84.9559 191.569 84.8148 194.202C84.6383 197.515 84.6498 200.823 84.6792 204.14C84.6818 204.547 84.6843 204.954 84.6866 205.362C84.6882 205.56 84.6898 205.757 84.6914 205.961C84.694 207.638 84.5369 209.283 84.325 210.946C84.3897 212.065 84.8275 212.45 85.5472 213.281C85.6802 213.878 85.6802 213.878 85.6616 214.45C85.6579 214.656 85.6541 214.863 85.6502 215.076C85.6404 215.288 85.6305 215.499 85.6204 215.717C85.6151 215.934 85.6099 216.15 85.6044 216.374C85.5907 216.906 85.5697 217.437 85.5472 217.969C86.9111 218.239 88.2269 218.297 89.6121 218.28C89.8138 218.279 90.0155 218.277 90.2232 218.276C90.7154 218.273 91.2074 218.267 91.6995 218.262C91.3112 217.391 90.8882 216.839 90.2038 216.183C89.0502 214.868 89.1634 213.64 89.2642 211.963C89.285 211.429 89.3045 210.895 89.3226 210.361C89.3353 210.127 89.348 209.893 89.3611 209.652C89.373 208.85 89.373 208.85 89.2151 207.918C89.0518 206.757 89.0102 205.62 89.0033 204.45C89.0016 204.225 89 203.999 88.9982 203.767C88.9955 203.292 88.9936 202.816 88.9924 202.34C88.9896 201.631 88.9805 200.922 88.9713 200.213C88.9135 191.744 91.2714 184.224 97.2476 178.052C98.3644 176.98 99.5672 176.021 100.775 175.053C101.968 174.061 103.099 173.008 104.227 171.943C105.412 170.829 105.412 170.829 106.055 170.508C106.055 170.314 106.055 170.121 106.055 169.922C106.248 169.922 106.442 169.922 106.641 169.922C109.205 167.317 110.698 164.334 111.786 160.895C112.917 157.34 112.917 157.34 114.513 156.424C115.082 156.171 115.082 156.171 116.016 155.859C115.833 156.415 115.65 156.97 115.467 157.526C115.365 157.835 115.263 158.144 115.158 158.463C114.881 159.267 114.577 160.052 114.258 160.84C124.327 164.953 133.566 167.034 144.434 164.648C144.378 164.43 144.323 164.211 144.266 163.986C144.118 163.402 143.973 162.818 143.829 162.234C143.635 161.456 143.437 160.68 143.236 159.904C143.128 159.477 143.021 159.051 142.914 158.624C142.862 158.428 142.809 158.231 142.755 158.029C142.335 156.323 142.33 154.68 142.383 152.93C146.254 162.617 150.084 172.903 150.037 183.472C150.037 183.771 150.037 184.071 150.037 184.38C150.03 185.884 149.986 187.359 149.817 188.855C149.656 190.396 149.867 191.782 150.133 193.303C151.249 199.818 150.671 206.826 149.414 213.281C149.994 213.475 150.575 213.668 151.172 213.867C151.385 215.385 151.465 216.703 151.465 218.262C153.109 218.262 154.752 218.262 156.446 218.262C156.119 217.621 155.793 216.981 155.457 216.321C151.733 208.495 153.58 196.851 156.372 188.947C156.479 188.679 156.479 188.679 156.588 188.405C157.033 186.598 156.6 184.883 156.171 183.124C154.84 177.577 154.928 172.569 157.889 167.494C158.846 165.967 159.999 164.581 161.133 163.184C162.719 161.214 164.028 159.514 164.649 157.031C164.842 157.031 165.035 157.031 165.235 157.031C164.778 161.362 164.778 161.362 163.477 163.184C165.965 163.796 168.573 162.859 170.801 161.719C173.707 159.874 175.547 157.351 176.66 154.102C176.963 152.496 176.636 150.808 175.782 149.414C175.04 148.95 175.04 148.95 174.317 148.828C175.219 148.334 176.154 148.004 177.125 147.67C179.996 146.667 182.49 145.486 183.985 142.676C184.419 141.591 184.571 140.927 184.571 139.746C184.189 139.64 184.189 139.64 183.799 139.531C181.162 138.764 179.271 138.139 177.843 135.695C177.379 134.721 177.161 133.772 176.953 132.715C177.156 133.007 177.156 133.007 177.363 133.304C179.39 136.049 181.572 136.966 184.762 137.962C185.73 138.411 186.151 138.982 186.524 139.972C186.638 140.734 186.667 141.491 186.692 142.261C186.779 144.785 187.226 146.58 188.581 148.737C189.039 149.544 189.152 150.256 189.258 151.172C190.848 150.547 191.552 149.305 192.261 147.821C192.712 146.729 193.032 145.913 192.774 144.727C192.369 144.176 191.939 143.691 191.458 143.206C190.394 141.93 190.321 140.525 190.247 138.922C190.236 138.719 190.224 138.516 190.213 138.307C190.185 137.81 190.161 137.313 190.137 136.816C191.578 138.089 191.796 138.854 191.939 140.707C192.29 141.831 192.971 142.377 193.946 142.969C194.728 143.321 195.518 143.567 196.344 143.793C196.563 143.854 196.782 143.915 197.007 143.979C199.049 144.519 201.078 144.991 203.028 143.976C204.667 141.978 204.977 139.613 204.785 137.109C203.921 130.944 201.233 126.275 196.308 122.388C195.121 121.415 194.347 120.176 194.169 118.633C194.165 118.066 194.165 118.066 194.239 117.188C195.117 117.188 195.117 117.188 195.612 117.627C195.739 117.772 195.866 117.917 195.996 118.066C196.393 117.732 196.393 117.732 196.381 116.84C196.2 114.637 194.67 113.477 193.158 112.006C192.357 111.205 191.625 110.36 190.9 109.49C190.166 108.7 189.645 108.145 188.542 108.032C186.556 108.217 184.682 108.565 183.106 109.863C182.776 110.534 182.602 111.166 182.421 111.89C182.227 112.5 182.227 112.5 181.531 113.196C180.513 113.652 179.691 113.824 178.601 114.02C176.726 114.402 175.965 115.08 174.821 116.573C174.146 117.395 173.542 117.698 172.559 118.066C172.665 117.823 172.77 117.579 172.879 117.328C173.015 117.01 173.151 116.692 173.291 116.364C173.495 115.889 173.495 115.889 173.703 115.406C174.075 114.566 174.075 114.566 174.024 113.672C172.655 113.052 171.351 112.601 169.886 112.244C166.748 111.44 163.813 110.243 160.924 108.786C157.346 107.037 153.976 107.968 150.879 110.156Z" fill="black"/>
<path d="M179.297 117.773C180.012 117.897 180.726 118.026 181.439 118.158C181.641 118.193 181.844 118.227 182.052 118.263C182.871 118.417 183.557 118.56 184.25 119.037C184.649 119.653 184.783 120.185 184.918 120.905C184.965 121.141 185.011 121.378 185.059 121.622C185.091 121.802 185.123 121.982 185.156 122.168C184.506 121.876 184.043 121.647 183.563 121.112C182.928 120.545 182.479 120.615 181.641 120.612C180.856 120.558 180.856 120.558 180.176 120.41C179.476 119.463 179.297 118.944 179.297 117.773Z" fill="black"/>
</svg>
