<svg width="300" height="300" viewBox="0 0 300 300" fill="none" xmlns="http://www.w3.org/2000/svg">
<path d="M0 0C37.7051 0 75.4102 0 114.258 0C114.258 45.4395 114.258 90.8789 114.258 137.695C126.583 138.349 126.583 138.349 138.867 134.18C139.628 133.25 140.273 132.262 140.918 131.25C143.493 127.325 146.188 124.641 150.842 123.413C154.754 122.616 158.901 122.309 162.891 122.461C162.978 122.283 163.065 122.105 163.155 121.922C163.477 121.289 163.477 121.289 163.934 120.538C164.342 119.564 164.425 118.956 164.484 117.92C164.648 115.709 165.606 114.716 167.212 113.269C167.625 112.913 168.04 112.558 168.457 112.207C168.331 111.797 168.202 111.389 168.073 110.98C168.001 110.752 167.93 110.525 167.856 110.29C167.539 109.47 167.223 108.816 166.699 108.105C165.999 107.876 165.999 107.876 165.19 107.895C164.882 107.885 164.573 107.875 164.256 107.865C163.922 107.862 163.587 107.858 163.243 107.855C162.897 107.845 162.551 107.836 162.195 107.826C161.084 107.796 159.973 107.777 158.862 107.758C157.411 107.726 155.96 107.691 154.509 107.653C153.987 107.64 153.987 107.64 153.455 107.627C144.515 107.367 139.024 104.163 132.751 97.9797C132.518 97.7516 132.285 97.5234 132.044 97.2883C129.402 94.6425 127.643 91.7154 125.94 88.4033C125.766 88.0736 125.592 87.7439 125.412 87.4043C121.85 80.5233 121.85 80.5233 122.461 77.0508C123.047 76.4648 123.047 76.4648 123.853 76.4099C124.921 76.8002 125.044 76.9877 125.631 77.9102C125.783 78.1482 125.935 78.3862 126.092 78.6314C127.018 80.1334 127.918 81.6497 128.811 83.1711C130.055 85.5469 130.055 85.5469 132.129 87.0117C132.126 86.7461 132.123 86.4805 132.12 86.2069C132.11 85.2044 132.102 84.2019 132.097 83.1994C132.094 82.7687 132.09 82.338 132.085 81.9074C132.054 79.2584 132.161 76.7254 132.715 74.1211C133.374 73.9014 133.374 73.9014 134.18 73.8281C135.238 74.6007 135.637 75.5097 136.099 76.7109C136.296 77.212 136.296 77.212 136.496 77.7232C136.7 78.2514 136.7 78.2514 136.908 78.7903C138.388 83.4238 138.388 83.4238 141.23 87.1021C141.789 87.3376 141.789 87.3376 142.383 87.3047C142.419 84.8167 142.349 82.3587 142.195 79.8766C142.08 77.9555 142.059 76.0459 142.09 74.1211C142.888 73.7219 143.543 73.7785 144.434 73.7732C144.748 73.769 145.062 73.7649 145.386 73.7606C146.191 73.8281 146.191 73.8281 146.777 74.4141C146.923 75.3795 147.022 76.3373 147.106 77.3094C147.246 78.6642 147.549 79.6582 148.242 80.8594C149.347 80.4015 150.046 79.7107 150.879 78.8635C151.127 78.6139 151.374 78.3643 151.63 78.1071C152.351 77.3581 152.351 77.3581 152.966 76.553C153.679 75.6779 154.14 75.3195 155.273 75.2014C156.152 75.293 156.152 75.293 156.665 75.6226C158.662 78.6183 157.544 83.0844 157.031 86.3892C156.21 90.4914 156.21 90.4914 157.086 94.4458C157.205 94.6898 157.324 94.9337 157.447 95.1851C158.36 96.399 159.756 96.5008 161.188 96.7163C163.708 97.0591 166.212 97.0245 168.75 96.9727C168.357 95.7943 167.851 95.6862 166.772 95.105C163.911 93.4829 162.243 91.3902 161.296 88.242C160.498 85.0967 160.437 81.328 161.426 78.2227C161.619 77.9326 161.812 77.6426 162.012 77.3438C164.304 77.2939 165.417 78.771 166.992 80.2734C168.467 81.5808 170.101 82.44 171.844 83.3313C175.274 85.1107 176.724 86.856 178.125 90.5273C178.462 91.5931 178.755 92.6604 179.004 93.75C179.356 93.6654 179.707 93.5808 180.069 93.4937C185.902 92.1644 191.013 91.7332 196.252 94.9402C196.851 95.3235 197.45 95.7079 198.047 96.0938C198.534 96.3878 199.023 96.681 199.512 96.9727C199.445 96.6698 199.445 96.6698 199.377 96.3608C197.212 86.3898 197.212 86.3898 198.926 83.2031C199.975 82.0373 200.903 81.8589 202.441 81.7383C202.986 82.6531 203.331 83.2605 203.284 84.3384C203.027 85.2539 203.027 85.2539 202.57 86.3159C201.913 88.0083 201.759 90.0148 202.372 91.7427C202.692 92.3488 202.692 92.3488 203.32 93.1641C203.496 93.4299 203.671 93.6958 203.851 93.9697C204.654 94.7954 205.484 95.0799 206.543 95.5078C206.545 95.2952 206.546 95.0825 206.548 94.8634C206.565 92.8548 206.586 90.8463 206.612 88.8378C206.625 87.8053 206.637 86.7728 206.644 85.7403C206.654 84.5519 206.67 83.3637 206.686 82.1754C206.688 81.8064 206.69 81.4374 206.692 81.0572C206.697 80.7113 206.703 80.3653 206.709 80.0089C206.713 79.7058 206.716 79.4026 206.719 79.0903C206.858 78.057 207.177 77.3543 207.715 76.4648C208.594 75.8789 208.594 75.8789 209.303 75.9178C210.218 76.2255 210.637 76.6129 211.304 77.3071C211.53 77.5424 211.756 77.7777 211.989 78.0201C212.953 79.0963 213.851 80.2185 214.734 81.3618C215.306 82.002 215.714 82.3066 216.504 82.6172C216.575 82.3407 216.646 82.0643 216.719 81.7795C218.371 75.4225 218.371 75.4225 219.434 73.8281C220.386 73.8281 220.386 73.8281 221.484 74.1211C223.093 76.3802 222.812 78.9645 222.8 81.6185C222.797 83.9688 222.806 85.8652 224.121 87.8906C224.508 87.8906 224.895 87.8906 225.293 87.8906C226.476 85.8607 226.843 83.8961 227.216 81.5918C228.122 76.0952 228.122 76.0952 229.279 74.7437C229.708 74.4385 230.137 74.1333 230.566 73.8281C231.129 74.0454 231.129 74.0454 231.738 74.4141C231.979 74.9647 231.979 74.9647 232.109 75.6248C232.183 75.9789 232.183 75.9789 232.258 76.3401C232.304 76.5867 232.35 76.8333 232.397 77.0874C232.448 77.3363 232.499 77.5852 232.551 77.8416C232.675 78.456 232.793 79.0716 232.91 79.6875C233.886 78.7534 234.691 77.8282 235.437 76.7029C236.039 75.795 236.386 75.3192 237.305 74.707C238.22 74.6521 238.22 74.6521 239.062 74.707C239.585 75.2297 239.394 75.9254 239.396 76.6205C239.394 76.835 239.393 77.0495 239.392 77.2705C239.393 77.4805 239.394 77.6905 239.396 77.9068C239.393 79.0254 239.332 80.0652 239.062 81.1523C239.31 80.9832 239.558 80.814 239.813 80.6396C240.148 80.4189 240.484 80.1993 240.82 79.9805C240.989 79.8687 241.158 79.7569 241.332 79.6417C242.481 78.9251 243.28 78.677 244.629 78.8086C245.432 80.4154 245.001 82.6154 244.556 84.2834C243.479 87.4871 241.801 90.4729 240.234 93.457C240.012 93.8819 240.012 93.8819 239.785 94.3153C239.365 95.1119 238.941 95.9056 238.513 96.698C238.388 96.9329 238.263 97.1678 238.134 97.4099C235.115 102.906 229.536 104.383 223.828 106.055C218.978 107.413 213.965 108.162 208.923 108.087C207.075 108.078 205.821 108.168 204.272 109.259C203.181 110.744 202.625 112.305 202.815 114.168C203.661 117.995 204.844 121.732 205.975 125.482C206.298 126.556 206.621 127.629 206.943 128.703C207.142 129.368 207.341 130.032 207.542 130.695C208.438 133.683 208.991 136.487 209.216 139.6C209.242 139.909 209.267 140.219 209.293 140.538C209.657 145.367 209.385 149.918 208.74 154.706C208.635 155.505 208.53 156.304 208.427 157.103C208.363 157.595 208.298 158.087 208.231 158.578C207.728 162.423 208.397 165.501 210.388 168.842C211.975 171.514 211.975 171.514 212.109 173.145C212.133 173.422 212.156 173.699 212.18 173.985C212.375 179.041 211.331 184.32 210.097 189.207C209.704 190.867 209.556 192.65 210.343 194.22C213.156 198.412 221.71 200.216 226.143 201.783C231.125 203.545 236.07 206.543 238.569 211.393C239.653 213.998 239.759 216.665 238.916 219.36C237.763 222.111 235.936 223.654 233.297 224.944C231.097 225.733 228.907 225.966 226.583 225.96C226.315 225.962 226.047 225.964 225.771 225.966C224.88 225.971 223.989 225.971 223.098 225.972C222.453 225.975 221.809 225.978 221.164 225.981C219.406 225.989 217.648 225.994 215.89 225.997C214.018 226.002 212.145 226.01 210.273 226.017C206.869 226.031 203.465 226.041 200.061 226.05C196.955 226.058 193.849 226.068 190.742 226.079C190.329 226.08 189.915 226.081 189.501 226.083C188.881 226.085 188.26 226.087 187.639 226.089C172.664 226.141 157.689 226.179 142.714 226.189C142.469 226.189 142.224 226.189 141.972 226.19C132.734 226.196 123.496 226.182 114.258 226.172C114.258 250.535 114.258 274.898 114.258 300C76.5527 300 38.8477 300 0 300C0 201 0 102 0 0ZM154.395 80.5664C151.4 84.844 149.61 90.0399 150.441 95.2652C151.042 97.9718 152.19 100.236 154.102 102.246C154.89 102.709 155.58 102.929 156.481 103.06C156.833 103.113 156.833 103.113 157.192 103.166C157.569 103.22 157.569 103.22 157.954 103.274C158.214 103.312 158.475 103.35 158.744 103.389C159.295 103.47 159.846 103.549 160.397 103.627C161.238 103.747 162.078 103.87 162.918 103.994C163.454 104.071 163.991 104.149 164.527 104.226C164.777 104.263 165.027 104.299 165.285 104.337C166.549 104.515 167.762 104.631 169.043 104.59C169.289 104.163 169.532 103.736 169.775 103.308C169.911 103.07 170.047 102.832 170.187 102.587C170.552 101.984 170.552 101.984 170.508 101.367C170.339 101.356 170.169 101.344 169.995 101.332C158.675 100.52 158.675 100.52 155.768 97.522C154.188 95.4572 153.959 92.9948 154.01 90.4724C154.012 90.2063 154.015 89.9402 154.017 89.666C154.052 87.6889 154.252 85.7821 154.557 83.828C154.714 82.7217 154.733 81.6808 154.688 80.5664C154.591 80.5664 154.494 80.5664 154.395 80.5664ZM209.766 81.1523C209.691 83.2203 209.811 85.2185 210.059 87.2681C210.307 89.4118 210.424 91.537 210.443 93.6951C210.448 93.966 210.453 94.2369 210.459 94.516C210.457 96.0461 210.332 97.1168 209.473 98.4375C208.069 99.7669 206.787 100.271 204.865 100.263C204.541 100.262 204.217 100.262 203.883 100.262C203.54 100.258 203.197 100.254 202.844 100.25C202.494 100.248 202.143 100.246 201.782 100.245C198.871 100.22 195.97 100.1 193.066 99.9023C192.776 98.3071 192.776 98.3071 192.48 96.6797C187.269 95.9783 187.269 95.9783 182.025 95.6726C181.655 95.6669 181.286 95.6613 180.905 95.6554C179.352 95.8763 178.302 96.4624 177.222 97.6353C177.055 97.8698 176.887 98.1043 176.715 98.3459C175.882 99.453 175.032 100.333 173.969 101.221C172.294 102.668 171.492 104.275 170.801 106.348C170.781 106.854 170.776 107.361 170.782 107.867C170.789 108.333 170.795 108.798 170.801 109.277C171.671 108.794 172.541 108.311 173.438 107.812C173.749 110.17 172.792 111.537 171.387 113.379C170.751 114.114 170.103 114.826 169.426 115.524C167.568 117.681 166.272 120.197 164.941 122.699C164.768 123.021 164.595 123.343 164.417 123.675C163.285 125.791 162.197 127.927 161.133 130.078C160.877 130.591 160.62 131.104 160.364 131.616C160.247 131.851 160.131 132.087 160.011 132.329C159.785 132.777 159.55 133.22 159.306 133.659C159.196 133.861 159.086 134.063 158.972 134.271C158.873 134.445 158.774 134.619 158.672 134.799C158.416 135.603 158.521 136.012 158.789 136.816C159.219 137.554 159.711 138.236 160.217 138.922C160.348 139.106 160.479 139.29 160.614 139.48C161.227 140.325 161.722 140.92 162.598 141.504C165.71 141.597 169 141.143 171.344 138.985C171.741 138.587 171.741 138.587 171.68 137.988C172.509 137.569 173.343 137.166 174.188 136.78C174.412 136.676 174.636 136.573 174.867 136.466C175.488 136.23 175.488 136.23 176.367 136.23C177.21 138.759 176.79 141.665 175.83 144.09C175.276 145.122 174.848 145.526 173.73 145.898C171.88 146.05 171.157 145.847 169.629 144.727C168.783 144.466 168.127 144.435 167.239 144.456C166.026 144.432 164.934 144.244 163.751 143.994C162.377 143.705 161.079 143.502 159.668 143.555C159.532 145.254 159.78 146.036 160.84 147.363C164.234 149.841 168.274 150.497 172.4 149.895C174.536 149.468 176.072 148.513 177.631 146.997C179.003 144.761 179.727 142.096 180.542 139.618C180.648 139.309 180.755 139 180.865 138.681C181.813 135.784 182.128 133.329 180.78 130.536C179.511 127.852 178.961 125.251 179.924 122.324C180.96 120.13 182.325 118.268 183.821 116.366C185.065 114.756 186.014 113.071 186.88 111.232C187.565 109.821 188.245 108.994 189.551 108.105C191.293 107.608 192.913 108.309 194.483 109.05C195.156 109.365 195.156 109.365 195.996 108.984C195.891 107.339 195.403 106.265 194.548 104.859C194.238 104.297 194.238 104.297 194.238 103.711C194.455 103.774 194.671 103.838 194.894 103.903C199.631 105.203 205.919 104.842 210.352 102.539C212.413 101.302 213.469 99.3084 214.124 97.0642C215.222 91.9301 212.906 85.9049 210.352 81.4453C210.062 81.3003 210.062 81.3003 209.766 81.1523ZM190.137 111.621C190.04 112.008 189.943 112.395 189.844 112.793C190.717 113.435 191.142 113.682 192.242 113.617C193.098 113.442 193.098 113.442 193.652 112.793C193.556 112.406 193.459 112.02 193.359 111.621C192.296 111.621 191.232 111.621 190.137 111.621ZM148.828 130.078C148.569 130.273 148.31 130.467 148.043 130.667C146.141 132.139 144.163 133.696 142.932 135.791C140.984 138.629 136.748 139.72 133.594 140.332C128.909 141.175 124.317 141.33 119.568 141.284C118.873 141.281 118.177 141.278 117.482 141.276C113.519 141.256 109.56 141.174 105.6 141.051C101.521 140.924 97.4968 140.81 93.457 141.504C93.2477 141.539 93.0384 141.574 92.8227 141.61C86.6699 142.704 80.6738 145.41 75.8789 149.414C75.5192 149.689 75.5192 149.689 75.1522 149.969C68.639 155.412 64.4572 165.553 63.6599 173.807C63.2394 179.27 65.0285 184.575 68.4448 188.84C70.1908 190.623 72.5278 191.218 74.8627 191.925C75.5859 192.188 75.5859 192.188 76.1719 192.773C76.9484 195.208 75.386 197.954 74.3408 200.116C72.1153 204.384 69.1207 208.257 66.0645 211.963C64.7382 213.615 63.6285 215.181 63.7539 217.378C64.0284 218.809 64.6843 219.926 65.6616 220.99C67.6124 222.135 69.5628 222.421 71.8025 222.532C72.0315 222.543 72.2604 222.555 72.4963 222.568C74.9741 222.686 77.4509 222.7 79.931 222.694C80.6931 222.693 81.4551 222.694 82.2172 222.696C84.8774 222.697 87.5228 222.632 90.1785 222.478C92.9542 222.318 95.7313 222.257 98.5107 222.198C98.9408 222.189 98.9408 222.189 99.3795 222.179C104.138 222.074 108.892 222.069 113.652 222.093C119.338 222.117 124.992 221.864 130.664 221.484C128.302 217.098 124.249 213.486 119.531 211.816C115.014 210.669 109.658 211.694 105.101 212.097C98.6751 212.665 92.2777 213.136 85.8215 213.098C85.4107 213.096 85.4107 213.096 84.9916 213.094C84.2272 213.089 83.4629 213.08 82.6984 213.068C82.4802 213.065 82.2619 213.062 82.0371 213.059C80.7401 213.029 79.5002 212.902 78.2227 212.695C78.9067 211.156 79.9822 210.709 81.4453 210.059C84.4641 208.667 87.1884 206.925 89.9414 205.078C90.1504 204.938 90.3594 204.799 90.5747 204.655C94.0966 202.292 97.3828 199.772 100.488 196.875C100.73 196.653 100.972 196.43 101.221 196.201C105.813 191.817 109.48 185.926 109.698 179.462C109.595 175.232 108.029 172.09 105.048 169.153C103.161 167.528 100.971 166.566 98.7305 165.527C92.7607 162.725 92.7607 162.725 91.1133 160.254C91.1133 159.867 91.1133 159.48 91.1133 159.082C97.1051 160.004 105.434 161.87 109.277 166.992C112.531 171.629 114.525 177.013 113.8 182.739C112.932 187.128 110.93 190.895 108.398 194.531C110.288 195.288 112.191 195.821 114.166 196.307C114.479 196.385 114.791 196.462 115.113 196.542C120.219 197.783 125.301 198.099 130.54 198.242C131.102 198.259 131.665 198.277 132.228 198.297C133.049 198.326 133.87 198.35 134.691 198.372C134.942 198.382 135.192 198.392 135.451 198.402C136.83 198.432 137.762 198.391 138.867 197.461C139.226 196.589 139.226 196.589 139.38 195.575C139.445 195.243 139.51 194.911 139.577 194.569C140.062 191.376 140.095 188.16 140.153 184.938C140.426 170.54 140.426 170.54 142.676 165.82C143.445 165.436 143.445 165.436 144.141 165.234C144.138 165.402 144.135 165.569 144.132 165.741C144.111 167.829 144.245 169.891 144.397 171.973C144.682 176.139 144.872 180.306 145.038 184.479C145.05 184.792 145.063 185.106 145.076 185.429C145.204 188.645 145.32 191.86 145.383 195.077C145.391 195.443 145.391 195.443 145.399 195.816C145.423 196.937 145.443 198.057 145.454 199.178C145.5 203.177 145.5 203.177 147.491 206.488C150.392 208.714 153.874 209.303 157.387 209.914C158.199 210.058 159.008 210.214 159.818 210.371C164.089 211.161 168.327 211.44 172.661 211.565C176.108 211.681 179.863 211.903 182.812 213.867C182.716 214.157 182.619 214.447 182.52 214.746C181.678 214.889 180.835 215.029 179.993 215.167C179.762 215.207 179.53 215.246 179.292 215.287C175.667 215.877 172.014 215.983 168.347 215.991C168.146 215.992 167.944 215.992 167.737 215.993C163.141 215.993 158.65 215.524 154.151 214.575C152.451 214.248 151.201 214.391 149.702 215.219C147.832 216.526 146.557 218.43 145.898 220.605C145.898 220.992 145.898 221.379 145.898 221.777C146.227 221.78 146.555 221.783 146.893 221.786C150.02 221.815 153.148 221.846 156.276 221.877C157.883 221.893 159.49 221.908 161.097 221.923C167.516 221.982 173.928 222.046 180.342 222.334C182.074 222.405 183.807 222.417 185.541 222.418C185.88 222.422 186.219 222.425 186.568 222.429C190.848 222.535 190.848 222.535 194.641 220.898C196.736 218.772 198.31 216.529 198.45 213.501C198.41 211.435 197.699 209.843 196.71 208.063C194.668 206.23 191.573 205.501 189.012 204.658C188.66 204.541 188.307 204.424 187.944 204.303C187.202 204.056 186.46 203.81 185.718 203.565C184.6 203.196 183.484 202.824 182.368 202.452C178.957 201.319 175.549 200.19 172.088 199.218C168.93 198.31 165.369 196.713 162.891 194.531C162.794 194.241 162.697 193.951 162.598 193.652C165.885 193.556 169.172 193.459 172.559 193.359C173.788 190.901 174.868 188.579 175.836 186.035C176.023 185.558 176.023 185.558 176.213 185.072C178.068 180.238 179.06 175.743 176.953 170.801C175.84 168.658 174.325 166.785 172.799 164.925C170.908 162.596 170.326 160.579 170.508 157.617C170.634 156.859 170.788 156.116 170.966 155.368C171.103 154.639 171.115 153.963 171.094 153.223C170.773 153.271 170.453 153.319 170.123 153.369C169.666 153.42 169.208 153.469 168.75 153.516C168.509 153.546 168.269 153.576 168.021 153.607C165.181 153.809 162.687 152.484 160.483 150.764C158.519 148.922 157.805 146.341 157.242 143.779C156.941 142.622 156.422 141.676 155.859 140.625C155.447 139.306 155.512 137.984 155.511 136.615C155.508 136.363 155.504 136.111 155.501 135.851C155.495 133.458 155.795 131.367 157.013 129.272C157.234 128.885 157.234 128.885 157.46 128.49C157.902 127.749 158.344 127.008 158.789 126.27C155.079 126.086 151.687 127.883 148.828 130.078ZM184.863 142.969C183.837 153.525 183.837 153.525 188.379 162.891C189.079 162.953 189.079 162.953 189.844 162.598C191.653 160.042 192.346 155.691 191.895 152.637C191.398 150.932 190.592 149.458 189.642 147.968C189.514 147.765 189.386 147.562 189.254 147.353C188.243 145.787 187.186 144.169 185.742 142.969C185.452 142.969 185.162 142.969 184.863 142.969ZM180.176 147.949C179.915 148.268 179.915 148.268 179.648 148.592C177.965 150.555 176.42 151.85 174.023 152.93C173.797 156.839 174.09 161.278 176.553 164.493C176.87 164.848 177.202 165.19 177.539 165.527C178.136 165.593 178.136 165.593 178.711 165.234C179.655 163.459 179.917 161.623 180.212 159.65C180.263 159.323 180.313 158.997 180.365 158.661C180.71 156.36 180.979 154.085 181.055 151.758C181.07 151.472 181.085 151.187 181.1 150.893C181.225 149.491 181.225 149.491 180.611 148.31C180.467 148.191 180.324 148.072 180.176 147.949Z" fill="black"/>
<path d="M173.145 107.52C173.338 107.616 173.531 107.713 173.73 107.812C173.73 108.586 173.73 109.359 173.73 110.156C173.634 110.156 173.537 110.156 173.438 110.156C173.341 109.673 173.244 109.189 173.145 108.691C172.468 108.885 171.791 109.078 171.094 109.277C172.485 107.849 172.485 107.849 173.145 107.52Z" fill="black"/>
</svg>
