<svg width="300" height="300" viewBox="0 0 300 300" fill="none" xmlns="http://www.w3.org/2000/svg">
<path d="M110.156 53.4492C111.271 53.6582 111.742 53.941 112.5 54.7859C113.035 56.783 112.569 58.6924 112.223 60.6958C112.157 61.0865 112.092 61.4772 112.028 61.868C111.851 62.9299 111.671 63.991 111.49 65.0522C111.298 66.18 111.11 67.3084 110.921 68.4368C110.56 70.5903 110.196 72.7432 109.831 74.896C109.427 77.2835 109.026 79.6715 108.625 82.0597C107.41 89.3002 106.186 96.5392 104.952 103.777C104.859 104.326 104.859 104.326 104.763 104.885C104.476 106.571 104.189 108.256 103.9 109.941C103.8 110.526 103.7 111.112 103.6 111.697C103.556 111.955 103.511 112.213 103.466 112.478C103.216 113.948 103.006 115.415 102.832 116.895C103.039 116.931 103.245 116.968 103.459 117.005C104.339 117.197 105.144 117.469 105.99 117.78C106.494 117.964 106.494 117.964 107.007 118.151C107.37 118.285 107.733 118.419 108.107 118.557C108.49 118.697 108.873 118.838 109.257 118.978C110.07 119.276 110.883 119.575 111.696 119.874C112.957 120.338 114.22 120.801 115.482 121.263C115.69 121.339 115.898 121.415 116.113 121.494C116.532 121.647 116.951 121.801 117.369 121.954C117.995 122.183 118.62 122.413 119.245 122.642C122.553 123.855 125.866 125.058 129.181 126.252C129.4 126.331 129.62 126.41 129.847 126.492C130.998 126.907 132.149 127.321 133.301 127.735C132.577 126.81 131.837 125.941 131.007 125.11C130.797 124.899 130.587 124.688 130.37 124.471C130.153 124.255 129.936 124.039 129.712 123.817C129.499 123.603 129.287 123.389 129.068 123.169C127.865 121.969 126.633 120.825 125.346 119.717C124.542 119.008 123.795 118.249 123.047 117.481C121.894 116.313 120.719 115.2 119.472 114.133C118.566 113.341 117.724 112.493 116.894 111.622C116.705 111.424 116.516 111.227 116.321 111.023C116.043 110.721 116.043 110.721 115.759 110.413C115.591 110.231 115.422 110.049 115.249 109.862C114.659 109.012 114.473 108.298 114.64 107.26C114.803 106.571 114.988 105.891 115.18 105.21C115.251 104.946 115.323 104.683 115.396 104.411C115.553 103.832 115.712 103.253 115.871 102.675C116.317 101.059 116.751 99.4399 117.187 97.8214C117.282 97.4732 117.376 97.125 117.473 96.7663C118.514 92.9061 119.507 89.0339 120.499 85.1608C121.024 83.1131 121.551 81.0659 122.077 79.0188C122.13 78.816 122.182 78.6133 122.236 78.4044C123.313 74.2207 124.395 70.0384 125.489 65.8589C125.678 65.1382 125.865 64.4174 126.053 63.6964C126.312 62.7007 126.572 61.7055 126.834 60.7105C126.908 60.4233 126.982 60.1361 127.059 59.8401C128.421 54.6847 128.421 54.6847 129.492 53.614C130.587 53.5108 131.358 53.5415 132.385 53.9436C133.224 54.6841 133.207 55.1474 133.301 56.2507C133.151 57.1726 133.151 57.1726 132.884 58.1771C132.836 58.363 132.788 58.5489 132.738 58.7404C132.576 59.3595 132.41 59.9771 132.243 60.5949C132.126 61.0389 132.01 61.4831 131.893 61.9273C131.643 62.8812 131.391 63.8344 131.136 64.7873C130.734 66.2961 130.336 67.8062 129.939 69.3165C129.803 69.8327 129.667 70.349 129.532 70.8652C129.43 71.2521 129.43 71.2521 129.326 71.6468C129.117 72.4398 128.908 73.2325 128.699 74.0253C127.743 77.647 126.802 81.2724 125.873 84.901C125.811 85.1454 125.748 85.3899 125.684 85.6417C125.197 87.5423 124.712 89.4431 124.226 91.3439C123.89 92.6584 123.554 93.9728 123.218 95.287C123.112 95.6988 123.007 96.1106 122.902 96.5225C122.393 98.5169 121.875 100.508 121.317 102.49C121.233 102.791 121.148 103.092 121.061 103.402C120.906 103.949 120.748 104.496 120.588 105.041C120.52 105.277 120.453 105.513 120.384 105.756C120.325 105.957 120.266 106.158 120.205 106.366C120.101 107.039 120.183 107.466 120.41 108.106C120.936 108.75 120.936 108.75 121.6 109.37C121.842 109.603 122.083 109.836 122.332 110.077C123.1 110.793 123.885 111.485 124.682 112.169C125.651 113.023 126.591 113.906 127.533 114.79C131.685 118.87 131.685 118.87 136.23 122.462C136.561 121.246 136.639 120.034 136.724 118.781C136.76 118.283 136.796 117.785 136.833 117.287C136.889 116.504 136.945 115.721 136.999 114.937C137.051 114.18 137.107 113.423 137.163 112.666C137.178 112.432 137.194 112.198 137.209 111.957C137.368 109.868 137.368 109.868 137.988 108.985C138.899 108.428 139.315 108.372 140.369 108.582C141.291 109.024 141.571 109.293 142.09 110.157C142.216 110.909 142.216 110.909 142.24 111.745C142.25 112.046 142.26 112.346 142.271 112.655C142.278 112.967 142.284 113.278 142.291 113.599C142.301 113.915 142.311 114.232 142.321 114.557C142.346 115.337 142.366 116.116 142.383 116.895C142.518 116.569 142.653 116.242 142.792 115.905C143.457 114.402 143.457 114.402 144.433 113.966C145.564 113.773 146.598 113.701 147.622 114.275C148.482 114.977 149.051 115.54 149.214 116.65C149.237 116.888 149.261 117.126 149.286 117.371C149.31 117.611 149.335 117.85 149.36 118.097C149.378 118.28 149.396 118.464 149.414 118.653C149.897 118.75 150.381 118.846 150.879 118.946C150.865 118.776 150.852 118.606 150.838 118.431C150.761 116.767 150.949 115.879 152.051 114.552C152.805 113.797 153.145 113.87 154.193 113.856C155.316 113.875 155.784 113.922 156.775 114.497C157.324 115.137 157.324 115.137 157.617 116.016C157.621 115.762 157.621 115.762 157.625 115.502C157.641 114.727 157.666 113.953 157.69 113.178C157.694 112.911 157.699 112.644 157.703 112.369C157.749 111.114 157.796 110.345 158.456 109.254C159.267 108.526 159.753 108.399 160.84 108.399C161.664 108.747 161.664 108.747 162.305 109.278C162.681 110.321 162.686 111.424 162.754 112.522C162.767 112.723 162.78 112.923 162.792 113.129C162.819 113.552 162.845 113.976 162.87 114.399C162.908 115.039 162.949 115.678 162.99 116.318C163.117 118.368 163.218 120.407 163.184 122.462C166.267 120.241 169.095 117.701 171.877 115.118C173.036 114.048 174.247 113.059 175.476 112.073C176.472 111.241 177.424 110.372 178.373 109.488C178.635 109.245 178.635 109.245 178.901 108.998C179.327 108.603 179.751 108.208 180.176 107.813C180.131 107.644 180.086 107.475 180.04 107.301C177.617 98.133 175.215 88.9596 172.858 79.774C171.912 76.0914 170.955 72.4122 169.971 68.7396C169.812 68.1484 169.654 67.557 169.497 66.9657C169.394 66.5799 169.291 66.1941 169.188 65.8083C169.112 65.5257 169.112 65.5257 169.035 65.2374C168.693 63.9551 168.345 62.674 167.997 61.3931C167.82 60.7315 167.644 60.0699 167.467 59.4082C167.384 59.1082 167.302 58.8082 167.216 58.4991C167.143 58.2227 167.07 57.9464 166.995 57.6617C166.93 57.4231 166.866 57.1845 166.799 56.9386C166.682 56.1329 166.76 55.5644 166.992 54.7859C167.766 53.9673 168.238 53.6498 169.354 53.4675C170.432 53.6511 170.694 53.9538 171.387 54.7859C171.706 55.561 171.706 55.561 171.954 56.467C172.051 56.8139 172.148 57.1608 172.247 57.5182C172.351 57.9075 172.455 58.2967 172.559 58.686C172.674 59.1084 172.789 59.5306 172.905 59.9528C173.891 63.5749 174.811 67.2145 175.731 70.8538C177.447 77.6454 179.243 84.4158 181.036 91.1873C181.111 91.4696 181.186 91.7519 181.263 92.0427C182.312 96.0047 182.312 96.0047 183.363 99.966C183.485 100.427 183.606 100.889 183.726 101.351C184.04 102.556 184.375 103.751 184.74 104.942C184.813 105.192 184.887 105.443 184.963 105.701C185.104 106.179 185.252 106.656 185.407 107.13C185.86 108.699 185.86 108.699 185.515 109.538C184.976 110.355 184.347 111.055 183.571 111.649C182.609 112.419 181.724 113.246 180.836 114.099C179.947 114.949 179.036 115.775 178.125 116.602C177.871 116.835 177.617 117.068 177.355 117.307C175.902 118.613 175.902 118.613 174.902 118.946C174.7 119.333 174.506 119.724 174.316 120.118C173.87 120.568 173.87 120.568 173.328 121.015C172.266 121.912 171.235 122.837 170.215 123.78C168.866 125.022 167.502 126.245 166.113 127.442C167.218 127.442 168.128 127.097 169.16 126.741C169.495 126.627 169.495 126.627 169.836 126.51C170.586 126.255 171.334 125.997 172.082 125.739C172.47 125.607 172.47 125.607 172.865 125.471C178.384 123.58 183.875 121.609 189.361 119.623C189.683 119.507 190.005 119.391 190.336 119.271C190.937 119.054 191.538 118.836 192.139 118.618C193.897 117.983 195.665 117.412 197.461 116.895C197.416 116.65 197.371 116.405 197.324 116.153C196.111 109.541 194.97 102.918 193.862 96.2879C193.828 96.0845 193.794 95.881 193.759 95.6714C193.156 92.0676 192.554 88.4635 191.954 84.8593C191.563 82.5171 191.173 80.175 190.781 77.8332C190.614 76.8356 190.447 75.838 190.282 74.8402C190.096 73.7255 189.91 72.611 189.723 71.4966C189.664 71.1396 189.604 70.7825 189.542 70.4147C189.209 68.4533 188.856 66.4972 188.48 64.5439C188.419 64.2254 188.419 64.2254 188.356 63.9004C188.159 62.8753 187.96 61.8509 187.755 60.8272C186.774 55.7719 186.774 55.7719 187.665 54.3464C188.626 53.7551 189.301 53.614 190.43 53.614C191.465 54.2244 191.837 54.6164 192.227 55.7631C192.305 56.1608 192.377 56.5599 192.443 56.9598C192.484 57.1819 192.526 57.4039 192.569 57.6326C192.707 58.3833 192.837 59.1353 192.967 59.8877C193.065 60.4328 193.164 60.9779 193.263 61.5229C193.598 63.3771 193.918 65.2337 194.238 67.0906C194.356 67.7728 194.475 68.4551 194.593 69.1373C195.409 73.8542 196.206 78.5743 196.998 83.2954C197.523 86.4247 198.05 89.5536 198.577 92.6826C198.803 94.0217 199.028 95.361 199.253 96.7002C199.882 100.438 200.519 104.174 201.171 107.907C201.233 108.264 201.296 108.621 201.36 108.988C201.654 110.673 201.949 112.357 202.247 114.041C202.351 114.635 202.455 115.229 202.559 115.823C202.607 116.09 202.655 116.357 202.704 116.633C202.909 117.807 203.09 118.92 203.027 120.118C202.86 120.177 202.693 120.237 202.521 120.298C195.208 122.893 187.9 125.495 180.652 128.266C180.404 128.361 180.156 128.456 179.9 128.553C176.856 129.718 173.824 130.912 170.801 132.13C174.314 132.187 177.806 132.007 181.313 131.82C181.93 131.787 182.548 131.755 183.165 131.723C184.782 131.639 186.399 131.553 188.016 131.468C189.645 131.381 191.274 131.296 192.904 131.211C195.029 131.1 197.154 130.989 199.278 130.876C200.361 130.819 201.444 130.763 202.526 130.706C203.062 130.678 203.597 130.65 204.133 130.622C204.92 130.58 205.708 130.539 206.496 130.498C206.843 130.479 206.843 130.479 207.196 130.46C209.421 130.346 211.64 130.344 213.867 130.372C213.841 130.008 213.815 129.645 213.787 129.27C213.259 121.956 212.74 114.641 212.236 107.325C212.217 107.04 212.197 106.755 212.177 106.462C211.979 103.593 211.782 100.724 211.586 97.8558C211.512 96.7682 211.437 95.6806 211.362 94.593C211.328 94.0853 211.293 93.5775 211.258 93.0697C211.21 92.365 211.162 91.6604 211.113 90.9558C211.091 90.6296 211.091 90.6296 211.068 90.2969C210.962 88.7533 210.829 87.2131 210.676 85.6734C210.615 84.2982 210.811 83.0967 211.743 82.032C212.642 81.6325 213.185 81.5799 214.16 81.739C214.939 82.3236 215.511 82.8105 215.789 83.7699C215.888 84.4691 215.941 85.1597 215.981 85.8647C216.001 86.1327 216.022 86.4008 216.043 86.677C216.11 87.5732 216.167 88.4697 216.225 89.3665C216.27 90.0068 216.317 90.647 216.364 91.2872C216.464 92.6602 216.559 94.0334 216.651 95.4069C216.796 97.5642 216.951 99.7206 217.107 101.877C217.402 105.96 217.684 110.044 217.964 114.128C218.07 115.67 218.177 117.212 218.284 118.754C218.389 120.254 218.492 121.754 218.595 123.254C218.644 123.963 218.693 124.671 218.742 125.379C218.81 126.359 218.877 127.339 218.944 128.319C218.964 128.604 218.984 128.889 219.005 129.182C219.247 132.803 219.247 132.803 219.141 134.473C218.555 135.059 217.416 134.903 216.612 134.956C216.378 134.973 216.143 134.99 215.902 135.007C215.12 135.062 214.339 135.116 213.557 135.169C213.012 135.207 212.466 135.246 211.921 135.284C210.773 135.365 209.624 135.444 208.476 135.523C207.018 135.624 205.561 135.725 204.104 135.828C202.702 135.926 201.299 136.024 199.897 136.121C199.636 136.14 199.375 136.158 199.106 136.177C198.346 136.23 197.585 136.282 196.825 136.334C196.584 136.351 196.343 136.367 196.095 136.384C194.885 136.466 193.675 136.54 192.464 136.604C192.226 136.617 191.987 136.629 191.741 136.642C191.294 136.665 190.846 136.687 190.398 136.708C189.217 136.767 188.076 136.891 186.914 137.11C196.391 141.272 205.962 145.207 215.558 149.086C215.965 149.25 216.372 149.415 216.779 149.58C217.785 149.987 218.794 150.388 219.807 150.777C220.009 150.856 220.21 150.934 220.418 151.015C220.97 151.228 221.523 151.44 222.076 151.651C222.901 152.029 223.299 152.215 223.828 152.93C223.875 153.667 223.875 153.667 223.781 154.565C223.729 155.079 223.729 155.079 223.675 155.603C223.445 157.474 223.195 159.34 222.924 161.206C222.813 161.965 222.705 162.724 222.596 163.483C222.438 164.591 222.279 165.7 222.119 166.808C221.687 169.809 221.259 172.812 220.833 175.814C220.788 176.128 220.744 176.442 220.698 176.766C219.972 181.887 219.275 187.011 218.592 192.138C218.546 192.485 218.5 192.833 218.452 193.191C217.997 196.603 217.544 200.015 217.097 203.428C216.93 204.697 216.761 205.965 216.593 207.233C216.515 207.821 216.438 208.41 216.361 208.998C215.488 215.739 215.488 215.739 214.746 217.384C213.64 218.121 213.115 218.016 211.845 217.83C211.23 217.677 211.23 217.677 210.626 217.237C209.868 215.214 210.462 212.677 210.751 210.589C210.794 210.267 210.837 209.944 210.882 209.612C211.027 208.534 211.174 207.457 211.322 206.379C211.4 205.803 211.478 205.227 211.556 204.652C211.901 202.095 212.25 199.538 212.6 196.982C212.729 196.042 212.858 195.101 212.986 194.16C213.893 187.519 214.807 180.879 215.726 174.24C215.883 173.108 216.039 171.975 216.195 170.842C216.502 168.619 216.811 166.395 217.12 164.171C217.221 163.445 217.322 162.719 217.422 161.993C217.558 161.008 217.696 160.024 217.834 159.039C217.873 158.751 217.913 158.464 217.953 158.167C217.99 157.908 218.027 157.648 218.064 157.381C218.096 157.156 218.127 156.931 218.159 156.7C218.262 156.153 218.262 156.153 218.555 155.567C218.224 155.464 217.893 155.361 217.552 155.255C215.282 154.497 213.079 153.56 210.864 152.656C210.375 152.457 209.885 152.257 209.395 152.058C206.247 150.776 203.103 149.481 199.963 148.178C193.213 145.378 186.46 142.578 179.663 139.893C179.411 139.793 179.159 139.692 178.899 139.589C177.105 138.887 175.385 138.282 173.437 138.282C175.351 140.068 177.282 141.802 179.322 143.444C180.305 144.247 181.266 145.071 182.226 145.899C183.695 147.165 185.181 148.404 186.686 149.627C187.601 150.376 188.503 151.139 189.404 151.905C191.096 153.342 192.809 154.752 194.531 156.153C195.338 156.813 196.144 157.473 196.95 158.133C197.479 158.565 198.009 158.997 198.539 159.428C200.225 160.802 201.893 162.195 203.543 163.612C204.404 164.355 204.404 164.355 205.371 164.942C205.212 167.777 204.82 170.542 204.33 173.334C204.253 173.776 204.177 174.218 204.101 174.66C203.898 175.843 203.692 177.027 203.486 178.21C203.267 179.465 203.051 180.721 202.834 181.977C202.481 184.024 202.127 186.071 201.772 188.118C201.139 191.769 200.511 195.42 199.884 199.072C199.693 200.18 199.503 201.287 199.312 202.395C198.562 206.753 197.817 211.113 197.077 215.473C196.931 216.337 196.784 217.201 196.637 218.064C196.589 218.351 196.54 218.637 196.49 218.931C196.392 219.51 196.293 220.089 196.195 220.668C195.956 222.077 195.717 223.486 195.478 224.896C194.999 227.73 194.517 230.563 194.025 233.395C193.777 234.82 193.535 236.245 193.297 237.672C193.149 238.553 192.995 239.433 192.84 240.314C192.77 240.72 192.702 241.126 192.636 241.533C192.545 242.086 192.447 242.638 192.348 243.19C192.269 243.652 192.269 243.652 192.189 244.124C191.811 245.149 191.349 245.523 190.43 246.094C189.286 246.094 188.639 246.003 187.729 245.299C187.057 244.438 187.103 244.074 187.225 243C187.262 242.66 187.3 242.32 187.339 241.97C187.653 239.725 188.011 237.49 188.389 235.255C188.481 234.704 188.573 234.154 188.665 233.604C188.912 232.12 189.162 230.636 189.412 229.152C189.623 227.901 189.833 226.651 190.042 225.4C192.013 213.645 194.031 201.898 196.062 190.153C196.9 185.307 197.734 180.46 198.566 175.613C198.774 174.401 198.982 173.19 199.19 171.979C199.493 170.219 199.795 168.46 200.098 166.7C199.922 166.618 199.747 166.536 199.566 166.452C198.615 165.95 197.859 165.229 197.058 164.521C195.659 163.302 194.241 162.122 192.773 160.987C191.165 159.741 189.614 158.441 188.075 157.11C186.902 156.096 185.709 155.115 184.492 154.153C183.474 153.344 182.466 152.524 181.457 151.704C181.257 151.541 181.057 151.378 180.85 151.21C179.844 150.392 178.838 149.573 177.835 148.75C175.795 147.079 173.737 145.435 171.643 143.83C171.438 143.673 171.234 143.516 171.023 143.354C170.828 143.206 170.633 143.057 170.432 142.904C170.263 142.775 170.093 142.646 169.918 142.513C169.153 141.958 168.366 141.439 167.578 140.919C171.178 146.352 171.178 146.352 174.847 151.738C175.861 153.203 176.863 154.677 177.863 156.152C179.642 158.776 181.432 161.393 183.252 163.99C183.418 164.229 183.584 164.469 183.756 164.715C184.484 165.761 185.22 166.793 186.006 167.795C186.133 167.962 186.26 168.129 186.391 168.301C186.717 168.728 187.053 169.148 187.389 169.567C188.545 172.262 187.013 176.242 186.408 179.018C186.296 179.541 186.183 180.064 186.071 180.587C185.832 181.701 185.592 182.814 185.35 183.928C184.968 185.691 184.589 187.454 184.21 189.218C183.823 191.018 183.437 192.817 183.049 194.617C181.948 199.73 180.858 204.845 179.777 209.963C179.645 210.59 179.512 211.218 179.379 211.845C178.37 216.616 177.375 221.389 176.397 226.167C176.302 226.629 176.207 227.091 176.113 227.553C175.707 229.535 175.302 231.518 174.9 233.501C174.777 234.109 174.653 234.717 174.529 235.324C174.379 236.057 174.231 236.79 174.083 237.524C173.714 239.328 173.308 241.121 172.853 242.906C172.762 243.263 172.671 243.621 172.578 243.989C172.281 244.878 172.049 245.437 171.387 246.094C169.953 246.303 169.373 246.303 168.146 245.527C166.949 243.635 168.136 240.518 168.568 238.417C168.639 238.065 168.711 237.714 168.784 237.351C168.98 236.385 169.178 235.42 169.376 234.454C169.502 233.839 169.627 233.224 169.753 232.609C172.091 221.15 174.514 209.708 176.942 198.268C176.989 198.047 177.036 197.826 177.084 197.599C177.316 196.506 177.548 195.412 177.781 194.319C178.221 192.252 178.658 190.184 179.087 188.115C179.763 184.864 180.444 181.627 181.313 178.422C182.599 174.228 182.599 174.228 181.936 170.051C181.201 168.806 180.301 167.778 179.298 166.743C178.296 165.67 177.476 164.468 176.623 163.276C176.278 162.81 175.933 162.345 175.587 161.881C174.561 160.493 173.587 159.073 172.619 157.645C170.913 155.143 169.094 152.722 167.285 150.294C167.785 151.316 168.361 152.261 168.97 153.223C172.892 159.555 174.599 166.519 172.943 173.896C171.42 180.136 167.713 185.6 162.176 188.966C160.165 190.128 158.091 190.949 155.859 191.602C155.512 191.71 155.512 191.71 155.158 191.82C149.1 193.369 142.935 191.774 137.695 188.673C132.487 185.359 128.556 180.251 127.154 174.187C125.579 166.452 127.149 159.322 131.25 152.637C131.894 151.721 132.567 150.847 133.301 150.001C131.979 151.215 131.032 152.575 130.041 154.066C128.488 156.37 126.88 158.622 125.226 160.854C124.28 162.139 123.348 163.435 122.422 164.734C121.649 165.815 120.864 166.876 120.028 167.908C119.876 168.1 119.725 168.292 119.568 168.49C119.285 168.846 118.996 169.198 118.7 169.543C118.129 170.27 117.777 170.802 117.766 171.747C117.967 173.404 118.238 175.023 118.604 176.652C118.66 176.907 118.716 177.163 118.774 177.426C118.898 177.992 119.022 178.557 119.147 179.123C119.51 180.763 119.867 182.404 120.224 184.046C120.304 184.417 120.385 184.789 120.469 185.171C121.638 190.553 122.77 195.943 123.906 201.332C124.091 202.206 124.275 203.08 124.46 203.954C125.921 210.881 127.382 217.808 128.813 224.741C129.398 227.571 130.001 230.397 130.62 233.22C130.83 234.18 131.039 235.14 131.248 236.1C131.445 237.003 131.647 237.905 131.848 238.807C131.968 239.354 132.087 239.9 132.205 240.447C132.29 240.816 132.29 240.816 132.376 241.192C132.681 242.619 132.758 243.766 132.422 245.216C131.889 245.876 131.513 246.052 130.682 246.186C130.06 246.223 130.06 246.223 128.906 246.094C127.959 245.178 127.742 244.049 127.468 242.803C127.418 242.59 127.369 242.377 127.319 242.158C127.155 241.445 126.996 240.73 126.837 240.015C126.72 239.497 126.602 238.978 126.485 238.46C125.311 233.242 124.229 228.005 123.149 222.768C122.142 217.886 121.124 213.006 120.104 208.127C119.991 207.585 119.878 207.043 119.764 206.501C117.905 197.6 116.008 188.708 114.073 179.823C113.882 178.949 113.692 178.075 113.502 177.2C113.373 176.607 113.243 176.014 113.113 175.421C113.036 175.067 112.959 174.713 112.88 174.349C112.78 173.891 112.78 173.891 112.678 173.424C112.619 173.139 112.56 172.853 112.5 172.559C112.434 172.251 112.369 171.943 112.301 171.625C112.166 170.445 112.708 169.807 113.379 168.897C113.652 168.507 113.926 168.117 114.199 167.726C114.35 167.515 114.5 167.304 114.656 167.087C115.348 166.108 116.019 165.116 116.692 164.123C117.252 163.298 117.814 162.475 118.376 161.652C119.333 160.252 120.288 158.852 121.242 157.45C122.949 154.945 124.66 152.442 126.38 149.945C126.915 149.168 127.448 148.391 127.98 147.612C129.525 145.355 131.088 143.118 132.715 140.919C131.043 141.957 129.525 143.113 128.026 144.388C126.771 145.449 125.475 146.447 124.164 147.437C122.206 148.919 120.3 150.452 118.412 152.021C116.771 153.383 115.103 154.707 113.421 156.019C112.129 157.029 110.849 158.056 109.57 159.083C108.837 159.67 108.103 160.256 107.37 160.843C106.892 161.225 106.415 161.608 105.939 161.992C104.543 163.115 103.133 164.22 101.712 165.311C101.537 165.445 101.362 165.579 101.182 165.718C100.755 166.045 100.329 166.373 99.9022 166.7C99.9378 166.901 99.9734 167.102 100.01 167.308C101.11 173.515 102.205 179.722 103.296 185.929C103.413 186.595 103.53 187.26 103.647 187.926C105.773 200.012 107.833 212.11 109.863 224.213C110.119 225.734 110.375 227.255 110.632 228.776C110.936 230.579 111.239 232.382 111.539 234.186C111.651 234.857 111.764 235.527 111.878 236.198C112.035 237.124 112.189 238.05 112.342 238.976C112.388 239.245 112.434 239.513 112.482 239.79C113.134 243.777 113.134 243.777 112.5 245.362C111.748 245.926 111.109 246.055 110.195 246.215C109.419 246.065 108.996 245.73 108.455 245.164C107.685 243.987 107.593 242.531 107.379 241.167C107.319 240.817 107.259 240.468 107.198 240.108C107.007 238.979 106.824 237.849 106.641 236.719C106.518 235.991 106.395 235.262 106.271 234.534C105.976 232.788 105.686 231.041 105.399 229.293C104.986 226.784 104.57 224.276 104.153 221.768C104.112 221.524 104.071 221.28 104.029 221.028C103.024 214.99 101.988 208.957 100.949 202.925C100.8 202.059 100.651 201.193 100.502 200.327C99.4842 194.42 98.4623 188.514 97.431 182.609C97.2937 181.822 97.1565 181.036 97.0193 180.249C96.9752 179.996 96.931 179.742 96.8855 179.481C96.798 178.979 96.7105 178.477 96.6229 177.975C96.3715 176.533 96.1188 175.091 95.8651 173.649C95.7108 172.77 95.5575 171.891 95.4044 171.012C95.3339 170.609 95.2629 170.205 95.1915 169.802C95.0946 169.254 94.9993 168.706 94.904 168.158C94.8505 167.853 94.797 167.548 94.7419 167.234C94.6346 166.449 94.5711 165.732 94.6288 164.942C95.1255 164.336 95.1255 164.336 95.8373 163.734C96.1039 163.507 96.3706 163.28 96.6453 163.046C98.1387 161.826 99.656 160.637 101.18 159.456C103.423 157.712 105.616 155.905 107.812 154.102C109.254 152.92 110.697 151.739 112.146 150.566C114.001 149.065 115.849 147.559 117.663 146.009C119.142 144.745 120.659 143.538 122.194 142.345C123.497 141.329 124.755 140.273 125.976 139.161C122.828 138.348 120.638 139.264 117.815 140.552C116.614 141.1 115.404 141.631 114.196 142.165C113.812 142.335 113.812 142.335 113.42 142.509C110.469 143.815 107.484 145.041 104.498 146.265C103.367 146.73 102.235 147.195 101.104 147.66C100.819 147.778 100.533 147.895 100.24 148.016C98.0386 148.921 95.8421 149.837 93.6469 150.757C93.3248 150.892 93.0028 151.027 92.6709 151.166C90.7799 151.957 90.7799 151.957 88.8898 152.751C88.0265 153.115 87.1626 153.476 86.2987 153.838C86.0444 153.945 85.7902 154.053 85.5283 154.164C84.1816 154.726 82.8578 155.199 81.4452 155.567C81.5021 155.935 81.5589 156.304 81.6175 156.683C83.2317 167.172 84.7347 177.676 86.2073 188.186C86.3507 189.209 86.4942 190.232 86.6378 191.256C87.1324 194.781 87.6238 198.307 88.109 201.834C88.3486 203.574 88.5922 205.314 88.8395 207.053C88.9876 208.099 89.1326 209.146 89.2768 210.193C89.3436 210.673 89.4117 211.153 89.4812 211.633C89.5753 212.283 89.6646 212.933 89.7528 213.584C89.8037 213.946 89.8546 214.307 89.9071 214.68C89.9431 215.676 89.8252 216.22 89.3554 217.091C88.4588 217.859 88.0185 217.972 86.8285 217.951C85.6952 217.636 85.5308 217.496 84.9608 216.505C84.7441 215.575 84.7441 215.575 84.5905 214.451C84.5611 214.243 84.5317 214.035 84.5015 213.821C84.4033 213.121 84.3102 212.42 84.217 211.72C84.1467 211.212 84.0762 210.705 84.0053 210.197C83.8518 209.094 83.7005 207.99 83.5508 206.885C83.3111 205.117 83.0669 203.349 82.8217 201.582C82.7796 201.279 82.7376 200.975 82.6942 200.663C82.6073 200.035 82.5203 199.408 82.4333 198.781C82.2981 197.805 82.1633 196.829 82.0285 195.852C81.3291 190.789 80.6089 185.729 79.8808 180.67C79.7654 179.868 79.6501 179.066 79.5348 178.264C79.0518 174.904 78.5684 171.545 78.0832 168.185C77.8136 166.319 77.5453 164.453 77.2778 162.586C77.1784 161.894 77.0785 161.202 76.9782 160.51C76.8405 159.56 76.7043 158.61 76.5685 157.66C76.5279 157.383 76.4873 157.106 76.4455 156.82C76.0574 154.082 76.0574 154.082 76.1718 152.93C77.2378 152.031 78.3984 151.515 79.6885 151.007C80.038 150.867 80.3874 150.728 80.7473 150.584C80.9346 150.511 81.1218 150.437 81.3147 150.361C82.3574 149.95 83.397 149.531 84.4367 149.113C84.6624 149.022 84.888 148.931 85.1205 148.838C88.079 147.644 91.0142 146.394 93.9513 145.148C95.0789 144.671 96.2065 144.193 97.3342 143.716C97.6057 143.601 97.8772 143.486 98.1569 143.367C100.856 142.226 103.563 141.103 106.273 139.989C108.554 139.051 110.822 138.086 113.086 137.11C109.172 136.685 105.263 136.378 101.333 136.155C99.7747 136.065 98.2163 135.972 96.6578 135.878C96.3431 135.859 96.0283 135.84 95.704 135.82C92.7287 135.639 89.7548 135.44 86.7816 135.226C86.2528 135.188 85.7239 135.151 85.1949 135.114C84.4668 135.063 83.7388 135.01 83.0108 134.956C82.7951 134.941 82.5795 134.926 82.3573 134.911C80.8929 134.8 80.8929 134.8 80.5663 134.473C80.5802 133.688 80.6143 132.913 80.6626 132.13C80.6768 131.882 80.691 131.635 80.7057 131.38C80.8984 128.11 81.1349 124.844 81.3697 121.577C81.4197 120.876 81.4698 120.175 81.5198 119.474C81.6243 118.009 81.7293 116.544 81.8345 115.08C81.9667 113.238 82.0982 111.396 82.2294 109.554C82.5268 105.38 82.8284 101.206 83.1344 97.0323C83.2006 96.1271 83.2664 95.2219 83.3321 94.3167C83.4285 92.9919 83.527 91.6673 83.6275 90.3428C83.6628 89.8741 83.6974 89.4053 83.7313 88.9364C84.1411 83.2866 84.1411 83.2866 85.1439 82.0137C86.167 81.6098 87.1514 81.6442 88.1835 82.032C89.3416 83.2577 89.1605 84.3483 89.1248 85.9592C88.9984 88.969 88.7691 91.9734 88.5497 94.9775C88.4965 95.7204 88.4433 96.4632 88.3901 97.2061C87.939 103.477 87.4543 109.746 86.9528 116.013C86.7142 118.994 86.479 121.976 86.2437 124.958C86.2237 125.212 86.2036 125.466 86.1829 125.728C86.0685 127.179 85.9541 128.629 85.8397 130.079C90.8492 130.348 95.8588 130.615 100.868 130.881C103.195 131.005 105.521 131.129 107.848 131.253C109.877 131.362 111.906 131.471 113.936 131.578C115.009 131.635 116.082 131.692 117.155 131.75C118.357 131.815 119.56 131.878 120.762 131.941C121.112 131.961 121.461 131.98 121.822 131.999C124.185 132.122 126.54 132.15 128.906 132.13C120.285 128.494 111.493 125.268 102.717 122.029C102.524 121.958 102.331 121.886 102.132 121.813C101.291 121.503 100.45 121.194 99.6076 120.887C99.3317 120.786 99.0558 120.685 98.7716 120.581C98.5405 120.497 98.3095 120.414 98.0715 120.327C97.5585 120.118 97.5585 120.118 97.2655 119.825C97.3168 117.31 97.7668 114.814 98.1861 112.34C98.2495 111.958 98.313 111.577 98.3783 111.184C98.5516 110.143 98.7266 109.102 98.9019 108.061C99.0891 106.948 99.2746 105.835 99.4604 104.721C99.7752 102.836 100.091 100.951 100.408 99.0657C100.725 97.1739 101.042 95.2819 101.359 93.3897C101.416 93.0464 101.416 93.0464 101.475 92.6961C101.629 91.7732 101.783 90.8503 101.937 89.9274C102.36 87.3952 102.784 84.8633 103.212 82.3318C103.366 81.4165 103.521 80.5013 103.675 79.586C103.732 79.248 103.732 79.248 103.79 78.9033C104.294 75.9125 104.786 72.9199 105.267 69.9251C105.518 68.3578 105.774 66.791 106.03 65.2244C106.235 63.9684 106.435 62.7118 106.632 61.4544C106.781 60.5061 106.938 59.5591 107.094 58.6119C107.146 58.273 107.197 57.9341 107.25 57.585C107.68 55.0447 107.68 55.0447 108.535 54.1359C109.277 53.614 109.277 53.614 110.156 53.4492ZM133.887 148.536C133.887 149.415 133.887 149.415 133.887 149.415V148.536ZM165.82 148.536C165.917 148.826 166.014 149.116 166.113 149.415C166.113 149.125 166.113 148.835 166.113 148.536C166.017 148.536 165.92 148.536 165.82 148.536Z" fill="black"/>
</svg>
