<svg width="300" height="300" viewBox="0 0 300 300" fill="none" xmlns="http://www.w3.org/2000/svg">
<path d="M104.205 95.141C104.491 95.1383 104.776 95.1356 105.07 95.1328C106.642 95.1395 108.074 95.2705 109.598 95.6638C110.225 95.8298 110.225 95.8298 111.163 95.91C112.329 96.1145 113.302 96.5021 114.388 96.9594C115.095 97.2479 115.801 97.4914 116.528 97.7228C117.585 98.0643 118.552 98.4953 119.531 99.0228C119.531 99.2162 119.531 99.4095 119.531 99.6087C119.867 99.6541 119.867 99.6541 120.209 99.7003C121.067 99.92 121.294 100.146 121.875 100.781C122.165 100.877 122.455 100.974 122.754 101.074C122.851 101.267 122.947 101.46 123.047 101.66C123.337 101.756 123.627 101.853 123.926 101.952C124.378 102.422 124.378 102.422 124.86 103.015C125.773 104.099 126.752 105.002 127.851 105.895C128.32 106.347 128.32 106.347 128.613 107.226C128.746 107.359 128.879 107.492 129.016 107.629C129.605 108.217 129.978 108.839 130.371 109.57C130.371 109.763 130.371 109.956 130.371 110.156C130.564 110.252 130.758 110.349 130.957 110.449C131.836 112.037 131.836 112.037 131.836 112.792C139.957 112.792 148.078 112.792 156.445 112.792C156.445 111.922 156.445 111.052 156.445 110.156C156.672 106.298 157.504 103.531 160.254 100.781C160.39 100.633 160.525 100.485 160.665 100.332C162.262 98.8639 165.019 98.0869 167.158 98.1748C167.789 98.2429 168.417 98.3374 169.043 98.4369C169.043 98.6302 169.043 98.8236 169.043 99.0228C169.478 98.8778 169.478 98.8778 169.922 98.7298C169.922 98.9232 169.922 99.1166 169.922 99.3158C170.2 99.352 170.478 99.3883 170.764 99.4256C172.112 99.6951 172.772 100.701 173.73 101.66C174.448 101.352 174.914 101.062 175.47 100.506C177.107 98.8686 179.175 98.3327 181.424 98.1313C183.008 98.1562 184.618 98.6074 186.035 99.3158C186.035 99.5091 186.035 99.7025 186.035 99.9017C186.325 99.9017 186.615 99.9017 186.914 99.9017C187.415 100.476 187.904 101.063 188.379 101.66C188.572 101.756 188.766 101.853 188.965 101.952C188.965 102.243 188.965 102.533 188.965 102.831C189.158 102.928 189.352 103.025 189.551 103.124C190.012 104.313 190.302 105.525 190.576 106.768C190.809 107.802 191.041 108.829 191.345 109.844C191.602 110.742 191.602 110.742 191.895 112.499C194.505 112.499 197.115 112.499 199.805 112.499C199.888 111.121 199.888 111.121 199.512 110.229C198.913 108.281 199.223 106.283 199.512 104.296C199.705 104.296 199.898 104.296 200.098 104.296C200.197 103.752 200.197 103.752 200.299 103.198C200.602 101.966 201.072 101.48 202.148 100.781C202.342 100.587 202.535 100.394 202.734 100.195C205.43 98.6819 208.008 97.5449 211.126 98.3419C211.756 98.5511 212.374 98.7734 212.988 99.0228C212.988 99.2162 212.988 99.4095 212.988 99.6087C213.159 99.6888 213.33 99.7689 213.507 99.8514C214.545 100.397 215.43 101.075 216.211 101.952C216.449 102.923 216.449 102.923 216.504 103.71C216.697 103.807 216.891 103.904 217.09 104.003C217.453 104.932 217.676 105.639 217.676 106.64C217.869 106.737 218.063 106.833 218.262 106.933C218.359 107.617 218.457 108.3 218.555 108.984C218.748 109.08 218.941 109.177 219.141 109.277C219.238 109.96 219.336 110.644 219.434 111.327C219.627 111.424 219.82 111.521 220.02 111.62C220.116 111.91 220.213 112.201 220.313 112.499C220.566 112.498 220.566 112.498 220.825 112.497C222.589 112.491 224.352 112.486 226.115 112.483C226.773 112.482 227.431 112.48 228.089 112.477C229.035 112.474 229.981 112.472 230.927 112.471C231.221 112.469 231.514 112.468 231.817 112.466C232.23 112.466 232.23 112.466 232.652 112.466C233.014 112.465 233.014 112.465 233.383 112.464C234.128 112.502 234.82 112.629 235.547 112.792C235.547 112.986 235.547 113.179 235.547 113.378C235.934 113.378 236.32 113.378 236.719 113.378C237.197 113.765 237.197 113.765 237.634 114.294C237.78 114.464 237.926 114.634 238.076 114.809C239.291 116.69 239.16 118.686 239.154 120.849C239.159 121.176 239.164 121.502 239.168 121.839C239.17 124.889 239.17 124.889 238.184 126.269C237.573 126.869 237.573 126.869 236.902 127.368C236.682 127.535 236.462 127.703 236.236 127.876C234.887 128.745 233.81 128.978 232.209 128.963C231.857 128.961 231.504 128.959 231.142 128.957C230.594 128.95 230.594 128.95 230.035 128.942C229.665 128.94 229.294 128.937 228.912 128.934C227.999 128.927 227.085 128.918 226.172 128.906C226.265 129.085 226.358 129.264 226.455 129.449C226.785 130.135 226.919 130.739 227.051 131.487C227.217 132.377 227.404 133.215 227.655 134.087C227.93 135.058 227.93 135.058 228.076 136.102C228.191 137.108 228.191 137.108 228.534 138.024C228.806 138.86 228.832 139.462 228.809 140.331C228.905 140.621 229.002 140.911 229.102 141.21C229.208 141.85 229.304 142.491 229.395 143.133C229.443 143.472 229.491 143.81 229.541 144.159C230.334 150.394 230.506 156.65 229.688 162.89C229.645 163.24 229.603 163.591 229.559 163.952C229.395 164.941 229.395 164.941 229.102 165.948C228.883 166.726 228.747 167.373 228.662 168.163C228.539 169.283 228.263 170.308 227.93 171.386C227.845 171.694 227.761 172.002 227.673 172.32C227.298 173.593 226.875 174.847 226.451 176.106C226.135 177.065 225.852 178.028 225.586 179.003C225.393 179.003 225.199 179.003 225 179.003C225 179.487 225 179.97 225 180.468C224.807 180.468 224.613 180.468 224.414 180.468C224.372 180.794 224.329 181.121 224.286 181.457C224.121 182.519 224.121 182.519 223.828 183.105C223.635 183.105 223.441 183.105 223.242 183.105C223.212 183.31 223.182 183.516 223.151 183.727C222.921 184.686 222.525 185.456 222.07 186.327C221.974 186.618 221.877 186.908 221.777 187.206C221.584 187.206 221.391 187.206 221.191 187.206C220.998 187.883 220.805 188.56 220.605 189.257C220.412 189.257 220.219 189.257 220.02 189.257C219.923 189.741 219.826 190.224 219.727 190.722C219.533 190.722 219.34 190.722 219.141 190.722C219.141 191.012 219.141 191.302 219.141 191.601C218.947 191.601 218.754 191.601 218.555 191.601C218.555 191.891 218.555 192.181 218.555 192.48C218.361 192.673 218.168 192.867 217.969 193.066C216.914 194.097 216.914 194.097 216.504 195.41C216.016 195.898 215.527 196.386 215.039 196.874C214.822 197.237 214.822 197.237 214.6 197.607C214.072 198.486 213.437 199.098 212.695 199.804C212.206 200.292 211.718 200.78 211.23 201.269C208.008 204.492 208.008 204.492 207.362 205.134C206.965 205.534 206.577 205.944 206.195 206.359C205.295 207.199 204.352 207.836 203.317 208.496C202.702 208.88 202.702 208.88 202.148 209.472C201.317 210.16 200.527 210.57 199.512 210.937C199.512 211.13 199.512 211.324 199.512 211.523C199.086 211.65 199.086 211.65 198.651 211.779C197.723 212.004 197.723 212.004 197.461 212.695C196.143 213.574 196.143 213.574 195.41 213.574C195.314 213.767 195.217 213.96 195.117 214.16C194.531 214.355 193.945 214.55 193.359 214.745C193.263 214.939 193.166 215.132 193.066 215.331C192.448 215.656 191.817 215.958 191.18 216.247C190.664 216.484 190.664 216.484 190.138 216.725C189.258 217.089 189.258 217.089 188.672 217.089C188.575 217.283 188.479 217.476 188.379 217.675C186.554 218.554 186.554 218.554 185.449 218.554C185.353 218.747 185.256 218.941 185.156 219.14C184.77 219.14 184.383 219.14 183.984 219.14C183.888 219.333 183.791 219.527 183.691 219.726C183.305 219.726 182.918 219.726 182.52 219.726C182.423 219.919 182.326 220.113 182.227 220.312C181.578 220.551 181.578 220.551 180.78 220.77C179.719 221.059 179.719 221.059 178.711 221.484C178.518 221.387 178.324 221.29 178.125 221.191C178.028 221.384 177.932 221.577 177.832 221.777C177.288 221.942 177.288 221.942 176.605 222.07C175.822 222.227 175.109 222.393 174.353 222.656C173.246 223.01 172.14 223.191 170.995 223.387C170.163 223.53 170.163 223.53 169.171 223.846C168.114 224.134 167.127 224.239 166.039 224.33C165.163 224.421 164.307 224.568 163.44 224.725C162.049 224.967 160.783 225.023 159.375 224.999C159.055 225.047 158.735 225.094 158.406 225.142C156.51 225.391 154.6 225.335 152.692 225.329C152.31 225.33 151.928 225.331 151.535 225.332C149.345 225.33 147.197 225.235 145.02 224.999C144.714 224.976 144.408 224.952 144.093 224.927C142.621 224.813 141.232 224.604 139.798 224.258C139.15 224.118 138.519 224.039 137.86 223.974C135.699 223.759 133.622 223.276 131.543 222.656C131.131 222.551 131.131 222.551 130.711 222.444C130.418 222.369 130.124 222.294 129.822 222.216C129.406 222.112 129.406 222.112 128.982 222.006C128.32 221.777 128.32 221.777 128.027 221.191C127.737 221.287 127.447 221.384 127.148 221.484C127.148 221.29 127.148 221.097 127.148 220.898C126.858 220.994 126.568 221.091 126.27 221.191C126.27 220.997 126.27 220.804 126.27 220.605C125.98 220.702 125.689 220.798 125.391 220.898C125.391 220.704 125.391 220.511 125.391 220.312C125.101 220.409 124.811 220.505 124.512 220.605C124.512 220.411 124.512 220.218 124.512 220.019C124.176 220.028 124.176 220.028 123.834 220.037C123.047 220.019 123.047 220.019 122.168 219.726C122.168 219.533 122.168 219.339 122.168 219.14C121.957 219.158 121.745 219.176 121.527 219.195C120.538 219.129 120.064 218.79 119.238 218.261C118.596 218.057 118.596 218.057 118.066 217.968C118.066 217.775 118.066 217.581 118.066 217.382C117.822 217.307 117.822 217.307 117.572 217.231C116.176 216.788 114.886 216.272 113.592 215.585C113.037 215.292 113.037 215.292 112.207 215.038C112.207 214.845 112.207 214.652 112.207 214.452C111.53 214.259 110.854 214.066 110.156 213.867C110.156 213.673 110.156 213.48 110.156 213.281C109.933 213.25 109.709 213.22 109.479 213.189C108.606 212.966 108.417 212.738 107.813 212.109C107.327 211.907 106.839 211.712 106.348 211.523C106.154 211.329 105.961 211.136 105.762 210.937C104.969 210.266 104.409 209.802 103.418 209.472C103.321 209.279 103.225 209.085 103.125 208.886C102.835 208.789 102.545 208.693 102.246 208.593C102.149 208.4 102.053 208.206 101.953 208.007C101.663 207.91 101.373 207.814 101.074 207.714C100.774 207.428 100.483 207.134 100.195 206.835C99.7608 206.476 99.3262 206.117 98.8907 205.76C98.2147 205.179 97.6025 204.535 96.9727 203.906C96.6826 203.688 96.6826 203.688 96.3867 203.466C95.6255 202.895 94.9808 202.26 94.336 201.562C94.336 201.369 94.336 201.175 94.336 200.976C94.0097 200.876 94.0097 200.876 93.6768 200.775C92.6913 200.304 92.3435 199.804 91.6992 198.925C91.4036 198.562 91.1043 198.202 90.802 197.845C90.5885 197.589 90.5885 197.589 90.3706 197.329C89.9072 196.804 89.9072 196.804 89.0625 196.288C88.7641 195.803 88.4713 195.315 88.1836 194.824C87.897 194.524 87.6036 194.232 87.3047 193.945C86.2617 192.674 85.2791 191.369 84.3567 190.008C84.2083 189.791 84.0599 189.574 83.907 189.35C83.4961 188.671 83.4961 188.671 83.186 187.874C82.9761 187.159 82.9761 187.159 82.3242 186.913C82.1289 186.523 81.9336 186.132 81.7383 185.742C81.5389 185.506 81.3395 185.27 81.1341 185.027C80.5403 184.242 80.4318 183.762 80.2735 182.812C80.0801 182.715 79.8867 182.619 79.6875 182.519C79.3718 181.945 79.0845 181.355 78.8086 180.761C78.704 180.536 78.5994 180.311 78.4916 180.079C77.6367 178.206 77.6367 178.206 77.6367 177.538C77.4434 177.442 77.25 177.345 77.0508 177.245C76.7578 176.367 76.7578 176.367 76.7578 175.488C76.5645 175.391 76.3711 175.294 76.1719 175.195C75.8789 174.316 75.8789 174.316 75.8789 173.437C75.6856 173.34 75.4922 173.244 75.293 173.144C75.293 172.757 75.293 172.37 75.293 171.972C75.0996 171.875 74.9063 171.779 74.7071 171.679C74.6094 170.995 74.5117 170.312 74.4141 169.628C74.2207 169.532 74.0274 169.435 73.8282 169.335C73.0679 167.659 72.704 165.782 72.2729 164.001C72.1121 163.352 71.9301 162.708 71.7408 162.066C71.4683 161.074 71.3369 160.099 71.1914 159.081C71.1008 158.767 71.0102 158.453 70.9168 158.129C70.2829 155.892 69.9681 153.636 69.7987 151.32C69.7393 150.586 69.7393 150.586 69.5824 149.876C68.9279 146.553 68.7241 142.476 69.4336 139.16C69.4336 138.592 69.4331 138.023 69.4256 137.455C69.4457 135.854 69.6902 134.278 70.0196 132.714C70.0619 132.382 70.1042 132.05 70.1477 131.707C70.304 130.717 70.5549 129.845 70.8985 128.906C70.6436 128.921 70.6436 128.921 70.3835 128.937C68.3976 129.005 67.2256 128.681 65.7166 127.313C65.493 127.065 65.2694 126.817 65.0391 126.562C64.8759 126.387 64.7128 126.211 64.5447 126.031C63.4854 124.265 63.482 122.224 63.501 120.226C63.4987 119.986 63.4965 119.746 63.4941 119.499C63.5035 116.573 64.5033 115.379 66.5039 113.378C66.8907 113.378 67.2774 113.378 67.6758 113.378C67.7725 113.185 67.8692 112.992 67.9688 112.792C70.7709 112.34 73.6347 112.473 76.4649 112.499C76.5555 112.221 76.6461 111.943 76.7395 111.657C77.0508 110.742 77.0508 110.742 77.3438 110.156C77.5371 110.156 77.7305 110.156 77.9297 110.156C78.0566 109.829 78.0566 109.829 78.1861 109.496C78.9677 107.586 78.9677 107.586 79.6875 107.226C79.7842 106.936 79.8809 106.646 79.9805 106.347C80.5664 105.859 81.1524 105.37 81.7383 104.882C81.835 104.592 81.9317 104.302 82.0313 104.003C82.4219 103.808 82.8125 103.613 83.2032 103.417C83.6977 102.935 84.1856 102.447 84.668 101.952C85.5163 101.228 86.3041 100.678 87.3047 100.195C87.4981 100.001 87.6914 99.808 87.8907 99.6087C88.1807 99.5121 88.4707 99.4154 88.7696 99.3158C88.9724 99.0988 88.9724 99.0988 89.1793 98.8775C89.7726 98.3203 90.2081 98.259 91.0034 98.1256C91.693 98.0199 91.693 98.0199 92.2852 97.8509C92.3819 97.6576 92.4785 97.4642 92.5782 97.265C93.1115 97.0361 93.1115 97.0361 93.7867 96.8255C94.0272 96.7504 94.2678 96.6752 94.5156 96.5978C94.7464 96.5279 94.9771 96.4581 95.2149 96.3861C95.6953 96.232 95.6953 96.232 96.1853 96.0748C98.8744 95.3911 101.434 95.1555 104.205 95.141ZM95.5788 101.678C94.9219 101.952 94.9219 101.952 94.0064 102.245C91.5524 103.099 89.1465 104.505 87.3047 106.347C86.7951 106.777 86.282 107.202 85.7678 107.626C85.2195 108.137 84.81 108.668 84.375 109.277C84.23 109.467 84.085 109.657 83.9356 109.852C82.4222 111.597 82.4222 111.597 81.7383 113.671C82.1734 113.526 82.1734 113.526 82.6172 113.378C82.6172 113.185 82.6172 112.992 82.6172 112.792C82.9073 112.792 83.1973 112.792 83.4961 112.792C83.4961 112.599 83.4961 112.406 83.4961 112.206C83.7952 112.161 83.7952 112.161 84.1004 112.115C84.9376 111.919 85.6744 111.624 86.459 111.277C90.1728 109.647 94.5175 109.174 98.4375 110.449C99.2067 110.799 99.948 111.174 100.686 111.585C101.403 111.931 102.049 112.083 102.832 112.206C102.929 112.496 103.025 112.786 103.125 113.085C103.318 113.085 103.512 113.085 103.711 113.085C104.187 113.671 104.187 113.671 104.59 114.257C105.158 114.176 105.158 114.176 105.762 113.964C105.955 113.674 106.148 113.384 106.348 113.085C106.97 112.737 106.97 112.737 107.52 112.499C107.52 112.306 107.52 112.113 107.52 111.913C107.828 111.868 107.828 111.868 108.142 111.822C109.103 111.592 109.864 111.19 110.742 110.742C114.063 109.522 118.017 109.252 121.289 110.742C121.507 110.83 121.726 110.918 121.951 111.009C123.491 111.652 124.881 112.455 126.27 113.378C126.366 113.088 126.463 112.798 126.563 112.499C126.369 112.499 126.176 112.499 125.977 112.499C125.88 112.016 125.783 111.533 125.684 111.035C125.394 110.938 125.104 110.841 124.805 110.742C124.75 110.479 124.75 110.479 124.695 110.211C124.43 109.282 123.794 108.981 123.047 108.398C122.662 107.739 122.662 107.739 122.461 107.226C122.268 107.226 122.074 107.226 121.875 107.226C121.688 106.984 121.5 106.743 121.307 106.494C121.108 106.252 120.909 106.01 120.703 105.761C120.413 105.761 120.123 105.761 119.824 105.761C119.728 105.471 119.631 105.181 119.531 104.882C116.783 102.913 113.54 101.442 110.202 100.886C109.59 100.784 109 100.638 108.398 100.488C104.003 99.8172 99.6984 99.9325 95.5788 101.678ZM163.074 104.571C162.248 105.619 161.94 106.48 161.826 107.807C161.802 108.081 161.777 108.355 161.752 108.637C161.729 108.921 161.706 109.204 161.682 109.496C161.657 109.785 161.632 110.073 161.605 110.37C161.543 111.079 161.484 111.789 161.426 112.499C164.006 112.68 166.584 112.825 169.171 112.847C169.384 112.851 169.597 112.855 169.817 112.859C170.34 112.86 170.864 112.829 171.387 112.792C172.075 112.231 172.075 112.231 172.051 111.25C172.048 110.672 172.048 110.672 172.046 110.082C172.047 109.7 172.049 109.318 172.051 108.924C171.925 107.136 171.47 105.878 170.215 104.589C167.872 102.852 165.373 102.695 163.074 104.571ZM126.563 113.085C126.855 113.671 126.855 113.671 126.855 113.671L126.563 113.085ZM82.9102 118.652C82.5099 119.132 82.1177 119.619 81.7383 120.117C81.4724 120.322 81.2066 120.527 80.9326 120.739C80.7151 120.92 80.4976 121.102 80.2735 121.288C80.2735 121.578 80.2735 121.869 80.2735 122.167C79.9834 122.264 79.6934 122.361 79.3946 122.46C78.584 123.331 78.5157 123.557 78.5157 124.804C78.2256 124.949 78.2256 124.949 77.9297 125.097C77.0485 126.632 76.5228 128.115 76.0907 129.827C75.9511 130.378 75.801 130.927 75.6398 131.473C75.1437 133.152 74.8729 134.739 74.7689 136.488C74.7071 137.109 74.7071 137.109 74.4141 137.402C74.4141 137.98 74.4149 138.558 74.4232 139.137C74.4125 139.854 74.2949 140.515 74.1211 141.21C74.4112 141.21 74.7012 141.21 75 141.21C75.0967 140.92 75.1934 140.63 75.293 140.331C75.7828 139.838 75.7828 139.838 76.3916 139.324C76.6039 139.145 76.8161 138.966 77.0348 138.781C77.3328 138.533 77.3328 138.533 77.6367 138.281C77.8905 138.063 78.1443 137.846 78.4058 137.621C80.8742 135.803 83.7152 135.381 86.7188 135.644C88.89 136.019 90.793 136.88 92.7704 137.824C94.986 138.857 97.1614 139.794 99.6094 140.038C99.9025 140.135 100.196 140.232 100.497 140.331C101.909 140.744 103.312 140.724 104.773 140.716C105.059 140.715 105.345 140.713 105.639 140.712C108.7 140.664 111.333 140.062 114.156 138.86C115.044 138.49 115.948 138.195 116.864 137.903C117.311 137.752 117.752 137.58 118.188 137.397C120.949 136.346 124.249 136.218 127.148 136.688C127.991 136.81 128.405 136.754 129.199 136.523C130.552 130.969 130.721 125.988 127.734 120.995C127.541 120.995 127.348 120.995 127.148 120.995C127.13 120.832 127.112 120.669 127.094 120.501C126.755 119.539 126.131 119.046 125.391 118.359C125.155 118.096 125.155 118.096 124.915 117.828C124.49 117.384 124.49 117.384 123.633 117.48C123.536 117.19 123.439 116.9 123.34 116.601C121.206 115.307 119.09 114.572 116.602 114.55C116.29 114.534 116.29 114.534 115.972 114.517C113.57 114.43 111.247 115.246 109.277 116.601C108.525 117.403 107.858 118.231 107.2 119.113C106.641 119.824 106.641 119.824 105.762 120.41C104.618 120.322 104.008 119.938 103.125 119.238C102.932 119.238 102.738 119.238 102.539 119.238C102.515 119.068 102.491 118.899 102.466 118.725C102.18 117.867 101.767 117.464 101.074 116.894C100.784 116.894 100.494 116.894 100.195 116.894C100.195 116.701 100.195 116.507 100.195 116.308C98.2317 115.313 96.546 114.601 94.336 114.55C93.9037 114.533 93.9037 114.533 93.4628 114.516C89.4957 114.427 85.8707 115.994 82.9102 118.652ZM68.5547 117.48C68.2987 119.671 68.1917 121.739 68.5547 123.925C68.8629 124.299 68.8629 124.299 69.5607 124.257C69.8511 124.256 70.1415 124.256 70.4407 124.255C70.7304 124.255 71.02 124.256 71.3185 124.257C72.0671 124.269 72.0671 124.269 72.6563 123.925C72.9246 123.212 73.1644 122.509 73.3887 121.783C74.0542 119.663 74.0542 119.663 74.4599 118.859C74.772 118.32 74.772 118.32 74.7071 117.48C72.6768 117.48 70.6465 117.48 68.5547 117.48ZM133.301 117.48C133.346 117.948 133.392 118.415 133.437 118.883C133.463 119.143 133.488 119.404 133.514 119.672C133.606 120.525 133.743 121.362 133.905 122.204C133.957 122.477 134.009 122.749 134.062 123.03C134.101 123.229 134.14 123.428 134.18 123.632C135.871 124.361 137.485 124.301 139.292 124.294C139.795 124.295 139.795 124.295 140.309 124.297C141.416 124.3 142.523 124.298 143.63 124.296C144.4 124.296 145.17 124.297 145.94 124.298C147.552 124.299 149.164 124.297 150.776 124.295C152.639 124.291 154.502 124.292 156.364 124.296C158.159 124.299 159.953 124.298 161.747 124.297C162.51 124.296 163.273 124.297 164.035 124.298C165.1 124.299 166.165 124.297 167.229 124.294C167.704 124.296 167.704 124.296 168.188 124.298C168.478 124.296 168.768 124.294 169.066 124.293C169.318 124.292 169.569 124.292 169.829 124.292C170.564 124.212 171.044 124.002 171.68 123.632C171.737 122.662 171.791 121.691 171.845 120.721C171.861 120.444 171.877 120.167 171.894 119.881C171.908 119.618 171.923 119.355 171.937 119.083C171.951 118.839 171.965 118.595 171.979 118.344C172.039 117.771 172.039 117.771 171.68 117.48C171.183 117.452 170.685 117.444 170.187 117.445C169.864 117.444 169.541 117.444 169.208 117.443C168.671 117.445 168.671 117.445 168.123 117.447C167.749 117.447 167.375 117.446 166.989 117.446C165.959 117.446 164.93 117.448 163.9 117.45C162.825 117.452 161.75 117.452 160.676 117.452C158.639 117.453 156.602 117.456 154.565 117.459C152.247 117.462 149.929 117.464 147.611 117.465C142.841 117.468 138.071 117.473 133.301 117.48ZM222.363 117.48C222.566 119.006 222.869 120.383 223.352 121.838C223.413 122.036 223.474 122.234 223.537 122.437C223.738 123.074 223.738 123.074 224.121 123.925C225.167 124.274 225.959 124.228 227.062 124.193C227.262 124.187 227.462 124.18 227.667 124.174C228.088 124.161 228.509 124.146 228.931 124.131C229.577 124.108 230.224 124.089 230.871 124.069C231.28 124.056 231.689 124.042 232.098 124.028C232.658 124.009 232.658 124.009 233.229 123.99C234.05 124.021 234.05 124.021 234.375 123.632C234.4 123.196 234.406 122.759 234.404 122.322C234.403 122.058 234.402 121.795 234.401 121.524C234.398 121.247 234.396 120.97 234.393 120.684C234.392 120.406 234.391 120.128 234.389 119.841C234.386 119.152 234.381 118.462 234.375 117.773C233.399 117.285 232.305 117.445 231.232 117.451C230.98 117.452 230.727 117.452 230.466 117.452C229.658 117.454 228.849 117.458 228.04 117.462C227.492 117.463 226.944 117.464 226.396 117.466C225.052 117.469 223.708 117.474 222.363 117.48ZM192.773 117.773C192.734 120.637 192.734 120.637 193.652 123.925C194.302 123.951 194.953 123.956 195.604 123.954C195.798 123.953 195.993 123.953 196.193 123.953C196.817 123.951 197.441 123.947 198.065 123.943C198.487 123.942 198.909 123.941 199.332 123.939C200.368 123.936 201.405 123.931 202.441 123.925C202.407 123.339 202.37 122.753 202.332 122.167C202.301 121.678 202.301 121.678 202.27 121.179C202.146 119.889 202.146 119.889 201.563 117.773C198.662 117.773 195.762 117.773 192.773 117.773ZM135.059 128.906C135.003 129.621 134.963 130.332 134.93 131.048C134.691 135.491 133.798 140.007 131.451 143.865C130.86 144.73 130.86 144.73 130.957 145.898C130.667 146.043 130.667 146.043 130.371 146.191C129.977 146.71 129.977 146.71 129.602 147.326C129.471 147.531 129.341 147.735 129.206 147.946C128.84 148.555 128.84 148.555 128.906 149.413C128.713 149.413 128.52 149.413 128.32 149.413C127.653 150.238 127.653 150.238 127.734 151.171C127.444 151.268 127.154 151.365 126.855 151.464C126.188 152.289 126.188 152.289 126.27 153.222C126.082 153.301 125.895 153.379 125.702 153.46C125.001 153.775 125.001 153.775 124.805 154.687C124.336 155.149 124.336 155.149 123.743 155.639C122.9 156.355 122.08 157.081 121.289 157.855C121.12 158.02 120.951 158.185 120.776 158.355C120.347 158.768 120.347 158.768 120.41 159.374C120.253 159.392 120.096 159.411 119.934 159.429C118.895 159.785 118.283 160.384 117.48 161.132C117.48 161.326 117.48 161.519 117.48 161.718C117.19 161.718 116.9 161.718 116.602 161.718C116.698 162.008 116.795 162.298 116.895 162.597C117.7 162.605 118.506 162.611 119.312 162.615C119.539 162.618 119.767 162.62 120.002 162.623C120.223 162.624 120.443 162.625 120.671 162.626C120.874 162.627 121.076 162.629 121.285 162.63C121.907 162.595 122.445 162.46 123.047 162.304C123.456 162.26 123.867 162.221 124.277 162.188C125.678 162.04 126.938 161.683 128.265 161.224C128.492 161.147 128.719 161.07 128.952 160.991C130.883 160.319 132.682 159.485 134.473 158.495C134.473 158.302 134.473 158.109 134.473 157.91C134.683 157.885 134.894 157.86 135.111 157.834C136.112 157.571 136.648 157.142 137.439 156.481C137.687 156.277 137.936 156.072 138.192 155.861C138.734 155.388 139.247 154.911 139.746 154.394C141.504 152.636 141.504 152.636 142.255 151.922C142.967 151.247 142.967 151.247 143.262 150.585C143.555 149.999 143.555 149.999 144.305 149.267C145.017 148.537 145.112 148.301 145.313 147.363C145.603 147.266 145.893 147.169 146.191 147.07C146.702 146.336 146.702 146.336 147.18 145.44C147.747 144.43 148.309 143.435 148.956 142.474C149.957 140.897 150.687 139.17 151.468 137.477C151.955 136.425 152.472 135.392 153.003 134.362C153.943 132.505 154.617 130.583 155.273 128.613C152.681 128.606 150.089 128.601 147.496 128.597C146.293 128.596 145.089 128.594 143.885 128.591C142.725 128.587 141.564 128.586 140.403 128.585C139.96 128.584 139.516 128.583 139.072 128.582C138.453 128.58 137.833 128.579 137.214 128.579C136.86 128.579 136.507 128.578 136.143 128.577C135.376 128.522 135.376 128.522 135.059 128.906ZM160.547 128.613C159.569 130.569 158.657 132.497 157.819 134.509C156.683 137.192 155.447 139.799 154.102 142.382C153.91 142.756 153.719 143.13 153.527 143.504C151.551 147.324 149.317 150.847 146.484 154.101C146.136 154.508 146.136 154.508 145.781 154.924C140.053 161.448 132.91 165 124.512 166.699C125.589 167.656 126.792 168.021 128.137 168.456C128.371 168.533 128.606 168.609 128.847 168.688C136.934 171.266 143.477 169.591 150.901 165.832C158.689 161.736 164.62 156.052 167.338 147.575C168.54 143.581 169.358 139.477 170.16 135.388C170.221 135.08 170.281 134.772 170.344 134.455C170.4 134.159 170.456 133.863 170.514 133.559C170.562 133.303 170.611 133.048 170.661 132.784C170.865 131.401 170.967 130.005 171.094 128.613C167.613 128.613 164.133 128.613 160.547 128.613ZM194.531 128.906C194.29 130.593 194.275 131.417 194.531 133.007C194.558 133.769 194.572 134.522 194.57 135.283C194.571 135.6 194.571 135.6 194.571 135.924C194.571 136.368 194.571 136.812 194.569 137.257C194.568 137.928 194.569 138.599 194.571 139.27C194.572 141.495 194.517 143.687 194.238 145.898C194.189 146.453 194.139 147.009 194.092 147.564C193.828 150.479 193.828 150.479 193.514 151.716C193.336 152.44 193.21 153.165 193.085 153.9C192.738 155.824 192.186 157.644 191.558 159.492C191.161 160.703 190.806 161.927 190.448 163.15C190.127 164.092 189.717 164.938 189.258 165.82C189.06 166.307 188.865 166.795 188.672 167.285C188.115 168.569 187.548 169.845 186.914 171.093C187.204 171.19 187.494 171.286 187.793 171.386C188.571 170.884 188.571 170.884 189.368 170.178C189.642 169.947 189.916 169.717 190.199 169.479C190.989 168.773 191.733 168.035 192.48 167.285C192.793 167.023 193.11 166.765 193.433 166.515C194.299 165.887 194.299 165.887 194.531 164.941C194.903 164.651 194.903 164.651 195.282 164.355C195.635 164.065 195.635 164.065 195.996 163.769C195.996 163.479 195.996 163.189 195.996 162.89C196.169 162.823 196.342 162.756 196.52 162.686C198.891 161.287 200.476 157.019 201.343 154.504C201.576 153.456 201.798 152.407 202 151.352C202.099 150.84 202.204 150.328 202.316 149.819C202.627 148.378 202.761 147.086 202.734 145.605C202.838 144.364 203.005 143.13 203.177 141.897C203.327 140.691 203.368 139.493 203.37 138.278C203.371 138.065 203.372 137.851 203.373 137.631C203.374 137.183 203.375 136.736 203.375 136.288C203.375 135.607 203.381 134.926 203.386 134.244C203.387 133.807 203.388 133.369 203.388 132.932C203.39 132.73 203.392 132.529 203.394 132.321C203.388 130.99 203.176 130.231 202.734 128.906C200.027 128.906 197.32 128.906 194.531 128.906ZM205.664 104.003C205.567 104.293 205.471 104.583 205.371 104.882C204.936 105.027 204.936 105.027 204.492 105.175C203.737 106.422 203.892 107.615 204.199 108.984C204.394 109.57 204.59 110.156 204.785 110.742C205.514 113.612 206.171 116.503 206.461 119.452C206.548 120.155 206.686 120.834 206.836 121.526C207.132 122.931 207.256 124.322 207.35 125.753C207.419 126.529 207.562 127.263 207.715 128.027C207.715 128.71 207.715 129.394 207.715 130.077C207.762 130.336 207.81 130.594 207.859 130.86C208.041 132.054 208.05 133.209 208.047 134.414C208.047 134.781 208.047 134.781 208.048 135.156C208.048 135.672 208.047 136.188 208.046 136.705C208.044 137.488 208.046 138.271 208.048 139.054C208.048 139.558 208.047 140.062 208.047 140.566C208.047 140.797 208.048 141.028 208.049 141.265C208.042 142.828 207.908 144.348 207.715 145.898C207.671 146.38 207.628 146.862 207.587 147.344C207.463 148.591 207.253 149.8 206.99 151.025C206.888 151.511 206.794 152 206.709 152.49C205.94 156.843 203.706 160.867 201.21 164.466C200.676 165.224 200.676 165.224 200.232 166.019C199.658 166.931 198.872 167.479 198.047 168.163C197.95 168.363 197.854 168.562 197.754 168.768C197.461 169.335 197.461 169.335 196.661 169.867C195.725 170.492 194.961 171.161 194.147 171.935C192.645 173.324 191.094 174.57 189.258 175.488C189.258 175.681 189.258 175.874 189.258 176.074C189.064 176.092 188.871 176.11 188.672 176.129C187.724 176.385 187.062 176.827 186.246 177.359C185.155 178.006 184.028 178.562 182.886 179.113C182.558 179.276 182.558 179.276 182.224 179.442C182.015 179.541 181.806 179.64 181.59 179.743C181.403 179.833 181.215 179.923 181.022 180.017C179.9 180.338 178.865 179.727 177.832 179.296C177.739 177.737 177.957 176.845 178.711 175.488C178.759 175.264 178.808 175.041 178.857 174.81C178.906 174.647 178.954 174.484 179.004 174.316C179.294 174.219 179.584 174.122 179.883 174.023C180.491 173.167 180.762 172.741 180.762 171.679C180.955 171.582 181.148 171.486 181.348 171.386C182.317 170.068 183.023 168.674 183.71 167.193C183.813 166.972 183.917 166.75 184.023 166.522C184.614 165.24 185.146 163.968 185.552 162.613C185.861 161.633 186.266 160.692 186.66 159.744C187.068 158.679 187.271 157.6 187.482 156.481C187.645 155.646 187.824 154.889 188.104 154.083C188.407 153.133 188.498 152.256 188.59 151.267C188.668 150.62 188.801 150.025 188.965 149.395C189.357 147.741 189.399 146.058 189.487 144.368C189.534 143.553 189.602 142.767 189.716 141.961C190.067 139.054 189.932 136.018 189.615 133.114C189.553 132.449 189.541 131.806 189.551 131.14C189.586 130.136 189.586 130.136 189.412 129.402C189.231 128.477 189.181 127.576 189.13 126.635C189.035 125.178 188.855 123.824 188.498 122.411C188.349 121.737 188.359 121.097 188.379 120.41C188.282 120.119 188.186 119.829 188.086 119.531C188.035 119.068 187.993 118.604 187.958 118.139C187.843 116.881 187.56 115.764 187.207 114.55C187.121 113.893 187.059 113.235 186.996 112.575C186.893 111.741 186.684 110.957 186.465 110.148C186.324 109.551 186.246 108.971 186.182 108.361C186.048 107.322 185.816 106.446 185.449 105.468C185.256 105.468 185.063 105.468 184.863 105.468C184.845 105.205 184.845 105.205 184.827 104.937C184.609 104.224 184.609 104.224 183.838 103.784C182.344 103.25 181.026 103.067 179.527 103.685C178.263 104.415 177.178 105.231 176.66 106.64C176.524 108.004 176.564 109.354 176.605 110.723C176.692 114.844 176.692 114.844 176.367 116.894C176.339 117.84 176.353 118.785 176.367 119.732C176.375 120.221 176.381 120.711 176.386 121.2C176.389 121.414 176.392 121.628 176.396 121.849C176.366 122.48 176.238 123.024 176.074 123.632C176.062 124.035 176.062 124.438 176.074 124.841C176.099 126.997 175.813 129.12 175.488 131.249C175.446 131.53 175.404 131.81 175.36 132.099C175.21 133.085 175.057 134.072 174.902 135.058C174.857 135.356 174.812 135.655 174.765 135.962C174.48 137.773 174.092 139.53 173.629 141.303C173.412 142.135 173.412 142.135 173.291 143.188C173.138 144.18 172.853 145.004 172.476 145.929C172.259 146.501 172.116 147.061 171.973 147.656C170.626 152.379 168.637 156.709 165.527 160.546C165.328 160.812 165.129 161.078 164.923 161.352C164.302 162.073 163.647 162.607 162.891 163.183C162.285 163.655 161.709 164.138 161.133 164.648C161.133 164.841 161.133 165.035 161.133 165.234C160.896 165.269 160.896 165.269 160.654 165.305C159.705 165.609 159.042 166.145 158.24 166.735C156.276 168.143 154.233 169.183 152.051 170.214C151.629 170.427 151.208 170.64 150.787 170.855C150.428 171.033 150.068 171.21 149.707 171.386C149.511 171.482 149.316 171.577 149.114 171.676C147.51 172.426 145.871 172.956 144.174 173.457C143.563 173.64 142.954 173.833 142.35 174.037C138.789 175.212 135.168 175.205 131.543 174.316C131.324 174.273 131.106 174.231 130.88 174.188C129.415 173.901 128.096 173.442 126.725 172.851C125.95 172.531 125.95 172.531 125.003 172.297C123.81 171.937 122.775 171.445 121.674 170.873C121.257 170.66 120.841 170.448 120.424 170.235C120.221 170.131 120.019 170.027 119.81 169.919C119.045 169.53 118.271 169.159 117.499 168.786C115.362 167.72 113.313 166.492 111.272 165.255C110.818 164.985 110.351 164.737 109.883 164.493C109.277 164.062 109.277 164.062 109.019 163.451C108.827 161.64 108.827 161.64 109.589 160.601C110.657 159.806 111.726 159.062 112.885 158.404C114.384 157.463 115.906 156.462 116.895 154.98C117.1 154.865 117.305 154.75 117.517 154.632C118.797 153.825 120.462 152.625 120.882 151.115C120.919 150.94 120.957 150.765 120.996 150.585C121.387 150.39 121.777 150.195 122.168 149.999C122.274 149.611 122.372 149.22 122.461 148.827C122.751 148.731 123.041 148.634 123.34 148.535C123.34 148.244 123.34 147.954 123.34 147.656C123.63 147.559 123.92 147.462 124.219 147.363C124.827 146.507 125.098 146.081 125.098 145.019C125.291 145.019 125.484 145.019 125.684 145.019C125.881 144.648 126.076 144.275 126.27 143.902C126.433 143.591 126.433 143.591 126.599 143.274C126.913 142.649 126.913 142.649 126.855 141.796C127.049 141.7 127.242 141.603 127.441 141.503C127.218 141.461 126.994 141.419 126.764 141.375C125.977 141.21 125.977 141.21 125.098 140.917C122.281 140.809 119.895 141.431 117.334 142.529C116.35 142.951 115.368 143.297 114.351 143.626C113.905 143.771 113.462 143.921 113.021 144.077C110.211 145.063 107.564 145.408 104.59 145.385C104.292 145.387 103.995 145.39 103.688 145.392C99.0929 145.38 95.032 143.822 90.9119 141.906C88.2277 140.674 85.1533 139.701 82.251 140.716C81.3955 141.039 80.8899 141.416 80.2735 142.089C79.9834 142.379 79.9834 142.379 79.6875 142.675C78.5221 143.942 77.5458 145.27 76.6194 146.719C76.1792 147.352 75.7007 147.873 75.1648 148.425C74.445 149.232 74.4107 149.316 74.4507 150.475C74.5353 150.802 74.6199 151.128 74.7071 151.464C74.701 151.706 74.695 151.948 74.6888 152.197C74.7134 153.182 75.0204 154.034 75.293 154.98C75.349 155.376 75.3978 155.772 75.4395 156.17C75.5737 157.227 75.8306 158.079 76.1719 159.081C76.2142 159.408 76.2565 159.734 76.3001 160.07C76.4596 161.098 76.7412 161.904 77.1229 162.861C77.3512 163.496 77.5001 164.115 77.6367 164.776C78.076 166.885 78.8235 168.83 79.6875 170.8C79.8524 171.233 80.0172 171.667 80.1819 172.1C80.9701 174.086 81.9586 175.973 82.9278 177.875C83.2938 178.596 83.6511 179.322 84.0088 180.047C85.2228 182.463 86.6555 184.685 88.1836 186.913C88.2994 187.083 88.4152 187.252 88.5345 187.426C90.2875 189.974 92.1431 192.338 94.336 194.531C94.7076 194.975 94.7076 194.975 95.0867 195.428C96.2234 196.758 97.4174 198.06 98.7305 199.218C98.9239 199.218 99.1172 199.218 99.3164 199.218C99.7502 199.669 99.7502 199.669 100.25 200.28C102.985 203.481 106.66 205.724 110.156 208.007C110.429 208.186 110.701 208.364 110.981 208.548C112.808 209.731 114.674 210.805 116.602 211.816C116.82 211.931 117.038 212.046 117.263 212.165C118.39 212.745 119.493 213.187 120.703 213.574C121.69 213.979 122.65 214.398 123.596 214.892C125.532 215.821 127.603 216.351 129.673 216.899C130.204 217.044 130.728 217.208 131.25 217.382C131.443 217.285 131.637 217.189 131.836 217.089C131.836 217.283 131.836 217.476 131.836 217.675C133.038 217.973 133.038 217.973 134.18 217.675C134.18 217.869 134.18 218.062 134.18 218.261C134.542 218.303 134.905 218.346 135.278 218.389C136.106 218.492 136.889 218.632 137.695 218.847C138.901 219.15 138.901 219.15 140.039 218.847C140.039 219.04 140.039 219.234 140.039 219.433C140.323 219.427 140.607 219.421 140.9 219.415C141.797 219.433 141.797 219.433 142.09 219.726C142.428 219.726 142.767 219.726 143.115 219.726C143.454 219.726 143.792 219.726 144.141 219.726C144.237 219.823 144.334 219.919 144.434 220.019C145.097 220.04 145.755 220.018 146.418 220.001C147.07 220.019 147.07 220.019 147.949 220.312C148.754 220.34 149.55 220.353 150.355 220.351C150.591 220.351 150.827 220.351 151.07 220.352C151.569 220.352 152.067 220.351 152.566 220.35C153.328 220.348 154.089 220.35 154.85 220.352C155.335 220.352 155.82 220.351 156.306 220.351C156.646 220.352 156.646 220.352 156.993 220.353C158.119 220.348 159.158 220.277 160.254 220.019C160.876 219.962 161.499 219.914 162.122 219.872C164.594 219.711 164.594 219.711 166.992 219.14C167.361 219.098 167.729 219.055 168.109 219.012C169.166 218.89 170.085 218.604 171.094 218.261C171.777 218.162 172.461 218.064 173.145 217.968C173.836 217.794 174.513 217.591 175.195 217.382C175.195 217.189 175.195 216.995 175.195 216.796C175.36 216.856 175.524 216.915 175.693 216.976C176.559 217.121 176.981 216.913 177.777 216.558C178.656 216.181 179.471 215.868 180.396 215.606C181.378 215.323 182.197 214.916 183.105 214.452C183.367 214.369 183.629 214.286 183.899 214.201C185.021 213.812 186.042 213.309 187.097 212.768C187.514 212.556 187.931 212.344 188.348 212.132C188.552 212.028 188.756 211.924 188.967 211.816C189.482 211.557 190.003 211.308 190.525 211.06C192.632 210.058 194.431 208.827 196.289 207.421C196.591 207.222 196.893 207.022 197.205 206.817C198.178 206.161 199.092 205.448 200.012 204.72C200.621 204.247 201.244 203.802 201.874 203.356C203.03 202.503 203.916 201.482 204.826 200.376C205.38 199.794 205.83 199.563 206.543 199.218C207.001 198.768 207.001 198.768 207.404 198.248C207.951 197.58 208.486 196.987 209.106 196.38C209.771 195.765 209.771 195.765 210.059 195.117C210.483 194.268 211.14 193.726 211.816 193.066C212.749 192.058 213.363 191.121 213.867 189.843C214.05 189.661 214.232 189.48 214.42 189.293C215.45 188.259 216.084 187.007 216.797 185.742C216.938 185.492 216.938 185.492 217.081 185.238C218.331 183.011 219.422 180.801 220.282 178.389C220.605 177.538 220.605 177.538 221.058 176.649C221.461 175.829 221.706 175.09 221.924 174.206C222.18 173.213 222.458 172.265 222.839 171.313C223.232 170.241 223.389 169.291 223.535 168.163C223.644 167.861 223.753 167.559 223.865 167.248C224.143 166.333 224.095 165.847 223.828 164.941C224.022 164.941 224.215 164.941 224.414 164.941C224.405 164.551 224.405 164.551 224.396 164.153C224.418 162.957 224.623 161.971 225 160.839C225.013 160.296 225.012 159.753 225 159.21C224.968 157.681 224.968 157.681 225.293 157.031C225.317 156.606 225.324 156.181 225.322 155.756C225.321 155.506 225.32 155.257 225.319 155C225.316 154.74 225.314 154.479 225.311 154.211C225.309 153.817 225.309 153.817 225.307 153.414C225.304 152.764 225.299 152.114 225.293 151.464C225.1 151.464 224.906 151.464 224.707 151.464C224.755 151.271 224.804 151.077 224.854 150.878C225.036 149.785 225.019 148.763 225 147.656C224.807 147.656 224.613 147.656 224.414 147.656C224.439 147.472 224.463 147.289 224.488 147.099C224.533 146.74 224.533 146.74 224.579 146.374C224.609 146.136 224.64 145.898 224.672 145.653C224.76 145.005 224.76 145.005 224.414 144.433C224.414 144.046 224.414 143.66 224.414 143.261C224.221 143.261 224.027 143.261 223.828 143.261C223.883 142.989 223.937 142.717 223.993 142.437C224.192 141.499 224.192 141.499 223.828 140.624C223.828 140.334 223.828 140.044 223.828 139.745C223.635 139.745 223.441 139.745 223.242 139.745C223.333 139.437 223.333 139.437 223.425 139.123C223.56 138.088 223.301 137.499 222.949 136.523C222.901 136.178 222.853 135.834 222.803 135.479C222.702 134.509 222.702 134.509 222.382 133.795C222.086 133.047 221.94 132.386 221.796 131.597C221.58 130.452 221.268 129.433 220.834 128.355C220.568 127.632 220.377 126.905 220.184 126.159C219.833 124.824 219.372 123.581 218.84 122.308C218.547 121.561 218.317 120.814 218.097 120.043C217.773 118.916 217.331 117.94 216.797 116.894C216.712 116.586 216.628 116.278 216.541 115.96C216.253 114.985 215.908 114.149 215.479 113.232C214.914 112.022 214.521 110.856 214.16 109.57C213.707 108.382 213.212 107.216 212.695 106.054C212.555 105.732 212.555 105.732 212.412 105.403C211.917 104.4 211.513 103.997 210.535 103.436C208.606 102.87 207.403 103.082 205.664 104.003Z" fill="black"/>
<path d="M103.996 130.545C104.451 130.539 104.906 130.529 105.36 130.515C106.018 130.495 106.674 130.487 107.332 130.482C107.534 130.474 107.736 130.465 107.944 130.457C108.76 130.46 109.387 130.513 110.027 131.043C111.024 132.201 111.252 132.95 111.153 134.423C110.848 136.054 109.864 136.868 108.562 137.768C106.925 138.828 105.397 139.487 103.417 139.16C101.123 138.387 99.2413 136.961 98.1436 134.765C97.9832 133.098 98.2627 132.257 99.3154 130.957C100.633 130.298 102.534 130.56 103.996 130.545Z" fill="black"/>
<path d="M116.964 125.624C117.28 125.621 117.28 125.621 117.602 125.619C118.047 125.616 118.493 125.614 118.938 125.613C119.617 125.61 120.296 125.601 120.975 125.592C121.408 125.59 121.841 125.588 122.275 125.587C122.477 125.584 122.679 125.58 122.887 125.576C124.162 125.582 124.962 125.781 125.977 126.562C126.424 127.458 126.338 128.212 126.27 129.199C125.895 129.911 125.67 130.272 124.905 130.543C123.362 130.814 121.769 130.73 120.206 130.734C119.553 130.737 118.901 130.746 118.248 130.755C117.831 130.757 117.414 130.759 116.997 130.76C116.619 130.763 116.241 130.765 115.852 130.768C114.779 130.657 114.23 130.434 113.379 129.785C112.926 128.879 113 128.146 113.086 127.148C114.233 125.696 115.21 125.634 116.964 125.624Z" fill="black"/>
<path d="M87.1456 125.613C87.3624 125.611 87.5792 125.609 87.8026 125.606C88.2618 125.602 88.7211 125.599 89.1804 125.597C89.8808 125.592 90.5807 125.579 91.2809 125.566C91.7274 125.563 92.174 125.56 92.6205 125.559C92.9332 125.551 92.9332 125.551 93.2522 125.543C94.3081 125.548 94.883 125.658 95.781 126.232C96.4892 126.961 96.655 127.31 96.6797 128.32C96.4705 129.138 96.3268 129.619 95.6292 130.115C94.6258 130.478 93.649 130.46 92.5953 130.459C92.3714 130.46 92.1476 130.461 91.9169 130.463C91.4449 130.464 90.9729 130.465 90.5008 130.463C89.7781 130.462 89.0556 130.469 88.3329 130.477C87.8738 130.477 87.4147 130.477 86.9556 130.477C86.7396 130.48 86.5235 130.483 86.3009 130.485C84.8171 130.472 84.8171 130.472 84.1016 129.986C83.5744 129.152 83.5297 128.415 83.4961 127.441C84.3423 125.588 85.2651 125.633 87.1456 125.613Z" fill="black"/>
</svg>
