<svg width="300" height="300" viewBox="0 0 300 300" fill="none" xmlns="http://www.w3.org/2000/svg">
<path d="M201.621 80.483C203.754 82.3638 203.754 82.3638 204.304 83.2822C204.777 83.8866 204.777 83.8866 205.711 83.9139C206.088 83.903 206.465 83.892 206.854 83.8807C207.168 83.8739 207.168 83.8739 207.489 83.867C208.731 83.8346 209.97 83.7618 211.21 83.6815C216.887 83.318 222.635 83.2263 228.296 83.8624C228.599 83.8944 228.902 83.9264 229.214 83.9594C229.493 83.9954 229.771 84.0314 230.058 84.0684C230.42 84.1144 230.42 84.1144 230.789 84.1614C231.735 84.4695 232.059 84.7049 232.617 85.547C232.79 86.6159 232.774 87.674 232.762 88.7548C232.763 89.0729 232.763 89.3911 232.764 89.7189C232.763 90.3945 232.76 91.07 232.754 91.7455C232.745 92.7627 232.748 93.7795 232.751 94.7967C232.743 103.649 230.886 111.676 224.582 118.198C218.647 124.045 210.179 126.597 202.048 127.201C200.239 127.355 198.759 127.702 197.351 128.925C196.397 130.062 196.528 131.142 196.53 132.564C196.531 132.832 196.531 133.1 196.532 133.376C196.563 137.231 196.807 141.079 197.034 144.926C197.1 146.031 197.162 147.137 197.223 148.243C197.689 156.584 198.276 164.896 199.62 173.149C199.77 174.071 199.914 174.994 200.057 175.916C200.538 178.96 201.082 181.983 201.733 184.995C201.82 185.399 201.82 185.399 201.909 185.812C203.892 194.723 207.899 202.711 212.581 210.488C214.714 214.064 216.183 217.373 215.51 221.622C214.96 223.627 213.675 225.362 211.916 226.481C209.74 227.605 207.515 227.512 205.13 227.502C204.658 227.504 204.187 227.507 203.715 227.51C202.423 227.518 201.132 227.518 199.84 227.518C198.445 227.518 197.051 227.525 195.656 227.531C192.924 227.542 190.192 227.547 187.461 227.55C184.275 227.553 181.09 227.562 177.904 227.572C172.215 227.588 166.527 227.598 160.838 227.606C155.328 227.613 149.818 227.625 144.308 227.642C138.302 227.661 132.296 227.677 126.29 227.688C125.648 227.69 125.006 227.691 124.364 227.692C124.048 227.693 123.733 227.693 123.407 227.694C121.192 227.698 118.976 227.704 116.76 227.711C114.054 227.72 111.348 227.725 108.641 227.726C107.263 227.727 105.884 227.729 104.506 227.735C96.2354 227.769 88.4013 227.645 80.8592 223.828C80.5918 223.696 80.3244 223.564 80.0489 223.428C74.5031 220.562 70.2198 215.817 68.1951 209.885C67.6671 208.107 67.1701 206.351 67.0896 204.492C67.0745 204.192 67.0594 203.893 67.0439 203.584C66.968 200.734 67.0579 197.518 68.646 195.044C69.503 194.167 69.981 193.829 71.1912 193.652C73.2902 194.039 75.0206 196.31 76.4646 197.754C80.4963 201.77 86.9639 205.664 92.8709 205.664C93.4836 203.372 93.5011 201.186 93.4503 198.825C93.1787 184.731 99.1081 172.793 108.593 162.641C110.272 160.919 112.074 159.394 113.965 157.91C114.408 157.557 114.408 157.557 114.861 157.197C117.21 155.345 119.665 153.686 122.168 152.051C130.465 146.614 137.929 140.664 141.211 130.957C141.289 130.734 141.366 130.512 141.446 130.282C142.212 127.588 142.422 123.53 141.053 121.029C140.298 119.938 139.479 118.896 138.668 117.847C136.071 114.209 134.966 110.523 135.351 106.055C136.188 101.916 138.229 98.4523 141.428 95.7253C142.652 94.6632 143.804 93.5433 144.947 92.3963C145.154 92.1902 145.36 91.984 145.573 91.7717C146.006 91.3389 146.438 90.9059 146.87 90.4725C147.526 89.8151 148.184 89.1593 148.841 88.5036C149.264 88.0801 149.688 87.6564 150.111 87.2327C150.304 87.0398 150.498 86.8468 150.697 86.648C151.831 85.5089 152.91 84.3379 153.957 83.1188C159.463 76.8034 168.251 73.2448 176.438 72.4344C185.859 71.8272 194.421 74.3015 201.621 80.483ZM156.922 89.0008C156.245 89.7747 155.584 90.562 154.925 91.3514C154.371 92.0065 153.795 92.5634 153.138 93.1138C151.401 94.6187 149.783 96.2452 148.157 97.8668C147.601 98.4191 147.043 98.9682 146.485 99.5174C146.126 99.874 145.768 100.231 145.41 100.588C145.245 100.749 145.081 100.91 144.911 101.076C142.734 103.265 141.672 105.264 141.668 108.394C141.73 110.497 142.433 111.941 143.554 113.672C143.691 113.884 143.828 114.096 143.969 114.314C144.806 115.599 145.659 116.872 146.52 118.14C147.892 120.164 149.218 122.217 150.542 124.273C153.02 128.267 153.02 128.267 156.866 130.756C158.791 131.127 160.454 131.104 162.304 130.371C163.644 129.275 164.479 128.038 164.805 126.323C164.828 126.03 164.851 125.738 164.875 125.437C164.904 125.086 164.933 124.735 164.964 124.374C164.993 123.98 165.022 123.587 165.051 123.193C165.085 122.774 165.119 122.355 165.153 121.936C165.233 120.953 165.311 119.969 165.387 118.986C165.568 116.647 165.758 114.308 165.947 111.97C165.997 111.355 166.047 110.739 166.097 110.123C166.113 109.919 166.13 109.714 166.147 109.504C166.246 108.273 166.345 107.042 166.442 105.811C166.489 105.219 166.537 104.627 166.584 104.034C166.642 103.302 166.7 102.57 166.758 101.837C166.833 100.899 166.911 99.9612 166.992 99.0236C167.013 98.7645 167.034 98.5054 167.056 98.2385C167.162 97.1 167.293 96.2039 167.871 95.215C168.88 94.4677 169.876 94.503 171.094 94.629C172.716 95.5305 172.716 95.5305 173.144 96.3868C173.14 97.2006 173.113 98.0021 173.07 98.8141C173.056 99.08 173.043 99.3458 173.029 99.6197C172.802 103.765 172.449 107.903 172.11 112.041C172.01 113.267 171.912 114.494 171.814 115.721C171.737 116.681 171.659 117.642 171.581 118.602C171.544 119.054 171.508 119.506 171.472 119.958C170.571 131.26 170.571 131.26 166.906 134.476C163.963 136.653 160.831 137.386 157.181 137.002C153.704 136.375 150.742 134.936 148.385 132.277C148.241 132.131 148.097 131.986 147.949 131.836C147.756 131.836 147.562 131.836 147.363 131.836C147.219 132.326 147.219 132.326 147.071 132.825C143.576 144.22 134.821 151.522 125.003 157.658C122.993 158.916 121.095 160.243 119.238 161.719C118.995 161.906 118.752 162.094 118.501 162.287C116.502 163.846 114.625 165.534 112.793 167.285C112.629 167.442 112.464 167.599 112.295 167.76C104.518 175.345 99.7097 186.238 99.5358 197.099C99.5362 199.01 99.6169 200.919 99.6881 202.828C99.702 203.206 99.7159 203.583 99.7302 203.972C99.7588 204.718 99.7897 205.464 99.8235 206.21C100.005 210.628 100.005 210.628 99.3162 212.695C96.9466 212.759 94.7102 212.611 92.3765 212.201C91.9188 212.122 91.9188 212.122 91.4517 212.041C85.6925 211 80.5137 209.115 75.7723 205.63C75.1347 205.175 74.5392 204.813 73.8279 204.492C73.7033 208.168 75.5286 211.454 77.8745 214.179C79.3047 215.635 80.8244 216.71 82.617 217.676C82.8923 217.829 83.1676 217.982 83.4513 218.139C88.2109 220.565 93.3732 221.119 98.6365 221.088C99.2128 221.09 99.789 221.093 100.365 221.096C101.909 221.102 103.452 221.1 104.995 221.095C106.617 221.092 108.239 221.095 109.861 221.097C112.578 221.1 115.295 221.097 118.012 221.09C121.152 221.082 124.293 221.084 127.433 221.092C130.138 221.099 132.843 221.1 135.548 221.096C137.16 221.094 138.772 221.093 140.384 221.098C141.895 221.102 143.406 221.1 144.917 221.091C145.472 221.089 146.026 221.09 146.581 221.093C147.337 221.097 148.092 221.092 148.848 221.085C149.178 221.089 149.178 221.089 149.516 221.094C150.623 221.074 151.076 220.993 151.879 220.204C152.99 218.363 153.093 216.821 152.637 214.746C151.873 213.129 150.78 212.147 149.121 211.524C146.769 211.064 144.394 210.95 142.003 210.87C141.689 210.859 141.376 210.849 141.053 210.838C140.436 210.819 139.82 210.805 139.203 210.796C137.617 210.755 136.418 210.682 135.058 209.766C134.575 208.799 134.618 207.88 134.765 206.836C135.096 205.858 135.478 204.91 135.866 203.953C137.762 199.131 137.535 193.108 135.491 188.369C133.699 184.77 131.543 182.24 127.734 180.762C126.136 180.302 124.795 180.111 123.119 180.15C122.695 180.156 122.272 180.161 121.848 180.167C121.192 180.18 120.535 180.194 119.879 180.21C119.238 180.224 118.597 180.233 117.955 180.241C117.576 180.249 117.196 180.258 116.806 180.266C115.533 180.16 114.795 179.894 113.672 179.297C112.986 178.269 112.965 177.87 113.086 176.66C113.643 175.511 114.085 174.984 115.283 174.536C120.816 172.738 127.044 173.743 132.154 176.22C137.384 179.023 140.468 183.95 142.181 189.496C143.417 194.201 142.855 199.708 142.383 204.492C143.509 204.799 144.609 204.86 145.77 204.913C147.477 205.003 149.104 205.209 150.783 205.541C152.594 205.869 153.688 205.687 155.273 204.785C155.892 204.291 156.448 203.812 157.013 203.266C157.161 203.135 157.309 203.005 157.462 202.871C157.957 202.419 157.957 202.419 158.496 201.563C158.493 200.67 158.415 200.066 158.203 199.219C158.118 198.848 158.118 198.848 158.032 198.469C157.9 197.906 157.765 197.344 157.626 196.782C155.981 190.089 155.016 183.334 154.413 176.477C154.392 176.248 154.37 176.02 154.349 175.784C154.29 175.132 154.236 174.481 154.185 173.829C154.154 173.456 154.124 173.083 154.092 172.699C154.104 171.425 154.303 170.387 155.127 169.391C156.004 168.696 156.787 168.634 157.899 168.648C158.931 168.824 159.362 169.398 159.961 170.215C160.29 171.437 160.348 172.689 160.433 173.947C160.466 174.4 160.499 174.853 160.532 175.305C160.549 175.541 160.566 175.778 160.584 176.021C160.922 180.582 161.389 185.064 162.304 189.551C162.369 189.87 162.434 190.189 162.5 190.518C165.297 206.258 165.297 206.258 173.215 219.2C173.568 219.403 173.923 219.603 174.28 219.8C174.455 219.903 174.631 220.005 174.812 220.111C176.921 221.301 178.885 221.246 181.238 221.173C181.513 221.173 181.789 221.172 182.073 221.172C182.846 221.146 183.529 221.099 184.277 220.899C185.52 219.554 185.797 218.282 185.742 216.504C185.377 213.056 183.461 209.888 181.933 206.836C181.769 206.507 181.769 206.507 181.602 206.171C181.209 205.385 180.816 204.6 180.422 203.816C177.497 197.985 176.361 193.363 176.312 186.804C176.308 186.477 176.304 186.149 176.3 185.812C176.296 181.533 176.296 181.533 177.685 179.901C178.492 179.236 178.796 179.027 179.828 178.912C180.976 179.025 181.41 179.383 182.226 180.176C182.71 181.143 182.542 182.218 182.527 183.28C182.524 183.798 182.52 184.317 182.516 184.836C182.509 185.652 182.501 186.469 182.491 187.285C182.482 188.074 182.477 188.863 182.472 189.652C182.468 189.891 182.465 190.13 182.46 190.377C182.45 192.906 182.915 195.201 183.948 197.516C184.034 197.71 184.12 197.904 184.209 198.103C185.03 199.906 185.965 201.646 186.896 203.394C188.045 205.559 189.111 207.729 190.027 210.004C190.12 210.233 190.213 210.461 190.309 210.697C191.374 213.431 191.67 215.892 191.508 218.818C191.522 219.74 191.522 219.74 192.095 220.361C192.919 221.014 193.308 221.044 194.349 221.041C194.664 221.043 194.979 221.045 195.303 221.046C195.641 221.042 195.979 221.038 196.328 221.034C196.676 221.033 197.024 221.033 197.383 221.033C198.118 221.031 198.853 221.026 199.589 221.019C200.718 221.008 201.847 221.007 202.976 221.007C203.689 221.004 204.403 221.001 205.117 220.997C205.456 220.996 205.796 220.996 206.145 220.995C206.458 220.991 206.771 220.988 207.093 220.984C207.37 220.981 207.646 220.979 207.93 220.977C208.652 220.961 208.652 220.961 209.179 220.313C209.881 216.242 206.102 211.674 204.165 208.304C203.947 207.926 203.947 207.926 203.726 207.54C203.478 207.11 203.23 206.681 202.981 206.252C196.669 195.311 194.457 182.661 192.7 170.325C192.665 170.084 192.63 169.843 192.594 169.595C191.375 161.084 190.873 152.494 190.429 143.914C190.381 142.994 190.331 142.075 190.28 141.155C190.134 138.466 189.999 135.776 189.875 133.086C189.843 132.411 189.81 131.736 189.777 131.062C189.724 129.965 189.677 128.868 189.633 127.771C189.617 127.362 189.598 126.954 189.578 126.545C189.551 125.984 189.53 125.423 189.51 124.861C189.496 124.545 189.483 124.228 189.469 123.902C189.572 122.826 189.954 122.058 190.722 121.289C192.969 121.013 195.239 120.964 197.5 120.911C206.247 120.698 214.567 119.333 220.898 112.793C224.917 108.561 226.217 103.451 226.3 97.7601C226.306 97.4629 226.313 97.1658 226.32 96.8596C226.313 94.7768 226.032 92.802 224.555 91.2241C223.009 89.8982 221.86 89.8856 219.891 89.8866C219.595 89.886 219.298 89.8854 218.993 89.8847C216.797 89.8964 214.61 89.9818 212.417 90.0937C211.996 90.115 211.996 90.115 211.567 90.1366C210.146 90.2093 208.726 90.2868 207.306 90.3705C206.773 90.3992 206.24 90.4279 205.707 90.4565C205.463 90.4724 205.219 90.4882 204.967 90.5045C203.605 90.5744 202.542 90.5168 201.269 89.9415C200.941 89.4059 200.941 89.4059 200.683 88.7697C196.186 83.1786 190.315 79.766 183.179 78.874C173.128 77.8794 163.635 81.4792 156.922 89.0008ZM159.045 209.766C158.645 210.01 158.645 210.01 158.237 210.26C158.033 210.387 157.828 210.514 157.617 210.645C157.758 211.442 157.928 212.157 158.218 212.915C158.574 214.136 158.571 215.241 158.551 216.504C158.551 216.733 158.55 216.962 158.55 217.198C158.54 218.492 158.42 219.597 158.203 220.899C160.813 220.899 163.424 220.899 166.113 220.899C165.451 219.394 165.451 219.394 164.776 217.859C163.482 214.897 162.273 211.911 161.133 208.887C160.27 208.887 159.774 209.318 159.045 209.766Z" fill="black"/>
<path d="M190.997 91.9557C192.01 92.9991 192.28 93.8599 192.315 95.3066C192.287 96.7003 192.065 97.5603 191.156 98.6219C190.114 99.5865 189.223 99.8691 187.829 100.049C186.395 99.9857 185.329 99.3909 184.277 98.4377C183.402 97.059 183.273 95.9514 183.523 94.3784C183.873 93.072 184.514 92.2452 185.595 91.4613C187.503 90.5553 189.225 90.8245 190.997 91.9557Z" fill="black"/>
</svg>
