<svg width="300" height="300" viewBox="0 0 300 300" fill="none" xmlns="http://www.w3.org/2000/svg">
<path d="M185.45 47.168C186.334 47.5535 186.587 47.6959 187.098 48.5596C188.973 53.5133 188.425 59.823 188.379 65.0391C188.75 65.1484 188.75 65.1484 189.129 65.2599C190.229 65.6583 191.203 66.1863 192.206 66.7786C192.382 66.8803 192.557 66.9821 192.738 67.087C193.519 67.5415 194.289 68.002 195.043 68.5009C195.261 68.6153 195.479 68.7298 195.704 68.8477C196.808 68.4794 196.854 68.1793 197.407 67.1814C199.872 63.2053 203.529 60.4784 207.422 58.0078C207.688 57.8383 207.953 57.6689 208.226 57.4943C209.36 56.7696 210.494 56.0455 211.634 55.3293C212.381 54.8591 213.125 54.3836 213.868 53.9062C214.161 53.7244 214.161 53.7244 214.46 53.5388C215.833 52.6405 216.61 51.5799 217.457 50.1892C218.746 48.1152 218.746 48.1152 219.727 47.4609C220.661 47.4243 220.661 47.4243 221.485 47.4609C221.628 47.8568 221.767 48.2538 221.906 48.6511C222.023 48.9825 222.023 48.9825 222.143 49.3206C224.305 56.9265 222.398 66.5287 218.667 73.3731C216.717 76.7593 214.183 79.7713 211.524 82.6172C211.077 83.1165 210.631 83.6169 210.187 84.1187C209.994 84.3369 209.8 84.5552 209.6 84.7801C209.462 84.9365 209.323 85.0928 209.18 85.2539C209.315 85.5236 209.449 85.7932 209.588 86.071C211.364 89.7005 212.361 93.1287 212.842 97.1375C213.471 102.352 214.847 105.975 218.683 109.68C222.233 113.112 224.678 117.289 224.779 122.349C224.796 127.165 222.752 130.367 220.413 134.441C217.353 140.092 218.599 147.093 219.068 153.223C219.094 153.572 219.121 153.921 219.148 154.28C220.185 167.938 221.559 181.624 228.286 193.813C230.84 198.553 231.274 204.22 229.995 209.414C228.798 213.07 226.895 214.54 223.639 216.389C221.228 217.964 219.936 220.477 218.635 222.956C217.098 225.751 215.161 227.297 212.11 228.223C208.371 229.237 204.558 229.821 200.684 229.834C200.403 229.836 200.122 229.838 199.833 229.839C195.364 229.759 192.058 227.825 188.965 224.707C184.611 220.121 183.104 214.374 182.557 208.248C182.248 204.941 181.457 202.39 179.773 199.53C179.62 199.266 179.467 199.002 179.308 198.73C176.865 194.583 174.078 190.687 171.094 186.914C168.139 183.168 165.296 179.371 162.635 175.409C160.116 171.315 160.116 171.315 156.446 168.457C157.127 171.731 158.011 174.767 159.376 177.832C159.493 178.098 159.611 178.364 159.732 178.638C161.17 181.869 162.646 185.065 164.352 188.164C164.938 189.239 165.485 190.33 166.027 191.428C166.841 193.065 167.668 194.695 168.514 196.317C172.842 204.629 176.946 212.968 180.176 221.777C180.282 222.064 180.388 222.35 180.497 222.645C183.048 229.628 184.855 236.944 186.036 244.281C186.093 244.636 186.15 244.992 186.209 245.358C186.585 247.846 186.781 250.321 186.915 252.832C186.625 252.832 186.335 252.832 186.036 252.832C184.966 251.058 184.223 249.34 183.637 247.357C183.461 246.786 183.283 246.215 183.106 245.644C182.965 245.187 182.965 245.187 182.821 244.72C180.907 238.55 178.735 232.649 176.075 226.758C175.967 226.515 175.859 226.273 175.748 226.023C174.11 222.349 172.175 218.842 170.215 215.332C170.073 215.075 169.931 214.818 169.785 214.553C167.48 210.387 164.944 206.403 162.305 202.441C161.953 201.909 161.6 201.376 161.248 200.844C159.424 198.092 157.574 195.359 155.707 192.637C154.472 190.837 153.251 189.03 152.051 187.207C151.938 187.036 151.824 186.865 151.707 186.689C149.221 182.951 146.951 179.095 144.727 175.195C144.609 174.991 144.491 174.786 144.369 174.576C138.062 163.626 134.614 150.792 134.675 138.171C134.675 137.934 134.676 137.697 134.677 137.453C134.691 133.955 134.782 130.555 135.645 127.148C135.73 126.804 135.73 126.804 135.817 126.452C137.74 118.887 141.417 110.022 148.369 105.802C149.206 105.431 149.974 105.288 150.879 105.176C150.74 107.018 149.877 108.513 149.067 110.138C143.193 122.201 140.121 136.455 144.379 149.579C145.982 154.178 148.684 158.484 153.213 160.674C156.74 162.115 160.414 162.668 164.17 163.132C169.416 163.816 169.416 163.816 171.094 165.82C172.604 167.995 173.567 170.365 174.537 172.815C177.138 179.243 180.347 184.978 184.195 190.746C186.536 194.273 187.873 197.323 187.781 201.571C187.774 202.092 187.768 202.614 187.762 203.135C187.751 203.947 187.739 204.759 187.721 205.571C187.595 211.72 188.646 216.783 193.005 221.449C195.925 224.25 199.31 225.305 203.339 225.403C207.578 225.29 210.864 223.88 213.797 220.811C216.13 217.998 217.717 215.362 217.786 211.67C217.942 207.696 218.681 204.992 221.414 202.076C222.403 200.861 222.78 199.696 222.657 198.138C222.464 196.606 222.065 195.198 221.595 193.734C221.479 193.369 221.479 193.369 221.36 192.997C220.589 190.612 219.712 188.271 218.821 185.929C217.19 181.628 215.716 177.357 214.747 172.852C214.701 172.651 214.656 172.451 214.609 172.244C212.972 164.933 212.628 157.323 212.623 149.854C212.622 149.583 212.622 149.312 212.622 149.034C212.63 141.792 213.759 135.074 215.46 128.05C216.692 122.862 217.543 117.898 214.682 113.069C214.008 111.988 213.303 110.928 212.594 109.869C210.893 107.317 209.921 104.827 209.173 101.878C208.609 99.7498 207.692 97.9671 206.544 96.0938C205.901 96.6681 205.901 96.6681 205.555 97.5586C205.046 98.4971 204.841 98.6236 203.907 99.0234C202.572 96.9197 202.572 96.9197 202.001 95.8649C199.889 91.9967 197.085 88.7415 192.774 87.3047C192.784 87.5388 192.794 87.773 192.805 88.0142C192.87 90.6743 192.78 93.3146 191.254 95.5811C191.079 95.7502 190.904 95.9194 190.723 96.0938C187.992 95.3784 186.66 93.4958 185.251 91.1842C184.462 89.8021 183.846 88.3581 183.253 86.8835C183.153 86.6375 183.054 86.3914 182.952 86.1379C182.422 84.7612 182.077 83.5004 181.934 82.0312C181.806 82.1487 181.677 82.2662 181.545 82.3872C177.801 85.7428 173.463 89.0371 168.348 89.7949C167.579 89.6484 167.579 89.6484 167.048 89.0808C164.694 83.0112 166.944 73.9021 169.39 68.2091C170.975 64.747 173.296 61.7272 175.684 58.7889C176.185 58.1631 176.667 57.524 177.149 56.8834C179.716 53.4808 182.582 50.3175 185.45 47.168Z" fill="black"/>
<path d="M165.919 59.3943C167.69 59.4698 169.345 59.4703 171.094 59.1797C170.427 60.3814 169.722 61.5348 168.962 62.6804C167.823 64.4645 166.963 66.3268 166.114 68.2617C162.983 75.3934 162.983 75.3934 160.255 76.7578C159.7 76.8095 159.143 76.8453 158.586 76.8734C141.52 77.8298 125.365 83.8007 113.38 96.3867C111.915 97.8516 111.915 97.8516 111.417 98.3185C106.961 102.585 103.546 108.04 100.529 113.378C100.319 113.748 100.107 114.117 99.8934 114.484C94.039 124.525 90.9203 136.508 89.3562 147.949C89.3215 148.201 89.2867 148.453 89.2509 148.713C86.167 172.522 92.263 197.763 106.055 217.383C106.232 217.638 106.232 217.638 106.413 217.898C108.895 221.469 111.516 224.906 114.477 228.094C115.037 228.7 115.575 229.315 116.108 229.944C118.318 232.484 120.768 234.844 123.341 237.012C123.654 237.282 123.968 237.552 124.281 237.823C127.929 240.972 127.929 240.972 131.711 243.957C131.887 244.09 132.063 244.224 132.245 244.361C132.589 244.621 132.936 244.879 133.283 245.135C133.691 245.441 134.084 245.766 134.473 246.094C134.473 246.287 134.473 246.48 134.473 246.68C125.274 247.423 116.316 241.381 109.278 236.133C109.097 235.998 108.916 235.864 108.73 235.726C106.348 233.941 104.146 232.006 101.987 229.959C101.293 229.301 100.582 228.672 99.8482 228.058C98.2641 226.686 96.8963 225.1 95.5086 223.535C95.368 223.378 95.2274 223.222 95.0826 223.06C86.2954 213.236 79.9428 201.346 75.5867 188.965C75.4931 188.703 75.3995 188.441 75.303 188.171C66.3126 162.896 67.5992 134.425 78.8849 110.074C82.0356 103.446 85.6736 97.1673 90.2351 91.4062C90.4636 91.1155 90.6921 90.8247 90.9275 90.5251C94.8522 85.6313 99.3086 80.8681 104.298 77.0508C104.58 76.8249 104.863 76.5991 105.155 76.3664C122.717 62.5007 143.934 58.3334 165.919 59.3943Z" fill="black"/>
<path d="M202.442 193.066C203.589 193.875 203.957 194.581 204.273 195.901C204.74 197.529 205.537 198.598 206.616 199.878C211.067 205.446 211.067 205.446 210.789 208.834C210.39 210.599 209.322 211.78 208.008 212.988C207.5 213.496 207.666 214.238 207.642 214.929C207.507 216.703 207.186 217.563 205.957 218.848C204.898 219.535 203.968 219.498 202.73 219.3C201.802 219.046 201.144 218.555 200.391 217.969C200.162 217.798 199.933 217.627 199.697 217.451C196.456 214.701 194.11 210.469 193.652 206.25C193.628 206.051 193.604 205.853 193.579 205.648C193.374 202.251 194.723 198.206 196.582 195.41C198.267 193.526 199.86 192.375 202.442 193.066Z" fill="black"/>
<path d="M162.011 114.844C162.698 115.244 162.698 115.244 163.384 115.645C163.608 115.767 163.831 115.89 164.062 116.016C164.393 116.21 164.723 116.405 165.064 116.606C166.715 117.425 168.477 117.557 170.287 117.773C177.316 118.623 177.316 118.623 179.398 120.645C181.553 123.513 182.651 126.907 183.398 130.371C183.455 130.613 183.513 130.854 183.572 131.104C183.721 132.021 183.718 132.902 183.709 133.832C183.706 134.172 183.704 134.512 183.701 134.863C183.698 135.121 183.694 135.379 183.691 135.645C183.207 135.838 182.724 136.031 182.226 136.23C181.989 136.029 181.752 135.828 181.508 135.62C181.192 135.354 180.876 135.087 180.56 134.821C180.326 134.622 180.326 134.622 180.089 134.419C178.101 132.748 177.08 132.317 174.535 132.44C171.942 132.502 170.295 132.225 168.218 130.609C166.78 128.76 166.373 127.105 166.186 124.786C166.053 123.27 165.871 122.255 164.703 121.198C164.495 121.027 164.288 120.856 164.074 120.68C162.87 119.547 162.141 117.868 161.923 116.233C161.919 115.668 161.919 115.668 162.011 114.844Z" fill="black"/>
</svg>
