<svg width="300" height="300" viewBox="0 0 300 300" fill="none" xmlns="http://www.w3.org/2000/svg">
<path d="M146.125 48.3042C158.122 48.0186 170.401 52.2117 179.205 60.443C179.364 60.605 179.522 60.767 179.685 60.9339C180.177 61.2922 180.177 61.2922 180.854 61.2063C184.894 59.8243 187.944 56.1572 189.98 52.5865C190.661 51.4173 191.187 50.6484 192.48 50.0975C193.515 50.1186 194.046 50.235 194.854 50.8871C196.472 52.852 196.075 56.2604 195.858 58.6474C195.264 62.9452 193.689 67.451 190.703 70.7003C190.375 71.1899 190.375 71.1899 190.454 71.8241C190.839 73.0174 191.406 74.1008 191.968 75.2196C195.383 82.228 197.174 91.4043 194.771 99.0447C193.361 103.527 193.348 108.068 193.333 112.722C193.329 113.653 193.312 114.583 193.285 115.513C192.87 120.802 192.87 120.802 194.48 125.595C195.37 126.521 196.339 127.121 197.461 127.734C197.884 128.072 198.302 128.417 198.706 128.778C198.886 128.934 199.066 129.091 199.252 129.252C200.439 130.397 201.431 131.708 202.441 133.008C202.656 133.276 202.87 133.545 203.091 133.821C208.061 140.2 211.227 147.674 212.915 155.548C212.973 155.816 213.031 156.084 213.091 156.361C214.208 161.881 214.259 167.423 214.268 173.033C214.269 173.67 214.271 174.308 214.273 174.946C214.28 177.176 214.284 179.405 214.285 181.635C214.286 183.708 214.295 185.78 214.307 187.852C214.317 189.641 214.322 191.43 214.322 193.219C214.322 194.283 214.325 195.348 214.333 196.412C214.342 197.594 214.339 198.776 214.336 199.958C214.342 200.484 214.342 200.484 214.349 201.02C214.325 203.654 214.325 203.654 213.459 204.562C212.449 205.244 211.875 205.288 210.69 205.223C209.67 204.988 209.203 204.432 208.594 203.613C208.296 202.72 208.263 202.116 208.26 201.182C208.259 200.859 208.257 200.537 208.255 200.205C208.255 199.851 208.255 199.497 208.255 199.133C208.252 198.561 208.25 197.989 208.248 197.416C208.245 196.8 208.244 196.184 208.242 195.568C208.239 194.278 208.233 192.987 208.227 191.697C208.209 188.027 208.193 184.357 208.183 180.687C208.178 178.661 208.169 176.635 208.157 174.609C208.151 173.54 208.147 172.471 208.146 171.401C208.134 156.791 204.813 143.352 194.267 132.724C187.968 126.592 179.889 123.449 171.149 123.248C166.128 123.327 160.441 124.024 156.738 127.734C152.8 132.317 153.158 138.993 153.575 144.651C154.854 156.495 161.546 167.776 168.75 176.953C168.934 177.19 169.118 177.427 169.307 177.671C169.894 178.416 170.492 179.15 171.094 179.883C171.325 180.169 171.557 180.455 171.795 180.75C173.69 183.052 175.749 185.186 177.85 187.298C178.117 187.568 178.383 187.837 178.658 188.114C180.441 189.89 182.311 191.498 184.277 193.066C184.585 193.323 184.892 193.581 185.196 193.841C188.723 196.839 192.439 199.559 196.319 202.08C196.871 202.439 197.42 202.801 197.969 203.165C200.96 205.133 204.016 206.99 207.086 208.831C208.081 209.429 209.071 210.035 210.059 210.644C210.386 210.846 210.713 211.048 211.05 211.256C211.361 211.455 211.673 211.654 211.994 211.859C212.27 212.034 212.547 212.209 212.832 212.389C213.879 213.234 214.539 214.207 215.021 215.46C215.048 216.59 214.712 217.283 214.16 218.262C212.724 219.423 211.579 219.743 209.776 219.818C209.488 219.83 209.2 219.842 208.903 219.855C208.592 219.866 208.282 219.877 207.961 219.889C207.635 219.902 207.309 219.914 206.973 219.927C203.464 220.05 199.958 220.058 196.447 220.051C195.732 220.051 195.016 220.051 194.3 220.051C192.569 220.05 190.838 220.048 189.107 220.046C187.679 220.044 186.251 220.042 184.823 220.041C184.513 220.041 184.513 220.041 184.197 220.041C183.776 220.041 183.355 220.04 182.934 220.04C178.093 220.037 173.252 220.03 168.41 220.022C166.868 220.02 165.326 220.018 163.784 220.016C153.421 220.002 143.058 219.982 132.695 219.95C131.834 219.948 130.973 219.945 130.112 219.942C129.899 219.942 129.686 219.941 129.466 219.941C125.913 219.93 122.361 219.923 118.808 219.917C115.081 219.91 111.354 219.901 107.627 219.888C105.364 219.88 103.101 219.875 100.838 219.873C99.1333 219.871 97.4289 219.865 95.7245 219.857C95.0282 219.854 94.332 219.853 93.6357 219.854C92.6888 219.854 91.7421 219.849 90.7952 219.843C90.5195 219.845 90.2439 219.846 89.9598 219.848C88.5477 219.832 87.5593 219.787 86.4258 218.847C85.7039 217.765 85.641 216.882 85.8398 215.625C86.5414 214.43 87.1658 213.963 88.4765 213.574C89.4378 213.492 90.3949 213.5 91.3591 213.508C91.7923 213.507 91.7923 213.507 92.2343 213.507C93.187 213.508 94.1397 213.512 95.0924 213.517C95.7537 213.518 96.415 213.519 97.0763 213.519C98.8155 213.522 100.555 213.527 102.294 213.534C104.069 213.54 105.844 213.542 107.62 213.545C111.102 213.552 114.584 213.562 118.066 213.574C118.066 213.381 118.066 213.187 118.066 212.988C117.62 212.56 117.62 212.56 117.041 212.109C113.025 208.66 110.721 203.781 109.936 198.578C109.912 198.209 109.888 197.841 109.863 197.461C109.83 197.052 109.83 197.052 109.797 196.635C109.756 195.811 109.743 195.054 109.863 194.238C111.245 192.896 113.34 193 115.166 193.022C118.585 193.201 121.628 194.348 124.219 196.582C124.508 196.814 124.508 196.814 124.802 197.051C128.569 200.378 129.641 205.433 129.944 210.231C130.001 211.345 130.037 212.459 130.078 213.574C132.978 213.574 135.879 213.574 138.867 213.574C138.962 212.081 139.043 210.598 139.092 209.104C139.113 208.598 139.141 208.092 139.177 207.587C139.451 204.771 139.451 204.771 138.483 202.228C137.53 201.339 136.454 200.713 135.305 200.108C134.399 199.598 133.608 198.961 132.788 198.321C132.632 198.201 132.476 198.081 132.316 197.957C131.054 196.974 129.862 195.927 128.686 194.844C128.105 194.31 127.512 193.796 126.91 193.286C124.375 191.075 121.96 188.634 119.824 186.035C119.701 185.886 119.578 185.738 119.451 185.585C105.573 168.81 99.222 148.805 99.236 127.18C99.2363 126.186 99.2324 125.193 99.2275 124.199C99.2142 121.38 99.2067 118.561 99.2048 115.742C99.2033 114.001 99.1962 112.26 99.1857 110.518C99.1828 109.863 99.1821 109.208 99.1837 108.553C99.1914 105.169 99.0942 102.062 98.1309 98.803C95.8817 91.1429 97.6442 81.1969 101.325 74.2697C101.633 73.7377 101.951 73.2109 102.284 72.6939C102.612 72.0818 102.612 72.0818 102.35 71.4819C101.915 70.842 101.465 70.2179 101.001 69.5982C98.1884 65.6103 96.6417 60.8704 96.5881 56.0118C96.5796 55.7586 96.5711 55.5054 96.5624 55.2445C96.5456 53.5343 96.7632 52.0602 97.8515 50.6834C98.602 50.2185 98.9695 50.0987 99.8657 50.0792C101.7 50.7028 102.514 52.3858 103.473 53.9793C105.65 57.4488 108.851 60.0727 112.54 61.8197C113.149 61.8737 113.149 61.8737 113.697 61.307C113.918 61.0581 114.14 60.8092 114.368 60.5528C122.399 52.1331 134.876 48.7953 146.125 48.3042ZM118.359 64.453C119.184 65.003 119.63 65.1755 120.569 65.3857C120.965 65.4751 120.965 65.4751 121.369 65.5664C121.651 65.628 121.933 65.6896 122.223 65.753C122.658 65.8508 122.658 65.8508 123.101 65.9505C124.592 66.2814 126.082 66.5814 127.589 66.8303C131.456 67.4759 134.796 68.901 137.988 71.1912C138.231 71.3585 138.474 71.5258 138.724 71.6982C142.118 74.1967 144.371 77.7042 146.191 81.4451C147.121 81.2451 147.121 81.2451 147.458 80.4575C147.59 80.1611 147.722 79.8646 147.858 79.5592C148.739 77.7137 149.849 76.2525 151.172 74.7069C151.354 74.4667 151.537 74.2265 151.725 73.979C153.582 71.768 156.096 70.2353 158.679 69.0123C158.972 68.8728 158.972 68.8728 159.272 68.7304C161.955 67.5209 164.778 66.9787 167.67 66.5221C170.245 66.0973 172.71 65.5559 175.195 64.7459C168.143 57.478 157.725 54.316 147.812 54.1303C137.04 54.0648 126.444 57.1315 118.359 64.453ZM104.297 63.867C104.878 65.1485 105.521 66.0774 106.494 67.0897C107.79 68.4376 108.586 69.5299 108.84 71.4155C108.775 72.9863 107.966 74.1857 107.19 75.5125C103.203 82.7161 101.87 91.2948 104.004 99.3162C105.87 105.707 109.715 111.586 115.641 114.879C121.221 117.845 126.667 118.438 132.876 118.515C133.597 118.525 134.319 118.538 135.04 118.551C135.26 118.553 135.48 118.555 135.707 118.556C137.715 118.595 137.715 118.595 138.574 119.238C139.01 120.289 139.232 120.974 138.977 122.095C138.498 122.879 138.208 123.18 137.402 123.633C136.536 123.767 135.677 123.763 134.802 123.76C134.416 123.762 134.416 123.762 134.022 123.764C133.474 123.766 132.926 123.766 132.379 123.763C131.562 123.761 130.746 123.769 129.929 123.779C121.629 123.812 114 121.568 107.895 115.764C107.376 115.277 106.853 114.818 106.306 114.365C106.03 114.136 105.753 113.907 105.469 113.672C105.455 116.54 105.445 119.408 105.438 122.276C105.435 123.609 105.431 124.941 105.425 126.274C105.329 136.49 105.329 136.49 106.696 146.594C106.759 146.896 106.822 147.198 106.886 147.509C109.505 159.648 114.854 170.417 122.461 180.176C122.68 180.458 122.899 180.74 123.125 181.03C127.126 186.047 131.708 190.375 136.816 194.238C137.122 194.472 137.427 194.706 137.741 194.948C146.674 201.658 157.092 205.672 167.789 208.566C168.156 208.668 168.522 208.769 168.9 208.874C169.225 208.962 169.549 209.049 169.884 209.139C171.295 209.652 172.306 210.241 173.108 211.523C173.437 212.402 173.437 212.402 173.437 213.574C183.395 213.574 193.353 213.574 203.613 213.574C202.873 213.019 202.205 212.533 201.421 212.069C201.223 211.951 201.025 211.832 200.821 211.71C200.606 211.582 200.392 211.454 200.171 211.322C195.691 208.61 191.253 205.764 187.147 202.505C186.302 201.835 185.439 201.195 184.57 200.555C181.594 198.329 178.819 195.863 176.074 193.359C175.778 193.093 175.481 192.827 175.184 192.562C173.729 191.253 172.321 189.942 171.062 188.438C170.486 187.767 169.884 187.124 169.278 186.482C167.303 184.381 165.5 182.188 163.77 179.883C163.547 179.588 163.547 179.588 163.32 179.287C153.989 166.851 145.857 151.177 147.802 135.131C148.347 131.437 149.5 127.02 152.25 124.322C152.705 123.948 152.705 123.948 152.637 123.34C152.809 123.26 152.981 123.18 153.159 123.097C153.789 122.764 154.282 122.398 154.834 121.948C158.223 119.389 162.038 118.383 166.164 117.721C166.353 117.69 166.543 117.66 166.738 117.628C167.696 117.475 168.654 117.329 169.614 117.191C175.545 116.285 180.565 113.538 184.254 108.741C186.913 105.106 188.622 101.074 189.551 96.6795C189.635 96.2892 189.635 96.2892 189.72 95.891C190.71 88.1307 189.033 80.6692 184.765 74.1049C183.887 72.7544 183.675 71.584 183.984 70.0194C184.523 68.7438 185.268 67.7685 186.346 66.9066C187.29 66.144 187.758 65.4796 188.379 64.453C188.282 64.2596 188.186 64.0662 188.086 63.867C187.844 64.0302 187.603 64.1933 187.353 64.3614C181.938 67.9651 176.203 70.4102 169.809 71.7222C169.597 71.7657 169.385 71.8092 169.167 71.854C168.126 72.0648 167.084 72.2653 166.039 72.4519C161.845 73.2322 158.567 74.8452 155.566 77.9295C155.325 78.1567 155.325 78.1567 155.079 78.3884C152.12 81.4188 150.193 86.7647 149.954 90.9003C150.066 92.8593 150.89 94.6187 151.707 96.3763C151.847 96.6792 151.847 96.6792 151.988 96.9883C152.171 97.3805 152.358 97.7702 152.553 98.1566C154.021 101.274 152.948 104.034 151.849 107.117C151.645 107.704 151.442 108.291 151.24 108.879C151.107 109.263 150.973 109.648 150.839 110.032C150.21 111.84 149.66 113.666 149.131 115.506C148.83 116.303 148.642 116.701 147.949 117.187C146.316 117.395 146.316 117.395 145.605 117.187C144.368 115.932 143.91 114.485 143.358 112.852C143.262 112.575 143.166 112.297 143.067 112.011C142.866 111.424 142.666 110.837 142.468 110.249C142.165 109.356 141.855 108.465 141.544 107.574C141.349 107.002 141.154 106.43 140.959 105.858C140.867 105.594 140.774 105.33 140.679 105.058C139.896 102.706 139.628 100.723 140.734 98.4282C140.878 98.1181 141.022 97.8081 141.17 97.4886C141.323 97.1733 141.475 96.8579 141.632 96.533C143.544 92.5677 143.544 92.5677 143.06 88.3356C142.981 88.1222 142.903 87.9089 142.822 87.689C142.742 87.4619 142.662 87.2348 142.58 87.0008C140.507 81.2928 137.168 76.2213 131.507 73.5682C129.197 72.6746 126.742 72.2161 124.317 71.744C117.623 70.4335 111.495 68.3826 105.802 64.5548C105.162 64.1166 105.162 64.1166 104.297 63.867ZM146.484 98.4373C145.567 99.9284 145.388 101.129 145.605 102.832C145.843 103.735 146.14 104.601 146.484 105.469C147.544 104.409 147.689 102.788 147.748 101.33C147.653 100.149 147.382 99.4453 146.777 98.4373C146.681 98.4373 146.584 98.4373 146.484 98.4373ZM186.298 114.544C186.054 114.8 185.81 115.056 185.559 115.32C184.333 116.574 183.084 117.66 181.641 118.652C182.596 119.289 183.489 119.622 184.57 120.007C184.933 120.138 185.295 120.269 185.669 120.403C186.594 120.747 186.594 120.747 187.5 120.703C187.5 118.479 187.5 116.256 187.5 113.965C186.844 113.898 186.844 113.898 186.298 114.544ZM116.016 199.512C116.566 202.866 118.176 205.72 120.703 208.008C122.324 209.249 122.324 209.249 124.219 209.765C124.107 206.88 123.631 203.907 121.574 201.729C119.991 200.469 118.08 199.356 116.016 199.512ZM145.02 206.25C145.02 208.764 145.02 211.277 145.02 213.867C148.113 213.867 151.207 213.867 154.395 213.867C154.395 212.707 154.395 211.547 154.395 210.351C153.907 210.129 153.42 209.907 152.918 209.677C152.275 209.383 151.632 209.089 150.989 208.795C150.668 208.649 150.347 208.502 150.017 208.352C149.55 208.138 149.55 208.138 149.073 207.92C148.645 207.724 148.645 207.724 148.208 207.524C147.604 207.242 147.007 206.945 146.414 206.64C145.667 206.207 145.667 206.207 145.02 206.25Z" fill="black"/>
<path d="M120.838 78.7382C121.426 78.7354 122.013 78.7263 122.601 78.7171C126.808 78.7003 130.52 79.5051 133.704 82.3872C136.288 85.226 137.916 89.6127 137.783 93.4559C137.633 94.4665 137.306 94.8561 136.524 95.5078C134.813 96.3997 133.167 96.851 131.25 96.9727C131.053 96.9878 130.856 97.0029 130.653 97.0185C126.803 97.1864 123.534 95.8589 120.667 93.3838C117.507 90.4203 114.799 86.3506 114.503 81.8951C114.578 80.936 114.802 80.3301 115.375 79.5593C116.951 78.4339 118.983 78.7436 120.838 78.7382ZM121.582 84.375C121.828 86.5088 122.864 88.1822 124.521 89.5558C125.091 89.9249 125.657 90.2368 126.27 90.5274C126.536 90.6543 126.801 90.7811 127.075 90.9119C128.558 91.2254 130.034 91.1573 131.543 91.1133C131.911 90.5372 131.911 90.5372 131.681 89.9014C130.837 87.6793 129.822 86.1748 127.684 85.064C126.455 84.5642 125.259 84.506 123.944 84.4666C123.602 84.4516 123.602 84.4516 123.253 84.4362C122.696 84.4123 122.139 84.3932 121.582 84.375Z" fill="black"/>
<path d="M171.241 78.6837C171.902 78.6802 172.563 78.6657 173.224 78.6511C173.647 78.6483 174.071 78.6462 174.495 78.6448C174.876 78.6408 175.256 78.6369 175.648 78.6328C176.912 78.852 177.337 79.285 178.125 80.2733C178.89 82.9711 177.365 86.3138 176.166 88.6778C174.012 92.396 170.717 95.3795 166.568 96.5971C163.338 97.331 159.346 97.2454 156.445 95.5076C155.676 94.8484 155.676 94.8484 155.274 94.0428C155.074 90.1169 156.327 86.1383 158.779 83.0679C162.191 79.3531 166.447 78.6958 171.241 78.6837ZM162.982 86.9566C161.999 88.3123 161.426 89.3975 161.426 91.1131C164.567 91.2879 166.642 90.9888 169.116 89.0074C170.272 87.9373 171.091 86.7154 171.68 85.2537C171.68 84.9637 171.68 84.6736 171.68 84.3748C168.266 84.258 165.458 84.3658 162.982 86.9566Z" fill="black"/>
</svg>
