<svg width="300" height="300" viewBox="0 0 300 300" fill="none" xmlns="http://www.w3.org/2000/svg">
<path d="M173.693 103.206C175.24 103.268 176.463 103.321 177.702 104.306C178.929 105.822 179.702 107.535 180.423 109.336C181.241 111.525 181.241 111.525 182.812 113.086C182.891 112.877 182.97 112.668 183.052 112.452C183.403 111.61 183.809 110.84 184.258 110.045C184.424 109.751 184.59 109.457 184.761 109.154C184.934 108.851 185.106 108.547 185.284 108.234C185.456 107.929 185.628 107.624 185.805 107.31C186.765 105.615 186.765 105.615 187.207 104.883C187.332 104.662 187.456 104.441 187.585 104.214C188.617 103.178 190.304 103.481 191.686 103.478C192.275 103.473 192.861 103.448 193.45 103.422C196.203 103.398 196.203 103.398 197.177 104.202C197.647 104.894 197.991 105.588 198.34 106.348C198.649 106.878 198.963 107.405 199.281 107.931C199.591 108.47 199.9 109.011 200.208 109.552C200.367 109.829 200.527 110.105 200.692 110.39C200.842 110.654 200.993 110.918 201.148 111.19C201.284 111.428 201.42 111.666 201.561 111.911C201.855 112.5 201.855 112.5 201.855 113.086C202.66 112.363 203.148 111.569 203.687 110.635C203.865 110.327 204.043 110.019 204.227 109.702C204.411 109.381 204.595 109.059 204.785 108.728C205.151 108.094 205.518 107.46 205.884 106.826C206.045 106.545 206.207 106.264 206.374 105.974C206.602 105.579 206.602 105.579 206.836 105.176C206.961 104.905 207.085 104.635 207.214 104.356C207.715 103.711 207.715 103.711 208.589 103.494C209.534 103.459 210.478 103.426 211.424 103.424C212.032 103.418 212.635 103.388 213.242 103.356C216.096 103.328 216.096 103.328 217.174 104.339C217.713 105.18 218.136 106.028 218.555 106.934C218.872 107.47 219.195 108.002 219.524 108.53C219.83 109.041 220.136 109.553 220.441 110.065C220.678 110.462 220.678 110.462 220.921 110.868C221.304 111.509 221.688 112.151 222.07 112.793C222.926 112.038 223.417 111.171 223.976 110.183C224.071 110.016 224.166 109.85 224.263 109.678C224.565 109.149 224.865 108.618 225.165 108.087C225.466 107.556 225.767 107.024 226.069 106.493C226.343 106.012 226.616 105.531 226.888 105.049C227.344 104.297 227.344 104.297 227.93 103.711C229.118 103.554 230.309 103.54 231.507 103.522C231.903 103.514 232.3 103.5 232.695 103.48C235.938 103.318 235.938 103.318 237.017 104.188C237.492 104.884 237.834 105.582 238.184 106.348C238.515 106.927 238.85 107.504 239.188 108.079C239.526 108.68 239.862 109.28 240.198 109.882C240.371 110.191 240.545 110.501 240.724 110.82C241.148 111.575 241.57 112.33 241.992 113.086C242.966 112.004 243.346 111.154 243.686 109.748C244.418 107.549 245.209 105.453 247.149 104.051C251.935 101.736 260.305 103.282 265.43 103.711C264.416 104.748 263.462 105.55 262.225 106.311C260.026 107.685 257.892 109.149 255.76 110.624C254.983 111.158 254.202 111.684 253.418 112.207C253.059 112.452 253.059 112.452 252.693 112.701C248.983 115.101 245.061 114.972 240.801 114.961C240.18 114.963 239.56 114.965 238.939 114.967C237.607 114.972 236.274 114.974 234.942 114.973C232.826 114.973 230.71 114.978 228.595 114.985C224.476 114.997 220.357 115.002 216.238 115.007C211.016 115.014 205.793 115.024 200.571 115.039C198.817 115.043 197.063 115.047 195.309 115.048C186.396 115.05 177.511 115.077 168.658 116.254C168.469 116.278 168.28 116.303 168.084 116.328C151.636 118.473 136.269 124.095 122.461 133.301C122.339 134.039 122.339 134.039 122.375 134.896C122.378 135.212 122.381 135.527 122.384 135.852C122.395 136.347 122.395 136.347 122.406 136.853C122.412 137.352 122.412 137.352 122.418 137.861C122.428 138.685 122.443 139.509 122.461 140.332C122.998 139.843 123.527 139.349 124.054 138.849C124.205 138.713 124.356 138.576 124.512 138.435C125.332 137.647 125.676 137.278 125.731 136.122C126.087 134.582 126.987 134.148 128.266 133.292C129.764 132.366 131.286 131.505 132.843 130.683C133.176 130.505 133.51 130.328 133.853 130.146C143.675 124.978 154.243 121.455 165.234 119.824C165.502 119.784 165.769 119.744 166.045 119.702C175.773 118.275 185.527 118.269 195.336 118.26C197.13 118.258 198.925 118.252 200.72 118.246C205.647 118.23 210.575 118.22 215.502 118.211C220.04 118.202 224.577 118.192 229.114 118.177C231.242 118.17 233.369 118.166 235.496 118.164C236.819 118.162 238.141 118.158 239.464 118.153C240.073 118.152 240.683 118.151 241.293 118.151C247.907 118.154 252.238 117.017 257.742 113.269C258.318 112.877 258.895 112.488 259.473 112.1C260.234 111.588 260.995 111.076 261.755 110.563C263.09 109.662 264.43 108.769 265.778 107.886C266.072 107.689 266.072 107.689 266.372 107.489C267.672 106.641 267.672 106.641 268.652 106.641C268.72 109.852 268.772 113.063 268.804 116.275C268.819 117.767 268.84 119.258 268.873 120.749C268.905 122.189 268.923 123.628 268.93 125.069C268.936 125.617 268.946 126.166 268.962 126.714C269.081 131.001 269.081 131.001 268.049 132.307C267.295 132.846 266.571 133.226 265.723 133.594C265.38 133.8 265.039 134.011 264.703 134.228C264.4 134.404 264.097 134.579 263.784 134.76C263.615 134.858 263.447 134.956 263.273 135.057C262.918 135.264 262.562 135.471 262.205 135.676C261.264 136.22 260.326 136.767 259.387 137.314C259.201 137.423 259.015 137.531 258.824 137.642C257.221 138.575 255.629 139.522 254.041 140.479C253.805 140.62 253.57 140.762 253.328 140.907C252.881 141.177 252.435 141.446 251.988 141.716C251.049 142.282 250.11 142.845 249.17 143.408C248.817 143.62 248.464 143.832 248.111 144.044C245.605 145.547 245.605 145.547 244.878 145.983C244.38 146.282 243.882 146.581 243.384 146.88C242.141 147.626 240.898 148.371 239.653 149.114C239.169 149.404 238.686 149.693 238.202 149.982C237.846 150.194 237.846 150.194 237.483 150.41C236.161 151.202 234.85 152.01 233.549 152.836C233.268 153.014 232.987 153.191 232.697 153.374C232.153 153.719 231.61 154.067 231.068 154.417C230.824 154.572 230.579 154.726 230.327 154.886C230.003 155.094 230.003 155.094 229.673 155.306C229.102 155.567 229.102 155.567 228.223 155.274C227.937 154.782 227.937 154.782 227.684 154.136C227.586 153.894 227.488 153.652 227.387 153.403C227.282 153.138 227.177 152.873 227.069 152.6C224.975 147.534 222.582 142.577 219.141 138.281C218.925 138.009 218.709 137.736 218.486 137.455C216.515 135.114 214.248 133.403 211.23 132.715C206.523 132.342 201.94 133.35 198.238 136.423C197.353 137.2 196.526 138.025 195.703 138.867C195.529 139.032 195.356 139.196 195.177 139.365C192.093 142.523 190.9 147.049 190.907 151.313C190.998 154.732 192.045 157.495 194.476 159.9C195.77 161.082 197.176 162.072 198.632 163.043C199.219 163.477 199.219 163.477 199.512 164.063C191.437 165.969 183.347 167.807 175.253 169.63C174.442 169.813 173.632 169.996 172.821 170.179C171.53 170.47 170.239 170.761 168.947 171.051C168.463 171.16 167.979 171.269 167.495 171.378C166.829 171.529 166.162 171.679 165.495 171.828C165.118 171.913 164.741 171.998 164.352 172.085C163.477 172.266 163.477 172.266 162.891 172.266C162.862 171.944 162.833 171.621 162.804 171.29C162.523 166.999 162.523 166.999 160.47 163.394C159.556 162.67 158.608 162.036 157.617 161.426C157.413 161.299 157.209 161.172 156.999 161.041C150.471 157.024 142.139 152.35 134.18 153.223C133.284 153.476 132.599 153.866 131.836 154.395C131.594 154.562 131.353 154.729 131.104 154.902C128.297 156.994 126.797 159.406 126.106 162.821C125.629 166.32 125.724 170.045 127.35 173.236C129.054 175.216 131.146 176.672 133.301 178.125C132.234 178.744 131.105 178.986 129.913 179.249C129.689 179.3 129.465 179.351 129.234 179.403C128.483 179.573 127.732 179.741 126.981 179.908C126.445 180.029 125.908 180.15 125.372 180.271C123.914 180.6 122.456 180.926 120.997 181.252C119.767 181.528 118.537 181.804 117.307 182.081C106.296 184.557 95.2789 187.003 84.2608 189.447C78.2712 190.776 72.2827 192.11 66.295 193.447C65.2004 193.691 64.1057 193.936 63.011 194.18C61.7361 194.464 60.4613 194.748 59.1866 195.033C58.7226 195.137 58.2586 195.24 57.7945 195.344C55.4549 195.865 53.1213 196.399 50.8008 197C48.5225 197.544 47.2579 196.869 45.3369 195.74C42.2884 194.01 39.1921 192.392 36.0718 190.796C35.6036 190.556 35.1354 190.316 34.6673 190.076C33.5612 189.51 32.4544 188.944 31.3477 188.379C31.3477 185.285 31.3477 182.192 31.3477 179.004C32.5078 179.548 32.5078 179.548 33.6914 180.103C34.0494 180.27 34.0494 180.27 34.4147 180.441C34.6111 180.533 34.8074 180.626 35.0098 180.721C35.2284 180.822 35.4471 180.924 35.6724 181.029C36.1126 181.243 36.547 181.47 36.9747 181.708C37.2801 181.876 37.2801 181.876 37.5916 182.048C37.7717 182.153 37.9518 182.257 38.1374 182.364C38.6885 182.582 38.6885 182.582 39.2794 182.296C40.3373 181.617 41.2041 180.712 42.1165 179.853C42.7734 179.297 42.7734 179.297 43.3594 179.297C43.4787 179.527 43.4787 179.527 43.6004 179.762C45.5738 183.588 45.5738 183.588 47.7654 187.291C48.0469 187.793 48.0469 187.793 48.0469 188.379C48.924 187.613 49.4048 186.719 49.9626 185.705C50.0582 185.532 50.1538 185.359 50.2523 185.181C50.5562 184.63 50.8579 184.078 51.1597 183.527C51.3648 183.155 51.57 182.782 51.7754 182.41C52.7172 180.719 52.7172 180.719 53.6133 179.004C55.1153 179.16 56.2157 179.902 57.4768 180.67C57.6974 180.802 57.918 180.933 58.1454 181.069C59.1033 181.641 60.0529 182.223 60.9947 182.822C61.3743 183.062 61.3743 183.062 61.7615 183.307C61.9748 183.447 62.1882 183.587 62.4081 183.732C63.1456 184.053 63.4132 183.965 64.1602 183.692C64.6206 183.282 64.6206 183.282 65.015 182.751C65.1698 182.557 65.3246 182.362 65.484 182.162C65.6454 181.954 65.8067 181.745 65.9729 181.531C66.3108 181.104 66.6488 180.678 66.9868 180.251C67.2354 179.935 67.2354 179.935 67.489 179.612C68.157 178.766 68.8402 177.933 69.5251 177.1C69.7355 176.843 69.9459 176.586 70.1626 176.322C70.3087 176.143 70.4549 175.965 70.6055 175.781C71.8302 175.954 72.6916 176.371 73.7514 177C74.064 177.184 74.3765 177.368 74.6984 177.558C75.0215 177.751 75.3446 177.944 75.6775 178.143C76.0062 178.338 76.335 178.532 76.6737 178.732C77.4841 179.212 78.2933 179.693 79.1016 180.176C81.3157 177.985 83.3356 175.658 85.2699 173.218C85.8398 172.559 85.8398 172.559 86.7188 171.973C87.0061 172.118 87.2935 172.264 87.5896 172.413C90.3044 173.782 93.0387 175.097 95.8008 176.367C95.8965 176.207 95.9923 176.046 96.091 175.881C99.6099 169.983 99.6099 169.983 101.367 167.285C98.2593 167.804 98.2593 167.804 95.9118 169.695C95.3914 170.612 94.9886 171.568 94.6289 172.559C94.2011 172.279 93.774 171.998 93.3472 171.716C93.1092 171.56 92.8713 171.404 92.6262 171.243C91.9922 170.801 91.9922 170.801 91.4062 170.215C89.4356 170.34 87.5236 170.824 85.6018 171.259C85.0019 171.394 84.4019 171.529 83.8017 171.663C83.5389 171.722 83.2761 171.782 83.0054 171.843C82.3242 171.973 82.3242 171.973 81.4453 171.973C81.3675 172.182 81.2897 172.392 81.2096 172.608C80.8508 173.458 80.4258 174.208 79.9438 174.994C79.786 175.253 79.6281 175.511 79.4655 175.778C79.3454 175.972 79.2253 176.167 79.1016 176.367C77.9425 175.986 77.4575 175.597 76.7212 174.646C76.0617 174.039 75.6109 173.727 74.6987 173.737C73.2316 173.933 71.8158 174.321 70.3939 174.724C69.5159 174.959 68.6256 175.095 67.7307 175.25C66.481 175.571 65.9315 175.941 65.2039 177.008C64.9464 177.474 64.6961 177.944 64.4531 178.418C64.176 178.866 63.8955 179.312 63.6108 179.755C63.4029 180.09 63.1952 180.426 62.9883 180.762C60.789 179.174 60.789 179.174 59.9121 178.143C59.2088 177.425 59.2088 177.425 58.1783 177.592C56.5481 177.845 54.9646 178.295 53.3752 178.729C52.7755 178.892 52.1754 179.055 51.5751 179.216C51.3123 179.288 51.0495 179.359 50.7788 179.433C50.0977 179.59 50.0977 179.59 49.2188 179.59C49.1221 180.073 49.0254 180.557 48.9258 181.055C47.5128 180.867 46.363 180.284 45.0989 179.663C43.5834 178.92 42.11 178.286 40.5029 177.759C39.4206 177.332 39.0453 177.083 38.4247 176.082C38.0565 175.208 37.7508 174.352 37.5 173.438C37.3066 173.438 37.1133 173.438 36.9141 173.438C36.6382 173.813 36.3781 174.199 36.1267 174.591C35.4561 175.512 35.2763 175.744 34.1492 176.093C33.1055 176.074 33.1055 176.074 31.0547 175.781C31.0547 171.914 31.0547 168.047 31.0547 164.063C32.2723 163.541 33.391 163.064 34.6351 162.665C34.9214 162.573 35.2076 162.48 35.5026 162.385C35.809 162.287 36.1154 162.189 36.4311 162.089C36.9194 161.931 36.9194 161.931 37.4176 161.771C38.4823 161.429 39.5475 161.089 40.6128 160.748C41.1676 160.571 41.7225 160.393 42.2773 160.215C47.026 158.693 51.7807 157.192 56.543 155.713C56.81 155.63 57.0771 155.547 57.3522 155.462C59.8604 154.683 62.3696 153.907 64.8813 153.14C65.7765 152.866 66.6713 152.591 67.5659 152.315C68.1712 152.129 68.7772 151.946 69.3832 151.763C69.7367 151.654 70.0902 151.545 70.4544 151.433C70.7617 151.339 71.069 151.246 71.3857 151.149C72.117 150.949 72.117 150.949 72.3633 150.293C72.3945 149.753 72.4088 149.212 72.4148 148.67C72.6108 138.008 72.6108 138.008 76.4946 133.807C79.6601 130.798 83.5772 129.629 87.8906 129.683C92.4434 129.843 96.1865 131.52 99.4881 134.647C100.497 135.234 101.117 134.987 102.246 134.766C103.031 134.739 103.806 134.725 104.59 134.729C104.787 134.728 104.984 134.727 105.187 134.726C106.485 134.728 107.708 134.849 108.984 135.059C109.087 134.696 109.19 134.334 109.296 133.96C111.557 127.301 117.683 122.45 123.798 119.428C124.203 119.233 124.608 119.042 125.016 118.854C126.795 118.02 127.709 117.158 128.469 115.347C128.595 115.052 128.721 114.758 128.85 114.454C128.977 114.147 129.105 113.841 129.236 113.526C129.493 112.918 129.75 112.311 130.007 111.704C130.119 111.435 130.232 111.166 130.347 110.889C130.452 110.648 130.556 110.406 130.664 110.156C130.749 109.937 130.833 109.719 130.92 109.493C131.25 108.985 131.25 108.985 131.813 108.771C132.038 108.74 132.264 108.709 132.496 108.678C132.747 108.642 132.997 108.606 133.256 108.569C133.518 108.537 133.781 108.505 134.052 108.472C134.306 108.435 134.561 108.399 134.823 108.361C136.477 108.136 138.078 108.072 139.746 108.106C139.86 108.37 139.974 108.635 140.091 108.908C140.512 109.887 140.935 110.866 141.357 111.845C141.54 112.269 141.723 112.693 141.905 113.117C142.167 113.726 142.43 114.335 142.693 114.943C142.775 115.134 142.857 115.325 142.941 115.521C143.29 116.42 143.29 116.42 143.848 117.188C143.952 116.993 144.057 116.798 144.165 116.598C149.457 106.766 149.457 106.766 150.293 106.348C150.866 106.283 151.441 106.233 152.016 106.191C152.358 106.166 152.7 106.14 153.052 106.114C153.411 106.088 153.769 106.063 154.138 106.037C154.499 106.01 154.86 105.983 155.231 105.956C156.124 105.89 157.017 105.825 157.91 105.762C158.356 106.519 158.801 107.275 159.247 108.032C159.369 108.24 159.492 108.449 159.618 108.663C160.714 110.525 161.803 112.391 162.891 114.258C163.028 113.98 163.165 113.702 163.307 113.416C163.818 112.382 164.332 111.35 164.845 110.317C165.067 109.87 165.288 109.424 165.509 108.977C165.827 108.333 166.147 107.691 166.467 107.048C166.614 106.75 166.614 106.75 166.764 106.445C168.433 103.106 170.092 103.294 173.693 103.206ZM82.0862 139.765C81.1031 141.085 81.0226 142.245 81.1523 143.848C81.4154 144.835 81.4154 144.835 81.7383 145.606C83.158 145.195 84.3531 144.566 85.6018 143.793C85.792 143.677 85.9822 143.561 86.1781 143.442C87.8368 142.427 89.4804 141.388 91.1133 140.332C90.6135 139.234 90.0546 138.69 89.0625 137.988C86.2847 137.062 84.001 137.595 82.0862 139.765ZM96.698 144.8C96.0867 146.382 95.9329 147.706 96.4233 149.341C97.2257 150.732 98.1212 151.718 99.6094 152.344C100.938 152.555 102.158 152.491 103.363 151.868C104.61 150.939 105.272 150.005 105.762 148.535C105.87 146.89 105.825 145.847 104.883 144.434C103.729 143.267 102.672 142.642 101.019 142.566C99.172 142.587 97.8832 143.424 96.698 144.8Z" fill="black"/>
<path d="M212.036 136.505C218.155 140.388 221.735 149.136 224.414 155.566C224.496 155.763 224.578 155.96 224.663 156.162C225.59 158.414 226.208 160.383 226.211 162.837C226.212 163.315 226.212 163.315 226.213 163.803C226.211 164.136 226.21 164.47 226.208 164.813C226.207 165.155 226.206 165.496 226.204 165.848C226.154 173.094 226.154 173.094 223.938 175.415C221.884 176.987 218.755 177.264 216.291 177.798C215.943 177.874 215.595 177.95 215.237 178.028C214.506 178.188 213.774 178.347 213.043 178.505C211.927 178.747 210.812 178.992 209.697 179.236C208.984 179.392 208.27 179.547 207.557 179.702C207.226 179.775 206.895 179.847 206.553 179.922C204.892 180.281 203.254 180.585 201.562 180.762C201.414 180.06 201.268 179.358 201.123 178.656C201.081 178.459 201.039 178.261 200.996 178.058C200.777 176.99 200.633 175.993 200.684 174.902C200.523 174.938 200.362 174.973 200.196 175.01C199.462 175.171 198.727 175.33 197.992 175.488C197.739 175.544 197.486 175.6 197.225 175.658C196.978 175.71 196.732 175.763 196.478 175.818C196.252 175.867 196.027 175.916 195.794 175.967C195.07 176.082 194.385 176.092 193.652 176.074C193.095 174.045 192.779 172.003 192.48 169.922C193.378 169.324 193.953 169.154 194.992 168.92C195.326 168.844 195.661 168.767 196.005 168.689C196.546 168.568 196.546 168.568 197.098 168.446C197.468 168.362 197.837 168.278 198.218 168.192C199.198 167.97 200.18 167.75 201.161 167.53C202.163 167.306 203.164 167.079 204.165 166.853C206.129 166.409 208.094 165.967 210.059 165.527C209.595 165.201 209.131 164.874 208.667 164.548C208.408 164.366 208.15 164.184 207.884 163.997C206.897 163.316 205.883 162.689 204.858 162.067C203.27 161.084 201.703 160.077 200.171 159.009C200.003 158.895 199.836 158.782 199.663 158.664C198.28 157.684 197.412 156.59 196.875 154.98C196.475 149.299 197.59 144.648 201.379 140.259C204.397 137.033 207.542 135.382 212.036 136.505Z" fill="black"/>
<path d="M139.672 157.013C139.91 157.077 140.148 157.142 140.394 157.208C146.691 159.003 153.201 162.139 158.203 166.406C158.508 166.657 158.508 166.657 158.82 166.912C159.55 167.789 159.531 168.308 159.548 169.44C159.557 169.817 159.566 170.195 159.575 170.584C159.578 170.996 159.581 171.408 159.584 171.82C159.591 172.244 159.598 172.669 159.605 173.094C159.619 173.985 159.629 174.876 159.636 175.767C159.646 176.902 159.664 178.036 159.686 179.171C159.702 180.049 159.713 180.927 159.723 181.806C159.728 182.224 159.734 182.642 159.742 183.059C159.796 186.178 159.611 188.855 157.785 191.463C156.615 192.558 155.105 192.937 153.579 193.277C153.388 193.32 153.198 193.363 153.002 193.407C152.379 193.547 151.755 193.684 151.131 193.821C150.696 193.918 150.26 194.015 149.825 194.113C148.915 194.316 148.006 194.517 147.095 194.717C145.928 194.974 144.762 195.234 143.596 195.495C142.698 195.695 141.8 195.895 140.902 196.094C140.472 196.19 140.042 196.285 139.611 196.381C139.011 196.515 138.411 196.647 137.811 196.779C137.469 196.854 137.128 196.93 136.776 197.007C135.937 197.168 135.937 197.168 135.058 197.168C134.91 196.418 134.764 195.667 134.619 194.916C134.577 194.705 134.535 194.493 134.492 194.276C134.452 194.069 134.412 193.862 134.372 193.649C134.335 193.46 134.298 193.272 134.26 193.077C134.166 192.385 134.167 191.714 134.179 191.016C133.98 191.06 133.78 191.105 133.575 191.15C132.672 191.351 131.768 191.549 130.865 191.748C130.394 191.853 130.394 191.853 129.914 191.96C129.462 192.059 129.462 192.059 129.001 192.16C128.723 192.222 128.445 192.283 128.159 192.346C127.441 192.481 127.441 192.481 126.562 192.481C126.414 191.688 126.268 190.894 126.123 190.1C126.06 189.766 126.06 189.766 125.996 189.425C125.956 189.206 125.916 188.987 125.875 188.761C125.839 188.562 125.802 188.362 125.764 188.157C125.665 187.349 125.678 186.556 125.683 185.742C128.069 185.206 130.455 184.671 132.842 184.138C133.95 183.89 135.058 183.642 136.166 183.393C137.235 183.153 138.305 182.914 139.375 182.675C139.782 182.584 140.19 182.492 140.598 182.4C141.169 182.272 141.741 182.144 142.313 182.017C142.638 181.944 142.963 181.872 143.299 181.797C144.14 181.641 144.14 181.641 145.312 181.641C145.312 181.447 145.312 181.254 145.312 181.055C145.019 180.959 145.019 180.959 144.72 180.861C143.564 180.342 142.615 179.624 141.595 178.876C139.814 177.591 138.004 176.396 136.12 175.269C130.064 171.633 130.064 171.633 129.107 169.263C128.469 166.339 129.287 163.04 130.706 160.48C133.297 156.612 135.268 155.814 139.672 157.013Z" fill="black"/>
</svg>
