<svg width="300" height="300" viewBox="0 0 300 300" fill="none" xmlns="http://www.w3.org/2000/svg">
<path d="M240.821 117.773C241.508 117.658 241.508 117.658 242.38 117.65C242.705 117.646 243.031 117.641 243.366 117.636C243.719 117.636 244.072 117.636 244.436 117.636C244.797 117.634 245.159 117.632 245.531 117.629C246.492 117.625 247.454 117.626 248.415 117.628C249.005 117.627 249.594 117.622 250.184 117.615C251.314 117.602 252.443 117.599 253.573 117.6C253.926 117.595 254.278 117.59 254.641 117.585C254.968 117.588 255.294 117.59 255.631 117.593C256.062 117.592 256.062 117.592 256.503 117.591C257.227 117.773 257.227 117.773 257.704 118.42C258.135 119.296 258.222 119.833 258.237 120.801C258.244 121.111 258.251 121.421 258.258 121.739C258.261 122.076 258.263 122.413 258.266 122.76C258.276 123.295 258.276 123.295 258.285 123.841C258.304 125.023 258.316 126.205 258.326 127.387C258.33 127.795 258.334 128.203 258.338 128.612C258.354 130.313 258.368 132.014 258.376 133.715C258.387 136.144 258.41 138.571 258.453 141C258.482 142.712 258.497 144.424 258.5 146.137C258.503 147.157 258.511 148.177 258.536 149.197C258.695 156.21 258.695 156.21 256.777 158.325C255.993 159.051 255.18 159.65 254.298 160.254C253.874 160.621 253.453 160.993 253.041 161.373C252.861 161.527 252.68 161.68 252.495 161.838C251.464 162.727 250.487 163.675 249.5 164.612C249.062 165.024 248.624 165.435 248.186 165.847C247.475 166.516 246.769 167.189 246.071 167.872C245.825 168.108 245.579 168.343 245.325 168.585C245.122 168.784 244.919 168.983 244.71 169.188C243.334 170.098 241.547 169.958 239.944 169.957C239.749 169.957 239.553 169.958 239.352 169.958C238.702 169.958 238.053 169.957 237.403 169.955C236.935 169.955 236.467 169.955 236 169.955C234.733 169.955 233.467 169.954 232.201 169.952C230.876 169.95 229.552 169.95 228.227 169.949C225.72 169.948 223.214 169.946 220.707 169.943C217.852 169.94 214.998 169.938 212.143 169.937C206.273 169.934 200.402 169.928 194.532 169.922C194.533 170.274 194.535 170.626 194.537 170.988C194.542 172.291 194.545 173.594 194.548 174.897C194.549 175.461 194.551 176.025 194.554 176.59C194.558 177.4 194.559 178.21 194.56 179.02C194.562 179.273 194.564 179.527 194.565 179.788C194.565 181.574 194.565 181.574 194.239 182.227C193.146 182.591 192.127 182.567 190.988 182.571C190.747 182.573 190.505 182.575 190.256 182.577C189.457 182.583 188.657 182.586 187.858 182.589C187.585 182.591 187.312 182.592 187.031 182.593C185.588 182.599 184.145 182.603 182.703 182.606C181.21 182.609 179.717 182.619 178.225 182.631C177.079 182.639 175.933 182.641 174.787 182.642C174.236 182.644 173.686 182.647 173.136 182.652C172.367 182.66 171.598 182.659 170.829 182.657C170.487 182.663 170.487 182.663 170.138 182.669C169.503 182.662 169.503 182.662 168.458 182.52C165.932 179.152 167.579 174.131 167.579 169.922C156.944 169.922 146.309 169.922 135.352 169.922C135.352 173.789 135.352 177.656 135.352 181.641C134.38 182.612 134.087 182.624 132.775 182.642C132.544 182.641 132.313 182.639 132.075 182.638C131.83 182.64 131.586 182.642 131.334 182.644C130.525 182.649 129.716 182.648 128.907 182.647C128.345 182.648 127.784 182.649 127.222 182.651C126.045 182.654 124.868 182.653 123.691 182.65C122.18 182.647 120.67 182.653 119.16 182.661C118 182.667 116.841 182.667 115.681 182.665C115.124 182.665 114.567 182.667 114.01 182.67C113.232 182.675 112.455 182.672 111.677 182.667C111.33 182.671 111.33 182.671 110.976 182.675C109.434 182.654 109.434 182.654 108.778 182.088C108.211 180.98 108.29 179.96 108.313 178.734C108.314 178.482 108.316 178.23 108.317 177.97C108.322 177.167 108.333 176.365 108.344 175.562C108.349 175.016 108.353 174.471 108.356 173.926C108.366 172.591 108.381 171.257 108.399 169.922C108.129 169.923 107.86 169.925 107.582 169.926C100.957 169.964 94.3317 170 87.7067 170.036C84.5027 170.054 81.2987 170.072 78.0946 170.09C75.2955 170.105 72.4964 170.121 69.6972 170.136C68.221 170.144 66.7448 170.152 65.2686 170.161C57.4774 170.205 49.6865 170.224 41.8952 170.215C41.8815 165.651 41.8711 161.088 41.8648 156.524C41.8618 154.405 41.8577 152.286 41.851 150.167C41.8451 148.321 41.8413 146.474 41.84 144.627C41.8393 143.649 41.8372 142.671 41.8332 141.693C41.829 140.602 41.8284 139.51 41.8286 138.419C41.8265 138.094 41.8244 137.77 41.8223 137.435C41.8231 137.138 41.8239 136.841 41.8247 136.534C41.8242 136.276 41.8236 136.018 41.8231 135.752C41.8952 135.059 41.8952 135.059 42.4811 133.887C66.2643 133.742 66.2643 133.742 90.528 133.594C90.6247 130.017 90.7213 126.439 90.8209 122.754C91.111 122.319 91.111 122.319 91.4069 121.875C92.2496 121.779 93.0309 121.741 93.8752 121.739C94.2583 121.733 94.2583 121.733 94.6491 121.727C95.4963 121.715 96.3434 121.71 97.1907 121.705C97.7782 121.698 98.3658 121.691 98.9533 121.684C100.186 121.671 101.419 121.66 102.652 121.651C104.233 121.64 105.814 121.623 107.395 121.603C108.609 121.588 109.822 121.577 111.036 121.566C111.619 121.561 112.202 121.555 112.785 121.548C113.6 121.538 114.415 121.533 115.23 121.528C115.471 121.525 115.713 121.522 115.961 121.518C118.054 121.514 118.054 121.514 118.946 122.168C119.426 123.129 119.274 124.191 119.268 125.246C119.267 125.616 119.267 125.616 119.266 125.993C119.265 126.781 119.261 127.569 119.257 128.357C119.256 128.891 119.254 129.424 119.253 129.958C119.25 131.268 119.245 132.577 119.239 133.887C122.146 133.976 122.146 133.976 124.627 132.683C124.986 132.309 125.338 131.929 125.684 131.543C126.058 131.19 126.435 130.841 126.815 130.495C127.195 130.136 127.575 129.778 127.955 129.419C129.918 127.571 131.893 125.74 133.887 123.926C134.167 123.671 134.446 123.415 134.734 123.152C134.999 122.912 135.263 122.672 135.535 122.424C135.885 122.106 135.885 122.106 136.243 121.781C137.101 121.046 137.612 120.95 138.721 120.941C139.07 120.935 139.07 120.935 139.426 120.929C140.04 120.996 140.04 120.996 140.626 121.582C140.698 122.379 140.735 123.148 140.747 123.946C140.755 124.296 140.755 124.296 140.764 124.653C140.782 125.4 140.795 126.146 140.809 126.892C140.82 127.398 140.831 127.903 140.843 128.408C140.871 129.649 140.896 130.889 140.919 132.129C141.215 131.861 141.215 131.861 141.518 131.588C141.78 131.353 142.041 131.117 142.31 130.875C142.698 130.525 142.698 130.525 143.093 130.169C143.731 129.597 144.373 129.03 145.02 128.467C146.661 127.036 148.273 125.573 149.887 124.112C150.382 123.666 150.877 123.222 151.375 122.779C151.795 122.4 152.208 122.012 152.609 121.612C153.5 120.751 154.081 120.303 155.347 120.264C156.446 120.41 156.446 120.41 157.325 120.996C157.424 121.846 157.468 122.637 157.475 123.489C157.483 123.858 157.483 123.858 157.491 124.235C157.507 125.023 157.517 125.811 157.526 126.599C157.536 127.133 157.546 127.667 157.557 128.2C157.582 129.51 157.601 130.819 157.618 132.129C157.871 131.895 158.125 131.661 158.386 131.42C158.726 131.106 159.066 130.792 159.407 130.478C159.573 130.324 159.739 130.171 159.91 130.013C165.135 125.19 165.135 125.19 166.706 123.858C167.318 123.324 167.318 123.324 167.967 122.629C169.263 121.321 170.092 120.532 171.992 120.52C173.359 120.624 173.359 120.624 173.731 120.996C173.757 121.841 173.765 122.679 173.76 123.524C173.759 123.904 173.759 123.904 173.758 124.291C173.757 125.103 173.753 125.915 173.749 126.727C173.748 127.276 173.747 127.826 173.745 128.375C173.742 129.724 173.737 131.073 173.731 132.422C175.231 131.334 176.635 130.199 177.979 128.925C178.31 128.615 178.642 128.305 178.974 127.995C179.209 127.775 179.209 127.775 179.449 127.551C180.169 126.884 180.909 126.242 181.652 125.6C182.352 124.989 183.04 124.366 183.729 123.743C183.977 123.522 184.226 123.301 184.482 123.073C184.875 122.716 185.262 122.351 185.631 121.968C186.532 121.069 187.224 120.9 188.453 120.868C189.75 120.901 189.75 120.901 190.43 121.582C190.499 122.351 190.533 123.092 190.541 123.862C190.549 124.2 190.549 124.2 190.556 124.545C190.572 125.266 190.584 125.988 190.595 126.709C190.608 127.43 190.622 128.152 190.637 128.873C190.646 129.323 190.654 129.772 190.66 130.221C190.662 131.359 190.662 131.359 191.016 132.422C191.264 132.192 191.512 131.962 191.767 131.725C193.36 130.249 194.953 128.777 196.595 127.356C197.282 126.757 197.957 126.147 198.633 125.537C199.122 125.098 199.61 124.658 200.098 124.219C200.308 124.03 200.517 123.841 200.733 123.647C203.945 120.789 203.945 120.789 205.427 120.557C206.402 120.73 206.752 120.85 207.423 121.582C207.527 122.48 207.559 123.271 207.537 124.167C207.534 124.546 207.534 124.546 207.532 124.932C207.525 125.738 207.511 126.544 207.496 127.35C207.49 127.896 207.485 128.443 207.48 128.989C207.467 130.329 207.447 131.668 207.423 133.008C207.59 133.007 207.758 133.005 207.93 133.004C209.669 132.991 211.409 132.982 213.148 132.976C213.798 132.973 214.447 132.969 215.097 132.964C216.029 132.957 216.962 132.953 217.894 132.951C218.331 132.946 218.331 132.946 218.778 132.941C219.183 132.941 219.183 132.941 219.595 132.941C219.834 132.94 220.072 132.939 220.317 132.937C220.899 133.008 220.899 133.008 221.485 133.594C221.536 134.329 221.553 135.031 221.542 135.766C221.542 135.955 221.541 136.145 221.54 136.34C221.537 137.048 221.529 137.756 221.522 138.464C221.51 140.048 221.497 141.631 221.485 143.262C227.769 143.262 234.053 143.262 240.528 143.262C240.48 141.105 240.431 138.947 240.381 136.725C240.291 132.349 240.201 127.973 240.183 123.596C240.181 123.158 240.178 122.72 240.174 122.282C240.169 121.68 240.168 121.078 240.167 120.477C240.166 120.143 240.165 119.809 240.164 119.466C240.235 118.652 240.235 118.652 240.821 117.773ZM245.508 122.754C245.412 131.068 245.315 139.383 245.215 147.949C244.323 148.172 243.752 148.279 242.868 148.277C242.637 148.278 242.407 148.278 242.169 148.279C241.918 148.278 241.668 148.277 241.409 148.275C241.144 148.276 240.878 148.276 240.604 148.276C239.725 148.275 238.847 148.273 237.969 148.271C237.36 148.27 236.751 148.27 236.142 148.27C234.539 148.268 232.936 148.266 231.333 148.262C229.697 148.259 228.061 148.258 226.425 148.257C223.216 148.253 220.007 148.248 216.798 148.242C216.701 144.858 216.604 141.475 216.505 137.988C211.961 137.892 207.417 137.795 202.735 137.695C202.638 134.988 202.542 132.281 202.442 129.492C201.237 130.095 200.401 130.83 199.439 131.744C199.097 132.065 198.754 132.385 198.411 132.706C198.247 132.86 198.083 133.014 197.913 133.173C197.191 133.846 196.458 134.503 195.699 135.136C195.084 135.658 195.084 135.658 194.445 136.354C192.485 138.267 191.012 138.523 188.385 138.493C187.719 138.46 187.719 138.46 186.622 138.281C185.931 137.245 185.948 136.752 185.914 135.522C185.903 135.155 185.892 134.788 185.88 134.409C185.867 133.833 185.867 133.833 185.853 133.246C185.841 132.855 185.83 132.463 185.818 132.072C185.791 131.115 185.766 130.157 185.743 129.199C184.123 130.364 182.643 131.611 181.202 132.99C180.819 133.351 180.435 133.713 180.052 134.074C179.871 134.245 179.69 134.415 179.504 134.591C178.579 135.457 177.637 136.303 176.661 137.109C176.486 137.26 176.312 137.412 176.132 137.567C175.381 138.059 174.992 138.095 174.103 138.084C173.714 138.082 173.714 138.082 173.317 138.08C173.049 138.074 172.781 138.068 172.504 138.062C172.233 138.06 171.961 138.059 171.681 138.057C169.675 138.033 169.675 138.033 169.337 137.695C169.29 137.067 169.263 136.438 169.244 135.808C169.232 135.426 169.219 135.043 169.207 134.649C169.195 134.243 169.183 133.836 169.172 133.429C169.159 133.021 169.146 132.613 169.133 132.205C169.102 131.203 169.072 130.201 169.044 129.199C168.016 129.589 167.356 129.908 166.608 130.719C165.733 131.634 164.82 132.468 163.861 133.293C163.338 133.752 162.825 134.217 162.316 134.691C162.163 134.833 162.01 134.975 161.852 135.122C161.552 135.402 161.253 135.683 160.954 135.965C158.373 138.365 158.373 138.365 156.65 138.332C156.203 138.298 155.756 138.255 155.311 138.208C154.525 138.136 153.74 138.063 152.93 137.988C152.834 134.895 152.737 131.801 152.637 128.613C150.758 129.992 150.758 129.992 149.122 131.525C148.204 132.468 147.254 133.342 146.256 134.199C145.182 135.135 144.139 136.105 143.092 137.069C141.805 138.206 140.967 138.373 139.307 138.355C139.109 138.357 138.911 138.359 138.706 138.361C137.623 138.357 137.155 138.311 136.231 137.695C136.114 136.939 136.114 136.939 136.102 135.992C136.09 135.484 136.09 135.484 136.078 134.965C136.072 134.431 136.072 134.431 136.066 133.887C136.056 133.185 136.044 132.483 136.029 131.781C136.023 131.313 136.023 131.313 136.018 130.835C136.013 130.03 136.013 130.03 135.352 129.492C135.168 129.68 134.984 129.868 134.794 130.061C133.451 131.418 132.096 132.731 130.644 133.97C129.852 134.674 129.123 135.435 128.394 136.204C128.177 136.406 127.959 136.608 127.735 136.816C127.601 136.968 127.468 137.119 127.33 137.275C125.611 138.932 123.697 138.779 121.45 138.743C120.964 138.73 120.477 138.716 119.99 138.702C119.495 138.696 119 138.691 118.505 138.686C114.907 138.637 114.907 138.637 114.551 138.281C114.504 137.437 114.475 136.598 114.459 135.753C114.453 135.529 114.448 135.305 114.442 135.074C114.422 134.232 114.405 133.391 114.387 132.55C114.344 130.671 114.302 128.792 114.258 126.855C108.264 126.855 102.27 126.855 96.0944 126.855C96.0098 130.068 96.0098 130.068 95.9279 133.28C95.9168 133.685 95.9055 134.09 95.8941 134.494C95.8893 134.702 95.8845 134.91 95.8795 135.123C95.8479 136.202 95.8127 137.242 95.5084 138.281C94.6731 138.699 93.9622 138.616 93.028 138.621C92.733 138.623 92.733 138.623 92.4319 138.625C91.7698 138.629 91.1076 138.632 90.4454 138.634C89.972 138.637 89.4986 138.64 89.0251 138.643C87.7371 138.651 86.4491 138.657 85.161 138.663C83.816 138.67 82.4709 138.678 81.1259 138.685C78.5776 138.7 76.0294 138.713 73.4811 138.726C70.5805 138.74 67.6799 138.756 64.7793 138.773C58.8114 138.806 52.8435 138.837 46.8756 138.867C46.8688 142.012 46.8636 145.158 46.8605 148.303C46.8589 149.763 46.8569 151.224 46.8535 152.684C46.8504 154.094 46.8486 155.503 46.8478 156.912C46.8473 157.45 46.8462 157.988 46.8447 158.525C46.8425 159.279 46.8422 160.032 46.8424 160.785C46.8413 161.007 46.8403 161.229 46.8392 161.458C46.8413 162.559 46.9033 163.578 47.1686 164.648C48.907 164.865 50.5963 164.983 52.3468 164.977C52.7091 164.977 52.7091 164.977 53.0787 164.977C53.8803 164.978 54.6818 164.976 55.4834 164.975C56.061 164.975 56.6387 164.975 57.2164 164.975C58.7791 164.975 60.3417 164.973 61.9044 164.971C63.5396 164.969 65.1748 164.969 66.81 164.969C69.9039 164.968 72.9979 164.965 76.0918 164.963C79.6153 164.959 83.1387 164.958 86.6621 164.956C93.9078 164.953 101.153 164.948 108.399 164.941C108.41 164.558 108.41 164.558 108.421 164.166C108.449 163.22 108.478 162.274 108.508 161.328C108.521 160.918 108.533 160.507 108.545 160.097C108.562 159.509 108.58 158.921 108.599 158.332C108.615 157.801 108.615 157.801 108.632 157.259C108.692 156.445 108.692 156.445 108.985 156.152C109.674 156.131 110.364 156.128 111.054 156.134C111.621 156.138 111.621 156.138 112.2 156.142C112.492 156.145 112.785 156.149 113.087 156.152C113.091 156.548 113.091 156.548 113.096 156.951C113.124 159.43 113.154 161.909 113.186 164.388C113.202 165.663 113.218 166.937 113.232 168.212C113.246 169.441 113.262 170.67 113.278 171.899C113.284 172.369 113.289 172.839 113.294 173.309C113.301 173.965 113.31 174.621 113.319 175.277C113.324 175.651 113.329 176.025 113.333 176.41C113.285 177.216 113.285 177.216 113.673 177.539C114.194 177.567 114.717 177.573 115.239 177.572C115.578 177.572 115.917 177.572 116.266 177.572C116.805 177.57 116.805 177.57 117.354 177.568C117.682 177.567 118.01 177.567 118.348 177.567C119.579 177.565 120.81 177.561 122.04 177.557C124.79 177.551 127.539 177.545 130.372 177.539C130.468 170.675 130.565 163.811 130.665 156.738C131.429 156.356 132.009 156.406 132.862 156.409C133.149 156.408 133.436 156.407 133.732 156.406C134.473 156.445 134.473 156.445 135.059 156.738C135.156 159.349 135.253 161.959 135.352 164.648C145.987 164.648 156.622 164.648 167.579 164.648C167.675 161.651 167.772 158.654 167.872 155.566C169.322 155.566 170.772 155.566 172.266 155.566C172.363 162.817 172.46 170.068 172.559 177.539C178.224 177.539 183.892 177.492 189.551 177.246C189.648 169.898 189.745 162.551 189.844 154.98C191.295 154.98 192.745 154.98 194.239 154.98C194.336 158.171 194.432 161.361 194.532 164.648C200.68 164.701 206.827 164.745 212.975 164.77C215.829 164.782 218.684 164.798 221.539 164.825C224.027 164.849 226.515 164.864 229.004 164.869C230.321 164.872 231.638 164.879 232.955 164.896C234.196 164.912 235.437 164.917 236.678 164.914C237.132 164.914 237.587 164.919 238.041 164.928C240.512 165.023 240.512 165.023 242.756 164.145C243.343 163.562 243.832 162.959 244.337 162.305C244.726 161.948 245.122 161.599 245.527 161.261C246.467 160.452 247.341 159.6 248.209 158.716C248.92 158.017 249.673 157.372 250.434 156.729C250.645 156.539 250.857 156.348 251.075 156.152C251.241 156.043 251.407 155.933 251.579 155.82C252.62 155.018 253.071 154.402 253.308 153.092C253.396 151.795 253.364 150.5 253.336 149.201C253.333 148.712 253.331 148.223 253.33 147.734C253.323 146.443 253.305 145.153 253.284 143.863C253.265 142.582 253.259 141.301 253.252 140.02C253.212 134.26 253.058 128.509 252.833 122.754C250.416 122.754 247.999 122.754 245.508 122.754Z" fill="black"/>
<path d="M57.7141 147.656C58.4262 148.232 58.966 148.913 59.5269 149.634C59.7498 149.907 59.7498 149.907 59.9772 150.185C60.629 150.987 61.2615 151.8 61.8855 152.623C62.141 152.92 62.141 152.92 62.4016 153.223C62.595 153.223 62.7883 153.223 62.9876 153.223C63.4081 152.756 63.8074 152.27 64.1961 151.776C64.4317 151.484 64.6674 151.193 64.9102 150.893C65.3595 150.331 65.8055 149.767 66.2468 149.199C66.4402 148.962 66.6336 148.724 66.8328 148.48C67.0027 148.264 67.1727 148.049 67.3478 147.827C67.968 147.363 67.968 147.363 68.9717 147.201C70.3075 147.408 70.6495 147.816 71.502 148.846C71.7493 149.139 71.9967 149.432 72.2515 149.734C72.4815 150.015 72.7115 150.296 72.9485 150.586C73.3018 150.983 73.6556 151.38 74.0105 151.776C74.7063 152.637 74.7063 152.637 74.7063 153.223C74.9963 153.223 75.2864 153.223 75.5852 153.223C75.6555 153.059 75.7257 152.896 75.7981 152.727C76.2523 151.904 76.8136 151.293 77.4529 150.604C78.1442 149.856 78.8123 149.115 79.4419 148.314C80.1005 147.508 80.3561 147.394 81.3805 147.244C82.6482 147.404 83.1556 148.039 83.9348 148.975C84.1432 149.213 84.1432 149.213 84.3558 149.457C85.4009 150.666 86.377 151.92 87.304 153.223C88.6475 152.126 89.8014 150.995 90.9272 149.677C92.583 147.752 92.583 147.752 93.7493 147.363C94.5 147.51 94.5 147.51 95.2141 147.949C95.7255 149.216 95.9735 150.399 95.8001 151.758C95.0249 153.049 94.102 154.147 93.0718 155.237C92.7854 155.544 92.4993 155.851 92.2135 156.158C92.0754 156.306 91.9372 156.455 91.7949 156.607C91.1099 157.353 90.456 158.125 89.8045 158.9C89.301 159.432 88.7954 159.852 88.1829 160.254C87.166 160.254 86.7997 160.039 86.0634 159.335C85.796 159.058 85.5287 158.781 85.2532 158.496C84.9284 158.17 84.603 157.845 84.277 157.52C83.3329 156.576 82.3887 155.632 81.4446 154.687C79.9358 155.2 79.1974 156.625 78.3186 157.868C77.3524 159.168 76.594 159.852 74.9993 160.254C73.5569 159.754 72.5617 158.416 71.5569 157.306C71.3843 157.119 71.2117 156.932 71.0339 156.74C69.7695 155.361 69.7695 155.361 69.4329 154.687C68.4659 154.852 68.067 155.081 67.4828 155.865C67.3465 156.044 67.2101 156.223 67.0697 156.407C66.8618 156.689 66.8618 156.689 66.6497 156.976C64.7202 159.544 64.7202 159.544 63.8665 160.254C62.6471 160.276 62.0434 160.173 61.1428 159.334C60.8814 159.057 60.6201 158.781 60.3508 158.496C60.0264 158.17 59.701 157.844 59.3747 157.52C57.9584 156.104 57.9585 156.104 56.5422 154.687C55.5202 155.681 54.5965 156.708 53.7041 157.819C51.9932 159.944 51.9932 159.944 51.0278 160.064C49.5819 159.904 48.9635 159.195 47.9971 158.161C47.0186 156.636 47.1819 155.105 47.2954 153.351C47.3073 152.999 47.3192 152.648 47.3315 152.286C47.3623 151.425 47.4055 150.567 47.4602 149.707C48.6953 150.711 49.6955 151.681 50.6829 152.93C52.1174 151.374 53.5065 149.825 54.7284 148.094C55.5718 147.035 56.5148 147.342 57.7141 147.656Z" fill="black"/>
<path d="M107.885 130.865C109.214 131.983 109.887 132.994 110.156 134.71C110.252 136.316 109.893 137.542 108.984 138.867C107.919 139.993 106.736 140.564 105.189 140.663C103.894 140.581 102.774 140.213 101.793 139.346C100.565 137.952 100.044 136.665 100.104 134.8C100.342 133.172 101.081 131.956 102.392 130.975C104.166 129.786 106.029 129.902 107.885 130.865Z" fill="black"/>
</svg>
