<svg width="300" height="300" viewBox="0 0 300 300" fill="none" xmlns="http://www.w3.org/2000/svg">
<path d="M99.5419 115.969C101.734 115.902 103.28 116.072 105.176 117.188C105.38 117.302 105.584 117.416 105.795 117.534C106.457 117.913 107.107 118.308 107.758 118.707C108.001 118.855 108.244 119.003 108.495 119.155C109.037 119.484 109.579 119.814 110.121 120.145C111.142 120.769 112.166 121.39 113.189 122.01C114.931 123.066 116.672 124.124 118.412 125.182C118.821 125.431 118.821 125.431 119.238 125.684C119.496 125.85 119.754 126.017 120.02 126.188C121.058 126.757 121.623 126.584 122.754 126.27C123.695 125.77 124.566 125.183 125.446 124.585C128.772 122.405 131.63 121.021 135.678 120.906C135.98 120.897 135.98 120.897 136.287 120.888C136.95 120.87 137.613 120.853 138.276 120.836C138.508 120.83 138.739 120.824 138.978 120.818C144.436 120.675 149.895 120.639 155.355 120.623C155.606 120.622 155.857 120.622 156.116 120.621C158.497 120.613 160.878 120.607 163.26 120.603C166.264 120.598 169.268 120.589 172.272 120.572C174.411 120.561 176.55 120.555 178.69 120.553C179.958 120.552 181.225 120.549 182.493 120.539C183.68 120.53 184.866 120.529 186.052 120.532C186.484 120.532 186.915 120.53 187.347 120.525C191.045 120.483 194.203 121.319 197.223 123.505C197.59 123.759 197.956 124.013 198.323 124.267C198.608 124.467 198.608 124.467 198.899 124.671C200.031 125.459 201.183 126.219 202.332 126.984C202.665 127.207 202.665 127.207 203.005 127.435C203.216 127.576 203.426 127.716 203.643 127.861C203.828 127.985 204.014 128.11 204.205 128.237C204.492 128.423 204.492 128.423 204.785 128.613C204.989 128.764 205.192 128.914 205.401 129.07C206.505 129.619 207.487 129.612 208.693 129.599C208.938 129.6 209.183 129.601 209.435 129.602C210.256 129.604 211.076 129.6 211.897 129.596C212.486 129.596 213.074 129.597 213.663 129.598C214.93 129.599 216.198 129.598 217.465 129.595C219.469 129.59 221.473 129.592 223.478 129.596C228.817 129.605 234.156 129.604 239.495 129.599C243.002 129.595 246.51 129.596 250.018 129.604C252.01 129.609 254.002 129.607 255.994 129.599C257.234 129.596 258.473 129.6 259.713 129.604C260.288 129.605 260.862 129.604 261.437 129.6C262.222 129.594 263.007 129.598 263.792 129.604C264.019 129.6 264.245 129.596 264.479 129.593C266.126 129.619 267.161 130.117 268.36 131.25C269.394 132.765 269.643 134.588 270.007 136.359C270.071 136.655 270.134 136.951 270.2 137.256C271.657 144.153 271.879 151.847 268.195 158.101C263.129 165.712 253.164 168.945 244.611 170.746C237.006 172.259 229.287 172.892 221.542 172.883C220.795 172.883 220.048 172.885 219.301 172.889C219.052 172.89 218.804 172.892 218.547 172.893C218.041 172.896 217.535 172.898 217.03 172.901C215.74 172.907 214.452 172.905 213.163 172.888C211.89 172.871 210.619 172.876 209.346 172.896C208.869 172.899 208.391 172.895 207.913 172.882C205.349 172.773 205.349 172.773 203.13 173.874C202.241 174.935 201.573 176.098 200.947 177.327C200.619 177.957 200.232 178.53 199.819 179.107C199.479 179.59 199.14 180.074 198.807 180.562C197.826 181.951 196.762 183.143 195.117 183.691C192.847 183.886 191.077 183.717 189.002 182.785C187.872 182.304 187.071 182.346 185.932 182.785C185.67 182.891 185.408 182.997 185.138 183.106C182.289 184.188 179.863 183.894 177.096 182.764C175.531 182.239 174.198 182.74 172.687 183.27C170.83 183.916 169.334 183.83 167.534 183.077C165.838 182.249 164.899 180.944 164.063 179.297C163.777 178.419 163.73 177.618 163.733 176.697C163.732 176.456 163.732 176.215 163.731 175.967C163.774 175.107 163.916 174.285 164.063 173.438C161.74 173.356 159.418 173.293 157.094 173.255C156.015 173.237 154.937 173.212 153.858 173.172C152.815 173.134 151.773 173.113 150.729 173.104C150.142 173.094 149.554 173.067 148.967 173.039C147.328 173.038 146.315 173.05 145.084 174.198C144.388 175.063 143.825 175.998 143.262 176.953C142.949 177.393 142.632 177.829 142.307 178.26C141.885 178.836 141.464 179.412 141.047 179.992C139.916 181.526 138.669 183.074 136.817 183.691C134.526 183.871 132.731 183.832 130.687 182.764C129.437 182.262 128.121 182.537 126.899 183.032C126.722 183.111 126.544 183.189 126.361 183.27C123.732 184.328 121 183.81 118.475 182.763C117.135 182.298 116.053 182.707 114.752 183.124C112.692 183.648 110.831 183.693 108.951 182.618C107.472 181.57 106.307 180.471 105.762 178.711C105.684 177.861 105.684 177.861 105.689 176.971C105.687 176.679 105.686 176.386 105.684 176.085C105.768 175.126 106.031 174.343 106.348 173.438C105.775 173.441 105.775 173.441 105.19 173.444C96.1208 173.492 87.0519 173.538 77.9829 173.579C76.867 173.585 75.7511 173.59 74.6352 173.595C74.413 173.596 74.1909 173.597 73.962 173.598C70.3634 173.615 66.7649 173.634 63.1663 173.653C59.4747 173.673 55.7831 173.691 52.0914 173.707C49.813 173.717 47.5345 173.728 45.256 173.742C43.5098 173.752 41.7635 173.76 40.0172 173.766C39.3002 173.769 38.5832 173.773 37.8662 173.778C36.8891 173.784 35.9121 173.788 34.935 173.79C34.5071 173.794 34.5071 173.794 34.0705 173.798C32.4135 173.798 31.115 173.791 29.883 172.559C29.0908 168.999 28.288 163.829 30.2687 160.58C31.8163 158.637 33.5529 157.15 36.0079 156.617C38.3555 156.381 40.4619 157.747 42.4806 158.789C42.799 158.424 42.799 158.424 43.1238 158.051C43.4098 157.729 43.6959 157.408 43.9821 157.086C44.1211 156.926 44.2601 156.766 44.4033 156.6C45.3212 155.577 46.1274 154.842 47.4611 154.395C49.2974 154.422 50.5313 154.959 52.0937 155.878C53.4924 156.744 53.4924 156.744 55.0783 157.031C55.5686 156.505 55.5686 156.505 56.0305 155.823C57.0975 154.386 58.4765 152.566 60.3506 152.243C62.3755 152.114 63.511 152.694 65.1445 153.86C65.9565 154.421 66.7856 154.85 67.676 155.273C67.9094 155.012 68.1427 154.751 68.3832 154.482C68.6967 154.135 69.0102 153.789 69.3239 153.442C69.4769 153.271 69.6298 153.099 69.7874 152.922C71.1749 151.397 72.5559 150.117 74.6855 149.954C76.6432 150.102 77.9797 151.394 79.2356 152.787C79.6995 153.297 79.6995 153.297 80.5666 153.516C80.7796 153.282 80.7796 153.282 80.9969 153.044C83.4578 150.451 83.4578 150.451 85.2541 150C86.2731 149.996 87.1718 150.124 88.1838 150.293C88.1838 149.23 88.1838 148.166 88.1838 147.07C87.9647 147.212 87.7457 147.353 87.52 147.498C87.2315 147.683 86.943 147.868 86.6457 148.059C86.3602 148.243 86.0747 148.426 85.7805 148.615C84.2984 149.53 83.2191 149.958 81.4455 149.707C79.5236 149.121 78.0919 147.741 76.6161 146.434C75.8729 145.784 75.8729 145.784 74.7072 145.898C74.1258 146.36 74.1258 146.36 73.5903 146.979C72.0711 148.577 70.5566 149.978 68.2619 150.147C66.3566 150.122 65.0629 149.036 63.5744 147.949C63.2704 147.732 62.9664 147.515 62.6531 147.291C61.8813 146.735 61.1146 146.174 60.3517 145.606C58.9723 146.779 57.6188 147.975 56.2834 149.199C55.2861 150.017 54.5053 150.38 53.2106 150.403C52.9969 150.411 52.7831 150.42 52.5629 150.428C50.6361 150.06 48.9429 148.209 47.4714 146.961C46.8922 146.476 46.8922 146.476 45.9963 145.898C44.7604 146.037 44.243 146.71 43.4145 147.601C40.8404 150.228 40.8404 150.228 39.1939 150.335C36.3155 150.158 34.5226 148.062 32.5197 146.191C32.1838 145.884 32.1838 145.884 31.8411 145.571C31.636 145.377 31.4309 145.183 31.2197 144.983C31.0388 144.813 30.8579 144.643 30.6715 144.468C29.2723 142.717 29.1602 140.998 29.1597 138.839C29.1564 138.42 29.1564 138.42 29.153 137.993C29.1498 137.406 29.149 136.819 29.1503 136.231C29.1506 135.335 29.1383 134.439 29.1254 133.543C29.1239 132.97 29.1231 132.398 29.1231 131.826C29.1183 131.559 29.1135 131.293 29.1085 131.018C29.1113 130.767 29.114 130.516 29.1168 130.257C29.1162 130.038 29.1156 129.819 29.115 129.593C29.4045 128.501 29.82 127.762 30.7619 127.148C32.0166 126.884 33.2553 126.912 34.5336 126.927C35.1091 126.923 35.1091 126.923 35.6963 126.919C36.748 126.912 37.7995 126.915 38.8512 126.921C39.9566 126.925 41.0619 126.918 42.1673 126.913C44.2656 126.904 46.3637 126.905 48.462 126.908C51.5245 126.913 54.587 126.904 57.6495 126.896C58.105 126.895 58.5605 126.893 59.0161 126.892C59.239 126.892 59.4619 126.891 59.6915 126.89C61.2118 126.887 62.7321 126.887 64.2524 126.888C69.0547 126.899 69.0547 126.899 73.8549 126.78C74.2136 126.767 74.5723 126.754 74.9419 126.74C76.7555 126.397 77.9495 125.146 79.2482 123.908C81.0142 122.252 82.8835 120.758 84.8062 119.289C85.1946 118.991 85.5789 118.688 85.9625 118.383C86.2553 118.154 86.2553 118.154 86.5541 117.92C86.7109 117.796 86.8676 117.672 87.0291 117.545C89.2713 116.137 91.3048 116.152 93.915 116.107C94.2906 116.097 94.6661 116.087 95.0531 116.077C95.8082 116.058 96.5634 116.044 97.3186 116.034C98.0599 116.022 98.8011 116 99.5419 115.969ZM87.1767 123.669C86.9052 123.903 86.6336 124.136 86.3539 124.377C85.3536 125.271 84.356 126.167 83.3635 127.07C79.2656 130.721 76.5296 132.215 71.0211 132.218C70.6257 132.22 70.2304 132.222 69.835 132.225C68.9891 132.231 68.1432 132.234 67.2972 132.236C65.9604 132.24 64.6236 132.247 63.2869 132.255C61.1748 132.267 59.0627 132.277 56.9507 132.285C53.1611 132.3 49.3715 132.318 45.5819 132.339C44.2518 132.347 42.9218 132.352 41.5917 132.357C40.7675 132.36 39.9432 132.364 39.119 132.368C38.5519 132.371 37.9848 132.372 37.4178 132.373C37.0834 132.375 36.7491 132.377 36.4047 132.38C36.1124 132.381 35.8201 132.382 35.519 132.383C34.8719 132.349 34.8719 132.349 34.5705 132.715C34.4962 133.646 34.5162 134.582 34.5156 135.516C34.512 135.775 34.5084 136.033 34.5047 136.3C34.5006 138.125 34.4978 140.011 35.6108 141.544C35.7811 141.694 35.9514 141.844 36.1269 141.998C36.3074 142.163 36.4879 142.328 36.6739 142.497C36.8499 142.653 37.0259 142.808 37.2072 142.969C37.4962 143.254 37.7834 143.54 38.0678 143.829C38.2672 144.029 38.4666 144.228 38.6721 144.434C40.0515 143.26 41.405 142.064 42.7404 140.84C43.8237 139.951 44.7587 139.559 46.1908 139.599C48.5289 140.103 50.5043 142.071 52.1852 143.671C52.7377 144.203 52.7377 144.203 53.6135 144.434C53.8899 144.147 53.8899 144.147 54.1719 143.855C58.2541 139.686 58.2541 139.686 60.1503 139.508C62.8047 139.705 65 141.925 66.8337 143.671C67.3862 144.203 67.3862 144.203 68.2619 144.434C68.5164 144.193 68.771 143.953 69.0332 143.706C69.3742 143.387 69.7152 143.068 70.0563 142.749C70.2233 142.591 70.3902 142.433 70.5622 142.271C73.5411 139.495 73.5411 139.495 75.5861 139.453C77.2126 140.023 78.3126 140.81 79.5778 141.962C81.0599 143.381 81.0599 143.381 82.9103 144.141C83.6841 143.779 83.6841 143.779 84.4118 143.152C84.6928 142.935 84.9738 142.718 85.2632 142.494C85.8312 142.039 86.3988 141.583 86.9661 141.127C88.4047 140.014 89.5732 139.118 91.4419 139.071C91.9924 139.16 91.9924 139.16 92.7248 139.636C93.4523 140.788 93.494 141.978 93.5267 143.316C93.5344 143.611 93.5421 143.907 93.5501 144.211C93.5568 144.526 93.5636 144.842 93.5705 145.167C93.5817 145.657 93.5817 145.657 93.5932 146.157C93.6084 146.847 93.6229 147.537 93.6367 148.227C93.6586 149.283 93.6851 150.339 93.7118 151.396C93.7261 152.066 93.74 152.737 93.7536 153.407C93.7664 153.881 93.7664 153.881 93.7794 154.365C93.7844 154.659 93.7893 154.954 93.7945 155.257C93.8001 155.515 93.8057 155.774 93.8115 156.04C93.7438 156.811 93.5966 157.269 93.1642 157.91C92.0252 158.29 91.6828 158.022 90.6008 157.544C90.2881 157.409 89.9754 157.274 89.6532 157.134C89.1417 156.905 88.6313 156.673 88.1243 156.434C87.1816 155.984 87.1816 155.984 86.1593 155.895C85.0173 156.375 84.3625 157.459 83.589 158.394C82.7327 159.262 82.0312 159.617 80.8184 159.723C78.5266 159.519 77.0618 158.352 75.3298 156.921C74.7215 156.356 74.7215 156.356 73.8283 156.445C73.2712 157.038 73.2712 157.038 72.7297 157.8C70.3491 160.853 70.3491 160.853 68.8536 161.31C66.6518 161.523 64.7855 160.206 62.9885 159.082C62.7819 158.909 62.5753 158.735 62.3625 158.557C61.844 158.152 61.844 158.152 61.2375 158.199C60.3704 158.634 59.9481 159.266 59.363 160.034C57.365 162.533 57.365 162.533 56.2502 163.184C54.0689 163.36 52.4015 162.363 50.5363 161.34C50.0098 161.056 49.4685 160.799 48.926 160.547C47.6453 160.974 47.1488 162 46.4077 163.069C45.2755 164.651 45.2755 164.651 44.2385 164.941C42.2028 165.169 41.0529 164.626 39.3312 163.586C38.9019 163.328 38.4702 163.074 38.0358 162.824C37.8482 162.711 37.6606 162.597 37.4673 162.48C36.8996 162.238 36.8996 162.238 36.29 162.532C35.6162 162.973 35.2673 163.364 34.8635 164.063C34.747 164.781 34.747 164.781 34.7902 165.527C34.7947 165.775 34.7993 166.023 34.804 166.278C34.8592 166.941 34.9875 167.523 35.1564 168.164C63.1104 168.224 63.1104 168.224 91.0634 168.045C91.8725 168.036 92.6815 168.027 93.4906 168.019C98.1761 167.967 102.861 167.901 107.545 167.751C107.847 167.743 108.15 167.734 108.462 167.725C110.62 167.646 112.716 167.358 114.844 166.992C113.674 165.616 113.674 165.616 112.468 164.27C112.261 164.044 112.054 163.819 111.841 163.586C111.549 163.273 111.549 163.273 111.25 162.952C110.425 161.901 110.146 161.133 110.193 159.796C110.476 158.686 110.661 158.24 111.621 157.617C112.588 157.582 113.176 157.74 113.922 158.365C114.538 158.988 115.131 159.627 115.723 160.272C118.629 163.298 121.286 165.212 125.524 165.946C126.27 166.113 126.27 166.113 126.856 166.699C127.053 168.737 127.053 168.737 126.437 169.694C125.304 170.477 124.247 170.375 122.901 170.38C118.622 170.498 115.349 171.226 112.329 174.405C111.805 175.034 111.502 175.565 111.328 176.367C111.413 177.024 111.413 177.024 111.621 177.539C112.492 177.798 112.931 177.9 113.777 177.53C114.008 177.388 114.24 177.246 114.478 177.1C115.74 176.432 116.556 176.193 117.962 176.447C119.066 176.788 120.084 177.29 121.124 177.785C122.304 178.319 123.27 178.64 124.534 178.212C125.221 177.91 125.892 177.584 126.563 177.246C128.388 176.328 129.68 175.87 131.702 176.389C132.705 176.767 133.583 177.286 134.471 177.882C135.054 178.202 135.054 178.202 135.632 177.907C136.262 177.52 136.586 177.182 137.021 176.59C137.163 176.4 137.304 176.21 137.45 176.014C137.671 175.709 137.671 175.709 137.897 175.397C138.05 175.187 138.203 174.978 138.361 174.762C138.673 174.332 138.985 173.902 139.295 173.471C139.709 172.903 140.133 172.344 140.562 171.787C140.803 171.465 141.044 171.142 141.284 170.819C141.497 170.539 141.71 170.258 141.93 169.969C142.822 168.146 142.475 166.366 141.863 164.493C141.749 164.171 141.749 164.171 141.632 163.843C141.553 163.615 141.474 163.387 141.392 163.152C139.575 158.09 136.829 154.342 131.914 151.955C130.574 151.37 129.215 150.879 127.825 150.429C127.586 150.352 127.348 150.274 127.102 150.195C126.627 150.043 126.151 149.894 125.674 149.749C123.99 149.217 123.99 149.217 123.34 148.242C123.163 147.082 123.246 146.624 123.908 145.642C125.123 144.799 126 144.884 127.442 145.02C128.428 145.212 129.376 145.487 130.335 145.789C130.592 145.868 130.849 145.948 131.114 146.03C134.353 147.071 136.898 148.64 139.453 150.879C139.676 151.067 139.9 151.256 140.13 151.45C144.045 155.013 145.979 160.488 147.12 165.529C147.172 165.755 147.224 165.982 147.278 166.216C147.405 166.768 147.531 167.319 147.656 167.871C150.486 167.878 153.315 167.883 156.145 167.886C157.459 167.888 158.773 167.89 160.087 167.893C161.356 167.896 162.624 167.898 163.893 167.899C164.377 167.899 164.86 167.901 165.343 167.902C166.022 167.904 166.7 167.905 167.379 167.904C167.958 167.905 167.958 167.905 168.548 167.906C169.622 167.871 170.622 167.751 171.68 167.578C171.426 167.288 171.172 166.998 170.911 166.699C167.851 163.106 166.191 159.703 166.461 154.879C166.587 154.011 166.762 153.189 166.992 152.344C167.091 151.981 167.091 151.981 167.191 151.61C168.589 147.464 171.744 144.738 175.488 142.749C178.352 141.382 181.224 140.877 184.379 140.859C184.72 140.856 184.72 140.856 185.067 140.853C185.544 140.851 186.021 140.849 186.498 140.848C187.225 140.845 187.951 140.836 188.677 140.826C189.143 140.825 189.608 140.823 190.074 140.822C190.289 140.818 190.504 140.815 190.726 140.811C192.113 140.817 193.068 141.047 194.238 141.797C194.696 142.621 194.696 142.621 194.824 143.555C194.395 144.729 194.114 145.2 193.067 145.898C192.333 145.935 191.634 145.938 190.902 145.915C190.459 145.907 190.016 145.9 189.573 145.893C188.882 145.878 188.19 145.862 187.499 145.842C182.601 145.71 178.09 146.25 174.291 149.672C172.138 151.921 171.499 154.327 171.542 157.393C171.639 159.558 172.201 160.875 173.749 162.36C176.254 164.294 179.141 164.957 182.176 165.616C182.434 165.672 182.693 165.729 182.959 165.787C183.308 165.861 183.308 165.861 183.664 165.936C184.278 166.113 184.278 166.113 185.156 166.699C185.431 167.67 185.431 167.67 185.449 168.75C184.973 169.592 184.973 169.592 184.278 170.215C183.303 170.474 182.378 170.546 181.373 170.559C177.116 170.593 177.116 170.593 173.145 171.973C172.949 172.078 172.753 172.184 172.551 172.293C171.188 173.146 170.251 174.297 169.629 175.781C169.521 176.515 169.551 177.087 169.629 177.832C170.452 178.209 170.452 178.209 171.034 177.928C171.223 177.824 171.412 177.72 171.607 177.612C171.814 177.505 172.022 177.397 172.236 177.286C172.776 176.994 173.309 176.691 173.841 176.386C175.784 175.816 177.446 176.761 179.205 177.594C180.733 178.281 181.796 178.386 183.408 177.805C184.496 177.359 185.569 176.893 186.621 176.367C188.984 176.033 190.592 176.586 192.647 177.741C193.31 178.171 193.31 178.171 193.945 178.125C194.438 177.524 194.438 177.524 194.943 176.746C195.137 176.459 195.331 176.172 195.53 175.877C195.733 175.573 195.935 175.27 196.143 174.957C196.345 174.657 196.547 174.357 196.755 174.048C197.285 173.26 197.813 172.47 198.34 171.68C198.533 171.39 198.727 171.1 198.926 170.801C199.173 168.894 198.797 166.916 198.521 165.031C198.438 164.435 198.355 163.838 198.272 163.242C198.142 162.313 198.01 161.384 197.875 160.455C197.745 159.552 197.62 158.648 197.495 157.743C197.454 157.467 197.413 157.191 197.37 156.907C197.153 155.303 197.139 154.147 197.754 152.637C198.589 151.895 199.018 151.758 200.134 151.758C201.226 152.137 201.353 152.491 201.856 153.516C202.093 154.45 202.093 154.45 202.277 155.566C202.311 155.773 202.346 155.979 202.381 156.191C202.811 158.834 203.157 161.491 203.509 164.146C203.556 164.501 203.604 164.857 203.652 165.223C203.694 165.543 203.736 165.862 203.78 166.192C203.888 167.017 203.888 167.017 204.199 167.871C234.946 169.289 234.946 169.289 261.914 157.617C265.495 153.625 265.984 148.953 265.775 143.783C265.612 141.237 265.207 138.721 264.387 136.303C264.308 136.069 264.229 135.835 264.147 135.594C264.087 135.417 264.027 135.241 263.965 135.059C263.535 135.057 263.535 135.057 263.096 135.056C256.113 135.032 249.129 135.005 242.145 134.974C238.768 134.96 235.39 134.946 232.013 134.935C229.068 134.925 226.124 134.914 223.179 134.9C221.621 134.892 220.062 134.886 218.504 134.882C217.035 134.878 215.566 134.872 214.098 134.863C213.561 134.86 213.024 134.859 212.486 134.858C206.807 134.851 203.08 133.994 198.442 130.614C194.887 128.031 191.588 125.941 187.05 125.939C186.677 125.939 186.304 125.938 185.919 125.937C185.511 125.937 185.102 125.938 184.694 125.939C184.259 125.938 183.825 125.938 183.391 125.937C182.213 125.936 181.035 125.936 179.858 125.937C178.616 125.938 177.375 125.937 176.133 125.937C174.042 125.936 171.951 125.937 169.86 125.938C167.464 125.94 165.068 125.94 162.672 125.938C160.602 125.937 158.531 125.936 156.46 125.937C155.23 125.938 154 125.938 152.769 125.937C148.154 125.934 143.543 125.948 138.93 126.107C138.433 126.124 138.433 126.124 137.926 126.142C133.515 126.315 130.506 127.361 126.856 129.785C126.252 130.177 125.648 130.568 125.043 130.957C124.797 131.12 124.551 131.283 124.298 131.451C123.096 132.147 121.781 132.385 120.41 132.129C118.653 131.426 117.055 130.481 115.466 129.46C113.517 128.21 111.529 127.03 109.536 125.852C108.908 125.48 108.28 125.108 107.652 124.736C107.247 124.495 106.841 124.254 106.435 124.014C106.25 123.905 106.066 123.795 105.876 123.683C105.522 123.474 105.168 123.266 104.812 123.06C104.468 122.856 104.129 122.642 103.795 122.42C102.412 121.534 101.355 121.413 99.7675 121.437C99.536 121.436 99.3046 121.436 99.0661 121.435C98.5791 121.436 98.0921 121.439 97.6051 121.445C96.867 121.454 96.1294 121.451 95.3913 121.448C92.2527 121.451 89.6534 121.513 87.1767 123.669Z" fill="black"/>
<path d="M100.049 124.072C101.484 125.508 102.137 127.236 102.338 129.236C102.179 131.202 101.574 132.962 100.122 134.345C99.0342 135.159 98.0394 135.502 96.6796 135.352C94.8658 134.826 93.6169 133.678 92.578 132.129C91.9601 130.275 91.9365 127.925 92.7428 126.123C94.3954 123.424 97.1579 122.833 100.049 124.072Z" fill="black"/>
</svg>
