<svg width="300" height="300" viewBox="0 0 300 300" fill="none" xmlns="http://www.w3.org/2000/svg">
<path d="M150.136 84.9135C150.528 84.9122 150.92 84.9107 151.313 84.9091C152.371 84.9053 153.43 84.9034 154.489 84.9021C155.154 84.9012 155.819 84.9 156.483 84.8987C158.572 84.8947 160.66 84.8919 162.749 84.8907C165.143 84.8894 167.537 84.8843 169.931 84.8758C171.792 84.8694 173.653 84.8665 175.515 84.8661C176.621 84.8658 177.727 84.8642 178.834 84.8589C188.656 84.8145 197.558 85.7687 205.371 92.285C205.782 92.6237 205.782 92.6237 206.201 92.9693C212.176 98.1333 215.473 105.329 216.504 113.086C216.612 114.57 216.62 116.044 216.61 117.531C216.61 117.957 216.611 118.383 216.612 118.808C216.614 119.964 216.611 121.119 216.606 122.274C216.602 123.525 216.604 124.777 216.604 126.028C216.605 128.191 216.602 130.354 216.597 132.517C216.59 135.644 216.588 138.771 216.587 141.899C216.585 146.974 216.579 152.049 216.571 157.124C216.562 162.051 216.556 166.978 216.552 171.905C216.552 172.209 216.552 172.513 216.552 172.827C216.551 174.353 216.55 175.879 216.548 177.405C216.539 190.047 216.524 202.69 216.504 215.332C215.25 215.354 213.995 215.37 212.74 215.38C212.315 215.384 211.891 215.39 211.466 215.398C205.164 215.51 199.033 214.158 194.312 209.692C190.075 205.221 188.517 199.511 188.572 193.472C188.572 193.097 188.572 192.722 188.572 192.336C188.572 191.322 188.577 190.309 188.583 189.295C188.589 188.23 188.589 187.166 188.59 186.101C188.593 184.091 188.6 182.082 188.609 180.072C188.619 177.781 188.624 175.491 188.628 173.2C188.637 168.494 188.653 163.788 188.672 159.082C185.772 159.227 185.772 159.227 182.813 159.375C178.752 159.181 174.692 158.988 170.508 158.789C170.508 177.448 170.508 196.107 170.508 215.332C157.456 215.332 144.405 215.332 130.957 215.332C130.957 205.567 130.957 195.803 130.957 185.742C126.607 185.742 122.256 185.742 117.774 185.742C117.774 195.507 117.774 205.271 117.774 215.332C106.462 215.332 95.1507 215.332 83.4964 215.332C83.464 204.25 83.437 193.168 83.4216 182.086C83.4198 180.774 83.4179 179.463 83.4159 178.151C83.4156 177.89 83.4152 177.629 83.4148 177.36C83.4084 173.145 83.3969 168.931 83.3834 164.716C83.3696 160.385 83.3615 156.053 83.3586 151.721C83.3566 149.053 83.3503 146.385 83.3383 143.717C83.3305 141.881 83.3283 140.046 83.3301 138.211C83.3311 137.155 83.3298 136.1 83.3218 135.045C83.2261 121.707 87.7893 110.638 96.68 100.781C96.9768 100.452 96.9768 100.452 97.2797 100.116C104.605 92.4304 115.262 87.5662 125.629 85.8946C125.932 85.8455 125.932 85.8455 126.242 85.7954C130.276 85.2117 134.345 85.2181 138.41 85.2537C139.325 85.2616 140.24 85.2674 141.155 85.272C141.358 85.2744 141.56 85.2769 141.768 85.2794C142.768 85.2843 143.706 85.2346 144.701 85.1084C146.511 84.9016 148.317 84.9152 150.136 84.9135ZM135.154 97.4279C134.501 98.1328 133.893 98.8526 133.301 99.6092C133.059 99.9088 133.059 99.9088 132.812 100.215C131.836 101.538 131.19 102.973 130.591 104.498C130.519 104.677 130.447 104.856 130.372 105.04C129.156 108.331 129.111 111.907 129.122 115.372C129.121 115.776 129.121 116.179 129.12 116.582C129.119 117.421 129.12 118.259 129.123 119.098C129.126 120.158 129.124 121.218 129.121 122.279C129.096 131.392 129.654 139.371 136.32 146.308C144.088 153.77 153.63 152.344 164.063 152.344C164.063 132.234 164.063 112.125 164.063 91.406C148.078 90.5753 148.078 90.5753 135.154 97.4279ZM170.801 91.699C170.794 97.8758 170.789 104.052 170.786 110.229C170.784 113.099 170.782 115.968 170.779 118.837C170.776 121.345 170.774 123.852 170.774 126.36C170.773 127.681 170.772 129.003 170.77 130.325C170.77 130.579 170.769 130.834 170.769 131.096C170.768 131.559 170.767 132.021 170.766 132.484C170.757 139.112 170.928 145.713 171.094 152.344C179.215 152.344 187.336 152.344 195.703 152.344C195.69 155.665 195.676 158.987 195.662 162.41C195.656 164.517 195.651 166.623 195.646 168.73C195.639 172.073 195.631 175.416 195.615 178.758C195.603 181.193 195.596 183.628 195.593 186.063C195.592 187.351 195.588 188.639 195.58 189.927C195.572 191.142 195.569 192.357 195.571 193.572C195.571 194.015 195.568 194.459 195.564 194.902C195.528 198.626 196.005 201.974 198.633 204.785C201.223 207.405 204.482 208.495 208.113 208.764C208.424 208.788 208.736 208.812 209.056 208.836C209.407 208.861 209.407 208.861 209.766 208.887C209.787 191.601 209.789 174.316 209.766 157.031C209.766 156.742 209.765 156.453 209.765 156.156C209.756 149.388 209.742 142.62 209.712 135.852C209.709 135.35 209.707 134.849 209.705 134.347C209.704 134.101 209.703 133.855 209.702 133.601C209.694 131.876 209.69 130.151 209.687 128.426C209.683 126.328 209.675 124.23 209.662 122.133C209.656 121.071 209.651 120.009 209.651 118.948C209.657 111.508 209.657 111.508 207.257 104.535C207.159 104.344 207.06 104.152 206.958 103.956C204.033 98.5544 198.963 94.6449 193.158 92.761C190.046 91.84 186.962 91.6142 183.733 91.6418C183.175 91.643 183.175 91.643 182.605 91.6443C181.628 91.647 180.652 91.6522 179.675 91.6588C178.673 91.6648 177.671 91.6675 176.67 91.6704C174.713 91.6768 172.757 91.6866 170.801 91.699ZM105.762 101.367C105.602 101.491 105.441 101.615 105.276 101.742C103.87 102.829 103.87 102.829 102.539 104.004C102.539 104.197 102.539 104.39 102.539 104.59C102.346 104.59 102.153 104.59 101.953 104.59C101.953 104.783 101.953 104.976 101.953 105.176C101.76 105.176 101.567 105.176 101.367 105.176C101.367 105.369 101.367 105.562 101.367 105.762C101.174 105.762 100.981 105.762 100.782 105.762C100.26 106.348 99.7766 106.935 99.2984 107.556C99.1546 107.742 99.0107 107.928 98.8625 108.12C91.9583 117.171 88.7675 127.693 90.2896 139.05C91.6048 147.875 96.1322 156.22 103.294 161.661C113.33 168.871 125.835 167.663 137.696 167.871C137.792 181.309 137.889 194.748 137.989 208.594C146.4 208.594 154.811 208.594 163.477 208.594C163.477 192.158 163.477 175.722 163.477 158.789C158.256 158.692 153.035 158.596 147.657 158.496C138.886 156.188 131.63 152.392 126.922 144.412C123.709 138.75 122.713 132.797 122.695 126.362C122.693 126.056 122.693 126.056 122.692 125.743C122.688 124.66 122.685 123.577 122.684 122.493C122.683 121.61 122.678 120.726 122.672 119.842C122.597 109.73 123.663 100.357 131.055 92.7542C131.216 92.5993 131.377 92.4445 131.543 92.285C122.193 91.7749 113.036 95.7006 105.762 101.367ZM90.5277 157.324C90.2944 163.362 90.1898 169.391 90.1953 175.433C90.1961 176.536 90.1954 177.64 90.1949 178.743C90.1944 180.585 90.1951 182.426 90.1965 184.268C90.1981 186.392 90.1976 188.516 90.196 190.639C90.1946 192.481 90.1944 194.322 90.1952 196.163C90.1957 197.255 90.1957 198.348 90.1948 199.44C90.1938 200.65 90.1951 201.859 90.1968 203.069C90.1962 203.426 90.1956 203.784 90.195 204.152C90.1958 204.482 90.1966 204.811 90.1975 205.151C90.1976 205.435 90.1977 205.72 90.1978 206.013C90.2254 206.997 90.2254 206.997 90.5277 208.594C97.1986 208.594 103.869 208.594 110.742 208.594C110.742 198.829 110.742 189.064 110.742 179.004C117.413 179.004 124.084 179.004 130.957 179.004C130.957 177.554 130.957 176.103 130.957 174.609C130.243 174.577 129.528 174.545 128.792 174.512C116.991 173.961 105.527 172.557 96.6377 163.95C96.1406 163.412 96.1406 163.412 95.5081 163.476C95.4073 163.235 95.4073 163.235 95.3044 162.989C94.8132 162.109 94.1851 161.462 93.494 160.73C92.6993 159.888 91.9615 159.07 91.331 158.1C91.1626 157.844 90.9942 157.588 90.8206 157.324C90.7239 157.324 90.6273 157.324 90.5277 157.324Z" fill="black"/>
<path d="M189.844 120.41C190.243 120.664 190.243 120.664 190.65 120.923C191.978 122.251 192.801 124.132 192.865 126.013C192.833 127.837 192.291 129.292 191.085 130.669C189.468 132.184 187.952 132.893 185.761 133.136C183.619 133.043 181.629 131.892 180.176 130.371C179.057 128.614 178.69 126.863 179.004 124.805C179.598 122.659 180.843 120.926 182.778 119.796C185.245 118.724 187.614 118.973 189.844 120.41Z" fill="black"/>
</svg>
