<svg width="300" height="300" viewBox="0 0 300 300" fill="none" xmlns="http://www.w3.org/2000/svg">
<path d="M140.332 60.6445C144.573 64.7822 145.283 72.1261 145.386 77.7465C145.315 81.4834 144.969 85.0487 143.903 88.6413C143.833 88.8746 143.764 89.1078 143.693 89.3482C143.382 90.329 143.096 91.2075 142.537 92.0781C141.807 93.2286 141.447 93.9452 141.647 95.3247C141.989 96.461 142.387 97.5545 142.822 98.6572C143.104 99.4048 143.38 100.155 143.655 100.905C143.724 101.088 143.792 101.272 143.862 101.461C145.83 106.88 145.954 112.438 145.02 118.066C144.977 118.354 144.935 118.643 144.891 118.94C144.593 120.831 144.021 122.467 143.262 124.219C143.04 124.767 142.821 125.317 142.603 125.867C142.432 126.294 142.261 126.721 142.09 127.148C141.896 127.148 141.703 127.148 141.504 127.148C141.76 128.446 142.493 129.209 143.335 130.188C145.467 132.747 147.091 135.58 148.727 138.472C149.142 139.196 149.569 139.911 150 140.625C149.979 140.286 149.958 139.947 149.936 139.598C148.885 121.384 151.629 103.033 163.477 88.4765C163.622 88.296 163.767 88.1155 163.917 87.9296C168.489 82.2952 173.996 77.9736 180.469 74.707C180.78 74.5484 180.78 74.5484 181.097 74.3867C192.227 68.8154 205.438 67.9217 217.255 71.7819C221.404 73.216 225.122 75.1222 228.516 77.9296C228.684 78.0688 228.853 78.208 229.026 78.3515C236.93 84.9139 242.014 92.3748 243.107 102.871C243.227 104.632 243.23 106.395 243.234 108.158C243.237 108.848 243.246 109.536 243.256 110.225C243.283 114.149 242.808 117.889 241.406 121.582C241.286 121.931 241.166 122.279 241.042 122.638C239.809 126.164 238.192 130.002 235.547 132.715C235.354 132.715 235.16 132.715 234.961 132.715C234.961 132.908 234.961 133.101 234.961 133.301C234.768 133.301 234.574 133.301 234.375 133.301C234.29 133.488 234.206 133.675 234.119 133.868C233.789 134.473 233.789 134.473 233.203 134.766C233.01 134.959 232.816 135.152 232.617 135.351C231.026 136.431 229.403 137.513 227.637 138.281C227.371 138.398 227.371 138.398 227.1 138.517C223.142 140.059 218.895 139.564 215.039 137.988C215.126 138.169 215.213 138.35 215.302 138.537C216.156 140.317 217.007 142.098 217.857 143.88C218.19 144.577 218.525 145.272 218.86 145.967C222.245 153.061 224.359 160.406 225.586 168.164C225.68 168.722 225.68 168.722 225.776 169.291C226.622 174.631 226.542 180.059 226.465 185.449C226.46 185.825 226.455 186.201 226.45 186.589C226.21 192.041 224.84 197.541 223.147 202.708C222.862 203.59 222.606 204.481 222.345 205.371C220.888 210.053 218.561 214.403 216.084 218.615C215.599 219.42 215.599 219.42 215.332 220.312C215.139 220.312 214.945 220.312 214.746 220.312C214.642 220.609 214.642 220.609 214.536 220.911C214.069 221.987 213.476 222.936 212.842 223.92C212.724 224.109 212.605 224.298 212.484 224.492C212.18 224.966 211.853 225.424 211.523 225.879C211.33 225.879 211.137 225.879 210.938 225.879C210.919 226.048 210.901 226.217 210.883 226.392C210.645 227.051 210.645 227.051 209.966 227.592C209.195 228.21 208.674 228.81 208.081 229.596C207.05 230.922 205.933 232.095 204.722 233.258C204.178 233.756 204.178 233.756 203.906 234.375C203.713 234.375 203.52 234.375 203.32 234.375C203.23 234.629 203.23 234.629 203.137 234.888C202.587 235.787 201.857 236.149 200.977 236.719C200.723 236.972 200.469 237.226 200.208 237.488C199.576 238.119 199.117 238.381 198.34 238.769C198.243 239.06 198.146 239.35 198.047 239.648C196.259 241.012 192.991 243.164 190.723 243.164C190.723 243.454 190.723 243.744 190.723 244.043C190.995 244.315 190.995 244.315 191.272 244.592C191.958 245.278 192.267 245.733 192.48 246.68C192.147 247.308 192.147 247.308 191.602 247.851C190.901 247.956 190.901 247.956 190.063 247.906C188.766 247.863 187.512 247.876 186.218 247.98C181.012 248.346 175.79 248.43 170.573 248.5C170.191 248.506 169.808 248.511 169.414 248.517C168.835 248.525 168.835 248.525 168.245 248.534C167.954 248.538 167.954 248.538 167.658 248.542C166.677 248.556 165.696 248.568 164.716 248.578C163.602 248.589 162.489 248.604 161.375 248.619C160.864 248.623 160.864 248.623 160.343 248.627C160.031 248.632 159.719 248.637 159.397 248.642C159.123 248.645 158.849 248.648 158.567 248.651C157.851 248.669 157.851 248.669 157.324 249.316C157.324 249.026 157.324 248.736 157.324 248.437C157.161 248.445 156.998 248.453 156.829 248.462C152.811 248.656 148.794 248.812 144.771 248.903C144.493 248.91 144.214 248.916 143.928 248.922C137.431 249.065 130.939 248.997 124.442 248.908C121.512 248.869 118.581 248.836 115.651 248.804C115.323 248.8 114.996 248.796 114.659 248.793C109.938 248.74 105.218 248.72 100.496 248.73C100.062 248.731 100.062 248.731 99.6195 248.732C96.8758 248.737 94.1321 248.746 91.3885 248.763C82.5985 248.814 82.5985 248.814 78.7903 248.491C78.4112 248.461 78.4112 248.461 78.0245 248.429C76.7202 248.294 75.7698 248.095 74.707 247.266C73.8246 245.942 73.9614 244.716 74.1211 243.164C74.9622 239.725 77.266 236.506 80.2734 234.668C82.954 233.172 85.7933 232.805 88.8245 232.837C89.0889 232.838 89.3533 232.839 89.6258 232.84C91.9146 232.869 94.1316 233.108 96.3867 233.496C96.2024 233.18 96.0181 232.864 95.8282 232.538C90.3508 223.006 86.5049 211.457 89.1403 200.418C89.4203 199.239 89.5427 198.081 89.6484 196.875C89.4675 196.853 89.2866 196.831 89.1003 196.809C86.1573 196.352 83.8948 194.783 82.0312 192.48C78.9832 188.087 77.3578 183.705 78.0556 178.326C78.8506 174.008 80.9105 170.369 83.0383 166.589C85.7592 161.745 87.7654 157.067 89.2878 151.726C89.8877 149.626 90.5627 147.601 91.3946 145.58C91.7056 144.709 91.868 143.884 91.9922 142.969C91.6041 142.926 91.6041 142.926 91.2083 142.882C87.0217 142.36 83.6661 141.307 80.9509 137.942C79.9765 136.574 79.4092 135.288 79.1382 133.63C79.0294 132.971 79.0294 132.971 78.8086 132.422C77.9909 132.068 77.9909 132.068 77.0508 131.836C76.0338 130.885 75.2466 129.724 74.4141 128.613C70.293 129.938 66.2305 131.353 62.2211 132.989C61.9168 133.111 61.6126 133.232 61.2991 133.357C61.0309 133.466 60.7627 133.575 60.4863 133.688C59.7142 133.901 59.3361 133.866 58.5938 133.594C60.4906 132.238 62.4386 131.197 64.563 130.243C65.019 130.036 65.019 130.036 65.4842 129.824C68.2177 128.599 70.998 127.54 73.8281 126.562C73.8281 126.079 73.8281 125.596 73.8281 125.098C68.6193 125.713 63.4393 126.368 58.2844 127.352C57.7148 127.441 57.7148 127.441 56.8359 127.441C56.9326 127.151 57.0293 126.861 57.1289 126.562C62.1339 124.104 68.6106 123.424 74.1211 123.34C74.1498 122.995 74.1785 122.651 74.2081 122.296C74.3661 121.04 74.7774 120.072 75.3662 118.945C75.4577 118.769 75.5491 118.592 75.6433 118.41C76.3412 117.079 77.1188 115.815 77.9297 114.551C78.0264 114.261 78.123 113.971 78.2227 113.672C77.981 113.611 77.7393 113.551 77.4902 113.489C75.7381 112.8 73.9941 111.674 73.1335 109.933C72.5413 107.826 72.644 105.555 73.5535 103.564C74.5269 101.883 75.854 100.678 77.6367 99.9023C79.4359 99.6986 80.2546 100.177 81.7383 101.074C81.7337 100.897 81.7291 100.72 81.7243 100.538C81.5755 93.9506 82.5568 89.7198 87.0117 84.6679C87.2051 84.4745 87.3984 84.2812 87.5977 84.082C87.7652 83.3032 87.7652 83.3032 87.8597 82.3825C87.9031 82.0325 87.9465 81.6824 87.9912 81.3218C88.0366 80.9456 88.0819 80.5694 88.1287 80.1818C88.9481 73.787 90.0085 65.856 94.6289 60.9374C95.3604 60.3825 95.8096 60.3508 96.7346 60.2782C98.463 60.5972 99.5013 62.2479 100.488 63.5741C102.489 66.6415 104.063 70.2229 104.022 73.9196C104.02 74.2327 104.017 74.5458 104.014 74.8683C104.009 75.2235 104.009 75.2235 104.004 75.5859C104.165 75.5608 104.325 75.5357 104.491 75.5098C111.672 74.394 117.968 74.1284 125.098 75.8788C125.197 75.6092 125.297 75.3395 125.4 75.0617C126.889 71.1335 128.738 67.622 131.543 64.4531C131.708 64.2638 131.873 64.0746 132.043 63.8797C134.014 61.7613 137.399 59.1143 140.332 60.6445ZM138.281 65.039C138.281 65.2324 138.281 65.4257 138.281 65.6249C138.061 65.6967 137.841 65.7684 137.614 65.8424C135.659 66.7455 134.334 69.2227 133.594 71.1913C132.423 75.1199 131.581 79.5586 133.557 83.3495C133.948 83.9981 134.344 84.6261 134.766 85.2538C134.902 85.4584 135.038 85.6629 135.178 85.8737C136.094 87.2441 137.034 88.5969 137.988 89.9413C139.11 88.9888 139.484 88.0904 139.929 86.7004C140.048 86.3405 140.166 85.9806 140.289 85.6097C141.086 82.8382 141.316 80.1474 141.302 77.2704C141.301 76.9224 141.3 76.5744 141.299 76.2159C141.252 72.6067 140.833 68.89 139.16 65.6249C138.87 65.4316 138.58 65.2382 138.281 65.039ZM96.6797 65.332C95.6159 66.7126 95.1087 68.0804 94.6289 69.7448C94.5546 69.9969 94.4804 70.2489 94.4039 70.5086C93.0639 75.1755 93.0639 75.1755 92.5781 79.9804C93.5228 79.7796 94.3296 79.4442 95.2 79.0282C95.4724 78.8983 95.7449 78.7684 96.0257 78.6346C96.308 78.4986 96.5903 78.3627 96.8811 78.2226C97.1668 78.0866 97.4525 77.9507 97.7468 77.8106C99.0555 77.2655 99.0555 77.2655 100.195 76.4648C100.561 72.2682 99.696 68.6672 96.9727 65.332C96.876 65.332 96.7793 65.332 96.6797 65.332ZM109.57 83.2031C109.57 83.3964 109.57 83.5898 109.57 83.789C109.377 83.789 109.184 83.789 108.984 83.789C108.984 83.9824 108.984 84.1757 108.984 84.3749C108.809 84.4535 108.634 84.532 108.453 84.613C107.813 84.9606 107.398 85.282 106.934 85.8398C106.934 86.0331 106.934 86.2265 106.934 86.4257C106.746 86.5043 106.559 86.5828 106.366 86.6637C105.665 86.9784 105.665 86.9784 105.469 87.8906C105.275 87.8906 105.082 87.8906 104.883 87.8906C104.61 88.2839 104.341 88.6798 104.087 89.0853C103.476 89.9995 102.765 90.8353 102.068 91.6843C101.578 92.2853 101.578 92.2853 101.66 93.164C101.467 93.164 101.273 93.164 101.074 93.164C100.535 94.1272 99.9987 95.092 99.4629 96.0571C99.3092 96.3316 99.1555 96.6062 98.9971 96.889C98.8517 97.1515 98.7063 97.414 98.5565 97.6844C98.4215 97.9268 98.2865 98.1692 98.1474 98.419C97.8086 98.9989 97.8086 98.9989 97.8516 99.6093C97.6582 99.6093 97.4648 99.6093 97.2656 99.6093C97.2656 99.8027 97.2656 99.996 97.2656 100.195C95.9464 99.8271 95.0557 99.3633 94.043 98.4374C93.6251 97.6017 93.674 97.0251 93.75 96.0937C94.0454 95.3775 94.3438 94.7493 94.7205 94.0795C94.876 93.7964 94.876 93.7964 95.0347 93.5076C97.5788 88.9834 100.821 84.9883 104.297 81.1523C102.893 80.6295 101.929 81.2674 100.628 81.8435C94.7219 84.6306 89.5378 88.1126 86.4258 94.0429C86.0664 95.1013 86.1129 96.1049 86.1351 97.2152C86.1411 97.6146 86.1467 98.014 86.1521 98.4135C86.1552 98.6209 86.1582 98.8284 86.1614 99.0422C86.2559 106.576 84.6983 112.05 80.658 118.433C79.0918 120.921 77.7935 123.542 78.2227 126.562C78.6791 127.876 79.1048 128.713 80.2734 129.492C81.6489 129.647 82.2841 129.702 83.4595 128.961C84.3369 127.645 84.8171 126.404 84.668 124.805C84.1493 124.113 83.6263 123.69 82.9147 123.204C82.257 122.703 82.0249 122.35 81.7383 121.582C81.6284 120.538 81.6284 120.538 81.7383 119.531C83.1409 118.216 84.9397 118.067 86.7954 118.065C91.1005 118.31 91.1005 118.31 92.4694 119.735C93.1969 120.746 93.5693 121.57 93.4753 122.827C93.1382 124.017 92.9191 124.325 91.9922 125.098C91.1087 125.532 91.1087 125.532 90.1611 125.903C89.8454 126.029 89.5297 126.154 89.2044 126.283C88.9642 126.375 88.724 126.467 88.4766 126.562C88.3799 127.529 88.2832 128.496 88.1836 129.492C90.1106 130.678 91.7865 131.051 94.043 130.664C95.9683 129.844 97.0573 128.098 98.1857 126.413C99.524 124.622 101.237 124.339 103.37 124.003C105.521 123.74 107.7 123.797 109.863 123.816C110.128 123.817 110.393 123.818 110.666 123.819C115.896 123.844 120.929 124.224 125.977 125.684C126.367 125.783 126.757 125.881 127.148 125.976C127.148 126.267 127.148 126.557 127.148 126.855C126.784 126.795 126.42 126.735 126.044 126.673C125.552 126.594 125.059 126.514 124.567 126.434C124.328 126.395 124.09 126.355 123.844 126.315C120.66 125.803 117.528 125.636 114.304 125.645C113.692 125.647 113.08 125.645 112.469 125.643C110.122 125.642 107.804 125.734 105.469 125.976C105.469 126.073 105.469 126.17 105.469 126.269C105.706 126.297 105.942 126.325 106.186 126.354C112.628 127.121 119.004 128.003 125.244 129.84C125.493 129.913 125.742 129.986 125.999 130.062C126.583 130.243 127.16 130.451 127.734 130.664C127.831 130.857 127.928 131.051 128.027 131.25C127.826 131.21 127.624 131.17 127.416 131.129C125.083 130.671 122.748 130.223 120.41 129.785C120.027 129.713 120.027 129.713 119.635 129.639C113.834 128.565 107.849 128.155 101.953 128.32C101.801 128.617 101.649 128.914 101.492 129.22C101.286 129.616 101.079 130.012 100.873 130.408C100.773 130.603 100.674 130.797 100.571 130.998C98.8769 134.228 98.8769 134.228 97.2656 134.766C97.2656 134.959 97.2656 135.152 97.2656 135.351C93.7273 135.768 90.577 135.769 87.5977 133.594C86.8469 132.77 86.8469 132.77 86.4258 132.129C86.2324 132.226 86.0391 132.322 85.8398 132.422C85.9849 132.712 85.9849 132.712 86.1328 133.008C85.9092 133.044 85.6857 133.08 85.4553 133.118C84.6086 133.266 84.6086 133.266 83.7891 133.887C83.9286 135.142 84.631 135.709 85.5469 136.523C93.5642 142.384 108.41 140.123 117.698 138.748C122.268 137.975 126.939 136.058 130.664 133.301C130.937 133.099 131.21 132.897 131.491 132.69C135.889 129.27 138.943 124.225 140.625 118.945C140.764 118.544 140.764 118.544 140.907 118.135C143.889 108.338 137.843 98.3413 133.405 90.0058C133.136 89.5026 133.136 89.5026 132.861 88.9892C132.689 88.6667 132.517 88.3443 132.34 88.0121C132.095 87.5599 132.095 87.5599 131.845 87.0986C131.63 86.7014 131.63 86.7014 131.411 86.2961C130.508 84.8049 129.735 83.9519 128.137 83.2397C126.9 82.6581 125.813 82.0372 124.713 81.2255C119.795 77.6985 113.812 79.6069 109.57 83.2031ZM189.258 93.164C189.03 93.3464 188.803 93.5288 188.569 93.7167C188.101 94.1018 187.651 94.509 187.207 94.9218C187.207 95.1152 187.207 95.3085 187.207 95.5077C187.034 95.5814 186.861 95.655 186.683 95.7309C185.954 96.139 185.572 96.5653 185.046 97.2106C184.415 97.961 183.805 98.6212 183.032 99.2248C182.229 99.9005 181.822 100.442 181.348 101.367C181.233 101.591 181.118 101.814 181 102.045C180.921 102.208 180.843 102.371 180.762 102.539C180.568 102.539 180.375 102.539 180.176 102.539C180.176 102.829 180.176 103.119 180.176 103.418C179.982 103.418 179.789 103.418 179.59 103.418C179.055 104.123 179.055 104.123 178.528 104.993C178.343 105.285 178.158 105.577 177.967 105.878C177.491 106.58 177.491 106.58 177.539 107.226C177.249 107.372 177.249 107.372 176.953 107.519C176.579 108.112 176.231 108.702 175.891 109.314C175.788 109.497 175.686 109.681 175.58 109.87C175.364 110.258 175.148 110.647 174.933 111.036C174.624 111.594 174.31 112.15 173.996 112.706C171.54 116.93 171.54 116.93 170.508 121.582C170.314 121.582 170.121 121.582 169.922 121.582C166.346 134.718 164.946 147.297 166.992 160.84C167.034 161.131 167.075 161.421 167.118 161.721C167.836 166.242 170.378 170.022 172.705 173.877C173.146 174.609 173.585 175.341 174.023 176.074C174.191 176.355 174.191 176.355 174.362 176.641C178.253 183.204 181.087 190.747 181.094 198.462C181.094 198.663 181.094 198.864 181.095 199.071C181.096 199.725 181.094 200.378 181.091 201.031C181.091 201.258 181.09 201.485 181.089 201.719C181.084 203.327 181.071 204.935 181.055 206.543C181.051 206.916 181.047 207.289 181.044 207.673C180.984 212.077 180.67 216.429 180.212 220.807C180.189 221.036 180.165 221.266 180.14 221.503C179.854 224.233 179.492 226.939 179.01 229.642C178.579 232.081 178.395 234.534 178.418 237.012C181.173 235.28 183.385 232.769 185.449 230.273C185.635 230.049 185.635 230.049 185.825 229.821C197.495 215.713 205.855 197.69 206.027 179.134C206.03 178.875 206.033 178.615 206.035 178.347C206.112 169.525 205.24 161.077 203.921 152.372C201.832 138.587 201.666 122.822 210.352 111.035C212.834 107.882 215.933 104.786 220.02 104.004C223.529 103.752 226.339 104.155 229.154 106.395C231.403 108.667 232.297 111.602 232.416 114.716C232.38 117.573 231.678 120.211 229.652 122.29C228.841 122.973 227.99 123.437 227.051 123.926C226.954 124.119 226.857 124.312 226.758 124.512C224.654 125.108 222.498 125.348 220.312 125.391C220.216 125.294 220.119 125.197 220.02 125.098C219.423 124.995 218.825 124.906 218.225 124.823C217.133 124.665 216.088 124.509 215.039 124.164C214.116 123.914 213.601 123.944 212.695 124.219C212.102 126.048 212.826 127.528 213.574 129.199C214.302 130.466 215.141 131.43 216.211 132.422C216.428 132.627 216.646 132.833 216.87 133.044C218.874 134.411 221.144 134.82 223.535 134.473C225.439 133.879 227.226 133.059 228.809 131.836C228.981 131.709 229.153 131.582 229.33 131.451C235.207 126.788 237.636 118.76 238.594 111.622C239.432 103.719 238.154 94.9439 233.152 88.5509C232.975 88.333 232.799 88.1151 232.617 87.8906C232.394 87.5824 232.17 87.2742 231.94 86.9567C228.417 83.2706 224.074 82.1301 219.13 81.9453C207.782 81.7114 197.975 86.0329 189.258 93.164ZM77.0508 101.66C76.2964 101.956 76.2964 101.956 75.5859 102.539C75.2702 103.553 75.2702 103.553 75.293 104.59C75.583 105.025 75.583 105.025 75.8789 105.469C76.787 105.585 77.3795 105.614 78.186 105.157C78.7157 104.245 78.6624 103.566 78.5156 102.539C77.8205 101.951 77.8205 101.951 77.0508 101.66ZM217.968 110.518C215.359 112.825 214.218 115.461 212.988 118.652C215.539 120.345 219.072 120.458 222.037 119.981C223.871 119.558 225.249 118.946 226.465 117.48C227.483 115.806 227.596 114.118 227.344 112.207C226.923 110.951 226.339 109.823 225.293 108.984C222.823 108.207 219.978 108.998 217.968 110.518ZM138.574 132.422C138.074 132.897 137.586 133.387 137.109 133.887C137.109 134.08 137.109 134.273 137.109 134.473C136.935 134.552 136.76 134.63 136.581 134.712C135.937 135.059 135.539 135.408 135.022 135.919C131.198 139.305 126.398 141.414 121.579 142.958C120.964 143.211 120.964 143.211 120.708 143.77C120.701 144.745 121.077 145.396 121.509 146.265C122.788 148.86 123.499 150.799 123.468 153.717C123.466 154.001 123.464 154.286 123.463 154.579C123.413 156.861 123.041 158.719 122.168 160.84C122.046 161.194 122.046 161.194 121.922 161.555C120.587 165.288 118.448 168.559 115.806 171.483C115.132 172.202 115.132 172.202 114.824 172.92C114.462 173.605 114.073 173.697 113.379 174.023C112.918 174.434 112.467 174.857 112.024 175.287C109.985 177.177 107.732 178.738 105.467 180.343C104.366 181.132 103.302 181.965 102.246 182.812C102.004 182.994 101.763 183.176 101.514 183.364C99.2203 185.306 98.488 187.698 98.172 190.582C98.1457 191.557 98.2391 192.407 98.4375 193.359C99.153 192.644 99.2544 192.111 99.5361 191.144C100.234 189.005 101.046 187.005 103.107 185.889C104.175 185.445 105.183 185.179 106.348 185.156C106.915 185.467 106.915 185.467 107.227 186.035C107.41 186.841 107.41 186.841 107.227 187.793C106.754 188.331 106.237 188.798 105.709 189.282C104.377 190.685 103.789 192.627 103.711 194.531C103.904 194.725 104.098 194.918 104.297 195.117C104.416 194.986 104.536 194.855 104.658 194.719C109.243 189.696 112.968 187.172 119.531 185.449C125.951 183.753 135.101 179.557 138.645 173.717C142.699 165.61 138.956 151.732 136.23 143.555C136.163 142.757 136.192 142.016 136.23 141.211C136.816 140.625 136.816 140.625 137.878 140.588C138.368 140.606 138.368 140.606 138.867 140.625C138.985 140.987 138.985 140.987 139.105 141.357C139.343 142.058 139.599 142.752 139.871 143.439C140.382 144.8 140.711 146.183 141.028 147.6C141.12 148.007 141.12 148.007 141.215 148.421C141.345 148.993 141.474 149.565 141.602 150.137C141.794 150.996 141.99 151.854 142.186 152.712C144.31 162.065 144.31 162.065 144.269 166.882C144.267 167.249 144.265 167.617 144.263 167.995C144.166 173.582 142.508 177.414 138.574 181.348C138.823 181.355 139.071 181.363 139.327 181.37C149.889 181.881 156.509 189.852 163.517 196.862C164.278 197.622 165.04 198.38 165.803 199.138C166.401 199.733 166.997 200.329 167.593 200.925C168.007 201.338 168.423 201.75 168.838 202.162C170.376 203.706 171.8 205.298 173.16 207C173.913 207.943 174.698 208.854 175.488 209.766C176.235 208.646 176.164 207.731 176.162 206.433C176.164 206.187 176.165 205.942 176.166 205.689C176.168 205.166 176.168 204.642 176.167 204.119C176.166 203.339 176.173 202.56 176.18 201.78C176.197 197.19 175.642 192.747 174.39 188.324C174.314 188.054 174.238 187.784 174.16 187.506C173.447 185.047 172.524 182.759 171.387 180.469C171.216 180.121 171.216 180.121 171.042 179.766C168.373 174.358 165.187 169.359 161.426 164.648C157.796 160.007 154.4 155.222 151.172 150.293C150.948 149.952 150.948 149.952 150.719 149.605C148.61 146.397 146.551 143.16 144.544 139.888C142.003 135.774 142.003 135.774 138.574 132.422ZM114.009 143.535C113.543 143.64 113.543 143.64 113.068 143.747C111.328 144.068 109.673 144.214 107.904 144.241C107.535 144.248 107.535 144.248 107.159 144.255C106.141 144.272 105.123 144.284 104.105 144.296C103.351 144.306 102.597 144.319 101.843 144.333C101.501 144.335 101.501 144.335 101.152 144.338C99.6579 144.365 98.1911 144.431 97.0436 145.499C93.5332 150.765 93.7686 158.225 94.9139 164.215C95.9226 168.883 98.2967 173.208 100.781 177.246C101.847 177.085 102.546 176.833 103.419 176.205C103.634 176.05 103.85 175.896 104.072 175.737C104.297 175.57 104.522 175.404 104.755 175.232C104.988 175.061 105.222 174.89 105.463 174.714C107.452 173.238 109.263 171.651 111.035 169.922C111.247 169.728 111.459 169.534 111.677 169.335C115.74 165.526 118.925 159.758 119.254 154.159C119.194 150.611 117.91 146.972 115.652 144.219C114.911 143.47 114.911 143.47 114.009 143.535ZM89.9414 164.062C88.762 165.866 87.6356 167.682 86.6238 169.585C86.2453 170.296 85.8596 171.001 85.4679 171.705C83.0226 176.135 81.7612 180.403 82.8094 185.506C83.7991 188.228 85.9613 190.77 88.464 192.229C89.6762 192.739 90.9301 192.671 92.1387 192.187C92.7049 191.432 92.7437 190.803 92.6846 189.873C92.3529 187.955 91.1964 186.981 89.7949 185.742C88.0926 184.233 87.0063 183.155 86.8286 180.798C86.927 179.036 87.5394 177.911 88.7695 176.66C89.7018 175.911 90.6705 175.216 91.6644 174.552C91.853 174.424 92.0416 174.296 92.2359 174.164C92.4073 174.052 92.5787 173.94 92.7553 173.824C93.303 173.306 93.3974 173.019 93.457 172.266C93.2379 171.413 93.2379 171.413 92.8654 170.505C92.7349 170.168 92.6044 169.831 92.47 169.483C92.3304 169.133 92.1909 168.782 92.0471 168.42C91.8429 167.891 91.8429 167.891 91.6346 167.35C91.013 165.567 91.013 165.567 89.9414 164.062ZM93.3838 178.271C93.1225 178.462 92.8611 178.652 92.5919 178.848C92.394 178.996 92.1961 179.144 91.9922 179.297C92.1132 181.023 92.593 182.008 93.6218 183.38C93.7463 183.552 93.8707 183.725 93.9989 183.902C94.3031 184.323 94.612 184.74 94.9219 185.156C96.7892 182.857 96.7892 182.857 97.5952 180.121C97.1825 179.089 96.6796 178.191 96.0938 177.246C94.7446 177.246 94.4411 177.492 93.3838 178.271ZM132.946 188.009C132.214 188.526 131.431 188.897 130.625 189.285C129.923 189.626 129.257 189.987 128.613 190.43C128.613 190.623 128.613 190.816 128.613 191.016C128.42 191.016 128.227 191.016 128.027 191.016C127.594 191.494 127.183 191.993 126.782 192.499C126.046 193.426 125.317 194.323 124.493 195.172C120.958 199.29 119.898 205.08 120.117 210.351C120.847 218.363 124.25 224.968 129.095 231.224C132.129 235.153 132.129 235.153 132.129 237.598C131.892 237.576 131.656 237.555 131.413 237.534C128.539 237.314 125.671 237.272 122.791 237.268C122.591 237.267 122.392 237.267 122.186 237.266C121.613 237.264 121.04 237.265 120.467 237.266C120.132 237.266 119.797 237.266 119.451 237.267C118.663 237.25 118.663 237.25 118.066 237.598C117.291 237.706 116.518 237.803 115.741 237.891C114.098 238.069 114.098 238.069 112.5 238.476C112.403 238.767 112.307 239.057 112.207 239.355C112.014 239.452 111.82 239.549 111.621 239.648C111.409 240.228 111.218 240.816 111.035 241.406C110.749 242.19 110.452 242.97 110.156 243.75C110.78 244.374 112.146 244.169 113.006 244.205C113.442 244.224 113.442 244.224 113.886 244.243C118.816 244.422 123.752 244.38 128.684 244.374C130.179 244.372 131.673 244.373 133.168 244.375C140.859 244.392 140.859 244.392 148.545 244.151C150.843 244.041 153.138 244.015 155.438 244.005C156.08 244.002 156.722 243.998 157.364 243.993C157.791 243.99 158.219 243.987 158.646 243.985C158.859 243.983 159.071 243.982 159.29 243.98C160.388 243.973 161.485 243.969 162.583 243.97C163.666 243.97 164.75 243.963 165.833 243.951C166.242 243.948 166.65 243.948 167.058 243.95C167.622 243.953 168.185 243.946 168.749 243.938C169.069 243.937 169.388 243.936 169.717 243.935C170.568 243.824 170.568 243.824 171.042 243.054C171.397 242.261 171.637 241.52 171.839 240.675C171.917 240.353 171.994 240.032 172.074 239.7C172.156 239.351 172.237 239.001 172.321 238.641C172.407 238.276 172.493 237.91 172.582 237.533C173.278 234.561 173.937 231.58 174.579 228.595C174.684 228.106 174.79 227.617 174.897 227.129C175.047 226.437 175.195 225.744 175.341 225.05C175.385 224.847 175.43 224.644 175.476 224.435C175.97 222.042 176.019 220.034 174.829 217.841C174.674 217.544 174.674 217.544 174.517 217.242C171.573 211.763 167.756 206.87 163.359 202.5C163.016 202.156 162.673 201.813 162.33 201.469C161.618 200.755 160.904 200.043 160.189 199.332C159.281 198.429 158.376 197.521 157.473 196.613C156.768 195.905 156.061 195.199 155.353 194.493C155.019 194.16 154.686 193.826 154.353 193.491C151.776 190.902 149.059 188.276 145.605 186.914C145.276 186.783 145.276 186.783 144.941 186.65C143.151 186.053 141.415 185.945 139.545 185.925C139.312 185.921 139.078 185.917 138.838 185.913C136.525 185.931 134.786 186.61 132.946 188.009ZM115.32 191.473C114.79 192.126 114.79 192.126 114.844 192.773C114.65 192.773 114.457 192.773 114.258 192.773C113.843 193.316 113.843 193.316 113.434 194C112.486 195.466 111.418 196.569 110.065 197.662C109.805 197.886 109.545 198.109 109.277 198.34C109.277 198.533 109.277 198.726 109.277 198.926C109.076 199.006 108.875 199.087 108.667 199.169C108.385 199.282 108.103 199.395 107.812 199.512C107.497 199.634 107.182 199.756 106.857 199.881C106.526 200.019 106.195 200.157 105.853 200.299C105.353 200.5 105.353 200.5 104.843 200.705C103.722 201.459 103.689 202.017 103.418 203.32C103.418 204.288 103.418 204.288 103.566 205.27C103.613 205.639 103.66 206.007 103.708 206.387C103.764 206.781 103.82 207.175 103.876 207.568C103.903 207.77 103.931 207.972 103.959 208.18C104.464 211.881 105.165 215.513 106.055 219.141C106.133 219.463 106.211 219.785 106.292 220.116C107.431 224.785 108.638 229.436 109.863 234.082C111.065 234.444 111.91 234.181 113.086 233.844C116.715 232.884 120.486 232.812 124.219 232.617C123.86 231.673 123.463 230.811 122.943 229.946C122.81 229.722 122.677 229.498 122.54 229.268C122.399 229.032 122.258 228.796 122.113 228.552C117.185 220.13 114.155 210.784 116.442 200.994C117.219 198.049 118.614 195.409 120.166 192.809C120.68 191.934 121.139 191.048 121.582 190.137C119.107 189.654 117.143 189.506 115.32 191.473ZM95.8008 196.582C95.8008 196.775 95.8008 196.969 95.8008 197.168C95.5107 197.265 95.2207 197.361 94.9219 197.461C94.6262 198.198 94.3886 198.898 94.1711 199.658C94.1102 199.858 94.0492 200.058 93.9863 200.265C93.7995 200.89 93.6272 201.518 93.457 202.148C93.3727 202.432 93.3727 202.432 93.2866 202.722C92.6868 204.976 92.7417 207.304 92.7429 209.619C92.7428 209.842 92.7427 210.065 92.7426 210.294C92.7528 213.657 92.9731 216.621 94.3359 219.726C94.416 219.92 94.4962 220.114 94.5787 220.313C96.4333 224.776 99.2848 231.42 103.418 234.18C104.126 234.415 104.473 234.285 105.176 234.082C105.258 232.099 105.081 230.397 104.533 228.494C104.395 227.99 104.257 227.486 104.119 226.981C104.01 226.591 104.01 226.591 103.899 226.192C101.774 218.543 100.194 210.922 99.4275 203.012C99.4065 202.809 99.3856 202.605 99.364 202.395C99.3076 201.844 99.2551 201.293 99.2029 200.741C98.9008 199.165 98.2088 198.279 96.9177 197.369C96.7081 197.219 96.4985 197.069 96.2826 196.915C96.1236 196.805 95.9646 196.695 95.8008 196.582ZM87.8906 237.012C87.8906 237.205 87.8906 237.398 87.8906 237.598C87.6995 237.587 87.5084 237.577 87.3116 237.567C85.6704 237.516 84.6579 237.64 83.2031 238.476C83.0098 238.38 82.8164 238.283 82.6172 238.184C82.5205 238.474 82.4238 238.764 82.3242 239.062C82.1127 239.262 81.9012 239.461 81.6833 239.667C80.5603 240.734 79.8311 242.103 79.1016 243.457C79.1016 243.554 79.1016 243.65 79.1016 243.75C80.4514 244.013 81.758 244.086 83.1287 244.085C83.3491 244.086 83.5694 244.087 83.7964 244.088C84.5203 244.091 85.2441 244.092 85.968 244.092C86.4736 244.093 86.9792 244.094 87.4849 244.095C88.5428 244.097 89.6007 244.097 90.6587 244.097C92.0122 244.097 93.3657 244.101 94.7192 244.106C95.7628 244.109 96.8063 244.11 97.8499 244.11C98.3488 244.11 98.8478 244.112 99.3468 244.114C100.045 244.117 100.743 244.116 101.442 244.114C101.748 244.117 101.748 244.117 102.062 244.119C103.303 244.111 104.333 243.968 105.469 243.457C105.853 242.745 106.101 242.162 106.348 241.406C106.512 240.991 106.677 240.576 106.842 240.161C107.275 239.118 107.275 239.118 107.227 238.184C106.992 238.178 106.758 238.172 106.516 238.166C98.6895 237.962 98.6895 237.962 95.4437 237.444C92.9429 237.129 90.4083 237.097 87.8906 237.012Z" fill="black"/>
<path d="M122.131 102.631C123.509 103.583 124.3 105.21 125.097 106.641C125.209 106.84 125.32 107.039 125.435 107.244C126.345 109.328 126.033 111.851 125.39 113.965C124.528 115.808 123.284 117.479 121.38 118.305C119.193 119.008 117.459 118.875 115.374 117.902C113.208 116.719 111.695 115.395 110.742 113.086C110.643 112.297 110.588 111.602 110.595 110.816C110.597 110.61 110.599 110.403 110.601 110.191C110.686 107.747 111.531 106.02 113.305 104.334C115.773 102.39 119.069 101.231 122.131 102.631ZM114.001 106.256C113.583 107.115 113.659 107.506 113.965 108.399C114.499 109.049 114.499 109.049 115.265 109.095C116.043 109.051 116.043 109.051 116.565 108.49C116.982 107.631 116.907 107.241 116.601 106.348C116.067 105.698 116.067 105.698 115.301 105.652C114.523 105.695 114.523 105.695 114.001 106.256Z" fill="black"/>
</svg>
