<svg width="300" height="300" viewBox="0 0 300 300" fill="none" xmlns="http://www.w3.org/2000/svg">
<path d="M150 78.5156C150.883 78.7769 151.354 78.9245 151.852 79.7199C151.952 79.986 152.051 80.2522 152.154 80.5264C152.336 81.0048 152.336 81.0048 152.523 81.4929C152.658 81.8676 152.794 82.2424 152.93 82.6172C153.087 83.0412 153.245 83.4652 153.403 83.8891C153.975 85.433 154.533 86.9821 155.09 88.5315C155.305 89.1269 155.52 89.7223 155.735 90.3177C157.851 96.1902 159.93 102.076 162.006 107.962C163.948 113.466 163.948 113.466 165.924 118.958C166.017 119.213 166.11 119.468 166.206 119.731C166.617 120.861 167.03 121.99 167.446 123.118C167.584 123.496 167.722 123.875 167.861 124.253C168.036 124.727 168.036 124.727 168.214 125.211C168.457 125.977 168.457 125.977 168.457 126.855C186.826 126.855 205.195 126.855 224.121 126.855C224.414 128.906 224.414 128.906 223.872 129.644C223.469 129.977 223.469 129.977 223.059 130.316C222.913 130.44 222.767 130.563 222.616 130.691C222.148 131.081 221.672 131.46 221.191 131.836C220.747 132.185 220.747 132.185 220.293 132.541C219.669 133.022 219.043 133.5 218.414 133.975C217.267 134.846 216.153 135.757 215.039 136.67C213.188 138.182 211.312 139.651 209.412 141.102C208.384 141.889 207.363 142.686 206.342 143.481C206.118 143.655 205.895 143.829 205.665 144.008C205.209 144.363 204.752 144.718 204.296 145.074C203.19 145.935 202.083 146.796 200.977 147.656C200.76 147.825 200.543 147.993 200.32 148.167C199.207 149.033 198.094 149.898 196.98 150.763C194.826 152.437 192.674 154.114 190.531 155.801C188.855 157.12 187.171 158.428 185.486 159.735C185.274 159.9 185.062 160.065 184.844 160.234C184.644 160.389 184.444 160.544 184.238 160.704C183.766 161.074 183.303 161.456 182.841 161.839C182.227 162.305 182.227 162.305 181.641 162.305C183.066 167.435 184.529 172.554 186.017 177.667C186.127 178.046 186.237 178.425 186.347 178.804C187.829 183.905 189.318 189.005 190.811 194.103C190.889 194.371 190.967 194.639 191.048 194.914C191.975 198.079 192.902 201.243 193.829 204.406C194.376 206.272 194.922 208.138 195.466 210.004C195.839 211.281 196.215 212.557 196.592 213.833C196.755 214.39 196.918 214.947 197.081 215.505C197.188 215.862 197.188 215.862 197.297 216.226C197.612 217.313 197.887 218.299 197.754 219.434C197.278 220.001 197.278 220.001 196.582 220.312C194.86 219.961 193.701 218.937 192.371 217.859C191.9 217.485 191.429 217.112 190.958 216.739C190.723 216.551 190.487 216.364 190.244 216.17C189.221 215.366 188.179 214.588 187.134 213.812C185.347 212.481 183.588 211.119 181.84 209.737C180.631 208.782 179.415 207.836 178.198 206.891C177.977 206.719 177.756 206.547 177.528 206.37C176.848 205.842 176.168 205.313 175.488 204.785C172.193 202.225 168.903 199.658 165.625 197.076C163.546 195.44 161.464 193.81 159.375 192.188C152.506 186.847 152.506 186.847 150.586 185.156C149.103 185.613 148.09 186.519 146.924 187.5C146.502 187.849 146.08 188.197 145.658 188.545C145.45 188.717 145.242 188.889 145.027 189.066C143.759 190.102 142.451 191.085 141.15 192.078C140.122 192.866 139.101 193.662 138.08 194.458C137.857 194.632 137.634 194.805 137.404 194.984C136.947 195.34 136.491 195.695 136.034 196.05C134.928 196.912 133.821 197.772 132.715 198.633C132.275 198.975 131.836 199.316 131.396 199.658C130.518 200.342 129.639 201.025 128.76 201.709C128.542 201.878 128.324 202.048 128.1 202.222C127.662 202.563 127.224 202.904 126.785 203.244C125.668 204.113 124.551 204.982 123.435 205.852C120.488 208.146 117.536 210.433 114.567 212.699C114.153 213.015 113.738 213.331 113.324 213.647C113.118 213.805 112.911 213.962 112.699 214.125C110.846 215.541 109.005 216.973 107.168 218.41C106.958 218.574 106.749 218.737 106.533 218.906C106.348 219.051 106.164 219.195 105.974 219.344C104.693 220.315 104.693 220.315 103.693 220.294C102.832 220.02 102.832 220.02 102.438 219.454C102.141 218.063 102.586 216.944 102.996 215.604C103.082 215.309 103.168 215.015 103.257 214.711C103.544 213.732 103.838 212.756 104.132 211.78C104.337 211.087 104.541 210.394 104.745 209.701C105.168 208.268 105.593 206.836 106.02 205.404C106.582 203.521 107.136 201.636 107.687 199.75C108.795 195.957 109.913 192.168 111.035 188.379C111.098 188.166 111.161 187.954 111.226 187.735C112.235 184.325 113.247 180.916 114.259 177.507C114.476 176.774 114.694 176.042 114.911 175.309C115.255 174.148 115.6 172.988 115.945 171.828C116.073 171.398 116.2 170.968 116.328 170.538C117.425 166.838 117.425 166.838 118.002 165.151C118.46 163.842 118.46 163.842 118.066 162.598C117.461 161.968 116.787 161.454 116.089 160.931C115.891 160.778 115.692 160.625 115.488 160.467C114.885 160.002 114.279 159.542 113.672 159.082C113.34 158.827 113.009 158.571 112.677 158.315C112.056 157.835 111.433 157.356 110.809 156.879C109.834 156.132 108.868 155.374 107.904 154.614C106.316 153.363 104.722 152.119 103.125 150.879C100.125 148.548 97.1337 146.208 94.1711 143.829C92.8147 142.741 91.4505 141.664 90.0696 140.607C87.0231 138.274 84.0154 135.897 81.0452 133.468C80.0026 132.617 78.9505 131.785 77.8748 130.975C76.8478 130.188 76.0726 129.351 75.293 128.32C75.531 127.606 75.531 127.606 75.8789 126.855C76.9266 126.506 77.8755 126.523 78.9656 126.527C79.1925 126.527 79.4193 126.527 79.6531 126.527C80.4155 126.526 81.178 126.528 81.9405 126.529C82.4861 126.529 83.0318 126.529 83.5774 126.529C85.0609 126.529 86.5445 126.531 88.028 126.533C89.5775 126.535 91.1271 126.535 92.6766 126.535C95.6119 126.536 98.5472 126.538 101.482 126.541C104.824 126.545 108.165 126.546 111.506 126.548C118.381 126.551 125.255 126.556 132.129 126.562C132.165 126.392 132.201 126.221 132.237 126.046C132.518 124.742 132.828 123.482 133.272 122.222C133.38 121.912 133.488 121.603 133.6 121.284C133.716 120.955 133.833 120.626 133.953 120.287C134.076 119.936 134.199 119.585 134.326 119.224C134.658 118.277 134.992 117.331 135.327 116.384C135.677 115.394 136.025 114.402 136.373 113.411C138.311 107.903 140.263 102.399 142.225 96.8994C143.013 94.6892 143.797 92.4777 144.573 90.263C144.654 90.0329 144.735 89.8029 144.818 89.5659C145.19 88.5048 145.561 87.4436 145.931 86.3816C146.302 85.3188 146.683 84.26 147.07 83.2031C147.193 82.8697 147.315 82.5363 147.441 82.1928C147.562 81.88 147.683 81.5673 147.808 81.245C147.913 80.9718 148.018 80.6986 148.126 80.4171C148.615 79.5448 149.191 79.0907 150 78.5156ZM150 82.9102C148.443 86.7874 147.051 90.7115 145.7 94.6646C145.092 96.4415 144.481 98.2171 143.869 99.9928C143.745 100.353 143.621 100.713 143.494 101.084C142.257 104.67 140.996 108.248 139.728 111.823C139.625 112.113 139.522 112.404 139.415 112.704C138.434 115.475 137.447 118.243 136.441 121.005C136.3 121.395 136.158 121.785 136.017 122.175C135.767 122.862 135.515 123.548 135.261 124.234C135.101 124.672 135.101 124.672 134.938 125.119C134.847 125.366 134.756 125.612 134.663 125.866C134.388 126.874 134.279 127.651 134.766 128.599C134.904 128.78 135.041 128.962 135.182 129.149C135.336 129.356 135.49 129.564 135.648 129.778C135.9 130.108 135.9 130.108 136.157 130.444C136.51 130.919 136.863 131.395 137.216 131.87C137.485 132.23 137.485 132.23 137.759 132.597C138.531 133.637 139.277 134.694 140.021 135.754C140.162 135.955 140.304 136.156 140.449 136.363C141.248 137.497 142.043 138.634 142.836 139.772C145.584 143.789 145.584 143.789 148.535 147.656C148.632 147.656 148.729 147.656 148.828 147.656C148.925 131.221 149.021 114.785 149.121 97.8516C149.701 97.8516 150.281 97.8516 150.879 97.8516C151.427 98.3997 151.214 99.3287 151.218 100.059C151.22 100.363 151.22 100.363 151.223 100.673C151.227 101.356 151.23 102.039 151.232 102.723C151.235 103.211 151.238 103.698 151.241 104.186C151.249 105.515 151.255 106.843 151.261 108.172C151.267 109.559 151.275 110.946 151.283 112.333C151.298 114.961 151.311 117.589 151.323 120.217C151.338 123.209 151.354 126.2 151.37 129.191C151.404 135.346 151.435 141.501 151.465 147.656C152.666 146.468 152.666 146.468 153.739 145.167C153.878 144.982 154.016 144.796 154.159 144.605C154.303 144.409 154.448 144.214 154.596 144.012C154.749 143.806 154.903 143.6 155.061 143.387C156.147 141.922 157.21 140.442 158.264 138.954C159.764 136.843 161.331 134.782 162.891 132.715C163.392 132.05 163.892 131.385 164.392 130.719C164.701 130.308 164.701 130.308 165.017 129.889C165.909 128.778 165.909 128.778 166.062 127.414C165.775 126.055 165.351 124.792 164.877 123.487C164.781 123.216 164.684 122.945 164.585 122.666C164.266 121.773 163.944 120.881 163.623 119.989C163.399 119.362 163.175 118.735 162.951 118.107C162.484 116.799 162.016 115.492 161.547 114.184C160.536 111.361 159.538 108.533 158.538 105.706C157.734 103.43 156.926 101.154 156.12 98.8785C155.88 98.2018 155.64 97.5252 155.4 96.8485C153.748 92.1832 152.049 87.5376 150.293 82.9102C150.196 82.9102 150.1 82.9102 150 82.9102ZM79.6875 129.199C80.6607 130.187 81.6248 131.055 82.7454 131.873C84.0492 132.837 85.3366 133.815 86.6089 134.821C88.2027 136.079 89.8025 137.329 91.4062 138.574C93.8224 140.451 96.2294 142.34 98.6332 144.232C99.1294 144.623 99.6257 145.014 100.122 145.404C100.289 145.535 100.455 145.666 100.627 145.802C101.586 146.555 102.547 147.305 103.512 148.051C105.678 149.728 107.834 151.415 109.955 153.149C111.626 154.515 113.305 155.866 115.039 157.151C115.778 157.707 116.452 158.306 117.129 158.934C117.324 159.105 117.52 159.275 117.721 159.451C118.304 159.961 118.304 159.961 118.818 160.479C119.46 161.021 119.876 161.258 120.703 161.426C122.083 161.125 123.332 160.554 124.62 159.991C126.137 159.355 127.692 158.82 129.239 158.266C129.941 158.012 130.643 157.757 131.344 157.502C132.426 157.11 133.508 156.718 134.59 156.326C135.651 155.941 136.711 155.557 137.772 155.172C138.09 155.056 138.408 154.941 138.736 154.823C140.939 154.023 143.128 153.192 145.312 152.344C144.62 151.651 144.138 151.522 143.208 151.228C142.887 151.125 142.566 151.023 142.235 150.918C141.883 150.807 141.53 150.697 141.167 150.584C140.8 150.467 140.433 150.351 140.054 150.231C139.051 149.913 138.047 149.597 137.043 149.282C136.2 149.017 135.358 148.752 134.516 148.486C126.342 145.905 118.149 143.388 109.952 140.88C107.693 140.188 105.433 139.495 103.175 138.8C102.451 138.578 101.726 138.356 101.002 138.135C99.9996 137.828 98.9982 137.521 97.9969 137.212C97.6974 137.121 97.3979 137.03 97.0893 136.937C96.8153 136.852 96.5413 136.767 96.259 136.68C95.9015 136.57 95.9015 136.57 95.5368 136.458C94.9219 136.23 94.9219 136.23 94.043 135.645C93.988 134.875 93.988 134.875 94.043 134.18C95.0498 133.844 95.2954 133.934 96.2793 134.245C96.5587 134.331 96.8381 134.418 97.126 134.508C97.4327 134.606 97.7393 134.704 98.0553 134.806C98.3792 134.907 98.7031 135.009 99.0369 135.113C99.9314 135.394 100.825 135.677 101.719 135.96C102.67 136.261 103.622 136.56 104.573 136.858C104.967 136.981 105.36 137.105 105.753 137.228C105.951 137.29 106.148 137.352 106.351 137.415C106.962 137.607 107.573 137.799 108.183 137.991C111.037 138.888 113.894 139.774 116.754 140.651C116.953 140.712 117.152 140.773 117.357 140.836C118.759 141.267 120.161 141.697 121.564 142.126C126.199 143.547 130.831 144.974 135.451 146.442C135.803 146.554 136.156 146.665 136.519 146.781C138.173 147.305 139.826 147.832 141.478 148.364C142.056 148.548 142.635 148.732 143.214 148.916C143.475 149.002 143.737 149.087 144.007 149.175C144.364 149.288 144.364 149.288 144.729 149.403C144.935 149.469 145.141 149.535 145.354 149.604C145.962 149.765 145.962 149.765 146.777 149.414C146.679 149.279 146.58 149.144 146.479 149.004C144.744 146.62 143.017 144.234 141.357 141.797C140.082 139.926 138.771 138.084 137.437 136.254C137.293 136.056 137.149 135.859 137.001 135.655C136.839 135.452 136.676 135.249 136.509 135.039C136.024 134.31 135.774 133.77 135.482 132.963C134.786 131.333 133.97 130.116 132.422 129.199C128.879 128.29 125.042 128.604 121.417 128.694C119.948 128.726 118.48 128.728 117.011 128.734C114.234 128.75 111.458 128.79 108.682 128.841C105.519 128.896 102.356 128.924 99.1933 128.949C92.6908 129.001 86.1892 129.088 79.6875 129.199ZM165.248 133.071C164.834 133.776 164.352 134.418 163.853 135.065C162.213 137.28 160.589 139.502 159.009 141.76C157.171 144.385 155.229 146.915 153.223 149.414C153.319 149.607 153.416 149.801 153.516 150C153.801 149.907 153.801 149.907 154.093 149.813C164.491 146.446 174.897 143.105 185.324 139.828C187.417 139.171 189.51 138.509 191.601 137.846C192.991 137.405 194.381 136.966 195.772 136.526C196.427 136.319 197.082 136.111 197.737 135.903C198.637 135.617 199.538 135.332 200.439 135.048C200.702 134.964 200.965 134.88 201.236 134.793C202.618 134.36 203.931 134.044 205.371 133.887C205.554 134.583 205.554 134.583 205.664 135.352C205.051 135.965 204.765 136.087 203.96 136.341C203.725 136.416 203.491 136.492 203.25 136.569C202.991 136.65 202.732 136.731 202.465 136.814C202.055 136.945 202.055 136.945 201.636 137.078C200.715 137.371 199.793 137.661 198.871 137.952C198.216 138.159 197.561 138.367 196.906 138.575C195.493 139.024 194.081 139.471 192.668 139.917C190.399 140.634 188.132 141.354 185.865 142.074C185.284 142.258 184.703 142.443 184.123 142.627C183.734 142.751 183.345 142.874 182.956 142.998C181.59 143.431 180.225 143.865 178.859 144.298C173.79 145.906 168.724 147.519 163.66 149.139C163.352 149.238 163.044 149.336 162.727 149.438C161.864 149.714 161 149.99 160.137 150.267C159.889 150.346 159.641 150.425 159.385 150.507C157.815 151.01 156.25 151.526 154.688 152.051C154.688 152.244 154.688 152.437 154.688 152.637C154.933 152.717 155.179 152.798 155.433 152.88C156.42 153.204 157.406 153.529 158.393 153.856C158.852 154.007 159.312 154.159 159.772 154.31C162.868 155.329 165.938 156.402 168.994 157.536C169.631 157.77 170.268 158.004 170.905 158.238C171.85 158.585 172.793 158.934 173.733 159.293C174.616 159.63 175.503 159.956 176.391 160.281C176.655 160.385 176.918 160.489 177.19 160.596C178.527 161.098 178.527 161.098 179.903 160.946C181.033 160.317 182.02 159.449 182.996 158.606C184.239 157.544 185.503 156.521 186.804 155.53C187.925 154.675 189.039 153.814 190.137 152.93C191.357 151.948 192.594 150.989 193.837 150.037C195.221 148.976 196.598 147.905 197.974 146.832C199.718 145.473 201.469 144.125 203.229 142.786C204.973 141.457 206.693 140.102 208.399 138.726C209.766 137.628 211.153 136.559 212.549 135.498C214.211 134.234 215.861 132.956 217.493 131.653C217.676 131.507 217.859 131.362 218.047 131.212C218.843 130.574 219.6 129.929 220.312 129.199C213.569 129.096 206.826 129.019 200.082 128.972C196.95 128.949 193.819 128.918 190.687 128.868C187.957 128.824 185.227 128.796 182.497 128.786C181.052 128.78 179.607 128.767 178.162 128.735C176.8 128.705 175.44 128.696 174.077 128.702C173.579 128.701 173.081 128.692 172.583 128.675C168.666 128.549 167.181 129.694 165.248 133.071ZM144.271 155.122C143.983 155.225 143.695 155.327 143.399 155.432C143.076 155.549 142.752 155.666 142.419 155.786C142.077 155.909 141.736 156.032 141.383 156.159C137.302 157.633 133.242 159.166 129.181 160.693C128.828 160.826 128.475 160.958 128.111 161.095C127.096 161.475 126.083 161.858 125.069 162.241C124.605 162.414 124.605 162.414 124.132 162.592C123.848 162.7 123.563 162.807 123.27 162.919C123.021 163.013 122.772 163.107 122.515 163.203C121.81 163.481 121.81 163.481 120.996 164.062C120.727 164.738 120.509 165.382 120.308 166.078C120.244 166.287 120.181 166.495 120.116 166.711C119.906 167.41 119.7 168.11 119.493 168.811C119.345 169.306 119.197 169.802 119.048 170.298C118.647 171.633 118.251 172.97 117.855 174.307C117.444 175.697 117.028 177.085 116.614 178.474C115.704 181.52 114.801 184.567 113.898 187.615C113.55 188.789 113.202 189.962 112.854 191.136C111.63 195.259 110.412 199.384 109.203 203.512C108.703 205.215 108.201 206.917 107.693 208.618C107.429 209.502 107.167 210.386 106.905 211.271C106.74 211.827 106.572 212.382 106.404 212.938C106.266 213.408 106.266 213.408 106.124 213.888C106.007 214.281 106.007 214.281 105.887 214.682C105.698 215.379 105.698 215.379 106.055 216.211C106.318 215.998 106.58 215.785 106.851 215.565C108.807 213.988 110.776 212.436 112.793 210.938C114.324 209.8 115.831 208.638 117.316 207.44C119.49 205.685 121.707 203.989 123.931 202.297C126.231 200.547 128.516 198.777 130.787 196.988C132.206 195.871 133.632 194.761 135.059 193.652C136.787 192.31 138.512 190.963 140.231 189.608C141.205 188.842 142.182 188.079 143.161 187.319C143.396 187.137 143.632 186.954 143.874 186.766C144.332 186.41 144.791 186.055 145.25 185.7C145.566 185.455 145.566 185.455 145.889 185.204C146.075 185.061 146.261 184.917 146.452 184.769C146.656 184.607 146.86 184.445 147.07 184.277C147.369 184.079 147.668 183.881 147.975 183.678C148.522 183.217 148.79 182.946 148.988 182.253C149.045 181.563 149.046 180.892 149.028 180.199C149.028 179.939 149.028 179.678 149.028 179.41C149.027 178.552 149.014 177.695 149 176.838C148.997 176.242 148.994 175.646 148.992 175.051C148.986 173.485 148.968 171.919 148.949 170.353C148.931 168.755 148.923 167.156 148.914 165.558C148.895 162.422 148.865 159.287 148.828 156.152C147.625 157.339 147.625 157.339 146.585 158.664C146.451 158.857 146.317 159.05 146.178 159.248C145.967 159.556 145.967 159.556 145.752 159.869C145.441 160.317 145.129 160.765 144.817 161.212C144.577 161.556 144.577 161.556 144.333 161.907C143.555 163.014 142.758 164.105 141.962 165.198C140.483 167.234 139.051 169.298 137.636 171.379C136.614 172.881 135.579 174.372 134.528 175.854C131.187 180.568 127.904 185.323 124.648 190.095C124.121 190.866 123.591 191.636 123.061 192.405C122.535 193.168 122.011 193.932 121.487 194.695C121.115 195.236 120.744 195.777 120.371 196.317C119.796 197.152 119.223 197.988 118.65 198.825C118.42 199.16 118.19 199.494 117.96 199.828C117.636 200.298 117.314 200.769 116.992 201.24C116.71 201.651 116.71 201.651 116.422 202.07C115.965 202.688 115.965 202.688 116.016 203.32C115.436 203.32 114.855 203.32 114.258 203.32C114.021 202.732 114.021 202.732 113.965 201.855C114.345 201.018 114.879 200.295 115.411 199.548C115.569 199.32 115.726 199.092 115.889 198.856C116.415 198.095 116.948 197.339 117.48 196.582C117.855 196.043 118.23 195.504 118.604 194.964C119.391 193.831 120.179 192.699 120.969 191.568C122.143 189.884 123.302 188.19 124.457 186.493C124.64 186.224 124.823 185.954 125.012 185.677C125.366 185.156 125.721 184.635 126.075 184.115C130.186 178.077 134.377 172.092 138.574 166.113C138.725 165.898 138.876 165.683 139.032 165.462C140.388 163.53 141.747 161.601 143.135 159.692C143.309 159.453 143.482 159.213 143.662 158.967C143.997 158.505 144.334 158.044 144.672 157.584C144.823 157.375 144.975 157.167 145.132 156.952C145.266 156.769 145.4 156.586 145.538 156.397C145.907 155.846 146.201 155.286 146.484 154.688C145.597 154.688 145.098 154.828 144.271 155.122ZM154.102 154.98C154.535 155.904 155.053 156.719 155.636 157.555C155.921 157.965 155.921 157.965 156.212 158.383C156.416 158.674 156.62 158.965 156.83 159.265C157.041 159.567 157.251 159.869 157.468 160.18C158.887 162.208 160.326 164.22 161.781 166.222C163.65 168.798 165.467 171.411 167.285 174.023C167.471 174.29 167.656 174.556 167.847 174.831C168.827 176.238 169.807 177.647 170.786 179.055C171.554 180.161 172.324 181.265 173.095 182.367C176.022 186.554 178.897 190.775 181.751 195.012C182.489 196.106 183.234 197.196 183.986 198.281C184.153 198.525 184.32 198.769 184.492 199.02C184.789 199.453 185.089 199.885 185.391 200.314C186.094 201.346 186.51 202.055 186.328 203.32C185.845 203.417 185.361 203.514 184.863 203.613C182.829 200.91 180.972 198.093 179.104 195.273C176.003 190.59 172.872 185.934 169.629 181.348C169.309 180.893 168.989 180.438 168.67 179.984C167.22 177.922 165.759 175.867 164.291 173.818C163.496 172.707 162.708 171.592 161.921 170.474C160.076 167.852 158.208 165.246 156.324 162.652C155.863 162.017 155.403 161.38 154.944 160.744C154.657 160.348 154.37 159.953 154.083 159.558C153.954 159.379 153.825 159.199 153.692 159.014C153.009 158.078 152.293 157.254 151.465 156.445C151.363 159.822 151.285 163.199 151.237 166.577C151.214 168.146 151.183 169.714 151.133 171.282C151.085 172.798 151.059 174.313 151.048 175.83C151.04 176.406 151.024 176.982 151 177.558C150.802 180.621 150.802 180.621 151.884 183.389C152.901 184.427 154.051 185.213 155.288 185.966C156.223 186.559 157.069 187.26 157.928 187.958C158.267 188.224 158.606 188.49 158.946 188.755C159.969 189.557 160.99 190.359 162.012 191.162C162.181 191.295 162.35 191.428 162.524 191.564C163.382 192.239 164.241 192.914 165.098 193.589C166.877 194.991 168.662 196.384 170.46 197.762C172.5 199.329 174.528 200.911 176.558 202.492C177.242 203.024 177.927 203.556 178.611 204.088C180.601 205.634 182.59 207.182 184.57 208.74C186.173 210.001 187.778 211.258 189.386 212.512C189.604 212.683 189.823 212.854 190.048 213.03C191.326 214.025 192.621 214.986 193.945 215.918C194.279 214.915 194.193 214.654 193.898 213.668C193.815 213.385 193.732 213.103 193.647 212.812C193.553 212.503 193.459 212.194 193.363 211.875C193.218 211.385 193.218 211.385 193.07 210.886C192.804 209.987 192.535 209.088 192.265 208.19C191.98 207.235 191.697 206.279 191.414 205.323C191.297 204.93 191.181 204.536 191.064 204.142C191.006 203.945 190.948 203.748 190.887 203.545C190.707 202.937 190.527 202.328 190.346 201.72C189.247 198.02 188.168 194.313 187.094 190.605C186.713 189.287 186.328 187.969 185.943 186.651C184.943 183.227 183.955 179.802 183.02 176.36C182.61 174.852 182.19 173.346 181.771 171.84C181.576 171.129 181.385 170.417 181.197 169.704C180.939 168.723 180.668 167.747 180.394 166.77C180.322 166.481 180.25 166.193 180.176 165.895C179.757 164.422 179.757 164.422 178.72 163.354C178.042 163.043 177.374 162.812 176.66 162.598C176.287 162.458 175.914 162.318 175.542 162.175C175.17 162.044 174.796 161.913 174.423 161.784C174.112 161.675 174.112 161.675 173.796 161.564C173.121 161.327 172.446 161.093 171.771 160.858C171.298 160.693 170.824 160.527 170.35 160.362C168.841 159.835 167.331 159.312 165.82 158.789C165.56 158.699 165.299 158.608 165.03 158.515C163.473 157.976 161.915 157.438 160.357 156.903C159.862 156.732 159.366 156.562 158.871 156.391C158.181 156.153 157.49 155.916 156.799 155.68C156.593 155.608 156.387 155.537 156.174 155.464C155.161 155.102 155.161 155.102 154.102 154.98Z" fill="black"/>
</svg>
