<svg width="300" height="300" viewBox="0 0 300 300" fill="none" xmlns="http://www.w3.org/2000/svg">
<path d="M115.137 34.8636C115.331 34.9076 115.526 34.9516 115.726 34.997C126.973 37.6246 137.161 45.6755 143.231 55.3856C148.468 64.05 150.471 75.3686 148.193 85.2879C148.024 85.9632 147.842 86.6339 147.656 87.305C147.597 87.5353 147.537 87.7657 147.476 88.0031C144.527 99.322 138.985 107.458 130.837 115.604C130.35 116.092 129.866 116.581 129.382 117.071C127.463 119 125.487 120.783 123.34 122.461C123.015 122.719 123.015 122.719 122.684 122.983C122.075 123.465 121.463 123.944 120.85 124.42C120.627 124.593 120.405 124.766 120.176 124.945C118.327 126.375 116.449 127.765 114.563 129.146C112.398 130.733 110.265 132.361 108.138 133.999C107.506 134.484 106.871 134.964 106.236 135.445C103.969 137.16 101.751 138.909 99.598 140.765C98.8107 141.436 98.0065 142.075 97.1925 142.713C90.7163 148.004 85.7497 154.425 82.9102 162.305C82.8041 162.592 82.698 162.879 82.5887 163.175C81.375 167.104 81.4056 172.336 83.2032 176.074C84.6334 178.606 86.4949 180.788 89.3556 181.641C90.446 181.749 91.2962 181.651 92.1868 180.982C95.0869 177.888 96.0269 172.892 97.2797 168.958C100.147 159.958 103.969 152.383 110.402 145.416C110.823 144.958 111.236 144.492 111.641 144.02C115.754 139.247 121.038 135.667 126.563 132.715C126.736 132.621 126.909 132.527 127.088 132.431C140.344 125.309 155.376 122.665 170.215 125.098C170.437 125.131 170.658 125.164 170.887 125.198C178.151 126.301 185.637 129.166 192.188 132.422C192.603 132.623 193.019 132.823 193.435 133.023C199.335 135.887 204.698 139.4 209.766 143.555C209.932 143.691 210.099 143.827 210.271 143.968C213.912 146.96 217.366 150.203 220.286 153.912C220.934 154.733 221.61 155.523 222.29 156.317C225.752 160.48 228.68 164.982 231.445 169.629C231.593 169.876 231.741 170.124 231.893 170.378C243.886 190.587 254.786 219.021 249.016 242.679C247.652 247.883 245.075 253.21 240.82 256.641C239.905 257.054 239.905 257.054 239.063 257.227C238.184 256.641 238.184 256.641 237.982 255.995C237.938 255.729 237.895 255.462 237.85 255.188C237.797 254.889 237.744 254.591 237.69 254.284C237.635 253.962 237.581 253.64 237.525 253.308C237.046 250.714 236.437 248.294 235.508 245.828C234.727 243.719 234.125 241.573 233.536 239.405C232.469 235.486 231.265 231.678 229.688 227.93C229.588 227.691 229.489 227.451 229.386 227.205C228.398 224.839 227.431 222.536 225.888 220.468C225.586 220.02 225.586 220.02 225.586 219.434C225.373 219.403 225.159 219.373 224.939 219.341C221.979 218.617 219.584 215.556 217.543 213.461C216.909 212.81 216.268 212.166 215.625 211.524C215.328 211.212 215.328 211.212 215.025 210.893C213.801 209.686 213.801 209.686 212.125 209.453C211.727 209.547 211.331 209.651 210.938 209.766C210.511 209.862 210.085 209.957 209.658 210.051C209.443 210.103 209.227 210.155 209.006 210.209C205.22 211.123 202.449 210.983 198.633 210.059C198.515 210.539 198.515 210.539 198.395 211.029C197.96 212.379 197.96 212.379 197.168 212.989C196.522 213.24 195.867 213.468 195.209 213.684C192.037 214.794 189.162 216.482 186.238 218.116C185.23 218.677 184.215 219.221 183.197 219.763C182.435 220.17 181.701 220.565 180.988 221.052C179.823 221.673 178.62 221.927 177.338 222.217C177.066 222.28 176.795 222.343 176.516 222.407C172.809 223.247 169.04 223.972 165.234 224.121C165.035 224.129 164.835 224.137 164.629 224.146C151.242 224.603 138.431 220.087 128.504 211.066C125.724 208.437 123.349 205.669 121.289 202.442C121.171 202.258 121.053 202.075 120.932 201.886C116.705 195.224 114.165 187.909 112.793 180.176C114.429 179.202 115.575 178.868 117.481 179.004C117.523 179.186 117.566 179.369 117.609 179.557C118.964 185.307 120.517 190.828 123.342 196.043C123.624 196.565 123.896 197.092 124.168 197.619C129.516 207.572 139.269 213.709 149.854 216.907C151.837 217.49 153.811 217.968 155.859 218.262C155.529 218.119 155.199 217.976 154.858 217.829C149.206 215.314 144.268 211.923 139.746 207.715C139.53 207.523 139.313 207.33 139.09 207.131C133.114 201.563 127.603 192.338 127.097 184.022C126.975 180.243 126.975 180.243 127.149 178.418C127.441 178.125 127.441 178.125 128.303 178.097C128.828 178.102 128.828 178.102 129.364 178.107C129.89 178.111 129.89 178.111 130.427 178.115C130.699 178.118 130.97 178.122 131.25 178.125C131.554 179.037 131.636 179.884 131.717 180.837C132.516 189.979 136.623 198.222 142.969 204.785C143.177 205.001 143.386 205.217 143.601 205.44C145.838 207.601 148.481 209.121 151.172 210.645C151.365 210.755 151.557 210.865 151.756 210.978C157.153 214.01 163.465 215.973 169.629 216.504C169.629 216.311 169.629 216.117 169.629 215.918C169.384 215.891 169.14 215.864 168.887 215.836C167.714 215.593 166.731 215.143 165.674 214.6C165.368 214.444 165.368 214.444 165.056 214.285C153.769 208.426 145.818 197.902 141.98 185.852C138.966 175.878 138.966 175.878 140.332 173.145C141.447 173.4 141.796 173.73 142.485 174.66C143.45 176.267 144.006 178.03 144.599 179.798C147.095 187.212 150.183 194.36 155.274 200.391C155.397 200.539 155.521 200.687 155.648 200.84C161.062 207.265 169.004 211.798 177.436 212.659C180.164 212.804 182.802 212.866 185.449 212.11C185.449 211.916 185.449 211.723 185.449 211.524C185.136 211.47 185.136 211.47 184.816 211.415C175.814 209.421 168.554 201.573 163.675 194.244C163.47 193.937 163.265 193.629 163.054 193.313C162.937 193.137 162.82 192.962 162.7 192.781C161.901 191.582 161.101 190.383 160.302 189.184C159.939 188.638 159.575 188.093 159.211 187.548C158.936 187.135 158.936 187.135 158.655 186.714C153.516 179.004 153.516 179.004 153.537 178.433C153.921 177.584 154.458 177.244 155.219 176.715C155.474 176.532 155.73 176.349 155.993 176.16C156.738 175.782 156.738 175.782 157.307 175.809C158.193 176.198 158.447 176.769 158.937 177.594C159.128 177.912 159.319 178.229 159.516 178.556C159.616 178.724 159.715 178.893 159.818 179.067C160.233 179.771 160.655 180.471 161.078 181.17C161.289 181.521 161.5 181.871 161.711 182.222C162.901 184.204 164.154 186.143 165.426 188.073C165.702 188.492 165.976 188.911 166.25 189.331C172.149 198.367 178.935 205.482 189.861 207.846C190.924 208.044 191.991 208.191 193.066 208.301C192.956 208.176 192.845 208.051 192.731 207.922C192.377 207.52 192.024 207.116 191.673 206.711C191.214 206.184 190.751 205.661 190.286 205.139C186.757 201.137 184.094 196.607 181.424 192.01C177.947 186.026 174.166 179.92 168.75 175.489C168.458 175.244 168.166 175 167.865 174.748C162.357 170.218 156.504 167.16 149.249 167.212C148.935 167.21 148.621 167.208 148.298 167.205C146.637 167.209 145.135 167.331 143.525 167.743C142.843 167.9 142.201 167.916 141.504 167.871C141.258 167.403 141.014 166.932 140.772 166.461C140.636 166.2 140.5 165.938 140.36 165.668C140.039 164.942 140.039 164.942 140.039 164.063C144.518 161.465 150.709 161.228 155.676 162.47C156.432 162.693 157.168 162.924 157.91 163.184C158.107 163.251 158.304 163.319 158.506 163.389C162.96 164.962 167.228 167.41 170.801 170.508C171.037 170.712 171.272 170.916 171.515 171.126C172.264 171.788 172.999 172.463 173.731 173.145C173.941 173.336 174.151 173.527 174.368 173.724C178.537 177.672 181.579 182.743 184.538 187.616C187.526 192.566 187.526 192.566 191.016 197.168C191.23 197.43 191.445 197.692 191.666 197.961C195.152 202.055 199.915 204.721 205.28 205.28C205.701 205.313 206.122 205.345 206.543 205.371C204.298 193.961 198.294 182.813 190.723 174.024C190.513 173.775 190.304 173.526 190.088 173.27C188.505 171.441 186.786 169.92 184.863 168.457C184.707 168.338 184.551 168.219 184.391 168.096C176.947 162.444 168.127 159.509 158.807 159.21C158.439 159.198 158.071 159.185 157.692 159.172C156.788 159.141 155.884 159.111 154.981 159.082C154.576 157.712 154.275 156.4 154.102 154.981C158.794 152.393 166.782 154.565 171.583 155.948C176.837 157.523 181.806 159.962 186.035 163.477C186.188 163.601 186.342 163.726 186.5 163.854C190.617 167.2 194.566 170.943 197.754 175.196C197.98 175.49 198.206 175.784 198.438 176.087C203.486 182.8 208.928 192.115 210.468 200.433C210.614 201.092 210.614 201.092 211.534 201.47C211.926 201.643 212.32 201.815 212.714 201.984C215.342 203.192 217.432 204.888 219.597 206.784C220.023 207.158 220.023 207.158 220.606 207.422C217.052 189.378 211.466 171.257 196.875 159.082C196.721 158.95 196.567 158.818 196.408 158.682C185.924 149.718 173.54 145.028 159.705 146.082C152.252 146.753 145.123 148.698 138.574 152.344C138.283 152.506 137.992 152.668 137.692 152.835C132.08 156.189 128.381 161.493 125.098 166.992C124.67 166.902 124.243 166.81 123.816 166.718C123.459 166.641 123.459 166.641 123.095 166.563C122.461 166.407 122.461 166.407 121.875 166.114C121.935 162.559 124.016 159.652 126.27 157.032C126.472 156.794 126.674 156.556 126.882 156.312C129.549 153.261 132.456 150.875 135.938 148.828C136.124 148.718 136.311 148.608 136.504 148.494C141.792 145.422 147.537 143.57 153.516 142.383C153.744 142.335 153.973 142.287 154.208 142.238C157.833 141.499 161.457 141.414 165.143 141.394C165.369 141.392 165.596 141.39 165.829 141.387C179.981 141.275 192.575 147.909 202.609 157.51C202.983 157.868 203.36 158.221 203.738 158.574C208.052 162.711 211.332 167.921 214.145 173.157C214.342 173.524 214.542 173.891 214.743 174.257C220.131 184.059 223.066 195.762 225.399 206.625C225.462 206.914 225.525 207.204 225.59 207.503C225.704 208.034 225.814 208.567 225.92 209.1C226.469 211.686 227.655 213.835 229.138 216.01C230.29 217.746 231.286 219.547 232.251 221.393C232.382 221.643 232.513 221.894 232.648 222.152C233.324 223.46 233.963 224.779 234.569 226.12C234.698 226.406 234.827 226.691 234.96 226.985C235.057 227.2 235.154 227.415 235.254 227.637C234.944 225.486 234.631 223.336 234.314 221.186C234.167 220.187 234.02 219.188 233.876 218.188C232.863 211.165 231.817 204.072 229.468 197.351C229.343 196.988 229.219 196.624 229.09 196.249C226.764 189.558 223.366 183.585 219.727 177.539C220.341 177.139 220.957 176.743 221.576 176.349C221.75 176.235 221.925 176.121 222.104 176.003C222.567 175.711 223.051 175.451 223.535 175.196C224.573 175.541 224.642 175.729 225.166 176.647C225.307 176.892 225.448 177.136 225.593 177.389C225.741 177.656 225.89 177.923 226.044 178.199C226.199 178.475 226.355 178.752 226.515 179.038C229.334 184.118 231.576 189.343 233.496 194.825C233.579 195.059 233.662 195.294 233.748 195.535C238.457 209.016 239.536 223.561 240.868 237.672C240.896 237.96 240.923 238.247 240.951 238.543C241.08 239.916 241.208 241.288 241.332 242.661C241.366 243.032 241.366 243.032 241.401 243.411C241.443 243.873 241.484 244.334 241.525 244.796C241.616 245.921 241.616 245.921 241.992 246.973C248.81 232.634 244.692 213.039 239.686 198.666C234.554 184.515 227.5 170.507 217.969 158.789C217.786 158.562 217.786 158.562 217.599 158.329C213.773 153.6 209.434 149.165 204.492 145.606C204.105 145.319 203.717 145.032 203.33 144.745C192.228 136.624 178.9 131.169 165.234 129.492C165.01 129.465 164.786 129.437 164.556 129.408C148.993 127.654 132.591 133.043 120.356 142.636C110.006 151.004 104.346 161.351 100.564 173.941C99.3834 177.809 97.9985 181.549 95.2149 184.571C95.0756 184.726 94.9362 184.882 94.7926 185.042C93.9181 185.971 93.2918 186.289 92.0117 186.409C88.0011 186.525 85.0333 185.148 82.0313 182.52C79.5661 180.025 78.1401 176.898 77.6368 173.438C77.5779 173.045 77.5779 173.045 77.5178 172.645C77.017 168.212 77.6087 163.567 79.1017 159.375C79.2217 159.025 79.3418 158.674 79.4656 158.313C82.7816 149.321 90.3948 141.422 97.8517 135.645C98.0703 135.465 98.289 135.285 98.5143 135.1C101.973 132.258 105.684 129.731 109.387 127.222C111.645 125.691 113.863 124.138 116.016 122.461C116.341 122.211 116.667 121.96 116.993 121.709C119.471 119.793 121.87 117.795 124.219 115.723C124.375 115.585 124.532 115.448 124.693 115.306C134.13 106.958 141.124 97.0931 143.848 84.6682C143.92 84.3476 143.992 84.027 144.066 83.6966C145.656 74.9376 144.285 65.1905 139.344 57.6902C136.717 53.9179 133.761 50.5298 130.078 47.7542C129.796 47.5408 129.514 47.3274 129.223 47.1076C121.628 41.6111 112.123 38.07 102.669 39.5146C97.3187 40.4283 92.6803 42.54 88.4767 45.9964C88.2168 46.2079 87.957 46.4193 87.6893 46.6372C83.318 50.3688 80.2207 56.1254 79.4305 61.8243C78.6474 67.2881 75.2089 71.604 72.0349 75.9639C68.6176 80.6843 66.5748 84.553 67.0899 90.5276C68.1206 96.8465 72.2113 103.439 76.4649 108.106C76.9 108.396 76.9 108.396 77.3438 108.692C77.2732 108.505 77.2025 108.319 77.1297 108.126C75.4577 103.681 74.0473 99.2497 72.9493 94.6292C72.8522 94.24 72.7549 93.8509 72.6575 93.4619C71.7001 89.4127 70.9759 84.3911 73.0889 80.5861C74.4045 78.8017 76.1245 77.2548 77.8382 75.8609C79.147 74.784 80.1312 73.4128 81.1524 72.0706C81.7325 72.3606 81.7325 72.3606 82.3243 72.6565C82.1354 73.6921 81.7113 74.4007 81.1341 75.2749C80.8594 75.6992 80.8594 75.6992 80.5791 76.1321C80.3816 76.4354 80.1841 76.7386 79.9806 77.0511C76.7822 81.9801 75.8213 86.1229 77.0509 91.9925C78.149 96.9122 79.6074 101.656 81.4454 106.348C81.7355 105.478 81.8286 104.679 81.9126 103.77C82.5553 96.9066 84.653 90.2489 88.8612 84.7049C89.8115 83.4397 90.6975 82.1829 90.8204 80.5667C90.5109 78.7985 89.9189 77.5783 88.9344 76.0989C87.4213 73.7039 86.3975 71.1537 86.7188 68.262C87.0596 66.7679 87.503 65.4563 88.2935 64.1421C88.674 63.4327 88.7955 63.1294 88.6483 62.3294C88.4852 61.8781 88.3127 61.43 88.131 60.9858C87.6449 59.7032 87.7646 58.6513 88.2203 57.3855C88.9727 56.2318 89.866 55.4091 91.1134 54.7854C92.3191 54.6623 93.4115 54.6623 94.5558 55.0784C95.8086 56.192 96.6747 57.5332 96.9727 59.1983C96.9727 61.2763 96.0543 62.5633 94.7469 64.0769C94.336 64.4534 94.336 64.4534 93.7501 64.4534C93.6693 64.6226 93.5885 64.7918 93.5052 64.9661C93.1642 65.6253 93.1642 65.6253 92.7865 66.1929C91.6066 68.0145 91.3436 69.6346 91.6993 71.7776C92.0664 72.7528 92.5704 73.5615 93.1642 74.4143C93.4756 74.8781 93.7869 75.342 94.098 75.8059C94.2411 76.0099 94.3843 76.2138 94.5317 76.4239C95.3281 77.7037 95.5808 78.7134 95.5445 80.2188C95.5392 80.5047 95.5339 80.7906 95.5285 81.0851C95.5217 81.3007 95.5149 81.5164 95.5079 81.7386C100.483 81.9177 103.831 80.956 107.556 77.4905C112.106 72.7101 113.978 66.1579 114.718 59.7533C114.844 58.887 114.844 58.887 115.137 58.594C119.834 58.1491 123.795 59.6104 127.448 62.5937C131.931 66.7537 133.43 73.757 133.664 79.6203C133.771 84.534 133.196 89.3116 130.957 93.7503C130.758 94.1536 130.758 94.1536 130.555 94.5651C125.656 104.019 116.844 110.514 108.355 116.512C107.774 116.922 107.194 117.334 106.614 117.745C104.582 119.185 102.543 120.614 100.488 122.022C93.935 126.519 87.4228 131.128 81.5415 136.492C80.9381 137.038 80.3251 137.57 79.7059 138.098C77.0946 140.383 74.7945 142.876 72.6563 145.606C72.2989 146.049 72.2989 146.049 71.9342 146.501C64.7232 155.525 60.6377 166.661 61.5828 178.267C62.8651 189.58 68.3394 201.971 77.3438 209.18C79.8718 211.084 82.5417 212.676 85.3244 214.175C85.7558 214.408 86.185 214.645 86.6136 214.883C90.7919 217.107 95.4842 218.175 100.049 219.287C105.151 220.53 110.054 221.918 114.789 224.231C115.076 224.37 115.363 224.509 115.659 224.653C117.761 225.689 119.712 226.802 121.582 228.223C121.832 228.412 122.081 228.601 122.339 228.795C128.863 233.886 134.014 240.299 136.816 248.145C136.94 247.805 137.064 247.464 137.192 247.114C139.943 239.803 144.366 235.619 151.374 232.333C159.226 228.797 167.769 226.873 176.074 224.707C176.398 224.623 176.722 224.538 177.056 224.451C211.274 215.528 211.274 215.528 225.293 223.242C225.049 224.594 224.619 225.774 224.121 227.051C222.646 226.876 221.285 226.558 219.871 226.099C219.669 226.035 219.467 225.971 219.26 225.905C218.621 225.703 217.984 225.498 217.346 225.293C216.707 225.089 216.067 224.885 215.427 224.681C215.03 224.555 214.634 224.429 214.238 224.301C208.652 222.52 202.503 223.632 196.875 224.707C196.543 224.77 196.211 224.833 195.869 224.898C184.53 227.104 173.399 230.488 162.318 233.711C162.027 233.795 161.737 233.879 161.437 233.966C160.894 234.123 160.352 234.281 159.81 234.441C159.571 234.51 159.332 234.579 159.086 234.65C158.879 234.71 158.672 234.771 158.458 234.833C157.91 234.961 157.91 234.961 157.031 234.961C157.049 235.148 157.067 235.336 157.085 235.528C157.396 239.124 157.486 242.731 157.609 246.337C157.635 247.075 157.661 247.813 157.687 248.551C157.741 250.093 157.794 251.636 157.847 253.178C157.901 254.752 157.956 256.326 158.012 257.9C158.079 259.814 158.146 261.727 158.212 263.641C158.237 264.364 158.262 265.088 158.288 265.812C158.425 269.691 158.526 273.56 158.496 277.442C156.853 277.442 155.209 277.442 153.516 277.442C153.505 277.094 153.495 276.746 153.484 276.388C153.386 273.079 153.287 269.77 153.187 266.461C153.136 264.761 153.085 263.06 153.034 261.36C152.985 259.713 152.936 258.066 152.886 256.419C152.868 255.797 152.849 255.175 152.831 254.553C152.724 250.956 152.6 247.362 152.438 243.768C152.343 241.612 152.31 239.463 152.344 237.305C147.727 239.506 144.029 242.188 141.975 247.061C139.64 253.723 139.582 260.804 139.683 267.774C139.705 269.441 139.716 271.107 139.728 272.774C139.734 273.351 139.741 273.928 139.749 274.504C139.753 274.848 139.757 275.192 139.761 275.547C139.765 275.85 139.769 276.153 139.774 276.466C139.746 277.149 139.746 277.149 139.453 277.442C139.06 277.467 138.665 277.473 138.271 277.47C138.034 277.469 137.797 277.468 137.553 277.467C137.304 277.465 137.055 277.463 136.798 277.46C136.548 277.459 136.298 277.457 136.04 277.456C135.42 277.453 134.8 277.447 134.18 277.442C134.177 277.245 134.175 277.049 134.173 276.847C134.147 274.774 134.118 272.702 134.087 270.629C134.076 269.859 134.065 269.089 134.056 268.319C133.901 255.602 132.342 245.2 122.906 235.87C116.138 229.389 107.808 226.704 98.9353 224.404C89.4526 221.932 80.4819 218.359 73.2652 211.505C72.6479 210.915 72.6479 210.915 71.9045 210.34C63.4082 203.494 57.8594 188.923 56.6358 178.407C55.515 164.377 61.4422 151.428 70.3814 140.927C72.8303 138.11 75.398 135.45 78.2227 133.008C78.6869 132.581 79.1507 132.154 79.6143 131.726C81.4208 130.105 83.3241 128.619 85.254 127.149C85.4458 127.002 85.6377 126.855 85.8354 126.704C90.9866 122.786 96.3984 119.224 101.786 115.642C111.713 109.029 121.065 101.983 126.563 91.1136C126.713 90.8163 126.864 90.5191 127.019 90.2129C129.522 84.7691 129.581 78.1825 127.533 72.6016C126.256 69.324 124.642 66.6382 121.582 64.7464C120.717 64.3677 119.865 64.0806 118.945 63.8675C118.885 64.1481 118.824 64.4287 118.761 64.7178C117.417 70.6389 114.976 75.6215 111.035 80.2737C110.87 80.4814 110.705 80.6891 110.535 80.9031C108.123 83.8524 104.823 85.8079 101.074 86.4261C99.8257 86.5277 98.5757 86.5466 97.3235 86.5663C95.8069 86.6138 94.7921 86.8059 93.4571 87.5979C93.1671 87.6946 92.877 87.7913 92.5782 87.8909C92.2632 88.426 92.2632 88.426 91.9923 89.0628C91.7258 89.4913 91.4571 89.9185 91.1866 90.3445C86.7996 97.6633 86.3918 105.335 88.007 113.523C88.3819 115.525 88.6366 117.023 87.8907 118.946C87.1991 119.797 86.7696 119.818 85.6751 119.953C80.8575 119.721 77.1407 115.82 74.0487 112.49C67.7087 105.385 61.8757 95.9975 62.3478 86.2108C62.7213 81.6747 65.6215 77.4324 68.0604 73.7369C68.2504 73.4478 68.4405 73.1587 68.6363 72.8608C68.92 72.4294 68.92 72.4294 69.2094 71.9893C69.3958 71.7058 69.5821 71.4222 69.7741 71.13C70.114 70.6143 70.4552 70.0994 70.7984 69.5859C73.0241 66.2214 74.0696 63.0716 74.9062 59.1342C76.6417 51.0751 82.0599 43.8635 88.8783 39.3302C96.7978 34.3121 106.013 32.6977 115.137 34.8636Z" fill="black"/>
</svg>
