<svg width="300" height="300" viewBox="0 0 300 300" fill="none" xmlns="http://www.w3.org/2000/svg">
<path d="M136.285 89.9051C136.76 90.3025 137.23 90.7053 137.695 91.1136C137.914 91.3051 138.134 91.4966 138.36 91.6938C143.178 96.1918 146.2 102.988 146.484 109.571C146.499 109.823 146.514 110.075 146.53 110.335C146.688 115.214 145.388 120.048 143.005 124.292C141.363 127.486 142.596 132.12 143.629 135.407C144.972 139.355 147.09 142.618 150 145.606C150.235 145.86 150.471 146.113 150.714 146.375C154.131 149.542 157.897 151.656 162.251 153.253C163.241 153.617 164.226 153.994 165.212 154.369C165.411 154.444 165.61 154.519 165.815 154.597C170.418 156.348 174.975 158.257 179.334 160.554C179.911 160.855 180.494 161.146 181.077 161.436C186.82 164.331 192.078 168.195 196.806 172.544C197.417 173.105 198.04 173.648 198.669 174.189C205.539 180.188 210.783 188.02 215.75 195.589C216.168 196.224 216.59 196.856 217.014 197.488C219.511 201.237 220.643 204.369 220.312 208.887C219.816 210.954 218.849 212.788 217.047 213.996C214.961 215.214 213.224 215.376 210.848 215.374C210.573 215.374 210.297 215.375 210.013 215.376C209.089 215.379 208.165 215.379 207.242 215.38C206.579 215.381 205.917 215.382 205.255 215.384C203.455 215.388 201.656 215.39 199.856 215.391C198.731 215.392 197.607 215.393 196.482 215.394C193.366 215.398 190.25 215.401 187.134 215.402C186.934 215.402 186.735 215.402 186.53 215.402C186.33 215.402 186.13 215.402 185.924 215.402C185.52 215.402 185.115 215.403 184.71 215.403C184.409 215.403 184.409 215.403 184.102 215.403C180.85 215.404 177.598 215.409 174.346 215.416C171.005 215.423 167.663 215.427 164.321 215.427C162.446 215.427 160.571 215.429 158.696 215.434C156.932 215.439 155.168 215.44 153.403 215.437C152.757 215.437 152.11 215.438 151.464 215.441C150.579 215.445 149.695 215.443 148.81 215.44C148.556 215.442 148.302 215.445 148.041 215.447C144.918 215.422 142.399 214.444 140.039 212.403C139.232 211.537 138.47 210.642 138.101 209.503C137.714 208.445 137.405 207.862 136.373 207.349C135.41 207.044 134.447 206.796 133.465 206.562C130.803 205.855 128.259 205.076 125.738 203.962C125.49 203.852 125.243 203.743 124.987 203.63C123.739 203.069 122.508 202.478 121.289 201.856C121.262 202.016 121.236 202.177 121.209 202.343C120.48 206.667 119.643 210.442 116.015 213.282C114.166 214.456 112.523 215.365 110.307 215.374C110.045 215.375 109.783 215.377 109.514 215.379C109.229 215.379 108.944 215.379 108.651 215.38C108.349 215.381 108.048 215.382 107.737 215.384C106.739 215.388 105.742 215.39 104.744 215.392C104.051 215.394 103.359 215.395 102.666 215.397C101.215 215.4 99.7639 215.402 98.3125 215.403C96.4498 215.404 94.5872 215.411 92.7245 215.42C91.2947 215.425 89.865 215.427 88.4352 215.427C87.7482 215.428 87.0612 215.43 86.3743 215.434C85.4154 215.439 84.4567 215.439 83.4979 215.437C83.2125 215.439 82.9271 215.442 82.6331 215.445C82.2419 215.443 82.2419 215.443 81.8427 215.44C81.6161 215.44 81.3894 215.441 81.1558 215.441C80.403 215.302 80.1467 215.056 79.6871 214.453C79.5223 213.611 79.5223 213.611 79.6871 212.696C80.8622 211.567 82.0585 210.864 83.5586 210.229C83.7592 210.142 83.9598 210.054 84.1664 209.964C84.8145 209.682 85.4643 209.403 86.1141 209.125C86.5621 208.93 87.01 208.735 87.4578 208.54C89.4737 207.662 91.495 206.797 93.5195 205.939C93.8283 205.807 94.1371 205.676 94.4552 205.54C95.0191 205.3 95.5842 205.062 96.1505 204.828C98.0994 204.001 99.1652 203.297 100.007 201.274C100.336 200.24 100.322 199.224 100.318 198.146C100.32 197.9 100.323 197.655 100.325 197.401C100.332 196.593 100.333 195.784 100.332 194.976C100.334 194.407 100.337 193.839 100.339 193.271C100.343 192.079 100.343 190.887 100.342 189.695C100.34 188.183 100.349 186.671 100.361 185.16C100.368 183.984 100.369 182.809 100.368 181.633C100.369 181.077 100.371 180.521 100.377 179.964C100.408 176.301 99.9609 173.108 98.891 169.603C98.5514 168.423 98.3769 167.218 98.2173 166.004C98.1681 165.67 98.1681 165.67 98.1178 165.33C97.5356 161.213 97.5216 157.125 97.5267 152.976C97.5277 151.153 97.5201 149.329 97.5141 147.506C97.507 145.194 97.5024 142.883 97.5069 140.572C97.5103 138.694 97.5052 136.817 97.4944 134.939C97.4919 134.227 97.4925 133.514 97.4964 132.802C97.5013 131.806 97.4954 130.81 97.487 129.814C97.4931 129.377 97.4931 129.377 97.4992 128.931C97.4643 126.781 96.7914 125.608 95.5074 123.926C92.0233 117.903 91.4813 110.657 93.1636 104.004C95.1595 96.8178 99.9164 91.0987 106.359 87.43C116.061 82.1171 127.553 83.1165 136.285 89.9051ZM102.539 94.6292C102.316 94.8453 102.093 95.0613 101.863 95.2838C97.2014 100.091 95.627 106.048 95.7214 112.592C95.9223 118.547 98.8678 124.102 103.059 128.246C108.466 133.015 114.784 134.552 121.875 134.18C128.046 133.6 133.836 130.49 137.899 125.855C142.182 120.659 143.445 114.38 142.968 107.813C142.408 103.169 140.164 98.9799 137.109 95.5081C136.928 95.2698 136.748 95.0315 136.562 94.786C133.123 90.6986 127.37 88.1878 122.168 87.598C114.694 87.1326 107.917 89.269 102.539 94.6292ZM138.281 130.078C138.166 130.196 138.051 130.313 137.933 130.434C132.808 135.305 125.33 137.573 118.381 137.506C112.618 137.337 105.808 135.479 101.66 131.25C101.466 131.25 101.273 131.25 101.074 131.25C101.06 134.72 101.05 138.189 101.043 141.658C101.04 143.27 101.036 144.881 101.03 146.493C101.023 148.054 101.02 149.616 101.018 151.177C101.017 151.767 101.015 152.356 101.012 152.946C100.995 156.154 101.075 159.333 101.337 162.532C101.36 162.816 101.384 163.1 101.408 163.392C102.49 175.445 107.776 186.537 117.004 194.458C121.148 197.909 125.858 200.41 130.957 202.13C131.34 202.26 131.34 202.26 131.731 202.392C133.243 202.88 134.654 203.131 136.23 203.321C136.231 203.16 136.231 202.999 136.232 202.833C136.249 198.918 136.272 195.004 136.299 191.089C136.312 189.196 136.324 187.303 136.332 185.41C136.339 183.585 136.351 181.759 136.366 179.934C136.371 179.236 136.374 178.538 136.376 177.84C136.379 176.866 136.387 175.892 136.396 174.917C136.396 174.481 136.396 174.481 136.395 174.035C136.401 173.638 136.401 173.638 136.406 173.234C136.408 173.003 136.409 172.772 136.41 172.535C136.523 171.973 136.523 171.973 137.402 171.387C138.153 171.442 138.153 171.442 138.867 171.68C139.476 172.594 139.526 172.794 139.528 173.831C139.53 174.091 139.532 174.351 139.534 174.619C139.534 174.903 139.533 175.187 139.532 175.481C139.534 175.781 139.535 176.081 139.537 176.39C139.54 177.043 139.541 177.697 139.542 178.35C139.543 179.386 139.548 180.422 139.554 181.458C139.57 184.404 139.579 187.35 139.586 190.296C139.591 192.098 139.6 193.9 139.611 195.702C139.615 196.387 139.616 197.071 139.616 197.756C139.416 204.243 139.416 204.243 142.382 209.766C145.252 212.362 148.937 211.864 152.571 211.866C153.045 211.867 153.52 211.868 153.994 211.869C154.983 211.871 155.971 211.871 156.96 211.871C158.229 211.871 159.497 211.875 160.766 211.88C161.742 211.883 162.719 211.884 163.696 211.884C164.164 211.884 164.632 211.885 165.1 211.888C165.752 211.89 166.403 211.89 167.055 211.888C167.425 211.888 167.796 211.889 168.178 211.889C169.078 211.907 169.078 211.907 169.628 211.231C169.437 211.141 169.245 211.052 169.047 210.96C164.723 208.791 161.883 205.697 160.308 201.105C159.51 198.648 158.821 196.155 158.129 193.667C158.008 193.233 157.886 192.799 157.764 192.365C157.591 191.747 157.421 191.128 157.253 190.509C157.104 189.968 157.104 189.968 156.952 189.416C156.731 188.346 156.657 187.417 156.738 186.328C157.324 185.743 157.324 185.743 158.038 185.614C158.789 185.743 158.789 185.743 159.224 186.312C159.806 187.487 160.138 188.677 160.481 189.939C160.592 190.335 160.592 190.335 160.705 190.739C160.941 191.582 161.174 192.425 161.407 193.268C161.639 194.106 161.871 194.944 162.105 195.781C162.251 196.301 162.395 196.821 162.537 197.342C163.027 199.094 163.649 200.765 164.355 202.442C167.724 201.846 170.956 199.744 173.437 197.461C173.68 197.245 173.923 197.029 174.173 196.807C176.969 194.186 178.878 190.968 180.468 187.5C181.054 187.488 181.64 187.488 182.226 187.5C182.519 187.793 182.519 187.793 182.603 188.693C182.503 190.063 182.11 190.954 181.475 192.151C181.316 192.46 181.316 192.46 181.154 192.774C180.303 194.383 179.322 195.796 178.125 197.168C177.991 197.34 177.857 197.512 177.719 197.689C174.977 201.144 170.932 203.517 166.992 205.371C166.992 205.565 166.992 205.758 166.992 205.957C171.308 208.583 175.796 210.493 180.761 211.524C180.97 211.574 181.179 211.625 181.394 211.677C182.447 211.854 183.48 211.855 184.544 211.85C184.773 211.85 185.002 211.85 185.237 211.85C185.99 211.85 186.743 211.848 187.496 211.845C188.02 211.845 188.543 211.844 189.066 211.844C190.441 211.843 191.816 211.84 193.191 211.837C194.596 211.834 196 211.833 197.404 211.831C200.157 211.828 202.91 211.823 205.664 211.817C205.428 211.177 205.428 211.177 204.797 211.022C204.42 210.926 204.42 210.926 204.035 210.829C203.607 210.719 203.607 210.719 203.172 210.606C202.861 210.529 202.55 210.451 202.23 210.371C201.912 210.29 201.593 210.208 201.265 210.124C200.242 209.862 199.217 209.603 198.193 209.345C197.177 209.087 196.161 208.828 195.146 208.569C194.513 208.407 193.88 208.247 193.247 208.087C188.396 206.854 188.396 206.854 187.793 206.25C187.751 205.468 187.78 204.69 187.793 203.907C189.568 203.856 191.075 203.976 192.784 204.44C193.003 204.496 193.223 204.553 193.448 204.612C194.164 204.797 194.878 204.988 195.593 205.178C196.095 205.309 196.597 205.44 197.1 205.57C198.417 205.913 199.733 206.259 201.05 206.606C203.156 207.161 205.263 207.712 207.371 208.261C208.103 208.452 208.834 208.645 209.566 208.839C210.019 208.958 210.472 209.076 210.926 209.195C211.126 209.249 211.326 209.302 211.532 209.358C212.963 209.728 214.434 210.046 215.918 210.059C216.641 209.562 216.735 209.149 216.93 208.314C217.562 204.348 215.43 201.343 213.237 198.237C212.561 197.269 211.913 196.285 211.265 195.299C208.116 190.51 204.791 185.922 200.976 181.641C200.745 181.377 200.513 181.113 200.275 180.841C198.032 178.308 195.671 175.893 193.066 173.731C192.839 173.542 192.839 173.542 192.607 173.349C183.19 165.541 172.056 160.428 160.604 156.303C152.156 153.26 145.344 147.439 141.43 139.307C140.236 136.613 139.424 133.889 139.011 130.971C138.963 130.773 138.916 130.575 138.867 130.371C138.577 130.226 138.577 130.226 138.281 130.078ZM104.296 184.571C104.073 186.975 103.982 189.356 103.973 191.769C103.968 192.327 103.964 192.885 103.959 193.443C103.953 194.301 103.949 195.158 103.952 196.015C103.973 202.772 103.973 202.772 101.518 205.574C100.533 206.473 99.3189 207.066 98.1258 207.642C97.9294 207.739 97.733 207.835 97.5307 207.935C94.8519 209.233 92.1011 210.377 89.355 211.524C89.355 211.62 89.355 211.717 89.355 211.817C92.0547 211.837 94.7544 211.853 97.4541 211.862C98.7079 211.867 99.9617 211.873 101.216 211.883C102.427 211.893 103.639 211.898 104.851 211.9C105.312 211.902 105.772 211.905 106.233 211.91C109.135 211.939 111.845 211.951 114.349 210.297C116.512 208.033 117.239 205.638 117.388 202.552C117.402 202.336 117.416 202.12 117.43 201.897C117.535 200.236 117.535 200.236 117.187 198.633C116.592 198.026 116.592 198.026 115.814 197.48C111.421 194.03 107.738 189.798 104.877 185C104.782 184.858 104.687 184.717 104.589 184.571C104.493 184.571 104.396 184.571 104.296 184.571Z" fill="black"/>
<path d="M124.219 114.551C124.805 115.43 124.805 115.43 124.768 116.327C124.512 117.187 124.512 117.187 124.036 117.59C123.112 117.833 122.24 117.784 121.289 117.773C121.244 120.439 121.244 120.439 122.241 122.809C122.64 123.072 122.64 123.072 123.047 123.34C123.267 123.495 123.487 123.649 123.714 123.809C124.669 124.299 125.295 124.309 126.361 124.274C126.674 124.266 126.987 124.258 127.31 124.249C127.665 124.234 127.665 124.234 128.027 124.219C128.381 123.158 128.352 122.19 128.339 121.087C128.337 120.882 128.336 120.676 128.335 120.464C128.331 119.958 128.326 119.452 128.32 118.945C129.807 119.409 131.029 119.866 131.878 121.249C132.322 122.358 132.127 123.376 131.836 124.512C131.164 125.994 130.162 126.878 128.682 127.524C126.607 128.191 124.51 128.202 122.461 127.441C121.83 127.103 121.241 126.739 120.652 126.333C120.102 125.966 119.542 125.675 118.945 125.39C118.81 125.507 118.675 125.624 118.536 125.744C116.716 127.222 114.973 127.888 112.646 128.137C110.626 127.921 108.68 127.474 107.227 125.976C106.456 124.93 106.133 124.052 106.055 122.754C106.265 121.533 106.443 120.895 107.336 120.025C109.017 118.945 109.017 118.945 110.156 118.945C110.118 119.203 110.08 119.461 110.041 119.727C109.747 121.806 109.747 121.806 110.413 123.724C111.647 124.391 112.592 124.439 113.965 124.219C115.354 123.721 116.094 123.107 116.895 121.875C117.036 120.826 117.036 120.826 116.968 119.732C116.957 119.365 116.947 118.998 116.936 118.619C116.922 118.34 116.909 118.061 116.895 117.773C116.333 117.719 116.333 117.719 115.759 117.663C114.624 117.554 114.624 117.554 113.965 116.894C113.837 116.052 113.837 116.052 113.965 115.137C116.326 112.71 121.366 113.199 124.219 114.551Z" fill="black"/>
<path d="M110.449 105.176C111.949 106.157 112.536 107.042 113.086 108.692C113.086 108.982 113.086 109.272 113.086 109.571C112.183 109.596 111.279 109.612 110.376 109.626C110.12 109.633 109.865 109.64 109.601 109.648C107.705 109.67 107.705 109.67 106.772 109.171C106.191 108.515 106.076 108.103 106.055 107.227C106.939 105.163 108.319 104.578 110.449 105.176Z" fill="black"/>
<path d="M131.25 105.176C132.21 105.992 132.396 106.453 132.568 107.703C132.422 108.691 132.422 108.691 132.005 109.189C130.83 109.782 129.688 109.663 128.394 109.625C128.003 109.619 128.003 109.619 127.605 109.613C126.964 109.603 126.324 109.589 125.684 109.57C125.817 109.148 125.952 108.727 126.088 108.306C126.2 107.954 126.2 107.954 126.315 107.594C126.725 106.501 127.338 105.78 128.247 105.066C129.29 104.776 130.219 104.853 131.25 105.176Z" fill="black"/>
</svg>
