<svg width="300" height="300" viewBox="0 0 300 300" fill="none" xmlns="http://www.w3.org/2000/svg">
<path d="M201.192 102.405C202.021 103.156 202.838 103.918 203.65 104.688C204.461 105.461 204.461 105.461 205.261 106.073C206.418 107.016 207.283 108.175 208.195 109.35C208.469 109.702 208.746 110.052 209.025 110.4C214.245 116.951 217.802 125.255 219.708 133.392C219.763 133.626 219.818 133.859 219.875 134.1C220.046 134.905 220.184 135.71 220.313 136.523C220.369 136.874 220.425 137.225 220.484 137.587C220.927 140.743 220.921 143.881 220.873 147.06C220.867 147.513 220.861 147.966 220.855 148.419C220.829 150.294 220.801 152.169 220.754 154.044C220.725 155.205 220.708 156.366 220.699 157.528C220.693 157.964 220.683 158.4 220.669 158.836C220.565 161.99 221.21 163.945 223.242 166.406C223.378 166.585 223.513 166.765 223.653 166.95C225.826 169.8 228.485 172.28 231.047 174.775C236.773 180.381 240.249 186.323 240.363 194.458C240.331 198.227 238.955 201.395 236.478 204.222C227.352 213.026 211.606 215.846 199.465 216.159C198.545 216.183 197.645 216.25 196.732 216.358C194.922 216.544 193.124 216.54 191.306 216.532C190.953 216.532 190.599 216.531 190.235 216.531C189.116 216.529 187.997 216.526 186.877 216.522C186.115 216.52 185.352 216.519 184.589 216.518C182.727 216.515 180.866 216.51 179.004 216.504C179.004 216.697 179.004 216.89 179.004 217.089C178.632 217.238 178.26 217.384 177.887 217.529C177.576 217.651 177.576 217.651 177.259 217.776C176.66 217.968 176.66 217.968 175.781 217.968C175.878 217.485 175.975 217.002 176.074 216.504C174.527 216.89 172.981 217.277 171.387 217.675C171.29 217.482 171.193 217.289 171.094 217.089C171.384 216.606 171.674 216.123 171.973 215.625C170.232 216.205 168.492 216.785 166.699 217.382C166.603 217.092 166.506 216.802 166.406 216.504C166.503 216.31 166.6 216.117 166.699 215.918C165.324 216.101 164.116 216.476 162.817 216.961C160.9 217.675 160.9 217.675 160.254 217.675C160.447 217.095 160.641 216.515 160.84 215.918C160.624 215.981 160.409 216.044 160.186 216.11C159.758 216.232 159.758 216.232 159.32 216.357C159.038 216.439 158.756 216.52 158.465 216.604C157.66 216.787 156.974 216.833 156.152 216.796C156.056 216.216 155.959 215.636 155.859 215.039C155.706 215.102 155.554 215.166 155.396 215.231C154.124 215.712 153.085 215.963 151.721 215.899C149.577 215.83 147.64 216.481 145.606 217.089C144.922 217.286 144.239 217.481 143.555 217.675C143.458 217.289 143.361 216.902 143.262 216.504C142.827 216.684 142.827 216.684 142.383 216.867C138.57 218.43 138.57 218.43 136.523 218.847C136.572 218.569 136.62 218.291 136.67 218.005C136.832 217.148 136.832 217.148 136.816 216.504C136.593 216.6 136.369 216.697 136.139 216.796C135.352 217.089 135.352 217.089 134.473 217.089C134.473 216.799 134.473 216.509 134.473 216.211C131.792 216.819 129.325 217.841 126.805 218.914C126.142 219.194 125.475 219.462 124.805 219.726C124.472 218.729 124.559 218.034 124.786 217.016C124.872 216.624 124.872 216.624 124.959 216.224C125.028 215.927 125.028 215.927 125.098 215.625C124.654 215.878 124.654 215.878 124.2 216.137C124.013 216.243 123.826 216.35 123.633 216.459C123.257 216.675 122.885 216.897 122.516 217.125C121.422 217.792 120.514 218.137 119.238 218.261C119.28 217.797 119.323 217.334 119.367 216.87C119.402 216.482 119.402 216.482 119.439 216.087C119.52 215.421 119.645 214.805 119.824 214.16C119.621 214.33 119.419 214.5 119.21 214.675C116.922 216.501 114.671 217.594 111.914 218.554C111.608 217.636 111.64 217.385 111.914 216.504C111.506 216.72 111.506 216.72 111.089 216.942C110.723 217.132 110.357 217.321 109.992 217.511C109.813 217.606 109.635 217.701 109.451 217.8C108.227 218.428 107.156 218.751 105.762 218.847C105.665 218.751 105.568 218.654 105.469 218.554C105.495 218.107 105.541 217.662 105.597 217.218C105.627 216.976 105.657 216.733 105.687 216.484C105.712 216.297 105.736 216.11 105.762 215.918C105.595 215.928 105.429 215.938 105.257 215.948C103.612 216.006 102.54 215.787 101.074 215.039C101.074 214.749 101.074 214.459 101.074 214.16C101.968 213.29 102.973 212.992 104.15 212.64C104.48 212.539 104.809 212.438 105.148 212.334C106.055 212.109 106.055 212.109 107.227 212.109C107.227 211.916 107.227 211.722 107.227 211.523C106.55 211.426 105.873 211.33 105.176 211.23C105.236 210.547 105.236 210.547 105.469 209.765C106.076 209.322 106.076 209.322 106.842 208.978C107.091 208.862 107.34 208.746 107.596 208.627C109.407 207.89 111.116 207.558 113.049 207.36C113.552 207.301 114.052 207.217 114.551 207.129C114.648 206.935 114.744 206.742 114.844 206.543C114.554 206.446 114.264 206.349 113.965 206.25C113.965 205.96 113.965 205.67 113.965 205.371C115.393 204.535 116.511 204.342 118.121 204.29C118.33 204.28 118.538 204.27 118.753 204.26C119.599 204.221 120.442 204.199 121.289 204.199C121.289 204.005 121.289 203.812 121.289 203.613C120.902 203.42 120.516 203.226 120.117 203.027C120.117 202.737 120.117 202.447 120.117 202.148C121.151 201.504 121.944 201.509 123.146 201.559C123.506 201.572 123.866 201.586 124.237 201.6C124.799 201.627 124.799 201.627 125.372 201.654C125.746 201.668 126.12 201.682 126.505 201.697C129.519 201.821 129.519 201.821 130.957 202.148C130.212 201.278 129.349 200.87 128.32 200.39C128.613 199.804 128.613 199.804 129.492 199.511C131.988 199.307 134.567 199.851 136.816 200.976C136.72 200.753 136.623 200.529 136.523 200.299C136.231 199.511 136.231 199.511 136.231 198.632C137.434 198.126 138.442 198.602 139.6 199.017C139.794 199.083 139.989 199.149 140.189 199.218C141.15 199.551 142.075 199.904 142.969 200.39C142.775 200.197 142.582 200.004 142.383 199.804C142.383 199.514 142.383 199.224 142.383 198.925C143.654 199.072 144.369 199.88 145.313 200.683C145.603 200.78 145.893 200.877 146.191 200.976C146.288 200.106 146.385 199.236 146.484 198.339C146.774 198.339 147.065 198.339 147.363 198.339C148.242 199.316 148.242 199.316 148.242 200.097C148.436 200.097 148.629 200.097 148.828 200.097C148.828 200.291 148.828 200.484 148.828 200.683C149.408 200.78 149.988 200.877 150.586 200.976C150.622 200.644 150.659 200.311 150.696 199.969C150.786 199.452 150.786 199.452 150.879 198.925C151.072 198.829 151.266 198.732 151.465 198.632C152.091 198.968 152.091 198.968 152.838 199.456C154.042 200.21 155.063 200.676 156.445 200.976C156.445 200.493 156.445 200.009 156.445 199.511C156.96 199.691 156.96 199.691 157.486 199.875C161.98 201.469 161.98 201.469 166.699 201.855C166.506 201.468 166.313 201.082 166.113 200.683C167.653 201.099 168.939 201.84 170.308 202.634C171.073 203.016 171.717 203.197 172.559 203.32C172.462 202.643 172.365 201.966 172.266 201.269C172.459 201.269 172.652 201.269 172.852 201.269C172.852 201.462 172.852 201.656 172.852 201.855C173.096 201.964 173.096 201.964 173.346 202.075C174.023 202.441 174.023 202.441 174.738 203.027C175.465 203.594 176.086 203.902 176.953 204.199C176.857 203.715 176.76 203.232 176.66 202.734C176.884 202.825 177.107 202.915 177.338 203.009C179.203 203.746 180.937 203.697 182.922 203.704C183.129 203.705 183.335 203.706 183.548 203.707C188.256 203.711 192.952 203.423 197.649 203.12C198.244 203.082 198.839 203.045 199.434 203.008C205.385 202.66 205.385 202.66 211.231 201.562C211.541 201.485 211.851 201.408 212.171 201.328C213.076 201.095 213.975 200.847 214.874 200.592C215.187 200.503 215.501 200.414 215.823 200.322C221.097 199.058 221.097 199.058 225.073 195.723C226.008 193.298 225.328 190.724 224.347 188.406C222.711 185.437 219.624 182.925 216.467 181.695C209.569 179.739 199.368 181.418 193.066 184.863C192.086 185.653 191.805 186.62 191.384 187.775C190.887 188.59 190.45 188.67 189.551 188.964C188.739 189.085 188.739 189.085 187.848 189.15C187.513 189.174 187.177 189.199 186.832 189.225C186.472 189.247 186.113 189.27 185.742 189.294C185.371 189.318 184.999 189.343 184.616 189.367C181.867 189.532 179.122 189.621 176.367 189.642C175.828 189.65 175.828 189.65 175.278 189.658C174.942 189.657 174.607 189.657 174.262 189.657C173.967 189.658 173.673 189.659 173.37 189.659C172.424 189.532 171.901 189.166 171.094 188.671C170.362 188.536 170.362 188.536 169.603 188.542C169.324 188.534 169.046 188.527 168.76 188.519C168.473 188.515 168.185 188.511 167.889 188.507C164.44 188.445 164.44 188.445 162.891 187.793C162.761 185.245 162.761 185.245 163.77 183.984C166.283 181.702 171.491 182.042 174.672 181.855C175.146 181.825 175.146 181.825 175.63 181.795C175.913 181.779 176.197 181.763 176.488 181.747C177.25 181.64 177.758 181.44 178.418 181.054C178.361 180.483 178.361 180.483 178.125 179.882C177.945 179.793 177.765 179.704 177.579 179.613C176.879 179.259 176.568 178.919 176.088 178.304C175.932 178.104 175.776 177.904 175.615 177.698C175.452 177.482 175.29 177.266 175.122 177.044C174.954 176.821 174.785 176.598 174.612 176.369C170.943 171.409 169.123 166.451 169.713 160.254C170.549 154.668 173.894 150.335 178.125 146.777C178.608 146.487 179.092 146.197 179.59 145.898C178.333 145.898 177.076 145.898 175.781 145.898C179.127 142.339 183.951 141.261 188.672 140.918C188.672 140.724 188.672 140.531 188.672 140.332C187.125 140.428 185.578 140.525 183.984 140.625C184.312 139.642 184.419 139.575 185.267 139.083C185.563 138.909 185.563 138.909 185.865 138.731C186.072 138.613 186.28 138.494 186.493 138.372C186.701 138.251 186.91 138.129 187.124 138.003C187.639 137.703 188.155 137.406 188.672 137.109C182.469 137.362 176.653 140.846 172.384 145.211C168.995 149.163 167.025 153.692 166.113 158.789C166.067 159.032 166.021 159.276 165.974 159.527C164.997 166.192 168.058 172.639 171.889 177.843C172.266 178.418 172.266 178.418 172.266 179.004C171.291 179.135 170.316 179.219 169.336 179.296C169.033 179.327 168.729 179.357 168.417 179.388C165.521 179.541 162.809 178.989 159.998 178.363C159.801 178.32 159.604 178.277 159.402 178.233C153.374 176.905 153.374 176.905 151.758 174.902C151.789 173.455 152.286 172.709 153.223 171.643C154.265 170.49 154.265 170.49 154.688 169.043C154.512 167.436 153.984 166.068 153.223 164.648C153.223 164.455 153.223 164.261 153.223 164.062C153.029 164.159 152.836 164.255 152.637 164.355C152.455 164.872 152.455 164.872 152.344 165.496C152.295 165.728 152.247 165.959 152.197 166.198C152.149 166.442 152.101 166.686 152.051 166.937C151.955 167.415 151.857 167.893 151.758 168.371C151.716 168.584 151.673 168.797 151.63 169.016C151.451 169.679 151.241 170.216 150.879 170.8C150.11 171.02 150.11 171.02 149.414 171.093C149.027 170.61 148.641 170.127 148.242 169.629C147.807 171.224 147.807 171.224 147.363 172.851C147.17 172.851 146.977 172.851 146.777 172.851C146.681 172.658 146.584 172.464 146.484 172.265C145.572 172.46 145.572 172.46 145.263 173.164C145.165 173.405 145.066 173.646 144.965 173.895C144.813 174.258 144.813 174.258 144.659 174.628C144.548 174.909 144.548 174.909 144.434 175.195C143.866 175.085 143.866 175.085 143.262 174.902C143.165 174.709 143.068 174.515 142.969 174.316C142.908 174.521 142.847 174.725 142.785 174.936C142.507 175.755 142.226 176.494 141.797 177.246C140.753 177.703 140.753 177.703 139.746 177.832C138.54 178.234 138.391 178.827 137.769 179.919C135.213 184.211 131.516 186.275 126.782 187.526C123.348 188.359 123.348 188.359 121.875 188.086C121.087 187.448 120.57 186.94 120.117 186.035C120.002 186.174 119.888 186.313 119.769 186.456C119.114 187.021 118.626 187.117 117.773 187.207C117.481 186.914 117.481 186.914 117.462 186.016C117.468 185.732 117.474 185.448 117.481 185.156C117.281 185.204 117.082 185.253 116.876 185.302C115.894 185.47 114.96 185.468 113.965 185.449C113.725 184.77 113.606 184.427 113.902 183.755C115.561 181.523 117.428 180.707 120.117 180.175C120.684 180.117 121.252 180.068 121.82 180.029C123.095 179.938 124.012 179.727 125.098 179.004C126.031 177.604 125.792 176.108 125.794 174.462C125.801 174.13 125.808 173.798 125.815 173.455C125.824 170.876 125.384 168.718 124.033 166.498C123.633 165.82 123.633 165.82 123.633 165.234C113.847 160.203 113.847 160.203 103.185 159.568C100.611 160.463 98.2865 161.868 95.943 163.239C93.3392 164.757 90.7551 166.109 87.7991 166.772C87.5077 166.842 87.5077 166.842 87.2103 166.914C83.1629 167.873 79.3804 168.03 75.6352 165.944C74.0861 164.912 72.2344 163.605 71.592 161.777C70.9462 157.909 71.9015 154.821 73.7732 151.483C75.1244 149.059 75.9328 146.524 76.7614 143.885C78.2184 139.268 79.7313 134.67 81.5186 130.169C81.6322 129.881 81.7458 129.593 81.8629 129.296C82.8064 126.97 83.8107 124.509 85.5286 122.644C86.217 121.949 86.217 121.949 86.0699 121.21C85.8076 120.297 85.4633 119.441 85.1075 118.56C83.8039 114.927 83.6297 111.412 85.254 107.812C85.9667 106.498 86.9567 105.741 88.3713 105.294C90.8958 104.86 93.5437 105.495 95.8008 106.64C96.2686 106.987 96.7268 107.348 97.1741 107.721C98.3784 108.715 99.2205 109.098 100.781 108.984C102.899 108.496 104.694 107.441 106.549 106.347C111.009 103.782 115.421 101.387 120.327 99.7959C123.34 98.7851 125.993 97.1347 128.708 95.5108C131.262 94.066 133.984 93.0581 136.762 92.1383C137.107 92.0237 137.453 91.9092 137.809 91.7912C140.959 90.7701 144.121 90.0095 147.363 89.3551C148.005 89.221 148.647 89.0867 149.288 88.9522C149.94 88.8175 150.593 88.6832 151.245 88.5494C151.545 88.4876 151.845 88.4257 152.154 88.362C167.925 85.2103 189.246 91.7892 201.192 102.405ZM114.132 109.252C112.595 109.901 111.027 109.9 109.383 109.948C103.209 110.132 97.9094 111.54 93.2557 115.869C92.9203 116.231 92.9203 116.231 92.5782 116.601C92.4332 116.73 92.2881 116.859 92.1387 116.993C88.18 120.603 84.6015 127.211 83.4778 132.421C83.4069 133.332 83.4069 133.332 84.0455 133.978C84.2509 134.141 84.4564 134.304 84.668 134.472C85.2239 135.584 85.176 136.783 84.961 137.988C84.1297 139.372 83.0659 140.018 81.5552 140.478C80.5923 140.869 80.3235 141.113 79.8421 142.053C79.4483 143.228 79.1185 144.406 78.8086 145.605C77.8604 149.158 76.9554 152.022 74.7071 154.98C74.0351 155.934 74.0351 155.934 73.8282 157.031C74.1414 156.984 74.1414 156.984 74.461 156.936C76.3037 156.705 77.4884 156.656 79.1016 157.617C79.8293 158.708 79.8387 159.576 79.6876 160.839C79.2639 162.005 78.7074 162.408 77.6368 162.945C77.4374 163.034 77.238 163.123 77.0325 163.214C76.3918 163.492 76.3918 163.492 75.586 164.062C77.2145 165.096 78.6627 165.089 80.5298 165.069C80.979 165.066 80.979 165.066 81.4373 165.062C85.8314 164.965 90.6439 163.818 94.043 160.839C94.043 160.646 94.043 160.453 94.043 160.254C92.6895 160.35 91.336 160.447 89.9415 160.546C89.9415 160.353 89.9415 160.16 89.9415 159.961C90.1103 159.943 90.2791 159.926 90.4531 159.908C94.0722 159.52 97.5497 158.952 101.054 157.956C104.85 156.884 108.584 156.595 112.513 156.409C116.155 156.203 119.16 155.595 121.837 152.98C125.727 148.44 126.891 142.013 126.563 136.23C126.219 133.938 125.562 131.849 124.512 129.785C124.679 129.721 124.846 129.656 125.018 129.59C127.464 128.153 129.435 124.198 130.258 121.6C130.947 117.922 130.935 114.276 128.816 111.09C127.016 108.762 124.667 107.637 121.765 107.244C119.006 107.085 116.56 108.027 114.132 109.252ZM82.3243 135.644C82.421 136.128 82.5176 136.611 82.6172 137.109C82.9073 137.012 83.1973 136.916 83.4961 136.816C83.4961 136.526 83.4961 136.236 83.4961 135.937C83.1094 135.84 82.7227 135.744 82.3243 135.644Z" fill="black"/>
<path d="M106.347 162.891C110.453 162.91 114.723 164.332 118.377 166.132C118.662 166.27 118.662 166.27 118.953 166.412C120.326 167.131 121.264 167.936 121.835 169.398C122.136 170.85 122.208 171.985 121.875 173.438C121.582 173.73 121.582 173.73 120.831 173.749C120.595 173.743 120.36 173.737 120.117 173.73C120.262 174.601 120.262 174.601 120.41 175.488C119.926 175.488 119.443 175.488 118.945 175.488C118.952 175.706 118.959 175.923 118.967 176.147C118.652 176.953 118.652 176.953 118.134 177.27C117.417 177.579 116.694 177.858 115.96 178.125C113.038 179.17 113.038 179.17 110.962 181.387C110.889 181.579 110.817 181.772 110.742 181.97C110.345 182.824 110.165 183.099 109.387 183.691C107.227 184.331 105.395 184.157 103.418 183.105C103.125 182.812 103.125 182.812 103.106 181.769C103.112 181.436 103.118 181.104 103.125 180.762C102.235 181.231 101.689 181.602 101.074 182.41C100.488 183.105 100.488 183.105 99.7372 183.38C99.0231 183.398 99.0231 183.398 98.1442 182.812C98.0922 181.877 98.1487 181.071 98.4372 180.176C99.4421 179.101 100.811 178.544 102.12 177.917C102.301 177.83 102.482 177.742 102.668 177.653C103.194 177.403 103.725 177.164 104.256 176.926C105.344 176.265 105.772 175.741 106.347 174.609C106.531 173.812 106.656 173.108 106.732 172.302C106.755 172.087 106.777 171.871 106.801 171.65C107.071 168.704 106.786 165.809 106.347 162.891Z" fill="black"/>
<path d="M124.512 111.914C126.067 113.38 126.474 115.311 126.658 117.373C126.754 120.657 126.189 123.01 123.924 125.43C123.108 126.195 122.229 126.855 121.328 127.517C120.547 128.155 119.981 128.876 119.409 129.702C118.703 130.275 118.065 130.138 117.188 130.078C117.193 129.901 117.197 129.724 117.202 129.542C117.22 128.732 117.232 127.922 117.243 127.112C117.25 126.833 117.258 126.555 117.265 126.268C117.286 124.226 116.99 122.981 115.65 121.381C113.98 119.977 112.265 119.67 110.157 119.532C109.864 118.653 109.864 118.653 110.248 117.755C112.132 114.728 115.281 112.28 118.667 111.124C120.666 110.816 122.82 110.688 124.512 111.914Z" fill="black"/>
<path d="M105.249 134.949C106.488 136.019 107.372 137.209 107.6 138.862C107.685 140.708 107.227 141.841 106.055 143.262C104.782 144.502 103.566 144.954 101.807 145.111C100.47 144.992 99.592 144.547 98.5109 143.775C97.5057 142.367 97.3534 140.543 97.5587 138.867C98.1632 136.805 99.3784 135.685 101.203 134.656C102.747 134.279 103.84 134.244 105.249 134.949ZM101.953 137.11C102.327 137.943 102.671 138.615 103.418 139.16C104.052 139.094 104.052 139.094 104.59 138.867C104.511 138.153 104.511 138.153 104.297 137.403C103.351 136.772 102.981 136.596 101.953 137.11Z" fill="black"/>
<path d="M96.6797 144.14C96.6797 144.43 96.6797 144.721 96.6797 145.019C96.2059 145.397 96.2059 145.397 95.5444 145.788C93.9019 146.828 92.5345 148.096 91.1133 149.414C90.6879 149.8 90.2608 150.185 89.8315 150.567C89.654 150.727 89.4765 150.887 89.2937 151.052C88.7695 151.465 88.7695 151.465 88.1367 151.778C87.4321 152.134 87.3327 152.516 87.0117 153.222C86.5356 153.735 86.5356 153.735 86.1328 154.101C85.9337 153.6 85.9337 153.6 85.8398 152.929C87.636 149.35 92.2485 143.864 96.6797 144.14Z" fill="black"/>
<path d="M100.781 149.121C100.781 149.314 100.781 149.508 100.781 149.707C100.565 149.817 100.565 149.817 100.345 149.929C97.3321 151.471 94.4043 153.083 91.5573 154.914C88.6978 156.738 88.6978 156.738 87.5977 156.738C87.6671 155.78 87.9466 155.512 88.6517 154.829C88.9865 154.558 89.3252 154.291 89.6667 154.028C89.8479 153.888 90.0291 153.747 90.2157 153.602C92.9514 151.549 97.2542 148.78 100.781 149.121Z" fill="black"/>
<path d="M101.074 155.567C101.219 155.857 101.219 155.857 101.367 156.152C101.116 156.192 100.865 156.232 100.607 156.273C99.662 156.424 98.7174 156.576 97.773 156.73C97.3669 156.796 96.9606 156.861 96.5542 156.925C94.3978 157.267 92.2883 157.631 90.2142 158.332C89.6484 158.496 89.6484 158.496 88.7695 158.496C88.8662 158.206 88.9629 157.916 89.0625 157.617C89.794 157.321 90.4862 157.083 91.2415 156.867C91.4559 156.803 91.6704 156.74 91.8914 156.675C92.5096 156.495 93.1292 156.322 93.75 156.152C94.0166 156.078 94.2832 156.004 94.558 155.928C96.7032 155.419 98.8839 155.514 101.074 155.567Z" fill="black"/>
</svg>
