<svg width="300" height="300" viewBox="0 0 300 300" fill="none" xmlns="http://www.w3.org/2000/svg">
<path d="M95.8008 42.7734C100.069 44.2865 103.701 48.8649 106.868 52.0442C107.322 52.5003 107.778 52.9547 108.234 53.409C109.66 54.8338 111.057 56.2711 112.368 57.8038C112.968 58.5049 113.595 59.1795 114.221 59.8572C117.931 63.9243 117.931 63.9243 118.719 65.4362C119.25 66.0374 119.25 66.0374 120.299 65.9248C120.77 65.8667 121.24 65.8028 121.71 65.7349C124.513 65.3979 127.31 65.1931 130.128 65.0404C130.815 65.0032 131.502 64.9642 132.189 64.9251C135.998 64.7141 139.747 64.7167 143.555 64.9658C144.121 65.0029 144.121 65.0029 144.699 65.0407C148.058 65.275 151.375 65.7247 154.702 66.2395C155.001 66.2837 155.299 66.3278 155.607 66.3732C156.141 66.4566 156.675 66.5508 157.205 66.6592C157.861 66.777 158.418 66.8569 159.082 66.7969C159.798 66.2718 160.174 65.9207 160.693 65.2405C160.938 64.9455 161.183 64.6506 161.435 64.3467C161.571 64.1787 161.707 64.0107 161.847 63.8376C164.139 61.0519 166.716 58.5315 169.267 55.9874C169.941 55.3156 170.613 54.6422 171.284 53.9686C171.719 53.5346 172.153 53.1007 172.587 52.6669C172.785 52.4687 172.982 52.2706 173.186 52.0665C174.492 50.7664 175.846 49.5385 177.246 48.3398C177.424 48.1863 177.602 48.0327 177.785 47.8745C178.25 47.4722 178.718 47.0727 179.187 46.6736C179.343 46.5389 179.5 46.4043 179.661 46.2656C180.668 45.409 181.699 44.659 182.812 43.9453C184.575 44.687 185.268 46.3714 185.979 48.064C186.142 48.4901 186.301 48.9178 186.456 49.3469C186.542 49.5847 186.628 49.8224 186.717 50.0673C191.494 63.7589 192.202 79.8565 189.956 94.1162C189.701 95.9496 189.785 97.6262 190.137 99.4389C190.485 101.474 190.516 103.463 190.503 105.524C190.505 105.877 190.507 106.23 190.51 106.594C190.499 111.552 190.499 111.552 189.551 112.5C189.022 112.571 188.49 112.623 187.958 112.668C187.618 112.697 187.277 112.726 186.927 112.757C186.372 112.802 186.372 112.802 185.805 112.849C185.428 112.881 185.052 112.913 184.663 112.946C183.66 113.032 182.657 113.116 181.654 113.199C180.631 113.285 179.608 113.372 178.584 113.458C176.576 113.629 174.567 113.797 172.559 113.965C176.505 113.8 180.434 113.558 184.369 113.214C184.849 113.173 185.329 113.132 185.809 113.091C186.959 112.993 188.108 112.893 189.258 112.793C189.661 114.003 189.211 114.791 188.763 115.924C188.683 116.134 188.602 116.344 188.518 116.561C187.962 117.986 187.35 119.357 186.621 120.703C186.848 120.733 187.075 120.763 187.308 120.794C190.453 121.225 193.57 121.783 196.692 122.351C197.224 122.447 197.755 122.543 198.287 122.639C199.574 122.872 200.861 123.106 202.148 123.34C202.245 123.63 202.342 123.92 202.441 124.219C199.06 124.1 195.774 123.459 192.452 122.86C185.841 121.67 179.225 120.644 172.559 119.824C172.559 120.018 172.559 120.211 172.559 120.41C172.777 120.418 172.996 120.425 173.221 120.433C177.326 120.639 181.385 121.286 185.449 121.875C182.198 130.446 170.531 136.18 162.748 139.716C160.005 140.918 160.005 140.918 158.789 140.918C160.644 151.37 164.91 159.601 172.266 167.285C172.418 167.447 172.571 167.609 172.728 167.776C176.798 172.088 181.49 175.361 186.44 178.581C191.627 181.977 195.863 185.85 199.189 191.095C199.457 191.516 199.737 191.931 200.019 192.343C206.171 201.713 207.397 214.495 207.861 225.366C207.88 230.098 207.88 230.098 210.059 234.082C211.295 234.227 211.934 234.189 213.007 233.533C216.676 229.98 217.874 223.731 218.555 218.848C218.582 218.653 218.609 218.459 218.637 218.259C220.523 203.372 215.084 189.749 209.06 176.508C204.088 165.576 199.297 153.971 203.783 141.982C204.706 139.675 205.864 137.588 207.422 135.645C207.581 135.438 207.74 135.231 207.904 135.019C210.522 131.8 214.367 129.815 218.335 128.796C218.525 128.747 218.715 128.698 218.911 128.647C221.156 128.119 223.233 128.087 225.293 129.199C226.629 130.332 227.244 131.138 227.49 132.861C227.353 136.755 223.906 139.729 221.301 142.236C217.663 145.84 215.857 149.608 215.826 154.669C215.852 164.199 219.628 173.007 222.994 181.781C229.191 197.959 232.614 216.169 225.293 232.617C223.245 237.198 220.575 241.024 217.09 244.629C216.732 245.009 216.732 245.009 216.368 245.397C213.734 248.133 210.772 250.335 207.508 252.262C206.859 252.646 206.218 253.044 205.587 253.457C203.719 254.633 202.04 255.381 199.888 255.821C199.646 255.871 199.404 255.921 199.155 255.972C196.451 256.485 193.786 256.51 191.043 256.495C190.483 256.496 189.924 256.497 189.364 256.499C187.862 256.503 186.361 256.5 184.859 256.495C183.276 256.491 181.692 256.493 180.109 256.494C177.451 256.495 174.793 256.491 172.135 256.484C169.077 256.477 166.02 256.476 162.963 256.479C160.002 256.483 157.042 256.481 154.082 256.477C152.831 256.475 151.58 256.475 150.329 256.476C148.851 256.478 147.373 256.475 145.895 256.468C145.358 256.467 144.821 256.467 144.284 256.468C140.92 256.476 137.698 256.206 134.376 255.669C132.442 255.365 130.514 255.327 128.558 255.304C121.313 255.199 121.313 255.199 119.238 253.125C119.006 250.883 119.574 249.47 120.982 247.731C122.305 246.235 123.71 244.822 125.142 243.431C126.265 242.27 126.384 241.447 126.489 239.868C126.532 239.304 126.532 239.304 126.576 238.728C126.642 235.378 125.843 232.066 125.006 228.845C124.905 228.45 124.805 228.055 124.704 227.66C123.826 224.221 122.908 220.792 121.995 217.362C121.269 214.635 120.546 211.908 119.824 209.18C119.757 208.926 119.69 208.673 119.621 208.412C117.068 198.769 115.143 189.062 114.075 179.14C113.978 178.243 113.872 177.349 113.765 176.454C112.429 164.342 113.583 152.263 115.723 140.332C115.329 140.275 115.329 140.275 114.928 140.218C114.082 140.061 113.4 139.858 112.612 139.526C112.364 139.422 112.116 139.318 111.861 139.21C111.47 139.04 111.47 139.04 111.072 138.867C110.8 138.749 110.527 138.631 110.247 138.509C104.854 136.127 100.061 132.997 95.8008 128.906C95.6615 128.776 95.5223 128.646 95.3788 128.512C93.1175 126.395 91.3178 124.196 89.6484 121.582C90.4863 121.023 90.7593 120.908 91.7029 120.795C91.9374 120.766 92.172 120.737 92.4136 120.706C92.6654 120.677 92.9172 120.648 93.1767 120.618C93.4355 120.587 93.6944 120.555 93.9611 120.522C94.7877 120.422 95.6146 120.324 96.4417 120.227C97.0022 120.159 97.5628 120.091 98.1234 120.023C99.4973 119.857 100.872 119.693 102.246 119.531C99.4089 119.674 96.5992 119.847 93.7866 120.264C93.4612 120.311 93.1359 120.358 92.8006 120.406C88.2334 121.089 83.6903 121.93 79.1469 122.754C78.8266 122.812 78.5063 122.87 78.1763 122.929C77.5692 123.039 76.9622 123.149 76.3555 123.261C75.9463 123.334 75.9463 123.334 75.5288 123.409C75.2914 123.453 75.0539 123.496 74.8093 123.541C74.0838 123.638 73.3873 123.649 72.6562 123.633C72.7529 123.343 72.8496 123.053 72.9492 122.754C74.3868 122.472 75.8244 122.191 77.2622 121.91C77.7498 121.815 78.2373 121.719 78.7248 121.624C86.6149 120.076 86.6149 120.076 88.4766 120.117C88.3387 119.816 88.2009 119.515 88.0589 119.205C87.0221 116.909 86.0965 114.678 85.5469 112.207C88.9495 112.374 92.3434 112.606 95.7383 112.892C96.0459 112.917 96.3536 112.942 96.6705 112.968C97.0759 113.002 97.0759 113.002 97.4894 113.037C98.7824 113.104 100.073 113.095 101.367 113.086C101.187 113.072 101.007 113.058 100.821 113.043C98.9436 112.897 97.0664 112.75 95.1892 112.601C94.4887 112.546 93.7882 112.491 93.0877 112.437C92.0805 112.358 91.0733 112.279 90.0661 112.199C89.5969 112.163 89.5969 112.163 89.1181 112.126C88.8249 112.102 88.5318 112.079 88.2297 112.055C87.9728 112.035 87.7158 112.015 87.451 111.994C86.7059 111.913 85.9863 111.779 85.2539 111.621C84.739 109.915 84.8766 108.095 84.8694 106.329C84.8678 106.035 84.8678 106.035 84.8662 105.734C84.8583 102.092 85.2697 98.683 86.4258 95.2148C86.4472 94.7191 86.4512 94.2225 86.4451 93.7263C86.4423 93.421 86.4395 93.1157 86.4366 92.8012C86.4322 92.4693 86.4279 92.1373 86.4235 91.7953C86.4176 91.0837 86.412 90.3721 86.4066 89.6605C86.4036 89.2874 86.4005 88.9144 86.3973 88.5301C86.3517 82.1025 86.3934 75.8041 87.3047 69.4336C87.347 69.1176 87.3894 68.8016 87.433 68.476C90.2587 47.6163 90.2587 47.6163 95.8008 42.7734ZM97.2656 52.1484C93.4346 59.403 92.0891 70.1729 92.8711 78.2227C93.1439 78.8795 93.1439 78.8795 93.457 79.3945C93.6243 79.2348 93.7916 79.075 93.964 78.9104C98.1042 75.0599 102.956 72.1351 108.223 70.1042C108.474 69.9796 108.726 69.855 108.984 69.7266C109.317 68.728 109.266 68.6319 108.842 67.7296C108.739 67.5083 108.636 67.287 108.529 67.0589C108.414 66.8214 108.298 66.5839 108.179 66.3391C108.06 66.0929 107.941 65.8466 107.819 65.593C105.413 60.7087 102.427 55.6311 98.1445 52.1484C97.8545 52.1484 97.5645 52.1484 97.2656 52.1484ZM178.418 55.957C178.186 56.173 177.955 56.3891 177.716 56.6116C174.497 59.7142 172.114 63.2229 169.922 67.0898C169.739 67.4112 169.556 67.7326 169.367 68.0637C168.513 69.4052 168.513 69.4052 168.164 70.8984C168.448 71.0336 168.732 71.1688 169.025 71.3081C174.601 74.003 179.401 77.2435 183.691 81.7383C186.828 76.4976 184.662 64.1475 183.253 58.4267C182.841 56.8507 182.301 55.3913 181.641 53.9062C180.192 53.9062 179.434 54.9976 178.418 55.957ZM133.301 66.2109C132.767 69.0597 132.259 71.803 131.982 74.6704C131.947 75.0271 131.911 75.3838 131.875 75.7512C131.447 80.2365 131.221 84.7395 130.983 89.238C130.74 93.7384 130.408 97.7346 128.65 101.935C128.523 102.252 128.395 102.57 128.264 102.897C127.333 105.173 126.306 106.936 124.585 108.71C120.683 112.957 118.827 117.945 118.937 123.714C119.16 128.933 121.55 133.166 124.182 137.531C126.484 141.483 125.453 145.343 124.53 149.652C123.901 152.688 123.287 155.693 123.047 158.789C123.018 159.149 123.018 159.149 122.989 159.516C121.922 173.75 124.194 190.089 133.123 201.708C134.301 202.811 136.398 202.676 137.925 202.881C138.867 203.027 138.867 203.027 139.746 203.32C145.209 204.091 150.637 203.56 155.859 201.855C155.859 201.662 155.859 201.469 155.859 201.27C156.131 201.226 156.131 201.226 156.409 201.183C157.151 201.011 157.151 201.011 157.617 200.024C158.379 198.349 158.894 196.597 159.375 194.824C159.442 194.582 159.509 194.339 159.579 194.09C161.006 187.836 159.678 180.932 157.896 174.899C157.765 174.451 157.765 174.451 157.63 173.993C156.407 169.899 154.955 165.88 153.526 161.854C151.67 156.614 149.946 151.467 149.414 145.898C149.376 145.525 149.337 145.151 149.297 144.767C149.1 141.992 149.755 140.194 151.084 137.79C154.591 131.396 155.955 124.064 154.395 116.895C153.431 113.637 151.862 110.935 149.579 108.435C144.731 102.611 144.487 93.5869 144.297 86.3983C144.28 85.8123 144.263 85.2263 144.246 84.6403C144.204 83.2198 144.164 81.7993 144.126 80.3787C143.997 75.6335 143.778 70.9325 143.262 66.2109C139.975 66.2109 136.688 66.2109 133.301 66.2109ZM105.359 93.219C103.879 95.1661 103.2 97.2655 103.307 99.7078C103.638 102.033 104.899 103.929 106.641 105.469C108.718 106.965 111.21 106.937 113.672 106.641C116.277 105.89 117.83 104.159 119.22 101.917C120.004 99.7628 119.873 97.1325 118.927 95.0684C117.677 92.9329 115.782 91.4548 113.379 90.8203C110.245 90.4277 107.593 90.8737 105.359 93.219ZM157.269 94.1345C155.974 95.7278 155.228 97.5368 155.273 99.6094C155.578 102.233 156.464 104.055 158.496 105.762C160.816 107.248 163.195 107.581 165.894 107.112C167.83 106.503 169.536 105.052 170.631 103.361C171.798 101.069 172.176 98.513 171.368 96.0205C170.46 93.9837 168.977 92.5243 166.961 91.6088C163.426 90.3185 159.785 91.3782 157.269 94.1345Z" fill="black"/>
<path d="M136.176 109.772C136.453 109.767 136.73 109.763 137.016 109.758C138.736 109.757 140.586 109.811 142.09 110.743C142.337 111.317 142.337 111.317 142.383 111.914C141.896 112.608 141.896 112.608 141.193 113.343C140.95 113.598 140.708 113.853 140.458 114.116C140.106 114.477 140.106 114.477 139.746 114.844C139.566 115.036 139.385 115.228 139.199 115.426C138.81 115.832 138.401 116.219 137.988 116.602C137.795 116.602 137.602 116.602 137.402 116.602C137.526 117.128 137.656 117.653 137.787 118.177C137.858 118.469 137.93 118.761 138.003 119.062C138.229 119.915 138.229 119.915 139.16 120.411C140.494 120.737 141.718 120.782 143.042 120.411C144.09 120.131 144.591 120.094 145.605 120.411C144.5 121.576 143.923 122.121 142.287 122.238C140.099 122.28 138.673 122.234 136.816 120.997C136.172 121.148 136.172 121.148 135.645 121.582C133.941 122.398 132.224 122.364 130.371 122.168C129.553 121.862 129.028 121.523 128.32 120.997C128.32 120.61 128.32 120.223 128.32 119.825C128.586 119.921 128.852 120.018 129.126 120.118C130.894 120.619 133.029 120.833 134.703 120.009C135.703 119.273 135.839 118.504 136.102 117.334C135.878 116.337 135.323 116.149 134.498 115.62C132.91 114.365 131.507 112.48 131.25 110.45C132.892 109.757 134.425 109.766 136.176 109.772Z" fill="black"/>
<path d="M164.466 96.3132C165.478 97.1807 166.023 97.7698 166.206 99.1204C166.284 100.804 166.092 101.819 164.942 103.125C164.742 103.354 164.543 103.584 164.337 103.821C162.992 104.565 161.751 104.61 160.254 104.297C159.046 103.599 158.215 102.708 157.453 101.55C157.207 100.077 157.403 98.7119 157.929 97.3203C159.765 95.2472 162.081 95.077 164.466 96.3132Z" fill="black"/>
<path d="M114.551 95.215C115.908 95.9575 116.985 96.6596 117.48 98.1447C117.654 99.8496 117.479 100.898 116.488 102.314C115.539 103.354 114.471 103.932 113.062 104.059C111.492 103.963 110.653 103.355 109.57 102.246C108.771 100.941 108.792 99.6324 108.984 98.1447C110.175 95.8064 111.926 94.8471 114.551 95.215Z" fill="black"/>
<path d="M186.035 120.41C186.232 120.447 186.428 120.484 186.631 120.521C191.799 121.485 196.972 122.422 202.148 123.34C202.293 123.775 202.293 123.775 202.441 124.219C198.841 124.084 195.339 123.383 191.803 122.736C191.185 122.624 190.567 122.512 189.95 122.401C188.449 122.13 186.949 121.857 185.449 121.582C185.643 121.195 185.836 120.809 186.035 120.41Z" fill="black"/>
<path d="M88.1836 120.41C87.8936 120.604 87.6035 120.797 87.3047 120.996C87.3047 121.093 87.3047 121.19 87.3047 121.289C85.4543 121.625 83.6035 121.958 81.7525 122.291C81.123 122.404 80.4936 122.517 79.8642 122.632C78.9591 122.796 78.0536 122.958 77.1481 123.12C76.7268 123.197 76.7268 123.197 76.2971 123.276C76.0333 123.323 75.7694 123.369 75.4976 123.418C75.2667 123.459 75.0357 123.501 74.7977 123.544C74.0767 123.639 73.3827 123.648 72.6562 123.633C72.7529 123.343 72.8496 123.053 72.9492 122.754C74.3868 122.472 75.8244 122.191 77.2622 121.91C77.7498 121.815 78.2373 121.719 78.7248 121.624C80.3143 121.312 81.9046 121.005 83.4961 120.703C83.8547 120.635 84.2133 120.566 84.5827 120.496C84.8933 120.44 85.204 120.384 85.524 120.326C85.7871 120.277 86.0502 120.229 86.3214 120.18C87.0252 120.116 87.5154 120.194 88.1836 120.41Z" fill="black"/>
<path d="M204.492 110.742C204.492 110.935 204.492 111.129 204.492 111.328C203.198 111.975 201.533 111.885 200.098 112.019C199.472 112.077 198.847 112.139 198.221 112.202C195.517 112.462 192.854 112.551 190.137 112.5C190.233 112.21 190.33 111.92 190.43 111.621C191.773 111.493 193.116 111.368 194.46 111.245C194.915 111.204 195.37 111.161 195.825 111.118C198.726 110.842 201.575 110.679 204.492 110.742Z" fill="black"/>
<path d="M71.4844 110.156C74.4621 110.089 77.3968 110.169 80.365 110.431C80.6532 110.456 80.9413 110.482 81.2382 110.508C82.4987 110.626 83.7213 110.772 84.9609 111.035C84.8643 111.325 84.7676 111.615 84.668 111.914C82.9316 111.796 81.1953 111.676 79.4591 111.555C78.8683 111.514 78.2775 111.473 77.6867 111.433C76.838 111.375 75.9894 111.316 75.1408 111.256C74.8761 111.238 74.6115 111.221 74.3389 111.202C74.0926 111.185 73.8463 111.167 73.5926 111.149C73.376 111.134 73.1593 111.119 72.9361 111.104C72.3633 111.035 72.3633 111.035 71.4844 110.742C71.4844 110.549 71.4844 110.356 71.4844 110.156Z" fill="black"/>
</svg>
