<svg width="300" height="300" viewBox="0 0 300 300" fill="none" xmlns="http://www.w3.org/2000/svg">
<path d="M137.988 49.5117C139.411 49.6809 140.688 49.9739 142.043 50.4353C142.229 50.4984 142.415 50.5615 142.607 50.6266C143.211 50.8324 143.813 51.0415 144.415 51.2512C144.623 51.3229 144.83 51.3947 145.044 51.4686C148.913 52.8092 152.696 54.3103 156.445 55.957C156.694 56.0649 156.943 56.1727 157.199 56.2838C167.528 60.7681 177.521 66.179 186.328 73.2422C186.568 73.4291 186.808 73.6161 187.055 73.8087C190.799 76.7468 194.268 79.9256 197.594 83.3265C198.228 83.974 198.87 84.6139 199.512 85.2539C199.88 85.622 200.248 85.9901 200.616 86.3583C200.81 86.5518 201.003 86.7454 201.203 86.9448C202.104 87.846 203.005 88.7472 203.906 89.6484C199.604 78.0124 190.447 65.9038 181.514 57.2937C181.003 56.7841 180.536 56.2485 180.066 55.7007C178.754 54.179 177.326 52.7717 175.874 51.384C175.54 51.0627 175.22 50.7282 174.902 50.3906C174.902 50.1973 174.902 50.0039 174.902 49.8047C179.532 50.9115 182.417 51.9941 185.814 55.4523C186.316 55.9452 186.835 56.3997 187.372 56.8542C189.847 58.9912 192.199 61.3607 194.31 63.858C194.841 64.4727 195.393 65.0651 195.948 65.6575C197.854 67.6989 199.582 69.8462 201.27 72.0703C201.428 72.2769 201.586 72.4835 201.749 72.6963C205.528 77.6416 208.921 82.8118 211.524 88.4766C211.686 88.8251 211.848 89.1737 212.014 89.5329C212.772 91.2261 213.377 92.8663 213.831 94.6655C214.367 96.6304 215.232 98.0773 216.437 99.7062C216.973 100.435 217.49 101.177 218.009 101.918C218.451 102.548 218.897 103.177 219.342 103.805C220.416 105.32 221.482 106.84 222.546 108.362C222.723 108.614 222.9 108.867 223.083 109.127C223.248 109.363 223.413 109.599 223.583 109.843C223.73 110.052 223.876 110.261 224.027 110.477C224.962 111.826 225.044 112.586 224.909 114.185C224.894 114.387 224.88 114.589 224.866 114.798C224.836 115.202 224.801 115.607 224.762 116.01C224.709 116.581 224.675 117.154 224.642 117.727C224.414 118.652 224.414 118.652 223.753 119.152C223.337 119.313 223.337 119.313 222.913 119.476C222.64 119.587 222.367 119.698 222.086 119.812C221.791 119.912 221.496 120.013 221.191 120.117C220.881 120.226 220.571 120.335 220.252 120.447C218.83 120.775 217.5 120.777 216.046 120.758C215.782 120.758 215.519 120.758 215.247 120.757C213.022 120.743 210.811 120.587 208.594 120.41C208.586 120.696 208.579 120.981 208.572 121.275C208.498 124.122 208.421 126.968 208.341 129.814C208.316 130.712 208.291 131.61 208.268 132.507C208.238 133.602 208.206 134.696 208.173 135.791C208.161 136.266 208.161 136.266 208.149 136.751C208.026 140.522 207.307 143.921 206.081 147.483C205.948 147.877 205.815 148.27 205.682 148.664C205.405 149.482 205.126 150.299 204.846 151.116C204.49 152.153 204.139 153.191 203.79 154.229C203.517 155.04 203.241 155.85 202.965 156.66C202.835 157.042 202.706 157.424 202.577 157.807C200.331 164.467 200.331 164.467 198.047 166.406C197.668 166.79 197.668 166.79 197.281 167.182C196.89 167.578 196.89 167.578 196.491 167.981C196.232 168.243 195.973 168.505 195.707 168.775C195.067 169.408 194.403 170.001 193.721 170.588C192.327 171.797 191.02 173.086 189.716 174.39C189.477 174.625 189.239 174.859 188.993 175.101C188.767 175.327 188.54 175.553 188.307 175.786C188 176.091 188 176.091 187.687 176.402C186.95 177.248 186.871 178.047 186.802 179.128C186.784 179.393 186.767 179.658 186.748 179.931C186.73 180.222 186.712 180.512 186.694 180.811C186.652 181.446 186.61 182.082 186.569 182.717C186.547 183.055 186.525 183.393 186.503 183.741C186.386 185.535 186.263 187.328 186.141 189.122C185.986 191.402 185.834 193.682 185.688 195.962C185.571 197.807 185.446 199.65 185.317 201.493C185.269 202.192 185.224 202.891 185.181 203.591C184.972 207.016 184.771 210.243 183.417 213.433C182.644 215.253 182.587 216.973 182.708 218.923C182.723 219.184 182.739 219.445 182.755 219.714C182.774 220.008 182.793 220.302 182.813 220.605C182.834 220.955 182.855 221.304 182.876 221.663C183.043 224.383 183.246 227.098 183.457 229.814C183.526 230.701 183.591 231.587 183.656 232.474C183.72 233.336 183.786 234.198 183.852 235.06C183.884 235.467 183.914 235.875 183.944 236.283C184.068 240.03 184.068 240.03 185.577 243.347C185.73 243.537 185.882 243.727 186.039 243.923C186.231 244.156 186.423 244.389 186.621 244.629C187.039 245.146 187.454 245.664 187.867 246.184C188.155 246.545 188.444 246.905 188.735 247.262C188.87 247.431 189.005 247.599 189.143 247.773C189.264 247.922 189.385 248.071 189.509 248.225C189.844 248.73 189.844 248.73 190.43 250.195C187.336 250.195 184.242 250.195 181.055 250.195C180.481 249.005 179.907 247.815 179.315 246.588C179.134 246.226 178.954 245.864 178.767 245.49C177.408 242.551 177.252 239.927 177.246 236.719C177.241 235.977 177.235 235.235 177.23 234.494C177.219 232.797 177.21 231.101 177.202 229.405C177.201 229.187 177.2 228.968 177.199 228.743C177.193 227.629 177.191 226.515 177.195 225.4C177.263 218.969 177.263 218.969 175.657 212.794C174.617 210.151 174.382 207.192 173.95 204.401C173.851 203.779 173.751 203.158 173.65 202.537C173.378 200.846 173.113 199.154 172.852 197.461C172.817 197.239 172.783 197.018 172.748 196.79C172.586 195.744 172.425 194.698 172.266 193.652C171.568 195.592 171.076 197.538 170.647 199.553C170.51 200.181 170.373 200.809 170.236 201.438C170.024 202.415 169.813 203.391 169.603 204.369C168.182 210.986 168.182 210.986 167.019 213.675C166.366 215.264 166.037 216.799 165.912 218.509C165.898 218.698 165.884 218.887 165.869 219.081C165.822 219.701 165.779 220.321 165.736 220.941C165.704 221.378 165.672 221.816 165.64 222.254C165.573 223.171 165.507 224.088 165.443 225.006C165.362 226.166 165.277 227.326 165.191 228.485C164.988 231.229 164.806 233.973 164.649 236.719C164.631 237.021 164.613 237.324 164.594 237.636C164.449 240.378 164.456 242.522 166.168 244.812C166.31 245.02 166.451 245.228 166.597 245.443C166.876 245.853 167.16 246.261 167.448 246.665C167.885 247.285 168.302 247.915 168.71 248.554C168.831 248.743 168.951 248.931 169.075 249.126C169.336 249.609 169.336 249.609 169.336 250.195C166.339 250.195 163.342 250.195 160.254 250.195C159.662 248.616 159.133 247.116 158.734 245.49C158.682 245.299 158.63 245.109 158.577 244.913C157.762 241.581 158.198 237.9 158.474 234.52C158.525 233.897 158.574 233.274 158.622 232.651C158.742 231.104 158.865 229.559 158.989 228.013C159.094 226.699 159.197 225.385 159.299 224.071C159.346 223.467 159.395 222.863 159.445 222.259C159.597 220.287 159.706 218.32 159.733 216.342C159.741 215.787 159.741 215.787 159.749 215.221C159.638 213.773 159.174 212.606 158.552 211.306C157.58 208.648 157.787 205.514 157.636 202.707C157.61 202.251 157.585 201.795 157.56 201.339C157.494 200.142 157.429 198.946 157.364 197.75C157.299 196.549 157.232 195.348 157.166 194.147C157.069 192.37 156.971 190.593 156.875 188.817C156.733 186.229 156.59 183.642 156.445 181.055C156.261 181.064 156.076 181.074 155.886 181.084C151.326 181.321 146.758 181.409 142.192 181.448C141.571 181.454 140.95 181.463 140.329 181.475C136.262 181.549 132.618 181.186 128.699 180.073C127.808 179.821 126.912 179.588 126.016 179.355C125.22 179.146 124.426 178.929 123.633 178.711C123.569 179.054 123.504 179.398 123.438 179.751C122.495 184.544 120.694 187.391 117.322 190.864C116.813 191.394 116.329 191.941 115.851 192.499C114.953 193.54 114.021 194.548 113.086 195.557C111.959 196.773 110.841 197.993 109.761 199.252C109.408 199.656 109.044 200.051 108.674 200.44C106.448 202.813 105.639 204.603 105.685 207.874C105.807 209.475 106.268 210.89 106.787 212.402C107.029 213.141 107.269 213.881 107.508 214.62C107.575 214.826 107.642 215.031 107.712 215.243C108.681 218.224 109.57 221.229 110.471 224.231C110.771 225.23 111.071 226.228 111.372 227.227C111.468 227.546 111.565 227.866 111.664 228.195C111.856 228.833 112.049 229.47 112.244 230.108C112.711 231.645 113.165 233.183 113.587 234.733C114.572 238.284 115.775 241.107 117.975 244.061C118.225 244.41 118.474 244.76 118.722 245.11C119.173 245.746 119.63 246.377 120.092 247.006C121.875 249.472 121.875 249.472 121.875 250.195C118.588 250.195 115.301 250.195 111.914 250.195C110.27 246.249 110.27 246.249 109.648 244.385C109.505 243.961 109.363 243.537 109.22 243.112C109.146 242.892 109.072 242.672 108.996 242.444C107.443 237.81 105.816 233.203 104.15 228.607C104.045 228.317 103.94 228.027 103.832 227.728C102.272 223.428 100.692 219.136 99.0813 214.855C98.4518 213.177 97.8376 211.5 97.2929 209.792C96.6549 207.799 95.8979 206.016 94.8304 204.218C94.6973 203.986 94.5641 203.754 94.427 203.515C94.1072 202.96 93.7827 202.407 93.4571 201.855C92.28 201.855 91.3539 203.143 90.5274 203.906C90.3148 204.096 90.1022 204.286 89.8831 204.482C89.6788 204.673 89.4745 204.863 89.264 205.06C89.0778 205.232 88.8916 205.403 88.6998 205.581C85.4444 209.803 85.6091 216.746 85.6019 221.759C85.5974 222.433 85.5925 223.107 85.5873 223.781C85.5798 224.794 85.5733 225.808 85.5701 226.821C85.5623 228.818 85.5115 230.807 85.4199 232.801C85.1886 238.517 85.8582 242.818 88.4405 247.983C88.7696 248.73 88.7696 248.73 89.0626 250.195C86.2589 250.195 83.4551 250.195 80.5665 250.195C80.4275 249.289 80.2885 248.383 80.1453 247.449C80.1021 247.17 80.0589 246.89 80.0144 246.603C79.9619 246.257 79.9619 246.257 79.9084 245.904C79.8555 245.559 79.8555 245.559 79.8015 245.206C79.7451 244.776 79.7451 244.776 79.6876 244.336C79.6616 244.155 79.6357 243.973 79.609 243.787C79.3098 241.365 79.3683 238.936 79.381 236.5C79.3867 235.084 79.3821 233.668 79.3791 232.252C79.3756 230.463 79.3749 228.675 79.3875 226.886C79.464 217.457 79.464 217.457 77.0341 208.416C76.0565 205.935 75.0054 203.026 75.879 200.391C76.3591 199.504 76.9602 198.792 77.6368 198.047C77.8381 197.821 78.0394 197.596 78.2468 197.364C78.6908 196.87 79.1368 196.378 79.5846 195.887C80.5026 194.861 81.3683 193.797 82.2327 192.725C82.6893 192.165 83.1534 191.612 83.6243 191.064C87.7885 186.431 87.7885 186.431 89.4411 180.73C89.2781 179.116 88.778 177.603 88.2947 176.06C88.1839 175.695 88.0731 175.33 87.9589 174.954C87.6644 173.983 87.3651 173.014 87.0647 172.045C86.7698 171.092 86.4792 170.137 86.1884 169.183C85.7826 167.852 85.3755 166.521 84.9668 165.191C84.2421 162.833 83.525 160.472 82.8149 158.109C82.6494 157.559 82.4836 157.009 82.3177 156.458C82.0237 155.478 81.7332 154.497 81.4454 153.516C81.3562 153.213 81.267 152.91 81.1751 152.598C81.0942 152.314 81.0133 152.031 80.9299 151.739C80.8234 151.368 80.8234 151.368 80.7148 150.991C80.3367 149.213 80.7278 147.485 81.5987 145.909C83.0641 143.889 85.1082 142.566 87.1898 141.261C88.3784 140.508 89.5409 139.716 90.7048 138.926C90.9315 138.772 91.1582 138.618 91.3918 138.459C92.3335 137.82 93.2748 137.179 94.2156 136.538C95.8127 135.451 97.4149 134.371 99.0235 133.301C99.235 133.159 99.4466 133.018 99.6645 132.872C100.271 132.469 100.881 132.072 101.492 131.677C101.665 131.561 101.838 131.446 102.016 131.327C104.593 129.688 107.364 129.027 110.389 128.988C110.705 128.979 111.02 128.971 111.346 128.962C112.512 128.936 113.678 128.92 114.844 128.906C115.202 128.902 115.202 128.902 115.568 128.897C120.572 128.835 125.576 128.797 130.58 128.767C132.105 128.757 133.63 128.745 135.154 128.731C135.728 128.727 136.301 128.723 136.874 128.721C141.909 128.698 145.832 128.599 149.982 125.482C151.435 124.399 152.956 123.503 154.541 122.626C154.773 122.498 155.004 122.37 155.243 122.238C158.528 120.446 161.368 120.94 164.931 121.765C165.281 121.843 165.632 121.921 165.993 122.002C167.102 122.249 168.21 122.501 169.318 122.754C170.433 123.006 171.549 123.257 172.665 123.506C173.357 123.661 174.048 123.818 174.739 123.976C175.051 124.046 175.364 124.116 175.685 124.189C175.959 124.251 176.233 124.314 176.515 124.378C177.314 124.547 177.314 124.547 178.418 124.512C179.126 122.429 179.834 120.347 180.542 118.264C180.782 117.559 181.022 116.854 181.262 116.149C182.869 111.422 184.463 106.691 186.035 101.953C185.767 101.817 185.499 101.681 185.222 101.541C179.233 98.4684 177.29 93.7451 175.195 87.5977C174.316 84.8257 174.316 84.8257 174.316 83.4961C175.986 83.6731 177.389 84.2788 178.912 84.9426C179.183 85.0599 179.453 85.1772 179.732 85.2981C183.728 87.0601 187.567 89.0315 191.106 91.607C192.178 92.3506 192.586 92.5875 193.941 92.5198C194.232 92.4423 194.524 92.3649 194.824 92.2852C193.485 90.4055 191.99 88.709 190.43 87.0117C190.154 86.7052 189.878 86.3985 189.602 86.0916C187.642 83.9207 185.581 81.9263 183.399 79.9805C183.169 79.7652 182.939 79.5499 182.702 79.3282C171.966 69.3375 158.163 62.0933 144.855 56.1241C144.503 55.9658 144.152 55.8075 143.79 55.6443C143.126 55.3479 142.46 55.0556 141.792 54.7683C141.496 54.6371 141.201 54.506 140.896 54.3709C140.638 54.2592 140.379 54.1476 140.113 54.0326C139.101 53.3895 138.696 52.5575 138.36 51.4286C138.316 51.2009 138.272 50.9732 138.226 50.7385C138.18 50.507 138.133 50.2755 138.086 50.037C138.054 49.8637 138.021 49.6903 137.988 49.5117ZM204.199 89.9414C204.492 90.5273 204.492 90.5273 204.492 90.5273L204.199 89.9414ZM181.348 91.1133C182.005 93.4126 183.206 95.0358 185.156 96.3867C186.691 97.2396 186.691 97.2396 188.379 97.5586C188.896 96.6539 188.965 96.3184 188.965 95.2148C188.516 94.7696 188.516 94.7696 187.894 94.4263C187.666 94.2887 187.439 94.151 187.205 94.0092C186.964 93.8693 186.723 93.7294 186.475 93.5852C186.243 93.4442 186.011 93.3031 185.772 93.1578C184.336 92.3022 182.93 91.6521 181.348 91.1133ZM194.824 97.2656C194.695 99.4922 195.052 101.661 195.392 103.857C195.44 104.232 195.487 104.607 195.537 104.994C195.894 107.261 196.344 108.545 198.198 109.943C198.438 110.11 198.678 110.277 198.926 110.449C199.384 110.81 199.841 111.172 200.298 111.534C200.761 111.882 201.225 112.228 201.691 112.573C201.92 112.748 202.149 112.924 202.385 113.104C204.973 115.027 207.365 115.872 210.571 116.071C210.859 116.091 211.147 116.112 211.443 116.133C212.044 116.175 212.646 116.214 213.247 116.251C214.159 116.309 215.069 116.378 215.98 116.449C216.557 116.489 217.135 116.527 217.712 116.565C217.981 116.587 218.25 116.608 218.527 116.63C219.811 116.701 220.407 116.729 221.519 116.018C221.701 115.824 221.883 115.63 222.07 115.43C221.648 114.191 221.035 113.318 220.221 112.299C216.227 107.218 212.525 101.876 209.07 96.4156C208.593 95.6271 208.593 95.6271 208.008 94.9219C206.626 94.8045 205.238 94.7916 203.851 94.7754C203.55 94.7717 203.55 94.7717 203.243 94.7679C200.117 94.748 197.165 94.9248 194.824 97.2656ZM190.723 102.539C190.551 103.033 190.551 103.033 190.375 103.537C189.932 104.81 189.488 106.083 189.045 107.356C188.846 107.927 188.646 108.499 188.447 109.071C187.389 112.107 186.329 115.141 185.254 118.171C185.171 118.402 185.089 118.634 185.004 118.873C184.617 119.964 184.229 121.053 183.84 122.143C183.702 122.53 183.565 122.917 183.427 123.304C183.248 123.805 183.248 123.805 183.066 124.317C182.782 125.054 182.782 125.054 182.813 125.684C182.98 125.777 183.147 125.871 183.32 125.968C186.595 127.808 189.861 129.663 193.103 131.561C195.419 132.916 197.736 134.269 200.061 135.608C200.453 135.836 200.453 135.836 200.853 136.068C201.093 136.205 201.332 136.343 201.579 136.485C201.789 136.606 201.998 136.727 202.215 136.852C202.725 137.153 202.725 137.153 203.32 137.109C203.54 135.717 203.664 134.358 203.706 132.949C203.716 132.656 203.716 132.656 203.725 132.356C203.759 131.288 203.784 130.22 203.805 129.152C203.814 128.716 203.823 128.281 203.832 127.845C203.836 127.632 203.841 127.418 203.845 127.198C203.875 125.984 203.956 124.793 204.1 123.586C204.4 121.153 204.4 121.153 203.482 118.974C202.318 117.837 200.984 116.988 199.599 116.146C198.577 115.503 197.648 114.758 196.71 114.001C196.554 113.879 196.397 113.757 196.236 113.632C195.928 113.39 195.622 113.145 195.319 112.896C194.96 112.609 194.589 112.338 194.21 112.077C192.901 111.1 192.337 110.362 192.016 108.742C191.929 108.116 191.852 107.489 191.785 106.86C191.705 106.23 191.623 105.6 191.54 104.97C191.509 104.693 191.478 104.416 191.446 104.131C191.343 103.346 191.343 103.346 190.723 102.539ZM160.547 125.684C160.493 133.319 160.457 140.954 160.437 148.59C160.436 148.871 160.436 149.152 160.435 149.442C160.399 163.497 160.383 177.52 161.408 191.547C161.428 191.829 161.448 192.11 161.469 192.401C161.62 197.791 161.62 197.791 162.598 203.027C164.157 203.114 164.157 203.114 165.527 202.441C165.793 201.77 165.793 201.77 165.958 200.965C166.031 200.657 166.103 200.349 166.178 200.031C166.253 199.695 166.328 199.36 166.405 199.014C166.486 198.668 166.566 198.321 166.649 197.964C166.907 196.851 167.16 195.737 167.413 194.623C167.583 193.886 167.752 193.15 167.922 192.414C168.005 192.056 168.087 191.698 168.172 191.33C168.415 190.279 168.662 189.229 168.909 188.179C169.161 187.103 169.399 186.028 169.605 184.941C170.165 182.283 171.195 180.908 173.242 179.141C176.709 176.123 178.915 172.882 180.927 168.732C181.221 168.129 181.529 167.533 181.845 166.941C182.007 166.636 182.169 166.331 182.335 166.017C182.557 165.608 182.557 165.608 182.782 165.191C183.416 163.555 183.042 161.949 182.813 160.254C182.794 159.837 182.78 159.42 182.769 159.003C182.616 155.112 181.203 152.1 179.491 148.651C178.608 146.847 177.781 145.018 176.953 143.188C176.867 142.999 176.781 142.809 176.692 142.613C175.12 139.144 173.693 135.63 172.326 132.075C172.156 131.634 172.156 131.634 171.981 131.185C171.793 130.677 171.617 130.164 171.46 129.646C171.14 128.612 170.969 128.121 170.003 127.583C169.68 127.512 169.357 127.441 169.025 127.368C168.663 127.284 168.301 127.199 167.928 127.112C167.732 127.071 167.536 127.03 167.334 126.988C166.649 126.845 165.968 126.686 165.287 126.526C162.94 125.924 162.94 125.924 160.547 125.684ZM153.811 128.452C153.582 128.603 153.353 128.755 153.117 128.91C152.874 129.072 152.631 129.234 152.38 129.401C148.129 132.152 144.145 133.383 139.059 133.394C138.587 133.399 138.587 133.399 138.105 133.403C137.076 133.412 136.047 133.417 135.019 133.422C134.301 133.428 133.583 133.433 132.865 133.439C130.984 133.454 129.103 133.466 127.223 133.477C125.3 133.489 123.377 133.504 121.454 133.518C117.688 133.547 113.922 133.571 110.156 133.594C109.875 134.587 109.884 135.058 110.263 136.028C110.358 136.276 110.454 136.525 110.552 136.781C110.658 137.049 110.765 137.317 110.875 137.593C110.984 137.875 111.093 138.156 111.205 138.446C111.56 139.362 111.92 140.277 112.28 141.193C112.524 141.821 112.768 142.449 113.012 143.077C113.495 144.323 113.98 145.569 114.466 146.814C115.327 149.02 116.178 151.23 117.023 153.442C117.211 153.929 117.211 153.929 117.404 154.425C118.484 157.253 119.4 159.911 119.33 162.964C119.326 163.319 119.326 163.319 119.322 163.682C119.285 165.565 119.083 167.39 118.781 169.249C118.646 170.265 118.632 171.242 118.652 172.266C128.118 175.881 136.668 177.482 146.777 176.953C151.273 176.808 151.273 176.808 155.859 176.66C155.859 160.515 155.859 144.369 155.859 127.734C154.858 127.734 154.621 127.905 153.811 128.452ZM179.59 129.199C179.564 130.45 179.549 131.702 179.535 132.953C179.528 133.303 179.52 133.653 179.513 134.014C179.484 137.54 180.372 140.298 181.805 143.481C181.932 143.772 182.059 144.062 182.19 144.361C182.835 145.835 183.502 147.293 184.211 148.738C186.213 152.907 187.004 156.81 187.207 161.426C187.22 161.712 187.233 161.998 187.246 162.293C187.286 163.925 187.157 165.191 186.511 166.718C186.436 166.896 186.362 167.075 186.285 167.259C185.478 169.114 184.473 170.871 183.447 172.613C183.322 172.827 183.198 173.04 183.07 173.26C182.9 173.545 182.9 173.545 182.727 173.836C182.659 173.994 182.59 174.153 182.52 174.316C182.616 174.51 182.713 174.703 182.813 174.902C184.601 173.389 186.261 171.774 187.903 170.105C188.368 169.632 188.834 169.16 189.301 168.688C189.606 168.379 189.606 168.379 189.916 168.063C190.43 167.578 190.43 167.578 191.016 167.285C191.016 167.092 191.016 166.898 191.016 166.699C191.174 166.635 191.331 166.571 191.494 166.505C192.427 165.978 193.15 165.282 193.909 164.539C194.056 164.403 194.204 164.267 194.356 164.128C196.72 161.813 197.756 158.463 198.776 155.394C198.89 155.057 199.004 154.721 199.121 154.375C199.359 153.671 199.595 152.968 199.831 152.263C200.191 151.185 200.555 150.108 200.92 149.031C201.152 148.344 201.383 147.658 201.614 146.971C201.722 146.65 201.831 146.329 201.942 145.998C202.042 145.698 202.142 145.399 202.245 145.091C202.333 144.829 202.42 144.567 202.511 144.297C202.731 143.565 202.891 142.841 203.027 142.09C202.742 141.933 202.456 141.776 202.162 141.614C196.463 138.467 190.804 135.244 185.212 131.909C184.511 131.491 183.809 131.077 183.106 130.664C182.864 130.522 182.622 130.38 182.372 130.233C182.138 130.098 181.904 129.964 181.662 129.825C181.454 129.705 181.245 129.584 181.03 129.46C180.439 129.138 180.439 129.138 179.59 129.199ZM103.175 135.99C102.967 136.121 102.759 136.251 102.545 136.385C99.8984 138.055 97.3015 139.799 94.7022 141.541C93.9568 142.039 93.2114 142.537 92.4659 143.035C91.9877 143.355 91.5097 143.675 91.032 143.996C90.0078 144.682 88.9826 145.367 87.9485 146.039C87.6318 146.246 87.3152 146.452 86.9889 146.665C86.7203 146.838 86.4517 147.012 86.1749 147.19C85.4778 147.653 85.4778 147.653 84.961 148.535C84.9877 149.181 84.9877 149.181 85.1654 149.876C85.2246 150.137 85.2838 150.398 85.3448 150.667C85.6568 151.899 86.0062 153.115 86.3778 154.33C86.4585 154.599 86.5393 154.867 86.6225 155.144C86.7957 155.719 86.9695 156.294 87.1437 156.869C87.607 158.399 88.0653 159.93 88.5235 161.461C88.6171 161.774 88.7106 162.086 88.807 162.408C89.6946 165.377 90.5607 168.353 91.4138 171.332C91.5666 171.866 91.7199 172.4 91.8735 172.933C92.0869 173.675 92.299 174.417 92.5107 175.16C92.573 175.376 92.6354 175.593 92.6997 175.816C93.825 179.79 93.9981 183.509 91.9922 187.207C91.857 187.457 91.7218 187.708 91.5826 187.966C90.1038 190.462 88.1679 192.635 86.3075 194.85C85.7257 195.547 85.1585 196.255 84.5948 196.967C83.281 198.62 81.9234 200.237 80.5665 201.855C81.3942 202.702 82.1237 203.393 83.2032 203.906C84.3457 203.805 84.8558 203.216 85.6202 202.405C86.4208 201.577 87.2171 200.773 88.0921 200.024C89.225 199.053 90.3157 198.04 91.4063 197.021C92.6474 195.863 93.8965 194.721 95.1817 193.612C96.1935 192.72 97.1787 191.799 98.1681 190.882C99.3696 189.77 100.583 188.671 101.802 187.578C103.072 186.434 104.329 185.278 105.587 184.121C106.071 183.676 106.557 183.232 107.042 182.787C107.846 182.051 108.644 181.31 109.44 180.567C109.817 180.219 110.2 179.877 110.583 179.536C113.041 177.27 113.573 174.376 114.166 171.185C114.228 170.866 114.291 170.547 114.355 170.219C115.179 165.939 115.808 161.977 114.245 157.824C114.154 157.572 114.062 157.321 113.968 157.061C113.678 156.268 113.383 155.478 113.086 154.688C112.993 154.437 112.9 154.187 112.804 153.93C112.145 152.164 111.472 150.404 110.797 148.645C110.592 148.108 110.386 147.571 110.181 147.033C109.588 145.483 108.993 143.933 108.398 142.383C108.232 141.948 108.065 141.513 107.898 141.078C107.09 138.973 106.281 136.869 105.469 134.766C104.718 134.766 103.815 135.588 103.175 135.99Z" fill="black"/>
<path d="M205.371 98.7305C205.763 99.401 206.154 100.072 206.543 100.745C206.655 100.935 206.767 101.126 206.882 101.323C207.715 102.766 207.715 102.766 207.715 103.418C207.007 103.574 206.299 103.726 205.591 103.876C205.391 103.92 205.191 103.964 204.985 104.01C202.93 104.439 202.93 104.439 202.148 104.004C201.649 103.237 201.649 103.237 201.196 102.283C201.044 101.969 200.891 101.656 200.734 101.333C200.391 100.488 200.391 100.488 200.391 99.6094C204.307 98.7305 204.307 98.7305 205.371 98.7305Z" fill="black"/>
</svg>
