<svg width="300" height="300" viewBox="0 0 300 300" fill="none" xmlns="http://www.w3.org/2000/svg">
<g clip-path="url(#clip0_75_3742)">
<path d="M113.086 69.1403C115.413 70.3993 117.337 72.0037 119.239 73.8278C119.452 74.0222 119.665 74.2167 119.884 74.4171C123.863 78.1743 128.013 83.7532 129.493 89.0621C130.073 88.8688 130.653 88.6754 131.251 88.4762C131.124 88.2377 131.124 88.2377 130.994 87.9944C130.831 87.68 130.831 87.68 130.665 87.3592C130.556 87.1519 130.447 86.9446 130.335 86.731C130.079 86.1324 130.079 86.1324 130.079 85.2535C132.109 85.3986 132.109 85.3986 134.18 85.5465C133.89 85.0661 133.89 85.0661 133.594 84.576C133.13 83.8071 133.008 83.5468 133.008 82.6168C134.428 82.8458 135.755 83.3195 137.11 83.7887C136.951 83.4817 136.951 83.4817 136.789 83.1684C136.654 82.9018 136.518 82.6352 136.377 82.3605C136.242 82.0954 136.106 81.8302 135.965 81.5571C135.645 80.859 135.645 80.859 135.645 80.2731C137.175 80.4165 138.2 81.2023 139.454 82.0309C139.357 80.5807 139.26 79.1305 139.161 77.6363C140.941 77.9925 141.207 78.4015 142.383 79.6871C142.77 78.3336 143.157 76.9801 143.555 75.5856C143.942 75.5856 144.329 75.5856 144.727 75.5856C145.017 76.2623 145.307 76.9391 145.606 77.6363C145.68 77.3682 145.755 77.1001 145.831 76.8238C145.983 76.3015 145.983 76.3015 146.137 75.7687C146.236 75.422 146.334 75.0753 146.436 74.7181C146.778 73.8278 146.778 73.8278 147.657 73.2418C148.538 75.3601 149.295 77.5043 150.001 79.6871C150.71 77.6608 151.26 75.6226 151.758 73.5348C152.145 73.5348 152.532 73.5348 152.93 73.5348C153.51 75.5651 153.51 75.5651 154.102 77.6363C154.489 76.8629 154.876 76.0895 155.274 75.2926C155.564 75.3893 155.854 75.486 156.153 75.5856C156.431 76.2138 156.431 76.2138 156.647 76.9955C156.758 77.379 156.758 77.379 156.87 77.7702C157.032 78.5153 157.032 78.5153 157.032 79.6871C157.339 79.4333 157.339 79.4333 157.652 79.1744C157.919 78.9569 158.185 78.7394 158.46 78.5153C158.725 78.2977 158.99 78.0802 159.263 77.8561C159.961 77.3434 159.961 77.3434 160.547 77.3434C160.547 78.8903 160.547 80.4371 160.547 82.0309C161.164 81.5958 161.164 81.5958 161.793 81.152C162.802 80.4394 163.072 80.2731 164.356 80.2731C164.161 81.5589 163.715 82.6113 163.184 83.7887C164.344 83.402 165.504 83.0153 166.7 82.6168C166.993 83.7887 166.993 83.7887 166.114 85.5465C167.467 85.5465 168.821 85.5465 170.215 85.5465C169.556 87.524 169.556 87.524 169.043 88.4762C169.527 88.6696 170.01 88.8629 170.508 89.0621C170.623 88.6888 170.623 88.6888 170.74 88.308C173.465 80.5977 180.204 72.5369 187.56 68.9536C189.389 68.1297 190.867 67.8095 192.807 68.4731C200.612 72.2258 205.983 81.8081 208.793 89.62C211.571 97.7005 212.343 106.129 208.721 114.095C206.22 119.005 202.203 123.175 197.008 125.212C195.551 125.68 194.306 126.001 192.774 125.976C192.779 126.16 192.783 126.344 192.788 126.533C192.932 133.205 192.427 139.598 189.258 145.605C188.872 145.605 188.485 145.605 188.086 145.605C187.969 143.555 188.407 141.622 188.801 139.618C190.637 130.129 190.542 120.333 185.11 111.976C184.764 111.476 184.407 110.988 184.04 110.504C183.92 110.345 183.8 110.187 183.676 110.024C183.046 109.232 182.434 108.628 181.617 108.027C180.284 107.021 179.45 106.28 179.139 104.627C178.423 96.4864 180.444 86.8855 185.57 80.3306C188.158 77.2449 188.158 77.2449 189.551 76.4645C191.049 76.5341 191.717 77.2723 192.703 78.3138C197.662 84.2577 200.524 91.5786 200.464 99.3343C200.467 99.6306 200.469 99.9269 200.471 100.232C200.459 104.837 199.159 108.365 195.939 111.731C192.301 115.136 192.301 115.136 191.016 115.136C191.118 115.475 191.221 115.815 191.326 116.164C191.461 116.615 191.596 117.066 191.73 117.517C191.831 117.851 191.831 117.851 191.935 118.192C192.298 119.415 192.598 120.607 192.774 121.875C196.431 121.875 199.876 119.74 202.453 117.267C204.973 114.703 206.185 111.799 207.129 108.398C207.202 108.141 207.274 107.883 207.349 107.618C208.396 103.037 207.823 98.2079 206.543 93.7496C206.441 93.3837 206.338 93.0177 206.232 92.6407C204.464 86.9003 201.576 81.9503 197.754 77.3434C197.605 77.158 197.456 76.9725 197.302 76.7815C196.613 75.908 196.613 75.908 195.704 75.2926C195.704 75.0992 195.704 74.9059 195.704 74.7067C195.535 74.6285 195.366 74.5503 195.192 74.4698C194.295 73.9956 193.542 73.3805 192.745 72.7554C191.875 72.1426 190.965 71.9105 189.903 71.9372C184.777 72.9933 179.983 79.3507 177.282 83.4179C177.077 83.7336 176.872 84.0493 176.661 84.3746C176.483 84.6481 176.305 84.9215 176.122 85.2032C174.753 87.4261 173.771 89.7789 172.793 92.1909C172.371 93.225 171.903 94.2234 171.387 95.2145C171.266 95.1148 171.144 95.0151 171.019 94.9123C163.589 89.0682 154.045 87.2625 144.772 88.3183C139.295 89.1113 133.592 91.1771 129.415 94.8769C129.247 94.9883 129.08 95.0997 128.907 95.2145C128.617 95.1178 128.327 95.0211 128.028 94.9215C127.704 94.0964 127.704 94.0964 127.387 92.9989C124.977 85.1709 119.701 77.4493 112.793 72.9488C111.222 72.1261 110.136 71.8663 108.399 72.0699C107.668 72.4833 107.137 72.8366 106.513 73.37C106.349 73.504 106.185 73.638 106.016 73.776C105.534 74.1765 105.061 74.5855 104.59 74.9996C104.354 75.2066 104.117 75.4135 103.873 75.6268C97.1121 81.9869 92.7061 91.9425 92.2925 101.172C92.149 107.107 93.7412 113.103 97.8715 117.537C100.519 120.008 103.682 121.528 107.227 122.168C107.284 121.881 107.34 121.594 107.399 121.299C107.807 119.239 108.225 117.184 108.692 115.136C108.514 115.019 108.337 114.901 108.154 114.78C104.45 112.268 100.723 109.225 99.7221 104.64C98.2913 96.5254 100.193 88.2867 104.817 81.5204C106.176 79.6018 107.531 77.7668 109.553 76.5194C110.759 76.4455 111.236 76.7692 112.148 77.5368C117.755 83.4916 120.59 92.4689 120.997 100.488C121.04 101.028 121.04 101.028 121.085 101.58C121.25 104.874 121.25 104.874 120.154 106.128C119.758 106.5 119.354 106.866 118.946 107.226C112.94 113.369 110.255 120.861 110.084 129.345C110.178 133.548 110.901 137.496 111.905 141.571C111.981 141.883 112.058 142.195 112.137 142.516C112.207 142.794 112.276 143.072 112.348 143.358C112.498 144.129 112.529 144.823 112.501 145.605C112.21 145.702 111.92 145.798 111.622 145.898C107.602 140.156 107.193 132.75 106.934 125.976C106.764 125.962 106.594 125.948 106.418 125.934C103.09 125.62 100.463 124.21 97.8521 122.168C97.5553 121.943 97.5553 121.943 97.2524 121.714C92.5195 117.89 89.8175 112.004 89.063 106.054C88.4687 94.4652 92.2292 83.9379 99.6099 74.9996C99.7644 74.8059 99.9188 74.6122 100.078 74.4125C103.409 70.388 107.809 66.7408 113.086 69.1403Z" fill="black"/>
<path d="M114.257 147.656C114.547 147.753 114.837 147.85 115.136 147.949C115.448 148.627 115.71 149.281 115.96 149.982C117.12 153.046 118.631 156.492 121.691 158.038C122.041 158.189 122.392 158.34 122.753 158.496C122.862 158.143 122.862 158.143 122.973 157.782C123.094 157.534 123.214 157.286 123.339 157.031C123.948 156.838 123.948 156.838 124.511 156.738C124.527 156.91 124.543 157.081 124.56 157.258C124.634 158.037 124.71 158.816 124.785 159.595C124.824 159.999 124.824 159.999 124.863 160.412C124.888 160.672 124.914 160.933 124.94 161.201C124.963 161.441 124.986 161.68 125.01 161.927C125.092 162.56 125.221 163.154 125.39 163.77C125.583 163.77 125.776 163.77 125.976 163.77C125.976 163.963 125.976 164.156 125.976 164.355C126.169 164.428 126.362 164.5 126.562 164.575C127.254 164.864 127.881 165.175 128.539 165.527C129.615 166.084 130.615 166.316 131.812 166.469C133.393 167.066 134.106 169.058 134.856 170.471C135.812 172.232 136.775 173.557 138.28 174.902C138.28 175.096 138.28 175.289 138.28 175.488C138.446 175.565 138.611 175.641 138.782 175.719C139.516 176.108 140.142 176.567 140.807 177.063C144.396 179.594 148.601 180.376 152.93 179.757C157.647 178.739 161.742 176.039 164.518 172.086C165.341 170.724 166.075 169.313 166.805 167.9C167.284 166.992 167.284 166.992 167.577 166.699C168.064 166.619 168.553 166.547 169.042 166.479C171.433 166.06 173.32 165.052 174.901 163.184C175.705 162.033 175.553 160.793 175.524 159.448C175.52 159.1 175.52 159.1 175.516 158.744C175.509 158.173 175.499 157.602 175.487 157.031C176.183 157.104 176.183 157.104 176.952 157.324C177.337 157.928 177.337 157.928 177.538 158.496C180.829 157.111 182.343 154.7 183.691 151.465C184.124 150.206 184.51 148.94 184.862 147.656C185.152 147.656 185.442 147.656 185.741 147.656C186.745 150.998 187.607 154.334 188.158 157.782C188.224 158.19 188.224 158.19 188.292 158.607C188.434 159.545 188.555 160.484 188.671 161.426C188.698 161.641 188.725 161.857 188.753 162.079C189.112 165.03 189.301 167.913 189.191 170.885C189.182 171.159 189.173 171.432 189.164 171.714C189.127 172.829 189.089 173.943 189.024 175.056C188.709 178.5 188.709 178.5 190.016 181.543C190.859 182.381 191.785 183.034 192.773 183.691C199.86 189.738 203.315 200.818 204.198 209.766C204.263 210.866 204.313 211.967 204.363 213.068C204.532 216.637 204.757 219.282 206.553 222.406C212.073 233.011 212.857 247.332 211.062 258.888C210.723 261.515 211.004 262.958 212.401 265.228C217.437 273.899 219.496 283.746 219.471 293.703C219.469 294.459 219.471 295.215 219.473 295.971C219.473 296.451 219.472 296.931 219.472 297.41C219.472 297.637 219.473 297.863 219.473 298.096C219.466 299.673 219.466 299.673 219.14 300C218.646 300.021 218.151 300.025 217.657 300.018C217.387 300.016 217.118 300.013 216.841 300.01C216.633 300.007 216.424 300.004 216.21 300C216.206 299.708 216.201 299.417 216.197 299.117C215.979 283.209 215.979 283.209 210.058 268.652C209.864 268.556 209.671 268.459 209.472 268.359C209.401 268.53 209.33 268.701 209.258 268.878C207.128 274.007 204.89 278.236 200.957 282.22C200.816 282.364 200.675 282.509 200.529 282.657C199.773 283.406 199.073 283.972 198.151 284.505C196.675 285.534 196.476 287.182 196.087 288.849C196.002 289.184 195.918 289.519 195.831 289.864C195.1 292.842 194.531 295.848 194.053 298.877C193.944 299.414 193.944 299.414 193.651 300C192.685 300 191.718 300 190.722 300C190.84 297.102 191.268 294.448 191.967 291.632C192.06 291.245 192.153 290.859 192.245 290.472C192.652 288.775 193.072 287.081 193.496 285.388C194.124 282.861 194.669 280.349 195.043 277.771C195.077 277.538 195.111 277.305 195.146 277.065C195.678 273.101 195.743 269.145 195.721 265.155C195.719 264.695 195.718 264.235 195.717 263.775C195.713 262.667 195.708 261.558 195.702 260.449C195.992 260.353 196.282 260.256 196.581 260.156C199.132 262.429 198.957 266.896 199.175 270.116C199.304 272.75 199.263 275.391 199.218 278.027C199.629 277.633 200.037 277.235 200.445 276.837C200.672 276.616 200.9 276.395 201.135 276.168C205.323 271.646 207.418 264.71 208.007 258.691C208.031 258.451 208.056 258.211 208.081 257.963C209.046 247.647 208.428 236.622 204.198 227.051C204.102 226.954 204.005 226.857 203.905 226.758C203.841 227.07 203.777 227.382 203.711 227.703C202.937 231.305 202.016 235.572 199.218 238.184C198.229 238.623 198.229 238.623 197.46 238.77C197.073 238.383 196.687 237.996 196.288 237.598C196.676 236.323 197.185 235.229 197.826 234.064C198.734 232.322 199.354 230.547 199.895 228.662C199.966 228.419 200.037 228.176 200.11 227.926C201.062 224.462 201.377 220.984 201.36 217.401C201.359 217.034 201.357 216.667 201.356 216.288C201.219 205.27 198.022 193.79 189.958 185.872C188.616 184.586 188.616 184.586 187.03 183.659C186.327 183.105 186.327 183.105 186.129 182.044C186.114 181.607 186.107 181.169 186.105 180.731C186.091 180.251 186.078 179.771 186.064 179.291C186.057 178.925 186.057 178.925 186.05 178.552C186.026 177.469 185.967 176.389 185.908 175.309C185.887 174.889 185.866 174.468 185.845 174.048C185.582 168.939 185.162 163.872 184.569 158.789C184.418 158.91 184.267 159.03 184.111 159.154C183.002 160.017 182.051 160.739 180.669 161.096C180.429 161.162 180.188 161.228 179.94 161.295C179.296 161.426 179.296 161.426 178.417 161.426C178.405 161.71 178.393 161.994 178.38 162.286C178.076 164.379 176.533 166.208 174.916 167.495C173.11 168.626 171.166 169.232 169.042 169.043C168.965 169.301 168.888 169.558 168.809 169.823C167.976 172.132 166.319 174.561 164.648 176.367C164.454 176.367 164.261 176.367 164.062 176.367C163.998 176.534 163.934 176.7 163.868 176.872C162.123 179.838 157.852 181.305 154.764 182.35C151.355 183.22 147.735 183.123 144.433 181.934C144.154 181.841 143.875 181.748 143.587 181.652C139.142 180.013 135.465 176.556 133.007 172.559C132.816 172.126 132.816 172.126 132.621 171.685C131.895 169.967 131.895 169.967 130.385 168.999C129.723 168.869 129.059 168.751 128.393 168.646C126.087 168.189 124.415 166.501 122.928 164.763C122.202 163.676 122.038 162.714 121.874 161.426C121.542 161.408 121.209 161.39 120.867 161.371C119.003 161.145 117.547 160.103 116.015 159.082C115.331 160.789 115.164 162.524 114.971 164.337C114.932 164.693 114.894 165.05 114.854 165.417C114.419 169.784 114.415 174.177 114.394 178.562C114.391 178.856 114.388 179.15 114.385 179.453C114.379 180.01 114.377 180.567 114.379 181.124C114.376 181.372 114.373 181.621 114.37 181.877C114.369 182.094 114.368 182.311 114.368 182.534C114.224 183.274 113.96 183.518 113.378 183.984C113.082 184.135 112.786 184.286 112.481 184.442C109.829 185.917 107.959 188.516 106.347 191.016C106.182 191.258 106.017 191.501 105.848 191.751C99.4668 201.366 97.083 213.651 99.3155 225C100.179 228.91 101.43 232.919 103.485 236.378C104.003 237.305 104.003 237.305 103.93 238.019C103.821 238.245 103.821 238.245 103.71 238.477C102.422 238.853 102.422 238.853 101.662 238.494C98.2401 235.548 97.2336 230.945 96.0928 226.758C94.561 230.185 93.593 233.626 92.8702 237.305C92.8214 237.549 92.7726 237.793 92.7223 238.045C91.9655 242.04 91.9011 246.051 91.8814 250.104C91.8791 250.355 91.8768 250.606 91.8744 250.864C91.8127 259.525 93.3657 269.981 99.7 276.453C100.252 276.984 100.682 277.392 101.366 277.734C101.363 277.456 101.36 277.177 101.357 276.89C101.346 275.833 101.34 274.777 101.334 273.72C101.331 273.267 101.327 272.814 101.322 272.361C101.278 268.386 101.382 264.498 102.831 260.742C103.316 260.63 103.805 260.533 104.296 260.449C104.589 260.742 104.589 260.742 104.608 261.767C104.602 262.228 104.595 262.69 104.587 263.151C104.581 263.661 104.575 264.172 104.57 264.682C104.567 264.951 104.564 265.219 104.56 265.496C104.484 273.366 105.401 280.66 107.387 288.282C108.4 292.175 109.121 296.001 109.569 300C108.506 300 107.442 300 106.347 300C106.304 299.76 106.261 299.52 106.216 299.273C105.703 296.476 105.152 293.687 104.589 290.9C104.516 290.53 104.443 290.161 104.368 289.781C103.855 286.672 103.855 286.672 102.143 284.156C101.881 283.988 101.618 283.821 101.348 283.649C96.0985 280.031 92.6333 274.223 91.1124 268.066C90.919 268.066 90.7257 268.066 90.5264 268.066C90.446 268.274 90.3656 268.483 90.2827 268.697C89.938 269.537 89.5501 270.344 89.1531 271.161C87.1887 275.416 85.7668 279.856 84.96 284.473C84.8939 284.849 84.8279 285.226 84.7598 285.614C84.0516 290.347 84.3224 295.228 84.3741 300C83.3106 300 82.2471 300 81.1514 300C79.3246 288.404 81.9912 275.385 87.9623 265.341C89.5614 262.789 89.5614 262.789 89.5529 259.871C88.7244 256.168 88.6671 252.361 88.6761 248.584C88.6771 247.783 88.6702 246.983 88.6628 246.182C88.6321 237.577 90.1669 226.38 95.0948 219.03C95.5859 218.114 95.6149 217.521 95.6156 216.487C95.6199 216.141 95.6241 215.795 95.6285 215.439C95.6307 215.072 95.6328 214.704 95.6351 214.325C95.7131 210.549 96.0938 206.992 96.9718 203.32C97.0246 203.099 97.0775 202.877 97.132 202.649C98.6678 196.45 101.583 190.579 105.761 185.742C105.947 185.517 106.133 185.292 106.325 185.06C107.718 183.419 109.251 181.978 111.034 180.762C111.228 180.762 111.421 180.762 111.62 180.762C111.524 180.472 111.427 180.182 111.327 179.883C110.922 177.148 110.975 174.364 110.979 171.606C110.98 171.373 110.98 171.14 110.98 170.899C111 163.005 111.801 155.202 114.257 147.656Z" fill="black"/>
<path d="M159.87 138.01C160.615 138.661 161.317 139.335 162.012 140.039C162.319 140.342 162.319 140.342 162.632 140.651C166.712 144.921 169.681 152.06 169.967 157.953C169.661 161.746 168.191 164.652 165.821 167.578C165.668 167.786 165.516 167.993 165.358 168.207C162.626 171.705 157.791 173.853 153.516 174.61C147.749 175.11 141.873 174.357 137.25 170.576C133.702 167.499 130.747 163.449 130.304 158.645C130.218 156.268 130.745 154.238 131.527 152.016C131.726 151.448 131.916 150.878 132.105 150.306C133.261 146.884 134.794 143.981 137.11 141.211C137.349 140.908 137.349 140.908 137.593 140.599C140.217 137.39 143.905 135.394 148 134.848C152.243 134.426 156.452 135.373 159.87 138.01Z" fill="black"/>
<path d="M135.351 120.41C136.358 120.483 136.358 120.483 137.401 120.703C139.067 123.202 138.74 127.818 138.28 130.664C137.616 133.438 136.483 135.797 135.076 138.263C133.004 142.002 131.605 145.526 130.663 149.707C129.528 149.194 129.528 149.194 129.198 148.535C128.974 145.591 129.277 143.017 130.085 140.192C130.342 139.262 130.524 138.356 130.663 137.402C130.325 137.427 129.986 137.451 129.638 137.476C127.847 137.46 126.63 136.84 125.328 135.627C123.667 133.849 122.885 132.367 122.956 129.912C123.189 128.074 123.835 126.492 125.225 125.244C126.531 124.265 127.664 123.779 129.334 123.808C131.009 124.074 132.607 124.773 134.179 125.391C134.193 125.175 134.207 124.959 134.222 124.737C134.244 124.451 134.266 124.165 134.289 123.871C134.309 123.589 134.329 123.307 134.35 123.016C134.484 122.083 134.662 121.099 135.351 120.41Z" fill="black"/>
<path d="M162.891 120.703C163.898 120.776 163.898 120.776 164.942 120.996C165.608 121.996 165.694 122.653 165.857 123.834C165.907 124.18 165.956 124.525 166.006 124.881C166.042 125.146 166.077 125.411 166.114 125.684C166.355 125.557 166.596 125.43 166.844 125.299C168.857 124.295 170.581 123.461 172.852 123.926C174.79 124.608 175.925 126.061 176.899 127.808C177.578 129.951 177.476 131.838 176.465 133.856C175.436 135.482 174.085 136.734 172.266 137.402C171.485 137.535 170.711 137.615 169.922 137.695C169.826 137.792 169.729 137.889 169.629 137.988C169.848 138.842 170.082 139.687 170.325 140.533C171.145 143.518 172.012 146.717 170.801 149.707C170.415 149.61 170.028 149.514 169.629 149.414C169.551 149.088 169.472 148.761 169.391 148.425C168.451 144.695 166.981 141.547 165.125 138.198C162.375 133.207 160.726 127.552 162.294 121.819C162.598 120.996 162.598 120.996 162.891 120.703Z" fill="black"/>
<path d="M183.691 247.852C183.984 248.145 183.984 248.145 184.085 248.928C183.958 250.157 183.434 250.819 182.666 251.734C182.533 251.9 182.4 252.066 182.263 252.238C181.658 252.992 181.038 253.731 180.41 254.465C170.957 265.702 170.98 285.981 169.629 300C168.662 300 167.695 300 166.699 300C168.656 260.384 168.656 260.384 179.36 249.85C180.722 248.628 181.779 247.697 183.691 247.852Z" fill="black"/>
<path d="M116.016 247.559C118.746 247.675 120.666 249.4 122.488 251.313C132.28 262.529 133.521 285.771 133.008 300C132.138 300 131.268 300 130.371 300C130.348 299.793 130.325 299.586 130.301 299.373C130.079 297.383 129.855 295.394 129.63 293.404C129.514 292.383 129.399 291.361 129.285 290.339C128.185 280.36 128.185 280.36 126.324 270.502C126.251 270.18 126.178 269.858 126.103 269.526C125.586 267.304 124.999 265.107 124.347 262.921C124.268 262.655 124.19 262.389 124.109 262.114C123.375 259.752 122.433 257.44 120.813 255.542C120.615 255.304 120.417 255.065 120.213 254.82C119.988 254.551 119.763 254.281 119.531 254.004C118.952 253.294 118.381 252.578 117.81 251.862C117.601 251.604 117.601 251.604 117.387 251.341C116.653 250.419 116.034 249.583 115.723 248.438C115.819 248.147 115.916 247.857 116.016 247.559Z" fill="black"/>
<path d="M154.101 241.992C154.294 241.992 154.488 241.992 154.687 241.992C155.19 243.342 155.436 244.649 155.584 246.075C155.608 246.3 155.632 246.525 155.657 246.757C156.512 255.283 156.15 263.783 155.181 272.278C155.116 272.864 155.05 273.451 154.985 274.038C153.495 287.356 153.495 287.356 152.929 290.039C152.639 290.039 152.349 290.039 152.05 290.039C151.821 288.227 151.717 286.469 151.732 284.643C151.733 284.38 151.734 284.116 151.736 283.845C151.74 282.98 151.748 282.115 151.757 281.25C151.76 280.954 151.763 280.658 151.766 280.354C151.791 278.083 151.827 275.812 151.867 273.541C151.873 273.189 151.879 272.836 151.886 272.473C151.978 267.37 152.117 262.271 152.325 257.172C152.336 256.89 152.347 256.609 152.358 256.318C152.475 253.364 152.64 250.416 152.894 247.47C152.913 247.224 152.932 246.977 152.952 246.723C153.108 245.048 153.505 243.564 154.101 241.992Z" fill="black"/>
<path d="M145.313 242.578C145.603 242.675 145.893 242.771 146.192 242.871C146.654 245.347 146.926 247.791 147.07 250.305C147.082 250.501 147.093 250.698 147.105 250.9C147.861 264.035 148.055 277.179 147.949 290.332C147.659 290.332 147.369 290.332 147.07 290.332C146.598 288.151 146.273 285.968 145.999 283.754C145.934 283.237 145.934 283.237 145.868 282.709C145.777 281.982 145.686 281.254 145.596 280.526C145.461 279.434 145.323 278.343 145.186 277.251C144.383 270.852 143.746 264.566 143.771 258.112C143.775 257.169 143.771 256.227 143.768 255.284C143.765 252.438 143.815 249.609 144.09 246.775C144.111 246.552 144.131 246.329 144.152 246.1C144.301 244.763 144.643 243.743 145.313 242.578Z" fill="black"/>
<path d="M183.984 190.136C184.164 192.256 184.164 192.256 183.416 193.19C182.342 194.177 181.069 194.854 179.81 195.575C175.611 198.036 171.674 200.818 167.974 203.984C167.717 204.2 167.459 204.416 167.194 204.638C166.965 204.835 166.737 205.031 166.501 205.233C165.705 205.736 165.28 205.777 164.355 205.664C163.806 205.352 163.806 205.352 163.477 204.785C163.524 203.327 163.792 202.504 164.837 201.468C164.986 201.33 165.135 201.192 165.289 201.05C165.446 200.9 165.602 200.75 165.763 200.596C167.375 199.08 169.095 197.707 170.867 196.384C171.21 196.127 171.552 195.869 171.893 195.609C180.581 188.966 180.581 188.966 183.984 190.136Z" fill="black"/>
<path d="M116.016 189.844C118.198 190.16 119.96 190.81 121.893 191.858C122.292 192.071 122.292 192.071 122.699 192.289C126.571 194.406 130.016 197.004 133.315 199.924C133.856 200.399 134.408 200.862 134.974 201.307C135.888 202.054 136.575 202.851 137.11 203.906C137.11 204.73 137.11 204.73 136.817 205.371C135.938 205.957 135.938 205.957 135.169 205.994C133.945 205.586 133.346 204.961 132.413 204.089C129.167 201.219 125.539 198.859 121.773 196.736C116.765 193.893 116.765 193.893 116.016 191.895C115.961 190.778 115.961 190.778 116.016 189.844Z" fill="black"/>
<path d="M117.774 225.293C119.805 225.888 121.321 227.033 123.047 228.223C123.354 228.419 123.661 228.616 123.978 228.819C125.871 230.056 127.491 231.389 129.09 232.983C129.263 233.156 129.437 233.329 129.615 233.508C130.496 234.412 131.29 235.273 131.836 236.426C131.745 237.396 131.745 237.396 131.543 238.184C130.811 238.586 130.811 238.586 129.785 238.77C128.885 238.343 128.185 237.666 127.442 237.012C126.994 236.63 126.546 236.248 126.097 235.868C125.77 235.591 125.444 235.313 125.119 235.034C124.038 234.112 122.931 233.254 121.784 232.416C118 229.619 118 229.619 117.188 227.637C117.115 226.721 117.115 226.721 117.188 225.879C117.381 225.686 117.574 225.492 117.774 225.293Z" fill="black"/>
<path d="M183.106 225.879C183.404 226.73 183.537 227.345 183.14 228.182C181.538 230.466 179.204 232.1 176.917 233.642C175.613 234.531 174.562 235.562 173.467 236.692C172.437 237.718 171.447 238.622 169.996 238.952C169.336 238.769 169.336 238.769 168.751 238.165C168.408 237.16 168.565 236.761 169.002 235.82C169.645 234.731 170.525 233.881 171.424 233.001C171.629 232.798 171.834 232.596 172.046 232.386C174.172 230.339 176.502 228.611 179.004 227.05C179.23 226.908 179.455 226.765 179.687 226.618C179.915 226.481 180.144 226.344 180.379 226.202C180.689 226.014 180.689 226.014 181.004 225.823C181.808 225.523 182.293 225.648 183.106 225.879Z" fill="black"/>
<path d="M178.475 207.241C178.649 207.301 178.824 207.36 179.003 207.422C179.378 208.922 179.317 209.738 178.57 211.145C177.635 212.554 176.4 213.698 175.195 214.874C175.057 215.01 174.919 215.145 174.778 215.285C169.479 220.499 169.479 220.499 167.522 220.703C166.699 220.605 166.699 220.605 166.113 219.983C165.719 218.852 165.912 218.47 166.406 217.383C166.998 216.646 167.663 216.001 168.347 215.35C168.626 215.078 168.626 215.078 168.911 214.801C170.007 213.738 171.121 212.699 172.287 211.712C172.985 211.116 173.658 210.495 174.334 209.875C177.467 207.065 177.467 207.065 178.475 207.241Z" fill="black"/>
<path d="M121.289 207.129C122.587 207.276 123.177 207.696 124.109 208.594C125.131 209.552 126.164 210.465 127.258 211.34C133.71 216.573 133.71 216.573 134.033 218.591C133.875 219.504 133.63 219.932 133.008 220.605C131.326 220.493 130.56 220.134 129.364 218.958C129.087 218.691 128.81 218.425 128.525 218.151C128.264 217.897 128.003 217.644 127.734 217.383C127.334 217.032 126.932 216.683 126.526 216.339C121.215 211.692 121.215 211.692 120.703 208.923C120.703 208.008 120.703 208.008 121.289 207.129Z" fill="black"/>
</g>
<defs>
<clipPath id="clip0_75_3742">
<rect width="300" height="300" fill="white"/>
</clipPath>
</defs>
</svg>
