<svg width="300" height="300" viewBox="0 0 300 300" fill="none" xmlns="http://www.w3.org/2000/svg">
<path d="M112.046 96.5927C112.485 96.5894 112.925 96.5836 113.364 96.5747C120.796 96.4262 128.106 98.0862 135.341 99.6117C136.142 99.7798 136.944 99.9452 137.745 100.111C142.148 101.019 146.531 101.982 150.88 103.125C150.661 104.122 150.271 104.929 149.787 105.828C147.414 110.261 146.708 114.775 146.768 119.771C146.77 120.074 146.773 120.376 146.775 120.688C146.78 121.341 146.786 121.993 146.792 122.646C146.804 124.047 146.811 125.447 146.818 126.848C146.832 129.447 146.847 132.046 146.873 134.645C146.89 136.461 146.9 138.276 146.906 140.092C146.909 140.776 146.915 141.46 146.924 142.144C146.979 146.493 146.59 150.51 145.658 154.763C144.166 161.637 145.171 168.85 148.829 174.902C152.288 179.851 157.083 182.476 162.891 183.691C164.412 183.945 165.878 184.034 167.415 184.043C167.649 184.045 167.882 184.047 168.123 184.05C168.875 184.055 169.628 184.057 170.38 184.057C170.637 184.057 170.893 184.058 171.158 184.058C175.099 184.055 178.943 183.916 182.813 183.105C183.02 183.063 183.226 183.02 183.438 182.977C185.822 182.466 187.916 181.639 190.104 180.584C195.571 178.135 200.689 179.652 206.049 181.494C208.913 182.473 211.76 183.201 214.747 183.691C214.954 183.725 215.161 183.76 215.374 183.795C220.193 184.546 225.12 184.333 229.981 184.277C229.981 185.961 229.038 186.69 227.919 187.846C220.968 194.644 208.372 195.316 199.22 195.996C198.886 196.021 198.886 196.021 198.547 196.047C186.573 196.929 171.855 196.815 160.841 191.308C160.838 191.516 160.835 191.723 160.831 191.937C160.803 193.903 160.773 195.868 160.741 197.833C160.725 198.843 160.709 199.853 160.695 200.864C160.678 202.027 160.659 203.191 160.64 204.354C160.635 204.714 160.631 205.074 160.626 205.444C160.542 210.294 160.542 210.294 159.732 211.28C159.512 211.433 159.291 211.585 159.065 211.743C158.826 211.908 158.588 212.074 158.342 212.245C155.591 213.953 153.232 214.563 150.001 214.544C149.702 214.543 149.404 214.541 149.096 214.54C144.602 214.471 139.567 213.64 136.231 210.351C134.522 208.248 134.103 205.899 134.059 203.256C134.053 203.038 134.048 202.82 134.042 202.596C134.025 201.909 134.011 201.223 133.997 200.537C133.986 200.067 133.975 199.598 133.963 199.129C133.935 197.987 133.91 196.845 133.888 195.703C133.642 195.706 133.397 195.709 133.144 195.712C123.451 195.816 113.866 195.28 104.298 193.652C104.305 194.097 104.305 194.097 104.312 194.551C104.328 195.664 104.338 196.776 104.346 197.888C104.35 198.367 104.356 198.847 104.364 199.326C104.458 205.349 104.458 205.349 102.946 207.086C100.431 209.52 96.6184 209.241 93.3477 209.25C92.735 209.252 92.1226 209.262 91.51 209.271C86.6466 209.309 81.3205 208.547 77.6375 205.078C74.8857 201.805 75.2721 197.008 75.2938 192.978C75.2936 192.175 75.2926 191.371 75.2913 190.568C75.2929 190.021 75.2988 189.474 75.3088 188.928C75.4721 185.17 75.4721 185.17 73.758 181.979C73.2984 181.567 72.8342 181.161 72.3641 180.761C71.8144 180.09 71.3361 179.382 70.8626 178.656C70.7407 178.469 70.6188 178.283 70.4932 178.091C67.7496 173.795 65.9182 168.81 64.9082 163.824C64.5665 162.168 64.3231 161.033 62.9341 159.997C62.7045 159.851 62.4749 159.705 62.2383 159.554C59.496 157.739 57.627 154.716 56.8722 151.559C56.1534 147.134 57.1173 143.66 59.6337 140.025C60.1176 139.374 60.6035 138.796 61.2313 138.281C61.4246 138.281 61.618 138.281 61.8172 138.281C61.8916 138.451 61.966 138.621 62.0426 138.796C62.6201 140.106 63.2142 141.4 63.868 142.675C63.9647 142.675 64.0613 142.675 64.1609 142.675C64.1872 142.503 64.2135 142.332 64.2406 142.154C65.1688 136.201 66.471 130.525 69.1414 125.097C69.2312 124.912 69.3211 124.727 69.4136 124.537C70.8143 121.688 72.4925 119.124 74.4148 116.601C74.6086 116.341 74.8023 116.081 75.0019 115.814C82.7361 105.885 94.0294 98.5805 106.575 96.8168C108.393 96.5959 110.217 96.6022 112.046 96.5927Z" fill="black"/>
<path d="M191.401 132.037C191.793 132.038 192.186 132.038 192.578 132.039C199.507 132.05 206.385 132.331 213.282 133.008C213.516 133.03 213.75 133.053 213.992 133.076C215.581 133.231 217.169 133.398 218.756 133.575C219.053 133.608 219.053 133.608 219.355 133.64C225.126 134.281 230.179 135.514 234.375 139.746C234.672 140.023 234.672 140.023 234.975 140.306C239.637 144.996 241.3 152.178 242.286 158.496C242.339 158.811 242.392 159.126 242.447 159.451C243.017 164.198 243.052 168.894 240.088 172.87C238.355 174.896 236.584 176.497 234.192 177.704C233.697 177.958 233.697 177.958 233.192 178.218C230.436 179.461 227.799 179.735 224.799 179.7C224.244 179.696 224.244 179.696 223.677 179.691C217.11 179.588 211.095 178.474 204.989 176.104C198.651 173.677 193.084 174.129 186.895 176.747C182.658 178.5 177.907 179.329 173.326 179.356C173.098 179.358 172.871 179.36 172.636 179.361C172.157 179.364 171.678 179.366 171.199 179.367C170.479 179.37 169.76 179.379 169.041 179.388C163.764 179.424 158.93 178.506 154.887 174.878C151.398 171.313 149.823 166.398 149.872 161.481C149.874 161.163 149.877 160.846 149.879 160.519C150.009 154.002 151.408 144.271 156.171 139.347C165.344 131.597 180.065 132.006 191.401 132.037ZM171.973 140.076C171.796 140.159 171.62 140.242 171.437 140.327C170.074 141.009 169.319 141.745 168.457 142.969C168.257 144.237 168.303 144.782 169.007 145.862C169.835 146.69 170.073 146.764 171.261 146.875C172.771 146.854 173.868 146.244 175.159 145.514C175.381 145.396 175.603 145.277 175.832 145.155C177.163 144.43 177.163 144.43 178.125 143.262C178.102 141.977 177.974 141.378 177.137 140.387C176.101 139.483 176.101 139.483 174.829 139.066C173.767 139.19 172.914 139.597 171.973 140.076ZM215.332 140.332C214.578 141.087 214.642 141.443 214.618 142.493C214.607 142.773 214.595 143.053 214.583 143.342C214.682 144.19 214.682 144.19 215.37 144.788C217.274 145.975 219.815 146.813 222.071 146.484C223.083 146.07 223.467 145.706 224.085 144.8C224.486 143.64 224.454 142.973 224.121 141.797C223.114 140.782 221.797 140.507 220.459 140.131C220.237 140.065 220.014 139.999 219.785 139.931C218.022 139.423 216.93 139.239 215.332 140.332Z" fill="black"/>
<path d="M158.988 87.0982C161.345 88.8279 163.182 91.147 164.942 93.4566C166.123 93.2586 167.175 92.8943 168.293 92.4678C178.924 88.6079 191.421 90.2053 201.65 94.5987C202.39 94.9583 202.39 94.9583 203.028 94.9214C203.396 94.3665 203.739 93.7954 204.071 93.2185C205.812 90.2952 207.816 87.4002 210.938 85.8394C212.683 85.6762 214.146 85.6865 215.625 86.7183C217.531 88.7103 217.816 90.2863 217.765 92.9782C217.446 96.7859 215.118 99.291 212.533 101.9C212.11 102.246 212.11 102.246 211.524 102.246C212.094 103.252 212.668 104.252 213.271 105.239C217.685 112.58 217.177 120.339 217.09 128.613C216.928 128.599 216.765 128.585 216.598 128.57C214.872 128.422 213.146 128.274 211.42 128.128C210.78 128.074 210.14 128.019 209.5 127.964C203.69 127.463 197.893 127.084 192.06 127.093C191.851 127.093 191.642 127.093 191.427 127.093C170.959 127.024 170.959 127.024 153.191 135.697C152.637 136.23 152.637 136.23 152.051 136.523C151.82 134.07 151.691 131.628 151.635 129.166C151.626 128.81 151.618 128.455 151.61 128.089C151.593 127.342 151.578 126.596 151.563 125.849C151.546 125.093 151.528 124.337 151.508 123.581C151.31 116.228 151.806 109.356 156.829 103.509C156.993 103.285 157.156 103.062 157.325 102.832C156.961 101.742 156.583 101.572 155.64 100.946C155.241 100.673 155.241 100.673 154.834 100.395C154.472 100.151 154.472 100.151 154.102 99.9019C152.362 98.7157 151.289 97.0626 150.476 95.1411C150.084 92.7849 149.81 89.9861 151.172 87.8902C153.457 85.3741 156.134 85.3679 158.988 87.0982ZM202.167 115.759C201.698 117.028 201.665 118.196 201.856 119.531C202.387 120.654 202.823 121.152 203.852 121.838C205.101 122.279 206.124 122.44 207.391 121.955C208.564 121.347 209.248 120.74 209.766 119.531C210.189 118.172 210.013 117.244 209.48 115.966C208.859 114.854 208.013 114.357 206.836 113.964C204.821 113.771 203.544 114.248 202.167 115.759ZM167.578 115.136C166.333 116.48 166.01 117.353 166.03 119.144C166.188 120.432 166.928 121.211 167.798 122.113C168.997 122.745 170.13 122.926 171.433 122.591C172.822 122.005 173.574 121.261 174.151 119.866C174.502 118.537 174.367 117.514 173.701 116.312C172.769 115.054 171.832 114.5 170.286 114.263C169.199 114.254 168.497 114.578 167.578 115.136Z" fill="black"/>
<path d="M168.751 198.926C170.185 199.071 171.603 199.246 173.025 199.483C178.431 200.374 183.793 200.725 189.258 200.977C189.925 201.009 190.592 201.043 191.259 201.076C192.643 201.145 194.027 201.209 195.411 201.27C195.445 202.258 195.466 203.247 195.484 204.236C195.494 204.515 195.504 204.793 195.514 205.08C195.538 206.795 195.435 207.846 194.239 209.18C191.845 211.068 188.092 211.388 185.157 211.523C184.905 211.536 184.653 211.548 184.394 211.56C179.808 211.668 174.546 211.006 171.094 207.715C169.567 206.201 168.734 204.858 168.693 202.645C168.697 202.199 168.704 201.752 168.714 201.306C168.717 201.077 168.719 200.847 168.722 200.61C168.729 200.049 168.739 199.487 168.751 198.926Z" fill="black"/>
<path d="M110.449 199.512C110.706 199.537 110.964 199.562 111.229 199.588C117.124 200.155 122.983 200.56 128.906 200.684C128.914 201.508 128.92 202.332 128.925 203.156C128.927 203.391 128.929 203.626 128.932 203.868C128.935 204.467 128.922 205.065 128.906 205.664C127.985 206.586 124.878 206.049 123.63 206.049C119.36 206.003 114.761 205.269 111.58 202.112C110.449 200.675 110.449 200.675 110.449 199.512Z" fill="black"/>
</svg>
