<svg width="300" height="300" viewBox="0 0 300 300" fill="none" xmlns="http://www.w3.org/2000/svg">
<path d="M120.807 80.8912C122.662 81.3441 124.225 80.9104 126.014 80.2915C130.667 78.834 136.71 78.2657 141.505 79.3943C142.091 80.2732 142.091 80.2732 142.054 81.1521C141.744 82.2144 141.584 82.3828 140.626 82.91C140.193 83.0944 139.76 83.2774 139.326 83.4593C138.124 83.9809 137.391 84.5429 136.524 85.5467C136.348 85.7427 136.172 85.9387 135.991 86.1406C134.977 87.232 134.977 87.232 134.18 88.4764C134.366 88.4231 134.551 88.3699 134.741 88.315C135.626 88.0663 136.514 87.83 137.403 87.5975C137.721 87.5136 138.038 87.4298 138.366 87.3434C141.232 86.6522 144.826 85.975 147.639 87.2129C148.536 87.8904 148.536 87.8904 148.884 88.6045C148.812 89.5843 148.568 90.0576 147.95 90.8201C146.929 91.3212 146.094 91.4659 144.965 91.4976C142.803 91.6668 140.87 92.4211 139.436 94.0977C138.881 94.8624 138.881 94.8624 138.575 95.5076C138.876 95.4476 139.177 95.3875 139.487 95.3256C146.752 93.9003 146.752 93.9003 149.415 94.9217C150.001 95.8006 150.001 95.8006 149.946 96.6795C149.693 97.6144 149.587 97.8726 148.829 98.4373C147.992 98.5998 147.992 98.5998 147.016 98.6936C145.289 98.9213 143.998 99.3299 142.677 100.488C142.58 100.681 142.483 100.875 142.384 101.074C144.317 101.074 146.251 101.074 148.243 101.074C148.829 102.539 148.829 102.539 148.554 103.399C147.822 104.486 146.984 105.317 145.899 106.054C145.706 106.054 145.513 106.054 145.313 106.054C145.12 106.828 144.927 107.601 144.727 108.398C144.89 108.275 145.052 108.151 145.219 108.024C145.432 107.864 145.644 107.703 145.863 107.538C146.073 107.378 146.284 107.218 146.501 107.054C147.592 106.263 148.367 106.3 149.708 106.347C149.901 106.444 150.095 106.541 150.294 106.64C150.163 108.185 149.976 109.575 149.415 111.035C149.543 110.929 149.67 110.823 149.802 110.715C150.701 110.014 151.268 109.597 152.418 109.442C153.223 109.57 153.223 109.57 154.102 110.156C154.081 110.361 154.06 110.565 154.038 110.776C154.011 111.043 153.984 111.31 153.956 111.584C153.929 111.849 153.901 112.114 153.873 112.388C153.8 113.066 153.8 113.066 153.809 113.672C153.934 113.545 154.058 113.418 154.186 113.287C155.142 112.379 155.633 111.944 156.977 111.767C157.911 111.914 157.911 111.914 158.497 112.5C158.49 113.134 158.49 113.134 158.387 113.855C158.355 114.094 158.322 114.334 158.289 114.58C158.261 114.764 158.233 114.947 158.204 115.137C158.361 114.949 158.518 114.762 158.68 114.569C159.524 113.836 160.025 113.718 161.134 113.672C161.52 113.865 161.907 114.058 162.305 114.258C162.305 115.224 162.305 116.191 162.305 117.187C162.565 116.94 162.825 116.692 163.093 116.437C163.946 115.715 163.946 115.715 164.906 115.777C165.111 115.856 165.316 115.934 165.528 116.015C165.625 116.402 165.722 116.789 165.821 117.187C166.141 117.157 166.462 117.127 166.792 117.096C167.326 117.141 167.326 117.141 167.872 117.187C168.421 117.883 168.421 117.883 168.751 118.652C168.847 118.846 168.944 119.039 169.044 119.238C169.461 119.283 169.461 119.283 169.886 119.33C170.802 119.531 170.802 119.531 171.369 120.209C171.701 121.047 171.721 121.349 171.388 122.168C171.823 121.878 171.823 121.878 172.266 121.582C173.264 121.623 173.823 121.694 174.574 122.369C174.988 123.221 174.967 123.869 174.903 124.804C175.066 124.653 175.229 124.502 175.398 124.347C176.075 123.926 176.075 123.926 176.881 124.017C177.207 124.117 177.207 124.117 177.54 124.219C177.54 124.895 177.54 125.572 177.54 126.269C177.939 126.17 177.939 126.17 178.346 126.068C179.298 125.976 179.298 125.976 179.975 126.306C180.886 127.318 180.8 128.479 180.763 129.785C181.125 129.761 181.488 129.737 181.861 129.712C182.748 129.718 183.069 129.763 183.857 130.224C184.492 131.329 184.232 132.068 183.985 133.301C184.759 133.397 185.532 133.494 186.329 133.594C186.978 135.144 186.978 135.144 186.659 136.194C186.55 136.399 186.441 136.605 186.329 136.816C186.509 136.806 186.689 136.796 186.875 136.785C187.112 136.777 187.348 136.769 187.592 136.761C187.827 136.751 188.061 136.741 188.303 136.73C188.966 136.816 188.966 136.816 189.486 137.203C190.027 137.945 189.92 138.562 189.845 139.453C189.748 139.646 189.651 139.84 189.552 140.039C189.878 140.123 190.204 140.208 190.54 140.295C191.602 140.625 191.602 140.625 192.188 141.211C192.286 142.773 192.286 142.773 191.895 143.554C192.173 143.681 192.451 143.808 192.738 143.939C193.653 144.433 193.653 144.433 194.239 145.312C194.137 146.305 193.842 147.081 193.36 147.949C193.632 147.985 193.904 148.022 194.184 148.059C195.118 148.242 195.118 148.242 195.997 148.828C196.106 149.659 196.096 150.127 195.662 150.852C195.337 151.454 195.337 151.454 195.607 152.042C195.796 152.346 195.796 152.346 195.989 152.657C196.13 152.892 196.271 153.127 196.416 153.369C196.574 153.623 196.732 153.876 196.894 154.138C198.367 156.607 199.728 159.111 201.014 161.682C201.177 162.004 201.34 162.326 201.507 162.657C202.266 164.181 202.938 165.623 203.321 167.285C203.652 167.275 203.984 167.265 204.325 167.254C205.712 167.256 207.004 167.485 208.357 167.779C208.722 167.858 208.722 167.858 209.095 167.939C217.187 169.768 222.216 174.109 226.759 180.762C226.892 180.953 227.025 181.145 227.162 181.343C230.962 186.845 233.543 193.02 232.911 199.804C232.63 200.943 232.258 201.976 231.739 203.027C231.921 203.06 232.103 203.093 232.291 203.127C232.911 203.32 232.911 203.32 233.46 204.071C233.874 205.334 233.782 206.227 233.204 207.422C232.751 208.032 232.751 208.032 232.032 208.594C231.195 208.717 230.467 208.77 229.629 208.771C229.266 208.778 229.266 208.778 228.897 208.786C228.094 208.8 227.292 208.806 226.49 208.811C225.921 208.82 225.352 208.828 224.784 208.837C223.001 208.862 221.218 208.875 219.434 208.887C219.158 208.888 218.882 208.89 218.597 208.892C214.743 208.92 210.889 208.922 207.035 208.916C205.525 208.914 204.015 208.914 202.505 208.914C199.669 208.913 196.833 208.911 193.996 208.908C190.757 208.904 187.519 208.903 184.28 208.901C177.639 208.898 170.997 208.893 164.356 208.887C164.403 209.256 164.45 209.626 164.499 210.006C164.883 213.021 164.785 215.723 163.166 218.371C162.009 219.405 160.839 219.843 159.376 220.312C159.182 220.379 158.988 220.445 158.789 220.514C156.813 221.108 154.449 221.374 152.583 220.422C151.943 219.584 151.804 219.015 151.759 217.969C151.855 217.775 151.952 217.582 152.052 217.383C151.909 217.486 151.766 217.589 151.619 217.695C148.954 219.551 145.716 221.706 142.384 221.484C141.043 221.03 140.019 220.578 139.161 219.433C138.718 218.216 138.549 217.203 138.575 215.918C138.358 215.981 138.141 216.045 137.917 216.11C133.888 217.175 129.586 217.456 125.849 215.35C124.558 214.311 124.558 214.311 124.22 213.574C124.131 211.674 124.747 210.488 125.684 208.887C123.036 208.873 120.387 208.863 117.739 208.856C116.509 208.853 115.279 208.849 114.049 208.842C112.862 208.836 111.675 208.832 110.487 208.831C110.035 208.83 109.582 208.828 109.129 208.825C108.495 208.82 107.86 208.82 107.225 208.82C106.864 208.819 106.503 208.817 106.131 208.816C104.609 208.928 103.723 209.346 102.723 210.48C101.259 211.984 99.9199 212.448 97.8341 212.53C96.33 212.485 95.459 212.298 94.3367 211.23C93.9274 210.705 93.5476 210.176 93.1878 209.616C92.8881 209.131 92.8881 209.131 92.286 208.887C92.2376 209.128 92.1893 209.37 92.1395 209.619C91.3938 211.359 90.0394 212.487 88.5323 213.592C86.8375 214.091 85.2209 213.964 83.6125 213.222C82.2607 212.384 81.3586 211.62 80.8602 210.058C80.8052 209.216 80.8052 209.216 80.8602 208.594C80.5271 208.689 80.194 208.785 79.8508 208.883C78.5233 209.214 77.2786 209.257 75.9163 209.234C75.6999 209.234 75.4835 209.234 75.2606 209.234C74.1294 209.225 73.0228 209.162 71.8992 209.031C70.2684 208.864 68.6567 208.854 67.0188 208.867C66.7035 208.869 66.3882 208.87 66.0634 208.871C65.3842 208.874 64.705 208.878 64.0258 208.882C62.9508 208.889 61.8759 208.893 60.8009 208.896C57.7463 208.906 54.6917 208.918 51.6372 208.937C49.7646 208.948 47.8921 208.954 46.0195 208.958C45.3069 208.961 44.5942 208.965 43.8816 208.97C42.8873 208.978 41.8931 208.981 40.8988 208.982C40.6046 208.985 40.3103 208.989 40.0072 208.993C38.5452 208.988 37.5071 208.981 36.3289 208.008C35.6367 207.118 35.6224 206.142 35.6469 205.049C35.7951 204.19 36.2306 203.823 36.9149 203.32C37.6176 202.969 38.0411 202.994 38.8254 203.001C39.1043 203.002 39.3831 203.003 39.6704 203.005C39.9774 203.008 40.2844 203.01 40.6006 203.013C41.2693 203.017 41.938 203.021 42.6067 203.024C42.9626 203.027 43.3186 203.029 43.6853 203.031C45.7613 203.043 47.8373 203.04 49.9132 203.04C52.1114 203.04 54.3093 203.045 56.5074 203.064C58.44 203.081 60.3723 203.082 62.305 203.075C63.0417 203.074 63.7784 203.079 64.5151 203.089C65.5472 203.103 66.5777 203.098 67.6098 203.089C67.9139 203.097 68.2179 203.106 68.5311 203.114C69.8292 203.086 70.5909 203.053 71.5186 202.093C72.0665 201.323 72.0665 201.323 72.508 200.529C73.7387 198.511 76.037 197.529 78.2235 196.875C79.2287 196.657 80.2355 196.451 81.2438 196.248C84.5382 195.537 87.6773 194.26 90.8211 193.066C90.8034 192.908 90.7856 192.75 90.7673 192.587C89.5514 181.375 89.3329 169.22 94.5799 158.963C95.5775 156.995 96.32 155.035 96.9735 152.929C98.4525 148.221 100.491 143.68 103.341 139.635C103.807 138.669 103.688 138.129 103.419 137.109C102.667 137.29 101.942 137.499 101.203 137.732C100.196 137.988 100.196 137.988 99.3172 137.695C98.9528 136.966 98.9953 136.487 99.0059 135.673C99.0082 135.388 99.0105 135.103 99.0128 134.809C99.0204 134.208 99.028 133.606 99.0357 133.004C99.038 132.718 99.0402 132.433 99.0426 132.139C99.046 131.877 99.0493 131.616 99.0529 131.346C99.0538 130.618 99.0538 130.618 98.7313 129.785C98.5379 129.688 98.3446 129.592 98.1453 129.492C98.0456 129.764 98.0456 129.764 97.9439 130.041C97.4359 130.864 97.0187 131.008 96.0946 131.25C95.4606 131.116 95.4606 131.116 94.9227 130.957C94.4351 129.228 94.2237 127.621 94.1536 125.83C94.1423 125.589 94.131 125.348 94.1193 125.1C94.092 124.513 94.0676 123.926 94.0438 123.34C93.3925 123.984 92.7659 124.631 92.1578 125.317C91.4071 125.976 91.4071 125.976 90.5831 126.068C90.2658 126.023 90.2658 126.023 89.9422 125.976C88.6535 123.767 88.162 121.415 87.5985 118.945C86.9217 119.429 86.2449 119.912 85.5477 120.41C84.5843 120.014 84.2014 119.691 83.7716 118.744C83.676 118.537 83.5805 118.331 83.482 118.118C83.3903 117.907 83.2985 117.697 83.2039 117.48C83.1152 117.279 83.0264 117.078 82.935 116.87C82.7274 116.392 82.5256 115.911 82.325 115.429C82.1317 115.623 81.9383 115.816 81.7391 116.015C80.732 116.125 80.732 116.125 79.6883 116.015C78.91 115.207 78.6667 114.492 78.4752 113.402C78.4212 113.125 78.3672 112.849 78.3116 112.564C78.205 111.989 78.1019 111.414 78.0026 110.838C77.5811 108.728 76.8248 107.545 75.2938 106.054C73.3295 103.772 73.1214 101.369 73.14 98.4293C73.2912 96.7204 73.7806 95.1789 74.3084 93.5541C74.8344 91.9345 75.1922 90.2807 75.5604 88.6194C76.3543 86.0784 78.1748 84.5363 80.439 83.2945C84.7721 81.3167 89.8703 81.3385 94.5409 80.9392C98.1081 80.6308 101.564 80.2821 105.03 79.3599C110.333 78.0225 115.765 79.052 120.807 80.8912ZM101.668 84.1972C96.6096 85.1556 91.5556 85.7263 86.4266 86.1326C86.4122 86.3305 86.3979 86.5284 86.3831 86.7323C86.3612 86.9936 86.3393 87.255 86.3167 87.5242C86.2963 87.7825 86.2759 88.0408 86.2549 88.307C86.1315 89.0753 85.9702 89.583 85.5477 90.2342C84.7054 90.637 84.7054 90.637 83.7899 90.8201C83.0941 90.5638 83.0941 90.5638 82.618 90.2342C82.5761 88.0578 82.5761 88.0578 82.911 87.0115C81.7405 87.4017 81.0598 87.8147 80.2742 88.7693C79.9643 89.5655 79.711 90.3125 79.4869 91.1314C79.3927 91.4619 79.3927 91.4619 79.2967 91.7991C78.8268 93.5177 78.5837 95.1912 78.5164 96.9725C78.7537 97.0094 78.7537 97.0094 78.9957 97.0472C81.2085 97.4377 83.2954 98.1355 85.4141 98.8628C86.4864 99.2306 87.5609 99.5921 88.6353 99.9536C88.8483 100.025 89.0613 100.097 89.2808 100.171C91.6414 100.963 94.021 101.687 96.4081 102.395C97.3 102.66 98.1814 102.94 99.0586 103.251C102.861 104.579 106.833 104.968 110.833 105.276C113.605 105.534 115.728 106.44 118.116 107.804C118.484 108.01 118.857 108.205 119.236 108.391C119.798 108.675 119.798 108.675 120.704 109.277C120.907 110.047 120.907 110.047 120.997 110.742C120.758 110.688 120.52 110.635 120.274 110.579C118.376 110.161 116.48 109.78 114.562 109.463C108.716 108.489 102.944 107.284 97.1749 105.926C96.8419 105.849 96.5089 105.771 96.1658 105.691C92.4928 104.833 88.8533 103.895 85.2421 102.803C84.9335 102.711 84.625 102.619 84.307 102.524C82.5776 101.988 81.0034 101.344 79.4129 100.475C78.7874 100.133 78.7874 100.133 77.9305 100.195C77.6827 101.806 78.2673 102.699 79.1768 103.957C82.3979 107.942 88.6679 110.424 93.2307 112.504C93.7508 112.793 93.7508 112.793 94.141 113.469C94.7753 114.493 95.6177 115.066 96.5889 115.741C96.9855 116.024 97.3818 116.307 97.778 116.591C97.983 116.737 98.188 116.883 98.3993 117.033C99.4235 117.766 100.433 118.519 101.441 119.275C101.738 119.497 101.738 119.497 102.04 119.723C103.163 120.568 104.261 121.434 105.341 122.333C110.003 126.171 115.077 129.826 121.442 129.633C122.701 129.389 123.435 128.716 124.22 127.734C125.671 125.412 125.762 122.392 125.184 119.759C125.102 119.436 125.019 119.113 124.934 118.78C124.426 116.62 124.547 114.678 124.707 112.489C124.815 111.015 124.853 109.547 124.86 108.069C124.864 107.847 124.868 107.625 124.872 107.397C124.875 106.014 124.695 104.773 124.349 103.433C124.155 102.534 124.181 101.697 124.22 100.781C125.71 101.326 126.57 101.736 127.442 103.125C128.782 106.597 128.348 110.666 128.284 114.326C128.265 116.412 128.4 118.378 128.769 120.433C129.299 123.717 128.879 127.108 126.948 129.895C125.759 131.323 124.239 132.708 122.462 133.301C116.006 133.845 110.034 130.915 105.177 126.855C104.167 125.948 103.179 125.018 102.213 124.063C102.039 123.893 101.865 123.723 101.685 123.548C101.532 123.395 101.378 123.242 101.22 123.084C100.756 122.666 100.756 122.666 99.9031 122.754C101.025 124.548 102.175 126.311 103.402 128.035C103.874 128.717 104.331 129.402 104.782 130.097C106.667 132.995 108.676 135.707 110.9 138.353C111.51 139.084 112.105 139.828 112.702 140.57C113.836 141.967 115.06 143.265 116.319 144.549C116.97 145.412 117.101 146.004 117.188 147.07C116.705 147.36 116.222 147.65 115.723 147.949C116.298 150.113 117.1 152.075 118.086 154.083C118.227 154.374 118.369 154.665 118.514 154.965C118.948 155.851 119.386 156.734 119.825 157.617C119.957 157.883 120.088 158.149 120.224 158.422C121.611 161.209 122.99 163.793 125.098 166.113C125.275 166.321 125.452 166.528 125.634 166.742C128.917 170.53 132.524 174.22 136.524 177.246C136.847 177.506 137.17 177.767 137.492 178.028C139.922 179.958 142.498 181.578 145.185 183.124C145.513 183.312 145.84 183.501 146.178 183.695C147.716 184.566 149.233 185.39 150.88 186.035C151.949 183.563 152.726 181.654 151.759 179.004C151.09 178.148 151.09 178.148 150.257 177.392C149.991 177.136 149.724 176.879 149.449 176.614C148.796 176.009 148.125 175.427 147.45 174.846C145.931 173.524 144.518 172.099 143.098 170.672C142.832 170.408 142.566 170.143 142.293 169.871C140.953 168.53 139.651 167.176 138.427 165.729C137.977 165.22 137.5 164.761 137 164.3C133.288 160.613 130.367 155.023 130.315 149.759C130.318 148.764 130.34 147.772 130.372 146.777C130.736 146.571 131.103 146.371 131.471 146.173C131.674 146.061 131.878 145.949 132.089 145.833C132.822 145.567 133.165 145.639 133.888 145.898C133.913 146.228 133.938 146.558 133.964 146.897C134.435 152.298 135.958 156.8 139.552 160.97C139.704 161.147 139.856 161.323 140.013 161.505C141.671 163.408 143.433 165.2 145.223 166.978C145.774 167.526 146.322 168.077 146.869 168.628C150.923 172.961 150.923 172.961 156.025 175.689C157.045 175.402 157.424 174.742 158.071 173.932C159.128 172.704 160.699 172.712 162.216 172.516C162.891 172.558 162.891 172.558 163.438 172.903C163.77 173.437 163.77 173.437 163.754 174.164C163.414 175.071 163.063 175.33 162.269 175.873C158.521 178.629 156.809 182.58 155.02 186.735C154.671 187.54 154.316 188.342 153.959 189.143C152.674 192.047 151.429 194.941 150.442 197.962C149.747 199.986 148.621 201.895 146.76 203.045C146.421 203.257 146.421 203.257 146.075 203.472C144.903 204.14 143.702 204.753 142.506 205.377C141.648 205.874 140.893 206.413 140.117 207.027C137.454 209.117 134.466 210.03 131.252 210.995C130.611 211.177 130.611 211.177 130.372 211.816C135.238 212.116 139.674 210.811 143.711 208.095C144.583 207.637 145.16 207.624 146.137 207.66C146.423 207.668 146.709 207.676 147.004 207.684C147.327 207.699 147.327 207.699 147.657 207.715C147.883 210.083 147.308 211.132 145.899 212.988C145.567 213.48 145.237 213.975 144.91 214.471C144.526 215.048 144.526 215.048 144.141 215.625C144.335 215.721 144.528 215.818 144.727 215.918C147.005 214.447 147.005 214.447 149.187 212.842C149.635 212.488 149.635 212.488 150.092 212.127C150.499 211.797 150.499 211.797 150.913 211.46C151.919 210.838 152.632 210.692 153.809 210.644C154.566 210.831 154.566 210.831 155.219 211.139C155.439 211.237 155.658 211.334 155.884 211.435C156.56 211.893 156.763 212.222 157.032 212.988C157.104 213.779 157.059 214.535 157.032 215.332C158.488 215.002 158.488 215.002 159.669 214.16C159.989 212.756 160.038 211.852 159.541 210.498C158.946 208.868 158.761 207.649 159.406 206.021C160.406 203.945 161.627 202.019 162.891 200.097C163.414 199.285 163.934 198.47 164.45 197.653C164.756 197.169 165.066 196.686 165.379 196.206C169.206 190.167 171.432 183.095 169.904 175.946C168.893 172.676 167.378 170.197 165.106 167.695C163.423 165.804 162.305 163.654 161.134 161.426C159.772 158.905 158.062 156.808 156.153 154.687C155.939 154.448 155.724 154.208 155.503 153.962C152.399 150.684 148.626 148.556 144.545 146.726C143.02 146.022 143.02 146.022 142.738 145.336C142.643 144.396 143.115 143.78 143.555 142.969C143.555 142.775 143.555 142.582 143.555 142.383C145.655 141.836 147.062 142.798 148.844 143.805C156.15 148.102 163.051 153.949 165.894 162.195C166.429 163.225 166.967 163.776 167.799 164.575C171.93 168.556 174.311 174.552 174.67 180.24C174.726 184.161 173.862 187.652 172.554 191.312C172.185 192.354 171.973 193.119 171.973 194.238C175.372 195.171 178.83 195.509 182.337 195.74C182.694 195.765 183.051 195.79 183.419 195.816C186.583 196.195 186.583 196.195 189.552 195.41C190.988 195.111 192.414 195.036 193.875 194.97C194.371 194.946 194.868 194.922 195.364 194.897C196.141 194.86 196.917 194.824 197.694 194.787C198.447 194.752 199.201 194.715 199.954 194.678C200.302 194.662 200.302 194.662 200.657 194.646C201.68 194.595 202.627 194.509 203.614 194.238C203.218 193.013 203.218 193.013 202.718 191.828C202.362 190.778 202.375 189.869 202.387 188.763C202.387 188.565 202.388 188.367 202.388 188.163C202.401 186.703 202.401 186.703 202.735 186.035C203.504 185.852 203.504 185.852 204.493 186.035C205.21 186.934 205.71 187.952 206.251 188.965C206.536 189.445 206.829 189.922 207.13 190.393C207.257 190.598 207.383 190.802 207.514 191.013C209.098 192.897 211.134 193.176 213.447 193.67C214.101 193.812 214.754 193.956 215.407 194.102C215.695 194.163 215.983 194.225 216.28 194.288C217.143 194.547 217.794 194.936 218.555 195.41C218.749 195.41 218.942 195.41 219.141 195.41C218.167 197.942 218.167 197.942 217.091 198.633C215.166 198.954 213.38 198.496 211.54 197.946C209.3 197.465 207.4 197.902 205.225 198.468C202.674 199.121 200.288 199.516 197.65 199.582C193.694 199.692 189.417 199.946 186.329 202.734C186.329 202.831 186.329 202.928 186.329 203.027C191.417 203.055 196.505 203.075 201.594 203.088C203.956 203.094 206.319 203.102 208.681 203.116C210.741 203.127 212.8 203.135 214.86 203.137C215.95 203.139 217.04 203.143 218.131 203.151C219.348 203.16 220.566 203.161 221.783 203.16C222.325 203.166 222.325 203.166 222.877 203.173C224.733 203.164 225.956 203.151 227.345 201.855C229.022 198.871 228.212 194.748 227.345 191.601C226.495 188.748 224.925 186.377 223.298 183.911C223.104 183.616 222.909 183.321 222.709 183.018C218.974 177.502 214.235 174.019 207.716 172.43C207.505 172.379 207.295 172.327 207.078 172.274C205.602 171.945 204.577 171.841 203.28 172.663C199.347 176.078 196.673 181.42 196.213 186.607C196.196 186.884 196.179 187.16 196.162 187.445C196.051 188.941 195.755 189.828 194.825 191.015C194.051 191.215 194.051 191.215 193.36 191.308C193.072 190.412 192.786 189.514 192.5 188.617C192.418 188.364 192.337 188.11 192.253 187.849C192.175 187.603 192.096 187.357 192.016 187.103C191.943 186.877 191.871 186.652 191.797 186.419C190.853 183.133 191.325 180.366 192.892 177.328C194.463 174.717 196.649 171.639 199.22 169.922C199.059 168.687 198.778 167.726 198.211 166.619C198.066 166.331 197.92 166.044 197.77 165.748C197.536 165.294 197.536 165.294 197.297 164.831C196.972 164.195 196.648 163.558 196.323 162.921C196.165 162.613 196.007 162.305 195.844 161.987C195.487 161.283 195.14 160.578 194.801 159.866C191.663 153.292 187.587 147.278 182.813 141.797C182.623 141.57 182.433 141.343 182.237 141.11C179.166 137.482 175.114 134.801 171.09 132.334C169.416 131.308 167.789 130.223 166.168 129.115C162.694 126.827 159.108 124.925 155.347 123.157C149.67 120.484 144.746 117.632 140.919 112.5C140.742 112.269 140.565 112.038 140.383 111.799C138.47 109.197 136.889 106.329 135.847 103.271C135.04 101.06 133.683 99.3613 132.254 97.5212C131.723 96.8232 131.226 96.1047 130.729 95.3829C129.218 93.1998 127.545 91.2469 125.684 89.3553C125.493 89.1566 125.301 88.958 125.104 88.7533C122.291 86.0543 118.564 84.8907 114.845 84.0818C114.556 84.0157 114.268 83.9496 113.971 83.8816C109.865 83.0604 105.741 83.422 101.668 84.1972ZM107.52 142.383C104.266 146.613 102.504 151.477 100.669 156.43C100.541 156.773 100.414 157.116 100.283 157.47C100.03 158.153 99.7795 158.838 99.5316 159.523C99.005 160.949 98.5044 162.284 97.6544 163.55C96.8606 164.739 96.5802 165.888 96.3326 167.285C96.2857 167.537 96.2387 167.789 96.1904 168.049C94.9657 175.024 94.9426 182.183 95.4434 189.229C95.5861 191.48 95.5309 193.742 95.5086 195.996C94.291 196.533 93.1008 196.995 91.8282 197.387C89.6976 198.181 88.8769 199.203 87.9372 201.235C86.9623 203.451 86.1847 205.6 85.8406 208.008C87.184 207.076 87.8469 206.07 88.6239 204.675C90.9439 200.56 90.9439 200.56 93.1649 199.804C94.2269 199.75 94.2269 199.75 95.2156 200.097C95.7348 200.907 96.0479 201.557 96.3875 202.441C96.6557 203.076 96.9243 203.711 97.1932 204.345C97.4137 204.882 97.6338 205.419 97.8524 205.957C98.1424 205.957 98.4324 205.957 98.7313 205.957C99.4767 205.211 99.3906 204.934 99.3973 203.901C99.4034 203.607 99.4094 203.313 99.4156 203.01C99.4232 202.391 99.4286 201.772 99.4317 201.154C99.4716 199.415 99.5177 198.193 100.782 196.875C101.529 196.527 101.529 196.527 102.338 196.289C104.232 195.501 104.877 194.221 105.638 192.396C105.845 191.857 105.845 191.857 106.055 191.308C106.172 191.022 106.289 190.736 106.409 190.441C107.879 186.334 108.147 181.828 108.109 177.503C108.106 177.246 108.104 176.988 108.102 176.723C108.089 175.423 108.063 174.125 108.022 172.826C108.013 172.344 108.003 171.863 107.994 171.381C107.979 171.046 107.979 171.046 107.963 170.705C107.954 170.08 107.954 170.08 108.106 169.043C108.807 168.487 108.807 168.487 109.571 168.164C112.779 165.697 113.968 162.751 114.552 158.789C114.813 156.733 114.281 155.388 113.375 153.58C112.619 152.061 112.034 150.52 111.475 148.919C110.691 146.711 109.841 144.553 108.399 142.676C108.109 142.579 107.819 142.482 107.52 142.383ZM118.067 164.648C117.968 164.85 117.868 165.052 117.765 165.26C116.7 167.325 115.431 169.661 113.353 170.862C112.709 171.359 112.709 171.359 112.652 172.244C112.654 172.592 112.655 172.94 112.656 173.299C112.653 173.694 112.65 174.089 112.647 174.485C112.647 174.693 112.647 174.901 112.648 175.116C112.644 182.243 111.747 188.987 109.278 195.703C109.54 195.82 109.802 195.938 110.072 196.059C113.509 197.652 116.124 199.506 117.774 203.027C118.714 203.096 119.653 203.137 120.594 203.174C120.859 203.193 121.124 203.213 121.396 203.233C122.203 203.257 122.855 203.242 123.634 203.027C124.211 202.481 124.594 201.926 125.015 201.254C125.512 200.501 126.039 200.2 126.856 199.841C127.11 199.729 127.363 199.617 127.624 199.501C127.854 199.408 128.084 199.315 128.321 199.219C128.617 199.092 128.913 198.965 129.218 198.834C131.064 198.402 132.782 198.63 134.638 198.926C137.825 199.404 141.764 199.852 144.727 198.34C146.36 196.916 147.142 194.733 147.95 192.773C148.06 192.524 148.171 192.274 148.284 192.017C148.601 191.25 148.601 191.25 148.536 190.137C147.786 189.633 147.062 189.217 146.265 188.8C143.667 187.369 141.208 185.78 138.758 184.112C138.588 183.997 138.418 183.882 138.243 183.764C135.058 181.608 131.89 179.38 129.09 176.733C128.187 175.885 127.283 175.048 126.325 174.261C124.492 172.7 123.05 170.748 121.546 168.878C121.399 168.695 121.251 168.512 121.1 168.323C120.373 167.412 119.672 166.492 119.003 165.537C118.791 165.244 118.579 164.951 118.36 164.648C118.263 164.648 118.167 164.648 118.067 164.648ZM168.824 199.017C167.927 200.088 166.7 201.573 166.7 203.027C168.498 203.085 170.296 203.128 172.095 203.156C172.706 203.168 173.317 203.184 173.928 203.204C174.809 203.233 175.689 203.246 176.571 203.256C176.842 203.268 177.113 203.28 177.393 203.293C178.574 203.293 179.299 203.266 180.234 202.5C181.182 201.564 181.182 201.564 181.641 200.39C181.371 200.358 181.101 200.326 180.823 200.292C179.809 200.17 178.795 200.046 177.781 199.922C177.344 199.869 176.908 199.816 176.471 199.763C172.37 199.271 172.37 199.271 170.695 198.863C169.648 198.523 169.648 198.523 168.824 199.017ZM105.177 200.097C105.08 200.581 104.983 201.064 104.884 201.562C105.657 201.861 106.432 202.152 107.209 202.441C107.425 202.525 107.64 202.609 107.862 202.695C109.472 203.286 110.787 203.402 112.501 203.32C112.118 202.172 111.634 202.002 110.615 201.379C110.325 201.2 110.035 201.021 109.737 200.837C108.622 200.175 108.051 200.064 106.751 200.079C106.311 200.083 106.311 200.083 105.861 200.087C105.522 200.092 105.522 200.092 105.177 200.097ZM76.1727 203.32C76.0635 203.708 75.9646 204.098 75.8797 204.492C76.8342 204.346 77.785 204.182 78.7362 204.016C79.1406 203.954 79.1406 203.954 79.5533 203.891C80.9258 203.643 81.5589 203.522 82.5127 202.453C82.9708 201.591 82.9708 201.591 82.911 200.683C80.7476 200.683 77.7484 201.797 76.1727 203.32ZM129.2 204.199C129.297 204.392 129.393 204.586 129.493 204.785C131.376 205.413 133.917 205.44 135.755 204.638C136.009 204.493 136.263 204.348 136.524 204.199C136.524 204.102 136.524 204.006 136.524 203.906C135.578 203.84 134.632 203.781 133.686 203.723C133.419 203.704 133.152 203.685 132.876 203.666C130.974 203.551 130.974 203.551 129.2 204.199Z" fill="black"/>
<path d="M108.325 87.2129C109.873 87.245 111.124 87.8078 112.5 88.4763C112.674 88.5596 112.847 88.643 113.026 88.7288C113.595 89.0072 114.156 89.2979 114.716 89.5933C114.897 89.6831 115.079 89.773 115.266 89.8656C116.254 90.4103 116.581 90.7633 116.976 91.8306C116.895 92.8708 116.895 92.8708 116.175 93.6353C115.834 93.8761 115.487 94.1092 115.137 94.3357C114.957 94.462 114.778 94.5883 114.593 94.7185C114.029 95.1131 113.459 95.4945 112.885 95.8738C112.69 96.0044 112.496 96.1351 112.296 96.2697C110.143 97.7006 108.314 97.8348 105.762 97.5583C103.271 96.7135 101.502 95.077 100.123 92.8731C99.8459 92.1341 99.8866 91.8355 100.195 91.113C101.788 89.2549 104.032 87.9711 106.384 87.3594C107.032 87.3172 107.679 87.2668 108.325 87.2129ZM104.297 91.699C104.297 92.0857 104.297 92.4724 104.297 92.8708C105.493 94.0239 106.707 94.1236 108.329 94.1114C109.485 93.9904 110.543 93.5829 111.621 93.1638C111.621 92.8738 111.621 92.5837 111.621 92.2849C108.988 90.9475 107.124 90.9811 104.297 91.699Z" fill="black"/>
<path d="M135.058 130.664C136.104 131.215 136.683 131.593 137.108 132.715C135.34 135.544 132.676 137.498 129.997 139.422C127.993 140.97 126.534 142.519 125.976 145.02C125.95 145.851 126.01 146.664 126.085 147.491C126.102 147.706 126.119 147.92 126.136 148.141C126.177 148.663 126.222 149.185 126.269 149.707C124.319 150.584 124.319 150.584 123.412 150.604C122.415 150.133 122.274 149.553 121.874 148.535C121.751 147.61 121.751 146.702 121.764 145.77C121.761 145.53 121.757 145.29 121.754 145.042C121.767 142.235 122.863 140.541 124.804 138.574C126.389 137.039 128.093 135.734 129.891 134.458C130.601 133.932 131.254 133.382 131.908 132.788C132.892 131.9 133.884 131.276 135.058 130.664Z" fill="black"/>
</svg>
