<svg width="300" height="300" viewBox="0 0 300 300" fill="none" xmlns="http://www.w3.org/2000/svg">
<path d="M151.465 87.5977C151.658 88.5645 151.852 89.5312 152.051 90.5273C152.254 90.4707 152.457 90.414 152.666 90.3557C156.911 89.2257 161.002 88.9779 165.363 89.0259C165.837 89.0288 166.311 89.0315 166.785 89.0339C167.928 89.0397 169.072 89.0512 170.215 89.0625C170.215 91.0928 170.215 93.123 170.215 95.2148C170.819 95.4203 171.424 95.6257 172.046 95.8374C175.408 97.0257 179.804 98.7373 182.078 101.63C182.297 102.539 181.987 103.158 181.641 104.004C181.836 104.121 182.031 104.239 182.233 104.36C185.286 106.243 187.958 108.436 190.43 111.035C190.333 111.325 190.237 111.615 190.137 111.914C191.678 112.182 193.186 112.253 194.749 112.292C198.632 112.391 202.424 112.707 206.25 113.379C206.472 113.418 206.693 113.457 206.921 113.496C215.067 114.999 222.332 119.383 227.236 126.094C229.47 129.385 231.149 133.025 232.324 136.816C232.485 136.778 232.645 136.739 232.811 136.699C236.674 135.838 240.782 135.354 244.373 137.33C246.574 138.793 248.053 140.893 248.613 143.487C248.837 145.33 248.955 147.457 247.785 149.014C246.74 149.992 245.739 150.267 244.336 150.293C243.707 150.106 243.707 150.106 243.164 149.707C242.963 148.943 242.963 148.943 242.871 148.022C242.614 146.171 242.212 145.053 240.692 143.884C238.457 143.178 236.072 143.49 233.789 143.848C233.832 144.22 233.874 144.592 233.917 144.975C234.947 154.355 234.111 163.638 228.223 171.387C227.914 171.701 227.604 172.013 227.289 172.321C226.698 173.058 226.698 173.058 226.794 173.69C227.277 175.332 228.162 176.832 228.936 178.352C230.306 181.072 230.934 183.552 230.567 186.621C230.27 187.426 229.894 187.951 229.395 188.672C228.214 190.849 227.682 193.216 227.104 195.606C227.002 196.018 226.9 196.431 226.798 196.843C226.531 197.921 226.267 199 226.004 200.079C225.581 201.809 225.154 203.537 224.727 205.266C224.58 205.867 224.433 206.467 224.286 207.068C224.196 207.435 224.106 207.802 224.014 208.18C223.935 208.501 223.857 208.822 223.776 209.153C223.537 210.051 223.243 210.935 222.949 211.816C216.569 211.816 210.188 211.816 203.614 211.816C204.484 209.883 205.354 207.949 206.25 205.957C207.076 203.658 207.609 201.371 208.081 198.981C208.133 198.722 208.184 198.463 208.237 198.196C208.688 195.779 208.944 193.534 207.715 191.309C206.709 189.947 205.571 188.79 204.199 187.793C203.86 188.122 203.523 188.453 203.192 188.791C202.875 189.114 202.551 189.432 202.222 189.743C199.76 192.247 199.337 195.981 198.575 199.297C198.493 199.648 198.41 200 198.326 200.362C198.067 201.47 197.81 202.578 197.553 203.687C197.293 204.807 197.032 205.928 196.77 207.049C196.608 207.743 196.447 208.437 196.287 209.131C196.215 209.441 196.142 209.752 196.068 210.071C196.004 210.346 195.941 210.62 195.875 210.902C195.703 211.523 195.703 211.523 195.41 211.816C194.835 211.844 194.259 211.851 193.683 211.85C193.313 211.85 192.944 211.85 192.563 211.85C192.157 211.848 191.751 211.847 191.344 211.845C190.931 211.844 190.518 211.844 190.104 211.844C189.014 211.843 187.924 211.84 186.834 211.837C185.723 211.834 184.611 211.832 183.5 211.831C181.318 211.828 179.136 211.823 176.953 211.816C177.18 210.491 177.638 209.616 178.345 208.466C182.28 201.803 183.209 193.089 181.391 185.592C180.885 183.92 180.394 182.453 179.004 181.348C176.887 181.412 174.88 182.114 172.861 182.706C169.735 183.621 166.606 184.485 163.422 185.175C163.149 185.234 162.877 185.294 162.596 185.355C161.396 185.606 160.313 185.769 159.082 185.742C158.993 186.113 158.993 186.113 158.903 186.491C157.935 190.447 156.829 194.364 155.731 198.285C155.441 199.325 155.15 200.364 154.86 201.404C154.681 202.045 154.502 202.686 154.322 203.328C153.534 206.15 152.797 208.981 152.051 211.816C146.057 211.816 140.063 211.816 133.887 211.816C134.895 207.114 134.895 207.114 135.828 205.334C137.731 201.559 137.119 198.285 136.355 194.241C136.302 193.96 136.249 193.678 136.194 193.388C136.145 193.136 136.096 192.883 136.045 192.624C135.936 191.881 135.919 191.179 135.938 190.43C135.564 190.597 135.192 190.769 134.821 190.942C134.613 191.038 134.406 191.133 134.193 191.231C132.884 192.042 132.549 193.148 132.19 194.591C132.097 194.959 132.004 195.327 131.908 195.705C131.81 196.105 131.712 196.505 131.614 196.905C131.511 197.316 131.408 197.726 131.305 198.137C131.034 199.216 130.766 200.296 130.499 201.376C130.07 203.107 129.636 204.836 129.203 206.566C129.052 207.17 128.903 207.775 128.753 208.38C128.616 208.929 128.616 208.929 128.477 209.488C128.397 209.811 128.317 210.134 128.235 210.467C128.028 211.23 128.028 211.23 127.735 211.816C122.127 211.816 116.52 211.816 110.742 211.816C111.728 209.188 111.728 209.188 112.189 208.321C112.337 208.038 112.337 208.038 112.488 207.749C112.588 207.556 112.689 207.364 112.793 207.166C114.704 203.429 115.172 200.118 115.23 195.951C115.239 195.4 115.239 195.4 115.248 194.837C115.264 193.866 115.279 192.894 115.293 191.923C115.308 190.929 115.324 189.935 115.34 188.941C115.371 186.996 115.401 185.051 115.43 183.105C113.956 182.901 112.482 182.698 111.008 182.496C110.508 182.427 110.008 182.358 109.509 182.289C98.7143 180.52 98.7143 180.52 88.7698 183.984C87.2768 185.126 85.8379 186.239 84.6499 187.701C83.7893 188.379 83.7893 188.379 83.1977 188.417C82.3794 188.285 81.6451 188.06 80.8596 187.793C80.5927 187.704 80.5927 187.704 80.3205 187.613C77.2848 186.587 74.292 185.425 71.8142 183.344C70.8354 182.568 69.9962 182.336 68.7747 182.098C65.0902 181.361 62.255 179.164 60.068 176.161C59.5437 175.366 59.0608 174.561 58.594 173.73C58.4732 173.524 58.3523 173.317 58.2278 173.104C57.0818 170.893 56.3718 167.487 57.1109 165.051C57.3037 164.62 57.5064 164.193 57.7151 163.77C57.8416 163.444 57.9681 163.118 58.0985 162.782C59.2489 159.968 60.863 158.663 63.5745 157.324C64.3394 156.931 65.1014 156.533 65.8633 156.134C66.0675 156.028 66.2718 155.922 66.4822 155.812C72.4986 152.641 78.2166 148.893 83.0752 144.122C83.2916 143.911 83.5079 143.701 83.7308 143.483C86.2815 140.902 87.8041 137.993 89.2126 134.675C91.2224 129.964 93.6038 125.875 96.8322 121.896C97.5603 120.994 98.2531 120.075 98.931 119.135C99.3167 118.652 99.3167 118.652 99.8683 118.102C101.4 116.567 102.76 114.818 103.986 113.031C104.185 112.759 104.385 112.487 104.59 112.207C104.783 112.207 104.977 112.207 105.176 112.207C105.176 111.917 105.176 111.627 105.176 111.328C105.587 111.037 106.001 110.749 106.43 110.485C107.279 109.932 108.01 109.236 108.765 108.563C118.589 100.033 130.546 94.4087 142.658 89.9414C143.02 89.8075 143.383 89.6736 143.756 89.5356C149.097 87.5977 149.097 87.5977 151.465 87.5977ZM141.577 95.4163C141.302 95.5444 141.302 95.5444 141.022 95.675C137.36 97.3857 133.845 99.3023 130.371 101.367C130.094 101.531 129.817 101.694 129.531 101.863C119.468 107.808 109.595 114.464 102.539 123.926C102.415 124.09 102.29 124.253 102.162 124.422C99.5916 127.808 97.6153 131.462 95.6866 135.242C93.8513 138.837 92.0478 142.352 89.6487 145.605C89.4618 145.863 89.2748 146.12 89.0822 146.385C85.256 151.404 80.6501 154.644 75.0003 157.324C74.609 157.518 74.218 157.713 73.8284 157.91C74.5119 158.461 75.1932 159.01 75.9055 159.524C79.1953 161.942 81.0656 165.091 82.0315 169.043C83.1555 168.872 83.9681 168.545 84.9463 167.971C85.2176 167.812 85.489 167.653 85.7685 167.489C86.052 167.319 86.3354 167.149 86.6275 166.974C86.9175 166.801 87.2076 166.628 87.5064 166.45C89.4297 165.289 91.1912 164.092 92.8713 162.598C93.0405 162.47 93.2097 162.342 93.384 162.21C96.251 160 98.2752 156.703 99.9747 153.561C101.393 151.009 101.393 151.009 102.375 150.531C103.268 150.596 103.603 150.867 104.185 151.532C107.3 155.518 108.967 159.253 108.399 164.355C108.03 165.692 107.507 166.905 106.934 168.164C106.732 168.748 106.535 169.333 106.348 169.922C113.097 169.694 119.514 167.051 124.227 162.125C128.475 156.986 130.888 150.535 130.371 143.848C129.684 139.168 127.587 134.621 124.639 130.938C124.219 130.371 124.219 130.371 124.219 129.785C124.408 129.684 124.597 129.582 124.791 129.477C131.442 126.133 131.442 126.133 135.352 120.117C135.388 119.271 135.407 118.436 135.407 117.59C135.407 117.235 135.407 117.235 135.407 116.872C135.393 115.24 135.232 113.779 134.766 112.207C131.952 111.986 129.081 112.797 126.856 114.551C126.238 115.367 126.238 115.367 125.739 116.327C125.642 116.501 125.546 116.676 125.447 116.856C124.491 118.619 123.645 120.439 122.822 122.267C121.222 125.77 121.222 125.77 119.696 126.709C118.76 126.892 118.103 126.827 117.188 126.562C116.089 124.915 116.235 123.384 116.602 121.509C118.018 116.014 122.215 112.688 126.856 109.863C136.798 104.052 150.441 102.256 161.592 105.111C166.425 106.442 171.194 108.378 175.364 111.183C176.457 111.857 177.438 111.953 178.707 112.007C179.117 112.025 179.117 112.025 179.536 112.044C179.962 112.061 179.962 112.061 180.396 112.079C180.684 112.092 180.972 112.104 181.269 112.117C181.979 112.148 182.689 112.178 183.399 112.207C181.935 109.135 178.29 107.296 175.211 106.132C174.144 105.766 173.065 105.456 171.973 105.176C173.11 103.932 174.329 103.093 175.782 102.246C173.317 99.7815 167.301 99.5905 164.054 99.5714C162.885 99.5733 161.716 99.5884 160.547 99.6094C162.891 96.0938 162.891 96.0938 163.555 95.1347C164.115 94.4113 164.115 94.4113 164.063 93.75C157.092 94.3315 151.563 95.8739 145.606 99.6094C145.648 99.3582 145.69 99.1071 145.734 98.8483C146.013 97.132 146.273 95.4897 146.192 93.75C144.542 93.75 143.053 94.7261 141.577 95.4163ZM140.332 111.035C140.353 111.252 140.375 111.468 140.396 111.691C140.973 117.998 140.374 123.585 136.231 128.613C135.227 129.713 134.249 130.716 133.008 131.543C133.19 133.132 133.441 134.682 133.768 136.248C133.859 136.698 133.95 137.148 134.041 137.599C134.183 138.293 134.325 138.987 134.47 139.681C135.493 144.596 136.22 149.59 134.86 154.531C134.718 156.096 135.097 157.507 135.437 159.032C135.548 159.554 135.548 159.554 135.663 160.087C135.825 160.844 135.989 161.601 136.154 162.357C136.554 164.191 136.944 166.026 137.334 167.861C137.425 168.289 137.516 168.716 137.607 169.144C138.615 173.871 139.559 178.611 140.487 183.355C140.605 183.954 140.722 184.554 140.84 185.153C140.99 185.922 141.141 186.69 141.291 187.459C141.437 188.205 141.583 188.951 141.73 189.696C142.074 191.449 142.41 193.203 142.727 194.96C142.879 195.8 143.034 196.639 143.189 197.478C143.262 197.878 143.333 198.278 143.403 198.678C143.5 199.232 143.602 199.785 143.704 200.339C143.761 200.654 143.817 200.968 143.875 201.293C144.196 202.325 144.496 202.898 145.313 203.613C146.397 203.595 146.397 203.595 147.364 203.32C148.347 200.251 149.253 197.169 150.098 194.059C150.301 193.312 150.505 192.565 150.71 191.818C151.005 190.742 151.299 189.665 151.593 188.588C154.29 178.722 157.06 168.881 159.96 159.072C160.211 158.226 160.46 157.379 160.71 156.533C160.879 155.96 161.05 155.387 161.22 154.815C161.321 154.474 161.422 154.133 161.526 153.782C161.613 153.488 161.7 153.194 161.79 152.891C162.018 152.029 162.172 151.174 162.305 150.293C165.99 150.901 165.99 150.901 167.23 152.399C168.111 154.483 167.38 156.576 166.764 158.637C166.679 158.93 166.594 159.222 166.507 159.524C166.232 160.47 165.953 161.415 165.674 162.36C165.485 163.008 165.297 163.657 165.109 164.306C164.737 165.588 164.364 166.869 163.99 168.151C163.325 170.439 162.682 172.733 162.049 175.031C161.953 175.375 161.857 175.719 161.758 176.074C161.674 176.382 161.589 176.69 161.502 177.007C161.429 177.268 161.357 177.53 161.283 177.799C161.11 178.407 161.11 178.407 161.133 179.004C163.487 178.851 165.714 178.385 168 177.814C168.19 177.766 168.381 177.719 168.578 177.67C175.559 175.925 182.434 173.661 189.258 171.387C188.863 170.289 188.345 169.322 187.757 168.321C183.543 161.117 181.98 152.392 184.012 144.188C185.872 137.534 189.905 131.591 195.977 128.122C197.608 127.319 198.869 126.898 200.684 127.148C202.023 127.775 202.023 127.775 202.442 128.613C202.552 129.584 202.552 129.584 202.442 130.664C201.476 131.807 200.501 132.436 199.164 133.081C194.455 135.537 191.723 139.548 190.064 144.507C188.004 151.73 189.224 158.626 192.7 165.168C194.137 167.722 195.959 169.99 197.959 172.126C198.512 172.721 199.044 173.326 199.574 173.942C200.76 175.303 202.023 176.578 203.302 177.85C203.525 178.074 203.748 178.298 203.977 178.528C205.371 179.92 206.807 181.238 208.301 182.52C211.661 185.448 214.482 188.066 214.808 192.788C214.825 194.091 214.767 195.364 214.6 196.655C214.441 197.922 214.4 199.188 214.38 200.464C214.374 200.665 214.368 200.866 214.361 201.073C214.352 202.363 214.518 203.187 215.332 204.199C216.193 204.591 216.193 204.591 216.944 204.199C218.61 202.866 218.899 200.365 219.379 198.381C219.532 197.764 219.686 197.147 219.839 196.531C220.077 195.564 220.315 194.597 220.55 193.63C220.78 192.692 221.013 191.755 221.247 190.819C221.316 190.529 221.386 190.238 221.458 189.939C221.525 189.67 221.592 189.401 221.662 189.124C221.72 188.888 221.778 188.651 221.837 188.408C222.196 187.461 222.782 187.034 223.59 186.456C224.301 185.5 224.303 184.853 224.253 183.681C223.879 181.216 222.781 178.942 221.704 176.715C220.974 175.171 220.606 173.977 220.606 172.266C220.982 171.216 221.532 170.783 222.437 170.16C226.381 167.183 228.018 161.475 228.698 156.776C228.734 156.474 228.771 156.171 228.809 155.859C228.848 155.536 228.888 155.212 228.929 154.879C229.767 146.03 227.256 136.172 221.796 129.108C221.405 128.645 221.008 128.187 220.606 127.734C220.411 127.512 220.217 127.29 220.016 127.061C213.177 119.729 202.527 118.825 193.098 118.434C191.144 118.369 189.194 118.358 187.239 118.368C185.935 118.372 184.631 118.366 183.326 118.36C182.674 118.36 182.021 118.364 181.369 118.374C177.041 118.436 174.282 118.04 170.801 115.43C165.118 112.096 158.667 110.393 152.088 110.41C151.851 110.41 151.613 110.41 151.369 110.409C150.872 110.409 150.375 110.41 149.877 110.411C149.123 110.413 148.369 110.411 147.615 110.409C147.129 110.409 146.642 110.41 146.155 110.41C145.933 110.41 145.712 110.409 145.483 110.409C142.833 110.35 142.833 110.35 140.332 111.035ZM102.539 159.961C102.042 160.555 101.575 161.154 101.111 161.774C96.1602 168.211 90.364 172.612 83.2384 176.447C81.5043 177.397 79.8547 178.403 78.5159 179.883C78.5159 180.076 78.5159 180.27 78.5159 180.469C78.9643 180.725 79.4168 180.974 79.8709 181.219C80.2481 181.429 80.2481 181.429 80.633 181.642C81.6565 182.009 82.1612 181.941 83.2034 181.641C83.9006 181.29 84.5407 180.935 85.1992 180.524C85.387 180.409 85.5748 180.293 85.7682 180.175C89.1609 178.062 92.4593 175.73 95.5081 173.145C95.7539 172.938 95.9998 172.731 96.2531 172.519C99.5564 169.655 102.722 165.993 103.107 161.462C103.122 160.962 103.132 160.461 103.125 159.961C102.932 159.961 102.739 159.961 102.539 159.961ZM63.4097 164.539C62.3579 166.276 62.5144 168.25 62.6956 170.215C63.4099 172.662 65.0988 174.627 67.2549 175.948C69.2016 176.962 71.0216 177.482 73.2424 177.246C74.7531 176.713 75.5473 175.91 76.4651 174.609C77.4371 172.573 77.2725 170.382 76.6116 168.274C75.3665 165.209 72.9576 163.855 70.0198 162.598C67.5072 161.76 65.2071 162.697 63.4097 164.539ZM130.078 164.648C129.855 164.9 129.632 165.151 129.402 165.409C124.333 171.053 118.093 174.047 110.742 175.781C111.557 176.324 111.869 176.463 112.785 176.613C113.134 176.671 113.134 176.671 113.491 176.731C113.87 176.791 113.87 176.791 114.257 176.852C114.521 176.896 114.786 176.939 115.058 176.984C115.621 177.075 116.185 177.166 116.748 177.255C117.589 177.389 118.429 177.527 119.269 177.666C126.247 178.808 126.247 178.808 133.301 179.004C132.906 176.209 132.394 173.448 131.827 170.684C131.688 170.004 131.552 169.322 131.416 168.641C131.328 168.206 131.239 167.771 131.15 167.337C131.09 167.032 131.09 167.032 131.028 166.722C130.793 165.566 130.793 165.566 130.078 164.648ZM190.864 177.045C190.564 177.124 190.265 177.203 189.957 177.285C189.648 177.369 189.339 177.453 189.02 177.539C188.705 177.623 188.39 177.707 188.066 177.793C187.291 178 186.517 178.208 185.742 178.418C185.838 178.677 185.934 178.937 186.032 179.204C186.16 179.567 186.288 179.93 186.42 180.304C186.546 180.654 186.671 181.004 186.801 181.365C187.905 184.987 188.221 188.623 188.169 192.389C188.159 193.055 188.157 193.721 188.155 194.388C188.144 196.392 188.091 198.375 187.857 200.368C187.763 201.268 187.765 202.16 187.775 203.064C187.779 203.555 187.779 203.555 187.783 204.055C187.786 204.296 187.79 204.537 187.793 204.785C188.162 204.815 188.53 204.846 188.91 204.877C189.118 204.894 189.325 204.911 189.538 204.928C190.202 204.839 190.202 204.839 190.582 204.159C191.046 203.263 191.287 202.454 191.519 201.473C191.605 201.117 191.69 200.761 191.777 200.393C191.864 200.018 191.952 199.642 192.041 199.255C192.134 198.868 192.226 198.481 192.319 198.093C192.777 196.169 193.178 194.251 193.488 192.297C193.896 190.177 194.896 188.819 196.289 187.207C196.689 186.736 197.088 186.263 197.486 185.79C197.863 185.343 198.248 184.902 198.632 184.462C199.321 183.574 199.321 183.574 199.512 182.52C199.065 181.874 199.065 181.874 198.397 181.272C198.041 180.925 198.041 180.925 197.677 180.571C197.425 180.332 197.172 180.092 196.912 179.846C196.418 179.37 195.924 178.893 195.431 178.416C195.21 178.205 194.988 177.995 194.761 177.778C194.239 177.246 194.239 177.246 193.946 176.66C192.844 176.618 191.926 176.76 190.864 177.045ZM121.582 184.57C121.53 186.75 121.482 188.93 121.437 191.111C121.417 192.123 121.395 193.136 121.37 194.148C121.342 195.314 121.319 196.479 121.296 197.645C121.287 198.006 121.277 198.367 121.268 198.739C121.237 200.487 121.257 201.97 121.875 203.613C122.262 203.613 122.649 203.613 123.047 203.613C123.78 201.408 124.453 199.204 125.004 196.946C125.089 196.599 125.175 196.253 125.263 195.896C125.431 195.206 125.594 194.515 125.753 193.823C126.474 190.878 127.71 188.841 129.895 186.768C130.351 186.332 130.804 185.894 131.25 185.449C131.25 185.353 131.25 185.256 131.25 185.156C130.024 185.057 128.797 184.96 127.57 184.863C127.224 184.835 126.878 184.807 126.521 184.779C126.184 184.752 125.847 184.726 125.5 184.698C125.191 184.674 124.883 184.649 124.565 184.624C123.569 184.567 122.58 184.562 121.582 184.57Z" fill="black"/>
<path d="M112.427 134.399C112.773 134.468 112.773 134.468 113.125 134.538C114.707 134.9 114.707 134.9 115.306 135.592C115.714 137.697 114.385 140.005 113.276 141.714C111.549 144.104 109.033 145.975 106.055 146.484C105.366 146.533 104.676 146.562 103.986 146.576C103.626 146.587 103.266 146.597 102.895 146.609C101.953 146.484 101.953 146.484 101.41 145.985C100.333 143.823 100.262 141.193 100.782 138.867C101.572 136.701 102.51 135.447 104.523 134.305C106.971 133.222 109.889 133.87 112.427 134.399ZM105.762 139.361C105.392 140.217 105.463 140.63 105.762 141.504C106.313 142.177 106.313 142.177 107.209 142.181C108.083 142.156 108.083 142.156 108.655 141.76C109.133 140.964 109.081 140.362 108.985 139.453C108.417 138.762 108.417 138.762 107.392 138.757C106.355 138.767 106.355 138.767 105.762 139.361Z" fill="black"/>
<path d="M71.8252 167.673C72.8539 168.612 73.4557 169.437 73.6814 170.819C73.4903 171.942 73.2337 172.404 72.363 173.144C70.6434 173.431 69.6271 173.107 68.2111 172.115C67.0494 171.171 66.3395 170.354 65.8994 168.878C65.9177 167.871 65.9177 167.871 66.4121 167.029C68.2306 165.358 70.1129 166.299 71.8252 167.673Z" fill="black"/>
</svg>
