<svg width="300" height="300" viewBox="0 0 300 300" fill="none" xmlns="http://www.w3.org/2000/svg">
<path d="M161.426 53.0273C161.619 53.124 161.812 53.2207 162.012 53.3203C161.856 54.57 161.46 55.2354 160.657 56.1951C160.448 56.4473 160.238 56.6996 160.023 56.9595C159.255 57.8551 158.48 58.744 157.69 59.6203C157.293 60.0009 157.293 60.0009 157.324 60.3516C157.668 60.2915 158.011 60.2315 158.364 60.1696C158.829 60.0898 159.294 60.0101 159.76 59.9304C160.096 59.8712 160.096 59.8712 160.44 59.8108C163.482 59.2934 166.491 59.1227 169.574 59.1248C169.907 59.1248 170.24 59.1248 170.583 59.1248C176.336 59.1639 176.336 59.1639 178.125 60.0586C177.69 61.1995 177.092 61.5901 176.056 62.2009C174.284 63.2826 172.567 64.4452 171.094 65.918C171.306 65.9651 171.518 66.0122 171.737 66.0607C172.719 66.2798 173.701 66.5017 174.683 66.7236C175.183 66.8347 175.183 66.8347 175.694 66.9479C180.682 68.0815 184.714 69.421 187.624 73.8808C188.289 75.0883 188.442 75.6824 188.086 77.0508C187.723 76.8327 187.723 76.8327 187.354 76.6102C180.959 72.8231 174.467 70.8061 166.992 70.8984C167.163 70.9425 167.334 70.9865 167.509 71.0319C176.979 73.4943 186.598 77.0082 192.415 85.421C192.533 85.6559 192.652 85.8908 192.773 86.1328C192.677 86.4229 192.58 86.7129 192.48 87.0117C190.612 86.3058 188.752 85.5817 186.901 84.8282C186.585 84.6997 186.268 84.5713 185.942 84.4389C185.308 84.1815 184.675 83.9227 184.043 83.6622C182.098 82.8739 180.163 82.2395 178.125 81.7383C180.042 83.1404 181.981 84.3553 184.094 85.437C184.382 85.5856 184.67 85.7342 184.967 85.8873C191.399 89.173 198.039 92.0442 204.647 94.9552C206.33 95.6969 208.014 96.439 209.697 97.1814C210.538 97.552 211.379 97.9219 212.22 98.2917C212.746 98.5234 213.272 98.7551 213.797 98.9868C214.036 99.0914 214.274 99.1959 214.52 99.3036C218.889 101.233 218.889 101.233 219.727 102.832C220.348 103.575 221.018 104.273 221.686 104.974C221.87 105.17 222.054 105.365 222.244 105.567C223.352 106.739 224.477 107.889 225.63 109.018C226.141 109.539 226.611 110.078 227.081 110.637C227.887 111.567 228.736 112.413 229.641 113.247C229.885 113.476 230.13 113.705 230.382 113.941C230.886 114.411 231.396 114.875 231.911 115.333C232.152 115.563 232.394 115.793 232.644 116.031C232.864 116.232 233.084 116.433 233.311 116.641C234.526 118.774 233.706 121.959 233.458 124.309C233.39 124.988 233.322 125.666 233.254 126.344C233.146 127.402 233.037 128.46 232.928 129.517C232.822 130.546 232.719 131.575 232.616 132.604C232.566 133.079 232.566 133.079 232.514 133.565C232.47 134.006 232.47 134.006 232.425 134.457C232.399 134.715 232.372 134.974 232.345 135.24C232.324 135.942 232.379 136.45 232.617 137.109C233.257 137.738 233.257 137.738 234.064 138.336C234.356 138.569 234.649 138.801 234.951 139.041C235.244 139.274 235.538 139.506 235.84 139.746C240.57 143.605 245.379 149.715 246.387 155.859C246.619 158.445 246.248 160.619 244.592 162.671C242.346 165.035 239.617 165.807 236.426 165.894C235.785 165.898 235.785 165.898 235.254 165.82C235.061 165.627 234.867 165.434 234.668 165.234C234.845 164.969 235.021 164.703 235.204 164.43C238.203 159.879 239.705 155.994 238.715 150.476C238.128 147.751 237.348 144.916 235.254 142.969C234.04 142.197 233.195 141.797 231.738 141.797C231.702 142.15 231.702 142.15 231.664 142.509C231.433 144.737 231.2 146.965 230.966 149.193C230.846 150.338 230.727 151.483 230.608 152.628C230.493 153.736 230.377 154.844 230.26 155.951C230.216 156.371 230.172 156.791 230.129 157.211C229.436 163.938 229.436 163.938 228.056 166.873C227.952 167.101 227.849 167.328 227.742 167.563C227.405 168.302 227.063 169.039 226.721 169.775C226.482 170.299 226.242 170.822 226.004 171.346C225.397 172.673 224.786 173.999 224.174 175.324C223.369 177.07 222.568 178.817 221.767 180.565C221.578 180.979 221.388 181.393 221.198 181.807C219.495 185.519 217.846 189.254 216.211 192.997C214.197 197.607 212.143 202.199 210.068 206.782C209.866 207.23 209.665 207.679 209.465 208.128C208.991 209.19 208.507 210.242 207.986 211.282C206.775 213.754 206.29 215.677 206.498 218.479C206.549 219.236 206.577 219.993 206.601 220.751C206.651 222.269 206.712 223.786 206.777 225.303C206.818 226.247 206.856 227.192 206.895 228.136C206.921 228.746 206.946 229.356 206.972 229.967C206.989 230.383 206.989 230.383 207.006 230.807C207.122 234.933 207.122 234.933 208.466 238.77C209.473 240.729 209.473 240.729 209.473 241.699C205.025 241.699 200.578 241.699 195.996 241.699C196.274 240.31 196.61 239.656 197.297 238.459C198.995 235.117 198.784 231.281 198.907 227.618C198.94 226.883 198.973 226.147 199.006 225.411C199.083 223.703 199.142 221.995 199.191 220.285C199.215 219.561 199.248 218.839 199.287 218.116C199.374 215.8 198.955 214.279 197.809 212.274C197.51 211.716 197.212 211.158 196.915 210.599C196.685 210.175 196.685 210.175 196.451 209.743C195.717 208.362 195.052 206.95 194.385 205.536C194.118 204.976 193.852 204.417 193.585 203.857C193.172 202.988 192.759 202.118 192.347 201.248C192.061 200.644 191.774 200.04 191.487 199.436C191.22 198.873 190.953 198.31 190.687 197.747C189.892 196.074 189.037 194.45 188.124 192.839C187.793 192.188 187.793 192.188 187.793 191.602C187.592 191.634 187.391 191.666 187.184 191.699C184.635 192.085 182.079 192.382 179.517 192.664C179.166 192.703 178.816 192.743 178.455 192.784C176.481 192.997 174.545 193.123 172.559 193.066C173.377 190.426 174.452 187.891 175.507 185.339C175.715 184.834 175.923 184.328 176.132 183.822C177.55 180.38 178.98 176.943 180.415 173.509C180.744 172.723 181.071 171.937 181.398 171.151C182.406 168.735 183.426 166.327 184.494 163.938C184.971 162.869 185.443 161.798 185.914 160.727C186.138 160.223 186.366 159.72 186.596 159.218C188.269 155.741 188.269 155.741 187.996 151.984C187.929 151.813 187.862 151.641 187.793 151.465C187.097 152.323 186.658 153.144 186.245 154.167C186.116 154.481 185.988 154.795 185.855 155.119C185.715 155.466 185.575 155.813 185.431 156.171C185.115 156.946 184.797 157.72 184.48 158.495C184.395 158.703 184.31 158.912 184.222 159.126C183.231 161.55 182.218 163.964 181.205 166.379C180.867 167.185 180.53 167.992 180.192 168.798C179.175 171.226 178.157 173.654 177.136 176.081C174.77 181.701 172.427 187.33 170.134 192.981C169.884 193.595 169.635 194.209 169.384 194.824C169.037 195.677 168.691 196.531 168.346 197.385C168.243 197.639 168.139 197.893 168.032 198.154C167.333 199.811 167.333 199.811 166.992 201.562C167.529 202.386 167.529 202.386 168.164 203.027C168.235 202.835 168.305 202.643 168.378 202.445C168.703 201.574 169.037 200.708 169.373 199.841C169.484 199.539 169.595 199.236 169.709 198.925C169.879 198.491 169.879 198.491 170.052 198.049C170.154 197.782 170.255 197.515 170.359 197.24C170.978 196.318 171.485 196.241 172.559 195.996C173.379 195.845 174.202 195.727 175.029 195.618C175.263 195.587 175.496 195.555 175.736 195.522C176.227 195.456 176.719 195.391 177.21 195.326C177.957 195.227 178.704 195.126 179.451 195.023C179.93 194.959 180.409 194.895 180.889 194.831C181.11 194.801 181.331 194.771 181.558 194.74C182.868 194.569 184.129 194.503 185.449 194.531C185.272 196.459 184.806 198.203 184.241 200.051C184.056 200.677 183.871 201.304 183.687 201.93C183.4 202.902 183.11 203.873 182.813 204.841C181.364 209.585 180.749 213.895 180.762 218.848C180.756 219.497 180.749 220.147 180.741 220.797C180.724 222.461 180.72 224.125 180.724 225.789C180.725 226.796 180.724 227.803 180.722 228.81C180.721 232.341 180.779 235.859 180.978 239.385C180.999 239.779 180.999 239.779 181.02 240.18C181.034 240.411 181.048 240.642 181.062 240.879C181.055 241.406 181.055 241.406 180.762 241.699C179.853 241.725 178.95 241.733 178.041 241.728C177.769 241.727 177.496 241.727 177.215 241.727C176.34 241.725 175.466 241.721 174.591 241.718C174 241.716 173.408 241.715 172.817 241.714C171.363 241.71 169.91 241.705 168.457 241.699C168.835 240.48 169.288 239.565 170.003 238.508C172.244 234.995 172.126 231.064 172.206 227.036C172.234 225.837 172.324 224.673 172.493 223.486C172.882 220.599 172.709 218.849 170.911 216.486C170.384 215.836 169.847 215.197 169.306 214.559C168.317 213.329 167.489 211.995 166.644 210.663C166.329 210.172 166.013 209.681 165.698 209.19C165.566 208.983 165.433 208.775 165.297 208.562C164.988 208.081 164.672 207.604 164.355 207.129C162.443 211.216 161.005 215.817 160.657 220.325C160.641 220.527 160.626 220.73 160.61 220.938C160.467 222.811 160.341 224.684 160.221 226.558C160.14 227.812 160.054 229.065 159.954 230.317C159.283 238.402 159.283 238.402 162.305 245.801C162.305 245.897 162.305 245.994 162.305 246.094C157.954 246.19 153.604 246.287 149.121 246.387C149.024 246.097 148.928 245.807 148.828 245.508C149.179 245.045 149.532 244.583 149.89 244.125C152.612 240.333 151.715 236.161 151.192 231.825C150.9 229.384 150.673 226.939 150.459 224.49C150.423 224.078 150.387 223.667 150.351 223.256C150.296 222.629 150.241 222.001 150.186 221.374C149.984 219.067 149.772 216.761 149.558 214.455C149.539 214.253 149.521 214.05 149.501 213.841C149.158 210.138 148.808 206.436 148.444 202.734C148.408 202.368 148.408 202.368 148.372 201.993C148.306 201.325 148.24 200.656 148.172 199.988C148.136 199.623 148.1 199.258 148.062 198.882C147.997 198.064 147.997 198.064 147.656 197.461C146.318 196.994 144.93 196.684 143.555 196.344C143.349 196.292 143.143 196.241 142.931 196.187C138.208 195.009 133.434 194.294 128.613 193.652C128.616 193.923 128.619 194.194 128.622 194.473C128.637 197.006 128.554 199.51 128.371 202.037C128.332 202.609 128.292 203.18 128.253 203.752C128.211 204.357 128.168 204.962 128.125 205.568C128.034 206.844 127.947 208.12 127.859 209.397C127.61 213.024 127.358 216.651 127.103 220.278C126.962 222.288 126.823 224.299 126.686 226.309C126.614 227.365 126.541 228.422 126.465 229.478C126.059 235.134 125.923 240.716 125.977 246.387C121.916 246.387 117.855 246.387 113.672 246.387C115.137 243.75 115.137 243.75 115.814 242.908C116.329 241.954 116.367 241.632 116.349 240.587C116.344 240.298 116.339 240.01 116.335 239.713C116.326 239.402 116.317 239.09 116.309 238.77C116.297 238.296 116.297 238.296 116.285 237.813C116.197 234.918 116.036 232.028 115.851 229.138C115.836 228.9 115.821 228.661 115.805 228.416C114.97 215.581 111.917 203.198 108.795 190.755C108.729 190.488 108.662 190.221 108.594 189.946C108.471 189.452 108.347 188.959 108.221 188.467C107.916 187.236 107.747 186.143 107.812 184.863C108.356 184.757 108.356 184.757 108.911 184.649C129.739 180.819 129.739 180.819 147.439 169.756C147.949 169.336 147.949 169.336 148.535 169.336C149.752 180.254 150.964 191.172 152.166 202.091C152.285 203.168 152.403 204.245 152.522 205.321C152.663 206.595 152.803 207.868 152.943 209.142C152.995 209.612 153.047 210.083 153.099 210.553C153.17 211.196 153.24 211.84 153.311 212.483C153.351 212.844 153.39 213.205 153.431 213.577C153.516 214.453 153.516 214.453 153.516 215.332C153.71 215.29 153.905 215.247 154.105 215.204C154.364 215.149 154.622 215.095 154.889 215.039C155.144 214.985 155.399 214.93 155.661 214.874C156.428 214.749 157.135 214.737 157.91 214.746C157.939 214.57 157.968 214.394 157.997 214.212C158.342 212.288 158.919 210.577 159.668 208.777C159.793 208.471 159.918 208.164 160.047 207.849C160.337 207.139 160.628 206.43 160.92 205.722C161.49 204.339 162.053 202.954 162.617 201.569C166.662 191.643 170.772 181.745 174.915 171.86C176.105 169.021 177.292 166.181 178.475 163.339C178.603 163.033 178.73 162.727 178.861 162.412C179.494 160.892 180.127 159.372 180.758 157.851C181.788 155.37 182.821 152.892 183.899 150.431C184.053 150.077 184.207 149.723 184.366 149.359C184.636 148.741 184.91 148.125 185.188 147.511C185.303 147.248 185.418 146.984 185.536 146.713C185.683 146.387 185.683 146.387 185.832 146.055C186.368 144.093 185.931 142.094 185.546 140.144C185.493 139.868 185.44 139.593 185.386 139.309C185.21 138.391 185.031 137.474 184.852 136.557C184.725 135.898 184.598 135.239 184.471 134.58C184.127 132.797 183.78 131.014 183.432 129.232C183.216 128.12 183 127.008 182.784 125.896C180.631 114.793 178.432 103.7 176.197 92.614C176.054 91.9045 175.911 91.1949 175.768 90.4854C175.361 88.4666 174.953 86.4481 174.544 84.4299C174.42 83.8186 174.296 83.2073 174.173 82.5959C174.005 81.7653 173.836 80.9349 173.667 80.1046C173.618 79.8605 173.569 79.6164 173.518 79.3649C173.288 78.1747 173.288 78.1746 172.852 77.0508C172.003 76.776 171.169 76.5381 170.306 76.3184C170.077 76.256 169.847 76.1937 169.61 76.1295C166.122 75.222 162.642 74.8928 159.045 74.9084C158.497 74.909 158.497 74.909 157.938 74.9096C154.834 74.9415 151.873 75.3119 148.828 75.8789C148.764 79.572 148.835 83.2437 149.045 86.9304C149.082 87.5845 149.118 88.2386 149.154 88.8928C149.301 91.5904 149.301 91.5904 149.464 94.2872C149.535 95.4039 149.596 96.5209 149.652 97.6385C149.675 98.0594 149.701 98.4802 149.73 98.9007C149.953 102.123 149.953 102.123 149.387 103.08C148.956 103.453 148.956 103.453 147.949 104.004C147.621 104.227 147.294 104.453 146.97 104.681C146.62 104.91 146.27 105.138 145.919 105.365C145.64 105.547 145.64 105.547 145.355 105.733C144.768 106.116 144.18 106.497 143.591 106.879C143.19 107.14 142.789 107.402 142.387 107.663C141.41 108.3 140.432 108.936 139.453 109.57C139.621 110.587 139.874 111.384 140.366 112.287C140.494 112.525 140.622 112.763 140.754 113.008C140.892 113.263 141.031 113.519 141.174 113.782C142.793 116.816 144.297 119.893 145.758 123.006C146.218 123.982 146.683 124.955 147.148 125.928C157.205 147.103 157.205 147.103 153.496 157.944C151.946 161.883 149.748 164.917 146.777 167.871C146.557 168.092 146.336 168.312 146.109 168.539C141.33 173.033 135.07 175.303 128.961 177.338C128.37 177.537 127.779 177.736 127.187 177.936C122.207 179.608 117.199 181.196 112.189 182.776C112 182.835 111.811 182.895 111.616 182.956C110.316 183.366 109.016 183.776 107.716 184.186C103.298 185.574 103.298 185.574 98.889 186.994C98.371 187.162 97.8518 187.327 97.3325 187.492C96.0305 187.921 94.9848 188.267 93.9571 189.187C92.4167 190.383 90.3141 189.957 88.4766 189.844C88.2667 189.832 88.0569 189.821 87.8407 189.81C86.508 189.737 85.1783 189.642 83.8481 189.533C83.1653 189.477 82.4822 189.429 81.7989 189.38C77.6415 189.06 74.1038 187.873 70.2942 186.182C69.8107 185.974 69.8107 185.974 69.3174 185.762C69.0079 185.625 68.6985 185.489 68.3796 185.349C67.9649 185.166 67.9649 185.166 67.5418 184.981C66.325 184.31 65.589 183.52 65.0597 182.241C64.9666 182.019 64.8735 181.797 64.7776 181.569C64.6826 181.333 64.5876 181.097 64.4897 180.853C64.3393 180.486 64.3393 180.486 64.1859 180.112C63.5136 178.454 62.8681 176.785 62.2559 175.104C62.1811 174.903 62.1064 174.702 62.0294 174.495C61.6142 173.318 61.4516 172.338 61.5234 171.094C61.5234 169.873 61.0094 169.544 60.2051 168.64C57.9917 166.079 54.7852 162.263 54.7852 158.789C55.5908 159.163 56.2384 159.566 56.9069 160.15C57.1669 160.375 57.1669 160.375 57.4322 160.605C57.6101 160.761 57.7879 160.917 57.9712 161.078C58.3243 161.385 58.6776 161.692 59.0309 161.999C59.2015 162.148 59.3721 162.296 59.5479 162.45C60.2956 163.095 61.0552 163.726 61.8164 164.355C61.3697 162.98 60.9045 161.615 60.3928 160.262C60.3017 160.017 60.2107 159.771 60.117 159.519C59.9306 159.018 59.7406 158.518 59.547 158.019C58.8601 156.14 58.6279 154.74 59.4664 152.88C59.8485 152.16 60.2587 151.465 60.6812 150.769C61.0028 150.223 61.3244 149.677 61.6459 149.131C61.8167 148.844 61.9876 148.557 62.1636 148.262C62.8945 147.027 63.6074 145.782 64.3213 144.537C66.481 140.772 68.6806 137.031 70.8984 133.301C71.1885 133.397 71.4785 133.494 71.7773 133.594C71.7884 134.158 71.7884 134.158 71.7996 134.734C71.8275 136.151 71.8568 137.568 71.8864 138.985C71.899 139.594 71.9112 140.204 71.923 140.813C71.9618 142.802 72.0086 144.79 72.0703 146.777C72.081 147.127 72.081 147.127 72.0919 147.483C72.113 148.093 72.1404 148.703 72.171 149.313C72.194 149.807 72.194 149.807 72.2174 150.311C72.4474 151.668 73.1418 152.578 74.1211 153.516C75.3342 152.105 76.275 150.534 77.2522 148.956C77.4432 148.649 77.6343 148.342 77.8311 148.026C79.5214 145.303 81.1855 142.564 82.8443 139.822C84.2942 137.425 85.76 135.04 87.247 132.666C87.5261 132.218 87.8021 131.769 88.0746 131.318C88.3522 130.866 88.6433 130.423 88.9449 129.988C89.7608 128.808 89.7608 128.808 89.8313 127.441C89.546 126.848 89.2213 126.332 88.8428 125.793C87.5993 123.936 87.5993 123.936 87.5919 122.599C87.9807 121.275 88.6416 120.19 89.4156 119.061C90.2432 117.683 90.2527 116.642 90.1691 115.044C90.0423 112.037 91.2141 109.625 92.4316 106.934C92.6441 106.447 92.8559 105.96 93.0668 105.473C93.5787 104.296 94.1007 103.123 94.6289 101.953C94.4015 101.866 94.1741 101.779 93.9398 101.689C93.09 101.336 92.4678 100.898 91.7358 100.342C90.7712 99.6176 89.8082 98.9296 88.7856 98.2899C88.5887 98.1652 88.3919 98.0406 88.1892 97.9122C87.8032 97.6695 87.4146 97.4309 87.0233 97.197C86.7547 97.0264 86.7547 97.0264 86.4807 96.8525C86.3217 96.7554 86.1627 96.6583 85.9989 96.5583C84.4509 94.9675 84.1093 92.144 83.5567 90.0822C83.453 89.6989 83.3492 89.3157 83.2452 88.9326C83.0289 88.1338 82.8135 87.3347 82.5989 86.5354C82.3237 85.5101 82.0464 84.4854 81.7685 83.4608C81.5545 82.6715 81.3413 81.8821 81.1283 81.0926C80.9767 80.5306 80.8247 79.9688 80.6726 79.407C80.5816 79.0676 80.4906 78.7282 80.3968 78.3785C80.3162 78.0789 80.2356 77.7793 80.1525 77.4707C79.9805 76.7578 79.9805 76.7578 79.9805 76.1719C81.8119 76.3279 83.3 76.9296 84.9758 77.6619C85.2583 77.783 85.5409 77.9041 85.8319 78.0288C86.745 78.4208 87.6565 78.8161 88.5681 79.2114C89.1921 79.4799 89.8162 79.7482 90.4404 80.0162C91.668 80.5435 92.895 81.0719 94.1216 81.6012C96.2334 82.5117 98.3509 83.4085 100.47 84.3018C101.059 84.5505 101.647 84.7992 102.236 85.0479C102.63 85.2143 103.024 85.3806 103.418 85.5469C104.388 84.3787 105.225 83.1538 106.055 81.8848C106.884 80.6158 107.721 79.3908 108.691 78.2227C109.711 78.6304 110.004 78.9939 110.449 79.9805C110.584 79.792 110.72 79.6036 110.859 79.4094C116.786 71.198 124.613 61.5892 134.766 58.5938C135.746 58.5571 135.746 58.5571 136.523 58.5938C136.388 59.9984 135.715 60.8258 134.839 61.8713C132.153 65.1853 129.502 68.6183 127.441 72.3633C127.658 72.1257 127.874 71.8882 128.097 71.6434C131.137 68.3182 134.192 65.186 137.801 62.4719C138.229 62.149 138.651 61.8195 139.073 61.4891C144.666 57.2175 152.002 53.8447 159.082 53.3203C159.275 53.417 159.469 53.5137 159.668 53.6133C160.103 53.4683 160.103 53.4683 160.547 53.3203C160.982 53.1753 160.982 53.1753 161.426 53.0273ZM149.121 60.0586C148.378 60.3699 147.676 60.6985 146.96 61.0657C146.75 61.1727 146.539 61.2798 146.322 61.3901C143.3 62.9568 140.589 64.9004 137.988 67.0898C137.742 67.2968 137.495 67.5038 137.241 67.717C135.754 68.9658 135.754 68.9658 134.766 70.6055C136.047 70.14 137.197 69.4915 138.373 68.811C140.234 67.7468 142.121 66.7558 144.048 65.816C144.569 65.561 145.087 65.3002 145.605 65.0391C145.862 64.9125 146.119 64.786 146.384 64.6557C147.307 63.9893 147.868 63.1417 148.48 62.2009C148.599 62.0232 148.719 61.8456 148.841 61.6625C149.133 61.2273 149.42 60.7897 149.707 60.3516C149.514 60.2549 149.32 60.1582 149.121 60.0586ZM144.712 69.4004C138.786 72.3649 133.28 76.0476 128.4 80.5401C127.779 81.111 127.147 81.6643 126.508 82.2144C124.605 83.8814 122.965 85.6619 121.381 87.6366C120.949 88.1722 120.51 88.7023 120.062 89.225C117.16 92.6353 114.878 96.397 112.957 100.431C112.5 101.367 112.5 101.367 111.914 102.246C111.721 102.246 111.527 102.246 111.328 102.246C111.464 100.151 111.856 98.2467 112.463 96.2402C112.539 95.9846 112.614 95.7289 112.691 95.4655C112.918 94.6975 113.148 93.9307 113.379 93.1641C113.545 92.6117 113.71 92.0593 113.876 91.507C114.003 91.0828 114.13 90.6586 114.258 90.2344C113.067 91.2688 112.415 92.4924 111.676 93.8599C111.549 94.0917 111.422 94.3235 111.291 94.5624C110.177 96.6096 109.123 98.6846 108.105 100.781C107.815 100.781 107.525 100.781 107.227 100.781C106.594 97.3614 107.032 94.1683 107.684 90.7837C107.828 90.0326 107.968 89.2812 108.107 88.5292C108.201 88.0386 108.201 88.0386 108.297 87.538C108.461 86.696 108.461 86.696 108.105 85.8398C105.037 89.752 102.679 94.1608 100.527 98.6288C100.145 99.4205 99.7586 100.21 99.3725 101C97.8636 104.098 96.3883 107.213 94.9768 110.358C94.8483 110.636 94.7197 110.914 94.5873 111.201C93.7269 113.116 93.7269 113.116 94.043 115.137C94.6318 116.459 95.287 117.745 95.9455 119.033C96.0764 119.297 96.2073 119.561 96.3421 119.833C96.463 120.071 96.5838 120.308 96.7084 120.553C97.1305 121.729 97.1432 122.641 96.6576 123.797C96.5089 124.047 96.3602 124.297 96.207 124.555C96.0374 124.845 95.8678 125.135 95.693 125.433C95.411 125.902 95.411 125.902 95.1233 126.379C94.9287 126.709 94.7341 127.039 94.5336 127.379C94.1104 128.095 93.6849 128.811 93.2576 129.525C92.5564 130.698 91.8632 131.876 91.1705 133.055C89.0775 136.61 86.9749 140.155 84.7507 143.63C83.6259 145.388 82.5426 147.17 81.4636 148.956C79.9838 151.404 78.4616 153.818 76.8861 156.205C75.8212 157.822 74.8128 159.466 73.8281 161.133C74.5363 161.048 75.2443 160.963 75.9521 160.876C76.1658 160.85 76.3795 160.824 76.5996 160.798C77.8574 160.641 79.1001 160.449 80.3467 160.217C83.5853 159.68 85.9041 159.868 88.8245 161.407C89.1144 161.555 89.4043 161.702 89.703 161.854C90.2893 162.153 90.8741 162.455 91.4575 162.759C92.2059 163.143 92.9599 163.501 93.7248 163.851C96.519 165.159 98.1334 166.566 99.838 169.12C100.484 170.04 101.221 170.883 101.953 171.735C102.16 171.977 102.16 171.977 102.37 172.225C102.898 172.845 103.428 173.448 104.004 174.023C104.646 171.681 105.194 168.045 103.988 165.842C103.158 164.871 102.125 164.206 101.045 163.541C100.093 162.93 99.239 162.196 98.3643 161.481C95.8512 159.47 93.3054 157.905 90.3442 156.628C90.0519 156.497 89.7596 156.365 89.4585 156.229C87.0621 155.186 85.36 155.174 82.782 155.566C82.4198 155.621 82.0576 155.675 81.6845 155.731C81.4122 155.773 81.1399 155.816 80.8594 155.859C83.2327 153.945 84.5434 153.275 87.5977 153.516C88.9385 153.747 90.2517 154.063 91.571 154.395C92.2488 154.56 92.9267 154.725 93.6047 154.889C93.9002 154.963 94.1957 155.036 94.5002 155.112C95.188 155.295 95.188 155.295 95.8008 155.273C95.874 155.442 95.9472 155.611 96.0226 155.785C96.4376 156.537 96.9109 157.031 97.5254 157.631C97.7522 157.854 97.979 158.078 98.2126 158.308C98.45 158.54 98.6873 158.771 98.9319 159.009C100.453 160.497 101.934 161.984 103.301 163.616C103.695 164.098 103.695 164.098 104.297 164.355C104.2 162.809 104.104 161.262 104.004 159.668C105.12 160.226 105.444 160.484 106.167 161.423C106.345 161.654 106.524 161.885 106.708 162.123C106.891 162.364 107.074 162.605 107.263 162.854C107.449 163.093 107.634 163.332 107.825 163.578C109.146 165.297 109.888 166.499 110.193 168.677C110.242 169.02 110.291 169.363 110.342 169.716C110.377 169.977 110.413 170.239 110.449 170.508C112.182 169.476 113.839 168.061 114.551 166.113C114.468 164.937 114.09 164.332 113.324 163.458C110.633 160.225 108.252 156.664 105.991 153.119C105.474 152.32 105.474 152.32 104.8 151.56C104.149 150.744 103.719 150.122 103.418 149.121C103.71 147.811 104.364 146.771 105.075 145.652C105.664 144.706 106.2 143.731 106.742 142.758C107.221 141.903 107.706 141.051 108.191 140.199C109.426 138.026 110.635 135.838 111.841 133.649C111.945 133.46 112.049 133.27 112.157 133.076C113.662 130.624 113.662 130.624 114.373 127.912C114.404 127.528 114.404 127.528 114.435 127.136C114.475 126.599 114.513 126.061 114.547 125.523C114.568 125.266 114.589 125.009 114.611 124.744C114.628 124.51 114.645 124.276 114.662 124.035C114.915 123.068 115.314 122.587 116.016 121.875C116.715 121.467 117.375 121.122 118.109 120.791C118.31 120.697 118.512 120.603 118.72 120.506C119.144 120.309 119.57 120.113 119.997 119.919C120.645 119.624 121.29 119.324 121.935 119.023C122.35 118.831 122.765 118.639 123.181 118.447C123.467 118.315 123.467 118.315 123.759 118.179C124.972 117.63 126.158 117.231 127.441 116.895C127.365 118.364 127.286 119.834 127.207 121.304C127.18 121.804 127.154 122.303 127.128 122.803C127.09 123.523 127.051 124.243 127.012 124.963C127.001 125.184 126.99 125.406 126.978 125.634C126.911 126.841 126.787 128.011 126.562 129.199C125.2 129.585 123.901 129.836 122.491 129.975C118.43 130.258 118.43 130.258 115.228 132.44C114.918 132.918 114.609 133.398 114.322 133.891C113.736 134.846 113.052 135.727 112.379 136.622C111.683 137.552 111.003 138.493 110.323 139.435C109.904 139.986 109.46 140.486 108.99 140.993C108.321 141.72 108.321 141.72 108.447 142.455C108.748 143.448 109.184 144.341 109.663 145.258C109.761 145.448 109.859 145.639 109.96 145.835C110.168 146.238 110.378 146.641 110.587 147.043C110.901 147.645 111.211 148.248 111.521 148.852C113.75 153.417 113.75 153.417 116.895 157.324C116.775 155.338 116.647 153.355 116.452 151.374C116.062 147.388 115.943 143.457 116.016 139.453C117.509 140.8 118.567 142.412 119.696 144.067C120.117 144.678 120.537 145.289 120.958 145.9C121.268 146.349 121.268 146.349 121.583 146.808C122.231 147.747 122.885 148.68 123.544 149.611C123.823 150.005 124.101 150.399 124.377 150.795C125.157 151.908 125.957 153 126.781 154.081C128.845 156.826 130.291 158.947 130.59 162.432C130.721 163.763 130.929 165.083 131.122 166.406C131.231 167.156 131.336 167.906 131.439 168.657C131.486 169.001 131.533 169.345 131.582 169.7C131.645 170.166 131.645 170.166 131.709 170.642C131.798 171.382 131.798 171.382 132.129 171.973C134.479 171.574 136.454 170.703 138.574 169.629C139.016 169.407 139.016 169.407 139.466 169.181C144.85 166.272 148.616 161.534 150.52 155.758C152.916 147.022 148.941 137.841 145.312 130.078C145.163 129.758 145.013 129.437 144.859 129.107C141.855 122.708 138.601 116.433 135.352 110.156C135.156 109.779 134.961 109.401 134.765 109.023C133.83 107.216 132.891 105.411 131.948 103.607C131.553 102.851 131.158 102.093 130.764 101.336C129.121 98.1925 127.42 95.0848 125.684 91.9922C123.01 93.2729 120.908 95.8561 118.868 97.9657C118.7 98.1365 118.533 98.3073 118.361 98.4833C118.212 98.6368 118.063 98.7903 117.91 98.9485C117.48 99.3164 117.48 99.3164 116.602 99.6094C118.115 94.8346 121.001 90.6152 124.63 87.1754C125.142 86.675 125.603 86.1467 126.068 85.6018C135.348 74.8956 149.911 67.4289 164.041 66.3677C164.301 66.3519 164.562 66.336 164.831 66.3197C166.415 66.0722 167.239 64.8457 168.127 63.6292C168.333 63.321 168.538 63.0128 168.75 62.6953C162.38 60.572 150.356 66.6629 144.712 69.4004ZM124.512 69.1406C123.49 70.0637 122.475 70.9925 121.466 71.9288C121.054 72.3098 120.639 72.6876 120.224 73.0648C116.146 76.9196 112.544 82.6496 111.328 88.1836C111.425 88.377 111.521 88.5703 111.621 88.7695C111.711 88.6357 111.801 88.5019 111.894 88.3641C119.544 76.991 119.544 76.991 122.003 73.4802C122.158 73.2588 122.313 73.0374 122.473 72.8093C123.217 71.7529 123.984 70.7261 124.805 69.7266C124.66 69.4365 124.66 69.4365 124.512 69.1406ZM143.848 81.4453C138.815 84.0914 133.791 86.7342 128.906 89.6484C129.087 90.866 129.498 91.7995 130.066 92.8883C130.153 93.0575 130.241 93.2268 130.331 93.4012C130.617 93.9518 130.906 94.5009 131.195 95.05C131.393 95.4296 131.591 95.8093 131.789 96.189C133.52 99.5007 135.299 102.786 137.109 106.055C137.303 106.055 137.496 106.055 137.695 106.055C137.786 105.719 137.878 105.384 137.972 105.039C138.324 103.741 138.678 102.444 139.031 101.147C139.27 100.269 139.508 99.3913 139.747 98.5136C140.52 95.6721 141.3 92.8331 142.107 90.0009C142.245 89.5148 142.383 89.0287 142.52 88.5427C142.715 87.854 142.912 87.1656 143.111 86.4782C143.294 85.848 143.473 85.2169 143.652 84.5856C143.754 84.2319 143.856 83.8782 143.961 83.5138C144.131 82.6674 144.151 82.2391 143.848 81.4453ZM85.2539 82.0312C85.571 83.2295 85.8887 84.4275 86.207 85.6254C86.3148 86.0316 86.4225 86.4379 86.53 86.8442C86.7875 87.8173 87.0475 88.7896 87.3134 89.7605C87.4866 90.4063 87.6507 91.0547 87.7984 91.7067C88.1771 93.2631 88.58 94.0838 89.9532 94.9455C90.1427 95.0525 90.3321 95.1595 90.5273 95.2698C90.7219 95.3889 90.9165 95.508 91.1169 95.6307C91.5106 95.8712 91.9062 96.1085 92.3039 96.3422C92.8308 96.6557 93.3446 96.9821 93.8564 97.3194C95.1672 98.3143 95.1672 98.3143 96.6797 98.7305C96.7834 98.5075 96.7834 98.5075 96.8892 98.2799C98.189 95.4916 99.5038 92.7334 101.011 90.0501C101.412 89.3986 101.412 89.3986 101.367 88.7695C99.4969 87.9495 97.6258 87.1314 95.7542 86.3144C95.1184 86.0366 94.4828 85.7585 93.8473 85.4799C92.9307 85.0781 92.0135 84.6778 91.0961 84.2777C90.6744 84.0923 90.6744 84.0923 90.2441 83.9031C88.6043 83.19 86.9618 82.5618 85.2539 82.0312ZM179.004 87.5977C179.197 89.6311 179.542 91.5982 179.955 93.5978C180.101 94.3209 180.248 95.044 180.395 95.7672C180.475 96.164 180.556 96.5609 180.637 96.9577C181.092 99.1933 181.545 101.43 181.994 103.666C182.045 103.921 182.097 104.175 182.149 104.438C183.108 109.217 184.028 114.003 184.942 118.791C185.24 120.35 185.538 121.909 185.837 123.468C185.901 123.801 185.901 123.801 185.966 124.14C186.138 125.039 186.311 125.939 186.483 126.838C187.003 129.55 187.52 132.262 188.033 134.975C188.361 136.709 188.692 138.442 189.025 140.175C189.221 141.193 189.416 142.211 189.606 143.23C189.815 144.351 190.032 145.47 190.248 146.589C190.309 146.919 190.37 147.25 190.432 147.591C190.522 148.044 190.522 148.044 190.613 148.507C190.688 148.899 190.688 148.899 190.764 149.3C191.077 150.17 191.48 150.584 192.188 151.172C192.931 151.484 193.638 151.744 194.403 151.983C194.62 152.054 194.837 152.125 195.06 152.198C195.762 152.427 196.465 152.651 197.168 152.875C197.888 153.108 198.607 153.343 199.327 153.577C199.801 153.732 200.276 153.886 200.751 154.04C202.845 154.719 204.923 155.441 206.994 156.188C208.06 156.595 208.06 156.595 209.18 156.738C210.354 147.184 211.515 137.628 212.665 128.071C212.876 126.317 213.088 124.562 213.299 122.808C213.466 121.426 213.632 120.044 213.798 118.663C213.876 118.015 213.954 117.368 214.033 116.721C214.273 114.728 214.511 112.735 214.746 110.742C214.777 110.484 214.807 110.227 214.838 109.961C214.924 109.235 215.008 108.509 215.091 107.782C215.116 107.572 215.14 107.362 215.166 107.145C215.296 105.994 215.356 104.869 215.332 103.711C213.947 103.091 212.563 102.471 211.178 101.851C210.674 101.625 210.171 101.4 209.668 101.175C206.928 99.9479 204.187 98.7231 201.441 97.5105C196.764 95.444 192.105 93.347 187.486 91.1526C185.568 90.2426 183.642 89.3539 181.7 88.496C181.498 88.406 181.296 88.3161 181.088 88.2234C180.084 87.7554 180.084 87.7554 179.004 87.5977ZM145.02 93.457C144.685 94.6978 144.351 95.9387 144.018 97.1799C143.905 97.6023 143.791 98.0246 143.677 98.4468C143.514 99.0531 143.351 99.6597 143.188 100.266C143.09 100.631 142.992 100.997 142.891 101.373C142.652 102.191 142.652 102.191 142.676 102.832C143.072 102.649 143.461 102.45 143.848 102.246C144.149 102.098 144.451 101.95 144.762 101.797C145.63 101.191 145.63 101.191 145.753 100.522C145.79 99.8443 145.773 99.1887 145.734 98.5107C145.728 98.2841 145.723 98.0576 145.717 97.8241C145.671 96.3545 145.514 94.9128 145.312 93.457C145.216 93.457 145.119 93.457 145.02 93.457ZM218.555 107.812C217.845 113.129 217.185 118.451 216.551 123.776C216.471 124.448 216.391 125.119 216.31 125.79C216.194 126.746 216.081 127.702 215.968 128.658C215.934 128.944 215.899 129.23 215.863 129.524C215.551 132.201 215.475 134.186 216.623 136.671C216.84 137.164 217.057 137.657 217.273 138.151C217.387 138.41 217.501 138.669 217.619 138.936C218.222 140.332 218.776 141.746 219.333 143.16C219.507 143.6 219.507 143.6 219.684 144.049C220.041 144.952 220.396 145.856 220.752 146.759C221.225 147.958 221.698 149.157 222.171 150.356C222.285 150.645 222.399 150.933 222.516 151.231C223.628 154.047 224.751 156.858 225.879 159.668C225.976 159.668 226.072 159.668 226.172 159.668C226.194 159.487 226.215 159.305 226.238 159.118C226.304 158.565 226.37 158.011 226.437 157.458C226.516 156.801 226.594 156.145 226.673 155.488C226.874 153.807 227.077 152.126 227.283 150.446C227.743 146.678 228.183 142.908 228.596 139.135C228.803 137.248 229.019 135.363 229.254 133.479C229.484 131.634 229.692 129.787 229.884 127.938C229.96 127.24 230.045 126.544 230.137 125.849C230.777 121.832 230.777 121.832 229.437 118.163C228.607 117.198 227.695 116.372 226.704 115.576C225.869 114.887 225.142 114.11 224.392 113.329C223.845 112.783 223.297 112.238 222.748 111.694C222.463 111.411 222.179 111.128 221.895 110.845C221.381 110.334 220.867 109.823 220.353 109.313C219.972 108.935 219.594 108.554 219.221 108.168C218.898 107.779 218.898 107.779 218.555 107.812ZM214.453 140.332C214.41 140.669 214.41 140.669 214.366 141.014C214.095 143.135 213.824 145.255 213.552 147.376C213.412 148.466 213.272 149.557 213.133 150.647C212.999 151.7 212.864 152.752 212.728 153.804C212.677 154.206 212.625 154.607 212.574 155.008C212.503 155.571 212.43 156.133 212.358 156.696C212.317 157.016 212.276 157.336 212.234 157.666C211.954 159.532 211.954 159.532 211.365 160.112C211.171 160.252 210.976 160.392 210.776 160.535C210.446 160.776 210.446 160.776 210.109 161.021C209.869 161.191 209.629 161.361 209.381 161.536C209.133 161.714 208.886 161.893 208.63 162.077C207.839 162.644 207.045 163.207 206.25 163.77C205.737 164.136 205.224 164.502 204.711 164.868C202.317 166.568 199.917 168.223 197.381 169.703C197.117 169.872 196.854 170.041 196.582 170.215C196.28 170.392 195.978 170.569 195.667 170.752C194.24 171.98 194.118 174.064 193.762 175.818C193.677 176.215 193.591 176.611 193.504 177.008C193.333 177.795 193.167 178.583 193.003 179.371C192.802 180.332 192.591 181.288 192.373 182.245C192.262 182.739 192.151 183.234 192.041 183.728C191.965 184.06 191.965 184.06 191.888 184.399C191.664 185.447 191.588 186.183 191.895 187.207C191.978 187.001 192.062 186.795 192.149 186.583C192.267 186.293 192.385 186.002 192.507 185.703C192.638 185.379 192.77 185.055 192.905 184.722C193.199 184.003 193.495 183.286 193.794 182.57C194.491 180.895 195.158 179.231 195.681 177.491C197.109 172.959 199.511 171.252 203.58 168.982C205.096 168.11 206.53 167.122 207.971 166.132C208.36 165.872 208.36 165.872 208.756 165.607C212.376 163.312 212.376 163.312 214.629 159.872C214.661 159.624 214.692 159.376 214.724 159.12C214.761 158.838 214.798 158.555 214.836 158.263C214.871 157.959 214.907 157.655 214.944 157.341C214.983 157.026 215.022 156.71 215.063 156.384C215.145 155.715 215.224 155.046 215.303 154.377C215.422 153.361 215.551 152.346 215.681 151.332C215.759 150.68 215.837 150.028 215.915 149.376C215.953 149.076 215.992 148.776 216.032 148.467C216.359 145.543 215.868 143.034 214.746 140.332C214.649 140.332 214.553 140.332 214.453 140.332ZM67.9688 145.312C67.8506 145.533 67.7325 145.753 67.6108 145.979C67.1677 146.804 66.7243 147.629 66.2807 148.454C66.0897 148.81 65.8988 149.165 65.708 149.521C65.4319 150.035 65.1554 150.549 64.8788 151.063C64.7041 151.389 64.5293 151.715 64.3493 152.051C63.9626 152.756 63.5583 153.438 63.1348 154.12C62.6451 154.92 62.6451 154.92 62.6907 155.657C63.7215 158.523 65.0771 161.537 66.7969 164.062C66.9902 164.062 67.1836 164.062 67.3828 164.062C68.1136 163.122 68.7142 162.089 69.342 161.078C69.6142 160.656 69.6142 160.656 69.8919 160.226C70.0621 159.953 70.2322 159.68 70.4075 159.399C70.5649 159.149 70.7222 158.899 70.8843 158.641C71.2539 157.761 71.1924 157.341 70.8984 156.445C70.4923 155.929 70.0469 155.502 69.5721 155.049C68.3174 153.145 68.4415 150.57 68.3716 148.37C68.3603 148.075 68.3489 147.779 68.3372 147.475C68.3099 146.754 68.2848 146.033 68.2617 145.312C68.165 145.312 68.0684 145.312 67.9688 145.312ZM120.117 150.879C120.149 151.325 120.149 151.325 120.181 151.781C120.254 152.841 120.318 153.902 120.376 154.963C120.405 155.467 120.437 155.971 120.471 156.475C120.703 162.569 118.167 168.678 114.257 173.244C111.614 176.026 108.123 177.885 104.883 179.883C105.898 180.232 106.523 180.116 107.542 179.811C107.839 179.724 108.136 179.637 108.442 179.547C108.762 179.449 109.083 179.352 109.414 179.251C109.916 179.102 109.916 179.102 110.428 178.949C111.141 178.737 111.853 178.523 112.564 178.308C113.631 177.985 114.699 177.667 115.768 177.349C119.007 176.382 122.237 175.39 125.447 174.326C125.706 174.24 125.965 174.154 126.232 174.066C127.363 173.76 127.363 173.76 128.32 173.145C128.421 170.908 128.188 168.7 127.932 166.48C127.886 166.066 127.843 165.652 127.804 165.237C127.529 162.348 126.898 160.259 125.098 157.91C124.861 157.566 124.626 157.222 124.393 156.876C124.19 156.589 123.988 156.302 123.779 156.006C122.736 154.515 121.749 152.999 120.795 151.45C120.668 151.262 120.541 151.073 120.41 150.879C120.313 150.879 120.217 150.879 120.117 150.879ZM77.1403 164.115C76.6269 164.19 76.1129 164.261 75.5985 164.329C74.8492 164.427 74.1026 164.537 73.3555 164.65C73.0117 164.691 73.0117 164.691 72.661 164.734C71.4169 164.933 71.4169 164.933 70.4861 165.728C70.1129 166.352 70.1129 166.352 69.7266 167.285C70.0359 167.248 70.0359 167.248 70.3514 167.209C72.0221 167.007 73.6931 166.814 75.3662 166.634C76.4631 166.515 77.5429 166.382 78.6255 166.169C83.1706 165.459 88.3517 168.198 91.9922 170.801C92.8164 171.439 93.614 172.105 94.4092 172.778C95.9167 174.036 97.4254 175.287 98.9868 176.477C99.258 176.685 99.5291 176.892 99.8085 177.106C100.478 177.618 100.478 177.618 101.367 177.539C100.929 176.203 100.172 175.211 99.2981 174.133C99.0827 173.865 99.0827 173.865 98.8629 173.591C98.5692 173.226 98.275 172.862 97.98 172.498C97.5939 172.017 97.2166 171.53 96.8422 171.04C96.6254 170.762 96.4086 170.483 96.1853 170.197C95.9969 169.951 95.8084 169.706 95.6142 169.454C93.7948 167.604 91.2673 166.589 88.9709 165.454C88.6535 165.295 88.3361 165.137 88.0091 164.973C84.1901 163.075 81.2591 163.498 77.1403 164.115ZM76.5953 170.653C76.1634 170.72 76.1634 170.72 75.7228 170.789C75.1185 170.883 74.5143 170.979 73.9102 171.075C72.9829 171.222 72.0552 171.367 71.1273 171.511C70.5391 171.603 69.9508 171.696 69.3626 171.788C69.0846 171.832 68.8066 171.875 68.5202 171.92C68.1357 171.981 68.1357 171.981 67.7434 172.044C67.5176 172.08 67.2918 172.116 67.0591 172.153C66.4814 172.245 66.4814 172.245 65.918 172.559C66.4159 175.333 67.5723 179.029 69.6909 180.974C70.7927 181.705 71.9658 182.17 73.2182 182.578C73.8281 182.812 73.8281 182.812 74.41 183.166C77.0058 184.739 79.9766 184.721 82.9285 184.955C83.4856 185.004 84.0428 185.054 84.5999 185.104C89.4729 185.765 89.4729 185.765 93.9331 184.241C94.1223 184.121 94.3116 184.002 94.5065 183.879C95.8173 183.038 97.0143 182.13 98.1445 181.055C97.2268 180.077 96.2168 179.296 95.1233 178.528C94.9426 178.4 94.7619 178.273 94.5757 178.141C94.0089 177.743 93.4403 177.348 92.8711 176.953C92.7006 176.834 92.5302 176.716 92.3545 176.593C89.9973 174.96 87.5724 173.431 85.1257 171.936C84.7198 171.681 84.7198 171.681 84.3058 171.42C83.9146 171.185 83.9146 171.185 83.5155 170.945C83.2858 170.804 83.056 170.663 82.8192 170.518C80.8563 169.763 78.612 170.33 76.5953 170.653Z" fill="black"/>
<path d="M72.2421 172.221C72.6669 172.238 73.0915 172.259 73.5159 172.284C73.7294 172.288 73.943 172.292 74.163 172.297C74.7873 172.331 74.7873 172.331 75.8779 172.558C76.4055 173.183 76.4055 173.183 76.7568 174.023C76.9155 174.339 77.0741 174.655 77.2375 174.981C78.834 178.496 78.834 178.496 78.2217 180.468C77.8713 181.275 77.4864 182.049 77.0498 182.812C74.2847 182.488 71.5151 180.838 69.5127 178.925C69.1396 178.418 69.1396 178.418 69.0664 177.484C69.1739 177.107 69.2991 176.735 69.4326 176.367C69.5657 175.926 69.5657 175.926 69.7016 175.477C70.6952 172.286 70.6952 172.286 72.2421 172.221Z" fill="black"/>
<path d="M85.162 174.884C85.7342 174.984 85.7342 174.984 86.4255 175.195C86.7502 175.283 87.075 175.37 87.4097 175.461C90.1043 176.237 90.1043 176.237 90.527 176.66C90.625 177.719 90.6222 178.783 90.6369 179.846C90.6478 180.145 90.6588 180.443 90.6701 180.751C90.6956 182.903 90.6956 182.903 89.9949 183.745C88.5752 184.109 87.2064 184.075 85.748 184.039C85.4472 184.035 85.1464 184.031 84.8365 184.027C84.0964 184.017 83.3567 184.002 82.6169 183.984C82.4736 183.568 82.3316 183.151 82.19 182.734C82.1108 182.502 82.0315 182.27 81.9499 182.031C81.3804 180.193 81.5727 179.168 82.4588 177.481C83.7158 175.3 83.7158 175.3 85.162 174.884Z" fill="black"/>
<path d="M91.5161 154.01C91.8526 154.082 92.1891 154.153 92.5358 154.227C94.3497 154.644 95.4858 154.947 96.6797 156.445C97.084 156.854 97.4927 157.258 97.9042 157.66C98.3627 158.115 98.8213 158.571 99.2798 159.027C99.5075 159.252 99.7352 159.478 99.9699 159.71C101.377 161.111 102.719 162.548 104.004 164.063C104.197 163.773 104.391 163.483 104.59 163.184C104.681 163.843 104.681 163.843 104.59 164.649C103.857 165.326 103.857 165.326 103.125 165.82C102.982 165.689 102.839 165.557 102.692 165.421C101.314 164.171 99.8972 162.982 98.4375 161.829C98.2745 161.699 98.1115 161.569 97.9435 161.436C95.5538 159.564 93.1353 158.124 90.3442 156.922C89.9058 156.724 89.9058 156.724 89.4585 156.522C87.0621 155.479 85.36 155.467 82.782 155.859C82.4198 155.914 82.0576 155.968 81.6845 156.024C81.4122 156.067 81.1399 156.109 80.8594 156.152C80.8594 155.862 80.8594 155.572 80.8594 155.274C81.5151 154.739 81.5151 154.739 82.4158 154.193C82.8491 153.92 82.8491 153.92 83.2912 153.64C85.9807 152.604 88.8016 153.374 91.5161 154.01Z" fill="black"/>
</svg>
