<svg width="300" height="300" viewBox="0 0 300 300" fill="none" xmlns="http://www.w3.org/2000/svg">
<path d="M139.754 83.7295C140.052 83.7274 140.351 83.7254 140.659 83.7233C141.618 83.7182 142.577 83.7163 143.536 83.7157C143.864 83.7154 144.192 83.7151 144.53 83.7148C149.542 83.7179 154.416 83.8937 159.375 84.6679C159.664 84.7102 159.954 84.7526 160.252 84.7962C173.493 86.7531 186.545 91.5597 196.495 100.749C197.097 101.302 197.714 101.83 198.34 102.356C207.412 110.346 213.668 122.692 215.771 134.509C216.047 135.997 216.347 136.942 217.323 138.085C219.476 141.07 219.136 146.129 218.591 149.542C218.432 150.429 218.264 151.167 217.899 151.994C217.398 153.767 218.135 155.572 218.597 157.293C218.703 157.704 218.808 158.115 218.913 158.526C219.199 159.636 219.49 160.744 219.783 161.851C220.087 163.009 220.386 164.168 220.685 165.327C221.183 167.253 221.684 169.179 222.187 171.104C222.933 173.954 223.668 176.807 224.4 179.661C224.629 180.554 224.859 181.447 225.088 182.34C225.143 182.555 225.199 182.771 225.256 182.993C225.925 185.599 226.598 188.204 227.272 190.81C227.355 191.13 227.437 191.451 227.523 191.781C227.595 192.06 227.667 192.338 227.741 192.624C227.803 192.867 227.865 193.109 227.93 193.359C227.985 193.571 228.041 193.782 228.098 194.001C228.445 195.48 228.378 197.003 227.893 198.431C227.001 199.71 225.874 200.68 224.414 201.269C222.545 201.47 220.69 201.553 219.14 200.391C217.454 198.683 216.137 196.842 214.911 194.788C214.746 194.517 214.582 194.246 214.412 193.967C213.935 193.18 213.461 192.391 212.988 191.601C212.759 191.221 212.53 190.842 212.301 190.462C211.885 189.77 211.471 189.078 211.057 188.385C210.196 186.943 209.321 185.51 208.447 184.076C206.943 181.607 205.44 179.138 203.94 176.667C203.725 176.314 203.511 175.961 203.296 175.607C202.028 173.521 200.765 171.431 199.512 169.336C197.234 169.553 195.868 170.869 194.246 172.358C193.652 172.851 193.652 172.851 192.945 173.25C192.016 173.839 191.35 174.579 190.631 175.397C187.308 179.071 183.893 182.526 179.883 185.449C179.59 185.667 179.298 185.884 178.997 186.108C172.665 190.666 162.802 196.582 154.687 196.582C154.687 196.969 154.687 197.355 154.687 197.754C154.974 197.789 155.26 197.823 155.555 197.859C156.822 198.041 158.034 198.365 159.265 198.708C159.504 198.774 159.743 198.839 159.99 198.907C160.762 199.119 161.533 199.333 162.305 199.548C162.567 199.621 162.829 199.694 163.099 199.769C164.656 200.202 166.212 200.638 167.768 201.076C168.387 201.25 169.007 201.422 169.626 201.594C170.557 201.853 171.485 202.118 172.412 202.386C172.668 202.457 172.924 202.527 173.188 202.6C175.621 203.324 177.467 204.601 178.721 206.838C179.702 208.864 179.936 211.113 179.453 213.317C178.964 214.662 178.189 215.262 176.953 215.918C176.126 216.173 175.385 216.248 174.522 216.249C174.271 216.25 174.019 216.252 173.761 216.253C173.486 216.253 173.212 216.252 172.929 216.252C172.636 216.253 172.344 216.254 172.042 216.255C171.059 216.257 170.075 216.258 169.092 216.258C168.388 216.259 167.684 216.261 166.98 216.262C165.065 216.266 163.15 216.268 161.236 216.27C160.04 216.27 158.844 216.272 157.649 216.273C154.338 216.276 151.026 216.279 147.715 216.28C147.503 216.281 147.292 216.281 147.073 216.281C146.755 216.281 146.755 216.281 146.43 216.281C145.999 216.281 145.569 216.281 145.139 216.281C144.819 216.281 144.819 216.281 144.492 216.281C141.033 216.283 137.574 216.288 134.115 216.295C130.563 216.301 127.011 216.305 123.46 216.305C121.466 216.306 119.472 216.307 117.478 216.313C115.602 216.318 113.727 216.318 111.851 216.316C111.163 216.315 110.475 216.317 109.786 216.32C108.847 216.323 107.907 216.322 106.967 216.319C106.695 216.321 106.422 216.323 106.142 216.326C104.221 216.311 102.791 216.034 101.275 214.764C99.9634 212.383 100.108 209.342 100.14 206.689C100.142 206.363 100.144 206.036 100.146 205.699C100.173 202.753 100.302 199.815 100.488 196.875C100.267 196.778 100.267 196.778 100.042 196.679C96.6973 195.196 93.6781 193.599 90.8201 191.309C90.5721 191.11 90.5721 191.11 90.319 190.908C79.7468 182.36 73.6452 169.984 72.0181 156.571C71.4631 151.296 71.4856 145.864 72.3631 140.625C72.4057 140.368 72.4483 140.112 72.4921 139.847C74.7243 126.935 80.5137 115.497 89.329 105.853C89.8485 105.278 90.346 104.693 90.8385 104.095C91.8042 102.964 92.9052 102.028 94.0428 101.074C94.2924 100.857 94.5421 100.641 94.7993 100.417C107.151 89.8397 123.484 83.8048 139.754 83.7295ZM140.627 89.3966C124.032 90.2485 108.066 95.3392 95.9557 107.086C95.5161 107.511 95.0707 107.929 94.6242 108.347C90.8476 111.935 87.8527 116.207 85.2537 120.703C85.1326 120.91 85.0115 121.118 84.8867 121.331C80.9145 128.218 78.28 136.196 77.6366 144.141C77.6169 144.383 77.5973 144.625 77.577 144.874C76.8124 155.12 78.5057 165.27 83.4959 174.316C83.6432 174.586 83.7905 174.855 83.9422 175.132C88.2721 182.68 94.8727 188.489 103.025 191.517C105.582 192.503 105.582 192.503 106.347 193.652C106.387 194.276 106.387 194.276 106.341 195.011C106.042 200.154 106.055 205.173 106.055 210.351C119.01 210.351 131.965 210.351 145.312 210.351C145.216 209.868 145.119 209.385 145.019 208.887C143.811 208.507 142.603 208.129 141.394 207.751C141.208 207.693 141.022 207.635 140.831 207.575C138.504 206.846 136.171 206.143 133.824 205.484C133.375 205.357 132.926 205.23 132.478 205.103C131.823 204.917 131.169 204.733 130.512 204.555C127.835 203.827 125.434 203.151 123.677 200.855C123.56 200.641 123.442 200.428 123.321 200.207C122.52 198.898 121.775 198.423 120.41 197.754C119.952 196.837 120.013 196.126 120.117 195.117C121.258 193.958 122.557 193.533 124.054 193.011C130.509 190.621 135.269 186.102 138.209 179.89C140.612 174.06 140.988 167.468 138.569 161.58C138.14 160.669 137.632 159.875 137.036 159.064C136.398 157.993 136.367 157.381 136.523 156.152C136.816 155.31 136.816 155.31 137.402 154.687C138.199 154.392 138.905 154.257 139.746 154.394C142.733 156.361 143.782 160.205 144.726 163.476C144.796 163.704 144.865 163.932 144.936 164.167C146.795 171.182 145.04 178.992 141.541 185.183C138.555 190.242 134.596 193.948 129.444 196.77C129.178 196.967 129.178 196.967 128.906 197.168C128.906 197.458 128.906 197.748 128.906 198.047C129.172 198.128 129.172 198.128 129.443 198.211C131.202 198.749 132.96 199.29 134.717 199.833C135.763 200.157 136.81 200.479 137.857 200.799C139.011 201.152 140.163 201.507 141.315 201.864C141.768 202.004 142.221 202.143 142.674 202.281C143.317 202.477 143.959 202.676 144.602 202.876C144.791 202.933 144.981 202.99 145.176 203.049C146.823 203.568 148.317 204.218 149.487 205.517C150.107 206.757 150.402 207.974 150.699 209.323C150.806 210.036 150.806 210.036 151.172 210.351C151.876 210.379 152.572 210.388 153.276 210.385C153.606 210.385 153.606 210.385 153.943 210.385C154.673 210.385 155.404 210.382 156.135 210.38C156.64 210.38 157.146 210.379 157.651 210.379C158.984 210.378 160.316 210.375 161.649 210.372C163.008 210.369 164.367 210.367 165.726 210.366C168.394 210.363 171.062 210.358 173.73 210.351C173.654 209.776 173.654 209.776 173.437 209.18C172.646 208.805 171.929 208.548 171.094 208.301C170.789 208.21 170.484 208.119 170.169 208.026C169.057 207.704 167.941 207.392 166.825 207.082C166.412 206.966 165.999 206.851 165.586 206.735C164.506 206.433 163.425 206.131 162.343 205.83C160.611 205.347 158.879 204.863 157.148 204.378C156.546 204.21 155.943 204.043 155.341 203.875C154.974 203.772 154.606 203.67 154.227 203.564C153.905 203.474 153.583 203.384 153.251 203.292C150.65 202.533 150.65 202.533 150.241 201.947C150.162 201.723 150.082 201.5 150 201.269C148.65 198.01 148.65 198.01 145.898 195.996C145.192 195.075 145.216 194.202 145.312 193.066C145.898 192.187 145.898 192.187 146.529 192.004C146.798 191.968 147.067 191.932 147.345 191.894C147.821 191.824 147.821 191.824 148.306 191.753C148.879 191.674 149.452 191.596 150.025 191.52C165.525 189.41 179.347 181.014 188.873 168.658C191.388 165.408 193.852 163.956 197.827 162.927C201.378 161.955 204.335 160.644 207.129 158.203C207.302 158.057 207.475 157.911 207.654 157.761C210.906 154.8 213.056 150.413 213.351 146.036C213.403 143.252 213.417 140.123 211.524 137.882C210.785 136.909 210.542 135.93 210.26 134.766C210.135 134.291 210.009 133.817 209.882 133.343C209.816 133.096 209.75 132.849 209.682 132.594C205.855 118.72 197.378 106.475 184.854 99.1085C171.673 91.6274 155.692 88.6885 140.627 89.3966ZM212.067 160.876C211.809 161.154 211.551 161.432 211.285 161.719C209.603 163.476 207.774 164.624 205.664 165.82C205.374 166.014 205.084 166.207 204.785 166.406C205.202 167.539 205.732 168.523 206.363 169.551C206.563 169.879 206.763 170.206 206.97 170.544C207.188 170.898 207.405 171.252 207.623 171.606C207.964 172.163 208.304 172.719 208.644 173.276C208.875 173.655 209.107 174.034 209.338 174.413C210.426 176.193 211.497 177.982 212.567 179.773C214.639 183.236 216.751 186.673 218.871 190.105C219.842 191.677 220.809 193.251 221.777 194.824C222.104 193.843 222.035 193.565 221.778 192.593C221.67 192.178 221.67 192.178 221.56 191.755C221.479 191.454 221.398 191.152 221.315 190.842C221.232 190.526 221.149 190.21 221.064 189.884C220.791 188.845 220.515 187.806 220.239 186.767C220.05 186.05 219.862 185.332 219.673 184.615C219.386 183.52 219.098 182.425 218.81 181.33C217.852 177.694 216.923 174.052 216 170.407C215.139 167.009 214.233 163.627 213.281 160.254C212.617 160.185 212.617 160.185 212.067 160.876Z" fill="black"/>
<path d="M203.026 141.797C204.386 142.751 205.446 143.693 205.956 145.312C206.269 147.736 205.993 149.782 204.491 151.758C203.077 153.125 201.597 153.778 199.632 153.857C197.517 153.713 195.957 152.696 194.53 151.172C193.299 149.544 193.441 147.556 193.651 145.605C194.15 143.774 195.316 142.54 196.874 141.504C199.015 140.502 200.992 140.687 203.026 141.797Z" fill="black"/>
</svg>
