<svg width="300" height="300" viewBox="0 0 300 300" fill="none" xmlns="http://www.w3.org/2000/svg">
<path d="M190.137 60.6443C189.486 61.2955 189.275 61.3377 188.4 61.4923C188.168 61.5357 187.937 61.5791 187.698 61.6238C187.452 61.6691 187.205 61.7145 186.951 61.7612C182.772 62.5897 179.389 64.035 176.367 67.0896C176.606 67.0572 176.846 67.0247 177.092 66.9913C181.89 66.3507 186.675 65.8186 191.51 65.5515C191.721 65.5396 191.931 65.5276 192.148 65.5153C196.283 65.2858 200.377 65.2773 204.51 65.5698C204.876 65.5953 205.241 65.6208 205.618 65.647C213.306 66.2188 213.306 66.2188 215.918 67.0896C216.118 74.0161 215.498 80.9022 214.325 87.7256C214.266 88.0765 214.207 88.4274 214.146 88.7889C213.875 90.3188 213.574 91.7858 213.065 93.2554C212.623 94.5685 212.312 95.5735 212.402 96.9724C213.327 98.5343 214.802 99.6126 216.246 100.67C216.897 101.147 217.498 101.668 218.097 102.209C218.271 102.36 218.446 102.511 218.626 102.666C220.174 104.046 221.595 105.548 222.943 107.122C223.391 107.644 223.845 108.162 224.301 108.676C229.897 115.026 239.355 126.312 239.355 135.351C236.997 135.182 234.684 134.846 232.352 134.46C226.325 133.47 220.263 132.723 214.16 132.422C214.419 132.635 214.678 132.848 214.944 133.067C226.294 142.525 233.728 156.892 235.209 171.598C235.294 172.851 235.284 174.104 235.272 175.36C235.27 175.761 235.27 175.761 235.268 176.171C235.265 176.822 235.26 177.473 235.254 178.125C234.964 178.125 234.674 178.125 234.375 178.125C233.826 177.49 233.826 177.49 233.203 176.605C231.741 174.579 230.16 172.68 228.516 170.801C228.387 170.653 228.257 170.504 228.124 170.352C223.953 165.6 219.154 161.242 213.574 158.203C213.655 158.432 213.736 158.662 213.82 158.898C218.488 172.213 220.89 186.511 215.442 200.024C215.357 200.236 215.273 200.447 215.185 200.665C214.936 201.246 214.936 201.246 214.453 202.148C214.163 202.245 213.873 202.342 213.574 202.441C213.51 202.187 213.51 202.187 213.445 201.929C211.657 194.893 209.247 188.97 204.492 183.398C204.225 183.079 203.959 182.759 203.692 182.439C203.473 182.176 203.253 181.912 203.027 181.64C202.992 181.871 202.957 182.102 202.921 182.34C200.666 196.957 195.739 210.178 187.207 222.363C186.993 222.675 186.779 222.988 186.558 223.309C183.864 227.197 180.884 231.316 177.246 234.375C177.053 234.375 176.859 234.375 176.66 234.375C176.667 234.19 176.675 234.005 176.682 233.815C177.196 221.208 177.196 221.208 177.246 208.594C176.442 209.36 175.792 210.12 175.186 211.051C175.023 211.299 174.86 211.547 174.692 211.803C174.52 212.067 174.347 212.331 174.17 212.604C171.427 216.765 168.533 220.811 165.607 224.846C164.977 225.716 164.35 226.587 163.726 227.46C160.555 231.889 157.239 236.206 153.9 240.509C153.735 240.722 153.57 240.935 153.4 241.154C152.483 242.331 151.548 243.488 150.586 244.629C149.343 244.177 148.714 243.25 147.949 242.23C147.661 241.854 147.373 241.479 147.085 241.104C146.937 240.911 146.79 240.717 146.637 240.518C146.075 239.791 145.498 239.078 144.918 238.365C143.066 236.082 141.317 233.729 139.582 231.356C138.666 230.101 137.734 228.858 136.798 227.618C135.075 225.33 133.399 223.009 131.728 220.683C131.26 220.033 130.789 219.386 130.317 218.74C127.818 215.311 125.421 211.817 123.047 208.301C122.988 215.415 122.957 222.495 123.505 229.592C123.627 231.19 123.666 232.773 123.633 234.375C122.371 233.707 121.466 232.842 120.52 231.793C120.291 231.541 120.291 231.541 120.056 231.283C118.417 229.458 116.901 227.548 115.43 225.586C115.275 225.38 115.12 225.174 114.961 224.961C112.785 222.044 110.783 219.081 108.984 215.918C108.871 215.722 108.757 215.526 108.641 215.324C102.94 205.468 96.9498 193.049 97.5586 181.347C97.3652 181.347 97.1719 181.347 96.9727 181.347C96.9005 181.511 96.8284 181.675 96.7541 181.844C96.32 182.642 95.7896 183.259 95.1965 183.948C91.4458 188.492 89.0538 193.516 87.3997 199.148C87.0592 200.29 86.6237 201.356 86.1328 202.441C80.7375 195.763 81.3318 184.248 82.1056 176.196C82.7894 169.893 84.4273 163.705 87.0117 157.91C82.7345 160.483 78.8663 163.514 75.293 166.992C75.0499 167.226 75.0499 167.226 74.8019 167.465C72.3021 169.878 70.0329 172.381 67.9905 175.201C67.7708 175.504 67.7708 175.504 67.5466 175.813C67.2582 176.214 66.9719 176.616 66.688 177.019C66.3475 177.496 65.9878 177.958 65.625 178.418C65.4316 178.418 65.2383 178.418 65.0391 178.418C62.6627 169.547 67.7855 157.646 71.8008 149.934C72.034 149.484 72.261 149.031 72.4869 148.577C75.6456 142.436 80.5608 136.485 86.1328 132.422C81.5993 132.672 77.1169 133.109 72.6196 133.722C72.3956 133.752 72.1717 133.782 71.9409 133.813C69.302 134.172 66.6767 134.573 64.0612 135.077C62.9059 135.292 61.8192 135.39 60.6445 135.351C62.1992 128.145 66.211 120.98 70.6055 115.136C70.7364 114.962 70.8674 114.787 71.0023 114.608C71.9192 113.396 72.8674 112.212 73.8281 111.035C73.9519 110.881 74.0756 110.726 74.2031 110.567C76.2245 108.055 78.4596 105.757 80.7312 103.473C80.8727 103.33 81.0141 103.187 81.1599 103.039C86.2446 97.9117 86.2446 97.9117 88.1836 97.2654C88.1276 97.0421 88.0716 96.8188 88.0139 96.5887C85.602 86.8742 84.1869 77.1198 84.375 67.0896C86.12 66.529 87.8506 66.2713 89.6667 66.0459C89.9694 66.008 90.272 65.9701 90.5838 65.9311C101.903 64.5432 113.249 65.6648 124.512 67.0896C121.422 62.764 115.858 62.1316 110.99 61.3192C110.811 61.2898 110.633 61.2605 110.449 61.2302C110.742 60.3513 110.742 60.3513 111.226 60.0069C119.919 55.683 131.01 54.089 140.34 57.081C143.374 58.1154 146.091 59.5174 148.539 61.6113C149.149 62.1527 149.149 62.1527 150 62.6951C150.139 62.5531 150.279 62.4111 150.422 62.2648C154.385 58.4702 160.123 56.312 165.527 55.6638C165.794 55.6317 166.061 55.5996 166.335 55.5665C174.243 54.7405 183.336 56.375 190.137 60.6443ZM126.285 85.4899C125.737 86.1676 125.266 86.8586 124.805 87.5974C124.564 87.9806 124.564 87.9806 124.319 88.3716C123.814 89.2047 123.328 90.0466 122.845 90.8933C122.669 91.2003 122.492 91.5072 122.309 91.8235C121.772 92.7574 121.237 93.6929 120.703 94.6287C120.395 95.1654 120.088 95.7022 119.78 96.2388C119.056 97.5017 118.335 98.7663 117.615 100.031C117.188 100.78 116.76 101.527 116.331 102.274C114.243 105.916 112.181 109.572 110.138 113.239C109.737 113.959 109.335 114.678 108.931 115.397C108.383 116.376 107.836 117.355 107.29 118.335C107.078 118.715 106.865 119.096 106.652 119.475C106.354 120.005 106.059 120.536 105.764 121.067C105.509 121.524 105.509 121.524 105.248 121.99C104.82 122.745 104.82 122.745 104.883 123.633C105.076 123.633 105.27 123.633 105.469 123.633C105.469 123.826 105.469 124.019 105.469 124.219C105.894 124.648 105.894 124.648 106.458 125.097C108.242 126.615 109.855 128.298 111.497 129.966C112.797 131.277 114.112 132.541 115.514 133.743C116.153 134.299 116.745 134.891 117.334 135.498C118.752 136.933 120.193 138.331 121.875 139.453C122.257 138.754 122.639 138.055 123.02 137.355C123.346 136.759 123.672 136.162 123.998 135.566C124.979 133.773 124.979 133.773 125.937 131.968C127.017 129.902 128.205 127.913 129.419 125.921C129.683 125.488 129.683 125.488 129.952 125.045C130.801 123.655 131.66 122.273 132.545 120.905C132.698 120.666 132.851 120.427 133.008 120.181C133.294 119.734 133.584 119.29 133.88 118.849C134.652 117.7 134.652 117.7 134.591 116.372C134.455 116.158 134.319 115.943 134.18 115.722C133.992 115.396 133.805 115.07 133.612 114.734C133.245 114.259 133.245 114.259 132.715 113.965C131.88 113.936 131.114 114.042 130.289 114.163C129.184 114.294 128.449 114.135 127.441 113.672C126.571 112.821 126.052 112.232 125.768 111.041C125.264 109.86 124.521 109.58 123.395 109.112C121.483 108.291 120.141 107.392 119.238 105.469C121.081 105.731 122.92 106.013 124.758 106.309C125.383 106.407 126.008 106.501 126.635 106.59C131.839 107.335 131.839 107.335 133.248 108.489C133.755 109.222 134.122 109.924 134.473 110.742C135.538 112.43 136.898 113.05 138.702 113.745C138.947 113.844 139.191 113.943 139.442 114.045C140.702 114.551 141.968 115.017 143.262 115.429C143.126 115.555 142.991 115.68 142.851 115.809C139.482 118.927 136.318 122.076 133.443 125.665C132.899 126.335 132.349 126.99 131.786 127.643C129.748 130.028 128.224 132.33 126.927 135.177C126.477 136.117 125.988 137.034 125.498 137.954C125.21 138.502 124.923 139.051 124.636 139.6C124.445 139.962 124.253 140.322 124.057 140.681C122.809 142.985 122.179 144.503 122.754 147.07C122.862 147.772 122.968 148.474 123.074 149.176C123.176 149.746 123.277 150.316 123.382 150.885C123.486 151.462 123.578 152.041 123.669 152.62C124.182 155.379 125.101 156.895 127.148 158.789C127.407 159.067 127.665 159.345 127.931 159.631C128.132 159.837 128.333 160.042 128.54 160.254C128.846 160.571 128.846 160.571 129.158 160.895C129.896 161.52 130.298 161.799 131.25 162.011C132.148 161.754 132.946 161.323 133.771 160.89C134.017 160.766 134.262 160.642 134.515 160.514C135.303 160.115 136.087 159.708 136.871 159.302C137.384 159.041 137.898 158.781 138.411 158.521C141.732 156.833 144.998 155.054 148.242 153.222C148.835 149.24 148.835 149.24 147.82 145.503C147.099 144.71 146.338 144.065 145.462 143.449C144.246 142.585 143.73 142.071 143.452 140.568C143.424 140.322 143.397 140.076 143.369 139.824C143.296 139.079 143.296 139.079 142.676 138.281C142.169 138.323 141.663 138.366 141.156 138.409C140.874 138.433 140.592 138.457 140.301 138.481C139.46 138.538 139.46 138.538 138.739 138.839C137.827 138.873 137.687 138.707 137.012 138.127C136.668 137.798 136.328 137.465 135.992 137.127C135.817 136.958 135.642 136.789 135.462 136.615C135.031 136.198 134.605 135.775 134.18 135.351C135.046 134.918 135.93 135.005 136.88 134.999C137.093 134.997 137.306 134.995 137.525 134.993C138.217 134.988 138.908 134.986 139.6 134.985C139.833 134.984 140.067 134.983 140.308 134.982C143.182 134.976 145.924 135.072 148.747 135.663C150.059 135.931 151.039 135.956 152.31 135.535C155.084 134.714 158.298 134.965 161.169 134.894C161.65 134.881 162.131 134.868 162.611 134.855C163.779 134.824 164.946 134.794 166.113 134.765C165.615 135.344 165.114 135.919 164.607 136.49C164.177 136.979 163.765 137.484 163.36 137.995C162.399 138.725 161.906 138.674 160.741 138.556C160.52 138.525 160.299 138.495 160.071 138.464C158.524 138.178 158.524 138.178 157.111 138.631C156.629 139.315 156.67 139.728 156.684 140.557C156.619 141.461 156.577 141.935 155.985 142.631C155.363 143.122 154.727 143.586 154.083 144.049C152.899 145 151.926 145.833 151.537 147.341C151.346 149.311 151.493 151.265 151.758 153.222C155.158 155.029 158.573 156.808 161.994 158.576C162.456 158.815 162.918 159.054 163.38 159.294C164.039 159.637 164.699 159.977 165.359 160.318C165.557 160.421 165.754 160.524 165.958 160.63C167.061 161.196 168.149 161.653 169.336 162.011C170.089 161.275 170.839 160.536 171.588 159.796C171.799 159.59 172.011 159.383 172.228 159.17C172.839 158.566 173.434 157.949 174.023 157.324C174.169 157.178 174.314 157.033 174.463 156.882C175.841 155.284 176.081 153.095 176.475 151.084C176.605 150.421 176.743 149.758 176.882 149.096C176.969 148.671 177.056 148.245 177.142 147.82C177.182 147.624 177.222 147.428 177.264 147.226C177.619 145.402 177.773 144.055 176.863 142.397C176.645 141.993 176.645 141.993 176.423 141.58C176.266 141.295 176.108 141.01 175.946 140.716C174.899 138.781 173.887 136.853 172.997 134.841C171.754 132.043 170.231 129.972 168.164 127.734C167.708 127.182 167.256 126.627 166.809 126.068C165.748 124.764 164.644 123.509 163.512 122.267C162.947 121.644 162.395 121.011 161.847 120.373C160.364 118.674 158.803 117.119 157.031 115.722C156.935 115.529 156.838 115.336 156.738 115.136C157.177 115.089 157.177 115.089 157.625 115.041C158.818 114.87 159.895 114.477 161.005 114.02C161.19 113.947 161.376 113.874 161.567 113.799C163.476 113.027 164.88 112.195 166.003 110.449C167.689 107.853 167.689 107.853 169.471 107.469C170.006 107.373 170.541 107.282 171.078 107.195C171.361 107.146 171.644 107.096 171.936 107.045C172.838 106.887 173.742 106.736 174.646 106.585C175.552 106.43 176.457 106.274 177.363 106.117C177.926 106.019 178.489 105.923 179.053 105.829C179.307 105.786 179.561 105.743 179.823 105.698C180.16 105.642 180.16 105.642 180.503 105.585C181.077 105.488 181.077 105.488 181.641 105.176C181.259 105.614 180.878 106.053 180.496 106.492C180.118 106.921 180.118 106.921 180.176 107.519C180.019 107.592 179.862 107.664 179.7 107.739C178.967 108.104 178.967 108.104 178.217 108.673C177.351 109.212 176.848 109.392 175.891 109.625C175.047 109.879 174.707 110.002 174.232 110.756C174.045 111.22 173.867 111.688 173.7 112.16C173.329 113.055 172.786 113.464 171.973 113.965C170.924 114.314 170.197 114.195 169.098 114.111C167.568 114.058 167.568 114.058 166.332 114.844C165.898 115.512 165.566 116.172 165.234 116.894C166.239 119.019 167.396 120.987 168.677 122.955C169.044 123.527 169.411 124.099 169.778 124.672C169.954 124.947 170.131 125.222 170.312 125.505C173.119 129.895 175.519 134.494 177.832 139.16C178.801 138.731 179.489 138.19 180.267 137.475C180.65 137.124 180.65 137.124 181.041 136.766C181.339 136.49 181.636 136.214 181.934 135.937C182.106 135.778 182.278 135.619 182.456 135.455C184.471 133.594 186.463 131.721 188.388 129.767C189.125 129.042 189.903 128.376 190.688 127.704C191.701 126.796 192.644 125.818 193.594 124.844C194.238 124.219 194.238 124.219 195.117 123.633C194.958 122.351 194.651 121.404 194.032 120.274C193.868 119.97 193.703 119.667 193.534 119.354C193.355 119.032 193.177 118.71 192.993 118.377C192.809 118.041 192.625 117.704 192.436 117.357C190.924 114.592 189.373 111.849 187.814 109.11C187.109 107.87 186.421 106.622 185.741 105.368C183.77 101.739 181.658 98.1979 179.542 94.6534C178.935 93.6344 178.335 92.6118 177.737 91.5878C176.819 90.0168 175.894 88.4502 174.939 86.9016C174.789 86.6576 174.638 86.4137 174.483 86.1623C173.345 84.6393 172.027 84.3538 170.215 84.0818C165.529 83.6342 161.081 84.4914 156.602 85.7984C156.278 85.8926 155.954 85.9868 155.62 86.0839C154.99 86.2702 154.362 86.462 153.736 86.6602C150.182 87.7302 147.384 86.8457 143.884 85.8579C140.194 84.8207 136.673 83.9757 132.825 83.9902C132.572 83.9855 132.319 83.9808 132.058 83.9759C130.028 83.9744 127.842 84.0455 126.285 85.4899ZM149.707 156.152C149.417 156.345 149.127 156.539 148.828 156.738C148.58 156.786 148.333 156.835 148.077 156.885C147.151 157.074 146.875 157.505 146.265 158.203C145.476 158.904 144.853 159.046 143.848 159.375C140.56 160.814 138.192 163.018 136.815 166.368C135.989 168.963 135.587 171.594 135.645 174.316C135.451 174.316 135.258 174.316 135.059 174.316C134.987 174.151 134.915 173.985 134.841 173.815C134.406 173.023 133.881 172.449 133.264 171.789C132.099 170.523 131.021 169.213 129.969 167.851C129.532 167.257 129.532 167.257 128.906 166.992C129.499 171.218 130.146 175.432 130.878 179.637C130.955 180.08 131.031 180.524 131.107 180.968C131.215 181.595 131.325 182.221 131.435 182.848C131.499 183.209 131.562 183.569 131.627 183.941C131.869 185.061 131.869 185.061 132.422 186.035C133.112 186.383 133.112 186.383 133.974 186.598C134.317 186.694 134.66 186.791 135.013 186.89C135.419 186.997 135.825 187.102 136.23 187.207C136.458 187.266 136.686 187.325 136.921 187.386C138.487 187.788 140.057 188.171 141.63 188.547C142.459 188.746 143.287 188.949 144.115 189.152C144.65 189.281 145.185 189.409 145.72 189.537C145.964 189.597 146.207 189.658 146.458 189.72C149.171 190.356 151.451 190.164 154.146 189.527C154.422 189.464 154.697 189.401 154.981 189.336C155.56 189.203 156.139 189.069 156.717 188.933C157.595 188.728 158.473 188.526 159.352 188.325C159.918 188.195 160.483 188.064 161.049 187.933C161.437 187.844 161.437 187.844 161.833 187.753C162.578 187.578 163.321 187.395 164.062 187.207C164.326 187.141 164.589 187.075 164.86 187.007C166.79 186.516 166.79 186.516 168.164 185.156C168.372 184.42 168.514 183.763 168.622 183.013C168.673 182.696 168.673 182.696 168.726 182.372C168.836 181.683 168.94 180.994 169.043 180.304C169.118 179.829 169.193 179.355 169.268 178.88C169.492 177.458 169.708 176.033 169.922 174.609C169.986 174.186 170.051 173.762 170.115 173.338C170.451 171.127 170.778 168.914 171.094 166.699C169.854 167.883 168.791 169.167 167.725 170.508C166.658 171.849 165.595 173.132 164.355 174.316C164.383 173.809 164.383 173.809 164.41 173.291C164.396 168.748 163.1 165.087 160.015 161.756C159.093 160.857 158.27 160.219 157.05 159.796C156.845 159.723 156.64 159.65 156.429 159.575C156.241 159.509 156.053 159.443 155.859 159.375C154.676 158.913 153.51 158.413 152.344 157.91C152.344 157.62 152.344 157.33 152.344 157.031C151.924 156.868 151.503 156.71 151.08 156.555C150.846 156.467 150.611 156.378 150.37 156.287C150.042 156.22 150.042 156.22 149.707 156.152Z" fill="black"/>
<path d="M181.641 105.176C180.865 107.08 178.988 108.548 177.246 109.57C176.375 109.856 175.517 110.034 174.609 110.156C174.528 110.682 174.528 110.682 174.445 111.218C174.083 112.693 173.223 113.453 171.973 114.258C170.924 114.607 170.179 114.498 169.08 114.423C167.63 114.395 167.63 114.395 166.346 114.968C165.843 115.63 165.672 116.077 165.527 116.895C165.726 117.58 165.726 117.58 166.112 118.248C166.25 118.505 166.388 118.761 166.529 119.025C167.303 120.362 168.127 121.661 168.97 122.955C169.336 123.525 169.702 124.095 170.067 124.665C170.244 124.94 170.42 125.215 170.602 125.498C172.242 128.069 173.776 130.694 175.232 133.374C175.35 133.587 175.468 133.801 175.59 134.02C175.872 134.55 176.123 135.096 176.367 135.645C176.222 136.08 176.222 136.08 176.074 136.523C175.591 136.33 175.107 136.137 174.609 135.938C174.513 136.131 174.416 136.324 174.316 136.523C174.026 136.523 173.736 136.523 173.438 136.523C173.306 136.208 173.174 135.893 173.038 135.568C171.794 132.703 170.376 130.457 168.263 128.168C167.651 127.491 167.086 126.779 166.516 126.068C165.455 124.765 164.352 123.51 163.22 122.269C162.649 121.639 162.091 121 161.536 120.355C160.281 118.918 158.978 117.559 157.489 116.364C157.241 116.152 156.994 115.941 156.738 115.723C156.738 115.529 156.738 115.336 156.738 115.137C157.088 115.027 157.438 114.917 157.799 114.804C162.738 113.335 162.738 113.335 166.2 109.717C167.121 108.365 167.88 107.507 169.504 107.138C170.037 107.041 170.571 106.95 171.106 106.864C171.389 106.814 171.672 106.764 171.963 106.712C172.863 106.555 173.763 106.405 174.664 106.256C175.274 106.15 175.883 106.044 176.493 105.937C177.604 105.744 178.715 105.553 179.828 105.368C180.163 105.312 180.163 105.312 180.505 105.255C181.055 105.176 181.055 105.176 181.641 105.176Z" fill="black"/>
</svg>
