<svg width="300" height="300" viewBox="0 0 300 300" fill="none" xmlns="http://www.w3.org/2000/svg">
<path d="M183.398 69.1403C183.741 69.3131 184.084 69.486 184.438 69.6641C188.742 71.8444 192.977 74.1318 197.159 76.5397C197.964 77.003 198.771 77.4637 199.579 77.9234C200.278 78.3215 200.976 78.7209 201.675 79.1205C202.173 79.4054 202.671 79.6893 203.17 79.9732C203.474 80.1481 203.778 80.3229 204.092 80.5031C204.36 80.6568 204.629 80.8106 204.905 80.969C207.009 82.2888 207.009 82.2888 207.454 83.5049C208.319 88.1867 208.535 92.7515 208.026 97.485C208.002 97.7235 207.978 97.9621 207.954 98.2078C207.848 99.213 207.724 100.159 207.477 101.141C207.272 102.027 207.187 102.535 207.422 103.418C208.333 104.653 209.554 105.605 210.75 106.552C211.355 107.032 211.934 107.538 212.512 108.05C212.782 108.285 212.782 108.285 213.058 108.524C214.734 110.017 216.23 111.665 217.676 113.379C217.808 113.533 217.94 113.687 218.076 113.846C222.775 119.353 227.596 126.093 229.98 133.007C229.884 133.297 229.787 133.588 229.688 133.886C229.449 133.82 229.449 133.82 229.206 133.753C227.553 133.295 225.899 132.839 224.244 132.384C223.627 132.214 223.01 132.044 222.393 131.873C221.506 131.627 220.619 131.383 219.731 131.14C219.455 131.063 219.179 130.986 218.895 130.907C218.637 130.836 218.379 130.766 218.113 130.693C217.887 130.631 217.66 130.569 217.427 130.504C216.713 130.33 216.713 130.33 215.625 130.371C215.955 130.823 215.955 130.823 216.291 131.285C224.802 143.08 227.961 154.885 227.637 169.336C226.642 169.159 226.088 168.809 225.323 168.158C225.11 167.979 224.897 167.8 224.677 167.616C224.348 167.334 224.348 167.334 224.011 167.047C222.626 165.872 221.265 164.739 219.727 163.769C219.787 163.981 219.847 164.194 219.909 164.412C219.987 164.696 220.066 164.979 220.148 165.271C220.265 165.689 220.265 165.689 220.385 166.115C221.886 172.074 221.092 178.898 218.848 184.57C217.285 183.398 215.723 182.226 214.16 181.054C214.17 181.346 214.179 181.637 214.189 181.938C213.963 191.133 207.865 201.1 201.855 207.714C201.288 208.249 200.724 208.714 200.098 209.179C199.279 207.607 198.543 206.004 197.827 204.382C197.734 204.173 197.641 203.964 197.545 203.748C196.875 202.218 196.875 202.218 196.875 201.562C196.682 201.562 196.488 201.562 196.289 201.562C196.222 201.806 196.155 202.051 196.087 202.303C195.628 203.519 195.001 204.477 194.257 205.536C194.042 205.843 194.042 205.843 193.823 206.157C192.416 208.147 190.882 210.001 189.258 211.816C189.101 211.992 188.945 212.168 188.784 212.35C188.303 212.888 187.82 213.424 187.335 213.958C187.185 214.125 187.035 214.292 186.88 214.464C186.513 214.863 186.129 215.245 185.742 215.625C185.549 215.625 185.355 215.625 185.156 215.625C185.156 215.818 185.156 216.011 185.156 216.211C184.788 216.593 184.788 216.593 184.241 217.053C184.025 217.236 183.809 217.418 183.586 217.607C183.331 217.823 183.076 218.039 182.812 218.261C182.517 218.522 182.223 218.783 181.929 219.044C176.24 224.07 169.831 228.107 163.184 231.738C162.598 231.152 162.598 231.152 162.54 230.069C162.544 229.637 162.551 229.204 162.561 228.772C162.565 228.44 162.565 228.44 162.569 228.102C162.576 227.556 162.586 227.01 162.598 226.464C159.121 229.054 157.431 233.146 155.703 236.991C155.55 237.326 155.397 237.66 155.239 238.005C155.104 238.307 154.97 238.609 154.831 238.921C154.362 239.702 154.068 239.932 153.223 240.234C147.465 236.221 142.02 232.079 137.109 227.05C136.916 228.501 136.723 229.951 136.523 231.445C129.712 228.72 123.542 223.631 118.066 218.847C117.828 218.642 117.59 218.436 117.344 218.225C111.892 213.435 107.158 208.089 103.418 201.855C103.287 202.138 103.156 202.422 103.021 202.713C102.013 204.885 100.991 207.047 99.9023 209.179C93.1076 203.862 88.4734 194.557 86.4624 186.346C86.3992 186.089 86.336 185.833 86.2709 185.568C85.9162 184.026 85.7775 182.636 85.8398 181.054C85.6268 181.214 85.6268 181.214 85.4095 181.377C83.9905 182.441 82.5714 183.506 81.1523 184.57C79.6543 181.003 79.0429 177.125 79.0466 173.272C79.047 172.887 79.047 172.887 79.0473 172.494C79.0741 169.623 79.3612 166.799 80.2734 164.062C78.1663 165.299 76.3227 166.661 74.5106 168.293C73.3325 169.336 73.3325 169.336 72.3633 169.336C72.2294 163.558 72.2283 158.01 73.5352 152.343C73.5885 152.107 73.6417 151.87 73.6967 151.626C75.52 143.774 79.4395 136.2 84.668 130.078C80.882 130.893 77.1669 131.941 73.4459 133.008C73.2438 133.066 73.0417 133.123 72.8335 133.183C72.2757 133.342 71.7181 133.502 71.1606 133.663C70.3125 133.886 70.3125 133.886 69.7266 133.886C73.1867 122.858 82.3656 111.561 91.3845 104.483C92.0094 104.009 92.0094 104.009 92.5781 103.418C92.6017 102.856 92.6017 102.856 92.4969 102.227C92.4488 101.872 92.4488 101.872 92.3997 101.51C92.2594 100.617 92.105 99.7277 91.9466 98.838C90.9293 92.9147 90.8488 86.5829 92.8711 80.859C93.1128 80.8439 93.3545 80.8288 93.6035 80.8132C97.928 80.3885 101.324 78.2523 104.883 75.8785C106.829 74.5989 108.784 73.3313 110.742 72.07C111.057 71.8656 111.371 71.6613 111.695 71.4508C117.535 67.8377 125.042 65.3009 131.931 66.7382C133.8 67.1916 135.623 67.8279 137.402 68.5543C137.457 68.3187 137.511 68.083 137.567 67.8402C138.806 64.7712 141.52 62.3279 144.489 60.9566C157.006 56.2105 172.37 63.5729 183.398 69.1403ZM103.638 89.41C103.437 89.4396 103.236 89.4691 103.029 89.4996C101.562 89.7653 100.833 90.2555 99.9023 91.4059C96.5986 96.9565 97.458 104.908 98.9056 110.878C98.9445 111.026 98.9834 111.175 99.0234 111.328C100.348 111.024 101.452 110.727 102.246 109.57C102.535 107.913 102.494 106.267 102.466 104.589C102.458 103.686 102.457 102.783 102.461 101.88C102.462 101.66 102.463 101.441 102.463 101.215C102.493 99.2364 102.873 97.409 103.418 95.5075C103.517 95.1172 103.615 94.7267 103.711 94.3356C105.424 93.9439 107.107 93.9887 108.856 93.9877C109.347 93.9823 109.347 93.9823 109.848 93.9768C111.787 93.9734 113.604 94.1232 115.506 94.5023C116.378 94.6395 117.185 94.6767 118.066 94.6285C118.584 94.2311 118.584 94.2311 118.909 93.6581C119.029 93.4779 119.149 93.2978 119.273 93.1122C119.595 92.5449 119.595 92.5449 119.531 91.6989C114.32 89.8523 109.175 88.4947 103.638 89.41ZM183.472 90.6735C183.276 90.7325 183.081 90.7914 182.879 90.8522C181.832 91.1879 181.009 91.5614 180.176 92.2848C180.653 93.2043 181.137 93.9581 181.934 94.6285C183.058 94.7751 184.056 94.5721 185.156 94.3356C187.025 93.983 188.845 93.9887 190.741 93.9877C191.084 93.9841 191.427 93.9805 191.781 93.9768C192.112 93.9762 192.443 93.9757 192.784 93.9751C193.084 93.9739 193.384 93.9727 193.694 93.9714C194.579 94.0467 195.207 94.2247 195.996 94.6285C196.385 95.3083 196.385 95.3083 196.655 96.13C196.747 96.3966 196.84 96.6633 196.935 96.938C197.411 98.8022 197.469 100.49 197.387 102.403C197.365 103.023 197.343 103.644 197.322 104.265C197.305 104.689 197.283 105.114 197.256 105.539C197.037 108.099 197.037 108.099 198.104 110.318C199.422 111.29 199.422 111.29 200.977 111.621C202.371 104.629 203.073 97.5937 199.591 91.0374C198.212 89.3718 195.632 89.1777 193.561 88.9603C190.116 88.8612 186.746 89.6768 183.472 90.6735ZM125.977 91.4059C121.063 98.7546 116.155 106.106 111.456 113.595C111.109 114.142 110.749 114.68 110.385 115.215C106.158 121.695 104.437 133.533 105.176 141.211C105.486 142.385 105.837 143.193 106.659 144.085C106.841 144.283 107.023 144.481 107.211 144.685C108.603 146.136 109.994 147.562 111.522 148.872C113.264 150.387 114.858 152.052 116.478 153.696C117.935 155.166 119.422 156.566 120.996 157.91C121.532 158.445 121.339 159.195 121.359 159.91C121.466 163.436 121.854 167.045 124.512 169.629C127.252 171.905 129.471 172.749 133.008 172.558C134.019 172.423 135.001 172.211 135.992 171.972C136.264 171.908 136.535 171.845 136.814 171.779C138.996 171.245 141.142 170.61 143.28 169.922C143.727 169.781 143.727 169.781 144.183 169.638C146.392 168.921 146.392 168.921 147.949 167.285C148.171 166.12 148.18 164.989 148.169 163.806C148.18 163.494 148.19 163.183 148.201 162.862C148.201 161.292 148.145 160.243 147.014 159.091C146.65 158.786 146.278 158.489 145.898 158.203C145.619 157.963 145.34 157.724 145.053 157.477C143.329 156.155 141.724 155.24 139.7 154.463C138.365 153.883 137.204 153.141 136.23 152.05C135.939 151.295 135.921 150.824 135.938 150C138.474 148.901 140.975 148.998 143.684 149.014C144.18 149.014 144.677 149.014 145.173 149.014C146.21 149.014 147.246 149.017 148.282 149.022C149.606 149.029 150.93 149.029 152.253 149.027C153.277 149.026 154.301 149.028 155.324 149.031C155.812 149.032 156.3 149.032 156.788 149.032C157.471 149.032 158.154 149.036 158.838 149.04C159.036 149.04 159.235 149.039 159.439 149.038C161.007 149.055 162.809 149.164 164.062 150.183C164.159 150.316 164.256 150.449 164.355 150.586C163.696 152.518 162.271 153.4 160.547 154.394C160.07 154.595 159.587 154.785 159.1 154.962C157.291 155.631 155.889 156.71 154.395 157.91C154.134 158.089 153.873 158.268 153.605 158.452C152.612 159.233 151.888 159.893 151.633 161.174C151.397 163.599 151.409 166.01 152.637 168.164C153.673 168.916 154.94 169.235 156.152 169.629C156.398 169.71 156.643 169.792 156.896 169.876C164.24 172.599 164.24 172.599 171.65 171.859C171.946 171.707 171.946 171.707 172.247 171.551C172.556 171.392 172.556 171.392 172.871 171.23C175.262 169.936 176.731 168.437 177.686 165.857C178.366 163.348 178.223 160.777 178.125 158.203C178.362 158.109 178.362 158.109 178.605 158.013C179.546 157.474 180.244 156.736 180.995 155.965C181.157 155.802 181.319 155.639 181.486 155.47C182.003 154.948 182.518 154.424 183.032 153.9C183.707 153.214 184.383 152.529 185.06 151.846C185.224 151.681 185.387 151.516 185.555 151.346C186.573 150.324 187.619 149.354 188.718 148.42C189.764 147.507 190.733 146.516 191.711 145.532C191.92 145.325 192.128 145.118 192.342 144.905C192.541 144.705 192.74 144.506 192.945 144.3C193.123 144.122 193.302 143.943 193.486 143.759C194.798 142.338 194.643 141.034 194.604 139.204C194.221 129.547 192.641 119.723 187.137 111.65C186.269 110.372 185.446 109.067 184.625 107.757C179.416 99.4192 179.416 99.4192 173.73 91.4059C171.638 91.5754 169.764 92.1495 167.78 92.8158C167.435 92.9312 167.091 93.0466 166.737 93.1654C161.695 94.9011 156.697 97.0221 152.108 99.7549C151.28 100.228 150.689 100.488 149.728 100.489C148.53 100.097 147.49 99.528 146.393 98.9132C141.765 96.4124 136.989 94.3065 131.982 92.6876C131.684 92.5907 131.385 92.4938 131.077 92.3939C129.369 91.8645 127.754 91.5734 125.977 91.4059ZM140.332 174.023C139.656 174.235 138.98 174.446 138.304 174.657C135.356 175.585 132.423 176.559 129.492 177.539C128.474 182.755 129.066 189.263 132.011 193.785C133.157 195.32 134.471 196.809 135.938 198.047C136.131 198.047 136.324 198.047 136.523 198.047C136.62 196.79 136.717 195.533 136.816 194.238C137.684 194.686 138.552 195.134 139.42 195.583C140.889 196.248 142.168 196.323 143.772 196.307C144.157 196.305 144.543 196.302 144.939 196.3C145.542 196.295 146.145 196.289 146.748 196.283C149.271 196.259 151.751 196.319 154.267 196.537C157.416 196.676 160.276 195.981 162.891 194.238C163.084 195.495 163.277 196.752 163.477 198.047C167.279 195.558 169.3 191.864 170.306 187.5C170.713 184.907 170.605 182.205 170.508 179.589C170.501 179.207 170.493 178.825 170.486 178.431C170.3 177.456 170.3 177.456 169.339 177.023C168.951 176.893 168.558 176.772 168.164 176.66C167.958 176.593 167.753 176.527 167.541 176.459C166.854 176.241 166.164 176.037 165.472 175.836C164.955 175.683 164.437 175.531 163.919 175.378C163.654 175.3 163.39 175.222 163.117 175.142C162.303 174.902 161.492 174.656 160.681 174.408C160.419 174.328 160.157 174.248 159.887 174.166C159.387 174.013 158.886 173.86 158.386 173.706C158.157 173.636 157.928 173.567 157.693 173.496C157.494 173.435 157.295 173.374 157.09 173.311C152 171.994 145.267 172.393 140.332 174.023Z" fill="black"/>
<path d="M118.565 116.835C118.787 116.833 119.008 116.831 119.236 116.83C119.706 116.827 120.176 116.825 120.646 116.824C121.348 116.821 122.05 116.812 122.752 116.803C130.733 116.747 136.198 119.312 141.884 124.865C142.209 125.186 142.534 125.508 142.859 125.83C143.015 125.985 143.171 126.14 143.333 126.299C144.434 127.405 144.434 127.405 144.434 127.734C142.117 127.545 139.924 126.893 137.695 126.269C137.665 126.632 137.635 126.994 137.604 127.368C137.22 130.72 136.073 133.913 135.003 137.096C134.764 137.809 134.528 138.523 134.292 139.236C134.139 139.695 133.985 140.154 133.832 140.613C133.762 140.824 133.693 141.034 133.621 141.251C133.082 142.846 132.514 144.407 131.359 145.667C131.219 145.82 131.079 145.973 130.935 146.13C130.791 146.283 130.647 146.436 130.499 146.594C130.282 146.834 130.282 146.834 130.06 147.078C129.689 147.479 129.299 147.862 128.906 148.242C128.713 148.242 128.52 148.242 128.32 148.242C129.265 144.135 130.55 140.159 131.862 136.157C132.136 135.316 132.408 134.475 132.681 133.633C132.764 133.383 132.847 133.132 132.932 132.874C133.509 131.084 133.883 129.297 134.18 127.441C133.985 127.447 133.79 127.453 133.589 127.46C130.183 127.549 127.259 126.884 124.618 124.648C123.965 123.945 123.754 123.102 123.45 122.204C122.859 120.76 122.226 120.041 120.775 119.424C119.52 118.972 118.243 118.605 116.947 118.289C116.222 118.036 115.726 117.674 115.137 117.187C116.264 116.825 117.394 116.842 118.565 116.835ZM127.441 120.703C128.294 122.477 128.294 122.477 129.785 123.632C131.154 123.645 132.151 123.52 133.301 122.754C133.301 122.56 133.301 122.367 133.301 122.168C131.329 121.375 129.567 120.842 127.441 120.703Z" fill="black"/>
<path d="M184.277 117.187C184.277 117.38 184.277 117.574 184.277 117.773C183.32 118.117 182.361 118.458 181.403 118.798C181.13 118.896 180.858 118.994 180.578 119.095C180.317 119.187 180.055 119.28 179.786 119.375C179.545 119.461 179.304 119.547 179.056 119.636C178.418 119.824 178.418 119.824 177.539 119.824C177.499 119.984 177.46 120.143 177.419 120.308C176.696 122.839 175.4 124.687 173.163 126.104C170.701 127.441 168.595 127.51 165.82 127.441C166.18 130.688 167.237 133.683 168.274 136.761C170.224 142.586 170.224 142.586 170.94 145.169C171.035 145.51 171.13 145.851 171.227 146.202C171.379 147.028 171.383 147.466 171.094 148.242C170.678 147.784 170.263 147.327 169.849 146.868C169.618 146.614 169.386 146.359 169.148 146.096C168.92 145.837 168.692 145.579 168.457 145.312C168.269 145.108 168.082 144.903 167.889 144.692C167.114 143.608 166.736 142.518 166.315 141.262C166.228 141.01 166.141 140.758 166.052 140.498C165.87 139.964 165.688 139.43 165.509 138.894C165.239 138.094 164.964 137.296 164.687 136.497C163.568 133.222 162.682 129.958 162.012 126.562C159.929 126.953 157.897 127.446 155.859 128.027C156.144 125.581 159.984 123.034 161.795 121.6C167.679 117.168 176.984 114.969 184.277 117.187ZM166.406 122.461C167.255 123.447 167.964 123.603 169.231 123.71C170.282 123.592 170.832 123.089 171.588 122.384C172.011 121.824 172.146 121.389 172.266 120.703C170.326 120.703 168.062 121.467 166.406 122.461Z" fill="black"/>
</svg>
