<svg width="300" height="300" viewBox="0 0 300 300" fill="none" xmlns="http://www.w3.org/2000/svg">
<path d="M107.702 74.5563C110.913 77.5502 113.593 80.8247 115.723 84.6681C117.381 84.5019 118.915 84.0695 120.513 83.6052C140.426 77.8273 160.462 78.1551 180.346 83.8197C180.643 83.904 180.643 83.904 180.946 83.9901C181.483 84.1433 182.02 84.2986 182.556 84.454C183.396 84.7042 183.396 84.7042 184.278 84.6681C184.753 83.9883 184.753 83.9883 185.193 83.1117C186.261 81.1961 187.543 79.5907 188.965 77.9298C189.195 77.6277 189.425 77.3256 189.661 77.0143C190.864 75.6971 192.245 74.6255 193.653 73.5353C193.883 73.3563 194.112 73.1773 194.349 72.9929C200.859 68.1762 208.449 66.5907 216.434 67.4722C217.961 67.7084 219.429 68.083 220.899 68.5548C221.092 68.6161 221.285 68.6773 221.484 68.7404C228.001 70.8902 232.799 75.6567 235.895 81.6652C239.502 88.9449 239.503 96.9743 237.044 104.587C234.415 112.371 230.258 122.81 224.559 128.784C224.081 129.309 223.776 129.7 223.536 130.371C223.74 131.513 224.256 132.476 224.781 133.502C225.066 134.107 225.349 134.712 225.631 135.317C225.774 135.619 225.917 135.921 226.064 136.232C231.837 148.839 232.332 163.157 227.691 176.134C223.429 187.508 215.625 196.809 204.487 201.89C200.084 203.851 195.466 204.93 190.775 205.984C183.392 207.645 179.312 210.35 175.233 216.76C173.541 219.353 171.863 221.681 169.63 223.828C169.389 224.074 169.149 224.32 168.902 224.573C164.019 229.345 156.89 232.678 150.017 232.957C142.394 232.631 134.619 228.775 129.4 223.231C127.44 220.948 125.777 218.568 124.201 216.01C121.073 210.961 117.536 208.062 111.677 206.589C110.975 206.424 110.273 206.263 109.571 206.104C108.819 205.927 108.067 205.751 107.315 205.574C106.602 205.408 105.889 205.243 105.176 205.078C92.6602 202.168 83.3647 195.927 76.4655 184.863C69.2091 172.831 67.5457 158.914 70.8039 145.353C72.0288 140.667 73.9108 136.071 76.1771 131.794C76.5347 130.989 76.5347 130.989 76.3178 130.261C75.7016 129.18 75.0388 128.136 74.3597 127.094C71.163 122.104 68.1729 116.974 65.6256 111.621C65.4486 111.273 65.2708 110.925 65.0923 110.578C63.5644 107.545 62.6236 104.367 61.817 101.074C61.759 100.839 61.701 100.604 61.6413 100.362C61.207 98.428 61.1292 96.5519 61.1395 94.5741C61.1408 94.2523 61.142 93.9305 61.1433 93.5989C61.2344 87.0165 63.583 81.0183 67.6764 75.8791C67.8384 75.6687 68.0004 75.4583 68.1673 75.2416C72.108 70.3981 78.5999 68.0029 84.6503 67.2731C93.0784 66.4286 101.397 68.7845 107.702 74.5563ZM70.8991 77.9298C70.4994 78.4108 70.1088 78.8993 69.7272 79.3947C69.5372 79.6371 69.3473 79.8796 69.1515 80.1294C66.3672 83.8235 64.6484 88.2082 64.4537 92.8712C64.442 93.1126 64.4303 93.3539 64.4183 93.6025C64.3282 97.2528 65.065 100.679 66.2482 104.114C66.3652 104.458 66.4823 104.803 66.6029 105.158C67.465 107.634 68.4575 109.961 69.7257 112.253C70.0321 112.815 70.3214 113.384 70.6084 113.956C71.8718 116.452 73.2826 118.835 74.7809 121.198C74.9539 121.471 75.1269 121.744 75.3052 122.026C76.2033 123.423 77.1242 124.731 78.2233 125.977C80.1972 125.134 81.1839 123.082 82.1875 121.277C82.5421 119.796 81.1304 118.203 80.3839 116.986C74.6823 107.484 72.055 95.8887 74.7076 84.9611C75.124 83.4698 75.6248 82.0148 76.1725 80.5666C82.6051 80.1204 89.6465 82.8569 94.5139 86.9695C98.8133 90.82 102.037 95.2002 103.712 100.781C107.81 98.6868 112.46 94.6708 114.551 90.5275C114.416 86.8247 110.991 82.9472 108.692 80.2736C108.561 80.1164 108.43 79.9593 108.295 79.7974C103.939 74.5884 97.9125 71.5488 91.1917 70.688C83.3341 70.0113 76.5105 72.2676 70.8991 77.9298ZM191.602 79.6876C190.928 80.4859 190.292 81.3085 189.661 82.1413C189.501 82.3475 189.341 82.5537 189.176 82.7661C187.621 84.8042 186.334 86.845 185.743 89.3556C185.631 89.6258 185.631 89.6258 185.517 89.9015C185.382 91.1604 186.481 92.0993 187.228 93.0372C191.084 97.7653 191.084 97.7653 196.29 100.488C196.393 100.187 196.496 99.8864 196.602 99.5763C197.5 97.0265 198.5 94.7828 200.098 92.5783C200.264 92.3437 200.431 92.1092 200.602 91.8676C201.583 90.5408 202.633 89.4341 203.903 88.3817C204.285 88.0635 204.658 87.7335 205.018 87.3907C209.514 83.144 216.948 80.4148 223.109 80.245C223.346 80.2544 223.584 80.2639 223.829 80.2736C227.357 87.8843 226.85 97.2744 224.708 105.176C224.648 105.406 224.588 105.636 224.527 105.872C223.314 110.433 221.135 115.425 218.107 119.053C217.424 119.91 217.424 119.91 217.477 121.018C218.057 122.029 218.68 122.954 219.398 123.871C219.525 124.042 219.652 124.214 219.783 124.39C220.53 125.359 220.53 125.359 221.579 125.944C221.741 125.954 221.904 125.965 222.071 125.977C224.294 122.75 226.324 119.443 228.223 116.016C228.369 115.753 228.515 115.49 228.666 115.219C231.558 109.959 234.357 104.434 235.255 98.4376C235.292 98.225 235.329 98.0124 235.368 97.7933C236.399 91.1914 234.345 84.7853 230.768 79.2848C229.642 77.7573 228.304 76.6715 226.758 75.5861C226.525 75.4211 226.525 75.4211 226.288 75.2528C215.173 67.4727 200.709 69.9241 191.602 79.6876ZM104.297 119.531C104.012 119.621 103.726 119.71 103.432 119.803C100.868 120.707 99.1008 122.285 97.2662 124.219C97.0272 124.47 96.7881 124.721 96.5418 124.98C93.6382 128.282 91.9671 132.239 91.1139 136.524C91.0705 136.724 91.0271 136.924 90.9824 137.131C90.1972 140.88 90.143 144.648 90.1251 148.462C90.1228 148.704 90.1205 148.945 90.1182 149.194C90.0441 159.189 93.1158 167.912 99.61 175.488C99.7731 175.691 99.9363 175.893 100.104 176.102C102.22 178.703 105.677 180.53 108.985 181.055C113.832 181.494 118.775 180.101 122.586 177.065C125.511 174.574 127.278 171.747 128.614 168.164C127.772 167.743 127.237 168.075 126.382 168.352C126.17 168.423 125.958 168.494 125.739 168.567C120.862 170.174 116.655 169.614 112.079 167.34C106.631 164.505 102.961 159.691 100.819 153.98C100.264 152.214 100.049 150.421 99.8114 148.59C99.2678 144.72 98.301 141.145 96.9055 137.484C96.4993 136.28 96.3407 135.545 96.6437 134.29C97.7554 132.524 99.8867 132.41 101.836 131.962C111.486 129.9 120.587 129.366 129.202 134.92C133.065 137.524 136.475 141.113 138.575 145.313C138.768 145.313 138.962 145.313 139.161 145.313C139.26 145.784 139.26 145.784 139.362 146.265C139.615 147.294 139.981 148.197 140.424 149.158C141.162 150.874 141.604 152.612 142.017 154.431C142.079 154.7 142.141 154.969 142.204 155.246C142.904 158.443 143.029 161.564 143.043 164.832C143.052 165.39 143.052 165.39 143.061 165.96C143.074 169.181 143.074 169.181 142.364 170.752C142.001 171.595 141.751 172.456 141.487 173.335C139.534 179.715 137.076 185.686 133.75 191.492C132.864 193.05 132.079 194.638 131.342 196.271C131.239 196.495 131.136 196.719 131.03 196.95C130.442 198.195 130.442 198.195 130.665 199.512C130.775 199.327 130.886 199.142 131 198.951C133.586 194.748 136.414 190.869 140.882 188.58C141.068 188.485 141.254 188.389 141.446 188.291C144.315 186.905 147.088 186.464 150.257 186.493C150.593 186.495 150.928 186.498 151.274 186.5C153.684 186.547 155.706 186.758 157.911 187.793C158.187 187.917 158.464 188.042 158.748 188.17C163.286 190.419 166.3 194.524 169.044 198.633C169.414 197.521 169.203 197.294 168.699 196.262C168.555 195.963 168.41 195.663 168.261 195.355C168.102 195.035 167.944 194.715 167.78 194.385C167.62 194.056 167.459 193.727 167.294 193.388C166.219 191.196 165.112 189.022 163.935 186.883C161.805 182.955 160.358 178.883 159.101 174.61C158.955 174.123 158.809 173.636 158.663 173.149C158.312 171.977 157.964 170.803 157.618 169.629C157.424 169.629 157.231 169.629 157.032 169.629C156.904 162.628 156.968 156.316 159.431 149.671C159.561 149.316 159.691 148.962 159.826 148.596C161.044 145.486 162.815 143.019 165.076 140.582C165.559 140.032 165.559 140.032 165.956 139.309C168.5 135.164 174.777 132.35 179.297 131.25C179.591 131.177 179.591 131.177 179.891 131.102C182.073 130.606 184.224 130.517 186.457 130.499C186.755 130.497 186.755 130.497 187.059 130.495C190.526 130.487 193.832 130.939 197.224 131.635C197.446 131.68 197.669 131.725 197.898 131.772C201.963 132.613 201.963 132.613 203.321 133.594C203.474 134.184 203.474 134.184 203.431 134.839C203.411 135.188 203.411 135.188 203.391 135.544C203.246 136.963 203.031 138.351 202.735 139.746C202.542 139.746 202.348 139.746 202.149 139.746C200.498 143.909 199.839 148.297 199.38 152.735C198.655 157.587 194.899 162.43 191.199 165.454C186.824 168.678 181.587 170.02 176.253 169.243C175.347 169.072 174.525 168.856 173.658 168.549C172.598 168.052 172.598 168.052 171.68 168.457C173.893 173.729 176.615 177.268 181.904 179.685C186.199 181.34 190.525 181.669 194.825 179.883C201.498 176.551 205.258 169.502 207.661 162.763C209.09 158.053 209.67 153.504 209.601 148.59C209.599 148.323 209.597 148.055 209.595 147.779C209.523 138.882 208.594 130.495 202.296 123.725C201.933 123.389 201.933 123.389 201.563 123.047C201.317 122.804 201.317 122.804 201.066 122.556C197.166 118.869 192.258 118.524 187.162 118.593C186.591 118.61 186.02 118.63 185.45 118.652C185.145 118.664 184.84 118.676 184.525 118.687C182.189 118.818 180.068 119.27 177.833 119.953C177.491 120.056 177.15 120.159 176.798 120.266C170.027 122.393 164.704 125.743 159.669 130.664C159.405 130.921 159.405 130.921 159.137 131.183C157.006 133.268 154.934 135.375 153.046 137.685C152.893 137.87 152.74 138.055 152.582 138.245C152.451 138.407 152.32 138.57 152.185 138.737C151.687 139.232 151.238 139.486 150.587 139.746C149.027 139.712 148.131 139.062 147.071 137.988C146.551 137.415 146.045 136.831 145.543 136.242C145.047 135.675 144.532 135.146 143.995 134.619C143.306 133.942 142.662 133.249 142.036 132.514C136.114 125.712 129.306 122.077 120.704 119.531C120.365 119.417 120.027 119.302 119.678 119.183C115.068 118.113 108.745 117.88 104.297 119.531ZM116.218 147.748C114.995 149.695 114.574 151.218 114.844 153.516C115.427 155.299 116.761 156.438 118.349 157.368C119.861 157.999 121.467 157.746 122.956 157.16C124.553 156.372 125.5 155.218 126.38 153.699C126.848 151.735 126.717 150.008 125.684 148.242C124.572 147.076 123.363 146.019 121.725 145.8C119.448 145.768 117.855 146.11 116.218 147.748ZM174.072 148.296C173.145 149.743 173.313 151.571 173.438 153.223C173.967 154.941 175.223 156.018 176.661 157.031C178.245 157.723 179.69 157.74 181.348 157.324C183.007 156.463 184.152 155.252 184.974 153.571C185.346 151.673 185.066 149.864 183.985 148.242C182.496 146.706 181.206 145.889 179.041 145.807C176.809 145.867 175.48 146.614 174.072 148.296ZM169.337 198.633C169.63 199.219 169.63 199.219 169.63 199.219L169.337 198.633Z" fill="black"/>
</svg>
