<svg width="300" height="300" viewBox="0 0 300 300" fill="none" xmlns="http://www.w3.org/2000/svg">
<path d="M56.8358 64.4534C57.182 64.6032 57.5282 64.7531 57.8849 64.9075C59.2541 65.4198 60.4631 65.4197 61.909 65.3541C62.1672 65.3463 62.4255 65.3385 62.6916 65.3305C63.2434 65.3134 63.7952 65.2943 64.3468 65.2732C65.5066 65.2293 66.6666 65.1965 67.8267 65.1631C68.4109 65.1462 68.9951 65.1288 69.5792 65.111C81.6082 64.7454 94.9874 64.4872 104.425 73.1326C104.973 73.6521 105.516 74.1773 106.055 74.7073C106.216 74.8613 106.377 75.0152 106.542 75.1739C107.854 76.447 108.982 77.8093 110.083 79.2666C110.33 79.587 110.33 79.587 110.583 79.9138C112.793 82.8159 112.793 82.8159 112.793 84.0823C113.905 83.8315 115.017 83.5784 116.129 83.323C116.531 83.2307 116.933 83.1386 117.336 83.0468C119.667 82.5135 121.958 81.9343 124.239 81.213C129.48 79.5803 134.886 79.23 140.332 78.8089C140.554 78.7914 140.775 78.774 141.004 78.756C147.193 78.2712 153.187 78.0293 159.357 78.7539C159.836 78.8089 160.315 78.8637 160.795 78.9184C161.512 79.0004 162.229 79.0828 162.946 79.1665C164.298 79.3239 165.651 79.4675 167.006 79.5962C170.799 79.9715 174.334 80.7525 177.997 81.8015C180.837 82.6092 183.729 83.1971 186.621 83.7893C186.71 83.5975 186.8 83.4057 186.892 83.208C188.009 80.9801 189.436 79.258 191.165 77.4978C191.598 77.0541 192.023 76.6032 192.447 76.1504C196.782 71.5857 201.949 68.6658 207.99 66.97C208.617 66.7905 209.239 66.5985 209.862 66.4035C216.998 64.1845 224.826 64.2061 232.196 65.3506C235.72 65.8643 240.046 66.4946 243.171 64.4889C244.168 63.9234 244.976 64.0207 246.094 64.1604C247.077 65.144 246.964 66.3281 246.973 67.6761C246.891 68.4111 246.799 69.1409 246.698 69.8733C246.337 72.585 246.328 75.2914 246.332 78.0215C246.331 78.2344 246.331 78.4473 246.331 78.6667C246.331 81.0728 246.405 83.4564 246.61 85.8554C246.978 90.4214 246.629 94.9558 246.167 99.4998C246.144 99.7364 246.121 99.9731 246.097 100.217C245.689 104.343 244.786 108.095 243.219 111.951C243.067 112.326 243.067 112.326 242.912 112.709C242.086 114.704 241.119 116.548 239.941 118.36C239.686 118.77 239.686 118.77 239.426 119.188C238.002 121.417 236.367 123.44 234.682 125.474C233.983 126.318 233.321 127.181 232.672 128.064C231.759 129.254 230.691 130.197 229.394 130.957C229.201 130.957 229.008 130.957 228.808 130.957C229.527 132.493 230.309 133.968 231.201 135.412C234.758 141.176 236.692 146.918 237.243 153.683C237.307 154.42 237.387 155.154 237.468 155.889C237.901 160.076 237.953 164.252 237.964 168.457C237.965 168.739 237.967 169.02 237.968 169.311C237.98 172.118 237.95 174.902 237.632 177.694C237.609 177.893 237.587 178.092 237.564 178.297C237.359 179.878 236.892 181.127 236.133 182.52C235.579 182.426 235.579 182.426 234.961 182.227C234.389 181.287 234.082 180.697 234.082 179.59C233.143 180.356 232.905 181.186 232.525 182.318C230.681 187.508 228.249 192.729 225.294 197.377C224.64 198.45 224.096 199.551 223.553 200.684C222.75 202.342 221.859 203.906 220.843 205.445C220.725 205.626 220.607 205.808 220.485 205.995C219.763 207.06 219.013 207.844 217.969 208.594C217.582 208.401 217.195 208.207 216.797 208.008C216.797 207.428 216.797 206.848 216.797 206.25C215.613 207.006 214.597 207.789 213.574 208.759C209.358 212.628 204.876 215.636 199.621 217.932C199.384 218.037 199.147 218.142 198.903 218.25C195.01 219.886 191.193 220.507 187.024 220.789C186.358 220.836 185.692 220.884 185.026 220.935C184.43 220.981 183.834 221.022 183.237 221.063C181.7 221.259 180.786 221.602 179.828 222.821C177.635 225.433 174.987 227.387 172.207 229.318C171.694 229.677 171.187 230.043 170.68 230.411C155.947 241.123 155.947 241.123 149.121 240.528C139.491 238.62 125.427 230.627 119.696 222.492C119.581 222.304 119.467 222.116 119.349 221.923C118.395 220.888 116.517 221.101 115.185 221.012C114.729 220.978 114.273 220.945 113.817 220.911C113.108 220.859 112.4 220.808 111.691 220.761C107.547 220.482 103.706 219.829 99.9022 218.061C99.5733 217.91 99.5733 217.91 99.2377 217.757C95.6294 216.068 92.5218 214.021 89.5519 211.373C88.6707 210.59 87.7766 209.821 86.8834 209.052C86.6341 208.834 86.6341 208.834 86.3798 208.611C85.3667 207.734 84.333 206.971 83.203 206.25C83.1063 206.927 83.0096 207.604 82.91 208.301C82.2474 208.513 82.2474 208.513 81.4452 208.594C78.1996 206.307 76.4317 201.244 74.7304 197.788C73.9559 196.223 73.1467 194.696 72.2533 193.195C71.3436 191.642 70.6715 190.09 70.0606 188.4C69.7477 187.558 69.3953 186.756 69.0123 185.944C68.0489 183.876 67.2856 181.732 66.5038 179.59C66.0204 180.557 65.537 181.524 65.0389 182.52C64.5555 182.423 64.0721 182.326 63.5741 182.227C62.5568 178.796 62.1521 175.545 62.1092 171.973C62.1022 171.594 62.0951 171.216 62.0878 170.826C62.0387 167.111 62.2522 163.426 62.5294 159.723C62.6032 158.722 62.6696 157.721 62.7358 156.719C63.3154 148.548 65.2362 142.202 69.1977 135.089C69.8991 133.826 70.5561 132.548 71.1913 131.25C70.882 131.007 70.882 131.007 70.5664 130.758C68.0418 128.715 65.8873 126.696 64.16 123.926C63.886 123.497 63.6117 123.068 63.3372 122.639C62.7191 121.67 62.1071 120.698 61.4993 119.723C61.0094 118.937 60.5126 118.161 60.0001 117.39C55.5547 110.601 53.5487 103.178 53.5765 95.1419C53.5767 94.9451 53.5768 94.7484 53.577 94.5456C53.5798 91.6523 53.6585 88.7678 53.7779 85.8768C53.9048 82.6722 53.9057 79.4865 53.8146 76.282C53.8095 76.0806 53.8045 75.8791 53.7993 75.6715C53.7403 73.4241 53.5862 71.2534 53.159 69.0444C52.8815 67.397 52.6729 65.7326 53.4483 64.2154C54.6495 63.6587 55.6202 64.0476 56.8358 64.4534ZM200.976 72.9495C200.7 73.1274 200.423 73.3053 200.138 73.4885C195.179 76.6298 195.179 76.6298 191.601 81.1526C191.275 81.7578 190.946 82.3619 190.615 82.9646C190.386 83.3841 190.161 83.8059 189.941 84.2302C189.293 85.4333 188.788 86.1261 187.5 86.719C187.662 88.1983 188.161 89.385 188.837 90.6924C188.941 90.8978 189.045 91.1032 189.152 91.3148C189.992 92.9443 190.934 94.4851 191.915 96.0334C192.498 97.0025 192.996 97.9871 193.487 99.0054C195.094 102.284 197.124 105.208 199.381 108.067C200.047 108.92 200.676 109.79 201.306 110.669C203.853 114.072 206.869 117.372 210.351 119.825C210.648 120.047 210.944 120.27 211.249 120.5C214.838 123.115 218.949 124.7 223.037 126.372C223.348 126.5 223.659 126.628 223.98 126.76C224.26 126.874 224.54 126.988 224.829 127.105C225.516 127.411 226.124 127.754 226.758 128.156C227.562 128.705 227.562 128.705 228.18 128.45C229.029 127.88 229.687 127.172 230.365 126.416C230.508 126.258 230.651 126.1 230.798 125.937C232.02 124.564 233.071 123.118 234.082 121.582C234.313 121.247 234.544 120.912 234.775 120.578C238.823 114.692 241.631 108.359 243.164 101.367C243.272 100.887 243.272 100.887 243.383 100.396C244.279 95.4573 243.819 90.1858 243.603 85.1993C243.414 80.7925 243.386 76.6416 244.049 72.265C244.09 71.9905 244.13 71.716 244.172 71.4332C244.211 71.1887 244.249 70.9442 244.288 70.6924C244.337 70.0029 244.249 69.5034 244.043 68.8479C242.323 70.6751 240.945 72.4373 239.941 74.7439C239.86 74.929 239.778 75.114 239.695 75.3047C238.543 78.1075 238.367 81.0227 238.157 84.0149C237.418 94.2712 235.316 103.846 231.445 113.379C231.287 113.778 231.287 113.778 231.125 114.186C229.964 117.101 228.793 119.397 226.465 121.582C226.211 121.848 225.957 122.114 225.696 122.388C225.466 122.606 225.236 122.823 225 123.047C224.756 123.288 224.756 123.288 224.508 123.535C224.332 123.7 224.156 123.866 223.974 124.036C223.814 124.189 223.654 124.343 223.489 124.501C222.949 124.805 222.949 124.805 222.222 124.81C221.19 124.393 220.928 123.815 220.367 122.864C218.544 120.004 216.276 118.564 213.396 116.899C212.628 116.443 211.926 115.985 211.23 115.43C211.399 114.167 211.859 113.319 212.53 112.244C214.425 109.075 214.482 105.971 214.566 102.365C215.046 82.9608 215.046 82.9608 221.045 77.1792C224.901 73.9997 230.159 72.793 234.843 71.3656C236.912 70.7252 238.627 70.0491 240.234 68.555C239.322 68.2719 238.645 68.2725 237.703 68.4051C236.185 68.5774 234.787 68.4907 233.274 68.3169C232.732 68.2607 232.19 68.2046 231.648 68.1488C231.37 68.1192 231.091 68.0896 230.804 68.0591C220.448 66.9748 209.937 66.8958 200.976 72.9495ZM72.1194 67.8845C67.9955 68.2838 63.9056 68.3275 59.7655 68.262C61.8957 70.833 65.3718 71.5181 68.4524 72.4202C79.1431 75.5738 79.1431 75.5738 81.9224 80.5976C85.1017 87.3094 85.6243 95.2805 85.533 102.595C85.5936 107.518 86.9775 111.169 89.3553 115.43C89.1386 115.51 88.9218 115.591 88.6984 115.674C87.9473 115.992 87.3497 116.34 86.682 116.803C85.6696 117.5 84.6392 118.146 83.5875 118.781C81.4382 120.149 80.2543 121.802 78.9813 123.979C78.5155 124.512 78.5155 124.512 77.7979 124.788C77.0506 124.805 77.0506 124.805 76.4876 124.467C76.3108 124.295 76.1341 124.122 75.952 123.944C75.3333 123.349 74.738 122.778 74.0523 122.26C69.8124 118.985 68.2989 112.344 66.5038 107.52C66.4187 107.292 66.3336 107.064 66.246 106.829C63.8362 100.214 62.7955 92.8489 62.1962 85.855C62.1782 85.6492 62.1603 85.4433 62.1418 85.2312C62.0529 84.2091 61.9687 83.1871 61.8939 82.1639C61.4827 77.1806 59.9297 72.6752 56.2499 69.1409C56.1532 69.1409 56.0565 69.1409 55.9569 69.1409C56.0937 70.7063 56.2352 72.2699 56.4169 73.8307C56.9311 78.4438 56.8863 83.0129 56.3872 87.6288C55.0158 100.728 59.4301 113.675 67.5292 123.871C68.9396 125.555 70.4915 127.088 72.0702 128.614C73.4144 128.212 74.5498 127.656 75.7689 126.966C77.5203 125.997 79.3026 125.228 81.1705 124.512C87.2107 122.17 92.5381 118.388 96.6795 113.379C96.8876 113.131 97.0957 112.884 97.3101 112.628C98.6319 111.038 99.8867 109.414 101.088 107.73C101.456 107.218 101.831 106.711 102.214 106.211C104.839 102.753 106.896 98.9035 108.781 95.0034C109.224 94.1462 109.702 93.3479 110.224 92.5386C111.788 90.2514 111.788 90.2514 112.207 87.5979C111.787 86.5032 111.129 85.6175 110.449 84.6683C110.2 84.2941 109.952 83.919 109.705 83.5433C104.641 75.898 97.7077 70.9367 88.7053 69.0012C83.3249 67.9509 77.58 67.3526 72.1194 67.8845ZM104.59 128.321C104.342 128.441 104.093 128.561 103.838 128.685C102.26 129.48 101.048 130.539 99.7649 131.747C99.0633 132.386 98.3397 132.94 97.5768 133.502C94.8239 135.678 92.8195 138.616 91.4061 141.797C91.2157 142.176 91.0237 142.553 90.8305 142.93C86.8523 150.798 87.6747 159.642 90.2357 167.865C93.6924 179.285 93.6924 179.285 101.184 188.068C103.772 189.355 106.53 189.089 109.277 188.379C110.543 187.813 111.659 187.123 112.793 186.328C113.012 186.186 113.231 186.043 113.457 185.896C114.507 185.131 114.969 184.53 115.192 183.234C115.217 182.325 115.143 181.947 114.734 181.11C112.458 179.214 109.568 178.898 106.736 178.425C104.042 177.936 101.613 177.134 99.6642 175.122C99.4629 174.921 99.2616 174.721 99.0542 174.514C95.2473 169.682 94.949 162.918 95.5077 157.032C96.4696 150.085 98.9773 143.58 104.708 139.21C109.478 135.947 115.471 136.206 120.941 137.183C127.098 138.555 133.296 141.948 137.109 147.071C138.562 149.473 139.521 151.923 140.039 154.688C140.139 155.213 140.139 155.213 140.24 155.75C141.054 164.532 138.607 172.37 133.06 179.135C131.392 181.175 129.874 183.217 128.512 185.475C127.716 186.79 126.857 188.027 125.94 189.258C122.307 194.223 120.112 200.397 118.359 206.25C118.284 206.497 118.208 206.743 118.13 206.996C117.316 210.191 117.572 214.442 119.246 217.313C120.16 218.584 121.279 219.094 122.754 219.434C124.723 219.739 126.65 219.769 128.641 219.766C128.976 219.766 129.312 219.766 129.658 219.767C130.365 219.767 131.072 219.766 131.78 219.765C132.858 219.763 133.936 219.765 135.014 219.767C135.703 219.767 136.392 219.766 137.082 219.766C137.402 219.766 137.722 219.767 138.052 219.768C139.719 219.762 141.32 219.684 142.969 219.434C142.051 216.987 139.772 215.589 137.805 213.996C133.127 210.173 133.127 210.173 132.584 207.323C132.393 203.384 134.376 199.393 136.944 196.527C137.39 196.057 137.835 195.587 138.281 195.117C138.631 194.71 138.979 194.301 139.325 193.891C141.164 191.799 143.038 190.358 145.605 189.258C145.916 189.117 145.916 189.117 146.234 188.973C149.376 187.72 152.483 188.185 155.509 189.476C157.664 190.49 159.228 191.927 160.84 193.653C161.084 193.909 161.328 194.165 161.579 194.429C162.231 195.132 162.859 195.849 163.476 196.582C163.642 196.777 163.807 196.972 163.978 197.173C166.292 200.063 167.537 203.527 167.411 207.221C167.22 208.855 166.628 209.751 165.527 210.938C165.321 211.168 165.115 211.398 164.902 211.635C163.38 213.24 161.719 214.613 159.934 215.913C158.686 216.847 157.878 217.828 157.031 219.141C157.031 219.238 157.031 219.334 157.031 219.434C158.78 219.737 160.485 219.774 162.258 219.776C162.562 219.777 162.867 219.778 163.181 219.779C163.825 219.78 164.469 219.781 165.112 219.781C166.083 219.782 167.053 219.787 168.023 219.793C174.447 220.032 174.447 220.032 180.469 218.262C182.613 215.448 182.541 211.361 182.226 208.008C181.933 206.194 181.367 204.465 180.762 202.735C180.675 202.486 180.589 202.237 180.5 201.981C178.434 196.123 175.801 190.966 172.023 186.022C171.447 185.239 170.937 184.449 170.434 183.618C169.553 182.193 168.537 180.93 167.468 179.645C161.512 172.445 159.333 164.572 159.961 155.274C160.579 150.587 162.988 146.26 166.589 143.225C168.369 141.869 170.302 140.808 172.265 139.746C172.466 139.629 172.667 139.511 172.873 139.39C178.474 136.257 185.497 135.974 191.601 137.403C193.988 138.114 196.661 139.719 198.047 141.797C198.24 141.797 198.433 141.797 198.633 141.797C198.826 142.184 199.019 142.571 199.219 142.969C199.412 142.969 199.605 142.969 199.805 142.969C199.877 143.165 199.95 143.36 200.025 143.562C200.386 144.424 200.798 145.237 201.231 146.065C202.302 148.127 203.144 150.057 203.613 152.344C203.72 152.794 203.827 153.244 203.934 153.693C205.35 159.953 205.244 167.464 201.855 173.145C198.771 177.381 194.687 178.603 189.715 179.444C189.341 179.501 188.967 179.558 188.581 179.618C187.329 179.925 186.523 180.349 185.449 181.055C185 181.953 185.089 182.7 185.156 183.692C185.99 185.829 188.433 186.989 190.321 188.092C192.585 189.028 195.804 189.042 198.174 188.513C202.032 186.86 204.132 182.036 205.609 178.4C205.733 178.098 205.857 177.796 205.985 177.484C209.851 167.953 214.691 155.815 210.446 145.558C210.318 145.284 210.19 145.009 210.058 144.727C209.935 144.461 209.935 144.461 209.809 144.189C207.315 138.881 204.433 134.92 199.747 131.381C199.172 130.92 198.642 130.423 198.103 129.919C196.833 128.799 195.487 128.165 193.927 127.533C193.657 127.421 193.387 127.309 193.109 127.194C183.088 123.132 170.729 122.951 160.738 127.151C160.261 127.355 159.785 127.56 159.309 127.767C156.692 128.906 154.043 129.896 151.172 130.078C150.935 130.104 150.698 130.129 150.454 130.155C146.273 130.418 142.028 128.545 138.298 126.824C134.823 125.261 131.28 124.611 127.496 124.402C127.302 124.391 127.109 124.379 126.909 124.368C119.17 123.926 111.509 124.643 104.59 128.321ZM110.957 151.702C108.623 154.651 107.483 157.475 107.883 161.209C108.442 164.387 110.304 167.051 112.793 169.043C115.222 170.584 117.668 171.254 120.52 171.039C120.737 171.024 120.954 171.009 121.178 170.993C123.79 170.78 125.807 170.335 127.734 168.457C129.979 165.694 131.601 163.023 131.25 159.375C130.783 155.776 129.569 153.053 126.855 150.586C122.198 147.053 115.057 147.349 110.957 151.702ZM173.144 150.586C172.879 150.755 172.613 150.925 172.339 151.099C169.87 153.568 168.645 156.983 168.585 160.419C168.606 162.519 168.987 164.077 170.215 165.821C170.458 166.172 170.458 166.172 170.707 166.531C172.326 168.73 173.919 170.25 176.66 170.801C180.718 171.308 183.769 171.13 187.207 168.75C187.515 168.539 187.823 168.327 188.141 168.109C190.642 165.608 191.859 162.682 192.096 159.192C192.022 156.115 190.511 153.121 188.324 150.971C183.7 147.336 177.845 147.425 173.144 150.586ZM124.219 223.242C125.291 224.315 126.238 224.907 127.551 225.586C129.239 226.493 130.676 227.483 132.092 228.772C135.16 231.535 138.713 233.491 142.419 235.272C142.757 235.435 142.757 235.435 143.102 235.601C146.992 237.405 151.42 237.706 155.49 236.245C160.317 234.199 164.695 231.583 168.698 228.198C170.599 226.62 172.664 225.378 174.792 224.135C175.119 223.937 175.445 223.739 175.781 223.535C175.781 223.439 175.781 223.342 175.781 223.242C158.765 223.242 141.75 223.242 124.219 223.242Z" fill="black"/>
<path d="M124.053 153.113C125.697 154.082 126.759 155.551 127.441 157.324C127.99 159.76 127.625 161.85 126.379 164.008C124.339 165.886 122.315 166.494 119.61 166.47C117.788 166.349 116.451 165.635 115.136 164.356C113.707 162.296 113.435 160.373 113.671 157.91C114.308 155.573 116.133 154.144 118.139 152.948C120.095 152.394 122.164 152.258 124.053 153.113Z" fill="black"/>
<path d="M182.062 153.149C182.415 153.36 182.764 153.579 183.106 153.809C183.365 153.978 183.625 154.147 183.893 154.321C185.457 155.843 186.239 157.342 186.346 159.537C186.289 161.772 185.512 163.312 183.984 164.941C182.089 166.526 180.212 166.57 177.832 166.406C176.058 166.054 174.615 165.135 173.438 163.769C172.3 162.018 171.963 160.261 172.266 158.203C172.801 155.967 173.856 154.484 175.781 153.223C177.715 152.281 180.11 152.207 182.062 153.149Z" fill="black"/>
</svg>
