<svg width="300" height="300" viewBox="0 0 300 300" fill="none" xmlns="http://www.w3.org/2000/svg">
<path d="M113.505 42.3377C114.551 42.7737 114.551 42.7737 114.99 43.3597C115.137 43.9456 115.137 43.9456 115.137 44.8245C113.549 45.2979 112.369 45.6138 110.742 45.1175C109.884 44.5589 109.074 43.9626 108.267 43.3333C106.875 42.2908 106.053 42.1202 104.297 42.1878C103.222 44.4841 103.418 47.1885 104.224 49.5486C104.78 51.0012 105.465 51.8695 106.887 52.5424C107.336 52.7101 107.336 52.7101 107.794 52.8811C109.067 53.3576 110.026 53.8638 111.035 54.7854C111.273 55.4446 111.273 55.4446 111.328 55.9573C110.651 55.8606 109.975 55.764 109.277 55.6643C109.692 56.6704 110.16 57.1253 111.053 57.7334C112.175 58.4981 112.175 58.4981 112.5 59.4729C111.437 59.4729 110.373 59.4729 109.277 59.4729C109.676 59.9261 109.676 59.9261 110.083 60.3885C112.207 62.8698 112.207 62.8698 112.207 63.8675C111.337 63.5774 111.337 63.5774 110.449 63.2815C110.527 63.4379 110.605 63.5942 110.685 63.7553C112.537 67.6615 112.53 71.9545 112.5 76.2088C112.354 78.6285 112.354 78.6285 113.214 80.7498C113.365 80.8827 113.516 81.0157 113.672 81.1526C114.522 83.2681 114.683 85.6731 113.818 87.7994C113.673 88.1196 113.528 88.4399 113.379 88.7698C113.203 90.5392 113.412 92.2923 113.672 94.0433C113.853 94.0542 114.035 94.0652 114.222 94.0764C116.63 94.2553 118.948 94.7123 121.307 95.2151C121.697 95.2961 122.087 95.377 122.476 95.4577C125.307 96.0521 125.307 96.0521 125.977 96.387C126.053 96.1733 126.13 95.9595 126.209 95.7393C126.98 93.9565 128.281 92.2234 130.078 91.4065C129.896 92.6467 129.461 93.6105 128.888 94.7207C128.647 95.1904 128.647 95.1904 128.402 95.6695C128.278 95.9062 128.155 96.143 128.027 96.387C128.995 97.032 130.007 97.5261 131.049 98.035C132.695 98.8496 134.32 99.6933 135.919 100.598C136.254 100.788 136.589 100.978 136.934 101.173C137.695 101.66 137.695 101.66 137.988 102.246C135.778 101.801 133.666 101.151 131.525 100.452C131.187 100.343 130.85 100.234 130.502 100.121C129.677 99.8541 128.852 99.5859 128.027 99.3167C127.931 99.8001 127.834 100.283 127.734 100.782C129.818 102.069 131.946 103.234 134.125 104.352C134.713 104.655 135.301 104.958 135.888 105.262C136.144 105.393 136.4 105.525 136.664 105.66C137.415 106.062 138.149 106.474 138.867 106.934C138.867 107.031 138.867 107.127 138.867 107.227C136.504 107.066 134.368 106.438 132.111 105.744C131.563 105.578 131.563 105.578 131.003 105.409C130.108 105.138 129.214 104.865 128.32 104.59C128.54 105.057 128.763 105.522 128.988 105.986C129.173 106.375 129.173 106.375 129.363 106.772C130.665 109.079 133.222 110.453 135.645 111.328C139.629 112.097 144.121 110.056 147.656 108.399C147.543 108.218 147.43 108.037 147.313 107.851C146.556 106.62 145.89 105.49 145.441 104.114C144.831 102.644 143.706 102.112 142.363 101.351C139.969 99.9809 138.757 98.359 137.904 95.7519C137.591 94.5067 137.458 93.2731 137.402 91.9925C138.359 92.6884 139.14 93.4457 139.911 94.3362C140.087 94.5383 140.264 94.7403 140.445 94.9485C140.803 95.3717 141.14 95.8118 141.467 96.2588C142.353 96.8577 142.999 96.6602 144.019 96.4637C144.727 96.387 144.727 96.387 145.478 96.5186C146.943 96.7535 148.391 96.7222 149.872 96.7166C150.324 96.7183 150.324 96.7183 150.784 96.72C151.222 96.7195 151.222 96.7195 151.667 96.7189C151.931 96.7186 152.194 96.7182 152.466 96.7179C153.233 96.6795 153.937 96.5419 154.688 96.387C155.268 96.4096 155.848 96.4405 156.427 96.4786C157.675 96.5111 157.675 96.5111 158.781 96.0174C159.233 95.5537 159.233 95.5537 159.619 95.0526C159.961 94.6292 159.961 94.6292 160.602 94.3362C161.436 93.8762 161.643 93.1324 162.012 92.2854C162.56 93.8889 161.992 95.4378 161.426 96.9729C159.823 99.6453 157.348 101.555 154.395 102.539C154.07 103.192 154.07 103.192 153.809 104.004C153.681 104.316 153.553 104.628 153.421 104.949C153.289 105.278 153.157 105.607 153.021 105.945C152.82 106.44 152.82 106.44 152.615 106.945C152.25 107.816 152.25 107.816 152.637 108.692C155.504 110.373 160.701 112.047 164.062 111.328C167.925 109.9 170.16 107.629 171.973 104.004C171.735 104.091 171.497 104.179 171.252 104.268C170.362 104.594 169.472 104.917 168.581 105.24C168.196 105.379 167.813 105.519 167.429 105.66C166.875 105.863 166.32 106.064 165.764 106.264C165.431 106.386 165.098 106.507 164.755 106.632C163.742 106.942 162.77 107.105 161.719 107.227C161.719 107.033 161.719 106.84 161.719 106.641C161.903 106.538 162.087 106.435 162.277 106.328C164.061 105.329 165.84 104.322 167.617 103.309C168.323 102.908 169.032 102.513 169.742 102.119C170.083 101.924 170.424 101.728 170.764 101.532C171.053 101.369 171.343 101.207 171.641 101.039C172.455 100.322 172.49 99.7902 172.559 98.7308C167.971 100.206 167.971 100.206 163.501 101.998C162.891 102.246 162.891 102.246 162.305 102.246C162.305 102.053 162.305 101.86 162.305 101.66C163.039 101.124 163.772 100.628 164.539 100.141C164.762 99.9972 164.985 99.8538 165.215 99.706C167.205 98.4483 169.252 97.3781 171.387 96.387C171.235 95.2675 171.034 94.3749 170.49 93.3841C169.922 92.3417 169.922 92.3417 169.922 91.6995C170.827 92.0953 171.378 92.5169 172.009 93.2742C172.155 93.4457 172.301 93.6171 172.451 93.7938C172.857 94.3432 173.14 94.895 173.438 95.5081C175.334 95.3223 177.174 95.0231 179.041 94.6475C181.56 94.1526 184.071 93.755 186.621 93.4573C187.016 90.8155 186.932 89.0596 185.793 86.6424C185.282 85.4489 185.126 84.4679 185.449 83.2034C185.849 82.3953 186.292 81.6559 186.794 80.9077C187.602 79.6682 187.53 78.5177 187.508 77.0946C187.504 76.6288 187.501 76.163 187.497 75.6972C187.49 74.9664 187.482 74.2355 187.472 73.5047C187.432 70.3309 187.447 67.5662 188.708 64.5816C188.812 64.3335 188.915 64.0853 189.022 63.8297C189.1 63.6488 189.178 63.4679 189.258 63.2815C188.774 63.4749 188.291 63.6683 187.793 63.8675C187.793 62.8304 187.991 62.6288 188.617 61.835C188.77 61.639 188.923 61.443 189.08 61.2411C189.236 61.0443 189.391 60.8475 189.551 60.6448C189.841 60.2581 190.131 59.8714 190.43 59.4729C189.463 59.4729 188.496 59.4729 187.5 59.4729C188.051 58.3718 188.386 57.9642 189.294 57.2024C189.507 57.0227 189.719 56.8429 189.938 56.6577C190.1 56.5232 190.262 56.3888 190.43 56.2503C189.753 56.0569 189.076 55.8636 188.379 55.6643C188.77 54.7442 189.116 54.2926 189.972 53.7784C190.179 53.6541 190.385 53.5299 190.598 53.4018C191.379 52.9907 192.176 52.6653 192.993 52.3318C194.242 51.7755 194.958 51.3431 195.517 50.0808C196.262 47.8072 196.73 45.3872 196.014 43.0484C195.746 42.4965 195.746 42.4965 195.41 42.1878C193.329 42.082 192.314 42.7427 190.741 43.9822C188.62 45.6376 188.62 45.6376 187.006 45.4654C186.325 45.3132 186.325 45.3132 185.742 45.1175C185.452 45.0208 185.162 44.9241 184.863 44.8245C184.9 44.1653 184.9 44.1653 185.156 43.3597C186.527 42.2542 187.913 41.8078 189.606 41.3821C189.852 41.3195 190.098 41.2568 190.352 41.1922C192.473 40.6789 194.515 40.2031 196.582 41.1075C198.332 43.4588 198.344 46.6996 198.047 49.512C197.215 54.9391 195.087 61.3582 190.937 65.1195C189.555 66.4981 189.188 68.0958 189.13 70.0015C189.184 72.0316 189.448 74.0299 189.697 76.044C190.386 81.6625 190.787 87.9908 188.965 93.4573C189.176 93.4102 189.388 93.3631 189.606 93.3146C194.166 92.4833 200.082 92.8663 204.492 94.3362C204.492 94.5296 204.492 94.7229 204.492 94.9222C204.237 94.9368 203.982 94.9515 203.72 94.9666C197.763 95.2982 197.763 95.2982 191.821 95.8194C191.602 95.8426 191.383 95.8657 191.158 95.8896C190.621 95.9502 190.086 96.0214 189.551 96.094C189.347 96.1206 189.144 96.1472 188.934 96.1746C188.331 96.3378 188.331 96.3378 188.072 96.9283C188.004 97.1424 187.936 97.3566 187.866 97.5772C187.795 97.7921 187.724 98.007 187.651 98.2284C187.601 98.3941 187.551 98.5599 187.5 98.7308C187.697 98.7806 187.894 98.8305 188.097 98.8818C191.667 99.7934 195.206 100.744 198.669 102.008C198.927 102.102 199.185 102.196 199.451 102.293C200.991 102.87 202.447 103.537 203.906 104.297C202.8 104.709 202.097 104.461 200.998 104.093C200.653 103.981 200.308 103.868 199.952 103.752C199.77 103.692 199.587 103.631 199.399 103.569C196.46 102.596 193.516 101.718 190.485 101.075C190.216 101.017 189.948 100.96 189.671 100.902C188.171 100.595 186.678 100.365 185.156 100.196C185.156 100.389 185.156 100.582 185.156 100.782C185.354 100.812 185.551 100.843 185.755 100.874C190.756 102.03 195.425 105.364 199.219 108.692C198.34 108.985 198.34 108.985 197.829 108.772C197.644 108.657 197.459 108.542 197.268 108.424C196.957 108.235 196.957 108.235 196.64 108.043C196.421 107.906 196.203 107.77 195.978 107.63C195.529 107.357 195.079 107.086 194.63 106.815C194.412 106.683 194.194 106.552 193.97 106.417C192.024 105.149 192.024 105.149 189.844 104.59C190.446 107.086 191.791 108.833 193.3 110.854C193.765 111.48 194.217 112.114 194.659 112.757C194.786 112.937 194.912 113.118 195.043 113.304C197.674 118.041 197.574 124.562 197.571 129.877C197.571 130.26 197.572 130.642 197.572 131.037C197.55 133.077 197.439 135.086 197.241 137.117C196.941 140.25 196.832 143.354 196.859 146.5C196.861 146.807 196.861 146.807 196.864 147.12C196.879 149.023 196.902 150.926 196.931 152.829C197.057 161.223 196.017 168.875 193.652 176.953C193.478 177.556 193.305 178.159 193.131 178.762C192.362 181.436 191.58 184.106 190.796 186.777C189.754 190.329 188.714 193.882 187.678 197.436C187.561 197.838 187.444 198.24 187.326 198.642C186.085 202.894 184.863 207.137 183.929 211.469C183.882 211.686 183.834 211.903 183.786 212.127C182.42 218.391 181.28 224.68 180.972 231.096C180.886 232.672 180.8 233.911 179.883 235.254C179.359 235.705 179.359 235.705 178.821 236.023C178.036 236.483 178.036 236.483 177.629 237.267C177.11 240.85 178.276 243.869 179.901 247.01C181.566 250.242 182.354 253.266 181.934 256.934C181.375 258.335 180.886 258.993 179.472 259.606C174.417 261.316 169.25 260.919 164.062 260.157C161.869 259.846 159.714 259.862 157.503 259.892C155.957 259.901 154.541 259.78 153.021 259.497C151.426 259.23 150.612 259.37 149.208 260.129C146.935 261.211 144.175 261.09 141.705 261.109C141.46 261.111 141.216 261.114 140.963 261.117C139.384 261.109 138.047 260.858 136.523 260.45C135.565 260.54 134.799 260.731 133.887 261.035C123.198 261.651 123.198 261.651 120.117 258.985C118.632 257.563 117.954 256.306 117.627 254.261C117.942 251.819 119.434 249.744 120.74 247.705C122.151 245.455 123.23 242.922 123.34 240.235C122.969 239.046 122.384 238.248 121.582 237.305C120.076 235.533 119.729 234.052 119.508 231.796C119.453 231.273 119.397 230.751 119.341 230.228C119.313 229.955 119.284 229.681 119.255 229.399C118.808 225.177 118.301 220.983 117.48 216.815C117.415 216.481 117.349 216.146 117.281 215.801C116.275 210.905 114.969 206.147 113.374 201.413C111.798 196.721 110.333 192.047 109.277 187.207C109.187 186.793 109.096 186.379 109.006 185.965C108.957 185.743 108.908 185.52 108.858 185.291C108.756 184.825 108.654 184.358 108.552 183.892C108.299 182.742 108.049 181.591 107.806 180.438C107.126 177.261 106.295 174.174 105.009 171.178C103.887 168.561 103.308 166.108 103.015 163.257C102.992 163.05 102.969 162.842 102.945 162.629C102.329 157.102 102.35 151.659 102.934 146.13C103.265 142.814 102.991 139.57 102.6 136.271C102.002 131.131 102.052 126.199 102.905 121.088C102.965 120.728 103.025 120.368 103.087 119.998C103.772 116.176 104.625 112.84 107.158 109.836C108.649 108.047 109.418 106.205 110.156 104.004C107.435 105.397 104.817 106.792 102.34 108.593C102.003 108.787 102.003 108.787 101.66 108.985C101.37 108.888 101.08 108.791 100.781 108.692C105.42 104.92 109.807 102.29 115.43 100.196C108.747 100.722 102.422 102.77 96.0938 104.883C96.0938 104.69 96.0938 104.496 96.0938 104.297C100.911 101.79 107.281 99.0237 112.793 99.0237C112.406 97.9602 112.02 96.8968 111.621 95.8011C106.348 95.2953 101.094 95.0561 95.8008 94.9222C95.8008 94.7288 95.8008 94.5354 95.8008 94.3362C99.0411 93.5394 102.213 93.4092 105.542 93.4207C106.039 93.419 106.039 93.419 106.547 93.4173C108.171 93.4192 109.729 93.459 111.328 93.7503C111.277 93.4804 111.277 93.4804 111.225 93.2051C111.069 92.3739 110.915 91.5423 110.76 90.7107C110.707 90.4279 110.654 90.145 110.599 89.8536C109.712 85.0499 109.868 80.6709 110.43 75.8283C111.075 70.0442 111.075 70.0442 108.574 65.0268C108.233 64.6101 107.889 64.1967 107.543 63.7852C106.536 62.4681 105.888 60.9829 105.176 59.4912C105.019 59.1629 104.862 58.8346 104.7 58.4963C102.352 53.4918 100.959 48.0874 102.551 42.6112C102.832 41.8948 102.832 41.8948 103.436 41.0892C106.454 39.8051 110.554 41.2868 113.505 42.3377ZM114.844 96.387C115.074 96.8702 115.306 97.3522 115.54 97.8335C115.733 98.2363 115.733 98.2363 115.931 98.6472C116.248 99.3545 116.248 99.3545 116.895 99.6097C117.732 99.6714 118.565 99.7193 119.403 99.7561C121.214 99.845 123.005 99.9624 124.805 100.196C124.901 99.6155 124.998 99.0354 125.098 98.4378C123.939 98.1476 122.779 97.862 121.619 97.5772C121.294 97.4958 120.969 97.4144 120.634 97.3306C118.704 96.8594 116.828 96.5147 114.844 96.387ZM179.352 97.1011C178.855 97.2022 178.855 97.2022 178.348 97.3054C176.607 97.6564 176.607 97.6564 174.902 98.1448C174.999 98.6282 175.096 99.1116 175.195 99.6097C175.479 99.5708 175.763 99.5319 176.056 99.4918C178.891 99.1145 181.714 98.8751 184.57 98.7308C184.86 97.9573 185.15 97.1839 185.449 96.387C183.339 96.2865 181.412 96.6676 179.352 97.1011ZM177.246 101.367C176.983 102.307 177.005 102.772 177.246 103.711C177.257 104.395 177.259 105.079 177.246 105.762C176.243 106.379 175.477 106.373 174.316 106.348C174.021 106.914 173.729 107.482 173.438 108.051C173.274 108.367 173.111 108.683 172.943 109.009C172.499 109.841 172.499 109.841 172.559 110.742C177.004 108.886 180.203 105.725 183.105 101.953C182.213 101.358 182.05 101.295 181.051 101.31C180.829 101.312 180.608 101.314 180.379 101.316C180.149 101.321 179.919 101.326 179.681 101.331C179.448 101.333 179.214 101.336 178.974 101.339C178.398 101.346 177.822 101.356 177.246 101.367ZM118.066 101.66C117.873 101.854 117.68 102.047 117.48 102.246C121.495 107.401 121.495 107.401 127.148 110.45C127.342 110.353 127.535 110.256 127.734 110.157C127.614 109.98 127.494 109.803 127.37 109.621C127.213 109.387 127.055 109.153 126.892 108.911C126.736 108.68 126.579 108.449 126.418 108.211C125.977 107.52 125.977 107.52 125.7 106.868C125.434 106.301 125.434 106.301 124.841 106.126C124.636 106.09 124.43 106.055 124.219 106.018C123.102 105.817 123.102 105.817 122.461 105.176C122.468 104.478 122.468 104.478 122.571 103.675C122.603 103.408 122.636 103.141 122.669 102.867C122.711 102.56 122.711 102.56 122.754 102.246C122.138 102.148 121.521 102.05 120.905 101.953C120.561 101.899 120.218 101.845 119.864 101.789C118.955 101.64 118.955 101.64 118.066 101.66ZM184.863 103.418C184.712 103.751 184.561 104.083 184.406 104.425C182.189 108.859 178.468 111.21 174.188 113.379C168.642 115.904 168.642 115.904 165.14 120.569C164.648 122.353 164.493 124.223 164.272 126.056C163.931 128.551 163.346 130.676 161.634 132.584C159.899 133.892 158.193 134.888 156.152 135.645C155.842 135.76 155.531 135.875 155.212 135.994C150.177 137.647 146.15 136.921 141.5 134.623C138.33 132.864 136.478 129.923 135.445 126.484C135 124.78 134.552 123.019 134.43 121.258C134.339 119.957 134.072 119.125 133.166 118.165C132.354 117.46 131.458 116.952 130.518 116.437C130.075 116.186 129.634 115.933 129.192 115.681C128.958 115.547 128.723 115.414 128.482 115.276C127.132 114.496 125.803 113.683 124.475 112.866C124.218 112.711 123.962 112.556 123.697 112.396C121.338 110.943 119.524 109.41 117.865 107.19C117.009 106.059 116.174 104.98 115.137 104.004C115.115 104.262 115.093 104.52 115.07 104.786C114.756 107.566 114.756 107.566 113.837 108.673C113.371 108.977 113.371 108.977 112.793 109.278C108.892 111.312 107.564 113.099 106.215 117.235C105.592 119.329 105.668 121.537 105.61 123.703C105.563 125.057 105.481 126.332 105.171 127.653C104.719 129.725 104.782 131.832 104.791 133.942C104.791 134.16 104.791 134.377 104.791 134.602C104.797 138.42 105.117 142.132 105.762 145.899C105.941 145.813 106.121 145.727 106.306 145.638C106.542 145.528 106.778 145.418 107.022 145.305C107.256 145.195 107.489 145.084 107.73 144.971C108.398 144.727 108.398 144.727 109.332 144.855C111.253 145.922 112.366 147.039 113.086 149.121C113.522 150.999 113.37 152.362 112.5 154.102C110.933 154.251 110.198 153.916 108.984 152.93C108.366 152.271 107.788 151.587 107.227 150.879C106.681 152.515 107.112 154.309 107.281 156.006C107.302 156.211 107.322 156.417 107.343 156.628C107.888 162.109 109.062 167.085 110.988 172.249C111.127 172.622 111.127 172.622 111.269 173.003C111.45 173.488 111.634 173.973 111.819 174.457C111.904 174.68 111.988 174.903 112.074 175.133C112.149 175.329 112.224 175.525 112.302 175.727C112.784 177.287 112.854 178.874 112.919 180.495C112.94 180.962 112.961 181.429 112.982 181.895C112.993 182.138 113.004 182.38 113.015 182.63C113.552 194.294 116.067 204.862 119.891 215.853C120.555 217.764 121.21 219.678 121.857 221.595C121.924 221.795 121.992 221.996 122.062 222.202C124.852 230.512 127.349 240.904 123.292 249.168C122.512 250.698 121.686 252.196 120.776 253.653C120.283 254.521 120.264 255.073 120.41 256.055C121.067 256.932 121.402 257.2 122.499 257.362C122.831 257.354 123.163 257.345 123.505 257.337C123.837 257.333 124.17 257.329 124.513 257.325C125.443 257.289 125.443 257.289 126.27 256.641C126.415 255.822 126.515 255.049 126.581 254.224C126.713 252.697 126.886 251.349 127.441 249.903C127.635 249.903 127.828 249.903 128.027 249.903C128.926 252.395 129.216 254.902 129.492 257.52C129.889 257.486 130.286 257.448 130.682 257.41C130.903 257.39 131.124 257.369 131.352 257.348C132.323 257.197 133.24 256.924 134.18 256.641C134.175 256.453 134.17 256.266 134.166 256.073C134.147 255.218 134.136 254.364 134.125 253.51C134.117 253.215 134.11 252.92 134.102 252.615C134.077 249.996 134.077 249.996 135.059 248.731C135.059 248.537 135.059 248.344 135.059 248.145C135.349 248.145 135.639 248.145 135.938 248.145C136.33 248.931 136.293 249.576 136.323 250.454C136.335 250.796 136.348 251.138 136.36 251.49C136.372 251.848 136.383 252.207 136.395 252.576C136.408 252.937 136.421 253.297 136.434 253.669C136.465 254.562 136.495 255.455 136.523 256.348C136.717 256.445 136.91 256.541 137.109 256.641C137.795 256.402 138.442 256.145 139.105 255.854C139.286 255.778 139.467 255.703 139.653 255.625C140.807 255.126 141.731 254.538 142.676 253.711C142.456 252.784 142.456 252.784 141.669 252.265C140.779 251.549 140.43 250.99 140.212 249.871C140.18 249.549 140.18 249.549 140.147 249.221C140.11 248.869 140.11 248.869 140.072 248.511C140.049 248.269 140.026 248.028 140.002 247.779C139.977 247.532 139.952 247.286 139.926 247.032C139.864 246.427 139.805 245.821 139.746 245.215C138.973 245.505 138.199 245.795 137.402 246.094C136.712 243.252 136.275 240.553 137.695 237.891C139.585 237.782 141.098 237.984 142.894 238.568C143.765 238.834 144.412 238.937 145.312 238.77C146.796 237.7 147.228 236.376 147.656 234.668C147.77 233.797 147.782 232.946 147.766 232.068C147.763 231.828 147.76 231.588 147.757 231.34C147.584 224.32 145.337 217.513 143.343 210.839C142.284 207.288 141.349 203.734 140.625 200.098C140.554 199.764 140.482 199.431 140.409 199.087C138.963 191.407 141.108 184.916 143.591 177.734C144.792 174.083 144.245 170.047 143.262 166.407C143.662 166.683 144.063 166.96 144.463 167.236C144.739 167.406 144.739 167.406 145.02 167.578C145.267 167.734 145.515 167.89 145.77 168.05C147.14 168.604 148.353 168.597 149.817 168.585C150.083 168.591 150.349 168.597 150.623 168.603C152.971 168.602 154.642 167.909 156.445 166.407C156.403 166.686 156.361 166.966 156.317 167.255C155.295 174.376 157.185 180.038 159.677 186.665C162.251 194.249 158.642 203.87 156.611 211.169C154.965 217.1 153.597 223.022 152.46 229.071C152.19 230.501 151.914 231.929 151.635 233.357C151.49 234.092 151.349 234.828 151.209 235.565C150.537 239.007 149.821 242.238 147.235 244.739C145.9 246.048 144.673 247.411 144.562 249.353C144.809 251.056 145.427 251.883 146.777 252.924C147.954 253.585 148.711 253.721 150.039 253.716C150.413 253.714 150.787 253.713 151.172 253.711C151.165 253.392 151.165 253.392 151.158 253.067C151.14 252.098 151.128 251.128 151.117 250.159C151.11 249.824 151.102 249.49 151.095 249.145C151.067 245.941 151.067 245.941 152.051 244.629C152.985 244.373 152.985 244.373 153.809 244.336C154.526 245.604 154.803 246.543 154.837 247.996C154.848 248.347 154.858 248.698 154.869 249.06C154.875 249.423 154.882 249.785 154.889 250.159C154.899 250.528 154.909 250.898 154.919 251.278C154.943 252.187 154.964 253.095 154.98 254.004C155.584 254.103 156.189 254.201 156.793 254.297C157.13 254.352 157.466 254.406 157.813 254.462C158.644 254.571 159.418 254.615 160.254 254.59C160.535 253.747 160.653 253.019 160.757 252.139C160.795 251.831 160.832 251.523 160.871 251.206C160.928 250.724 160.928 250.724 160.986 250.232C161.062 249.598 161.138 248.964 161.215 248.33C161.265 247.908 161.265 247.908 161.316 247.478C161.421 246.715 161.559 245.968 161.719 245.215C162.105 245.215 162.492 245.215 162.891 245.215C163.804 248.497 164.088 251.791 164.355 255.176C167.249 255.934 167.249 255.934 170.215 256.055C170.556 255.373 170.52 255.053 170.49 254.297C170.458 251.94 170.809 249.602 171.094 247.266C171.973 247.559 171.973 247.559 172.303 248.147C172.701 249.514 172.776 250.899 172.888 252.314C173.028 253.823 173.265 255.022 174.023 256.348C175.428 257.196 177.121 257.17 178.711 256.934C179.452 256.407 179.452 256.407 179.59 255.469C179.686 252.526 178.053 249.82 176.805 247.229C176.616 246.83 176.616 246.83 176.422 246.424C176.311 246.201 176.201 245.978 176.087 245.748C175.109 243.104 175.105 240.444 175.122 237.653C175.12 237.279 175.118 236.905 175.115 236.519C175.122 233.153 175.507 229.955 176.514 226.74C176.588 226.498 176.662 226.255 176.738 226.006C177.42 223.824 178.192 221.675 178.967 219.525C181.315 213.007 183.238 206.609 184.57 199.805C184.65 199.402 184.731 198.998 184.811 198.595C185.056 197.363 185.299 196.131 185.541 194.898C185.579 194.704 185.617 194.511 185.656 194.312C185.764 193.758 185.87 193.204 185.977 192.65C186.038 192.334 186.099 192.018 186.161 191.693C186.478 189.85 186.659 188.036 186.747 186.169C186.769 185.754 186.79 185.338 186.812 184.922C186.845 184.282 186.877 183.641 186.906 183C187.096 178.912 187.842 175.316 189.368 171.497C191.921 164.87 193.298 158.289 193.066 151.172C192.423 151.965 191.793 152.752 191.235 153.607C191.066 153.867 190.897 154.127 190.723 154.395C189.503 154.322 188.742 154.143 187.683 153.516C186.808 152.516 186.63 151.981 186.572 150.685C186.71 148.757 187.558 147.214 188.965 145.899C189.825 145.434 190.628 145.133 191.602 145.02C192.609 145.404 192.609 145.404 193.359 145.899C193.553 145.899 193.746 145.899 193.945 145.899C194.587 143.04 194.998 140.302 195.081 137.366C195.092 136.984 195.103 136.601 195.115 136.207C195.185 133.04 195.008 129.901 194.751 126.746C194.724 126.412 194.724 126.412 194.697 126.072C194.5 123.664 194.222 121.276 193.821 118.893C193.788 118.692 193.755 118.491 193.722 118.284C193.273 115.774 192.061 112.86 189.966 111.27C189.254 110.788 188.536 110.32 187.806 109.868C186.389 108.922 185.846 107.998 185.449 106.348C185.299 105.478 185.299 105.478 185.248 104.737C185.229 104.486 185.209 104.235 185.189 103.977C185.178 103.792 185.168 103.608 185.156 103.418C185.06 103.418 184.963 103.418 184.863 103.418ZM145.02 112.207C145.116 112.401 145.213 112.594 145.312 112.793C145.693 112.787 146.074 112.781 146.466 112.775C147.4 112.771 148.273 112.831 149.194 112.976C150.956 113.205 152.664 112.824 154.395 112.5C154.298 112.21 154.201 111.92 154.102 111.621C150.961 110.496 148.023 110.883 145.02 112.207ZM157.031 111.914C157.142 113.915 157.723 115.484 158.789 117.188C158.982 117.284 159.176 117.381 159.375 117.481C160.147 115.768 160.711 114.391 160.547 112.5C160.184 112.404 159.822 112.307 159.448 112.207C159.244 112.153 159.04 112.099 158.83 112.043C158.118 111.875 158.118 111.875 157.031 111.914ZM138.867 112.5C138.969 114.595 139.423 116.315 140.625 118.067C140.915 118.163 141.205 118.26 141.504 118.36C141.653 117.713 141.799 117.066 141.943 116.419C142.025 116.058 142.107 115.698 142.191 115.327C142.435 114.151 142.435 114.151 142.383 112.5C141.223 112.5 140.062 112.5 138.867 112.5ZM155.859 119.824C155.679 119.987 155.499 120.149 155.313 120.317C155.077 120.529 154.84 120.741 154.596 120.96C154.361 121.17 154.127 121.381 153.885 121.598C153.223 122.168 153.223 122.168 152.344 122.754C152.44 123.044 152.537 123.334 152.637 123.633C154.184 123.923 155.73 124.213 157.324 124.512C157.54 122.562 157.54 122.562 156.998 120.749C156.56 120.306 156.56 120.306 155.859 119.824ZM144.434 120.41C144.727 120.996 144.727 120.996 144.727 120.996L144.434 120.41ZM142.09 120.996C142.09 122.06 142.09 123.123 142.09 124.219C142.283 124.122 142.477 124.026 142.676 123.926C142.676 123.056 142.676 122.186 142.676 121.289C142.482 121.193 142.289 121.096 142.09 120.996ZM145.312 121.289C145.312 121.579 145.312 121.869 145.312 122.168C145.603 122.168 145.893 122.168 146.191 122.168C145.901 121.878 145.611 121.588 145.312 121.289ZM163.184 122.461C163.042 122.599 162.9 122.737 162.753 122.879C161.093 124.421 159.619 125.415 157.306 125.464C156.152 125.391 156.152 125.391 155.184 125.242C154.119 125.1 153.105 125.06 152.03 125.059C151.647 125.059 151.264 125.058 150.869 125.058C150.672 125.058 150.475 125.059 150.272 125.06C149.67 125.061 149.068 125.06 148.465 125.058C148.083 125.058 147.7 125.059 147.306 125.059C146.959 125.059 146.611 125.06 146.253 125.06C145.411 125.094 144.667 125.206 143.848 125.391C141.07 125.669 138.641 124.448 136.523 122.754C137.285 126.031 138.952 129.291 141.504 131.543C142.192 131.957 142.779 132.173 143.555 132.422C143.8 132.502 143.8 132.502 144.051 132.584C145.072 132.782 146.094 132.769 147.13 132.775C147.363 132.776 147.597 132.778 147.837 132.78C148.331 132.782 148.824 132.784 149.318 132.786C150.067 132.788 150.815 132.797 151.564 132.807C152.045 132.809 152.526 132.81 153.008 132.811C153.229 132.815 153.45 132.818 153.678 132.822C155.548 132.814 157.129 132.424 158.654 131.277C160.953 128.905 162.661 126.287 163.477 123.047C163.332 122.757 163.332 122.757 163.184 122.461ZM146.777 122.754C147.07 123.34 147.07 123.34 147.07 123.34L146.777 122.754ZM145.02 123.047C145.02 123.241 145.02 123.434 145.02 123.633C145.6 123.633 146.18 123.633 146.777 123.633C146.777 123.536 146.777 123.44 146.777 123.34C145.907 123.195 145.907 123.195 145.02 123.047ZM143.848 123.633C145.02 123.926 145.02 123.926 145.02 123.926L143.848 123.633ZM150.293 189.844C149.54 190.348 148.79 190.856 148.041 191.364C147.724 191.576 147.724 191.576 147.4 191.792C145.025 193.357 145.025 193.357 143.555 195.703C142.834 201.059 144.466 206.617 145.605 211.817C145.668 212.107 145.73 212.397 145.794 212.696C146.811 217.327 148.615 221.749 150.293 226.172C151.008 225.1 151.249 224.018 151.556 222.785C152.313 219.804 152.313 219.804 152.713 218.485C154.928 211.142 157.809 200.201 153.918 192.939C152.985 191.493 151.787 190.661 150.293 189.844Z" fill="black"/>
<path d="M171.31 45.2388C172.811 46.574 172.811 46.574 174.628 47.2163C174.909 47.1382 174.909 47.1382 175.195 47.0584C175.418 46.9965 175.641 46.9345 175.871 46.8707C177.2 46.3854 178.479 45.794 179.757 45.1885C181.144 44.6861 182.226 44.615 183.623 45.1141C183.863 45.2421 184.103 45.3701 184.351 45.502C184.594 45.6278 184.837 45.7535 185.088 45.8831C185.704 46.2659 186.158 46.6114 186.621 47.1683C186.79 48.0877 186.68 48.5241 186.237 49.3472C184.7 50.8128 182.706 51.9955 180.556 52.2023C179.088 52.0856 177.809 51.3375 176.514 50.6839C176.222 50.5461 175.931 50.4082 175.631 50.2662C173.988 49.461 172.636 48.5873 171.298 47.3394C169.791 45.9338 167.992 44.786 166.113 43.9456C166.355 44.1752 166.597 44.4049 166.846 44.6414C167.578 45.4105 167.578 45.4105 167.578 45.9964C166.165 46.0758 165.143 45.8206 163.824 45.3189C162.658 44.8804 161.504 44.4598 160.309 44.1104C159.082 43.7128 158.111 43.0613 157.072 42.3057C155.152 41.0478 153.11 41.1098 150.879 41.0159C150.502 41.0001 150.125 40.9842 149.737 40.9679C146.077 40.8862 143.888 41.6439 140.869 43.572C139.251 44.5655 137.799 44.9604 135.916 45.2537C135.116 45.4 134.602 45.6366 133.887 45.9964C133.5 45.9964 133.113 45.9964 132.715 45.9964C132.806 45.4471 132.806 45.4471 133.008 44.8245C133.298 44.6312 133.588 44.4378 133.887 44.2386C132.621 44.3982 131.88 44.8329 130.865 45.5936C130.607 45.7847 130.348 45.9758 130.082 46.1726C129.607 46.5503 129.137 46.9344 128.696 47.3505C127.082 48.863 125.361 49.7848 123.358 50.7022C123.055 50.8516 122.753 51.0009 122.441 51.1548C120.74 51.9423 119.561 52.3673 117.738 51.7848C115.746 50.9814 114.35 50.0942 113.086 48.3402C113.487 47.0288 114.015 46.4764 115.137 45.7034C115.288 45.5867 115.44 45.47 115.596 45.3498C116.305 44.8576 116.874 44.5341 117.751 44.527C119.442 44.845 121.036 45.5719 122.61 46.2538C123.83 46.7712 124.941 47.116 126.27 47.1683C126.905 46.8444 126.905 46.8444 127.386 46.2894C130.846 42.9614 135.281 40.5701 140.039 39.8441C140.285 39.8053 140.531 39.7665 140.785 39.7265C151.383 38.0961 162.701 38.2133 171.31 45.2388Z" fill="black"/>
<path d="M196.582 41.1075C198.332 43.4589 198.344 46.6997 198.047 49.512C197.215 54.9391 195.087 61.3582 190.937 65.1195C189.555 66.4982 189.188 68.0958 189.13 70.0015C189.184 72.0317 189.448 74.03 189.697 76.044C190.392 81.7134 190.178 86.9459 189.258 92.5785C188.379 92.8714 188.379 92.8714 187.5 92.5785C187.403 92.8685 187.307 93.1585 187.207 93.4574C187.014 93.4574 186.82 93.4574 186.621 93.4574C186.659 93.2021 186.697 92.9468 186.737 92.6837C187.014 90.2928 186.813 88.8076 185.793 86.6424C185.282 85.4489 185.126 84.4679 185.449 83.2035C185.849 82.3953 186.292 81.656 186.794 80.9078C187.602 79.6683 187.53 78.5178 187.508 77.0946C187.504 76.6288 187.501 76.163 187.497 75.6973C187.49 74.9664 187.482 74.2356 187.472 73.5047C187.432 70.3309 187.447 67.5662 188.708 64.5816C188.812 64.3335 188.915 64.0854 189.022 63.8298C189.139 63.5584 189.139 63.5584 189.258 63.2816C188.533 63.5716 188.533 63.5716 187.793 63.8675C187.793 62.8305 187.991 62.6288 188.617 61.835C188.77 61.639 188.923 61.443 189.08 61.2411C189.236 61.0443 189.391 60.8476 189.551 60.6449C189.841 60.2581 190.131 59.8714 190.43 59.473C189.463 59.473 188.496 59.473 187.5 59.473C188.051 58.3719 188.386 57.9643 189.294 57.2025C189.507 57.0227 189.719 56.843 189.938 56.6577C190.181 56.4561 190.181 56.4561 190.43 56.2503C189.753 56.057 189.076 55.8636 188.379 55.6644C188.77 54.7443 189.116 54.2927 189.972 53.7784C190.282 53.592 190.282 53.592 190.598 53.4019C191.379 52.9907 192.176 52.6654 192.993 52.3319C194.242 51.7755 194.958 51.3432 195.517 50.0808C196.262 47.8072 196.73 45.3872 196.014 43.0484C195.746 42.4965 195.746 42.4965 195.41 42.1878C193.329 42.082 192.314 42.7427 190.741 43.9823C188.62 45.6377 188.62 45.6377 187.006 45.4654C186.325 45.3132 186.325 45.3132 185.742 45.1175C185.452 45.0208 185.162 44.9242 184.863 44.8245C184.9 44.1654 184.9 44.1654 185.156 43.3597C186.527 42.2542 187.913 41.8078 189.606 41.3822C189.852 41.3195 190.098 41.2568 190.352 41.1923C192.473 40.6789 194.515 40.2032 196.582 41.1075Z" fill="black"/>
<path d="M178.711 73.2422C179.001 73.3872 179.001 73.3872 179.297 73.5352C179.2 74.1152 179.104 74.6953 179.004 75.293C178.792 75.3292 178.581 75.3655 178.363 75.4028C176.765 75.7495 176.765 75.7495 175.575 76.8082C175.351 77.182 175.351 77.182 175.122 77.5635C173.588 79.8647 171.445 81.1684 168.75 81.7383C167.736 81.8796 166.719 81.9969 165.698 82.0836C164.093 82.2353 164.093 82.2353 162.891 83.2031C162.491 84.2787 162.267 85.3981 162.018 86.5162C161.645 88.0417 161.249 88.9399 159.961 89.9414C158.99 90.1794 158.99 90.1794 158.203 90.2344C158.294 90.0278 158.385 89.8212 158.479 89.6084C158.798 88.7461 158.941 87.9765 159.064 87.0667C160.324 78.4725 160.324 78.4725 163.77 75.293C165.349 74.2014 166.837 73.4994 168.774 73.4962C168.999 73.4959 169.224 73.4955 169.456 73.4951C169.804 73.4968 169.804 73.4968 170.16 73.4985C170.389 73.4974 170.618 73.4963 170.854 73.4951C172.232 73.4974 173.538 73.6145 174.902 73.8281C175.359 73.8587 175.818 73.8789 176.276 73.8831C176.595 73.8893 176.595 73.8893 176.92 73.8956C177.563 73.8619 177.563 73.8619 178.167 73.5134C178.347 73.4239 178.526 73.3344 178.711 73.2422ZM169.043 74.707C169.032 74.8906 169.021 75.0741 169.01 75.2632C168.991 75.5026 168.971 75.7421 168.951 75.9888C168.934 76.2267 168.917 76.4646 168.9 76.7097C168.75 77.3438 168.75 77.3438 167.871 77.9297C166.072 78.0932 166.072 78.0932 165.143 77.4902C164.98 77.3452 164.817 77.2002 164.648 77.0508C164.455 77.0508 164.262 77.0508 164.062 77.0508C164.169 78.3984 164.169 78.3984 164.667 79.6326C165.942 80.4143 167.287 80.7037 168.75 80.4382C170.509 79.9038 171.794 78.5786 172.852 77.124C173.204 76.4512 173.204 76.4512 173.145 75.5859C171.151 74.8241 171.151 74.8241 169.043 74.707Z" fill="black"/>
<path d="M120.703 73.2422C121.402 73.4109 122.07 73.6003 122.754 73.8281C123.229 73.8555 123.706 73.8662 124.182 73.8647C124.429 73.8655 124.676 73.8663 124.931 73.867C125.676 73.8484 125.676 73.8484 126.359 73.6839C128.895 73.2061 132.49 73.0441 134.766 74.4141C137.731 76.6213 139.382 78.9828 140.039 82.6172C140.19 83.8304 140.311 85.0462 140.41 86.2648C140.43 86.4958 140.45 86.7268 140.471 86.9648C140.486 87.1714 140.502 87.3779 140.519 87.5907C140.598 88.2075 140.598 88.2075 140.946 88.7908C141.211 89.3555 141.211 89.3555 140.918 90.2344C139.476 89.4151 138.609 88.5848 137.988 87.0117C137.746 86.1143 137.534 85.2178 137.346 84.3075C137.083 83.4046 136.942 82.9458 136.23 82.3242C135.371 82.1719 134.587 82.082 133.722 82.0312C129.933 81.7111 127.197 80.586 124.691 77.6367C124.219 77.0508 124.219 77.0508 123.784 76.4111C123.116 75.6105 122.273 75.5613 121.289 75.293C120.703 74.4141 120.703 74.4141 120.703 73.2422ZM128.577 74.9634C128.377 75.017 128.176 75.0706 127.97 75.1259C127.42 75.2845 127.42 75.2845 126.855 75.5859C127.117 77.5634 128.418 78.7002 129.858 79.9805C131.19 80.4648 132.49 80.4578 133.887 80.2734C134.997 79.7475 135.479 79.4047 136.066 78.3325C136.309 77.6371 136.309 77.6371 135.938 77.0508C135.792 77.1414 135.647 77.2321 135.498 77.3254C134.054 77.9391 132.764 78.0153 131.25 77.6367C131.153 76.7666 131.057 75.8965 130.957 75C129.86 74.7257 129.587 74.683 128.577 74.9634Z" fill="black"/>
<path d="M130.957 173.437C132.845 173.772 134.34 174.321 135.645 175.781C136.685 177.636 136.953 179.244 136.817 181.347C135.477 182.093 134.226 182.141 132.715 182.226C132.21 182.255 132.21 182.255 131.694 182.285C129.658 182.348 127.909 182.384 126.27 181.054C125.318 179.981 124.872 178.978 124.756 177.564C124.87 176.146 125.627 175.048 126.493 173.963C127.764 172.944 129.412 173.291 130.957 173.437Z" fill="black"/>
<path d="M118.944 150.293C120.86 150.435 122.402 150.802 124.163 151.556C124.379 151.643 124.595 151.73 124.817 151.819C126.005 152.316 126.915 152.775 127.734 153.809C128.15 155.058 128.092 156.253 128.1 157.562C128.106 157.823 128.112 158.084 128.118 158.352C128.127 159.89 128.025 160.982 127.148 162.305C126.225 162.766 125.216 162.794 124.218 162.598C122.921 161.754 122.131 160.665 121.27 159.412C121.085 159.148 121.085 159.148 120.896 158.879C120.535 158.363 120.179 157.844 119.823 157.324C119.498 156.852 119.498 156.852 119.165 156.37C118.407 155.184 118.312 154.313 118.304 152.93C118.299 152.622 118.295 152.313 118.291 151.996C118.359 151.172 118.359 151.172 118.944 150.293Z" fill="black"/>
<path d="M180.762 130.664C181.629 131.781 181.751 132.636 181.748 134.028C181.747 134.393 181.747 134.759 181.747 135.135C181.742 135.515 181.738 135.894 181.733 136.286C181.734 136.847 181.734 136.847 181.736 137.419C181.711 141.838 181.711 141.838 181.055 143.555C180.131 144.465 179.027 144.777 177.778 145.038C176.661 145.02 176.661 145.02 176.002 144.452C175.832 144.156 175.663 143.86 175.489 143.555C175.38 143.391 175.271 143.227 175.159 143.058C173.985 141.108 173.999 139.022 174.521 136.846C175.265 134.615 176.324 132.624 178.126 131.085C179.121 130.609 179.676 130.447 180.762 130.664Z" fill="black"/>
<path d="M180.413 150.146C181.153 150.653 181.694 151.028 182.226 151.758C182.55 153.783 181.768 155.695 180.633 157.354C179.151 159.142 177.132 161.361 174.85 161.965C174.023 162.011 174.023 162.011 173.254 161.609C171.917 160.131 171.124 158.184 170.996 156.188C171.156 155.168 171.668 154.689 172.435 154.03C178.303 149.771 178.303 149.771 180.413 150.146Z" fill="black"/>
<path d="M120.997 130.664C122.873 131.73 124.355 133.848 124.969 135.899C125.206 137.042 125.165 138.198 125.172 139.361C125.178 139.613 125.184 139.865 125.19 140.125C125.2 141.878 124.968 143.419 124.219 145.019C124.026 145.212 123.833 145.406 123.633 145.605C121.751 145.605 120.352 144.777 118.946 143.554C118.366 142.626 118.293 141.928 118.313 140.843C118.316 140.544 118.32 140.245 118.323 139.937C118.329 139.626 118.335 139.315 118.342 138.995C118.377 136.908 118.355 134.892 118.075 132.82C118.066 132.023 118.219 131.619 118.653 130.957C119.52 130.523 120.031 130.536 120.997 130.664Z" fill="black"/>
<path d="M131.835 188.086C133.96 189.157 135.085 190.895 135.937 193.066C136.55 195.245 136.996 197.252 136.523 199.512C136.065 200.079 136.065 200.079 135.644 200.39C134.275 200.134 133.52 199.805 132.513 198.834C131.313 197.698 130.058 197.209 128.506 196.68C127.543 196.192 127.276 195.812 126.855 194.824C126.618 193.138 126.539 191.331 127.386 189.807C128.732 188.038 129.553 187.525 131.835 188.086Z" fill="black"/>
<path d="M170.324 173.658C170.701 173.65 171.078 173.643 171.466 173.635C172.829 173.755 173.75 174.2 174.847 174.994C175.382 175.754 175.452 176.32 175.488 177.247C174.977 179.036 174.077 180.004 172.558 181.055C170.678 182.018 168.651 181.974 166.589 181.952C166.345 181.951 166.102 181.95 165.851 181.948C165.255 181.945 164.658 181.94 164.062 181.934C163.22 180.38 162.913 179.283 163.183 177.539C163.953 175.832 165.382 174.894 166.992 174.024C168.076 173.636 169.182 173.671 170.324 173.658Z" fill="black"/>
<path d="M111.329 160.84C114.041 160.96 116.424 162.532 118.36 164.355C118.96 165.324 118.96 165.324 119.458 166.37C119.626 166.713 119.794 167.057 119.967 167.411C120.893 169.592 121.478 171.552 120.63 173.84C120.098 174.639 119.867 174.952 118.946 175.195C118.195 175.177 118.195 175.177 117.481 174.902C117.005 174.189 116.614 173.461 116.235 172.692C115.451 171.11 114.651 169.963 113.343 168.768C111.544 167.068 110.737 165.054 110.633 162.579C110.743 161.719 110.743 161.719 111.329 160.84Z" fill="black"/>
<path d="M188.38 160.254C189.282 162.208 189.523 163.966 189.259 166.113C188.564 167.533 187.141 168.272 185.842 169.117C184.671 169.991 184.193 170.908 183.71 172.266C182.947 174.228 182.947 174.228 181.934 174.902C181.202 175.067 181.202 175.067 180.469 174.902C179.711 174.288 179.363 173.791 179.184 172.822C179.035 169.656 180.242 165.968 182.36 163.583C183.871 162.186 186.293 160.254 188.38 160.254Z" fill="black"/>
<path d="M171.68 188.379C172.907 189.826 173.361 191.285 173.336 193.159C172.941 194.784 171.498 195.626 170.216 196.582C169.903 196.825 169.591 197.068 169.279 197.312C166.038 199.817 166.038 199.817 164.777 199.786C163.805 199.412 163.63 198.974 163.184 198.047C162.977 195.422 163.721 192.415 165.327 190.301C167.113 188.598 169.223 187.546 171.68 188.379Z" fill="black"/>
<path d="M135.773 207.056C137.943 207.817 139.34 209.802 140.333 211.816C141.019 213.507 141.471 214.994 140.919 216.797C140.091 217.577 139.521 217.797 138.392 217.786C136.514 217.725 134.679 217.391 133.155 216.248C131.968 214.566 131.936 212.975 132.266 211C132.56 209.705 132.835 208.582 133.814 207.642C134.766 207.129 134.766 207.129 135.773 207.056Z" fill="black"/>
<path d="M127.852 123.314C128.93 123.765 129.366 124.537 129.95 125.5C130.059 125.668 130.168 125.835 130.281 126.007C132.024 128.791 132.703 131.937 133.374 135.113C133.452 135.476 133.531 135.839 133.612 136.213C133.803 137.097 133.992 137.982 134.18 138.867C132.052 138.608 130.432 138.05 128.668 136.835C127.647 135.404 127.278 133.819 126.855 132.129C126.788 131.865 126.722 131.601 126.653 131.329C126.3 129.696 126.204 128.081 126.178 126.416C126.173 126.212 126.167 126.008 126.162 125.799C126.163 124.963 126.191 124.351 126.623 123.623C127.148 123.34 127.148 123.34 127.852 123.314Z" fill="black"/>
<path d="M172.266 122.754C172.889 123.029 172.889 123.029 173.438 123.34C173.741 132.019 173.741 132.019 171.973 135.059C171.844 135.294 171.714 135.529 171.581 135.772C171.246 136.342 170.91 136.877 170.509 137.402C170.39 137.567 170.271 137.731 170.148 137.9C169.348 138.488 168.645 138.365 167.67 138.336C167.152 138.324 167.152 138.324 166.623 138.312C166.359 138.302 166.094 138.292 165.821 138.281C165.528 137.402 165.528 137.402 165.779 136.776C165.972 136.406 165.972 136.406 166.169 136.029C166.814 134.687 167.22 133.376 167.542 131.927C167.938 130.2 168.467 128.592 169.172 126.965C169.293 126.679 169.293 126.679 169.417 126.388C170.041 125.002 170.858 123.458 172.266 122.754Z" fill="black"/>
<path d="M165.527 207.129C166.472 208.118 166.805 209.328 167.194 210.608C167.26 210.811 167.326 211.015 167.393 211.225C167.765 212.423 168.005 213.478 167.871 214.746C167.011 215.827 166.257 216.408 164.942 216.797C163.982 216.865 163.028 216.852 162.067 216.833C161.808 216.831 161.549 216.828 161.282 216.825C160.647 216.818 160.011 216.808 159.375 216.797C158.657 214.642 158.984 212.882 159.979 210.864C161.102 208.695 162.779 206.235 165.527 207.129Z" fill="black"/>
<path d="M184.351 45.5022C185.241 45.9624 185.976 46.3926 186.621 47.1684C186.79 48.0879 186.68 48.5243 186.237 49.3474C184.703 50.8098 182.705 51.9983 180.56 52.2063C179.072 52.0802 177.769 51.2989 176.459 50.6291C176.16 50.4839 175.862 50.3387 175.554 50.1891C172.607 48.7299 172.607 48.7299 171.68 47.7544C171.68 47.3676 171.68 46.9809 171.68 46.5825C173.371 46.8578 173.371 46.8578 174.145 47.0631C175.04 47.1876 175.456 47.0386 176.276 46.674C176.656 46.5115 176.656 46.5115 177.045 46.3456C177.305 46.2304 177.564 46.1152 177.832 45.9965C180.233 44.9355 181.855 44.312 184.351 45.5022Z" fill="black"/>
<path d="M122.596 46.2545C124.055 46.8481 125.286 47.1417 126.855 47.1683C127.049 47.0717 127.242 46.975 127.441 46.8754C127.441 47.0687 127.441 47.2621 127.441 47.4613C127.635 47.4613 127.828 47.4613 128.027 47.4613C127.472 49.0005 126.208 49.3477 124.811 50.0145C124.464 50.175 124.118 50.3355 123.761 50.5009C123.422 50.6682 123.084 50.8355 122.735 51.0078C120.952 51.84 119.647 52.4343 117.724 51.7919C117.458 51.6785 117.458 51.6785 117.188 51.5629C116.929 51.4586 116.671 51.3544 116.405 51.247C114.982 50.4448 114.044 49.6685 113.086 48.3402C113.487 47.0289 114.015 46.4765 115.137 45.7035C115.288 45.5868 115.44 45.4701 115.596 45.3499C117.924 43.7346 120.258 45.2792 122.596 46.2545Z" fill="black"/>
<path d="M127.148 215.332C129.625 216.624 129.625 216.624 129.962 217.608C130.095 218.363 130.115 219.073 130.116 219.84C130.117 220.288 130.117 220.288 130.117 220.746C130.116 221.056 130.115 221.366 130.114 221.686C130.116 222.156 130.116 222.156 130.117 222.636C130.117 222.934 130.117 223.232 130.116 223.538C130.116 223.812 130.115 224.085 130.115 224.367C130.077 225 130.077 225 129.784 225.293C127.926 225.277 126.026 224.965 124.61 223.679C123.465 222.425 122.42 221.076 122.488 219.301C122.756 217.575 123.265 216.547 124.511 215.332C125.42 214.877 126.21 215.043 127.148 215.332Z" fill="black"/>
<path d="M175.488 214.746C176.884 216.018 177.44 217.291 177.589 219.199C177.568 220.233 177.436 220.933 176.815 221.774C175.216 223.304 173.083 224.365 170.849 224.442C170.64 224.433 170.43 224.423 170.214 224.414C169.839 222.955 169.846 221.497 169.83 220.001C169.817 219.606 169.817 219.606 169.804 219.204C169.785 217.279 169.785 217.279 170.443 216.363C172.032 215.275 173.495 214.37 175.488 214.746Z" fill="black"/>
<path d="M118.64 182.279C119.818 182.752 120.222 184.048 120.703 185.156C120.941 186.163 120.941 186.163 120.996 187.207C121.018 187.562 121.018 187.562 121.041 187.923C121.099 189.474 121.013 190.567 120.117 191.895C119.059 192.6 118.732 192.643 117.48 192.481C116.015 191.852 114.84 191.207 113.965 189.844C113.434 188.25 113.544 186.703 114.163 185.155C114.966 183.945 117.104 182.138 118.64 182.279Z" fill="black"/>
<path d="M109.058 130.334C111.187 130.973 112.175 132.524 113.214 134.417C113.959 135.999 114.308 137.423 113.965 139.16C113.379 140.039 113.379 140.039 112.784 140.166C110.834 140.169 109.25 139.779 107.52 138.867C106.544 137.891 106.654 136.686 106.641 135.351C106.923 131.67 106.923 131.67 107.629 130.692C108.105 130.371 108.105 130.371 109.058 130.334Z" fill="black"/>
<path d="M191.309 130.664C192.513 131.616 192.962 132.428 193.36 133.887C193.458 134.84 193.458 134.84 193.469 135.81C193.478 136.13 193.486 136.451 193.495 136.781C193.33 137.897 192.979 138.371 192.188 139.161C191.22 139.483 190.46 139.513 189.441 139.527C189.113 139.534 188.784 139.542 188.445 139.55C187.389 139.442 186.854 139.247 186.035 138.575C185.53 137.356 185.599 136.11 185.983 134.863C186.946 132.754 188.724 130.304 191.309 130.664Z" fill="black"/>
<path d="M181.641 181.934C182.542 182.026 182.83 182.244 183.483 182.898C183.709 183.178 183.935 183.458 184.167 183.746C184.509 184.16 184.509 184.16 184.856 184.583C185.935 186.159 186.195 187.525 185.957 189.389C185.573 190.724 184.805 191.666 183.691 192.48C182.48 192.632 181.809 192.161 180.872 191.455C179.734 190.411 179.21 189.233 178.711 187.793C178.614 187.539 178.518 187.285 178.418 187.024C178.418 185.015 180.364 183.314 181.641 181.934Z" fill="black"/>
<path d="M130.957 142.383C132.061 142.557 132.673 143.047 133.521 143.756C134.44 144.518 135.36 145.237 136.341 145.917C137.407 146.733 138.221 147.503 138.575 148.828C138.77 151.093 138.684 153.116 137.989 155.273C134.961 153.41 133.311 151.617 132.129 148.242C131.965 147.832 131.798 147.424 131.63 147.015C131.461 146.594 131.291 146.173 131.122 145.752C131.039 145.552 130.956 145.352 130.87 145.146C130.316 143.717 130.316 143.717 130.617 142.831C130.73 142.683 130.842 142.535 130.957 142.383Z" fill="black"/>
<path d="M122.057 199.071C122.964 199.263 123.7 199.659 124.512 200.098C124.761 206.325 124.761 206.325 123.087 208.388C122.311 209.007 121.679 209.092 120.693 209.033C119.879 208.826 119.41 208.385 118.938 207.702C117.854 205.522 117.909 203.26 118.653 200.976C119.391 199.379 120.381 199.026 122.057 199.071Z" fill="black"/>
<path d="M137.11 223.536C139.704 223.309 139.704 223.309 140.882 224.103C142.483 226.41 143.296 228.919 142.969 231.739C142.384 232.325 142.384 232.325 141.758 232.402C140.221 232.393 138.831 232.367 137.403 231.739C135.829 229.835 136.008 227.947 136.231 225.586C136.446 224.791 136.692 224.249 137.11 223.536Z" fill="black"/>
<path d="M163.185 235.546C163.257 236.339 163.257 236.339 163.206 237.334C163.19 237.689 163.174 238.044 163.158 238.41C163.136 238.782 163.115 239.154 163.093 239.538C163.066 240.1 163.066 240.1 163.039 240.673C162.994 241.601 162.944 242.529 162.892 243.457C161.527 243.26 160.673 242.965 159.522 242.193C159.244 242.008 158.967 241.824 158.68 241.634C158.426 241.462 158.173 241.29 157.911 241.113C157.569 240.893 157.228 240.673 156.886 240.454C155.365 239.389 155.365 239.389 155 238.073C154.981 237.011 154.981 237.011 155.441 236.237C156.345 235.36 156.909 235.295 158.149 235.162C158.495 235.121 158.842 235.08 159.199 235.037C162.104 234.826 162.104 234.826 163.185 235.546Z" fill="black"/>
<path d="M162.306 222.656C163.433 223.784 163.525 225.037 163.551 226.575C163.507 228.912 163.507 228.912 162.599 229.98C160.886 230.798 159.196 230.963 157.325 230.859C156.613 229.76 156.632 228.648 156.629 227.38C156.622 227.177 156.615 226.973 156.608 226.764C156.599 225.248 156.952 224.401 157.911 223.242C159.32 222.303 160.681 222.187 162.306 222.656Z" fill="black"/>
<path d="M179.589 199.218C180.711 200.116 181.529 201.048 181.728 202.497C181.738 204.401 181.507 206.24 180.761 208.007C179.666 208.737 179.128 208.728 177.831 208.593C176.734 208.02 176.274 207.374 175.836 206.25C175.3 204.403 175.009 202.209 175.902 200.456C176.866 199.105 177.985 199.021 179.589 199.218Z" fill="black"/>
<path d="M169.628 143.262C169.18 146.751 167.048 149.56 164.996 152.307C164.799 152.57 164.603 152.834 164.4 153.105C163.333 154.502 163.333 154.502 162.89 154.98C162.696 154.98 162.503 154.98 162.304 154.98C162.105 154.383 161.911 153.785 161.718 153.186C161.609 152.853 161.5 152.52 161.388 152.177C161.069 150.923 160.896 149.942 161.434 148.738C163.301 146.032 166.061 143.262 169.628 143.262Z" fill="black"/>
<path d="M191.016 118.066C191.164 120.627 190.731 123.246 189.258 125.391C187.956 126.22 186.357 126.085 184.864 125.977C183.985 125.684 183.985 125.684 183.637 125.043C183.248 123.698 183.203 122.852 183.838 121.582C185.716 119.329 188.024 117.883 191.016 118.066Z" fill="black"/>
<path d="M136.816 163.184C137.768 163.678 138.402 164.035 138.914 164.991C139.225 166.039 139.227 166.962 139.215 168.054C139.213 168.439 139.211 168.823 139.209 169.219C139.16 170.215 139.16 170.215 138.867 171.094C136.747 171.243 135.532 170.279 133.887 169.043C131.683 167.12 131.683 167.12 131.25 165.82C132.691 164.2 134.535 162.787 136.816 163.184Z" fill="black"/>
<path d="M109.569 118.066C111.692 118.157 113.186 119.11 114.719 120.552C115.791 121.753 116.601 123.112 116.601 124.75C116.308 125.391 116.308 125.391 115.722 125.775C114.192 126.126 112.801 126.314 111.401 125.519C109.942 123.938 108.945 122.625 108.929 120.41C108.924 120.156 108.92 119.903 108.916 119.641C108.984 118.945 108.984 118.945 109.569 118.066Z" fill="black"/>
<path d="M167.566 164.134C168.163 164.355 168.163 164.355 168.456 164.648C168.624 165.673 168.629 166.399 168.101 167.314C166.837 168.899 165.442 169.737 163.476 170.214C162.664 170.293 161.95 170.275 161.132 170.214C160.942 165.538 160.942 165.538 162.524 163.787C164.21 162.991 165.887 163.609 167.566 164.134Z" fill="black"/>
<path d="M182.519 113.379C183.016 115.578 183.136 118.022 182.226 120.117C181.624 120.992 181.019 121.81 180.176 122.461C179.436 122.592 179.436 122.592 178.711 122.461C178.183 122.01 178.183 122.01 177.74 121.399C177.516 121.103 177.516 121.103 177.286 120.801C176.85 119.906 176.836 119.347 176.953 118.359C177.783 116.501 178.871 114.666 180.469 113.379C181.387 113.073 181.638 113.105 182.519 113.379Z" fill="black"/>
<path d="M117.773 113.379C119.588 113.491 120.675 114.768 121.874 116.016C122.602 117.043 122.819 117.716 122.717 118.945C122.477 120.319 121.99 121.466 120.995 122.461C120.3 122.443 120.3 122.443 119.531 122.168C117.618 120.115 117.043 117.273 117.088 114.529C117.187 113.965 117.187 113.965 117.773 113.379Z" fill="black"/>
<path d="M120.703 73.2422C121.402 73.4109 122.07 73.6003 122.754 73.8281C123.229 73.8555 123.706 73.8662 124.182 73.8647C124.429 73.8655 124.676 73.8663 124.931 73.867C125.674 73.8495 125.674 73.8495 126.348 73.6805C127.478 73.4753 128.585 73.5044 129.73 73.5168C130.077 73.5188 130.077 73.5188 130.43 73.5209C130.996 73.5243 131.563 73.5295 132.129 73.5352C131.839 73.7285 131.549 73.9219 131.25 74.1211C131.25 74.4111 131.25 74.7012 131.25 75C131.031 75.0177 130.812 75.0355 130.586 75.0538C130.153 75.0906 130.153 75.0906 129.712 75.1282C129.284 75.1639 129.284 75.1639 128.847 75.2003C128.155 75.2785 127.524 75.3966 126.855 75.5859C127.463 77.4463 128.398 78.6496 130.078 79.6875C131.048 79.9994 131.995 80.1717 133.008 80.2734C133.008 80.3701 133.008 80.4668 133.008 80.5664C132.675 80.6027 132.343 80.6389 132.001 80.6763C131.656 80.7367 131.312 80.7971 130.957 80.8594C130.86 81.0527 130.764 81.2461 130.664 81.4453C127.584 80.5417 125.596 79.0763 123.784 76.4111C123.116 75.6105 122.273 75.5613 121.289 75.293C120.703 74.4141 120.703 74.4141 120.703 73.2422Z" fill="black"/>
<path d="M109.753 41.2537C110.063 41.3263 110.063 41.3263 110.378 41.4004C114.238 42.357 114.238 42.357 114.99 43.3594C115.137 43.9454 115.137 43.9454 115.137 44.8243C113.549 45.2977 112.369 45.6135 110.742 45.1173C109.884 44.5587 109.074 43.9624 108.267 43.3331C106.875 42.2906 106.053 42.12 104.297 42.1876C103.814 43.2611 103.613 44.1833 103.528 45.3553C103.506 45.6412 103.484 45.9271 103.461 46.2216C103.447 46.4372 103.433 46.6529 103.418 46.8751C103.321 46.8751 103.225 46.8751 103.125 46.8751C103.028 46.0049 102.932 45.1348 102.832 44.2383C102.639 44.4317 102.445 44.6251 102.246 44.8243C102.359 43.1622 102.487 42.2394 103.711 41.0157C105.528 40.1074 107.875 40.8119 109.753 41.2537Z" fill="black"/>
<path d="M129.198 232.324C131.298 232.42 132.939 233.395 134.765 234.375C134.657 236.235 134.657 236.235 133.794 237.122C132.643 237.818 131.67 237.94 130.334 237.964C130.079 237.971 129.824 237.979 129.562 237.987C129.345 237.955 129.129 237.923 128.905 237.891C128.113 236.703 128.16 235.77 128.319 234.375C128.552 233.637 128.845 233.017 129.198 232.324Z" fill="black"/>
<path d="M118.065 86.4256C118.529 87.1614 118.529 87.1614 118.889 88.0918C119.012 88.3951 119.135 88.6983 119.261 89.0108C119.539 89.9722 119.622 90.7045 119.53 91.699C118.963 92.5413 118.963 92.5413 118.065 93.1638C117.168 93.314 116.325 93.3311 115.429 93.1638C114.467 92.2024 114.532 90.9563 114.477 89.6482C114.494 88.4903 114.778 87.6939 115.429 86.7185C116.344 86.0166 116.994 86.0502 118.065 86.4256Z" fill="black"/>
<path d="M181.934 86.1328C183.786 86.2396 183.786 86.2396 184.634 87.0323C185.306 88.1349 185.285 88.8608 185.248 90.1428C185.245 90.3409 185.243 90.539 185.24 90.7431C185.207 92.1852 185.207 92.1852 184.864 92.8711C182.039 93.0372 182.039 93.0372 180.762 91.9922C180.14 91.0588 180.102 90.7545 180.286 89.6828C180.658 88.4239 181.308 87.2811 181.934 86.1328Z" fill="black"/>
<path d="M169.354 231.628C169.66 231.626 169.965 231.623 170.28 231.621C171.094 231.738 171.094 231.738 171.637 232.094C172.082 232.787 172.071 233.245 172.046 234.063C172.039 234.439 172.039 234.439 172.032 234.822C171.978 235.487 171.864 236.078 171.68 236.718C169.675 236.884 168.262 236.828 166.57 235.688C166.042 235.186 165.774 234.767 165.527 234.082C166.333 232.247 167.387 231.613 169.354 231.628Z" fill="black"/>
<path d="M178.711 73.2422C178.904 73.3389 179.098 73.4355 179.297 73.5352C179.2 74.1152 179.104 74.6953 179.004 75.293C178.792 75.3292 178.581 75.3655 178.363 75.4028C176.675 75.7779 175.919 76.2032 174.957 77.6733C174.78 77.94 174.603 78.2066 174.421 78.4813C174.29 78.686 174.158 78.8907 174.023 79.1016C173.145 78.8086 173.145 78.8086 172.559 77.9297C172.559 77.0508 172.559 77.0508 173.145 75.5859C171.791 75.2959 170.438 75.0059 169.043 74.707C169.043 75.5771 169.043 76.4473 169.043 77.3438C168.946 77.3438 168.85 77.3438 168.75 77.3438C168.75 76.4736 168.75 75.6035 168.75 74.707C168.557 74.6104 168.363 74.5137 168.164 74.4141C168.261 74.3174 168.357 74.2207 168.457 74.1211C168.167 73.9277 167.877 73.7344 167.578 73.5352C168.414 73.5272 169.25 73.5214 170.087 73.5168C170.321 73.5144 170.555 73.5119 170.797 73.5094C172.197 73.5037 173.516 73.6083 174.902 73.8281C175.359 73.8587 175.818 73.8789 176.276 73.8831C176.595 73.8893 176.595 73.8893 176.92 73.8956C177.563 73.8619 177.563 73.8619 178.167 73.5134C178.347 73.4239 178.526 73.3344 178.711 73.2422Z" fill="black"/>
<path d="M135.644 47.4611C135.864 47.9567 135.864 47.9567 135.937 48.633C134.739 50.4031 132.769 52.6732 130.602 53.1786C130.039 53.2536 129.472 53.2907 128.906 53.3205C128.898 52.8506 128.892 52.3806 128.887 51.9106C128.884 51.6489 128.88 51.3872 128.877 51.1175C128.906 50.3908 128.906 50.3908 129.199 49.5119C131.116 48.4112 133.401 47.3292 135.644 47.4611Z" fill="black"/>
<path d="M164.355 47.4609C166.674 47.5501 169.136 48.4326 170.801 50.0977C170.922 50.8598 170.922 50.8598 170.984 51.7456C171.006 52.0394 171.028 52.3332 171.05 52.636C171.072 52.9747 171.072 52.9747 171.094 53.3203C169.562 53.4662 168.732 53.0965 167.578 52.1484C164.848 49.8593 164.848 49.8593 164.062 48.6328C164.154 47.9736 164.154 47.9736 164.355 47.4609Z" fill="black"/>
<path d="M162.598 51.5625C164.45 51.5625 165.691 52.7087 166.992 53.9062C167.892 54.9463 168.032 55.7594 168.164 57.1289C167.71 57.4734 167.71 57.4734 166.992 57.7148C166.239 57.4764 165.594 57.226 164.886 56.8909C164.605 56.7648 164.605 56.7648 164.317 56.6362C162.951 56.0173 162.951 56.0173 162.598 55.6641C162.521 55.031 162.463 54.3956 162.415 53.7598C162.387 53.4123 162.359 53.0649 162.33 52.7069C162.322 52.4259 162.313 52.145 162.305 51.8555C162.401 51.7588 162.498 51.6621 162.598 51.5625Z" fill="black"/>
<path d="M137.695 51.5624C137.817 53.0037 137.818 54.2709 137.402 55.6639C136.264 56.6824 135.056 57.2843 133.594 57.7147C132.934 57.6371 132.596 57.5963 132.129 57.1288C132.004 56.0566 132.082 55.4641 132.568 54.4921C133.949 52.835 135.49 51.5043 137.695 51.5624Z" fill="black"/>
<path d="M124.511 62.4023C125.133 62.5122 125.133 62.5122 125.683 62.6953C125.92 64.2793 125.378 65.0646 124.481 66.2888C123.925 66.7969 123.925 66.7969 123.064 67.028C121.801 67.5277 121.482 68.297 120.885 69.4702C120.782 69.6632 120.678 69.8562 120.571 70.055C120.317 70.5288 120.069 71.0063 119.823 71.4844C119.533 71.4844 119.243 71.4844 118.944 71.4844C118.482 70.2705 118.165 69.2675 118.359 67.9688C119.16 66.8569 119.854 66.4624 121.142 66.1377C122.017 65.8886 122.375 65.7365 122.935 65.0059C123.184 64.5418 123.421 64.0703 123.64 63.5914C123.925 62.9883 123.925 62.9883 124.511 62.4023Z" fill="black"/>
<path d="M174.316 62.6958C174.957 62.5493 174.957 62.5493 175.781 62.6958C176.375 63.4193 176.8 64.22 177.246 65.0396C177.719 65.9572 177.719 65.9572 178.425 66.081C178.652 66.1119 178.88 66.1429 179.114 66.1748C180.068 66.3673 180.45 66.4899 181.238 67.1086C181.807 68.3242 181.643 69.32 181.348 70.606C181.251 70.7993 181.154 70.9927 181.055 71.1919C180.531 71.1438 180.531 71.1438 179.883 70.8989C179.382 70.1963 179.382 70.1963 178.894 69.3242C178.071 67.9572 177.538 67.4513 176.074 66.7974C175.117 65.7682 174.229 64.7057 174.023 63.2817C174.12 63.0884 174.217 62.895 174.316 62.6958Z" fill="black"/>
<path d="M179.59 60.9375C180.071 61.3488 180.553 61.7606 181.032 62.1746C181.44 62.5235 181.852 62.8676 182.268 63.2069C183.449 64.1892 184.372 64.998 184.863 66.5039C184.772 67.3462 184.772 67.3462 184.57 67.9688C183.783 68.0603 183.783 68.0603 182.812 67.9688C182.08 67.3645 182.08 67.3645 181.348 66.5039C181.195 66.3551 181.043 66.2063 180.886 66.053C179.611 64.7493 179.031 63.3674 179.004 61.5234C179.197 61.3301 179.391 61.1367 179.59 60.9375Z" fill="black"/>
<path d="M120.411 61.2305C120.847 62.5386 120.626 63.4767 120.118 64.7461C119.359 65.947 118.567 67.0486 117.481 67.9688C116.367 68.2068 116.367 68.2068 115.43 68.2617C115.12 67.2211 114.98 66.586 115.406 65.5701C116.358 64.0342 118.448 61.2305 120.411 61.2305Z" fill="black"/>
<path d="M127.954 55.9204C128.188 55.9257 128.422 55.9309 128.664 55.9364C128.84 55.9432 129.017 55.95 129.199 55.957C129.457 56.6781 129.521 57.0391 129.285 57.7789C129.178 57.9994 129.071 58.22 128.961 58.4472C128.857 58.6678 128.752 58.8883 128.644 59.1156C128.341 59.7231 128.038 60.3303 127.734 60.9375C126.574 60.9375 125.414 60.9375 124.219 60.9375C124.363 59.2894 124.6 58.0064 125.391 56.5429C126.258 55.9736 126.929 55.8902 127.954 55.9204Z" fill="black"/>
<path d="M134.473 63.8672C135.151 64.4531 135.151 64.4531 135.645 65.0391C135.505 65.2018 135.365 65.3646 135.221 65.5323C134.12 67.1769 134.411 69.3841 134.748 71.2463C134.848 71.7172 134.95 72.1876 135.059 72.6562C133.179 71.2141 131.931 69.897 131.58 67.4927C131.485 66.1558 131.725 65.305 132.514 64.2151C133.221 63.7175 133.627 63.7227 134.473 63.8672Z" fill="black"/>
<path d="M172.008 55.6833C173.156 55.929 173.86 56.0986 174.738 56.9089C175.498 58.2476 175.872 59.3919 175.781 60.9373C175.36 60.9452 174.939 60.9509 174.518 60.9556C174.166 60.9607 174.166 60.9607 173.807 60.9659C173.145 60.9373 173.145 60.9373 172.266 60.6443C171.87 60.0263 171.87 60.0263 171.497 59.2527C171.372 59.0004 171.247 58.7481 171.119 58.4882C170.811 57.7386 170.637 57.0478 170.508 56.2498C171.387 55.6638 171.387 55.6638 172.008 55.6833Z" fill="black"/>
<path d="M186.914 98.7305C192.816 100.043 198.478 101.593 203.906 104.297C202.8 104.708 202.097 104.461 200.998 104.093C200.653 103.981 200.308 103.868 199.952 103.752C199.678 103.661 199.678 103.661 199.399 103.568C196.46 102.595 193.516 101.718 190.485 101.074C190.216 101.017 189.948 100.96 189.671 100.901C188.171 100.595 186.678 100.365 185.156 100.195C185.156 100.099 185.156 100.002 185.156 99.9023C185.64 99.8057 186.123 99.709 186.621 99.6094C186.718 99.3193 186.814 99.0293 186.914 98.7305Z" fill="black"/>
<path d="M166.589 63.8672C167.285 64.1602 167.285 64.1602 167.816 64.7644C168.524 66.5165 168.256 68.2252 167.636 69.9646C167 71.1256 165.993 71.8797 164.941 72.6562C164.941 71.7773 164.941 71.7773 165.234 71.1365C165.955 69.1088 165.492 67.1112 164.612 65.2039C164.527 65.0528 164.443 64.9017 164.355 64.7461C165.137 64.1879 165.616 63.8672 166.589 63.8672Z" fill="black"/>
<path d="M168.75 73.8277C168.75 74.1177 168.75 74.4078 168.75 74.7066C168.765 75.0561 168.765 75.0561 168.781 75.4127C168.789 75.6691 168.797 75.9256 168.805 76.1898C168.82 76.5755 168.82 76.5755 168.836 76.9691C168.793 77.2994 168.793 77.2994 168.75 77.6363C167.645 78.373 167.133 78.3535 165.82 78.2222C164.812 77.7919 163.963 77.2434 163.184 76.4644C164.777 74.356 166.103 73.6908 168.75 73.8277Z" fill="black"/>
<path d="M151.172 42.1871C151.923 42.5716 151.923 42.5716 152.344 43.066C152.344 43.3561 152.344 43.6461 152.344 43.9449C151.764 44.1383 151.184 44.3316 150.586 44.5309C150.688 44.711 150.791 44.8911 150.896 45.0767C151.096 45.4319 151.096 45.4319 151.3 45.7943C151.433 46.0288 151.565 46.2633 151.702 46.505C152.051 47.1676 152.051 47.1676 152.344 48.0465C150.894 48.0465 149.443 48.0465 147.949 48.0465C148.462 46.7637 149.013 45.7113 149.707 44.5309C149.03 44.2408 148.354 43.9508 147.656 43.6519C147.766 43.0843 147.766 43.0843 147.949 42.4801C148.957 41.9762 150.068 42.0753 151.172 42.1871Z" fill="black"/>
<path d="M131.836 241.993C132.613 242.493 133.25 243.082 133.887 243.75C133.69 244.303 133.69 244.303 133.301 244.922C131.719 245.638 130.008 246.028 128.32 245.508C128.127 245.412 127.934 245.315 127.734 245.215C127.914 243.313 127.914 243.313 128.448 242.615C129.502 241.856 130.578 241.742 131.836 241.993Z" fill="black"/>
<path d="M150.11 51.5077C150.53 51.5015 150.53 51.5015 150.959 51.4951C151.789 51.5653 152.243 51.685 152.93 52.1486C153.522 52.9243 154.102 53.7893 154.102 54.7853C153.825 54.7218 153.825 54.7218 153.543 54.6571C150.924 54.0891 148.795 54.1104 146.191 54.7853C146.446 53.4648 147.053 52.839 147.949 51.8556C148.703 51.4787 149.268 51.5133 150.11 51.5077Z" fill="black"/>
<path d="M169.337 240.345C170.522 240.714 171.401 241.42 172.266 242.285C172.266 242.672 172.266 243.058 172.266 243.457C170.443 243.943 168.557 244.033 166.809 243.31C166.58 243.165 166.35 243.02 166.114 242.871C166.022 242.212 166.022 242.212 166.114 241.406C167.083 240.254 167.859 240.074 169.337 240.345Z" fill="black"/>
<path d="M182.519 73.5352C183.204 73.6193 183.888 73.7166 184.57 73.8281C185.872 78.5482 185.872 78.5482 185.155 79.9805C184.35 80.0171 184.35 80.0171 183.398 79.6875C182.231 77.9308 181.972 75.8901 182.226 73.8281C182.322 73.7314 182.419 73.6348 182.519 73.5352Z" fill="black"/>
<path d="M116.931 73.608C117.48 73.8277 117.48 73.8277 117.773 74.4137C117.974 76.2745 117.666 77.7017 116.894 79.3941C116.308 79.9801 116.308 79.9801 115.539 80.0167C115.309 80.0046 115.08 79.9925 114.843 79.9801C114.153 78.5998 114.733 76.4408 115.1 74.9813C115.475 74.0022 115.807 73.4758 116.931 73.608Z" fill="black"/>
<path d="M177.869 85.6018C178.05 85.6803 178.231 85.7589 178.418 85.8398C178.946 87.4237 179.085 89.3497 178.425 90.9107C177.916 91.6614 177.493 92.2083 176.61 92.4831C176.433 92.5145 176.256 92.5458 176.074 92.5781C176.084 92.3168 176.095 92.0554 176.105 91.7862C176.113 91.4433 176.121 91.1003 176.129 90.747C176.139 90.4072 176.15 90.0673 176.16 89.7171C176.068 88.7043 175.882 88.3255 175.195 87.5976C176.791 85.5067 176.791 85.5067 177.869 85.6018Z" fill="black"/>
<path d="M121.581 85.8398C122.727 85.918 123.216 86.0132 124.053 86.8286C124.204 87.0824 124.355 87.3362 124.511 87.5977C124.218 88.4766 124.218 88.4766 123.632 89.0625C123.626 89.8471 123.626 89.8471 123.742 90.7104C123.774 91.0043 123.807 91.2981 123.84 91.6008C123.868 91.8266 123.896 92.0525 123.925 92.2852C122.542 92.0815 122.542 92.0815 121.801 91.2781C121.104 90.2575 120.949 89.7374 120.94 88.5132C120.936 88.2602 120.932 88.0071 120.928 87.7464C120.999 86.9754 121.192 86.502 121.581 85.8398Z" fill="black"/>
<path d="M172.778 66.9069C174.081 67.5582 175.022 68.4798 175.781 69.7268C175.838 70.5359 175.838 70.5359 175.781 71.1916C174.85 71.4928 174.267 71.4621 173.328 71.2099C172.264 70.948 171.316 70.8422 170.215 70.8986C170.432 70.5995 170.432 70.5995 170.654 70.2944C171.176 69.4345 171.176 69.4345 171.094 68.3535C171.094 68.0332 171.094 67.713 171.094 67.383C171.973 66.7971 171.973 66.7971 172.778 66.9069Z" fill="black"/>
<path d="M111.621 99.6091C111.524 99.7057 111.428 99.8024 111.328 99.902C111.521 100.095 111.715 100.289 111.914 100.488C111.737 100.527 111.559 100.567 111.377 100.607C106.19 101.774 101.149 103.251 96.0938 104.883C96.0938 104.689 96.0938 104.496 96.0938 104.297C98.739 102.92 101.42 101.887 104.26 100.982C104.57 100.884 104.88 100.785 105.199 100.683C110.131 99.1458 110.131 99.1458 111.621 99.6091Z" fill="black"/>
<path d="M128.32 67.0901C128.613 67.969 128.613 67.969 128.741 68.6648C128.912 69.4584 129.183 70.15 129.492 70.8986C129.277 70.9164 129.061 70.9341 128.839 70.9524C128.553 70.977 128.267 71.0015 127.972 71.0268C127.69 71.0506 127.408 71.0744 127.118 71.0989C126.271 71.1732 126.271 71.1732 125.467 71.385C125.139 71.4343 125.139 71.4343 124.805 71.4846C124.611 71.2912 124.418 71.0979 124.219 70.8986C124.259 69.4823 125.08 68.4221 125.977 67.383C126.77 66.9862 127.444 67.071 128.32 67.0901Z" fill="black"/>
<path d="M140.625 67.3827C140.722 67.4794 140.818 67.5761 140.918 67.6757C140.749 69.5752 140.227 71.4015 139.746 73.2421C139.359 73.2421 138.973 73.2421 138.574 73.2421C137.729 71.6224 137.369 70.0924 137.695 68.2616C138.613 67.1235 139.236 67.0265 140.625 67.3827Z" fill="black"/>
<path d="M144.214 71.2827C144.467 71.3824 144.467 71.3824 144.726 71.4841C144.935 75.6009 144.935 75.6009 143.835 77.3961C143.351 78.317 143.335 79.2461 143.262 80.2731C143.068 80.2731 142.875 80.2731 142.676 80.2731C142.039 79.0003 141.937 77.8604 142.09 76.4646C142.192 76.2349 142.295 76.0053 142.401 75.7688C142.781 74.7047 142.556 73.8415 142.353 72.7452C142.383 72.07 142.383 72.07 142.888 71.523C143.554 71.1911 143.554 71.1911 144.214 71.2827Z" fill="black"/>
<path d="M145.898 44.5312C146.092 44.6278 146.285 44.7245 146.484 44.8241C146.429 45.5016 146.429 45.5016 146.191 46.289C144.881 47.2809 143.683 47.5023 142.072 47.4975C141.695 47.4986 141.695 47.4986 141.311 47.4998C140.625 47.4609 140.625 47.4609 139.746 47.1679C139.811 46.6323 139.811 46.6323 140.039 45.996C141.8 44.6444 143.725 44.2386 145.898 44.5312Z" fill="black"/>
<path d="M155.274 71.1914C155.854 71.3848 156.434 71.5781 157.032 71.7773C157.262 72.6451 157.331 73.2119 157.16 74.1028C157.007 75.1738 157.273 75.7421 157.618 76.7578C157.755 77.8961 157.785 78.8231 157.179 79.834C157.034 79.979 156.889 80.124 156.739 80.2734C156.274 79.8083 156.299 79.2463 156.19 78.6072C156.014 77.6632 155.861 77.0528 155.384 76.2085C154.757 74.7824 154.862 73.3145 154.981 71.7773C155.078 71.584 155.175 71.3906 155.274 71.1914Z" fill="black"/>
<path d="M156.477 50.9707C157.67 51.0642 158.604 51.1786 159.686 51.7088C160.503 52.7622 160.516 53.7741 160.547 55.078C158.338 55.3873 158.338 55.3873 157.364 54.6832C156.443 53.6432 155.899 52.6322 155.566 51.2694C155.859 50.9764 155.859 50.9764 156.477 50.9707Z" fill="black"/>
<path d="M160.565 67.1269C161.426 67.3832 161.426 67.3832 162.012 68.2621C162.328 70.3276 161.888 71.7676 160.84 73.5356C160.55 73.4389 160.26 73.3422 159.961 73.2426C159.598 72.4171 159.454 71.5225 159.265 70.6425C159.206 70.3997 159.147 70.1569 159.086 69.9067C159.034 69.6729 158.982 69.4391 158.929 69.1983C158.881 68.9838 158.833 68.7694 158.783 68.5484C158.789 67.9692 158.789 67.9692 159.164 67.4506C159.668 67.0903 159.668 67.0903 160.565 67.1269Z" fill="black"/>
<path d="M157.617 44.5315C158.592 45.0103 159.42 45.5972 160.254 46.2893C159.961 47.1682 159.961 47.1682 159.375 47.4612C156.992 47.5078 155.304 47.3252 153.516 45.7033C153.612 45.4133 153.709 45.1233 153.809 44.8244C154.984 44.2369 156.343 44.3459 157.617 44.5315Z" fill="black"/>
<path d="M166.992 60.3516C169.664 60.3071 169.664 60.3071 170.508 60.6446C170.913 61.4545 170.829 62.123 170.819 63.025C170.816 63.346 170.814 63.667 170.811 63.9977C170.808 64.2447 170.804 64.4917 170.801 64.7462C169.887 64.5617 169.209 64.2521 168.42 63.7574C168.22 63.6343 168.02 63.5112 167.814 63.3843C167.285 62.9883 167.285 62.9883 166.699 62.1094C166.809 61.1756 166.809 61.1756 166.992 60.3516Z" fill="black"/>
<path d="M144.141 50.9766C144.014 52.5657 143.687 53.5431 142.676 54.7852C141.874 55.4003 141.575 55.3792 140.552 55.2612C140.153 55.1706 140.153 55.1706 139.746 55.0781C139.638 52.8799 139.638 52.8799 140.107 52.2491C140.704 51.7959 141.23 51.586 141.944 51.3611C142.17 51.2874 142.397 51.2138 142.63 51.1379C143.262 50.9766 143.262 50.9766 144.141 50.9766Z" fill="black"/>
<path d="M181.073 78.168C181.817 78.6237 182.078 79.1838 182.381 79.9876C182.608 80.9377 182.478 81.6854 182.227 82.6174C181.842 83.2034 181.842 83.2034 181.348 83.4963C180.78 83.5146 180.78 83.5146 180.176 83.2034C179.312 82.223 179.004 81.7019 179.004 80.3835C179.353 79.2041 179.743 78.2889 181.073 78.168Z" fill="black"/>
<path d="M132.714 60.3512C133.007 60.6442 133.007 60.6442 133.099 61.4499C132.985 62.633 132.668 63.034 131.835 63.8669C130.958 64.4875 130.574 64.7458 129.492 64.7458C129.104 63.971 129.17 63.3754 129.18 62.5119C129.183 62.2181 129.186 61.9242 129.188 61.6215C129.192 61.3957 129.195 61.1699 129.199 60.9372C130.433 60.3989 131.361 60.2731 132.714 60.3512Z" fill="black"/>
<path d="M118.652 78.2227C119.457 78.4839 120.034 78.7336 120.666 79.303C121.16 80.3187 120.982 80.9516 120.703 82.0312C120.356 82.67 119.972 83.2063 119.531 83.7891C118.103 82.9468 118.103 82.9468 117.773 82.6172C117.613 80.9566 117.567 79.5784 118.652 78.2227Z" fill="black"/>
<path d="M140.917 56.8359C140.843 58.7192 140.698 60.0214 139.452 61.5234C139.307 61.7047 139.162 61.886 139.013 62.0728C138.574 62.4023 138.574 62.4023 137.402 62.4023C137.301 60.7325 137.263 59.419 138.281 58.0078C139.08 57.4137 139.892 56.8359 140.917 56.8359Z" fill="black"/>
<path d="M159.082 57.1289C160.233 57.2305 161.051 57.6137 161.924 58.3786C162.665 59.369 162.819 60.6033 162.89 61.8164C162.794 62.0098 162.697 62.2031 162.597 62.4023C161.362 62.2598 160.483 61.5371 159.668 60.6445C159.107 59.4479 159.019 58.4407 159.082 57.1289Z" fill="black"/>
<path d="M183.691 54.7852C183.554 56.4572 183.123 57.4686 182.226 58.8867C181.338 58.7907 180.873 58.6988 180.212 58.0811C179.79 57.2376 179.896 56.8419 180.175 55.957C180.468 55.3711 180.468 55.3711 180.978 55.1857C181.185 55.1381 181.391 55.0905 181.603 55.0415C181.91 54.9679 181.91 54.9679 182.223 54.8927C182.812 54.7852 182.812 54.7852 183.691 54.7852Z" fill="black"/>
<path d="M116.309 54.7852C116.786 54.8599 117.262 54.9404 117.738 55.0232C118.135 55.0895 118.135 55.0895 118.541 55.1571C119.239 55.3711 119.239 55.3711 119.825 56.25C119.946 57.1916 119.907 57.5879 119.386 58.3923C119.241 58.5555 119.096 58.7186 118.946 58.8867C118.035 58.7963 117.608 58.745 117.008 58.0296C116.886 57.7988 116.764 57.5681 116.639 57.3303C116.513 57.1018 116.387 56.8734 116.257 56.638C115.987 55.873 116.032 55.5341 116.309 54.7852Z" fill="black"/>
<path d="M174.316 62.6958C174.957 62.5493 174.957 62.5493 175.781 62.6958C176.375 63.4193 176.8 64.22 177.246 65.0396C177.747 66.0106 177.747 66.0106 178.748 66.1199C179.026 66.1501 179.303 66.1803 179.59 66.2114C179.318 66.2477 179.318 66.2477 179.041 66.2847C178.364 66.4495 178.364 66.4495 178.052 67.1086C177.979 67.296 177.907 67.4833 177.832 67.6763C176.133 67.0289 175.22 65.9872 174.316 64.4536C174.102 63.8299 174.102 63.8299 174.023 63.2817C174.12 63.0884 174.217 62.895 174.316 62.6958Z" fill="black"/>
<path d="M124.512 62.4023C125.134 62.5122 125.134 62.5122 125.684 62.6953C125.873 63.9593 125.638 64.6732 124.933 65.6982C124.017 66.8441 123.306 67.1539 121.875 67.3828C121.875 67.1895 121.875 66.9961 121.875 66.7969C121.488 66.6035 121.102 66.4102 120.703 66.2109C120.963 66.1686 121.223 66.1263 121.49 66.0828C122.744 65.4917 123.019 64.8147 123.61 63.6017C123.926 62.9883 123.926 62.9883 124.512 62.4023Z" fill="black"/>
<path d="M143.848 120.135C144.59 120.483 144.863 120.907 145.313 121.582C145.877 122.233 145.877 122.233 146.778 122.461C146.778 122.751 146.778 123.041 146.778 123.34C146.591 123.322 146.403 123.303 146.21 123.285C144.951 123.362 143.854 123.787 142.676 124.219C142.376 123.115 142.3 122.144 142.383 120.996C142.828 120.285 143.006 120.109 143.848 120.135Z" fill="black"/>
<path d="M189.259 63.5742C189.936 63.7676 190.612 63.9609 191.31 64.1602C191.005 64.78 190.691 65.3904 190.356 65.9946C189.451 67.6733 189.058 68.9924 188.966 70.8984C188.869 70.8984 188.772 70.8984 188.673 70.8984C188.637 70.5661 188.6 70.2338 188.563 69.8914C188.503 69.5469 188.442 69.2025 188.38 68.8477C188.187 68.751 187.993 68.6543 187.794 68.5547C187.713 67.1837 187.926 66.3059 188.526 65.0757C188.662 64.7924 188.798 64.5092 188.938 64.2174C189.044 64.0051 189.15 63.7929 189.259 63.5742Z" fill="black"/>
<path d="M152.93 59.4724C154.913 59.3823 154.913 59.3823 155.859 60.0584C156.399 60.8029 156.461 61.1157 156.335 62.0359C156.275 62.2534 156.215 62.471 156.152 62.6951C155.273 62.9881 155.273 62.9881 154.559 62.6768C153.662 61.9984 153.171 61.338 152.637 60.3513C152.733 60.0613 152.83 59.7713 152.93 59.4724Z" fill="black"/>
<path d="M147.069 59.766C146.923 61.0511 146.562 61.8141 145.605 62.6957C144.506 62.7872 144.506 62.7872 143.554 62.6957C143.489 61.7494 143.463 61.1137 143.902 60.2604C144.871 59.3576 145.853 59.3606 147.069 59.766Z" fill="black"/>
<path d="M175.195 89.3555C174.963 91.7679 174.963 91.7679 174.023 92.5781C173.108 92.6697 173.108 92.6697 172.266 92.5781C172.169 92.4815 172.072 92.3848 171.973 92.2852C172.104 90.5128 172.104 90.5128 172.595 89.6668C173.447 89.1843 174.24 89.3014 175.195 89.3555Z" fill="black"/>
<path d="M158.203 61.5234C158.898 61.8012 159.307 62.0183 159.76 62.6221C160.028 63.5015 159.869 64.1536 159.668 65.0391C157.397 65.0757 157.397 65.0757 156.738 64.7461C156.871 63.3183 157.239 62.5809 158.203 61.5234Z" fill="black"/>
<path d="M151.172 42.1871C151.923 42.5716 151.923 42.5716 152.344 43.066C152.344 43.3561 152.344 43.6461 152.344 43.9449C151.486 44.2307 150.895 44.2862 150 44.2928C149.619 44.2991 149.619 44.2991 149.231 44.3054C148.535 44.2379 148.535 44.2379 147.656 43.6519C147.766 43.0843 147.766 43.0843 147.949 42.4801C148.957 41.9762 150.068 42.0753 151.172 42.1871Z" fill="black"/>
<path d="M143.262 110.449C143.445 110.999 143.445 110.999 143.555 111.621C143.361 111.814 143.168 112.008 142.969 112.207C142.764 112.593 142.568 112.983 142.383 113.379C142.383 113.089 142.383 112.799 142.383 112.5C141.223 112.5 140.062 112.5 138.867 112.5C138.771 112.887 138.674 113.273 138.574 113.672C138.478 113.188 138.381 112.705 138.281 112.207C137.411 112.062 137.411 112.062 136.523 111.914C136.523 111.817 136.523 111.721 136.523 111.621C136.894 111.561 137.264 111.501 137.646 111.439C138.132 111.359 138.619 111.28 139.105 111.2C139.349 111.16 139.594 111.121 139.845 111.08C140.08 111.042 140.315 111.003 140.557 110.963C140.774 110.928 140.99 110.892 141.213 110.856C141.925 110.717 142.531 110.449 143.262 110.449Z" fill="black"/>
<path d="M176.367 80.5664C175.715 82.2547 174.111 83.0151 172.559 83.7891C171.637 84.0161 170.878 84.0664 169.922 84.082C170.215 83.2031 170.215 83.2031 170.75 82.8613C170.978 82.7554 171.206 82.6496 171.441 82.5405C171.812 82.3663 171.812 82.3663 172.191 82.1886C172.451 82.0702 172.711 81.9518 172.98 81.8298C173.239 81.708 173.498 81.5862 173.765 81.4608C175.694 80.5664 175.694 80.5664 176.367 80.5664Z" fill="black"/>
<path d="M140.918 61.8164C141.486 61.8347 141.486 61.8347 142.09 62.1094C142.858 63.0975 143.075 63.7959 142.969 65.0391C141.195 65.0963 141.195 65.0963 140.625 65.0391C140.432 64.8457 140.238 64.6523 140.039 64.4531C140.174 62.5601 140.174 62.5601 140.918 61.8164Z" fill="black"/>
<path d="M125.098 89.0625C127.075 89.5386 127.075 89.5386 127.734 90.5273C127.771 91.4612 127.771 91.4612 127.734 92.2852C127.24 92.5049 127.24 92.5049 126.562 92.5781C125.548 91.9745 125.158 91.5549 124.713 90.4541C124.647 90.1882 124.58 89.9224 124.512 89.6484C124.705 89.4551 124.898 89.2617 125.098 89.0625Z" fill="black"/>
<path d="M152.05 65.918C152.527 65.9849 153.003 66.0596 153.479 66.1377C153.876 66.1989 153.876 66.1989 154.282 66.2613C154.98 66.5039 154.98 66.5039 155.367 67.1127C155.433 67.2985 155.498 67.4843 155.566 67.6758C154.046 68.8423 154.046 68.8423 153.002 68.866C152.343 68.5547 152.343 68.5547 151.94 67.8772C151.75 67.057 151.819 66.7041 152.05 65.918Z" fill="black"/>
<path d="M130.957 43.3594C131.15 43.4561 131.344 43.5527 131.543 43.6523C131.35 43.8457 131.156 44.0391 130.957 44.2383C131.247 44.6733 131.247 44.6733 131.543 45.1172C131.122 45.4472 130.701 45.7767 130.28 46.106C130.045 46.2895 129.81 46.473 129.569 46.6621C129.068 47.0442 128.551 47.4046 128.027 47.7539C127.737 47.5605 127.447 47.3672 127.148 47.168C126.858 47.168 126.568 47.168 126.27 47.168C127.775 45.8142 129.318 44.5492 130.957 43.3594Z" fill="black"/>
<path d="M148.242 66.2109C148.146 66.9844 148.049 67.7578 147.949 68.5547C147.491 68.7744 147.491 68.7744 146.777 68.8476C146.044 68.5163 145.409 68.1089 144.727 67.6758C144.727 67.3857 144.727 67.0957 144.727 66.7969C145.091 66.6403 145.458 66.4886 145.825 66.3391C146.029 66.2541 146.233 66.1691 146.443 66.0816C147.158 65.895 147.551 65.9758 148.242 66.2109Z" fill="black"/>
<path d="M168.75 43.3594C170.124 44.3519 171.396 45.3462 172.559 46.582C172.269 46.582 171.979 46.582 171.68 46.582C171.583 46.8721 171.486 47.1621 171.387 47.4609C171.189 47.3019 170.991 47.143 170.787 46.9791C170.526 46.7695 170.264 46.5599 169.995 46.344C169.737 46.1367 169.478 45.9293 169.212 45.7157C168.577 45.2124 167.936 44.7206 167.285 44.2383C167.472 44.202 167.66 44.1658 167.853 44.1284C168.152 44.0378 168.152 44.0378 168.457 43.9453C168.554 43.752 168.65 43.5586 168.75 43.3594Z" fill="black"/>
<path d="M123.633 80.5664C125.857 81.4029 127.967 82.4078 130.078 83.4961C130.078 83.5928 130.078 83.6895 130.078 83.7891C127.824 83.9977 126.048 83.3537 124.293 81.9008C123.889 81.5002 123.889 81.5002 123.34 80.8594C123.437 80.7627 123.533 80.666 123.633 80.5664Z" fill="black"/>
<path d="M149.817 48.871C150.043 48.8668 150.269 48.8627 150.501 48.8584C151.236 48.9324 151.709 49.1451 152.344 49.5119C152.344 49.8019 152.344 50.0919 152.344 50.3908C151.626 50.7496 151.13 50.7327 150.33 50.7387C149.95 50.7449 149.95 50.7449 149.563 50.7513C148.792 50.6804 148.318 50.4874 147.656 50.0978C147.753 49.8078 147.85 49.5177 147.949 49.2189C148.631 48.8782 149.059 48.8773 149.817 48.871Z" fill="black"/>
</svg>
