<svg width="300" height="300" viewBox="0 0 300 300" fill="none" xmlns="http://www.w3.org/2000/svg">
<path d="M102.247 54.7852C104.6 54.9722 106.87 55.4769 109.169 55.9862C109.888 56.1453 110.608 56.3022 111.327 56.4586C113.372 56.903 115.416 57.3499 117.459 57.8012C118.713 58.078 119.968 58.3515 121.223 58.6228C121.699 58.7264 122.175 58.8313 122.651 58.9375C123.316 59.086 123.982 59.2301 124.648 59.3733C124.939 59.4399 124.939 59.4399 125.236 59.5079C127.014 59.8814 128.572 59.6824 130.237 58.9829C130.596 58.8368 130.596 58.8368 130.962 58.6878C131.215 58.5843 131.467 58.4807 131.727 58.3741C145.025 53.1165 160.033 53.7035 173.121 59.2522C174.561 59.7726 175.588 59.757 177.086 59.4317C177.463 59.3515 177.839 59.2712 178.227 59.1885C178.637 59.0983 179.046 59.008 179.455 58.9177C179.879 58.8264 180.303 58.7355 180.727 58.6447C181.842 58.4052 182.957 58.1623 184.072 57.9186C185.417 57.6252 186.763 57.3353 188.109 57.0453C189.158 56.8191 190.207 56.5923 191.256 56.3634C197.626 54.9762 197.626 54.9762 199.512 55.0782C199.571 56.8901 199.613 58.7014 199.641 60.5141C199.653 61.1278 199.669 61.7414 199.689 62.3549C199.828 66.6096 199.335 69.851 197.504 73.6992C196.937 74.909 196.437 76.1465 195.925 77.3804C195.721 77.8636 195.516 78.3465 195.311 78.8292C195.21 79.0665 195.109 79.3038 195.005 79.5482C194.796 80.0402 194.587 80.5321 194.377 81.0239C194.068 81.75 193.76 82.4766 193.453 83.2032C193.359 83.4223 193.265 83.6413 193.169 83.8671C192.426 85.622 192.152 86.8589 192.164 88.7686C192.165 88.9726 192.166 89.1767 192.167 89.3869C192.169 89.8293 192.172 90.2716 192.175 90.7139C192.18 91.4163 192.183 92.1186 192.186 92.821C192.193 94.8178 192.203 96.8147 192.216 98.8115C192.224 100.034 192.229 101.257 192.232 102.48C192.234 102.944 192.237 103.407 192.241 103.871C192.294 109.891 192.294 109.891 191.126 111.823C190.364 112.564 189.58 113.268 188.772 113.959C187.994 114.631 187.234 115.322 186.475 116.016C185.561 116.849 184.645 117.677 183.71 118.488C180.578 120.806 180.578 120.806 178.65 123.742C178.619 124.737 178.599 125.732 178.583 126.727C178.563 127.241 178.563 127.241 178.543 127.765C178.517 129.721 178.621 130.994 179.946 132.478C180.119 132.653 180.292 132.828 180.469 133.008C180.64 133.197 180.811 133.387 180.987 133.582C181.537 134.188 182.1 134.78 182.667 135.37C183.084 135.809 183.501 136.248 183.919 136.687C184.127 136.905 184.335 137.124 184.549 137.348C185.454 138.301 186.349 139.261 187.244 140.222C187.41 140.399 187.575 140.577 187.745 140.759C188.616 141.692 189.485 142.627 190.354 143.562C190.535 143.757 190.716 143.952 190.903 144.153C191.246 144.521 191.588 144.889 191.93 145.258C192.752 146.142 193.586 147.009 194.443 147.859C195.132 148.544 195.791 149.238 196.418 149.982C197.126 150.804 197.86 151.582 198.633 152.344C199.583 153.279 200.46 154.254 201.326 155.267C202.095 156.127 202.924 156.92 203.759 157.716C204.2 158.203 204.2 158.203 204.2 158.789C204.393 158.789 204.587 158.789 204.786 158.789C205.189 159.199 205.189 159.199 205.665 159.778C206.503 160.766 207.378 161.689 208.301 162.598C209.349 163.633 210.334 164.693 211.288 165.815C212.128 166.754 213.04 167.62 213.949 168.491C214.454 169.043 214.454 169.043 214.454 169.629C214.647 169.629 214.84 169.629 215.04 169.629C215.473 170.07 215.473 170.07 215.974 170.673C216.661 171.482 217.357 172.256 218.116 172.998C219.008 173.874 219.83 174.791 220.625 175.756C221.159 176.379 221.159 176.379 221.797 176.772C222.75 177.458 223.406 178.129 223.669 179.307C223.892 181.224 223.829 183.156 223.802 185.082C223.801 185.737 223.802 186.393 223.803 187.049C223.804 188.825 223.79 190.601 223.773 192.378C223.759 194.235 223.757 196.093 223.755 197.951C223.748 201.068 223.734 204.184 223.713 207.301C223.691 210.511 223.675 213.72 223.665 216.93C223.664 217.128 223.663 217.326 223.663 217.53C223.66 218.524 223.657 219.517 223.654 220.511C223.629 228.746 223.588 236.98 223.536 245.215C209.082 245.295 194.629 245.357 180.175 245.394C178.468 245.399 176.761 245.403 175.054 245.408C174.714 245.409 174.374 245.41 174.024 245.411C168.524 245.426 163.024 245.454 157.524 245.486C151.879 245.519 146.235 245.539 140.59 245.546C137.107 245.551 133.625 245.566 130.143 245.594C127.754 245.613 125.365 245.618 122.976 245.614C121.598 245.612 120.221 245.615 118.843 245.634C117.58 245.651 116.317 245.652 115.054 245.64C114.598 245.638 114.143 245.643 113.688 245.654C111.42 245.706 109.689 245.509 107.937 243.978C107.175 243.248 106.468 242.485 105.762 241.699C105.412 241.35 105.059 241.003 104.704 240.659C104.312 240.259 104.312 240.259 103.913 239.85C103.007 238.931 102.097 238.03 101.111 237.195C99.7797 236.064 98.568 234.813 97.3465 233.566C96.4809 232.687 95.6017 231.847 94.6662 231.043C93.0749 229.669 91.6232 228.16 90.1503 226.662C88.9356 225.434 87.6981 224.265 86.3887 223.139C85.5305 222.383 84.7351 221.57 83.9362 220.752C82.9195 219.722 81.9062 218.708 80.8051 217.767C80.6404 217.622 80.4756 217.477 80.3059 217.328C79.8659 216.95 79.4123 216.587 78.9506 216.236C77.559 215.061 76.6257 214.094 76.4278 212.222C76.3736 211.116 76.3852 210.017 76.4062 208.91C76.4049 208.408 76.4023 207.905 76.3986 207.402C76.392 206.025 76.4037 204.649 76.4184 203.273C76.4311 201.787 76.4268 200.301 76.4246 198.815C76.423 196.241 76.4322 193.668 76.4487 191.095C76.4725 187.375 76.4801 183.655 76.4838 179.934C76.4902 173.898 76.5097 167.862 76.5374 161.826C76.5643 155.963 76.5851 150.1 76.5975 144.238C76.5983 143.876 76.5991 143.514 76.5999 143.142C76.6037 141.328 76.6074 139.515 76.611 137.701C76.6414 122.66 76.693 107.619 76.7585 92.5782C77.0804 92.8529 77.4021 93.1278 77.7238 93.4028C77.903 93.5559 78.0821 93.7089 78.2668 93.8666C79.0981 94.5859 79.9071 95.3284 80.7135 96.0755C80.8796 96.2289 81.0456 96.3823 81.2167 96.5403C82.2348 97.4848 83.2259 98.4496 84.1983 99.4412C84.9137 100.143 85.6768 100.787 86.4356 101.44C86.9919 101.935 87.5163 102.448 88.0378 102.979C88.7381 103.692 89.4588 104.359 90.2167 105.011C91.0394 105.72 91.817 106.453 92.5788 107.227C93.2956 107.953 94.0205 108.649 94.7943 109.314C95.0629 109.561 95.0629 109.561 95.337 109.812C95.9383 110.318 96.51 110.722 97.1657 111.146C98.7787 112.281 100.179 113.474 100.74 115.424C101.109 117.856 101.041 120.313 100.984 122.765C100.963 123.885 100.968 125.006 100.97 126.126C100.969 128.065 100.954 130.003 100.928 131.941C100.891 134.748 100.882 137.555 100.881 140.362C100.879 144.924 100.861 149.486 100.829 154.047C100.828 154.32 100.826 154.592 100.824 154.873C100.808 157.084 100.792 159.294 100.776 161.505C100.762 163.437 100.748 165.369 100.734 167.301C100.732 167.709 100.732 167.709 100.729 168.126C100.698 172.671 100.684 177.216 100.682 181.762C100.681 184.56 100.664 187.358 100.626 190.156C100.601 192.075 100.592 193.994 100.595 195.912C100.596 197.018 100.59 198.122 100.565 199.227C100.308 204.469 100.308 204.469 102.621 208.956C103.519 209.797 104.466 210.521 105.469 211.231C105.883 211.586 106.293 211.944 106.696 212.311C106.87 212.457 107.043 212.603 107.221 212.754C108.202 213.628 109.112 214.574 110.035 215.509C110.821 216.3 111.611 217.065 112.464 217.786C113.815 218.932 115.042 220.202 116.28 221.467C116.448 221.636 116.615 221.806 116.788 221.981C116.935 222.132 117.083 222.283 117.235 222.439C117.413 222.607 117.591 222.776 117.774 222.949C118.029 223.207 118.285 223.464 118.548 223.729C119.683 224.66 120.783 224.628 122.203 224.621C122.537 224.628 122.537 224.628 122.878 224.634C123.704 224.648 124.529 224.649 125.355 224.652C127.204 224.67 129.053 224.688 130.958 224.707C130.861 220.937 130.764 217.166 130.665 213.281C129.118 212.605 127.571 211.928 125.977 211.231C118.853 207.236 114.197 201.665 111.696 193.848C110.4 188.744 111.274 182.927 113.765 178.342C116.403 174.046 120.239 171.401 125.098 170.215C125.129 164.268 125.142 158.322 125.136 152.375C125.133 149.614 125.136 146.853 125.152 144.091C125.165 141.684 125.169 139.277 125.16 136.869C125.155 135.595 125.156 134.321 125.169 133.047C125.182 131.846 125.18 130.645 125.168 129.444C125.166 129.005 125.169 128.566 125.177 128.127C125.209 126.358 125.23 124.817 124.168 123.321C123.438 122.581 122.694 121.93 121.876 121.289C121.502 120.961 121.129 120.632 120.759 120.3C120.479 120.061 120.479 120.061 120.195 119.817C119.323 119.056 118.476 118.268 117.628 117.481C115.197 115.188 115.197 115.188 112.592 113.104C111.369 112.014 110.462 110.605 110.157 108.984C110.142 108.296 110.144 107.608 110.157 106.92C110.164 106.493 110.17 106.065 110.177 105.638C110.182 105.298 110.182 105.298 110.188 104.951C110.209 103.474 110.211 101.997 110.216 100.52C110.221 99.2337 110.233 97.9484 110.26 96.6626C110.4 89.8336 109.758 84.6785 106.54 78.5867C105.736 77.0098 105.076 75.3744 104.407 73.7366C104.178 73.1883 103.949 72.6401 103.718 72.0921C103.513 71.5998 103.316 71.1037 103.126 70.6055C103.05 70.4178 102.974 70.23 102.896 70.0366C102.235 68.2707 102.13 66.7013 102.161 64.8274C102.162 64.5385 102.163 64.2496 102.165 63.952C102.17 63.0386 102.181 62.1255 102.192 61.2122C102.196 60.5891 102.2 59.9659 102.204 59.3428C102.213 57.8235 102.229 56.3044 102.247 54.7852ZM135.142 61.9629C134.927 62.0264 134.713 62.0898 134.492 62.1552C133.804 62.4364 133.291 62.8144 132.715 63.2813C132.811 63.4351 132.906 63.5889 133.005 63.7474C138.543 72.7381 147.374 88.1554 145 99.309C144.47 101.032 143.602 102.611 142.772 104.205C142.2 105.305 141.64 106.411 141.079 107.516C140.909 107.85 140.909 107.85 140.735 108.191C139.337 110.947 138.051 113.752 136.767 116.563C136.257 117.679 135.733 118.785 135.183 119.881C135.015 120.221 135.015 120.221 134.843 120.567C134.644 120.965 134.441 121.362 134.233 121.756C133.382 123.475 133.407 125.091 133.796 126.929C134.271 127.924 134.829 128.454 135.645 129.199C136.049 129.607 136.452 130.016 136.854 130.426C137.911 131.502 138.649 132.214 140.205 132.239C143.301 132.167 145.603 130.557 147.803 128.522C148.34 127.56 148.47 126.884 148.449 125.789C148.006 124.306 146.441 123.703 145.167 122.992C144.589 122.653 144.013 122.313 143.436 121.972C143.159 121.81 142.881 121.647 142.595 121.479C140.297 120.087 140.297 120.087 139.454 119.238C139.307 118.25 139.307 118.25 139.454 117.481C141.419 115.982 143.423 116.142 145.809 116.163C146.228 116.163 146.648 116.163 147.068 116.162C147.945 116.162 148.822 116.165 149.699 116.172C150.819 116.18 151.94 116.179 153.061 116.176C153.927 116.174 154.792 116.176 155.658 116.18C156.071 116.181 156.485 116.181 156.898 116.18C157.476 116.179 158.054 116.185 158.632 116.19C158.961 116.192 159.289 116.193 159.627 116.195C160.695 116.327 161.398 116.613 162.305 117.188C162.653 118.195 162.653 118.195 162.598 119.238C161.566 120.201 160.366 120.924 159.174 121.674C158.812 121.907 158.45 122.14 158.088 122.374C157.436 122.793 156.781 123.196 156.113 123.592C154.744 124.402 154.744 124.402 153.852 125.663C153.724 126.905 154.186 127.695 154.944 128.65C156.942 130.691 159.462 132.033 162.305 132.422C163.753 132.36 164.536 131.555 165.528 130.591C165.751 130.381 165.751 130.381 165.979 130.166C166.275 129.886 166.569 129.604 166.86 129.319C167.268 128.924 167.687 128.542 168.107 128.161C169.005 127.157 169.067 126.452 169.103 125.139C168.901 122.004 166.609 118.691 165.203 115.905C164.976 115.452 164.749 114.999 164.522 114.547C163.929 113.366 163.336 112.186 162.742 111.006C161.787 109.109 160.834 107.212 159.881 105.314C159.549 104.653 159.217 103.992 158.884 103.332C158.681 102.928 158.479 102.525 158.276 102.122C158.184 101.939 158.091 101.756 157.996 101.567C155.222 96.0339 158.136 88.4985 159.901 83.0327C162.276 75.9552 165.933 69.4409 169.63 62.9883C163.61 60.6933 157.706 59.6423 151.264 59.6741C150.917 59.6751 150.917 59.6751 150.563 59.676C145.178 59.6996 140.312 60.4307 135.142 61.9629ZM107.227 60.6446C106.915 65.2465 107.298 68.844 109.216 73.0463C109.597 73.8848 109.957 74.7303 110.314 75.5791C110.934 77.0512 111.566 78.5176 112.208 79.9805C113.211 79.4791 113.424 78.2858 113.837 77.2889C115.852 72.6044 118.782 68.7877 122.232 65.0483C122.768 64.4893 122.768 64.4893 123.048 63.8672C120.936 63.407 118.824 62.9482 116.712 62.4904C115.993 62.3344 115.275 62.1781 114.556 62.0214C113.524 61.7966 112.492 61.573 111.46 61.3495C111.138 61.279 110.816 61.2086 110.484 61.1359C110.185 61.0714 109.886 61.0069 109.577 60.9404C109.314 60.8832 109.051 60.8259 108.779 60.7669C108.076 60.6184 108.076 60.6184 107.227 60.6446ZM192.565 60.9042C192.145 60.9894 192.145 60.9894 191.717 61.0762C191.416 61.1385 191.115 61.2007 190.805 61.2649C190.495 61.3285 190.186 61.3921 189.867 61.4577C189.212 61.5927 188.558 61.7282 187.904 61.8641C186.9 62.0721 185.895 62.2768 184.891 62.4814C184.256 62.6128 183.621 62.7444 182.986 62.8762C182.533 62.9678 182.533 62.9678 182.071 63.0612C181.793 63.1198 181.514 63.1784 181.227 63.2388C180.981 63.2896 180.735 63.3403 180.482 63.3926C179.825 63.5407 179.825 63.5407 179.298 64.1602C179.408 64.2784 179.519 64.3966 179.633 64.5184C183.788 69.1021 186.925 74.2714 189.258 79.9805C189.452 79.9805 189.645 79.9805 189.844 79.9805C190.46 78.4692 191.075 76.9576 191.69 75.4458C191.899 74.932 192.108 74.4182 192.317 73.9046C192.619 73.1644 192.92 72.424 193.22 71.6836C193.314 71.4555 193.407 71.2275 193.503 70.9925C194.559 68.4496 194.559 68.4496 194.882 65.7372C194.879 65.2897 194.879 65.2897 194.876 64.8331C194.871 64.5265 194.867 64.2198 194.861 63.9039C194.859 63.5904 194.856 63.277 194.853 62.954C194.847 62.1841 194.837 61.4144 194.825 60.6446C194.012 60.6446 193.357 60.7423 192.565 60.9042ZM128.321 65.3321C121.858 70.9301 115.678 79.0851 115.02 87.9434C114.956 89.2526 114.951 90.5615 114.951 91.8721C114.948 92.3528 114.945 92.8335 114.941 93.3143C114.935 94.3127 114.934 95.3109 114.936 96.3093C114.938 97.5838 114.925 98.8577 114.908 100.132C114.897 101.121 114.896 102.11 114.897 103.099C114.896 103.569 114.892 104.039 114.885 104.509C114.779 107.511 114.779 107.511 116.11 110.108C116.634 110.603 116.634 110.603 117.188 111.035C117.548 111.358 117.909 111.682 118.268 112.006C118.56 112.253 118.56 112.253 118.858 112.506C119.685 113.218 120.487 113.957 121.29 114.697C122.447 115.763 123.613 116.815 124.803 117.843C125.767 118.689 126.706 119.563 127.648 120.434C128.25 120.936 128.778 121.272 129.493 121.582C130.578 119.471 131.616 117.355 132.551 115.173C133.663 112.583 134.93 110.078 136.213 107.569C136.464 107.077 136.714 106.584 136.964 106.091C137.106 105.814 137.248 105.537 137.394 105.251C137.737 104.622 137.737 104.622 137.696 104.004C137.359 103.996 137.023 103.989 136.676 103.981C130.86 103.794 126.301 102.092 122.169 97.8516C119.719 95.2118 118.37 91.9326 117.481 88.4766C117.73 88.395 117.979 88.3135 118.235 88.2294C119.583 87.7746 120.914 87.2771 122.248 86.7829C124.486 86.0515 126.57 85.7259 128.925 85.73C129.191 85.7303 129.458 85.7305 129.732 85.7308C132.905 85.7856 135.735 86.4479 138.575 87.8907C138.768 87.8907 138.962 87.8907 139.161 87.8907C137.43 80.1913 133.529 72.0132 128.907 65.625C128.714 65.5284 128.52 65.4317 128.321 65.3321ZM173.438 65.625C168.57 71.4395 164.518 80.7825 162.891 88.1836C163.608 87.9001 164.321 87.6132 165.027 87.3047C171.073 84.7165 177.162 85.8549 183.135 87.9983C183.706 88.1884 184.279 88.338 184.864 88.4766C184.068 91.1187 183.25 93.5246 181.641 95.8008C181.47 96.0474 181.298 96.294 181.122 96.5481C178.461 100.127 174.061 102.938 169.63 103.711C167.876 103.882 166.117 103.948 164.356 104.004C164.895 105.794 165.576 107.388 166.48 109.021C167.915 111.675 169.237 114.378 170.545 117.096C170.645 117.304 170.745 117.511 170.848 117.725C171.42 118.912 171.99 120.101 172.559 121.289C173.475 121.119 173.964 120.874 174.629 120.227C174.794 120.07 174.959 119.912 175.129 119.75C175.388 119.497 175.388 119.497 175.654 119.238C176.889 118.06 178.127 116.917 179.462 115.851C180.875 114.72 182.204 113.517 183.522 112.278C184.358 111.493 185.204 110.753 186.109 110.046C187.226 108.98 187.181 108.093 187.251 106.593C187.254 106.261 187.257 105.929 187.26 105.588C187.263 105.209 187.267 104.831 187.271 104.44C187.273 104.03 187.276 103.619 187.277 103.209C187.279 102.999 187.28 102.79 187.281 102.574C187.287 101.463 187.291 100.353 187.294 99.242C187.297 98.1074 187.307 96.973 187.319 95.8384C187.327 94.9553 187.329 94.0723 187.33 93.1892C187.332 92.7717 187.335 92.3542 187.341 91.9368C187.392 87.8144 186.484 84.2118 184.827 80.4383C184.714 80.1785 184.601 79.9186 184.484 79.6509C182.174 74.494 178.697 69.2616 174.317 65.625C174.027 65.625 173.737 65.625 173.438 65.625ZM173.145 89.9415C173.141 90.1714 173.137 90.4014 173.133 90.6384C173.054 92.3684 172.982 93.7625 171.831 95.1153C170.727 96.0912 169.726 96.3935 168.275 96.3685C167.144 96.0543 166.617 95.7847 165.821 94.9219C165.453 94.1494 165.202 93.3979 164.942 92.5782C163.397 93.4611 162.284 94.515 161.426 96.0938C161.27 97.1509 161.208 97.7596 161.738 98.6939C163.876 99.9356 167.615 99.5955 170.016 99.1265C173.675 98.0087 176.517 95.8776 178.629 92.6995C179.073 91.9963 179.073 91.9963 179.005 91.1133C177.05 90.4522 175.205 90.0686 173.145 89.9415ZM123.048 91.1133C123.906 94.1951 126.525 96.2753 129.2 97.8516C131.376 98.9702 133.144 99.3694 135.572 99.3714C135.912 99.3768 135.912 99.3768 136.259 99.3823C137.81 99.3862 139.135 99.1611 140.626 98.7305C140.783 97.1777 140.794 96.1277 139.838 94.8304C139.107 93.964 138.351 93.2102 137.403 92.5782C137.21 92.5782 137.016 92.5782 136.817 92.5782C136.751 92.9407 136.684 93.3033 136.616 93.6768C136.383 94.5959 136.238 94.9146 135.572 95.636C134.481 96.2559 133.67 96.5313 132.417 96.2574C130.752 95.7171 129.95 94.9327 129.145 93.3655C128.83 92.3232 128.724 91.3178 128.614 90.2344C126.574 90.1357 124.971 90.4386 123.048 91.1133ZM81.7389 104.004C81.6719 117.726 81.6202 131.448 81.5893 145.17C81.5857 146.79 81.5819 148.411 81.578 150.031C81.5772 150.353 81.5765 150.676 81.5757 151.008C81.5629 156.23 81.5398 161.452 81.5129 166.674C81.4855 172.033 81.4692 177.391 81.4633 182.75C81.4593 186.056 81.4466 189.363 81.4228 192.669C81.4073 194.936 81.4026 197.204 81.4064 199.471C81.4083 200.779 81.4054 202.087 81.3897 203.395C81.3754 204.594 81.3747 205.792 81.3847 206.991C81.386 207.424 81.3823 207.857 81.3731 208.289C81.3374 210.067 81.3161 211.517 82.3729 212.998C83.1047 213.74 83.8503 214.395 84.6686 215.039C85.0666 215.386 85.4636 215.733 85.8588 216.083C86.0465 216.243 86.2342 216.404 86.4276 216.569C87.0889 217.158 87.7089 217.778 88.3307 218.408C89.1182 219.206 89.9122 219.971 90.766 220.697C91.8138 221.594 92.7821 222.555 93.7506 223.535C94.6892 224.485 95.623 225.419 96.6437 226.282C97.9755 227.413 99.1872 228.663 100.409 229.911C101.274 230.789 102.153 231.629 103.088 232.433C104.445 233.605 105.696 234.873 106.953 236.151C107.401 236.607 107.85 237.062 108.3 237.516C108.495 237.715 108.69 237.914 108.891 238.118C109.116 238.333 109.34 238.548 109.571 238.77C109.696 238.922 109.822 239.075 109.951 239.233C111.071 240.441 111.995 240.655 113.63 240.727C114.438 240.733 115.244 240.717 116.052 240.699C116.482 240.696 116.913 240.693 117.344 240.692C118.471 240.685 119.598 240.668 120.726 240.648C122.082 240.627 123.438 240.619 124.794 240.609C126.849 240.592 128.903 240.558 130.958 240.527C130.958 236.854 130.958 233.18 130.958 229.395C130.036 229.421 129.114 229.447 128.164 229.475C127.256 229.486 126.349 229.491 125.441 229.495C124.818 229.501 124.194 229.515 123.57 229.536C117.843 229.725 117.843 229.725 115.531 227.706C114.833 227.014 114.181 226.298 113.551 225.544C112.469 224.276 111.263 223.127 109.992 222.052C108.816 221.041 107.732 219.949 106.641 218.848C105.421 217.614 104.194 216.424 102.868 215.303C101.817 214.36 100.838 213.343 99.8454 212.339C98.6431 211.128 97.3995 209.987 96.0944 208.887C95.8014 208.594 95.8014 208.594 95.7675 207.97C95.7688 207.691 95.7701 207.413 95.7714 207.126C95.7722 206.806 95.7729 206.487 95.7737 206.157C95.776 205.801 95.7783 205.445 95.7807 205.079C95.7826 204.503 95.7845 203.926 95.7864 203.35C95.7888 202.722 95.7918 202.094 95.7951 201.466C95.802 200.122 95.807 198.778 95.8115 197.434C95.8131 196.965 95.8147 196.495 95.8163 196.025C95.8171 195.789 95.8179 195.552 95.8187 195.308C95.8213 194.57 95.8241 193.832 95.8269 193.094C95.8405 189.503 95.8479 185.912 95.8516 182.321C95.8518 182.061 95.8521 181.802 95.8524 181.534C95.8548 179.123 95.8569 176.712 95.8588 174.301C95.8601 172.646 95.8616 170.991 95.8634 169.336C95.8637 169.061 95.8639 168.787 95.8642 168.503C95.8693 164.055 95.8869 159.606 95.909 155.157C95.9313 150.59 95.9391 146.023 95.9337 141.455C95.9309 138.638 95.9394 135.822 95.9627 133.005C95.9776 131.072 95.9784 129.14 95.9684 127.207C95.963 126.092 95.9637 124.979 95.9812 123.864C96.2755 119.196 96.2755 119.196 94.67 115.019C93.7753 114.099 92.7961 113.453 91.6999 112.793C91.3129 112.457 90.9319 112.113 90.5669 111.753C90.4178 111.616 90.2687 111.479 90.1151 111.338C88.8203 110.149 87.5455 108.947 86.3143 107.691C85.5807 106.972 84.8013 106.307 84.022 105.638C83.5978 105.265 83.1954 104.867 82.8009 104.462C82.3645 103.936 82.3645 103.936 81.7389 104.004ZM172.48 129.836C172.247 130.074 172.247 130.074 172.009 130.317C171.835 130.493 171.662 130.669 171.483 130.85C171.122 131.218 170.761 131.587 170.4 131.956C169.509 132.859 168.609 133.728 167.643 134.551C166.665 135.393 165.76 136.287 164.861 137.214C164.726 137.352 164.591 137.491 164.452 137.634C163.894 138.207 163.337 138.781 162.785 139.36C161.138 141.087 159.652 142.542 157.325 143.262C157.075 143.342 156.826 143.422 156.568 143.504C152.343 144.304 146.64 144.582 142.882 142.228C141.316 141.14 140.023 139.815 138.703 138.446C137.219 136.921 135.741 135.426 134.115 134.051C133.385 133.41 132.719 132.713 132.053 132.005C131.445 131.454 130.785 131.078 130.079 130.664C129.989 132.56 129.928 134.456 129.886 136.354C129.868 136.998 129.844 137.642 129.814 138.285C129.494 142.145 129.494 142.145 130.833 145.624C131.667 146.531 132.591 147.237 133.594 147.949C134.013 148.311 134.429 148.676 134.84 149.048C135.022 149.203 135.205 149.359 135.393 149.519C136.175 150.209 136.899 150.953 137.623 151.703C138.193 152.257 138.775 152.779 139.376 153.301C140.63 154.39 141.838 155.522 143.043 156.665C146.007 159.467 149.013 162.219 152.051 164.941C155.057 162.414 157.898 159.702 160.754 157.008C163.233 154.671 165.748 152.376 168.284 150.1C169.175 149.295 170.062 148.486 170.948 147.675C171.175 147.467 171.175 147.467 171.407 147.255C172.648 146.277 172.648 146.277 173.216 144.923C173.214 144.638 173.213 144.353 173.212 144.06C173.212 143.737 173.212 143.415 173.212 143.082C173.209 142.733 173.206 142.384 173.202 142.024C173.202 141.667 173.201 141.31 173.2 140.942C173.197 139.799 173.189 138.656 173.182 137.512C173.179 136.739 173.176 135.965 173.174 135.191C173.167 133.292 173.158 131.392 173.145 129.492C172.804 129.459 172.804 129.459 172.48 129.836ZM149.744 132.44C147.778 134.006 145.623 135.348 143.262 136.231C143.703 137.351 144.325 137.901 145.313 138.574C147.245 139.34 149.085 139.257 151.136 139.252C151.681 139.259 151.681 139.259 152.238 139.266C154.615 139.267 156.802 139.197 158.643 137.494C158.885 137.27 159.127 137.047 159.376 136.816C158.921 135.907 158.144 135.754 157.233 135.333C155.35 134.438 153.772 133.349 152.148 132.048C151.024 131.217 150.727 131.621 149.744 132.44ZM179.005 139.16C179.005 149.312 179.005 159.463 179.005 169.922C182.292 170.019 185.579 170.115 188.965 170.215C194.993 170.699 200.16 171.534 204.493 176.074C205.492 177.251 206.429 178.477 207.359 179.708C207.857 180.362 208.371 181.002 208.887 181.641C209.865 181.453 210.556 181.086 211.391 180.55C211.762 180.314 211.762 180.314 212.141 180.072C212.397 179.907 212.652 179.742 212.916 179.572C213.176 179.405 213.436 179.239 213.704 179.067C214.346 178.657 214.986 178.245 215.626 177.832C214.572 176.592 213.505 175.368 212.403 174.17C212.267 174.022 212.131 173.874 211.991 173.722C210.36 171.951 208.714 170.192 207.069 168.433C206.385 167.702 205.702 166.969 205.019 166.236C202.891 163.956 200.76 161.679 198.626 159.405C198.227 158.981 197.829 158.556 197.43 158.131C196.806 157.465 196.182 156.799 195.557 156.134C195.368 155.932 195.179 155.73 194.984 155.521C193.933 154.403 192.867 153.305 191.772 152.23C191.283 151.731 190.828 151.211 190.375 150.678C189.465 149.619 188.493 148.637 187.501 147.656C186.557 146.724 185.628 145.797 184.772 144.782C183.694 143.538 182.546 142.376 181.385 141.211C181.186 141.011 180.987 140.81 180.781 140.604C180.595 140.417 180.408 140.231 180.215 140.039C179.961 139.785 179.961 139.785 179.702 139.526C179.352 139.127 179.352 139.127 179.005 139.16ZM130.079 151.465C130.079 157.556 130.079 163.647 130.079 169.922C136.846 169.922 143.614 169.922 150.587 169.922C149.402 168.738 148.204 167.584 146.979 166.443C146.796 166.271 146.613 166.099 146.424 165.922C145.481 165.043 144.53 164.178 143.556 163.332C142.381 162.31 141.245 161.251 140.113 160.181C138.43 158.596 136.739 157.021 135.029 155.465C134.417 154.904 133.809 154.341 133.203 153.773C132.961 153.548 132.961 153.548 132.715 153.318C132.404 153.029 132.095 152.738 131.787 152.447C131.055 151.687 131.055 151.687 130.079 151.465ZM168.332 156.388C166.688 157.9 165.027 159.391 163.364 160.88C162.895 161.3 162.431 161.726 161.972 162.157C161.133 162.891 161.133 162.891 160.167 163.541C158.815 164.496 157.602 165.491 157.108 167.123C156.758 169.27 156.848 171.442 156.892 173.609C156.894 174.34 156.893 175.071 156.891 175.802C156.89 177.37 156.901 178.937 156.922 180.505C156.953 182.772 156.963 185.038 156.968 187.305C156.976 190.983 157.001 194.661 157.038 198.339C157.073 201.91 157.099 205.481 157.116 209.053C157.117 209.273 157.118 209.494 157.119 209.721C157.124 210.827 157.128 211.933 157.133 213.039C157.173 222.202 157.243 231.365 157.325 240.527C162.546 240.527 167.766 240.527 173.145 240.527C173.145 211.427 173.145 182.326 173.145 152.344C171.712 152.344 169.409 155.398 168.332 156.388ZM178.712 174.609C178.712 185.534 178.712 196.459 178.712 207.715C179.64 206.787 180.399 206.009 181.165 204.987C182.819 202.833 184.541 200.963 186.622 199.219C186.903 198.977 187.184 198.736 187.473 198.488C189.774 196.514 192.139 194.633 194.532 192.773C196.832 190.983 199.108 189.173 201.335 187.293C202.307 186.491 203.311 185.739 204.333 185.002C204.557 184.788 204.557 184.788 204.786 184.57C204.786 183.319 204.075 182.665 203.321 181.732C203.173 181.549 203.026 181.365 202.873 181.176C199.531 177.063 196.475 175.573 191.237 174.979C187.073 174.584 182.89 174.609 178.712 174.609ZM119.495 178.439C116.649 181.442 115.873 184.882 115.962 188.956C116.291 194.379 118.534 199.256 122.462 203.027C126.308 206.441 126.308 206.441 130.958 208.008C130.958 197.083 130.958 186.158 130.958 174.902C125.918 174.902 122.977 175.047 119.495 178.439ZM136.231 174.902C136.231 196.559 136.231 218.215 136.231 240.527C141.548 240.527 146.866 240.527 152.344 240.527C152.344 218.871 152.344 197.215 152.344 174.902C147.027 174.902 141.71 174.902 136.231 174.902ZM214.765 183.746C214.45 183.931 214.134 184.115 213.809 184.306C211.798 185.495 209.827 186.73 207.899 188.049C207.685 188.195 207.472 188.341 207.252 188.491C206.85 188.772 206.451 189.057 206.056 189.349C205.587 189.688 205.108 190.012 204.62 190.323C203.074 191.376 203.074 191.376 202.177 192.962C202.082 193.88 202.079 194.758 202.109 195.681C202.109 196.024 202.109 196.367 202.108 196.721C202.11 197.85 202.133 198.978 202.156 200.107C202.161 200.892 202.166 201.677 202.169 202.461C202.178 204.313 202.202 206.163 202.231 208.014C202.264 210.123 202.28 212.231 202.295 214.34C202.325 218.675 202.377 223.009 202.442 227.344C202.762 227.503 203.083 227.663 203.413 227.827C203.838 228.039 204.264 228.251 204.689 228.463C204.899 228.568 205.11 228.673 205.327 228.781C206.907 229.569 208.46 230.391 209.986 231.281C210.219 231.416 210.452 231.551 210.692 231.69C212.646 232.845 214.432 234.138 216.212 235.547C216.985 236.127 217.758 236.707 218.555 237.305C218.555 219.032 218.555 200.76 218.555 181.934C217.228 181.934 215.882 183.092 214.765 183.746ZM194.99 198.175C194.669 198.447 194.349 198.719 194.028 198.991C193.867 199.129 193.705 199.266 193.539 199.408C192.86 199.979 192.166 200.532 191.474 201.086C185.194 206.244 180.358 212.149 179.094 220.456C178.904 222.649 178.963 224.852 179.005 227.051C179.783 226.684 180.437 226.284 181.11 225.751C184.944 222.968 190.331 223.601 194.754 224.286C195.576 224.397 196.341 224.439 197.169 224.414C197.635 223.48 197.503 222.471 197.5 221.446C197.501 221.198 197.501 220.951 197.502 220.696C197.502 219.872 197.5 219.049 197.498 218.225C197.498 217.944 197.498 217.663 197.497 217.373C197.49 210.539 197.338 203.707 197.169 196.875C196.203 196.875 195.706 197.563 194.99 198.175ZM182.52 230.566C182.039 231.235 181.708 231.869 181.348 232.617C181.252 232.811 181.155 233.004 181.055 233.203C181.055 235.62 181.055 238.037 181.055 240.527C185.889 240.527 190.723 240.527 195.704 240.527C195.704 236.854 195.704 233.18 195.704 229.395C191.268 228.185 186.155 226.94 182.52 230.566ZM200.684 232.031C200.684 234.835 200.684 237.639 200.684 240.527C205.325 240.527 209.965 240.527 214.747 240.527C213.682 239.462 212.682 238.553 211.469 237.689C211.295 237.565 211.12 237.441 210.941 237.313C206.139 233.787 206.139 233.787 200.684 232.031Z" fill="black"/>
<path d="M146.777 66.5039C149.581 66.5039 152.385 66.5039 155.273 66.5039C154.944 69.1427 154.944 69.1427 154.665 70.3193C154.604 70.5821 154.542 70.8449 154.478 71.1157C154.412 71.3911 154.346 71.6664 154.278 71.9501C154.209 72.2388 154.14 72.5274 154.069 72.8247C153.923 73.4303 153.777 74.0358 153.63 74.641C153.405 75.571 153.186 76.5022 152.966 77.4336C152.824 78.0228 152.681 78.612 152.538 79.2011C152.473 79.4806 152.408 79.7601 152.341 80.0481C152.278 80.3045 152.214 80.5608 152.149 80.825C152.094 81.0515 152.04 81.2779 151.984 81.5113C151.909 81.6829 151.835 81.8545 151.758 82.0312C151.323 82.1763 151.323 82.1763 150.879 82.3242C150.293 80.2129 149.709 78.101 149.127 75.9888C148.928 75.27 148.729 74.5514 148.53 73.8328C148.244 72.8012 147.959 71.7692 147.675 70.7371C147.585 70.4148 147.495 70.0925 147.403 69.7604C147.28 69.3118 147.28 69.3118 147.154 68.8542C147.081 68.5907 147.008 68.3272 146.933 68.0557C146.777 67.3828 146.777 67.3828 146.777 66.5039Z" fill="black"/>
</svg>
