<svg width="300" height="300" viewBox="0 0 300 300" fill="none" xmlns="http://www.w3.org/2000/svg">
<path d="M104.37 70.5586C104.99 70.9182 105.513 71.3092 106.055 71.7774C106.311 71.9972 106.311 71.9972 106.572 72.2214C108.46 74.109 109.396 76.6934 110.449 79.1016C111.161 78.4063 111.813 77.7048 112.427 76.9227C114.094 74.9662 116.144 73.9971 118.69 73.7332C121.749 73.5821 123.767 74.5031 126.27 76.1719C126.59 75.9786 126.91 75.7852 127.24 75.586C128.934 74.7466 130.704 74.6414 132.511 75.2141C133.793 75.8067 134.685 76.595 135.645 77.6368C135.935 77.8301 136.225 78.0235 136.524 78.2227C136.683 77.8904 136.843 77.558 137.008 77.2156C139.631 71.9188 139.631 71.9188 142.526 70.5552C144.006 70.0671 145.394 70.1283 146.851 70.6605C149.555 72.4429 151.064 75.1198 151.758 78.2227C152.808 83.6637 151.185 89.3746 148.206 93.9515C147.642 94.77 147.154 95.4373 146.395 96.0812C145.81 96.6532 145.81 96.6532 145.92 97.4831C146.242 98.6133 146.619 99.7124 147.016 100.818C147.696 102.785 148.223 104.745 148.627 106.787C148.673 107.021 148.72 107.256 148.768 107.497C149.759 112.763 150.728 120.217 147.759 124.998C146.165 127.594 145.896 129.76 145.927 132.757C145.925 133.198 145.921 133.64 145.916 134.081C145.907 135.229 145.91 136.376 145.915 137.524C145.918 138.701 145.91 139.877 145.903 141.054C145.89 143.352 145.89 145.651 145.899 147.949C146.068 147.948 146.237 147.947 146.412 147.945C150.553 147.913 154.693 147.889 158.834 147.873C160.837 147.866 162.839 147.856 164.842 147.839C166.778 147.822 168.713 147.814 170.649 147.81C171.384 147.808 172.12 147.802 172.855 147.794C176.91 147.752 180.502 147.827 184.278 149.414C184.362 149.235 184.447 149.056 184.535 148.871C186.102 145.875 189.59 143.845 192.664 142.712C195.43 141.913 198.401 141.801 201.083 142.98C202.676 143.91 203.772 145.043 204.602 146.704C204.908 148.295 204.8 149.909 204.126 151.392C203.809 152.099 203.809 152.099 204.291 152.948C204.536 153.374 204.536 153.374 204.785 153.809C205.598 156.398 205.121 159.055 203.906 161.426C202.246 163.972 199.641 165.324 196.875 166.406C196.875 167.276 196.875 168.147 196.875 169.043C197.117 169.055 197.359 169.067 197.608 169.08C199.218 169.482 200.356 170.31 201.386 171.611C202.746 174.06 202.492 177.44 201.911 180.089C201.213 182.134 200.171 183.59 198.658 185.121C198.099 185.689 197.63 186.266 197.168 186.914C197.362 186.914 197.555 186.914 197.754 186.914C198.175 187.429 198.175 187.429 198.633 188.123C198.784 188.347 198.935 188.571 199.091 188.802C200.337 191.017 200.469 193.463 199.917 195.923C199.414 197.347 198.764 198.262 197.699 199.329C196.455 200.625 196.396 201.571 196.365 203.32C196.194 205.303 194.996 207.166 193.653 208.594C193.405 208.745 193.157 208.896 192.902 209.052C192.11 209.843 192.024 210.164 191.776 211.227C191.665 211.7 191.665 211.7 191.551 212.182C191.017 214.605 190.506 217.032 190.007 219.462C188.477 226.89 188.477 226.89 185.651 229.028C184.142 229.73 183.001 229.834 181.439 229.358C179.253 228.121 178.018 226.14 177.352 223.738C177.317 223.574 177.282 223.411 177.246 223.242C177.196 223.433 177.147 223.624 177.095 223.821C176.463 226.1 175.709 227.696 173.731 229.102C172.641 229.646 171.404 229.523 170.215 229.395C168.795 228.903 167.776 228.029 166.992 226.758C166.106 224.614 165.488 222.414 164.937 220.165C164.861 219.859 164.784 219.553 164.706 219.237C164.546 218.597 164.388 217.957 164.23 217.316C163.988 216.332 163.743 215.349 163.497 214.366C163.342 213.741 163.187 213.117 163.033 212.493C162.96 212.198 162.886 211.904 162.811 211.6C162.744 211.329 162.678 211.058 162.609 210.779C162.55 210.54 162.491 210.301 162.43 210.055C162.305 209.473 162.305 209.473 162.305 208.887C161.948 208.935 161.592 208.983 161.225 209.033C158.206 209.352 155.395 209.174 152.422 208.614C150.156 208.111 150.156 208.111 148.036 208.803C147.79 209.018 147.544 209.233 147.29 209.454C145.913 210.637 145.913 210.637 145.313 210.938C145.107 211.645 144.937 212.336 144.784 213.055C144.736 213.271 144.687 213.488 144.637 213.712C144.482 214.41 144.329 215.109 144.177 215.808C143.016 221.095 143.016 221.095 142.358 223.63C142.269 223.972 142.181 224.314 142.09 224.666C141.497 226.53 140.617 228.002 138.886 228.973C137.357 229.607 136.154 229.561 134.583 229.047C131.132 227.193 130.078 222.938 128.906 219.434C128.608 220.61 128.316 221.784 128.058 222.97C127.969 223.366 127.879 223.762 127.79 224.158C127.728 224.455 127.728 224.455 127.665 224.759C127.245 226.564 126.442 227.694 124.896 228.772C123.356 229.295 121.861 229.461 120.328 228.824C118.019 227.458 117.082 225.615 116.401 223.081C116.195 222.23 116 221.378 115.809 220.524C115.736 220.207 115.663 219.889 115.589 219.562C115.357 218.549 115.128 217.536 114.899 216.522C114.674 215.531 114.448 214.54 114.222 213.548C114.071 212.89 113.921 212.231 113.772 211.572C113.386 209.881 112.991 208.192 112.581 206.506C112.499 206.171 112.418 205.836 112.334 205.49C112.177 204.851 112.02 204.212 111.861 203.573C111.791 203.288 111.721 203.002 111.649 202.707C111.556 202.332 111.556 202.332 111.461 201.949C111.328 201.27 111.328 201.27 111.328 200.098C111.155 200.016 110.982 199.934 110.803 199.849C108.596 198.697 107.101 196.759 106.055 194.531C105.906 193.833 105.778 193.131 105.67 192.426C105.393 190.849 105.094 190.161 103.803 189.203C103.415 188.938 103.415 188.938 103.02 188.667C101.009 187.156 99.4253 184.726 99.0237 182.227C98.6778 178.545 99.4128 175.774 101.61 172.815C102.031 172.249 102.031 172.249 101.953 171.387C101.731 171.212 101.509 171.036 101.28 170.856C100.377 170.125 100.032 169.5 99.5364 168.457C99.3898 168.155 99.2433 167.853 99.0923 167.542C98.0709 165.163 98.0905 162.462 98.9138 160.016C99.5112 158.55 100.339 157.348 101.367 156.152C101.25 155.935 101.25 155.935 101.129 155.713C100.214 153.785 99.7729 152.276 99.8084 150.158C99.8087 149.922 99.8091 149.687 99.8094 149.444C99.8104 148.936 99.8134 148.429 99.8181 147.921C99.8248 147.115 99.8251 146.309 99.8235 145.503C99.8198 143.214 99.8248 140.924 99.8412 138.634C99.8508 137.229 99.8504 135.825 99.8438 134.42C99.8433 133.888 99.8466 133.355 99.8538 132.823C99.8966 129.604 99.7795 127.603 97.5588 125.098C97.1919 124.403 96.9673 123.743 96.7165 122.992C96.6025 122.662 96.4884 122.331 96.3709 121.991C94.243 114.35 96.5065 104.855 99.7984 97.8596C100.235 97.0455 100.235 97.0455 100.196 96.3868C99.8994 96.1511 99.6034 95.9155 99.2983 95.6727C96.3193 93.1691 94.8019 89.0413 94.3362 85.254C94.042 80.7638 94.1722 76.2349 97.2658 72.6563C99.2747 70.6387 101.491 69.4839 104.37 70.5586ZM99.0237 75.293C97.1041 78.5618 96.9924 82.9298 97.7039 86.5852C98.0431 87.8437 98.4961 89.0417 99.0237 90.2344C99.8929 89.7998 100.145 89.171 100.561 88.313C100.967 86.9962 100.674 85.7164 100.488 84.3751C100.313 82.2426 100.422 79.4053 101.801 77.6803C102.246 77.3438 102.246 77.3438 102.832 77.3438C103.606 79.1807 104.379 81.0176 105.176 82.9102C106.276 82.6901 106.885 82.5469 107.813 82.0313C107.613 80.5543 107.006 79.2776 106.403 77.9297C106.302 77.6971 106.202 77.4645 106.098 77.2248C105.447 75.7593 104.805 74.3705 103.436 73.4437C101.408 72.7675 100.313 73.8153 99.0237 75.293ZM142.09 74.4141C140.725 76.2849 138.377 79.7068 138.65 82.1091C138.834 82.6673 138.834 82.6673 139.417 82.9835C140.067 83.2519 140.067 83.2519 140.918 83.2032C141.788 81.3663 142.658 79.5294 143.555 77.6368C143.942 77.6368 144.328 77.6368 144.727 77.6368C145.657 79.1622 145.744 80.3722 145.716 82.1045C145.714 82.3543 145.712 82.6041 145.71 82.8615C145.677 84.3885 145.485 85.651 144.942 87.0839C144.421 89.0358 144.497 91.154 144.434 93.1641C147.365 90.4114 148.543 86.3854 148.93 82.4639C149.012 79.46 148.452 76.4818 146.485 74.1211C144.878 72.8968 143.595 73.1137 142.09 74.4141ZM114.551 79.1016C114.388 79.2708 114.225 79.44 114.057 79.6143C113.624 80.2323 113.624 80.2323 113.664 80.8709C113.628 81.7319 113.555 82.1761 113.086 82.9102C111.878 83.4906 110.66 83.8713 109.381 84.2606C106.549 85.1246 104.13 86.8354 102.576 89.3738C101.91 91.112 101.843 92.2856 102.539 94.043C103.18 94.6585 103.559 94.902 104.446 95.0181C104.699 95.0105 104.952 95.003 105.213 94.9952C105.467 94.9906 105.722 94.9861 105.984 94.9814C106.651 94.9612 106.651 94.9612 107.227 94.629C107.417 94.1056 107.417 94.1056 107.538 93.4937C107.698 92.7752 107.872 92.1073 108.106 91.4063C108.789 91.3939 109.473 91.3943 110.156 91.4063C110.301 91.5513 110.301 91.5513 110.449 91.6993C110.44 92.2 110.42 92.7005 110.395 93.2007C110.382 94.8461 110.617 95.6702 111.621 96.9727C112.557 97.6794 112.557 97.6794 113.672 97.8516C113.865 97.1749 114.059 96.4981 114.258 95.8008C114.935 95.7042 115.612 95.6075 116.309 95.5079C116.352 95.6812 116.395 95.8546 116.439 96.0331C116.936 97.7817 117.422 98.6042 118.946 99.6094C121.127 100.652 123.66 100.473 125.922 99.7376C128.044 98.8561 129.787 97.4798 130.74 95.3511C131.212 93.7838 131.37 92.1503 131.543 90.5274C132.385 90.4725 132.385 90.4725 133.301 90.5274C134.063 91.6711 133.983 92.5511 134.022 93.8977C134.102 94.6616 134.102 94.6616 134.706 95.0146C136.171 95.4691 137.29 95.4216 138.629 94.7388C139.924 93.6458 140.931 92.7366 141.229 91.0218C141.344 89.1343 140.493 87.7068 139.49 86.1695C138.028 84.7073 136.447 84.5023 134.473 84.3751C134.403 83.9247 134.403 83.9247 134.332 83.4652C134.263 83.0666 134.194 82.6679 134.125 82.2693C134.095 82.072 134.066 81.8747 134.035 81.6714C133.767 80.1882 133.278 79.4696 132.129 78.5157C131.034 77.7857 130.496 77.7956 129.199 77.9297C128.269 78.5006 127.818 78.9487 127.295 79.9073C127.15 80.1248 127.005 80.3423 126.856 80.5665C126.15 80.6763 126.15 80.6763 125.391 80.5665C124.925 80.095 124.925 80.095 124.53 79.4678C123.663 78.2088 122.767 77.4077 121.326 76.8311C118.533 76.5026 116.436 76.8939 114.551 79.1016ZM139.749 97.2096C138.631 97.8729 137.706 97.8912 136.432 97.8882C135.944 97.8894 135.944 97.8894 135.447 97.8905C134.512 97.8532 133.633 97.7337 132.715 97.5586C132.615 97.7074 132.516 97.8562 132.413 98.0095C130.537 100.674 128.335 102.214 125.098 102.832C124.145 102.921 123.198 102.952 122.241 102.96C121.893 102.965 121.893 102.965 121.538 102.969C119.48 102.939 117.81 102.354 116.034 101.331C115.176 100.882 114.527 100.719 113.562 100.671C111.892 100.553 110.585 99.7384 109.278 98.7305C109.158 98.5179 109.038 98.3053 108.915 98.0862C108.288 97.4452 108.094 97.4692 107.221 97.4488C104.616 97.5525 104.616 97.5525 102.439 98.7958C101.952 99.7372 101.653 100.639 101.367 101.66C101.239 102.042 101.108 102.424 100.976 102.805C98.9552 108.855 97.3017 117.39 100.196 123.34C102.229 127.296 105.395 129.76 109.59 131.159C113.672 132.381 117.37 132.49 121.444 131.213C122.834 130.863 124.01 130.689 125.299 131.378C125.523 131.529 125.746 131.68 125.977 131.836C129.546 133.073 134.18 131.982 137.446 130.454C141.308 128.557 144.102 126.393 145.675 122.284C148.219 114.288 145.503 103.391 141.797 96.0938C141.09 96.0938 140.326 96.8356 139.749 97.2096ZM140.973 131.731C135.569 134.723 130.338 135.793 124.269 134.357C122.824 134.081 121.721 134.311 120.296 134.629C115.104 135.559 110.161 134.619 105.486 132.376C105.258 132.268 105.03 132.159 104.795 132.047C104.238 131.783 103.681 131.516 103.125 131.25C103.098 134.023 103.077 136.797 103.065 139.57C103.058 140.858 103.05 142.145 103.037 143.433C103.024 144.675 103.017 145.918 103.014 147.16C103.012 147.634 103.008 148.109 103.001 148.583C102.993 149.247 102.992 149.91 102.992 150.574C102.99 150.952 102.987 151.33 102.984 151.719C103.04 152.651 103.04 152.651 103.653 153.211C104.607 153.662 105.337 153.429 106.348 153.223C106.541 153.223 106.735 153.223 106.934 153.223C107.03 154.163 107.03 154.163 106.934 155.273C106.27 155.999 106.27 155.999 105.396 156.628C103.662 157.899 102.18 159.266 101.66 161.426C101.305 164.597 101.834 166.735 103.729 169.263C105.189 169.884 106.6 169.372 108.106 169.043C108.299 169.043 108.492 169.043 108.692 169.043C108.783 170.013 108.783 170.013 108.692 171.094C108.124 171.552 108.124 171.552 107.227 171.973C104.745 173.405 103.009 174.999 102.246 177.832C101.967 180.784 102.144 183.061 103.86 185.488C104.368 186.091 104.787 186.517 105.469 186.914C106.224 186.968 106.835 186.891 107.572 186.729C107.748 186.693 107.924 186.658 108.106 186.621C108.776 187.292 108.503 189.165 108.525 190.121C108.645 193.164 109.695 195.088 111.914 197.168C114.236 198.956 116.63 199.459 119.531 199.512C120.195 199.39 120.195 199.39 120.703 199.219C120.735 198.996 120.768 198.774 120.801 198.545C120.847 198.254 120.894 197.962 120.941 197.662C120.986 197.374 121.03 197.085 121.075 196.787C121.301 195.954 121.47 195.613 122.168 195.117C123.463 195.241 123.463 195.241 123.926 195.703C123.932 196.444 123.924 197.179 123.908 197.919C123.877 200.911 124.318 203.489 126.4 205.823C128.237 207.544 130.003 207.88 132.475 207.909C133.358 207.795 133.358 207.795 133.818 207.015C133.938 206.762 134.057 206.51 134.18 206.25C134.729 205.554 134.729 205.554 135.352 205.078C136.123 205.195 136.123 205.195 136.817 205.371C136.852 205.576 136.888 205.781 136.924 205.991C136.973 206.258 137.022 206.525 137.073 206.799C137.121 207.064 137.168 207.33 137.217 207.603C137.353 208.349 137.353 208.349 137.989 208.887C140.288 209.475 142.441 209.12 144.481 207.932C146.409 206.572 148.326 204.696 149.121 202.441C149.347 200.969 149.43 199.499 149.414 198.01C149.414 197.168 149.414 197.168 149.707 196.875C150.293 196.863 150.879 196.863 151.465 196.875C152.806 199.021 152.25 201.302 151.758 203.613C151.659 204.199 151.56 204.785 151.465 205.371C156.806 206.772 162.82 206.177 167.953 204.275C168.519 203.936 168.519 203.936 168.68 203.241C168.754 202.396 168.747 201.586 168.714 200.739C168.7 199.124 168.907 198.026 169.629 196.582C170.508 195.996 170.508 195.996 171.295 196.106C171.519 196.166 171.743 196.227 171.973 196.289C171.952 196.47 171.931 196.651 171.909 196.837C171.421 200.635 171.421 200.635 172.559 204.199C173.473 205.182 174.392 205.915 175.752 206.027C176.088 206.034 176.424 206.041 176.77 206.049C177.105 206.06 177.439 206.071 177.784 206.082C178.893 205.933 179.196 205.642 179.883 204.785C180.304 204.273 180.304 204.273 180.762 203.906C181.25 203.892 181.739 203.89 182.227 203.906C182.298 204.108 182.369 204.309 182.442 204.516C182.54 204.78 182.638 205.044 182.739 205.316C182.882 205.709 182.882 205.709 183.028 206.109C183.449 206.935 183.768 207.26 184.571 207.715C186.855 208.333 188.965 207.979 191.016 206.836C192.252 205.812 193.067 204.622 193.36 203.027C193.297 201.724 193.103 200.713 192.609 199.512C192.113 198.298 192.118 197.299 192.188 195.996C194.099 196.176 194.099 196.176 194.806 196.747C194.909 196.886 195.012 197.025 195.117 197.168C195.831 196.886 196.213 196.713 196.606 196.041C197.225 194.163 197.43 192.54 196.598 190.694C195.839 189.39 194.898 188.404 193.757 187.423C193.36 186.914 193.36 186.914 193.217 186.183C193.36 185.449 193.36 185.449 193.939 184.93C194.195 184.775 194.451 184.62 194.715 184.461C197.214 182.815 198.532 181.082 199.219 178.125C199.426 176.239 199.518 174.436 198.34 172.852C197.275 172.109 196.286 171.769 195.026 171.478C194.713 171.405 194.4 171.331 194.077 171.255C193.84 171.202 193.604 171.149 193.36 171.094C193.158 170.416 193.158 170.416 193.067 169.629C193.35 169.327 193.644 169.034 193.946 168.75C194.36 164.783 191.828 160.442 189.514 157.434C187.398 154.944 184.688 152.966 181.641 151.758C181.447 151.758 181.254 151.758 181.055 151.758C181.073 152.027 181.073 152.027 181.091 152.302C181.528 159.191 181.213 165.374 176.953 171.094C176.786 171.322 176.619 171.549 176.446 171.784C173.495 175.44 168.951 177.513 164.356 178.125C159.733 178.482 154.759 177.455 151.115 174.448C146.936 170.822 144.169 166.101 143.555 160.547C143.349 157.426 143.295 154.299 143.262 151.172C142.952 151.154 142.641 151.136 142.321 151.118C141.915 151.093 141.508 151.069 141.101 151.044C140.897 151.032 140.692 151.021 140.481 151.009C138.934 150.912 138.934 150.912 138.281 150.586C138.281 149.909 138.281 149.232 138.281 148.535C139.808 148.058 141.024 147.863 142.676 147.656C142.676 142.146 142.676 136.635 142.676 130.957C142.046 130.957 141.512 131.431 140.973 131.731ZM187.793 149.414C187.262 150.048 187.262 150.048 186.914 150.586C187.315 151.509 187.757 152.065 188.526 152.71C188.704 152.863 188.882 153.015 189.066 153.172C189.532 153.572 189.532 153.572 190.137 153.516C190.212 153.686 190.286 153.857 190.364 154.033C190.758 154.751 191.205 155.209 191.785 155.786C193.451 157.608 194.379 159.796 195.41 162.012C195.604 162.403 195.798 162.794 195.996 163.184C198.434 162.591 200.043 161.479 201.563 159.485C202.092 157.698 202.155 155.586 201.563 153.809C200.886 153.712 200.209 153.615 199.512 153.516C199.384 152.582 199.384 152.582 199.512 151.465C200.002 151.014 200.519 150.696 201.083 150.345C201.628 150.013 201.628 150.013 201.892 149.286C201.841 148.237 201.555 147.654 200.977 146.777C196.585 143.32 191.367 146.181 187.793 149.414ZM146.485 151.172C146.084 161.613 146.084 161.613 150.946 170.621C154.916 174.233 159.017 175.463 164.279 175.249C168.559 174.902 172.182 172.413 174.906 169.234C178.537 164.391 178.78 158.751 177.989 152.995C177.857 152.05 177.857 152.05 177.539 151.172C176.476 151.172 175.412 151.172 174.317 151.172C174.309 151.583 174.302 151.994 174.294 152.417C174.158 157.566 173.758 162.319 170.178 166.333C167.739 168.631 164.744 169.453 161.482 169.417C158.664 169.172 155.916 167.794 154.045 165.68C150.661 161.253 150.493 156.536 150.293 151.172C149.036 151.172 147.78 151.172 146.485 151.172ZM153.516 151.172C153.329 158.369 153.329 158.369 156.65 164.311C158.332 165.849 160.298 166.691 162.598 166.699C165.066 166.516 166.97 165.594 168.688 163.812C171.67 160.132 171.094 155.767 171.094 151.172C165.293 151.172 159.492 151.172 153.516 151.172ZM114.844 201.856C114.908 202.144 114.972 202.433 115.039 202.73C115.082 202.927 115.126 203.124 115.171 203.327C115.273 203.785 115.375 204.244 115.477 204.702C115.794 206.127 116.109 207.552 116.423 208.977C116.794 210.657 117.167 212.337 117.542 214.016C117.697 214.715 117.852 215.414 118.005 216.113C118.231 217.139 118.46 218.163 118.689 219.188C118.756 219.497 118.824 219.807 118.893 220.125C119.57 223.329 119.57 223.329 121.417 225.916C122.322 226.224 122.745 226.23 123.633 225.879C124.602 224.893 124.755 223.789 124.954 222.472C124.989 222.253 125.024 222.035 125.061 221.809C125.135 221.348 125.208 220.886 125.28 220.423C125.387 219.75 125.503 219.078 125.622 218.406C125.813 217.317 125.98 216.226 126.135 215.131C126.201 214.687 126.274 214.243 126.353 213.801C126.618 212.312 126.787 210.977 126.563 209.473C125.84 208.514 125.09 207.885 124.13 207.169C123.038 206.304 122.774 205.458 122.351 204.181C122.012 203.361 121.679 202.727 120.996 202.148C119.031 201.52 116.876 201.69 114.844 201.856ZM178.345 208.887C177.982 208.983 177.62 209.08 177.246 209.18C177.823 211.721 178.41 214.26 179.004 216.797C179.082 217.131 179.16 217.466 179.241 217.81C179.464 218.755 179.691 219.699 179.92 220.642C180.02 221.071 180.02 221.071 180.123 221.508C180.539 223.2 181.036 224.671 181.934 226.172C182.925 226.634 182.925 226.634 183.985 226.465C185.229 225.454 185.673 224.645 186.017 223.096C186.061 222.903 186.104 222.711 186.149 222.512C186.251 222.058 186.349 221.602 186.445 221.146C186.656 220.148 186.876 219.153 187.095 218.156C187.22 217.579 187.344 217.002 187.468 216.424C187.591 215.85 187.715 215.277 187.839 214.703C187.951 214.169 187.951 214.169 188.064 213.625C188.132 213.305 188.2 212.985 188.27 212.655C188.373 211.863 188.348 211.39 188.086 210.645C187.783 210.66 187.783 210.66 187.474 210.675C184.738 210.754 182.885 210.353 180.762 208.594C179.825 208.594 179.223 208.653 178.345 208.887ZM133.594 210.26C133.304 210.387 133.014 210.514 132.715 210.645C132.033 210.755 131.35 210.855 130.664 210.938C131.072 213.521 131.692 216.036 132.357 218.563C132.533 219.235 132.704 219.909 132.875 220.583C132.989 221.017 133.102 221.45 133.216 221.884C133.266 222.083 133.316 222.281 133.367 222.486C133.771 223.987 134.35 225.353 135.626 226.3C136.453 226.525 136.891 226.474 137.696 226.172C138.627 225.174 139.048 224.369 139.335 223.042C139.407 222.724 139.478 222.405 139.551 222.077C139.622 221.743 139.692 221.408 139.765 221.063C139.84 220.722 139.915 220.38 139.992 220.029C140.14 219.354 140.286 218.679 140.43 218.003C140.593 217.24 140.761 216.479 140.933 215.718C141.368 213.785 141.368 213.785 141.504 211.816C141.172 211.829 140.839 211.841 140.497 211.853C138.662 211.847 136.997 211.584 135.443 210.571C134.518 209.948 134.518 209.948 133.594 210.26ZM166.699 213.281C167.083 215.041 167.472 216.799 167.871 218.555C167.931 218.818 167.99 219.08 168.052 219.351C168.232 220.137 168.417 220.92 168.604 221.704C168.659 221.948 168.715 222.192 168.772 222.443C169.129 223.913 169.559 224.985 170.508 226.172C171.203 226.584 171.203 226.584 171.973 226.465C173.129 225.572 173.534 224.953 173.731 223.535C173.793 222.739 173.846 221.946 173.887 221.149C173.906 220.811 173.906 220.811 173.926 220.466C173.965 219.749 174.004 219.033 174.042 218.317C174.069 217.829 174.096 217.342 174.123 216.855C174.189 215.664 174.253 214.472 174.317 213.281C171.803 213.281 169.289 213.281 166.699 213.281Z" fill="black"/>
<path d="M118.945 112.207C120.105 112.323 120.854 112.58 121.82 113.196C122.401 113.545 122.401 113.545 123.047 113.672C123.815 113.385 124.408 113.016 125.075 112.54C125.684 112.207 125.684 112.207 126.347 112.304C126.515 112.369 126.683 112.433 126.855 112.5C127 113.08 127 113.08 127.148 113.672C126.958 113.797 126.768 113.922 126.572 114.051C125.414 114.917 124.617 115.524 124.306 116.978C124.275 119.176 124.275 119.176 125.391 120.996C126.231 120.987 126.231 120.987 127.148 120.703C127.542 120.119 127.933 119.533 128.32 118.945C129.108 118.817 129.108 118.817 129.785 118.945C130.078 119.238 130.078 119.238 130.151 120.044C130.067 121.14 129.878 121.602 129.199 122.461C128.097 123.384 127.122 123.848 125.708 123.983C124.768 123.895 124.089 123.428 123.281 122.967C123.107 122.897 122.933 122.826 122.754 122.754C122 123.108 122 123.108 121.289 123.633C119.736 123.808 118.671 123.707 117.348 122.853C116.52 122.137 116.154 121.418 115.723 120.41C115.723 119.733 115.723 119.733 116.016 119.238C116.62 118.872 116.62 118.872 117.188 118.652C117.688 119.128 118.176 119.617 118.652 120.117C118.652 120.311 118.652 120.504 118.652 120.703C119.98 120.977 119.98 120.977 121.289 120.703C121.647 117.98 121.647 117.98 120.712 115.526C120.005 114.911 120.005 114.911 119.258 114.409C118.652 113.965 118.652 113.965 118.359 113.086C118.553 112.796 118.746 112.506 118.945 112.207Z" fill="black"/>
<path d="M113.196 106.879C114.124 107.652 114.489 108.194 114.639 109.396C114.651 111.926 114.651 111.926 113.672 113.086C112.589 113.808 111.706 113.871 110.449 113.672C109.275 112.983 108.762 112.339 108.398 111.036C108.287 110.354 108.186 109.671 108.105 108.985C107.93 109.136 107.755 109.287 107.574 109.443C107.363 109.582 107.151 109.721 106.934 109.864C106.644 109.767 106.354 109.67 106.055 109.571C106.418 108.116 106.836 107.449 108.105 106.641C109.931 105.789 111.455 105.944 113.196 106.879ZM109.863 107.813C109.767 108.2 109.67 108.586 109.57 108.985C109.957 108.985 110.344 108.985 110.742 108.985C110.646 108.598 110.549 108.211 110.449 107.813C110.256 107.813 110.063 107.813 109.863 107.813Z" fill="black"/>
<path d="M138.281 107.154C138.994 107.956 139.088 108.514 139.16 109.571C138.525 109.423 137.988 109.278 137.402 108.985C137.396 109.24 137.396 109.24 137.39 109.5C137.281 111.287 136.929 112.126 135.644 113.379C134.818 113.792 134.218 113.744 133.301 113.672C132.188 113.166 131.7 112.747 131.25 111.622C131.083 110.286 131.086 109.076 131.616 107.831C132.322 107 132.914 106.492 133.942 106.11C135.525 106.005 136.914 106.356 138.281 107.154ZM134.766 108.106C134.862 108.493 134.959 108.879 135.059 109.278C135.252 109.278 135.445 109.278 135.644 109.278C135.741 108.988 135.838 108.698 135.937 108.399C135.551 108.302 135.164 108.206 134.766 108.106Z" fill="black"/>
</svg>
