<svg width="300" height="300" viewBox="0 0 300 300" fill="none" xmlns="http://www.w3.org/2000/svg">
<path d="M128.906 57.422C129.051 57.567 129.051 57.567 129.199 57.7149C129.063 59.3755 128.584 60.828 128.009 62.3841C127.885 62.7266 127.885 62.7266 127.759 63.0759C127.557 63.6333 127.353 64.1899 127.148 64.7462C127.294 64.6371 127.439 64.5279 127.589 64.4155C128.675 63.6592 129.272 63.2849 130.627 63.263C131.543 63.5743 131.543 63.5743 131.949 64.047C132.228 65.1332 131.707 65.9118 131.232 66.8702C130.133 69.2373 129.277 71.5976 128.613 74.1212C128.519 74.4751 128.425 74.8289 128.328 75.1935C127.033 81.1164 127.203 88.1532 128.613 94.0431C128.67 94.283 128.727 94.523 128.785 94.7702C129.922 99.4299 131.702 103.84 133.887 108.106C134.203 107.953 134.519 107.801 134.845 107.644C142.971 103.829 151.972 102.533 160.593 105.594C162.694 106.385 164.713 107.354 166.699 108.399C166.818 108.035 166.936 107.671 167.059 107.296C167.415 106.226 167.794 105.166 168.189 104.108C172.44 92.7008 175.046 79.2772 169.943 67.6427C169.574 66.8555 169.201 66.0731 168.793 65.305C168.362 64.4636 168.154 63.9644 168.253 63.0113C168.321 62.8104 168.388 62.6094 168.457 62.4024C169.369 62.119 169.77 62.0342 170.642 62.4654C170.869 62.6319 171.097 62.7985 171.332 62.9701C171.563 63.1359 171.795 63.3017 172.033 63.4725C172.293 63.6679 172.293 63.6679 172.559 63.8673C172.428 63.5248 172.298 63.1822 172.164 62.8293C171.996 62.3758 171.829 61.9222 171.661 61.4686C171.532 61.1307 171.532 61.1307 171.4 60.786C170.954 59.5634 170.643 58.7065 171.094 57.422C174.055 56.7268 176.955 58.6376 179.434 60.141C181.358 61.3639 182.974 62.8357 184.57 64.4532C184.808 64.6915 185.046 64.9298 185.291 65.1753C191.892 72.1247 194.231 81.43 194.028 90.7437C193.617 101.903 189.749 113.015 184.523 122.806C184.161 123.593 184.309 123.981 184.57 124.805C184.925 125.602 185.321 126.375 185.724 127.149C185.935 127.557 186.145 127.966 186.354 128.375C186.455 128.569 186.556 128.763 186.66 128.962C186.914 129.492 186.914 129.492 187.136 130.266C187.733 131.4 188.774 131.948 189.825 132.642C190.277 132.951 190.729 133.26 191.179 133.571C191.401 133.723 191.622 133.875 191.85 134.032C192.719 134.64 193.554 135.277 194.385 135.938C194.636 136.137 194.886 136.336 195.145 136.542C195.73 137.137 195.894 137.464 195.996 138.281C192.567 138.084 189.158 137.76 185.742 137.402C185.619 137.737 185.619 137.737 185.494 138.079C184.695 140.136 183.807 141.978 182.227 143.555C182.033 143.555 181.84 143.555 181.641 143.555C181.641 143.748 181.641 143.942 181.641 144.141C181.365 144.323 181.089 144.505 180.805 144.692C179.418 145.806 179.406 147.415 179.187 149.085C179.115 149.552 179.115 149.552 179.042 150.029C178.516 153.499 178.516 153.499 179.81 156.665C182.297 160.75 183.265 165.266 182.393 170.025C182.011 171.567 181.553 173.167 180.752 174.544C179.564 176.707 179.833 178.891 179.995 181.264C180.022 181.729 180.049 182.195 180.074 182.66C180.146 183.926 180.226 185.191 180.307 186.456C180.392 187.802 180.47 189.148 180.548 190.494C180.682 192.79 180.821 195.085 180.963 197.381C181.185 200.966 181.397 204.553 181.607 208.139C181.677 209.331 181.747 210.523 181.817 211.715C181.843 212.155 181.843 212.155 181.869 212.604C181.991 214.669 182.114 216.734 182.237 218.799C182.73 227.054 183.199 235.309 183.614 243.568C183.655 244.389 183.696 245.211 183.738 246.032C184.302 257.231 184.781 268.433 185.244 279.636C185.255 279.893 185.266 280.15 185.277 280.415C185.306 281.13 185.336 281.845 185.365 282.56C185.374 282.769 185.382 282.977 185.391 283.191C185.428 284.108 185.449 285.02 185.449 285.938C162.246 285.938 139.043 285.938 115.137 285.938C114.923 284.868 114.811 284.183 114.854 283.142C114.864 282.884 114.874 282.626 114.884 282.361C114.896 282.082 114.908 281.803 114.921 281.516C114.932 281.22 114.944 280.925 114.956 280.62C114.995 279.642 115.037 278.664 115.078 277.686C115.107 276.996 115.135 276.305 115.163 275.614C115.235 273.832 115.31 272.049 115.386 270.267C115.427 269.298 115.468 268.33 115.508 267.361C115.674 263.396 115.848 259.431 116.026 255.466C116.056 254.8 116.086 254.134 116.116 253.467C116.735 239.644 117.444 225.827 118.182 212.01C118.614 203.914 119.034 195.818 119.417 187.719C119.446 187.103 119.476 186.487 119.505 185.87C119.56 184.726 119.613 183.583 119.667 182.439C119.683 182.104 119.699 181.768 119.715 181.423C120.082 177.611 120.082 177.611 119 174.078C116.821 170.049 116.672 165.778 117.926 161.424C118.606 159.449 119.665 157.63 120.706 155.827C121.782 153.773 121.429 152.237 120.988 150.04C120.869 149.437 120.763 148.832 120.658 148.227C120.246 145.826 120.246 145.826 118.801 143.953C118.46 143.721 118.117 143.49 117.773 143.262C116.442 141.684 114.551 139.275 114.551 137.109C114.386 137.135 114.221 137.16 114.051 137.186C110.802 137.676 107.582 138.121 104.297 138.281C104.297 137.402 104.297 137.402 104.773 136.853C109.991 132.184 109.991 132.184 112.793 131.25C113.011 130.704 113.011 130.704 113.141 130.023C113.573 128.385 114.342 127.07 115.253 125.658C115.875 124.664 115.875 124.664 115.944 123.526C115.702 122.683 115.375 121.969 114.974 121.19C114.82 120.883 114.665 120.576 114.506 120.26C114.34 119.929 114.173 119.598 114.001 119.257C110.818 112.809 108.387 106.077 106.934 99.0235C106.882 98.7833 106.831 98.5432 106.778 98.2957C104.885 89.1177 105.497 78.8309 110.696 70.8137C113.783 66.2491 122.566 55.4293 128.906 57.422ZM174.902 60.9376C175.322 62.2102 175.958 63.0164 176.843 64.0138C178.372 65.7937 179.606 67.6834 180.762 69.7267C180.867 69.9097 180.972 70.0927 181.081 70.2813C188.395 83.0849 189.308 97.6168 185.556 111.737C185.499 111.942 185.443 112.146 185.385 112.357C185.167 113.33 185.171 113.648 185.449 114.551C190.489 102.718 194.103 88.392 189.198 75.9007C187.875 72.7725 185.943 69.915 183.691 67.3829C183.497 67.1646 183.303 66.9463 183.103 66.7214C181.835 65.3782 180.46 64.2512 178.967 63.1715C178.715 62.9882 178.715 62.9882 178.458 62.8013C177.322 62.0042 176.194 61.4468 174.902 60.9376ZM117.48 66.797C117.266 66.993 117.051 67.189 116.83 67.3909C112.216 71.7217 108.998 78.3756 108.64 84.7062C108.444 95.4191 110.554 105.292 114.844 115.137C115.178 114.133 115.085 113.828 114.812 112.83C114.736 112.544 114.66 112.258 114.582 111.963C114.458 111.504 114.458 111.504 114.331 111.035C110.82 97.5422 111.744 84.4426 118.359 72.0704C118.454 71.8929 118.548 71.7154 118.645 71.5325C119.92 69.1589 121.365 66.9602 122.96 64.792C124.218 63.2832 124.218 63.2832 124.805 61.5235C122.207 61.5235 119.265 65.0751 117.48 66.797ZM175.195 87.8907C175.162 88.0847 175.128 88.2786 175.093 88.4784C173.826 95.6727 171.956 102.289 168.986 108.97C168.714 109.554 168.714 109.554 168.75 110.156C169.16 110.519 169.16 110.519 169.703 110.867C169.906 111.004 170.108 111.141 170.316 111.282C170.53 111.424 170.745 111.566 170.966 111.713C171.381 111.992 171.797 112.272 172.212 112.552C172.397 112.675 172.583 112.799 172.774 112.926C173.689 113.551 174.587 114.2 175.488 114.844C175.488 105.949 175.488 97.0548 175.488 87.8907C175.392 87.8907 175.295 87.8907 175.195 87.8907ZM124.512 89.6485C124.274 92.8641 124.178 96.0562 124.19 99.2799C124.191 99.733 124.191 100.186 124.191 100.639C124.192 101.814 124.195 102.989 124.199 104.165C124.202 105.371 124.203 106.577 124.204 107.783C124.208 110.137 124.213 112.49 124.219 114.844C125.448 114.026 126.668 113.197 127.881 112.354C129.093 111.511 130.312 110.679 131.543 109.863C131.128 108.484 130.562 107.205 129.968 105.897C127.805 101.112 126.133 96.2064 125.275 91.0161C125.162 90.1943 125.162 90.1943 124.512 89.6485ZM135.645 110.449C135.645 110.546 135.645 110.643 135.645 110.742C145.476 111.635 154.813 111.585 164.648 110.742C161.919 107.817 155.37 106.79 151.551 106.581C146.21 106.478 140.15 107.349 135.645 110.449ZM127.734 115.723C127.397 116.011 127.056 116.296 126.714 116.579C122.905 119.729 119.513 123.221 116.895 127.442C116.895 127.635 116.895 127.828 116.895 128.027C118.142 127.572 119.264 126.95 120.41 126.288C128.133 121.907 136.123 118.257 144.434 115.137C139.707 112.594 131.696 111.856 127.734 115.723ZM156.152 114.844C156.152 115.037 156.152 115.231 156.152 115.43C156.322 115.49 156.492 115.55 156.668 115.611C161.719 117.409 166.561 119.542 171.387 121.875C171.709 122.031 172.031 122.186 172.364 122.346C175.947 124.084 179.448 125.892 182.812 128.027C182.958 127.737 182.958 127.737 183.105 127.442C181.749 125.497 180.328 123.679 178.718 121.937C178.247 121.422 177.806 120.903 177.374 120.355C175.862 118.61 174.015 117.225 172.211 115.796C171.95 115.589 171.95 115.589 171.683 115.377C171.199 114.997 170.709 114.626 170.215 114.258C169.984 114.084 169.753 113.91 169.514 113.73C168.434 113.234 167.408 113.236 166.241 113.251C166.001 113.252 165.76 113.253 165.512 113.254C162.321 113.326 159.235 114.067 156.152 114.844ZM184.863 114.551C185.156 115.137 185.156 115.137 185.156 115.137L184.863 114.551ZM115.137 115.137C115.43 115.723 115.43 115.723 115.43 115.723L115.137 115.137ZM145.056 117.572C144.695 117.703 144.334 117.835 143.962 117.97C140.335 119.301 136.809 120.845 133.301 122.461C133.049 122.575 132.797 122.69 132.538 122.808C125.611 125.958 118.982 129.751 112.793 134.18C113.804 134.517 114.527 134.427 115.565 134.222C115.886 134.161 116.207 134.1 116.539 134.037C116.886 133.969 117.233 133.902 117.59 133.832C120.671 133.256 123.749 132.759 126.855 132.349C127.213 132.301 127.57 132.253 127.939 132.204C130.113 131.923 132.286 131.704 134.473 131.543C134.732 132.263 134.792 132.63 134.562 133.371C134.451 133.606 134.34 133.841 134.225 134.083C134.102 134.344 133.978 134.606 133.85 134.876C133.717 135.148 133.584 135.42 133.447 135.7C133.323 135.966 133.2 136.232 133.072 136.506C131.063 140.683 128.064 143.599 124.006 145.807C123.226 146.463 123.226 146.463 123.201 147.615C123.321 149.525 123.655 151.413 123.981 153.296C124.038 153.657 124.096 154.019 124.155 154.391C124.685 157.494 125.367 160.941 127.734 163.184C128.024 163.28 128.314 163.377 128.613 163.477C128.69 163.179 128.69 163.179 128.769 162.875C132.113 150.028 137.235 133.122 148.828 125.098C149.817 124.658 149.817 124.658 150.879 124.805C151.97 125.572 152.876 126.492 153.809 127.442C154.03 127.649 154.251 127.857 154.479 128.071C163.83 136.959 168.512 151.218 171.387 163.477C173.01 162.816 173.595 161.489 174.316 159.961C175.223 157.409 175.67 154.728 176.147 152.069C176.199 151.785 176.25 151.5 176.303 151.207C176.575 149.617 176.816 148.096 176.66 146.484C176.247 145.956 176.247 145.956 175.598 145.679C171.269 143.158 168.584 139.84 166.406 135.388C166.286 135.144 166.165 134.9 166.041 134.648C165.932 134.416 165.823 134.184 165.71 133.944C165.562 133.631 165.562 133.631 165.411 133.312C165.203 132.609 165.291 132.227 165.527 131.543C168.754 131.701 171.919 132.191 175.107 132.686C175.995 132.824 176.882 132.96 177.77 133.095C181.119 133.608 184.46 134.158 187.793 134.766C187.1 134.046 186.432 133.419 185.592 132.877C185.397 132.751 185.202 132.624 185.001 132.494C184.792 132.362 184.584 132.229 184.369 132.092C184.038 131.881 184.038 131.881 183.7 131.665C165.335 119.547 165.335 119.547 145.056 117.572ZM148.361 128.676C137.947 139.123 130.357 156.103 129.968 170.911C130.078 174.71 131.368 178.437 133.887 181.348C134.08 181.348 134.273 181.348 134.473 181.348C134.471 181.133 134.47 180.918 134.468 180.696C134.443 176.703 134.424 172.731 134.766 168.75C135.122 168.871 135.479 168.992 135.846 169.116C136.364 169.288 136.883 169.459 137.402 169.629C137.703 169.728 138.003 169.826 138.312 169.928C142.48 171.323 142.48 171.323 146.777 171.094C148.452 169.548 148.423 167.265 148.535 165.106C148.593 163.267 148.532 161.863 147.314 160.414C146.25 159.356 145.092 158.452 143.848 157.617C143.607 157.447 143.367 157.276 143.119 157.1C142.128 156.613 141.119 156.449 140.039 156.281C138.708 156.066 137.466 155.836 136.23 155.274C136.176 154.403 136.175 154.006 136.523 153.223C138.111 151.727 140.064 150.51 142.09 149.707C143.229 149.806 143.796 150.096 144.587 150.908C144.77 151.093 144.954 151.279 145.142 151.47C145.332 151.668 145.521 151.865 145.715 152.069C146.007 152.368 146.007 152.368 146.305 152.672C147.583 153.989 148.822 155.331 150 156.738C150.994 155.756 151.955 154.753 152.893 153.717C153.275 153.3 153.275 153.3 153.666 152.874C154.115 152.366 154.553 151.847 154.968 151.31C155.135 151.096 155.302 150.881 155.475 150.659C155.685 150.372 155.685 150.372 155.899 150.078C156.445 149.707 156.445 149.707 157.41 149.725C158.589 150.024 159.412 150.448 160.437 151.099C160.755 151.297 161.073 151.495 161.401 151.698C162.298 152.339 163.041 152.981 163.77 153.809C163.861 154.633 163.861 154.633 163.77 155.274C162.3 155.825 160.906 156.202 159.359 156.439C157.129 156.74 157.129 156.74 155.273 157.929C154.633 158.696 154.633 158.696 154.688 159.375C154.517 159.457 154.346 159.538 154.17 159.622C153.1 160.176 152.203 160.75 151.465 161.719C151.216 162.719 151.34 163.634 151.465 164.649C151.5 165.013 151.536 165.377 151.572 165.753C151.852 168.395 151.852 168.395 152.93 170.801C154.336 171.716 156.097 171.359 157.654 171.076C161.625 170.202 161.625 170.202 165.234 168.457C165.487 171.383 165.564 174.273 165.546 177.21C165.544 177.614 165.543 178.019 165.542 178.424C165.538 179.398 165.533 180.373 165.527 181.348C167.001 180.856 167.479 179.457 168.164 178.125C172.005 169.054 168.093 158.37 164.667 149.725C163.525 146.91 162.283 144.177 160.84 141.504C160.738 141.311 160.635 141.119 160.53 140.92C158.015 136.197 155.023 132.058 151.172 128.32C151.009 128.145 150.846 127.97 150.677 127.789C149.71 126.914 149.097 127.959 148.361 128.676ZM122.168 158.789C121.88 159.399 121.593 160.009 121.307 160.62C121.068 161.13 121.068 161.13 120.823 161.65C119.498 164.691 119.671 168.742 120.721 171.845C122.752 176.697 126.32 180.926 131.22 183.033C131.67 183.214 131.67 183.214 132.129 183.399C132.129 183.205 132.129 183.012 132.129 182.813C131.936 182.813 131.742 182.813 131.543 182.813C131.47 182.664 131.397 182.516 131.322 182.363C131.029 181.783 130.725 181.208 130.418 180.635C128.662 177.318 127.666 174.505 127.797 170.7C127.977 168.198 127.977 168.198 127.278 165.867C126.685 165.298 126.685 165.298 126.026 164.835C124.186 163.446 123.347 160.942 122.754 158.789C122.561 158.789 122.367 158.789 122.168 158.789ZM177.246 158.789C177.155 159.124 177.155 159.124 177.062 159.466C176.478 161.421 175.802 162.859 174.459 164.402C173.963 164.952 173.963 164.952 173.73 165.82C173.145 166.15 173.145 166.15 172.559 166.406C172.07 166.895 172.228 167.494 172.224 168.165C172.145 173.424 171.479 177.355 168.75 181.934C168.551 182.322 168.354 182.712 168.164 183.106C170.146 182.537 171.529 181.415 173.145 180.176C173.447 179.958 173.749 179.741 174.06 179.517C177.234 176.481 179.741 172.25 179.981 167.784C179.99 167.349 179.994 166.914 179.993 166.48C179.992 166.25 179.992 166.021 179.992 165.785C179.94 163.229 179.286 160.915 177.832 158.789C177.639 158.789 177.445 158.789 177.246 158.789ZM137.109 173.145C137.222 176.106 137.87 178.696 139.746 181.055C139.932 181.29 139.932 181.29 140.121 181.531C141.956 183.478 144.598 183.347 147.101 183.428C153.915 183.965 153.915 183.965 159.961 181.641C161.91 179.601 162.649 177.439 162.616 174.664C162.613 174.379 162.611 174.093 162.608 173.798C162.605 173.582 162.601 173.367 162.598 173.145C162.274 173.266 162.274 173.266 161.944 173.391C161.658 173.497 161.372 173.603 161.078 173.712C160.796 173.818 160.514 173.923 160.223 174.032C158.642 174.563 157.155 174.675 155.493 174.683C155.272 174.684 155.05 174.685 154.822 174.686C153.374 174.671 152.167 174.512 150.838 173.894C149.861 173.601 148.992 173.976 148.04 174.255C144.79 175.201 142.193 174.865 139.041 173.712C138.399 173.48 137.774 173.295 137.109 173.145ZM137.695 183.399C138.175 185.937 138.951 188.074 140.918 189.844C143.904 191.559 147.423 191.365 150.769 191.382C151.101 191.385 151.432 191.387 151.773 191.39C156.305 191.435 156.305 191.435 160.072 189.253C161.476 187.535 161.91 185.886 162.012 183.692C161.852 183.745 161.692 183.798 161.528 183.853C161.059 184.009 160.591 184.164 160.122 184.319C159.662 184.474 159.202 184.635 158.747 184.804C151.866 187.306 144.238 186.303 137.695 183.399Z" fill="black"/>
</svg>
