<svg width="300" height="300" viewBox="0 0 300 300" fill="none" xmlns="http://www.w3.org/2000/svg">
<path d="M208.071 75.8619C215.31 81.7904 218.686 89.1037 220.733 98.0893C221.793 102.728 223.202 107.007 224.987 111.415C225.169 111.862 225.35 112.309 225.531 112.756C225.621 112.978 225.711 113.201 225.804 113.43C229.316 122.118 231.922 131.035 233.203 140.332C233.233 140.545 233.264 140.759 233.295 140.979C234.276 149.055 233.617 157.531 232.324 165.527C232.287 165.758 232.25 165.989 232.212 166.227C231.93 167.991 231.636 169.754 231.335 171.515C231.276 171.862 231.276 171.862 231.215 172.217C230.027 179.118 228.314 185.804 226.153 192.462C225.745 193.727 225.339 194.993 224.934 196.26C224.838 196.562 224.741 196.865 224.642 197.176C222.707 203.187 222.707 203.187 221.978 209.417C221.97 209.643 221.961 209.868 221.953 210.1C221.929 212.22 222.601 213.834 224.047 215.387C226.289 217.114 229.491 217.556 232.182 218.226C232.582 218.326 232.982 218.427 233.382 218.527C234.174 218.726 234.967 218.918 235.761 219.106C238.979 219.901 242.651 220.952 244.628 223.828C245.6 225.713 246.241 227.855 245.8 229.98C245.307 230.642 245.047 230.839 244.223 230.97C243.945 230.97 243.667 230.97 243.38 230.971C242.901 230.974 242.901 230.974 242.412 230.978C242.062 230.976 241.711 230.975 241.35 230.973C240.796 230.975 240.796 230.975 240.231 230.977C239.217 230.981 238.203 230.98 237.189 230.977C236.125 230.975 235.062 230.977 233.999 230.978C232.211 230.98 230.423 230.978 228.635 230.974C226.574 230.969 224.514 230.97 222.453 230.975C220.68 230.979 218.908 230.98 217.135 230.978C216.078 230.976 215.021 230.976 213.964 230.979C212.782 230.982 211.6 230.978 210.417 230.973C210.072 230.975 209.726 230.976 209.369 230.978C205.938 230.952 202.289 230.207 199.642 227.849C196.815 224.473 196.774 220.364 196.875 216.211C196.579 216.388 196.283 216.566 195.978 216.748C190.923 219.708 185.505 221.792 179.9 223.46C179.503 223.582 179.107 223.704 178.71 223.828C178.503 223.891 178.295 223.955 178.082 224.02C176.72 224.475 175.987 224.956 175.085 226.117C172.192 229.526 168.362 230.452 164.062 230.859C162.415 230.939 160.772 230.945 159.124 230.944C158.643 230.946 158.162 230.948 157.682 230.95C156.389 230.955 155.097 230.957 153.805 230.957C152.997 230.957 152.189 230.959 151.38 230.96C148.558 230.966 145.736 230.968 142.914 230.968C140.285 230.967 137.657 230.974 135.028 230.983C132.766 230.99 130.504 230.994 128.242 230.993C126.893 230.993 125.545 230.995 124.196 231.001C122.93 231.007 121.665 231.007 120.4 231.002C119.935 231.002 119.471 231.003 119.006 231.007C118.373 231.011 117.74 231.008 117.107 231.004C116.753 231.004 116.398 231.005 116.033 231.005C114.955 230.83 114.608 230.556 113.964 229.687C113.636 227.555 114.584 226.12 115.722 224.414C120.447 219.143 129.002 218.522 135.589 217.804C141.8 217.408 141.8 217.408 147.363 215.039C148.65 212.98 148.89 210.673 148.418 208.302C148.267 207.653 148.109 207.006 147.949 206.36C147.159 203.084 146.639 199.404 148.164 196.259C148.755 195.372 149.315 194.942 150.293 194.531C151.245 194.549 151.245 194.549 152.05 194.824C152.811 195.965 152.586 196.77 152.343 198.047C152.267 198.3 152.267 198.3 152.189 198.559C151.978 199.561 151.982 200.561 151.977 201.58C151.976 201.811 151.975 202.042 151.974 202.279C151.99 204.019 152.202 205.674 152.508 207.385C153.186 211.266 152.833 214.356 150.746 217.79C149.023 220.239 147.001 220.943 144.14 221.484C142.386 221.712 140.621 221.843 138.858 221.984C129.117 222.199 129.117 222.199 120.703 226.172C126.486 226.192 132.27 226.208 138.054 226.217C140.739 226.222 143.425 226.228 146.111 226.238C148.453 226.247 150.795 226.252 153.137 226.254C154.376 226.255 155.615 226.258 156.854 226.264C158.023 226.271 159.191 226.272 160.36 226.271C160.786 226.271 161.213 226.273 161.64 226.276C165.755 226.307 169.122 225.844 172.246 223.023C175.873 219.271 176.701 212.556 176.709 207.531C176.71 207.292 176.711 207.053 176.713 206.807C176.715 206.035 176.715 205.263 176.715 204.492C176.715 204.098 176.715 204.098 176.715 203.697C176.723 196.41 176.723 196.41 175.488 189.258C175.36 188.305 175.36 188.305 175.488 187.5C176.092 186.786 176.092 186.786 176.953 186.328C178.074 186.328 178.729 186.401 179.612 187.109C180.287 187.928 180.523 188.624 180.816 189.642C180.958 190.121 180.958 190.121 181.103 190.609C181.57 192.509 181.689 194.351 181.7 196.297C181.702 196.548 181.704 196.799 181.706 197.058C181.711 197.87 181.713 198.681 181.713 199.493C181.714 199.77 181.714 200.047 181.714 200.332C181.698 214.043 181.698 214.043 179.003 219.433C194.011 214.467 205.712 205.062 213.812 191.436C216.902 186.257 216.902 186.257 219.433 185.449C221.227 185.221 222.054 185.729 223.535 186.621C225.155 180.116 226.555 173.61 227.55 166.979C227.63 166.446 227.713 165.913 227.795 165.381C230.583 146.817 227.604 128.338 220.234 111.216C218.738 107.72 217.94 104.362 217.437 100.598C216.282 92.6288 212.918 84.903 206.489 79.7616C199.187 74.3783 190.13 72.3067 181.176 73.5966C177.523 74.2073 174.081 75.3235 170.8 77.0505C170.549 77.1789 170.298 77.3073 170.039 77.4396C165.219 80.0979 161.232 84.9734 158.496 89.6481C158.703 89.5526 158.91 89.457 159.124 89.3586C160.018 89.0418 160.682 88.9931 161.627 89.0073C161.906 89.0091 162.185 89.011 162.472 89.013C163.183 89.0622 163.183 89.0622 163.769 89.3552C163.672 89.8386 163.576 90.322 163.476 90.82C163.246 90.8487 163.016 90.8774 162.779 90.907C160.221 91.271 158.557 91.6757 156.903 93.768C156.319 94.5619 156.152 94.7907 156.152 95.8005C156.454 95.6011 156.756 95.4017 157.067 95.1962C157.848 94.7564 158.178 94.6291 159.1 94.6103C160.361 95.0663 161.344 95.7786 162.055 96.9323C162.517 98.0923 162.458 99.263 162.304 100.488C161.461 102.241 160.031 103.641 158.208 104.337C157.898 104.444 157.588 104.552 157.269 104.663C156.221 105.06 155.699 105.266 155.08 106.211C154.795 106.937 154.565 107.638 154.394 108.398C154.694 108.388 154.995 108.378 155.304 108.367C155.703 108.359 156.101 108.351 156.5 108.343C156.697 108.336 156.894 108.328 157.098 108.321C158.389 108.302 159.288 108.383 160.253 109.277C160.516 110.715 160.052 111.607 159.32 112.829C159.146 113.126 158.973 113.423 158.794 113.729C158.187 114.572 157.561 115.1 156.738 115.722C155.96 117.278 156.245 119.931 156.665 121.6C157.482 123.52 158.795 124.392 160.528 125.409C160.869 125.612 160.869 125.612 161.217 125.82C161.968 126.267 162.722 126.708 163.476 127.148C163.75 127.309 164.024 127.469 164.306 127.635C165.139 128.122 165.973 128.606 166.809 129.089C167.071 129.242 167.334 129.394 167.605 129.551C167.976 129.763 167.976 129.763 168.354 129.979C168.572 130.105 168.79 130.23 169.014 130.359C169.698 130.726 169.698 130.726 170.8 130.957C170.704 130.087 170.607 129.216 170.507 128.32C171.72 128.926 171.892 129.096 172.485 130.224C172.673 130.573 172.673 130.573 172.865 130.929C173.144 131.543 173.144 131.543 173.144 132.129C174.304 132.225 175.464 132.322 176.66 132.422C175.071 129.616 173.482 126.975 171.386 124.511C171.04 124.081 170.698 123.648 170.361 123.211C170.219 123.03 170.077 122.85 169.931 122.663C169.628 122.168 169.628 122.168 169.628 121.289C170.965 121.749 172.041 122.458 173.199 123.248C173.394 123.38 173.589 123.512 173.791 123.649C174.181 123.913 174.57 124.179 174.959 124.445C175.398 124.743 175.84 125.037 176.282 125.33C181.387 128.764 186.74 133.545 187.992 139.874C188.023 140.122 188.054 140.369 188.085 140.625C187.337 140.515 186.989 140.413 186.467 139.851C186.33 139.647 186.192 139.444 186.051 139.234C185.899 139.013 185.746 138.792 185.59 138.564C185.434 138.332 185.279 138.099 185.119 137.86C184.808 137.402 184.496 136.945 184.183 136.488C184.046 136.284 183.91 136.08 183.769 135.87C183.393 135.314 183.393 135.314 182.812 134.765C182.055 134.716 182.055 134.716 181.347 134.765C181.383 134.936 181.418 135.107 181.455 135.283C181.56 135.798 181.663 136.314 181.764 136.83C181.872 137.383 181.985 137.936 182.103 138.487C182.463 140.329 182.58 142.122 182.592 143.994C182.595 144.222 182.598 144.45 182.6 144.684C182.594 145.812 182.573 146.702 181.933 147.656C181.74 147.656 181.546 147.656 181.347 147.656C181.321 147.478 181.295 147.3 181.268 147.116C180.655 143.069 179.973 139.048 178.125 135.351C177.234 135.148 177.234 135.148 176.202 135.022C175.676 134.948 175.676 134.948 175.139 134.873C174.867 134.837 174.596 134.802 174.316 134.765C174.413 135.061 174.509 135.357 174.609 135.663C174.922 136.744 174.948 137.74 174.902 138.867C174.612 138.867 174.322 138.867 174.023 138.867C173.898 138.563 173.773 138.26 173.644 137.947C172.617 135.582 172.617 135.582 170.737 133.92C169.17 133.437 167.751 133.259 166.113 133.3C166.061 133.483 166.01 133.666 165.957 133.854C163.813 141.393 161.137 147.176 154.041 151.19C152.62 151.952 151.158 152.576 149.652 153.149C149.449 153.228 149.246 153.307 149.037 153.388C144.008 155.204 138.642 155.601 133.359 156.066C121.577 157.12 108.84 160.486 100.567 169.576C100.195 169.922 100.195 169.922 99.6089 169.922C99.6089 170.115 99.6089 170.308 99.6089 170.508C99.4156 170.508 99.2222 170.508 99.023 170.508C98.9486 170.676 98.8742 170.844 98.7975 171.018C98.3963 171.754 97.9304 172.277 97.3567 172.888C90.928 180.021 87.8692 188.99 86.1324 198.248C84.7648 205.53 82.5114 212.089 76.4427 216.798C73.9561 218.494 71.275 219.317 68.3988 220.071C64.5727 221.093 62.1592 222.8 60.0581 226.172C63.6573 226.574 63.6573 226.574 67.0379 225.712C67.5934 225.118 67.5934 225.118 68.0679 224.461C69.8541 222.136 73.5042 221.14 76.1623 220.185C76.5682 220.039 76.9741 219.892 77.3799 219.745C77.5803 219.672 77.7807 219.6 77.9871 219.526C79.1932 219.077 80.2357 218.551 81.3167 217.84C82.1908 217.277 82.7393 216.964 83.7886 217.071C84.6675 217.383 84.6675 217.383 85.2535 218.261C85.4183 219.232 85.4183 219.232 85.2535 220.312C83.5316 222.158 81.3383 222.968 79.0462 223.901C78.4866 224.133 77.9274 224.366 77.3683 224.6C76.8639 224.81 76.3585 225.017 75.8531 225.224C75.1611 225.517 74.497 225.832 73.8277 226.172C77.8081 226.185 81.7886 226.196 85.7691 226.202C87.6174 226.205 89.4657 226.209 91.314 226.216C93.0977 226.222 94.8814 226.226 96.6651 226.227C97.3456 226.228 98.0261 226.23 98.7066 226.234C99.6598 226.238 100.613 226.238 101.566 226.238C101.847 226.24 102.129 226.242 102.419 226.244C103.834 226.24 105.035 226.189 106.347 225.586C106.824 224.631 106.798 223.687 106.64 222.656C105.244 219.3 102.107 217.962 99.023 216.504C98.4605 216.237 97.8988 215.969 97.3384 215.698C96.9963 215.537 96.9963 215.537 96.6472 215.373C96.0933 215.039 96.0933 215.039 95.5074 214.16C95.3975 213.134 95.3975 213.134 95.5074 212.109C96.0835 211.541 96.442 211.247 97.2595 211.19C100.863 211.923 104.522 213.722 107.226 216.211C107.531 216.471 107.531 216.471 107.842 216.736C109.759 218.477 111.131 220.54 111.466 223.146C111.511 225.005 111.409 226.304 110.449 227.929C108.702 229.718 106.172 230.793 103.669 230.898C103.304 230.898 102.938 230.899 102.562 230.9C102.256 230.902 102.256 230.902 101.944 230.903C101.26 230.905 100.577 230.906 99.8937 230.906C99.4038 230.908 98.9139 230.909 98.424 230.911C97.0936 230.915 95.7632 230.916 94.4329 230.918C93.6023 230.919 92.7717 230.92 91.9412 230.921C89.3442 230.925 86.7472 230.928 84.1502 230.929C81.1489 230.93 78.1477 230.936 75.1464 230.944C72.8281 230.95 70.5097 230.953 68.1913 230.954C66.8057 230.954 65.4201 230.956 64.0345 230.961C62.7326 230.966 61.4307 230.966 60.1288 230.964C59.65 230.964 59.1712 230.965 58.6924 230.968C58.0409 230.971 57.3896 230.97 56.7381 230.967C56.3728 230.967 56.0076 230.968 55.6314 230.968C55.352 230.932 55.0726 230.896 54.7847 230.859C54.0876 229.813 54.0234 229.135 54.1988 227.929C55.3678 223.532 58.2238 220.185 62.0918 217.856C64.4412 216.614 66.9252 215.762 69.4522 214.966C72.4847 214.009 72.4847 214.009 74.9996 212.109C75.171 211.941 75.3425 211.774 75.5191 211.601C80.3438 206.502 81.4297 199.281 82.6785 192.658C84.0573 185.394 86.1022 179.478 90.8199 173.73C91.0408 173.456 91.2617 173.183 91.4893 172.9C91.9193 172.37 92.3519 171.842 92.7871 171.317C93.2586 170.747 93.7259 170.173 94.1901 169.598C95.5879 167.872 96.9964 166.33 98.73 164.941C99.0598 164.667 99.3894 164.393 99.7188 164.118C102.01 162.226 104.339 160.543 106.933 159.082C107.129 158.968 107.325 158.854 107.527 158.736C115.941 153.872 125.013 152.48 134.537 151.549C143.512 150.664 152.618 148.716 158.715 141.43C160.441 139.097 161.528 136.443 162.011 133.593C159.969 132.82 157.915 132.079 155.859 131.341C155.52 131.219 155.181 131.098 154.832 130.972C154.003 130.674 153.173 130.376 152.343 130.078C152.315 130.409 152.286 130.741 152.256 131.083C152.212 131.517 152.168 131.951 152.124 132.385C152.105 132.604 152.087 132.822 152.069 133.048C152 133.683 152 133.683 151.757 134.765C151.149 135.207 151.149 135.207 150.585 135.351C150.224 134.628 150.288 134.218 150.336 133.414C150.351 133.01 150.351 133.01 150.367 132.598C150.39 132.032 150.421 131.466 150.458 130.9C150.542 129.371 150.542 129.371 149.828 128.091C149.207 127.628 149.207 127.628 148.242 127.148C148.051 127.746 147.862 128.344 147.674 128.943C147.569 129.276 147.463 129.609 147.355 129.952C146.716 132.206 146.723 134.379 146.722 136.706C146.718 137.06 146.715 137.414 146.711 137.779C146.707 140.056 146.909 142.201 147.363 144.433C146.354 143.477 145.888 142.705 145.404 141.394C145.221 140.91 145.221 140.91 145.034 140.416C143.7 136.241 144.11 131.289 145.349 127.144C145.646 126.281 145.646 126.281 145.605 125.39C142.497 129.38 141.16 133.832 140.486 138.779C140.41 139.112 140.41 139.112 140.332 139.453C140.138 139.549 139.945 139.646 139.746 139.746C138.496 135.555 139.388 131.214 141.398 127.41C142.331 125.887 143.378 124.558 144.643 123.296C145.129 122.595 145.089 122.123 145.019 121.289C140.289 123.541 136.176 126.739 133.112 131.048C132.98 131.211 132.849 131.375 132.714 131.543C132.521 131.543 132.328 131.543 132.128 131.543C132.261 128.502 134.372 125.936 136.523 123.925C138.747 122.155 141.035 120.876 143.641 119.766C144.526 119.301 144.526 119.301 144.694 118.298C144.705 118.028 144.715 117.758 144.726 117.48C140.524 118.787 136.693 120.609 133.541 123.734C133.007 124.218 133.007 124.218 132.421 124.218C132.682 121.995 134.483 120.567 136.109 119.175C138.794 117.124 141.802 115.825 145.019 114.843C141.329 112.998 134.079 114.793 130.179 115.588C129.508 115.719 128.91 115.752 128.228 115.741C127.872 115.735 127.515 115.729 127.148 115.722C129.403 113.119 134.282 112.496 137.545 112.243C140.399 112.101 143.077 112.325 145.898 112.793C145.002 111.831 144.025 111.094 142.932 110.376C142.75 110.255 142.568 110.134 142.381 110.01C141.056 109.14 139.711 108.305 138.359 107.478C138.187 107.373 138.015 107.268 137.838 107.159C136.969 106.628 136.099 106.099 135.226 105.573C134.906 105.379 134.585 105.184 134.255 104.983C133.965 104.809 133.676 104.634 133.377 104.454C132.714 104.004 132.714 104.004 132.421 103.418C137.676 103.602 142.329 106.88 146.102 110.286C146.729 110.809 146.729 110.809 147.41 110.705C148.257 110.302 148.775 109.667 149.414 108.984C149.772 108.61 150.132 108.237 150.494 107.867C150.664 107.69 150.835 107.513 151.01 107.33C151.464 106.933 151.464 106.933 152.05 106.933C152.58 105.803 152.698 104.949 152.663 103.706C152.653 103.196 152.653 103.196 152.643 102.676C152.635 102.316 152.626 101.957 152.618 101.587C152.541 93.7552 154.5 87.4899 159.668 81.445C159.851 81.2222 160.035 80.9994 160.224 80.7698C163.86 76.4808 168.685 73.5309 173.73 71.1911C173.979 71.0706 174.227 70.9501 174.483 70.826C185.096 66.0743 199.1 68.7931 208.071 75.8619ZM159.082 95.8005C158.888 95.9938 158.695 96.1872 158.496 96.3864C158.59 97.4402 158.59 97.4402 158.789 98.4372C159.272 98.5339 159.755 98.6305 160.253 98.7302C160.543 98.2468 160.834 97.7634 161.132 97.2653C160.778 96.5114 160.778 96.5114 160.253 95.8005C159.867 95.8005 159.48 95.8005 159.082 95.8005ZM155.273 96.6794C155.566 97.2653 155.566 97.2653 155.566 97.2653L155.273 96.6794ZM150.732 110.815C150.548 110.992 150.363 111.169 150.174 111.351C149.672 111.955 149.466 112.303 149.414 113.086C150.103 113.898 150.103 113.898 150.878 114.55C150.105 114.55 149.332 114.55 148.535 114.55C148.167 115.653 148.21 116.681 148.223 117.828C148.225 118.048 148.226 118.267 148.227 118.494C148.231 119.035 148.236 119.576 148.242 120.117C149.149 120.374 149.679 120.408 150.585 120.117C150.105 122.04 150.105 122.04 149.487 122.79C149.306 123.062 149.306 123.062 149.121 123.34C149.36 124.323 149.731 125.114 150.585 125.683C151.329 125.799 151.329 125.799 152.05 125.39C152.648 124.507 153.222 123.544 153.222 122.461C153.657 122.316 153.657 122.316 154.101 122.168C154.099 121.924 154.099 121.924 154.096 121.675C154.09 120.936 154.087 120.197 154.083 119.458C154.08 119.202 154.078 118.946 154.075 118.683C154.074 118.312 154.074 118.312 154.073 117.933C154.07 117.593 154.07 117.593 154.068 117.245C154.101 116.601 154.101 116.601 154.273 115.959C154.313 115.784 154.353 115.609 154.394 115.429C154.007 114.986 154.007 114.986 153.515 114.55C152.772 113.061 152.225 111.524 152.05 109.863C151.489 109.863 151.11 110.447 150.732 110.815ZM156.445 126.269C156.348 126.753 156.252 127.236 156.152 127.734C158.376 129.946 160.392 130.676 163.476 130.957C163.573 130.763 163.669 130.57 163.769 130.371C162.824 129.346 161.764 128.58 160.601 127.826C160.428 127.708 160.255 127.59 160.077 127.468C158.853 126.672 157.902 126.379 156.445 126.269ZM178.418 129.492C178.809 130.545 179.285 131.471 179.882 132.422C180.172 132.325 180.462 132.228 180.761 132.129C180.297 130.876 179.441 130.293 178.418 129.492ZM219.726 190.722C218.255 192.045 217.244 193.622 216.156 195.263C212.294 200.998 208.108 206.681 202.535 210.857C200.799 212.558 200.958 215.375 200.921 217.657C200.95 220.673 201.336 222.689 203.503 224.908C205.598 226.539 208.279 226.591 210.82 226.564C211.309 226.565 211.309 226.565 211.808 226.565C212.877 226.564 213.945 226.557 215.013 226.55C215.758 226.549 216.503 226.547 217.247 226.547C219.001 226.544 220.754 226.537 222.508 226.528C224.506 226.518 226.504 226.513 228.502 226.509C232.608 226.5 236.714 226.484 240.82 226.465C240.27 225.236 239.662 224.786 238.476 224.121C237.69 223.826 236.893 223.622 236.077 223.425C235.842 223.365 235.606 223.305 235.364 223.243C233.882 222.872 232.393 222.542 230.899 222.223C230.553 222.149 230.207 222.075 229.85 221.998C229.172 221.854 228.493 221.714 227.813 221.577C225.102 221.006 221.669 220.101 219.726 217.968C217.078 213.596 217.122 208.784 218.284 203.895C218.683 202.338 219.175 200.811 219.664 199.28C219.757 198.987 219.85 198.695 219.946 198.394C220.037 198.108 220.129 197.822 220.224 197.527C220.879 195.395 221.168 193.545 220.898 191.308C220.511 191.115 220.125 190.922 219.726 190.722Z" fill="black"/>
<path d="M174.902 115.723C182.503 115.878 193.173 118.896 198.633 124.512C198.633 124.705 198.633 124.898 198.633 125.098C197.419 124.936 196.442 124.664 195.34 124.133C195.054 123.997 194.767 123.862 194.472 123.722C194.172 123.578 193.871 123.433 193.561 123.285C190.711 121.945 187.859 120.789 184.863 119.824C185.059 119.942 185.254 120.059 185.455 120.18C189.359 122.588 193.607 125.768 195.996 129.785C195.996 130.172 195.996 130.559 195.996 130.957C194.953 130.511 194.267 129.89 193.451 129.108C188.575 124.615 183.256 121.386 177.256 118.637C176.463 118.268 175.682 117.877 174.902 117.48C174.902 116.9 174.902 116.32 174.902 115.723Z" fill="black"/>
<path d="M182.527 96.5494C183.956 97.2049 184.57 98.3292 185.191 99.7309C185.726 101.298 185.642 102.549 184.973 104.077C184.35 105.191 183.68 105.779 182.52 106.348C180.867 106.799 179.908 106.59 178.418 105.762C177.122 104.672 176.214 103.566 175.981 101.848C175.899 100.06 176.161 98.9868 177.246 97.5588C178.8 96.1162 180.536 96.0036 182.527 96.5494ZM180.762 98.4377C180.857 99.4914 180.857 99.4914 181.055 100.488C182.249 100.818 182.249 100.818 183.38 100.47C183.842 99.6282 183.634 99.0488 183.399 98.1447C183.073 97.7545 183.073 97.7545 182.245 97.7968C181.316 97.7542 181.316 97.7542 180.762 98.4377Z" fill="black"/>
<path d="M175.195 121.582C181.941 122.542 188.015 128.628 191.867 133.751C195.117 138.248 195.117 138.248 195.117 140.332C194.015 139.89 193.481 139.263 192.755 138.336C192.524 138.047 192.292 137.757 192.054 137.458C191.871 137.228 191.871 137.228 191.684 136.994C187.692 131.996 183.461 127.727 177.854 124.539C176.829 123.95 175.944 123.384 175.195 122.461C175.195 122.171 175.195 121.881 175.195 121.582Z" fill="black"/>
<path d="M185.522 91.8826C188.102 94.1104 188.102 94.1104 188.342 95.7828C188.354 96.0789 188.366 96.375 188.379 96.68C187.337 96.5091 186.842 96.1243 186.09 95.3983C184.151 93.655 182.104 93.2578 179.59 92.8714C179.59 92.5814 179.59 92.2913 179.59 91.9925C181.614 90.8923 183.437 90.8398 185.522 91.8826Z" fill="black"/>
<path d="M187.207 137.988C187.83 138.922 187.94 139.531 188.086 140.625C187.537 140.57 187.537 140.57 186.914 140.332C186.548 139.581 186.548 139.581 186.328 138.867C186.618 138.577 186.908 138.287 187.207 137.988Z" fill="black"/>
<path d="M137.109 118.359C137.303 118.456 137.496 118.553 137.695 118.652C137.695 118.942 137.695 119.232 137.695 119.531C138.082 119.628 138.469 119.725 138.867 119.824C138.287 120.114 137.707 120.404 137.109 120.703C136.78 120.19 136.78 120.19 136.523 119.531C136.78 118.872 136.78 118.872 137.109 118.359Z" fill="black"/>
<path d="M171.094 116.309C171.48 116.502 171.867 116.695 172.266 116.895C172.169 117.281 172.072 117.668 171.973 118.066C171.586 117.97 171.199 117.873 170.801 117.773C170.801 116.602 170.801 116.602 171.094 116.309Z" fill="black"/>
<path d="M169.043 111.035C169.43 111.229 169.816 111.422 170.215 111.621C170.118 112.008 170.021 112.395 169.922 112.793C169.535 112.696 169.148 112.6 168.75 112.5C168.75 111.328 168.75 111.328 169.043 111.035Z" fill="black"/>
<path d="M164.062 122.461C164.685 122.736 164.685 122.736 165.234 123.047C165.138 123.337 165.041 123.627 164.941 123.926C164.458 123.829 163.975 123.732 163.477 123.633C163.477 123.343 163.477 123.053 163.477 122.754C163.67 122.657 163.863 122.561 164.062 122.461Z" fill="black"/>
<path d="M151.172 118.359C151.758 118.433 151.758 118.433 152.344 118.652C152.44 118.942 152.537 119.232 152.637 119.531C152.153 119.628 151.67 119.725 151.172 119.824C151.007 119.257 151.007 119.257 150.879 118.652C150.976 118.556 151.072 118.459 151.172 118.359Z" fill="black"/>
<path d="M165.234 117.188C165.814 117.333 165.814 117.333 166.406 117.48C166.406 117.867 166.406 118.254 166.406 118.652C166.116 118.749 165.826 118.846 165.527 118.945C165.334 118.849 165.141 118.752 164.941 118.652C165.038 118.169 165.135 117.686 165.234 117.188Z" fill="black"/>
<path d="M162.891 112.5C163.616 112.645 163.616 112.645 164.355 112.793C164.259 113.18 164.162 113.566 164.062 113.965C163.676 113.868 163.289 113.771 162.891 113.672C162.891 113.285 162.891 112.898 162.891 112.5Z" fill="black"/>
<path d="M159.668 116.309C160.248 116.454 160.248 116.454 160.84 116.602C160.646 116.988 160.453 117.375 160.254 117.773C159.964 117.677 159.674 117.58 159.375 117.48C159.472 117.094 159.568 116.707 159.668 116.309Z" fill="black"/>
<path d="M167.578 125.391C167.965 125.391 168.352 125.391 168.75 125.391C168.75 125.777 168.75 126.164 168.75 126.562C168.267 126.466 167.783 126.369 167.285 126.27C167.382 125.979 167.479 125.689 167.578 125.391Z" fill="black"/>
</svg>
