<svg width="300" height="300" viewBox="0 0 300 300" fill="none" xmlns="http://www.w3.org/2000/svg">
<path d="M158.495 53.0083C166.719 52.7711 174.779 54.494 182.769 56.2599C185.381 56.836 187.847 57.1872 190.522 57.2026C190.781 57.2086 191.041 57.2146 191.308 57.2209C194.052 57.2369 196.387 56.3809 198.889 55.3349C201.861 54.1017 205.028 53.5566 208.176 54.5201C210.852 55.7823 212.337 57.373 213.336 60.1425C215.299 66.7011 213.781 73.7515 212.362 80.2617C211.278 85.256 210.397 90.2061 209.857 95.2885C209.06 102.635 206.947 108.812 202.442 114.771C198.777 120.003 199.969 129.355 200.986 135.353C203.297 147.674 209.928 157.768 219.434 165.821C222.239 168.296 224.723 170.798 227.051 173.731C227.281 174.014 227.51 174.297 227.747 174.589C232.575 180.67 236.422 187.704 238.77 195.118C238.843 195.347 238.916 195.576 238.991 195.813C242.328 206.534 242.206 217.365 241.59 228.443C241.549 229.186 241.509 229.93 241.468 230.673C241.353 232.786 241.234 234.899 241.114 237.012C241.097 237.296 241.081 237.58 241.065 237.872C240.986 239.25 240.905 240.628 240.82 242.005C240.785 242.566 240.751 243.126 240.717 243.687C240.696 244.01 240.675 244.333 240.654 244.666C240.627 245.075 240.627 245.075 240.601 245.492C240.528 246.094 240.528 246.094 240.235 246.387C239.063 246.429 237.891 246.399 236.719 246.387C236.629 242.77 236.88 239.176 237.095 235.567C238.262 215.693 239.369 193.264 225.305 177.373C222.784 174.586 219.993 172.091 217.066 169.739C216.022 168.889 214.999 168.016 213.977 167.139C213.706 166.907 213.706 166.907 213.43 166.669C212.153 165.571 212.153 165.571 211.817 165.235C212.119 167.439 212.445 169.636 212.813 171.83C213.72 177.235 214.562 182.623 215.039 188.086C215.07 188.418 215.1 188.751 215.131 189.093C216.659 206.621 215.345 224.124 212.036 241.37C211.964 241.746 211.892 242.122 211.818 242.509C211.535 243.928 211.296 245.085 210.645 246.387C209.388 246.387 208.131 246.387 206.836 246.387C207.179 244.233 207.575 242.105 208.039 239.975C209.051 235.305 209.834 230.631 210.352 225.879C210.374 225.679 210.396 225.478 210.419 225.271C211.792 212.55 211.681 199.633 210.352 186.914C210.327 186.672 210.302 186.43 210.277 186.181C208.979 173.614 206.208 161.991 201.553 150.226C197.933 141.059 196.427 132.304 196.582 122.461C195.554 123.215 194.892 123.842 194.33 124.988C194.214 125.216 194.098 125.443 193.979 125.677C193.119 128.011 192.953 130.413 192.865 132.88C192.851 133.155 192.838 133.43 192.824 133.713C192.739 135.864 192.813 137.993 192.91 140.142C193.107 144.581 193.139 149.019 193.14 153.461C193.14 153.774 193.14 153.774 193.14 154.093C193.142 160.463 193.031 166.777 192.263 173.106C192.183 173.772 192.107 174.437 192.031 175.103C191.071 183.476 189.688 191.747 188.068 200.016C188.027 200.222 187.987 200.429 187.945 200.641C187.736 201.71 187.526 202.779 187.317 203.847C187.253 204.17 187.253 204.17 187.189 204.499C187.104 204.934 187.018 205.368 186.933 205.803C185.901 211.066 184.88 216.327 184.076 221.631C184.043 221.847 184.01 222.063 183.976 222.285C183.158 227.696 182.71 233.128 182.355 238.587C182.283 239.7 182.209 240.813 182.134 241.926C182.118 242.177 182.102 242.427 182.086 242.685C181.922 245.136 181.922 245.136 181.641 246.094C180.824 246.503 180.155 246.424 179.24 246.425C178.855 246.426 178.469 246.427 178.072 246.428C177.645 246.427 177.218 246.427 176.791 246.426C176.347 246.426 175.903 246.427 175.458 246.427C174.263 246.428 173.068 246.427 171.873 246.425C171.133 246.424 170.394 246.423 169.654 246.423C161.147 246.418 152.645 246.311 144.141 246.094C142.272 239.579 140.503 233.043 138.867 226.465C138.81 226.235 138.753 226.005 138.694 225.768C133.192 203.641 129.213 181.208 127.149 158.497C127.117 158.154 127.085 157.811 127.053 157.458C126.547 151.806 126.386 146.133 126.207 140.462C126.104 137.337 125.969 134.218 125.721 131.1C125.701 130.833 125.682 130.566 125.662 130.291C125.458 127.949 125.141 125.484 123.432 123.743C123.249 123.552 123.067 123.361 122.879 123.164C122.741 123.029 122.603 122.894 122.461 122.754C122.448 123.022 122.435 123.29 122.421 123.566C121.643 139.015 118.162 150.081 108.756 162.495C102.219 171.13 98.9218 179.696 100.294 190.628C100.929 195.056 102.106 199.345 103.418 203.614C103.482 203.822 103.546 204.031 103.612 204.246C107.007 215.257 111.188 225.777 115.984 236.247C116.895 238.237 117.795 240.233 118.689 242.231C118.837 242.555 118.984 242.88 119.136 243.215C119.267 243.508 119.398 243.802 119.534 244.104C119.648 244.356 119.761 244.608 119.878 244.868C120.117 245.508 120.117 245.508 120.117 246.387C119.441 246.387 118.764 246.387 118.067 246.387C108.894 230.21 99.366 212.102 96.094 193.653C95.4283 193.585 95.4283 193.585 94.8592 194.278C94.5911 194.568 94.3254 194.86 94.0616 195.154C93.9184 195.313 93.7752 195.471 93.6277 195.635C88.9937 200.83 85.1981 206.671 81.7386 212.696C81.6193 212.902 81.5001 213.107 81.3772 213.32C75.9798 222.728 73.7343 233.263 71.9032 243.838C71.852 244.131 71.8007 244.425 71.7479 244.727C71.7038 244.984 71.6598 245.242 71.6144 245.508C71.4847 246.094 71.4847 246.094 71.1917 246.387C70.4093 246.428 69.6318 246.4 68.8479 246.387C68.4068 244.603 68.7309 242.968 68.9761 241.169C69.0267 240.791 69.0772 240.413 69.1293 240.024C69.6747 236.099 70.4644 232.221 71.2706 228.342C71.321 228.099 71.3715 227.855 71.4235 227.605C71.518 227.15 71.6134 226.696 71.71 226.242C71.8372 225.634 71.9555 225.025 72.0706 224.414C72.1118 224.216 72.153 224.018 72.1954 223.813C72.4577 222.317 72.1941 221.291 71.5442 219.962C71.4104 219.67 71.4103 219.67 71.2738 219.372C71.0821 218.955 70.8881 218.538 70.6918 218.123C70.1683 217.013 69.6652 215.894 69.1604 214.775C69.058 214.549 68.9556 214.323 68.8501 214.091C57.5068 188.929 53.7328 159.577 63.568 133.275C66.904 124.684 71.5934 117.427 77.93 110.743C78.1379 110.522 78.1379 110.522 78.35 110.297C81.7353 106.731 85.62 103.872 89.6487 101.075C89.9599 100.854 90.2711 100.633 90.5917 100.405C91.4065 99.9028 91.4065 99.9028 92.2854 99.9028C91.9047 101.162 91.4196 102.228 90.7508 103.359C90.5607 103.684 90.3705 104.009 90.1746 104.345C90.074 104.516 89.9733 104.687 89.8696 104.863C82.5079 117.416 77.7527 130.129 76.7581 144.727C76.7324 145.072 76.7068 145.418 76.6803 145.774C76.3381 150.859 76.4066 155.965 76.4102 161.06C76.4103 161.309 76.4104 161.558 76.4104 161.814C76.4134 169.22 76.4636 176.599 77.0511 183.985C77.0924 184.52 77.1337 185.055 77.1749 185.59C77.6351 191.492 78.1782 197.385 78.8638 203.266C78.8886 203.48 78.9133 203.694 78.9388 203.915C78.9825 205.956 78.9825 205.956 79.6878 207.715C79.8305 207.484 79.9733 207.252 80.1204 207.014C82.7944 202.737 85.8022 198.672 89.0628 194.825C89.331 194.505 89.5992 194.186 89.8673 193.867C91.1901 192.294 92.5215 190.73 93.8865 189.194C94.0349 189.022 94.1833 188.85 94.3362 188.672C94.6489 188.357 94.6489 188.357 94.9679 188.035C95.7102 186.898 95.6679 185.992 95.6729 184.662C95.9454 175.736 99.1424 168.593 104.297 161.426C113.501 148.622 120.01 135.228 117.988 119.105C117.555 117.005 116.758 115.389 115.522 113.654C111.544 107.854 109.337 101.955 108.717 94.9298C108.266 89.847 107.357 84.9424 106.296 79.9548C105.966 78.386 105.658 76.8135 105.359 75.2384C105.314 75.0041 105.268 74.7697 105.221 74.5283C104.218 69.2651 103.593 62.7045 106.551 57.9567C107.929 56.0356 110.035 54.426 112.401 53.9765C116.404 53.5688 119.624 55.0176 123.24 56.5657C129.615 59.0793 138.195 56.0651 144.55 54.7107C149.166 53.7413 153.781 53.1652 158.495 53.0083ZM136.428 60.194C133.213 61.0632 130.187 61.4796 126.856 61.5238C127.297 62.8827 127.804 64.1979 128.349 65.5178C128.858 66.8519 128.962 67.9991 128.98 69.434C128.987 69.7905 128.995 70.147 129.003 70.5143C128.883 73.402 127.805 76.0747 126.563 78.6442C126.414 78.9539 126.266 79.2635 126.113 79.5826C124.618 82.5886 122.792 85.3405 120.922 88.1218C119.263 90.5929 117.769 93.0581 116.602 95.8012C116.496 96.0289 116.391 96.2566 116.283 96.4913C115.028 99.5734 115.067 104.081 116.016 107.227C116.454 107.708 116.454 107.708 116.895 108.106C116.991 107.585 116.991 107.585 117.089 107.053C118.452 99.9742 121.345 91.6862 127.442 87.3051C130.12 85.824 132.915 85.4768 135.938 85.8403C139.677 87.0191 141.843 90.044 143.602 93.3773C146.021 98.1436 148.074 103.869 146.879 109.262C145.883 112.264 144.122 114.78 141.797 116.895C140.635 118.006 140.083 118.54 139.98 120.183C139.952 122.452 140.065 124.433 140.918 126.563C141.002 126.772 141.086 126.981 141.172 127.197C141.372 127.673 141.583 128.144 141.797 128.614C137.686 126.516 134.828 122.048 133.301 117.774C132.643 115.648 132.272 113.547 132.129 111.329C132.323 111.329 132.516 111.329 132.715 111.329C132.788 111.6 132.86 111.872 132.935 112.153C133.339 113.184 133.476 113.505 134.473 113.965C135.661 114.197 136.662 114.198 137.751 113.632C139.801 112.153 141.394 110.271 142.09 107.813C142.178 106.73 142.163 105.674 142.09 104.59C141.812 104.639 141.534 104.687 141.248 104.737C139.174 105.023 137.132 105.27 135.352 104.004C133.545 102.355 132.546 100.348 131.543 98.1449C128.366 98.6574 125.459 100.296 123.451 102.851C121.879 105.109 120.847 107.439 120.41 110.157C120.367 110.417 120.324 110.678 120.28 110.946C120.035 112.816 120.114 114.324 120.996 116.016C121.612 116.803 121.612 116.803 122.461 117.481C122.621 117.641 122.781 117.801 122.946 117.966C124.641 119.607 126.571 120.787 128.566 122.022C131.398 123.78 133.978 125.728 136.433 127.991C137.058 128.566 137.693 129.123 138.336 129.676C139.051 130.295 139.718 130.932 140.369 131.617C143.099 134.372 146.282 136.497 149.707 138.282C150.048 138.466 150.048 138.466 150.396 138.655C155.087 140.991 161.187 140.935 166.114 139.454C171.895 137.471 176.316 133.582 180.706 129.482C183.735 126.66 186.878 124.264 190.353 122.013C195.402 119.096 195.402 119.096 198.633 114.551C199.079 110.293 197.983 106.43 195.475 102.997C193.638 100.769 191.133 99.0441 188.379 98.1449C187.772 98.1349 187.772 98.1349 187.207 98.4379C186.751 99.1685 186.751 99.1685 186.383 100.068C185.464 102.021 184.342 104.067 182.227 104.883C180.388 105.096 178.713 104.819 176.953 104.297C176.471 106.566 176.791 108.382 178.034 110.358C179.141 111.907 180.458 113.211 182.227 113.965C183.971 114.172 183.971 114.172 185.431 113.306C185.965 112.594 186.232 112.198 186.328 111.329C186.522 111.329 186.715 111.329 186.914 111.329C186.312 117.825 183.644 123.289 178.677 127.589C178.125 128.028 178.125 128.028 177.539 128.321C177.624 128.071 177.624 128.071 177.711 127.816C177.787 127.59 177.864 127.364 177.942 127.131C178.017 126.91 178.092 126.689 178.169 126.461C178.251 126.205 178.333 125.948 178.418 125.684C178.523 125.365 178.627 125.046 178.735 124.717C179.031 123.527 179.102 122.471 179.096 121.253C179.1 121.051 179.105 120.849 179.11 120.641C179.112 118.829 178.563 117.962 177.375 116.657C176.748 115.951 176.748 115.951 176.075 116.016C176.075 115.823 176.075 115.629 176.075 115.43C175.881 115.43 175.688 115.43 175.489 115.43C175.413 115.265 175.337 115.101 175.259 114.931C174.73 113.932 174.041 113.061 173.366 112.157C172.201 110.279 171.816 108.562 171.845 106.366C171.847 106.125 171.85 105.883 171.852 105.634C172.014 99.6215 174.447 93.11 178.494 88.6223C180.787 86.4533 182.88 85.6535 186.03 85.7036C189.464 85.8611 191.635 87.1596 193.946 89.6488C197.607 93.7577 200.017 99.2819 201.27 104.59C201.362 104.949 201.454 105.308 201.549 105.677C201.756 106.485 201.956 107.294 202.149 108.106C203.904 105.473 203.598 101.458 203.205 98.4242C202.229 94.2685 199.608 90.5409 197.281 87.037C194.961 83.5439 192.989 80.0194 191.309 76.1723C191.169 75.866 191.029 75.5597 190.884 75.2442C189.649 72.1723 189.55 68.0729 190.668 64.9479C190.873 64.4861 191.087 64.0284 191.309 63.5746C191.607 62.893 191.897 62.2084 192.188 61.5238C191.791 61.5278 191.791 61.5278 191.387 61.5319C187.111 61.4726 183.11 60.2791 179.004 59.1801C164.272 55.2693 151.037 56.1734 136.428 60.194ZM109.198 60.1059C107.919 62.2096 107.65 64.4867 107.666 66.9071C107.668 67.1952 107.669 67.4833 107.671 67.7801C107.756 71.5236 108.513 75.1551 109.278 78.809C109.354 79.1775 109.431 79.5461 109.51 79.9258C109.88 81.6924 110.258 83.4571 110.645 85.22C110.99 86.7902 111.313 88.3639 111.621 89.9418C111.911 89.7968 111.911 89.7968 112.207 89.6488C112.434 88.9451 112.623 88.2609 112.793 87.5431C112.844 87.3315 112.895 87.1198 112.947 86.9017C114.897 78.5566 113.421 71.6309 111.035 63.5746C115.219 65.7647 118.482 68.4816 120.163 73.0263C120.63 74.5416 120.968 76.0853 121.289 77.6371C122.873 77.0859 123.352 75.6116 124.058 74.2073C125.425 71.3049 125.585 67.7529 124.787 64.6366C123.695 61.6216 121.769 59.7308 118.959 58.3035C115.311 56.6378 111.873 57.15 109.198 60.1059ZM196.051 61.121C193.704 64.0247 193.625 67.6286 193.946 71.1918C194.285 73.3656 195.28 75.2874 196.582 77.0512C196.872 77.2446 197.162 77.4379 197.461 77.6371C197.545 77.3426 197.628 77.048 197.714 76.7445C199.21 71.5282 200.96 67.3708 205.831 64.5302C206.543 64.1608 207.259 63.8586 208.008 63.5746C207.951 63.7499 207.893 63.9252 207.834 64.1058C205.141 72.3464 203.181 80.9249 206.543 89.3559C206.833 89.5009 206.833 89.5009 207.129 89.6488C207.579 87.5548 208.027 85.4602 208.474 83.3653C208.626 82.6544 208.778 81.9435 208.931 81.2327C210.496 74.1911 210.496 74.1911 211.029 67.017C211.034 66.7527 211.039 66.4883 211.044 66.2159C211.045 63.6572 210.561 61.189 208.887 59.1801C204.817 55.8501 199.412 57.6961 196.051 61.121ZM134.766 93.1645C134.122 93.6816 134.122 93.6816 134.135 94.3329C134.247 95.5429 134.359 96.2324 135.095 97.2294C136.975 98.6185 138.63 98.8904 140.918 99.0238C140.419 96.9684 139.624 95.4229 137.989 94.0434C136.942 93.4709 135.972 93.1645 134.766 93.1645ZM180.801 94.1544C179.476 95.3798 178.687 96.726 178.125 98.4379C178.125 98.6313 178.125 98.8246 178.125 99.0238C180.264 98.8803 182.446 98.6922 183.966 97.028C184.59 96.0646 184.813 95.474 184.864 94.3363C184.767 94.0463 184.67 93.7563 184.571 93.4574C183.292 92.818 181.89 93.3503 180.801 94.1544ZM75.1273 119.645C67.6294 127.495 65.2615 140.095 65.0393 150.586C65.0318 150.856 65.0242 151.126 65.0165 151.404C64.5323 170.849 70.012 189.568 75.5862 208.008C75.6829 208.008 75.7796 208.008 75.8792 208.008C75.7534 205.77 75.5598 203.554 75.2681 201.332C75.2382 201.104 75.2083 200.876 75.1775 200.642C75.1144 200.162 75.0513 199.682 74.9882 199.202C73.5625 188.233 73.0822 177.248 72.9571 166.194C72.9505 165.613 72.9427 165.031 72.9348 164.45C72.9095 162.464 72.918 160.482 72.9495 158.497C72.9527 158.287 72.9559 158.078 72.9592 157.862C73.1758 144.014 74.2129 131.168 79.1807 118.113C79.4262 117.5 79.4262 117.5 79.3948 116.895C77.8285 116.895 76.2103 118.638 75.1273 119.645Z" fill="black"/>
<path d="M167.847 113.688C169.475 115.083 170.659 116.319 170.928 118.521C170.93 120.797 170.821 122.549 169.629 124.512C169.472 124.802 169.315 125.092 169.153 125.391C167.402 127.602 165.268 129.396 162.598 130.371C162.308 130.371 162.018 130.371 161.719 130.371C161.719 130.565 161.719 130.758 161.719 130.957C164.047 131.17 166.358 131.281 168.695 131.287C169.036 131.289 169.036 131.289 169.383 131.291C170.95 131.287 172.469 131.152 174.023 130.957C171.363 134.481 167.303 136.28 163 136.908C156.966 137.557 151.463 136.664 146.484 133.008C145.922 132.541 145.488 132.109 145.02 131.543C145.02 131.35 145.02 131.157 145.02 130.957C145.3 131.005 145.581 131.053 145.87 131.102C147.205 131.291 148.526 131.294 149.872 131.287C150.127 131.286 150.383 131.286 150.646 131.285C152.784 131.271 154.902 131.155 157.031 130.957C157.031 130.764 157.031 130.571 157.031 130.371C156.816 130.336 156.601 130.301 156.379 130.265C153.145 129.522 150.953 127.141 149.262 124.448C148.407 122.843 148.156 121.494 148.151 119.678C148.143 119.121 148.143 119.121 148.136 118.552C148.307 116.828 149.094 115.488 150.293 114.258C154.941 111.048 163.073 110.327 167.847 113.688ZM151.863 116.745C151.388 117.247 151.388 117.247 150.879 118.067C150.976 118.357 151.072 118.647 151.172 118.946C151.525 118.746 151.525 118.746 151.886 118.543C154.299 117.442 156.699 117.382 159.32 117.389C159.642 117.385 159.964 117.38 160.296 117.375C163.086 117.373 165.588 117.871 168.164 118.946C167.858 117.628 167.429 116.87 166.34 116.045C162.459 113.642 155.37 113.563 151.863 116.745Z" fill="black"/>
<path d="M173.438 69.7266C173.631 69.8232 173.824 69.9199 174.023 70.0195C174.056 70.8255 174.079 71.6301 174.097 72.4365C174.111 72.7611 174.111 72.7611 174.126 73.0923C174.213 78.3907 172.279 83.8334 170.934 88.8933C170.683 89.8363 170.435 90.7798 170.187 91.7237C169.947 92.639 169.705 93.5538 169.463 94.4687C169.331 94.9709 169.331 94.9709 169.197 95.4832C168.74 97.1937 168.235 98.844 167.578 100.488C167.481 100.488 167.385 100.488 167.285 100.488C167.093 90.2922 168.639 78.8228 173.438 69.7266Z" fill="black"/>
<path d="M145.312 69.7266C151.366 76.805 151.867 91.7145 151.757 100.488C151.564 100.488 151.371 100.488 151.171 100.488C149.727 95.0809 148.293 89.6697 146.947 84.2367C146.836 83.7874 146.723 83.3384 146.609 82.8896C146.018 80.5556 145.522 78.2413 145.232 75.8492C145.207 75.6496 145.183 75.45 145.158 75.2444C144.956 73.3766 145.073 71.5868 145.312 69.7266Z" fill="black"/>
</svg>
