<svg width="300" height="300" viewBox="0 0 300 300" fill="none" xmlns="http://www.w3.org/2000/svg">
<path d="M133.008 62.4022C141.05 64.1593 147.449 69.1425 152.344 75.5858C152.566 75.8676 152.787 76.1493 153.015 76.4396C156.148 80.4481 159.002 84.6426 161.783 88.9014C164.266 93.0324 164.266 93.0324 168.102 95.6759C172.269 96.4771 176.641 95.214 180.677 94.2454C188.617 92.3419 196.649 90.8481 204.731 89.685C204.927 89.6564 205.123 89.6278 205.325 89.5984C211.249 88.745 217.13 88.3645 223.115 88.3849C223.433 88.3853 223.752 88.3858 224.081 88.3862C230.904 88.403 237.73 88.6545 244.336 90.5272C244.551 90.5872 244.765 90.6472 244.986 90.7089C252.334 92.8195 260.168 97.3113 264.039 104.132C264.758 105.516 265.311 106.895 265.723 108.398C265.79 108.634 265.856 108.87 265.925 109.112C266.018 109.877 266.025 110.605 266.022 111.375C266.021 111.64 266.02 111.905 266.019 112.178C266.018 112.483 266.018 112.483 266.016 112.793C265.825 112.805 265.634 112.818 265.437 112.831C260.861 113.137 256.339 113.613 251.798 114.249C245.799 115.085 239.825 115.717 233.777 116.049C228.494 116.34 223.7 116.808 219.727 120.703C219.407 121.13 219.096 121.563 218.793 122.003C217.526 123.733 215.704 124.631 213.868 125.651C209.295 128.193 205.054 131.136 201.27 134.766C201.113 134.891 200.956 135.016 200.794 135.145C200.175 135.913 200.003 136.815 199.75 137.75C198.993 140.343 197.877 142.656 196.583 145.019C196.437 145.299 196.291 145.578 196.141 145.865C191.268 154.398 180.421 159.875 171.352 162.589C169.415 163.117 167.546 163.29 165.546 163.312C165.321 163.315 165.096 163.318 164.863 163.321C162.886 163.29 161.008 162.993 159.513 161.627C158.43 159.646 158.968 157.171 159.559 155.09C162.557 146.464 170.84 136.725 179.004 132.715C181.602 131.543 184.285 130.632 186.995 129.76C188.064 129.485 188.064 129.485 188.965 128.906C172.689 128.391 158.651 134.804 146.192 145.019C146.039 145.144 145.887 145.269 145.73 145.397C138.155 151.62 129.702 159.65 128.614 169.977C128.484 173.588 129.782 176.259 131.543 179.297C160.062 177.487 187.151 170.011 213.855 155.364C216.853 153.716 219.876 152.118 222.897 150.514C223.904 149.979 224.91 149.442 225.914 148.901C228.675 147.422 231.479 146.045 234.302 144.69C242.791 140.611 251.714 136.005 257.813 128.613C258.026 128.359 258.026 128.359 258.244 128.1C262.36 123.551 262.36 123.551 263.379 117.773C262.397 117.814 261.414 117.858 260.431 117.902C260.155 117.913 259.879 117.925 259.594 117.936C259.188 117.955 259.188 117.955 258.773 117.974C258.403 117.99 258.403 117.99 258.025 118.006C257.212 118.056 257.212 118.056 256.354 118.207C254.646 118.461 252.914 118.474 251.191 118.539C250.385 118.571 249.579 118.605 248.773 118.638C248.564 118.647 248.355 118.655 248.14 118.664C241.508 118.935 234.9 119.216 228.311 120.064C228.011 120.102 228.011 120.102 227.704 120.14C227.187 120.207 226.67 120.278 226.153 120.35C225.307 120.409 224.646 120.327 223.829 120.117C224.814 119.251 225.843 118.917 227.094 118.609C227.299 118.558 227.504 118.507 227.716 118.455C230.091 117.915 232.445 117.89 234.87 117.883C241.466 117.834 247.86 117.012 254.369 115.981C255.261 115.84 256.153 115.702 257.046 115.565C257.311 115.522 257.577 115.479 257.85 115.434C262.4 114.737 262.4 114.737 264.277 115.503C265.007 116.162 265.397 116.76 265.475 117.755C264.771 124.512 258.781 130.481 253.889 134.735C250.984 137.082 247.865 139.062 244.629 140.918C244.362 141.072 244.095 141.226 243.82 141.385C239.246 144.017 234.624 146.486 229.76 148.543C229.543 148.635 229.326 148.727 229.103 148.822C228.702 148.991 228.3 149.156 227.896 149.317C226.827 149.762 226.123 150.125 225.586 151.172C225.279 153.067 225.615 154.922 226.026 156.775C227.584 164.084 226.486 172.582 222.547 179.004C222.202 179.499 221.848 179.987 221.485 180.469C221.283 180.742 221.081 181.015 220.873 181.296C218.787 183.983 216.141 186.714 212.644 187.317C209.954 187.47 207.434 186.304 205.41 184.6C202.068 181.306 201.198 177.548 200.666 173.016C200.334 170.276 199.895 167.62 199.219 164.941C199.074 165.021 198.929 165.1 198.78 165.181C181.489 174.571 163.32 179.075 143.848 180.762C138.628 181.219 133.448 181.687 128.321 182.812C128.046 182.872 127.771 182.932 127.488 182.994C117.97 185.118 109.416 188.652 101.28 194.012C95.8955 197.548 90.5617 200.441 84.462 202.544C82.2239 203.243 82.2239 203.243 80.4753 204.712C79.8377 206.799 80.4877 208.123 81.4756 209.992C82.1384 211.119 82.8745 212.178 83.6325 213.242C87.5915 218.855 90.4821 225.001 89.3193 231.976C88.9555 233.994 88.4574 235.971 87.9094 237.945C87.8037 238.334 87.8037 238.334 87.6958 238.731C87.2686 240.211 86.7723 241.348 85.8403 242.578C85.1255 242.47 84.7556 242.377 84.2519 241.844C83.3055 240.378 82.5176 238.873 81.7571 237.305C79.9219 233.564 77.8993 231.718 74.2566 229.698C71.1684 227.981 69.0533 226.436 67.2208 223.346C66.8206 222.634 66.8206 222.634 66.2114 222.07C66.0694 222.205 65.9274 222.339 65.7811 222.478C62.9418 225.077 60.0768 225.912 56.2216 225.873C54.803 225.803 53.3942 225.641 51.9841 225.476C45.6375 224.766 40.6518 224.779 34.9357 228C34.6824 228.141 34.429 228.282 34.168 228.427C33.9421 228.557 33.7163 228.686 33.4836 228.82C32.7175 229.142 32.1715 229.176 31.3481 229.101C31.0552 228.808 31.0552 228.808 30.9453 227.728C31.0369 222.46 34.8579 217.719 38.3794 214.16C38.6349 213.878 38.6349 213.878 38.8955 213.59C43.5259 208.575 50.1175 206.257 56.6442 205.008C56.9669 204.946 57.2896 204.884 57.6221 204.821C58.2525 204.703 58.8838 204.589 59.5161 204.481C63.4152 203.768 66.454 201.969 68.7383 198.688C71.5937 193.872 72.6915 188.094 74.0755 182.735C76.6459 172.854 81.1853 163.65 87.3109 155.466C87.8643 154.723 88.3995 153.971 88.9323 153.214C93.6202 146.568 98.9313 140.349 104.986 134.911C105.676 134.285 106.352 133.646 107.03 133.007C108.889 131.263 110.79 129.605 112.793 128.027C112.984 127.876 113.174 127.724 113.37 127.568C115.663 125.746 117.967 123.957 120.392 122.314C130.951 115.375 130.951 115.375 136.592 104.468C137.144 101.437 137.254 98.4646 137.241 95.3876C137.238 94.5411 137.247 93.6952 137.256 92.8487C137.285 84.9085 134.999 78.0598 131.468 71.0483C131.308 70.7293 131.308 70.7293 131.144 70.404C130.939 69.9992 130.733 69.5952 130.526 69.192C129.612 67.3993 129.246 65.8776 129.493 63.8671C130.307 62.205 131.32 62.2543 133.008 62.4022ZM201.27 104.297C200.918 104.347 200.567 104.397 200.205 104.449C187.637 106.317 175.129 109.827 163.074 113.8C162.864 113.868 162.654 113.936 162.437 114.007C157.508 115.442 157.508 115.442 153.809 118.652C153.714 119.694 153.714 119.694 154.102 120.703C155.865 122.24 158.001 122.236 160.218 122.259C160.466 122.268 160.714 122.276 160.97 122.285C166.124 122.333 171.379 120.776 176.384 119.681C177.349 119.47 178.314 119.261 179.279 119.052C182.109 118.438 184.939 117.822 187.768 117.2C193.517 115.937 199.237 114.727 205.079 113.965C205.176 114.203 205.274 114.441 205.375 114.687C205.909 115.539 205.909 115.539 206.979 115.605C207.402 115.609 207.825 115.604 208.247 115.593C208.473 115.593 208.699 115.592 208.932 115.591C209.411 115.588 209.89 115.582 210.369 115.572C211.093 115.558 211.817 115.554 212.541 115.553C216.266 115.527 219.282 114.996 222.748 113.58C223.343 113.341 223.938 113.102 224.534 112.864C224.816 112.75 225.099 112.636 225.391 112.518C226.042 112.259 226.695 112.009 227.353 111.77C230.904 110.511 230.904 110.511 233.698 108.087C234.131 107.266 234.131 107.266 234.101 106.457C233.581 105.296 232.844 104.794 231.669 104.332C228.921 103.448 226.169 103.37 223.306 103.358C222.977 103.356 222.648 103.354 222.31 103.352C221.247 103.347 220.185 103.345 219.123 103.345C218.76 103.344 218.398 103.344 218.024 103.344C212.386 103.349 206.858 103.497 201.27 104.297ZM92.6335 161.59C88.2286 166.037 82.1137 173.181 81.6655 179.791C81.6897 180.015 81.7139 180.238 81.7388 180.469C82.2004 180.884 82.2004 180.884 82.9106 181.055C84.1949 180.464 85.2782 179.659 86.4263 178.839C88.3808 177.463 89.8563 176.754 92.2856 176.953C92.9998 177.191 92.9998 177.191 93.4575 177.539C94.4728 180.585 93.5857 184.205 92.9955 187.257C92.4266 190.304 92.2275 193.097 93.4575 195.996C96.3533 195.119 98.8825 193.367 101.384 191.704C110.183 185.866 119.596 182.698 129.786 180.176C127.914 176.72 125.062 172.902 121.18 171.698C115.846 170.507 111.033 172.547 106.348 174.902C106.465 172.077 106.96 169.469 107.667 166.736C107.854 165.998 108.04 165.26 108.225 164.522C108.307 164.201 108.39 163.881 108.475 163.55C109.136 160.647 109.723 157.051 108.106 154.394C107.456 153.513 107.066 153.265 106.019 152.93C100.874 152.93 96.0563 158.2 92.6335 161.59Z" fill="black"/>
<path d="M264.276 115.503C265.006 116.163 265.396 116.76 265.474 117.755C264.77 124.513 258.78 130.481 253.888 134.735C250.984 137.082 247.864 139.062 244.629 140.918C244.362 141.072 244.094 141.227 243.819 141.386C239.245 144.017 234.623 146.487 229.76 148.543C229.543 148.636 229.326 148.728 229.102 148.823C228.701 148.991 228.299 149.156 227.895 149.318C226.827 149.762 226.123 150.126 225.586 151.172C225.278 153.068 225.614 154.922 226.025 156.775C227.583 164.084 226.486 172.582 222.546 179.004C222.202 179.499 221.848 179.988 221.484 180.469C221.282 180.742 221.08 181.015 220.872 181.296C218.786 183.983 216.14 186.715 212.644 187.317C209.954 187.47 207.433 186.305 205.41 184.6C202.067 181.307 201.197 177.548 200.665 173.017C200.334 170.276 199.894 167.62 199.219 164.942C199.001 165.061 199.001 165.061 198.78 165.182C181.489 174.572 163.32 179.075 143.848 180.762C138.627 181.219 133.448 181.687 128.32 182.813C128.046 182.873 127.771 182.933 127.488 182.994C118.127 185.084 109.459 188.444 101.572 193.94C101.074 194.239 101.074 194.239 100.488 194.239C100.488 194.045 100.488 193.852 100.488 193.653C100.198 193.556 99.9082 193.459 99.6094 193.36C99.6094 193.07 99.6094 192.78 99.6094 192.481C100.284 191.984 100.942 191.552 101.66 191.126C101.872 190.997 102.085 190.868 102.304 190.736C102.966 190.337 103.631 189.943 104.297 189.551C104.491 189.435 104.685 189.319 104.885 189.2C112.529 184.647 120.88 181.971 129.492 179.883C129.202 179.4 128.912 178.916 128.613 178.418C129 178.418 129.387 178.418 129.785 178.418C129.979 178.032 130.172 177.645 130.371 177.246C130.758 177.923 131.145 178.6 131.543 179.297C160.062 177.488 187.151 170.012 213.855 155.364C216.852 153.717 219.876 152.118 222.897 150.514C223.904 149.979 224.909 149.442 225.913 148.902C228.674 147.423 231.478 146.045 234.302 144.69C242.79 140.611 251.714 136.005 257.812 128.614C258.026 128.359 258.026 128.359 258.244 128.1C262.36 123.551 262.36 123.551 263.379 117.774C262.396 117.815 261.414 117.858 260.431 117.902C260.155 117.913 259.878 117.925 259.594 117.937C259.187 117.955 259.187 117.955 258.773 117.974C258.402 117.99 258.402 117.99 258.024 118.007C257.211 118.057 257.211 118.057 256.354 118.208C254.646 118.462 252.914 118.474 251.191 118.539C250.385 118.572 249.579 118.605 248.773 118.639C248.459 118.651 248.459 118.651 248.14 118.664C241.508 118.936 234.9 119.217 228.31 120.064C228.11 120.089 227.91 120.115 227.704 120.141C227.186 120.207 226.669 120.278 226.152 120.35C225.306 120.409 224.645 120.328 223.828 120.117C224.813 119.251 225.843 118.917 227.093 118.609C227.299 118.558 227.504 118.508 227.716 118.456C230.09 117.915 232.445 117.89 234.869 117.884C241.465 117.834 247.86 117.012 254.368 115.981C255.26 115.84 256.153 115.703 257.046 115.565C257.311 115.522 257.576 115.479 257.85 115.435C262.4 114.737 262.4 114.737 264.276 115.503Z" fill="black"/>
<path d="M264.276 115.503C265.006 116.163 265.396 116.76 265.474 117.755C264.77 124.513 258.78 130.481 253.888 134.735C250.984 137.082 247.864 139.062 244.629 140.918C244.362 141.072 244.094 141.227 243.819 141.386C238.646 144.362 233.389 147.038 227.895 149.369C227.063 149.724 226.342 150.082 225.586 150.586C225.441 149.861 225.441 149.861 225.293 149.121C225.473 149.035 225.652 148.949 225.837 148.86C227.566 148.028 229.292 147.193 231.017 146.354C231.903 145.924 232.79 145.495 233.678 145.068C242.211 140.964 251.756 136.184 257.812 128.614C258.114 128.252 258.416 127.891 258.719 127.531C262.525 123.228 262.525 123.228 263.379 117.774C262.396 117.815 261.414 117.858 260.431 117.902C260.155 117.913 259.878 117.925 259.594 117.937C259.187 117.955 259.187 117.955 258.773 117.974C258.526 117.985 258.279 117.995 258.024 118.007C257.211 118.057 257.211 118.057 256.354 118.208C254.646 118.462 252.914 118.474 251.191 118.539C250.385 118.572 249.579 118.605 248.773 118.639C248.459 118.651 248.459 118.651 248.14 118.664C241.508 118.936 234.9 119.217 228.31 120.064C228.11 120.089 227.91 120.115 227.704 120.141C227.186 120.207 226.669 120.278 226.152 120.35C225.306 120.409 224.645 120.328 223.828 120.117C224.813 119.251 225.843 118.917 227.093 118.609C227.299 118.558 227.504 118.508 227.716 118.456C230.09 117.915 232.445 117.89 234.869 117.884C241.465 117.834 247.86 117.012 254.368 115.981C255.26 115.84 256.153 115.703 257.046 115.565C257.311 115.522 257.576 115.479 257.85 115.435C262.4 114.737 262.4 114.737 264.276 115.503Z" fill="black"/>
</svg>
