<svg width="300" height="300" viewBox="0 0 300 300" fill="none" xmlns="http://www.w3.org/2000/svg">
<path d="M162.891 77.3434C165.67 79.5327 167.771 82.0619 169.446 85.162C169.544 85.343 169.642 85.5239 169.743 85.7103C170.365 86.9081 170.764 88.0556 171.094 89.3551C171.328 89.1852 171.562 89.0152 171.804 88.8401C177.613 84.6817 183.792 82.751 190.942 83.6308C194.927 84.4441 198.032 86.4938 200.312 89.8597C203.483 94.7079 204.425 101.563 203.321 107.226C203.228 107.618 203.132 108.009 203.028 108.398C203.366 108.307 203.705 108.217 204.053 108.123C209.479 106.67 216.452 107.059 221.568 109.403C224.583 111.147 226.742 113.804 227.771 117.117C229.262 123.265 228.112 130.885 225.293 136.523C225.483 136.527 225.672 136.531 225.867 136.536C231.623 136.827 237.389 138.71 241.407 142.968C243.818 145.785 244.214 148.73 244.043 152.343C243.499 157.995 240.057 162.822 236.133 166.699C236.458 166.827 236.458 166.827 236.789 166.958C242.673 169.335 247.294 172.55 250.104 178.359C251.227 181.095 251.093 184.029 249.977 186.742C247.362 192.136 242.759 195.376 237.305 197.461C237.555 197.717 237.555 197.717 237.81 197.978C241.444 201.836 243.257 205.894 243.164 211.23C242.788 214.371 241.81 217.843 239.356 220.019C235.365 223.097 230.627 223.951 225.695 223.42C220.302 222.571 215.373 219.964 210.434 217.75C208.239 216.767 206.037 215.8 203.833 214.837C203.546 214.712 203.546 214.712 203.253 214.584C202.454 214.235 201.654 213.886 200.854 213.537C199.495 212.944 198.136 212.349 196.778 211.754C191.361 209.383 185.942 207.024 180.469 204.785C179.793 205.668 179.246 206.555 178.711 207.531C173.792 216.009 166.262 221.227 156.879 223.82C147.701 225.921 138.512 224.02 130.595 219.178C129.36 218.386 128.251 217.468 127.149 216.504C126.934 216.331 126.72 216.158 126.499 215.981C123.682 213.645 121.143 210.418 119.532 207.129C119.532 206.935 119.532 206.742 119.532 206.543C119.343 206.587 119.155 206.631 118.961 206.677C113.93 207.86 108.885 208.949 103.821 209.985C102.708 210.214 101.595 210.443 100.482 210.672C99.7318 210.826 98.9812 210.981 98.2305 211.135C94.2287 211.958 90.2295 212.792 86.2305 213.628C84.6682 213.955 83.1056 214.28 81.5426 214.603C80.8927 214.739 80.2435 214.878 79.5944 215.018C77.6216 215.437 75.7224 215.774 73.7004 215.735C73.4672 215.732 73.2341 215.729 72.9939 215.726C67.6968 215.589 62.296 214.108 58.0082 210.937C57.7526 210.756 57.4969 210.575 57.2335 210.389C54.3918 208.272 52.403 205.465 51.7003 201.957C51.1343 197.474 52.822 193.415 55.4997 189.88C55.8424 189.473 56.1906 189.07 56.5434 188.672C56.7485 188.428 56.9535 188.185 57.1648 187.935C58.5554 186.325 60.0143 184.842 61.8168 183.691C62.0102 183.691 62.2036 183.691 62.4028 183.691C61.5541 182.795 60.6643 182.094 59.6562 181.384C54.9958 177.906 50.1596 172.98 49.2192 166.992C48.9778 162.628 49.5577 159.854 52.4418 156.445C55.4452 153.31 59.7934 150.471 64.1606 150C63.5414 148.914 62.8392 147.968 62.0549 146.997C58.4665 142.232 56.8006 136.624 57.4223 130.664C58.0891 127.473 60.0533 124.905 62.6957 123.047C67.9277 120.031 73.1605 119.389 79.102 119.531C78.9819 119.227 78.8618 118.922 78.7381 118.609C78.5785 118.196 78.419 117.783 78.2597 117.37C78.1413 117.072 78.1413 117.072 78.0205 116.767C76.2967 112.268 75.8345 106.402 77.5605 101.842C78.1572 100.602 78.8208 99.5058 79.6879 98.4372C79.8348 98.254 79.9817 98.0708 80.1331 97.8821C81.8489 95.9659 84.5061 94.4836 87.0988 94.2837C93.1091 94.1381 97.569 94.9326 102.832 97.8512C102.861 97.6085 102.861 97.6085 102.89 97.3608C103.673 90.87 105.058 84.019 110.45 79.6872C113.625 77.6018 116.652 76.9384 120.419 77.4681C125.796 78.6448 129.574 81.9872 133.301 85.8395C133.594 86.1331 133.886 86.4264 134.18 86.7184C134.373 86.4306 134.373 86.4306 134.569 86.137C138.433 80.5774 143.449 76.8481 150.11 75.3292C154.638 74.5311 158.996 74.6733 162.891 77.3434ZM139.051 86.4071C137.575 88.3814 136.433 90.056 136.475 92.5887C136.481 92.9246 136.486 93.2605 136.492 93.6066C136.541 95.1789 136.619 96.7476 136.716 98.3176C136.736 98.6669 136.757 99.0161 136.778 99.3759C136.834 100.329 136.891 101.281 136.949 102.234C137.011 103.255 137.071 104.277 137.131 105.298C137.234 107.043 137.338 108.789 137.442 110.535C137.7 114.856 137.955 119.178 138.209 123.499C138.25 124.185 138.29 124.871 138.331 125.557C138.871 134.736 139.378 143.917 139.862 153.099C139.917 154.141 139.972 155.183 140.028 156.225C140.064 156.917 140.1 157.61 140.136 158.302C140.247 160.424 140.381 162.537 140.625 164.648C141.919 164.86 142.912 164.834 144.141 164.355C145.168 163.076 145.785 161.671 146.432 160.171C146.801 159.321 147.19 158.483 147.585 157.644C148.281 156.158 148.957 154.663 149.628 153.165C149.967 152.417 150.316 151.675 150.671 150.935C150.863 150.525 151.054 150.116 151.246 149.707C151.41 149.362 151.575 149.018 151.745 148.663C152.352 146.667 151.655 144.814 151.044 142.895C149.064 136.379 149.244 129.613 152.152 123.374C154.037 120.033 156.875 117.222 160.254 115.429C159.959 113.591 159.11 112.024 158.313 110.357C158.164 110.034 158.015 109.711 157.861 109.378C157.031 107.635 156.19 106.178 154.835 104.793C153.611 103.413 153.685 102.027 153.719 100.252C153.89 98.4793 154.678 97.4916 155.97 96.2948C157.443 95.1246 158.871 94.7877 160.729 94.8254C162.298 95.0417 163.641 95.8124 164.942 96.6793C165.073 96.5169 165.204 96.3546 165.339 96.1872C167.098 94.0792 167.098 94.0792 168.457 93.7497C168.088 91.8014 167.523 90.1318 166.663 88.348C166.487 87.9825 166.487 87.9825 166.308 87.6095C164.567 84.0902 162.023 80.899 158.333 79.3351C157.152 78.9489 156.032 78.9267 154.798 78.9547C154.416 78.9604 154.416 78.9604 154.026 78.9661C148.129 79.1486 142.838 81.8905 139.051 86.4071ZM111.145 84.5578C107.856 88.5005 106.654 94.1701 107.073 99.2089C107.606 102.612 109.045 105.907 110.247 109.118C110.705 110.344 111.149 111.574 111.587 112.806C112.457 115.249 113.344 117.685 114.232 120.12C114.586 121.09 114.939 122.06 115.293 123.03C120.672 137.796 126.089 152.547 131.543 167.285C132.673 167.285 133.517 166.856 134.528 166.406C135.193 166.113 135.859 165.82 136.524 165.527C136.628 161.399 136.335 157.285 136.089 153.166C136.026 152.111 135.965 151.055 135.904 149.999C135.8 148.205 135.695 146.41 135.589 144.615C135.425 141.826 135.262 139.038 135.1 136.249C135.073 135.785 135.046 135.322 135.019 134.858C134.979 134.165 134.939 133.473 134.899 132.78C134.819 131.406 134.739 130.032 134.659 128.658C134.262 121.849 133.873 115.04 133.501 108.23C133.467 107.602 133.432 106.975 133.397 106.347C133.355 105.569 133.312 104.792 133.27 104.014C133.232 103.31 133.193 102.606 133.154 101.903C133.066 100.297 132.995 98.6937 132.957 97.0862C132.943 96.6243 132.943 96.6243 132.93 96.1531C132.915 95.5853 132.904 95.0174 132.899 94.4494C132.83 91.9796 131.987 90.2745 130.298 88.4762C129.952 88.1069 129.952 88.1069 129.598 87.7301C129.37 87.4929 129.142 87.2557 128.907 87.0114C128.709 86.7984 128.511 86.5854 128.307 86.3659C125.552 83.479 121.944 81.3445 117.872 81.1337C114.931 81.2124 113.131 82.4672 111.145 84.5578ZM172.559 93.4567C173.44 94.0658 173.44 94.0658 174.445 94.5736C175.94 95.425 176.69 96.5341 177.247 98.1442C177.577 100.44 177.158 102.143 175.782 104.004C175.574 104.179 175.574 104.179 175.362 104.358C174.715 105.096 174.494 105.86 174.176 106.786C174.112 106.97 174.049 107.155 173.983 107.345C173.849 107.734 173.716 108.124 173.585 108.514C173.384 109.11 173.178 109.704 172.972 110.298C172.226 112.375 172.226 112.375 171.973 114.55C172.217 114.657 172.462 114.763 172.714 114.873C177.984 117.228 181.546 120.241 183.674 125.738C183.879 126.305 184.081 126.872 184.278 127.441C185.531 126.24 186.625 124.942 187.72 123.596C187.992 123.264 187.992 123.264 188.269 122.925C188.795 122.283 189.32 121.639 189.844 120.996C190.098 120.686 190.351 120.376 190.605 120.066C191.443 119.044 192.28 118.021 193.114 116.995C194.349 115.479 195.596 113.975 196.857 112.481C196.996 112.317 197.134 112.153 197.277 111.984C197.81 111.354 198.343 110.74 198.926 110.156C200.539 104.749 200.136 97.9277 197.608 92.8707C196.044 90.2068 194.21 88.61 191.237 87.7724C189.881 87.4781 188.555 87.4416 187.171 87.4508C186.73 87.4533 186.73 87.4533 186.28 87.4559C181.036 87.5805 176.282 89.7533 172.559 93.4567ZM168.75 97.5582C167.564 98.6933 167.15 99.463 166.993 101.074C167.008 102.01 167.08 102.94 167.156 103.873C167.176 104.137 167.196 104.401 167.217 104.673C167.28 105.512 167.347 106.351 167.414 107.19C167.458 107.76 167.501 108.331 167.545 108.902C167.651 110.296 167.761 111.691 167.872 113.086C168.661 112.296 168.809 111.417 169.094 110.369C169.217 109.935 169.341 109.502 169.465 109.069C169.658 108.386 169.849 107.703 170.035 107.019C170.216 106.357 170.405 105.699 170.595 105.04C170.648 104.837 170.702 104.633 170.756 104.423C171.198 102.928 171.824 102.427 173.145 101.66C173.831 100.631 173.876 100.235 173.731 99.0231C173.167 98.0683 172.723 97.6419 171.735 97.1371C170.528 96.9241 169.874 97.0681 168.75 97.5582ZM82.6176 100.781C80.2472 104.178 80.2046 108.137 80.703 112.124C81.6939 117.331 84.3137 121.445 87.5947 125.472C88.8153 126.972 89.9619 128.525 91.1137 130.078C91.6988 130.86 92.2852 131.641 92.8715 132.422C93.6734 133.49 94.4752 134.559 95.2748 135.629C96.4779 137.239 97.6918 138.839 98.9122 140.436C102.151 144.674 105.313 148.964 108.431 153.291C111.154 157.067 113.931 160.801 116.732 164.519C118.15 166.407 119.539 168.316 120.909 170.241C121.772 171.448 122.668 172.602 123.633 173.73C125.215 172.384 126.771 171.012 128.321 169.629C126.706 164.956 125.02 160.311 123.321 155.669C123.024 154.858 122.727 154.046 122.431 153.234C120.53 148.034 118.623 142.836 116.712 137.64C114.236 130.91 111.797 124.167 109.376 117.417C109.24 117.037 109.24 117.037 109.101 116.649C108.584 115.208 108.067 113.765 107.551 112.323C107.392 111.881 107.233 111.439 107.072 110.998C106.646 109.825 106.234 108.649 105.841 107.465C105.669 106.964 105.497 106.463 105.325 105.962C105.214 105.614 105.214 105.614 105.102 105.26C104.38 103.193 103.149 102.24 101.238 101.266C100.894 101.106 100.55 100.946 100.196 100.781C99.9091 100.633 99.6225 100.485 99.3271 100.332C94.4393 97.9199 86.7942 96.306 82.6176 100.781ZM157.618 99.902C157.194 100.748 157.214 101.307 157.325 102.246C158.072 103.154 158.548 103.63 159.668 104.004C159.96 104.497 159.96 104.497 160.215 105.137C160.311 105.371 160.407 105.605 160.505 105.846C160.604 106.096 160.702 106.346 160.804 106.604C161.01 107.112 161.217 107.619 161.424 108.127C161.524 108.374 161.624 108.621 161.727 108.876C162.271 110.199 162.871 111.496 163.477 112.793C163.574 112.793 163.67 112.793 163.77 112.793C163.8 110.037 163.788 107.288 163.66 104.535C163.651 104.307 163.642 104.08 163.633 103.845C163.544 102.15 163.419 100.526 162.287 99.1879C160.602 98.2919 158.791 98.2391 157.618 99.902ZM200.247 114.069C198.882 115.539 197.624 117.097 196.384 118.674C195.494 119.795 194.583 120.899 193.671 122.003C193.312 122.438 192.953 122.873 192.594 123.309C192.338 123.619 192.338 123.619 192.076 123.936C190.848 125.423 190.848 125.423 189.642 126.926C189.12 127.549 188.6 128.103 188.023 128.67C186.209 130.545 185.263 131.997 185.178 134.662C185.202 136.072 185.308 137.464 185.45 138.867C185.47 139.199 185.49 139.532 185.511 139.874C185.799 142.609 187.098 145.189 188.173 147.693C188.379 148.242 188.379 148.242 188.379 148.828C188.034 148.692 187.688 148.556 187.332 148.416C186.036 147.906 184.738 147.398 183.441 146.889C182.882 146.67 182.323 146.451 181.765 146.231C177.347 144.491 177.347 144.491 172.852 142.968C172.972 145.633 173.38 148.087 174.079 150.659C174.215 151.171 174.215 151.171 174.353 151.694C175.085 154.404 175.945 157.049 176.954 159.668C178.093 159.493 178.943 159.149 179.95 158.593C180.248 158.43 180.546 158.267 180.853 158.099C181.174 157.922 181.494 157.745 181.824 157.562C182.513 157.186 183.202 156.81 183.891 156.435C184.068 156.338 184.245 156.242 184.427 156.143C186.291 155.129 188.177 154.156 190.064 153.186C192.712 151.821 195.337 150.423 197.946 148.986C200.062 147.825 202.201 146.711 204.346 145.605C207.322 144.071 210.277 142.504 213.206 140.881C214.26 140.299 215.323 139.741 216.397 139.196C216.664 139.058 216.931 138.919 217.207 138.777C217.709 138.517 218.214 138.262 218.722 138.015C220.903 136.87 221.704 135.27 222.514 133.01C222.632 132.632 222.746 132.252 222.858 131.872C222.916 131.688 222.975 131.503 223.035 131.313C223.911 128.434 224.228 125.609 224.231 122.607C224.239 122.299 224.246 121.992 224.253 121.674C224.262 119.186 223.855 116.879 222.29 114.88C217.199 110.946 205.369 109.228 200.247 114.069ZM157.325 122.168C154.476 125.765 153.467 130.077 153.425 134.582C153.416 134.874 153.408 135.166 153.399 135.467C153.367 139.353 154.715 142.89 156.053 146.486C157.548 150.524 158.801 154.565 159.668 158.789C159.72 159.03 159.771 159.272 159.824 159.52C161.29 166.716 161.001 174.74 159.668 181.933C159.62 182.205 159.571 182.476 159.521 182.755C158.155 190.165 155.96 197.665 151.172 203.613C151.014 203.819 150.856 204.025 150.693 204.238C146.973 208.831 140.832 211.632 135.059 212.402C133.998 212.476 132.936 212.523 131.873 212.567C131.587 212.579 131.302 212.592 131.008 212.605C130.307 212.636 129.607 212.666 128.907 212.695C129.94 213.794 131.013 214.656 132.294 215.46C132.475 215.574 132.655 215.687 132.841 215.805C140.095 220.31 148.107 221.592 156.446 219.726C164.021 217.882 170.412 213.424 174.537 206.791C180.409 196.939 180.516 185.401 177.851 174.499C176.592 169.556 174.845 164.765 173.145 159.961C170.585 152.708 167.923 145.123 169.922 137.402C170.212 137.522 170.501 137.641 170.799 137.765C171.883 138.212 172.966 138.659 174.049 139.106C174.517 139.299 174.984 139.492 175.451 139.685C176.125 139.964 176.8 140.242 177.475 140.521C177.681 140.606 177.887 140.691 178.099 140.779C179.465 141.341 180.841 141.87 182.227 142.382C182.181 142.107 182.135 141.831 182.087 141.547C181.924 140.402 181.883 139.267 181.849 138.113C181.68 132.533 181.209 126.456 177.247 122.168C177.087 121.981 176.927 121.795 176.762 121.603C174.488 119.105 171.217 117.986 167.904 117.7C163.801 117.608 160.121 119.098 157.325 122.168ZM63.2451 127.514C61.7024 129.26 61.0044 131.626 61.121 133.933C61.9869 140.49 65.1333 145.868 70.3129 150C71.938 151.221 73.6161 152.367 75.2934 153.515C75.5088 153.664 75.7241 153.812 75.946 153.965C77.679 155.158 79.4194 156.34 81.1616 157.519C81.8056 157.955 82.4494 158.391 83.0933 158.828C89.6713 163.284 96.2719 167.703 102.923 172.05C104.78 173.265 106.626 174.498 108.472 175.731C109.198 176.216 109.926 176.699 110.653 177.182C112.003 178.077 113.348 178.978 114.677 179.904C114.891 180.053 115.106 180.202 115.327 180.356C115.743 180.646 116.158 180.937 116.572 181.229C117.522 181.97 117.522 181.97 118.653 182.226C119.054 181.471 119.45 180.715 119.843 179.956C119.957 179.742 120.071 179.528 120.189 179.308C120.296 179.1 120.403 178.893 120.512 178.679C120.612 178.488 120.712 178.298 120.815 178.102C121.044 177.391 120.968 177.061 120.704 176.367C120.389 175.825 120.389 175.825 119.986 175.295C119.836 175.089 119.687 174.884 119.532 174.672C119.369 174.452 119.206 174.232 119.037 174.005C118.867 173.773 118.697 173.541 118.522 173.301C117.982 172.564 117.438 171.829 116.895 171.093C116.555 170.63 116.214 170.167 115.874 169.704C115.021 168.544 114.166 167.385 113.311 166.228C112.625 165.299 111.94 164.369 111.255 163.439C110.913 162.975 110.571 162.511 110.229 162.047C109.38 160.896 108.532 159.743 107.687 158.59C105.676 155.848 103.634 153.134 101.567 150.435C100.499 149.037 99.4497 147.63 98.4379 146.191C96.4704 143.395 94.3652 140.701 92.2856 137.988C91.4914 136.951 90.6979 135.913 89.9052 134.875C89.7126 134.623 89.52 134.371 89.3216 134.111C87.8131 132.131 86.3321 130.131 84.8708 128.116C84.4186 127.495 83.958 126.882 83.4965 126.269C83.3599 126.074 83.2233 125.879 83.0825 125.677C82.134 124.415 81.3667 123.939 79.8014 123.697C74.0968 123.169 67.7468 123.538 63.2451 127.514ZM217.914 142.511C217.663 142.638 217.411 142.765 217.152 142.896C215.001 143.991 212.883 145.143 210.769 146.307C208.837 147.37 206.89 148.4 204.932 149.414C202.744 150.547 200.572 151.705 198.414 152.893C196.015 154.212 193.596 155.484 191.163 156.738C188.641 158.038 186.129 159.355 183.637 160.711C183.38 160.851 183.123 160.99 182.858 161.134C181.344 161.963 179.87 162.837 178.418 163.769C178.485 163.965 178.551 164.161 178.62 164.363C178.926 165.27 179.231 166.177 179.535 167.083C179.692 167.546 179.692 167.546 179.852 168.018C180.006 168.478 180.006 168.478 180.164 168.948C180.304 169.364 180.304 169.364 180.447 169.789C180.884 171.19 181.262 172.606 181.641 174.023C190.064 172.745 198.477 171.403 206.887 170.04C208.171 169.832 209.456 169.624 210.74 169.416C212.005 169.212 213.27 169.007 214.534 168.803C215.125 168.707 215.715 168.612 216.305 168.516C217.671 168.295 219.037 168.073 220.403 167.849C221.593 167.654 222.783 167.466 223.975 167.281C224.607 167.18 225.24 167.08 225.873 166.979C226.165 166.935 226.458 166.891 226.759 166.845C230.941 166.172 234.185 163.793 236.684 160.381C237.216 159.572 237.708 158.753 238.184 157.91C238.327 157.66 238.47 157.41 238.617 157.152C239.997 154.465 240.764 150.849 239.869 147.894C238.799 145.308 236.528 143.567 234.044 142.419C231.409 141.386 228.713 140.84 225.916 140.496C225.69 140.466 225.464 140.435 225.231 140.403C222.497 140.116 220.294 141.295 217.914 142.511ZM153.809 152.636C153.712 152.849 153.614 153.061 153.514 153.28C153.064 154.262 152.612 155.244 152.161 156.225C152.008 156.559 151.855 156.893 151.698 157.237C150.794 159.201 149.857 161.14 148.854 163.056C148.476 163.773 148.476 163.773 148.536 164.648C149.056 164.76 149.056 164.76 149.586 164.874C151.999 165.397 154.393 165.921 156.739 166.699C156.691 163.797 156.315 161.03 155.75 158.184C155.689 157.871 155.627 157.558 155.564 157.235C155.228 155.602 154.83 154.138 154.102 152.636C154.005 152.636 153.909 152.636 153.809 152.636ZM54.4926 159.961C53.1926 161.892 52.7634 163.824 53.0278 166.113C54.8216 172.62 59.9308 177.448 65.6254 180.761C66.9208 181.473 68.1691 181.881 69.6068 182.182C69.823 182.23 70.0392 182.277 70.262 182.326C70.977 182.482 71.6926 182.634 72.4083 182.787C72.9171 182.897 73.4258 183.008 73.9345 183.119C75.2807 183.412 76.6274 183.702 77.9743 183.992C80.3494 184.502 82.7234 185.018 85.0976 185.534C85.4897 185.619 85.4897 185.619 85.8897 185.705C91.5498 186.933 97.1929 188.231 102.832 189.55C103.366 189.675 103.366 189.675 103.91 189.802C106.144 190.324 108.377 190.847 110.609 191.373C111.403 191.56 112.196 191.746 112.99 191.932C113.225 191.988 113.461 192.044 113.703 192.101C114.591 192.308 115.394 192.48 116.309 192.48C116.599 190.353 116.889 188.226 117.188 186.035C114.815 184.347 112.392 182.744 109.956 181.15C108.809 180.4 107.663 179.648 106.517 178.896C106.295 178.75 106.073 178.605 105.844 178.454C103.689 177.04 101.541 175.613 99.3993 174.177C97.9299 173.194 96.4581 172.215 94.9869 171.234C94.0616 170.617 93.1364 170 92.2111 169.384C91.7086 169.049 91.2062 168.714 90.7037 168.379C89.3689 167.489 88.0342 166.599 86.6996 165.709C83.288 163.433 83.288 163.433 79.8722 161.165C76.4349 158.884 73.0331 156.561 69.6671 154.177C65.118 150.989 57.6213 156.521 54.4926 159.961ZM126.437 176.362C121.836 181.76 119.785 188.639 120.182 195.667C120.608 199.596 121.826 203.912 124.219 207.129C127.916 209.354 133.285 209.068 137.366 208.136C143.264 206.638 147.782 202.909 150.867 197.731C154.787 190.504 157.154 180.757 157.05 172.54C157.047 172.265 157.045 171.989 157.042 171.706C157.039 171.504 157.035 171.302 157.032 171.093C146.17 166.683 134.851 167.581 126.437 176.362ZM229.66 170.125C229.365 170.171 229.069 170.217 228.764 170.263C228.44 170.315 228.117 170.366 227.784 170.418C227.264 170.499 227.264 170.499 226.733 170.582C225.772 170.732 224.811 170.883 223.849 171.034C223.241 171.13 222.633 171.226 222.025 171.321C214.374 172.521 206.732 173.771 199.091 175.03C198.819 175.075 198.548 175.12 198.268 175.166C196.683 175.427 195.099 175.688 193.515 175.95C193.033 176.03 192.55 176.11 192.068 176.189C188.881 176.716 185.699 177.264 182.52 177.832C182.54 178.037 182.559 178.242 182.58 178.453C182.626 178.942 182.673 179.431 182.72 179.92C182.787 180.523 182.868 181.124 182.959 181.723C183.126 182.959 183.206 184.186 183.271 185.431C183.283 185.659 183.296 185.887 183.309 186.122C183.34 186.679 183.369 187.236 183.399 187.793C185.759 188.254 188.119 188.585 190.507 188.866C191.081 188.935 191.655 189.004 192.228 189.073C192.838 189.146 193.448 189.218 194.058 189.291C195.998 189.521 197.938 189.755 199.878 189.988C200.325 190.042 200.773 190.096 201.22 190.15C205.989 190.723 210.756 191.314 215.522 191.911C216.111 191.985 216.7 192.058 217.289 192.132C221.028 192.599 224.766 193.07 228.503 193.555C228.777 193.59 229.051 193.625 229.333 193.662C230.376 193.798 231.411 193.939 232.446 194.126C235.392 194.563 239.053 192.565 241.407 191.015C244.056 189.008 246.358 186.472 246.973 183.105C247.134 180.337 245.733 178.057 243.988 176.019C241.001 172.863 236.374 170.059 231.92 169.896C231.15 169.922 230.421 170.007 229.66 170.125ZM59.4731 191.015C58.1828 192.662 57.0877 194.37 56.2504 196.289C56.0692 196.688 56.0692 196.688 55.8842 197.094C55.3666 199.337 55.3026 201.895 56.5434 203.906C59.9978 208.399 64.7535 210.756 70.3129 211.523C74.5771 211.854 78.5853 211.332 82.7355 210.408C83.2871 210.291 83.8387 210.174 84.3905 210.058C85.8416 209.75 87.2908 209.434 88.7398 209.117C90.2358 208.791 91.7334 208.472 93.2308 208.153C95.5734 207.652 97.9151 207.148 100.256 206.64C102.905 206.066 105.556 205.502 108.209 204.945C108.864 204.807 109.52 204.67 110.175 204.532C110.471 204.469 110.768 204.407 111.073 204.343C112.401 204.064 113.729 203.784 115.056 203.501C115.376 203.433 115.376 203.433 115.703 203.365C116.768 203.139 116.768 203.139 117.774 202.734C117.194 199.834 117.194 199.834 116.602 196.875C114.996 196.339 113.528 195.861 111.899 195.491C111.709 195.447 111.519 195.404 111.323 195.359C110.695 195.215 110.066 195.073 109.438 194.931C108.984 194.828 108.53 194.725 108.077 194.621C106.852 194.342 105.627 194.065 104.402 193.788C103.637 193.615 102.871 193.442 102.105 193.268C98.6183 192.478 95.1304 191.691 91.642 190.907C90.823 190.723 90.0041 190.538 89.1853 190.354C86.0349 189.644 82.8839 188.937 79.7318 188.235C78.7411 188.014 77.7506 187.792 76.7603 187.57C75.5946 187.307 74.4284 187.048 73.2618 186.79C72.8354 186.695 72.4092 186.6 71.9831 186.504C66.2767 185.215 63.2805 186.589 59.4731 191.015ZM183.106 191.894C183.049 192.248 182.993 192.601 182.934 192.965C182.857 193.438 182.78 193.911 182.703 194.384C182.648 194.732 182.648 194.732 182.591 195.087C182.406 196.215 182.199 197.318 181.904 198.422C181.681 199.348 181.618 200.039 181.641 200.976C181.812 201.048 181.983 201.119 182.159 201.193C186.339 202.946 190.505 204.731 194.66 206.543C194.899 206.647 195.137 206.751 195.383 206.858C198.496 208.216 201.604 209.585 204.708 210.962C211.254 213.868 211.254 213.868 217.831 216.699C218.208 216.858 218.585 217.018 218.961 217.179C222.132 218.534 225.055 219.602 228.534 219.543C228.789 219.54 229.044 219.537 229.307 219.534C232.29 219.462 234.723 218.8 237.012 216.797C239.175 214.248 239.291 211.215 239.063 208.007C238.43 204.232 236.007 201.2 233.136 198.812C230.799 197.451 228.04 197.219 225.403 196.901C225.007 196.851 224.61 196.801 224.213 196.751C223.138 196.616 222.062 196.484 220.987 196.353C219.85 196.214 218.713 196.072 217.577 195.93C215.369 195.655 213.161 195.384 210.953 195.113C209.064 194.882 207.176 194.649 205.288 194.415C202.252 194.04 199.216 193.666 196.18 193.293C195.374 193.194 194.568 193.095 193.763 192.996C192.492 192.839 191.22 192.684 189.949 192.529C189.48 192.472 189.011 192.414 188.541 192.356C187.898 192.277 187.255 192.199 186.612 192.121C186.251 192.077 185.891 192.033 185.519 191.988C184.705 191.907 183.922 191.875 183.106 191.894Z" fill="black"/>
<path d="M171.167 124.127C173.592 126.167 173.592 126.167 173.73 127.735C173.886 129.602 173.623 130.862 172.558 132.422C171.316 133.664 170.075 134.098 168.347 134.29C166.568 134.106 165.397 133.434 164.099 132.221C163.21 130.835 162.726 129.567 163.012 127.91C163.516 126.243 164.224 125.014 165.674 123.999C167.515 123.078 169.349 123.183 171.167 124.127ZM167.212 127.643C166.615 128.281 166.615 128.281 166.736 129.09C166.952 129.828 166.952 129.828 167.578 130.371C168.85 130.343 168.85 130.343 169.922 129.785C170.044 128.931 170.044 128.931 169.922 128.028C169.42 127.45 169.42 127.45 168.75 127.149C167.851 127.061 167.851 127.061 167.212 127.643Z" fill="black"/>
</svg>
