<svg width="300" height="300" viewBox="0 0 300 300" fill="none" xmlns="http://www.w3.org/2000/svg">
<path d="M155.831 94.8611C156.5 95.246 157.174 95.6234 157.848 96.0007C166.771 101.038 166.771 101.038 169.336 105.175C169.336 105.369 169.336 105.562 169.336 105.761C169.12 105.788 168.904 105.814 168.681 105.841C163.977 106.427 159.478 107.178 154.981 108.691C154.741 108.771 154.502 108.851 154.255 108.933C145.977 111.727 140.51 115.507 136.348 123.344C135.107 125.948 134.226 128.747 133.796 131.6C133.314 132.864 131.868 133.288 130.719 133.813C126.18 136.061 123.375 141.36 121.729 146.008C120.704 149.826 121.316 153.544 121.93 157.379C121.988 157.744 122.045 158.109 122.104 158.485C123.047 163.966 125.031 169.351 129.681 172.712C131.022 173.646 132.392 174.471 133.851 175.213C136.237 176.489 137.391 178.357 138.721 180.633C140.506 183.67 142.48 185.196 145.51 186.938C146.14 187.301 146.759 187.682 147.364 188.086C147.364 188.279 147.364 188.472 147.364 188.672C147.182 188.761 147 188.851 146.813 188.943C145.095 189.831 143.567 190.834 142.035 192.004C136.116 196.439 128.684 198.444 121.289 197.754C118.074 197.104 115.589 195.378 113.086 193.359C112.807 193.134 112.527 192.908 112.24 192.676C109.043 189.944 106.954 186.134 106.348 181.933C106.307 181.318 106.284 180.701 106.275 180.084C106.267 179.771 106.26 179.458 106.252 179.135C106.485 176.689 107.836 174.446 108.893 172.265C109.118 171.799 109.118 171.799 109.347 171.323C109.714 170.563 110.081 169.803 110.45 169.043C110.858 169.095 110.858 169.095 111.275 169.148C113.567 169.462 113.567 169.462 115.76 168.933C118.225 166.682 118.301 163.135 118.449 159.993C118.489 159.062 118.524 158.131 118.553 157.2C118.631 154.717 118.631 154.717 118.802 153.508C119.632 147.483 118.559 141.411 117.48 135.493C116.897 132.184 116.924 129.293 117.481 125.976C117.329 126.096 117.177 126.216 117.02 126.34C114.39 128.372 114.39 128.372 112.946 128.268C112.207 128.027 112.207 128.027 111.777 127.443C111.664 127.192 111.55 126.942 111.434 126.684C111.308 126.411 111.182 126.138 111.052 125.857C110.862 125.427 110.862 125.427 110.669 124.987C110.473 124.56 110.473 124.56 110.273 124.125C108.658 120.58 108.033 115.87 109.35 112.087C109.843 111.075 110.379 110.19 111.036 109.277C111.254 108.969 111.472 108.661 111.697 108.344C112.138 107.745 112.589 107.153 113.049 106.568C113.609 105.843 114.102 105.109 114.588 104.333C117.282 100.306 122.292 99.1888 126.731 97.9932C129.023 97.3665 130.948 96.5006 132.953 95.2328C140.477 90.7004 148.202 90.4686 155.831 94.8611Z" fill="black"/>
<path d="M184.425 107.849C184.734 107.914 185.043 107.979 185.361 108.046C189.097 108.869 193.008 109.992 195.979 112.518C196.15 112.661 196.322 112.803 196.499 112.95C196.876 113.379 196.876 113.379 196.876 114.258C196.607 114.319 196.338 114.379 196.061 114.442C192.964 115.22 191.205 116.26 189.387 118.927C187.225 122.549 185.969 126.39 184.792 130.417C184.399 131.753 183.959 133.064 183.494 134.377C182.206 138.033 181.431 141.758 180.663 145.553C180.323 147.19 179.923 148.812 179.521 150.435C177.803 158.366 180.25 165.264 184.278 171.973C184.418 172.209 184.558 172.446 184.702 172.69C188.065 178.351 191.391 182.574 198.048 184.277C193.6 189.167 183.986 189.341 177.833 189.844C176.129 189.904 175.329 189.835 174.024 188.672C173.447 187.834 173.011 186.945 172.559 186.035C172.407 185.768 172.255 185.501 172.098 185.226C170.098 181.599 169.78 177.72 170.823 173.744C171.072 172.925 171.364 172.156 171.699 171.368C173.539 166.948 172.827 162.501 171.992 157.944C171.844 157.133 171.7 156.322 171.556 155.51C171.464 154.994 171.372 154.478 171.279 153.962C171.236 153.72 171.192 153.477 171.148 153.228C170.941 152.018 170.941 152.018 170.509 150.879C169.695 150.727 168.893 150.604 168.073 150.494C165.781 150.15 163.802 149.584 161.72 148.535C161.462 148.41 161.205 148.285 160.94 148.156C159.245 147.283 159.245 147.283 158.68 146.54C158.415 145.609 158.718 145.159 159.12 144.287C159.801 142.635 160.232 141.043 160.566 139.288C160.637 138.914 160.637 138.914 160.71 138.533C160.854 137.766 160.994 136.998 161.134 136.23C162.516 128.68 164.269 122.008 169.507 116.2C170.24 115.358 170.91 114.466 171.589 113.58C175.327 108.783 178.286 106.547 184.425 107.849Z" fill="black"/>
<path d="M90.528 128.613C90.9524 128.753 90.9524 128.753 91.3853 128.895C93.4058 129.559 95.4223 130.235 97.4378 130.914C98.3932 131.235 99.3497 131.552 100.307 131.867C100.592 131.961 100.878 132.055 101.171 132.152C101.707 132.329 102.243 132.505 102.779 132.68C104.558 133.268 104.558 133.268 104.883 133.594C105.256 138.091 104.823 142.739 103.837 147.13C102.652 152.461 102.863 157.526 104.139 162.818C104.402 163.913 104.641 165.014 104.883 166.113C104.674 166.245 104.464 166.377 104.248 166.513C102.527 167.624 100.949 168.777 99.4086 170.123C97.0678 172.145 95.1698 173.466 91.9928 173.438C91.502 173.354 91.0132 173.257 90.528 173.145C90.1311 173.167 89.7344 173.192 89.3378 173.218C84.9104 173.247 80.3218 169.306 77.2998 166.382C74.9549 163.884 73.3003 160.908 72.3639 157.617C72.2763 157.316 72.1887 157.014 72.0984 156.703C70.3109 149.147 70.9272 140.222 74.8256 133.468C76.6061 130.898 79.3417 128.3 82.4473 127.567C85.3367 127.087 87.7905 127.708 90.528 128.613Z" fill="black"/>
<path d="M137.052 135.904C138.263 135.909 139.399 136.113 140.569 136.414C140.773 136.466 140.976 136.518 141.186 136.572C144.306 137.425 146.686 139.131 149.12 141.211C149.349 141.405 149.349 141.405 149.581 141.603C151.131 142.92 152.676 144.243 154.2 145.589C156.14 147.293 158.138 148.888 160.216 150.421C160.446 150.591 160.676 150.761 160.913 150.935C161.136 151.098 161.358 151.26 161.587 151.427C161.803 151.585 162.019 151.743 162.242 151.906C162.879 152.356 162.879 152.356 163.57 152.69C164.212 153.018 164.718 153.303 165.234 153.809C165.53 154.754 165.492 155.645 165.453 156.628C165.473 160.214 166.311 162.631 168.456 165.527C168.36 165.721 168.263 165.914 168.163 166.113C167.552 166.264 166.934 166.387 166.314 166.498C161.396 167.506 156.886 170.193 152.5 172.564C147.882 175.046 143.458 176.908 138.189 175.323C132.529 173.095 127.466 168.387 124.804 162.891C124.109 161.07 124.13 159.104 124.041 157.18C123.976 155.876 123.841 154.62 123.614 153.333C122.923 149.106 123.105 145.167 125.591 141.559C127.803 138.761 130.215 136.77 133.8 136.077C134.886 135.954 135.96 135.937 137.052 135.904Z" fill="black"/>
<path d="M213.867 128.906C216.349 129.709 217.625 131.576 219.048 133.63C219.378 134.102 219.709 134.572 220.041 135.043C220.184 135.25 220.328 135.457 220.476 135.67C220.875 136.2 221.295 136.654 221.777 137.109C222.067 137.013 222.357 136.916 222.656 136.816C224.032 137.918 224.261 139.278 224.502 140.94C224.824 142.856 225.665 144.078 226.849 145.587C228.925 148.342 230.757 150.815 230.566 154.395C230.206 155.653 229.323 156.106 228.222 156.738C227.448 157.065 226.673 157.343 225.878 157.617C226.156 157.744 226.434 157.871 226.721 158.002C227.636 158.496 227.636 158.496 228.222 159.375C228.215 160.102 228.215 160.102 228.112 160.895C228.08 161.159 228.047 161.423 228.014 161.695C227.986 161.896 227.958 162.097 227.929 162.305C226.362 162.331 224.818 162.338 223.26 162.158C221.6 161.971 219.93 161.918 218.261 162.012C218.164 162.108 218.068 162.205 217.968 162.305C218.141 162.318 218.313 162.331 218.491 162.345C219.287 162.407 220.083 162.475 220.879 162.543C221.286 162.574 221.286 162.574 221.702 162.605C225.967 162.979 225.967 162.979 227.343 164.355C227.343 166.454 226.573 167.717 225.292 169.336C225.158 169.511 225.023 169.686 224.885 169.866C223.357 171.607 221.236 172.587 219.223 173.664C218.054 174.292 216.895 174.937 215.734 175.58C215.516 175.699 215.297 175.819 215.072 175.942C214.116 176.47 213.204 176.999 212.322 177.643C211.523 178.125 211.523 178.125 210.878 178.116C210.231 177.768 209.956 177.403 209.527 176.807C208.532 175.603 207.439 174.9 206.103 174.133C202.801 172.227 200.823 170.34 199.694 166.577C198.901 163.302 198.881 160.083 198.918 156.734C198.935 154.915 198.901 153.119 198.776 151.305C198.396 145.714 199.76 140.983 203.478 136.706C205.852 134.113 208.66 132.278 211.756 130.651C212.721 130.138 213.249 129.833 213.867 128.906ZM205.572 142.035C204.799 143.495 204.655 144.48 205.096 146.063C205.594 147.389 206.179 148.092 207.421 148.828C208.656 149.177 209.657 149.276 210.864 148.81C211.836 147.972 212.701 147.057 213.281 145.898C213.397 144.207 213.286 142.699 212.402 141.211C211.513 140.355 210.875 140.212 209.655 140.222C207.834 140.28 206.758 140.592 205.572 142.035Z" fill="black"/>
<path d="M159.767 189.669C162.717 189.867 165.666 189.941 168.621 190.009C169.149 190.021 169.677 190.034 170.204 190.047C171.477 190.078 172.75 190.108 174.023 190.137C173.656 195.044 171.937 199.247 168.336 202.676C164.953 205.549 161.281 207.927 156.7 207.805C153.635 207.476 151.077 206.665 148.827 204.492C148.595 204.279 148.363 204.066 148.124 203.846C146.329 202.139 144.882 200.484 144.666 197.929C144.618 195.318 144.618 195.318 145.605 194.238C147.413 192.669 149.763 192.155 152.008 191.497C153.042 191.187 154.066 190.846 155.09 190.503C155.448 190.384 155.807 190.264 156.177 190.141C157.51 189.677 158.35 189.562 159.767 189.669Z" fill="black"/>
<path d="M210.937 141.211C211.986 141.813 212.526 142.155 212.899 143.308C213.07 144.406 213.067 145.119 212.64 146.154C211.692 147.266 211.287 147.617 209.783 147.784C208.878 147.747 208.566 147.64 207.751 147.162C206.777 146.102 206.535 145.437 206.56 143.994C206.887 142.775 207.339 142.3 208.3 141.504C209.223 141.042 209.917 141.109 210.937 141.211Z" fill="black"/>
</svg>
