<svg width="300" height="300" viewBox="0 0 300 300" fill="none" xmlns="http://www.w3.org/2000/svg">
<path d="M175.891 96.8563C179.721 100.142 183.555 104.402 184.278 109.57C186.631 110.143 188.98 110.699 191.362 111.139C198.794 112.53 204.764 114.982 210.819 119.471C213.133 121.176 215.595 122.661 218.094 124.079C220.556 125.48 222.693 126.884 224.707 128.906C224.907 129.088 225.106 129.27 225.312 129.458C227.589 131.584 229.443 134.338 230.86 137.109C230.86 137.302 230.86 137.496 230.86 137.695C231.21 137.629 231.561 137.562 231.922 137.494C233.187 137.342 233.897 137.531 234.961 138.281C236.34 139.954 236.51 141.7 236.817 143.798C237.073 145.361 237.073 145.361 237.99 146.618C238.697 147.028 239.408 147.428 240.125 147.821C241.489 148.727 241.843 149.571 242.162 151.151C242.493 153.56 242.672 155.796 242.285 158.203C242.322 158.602 242.322 158.602 242.359 159.008C242.285 159.668 242.285 159.668 241.571 160.272C241.324 160.459 241.076 160.647 240.821 160.84C240.254 162.234 240.57 163.904 240.632 165.371C240.528 166.406 240.528 166.406 239.975 167.129C239.356 167.578 239.356 167.578 238.77 167.578C238.78 167.899 238.79 168.221 238.801 168.552C238.809 168.978 238.817 169.404 238.825 169.83C238.836 170.147 238.836 170.147 238.847 170.47C238.871 172.201 238.492 173.111 237.305 174.334C235.685 175.381 233.824 175.885 231.989 176.446C229.573 177.208 227.935 177.921 226.126 179.754C223.6 181.92 220.131 183.323 217.054 184.522C216.267 184.84 215.51 185.194 214.745 185.562C212.897 186.406 211.01 186.97 209.052 187.5C208.682 187.6 208.312 187.7 207.931 187.804C200.869 189.684 193.157 191.103 185.811 191.019C184.896 190.944 184.896 190.944 184.278 191.308C183.623 191.298 182.969 191.27 182.316 191.234C181.915 191.219 181.513 191.204 181.112 191.191C180.481 191.169 179.851 191.144 179.22 191.103C176.669 190.9 176.669 190.9 174.42 191.921C173.82 192.667 173.333 193.412 172.852 194.238C169.543 198.865 164.171 202.918 158.496 203.906C155.231 204.191 152.475 203.531 149.917 201.433C148.122 199.802 147.267 198.196 146.977 195.809C146.825 192.268 148.265 189.775 150.586 187.207C150.78 187.013 150.973 186.82 151.172 186.621C150.709 186.589 150.245 186.566 149.781 186.548C149.522 186.534 149.264 186.52 148.998 186.506C147.993 186.659 147.706 187.014 147.071 187.793C146.749 188.258 146.444 188.735 146.155 189.221C146.009 189.462 145.863 189.703 145.713 189.951C144.442 192.399 144.335 195.106 144.928 197.784C145.871 200.568 147.368 203.056 150 204.492C153.506 206.024 158.188 205.829 161.719 204.492C164.22 203.419 166.706 202.211 168.75 200.39C168.909 200.255 169.067 200.12 169.231 199.981C170.687 198.64 171.789 197.028 172.905 195.404C173.257 194.902 173.638 194.422 174.024 193.945C174.314 193.945 174.604 193.945 174.903 193.945C173.335 198.978 170.267 202.796 165.674 205.434C160.873 207.882 155.624 209.085 150.293 207.715C148.324 206.958 146.518 205.99 145.02 204.492C145.02 204.298 145.02 204.105 145.02 203.906C144.826 203.906 144.633 203.906 144.434 203.906C141.798 200.54 141.813 196.569 142.09 192.48C142.42 190.125 143.413 188.287 144.727 186.328C144.077 186.158 144.077 186.158 143.262 186.328C142.534 186.92 141.949 187.631 141.339 188.342C136.945 193.239 131.192 197.716 124.346 198.106C119.045 198.168 114.508 196.722 110.613 193.015C106.335 188.726 103.959 183.297 103.894 177.246C103.905 174.915 104.274 172.762 104.883 170.507C100.92 170.996 97.8703 173.261 94.8489 175.744C89.8364 179.847 84.0029 183.128 77.344 182.519C71.5073 181.378 66.3325 177.719 62.8237 172.979C57.7935 165.457 55.9122 155.884 57.4576 146.968C59.0949 140.164 62.035 134.423 67.969 130.371C72.3481 128.072 76.3623 127.832 81.0639 129.266C84.9456 130.565 88.6515 132.453 92.3141 134.262C94.5846 135.373 96.6891 136.362 99.2617 136.322C99.7359 136.32 99.7359 136.32 100.22 136.318C101.06 136.232 101.516 136.039 102.246 135.644C102.326 133.651 102.05 132.043 101.514 130.133C100.142 124.8 100.264 118.952 102.832 113.965C106.153 108.451 110.927 105.08 117.041 103.289C125.065 101.33 132.631 104.143 140.039 106.933C140.019 106.768 139.998 106.603 139.977 106.433C139.467 102.136 139.248 97.6198 141.968 94.014C149.894 85.086 168.208 90.4664 175.891 96.8563ZM148.535 93.7497C148.26 93.838 147.986 93.9264 147.702 94.0175C145.596 94.7794 144.134 95.749 143.024 97.7414C141.394 101.332 142.133 105.817 142.969 109.57C144.274 109.425 144.274 109.425 145.606 109.277C145.878 108.188 145.837 107.619 145.684 106.544C145.123 100.908 145.123 100.908 146.192 98.7301C150.068 95.606 157.262 95.8166 161.965 96.1529C167.735 96.9512 173.143 100.783 176.768 105.178C177.016 105.477 177.016 105.477 177.269 105.783C177.589 106.175 177.902 106.572 178.209 106.973C179.028 107.987 179.552 108.502 180.876 108.67C181.225 108.677 181.574 108.684 181.934 108.691C181.079 106.811 180.037 105.291 178.711 103.711C178.511 103.471 178.312 103.232 178.106 102.985C173.55 97.7206 167.199 93.8682 160.254 92.8708C156.344 92.6494 152.296 92.5407 148.535 93.7497ZM109.278 110.742C108.982 110.975 108.982 110.975 108.68 111.213C105.26 114.006 103.731 117.877 103.125 122.168C102.799 125.942 103.316 129.38 105.176 132.715C106.02 132.336 106.643 131.975 107.227 131.25C107.18 130.633 107.126 130.015 107.035 129.403C106.842 127.895 106.868 126.378 106.861 124.859C106.855 124.537 106.849 124.215 106.842 123.884C106.819 119.014 108.438 114.602 111.798 111.054C114.539 108.338 117.866 106.906 121.724 106.917C126.845 107.053 131.736 108.034 136.329 110.357C137.052 110.785 137.052 110.785 137.696 110.742C137.696 110.935 137.696 111.129 137.696 111.328C139.616 111.175 139.616 111.175 141.211 110.156C140.864 110.033 140.864 110.033 140.51 109.908C140.014 109.731 140.014 109.731 139.508 109.552C139.327 109.488 139.146 109.423 138.959 109.357C137.881 108.974 136.81 108.579 135.742 108.168C126.765 104.733 116.998 104.104 109.278 110.742ZM157.617 111.035C157.617 111.422 157.617 111.808 157.617 112.207C157.327 112.207 157.037 112.207 156.739 112.207C156.835 111.917 156.932 111.627 157.031 111.328C153.807 111.919 151.07 113.151 148.352 114.975C147.656 115.429 147.656 115.429 147.034 115.728C146.432 116.043 146.077 116.41 145.606 116.894C145.229 117.147 144.851 117.397 144.47 117.645C142.246 119.348 141.701 121.619 141.344 124.287C141.217 125.313 141.103 126.34 140.991 127.368C140.931 127.884 140.869 128.401 140.807 128.917C140.55 131.104 140.321 133.286 140.181 135.484C140.102 136.723 139.973 137.934 139.776 139.16C139.282 142.289 138.844 145.426 138.404 148.562C138.256 149.618 138.107 150.674 137.955 151.73C136.696 160.505 135.586 169.325 136.615 178.18C136.65 178.486 136.684 178.793 136.72 179.109C136.757 179.393 136.793 179.676 136.832 179.968C136.88 180.347 136.88 180.347 136.929 180.733C137.07 181.457 137.07 181.457 137.989 181.933C138.784 182.109 138.784 182.109 139.701 182.216C140.232 182.286 140.232 182.286 140.774 182.357C141.164 182.405 141.554 182.453 141.944 182.501C142.142 182.526 142.341 182.552 142.546 182.578C144.929 182.883 147.31 183.138 149.706 183.315C149.923 183.331 150.14 183.347 150.363 183.363C150.58 183.379 150.796 183.395 151.019 183.411C155.623 183.75 159.918 184.399 164.356 185.742C164.592 185.812 164.828 185.883 165.071 185.956C165.933 186.213 166.794 186.471 167.655 186.731C172.261 188.099 177.13 188.138 181.901 188.124C182.539 188.122 183.176 188.124 183.814 188.126C186.423 188.127 189 188.019 191.602 187.793C191.568 187.592 191.535 187.39 191.5 187.183C191.429 186.755 191.429 186.755 191.356 186.319C191.302 185.996 191.248 185.673 191.192 185.34C191.075 184.635 190.96 183.929 190.845 183.223C190.065 178.424 189.158 173.696 187.94 168.988C187.072 165.634 186.271 162.282 185.614 158.88C185.546 158.53 185.477 158.179 185.406 157.817C184.576 153.405 184.171 149.084 184.204 144.598C184.205 144.374 184.207 144.15 184.208 143.92C184.264 134.118 186.473 126.237 192.481 118.359C192.803 117.93 193.125 117.501 193.447 117.072C193.672 116.77 193.672 116.77 193.903 116.463C194.014 116.315 194.124 116.168 194.239 116.015C192.829 115.533 191.418 115.054 190.006 114.578C189.528 114.416 189.051 114.253 188.573 114.09C179.052 110.833 167.528 108.114 157.617 111.035ZM204.199 126.269C204.025 126.404 203.851 126.54 203.671 126.679C202.239 127.831 201.155 129.167 200.098 130.664C199.95 130.87 199.803 131.076 199.65 131.289C197.819 134.078 196.719 137.468 195.868 140.68C195.513 141.955 194.912 143.069 194.293 144.232C192.84 146.988 192.053 149.916 191.309 152.929C191.247 153.171 191.185 153.413 191.121 153.662C190.197 160.094 191.763 166.145 195.533 171.395C199.153 176.183 204.4 181.502 210.498 182.647C213.98 183.062 216.451 181.783 219.434 180.175C219.192 179.897 218.95 179.62 218.701 179.333C218.359 178.931 218.017 178.528 217.676 178.125C217.492 177.912 217.309 177.699 217.12 177.48C212.597 172.073 210.675 165.807 210.938 158.789C211.024 157.879 211.157 156.981 211.304 156.079C211.342 155.835 211.381 155.59 211.421 155.339C211.651 153.957 211.966 152.678 212.439 151.355C213.019 149.659 213.078 148.092 213.117 146.319C213.211 142.813 213.985 140.241 216.477 137.665C219.023 135.357 222.253 134.436 225.586 133.886C224.003 130.298 219.83 128.169 216.674 126.163C215.984 125.725 215.299 125.281 214.615 124.835C214.232 124.592 213.848 124.35 213.465 124.109C213.212 123.944 213.212 123.944 212.954 123.775C209.732 121.807 206.709 124.222 204.199 126.269ZM108.92 133.326C108.29 133.958 107.664 134.594 107.043 135.235C106.684 135.6 106.315 135.954 105.944 136.307C105.402 136.771 105.402 136.771 105.469 137.402C105.276 137.402 105.082 137.402 104.883 137.402C104.883 137.595 104.883 137.789 104.883 137.988C104.715 138.072 104.547 138.156 104.374 138.242C103.952 138.453 103.531 138.668 103.113 138.887C100.398 140.223 98.3172 139.852 95.4714 138.981C92.1993 137.856 89.1747 136.159 86.1971 134.421C82.4974 132.324 78.3553 130.897 74.0481 131.781C72.9536 132.034 72.9536 132.034 72.3635 132.715C72.0001 133.73 72.0001 133.73 71.7776 134.765C71.8743 134.959 71.9709 135.152 72.0706 135.351C71.8772 135.351 71.6838 135.351 71.4846 135.351C71.5813 135.545 71.678 135.738 71.7776 135.937C72.0744 135.815 72.0744 135.815 72.3773 135.691C72.6386 135.585 72.8999 135.479 73.1692 135.37C73.4275 135.264 73.6858 135.159 73.952 135.05C78.2419 133.432 83.5733 134.868 87.6082 136.69C87.8948 136.828 88.1815 136.967 88.4768 137.109C88.6554 137.194 88.834 137.278 89.018 137.365C92.5093 139.022 92.5093 139.022 92.8713 139.746C92.8596 140.278 92.8241 140.809 92.7798 141.339C92.7518 141.707 92.7239 142.076 92.6951 142.456C92.609 143.519 92.5084 144.58 92.4067 145.642C91.7185 153.195 91.765 161.295 96.094 167.871C96.8148 168.727 96.8148 168.727 97.5588 169.336C98.2576 169.373 98.2576 169.373 99.0237 169.043C100.799 168.405 102.41 167.978 104.297 167.871C104.538 167.848 104.78 167.826 105.028 167.803C107.398 167.679 109.551 168.221 111.827 168.814C112.21 168.914 112.21 168.914 112.6 169.015C112.828 169.077 113.055 169.138 113.29 169.201C114.019 169.346 114.689 169.359 115.43 169.336C115.871 166.327 116.303 163.318 116.723 160.307C116.821 159.609 116.92 158.912 117.022 158.215C118.451 148.392 117.198 138.765 114.844 129.199C112.474 129.199 110.544 131.716 108.92 133.326ZM68.262 134.472C67.4772 134.816 67.4772 134.816 66.7971 135.351C66.7971 135.641 66.7971 135.931 66.7971 136.23C66.5917 136.285 66.3862 136.339 66.1746 136.395C63.4745 137.745 61.972 141.433 61.0171 144.166C58.5605 152.077 59.1147 161.317 62.9519 168.695C63.8127 170.192 64.7899 171.544 65.9182 172.851C66.1743 173.149 66.1743 173.149 66.4355 173.453C68.0635 175.211 69.995 176.369 72.0706 177.539C72.3255 177.685 72.5804 177.83 72.843 177.98C75.7536 179.546 78.7597 180.305 82.0315 179.59C86.1353 178.27 89.9051 176.27 93.1643 173.437C92.2464 173.437 91.9313 173.565 91.1364 173.973C90.9107 174.086 90.685 174.199 90.4525 174.316C90.2114 174.437 89.9703 174.558 89.7219 174.682C85.3382 176.803 80.6397 178.205 75.7693 176.916C70.7234 175.069 67.371 171.606 65.1114 166.816C62.6885 161.144 61.3789 154.182 63.5745 148.242C63.6422 148.054 63.7099 147.865 63.7796 147.672C64.9271 144.527 66.2958 141.634 68.5389 139.103C69.0301 138.541 69.425 138.085 69.7268 137.402C69.6346 136.42 69.3518 135.612 68.8479 134.765C68.6545 134.669 68.4612 134.572 68.262 134.472ZM216.541 141.797C215.472 143.305 215.444 144.69 215.625 146.484C216.095 148.291 217.146 149.307 218.721 150.254C220.285 150.982 221.525 151.042 223.169 150.549C224.47 149.798 225.313 149.082 225.989 147.729C226.307 146.076 226.169 144.548 225.385 143.042C224.369 141.614 223.224 140.505 221.485 140.039C219.5 139.855 217.871 140.26 216.541 141.797ZM232.032 149.121C230.034 152.118 229.1 155.524 228.809 159.082C231.626 157.795 233.859 155.263 236.023 153.112C236.259 152.879 236.496 152.645 236.739 152.405C237.07 152.072 237.07 152.072 237.408 151.732C237.706 151.433 237.706 151.433 238.011 151.128C238.54 150.582 238.54 150.582 238.77 149.707C238.266 149.361 237.759 149.02 237.25 148.681C236.968 148.491 236.686 148.301 236.395 148.105C234.602 147.156 233.397 147.756 232.032 149.121ZM233.551 161.407C233.32 161.436 233.089 161.466 232.851 161.496C232.285 161.568 231.719 161.643 231.153 161.718C231.565 162.704 232.03 163.2 232.892 163.824C233.195 164.048 233.195 164.048 233.504 164.276C234.658 165.019 235.67 165.034 237.012 164.941C237.886 164.666 237.886 164.666 238.477 164.062C238.634 163.121 238.659 162.582 238.129 161.773C236.71 160.844 235.137 161.193 233.551 161.407ZM228.223 162.597C228.046 165.781 228.347 167.852 230.402 170.324C231.531 171.525 232.415 172.287 234.101 172.412C235.265 172.371 235.265 172.371 235.987 171.643C236.507 170.644 236.634 170.151 236.426 169.043C235.594 167.923 234.592 167.343 233.405 166.626C231.955 165.738 230.954 164.756 229.909 163.424C229.345 162.838 229.017 162.705 228.223 162.597ZM107.813 170.8C106.774 173.218 106.521 175.427 106.513 178.033C106.51 178.315 106.507 178.596 106.504 178.886C106.537 181.71 107.237 184.083 108.728 186.474C108.844 186.662 108.96 186.849 109.079 187.042C111.518 190.893 114.679 193.714 119.153 194.917C124.592 196.046 129.84 194.608 134.473 191.601C136.695 189.974 138.814 188.113 140.625 186.035C140.625 185.841 140.625 185.648 140.625 185.449C139.53 185.926 138.694 186.622 137.769 187.371C132.717 191.349 127.04 193.879 120.486 193.219C118.054 192.829 116.397 192.029 114.828 190.101C111.513 185.194 110.5 180.249 110.285 174.426C110.272 174.104 110.259 173.782 110.246 173.45C110.216 172.664 110.186 171.879 110.156 171.093C109.383 170.997 108.61 170.9 107.813 170.8Z" fill="black"/>
<path d="M168.667 150.62C170.615 152.32 171.84 153.637 172.376 156.207C173.011 159.202 174.35 161.474 176.66 163.476C176.267 164.307 175.818 165.035 175.287 165.784C174.617 166.764 174.08 167.754 173.58 168.831C172.209 171.773 170.584 173.328 167.578 174.589C163.804 175.935 160.986 176.03 157.324 174.316C153.417 171.981 151.879 168.048 150.545 163.903C149.587 160.05 150.692 156.797 152.582 153.442C154.253 150.817 155.994 148.794 159.082 148.022C162.677 147.723 165.77 148.361 168.667 150.62Z" fill="black"/>
<path d="M170.721 149.097C171.282 149.611 171.853 150.094 172.449 150.568C172.793 150.867 172.793 150.867 173.144 151.172C173.144 151.365 173.144 151.559 173.144 151.758C171.331 151.655 170.136 150.745 168.677 149.762C165.053 147.328 161.198 145.621 156.762 146.328C153.486 147.029 151.5 148.424 149.626 151.2C148.389 153.284 147.87 155.367 147.546 157.745C147.518 157.941 147.489 158.136 147.46 158.338C147.094 161.591 148.093 164.44 149.469 167.34C149.603 167.637 149.737 167.935 149.875 168.241C151.478 171.69 153.464 174.269 157.049 175.745C161.072 176.902 165.476 175.952 169.142 174.121C169.673 173.821 170.198 173.51 170.714 173.185C171.484 172.803 172.003 172.787 172.851 172.852C170.596 175.839 167.035 177.906 163.351 178.618C159.651 179.074 156 178.803 152.935 176.539C152.642 176.309 152.642 176.309 152.344 176.074C152.073 175.88 152.073 175.88 151.798 175.683C148.725 173.326 147.304 169.304 145.898 165.82C145.785 165.543 145.672 165.267 145.555 164.981C143.982 160.33 144.869 154.58 146.832 150.183C148.546 147.07 151.307 144.534 154.705 143.417C160.821 141.744 166.4 145.097 170.721 149.097Z" fill="black"/>
<path d="M221.484 141.797C222.47 142.432 223.154 142.999 223.535 144.141C223.652 145.386 223.612 146.045 223.022 147.162C222.147 148.207 221.686 148.471 220.349 148.645C219.186 148.506 218.585 148.087 217.676 147.363C216.846 146.119 216.901 145.016 217.09 143.555C217.619 142.613 218.031 142.223 218.957 141.687C219.943 141.452 220.512 141.499 221.484 141.797ZM220.898 142.969C220.802 143.162 220.705 143.356 220.605 143.555C220.895 143.555 221.185 143.555 221.484 143.555C221.484 143.361 221.484 143.168 221.484 142.969C221.291 142.969 221.097 142.969 220.898 142.969Z" fill="black"/>
</svg>
