<svg width="300" height="300" viewBox="0 0 300 300" fill="none" xmlns="http://www.w3.org/2000/svg">
<path d="M155.951 50.2991C156.238 50.3241 156.525 50.3491 156.821 50.3749C165.958 51.2843 174.062 55.5313 180.087 62.4344C183.853 67.1654 186.96 73.2345 187.353 79.3396C187.634 81.4772 188.994 82.4624 190.554 83.7627C191.611 84.6479 192.496 85.625 193.377 86.6821C193.521 86.8534 193.664 87.0246 193.812 87.201C194.102 87.5488 194.392 87.8972 194.681 88.2461C195.408 89.119 196.151 89.9779 196.893 90.8386C198.149 92.3022 199.397 93.7723 200.641 95.2458C201.626 96.4119 202.618 97.5722 203.613 98.7305C207.856 103.675 207.856 103.675 209.875 106.165C211.084 107.65 212.334 109.095 213.591 110.539C215.032 112.195 216.451 113.868 217.865 115.546C218.271 116.027 218.678 116.507 219.085 116.986C220.331 118.453 221.57 119.924 222.784 121.417C223.943 122.842 225.136 124.236 226.335 125.627C227.441 126.913 228.517 128.221 229.586 129.538C230.388 130.511 231.208 131.467 232.031 132.422C233.306 133.903 234.563 135.396 235.79 136.918C236.232 137.459 236.684 137.992 237.143 138.518C237.495 138.927 237.495 138.927 237.854 139.343C238.064 139.583 238.275 139.822 238.492 140.069C240.1 142.465 240.08 144.994 240.056 147.788C240.051 148.445 240.056 149.103 240.061 149.76C240.061 150.183 240.059 150.606 240.058 151.029C240.057 151.408 240.056 151.787 240.055 152.177C239.914 153.475 239.582 154.553 238.549 155.402C236.338 155.955 234.468 154.631 232.617 153.589C232.308 153.418 231.999 153.247 231.681 153.072C230.721 152.54 229.764 152.003 228.808 151.465C228.522 151.304 228.236 151.144 227.941 150.978C226.552 150.198 225.166 149.414 223.781 148.627C222.006 147.619 220.226 146.62 218.444 145.624C218.141 145.454 217.838 145.284 217.526 145.11C215.968 144.238 214.41 143.367 212.851 142.497C211.324 141.646 209.801 140.789 208.278 139.932C207.451 139.469 206.619 139.015 205.786 138.562C205.287 138.285 204.789 138.009 204.29 137.732C204.068 137.614 203.845 137.495 203.616 137.374C201.678 136.285 200.339 134.841 199.659 132.694C199.561 132.3 199.469 131.904 199.383 131.506C199.333 131.308 199.282 131.11 199.23 130.906C198.939 129.664 198.901 128.677 199.218 127.441C199.511 127.148 199.511 127.148 200.308 127.082C201.372 127.155 201.943 127.399 202.87 127.912C203.325 128.16 203.325 128.16 203.789 128.413C204.112 128.594 204.434 128.775 204.766 128.961C205.105 129.147 205.443 129.333 205.791 129.525C206.826 130.095 207.856 130.672 208.886 131.25C209.179 131.414 209.472 131.578 209.773 131.747C211.148 132.52 212.52 133.297 213.891 134.077C215.792 135.157 217.704 136.215 219.616 137.274C222.34 138.782 225.052 140.308 227.747 141.865C228.964 142.566 230.181 143.237 231.445 143.848C231.211 143.578 230.977 143.308 230.735 143.031C224.636 136.003 224.636 136.003 222.151 132.943C221.401 132.028 220.639 131.126 219.873 130.225C218.89 129.068 217.918 127.905 216.961 126.727C215.802 125.302 214.609 123.908 213.41 122.516C212.527 121.491 211.661 120.455 210.809 119.403C209.608 117.924 208.364 116.485 207.113 115.048C205.093 112.726 203.098 110.385 201.159 107.996C199.642 106.132 198.06 104.325 196.482 102.513C195.707 101.621 194.935 100.726 194.165 99.8291C194.019 99.6591 193.872 99.489 193.722 99.3138C192.851 98.2965 192.001 97.2653 191.162 96.2219C190.134 94.9563 189.06 93.7418 187.957 92.5415C187.805 92.3748 187.652 92.208 187.495 92.0362C186.519 90.9192 186.519 90.9192 185.17 90.4575C183.552 90.4053 182.6 90.5691 181.347 91.6992C180.586 92.9233 180.795 93.8355 181.054 95.2148C181.315 96.0574 181.631 96.8743 181.954 97.6948C182.045 97.9327 182.137 98.1707 182.231 98.4159C182.429 98.9296 182.628 99.4429 182.828 99.9559C183.149 100.781 183.467 101.606 183.784 102.432C184.224 103.576 184.664 104.721 185.105 105.865C186.031 108.268 186.942 110.675 187.848 113.086C187.977 113.43 187.977 113.43 188.109 113.78C189.332 117.037 190.526 120.304 191.708 123.577C191.776 123.765 191.844 123.954 191.914 124.148C192.53 125.853 193.145 127.557 193.756 129.263C195.511 134.186 195.511 134.186 197.449 139.038C198.168 140.739 198.743 142.402 199.108 144.214C199.164 144.474 199.22 144.735 199.278 145.003C202.542 160.591 202.596 175.827 194.831 190.166C194.525 190.734 194.228 191.305 193.931 191.877C191.36 196.733 187.856 200.914 183.984 204.785C183.762 205.021 183.54 205.256 183.311 205.499C179.578 209.399 175.171 212.363 170.507 215.039C170.321 215.147 170.135 215.256 169.943 215.367C166.346 217.441 162.513 218.966 158.587 220.299C158.317 220.391 158.048 220.482 157.77 220.577C157.25 220.752 156.728 220.923 156.206 221.09C155.856 221.207 155.856 221.207 155.498 221.325C155.292 221.392 155.085 221.458 154.872 221.527C154.286 221.764 154.286 221.764 154.101 222.656C154.075 223.29 154.067 223.924 154.068 224.558C154.068 224.845 154.068 224.845 154.068 225.138C154.068 225.771 154.07 226.403 154.073 227.036C154.073 227.475 154.074 227.914 154.074 228.352C154.075 229.507 154.078 230.661 154.081 231.816C154.084 232.994 154.085 234.172 154.087 235.351C154.09 237.662 154.095 239.974 154.101 242.285C154.468 242.283 154.835 242.28 155.213 242.277C158.67 242.254 162.127 242.236 165.584 242.224C167.362 242.218 169.139 242.21 170.916 242.197C172.632 242.184 174.347 242.177 176.062 242.174C176.717 242.172 177.371 242.168 178.025 242.161C178.942 242.153 179.858 242.152 180.775 242.152C181.046 242.148 181.316 242.144 181.595 242.139C183.223 242.15 184.16 242.364 185.449 243.457C186.138 244.307 186.315 244.822 186.456 245.911C186.299 247.212 186.013 248.034 185.156 249.023C183.019 250.129 180.865 250.036 178.505 250.038C178.07 250.042 177.636 250.046 177.202 250.05C176.027 250.061 174.853 250.066 173.679 250.07C172.446 250.075 171.214 250.084 169.981 250.093C167.911 250.107 165.841 250.118 163.77 250.126C161.383 250.136 158.995 250.151 156.607 250.169C154.304 250.186 152.001 250.199 149.698 250.211C148.72 250.216 147.743 250.223 146.766 250.23C145.613 250.238 144.46 250.243 143.308 250.246C142.886 250.248 142.465 250.251 142.044 250.254C138.525 250.284 135.469 250.243 132.714 247.852C129.766 244.682 130.031 240.783 130.049 236.688C130.05 236.158 130.05 236.158 130.05 235.618C130.052 234.502 130.056 233.385 130.059 232.269C130.061 231.508 130.062 230.746 130.063 229.984C130.067 228.128 130.072 226.271 130.078 224.414C129.587 224.42 129.587 224.42 129.086 224.426C126.108 224.45 123.176 224.357 120.208 224.084C120.003 224.066 119.797 224.048 119.585 224.029C114.792 223.6 110.051 222.851 105.303 222.08C92.4411 219.997 80.5944 221.41 69.6273 228.989C68.6046 229.733 67.6065 230.504 66.6157 231.29C65.4281 232.211 64.3284 232.845 62.8231 233.057C61.5339 232.869 61.1513 232.451 60.3512 231.445C59.0924 229.371 59.6603 226.694 60.1708 224.447C60.4904 223.156 60.8508 221.88 61.2301 220.605C61.3071 220.346 61.3841 220.087 61.4634 219.82C62.7048 215.758 64.4199 211.976 66.3001 208.177C66.3903 207.994 66.4804 207.812 66.5733 207.624C66.6643 207.441 66.7553 207.257 66.8491 207.067C67.8824 204.968 68.8403 202.836 69.7994 200.702C71.4082 197.131 73.061 193.582 74.7433 190.045C75.1904 189.105 75.6375 188.165 76.0845 187.224C76.2463 186.884 76.2463 186.884 76.4114 186.537C77.4044 184.446 78.3838 182.349 79.3575 180.249C79.5085 179.924 79.6595 179.6 79.815 179.265C80.5864 177.603 81.347 175.936 82.0949 174.263C82.2502 173.918 82.4055 173.574 82.5654 173.219C82.8571 172.571 83.1461 171.923 83.4315 171.272C85.4858 166.726 88.3565 164.273 92.8707 162.305C94.3128 161.77 95.7761 161.322 97.2504 160.886C97.6604 160.761 98.0703 160.637 98.4801 160.512C99.3223 160.255 100.165 160.001 101.008 159.748C102.547 159.286 104.081 158.81 105.616 158.334C106.731 157.989 107.846 157.645 108.962 157.302C109.149 157.245 109.337 157.187 109.53 157.128C110.111 156.949 110.692 156.77 111.273 156.592C111.473 156.53 111.674 156.468 111.881 156.405C114.402 155.63 116.924 154.856 119.446 154.082C120.831 153.656 122.216 153.231 123.6 152.804C125.79 152.13 127.979 151.458 130.169 150.787C130.699 150.625 130.699 150.625 131.24 150.459C136.044 148.989 140.862 147.58 145.695 146.21C146.176 146.074 146.176 146.074 146.667 145.935C147.139 145.801 147.139 145.801 147.621 145.665C153.005 144.135 158.264 142.374 163.476 140.332C163.28 138.867 163.082 137.403 162.883 135.939C162.815 135.441 162.748 134.944 162.681 134.446C162.585 133.728 162.487 133.01 162.389 132.293C162.36 132.072 162.331 131.852 162.301 131.626C162.081 129.264 162.081 129.264 160.956 127.35C160.663 127.25 160.663 127.25 160.363 127.148C160.128 127.06 159.894 126.971 159.652 126.88C159.224 126.723 159.224 126.723 158.789 126.563C152.662 124.038 147.442 120.912 142.675 116.309C142.444 116.092 142.212 115.876 141.974 115.653C133.408 107.447 128.253 94.9211 127.967 83.1356C127.913 78.2542 128.22 73.5741 129.222 68.7939C129.826 65.8123 129.851 62.7628 128.32 60.0586C127.695 59.2589 127.042 58.5253 126.333 57.7995C123.957 55.3483 123.957 55.3483 123.905 53.9394C123.974 52.8354 124.089 52.2935 124.841 51.4526C126.991 50.2374 129.116 50.2926 131.532 50.2693C131.903 50.2637 132.273 50.258 132.655 50.2521C133.641 50.2376 134.627 50.2255 135.614 50.2146C136.591 50.203 137.568 50.1879 138.546 50.1732C152.272 49.9759 152.272 49.9759 155.951 50.2991ZM135.351 57.7149C135.454 57.9728 135.556 58.2307 135.661 58.4965C135.795 58.8367 135.928 59.177 136.065 59.5276C136.198 59.8641 136.33 60.2006 136.467 60.5473C137.923 64.6199 137.015 69.0329 136.222 73.1506C134.898 80.1612 135.42 87.5795 137.695 94.3359C137.755 94.5169 137.815 94.6978 137.877 94.8843C139.895 100.892 143.013 105.84 147.363 110.449C147.578 110.687 147.793 110.924 148.015 111.169C152.473 115.903 158.42 118.767 164.559 120.653C165.877 121.062 166.911 121.416 167.871 122.461C168.855 124.615 169.166 126.896 169.543 129.215C169.615 129.652 169.688 130.088 169.761 130.525C169.955 131.686 170.145 132.848 170.335 134.01C170.453 134.73 170.571 135.448 170.69 136.167C171.9 143.498 173.067 150.834 174.023 158.203C174.057 158.458 174.091 158.713 174.126 158.975C175.345 168.745 172.951 178.985 166.895 186.833C165.989 187.97 165.037 189.058 164.062 190.137C163.747 190.489 163.747 190.489 163.426 190.847C159.847 194.635 155.201 197.372 150.476 199.475C150.288 199.559 150.1 199.643 149.906 199.729C147.669 200.689 145.277 201.499 142.895 200.629C141.95 200.006 141.597 199.701 141.211 198.633C141.095 195.956 142.228 193.454 143.151 190.997C143.321 190.541 143.489 190.084 143.658 189.627C143.925 188.903 144.192 188.18 144.461 187.457C145.155 185.591 145.831 183.719 146.501 181.844C146.796 181.024 147.091 180.205 147.386 179.385C147.577 178.853 147.768 178.32 147.957 177.787C148.224 177.038 148.494 176.291 148.765 175.544C148.843 175.323 148.921 175.101 149.001 174.873C149.512 173.477 150.063 172.087 151.464 171.387C153.228 171.204 154.181 171.459 155.664 172.417C156.516 173.176 156.716 173.769 156.815 174.905C156.796 176.383 156.243 177.677 155.723 179.043C155.619 179.323 155.516 179.602 155.41 179.891C155.08 180.78 154.747 181.668 154.412 182.556C154.08 183.446 153.749 184.337 153.418 185.228C153.213 185.781 153.006 186.334 152.798 186.886C152.704 187.137 152.611 187.389 152.514 187.648C152.431 187.867 152.349 188.087 152.264 188.313C152.035 189.013 151.888 189.706 151.757 190.43C157.71 187.675 162.285 181.972 164.627 175.963C165.202 174.362 165.678 172.738 166.113 171.094C166.213 170.723 166.312 170.353 166.415 169.971C167.631 164.774 166.925 159.525 166.113 154.321C166.028 153.755 165.943 153.189 165.859 152.623C165.655 151.26 165.446 149.897 165.234 148.535C163.995 148.183 163.249 148.322 162.04 148.739C161.706 148.852 161.373 148.965 161.029 149.082C160.682 149.204 160.336 149.325 159.979 149.451C159.643 149.566 159.306 149.68 158.96 149.799C157.583 150.271 156.21 150.75 154.844 151.252C152.551 152.093 150.25 152.792 147.888 153.413C146.824 153.693 145.762 153.981 144.7 154.269C144.481 154.328 144.262 154.387 144.037 154.448C136.041 156.619 128.135 159.123 120.221 161.57C117.801 162.319 115.379 163.063 112.957 163.806C111.366 164.294 109.775 164.784 108.184 165.273C107.068 165.616 105.953 165.958 104.837 166.3C103.782 166.623 102.728 166.947 101.674 167.272C101.285 167.392 100.897 167.511 100.508 167.629C95.0734 169.1 95.0734 169.1 91.1615 172.866C90.6005 173.953 90.0822 175.053 89.5748 176.166C89.3834 176.575 89.1915 176.983 88.9992 177.392C88.517 178.419 88.0415 179.448 87.5684 180.48C87.1794 181.326 86.7862 182.171 86.3933 183.016C85.8237 184.244 85.2577 185.474 84.6939 186.705C83.6788 188.917 82.6446 191.12 81.6097 193.323C80.2095 196.303 78.8175 199.288 77.4349 202.277C76.224 204.894 74.9905 207.499 73.7362 210.095C72.6993 212.245 71.6746 214.399 70.6966 216.577C70.6008 216.788 70.5049 216.999 70.4062 217.217C69.9521 218.241 69.5947 219.201 69.4332 220.313C69.5788 220.242 69.7244 220.171 69.8744 220.098C82.6003 213.943 93.5198 212.784 107.458 214.882C114.056 215.875 120.552 216.744 127.235 216.853C127.633 216.86 127.633 216.86 128.039 216.867C129.369 216.891 130.699 216.908 132.03 216.913C132.519 216.919 133.009 216.925 133.498 216.932C133.723 216.93 133.948 216.929 134.179 216.927C135.629 216.954 136.386 217.222 137.402 218.262C137.836 219.131 137.745 220.018 137.75 220.971C137.754 221.299 137.754 221.299 137.758 221.634C137.763 222.109 137.767 222.585 137.771 223.061C137.777 223.813 137.785 224.565 137.794 225.317C137.811 226.914 137.826 228.511 137.841 230.109C137.859 231.958 137.877 233.807 137.898 235.657C137.905 236.399 137.912 237.14 137.918 237.882C137.922 238.337 137.927 238.791 137.932 239.245C137.934 239.555 137.934 239.555 137.936 239.872C137.947 240.756 137.999 241.439 138.281 242.285C140.795 242.285 143.308 242.285 145.898 242.285C146.33 241.421 146.222 240.55 146.21 239.604C146.209 239.388 146.208 239.172 146.206 238.95C146.203 238.48 146.199 238.01 146.195 237.54C146.189 236.795 146.185 236.049 146.181 235.304C146.171 233.185 146.159 231.065 146.141 228.945C146.13 227.649 146.123 226.353 146.119 225.057C146.117 224.564 146.113 224.072 146.107 223.579C146.052 218.7 146.052 218.7 147.07 216.504C148.412 215.25 150.037 214.947 151.776 214.526C160.799 212.186 169.343 208.039 176.367 201.855C176.658 201.603 176.95 201.35 177.25 201.09C179.224 199.352 180.917 197.503 182.519 195.41C182.736 195.136 182.952 194.863 183.175 194.58C191.955 183.253 195.295 169.104 193.755 154.956C192.925 148.833 190.935 143.059 188.678 137.336C187.691 134.821 186.763 132.286 185.832 129.75C183.804 124.227 181.739 118.718 179.652 113.216C179.447 112.675 179.241 112.133 179.036 111.591C177.56 107.697 176.074 103.809 174.537 99.9392C174.435 99.6808 174.333 99.4224 174.227 99.1561C174.138 98.9314 174.049 98.7066 173.957 98.475C172.964 95.7435 172.987 92.1693 174.041 89.4653C175.401 86.7073 177.436 84.8657 180.175 83.4961C180.569 77.2948 177.744 71.2166 173.767 66.6067C170.437 62.8852 166.337 60.3841 161.572 58.9417C161.291 58.856 161.291 58.856 161.005 58.7686C157.49 57.7807 153.912 57.6302 150.286 57.6576C149.851 57.6587 149.417 57.6596 148.983 57.6601C147.855 57.6624 146.727 57.6681 145.599 57.6746C144.442 57.6807 143.285 57.6833 142.128 57.6862C139.869 57.6925 137.61 57.7024 135.351 57.7149Z" fill="black"/>
<path d="M138.472 174.173C139.933 174.479 140.989 175.331 142.09 176.294C142.754 177.788 142.502 179.446 141.95 180.943C141.752 181.423 141.549 181.902 141.343 182.379C141.18 182.77 141.18 182.77 141.014 183.168C140.663 184.01 140.305 184.849 139.948 185.688C139.581 186.558 139.216 187.43 138.851 188.301C138.609 188.879 138.366 189.457 138.123 190.035C137.427 191.695 136.76 193.362 136.134 195.05C136.064 195.239 135.993 195.428 135.92 195.622C135.605 196.467 135.295 197.313 134.997 198.164C134.046 200.713 132.567 203.067 130.055 204.319C128.104 205.04 126.036 205.409 123.999 205.811C123.78 205.855 123.562 205.899 123.336 205.944C112.432 208.128 101.381 209.118 90.271 208.356C89.7927 208.325 89.7927 208.325 89.3047 208.294C85.1564 207.969 85.1564 207.969 83.6426 206.342C82.9157 204.737 83.034 203.339 83.6231 201.72C83.8146 201.246 84.0106 200.774 84.2102 200.303C84.3152 200.046 84.4202 199.79 84.5284 199.525C84.864 198.707 85.2054 197.892 85.5469 197.077C85.7674 196.542 85.9875 196.007 86.2072 195.472C86.6437 194.411 87.0846 193.351 87.529 192.294C87.9702 191.242 88.3993 190.186 88.8199 189.126C88.9224 188.872 89.025 188.618 89.1306 188.356C89.3235 187.877 89.5133 187.397 89.6994 186.916C90.2397 185.589 90.7181 184.747 91.9922 183.985C93.6362 183.802 94.6858 183.925 96.0938 184.864C97.2357 185.955 97.7021 186.764 97.8588 188.341C97.8467 189.384 97.4579 190.253 97.0276 191.181C96.9375 191.387 96.8474 191.593 96.7546 191.805C96.5538 192.263 96.3507 192.72 96.1455 193.175C95.7601 194.036 95.3851 194.902 95.0111 195.768C94.3025 197.408 93.588 199.047 92.8711 200.684C94.708 200.684 96.5449 200.684 98.4375 200.684C98.7275 199.814 99.0176 198.944 99.3164 198.047C99.5242 197.513 99.7385 196.981 99.9624 196.453C100.082 196.171 100.201 195.888 100.324 195.597C100.45 195.302 100.577 195.006 100.707 194.701C100.839 194.39 100.972 194.078 101.108 193.757C101.387 193.103 101.667 192.449 101.947 191.795C102.374 190.796 102.798 189.795 103.222 188.795C103.494 188.157 103.767 187.52 104.039 186.882C104.165 186.584 104.291 186.286 104.421 185.979C105.873 182.611 105.873 182.611 107.227 181.934C109.093 181.845 110.293 182.369 111.73 183.525C112.537 184.303 112.785 184.783 112.901 185.905C112.858 187.463 112.267 188.76 111.65 190.171C111.475 190.584 111.475 190.584 111.297 191.004C110.927 191.877 110.551 192.746 110.175 193.616C109.923 194.207 109.671 194.798 109.42 195.39C107.659 199.527 107.659 199.527 107.227 200.391C109.692 200.101 109.692 200.101 112.207 199.805C112.952 198.004 113.696 196.203 114.44 194.401C114.692 193.792 114.944 193.182 115.196 192.572C115.441 191.98 115.686 191.388 115.93 190.796C116.176 190.201 116.422 189.607 116.668 189.013C117.29 187.51 117.904 186.006 118.505 184.495C118.622 184.202 118.74 183.909 118.861 183.607C119.082 183.052 119.302 182.497 119.52 181.94C120.769 178.825 120.769 178.825 122.168 178.125C123.958 177.976 124.845 178.099 126.27 179.297C127.139 180.284 127.697 180.927 127.814 182.249C127.717 183.649 127.309 184.696 126.76 185.975C126.66 186.217 126.559 186.46 126.456 186.709C126.135 187.481 125.808 188.251 125.482 189.02C125.268 189.531 125.055 190.043 124.842 190.554C124.337 191.764 123.829 192.972 123.319 194.179C122.735 195.564 122.159 196.952 121.582 198.34C122.343 198.206 123.096 198.058 123.853 197.901C124.066 197.864 124.28 197.828 124.5 197.791C125.728 197.527 125.728 197.527 126.606 196.687C126.693 196.495 126.781 196.303 126.871 196.106C126.968 195.895 127.065 195.685 127.166 195.468C127.574 194.515 127.963 193.557 128.329 192.587C128.494 192.158 128.659 191.728 128.824 191.299C128.909 191.076 128.994 190.854 129.082 190.625C129.532 189.449 129.988 188.275 130.443 187.102C130.535 186.865 130.627 186.628 130.722 186.384C131.55 184.255 132.383 182.128 133.243 180.011C133.461 179.474 133.674 178.935 133.888 178.396C135.682 174.014 135.682 174.014 138.472 174.173Z" fill="black"/>
<path d="M167.578 73.8278C169.082 74.5934 169.975 75.4506 170.508 77.0504C170.637 78.6019 170.585 79.6725 169.724 80.9929C168.894 81.9597 167.953 82.4892 166.704 82.7279C165.188 82.8189 164.064 82.3958 162.891 81.445C161.929 80.409 161.637 79.6046 161.572 78.2223C161.634 76.8427 161.946 76.0436 162.891 74.9997C164.334 73.6939 165.708 73.5238 167.578 73.8278Z" fill="black"/>
</svg>
