<svg width="300" height="300" viewBox="0 0 300 300" fill="none" xmlns="http://www.w3.org/2000/svg">
<path d="M170.587 71.758C177.05 77.0013 179.964 84.0977 181.934 91.9923C182.002 92.2654 182.071 92.5384 182.141 92.8197C183.397 98.055 183.838 103.407 184.315 108.758C184.569 111.547 184.865 114.299 185.438 117.043C185.484 117.262 185.529 117.481 185.576 117.707C187.025 124.183 191.266 130.158 194.825 135.645C195.089 136.054 195.354 136.464 195.619 136.874C196.01 137.479 196.401 138.083 196.793 138.688C220.089 174.636 220.089 174.636 217 191.139C216.736 192.123 216.412 192.707 215.625 193.36C214.592 193.847 214.149 193.648 213.062 193.268C208.33 190.614 205.985 184.057 203.577 179.51C202.114 176.754 200.578 174.049 198.981 171.369C198.879 171.197 198.777 171.026 198.672 170.849C197.513 168.901 197.513 168.901 196.29 166.992C196.453 171.236 196.687 175.469 196.981 179.706C197.942 193.776 197.462 209.685 187.669 221.016C185.308 223.399 182.746 225.28 179.59 226.465C179.343 226.573 179.096 226.682 178.841 226.793C178.125 227.051 178.125 227.051 176.954 227.051C177.927 228.053 178.935 228.968 180.015 229.855C180.469 230.274 180.469 230.274 181.055 231.152C181 231.903 181 231.903 180.762 232.617C178.449 234.159 175.423 233.359 172.852 232.91C172.725 233.188 172.598 233.466 172.467 233.753C171.973 234.668 171.973 234.668 171.094 235.254C169.053 235.587 167.318 235.05 165.429 234.31C164.606 234.07 164.261 234.059 163.477 234.375C163.272 234.526 163.066 234.677 162.854 234.833C161.604 235.458 160.454 235.449 159.082 235.254C157.535 234.48 156.989 233.018 156.446 231.445C156.446 231.252 156.446 231.059 156.446 230.86C156.27 230.881 156.095 230.902 155.914 230.924C153.776 231.143 151.654 231.185 149.506 231.189C149.078 231.191 149.078 231.191 148.642 231.193C146.923 231.19 145.26 231.081 143.555 230.86C143.531 231.162 143.507 231.464 143.482 231.775C143.209 233.185 142.722 234.172 141.578 235.071C140.129 235.473 138.974 235.431 137.623 234.833C137.224 234.606 137.224 234.606 136.817 234.375C135.719 233.942 135.072 234.229 133.997 234.65C132.377 235.218 130.912 235.577 129.2 235.254C128.431 234.741 128.431 234.741 128.028 234.082C128.028 233.695 128.028 233.309 128.028 232.91C127.738 232.953 127.448 232.995 127.149 233.038C121.648 233.822 121.648 233.822 119.239 232.617C119.129 231.656 119.168 231.253 119.733 230.448C120.422 229.675 121.132 229.059 121.949 228.424C122.341 228.118 122.341 228.118 122.741 227.805C122.939 227.653 123.136 227.501 123.34 227.344C122.889 227.158 122.889 227.158 122.428 226.967C116.674 224.552 112.168 221.303 109.278 215.625C109.174 215.422 109.07 215.219 108.963 215.009C103.43 203.968 102.547 193.114 103.235 181C103.277 180.23 103.318 179.459 103.359 178.689C103.456 176.874 103.556 175.059 103.657 173.244C103.737 171.808 103.813 170.373 103.888 168.937C103.9 168.705 103.912 168.473 103.924 168.234C103.951 167.722 103.978 167.211 104.004 166.699C102.135 169.738 100.328 172.802 98.6394 175.946C98.4067 176.379 98.4067 176.379 98.1692 176.821C97.9312 177.264 97.9312 177.264 97.6884 177.717C96.6885 179.578 95.6787 181.434 94.6577 183.284C94.3822 183.785 94.1084 184.286 93.8348 184.787C92.44 187.311 90.9327 189.736 89.008 191.895C88.8226 192.106 88.6372 192.318 88.4461 192.536C87.8836 193.074 87.4459 193.38 86.7192 193.652C85.6204 193.613 84.9079 193.521 83.9909 192.902C81.6555 189.528 82.7941 183.44 83.4702 179.661C85.7751 168.055 91.7119 157.34 97.852 147.363C98.1408 146.894 98.1408 146.894 98.4354 146.415C100.223 143.518 102.038 140.64 103.894 137.787C109.606 129.29 109.606 129.29 113.837 120.026C113.9 119.841 113.963 119.656 114.028 119.465C115.21 115.635 115.563 111.575 115.913 107.602C117.044 94.9367 118.784 80.9653 128.907 72.0704C141.432 62.076 157.977 61.8237 170.587 71.758ZM126.668 82.8153C124.111 85.9576 122.815 89.8741 121.875 93.7501C121.827 93.9399 121.779 94.1296 121.729 94.3251C120.941 97.5364 120.906 100.788 120.887 104.077C120.884 104.289 120.882 104.501 120.88 104.719C120.847 108.639 121.303 112.239 123.066 115.796C125.974 122.052 124.96 128.875 122.719 135.233C122.184 136.696 121.616 138.147 121.051 139.6C112.94 160.474 105.14 192.568 114.344 214.332C115.119 215.882 116.09 217.22 117.188 218.555C117.418 218.845 117.649 219.136 117.886 219.435C123.086 225.387 131.354 227.353 138.868 228.223C139.08 228.248 139.293 228.274 139.512 228.3C141.503 228.522 143.477 228.568 145.479 228.575C145.828 228.577 146.177 228.579 146.537 228.58C147.275 228.583 148.013 228.585 148.751 228.586C149.854 228.589 150.957 228.598 152.06 228.607C162.586 228.654 174.42 227.52 182.355 219.782C187.902 214.074 188.703 206.012 188.732 198.438C188.734 198.069 188.736 197.701 188.738 197.32C188.743 196.134 188.745 194.948 188.746 193.762C188.746 193.56 188.746 193.358 188.746 193.149C188.748 186.641 188.62 180.194 187.793 173.731C187.769 173.535 187.744 173.339 187.718 173.137C186.081 160.377 182.768 147.747 177.837 135.858C175.481 130.12 174.115 122.765 176.306 116.783C176.634 116.074 176.999 115.433 177.411 114.771C180.567 109.286 179.539 99.4079 178.125 93.4572C178.052 93.1401 178.052 93.1401 177.978 92.8167C176.964 88.5689 175.198 83.8059 171.479 81.2257C168.664 79.5979 165.505 79.2658 162.381 80.055C159.293 81.0752 157.537 83.0412 156.006 85.84C154.108 89.6411 152.051 95.3495 152.051 99.6095C152.362 99.6839 152.672 99.7583 152.992 99.835C153.399 99.9366 153.805 100.038 154.212 100.141C154.417 100.189 154.621 100.238 154.832 100.288C156.379 100.682 156.379 100.682 157.032 101.66C155.625 103.522 153.905 104.838 152.065 106.244C151.196 106.885 151.196 106.885 150.586 107.52C149.37 107.459 148.498 106.599 147.583 105.872C147.416 105.74 147.248 105.608 147.075 105.472C146.583 105.083 146.094 104.691 145.606 104.297C145.355 104.096 145.104 103.895 144.846 103.688C143.169 102.291 143.169 102.291 142.969 101.074C144.599 100.295 146.172 99.9135 147.95 99.6095C146.133 89.806 146.133 89.806 140.809 81.6469C136.363 78.7892 130.492 78.9096 126.668 82.8153Z" fill="black"/>
<path d="M133.155 95.0869C133.888 95.2151 133.888 95.2151 134.419 95.6545C134.905 96.6776 134.937 97.6291 134.767 98.7307C134.327 99.6096 134.327 99.6096 133.888 100.196C133.045 100.104 133.045 100.104 132.13 99.9026C131.501 98.9597 131.457 98.6522 131.452 97.5588C131.447 97.3051 131.443 97.0513 131.438 96.7898C131.607 95.6833 132.069 95.277 133.155 95.0869Z" fill="black"/>
<path d="M166.846 95.0684C167.579 95.2148 167.579 95.2148 168.11 95.6543C168.702 96.9009 168.613 98.1259 168.274 99.4446C167.66 100.142 167.009 100.118 166.114 100.195C165.304 99.4193 165.157 98.7882 165.125 97.7051C165.157 96.8688 165.227 96.4047 165.583 95.636C166.114 95.2148 166.114 95.2148 166.846 95.0684Z" fill="black"/>
</svg>
