<svg width="300" height="300" viewBox="0 0 300 300" fill="none" xmlns="http://www.w3.org/2000/svg">
<path d="M74.4141 60.0586C80.1937 62.1775 85.9305 64.4226 91.5121 67.0228C92.0527 67.2746 92.5941 67.5248 93.136 67.7738C97.8034 69.9228 102.251 72.3301 106.641 75C106.867 75.1368 107.093 75.2735 107.326 75.4144C113.559 79.1951 120.069 83.4179 125.229 88.6105C126.007 89.3571 126.409 89.6488 127.502 89.6461C127.869 89.5502 128.235 89.4543 128.613 89.3555C128.844 89.2959 129.075 89.2363 129.313 89.1749C130.126 88.9617 130.935 88.7373 131.744 88.5132C134.874 87.6715 137.992 87.0849 141.211 86.7188C141.44 86.6911 141.669 86.6635 141.905 86.6351C151.625 85.5942 162.573 86.0387 171.794 89.4276C172.714 89.6933 173.127 89.6943 174.023 89.3555C174.663 88.8663 175.245 88.3776 175.836 87.8357C179.962 84.1886 184.37 80.9584 188.965 77.9297C189.298 77.7089 189.298 77.7089 189.638 77.4837C194.749 74.1181 200.149 71.2199 205.653 68.5524C206.295 68.2396 206.935 67.921 207.574 67.6025C210.753 66.0374 213.99 64.6481 217.273 63.3179C217.473 63.2368 217.673 63.1557 217.879 63.0721C219.777 62.3041 221.681 61.5487 223.597 60.8253C223.842 60.7328 224.087 60.6402 224.339 60.5448C225 60.3516 225 60.3516 226.172 60.3516C226.186 64.6083 226.196 68.8649 226.202 73.1217C226.205 75.0997 226.209 77.0777 226.216 79.0558C226.263 93.2 225.962 107.27 224.249 121.322C224.209 121.654 224.168 121.986 224.127 122.328C223.925 123.978 223.718 125.628 223.504 127.277C223.465 127.583 223.427 127.89 223.387 128.206C223.314 128.782 223.239 129.357 223.162 129.932C222.865 132.31 222.923 133.961 224.432 135.919C224.701 136.278 224.968 136.638 225.235 136.998C225.383 137.199 225.532 137.4 225.685 137.607C232.688 147.306 238.759 157.75 244.629 168.164C244.849 168.555 244.849 168.555 245.074 168.953C246.033 170.656 246.033 170.656 246.49 171.474C246.902 172.211 247.319 172.936 247.773 173.649C248.145 174.316 248.145 174.316 248.145 175.195C244.475 176.263 240.794 177.285 237.104 178.283C219.97 182.731 219.97 182.731 203.32 188.672C203.079 188.773 202.837 188.875 202.588 188.979C195.851 191.837 189.853 195.306 184.57 200.391C184.382 200.561 184.193 200.731 183.999 200.906C177.882 206.58 174.831 215.532 172.33 223.219C171.19 226.659 169.705 229.61 167.285 232.324C167.105 232.529 166.924 232.734 166.738 232.944C162.513 237.451 156.555 239.443 150.486 239.675C143.981 239.731 137.887 237.547 133.209 233.002C129.745 229.447 127.957 225.295 126.641 220.574C124.744 213.771 121.524 206.302 116.349 201.318C115.723 200.684 115.723 200.684 115.723 200.098C115.549 200.021 115.375 199.944 115.196 199.864C114.521 199.495 114.117 199.118 113.595 198.556C112.551 197.483 111.439 196.611 110.211 195.758C109.995 195.608 109.779 195.457 109.556 195.302C98.1948 187.531 84.0212 184.061 70.8984 180.469C70.5666 180.378 70.2348 180.287 69.893 180.193C66.6452 179.303 63.397 178.415 60.1466 177.535C59.8122 177.444 59.4778 177.354 59.1333 177.26C58.5088 177.091 57.8843 176.922 57.2596 176.754C55.449 176.264 53.6493 175.744 51.8555 175.195C52.0669 174.295 52.3496 173.572 52.7916 172.757C52.994 172.383 52.994 172.383 53.2006 172.001C53.423 171.597 53.423 171.597 53.6499 171.185C53.8831 170.76 53.8831 170.76 54.121 170.326C55.8381 167.223 57.6652 164.188 59.509 161.158C60.0405 160.284 60.5685 159.407 61.0954 158.529C63.3432 154.796 65.6877 151.135 68.0839 147.496C68.6891 146.572 69.2813 145.641 69.873 144.708C71.3912 142.338 72.9851 140.019 74.5743 137.696C74.7459 137.441 74.9176 137.186 75.0944 136.923C75.5859 136.23 75.5859 136.23 76.0546 135.715C76.721 134.967 77.0328 134.455 77.099 133.441C77.0432 132.619 76.9523 131.809 76.8397 130.993C76.7139 130.038 76.6212 129.08 76.5241 128.122C76.4372 127.267 76.3468 126.413 76.2558 125.559C74.4057 108.113 73.7798 90.6924 73.7562 73.1553C73.7549 72.328 73.7526 71.5008 73.7502 70.6736C73.7468 69.3684 73.7467 68.0633 73.7494 66.7581C73.75 66.2737 73.7497 65.7892 73.7484 65.3048C73.7469 64.6389 73.7491 63.9732 73.7523 63.3074C73.7528 62.9328 73.7532 62.5582 73.7537 62.1723C73.8234 61.2901 73.9473 60.7972 74.4141 60.0586ZM78.5156 66.7969C78.4528 85.4779 78.6514 104.15 80.5664 122.754C80.5882 122.973 80.61 123.192 80.6324 123.418C80.7018 124.107 80.7749 124.796 80.8491 125.484C80.8705 125.7 80.8919 125.916 80.9139 126.138C81.0253 127.36 81.0253 127.36 81.7383 128.32C81.8457 128.182 81.953 128.044 82.0637 127.901C85.8015 123.089 85.8015 123.089 87.1777 121.343C87.4445 121.003 87.7092 120.661 87.9719 120.318C88.5257 119.598 89.0739 118.935 89.7377 118.312C90.5217 117.545 91.0877 116.887 91.1381 115.746C91.0959 115.055 91.0221 114.374 90.9359 113.687C90.9066 113.429 90.8774 113.171 90.8472 112.906C90.5297 110.236 90.0842 107.588 89.6152 104.942C89.3516 103.453 89.0956 101.963 88.8382 100.473C88.7847 100.165 88.7312 99.8564 88.6761 99.5385C88.1192 96.3229 87.5828 93.104 87.0547 89.8836C86.9543 89.272 86.8534 88.6604 86.752 88.049C86.1616 84.4883 85.6346 80.9333 85.2539 77.3438C88.9155 79.1966 92.4111 81.1816 95.8008 83.4961C96.0673 83.6772 96.0673 83.6772 96.3392 83.862C99.2156 85.8298 101.915 88.0029 104.59 90.2344C104.764 90.3786 104.937 90.5228 105.116 90.6714C107.253 92.4513 109.316 94.3038 111.346 96.2036C111.556 96.3988 111.765 96.594 111.981 96.7951C113.121 97.8717 114.161 98.967 115.137 100.195C114.895 100.384 114.653 100.572 114.404 100.766C113.278 101.646 112.156 102.531 111.035 103.418C110.746 103.646 110.746 103.646 110.452 103.878C107.484 106.227 104.668 108.691 101.953 111.328C101.625 111.646 101.625 111.646 101.291 111.971C98.9454 114.258 96.6273 116.528 94.6083 119.112C94.0163 119.858 93.3885 120.553 92.7429 121.252C91.3449 122.789 90.0929 124.422 88.8436 126.079C88.2586 126.85 87.6612 127.611 87.0667 128.375C85.399 130.534 83.8141 132.753 82.2247 134.969C81.7576 135.618 81.2865 136.263 80.8136 136.907C78.373 140.238 76.0694 143.653 73.7994 147.103C73.2921 147.873 72.7827 148.643 72.2729 149.412C68.3294 155.391 64.6819 161.566 61.0664 167.747C60.7656 168.253 60.4589 168.756 60.1483 169.257C59.9869 169.518 59.8255 169.779 59.6592 170.048C59.5114 170.283 59.3636 170.519 59.2114 170.762C58.8192 171.399 58.8192 171.399 58.8867 172.266C59.0753 172.316 59.2639 172.366 59.4582 172.418C105.352 184.662 105.352 184.662 117.188 195.41C117.436 195.634 117.685 195.859 117.942 196.09C121.363 199.341 124.12 203.249 126.27 207.437C126.458 207.804 126.649 208.169 126.844 208.532C128.718 212.026 129.91 215.782 131.136 219.54C133.045 225.34 135.602 230.075 141.211 233.002C143.472 234.068 145.741 234.802 148.242 234.961C148.451 234.976 148.659 234.992 148.874 235.008C154.102 235.208 159.406 233.448 163.282 229.948C166.564 226.611 167.882 222.197 169.38 217.88C171.801 210.906 174.821 204.602 179.59 198.926C179.792 198.679 179.993 198.433 180.201 198.178C181.675 196.437 183.363 195.053 185.156 193.652C185.432 193.423 185.708 193.195 185.993 192.959C196.631 184.344 210.939 180.729 223.865 177.1C224.545 176.907 225.225 176.715 225.905 176.523C230.031 175.361 234.164 174.237 238.329 173.22C238.82 173.098 238.82 173.098 239.322 172.974C239.601 172.907 239.879 172.84 240.166 172.771C240.871 172.597 240.871 172.597 241.406 171.973C238.431 166.505 235.307 161.152 232.031 155.859C231.8 155.484 231.8 155.484 231.564 155.101C227.658 148.77 223.515 142.541 219.141 136.523C218.902 136.195 218.902 136.195 218.659 135.86C213.817 129.214 208.775 122.757 203.32 116.602C203.144 116.398 202.967 116.194 202.785 115.984C199.857 112.653 196.738 109.388 193.242 106.651C192.393 105.987 191.578 105.289 190.759 104.59C188.975 103.096 187.091 101.78 185.156 100.488C185.296 99.231 186.013 98.6835 186.914 97.8516C187.124 97.6542 187.124 97.6542 187.339 97.4529C187.793 97.0275 188.25 96.606 188.708 96.1853C188.875 96.032 189.042 95.8787 189.214 95.7207C189.555 95.4077 189.897 95.0948 190.238 94.782C190.675 94.3798 191.109 93.9747 191.543 93.5692C193.456 91.795 195.461 90.1811 197.525 88.5899C198.033 88.1944 198.535 87.7923 199.035 87.3871C203.639 83.6688 208.899 79.7695 214.453 77.6367C213.664 84.2023 212.676 90.7287 211.645 97.2601C211.165 100.308 210.696 103.358 210.231 106.408C210.141 106.997 210.051 107.585 209.961 108.174C209.835 108.995 209.71 109.816 209.585 110.637C209.548 110.876 209.511 111.116 209.473 111.362C209.299 112.514 209.134 113.668 208.987 114.823C208.959 115.035 208.932 115.247 208.903 115.465C208.877 116.332 209.202 116.713 209.784 117.334C210 117.577 210.215 117.82 210.437 118.07C210.562 118.206 210.686 118.341 210.814 118.481C211.656 119.42 212.445 120.405 213.245 121.381C213.42 121.593 213.596 121.806 213.777 122.025C215.318 123.893 216.803 125.801 218.262 127.734C218.455 127.638 218.648 127.541 218.848 127.441C218.996 126.596 219.106 125.771 219.194 124.918C219.224 124.654 219.253 124.39 219.283 124.119C219.379 123.243 219.471 122.367 219.562 121.49C219.61 121.041 219.61 121.041 219.658 120.582C220.135 116.093 220.523 111.602 220.825 107.098C220.842 106.843 220.86 106.587 220.877 106.324C221.29 100.1 221.53 93.8907 221.513 87.6537C221.512 87.0459 221.512 86.4381 221.512 85.8303C221.511 84.2559 221.508 82.6816 221.504 81.1072C221.501 79.4905 221.5 77.8738 221.499 76.2571C221.496 73.1037 221.491 69.9503 221.484 66.7969C219.728 67.2934 218.062 67.8427 216.401 68.5993C216.21 68.686 216.018 68.7727 215.821 68.862C215.205 69.1419 214.591 69.4248 213.977 69.7083C213.764 69.8058 213.552 69.9034 213.333 70.0039C206.973 72.9229 200.812 76.0578 194.824 79.6875C194.569 79.8417 194.314 79.9959 194.051 80.1547C190.941 82.046 187.981 84.0747 185.104 86.3058C184.594 86.7001 184.081 87.0896 183.567 87.4775C181.937 88.7099 180.345 89.9782 178.784 91.2964C178.545 91.4965 178.545 91.4965 178.301 91.7006C177.574 92.3146 176.889 92.9384 176.231 93.6264C176.016 93.8485 175.801 94.0705 175.58 94.2993C175.403 94.498 175.227 94.6966 175.045 94.9013C173.78 95.4456 172.63 94.7842 171.387 94.3359C170.929 94.19 170.471 94.0469 170.012 93.9068C169.782 93.8362 169.551 93.7657 169.314 93.693C164.201 92.1656 158.857 91.2342 153.516 91.1133C153.264 91.1073 153.013 91.1013 152.753 91.0951C145.057 90.9365 137.742 91.7039 130.363 93.8965C130.124 93.9661 129.884 94.0357 129.638 94.1075C129.13 94.2662 128.627 94.4432 128.13 94.6342C127.402 94.9007 126.746 95.1181 125.977 95.2148C125.066 94.709 125.066 94.709 124.292 93.8599C123.994 93.5514 123.694 93.2444 123.392 92.9386C123.24 92.7798 123.087 92.6209 122.93 92.4572C122.18 91.7137 121.358 91.0768 120.52 90.4358C120.351 90.3057 120.183 90.1755 120.009 90.0415C119.652 89.7656 119.294 89.4903 118.936 89.2153C118.314 88.7342 117.697 88.2466 117.081 87.7579C114.366 85.6098 111.614 83.5944 108.691 81.7383C108.472 81.5969 108.252 81.4555 108.025 81.3098C100.077 76.2084 91.6481 71.9495 82.9285 68.335C82.6458 68.2176 82.6458 68.2176 82.3575 68.0979C80.4939 67.1985 80.4939 67.1985 78.5156 66.7969Z" fill="black"/>
<path d="M207.398 154.462C208.008 154.98 208.008 154.98 208.301 155.566C208.086 155.593 207.872 155.619 207.65 155.646C201.096 156.467 194.922 157.612 188.965 160.547C188.53 160.759 188.53 160.759 188.085 160.975C184.792 162.67 181.978 165.048 179.297 167.578C179.085 167.772 178.872 167.965 178.653 168.165C174.866 171.748 172.194 176.271 169.629 180.762C169.519 180.951 169.409 181.141 169.295 181.337C166.592 186.013 164.606 191.135 162.962 196.269C162.851 196.609 162.851 196.609 162.736 196.955C162.674 197.153 162.611 197.35 162.547 197.554C162.305 198.047 162.305 198.047 161.426 198.633C160.809 185.648 164.899 170.409 173.145 160.254C173.364 159.983 173.583 159.711 173.809 159.432C181.896 149.979 197.082 146.743 207.398 154.462Z" fill="black"/>
<path d="M117.773 152.929C118.037 153.052 118.3 153.174 118.571 153.3C120.948 154.49 122.846 156.142 124.805 157.91C124.997 158.078 125.19 158.246 125.388 158.419C135.236 167.537 138.027 183.247 139.16 195.996C139.189 196.783 139.186 197.552 139.16 198.34C138.967 198.436 138.773 198.533 138.574 198.632C138.477 198.378 138.38 198.123 138.28 197.861C134.385 187.683 130.147 178.005 123.047 169.629C122.869 169.415 122.692 169.201 122.509 168.981C121.331 167.589 120.068 166.382 118.652 165.234C118.4 165.029 118.147 164.824 117.887 164.613C110.245 158.646 101.454 156.586 91.9922 155.566C98.4492 148.484 109.782 149.075 117.773 152.929Z" fill="black"/>
<path d="M158.496 211.816C160.526 213.654 161.852 216.057 162.081 218.803C162.153 221.901 161.652 224.168 159.613 226.556C156.792 229.465 153.916 230.669 149.891 230.878C146.445 230.818 143.362 229.591 140.81 227.283C138.712 224.979 137.836 222.38 137.916 219.309C138.189 216.449 139.47 214.016 141.54 212.036C146.13 208.375 153.794 208.394 158.496 211.816Z" fill="black"/>
</svg>
