<svg width="300" height="300" viewBox="0 0 300 300" fill="none" xmlns="http://www.w3.org/2000/svg">
<path d="M152.93 55.9574C154.011 56.6963 154.269 57.9541 154.651 59.1434C154.726 59.374 154.802 59.6047 154.879 59.8423C156.144 63.8259 157.102 67.9212 157.617 72.0706C160.906 69.1418 162.207 63.1024 162.506 58.8687C162.513 58.5995 162.521 58.3302 162.528 58.0528C162.598 57.4222 162.598 57.4222 163.184 56.8363C164.878 56.6668 166.056 57.0329 167.578 57.7152C168.499 59.5569 167.977 62.3493 167.432 64.252C163.52 75.5249 155.364 86.4906 144.465 91.7954C142.272 92.81 139.989 93.5868 137.695 94.3363C137.889 94.9163 138.082 95.4964 138.281 96.0941C138.516 95.9774 138.75 95.8607 138.991 95.7405C139.313 95.5852 139.634 95.43 139.966 95.2701C140.279 95.1172 140.591 94.9642 140.914 94.8066C143.664 93.6245 146.444 93.3244 149.41 93.3074C149.756 93.3022 150.102 93.2969 150.459 93.2915C151.551 93.2758 152.643 93.2658 153.736 93.2559C154.482 93.2462 155.228 93.2361 155.974 93.2256C157.791 93.2009 159.609 93.1808 161.426 93.1644C162.681 96.1615 161.912 99.0493 160.786 101.976C159.163 105.636 155.98 107.582 152.344 108.985C150.594 109.324 149.05 109.247 147.29 109.021C146.944 108.981 146.944 108.981 146.59 108.94C145.555 108.816 144.563 108.667 143.555 108.399C143.496 113.91 143.486 119.325 144.141 124.805C144.471 128.554 143.447 132.591 141.211 135.645C140.112 136.891 138.91 138.028 137.695 139.16C137.502 139.354 137.309 139.547 137.11 139.746C140.851 143.752 147.071 145.634 152.417 145.936C153.136 145.954 153.853 145.959 154.572 145.957C154.848 145.957 155.125 145.956 155.409 145.956C158.733 145.926 162.042 145.671 165.357 145.44C174.276 144.822 183.145 144.614 192.085 144.736C192.977 144.747 193.869 144.756 194.761 144.764C195.366 144.771 195.972 144.784 196.577 144.797C200.535 144.837 203.758 144.278 206.774 141.63C208.226 140.152 209.1 138.339 210.002 136.495C211.085 134.32 211.085 134.32 212.11 133.887C213.014 134.08 213.45 134.332 214.061 135.027C216.738 139.531 217.534 145.272 216.617 150.424C216.342 151.295 216.006 152.099 215.625 152.93C215.456 153.335 215.287 153.74 215.118 154.145C213.779 157.264 212.213 159.695 209.436 161.737C208.849 162.222 208.616 162.415 208.523 163.177C208.6 163.877 208.735 164.547 208.887 165.235C210.126 173.288 207.813 181.703 206.104 189.533C204.347 197.592 203.154 205.621 202.382 213.831C202.363 214.036 202.343 214.24 202.323 214.451C202.261 215.135 202.204 215.82 202.149 216.504C202.122 216.82 202.096 217.136 202.069 217.462C201.865 220.15 201.826 222.812 201.852 225.505C201.858 226.241 201.862 226.976 201.866 227.711C201.875 229.798 201.888 231.885 201.906 233.972C201.917 235.258 201.924 236.543 201.928 237.828C201.93 238.316 201.934 238.803 201.94 239.29C201.947 239.968 201.95 240.645 201.951 241.323C201.954 241.708 201.956 242.093 201.959 242.49C201.85 243.51 201.713 243.926 200.977 244.629C200.179 244.776 200.179 244.776 199.222 244.775C198.703 244.775 198.703 244.775 198.174 244.775C197.812 244.769 197.45 244.763 197.077 244.757C196.539 244.761 196.539 244.761 195.99 244.764C192.635 244.74 192.635 244.74 191.309 243.75C191.043 242.847 190.914 242.125 190.829 241.201C190.798 240.933 190.767 240.665 190.734 240.389C190.665 239.788 190.598 239.188 190.535 238.587C190.424 237.541 190.3 236.498 190.173 235.454C190.105 234.892 190.105 234.892 190.035 234.32C190.012 234.128 189.988 233.937 189.964 233.74C189.843 232.743 189.724 231.747 189.605 230.75C189.581 230.548 189.557 230.346 189.532 230.139C189.41 229.117 189.289 228.095 189.172 227.073C188.213 218.76 186.667 210.662 183.16 203.012C182.52 201.616 182.52 201.616 182.52 200.977C182.326 200.977 182.133 200.977 181.934 200.977C181.717 206.181 181.605 211.366 181.646 216.575C181.654 217.668 181.659 218.76 181.663 219.853C181.675 222.951 181.69 226.05 181.713 229.148C181.728 231.061 181.736 232.974 181.741 234.888C181.743 235.612 181.749 236.336 181.756 237.061C181.766 238.065 181.768 239.069 181.769 240.073C181.774 240.371 181.779 240.668 181.783 240.975C181.775 242.975 181.775 242.975 181.102 243.925C179.932 244.685 178.796 244.736 177.429 244.849C177.046 244.884 176.663 244.918 176.269 244.954C175.095 244.919 174.628 244.785 173.731 244.043C172.876 242.929 172.655 241.882 172.431 240.509C172.377 240.187 172.377 240.187 172.322 239.859C172.104 238.528 171.916 237.195 171.739 235.858C170.172 224.114 168.341 210.689 163.477 199.805C163.142 199.836 163.142 199.836 162.801 199.868C160.256 200.088 157.735 200.133 155.182 200.116C154.79 200.115 154.398 200.113 154.006 200.112C153.061 200.109 152.117 200.104 151.172 200.098C146.925 213.279 145.023 227.064 144.823 240.904C144.817 241.191 144.812 241.477 144.807 241.773C144.805 242.016 144.803 242.259 144.802 242.51C144.717 243.248 144.545 243.714 144.141 244.336C141.575 245.465 138.29 245.547 135.645 244.629C134.44 243.902 134.017 243.312 133.594 241.993C133.447 241.119 133.372 240.243 133.3 239.36C133.276 239.084 133.252 238.808 133.228 238.523C132.812 233.423 132.617 228.303 132.371 223.192C132.123 218.052 131.842 212.921 131.39 207.795C131.372 207.59 131.354 207.385 131.336 207.173C131.065 204.103 130.685 201.07 130.078 198.047C129.28 200.22 128.836 202.375 128.46 204.656C128.429 204.846 128.397 205.036 128.365 205.231C127.656 209.551 127.302 213.889 127.007 218.254C126.936 219.302 126.859 220.351 126.783 221.399C126.505 225.242 126.249 229.087 126.003 232.932C125.983 233.242 125.963 233.552 125.942 233.872C125.851 235.292 125.763 236.712 125.68 238.132C125.65 238.627 125.619 239.122 125.589 239.617C125.577 239.835 125.566 240.053 125.554 240.277C125.459 241.761 125.366 243.226 124.237 244.281C122.486 245.29 120.308 245.128 118.377 244.756C116.422 244.213 116.422 244.213 115.723 243.164C115.1 240.714 115.051 238.229 115.046 235.715C115.04 234.959 115.033 234.203 115.026 233.447C115.023 233.053 115.021 232.659 115.018 232.266C114.971 225.703 114.849 219.209 113.965 212.696C113.909 212.258 113.854 211.82 113.799 211.382C112.916 204.351 111.695 197.407 110.282 190.464C109.661 187.38 109.106 184.346 108.926 181.2C108.782 179.177 108.063 177.901 106.961 176.196C103.742 171.177 102.633 163.975 102.922 158.181C102.971 157.143 102.995 156.104 103.024 155.065C103.061 153.756 103.105 152.447 103.176 151.139C103.627 146.508 103.627 146.508 102.356 142.265C101.206 141.174 99.9189 140.547 98.4476 139.993C95.3925 138.728 93.1501 135.682 91.9123 132.728C90.1069 127.652 91.5534 121.571 93.7502 116.877C94.3048 115.722 94.8858 114.606 95.5583 113.517C96.1393 112.414 96.3193 111.554 96.4601 110.321C96.5039 109.959 96.5477 109.597 96.5929 109.224C96.6216 108.952 96.6503 108.679 96.6799 108.399C96.3596 108.375 96.0394 108.35 95.7094 108.326C92.0707 107.85 89.2693 106.04 86.9432 103.252C84.7497 100.229 83.3769 97.379 83.4047 93.6222C83.4053 93.4054 83.4059 93.1886 83.4065 92.9653C83.4353 91.3952 83.487 89.3651 84.6681 88.1839C86.0726 88.0671 86.9693 88.3538 88.2387 88.9347C90.3535 89.8549 92.5192 90.3915 94.7573 90.9305C97.5752 91.6154 100.039 92.4599 102.556 93.8957C103.431 94.4252 103.431 94.4252 104.59 94.3363C105.31 93.5746 105.31 93.5746 105.469 92.5785C105.186 92.4365 104.902 92.2945 104.611 92.1482C102.246 90.9406 100.125 89.6838 98.1447 87.891C97.9117 87.6851 97.6787 87.4793 97.4386 87.2673C95.3223 85.2851 93.7226 82.9913 92.1118 80.5935C91.737 80.0366 91.3558 79.4849 90.9727 78.9337C86.8629 72.9128 83.1271 63.9343 84.0822 56.5433C85.177 55.8135 85.7652 55.8969 87.0668 55.9207C87.4396 55.926 87.8123 55.9313 88.1964 55.9368C88.6252 55.947 88.6252 55.947 89.0627 55.9574C89.6563 56.9551 89.7598 57.8079 89.8466 58.958C89.892 59.4965 89.892 59.4965 89.9383 60.0458C89.9696 60.4248 90.0009 60.8037 90.0331 61.1942C90.3149 64.2797 90.7254 66.8876 91.9924 69.7269C92.0999 70.1149 92.2019 70.5049 92.2853 70.8988C93.1224 70.4802 93.1843 69.9687 93.5304 69.1066C93.659 68.7921 93.7876 68.4775 93.9201 68.1534C94.0574 67.8146 94.1947 67.4758 94.3361 67.1268C95.3696 64.6288 96.4421 62.1754 97.7053 59.7843C97.825 59.556 97.9447 59.3278 98.068 59.0926C99.0752 57.2245 99.0752 57.2245 99.9025 56.5433C101.331 56.5743 102.101 57.041 103.125 58.0081C103.741 58.9315 103.808 59.2542 103.617 60.3184C103.182 61.6744 102.356 62.851 101.605 64.0506C97.6383 70.2826 97.6383 70.2826 96.6799 77.3441C98.2265 80.9329 101.137 83.426 104.297 85.5472C104.343 85.3542 104.388 85.1611 104.435 84.9622C106.876 74.7038 106.876 74.7038 109.278 72.3636C110.297 71.7646 111.021 71.584 112.207 71.7777C113.068 72.5467 113.068 72.5467 113.672 73.5355C113.595 75.0682 112.959 76.2596 112.28 77.6004C111.11 79.9894 110.278 82.4009 109.57 84.9613C109.511 85.1705 109.451 85.3797 109.39 85.5953C109.258 86.2289 109.228 86.8228 109.223 87.4698C109.218 87.6938 109.214 87.9177 109.21 88.1484C109.239 88.8582 109.239 88.8582 109.863 89.6488C110.017 89.5744 110.171 89.5 110.329 89.4233C116.661 86.6102 124.363 86.8171 130.734 89.2391C131.793 89.6503 132.842 90.0828 133.887 90.5277C133.819 86.8531 132.765 83.7518 131.305 80.4203C130.741 79.1026 130.452 78.1815 130.664 76.7581C131.25 75.8792 131.25 75.8792 132.019 75.6961C133.767 76.0199 134.828 77.2108 135.851 78.6155C137.717 81.5985 138.607 84.8067 139.453 88.1839C141.321 87.6081 142.517 86.9173 143.518 85.181C144.68 81.3089 142.874 77.5318 141.364 74.0013C140.695 72.4232 140.572 71.4163 140.625 69.7269C140.918 69.141 140.918 69.141 141.797 68.848C143.883 68.6798 143.883 68.6798 144.902 69.3447C147.931 72.2503 148.35 78.6423 148.828 82.6175C149.796 82.2035 150.35 81.7173 151.026 80.9146C151.202 80.7062 151.378 80.4977 151.559 80.2829C151.721 80.0865 151.884 79.8902 152.051 79.6878C152.281 79.4159 152.51 79.144 152.747 78.8639C153.856 77.3703 153.602 75.6308 153.362 73.8834C153.283 73.4737 153.2 73.0648 153.113 72.6566C153.065 72.428 153.018 72.1993 152.968 71.9638C152.314 69.0371 151.36 66.1883 150.423 63.3422C149.169 59.5055 149.169 59.5055 149.121 57.4222C150.19 55.6531 150.963 55.5434 152.93 55.9574ZM106.135 98.4035C103.203 101.726 101.743 105.526 100.43 109.693C99.3807 113.015 98.3321 116.314 96.8001 119.451C95.1729 122.792 94.5765 127.11 95.801 130.664C97.4508 134.765 99.947 137.399 104.004 139.16C109.825 141.377 115.423 142.061 121.305 139.677C123.397 138.674 124.865 137.48 126.178 135.553C126.292 135.394 126.407 135.235 126.524 135.071C127.923 133.046 128.256 131.012 128.028 128.614C127.828 127.625 127.597 126.653 127.341 125.678C127.162 124.865 127.112 124.169 127.149 123.34C129.471 123.583 129.471 123.583 130.211 124.391C131.722 127.064 131.732 130.772 130.954 133.715C130.526 135.094 130.042 136.403 129.278 137.634C129.094 137.954 129.094 137.954 128.906 138.282C129.003 138.475 129.1 138.668 129.199 138.868C133.114 137.768 136.406 136.049 138.483 132.443C140.389 128.767 140.941 125.477 139.765 121.436C139.607 120.951 139.607 120.951 139.445 120.456C138.661 117.912 138.813 115.435 139.014 112.812C139.064 112.122 139.113 111.432 139.16 110.743C139.18 110.471 139.2 110.199 139.221 109.919C139.417 105.037 137.071 99.7619 133.897 96.1055C130.489 92.6909 125.132 91.3851 120.447 91.315C114.362 91.3558 110.173 94.1343 106.135 98.4035ZM87.5978 93.4574C87.8161 96.263 88.3118 98.8207 90.5275 100.782C92.9733 102.622 95.3451 103.787 98.4377 103.711C98.897 102.91 99.3457 102.103 99.7927 101.294C99.9887 100.953 99.9887 100.953 100.189 100.604C100.37 100.273 100.37 100.273 100.555 99.9347C100.668 99.7322 100.782 99.5297 100.899 99.321C101.138 98.723 101.138 98.723 100.868 98.105C100.262 97.2336 99.3913 96.8642 98.456 96.4237C98.1396 96.2733 98.1396 96.2733 97.8169 96.1198C94.5868 94.6924 91.0482 94.1194 87.5978 93.4574ZM151.935 97.3107C151.49 97.3174 151.045 97.3217 150.6 97.3232C146.985 97.3386 144.34 97.9802 141.211 99.9027C141.346 100.55 141.487 101.194 141.637 101.838C141.766 102.404 141.876 102.975 141.98 103.546C142.334 104.414 142.334 104.414 143.42 104.631C144.715 104.917 145.967 104.984 147.29 104.975C147.52 104.973 147.749 104.972 147.985 104.971C150.873 104.915 153.602 104.487 155.727 102.384C157.094 100.895 158.203 99.3266 158.203 97.266C156.114 97.2641 154.025 97.2728 151.935 97.3107ZM129.555 142.215C129.339 142.258 129.123 142.302 128.901 142.347C128.444 142.439 127.988 142.531 127.532 142.625C126.847 142.766 126.162 142.904 125.476 143.042C123.161 143.51 120.855 144.002 118.558 144.553C117.421 144.805 116.298 144.95 115.137 145.02C114.945 145.032 114.752 145.044 114.554 145.056C112.294 145.125 110.046 144.741 107.813 144.434C107.719 144.861 107.628 145.288 107.538 145.716C107.487 145.954 107.436 146.192 107.384 146.437C106.908 149.247 106.863 152.063 106.861 154.908C106.86 155.121 106.86 155.334 106.86 155.553C106.877 167.029 109.882 176.369 117.774 184.864C117.942 185.048 118.11 185.231 118.283 185.421C120.273 187.515 122.682 189.089 125.153 190.558C125.477 190.751 125.802 190.944 126.136 191.143C127.311 191.675 128.214 191.796 129.492 191.895C129.524 190.018 129.489 188.164 129.346 186.292C128.927 180.327 128.508 172.183 131.25 166.7C133.024 166.642 133.024 166.642 133.594 166.7C134.18 167.285 134.18 167.285 134.253 168.128C134.227 169.099 134.073 170.029 133.905 170.984C132.924 176.63 133.194 182.433 133.631 188.123C133.668 188.637 133.706 189.152 133.744 189.666C134.14 194.95 134.635 200.224 135.117 205.5C135.903 214.101 136.535 222.702 136.978 231.328C136.991 231.576 137.004 231.824 137.017 232.079C137.078 233.237 137.136 234.395 137.188 235.553C137.208 235.957 137.228 236.361 137.248 236.765C137.264 237.112 137.28 237.459 137.296 237.816C137.405 238.79 137.644 239.612 137.988 240.528C138.859 240.528 139.729 240.528 140.625 240.528C140.644 240.317 140.663 240.106 140.683 239.889C141.25 233.655 141.951 227.44 142.714 221.227C142.884 219.844 143.049 218.46 143.207 217.075C144.625 204.951 149.093 193.149 154.395 182.227C154.53 181.947 154.665 181.667 154.804 181.379C154.997 180.984 154.997 180.984 155.195 180.58C155.309 180.347 155.423 180.113 155.54 179.872C155.86 179.297 155.86 179.297 156.445 178.711C157.411 178.808 157.8 178.894 158.496 179.59C158.829 184.411 155.813 189.477 153.659 193.638C153.114 194.619 153.114 194.619 152.93 195.703C161.198 195.826 168.7 195.132 176.66 192.774C176.274 191.578 175.836 190.42 175.36 189.258C173.02 183.158 173.295 176.922 175.726 170.893C177.113 167.936 179.408 164.766 182.538 163.495C183.979 163.049 185.458 162.698 186.914 163.184C187.189 163.678 187.189 163.678 187.207 164.356C186.325 166.023 185.144 166.795 183.582 167.798C181.608 169.135 180.172 170.272 179.297 172.559C179.182 172.851 179.067 173.143 178.949 173.444C177.387 177.929 177.309 183.663 179.149 188.124C180.089 189.917 181.232 191.585 182.358 193.264C184.64 196.682 186.852 200.078 188.379 203.907C188.452 204.087 188.525 204.267 188.6 204.452C193.048 215.722 193.626 228.584 194.531 240.528C195.062 240.534 195.593 240.54 196.124 240.546C196.568 240.551 196.568 240.551 197.021 240.556C197.737 240.611 197.737 240.611 198.047 240.235C198.167 238.417 198.046 236.583 197.942 234.766C197.752 231.4 197.695 228.042 197.699 224.671C197.699 224.255 197.699 224.255 197.699 223.831C197.71 215.884 198.145 207.978 199.219 200.098C199.259 199.796 199.299 199.494 199.34 199.183C200.169 193.191 201.676 187.356 203.161 181.499C205.249 173.238 206.367 165.089 201.944 157.33C198.892 152.797 194.424 150.238 189.093 149.176C183.128 148.154 176.943 148.852 170.97 149.486C166.855 149.911 162.767 150.062 158.633 150.071C157.823 150.074 157.013 150.083 156.203 150.092C148.452 150.138 140.605 148.784 134.766 143.262C134.578 142.994 134.391 142.725 134.198 142.448C133.653 141.715 133.653 141.715 132.82 141.73C131.709 141.806 130.643 141.99 129.555 142.215ZM211.817 142.09C211.415 142.593 211.019 143.1 210.626 143.61C207.798 147.068 204.085 147.786 199.805 148.535C200.041 148.807 200.276 149.079 200.519 149.359C200.679 149.549 200.84 149.738 201.005 149.933C201.393 150.388 201.787 150.838 202.184 151.285C204.028 153.423 205.298 155.69 206.543 158.203C209.001 157.111 210.693 154.716 211.817 152.344C212.426 150.659 212.483 149.148 212.457 147.382C212.457 147.131 212.457 146.881 212.457 146.623C212.446 145.088 212.33 143.609 212.11 142.09C212.013 142.09 211.916 142.09 211.817 142.09Z" fill="black"/>
<path d="M111.273 119.44C111.574 119.435 111.876 119.431 112.187 119.426C114.518 119.424 116.861 119.67 118.817 121.051C119.602 121.957 119.835 122.463 119.888 123.639C119.771 124.696 119.363 125.198 118.652 125.977C116.393 127.736 114.499 128.586 111.621 128.321C109.329 127.892 106.605 126.93 105.005 125.176C104.327 124.093 104.057 123.124 104.297 121.875C105.12 120.577 105.642 120.031 107.17 119.64C108.529 119.41 109.898 119.436 111.273 119.44Z" fill="black"/>
<path d="M103.712 129.785C104.334 129.785 104.334 129.785 105.176 130.078C105.583 130.589 105.583 130.589 106 131.213C106.748 132.264 107.313 132.817 108.556 133.184C111.852 133.717 114.672 133.411 117.389 131.47C118.529 130.662 118.529 130.662 119.678 130.682C120.411 130.957 120.411 130.957 120.704 131.25C120.876 132.483 120.82 133.328 120.081 134.326C118.191 136.33 115.176 137.557 112.473 137.765C109.673 137.826 106.75 137.566 104.407 135.864C103.248 134.522 102.8 133.374 102.888 131.598C103.126 130.664 103.126 130.664 103.712 129.785Z" fill="black"/>
<path d="M127.734 113.086C128.333 113.551 128.578 113.841 128.783 114.576C129.021 116.932 129.021 116.932 128.32 118.066C127.643 118.768 127.257 118.929 126.287 119.073C125.183 118.916 124.717 118.542 123.925 117.773C123.456 116.835 123.513 116.176 123.632 115.137C124.759 113.378 125.621 112.568 127.734 113.086Z" fill="black"/>
<path d="M107.813 110.156C108.62 110.682 109.139 111.051 109.571 111.914C109.683 113.104 109.688 113.765 109.077 114.807C108.312 115.51 107.97 115.723 106.934 115.723C106.044 115.341 105.55 114.937 104.92 114.203C104.44 113.003 104.599 112.297 104.884 111.035C105.551 109.849 106.565 110.006 107.813 110.156Z" fill="black"/>
</svg>
