<svg width="300" height="300" viewBox="0 0 300 300" fill="none" xmlns="http://www.w3.org/2000/svg">
<path d="M108.399 118.359C109.191 119.038 109.673 119.853 110.202 120.744C113.688 126.606 118.458 131.855 123.926 135.938C124.226 136.163 124.526 136.388 124.836 136.62C130.374 140.667 135.562 141.349 142.202 141.317C142.831 141.317 143.461 141.317 144.09 141.318C145.403 141.318 146.715 141.315 148.028 141.309C149.701 141.303 151.375 141.303 153.049 141.305C154.346 141.306 155.644 141.304 156.941 141.301C157.558 141.3 158.175 141.299 158.792 141.3C169.108 141.301 175.714 137.073 182.92 129.98C184.058 128.819 185.056 127.564 186.035 126.27C186.25 125.997 186.466 125.724 186.688 125.443C188.1 123.623 189.322 121.746 190.454 119.743C190.724 119.273 191.014 118.815 191.309 118.359C191.502 118.359 191.695 118.359 191.895 118.359C195.775 131.43 198.632 146.898 198.34 160.547C197.432 160.093 197.276 159.195 196.912 158.295C195.103 154.014 192.771 149.976 190.302 146.045C190.089 145.706 190.089 145.706 189.872 145.361C189.06 144.092 188.197 142.932 187.207 141.797C187.35 142.112 187.35 142.112 187.496 142.433C190.897 149.925 194.104 157.488 197.129 165.14C197.262 165.477 197.396 165.813 197.533 166.16C197.663 166.494 197.793 166.827 197.928 167.17C198.328 168.17 198.328 168.17 198.824 169.128C200.173 171.874 200.372 174.238 200.327 177.264C200.317 178.017 200.327 178.768 200.338 179.521C200.346 182.487 200.003 184.662 198.34 187.207C198.145 187.533 197.949 187.86 197.748 188.196C192.704 195.581 186.846 202.234 180.542 208.557C180.324 208.776 180.324 208.776 180.102 209C178.422 210.687 176.717 212.324 174.902 213.867C174.564 214.163 174.225 214.46 173.887 214.756C169.832 218.298 165.7 221.708 161.366 224.903C160.599 225.472 159.841 226.052 159.082 226.63C157.709 227.658 156.315 228.653 154.907 229.633C154.622 229.833 154.622 229.833 154.331 230.038C153.773 230.422 153.209 230.791 152.637 231.152C152.442 231.276 152.247 231.4 152.046 231.528C151.001 232.129 150.488 232.348 149.263 232.201C148.051 231.652 147.039 230.989 145.972 230.2C145.758 230.046 145.544 229.891 145.324 229.731C144.869 229.401 144.414 229.069 143.961 228.736C143.264 228.224 142.565 227.718 141.864 227.212C139.001 225.134 136.227 222.97 133.5 220.717C132.836 220.171 132.162 219.637 131.488 219.104C128.544 216.75 125.721 214.282 122.97 211.706C122.427 211.199 121.882 210.694 121.337 210.189C116.376 205.59 116.376 205.59 115.43 204.492C115.43 204.299 115.43 204.105 115.43 203.906C115.236 203.906 115.043 203.906 114.844 203.906C114.462 203.538 114.462 203.538 114.002 202.991C113.729 202.67 113.729 202.67 113.451 202.342C113.234 202.085 113.017 201.827 112.793 201.562C112.522 201.25 112.251 200.939 111.979 200.628C110.012 198.367 108.137 196.056 106.348 193.652C106.198 193.453 106.048 193.253 105.893 193.048C105.4 192.391 104.912 191.731 104.425 191.071C104.277 190.873 104.129 190.676 103.976 190.472C103.476 189.787 103.006 189.087 102.539 188.379C102.429 188.22 102.319 188.06 102.206 187.896C99.9674 184.608 99.4346 181.826 99.5179 177.887C99.5201 177.624 99.5223 177.361 99.5245 177.09C99.5851 172.354 100.632 168.934 102.909 164.759C103.748 163.127 104.401 161.425 105.069 159.718C106.646 155.698 108.375 151.757 110.164 147.828C111.073 145.831 111.937 143.817 112.793 141.797C110.194 145.128 108.076 148.638 106.055 152.344C105.927 152.578 105.799 152.812 105.667 153.053C104.331 155.508 103.058 157.977 101.953 160.547C101.857 160.547 101.76 160.547 101.66 160.547C101.629 158.645 101.703 156.792 101.919 154.903C101.947 154.651 101.974 154.399 102.003 154.14C102.094 153.321 102.188 152.503 102.283 151.685C102.315 151.402 102.348 151.119 102.381 150.827C105.445 124.267 105.445 124.267 108.399 118.359ZM113.086 140.918C113.379 141.504 113.379 141.504 113.379 141.504L113.086 140.918Z" fill="black"/>
<path d="M176.266 62.8759C181.538 67.9887 184.336 75.0421 185.257 82.2325C185.512 84.0945 186.127 85.7077 186.841 87.4338C190.155 95.453 192.242 104.208 189.844 112.794C189.765 113.085 189.687 113.376 189.607 113.676C188.5 117.362 186.635 120.894 184.277 123.927C184.093 124.171 183.908 124.415 183.718 124.666C179.1 130.553 172.693 136.972 164.941 137.989C162.685 138.152 160.417 138.113 158.156 138.106C157.5 138.107 156.844 138.107 156.188 138.108C154.818 138.11 153.449 138.108 152.08 138.104C150.333 138.099 148.586 138.102 146.839 138.107C145.486 138.11 144.133 138.109 142.78 138.107C142.136 138.106 141.492 138.107 140.848 138.109C133.194 138.128 128.305 136.263 122.615 131.046C122.137 130.611 121.653 130.182 121.162 129.762C114.663 124.158 110.051 116.462 109.277 107.813C108.823 100.521 110.655 93.6946 113.287 86.9577C114.172 84.6925 114.791 82.5822 115.11 80.1754C115.912 74.4884 118.402 69.0579 122.168 64.747C122.326 64.5469 122.484 64.3467 122.647 64.1405C126.513 59.3666 132.083 57.3018 137.988 56.5439C138.635 56.5031 139.282 56.4725 139.93 56.4512C140.487 56.4327 140.487 56.4327 141.055 56.4139C141.455 56.4021 141.855 56.3905 142.254 56.3791C142.459 56.373 142.664 56.3669 142.875 56.3606C168.473 55.6085 168.473 55.6085 176.266 62.8759ZM147.363 74.122C146.87 75.1431 146.545 76.2085 146.21 77.2897C146.102 77.6233 145.995 77.9568 145.884 78.3004C145.49 79.5418 145.107 80.7863 144.726 82.0322C144.645 82.2977 144.564 82.5633 144.48 82.8369C143.836 84.9473 143.199 87.0597 142.566 89.1733C142.476 89.4725 142.386 89.7716 142.294 90.0799C140.036 95.997 140.036 95.997 140.332 101.954C141.445 102.981 142.698 103.659 144.031 104.353C144.324 104.509 144.324 104.509 144.623 104.668C147.246 106.05 150.006 106.256 152.93 105.763C155.167 105.009 158.271 103.642 159.668 101.661C160.162 99.5215 159.687 97.8189 159.105 95.7342C159.012 95.3892 158.919 95.0441 158.823 94.6886C157.863 91.1616 156.844 87.6511 155.801 84.1478C155.487 83.0921 155.176 82.0355 154.866 80.9788C154.665 80.2995 154.463 79.6203 154.262 78.9411C154.17 78.629 154.079 78.3168 153.984 77.9952C153.264 75.4632 153.264 75.4632 151.849 73.2797C150.079 72.4183 148.666 72.7371 147.363 74.122ZM164.648 88.1845C164.641 89.8481 164.636 91.5116 164.632 93.1752C164.631 93.7416 164.629 94.308 164.626 94.8744C164.623 95.6867 164.621 96.4989 164.62 97.3112C164.618 97.566 164.617 97.8208 164.615 98.0834C164.615 98.6901 164.63 99.2968 164.648 99.9033C164.943 100.263 164.943 100.263 165.541 100.235C166.416 100.233 167.289 100.219 168.164 100.196C168.48 100.188 168.796 100.18 169.122 100.171C172.229 100.016 174.568 99.3874 176.73 97.0629C177.579 95.9518 178.164 94.7402 178.711 93.458C176.311 93.818 174.614 94.8479 172.558 96.0947C170.99 96.9871 169.91 97.0176 168.164 96.6806C168.064 96.1929 167.967 95.7045 167.871 95.2158C167.789 94.8079 167.789 94.8079 167.706 94.3918C167.554 93.2827 167.559 92.2331 167.578 91.1142C167.82 91.1157 168.062 91.1173 168.311 91.1189C169.223 91.1239 170.135 91.1276 171.047 91.1303C171.63 91.1325 172.213 91.1362 172.796 91.14C174.885 91.1452 176.931 91.0923 179.004 90.8212C178.961 90.4406 178.919 90.0599 178.876 89.6677C178.852 89.4535 178.828 89.2394 178.803 89.0188C178.764 88.4742 178.764 88.4742 178.418 88.1845C177.986 88.1573 177.553 88.1501 177.121 88.1513C176.845 88.1513 176.569 88.1513 176.285 88.1513C175.986 88.1528 175.686 88.1544 175.377 88.1559C174.919 88.1565 174.919 88.1565 174.452 88.1572C173.473 88.1588 172.494 88.1625 171.515 88.1662C170.853 88.1677 170.191 88.169 169.529 88.1702C167.902 88.1735 166.275 88.1784 164.648 88.1845ZM121.582 88.4775C120.923 89.8607 120.923 89.8607 120.996 91.1142C126.507 91.2592 126.507 91.2592 132.129 91.4072C132.554 92.2568 132.389 92.9387 132.312 93.8791C132.272 94.3861 132.272 94.3861 132.232 94.9034C132.129 95.8017 132.129 95.8017 131.836 96.6806C128.947 97.2381 126.962 95.8774 124.449 94.5669C123.398 94.0305 122.475 93.6103 121.289 93.458C122.582 96.2423 123.783 98.1507 126.562 99.6103C127.528 99.9323 128.241 99.9367 129.257 99.9319C129.611 99.9309 129.966 99.93 130.33 99.929C130.7 99.9266 131.07 99.9241 131.451 99.9216C131.825 99.9203 132.198 99.9189 132.583 99.9176C133.505 99.9141 134.428 99.9093 135.351 99.9033C135.359 98.3702 135.364 96.8372 135.368 95.3042C135.369 94.7824 135.371 94.2607 135.374 93.7389C135.377 92.9899 135.379 92.2409 135.38 91.4919C135.382 91.2578 135.383 91.0237 135.385 90.7825C135.414 89.5917 135.414 89.5917 135.058 88.4775C130.611 88.4775 126.164 88.4775 121.582 88.4775ZM126.956 116.511C125.518 118.26 124.945 120.128 124.676 122.352C124.838 123.6 125.231 124.662 125.976 125.685C126.266 125.781 126.556 125.878 126.855 125.977C126.923 125.645 126.991 125.313 127.06 124.97C128.212 119.545 128.212 119.545 129.983 118.311C133.246 116.764 137.41 118.564 140.625 119.532C140.633 119.111 140.638 118.69 140.643 118.269C140.647 118.034 140.65 117.8 140.653 117.558C140.653 116.846 140.653 116.846 140.332 116.017C136.881 113.428 130.108 113.3 126.956 116.511ZM159.375 116.602C159.304 117.317 159.304 117.317 159.338 118.104C159.344 118.371 159.349 118.637 159.354 118.912C159.361 119.117 159.368 119.321 159.375 119.532C159.542 119.479 159.709 119.426 159.882 119.371C167.154 117.116 167.154 117.116 169.965 118.321C171.647 119.35 172.045 121.135 172.489 122.941C172.723 123.95 172.938 124.962 173.144 125.977C174.062 125.58 174.297 125.423 174.847 124.531C175.564 122.636 175.151 120.556 174.408 118.727C173.571 117.046 172.627 115.788 170.965 114.881C167.216 113.697 162.287 113.69 159.375 116.602ZM134.18 129.786C134.18 130.56 134.18 131.333 134.18 132.13C134.426 132.092 134.673 132.054 134.927 132.014C138.039 131.668 140.809 132.099 143.867 132.74C146.979 133.387 150.003 133.871 153.149 133.228C153.371 133.188 153.592 133.148 153.82 133.107C154.926 132.905 156.028 132.681 157.128 132.45C160.106 131.846 162.799 131.816 165.82 132.13C165.82 131.356 165.82 130.583 165.82 129.786C162.536 128.189 159.048 128.8 155.585 129.493C151.23 130.352 147.531 130.243 143.197 129.329C140.217 128.721 136.909 128.196 134.18 129.786Z" fill="black"/>
<path d="M100.103 113.874C100.357 113.872 100.611 113.871 100.873 113.869C102.656 113.889 104.32 114.146 106.054 114.552C105.651 117.003 105.092 119.408 104.506 121.821C103.399 126.404 102.434 130.993 101.66 135.645C101.609 135.945 101.609 135.945 101.558 136.251C99.9496 145.845 98.7376 155.514 98.0106 165.217C97.8793 166.937 97.8793 166.937 97.5582 167.579C96.3682 167.228 95.329 166.762 94.2488 166.153C89.0657 163.239 83.4215 161.36 77.8012 159.486C77.5639 159.407 77.3267 159.327 77.0823 159.246C76.4072 159.022 75.7316 158.799 75.0557 158.577C74.8513 158.509 74.6469 158.442 74.4362 158.372C73.4206 158.027 73.4206 158.027 72.3629 157.911C72.6313 158.041 72.8996 158.17 73.176 158.304C74.1962 158.797 75.2161 159.291 76.236 159.785C76.6729 159.996 77.1097 160.208 77.5467 160.419C84.1823 163.627 90.7189 166.889 96.9723 170.802C96.2508 173.079 95.3709 175.276 94.4638 177.485C94.2465 178.018 94.2465 178.018 94.0249 178.562C92.8575 181.417 92.8575 181.417 92.2848 182.52C91.977 182.489 91.6692 182.458 91.3521 182.425C88.0482 182.072 88.0482 182.072 84.9606 183.106C84.1218 183.884 83.8168 184.256 83.7155 185.395C83.7396 185.607 83.7638 185.818 83.7887 186.036C84.0667 185.849 84.3446 185.661 84.631 185.468C86.5774 184.376 88.4647 184.437 90.6002 184.919C92.2551 185.386 93.3512 185.931 94.5736 187.153C95.0674 188.063 95.1482 188.812 95.2145 189.845C94.8769 190.798 94.8769 190.798 94.3539 191.767C94.2608 191.943 94.1677 192.118 94.0718 192.299C93.7758 192.852 93.4714 193.4 93.1637 193.946C93.0175 194.207 93.0175 194.207 92.8683 194.473C92.3852 195.329 91.8951 196.182 91.4002 197.031C91.0084 197.718 90.6306 198.4 90.2672 199.101C90.0931 199.436 89.919 199.771 89.7396 200.117C89.5874 200.416 89.4353 200.716 89.2784 201.024C88.5209 202.262 87.5486 203.449 86.1325 203.907C78.5197 204.256 68.9109 197.674 63.2248 192.94C61.4694 191.336 60.4861 189.487 60.2956 187.095C60.2732 186.269 60.2687 185.444 60.2707 184.618C60.2693 184.304 60.2678 183.991 60.2662 183.668C60.2621 182.636 60.2624 181.605 60.2631 180.573C60.262 179.853 60.2607 179.133 60.2593 178.413C60.2571 176.905 60.2572 175.398 60.2587 173.89C60.2604 171.962 60.2555 170.033 60.2487 168.105C60.2443 166.618 60.2441 165.132 60.245 163.645C60.2449 162.935 60.2433 162.224 60.2404 161.513C60.2367 160.517 60.2387 159.522 60.2421 158.526C60.2399 158.235 60.2377 157.944 60.2354 157.643C60.2575 154.685 60.964 152.679 62.9879 150.532C63.3347 150.148 63.6806 149.763 64.0259 149.377C64.1979 149.186 64.3699 148.996 64.547 148.799C65.2616 147.991 65.9328 147.153 66.5951 146.302C66.7218 146.139 66.8485 145.977 66.9791 145.809C68.4032 143.97 69.807 142.116 71.2143 140.264C73.4044 137.384 75.6413 134.544 77.9053 131.722C79.0522 130.285 80.1849 128.836 81.3197 127.389C81.7316 126.864 82.1443 126.34 82.5573 125.816C83.7574 124.293 84.9551 122.768 86.1385 121.232C86.3884 120.908 86.6389 120.584 86.8903 120.261C87.3991 119.604 87.8893 118.948 88.34 118.249C89.8485 115.932 92.3153 115.018 94.9032 114.295C96.6361 113.942 98.3411 113.885 100.103 113.874Z" fill="black"/>
<path d="M207.129 114.844C207.568 114.97 207.568 114.97 208.016 115.098C211.024 116.244 212.484 118.909 214.235 121.449C215.003 122.53 215.839 123.548 216.687 124.567C218.105 126.285 219.46 128.04 220.789 129.828C221.724 131.085 222.674 132.328 223.645 133.557C223.775 133.722 223.905 133.886 224.038 134.056C224.31 134.4 224.582 134.744 224.855 135.089C227.017 137.831 229.158 140.589 231.244 143.39C232.858 145.556 234.519 147.677 236.319 149.694C236.515 149.917 236.515 149.917 236.715 150.145C237.078 150.557 237.446 150.966 237.814 151.374C239.486 153.57 239.822 156.196 239.8 158.871C239.802 159.184 239.804 159.497 239.806 159.82C239.811 160.844 239.808 161.868 239.804 162.892C239.805 163.61 239.806 164.327 239.807 165.045C239.809 166.544 239.807 168.043 239.801 169.543C239.795 171.459 239.798 173.376 239.805 175.293C239.81 176.773 239.808 178.253 239.805 179.733C239.804 180.439 239.805 181.146 239.808 181.853C239.811 182.842 239.807 183.831 239.8 184.82C239.802 185.108 239.805 185.397 239.807 185.694C239.78 187.959 239.258 189.909 237.94 191.776C235.965 193.676 233.772 195.156 231.445 196.582C231.22 196.721 230.995 196.86 230.763 197.003C218.292 204.6 218.292 204.6 213.867 203.907C211.302 202.675 210.068 199.974 208.905 197.516C207.954 195.555 206.972 193.698 205.745 191.894C204.926 190.614 204.866 189.265 205.078 187.793C205.922 186.302 206.966 185.641 208.569 185.066C211.201 184.476 213.783 184.555 216.211 185.743C216.138 184.339 216.138 184.339 215.46 183.161C213.572 182.241 212.038 182.205 209.972 182.36C209.754 182.375 209.537 182.39 209.313 182.405C208.78 182.442 208.248 182.481 207.715 182.52C207.092 181.135 206.471 179.748 205.853 178.361C205.643 177.889 205.432 177.418 205.22 176.947C204.915 176.269 204.612 175.589 204.31 174.91C204.216 174.701 204.121 174.492 204.024 174.277C203.512 173.118 203.174 172.073 203.027 170.801C211.204 165.931 219.66 161.755 228.223 157.618C220.278 159.911 212.582 162.589 205.297 166.541C205.056 166.672 204.814 166.803 204.564 166.938C204.352 167.054 204.139 167.171 203.92 167.291C203.33 167.574 202.783 167.723 202.148 167.871C202.121 167.525 202.093 167.178 202.064 166.82C200.643 149.241 198.234 131.966 193.945 114.844C197.562 112.949 203.362 113.647 207.129 114.844Z" fill="black"/>
<path d="M99.9022 189.844C100.979 190.865 101.848 191.931 102.685 193.158C104.373 195.571 106.221 197.838 108.105 200.098C108.256 200.279 108.406 200.461 108.561 200.648C110.268 202.701 112.031 204.658 113.939 206.526C114.696 207.267 115.416 208.014 116.089 208.832C116.842 209.743 117.693 210.481 118.593 211.245C119.328 211.896 120.014 212.583 120.703 213.281C121.927 214.516 123.187 215.672 124.512 216.797C124.82 217.061 125.127 217.326 125.435 217.591C126.139 218.197 126.845 218.801 127.551 219.404C128.214 219.969 128.873 220.538 129.529 221.111C133.794 224.9 133.794 224.9 138.574 227.93C138.413 229.572 137.962 230.871 137.311 232.379C136.167 235.141 135.193 237.948 134.253 240.784C134.18 241.005 134.106 241.225 134.031 241.453C132.647 245.637 131.317 249.838 130.003 254.045C129.932 254.274 129.86 254.502 129.786 254.738C129.652 255.167 129.519 255.596 129.386 256.025C128.939 257.454 128.939 257.454 128.613 258.105C126.97 258.105 125.326 258.105 123.633 258.105C123.602 257.441 123.572 256.776 123.541 256.091C123.357 253.105 122.782 250.409 120.703 248.145C118.178 246.246 115.929 245.773 112.793 246.094C111.001 246.676 109.618 247.6 108.398 249.023C107.329 248.538 106.6 247.902 105.755 247.101C103.96 245.795 101.726 245.881 99.6092 246.094C98.5813 246.395 97.6346 246.783 96.6795 247.266C96.34 246.247 96.3392 245.333 96.3373 244.273C96.3361 244.056 96.3349 243.839 96.3336 243.615C96.3306 242.885 96.3307 242.155 96.3316 241.425C96.3318 241.169 96.332 240.913 96.3322 240.649C96.3586 226.267 97.1782 211.847 98.7669 197.552C98.7904 197.341 98.8139 197.129 98.8381 196.911C99.1055 194.536 99.4359 192.187 99.9022 189.844Z" fill="black"/>
<path d="M199.512 190.137C199.705 190.137 199.898 190.137 200.098 190.137C200.522 192.099 200.827 194.043 201.03 196.04C201.06 196.319 201.089 196.598 201.119 196.886C201.214 197.798 201.306 198.71 201.398 199.622C201.43 199.938 201.462 200.254 201.495 200.579C202.13 206.888 202.618 213.2 202.982 219.529C203.027 220.31 203.074 221.09 203.12 221.87C203.612 230.24 203.685 238.589 203.613 246.973C202.841 246.83 202.17 246.689 201.447 246.376C199.667 245.717 197.513 245.808 195.715 246.36C194.164 247.085 193.164 247.917 192.188 249.316C192.001 249.146 192.001 249.146 191.811 248.973C189.45 246.877 187.507 245.972 184.325 246.015C181.943 246.218 180.228 247.219 178.621 248.959C176.996 251.09 176.648 253.388 176.495 256C176.453 256.695 176.411 257.39 176.367 258.105C174.82 258.105 173.273 258.105 171.68 258.105C170.791 256.194 170.088 254.286 169.461 252.275C169.365 251.974 169.27 251.673 169.172 251.362C168.969 250.723 168.768 250.083 168.567 249.444C168.045 247.787 167.518 246.133 166.991 244.479C166.889 244.157 166.786 243.835 166.68 243.504C164.489 236.565 164.489 236.565 161.718 229.845C161.426 229.102 161.426 229.102 161.426 227.93C162.004 227.439 162.552 227.04 163.184 226.63C164.825 225.513 166.392 224.338 167.926 223.077C168.125 222.914 168.324 222.751 168.528 222.583C168.915 222.264 169.302 221.945 169.688 221.626C170.402 221.037 171.124 220.456 171.844 219.873C177.683 215.079 183.582 209.97 188.47 204.189C189.08 203.479 189.719 202.798 190.356 202.112C192.051 200.253 193.591 198.287 195.117 196.289C195.239 196.13 195.362 195.971 195.487 195.806C196.786 194.11 198.034 192.404 199.163 190.59C199.335 190.366 199.335 190.366 199.512 190.137Z" fill="black"/>
<path d="M120.117 41.8954C121.864 42.8566 122.835 44.5804 123.88 46.2109C124.523 47.185 125.207 48.1156 125.922 49.0365C126.042 49.1915 126.162 49.3465 126.286 49.5061C126.966 50.3786 127.654 51.2447 128.345 52.1092C128.568 52.3897 128.568 52.3897 128.795 52.6759C129.084 53.0392 129.375 53.4016 129.667 53.7628C130.664 55.0137 130.664 55.0137 130.664 55.6649C130.455 55.7401 130.245 55.8152 130.029 55.8926C125.979 57.4488 123.176 59.7325 120.41 62.9891C120.121 63.2859 119.83 63.5808 119.531 63.868C118.279 60.9113 118.268 57.8829 118.286 54.7128C118.284 54.331 118.282 53.9491 118.279 53.5558C118.285 50.8863 118.532 48.3361 118.946 45.704C116.922 49.5853 115.668 52.9623 115.65 57.4044C115.648 57.6452 115.647 57.8859 115.646 58.134C115.665 60.1981 115.982 62.1155 116.438 64.1244C116.602 65.0399 116.602 65.0399 116.309 65.9188C113.509 63.5921 110.481 60.7727 109.845 57.0016C109.676 52.6269 112.483 47.7202 115.235 44.4531C117.968 41.6115 117.968 41.6115 120.117 41.8954Z" fill="black"/>
<path d="M180.396 41.6934C183.15 42.2759 184.808 44.3995 186.298 46.6537C187.292 48.2358 188.143 49.8861 188.965 51.5627C189.077 51.7791 189.19 51.9955 189.306 52.2185C190.25 54.2797 190.214 56.7951 189.562 58.9305C188.312 61.684 186.09 64.4725 183.398 65.9182C183.53 64.7118 183.685 63.5604 183.989 62.3854C185.227 56.8863 184.325 50.7776 181.348 45.9963C181.154 45.8997 180.961 45.803 180.762 45.7034C180.822 45.9232 180.882 46.143 180.944 46.3694C182.17 51.0269 182.273 55.7287 181.531 60.48C181.475 60.8363 181.475 60.8363 181.419 61.1997C181.238 62.2594 181.072 62.9622 180.469 63.8674C180.139 63.4958 180.139 63.4958 179.803 63.1167C176.671 59.6253 173.581 57.3514 169.336 55.3713C170.261 54.121 171.203 52.8905 172.177 51.6778C173.832 49.6101 175.345 47.4691 176.806 45.2596C178.946 42.0558 178.946 42.0558 180.396 41.6934Z" fill="black"/>
<path d="M149.707 75.8789C149.9 75.8789 150.094 75.8789 150.293 75.8789C150.343 76.0505 150.393 76.2221 150.444 76.3988C150.687 77.2326 150.93 78.0664 151.173 78.9001C151.265 79.2153 151.357 79.5305 151.451 79.8552C152.036 81.859 152.624 83.8615 153.215 85.8632C153.604 87.1818 153.99 88.5011 154.376 89.8207C154.574 90.4958 154.773 91.1706 154.973 91.8451C155.268 92.8394 155.559 93.8347 155.849 94.8303C155.984 95.2789 155.984 95.2789 156.121 95.7366C156.593 97.3729 156.896 98.7833 156.738 100.488C156.149 101.081 156.149 101.081 155.365 101.477C154.983 101.68 154.983 101.68 154.593 101.887C154.334 102.005 154.075 102.124 153.809 102.246C153.581 102.356 153.354 102.467 153.12 102.58C150.702 103.365 147.625 103.092 145.35 102.018C144.4 101.473 143.539 100.871 142.676 100.195C143.178 97.2726 144.049 94.4644 144.891 91.626C145.049 91.0919 145.206 90.5578 145.364 90.0237C145.758 88.6868 146.154 87.3504 146.551 86.0142C146.766 85.2911 146.981 84.5679 147.195 83.8447C147.561 82.6112 147.929 81.3781 148.297 80.1453C148.407 79.7779 148.516 79.4105 148.629 79.032C148.729 78.6989 148.829 78.3657 148.932 78.0224C149.019 77.7337 149.105 77.445 149.195 77.1476C149.414 76.4648 149.414 76.4648 149.707 75.8789Z" fill="black"/>
<path d="M201.813 249.221C203.222 250.094 204.334 251.495 204.946 253.039C205.138 254.018 205.112 254.989 205.099 255.982C205.097 256.187 205.096 256.391 205.094 256.601C205.09 257.103 205.084 257.605 205.078 258.106C203.456 258.113 201.834 258.119 200.212 258.122C199.66 258.124 199.108 258.126 198.556 258.128C197.764 258.132 196.972 258.134 196.18 258.135C195.932 258.136 195.683 258.138 195.427 258.139C194.836 258.139 194.244 258.124 193.652 258.106C193.067 257.521 193.289 256.397 193.286 255.598C193.296 251.815 193.296 251.815 194.702 250.274C196.904 248.258 199.097 247.907 201.813 249.221Z" fill="black"/>
<path d="M104.095 249.243C105.551 250.462 106.027 251.284 106.641 253.125C106.641 254.769 106.641 256.412 106.641 258.106C102.773 258.106 98.9063 258.106 94.9219 258.106C94.9219 252.67 94.9219 252.67 96.3867 250.781C98.6066 248.598 101.243 247.736 104.095 249.243Z" fill="black"/>
<path d="M187.555 248.914C189.048 249.753 189.907 250.767 190.521 252.375C190.806 254.265 190.723 256.194 190.723 258.106C186.952 258.106 183.182 258.106 179.297 258.106C179.297 252.021 179.297 252.021 181.446 249.739C183.236 248.188 185.451 247.969 187.555 248.914Z" fill="black"/>
<path d="M117.773 249.316C119.306 250.6 120.218 252.063 120.703 254.004C120.703 255.357 120.703 256.711 120.703 258.106C116.933 258.106 113.162 258.106 109.277 258.106C109.277 251.782 109.277 251.782 110.867 250.027C113.007 248.097 115.262 247.967 117.773 249.316Z" fill="black"/>
</svg>
