<svg width="300" height="300" viewBox="0 0 300 300" fill="none" xmlns="http://www.w3.org/2000/svg">
<path d="M110.656 94.8344C111.318 94.8332 111.98 94.832 112.642 94.8306C114.021 94.8284 115.4 94.8285 116.78 94.83C118.54 94.8317 120.301 94.8267 122.061 94.82C123.425 94.8156 124.789 94.8154 126.153 94.8163C126.802 94.8161 127.451 94.8146 128.1 94.8117C129.009 94.808 129.917 94.81 130.825 94.8134C131.088 94.8112 131.351 94.8089 131.622 94.8066C135.893 94.8415 139.449 96.4704 142.514 99.3926C145.651 102.765 146.401 106.132 146.273 110.595C146.099 114.127 144.362 117.397 141.796 119.825C138.111 122.845 134.143 123.728 129.46 123.708C128.998 123.71 128.998 123.71 128.527 123.711C127.865 123.713 127.202 123.714 126.54 123.714C125.487 123.714 124.435 123.717 123.382 123.722C120.392 123.736 117.402 123.743 114.411 123.745C112.576 123.746 110.741 123.754 108.906 123.764C108.212 123.767 107.517 123.768 106.822 123.766C100.553 123.753 95.3479 124.308 90.591 128.824C87.8058 131.688 86.3486 134.916 86.3312 138.909C86.3818 141.735 87.5722 143.945 89.41 146.046C93.6905 149.85 98.5068 150.262 104.003 150.001C111.794 149.416 119.39 145.891 126.631 143.208C142.885 137.19 142.885 137.19 150 135.352C150.289 135.277 150.579 135.202 150.878 135.124C156.191 133.769 161.564 132.882 166.992 132.13C167.223 132.097 167.454 132.064 167.692 132.031C169.625 131.786 171.569 131.746 173.515 131.689C174.11 131.672 174.706 131.653 175.302 131.633C175.688 131.622 176.075 131.61 176.473 131.597C177.039 131.578 177.039 131.578 177.617 131.558C178.71 131.544 178.71 131.544 179.729 131.613C181.325 131.775 181.325 131.775 182.721 131.153C183.131 130.571 183.419 129.996 183.709 129.346C183.946 128.887 184.185 128.428 184.426 127.97C184.604 127.618 184.604 127.618 184.786 127.258C186.549 123.939 188.957 121.008 191.601 118.36C191.835 118.122 192.069 117.885 192.311 117.64C197.246 112.906 203.578 111.102 210.288 111.231C212.902 111.347 215.491 111.968 217.968 112.794C218.714 112.805 219.451 112.799 220.196 112.781C220.653 112.774 221.109 112.768 221.566 112.762C222.279 112.751 222.991 112.739 223.704 112.721C229.331 112.588 234.104 113.535 238.403 117.463C241.648 120.863 243.204 125.412 243.164 130.079C242.909 132.724 242.281 135.304 241.113 137.696C240.99 137.954 240.867 138.211 240.74 138.476C238.29 143.282 234.166 147.171 229.824 150.28C227.694 151.807 226.622 152.936 225.988 155.494C224.43 161.178 221.862 167.208 218.371 171.992C217.733 172.901 217.733 172.901 217.767 174.006C218.04 174.501 218.313 174.995 218.592 175.487C220.547 179.126 221.631 183.718 220.694 187.803C219.847 190.393 218.544 192.285 216.19 193.679C215.226 194.134 214.323 194.276 213.264 194.291C213.033 194.295 212.802 194.298 212.564 194.302C212.192 194.305 212.192 194.305 211.814 194.309C211.556 194.311 211.298 194.313 211.032 194.316C210.486 194.32 209.939 194.323 209.393 194.325C208.839 194.329 208.284 194.335 207.73 194.343C201.528 194.44 201.528 194.44 199.511 193.067C198.971 192.511 198.522 191.924 198.046 191.309C197.66 191.309 197.273 191.309 196.875 191.309C196.778 191.599 196.681 191.889 196.582 192.188C196.385 192.341 196.189 192.493 195.986 192.65C194.976 193.893 195.26 195.444 195.267 196.988C195.23 199.209 194.694 200.72 193.212 202.387C191.492 203.893 190.092 204.559 187.757 204.583C187.409 204.587 187.06 204.592 186.702 204.597C186.143 204.599 186.143 204.599 185.572 204.602C185.181 204.604 184.79 204.607 184.399 204.61C183.58 204.614 182.762 204.617 181.943 204.617C180.902 204.619 179.861 204.63 178.819 204.643C178.011 204.652 177.203 204.654 176.396 204.655C175.827 204.656 175.259 204.665 174.691 204.674C172.213 204.661 170.178 204.281 168.268 202.605C166.848 201.04 166.624 199.396 166.662 197.352C166.667 196.987 166.673 196.622 166.678 196.246C166.685 195.971 166.692 195.695 166.699 195.411C162.046 195.435 157.393 195.463 152.74 195.495C150.58 195.51 148.419 195.523 146.258 195.534C144.374 195.544 142.49 195.556 140.606 195.57C139.61 195.577 138.613 195.584 137.616 195.588C136.501 195.592 135.386 195.601 134.271 195.61C133.78 195.611 133.78 195.611 133.279 195.612C130.125 195.54 130.125 195.54 127.441 196.876C127.289 197.482 127.157 198.093 127.038 198.707C126.538 200.953 125.799 202.246 123.947 203.591C121.933 204.638 119.898 204.587 117.677 204.591C117.33 204.593 116.983 204.595 116.625 204.597C115.892 204.6 115.159 204.601 114.427 204.601C113.313 204.603 112.2 204.613 111.086 204.624C110.372 204.626 109.657 204.627 108.943 204.628C108.613 204.632 108.284 204.636 107.945 204.641C105.294 204.625 102.84 204.178 100.781 202.405C99.2005 200.609 98.9404 198.677 99.0596 196.345C99.2566 194.328 99.6781 192.387 100.195 190.43C100.027 190.41 99.8596 190.389 99.6869 190.368C88.7316 189.008 76.7871 185.893 69.3233 177.027C68.7967 176.406 68.2712 175.792 67.7131 175.199C59.8638 166.813 56.2974 154.896 56.4887 143.576C56.751 136.893 58.1822 130.608 60.9371 124.512C61.0319 124.302 61.1267 124.091 61.2244 123.874C63.6884 118.491 67.1692 113.892 71.191 109.571C71.3737 109.372 71.5565 109.174 71.7449 108.969C78.0708 102.351 86.9982 98.2485 95.782 96.1859C96.0331 96.1265 96.2843 96.0671 96.543 96.0059C101.245 94.9555 105.86 94.8309 110.656 94.8344ZM71.191 114.844C64.2015 123.303 60.2075 133.779 60.2596 144.782C60.2612 145.153 60.2629 145.523 60.2646 145.905C60.3783 154.743 63.0982 163.478 68.5542 170.508C68.7646 170.783 68.975 171.058 69.1917 171.342C76.2715 180.295 86.3131 185.138 97.5215 186.585C98.9487 186.687 99.7545 186.372 100.891 185.505C101.048 185.293 101.205 185.082 101.367 184.864C101.264 184.1 101.264 184.1 101.074 183.399C100.874 183.373 100.674 183.346 100.468 183.319C88.9461 181.77 79.2921 177.976 71.7769 168.751C66.6652 162.044 63.9726 153.957 64.0451 145.54C64.0498 144.893 64.0451 144.247 64.0396 143.601C64.0236 132.723 68.6276 122.565 76.1714 114.844C76.4056 114.592 76.6397 114.34 76.881 114.08C84.0642 106.521 94.9765 102.502 105.264 102.185C107.043 102.148 108.823 102.142 110.602 102.138C111.258 102.135 111.915 102.133 112.571 102.13C113.937 102.125 115.304 102.123 116.671 102.122C118.416 102.12 120.161 102.109 121.907 102.096C123.259 102.087 124.61 102.085 125.962 102.085C126.606 102.084 127.249 102.08 127.893 102.074C128.793 102.066 129.692 102.067 130.592 102.071C130.984 102.065 130.984 102.065 131.384 102.058C133.146 102.078 134.365 102.511 135.902 103.369C136.546 103.749 136.546 103.749 137.402 104.005C137.711 104.534 137.711 104.534 137.988 105.176C138.143 105.462 138.143 105.462 138.301 105.754C139.276 107.686 139.613 109.608 138.946 111.71C138.009 113.74 136.508 115.099 134.472 116.016C132.604 116.593 130.904 116.685 128.956 116.677C128.647 116.678 128.337 116.679 128.018 116.68C127.349 116.682 126.68 116.683 126.01 116.683C124.947 116.682 123.883 116.686 122.82 116.691C119.796 116.705 116.773 116.712 113.75 116.714C111.897 116.715 110.044 116.722 108.191 116.733C107.489 116.736 106.788 116.736 106.086 116.735C98.0967 116.718 91.1451 118.167 85.2134 123.92C81.8124 127.392 79.4103 132.228 79.1011 137.11C79.0856 137.322 79.0702 137.534 79.0542 137.752C78.874 142.509 80.5147 147.158 83.6238 150.751C87.92 155.128 93.3918 157.305 99.5071 157.411C110.543 157.475 120.547 153.171 130.749 149.414C158.102 139.341 158.102 139.341 172.225 139.109C172.427 139.106 172.628 139.102 172.835 139.099C173.669 139.084 174.502 139.07 175.335 139.065C175.953 139.061 176.57 139.049 177.187 139.036C177.55 139.032 177.913 139.027 178.287 139.023C179.485 138.839 180.124 138.461 181.054 137.696C181.473 136.785 181.473 136.785 181.64 135.938C180.602 135.592 179.653 135.592 178.572 135.586C178.353 135.584 178.135 135.582 177.91 135.579C172.652 135.541 167.504 135.661 162.304 136.524C161.804 136.607 161.804 136.607 161.294 136.691C148.859 138.822 137.027 143.219 125.245 147.599C101.295 156.496 101.295 156.496 91.0762 151.903C87.2133 149.898 84.4752 146.848 83.1489 142.666C82.0743 138.109 82.9258 133.589 85.3015 129.606C87.9043 125.473 91.4576 122.84 96.0933 121.29C96.302 121.217 96.5108 121.145 96.7258 121.07C99.8499 120.133 103.036 120.27 106.268 120.261C106.914 120.256 107.559 120.251 108.205 120.245C109.896 120.231 111.587 120.222 113.278 120.215C114.996 120.206 116.714 120.192 118.432 120.179C120.945 120.16 123.459 120.144 125.973 120.131C126.361 120.129 126.361 120.129 126.758 120.127C128.165 120.12 129.573 120.118 130.981 120.124C134.208 120.089 137.344 119.022 139.727 116.804C141.977 114.319 142.836 111.523 142.763 108.206C142.489 105.161 141.09 103.11 138.867 101.075C136.482 99.177 133.88 98.5973 130.888 98.6174C130.6 98.6158 130.312 98.6143 130.016 98.6127C129.071 98.6089 128.125 98.6114 127.18 98.6144C126.515 98.6138 125.851 98.6129 125.186 98.6118C123.793 98.6105 122.401 98.6124 121.008 98.6165C119.24 98.6215 117.472 98.6187 115.704 98.6134C114.33 98.6102 112.956 98.6112 111.582 98.6135C110.932 98.6141 110.281 98.6134 109.63 98.6113C94.6586 98.5741 81.304 103.508 71.191 114.844ZM191.68 123.418C186.71 129.407 183.037 137.209 183.288 145.112C183.597 148.15 184.719 150.505 186.914 152.637C191.446 156.316 197.818 156.893 203.452 156.381C213.746 155.267 223.266 151.477 231.152 144.727C231.337 144.581 231.523 144.435 231.714 144.284C233.336 142.989 234.58 141.386 235.839 139.747C236.007 139.532 236.174 139.318 236.346 139.097C237.692 137.242 238.384 135.178 239.062 133.008C239.152 132.727 239.152 132.727 239.244 132.44C239.897 128.892 239.307 125.325 237.468 122.235C235.434 119.33 232.464 117.299 228.941 116.672C226.598 116.444 224.279 116.583 221.942 116.804C219.618 116.974 217.582 116.559 215.332 116.016C205.924 113.789 198.114 116.083 191.68 123.418ZM218.847 156.153C217.974 157.397 217.396 158.819 216.787 160.205C216.332 161.225 215.833 162.223 215.332 163.221C215.235 163.414 215.138 163.608 215.038 163.807C213.385 167.087 211.625 170.082 209.179 172.852C208.878 173.202 208.878 173.202 208.57 173.558C207.238 175.076 205.837 176.524 204.419 177.961C204.159 178.226 204.159 178.226 203.894 178.497C203.727 178.664 203.56 178.831 203.389 179.003C203.241 179.152 203.094 179.301 202.942 179.454C202.441 179.883 202.441 179.883 201.664 180.268C200.899 180.706 200.899 180.706 200.769 181.565C200.759 181.882 200.749 182.2 200.738 182.527C200.726 182.874 200.713 183.222 200.7 183.58C200.695 183.943 200.689 184.306 200.683 184.681C200.668 185.042 200.654 185.403 200.639 185.775C200.528 188.11 200.528 188.11 201.562 190.137C202.636 190.987 204.043 190.824 205.35 190.832C205.604 190.835 205.859 190.837 206.121 190.84C206.658 190.844 207.195 190.847 207.733 190.848C208.552 190.851 209.371 190.866 210.19 190.881C210.713 190.883 211.236 190.886 211.759 190.887C212.002 190.893 212.246 190.898 212.497 190.904C213.721 190.895 214.504 190.808 215.473 190.023C216.834 188.612 217.431 186.908 217.529 184.955C217.367 181.726 216.308 178.859 214.641 176.13C213.899 174.873 213.638 174.008 213.867 172.559C214.303 171.671 214.857 170.88 215.423 170.069C218.152 165.953 222.363 159.531 222.363 154.395C220.981 154.395 219.846 155.275 218.847 156.153ZM171.533 178.693C170.506 180.147 170.143 181.635 170.129 183.4C170.126 183.74 170.122 184.08 170.118 184.431C170.117 184.794 170.117 185.158 170.116 185.532C170.114 185.909 170.112 186.286 170.11 186.675C170.107 187.471 170.105 188.266 170.106 189.062C170.106 190.079 170.098 191.095 170.088 192.112C170.08 193.086 170.08 194.061 170.079 195.035C170.075 195.399 170.071 195.762 170.067 196.137C170.035 198.152 170.035 198.152 170.699 200.012C172.311 201.588 174.318 201.356 176.438 201.348C176.755 201.349 177.072 201.349 177.399 201.35C178.068 201.35 178.737 201.349 179.406 201.347C180.426 201.343 181.446 201.347 182.465 201.35C183.117 201.35 183.769 201.349 184.421 201.348C184.724 201.349 185.027 201.35 185.339 201.352C188.391 201.348 188.391 201.348 190.997 199.933C191.975 198.571 191.927 197.042 191.856 195.421C191.723 192.014 193.125 190.645 195.364 188.223C197.315 185.992 197.858 184.203 197.837 181.25C197.704 179.541 197.302 177.912 196.012 176.72C195.392 176.274 195.392 176.274 194.494 176.496C193.611 176.889 193.611 176.889 193.176 177.686C193.057 178.792 193.193 179.135 193.634 180.121C194.287 181.609 194.475 182.72 193.945 184.278C193.165 185.666 192.041 186.785 190.979 187.958C189.409 189.699 188.333 191.348 188.35 193.749C188.351 193.983 188.352 194.217 188.353 194.459C188.355 194.7 188.358 194.942 188.36 195.191C188.361 195.437 188.363 195.684 188.364 195.937C188.368 196.543 188.373 197.149 188.378 197.755C186.434 197.762 184.489 197.767 182.544 197.771C181.882 197.772 181.22 197.774 180.558 197.777C179.608 197.78 178.657 197.782 177.707 197.783C177.262 197.785 177.262 197.785 176.808 197.788C176.532 197.788 176.257 197.788 175.973 197.788C175.73 197.788 175.487 197.789 175.237 197.79C174.609 197.755 174.609 197.755 173.73 197.462C173.715 195.408 173.705 193.354 173.698 191.3C173.695 190.601 173.691 189.903 173.686 189.204C173.679 188.199 173.675 187.194 173.673 186.189C173.67 185.878 173.667 185.566 173.664 185.246C173.663 181.81 173.663 181.81 174.902 180.378C175.847 179.581 175.847 179.581 176.656 179.616C176.881 179.644 177.106 179.672 177.337 179.7C177.571 179.729 177.805 179.758 178.047 179.788C178.763 179.891 179.469 180.017 180.175 180.176C180.563 179.379 180.767 178.836 180.725 177.943C180.408 177.084 180.077 176.827 179.296 176.368C176.375 175.394 173.443 176.277 171.533 178.693ZM106.185 177.765C105.306 179.121 105.066 180.638 104.829 182.213C104.799 182.405 104.77 182.596 104.74 182.794C104.645 183.41 104.553 184.027 104.461 184.644C104.333 185.493 104.204 186.342 104.074 187.19C104.043 187.397 104.012 187.604 103.979 187.818C103.771 189.183 103.541 190.542 103.294 191.9C102.433 195.894 102.433 195.894 103.326 199.714C104.443 200.831 105.516 201.05 107.064 201.058C107.376 201.06 107.687 201.063 108.009 201.066C108.343 201.066 108.677 201.066 109.021 201.065C109.366 201.067 109.712 201.068 110.068 201.069C110.798 201.071 111.528 201.071 112.258 201.07C113.374 201.069 114.491 201.076 115.608 201.083C116.317 201.084 117.027 201.084 117.736 201.084C118.07 201.086 118.404 201.089 118.748 201.092C119.06 201.09 119.372 201.088 119.693 201.086C119.967 201.086 120.24 201.087 120.522 201.087C121.453 200.954 121.996 200.65 122.753 200.098C123.367 199.178 123.483 198.623 123.687 197.553C124.128 195.722 124.819 194.562 126.269 193.36C128.797 191.853 132.118 192.145 134.978 192.147C135.305 192.146 135.631 192.145 135.968 192.143C136.671 192.141 137.375 192.14 138.078 192.139C139.191 192.137 140.304 192.132 141.418 192.127C144.58 192.111 147.743 192.097 150.906 192.093C152.845 192.09 154.785 192.081 156.724 192.069C157.462 192.065 158.2 192.064 158.938 192.064C159.967 192.065 160.997 192.059 162.026 192.05C162.331 192.052 162.635 192.054 162.949 192.056C164.236 192.04 165.012 192.029 166.13 191.354C167.007 190.381 167.285 190.019 167.285 188.673C162.456 188.652 157.627 188.636 152.799 188.627C150.556 188.622 148.314 188.616 146.072 188.606C144.116 188.597 142.16 188.592 140.204 188.59C139.17 188.589 138.136 188.586 137.101 188.58C135.943 188.572 134.785 188.572 133.626 188.573C133.288 188.57 132.95 188.566 132.602 188.563C129.391 188.575 126.539 189.082 123.925 191.016C123.672 191.179 123.418 191.343 123.156 191.511C121.448 193.174 120.65 195.258 119.824 197.462C115.473 197.462 111.123 197.462 106.64 197.462C106.392 195.972 106.35 195.261 106.598 193.846C106.659 193.49 106.72 193.133 106.783 192.765C106.851 192.388 106.918 192.01 106.988 191.621C107.057 191.228 107.125 190.836 107.193 190.444C107.297 189.847 107.401 189.251 107.507 188.655C107.73 187.398 107.94 186.14 108.141 184.879C108.19 184.572 108.24 184.264 108.292 183.948C108.385 183.375 108.476 182.803 108.564 182.23C108.607 181.974 108.649 181.719 108.693 181.456C108.746 181.126 108.746 181.126 108.8 180.789C109.024 180.043 109.345 179.583 109.863 179.005C111.512 178.401 112.969 179.037 114.55 179.59C115.236 179.024 115.236 179.024 115.264 178.016C115.239 176.933 115.239 176.933 114.514 176.276C111.316 174.4 108.52 175.044 106.185 177.765Z" fill="black"/>
<path d="M213.501 119.092C217.027 120.04 220.526 119.926 224.145 119.822C227.809 119.729 230.568 120.022 233.386 122.571C235.442 124.844 236.337 127.334 236.234 130.396C235.582 135.923 231.84 140.19 227.637 143.555C218.698 150.286 207.394 154.163 196.124 152.842C193.248 152.359 190.399 151.348 188.397 149.14C186.502 146.325 186.431 143.584 186.914 140.333C187.599 136.858 189.02 133.747 190.723 130.665C190.874 130.387 191.026 130.11 191.182 129.824C193.982 124.932 198.089 120.587 203.54 118.799C207.037 117.941 210.073 118.164 213.501 119.092ZM199.805 127.149C198.069 129.789 197.757 132.252 198.047 135.352C198.291 136.354 198.651 137.132 199.219 137.989C199.34 138.174 199.46 138.36 199.585 138.551C200.989 140.421 203.041 141.451 205.334 141.797C207.82 141.926 210.261 141.299 212.183 139.689C214.11 137.702 215.118 135.552 215.149 132.77C215.1 130.007 214.249 128.205 212.383 126.19C210.524 124.53 208.386 124.109 205.96 124.138C203.585 124.357 201.356 125.306 199.805 127.149Z" fill="black"/>
<path d="M209.271 128.247C210.736 129.474 211.468 130.52 211.816 132.422C211.87 134.09 211.562 135.364 210.5 136.668C209.38 137.788 208.302 138.343 206.708 138.428C205.065 138.341 203.769 137.804 202.566 136.678C201.442 135.315 201.182 133.869 201.27 132.129C201.558 130.432 202.333 129.411 203.687 128.377C205.522 127.127 207.331 127.222 209.271 128.247Z" fill="black"/>
<path d="M210.938 176.367C214.622 183.178 214.622 183.178 213.867 186.621C213.281 187.5 213.281 187.5 212.416 187.707C210.971 187.856 209.529 187.775 208.081 187.701C207.804 187.691 207.528 187.681 207.242 187.67C206.977 187.657 206.711 187.645 206.438 187.632C206.198 187.621 205.958 187.609 205.71 187.598C205.078 187.5 205.078 187.5 204.199 186.914C203.918 185.362 203.81 183.61 204.515 182.165C205.053 181.543 205.637 181.017 206.25 180.469C206.595 180.12 206.938 179.769 207.279 179.416C208.762 177.889 208.762 177.889 209.469 177.182C209.625 177.025 209.781 176.868 209.941 176.707C210.352 176.367 210.352 176.367 210.938 176.367Z" fill="black"/>
</svg>
