<svg width="300" height="300" viewBox="0 0 300 300" fill="none" xmlns="http://www.w3.org/2000/svg">
<path d="M189.551 102.54C189.785 102.666 190.019 102.792 190.261 102.922C191.311 103.489 192.358 104.059 193.403 104.636C195.559 105.827 197.741 106.963 199.933 108.088C202.757 109.54 205.537 111.053 208.294 112.63C210.157 113.696 212.038 114.717 213.941 115.709C215.49 116.52 216.994 117.39 218.489 118.297C219.103 118.7 219.103 118.7 219.727 118.653C220.175 118.187 220.175 118.187 220.642 117.591C221.991 116.021 223.333 114.594 225.439 114.203C226.683 114.152 227.549 114.45 228.544 115.194C230.301 116.863 230.913 119.565 231.5 121.839C231.616 122.264 231.616 122.264 231.735 122.698C232.121 124.149 232.384 125.499 232.471 127.002C232.787 129.316 234.88 130.737 236.507 132.234C237.684 133.356 238.656 134.655 239.648 135.938C239.882 136.232 240.116 136.526 240.357 136.83C246.74 144.912 251.066 154.028 254.807 163.565C255.299 164.816 255.807 166.058 256.326 167.298C261.742 180.256 261.742 180.256 261.584 183.967C261.328 184.571 261.328 184.571 260.802 184.903C259.235 185.519 257.542 184.952 256.055 184.315C253.403 182.882 251.833 180.097 250.287 177.603C248.252 174.774 245.652 172.383 243.167 169.954C240.939 167.772 238.878 165.504 237.022 162.99C236.4 162.276 235.937 161.964 235.085 161.571C234.82 161.446 234.556 161.322 234.284 161.194C233.858 161.001 233.858 161.001 233.423 160.804C233.127 160.668 232.832 160.532 232.528 160.392C231.902 160.103 231.276 159.816 230.649 159.53C229.687 159.083 228.74 158.613 227.792 158.136C227.179 157.835 226.566 157.534 225.952 157.233C225.67 157.087 225.388 156.941 225.098 156.791C222.964 155.767 221.679 155.837 219.434 156.446C218.814 156.587 218.193 156.722 217.572 156.857C216.661 157.057 215.751 157.266 214.842 157.475C214.134 157.638 213.427 157.799 212.719 157.959C212.268 158.062 211.817 158.166 211.367 158.269C211.155 158.317 210.944 158.365 210.727 158.414C209.631 158.662 209.631 158.662 208.594 159.083C207.876 162.175 207.756 165.493 207.463 168.651C207.385 169.482 207.305 170.313 207.224 171.143C206.773 175.879 206.82 180.471 207.163 185.212C207.221 186.023 207.273 186.834 207.325 187.645C207.362 188.167 207.399 188.689 207.437 189.211C207.451 189.451 207.466 189.69 207.481 189.937C207.652 192.15 208.177 193.727 209.887 195.25C210.134 195.48 210.381 195.71 210.635 195.947C211.153 196.419 211.674 196.886 212.199 197.35C213.514 198.587 214.309 199.425 214.497 201.265C214.525 202.59 214.525 202.59 214.16 203.321C213.18 203.59 212.251 203.65 211.238 203.647C210.957 203.647 210.675 203.647 210.385 203.647C210.085 203.646 209.785 203.644 209.476 203.642C209.166 203.642 208.856 203.642 208.537 203.641C207.549 203.64 206.561 203.636 205.573 203.632C204.902 203.631 204.231 203.629 203.56 203.628C201.918 203.625 200.275 203.62 198.633 203.614C198.447 202.922 198.261 202.23 198.075 201.538C197.997 201.248 197.997 201.248 197.918 200.952C197.591 199.732 197.293 198.508 197.003 197.278C196.451 195.469 195.484 194.357 194.24 192.988C192.739 191.307 192.176 189.624 191.682 187.439C190.87 184.001 189.371 181.001 187.777 177.862C187.5 177.247 187.5 177.247 187.5 176.661C187.307 176.661 187.113 176.661 186.914 176.661C186.994 177.175 186.994 177.175 187.075 177.7C187.272 178.97 187.469 180.24 187.665 181.51C187.75 182.06 187.835 182.61 187.921 183.161C188.043 183.95 188.165 184.74 188.287 185.53C188.326 185.777 188.364 186.024 188.404 186.278C188.672 188.02 188.672 188.02 188.672 188.672C187.891 188.282 187.109 187.891 186.328 187.501C187.488 190.546 187.488 190.546 188.672 193.653C188.479 193.75 188.285 193.846 188.086 193.946C187.409 193.462 186.732 192.979 186.035 192.481C186.725 194.904 187.575 197.25 188.468 199.605C188.62 200.016 188.62 200.016 188.776 200.435C188.869 200.68 188.961 200.925 189.057 201.178C189.258 201.856 189.258 201.856 189.258 203.028C187.32 203.611 185.561 203.691 183.545 203.671C183.23 203.67 182.914 203.669 182.589 203.669C181.59 203.665 180.59 203.658 179.59 203.65C178.909 203.647 178.228 203.645 177.547 203.642C175.884 203.636 174.221 203.626 172.559 203.614C171.24 200.977 171.24 200.977 169.922 198.34C169.747 198.576 169.571 198.812 169.391 199.054C168.75 199.805 168.75 199.805 167.871 200.098C167.871 198.261 167.871 196.424 167.871 194.532C166.856 195.112 166.856 195.112 165.82 195.704C165.862 195.044 165.905 194.385 165.948 193.726C165.972 193.359 165.996 192.992 166.021 192.614C166.091 191.841 166.184 191.168 166.406 190.43C166.177 190.624 165.947 190.817 165.71 191.016C164.941 191.602 164.941 191.602 164.355 191.602C164.398 191.323 164.44 191.044 164.484 190.756C164.538 190.389 164.592 190.021 164.648 189.643C164.703 189.279 164.757 188.916 164.813 188.541C164.918 187.688 164.968 186.892 164.941 186.036C164.821 186.163 164.701 186.289 164.577 186.42C164.341 186.665 164.341 186.665 164.099 186.915C163.943 187.078 163.786 187.241 163.625 187.409C163.184 187.794 163.184 187.794 162.598 187.794C162.694 186.053 162.791 184.313 162.891 182.52C162.407 182.81 161.924 183.1 161.426 183.399C161.232 183.399 161.039 183.399 160.84 183.399C161.001 181.411 161.292 179.488 161.719 177.54C161.574 177.645 161.429 177.751 161.28 177.86C161.093 177.996 160.905 178.132 160.712 178.272C160.525 178.408 160.338 178.544 160.145 178.684C159.668 179.004 159.668 179.004 159.375 179.004C159.409 178.418 159.446 177.832 159.485 177.247C159.505 176.92 159.526 176.594 159.547 176.258C159.682 175.076 159.944 174 160.254 172.852C160.08 172.818 159.905 172.785 159.726 172.75C154.407 171.718 149.127 170.551 143.848 169.336C143.812 169.708 143.777 170.08 143.74 170.464C143.612 171.789 143.476 173.114 143.338 174.438C143.274 175.077 143.218 175.717 143.164 176.357C142.942 178.572 142.393 180.47 141.614 182.538C140.705 184.986 140.404 186.93 140.625 189.551C140.615 190.032 140.603 190.512 140.588 190.992C140.529 193.67 140.529 193.67 141.713 195.963C142.752 196.786 143.857 197.397 145.037 197.991C146.291 198.624 146.79 199.333 147.272 200.648C147.403 201.541 147.381 202.42 147.363 203.321C144.869 203.54 142.395 203.663 139.891 203.673C139.561 203.675 139.231 203.677 138.892 203.678C138.202 203.681 137.512 203.683 136.823 203.684C135.766 203.687 134.709 203.696 133.653 203.705C132.98 203.707 132.306 203.709 131.633 203.71C131.318 203.714 131.003 203.717 130.678 203.721C130.385 203.72 130.093 203.719 129.791 203.718C129.535 203.719 129.278 203.72 129.014 203.721C128.161 203.589 127.766 203.332 127.148 202.735C126.943 201.987 126.811 201.327 126.714 200.565C126.683 200.354 126.652 200.143 126.62 199.925C126.523 199.251 126.433 198.576 126.343 197.901C126.278 197.447 126.213 196.992 126.147 196.538C125.684 193.284 125.684 193.284 125.684 192.188C125.542 192.294 125.401 192.4 125.256 192.508C125.071 192.644 124.885 192.78 124.695 192.92C124.511 193.056 124.328 193.192 124.139 193.332C123.633 193.653 123.633 193.653 123.047 193.653C123.043 193.487 123.039 193.322 123.034 193.151C122.99 191.426 122.937 189.701 122.877 187.976C122.856 187.332 122.838 186.688 122.822 186.045C122.799 185.119 122.766 184.193 122.732 183.267C122.724 182.837 122.724 182.837 122.716 182.397C122.655 180.653 122.655 180.653 121.712 179.251C121.475 179.073 121.239 178.895 120.996 178.711C120.933 178.872 120.869 179.033 120.804 179.198C118.475 185.096 118.475 185.096 117.188 187.794C117.018 187.703 116.849 187.612 116.675 187.519C116.06 187.228 115.503 187.068 114.844 186.915C114.555 187.897 114.269 188.88 113.983 189.863C113.902 190.139 113.82 190.415 113.737 190.7C112.84 193.216 112.84 193.216 113.079 195.73C113.238 195.909 113.398 196.087 113.562 196.271C113.747 196.488 113.933 196.705 114.124 196.928C114.361 197.201 114.599 197.474 114.844 197.754C115.349 198.371 115.85 198.991 116.351 199.612C117.114 200.558 117.883 201.5 118.652 202.442C118.359 203.028 118.359 203.028 117.827 203.211C115.719 203.634 113.678 203.699 111.532 203.692C111.168 203.692 110.804 203.693 110.43 203.693C109.666 203.694 108.902 203.693 108.138 203.69C107.356 203.688 106.575 203.688 105.793 203.69C104.66 203.694 103.527 203.693 102.395 203.692C102.045 203.693 101.695 203.694 101.334 203.695C101.009 203.693 100.685 203.692 100.35 203.69C100.065 203.689 99.7795 203.689 99.4856 203.688C98.7074 203.612 98.2257 203.425 97.5586 203.028C97.4505 199.946 97.6496 197.24 98.4375 194.239C97.8574 194.142 97.2773 194.045 96.6797 193.946C96.8478 190.297 97.3506 186.691 97.8388 183.074C97.9809 182.017 98.1191 180.96 98.2573 179.902C98.3472 179.229 98.4375 178.557 98.5279 177.884C98.5688 177.568 98.6097 177.252 98.6519 176.927C98.692 176.635 98.732 176.344 98.7733 176.043C98.8076 175.787 98.8418 175.53 98.8771 175.266C99.0234 174.61 99.0234 174.61 99.6094 173.731C100.093 173.924 100.576 174.118 101.074 174.317C101.011 173.892 101.011 173.892 100.946 173.459C100.635 171.278 100.42 169.201 100.488 166.993C99.6182 167.669 98.748 168.346 97.8516 169.043C97.0094 168.226 96.2157 167.394 95.4552 166.499C95.2996 166.317 95.1441 166.134 94.9838 165.946C94.8667 165.808 94.7496 165.67 94.6289 165.528C94.6231 165.745 94.6173 165.962 94.6113 166.186C94.5834 167.169 94.5513 168.152 94.519 169.135C94.51 169.477 94.5009 169.819 94.4916 170.171C94.4746 170.663 94.4746 170.663 94.4572 171.164C94.448 171.466 94.4388 171.769 94.4293 172.08C94.3359 172.852 94.3359 172.852 93.75 173.731C92.6773 172.056 91.6867 170.347 90.7288 168.604C90.5956 168.363 90.4625 168.122 90.3254 167.874C90.0015 167.288 89.6782 166.701 89.3555 166.114C89.3944 166.436 89.4333 166.758 89.4733 167.09C89.7616 169.496 90.0361 171.901 90.2344 174.317C88.8001 173.866 88.4867 173.448 87.3047 172.266C87.208 176.23 87.1113 180.194 87.0117 184.278C86.7217 184.278 86.4316 184.278 86.1328 184.278C85.7641 183.821 85.7641 183.821 85.4061 183.188C85.2768 182.964 85.1474 182.739 85.0142 182.507C84.8818 182.27 84.7494 182.032 84.613 181.788C84.4773 181.55 84.3415 181.313 84.2016 181.068C83.8658 180.479 83.5332 179.889 83.2031 179.297C83.0762 179.473 82.9493 179.648 82.8186 179.828C82.3903 180.384 81.952 180.866 81.4453 181.348C79.1016 177.698 79.1016 177.698 79.1016 176.368C78.9082 176.368 78.7148 176.368 78.5156 176.368C78.5081 176.575 78.5005 176.783 78.4927 176.997C78.3583 179.521 78.0295 181.999 77.655 184.498C77.6053 184.84 77.5555 185.181 77.5043 185.534C77.4547 185.855 77.4051 186.176 77.354 186.507C77.3099 186.797 77.2657 187.087 77.2202 187.386C77.0508 188.086 77.0508 188.086 76.4648 188.672C75.7712 187.601 75.3321 186.573 74.9451 185.358C74.8442 185.045 74.7434 184.732 74.6395 184.409C74.5651 184.173 74.4907 183.936 74.4141 183.692C74.2585 183.967 74.1029 184.242 73.9426 184.525C73.7337 184.882 73.5247 185.239 73.3154 185.596C73.2135 185.778 73.1115 185.96 73.0064 186.147C72.6974 186.667 72.6974 186.667 72.0703 187.501C71.6836 187.501 71.2969 187.501 70.8984 187.501C70.3354 186.86 70.3354 186.86 69.7998 186.036C69.62 185.764 69.4403 185.492 69.2551 185.212C69.0534 184.894 69.0534 184.894 68.8477 184.571C68.8314 184.832 68.8152 185.093 68.7985 185.363C68.7373 186.344 68.6756 187.325 68.6134 188.306C68.5868 188.729 68.5603 189.151 68.5342 189.574C68.3949 191.819 68.2457 194.056 67.9688 196.29C67.6787 196.29 67.3887 196.29 67.0898 196.29C66.6607 195.839 66.6607 195.839 66.2292 195.228C66.0771 195.015 65.9249 194.802 65.7681 194.583C65.3959 194.039 65.0319 193.491 64.6729 192.939C64.2341 192.166 64.2341 192.166 63.5742 191.895C63.4957 192.143 63.4171 192.391 63.3362 192.646C62.9743 193.693 62.5556 194.69 62.1094 195.704C61.8193 195.607 61.5293 195.51 61.2305 195.411C60.9524 194.536 60.9524 194.536 60.7361 193.433C60.6624 193.072 60.5888 192.711 60.5129 192.339C60.3785 191.481 60.3169 190.709 60.3516 189.844C60.1582 189.844 59.9648 189.844 59.7656 189.844C59.7158 190.018 59.6659 190.192 59.6146 190.371C59.0554 192.282 58.4147 194.151 57.7148 196.015C57.5642 196.432 57.5642 196.432 57.4104 196.857C57.3115 197.12 57.2125 197.383 57.1106 197.655C56.9786 198.011 56.9786 198.011 56.8439 198.375C56.543 198.926 56.543 198.926 55.6641 199.219C55.1807 198.156 54.6973 197.092 54.1992 195.997C53.6191 197.64 53.0391 199.284 52.4414 200.977C51.0428 200.627 50.5706 200.158 49.5117 199.219C49.4094 199.385 49.307 199.551 49.2016 199.722C49.0683 199.937 48.935 200.151 48.7976 200.373C48.6651 200.587 48.5325 200.801 48.3959 201.022C48.0469 201.563 48.0469 201.563 47.7539 201.856C47.1144 201.925 46.473 201.977 45.8313 202.021C45.305 202.058 45.305 202.058 44.7681 202.095C44.4966 202.113 44.2251 202.131 43.9453 202.149C43.4835 201.225 43.8866 200.365 44.1284 199.405C44.1818 199.187 44.2351 198.97 44.2901 198.746C44.4654 198.036 44.6444 197.328 44.8242 196.619C44.8849 196.379 44.9455 196.138 45.008 195.89C45.9313 192.241 46.9192 188.649 48.3398 185.157C48.468 184.84 48.468 184.84 48.5988 184.517C52.7583 174.4 58.7551 165.138 65.332 156.446C65.4783 156.252 65.6245 156.059 65.7752 155.859C67.4141 153.703 69.1305 151.657 70.9854 149.682C71.5753 149.047 72.1435 148.405 72.7077 147.747C74.0319 146.227 75.4581 144.812 76.886 143.39C77.2828 142.992 77.2828 142.992 77.6876 142.585C79.0228 141.252 80.373 139.958 81.8052 138.729C82.5646 138.075 83.2935 137.39 84.0271 136.707C87.4397 133.564 91.1375 130.374 95.3396 128.331C95.9007 128.03 95.9007 128.03 96.0938 127.149C96.114 126.545 96.1186 125.94 96.1121 125.336C96.1094 125.018 96.1068 124.699 96.104 124.371C96.1007 124.128 96.0973 123.884 96.0938 123.633C93.894 125.285 91.7563 126.986 89.679 128.79C88.6299 129.7 87.5653 130.584 86.4807 131.452C85.2445 132.454 84.116 133.518 83.0166 134.668C82.4468 135.231 81.869 135.75 81.2618 136.271C79.9698 137.397 78.75 138.586 77.5372 139.797C77.3126 140.021 77.0881 140.244 76.8568 140.474C76.3849 140.945 75.9135 141.416 75.4424 141.887C74.7298 142.599 74.015 143.308 73.3 144.018C70.9967 146.313 68.7877 148.598 66.7969 151.172C66.5444 151.474 66.29 151.774 66.0324 152.071C59.3877 159.819 53.5048 168.861 49.2188 178.126C49.0957 178.389 48.9727 178.653 48.846 178.925C46.0819 184.893 43.8642 190.901 42.5287 197.353C42.0603 199.505 41.4393 201.374 39.6423 202.753C39.307 202.889 39.307 202.889 38.9648 203.028C38.7715 202.931 38.5781 202.835 38.3789 202.735C40.3602 189.743 44.9674 178.326 51.5625 166.993C51.724 166.712 51.8855 166.432 52.0519 166.144C55.77 159.693 59.9569 153.655 64.7461 147.95C64.9979 147.647 65.2497 147.343 65.5014 147.04C68.7607 143.132 72.2747 139.494 75.8766 135.902C76.5422 135.238 77.2063 134.572 77.8702 133.907C78.3004 133.477 78.7307 133.047 79.1611 132.617C79.3558 132.422 79.5506 132.226 79.7512 132.025C81.0501 130.732 82.3973 129.512 83.7891 128.321C83.9638 128.17 84.1385 128.02 84.3186 127.865C84.7882 127.46 85.2589 127.057 85.73 126.655C86.7968 125.743 87.8631 124.83 88.9229 123.91C91.1004 122.024 93.3209 120.208 95.6014 118.447C96.0694 118.086 96.536 117.722 97.0024 117.359C101.741 113.681 106.59 110.201 111.621 106.934C111.968 106.709 111.968 106.709 112.321 106.479C115.14 104.654 118.006 102.917 120.905 101.221C121.199 101.049 121.493 100.877 121.796 100.699C122.353 100.376 122.913 100.055 123.474 99.7386C123.915 99.4887 124.354 99.2329 124.784 98.9645C126.731 97.832 128.982 97.6818 131.177 97.3943C131.511 97.3488 131.511 97.3488 131.852 97.3024C149.816 94.8603 173.033 93.5859 189.551 102.54ZM133.447 101.606C133.142 101.647 132.837 101.688 132.522 101.731C128.142 102.4 124.244 104.14 120.3 106.074C120.075 106.183 119.851 106.292 119.619 106.405C116.237 108.059 113.082 109.818 110.156 112.208C109.871 112.431 109.586 112.655 109.292 112.885C108.493 113.524 107.712 114.18 106.934 114.844C106.585 115.138 106.236 115.433 105.888 115.727C105.522 116.037 105.157 116.347 104.791 116.657C104.623 116.8 104.454 116.943 104.281 117.09C103.953 117.37 103.629 117.656 103.309 117.946C102.832 118.36 102.832 118.36 102.328 118.696C101.418 119.381 101.114 119.898 100.909 121.032C100.83 122.262 100.815 123.481 100.818 124.714C100.813 125.181 100.807 125.648 100.8 126.116C100.785 127.431 100.782 128.747 100.782 130.063C100.781 131.018 100.778 131.974 100.775 132.93C100.761 137.253 100.764 141.576 100.781 145.899C102.208 145.444 103.458 144.846 104.755 144.105C105.226 143.839 105.698 143.573 106.169 143.308C106.43 143.161 106.69 143.014 106.958 142.863C108.408 142.049 109.864 141.248 111.32 140.447C111.864 140.147 112.408 139.847 112.952 139.546C114.626 138.623 116.301 137.7 117.976 136.779C118.885 136.279 119.794 135.779 120.703 135.279C120.879 135.182 121.055 135.085 121.237 134.985C123.883 133.528 126.513 132.047 129.125 130.53C129.356 130.396 129.586 130.263 129.824 130.126C130.023 130.01 130.222 129.894 130.427 129.774C130.957 129.493 130.957 129.493 131.836 129.2C131.895 129.445 131.895 129.445 131.955 129.695C132.644 132.381 133.578 134.979 134.501 137.592C134.785 138.396 135.068 139.2 135.35 140.004C135.531 140.519 135.712 141.033 135.893 141.548C135.977 141.787 136.061 142.025 136.147 142.271C136.302 142.709 136.459 143.145 136.619 143.581C136.816 144.141 136.816 144.141 137.039 144.981C138.104 146.813 141.684 147.175 143.586 147.724C143.987 147.841 144.389 147.958 144.79 148.075C145.628 148.319 146.466 148.562 147.304 148.804C148.377 149.115 149.45 149.428 150.522 149.741C151.35 149.983 152.177 150.223 153.005 150.463C153.401 150.578 153.797 150.693 154.192 150.809C154.744 150.97 155.297 151.129 155.849 151.288C156.163 151.379 156.477 151.47 156.8 151.564C157.667 151.804 157.667 151.804 158.789 151.758C159.97 145.022 161.148 138.284 162.305 131.543C163.939 133.009 165.568 134.48 167.175 135.975C168.373 137.084 169.579 138.178 170.813 139.247C171.5 139.845 172.176 140.455 172.852 141.065C173.712 141.842 174.576 142.613 175.452 143.372C176.599 144.371 177.719 145.4 178.839 146.43C179.768 147.284 180.701 148.132 181.641 148.975C182.734 149.956 183.819 150.947 184.9 151.941C186.081 153.028 187.273 154.099 188.49 155.146C188.965 155.567 188.965 155.567 189.431 156.061C189.821 156.512 189.821 156.512 190.43 156.446C191.006 154.102 191.347 151.729 191.686 149.342C191.785 148.645 191.886 147.948 191.988 147.252C192.053 146.803 192.117 146.354 192.181 145.906C192.211 145.7 192.241 145.495 192.272 145.283C192.648 143.037 192.648 143.037 192.191 140.871C192.056 140.695 191.921 140.518 191.781 140.336C191.629 140.132 191.477 139.928 191.32 139.718C191.153 139.504 190.986 139.29 190.814 139.069C190.462 138.6 190.109 138.131 189.757 137.662C189.576 137.424 189.395 137.186 189.208 136.941C188.381 135.846 187.585 134.729 186.786 133.613C184.969 131.092 183.126 128.591 181.279 126.092C180.593 125.163 179.908 124.233 179.223 123.303C178.881 122.839 178.539 122.375 178.197 121.911C177.348 120.76 176.501 119.608 175.655 118.454C173.597 115.647 171.51 112.866 169.381 110.113C169.098 109.746 169.098 109.746 168.81 109.371C168.559 109.046 168.559 109.046 168.303 108.715C167.895 108.14 167.581 107.573 167.285 106.934C167.519 106.761 167.752 106.587 167.992 106.409C170.328 104.686 170.328 104.686 172.559 102.833C172.559 102.736 172.559 102.639 172.559 102.54C168.47 101.824 164.392 101.133 160.254 100.782C160.055 100.765 159.855 100.748 159.65 100.73C150.954 100.037 142.078 100.394 133.447 101.606ZM178.487 104.316C178.226 104.501 177.965 104.686 177.697 104.876C177.427 105.072 177.158 105.268 176.88 105.469C176.606 105.665 176.332 105.861 176.049 106.062C175.372 106.546 174.697 107.032 174.023 107.52C175.18 109.345 176.345 111.164 177.521 112.977C178.902 115.108 180.273 117.246 181.641 119.385C183.616 122.474 185.601 125.556 187.599 128.631C188.855 130.564 190.108 132.498 191.342 134.446C191.494 134.686 191.647 134.927 191.804 135.174C192.107 135.657 192.407 136.14 192.705 136.625C193.313 137.61 193.896 138.518 194.654 139.395C195.77 140.715 196.059 141.681 195.943 143.39C195.78 144.93 195.533 146.453 195.264 147.978C195.063 149.142 194.912 150.311 194.769 151.484C194.7 152.005 194.7 152.005 194.629 152.538C194.528 153.554 194.514 154.546 194.531 155.567C195.846 155.163 197.022 154.63 198.248 154.011C203.379 151.558 209.174 150.828 214.746 150.001C215.14 149.941 215.14 149.941 215.542 149.881C219.188 149.366 219.188 149.366 220.752 150.385C221.193 150.743 221.632 151.103 222.07 151.465C222.748 151.93 223.427 152.381 224.121 152.82C224.315 152.943 224.508 153.066 224.708 153.192C227.411 154.856 230.311 156.146 233.184 157.484C234.424 158.073 235.647 158.692 236.869 159.315C237.608 159.693 237.608 159.693 238.477 159.961C238.676 160.448 238.871 160.937 239.062 161.426C239.604 162.115 239.604 162.115 240.253 162.781C241.223 163.827 242.145 164.89 243.036 166.004C244.005 167.202 245.022 168.297 246.126 169.371C246.849 170.091 247.511 170.856 248.175 171.631C248.571 172.083 248.975 172.527 249.386 172.965C251.044 174.735 252.514 176.57 253.92 178.544C255.405 180.649 255.405 180.649 257.618 181.784C257.815 181.767 258.012 181.75 258.215 181.733C258.566 181.703 258.916 181.672 259.277 181.641C258.256 176.009 255.983 170.856 253.601 165.683C253.125 164.65 252.655 163.614 252.185 162.579C247.725 152.797 242.715 143.733 235.662 135.578C235.254 135.105 234.849 134.629 234.452 134.147C233.535 133.033 232.535 132.098 231.434 131.166C230.883 130.686 230.377 130.184 229.871 129.658C229.211 128.839 229.211 128.839 228.516 128.907C228.502 128.718 228.489 128.53 228.476 128.336C228.32 122.32 228.32 122.32 226.758 116.602C224.998 116.639 224.163 117.208 222.861 118.364C222.279 119.044 222.015 119.546 221.777 120.411C222.016 121.17 222.016 121.17 222.489 121.9C222.65 122.172 222.81 122.445 222.976 122.726C223.148 123.008 223.321 123.289 223.499 123.578C223.669 123.865 223.839 124.152 224.015 124.448C224.436 125.156 224.862 125.861 225.293 126.563C224.99 126.342 224.686 126.122 224.374 125.895C216.945 120.597 208.6 116.659 200.478 112.549C199.836 112.223 199.194 111.897 198.552 111.571C193.237 108.874 187.899 106.211 182.396 103.916C182.166 103.82 181.936 103.724 181.699 103.625C180.298 103.176 179.612 103.508 178.487 104.316Z" fill="black"/>
<path d="M237.89 148.242C238.861 148.884 239.784 149.506 240.146 150.644C240.189 150.905 240.189 150.905 240.234 151.171C239.269 152.184 238.428 153.051 236.974 153.131C235.839 152.929 235.839 152.929 234.96 152.325C234.226 151.247 234.165 150.694 234.374 149.414C235.458 148.041 236.207 147.765 237.89 148.242ZM236.718 149.707C236.718 149.997 236.718 150.287 236.718 150.586C237.008 150.489 237.298 150.392 237.597 150.293C237.5 150.099 237.404 149.906 237.304 149.707C237.111 149.707 236.917 149.707 236.718 149.707Z" fill="black"/>
<path d="M50.9766 196.875C51.8467 196.875 52.7168 196.875 53.6133 196.875C53.4283 198.355 52.9879 199.598 52.4414 200.977C51.1164 200.717 50.4805 200.144 49.5117 199.219C49.5117 198.34 49.5117 198.34 49.8047 197.754C50.0947 197.657 50.3848 197.561 50.6836 197.461C50.7803 197.268 50.877 197.074 50.9766 196.875Z" fill="black"/>
<path d="M233.203 129.199C234.633 130.354 235.857 131.578 237.012 133.008C236.625 133.008 236.238 133.008 235.84 133.008C235.743 133.201 235.646 133.395 235.547 133.594C235.354 133.594 235.16 133.594 234.961 133.594C234.864 133.884 234.768 134.174 234.668 134.473C234.168 134.097 233.68 133.706 233.203 133.301C233.203 133.107 233.203 132.914 233.203 132.715C232.913 132.618 232.623 132.521 232.324 132.422C232.499 132.392 232.675 132.361 232.855 132.33C233.579 132.103 233.884 131.815 234.375 131.25C234.085 131.153 233.795 131.057 233.496 130.957C233.399 130.377 233.303 129.797 233.203 129.199Z" fill="black"/>
</svg>
