<svg width="300" height="300" viewBox="0 0 300 300" fill="none" xmlns="http://www.w3.org/2000/svg">
<path d="M197.754 99.9031C198.071 100.029 198.071 100.029 198.395 100.157C212.204 105.731 222.612 116.642 229.688 129.493C229.826 129.743 229.963 129.993 230.105 130.251C237.532 143.95 241.237 159.595 245.624 174.447C246.822 178.503 248.035 182.555 249.262 186.604C249.38 186.994 249.38 186.994 249.501 187.392C249.716 188.102 249.931 188.813 250.147 189.523C250.208 189.725 250.269 189.927 250.332 190.135C250.571 190.921 250.815 191.703 251.075 192.481C251.243 194.606 251.243 194.606 250.525 195.539C248.726 196.862 246.268 196.153 244.173 195.842C236.829 194.483 229.733 191.686 223.536 187.501C223.54 187.793 223.545 188.085 223.55 188.386C223.566 189.487 223.576 190.588 223.584 191.689C223.588 192.162 223.594 192.635 223.602 193.109C223.715 200.237 223.715 200.237 221.851 202.314C217.208 205.623 207.247 204.515 202.106 203.774C200.25 203.378 199.27 202.707 198.09 201.223C197.754 200.684 197.754 200.684 197.754 200.098C197.419 200.146 197.084 200.193 196.739 200.241C195.457 200.401 194.194 200.443 192.903 200.451C192.672 200.453 192.441 200.454 192.203 200.456C191.718 200.459 191.233 200.461 190.747 200.462C190.012 200.465 189.277 200.474 188.541 200.483C183.277 200.519 183.277 200.519 181.259 199.007C177.232 194.138 178.368 186.333 178.418 180.47C175.131 180.47 171.844 180.47 168.457 180.47C168.361 181.726 168.264 182.983 168.164 184.278C168.027 185.344 167.882 186.403 167.718 187.464C167.654 187.891 167.654 187.891 167.588 188.327C167.497 188.923 167.406 189.518 167.314 190.114C167.176 191.014 167.041 191.915 166.906 192.815C165.609 201.373 165.609 201.373 164.063 203.028C159.278 205.421 151.821 204.51 146.65 203.962C146.344 203.931 146.344 203.931 146.032 203.9C144.752 203.739 143.739 203.472 142.676 202.735C141.506 201.051 141.22 199.2 140.962 197.208C140.919 196.905 140.877 196.602 140.833 196.29C140.699 195.326 140.571 194.361 140.442 193.397C140.354 192.76 140.266 192.124 140.177 191.488C139.791 188.702 139.432 185.917 139.141 183.12C138.952 181.329 138.686 179.603 138.19 177.869C138.126 177.639 138.063 177.408 137.997 177.17C136.547 172.069 134.124 167.326 129.534 164.402C128.853 164.034 128.161 163.762 127.442 163.477C127.155 163.332 126.868 163.187 126.572 163.038C117.452 158.525 104.583 159.917 95.2152 162.891C94.9909 162.962 94.7665 163.033 94.5353 163.106C85.0035 166.198 76.8313 172.204 69.949 179.398C69.434 179.884 69.434 179.884 68.8481 179.884C68.8481 180.077 68.8481 180.27 68.8481 180.47C68.4384 180.883 68.4384 180.883 67.8593 181.367C67.168 181.949 66.4922 182.532 65.8405 183.159C62.9628 185.913 59.4398 188.259 55.3372 188.181C53.3912 187.964 51.4708 187.156 50.0981 185.743C48.7638 183.89 48.4695 182.175 48.7316 179.913C50.1504 172.599 54.9211 165.538 58.8871 159.376C59.0166 159.174 59.1461 158.973 59.2795 158.765C63.1047 152.846 67.363 147.248 71.9889 141.935C72.2997 141.578 72.6089 141.219 72.9176 140.86C76.545 136.661 80.3732 132.434 84.6684 128.907C84.824 128.777 84.9796 128.646 85.1399 128.512C99.3631 116.602 99.3631 116.602 102.832 116.602C102.837 116.339 102.841 116.075 102.845 115.804C103.061 109.985 104.168 103.632 108.351 99.2874C111.211 96.7781 114.161 95.9196 117.913 96.0133C120.344 96.2046 122.035 97.1736 123.633 99.0242C124.915 100.909 125.564 102.942 126.069 105.14C126.115 105.343 126.162 105.547 126.21 105.756C126.927 109.223 126.92 112.82 126.947 116.346C126.956 116.723 126.964 117.1 126.973 117.488C126.976 117.849 126.978 118.21 126.981 118.582C126.987 119.068 126.987 119.068 126.994 119.563C126.823 120.615 126.534 120.956 125.684 121.583C124.38 121.728 123.672 121.731 122.48 121.198C121.875 120.704 121.875 120.704 121.582 119.825C121.545 119.193 121.523 118.56 121.51 117.928C121.501 117.546 121.492 117.164 121.482 116.771C121.478 116.57 121.473 116.368 121.469 116.161C121.72 108.686 121.72 108.686 119.165 102.082C117.658 101.294 116.462 101.268 114.844 101.698C112.883 102.367 111.564 103.128 110.541 104.975C108.865 108.751 108.477 112.669 108.194 116.75C108.151 117.264 108.151 117.264 108.107 117.788C108.074 118.249 108.074 118.249 108.041 118.72C107.688 119.977 106.846 120.398 105.777 121.055C105.595 121.151 105.414 121.247 105.227 121.346C105.019 121.458 104.811 121.569 104.598 121.685C104.378 121.802 104.158 121.919 103.931 122.041C93.7569 127.599 83.8746 135.438 76.7262 144.613C76.1443 145.349 75.5265 146.034 74.8905 146.723C68.9275 153.295 63.8379 160.973 59.531 168.707C59.2051 169.292 58.8742 169.873 58.5426 170.455C57.3915 172.506 56.4254 174.611 55.5363 176.789C55.3858 177.153 55.3858 177.153 55.2322 177.525C54.6466 179.005 54.2686 180.338 54.1996 181.934C54.8741 182.609 55.038 182.627 55.9574 182.667C59.1198 182.576 61.422 179.862 63.5746 177.833C63.9755 177.483 64.3782 177.135 64.7831 176.789C65.878 175.839 66.8879 174.817 67.9062 173.786C68.6734 173.028 69.4729 172.321 70.2923 171.621C70.7158 171.253 71.1319 170.877 71.542 170.495C74.714 167.543 78.2654 165.03 82.0316 162.891C82.2355 162.775 82.4393 162.66 82.6493 162.54C86.0427 160.633 89.4699 159.13 93.1645 157.911C93.3673 157.842 93.5702 157.773 93.7791 157.702C98.6175 156.071 103.881 155.12 108.985 154.981C109.194 154.975 109.404 154.969 109.62 154.963C119.282 154.724 129.162 156.145 136.436 163.062C142.331 169.258 143.898 177.55 145.02 185.743C145.084 186.204 145.148 186.666 145.211 187.127C145.42 188.637 145.623 190.147 145.826 191.657C145.859 191.904 145.892 192.15 145.926 192.404C146.021 193.111 146.113 193.819 146.206 194.526C146.234 194.737 146.262 194.949 146.291 195.166C146.443 196.346 146.485 197.433 146.485 198.634C151.125 198.634 155.766 198.634 160.547 198.634C160.855 196.464 161.164 194.295 161.481 192.06C161.716 190.416 161.952 188.771 162.189 187.127C162.402 185.644 162.615 184.161 162.825 182.678C162.986 181.54 163.149 180.404 163.315 179.267C163.374 178.863 163.431 178.46 163.488 178.056C163.565 177.501 163.647 176.946 163.729 176.392C163.772 176.088 163.816 175.783 163.861 175.469C164.196 174.043 164.589 173.088 165.821 172.266C166.928 172.122 167.437 172.181 168.402 172.761C169.117 173.517 169.182 173.903 169.336 174.903C169.636 174.9 169.935 174.897 170.244 174.894C176.204 174.839 182.15 174.882 188.105 175.159C188.499 175.177 188.499 175.177 188.902 175.194C189.653 175.228 190.404 175.265 191.154 175.304C191.373 175.313 191.592 175.323 191.818 175.333C193.874 175.449 196.018 175.648 197.461 177.247C198.576 179.325 199.278 181.458 199.805 183.747C199.877 184.053 199.95 184.359 200.024 184.675C200.896 188.509 201.452 192.401 202.009 196.291C202.121 196.992 202.264 197.655 202.442 198.341C204.282 198.348 206.122 198.353 207.962 198.357C208.587 198.358 209.213 198.36 209.838 198.363C210.739 198.366 211.64 198.368 212.541 198.369C212.958 198.371 212.958 198.371 213.383 198.374C214.847 198.374 216.233 198.298 217.676 198.048C218.013 196.164 218.014 194.308 218.021 192.398C218.027 191.691 218.035 190.985 218.042 190.279C218.052 189.171 218.061 188.063 218.065 186.956C218.069 185.883 218.081 184.81 218.094 183.737C218.093 183.406 218.093 183.076 218.092 182.735C218.12 180.926 218.196 179.783 219.434 178.419C220.301 177.985 220.812 177.998 221.778 178.126C222.91 178.838 223.765 179.788 224.579 180.836C229.23 186.395 237.844 188.924 244.629 190.43C244.542 190.142 244.542 190.142 244.452 189.847C243.032 185.154 241.643 180.454 240.276 175.746C229.83 136.458 229.83 136.458 202.442 108.106C188.486 100.458 171.104 99.2766 155.847 103.478C148.843 105.527 142.538 108.609 136.324 112.382C136.1 112.518 135.876 112.654 135.645 112.794C135.272 113.033 135.272 113.033 134.892 113.276C133.901 113.828 133.244 113.835 132.129 113.673C131.292 112.942 131.01 112.448 130.774 111.366C131.073 109.872 132.084 108.877 133.283 107.969C133.908 107.562 134.542 107.18 135.187 106.806C135.537 106.599 135.537 106.599 135.895 106.387C136.59 105.979 137.289 105.577 137.989 105.177C138.173 105.069 138.358 104.961 138.549 104.85C146.996 99.9515 156.712 97.043 166.407 96.0945C166.907 96.0452 166.907 96.0452 167.417 95.9949C177.742 95.1509 188.085 96.0614 197.754 99.9031ZM183.692 180.47C183.484 187.849 183.484 187.849 184.571 195.118C186.145 195.125 187.72 195.13 189.295 195.134C189.831 195.136 190.367 195.138 190.903 195.14C191.672 195.144 192.442 195.145 193.211 195.147C193.451 195.148 193.692 195.15 193.94 195.151C195.153 195.183 195.153 195.183 196.289 194.825C196.123 192.476 195.708 190.183 195.256 187.874C195.135 187.259 195.018 186.643 194.901 186.027C194.824 185.632 194.747 185.236 194.67 184.84C194.601 184.486 194.533 184.132 194.462 183.767C194.259 182.901 194.06 182.14 193.653 181.348C192.642 181.012 191.766 180.964 190.701 180.899C190.501 180.886 190.301 180.873 190.094 180.861C189.455 180.821 188.817 180.782 188.178 180.744C187.744 180.717 187.311 180.69 186.877 180.663C185.816 180.598 184.754 180.533 183.692 180.47Z" fill="black"/>
<path d="M106.933 136.817C108.034 137.73 108.609 138.378 108.761 139.826C108.81 141.514 108.72 142.553 107.519 143.849C106.24 144.701 105.235 144.918 103.711 144.727C102.591 144.125 101.673 143.519 101.074 142.384C100.669 140.621 100.718 139.6 101.66 137.989C103.265 136.254 104.734 135.923 106.933 136.817Z" fill="black"/>
<path d="M116.894 105.761C117.462 106.256 117.462 106.256 117.773 106.933C117.642 108.125 117.331 109.137 116.894 110.247C116.276 112.007 116.16 113.644 116.163 115.492C116.146 116.504 116.092 117.082 115.485 117.91C114.549 118.565 113.905 118.521 112.793 118.359C111.972 117.628 111.91 117.157 111.787 116.053C111.78 115.607 111.78 115.161 111.785 114.715C111.787 114.481 111.789 114.247 111.792 114.005C111.871 111.042 112.628 108.09 114.55 105.761C115.419 105.327 115.972 105.517 116.894 105.761Z" fill="black"/>
</svg>
