<svg width="300" height="300" viewBox="0 0 300 300" fill="none" xmlns="http://www.w3.org/2000/svg">
<path d="M126.563 48.3398C142.031 48.3398 157.5 48.3398 173.438 48.3398C174.448 54.0651 174.448 54.0651 174.739 56.1391C174.773 56.3795 174.808 56.6198 174.843 56.8674C174.954 57.6388 175.063 58.4104 175.171 59.182C175.249 59.7283 175.327 60.2746 175.404 60.8208C175.565 61.9547 175.725 63.0887 175.885 64.2228C176.089 65.6727 176.296 67.1222 176.503 68.5717C176.663 69.695 176.821 70.8185 176.98 71.9421C177.055 72.4769 177.131 73.0116 177.208 73.5462C177.314 74.2916 177.419 75.0372 177.523 75.7829C177.555 76.0006 177.586 76.2182 177.619 76.4425C177.92 78.6229 177.986 80.2108 177.017 82.2109C176.889 82.4804 176.889 82.4804 176.758 82.7554C176.485 83.3276 176.207 83.8971 175.928 84.4666C175.57 85.2094 175.213 85.9533 174.857 86.697C174.767 86.8829 174.677 87.0687 174.585 87.2602C173.465 89.5942 172.427 91.9655 171.387 94.3359C172.529 95.5142 173.676 96.6876 174.827 97.8568C175.218 98.2554 175.608 98.6552 175.997 99.0564C176.555 99.6322 177.117 100.203 177.681 100.773C177.854 100.954 178.028 101.135 178.207 101.322C178.747 101.88 178.747 101.88 179.59 102.539C180.724 102.398 181.574 101.801 182.537 101.21C182.708 101.106 182.88 101.001 183.056 100.894C183.605 100.558 184.152 100.221 184.699 99.884C185.056 99.6651 185.414 99.4463 185.772 99.2277C186.484 98.7921 187.195 98.3551 187.906 97.9171C188.614 97.481 189.323 97.0476 190.034 96.6165C190.205 96.5121 190.377 96.4078 190.553 96.3003C191.022 96.0151 191.491 95.7306 191.96 95.4462C192.771 94.9452 192.771 94.9452 193.45 94.3672C195.1 93.0995 196.305 93.1094 198.279 93.3643C198.806 93.4251 199.333 93.4858 199.859 93.5466C200.137 93.5801 200.414 93.6137 200.7 93.6483C201.573 93.7512 202.446 93.8436 203.321 93.9328C204.843 94.0884 206.364 94.2572 207.884 94.4326C208.51 94.5031 209.136 94.5703 209.762 94.6343C210.685 94.7291 211.605 94.8352 212.526 94.9436C212.803 94.9696 213.08 94.9957 213.366 95.0225C214.733 95.1951 215.661 95.4213 216.679 96.3759C216.982 96.6538 216.982 96.6538 217.292 96.9373C217.515 97.1423 217.739 97.3474 217.969 97.5586C218.488 98.0089 219.008 98.4576 219.53 98.9049C224.782 103.442 229.916 108.1 234.961 112.866C235.16 113.054 235.358 113.241 235.563 113.434C253.447 130.321 253.447 130.321 254.013 141.309C254.051 143.114 253.944 144.89 253.766 146.686C253.737 146.976 253.709 147.266 253.679 147.565C253.302 151.091 252.644 154.503 251.66 157.91C249.309 157.752 246.966 157.575 244.624 157.309C244.365 157.281 244.105 157.252 243.837 157.223C242.414 157.065 240.992 156.899 239.571 156.724C236.911 156.402 234.298 156.113 231.617 156.115C226.457 156.049 223.661 154.873 219.996 151.126C218.693 149.751 217.444 148.332 216.211 146.894C215.366 145.918 214.46 145.066 213.463 144.246C212.72 143.622 212.093 142.906 211.45 142.181C210.28 140.879 209.08 139.613 207.843 138.373C207.693 138.221 207.543 138.07 207.388 137.914C206.601 137.119 206.601 137.119 205.664 136.523C205.663 136.921 205.663 136.921 205.662 137.326C205.645 143.766 205.623 150.207 205.595 156.647C205.582 159.761 205.57 162.875 205.563 165.99C205.556 168.704 205.546 171.417 205.533 174.131C205.526 175.569 205.52 177.006 205.518 178.444C205.517 179.796 205.511 181.148 205.502 182.5C205.499 182.997 205.498 183.494 205.499 183.992C205.499 184.669 205.494 185.346 205.488 186.023C205.486 186.592 205.486 186.592 205.484 187.173C205.371 188.086 205.371 188.086 204.924 188.654C204.711 188.808 204.711 188.808 204.492 188.965C206.658 192.25 208.871 195.498 211.136 198.715C211.284 198.932 211.433 199.148 211.586 199.371C212.09 200.095 212.09 200.095 212.645 200.705C214.485 202.915 214.44 205.088 214.393 207.824C214.393 208.304 214.393 208.783 214.394 209.263C214.395 210.557 214.383 211.851 214.368 213.145C214.355 214.5 214.354 215.855 214.352 217.21C214.345 219.773 214.329 222.336 214.308 224.899C214.285 227.818 214.274 230.737 214.263 233.656C214.242 239.657 214.206 245.659 214.16 251.66C209.391 251.667 204.621 251.672 199.851 251.675C197.637 251.677 195.422 251.679 193.208 251.682C191.278 251.685 189.349 251.687 187.419 251.688C186.397 251.688 185.375 251.689 184.352 251.691C183.213 251.693 182.074 251.694 180.934 251.693C180.593 251.694 180.251 251.696 179.9 251.697C179.591 251.696 179.283 251.696 178.965 251.695C178.695 251.696 178.425 251.696 178.147 251.696C177.539 251.66 177.539 251.66 177.246 251.367C177.227 250.591 177.226 249.823 177.237 249.047C177.242 248.542 177.247 248.037 177.251 247.531C177.254 247.261 177.257 246.991 177.26 246.713C177.275 244.973 177.273 243.233 177.275 241.493C177.277 239.97 177.285 238.448 177.305 236.925C177.583 227.237 177.583 227.237 173.731 218.555C173.107 218.492 173.107 218.492 172.627 218.991C171.793 219.555 171.285 219.524 170.288 219.489C169.855 219.477 169.855 219.477 169.414 219.464C169.195 219.454 168.976 219.444 168.75 219.434C168.669 219.692 168.588 219.95 168.505 220.216C168.193 221.109 167.835 221.902 167.397 222.739C167.246 223.03 167.094 223.321 166.938 223.622C166.774 223.931 166.611 224.241 166.443 224.561C166.187 225.05 166.187 225.05 165.925 225.549C164.722 227.84 163.492 230.115 162.247 232.383C161.152 234.379 160.078 236.385 159.013 238.396C158.585 239.204 158.155 240.01 157.723 240.816C156.718 242.691 155.737 244.57 154.818 246.489C154.656 246.816 154.494 247.144 154.327 247.481C154.027 248.088 153.738 248.7 153.461 249.318C153.049 250.137 152.72 250.739 152.051 251.367C150.863 251.692 149.761 251.729 148.535 251.66C147.178 249.458 145.939 247.206 144.727 244.922C144.534 244.561 144.342 244.2 144.149 243.838C143.852 243.283 143.556 242.727 143.26 242.171C142.277 240.326 141.287 238.486 140.296 236.646C140.128 236.333 139.96 236.021 139.787 235.7C138.957 234.161 138.126 232.623 137.291 231.087C137.131 230.791 136.97 230.494 136.804 230.189C136.486 229.604 136.167 229.021 135.847 228.439C135.062 227.004 134.314 225.564 133.621 224.082C133.484 223.796 133.346 223.51 133.204 223.215C132.947 222.675 132.698 222.131 132.46 221.582C132.109 220.858 131.814 220.301 131.25 219.727C130.495 219.51 129.862 219.467 129.078 219.49C128.094 219.417 127.417 219.03 126.563 218.555C121.786 224.624 122.588 231.563 122.681 238.898C122.705 243.109 122.729 247.321 122.754 251.66C110.572 251.66 98.3908 251.66 85.84 251.66C85.6983 239.58 85.6983 239.58 85.6683 234.497C85.6475 230.995 85.6231 227.493 85.5748 223.991C85.5396 221.44 85.517 218.889 85.5092 216.338C85.5046 214.989 85.494 213.64 85.4683 212.291C85.2833 202.223 85.2833 202.223 88.0337 199.268C88.465 198.851 88.9098 198.448 89.3556 198.047C89.7056 197.589 90.0464 197.124 90.365 196.644C90.4974 196.455 90.6299 196.266 90.7664 196.072C90.893 195.89 91.0196 195.708 91.15 195.52C91.4391 195.108 91.7282 194.695 92.0175 194.283C92.1583 194.082 92.299 193.881 92.4441 193.674C93.1427 192.68 93.849 191.692 94.5558 190.704C94.682 190.528 94.8082 190.352 94.9382 190.17C95.2256 189.768 95.5133 189.366 95.8009 188.965C95.5109 188.771 95.2208 188.578 94.922 188.379C94.7958 187.751 94.7958 187.751 94.7731 186.956C94.7577 186.505 94.7577 186.505 94.742 186.044C94.7355 185.711 94.7291 185.379 94.7224 185.036C94.7078 184.51 94.7078 184.51 94.6929 183.973C94.5847 179.581 94.5914 175.186 94.5993 170.793C94.6012 169.582 94.6013 168.372 94.6017 167.161C94.6026 164.883 94.605 162.605 94.6079 160.327C94.6113 157.727 94.6128 155.127 94.6143 152.528C94.6173 147.193 94.6225 141.858 94.629 136.523C94.2995 136.804 93.9703 137.085 93.6411 137.367C93.366 137.601 93.366 137.601 93.0854 137.841C92.533 138.321 92.0108 138.819 91.4991 139.342C91.2275 139.617 91.2275 139.617 90.9503 139.898C90.5841 140.272 90.2179 140.645 89.8517 141.019C88.9651 141.917 88.0724 142.784 87.1114 143.602C85.322 145.144 83.691 146.856 82.0314 148.535C78.1022 152.511 78.1022 152.511 76.3151 154.023C75.8415 154.417 75.8415 154.417 75.2931 154.98C74.548 155.118 73.8234 155.223 73.0718 155.307C72.8416 155.334 72.6114 155.362 72.3742 155.391C71.608 155.482 70.8413 155.57 70.0746 155.658C69.5404 155.721 69.0062 155.784 68.4721 155.847C67.0419 156.015 65.6112 156.18 64.1804 156.343C63.2701 156.447 62.3598 156.551 61.4495 156.656C59.6495 156.863 57.8492 157.066 56.0487 157.269C55.7621 157.302 55.4756 157.334 55.1803 157.368C54.364 157.46 53.5476 157.551 52.7311 157.641C52.4899 157.669 52.2487 157.696 52.0002 157.724C51.7747 157.749 51.5492 157.774 51.3169 157.799C51.1229 157.821 50.9288 157.842 50.7289 157.864C49.9315 157.922 49.1392 157.917 48.34 157.91C48.1616 154.567 48.0273 151.224 47.9453 147.877C47.9059 146.321 47.8528 144.769 47.7653 143.215C47.1472 131.95 47.1473 131.95 50.5518 128.122C52.1774 126.433 53.9747 124.888 55.9572 123.633C56.1505 123.633 56.3439 123.633 56.5431 123.633C56.5431 123.439 56.5431 123.246 56.5431 123.047C56.9825 122.613 56.9825 122.613 57.5847 122.113C58.7698 121.105 59.8762 120.045 60.9714 118.94C61.1651 118.746 61.3589 118.552 61.5585 118.352C61.9749 117.934 62.391 117.516 62.8067 117.098C63.4665 116.435 64.1272 115.772 64.7881 115.11C66.191 113.704 67.5927 112.296 68.9943 110.889C70.6197 109.256 72.2456 107.624 73.8728 105.994C74.5205 105.344 75.1674 104.694 75.8142 104.043C76.2151 103.641 76.6161 103.239 77.0172 102.837C77.1941 102.659 77.371 102.48 77.5533 102.296C78.6395 101.21 79.7633 100.185 80.9312 99.1869C81.8786 98.3461 82.6953 97.377 83.5306 96.4268C86.1236 94.5049 90.9104 94.6766 94.025 94.2735C95.0026 94.1469 95.9793 94.0162 96.955 93.8755C98.0913 93.7117 99.2295 93.5656 100.368 93.4204C100.714 93.3683 101.06 93.3162 101.416 93.2626C103.963 92.9597 105.417 93.5005 107.52 94.9219C108 95.2138 108.481 95.5044 108.964 95.7928C109.447 96.0938 109.93 96.3955 110.413 96.698C110.672 96.8589 110.932 97.0199 111.199 97.1857C112.605 98.0586 114.004 98.9414 115.397 99.8348C115.675 100.012 115.954 100.189 116.241 100.371C116.778 100.712 117.313 101.056 117.846 101.404C118.088 101.557 118.331 101.71 118.58 101.868C118.793 102.005 119.005 102.142 119.224 102.283C119.973 102.602 120.238 102.51 120.996 102.246C121.642 101.675 122.241 101.103 122.841 100.487C123.015 100.312 123.189 100.137 123.368 99.9564C123.922 99.3972 124.473 98.835 125.025 98.2727C125.4 97.8928 125.776 97.513 126.152 97.1334C127.072 96.2032 127.99 95.2703 128.906 94.3359C127.294 90.8934 125.638 87.4775 123.922 84.0855C123.779 83.8011 123.635 83.5167 123.488 83.2237C123.36 82.9723 123.233 82.7208 123.101 82.4617C121.324 78.7608 122.756 74.1109 123.313 70.1637C123.397 69.5604 123.481 68.9571 123.565 68.3538C123.741 67.0974 123.917 65.8412 124.094 64.585C124.321 62.9739 124.546 61.3624 124.771 59.751C124.944 58.5088 125.118 57.2668 125.293 56.0248C125.376 55.4303 125.459 54.8357 125.542 54.2411C125.658 53.4137 125.775 52.5864 125.891 51.7592C125.926 51.5136 125.96 51.2679 125.995 51.0149C126.127 50.0892 126.266 49.229 126.563 48.3398ZM134.18 57.1289C134.061 57.7691 133.959 58.4125 133.864 59.0567C133.834 59.2582 133.804 59.4598 133.773 59.6674C133.673 60.3377 133.576 61.0084 133.479 61.6791C133.446 61.9082 133.413 62.1374 133.379 62.3735C133.204 63.5882 133.03 64.8032 132.858 66.0184C132.68 67.2699 132.495 68.5202 132.309 69.7704C132.166 70.7345 132.03 71.6993 131.894 72.6644C131.828 73.1254 131.761 73.586 131.691 74.0464C131.15 77.5319 131.15 77.5319 132.129 80.8594C132.242 81.1035 132.355 81.3477 132.471 81.5992C132.863 82.4289 133.273 83.247 133.689 84.0649C133.82 84.3271 133.952 84.5894 134.088 84.8596C134.574 85.8282 135.064 86.7952 135.553 87.7625C136.647 89.9317 137.74 92.101 138.867 94.3359C146.312 94.3359 153.756 94.3359 161.426 94.3359C162.465 92.2211 163.505 90.1062 164.575 87.9272C164.901 87.2656 165.227 86.604 165.563 85.9224C165.824 85.3891 166.086 84.8557 166.347 84.3224C166.48 84.0527 166.613 83.783 166.75 83.5052C168.764 79.5513 168.764 79.5513 168.659 75.2563C167.907 71.389 167.357 67.4935 166.797 63.5948C166.701 62.9372 166.606 62.2795 166.511 61.6219C166.28 60.0267 166.05 58.4314 165.82 56.8359C161.738 56.8291 157.656 56.824 153.574 56.8208C151.679 56.8192 149.783 56.8171 147.888 56.8138C146.061 56.8107 144.233 56.8089 142.406 56.8081C141.707 56.8076 141.008 56.8065 140.309 56.805C139.334 56.8029 138.359 56.8025 137.384 56.8027C137.092 56.8016 136.8 56.8006 136.499 56.7995C136.234 56.7999 135.97 56.8003 135.698 56.8007C135.352 56.8003 135.352 56.8003 134.998 56.7999C134.466 56.7786 134.466 56.7786 134.18 57.1289ZM194.22 104.132C193.732 104.454 193.244 104.776 192.755 105.098C192.514 105.259 192.272 105.42 192.023 105.586C190.967 106.279 189.886 106.93 188.8 107.574C188.617 107.684 188.434 107.793 188.246 107.906C187.614 108.283 186.986 108.655 186.328 108.984C186.328 109.178 186.328 109.371 186.328 109.57C186.793 110.029 186.793 110.029 187.39 110.504C188.405 111.36 189.251 112.253 190.07 113.295C190.189 113.42 190.308 113.544 190.43 113.672C190.623 113.672 190.817 113.672 191.016 113.672C191.016 113.865 191.016 114.059 191.016 114.258C191.215 114.415 191.415 114.572 191.62 114.734C192.574 115.505 193.3 116.358 194.077 117.302C194.227 117.458 194.377 117.613 194.531 117.773C194.725 117.773 194.918 117.773 195.117 117.773C195.182 117.931 195.247 118.089 195.314 118.251C195.833 119.176 196.519 119.908 197.241 120.675C197.395 120.838 197.549 121.002 197.708 121.171C198.208 121.696 198.712 122.217 199.219 122.736C199.39 122.911 199.561 123.086 199.738 123.267C202.5 126.06 204.643 127.537 208.594 128.027C210.378 128.494 211.488 129.26 212.72 130.606C212.882 130.776 213.044 130.946 213.21 131.121C213.559 131.489 213.907 131.857 214.253 132.228C214.805 132.816 215.363 133.398 215.923 133.979C217.516 135.628 219.104 137.282 220.67 138.956C221.632 139.983 222.607 140.996 223.59 142.002C223.959 142.384 224.323 142.771 224.682 143.163C227.472 146.208 229.81 147.084 233.92 147.316C234.945 147.381 235.96 147.505 236.979 147.629C239.05 147.882 241.077 147.981 243.164 147.949C243.172 146.631 243.177 145.314 243.18 143.996C243.182 143.549 243.184 143.102 243.186 142.655C243.19 142.007 243.192 141.359 243.193 140.711C243.194 140.516 243.196 140.321 243.197 140.12C243.197 139.735 243.192 139.35 243.179 138.964C243.169 138.498 243.174 138.032 243.193 137.566C243.17 134.944 241.916 133.65 240.145 131.861C239.855 131.557 239.565 131.252 239.276 130.947C238.491 130.124 237.696 129.31 236.899 128.5C236.398 127.99 235.899 127.479 235.4 126.967C233.831 125.358 232.257 123.755 230.673 122.161C228.861 120.335 227.069 118.492 225.293 116.631C223.91 115.184 222.51 113.755 221.097 112.338C220.257 111.495 219.426 110.648 218.612 109.781C214.141 105.033 210.613 103.107 204.019 102.878C203.643 102.871 203.266 102.864 202.877 102.856C201.641 102.827 200.445 102.698 199.219 102.539C197.096 102.304 195.962 102.934 194.22 104.132ZM95.7913 103.052C95.2249 103.113 94.6581 103.17 94.091 103.223C93.2655 103.301 92.4421 103.391 91.6181 103.483C91.3675 103.505 91.1169 103.526 90.8586 103.548C88.8516 103.793 87.8127 104.628 86.4259 106.055C86.2719 106.204 86.118 106.353 85.9593 106.506C85.5255 106.927 85.1007 107.354 84.6773 107.785C84.5236 107.94 84.3699 108.095 84.2115 108.254C83.7282 108.741 83.2459 109.229 82.7638 109.717C82.1269 110.362 81.4889 111.005 80.8504 111.649C80.7096 111.792 80.5688 111.935 80.4238 112.082C79.6755 112.836 78.9094 113.556 78.1072 114.252C74.9172 117.019 71.8271 119.898 68.773 122.814C67.6023 123.93 66.4236 125.033 65.2189 126.113C58.8194 131.583 58.8194 131.583 56.1682 139.215C56.1129 142.176 56.53 145.057 57.129 147.949C59.7084 148.044 62.215 147.79 64.7701 147.481C65.4466 147.399 66.1234 147.322 66.8004 147.245C67.235 147.194 67.6695 147.143 68.1039 147.091C68.3041 147.068 68.5044 147.046 68.7106 147.022C70.5085 146.8 71.6627 146.426 72.9276 145.117C73.137 144.903 73.3464 144.69 73.5622 144.47C73.7769 144.246 73.9916 144.023 74.2128 143.793C74.6381 143.354 75.0642 142.917 75.4911 142.48C75.6781 142.286 75.8652 142.092 76.0579 141.892C76.6447 141.321 77.2426 140.791 77.864 140.26C79.1396 139.152 80.2756 137.943 81.4214 136.704C82.095 135.995 82.7708 135.287 83.4467 134.58C83.9043 134.096 84.3578 133.609 84.8071 133.117C87.5424 130.135 89.6117 128.274 93.6679 127.598C96.0641 127.186 97.3326 126.195 98.8954 124.329C99.3471 123.83 99.7991 123.332 100.252 122.834C100.439 122.615 100.627 122.395 100.821 122.17C101.367 121.582 101.367 121.582 102.023 121.101C102.279 120.904 102.279 120.904 102.539 120.703C102.539 120.51 102.539 120.316 102.539 120.117C102.711 120.041 102.883 119.964 103.06 119.885C103.749 119.511 104.205 119.112 104.758 118.56C104.958 118.362 105.157 118.165 105.363 117.961C105.574 117.748 105.786 117.535 106.004 117.316C106.224 117.097 106.443 116.878 106.669 116.652C107.132 116.19 107.594 115.727 108.055 115.263C108.764 114.551 109.476 113.843 110.188 113.134C110.637 112.685 111.086 112.235 111.534 111.786C111.856 111.466 111.856 111.466 112.183 111.14C112.379 110.943 112.575 110.745 112.776 110.542C113.036 110.281 113.036 110.281 113.302 110.015C113.735 109.592 113.735 109.592 113.672 108.984C113.117 108.596 112.542 108.236 111.96 107.889C111.783 107.783 111.607 107.677 111.425 107.567C110.857 107.226 110.287 106.887 109.717 106.549C109.157 106.214 108.597 105.878 108.038 105.543C107.675 105.326 107.312 105.109 106.949 104.894C105.829 104.23 104.742 103.536 103.689 102.77C101.519 101.881 98.0795 102.801 95.7913 103.052ZM130.371 105.176C130.133 105.408 129.894 105.64 129.648 105.88C129.281 106.256 129.281 106.256 128.906 106.641C128.523 107.027 128.139 107.412 127.754 107.797C127.539 108.013 127.324 108.229 127.103 108.452C126.135 109.424 125.166 110.395 124.197 111.366C123.685 111.88 123.173 112.394 122.662 112.908C121.923 113.65 121.183 114.391 120.443 115.132C120.214 115.363 119.985 115.594 119.748 115.832C119.536 116.044 119.324 116.257 119.105 116.475C118.918 116.663 118.731 116.85 118.539 117.044C118.067 117.48 118.067 117.48 117.481 117.773C117.481 117.967 117.481 118.16 117.481 118.359C117.094 118.553 116.707 118.746 116.309 118.945C116.309 119.139 116.309 119.332 116.309 119.531C116.056 119.652 116.056 119.652 115.798 119.775C110.986 122.268 105.082 127.124 103.216 132.408C101.467 138.532 102.224 145.531 102.557 151.805C102.688 154.301 102.748 156.796 102.803 159.295C102.901 163.619 103.042 167.941 103.26 172.262C103.357 174.195 103.429 176.124 103.439 178.06C103.443 178.419 103.448 178.778 103.453 179.148C103.459 179.812 103.459 180.476 103.448 181.14C103.488 183.86 104.617 185.312 106.46 187.218C106.756 187.468 106.756 187.468 107.059 187.723C107.282 187.916 107.505 188.108 107.735 188.306C107.96 188.499 108.185 188.693 108.417 188.892C108.863 189.302 109.308 189.714 109.751 190.129C111.126 191.404 112.535 192.637 113.959 193.856C115.432 195.125 116.81 196.468 118.174 197.853C118.631 198.314 119.088 198.775 119.545 199.235C120.257 199.955 120.969 200.675 121.68 201.396C122.372 202.096 123.065 202.795 123.759 203.493C123.973 203.711 124.187 203.929 124.407 204.153C124.605 204.352 124.802 204.551 125.006 204.755C125.267 205.019 125.267 205.019 125.533 205.289C125.954 205.727 125.954 205.727 126.563 205.664C126.563 205.857 126.563 206.051 126.563 206.25C126.997 206.69 126.997 206.69 127.57 207.147C128.269 207.725 128.895 208.288 129.485 208.979C130.628 210.307 131.463 211.094 133.246 211.268C133.895 211.282 134.545 211.282 135.194 211.269C135.551 211.273 135.907 211.277 136.275 211.281C137.246 211.288 138.216 211.283 139.187 211.272C140.207 211.263 141.228 211.268 142.248 211.271C143.96 211.273 145.672 211.264 147.385 211.249C149.36 211.232 151.334 211.231 153.309 211.24C155.216 211.248 157.122 211.244 159.028 211.235C159.837 211.231 160.645 211.231 161.454 211.235C162.584 211.239 163.714 211.227 164.844 211.212C165.177 211.215 165.51 211.219 165.852 211.222C167.848 211.179 168.917 210.847 170.33 209.408C170.563 209.15 170.563 209.15 170.801 208.887C171.092 208.603 171.383 208.321 171.676 208.04C171.943 207.77 172.209 207.501 172.483 207.223C172.628 207.077 172.773 206.931 172.922 206.78C173.375 206.324 173.828 205.866 174.28 205.408C174.883 204.797 175.486 204.188 176.09 203.579C176.355 203.311 176.619 203.044 176.891 202.768C177.539 202.148 177.539 202.148 178.125 201.855C178.125 201.662 178.125 201.469 178.125 201.27C178.287 201.203 178.45 201.136 178.617 201.068C179.495 200.571 180.096 199.945 180.803 199.224C180.945 199.081 181.088 198.937 181.234 198.789C181.689 198.329 182.141 197.868 182.593 197.406C183.041 196.95 183.489 196.494 183.939 196.039C184.35 195.623 184.76 195.205 185.169 194.787C185.766 194.197 186.378 193.631 187.009 193.076C187.215 192.894 187.422 192.713 187.635 192.525C188.178 192.065 188.733 191.618 189.294 191.179C192.924 188.336 196.459 185.388 197.14 180.61C197.413 178.048 197.393 175.475 197.342 172.903C197.321 171.486 197.339 170.07 197.35 168.653C197.363 166.277 197.344 163.902 197.304 161.526C197.26 158.8 197.271 156.078 197.312 153.352C197.35 150.701 197.344 148.052 197.32 145.402C197.311 144.286 197.317 143.172 197.336 142.057C197.468 134.92 197.468 134.92 194.053 128.897C192.626 127.429 191.077 126.109 189.455 124.863C188.762 124.293 188.319 123.761 187.793 123.047C187.6 123.047 187.406 123.047 187.207 123.047C187.1 122.814 187.1 122.814 186.991 122.577C185.04 118.874 182.14 115.565 179.407 112.427C179.215 112.206 179.023 111.985 178.825 111.758C173.503 105.749 168.195 102.411 160.075 101.876C156.469 101.671 152.876 101.707 149.268 101.825C148.864 101.837 148.46 101.849 148.057 101.861C145.359 101.944 142.668 102.081 139.975 102.266C139.621 102.289 139.267 102.313 138.902 102.338C137.904 102.411 136.908 102.499 135.911 102.595C135.474 102.628 135.474 102.628 135.029 102.661C132.921 102.894 131.813 103.649 130.371 105.176ZM102.246 195.117C101.592 195.939 101.029 196.788 100.461 197.67C99.663 198.896 98.8351 200.053 97.8985 201.177C94.461 205.449 94.0097 208.98 94.1835 214.358C94.2115 215.375 94.2136 216.392 94.2187 217.41C94.2322 219.325 94.2681 221.24 94.3126 223.155C94.367 225.555 94.3907 227.956 94.4145 230.357C94.4569 234.627 94.545 238.894 94.629 243.164C101.01 243.164 107.391 243.164 113.965 243.164C113.935 241.754 113.905 240.344 113.875 238.892C113.865 237.98 113.858 237.068 113.855 236.156C113.85 234.719 113.84 233.284 113.801 231.847C113.617 224.791 114.615 220.317 118.652 214.453C119.528 213.207 119.528 213.207 119.812 211.755C119.469 211.113 119.079 210.674 118.56 210.163C118.36 209.964 118.16 209.766 117.954 209.561C117.743 209.357 117.533 209.152 117.316 208.942C117.113 208.741 116.911 208.539 116.702 208.332C115.738 207.383 114.759 206.467 113.735 205.584C112.516 204.523 111.381 203.396 110.251 202.241C109.836 201.82 109.42 201.4 109.005 200.979C108.358 200.324 107.712 199.668 107.068 199.01C106.44 198.37 105.81 197.733 105.179 197.096C104.89 196.798 104.89 196.798 104.594 196.494C104.414 196.313 104.234 196.132 104.048 195.945C103.891 195.785 103.733 195.625 103.571 195.459C103.103 195.028 103.103 195.028 102.246 195.117ZM196.44 195.784C196.134 196.092 195.83 196.401 195.527 196.711C195.364 196.876 195.202 197.04 195.034 197.209C194.511 197.737 193.99 198.267 193.469 198.798C192.789 199.489 192.108 200.179 191.425 200.868C191.26 201.035 191.095 201.201 190.925 201.373C189.9 202.402 188.847 203.378 187.739 204.319C186.723 205.209 185.79 206.184 184.845 207.147C184.452 207.548 184.058 207.948 183.663 208.348C183.38 208.635 183.38 208.635 183.092 208.928C182.531 209.461 181.945 209.919 181.331 210.387C180.547 211.038 180.547 211.038 180.403 212.053C180.884 213.306 181.472 214.467 182.117 215.643C182.238 215.869 182.359 216.095 182.484 216.327C182.608 216.558 182.733 216.789 182.861 217.027C182.984 217.258 183.107 217.49 183.233 217.728C183.542 218.285 183.869 218.831 184.212 219.367C185.824 222.004 186.034 224.194 185.996 227.211C185.998 227.665 186.001 228.118 186.005 228.572C186.013 229.753 186.009 230.933 186.002 232.114C185.995 233.558 186.003 235.002 186.008 236.446C186.013 237.567 186.015 238.688 186.01 239.809C186.01 240.013 186.009 240.217 186.009 240.428C186.008 240.98 186.005 241.531 186.003 242.083C185.945 242.847 185.945 242.847 186.328 243.164C186.922 243.192 187.516 243.198 188.11 243.197C188.491 243.197 188.872 243.197 189.265 243.197C189.684 243.196 190.103 243.194 190.523 243.193C190.949 243.192 191.376 243.192 191.802 243.191C192.927 243.19 194.051 243.187 195.176 243.184C196.323 243.181 197.47 243.18 198.616 243.178C200.868 243.175 203.12 243.17 205.371 243.164C205.475 238.463 205.552 233.761 205.599 229.059C205.621 226.875 205.652 224.691 205.703 222.508C205.747 220.601 205.775 218.695 205.785 216.788C205.79 215.78 205.803 214.775 205.836 213.768C205.996 208.194 205.129 204.805 201.531 200.491C200.65 199.4 199.892 198.232 199.127 197.058C198.687 196.391 198.239 195.754 197.754 195.117C197.076 195.051 197.076 195.051 196.44 195.784ZM141.211 219.434C141.985 220.98 142.758 222.527 143.555 224.121C144.313 225.657 144.313 225.657 144.639 226.319C145.106 227.27 145.576 228.218 146.045 229.167C146.292 229.666 146.538 230.166 146.783 230.667C147.144 231.402 147.507 232.135 147.872 232.869C147.98 233.092 148.088 233.314 148.2 233.544C148.772 234.688 149.306 235.577 150.293 236.426C150.406 236.207 150.519 235.988 150.636 235.762C151.175 234.72 151.713 233.678 152.252 232.635C152.35 232.446 152.449 232.256 152.55 232.061C154.133 228.999 155.721 225.939 157.313 222.882C157.461 222.599 157.608 222.315 157.76 222.023C157.953 221.653 157.953 221.653 158.15 221.276C158.466 220.664 158.774 220.049 159.082 219.434C153.185 219.434 147.287 219.434 141.211 219.434Z" fill="black"/>
<path d="M141.503 61.2311C142.573 62.0505 143.24 62.8414 143.554 64.1607C143.498 65.7113 143.189 66.5768 142.089 67.6764C141.069 68.4147 140.095 68.3701 138.866 68.2623C137.666 67.7321 136.894 67.0506 136.23 65.9186C136.025 64.6669 136.097 63.6208 136.559 62.4396C137.952 60.8608 139.556 60.642 141.503 61.2311Z" fill="black"/>
<path d="M161.718 60.9379C162.682 61.456 163.318 62.1485 163.897 63.0802C164.176 64.4117 164.162 65.5799 163.438 66.7423C162.673 67.6095 161.985 68.0738 160.839 68.2804C159.665 68.3433 158.893 68.0462 157.91 67.3832C157.019 66.5538 156.826 65.6642 156.721 64.4604C156.749 63.4801 157.057 62.9037 157.617 62.1098C158.891 60.9841 160.06 60.5547 161.718 60.9379Z" fill="black"/>
</svg>
