<svg width="300" height="300" viewBox="0 0 300 300" fill="none" xmlns="http://www.w3.org/2000/svg">
<path d="M134.179 92.578C142.295 91.8075 151.181 96.1684 157.284 101.168C158.443 102.143 159.511 103.192 160.546 104.297C160.9 104.65 160.9 104.65 161.261 105.011C161.508 105.259 161.756 105.506 162.011 105.762C162.207 105.95 162.403 106.139 162.604 106.334C164.213 107.904 165.619 109.55 166.992 111.328C167.296 111.716 167.601 112.103 167.906 112.491C170.058 115.231 172.155 118.009 174.213 120.821C174.376 121.034 174.539 121.247 174.706 121.466C175.195 122.168 175.195 122.168 175.627 123.04C176.25 124.172 176.805 125.173 178.111 125.56C179.616 125.789 181.127 125.753 182.645 125.708C183.827 125.674 185.008 125.677 186.19 125.678C186.801 125.679 187.412 125.677 188.023 125.675C190.991 125.665 193.935 125.824 196.893 126.05C197.143 126.068 197.393 126.087 197.65 126.106C246.662 129.839 246.662 129.839 263.671 141.797C264.504 143.461 264.082 145.826 263.525 147.528C261.665 152.043 257.541 155.896 253.711 158.789C253.524 158.931 253.337 159.073 253.145 159.219C252.493 159.714 251.839 160.204 251.184 160.693C250.953 160.866 250.723 161.039 250.486 161.217C249.087 162.252 247.658 163.2 246.167 164.097C242.888 165.857 242.888 165.857 240.497 168.511C240.254 169.573 240.333 170.455 240.442 171.542C240.535 172.661 240.442 173.016 239.776 173.895C239.29 174.418 239.29 174.418 238.769 174.902C238.606 175.071 238.444 175.24 238.276 175.414C232.06 181.416 221.755 183.491 213.574 184.863C213.66 185.174 213.66 185.174 213.748 185.492C215.76 192.813 217.208 199.545 215.918 207.129C214.893 207.487 214.317 207.357 213.309 206.987C213.027 206.884 212.745 206.78 212.455 206.674C212.153 206.558 211.852 206.442 211.541 206.323C211.23 206.205 210.918 206.086 210.597 205.964C206.157 204.228 201.906 202.027 198.046 199.219C197.773 199.022 197.5 198.825 197.219 198.622C193.907 196.186 190.738 193.554 187.609 190.887C187.447 190.749 187.284 190.611 187.116 190.469C186.961 190.335 186.806 190.202 186.646 190.065C186.493 189.934 186.339 189.804 186.181 189.67C185.742 189.258 185.742 189.258 185.366 188.775C184.7 187.949 184.237 187.557 183.184 187.319C182.204 187.231 181.25 187.211 180.267 187.225C179.751 187.23 179.751 187.23 179.225 187.234C176.805 187.326 175.458 187.599 173.767 189.39C173.561 189.637 173.356 189.883 173.144 190.137C172.712 190.553 172.272 190.962 171.826 191.363C171.467 191.689 171.467 191.689 171.1 192.02C167.294 195.256 163.123 197.926 158.789 200.391C158.594 200.503 158.399 200.615 158.199 200.731C150.87 204.945 142.493 207.464 134.014 207.513C133.779 207.515 133.544 207.517 133.301 207.518C132.175 207.504 131.621 207.474 130.664 206.836C131.144 205.653 131.977 204.817 132.843 203.906C133.162 203.564 133.482 203.222 133.802 202.88C134.265 202.386 134.729 201.894 135.193 201.401C139.967 196.327 144.042 190.62 147.949 184.863C147.574 184.871 147.2 184.879 146.814 184.887C145.311 184.886 143.865 184.708 142.38 184.487C142.102 184.447 141.825 184.407 141.539 184.365C140.635 184.235 139.733 184.1 138.83 183.966C138.522 183.921 138.213 183.875 137.895 183.829C132.201 182.991 126.537 182.016 120.882 180.951C118.489 180.416 118.489 180.416 116.29 181.201C115.989 181.39 115.688 181.579 115.378 181.773C115.003 182.021 114.63 182.27 114.257 182.519C114.022 182.677 113.786 182.835 113.543 182.997C111.146 184.607 108.764 186.239 106.406 187.905C106.193 188.054 105.981 188.203 105.762 188.357C105.37 188.632 104.981 188.909 104.593 189.188C103.626 189.867 102.845 190.309 101.66 190.43C101.39 188.832 101.328 187.298 101.338 185.679C101.339 185.303 101.339 185.303 101.339 184.919C101.341 184.126 101.345 183.332 101.348 182.538C101.35 181.997 101.351 181.456 101.352 180.914C101.356 179.594 101.361 178.273 101.367 176.953C101.155 176.92 100.943 176.888 100.725 176.854C98.538 176.505 96.3924 176.056 94.2394 175.541C93.9127 175.464 93.5861 175.386 93.2495 175.307C92.2196 175.063 91.1902 174.818 90.1607 174.573C89.4569 174.406 88.7531 174.239 88.0493 174.073C86.3358 173.667 84.6226 173.26 82.9097 172.851C82.8528 173.028 82.7958 173.204 82.7371 173.386C82.6606 173.62 82.5841 173.854 82.5053 174.095C82.4302 174.326 82.3551 174.557 82.2777 174.795C81.8942 175.872 81.3828 176.864 80.8406 177.869C80.6686 178.189 80.6686 178.189 80.4932 178.516C77.6775 183.669 74.0582 188.238 70.0191 192.48C69.8393 192.672 69.6596 192.864 69.4744 193.062C64.818 197.896 58.8802 201.337 53.0269 204.492C52.6637 204.69 52.6637 204.69 52.2932 204.892C51.6495 205.24 51.0027 205.582 50.3536 205.92C50.1683 206.02 49.9831 206.12 49.7922 206.222C48.9486 206.649 48.4324 206.846 47.4811 206.747C47.281 206.679 47.0808 206.612 46.8746 206.543C47.0312 204.44 47.8322 202.585 48.5775 200.629C51.3311 193.272 54.0491 185.826 55.6636 178.125C55.724 177.839 55.7843 177.552 55.8465 177.257C58.4129 164.741 53.4299 153.688 48.3394 142.383C48.1892 142.049 48.0389 141.715 47.8841 141.371C44.4328 133.742 40.6691 126.261 36.7031 118.888C36.5671 118.629 36.4312 118.37 36.2911 118.103C36.1268 117.796 36.1268 117.796 35.9592 117.483C35.6963 116.771 35.7024 116.182 35.7418 115.43C38.1296 115.504 40.072 116.565 42.1688 117.609C42.5525 117.797 42.9362 117.986 43.32 118.174C49.7855 121.372 55.8657 125.231 61.23 130.078C61.3888 130.221 61.5477 130.363 61.7113 130.51C64.6387 133.15 67.4827 135.831 69.9424 138.922C70.3765 139.462 70.8211 139.993 71.2768 140.515C74.7896 144.549 77.5995 149.189 80.273 153.808C80.4366 154.083 80.4366 154.083 80.6035 154.364C81.4449 155.794 81.4449 155.794 81.4449 156.445C81.7051 156.31 81.9653 156.175 82.2334 156.036C84.6875 154.777 87.1757 153.614 89.7029 152.508C89.9934 152.38 90.2838 152.252 90.5831 152.121C90.8587 152.001 91.1344 151.882 91.4184 151.759C91.6632 151.653 91.908 151.546 92.1602 151.437C92.8707 151.172 92.8707 151.172 94.3355 150.879C94.3355 146.722 94.3355 142.564 94.3355 138.281C96.6424 138.611 96.6424 138.611 97.7254 138.952C97.9669 139.028 98.2083 139.103 98.4571 139.18C98.7111 139.261 98.9651 139.342 99.2267 139.426C99.4935 139.509 99.7602 139.592 100.035 139.678C100.882 139.944 101.729 140.211 102.575 140.478C103.424 140.746 104.273 141.013 105.122 141.278C105.649 141.444 106.175 141.61 106.702 141.776C107.363 141.984 108.026 142.185 108.691 142.383C108.952 142.463 109.213 142.543 109.482 142.626C110.455 142.698 111.089 142.378 111.977 141.984C112.152 141.908 112.328 141.832 112.508 141.754C112.888 141.589 113.266 141.422 113.645 141.254C114.665 140.803 115.691 140.365 116.718 139.928C116.928 139.838 117.139 139.748 117.356 139.656C122.444 137.496 127.695 135.732 132.934 133.978C133.127 133.913 133.32 133.849 133.519 133.782C136.712 132.715 136.712 132.715 137.402 132.715C137.438 132.397 137.474 132.079 137.512 131.751C137.746 129.879 138.101 128.027 138.439 126.171C140.258 115.959 138.369 105.981 134.923 96.2992C134.827 96.0244 134.73 95.7496 134.63 95.4665C134.543 95.2262 134.456 94.986 134.367 94.7384C134.165 93.9904 134.145 93.3492 134.179 92.578ZM141.211 99.0233C141.277 99.2674 141.343 99.5116 141.412 99.7631C143.504 107.543 145.055 115.184 144.122 123.285C144.086 123.601 144.05 123.918 144.013 124.244C143.482 128.491 142.484 132.655 141.503 136.816C141.286 136.882 141.069 136.948 140.844 137.017C132.235 139.64 123.607 142.376 115.405 146.113C115.129 146.238 114.854 146.362 114.57 146.491C114.064 146.721 113.562 146.958 113.062 147.201C109.952 148.624 107.116 147.438 104.003 146.466C103.296 146.248 102.588 146.031 101.879 145.815C101.57 145.718 101.26 145.622 100.941 145.523C100.23 145.286 100.23 145.286 99.609 145.312C99.609 148.309 99.609 151.307 99.609 154.394C98.6422 154.684 97.6754 154.975 96.6793 155.273C95.7065 155.639 94.746 156.012 93.7862 156.409C93.5163 156.519 93.2465 156.63 92.9684 156.744C89.8695 158.034 86.8354 159.463 83.7989 160.892C80.1603 162.598 80.1603 162.598 79.1011 162.598C78.9953 162.387 78.8895 162.177 78.7804 161.96C74.8766 154.229 70.4955 147.132 64.7457 140.625C64.6083 140.469 64.471 140.313 64.3295 140.153C59.3308 134.518 53.5325 129.559 46.8746 125.976C46.6812 125.976 46.4879 125.976 46.2886 125.976C46.6569 127.155 47.0919 128.226 47.6642 129.319C58.3412 150.027 64.5484 167.914 57.3345 190.848C57.0215 191.826 56.7038 192.802 56.378 193.776C56.2843 194.057 56.1905 194.338 56.0939 194.627C56.0107 194.872 55.9274 195.116 55.8416 195.368C55.6237 196.028 55.6237 196.028 55.6636 196.875C57.111 196.396 58.2596 195.57 59.4905 194.696C59.8195 194.463 59.8195 194.463 60.1552 194.226C61.8478 193.008 63.3845 191.689 64.8876 190.246C65.6246 189.551 65.6246 189.551 66.3971 188.934C67.4579 188.083 68.2723 187.078 69.1402 186.035C69.2669 185.886 69.3935 185.737 69.524 185.583C75.6958 178.341 75.6959 178.341 78.4786 169.647C78.2568 168.871 78.0227 168.353 77.6203 167.668C77.4322 167.349 77.2441 167.029 77.0504 166.699C82.9019 167.575 88.6545 168.825 94.4272 170.107C95.4162 170.327 96.4056 170.544 97.395 170.762C98.5806 171.022 99.766 171.284 100.951 171.546C101.175 171.595 101.399 171.644 101.63 171.695C102.259 171.834 102.888 171.974 103.517 172.114C103.874 172.193 104.23 172.272 104.598 172.353C105.468 172.558 105.468 172.558 106.347 172.851C106.444 175.655 106.541 178.459 106.64 181.348C107.714 180.918 108.296 180.681 109.15 180.018C109.341 179.872 109.532 179.725 109.728 179.575C109.924 179.423 110.119 179.27 110.321 179.114C110.9 178.664 111.481 178.219 112.072 177.785C112.572 177.411 113.062 177.022 113.543 176.623C115.138 175.396 116.264 174.713 118.31 174.909C119.043 175.034 119.773 175.174 120.5 175.327C120.899 175.4 121.299 175.471 121.698 175.542C122.54 175.693 123.381 175.853 124.22 176.019C125.525 176.279 126.834 176.519 128.144 176.755C129.444 176.991 130.744 177.227 132.044 177.469C135.386 178.092 138.735 178.612 142.108 179.04C142.532 179.096 142.955 179.151 143.379 179.206C144.414 179.338 145.448 179.465 146.484 179.59C146.86 179.638 146.86 179.638 147.244 179.688C147.869 179.765 148.493 179.827 149.121 179.883C149.351 179.911 149.581 179.939 149.818 179.968C150.511 180.022 151.079 180.034 151.757 179.883C152.39 179.203 152.705 178.746 153.112 177.942C153.352 177.515 153.594 177.09 153.837 176.666C153.968 176.433 154.1 176.199 154.235 175.959C155.103 174.493 156.082 173.1 157.049 171.698C157.245 171.412 157.44 171.125 157.642 170.83C159.036 168.795 159.036 168.795 159.375 168.457C161.162 168.257 162.472 168.524 164.062 169.336C163.949 170.924 163.016 171.941 162.09 173.164C160.68 175.071 159.315 176.998 158.005 178.975C157.764 179.338 157.764 179.338 157.519 179.707C157.032 180.443 156.546 181.179 156.06 181.915C152.279 187.641 152.279 187.641 150.497 190.05C150.026 190.687 149.568 191.332 149.115 191.983C147.573 194.198 146.004 196.372 144.306 198.471C143.584 199.367 142.948 200.267 142.382 201.269C153.242 198.964 162.494 192.776 170.795 185.621C171.628 184.907 172.474 184.215 173.327 183.527C174.706 182.406 176.013 181.222 177.32 180.019C178.101 179.318 178.9 178.654 179.718 177.997C180.916 177.032 182.054 176.024 183.178 174.975C185.587 172.747 185.587 172.747 186.914 171.973C187.522 172.03 187.522 172.03 188.086 172.266C188.846 173.624 189.314 174.809 188.964 176.367C188.09 177.371 187.075 178.177 186.035 179.004C185.442 179.486 184.85 179.968 184.259 180.45C183.989 180.664 183.72 180.879 183.443 181.099C182.791 181.588 182.791 181.588 182.519 182.226C186.471 182.275 190.387 182.147 194.329 181.879C194.612 181.86 194.895 181.841 195.186 181.821C208.188 180.935 221.729 179.488 233.203 172.851C233.203 172.658 233.203 172.465 233.203 172.266C232.831 172.221 232.831 172.221 232.453 172.177C231.299 172.038 230.145 171.897 228.991 171.753C228.783 171.727 228.575 171.701 228.36 171.674C225.959 171.373 223.595 171.033 221.246 170.434C217.878 169.595 214.284 169.516 210.937 170.508C212.175 166.894 214.376 163.715 217.437 161.407C217.689 161.217 217.689 161.217 217.946 161.023C223.284 157.078 230.26 156.36 236.714 157.197C238.874 157.525 240.983 157.964 243.058 158.656C245.14 159.056 246.823 157.905 248.496 156.811C252.194 154.247 257.483 150.542 258.599 145.949C258.63 145.739 258.66 145.529 258.691 145.312C253.704 142.118 247.62 140.563 241.992 138.867C241.674 138.771 241.357 138.675 241.03 138.576C226.023 134.117 210.109 132.227 194.531 131.195C193.967 131.156 193.967 131.156 193.392 131.116C191.225 130.98 189.081 130.955 186.91 131.017C185.645 131.052 184.379 131.067 183.114 131.083C182.493 131.096 181.873 131.12 181.254 131.153C176.478 131.411 176.478 131.411 174.84 130.175C173.617 128.933 172.685 127.521 171.784 126.035C171.274 125.208 170.69 124.454 170.084 123.695C169.724 123.222 169.365 122.75 169.006 122.278C168.811 122.021 168.615 121.765 168.414 121.501C167.52 120.327 166.63 119.149 165.755 117.961C159.78 109.854 152.597 101.496 142.382 99.0233C141.996 99.0233 141.609 99.0233 141.211 99.0233ZM228.222 162.598C228.319 163.371 228.416 164.144 228.515 164.941C229.551 164.012 230.152 163.427 230.273 162.012C229.584 162.012 228.869 162.378 228.222 162.598ZM220.898 164.355C221.188 164.79 221.188 164.79 221.484 165.234C222.058 165.201 222.058 165.201 222.656 164.941C223.036 164.212 223.036 164.212 223.242 163.476C222.194 163.476 221.761 163.795 220.898 164.355ZM234.082 164.355C234.178 165.225 234.275 166.096 234.375 166.992C235.24 166.186 235.884 165.411 236.425 164.355C236.425 164.065 236.425 163.775 236.425 163.476C235.378 163.476 234.945 163.795 234.082 164.355ZM203.303 185.998C202.967 186.024 202.632 186.05 202.287 186.077C201.221 186.16 200.156 186.244 199.09 186.328C198.366 186.385 197.641 186.441 196.916 186.497C195.145 186.635 193.373 186.774 191.601 186.914C191.88 187.242 192.158 187.569 192.437 187.896C192.67 188.169 192.67 188.169 192.908 188.448C197.493 193.701 204.532 198.266 210.937 200.976C211.13 200.976 211.324 200.976 211.523 200.976C211.768 195.591 210.465 190.852 208.886 185.742C207.015 185.705 205.168 185.85 203.303 185.998Z" fill="black"/>
<path d="M206.835 142.676C206.452 143.683 206.007 144.643 205.528 145.608C202.06 152.698 202.323 159.856 204.492 167.285C204.202 167.43 204.202 167.43 203.906 167.578C201.495 166.008 200.835 163.393 200.152 160.712C199.162 155.551 199.412 149.404 202.023 144.723C203.303 142.939 204.682 141.686 206.835 142.676Z" fill="black"/>
<path d="M224.121 142.969C225.365 143.614 226.184 144.555 226.758 145.825C227.262 147.488 227.184 149.103 226.436 150.676C225.552 152.019 224.602 152.757 223.038 153.16C221.861 153.27 220.993 153.008 220.02 152.344C218.802 151.085 218.322 149.903 218.188 148.169C218.305 146.427 218.738 145.2 219.873 143.866C221.142 142.819 222.533 142.697 224.121 142.969Z" fill="black"/>
<path d="M185.888 145.551C186.033 145.666 186.178 145.78 186.328 145.899C186.257 146.348 186.257 146.348 186.186 146.806C185.334 153.68 186.263 160.14 188.279 166.694C188.368 166.982 188.456 167.27 188.547 167.566C188.627 167.823 188.707 168.079 188.79 168.344C188.964 169.043 188.964 169.043 188.964 170.215C188.674 170.215 188.384 170.215 188.085 170.215C184.879 166.684 183.688 160.999 182.812 156.446C182.746 156.103 182.68 155.761 182.612 155.409C182.284 153.44 182.17 151.498 182.153 149.506C182.15 149.278 182.147 149.049 182.145 148.814C182.151 147.689 182.174 147.149 182.812 146.192C183.822 145.621 184.76 145.184 185.888 145.551Z" fill="black"/>
<path d="M199.219 142.383C199.114 143.576 199 144.721 198.711 145.885C197.008 152.794 197.998 159.898 200.101 166.578C200.391 167.578 200.391 167.578 200.391 168.457C199.425 168.28 199.232 168.178 198.523 167.413C194.81 161.809 194.142 153.598 194.97 147.102C195.41 145.122 196.039 143.699 197.791 142.566C198.34 142.383 198.34 142.383 199.219 142.383Z" fill="black"/>
<path d="M193.36 144.434C193.745 145.591 193.461 146.151 193.103 147.309C191.053 153.996 192.228 161.21 194.013 167.835C194.238 168.75 194.238 168.75 194.238 169.629C193.271 169.549 192.866 169.432 192.184 168.722C191.533 167.771 191.173 166.842 190.851 165.747C190.79 165.54 190.728 165.334 190.665 165.12C189.58 161.329 189.177 157.803 189.148 153.864C189.144 153.508 189.14 153.151 189.136 152.784C189.151 149.952 189.376 147.124 191.016 144.727C191.809 144.33 192.483 144.415 193.36 144.434Z" fill="black"/>
<path d="M175.195 147.656C175.775 147.656 176.355 147.656 176.953 147.656C177.341 148.433 177.329 149.179 177.39 150.034C177.829 155.819 179.506 161.032 181.911 166.282C182.443 167.481 182.921 168.701 183.398 169.922C181.806 169.65 181.391 169.169 180.456 167.879C176.964 162.477 173.89 155.384 174.609 148.828C174.908 148.135 174.908 148.135 175.195 147.656Z" fill="black"/>
<path d="M247.028 147.18C247.29 147.271 247.29 147.271 247.559 147.364C247.475 149.178 247.236 150.871 246.094 152.344C245.288 152.637 245.288 152.637 244.629 152.637C244.043 151.758 244.043 151.758 244.08 150.806C244.416 149.366 245.153 146.859 247.028 147.18Z" fill="black"/>
</svg>
