<svg width="300" height="300" viewBox="0 0 300 300" fill="none" xmlns="http://www.w3.org/2000/svg">
<path d="M161.719 84.0821C161.677 84.6193 161.634 85.1564 161.591 85.6934C161.567 85.9925 161.543 86.2917 161.518 86.5998C161.453 87.3039 161.373 88.0066 161.282 88.7078C160.376 95.8326 160.892 103.038 162.714 109.975C162.883 110.71 162.974 111.419 163.047 112.169C163.262 113.686 163.602 114.862 164.648 116.016C167.314 117.923 170.41 119.148 173.407 120.435C174.359 120.849 175.299 121.287 176.239 121.729C177.599 122.367 178.962 123 180.328 123.627C182.349 124.562 184.339 125.552 186.326 126.557C188.475 127.642 190.64 128.69 192.815 129.72C194.358 130.451 195.893 131.194 197.422 131.952C197.755 132.116 198.089 132.279 198.432 132.448C199.079 132.767 199.725 133.088 200.37 133.412C200.662 133.555 200.954 133.698 201.255 133.846C201.512 133.974 201.77 134.102 202.036 134.234C202.818 134.501 203.149 134.486 203.906 134.18C204.414 133.756 204.414 133.756 204.877 133.228C205.848 132.213 206.828 131.427 208.008 130.664C208.201 130.664 208.395 130.664 208.594 130.664C208.884 131.64 209.169 132.617 209.454 133.594C209.536 133.868 209.617 134.141 209.701 134.424C210.161 136.008 210.491 137.517 210.645 139.16C210.89 139.235 211.135 139.31 211.388 139.387C212.5 139.781 213.516 140.271 214.563 140.808C214.751 140.903 214.938 140.999 215.132 141.097C215.59 141.329 216.047 141.563 216.504 141.797C216.611 141.55 216.611 141.55 216.72 141.298C217.161 140.496 217.695 139.905 218.317 139.233C219.126 138.35 219.932 137.467 220.715 136.56C221.841 135.267 223.004 134.01 224.167 132.752C224.774 132.09 225.366 131.418 225.954 130.741C229.235 126.987 232.751 123.452 236.279 119.933C237.001 119.213 237.721 118.491 238.441 117.77C238.907 117.303 239.373 116.837 239.84 116.372C240.156 116.054 240.156 116.054 240.48 115.73C241.816 114.399 243.199 113.144 244.629 111.914C245.008 111.579 245.386 111.244 245.764 110.907C246.607 110.156 246.607 110.156 247.266 110.156C247.362 109.866 247.459 109.576 247.559 109.277C247.849 109.374 248.139 109.471 248.438 109.57C248.275 111.278 247.931 112.759 247.348 114.369C247.26 114.615 247.173 114.861 247.082 115.115C245.384 119.804 243.467 124.416 241.605 129.042C237.904 137.959 237.904 137.959 235.309 147.235C235.251 147.515 235.193 147.794 235.133 148.082C233.019 158.684 233.973 169.841 236.013 180.385C236.192 181.386 236.311 182.389 236.426 183.399C235.506 183 234.997 182.585 234.375 181.806C232.623 179.733 230.532 177.968 228.479 176.202C222.367 170.875 218.966 165.24 217.383 157.324C215.256 157.518 213.129 157.711 210.938 157.91C210.817 158.593 210.696 159.276 210.571 159.979C210.529 160.214 210.488 160.448 210.445 160.69C210.207 162.029 209.979 163.369 209.76 164.711C209.709 165.017 209.659 165.322 209.606 165.637C209.506 166.244 209.407 166.851 209.31 167.459C209.241 167.876 209.241 167.876 209.169 168.301C209.129 168.551 209.089 168.8 209.047 169.056C208.994 169.245 208.941 169.434 208.887 169.629C208.693 169.726 208.5 169.822 208.301 169.922C206.023 168.329 203.801 166.715 201.68 164.915C200.987 164.364 200.281 163.914 199.512 163.477C199.44 163.686 199.368 163.895 199.294 164.111C198.293 166.368 196.336 168.242 194.451 169.794C193.934 170.208 193.934 170.208 193.476 170.709C193.066 171.094 193.066 171.094 192.48 171.094C192.48 171.287 192.48 171.481 192.48 171.68C192.679 171.747 192.878 171.815 193.082 171.885C194.158 172.359 195.077 173.001 196.033 173.676C196.454 173.969 196.875 174.262 197.296 174.556C197.516 174.709 197.735 174.862 197.961 175.02C199.071 175.794 200.189 176.556 201.306 177.319C201.536 177.477 201.766 177.634 202.002 177.796C204.103 179.232 206.205 180.665 208.308 182.097C209.852 183.15 211.394 184.206 212.933 185.266C214.569 186.393 216.209 187.514 217.852 188.63C218.468 189.05 219.083 189.47 219.698 189.892C221.24 190.947 222.787 191.985 224.368 192.981C225.135 193.466 225.897 193.957 226.658 194.45C227.027 194.686 227.398 194.918 227.772 195.146C228.295 195.465 228.809 195.797 229.322 196.132C229.619 196.319 229.917 196.505 230.223 196.696C231.18 197.846 230.99 198.952 230.859 200.391C226.316 199.663 221.86 198.741 217.401 197.608C217.1 197.532 216.799 197.456 216.489 197.378C210.618 195.895 204.814 194.226 199.038 192.407C198.337 192.187 197.635 191.967 196.934 191.748C191.259 189.972 185.661 188.045 180.109 185.916C179.597 185.726 179.597 185.726 179.073 185.531C178.125 185.156 178.125 185.156 177.344 184.748C174.616 183.419 172.076 184.515 169.336 185.339C168.842 185.482 168.347 185.623 167.853 185.764C167.612 185.832 167.372 185.901 167.124 185.971C166.887 186.038 166.65 186.106 166.406 186.175C166.171 186.242 165.935 186.309 165.692 186.378C161.983 187.427 158.545 187.606 154.706 187.592C154.434 187.591 154.163 187.591 153.883 187.591C149.214 187.581 144.664 187.286 140.039 186.621C139.805 186.588 139.571 186.556 139.33 186.522C138.458 186.4 137.587 186.274 136.718 186.133C136.46 186.1 136.203 186.068 135.938 186.035C135.509 185.973 135.509 185.973 135.072 185.909C133.746 186.096 133.188 186.848 132.312 187.811C131.974 188.166 131.636 188.52 131.297 188.873C131.136 189.043 130.975 189.213 130.81 189.388C129.94 190.292 128.985 191.088 128.027 191.895C127.386 192.443 126.745 192.993 126.105 193.543C125.747 193.85 125.388 194.157 125.03 194.464C124.757 194.698 124.757 194.698 124.478 194.937C124.114 195.249 123.75 195.56 123.386 195.871C117.159 201.186 111.55 206.897 106.292 213.168C106.111 213.381 105.93 213.593 105.743 213.812C105.595 213.989 105.447 214.167 105.294 214.349C104.883 214.746 104.883 214.746 104.004 215.039C104.373 212.715 104.805 210.414 105.301 208.113C105.438 207.465 105.576 206.818 105.713 206.17C105.784 205.836 105.855 205.502 105.928 205.158C107.891 195.88 109.393 186.701 110.156 177.246C109.928 177.158 109.7 177.07 109.465 176.979C107.116 176.011 105.475 174.177 104.297 171.973C103.894 170.929 103.894 170.929 103.711 170.215C103.457 170.191 103.203 170.167 102.942 170.142C98.659 169.19 95.308 163.591 92.8711 160.254C92.7358 160.07 92.6005 159.886 92.4611 159.697C91.0641 157.796 89.7263 155.86 88.4399 153.882C88.3254 153.707 88.2109 153.532 88.0929 153.352C87.3047 152.122 87.3047 152.122 87.3047 151.465C87.1019 151.398 86.8991 151.33 86.6901 151.261C85.6559 150.796 84.8294 150.158 83.9539 149.451C83.775 149.308 83.5961 149.165 83.4118 149.018C78.2819 144.894 73.1514 140.481 68.8671 135.471C68.3803 134.904 67.8878 134.344 67.3908 133.786C65.2647 131.386 63.331 128.918 61.5234 126.27C62.6176 125.54 63.7007 125.356 64.9673 125.096C65.2301 125.04 65.493 124.984 65.7639 124.927C66.6404 124.742 67.5174 124.56 68.3945 124.378C69.0151 124.248 69.6357 124.117 70.2562 123.987C72.2275 123.573 74.1996 123.163 76.1719 122.754C76.8049 122.622 77.4379 122.491 78.071 122.359C82.1702 121.507 86.271 120.663 90.3722 119.82C91.661 119.555 92.9497 119.29 94.2383 119.025C97.62 118.328 101.002 117.634 104.385 116.943C105.467 116.722 106.549 116.5 107.632 116.278C108.827 116.032 110.022 115.788 111.217 115.545C111.641 115.459 112.065 115.372 112.488 115.285C116.099 114.539 119.661 114.138 123.34 113.965C123.9 113.933 124.46 113.901 125.02 113.869C129.049 113.653 133.075 113.637 137.109 113.672C137.158 113.519 137.206 113.366 137.256 113.208C140.399 103.503 145.732 89.1711 155.273 84.0821C157.404 83.0926 159.547 83.3266 161.719 84.0821ZM154.392 89.3247C149.534 94.4358 141.504 106.51 141.504 113.965C143.52 114.049 145.537 114.133 147.553 114.215C148.238 114.243 148.922 114.272 149.607 114.301C154.782 114.529 154.782 114.529 159.961 114.551C159.89 114.287 159.89 114.287 159.818 114.017C157.469 105.151 156.437 96.7747 157.324 87.5977C156.118 87.5977 155.227 88.5372 154.392 89.3247ZM242.578 116.895C242.481 117.185 242.385 117.475 242.285 117.774C242.092 117.774 241.898 117.774 241.699 117.774C240.648 118.753 239.695 119.82 238.733 120.886C237.628 122.104 236.496 123.282 235.327 124.439C234.272 125.483 233.268 126.543 232.305 127.672C231.709 128.354 231.096 129.015 230.478 129.677C229.005 131.253 227.607 132.861 226.255 134.544C225.254 135.752 224.187 136.896 223.12 138.047C222.306 138.929 221.516 139.828 220.735 140.74C220.312 141.211 220.312 141.211 219.58 141.87C219.074 142.34 219.074 142.34 219.172 142.935C219.54 143.806 220.062 144.091 220.844 144.617C222.141 145.522 223.383 146.461 224.597 147.473C224.891 147.717 225.185 147.961 225.488 148.213C226.172 148.828 226.172 148.828 226.465 149.414C223.159 148.087 219.92 146.663 216.705 145.129C216.051 144.819 215.396 144.509 214.741 144.199C214.302 143.991 213.862 143.782 213.423 143.574C211.386 142.608 209.34 141.661 207.294 140.717C204.297 139.331 201.319 137.909 198.348 136.469C195.751 135.214 193.137 133.998 190.511 132.805C188.674 131.966 186.861 131.086 185.057 130.179C180.095 127.683 175.097 125.258 170.1 122.832C169.625 122.601 169.15 122.37 168.675 122.139C167.525 121.58 166.373 121.028 165.216 120.483C164.845 120.303 164.845 120.303 164.466 120.119C160.418 118.246 156.134 118.161 151.758 118.012C151.45 118 151.143 117.989 150.826 117.977C131.809 117.131 131.809 117.131 112.965 119.254C112.509 119.345 112.054 119.436 111.598 119.526C110.14 119.817 108.683 120.113 107.227 120.41C106.732 120.511 106.237 120.611 105.742 120.712C101.636 121.547 97.5313 122.395 93.4271 123.243C91.8763 123.563 90.3253 123.883 88.7741 124.202C88.5249 124.253 88.2757 124.304 88.0189 124.357C83.2016 125.345 78.3728 126.265 73.5352 127.149C73.5352 127.342 73.5352 127.535 73.5352 127.734C73.9129 127.801 74.2907 127.867 74.6799 127.935C85.7878 129.883 96.8318 131.977 107.776 134.711C108.047 134.778 108.318 134.846 108.597 134.916C111.586 135.665 114.549 136.452 117.48 137.402C114.2 137.208 110.967 136.704 107.721 136.212C107.406 136.165 107.092 136.118 106.768 136.069C101.594 135.29 96.4337 134.438 91.2746 133.568C90.9621 133.515 90.6496 133.462 90.3275 133.408C87.1443 132.871 83.9616 132.33 80.7795 131.786C79.5705 131.58 78.3614 131.374 77.1523 131.168C76.3074 131.024 75.4628 130.879 74.6181 130.733C74.1055 130.646 73.5929 130.558 73.0803 130.471C72.8496 130.431 72.619 130.391 72.3814 130.35C71.2901 130.166 70.2482 130.031 69.1406 130.078C70.4487 131.992 72.0113 133.616 73.656 135.24C74.0832 135.662 74.508 136.086 74.9325 136.51C76.3071 137.88 77.7012 139.213 79.1742 140.476C79.9319 141.129 80.6587 141.811 81.3904 142.493C81.6953 142.768 82.0005 143.044 82.3059 143.319C82.8897 143.846 83.4386 144.381 83.9905 144.944C85.4385 146.333 85.4385 146.333 87.3206 146.846C87.6504 146.812 87.9801 146.779 88.3198 146.744C88.5071 146.727 88.6945 146.709 88.8875 146.691C89.5326 146.629 90.1763 146.557 90.8203 146.484C91.3142 146.432 91.8082 146.38 92.3021 146.328C93.3955 146.211 94.4885 146.091 95.5812 145.967C103.675 145.056 111.726 144.413 119.873 144.331C120.329 144.326 120.785 144.32 121.241 144.311C128.737 144.186 134.924 146.838 141.352 150.465C142.361 151.031 143.377 151.579 144.397 152.124C144.692 152.283 144.988 152.441 145.292 152.605C145.492 152.712 145.692 152.819 145.898 152.93C145.832 153.442 145.766 153.954 145.698 154.466C145.629 155.069 145.578 155.674 145.536 156.28C144.984 163.14 144.984 163.14 142.781 165.07C140.16 166.834 136.893 167.575 133.873 168.361C132.472 168.728 131.102 169.164 129.73 169.628C129.311 169.769 128.893 169.91 128.474 170.051C128.274 170.119 128.074 170.186 127.869 170.256C126.367 170.756 124.856 171.227 123.34 171.68C123.151 171.738 122.963 171.796 122.769 171.856C119.589 172.473 116.005 171.86 112.811 171.533C112.38 171.491 111.948 171.448 111.516 171.406C110.477 171.304 109.438 171.2 108.398 171.094C110.603 173.796 112.819 175.343 116.359 175.719C118.107 175.85 119.86 175.836 121.612 175.841C121.824 175.842 122.037 175.843 122.256 175.843C123.387 175.848 124.518 175.85 125.649 175.852C126.564 175.853 127.479 175.857 128.393 175.864C134.585 175.908 140.624 175.646 146.777 174.902C147.214 174.851 147.214 174.851 147.66 174.799C149.115 174.628 150.565 174.437 152.013 174.214C152.466 174.146 152.92 174.083 153.374 174.024C155.948 173.775 155.948 173.775 158.198 172.666C158.596 172.058 158.837 171.484 159.082 170.801C159.317 170.325 159.554 169.851 159.794 169.378C163.541 161.324 167.451 151.368 165.601 142.397C165.549 142.132 165.497 141.867 165.443 141.594C165.278 140.758 165.11 139.922 164.941 139.087C164.773 138.247 164.605 137.407 164.44 136.567C164.337 136.047 164.233 135.527 164.127 135.008C163.874 133.734 163.71 132.557 163.77 131.25C165.413 135.341 167.032 139.444 168.53 143.591C168.646 143.898 168.761 144.204 168.88 144.52C170.174 148.177 169.067 151.402 168.146 155.035C168.058 155.385 168.058 155.385 167.968 155.742C166.648 160.966 165.045 166.013 162.752 170.899C162.262 171.944 161.919 172.89 161.719 174.024C177.473 181.021 193.684 187.089 210.315 191.657C210.563 191.725 210.811 191.793 211.066 191.863C213.549 192.543 216.02 193.194 218.555 193.652C217.14 192.456 215.594 191.467 214.05 190.448C213.409 190.023 212.768 189.597 212.127 189.171C211.874 189.003 211.874 189.003 211.617 188.832C209.876 187.674 208.145 186.502 206.416 185.328C205.858 184.95 205.301 184.572 204.744 184.195C202.971 182.993 201.198 181.791 199.426 180.588C198.04 179.647 196.653 178.708 195.266 177.769C194.725 177.402 194.183 177.035 193.642 176.667C190.819 174.749 187.983 172.88 185.059 171.12C182.511 169.578 180.055 167.9 177.594 166.223C177.128 165.907 176.662 165.591 176.196 165.276C173.606 163.519 171.026 161.748 168.457 159.961C168.848 158.984 169.238 158.008 169.629 157.031C172.236 158.614 174.835 160.208 177.417 161.83C178.605 162.576 179.796 163.318 180.987 164.058C181.64 164.465 182.292 164.874 182.943 165.283C183.946 165.913 184.954 166.535 185.962 167.157C186.274 167.354 186.586 167.552 186.908 167.755C187.198 167.933 187.489 168.111 187.788 168.293C188.044 168.453 188.3 168.612 188.564 168.776C189.24 169.119 189.24 169.119 189.873 168.851C190.428 168.458 190.933 168.056 191.433 167.595C191.618 167.426 191.802 167.256 191.992 167.082C192.945 166.183 193.89 165.275 194.824 164.356C195.059 164.127 195.295 163.899 195.537 163.663C197.237 161.78 197.441 159.463 197.754 157.031C198.926 157.499 199.697 158.323 200.558 159.213C200.711 159.368 200.864 159.523 201.021 159.683C201.508 160.177 201.993 160.673 202.478 161.17C203.118 161.825 203.76 162.479 204.403 163.131C204.55 163.283 204.697 163.435 204.849 163.592C205.207 163.955 205.581 164.303 205.957 164.649C206.15 164.649 206.344 164.649 206.543 164.649C206.878 163.283 207.211 161.916 207.544 160.55C207.658 160.085 207.771 159.62 207.885 159.155C208.049 158.488 208.212 157.82 208.374 157.153C208.451 156.84 208.451 156.84 208.529 156.521C208.795 155.47 208.795 155.47 208.887 154.395C209.08 154.395 209.273 154.395 209.473 154.395C209.473 154.685 209.473 154.975 209.473 155.274C212.077 155.105 214.623 154.688 217.191 154.24C217.879 154.12 218.567 154.002 219.256 153.885C219.701 153.808 220.146 153.731 220.591 153.654C220.793 153.62 220.995 153.585 221.203 153.55C222.585 153.307 223.935 152.989 225.293 152.637C223.884 154.518 222.477 155.54 220.312 156.445C221.021 162.75 222.901 166.593 227.344 171.094C227.77 171.532 228.197 171.97 228.623 172.408C229.045 172.837 229.467 173.266 229.889 173.694C230.089 173.898 230.289 174.102 230.495 174.312C230.777 174.594 230.777 174.594 231.064 174.882C231.23 175.049 231.396 175.216 231.566 175.388C232.053 175.849 232.053 175.849 232.91 176.074C232.876 175.807 232.842 175.54 232.807 175.265C232.68 174.259 232.552 173.252 232.426 172.246C232.371 171.813 232.316 171.381 232.261 170.948C231.294 163.344 230.539 155.196 232.324 147.656C232.419 147.239 232.419 147.239 232.515 146.812C234.391 138.648 237.317 130.864 240.516 123.141C241.37 121.079 242.211 119.029 242.871 116.895C242.774 116.895 242.678 116.895 242.578 116.895ZM91.4062 150C91.5524 151.487 92.2857 152.482 93.1091 153.681C93.2377 153.874 93.3663 154.067 93.4988 154.266C94.2128 155.322 94.8797 156.11 95.8008 157.031C95.7041 155.194 95.6074 153.358 95.5078 151.465C95.8216 151.803 96.1355 152.142 96.4588 152.49C96.8681 152.93 97.2774 153.369 97.6868 153.809C97.8939 154.032 98.1011 154.256 98.3145 154.486C98.5118 154.698 98.7091 154.909 98.9124 155.127C99.095 155.323 99.2776 155.52 99.4657 155.722C99.8349 156.187 99.8349 156.187 100.195 156.152C100.274 153.858 99.97 151.678 99.6094 149.414C100.969 150.672 102.002 152.099 103.07 153.607C103.333 153.975 103.333 153.975 103.601 154.349C104.029 154.95 104.457 155.551 104.883 156.152C105.076 156.056 105.27 155.959 105.469 155.859C105.565 153.926 105.662 151.992 105.762 150C106.052 150 106.342 150 106.641 150C106.715 150.202 106.789 150.403 106.866 150.611C108.061 153.441 109.856 156.282 111.621 158.789C111.718 158.789 111.814 158.789 111.914 158.789C111.914 155.889 111.914 152.988 111.914 150C113.558 151.644 113.558 151.644 114.27 152.495C114.422 152.674 114.573 152.853 114.729 153.037C115.041 153.409 115.353 153.782 115.665 154.154C116.458 155.143 116.458 155.143 117.48 155.859C118.026 153.715 118.23 151.621 118.359 149.414C119.314 150.051 119.457 150.323 119.901 151.339C120.017 151.602 120.133 151.864 120.253 152.134C120.371 152.409 120.49 152.684 120.612 152.966C120.733 153.243 120.855 153.52 120.981 153.805C121.281 154.489 121.579 155.174 121.875 155.859C122.664 155.465 122.709 155.089 123.031 154.277C123.187 153.886 123.187 153.886 123.346 153.487C123.452 153.212 123.559 152.938 123.669 152.655C123.779 152.382 123.888 152.109 124 151.827C124.579 150.512 124.579 150.512 124.805 149.121C125.391 149.414 125.391 149.414 125.663 150.088C125.754 150.379 125.846 150.671 125.94 150.971C126.041 151.286 126.142 151.6 126.247 151.925C126.457 152.595 126.668 153.265 126.878 153.935C126.98 154.25 127.081 154.564 127.185 154.889C127.322 155.326 127.322 155.326 127.462 155.771C127.667 156.492 127.667 156.492 128.32 156.738C128.699 155.939 129.078 155.139 129.456 154.34C129.562 154.114 129.669 153.889 129.779 153.657C130.303 152.547 130.813 151.441 131.25 150.293C131.443 150.293 131.637 150.293 131.836 150.293C131.854 150.562 131.871 150.831 131.89 151.108C132.056 153.934 132.056 153.934 132.422 156.738C132.615 156.835 132.809 156.932 133.008 157.031C133.499 156.319 133.986 155.605 134.473 154.889C134.612 154.687 134.752 154.485 134.896 154.276C135.028 154.081 135.16 153.885 135.297 153.684C135.419 153.504 135.542 153.325 135.669 153.14C136.007 152.603 136.007 152.603 135.938 151.758C131.082 149.362 126.899 147.891 121.417 147.894C121.123 147.894 121.123 147.894 120.822 147.895C111.011 147.913 101.123 148.642 91.4062 150ZM135.938 156.152C135.938 157.796 135.938 159.44 135.938 161.133C133.923 159.833 133.923 159.833 133.291 159.424C132.292 158.776 132.292 158.776 131.25 158.203C131.25 159.75 131.25 161.297 131.25 162.891C130.211 161.851 129.292 160.858 128.375 159.723C128.144 159.437 127.912 159.151 127.674 158.857C127.5 158.641 127.327 158.425 127.148 158.203C126.528 158.436 126.528 158.436 126.344 158.982C126.277 159.187 126.21 159.392 126.141 159.604C126.029 159.938 126.029 159.938 125.915 160.278C125.838 160.512 125.762 160.746 125.684 160.986C125.533 161.448 125.381 161.909 125.226 162.369C125.126 162.677 125.126 162.677 125.023 162.991C124.805 163.477 124.805 163.477 124.219 163.77C124.097 163.449 124.097 163.449 123.973 163.122C123.433 161.825 122.709 160.642 122.003 159.43C121.855 159.171 121.706 158.912 121.553 158.646C121.411 158.401 121.269 158.156 121.123 157.905C120.993 157.681 120.864 157.457 120.73 157.226C120.572 156.985 120.572 156.985 120.41 156.738C120.313 156.738 120.217 156.738 120.117 156.738C119.827 159.349 119.537 161.959 119.238 164.649C118.948 164.649 118.658 164.649 118.359 164.649C118.256 164.42 118.256 164.42 118.15 164.186C117.649 163.242 117.046 162.375 116.437 161.499C116.316 161.323 116.195 161.146 116.071 160.965C115.768 160.527 115.453 160.097 115.137 159.668C115.04 159.668 114.943 159.668 114.844 159.668C114.65 161.408 114.457 163.149 114.258 164.941C113.004 164.523 112.606 163.577 111.932 162.506C111.134 161.248 110.394 160.09 109.277 159.082C108.844 159.95 108.881 160.792 108.82 161.755C108.795 162.131 108.77 162.506 108.745 162.893C108.727 163.182 108.71 163.472 108.691 163.77C107.535 162.663 106.551 161.487 105.579 160.217C105.301 159.856 105.022 159.495 104.743 159.135C104.622 158.977 104.501 158.819 104.376 158.656C103.986 158.181 103.567 157.752 103.125 157.324C103.283 158.532 103.48 159.721 103.722 160.915C103.775 161.176 103.828 161.437 103.882 161.706C103.922 161.904 103.963 162.101 104.004 162.305C103.865 162.191 103.726 162.077 103.583 161.96C102.955 161.446 102.326 160.932 101.697 160.419C101.478 160.24 101.259 160.06 101.034 159.876C100.825 159.705 100.615 159.534 100.399 159.358C100.206 159.2 100.012 159.042 99.8132 158.879C99.3234 158.476 99.3234 158.476 98.7305 158.203C100.144 161.242 102.592 163.715 104.883 166.113C105.015 166.268 105.148 166.423 105.285 166.582C105.885 167.098 106.289 167.157 107.07 167.26C107.326 167.295 107.583 167.331 107.847 167.367C108.12 167.401 108.392 167.434 108.673 167.468C108.954 167.505 109.234 167.541 109.523 167.579C110.32 167.681 111.117 167.777 111.914 167.871C112.231 167.911 112.549 167.95 112.875 167.991C113.728 168.08 114.574 168.127 115.43 168.164C115.751 168.185 115.751 168.185 116.079 168.207C123.06 168.64 129.532 166.35 135.938 163.77C136.176 163.677 136.414 163.585 136.66 163.49C139.252 162.554 139.252 162.554 141.042 160.613C141.208 159.773 141.252 159.057 141.211 158.203C141.211 157.715 141.211 157.227 141.211 156.738C140.339 157.485 139.948 158.352 139.453 159.375C139.224 159.142 138.995 158.91 138.758 158.67C138.459 158.368 138.16 158.066 137.86 157.764C137.709 157.61 137.558 157.456 137.402 157.298C137.017 156.911 136.624 156.531 136.23 156.152C136.134 156.152 136.037 156.152 135.938 156.152ZM156.1 177.078C146.948 178.701 137.893 179.688 128.613 180.176C129.522 180.682 130.353 180.916 131.372 181.109C131.688 181.168 132.004 181.228 132.329 181.29C132.668 181.351 133.007 181.413 133.356 181.476C133.706 181.54 134.056 181.604 134.417 181.67C140.82 182.811 147.285 183.473 153.79 183.527C154.017 183.529 154.243 183.531 154.476 183.532C159.084 183.55 163.755 183.064 168.164 181.641C168.357 181.447 168.551 181.254 168.75 181.055C168.561 180.974 168.372 180.893 168.178 180.809C167.306 180.434 166.435 180.058 165.564 179.681C165.267 179.554 164.97 179.427 164.664 179.295C162.963 178.559 161.298 177.785 159.655 176.926C158.515 176.398 157.292 176.863 156.1 177.078ZM114.258 179.883C114.214 180.176 114.17 180.468 114.124 180.77C113.218 186.77 112.218 192.719 110.928 198.649C110.671 199.844 110.43 201.041 110.193 202.24C110.127 202.571 110.061 202.902 109.994 203.244C109.929 203.572 109.929 203.572 109.863 203.906C110.761 203.01 111.657 202.112 112.551 201.211C113.18 200.579 113.809 199.946 114.439 199.314C114.769 198.983 115.098 198.652 115.427 198.321C117.066 196.669 118.698 195.03 120.47 193.519C121.392 192.726 122.272 191.886 123.157 191.052C124.436 189.851 125.723 188.662 127.039 187.5C128.063 186.587 128.949 185.658 129.785 184.57C127.277 183.705 124.732 182.97 122.186 182.227C121.311 181.97 120.435 181.714 119.56 181.458C119.352 181.397 119.144 181.336 118.93 181.273C117.371 180.817 115.813 180.354 114.258 179.883Z" fill="black"/>
<path d="M144.727 130.957C144.727 131.15 144.727 131.344 144.727 131.543C144.015 132.014 143.302 132.45 142.566 132.88C140.835 133.903 139.141 134.964 137.479 136.097C137.139 136.327 136.798 136.557 136.458 136.787C135.952 137.129 135.447 137.473 134.946 137.823C134.473 138.153 133.995 138.476 133.517 138.799C133.242 138.988 132.967 139.178 132.684 139.373C131.278 139.991 130.201 139.597 128.796 139.111C128.46 138.971 128.124 138.831 127.778 138.686C127.596 138.611 127.413 138.535 127.226 138.458C126.844 138.299 126.462 138.138 126.081 137.977C125.501 137.732 124.92 137.491 124.338 137.25C121.256 135.964 121.256 135.964 119.824 135.059C122.251 132.115 127.91 131.734 131.442 131.361C135.871 130.938 140.28 130.886 144.727 130.957ZM126.888 133.978C126.68 134.058 126.472 134.137 126.258 134.219C126.044 134.302 125.831 134.386 125.61 134.473C125.392 134.557 125.174 134.64 124.949 134.727C124.412 134.933 123.876 135.142 123.34 135.352C123.575 135.976 123.575 135.976 124.141 136.165C124.357 136.236 124.572 136.307 124.794 136.379C125.029 136.457 125.263 136.534 125.504 136.614C125.751 136.693 125.997 136.772 126.251 136.853C126.497 136.934 126.742 137.015 126.995 137.099C128.219 137.534 128.219 137.534 129.492 137.695C129.396 136.342 129.299 134.988 129.199 133.594C128.193 133.594 127.773 133.636 126.888 133.978Z" fill="black"/>
<path d="M146.191 125.977C150.02 128.818 152.354 134.241 154.688 138.281C154.817 138.493 154.946 138.705 155.079 138.923C156.695 141.753 155.666 144.744 154.89 147.701C154.723 148.337 154.561 148.974 154.4 149.611C153.545 152.955 153.545 152.955 152.93 154.395C152.736 154.395 152.543 154.395 152.344 154.395C152.348 154.225 152.353 154.056 152.358 153.881C152.403 152.094 152.434 150.307 152.456 148.519C152.467 147.854 152.481 147.19 152.498 146.526C152.61 142.265 152.375 139.093 150.293 135.352C149.973 134.691 149.657 134.028 149.344 133.364C148.891 132.435 148.436 131.508 147.978 130.582C147.238 129.063 146.577 127.625 146.191 125.977Z" fill="black"/>
<path d="M157.324 128.613C158.136 129.313 158.435 129.957 158.783 130.964C158.888 131.26 158.992 131.556 159.099 131.861C159.208 132.179 159.318 132.497 159.43 132.825C160.42 135.683 160.42 135.683 161.533 138.494C162.807 141.525 163.496 143.967 163.234 147.255C163.176 148.051 163.147 148.845 163.12 149.643C163.039 151.926 162.938 154.206 162.77 156.484C162.742 156.884 162.742 156.884 162.713 157.291C162.675 157.495 162.637 157.7 162.598 157.91C162.308 158.055 162.308 158.055 162.012 158.203C161.69 157.559 161.653 157.144 161.601 156.43C161.573 156.06 161.573 156.06 161.544 155.683C161.525 155.415 161.505 155.146 161.485 154.869C161.441 154.295 161.396 153.72 161.351 153.146C161.327 152.844 161.304 152.543 161.28 152.232C160.866 146.998 160.34 141.923 159.082 136.816C158.92 136.139 158.759 135.461 158.598 134.783C158.361 133.787 158.122 132.793 157.875 131.8C157.803 131.51 157.731 131.221 157.657 130.923C157.593 130.667 157.529 130.411 157.462 130.148C157.324 129.492 157.324 129.492 157.324 128.613Z" fill="black"/>
<path d="M153.223 129.199C154.258 129.544 154.358 129.765 154.915 130.666C155.066 130.907 155.216 131.148 155.371 131.396C155.604 131.777 155.604 131.777 155.841 132.166C155.995 132.413 156.149 132.66 156.307 132.914C156.749 133.626 157.185 134.341 157.617 135.059C157.737 135.256 157.856 135.453 157.979 135.656C160.581 140.056 159.119 146.894 158.093 151.637C157.82 152.692 157.442 153.679 157.031 154.688C156.838 154.688 156.645 154.688 156.445 154.688C156.411 152.358 156.438 150.049 156.594 147.724C156.608 147.507 156.623 147.29 156.638 147.067C156.698 146.177 156.759 145.288 156.825 144.4C157.139 140.126 156.607 137.218 154.797 133.301C154.5 132.648 154.203 131.995 153.907 131.342C153.71 130.914 153.71 130.914 153.509 130.478C153.223 129.785 153.223 129.785 153.223 129.199Z" fill="black"/>
</svg>
