<svg width="300" height="300" viewBox="0 0 300 300" fill="none" xmlns="http://www.w3.org/2000/svg">
<path d="M194.531 66.2113C194.724 66.32 194.918 66.4287 195.117 66.5407C198.264 68.3358 200.963 70.4894 203.613 72.9496C203.875 73.1867 204.136 73.4239 204.405 73.6683C211.97 80.8423 216.342 90.841 218.335 100.928C218.379 101.15 218.424 101.371 218.469 101.6C219.404 106.711 219.515 111.838 219.486 117.017C219.485 117.715 219.483 118.412 219.482 119.11C219.479 120.599 219.475 122.089 219.469 123.578C219.46 125.734 219.455 127.891 219.452 130.047C219.446 133.552 219.439 137.056 219.43 140.561C219.429 140.77 219.428 140.979 219.428 141.194C219.421 143.527 219.415 145.86 219.407 148.194C219.405 149.042 219.402 149.891 219.399 150.74C219.398 151.054 219.399 151.054 219.398 151.374C219.387 154.871 219.379 158.368 219.375 161.865C219.371 164.206 219.364 166.548 219.353 168.889C219.348 170.345 219.346 171.8 219.345 173.256C219.344 173.929 219.341 174.603 219.337 175.276C219.331 176.197 219.331 177.118 219.332 178.039C219.327 178.436 219.327 178.436 219.323 178.841C219.336 181.208 219.933 183.343 220.969 185.469C221.092 185.727 221.215 185.985 221.342 186.25C221.539 186.661 221.539 186.661 221.741 187.079C227.625 199.644 231.606 212.924 234.521 226.465C234.592 226.791 234.592 226.791 234.663 227.124C235.164 229.467 235.626 231.816 236.05 234.174C236.088 234.382 236.126 234.591 236.166 234.806C236.333 235.76 236.426 236.624 236.426 237.598C230.137 237.723 224.031 236.531 217.969 234.961C217.737 234.903 217.505 234.845 217.266 234.785C208.11 232.471 199.475 227.806 192.48 221.485C192.234 221.265 192.234 221.265 191.983 221.04C190.075 219.335 188.238 217.614 186.621 215.625C186.364 215.324 186.108 215.023 185.851 214.721C178.922 206.467 173.105 195.364 174.023 184.278C174.574 179.051 176.398 174.238 180.28 170.547C184.885 166.833 190.479 165.446 196.294 165.505C196.759 165.507 196.759 165.507 197.234 165.51C197.994 165.514 198.753 165.52 199.512 165.528C199.525 157.582 199.536 149.636 199.542 141.69C199.545 138.001 199.549 134.311 199.556 130.621C199.562 127.404 199.566 124.187 199.567 120.97C199.568 119.267 199.569 117.565 199.574 115.863C199.578 114.258 199.579 112.653 199.578 111.048C199.578 110.461 199.579 109.875 199.582 109.289C199.62 98.9224 196.943 90.1446 189.729 82.5044C182.219 74.9733 172.031 73.108 161.81 72.7848C161.434 72.7721 161.057 72.7595 160.669 72.7464C159.749 72.7157 158.83 72.6858 157.91 72.6566C157.911 72.8864 157.912 73.1163 157.913 73.353C157.932 78.9528 157.947 84.5526 157.956 90.1525C157.96 92.8605 157.966 95.5686 157.976 98.2766C157.985 100.638 157.991 102.999 157.993 105.36C157.994 106.61 157.997 107.859 158.003 109.109C158.009 110.286 158.011 111.464 158.01 112.642C158.01 113.072 158.012 113.503 158.015 113.934C158.059 119.884 158.059 119.884 155.988 122.058C155.812 122.25 155.636 122.441 155.455 122.638C154.98 123.047 154.98 123.047 154.395 123.047C154.395 123.241 154.395 123.434 154.395 123.633C153.985 124.036 153.985 124.036 153.406 124.512C147.774 129.333 143.347 135.642 139.746 142.09C139.542 142.454 139.542 142.454 139.334 142.824C134.781 151.022 130.334 160.888 132.897 170.398C134.61 176.142 138.327 180.492 143.509 183.41C150.398 187.097 158.967 187.765 166.448 185.557C167.432 185.248 168.402 184.916 169.371 184.567C170.215 184.278 170.215 184.278 170.801 184.278C171.149 184.975 171.181 185.509 171.253 186.286C172.561 199.316 177.869 210.519 187.057 219.861C187.443 220.254 187.822 220.655 188.199 221.057C192.524 225.581 198.09 229.156 203.613 232.032C203.897 232.179 203.897 232.179 204.185 232.33C214.401 237.568 225.704 239.796 237.012 241.114C237.637 243.53 238.188 245.954 238.678 248.401C238.744 248.72 238.81 249.039 238.878 249.367C238.94 249.676 239.002 249.985 239.066 250.303C239.122 250.579 239.177 250.854 239.235 251.137C239.364 252.01 239.396 252.83 239.355 253.711C238.77 254.297 237.605 254.066 236.803 254.074C236.565 254.077 236.327 254.08 236.081 254.083C223.587 254.2 211.261 252.99 198.926 251.075C198.926 252.041 198.926 253.008 198.926 254.004C191.578 254.004 184.23 254.004 176.66 254.004C176.563 253.811 176.467 253.618 176.367 253.418C176.961 252.056 177.666 251.647 179.004 251.075C179.91 250.881 179.91 250.881 180.908 250.763C181.286 250.718 181.664 250.673 182.054 250.627C184.647 250.353 187.245 250.124 189.844 249.903C189.619 249.871 189.394 249.838 189.162 249.805C181.111 248.629 173.747 246.554 166.301 243.197C165.469 242.847 164.628 242.561 163.77 242.286C163.723 242.446 163.677 242.607 163.629 242.772C162.952 245.071 162.192 247.339 161.426 249.61C161.794 249.682 162.163 249.755 162.543 249.829C166.604 250.748 166.604 250.748 168.091 252.1C168.457 252.832 168.457 252.832 168.164 254.004C158.786 254.004 149.408 254.004 139.746 254.004C140.039 252.539 140.039 252.539 140.522 252.037C143.435 250.445 147.713 250.5 150.97 250.159C151.666 250.085 152.362 250.011 153.058 249.935C153.486 249.889 153.914 249.843 154.342 249.799C155.429 249.69 155.429 249.69 156.445 249.317C156.745 248.68 157.014 248.051 157.272 247.396C157.349 247.204 157.426 247.011 157.506 246.813C157.669 246.405 157.83 245.997 157.992 245.588C158.238 244.962 158.489 244.339 158.74 243.715C158.898 243.319 159.055 242.922 159.212 242.526C159.288 242.339 159.363 242.152 159.44 241.96C159.761 241.139 159.961 240.539 159.961 239.649C159.305 239.158 158.659 238.724 157.965 238.294C155.974 237.013 154.135 235.635 152.344 234.082C152.118 233.889 151.892 233.696 151.659 233.496C148.096 230.371 144.725 227.032 141.912 223.21C141.468 222.607 141.015 222.011 140.563 221.414C138.343 218.448 136.476 215.392 134.766 212.11C134.563 211.731 134.36 211.352 134.157 210.973C127.579 198.488 124.881 183.847 127.441 169.922C127.48 169.712 127.518 169.502 127.558 169.285C127.881 167.524 128.217 165.766 128.558 164.008C128.629 163.639 128.629 163.639 128.701 163.263C131.504 148.714 138.726 136.185 148.38 125.087C148.949 124.42 149.48 123.751 150 123.047C123.2 124.891 96.3909 128.738 63.5313 142.021C62.77 142.351 62.0073 142.677 61.2442 143.003C58.2332 144.302 55.3429 145.787 52.4543 147.337C49.107 149.121 49.107 149.121 48.6328 149.121C48.6377 147.159 48.654 145.196 48.6775 143.233C48.6842 142.569 48.6885 141.904 48.6901 141.24C48.7313 126.952 54.6625 114.742 64.3616 104.451C65.0363 103.743 65.0363 103.743 65.5334 103.027C65.6603 102.866 65.7872 102.705 65.918 102.539C66.1113 102.539 66.3047 102.539 66.5039 102.539C66.6973 102.153 66.8906 101.766 67.0898 101.368C67.2832 101.368 67.4766 101.368 67.6758 101.368C67.6758 101.174 67.6758 100.981 67.6758 100.782C68.034 100.41 68.034 100.41 68.573 99.9576C69.3801 99.2749 70.1816 98.5889 70.9682 97.8828C90.4327 80.5156 119.481 70.6585 147.527 69.3355C147.763 69.3278 147.998 69.3201 148.241 69.3121C149.383 69.2748 150.522 69.2507 151.665 69.254C154.525 69.2094 156.091 68.5419 158.233 66.6558C159.355 65.6812 160.545 65.0103 161.865 64.3436C162.103 64.2218 162.34 64.1 162.585 63.9745C172.534 58.9944 185.109 60.8443 194.531 66.2113ZM89.9414 88.4769C89.5981 88.6562 89.5981 88.6562 89.2479 88.8391C87.1092 89.7689 87.1092 89.7689 85.6084 91.345C85.5235 92.2389 85.8064 92.6936 86.2278 93.4826C86.3826 93.7763 86.5374 94.0701 86.6969 94.3728C86.9525 94.8442 86.9525 94.8442 87.2131 95.3251C87.3856 95.6495 87.558 95.974 87.7356 96.3083C88.2714 97.3134 88.8126 98.3154 89.3555 99.3168C89.5199 99.6212 89.6844 99.9255 89.8539 100.239C90.5864 101.593 91.3226 102.946 92.0643 104.295C92.1938 104.532 92.3233 104.77 92.4567 105.014C92.7557 105.554 93.0624 106.089 93.3736 106.622C93.5375 106.907 93.7013 107.192 93.8702 107.486C94.0979 107.874 94.0979 107.874 94.3303 108.27C94.6289 108.985 94.6289 108.985 94.5809 109.627C94.1565 110.544 93.2407 110.917 92.395 111.402C87.6369 114.254 83.1064 117.491 78.8086 120.996C78.5348 121.214 78.261 121.432 77.9789 121.656C76.161 123.112 74.4435 124.657 72.7444 126.248C72.0913 126.86 71.4314 127.462 70.7645 128.059C70.5215 128.277 70.5215 128.277 70.2735 128.5C69.825 128.902 69.3753 129.303 68.9255 129.704C68.2024 130.332 68.2024 130.332 67.9688 131.25C67.7754 131.25 67.582 131.25 67.3828 131.25C66.9226 131.694 66.9226 131.694 66.449 132.276C66.2692 132.487 66.0894 132.699 65.9042 132.917C65.7154 133.14 65.5266 133.364 65.332 133.594C64.9484 134.034 64.5639 134.474 64.1785 134.912C63.9207 135.207 63.9207 135.207 63.6578 135.508C63.5335 135.65 63.4093 135.792 63.2812 135.938C63.4746 136.035 63.668 136.131 63.8672 136.231C64.6229 135.91 64.6229 135.91 65.4819 135.422C65.8153 135.241 66.1487 135.06 66.4921 134.873C66.6699 134.775 66.8476 134.677 67.0308 134.576C67.5901 134.268 68.1509 133.964 68.7124 133.66C69.4747 133.247 70.2366 132.834 70.998 132.42C97.7398 117.871 124.531 112.193 154.688 108.985C154.688 97.0931 154.688 85.2015 154.688 72.9496C142.607 66.9091 100.638 82.825 89.9414 88.4769Z" fill="black"/>
<path d="M183.706 85.1953C186.831 87.3725 189.129 90.2103 189.844 94.0427C190.122 97.8145 189.373 101.044 187.008 104.041C184.842 106.41 181.628 108.021 178.403 108.204C174.174 108.293 171.14 107.123 167.963 104.26C165.406 101.596 164.822 98.4582 164.88 94.9353C165.001 91.6972 166.476 88.8371 168.823 86.6269C173.113 83.0525 178.816 82.3084 183.706 85.1953ZM169.629 90.5271C168.078 92.7214 167.606 94.8935 167.871 97.5583C168.385 99.7867 169.302 101.667 171.094 103.125C173.93 104.827 176.543 105.729 179.849 104.986C182.515 104.117 184.709 102.404 186.035 99.9021C187.095 97.2953 187.219 95.087 186.339 92.4176C185.357 90.0925 183.565 88.4193 181.332 87.2941C176.823 85.5185 172.735 87.0857 169.629 90.5271Z" fill="black"/>
<path d="M179.886 90.5152C181.522 91.3731 182.826 92.5528 183.398 94.3363C183.593 96.1757 183.602 97.7494 182.519 99.3168C181.422 100.558 180.038 101.847 178.324 102.023C176.425 102.074 174.978 101.953 173.437 100.782C171.977 99.3723 171.064 98.2683 171.002 96.1857C171.029 94.1605 171.669 92.8821 173.089 91.4616C175.348 89.9115 177.331 89.4585 179.886 90.5152Z" fill="black"/>
</svg>
