<svg width="300" height="300" viewBox="0 0 300 300" fill="none" xmlns="http://www.w3.org/2000/svg">
<path d="M147.072 84.9097C147.696 84.9073 148.32 84.9041 148.945 84.8999C159.881 84.8343 169.426 86.936 177.832 94.336C178.097 94.5581 178.361 94.7801 178.633 95.0089C185.596 101.028 189.411 109.606 190.348 118.668C190.848 125.688 189.668 132.668 186.818 139.121C186.541 139.79 186.541 139.79 186.914 140.625C187.412 141.029 187.928 141.41 188.452 141.779C190.536 143.284 192.385 145.002 194.239 146.777C194.438 146.964 194.637 147.151 194.842 147.344C199.599 151.925 203.293 157.778 206.543 163.477C206.673 163.703 206.803 163.929 206.937 164.162C207.805 165.68 208.647 167.209 209.473 168.75C209.599 168.984 209.725 169.218 209.855 169.459C210.234 170.166 210.605 170.876 210.974 171.588C211.089 171.802 211.203 172.016 211.321 172.237C211.997 173.565 212.263 174.55 212.11 176.074C211.78 176.624 211.78 176.624 211.231 176.953C209.834 177.255 208.463 177.288 207.041 177.284C206.803 177.285 206.565 177.285 206.319 177.286C205.534 177.287 204.748 177.286 203.963 177.285C203.41 177.285 202.857 177.286 202.304 177.286C201.143 177.286 199.982 177.286 198.821 177.284C197.353 177.283 195.884 177.284 194.416 177.285C178.914 177.301 178.914 177.301 173.731 176.569C173.453 176.531 173.176 176.493 172.89 176.454C166.195 175.485 158.616 173.078 154.322 167.542C152.118 164.323 150.315 160.126 150.586 156.152C150.393 156.152 150.2 156.152 150 156.152C148.756 161.797 149.823 166.277 152.86 171.123C153.861 172.656 154.982 174.083 156.153 175.488C156.37 175.75 156.37 175.75 156.592 176.018C166.334 187.698 180.109 194.495 195.192 196.171C198.579 196.477 201.978 196.669 205.371 196.875C206.049 198.302 206.727 199.728 207.403 201.156C207.632 201.64 207.862 202.123 208.091 202.606C208.853 204.208 209.607 205.813 210.352 207.422C210.446 207.625 210.54 207.827 210.637 208.036C210.893 208.592 211.144 209.15 211.393 209.708C211.603 210.174 211.603 210.174 211.817 210.649C212.138 211.609 212.254 212.277 212.11 213.281C210.259 215.016 207.032 214.493 204.658 214.477C204.337 214.476 204.015 214.475 203.684 214.474C202.99 214.472 202.296 214.47 201.602 214.466C200.497 214.461 199.392 214.458 198.288 214.456C195.148 214.449 192.008 214.438 188.869 214.425C186.943 214.417 185.017 214.412 183.091 214.409C182.364 214.407 181.637 214.404 180.909 214.4C175.714 214.371 170.567 214.501 165.436 215.387C163.906 215.64 162.655 215.656 161.133 215.332C160.455 214.316 160.448 213.889 160.547 212.695C161.133 211.816 161.133 211.816 162.105 211.559C162.519 211.488 162.933 211.422 163.349 211.359C163.567 211.323 163.786 211.287 164.011 211.25C166.362 210.876 168.727 210.603 171.094 210.352C170.921 210.238 170.747 210.125 170.569 210.008C170.337 209.856 170.106 209.703 169.867 209.546C169.624 209.387 169.381 209.228 169.13 209.064C168.457 208.594 168.457 208.594 167.743 207.88C166.028 206.834 163.839 207.747 162.002 208.188C159.982 208.696 158.094 209.203 156.327 210.347C155.86 210.645 155.86 210.645 154.981 210.938C154.659 211.467 154.659 211.467 154.395 212.109C153.183 214.546 153.183 214.546 151.911 215.013C150.783 215.158 150.045 215.24 149.045 214.645C148.535 214.16 148.535 214.16 148.334 213.355C148.592 212.135 149.103 211.713 150.006 210.893C150.577 210.361 151.048 209.804 151.538 209.198C153.351 207.101 155.697 205.627 158.203 204.492C157.955 204.357 157.706 204.222 157.45 204.083C153.342 201.813 149.714 199.088 146.192 195.996C145.942 195.78 145.693 195.563 145.436 195.34C142.304 192.577 139.361 189.647 136.817 186.328C136.635 186.094 136.635 186.094 136.449 185.855C127.86 174.768 123.541 162.698 125.17 148.631C126.35 139.714 129.316 132.564 135.059 125.684C124.639 125.65 114.219 125.658 103.799 125.761C102.785 125.771 101.772 125.779 100.758 125.785C89.6997 125.857 79.4358 126.74 70.3128 133.594C68.3606 131.341 68.3756 127.645 68.4714 124.79C69.1379 115.56 75.0547 107.634 81.8118 101.732C84.6474 99.4163 87.6385 97.3211 90.8206 95.5079C91.0167 95.3951 91.2127 95.2822 91.4147 95.166C97.1008 91.9296 103.24 89.7797 109.571 88.1837C109.9 88.1006 109.9 88.1006 110.236 88.0159C122.212 85.0813 134.807 84.9532 147.072 84.9097ZM88.9529 102.016C86.6218 104.458 85.221 107.341 85.1993 110.724C85.1951 111.017 85.191 111.309 85.1867 111.611C85.2598 112.573 85.5007 113.358 85.8401 114.258C86.0194 114.18 86.1986 114.102 86.3833 114.021C99.0535 108.54 111.919 106.376 125.667 105.903C126.017 105.89 126.368 105.878 126.729 105.865C130.799 105.729 134.869 105.661 138.941 105.597C142.82 105.534 142.82 105.534 146.778 105.469C146.778 100.055 146.778 94.6407 146.778 89.0626C115.851 88.7359 115.851 88.7359 88.9529 102.016ZM150.293 91.6993C150.293 92.0195 150.292 92.3396 150.292 92.6695C150.287 95.6952 150.275 98.7208 150.255 101.746C150.245 103.302 150.237 104.857 150.236 106.412C150.235 107.915 150.226 109.418 150.213 110.92C150.209 111.492 150.208 112.063 150.209 112.635C150.221 118.81 150.221 118.81 148.062 121.235C146.573 122.712 144.479 123.542 142.507 124.164C138.897 125.344 136.462 129.156 134.766 132.422C133.156 136.006 132.184 140.019 133.521 143.848C134.795 146.897 137.052 149.323 140.066 150.71C146.236 153.157 152.096 153.03 158.199 150.523C161.837 148.945 164.809 146.974 167.578 144.141C167.773 143.956 167.967 143.771 168.168 143.58C173.84 137.793 175.272 127.144 175.268 119.438C175.166 111.785 172.817 104.417 167.578 98.7305C167.418 98.5463 167.257 98.362 167.091 98.1721C163.562 94.3479 158.657 92.1619 153.516 91.6993C152.954 91.6899 152.391 91.6873 151.829 91.6905C151.54 91.6918 151.252 91.693 150.955 91.6943C150.737 91.696 150.518 91.6976 150.293 91.6993ZM115.137 109.937C114.777 109.974 114.417 110.012 114.047 110.051C107.705 110.753 101.57 111.968 95.5081 113.965C95.2278 114.057 94.9476 114.149 94.6588 114.243C89.1449 116.078 81.4622 118.73 78.5159 124.219C78.5159 124.412 78.5159 124.606 78.5159 124.805C79.6122 124.631 80.4559 124.319 81.433 123.797C81.7082 123.651 81.9833 123.505 82.2668 123.355C82.5577 123.199 82.8487 123.043 83.1485 122.882C83.7603 122.56 84.3721 122.237 84.9841 121.915C85.7861 121.491 86.5878 121.066 87.3879 120.639C105.294 111.1 127.109 113.079 146.778 112.793C146.778 111.633 146.778 110.473 146.778 109.277C144.436 109.271 142.095 109.265 139.754 109.262C138.666 109.261 137.578 109.259 136.49 109.255C125.797 109.208 125.797 109.208 115.137 109.937Z" fill="black"/>
<path d="M170.57 180.099C170.951 180.097 171.332 180.095 171.725 180.093C172.148 180.093 172.572 180.094 172.995 180.095C173.44 180.094 173.885 180.092 174.33 180.09C175.54 180.087 176.75 180.086 177.96 180.087C178.97 180.087 179.98 180.086 180.99 180.085C183.372 180.081 185.755 180.081 188.137 180.083C190.595 180.085 193.053 180.081 195.512 180.075C197.621 180.07 199.731 180.068 201.841 180.069C203.102 180.069 204.362 180.069 205.622 180.065C206.808 180.061 207.993 180.062 209.179 180.065C209.614 180.066 210.049 180.065 210.484 180.063C211.078 180.06 211.672 180.063 212.266 180.066C212.765 180.066 212.765 180.066 213.273 180.066C214.276 180.19 214.823 180.447 215.625 181.054C216.064 181.897 216.064 181.897 216.211 182.812C215.863 183.636 215.863 183.636 215.332 184.277C214.368 184.598 213.658 184.608 212.642 184.609C212.263 184.61 211.884 184.612 211.494 184.613C211.072 184.613 210.651 184.613 210.23 184.613C209.788 184.613 209.345 184.614 208.902 184.616C207.699 184.618 206.495 184.619 205.292 184.619C204.288 184.619 203.284 184.62 202.28 184.621C199.912 184.624 197.543 184.625 195.175 184.624C192.731 184.624 190.286 184.627 187.842 184.632C185.744 184.636 183.646 184.637 181.548 184.637C180.295 184.637 179.042 184.638 177.788 184.641C176.61 184.644 175.431 184.644 174.253 184.642C173.82 184.641 173.387 184.642 172.955 184.644C172.364 184.646 171.774 184.644 171.184 184.642C170.688 184.643 170.688 184.643 170.182 184.643C169.343 184.571 168.866 184.437 168.164 183.984C167.545 183.188 167.58 182.776 167.633 181.75C168.045 180.037 169.008 180.102 170.57 180.099Z" fill="black"/>
<path d="M184.516 188.269C184.806 188.267 185.097 188.265 185.396 188.263C185.714 188.265 186.033 188.267 186.36 188.269C186.696 188.268 187.031 188.267 187.377 188.266C188.489 188.264 189.601 188.268 190.713 188.272C191.484 188.272 192.255 188.272 193.026 188.272C194.643 188.271 196.26 188.275 197.878 188.28C199.747 188.286 201.617 188.287 203.486 188.285C205.284 188.284 207.083 188.285 208.881 188.289C209.646 188.29 210.412 188.29 211.177 188.29C212.246 188.29 213.315 188.293 214.384 188.298C214.701 188.297 215.019 188.297 215.346 188.296C215.637 188.298 215.929 188.3 216.229 188.302C216.481 188.303 216.734 188.303 216.995 188.304C217.749 188.387 218.214 188.549 218.848 188.964C219.274 189.854 219.512 190.411 219.269 191.381C218.536 192.274 217.625 192.454 216.504 192.574C216.173 192.583 215.841 192.592 215.499 192.601C215.311 192.607 215.123 192.613 214.929 192.619C214.295 192.637 213.66 192.65 213.025 192.663C212.692 192.671 212.692 192.671 212.352 192.68C207.749 192.79 203.145 192.804 198.542 192.81C198.035 192.811 198.035 192.811 197.517 192.812C193.996 192.818 190.476 192.794 186.957 192.679C186.678 192.673 186.399 192.666 186.111 192.66C184.694 192.604 183.661 192.537 182.52 191.601C182.11 190.781 182.153 190.164 182.227 189.257C182.892 188.344 183.416 188.269 184.516 188.269Z" fill="black"/>
<path d="M163.275 98.5842C164.856 99.5153 166.039 100.895 166.827 102.539C167.246 104.774 167.06 106.471 165.82 108.399C164.502 109.846 163.17 110.898 161.182 111.134C158.865 111.164 157.296 110.929 155.574 109.326C154.064 107.707 153.367 106.294 153.444 104.026C153.67 102.089 154.463 100.762 155.897 99.4562C157.947 97.838 160.869 97.5311 163.275 98.5842ZM157.049 102.887C156.593 104.094 156.623 105.123 157.031 106.348C157.856 107.365 158.875 108.049 160.18 108.197C161.657 108.055 162.505 107.381 163.458 106.275C163.893 105.149 163.818 104.274 163.476 103.125C162.773 101.971 162.147 101.425 160.839 101.074C159.177 100.819 158.118 101.681 157.049 102.887Z" fill="black"/>
<path d="M221.485 195.996C222.912 197.529 223.694 199.455 224.596 201.321C224.984 202.115 225.379 202.906 225.775 203.696C226.152 204.448 226.525 205.202 226.897 205.956C227.084 206.332 227.271 206.707 227.46 207.081C228.49 209.124 229.4 210.95 229.395 213.281C228.784 214.087 228.346 214.136 227.362 214.324C226.129 214.098 225.681 213.387 225 212.402C224.516 211.563 224.096 210.698 223.681 209.824C223.562 209.579 223.443 209.334 223.321 209.081C222.945 208.303 222.572 207.524 222.199 206.744C221.947 206.224 221.696 205.704 221.444 205.183C220.541 203.313 219.639 201.441 218.777 199.551C218.681 199.342 218.586 199.133 218.487 198.918C218.163 198.086 218.095 197.458 218.262 196.582C219.191 195.43 220.147 195.614 221.485 195.996Z" fill="black"/>
<path d="M211.743 195.887C213.02 196.034 213.326 196.503 214.16 197.461C214.661 198.342 214.661 198.342 215.108 199.321C215.19 199.498 215.272 199.676 215.356 199.858C215.62 200.431 215.879 201.006 216.138 201.581C216.318 201.978 216.499 202.374 216.68 202.77C217.041 203.559 217.399 204.35 217.757 205.14C218.203 206.126 218.662 207.104 219.126 208.082C219.369 208.6 219.612 209.119 219.855 209.638C219.967 209.871 220.079 210.104 220.195 210.344C220.633 211.295 220.911 211.904 220.848 212.962C220.521 213.787 220.232 214.065 219.434 214.454C218.553 214.418 217.941 214.37 217.238 213.814C216.652 213.107 216.302 212.363 215.907 211.533C215.824 211.361 215.741 211.188 215.656 211.011C215.387 210.45 215.122 209.888 214.856 209.327C214.672 208.941 214.488 208.555 214.304 208.17C213.938 207.401 213.572 206.632 213.207 205.863C212.759 204.918 212.306 203.977 211.85 203.037C211.613 202.546 211.376 202.054 211.139 201.563C211.032 201.343 210.924 201.123 210.814 200.896C210.32 199.864 209.863 198.904 209.766 197.754C210.623 196.039 210.623 196.039 211.743 195.887Z" fill="black"/>
<path d="M160.401 102.85C161.426 103.125 161.426 103.125 162.012 103.637C162.305 104.297 162.305 104.297 162.287 105.047C161.945 105.935 161.695 106.224 160.84 106.64C159.809 106.619 159.286 106.531 158.515 105.835C158.203 105.176 158.203 105.176 158.24 104.425C158.706 103.125 158.972 102.825 160.401 102.85Z" fill="black"/>
</svg>
