<svg width="300" height="300" viewBox="0 0 300 300" fill="none" xmlns="http://www.w3.org/2000/svg">
<path d="M112.739 78.2569C116.155 81.1515 118.182 84.7381 119.239 89.0624C119.239 89.4491 119.239 89.8358 119.239 90.2343C139.542 90.2343 159.844 90.2343 180.762 90.2343C180.859 89.4608 180.956 88.6874 181.055 87.8905C182.285 83.4376 185.076 79.4106 189.081 77.0507C191.756 75.6206 194.436 74.6541 197.462 74.4139C197.652 74.3985 197.842 74.383 198.038 74.367C202.929 74.1571 207.442 76.0996 211.094 79.2628C214.68 82.8207 216.563 87.2641 216.614 92.3033C216.553 97.2199 214.632 101.533 211.181 104.993C207.753 108.174 203.649 110.199 198.926 110.156C198.932 110.727 198.932 110.727 198.938 111.31C198.974 114.901 199 118.492 199.017 122.082C199.027 123.928 199.039 125.774 199.059 127.62C199.078 129.402 199.089 131.184 199.093 132.966C199.096 133.645 199.103 134.325 199.112 135.004C199.125 135.957 199.127 136.909 199.126 137.861C199.132 138.141 199.139 138.422 199.145 138.711C199.129 140.444 198.804 141.363 197.603 142.627C197.169 142.969 197.169 142.969 196.583 142.969C196.516 143.132 196.45 143.295 196.381 143.463C195.887 144.334 195.274 144.937 194.532 145.605C194.338 145.605 194.145 145.605 193.946 145.605C193.753 145.992 193.559 146.379 193.36 146.777C193.167 146.777 192.973 146.777 192.774 146.777C192.661 147.038 192.661 147.038 192.546 147.305C192.154 148.011 191.767 148.374 191.144 148.883C189.569 150.217 187.94 151.621 186.728 153.301C186.596 153.469 186.465 153.636 186.329 153.808C186.135 153.808 185.942 153.808 185.743 153.808C185.671 153.976 185.599 154.143 185.524 154.315C185.096 155.091 184.592 155.621 183.967 156.248C183.733 156.482 183.5 156.717 183.259 156.958C183.015 157.2 182.771 157.441 182.52 157.69C182.276 157.937 182.032 158.183 181.781 158.436C181.431 158.785 181.431 158.785 181.074 159.141C180.859 159.355 180.645 159.568 180.425 159.788C179.883 160.254 179.883 160.254 179.297 160.254C179.157 160.003 179.157 160.003 179.013 159.747C177.197 156.514 175.367 153.291 173.493 150.091C172.007 147.555 170.537 145.009 169.08 142.456C168.983 142.285 168.885 142.114 168.785 141.938C168.288 141.068 167.792 140.198 167.296 139.328C166.311 137.599 165.325 135.871 164.338 134.143C164.241 133.973 164.144 133.803 164.044 133.628C162.096 130.218 160.134 126.816 158.169 123.415C157.41 122.101 156.653 120.785 155.895 119.47C155.171 118.214 154.446 116.959 153.72 115.704C153.25 114.89 152.783 114.075 152.317 113.259C152.051 112.798 151.786 112.338 151.52 111.877C151.402 111.669 151.284 111.461 151.163 111.246C150.89 110.775 150.594 110.317 150.294 109.863C150.1 109.863 149.907 109.863 149.708 109.863C149.59 110.068 149.472 110.272 149.351 110.483C145.408 117.332 145.408 117.332 143.848 119.971C139.96 126.554 136.192 133.209 132.406 139.852C130.285 143.574 128.152 147.288 125.988 150.985C124.303 153.867 122.647 156.765 120.997 159.668C119.658 159.668 119.426 159.406 118.511 158.503C118.343 158.331 118.175 158.16 118.002 157.983C117.822 157.804 117.643 157.625 117.458 157.44C116.863 156.847 116.273 156.249 115.683 155.651C115.272 155.238 114.861 154.826 114.449 154.414C113.586 153.549 112.726 152.682 111.867 151.814C110.764 150.7 109.658 149.589 108.551 148.478C107.497 147.422 106.445 146.364 105.393 145.306C105.191 145.103 104.989 144.9 104.781 144.691C104.212 144.119 103.644 143.545 103.077 142.972C102.907 142.801 102.737 142.631 102.563 142.455C101.514 141.392 101.038 140.884 101.04 139.398C101.039 139.141 101.039 138.883 101.038 138.618C101.04 138.194 101.04 138.194 101.042 137.761C101.042 137.464 101.041 137.167 101.041 136.861C101.042 135.875 101.044 134.889 101.046 133.903C101.047 133.22 101.047 132.538 101.047 131.856C101.049 130.057 101.051 128.259 101.055 126.46C101.058 124.626 101.059 122.792 101.061 120.958C101.064 117.358 101.069 113.757 101.075 110.156C100.753 110.159 100.432 110.161 100.101 110.164C95.7341 110.133 91.7023 107.872 88.6797 104.85C85.0208 100.925 83.2565 96.5171 83.4052 91.1715C83.6843 86.1408 86.0929 82.2043 89.649 78.8085C96.3132 73.2175 105.784 73.0216 112.739 78.2569ZM167.78 114.056C165.952 116.348 165.824 119.034 166.114 121.875C166.674 124.108 168.124 126.103 170.079 127.317C172.518 128.57 174.779 129.037 177.505 128.423C180.154 127.56 182.028 126.045 183.409 123.622C184.57 121.258 184.547 119.06 183.82 116.583C182.909 114.08 181.452 112.513 179.081 111.318C174.748 109.469 170.896 110.757 167.78 114.056ZM117.858 113.618C116.34 115.454 115.532 117.701 115.639 120.096C116.041 122.982 117.219 125.107 119.456 126.969C121.643 128.531 123.916 128.945 126.563 128.613C129.097 128.041 131.117 126.885 132.588 124.713C134.021 122.232 134.392 119.534 133.697 116.708C132.681 114.22 130.77 112.153 128.321 111.035C124.451 109.797 120.656 110.653 117.858 113.618Z" fill="black"/>
<path d="M79.1023 135.645C79.4777 135.923 79.8527 136.202 80.2276 136.481C80.4365 136.636 80.6454 136.792 80.8606 136.952C81.5701 137.498 82.2027 138.091 82.8323 138.727C83.0766 138.972 83.3209 139.217 83.5726 139.47C83.8278 139.729 84.083 139.988 84.346 140.255C84.756 140.668 85.166 141.08 85.576 141.492C86.1438 142.064 86.7103 142.637 87.2768 143.21C88.2752 144.22 89.2751 145.228 90.276 146.235C90.8076 146.77 91.3384 147.306 91.8684 147.843C92.1071 148.084 92.3459 148.324 92.5919 148.572C92.8021 148.785 93.0123 148.997 93.2289 149.216C93.7235 149.728 93.7235 149.728 94.3366 150C94.3366 150.193 94.3366 150.387 94.3366 150.586C94.53 150.586 94.7234 150.586 94.9226 150.586C94.9226 150.779 94.9226 150.973 94.9226 151.172C95.1159 151.172 95.3093 151.172 95.5085 151.172C96.1311 151.721 96.1311 151.721 96.6804 152.344C96.6804 152.537 96.6804 152.73 96.6804 152.93C96.8738 152.93 97.0671 152.93 97.2663 152.93C97.2663 153.123 97.2663 153.316 97.2663 153.516C97.5564 153.612 97.8464 153.709 98.1452 153.809C98.4798 154.136 98.8125 154.465 99.1366 154.802C100.205 155.866 101.377 156.824 102.515 157.811C130.94 182.662 130.94 182.662 131.666 193.312C131.795 196.948 131.255 200.61 130.508 204.161C129.595 208.632 129.637 213.076 129.678 217.624C129.683 218.196 129.683 218.196 129.688 218.78C129.709 220.951 129.741 223.122 129.786 225.293C123.221 225.338 116.656 225.381 110.091 225.423C107.043 225.442 103.995 225.462 100.947 225.483C98.2909 225.501 95.6352 225.519 92.9795 225.535C91.5725 225.543 90.1654 225.552 88.7584 225.563C87.4356 225.572 86.1128 225.581 84.79 225.588C84.3031 225.591 83.8161 225.594 83.3292 225.598C82.6673 225.603 82.0054 225.607 81.3435 225.61C80.7865 225.614 80.7865 225.614 80.2183 225.617C79.3952 225.586 79.3952 225.586 79.1023 225.293C79.0738 224.815 79.066 224.336 79.0662 223.857C79.0656 223.544 79.0651 223.231 79.0645 222.909C79.0653 222.561 79.0662 222.213 79.067 221.854C79.0668 221.488 79.0665 221.122 79.0663 220.744C79.0656 219.723 79.0668 218.701 79.0683 217.68C79.0695 216.58 79.0691 215.48 79.0689 214.38C79.0687 212.473 79.0696 210.566 79.0713 208.659C79.0737 205.902 79.0744 203.145 79.0748 200.388C79.0754 195.915 79.0774 191.442 79.0802 186.969C79.0829 182.623 79.0849 178.277 79.0862 173.93C79.0863 173.663 79.0863 173.395 79.0864 173.119C79.0868 171.776 79.0872 170.433 79.0875 169.09C79.0906 157.942 79.0957 146.793 79.1023 135.645Z" fill="black"/>
<path d="M220.605 135.938C220.605 165.425 220.605 194.912 220.605 225.293C204.073 225.293 187.541 225.293 170.508 225.293C168.591 201.59 168.591 201.59 168.921 195.68C168.933 195.461 168.945 195.241 168.956 195.015C169.516 185.086 173.404 178.931 180.667 172.276C181.234 171.77 181.802 171.266 182.373 170.764C182.655 170.515 182.938 170.267 183.229 170.01C186.28 167.35 189.419 164.819 192.715 162.466C194.815 160.964 196.71 159.286 198.529 157.456C198.677 157.308 198.825 157.159 198.978 157.007C199.294 156.689 199.611 156.371 199.927 156.052C200.429 155.546 200.932 155.041 201.435 154.536C202.504 153.465 203.571 152.392 204.638 151.318C205.877 150.073 207.115 148.829 208.355 147.585C208.847 147.091 209.338 146.597 209.829 146.102C211.265 144.659 212.711 143.248 214.259 141.925C214.932 141.343 215.558 140.72 216.182 140.086C216.424 139.841 216.667 139.597 216.916 139.345C217.161 139.097 217.405 138.848 217.657 138.593C218.154 138.089 218.651 137.586 219.148 137.083C219.474 136.753 219.474 136.753 219.805 136.416C220.312 135.938 220.312 135.938 220.605 135.938Z" fill="black"/>
<path d="M123.34 162.598C141.032 162.598 158.725 162.598 176.953 162.598C176.856 162.888 176.76 163.178 176.66 163.477C176.467 163.477 176.273 163.477 176.074 163.477C175.997 163.649 175.919 163.822 175.839 164C175.477 164.67 175.102 165.106 174.564 165.641C174.279 165.927 174.279 165.927 173.988 166.218C173.78 166.424 173.571 166.63 173.357 166.842C173.137 167.061 172.917 167.281 172.691 167.507C171.963 168.232 171.234 168.956 170.504 169.679C169.998 170.184 169.491 170.689 168.985 171.194C167.649 172.526 166.312 173.856 164.974 175.185C162.838 177.309 160.704 179.434 158.571 181.561C157.828 182.301 157.083 183.041 156.338 183.78C155.878 184.239 155.418 184.697 154.958 185.155C154.65 185.46 154.65 185.46 154.336 185.771C153.025 187.079 151.788 188.435 150.586 189.844C149.558 189.62 149.089 189.335 148.34 188.586C148.032 188.28 148.032 188.28 147.718 187.969C147.5 187.748 147.281 187.527 147.057 187.3C146.831 187.074 146.605 186.848 146.372 186.616C145.895 186.138 145.419 185.659 144.945 185.18C144.215 184.443 143.482 183.711 142.748 182.979C142.286 182.515 141.824 182.051 141.362 181.587C141.141 181.366 140.921 181.146 140.693 180.919C140.492 180.715 140.29 180.511 140.083 180.3C139.904 180.12 139.726 179.94 139.542 179.755C139.16 179.297 139.16 179.297 139.16 178.711C138.967 178.711 138.773 178.711 138.574 178.711C138.177 178.307 138.177 178.307 137.705 177.732C136.496 176.312 135.191 175.006 133.865 173.696C133.43 173.265 132.995 172.834 132.561 172.403C131.329 171.177 130.095 169.954 128.86 168.732C128.1 167.98 127.342 167.227 126.585 166.473C126.297 166.186 126.008 165.901 125.719 165.615C125.317 165.219 124.917 164.821 124.518 164.423C124.289 164.197 124.061 163.971 123.827 163.739C123.34 163.184 123.34 163.184 123.34 162.598Z" fill="black"/>
<path d="M136.523 137.988C145.515 137.988 154.506 137.988 163.77 137.988C161.484 141.58 161.484 141.58 160.364 142.987C157.804 146.248 155.433 149.654 153.029 153.03C152.136 154.282 151.223 155.515 150.293 156.738C149.037 155.563 148.062 154.277 147.07 152.875C146.733 152.402 146.395 151.93 146.058 151.458C145.8 151.096 145.8 151.096 145.537 150.727C142.995 147.157 140.402 143.642 137.71 140.184C137.467 139.868 137.467 139.868 137.219 139.545C137.083 139.368 136.946 139.192 136.805 139.01C136.523 138.574 136.523 138.574 136.523 137.988Z" fill="black"/>
</svg>
