<svg width="300" height="300" viewBox="0 0 300 300" fill="none" xmlns="http://www.w3.org/2000/svg">
<path d="M109.278 128.32C110.393 128.756 110.834 129.352 111.493 130.334C114.749 134.95 118.911 138.462 123.633 141.504C123.804 141.614 123.974 141.724 124.15 141.837C134.904 148.64 148.956 150.299 161.231 147.559C170.114 145.448 177.988 141.4 184.571 135.059C184.777 134.871 184.984 134.682 185.197 134.489C187.134 132.673 188.608 130.478 190.137 128.32C191.386 128.575 192.144 129.218 193.085 130.042C193.26 130.193 193.435 130.345 193.615 130.501C197.219 133.683 200.691 137.094 203.614 140.918C203.869 141.236 204.125 141.553 204.381 141.869C206.333 144.287 208.097 146.794 209.766 149.414C209.93 149.668 209.93 149.668 210.097 149.927C213.897 155.839 216.772 162.257 218.079 169.171C218.153 169.561 218.153 169.561 218.228 169.959C219.015 174.524 218.541 179.611 216.211 183.691C213.591 187.281 209.95 189.352 205.646 190.271C204.207 190.469 202.794 190.537 201.343 190.558C201.087 190.564 200.83 190.571 200.566 190.578C198.41 190.57 196.566 190.125 195.011 188.562C194.496 187.736 194.031 186.908 193.598 186.035C193.449 185.739 193.299 185.443 193.146 185.138C192.532 183.719 192.451 182.49 192.493 180.953C192.652 172.947 191.368 166.093 187.384 159.055C186.914 158.203 186.914 158.203 186.621 157.324C185.945 157.808 185.268 158.291 184.571 158.789C184.937 159.998 185.406 161.094 185.967 162.219C186.921 164.139 187.739 166.05 188.343 168.109C188.426 168.392 188.426 168.392 188.512 168.681C190.983 177.581 189.794 187.141 185.366 195.202C179.924 204.56 170.719 210.697 160.394 213.481C149.938 216.101 137.943 214.581 128.619 209.134C125.867 207.456 123.39 205.473 120.996 203.32C120.798 203.144 120.601 202.967 120.397 202.785C113.779 196.531 110.725 187.672 110.102 178.809C109.922 172.292 111.707 165.557 115.164 160.04C115.499 159.389 115.499 159.389 115.274 158.738C114.725 158.056 114.203 157.877 113.379 157.617C110.003 163.256 107.323 169.504 107.553 176.215C107.562 176.633 107.571 177.051 107.58 177.469C107.594 178.116 107.611 178.762 107.636 179.408C107.748 182.408 107.402 184.604 105.762 187.207C105.648 187.414 105.533 187.62 105.415 187.833C104.506 189.333 103.301 189.899 101.66 190.43C100.671 190.585 99.7123 190.598 98.7124 190.576C98.4449 190.573 98.1773 190.569 97.9017 190.565C93.4102 190.436 88.7933 189.179 85.4705 186.001C82.072 182.32 81.2205 177.16 81.4057 172.292C82.0663 162.158 87.4963 152.665 93.4573 144.727C93.5944 144.543 93.7315 144.36 93.8727 144.172C95.5325 141.972 97.2935 139.897 99.1793 137.888C99.7598 137.263 100.31 136.63 100.855 135.974C103.326 133.128 106.278 130.593 109.278 128.32Z" fill="black"/>
<path d="M126.562 76.1719C127.603 76.767 128.517 77.4184 129.437 78.186C129.719 78.4194 130.001 78.6528 130.291 78.8933C130.444 79.0206 130.598 79.148 130.756 79.2792C131.666 80.0316 132.585 80.7745 133.502 81.5186C133.905 81.8458 134.309 82.1731 134.712 82.5005C135.015 82.747 135.015 82.747 135.325 82.9986C135.929 83.4895 136.533 83.9813 137.136 84.4734C139.289 86.2296 141.455 87.9673 143.651 89.6702C143.808 89.8005 143.966 89.9308 144.128 90.065C144.76 90.5683 144.76 90.5683 145.625 91.095C147.987 92.6751 147.987 92.6751 148.425 94.0184C148.676 95.5511 148.564 97.0788 148.462 98.6206C148.444 99.0871 148.428 99.5536 148.414 100.02C148.375 101.154 148.315 102.285 148.242 103.418C147.89 103.512 147.537 103.607 147.174 103.704C144.425 104.447 141.758 105.183 139.706 107.28C139.16 107.812 139.16 107.812 138.574 107.812C138.497 107.978 138.421 108.144 138.342 108.315C137.958 109.041 137.507 109.662 137.018 110.321C133.294 115.629 132.241 122.848 133.153 129.207C133.817 132.664 135.088 135.048 137.988 137.109C143.679 140.394 151.432 140.516 157.67 138.922C160.852 137.951 163.765 136.454 165.417 133.466C167.922 128.1 167.448 121.377 165.79 115.811C165.448 114.878 165.071 113.985 164.648 113.086C164.519 112.807 164.389 112.528 164.256 112.24C162.479 108.711 159.871 105.945 156.066 104.655C154.545 104.187 153.011 103.791 151.465 103.418C150.755 93.7125 150.755 93.7125 152.213 91.8995C153.038 91.1857 153.979 90.7145 154.964 90.2561C156.049 89.6893 156.93 88.8673 157.855 88.0737C159.451 86.7611 161.078 85.4938 162.726 84.2468C164.474 82.9237 166.183 81.5621 167.871 80.1636C168.08 79.9914 168.289 79.8192 168.504 79.6418C169.364 78.9319 170.219 78.2189 171.062 77.4879C171.29 77.2953 171.518 77.1027 171.753 76.9043C172.027 76.6641 172.027 76.6641 172.307 76.4191C172.851 76.1719 172.851 76.1719 173.561 76.3653C181.757 80.6245 188.425 88.4302 191.228 97.2362C191.578 98.4109 191.892 99.592 192.187 100.781C192.262 101.068 192.336 101.355 192.413 101.65C194.345 110.449 192.171 119.581 187.5 127.148C184.247 132.044 179.877 136.082 174.902 139.16C174.652 139.321 174.652 139.321 174.397 139.484C164.206 146.015 150.967 147.338 139.321 144.867C132.037 143.234 125.577 140.119 119.824 135.352C119.597 135.169 119.37 134.987 119.136 134.799C118.668 134.414 118.217 134.007 117.773 133.594C117.773 133.4 117.773 133.207 117.773 133.008C117.58 133.008 117.387 133.008 117.187 133.008C110.857 127.231 107.292 118.052 106.897 109.673C106.687 100.106 110.081 91.0668 116.601 84.082C116.738 83.933 116.875 83.784 117.015 83.6304C119.797 80.6183 122.975 78.1564 126.562 76.1719ZM128.943 99.646C128.444 100.922 128.355 102.07 128.613 103.418C129.249 104.61 130.037 105.298 131.232 105.908C132.557 106.125 133.601 106.146 134.755 105.379C135.812 104.511 136.428 103.949 136.593 102.524C136.646 100.914 136.477 99.9743 135.351 98.7305C133.007 97.1322 130.796 97.546 128.943 99.646ZM163.824 99.7375C163.273 100.927 163.139 101.65 163.33 102.96C163.893 104.297 164.602 104.995 165.82 105.762C167.153 106.244 168.116 106.005 169.385 105.476C170.497 104.855 170.994 104.008 171.387 102.832C171.528 101.367 171.368 100.394 170.583 99.1734C169.843 98.2837 169.011 97.9402 167.885 97.76C166.082 97.6499 164.916 98.2693 163.824 99.7375Z" fill="black"/>
<path d="M108.398 188.086C108.592 188.183 108.785 188.279 108.984 188.379C109.156 188.898 109.304 189.425 109.442 189.954C112.274 199.473 119.126 207.065 127.734 211.816C131.935 214.054 136.295 215.681 140.918 216.797C140.934 218.538 140.884 220.251 140.746 221.987C140.728 222.223 140.71 222.459 140.692 222.702C140.634 223.462 140.575 224.222 140.515 224.982C140.454 225.769 140.393 226.557 140.332 227.344C140.292 227.868 140.251 228.391 140.21 228.915C140.089 230.478 139.976 232.042 139.871 233.606C139.846 233.961 139.821 234.315 139.796 234.681C139.751 235.33 139.709 235.98 139.668 236.63C139.648 236.913 139.628 237.195 139.607 237.487C139.592 237.73 139.576 237.973 139.559 238.223C139.524 238.403 139.489 238.584 139.453 238.77C138.572 239.21 137.662 239.108 136.696 239.11C136.472 239.111 136.248 239.113 136.017 239.114C135.273 239.118 134.53 239.12 133.786 239.122C133.268 239.124 132.751 239.125 132.233 239.127C131.145 239.13 130.058 239.132 128.97 239.133C127.583 239.134 126.195 239.142 124.807 239.15C123.737 239.155 122.666 239.157 121.595 239.157C121.084 239.158 120.573 239.161 120.062 239.164C113.368 239.211 113.368 239.211 111.218 237.268C111.041 237.116 110.863 236.964 110.68 236.808C108.966 234.6 108.522 231.812 107.959 229.138C107.915 228.933 107.871 228.728 107.826 228.517C106.954 224.441 106.265 220.35 105.762 216.211C105.727 215.934 105.693 215.657 105.658 215.372C104.722 207.501 103.224 194.739 108.398 188.086Z" fill="black"/>
<path d="M191.309 188.086C194.262 190.702 194.384 195.573 194.714 199.31C195.346 209.97 193.974 220.725 191.62 231.116C191.556 231.408 191.493 231.7 191.428 232.001C190.853 234.392 189.89 236.476 187.793 237.872C185.071 239.367 182.174 239.407 179.132 239.382C178.739 239.38 178.739 239.38 178.339 239.378C175.355 239.361 172.372 239.309 169.389 239.246C168.442 239.227 167.494 239.21 166.546 239.192C165.938 239.18 165.33 239.168 164.722 239.155C164.441 239.15 164.16 239.145 163.871 239.14C163.609 239.135 163.348 239.129 163.078 239.123C162.85 239.118 162.622 239.114 162.387 239.109C161.657 239.058 160.968 238.927 160.254 238.77C160.239 238.417 160.225 238.065 160.209 237.702C159.843 228.78 159.843 228.78 159.19 219.875C159.098 218.846 159.058 217.831 159.082 216.797C159.556 216.679 159.556 216.679 160.04 216.559C171.26 213.667 181.509 207.279 187.5 197.168C189.156 194.261 190.351 191.289 191.309 188.086Z" fill="black"/>
<path d="M169.629 74.4145C169.629 74.6079 169.629 74.8012 169.629 75.0005C169.06 75.4877 168.487 75.9416 167.889 76.3921C166.245 77.6556 164.632 78.9493 163.037 80.2739C161.033 81.933 159.004 83.5544 156.952 85.1522C156.42 85.5669 155.891 85.9837 155.362 86.4011C153.59 87.7984 151.814 89.1854 150 90.5278C148.627 89.772 147.467 88.8126 146.265 87.8178C145.844 87.4728 145.423 87.1279 145.002 86.7833C144.802 86.619 144.601 86.4547 144.395 86.2855C143.75 85.7608 143.097 85.2486 142.438 84.7417C140.928 83.5783 139.46 82.3638 137.988 81.1528C137.451 80.7132 136.914 80.2737 136.377 79.8344C135.547 79.1554 134.717 78.4759 133.888 77.7951C133.603 77.5617 133.319 77.3283 133.026 77.0879C132.77 76.8771 132.513 76.6664 132.249 76.4493C131.633 75.9517 131.008 75.4707 130.371 75.0005C130.664 74.1215 130.664 74.1215 131.471 73.7027C131.841 73.5563 132.213 73.4156 132.587 73.2793C132.89 73.1667 132.89 73.1667 133.2 73.0519C142.844 69.6703 160.808 67.9176 169.629 74.4145Z" fill="black"/>
<path d="M124.805 63.5741C126.986 65.3004 129.455 67.458 130.664 70.0194C130.664 70.4061 130.664 70.7928 130.664 71.1912C130.431 71.2868 130.197 71.3823 129.957 71.4808C128.408 72.1195 126.873 72.7527 125.391 73.535C125.172 73.2484 125.172 73.2484 124.95 72.9559C122.782 70.1669 120.73 68.1655 117.187 67.3826C113.339 67.15 110.002 67.2702 106.888 69.8168C104.745 71.7825 103.062 74.0728 102.775 77.0529C102.617 81.2122 103.064 84.3077 105.806 87.6227C106.598 88.4429 107.436 89.0394 108.398 89.6483C108.216 90.7876 107.866 91.72 107.373 92.7611C106.988 93.5789 106.634 94.3564 106.348 95.2147C103.881 94.9257 101.955 92.7253 100.415 90.9117C97.2728 86.7437 95.855 81.9533 96.3867 76.7576C97.1345 71.7307 99.4106 67.1987 103.491 64.0684C109.966 59.6457 118.176 59.1322 124.805 63.5741Z" fill="black"/>
<path d="M196.523 64.2009C200.669 67.7945 203.13 72.3487 203.577 77.8377C203.865 82.9173 202.285 87.4069 198.981 91.3108C197.624 92.7528 196.181 94.1145 194.531 95.2144C194.241 95.2144 193.951 95.2144 193.652 95.2144C193.553 94.9742 193.454 94.734 193.353 94.4865C193.157 94.0129 193.157 94.0129 192.957 93.5298C192.763 93.0607 192.763 93.0607 192.565 92.5822C192.22 91.7269 192.22 91.7269 191.828 91.0716C191.602 90.5269 191.602 90.5269 191.644 89.9261C191.963 89.2001 192.349 88.904 192.975 88.4212C195.19 86.5673 196.708 84.0163 197.168 81.1519C197.383 77.5341 197.089 74.7327 194.913 71.7505C194.531 71.1909 194.531 71.1909 194.238 70.312C193.695 69.9935 193.695 69.9935 193.066 69.7261C192.704 69.4911 192.344 69.253 191.986 69.012C188.847 67.0796 185.305 66.838 181.728 67.6192C178.808 68.619 176.424 70.5446 174.902 73.2417C173.568 73.0606 172.475 72.5188 171.295 71.905C171.106 71.8086 170.917 71.7121 170.722 71.6126C170.259 71.376 169.798 71.1372 169.336 70.898C169.672 68.3087 171.869 66.0543 173.807 64.4275C180.697 59.6112 189.654 58.9439 196.523 64.2009Z" fill="black"/>
<path d="M149.204 115.061C149.852 115.064 150.5 115.061 151.148 115.057C156.49 115.051 156.49 115.051 158.075 116.327C158.67 117.543 158.775 118.499 158.496 119.825C157.756 121.564 156.612 122.318 154.907 123.047C153.358 123.633 153.358 123.633 152.637 123.633C152.621 124.048 152.609 124.463 152.6 124.878C152.593 125.11 152.587 125.341 152.579 125.579C152.643 126.343 152.817 126.795 153.223 127.442C154.35 128.159 155.396 128.071 156.672 127.899C157.66 127.651 158.289 127.194 159.082 126.563C159.662 127.24 160.242 127.917 160.84 128.614C160.195 129.903 159.63 130.637 158.255 131.161C155.572 131.91 152.938 131.63 150.421 130.481C150.185 130.349 149.95 130.216 149.707 130.079C149.48 130.278 149.48 130.278 149.249 130.481C147.271 131.8 144.8 131.847 142.52 131.397C141.03 130.96 140.155 130.387 139.16 129.2C139.526 128.186 139.944 127.399 140.625 126.563C140.776 126.642 140.927 126.72 141.083 126.801C141.318 126.916 141.554 127.031 141.797 127.149C142.105 127.312 142.413 127.475 142.731 127.643C144 128.181 145.171 128.109 146.484 127.735C147.171 127.341 147.171 127.341 147.363 126.563C147.34 125.669 147.226 124.806 147.07 123.926C146.72 123.798 146.72 123.798 146.363 123.668C144.456 122.93 143.088 122.308 141.797 120.704C141.515 119.857 141.447 119.262 141.431 118.378C141.419 118.003 141.419 118.003 141.408 117.619C141.532 116.681 141.667 116.356 142.383 115.723C144.599 114.975 146.89 115.047 149.204 115.061Z" fill="black"/>
<path d="M119.238 71.1922C120.565 72.1178 121.826 73.1851 122.461 74.7078C122.091 75.8162 121.677 75.9975 120.721 76.6487C119.033 77.8439 117.516 79.1455 116.016 80.5672C115.771 80.7964 115.526 81.0256 115.274 81.2618C113.434 83.0367 111.927 84.9346 110.449 87.0125C109.19 86.7671 108.676 86.2047 107.812 85.2547C107.613 85.0432 107.414 84.8317 107.208 84.6138C105.578 82.2472 105.126 79.8994 105.469 77.0515C106.09 74.5447 107.409 72.6729 109.552 71.2471C112.665 69.4615 116.081 69.5588 119.238 71.1922Z" fill="black"/>
<path d="M190.542 71.321C192.192 72.4946 193.134 73.7427 193.945 75.5862C194.072 75.8641 194.199 76.1421 194.33 76.4285C194.976 79.3647 194.475 82.016 192.876 84.5572C191.964 85.8028 191.339 86.5171 189.844 87.012C189.499 86.6086 189.499 86.6086 189.147 86.1972C188.511 85.4545 187.875 84.7126 187.238 83.9713C186.729 83.3792 186.223 82.7856 185.72 82.1883C183.37 79.4216 180.467 77.4013 177.539 75.2932C178.114 73.3221 179.051 72.1132 180.856 71.1047C184.07 69.6408 187.443 69.4465 190.542 71.321Z" fill="black"/>
</svg>
