<svg width="300" height="300" viewBox="0 0 300 300" fill="none" xmlns="http://www.w3.org/2000/svg">
<path d="M63.1798 38.9268C63.4923 38.9262 63.8048 38.9256 64.1268 38.9249C65.1775 38.9233 66.2283 38.9237 67.279 38.9241C68.0385 38.9234 68.7981 38.9225 69.5576 38.9215C71.4285 38.9193 73.2994 38.9186 75.1702 38.9185C77.4114 38.9182 79.6525 38.9162 81.8936 38.9143C87.3104 38.9096 92.7272 38.9078 98.144 38.9064C100.707 38.9057 103.271 38.9047 105.834 38.9036C114.611 38.8998 123.387 38.8967 132.164 38.8957C132.715 38.8956 133.266 38.8955 133.817 38.8955C134.369 38.8954 134.921 38.8953 135.474 38.8953C136.581 38.8952 137.689 38.895 138.797 38.8949C139.072 38.8949 139.346 38.8948 139.629 38.8948C148.533 38.8937 157.436 38.8891 166.34 38.8822C175.756 38.875 185.172 38.871 194.589 38.8707C195.623 38.8706 196.657 38.8705 197.691 38.8705C198.073 38.8705 198.073 38.8705 198.463 38.8704C202.556 38.8701 206.65 38.8669 210.743 38.8626C214.86 38.8584 218.977 38.8574 223.094 38.8598C225.538 38.8611 227.982 38.86 230.426 38.8553C232.254 38.8521 234.082 38.8536 235.909 38.8567C236.647 38.8573 237.384 38.8564 238.121 38.8538C248.224 38.821 256.33 41.2263 263.764 48.3036C267.621 52.3248 270.009 57.3133 271.289 62.6957C271.367 63.0207 271.446 63.3456 271.526 63.6804C272.275 67.1863 272.292 70.6125 272.28 74.1864C272.281 74.8684 272.282 75.5505 272.284 76.2325C272.288 78.0963 272.286 79.96 272.283 81.8237C272.281 83.6306 272.284 85.4374 272.286 87.2443C272.291 91.1655 272.29 95.0867 272.288 99.0079C272.285 102.44 272.285 105.871 272.286 109.303C272.286 109.645 272.286 109.645 272.286 109.994C272.286 110.92 272.287 111.846 272.287 112.771C272.29 121.448 272.287 130.125 272.282 138.802C272.278 146.502 272.279 154.203 272.283 161.904C272.288 170.564 272.289 179.225 272.287 187.886C272.286 188.81 272.286 189.734 272.286 190.658C272.286 191 272.286 191 272.286 191.348C272.285 194.776 272.286 198.205 272.288 201.634C272.291 205.534 272.29 209.435 272.285 213.335C272.283 215.324 272.282 217.313 272.285 219.302C272.287 221.125 272.286 222.948 272.281 224.77C272.28 225.428 272.281 226.085 272.283 226.742C272.297 231.429 272.093 235.996 270.374 240.418C270.286 240.648 270.198 240.879 270.107 241.116C268.547 245.048 266.214 248.261 263.379 251.368C263.187 251.584 262.996 251.8 262.798 252.022C258.988 256.092 253.519 259.085 248.145 260.45C247.874 260.522 247.603 260.595 247.324 260.67C243.68 261.526 240.059 261.452 236.334 261.442C235.582 261.443 234.83 261.445 234.077 261.447C232.447 261.451 230.817 261.451 229.187 261.449C226.762 261.446 224.338 261.449 221.914 261.452C217.582 261.458 213.251 261.459 208.92 261.457C205.128 261.456 201.336 261.456 197.545 261.458C197.036 261.458 196.526 261.458 196.017 261.458C195.249 261.459 194.482 261.459 193.714 261.459C186.581 261.462 179.448 261.464 172.315 261.461C172.047 261.461 171.778 261.461 171.501 261.461C169.319 261.46 167.137 261.46 164.955 261.459C156.448 261.456 147.941 261.458 139.434 261.465C129.868 261.473 120.301 261.477 110.735 261.475C109.714 261.474 108.693 261.474 107.672 261.474C107.294 261.474 107.294 261.474 106.91 261.474C103.123 261.473 99.3358 261.475 95.5488 261.479C91.2391 261.484 86.9293 261.484 82.6196 261.479C80.2111 261.476 77.8028 261.476 75.3943 261.481C73.5907 261.485 71.7872 261.482 69.9836 261.477C69.2579 261.476 68.5322 261.477 67.8065 261.48C57.7749 261.519 49.4367 259.219 41.6019 252.832C41.4483 252.708 41.2947 252.584 41.1365 252.457C39.8641 251.417 38.8408 250.282 37.7933 249.024C37.5117 248.693 37.5117 248.693 37.2245 248.356C33.9367 244.392 31.712 239.962 30.231 235.053C30.1739 234.865 30.1168 234.678 30.058 234.485C28.9175 230.474 28.9199 226.5 28.9278 222.367C28.927 221.714 28.9258 221.06 28.9244 220.407C28.9214 218.618 28.9221 216.829 28.9233 215.04C28.924 213.307 28.9219 211.574 28.9199 209.84C28.9154 205.859 28.9149 201.878 28.9156 197.897C28.9162 194.822 28.9157 191.747 28.9144 188.672C28.9142 188.229 28.914 187.787 28.9139 187.345C28.9136 186.678 28.9133 186.011 28.9131 185.345C28.9106 179.149 28.9093 172.954 28.9106 166.758C28.9106 166.525 28.9106 166.292 28.9107 166.051C28.9109 164.868 28.9112 163.685 28.9114 162.503C28.9115 162.268 28.9115 162.033 28.9116 161.791C28.9117 161.316 28.9118 160.841 28.9119 160.366C28.9135 152.976 28.9111 145.586 28.9057 138.196C28.8997 129.887 28.8965 121.577 28.8977 113.267C28.8978 112.381 28.8979 111.494 28.898 110.607C28.898 110.389 28.8981 110.17 28.8981 109.945C28.8984 106.656 28.8965 103.366 28.8934 100.076C28.8898 96.3325 28.8894 92.589 28.893 88.8455C28.8948 86.9367 28.8951 85.0279 28.8916 83.1191C28.8884 81.3694 28.8893 79.6197 28.8934 77.87C28.8942 77.2393 28.8935 76.6086 28.8911 75.978C28.8544 65.4065 32.1542 56.3042 39.5511 48.6332C45.7968 42.4742 54.4345 38.9111 63.1798 38.9268ZM42.3549 56.2012C34.0456 66.1607 36.0355 77.9761 36.0355 90.5278C56.2415 90.6244 76.4476 90.7211 97.2659 90.8207C96.6975 89.6839 96.276 89.2231 95.3616 88.3854C90.3207 83.4246 87.6262 76.3932 87.5122 69.3714C87.4611 60.2256 90.2878 53.6523 96.387 46.8754C96.6784 46.5808 96.9709 46.2874 97.2659 45.9965C92.6204 45.969 87.9749 45.9484 83.3294 45.9358C81.1718 45.9298 79.0142 45.9216 76.8567 45.9081C74.9736 45.8963 73.0906 45.8889 71.2074 45.8863C70.2126 45.8847 69.218 45.8813 68.2232 45.8726C57.9137 45.7931 49.3819 48.1422 42.3549 56.2012ZM106.513 48.2853C106.319 48.3859 106.126 48.4865 105.927 48.5901C103.745 49.7567 101.879 51.2118 100.196 53.0278C100.047 53.1717 99.898 53.3155 99.7447 53.4638C95.7011 57.6275 94.1301 63.3636 94.1988 69.0295C94.3931 74.2474 96.3825 79.3149 99.9027 83.2036C100.152 83.4936 100.152 83.4936 100.407 83.7895C102.902 86.5018 106.373 88.5182 109.864 89.6489C110.086 89.7211 110.308 89.7933 110.537 89.8678C113.295 90.6643 115.944 90.6518 118.787 90.6413C119.331 90.6426 119.876 90.6442 120.421 90.6461C121.91 90.6504 123.4 90.6491 124.889 90.647C126.498 90.6456 128.108 90.6492 129.717 90.6522C132.867 90.6573 136.017 90.6575 139.167 90.656C141.728 90.6548 144.29 90.6552 146.851 90.6568C147.216 90.657 147.581 90.6572 147.956 90.6575C148.698 90.6579 149.439 90.6584 150.18 90.6588C155.156 90.6617 160.132 90.6629 165.108 90.6607C165.399 90.6605 165.399 90.6605 165.697 90.6604C167.275 90.6597 168.854 90.6589 170.432 90.6582C176.587 90.6552 182.741 90.6576 188.896 90.6645C195.818 90.6721 202.741 90.6758 209.663 90.6738C213.325 90.6728 216.988 90.6734 220.65 90.6785C223.768 90.6829 226.886 90.683 230.004 90.6779C231.594 90.6754 233.184 90.6748 234.773 90.6793C236.231 90.6834 237.688 90.6819 239.146 90.6763C239.671 90.6752 240.196 90.676 240.721 90.6791C244.857 90.7016 248.84 90.3092 252.521 88.239C252.701 88.1375 252.882 88.0361 253.068 87.9316C254.569 87.0682 255.938 86.1153 257.227 84.9614C257.449 84.7631 257.671 84.5648 257.9 84.3605C261.98 80.5065 264.329 75.1084 264.588 69.521C264.714 63.468 262.831 57.8229 258.855 53.2109C254.764 49.0135 249.154 46.1637 243.249 45.9588C242.852 45.9568 242.454 45.9563 242.056 45.9572C241.835 45.9565 241.613 45.9558 241.385 45.9551C240.643 45.9532 239.902 45.9533 239.161 45.9534C238.623 45.9524 238.086 45.9513 237.548 45.9501C236.072 45.9472 234.596 45.9461 233.12 45.9453C231.528 45.9442 229.936 45.9414 228.343 45.9388C224.498 45.933 220.653 45.9301 216.808 45.9275C214.996 45.9262 213.185 45.9246 211.373 45.9231C205.349 45.9181 199.325 45.9139 193.301 45.9117C191.739 45.9112 190.176 45.9106 188.613 45.91C188.322 45.9099 188.322 45.9099 188.025 45.9098C181.734 45.9075 175.443 45.9007 169.152 45.8911C162.496 45.8811 155.839 45.8753 149.183 45.8743C145.556 45.8737 141.93 45.8712 138.304 45.8637C135.215 45.8573 132.126 45.8549 129.038 45.8578C127.463 45.8591 125.888 45.8586 124.314 45.8529C122.869 45.8477 121.425 45.848 119.981 45.8526C119.461 45.8533 118.941 45.852 118.421 45.8485C114.257 45.8223 110.247 46.2667 106.513 48.2853ZM263.929 88.184C263.484 88.639 263.054 89.1003 262.634 89.5791C258.273 94.3251 251.191 97.0978 244.84 97.3744C242.794 97.4279 240.748 97.4268 238.701 97.4196C237.617 97.417 236.534 97.4213 235.45 97.4248C233.555 97.4298 231.66 97.4305 229.765 97.4284C226.947 97.4253 224.129 97.4289 221.312 97.4338C216.571 97.4419 211.83 97.4446 207.089 97.4442C202.397 97.4438 197.705 97.4459 193.013 97.4511C192.721 97.4514 192.429 97.4518 192.128 97.4521C190.644 97.4538 189.161 97.4555 187.677 97.4572C177.179 97.4693 166.68 97.4761 156.182 97.4796C145.985 97.4831 135.788 97.489 125.591 97.4982C125.277 97.4985 124.962 97.4988 124.638 97.4991C121.48 97.5019 118.321 97.5048 115.163 97.5078C108.729 97.5138 102.296 97.5194 95.862 97.5248C95.4183 97.5252 95.4183 97.5252 94.9657 97.5256C75.2246 97.5423 55.4836 97.5513 35.7425 97.559C35.7224 113.812 35.7069 130.064 35.6976 146.317C35.6965 148.237 35.6954 150.157 35.6942 152.078C35.694 152.46 35.6938 152.842 35.6935 153.236C35.6897 159.42 35.6828 165.603 35.6747 171.787C35.6665 178.136 35.6616 184.484 35.6598 190.833C35.6586 194.748 35.6548 198.663 35.6477 202.578C35.643 205.266 35.6416 207.953 35.6427 210.641C35.6433 212.19 35.6425 213.738 35.6377 215.287C35.6334 216.708 35.6333 218.13 35.6362 219.552C35.6366 220.062 35.6355 220.573 35.6327 221.084C35.5836 230.658 38.0824 239.286 44.8612 246.277C52.3372 253.7 61.9918 254.683 72.0146 254.669C72.7436 254.67 73.4726 254.671 74.2016 254.673C75.7792 254.675 77.3568 254.676 78.9343 254.676C81.2804 254.675 83.6264 254.677 85.9725 254.68C90.4072 254.686 94.8419 254.688 99.2767 254.688C102.702 254.688 106.127 254.69 109.553 254.691C110.54 254.692 111.528 254.693 112.516 254.693C112.762 254.693 113.007 254.693 113.26 254.693C120.163 254.697 127.065 254.699 133.968 254.699C134.228 254.699 134.488 254.699 134.756 254.699C136.073 254.699 137.39 254.699 138.708 254.699C139.1 254.699 139.1 254.699 139.5 254.699C140.029 254.699 140.558 254.699 141.087 254.699C149.319 254.698 157.551 254.703 165.783 254.711C175.041 254.72 184.3 254.725 193.558 254.724C194.546 254.724 195.534 254.724 196.522 254.724C196.765 254.724 197.008 254.724 197.259 254.724C201.165 254.724 205.072 254.728 208.978 254.733C212.906 254.738 216.834 254.739 220.763 254.735C223.093 254.733 225.424 254.734 227.754 254.739C229.498 254.743 231.243 254.741 232.987 254.737C233.69 254.736 234.392 254.737 235.095 254.74C243.984 254.779 251.606 252.927 258.214 246.601C262.175 242.462 264.948 236.709 264.921 230.93C264.922 230.681 264.923 230.431 264.924 230.175C264.927 229.342 264.927 228.509 264.926 227.676C264.927 227.072 264.929 226.468 264.931 225.864C264.935 224.206 264.936 222.548 264.937 220.89C264.938 219.101 264.942 217.313 264.946 215.524C264.953 212.426 264.957 209.327 264.96 206.229C264.963 202.98 264.968 199.73 264.974 196.481C264.974 196.178 264.974 196.178 264.975 195.869C264.976 194.842 264.978 193.816 264.98 192.79C264.994 185.521 265.004 178.253 265.013 170.985C265.022 163.925 265.032 156.864 265.044 149.804C265.045 149.477 265.045 149.477 265.045 149.144C265.049 146.958 265.052 144.772 265.056 142.586C265.064 138.133 265.071 133.68 265.078 129.227C265.078 129.023 265.079 128.818 265.079 128.607C265.101 114.937 265.119 101.268 265.137 87.5981C264.48 87.5312 264.48 87.5312 263.929 88.184Z" fill="black"/>
<path d="M120.139 48.2652C120.671 48.2645 121.204 48.2636 121.736 48.2624C123.192 48.26 124.647 48.2612 126.103 48.263C127.676 48.2643 129.248 48.2623 130.821 48.2607C133.899 48.2581 136.977 48.2586 140.055 48.2603C142.556 48.2616 145.058 48.2618 147.56 48.2612C147.916 48.2611 148.273 48.261 148.64 48.2609C149.364 48.2607 150.088 48.2605 150.812 48.2603C157.597 48.2587 164.382 48.2606 171.167 48.2637C176.986 48.2664 182.806 48.2659 188.626 48.2632C195.387 48.2601 202.149 48.2588 208.91 48.2606C209.631 48.2608 210.352 48.261 211.074 48.2612C211.428 48.2613 211.783 48.2614 212.149 48.2615C214.647 48.262 217.146 48.2611 219.644 48.2597C222.689 48.2581 225.735 48.2585 228.78 48.2616C230.333 48.2632 231.886 48.2638 233.439 48.2619C234.862 48.2601 236.285 48.2611 237.707 48.2642C238.221 48.2648 238.735 48.2645 239.249 48.2631C245.602 48.2468 251.511 49.514 256.267 54.0696C260.68 58.8012 262.15 63.8545 261.994 70.1841C261.804 74.8154 259.615 79.3163 256.348 82.6169C252.016 86.3951 247.18 88.2351 241.457 88.2227C241.128 88.2237 241.128 88.2237 240.792 88.2247C240.06 88.2267 239.328 88.2266 238.595 88.2265C238.064 88.2274 237.532 88.2285 237 88.2297C235.542 88.2326 234.083 88.2337 232.624 88.2345C231.05 88.2357 229.476 88.2385 227.902 88.241C224.102 88.2468 220.301 88.2498 216.501 88.2524C214.71 88.2537 212.92 88.2552 211.129 88.2568C205.174 88.2617 199.219 88.266 193.264 88.2681C191.72 88.2687 190.176 88.2692 188.631 88.2698C188.247 88.27 187.863 88.2701 187.468 88.2702C181.251 88.2727 175.034 88.2801 168.816 88.2896C162.429 88.2993 156.043 88.3046 149.656 88.3055C146.071 88.3061 142.487 88.3087 138.902 88.3162C135.85 88.3226 132.797 88.3249 129.744 88.3221C128.188 88.3207 126.632 88.3213 125.075 88.327C123.648 88.3322 122.22 88.3318 120.793 88.3273C120.279 88.3266 119.766 88.3279 119.252 88.3313C115.131 88.3576 111.131 87.9123 107.428 85.9311C107.236 85.8306 107.043 85.73 106.845 85.6264C102.055 83.0371 98.861 78.9189 97.2568 73.7294C95.8974 68.229 96.6715 63.0865 99.3225 58.0728C100.227 56.6007 101.301 55.3973 102.539 54.199C102.754 53.9882 102.969 53.7775 103.191 53.5604C108.094 48.977 113.686 48.2473 120.139 48.2652Z" fill="black"/>
<path d="M65.332 57.7153C66.9393 58.4716 67.7905 59.6688 68.5547 61.2309C68.5547 61.4243 68.5547 61.6176 68.5547 61.8168C68.0729 62.2071 68.0729 62.2071 67.4377 62.6408C66.0921 63.6065 66.0921 63.6065 65.332 65.0395C65.7012 66.4422 65.9272 66.9011 67.1448 67.7128C67.4167 67.8941 67.6886 68.0754 67.9688 68.2621C68.0923 68.9763 68.0923 68.9763 67.9688 69.727C67.4664 70.1825 67.4664 70.1825 66.8152 70.5693C65.9084 71.204 65.6536 71.4176 65.2039 72.4736C65.3924 74.0358 66.2507 74.8398 67.3828 75.8793C67.7688 76.1784 68.1581 76.4733 68.5547 76.7582C68.2493 78.3234 67.5141 79.1852 66.3128 80.1663C65.1116 80.8658 64.0311 80.8757 62.6953 80.5668C61.4572 80.015 60.786 79.323 60.0586 78.1865C59.7656 77.3442 59.7656 77.3442 60.0586 76.4653C60.2761 76.3444 60.4937 76.2236 60.7178 76.0991C61.7495 75.4425 62.4574 74.6426 62.9883 73.5356C63.1378 72.8008 63.1378 72.8008 62.9883 72.0707C62.4915 71.5152 62.4915 71.5152 61.8347 71.0637C61.0546 70.4175 60.6651 70.061 60.2051 69.141C60.4144 67.8849 61.1253 67.4589 62.1151 66.7126C62.7376 66.1748 63.0442 65.8275 63.2812 65.0395C62.9698 64.0175 62.3742 63.5421 61.5234 62.9338C61.318 62.7846 61.1125 62.6354 60.9009 62.4817C60.36 62.098 60.36 62.098 59.7656 61.8168C59.8584 60.2858 60.7327 59.3087 61.8164 58.3012C62.9488 57.6163 64.0345 57.5195 65.332 57.7153Z" fill="black"/>
<path d="M59.4729 61.8162C59.5394 62.1425 59.6058 62.4688 59.6743 62.805C59.8012 63.1554 59.9281 63.5059 60.0588 63.867C60.7926 64.224 60.7926 64.224 61.5237 64.4529C61.7148 65.0537 61.7148 65.0537 61.8167 65.6248C61.6297 65.7524 61.4428 65.8801 61.2502 66.0116C59.7496 67.0608 59.7496 67.0608 58.7954 68.5728C58.9614 70.1332 59.8539 71.0578 61.011 72.0335C61.2769 72.2389 61.5427 72.4444 61.8167 72.656C61.7617 73.1687 61.7617 73.1687 61.5237 73.8279C61.2941 74.0092 61.0645 74.1905 60.8279 74.3772C59.952 75.0862 59.6222 75.7334 59.1799 76.7576C57.6276 76.9055 56.8634 76.5716 55.6643 75.5857C54.9691 74.7283 54.7972 74.2137 54.6572 73.1138C54.8095 71.8742 55.1967 71.2902 55.9573 70.3123C56.1265 70.0827 56.2957 69.8531 56.47 69.6165C56.5908 69.4594 56.7117 69.3023 56.8362 69.1404C56.7127 69.0237 56.5892 68.907 56.462 68.7868C56.2212 68.554 56.2212 68.554 55.9756 68.3164C55.8158 68.1635 55.6561 68.0105 55.4915 67.853C54.6981 66.9496 54.6839 65.9284 54.7053 64.7642C54.8426 63.7289 55.2653 63.1651 55.9573 62.4021C57.2274 61.6863 58.0629 61.3462 59.4729 61.8162Z" fill="black"/>
<path d="M68.8477 61.816C70.841 61.6062 70.841 61.6062 71.7934 62.1765C73.0485 63.2312 73.4762 63.8637 73.645 65.5514C73.6321 66.9567 73.0247 67.8525 72.0703 68.8473C71.7803 69.0406 71.4902 69.234 71.1914 69.4332C71.4694 69.6447 71.7473 69.8562 72.0337 70.0741C72.8643 70.779 73.3105 71.2644 73.5352 72.3629C73.603 73.8505 73.4757 74.7262 72.4915 75.8785C71.2851 76.5804 70.52 76.6861 69.1406 76.7574C69.0024 76.5189 69.0024 76.5189 68.8614 76.2756C67.9232 74.687 67.9232 74.687 66.5039 73.5348C66.5405 72.8756 66.5405 72.8756 66.7969 72.0699C67.375 71.6678 67.9616 71.2777 68.5547 70.8981C69.1726 70.1207 69.4517 69.7269 69.3901 68.7294C69.0684 67.7482 68.605 67.3992 67.804 66.7599C67.0704 66.1717 67.0704 66.1717 66.5039 65.6246C66.5039 65.3346 66.5039 65.0445 66.5039 64.7457C66.9958 64.2641 67.5291 63.8714 68.0775 63.456C68.625 62.9189 68.733 62.5635 68.8477 61.816Z" fill="black"/>
<path d="M67.3828 59.4727C67.2861 59.8594 67.1895 60.2461 67.0898 60.6445C66.7031 60.7412 66.3164 60.8379 65.918 60.9375C65.8213 60.5508 65.7246 60.1641 65.625 59.7656C66.2109 59.4727 66.2109 59.4727 67.3828 59.4727Z" fill="black"/>
</svg>
