<svg width="300" height="300" viewBox="0 0 300 300" fill="none" xmlns="http://www.w3.org/2000/svg">
<path d="M44.7724 44.4937C45.1431 44.4932 45.5137 44.4927 45.8956 44.4922C46.9215 44.4908 47.9475 44.4912 48.9734 44.492C50.0906 44.4925 51.2079 44.4912 52.3252 44.4902C54.2824 44.4887 56.2396 44.4883 58.1968 44.4886C61.1074 44.4891 64.0179 44.4878 66.9284 44.4863C72.4293 44.4835 77.9301 44.4827 83.4309 44.4825C87.6788 44.4824 91.9267 44.4817 96.1746 44.4808C97.3975 44.4806 98.6203 44.4803 99.8431 44.48C100.299 44.4799 100.299 44.4799 100.764 44.4798C109.315 44.478 117.866 44.4769 126.416 44.477C126.9 44.477 126.9 44.477 127.393 44.477C129.027 44.477 130.661 44.4771 132.295 44.4771C132.781 44.4771 132.781 44.4771 133.278 44.4771C133.934 44.4771 134.59 44.4771 135.246 44.4772C145.456 44.4773 155.666 44.4751 165.876 44.4711C177.348 44.4666 188.819 44.4641 200.29 44.4644C201.513 44.4644 202.736 44.4644 203.96 44.4644C204.261 44.4644 204.562 44.4644 204.872 44.4644C209.719 44.4644 214.565 44.4626 219.411 44.4601C224.282 44.4576 229.153 44.4573 234.023 44.4592C236.916 44.4603 239.81 44.4598 242.703 44.4569C244.636 44.4551 246.57 44.4555 248.503 44.4576C249.604 44.4587 250.705 44.459 251.806 44.4566C252.995 44.454 254.183 44.4561 255.371 44.4585C255.71 44.4571 256.048 44.4556 256.397 44.4541C259.601 44.468 262.883 44.6582 265.813 46.0512C266.01 46.1417 266.207 46.2322 266.41 46.3255C268.023 47.0932 269.39 48.0008 270.702 49.2189C270.945 49.4357 271.189 49.6525 271.439 49.8758C274.855 53.0771 276.729 56.982 276.961 61.6553C277.02 63.601 277.01 65.5464 277.001 67.4927C277.003 68.2469 277.004 69.001 277.006 69.7552C277.01 71.3894 277.01 73.0236 277.006 74.6578C277.001 77.088 277.003 79.5182 277.006 81.9484C277.011 86.2895 277.009 90.6305 277.005 94.9716C277.001 98.7701 276.999 102.569 277 106.367C277 106.745 277 106.745 277 107.131C277 108.155 277.001 109.179 277.001 110.203C277.003 119.802 276.998 129.401 276.991 139C276.984 147.524 276.982 156.049 276.985 164.574C276.986 166.757 276.987 168.941 276.987 171.124C276.988 171.393 276.988 171.662 276.988 171.939C276.99 179.067 276.988 186.195 276.985 193.322C276.985 194.09 276.984 194.857 276.984 195.624C276.984 196.132 276.983 196.641 276.983 197.15C276.982 200.946 276.982 204.743 276.983 208.539C276.985 212.856 276.983 217.172 276.977 221.489C276.974 223.904 276.973 226.318 276.976 228.733C276.978 230.537 276.975 232.341 276.97 234.144C276.969 234.873 276.969 235.603 276.971 236.332C276.973 237.324 276.97 238.316 276.966 239.308C276.969 239.731 276.969 239.731 276.972 240.163C276.929 245.254 274.791 249.777 271.288 253.418C267.401 257.147 263.08 258.492 257.815 258.474C257.246 258.476 257.246 258.476 256.666 258.477C255.614 258.48 254.563 258.479 253.511 258.478C252.367 258.477 251.222 258.479 250.078 258.481C248.072 258.484 246.067 258.485 244.061 258.484C241.079 258.483 238.096 258.486 235.114 258.489C229.477 258.495 223.841 258.496 218.204 258.497C213.852 258.497 209.499 258.498 205.147 258.5C203.894 258.5 202.641 258.501 201.389 258.501C201.077 258.502 200.766 258.502 200.445 258.502C191.685 258.505 182.925 258.508 174.165 258.507C173.835 258.507 173.504 258.507 173.164 258.507C171.49 258.507 169.816 258.507 168.142 258.507C167.809 258.507 167.477 258.507 167.134 258.507C166.462 258.507 165.79 258.507 165.117 258.507C154.655 258.507 144.194 258.511 133.732 258.519C121.979 258.528 110.227 258.533 98.4745 258.533C97.2214 258.533 95.9683 258.533 94.7152 258.533C94.2524 258.533 94.2524 258.533 93.7803 258.533C88.8143 258.533 83.8483 258.536 78.8823 258.541C73.8918 258.546 68.9014 258.547 63.9109 258.543C60.9461 258.541 57.9814 258.542 55.0166 258.548C53.0356 258.551 51.0546 258.55 49.0736 258.546C47.9453 258.544 46.817 258.544 45.6887 258.548C44.4715 258.553 43.2545 258.549 42.0373 258.544C41.6895 258.547 41.3416 258.55 40.9832 258.553C35.8972 258.51 31.8834 256.456 28.2339 253.052C24.6552 249.332 23.0461 244.481 23.0691 239.418C23.0681 239.108 23.0672 238.798 23.0662 238.479C23.0638 237.442 23.0655 236.404 23.0672 235.367C23.0664 234.615 23.0652 233.864 23.0638 233.113C23.0613 231.479 23.0609 229.845 23.0619 228.211C23.0635 225.782 23.0617 223.353 23.0593 220.923C23.0548 216.331 23.0543 211.74 23.055 207.148C23.0556 203.602 23.0551 200.057 23.0538 196.511C23.0536 196.001 23.0534 195.492 23.0533 194.982C23.053 194.215 23.0527 193.447 23.0525 192.679C23.05 185.541 23.0487 178.404 23.05 171.266C23.05 170.997 23.05 170.728 23.0501 170.45C23.0503 169.087 23.0506 167.723 23.0508 166.359C23.0509 166.088 23.0509 165.817 23.051 165.538C23.0511 164.991 23.0512 164.443 23.0513 163.895C23.0529 155.373 23.0505 146.85 23.0451 138.328C23.0391 128.752 23.0359 119.176 23.0371 109.6C23.0372 108.579 23.0373 107.558 23.0374 106.537C23.0374 106.285 23.0375 106.034 23.0375 105.775C23.0378 101.98 23.0359 98.1853 23.0328 94.3905C23.0292 90.0744 23.0288 85.7583 23.0324 81.4422C23.0344 79.0274 23.0339 76.6126 23.0299 74.1978C23.0272 72.394 23.0291 70.5903 23.0328 68.7866C23.0336 68.0573 23.0329 67.3281 23.0305 66.5988C23.0276 65.6068 23.03 64.6149 23.0338 63.6229C23.0317 63.3405 23.0296 63.0581 23.0273 62.7672C23.0636 58.1859 24.8674 53.3843 28.1241 50.0978C33.206 45.6753 38.1533 44.4821 44.7724 44.4937ZM38.378 54.7853C37.7269 55.762 37.768 56.4666 37.9568 57.5868C38.1935 58.4686 38.3909 58.9035 38.9639 59.6376C40.2418 60.2499 41.3824 60.324 42.7725 60.0588C43.8639 59.263 44.5019 58.4469 44.8233 57.1291C44.7886 55.4975 44.1486 54.7495 43.0655 53.6135C41.1371 52.6492 39.7088 53.3594 38.378 54.7853ZM52.7335 54.7853C52.223 55.8062 52.2686 56.8944 52.4405 58.008C52.9393 58.9088 53.5574 59.5918 54.4913 60.0588C55.8152 60.2441 57.0291 60.2852 58.1534 59.4911C59.1036 58.3271 59.2913 57.4415 59.1788 55.9572C58.8255 54.8974 58.5029 54.3734 57.659 53.6501C55.4936 52.7839 54.2776 53.2035 52.7335 54.7853ZM67.0889 54.7853C66.5785 55.8062 66.6241 56.8944 66.796 58.008C67.2947 58.9088 67.9128 59.5918 68.8467 60.0588C70.1766 60.2181 71.1771 60.2413 72.3441 59.5461C73.2386 58.5702 73.4966 58.054 73.6441 56.7263C73.5132 55.4612 73.1734 54.8752 72.3624 53.9064C71.4935 53.2237 70.5353 53.1824 69.443 53.2049C68.3729 53.4123 67.8396 54.0164 67.0889 54.7853ZM42.2861 71.211C41.2083 72.7665 41.0298 74.3091 41.3077 76.1721C42.0296 77.9172 43.1992 79.2048 44.9213 80.0058C45.7388 80.2861 46.35 80.347 47.2111 80.3474C47.661 80.3497 47.661 80.3497 48.12 80.3521C48.4482 80.3508 48.7764 80.3495 49.1145 80.3482C49.6411 80.3496 49.6411 80.3496 50.1784 80.351C51.1564 80.353 52.1342 80.3524 53.1121 80.3507C54.1748 80.3495 55.2374 80.3517 56.3 80.3534C58.1636 80.356 60.0271 80.3563 61.8907 80.3553C64.6619 80.3537 67.4331 80.3555 70.2043 80.358C75.4413 80.3624 80.6783 80.3629 85.9153 80.3622C89.9591 80.3617 94.0028 80.3622 98.0466 80.3634C98.6271 80.3636 99.2076 80.3638 99.7881 80.364C100.663 80.3642 101.538 80.3645 102.412 80.3648C110.548 80.3672 118.684 80.3685 126.819 80.3673C127.126 80.3672 127.433 80.3672 127.749 80.3671C129.304 80.3669 130.86 80.3667 132.415 80.3664C132.724 80.3664 133.033 80.3663 133.351 80.3663C133.976 80.3662 134.601 80.366 135.225 80.3659C144.945 80.3644 154.665 80.3667 164.385 80.3721C175.301 80.3782 186.217 80.3813 197.132 80.3801C198.296 80.38 199.459 80.3799 200.623 80.3798C201.053 80.3798 201.053 80.3798 201.491 80.3797C205.82 80.3794 210.148 80.3813 214.476 80.3845C219.398 80.388 224.32 80.3884 229.243 80.3848C231.998 80.3829 234.753 80.3833 237.509 80.3873C239.349 80.3897 241.189 80.389 243.029 80.3856C244.078 80.3837 245.126 80.3833 246.175 80.3867C247.305 80.3904 248.435 80.3872 249.564 80.3834C250.053 80.3866 250.053 80.3866 250.551 80.3899C252.805 80.3741 254.896 80.1165 256.75 78.7355C257.923 77.5062 258.431 76.3007 258.544 74.6157C258.474 72.9758 257.9 71.6283 256.933 70.3127C255.299 68.8765 253.825 68.226 251.659 68.2242C251.213 68.2227 251.213 68.2227 250.758 68.2213C250.431 68.2217 250.104 68.2221 249.767 68.2226C249.418 68.2219 249.07 68.2212 248.71 68.2205C247.738 68.2189 246.765 68.2186 245.793 68.2188C244.736 68.2188 243.68 68.217 242.624 68.2155C240.527 68.2128 238.43 68.2116 236.332 68.211C233.821 68.2101 231.31 68.2076 228.799 68.205C222.729 68.1989 216.659 68.1958 210.59 68.1932C207.719 68.192 204.848 68.1905 201.977 68.1889C192.153 68.1837 182.329 68.1793 172.505 68.1771C171.888 68.177 171.271 68.1768 170.654 68.1767C170.348 68.1766 170.042 68.1766 169.727 68.1765C168.177 68.1761 166.627 68.1758 165.077 68.1754C164.77 68.1754 164.462 68.1753 164.145 68.1752C154.17 68.1729 144.195 68.166 134.219 68.1565C123.676 68.1465 113.133 68.1407 102.59 68.1397C101.433 68.1396 100.276 68.1395 99.1189 68.1393C98.834 68.1393 98.5491 68.1392 98.2556 68.1392C93.6677 68.1385 89.0799 68.1339 84.492 68.1279C79.8817 68.122 75.2715 68.1204 70.6612 68.1232C67.9215 68.1247 65.1818 68.123 62.442 68.1166C60.6121 68.1126 58.7822 68.1129 56.9522 68.1167C55.9094 68.1187 54.8668 68.1189 53.824 68.1139C52.7001 68.1085 51.5763 68.1123 50.4524 68.1169C50.1295 68.1139 49.8067 68.1109 49.474 68.1078C46.4941 68.1345 44.1544 68.8153 42.2861 71.211ZM28.4171 85.2541C28.3989 111.152 28.3808 137.05 28.3621 163.733C28.3541 171.92 28.3461 180.107 28.3379 188.541C28.3349 195.86 28.3349 195.86 28.3332 203.179C28.3323 206.662 28.3285 210.145 28.3233 213.628C28.3181 217.18 28.3161 220.731 28.3173 224.282C28.3179 226.21 28.317 228.138 28.3123 230.065C28.308 231.808 28.3078 233.551 28.3108 235.293C28.3112 235.924 28.31 236.554 28.3073 237.185C28.3038 238.043 28.3057 238.902 28.3089 239.761C28.3066 240.006 28.3043 240.25 28.3019 240.502C28.3315 243.985 29.6754 246.922 32.0288 249.469C35.3845 252.65 38.7597 253.509 43.2729 253.494C43.8339 253.495 43.8339 253.495 44.4063 253.497C45.4444 253.499 46.4825 253.499 47.5206 253.497C48.65 253.496 49.7795 253.499 50.9089 253.501C52.8884 253.504 54.8679 253.504 56.8474 253.504C59.7911 253.503 62.7348 253.505 65.6784 253.508C71.2417 253.514 76.805 253.516 82.3683 253.516C86.6644 253.516 90.9605 253.518 95.2567 253.519C96.493 253.52 97.7293 253.52 98.9656 253.521C99.273 253.521 99.5803 253.521 99.897 253.521C108.543 253.525 117.189 253.527 125.835 253.527C126.161 253.527 126.487 253.527 126.823 253.527C128.476 253.527 130.128 253.527 131.781 253.527C132.109 253.527 132.437 253.527 132.775 253.527C133.439 253.527 134.102 253.527 134.766 253.527C145.092 253.526 155.418 253.531 165.744 253.539C177.343 253.548 188.943 253.553 200.542 253.552C201.779 253.552 203.016 253.552 204.253 253.552C204.709 253.552 204.709 253.552 205.175 253.552C210.077 253.552 214.978 253.556 219.88 253.561C224.806 253.566 229.731 253.566 234.657 253.563C237.584 253.56 240.51 253.562 243.436 253.567C245.392 253.571 247.347 253.57 249.303 253.566C250.416 253.564 251.53 253.563 252.644 253.568C253.845 253.573 255.046 253.569 256.248 253.564C256.591 253.567 256.934 253.57 257.288 253.573C261.105 253.54 264.768 252.454 267.609 249.827C270.361 246.934 271.678 243.831 271.653 239.869C271.654 239.601 271.655 239.333 271.655 239.057C271.657 238.157 271.654 237.258 271.652 236.359C271.652 235.71 271.652 235.061 271.653 234.412C271.654 232.623 271.652 230.835 271.649 229.047C271.647 227.292 271.647 225.537 271.648 223.782C271.648 220.213 271.647 216.644 271.643 213.075C271.638 208.249 271.637 203.423 271.637 198.598C271.633 186.995 271.625 175.391 271.618 163.788C271.606 137.872 271.594 111.956 271.581 85.2541C191.337 85.2541 111.093 85.2541 28.4171 85.2541Z" fill="black"/>
</svg>
