<svg width="300" height="300" viewBox="0 0 300 300" fill="none" xmlns="http://www.w3.org/2000/svg">
<path d="M193.651 82.9097C193.82 83.0486 193.989 83.1876 194.163 83.3308C197.555 86.1427 200.576 89.1193 203.319 92.5776C203.512 92.8088 203.704 93.0399 203.902 93.278C210.713 101.523 215.009 111.437 217.089 121.875C217.137 122.108 217.186 122.342 217.236 122.583C218.946 131.27 218.675 141.369 216.796 150C216.704 150.434 216.704 150.434 216.61 150.878C213.602 164.77 207.355 178.503 199.218 190.136C199.088 190.323 198.959 190.51 198.826 190.702C196.883 193.503 194.882 196.247 192.773 198.925C192.585 199.167 192.397 199.408 192.204 199.657C189.682 202.863 186.97 205.908 184.185 208.886C183.996 209.089 183.807 209.293 183.612 209.502C182.512 210.669 181.37 211.749 180.152 212.793C179.46 213.393 178.797 214.02 178.133 214.651C176.141 216.542 174.065 218.271 171.879 219.934C171.405 220.298 170.935 220.667 170.467 221.04C156.188 232.291 156.188 232.291 147.948 231.445C142.06 230.285 136.482 226.449 131.853 222.778C131.005 222.108 130.142 221.465 129.272 220.825C125.663 218.12 122.257 215.21 118.995 212.097C118.434 211.565 117.878 211.081 117.271 210.597C116.633 210.084 116.135 209.568 115.612 208.941C114.956 208.172 114.289 207.445 113.561 206.744C112.45 205.653 111.493 204.454 110.518 203.242C109.952 202.55 109.369 201.89 108.764 201.232C91.747 182.257 80.703 156.304 81.7725 130.7C82.5666 116.926 87.8452 103.915 96.3858 93.1636C96.5139 93.0011 96.6421 92.8386 96.7742 92.6712C100.232 88.3256 104.212 84.4316 108.69 81.1519C109.024 80.9006 109.358 80.6492 109.692 80.3977C112.163 78.5591 114.75 77.009 117.48 75.5855C117.788 75.4229 117.788 75.4229 118.102 75.2572C141.761 62.9474 173.07 65.9085 193.651 82.9097ZM93.6667 133.987C91.8683 135.72 91.2372 137.923 91.038 140.364C90.8425 151.047 96.6396 160.567 103.729 168.121C104.296 168.75 104.296 168.75 104.589 169.335C104.782 169.335 104.976 169.335 105.175 169.335C105.272 169.625 105.368 169.916 105.468 170.214C106.483 171.165 107.591 172.001 108.69 172.851C108.922 173.031 109.153 173.211 109.391 173.397C115.687 178.055 124.332 180.205 132.128 179.589C134.848 179.141 137.76 178.498 139.855 176.623C141.878 173.044 140.848 168.417 139.89 164.654C138.212 158.636 134.745 152.929 130.663 148.242C130.417 147.956 130.17 147.671 129.916 147.377C128.171 145.395 126.304 143.716 124.218 142.089C123.994 141.898 123.77 141.706 123.539 141.509C117.611 136.484 100.931 127.876 93.6667 133.987ZM192.187 133.593C191.998 133.645 191.809 133.697 191.615 133.75C188.845 134.517 186.26 135.518 183.69 136.816C183.381 136.969 183.071 137.123 182.752 137.281C172.455 142.578 164.126 151.969 160.479 163C160.186 163.935 159.923 164.874 159.667 165.82C159.595 166.07 159.523 166.321 159.448 166.579C159.053 168.175 159.005 169.786 158.971 171.423C158.964 171.643 158.956 171.864 158.948 172.091C158.942 174.085 159.571 175.508 160.803 177.06C165.025 180.31 172.43 179.559 177.412 178.913C184.016 177.95 189.705 175.008 194.398 170.341C194.784 169.96 195.18 169.59 195.577 169.221C202.808 162.375 208.557 152.193 208.886 142.089C208.912 139.269 208.814 136.192 207.036 133.886C205.11 132.453 202.998 132.612 200.701 132.623C200.167 132.625 200.167 132.625 199.623 132.627C197.03 132.661 194.688 132.875 192.187 133.593ZM152.343 183.691C151.398 185.092 151.355 186.159 151.464 187.792C151.561 187.986 151.657 188.179 151.757 188.378C152.58 188.354 153.082 188.215 153.69 187.651C154.973 186.175 155.7 185.123 155.565 183.105C155.263 182.741 155.263 182.741 154.613 182.739C153.609 182.83 153.135 183.066 152.343 183.691ZM143.554 183.691C143.377 185.404 143.377 185.404 144.176 186.859C145.023 187.503 145.785 187.99 146.776 188.378C147.066 188.282 147.356 188.185 147.655 188.085C147.778 186.311 147.691 185.393 146.483 183.984C145.439 183.288 144.75 183.292 143.554 183.691ZM135.644 205.664C135.362 206.433 135.362 206.433 135.351 207.128C136.479 207.879 137.654 207.803 138.958 207.788C139.191 207.786 139.425 207.784 139.666 207.782C141.242 207.756 142.793 207.662 144.36 207.499C148.815 207.038 153.239 207.094 157.711 207.163C158.701 207.177 159.69 207.185 160.68 207.194C161.134 207.203 161.134 207.203 161.597 207.213C161.874 207.215 162.152 207.217 162.437 207.219C162.803 207.224 162.803 207.224 163.176 207.23C163.372 207.197 163.567 207.163 163.769 207.128C164.059 206.693 164.059 206.693 164.355 206.25C162.803 203.867 160.335 203.181 157.646 202.613C151.225 201.426 140.923 200.971 135.644 205.664Z" fill="black"/>
</svg>
