<svg width="300" height="300" viewBox="0 0 300 300" fill="none" xmlns="http://www.w3.org/2000/svg">
<path d="M157.526 112.29C160.097 114.197 161.585 116.491 162.598 119.531C162.622 119.965 162.63 120.4 162.627 120.835C162.626 121.083 162.625 121.331 162.624 121.587C162.622 121.845 162.619 122.103 162.617 122.369C162.615 122.631 162.614 122.892 162.613 123.162C162.609 123.807 162.604 124.452 162.598 125.098C162.822 125.17 163.045 125.243 163.276 125.317C164.183 125.739 164.504 125.956 164.942 126.855C164.934 127.869 164.841 128.827 164.719 129.831C164.629 130.739 164.58 131.396 164.972 132.233C165.688 132.854 166.351 133.09 167.249 133.392C170.418 134.546 173.211 136.095 175.782 138.281C175.963 138.045 176.144 137.81 176.331 137.567C176.954 136.816 176.954 136.816 177.54 136.523C177.529 136.241 177.519 135.958 177.509 135.667C177.501 135.297 177.493 134.927 177.485 134.546C177.475 134.179 177.464 133.812 177.454 133.433C177.543 132.381 177.665 131.973 178.419 131.25C178.612 131.25 178.805 131.25 179.004 131.25C178.991 130.991 178.977 130.732 178.963 130.466C178.845 126.532 179.805 123.916 182.434 121.034C184.581 118.932 187.53 117.89 190.508 117.756C194.131 117.834 197.579 119.035 200.263 121.527C202.649 124.153 203.055 126.798 203.153 130.215C203.345 131.399 203.635 131.64 204.493 132.422C204.617 133.041 204.617 133.041 204.584 133.685C204.576 133.915 204.568 134.144 204.559 134.381C204.493 135.058 204.493 135.058 204.255 136.175C204.228 136.638 204.228 136.638 204.2 137.109C204.874 137.839 204.874 137.839 205.665 138.281C205.761 138.088 205.858 137.894 205.958 137.695C206.731 138.082 207.504 138.469 208.301 138.867C208.301 139.06 208.301 139.254 208.301 139.453C208.495 139.526 208.688 139.598 208.887 139.673C209.99 140.132 211.047 140.667 212.11 141.211C213.118 140.389 213.545 140 213.697 138.683C213.664 138.112 213.664 138.112 213.63 137.53C213.502 135.105 213.502 135.105 214.161 134.18C214.354 134.083 214.547 133.986 214.747 133.887C214.742 133.687 214.737 133.488 214.733 133.282C214.714 132.379 214.703 131.476 214.692 130.572C214.681 130.101 214.681 130.101 214.669 129.621C214.667 129.32 214.664 129.018 214.661 128.708C214.656 128.43 214.652 128.153 214.647 127.867C214.747 127.148 214.747 127.148 215.157 126.619C215.737 126.186 216.096 126.145 216.816 126.105C217.849 126.02 218.854 125.892 219.874 125.702C220.118 125.657 220.363 125.612 220.615 125.566C220.901 125.479 220.901 125.479 221.192 125.39C221.289 125.197 221.385 125.004 221.485 124.805C224.373 124.153 227.269 124.708 230.132 125.208C230.866 125.337 231.602 125.458 232.337 125.579C232.809 125.658 233.281 125.737 233.753 125.817C233.971 125.854 234.188 125.89 234.412 125.927C235.538 126.126 236.556 126.383 237.598 126.855C237.605 127.17 237.605 127.17 237.611 127.491C237.633 128.439 237.661 129.387 237.69 130.334C237.7 130.83 237.7 130.83 237.71 131.336C237.72 131.651 237.731 131.966 237.741 132.291C237.749 132.583 237.757 132.874 237.765 133.175C237.806 133.41 237.848 133.645 237.891 133.887C238.181 134.08 238.471 134.273 238.77 134.473C238.813 135.514 238.775 136.518 238.71 137.557C238.653 139.154 238.949 139.904 239.942 141.211C240.491 142.741 240.597 144.286 240.528 145.898C240.915 145.898 241.301 145.898 241.7 145.898C241.948 144.753 242.192 143.608 242.435 142.462C242.557 141.884 242.682 141.308 242.807 140.731C243.234 138.703 243.544 136.733 243.682 134.665C243.78 133.559 244.025 132.52 244.318 131.451C244.368 131.261 244.418 131.07 244.469 130.874C244.796 129.627 245.151 128.387 245.508 127.148C247.549 127.442 249.563 127.828 251.569 128.302C251.88 128.371 251.88 128.371 252.197 128.442C252.781 128.585 252.781 128.585 253.712 128.906C253.808 129.196 253.905 129.486 254.004 129.785C259.979 131.042 259.979 131.042 266.055 131.273C266.332 131.265 266.609 131.258 266.895 131.25C267.188 131.543 267.188 131.543 267.194 132.26C266.718 139.707 263.183 144.727 257.805 149.582C257.211 150.012 256.773 150.172 256.055 150.293C255.855 149.671 255.727 149.255 255.895 148.615C256.52 146.017 256.247 143.218 254.883 140.918C253.906 139.563 252.893 138.435 251.368 137.695C251.314 138.25 251.314 138.25 251.259 138.817C251.054 140.666 250.674 142.475 250.305 144.297C250.254 144.558 250.202 144.819 250.149 145.088C250.102 145.321 250.054 145.555 250.006 145.795C249.894 146.541 249.825 147.197 249.903 147.949C250.193 148.142 250.483 148.336 250.782 148.535C250.737 148.74 250.692 148.946 250.646 149.158C250.341 150.869 250.341 150.869 250.905 152.452C251.447 153.059 251.447 153.059 252.024 153.588C253.155 154.714 253.384 156.057 253.419 157.617C253.296 159.372 252.56 160.539 251.37 161.807C250.247 162.758 249.041 163.183 247.559 163.183C247.172 165.117 246.786 167.051 246.387 169.043C244.337 169.043 244.337 169.043 242.872 168.75C242.872 171.167 242.872 173.584 242.872 176.074C243.742 176.557 244.612 177.041 245.508 177.539C245.508 179.666 245.508 181.793 245.508 183.984C240.288 183.984 235.067 183.984 229.688 183.984C229.235 183.077 229.444 182.149 229.523 181.164C229.578 180.451 229.632 179.738 229.688 179.004C227.368 179.004 225.047 179.004 222.657 179.004C222.668 180.424 222.668 180.424 222.683 181.843C222.689 183.333 222.689 183.333 222.364 183.984C218.98 183.984 215.596 183.984 212.11 183.984C212.013 184.661 211.917 185.338 211.817 186.035C211.231 186.621 211.231 186.621 210.529 186.693C210.087 186.693 210.087 186.693 209.636 186.692C209.303 186.693 208.97 186.694 208.626 186.695C208.265 186.693 207.903 186.691 207.531 186.688C207.162 186.688 206.793 186.688 206.413 186.688C205.631 186.687 204.85 186.685 204.068 186.681C203.065 186.676 202.061 186.675 201.057 186.675C200.103 186.675 199.148 186.673 198.193 186.67C197.65 186.67 197.65 186.67 197.096 186.669C196.764 186.667 196.431 186.665 196.089 186.664C195.794 186.662 195.5 186.661 195.197 186.66C194.532 186.621 194.532 186.621 194.239 186.328C194.209 185.623 194.198 184.928 194.202 184.222C194.201 183.837 194.201 183.453 194.2 183.056C194.239 181.933 194.239 181.933 194.532 180.176C192.115 180.176 189.698 180.176 187.208 180.176C187.111 182.303 187.014 184.43 186.915 186.621C182.951 186.621 178.987 186.621 174.903 186.621C174.71 187.394 174.516 188.168 174.317 188.965C171.763 188.971 169.209 188.977 166.654 188.98C165.468 188.981 164.282 188.984 163.097 188.987C161.953 188.99 160.809 188.992 159.666 188.993C159.229 188.993 158.791 188.994 158.354 188.996C157.744 188.998 157.134 188.998 156.523 188.998C156.175 188.999 155.827 188.999 155.468 189C154.688 188.965 154.688 188.965 154.395 188.672C154.37 188.15 154.364 187.627 154.366 187.105C154.367 186.789 154.368 186.472 154.369 186.147C154.372 185.814 154.374 185.481 154.377 185.138C154.378 184.804 154.379 184.47 154.381 184.126C154.384 183.297 154.389 182.469 154.395 181.64C154.233 181.688 154.072 181.736 153.905 181.785C153.147 181.95 152.463 181.971 151.686 181.972C151.393 181.973 151.099 181.973 150.797 181.974C150.492 181.972 150.187 181.971 149.872 181.97C149.569 181.971 149.265 181.972 148.952 181.974C148.511 181.973 148.511 181.973 148.061 181.972C147.794 181.972 147.526 181.972 147.251 181.971C146.485 181.933 146.485 181.933 145.02 181.64C145.02 184.057 145.02 186.474 145.02 188.965C142.596 189.016 140.171 189.065 137.747 189.11C136.621 189.13 135.495 189.152 134.369 189.177C133.283 189.2 132.196 189.221 131.11 189.239C130.695 189.247 130.281 189.256 129.866 189.265C129.286 189.279 128.705 189.288 128.124 189.297C127.794 189.304 127.463 189.31 127.123 189.317C126.282 189.258 125.808 189.11 125.098 188.672C125.098 187.995 125.098 187.318 125.098 186.621C121.038 186.621 116.977 186.621 112.794 186.621C112.794 184.494 112.794 182.367 112.794 180.176C112.244 180.23 111.694 180.284 111.127 180.34C109.105 180.5 107.193 180.375 105.176 180.176C105.08 182.303 104.983 184.43 104.883 186.621C102.673 186.628 100.462 186.633 98.252 186.636C97.2257 186.638 96.1994 186.64 95.1731 186.643C93.9944 186.647 92.8156 186.648 91.6368 186.65C91.2667 186.651 90.8965 186.653 90.5151 186.654C90.1749 186.654 89.8348 186.654 89.4843 186.654C89.0325 186.655 89.0325 186.655 88.5715 186.656C87.8912 186.621 87.8912 186.621 87.5982 186.328C87.5982 185.555 87.5982 184.781 87.5982 183.984C83.9244 183.984 80.2506 183.984 76.4654 183.984C76.3687 182.341 76.272 180.697 76.1724 179.004C75.7597 179.007 75.3469 179.011 74.9216 179.014C74.3803 179.017 73.839 179.019 73.2977 179.022C72.8895 179.026 72.8895 179.026 72.4731 179.03C72.2116 179.03 71.9501 179.031 71.6806 179.032C71.4398 179.034 71.1989 179.035 70.9507 179.037C70.3131 179.004 70.3131 179.004 69.4342 178.711C69.4342 180.451 69.4342 182.191 69.4342 183.984C64.1168 183.984 58.7994 183.984 53.3209 183.984C53.3209 178.125 53.3209 178.125 54.4928 176.953C55.0728 176.76 55.6529 176.566 56.2506 176.367C56.2506 173.757 56.2506 171.146 56.2506 168.457C55.6705 168.65 55.0904 168.844 54.4928 169.043C53.8095 169.065 53.125 169.07 52.442 169.043C52.3077 168.506 52.1734 167.969 52.0391 167.432C51.9561 167.112 51.873 166.792 51.7874 166.462C51.5631 165.527 51.5631 165.527 51.4669 164.803C51.3928 164.107 51.3928 164.107 50.9771 163.183C50.336 162.88 49.7093 162.72 49.0213 162.549C47.6753 162.065 46.9716 160.887 46.2484 159.71C45.6189 158.139 45.7925 156.167 46.3262 154.596C46.8756 153.808 46.8756 153.808 47.3253 153.372C48.1667 152.539 48.5967 152.053 48.7467 150.846C48.7436 149.971 48.7106 149.113 48.6334 148.242C48.9234 148.145 49.2135 148.049 49.5123 147.949C49.4679 147.691 49.4235 147.432 49.3778 147.166C49.2131 146.202 49.0494 145.238 48.8864 144.274C48.8158 143.858 48.7448 143.442 48.6733 143.026C48.5703 142.426 48.469 141.826 48.3679 141.226C48.3065 140.865 48.2451 140.505 48.1819 140.133C48.067 139.302 48.0197 138.532 48.0474 137.695C46.0684 138.437 44.6329 139.976 43.6117 141.812C42.5587 144.387 42.7689 146.997 43.067 149.707C40.3491 149.253 37.9195 146.217 36.3287 144.14C33.8311 140.34 31.6825 135.906 31.9342 131.25C32.9833 131.002 33.8821 130.957 34.9554 131.012C37.2827 131.041 39.5184 130.616 41.8028 130.202C42.0961 130.149 42.3894 130.096 42.6916 130.041C42.9543 129.992 43.2169 129.943 43.4875 129.893C44.2374 129.785 44.9474 129.766 45.7037 129.785C45.7037 129.398 45.7037 129.012 45.7037 128.613C46.7406 128.366 47.7784 128.123 48.8165 127.881C49.1092 127.811 49.4018 127.741 49.7034 127.669C51.127 127.339 52.4341 127.048 53.9068 127.148C54.5282 128.79 54.8041 130.461 55.097 132.184C55.1478 132.47 55.1986 132.757 55.2509 133.052C55.5416 134.737 55.7436 136.407 55.8836 138.11C56.0138 139.441 56.2799 140.744 56.5384 142.054C56.7844 143.361 56.8765 144.568 56.8365 145.898C57.3199 145.898 57.8033 145.898 58.3013 145.898C58.2877 145.651 58.2742 145.403 58.2601 145.148C58.1911 142.978 58.2943 141.584 59.4732 139.746C59.6666 139.553 59.8599 139.359 60.0592 139.16C60.0743 138.163 60.0428 137.182 59.9848 136.187C59.9653 135.563 59.9653 135.563 60.0592 134.473C60.3466 134.271 60.3466 134.271 60.6398 134.066C61.3038 133.638 61.3038 133.638 61.391 132.848C61.3971 132.558 61.4032 132.268 61.4096 131.97C61.419 131.655 61.4284 131.341 61.4382 131.017C61.4423 130.689 61.4465 130.361 61.4508 130.023C61.4594 129.692 61.4681 129.36 61.4771 129.019C61.4978 128.2 61.5132 127.381 61.524 126.562C63.0801 126.154 64.6241 125.825 66.2161 125.588C66.432 125.556 66.648 125.524 66.8704 125.49C67.3243 125.423 67.7783 125.356 68.2324 125.29C68.9163 125.19 69.5991 125.084 70.2822 124.978C72.794 124.603 75.1017 124.424 77.6373 124.805C77.6373 124.998 77.6373 125.191 77.6373 125.39C77.9998 125.427 78.3624 125.463 78.7359 125.5C80.1775 125.658 81.5998 125.899 83.0274 126.152C83.8058 126.292 83.8058 126.292 84.6685 126.269C84.5719 128.88 84.4752 131.49 84.3756 134.18C84.7623 134.373 85.149 134.566 85.5474 134.765C85.5338 135.108 85.5202 135.451 85.5062 135.803C85.4952 136.257 85.4846 136.711 85.4742 137.164C85.4595 137.502 85.4595 137.502 85.4444 137.847C85.4182 139.373 85.6256 140.068 86.7193 141.211C86.7193 141.404 86.7193 141.598 86.7193 141.797C87.3557 141.421 87.9901 141.042 88.6236 140.661C88.8053 140.555 88.9869 140.448 89.1741 140.338C89.6354 140.059 90.083 139.757 90.5279 139.453C90.5279 139.26 90.5279 139.066 90.5279 138.867C90.7258 138.81 90.9237 138.754 91.1276 138.695C91.5196 138.581 91.5196 138.581 91.9195 138.464C92.307 138.352 92.307 138.352 92.7023 138.238C94.0438 137.809 94.0438 137.809 95.014 136.853C95.2565 136.103 95.1208 135.809 94.9224 135.058C94.8423 134.419 94.8423 134.419 94.8126 133.758C94.7982 133.541 94.7839 133.324 94.7691 133.1C94.9224 132.422 94.9224 132.422 95.6503 131.739C96.5988 130.733 96.562 130.195 96.5704 128.833C96.6842 125.353 97.6663 123.117 100.227 120.709C103.325 118.137 106.799 117.425 110.743 117.773C113.812 118.338 116.484 119.662 118.47 122.113C120.045 124.454 120.573 126.716 120.719 129.499C120.809 130.673 120.907 131.161 121.757 132.005C122.462 132.715 122.462 132.715 122.499 133.693C122.445 134.041 122.39 134.389 122.333 134.747C122.093 136.442 122.093 136.442 122.736 137.952C122.936 138.157 123.135 138.362 123.34 138.574C124.278 138.162 125.052 137.6 125.866 136.984C128.087 135.311 130.576 133.69 133.363 133.183C134.167 132.914 134.382 132.588 134.766 131.836C134.798 130.845 134.759 129.898 134.68 128.912C134.63 127.739 134.74 127.025 135.464 126.121C136.231 125.39 136.231 125.39 136.817 125.39C136.803 125.051 136.79 124.711 136.776 124.361C136.654 120.032 137.289 116.872 140.322 113.645C144.839 109.259 152.319 108.877 157.526 112.29ZM141.504 115.723C140.957 116.384 140.504 117.048 140.04 117.773C140.136 117.967 140.233 118.16 140.333 118.359C140.83 118.216 140.83 118.216 141.337 118.07C142.689 117.733 143.963 117.696 145.35 117.718C145.576 117.719 145.802 117.719 146.035 117.719C147.29 117.729 148.473 117.82 149.708 118.066C149.708 118.163 149.708 118.26 149.708 118.359C149.357 118.347 149.007 118.335 148.646 118.323C145.375 118.338 142.15 118.718 139.526 120.822C138.852 121.683 139.094 122.577 139.161 123.633C139.257 123.826 139.354 124.019 139.454 124.219C139.894 124.187 139.894 124.187 140.344 124.155C143.898 123.927 147.448 123.893 151.008 123.889C151.367 123.888 151.367 123.888 151.734 123.887C154.59 123.88 157.409 123.94 160.254 124.219C160.474 122.126 160.474 122.126 159.723 120.264C158.018 119.461 156.285 118.945 154.395 118.945C154.492 118.752 154.588 118.558 154.688 118.359C156.284 118.331 157.805 118.322 159.376 118.652C159.036 116.934 158.016 115.655 156.629 114.615C151.919 111.685 145.629 111.836 141.504 115.723ZM100.73 123.434C99.7069 124.576 99.7069 124.576 99.317 125.976C99.684 125.973 100.051 125.97 100.429 125.966C100.913 125.963 101.397 125.961 101.88 125.958C102.122 125.956 102.364 125.953 102.613 125.951C102.847 125.95 103.081 125.949 103.322 125.948C103.537 125.946 103.752 125.945 103.973 125.943C104.604 125.977 105.156 126.096 105.762 126.269C105.327 126.318 105.327 126.318 104.883 126.367C101.869 126.72 101.869 126.72 99.024 127.734C98.6272 128.528 98.712 129.202 98.731 130.078C99.8557 130.453 100.852 130.326 102.014 130.244C105.382 130.037 108.743 130.045 112.116 130.06C112.726 130.061 113.336 130.062 113.945 130.064C115.417 130.067 116.888 130.072 118.36 130.078C118.36 129.305 118.36 128.531 118.36 127.734C116.646 126.657 114.773 126.519 112.794 126.269C113.692 125.82 114.63 125.946 115.613 125.958C115.924 125.96 115.924 125.96 116.24 125.962C116.752 125.966 117.263 125.971 117.774 125.976C117.192 123.914 116.03 122.681 114.272 121.486C109.969 119.142 104.126 119.812 100.73 123.434ZM182.843 124.34C182.464 124.79 182.464 124.79 182.52 125.39C182.872 125.369 183.223 125.348 183.586 125.326C188.911 125.023 194.191 125 199.512 125.39C198.874 123.519 197.601 122.43 195.883 121.494C191.144 119.34 186.244 120.346 182.843 124.34ZM141.212 126.562C141.308 126.852 141.405 127.142 141.504 127.441C142.322 127.744 142.322 127.744 143.281 127.936C143.766 128.046 143.766 128.046 144.261 128.159C144.512 128.212 144.762 128.265 145.02 128.32C145.02 128.514 145.02 128.707 145.02 128.906C144.537 129.099 144.053 129.293 143.555 129.492C143.652 129.685 143.749 129.879 143.848 130.078C145.832 130.298 146.804 129.828 148.42 128.676C149.122 128.32 149.122 128.32 149.864 128.366C150.607 128.62 151.175 128.937 151.832 129.364C153.243 130.189 154.247 130.206 155.86 130.078C155.957 129.885 156.053 129.691 156.153 129.492C155.869 129.407 155.585 129.323 155.292 129.236C154.395 128.906 154.395 128.906 154.102 128.32C154.349 128.285 154.596 128.249 154.851 128.213C155.172 128.164 155.493 128.114 155.823 128.064C156.303 127.992 156.303 127.992 156.791 127.92C157.653 127.804 157.653 127.804 158.204 127.148C158.204 126.858 158.204 126.568 158.204 126.269C152.534 126.215 146.877 126.373 141.212 126.562ZM137.783 127.62C137.255 128.594 137.494 129.095 137.769 130.151C138.099 131.935 138.099 131.935 137.616 132.786C137.249 133.159 136.874 133.525 136.493 133.884C135.082 135.379 134.7 137.456 134.62 139.453C134.676 141.257 135.215 142.793 135.938 144.433C136.314 143.523 136.314 143.523 136.066 142.401C135.632 138.895 136.914 136.091 138.868 133.301C138.686 134.367 138.374 135.284 137.971 136.285C137.003 139.139 136.842 142.843 138.008 145.673C138.435 146.482 138.907 147.214 139.454 147.949C139.828 146.826 139.533 146.418 139.161 145.312C138.827 142.107 139.271 139.082 141.157 136.413C142.503 134.778 144.12 133.55 145.899 132.422C145.609 132.325 145.319 132.228 145.02 132.129C144.73 132.274 144.73 132.274 144.434 132.422C143.272 132.533 142.527 132.484 141.45 132.019C140.466 131.101 140.141 130.287 139.705 129.034C139.472 128.372 139.195 127.769 138.868 127.148C138.238 127.081 138.238 127.081 137.783 127.62ZM160.547 127.148C160.476 127.364 160.405 127.58 160.332 127.802C159.16 131.216 159.16 131.216 157.686 132.171C156.842 132.494 156.241 132.418 155.347 132.312C154.914 132.263 154.914 132.263 154.473 132.213C154.254 132.186 154.035 132.158 153.809 132.129C154.462 132.802 155.101 133.454 155.831 134.045C158.21 135.971 159.727 138.471 160.254 141.504C160.478 143.996 160.172 146.171 159.376 148.535C161.142 147.21 161.592 145.366 162.012 143.262C162.33 140.227 161.823 137.63 160.84 134.765C160.731 134.437 160.621 134.108 160.509 133.769C160.425 133.518 160.341 133.266 160.254 133.008C160.448 133.008 160.641 133.008 160.84 133.008C160.962 133.32 160.962 133.32 161.086 133.638C161.541 134.753 162.053 135.837 162.563 136.927C163.062 138.094 163.221 139.059 163.213 140.327C163.212 140.601 163.211 140.875 163.21 141.157C163.206 141.582 163.206 141.582 163.202 142.016C163.201 142.305 163.2 142.593 163.198 142.89C163.195 143.6 163.19 144.309 163.184 145.019C164.952 142.798 164.883 140.125 164.649 137.402C164.21 135.673 163.414 134.11 162.305 132.715C162.015 132.618 161.725 132.521 161.426 132.422C161.497 132.16 161.567 131.899 161.639 131.63C161.726 131.287 161.813 130.944 161.902 130.591C161.991 130.251 162.079 129.911 162.17 129.561C162.365 128.648 162.365 128.648 162.111 127.922C161.628 127.329 161.293 127.248 160.547 127.148ZM64.1607 128.613C64.1607 129.967 64.1607 131.32 64.1607 132.715C69.9615 132.715 75.7623 132.715 81.7388 132.715C81.7388 131.458 81.7388 130.201 81.7388 128.906C76.2073 127.062 69.7536 126.749 64.1607 128.613ZM181.641 128.32C181.641 128.9 181.641 129.48 181.641 130.078C187.829 130.078 194.016 130.078 200.391 130.078C200.391 129.498 200.391 128.918 200.391 128.32C194.98 126.921 187.038 126.521 181.641 128.32ZM223.965 127.687C223.655 127.739 223.346 127.79 223.027 127.844C222.705 127.898 222.384 127.953 222.053 128.009C221.73 128.062 221.407 128.116 221.075 128.171C219.354 128.45 219.354 128.45 217.676 128.906C217.676 130.163 217.676 131.42 217.676 132.715C218.586 133.018 219.208 133.043 220.161 133.041C220.654 133.041 220.654 133.041 221.156 133.041C221.511 133.039 221.865 133.038 222.23 133.036C222.593 133.036 222.956 133.035 223.33 133.035C224.293 133.034 225.257 133.031 226.221 133.028C227.205 133.025 228.189 133.023 229.173 133.022C231.102 133.019 233.032 133.014 234.962 133.008C234.962 131.557 234.962 130.107 234.962 128.613C233.815 128.445 232.668 128.278 231.521 128.112C230.94 128.028 230.359 127.943 229.777 127.858C229.411 127.805 229.045 127.752 228.667 127.698C228.33 127.649 227.992 127.599 227.644 127.549C226.364 127.393 225.227 127.476 223.965 127.687ZM48.9263 130.664C49.0714 131.099 49.0714 131.099 49.2193 131.543C48.9078 131.593 48.5963 131.643 48.2754 131.695C47.1052 131.883 45.9351 132.073 44.7651 132.262C44.2613 132.343 43.7576 132.424 43.2539 132.505C40.5502 132.941 37.8479 133.377 35.1568 133.887C34.4921 136.704 36.4518 139.555 37.8771 141.91C38.4751 142.821 39.1084 143.631 39.8443 144.433C40.5673 143.711 40.6859 143.138 40.9796 142.163C41.4268 140.768 41.9006 139.739 42.774 138.574C42.8707 138.357 42.9674 138.139 43.067 137.915C43.4487 137.247 43.8454 137.148 44.5318 136.816C44.8749 136.58 45.2166 136.342 45.5572 136.102C47.0337 135.162 48.6709 134.742 50.3912 134.473C50.9798 135.061 50.8957 136.029 50.9771 136.816C50.8321 137.251 50.8321 137.251 50.6842 137.695C50.7592 138.368 50.8607 139.037 50.976 139.704C51.0089 139.897 51.0418 140.091 51.0758 140.291C51.1813 140.909 51.2897 141.527 51.3983 142.145C51.4704 142.564 51.5423 142.983 51.614 143.403C51.7901 144.43 51.9688 145.457 52.149 146.484C53.1988 146.778 53.1988 146.778 54.1998 146.484C53.9975 145.207 53.7942 143.929 53.59 142.652C53.5207 142.218 53.4517 141.783 53.3829 141.349C53.284 140.724 53.1841 140.099 53.084 139.475C53.0241 139.099 52.9643 138.723 52.9027 138.336C52.7576 137.4 52.7576 137.4 52.442 136.523C52.4298 136.035 52.4298 135.547 52.442 135.058C52.442 134.039 52.2971 133.083 52.149 132.074C52.0946 131.701 52.0402 131.328 51.9842 130.944C51.9419 130.658 51.8996 130.373 51.856 130.078C50.7214 130.047 49.9645 130.189 48.9263 130.664ZM247.559 130.371C247.437 131.061 247.315 131.75 247.193 132.44C247.154 132.659 247.116 132.877 247.076 133.103C246.842 134.428 246.61 135.753 246.382 137.079C246.331 137.373 246.28 137.666 246.228 137.969C246.129 138.542 246.03 139.115 245.932 139.688C245.66 141.262 245.365 142.827 245.034 144.389C244.892 145.191 244.88 145.965 244.922 146.777C245.503 146.874 246.083 146.971 246.68 147.07C246.934 145.831 247.184 144.591 247.431 143.351C247.516 142.93 247.601 142.51 247.687 142.089C248.172 139.726 248.552 137.486 248.438 135.058C251.107 134.792 253.06 135.702 255.208 137.266C257.417 139.254 258.507 142.151 258.985 145.019C261.871 142.294 263.869 138.381 264.551 134.473C262.876 134.036 261.204 133.683 259.5 133.381C259.251 133.336 259.002 133.291 258.746 133.245C258.224 133.152 257.703 133.059 257.181 132.966C256.381 132.824 255.581 132.68 254.78 132.536C254.272 132.445 253.764 132.355 253.256 132.264C253.016 132.221 252.777 132.178 252.53 132.133C251.37 131.915 251.37 131.915 250.196 131.836C250.293 131.546 250.389 131.256 250.489 130.957C249.428 130.571 248.703 130.371 247.559 130.371ZM101.075 132.129C101.171 132.515 101.268 132.902 101.368 133.301C102.96 133.74 102.96 133.74 104.59 133.887C104.59 134.177 104.59 134.467 104.59 134.765C104.107 134.862 103.624 134.959 103.126 135.058C103.222 135.252 103.319 135.445 103.419 135.644C104.885 135.566 105.778 135.413 106.989 134.564C108.02 133.872 108.02 133.872 108.838 134.015C109.201 134.241 109.201 134.241 109.571 134.473C111.115 135.35 112.175 135.794 113.965 135.644C114.062 135.451 114.159 135.258 114.258 135.058C113.678 134.962 113.098 134.865 112.501 134.765C112.501 134.475 112.501 134.185 112.501 133.887C112.803 133.87 112.803 133.87 113.111 133.853C113.507 133.825 113.507 133.825 113.91 133.795C114.303 133.77 114.303 133.77 114.704 133.744C115.526 133.574 115.813 133.382 116.309 132.715C116.309 132.521 116.309 132.328 116.309 132.129C111.282 132.129 106.254 132.129 101.075 132.129ZM183.399 132.422C183.592 132.808 183.786 133.195 183.985 133.594C184.625 133.799 184.625 133.799 185.34 133.813C185.699 133.838 185.699 133.838 186.065 133.864C186.249 133.871 186.433 133.879 186.622 133.887C186.622 134.177 186.622 134.467 186.622 134.765C186.138 134.862 185.655 134.959 185.157 135.058C185.253 135.252 185.35 135.445 185.45 135.644C186.898 135.771 187.704 135.826 188.856 134.894C189.748 134.182 189.748 134.182 190.742 134.161C191.602 134.473 191.602 134.473 192.444 135.058C193.605 135.801 194.337 135.869 195.704 135.937C195.897 135.841 196.09 135.744 196.29 135.644C196.29 135.451 196.29 135.258 196.29 135.058C196.054 135.022 195.818 134.986 195.576 134.949C195.328 134.888 195.08 134.828 194.825 134.765C194.68 134.475 194.68 134.475 194.532 134.18C194.758 134.151 194.983 134.122 195.216 134.093C195.51 134.049 195.804 134.005 196.107 133.96C196.399 133.919 196.691 133.878 196.992 133.836C197.244 133.756 197.495 133.676 197.754 133.594C197.948 133.207 198.141 132.82 198.34 132.422C193.41 132.422 188.479 132.422 183.399 132.422ZM118.36 132.715C118.292 132.93 118.225 133.146 118.155 133.368C117.158 136.353 117.158 136.353 115.723 137.402C114.519 137.846 113.453 137.622 112.208 137.402C112.401 137.59 112.594 137.777 112.794 137.97C113.087 138.268 113.38 138.568 113.672 138.867C113.867 139.059 114.061 139.251 114.261 139.448C116.619 141.902 117.064 144.172 117.005 147.533C116.868 148.784 116.504 149.786 115.951 150.911C115.876 151.094 115.801 151.276 115.723 151.465C115.82 151.658 115.917 151.851 116.016 152.051C117.834 148.884 117.834 148.884 118.067 145.312C118.26 145.312 118.454 145.312 118.653 145.312C118.75 145.506 118.846 145.699 118.946 145.898C119.86 143.157 118.888 140.82 117.774 138.281C118.739 139.148 119.242 139.949 119.752 141.138C119.877 141.426 120.002 141.715 120.131 142.012C120.224 142.231 120.316 142.45 120.411 142.676C121.042 142.442 121.042 142.442 121.203 141.852C121.303 141.112 121.198 140.728 120.923 140.039C120.849 139.846 120.775 139.652 120.699 139.453C120.432 138.843 120.432 138.843 119.943 138.35C119.35 137.406 119.437 136.501 119.477 135.425C119.483 135.118 119.483 135.118 119.489 134.806C119.499 134.304 119.515 133.802 119.532 133.301C119.145 133.107 118.758 132.914 118.36 132.715ZM97.8521 133.008C97.5715 134.12 97.5893 134.973 97.7606 136.102C97.9195 137.611 97.9195 137.611 97.3394 138.336C97.1219 138.511 96.9044 138.687 96.6803 138.867C95.721 140.558 95.6962 142.241 95.8013 144.14C95.9947 144.14 96.1881 144.14 96.3873 144.14C96.4371 143.953 96.487 143.765 96.5383 143.572C96.8886 142.321 97.2337 141.174 97.9071 140.057C98.5127 139.208 98.5127 139.208 98.4381 138.281C98.6314 138.281 98.8248 138.281 99.024 138.281C98.9394 138.554 98.8548 138.827 98.7677 139.109C97.6946 142.723 97.1416 146.227 99.024 149.707C99.6209 150.37 99.6209 150.37 100.196 150.879C100.099 150.571 100.003 150.262 99.9029 149.945C99.1232 146.752 99.5053 143.966 101.158 141.157C102.222 139.589 103.555 138.646 105.176 137.695C104.3 137.429 103.956 137.412 103.016 137.604C101.954 137.695 101.954 137.695 101.002 137.256C99.7159 136.087 99.2799 134.697 99.024 133.008C98.6373 133.008 98.2506 133.008 97.8521 133.008ZM180.469 133.008C180.08 133.331 180.08 133.331 180.137 134.142C180.138 134.487 180.139 134.831 180.14 135.187C180.139 135.703 180.139 135.703 180.137 136.229C180.116 137.087 180.116 137.087 180.469 137.695C180.3 137.75 180.131 137.804 179.957 137.86C178.941 138.509 178.634 139.24 178.126 140.332C178.112 141.015 178.112 141.015 178.419 141.504C178.612 141.6 178.805 141.697 179.004 141.797C180.02 140.202 180.02 140.202 181.055 138.574C180.213 141.138 180.213 141.138 179.883 141.797C179.696 143.636 180.243 144.885 181.055 146.484C181.152 146.484 181.249 146.484 181.348 146.484C181.395 146.258 181.441 146.031 181.489 145.798C182.359 141.914 184.067 140.024 187.208 137.695C186.992 137.712 186.776 137.729 186.554 137.747C184.224 137.854 184.224 137.854 183.106 137.109C182.415 136.073 182.008 135.07 181.641 133.887C181.545 133.597 181.448 133.307 181.348 133.008C181.058 133.008 180.768 133.008 180.469 133.008ZM200.391 133.008C200.32 133.202 200.249 133.397 200.176 133.597C198.892 136.98 198.892 136.98 197.462 137.695C196.337 137.737 195.317 137.747 194.239 137.402C194.239 137.596 194.239 137.789 194.239 137.988C194.69 138.33 195.157 138.65 195.63 138.959C197.91 140.522 199.279 142.566 199.805 145.312C199.939 147.457 199.772 149.392 199.219 151.465C200.91 150.124 201.256 148.13 201.508 146.081C201.688 143.452 201.004 141.021 200.098 138.574C202.491 141.138 202.574 143.871 202.483 147.191C202.463 147.712 202.463 147.712 202.442 148.242C203.612 147.072 203.867 145.216 203.949 143.607C203.846 141.647 203.296 139.892 202.149 138.281C201.859 138.184 201.569 138.088 201.27 137.988C201.367 137.795 201.463 137.601 201.563 137.402C201.646 136.769 201.71 136.134 201.764 135.498C201.796 135.157 201.827 134.815 201.859 134.463C201.958 133.558 201.958 133.558 201.27 133.008C200.98 133.008 200.69 133.008 200.391 133.008ZM146.778 133.887C142.574 137.488 142.574 137.488 140.82 142.598C140.763 145.147 140.82 147.541 142.494 149.623C142.922 150.078 142.922 150.078 143.555 150.586C143.492 150.376 143.428 150.167 143.363 149.951C142.495 146.845 142.145 143.932 143.509 140.926C143.916 140.214 144.399 139.692 145.02 139.16C145.02 138.967 145.02 138.773 145.02 138.574C145.238 138.489 145.455 138.405 145.679 138.318C146.456 138.02 146.456 138.02 147.034 137.677C148.782 136.906 150.201 137.12 151.947 137.715C154.047 138.547 155.091 139.865 156.153 141.797C157.336 144.755 156.644 147.609 155.86 150.586C157.622 149.117 158.368 147.403 158.61 145.127C158.706 141.833 157.995 139.164 155.757 136.667C155.334 136.233 154.904 135.809 154.468 135.388C154.32 135.242 154.172 135.097 154.019 134.946C153.657 134.592 153.294 134.239 152.93 133.887C152.2 134.239 151.559 134.606 150.879 135.058C149.083 135.266 148.258 134.782 146.778 133.887ZM65.9185 135.058C66.0152 135.349 66.1119 135.639 66.2115 135.937C66.8205 136.141 66.8205 136.141 67.5299 136.23C68.2531 136.34 68.2531 136.34 68.8482 136.523C68.9449 136.813 69.0416 137.103 69.1412 137.402C68.6578 137.402 68.1744 137.402 67.6763 137.402C67.6763 137.596 67.6763 137.789 67.6763 137.988C68.9158 138.089 69.7398 138.057 70.7891 137.402C71.8153 136.794 72.1021 136.691 73.2428 136.816C74.0078 137.162 74.7132 137.57 75.44 137.989C76.3081 138.335 76.7551 138.251 77.6373 137.988C77.4439 137.795 77.2506 137.601 77.0513 137.402C76.7613 137.402 76.4713 137.402 76.1724 137.402C76.1724 137.112 76.1724 136.822 76.1724 136.523C77.1392 136.33 78.106 136.137 79.1021 135.937C79.1988 135.647 79.2955 135.357 79.3951 135.058C74.9478 135.058 70.5006 135.058 65.9185 135.058ZM219.434 135.058C219.865 136.237 219.865 136.237 220.59 136.473C220.801 136.514 221.011 136.555 221.229 136.597C221.603 136.669 221.978 136.742 222.364 136.816C222.364 137.01 222.364 137.203 222.364 137.402C221.977 137.499 221.59 137.596 221.192 137.695C221.192 137.889 221.192 138.082 221.192 138.281C222.588 138.427 223.284 138.334 224.451 137.53C225.505 136.818 225.505 136.818 226.337 136.798C227.051 137.109 227.051 137.109 228.04 137.713C229.088 138.351 229.925 138.381 231.153 138.281C231.153 138.088 231.153 137.894 231.153 137.695C230.428 137.55 230.428 137.55 229.688 137.402C229.981 136.816 229.981 136.816 230.586 136.567C230.828 136.492 231.069 136.417 231.318 136.34C231.56 136.264 231.802 136.188 232.051 136.109C232.332 136.024 232.332 136.024 232.618 135.937C232.618 135.647 232.618 135.357 232.618 135.058C228.267 135.058 223.917 135.058 219.434 135.058ZM63.2818 135.644C63.1851 135.741 63.0885 135.838 62.9888 135.937C63.0156 136.972 63.0659 138.004 63.1216 139.038C62.9888 140.039 62.9888 140.039 62.285 140.702C62.0339 140.87 61.7828 141.038 61.524 141.211C60.3426 143.166 60.3332 145.376 60.8236 147.579C61.0237 148.219 61.2157 148.818 61.524 149.414C61.7174 149.511 61.9107 149.607 62.1099 149.707C62.0616 149.477 62.0133 149.248 61.9635 149.011C61.558 146.072 61.7951 143.394 63.5748 140.918C63.7681 140.821 63.9615 140.724 64.1607 140.625C64.0338 140.924 64.0338 140.924 63.9044 141.229C62.8158 144.071 62.3607 147.33 63.3917 150.275C63.7675 151.192 63.7675 151.192 64.4537 151.465C64.4401 151.139 64.4265 150.814 64.4125 150.478C64.3255 147.504 64.5329 145.335 66.1199 142.749C67.1161 141.78 68.257 141.064 69.4342 140.332C68.5525 139.975 68.5525 139.975 67.5665 140.112C66.5045 140.039 66.5045 140.039 65.6988 139.49C64.8318 138.285 64.5024 137.075 64.1607 135.644C63.8707 135.644 63.5806 135.644 63.2818 135.644ZM81.4459 135.644C81.4028 135.839 81.3598 136.033 81.3154 136.234C80.7104 138.616 80.7104 138.616 79.8162 139.49C78.4703 140.224 77.3793 140.172 75.8795 140.039C76.6387 140.821 77.3484 141.507 78.2232 142.163C80.5683 144.127 80.8765 146.807 81.1529 149.707C82.1236 148.736 82.291 147.678 82.4346 146.338C82.3985 144.486 81.7037 142.669 81.1529 140.918C81.9307 141.838 82.5194 142.681 82.984 143.793C83.0822 144.024 83.1803 144.256 83.2815 144.494C83.3525 144.667 83.4235 144.841 83.4967 145.019C83.69 144.923 83.8834 144.826 84.0826 144.726C84.175 143.186 84.0045 142.242 83.2037 140.918C83.0103 140.724 82.817 140.531 82.6178 140.332C82.5753 139.576 82.563 138.853 82.5811 138.098C82.5838 137.891 82.5864 137.684 82.5891 137.471C82.596 136.96 82.6066 136.449 82.6178 135.937C82.231 135.841 81.8443 135.744 81.4459 135.644ZM234.962 135.644C234.891 135.863 234.82 136.082 234.746 136.308C234.648 136.597 234.55 136.885 234.449 137.182C234.354 137.468 234.258 137.754 234.16 138.048C233.665 139.141 233.128 139.842 231.991 140.282C231.418 140.396 230.846 140.51 230.274 140.625C230.479 140.824 230.685 141.024 230.897 141.229C231.179 141.515 231.459 141.802 231.739 142.09C231.89 142.245 232.041 142.401 232.197 142.561C232.423 142.808 232.423 142.808 232.654 143.06C232.864 143.285 232.864 143.285 233.078 143.515C234.352 145.419 234.497 147.193 234.43 149.414C234.427 149.669 234.423 149.924 234.418 150.186C234.408 150.808 234.392 151.429 234.376 152.051C235.793 150.315 236.286 148.181 236.2 145.964C236.004 144.047 235.483 142.364 234.669 140.625C235.936 141.666 236.625 142.856 237.012 144.433C237.151 146.188 237.081 147.95 237.012 149.707C238.504 147.891 238.385 145.826 238.184 143.555C237.847 142.477 237.427 141.541 236.533 140.829C235.769 139.879 236.126 138.57 236.188 137.411C236.215 136.525 236.215 136.525 235.712 135.965C235.308 135.616 235.308 135.616 234.962 135.644ZM216.797 135.937C216.701 136.034 216.604 136.131 216.504 136.23C216.517 137.147 216.542 138.059 216.593 138.974C216.62 139.992 216.613 140.498 215.939 141.285C215.739 141.454 215.539 141.623 215.333 141.797C214.928 142.832 214.928 142.832 214.747 143.848C214.843 144.041 214.94 144.234 215.04 144.433C215.233 144.433 215.426 144.433 215.626 144.433C215.871 144.007 216.115 143.58 216.358 143.152C216.494 142.914 216.63 142.676 216.77 142.431C217.134 141.828 217.134 141.828 217.09 141.211C217.284 141.211 217.477 141.211 217.676 141.211C217.588 141.486 217.5 141.762 217.41 142.046C217.243 142.593 217.243 142.593 217.072 143.152C216.904 143.692 216.904 143.692 216.732 144.243C216.425 145.684 216.56 146.615 217.237 147.912C217.382 148.118 217.527 148.323 217.676 148.535C217.773 148.535 217.87 148.535 217.969 148.535C218.012 148.312 218.055 148.089 218.1 147.859C218.821 144.537 220.085 142.479 222.95 140.625C222.094 140.275 222.094 140.275 221.247 140.405C220.231 140.325 219.699 140.073 218.943 139.388C218.188 138.375 217.946 137.154 217.676 135.937C217.386 135.937 217.096 135.937 216.797 135.937ZM124.95 141.059C123.537 142.495 121.29 145.245 121.29 147.363C121.623 147.374 121.956 147.385 122.299 147.396C124.884 147.5 127.293 147.725 129.81 148.353C130.614 148.524 131.311 148.57 132.129 148.535C132.992 146.522 133.495 145.124 133.008 142.969C132.957 142.728 132.906 142.487 132.854 142.238C132.718 141.601 132.574 140.966 132.422 140.332C130.54 140.813 129.59 141.875 128.257 143.227C127.307 143.95 126.849 143.981 125.684 143.848C126.644 141.023 129.269 139.411 131.717 137.937C132.463 137.47 132.463 137.47 132.67 136.749C132.685 136.578 132.7 136.407 132.715 136.23C129.891 136.23 126.869 139.227 124.95 141.059ZM110.45 138.867C110.287 139.012 110.123 139.157 109.955 139.307C108.885 140.001 107.851 139.683 106.641 139.453C106.34 139.353 106.34 139.353 106.034 139.252C105.465 139.103 105.465 139.103 104.978 139.403C103.076 141.055 101.194 143.389 101.005 145.974C100.933 149.182 100.933 149.182 102.247 152.051C102.848 152.552 102.848 152.552 103.419 152.93C103.38 152.759 103.341 152.588 103.301 152.412C102.072 146.709 102.072 146.709 103.419 144.433C103.576 144.168 103.733 143.902 103.895 143.628C105.152 142.436 106.467 142.104 108.184 142.071C111.481 142.252 111.481 142.252 112.794 143.262C114.198 144.999 114.185 146.657 113.965 148.828C113.723 150.209 113.425 151.569 113.087 152.93C114.726 151.42 115.495 149.814 115.816 147.605C115.896 144.949 115.179 142.852 113.409 140.886C112.163 139.469 112.163 139.469 110.45 138.867ZM145.038 142.108C143.864 144.119 143.785 146.545 144.352 148.779C144.908 150.275 145.52 151.351 146.778 152.344C146.971 152.344 147.165 152.344 147.364 152.344C148.273 152.833 149.014 153.335 149.708 154.101C150.305 153.702 150.305 153.702 150.879 153.223C150.879 153.029 150.879 152.836 150.879 152.637C151.351 152.609 151.351 152.609 151.832 152.582C152.942 152.44 152.942 152.44 153.589 151.721C155.182 149.104 155.567 146.726 154.936 143.745C154.383 142.015 153.374 140.784 151.795 139.892C149.038 138.723 146.662 139.613 145.038 142.108ZM193.067 139.16C192.97 139.45 192.874 139.74 192.774 140.039C192.255 140.055 191.736 140.066 191.218 140.076C190.784 140.086 190.784 140.086 190.342 140.096C189.551 140.039 189.551 140.039 188.672 139.453C186.952 139.619 185.698 141.166 184.635 142.406C183.447 144.025 182.802 145.631 182.813 147.656C183.18 149.634 183.61 151.282 185.157 152.637C185.115 152.477 185.072 152.317 185.029 152.153C184.381 149.523 184.273 147.226 185.45 144.726C186.471 143.064 187.773 142.31 189.643 141.852C191.477 141.758 193.122 142.021 194.532 143.262C194.725 143.262 194.919 143.262 195.118 143.262C195.319 143.649 195.512 144.041 195.704 144.433C195.861 144.705 196.018 144.977 196.18 145.257C197.168 147.559 196.675 150.515 196.29 152.93C197.681 151.874 198.066 150.489 198.34 148.828C198.463 145.962 197.873 143.613 196.006 141.409C195.091 140.458 194.281 139.701 193.067 139.16ZM166.993 136.23C167.016 136.789 167.016 136.789 167.286 137.402C168.015 137.923 168.015 137.923 168.915 138.373C171.333 139.721 173.088 141.044 174.317 143.555C174.124 143.748 173.93 143.941 173.731 144.14C172.489 144.067 171.961 143.658 171.149 142.749C170.068 141.604 168.952 140.799 167.579 140.039C166.513 142.075 166.161 143.954 166.7 146.191C167.04 147.098 167.433 147.965 167.872 148.828C168.216 148.747 168.56 148.666 168.914 148.582C172.096 147.857 175.157 147.447 178.419 147.363C177.412 143.336 174.379 140.057 170.907 137.891C169.066 136.691 169.066 136.691 166.993 136.23ZM87.0123 145.312C85.3338 147.07 84.4465 149.255 83.4967 151.465C84.4433 151.938 85.4795 151.761 86.5179 151.739C88.7982 151.712 90.9224 151.9 93.1646 152.344C94.29 149.606 95.016 147.644 94.0435 144.726C92.9472 145.116 92.1176 145.599 91.2054 146.319C90.9807 146.494 90.756 146.669 90.5245 146.849C89.8818 147.372 89.8818 147.372 89.356 148.242C88.294 148.297 88.294 148.297 87.3053 148.242C88.2587 145.509 90.6653 144.068 93.0353 142.606C93.8293 142.139 93.8293 142.139 94.0435 141.211C91.3606 141.211 88.8613 143.586 87.0123 145.312ZM205.958 141.211C206.049 142.091 206.215 142.353 206.902 142.938C207.176 143.123 207.451 143.309 207.734 143.5C208.796 144.244 209.837 144.988 210.828 145.825C211.106 146.058 211.106 146.058 211.389 146.297C211.874 146.842 211.995 147.236 212.11 147.949C211.378 148.242 211.378 148.242 210.352 148.242C209.688 147.708 209.138 147.118 208.563 146.489C207.951 145.837 207.353 145.4 206.544 145.019C206.35 145.019 206.157 145.019 205.958 145.019C204.855 147.678 205.994 150.03 206.837 152.637C207.072 152.578 207.072 152.578 207.313 152.519C210.126 151.885 213.038 151.724 215.919 151.758C215.429 148.659 213.262 145.64 210.764 143.795C209.245 142.763 207.684 141.85 205.958 141.211ZM70.3131 141.504C68.0366 143.334 66.1931 145.017 65.7915 148.02C65.7132 150.074 65.9634 151.499 67.0904 153.223C67.2838 153.319 67.4771 153.416 67.6763 153.515C67.6067 153.206 67.6067 153.206 67.5356 152.89C67.1479 150.753 67.0609 148.604 68.1799 146.686C68.9187 145.713 69.8014 144.982 70.899 144.433C72.9627 144.222 74.7794 144.305 76.4654 145.605C77.6635 147.111 77.9712 148.215 77.9669 150.11C77.968 150.603 77.968 150.603 77.9692 151.105C77.9346 151.946 77.83 152.699 77.6373 153.515C78.8161 152.455 79.3189 151.571 79.4935 149.985C79.531 146.854 78.7924 145.176 76.7046 142.88C76.0132 142.234 75.2932 141.847 74.4146 141.504C74.3059 141.649 74.1971 141.794 74.085 141.943C73.5357 142.383 73.5357 142.383 72.6934 142.493C71.6812 142.371 71.1605 142.047 70.3131 141.504ZM228.223 141.504C228.114 141.697 228.006 141.89 227.894 142.09C227.344 142.676 227.344 142.676 226.484 142.804C225.523 142.667 225.118 142.446 224.415 141.797C222.12 142.876 220.744 144.466 219.727 146.777C219.084 148.925 219.445 150.58 220.264 152.607C220.594 153.311 220.594 153.311 221.485 153.808C221.438 153.605 221.392 153.401 221.344 153.192C220.949 150.99 220.82 148.65 221.988 146.675C222.735 145.713 223.613 144.981 224.708 144.433C226.651 144.299 228.381 144.444 229.912 145.755C231.141 147.082 231.769 148.356 231.716 150.208C231.61 151.527 231.426 152.807 231.153 154.101C232.448 153.074 232.837 151.851 233.204 150.293C233.433 148.19 232.986 146.212 231.731 144.504C230.653 143.274 229.665 142.296 228.223 141.504ZM106.055 143.555C105.573 143.976 105.573 143.976 105.176 144.433C104.886 144.578 104.886 144.578 104.59 144.726C103.782 147.29 103.697 150.109 104.902 152.545C105.089 152.865 105.276 153.186 105.469 153.515C105.759 153.515 106.049 153.515 106.348 153.515C106.703 153.964 106.703 153.964 107.044 154.541C107.615 155.416 107.615 155.416 108.582 155.786C109.343 155.619 109.343 155.619 109.809 154.87C110.197 154.153 110.197 154.153 110.157 153.515C110.544 153.515 110.93 153.515 111.329 153.515C112.375 151.576 112.665 150.01 112.592 147.821C112.589 147.558 112.586 147.296 112.584 147.025C112.6 145.684 112.6 145.684 112.208 144.433C111.467 144.241 111.467 144.241 110.743 144.14C110.743 143.947 110.743 143.754 110.743 143.555C109.172 143.254 107.619 143.13 106.055 143.555ZM187.208 145.312C186.15 147.005 185.902 148.61 186.036 150.586C186.403 152.027 186.881 153.168 188.087 154.101C188.28 154.101 188.473 154.101 188.672 154.101C189.198 154.548 189.687 155.023 190.181 155.503C190.7 155.921 190.7 155.921 191.329 155.821C192.249 155.407 192.733 154.58 193.36 153.808C193.795 153.663 193.795 153.663 194.239 153.515C195.407 151.654 195.368 149.501 195.118 147.363C194.431 145.684 193.533 144.666 191.895 143.848C189.946 143.57 188.59 143.878 187.208 145.312ZM136.231 144.433C136.524 145.019 136.524 145.019 136.524 145.019L136.231 144.433ZM69.3426 147.858C68.6007 149.314 68.3515 150.613 68.7361 152.22C68.947 152.859 69.1746 153.481 69.4342 154.101C69.7242 154.101 70.0142 154.101 70.3131 154.101C70.8076 154.583 71.2955 155.072 71.7779 155.566C72.4125 155.946 72.4125 155.946 72.9498 156.152C73.0767 156.013 73.2036 155.874 73.3343 155.731C73.8287 155.273 73.8287 155.273 74.7076 154.98C74.8043 154.69 74.901 154.4 75.0006 154.101C75.2906 154.101 75.5806 154.101 75.8795 154.101C76.6638 152.271 77.1663 150.745 76.5661 148.787C75.8878 147.208 75.117 146.553 73.5357 145.898C71.6403 145.589 70.5463 146.459 69.3426 147.858ZM223.462 147.418C222.409 149.111 222.238 150.688 222.513 152.621C222.704 153.42 223.048 154.03 223.536 154.687C223.729 154.494 223.922 154.301 224.122 154.101C224.297 154.355 224.297 154.355 224.475 154.614C224.63 154.832 224.786 155.049 224.946 155.273C225.099 155.491 225.252 155.708 225.409 155.932C225.642 156.186 225.642 156.186 225.879 156.445C226.17 156.445 226.46 156.445 226.758 156.445C227 156.203 227.242 155.962 227.491 155.713C227.733 155.471 227.974 155.229 228.223 154.98C228.513 154.98 228.803 154.98 229.102 154.98C230.352 153.249 230.452 151.492 230.274 149.414C229.76 147.9 228.948 147.091 227.637 146.191C225.874 145.603 224.758 146.158 223.462 147.418ZM135.352 146.777C134.402 148.698 133.838 150.582 133.393 152.673C133.331 152.952 133.269 153.23 133.205 153.517C132.556 156.467 132.422 158.894 132.422 162.012C136.29 162.012 140.157 162.012 144.141 162.012C144.141 160.948 144.141 159.885 144.141 158.789C147.815 158.789 151.489 158.789 155.274 158.789C155.274 159.756 155.274 160.723 155.274 161.719C156.25 162.207 157.344 162.047 158.417 162.04C158.669 162.04 158.922 162.039 159.183 162.039C159.992 162.037 160.8 162.034 161.609 162.03C162.157 162.028 162.705 162.027 163.253 162.026C164.597 162.023 165.941 162.018 167.286 162.012C167.288 161.596 167.289 161.18 167.291 160.764C167.292 160.416 167.292 160.416 167.293 160.062C167.246 155.753 166.412 150.728 164.649 146.777C164.347 147.007 164.045 147.236 163.733 147.473C159.721 150.47 155.648 153.157 151.223 155.51C150.533 155.877 150.533 155.877 149.708 156.445C142.609 152.286 142.609 152.286 139.527 150.11C139.232 149.903 139.232 149.903 138.931 149.691C137.831 148.899 136.888 148.044 135.938 147.07C135.745 146.974 135.551 146.877 135.352 146.777ZM241.7 148.242C241.603 148.339 241.506 148.435 241.407 148.535C241.407 149.212 241.407 149.889 241.407 150.586C243.534 150.586 245.661 150.586 247.852 150.586C247.852 150.296 247.852 150.006 247.852 149.707C245.841 148.969 243.839 148.45 241.7 148.242ZM53.0462 149.121C52.8459 149.177 52.6455 149.233 52.4391 149.29C51.9511 149.427 51.464 149.567 50.9771 149.707C50.9771 149.997 50.9771 150.287 50.9771 150.586C53.1041 150.586 55.231 150.586 57.4224 150.586C57.8131 149.805 57.619 149.365 57.4224 148.535C55.8392 148.469 54.5476 148.685 53.0462 149.121ZM96.0943 150C95.3235 152.179 94.7794 154.332 94.4097 156.61C94.3724 156.831 94.3351 157.052 94.2967 157.279C94.0029 159.203 94.0435 160.885 94.0435 162.89C97.234 162.89 100.424 162.89 103.712 162.89C103.712 162.117 103.712 161.344 103.712 160.547C106.999 160.643 110.286 160.74 113.672 160.84C113.962 161.516 114.253 162.193 114.551 162.89C115.203 162.646 115.203 162.646 115.399 161.936C115.532 161.52 115.532 161.52 115.668 161.096C116.031 160.024 116.341 159.263 117.115 158.441C118.338 156.93 117.873 154.475 117.774 152.637C116.615 153.198 115.493 153.823 114.368 154.449C114.056 154.623 114.056 154.623 113.737 154.799C112.265 155.628 110.915 156.542 109.604 157.611C108.985 157.91 108.985 157.91 108.322 157.745C108.058 157.606 107.793 157.467 107.52 157.324C107.345 157.236 107.17 157.149 106.989 157.058C103.347 155.225 99.9255 153.322 96.9435 150.505C96.4763 149.967 96.4763 149.967 96.0943 150ZM120.411 150C119.926 150.97 120.088 152.048 120.099 153.113C120.101 153.348 120.102 153.582 120.103 153.824C120.107 154.405 120.112 154.986 120.118 155.566C120.282 155.524 120.446 155.482 120.614 155.438C123.601 154.747 126.549 154.694 129.493 155.566C129.879 155.566 130.266 155.566 130.665 155.566C130.858 154.116 131.051 152.666 131.251 151.172C127.713 150.137 124.105 149.203 120.411 150ZM168.751 151.465C168.784 152.033 168.821 152.6 168.86 153.168C168.881 153.484 168.901 153.8 168.922 154.125C168.988 155.035 168.988 155.035 169.629 155.859C169.818 155.796 170.006 155.732 170.201 155.667C173.492 154.653 176.55 154.818 179.883 155.566C179.891 154.803 179.897 154.04 179.902 153.277C179.905 152.953 179.905 152.953 179.909 152.622C179.913 151.67 179.894 150.91 179.59 150C175.676 149.894 172.415 149.981 168.751 151.465ZM202.259 151.282C199.677 153.631 196.512 155.353 193.429 156.957C192.757 157.305 192.757 157.305 192.193 157.829C191.602 158.203 191.602 158.203 190.909 158.178C189.958 157.848 189.192 157.388 188.343 156.848C188.096 156.692 188.096 156.692 187.845 156.534C187.338 156.213 186.833 155.89 186.329 155.566C186.017 155.368 185.706 155.17 185.385 154.965C184.834 154.615 184.284 154.263 183.734 153.91C183.124 153.513 183.124 153.513 182.52 153.223C181.962 155.784 181.962 155.784 182.589 158.194C182.9 158.582 183.215 158.966 183.535 159.346C184.256 160.331 184.555 161.428 184.864 162.598C184.954 162.41 185.045 162.223 185.139 162.03C185.45 161.426 185.45 161.426 185.743 161.133C186.403 161.083 187.065 161.052 187.727 161.03C187.926 161.023 188.125 161.016 188.33 161.009C188.753 160.995 189.175 160.982 189.597 160.969C190.242 160.95 190.888 160.927 191.533 160.904C191.943 160.891 192.353 160.878 192.763 160.865C193.137 160.853 193.511 160.841 193.896 160.829C194.825 160.84 194.825 160.84 195.704 161.133C195.849 162.003 195.849 162.003 195.997 162.89C200.966 163.583 200.966 163.583 205.665 162.89C205.568 158.667 205.252 154.328 203.907 150.293C203.063 150.293 202.858 150.696 202.259 151.282ZM238.77 150.293C238.462 150.619 238.157 150.95 237.855 151.282C235.367 153.792 232.208 155.554 229.08 157.148C228.141 157.628 227.285 158.124 226.465 158.789C225.266 158.196 224.1 157.554 222.931 156.903C222.721 156.787 222.51 156.671 222.292 156.552C222.089 156.439 221.886 156.325 221.676 156.208C221.4 156.055 221.4 156.055 221.118 155.899C220.606 155.566 220.606 155.566 220.136 155.087C219.753 154.619 219.753 154.619 219.141 154.687C218.778 155.778 218.716 156.467 218.848 157.617C219.239 158.257 219.679 158.816 220.156 159.394C220.728 160.114 221.109 160.883 221.485 161.719C221.638 161.623 221.79 161.528 221.948 161.429C222.876 161.041 223.624 161.067 224.63 161.075C225.009 161.077 225.389 161.079 225.78 161.081C226.179 161.086 226.579 161.091 226.978 161.096C227.382 161.099 227.786 161.102 228.19 161.104C229.178 161.111 230.165 161.121 231.153 161.133C231.298 162.003 231.298 162.003 231.446 162.89C234.443 162.89 237.44 162.89 240.528 162.89C240.341 161.845 240.153 160.8 239.96 159.723C239.417 156.577 239.138 153.482 239.063 150.293C238.966 150.293 238.87 150.293 238.77 150.293ZM60.0592 150.879C60.046 151.051 60.0329 151.223 60.0193 151.401C59.7687 154.601 59.4773 157.735 58.766 160.869C58.5556 161.766 58.5556 161.766 58.5943 162.89C61.4947 162.89 64.3951 162.89 67.3834 162.89C67.4801 162.214 67.5767 161.537 67.6763 160.84C72.317 160.985 72.317 160.985 77.0513 161.133C77.3414 162.003 77.3414 162.003 77.6373 162.89C78.4356 162.491 78.4432 162.111 78.7359 161.279C79.1558 160.148 79.6308 159.325 80.3839 158.386C80.9981 157.531 81.1553 157.153 81.1346 156.085C80.9871 155.211 80.8065 154.368 80.567 153.515C80.2769 153.751 79.9869 153.987 79.6881 154.23C78.4576 155.153 77.1598 155.924 75.8245 156.683C75.6227 156.8 75.4208 156.916 75.2129 157.036C75.0178 157.145 74.8227 157.254 74.6218 157.366C74.448 157.464 74.2742 157.562 74.0951 157.663C73.0672 158.117 72.3904 158.32 71.3103 157.924C71.0439 157.778 70.7775 157.631 70.503 157.481C70.2051 157.319 69.9071 157.156 69.6001 156.989C69.2916 156.816 68.983 156.642 68.6651 156.463C68.3634 156.3 68.0616 156.137 67.7507 155.969C65.428 154.687 63.0423 153.305 61.1765 151.395C60.6985 150.811 60.6985 150.811 60.0592 150.879ZM64.4537 151.465C64.7467 152.051 64.7467 152.051 64.7467 152.051L64.4537 151.465ZM49.2376 154.706C48.3306 155.998 48.2329 156.938 48.3404 158.496C48.8242 159.533 49.1361 159.905 50.0982 160.547C50.0635 160.32 50.0287 160.094 49.9929 159.86C49.7757 158.105 49.6308 156.708 50.5834 155.163C51.2884 154.311 51.977 153.809 53.0279 153.515C54.6163 153.372 56.1757 153.356 57.7154 153.808C57.7154 153.615 57.7154 153.422 57.7154 153.223C55.0387 151.566 51.2392 152.438 49.2376 154.706ZM241.407 153.223C241.503 153.416 241.6 153.609 241.7 153.808C241.864 153.762 242.029 153.716 242.199 153.668C244.158 153.225 245.917 153.353 247.669 154.352C248.611 155.016 248.958 155.662 249.317 156.738C249.36 158.067 249.348 159.25 249.024 160.547C249.857 160.13 250.391 159.823 250.892 159.027C251.236 157.476 250.999 156.294 250.306 154.907C249.244 153.677 248.002 152.941 246.387 152.637C245.808 152.602 245.228 152.585 244.648 152.582C244.349 152.578 244.05 152.573 243.743 152.569C242.851 152.638 242.213 152.847 241.407 153.223ZM195.997 152.93C196.29 153.515 196.29 153.515 196.29 153.515L195.997 152.93ZM83.4967 154.101C83.4 154.682 83.3033 155.262 83.2037 155.859C83.5542 155.811 83.9046 155.763 84.2657 155.713C86.9322 155.418 89.6361 155.435 92.2857 155.859C92.2857 155.473 92.2857 155.086 92.2857 154.687C89.4906 153.582 86.4275 153.409 83.4967 154.101ZM207.422 154.98C207.422 155.367 207.422 155.754 207.422 156.152C207.757 156.105 208.092 156.057 208.436 156.008C209.726 155.847 210.994 155.816 212.293 155.823C212.505 155.821 212.718 155.82 212.936 155.819C214.157 155.821 215.301 155.913 216.504 156.152C216.504 155.669 216.504 155.185 216.504 154.687C213.474 153.034 210.492 153.761 207.422 154.98ZM52.149 156.738C51.6571 157.722 51.7404 158.704 52.0574 159.741C52.6039 160.47 53.0235 160.624 53.9068 160.84C55.2801 160.84 55.7951 160.695 56.8182 159.759C57.483 158.692 57.6573 158.258 57.4224 157.031C57.0494 156.144 57.0494 156.144 56.2506 155.566C54.5597 155.204 53.3585 155.453 52.149 156.738ZM241.7 156.738C241.355 157.262 241.355 157.262 241.407 157.91C241.763 159.038 242.049 159.762 242.963 160.528C244.104 160.979 245.003 161.008 246.168 160.62C246.818 160.156 247.013 159.841 247.266 159.082C247.413 157.933 247.366 157.474 246.717 156.5C245.863 155.621 245.645 155.577 244.391 155.475C243.161 155.49 242.547 155.814 241.7 156.738ZM119.568 158.899C117.786 161.1 117.208 162.715 117.481 165.527C117.996 167.276 118.962 168.282 120.411 169.336C120.701 169.191 120.701 169.191 120.997 169.043C120.767 168.771 120.537 168.499 120.301 168.219C119.186 166.639 118.816 164.9 119.036 162.983C119.592 160.715 120.839 159.445 122.773 158.221C125.005 157.401 127.887 157.661 130.079 158.496C129.133 157.34 127.921 157.08 126.476 156.933C123.795 156.902 121.679 157.155 119.568 158.899ZM169.629 158.203C170.663 158.547 170.832 158.421 171.808 158.038C173.85 157.392 175.692 157.689 177.656 158.489C179.181 159.322 179.958 160.361 180.469 162.012C180.946 163.916 180.8 165.413 179.998 167.205C179.362 168.244 178.534 168.942 177.54 169.629C177.733 169.725 177.926 169.822 178.126 169.922C180.033 169.159 181.294 167.933 182.227 166.113C182.846 164.425 182.602 162.727 181.924 161.108C180.886 159.049 179.159 157.862 176.995 157.143C174.378 156.675 171.929 156.841 169.629 158.203ZM81.7411 160.139C80.5308 161.58 80.1912 162.777 80.274 164.648C80.539 166.518 81.3223 167.912 82.8192 169.061C83.0427 169.152 83.2663 169.242 83.4967 169.336C83.7867 169.191 83.7867 169.191 84.0826 169.043C83.853 168.789 83.6234 168.535 83.3868 168.274C82.2683 166.918 81.8839 165.565 81.9414 163.792C82.2222 161.902 83.2715 160.631 84.704 159.441C86.5075 158.264 88.5312 158.214 90.6069 158.629C91.0743 158.762 91.5348 158.919 91.9928 159.082C91.7989 158.172 91.7989 158.172 91.1138 157.873C87.5225 156.826 84.4321 157.457 81.7411 160.139ZM207.715 158.496C207.715 158.689 207.715 158.883 207.715 159.082C208.042 158.985 208.368 158.889 208.704 158.789C210.939 158.245 212.938 158.238 215.026 159.274C216.293 160.106 217.198 161.161 217.676 162.598C217.882 164.687 217.776 166.437 216.504 168.164C215.699 168.896 215.699 168.896 215.04 169.336C215.136 169.529 215.233 169.723 215.333 169.922C217.297 169.068 218.581 168.151 219.434 166.113C219.698 163.962 219.594 162.021 218.262 160.254C216.797 158.681 214.911 157.716 212.774 157.558C210.861 157.528 209.456 157.692 207.715 158.496ZM122.044 161.64C121.3 162.92 121.136 164.039 121.385 165.494C121.795 166.777 122.553 167.569 123.707 168.274C125.314 168.639 126.629 168.722 128.119 167.963C129.348 166.906 130.302 165.946 130.463 164.3C130.339 162.788 129.912 161.746 128.748 160.744C126.581 159.335 123.725 159.599 122.044 161.64ZM170.508 161.133C169.654 162.246 169.23 163.293 169.355 164.703C169.673 165.996 169.887 166.857 171.015 167.634C172.329 168.364 173.381 168.654 174.903 168.457C176.566 167.858 177.627 166.817 178.419 165.234C178.568 163.445 178.441 162.56 177.247 161.133C176.003 160.04 174.858 159.853 173.247 159.882C172.127 160.01 171.338 160.369 170.508 161.133ZM84.6685 162.359C84.1459 163.829 84.1261 165.216 84.7235 166.662C85.4962 167.568 86.1256 168.072 87.3281 168.258C89.0293 168.345 90.0401 168.003 91.4068 166.992C92.269 165.991 92.445 165.09 92.3876 163.767C92.2127 162.765 91.7787 162.178 91.1138 161.426C88.8384 159.942 86.4775 160.381 84.6685 162.359ZM208.21 162.103C207.634 163.02 207.444 163.565 207.422 164.648C207.895 166.17 208.441 166.988 209.766 167.871C210.785 168.38 211.875 168.297 212.989 168.164C214.086 167.636 214.616 167.178 215.314 166.186C215.7 165.007 215.712 164.059 215.333 162.89C214.756 161.848 214.083 161.231 212.989 160.73C210.995 160.314 209.692 160.621 208.21 162.103ZM146.192 161.426C146.163 161.858 146.154 162.292 146.153 162.726C146.153 162.988 146.152 163.25 146.152 163.52C146.153 163.796 146.154 164.071 146.155 164.355C146.154 164.631 146.153 164.907 146.152 165.191C146.152 165.453 146.153 165.715 146.153 165.985C146.153 166.227 146.154 166.469 146.154 166.719C146.13 167.287 146.13 167.287 146.485 167.578C147.064 167.608 147.644 167.616 148.224 167.615C148.541 167.615 148.858 167.616 149.185 167.617C150.535 167.57 151.879 167.419 153.223 167.285C153.223 165.255 153.223 163.224 153.223 161.133C152.106 161.125 150.989 161.119 149.872 161.114C149.553 161.112 149.235 161.109 148.906 161.107C148.451 161.106 148.451 161.106 147.988 161.104C147.707 161.103 147.426 161.101 147.137 161.099C146.493 161.059 146.493 161.059 146.192 161.426ZM105.762 162.598C105.762 164.531 105.762 166.465 105.762 168.457C107.194 168.484 107.194 168.484 108.655 168.512C108.956 168.52 109.256 168.528 109.566 168.536C109.803 168.538 110.039 168.54 110.283 168.543C110.646 168.55 110.646 168.55 111.017 168.557C111.217 168.524 111.416 168.491 111.622 168.457C112.358 167.352 112.284 166.474 112.263 165.198C112.262 164.872 112.262 164.872 112.262 164.54C112.349 163.481 112.349 163.481 111.915 162.598C111.457 162.572 110.998 162.566 110.54 162.569C110.264 162.57 109.987 162.571 109.702 162.572C109.265 162.575 109.265 162.575 108.82 162.579C108.528 162.581 108.236 162.582 107.935 162.583C107.211 162.587 106.486 162.592 105.762 162.598ZM69.7271 162.89C69.7271 164.727 69.7271 166.564 69.7271 168.457C71.0957 168.466 71.0957 168.466 72.492 168.475C72.78 168.478 73.0679 168.481 73.3646 168.483C73.5899 168.484 73.8151 168.485 74.0473 168.486C74.2789 168.487 74.5106 168.489 74.7493 168.49C75.2982 168.517 75.2982 168.517 75.5865 168.164C75.6158 167.331 75.6272 166.507 75.6231 165.674C75.6243 165.44 75.6254 165.206 75.6266 164.965C75.7356 163.837 75.7356 163.837 75.2935 162.89C74.8788 162.865 74.4628 162.859 74.0473 162.862C73.822 162.863 73.5967 162.863 73.3646 162.864C73.0766 162.867 72.7887 162.869 72.492 162.872C71.5796 162.878 70.6672 162.884 69.7271 162.89ZM187.501 162.89C187.501 164.824 187.501 166.758 187.501 168.75C188.52 168.758 189.539 168.764 190.558 168.768C190.995 168.772 190.995 168.772 191.44 168.776C191.717 168.777 191.993 168.778 192.278 168.778C192.535 168.78 192.791 168.782 193.055 168.783C193.651 168.817 193.651 168.817 193.946 168.457C193.971 168.042 193.977 167.626 193.974 167.211C193.974 166.985 193.973 166.76 193.972 166.528C193.97 166.24 193.967 165.952 193.964 165.655C193.958 164.743 193.952 163.831 193.946 162.89C191.819 162.89 189.692 162.89 187.501 162.89ZM242.872 162.89C242.872 163.954 242.872 165.017 242.872 166.113C243.258 166.21 243.645 166.307 244.044 166.406C244.46 165.286 244.7 164.381 244.629 163.183C243.759 163.038 243.759 163.038 242.872 162.89ZM54.1998 163.183C54.2411 163.611 54.2842 164.038 54.328 164.465C54.3517 164.703 54.3755 164.941 54.4001 165.186C54.4608 165.833 54.4608 165.833 54.7857 166.406C55.1724 166.309 55.5592 166.213 55.9576 166.113C55.9576 165.05 55.9576 163.986 55.9576 162.89C55.3645 162.89 54.7787 163.065 54.1998 163.183ZM223.536 163.183C223.536 164.924 223.536 166.664 223.536 168.457C225.469 168.457 227.403 168.457 229.395 168.457C229.492 166.717 229.588 164.976 229.688 163.183C227.658 163.183 225.628 163.183 223.536 163.183ZM133.301 164.355C133.301 164.549 133.301 164.742 133.301 164.941C136.878 164.941 140.456 164.941 144.141 164.941C144.141 164.748 144.141 164.555 144.141 164.355C140.564 164.355 136.987 164.355 133.301 164.355ZM155.567 164.941C159.047 164.941 162.528 164.941 166.114 164.941C165.969 164.651 165.969 164.651 165.821 164.355C164.549 164.341 163.277 164.33 162.005 164.323C161.572 164.32 161.14 164.316 160.708 164.311C160.085 164.304 159.463 164.301 158.84 164.298C158.466 164.295 158.091 164.292 157.706 164.289C156.665 164.298 156.665 164.298 155.567 164.941ZM59.4732 165.234C59.4732 165.331 59.4732 165.428 59.4732 165.527C61.9869 165.527 64.5006 165.527 67.0904 165.527C67.0904 165.431 67.0904 165.334 67.0904 165.234C64.5767 165.234 62.0631 165.234 59.4732 165.234ZM94.9224 165.234C95.0191 165.428 95.1158 165.621 95.2154 165.82C97.8258 165.82 100.436 165.82 103.126 165.82C103.222 165.627 103.319 165.433 103.419 165.234C100.615 165.234 97.8111 165.234 94.9224 165.234ZM114.258 165.234C114.258 165.428 114.258 165.621 114.258 165.82C114.548 165.724 114.838 165.627 115.137 165.527C114.847 165.431 114.557 165.334 114.258 165.234ZM184.864 165.527C184.767 165.721 184.67 165.914 184.571 166.113C184.764 166.113 184.958 166.113 185.157 166.113C185.06 165.92 184.963 165.726 184.864 165.527ZM196.583 165.527C196.583 165.624 196.583 165.721 196.583 165.82C199.193 165.82 201.803 165.82 204.493 165.82C204.493 165.724 204.493 165.627 204.493 165.527C201.882 165.527 199.272 165.527 196.583 165.527ZM131.837 167.578C133.641 172.09 137.059 175.82 141.504 177.832C146.833 179.808 152.718 180.053 157.965 177.652C162.215 175.572 165.598 172.54 167.579 168.164C167.579 167.971 167.579 167.777 167.579 167.578C163.615 167.578 159.651 167.578 155.567 167.578C155.374 168.158 155.18 168.738 154.981 169.336C153.573 169.385 152.165 169.432 150.757 169.477C150.278 169.493 149.799 169.509 149.32 169.526C148.632 169.55 147.944 169.572 147.256 169.593C147.041 169.601 146.827 169.609 146.605 169.617C145.087 169.662 145.087 169.662 144.434 169.336C144.289 168.466 144.289 168.466 144.141 167.578C140.081 167.578 136.02 167.578 131.837 167.578ZM59.1803 168.164C59.834 170.779 62.023 172.612 64.1767 174.094C68.295 176.552 73.1494 177.097 77.8204 176.019C80.3845 175.245 82.4236 174.09 84.3756 172.265C83.9399 171.394 83.2747 171.272 82.398 170.874C80.438 169.932 80.438 169.932 79.7064 168.933C79.1781 168.077 79.1781 168.077 78.2782 168.054C78.0667 168.09 77.8552 168.127 77.6373 168.164C77.5406 168.841 77.4439 169.517 77.3443 170.215C74.2506 170.215 71.1568 170.215 67.9693 170.215C67.776 169.538 67.5826 168.861 67.3834 168.164C64.6763 168.164 61.9693 168.164 59.1803 168.164ZM94.0435 168.164C93.9469 168.357 93.8502 168.551 93.7506 168.75C96.6369 173.242 99.9938 176.131 105.176 177.539C106.22 177.779 106.22 177.779 107.227 177.832C107.428 177.847 107.63 177.862 107.837 177.878C112.501 178.063 116.961 176.693 120.521 173.639C121.137 173.09 121.137 173.09 121.583 172.558C121.583 172.365 121.583 172.172 121.583 171.973C121.353 171.869 121.123 171.766 120.886 171.66C119.09 170.816 117.786 170.035 116.466 168.559C115.988 168.065 115.988 168.065 115.009 168.036C114.761 168.078 114.514 168.12 114.258 168.164C114.065 168.841 113.872 169.517 113.672 170.215C110.482 170.215 107.292 170.215 104.004 170.215C103.811 169.538 103.618 168.861 103.419 168.164C100.325 168.164 97.231 168.164 94.0435 168.164ZM220.899 167.871C220.76 168.125 220.621 168.379 220.478 168.64C219.354 170.383 217.21 171.26 215.333 171.973C216.082 173.893 218.164 174.689 219.899 175.588C223.55 177.092 228.702 176.971 232.388 175.582C235.652 174.034 238.11 171.879 239.942 168.75C239.942 168.557 239.942 168.363 239.942 168.164C237.235 168.164 234.528 168.164 231.739 168.164C231.449 168.841 231.159 169.517 230.86 170.215C227.766 170.215 224.672 170.215 221.485 170.215C221.388 169.441 221.292 168.668 221.192 167.871C221.095 167.871 220.999 167.871 220.899 167.871ZM182.905 169.098C181.687 170.661 179.969 171.358 178.126 171.973C178.69 173.917 180.316 174.783 181.967 175.771C186.296 178.144 191.275 178.293 195.958 177.017C200.43 175.547 203.373 172.775 205.665 168.75C205.665 168.653 205.665 168.557 205.665 168.457C202.474 168.457 199.284 168.457 195.997 168.457C195.9 169.134 195.803 169.81 195.704 170.508C192.513 170.508 189.323 170.508 186.036 170.508C185.746 169.734 185.456 168.961 185.157 168.164C183.976 167.921 183.592 168.193 182.905 169.098ZM208.301 169.922C208.301 172.339 208.301 174.756 208.301 177.246C209.35 177.292 209.35 177.292 210.938 176.66C210.841 174.63 210.745 172.599 210.645 170.508C209.872 170.314 209.098 170.121 208.301 169.922ZM88.4771 170.801C88.4771 172.734 88.4771 174.668 88.4771 176.66C89.3472 176.95 90.2174 177.24 91.1138 177.539C91.1138 175.025 91.1138 172.512 91.1138 169.922C90.1874 169.922 89.3446 170.475 88.4771 170.801ZM170.508 170.215C170.508 173.308 170.508 176.402 170.508 179.59C170.702 179.686 170.895 179.783 171.094 179.883C171.868 179.593 172.641 179.303 173.438 179.004C173.438 176.393 173.438 173.783 173.438 171.094C171.42 170.18 171.42 170.18 170.508 170.215ZM125.977 171.094C125.977 173.607 125.977 176.121 125.977 178.711C126.944 179.001 127.911 179.291 128.907 179.59C128.907 176.496 128.907 173.402 128.907 170.215C127.995 170.18 127.995 170.18 125.977 171.094ZM59.1803 172.851C59.1803 174.205 59.1803 175.558 59.1803 176.953C60.7271 176.953 62.274 176.953 63.8678 176.953C63.3844 176.566 62.901 176.18 62.4029 175.781C61.9977 175.436 61.5947 175.088 61.1944 174.737C60.9032 174.483 60.9032 174.483 60.6062 174.224C60.1163 173.782 59.6467 173.318 59.1803 172.851ZM239.649 172.851C238.928 173.575 238.225 174.314 237.522 175.054C236.709 175.79 235.96 176.22 234.962 176.66C234.962 176.757 234.962 176.853 234.962 176.953C235.737 176.961 236.512 176.967 237.287 176.971C237.508 176.974 237.729 176.976 237.957 176.979C238.521 176.981 239.085 176.968 239.649 176.953C240.041 176.627 240.041 176.627 239.971 175.798C239.967 175.448 239.964 175.098 239.96 174.737C239.958 174.387 239.955 174.036 239.952 173.674C239.949 173.403 239.945 173.131 239.942 172.851C239.845 172.851 239.749 172.851 239.649 172.851ZM131.837 173.144C131.837 175.658 131.837 178.172 131.837 180.762C135.124 180.762 138.411 180.762 141.797 180.762C140.982 180.218 140.217 179.86 139.326 179.462C136.382 178.006 134.195 175.657 132.129 173.144C132.033 173.144 131.936 173.144 131.837 173.144ZM167.286 173.144C166.993 173.531 166.708 173.923 166.425 174.316C164.072 177.348 161.02 178.882 157.618 180.469C157.618 180.565 157.618 180.662 157.618 180.762C160.905 180.762 164.192 180.762 167.579 180.762C167.579 178.248 167.579 175.734 167.579 173.144C167.482 173.144 167.385 173.144 167.286 173.144ZM94.0435 173.437C94.0435 175.371 94.0435 177.305 94.0435 179.297C96.5572 179.297 99.0709 179.297 101.661 179.297C101.166 178.967 100.665 178.645 100.148 178.351C97.7928 177.013 95.9515 175.345 94.0435 173.437ZM205.372 173.437C205.115 173.737 204.866 174.044 204.621 174.353C202.725 176.58 200.374 177.772 197.754 179.004C197.754 179.1 197.754 179.197 197.754 179.297C199.018 179.305 200.281 179.31 201.545 179.315C202.086 179.319 202.086 179.319 202.638 179.322C202.981 179.323 203.324 179.324 203.677 179.325C203.994 179.327 204.312 179.328 204.639 179.33C205.354 179.38 205.354 179.38 205.665 179.004C205.69 178.589 205.696 178.173 205.693 177.758C205.692 177.382 205.692 177.382 205.69 176.999C205.688 176.736 205.685 176.473 205.683 176.202C205.682 175.938 205.68 175.674 205.679 175.402C205.675 174.747 205.671 174.092 205.665 173.437C205.568 173.437 205.471 173.437 205.372 173.437ZM85.5474 174.023C85.336 174.241 85.1245 174.458 84.9066 174.682C84.2966 175.279 83.8114 175.697 83.1121 176.147C82.7224 176.401 82.7224 176.401 82.3248 176.66C82.3248 176.757 82.3248 176.853 82.3248 176.953C83.4849 176.953 84.6451 176.953 85.8404 176.953C85.8404 175.986 85.8404 175.019 85.8404 174.023C85.7437 174.023 85.647 174.023 85.5474 174.023ZM213.575 174.023C213.575 174.99 213.575 175.957 213.575 176.953C214.86 177.159 216.082 177.278 217.383 177.246C216.719 176.567 216.028 175.932 215.314 175.305C215.111 175.126 214.909 174.947 214.7 174.763C214.181 174.299 214.181 174.299 213.575 174.023ZM123.047 174.316C122.756 174.617 122.47 174.924 122.187 175.232C120.29 177.152 117.902 178.282 115.43 179.297C115.43 179.393 115.43 179.49 115.43 179.59C118.088 179.617 120.698 179.632 123.34 179.297C123.34 177.653 123.34 176.01 123.34 174.316C123.244 174.316 123.147 174.316 123.047 174.316ZM176.075 174.316C176.171 176.057 176.268 177.797 176.368 179.59C178.881 179.59 181.395 179.59 183.985 179.59C183.1 179 182.2 178.524 181.257 178.033C179.338 177.005 177.963 176.074 176.661 174.316C176.467 174.316 176.274 174.316 176.075 174.316ZM55.9576 179.59C55.9576 180.17 55.9576 180.75 55.9576 181.348C59.5347 181.348 63.1119 181.348 66.7974 181.348C66.7974 180.671 66.7974 179.994 66.7974 179.297C65.3008 179.29 63.8041 179.284 62.3074 179.281C61.7979 179.279 61.2883 179.277 60.7788 179.275C60.0479 179.271 59.3171 179.269 58.5863 179.268C58.3571 179.267 58.1279 179.265 57.8918 179.264C56.8379 179.164 56.8379 179.164 55.9576 179.59ZM232.325 179.297C232.325 179.974 232.325 180.65 232.325 181.348C235.805 181.348 239.286 181.348 242.872 181.348C242.872 180.671 242.872 179.994 242.872 179.297C239.391 179.297 235.911 179.297 232.325 179.297ZM79.1021 179.59C79.1021 180.17 79.1021 180.75 79.1021 181.348C82.1959 181.348 85.2896 181.348 88.4771 181.348C88.5738 180.767 88.6705 180.187 88.7701 179.59C85.5797 179.59 82.3892 179.59 79.1021 179.59ZM210.352 179.59C210.545 180.266 210.739 180.943 210.938 181.64C212.184 181.648 213.431 181.653 214.677 181.657C215.101 181.658 215.526 181.66 215.95 181.663C216.559 181.666 217.167 181.668 217.776 181.669C218.143 181.671 218.509 181.672 218.887 181.674C219.697 181.737 219.697 181.737 220.02 181.348C220.02 180.767 220.02 180.187 220.02 179.59C216.83 179.59 213.639 179.59 210.352 179.59ZM91.1138 181.933C90.4624 183.018 90.4624 183.018 90.5279 183.984C94.3951 183.984 98.2623 183.984 102.247 183.984C102.247 183.307 102.247 182.631 102.247 181.933C98.5728 181.933 94.899 181.933 91.1138 181.933ZM115.43 181.933C115.43 182.61 115.43 183.287 115.43 183.984C118.911 183.984 122.391 183.984 125.977 183.984C126.074 183.307 126.17 182.631 126.27 181.933C122.693 181.933 119.116 181.933 115.43 181.933ZM173.145 181.933C173.499 183.799 173.499 183.799 174.024 184.277C174.784 184.282 175.536 184.269 176.296 184.242C176.523 184.235 176.75 184.228 176.984 184.221C177.713 184.198 178.441 184.174 179.169 184.149C179.662 184.133 180.155 184.118 180.647 184.103C181.858 184.065 183.068 184.025 184.278 183.984C184.278 183.307 184.278 182.631 184.278 181.933C180.604 181.933 176.93 181.933 173.145 181.933ZM197.169 181.933C197.169 182.61 197.169 183.287 197.169 183.984C201.036 183.984 204.903 183.984 208.887 183.984C208.684 182.635 208.684 182.635 208.301 181.933C204.628 181.933 200.954 181.933 197.169 181.933ZM211.524 181.933C211.817 182.812 211.817 182.812 211.817 182.812L211.524 181.933ZM157.325 183.398C157.325 184.365 157.325 185.332 157.325 186.328C162.062 186.328 166.799 186.328 171.68 186.328C171.386 184.858 171.301 184.585 170.215 183.691C169.415 183.425 168.956 183.363 168.134 183.365C167.894 183.365 167.653 183.365 167.406 183.365C167.018 183.367 167.018 183.367 166.623 183.37C166.225 183.37 166.225 183.37 165.819 183.371C164.971 183.373 164.123 183.376 163.276 183.38C162.701 183.381 162.126 183.383 161.552 183.384C160.143 183.387 158.734 183.392 157.325 183.398ZM140.021 183.373C139.675 183.377 139.675 183.377 139.322 183.38C138.952 183.386 138.952 183.386 138.575 183.393C138.319 183.397 138.063 183.401 137.8 183.405C137.26 183.415 136.72 183.425 136.181 183.437C135.355 183.453 134.53 183.462 133.704 183.47C133.179 183.48 132.654 183.491 132.129 183.502C131.76 183.504 131.76 183.504 131.382 183.506C130.302 183.538 129.674 183.571 128.76 184.179C128.183 184.979 128.183 184.979 128.028 186.621C132.765 186.524 137.503 186.428 142.383 186.328C142.383 185.458 142.383 184.588 142.383 183.691C141.479 183.465 140.916 183.363 140.021 183.373Z" fill="black"/>
<path d="M147.363 162.012C148.178 162.151 148.831 162.306 149.579 162.671C149.815 162.743 150.05 162.816 150.293 162.891C150.941 162.509 150.941 162.509 151.465 162.012C151.658 162.012 151.852 162.012 152.051 162.012C151.898 162.821 151.726 163.572 151.465 164.355C151.743 164.948 152.036 165.535 152.344 166.113C152.344 166.307 152.344 166.5 152.344 166.699C151.647 166.544 151.098 166.368 150.458 166.04C149.684 165.719 149.684 165.719 148.938 166.223C148.708 166.38 148.479 166.537 148.242 166.699C147.952 166.699 147.662 166.699 147.363 166.699C147.656 165.234 147.656 165.234 147.858 164.52C147.975 163.557 147.716 162.904 147.363 162.012Z" fill="black"/>
<path d="M106.641 163.477C107.703 163.418 108.359 163.518 109.277 164.063C109.567 163.869 109.857 163.676 110.156 163.477C110.446 163.477 110.736 163.477 111.035 163.477C110.993 163.737 110.993 163.737 110.95 164.002C110.759 165.365 110.641 166.325 111.328 167.578C111.038 167.723 111.038 167.723 110.742 167.871C110.567 167.781 110.392 167.69 110.211 167.597C109.021 167.019 107.891 167.293 106.641 167.578C106.714 167.318 106.714 167.318 106.789 167.053C107.268 165.225 107.268 165.225 106.641 163.477Z" fill="black"/>
<path d="M70.6055 163.77C70.7679 163.819 70.9303 163.868 71.0976 163.918C71.3098 163.978 71.522 164.038 71.7407 164.099C71.9515 164.16 72.1622 164.221 72.3793 164.285C72.5674 164.308 72.7554 164.331 72.9492 164.355C73.1426 164.162 73.3359 163.969 73.5352 163.77C73.9219 163.77 74.3086 163.77 74.707 163.77C74.6651 164.03 74.6651 164.03 74.6223 164.295C74.4312 165.657 74.3129 166.618 75 167.871C73.5987 167.599 73.5987 167.599 72.9675 167.395C72.1355 167.244 71.4269 167.41 70.6055 167.578C70.6599 167.222 70.7142 166.865 70.7703 166.498C70.8955 165.519 70.8758 164.731 70.6055 163.77Z" fill="black"/>
<path d="M188.672 163.77C189.347 163.921 189.812 164.042 190.393 164.429C191.077 164.749 191.077 164.749 191.968 164.246C192.234 164.089 192.5 163.931 192.773 163.77C192.713 164.12 192.653 164.47 192.59 164.832C192.441 165.984 192.607 166.791 193.066 167.871C191.665 167.599 191.665 167.599 190.979 167.377C190.333 167.205 190.333 167.205 189.551 167.871C188.91 167.761 188.91 167.761 188.379 167.578C188.478 167.413 188.577 167.249 188.679 167.079C189.014 166.29 188.979 165.855 188.855 165.015C188.823 164.781 188.79 164.546 188.757 164.305C188.729 164.128 188.701 163.952 188.672 163.77Z" fill="black"/>
<path d="M224.707 163.77C225.406 163.938 226.074 164.128 226.758 164.355C227.048 164.162 227.338 163.969 227.637 163.77C227.927 163.77 228.217 163.77 228.516 163.77C228.401 164.066 228.286 164.362 228.168 164.667C227.78 165.978 228.184 166.694 228.809 167.871C227.394 167.596 227.394 167.596 226.776 167.377C225.891 167.243 225.235 167.554 224.414 167.871C224.567 167.062 224.739 166.311 225 165.527C224.919 164.939 224.824 164.352 224.707 163.77Z" fill="black"/>
</svg>
