<svg width="300" height="300" viewBox="0 0 300 300" fill="none" xmlns="http://www.w3.org/2000/svg">
<path d="M186.072 75.4948C187.281 76.1636 188.329 76.9214 188.942 78.2002C189.486 79.3121 189.881 79.8619 191.028 80.3952C191.741 80.636 192.456 80.8684 193.173 81.0933C198.781 82.9485 203.147 87.5249 205.957 92.5786C207.7 96.1174 208.673 99.7694 208.594 103.711C208.767 103.701 208.941 103.691 209.119 103.681C210.573 103.631 211.507 103.654 212.696 104.59C213.393 105.288 213.357 105.436 213.367 106.385C213.372 106.759 213.372 106.759 213.378 107.141C213.379 107.545 213.379 107.545 213.38 107.958C213.382 108.235 213.384 108.512 213.386 108.797C213.389 109.383 213.39 109.969 213.39 110.554C213.391 111.452 213.402 112.35 213.413 113.247C213.415 113.816 213.416 114.384 213.416 114.953C213.421 115.222 213.425 115.491 213.429 115.769C213.416 117.635 213.416 117.635 212.687 118.39C212.496 118.477 212.306 118.563 212.11 118.653C212.785 122.048 213.816 124.872 216.611 127.049C217.191 127.525 217.362 127.833 217.443 128.578C217.459 128.905 217.459 128.905 217.476 129.239C217.488 129.475 217.5 129.711 217.513 129.954C217.524 130.2 217.536 130.447 217.548 130.701C217.567 131.074 217.567 131.074 217.586 131.455C217.617 132.071 217.647 132.686 217.676 133.301C217.869 133.205 218.063 133.108 218.262 133.008C219.057 132.969 219.844 132.946 220.639 132.938C220.875 132.936 221.111 132.934 221.355 132.931C221.856 132.927 222.356 132.924 222.857 132.922C223.621 132.917 224.385 132.904 225.148 132.891C225.635 132.888 226.122 132.886 226.608 132.884C226.836 132.878 227.064 132.873 227.298 132.868C228.397 132.872 229.031 132.963 229.966 133.561C230.529 134.142 230.858 134.603 231.153 135.352C231.352 135.136 231.551 134.919 231.757 134.696C235.561 130.673 241.19 126.426 246.68 125.098C247.266 125.165 247.266 125.165 247.852 125.391C252.847 132.609 252.51 146.398 251.047 154.526C250.095 159.261 248.424 163.651 246.094 167.872C245.94 168.151 245.786 168.43 245.627 168.718C244.223 171.153 242.713 173.48 240.235 174.903C239.44 174.938 239.44 174.938 238.77 174.903C238.776 174.571 238.782 174.239 238.788 173.897C238.81 172.644 238.823 171.391 238.834 170.137C238.84 169.599 238.848 169.061 238.858 168.522C238.982 161.849 237.488 156.665 232.857 151.652C231.726 150.437 231.726 150.437 230.274 149.707C230.002 149.843 230.002 149.843 229.724 149.982C228.98 150.354 228.459 150.316 227.637 150.293C227.642 150.534 227.642 150.534 227.648 150.779C227.687 152.476 227.725 154.173 227.762 155.871C227.776 156.5 227.79 157.13 227.805 157.76C227.895 161.717 227.951 165.671 227.93 169.629C228.161 169.669 228.392 169.708 228.631 169.749C229.526 169.952 229.765 170.187 230.329 170.893C230.543 171.154 230.543 171.154 230.762 171.42C231.862 172.978 232.026 174.483 232.031 176.368C231.937 176.865 231.827 177.36 231.702 177.851C231.361 179.266 231.635 180.165 232.104 181.517C232.863 183.957 232.095 186.381 231.153 188.672C230.527 189.745 229.894 190.741 228.789 191.35C228.124 191.879 228.124 191.879 228.082 192.864C228.077 193.261 228.079 193.658 228.086 194.054C228.083 194.265 228.081 194.476 228.079 194.693C228.071 195.593 228.075 196.492 228.079 197.392C228.08 198.05 228.074 198.707 228.067 199.365C228.071 199.567 228.074 199.77 228.077 199.979C228.068 200.897 227.975 201.489 227.491 202.276C226.444 202.931 225.458 202.908 224.26 202.901C224.018 202.903 223.776 202.904 223.527 202.906C223.016 202.908 222.505 202.907 221.994 202.904C221.213 202.9 220.434 202.91 219.654 202.921C219.157 202.921 218.66 202.921 218.162 202.919C217.93 202.923 217.698 202.927 217.458 202.931C216.293 202.911 215.739 202.81 214.744 202.152C213.956 200.962 213.971 200.096 214.005 198.7C214.004 198.453 214.003 198.206 214.002 197.952C213.998 196.901 214.011 195.851 214.023 194.8C214.029 194.031 214.026 193.262 214.023 192.492C214.032 192.14 214.032 192.14 214.04 191.781C214.032 190.008 213.541 189.149 212.403 187.793C212.375 190.786 212.355 193.778 212.342 196.771C212.336 198.16 212.327 199.55 212.314 200.939C212.301 202.28 212.294 203.621 212.291 204.962C212.289 205.474 212.285 205.985 212.279 206.497C212.27 207.214 212.269 207.93 212.269 208.647C212.265 208.858 212.261 209.069 212.257 209.287C212.268 210.715 212.609 211.373 213.574 212.403C214.944 215.524 215.683 219.437 214.477 222.706C214.044 223.44 213.665 223.881 212.988 224.415C212.169 224.532 211.465 224.578 210.647 224.571C210.412 224.573 210.177 224.576 209.934 224.578C209.158 224.585 208.382 224.583 207.606 224.58C207.066 224.582 206.526 224.584 205.986 224.586C204.855 224.589 203.723 224.588 202.591 224.583C201.142 224.578 199.693 224.585 198.243 224.596C197.128 224.602 196.013 224.602 194.898 224.599C194.363 224.599 193.829 224.601 193.294 224.605C192.547 224.61 191.8 224.606 191.052 224.599C190.832 224.603 190.611 224.606 190.384 224.61C189.254 224.589 188.715 224.447 187.803 223.76C187.176 222.907 187.022 222.557 187.014 221.519C187.008 221.244 187.003 220.968 186.997 220.684C186.998 220.244 186.998 220.244 187 219.795C186.996 219.491 186.991 219.187 186.987 218.875C186.974 217.908 186.972 216.941 186.969 215.973C186.962 215.317 186.955 214.66 186.947 214.003C186.927 212.395 186.921 210.788 186.914 209.18C184.497 209.18 182.08 209.18 179.59 209.18C179.582 210.206 179.575 211.232 179.567 212.29C179.556 213.281 179.543 214.273 179.529 215.265C179.521 215.955 179.515 216.646 179.511 217.336C179.504 218.327 179.491 219.318 179.476 220.31C179.475 220.619 179.475 220.928 179.475 221.247C179.469 221.535 179.463 221.822 179.457 222.118C179.454 222.371 179.452 222.624 179.449 222.885C179.297 223.536 179.297 223.536 178.851 224.056C177.822 224.564 176.848 224.539 175.725 224.533C175.363 224.536 175.363 224.536 174.994 224.539C174.197 224.544 173.401 224.543 172.605 224.542C172.051 224.543 171.497 224.544 170.943 224.546C169.783 224.549 168.622 224.548 167.462 224.545C165.974 224.542 164.487 224.548 162.999 224.556C161.855 224.562 160.712 224.562 159.568 224.56C159.02 224.56 158.471 224.562 157.923 224.565C157.156 224.57 156.39 224.567 155.623 224.562C155.396 224.564 155.17 224.567 154.936 224.57C153.914 224.556 153.336 224.501 152.511 223.873C151.077 221.907 151.403 219.674 151.758 217.383C152.282 215.095 152.976 212.649 154.688 210.938C154.717 210.405 154.725 209.871 154.726 209.337C154.727 208.994 154.727 208.652 154.728 208.299C154.728 207.927 154.727 207.554 154.727 207.169C154.727 206.789 154.727 206.408 154.727 206.016C154.728 205.209 154.727 204.402 154.726 203.595C154.724 202.562 154.725 201.528 154.727 200.495C154.728 199.509 154.727 198.524 154.727 197.538C154.727 196.981 154.727 196.981 154.728 196.413C154.727 196.068 154.727 195.723 154.726 195.368C154.725 195.064 154.725 194.761 154.725 194.448C154.692 193.744 154.597 193.153 154.395 192.481C154.134 192.576 154.134 192.576 153.867 192.673C151.97 193.311 150.242 193.54 148.242 193.36C148.049 193.263 147.856 193.166 147.656 193.067C147.673 193.409 147.69 193.752 147.708 194.105C147.722 194.558 147.735 195.012 147.748 195.466C147.76 195.691 147.773 195.916 147.785 196.148C147.811 197.328 147.738 197.916 147.101 198.941C145.822 199.744 144.733 199.641 143.262 199.512C143.303 200.751 143.347 201.99 143.39 203.229C143.402 203.575 143.413 203.92 143.425 204.276C143.462 205.325 143.508 206.374 143.555 207.422C143.567 207.774 143.58 208.126 143.593 208.488C143.61 208.824 143.627 209.16 143.644 209.506C143.657 209.807 143.67 210.107 143.684 210.416C143.936 211.669 144.671 212.3 145.564 213.165C147.398 215.219 148.295 218.032 148.297 220.734C148.301 221.12 148.306 221.507 148.31 221.905C148.249 222.851 148.192 223.357 147.656 224.122C146.709 224.595 145.67 224.46 144.629 224.462C144.377 224.463 144.124 224.465 143.864 224.466C143.026 224.47 142.188 224.472 141.351 224.474C140.77 224.476 140.189 224.477 139.608 224.479C138.389 224.482 137.17 224.484 135.951 224.485C134.387 224.487 132.824 224.494 131.261 224.502C130.061 224.507 128.86 224.509 127.66 224.509C127.084 224.51 126.507 224.513 125.931 224.516C125.125 224.521 124.319 224.521 123.514 224.519C123.275 224.522 123.036 224.524 122.79 224.527C121.852 224.52 121.116 224.471 120.261 224.067C119.664 223.34 119.683 222.893 119.691 221.957C119.691 221.634 119.692 221.312 119.692 220.979C119.698 220.631 119.704 220.283 119.71 219.925C119.712 219.569 119.713 219.212 119.715 218.845C119.722 217.705 119.736 216.564 119.751 215.424C119.757 214.652 119.762 213.879 119.767 213.107C119.779 211.212 119.802 209.317 119.824 207.422C117.214 207.422 114.604 207.422 111.914 207.422C111.928 208.551 111.941 209.679 111.955 210.842C111.965 211.934 111.972 213.025 111.979 214.117C111.985 214.876 111.993 215.636 112.003 216.395C112.017 217.486 112.024 218.577 112.029 219.668C112.035 220.008 112.041 220.348 112.047 220.698C112.047 221.014 112.047 221.331 112.047 221.657C112.05 221.936 112.053 222.214 112.055 222.501C111.914 223.243 111.914 223.243 111.478 223.918C110.424 224.629 109.435 224.576 108.208 224.562C107.952 224.563 107.697 224.565 107.433 224.566C106.589 224.57 105.745 224.565 104.901 224.56C104.315 224.56 103.728 224.56 103.141 224.561C101.912 224.562 100.683 224.558 99.4531 224.551C97.8768 224.543 96.3006 224.544 94.7243 224.547C93.5129 224.549 92.3015 224.547 91.0901 224.544C90.5088 224.542 89.9276 224.542 89.3464 224.543C88.5342 224.544 87.7222 224.539 86.9101 224.533C86.5493 224.535 86.5493 224.535 86.1813 224.537C85.221 224.524 84.4978 224.478 83.6372 224.033C83.0422 223.351 83.0893 222.759 83.1297 221.881C83.1479 221.666 83.1662 221.45 83.185 221.228C83.2101 220.895 83.2101 220.895 83.2358 220.556C83.5403 217.362 84.685 214.385 87.0119 212.11C87.3986 211.916 87.7854 211.723 88.1838 211.524C88.1838 207.56 88.1838 203.596 88.1838 199.512C87.3137 199.512 86.4436 199.512 85.5471 199.512C84.2168 198.902 84.2168 198.902 83.7893 198.047C83.745 197.602 83.7164 197.155 83.6966 196.708C83.6843 196.446 83.672 196.183 83.6594 195.913C83.6479 195.638 83.6363 195.364 83.6245 195.081C83.6118 194.804 83.5992 194.527 83.5861 194.242C83.555 193.557 83.5251 192.873 83.4963 192.188C83.1096 192.381 82.7229 192.575 82.3244 192.774C82.3217 193.032 82.3189 193.291 82.3161 193.557C82.3032 194.521 82.2851 195.485 82.2636 196.449C82.2554 196.865 82.2491 197.281 82.245 197.697C82.2387 198.298 82.225 198.897 82.21 199.497C82.2038 199.858 82.1977 200.218 82.1914 200.59C82.0046 201.726 81.6576 202.213 80.8596 203.028C79.3975 203.872 77.8425 204.05 76.1938 203.782C74.9437 203.436 74.1094 202.821 73.3437 201.789C72.8632 200.8 72.8666 200.143 72.9025 199.048C72.9053 198.678 72.9082 198.309 72.9111 197.928C72.9244 197.155 72.9457 196.382 72.9752 195.61C73.0304 193.524 73.0304 193.524 72.0214 191.802C71.2551 191.26 71.2551 191.26 70.4563 190.855C69.2219 190.136 68.6246 189.029 67.9689 187.793C67.8696 187.617 67.7703 187.441 67.668 187.259C66.4031 184.572 66.9855 180.987 67.383 178.125C67.4121 177.864 67.4412 177.603 67.4711 177.334C67.8537 174.566 68.9257 172.523 71.1184 170.765C72.2595 169.922 72.2595 169.922 72.9494 169.922C72.8527 163.638 72.7561 157.354 72.6564 150.879C70.2573 150.664 70.2573 150.664 69.2598 151.307C68.9834 151.585 68.9834 151.585 68.7014 151.868C68.511 152.052 68.3207 152.235 68.1246 152.424C67.6539 152.911 67.6539 152.911 67.383 153.516C67.1897 153.516 66.9963 153.516 66.7971 153.516C66.72 153.69 66.6429 153.864 66.5635 154.043C66.1954 154.717 65.8233 155.109 65.2601 155.625C63.9188 156.926 62.9555 158.432 61.9488 159.997C61.2659 161.012 60.8257 161.623 59.7281 162.204C58.8869 162.305 58.8869 162.305 58.285 162.071C53.0556 157.728 50.286 151.95 49.2189 145.313C49.1069 143.906 49.0929 142.512 49.1091 141.102C49.1114 140.732 49.1138 140.363 49.1162 139.983C49.218 133.312 49.218 133.312 50.4717 131.627C50.9768 131.25 50.9768 131.25 51.5953 131.268C51.8293 131.326 52.0632 131.384 52.3043 131.444C52.5652 131.505 52.8262 131.567 53.0951 131.631C53.3628 131.698 53.6306 131.766 53.9064 131.836C54.4037 131.953 54.9011 132.068 55.3988 132.183C55.7823 132.273 55.7823 132.273 56.1735 132.364C60.6767 133.401 65.666 134.494 70.3127 134.18C70.9058 133.801 71.4924 133.41 72.0705 133.008C72.9128 132.935 72.9128 132.935 73.5354 133.008C73.5112 132.652 73.487 132.295 73.4621 131.928C73.4621 130.965 73.5249 130.682 74.048 129.822C75.3828 128.562 76.523 128.488 78.311 128.519C79.4094 128.651 80.0438 129.054 80.8596 129.786C81.6445 130.963 81.4912 131.614 81.4455 133.008C81.7114 132.984 81.9772 132.96 82.2512 132.935C83.2033 133.008 83.2033 133.008 83.8808 133.558C84.626 134.496 84.7134 135.052 84.7609 136.233C84.7731 136.522 84.7854 136.811 84.7981 137.109C84.8096 137.411 84.8211 137.714 84.833 138.025C84.8456 138.33 84.8583 138.635 84.8713 138.949C84.9024 139.703 84.9323 140.457 84.9611 141.211C85.323 140.17 85.674 139.126 86.0231 138.08C86.1259 137.785 86.2286 137.49 86.3344 137.186C86.476 136.757 86.476 136.757 86.6205 136.319C86.754 135.926 86.754 135.926 86.8902 135.524C87.0696 134.407 86.6888 133.722 86.1045 132.786C85.9904 132.633 85.8763 132.48 85.7588 132.323C85.6325 132.15 85.5061 131.978 85.376 131.8C85.2451 131.625 85.1143 131.45 84.9794 131.269C83.3019 129.015 82.2111 127.113 82.3244 124.219C82.9682 120.746 85.0522 117.786 87.8908 115.723C88.1809 115.53 88.4709 115.336 88.7697 115.137C88.844 114.408 88.8796 113.725 88.8796 112.995C88.8915 110.961 88.8915 110.961 89.7333 109.888C90.4415 109.344 90.8276 109.082 91.6994 108.985C91.7104 108.73 91.7213 108.474 91.7326 108.211C92.1019 101.521 94.6653 94.9073 99.6096 90.2348C102.247 87.9383 105.442 85.4968 108.985 84.9614C108.936 84.6895 108.888 84.4176 108.838 84.1374C108.851 82.4974 109.955 81.4006 110.941 80.1793C111.373 79.6308 111.784 79.0685 112.195 78.5035C112.498 78.0985 112.801 77.6937 113.104 77.2893C113.316 76.9939 113.316 76.9939 113.532 76.6925C114.313 75.6794 114.612 75.3325 115.919 75.1126C116.949 75.3034 117.224 75.3841 117.847 76.1907C118.013 76.4033 118.178 76.6159 118.349 76.835C118.546 77.0997 118.743 77.3644 118.946 77.6372C119.22 77.9813 119.495 78.325 119.771 78.6683C122.675 82.3643 122.675 82.3643 122.754 84.9614C122.974 85.0256 123.194 85.0898 123.42 85.156C129.182 86.9412 133.663 90.8622 136.545 96.1449C138.57 100.136 139.675 104.507 139.453 108.985C139.768 109.009 140.082 109.033 140.405 109.058C141.614 109.3 141.988 109.444 142.676 110.45C143.068 112.085 142.999 113.757 142.969 115.43C143.168 115.491 143.368 115.551 143.573 115.613C146.328 116.903 147.686 119.343 148.87 122.055C149.741 124.538 149.524 126.76 148.407 129.126C147.869 130.167 147.288 131.071 146.534 131.961C144.943 133.799 144.943 133.799 144.475 136.091C144.829 137.788 145.471 139.348 146.192 140.918C147.642 141.015 149.092 141.112 150.586 141.211C151.03 139.431 151.252 137.827 151.242 135.997C151.246 135.519 151.251 135.04 151.256 134.561C151.261 133.818 151.264 133.075 151.262 132.332C151.261 131.606 151.269 130.882 151.279 130.156C151.276 129.935 151.273 129.714 151.269 129.486C151.291 128.306 151.41 127.801 152.179 126.884C152.427 126.682 152.674 126.479 152.93 126.27C154.683 124.352 155.708 122.08 155.944 119.479C155.95 118.648 155.95 118.648 155.423 118.239C154.859 117.646 154.865 117.349 154.853 116.541C154.847 116.294 154.842 116.046 154.836 115.791C154.835 115.392 154.835 115.392 154.833 114.984C154.83 114.709 154.827 114.434 154.824 114.151C154.82 113.569 154.818 112.987 154.818 112.406C154.816 111.517 154.8 110.629 154.783 109.74C154.781 109.175 154.779 108.609 154.778 108.044C154.772 107.779 154.765 107.514 154.759 107.24C154.778 105.441 154.778 105.441 155.359 104.68C156.245 103.915 157.001 103.526 158.167 103.473C158.51 103.452 158.51 103.452 158.86 103.431C159.03 103.427 159.2 103.423 159.375 103.418C159.413 102.961 159.413 102.961 159.452 102.494C160.13 95.2435 162.9 89.363 168.452 84.4796C171.038 82.4617 174.485 80.2739 177.832 80.2739C177.905 79.9657 177.977 79.6576 178.052 79.3401C178.604 77.4615 179.757 76.5732 181.376 75.591C182.954 74.7489 184.467 74.7424 186.072 75.4948ZM181.641 79.688C181.194 80.5816 181.31 81.5118 181.315 82.4919C181.315 82.7206 181.315 82.9493 181.314 83.1849C181.315 83.9426 181.317 84.7003 181.319 85.4581C181.32 85.9827 181.32 86.5073 181.32 87.032C181.322 88.4143 181.325 89.7966 181.328 91.1789C181.331 92.5888 181.332 93.9988 181.334 95.4087C181.337 98.1763 181.342 100.944 181.348 103.711C182.172 103.719 182.996 103.725 183.82 103.73C184.055 103.732 184.29 103.735 184.532 103.737C185.131 103.74 185.73 103.727 186.328 103.711C186.726 103.381 186.726 103.381 186.653 102.512C186.652 102.101 186.65 101.69 186.646 101.279C186.645 101.055 186.644 100.831 186.643 100.601C186.64 99.8565 186.634 99.1123 186.627 98.3682C186.625 98.1145 186.623 97.8609 186.621 97.5996C186.61 96.2572 186.597 94.9147 186.583 93.5723C186.568 92.1842 186.56 90.7961 186.554 89.408C186.548 88.342 186.537 87.2762 186.525 86.2103C186.52 85.6986 186.517 85.1869 186.515 84.6751C186.513 83.9589 186.504 83.2431 186.493 82.5269C186.494 82.3151 186.495 82.1034 186.496 81.8852C186.473 80.9007 186.394 80.3608 185.795 79.5643C184.348 78.5168 183.01 78.6007 181.641 79.688ZM170.508 87.5981C170.307 87.7477 170.105 87.8972 169.898 88.0513C166.397 90.8412 163.947 95.5324 163.184 99.9028C163.087 101.16 162.99 102.416 162.891 103.711C167.821 103.711 172.752 103.711 177.832 103.711C177.832 97.2339 177.832 90.7563 177.832 84.0825C175.143 84.0825 172.548 86.0046 170.508 87.5981ZM190.137 84.0825C190.137 90.56 190.137 97.0376 190.137 103.711C195.068 103.711 199.998 103.711 205.078 103.711C205.078 98.3443 203.373 93.5891 199.587 89.7073C199.26 89.3883 199.26 89.3883 198.926 89.063C198.732 88.8594 198.538 88.6559 198.338 88.4461C196.158 86.3032 193.128 84.6808 190.137 84.0825ZM122.461 88.77C122.461 95.4409 122.461 102.112 122.461 108.985C126.908 108.985 131.356 108.985 135.938 108.985C135.938 103.158 134.397 98.0336 130.511 93.5937C128.583 91.675 125.374 88.77 122.461 88.77ZM101.333 93.4735C97.299 97.7587 95.215 103.136 95.215 108.985C99.6623 108.985 104.11 108.985 108.692 108.985C108.692 102.314 108.692 95.643 108.692 88.77C106.141 88.77 103.044 91.813 101.333 93.4735ZM158.496 107.52C158.447 108.399 158.447 108.399 158.496 109.278C158.818 109.666 158.818 109.666 159.621 109.607C160.185 109.606 160.185 109.606 160.76 109.606C160.968 109.606 161.177 109.607 161.391 109.607C162.095 109.607 162.798 109.606 163.502 109.604C164.004 109.604 164.507 109.604 165.009 109.604C166.377 109.604 167.745 109.603 169.113 109.6C170.541 109.599 171.969 109.598 173.396 109.598C176.102 109.597 178.808 109.595 181.514 109.592C184.594 109.589 187.674 109.587 190.754 109.586C197.091 109.582 203.429 109.577 209.766 109.571C209.766 108.797 209.766 108.024 209.766 107.227C203.124 107.22 196.483 107.215 189.841 107.212C186.758 107.21 183.674 107.208 180.591 107.205C177.904 107.202 175.218 107.2 172.531 107.199C171.108 107.199 169.684 107.198 168.261 107.196C166.923 107.194 165.585 107.193 164.246 107.194C163.754 107.194 163.261 107.193 162.769 107.192C162.099 107.191 161.429 107.191 160.76 107.192C160.384 107.192 160.008 107.191 159.621 107.191C158.818 107.132 158.818 107.132 158.496 107.52ZM92.5783 112.5C92.5783 113.081 92.5783 113.661 92.5783 114.258C107.854 114.258 123.129 114.258 138.867 114.258C138.867 113.678 138.867 113.098 138.867 112.5C123.592 112.5 108.317 112.5 92.5783 112.5ZM158.496 113.086C158.496 113.763 158.496 114.44 158.496 115.137C175.415 115.137 192.334 115.137 209.766 115.137C209.766 114.364 209.766 113.59 209.766 112.793C203.124 112.787 196.483 112.781 189.841 112.778C186.758 112.777 183.674 112.775 180.591 112.771C177.904 112.768 175.218 112.767 172.531 112.766C171.108 112.765 169.684 112.765 168.261 112.762C166.923 112.76 165.585 112.76 164.246 112.76C163.754 112.76 163.261 112.76 162.769 112.759C162.099 112.757 161.429 112.757 160.76 112.758C160.384 112.758 160.008 112.758 159.621 112.757C158.818 112.698 158.818 112.698 158.496 113.086ZM92.5783 118.067C92.5295 118.946 92.5295 118.946 92.5783 119.825C92.8913 120.203 92.8913 120.203 93.6257 120.154C93.9646 120.153 94.3035 120.153 94.6527 120.153C94.9348 120.153 94.9348 120.153 95.2226 120.154C95.8574 120.154 96.4921 120.153 97.1268 120.151C97.5801 120.151 98.0333 120.151 98.4865 120.151C99.7206 120.151 100.955 120.149 102.189 120.147C103.477 120.146 104.766 120.145 106.054 120.145C108.495 120.144 110.937 120.142 113.378 120.139C116.157 120.135 118.936 120.134 121.714 120.132C127.432 120.129 133.15 120.124 138.867 120.118C138.964 119.441 139.061 118.764 139.16 118.067C138.191 117.744 137.475 117.737 136.454 117.737C136.071 117.736 135.688 117.735 135.294 117.734C134.868 117.735 134.443 117.735 134.018 117.736C133.571 117.736 133.124 117.735 132.677 117.734C131.462 117.733 130.247 117.734 129.032 117.735C127.763 117.735 126.493 117.735 125.224 117.734C123.093 117.734 120.961 117.734 118.83 117.736C116.362 117.737 113.895 117.737 111.427 117.735C109.312 117.734 107.196 117.734 105.08 117.734C103.815 117.735 102.55 117.735 101.285 117.734C100.097 117.733 98.9084 117.734 97.7201 117.735C97.2827 117.736 96.8454 117.736 96.408 117.735C95.8135 117.734 95.219 117.735 94.6246 117.737C94.2911 117.737 93.9576 117.737 93.6141 117.737C92.89 117.69 92.89 117.69 92.5783 118.067ZM161.133 118.653C161.129 118.921 161.124 119.19 161.12 119.467C161.102 120.477 161.08 121.487 161.056 122.497C161.046 122.932 161.038 123.367 161.032 123.801C160.967 127.878 160.967 127.878 160.38 129.552C159.874 131 159.951 132.271 160.033 133.79C160.3 138.908 159.346 143.505 158.073 148.446C156.664 153.066 156.664 153.066 157.36 157.604C157.784 158.072 157.784 158.072 158.496 158.497C159.16 157.833 159.207 157.574 159.381 156.676C159.458 156.293 159.458 156.293 159.536 155.902C159.588 155.625 159.641 155.348 159.696 155.062C159.78 154.634 159.78 154.634 159.866 154.197C160.046 153.281 160.224 152.364 160.401 151.447C160.578 150.538 160.756 149.628 160.935 148.719C161.046 148.153 161.156 147.587 161.266 147.021C161.503 145.797 161.752 144.581 162.044 143.369C162.328 142.107 162.396 140.898 162.406 139.608C162.41 139.383 162.414 139.158 162.419 138.927C162.437 137.978 162.448 137.03 162.461 136.082C162.471 135.383 162.484 134.685 162.497 133.987C162.499 133.776 162.5 133.566 162.502 133.349C162.522 132.309 162.616 131.383 162.894 130.377C163.235 129.127 163.259 127.954 163.241 126.664C163.24 126.317 163.24 126.317 163.239 125.964C163.235 125.236 163.228 124.508 163.22 123.78C163.217 123.282 163.215 122.785 163.212 122.287C163.206 121.076 163.196 119.864 163.184 118.653C162.507 118.653 161.83 118.653 161.133 118.653ZM166.699 118.653C166.603 121.843 166.506 125.034 166.406 128.321C166.31 128.998 166.213 129.674 166.113 130.372C166.435 131.036 166.435 131.036 166.992 131.543C167.183 131.736 167.374 131.929 167.57 132.128C167.766 132.322 167.962 132.516 168.164 132.715C168.333 132.918 168.502 133.121 168.676 133.33C169.545 134.339 169.932 134.742 171.295 134.858C173.433 134.364 175.841 133.255 177.246 131.543C177.448 130.968 177.448 130.968 177.466 130.353C177.483 130.124 177.499 129.895 177.516 129.659C177.541 128.858 177.544 128.06 177.539 127.259C177.529 124.754 177.529 124.754 177.832 123.633C178.812 122.816 179.475 122.719 180.762 122.461C180.859 124.395 180.955 126.329 181.055 128.321C183.085 128.321 185.115 128.321 187.207 128.321C187.207 126.387 187.207 124.454 187.207 122.461C189.258 122.754 189.258 122.754 190.137 123.34C190.45 124.281 190.45 124.923 190.43 125.91C190.43 126.242 190.431 126.575 190.431 126.918C190.43 127.618 190.42 128.318 190.401 129.017C190.378 130.895 190.378 130.895 191.288 132.45C191.963 132.907 192.615 133.264 193.36 133.594C193.569 133.695 193.779 133.796 193.995 133.899C194.56 134.156 195.102 134.323 195.703 134.473C195.904 134.531 196.105 134.589 196.312 134.648C197.296 134.802 197.963 134.739 198.795 134.153C199.301 133.73 199.775 133.288 200.244 132.825C200.399 132.673 200.554 132.52 200.714 132.363C203.91 128.964 201.954 122.21 201.856 118.653C190.254 118.653 178.653 118.653 166.699 118.653ZM205.078 118.653C205.056 119.924 205.041 121.194 205.03 122.465C205.026 122.896 205.02 123.327 205.012 123.757C204.976 125.824 204.943 127.793 205.522 129.799C206.02 131.529 205.995 133.151 205.96 134.935C205.811 142.741 207.813 150.111 209.766 157.618C210.729 157.196 210.729 157.196 211.322 156.336C211.766 153.998 211.274 151.728 210.625 149.468C210.567 149.265 210.509 149.061 210.449 148.852C210.389 148.643 210.329 148.434 210.267 148.219C208.913 143.488 208.326 139.169 208.537 134.249C208.549 133.94 208.549 133.94 208.561 133.624C208.585 133.071 208.618 132.517 208.652 131.964C208.584 130.781 208.204 129.98 207.715 128.907C207.439 127.68 207.39 126.523 207.404 125.267C207.407 124.745 207.407 124.745 207.411 124.211C207.414 123.851 207.418 123.491 207.422 123.121C207.43 122.402 207.436 121.683 207.44 120.965C207.444 120.647 207.447 120.33 207.451 120.003C207.475 119.244 207.475 119.244 207.129 118.653C206.452 118.653 205.776 118.653 205.078 118.653ZM88.4768 119.532C88.1943 119.939 87.9139 120.349 87.6345 120.759C87.4781 120.986 87.3218 121.214 87.1607 121.449C86.1315 123.126 85.8735 124.62 86.133 126.563C86.4501 127.341 86.8211 127.918 87.3049 128.614C87.4016 128.614 87.4982 128.614 87.5979 128.614C87.6879 128.116 87.6879 128.116 87.7798 127.609C87.8595 127.175 87.9392 126.741 88.019 126.307C88.0585 126.088 88.0979 125.869 88.1386 125.644C88.4436 123.993 88.4436 123.993 88.7697 123.34C88.8515 122.805 88.9166 122.268 88.9711 121.729C89.0025 121.442 89.0338 121.155 89.0661 120.859C89.1495 120.067 89.1495 120.067 88.4768 119.532ZM142.969 119.825C142.598 121.757 142.651 122.932 143.557 124.674C144.103 126.02 144.092 127.469 144.141 128.907C145.132 127.994 145.639 127.002 145.899 125.684C145.857 123.503 144.937 121.766 143.555 120.118C143.362 120.021 143.168 119.924 142.969 119.825ZM136.524 123.34C135.425 125.691 135.682 128.395 136.469 130.811C137.137 132.947 137.137 132.947 138.574 134.473C139.164 133.85 139.476 133.512 139.746 132.715C139.594 131.591 139.237 130.562 138.867 129.493C138.632 128.679 138.539 127.963 138.546 127.117C138.547 126.896 138.548 126.675 138.549 126.447C138.551 126.22 138.554 125.992 138.556 125.757C138.557 125.525 138.559 125.293 138.56 125.053C138.564 124.482 138.569 123.911 138.574 123.34C137.898 123.34 137.221 123.34 136.524 123.34ZM93.4572 123.633C93.4708 123.903 93.4844 124.173 93.4984 124.45C93.5694 126.941 93.3345 128.871 92.5131 131.244C92.2669 132.201 92.2366 132.672 92.5783 133.594C93.152 134.266 93.152 134.266 93.7502 134.766C95.3455 131.563 96.5912 128.418 95.801 124.805C95.5148 124.15 95.5148 124.15 95.215 123.633C94.635 123.633 94.0549 123.633 93.4572 123.633ZM106.97 123.487C106.763 123.49 106.556 123.494 106.343 123.497C103.805 123.541 101.268 123.586 98.7307 123.633C98.7582 123.963 98.7857 124.293 98.8141 124.633C99.1429 128.953 99.1429 128.953 98.4743 131.159C97.8542 133.08 97.8542 133.08 97.5588 135.059C98.0419 135.791 98.0419 135.791 98.7673 136.396C99.1315 136.732 99.1315 136.732 99.5031 137.076C99.7316 137.28 99.9601 137.485 100.196 137.696C100.485 137.98 100.772 138.267 101.056 138.556C101.355 138.855 101.355 138.855 101.66 139.161C101.854 139.354 102.047 139.547 102.246 139.747C104.321 139.711 106.186 138.596 107.813 137.403C108.212 137.116 108.212 137.116 108.618 136.824C109.619 135.478 109.495 134.186 109.497 132.551C109.507 131.946 109.518 131.341 109.529 130.737C109.531 130.47 109.532 130.203 109.534 129.928C109.568 129.242 109.628 128.673 109.863 128.028C110.811 127.594 111.778 127.406 112.793 127.149C112.793 128.889 112.793 130.629 112.793 132.422C113.535 132.793 113.916 132.69 114.734 132.587C116.075 132.42 117.267 132.422 118.653 132.422C118.653 130.779 118.653 129.135 118.653 127.442C120.703 127.735 120.703 127.735 121.412 128.241C121.983 129.062 122 129.485 121.961 130.477C121.954 130.93 121.954 130.93 121.948 131.392C121.942 131.708 121.936 132.024 121.93 132.349C121.926 134.697 121.926 134.697 122.657 136.881C123.347 137.516 123.95 137.897 124.805 138.282C125.082 138.414 125.359 138.545 125.645 138.681C127.048 139.265 128.005 139.601 129.492 139.161C130.138 138.675 130.138 138.675 130.725 138.043C130.945 137.819 131.165 137.595 131.392 137.364C131.617 137.129 131.842 136.894 132.074 136.652C132.305 136.416 132.536 136.18 132.774 135.936C133.343 135.353 133.909 134.768 134.473 134.18C134.319 133.718 134.319 133.718 134.163 133.247C133.235 130.41 132.593 128.027 132.859 125.02C132.887 124.705 132.914 124.39 132.943 124.066C132.964 123.826 132.986 123.587 133.008 123.34C124.327 123.305 115.65 123.34 106.97 123.487ZM157.324 125.684C156.948 126.254 156.604 126.842 156.256 127.429C155.86 128.028 155.86 128.028 155.375 128.458C154.833 129.075 154.891 129.473 154.926 130.28C154.934 130.517 154.942 130.754 154.95 130.998C154.96 131.178 154.97 131.358 154.981 131.543C156.909 129.771 157.454 128.226 157.617 125.684C157.521 125.684 157.424 125.684 157.324 125.684ZM210.645 125.977C210.724 127.758 210.927 128.959 212.11 130.372C212.874 131.052 212.874 131.052 213.574 131.543C213.762 130.254 213.831 129.57 213.073 128.478C212.479 127.815 211.87 127.182 211.231 126.563C211.037 126.37 210.844 126.176 210.645 125.977ZM232.298 138.855C231.259 139.903 231.259 139.903 230.763 141.245C230.787 141.918 230.821 142.59 230.86 143.262C230.847 143.601 230.835 143.939 230.823 144.288C231.364 145.972 232.748 146.85 234.082 147.95C234.582 148.426 235.072 148.914 235.547 149.415C235.695 149.561 235.844 149.708 235.997 149.859C240.514 154.592 241.789 160.732 242.578 166.993C247.635 161.306 248.806 150.837 248.438 143.555C248.153 138.788 247.569 133.855 245.508 129.493C240.748 129.493 235.376 135.788 232.298 138.855ZM180.762 132.129C181.054 132.898 181.33 133.287 181.97 133.814C183.071 134.293 183.973 134.357 185.156 134.18C186.305 133.681 186.697 133.242 187.207 132.129C184.796 131.541 183.163 131.478 180.762 132.129ZM77.051 132.422C77.051 132.616 77.051 132.809 77.051 133.008C77.341 133.008 77.6311 133.008 77.9299 133.008C77.9299 132.815 77.9299 132.622 77.9299 132.422C77.6398 132.422 77.3498 132.422 77.051 132.422ZM155.548 134.482C154.734 135.31 154.768 136.158 154.699 137.263C154.531 139.144 154.233 140.932 153.761 142.761C153.703 142.986 153.645 143.211 153.585 143.443C153.406 144.128 153.223 144.812 153.04 145.496C152.854 146.193 152.669 146.891 152.487 147.589C152.376 148.018 152.262 148.446 152.145 148.874C151.735 150.444 151.436 151.929 152.124 153.443C152.633 154.097 153.118 154.529 153.809 154.981C154.099 154.836 154.099 154.836 154.395 154.688C154.381 154.448 154.368 154.208 154.354 153.961C154.269 151.255 154.696 148.98 155.397 146.387C156.501 142.263 157.072 138.469 156.738 134.18C156.127 134.137 156.127 134.137 155.548 134.482ZM211.524 134.18C211.231 139.187 212.111 143.682 213.281 148.536C213.616 149.956 213.927 151.344 214.05 152.802C214.072 153.05 214.094 153.298 214.117 153.554C214.131 153.735 214.146 153.916 214.16 154.102C214.586 153.758 214.586 153.758 215.021 153.406C215.261 153.212 215.261 153.212 215.505 153.015C216.235 152.347 216.214 151.996 216.26 150.978C216.244 149.779 216.023 148.702 215.719 147.539C215.615 147.131 215.511 146.723 215.408 146.316C215.353 146.107 215.299 145.898 215.243 145.682C214.399 142.431 213.618 139.268 213.499 135.894C213.359 134.965 213.359 134.965 212.387 134.498C212.102 134.393 211.817 134.288 211.524 134.18ZM202.735 135.059C201.211 136.638 200.681 137.983 200.651 140.149C200.643 140.413 200.635 140.678 200.627 140.95C200.59 144.404 201.212 147.781 201.801 151.172C201.911 151.832 202.02 152.491 202.129 153.151C202.334 154.395 202.543 155.638 202.755 156.881C203.061 158.686 203.346 160.494 203.613 162.305C203.81 162.176 204.007 162.047 204.209 161.914C204.678 161.605 205.147 161.297 205.616 160.989C206.272 160.559 206.272 160.559 206.836 159.961C206.72 158.127 206.27 156.388 205.82 154.611C204.207 148.058 202.732 141.848 203.028 135.059C202.931 135.059 202.834 135.059 202.735 135.059ZM176.88 135.993C175.121 137.15 173.09 137.671 171.094 138.282C171.093 138.657 171.092 139.033 171.092 139.42C171.001 145.176 170.162 150.818 169.362 156.508C169.133 158.14 168.906 159.772 168.694 161.407C168.625 161.937 168.625 161.937 168.554 162.477C168.454 163.511 168.389 164.491 168.457 165.528C169.195 166.282 169.195 166.282 170.178 166.828C170.498 167.027 170.817 167.226 171.147 167.431C171.903 167.918 171.903 167.918 172.559 167.872C172.569 167.535 172.569 167.535 172.579 167.192C172.643 165.047 172.708 162.902 172.773 160.757C172.806 159.655 172.839 158.553 172.872 157.451C173.123 149.047 173.123 149.047 173.292 145.096C173.303 144.841 173.313 144.586 173.324 144.324C173.438 141.817 173.438 141.817 173.731 140.625C174.436 140.152 174.436 140.152 175.342 139.783C177.162 138.964 178.475 137.924 179.883 136.524C179.352 135.92 179.352 135.92 178.711 135.352C177.762 135.27 177.762 135.27 176.88 135.993ZM53.0275 135.645C51.5411 142.195 52.8792 148.998 56.2502 154.688C57.1289 156.078 57.6891 156.872 59.1799 157.618C60.05 156.312 60.05 156.312 60.9377 154.981C60.7821 154.719 60.6265 154.457 60.4662 154.187C57.1291 148.503 55.9577 143.112 56.8361 136.524C56.4219 136.375 56.0066 136.229 55.591 136.084C55.3599 136.003 55.1288 135.921 54.8906 135.837C54.1308 135.593 54.1308 135.593 53.0275 135.645ZM165.821 135.645C165.82 136.031 165.819 136.417 165.819 136.815C165.745 141.703 164.829 146.272 163.751 151.026C163.501 152.15 163.252 153.275 163.005 154.4C162.853 155.093 162.698 155.785 162.54 156.477C162.018 158.785 162.018 158.785 162.012 161.133C162.636 161.817 162.636 161.817 163.477 162.287C163.749 162.459 164.021 162.631 164.301 162.808C164.512 162.932 164.724 163.056 164.942 163.184C165.232 163.039 165.232 163.039 165.528 162.891C165.679 162.301 165.679 162.301 165.746 161.578C165.796 161.158 165.796 161.158 165.847 160.73C165.88 160.424 165.914 160.118 165.949 159.802C165.985 159.487 166.022 159.172 166.06 158.848C166.178 157.834 166.292 156.819 166.406 155.805C166.521 154.806 166.636 153.808 166.752 152.81C166.826 152.163 166.901 151.517 166.975 150.871C167.165 149.215 167.375 147.566 167.624 145.918C167.869 144.26 167.997 142.631 168.018 140.955C168.03 140.7 168.042 140.444 168.054 140.181C168.076 138.396 167.662 137.426 166.521 136.053C166.387 135.919 166.252 135.784 166.113 135.645C166.017 135.645 165.92 135.645 165.821 135.645ZM189.551 135.352C189.164 135.642 188.778 135.932 188.379 136.231C189.118 138.061 191.004 139.029 192.719 139.846C194.024 140.418 194.024 140.418 195.41 140.625C195.432 141.112 195.432 141.112 195.453 141.608C195.676 146.553 195.973 151.494 196.267 156.435C196.336 157.596 196.404 158.757 196.473 159.918C196.607 162.179 196.741 164.439 196.875 166.7C197.402 166.435 197.927 166.166 198.45 165.894C198.742 165.744 199.035 165.595 199.336 165.441C200.138 164.916 200.418 164.68 200.684 163.77C200.685 163.045 200.685 163.045 200.544 162.267C200.499 161.968 200.454 161.669 200.408 161.36C200.355 161.037 200.303 160.715 200.249 160.383C200.197 160.048 200.146 159.713 200.093 159.368C199.927 158.296 199.756 157.224 199.585 156.153C199.474 155.44 199.364 154.727 199.253 154.014C198.734 150.65 198.734 150.65 198.175 147.292C198.121 146.985 198.068 146.679 198.013 146.363C197.965 146.09 197.916 145.817 197.866 145.536C197.671 144.127 197.704 142.723 197.736 141.303C197.746 140.734 197.755 140.165 197.762 139.597C197.767 139.351 197.773 139.104 197.778 138.851C197.818 138.28 197.818 138.28 197.461 137.989C196.852 137.866 196.241 137.752 195.63 137.641C193.418 137.187 191.565 136.386 189.551 135.352ZM112.5 136.524C112.716 137.42 112.716 137.42 113.361 137.897C114.641 138.446 115.814 138.496 117.188 138.282C118.092 137.756 118.092 137.756 118.653 137.11C118.556 136.82 118.459 136.53 118.36 136.231C117.462 135.879 116.55 135.89 115.595 135.883C115.323 135.879 115.052 135.875 114.772 135.87C113.913 135.942 113.28 136.166 112.5 136.524ZM73.8283 136.524C73.8283 140.004 73.8283 143.485 73.8283 147.071C74.6018 147.071 75.3752 147.071 76.1721 147.071C76.1721 143.59 76.1721 140.11 76.1721 136.524C75.3986 136.524 74.6252 136.524 73.8283 136.524ZM79.1018 136.524C79.1018 140.004 79.1018 143.485 79.1018 147.071C79.8752 147.071 80.6486 147.071 81.4455 147.071C81.3488 143.59 81.2521 140.11 81.1525 136.524C80.4758 136.524 79.799 136.524 79.1018 136.524ZM220.606 136.524C220.606 139.908 220.606 143.291 220.606 146.778C222.926 146.778 225.246 146.778 227.637 146.778C227.637 143.394 227.637 140.01 227.637 136.524C225.317 136.524 222.996 136.524 220.606 136.524ZM90.2346 136.817C89.6948 138.442 89.1578 140.068 88.6235 141.695C88.4415 142.248 88.2588 142.8 88.0753 143.352C87.8107 144.148 87.549 144.946 87.2877 145.743C87.2059 145.988 87.1241 146.232 87.0398 146.483C86.1419 148.94 86.1419 148.94 86.3755 151.413C86.7253 151.961 86.7253 151.961 87.3049 152.637C87.9335 152.405 87.9335 152.405 88.0908 151.83C88.1502 151.607 88.2096 151.385 88.2708 151.155C88.3393 150.905 88.4078 150.656 88.4783 150.399C88.5503 150.128 88.6223 149.858 88.6965 149.579C89.2086 147.703 89.7491 145.854 90.4002 144.022C91.6442 140.71 91.6442 140.71 91.1043 137.327C91.0107 137.159 90.917 136.99 90.8205 136.817C90.6272 136.817 90.4338 136.817 90.2346 136.817ZM140.625 136.817C139.597 138.744 139.865 140.8 140.475 142.824C140.793 143.817 141.128 144.804 141.467 145.789C141.737 146.586 142.004 147.383 142.271 148.181C142.334 148.369 142.398 148.556 142.463 148.75C142.894 150.035 143.259 151.315 143.555 152.637C143.791 152.402 144.026 152.166 144.269 151.923C144.617 151.575 144.965 151.227 145.313 150.879C145.19 148.986 144.802 147.345 144.179 145.56C144.054 145.196 144.054 145.196 143.928 144.825C143.754 144.317 143.579 143.81 143.403 143.303C143.132 142.525 142.867 141.745 142.602 140.964C142.432 140.47 142.262 139.975 142.091 139.481C142.012 139.247 141.932 139.014 141.851 138.773C141.515 137.578 141.515 137.578 140.625 136.817ZM59.7658 137.11C58.6472 141.584 59.0451 146.735 61.4046 150.806C61.8187 151.431 62.2429 152.04 62.6955 152.637C62.8768 152.45 63.0581 152.263 63.2448 152.07C63.9862 151.332 64.746 150.617 65.5153 149.909C65.7366 149.705 65.9579 149.5 66.186 149.29C66.7345 148.789 67.2477 148.446 67.8998 148.077C69.6829 147.024 69.6829 147.024 70.5725 145.235C70.6301 144.117 70.5946 143.061 70.5141 141.944C70.4144 139.986 70.4144 139.986 70.3127 137.989C65.092 137.554 65.092 137.554 59.7658 137.11ZM94.9221 137.696C94.5349 138.47 94.5327 139.158 94.446 140.021C94.1681 142.058 93.5613 143.826 92.8202 145.736C92.1181 147.562 91.5244 149.402 90.9853 151.282C90.9095 151.542 90.8337 151.801 90.7556 152.068C90.2346 153.792 90.2346 153.792 90.2346 155.567C90.5818 156.111 90.5818 156.111 91.0769 156.537C91.2332 156.687 91.3896 156.837 91.5506 156.992C91.9782 157.383 91.9782 157.383 92.5783 157.325C92.6328 157.085 92.6872 156.844 92.7433 156.597C92.998 155.478 93.2547 154.36 93.5122 153.241C93.5584 153.04 93.6046 152.839 93.6521 152.631C94.1859 150.311 94.7543 148.019 95.4897 145.752C96.241 143.375 96.7 140.797 95.6453 138.459C95.4323 138.081 95.4323 138.081 95.215 137.696C95.1184 137.696 95.0217 137.696 94.9221 137.696ZM136.231 137.696C135.049 139.419 135.193 141.236 135.352 143.262C135.632 144.67 136.032 146.028 136.45 147.4C136.667 148.143 136.882 148.887 137.096 149.631C137.2 149.991 137.303 150.351 137.41 150.722C138.01 152.898 138.448 155.108 138.867 157.325C140.22 156.672 140.22 156.672 141.211 155.567C141.297 153.341 140.544 151.247 139.82 149.176C139.714 148.867 139.609 148.558 139.501 148.24C138.944 146.618 138.355 145.017 137.714 143.427C136.957 141.519 136.751 139.739 136.817 137.696C136.623 137.696 136.43 137.696 136.231 137.696ZM182.813 137.989C182.785 138.445 182.777 138.902 182.777 139.359C182.777 139.655 182.777 139.951 182.776 140.256C182.777 140.584 182.778 140.912 182.779 141.249C182.779 141.592 182.779 141.935 182.779 142.288C182.779 143.231 182.781 144.174 182.783 145.118C182.785 146.102 182.785 147.087 182.785 148.071C182.786 149.937 182.789 151.802 182.792 153.668C182.795 155.791 182.796 157.915 182.798 160.038C182.801 164.407 182.806 168.776 182.813 173.145C183.404 173.527 183.404 173.527 184.097 173.21C184.362 173.098 184.627 172.986 184.9 172.87C185.167 172.759 185.433 172.648 185.708 172.533C186.015 172.401 186.015 172.401 186.328 172.266C186.356 167.975 186.376 163.684 186.389 159.393C186.395 157.4 186.403 155.408 186.417 153.415C186.43 151.493 186.436 149.571 186.44 147.648C186.442 146.914 186.446 146.18 186.452 145.446C186.461 144.42 186.462 143.393 186.461 142.366C186.466 142.062 186.47 141.757 186.474 141.444C186.467 140.155 186.448 139.371 185.802 138.235C185.157 137.594 185.157 137.594 184.076 137.586C183.152 137.588 183.152 137.588 182.813 137.989ZM108.875 140.534C107.161 141.861 105.167 142.582 103.125 143.262C103.135 143.56 103.146 143.857 103.156 144.164C103.164 144.571 103.172 144.979 103.18 145.386C103.191 145.677 103.191 145.677 103.202 145.974C103.22 147.202 103.068 148.263 102.742 149.448C102.055 152.017 101.758 154.65 101.413 157.283C101.293 158.191 101.169 159.098 101.045 160.005C100.967 160.585 100.89 161.165 100.813 161.746C100.776 162.015 100.739 162.285 100.701 162.563C100.441 164.359 100.441 164.359 100.781 166.114C101.648 166.798 101.648 166.798 102.539 167.286C102.876 164.781 103.21 162.276 103.542 159.771C103.653 158.932 103.765 158.094 103.877 157.255C104.011 156.25 104.144 155.245 104.276 154.24C104.35 153.68 104.425 153.12 104.5 152.559C104.78 150.417 104.949 148.318 104.975 146.156C105.176 145.313 105.176 145.313 105.926 144.735C106.516 144.46 107.117 144.21 107.725 143.977C109.298 143.291 110.417 142.117 111.621 140.918C111.243 140.515 110.852 140.125 110.449 139.747C109.666 139.747 109.471 140.034 108.875 140.534ZM120.374 140.332C120.192 140.526 120.011 140.719 119.824 140.918C121.846 143.241 124.151 144.409 127.149 145.02C127.439 144.343 127.729 143.666 128.028 142.969C127.759 142.884 127.49 142.799 127.213 142.711C125.27 142.061 123.582 141.438 122.008 140.08C121.256 139.492 121.051 139.695 120.374 140.332ZM114.844 141.797C114.483 142.194 114.13 142.598 113.782 143.006C113.585 143.23 113.388 143.454 113.185 143.686C112.7 144.423 112.7 144.423 112.958 145.276C113.418 146.276 113.91 147.242 114.441 148.206C114.626 148.544 114.811 148.881 115.002 149.229C115.143 149.484 115.284 149.738 115.43 150C116.364 149.188 116.951 148.161 117.572 147.107C117.741 146.838 117.741 146.838 117.914 146.564C118.429 145.687 118.7 145.219 118.458 144.207C117.975 143.403 117.572 142.749 116.895 142.09C115.828 141.829 115.828 141.829 114.844 141.797ZM177.832 142.164C177.621 142.286 177.409 142.408 177.191 142.534C176.529 143.077 176.513 143.306 176.367 144.141C176.325 144.795 176.299 145.45 176.28 146.105C176.275 146.3 176.269 146.495 176.263 146.696C176.244 147.341 176.227 147.986 176.211 148.631C176.198 149.083 176.185 149.536 176.172 149.989C176.146 150.94 176.12 151.892 176.095 152.843C176.063 154.048 176.03 155.253 175.995 156.457C175.969 157.395 175.943 158.332 175.918 159.269C175.906 159.713 175.893 160.156 175.881 160.599C175.794 163.707 175.767 166.813 175.781 169.922C176.023 170.057 176.265 170.192 176.513 170.331C177.09 170.652 177.666 170.974 178.242 171.296C178.949 171.724 178.949 171.724 179.59 171.68C179.629 161.617 179.551 151.564 179.297 141.504C178.747 141.504 178.293 141.89 177.832 142.164ZM189.551 141.797C189.516 151.47 189.554 161.132 189.844 170.801C190.424 170.515 191.004 170.228 191.583 169.941C191.906 169.781 192.229 169.621 192.562 169.457C193.315 169.118 193.315 169.118 193.653 168.75C193.691 167.445 193.622 166.137 193.579 164.832C193.573 164.628 193.567 164.423 193.56 164.212C193.421 159.831 193.175 155.456 192.92 151.081C192.901 150.746 192.882 150.41 192.862 150.065C192.806 149.105 192.749 148.144 192.691 147.184C192.674 146.894 192.658 146.604 192.64 146.305C192.624 146.037 192.607 145.769 192.59 145.492C192.576 145.259 192.562 145.025 192.547 144.784C192.46 143.855 192.46 143.855 192.188 142.969C191.581 142.573 191.581 142.573 190.851 142.31C190.609 142.212 190.367 142.114 190.117 142.012C189.931 141.941 189.744 141.87 189.551 141.797ZM99.3166 142.09C99.2702 142.325 99.2237 142.56 99.1758 142.802C98.7693 144.783 98.3017 146.722 97.7419 148.664C97.1449 150.755 96.6341 152.857 96.1672 154.981C96.1055 155.257 96.0438 155.533 95.9802 155.818C95.6955 157.14 95.4471 158.463 95.2688 159.803C95.238 160.034 95.2072 160.264 95.1755 160.502C95.2267 161.319 95.4764 161.612 96.039 162.195C96.8571 162.949 96.8571 162.949 97.5588 162.891C97.5832 162.727 97.6076 162.564 97.6327 162.395C97.888 160.684 98.145 158.973 98.4028 157.262C98.4987 156.624 98.5941 155.987 98.6892 155.349C98.8263 154.43 98.9649 153.511 99.1037 152.591C99.1456 152.309 99.1874 152.026 99.2305 151.735C99.4716 150.15 99.7902 148.621 100.196 147.071C100.384 145.318 100.099 143.772 99.6096 142.09C99.5129 142.09 99.4162 142.09 99.3166 142.09ZM131.543 142.09C131.377 142.619 131.22 143.151 131.067 143.683C130.935 144.127 130.935 144.127 130.799 144.579C130.662 145.624 130.783 146.384 131.041 147.397C131.31 148.486 131.523 149.583 131.735 150.684C131.801 151.019 131.801 151.019 131.867 151.361C131.958 151.825 132.048 152.29 132.138 152.755C132.275 153.457 132.412 154.158 132.549 154.86C133.031 157.336 133.492 159.813 133.887 162.305C134.81 162.39 134.81 162.39 135.571 161.738C136.335 160.698 136.27 160.301 136.095 159.067C135.781 157.345 135.384 155.644 134.979 153.942C134.822 153.283 134.669 152.623 134.516 151.964C133.999 149.759 133.43 147.606 132.671 145.469C132.299 144.359 132.066 143.238 131.836 142.09C131.739 142.09 131.643 142.09 131.543 142.09ZM108.106 147.657C107.854 148.438 107.731 149.016 107.655 149.815C107.628 150.03 107.601 150.246 107.573 150.468C107.486 151.178 107.411 151.889 107.337 152.601C107.28 153.096 107.224 153.591 107.166 154.087C107.078 154.859 106.991 155.632 106.908 156.405C106.736 157.993 106.539 159.574 106.316 161.155C106.174 162.167 106.043 163.18 105.913 164.194C105.849 164.678 105.781 165.161 105.709 165.644C105.22 168.262 105.22 168.262 105.971 170.687C106.561 171.209 107.115 171.61 107.813 171.973C108.465 170.916 108.54 169.866 108.627 168.657C108.644 168.443 108.661 168.229 108.679 168.008C108.735 167.302 108.788 166.595 108.84 165.888C108.879 165.396 108.917 164.903 108.956 164.41C109.037 163.378 109.116 162.345 109.194 161.313C109.293 159.992 109.396 158.672 109.499 157.353C109.598 156.09 109.695 154.828 109.793 153.565C109.811 153.326 109.83 153.087 109.849 152.84C109.902 152.158 109.953 151.476 110.004 150.794C110.02 150.595 110.035 150.396 110.051 150.191C110.143 148.953 110.17 147.726 110.156 146.485C109.341 146.485 108.692 147.181 108.106 147.657ZM121.289 146.778C121.244 148.971 121.382 151.119 121.589 153.302C121.636 153.81 121.636 153.81 121.683 154.329C121.783 155.407 121.884 156.485 121.985 157.563C122.051 158.274 122.116 158.984 122.182 159.695C122.56 163.789 122.948 167.881 123.34 171.973C123.725 171.687 124.109 171.4 124.494 171.113C124.708 170.953 124.922 170.793 125.142 170.628C125.658 170.254 125.658 170.254 125.977 169.922C126.109 167.646 125.73 165.411 125.421 163.161C125.363 162.734 125.305 162.306 125.247 161.879C125.127 160.988 125.005 160.096 124.882 159.205C124.726 158.064 124.572 156.922 124.42 155.781C124.301 154.9 124.181 154.019 124.061 153.139C124.003 152.718 123.946 152.297 123.89 151.876C123.812 151.288 123.73 150.701 123.649 150.113C123.58 149.613 123.58 149.613 123.511 149.102C123.353 148.31 123.201 147.741 122.754 147.071C122.006 146.833 122.006 146.833 121.289 146.778ZM126.27 148.243C127.14 154.333 128.01 160.424 128.906 166.7C130.054 166.156 130.054 166.156 130.957 165.528C131.092 163.802 130.842 162.181 130.54 160.484C130.496 160.234 130.453 159.983 130.408 159.725C130.316 159.198 130.223 158.672 130.129 158.145C129.987 157.347 129.85 156.548 129.713 155.748C129.622 155.233 129.532 154.719 129.441 154.204C129.38 153.851 129.38 153.851 129.319 153.491C128.872 150.636 128.872 150.636 127.442 148.243C127.055 148.243 126.668 148.243 126.27 148.243ZM222.363 150.293C222.357 152.733 222.351 155.173 222.348 157.612C222.347 158.745 222.345 159.878 222.341 161.01C222.338 162.103 222.336 163.195 222.336 164.287C222.335 164.705 222.334 165.122 222.333 165.54C222.33 166.123 222.33 166.706 222.33 167.289C222.33 167.621 222.329 167.954 222.328 168.296C222.279 169.024 222.279 169.024 222.656 169.336C223.237 169.336 223.817 169.336 224.414 169.336C224.414 163.052 224.414 156.768 224.414 150.293C223.737 150.293 223.061 150.293 222.363 150.293ZM76.465 150.586C76.465 156.774 76.465 162.961 76.465 169.336C77.1418 169.336 77.8186 169.336 78.5158 169.336C78.5158 163.149 78.5158 156.961 78.5158 150.586C77.8391 150.586 77.1623 150.586 76.465 150.586ZM82.0314 150.879C82.0314 153.973 82.0314 157.067 82.0314 160.254C83.3209 158.97 83.3209 158.97 84.4851 157.599C84.6384 157.409 84.7917 157.218 84.9497 157.021C85.3039 156.469 85.3039 156.469 85.2289 155.868C84.8774 155.088 84.3876 154.601 83.7893 153.992C82.8524 152.98 82.3244 152.316 82.3244 150.879C82.2277 150.879 82.1311 150.879 82.0314 150.879ZM112.793 152.93C112.631 154.894 112.47 156.858 112.309 158.822C112.254 159.488 112.199 160.155 112.144 160.821C111.732 165.805 111.732 165.805 111.387 170.795C111.345 171.429 111.295 172.062 111.238 172.695C111.088 174.396 111.088 174.396 111.841 175.869C112.781 176.806 112.781 176.806 113.965 177.247C113.979 174.206 113.989 171.165 113.995 168.124C113.998 166.713 114.003 165.301 114.009 163.889C114.016 162.527 114.019 161.165 114.021 159.803C114.022 159.283 114.024 158.763 114.027 158.243C114.031 157.515 114.032 156.788 114.032 156.06C114.034 155.844 114.036 155.628 114.038 155.406C114.034 154.319 113.999 153.86 113.379 152.93C113.186 152.93 112.992 152.93 112.793 152.93ZM117.615 153.634C116.965 154.792 117.074 155.886 117.092 157.192C117.092 157.471 117.092 157.75 117.093 158.037C117.096 158.947 117.105 159.857 117.114 160.767C117.118 161.391 117.121 162.014 117.124 162.638C117.155 167.608 117.273 172.574 117.481 177.54C117.865 177.253 118.25 176.966 118.634 176.679C118.955 176.439 118.955 176.439 119.283 176.195C119.799 175.82 119.799 175.82 120.117 175.489C120.362 172.058 119.937 168.57 119.649 165.154C119.568 164.192 119.491 163.231 119.414 162.269C119.165 159.234 118.908 156.221 118.36 153.223C118.001 153.19 118.001 153.19 117.615 153.634ZM147.363 153.809C146.855 154.3 146.855 154.3 146.485 154.981C146.85 156.223 147.543 157.231 148.253 158.303C148.369 158.48 148.486 158.657 148.606 158.839C148.978 159.403 149.352 159.966 149.726 160.529C150.212 161.264 150.697 161.999 151.182 162.734C151.302 162.915 151.421 163.096 151.544 163.282C152.805 165.191 154.041 167.116 155.274 169.043C156.527 166.888 156.129 163.48 155.567 161.133C154.684 159.866 153.666 159.255 152.344 158.497C151.726 157.943 151.726 157.943 151.209 157.398C151.05 157.234 150.891 157.071 150.728 156.902C150.585 156.752 150.441 156.601 150.293 156.446C149.361 155.491 148.421 154.625 147.363 153.809ZM217.676 156.153C217.548 156.743 217.548 156.743 217.576 157.43C217.576 157.693 217.576 157.957 217.576 158.229C217.581 158.515 217.585 158.8 217.59 159.094C217.591 159.386 217.593 159.678 217.594 159.978C217.599 160.913 217.61 161.847 217.621 162.781C217.625 163.414 217.629 164.046 217.633 164.679C217.643 166.231 217.657 167.784 217.676 169.336C218.063 169.336 218.449 169.336 218.848 169.336C218.848 164.792 218.848 160.249 218.848 155.567C218.419 155.54 218.419 155.54 217.676 156.153ZM142.23 159.246C141.06 160.436 140.722 161.223 140.646 162.888C140.658 163.683 140.685 164.47 140.725 165.263C140.736 165.687 140.747 166.11 140.756 166.533C140.783 167.639 140.826 168.744 140.873 169.849C140.918 170.98 140.947 172.111 140.978 173.243C141.041 175.457 141.121 177.67 141.211 179.883C141.985 179.883 142.758 179.883 143.555 179.883C143.652 176.79 143.748 173.696 143.848 170.508C146.458 170.412 149.069 170.315 151.758 170.215C150.757 168.207 150.757 168.207 149.593 166.346C149.319 165.945 149.319 165.945 149.039 165.537C148.849 165.262 148.658 164.987 148.462 164.704C148.169 164.278 148.169 164.278 147.87 163.844C145.929 160.972 145.929 160.972 143.848 158.204C143.213 158.204 142.678 158.863 142.23 159.246ZM87.5979 158.79C87.0689 159.414 86.5701 160.041 86.0781 160.694C85.1597 161.908 84.2634 163.021 83.1484 164.063C82.0062 165.341 82.0224 166.759 82.1001 168.412C82.2482 169.339 82.2482 169.339 82.8234 169.895C83.4279 170.282 83.4279 170.282 84.0696 170.539C84.6682 170.801 84.6682 170.801 85.5471 171.68C86.3205 171.1 87.0939 170.52 87.8908 169.922C87.9875 173.209 88.0842 176.497 88.1838 179.883C88.9572 179.883 89.7307 179.883 90.5275 179.883C90.582 177.479 90.6236 175.075 90.649 172.671C90.6612 171.554 90.6777 170.437 90.7044 169.321C90.73 168.242 90.7439 167.163 90.7499 166.084C90.7542 165.674 90.7626 165.264 90.7753 164.854C90.8765 162.483 90.8766 162.483 90.0108 160.344C89.4298 159.744 88.8862 159.24 88.1838 158.79C87.9904 158.79 87.7971 158.79 87.5979 158.79ZM212.833 159.513C211.994 160.372 211.943 160.862 211.944 162.04C211.951 162.271 211.959 162.502 211.967 162.74C211.969 162.979 211.971 163.218 211.973 163.464C211.981 164.226 211.999 164.986 212.018 165.748C212.025 166.264 212.032 166.781 212.038 167.298C212.054 168.564 212.079 169.829 212.11 171.094C212.915 170.635 213.522 170.283 214.16 169.629C214.329 168.7 214.366 168.094 214.297 167.179C214.287 166.947 214.278 166.715 214.268 166.476C214.236 165.738 214.189 165.002 214.142 164.264C214.118 163.763 214.094 163.262 214.072 162.76C214.015 161.533 213.944 160.308 213.867 159.082C213.474 159.058 213.474 159.058 212.833 159.513ZM159.375 163.77C159.339 165.171 159.312 166.572 159.295 167.974C159.287 168.449 159.277 168.925 159.265 169.4C159.196 172.034 159.16 174.214 160.485 176.581C161.048 177.637 161.215 178.711 161.426 179.883C161.523 179.883 161.619 179.883 161.719 179.883C161.778 177.871 161.819 175.859 161.848 173.847C161.859 173.162 161.875 172.478 161.896 171.794C161.924 170.809 161.937 169.825 161.948 168.84C161.96 168.535 161.972 168.23 161.984 167.916C162.005 166.28 162.005 166.28 161.182 164.932C160.597 164.491 160.021 164.113 159.375 163.77ZM206.417 164.405C205.468 165.513 205.711 166.969 205.757 168.353C205.76 168.683 205.763 169.012 205.766 169.352C205.777 170.403 205.803 171.453 205.829 172.504C205.839 173.217 205.849 173.93 205.857 174.644C205.88 176.39 205.914 178.137 205.957 179.883C206.731 179.883 207.504 179.883 208.301 179.883C208.301 174.469 208.301 169.055 208.301 163.477C207.568 163.477 206.981 163.993 206.417 164.405ZM135.169 166.425C134.793 166.779 134.417 167.133 134.041 167.487C133.771 167.742 133.771 167.742 133.495 168.002C132.947 168.515 132.387 169.012 131.818 169.501C130.79 170.388 129.793 171.307 128.797 172.229C124.382 176.317 124.382 176.317 122.461 177.832C122.841 178.68 123.2 179.297 123.926 179.883C124.569 180.01 124.569 180.01 125.29 179.983C125.569 179.983 125.849 179.983 126.137 179.983C126.576 179.976 126.576 179.976 127.024 179.969C127.294 179.968 127.563 179.967 127.841 179.966C128.85 179.962 129.858 179.95 130.866 179.938C133.12 179.92 135.373 179.902 137.696 179.883C137.696 174.856 137.696 169.829 137.696 164.649C136.627 164.649 135.91 165.716 135.169 166.425ZM93.7502 164.942C93.7502 169.873 93.7502 174.803 93.7502 179.883C96.0947 179.92 98.4392 179.956 100.855 179.993C101.593 180.009 102.332 180.025 103.093 180.042C103.679 180.047 104.265 180.051 104.851 180.055C105.155 180.064 105.459 180.073 105.772 180.082C107.284 180.141 107.284 180.141 108.567 179.48C108.944 178.952 108.944 178.952 109.278 178.125C107.128 176.259 104.976 174.393 102.814 172.541C102.647 172.398 102.481 172.255 102.309 172.108C101.442 171.366 100.574 170.624 99.7057 169.882C99.3501 169.578 98.9946 169.274 98.6391 168.97C98.4689 168.825 98.2987 168.679 98.1233 168.529C96.9004 167.481 95.6959 166.415 94.5044 165.331C94.1064 164.91 94.1064 164.91 93.7502 164.942ZM200.858 168.457C196.486 171.47 191.877 173.898 186.914 175.782C187.266 176.836 187.53 176.938 188.452 177.503C189.281 178.012 189.839 178.412 190.46 179.173C191.619 180.143 192.423 180.073 193.887 180.026C194.132 180.024 194.377 180.022 194.63 180.02C195.409 180.012 196.188 179.994 196.967 179.975C197.496 179.967 198.026 179.961 198.556 179.955C199.851 179.939 201.146 179.913 202.442 179.883C202.796 178.638 202.742 177.445 202.699 176.162C202.692 175.916 202.685 175.671 202.678 175.418C202.656 174.636 202.631 173.854 202.606 173.072C202.591 172.541 202.575 172.01 202.56 171.479C202.522 170.179 202.482 168.879 202.442 167.579C201.826 167.579 201.349 168.117 200.858 168.457ZM165.235 168.165C165.235 172.032 165.235 175.899 165.235 179.883C166.751 179.92 168.268 179.956 169.831 179.993C170.545 180.017 170.545 180.017 171.273 180.042C171.65 180.046 172.027 180.05 172.416 180.055C172.993 180.069 172.993 180.069 173.583 180.083C175.003 179.807 175.246 179.283 176.074 178.125C176.922 177.526 176.922 177.526 177.777 177.027C178.293 176.724 178.803 176.411 179.297 176.075C179.297 175.881 179.297 175.688 179.297 175.489C178.881 175.318 178.881 175.318 178.457 175.143C174.222 173.366 170.222 171.217 166.461 168.574C165.865 168.112 165.865 168.112 165.235 168.165ZM71.7775 175.196C71.5862 175.957 71.5862 175.957 71.4846 176.661C73.0176 176.675 74.5506 176.686 76.0837 176.693C76.6054 176.696 77.1272 176.7 77.6489 176.705C78.398 176.712 79.1469 176.715 79.896 176.718C80.1301 176.721 80.3641 176.724 80.6053 176.727C81.1788 176.727 81.7521 176.696 82.3244 176.661C82.9874 176.113 82.9874 176.113 83.0385 175.251C82.9791 174.287 82.9791 174.287 82.3599 173.535C81.0534 172.559 79.9935 172.657 78.406 172.706C78.1363 172.705 77.8667 172.704 77.5889 172.703C75.1574 172.738 73.3739 173.224 71.7775 175.196ZM216.375 173.382C215.721 174.301 215.796 174.976 215.918 176.075C216.681 176.837 217.214 176.733 218.253 176.742C218.491 176.741 218.73 176.74 218.976 176.738C219.343 176.739 219.343 176.739 219.718 176.74C220.236 176.741 220.754 176.739 221.273 176.737C222.067 176.734 222.862 176.737 223.657 176.741C224.159 176.74 224.662 176.74 225.165 176.738C225.523 176.74 225.523 176.74 225.888 176.742C227.194 176.785 227.194 176.785 228.223 176.075C228.394 175.233 228.394 175.233 228.223 174.317C227.437 173.3 227.003 172.896 225.723 172.667C225.329 172.66 224.935 172.66 224.541 172.668C224.332 172.667 224.122 172.666 223.906 172.666C223.464 172.666 223.023 172.67 222.581 172.677C221.907 172.687 221.233 172.683 220.558 172.678C220.128 172.68 219.698 172.682 219.268 172.686C218.967 172.684 218.967 172.684 218.659 172.682C217.689 172.706 217.163 172.798 216.375 173.382ZM147.656 173.438C147.656 174.501 147.656 175.565 147.656 176.661C150.654 176.661 153.651 176.661 156.738 176.661C155.892 175.249 155.25 174.237 153.809 173.438C152.729 173.235 151.698 173.27 150.604 173.328C150.32 173.336 150.036 173.344 149.743 173.352C149.047 173.373 148.352 173.404 147.656 173.438ZM177.393 181.33C176.164 183.194 175.765 184.994 176.074 187.207C176.66 189.058 177.581 190.485 179.208 191.565C180.97 192.425 182.983 192.772 184.871 192.151C186.98 191.216 188.381 190.157 189.313 188.002C189.946 185.89 189.765 183.898 188.768 181.935C187.684 180.3 186.143 179.28 184.278 178.711C181.546 178.296 179.124 179.14 177.393 181.33ZM71.1916 180.176C70.7502 181.059 70.8466 181.841 70.8986 182.813C71.757 183.671 72.6673 183.494 73.818 183.497C74.0492 183.499 74.2804 183.501 74.5186 183.503C75.0079 183.506 75.4973 183.508 75.9866 183.507C76.7358 183.509 77.4846 183.519 78.2337 183.531C78.7088 183.532 79.184 183.533 79.6591 183.534C79.8834 183.538 80.1077 183.542 80.3389 183.547C81.2762 183.539 81.882 183.514 82.6375 182.933C83.0527 182.03 83.0527 182.03 82.6174 180.176C78.8469 180.176 75.0764 180.176 71.1916 180.176ZM147.656 180.176C147.656 181.24 147.656 182.303 147.656 183.399C150.847 183.399 154.037 183.399 157.324 183.399C158.052 181.499 158.052 181.499 157.617 180.176C154.33 180.176 151.043 180.176 147.656 180.176ZM216.211 180.176C215.805 180.988 215.863 181.622 215.918 182.52C216.208 182.955 216.208 182.955 216.504 183.399C217.374 183.481 218.181 183.508 219.05 183.495C219.429 183.494 219.429 183.494 219.814 183.493C220.347 183.491 220.881 183.487 221.414 183.481C222.233 183.472 223.052 183.469 223.871 183.468C224.388 183.465 224.905 183.462 225.422 183.458C225.669 183.457 225.916 183.456 226.17 183.455C227.287 183.549 227.287 183.549 228.223 183.106C228.322 181.545 228.322 181.545 227.637 180.176C226.764 180.098 225.953 180.074 225.08 180.09C224.828 180.092 224.575 180.093 224.314 180.094C223.505 180.099 222.696 180.11 221.887 180.121C221.34 180.126 220.792 180.13 220.244 180.133C218.9 180.143 217.555 180.158 216.211 180.176ZM119.238 180.762C118.594 181.477 118.594 181.477 118.067 182.227C118.465 182.472 118.465 182.472 118.872 182.721C119.924 183.47 120.716 184.185 121.216 185.395C121.453 187.466 121.403 189.015 120.117 190.723C118.925 191.882 117.778 192.281 116.126 192.334C114.331 192.24 113.308 191.789 111.988 190.558C110.954 189.203 110.62 187.587 110.833 185.909C111.303 184.177 112.223 183.239 113.672 182.227C113.382 181.84 113.092 181.454 112.793 181.055C112.003 181.078 111.481 181.22 110.871 181.731C109.421 183.301 108.807 184.954 108.582 187.061C108.852 189.579 109.722 191.367 111.621 193.067C113.46 194.501 115.526 194.472 117.774 194.239C119.835 193.779 121.246 192.769 122.388 191.016C123.552 189.131 123.662 186.931 123.195 184.78C122.606 183.053 121.647 181.782 120.117 180.762C119.827 180.762 119.537 180.762 119.238 180.762ZM87.3049 183.399C87.3049 187.556 87.3049 191.713 87.3049 195.997C91.1959 196.014 91.1959 196.014 95.0869 196.025C96.6731 196.029 98.2594 196.033 99.8456 196.041C101.124 196.047 102.402 196.051 103.681 196.052C104.169 196.053 104.658 196.055 105.146 196.059C105.829 196.063 106.511 196.063 107.194 196.063C107.499 196.066 107.499 196.066 107.81 196.069C108.966 196.094 108.966 196.094 109.863 195.411C107.964 193.614 106.084 193.73 103.575 193.739C103.164 193.735 102.753 193.73 102.342 193.725C101.267 193.714 100.191 193.711 99.1159 193.709C98.016 193.707 96.9162 193.696 95.8164 193.685C93.6627 193.666 91.5096 193.66 89.3557 193.653C89.259 190.946 89.1623 188.239 89.0627 185.45C94.4768 185.45 99.8908 185.45 105.469 185.45C105.662 184.773 105.856 184.096 106.055 183.399C99.8674 183.399 93.6799 183.399 87.3049 183.399ZM125.977 183.399C126.17 184.076 126.363 184.752 126.563 185.45C131.59 185.546 136.617 185.643 141.797 185.743C141.894 188.45 141.99 191.157 142.09 193.946C140.82 193.929 139.551 193.912 138.243 193.894C137.227 193.885 136.212 193.877 135.197 193.87C134.127 193.862 133.057 193.852 131.987 193.835C130.955 193.819 129.924 193.811 128.892 193.807C128.309 193.803 127.726 193.791 127.143 193.78C124.96 193.724 124.96 193.724 123.085 194.687C122.879 194.926 122.673 195.165 122.461 195.411C122.558 195.604 122.654 195.797 122.754 195.997C129.715 195.997 136.676 195.997 143.848 195.997C143.848 191.839 143.848 187.682 143.848 183.399C137.95 183.399 132.053 183.399 125.977 183.399ZM192.774 183.399C192.774 184.172 192.774 184.946 192.774 185.743C197.898 185.743 203.022 185.743 208.301 185.743C208.301 185.066 208.301 184.389 208.301 183.692C203.123 183.501 197.956 183.35 192.774 183.399ZM161.133 183.692C160.94 184.272 160.746 184.852 160.547 185.45C164.511 185.45 168.475 185.45 172.559 185.45C172.655 184.87 172.752 184.29 172.852 183.692C168.985 183.692 165.117 183.692 161.133 183.692ZM114.258 185.743C113.95 186.619 113.934 187.097 114.185 187.995C114.528 188.756 114.528 188.756 115.43 189.258C116.476 189.234 116.476 189.234 117.481 188.965C118.192 187.898 118.114 187.292 118.067 186.036C116.726 185.262 115.597 184.85 114.258 185.743ZM71.4846 186.622C72.237 188.126 73.1035 188.964 74.6409 189.588C76.669 190.138 79.1025 190.251 81.0427 189.35C81.9734 188.789 82.6189 188.133 83.2033 187.207C83.2033 187.014 83.2033 186.821 83.2033 186.622C79.3361 186.622 75.4689 186.622 71.4846 186.622ZM147.363 186.915C147.316 187.463 147.316 187.463 147.327 188.086C147.326 188.298 147.325 188.509 147.325 188.727C147.306 189.264 147.306 189.264 147.656 189.551C150.69 189.726 153.251 189.825 155.86 188.086C156.053 187.893 156.246 187.7 156.446 187.5C156.446 187.21 156.446 186.92 156.446 186.622C155.199 186.614 153.953 186.609 152.707 186.605C152.282 186.604 151.858 186.602 151.434 186.599C150.825 186.596 150.216 186.594 149.608 186.593C149.241 186.591 148.874 186.59 148.497 186.588C147.687 186.525 147.687 186.525 147.363 186.915ZM216.504 186.915C217.248 188.402 217.942 189.018 219.489 189.624C221.726 190.065 223.846 190.105 225.879 188.965C226.613 188.428 227.3 187.865 227.93 187.207C227.93 187.111 227.93 187.014 227.93 186.915C224.159 186.915 220.389 186.915 216.504 186.915ZM92.5783 189.258C92.5783 189.452 92.5783 189.645 92.5783 189.844C93.3857 190.113 93.8556 190.173 94.6865 190.17C95.056 190.17 95.056 190.17 95.4329 190.17C95.6975 190.169 95.9621 190.167 96.2347 190.166C96.5066 190.165 96.7785 190.165 97.0586 190.165C97.9272 190.163 98.7959 190.159 99.6645 190.155C100.253 190.154 100.842 190.153 101.431 190.151C102.875 190.148 104.318 190.143 105.762 190.137C105.617 189.702 105.617 189.702 105.469 189.258C101.215 189.258 96.9611 189.258 92.5783 189.258ZM126.27 189.258C126.27 189.645 126.27 190.032 126.27 190.43C130.33 190.43 134.391 190.43 138.574 190.43C138.574 190.043 138.574 189.657 138.574 189.258C134.514 189.258 130.453 189.258 126.27 189.258ZM158.496 189.258C158.496 189.935 158.496 190.612 158.496 191.309C163.717 191.309 168.938 191.309 174.317 191.309C173.927 189.704 173.927 189.704 173.438 189.258C172.97 189.231 172.501 189.224 172.033 189.225C171.584 189.225 171.584 189.225 171.126 189.225C170.801 189.227 170.476 189.228 170.141 189.23C169.644 189.23 169.644 189.23 169.137 189.231C168.074 189.233 167.011 189.236 165.949 189.24C165.23 189.241 164.512 189.243 163.793 189.244C162.028 189.247 160.262 189.252 158.496 189.258ZM192.188 189.258C191.753 190.273 191.753 190.273 191.309 191.309C193.519 191.316 195.73 191.321 197.94 191.324C198.966 191.326 199.993 191.328 201.019 191.331C202.198 191.335 203.377 191.336 204.555 191.338C205.111 191.34 205.111 191.34 205.677 191.342C206.187 191.342 206.187 191.342 206.708 191.342C207.009 191.343 207.31 191.344 207.621 191.344C208.29 191.386 208.29 191.386 208.594 191.016C208.594 190.436 208.594 189.856 208.594 189.258C203.18 189.258 197.766 189.258 192.188 189.258ZM217.969 192.774C217.969 194.901 217.969 197.028 217.969 199.219C218.259 199.316 218.549 199.413 218.848 199.512C219.208 199.218 219.208 199.218 219.174 198.621C219.173 198.365 219.171 198.109 219.169 197.845C219.168 197.568 219.168 197.292 219.167 197.007C219.164 196.716 219.162 196.425 219.159 196.125C219.158 195.833 219.156 195.541 219.155 195.24C219.152 194.515 219.147 193.791 219.141 193.067C218.754 192.97 218.367 192.874 217.969 192.774ZM76.758 193.36C76.758 195.487 76.758 197.614 76.758 199.805C77.3381 199.805 77.9182 199.805 78.5158 199.805C78.5158 197.678 78.5158 195.551 78.5158 193.36C77.9357 193.36 77.3557 193.36 76.758 193.36ZM222.656 193.36C222.656 195.293 222.656 197.227 222.656 199.219C223.237 199.219 223.817 199.219 224.414 199.219C224.414 197.286 224.414 195.352 224.414 193.36C223.834 193.36 223.254 193.36 222.656 193.36ZM158.496 194.825C158.496 195.598 158.496 196.372 158.496 197.168C175.029 197.168 191.561 197.168 208.594 197.168C208.594 196.395 208.594 195.622 208.594 194.825C205.846 194.804 203.098 194.789 200.35 194.779C199.074 194.775 197.798 194.768 196.521 194.758C195.289 194.749 194.056 194.744 192.823 194.741C192.354 194.74 191.885 194.737 191.416 194.732C188.049 194.695 188.049 194.695 184.863 195.704C183.745 195.82 183.745 195.82 182.648 195.813C182.104 195.817 182.104 195.817 181.548 195.82C180.469 195.704 180.469 195.704 179.505 195.263C178.436 194.788 177.534 194.718 176.357 194.725C176.065 194.725 176.065 194.725 175.767 194.725C175.131 194.725 174.496 194.732 173.86 194.739C173.416 194.74 172.973 194.742 172.529 194.743C171.367 194.746 170.204 194.755 169.042 194.764C167.854 194.773 166.666 194.777 165.478 194.782C163.151 194.791 160.823 194.806 158.496 194.825ZM91.6994 199.512C91.6994 200.866 91.6994 202.219 91.6994 203.614C95.1799 203.71 98.6604 203.807 102.246 203.907C102.246 202.457 102.246 201.006 102.246 199.512C98.7658 199.512 95.2854 199.512 91.6994 199.512ZM105.762 199.512C105.762 200.866 105.762 202.219 105.762 203.614C108.169 203.869 110.533 203.946 112.952 203.935C113.501 203.935 113.501 203.935 114.062 203.934C115.023 203.933 115.985 203.93 116.947 203.927C117.933 203.924 118.919 203.922 119.905 203.921C121.831 203.918 123.758 203.913 125.684 203.907C125.684 202.457 125.684 201.006 125.684 199.512C119.11 199.512 112.535 199.512 105.762 199.512ZM129.199 199.512C129.199 200.866 129.199 202.219 129.199 203.614C130.56 203.663 131.921 203.71 133.282 203.755C133.745 203.771 134.208 203.787 134.67 203.804C135.336 203.828 136.001 203.85 136.667 203.871C136.977 203.883 136.977 203.883 137.294 203.895C138.205 203.923 138.873 203.905 139.746 203.614C139.746 202.26 139.746 200.907 139.746 199.512C136.266 199.512 132.785 199.512 129.199 199.512ZM174.024 200.684C174.024 202.231 174.024 203.778 174.024 205.372C180.211 205.372 186.399 205.372 192.774 205.372C192.774 203.921 192.774 202.471 192.774 200.977C192.463 200.601 192.463 200.601 191.745 200.649C191.417 200.649 191.09 200.65 190.753 200.651C190.199 200.651 190.199 200.651 189.633 200.651C189.227 200.652 188.821 200.654 188.415 200.655C188.001 200.656 187.588 200.656 187.174 200.657C186.084 200.658 184.995 200.661 183.905 200.664C182.793 200.667 181.682 200.668 180.57 200.67C178.388 200.673 176.206 200.678 174.024 200.684ZM196.289 200.977C196.289 202.137 196.289 203.297 196.289 204.493C200.35 204.493 204.41 204.493 208.594 204.493C208.594 203.332 208.594 202.172 208.594 200.977C207.257 200.71 206.041 200.642 204.689 200.645C204.458 200.645 204.227 200.645 203.988 200.644C203.502 200.644 203.015 200.645 202.529 200.646C201.781 200.647 201.033 200.646 200.286 200.644C199.813 200.644 199.339 200.645 198.866 200.645C198.53 200.644 198.53 200.644 198.186 200.643C197.152 200.553 197.152 200.553 196.289 200.977ZM158.496 200.977C158.496 202.137 158.496 203.297 158.496 204.493C160.16 204.5 161.823 204.505 163.487 204.509C164.053 204.51 164.62 204.512 165.186 204.515C165.998 204.518 166.811 204.52 167.623 204.521C167.878 204.523 168.133 204.524 168.395 204.526C169.002 204.526 169.609 204.511 170.215 204.493C170.592 204.182 170.592 204.182 170.537 203.466C170.533 203.17 170.53 202.875 170.526 202.57C170.524 202.274 170.521 201.977 170.518 201.672C170.515 201.442 170.512 201.213 170.508 200.977C166.597 200.252 162.446 200.779 158.496 200.977ZM91.6994 207.422C91.6994 208.196 91.6994 208.969 91.6994 209.766C91.9759 209.756 92.2523 209.746 92.5371 209.735C96.1525 209.659 99.1383 210.124 102.246 212.11C102.635 211.787 102.635 211.787 102.578 210.976C102.577 210.631 102.577 210.286 102.576 209.931C102.577 209.587 102.577 209.243 102.578 208.888C102.6 208.031 102.6 208.031 102.246 207.422C98.7658 207.422 95.2854 207.422 91.6994 207.422ZM105.762 207.422C105.753 208.637 105.748 209.852 105.744 211.066C105.741 211.413 105.739 211.76 105.736 212.117C105.735 212.447 105.734 212.776 105.733 213.116C105.732 213.421 105.73 213.726 105.729 214.041C105.682 214.732 105.682 214.732 106.055 215.04C106.828 215.04 107.602 215.04 108.399 215.04C108.399 212.526 108.399 210.012 108.399 207.422C107.529 207.422 106.658 207.422 105.762 207.422ZM123.34 207.422C123.34 209.936 123.34 212.45 123.34 215.04C124.113 215.04 124.887 215.04 125.684 215.04C125.684 212.526 125.684 210.012 125.684 207.422C124.91 207.422 124.137 207.422 123.34 207.422ZM129.199 207.422C129.199 209.066 129.199 210.709 129.199 212.403C129.832 212.086 130.465 211.769 131.096 211.45C131.346 211.323 131.596 211.196 131.854 211.066C132.106 210.939 132.357 210.812 132.615 210.68C133.597 210.21 134.407 210.017 135.483 209.966C135.856 209.948 135.856 209.948 136.236 209.929C136.494 209.918 136.752 209.906 137.018 209.894C137.41 209.875 137.41 209.875 137.811 209.856C138.456 209.825 139.101 209.795 139.746 209.766C139.746 208.993 139.746 208.219 139.746 207.422C136.266 207.422 132.785 207.422 129.199 207.422ZM158.203 208.008C158.203 208.492 158.203 208.975 158.203 209.473C162.167 209.473 166.131 209.473 170.215 209.473C170.312 208.99 170.408 208.506 170.508 208.008C166.447 208.008 162.387 208.008 158.203 208.008ZM196.289 208.008C196.289 208.492 196.289 208.975 196.289 209.473C200.253 209.473 204.217 209.473 208.301 209.473C208.398 209.086 208.494 208.7 208.594 208.301C204.493 207.954 200.402 207.978 196.289 208.008ZM89.1153 215.215C88.7069 215.611 88.7069 215.611 88.7697 216.211C92.8303 216.211 96.8908 216.211 101.074 216.211C99.3173 214.103 98.2443 213.333 95.5446 213.007C92.9638 212.877 91.0331 213.478 89.1153 215.215ZM156.98 213.639C156.341 214.503 156.341 214.503 156.153 215.918C162.533 215.918 168.914 215.918 175.488 215.918C175.488 215.048 175.488 214.178 175.488 213.282C172.603 212.774 169.649 212.9 166.729 212.886C166 212.881 165.271 212.873 164.542 212.862C163.487 212.846 162.433 212.84 161.378 212.835C161.052 212.829 160.727 212.822 160.391 212.815C158.568 212.813 158.568 212.813 156.98 213.639ZM191.016 212.989C190.919 213.956 190.822 214.922 190.723 215.918C197.297 215.918 203.871 215.918 210.645 215.918C210.111 214.138 210.111 214.138 208.887 212.989C208.049 212.82 208.049 212.82 207.113 212.856C206.756 212.856 206.398 212.856 206.029 212.856C205.645 212.862 205.26 212.868 204.863 212.874C204.464 212.876 204.065 212.878 203.666 212.879C202.618 212.884 201.57 212.895 200.522 212.908C199.452 212.92 198.382 212.926 197.311 212.932C195.213 212.944 193.114 212.964 191.016 212.989ZM131.25 215.04C131.057 215.426 130.863 215.813 130.664 216.211C134.628 216.211 138.592 216.211 142.676 216.211C141.983 214.826 141.391 214.163 139.929 213.599C136.865 212.627 133.772 212.85 131.25 215.04ZM123.34 218.848C123.34 219.525 123.34 220.202 123.34 220.899C130.398 220.899 137.455 220.899 144.727 220.899C144.727 220.512 144.727 220.125 144.727 219.727C144.515 219.725 144.304 219.724 144.086 219.722C142.094 219.705 140.102 219.684 138.111 219.658C137.087 219.645 136.063 219.633 135.039 219.626C133.862 219.616 132.685 219.6 131.509 219.584C131.14 219.582 130.772 219.58 130.392 219.578C130.052 219.573 129.711 219.567 129.361 219.561C129.06 219.557 128.76 219.554 128.45 219.551C128.214 219.512 127.978 219.474 127.735 219.434C127.541 219.144 127.348 218.854 127.149 218.555C126.311 218.437 126.311 218.437 125.373 218.482C125.055 218.486 124.737 218.491 124.41 218.496C123.656 218.469 123.656 218.469 123.34 218.848ZM154.981 219.434C154.981 219.917 154.981 220.401 154.981 220.899C161.845 220.899 168.709 220.899 175.781 220.899C175.636 220.174 175.636 220.174 175.488 219.434C168.721 219.434 161.953 219.434 154.981 219.434ZM190.723 219.434C190.723 219.917 190.723 220.401 190.723 220.899C197.49 220.899 204.258 220.899 211.231 220.899C211.086 220.174 211.086 220.174 210.938 219.434C204.267 219.434 197.596 219.434 190.723 219.434ZM104.297 218.555C104.2 218.845 104.104 219.135 104.004 219.434C95.593 219.579 95.593 219.579 87.0119 219.727C87.0119 220.114 87.0119 220.5 87.0119 220.899C94.0695 220.899 101.127 220.899 108.399 220.899C108.399 220.125 108.399 219.352 108.399 218.555C107.045 218.555 105.692 218.555 104.297 218.555Z" fill="black"/>
<path d="M185.559 181.311C185.812 181.517 186.066 181.722 186.328 181.934C186.581 182.133 186.581 182.133 186.84 182.337C187.734 183.499 187.926 184.882 187.885 186.323C187.665 187.726 186.901 188.705 185.87 189.661C184.379 190.655 182.789 190.609 181.054 190.43C179.75 189.79 178.948 188.983 178.125 187.793C177.594 186.202 177.626 184.835 178.326 183.325C179.028 182.066 179.891 181.392 181.127 180.67C182.738 180.268 184.119 180.511 185.559 181.311ZM181.549 184.168C180.96 184.846 180.96 184.846 181.091 185.779C181.284 186.65 181.284 186.65 181.933 187.207C182.8 187.354 182.8 187.354 183.691 187.207C184.305 186.762 184.305 186.762 184.57 186.035C184.572 185.119 184.572 185.119 184.277 184.278C183.209 183.566 182.632 183.407 181.549 184.168Z" fill="black"/>
<path d="M125.848 125.098C126.855 125.391 126.855 125.391 127.423 125.885C127.835 126.783 127.874 127.341 127.734 128.32C127.258 129.163 127.258 129.163 126.562 129.785C125.702 129.968 125.702 129.968 124.804 129.785C123.944 129.181 123.944 129.181 123.34 128.32C123.319 127.155 123.475 126.513 124.109 125.537C124.804 125.098 124.804 125.098 125.848 125.098Z" fill="black"/>
<path d="M174.903 120.117C175.598 120.556 175.598 120.556 176.075 121.289C176.255 122.111 176.268 122.812 176.075 123.632C175.452 124.383 175.452 124.383 174.61 124.804C173.685 124.786 173.105 124.654 172.303 124.2C171.762 123.269 171.789 122.319 171.973 121.289C172.761 120.077 173.497 119.882 174.903 120.117Z" fill="black"/>
<path d="M195.409 120.117C196.157 120.603 196.51 120.966 196.705 121.848C196.782 122.994 196.709 123.479 195.959 124.384C194.916 124.905 194.457 124.87 193.359 124.512C192.809 124.201 192.809 124.201 192.48 123.633C192.365 122.727 192.294 122.155 192.48 121.289C193.352 120.292 194.083 119.845 195.409 120.117Z" fill="black"/>
<path d="M107.812 125.684C108.463 126.448 108.397 126.885 108.361 127.899C108.105 128.906 108.105 128.906 107.611 129.492C106.678 129.896 106.139 129.779 105.175 129.492C104.626 129.163 104.626 129.163 104.296 128.613C104.178 127.527 104.147 126.833 104.681 125.867C105.748 124.839 106.561 125.125 107.812 125.684Z" fill="black"/>
</svg>
