<svg width="300" height="300" viewBox="0 0 300 300" fill="none" xmlns="http://www.w3.org/2000/svg">
<path d="M155.366 59.545C157.054 61.3038 157.778 63.1878 157.91 65.6253C157.763 67.2453 157.245 68.6025 156.445 70.0198C157.412 70.1165 158.379 70.2132 159.375 70.3128C159.375 70.5062 159.375 70.6995 159.375 70.8987C159.605 70.9592 159.834 71.0196 160.071 71.0818C164.726 72.8477 169.369 76.9626 171.947 81.2282C172.268 81.7849 172.268 81.7849 172.852 82.3245C173.169 82.9038 173.473 83.4909 173.767 84.0823C173.925 84.3965 174.083 84.7107 174.245 85.0345C174.609 85.8401 174.609 85.8401 174.609 86.4261C174.803 86.5228 174.996 86.6194 175.195 86.719C175.424 87.3164 175.424 87.3164 175.635 88.074C175.709 88.3384 175.784 88.6027 175.86 88.8751C175.931 89.1304 176.001 89.3857 176.074 89.6487C176.19 90.0272 176.306 90.4056 176.422 90.784C176.66 91.6995 176.66 91.6995 176.66 92.8714C176.854 92.9681 177.047 93.0647 177.246 93.1644C177.421 98.7937 177.382 104.108 175.781 109.571C175.714 109.802 175.647 110.033 175.577 110.271C175.366 110.916 175.366 110.916 174.902 111.914C174.287 112.123 174.287 112.123 173.73 112.207C173.596 112.941 173.462 113.675 173.331 114.409C173.203 115.109 173.069 115.808 172.931 116.506C171.91 121.747 171.662 127.098 171.387 132.422C171.697 132.453 172.007 132.484 172.326 132.516C173.409 132.71 173.935 132.926 174.811 133.557C175.023 133.708 175.236 133.858 175.455 134.013C175.762 134.241 175.762 134.241 176.074 134.473C176.268 134.585 176.462 134.698 176.661 134.814C177.578 135.657 177.985 136.719 178.491 137.842C178.651 138.181 178.651 138.181 178.814 138.528C179.59 140.211 179.59 140.211 179.59 141.211C179.783 141.308 179.977 141.405 180.176 141.504C180.079 141.698 179.982 141.891 179.883 142.09C180.076 142.187 180.27 142.283 180.469 142.383C180.621 143.03 180.621 143.03 180.729 143.875C180.787 144.328 180.787 144.328 180.847 144.79C180.885 145.107 180.924 145.425 180.963 145.752C181.026 146.229 181.026 146.229 181.09 146.715C181.308 148.454 181.308 148.454 181.348 149.121C180.887 149.582 180.424 149.462 179.784 149.475C179.515 149.48 179.245 149.486 178.967 149.492C178.527 149.5 178.527 149.5 178.078 149.507C177.779 149.513 177.481 149.519 177.173 149.525C176.215 149.545 175.256 149.562 174.298 149.579C173.65 149.592 173.002 149.605 172.354 149.617C170.762 149.649 169.17 149.679 167.578 149.707C167.833 161.464 169.803 172.805 173.438 183.985C173.593 184.463 173.593 184.463 173.751 184.951C175.279 189.609 177.062 194.133 179.004 198.633C181.131 198.73 183.258 198.826 185.449 198.926C185.449 202.89 185.449 206.854 185.449 210.938C186.416 211.034 187.383 211.131 188.379 211.231C191.042 212.127 192.949 213.571 194.329 216.01C195.319 218.147 195.54 220.385 194.852 222.652C194.576 223.348 194.264 224.03 193.945 224.707C195.976 224.707 198.006 224.707 200.098 224.707C200.147 226.861 200.194 229.014 200.239 231.168C200.255 231.901 200.271 232.634 200.288 233.367C200.312 234.419 200.334 235.471 200.355 236.523C200.367 237.016 200.367 237.016 200.379 237.519C200.385 237.824 200.391 238.129 200.397 238.443C200.406 238.846 200.406 238.846 200.415 239.258C200.391 239.942 200.391 239.942 200.098 240.821C167.033 240.821 133.969 240.821 99.9023 240.821C99.9023 235.503 99.9023 230.186 99.9023 224.707C101.933 224.707 103.963 224.707 106.055 224.707C105.475 223.402 105.475 223.402 104.883 222.071C104.472 219.267 104.882 217.004 106.496 214.703C108.043 212.767 110.089 211.527 112.5 210.938C113.08 210.938 113.66 210.938 114.258 210.938C114.258 206.974 114.258 203.01 114.258 198.926C116.578 198.926 118.898 198.926 121.289 198.926C121.386 198.443 121.482 197.959 121.582 197.461C121.776 196.945 121.984 196.434 122.202 195.928C122.33 195.626 122.458 195.323 122.59 195.012C122.729 194.684 122.867 194.357 123.01 194.019C128.958 179.638 132.038 164.979 132.715 149.414C128.171 149.414 123.627 149.414 118.945 149.414C118.618 148.104 118.757 147.109 118.982 145.807C119.022 145.574 119.063 145.34 119.104 145.1C119.883 140.856 121.224 136.552 124.716 133.756C125.435 133.271 126.123 132.968 126.932 132.659C127.193 132.558 127.454 132.458 127.723 132.354C127.92 132.28 128.117 132.206 128.32 132.129C128.24 127.855 128.133 123.597 127.625 119.348C127.591 119.063 127.558 118.778 127.523 118.484C127.197 114.717 127.197 114.717 125.391 111.621C124.053 109.256 123.352 106.981 123.047 104.297C122.996 103.988 122.945 103.679 122.892 103.361C121.889 95.2821 123.936 87.3261 128.741 80.7681C129.181 80.2082 129.627 79.6526 130.078 79.1019C130.282 78.8492 130.487 78.5966 130.697 78.3362C134.113 74.3216 138.824 71.2853 143.848 69.7269C143.709 69.3885 143.57 69.0501 143.427 68.7015C142.625 66.5295 142.449 64.6082 143.262 62.4026C144.346 60.2225 145.716 58.9414 147.976 58.063C150.548 57.3188 153.329 57.7872 155.366 59.545ZM147.656 63.8675C147.231 64.718 147.254 65.2657 147.363 66.2112C148.084 67.3695 148.522 67.8744 149.835 68.2803C151.033 68.2593 151.647 68.0505 152.637 67.3831C153.407 66.4025 153.35 65.3668 153.223 64.1605C152.697 63.3538 152.328 62.8344 151.465 62.4026C149.595 62.2187 148.876 62.3147 147.656 63.8675ZM133.704 81.7752C129.712 86.9095 127.34 92.5041 127.332 99.0604C127.324 99.3572 127.317 99.654 127.31 99.9599C127.299 102.758 127.888 104.619 128.613 107.52C142.632 107.52 156.65 107.52 171.094 107.52C173.412 101.338 173.5 94.9301 170.927 88.8007C167.998 82.4396 163.855 77.5289 157.324 74.7073C148.606 71.504 139.683 74.7783 133.704 81.7752ZM130.957 112.207C131.344 114.141 131.73 116.075 132.129 118.067C132.272 119.213 132.399 120.325 132.477 121.472C132.498 121.75 132.52 122.028 132.543 122.315C132.695 124.33 132.818 126.347 132.908 128.366C132.968 129.649 133.118 130.847 133.301 132.129C144.322 132.129 155.344 132.129 166.699 132.129C166.989 128.455 167.279 124.782 167.578 120.996C167.841 119.114 168.101 117.287 168.457 115.43C168.65 114.367 168.844 113.303 169.043 112.207C156.475 112.207 143.906 112.207 130.957 112.207ZM126.05 138.867C124.949 140.587 124.219 142.691 124.219 144.727C141.331 144.727 158.443 144.727 176.074 144.727C175.133 140.552 175.133 140.552 172.559 137.403C171.454 136.864 170.566 136.742 169.343 136.738C168.992 136.736 168.641 136.733 168.279 136.731C167.705 136.731 167.705 136.731 167.119 136.732C166.71 136.73 166.301 136.728 165.891 136.726C164.782 136.72 163.672 136.719 162.563 136.719C161.869 136.718 161.175 136.717 160.481 136.715C158.058 136.71 155.635 136.708 153.213 136.708C150.958 136.708 148.703 136.702 146.447 136.693C144.509 136.685 142.57 136.682 140.631 136.683C139.474 136.683 138.318 136.681 137.161 136.675C136.072 136.669 134.984 136.669 133.895 136.673C133.308 136.674 132.721 136.669 132.133 136.664C129.68 136.681 127.717 136.882 126.05 138.867ZM137.402 149.414C137.209 152.798 137.016 156.182 136.816 159.668C135.691 169.233 133.804 178.602 130.559 187.686C130.289 188.378 130.289 188.378 130.664 188.965C143.619 188.965 156.574 188.965 169.922 188.965C169.255 186.49 169.255 186.49 168.506 184.05C164.846 172.711 163.386 161.296 162.891 149.414C154.479 149.414 146.068 149.414 137.402 149.414ZM128.32 193.946C126.58 197.042 126.58 197.042 126.27 198.926C142.028 198.926 157.787 198.926 174.023 198.926C173.214 196.289 173.214 196.289 171.973 193.946C157.567 193.946 143.162 193.946 128.32 193.946ZM118.945 203.614C118.945 206.031 118.945 208.448 118.945 210.938C139.441 210.938 159.937 210.938 181.055 210.938C181.055 208.521 181.055 206.104 181.055 203.614C160.559 203.614 140.063 203.614 118.945 203.614ZM110.358 217.255C109.4 218.639 109.39 219.83 109.57 221.485C110.264 222.925 111.099 223.667 112.5 224.414C113.516 224.583 114.517 224.573 115.545 224.563C115.851 224.565 116.158 224.567 116.473 224.569C117.499 224.573 118.525 224.57 119.552 224.566C120.288 224.568 121.023 224.57 121.759 224.572C123.55 224.577 125.341 224.576 127.133 224.573C128.589 224.57 130.045 224.57 131.501 224.571C131.812 224.571 131.812 224.571 132.129 224.572C132.55 224.572 132.971 224.572 133.392 224.573C137.341 224.576 141.29 224.572 145.238 224.566C148.625 224.561 152.012 224.562 155.398 224.567C159.333 224.573 163.267 224.576 167.201 224.572C167.621 224.572 168.041 224.572 168.46 224.571C168.667 224.571 168.873 224.571 169.086 224.571C170.54 224.57 171.993 224.571 173.447 224.574C175.405 224.578 177.362 224.575 179.32 224.568C180.039 224.567 180.757 224.567 181.476 224.57C182.457 224.573 183.437 224.569 184.418 224.563C184.845 224.567 184.845 224.567 185.28 224.571C187.052 224.551 188.1 224.278 189.551 223.242C190.439 222.147 190.675 221.128 190.723 219.727C190.365 217.906 189.581 216.968 188.086 215.918C187.408 215.579 187.021 215.588 186.266 215.587C186.006 215.586 185.745 215.585 185.477 215.583C185.189 215.584 184.902 215.584 184.605 215.584C184.301 215.583 183.997 215.582 183.683 215.582C182.656 215.579 181.63 215.579 180.604 215.578C179.87 215.577 179.137 215.575 178.404 215.574C176.407 215.57 174.41 215.568 172.413 215.567C171.166 215.566 169.92 215.565 168.673 215.563C165.222 215.56 161.772 215.557 158.321 215.556C157.99 215.556 157.99 215.556 157.652 215.556C157.43 215.555 157.209 215.555 156.981 215.555C156.532 215.555 156.083 215.555 155.634 215.555C155.411 215.555 155.189 215.555 154.959 215.555C151.353 215.554 147.746 215.548 144.139 215.542C140.437 215.535 136.735 215.531 133.033 215.531C130.954 215.53 128.875 215.529 126.796 215.523C124.841 215.518 122.885 215.518 120.93 215.521C120.212 215.521 119.493 215.519 118.775 215.517C117.796 215.513 116.816 215.515 115.837 215.518C115.551 215.515 115.266 215.513 114.972 215.51C113.045 215.525 111.706 215.76 110.358 217.255ZM104.297 228.809C104.297 231.226 104.297 233.643 104.297 236.133C134.461 236.133 164.625 236.133 195.703 236.133C195.703 233.716 195.703 231.299 195.703 228.809C165.539 228.809 135.375 228.809 104.297 228.809Z" fill="black"/>
</svg>
