<svg width="300" height="300" viewBox="0 0 300 300" fill="none" xmlns="http://www.w3.org/2000/svg">
<path d="M155.004 53.6873C157.534 55.4624 159.299 57.5818 159.961 60.6442C160.258 63.3299 160.128 66.2218 158.42 68.4502C158.062 68.8816 157.694 69.3046 157.324 69.7262C157.65 69.8259 157.977 69.9256 158.313 70.0284C166.887 72.7195 174.149 77.7172 178.428 85.8282C180.196 89.3538 181.469 93.3036 181.641 97.2653C181.663 97.6335 181.663 97.6335 181.686 98.0092C181.869 103.533 180.44 109.128 177.626 113.878C177.231 114.577 176.946 115.265 176.66 116.015C176.462 116.506 176.462 116.506 176.26 117.006C175.802 118.139 175.352 119.274 174.902 120.41C174.785 120.704 174.668 120.997 174.548 121.3C173.514 123.996 173.097 126.541 173.071 129.419C173.069 129.626 173.066 129.834 173.063 130.048C173.072 131.613 173.104 133.161 174.175 134.402C174.75 134.953 175.342 135.474 175.946 135.992C177.941 137.785 179.58 139.541 181.055 141.797C181.237 142.072 181.419 142.347 181.606 142.631C184.673 147.563 185.986 153.01 185.742 158.789C185.002 159.159 184.493 159.117 183.664 159.115C183.198 159.115 183.198 159.115 182.722 159.115C182.386 159.113 182.049 159.112 181.702 159.11C181.359 159.11 181.015 159.109 180.661 159.109C179.559 159.107 178.457 159.104 177.356 159.1C176.611 159.099 175.865 159.097 175.12 159.096C173.289 159.093 171.459 159.088 169.629 159.082C170.105 169.487 171.074 180.574 175.488 190.136C175.658 190.564 175.827 190.991 175.995 191.419C176.866 193.714 176.866 193.714 178.681 195.197C179.587 195.332 179.587 195.332 180.496 195.356C181.795 195.438 182.796 195.934 183.691 196.875C184.74 198.52 185.03 199.89 184.978 201.819C184.976 202.056 184.974 202.293 184.973 202.538C184.966 203.287 184.951 204.036 184.936 204.785C184.931 205.296 184.925 205.808 184.92 206.319C184.908 207.566 184.887 208.812 184.863 210.058C185.231 210.056 185.599 210.053 185.979 210.05C189.167 210.027 191.667 211.174 194.001 213.272C196.393 215.703 196.978 218.464 196.953 221.792C196.938 222.462 196.916 223.131 196.889 223.8C196.888 224.752 196.905 225.548 197.168 226.465C197.965 227.202 198.808 227.532 199.805 227.929C201.378 229.258 202.448 230.845 202.734 232.91C202.782 233.891 202.789 234.87 202.794 235.852C202.796 236.135 202.797 236.417 202.799 236.709C202.802 237.304 202.804 237.9 202.805 238.496C202.808 239.41 202.817 240.324 202.826 241.238C202.828 241.817 202.829 242.396 202.83 242.975C202.834 243.249 202.838 243.524 202.841 243.806C202.841 244.06 202.84 244.313 202.839 244.574C202.84 244.797 202.841 245.02 202.842 245.25C202.806 245.432 202.771 245.613 202.734 245.8C201.715 246.48 201.327 246.46 200.125 246.459C199.761 246.461 199.397 246.462 199.023 246.463C198.617 246.462 198.211 246.46 197.805 246.459C197.376 246.459 196.947 246.46 196.517 246.461C195.335 246.463 194.152 246.461 192.969 246.459C191.695 246.457 190.421 246.458 189.146 246.459C186.649 246.461 184.151 246.459 181.654 246.456C178.748 246.453 175.842 246.453 172.936 246.453C167.753 246.454 162.569 246.451 157.386 246.447C152.352 246.443 147.317 246.441 142.283 246.441C141.818 246.441 141.818 246.441 141.343 246.441C140.879 246.441 140.879 246.441 140.405 246.441C134.68 246.441 128.955 246.439 123.231 246.437C121.203 246.436 119.175 246.435 117.148 246.435C114.678 246.435 112.209 246.434 109.74 246.431C108.479 246.43 107.218 246.429 105.957 246.429C104.804 246.43 103.651 246.429 102.499 246.426C102.08 246.426 101.662 246.426 101.243 246.426C100.677 246.427 100.111 246.426 99.5454 246.424C99.2302 246.424 98.915 246.424 98.5902 246.423C97.8515 246.386 97.8515 246.386 97.2656 246.093C97.2432 244.175 97.2279 242.257 97.2173 240.339C97.2129 239.687 97.2069 239.036 97.1993 238.384C97.1886 237.444 97.1836 236.505 97.1798 235.565C97.1752 235.276 97.1707 234.987 97.166 234.689C97.1655 232.578 97.4986 231.009 98.6389 229.193C99.7556 228.076 101.04 227.257 102.539 226.758C102.553 226.396 102.568 226.035 102.583 225.663C102.977 216.553 102.977 216.553 106.12 213.162C108.588 210.949 111.567 210.026 114.844 210.058C114.839 209.769 114.835 209.479 114.83 209.181C114.814 208.098 114.804 207.015 114.795 205.931C114.791 205.464 114.785 204.997 114.777 204.53C114.767 203.855 114.762 203.18 114.758 202.505C114.753 202.299 114.749 202.094 114.744 201.882C114.744 200.017 115.234 198.513 116.254 196.93C117.684 195.499 119.273 195.131 121.234 195.099C121.542 195.105 121.85 195.111 122.168 195.117C122.274 194.823 122.274 194.823 122.383 194.524C122.67 193.85 122.967 193.249 123.326 192.615C128.995 182.592 129.797 170.364 130.371 159.082C130.17 159.082 129.969 159.083 129.761 159.084C127.675 159.09 125.589 159.095 123.503 159.098C122.723 159.099 121.944 159.101 121.164 159.104C120.047 159.107 118.929 159.109 117.811 159.11C117.46 159.112 117.109 159.113 116.748 159.115C116.264 159.115 116.264 159.115 115.77 159.115C115.485 159.116 115.199 159.116 114.905 159.117C114.258 159.082 114.258 159.082 113.965 158.789C113.185 151.467 116.867 144.094 121.289 138.574C121.446 138.375 121.603 138.176 121.765 137.971C122.695 136.836 123.733 135.881 124.854 134.935C126.027 133.924 126.488 133.354 126.614 131.776C126.701 128.366 126.575 125.266 125.647 121.973C125.391 120.996 125.391 120.996 125.391 119.824C125.101 119.727 124.811 119.631 124.512 119.531C124.262 118.77 124.262 118.77 124.036 117.755C123.579 116.02 122.957 114.622 122.04 113.086C118.34 106.847 117.441 99.593 119.228 92.5709C120.75 87.1333 123.586 82.6063 127.441 78.5153C127.684 78.2445 127.684 78.2445 127.931 77.9683C131.311 74.338 136.684 71.434 141.504 70.3122C142.334 70.2847 142.334 70.2847 142.969 70.3122C142.855 70.177 142.742 70.0418 142.625 69.9025C140.41 67.1282 139.656 64.4501 139.958 60.9216C140.365 58.0419 141.991 55.7335 144.232 53.9792C147.431 51.8675 151.703 51.6992 155.004 53.6873ZM145.642 59.1611C144.438 60.8959 144.176 62.3604 144.434 64.4528C145.003 66.2539 145.929 67.3326 147.582 68.2534C149.25 69.0287 150.635 68.8692 152.344 68.2614C153.825 67.556 154.718 66.5914 155.374 65.0902C155.841 63.5439 155.701 62.2411 155.218 60.7175C154.211 58.9116 152.835 57.7805 150.879 57.1286C148.753 56.9202 147.054 57.5537 145.642 59.1611ZM132.129 80.5661C131.796 80.8363 131.796 80.8363 131.456 81.112C126.679 85.0903 123.765 91.1402 123.047 97.2653C122.689 103.699 124.532 108.845 128.006 114.169C128.613 115.136 128.613 115.136 128.906 116.015C134.315 116.036 139.724 116.051 145.133 116.061C147.645 116.065 150.156 116.072 152.667 116.082C154.856 116.09 157.044 116.096 159.233 116.098C160.392 116.099 161.551 116.102 162.71 116.108C163.801 116.114 164.891 116.116 165.982 116.115C166.574 116.115 167.166 116.12 167.758 116.125C168.11 116.123 168.461 116.122 168.823 116.121C169.282 116.122 169.282 116.122 169.75 116.123C170.62 115.999 170.861 115.822 171.387 115.136C175.65 109.144 177.723 102.624 176.816 95.274C175.783 89.8386 173.198 85.3737 169.336 81.445C169.135 81.2403 168.934 81.0356 168.727 80.8247C163.698 76.038 156.61 73.9824 149.8 74.0773C143.253 74.2569 137.104 76.1913 132.129 80.5661ZM130.371 120.996C130.75 123.28 130.75 123.28 131.138 125.562C131.292 126.935 131.293 128.294 131.287 129.675C131.286 129.959 131.285 130.242 131.285 130.535C131.272 132.64 131.178 134.721 130.957 136.816C130.745 136.89 130.533 136.965 130.314 137.042C125.163 139.301 121.825 145.001 119.824 150C119.369 151.362 118.945 152.658 118.945 154.101C139.441 154.101 159.937 154.101 181.055 154.101C180.223 150.403 180.223 150.403 178.821 147.015C178.721 146.824 178.621 146.632 178.518 146.435C176.625 142.933 173.727 138.997 169.988 137.333C168.936 136.499 168.959 135.425 168.805 134.143C168.77 133.903 168.734 133.664 168.698 133.417C168.357 130.953 168.407 128.586 168.713 126.123C168.736 125.919 168.759 125.716 168.783 125.506C168.969 123.96 169.287 122.533 169.629 120.996C156.674 120.996 143.719 120.996 130.371 120.996ZM135.059 159.082C134.769 163.046 134.478 167.009 134.18 171.093C132.918 179.756 131.143 187.185 127.441 195.117C142.427 195.117 157.412 195.117 172.852 195.117C171.981 193.28 171.111 191.443 170.215 189.55C166.517 179.763 165.805 169.442 164.941 159.082C155.08 159.082 145.219 159.082 135.059 159.082ZM119.824 200.097C118.339 203.068 119.531 206.737 119.531 210.058C139.544 210.058 159.557 210.058 180.176 210.058C180.176 206.771 180.176 203.484 180.176 200.097C160.26 200.097 140.344 200.097 119.824 200.097ZM109.003 217.09C107.516 219.252 107.476 221.227 107.501 223.791C107.503 224.049 107.504 224.306 107.505 224.572C107.509 225.203 107.514 225.834 107.52 226.465C109.553 226.73 111.537 226.799 113.586 226.795C113.923 226.795 114.26 226.796 114.607 226.796C115.732 226.797 116.856 226.796 117.981 226.795C118.789 226.796 119.597 226.796 120.405 226.797C122.369 226.798 124.333 226.798 126.297 226.797C127.892 226.796 129.487 226.796 131.082 226.797C131.309 226.797 131.536 226.797 131.77 226.797C132.232 226.797 132.694 226.797 133.155 226.797C137.479 226.798 141.802 226.797 146.125 226.795C149.838 226.794 153.55 226.794 157.263 226.796C161.574 226.797 165.886 226.798 170.198 226.797C170.657 226.797 171.116 226.797 171.576 226.797C171.801 226.797 172.027 226.797 172.26 226.797C173.855 226.796 175.45 226.797 177.045 226.797C178.986 226.798 180.927 226.798 182.868 226.796C183.859 226.796 184.85 226.795 185.841 226.796C186.912 226.797 187.984 226.796 189.056 226.795C189.531 226.796 189.531 226.796 190.015 226.797C190.3 226.796 190.584 226.795 190.878 226.794C191.125 226.794 191.373 226.794 191.628 226.794C192.19 226.819 192.19 226.819 192.48 226.465C192.77 221.151 192.77 221.151 190.701 216.413C188.997 214.917 187.143 214.912 184.988 214.925C184.525 214.923 184.525 214.923 184.052 214.92C183.02 214.916 181.988 214.918 180.956 214.92C180.216 214.919 179.475 214.917 178.734 214.914C176.932 214.91 175.13 214.909 173.328 214.911C171.863 214.912 170.398 214.911 168.933 214.91C168.724 214.91 168.515 214.909 168.3 214.909C167.876 214.909 167.452 214.908 167.028 214.908C163.053 214.904 159.078 214.905 155.103 214.909C151.469 214.912 147.836 214.908 144.202 214.901C140.468 214.894 136.734 214.891 133 214.893C130.905 214.894 128.809 214.893 126.714 214.888C124.744 214.883 122.774 214.885 120.803 214.89C120.08 214.891 119.358 214.89 118.635 214.887C117.648 214.883 116.66 214.887 115.673 214.892C115.388 214.889 115.103 214.886 114.809 214.883C112.595 214.907 110.51 215.352 109.003 217.09ZM101.953 232.91C101.953 235.714 101.953 238.517 101.953 241.406C133.664 241.406 165.375 241.406 198.047 241.406C198.047 238.506 198.047 235.605 198.047 232.617C196.837 231.709 196.671 231.628 195.27 231.627C194.942 231.624 194.614 231.622 194.275 231.619C193.915 231.621 193.554 231.623 193.183 231.624C192.8 231.623 192.417 231.621 192.022 231.62C190.958 231.615 189.894 231.617 188.83 231.619C187.683 231.62 186.536 231.616 185.389 231.613C183.141 231.608 180.894 231.608 178.646 231.61C176.82 231.611 174.994 231.611 173.167 231.609C172.908 231.609 172.648 231.609 172.38 231.608C171.853 231.608 171.325 231.607 170.798 231.607C165.849 231.603 160.899 231.605 155.95 231.608C151.419 231.611 146.888 231.607 142.358 231.6C137.708 231.593 133.059 231.59 128.409 231.592C125.798 231.593 123.187 231.592 120.575 231.587C118.352 231.583 116.13 231.583 113.907 231.588C112.772 231.59 111.637 231.591 110.503 231.586C109.274 231.582 108.046 231.586 106.817 231.591C106.457 231.588 106.096 231.585 105.725 231.583C105.396 231.585 105.068 231.588 104.73 231.591C104.446 231.591 104.163 231.591 103.87 231.591C102.943 231.702 102.943 231.702 101.953 232.91Z" fill="black"/>
</svg>
