<svg width="300" height="300" viewBox="0 0 300 300" fill="none" xmlns="http://www.w3.org/2000/svg">
<path d="M140.625 42.6278C124.775 45.4403 111.035 54.4051 102.89 67.2665C98.7594 73.7118 96.152 81.0067 94.7457 89.7958C94.6578 90.4403 94.5113 98.3798 94.4234 107.462C94.3356 120.001 94.3649 124.073 94.6285 124.395C95.068 124.893 96.7086 124.952 97.2066 124.454C97.4703 124.19 97.5582 120.147 97.5582 108.106C97.5582 99.288 97.6754 91.3778 97.8219 90.4989C97.9977 89.62 98.2027 88.2723 98.2906 87.452C98.7301 83.8778 100.634 78.1942 102.949 73.5067C110.42 58.5067 125.273 48.0477 142.675 45.5868C146.689 45.0009 155.039 45.1473 159.375 45.8798C168.017 47.286 177.714 51.6512 184.277 57.0712C192.451 63.8094 198.046 72.5399 200.83 82.8524C202.705 89.7958 202.793 91.0555 202.939 108.487L203.086 124.249L203.759 124.688C204.14 124.952 204.814 125.099 205.283 125.04L206.103 124.952V111.036C206.103 101.573 205.986 95.8602 205.722 93.1649C204.199 78.077 199.043 66.7977 189.199 57.2469C183.076 51.2704 174.023 46.1727 165.556 43.9169C160.195 42.5106 157.382 42.1298 150.879 42.0126C145.254 41.9247 144.17 42.0126 140.625 42.6278Z" fill="black"/>
<path d="M142.822 50.6846C137.695 51.3877 132.188 53.1162 127.412 55.5185C122.461 58.0088 118.945 60.6455 114.902 64.8935C108.428 71.749 104.795 79.2197 103.096 89.2393C102.773 91.2314 102.686 124.337 103.008 124.864C103.272 125.274 112.383 125.157 112.734 124.718C112.939 124.483 113.086 118.741 113.174 107.813C113.232 98.7021 113.379 90.7334 113.496 90.0889C115.518 78.3994 122.022 69.376 132.041 64.3662C137.754 61.4951 141.68 60.499 148.828 60.1767C164.883 59.3857 179.443 68.5264 184.57 82.5889C186.68 88.3896 186.856 90.2646 186.885 108.37C186.914 118.272 187.031 124.19 187.236 124.542C187.5 125.04 187.91 125.099 192.451 125.099C196.699 125.099 197.432 125.04 197.578 124.63C197.666 124.366 197.754 117.657 197.754 109.688C197.754 93.6631 197.52 90.1475 195.996 84.2295C193.828 75.8213 190.459 69.9912 184.16 63.7217C177.92 57.5107 170.332 53.4385 161.279 51.3584C158.467 50.7139 157.236 50.626 151.318 50.5381C147.627 50.4795 143.789 50.5381 142.822 50.6846Z" fill="black"/>
<path d="M84.6094 131.25C80.3613 131.396 79.9805 131.455 79.3066 132.07C78.9258 132.422 78.457 133.242 78.252 133.857C78.0176 134.678 77.9297 149.18 77.9297 188.994C77.959 248.701 77.8125 244.57 79.8633 248.701C82.1484 253.359 86.6895 256.67 92.3438 257.842C94.9805 258.369 97.1484 258.398 157.09 258.398C211.846 258.398 219.258 258.34 220.225 257.959C222.393 257.08 222.217 262.178 222.305 201.211C222.363 146.66 222.363 146.191 221.777 143.965C220.869 140.596 219.639 138.398 217.266 136.055C214.863 133.682 211.934 132.07 208.887 131.455C207.363 131.133 195.381 131.074 148.096 131.074C115.723 131.074 87.1289 131.162 84.6094 131.25ZM211.055 135.762C213.691 136.875 216.709 139.775 217.881 142.266L218.701 143.994V197.754V251.514L217.822 251.953C217.031 252.334 209.561 252.393 153.369 252.393H89.7949L88.125 251.602C84.7852 250.049 82.2363 246.826 81.4746 243.223C81.123 241.494 80.9766 135.322 81.3574 134.971C81.4453 134.854 110.244 134.795 145.283 134.824L209.033 134.912L211.055 135.762Z" fill="black"/>
<path d="M87.0117 191.543C87.0117 240.82 87.041 242.783 87.5684 243.75C87.8613 244.307 88.6523 245.215 89.3262 245.742L90.5859 246.68H151.787H212.988L212.93 195.439L212.842 144.199L211.934 143.057C211.465 142.441 210.352 141.592 209.473 141.123L207.891 140.332H147.451H87.0117V191.543ZM152.9 164.648C155.156 165.059 157.441 166.289 159.404 168.076C165.088 173.35 165.645 181.846 160.664 187.822C159.639 189.053 157.148 191.133 156.387 191.367C156.035 191.484 156.182 192.686 157.207 198.486C157.881 202.236 159.668 213.486 160.02 216.152C160.313 218.408 160.313 218.643 159.756 219.375L159.17 220.166L150.234 220.254L141.328 220.312L140.654 219.609C139.6 218.496 139.453 219.697 142.822 199.893C143.555 195.645 144.141 192.07 144.141 191.924C144.141 191.777 143.643 191.338 143.057 190.986C140.01 189.111 137.637 185.977 136.553 182.402C133.975 173.965 140.713 164.443 149.297 164.385C150.439 164.355 152.051 164.473 152.9 164.648Z" fill="black"/>
</svg>
