<svg width="300" height="300" viewBox="0 0 300 300" fill="none" xmlns="http://www.w3.org/2000/svg">
<path d="M109.972 67.119C111.787 67.1292 113.602 67.1375 115.417 67.146C118.839 67.1623 122.261 67.1803 125.682 67.1989C128.417 67.2138 131.151 67.2278 133.886 67.2412C134.079 67.2422 134.273 67.2432 134.472 67.2441C135.444 67.2489 136.416 67.2537 137.388 67.2584C145.4 67.2977 153.412 67.3393 161.425 67.3825C161.425 68.9294 161.425 70.4763 161.425 72.07C137.932 72.07 114.438 72.07 90.2334 72.07C90.2334 119.926 90.2334 167.783 90.2334 217.09C106.596 217.059 122.959 217.029 139.818 216.998C144.987 216.991 150.155 216.983 155.48 216.976C160.109 216.965 160.109 216.965 164.739 216.953C166.802 216.948 168.865 216.945 170.929 216.944C173.309 216.942 175.69 216.938 178.07 216.93C179.288 216.926 180.505 216.923 181.722 216.924C182.825 216.925 183.927 216.922 185.03 216.916C185.614 216.913 186.198 216.915 186.782 216.918C190.864 216.886 194.336 216.038 197.387 213.208C200.565 209.782 201.113 205.917 201.075 201.392C201.075 200.976 201.075 200.56 201.076 200.144C201.076 199.025 201.071 197.907 201.065 196.788C201.059 195.615 201.059 194.442 201.058 193.269C201.055 191.053 201.048 188.837 201.039 186.621C201.029 184.096 201.024 181.571 201.02 179.046C201.011 173.856 200.995 168.666 200.976 163.476C200.76 163.712 200.545 163.948 200.324 164.192C200.035 164.507 199.747 164.823 199.459 165.138C199.318 165.293 199.177 165.448 199.031 165.608C197.668 167.098 196.245 168.523 194.805 169.94C194.319 170.419 193.833 170.898 193.348 171.378C193.034 171.688 193.034 171.688 192.713 172.003C192.136 172.58 192.136 172.58 191.601 173.437C191.407 173.437 191.214 173.437 191.015 173.437C190.935 173.612 190.855 173.788 190.773 173.968C190.437 174.593 190.116 174.991 189.615 175.485C189.451 175.647 189.288 175.81 189.12 175.977C188.943 176.15 188.767 176.322 188.585 176.5C188.311 176.772 188.311 176.772 188.031 177.049C187.446 177.629 186.859 178.206 186.272 178.784C185.691 179.357 185.11 179.931 184.529 180.506C184.169 180.863 183.808 181.219 183.445 181.574C182.567 182.443 181.727 183.328 180.92 184.264C179.879 185.469 178.771 186.592 177.639 187.71C177.329 188.019 177.329 188.019 177.012 188.334C176.138 189.203 175.262 190.071 174.387 190.938C173.743 191.577 173.1 192.216 172.457 192.856C172.262 193.048 172.068 193.24 171.868 193.437C170.926 194.374 170.031 195.322 169.176 196.339C167.481 198.285 165.795 199.147 163.335 199.852C163.067 199.933 162.799 200.013 162.523 200.096C161.651 200.356 160.778 200.611 159.905 200.866C159.302 201.046 158.698 201.225 158.095 201.406C156.871 201.771 155.646 202.135 154.421 202.497C152.03 203.205 149.645 203.934 147.261 204.666C146.585 204.873 145.909 205.08 145.233 205.286C143.216 205.897 143.216 205.897 141.21 206.543C139.749 206.651 138.852 206.596 137.694 205.664C135.913 203.171 136.891 199.703 137.361 196.872C137.418 196.519 137.474 196.166 137.532 195.802C137.712 194.682 137.895 193.563 138.079 192.444C138.199 191.7 138.318 190.956 138.438 190.212C138.668 188.78 138.901 187.35 139.137 185.919C139.332 184.735 139.519 183.55 139.693 182.363C139.729 182.123 139.766 181.883 139.803 181.636C139.867 181.211 139.928 180.786 139.985 180.361C140.335 178.097 141.345 176.393 142.913 174.756C143.049 174.612 143.184 174.468 143.324 174.32C143.624 174.003 143.925 173.688 144.226 173.373C144.973 172.593 145.711 171.806 146.45 171.018C146.83 170.614 147.211 170.21 147.592 169.807C148.409 168.941 149.202 168.074 149.946 167.145C150.157 166.901 150.368 166.657 150.585 166.406C150.778 166.406 150.972 166.406 151.171 166.406C151.248 166.233 151.324 166.061 151.403 165.883C151.776 165.2 152.168 164.764 152.727 164.227C152.895 164.064 153.063 163.901 153.237 163.734C153.425 163.552 153.613 163.37 153.808 163.183C154.758 162.249 155.675 161.291 156.577 160.31C158.655 158.052 160.802 155.873 162.989 153.72C164.213 152.51 165.378 151.276 166.5 149.97C167.305 149.059 168.173 148.214 169.042 147.363C170.289 146.131 171.492 144.89 172.625 143.551C173.436 142.64 174.312 141.794 175.18 140.938C176.132 139.994 177.018 139.015 177.887 137.996C178.525 137.281 179.2 136.611 179.882 135.937C180.735 135.095 181.559 134.25 182.335 133.337C183.356 132.143 184.463 131.046 185.587 129.95C186.382 129.168 187.133 128.368 187.858 127.521C189.162 126.013 190.584 124.628 192.003 123.23C192.531 122.709 193.059 122.188 193.585 121.666C193.931 121.325 193.931 121.325 194.285 120.977C194.84 120.447 194.84 120.447 195.116 119.824C195.31 119.824 195.503 119.824 195.702 119.824C195.771 119.655 195.839 119.487 195.909 119.314C196.379 118.493 196.926 118.036 197.661 117.444C198.026 117.143 198.026 117.143 198.397 116.837C199.33 116.236 200.202 116.007 201.269 115.722C201.258 111.548 201.24 107.374 201.215 103.2C201.203 101.261 201.194 99.3226 201.189 97.384C201.185 95.5109 201.175 93.638 201.161 91.765C201.156 91.0527 201.154 90.3403 201.154 89.628C201.149 82.2738 201.149 82.2738 197.429 76.1166C194.341 73.2256 190.868 72.2966 186.71 72.1808C185.214 72.1287 185.214 72.1287 184.569 71.4841C184.512 70.5296 184.512 70.5296 184.533 69.3967C184.538 69.0213 184.543 68.6459 184.549 68.2591C184.559 67.8252 184.559 67.8252 184.569 67.3825C189.713 66.6278 194.497 67.6465 198.826 70.5411C202.776 73.5249 205.454 77.7081 206.249 82.6169C206.472 85.1343 206.427 87.6702 206.428 90.1952C206.432 90.925 206.437 91.6548 206.442 92.3846C206.455 94.2928 206.461 96.2009 206.465 98.1091C206.471 100.061 206.483 102.014 206.495 103.966C206.517 107.787 206.532 111.608 206.542 115.429C206.958 115.567 206.958 115.567 207.383 115.708C209.415 116.389 210.715 117.134 212.075 118.807C212.868 119.734 213.729 120.58 214.599 121.435C215.609 122.434 216.609 123.426 217.528 124.511C218.899 126.128 220.438 127.592 221.945 129.08C222.083 129.216 222.221 129.352 222.362 129.492C222.518 129.641 222.673 129.79 222.833 129.944C224.112 131.283 223.944 133.116 223.932 134.845C223.846 138.259 222.945 140.728 220.471 143.117C219.724 143.839 218.993 144.578 218.259 145.314C217.856 145.717 217.451 146.119 217.045 146.518C216.095 147.454 215.178 148.401 214.308 149.411C213.062 150.858 211.701 152.179 210.339 153.515C210.144 153.709 209.948 153.902 209.746 154.101C209.487 154.355 209.487 154.355 209.223 154.614C208.911 154.94 208.911 154.94 208.593 155.273C208.427 155.41 208.262 155.547 208.091 155.688C206.767 156.921 206.393 157.89 206.29 159.695C206.274 160.54 206.284 161.383 206.296 162.228C206.295 162.695 206.294 163.163 206.291 163.63C206.287 164.632 206.29 165.635 206.298 166.637C206.31 168.226 206.308 169.815 206.304 171.404C206.299 173.92 206.304 176.437 206.314 178.953C206.33 183.451 206.332 187.949 206.327 192.447C206.326 194.023 206.329 195.598 206.337 197.174C206.342 198.16 206.342 199.145 206.342 200.13C206.343 200.583 206.345 201.036 206.349 201.489C206.373 204.372 206.09 206.97 205.37 209.765C204.896 211.683 204.71 213.447 204.674 215.423C204.593 217.813 204.335 219.873 203.319 222.07C203.217 222.299 203.115 222.528 203.009 222.764C200.938 226.906 197.36 229.407 193.065 230.859C190.743 231.505 188.516 231.529 186.118 231.523C185.682 231.524 185.246 231.526 184.81 231.527C183.616 231.531 182.422 231.531 181.229 231.53C179.939 231.53 178.65 231.533 177.361 231.536C174.837 231.541 172.313 231.543 169.789 231.543C167.737 231.543 165.685 231.544 163.633 231.546C157.812 231.551 151.991 231.554 146.171 231.554C145.7 231.554 145.7 231.554 145.221 231.554C144.907 231.554 144.593 231.554 144.269 231.554C139.18 231.553 134.091 231.559 129.002 231.567C123.773 231.576 118.545 231.58 113.316 231.579C110.382 231.579 107.448 231.581 104.514 231.587C102.016 231.592 99.5181 231.593 97.0202 231.589C95.7464 231.588 94.4728 231.587 93.199 231.593C92.0316 231.597 90.8642 231.596 89.6968 231.591C89.2759 231.59 88.855 231.591 88.4341 231.595C84.5535 231.623 81.5498 230.844 78.6428 228.186C75.83 225.157 75.9619 222.089 75.9869 218.171C75.9854 217.561 75.9833 216.95 75.9806 216.339C75.975 214.665 75.9786 212.99 75.9837 211.316C75.9876 209.508 75.9831 207.701 75.9797 205.894C75.9746 202.559 75.9762 199.224 75.9811 195.889C75.9857 192.808 75.9874 189.728 75.9863 186.647C75.9862 186.442 75.9862 186.238 75.9861 186.027C75.9858 185.197 75.9855 184.367 75.9852 183.537C75.9822 175.752 75.9876 167.968 75.9968 160.183C76.005 153.27 76.0064 146.356 76.002 139.442C76.0009 137.672 75.9998 135.901 75.9988 134.131C75.9986 133.913 75.9985 133.695 75.9984 133.47C75.9951 127.691 75.9972 121.911 76.0011 116.131C76.0015 115.509 76.0019 114.887 76.0023 114.265C76.0025 113.853 76.0028 113.44 76.0031 113.027C76.0051 109.949 76.0043 106.87 76.0022 103.791C75.9999 100.29 76.0019 96.7891 76.0093 93.288C76.013 91.5017 76.0148 89.7154 76.0115 87.929C76.0086 86.2936 76.011 84.6582 76.0178 83.0228C76.0193 82.4313 76.0189 81.8399 76.0162 81.2485C75.9993 77.1094 76.2172 74.1175 79.2127 70.9943C82.5054 68.0653 86.2173 67.2617 90.5076 67.1789C91.0864 67.1641 91.0864 67.1641 91.677 67.1491C97.7734 67.0095 103.875 67.0834 109.972 67.119ZM83.2022 74.0109C83.0028 74.1537 82.8034 74.2964 82.5979 74.4435C81.6474 75.3749 81.1968 76.3605 81.0457 77.6807C81.0476 78.0099 81.0496 78.3391 81.0516 78.6783C81.0517 79.0535 81.0517 79.4288 81.0518 79.8154C81.0563 80.2205 81.0609 80.6256 81.0655 81.0307C81.0672 81.4486 81.0684 81.8665 81.0693 82.2843C81.0727 83.3796 81.0813 84.4748 81.091 85.57C81.1 86.6894 81.104 87.8089 81.1085 88.9283C81.1179 91.1214 81.1333 93.3144 81.1514 95.5075C82.5049 95.5075 83.8584 95.5075 85.2529 95.5075C85.2529 88.1599 85.2529 80.8122 85.2529 73.2419C84.2362 73.2419 84.0011 73.4208 83.2022 74.0109ZM81.1514 100.488C81.1514 133.842 81.1514 167.197 81.1514 201.562C82.5049 201.562 83.8584 201.562 85.2529 201.562C85.2529 168.304 85.2529 135.047 85.2529 100.781C84.027 100.168 82.522 100.488 81.1514 100.488ZM199.218 122.461C200.931 124.548 202.857 126.413 204.777 128.307C206.311 129.822 207.818 131.34 209.221 132.98C210.306 134.203 211.469 135.352 212.625 136.508C213.065 136.949 213.504 137.393 213.942 137.836C214.223 138.119 214.505 138.401 214.786 138.683C215.039 138.936 215.291 139.19 215.551 139.451C216.186 140.095 216.186 140.095 217.089 140.332C217.318 140.078 217.548 139.824 217.785 139.563C217.914 139.42 218.043 139.277 218.176 139.13C219.495 137.187 219.505 134.659 219.14 132.422C218.459 131.146 217.547 130.231 216.508 129.237C216.236 128.963 215.965 128.69 215.685 128.408C215.114 127.834 214.535 127.268 213.95 126.708C213.206 125.993 212.48 125.262 211.758 124.524C211.061 123.815 210.351 123.121 209.641 122.425C209.384 122.163 209.126 121.902 208.861 121.632C207.487 120.334 206.582 119.666 204.651 119.641C202.272 119.804 200.923 120.917 199.218 122.461ZM195.199 126.38C194.93 126.656 194.93 126.656 194.655 126.938C194.362 127.235 194.362 127.235 194.063 127.538C193.759 127.853 193.759 127.853 193.45 128.174C193.244 128.383 193.039 128.593 192.827 128.809C192.318 129.327 191.812 129.848 191.308 130.371C191.72 131.655 192.328 132.371 193.289 133.306C193.426 133.442 193.563 133.577 193.705 133.717C194.143 134.148 194.583 134.576 195.025 135.003C195.601 135.566 196.175 136.129 196.749 136.694C196.89 136.832 197.031 136.97 197.176 137.113C198.105 138.032 198.969 138.987 199.818 139.98C201.024 141.341 202.312 142.625 203.593 143.915C203.926 144.251 204.257 144.588 204.587 144.926C205.069 145.421 205.554 145.911 206.041 146.401C206.187 146.552 206.333 146.703 206.484 146.859C207.115 147.487 207.649 147.923 208.482 148.25C209.195 148.304 209.195 148.304 209.748 147.872C209.925 147.686 210.101 147.5 210.283 147.309C210.477 147.11 210.67 146.911 210.87 146.706C211.067 146.493 211.264 146.281 211.468 146.063C211.671 145.852 211.874 145.641 212.083 145.424C212.584 144.902 213.08 144.377 213.573 143.847C212.63 142.292 211.475 141.091 210.18 139.821C209.965 139.608 209.751 139.395 209.53 139.176C208.847 138.498 208.161 137.822 207.476 137.146C206.794 136.472 206.112 135.797 205.431 135.122C205.009 134.703 204.586 134.285 204.161 133.868C203.007 132.725 201.91 131.552 200.854 130.319C200.075 129.423 199.247 128.577 198.412 127.734C198.247 127.563 198.082 127.392 197.912 127.216C197.485 126.785 197.035 126.378 196.581 125.976C195.709 125.885 195.709 125.885 195.199 126.38ZM187.206 134.765C187.206 134.959 187.206 135.152 187.206 135.351C186.916 135.448 186.626 135.545 186.327 135.644C185.79 136.157 185.79 136.157 185.448 136.816C185.554 137.937 186.116 138.471 186.894 139.245C187.138 139.49 187.383 139.736 187.635 139.989C187.902 140.252 188.168 140.515 188.443 140.786C188.717 141.059 188.99 141.332 189.272 141.614C189.853 142.192 190.434 142.77 191.017 143.346C191.758 144.079 192.496 144.814 193.234 145.55C193.943 146.258 194.654 146.964 195.365 147.671C195.627 147.932 195.89 148.193 196.16 148.463C197.624 149.91 199.115 151.303 200.683 152.636C200.978 152.89 200.978 152.89 201.28 153.15C201.764 153.565 202.248 153.98 202.733 154.394C204.001 153.824 204.575 153.186 205.37 152.05C205.306 150.92 204.674 150.375 203.887 149.615C203.672 149.405 203.457 149.194 203.236 148.978C202.63 148.418 202.018 147.879 201.392 147.343C199.971 146.102 198.65 144.77 197.325 143.427C196.801 142.9 196.277 142.373 195.754 141.845C194.935 141.02 194.117 140.193 193.3 139.366C192.507 138.564 191.712 137.764 190.916 136.964C190.67 136.714 190.424 136.464 190.171 136.206C189.944 135.978 189.717 135.75 189.483 135.516C189.283 135.314 189.083 135.112 188.878 134.903C188.203 134.322 187.99 134.373 187.206 134.765ZM180.795 141.365C180.592 141.571 180.389 141.777 180.179 141.989C179.841 142.33 179.841 142.33 179.495 142.678C179.26 142.919 179.025 143.16 178.783 143.408C178.553 143.64 178.322 143.872 178.085 144.111C177.038 145.171 176.015 146.242 175.043 147.372C173.685 148.949 172.187 150.384 170.704 151.842C169.674 152.861 168.668 153.882 167.724 154.98C166.365 156.561 164.865 157.999 163.379 159.459C162.35 160.478 161.344 161.499 160.399 162.597C159.041 164.178 157.541 165.616 156.055 167.077C155.031 168.09 154.03 169.105 153.092 170.2C151.625 171.908 149.981 173.448 148.362 175.011C148.12 175.249 147.878 175.487 147.629 175.732C147.299 176.052 147.299 176.052 146.962 176.379C146.39 176.941 146.39 176.941 146.483 177.832C147.087 177.988 147.691 178.14 148.296 178.289C148.633 178.374 148.969 178.459 149.316 178.547C150.49 178.744 151.272 178.736 152.279 178.074C153.554 176.904 154.794 175.7 156.023 174.481C156.178 174.327 156.334 174.173 156.494 174.015C157.331 173.173 158.131 172.312 158.906 171.413C160.163 169.96 161.531 168.629 162.901 167.285C164.05 166.149 165.133 164.984 166.187 163.76C167.217 162.598 168.342 161.528 169.451 160.442C170.373 159.531 171.262 158.609 172.109 157.626C173.358 156.178 174.72 154.854 176.085 153.515C177.047 152.564 177.978 151.606 178.86 150.58C180.077 149.166 181.415 147.884 182.763 146.596C184.115 145.276 184.115 145.276 184.862 143.554C184.444 143.112 184.022 142.673 183.599 142.236C183.364 141.991 183.13 141.747 182.888 141.494C182.063 140.776 181.668 140.657 180.795 141.365ZM187.049 147.72C186.836 147.921 186.623 148.122 186.403 148.329C186.179 148.542 185.954 148.755 185.723 148.974C185.506 149.178 185.29 149.382 185.067 149.592C182.356 152.135 182.356 152.135 179.845 154.87C178.841 156.041 177.755 157.119 176.659 158.203C175.073 159.769 175.073 159.769 173.583 161.425C172.455 162.761 171.196 163.966 169.954 165.195C169.081 166.063 168.226 166.93 167.431 167.871C166.303 169.206 165.044 170.411 163.803 171.639C162.752 172.684 161.752 173.747 160.797 174.881C159.891 175.892 158.912 176.83 157.934 177.77C156.96 178.721 156.222 179.46 156.085 180.846C156.088 181.086 156.091 181.325 156.094 181.572C156.096 181.832 156.098 182.093 156.1 182.361C156.105 182.631 156.11 182.901 156.115 183.178C156.117 183.453 156.12 183.727 156.123 184.009C156.13 184.685 156.139 185.36 156.151 186.035C158.538 186.692 158.538 186.692 160.903 186.347C161.528 185.797 162.051 185.2 162.597 184.57C162.921 184.244 163.248 183.921 163.577 183.601C165.001 182.212 166.405 180.821 167.704 179.314C168.958 177.864 170.323 176.536 171.69 175.195C172.65 174.246 173.58 173.289 174.462 172.265C175.707 170.82 177.067 169.499 178.428 168.164C179.386 167.218 180.313 166.264 181.191 165.243C182.497 163.727 183.929 162.345 185.356 160.944C186.541 159.771 187.662 158.57 188.749 157.306C189.771 156.163 190.904 155.125 192.026 154.083C192.203 153.912 192.38 153.742 192.562 153.566C192.802 153.34 192.802 153.34 193.048 153.109C193.416 152.651 193.416 152.651 193.327 152.064C193.003 151.322 192.598 150.893 192.022 150.325C191.708 150.013 191.708 150.013 191.388 149.695C191.168 149.482 190.948 149.268 190.722 149.048C190.502 148.829 190.282 148.611 190.056 148.386C188.615 146.687 188.615 146.687 187.049 147.72ZM195.461 155.929C195.142 156.246 194.827 156.568 194.515 156.892C194.346 157.063 194.177 157.233 194.003 157.409C193.461 157.957 192.925 158.51 192.388 159.063C192.03 159.426 191.671 159.789 191.313 160.151C189.771 161.714 188.261 163.288 186.835 164.958C185.449 166.511 183.924 167.94 182.442 169.401C181.312 170.521 180.193 171.633 179.159 172.842C177.699 174.546 176.071 176.092 174.475 177.667C172.5 179.608 172.5 179.608 170.643 181.66C169.861 182.577 169.024 183.404 168.146 184.23C167.888 184.475 167.63 184.72 167.365 184.972C166.831 185.477 166.293 185.976 165.751 186.471C164.37 187.739 164.37 187.739 163.579 189.386C163.566 190.063 163.627 190.647 163.769 191.308C163.832 191.605 163.895 191.901 163.961 192.207C164.042 192.448 164.124 192.689 164.208 192.938C164.29 193.186 164.371 193.434 164.455 193.69C164.519 193.871 164.582 194.052 164.647 194.238C165.597 193.83 166.131 193.372 166.786 192.577C167.798 191.382 168.871 190.275 169.985 189.175C170.179 188.982 170.373 188.79 170.572 188.591C171.39 187.778 172.21 186.966 173.03 186.155C173.633 185.557 174.235 184.958 174.837 184.359C175.019 184.18 175.201 184.001 175.388 183.816C176.286 182.923 177.149 182.014 177.978 181.054C178.975 179.9 180.032 178.821 181.118 177.749C181.312 177.557 181.505 177.364 181.705 177.165C182.523 176.352 183.343 175.541 184.163 174.729C184.766 174.131 185.368 173.532 185.97 172.934C186.243 172.665 186.243 172.665 186.521 172.391C187.419 171.498 188.28 170.589 189.107 169.63C190.117 168.461 191.195 167.379 192.302 166.303C192.707 165.905 193.111 165.507 193.516 165.108C194.145 164.49 194.774 163.873 195.406 163.259C196.022 162.659 196.634 162.055 197.246 161.451C197.435 161.268 197.624 161.086 197.819 160.898C198.855 159.869 199.471 159.085 199.804 157.617C199.44 157.279 199.073 156.944 198.705 156.61C198.501 156.423 198.297 156.236 198.087 156.043C196.979 155.2 196.622 155.008 195.461 155.929ZM144.14 182.812C143.949 183.53 143.949 183.53 143.831 184.414C143.778 184.756 143.726 185.098 143.671 185.451C143.617 185.824 143.562 186.197 143.506 186.581C143.448 186.961 143.39 187.342 143.331 187.734C143.209 188.541 143.088 189.348 142.969 190.155C142.816 191.189 142.661 192.222 142.504 193.255C142.355 194.241 142.207 195.226 142.059 196.212C142.003 196.583 141.947 196.954 141.89 197.337C141.839 197.682 141.788 198.027 141.736 198.382C141.691 198.686 141.646 198.989 141.599 199.302C141.479 200.158 141.479 200.158 141.503 201.269C143.555 201.093 145.415 200.554 147.377 199.943C147.876 199.79 147.876 199.789 148.385 199.633C149.085 199.418 149.785 199.201 150.484 198.984C151.556 198.651 152.629 198.321 153.703 197.992C154.384 197.782 155.064 197.572 155.745 197.361C156.066 197.262 156.388 197.164 156.719 197.062C157.016 196.969 157.314 196.877 157.62 196.781C157.882 196.7 158.143 196.619 158.413 196.535C159.147 196.294 159.147 196.294 159.96 195.703C159.877 195.196 159.791 194.689 159.704 194.183C159.632 193.76 159.632 193.76 159.559 193.328C159.498 193.048 159.437 192.768 159.374 192.48C159.331 192.213 159.287 191.946 159.242 191.671C158.857 190.972 158.857 190.972 158.206 190.833C157.43 190.703 156.66 190.614 155.877 190.539C155.343 190.484 154.809 190.425 154.276 190.363C154.039 190.34 153.801 190.317 153.557 190.294C152.808 190.106 152.53 189.852 152.05 189.258C151.622 188.403 151.665 187.59 151.61 186.639C151.528 185.139 151.528 185.139 151.171 183.691C150.625 183.46 150.625 183.46 149.956 183.349C149.709 183.299 149.463 183.249 149.209 183.197C148.95 183.149 148.691 183.1 148.424 183.05C148.039 182.972 148.039 182.972 147.646 182.893C145.865 182.452 145.865 182.452 144.14 182.812ZM81.1514 206.25C81.1182 208.473 81.0914 210.696 81.0755 212.92C81.0678 213.952 81.0575 214.985 81.0409 216.017C81.0218 217.206 81.0148 218.394 81.0083 219.582C81.0008 219.951 80.9932 220.32 80.9854 220.7C80.9349 222.812 80.9349 222.812 81.857 224.634C83.3675 225.966 83.3675 225.966 85.2529 226.465C85.2529 219.794 85.2529 213.123 85.2529 206.25C83.8994 206.25 82.5459 206.25 81.1514 206.25ZM197.844 218.902C193.45 221.707 188.695 222.159 183.584 222.152C183.177 222.153 182.77 222.155 182.362 222.157C181.256 222.161 180.15 222.162 179.043 222.163C177.845 222.164 176.648 222.168 175.45 222.172C173.379 222.179 171.308 222.183 169.237 222.186C166.242 222.191 163.248 222.198 160.253 222.206C155.394 222.22 150.535 222.23 145.676 222.239C140.958 222.248 136.24 222.258 131.522 222.27C131.231 222.271 130.939 222.271 130.639 222.272C129.178 222.276 127.717 222.279 126.256 222.283C114.151 222.313 102.046 222.34 89.9404 222.363C89.9404 223.813 89.9404 225.263 89.9404 226.758C102.635 226.791 115.329 226.817 128.024 226.832C129.524 226.834 131.023 226.836 132.523 226.838C132.971 226.839 132.971 226.839 133.428 226.839C138.258 226.846 143.088 226.857 147.918 226.871C152.877 226.884 157.835 226.892 162.794 226.895C165.852 226.897 168.91 226.904 171.968 226.916C174.067 226.923 176.166 226.926 178.265 226.924C179.475 226.923 180.684 226.924 181.894 226.932C183.004 226.939 184.114 226.94 185.224 226.935C185.811 226.934 186.397 226.94 186.984 226.947C190.507 226.918 194.205 225.961 196.874 223.535C198.405 221.809 199.18 220.245 199.511 217.968C198.917 217.968 198.309 218.584 197.844 218.902Z" fill="black"/>
<path d="M101.954 90.8208C109.502 90.8071 117.05 90.7967 124.598 90.7904C128.103 90.7874 131.608 90.7832 135.112 90.7765C138.166 90.7707 141.22 90.7669 144.273 90.7656C145.891 90.7649 147.509 90.7631 149.126 90.7588C150.648 90.7548 152.169 90.7536 153.69 90.7545C154.25 90.7543 154.809 90.7531 155.369 90.7509C156.131 90.748 156.892 90.7487 157.654 90.7503C157.877 90.7486 158.1 90.7469 158.33 90.7451C159.427 90.7514 159.904 90.7822 160.841 91.4067C160.953 92.2518 160.953 92.2518 160.955 93.3465C160.957 93.6452 160.957 93.6452 160.959 93.95C160.963 94.6099 160.961 95.2695 160.958 95.9294C160.958 96.3869 160.959 96.8445 160.96 97.302C160.961 98.2616 160.96 99.2211 160.955 100.181C160.95 101.412 160.953 102.644 160.959 103.875C160.962 104.82 160.961 105.765 160.959 106.71C160.958 107.164 160.959 107.618 160.961 108.072C160.963 108.707 160.96 109.341 160.955 109.975C160.954 110.336 160.953 110.697 160.953 111.069C160.916 111.348 160.879 111.627 160.841 111.915C159.754 112.639 158.926 112.582 157.669 112.575C157.433 112.576 157.197 112.577 156.954 112.578C156.16 112.58 155.367 112.578 154.573 112.576C154.006 112.577 153.438 112.578 152.87 112.579C151.326 112.582 149.782 112.581 148.238 112.579C146.624 112.578 145.011 112.579 143.398 112.58C140.688 112.581 137.979 112.58 135.269 112.577C132.133 112.574 128.997 112.575 125.861 112.578C123.172 112.581 120.483 112.581 117.794 112.579C116.186 112.578 114.578 112.578 112.971 112.58C111.46 112.582 109.949 112.581 108.438 112.577C107.882 112.577 107.327 112.577 106.771 112.578C106.015 112.58 105.259 112.578 104.503 112.575C104.281 112.576 104.058 112.577 103.829 112.579C102.314 112.567 102.314 112.567 101.661 111.915C101.576 111.096 101.576 111.096 101.558 110.038C101.555 109.845 101.551 109.653 101.547 109.454C101.535 108.816 101.527 108.179 101.519 107.541C101.512 107.098 101.505 106.655 101.498 106.212C101.483 105.282 101.471 104.353 101.46 103.423C101.445 102.232 101.426 101.042 101.404 99.851C101.389 98.9357 101.376 98.0203 101.364 97.1049C101.358 96.666 101.351 96.227 101.343 95.7881C101.332 95.1738 101.325 94.5595 101.319 93.9451C101.315 93.5956 101.31 93.2461 101.305 92.8859C101.367 92.0046 101.541 91.5788 101.954 90.8208ZM106.642 95.8012C106.642 99.6684 106.642 103.536 106.642 107.52C122.884 107.52 139.126 107.52 155.86 107.52C155.86 103.653 155.86 99.7856 155.86 95.8012C139.618 95.8012 123.376 95.8012 106.642 95.8012Z" fill="black"/>
<path d="M165.525 67.3828C170.456 67.3828 175.387 67.3828 180.467 67.3828C180.473 73.1743 180.479 78.9658 180.482 84.7572C180.483 87.4468 180.485 90.1364 180.489 92.826C180.492 95.1726 180.494 97.5192 180.494 99.8658C180.495 101.106 180.495 102.347 180.498 103.587C180.512 112.506 180.512 112.506 180.355 115.749C180.346 115.956 180.337 116.163 180.328 116.376C180.246 117.701 180.246 117.701 179.588 118.359C179.01 118.434 179.01 118.434 178.293 118.435C177.892 118.438 177.892 118.438 177.482 118.441C177.047 118.439 177.047 118.439 176.603 118.437C176.306 118.438 176.009 118.438 175.703 118.439C175.075 118.439 174.446 118.438 173.818 118.436C172.853 118.433 171.889 118.436 170.925 118.439C170.315 118.439 169.705 118.438 169.096 118.437C168.806 118.438 168.516 118.44 168.217 118.441C167.815 118.438 167.815 118.438 167.405 118.435C167.169 118.435 166.933 118.434 166.689 118.434C166.111 118.359 166.111 118.359 165.525 117.773C165.453 116.914 165.453 116.914 165.455 115.79C165.454 115.584 165.454 115.377 165.453 115.165C165.452 114.47 165.456 113.776 165.459 113.081C165.459 112.585 165.459 112.088 165.458 111.592C165.458 110.241 165.462 108.89 165.466 107.539C165.469 106.128 165.47 104.717 165.471 103.306C165.472 100.634 165.477 97.9609 165.483 95.2881C165.49 92.2458 165.493 89.2035 165.496 86.1612C165.502 79.9018 165.513 73.6423 165.525 67.3828ZM170.506 72.0703C170.506 85.7021 170.506 99.334 170.506 113.379C172.053 113.379 173.599 113.379 175.193 113.379C175.193 99.7471 175.193 86.1152 175.193 72.0703C173.646 72.0703 172.099 72.0703 170.506 72.0703Z" fill="black"/>
<path d="M239.941 115.137C240.135 115.137 240.328 115.137 240.527 115.137C240.431 115.33 240.334 115.523 240.234 115.723C240.138 115.529 240.041 115.336 239.941 115.137Z" fill="black"/>
<path d="M244.336 119.824C244.922 120.117 244.922 120.117 244.922 120.117L244.336 119.824Z" fill="black"/>
</svg>
