<svg width="300" height="300" viewBox="0 0 300 300" fill="none" xmlns="http://www.w3.org/2000/svg">
<path d="M203.965 77.9303C201.416 78.6041 199.512 79.6002 197.256 81.4166C195.439 82.9107 195.381 82.94 176.572 111.328C166.494 126.563 154.336 144.639 153.018 146.367L152.373 147.217L152.314 124.57C152.285 112.149 152.256 101.807 152.227 101.602C152.197 101.104 156.738 98.0865 159.844 96.5631C165.117 93.9849 171.24 92.315 177.539 91.6998C183.047 91.1431 183.369 91.0846 183.838 90.6158C184.453 90.0299 184.307 88.2135 183.633 87.774C182.959 87.3638 176.426 87.9791 171.768 88.9166C164.795 90.2935 157.383 93.2525 152.9 96.4459L150.703 98.0572L149.238 96.7682C142.529 90.8209 131.836 86.3385 120.264 84.6392C117.773 84.2877 86.9531 83.8775 85.6641 84.1998L84.9609 84.3756L84.9023 90.3228L84.8145 96.2408L83.4375 96.4459C79.5117 97.0025 76.6699 98.9654 75.6152 101.836C75 103.418 75 103.682 75 155.83C75 201.944 75.0586 208.389 75.4395 209.502C76.4355 212.285 78.75 214.19 81.8555 214.717C83.1445 214.951 103.506 215.039 150.791 215.039C223.652 215.039 219.258 215.127 221.777 213.457C222.422 213.047 223.301 212.08 223.74 211.319L224.561 209.912L224.648 159.697C224.707 113.174 224.678 109.424 224.238 108.926C223.564 108.223 222.217 108.252 221.455 109.014L220.84 109.629L220.928 159.024C221.016 204.492 220.986 208.506 220.518 209.356C220.254 209.854 219.668 210.41 219.229 210.615C218.613 210.85 210.059 210.938 186.475 210.879L154.541 210.791L156.299 209.385C159.463 206.895 164.326 204.903 170.068 203.76C175.811 202.617 178.828 202.442 196.436 202.119C206.104 201.944 214.189 201.768 214.395 201.68C214.658 201.592 214.746 192.07 214.746 155.303V109.014L218.145 104.18C222.861 97.4127 223.096 96.8267 223.096 92.4322C223.096 89.0631 223.066 88.8287 222.129 86.8951C220.781 84.024 219.375 82.2662 217.148 80.5963C213.252 77.6666 208.447 76.6998 203.965 77.9303ZM212.842 82.2662C216.094 83.7896 218.32 86.3971 219.287 89.7955C219.961 92.0221 219.756 94.8932 218.848 96.6803C217.852 98.6725 214.131 103.74 213.838 103.535C213.691 103.447 210.82 101.455 207.48 99.1119C204.141 96.7975 200.01 93.9263 198.281 92.7838C196.553 91.6119 195.146 90.5865 195.117 90.4693C195.088 89.8541 197.549 86.3092 199.072 84.7857C202.852 80.9771 208.008 80.0103 212.842 82.2662ZM117.803 88.1842C129.141 89.2974 140.508 93.7506 146.689 99.5221L148.184 100.928L148.359 154.453L148.535 207.979L146.689 206.602C142.91 203.731 137.373 201.358 131.191 199.981C124.6 198.487 121.758 198.311 104.678 198.135L88.7695 197.988V142.94V87.8912H101.777C108.926 87.8912 116.133 88.0377 117.803 88.1842ZM199.6 98.2037C210.176 105.322 211.816 106.465 211.816 106.817C211.816 106.992 211.172 108.076 210.352 109.219L208.887 111.299L204.727 108.487C194.004 101.279 189.844 98.3795 189.844 98.1744C189.844 97.8228 192.51 93.7506 192.744 93.7506C192.861 93.7506 195.938 95.7721 199.6 98.2037ZM84.9609 150.703C84.9609 191.045 85.0488 201.563 85.3418 201.768C85.5176 201.885 91.0254 201.973 97.5586 201.914C119.443 201.797 128.643 202.647 137.197 205.664C140.42 206.807 143.496 208.447 145.313 210.029L146.338 210.908L113.877 210.938H81.3867L80.5078 210.322C78.6914 209.033 78.8086 212.52 78.8086 155.889C78.8086 98.1158 78.6621 102.334 80.8008 101.016C81.7383 100.43 83.1445 100.02 84.4629 99.9322C84.9316 99.9029 84.9609 102.51 84.9609 150.703ZM193.418 105.498C201.475 110.713 206.162 113.877 206.367 114.229C206.484 114.375 200.391 123.779 192.832 135.117C185.303 146.455 178.271 157.09 177.246 158.731L175.371 161.778L172.412 161.572C170.801 161.455 169.395 161.279 169.307 161.162C169.189 161.074 168.633 159.434 168.047 157.559C166.641 152.988 166.729 153.047 162.393 154.16C160.547 154.629 158.994 154.981 158.936 154.922C158.906 154.863 158.145 153.809 157.207 152.549C156.299 151.289 155.479 150.088 155.391 149.883C155.303 149.649 157.822 145.694 160.986 141.035C164.15 136.377 171.387 125.625 177.041 117.129C182.725 108.633 187.383 101.66 187.412 101.66C187.441 101.66 190.137 103.389 193.418 105.498ZM210.908 157.207L210.938 197.988L195.645 198.135C179.619 198.281 175.898 198.516 169.6 199.805C162.891 201.182 157.09 203.789 153.457 207.07L152.344 208.067V195.469V182.871L154.336 181.406C157.529 179.033 169.482 171.445 174.375 168.633C175.137 168.194 175.928 167.549 176.104 167.197C176.895 165.703 181.377 158.877 195.527 137.578C208.184 118.535 210.527 115.166 210.674 115.752C210.791 116.133 210.879 134.795 210.908 157.207ZM155.771 156.094C158.232 158.906 158.203 158.906 161.133 158.057C162.48 157.647 163.799 157.324 164.033 157.324C164.355 157.324 164.795 158.262 165.498 160.459C166.758 164.444 167.197 164.912 169.688 165C170.713 165 171.68 165.059 171.826 165.088C172.002 165.147 172.354 165.176 172.676 165.205C173.643 165.264 172.705 165.967 168.809 168.135C166.758 169.248 164.18 170.772 163.037 171.504L161.016 172.793L159.668 172.031C158.936 171.621 157.031 170.479 155.42 169.483L152.49 167.725L152.432 159.961L152.344 152.197L153.252 153.223C153.75 153.779 154.893 155.069 155.771 156.094Z" fill="black"/>
</svg>
