<svg width="300" height="300" viewBox="0 0 300 300" fill="none" xmlns="http://www.w3.org/2000/svg">
<path d="M143.908 46.5422C157.326 46.0539 171.24 48.9674 184.279 51.8558C183.986 52.4418 183.986 52.4418 183.481 52.6102C183.262 52.6554 183.044 52.7007 182.818 52.7473C182.571 52.8011 182.324 52.8549 182.07 52.9103C181.802 52.9671 181.534 53.024 181.258 53.0826C178.731 53.642 176.333 54.3731 173.927 55.3282C172.07 56.0335 170.834 56.0459 168.958 55.2593C168.457 55.0066 168.457 55.0066 167.946 54.7489C159.195 50.5065 149.672 48.5555 139.986 48.6149C139.563 48.6163 139.14 48.6177 138.718 48.6189C137.694 48.622 136.67 48.6271 135.647 48.6332C135.833 48.6448 136.02 48.6564 136.212 48.6684C145.334 49.2589 154.028 50.9948 162.6 54.1996C162.6 54.3929 162.6 54.5863 162.6 54.7855C160.928 54.4666 159.275 54.1088 157.627 53.6866C152.286 52.3336 146.728 51.4177 141.213 51.2699C140.871 51.2582 140.529 51.2465 140.176 51.2344C120.044 50.8801 100.033 57.6729 84.377 70.3129C84.0884 70.5451 83.7999 70.7774 83.5026 71.0167C82.0161 72.2239 80.5506 73.4532 79.1035 74.7074C80.3553 73.8943 81.5909 73.0626 82.7977 72.184C86.1271 69.7686 89.5901 67.6552 93.166 65.6254C93.3819 65.5011 93.5978 65.3769 93.8202 65.2488C101.72 60.7272 110.264 58.3078 119.24 57.1293C119.573 57.0833 119.573 57.0833 119.912 57.0364C122.488 56.726 125.091 56.7648 127.682 56.763C127.941 56.7628 128.2 56.7627 128.467 56.7624C138.186 56.7742 147.712 58.17 157.033 60.9379C157.033 61.1312 157.033 61.3246 157.033 61.5238C156.08 61.9402 155.121 62.3376 154.159 62.7323C153.892 62.849 153.626 62.9657 153.351 63.0859C151.244 63.9347 149.826 63.8751 147.658 63.2816C147.159 63.1619 146.66 63.0429 146.16 62.9245C145.913 62.8632 145.665 62.802 145.41 62.7388C126.827 58.1824 106.323 64.4038 90.3645 74.0665C87.3217 75.937 84.3613 77.9163 81.4473 79.9808C81.2195 80.1422 80.9917 80.3035 80.7571 80.4698C75.7514 83.911 75.7514 83.911 71.1934 87.891C71.5531 87.7166 71.5531 87.7166 71.9201 87.5387C74.5125 86.2825 77.1057 85.0277 79.6996 83.7746C80.2239 83.5213 80.7482 83.2679 81.2725 83.0145C83.1822 82.0924 85.0955 81.1781 87.0137 80.2738C87.2707 80.1522 87.5277 80.0306 87.7924 79.9053C96.1586 75.9668 104.486 74.5182 113.732 74.7255C115.07 74.7522 116.409 74.7573 117.747 74.7663C119.424 74.7784 121.1 74.7964 122.777 74.8389C130.158 75.0176 135.564 74.3954 141.964 70.5879C143.732 69.5902 145.593 68.806 147.457 68.0057C147.81 67.8513 147.81 67.8513 148.169 67.6938C153.382 65.4148 158.677 63.324 163.959 61.2146C164.798 60.879 165.635 60.5409 166.473 60.2028C176.586 56.1238 187.024 53.1159 197.957 52.4303C198.148 52.4182 198.339 52.406 198.535 52.3935C204.062 52.0468 209.597 51.9377 215.133 51.8192C215.683 51.8072 216.233 51.7951 216.784 51.7831C220.264 51.7074 223.745 51.6394 227.226 51.5759C227.894 51.5636 228.562 51.5507 229.23 51.5375C231.359 51.4958 233.487 51.4614 235.616 51.4435C236.207 51.4377 236.798 51.4296 237.389 51.4187C240.959 51.3567 243.928 51.729 247.268 53.0277C247.268 53.2211 247.268 53.4144 247.268 53.6136C246.999 53.6075 246.73 53.6014 246.452 53.595C217.847 53.0431 190.696 58.3397 163.615 67.0771C160.854 67.9673 158.087 68.8415 155.32 69.7133C149.991 71.3934 144.681 73.1292 139.388 74.9202C138.406 75.2519 137.422 75.5798 136.439 75.9067C131.914 77.4243 128.393 79.6199 124.565 82.443C123.675 83.0961 122.777 83.7364 121.877 84.3754C117.788 87.2908 113.729 90.2467 109.69 93.2316C108.985 93.7514 108.279 94.2696 107.573 94.7872C105.261 96.4827 102.957 98.1879 100.673 99.921C100.47 100.075 100.266 100.228 100.056 100.386C98.1061 101.812 98.1061 101.812 96.6816 103.711C96.4659 106.005 97.1646 108.03 97.8169 110.212C97.9772 110.764 97.9772 110.764 98.1408 111.328C98.4276 112.308 98.7149 113.286 99.0254 114.258C99.0794 114.52 99.1335 114.782 99.1892 115.052C99.8897 116.166 101.021 116.286 102.248 116.602C102.467 116.663 102.686 116.724 102.912 116.786C103.588 116.972 104.266 117.146 104.946 117.318C105.194 117.381 105.442 117.444 105.697 117.509C106.218 117.641 106.739 117.773 107.261 117.904C108.048 118.102 108.835 118.305 109.621 118.507C115.645 120.037 119.067 119.98 124.514 116.895C125.029 116.606 125.544 116.317 126.059 116.027C127.499 115.217 128.937 114.401 130.375 113.585C132.911 112.144 135.45 110.71 137.99 109.278C138.286 109.111 138.581 108.945 138.885 108.773C143.061 106.42 147.257 104.109 151.477 101.836C152.626 101.216 153.774 100.593 154.922 99.9696C160.852 96.7523 166.793 93.5595 172.779 90.4499C173.927 89.8536 175.072 89.2517 176.214 88.6462C178.273 87.5558 180.341 86.4833 182.415 85.4225C182.758 85.2473 182.758 85.2473 183.107 85.0685C183.34 84.9495 183.572 84.8306 183.812 84.708C187.536 82.8033 191.253 80.8958 194.914 78.872C197.181 77.6213 199.477 76.4318 201.778 75.2448C203.414 74.3982 205.037 73.535 206.646 72.6381C210.723 70.3678 214.904 68.3095 219.085 66.2383C225.16 63.2497 225.16 63.2497 231.07 59.9518C235.575 57.2709 239.463 55.8114 244.759 55.756C244.998 55.7532 245.237 55.7505 245.483 55.7477C251.358 55.73 251.358 55.73 253.007 57.2721C255.345 60.0249 255.422 64.7693 255.242 68.1831C254.313 77.8626 248.051 86.9453 241.859 94.0616C241.164 94.8656 240.497 95.6853 239.834 96.5152C238.48 98.18 237.021 99.7359 235.554 101.299C234.704 102.205 233.887 103.137 233.077 104.079C232.409 104.825 231.695 105.522 230.974 106.218C230.537 106.633 230.537 106.633 230.275 107.227C230.082 107.227 229.889 107.227 229.69 107.227C229.621 107.392 229.553 107.556 229.482 107.726C229.01 108.565 228.424 109.123 227.73 109.79C226.61 110.885 225.558 112.002 224.555 113.205C224.123 113.672 224.123 113.672 223.244 114.258C223.24 113.928 223.236 113.597 223.232 113.257C223.089 107.608 221.705 102.421 219.436 97.266C219.274 96.8989 219.274 96.8989 219.109 96.5244C215.697 88.8774 210.906 82.02 205.959 75.2933C205.186 75.68 204.412 76.0668 203.615 76.4652C204.708 77.5902 205.857 78.607 207.058 79.6146C213.346 84.9836 216.2 91.6242 219.069 99.2618C219.199 99.6042 219.329 99.9466 219.462 100.299C219.579 100.618 219.696 100.936 219.816 101.263C219.919 101.545 220.023 101.827 220.13 102.118C220.315 102.832 220.315 102.832 220.022 103.711C219.82 103.612 219.617 103.513 219.409 103.411C219.134 103.281 218.859 103.15 218.575 103.015C218.307 102.886 218.038 102.757 217.761 102.624C215.644 101.793 213.587 101.57 211.328 101.572C211.061 101.571 210.794 101.569 210.519 101.567C209.652 101.564 208.785 101.566 207.918 101.569C207.619 101.569 207.321 101.57 207.013 101.571C186.095 101.633 166.413 106.268 147.017 113.91C146.792 113.999 146.567 114.087 146.335 114.179C139.822 116.725 139.822 116.725 133.632 119.953C133.402 120.089 133.171 120.225 132.933 120.365C129.862 122.203 127.089 124.367 124.514 126.856C124.299 127.063 124.084 127.27 123.863 127.484C121.139 130.309 120.347 133.55 120.385 137.377C120.425 138.691 120.541 139.981 120.705 141.285C120.741 141.573 120.778 141.861 120.815 142.158C121.232 145.215 121.824 148.238 122.426 151.264C122.475 151.508 122.523 151.753 122.573 152.004C123.899 158.884 123.899 158.884 126.217 165.473C126.316 165.701 126.415 165.929 126.518 166.163C129.958 173.89 134.932 177.534 142.633 180.497C148.406 182.669 154.292 184.528 160.161 186.419C162.008 187.015 163.852 187.617 165.694 188.224C170.243 189.719 174.794 191.193 179.39 192.536C179.752 192.642 180.113 192.748 180.485 192.858C190.885 195.846 202.411 195.65 212.069 190.577C213.888 189.539 215.49 188.257 217.092 186.914C217.279 186.763 217.467 186.612 217.66 186.457C219.141 185.24 220.344 183.823 221.575 182.359C223.608 179.958 225.449 177.89 228.733 177.426C230.165 177.365 231.17 177.494 232.326 178.418C230.34 175.563 230.34 175.563 227.804 173.236C225.685 172.978 223.923 174.487 222.326 175.69C220.914 176.83 219.593 178.062 218.264 179.297C217.881 179.635 217.497 179.971 217.11 180.304C216.446 180.879 215.798 181.463 215.159 182.067C210.833 186.143 205.715 190.644 199.514 191.016C199.233 191.036 198.953 191.056 198.663 191.077C196.278 191.156 193.918 190.899 191.549 190.65C191.234 190.618 190.92 190.586 190.596 190.553C185.32 189.956 180.432 188.556 175.435 186.805C174.83 186.595 174.225 186.386 173.62 186.177C172.091 185.648 170.564 185.116 169.037 184.582C167.955 184.204 166.872 183.828 165.789 183.453C163.371 182.615 160.957 181.77 158.545 180.917C157.373 180.502 156.2 180.089 155.026 179.681C140.149 174.499 140.149 174.499 135.647 170.508C135.451 170.341 135.256 170.174 135.055 170.002C131.374 166.618 130.347 162.125 129.65 157.373C129.003 152.971 128.189 148.623 127.23 144.279C127.148 143.905 127.065 143.531 126.98 143.145C126.907 142.82 126.834 142.495 126.758 142.16C126.01 138.496 125.665 134.38 127.443 130.957C128.704 129.441 130.243 128.282 131.856 127.167C132.184 126.939 132.184 126.939 132.517 126.707C134.474 125.363 136.472 124.15 138.576 123.047C138.848 122.9 138.848 122.9 139.125 122.75C146.522 118.776 155.074 116.752 163.057 114.313C163.398 114.209 163.738 114.104 164.089 113.997C178.548 109.574 193.004 106.931 208.156 106.861C208.528 106.858 208.9 106.855 209.284 106.852C212.86 106.865 217.382 107.059 220.284 109.44C221.694 111.074 221.632 112.799 221.486 114.844C220.879 118.26 218.894 120.857 216.451 123.212C216.231 123.428 216.01 123.645 215.783 123.868C214.388 125.223 212.96 126.484 211.432 127.687C205.84 132.203 201.324 137.355 200.393 144.727C200.304 146.254 200.293 147.776 200.301 149.305C200.302 149.516 200.302 149.727 200.303 149.944C200.344 159.722 201.716 170.184 208.303 177.832C208.535 178.108 208.768 178.383 209.008 178.667C209.936 179.751 209.936 179.751 210.94 180.762C212.136 180.762 212.566 180.143 213.375 179.352C221.051 172.098 221.051 172.098 225.863 171.863C228.638 171.951 230.216 173.469 232.065 175.423C233.792 177.312 235.584 179.341 236.721 181.641C236.914 181.738 237.108 181.834 237.307 181.934C236.473 182.351 235.947 182.122 235.036 181.952C231.483 181.378 228.359 181.19 225.313 183.252C224.069 184.234 223.133 185.423 222.155 186.661C221.111 187.972 219.991 189.204 218.85 190.43C218.628 190.675 218.406 190.919 218.177 191.172C214.377 195.195 207.902 199.112 202.268 199.307C181.338 199.501 159.547 190.427 139.978 183.775C138.219 183.178 136.457 182.593 134.694 182.007C134.131 181.82 133.568 181.632 133.005 181.444C132.664 181.33 132.664 181.33 132.316 181.214C132.158 181.162 132.001 181.109 131.838 181.055C132.511 181.298 133.184 181.542 133.857 181.785C134.068 181.862 134.28 181.938 134.498 182.017C136.427 182.714 138.356 183.41 140.286 184.105C141.681 184.609 143.076 185.115 144.469 185.625C149.768 187.554 155.124 189.299 160.492 191.026C162.371 191.631 164.248 192.241 166.124 192.854C173.195 195.165 180.274 197.419 187.429 199.457C187.719 199.54 188.01 199.623 188.309 199.708C191.254 200.546 194.205 201.35 197.175 202.097C197.414 202.158 197.654 202.218 197.901 202.281C202.247 203.357 206.584 203.662 210.592 201.398C211.94 200.547 213.196 199.583 214.448 198.598C215.538 197.743 216.654 196.952 217.806 196.18C221.214 193.844 224.18 191.043 227.053 188.086C229.244 185.859 231.064 184.91 234.183 184.805C235.567 184.814 236.901 184.897 238.186 185.45C239.148 186.511 239.503 187.704 239.941 189.039C240.303 190.026 240.74 190.97 241.19 191.919C241.319 192.192 241.32 192.192 241.452 192.472C241.629 192.844 241.807 193.216 241.984 193.588C242.413 194.488 242.835 195.39 243.255 196.293C243.4 196.602 243.545 196.912 243.695 197.231C247.404 205.875 241.77 222.133 239.408 230.792C239.226 231.462 239.044 232.131 238.863 232.801C238.774 233.127 238.686 233.453 238.594 233.79C238.009 236.031 237.678 238.225 237.453 240.528C237.174 243.195 236.695 244.874 234.963 246.973C234.643 247.418 234.327 247.865 234.013 248.313C233.347 249.262 232.681 250.21 232.001 251.149C231.788 251.445 231.788 251.445 231.571 251.747C231.154 252.246 231.154 252.246 230.275 252.832C228.236 252.917 226.315 252.284 224.418 251.609C224.009 251.468 224.009 251.468 223.592 251.324C223.009 251.123 222.426 250.92 221.844 250.715C220.921 250.391 219.996 250.071 219.071 249.752C217.822 249.321 216.572 248.889 215.323 248.456C212.97 247.641 210.611 246.845 208.248 246.057C208.041 245.988 207.833 245.919 207.62 245.848C203.676 244.534 199.715 243.276 195.753 242.022C192.145 240.88 188.545 239.718 184.957 238.514C180.843 237.133 176.723 235.776 172.597 234.43C172.294 234.332 171.992 234.233 171.68 234.131C168.643 233.141 165.606 232.152 162.569 231.164C148.222 226.496 133.929 221.677 119.653 216.794C114.457 215.017 109.257 213.25 104.056 211.487C103.201 211.197 102.345 210.907 101.49 210.616C100.474 210.271 99.4581 209.927 98.442 209.583C97.8879 209.395 97.3341 209.207 96.7802 209.019C92.352 207.427 92.352 207.427 87.7587 206.517C87.568 206.497 87.3773 206.476 87.1809 206.455C86.5578 206.39 85.9344 206.329 85.3108 206.269C84.8633 206.222 84.4158 206.175 83.9683 206.128C82.4449 205.968 80.9207 205.816 79.3965 205.664C77.1801 205.442 74.9638 205.218 72.7478 204.991C71.8082 204.896 70.8684 204.804 69.9284 204.712C69.3464 204.654 68.7644 204.595 68.1824 204.536C67.9158 204.511 67.6493 204.485 67.3746 204.459C64.3736 204.15 64.3736 204.15 63.2406 202.945C62.2903 201.552 61.6756 200.013 61.0127 198.468C60.8916 198.188 60.8916 198.188 60.768 197.903C59.211 194.291 57.8438 190.613 56.5083 186.914C56.4085 186.638 56.3087 186.362 56.2059 186.077C55.296 183.554 54.3937 181.028 53.5123 178.494C52.209 174.753 50.8691 171.27 48.7844 167.889C47.7097 166.123 47.281 164.675 47.1699 162.598C47.1298 162.142 47.0876 161.685 47.044 161.229C46.94 160.136 46.8433 159.042 46.7499 157.948C46.6159 156.433 46.4421 154.925 46.2593 153.414C43.4968 130.286 43.4968 130.286 46.291 119.825C46.3829 119.463 46.3829 119.463 46.4766 119.094C47.4879 115.171 48.9834 111.482 50.6856 107.813C50.7989 107.568 50.9121 107.323 51.0289 107.071C53.5806 101.628 56.7256 96.4929 60.3535 91.6996C60.4779 91.5349 60.6023 91.3703 60.7305 91.2006C64.5724 86.1482 68.8428 81.4376 73.3174 76.9413C73.5077 76.7496 73.6979 76.558 73.894 76.3606C75.1921 75.0667 76.5431 73.8522 77.9316 72.6566C78.2387 72.3854 78.5454 72.1138 78.8518 71.8418C83.0558 68.1479 87.5722 64.828 92.2871 61.8168C92.5809 61.6268 92.8747 61.4368 93.1775 61.2411C94.1398 60.6331 95.1127 60.0466 96.0957 59.473C96.314 59.3455 96.5323 59.2179 96.7572 59.0865C111.276 50.692 127.292 47.2548 143.908 46.5422ZM182.064 88.0924C181.853 88.1987 181.642 88.305 181.425 88.4145C179.915 89.1806 178.422 89.9733 176.955 90.8207C177.708 91.5731 178.554 91.8605 179.526 92.2455C179.724 92.3257 179.923 92.4059 180.128 92.4886C180.767 92.7458 181.406 93.0009 182.046 93.256C182.672 93.5075 183.299 93.7595 183.926 94.0116C184.336 94.1764 184.746 94.3409 185.156 94.505C186.705 95.1259 188.243 95.7702 189.777 96.4285C190.406 96.715 190.406 96.715 191.018 96.68C190.55 95.2838 189.772 94.19 188.93 92.9996C188.64 92.5844 188.349 92.169 188.059 91.7534C187.916 91.5479 187.772 91.3424 187.624 91.1307C186.83 89.9771 186.077 88.7962 185.322 87.6163C185.171 87.4169 185.021 87.2175 184.865 87.0121C183.841 87.0121 182.962 87.635 182.064 88.0924ZM136.233 162.891C136.525 163.477 136.525 163.477 136.525 163.477L136.233 162.891ZM136.525 163.477C136.891 166.599 138.726 169.82 141.148 171.816C144.654 174.353 148.95 175.832 153.03 177.151C153.731 177.379 154.431 177.611 155.131 177.843C155.583 177.992 156.035 178.141 156.487 178.289C156.693 178.357 156.899 178.425 157.112 178.495C158.252 178.862 159.363 179.133 160.549 179.297C159.452 178.388 158.222 177.792 156.959 177.154C156.72 177.032 156.481 176.91 156.235 176.784C155.47 176.394 154.705 176.005 153.939 175.617C152.194 174.729 150.449 173.84 148.707 172.946C148.196 172.685 147.686 172.423 147.174 172.162C146.418 171.775 145.662 171.384 144.907 170.993C144.68 170.878 144.453 170.762 144.219 170.643C141.211 169.075 139.148 166.88 137.246 164.079C137.105 163.88 136.964 163.682 136.818 163.477C136.722 163.477 136.625 163.477 136.525 163.477ZM116.018 175.196C116.114 175.389 116.211 175.582 116.311 175.782C116.931 175.983 116.931 175.983 117.647 176.111C118.01 176.185 118.01 176.185 118.381 176.26C118.568 176.295 118.755 176.331 118.947 176.368C118.009 175.537 117.254 175.336 116.018 175.196ZM120.412 176.661C120.412 176.854 120.412 177.047 120.412 177.246C120.606 177.15 120.799 177.053 120.998 176.953C120.805 176.857 120.611 176.76 120.412 176.661ZM121.291 176.953C121.194 177.147 121.098 177.34 120.998 177.539C122.303 177.829 122.303 177.829 123.635 178.125C123.538 177.932 123.442 177.739 123.342 177.539C122.664 177.325 121.98 177.129 121.291 176.953ZM126.272 179.004C127.023 179.756 127.583 179.749 128.615 179.883C127.864 179.132 127.304 179.139 126.272 179.004ZM229.781 192.536C229.568 192.715 229.356 192.895 229.137 193.079C228.217 193.928 228.217 193.928 227.346 194.825C227.346 195.018 227.346 195.211 227.346 195.411C227.152 195.411 226.959 195.411 226.76 195.411C226.76 195.604 226.76 195.797 226.76 195.996C226.567 195.996 226.373 195.996 226.174 195.996C225.784 196.382 225.784 196.382 225.368 196.912C222.979 199.714 220.349 202.302 217.417 204.531C216.801 205.077 216.516 205.494 216.213 206.25C216.967 207.005 217.614 207.048 218.654 207.133C224.766 207.106 231.07 201.616 235.329 197.697C235.967 197.039 236.387 196.51 236.557 195.598C236.367 194.463 235.79 194.046 234.945 193.286C234.669 193.031 234.394 192.776 234.11 192.513C232.517 191.425 231.264 191.244 229.781 192.536ZM155.861 208.008C155.798 208.562 155.753 209.118 155.715 209.674C155.688 209.984 155.661 210.293 155.633 210.612C155.888 211.631 155.967 211.705 156.806 212.239C157.269 212.494 157.736 212.743 158.205 212.989C158.788 213.319 159.37 213.65 159.953 213.982C160.633 214.36 161.314 214.737 161.995 215.113C162.177 215.213 162.358 215.313 162.545 215.416C165.596 217.098 168.675 218.72 171.773 220.313C171.97 220.414 172.166 220.515 172.368 220.619C173.7 221.302 175.034 221.981 176.369 222.657C176.558 222.752 176.748 222.848 176.943 222.947C179.988 224.487 183.059 225.966 186.147 227.417C186.486 227.577 186.486 227.577 186.832 227.74C188.206 228.386 189.58 229.032 190.955 229.677C191.576 229.968 192.196 230.259 192.816 230.551C193.882 231.053 194.949 231.552 196.016 232.05C196.331 232.198 196.646 232.347 196.971 232.499C197.257 232.632 197.544 232.765 197.84 232.903C198.211 233.076 198.211 233.076 198.589 233.253C199.245 233.549 199.245 233.549 200.1 233.496C200.441 232.509 200.427 232.109 199.999 231.139C199.791 230.776 199.581 230.414 199.367 230.054C198.368 228.284 197.48 226.481 196.653 224.625C196.557 224.41 196.461 224.196 196.362 223.974C195.972 223.098 195.583 222.221 195.2 221.342C194.927 220.715 194.65 220.091 194.373 219.466C194.293 219.278 194.213 219.09 194.13 218.896C193.366 217.188 192.341 216.011 190.621 215.252C190.39 215.15 190.159 215.048 189.922 214.942C189.685 214.841 189.449 214.74 189.205 214.637C188.845 214.475 188.845 214.475 188.478 214.31C187.564 213.905 187.564 213.905 186.623 213.575C186.43 213.671 186.236 213.768 186.037 213.868C186.12 214.007 186.202 214.147 186.288 214.291C187.939 217.109 189.381 219.748 190.139 222.95C187.753 221.841 185.527 220.557 183.305 219.155C180.541 217.426 177.718 216.2 174.648 215.113C170.054 213.464 165.506 211.701 160.956 209.934C160.683 209.829 160.41 209.723 160.129 209.613C159.613 209.413 159.097 209.212 158.581 209.011C158.351 208.922 158.121 208.833 157.884 208.74C157.683 208.662 157.483 208.584 157.276 208.504C156.809 208.327 156.335 208.166 155.861 208.008Z" fill="black"/>
<path d="M64.1615 209.766C67.324 209.938 70.446 210.257 73.5857 210.666C73.8168 210.696 74.0479 210.726 74.286 210.757C75.5087 210.915 76.7311 211.075 77.9534 211.236C78.9487 211.367 79.9443 211.495 80.9404 211.62C91.2461 212.918 91.2461 212.918 95.6445 214.485C96.5045 214.787 97.37 215.069 98.2372 215.35C99.9734 215.913 101.707 216.484 103.439 217.057C108.807 218.831 114.179 220.589 119.588 222.235C119.817 222.305 120.047 222.375 120.284 222.447C120.511 222.516 120.739 222.585 120.973 222.657C121.418 222.792 121.864 222.928 122.31 223.064C122.524 223.129 122.737 223.194 122.957 223.261C125.045 223.898 127.124 224.564 129.201 225.238C129.562 225.355 129.923 225.472 130.295 225.593C130.867 225.778 131.438 225.964 132.01 226.149C140.984 229.06 149.985 231.887 158.992 234.696C159.8 234.948 160.609 235.201 161.418 235.453C161.62 235.516 161.823 235.579 162.031 235.644C165.222 236.64 168.411 237.64 171.599 238.644C171.814 238.712 172.03 238.78 172.253 238.85C173.125 239.124 173.997 239.399 174.869 239.673C184.246 242.625 193.63 245.553 203.029 248.438C203.281 248.515 203.533 248.592 203.793 248.672C209.477 250.417 215.176 252.101 220.9 253.711C220.9 253.808 220.9 253.904 220.9 254.004C210.216 253.306 200.034 250.907 189.716 248.149C187.634 247.593 185.549 247.048 183.463 246.508C178.848 245.311 174.239 244.093 169.63 242.871C169.374 242.803 169.118 242.735 168.854 242.665C152.151 238.236 135.467 233.739 118.818 229.111C116.354 228.427 113.89 227.748 111.423 227.075C110.898 226.932 110.374 226.789 109.849 226.646C108.868 226.377 107.886 226.111 106.904 225.845C99.7466 223.896 92.7289 221.497 85.7577 218.97C83.7481 218.243 81.7288 217.545 79.7072 216.852C76.5029 215.751 73.3017 214.642 70.104 213.523C69.6105 213.35 69.1169 213.178 68.6232 213.006C67.9337 212.765 67.2446 212.524 66.5556 212.282C66.347 212.21 66.1384 212.137 65.9235 212.063C64.488 211.557 64.488 211.557 64.1615 211.23C64.1496 210.742 64.149 210.254 64.1615 209.766Z" fill="black"/>
<path d="M116.156 100.724C117.217 101.225 117.693 101.542 118.358 102.54C118.938 105.496 118.816 107.974 117.15 110.523C115.674 111.935 114.233 112.868 112.151 112.959C110.428 112.862 109.48 112.16 108.324 110.908C107.344 109.473 107.078 108.386 107.225 106.641C107.751 104.305 109.243 102.531 110.943 100.91C112.613 100.185 114.42 100.164 116.156 100.724Z" fill="black"/>
<path d="M82.3242 69.7266C82.4302 71.5989 82.4302 71.5989 81.9763 72.3633C81.4453 72.6562 81.4453 72.6562 80.658 72.5647C80.4344 72.4982 80.2108 72.4318 79.9805 72.3633C80.16 71.4956 80.3478 71.0799 80.8594 70.3125C81.8771 69.7266 81.8771 69.7266 82.3242 69.7266Z" fill="black"/>
<path d="M87.0117 65.332C87.3018 65.4287 87.5918 65.5254 87.8906 65.625C87.6973 66.3018 87.5039 66.9785 87.3047 67.6758C86.8213 67.5791 86.3379 67.4824 85.8398 67.3828C85.8398 67.7695 85.8398 68.1562 85.8398 68.5547C85.5498 68.458 85.2598 68.3613 84.9609 68.2617C85.4495 67.107 86.1993 66.2727 87.0117 65.332Z" fill="black"/>
</svg>
