<svg width="300" height="300" viewBox="0 0 300 300" fill="none" xmlns="http://www.w3.org/2000/svg">
<path d="M180.467 69.4332C180.754 69.5801 181.041 69.727 181.336 69.8784C190.25 74.5274 197.507 82.1381 202.439 90.8199C202.554 91.0207 202.668 91.2214 202.786 91.4282C207.804 100.34 210.048 110.093 211.894 120.072C213.622 129.39 216.177 138.085 221.537 145.99C225.6 151.984 225.6 151.984 224.998 155.273C224.474 156.839 223.506 157.717 222.068 158.496C218.853 159.506 215.255 158.587 212.323 157.148C211.769 156.842 211.218 156.527 210.674 156.202C210.089 155.812 210.089 155.812 209.47 155.859C207.323 166.963 204.87 180.324 209.763 191.015C210.59 192.866 210.658 194.614 210.103 196.57C207.116 204.236 199.861 210.475 193.943 215.918C193.637 216.202 193.331 216.486 193.025 216.77C191.522 218.155 189.983 219.48 188.392 220.763C187.74 221.289 187.093 221.818 186.448 222.351C183.463 224.816 180.39 227.139 177.244 229.394C176.977 229.586 176.709 229.778 176.434 229.975C173.438 232.114 170.416 234.192 167.265 236.096C166.907 236.313 166.907 236.313 166.541 236.534C164.454 237.769 162.959 238.396 160.545 237.89C159.606 237.36 159.426 237.17 159.08 236.132C159.05 235.298 159.038 234.471 159.039 233.636C159.037 233.249 159.037 233.249 159.036 232.855C159.034 231.987 159.033 231.119 159.033 230.252C159.031 229.631 159.03 229.01 159.028 228.389C159.024 226.701 159.023 225.012 159.021 223.323C159.02 222.268 159.019 221.214 159.018 220.159C159.014 216.861 159.011 213.563 159.01 210.265C159.009 206.455 159.003 202.645 158.995 198.835C158.989 195.892 158.986 192.949 158.985 190.006C158.985 188.247 158.983 186.488 158.978 184.73C158.973 183.075 158.973 181.421 158.975 179.767C158.975 179.16 158.974 178.553 158.971 177.945C158.967 177.116 158.969 176.288 158.972 175.459C158.969 175.098 158.969 175.098 158.965 174.73C158.977 173.304 159.174 172.332 159.959 171.093C161.044 170.256 162.292 169.881 163.585 169.473C164.019 169.332 164.453 169.192 164.886 169.051C165.113 168.978 165.339 168.905 165.573 168.83C173.52 166.266 181.351 163.325 188.761 159.448C188.959 159.345 189.157 159.241 189.361 159.135C192.244 157.644 192.244 157.644 193.815 154.925C194.587 152.689 195.439 150.485 197.459 149.121C197.615 151.743 197.769 154.367 197.825 156.994C197.833 157.308 197.84 157.621 197.848 157.944C197.733 158.954 197.496 159.453 196.873 160.254C195.687 161.16 194.365 161.867 193.064 162.597C192.869 162.708 192.674 162.819 192.474 162.933C172.246 174.316 172.246 174.316 163.767 174.316C163.767 193.555 163.767 212.795 163.767 232.617C167.909 230.117 167.909 230.117 171.916 227.435C172.153 227.267 172.391 227.099 172.636 226.926C177.434 223.513 182.133 219.938 186.485 215.969C187.183 215.351 187.899 214.771 188.633 214.196C193.54 210.305 198.402 205.708 202.146 200.683C202.46 200.284 202.46 200.284 202.779 199.878C204.964 197.158 204.964 197.158 205.576 193.865C205.358 193.178 205.089 192.546 204.783 191.894C203.843 189.748 203.336 187.772 203.025 185.449C202.971 185.133 202.916 184.817 202.86 184.492C201.683 176.935 202.315 168.945 203.531 161.429C203.577 161.142 203.624 160.856 203.671 160.561C203.907 159.115 204.15 157.67 204.402 156.226C204.471 155.817 204.471 155.817 204.542 155.4C204.629 154.889 204.718 154.378 204.811 153.868C205.229 151.373 205.219 149.103 203.724 146.978C202.581 145.587 201.296 144.844 199.488 144.666C198.759 144.638 198.033 144.633 197.303 144.638C197.024 144.639 196.744 144.64 196.456 144.642C193.011 144.691 189.596 145.064 186.172 145.427C184.163 145.639 182.153 145.837 180.143 146.035C179.842 146.065 179.842 146.065 179.534 146.095C165.549 147.473 151.443 148.07 137.4 147.363C137.137 147.35 136.874 147.337 136.604 147.323C129.863 146.981 123.134 146.541 116.416 145.88C116.172 145.856 115.928 145.832 115.677 145.807C113.347 145.575 111.026 145.317 108.708 144.989C106.898 144.742 105.131 144.628 103.306 144.635C103.04 144.63 102.775 144.625 102.501 144.62C100.365 144.619 98.4344 144.903 96.7325 146.264C94.7619 148.742 94.6363 150.718 94.9899 153.841C95.2058 155.406 95.4836 156.96 95.7621 158.514C96.7811 164.256 97.3702 169.917 97.356 175.755C97.3551 176.552 97.362 177.348 97.3694 178.145C97.3875 183.13 97.1954 189.067 94.3339 193.359C94.3339 198.257 100.214 203.246 103.416 206.543C103.722 206.858 103.722 206.858 104.034 207.18C106.223 209.428 108.402 211.625 110.874 213.562C111.699 214.224 112.472 214.926 113.249 215.643C114.706 216.98 116.212 218.218 117.771 219.433C118.165 219.744 118.559 220.056 118.952 220.367C123.92 224.283 129.117 227.807 134.39 231.297C134.906 231.638 135.421 231.981 135.935 232.324C136.032 213.181 136.129 194.039 136.228 174.316C134.633 173.881 134.633 173.881 133.006 173.437C131.532 172.976 130.071 172.476 128.611 171.972C128.407 171.902 128.203 171.832 127.993 171.759C122.263 169.777 116.685 167.504 111.216 164.886C110.873 164.723 110.53 164.559 110.177 164.391C103.13 160.956 103.13 160.956 102.337 158.843C102.206 157.946 102.211 157.072 102.215 156.166C102.216 155.972 102.216 155.779 102.217 155.58C102.218 154.965 102.222 154.35 102.226 153.735C102.227 153.317 102.228 152.899 102.23 152.481C102.233 151.458 102.238 150.436 102.244 149.414C102.534 149.414 102.824 149.414 103.123 149.414C103.66 150.123 103.66 150.123 104.24 151.098C104.343 151.27 104.447 151.441 104.554 151.617C105.373 152.994 106.037 154.416 106.636 155.902C108.188 158.107 110.994 159.309 113.358 160.473C113.66 160.623 113.962 160.772 114.273 160.926C120.729 164.068 127.513 166.544 134.324 168.797C134.631 168.9 134.939 169.003 135.256 169.109C135.838 169.303 136.421 169.494 137.006 169.68C138.542 170.193 139.592 170.656 140.623 171.972C141.001 173.106 140.959 174.179 140.959 175.361C140.96 175.62 140.961 175.879 140.962 176.146C140.965 177.019 140.967 177.891 140.968 178.764C140.969 179.388 140.971 180.012 140.973 180.636C140.979 182.334 140.982 184.032 140.984 185.73C140.986 186.79 140.987 187.85 140.989 188.91C140.995 192.225 140.999 195.539 141.001 198.854C141.004 202.684 141.012 206.515 141.024 210.345C141.033 213.303 141.037 216.261 141.038 219.22C141.039 220.988 141.041 222.756 141.049 224.524C141.055 226.186 141.057 227.849 141.054 229.511C141.054 230.122 141.055 230.733 141.059 231.344C141.065 232.176 141.063 233.009 141.059 233.842C141.062 234.084 141.065 234.327 141.068 234.576C141.055 235.74 140.999 236.295 140.358 237.301C139.733 237.901 139.446 238.17 138.583 238.21C133.897 237.914 129.963 234.33 126.267 231.738C125.964 231.527 125.964 231.527 125.655 231.311C122.765 229.296 119.97 227.157 117.185 225C116.909 224.786 116.909 224.786 116.626 224.568C113.34 222.025 110.152 219.382 107.081 216.581C106.683 216.222 106.284 215.865 105.876 215.518C104.04 213.951 102.331 212.261 100.622 210.558C100.108 210.046 99.5901 209.537 99.0723 209.029C89.8225 199.866 89.8225 199.866 89.4999 194.146C89.5421 192.602 90.0205 191.543 90.7084 190.181C91.1986 189.057 91.4933 187.94 91.7704 186.749C91.8419 186.448 91.8419 186.448 91.9149 186.142C93.7094 178.12 93.9105 162.922 90.2323 155.566C89.9661 155.736 89.9661 155.736 89.6944 155.909C86.0071 158.201 82.8307 159.093 78.5135 158.789C77.1215 158.435 76.3901 157.871 75.4557 156.793C74.44 154.721 74.7138 153.201 75.4202 151.072C76.2138 149.208 77.3212 147.555 78.4372 145.871C84.0903 137.323 86.5461 128.308 88.4394 118.335C91.9119 100.097 98.94 83.4206 114.625 72.5037C116.302 71.3694 118.063 70.3899 119.848 69.4386C120.364 69.1637 120.877 68.8833 121.39 68.6024C126.688 65.8081 132.431 64.1683 138.279 62.9879C138.666 62.9091 138.666 62.9091 139.06 62.8287C152.905 60.1492 168.129 62.806 180.467 69.4332ZM111.033 81.152C110.887 81.2823 110.742 81.4127 110.592 81.5471C99.8094 91.3454 95.6272 105.638 92.8622 119.416C91.5517 125.935 90.1766 132.419 87.5956 138.574C87.4589 138.904 87.4589 138.904 87.3195 139.24C85.7819 142.884 83.7536 146.125 81.5474 149.4C79.9619 151.571 79.9619 151.571 79.3925 154.101C82.4359 154.641 84.5487 153.847 87.179 152.311C88.955 150.925 90.0016 149.195 90.983 147.198C92.001 145.138 93.0148 143.347 94.9747 142.035C95.1722 141.897 95.3698 141.76 95.5733 141.619C97.7392 140.528 99.8943 140.17 102.299 140.185C102.603 140.186 102.908 140.187 103.221 140.188C107.161 140.262 111.07 140.769 114.981 141.211C119.032 141.666 123.079 142.034 127.146 142.309C127.395 142.326 127.644 142.344 127.9 142.361C129.601 142.478 131.303 142.581 133.006 142.675C133.38 142.697 133.38 142.697 133.761 142.718C138.927 143.004 144.093 143.027 149.265 143.023C149.59 143.023 149.59 143.023 149.92 143.023C156.896 143.02 163.84 142.909 170.799 142.382C171.075 142.362 171.35 142.341 171.635 142.32C177.405 141.889 183.173 141.437 188.926 140.815C191.887 140.495 194.827 140.241 197.807 140.203C198.082 140.197 198.357 140.19 198.64 140.184C201.361 140.193 204.266 141.015 206.248 142.968C207.493 144.466 208.409 146.089 209.287 147.821C211.069 151.189 213.455 152.917 216.978 154.193C218.13 154.427 219.137 154.435 220.31 154.394C220.58 153.768 220.58 153.768 220.603 152.929C220.207 152.148 219.808 151.471 219.322 150.75C219.187 150.543 219.053 150.335 218.915 150.122C218.286 149.153 217.642 148.195 216.994 147.239C211.088 138.391 208.781 128.108 206.819 117.806C204.502 105.65 200.799 94.1241 192.478 84.6676C192.232 84.3828 191.987 84.0981 191.733 83.8047C182.347 73.1163 168.163 67.619 154.209 66.5951C138.356 65.5971 122.877 70.4774 111.033 81.152Z" fill="black"/>
<path d="M149.669 152.234C149.922 152.226 150.175 152.218 150.436 152.209C151.446 152.395 151.726 152.695 152.342 153.516C152.453 154.373 152.494 155.119 152.48 155.975C152.481 156.222 152.481 156.469 152.482 156.724C152.483 157.541 152.475 158.358 152.467 159.175C152.466 159.743 152.465 160.31 152.464 160.878C152.462 162.067 152.456 163.257 152.447 164.446C152.435 165.972 152.43 167.497 152.427 169.023C152.424 170.477 152.418 171.93 152.412 173.384C152.411 173.662 152.41 173.94 152.409 174.227C152.406 175.012 152.4 175.798 152.394 176.583C152.393 176.817 152.393 177.05 152.392 177.29C152.383 178.23 152.349 178.985 152.049 179.883C151.368 180.224 150.94 180.225 150.182 180.231C149.843 180.237 149.843 180.237 149.497 180.244C148.76 180.169 148.304 179.935 147.655 179.59C147.641 176.124 147.631 172.658 147.625 169.192C147.621 167.583 147.617 165.974 147.611 164.365C147.604 162.813 147.601 161.261 147.599 159.709C147.598 159.116 147.596 158.522 147.593 157.929C147.589 157.101 147.588 156.272 147.588 155.444C147.586 155.197 147.584 154.949 147.582 154.695C147.589 152.861 147.784 152.262 149.669 152.234Z" fill="black"/>
</svg>
