<svg width="300" height="300" viewBox="0 0 300 300" fill="none" xmlns="http://www.w3.org/2000/svg">
<path d="M150.201 52.6066C150.681 52.6079 150.681 52.6079 151.171 52.6093C156.044 52.6293 160.759 52.8197 165.527 53.9066C165.799 53.9663 166.072 54.026 166.352 54.0875C176.07 56.2824 185.108 60.8448 192.404 67.6453C193.322 68.5002 194.276 69.3126 195.229 70.1286C195.703 70.6059 195.703 70.6059 195.703 71.1918C195.896 71.1918 196.09 71.1918 196.289 71.1918C204.037 78.478 208.388 89.8694 210.571 99.976C211.314 103.409 212.6 106.531 214.016 109.731C214.804 111.514 215.54 113.217 215.918 115.137C216.305 115.137 216.691 115.137 217.09 115.137C217.09 113.977 217.09 112.817 217.09 111.621C219.264 111.621 219.264 111.621 220.019 111.914C221.126 113.384 221.479 115.197 221.814 116.968C221.86 117.194 221.905 117.419 221.952 117.651C222.096 118.375 222.23 119.099 222.363 119.825C222.414 120.081 222.464 120.337 222.516 120.601C223.008 123.259 223.142 125.919 223.279 128.614C223.304 129.082 223.33 129.55 223.355 130.018C223.535 133.344 223.535 133.344 223.535 134.766C223.728 134.766 223.922 134.766 224.121 134.766C225.088 136.283 225.551 137.551 225.806 139.325C225.841 139.563 225.876 139.8 225.913 140.045C226.169 141.958 226.264 143.86 226.282 145.789C226.286 146.052 226.29 146.316 226.294 146.587C226.28 148.619 225.997 150.557 224.725 152.198C223.718 152.93 223.718 152.93 222.949 152.93C221.523 151.732 221.033 150.217 220.312 148.536C218.669 148.632 217.025 148.729 215.332 148.829C215.379 149.238 215.427 149.647 215.475 150.069C215.65 151.83 215.672 153.578 215.674 155.347C215.675 155.687 215.676 156.027 215.678 156.377C215.68 157.474 215.68 158.571 215.68 159.668C215.68 160.226 215.68 160.226 215.68 160.796C215.68 166.689 215.525 172.545 215.039 178.418C215.237 178.475 215.436 178.531 215.641 178.589C215.902 178.665 216.164 178.741 216.434 178.819C216.693 178.893 216.952 178.968 217.219 179.044C219.183 179.707 220.274 180.849 221.191 182.686C223.175 187.515 222.083 193.269 220.158 197.941C218.65 201.404 216.482 204.588 212.988 206.25C211.873 206.62 210.779 206.821 209.605 206.863C208.204 206.916 207.362 207.017 206.341 208.027C206.011 208.405 205.688 208.79 205.371 209.18C205.03 209.572 204.688 209.962 204.346 210.352C204.177 210.551 204.009 210.751 203.835 210.956C203.32 211.524 203.32 211.524 202.787 211.963C201.465 213.062 201.03 214.158 200.592 215.79C199.551 219.625 196.945 222.469 194.238 225.293C194.036 225.511 193.833 225.728 193.625 225.953C192.057 227.592 190.758 228.807 188.397 228.901C186.047 229.074 184.914 230.738 183.437 232.421C181.236 234.982 179.208 237.705 177.257 240.46C176.029 242.153 174.634 243.251 172.851 244.336C172.665 244.454 172.479 244.571 172.287 244.692C163.625 249.608 148.309 247.669 138.757 246.881C138.541 246.864 138.324 246.847 138.101 246.829C132.675 246.386 127.737 245.648 123.926 241.407C122.666 239.892 121.481 238.319 120.293 236.748C117.143 231.99 117.143 231.99 112.791 229.014C112.586 229.013 112.381 229.012 112.17 229.01C108.839 228.706 106.379 225.936 104.297 223.536C102.127 220.902 99.8357 217.686 99.0925 214.315C98.6085 212.932 97.8121 212.211 96.7533 211.231C96.394 210.89 96.0354 210.548 95.6775 210.205C95.5017 210.039 95.3259 209.872 95.1448 209.7C94.4717 209.021 93.8803 208.29 93.2957 207.534C92.3718 206.652 91.1145 206.804 89.9051 206.763C87.2453 206.566 85.205 205.602 83.3946 203.634C81.686 201.493 80.3921 199.127 79.3949 196.582C79.2215 196.163 79.2215 196.163 79.0447 195.736C78.2056 193.353 78.1098 191.091 78.0948 188.581C78.0919 188.256 78.0889 187.931 78.0859 187.596C78.1153 184.814 78.5421 182.496 80.4741 180.41C81.7957 179.384 83.3803 178.913 84.9613 178.418C85.0333 175.76 84.9509 173.142 84.7516 170.491C84.2217 163.375 84.3196 156.253 84.3754 149.121C84.0053 149.078 83.6351 149.034 83.2538 148.989C82.3104 148.877 81.4642 148.693 80.5668 148.371C80.3432 148.292 80.1196 148.213 79.8893 148.132C79.6445 148.042 79.6445 148.042 79.3949 147.95C79.3662 148.12 79.3375 148.29 79.3079 148.465C78.989 150.13 78.5727 151.409 77.3441 152.637C75.6348 152.803 75.6348 152.803 75.0004 152.637C74.4059 151.99 74.1261 151.497 74.1133 150.605C74.1787 149.929 74.2738 149.262 74.3778 148.59C74.6712 146.35 74.6876 144.326 74.506 142.071C74.4085 140.843 74.3373 139.622 74.3046 138.392C74.283 137.833 74.283 137.833 74.2611 137.263C74.4646 135.893 74.9096 135.443 75.8793 134.473C76.0726 134.376 76.266 134.28 76.4652 134.18C76.4695 133.948 76.4737 133.715 76.4781 133.476C76.6141 126.817 77.1546 120.458 78.7552 113.97C78.8079 113.756 78.8606 113.542 78.9149 113.322C79.1019 112.793 79.1019 112.793 79.6879 112.207C80.3219 112.086 80.3219 112.086 81.0428 112.024C81.402 111.991 81.402 111.991 81.7684 111.958C81.9519 111.944 82.1355 111.929 82.3246 111.914C82.6146 112.688 82.9047 113.461 83.2035 114.258C87.4248 110.037 89.2176 102.573 90.546 96.9181C92.4403 88.8744 95.8767 81.7302 101.074 75.2934C101.269 75.0475 101.464 74.8017 101.665 74.5484C109.677 64.5603 119.931 57.7736 132.312 54.5841C132.79 54.4586 132.79 54.4586 133.278 54.3306C138.872 52.9452 144.456 52.5725 150.201 52.6066ZM120.117 69.434C119.651 69.6645 119.651 69.6645 119.175 69.8998C108.434 75.433 100.113 85.2245 96.3928 96.6992C94.213 103.803 93.9383 110.218 96.442 117.243C97.049 119.013 97.4674 120.878 97.266 122.754C96.549 123.883 95.6883 124.57 94.5926 125.318C92.3019 126.941 90.1936 128.726 88.4769 130.957C90.3111 130.825 92.1337 130.656 93.9563 130.41C98.9025 129.744 103.838 129.301 108.819 128.998C109.123 128.98 109.426 128.961 109.738 128.942C112.572 128.772 115.405 128.611 118.242 128.526C118.596 128.515 118.95 128.504 119.314 128.493C119.932 128.476 120.549 128.464 121.166 128.457C123.449 128.407 125.037 127.974 126.672 126.27C130.487 122.26 133.187 118.484 133.644 112.871C133.679 112.461 133.679 112.461 133.715 112.042C133.995 108.372 133.977 104.693 133.962 101.014C133.96 100.407 133.959 99.7989 133.958 99.1912C133.945 92.5067 133.765 85.8435 133.341 79.1718C133.287 78.2963 133.238 77.4205 133.188 76.5448C133.131 75.5354 133.069 74.5263 133.008 73.5172C132.977 72.9918 132.977 72.9918 132.945 72.4557C132.822 70.6141 132.652 68.8649 132.129 67.0902C128.702 64.8055 123.296 67.8462 120.117 69.434ZM167.285 67.0902C167.283 67.2615 167.28 67.4328 167.278 67.6093C167.17 75.2654 167.039 82.9154 166.681 90.5644C166.451 95.5379 166.303 100.489 166.406 105.469C166.417 106.023 166.417 106.023 166.428 106.588C166.453 107.735 166.483 108.882 166.516 110.028C166.525 110.372 166.534 110.715 166.543 111.069C166.738 116.68 168.14 119.927 171.841 124.036C172.219 124.46 172.587 124.894 172.953 125.329C174.595 127.271 175.84 128.017 178.363 128.251C179.895 128.365 181.428 128.428 182.962 128.495C187.818 128.709 192.657 129.035 197.497 129.474C197.891 129.509 197.891 129.509 198.292 129.545C201.464 129.829 204.612 130.192 207.76 130.676C208.928 130.853 210.045 131.011 211.23 130.957C209.663 128.345 207.462 126.598 204.979 124.9C203.641 123.982 203.641 123.982 203.32 123.34C203.161 121.097 203.654 119.267 204.309 117.133C207.033 107.839 205.486 99.4558 201.269 90.8207C201.17 90.6164 201.071 90.4122 200.968 90.2017C198.876 85.9538 196.35 82.2325 193.066 78.809C192.863 78.5903 192.659 78.3717 192.449 78.1464C189.628 75.2016 186.334 72.9271 182.812 70.8988C182.641 70.7983 182.47 70.6978 182.293 70.5943C178.508 68.39 174.457 66.7503 170.013 66.7606C169.522 66.7595 169.522 66.7595 169.021 66.7584C168.145 66.759 168.145 66.759 167.285 67.0902ZM106.412 136.032C105.872 136.057 105.872 136.057 105.322 136.082C104.148 136.252 103.311 136.601 102.246 137.11C102.246 137.206 102.246 137.303 102.246 137.403C110.61 139.198 118.988 140.802 127.484 141.842C127.698 141.868 127.913 141.894 128.134 141.922C129.141 142.044 130.147 142.161 131.155 142.272C134.259 142.628 137.392 143.086 139.746 145.313C142.098 148.386 142.678 151.062 142.877 154.816C143.141 158.938 143.727 163.015 144.305 167.102C144.352 167.435 144.399 167.767 144.447 168.109C144.582 169.064 144.719 170.018 144.856 170.973C144.897 171.263 144.939 171.553 144.981 171.852C145.021 172.121 145.06 172.39 145.1 172.667C145.134 172.902 145.168 173.136 145.203 173.378C145.307 173.995 145.445 174.592 145.605 175.196C146.772 175.413 147.876 175.526 149.063 175.528C149.528 175.528 149.528 175.528 150.003 175.529C150.322 175.528 150.641 175.526 150.97 175.525C151.295 175.526 151.62 175.528 151.955 175.529C152.263 175.528 152.572 175.528 152.889 175.528C153.171 175.527 153.453 175.527 153.744 175.527C154.386 175.561 154.386 175.561 154.687 175.196C154.924 173.659 155.071 172.109 155.237 170.563C155.263 170.327 155.288 170.091 155.315 169.848C155.642 166.852 155.908 163.857 156.101 160.849C156.119 160.559 156.138 160.27 156.157 159.971C156.247 158.55 156.331 157.128 156.408 155.706C156.439 155.182 156.47 154.657 156.501 154.133C156.512 153.897 156.523 153.662 156.534 153.419C156.721 150.401 158.015 147.121 160.254 145.02C161.025 144.62 161.803 144.439 162.65 144.259C162.891 144.202 163.131 144.145 163.379 144.086C164.191 143.898 165.004 143.725 165.82 143.555C166.11 143.494 166.4 143.433 166.699 143.371C169.001 142.893 171.31 142.453 173.62 142.017C174.35 141.878 175.08 141.738 175.809 141.599C182.824 140.261 189.848 138.97 196.875 137.696C196.972 137.406 197.068 137.116 197.168 136.817C192.776 136.478 188.386 136.349 183.984 136.231C183.749 136.224 183.515 136.218 183.273 136.211C169.162 135.829 155.046 135.893 140.932 135.9C138.196 135.902 135.46 135.901 132.724 135.899C130.05 135.898 127.377 135.898 124.703 135.898C123.121 135.899 121.538 135.899 119.956 135.898C118.478 135.897 117 135.898 115.522 135.899C114.984 135.9 114.447 135.9 113.909 135.899C111.409 135.896 108.91 135.911 106.412 136.032ZM99.6097 141.504C99.673 143.03 99.7406 144.555 99.8118 146.08C99.8353 146.596 99.8578 147.112 99.879 147.629C100.381 159.758 104.926 166.374 112.747 175.264C116.753 179.851 119.457 185.001 122.168 190.43C127.146 187.979 132.982 184.182 136.23 179.59C137.01 177.252 136.416 174.546 136.095 172.158C136.051 171.82 136.007 171.481 135.962 171.132C135.868 170.42 135.774 169.707 135.679 168.995C135.535 167.914 135.394 166.832 135.253 165.751C135.162 165.055 135.07 164.359 134.978 163.662C134.937 163.344 134.895 163.025 134.852 162.697C134.77 162.086 134.686 161.476 134.6 160.867C134.511 160.237 134.429 159.606 134.35 158.975C134.307 158.659 134.263 158.343 134.219 158.018C134.163 157.591 134.163 157.591 134.107 157.156C133.947 156.413 133.947 156.413 133.346 155.996C132.659 155.668 131.986 155.47 131.25 155.274C130.683 155.083 130.116 154.89 129.55 154.696C128.915 154.491 128.279 154.287 127.643 154.084C118.53 151.086 109.491 147.392 101.324 142.302C100.51 141.769 100.51 141.769 99.6097 141.504ZM196.929 143.39C196.516 143.605 196.103 143.82 195.69 144.035C195.365 144.205 195.365 144.205 195.034 144.378C193.924 144.958 192.81 145.533 191.696 146.107C191.48 146.219 191.263 146.331 191.04 146.446C187.064 148.496 183.174 150.143 178.909 151.507C171.806 153.53 171.806 153.53 166.113 157.911C165.889 158.614 165.889 158.614 165.791 159.386C165.746 159.672 165.701 159.958 165.655 160.252C165.613 160.543 165.571 160.834 165.527 161.133C165.485 161.399 165.443 161.665 165.399 161.939C165.121 163.687 164.865 165.44 164.607 167.191C164.512 167.828 164.417 168.464 164.32 169.099C164.179 170.029 164.041 170.959 163.904 171.89C163.861 172.169 163.818 172.448 163.774 172.736C163.123 176.432 163.123 176.432 164.099 179.883C167.865 184.131 173.008 187.508 177.832 190.43C178.673 189.411 179.221 188.28 179.791 187.098C181.575 183.48 183.513 180.123 186.035 176.954C186.253 176.679 186.471 176.404 186.695 176.122C187.965 174.547 189.289 173.036 190.65 171.54C191.554 170.526 192.408 169.475 193.262 168.419C193.867 167.674 194.481 166.938 195.099 166.205C195.695 165.495 196.285 164.779 196.875 164.063C197.03 163.88 197.185 163.697 197.344 163.509C199.391 160.922 199.823 157.476 199.969 154.285C199.988 153.895 199.988 153.895 200.006 153.498C200.408 147.869 200.408 147.869 199.512 142.383C198.548 142.383 197.765 142.949 196.929 143.39ZM140.332 184.864C140.141 184.954 139.95 185.045 139.753 185.138C136.87 186.514 134.389 188.259 131.882 190.227C131.202 190.761 130.518 191.29 129.833 191.819C128.168 193.107 128.168 193.107 126.515 194.408C126.061 194.759 125.588 195.084 125.11 195.401C124.442 195.979 124.442 195.979 124.185 196.923C124.232 198.487 124.851 199.464 125.629 200.794C127.103 203.446 128.282 206.141 129.364 208.974C130.087 210.86 130.896 212.664 131.836 214.454C134.422 213.695 136.662 212.454 139.013 211.154C141.853 209.629 144.614 208.712 147.858 208.796C148.08 208.799 148.302 208.803 148.531 208.806C154.49 208.951 159.412 210.379 164.706 213.114C164.981 213.253 165.256 213.392 165.54 213.536C165.785 213.663 166.029 213.79 166.282 213.921C167.144 214.212 167.603 214.168 168.457 213.868C168.906 213.2 169.228 212.615 169.556 211.89C169.654 211.684 169.752 211.478 169.853 211.265C170.777 209.299 171.627 207.299 172.469 205.297C173.289 203.35 174.172 201.445 175.104 199.55C175.659 198.226 175.95 197.366 175.473 195.979C174.811 194.98 174.045 194.332 173.089 193.634C172.719 193.355 172.349 193.075 171.979 192.794C171.69 192.576 171.69 192.576 171.394 192.353C170.589 191.732 169.811 191.08 169.031 190.429C165.779 187.723 162.339 185.702 158.537 183.858C157.617 183.399 157.617 183.399 157.324 183.106C155.651 183.012 153.978 183.001 152.302 182.987C151.74 182.981 151.177 182.971 150.614 182.957C146.783 182.864 143.817 183.201 140.332 184.864Z" fill="black"/>
</svg>
