<svg width="300" height="300" viewBox="0 0 300 300" fill="none" xmlns="http://www.w3.org/2000/svg">
<path d="M149.706 68.7561C150.012 68.7568 150.317 68.7576 150.632 68.7583C165.225 68.8122 179.789 72.7869 191.893 81.1524C192.067 81.27 192.24 81.3875 192.419 81.5087C195.022 83.2775 197.449 85.2178 199.803 87.3047C199.963 87.446 200.123 87.5873 200.288 87.7329C204.12 91.1423 207.388 94.8366 210.35 99.0235C210.55 99.3046 210.55 99.3046 210.753 99.5914C214.164 104.473 216.836 109.887 219.249 115.32C219.359 115.561 219.468 115.801 219.581 116.049C220.235 117.575 220.621 119.039 220.311 120.703C219.672 121.51 219.177 122.003 218.26 122.461C216.197 122.664 216.197 122.664 215.209 121.949C214.028 120.667 213.484 118.938 212.822 117.352C209.392 109.404 205.013 101.493 198.632 95.5078C197.167 94.043 197.167 94.043 196.691 93.536C185.989 82.3664 168.505 75.5815 153.277 75.2437C143.381 75.0808 134.075 76.3289 124.803 79.9805C124.586 80.0656 124.368 80.1508 124.144 80.2385C108.009 86.6828 95.4513 100.072 88.5142 115.809C81.3161 132.987 82.8525 151.946 89.759 168.926C92.9444 176.486 97.5734 182.286 105.306 185.457C106.564 185.937 107.848 186.31 109.142 186.678C109.443 186.765 109.744 186.852 110.054 186.941C113.593 187.952 117.151 188.891 120.708 189.834C128.658 191.943 136.598 194.071 144.432 196.582C144.761 196.687 144.76 196.687 145.094 196.794C154.259 199.733 163.057 203.358 171.491 208.021C175.05 209.987 178.661 211.837 182.299 213.649C183.259 214.128 184.217 214.608 185.176 215.089C190.769 218.231 190.769 218.231 196.874 219.727C197.137 219.741 197.401 219.755 197.673 219.77C200.4 219.862 203.576 219.61 205.663 217.676C207.115 215.672 207.485 213.61 207.816 211.201C207.87 210.839 207.924 210.477 207.98 210.104C208.123 209.148 208.262 208.193 208.398 207.236C208.591 205.889 208.789 204.542 208.99 203.196C209.097 202.481 209.199 201.766 209.299 201.051C209.901 196.967 209.902 196.967 211.284 195.703C212.402 195.306 213.34 195.337 214.452 195.703C215.402 196.411 215.838 196.838 216.113 197.996C216.209 198.918 216.164 199.647 216.015 200.558C215.965 200.871 215.915 201.184 215.863 201.507C215.779 202.008 215.778 202.008 215.691 202.519C215.635 202.867 215.579 203.216 215.52 203.574C215.399 204.31 215.277 205.046 215.154 205.782C214.966 206.901 214.784 208.02 214.602 209.14C214.483 209.856 214.364 210.573 214.245 211.29C214.164 211.788 214.164 211.788 214.081 212.296C213.338 216.681 212.103 220.708 208.433 223.52C205.795 225.295 203.248 226.008 200.096 226.172C199.897 226.184 199.697 226.196 199.491 226.209C195.504 226.33 191.969 225.514 188.378 223.828C187.938 223.622 187.938 223.622 187.489 223.411C185.138 222.302 182.8 221.166 180.467 220.02C180.224 219.901 179.982 219.782 179.732 219.659C176.206 217.928 172.724 216.109 169.288 214.204C153.457 205.433 136.279 200.614 118.854 196.068C118.506 195.977 118.159 195.887 117.801 195.793C116.13 195.357 114.458 194.923 112.784 194.496C105.887 192.721 99.3453 190.554 93.7483 186.035C93.5232 185.877 93.2981 185.719 93.0662 185.556C92.9046 185.424 92.7429 185.292 92.5764 185.156C92.5764 184.963 92.5764 184.77 92.5764 184.57C92.3288 184.472 92.3288 184.472 92.0763 184.372C84.6944 180.109 81.5393 166.591 79.4164 158.997C74.607 140.564 77.5304 120.842 86.9024 104.377C87.5762 103.243 88.3016 102.152 89.0608 101.074C89.2194 100.849 89.3781 100.623 89.5416 100.39C91.4885 97.6456 93.4902 95.028 95.7991 92.5781C96.1052 92.2127 96.4104 91.8465 96.7146 91.4795C107.029 79.7226 122.994 71.8992 138.28 69.4336C138.761 69.3557 138.761 69.3557 139.252 69.2762C142.734 68.775 146.192 68.7428 149.706 68.7561Z" fill="black"/>
<path d="M187.766 98.8207C193.35 103.914 197.658 109.781 200.975 116.565C201.089 116.791 201.202 117.018 201.318 117.251C201.984 118.654 202.743 120.299 202.44 121.875C201.679 122.816 201.233 123.287 200.033 123.534C199.498 123.542 199.498 123.542 198.953 123.551C198.755 123.556 198.557 123.561 198.353 123.566C197.699 123.581 197.045 123.586 196.391 123.591C195.93 123.6 195.468 123.609 195.007 123.619C193.789 123.645 192.571 123.663 191.353 123.678C189.193 123.707 187.033 123.75 184.874 123.792C184.642 123.796 184.41 123.801 184.171 123.805C181.338 123.861 178.516 123.952 175.691 124.194C175.433 124.215 175.176 124.237 174.91 124.259C171.193 124.62 167.942 125.761 164.94 128.027C164.727 128.184 164.514 128.34 164.295 128.501C161.076 131.068 159.292 135.14 158.788 139.16C158.68 140.989 158.703 142.822 158.715 144.653C158.715 144.908 158.716 145.162 158.717 145.425C158.732 149.318 158.842 153.169 159.374 157.031C159.402 157.252 159.43 157.472 159.46 157.7C160.246 163.651 162.517 170.016 167.341 173.862C168.643 174.851 169.994 175.708 171.404 176.532C171.654 176.68 171.904 176.828 172.162 176.981C172.976 177.462 173.792 177.94 174.608 178.418C175.177 178.753 175.747 179.088 176.316 179.423C179.576 181.337 182.852 183.221 186.159 185.054C189.918 187.154 189.918 187.154 190.868 188.342C191.097 189.318 190.959 190.048 190.721 191.016C190.187 191.808 189.821 192.345 188.964 192.774C186.965 193.028 185.704 192.255 184.002 191.272C183.722 191.115 183.442 190.958 183.154 190.796C182.256 190.289 181.361 189.774 180.468 189.258C180.173 189.089 179.879 188.92 179.576 188.745C177.521 187.563 175.477 186.363 173.436 185.156C173.169 184.999 172.902 184.842 172.627 184.68C165.338 180.38 159.745 176.673 156.138 168.771C155.956 168.376 155.769 167.983 155.576 167.592C152.286 160.879 152.291 152.316 152.272 144.981C152.269 144.326 152.26 143.672 152.251 143.017C152.201 136.118 154.092 129.714 158.948 124.61C160.983 122.673 163.138 121.225 165.654 120.007C165.846 119.913 166.038 119.819 166.236 119.722C169.077 118.417 172.17 117.945 175.267 117.737C175.585 117.714 175.902 117.691 176.229 117.668C182.22 117.286 188.237 117.275 194.237 117.188C193.825 116.443 193.412 115.699 192.998 114.956C192.883 114.747 192.767 114.539 192.649 114.324C191.577 112.405 190.353 110.691 188.964 108.984C188.828 108.817 188.692 108.651 188.553 108.478C180.432 98.5539 168.681 92.9155 156.151 90.8204C155.946 90.7861 155.741 90.7518 155.53 90.7164C141.065 88.4316 125.414 91.7686 113.43 100.281C111.193 101.934 109.125 103.751 107.114 105.67C106.029 106.628 105.328 107.227 103.856 107.227C102.612 106.871 102.119 106.519 101.366 105.469C101.128 104.535 101.128 104.535 101.366 103.418C102.608 101.435 104.266 99.9143 106.054 98.4376C106.449 98.0818 106.449 98.0818 106.852 97.7189C114.929 90.4949 125.874 85.9687 136.522 84.3751C136.733 84.3416 136.943 84.3081 137.16 84.2737C155.163 81.5144 174.151 86.6523 187.766 98.8207Z" fill="black"/>
<path d="M217.631 127.99C218.254 127.979 218.878 127.97 219.501 127.962C220.25 127.952 220.998 127.938 221.746 127.918C223.606 127.9 224.771 127.919 226.172 129.199C226.808 129.974 226.785 130.581 226.703 131.543C226.547 132.53 226.325 133.176 225.586 133.887C224.471 134.259 223.419 134.229 222.256 134.235C222.005 134.238 221.754 134.24 221.496 134.243C220.949 134.248 220.402 134.252 219.854 134.256C218.976 134.262 218.098 134.27 217.22 134.279C215.657 134.293 214.093 134.306 212.53 134.319C201.762 134.4 201.762 134.4 190.996 134.612C190.664 134.621 190.664 134.621 190.324 134.63C180.216 134.282 180.216 134.282 171.387 137.988C168.856 140.665 169.59 145.45 169.672 148.856C169.805 158.121 169.805 158.121 174.077 165.988C175.764 167.442 177.655 168.539 179.59 169.629C179.788 169.742 179.987 169.855 180.191 169.972C189.919 175.461 200.722 179.886 211.362 183.209C211.549 183.267 211.736 183.326 211.928 183.386C212.847 183.675 213.768 183.958 214.691 184.235C215.191 184.39 215.191 184.39 215.701 184.548C215.997 184.637 216.294 184.726 216.599 184.819C217.483 185.2 217.958 185.576 218.555 186.328C218.718 187.453 218.821 188.193 218.265 189.194C217.591 190.045 216.927 190.631 215.918 191.016C212.992 190.988 209.926 189.548 207.202 188.581C206.945 188.49 206.687 188.399 206.421 188.305C198.436 185.483 190.731 182.095 183.106 178.418C182.912 178.325 182.718 178.232 182.518 178.135C181.321 177.56 180.127 176.979 178.936 176.392C178.562 176.209 178.187 176.026 177.813 175.844C171.825 172.931 167.289 168.96 164.942 162.598C164.547 161.145 164.287 159.692 164.063 158.203C164.006 157.855 163.949 157.506 163.891 157.147C162.878 149.943 161.695 140.425 166.187 134.235C169.726 130.016 174.252 129.347 179.446 128.798C187.209 128.201 195.047 128.251 202.829 128.165C203.874 128.153 204.918 128.14 205.963 128.127C208.481 128.096 211 128.07 213.519 128.049C214.89 128.037 216.26 128.017 217.631 127.99Z" fill="black"/>
<path d="M123.634 125.683C124.543 126.384 125.03 127.233 125.392 128.32C125.422 128.878 125.437 129.436 125.443 129.994C125.609 139.159 127.35 148.282 133.302 155.566C133.521 155.84 133.741 156.114 133.967 156.397C136.673 159.588 140.142 161.251 143.855 163.011C147.247 164.646 147.247 164.646 147.934 166.121C148.046 167.303 147.996 167.785 147.419 168.878C146.592 169.847 146.415 169.901 145.137 170.02C143.651 169.998 142.641 169.397 141.395 168.64C140.933 168.37 140.471 168.101 140.009 167.832C139.656 167.623 139.656 167.623 139.296 167.41C138.581 166.995 137.86 166.598 137.132 166.207C136.898 166.08 136.665 165.954 136.424 165.824C135.98 165.585 135.535 165.347 135.09 165.11C133.685 164.342 132.346 163.489 131.251 162.304C131.251 162.111 131.251 161.918 131.251 161.718C130.961 161.622 130.671 161.525 130.372 161.425C129.836 160.826 129.341 160.23 128.852 159.594C128.709 159.409 128.566 159.224 128.419 159.033C123.042 151.969 119.835 143.364 119.532 134.472C119.523 134.2 119.513 133.927 119.504 133.646C119.474 132.701 119.456 131.756 119.441 130.81C119.432 130.502 119.423 130.194 119.414 129.876C119.398 127.665 119.398 127.665 120.087 126.516C121.158 125.579 122.244 125.396 123.634 125.683Z" fill="black"/>
<path d="M73.2422 127.734C73.5352 128.906 73.5352 128.906 73.5352 128.906L73.2422 127.734Z" fill="black"/>
<path d="M73.5352 125.977C73.8281 127.148 73.8281 127.148 73.8281 127.148L73.5352 125.977Z" fill="black"/>
<path d="M150.879 211.523C151.758 211.816 151.758 211.816 151.758 211.816L150.879 211.523Z" fill="black"/>
<path d="M147.949 210.352C148.828 210.645 148.828 210.645 148.828 210.645L147.949 210.352Z" fill="black"/>
<path d="M219.141 180.176C220.02 180.469 220.02 180.469 220.02 180.469L219.141 180.176Z" fill="black"/>
<path d="M217.383 179.59C218.262 179.883 218.262 179.883 218.262 179.883L217.383 179.59Z" fill="black"/>
<path d="M156.445 213.867C157.031 214.16 157.031 214.16 157.031 214.16L156.445 213.867Z" fill="black"/>
<path d="M153.809 212.695C154.395 212.988 154.395 212.988 154.395 212.988L153.809 212.695Z" fill="black"/>
<path d="M145.02 209.18C145.605 209.473 145.605 209.473 145.605 209.473L145.02 209.18Z" fill="black"/>
<path d="M221.191 180.762C221.777 181.055 221.777 181.055 221.777 181.055L221.191 180.762Z" fill="black"/>
<path d="M220.312 180.469C220.899 180.762 220.898 180.762 220.898 180.762L220.312 180.469Z" fill="black"/>
<path d="M218.262 179.883C218.848 180.176 218.848 180.176 218.848 180.176L218.262 179.883Z" fill="black"/>
<path d="M215.039 178.711C215.625 179.004 215.625 179.004 215.625 179.004L215.039 178.711Z" fill="black"/>
<path d="M212.402 177.832C212.988 178.125 212.988 178.125 212.988 178.125L212.402 177.832Z" fill="black"/>
</svg>
