<svg width="300" height="300" viewBox="0 0 300 300" fill="none" xmlns="http://www.w3.org/2000/svg">
<path d="M160.356 66.5672C161.127 67.1462 161.878 67.7457 162.626 68.3547C165.15 70.3922 167.391 71.7469 170.472 72.739C176.978 74.9383 182.95 78.4117 187.952 83.113C188.592 83.7138 189.247 84.2848 189.918 84.8514C191.087 85.8742 192.08 86.9871 193.067 88.1839C193.191 88.3303 193.315 88.4767 193.443 88.6275C199.135 95.37 203.419 103.276 206.251 111.621C206.325 111.837 206.399 112.053 206.475 112.276C207.22 114.474 207.887 116.686 208.459 118.936C208.677 119.789 208.901 120.64 209.125 121.491C209.235 121.915 209.34 122.339 209.443 122.764C210.011 125.529 210.011 125.529 211.831 127.533C212.212 127.709 212.599 127.875 212.989 128.028C214.949 129.063 214.949 129.063 215.626 130.078C215.772 130.776 215.772 130.776 215.876 131.611C215.916 131.924 215.956 132.237 215.998 132.56C216.039 132.898 216.079 133.237 216.122 133.586C216.166 133.936 216.21 134.285 216.255 134.645C216.395 135.765 216.533 136.886 216.67 138.007C216.763 138.754 216.857 139.502 216.951 140.249C218.018 148.794 218.018 148.794 217.97 151.758C217.741 151.843 217.511 151.929 217.275 152.017C216.979 152.137 216.682 152.257 216.377 152.381C216.081 152.496 215.785 152.612 215.481 152.731C214.67 153.156 214.67 153.156 214.546 154.018C214.453 154.989 214.486 155.839 214.59 156.807C214.627 157.171 214.665 157.534 214.704 157.908C214.725 158.103 214.746 158.298 214.768 158.499C214.838 159.134 214.904 159.769 214.97 160.405C215.068 161.341 215.167 162.278 215.266 163.215C215.542 165.805 215.809 168.396 216.076 170.988C216.104 171.265 216.133 171.543 216.163 171.829C216.659 176.655 217.119 181.485 217.566 186.316C217.598 186.663 217.63 187.009 217.663 187.366C217.951 190.48 218.238 193.594 218.521 196.709C218.697 198.653 218.875 200.598 219.055 202.542C219.083 202.849 219.111 203.157 219.14 203.473C219.523 207.612 219.965 211.736 220.579 215.848C221.006 218.816 221.007 220.942 219.307 223.462C219.111 223.763 219.111 223.763 218.911 224.071C217.622 226.022 216.214 227.869 214.747 229.688C214.534 229.954 214.32 230.221 214.101 230.496C213.444 231.307 212.778 232.109 212.11 232.91C211.972 233.08 211.834 233.25 211.691 233.425C207.727 238.292 207.727 238.292 205.079 238.715C204.644 238.742 204.644 238.742 204.2 238.77C203.503 237.308 203.184 236.123 203.052 234.488C203.034 234.275 203.015 234.062 202.997 233.843C202.958 233.385 202.92 232.927 202.884 232.469C202.827 231.743 202.766 231.018 202.702 230.293C202.524 228.232 202.354 226.171 202.187 224.11C202.084 222.846 201.976 221.582 201.865 220.319C201.824 219.838 201.784 219.358 201.747 218.877C201.696 218.205 201.638 217.535 201.578 216.864C201.547 216.482 201.516 216.101 201.483 215.708C201.153 214.215 200.381 213.761 199.144 212.945C194.287 210.084 189.239 208.893 183.735 207.855C183.107 207.715 183.107 207.715 182.521 207.422C182.535 207.671 182.549 207.919 182.563 208.175C182.698 210.561 182.831 212.946 182.964 215.332C183.032 216.558 183.1 217.783 183.17 219.008C183.449 223.948 183.718 228.889 183.913 233.833C183.93 234.199 183.946 234.565 183.964 234.942C183.982 235.444 183.982 235.444 184 235.956C184.011 236.247 184.023 236.537 184.035 236.837C183.983 237.632 183.808 238.093 183.4 238.77C181.116 238.946 179.699 238.422 177.685 237.383C177.395 237.238 177.104 237.094 176.804 236.945C176.188 236.638 175.573 236.329 174.958 236.018C173.744 235.406 172.523 234.809 171.301 234.211C170.386 233.764 169.472 233.315 168.558 232.865C168.255 232.716 167.952 232.566 167.64 232.413C167.022 232.108 166.404 231.803 165.786 231.498C162.531 229.891 159.282 228.301 155.94 226.884C154.984 226.466 154.059 226.01 153.132 225.531C148.83 223.348 144.362 221.483 139.919 219.607C123.772 212.776 123.772 212.776 118.175 207.926C116.382 206.441 115.093 205.927 112.754 206.083C109.443 206.572 106.322 207.616 103.164 208.699C96.1644 211.099 88.244 213.8 80.8387 211.509C80.1994 211.194 79.8231 210.924 79.3956 210.352C79.1355 208.577 79.8876 207.146 80.904 205.754C82.5791 203.669 84.4393 201.781 86.3351 199.9C92.2843 193.98 95.1848 187.002 95.3075 178.565C95.2641 173.409 94.1969 168.399 92.9601 163.417C91.7336 158.457 90.6086 153.533 90.0333 148.45C89.9487 147.71 89.8495 146.974 89.7468 146.237C87.2014 126.429 91.6578 106.398 103.889 90.5035C108.438 84.6827 113.622 78.8661 119.532 74.4144C119.879 74.1438 120.226 73.8729 120.573 73.6018C132.782 64.1462 146.547 56.4057 160.356 66.5672ZM130.372 75.0003C130.067 75.2118 129.762 75.4233 129.448 75.6412C128.777 76.1082 128.109 76.5778 127.442 77.0511C128.38 77.5197 129.224 76.9966 130.171 76.6849C138.116 74.2358 145.788 74.5193 153.283 78.2367C154.653 78.9633 155.847 79.867 157.032 80.8597C157.318 81.0976 157.603 81.3355 157.898 81.5807C161.303 84.5143 163.923 88.0815 166.114 91.9925C166.298 92.318 166.298 92.318 166.485 92.6501C171.561 101.751 174.369 111.642 176.075 121.875C176.113 122.093 176.151 122.311 176.191 122.536C176.613 124.967 176.735 127.32 176.661 129.785C175.574 130.148 174.535 130.162 173.401 130.204C172.909 130.225 172.418 130.246 171.926 130.268C171.668 130.278 171.41 130.289 171.144 130.3C148.294 131.284 124.019 136.674 103.127 146.134C102.247 146.485 102.247 146.485 101.075 146.485C101.053 145.562 101.173 144.944 101.8 144.246C107.883 139.229 116.587 136.453 123.927 133.887C124.232 133.78 124.537 133.672 124.851 133.561C136.851 129.38 149.31 127.333 161.897 125.899C166.842 125.518 166.842 125.518 171.095 123.34C173.434 118.791 171.529 112.636 170.075 108.041C169.216 105.432 168.224 102.946 166.993 100.489C166.862 100.206 166.731 99.9229 166.596 99.6314C164.878 95.997 162.548 92.7153 159.962 89.6487C159.721 89.3485 159.721 89.3485 159.475 89.0422C155.726 84.5118 150.255 81.4115 144.435 80.5667C137.902 80.1644 132.412 80.8936 126.564 83.7894C126.291 83.9207 126.291 83.9207 126.014 84.0547C113.559 90.1084 103.615 101.404 98.8912 114.366C96.0689 122.582 95.1454 131.094 95.1244 139.728C95.1233 139.977 95.1222 140.226 95.121 140.483C95.1048 147.705 96.3356 153.913 98.5635 160.765C102.095 171.709 104.734 180.973 99.2583 191.706C97.0775 195.75 94.3015 199.273 91.2906 202.726C90.1271 203.899 90.1271 203.899 89.6495 205.371C91.999 205.477 94.1918 205.161 96.4977 204.731C96.8574 204.664 97.2172 204.598 97.5878 204.53C105.582 203.029 112.367 201.5 117.173 194.496C117.507 194.004 117.839 193.511 118.169 193.016C120.716 189.202 120.716 189.202 123.048 188.379C122.701 191.151 122.065 193.748 121.254 196.418C121.037 197.131 120.822 197.844 120.61 198.559C120.516 198.869 120.421 199.179 120.324 199.499C120.032 200.764 119.888 201.744 120.542 202.893C121.556 203.87 122.662 204.508 123.89 205.188C124.159 205.339 124.427 205.489 124.703 205.644C132.683 210.061 140.999 213.707 149.381 217.279C157.911 220.913 166.324 224.732 174.589 228.938C175.863 229.584 177.141 230.222 178.419 230.86C178.214 227.084 177.99 223.31 177.754 219.537C177.718 218.961 177.683 218.385 177.647 217.81C177.532 215.971 177.417 214.132 177.302 212.293C177.283 211.981 177.263 211.669 177.243 211.348C176.515 199.711 176.515 199.711 175.764 188.076C175.715 187.329 175.667 186.581 175.619 185.834C175.554 184.822 175.487 183.809 175.42 182.797C175.401 182.505 175.382 182.212 175.363 181.911C175.346 181.649 175.328 181.387 175.309 181.117C175.294 180.891 175.28 180.665 175.264 180.432C175.224 179.857 175.224 179.857 174.903 179.297C174.386 179.134 174.386 179.134 173.75 179.048C173.504 179.008 173.257 178.967 173.003 178.926C172.732 178.884 172.461 178.842 172.182 178.799C171.602 178.705 171.022 178.611 170.443 178.517C170.137 178.468 169.831 178.419 169.515 178.369C137.882 173.298 137.882 173.298 129.493 162.598C126.872 158.877 125.783 155.115 125.978 150.586C128.15 149.451 130.355 148.978 132.753 148.535C132.95 148.498 133.148 148.461 133.351 148.423C146.84 145.897 160.824 145.018 174.537 144.947C175.015 144.943 175.015 144.943 175.503 144.938C175.793 144.94 176.083 144.941 176.382 144.942C176.753 144.943 176.753 144.943 177.131 144.944C177.974 145.035 178.549 145.201 179.298 145.606C179.554 146.292 179.554 146.292 179.656 147.151C179.696 147.468 179.736 147.785 179.778 148.112C179.813 148.445 179.848 148.778 179.884 149.121C179.921 149.437 179.958 149.753 179.997 150.079C180.112 151.088 180.215 152.099 180.315 153.11C180.353 153.477 180.39 153.844 180.429 154.223C180.527 155.188 180.625 156.154 180.722 157.12C180.859 158.484 180.998 159.847 181.136 161.211C181.21 161.934 181.283 162.657 181.356 163.381C181.549 165.292 181.549 165.292 181.808 167.196C181.976 168.482 181.997 169.755 182.017 171.051C182.022 171.325 182.028 171.599 182.033 171.881C182.051 172.754 182.066 173.627 182.081 174.5C182.163 179.688 182.163 179.688 182.521 184.864C183.673 184.878 184.825 184.889 185.977 184.896C186.562 184.9 187.146 184.908 187.731 184.915C188.098 184.917 188.465 184.919 188.843 184.921C189.183 184.924 189.522 184.927 189.871 184.93C190.781 184.929 190.781 184.929 191.603 184.278C192.069 182.236 191.779 180.285 191.545 178.224C191.095 173.984 190.772 169.737 190.47 165.484C190.421 164.811 190.373 164.137 190.325 163.464C190.127 160.691 189.931 157.919 189.737 155.146C189.218 147.756 188.66 140.375 187.908 133.005C187.878 132.708 187.848 132.412 187.818 132.106C186.171 115.962 181.554 100.678 171.681 87.598C171.559 87.4361 171.438 87.2743 171.312 87.1076C168.588 83.4914 165.726 80.0321 162.599 76.7581C162.426 76.5765 162.252 76.3949 162.074 76.2078C156.484 70.2077 156.484 70.2077 149.104 67.3099C141.909 67.7667 136.158 70.9586 130.372 75.0003ZM174.903 83.4964C175.354 84.7524 175.999 85.8466 176.698 86.9754C182.712 96.8983 186.735 107.919 189.962 119.026C190.729 122.498 190.729 122.498 192.747 125.143C194.825 125.982 197.318 125.719 199.513 125.702C199.852 125.701 200.19 125.7 200.539 125.698C201.369 125.695 202.199 125.69 203.028 125.684C202.114 118.185 199.955 110.273 196.285 103.646C196.001 103.132 195.727 102.612 195.452 102.093C191.516 94.8546 186.045 89.58 179.005 85.4007C178.798 85.2773 178.592 85.1538 178.379 85.0267C177.247 84.3681 176.171 83.8608 174.903 83.4964ZM192.482 130.957C191.256 133.408 192.401 137.479 193.067 140.039C193.75 141.938 194.556 143.367 196.29 144.434C198.547 145.118 200.776 145.1 203.112 145.08C203.759 145.075 204.407 145.074 205.055 145.074C207.131 145.069 209.172 145.017 211.232 144.727C211.158 143.451 211.077 142.175 210.994 140.9C210.963 140.36 210.963 140.36 210.931 139.809C210.793 137.154 210.793 137.154 209.767 134.766C206.791 132.68 202.956 132.055 199.44 131.452C199.152 131.401 198.865 131.351 198.569 131.3C196.528 130.972 194.547 130.902 192.482 130.957ZM209.078 176.065C208.704 176.244 208.704 176.244 208.322 176.426C208.062 176.552 207.801 176.677 207.533 176.807C207.27 176.933 207.007 177.058 206.736 177.188C206.086 177.499 205.436 177.812 204.786 178.125C204.68 183.115 204.99 188.074 205.309 193.051C205.383 194.215 205.455 195.38 205.528 196.545C205.65 198.497 205.773 200.448 205.897 202.399C206.055 204.895 206.212 207.392 206.368 209.888C206.502 212.049 206.638 214.21 206.774 216.372C206.803 216.832 206.832 217.293 206.861 217.753C206.943 219.065 207.026 220.376 207.109 221.688C207.146 222.27 207.183 222.852 207.219 223.433C207.353 225.522 207.513 227.605 207.716 229.688C209.251 228.53 210.293 227.225 211.396 225.659C211.558 225.437 211.719 225.214 211.886 224.984C212.364 224.314 212.823 223.633 213.282 222.95C213.429 222.757 213.575 222.565 213.726 222.368C215.194 220.22 214.876 217.81 214.747 215.332C214.73 214.908 214.713 214.484 214.697 214.059C214.636 212.651 214.548 211.245 214.454 209.839C214.437 209.574 214.42 209.31 214.402 209.037C213.985 202.777 213.329 196.54 212.678 190.302C212.652 190.051 212.626 189.801 212.599 189.543C212.446 188.078 212.292 186.614 212.137 185.149C212.089 184.7 212.041 184.25 211.994 183.8C211.7 181.02 211.355 178.253 210.939 175.489C210.188 175.489 209.755 175.74 209.078 176.065Z" fill="black"/>
<path d="M100.781 94.9219C100.975 95.3086 101.168 95.6953 101.367 96.0938C100.989 96.4968 100.598 96.887 100.195 97.2656C100.002 97.2656 99.8086 97.2656 99.6094 97.2656C99.6094 97.5557 99.6094 97.8457 99.6094 98.1445C99.416 98.1445 99.2227 98.1445 99.0234 98.1445C99.4484 96.9406 100.052 95.967 100.781 94.9219Z" fill="black"/>
<path d="M214.16 229.98C213.738 230.967 213.184 231.595 212.402 232.324C212.306 232.034 212.209 231.744 212.109 231.445C213.501 229.98 213.501 229.98 214.16 229.98Z" fill="black"/>
</svg>
