<svg width="300" height="300" viewBox="0 0 300 300" fill="none" xmlns="http://www.w3.org/2000/svg">
<path d="M146.631 38.7886C142.441 39.7554 139.717 41.3375 136.699 44.5308C133.506 47.9293 131.543 52.7925 131.543 57.4215C131.543 63.5445 134.883 69.6968 139.98 73.0367C143.789 75.5269 146.895 76.3472 151.26 76.0836C158.174 75.6441 163.828 71.9234 166.963 65.7418C168.223 63.2222 168.838 60.6148 168.838 57.5679C168.838 54.316 168.252 51.8843 166.641 48.6324C164.502 44.2379 160.078 40.5465 155.273 39.1402C153.018 38.4664 148.799 38.2906 146.631 38.7886Z" fill="black"/>
<path d="M61.377 78.0462C58.7402 78.8665 56.543 80.8001 55.3418 83.3489L54.4922 85.1067V136.289C54.4922 187.207 54.4922 187.5 55.1074 189.082C55.8398 191.103 57.9199 193.447 59.8828 194.472L61.377 195.263L86.8066 195.351L112.236 195.41L112.764 194.179C113.057 193.476 114.639 190.224 116.221 186.914C119.971 179.209 122.783 173.232 125.244 167.724C126.299 165.293 127.852 162.041 128.643 160.459C130.547 156.709 131.338 153.603 131.748 148.447C131.865 146.777 131.807 145.839 131.455 144.931C130.811 143.144 130.723 142.353 130.225 135.82C129.727 129.375 129.111 124.013 128.438 120.908C127.881 118.183 127.91 117.275 128.584 116.894C129.58 116.367 130.898 116.543 131.367 117.246C132.305 118.681 133.359 125.654 134.033 134.619C134.531 141.474 135 143.73 136.904 148.593C138.428 152.461 143.086 163.154 147.363 172.558C149.004 176.191 152.578 184.043 155.273 190.019C162.627 206.191 181.641 246.826 182.959 249.17C183.34 249.814 183.926 251.22 184.277 252.334C185.742 256.816 189.463 260.127 193.916 260.888C199.336 261.796 204.346 259.277 206.748 254.384C207.773 252.334 207.832 251.982 207.832 249.638C207.803 246.562 207.627 246.093 202.793 235.839C194.473 218.115 179.062 184.98 175.781 177.685C173.818 173.32 171.416 168.046 170.449 165.966C168.076 160.839 167.754 159.843 166.963 155.42C166.318 151.904 166.26 150.791 166.26 140.918C166.26 131.894 166.348 129.668 166.816 126.738C167.988 119.091 168.691 117.509 170.625 117.89C172.266 118.242 172.441 118.652 171.885 121.054C170.244 128.173 169.834 133.212 170.01 143.789C170.127 151.054 170.244 152.959 170.742 155.273C171.533 158.906 171.826 159.785 172.588 161.074C172.939 161.689 174.316 164.589 175.635 167.578C178.594 174.199 182.871 183.603 185.947 190.283L188.262 195.263H213.281H238.33L239.795 194.56C241.729 193.593 243.633 191.63 244.57 189.609L245.361 187.939V136.23V84.5208L244.688 83.261C243.633 81.2981 241.816 79.4817 239.971 78.6028L238.33 77.7825L199.541 77.6946L160.781 77.636L159.756 78.72C158.555 79.9798 158.232 79.7161 162.744 81.1516C168.164 82.8509 173.936 85.9856 178.74 89.8821L180.996 91.6985L208.184 91.7571L235.4 91.845V98.2903V104.736L212.666 104.882L189.932 105.029L191.045 107.812C193.623 114.316 194.678 120.468 194.443 128.173C194.297 133.828 193.594 137.929 192.012 142.822C190.928 146.162 187.939 152.255 187.178 152.636C186.328 153.105 185.42 152.783 184.629 151.728L183.926 150.849L184.717 149.824C186.387 147.656 188.525 141.972 189.727 136.464C190.459 133.183 190.547 132.304 190.547 126.709C190.547 120.087 190.195 117.656 188.496 112.119C187.412 108.632 184.277 102.48 182.109 99.5794C177.275 93.1927 169.98 87.9192 162.51 85.429C158.027 83.9641 155.859 83.6419 149.854 83.6419C144.727 83.6419 144.053 83.7005 141.123 84.4622C125.273 88.5931 114.17 99.9309 110.332 115.986C107.988 125.654 108.955 137.695 112.646 145.459C113.174 146.572 113.877 148.271 114.199 149.179L114.785 150.82L113.379 151.435C112.588 151.787 111.885 152.05 111.797 152.05C111.475 152.05 108.75 146.308 107.842 143.73C105.615 137.402 104.619 128.086 105.439 120.996C105.908 117.187 107.432 111.093 108.809 107.666C109.395 106.23 109.805 105.029 109.746 104.97C109.717 104.912 99.5215 104.853 87.1289 104.795L64.5996 104.736V98.2903V91.845L91.9922 91.7571L119.414 91.6985L121.143 90.2337C126.24 85.927 132.979 82.3821 139.834 80.4192L141.533 79.9212L141.035 79.1595C140.771 78.72 140.361 78.1927 140.098 77.9876C139.424 77.4602 63.0762 77.5188 61.377 78.0462ZM83.4961 119.765C83.9062 121.23 83.9355 121.113 82.5 122.607L81.2109 123.925H77.4902H73.7695L73.8867 122.314C74.0039 121.054 74.209 120.498 74.8535 119.824C75.6445 119.004 75.7617 118.974 78.8086 118.886C80.5078 118.828 82.207 118.769 82.5586 118.74C83.0566 118.711 83.2617 118.916 83.4961 119.765ZM88.7109 119.882L88.623 121.084L86.4258 121.113H84.2285L84.0527 120.029C83.9648 119.443 83.9355 118.886 84.0234 118.798C84.1113 118.711 85.2246 118.652 86.4844 118.652H88.7988L88.7109 119.882ZM97.0898 119.062C98.584 119.677 99.3164 120.82 99.3164 122.49V123.925H95.6836H92.0215L90.5859 122.519C89.1211 121.084 89.0039 120.703 89.502 119.004C89.6777 118.476 95.8008 118.505 97.0898 119.062ZM89.0332 122.109C90.9668 123.076 91.2598 123.808 91.3477 127.998C91.4648 132.304 91.1719 133.711 89.9414 134.912C89.1504 135.673 88.7988 135.791 86.8945 135.879C84.4629 136.025 83.2617 135.586 82.4121 134.267C81.9727 133.593 81.8848 132.773 81.8848 128.877C81.8848 124.658 81.9434 124.189 82.5 123.427C83.3496 122.255 84.8438 121.582 86.5723 121.582C87.3926 121.582 88.4766 121.816 89.0332 122.109ZM81.3867 126.474L81.2988 128.466L77.5781 128.554L73.8281 128.642V126.562V124.511H77.6367H81.4746L81.3867 126.474ZM99.3164 126.562V128.613H95.6543H91.9922V127.207C91.9922 126.445 91.9043 125.537 91.8164 125.156C91.6406 124.511 91.6406 124.511 95.4785 124.511H99.3164V126.562ZM99.3164 131.132V133.007H95.4785H91.6406L91.8164 132.099C91.9043 131.601 91.9922 130.693 91.9922 130.107V129.052L95.6543 129.14L99.3164 129.228V131.132ZM81.3867 131.162L81.2988 133.154L79.834 133.125C79.043 133.125 77.3438 133.095 76.1133 133.066L73.8281 133.007V131.103V129.199H77.6367H81.4746L81.3867 131.162ZM82.5879 135.087C83.7891 136.464 83.8477 136.611 83.6426 137.841L83.4668 139.16H79.9512C76.0254 139.16 75.0293 138.837 74.2676 137.402C74.0332 136.933 73.8281 135.879 73.8281 135.058V133.593H77.5781L81.2988 133.623L82.5879 135.087ZM99.3164 135.468C99.3164 137.255 99.2578 137.373 98.2617 138.252L97.2363 139.189L93.3691 139.101L89.502 139.013L89.4141 137.695C89.3262 136.494 89.4434 136.23 90.5859 135L91.8457 133.652L95.5957 133.623L99.3164 133.593V135.468ZM88.8574 138.925C88.7988 139.072 87.6855 139.16 86.3965 139.16C84.1992 139.16 84.082 139.13 84.082 138.486C84.1113 136.728 84.2871 136.552 86.543 136.464L88.623 136.377L88.7988 137.548C88.916 138.193 88.9453 138.808 88.8574 138.925Z" fill="black"/>
<path d="M134.472 156.62C134.267 157.734 133.651 159.492 133.095 160.546C132.538 161.601 129.638 167.665 126.649 174.023C120.439 187.265 114.403 200.009 111.327 206.396C107.694 213.896 96.9717 236.63 96.0928 238.622C95.7998 239.267 95.0381 240.937 94.3643 242.343C91.5518 248.32 91.6397 252.451 94.7452 256.406C97.3819 259.716 100.458 261.152 104.735 260.976C107.138 260.888 107.636 260.771 109.628 259.775C112.968 258.134 115.077 255.527 116.601 251.22C116.894 250.429 117.89 248.173 118.798 246.24C122.899 237.597 129.579 223.652 134.618 213.134C137.636 206.835 141.942 197.783 144.169 192.978L148.241 184.218L142.06 170.419C138.661 162.802 135.644 156.152 135.351 155.595L134.853 154.599L134.472 156.62Z" fill="black"/>
<path d="M149.033 192.188C148.271 193.799 147.656 195.176 147.656 195.264C147.656 195.352 148.916 195.41 150.439 195.41C151.963 195.41 153.223 195.352 153.223 195.293C153.223 195.088 150.791 189.697 150.586 189.463C150.469 189.346 149.766 190.547 149.033 192.188Z" fill="black"/>
</svg>
