<svg width="300" height="300" viewBox="0 0 300 300" fill="none" xmlns="http://www.w3.org/2000/svg">
<path d="M118.359 94.336C119.603 95.1667 120.24 96.0679 120.977 97.3573C121.207 97.7531 121.438 98.1487 121.669 98.544C121.794 98.7607 121.92 98.9773 122.049 99.2005C122.822 100.519 123.623 101.821 124.42 103.125C124.776 103.71 125.132 104.295 125.489 104.879C125.667 105.172 125.846 105.465 126.03 105.767C128.918 110.507 131.801 115.251 134.681 119.996C135.435 121.238 136.189 122.48 136.944 123.721C138.903 126.943 140.858 130.167 142.794 133.402C144.064 135.522 145.347 137.634 146.63 139.746C148.053 142.086 149.472 144.428 150.878 146.777C153.006 150.332 155.159 153.87 157.312 157.409C157.608 157.897 157.905 158.385 158.202 158.873C158.745 159.767 159.289 160.66 159.832 161.554C160.084 161.969 160.084 161.969 160.341 162.392C161.043 163.545 161.746 164.696 162.462 165.84C162.571 166.014 162.679 166.187 162.791 166.366C163.062 166.799 163.335 167.23 163.608 167.661C164.709 169.592 165.071 170.99 165.057 173.192C165.058 173.455 165.06 173.719 165.062 173.991C165.067 174.872 165.065 175.753 165.064 176.634C165.066 177.267 165.069 177.9 165.072 178.533C165.078 180.249 165.079 181.966 165.078 183.683C165.078 185.115 165.081 186.548 165.083 187.981C165.089 191.361 165.09 194.74 165.088 198.12C165.086 201.607 165.093 205.095 165.103 208.583C165.112 211.578 165.116 214.572 165.115 217.567C165.114 219.355 165.116 221.144 165.123 222.932C165.129 224.613 165.129 226.294 165.123 227.975C165.122 228.592 165.123 229.21 165.127 229.827C165.133 230.669 165.129 231.51 165.123 232.352C165.127 232.597 165.13 232.842 165.134 233.095C165.115 234.345 165.047 234.824 164.256 235.847C163.206 236.626 162.716 236.599 161.425 236.426C160.435 236.169 159.48 235.837 158.517 235.491C158.094 235.343 158.094 235.343 157.661 235.192C156.736 234.868 155.812 234.539 154.888 234.21C154.247 233.984 153.605 233.759 152.963 233.533C151.319 232.955 149.676 232.372 148.033 231.788C147.102 231.457 146.17 231.127 145.239 230.797C143.56 230.203 141.881 229.607 140.203 229.01C139.947 228.919 139.69 228.828 139.426 228.734C137.87 228.179 136.316 227.62 134.765 227.051C134.45 226.935 134.135 226.82 133.81 226.701C133.548 226.601 133.286 226.501 133.017 226.399C132.804 226.318 132.592 226.237 132.373 226.154C131.156 225.531 130.505 224.524 130.078 223.242C130.049 222.655 130.039 222.066 130.037 221.478C130.036 221.109 130.034 220.74 130.032 220.36C130.032 219.951 130.032 219.541 130.032 219.132C130.03 218.701 130.029 218.27 130.027 217.84C130.024 216.912 130.021 215.984 130.019 215.056C130.016 213.588 130.01 212.121 130.004 210.653C129.986 206.481 129.97 202.308 129.96 198.135C129.955 195.83 129.946 193.526 129.934 191.222C129.928 190.002 129.924 188.783 129.923 187.563C129.922 186.416 129.918 185.269 129.91 184.122C129.908 183.702 129.907 183.281 129.908 182.86C129.909 182.285 129.905 181.71 129.9 181.136C129.898 180.653 129.898 180.653 129.897 180.161C129.739 178.941 129.268 178.161 128.364 177.339C127.644 176.898 126.949 176.621 126.152 176.343C125.676 176.176 125.676 176.176 125.19 176.005C124.848 175.887 124.505 175.769 124.152 175.647C123.795 175.523 123.439 175.398 123.072 175.27C122.122 174.938 121.171 174.608 120.22 174.279C119.272 173.951 118.324 173.619 117.377 173.288C115.584 172.662 113.789 172.043 111.994 171.425C111.115 171.122 110.238 170.814 109.362 170.505C108.886 170.34 108.41 170.175 107.933 170.01C107.725 169.935 107.516 169.86 107.301 169.783C105.941 169.305 105.941 169.305 104.589 169.629C104.191 170.426 104.258 171.052 104.256 171.944C104.254 172.312 104.253 172.681 104.251 173.06C104.251 173.471 104.251 173.882 104.25 174.292C104.249 174.723 104.247 175.154 104.246 175.584C104.242 176.513 104.24 177.442 104.238 178.371C104.235 179.839 104.229 181.308 104.223 182.776C104.204 186.953 104.189 191.13 104.179 195.306C104.173 197.612 104.165 199.918 104.153 202.224C104.147 203.444 104.142 204.664 104.142 205.885C104.141 207.033 104.136 208.181 104.129 209.329C104.127 209.751 104.126 210.172 104.127 210.593C104.128 211.169 104.123 211.744 104.118 212.32C104.117 212.642 104.116 212.964 104.115 213.295C103.988 214.284 103.726 214.836 103.125 215.625C101.138 216.347 99.3341 215.451 97.4311 214.77C97.082 214.649 96.7328 214.528 96.373 214.403C95.6357 214.146 94.8992 213.888 94.1635 213.626C93.2269 213.294 92.2886 212.966 91.3495 212.64C90.4463 212.327 89.5442 212.011 88.6421 211.694C88.3082 211.577 87.9742 211.461 87.6302 211.341C82.6215 209.56 82.6215 209.56 81.1519 207.422C80.7611 206.198 80.8165 204.962 80.8178 203.689C80.8169 203.428 80.8161 203.166 80.8152 202.897C80.8126 202.02 80.8122 201.142 80.8118 200.265C80.8104 199.636 80.8089 199.008 80.8073 198.379C80.8035 196.67 80.8016 194.961 80.8003 193.253C80.7994 192.185 80.7982 191.118 80.7969 190.05C80.7929 186.71 80.7901 183.371 80.789 180.031C80.7877 176.175 80.7825 172.32 80.774 168.464C80.7677 165.484 80.7647 162.504 80.7643 159.524C80.764 157.744 80.7623 155.964 80.7571 154.184C80.7523 152.51 80.7516 150.835 80.7542 149.16C80.7544 148.546 80.7531 147.932 80.7502 147.318C80.7465 146.478 80.7482 145.639 80.7513 144.8C80.7489 144.558 80.7466 144.316 80.7441 144.066C80.7655 141.555 81.6423 139.695 83.1661 137.732C83.4559 137.348 83.7454 136.964 84.0347 136.58C84.1861 136.38 84.3375 136.18 84.4935 135.974C85.2947 134.906 86.0687 133.819 86.8465 132.733C88.1957 130.858 89.5688 129.004 90.9606 127.16C92.0562 125.705 93.1264 124.233 94.189 122.754C95.3918 121.08 96.6091 119.419 97.8511 117.774C99.2439 115.928 100.604 114.061 101.954 112.184C103.283 110.337 104.631 108.505 105.984 106.676C107.167 105.074 108.335 103.461 109.497 101.843C115.38 93.6684 115.38 93.6684 118.359 94.336ZM110.156 122.461C110.156 126.618 110.156 130.775 110.156 135.059C112.441 136.224 112.441 136.224 114.766 137.174C115.208 137.332 115.208 137.332 115.658 137.494C115.965 137.601 116.272 137.709 116.589 137.82C117.075 137.993 117.075 137.993 117.57 138.169C118.25 138.409 118.93 138.649 119.61 138.887C120.651 139.253 121.691 139.623 122.73 139.994C123.393 140.228 124.056 140.462 124.718 140.695C125.029 140.806 125.339 140.916 125.658 141.031C125.948 141.131 126.237 141.232 126.536 141.336C126.789 141.425 127.042 141.515 127.303 141.607C128.068 141.808 128.704 141.853 129.492 141.797C130.086 141.203 129.833 139.982 129.834 139.166C129.835 138.93 129.836 138.694 129.837 138.451C129.838 137.95 129.839 137.448 129.839 136.947C129.84 136.184 129.845 135.421 129.851 134.658C129.851 134.171 129.852 133.684 129.852 133.197C129.855 132.856 129.855 132.856 129.859 132.509C129.853 131.212 129.809 130.08 129.199 128.906C128.405 128.393 128.405 128.393 127.388 128.071C127.197 128.001 127.006 127.931 126.81 127.859C126.38 127.703 125.95 127.55 125.519 127.399C124.753 127.131 123.992 126.852 123.232 126.571C121.797 126.043 120.36 125.526 118.921 125.013C118.02 124.692 117.121 124.367 116.221 124.041C115.645 123.836 115.069 123.63 114.493 123.425C114.226 123.328 113.959 123.231 113.684 123.131C113.434 123.042 113.185 122.954 112.927 122.863C112.71 122.785 112.492 122.708 112.268 122.627C111.496 122.4 111.496 122.4 110.156 122.461Z" fill="black"/>
<path d="M168.58 62.9937C169.657 63.82 170.221 64.8348 170.911 65.9909C171.221 66.4963 171.531 67.0014 171.842 67.5061C172.006 67.7726 172.169 68.039 172.338 68.3135C173.217 69.728 174.134 71.1175 175.049 72.5095C176.544 74.7918 178.017 77.0861 179.468 79.3965C180.518 81.0664 181.588 82.7227 182.666 84.3747C183.903 86.2693 185.124 88.1721 186.328 90.0876C187.663 92.2111 189.022 94.3183 190.392 96.4189C191.662 98.3661 192.915 100.323 194.165 102.282C195.785 104.82 197.422 107.346 199.073 109.863C201.132 113.003 203.162 116.16 205.183 119.325C206.089 120.745 207.001 122.163 207.917 123.578C208.042 123.771 208.167 123.964 208.295 124.163C209.009 125.264 209.725 126.362 210.445 127.459C211.256 128.698 212.062 129.939 212.862 131.185C213.123 131.59 213.385 131.995 213.649 132.399C215.729 135.601 215.729 135.601 215.332 137.695C214.063 140.392 210.636 141.572 208.102 142.905C207.27 143.344 206.438 143.784 205.606 144.224C205.179 144.45 204.751 144.676 204.323 144.903C202.264 145.991 200.21 147.087 198.157 148.187C197.819 148.368 197.481 148.549 197.133 148.736C194.831 149.971 192.535 151.218 190.243 152.474C188.423 153.469 186.595 154.449 184.765 155.425C184.413 155.612 184.062 155.8 183.71 155.987C183.537 156.079 183.365 156.171 183.187 156.266C180.446 157.729 177.731 159.233 175.037 160.778C170.842 163.178 170.842 163.178 169.428 163.202C167.686 162.643 166.823 161.265 165.914 159.745C165.717 159.418 165.52 159.09 165.316 158.752C165.106 158.398 164.896 158.044 164.685 157.69C164.465 157.322 164.244 156.954 164.022 156.586C163.458 155.647 162.896 154.706 162.335 153.765C161.473 152.319 160.607 150.876 159.741 149.432C159.561 149.13 159.38 148.828 159.194 148.517C157.911 146.377 156.605 144.252 155.287 142.133C153.975 140.021 152.681 137.898 151.392 135.772C151.287 135.6 151.182 135.427 151.074 135.249C150.539 134.366 150.005 133.484 149.47 132.601C148.53 131.051 147.589 129.501 146.648 127.952C146.13 127.098 145.611 126.244 145.093 125.39C144.886 125.049 144.678 124.707 144.47 124.365C144.055 123.681 143.64 122.998 143.225 122.314C143.123 122.145 143.02 121.976 142.914 121.801C142.707 121.46 142.499 121.118 142.291 120.776C141.774 119.923 141.256 119.07 140.738 118.217C139.792 116.66 138.847 115.103 137.904 113.546C135.774 110.031 133.64 106.52 131.47 103.029C130.109 100.838 128.772 98.6325 127.435 96.4264C126.258 94.4898 125.049 92.5787 123.801 90.6873C123.035 89.4471 122.773 88.1547 123.047 86.7185C123.83 85.2445 124.747 84.5188 126.197 83.7705C126.499 83.6075 126.499 83.6075 126.807 83.4412C127.257 83.1988 127.708 82.9583 128.161 82.7193C128.961 82.2952 129.757 81.864 130.552 81.4313C131.746 80.782 132.941 80.1347 134.136 79.4892C135.814 78.5833 137.488 77.6714 139.16 76.7575C141.392 75.5389 143.626 74.3245 145.862 73.1137C146.153 72.9561 146.444 72.7985 146.744 72.6361C148.241 71.8257 149.738 71.016 151.236 70.2069C151.837 69.882 152.439 69.557 153.04 69.2319C153.332 69.074 153.624 68.9162 153.925 68.7535C155.5 67.9003 157.07 67.0387 158.633 66.1638C159.473 65.6936 160.316 65.2272 161.16 64.7623C161.685 64.4715 162.209 64.1768 162.732 63.8818C164.705 62.8167 166.412 62.0797 168.58 62.9937Z" fill="black"/>
<path d="M217.968 145.899C219.046 146.712 219.398 147.145 219.617 148.493C219.624 148.945 219.624 149.397 219.617 149.848C219.619 150.098 219.621 150.348 219.624 150.605C219.629 151.441 219.623 152.277 219.618 153.113C219.62 153.713 219.622 154.313 219.624 154.912C219.63 156.541 219.626 158.17 219.62 159.799C219.615 161.504 219.618 163.209 219.62 164.914C219.621 167.778 219.616 170.642 219.608 173.506C219.599 176.815 219.599 180.125 219.604 183.434C219.608 186.619 219.606 189.803 219.601 192.987C219.599 194.342 219.6 195.697 219.602 197.051C219.604 198.648 219.601 200.244 219.593 201.841C219.591 202.426 219.59 203.011 219.593 203.596C219.595 204.397 219.59 205.197 219.584 205.997C219.586 206.228 219.589 206.458 219.591 206.696C219.567 208.309 219.194 209.604 218.261 210.938C217.536 211.557 216.766 211.969 215.918 212.402C215.59 212.575 215.263 212.747 214.926 212.924C213.947 213.437 212.964 213.94 211.979 214.44C208.985 215.961 206.001 217.494 203.064 219.122C200.298 220.653 197.491 222.097 194.677 223.535C191.563 225.128 188.465 226.74 185.402 228.432C182.228 230.181 179.006 231.843 175.781 233.496C175.578 233.606 175.375 233.717 175.166 233.83C174.265 234.238 173.529 234.186 172.558 234.082C171.865 233.535 171.486 233.109 171.093 232.324C171.063 231.535 171.051 230.753 171.052 229.963C171.051 229.717 171.05 229.47 171.05 229.215C171.047 228.383 171.047 227.551 171.046 226.719C171.045 226.124 171.043 225.529 171.042 224.935C171.038 223.315 171.036 221.696 171.035 220.077C171.034 219.066 171.033 218.055 171.031 217.044C171.027 213.882 171.024 210.72 171.023 207.559C171.022 203.906 171.017 200.253 171.008 196.6C171.002 193.779 170.999 190.958 170.999 188.137C170.998 186.451 170.997 184.765 170.991 183.079C170.987 181.493 170.986 179.907 170.989 178.321C170.989 177.738 170.988 177.156 170.985 176.574C170.981 175.779 170.983 174.984 170.986 174.19C170.983 173.959 170.981 173.729 170.979 173.491C170.991 172.081 171.222 171.118 171.972 169.922C173.127 168.819 174.305 168.089 175.726 167.348C175.914 167.249 176.102 167.15 176.296 167.049C176.697 166.838 177.098 166.628 177.5 166.419C178.35 165.978 179.197 165.532 180.044 165.087C180.47 164.863 180.895 164.639 181.321 164.416C183.024 163.522 184.715 162.609 186.401 161.682C188.786 160.374 191.18 159.083 193.579 157.8C193.752 157.708 193.925 157.615 194.103 157.52C194.277 157.427 194.45 157.334 194.628 157.239C194.978 157.052 195.328 156.865 195.678 156.678C195.851 156.585 196.024 156.492 196.203 156.397C198.003 155.434 199.801 154.466 201.599 153.497C201.907 153.331 202.216 153.165 202.533 152.994C203.995 152.207 205.456 151.419 206.916 150.63C207.434 150.35 207.952 150.07 208.47 149.791C209.116 149.442 209.763 149.092 210.41 148.742C211.801 147.991 213.196 147.247 214.603 146.525C214.83 146.408 215.057 146.291 215.291 146.171C216.253 145.753 216.944 145.698 217.968 145.899ZM208.959 165.577C208.638 165.751 208.318 165.926 207.988 166.105C207.814 166.199 207.64 166.293 207.461 166.39C206.903 166.692 206.348 166.998 205.792 167.304C205.426 167.502 205.059 167.7 204.693 167.898C200.97 169.625 200.97 169.625 198.046 172.266C197.993 173 197.972 173.702 197.98 174.436C197.98 174.657 197.98 174.877 197.98 175.103C197.98 175.831 197.985 176.559 197.989 177.286C197.99 177.791 197.991 178.295 197.992 178.8C197.994 180.128 198 181.456 198.006 182.783C198.012 184.138 198.015 185.493 198.018 186.848C198.024 189.507 198.034 192.166 198.046 194.824C199.23 195.184 199.691 194.981 200.791 194.395C201.25 194.154 201.25 194.154 201.718 193.908C202.041 193.733 202.364 193.558 202.697 193.378C203.19 193.115 203.19 193.115 203.692 192.847C204.644 192.338 205.593 191.824 206.543 191.309C207.004 191.064 207.466 190.819 207.927 190.574C208.296 190.374 208.665 190.173 209.033 189.972C209.344 189.803 209.655 189.633 209.976 189.458C210.767 188.874 210.788 188.734 210.937 187.793C210.964 187.142 210.975 186.489 210.975 185.837C210.976 185.643 210.976 185.449 210.977 185.249C210.978 184.609 210.977 183.969 210.976 183.329C210.976 182.882 210.976 182.436 210.977 181.989C210.977 181.053 210.977 180.117 210.975 179.181C210.974 177.985 210.975 176.789 210.976 175.593C210.977 174.67 210.977 173.748 210.976 172.825C210.976 172.384 210.976 171.944 210.977 171.503C210.978 170.885 210.977 170.266 210.975 169.648C210.975 169.297 210.975 168.946 210.974 168.584C210.936 167.548 210.809 166.551 210.644 165.527C209.769 165.128 209.769 165.128 208.959 165.577ZM190.371 176.615C190.123 176.747 189.876 176.879 189.62 177.015C189.343 177.161 189.065 177.308 188.779 177.458C188.484 177.618 188.188 177.778 187.884 177.942C187.583 178.102 187.283 178.262 186.973 178.426C182.912 180.295 182.912 180.295 179.296 182.813C179.269 183.544 179.26 184.266 179.263 184.997C179.263 185.226 179.263 185.455 179.263 185.69C179.263 186.45 179.266 187.209 179.268 187.968C179.268 188.493 179.269 189.018 179.269 189.543C179.27 190.928 179.273 192.313 179.276 193.697C179.279 195.109 179.281 196.521 179.282 197.933C179.285 200.705 179.29 203.478 179.296 206.25C180.639 206.019 181.65 205.51 182.812 204.822C184.221 203.999 185.637 203.217 187.104 202.501C187.521 202.294 187.521 202.294 187.947 202.083C188.495 201.813 189.046 201.549 189.6 201.29C189.851 201.165 190.103 201.04 190.363 200.91C190.588 200.803 190.813 200.695 191.044 200.585C191.875 199.859 191.942 199.111 192.187 198.047C192.26 196.976 192.26 196.976 192.227 195.851C192.224 195.642 192.221 195.433 192.218 195.218C192.209 194.535 192.194 193.852 192.18 193.168C192.173 192.692 192.165 192.215 192.158 191.739C192.139 190.49 192.115 189.241 192.092 187.992C192.068 186.716 192.047 185.439 192.027 184.162C191.986 181.662 191.941 179.161 191.894 176.66C191.05 176.276 191.05 176.276 190.371 176.615Z" fill="black"/>
<path d="M138.281 113.379C138.765 113.379 139.248 113.379 139.746 113.379C139.939 113.862 140.133 114.346 140.332 114.844C140.042 115.134 139.752 115.424 139.453 115.723C138.281 114.368 138.281 114.368 138.281 113.379Z" fill="black"/>
<path d="M125.684 84.082C126.27 84.668 126.27 84.668 126.27 85.5469C125.979 85.5469 125.689 85.5469 125.391 85.5469C125.391 85.7402 125.391 85.9336 125.391 86.1328C125.101 86.2295 124.811 86.3262 124.512 86.4258C124.222 86.1357 123.932 85.8457 123.633 85.5469C125.024 84.4116 125.024 84.4116 125.684 84.082Z" fill="black"/>
<path d="M158.203 144.141C158.3 144.431 158.396 144.721 158.496 145.02C158.689 144.923 158.883 144.826 159.082 144.727C158.985 145.21 158.889 145.693 158.789 146.191C158.499 146.288 158.209 146.385 157.91 146.484C157.62 145.904 157.33 145.324 157.031 144.727C157.418 144.533 157.805 144.34 158.203 144.141Z" fill="black"/>
<path d="M149.121 131.25C149.846 131.54 149.846 131.54 150.586 131.836C150.489 132.416 150.393 132.996 150.293 133.594C149.121 132.239 149.121 132.239 149.121 131.25Z" fill="black"/>
<path d="M209.766 213.867C210.388 214.142 210.388 214.142 210.938 214.453C210.938 214.646 210.938 214.84 210.938 215.039C210.551 215.136 210.164 215.232 209.766 215.332C209.572 214.945 209.379 214.559 209.18 214.16C209.373 214.063 209.566 213.967 209.766 213.867Z" fill="black"/>
<path d="M134.473 225.586C134.956 225.586 135.439 225.586 135.938 225.586C135.841 226.069 135.744 226.553 135.645 227.051C135.258 226.954 134.871 226.857 134.473 226.758C134.473 226.367 134.473 225.977 134.473 225.586Z" fill="black"/>
<path d="M130.664 81.4453C130.761 81.7354 130.857 82.0254 130.957 82.3242C130.667 82.4209 130.377 82.5176 130.078 82.6172C129.981 82.8105 129.885 83.0039 129.785 83.2031C129.592 83.2031 129.398 83.2031 129.199 83.2031C129.103 82.9131 129.006 82.623 128.906 82.3242C129.486 82.0342 130.066 81.7441 130.664 81.4453Z" fill="black"/>
</svg>
