<svg width="300" height="300" viewBox="0 0 300 300" fill="none" xmlns="http://www.w3.org/2000/svg">
<path d="M193.78 36.9877C194.033 36.9989 194.287 37.0101 194.548 37.0216C196.134 37.1167 197.459 37.2062 198.632 38.3793C198.706 38.9281 198.706 38.9281 198.706 39.6089C198.708 39.996 198.708 39.996 198.711 40.3909C198.709 40.675 198.708 40.9591 198.707 41.2517C198.709 41.7 198.709 41.7 198.71 42.1573C198.712 42.8094 198.713 43.4614 198.713 44.1135C198.712 45.1532 198.716 46.1928 198.721 47.2325C198.735 50.1899 198.742 53.1474 198.744 56.1049C198.745 57.914 198.752 59.7231 198.763 61.5322C198.766 62.215 198.766 62.8977 198.765 63.5805C198.742 73.8093 201.183 82.8473 204.423 92.435C205.007 94.1658 205.586 95.898 206.167 97.63C206.382 98.2725 206.598 98.915 206.814 99.5574C208.087 103.352 209.331 107.156 210.556 110.967C211.257 113.148 211.975 115.32 212.73 117.483C214.248 121.846 215.548 126.031 215.917 130.664C215.954 131.006 215.991 131.347 216.028 131.698C216.119 132.624 216.174 133.543 216.21 134.473C216.218 134.676 216.226 134.878 216.234 135.087C216.473 142.056 216.473 142.056 214.379 144.526C214.019 144.891 213.653 145.252 213.281 145.606C213.113 145.78 212.946 145.953 212.774 146.132C211.753 147.188 210.672 148.159 209.56 149.117C208.737 149.838 207.933 150.578 207.128 151.319C205.97 152.386 204.801 153.439 203.61 154.469C202.918 155.076 202.241 155.697 201.562 156.318C197.67 159.826 197.67 159.826 194.557 159.785C189.555 159.14 182.4 153.061 179.296 149.122C178.386 147.666 178.297 146.534 178.344 144.873C178.346 144.659 178.347 144.444 178.349 144.222C178.366 142.993 178.5 141.839 178.71 140.625C178.528 138.697 177.522 137.856 176.08 136.634C174.821 135.644 173.524 134.716 172.211 133.799C170.762 132.783 169.353 131.713 167.941 130.645C167.754 130.504 167.566 130.362 167.373 130.216C167.207 130.09 167.041 129.965 166.871 129.835C166.432 129.512 165.98 129.209 165.527 128.907C165.174 129.194 165.174 129.194 165.207 129.735C165.304 131.267 165.629 132.484 166.29 133.872C166.449 134.206 166.608 134.54 166.772 134.885C167.639 136.667 168.516 138.444 169.404 140.216C169.605 140.617 169.805 141.019 170.006 141.421C170.424 142.257 170.843 143.094 171.262 143.93C171.79 144.985 172.317 146.04 172.843 147.095C174.862 151.138 176.891 155.174 179.013 159.165C179.718 160.493 180.391 161.835 181.054 163.184C182.367 165.834 183.736 168.453 185.126 171.063C185.537 171.849 185.931 172.644 186.327 173.438C186.881 173.441 186.881 173.441 187.445 173.443C190.915 173.46 194.386 173.481 197.856 173.507C199.64 173.52 201.425 173.532 203.209 173.539C204.93 173.547 206.651 173.559 208.372 173.574C209.029 173.579 209.687 173.582 210.344 173.584C211.264 173.587 212.182 173.595 213.101 173.604C213.512 173.604 213.512 173.604 213.93 173.603C214.18 173.607 214.431 173.61 214.688 173.614C214.906 173.615 215.123 173.617 215.347 173.618C216.101 173.767 216.325 174.008 216.796 174.61C216.906 175.278 216.906 175.278 216.907 176.079C216.909 176.384 216.911 176.69 216.914 177.004C216.912 177.341 216.91 177.677 216.908 178.024C216.909 178.381 216.911 178.737 216.912 179.105C216.915 180.097 216.914 181.088 216.911 182.08C216.909 183.149 216.912 184.218 216.915 185.286C216.919 187.381 216.918 189.476 216.915 191.57C216.913 193.272 216.913 194.974 216.914 196.676C216.914 196.918 216.914 197.16 216.914 197.409C216.915 197.9 216.915 198.392 216.915 198.883C216.918 203.495 216.915 208.106 216.91 212.717C216.906 216.677 216.907 220.636 216.911 224.596C216.916 229.191 216.917 233.785 216.915 238.38C216.914 238.869 216.914 239.359 216.914 239.849C216.914 240.09 216.914 240.331 216.913 240.579C216.913 242.279 216.914 243.98 216.916 245.68C216.918 247.751 216.918 249.823 216.913 251.894C216.911 252.951 216.91 254.009 216.913 255.066C216.916 256.211 216.912 257.356 216.908 258.5C216.91 258.837 216.912 259.173 216.914 259.52C216.911 259.825 216.909 260.131 216.907 260.445C216.907 260.842 216.907 260.842 216.906 261.247C216.796 261.915 216.796 261.914 216.485 262.439C215.615 262.982 214.741 262.913 213.747 262.903C213.523 262.904 213.299 262.906 213.069 262.907C212.312 262.91 211.556 262.906 210.799 262.903C210.254 262.904 209.709 262.905 209.163 262.907C207.66 262.91 206.157 262.907 204.653 262.904C203.034 262.901 201.414 262.904 199.795 262.906C196.621 262.909 193.447 262.907 190.272 262.903C186.579 262.899 182.886 262.9 179.193 262.9C172.407 262.901 165.62 262.897 158.834 262.891C152.635 262.886 146.435 262.884 140.236 262.886C139.838 262.886 139.44 262.886 139.042 262.886C138.845 262.886 138.648 262.886 138.445 262.886C137.455 262.887 136.464 262.887 135.473 262.887C135.278 262.887 135.083 262.887 134.881 262.887C129.706 262.888 124.53 262.887 119.355 262.884C118.613 262.884 117.872 262.884 117.13 262.883C116.765 262.883 116.401 262.883 116.025 262.883C113.447 262.882 110.87 262.882 108.293 262.882C105.155 262.883 102.016 262.881 98.878 262.877C97.2753 262.875 95.6727 262.874 94.07 262.875C92.605 262.876 91.14 262.875 89.675 262.871C89.143 262.87 88.6109 262.87 88.0788 262.872C87.3597 262.873 86.6407 262.871 85.9216 262.868C85.6063 262.87 85.6063 262.87 85.2846 262.872C83.8553 262.86 83.8553 262.86 83.2025 262.207C83.1381 261.302 83.1112 260.422 83.1091 259.516C83.1061 259.232 83.1032 258.948 83.1002 258.655C83.091 257.691 83.0861 256.727 83.0812 255.762C83.0756 255.065 83.0698 254.367 83.0638 253.67C83.0499 251.947 83.0389 250.224 83.0295 248.501C83.0218 247.086 83.013 245.671 83.0037 244.257C82.9633 238.099 82.9357 231.941 82.9125 225.783C82.9095 224.985 82.9063 224.188 82.9032 223.391C82.8731 215.727 82.8523 208.063 82.8408 200.399C82.8377 198.424 82.8324 196.449 82.8263 194.473C82.8189 192.047 82.8147 189.621 82.8146 187.195C82.8145 185.943 82.8129 184.692 82.8077 183.441C82.8029 182.288 82.8022 181.134 82.8048 179.981C82.805 179.562 82.8037 179.142 82.8008 178.723C82.7971 178.153 82.7993 177.583 82.8019 177.012C82.8014 176.695 82.801 176.377 82.8005 176.05C82.9252 175.073 83.2036 174.517 83.7884 173.731C84.3723 173.538 84.3723 173.538 85.0278 173.524C85.2629 173.515 85.498 173.507 85.7402 173.498C86.1064 173.495 86.1064 173.495 86.4801 173.493C86.8514 173.482 86.8514 173.482 87.2302 173.471C87.8406 173.453 88.4513 173.445 89.0619 173.438C89.031 173.145 89.031 173.145 88.9994 172.846C88.7467 170.193 88.7234 167.555 88.7217 164.893C88.7203 164.395 88.7189 163.897 88.7173 163.399C88.7135 162.054 88.7115 160.71 88.7102 159.365C88.7094 158.52 88.7082 157.676 88.7069 156.831C88.7029 154.176 88.7 151.521 88.6989 148.866C88.6976 145.825 88.6925 142.784 88.684 139.743C88.6776 137.378 88.6747 135.012 88.6743 132.647C88.674 131.241 88.6723 129.836 88.667 128.43C88.6133 113.375 90.3634 99.0164 97.558 85.5473C97.661 85.3525 97.7641 85.1578 97.8702 84.9571C102.417 76.4195 109.093 68.7071 116.894 62.9887C117.085 62.8464 117.276 62.7042 117.473 62.5576C125.329 56.7245 134.314 52.5848 143.847 50.3911C144.074 50.3379 144.301 50.2847 144.534 50.2298C152.223 48.4701 160.056 48.2094 167.907 48.3726C168.162 48.3764 168.418 48.3801 168.68 48.384C169.157 48.3912 169.634 48.4021 170.111 48.4174C172.448 48.4485 174.002 47.6157 175.72 46.0583C176.329 45.4482 176.893 44.8113 177.456 44.1592C180.55 40.6086 184.931 37.6372 189.669 36.9763C191.046 36.8955 192.403 36.9269 193.78 36.9877ZM186.163 49.1826C186.006 49.3283 185.85 49.474 185.688 49.6242C184.706 50.5446 183.775 51.5017 182.848 52.4785C181.186 54.157 179.307 55.4016 177.245 56.5434C177.041 56.6738 176.836 56.8041 176.626 56.9384C174.051 58.3803 171.323 58.2133 168.455 58.2102C166.941 58.2093 165.426 58.2331 163.912 58.2531C163.468 58.2581 163.468 58.2581 163.016 58.2631C144.59 58.4836 128.225 64.4992 115.136 77.6372C104.767 88.4922 99.4553 103.173 98.8603 118.039C98.848 118.346 98.8357 118.652 98.823 118.968C98.6913 122.525 98.6857 126.08 98.6932 129.639C98.6936 130.013 98.6939 130.386 98.6943 130.771C98.7028 139.531 98.7767 148.291 98.8488 157.051C98.858 158.188 98.8667 159.324 98.8754 160.461C98.8892 162.265 98.9045 164.069 98.9211 165.873C98.9271 166.549 98.9326 167.225 98.9376 167.901C98.9446 168.831 98.9534 169.76 98.9626 170.69C98.9643 170.966 98.966 171.243 98.9677 171.528C98.8606 172.724 98.8606 172.724 99.3158 173.731C99.7063 173.759 100.098 173.768 100.49 173.768C100.872 173.769 100.872 173.769 101.261 173.77C101.544 173.769 101.826 173.769 102.118 173.768C102.565 173.769 102.565 173.769 103.02 173.769C104.027 173.771 105.033 173.77 106.04 173.769C106.758 173.769 107.476 173.77 108.195 173.77C109.949 173.772 111.703 173.771 113.457 173.771C114.882 173.77 116.308 173.77 117.734 173.77C118.038 173.77 118.038 173.77 118.348 173.77C118.76 173.77 119.171 173.77 119.583 173.771C123.448 173.771 127.314 173.77 131.179 173.769C134.495 173.768 137.811 173.768 141.127 173.769C144.975 173.771 148.824 173.771 152.672 173.77C153.083 173.77 153.494 173.77 153.904 173.77C154.208 173.77 154.208 173.77 154.517 173.77C155.94 173.77 157.363 173.77 158.786 173.771C160.703 173.772 162.621 173.771 164.538 173.769C165.242 173.769 165.946 173.769 166.65 173.77C167.611 173.771 168.572 173.77 169.533 173.768C169.812 173.769 170.09 173.769 170.378 173.77C171.82 173.766 173.187 173.683 174.609 173.438C173.133 170.245 171.587 167.102 169.945 163.992C168.518 161.276 167.15 158.533 165.783 155.787C163.758 151.713 163.758 151.713 161.663 147.675C161.503 147.373 161.503 147.373 161.34 147.065C160.801 146.05 160.261 145.035 159.721 144.021C159.22 143.08 158.723 142.138 158.227 141.194C158.031 140.822 157.834 140.45 157.635 140.078C154.959 135.076 154.316 130.923 155.859 125.391C156.172 124.53 156.498 123.684 156.862 122.844C157.091 122.181 157.091 122.181 156.844 121.592C156.34 120.841 155.795 120.133 155.236 119.422C151.841 114.976 149.756 110.031 148.535 104.59C148.482 104.366 148.43 104.141 148.376 103.91C147.863 101.465 147.832 99.0375 147.839 96.5519C147.839 96.3318 147.839 96.1117 147.839 95.885C147.851 92.3201 148.127 88.9873 149.12 85.5473C149.179 85.3321 149.237 85.1169 149.297 84.8951C150.721 79.6996 153.514 72.8077 157.842 69.3768C158.951 68.7572 160.026 68.3757 161.242 68.0241C161.452 67.9571 161.662 67.89 161.878 67.821C163.406 67.3702 164.551 67.335 166.113 67.6762C166.992 68.4269 166.992 68.4269 167.577 69.1411C166.751 72.1363 165.175 74.7927 163.348 77.2893C158.642 83.8574 156.377 92.0042 157.419 100.053C158.533 106.721 161.275 113.239 166.699 117.481C167.534 118.059 168.381 118.614 169.233 119.167C170.34 119.896 171.393 120.691 172.448 121.491C174.129 122.765 175.825 124.014 177.538 125.245C178.418 125.879 179.297 126.514 180.175 127.149C180.393 127.306 180.611 127.464 180.836 127.626C181.472 128.087 182.106 128.551 182.739 129.017C182.927 129.152 183.116 129.288 183.31 129.428C186.204 131.573 187.562 133.957 188.132 137.525C188.224 138.186 188.312 138.847 188.397 139.508C188.754 143.33 188.754 143.33 190.954 146.282C191.38 146.592 191.809 146.898 192.242 147.199C192.461 147.357 192.681 147.516 192.907 147.679C193.446 148.066 193.987 148.449 194.531 148.829C195.803 147.751 197.046 146.652 198.266 145.514C199.41 144.453 200.577 143.447 201.8 142.475C203.92 140.758 206.269 138.67 206.633 135.814C206.654 134.967 206.609 134.146 206.542 133.301C206.525 132.985 206.508 132.67 206.49 132.344C206.266 129.865 205.601 127.748 204.713 125.44C203.721 122.837 202.859 120.198 202.006 117.547C201.557 116.151 201.104 114.756 200.651 113.361C200.51 112.928 200.51 112.928 200.367 112.485C199.367 109.412 198.342 106.348 197.314 103.285C197.131 102.739 196.948 102.194 196.765 101.648C196.029 99.4515 195.292 97.255 194.552 95.0594C190.939 84.3311 190.939 84.3311 189.916 80.6183C189.853 80.3901 189.79 80.1619 189.725 79.9267C188.683 75.9455 188.591 72.0674 188.614 67.9818C188.615 67.3961 188.616 66.8103 188.617 66.2246C188.619 64.6955 188.624 63.1663 188.631 61.6372C188.637 60.0718 188.64 58.5065 188.643 56.9411C188.649 53.8788 188.659 50.8166 188.671 47.7543C187.464 47.7543 186.99 48.3924 186.163 49.1826ZM93.1634 183.692C93.1634 198.774 93.1634 213.856 93.1634 229.395C130.578 229.395 167.993 229.395 206.542 229.395C210.237 214.615 206.643 198.926 206.542 183.692C169.127 183.692 131.712 183.692 93.1634 183.692ZM93.1634 239.356C93.1634 243.803 93.1634 248.25 93.1634 252.832C130.675 252.832 168.187 252.832 206.835 252.832C206.835 248.482 206.835 244.131 206.835 239.649C206.521 239.269 206.521 239.269 205.779 239.32C205.262 239.32 205.262 239.32 204.736 239.32C204.544 239.32 204.352 239.319 204.154 239.319C203.504 239.318 202.853 239.319 202.203 239.321C201.735 239.321 201.267 239.32 200.799 239.32C199.507 239.319 198.215 239.32 196.923 239.322C195.532 239.323 194.141 239.323 192.75 239.323C190.338 239.322 187.926 239.323 185.514 239.325C182.027 239.327 178.539 239.328 175.052 239.328C169.394 239.329 163.737 239.331 158.08 239.334C152.582 239.336 147.085 239.339 141.588 239.34C141.249 239.34 140.911 239.34 140.562 239.34C138.863 239.34 137.165 239.341 135.466 239.341C121.365 239.344 107.264 239.349 93.1634 239.356Z" fill="black"/>
<path d="M183.728 84.009C185.778 85.6138 186.928 87.3772 187.5 89.9416C187.76 92.5951 187.712 94.884 186.123 97.0724C184.647 98.8616 183.255 99.7548 181.054 100.488C178.083 100.743 175.646 100.376 173.217 98.5841C171.336 96.7967 170.405 94.5247 170.324 91.9557C170.412 90.1138 170.797 88.6274 171.679 87.0119C171.782 86.8227 171.885 86.6335 171.99 86.4385C173.095 84.6787 174.792 83.666 176.641 82.8005C179.323 82.2533 181.376 82.6919 183.728 84.009Z" fill="black"/>
</svg>
