<svg width="300" height="300" viewBox="0 0 300 300" fill="none" xmlns="http://www.w3.org/2000/svg">
<path d="M121.582 72.0703C121.679 72.0703 121.776 72.0703 121.875 72.0703C121.892 72.5422 121.892 72.5422 121.909 73.0236C121.928 73.4444 121.947 73.8651 121.967 74.2859C121.974 74.4923 121.98 74.6987 121.987 74.9113C122.061 76.3717 122.293 77.5228 123.047 78.8086C123.736 79.4191 124.484 79.8723 125.281 80.3284C125.495 80.4546 125.708 80.5807 125.928 80.7107C126.527 81.0603 127.13 81.4005 127.735 81.7383C127.966 81.8723 128.196 82.0064 128.434 82.1445C129.929 82.9115 131.52 83.1462 133.155 83.4595C136.709 84.1532 138.692 85.6139 140.918 88.4766C141.159 88.7706 141.159 88.7706 141.404 89.0705C142.726 90.936 143.078 92.9684 143.527 95.165C143.983 97.33 144.639 99.36 145.386 101.44C146.627 104.967 147.465 108.537 148.243 112.189C148.3 112.455 148.357 112.72 148.416 112.994C149.026 115.846 149.602 118.659 149.707 121.582C149.719 121.878 149.73 122.173 149.741 122.477C149.884 127.655 149.435 132.631 148.64 137.739C148.053 141.566 148.204 144.836 149.101 148.6C149.58 150.837 149.58 150.837 148.93 152.023C147.494 153.917 145.851 155.457 143.848 156.738C143.655 156.738 143.461 156.738 143.262 156.738C143.256 156.567 143.251 156.396 143.245 156.219C143.217 155.44 143.184 154.661 143.152 153.882C143.139 153.477 143.139 153.477 143.125 153.065C143.114 152.804 143.102 152.544 143.091 152.275C143.081 152.036 143.072 151.796 143.063 151.55C142.962 150.83 142.742 150.335 142.383 149.707C142.2 149.919 142.016 150.13 141.827 150.348C141.588 150.62 141.348 150.892 141.102 151.172C140.864 151.444 140.626 151.716 140.381 151.996C140.171 152.207 139.962 152.419 139.747 152.637C139.553 152.637 139.36 152.637 139.161 152.637C138.762 149.494 139.55 147.005 140.619 144.08C141.642 141.267 142.204 138.569 142.182 135.571C142.181 135.333 142.179 135.094 142.178 134.848C142.13 132.228 141.641 129.783 140.902 127.267C140.218 124.931 139.893 122.829 139.843 120.398C139.763 117.086 138.974 114.48 137.513 111.511C136.233 108.844 135.067 106.184 134.137 103.374C133.516 101.607 132.614 100.315 131.25 99.0234C131.154 99.0234 131.057 99.0234 130.957 99.0234C131.039 99.321 131.12 99.6186 131.204 99.9252C133.066 106.923 131.734 112.788 129.108 119.44C128.006 122.267 127.671 124.793 128.614 127.734C129.112 128.686 129.722 129.518 130.372 130.371C130.697 130.827 131.02 131.285 131.342 131.744C131.514 131.986 131.686 132.229 131.864 132.478C132.276 133.085 132.661 133.688 133.036 134.316C134.737 137.141 136.58 138.939 139.454 140.625C139.29 142.103 138.935 143.339 138.41 144.727C137.348 147.771 137.56 150.922 137.696 154.102C139.275 154.172 139.931 153.861 141.211 152.93C141.405 152.93 141.598 152.93 141.797 152.93C141.792 153.491 141.792 153.491 141.787 154.063C141.784 154.552 141.782 155.041 141.779 155.53C141.777 155.776 141.774 156.023 141.772 156.277C141.771 156.513 141.77 156.749 141.769 156.992C141.767 157.21 141.766 157.428 141.764 157.653C141.763 158.23 141.763 158.23 142.09 158.789C145.004 158.548 146.772 156.607 148.605 154.474C150.511 152.222 150.511 152.222 150.958 149.392C150.786 147.523 150.379 145.684 150 143.848C150.237 143.846 150.474 143.845 150.718 143.844C155.818 143.799 160.581 143.45 165.568 142.283C166.917 141.972 168.273 141.702 169.629 141.431C169.859 141.383 170.088 141.335 170.324 141.286C179.242 139.467 188.292 141.503 196.253 145.732C197.256 146 197.92 145.866 198.926 145.605C199.807 145.085 200.595 144.461 201.398 143.829C205.668 140.604 210.428 137.947 215.956 138.699C220.599 139.545 224.53 141.684 227.238 145.595C229.061 148.368 230.332 151.401 230.86 154.688C230.892 154.887 230.925 155.086 230.958 155.291C231.617 160.139 230.776 164.811 229.824 169.557C229.765 169.855 229.765 169.855 229.704 170.159C229.507 171.149 229.305 172.138 229.097 173.126C228.414 176.484 228.316 179.477 229.01 182.831C229.062 183.091 229.113 183.351 229.166 183.619C229.634 185.914 230.22 188.172 230.845 190.429C231.302 192.123 231.486 193.706 231.482 195.465C231.483 195.82 231.484 196.174 231.485 196.54C231.446 197.461 231.446 197.461 231.153 198.34C230.959 198.34 230.766 198.34 230.567 198.34C230.113 197.791 229.721 197.209 229.316 196.623C228.186 195.225 226.978 194.621 225.284 194.077C224.879 193.943 224.474 193.81 224.069 193.676C223.44 193.472 222.811 193.27 222.181 193.069C217.507 191.563 212.939 189.813 210.425 185.319C207.606 179.556 209.002 172.997 210.457 167.053C211.92 161.635 211.92 161.635 211.03 156.226C209.834 154.546 208.827 153.987 206.836 153.516C206.062 153.477 205.286 153.465 204.511 153.479C204.21 153.483 204.21 153.483 203.904 153.487C203.416 153.494 202.929 153.504 202.442 153.516C202.612 153.942 202.612 153.942 202.785 154.376C205.774 162.01 206.368 169.173 205.372 177.264C204.99 180.384 204.662 183.473 204.639 186.621C204.634 186.904 204.629 187.186 204.623 187.477C204.664 192.355 207.621 196.233 210.645 199.805C211.231 200.508 211.81 201.217 212.384 201.929C212.523 202.095 212.661 202.261 212.804 202.432C214.181 204.145 214.448 205.635 214.56 207.794C214.721 210.447 215.347 212.957 215.973 215.533C216.155 216.295 216.336 217.057 216.517 217.819C216.637 218.325 216.758 218.831 216.878 219.338C217.313 221.162 217.709 222.991 218.093 224.827C218.753 227.964 219.585 230.929 220.776 233.907C221.666 236.164 221.914 238.653 221.137 240.985C220.519 241.816 220.047 242.356 219.141 242.871C218.024 242.798 218.024 242.798 217.09 242.578C216.994 242.191 216.897 241.805 216.797 241.406C216.604 241.503 216.411 241.6 216.211 241.699C216.324 243.395 216.891 244.668 217.613 246.198C218.333 247.765 218.771 249.06 218.262 250.781C217.179 252.131 215.509 252.349 213.868 252.539C212.665 252.615 211.465 252.64 210.26 252.649C209.956 252.653 209.652 252.657 209.339 252.661C207.593 252.651 206.332 252.484 204.786 251.66C204.903 249.854 205.495 248.795 206.507 247.321C207.482 245.832 208.251 244.531 208.661 242.784C209.039 241.461 209.635 240.228 210.202 238.977C210.288 238.786 210.374 238.595 210.463 238.399C210.579 238.146 210.579 238.146 210.697 237.888C212.11 234.466 211.566 231.005 210.883 227.454C210.784 226.923 210.784 226.923 210.682 226.381C209.571 218.825 209.571 218.825 205.262 212.933C203.436 211.562 202.687 209.975 201.784 207.94C201.116 206.45 200.345 205.148 199.018 204.163C198.787 203.991 198.556 203.819 198.317 203.642C198.035 203.439 197.752 203.236 197.461 203.027C197.289 202.903 197.116 202.778 196.938 202.65C192.833 199.694 188.67 196.754 184.278 194.238C184.41 199.087 185.347 203.492 187.124 208.012C187.805 209.81 188.184 211.537 187.553 213.408C186.314 215.312 184.917 217.08 183.512 218.863C179.549 223.915 176.495 229.337 174.055 235.272C172.231 239.628 172.231 239.628 171.003 240.417C169.736 240.89 168.915 240.914 167.579 240.82C167.385 240.337 167.192 239.854 166.993 239.355C166.606 239.549 166.219 239.742 165.821 239.941C165.787 241.896 165.922 243.788 166.135 245.732C166.11 246.822 165.907 247.296 165.235 248.145C161.86 249.832 157.397 250.179 153.809 249.023C152.93 248.547 152.93 248.547 152.344 248.145C152.488 246.713 153.203 245.736 154.01 244.592C154.923 243.276 155.745 241.99 156.446 240.546C157.211 239.088 158.155 238.311 159.465 237.341C165.449 232.624 173.217 222.382 174.134 214.705C174.382 208.396 171.22 203.6 167.634 198.737C162.189 191.34 162.189 191.34 162.012 186.914C166.269 185.716 170.181 185.064 174.61 185.156C174.9 185.156 175.19 185.156 175.489 185.156C172.944 183.403 170.384 183.289 167.388 183.832C165.615 184.226 163.863 184.705 162.111 185.183C157.138 186.536 152.196 187.787 147.071 188.379C146.769 188.417 146.468 188.455 146.158 188.494C141.524 188.987 136.766 188.723 132.129 188.379C131.59 192.176 131.499 195.771 131.69 199.603C131.74 200.647 131.789 201.691 131.836 202.734C131.853 203.099 131.87 203.464 131.887 203.84C131.949 206.543 131.619 209.165 131.294 211.844C130.555 218.001 130.566 223.413 132.148 229.431C134.045 236.65 134.045 236.65 132.734 239.717C131.999 240.938 131.253 241.538 129.909 241.906C129.389 242.01 128.867 242.101 128.343 242.18C127.739 242.224 127.739 242.224 127.442 242.578C127.156 244.683 127.749 246.067 128.789 247.863C129.246 248.678 129.5 249.195 129.441 250.14C129.127 250.975 128.803 251.229 128.028 251.66C126.271 252.113 124.457 252.008 122.656 252.007C122.032 252.008 121.408 252.013 120.784 252.019C114.732 252.044 114.732 252.044 112.793 251.074C113.187 250.232 113.648 249.529 114.203 248.785C115.013 247.604 115.447 246.412 115.851 245.05C116.433 243.132 117.207 241.905 118.653 240.527C122.222 236.883 123.163 231.448 123.34 226.465C123.355 226.165 123.371 225.864 123.386 225.555C123.499 221.468 122.867 217.459 121.372 213.654C121.186 213.18 121.186 213.18 120.997 212.695C120.917 212.508 120.837 212.321 120.755 212.127C119.989 210.155 120.052 208.324 120.118 206.232C120.213 199.125 117.925 193.103 115.385 186.542C115.276 186.259 115.168 185.976 115.056 185.685C114.959 185.434 114.861 185.183 114.761 184.925C114.551 184.277 114.551 184.277 114.551 183.398C114.31 183.332 114.068 183.266 113.819 183.197C112.579 182.732 111.548 182.078 110.45 181.348C110.566 181.5 110.683 181.652 110.803 181.809C110.959 182.013 111.114 182.217 111.274 182.428C111.427 182.629 111.58 182.829 111.737 183.036C112.229 183.721 112.661 184.428 113.086 185.156C106.642 186.024 100.148 186.61 93.6449 186.158C91.746 186.028 89.8492 185.959 87.946 185.925C87.6432 185.914 87.3404 185.903 87.0284 185.892C85.6535 185.876 84.9061 185.874 83.746 186.66C83.1196 187.63 83.0023 188.183 82.9655 189.331C82.9527 189.692 82.9399 190.053 82.9266 190.425C82.921 190.817 82.9157 191.209 82.9106 191.602C82.8993 192.012 82.8878 192.422 82.8763 192.833C82.7639 198.187 83.6058 202.482 86.7867 206.898C87.8169 208.522 88.0449 209.939 87.8911 211.816C87.5981 212.421 87.5981 212.421 87.0122 212.695C86.2029 212.673 85.4704 212.547 84.6684 212.402C84.7651 212.982 84.8618 213.563 84.9614 214.16C87.0816 214.36 88.1094 213.593 89.7645 212.435C90.7787 211.768 91.2617 211.524 92.5133 211.521C93.8366 211.935 94.0987 212.466 94.7827 213.617C96.6154 217.161 98.4966 221.198 97.852 225.293C97.5339 225.833 97.5339 225.833 96.9731 226.172C95.1394 226.391 93.4743 225.86 91.718 225.366C91.4395 225.292 91.1609 225.218 90.874 225.142C88.3245 224.439 86.3864 223.673 84.5586 221.704C83.5577 220.653 82.5395 219.684 81.3908 218.793C77.0816 215.437 77.0816 215.437 76.6263 212.814C76.5144 211.884 76.4232 210.954 76.3371 210.022C75.8033 204.929 74.7673 200.096 73.3788 195.171C73.3091 194.924 73.2394 194.676 73.1675 194.421C73.015 193.883 72.8608 193.345 72.7055 192.807C71.4467 188.366 72.1143 183.887 74.268 179.791C75.2987 178.151 76.4401 177.134 78.2231 176.367C79.0399 176.219 79.8362 176.1 80.6584 176.001C85.98 175.239 90.9159 173.804 95.5769 171.105C96.4263 170.618 97.1571 170.32 98.145 170.215C98.0215 169.876 97.898 169.537 97.7708 169.187C97.6086 168.736 97.4464 168.285 97.2844 167.834C97.203 167.612 97.1216 167.389 97.0378 167.159C96.9594 166.94 96.881 166.721 96.8003 166.496C96.7282 166.296 96.6561 166.097 96.5818 165.891C96.1192 164.33 96.0444 162.793 96.053 161.175C96.0537 160.958 96.0545 160.74 96.0553 160.516C96.0765 158.239 96.2488 155.983 96.4604 153.717C96.4793 153.505 96.4983 153.293 96.5177 153.075C96.7859 150.078 97.1567 147.114 97.614 144.141C98.19 140.374 98.3269 136.857 97.9619 133.063C97.8484 131.806 97.8975 130.717 98.1175 129.476C98.4415 127.501 98.6277 125.537 98.7675 123.541C98.8042 123.019 98.8042 123.019 98.8416 122.486C99.0125 119.931 99.1398 117.405 99.0239 114.844C99.0103 114.532 98.9967 114.22 98.9827 113.899C98.9309 112.809 98.8691 111.721 98.8042 110.632C98.7771 110.109 98.7771 110.109 98.7495 109.576C98.6204 107.666 98.3472 106.09 97.531 104.351C97.0535 103.197 97.0152 102.017 96.9731 100.781C96.9555 100.349 96.9555 100.349 96.9376 99.9081C96.8975 98.0476 97.0797 96.4265 97.559 94.6289C96.6439 95.0591 96.6439 95.0591 95.8012 95.8008C95.6568 96.6341 95.6267 97.2077 95.6834 98.0312C95.6911 98.2499 95.6988 98.4686 95.7067 98.6939C95.7235 99.1567 95.7438 99.6194 95.7676 100.082C95.8107 100.978 95.8266 101.873 95.8425 102.77C95.8593 103.659 95.8848 104.549 95.9103 105.438C95.9295 106.112 95.9469 106.787 95.9643 107.462C95.9766 107.906 95.989 108.351 96.0015 108.796C96.0069 109.012 96.0123 109.228 96.0179 109.451C96.0578 110.809 96.1855 112.135 96.3425 113.485C96.5064 115.621 95.8597 117.063 94.9223 118.945C94.6632 119.558 94.4081 120.172 94.1567 120.788C93.8935 121.407 93.6299 122.025 93.3659 122.644C93.2385 122.953 93.111 123.262 92.9797 123.58C92.0512 125.739 90.9083 127.44 89.3559 129.199C89.1123 129.483 88.8687 129.766 88.6178 130.059C88.2852 130.422 88.2852 130.422 87.946 130.792C87.7551 131.001 87.7551 131.001 87.5603 131.214C86.6439 132.203 85.694 133.152 84.7302 134.094C84.482 134.337 84.2338 134.581 83.9781 134.832C83.4834 135.316 82.986 135.797 82.4857 136.274C80.5315 138.184 79.3461 139.575 79.3114 142.376C79.3286 143.025 79.3505 143.675 79.3767 144.324C79.435 147.084 79.4727 149.711 78.5161 152.344C77.9301 152.93 77.9301 152.93 77.1977 153.021C76.956 152.991 76.7143 152.961 76.4653 152.93C75.8785 152.049 75.735 151.55 75.5498 150.531C75.4761 150.135 75.4761 150.135 75.401 149.731C75.3655 149.53 75.33 149.328 75.2934 149.121C74.3821 150.278 73.6816 151.247 73.8286 152.765C74.074 154.132 74.5124 155.44 75.0004 156.738C74.6137 156.932 74.227 157.125 73.8286 157.324C71.245 155.285 69.4035 152.918 68.7142 149.66C68.4815 147.298 69.7096 145.393 70.8018 143.395C71.3962 142.299 71.968 141.192 72.5425 140.086C72.9855 139.234 73.4315 138.383 73.8778 137.533C74.0178 137.263 74.1579 136.993 74.3022 136.716C74.5557 136.229 74.8121 135.744 75.0727 135.261C76.3073 132.912 77.1715 130.424 78.0766 127.936C78.2409 127.487 78.4053 127.039 78.5699 126.591C78.6504 126.371 78.731 126.151 78.814 125.925C78.9748 125.487 79.136 125.05 79.2975 124.613C79.6596 123.632 80.0166 122.652 80.3611 121.665C81.0811 119.658 81.8967 118.182 83.2951 116.583C85.2327 114.203 86.2912 111.787 87.3059 108.913C87.8481 107.415 88.4535 105.941 89.0446 104.462C89.2685 103.901 89.491 103.34 89.7118 102.778C89.8528 102.422 89.8528 102.422 89.9967 102.059C90.4158 100.841 90.5625 99.7026 90.5793 98.4192C90.6884 93.3842 91.228 88.8461 94.8582 84.993C95.839 84.1564 96.5855 83.7658 97.852 83.6838C101.714 83.3902 101.714 83.3902 105.176 81.7383C105.46 81.563 105.744 81.3878 106.037 81.2073C107.803 79.3335 107.949 76.2773 108.399 73.8281C109.327 74.2407 109.971 74.7428 110.706 75.4395C112.414 76.9472 113.889 77.18 116.131 77.1194C117.502 76.9962 118.266 76.6058 119.183 75.5779C120.078 74.4592 120.863 73.3098 121.582 72.0703Z" fill="black"/>
<path d="M123.047 50.6836C124.667 51.4183 125.638 52.4791 126.306 54.134C126.876 56.1036 127.034 57.8289 126.27 59.7656C125.648 60.5347 125.648 60.5347 125.098 60.9375C124.228 60.6475 123.358 60.3574 122.462 60.0586C122.534 60.4846 122.534 60.4846 122.608 60.9192C123.167 65.191 121.753 69.2942 119.532 72.9492C119.072 73.5419 118.655 73.9344 118.067 74.4141C117.786 74.6678 117.786 74.6678 117.499 74.9268C116.305 75.6507 115.343 75.6186 113.984 75.4028C112.262 74.8857 111.17 74.2261 110.221 72.6917C106.934 66.3561 106.934 66.3561 106.934 64.1602C106.644 64.3052 106.644 64.3052 106.348 64.4531C106.211 65.1434 106.211 65.1434 106.165 65.9363C106.132 66.3402 106.132 66.3402 106.099 66.7522C106.084 66.9603 106.07 67.1684 106.055 67.3828C104.684 66.3003 104.362 65.3961 104.053 63.6921C104.004 62.9879 104.084 62.4848 104.297 61.8164C106.275 61.4868 106.275 61.4868 106.934 61.8164C106.977 61.5564 106.977 61.5564 107.021 61.2911C107.3 59.8201 107.566 58.7769 108.692 57.7148C109.917 57.0912 111.01 57.0447 112.372 57.0007C115.666 56.8393 118.624 56.2742 121.29 54.1992C122.204 53.1016 122.656 52.052 123.047 50.6836Z" fill="black"/>
<path d="M114.221 47.6624C114.525 47.6614 114.829 47.6605 115.142 47.6595C119.674 47.6909 119.674 47.6909 121.179 49.0173C121.668 49.9735 121.592 50.2604 121.289 51.2695C120.377 52.7132 119.249 53.8655 117.594 54.3606C115.528 54.7494 113.413 54.7644 111.318 54.8355C111.062 54.8455 110.806 54.8554 110.543 54.8657C110.042 54.8847 109.542 54.9003 109.041 54.9118C107.333 54.9759 105.888 55.3371 104.297 55.957C104.385 53.5759 105.296 51.8201 106.913 50.0725C109.223 47.9426 111.156 47.6151 114.221 47.6624Z" fill="black"/>
<path d="M114.551 64.1602C115.034 64.1602 115.518 64.1602 116.016 64.1602C116.164 64.6661 116.31 65.1728 116.455 65.6799C116.537 65.962 116.618 66.2441 116.702 66.5348C116.885 67.3399 116.931 68.0262 116.895 68.8477C114.954 68.9209 114.954 68.9209 113.965 68.2617C114.028 67.9807 114.028 67.9807 114.093 67.6941C114.308 66.5219 114.429 65.3452 114.551 64.1602Z" fill="black"/>
<path d="M113.672 69.7266C114.929 69.7266 116.186 69.7266 117.48 69.7266C117.48 70.1133 117.48 70.5 117.48 70.8984C114.724 70.9525 114.724 70.9525 113.379 70.6055C113.476 70.3154 113.572 70.0254 113.672 69.7266Z" fill="black"/>
<path d="M124.219 62.9883C125.098 63.8672 125.098 63.8672 125.226 64.9841C125.182 66.2436 124.733 66.9956 123.926 67.9688C123.732 68.0654 123.539 68.1621 123.34 68.2617C123.63 66.5215 123.92 64.7812 124.219 62.9883Z" fill="black"/>
</svg>
