<svg width="300" height="300" viewBox="0 0 300 300" fill="none" xmlns="http://www.w3.org/2000/svg">
<path d="M126.562 64.1602C126.659 64.1602 126.756 64.1602 126.855 64.1602C126.905 64.4679 126.955 64.7757 127.006 65.0928C127.389 67.3518 127.754 69.4718 128.906 71.4844C129.022 71.6891 129.139 71.8938 129.259 72.1046C130.338 73.8476 131.699 75.3055 133.1 76.7887C133.887 77.6367 133.887 77.6367 134.247 78.1348C134.638 78.6957 134.638 78.6957 135.351 79.3945C136.256 79.5546 136.256 79.5546 137.201 79.3762C137.67 79.3167 137.67 79.3167 138.149 79.2561C138.483 79.2051 138.816 79.1541 139.16 79.1016C140.768 78.8751 142.329 78.7588 143.952 78.7491C144.179 78.7472 144.406 78.7454 144.64 78.7435C145.371 78.7388 146.101 78.7371 146.832 78.7354C147.082 78.7337 147.331 78.732 147.588 78.7303C150.504 78.7139 153.235 78.8167 156.097 79.4312C158.512 79.9064 159.981 79.4283 162.018 78.0725C162.612 77.6462 163.191 77.2046 163.769 76.7578C164.152 76.4795 164.534 76.2018 164.917 75.9247C167.926 73.6995 170.587 71.3847 171.273 67.551C171.37 66.8737 171.458 66.195 171.535 65.5151C171.607 65.1345 171.607 65.1345 171.68 64.7461C171.873 64.6494 172.066 64.5527 172.265 64.4531C174.767 69.4086 176.081 74.1242 174.617 79.6772C173.536 82.8703 171.491 84.5984 168.75 86.4258C168.847 87.3926 168.943 88.3594 169.043 89.3555C168.656 89.2588 168.269 89.1621 167.871 89.0625C165.787 88.8651 164.009 88.929 162.305 90.2344C161.724 90.8251 161.194 91.4307 160.677 92.078C160.008 92.8682 159.664 92.8715 158.606 92.981C157.121 92.9755 156.14 92.2696 154.98 91.4062C155.635 93.1771 155.635 93.1771 156.775 94.6472C158.048 95.0624 159.222 95.112 160.547 94.9219C161.823 94.2713 162.845 93.313 163.911 92.3641C164.928 91.5123 166.018 91.6139 167.285 91.6992C167.575 91.7959 167.865 91.8926 168.164 91.9922C168.09 92.3189 168.015 92.6455 167.938 92.9821C167.734 94.6267 168.406 95.8092 169.134 97.2473C170.522 100.051 171.552 102.612 170.801 105.762C170.282 107.088 169.679 108.279 168.766 109.376C168.061 110.289 167.591 111.253 167.12 112.299C167.035 112.482 166.95 112.665 166.862 112.854C166.604 113.417 166.358 113.983 166.113 114.551C165.996 114.816 165.996 114.816 165.877 115.086C165.267 116.564 165.112 117.828 165.126 119.417C165.121 119.9 165.117 120.383 165.113 120.866C165.111 121.239 165.111 121.239 165.11 121.62C165.072 128.77 164.413 135.161 160.254 141.211C160.76 140.919 161.266 140.627 161.772 140.334C162.305 140.039 162.305 140.039 162.982 139.746C163.633 139.36 163.734 138.96 164.062 138.281C164.341 137.834 164.622 137.389 164.905 136.945C166.581 134.151 167.259 131.204 167.871 128.027C176.729 135.189 181.668 147.143 182.886 158.24C182.964 159.008 183.036 159.777 183.105 160.547C183.299 160.547 183.492 160.547 183.691 160.547C185.521 154.405 183.975 148.751 181.64 142.969C181.472 142.668 181.472 142.668 181.3 142.361C181.055 141.797 181.055 141.797 181.348 140.918C193.444 142.51 205.906 144.946 213.787 155.172C218.07 160.956 220.016 167.805 220.55 174.902C220.77 177.726 221.221 180.49 221.741 183.27C221.795 183.566 221.795 183.566 221.85 183.867C223.068 190.471 225.071 196.321 230.729 200.336C230.983 200.511 231.238 200.686 231.5 200.867C233.575 202.295 235.011 203.714 235.547 206.25C235.586 206.663 235.612 207.078 235.629 207.493C235.645 207.879 235.645 207.879 235.662 208.273C235.677 208.704 235.677 208.704 235.693 209.143C235.705 209.449 235.717 209.755 235.729 210.071C235.812 212.365 235.866 214.659 235.913 216.954C235.919 217.251 235.925 217.548 235.932 217.855C235.962 219.36 235.991 220.866 236.018 222.372C236.029 222.939 236.039 223.507 236.05 224.074C236.056 224.459 236.056 224.459 236.062 224.851C236.092 226.36 236.193 227.846 236.358 229.346C236.743 232.938 236.743 232.938 235.895 234.43C234.56 235.536 232.953 235.356 231.299 235.419C230.985 235.431 230.671 235.443 230.347 235.455C227.631 235.547 224.916 235.587 222.199 235.598C221.735 235.601 221.27 235.604 220.806 235.608C220.15 235.613 219.495 235.614 218.839 235.614C218.46 235.616 218.08 235.617 217.688 235.618C216.797 235.547 216.797 235.547 216.211 234.961C215.73 233.334 216.139 232.085 216.797 230.566C217.942 228.518 219.777 227.642 221.843 226.722C223.143 226.133 224.059 225.527 225 224.414C226.073 221.193 225.3 216.448 223.939 213.39C221.776 209.671 217.965 207.668 214.35 205.599C206.658 201.184 201.763 197.058 198.423 188.686C196.485 183.85 193.837 179.513 189.844 176.074C189.554 175.978 189.264 175.881 188.965 175.781C188.816 176.138 188.667 176.495 188.514 176.863C188.31 177.338 188.107 177.814 187.903 178.29C187.806 178.524 187.709 178.758 187.609 179C186.404 181.784 184.726 183.613 181.933 184.863C180.675 185.233 179.415 185.512 178.125 185.742C177.738 184.968 177.865 184.514 177.96 183.655C178.424 178.486 177.995 174.115 175.781 169.336C175.395 169.655 175.395 169.655 175.469 170.436C175.476 170.797 175.483 171.158 175.49 171.53C175.496 171.948 175.501 172.366 175.505 172.785C175.514 173.431 175.524 174.076 175.538 174.722C175.729 183.761 174.381 192.867 173.361 201.83C173.183 203.396 173.007 204.963 172.831 206.53C172.694 207.747 172.557 208.965 172.418 210.182C172.156 212.497 171.898 214.813 171.65 217.13C171.625 217.355 171.601 217.58 171.575 217.811C171.15 221.822 171.422 225.036 172.676 228.854C173.352 230.938 173.605 232.374 172.829 234.459C172.558 234.961 172.558 234.961 171.973 235.254C171.439 235.296 170.904 235.321 170.369 235.337C170.034 235.348 169.699 235.358 169.353 235.369C167.818 235.409 166.284 235.448 164.749 235.482C163.939 235.5 163.129 235.522 162.318 235.548C161.152 235.586 159.986 235.612 158.82 235.636C158.276 235.656 158.276 235.656 157.722 235.676C154.925 235.717 154.925 235.717 154.018 234.871C153.347 233.818 153.325 233.262 153.515 232.031C154.107 230.454 154.968 229.633 156.445 228.809C156.634 228.73 156.823 228.651 157.017 228.571C159.009 227.719 159.954 226.39 160.795 224.417C161.211 223 161.13 221.589 161.038 220.13C161.024 219.912 161.011 219.695 160.997 219.47C160.826 216.903 160.505 214.356 160.178 211.805C160.112 211.278 160.046 210.75 159.979 210.223C159.804 208.83 159.626 207.438 159.448 206.046C159.338 205.185 159.228 204.324 159.119 203.462C158.272 196.81 157.414 190.16 156.427 183.527C156.386 183.25 156.345 182.972 156.303 182.687C156.19 181.928 156.075 181.17 155.959 180.413C155.927 180.201 155.896 179.99 155.863 179.773C155.595 178.079 155.329 176.589 154.083 175.36C152.905 174.09 152.078 172.675 151.229 171.176C150.627 170.125 150.026 169.266 149.121 168.457C149.351 171.548 150.029 174.77 152.2 177.144C152.832 178.141 152.94 179.193 153.107 180.341C153.145 180.583 153.182 180.826 153.221 181.076C153.3 181.588 153.378 182.1 153.454 182.613C153.57 183.396 153.691 184.179 153.812 184.962C153.889 185.46 153.965 185.958 154.041 186.456C154.094 186.807 154.094 186.807 154.149 187.165C154.298 188.171 154.394 189.117 154.394 190.137C147.416 191.816 140.365 190.758 134.18 187.207C131.907 185.804 129.826 184.209 128.027 182.227C127.785 181.985 127.544 181.743 127.295 181.494C127.053 181.252 126.811 181.011 126.562 180.762C126.411 180.616 126.259 180.469 126.103 180.319C124.879 179.127 123.806 177.886 122.79 176.514C122.64 176.311 122.489 176.108 122.333 175.899C115.678 166.801 111.773 156.367 113.415 145.001C114.287 139.615 116.003 132.136 120.117 128.32C120.196 128.668 120.274 129.015 120.355 129.373C121.62 134.701 123.698 139.962 128.32 143.262C130.417 144.547 132.291 145.302 134.765 145.312C134.525 145.156 134.284 145 134.035 144.839C128.205 140.982 124.622 135.947 123.216 129.058C122.773 126.361 122.709 123.73 122.717 120.996C122.715 120.418 122.715 120.418 122.714 119.829C122.715 118.044 122.747 116.296 122.978 114.526C123.261 112.226 123.224 110.071 122.386 107.91C121.059 103.761 122.667 100.231 124.358 96.5057C125.454 94.0559 125.553 90.9076 124.658 88.3484C124.426 87.7997 124.18 87.2572 123.926 86.7188C123.729 86.2976 123.533 85.8765 123.336 85.4553C123.022 84.7842 122.706 84.1146 122.382 83.4481C122.283 83.2438 122.184 83.0394 122.082 82.8289C121.993 82.6469 121.904 82.4649 121.812 82.2774C120.424 79.0229 121.308 74.9807 122.461 71.7773C123.555 69.0775 124.774 66.4706 126.562 64.1602ZM133.594 89.6484C132.892 90.5845 132.892 90.5845 132.715 91.6992C132.892 91.6713 133.07 91.6433 133.253 91.6145C135.953 91.2572 138.119 91.4805 140.332 93.1641C142 94.4099 143.48 95.0939 145.605 94.9219C147.144 94.4697 148.295 93.6864 149.121 92.2852C148.976 91.8501 148.976 91.8501 148.828 91.4062C148.538 91.5573 148.248 91.7084 147.949 91.864C146.707 92.3712 145.696 92.4795 144.433 91.9922C143.425 91.3625 142.471 90.6899 141.519 89.9792C139.313 88.4402 135.86 87.919 133.594 89.6484ZM137.695 93.457C137.598 93.5537 137.502 93.6504 137.402 93.75C137.444 95.0218 137.444 95.0218 137.988 96.0938C138.672 96.1057 139.355 96.1062 140.039 96.0938C140.232 95.707 140.426 95.3203 140.625 94.9219C140.303 94.6752 139.979 94.4316 139.654 94.1895C139.474 94.0535 139.294 93.9175 139.109 93.7775C138.552 93.3817 138.552 93.3817 137.695 93.457ZM163.476 94.043C162.896 94.7197 162.316 95.3965 161.719 96.0938C162.795 96.7793 162.795 96.7793 163.678 96.5332C164.454 96.1382 164.454 96.1382 164.593 95.1782C164.621 94.7613 164.621 94.7613 164.648 94.3359C164.262 94.2393 163.875 94.1426 163.476 94.043ZM158.789 97.8516C158.692 98.0449 158.596 98.2383 158.496 98.4375C159.203 100.512 160.569 102.295 161.871 104.03C163.254 105.89 163.707 107.288 163.476 109.57C163.212 110.979 162.885 112.134 161.993 113.269C160.45 113.992 158.981 113.919 157.369 113.406C156.818 113.194 156.267 112.981 155.717 112.766C154.043 112.162 152.843 112.51 151.227 113.086C149.216 113.789 147.359 114.087 145.312 113.342C143.462 112.319 142.335 110.122 141.211 108.398C139.727 108.53 139.727 108.53 138.464 109.241C137.595 110.377 137.619 111.403 137.695 112.793C137.889 112.986 138.082 113.18 138.281 113.379C138.861 112.992 139.441 112.605 140.039 112.207C140.117 112.425 140.196 112.642 140.277 112.866C140.575 113.657 140.575 113.657 141.032 114.172C141.654 115.058 141.999 116.012 142.364 117.023C142.44 117.23 142.516 117.437 142.595 117.651C143.556 120.301 144.434 122.942 144.875 125.734C144.923 125.911 144.97 126.087 145.019 126.27C145.816 126.668 146.423 126.474 147.279 126.35C150.253 125.923 152.906 126.088 155.859 126.562C156.543 126.662 157.226 126.759 157.91 126.855C156.524 128.677 155.503 129.177 153.223 129.492C152.362 129.54 151.503 129.548 150.641 129.547C150.407 129.547 150.173 129.547 149.932 129.546C147.907 129.525 145.916 129.404 144.14 128.32C143.753 127.794 143.753 127.794 143.414 127.159C143.286 126.926 143.158 126.693 143.026 126.453C142.892 126.205 142.758 125.957 142.621 125.702C140.614 122.11 138.156 118.73 134.765 116.309C134.572 116.309 134.379 116.309 134.18 116.309C134.559 117.56 135.038 118.624 135.702 119.75C135.886 120.066 136.071 120.381 136.261 120.707C136.456 121.038 136.652 121.369 136.853 121.71C138.117 123.863 139.354 126.018 140.478 128.247C141.513 130.207 142.387 131.435 144.507 132.163C146.253 132.568 148.044 132.52 149.827 132.514C150.438 132.513 151.049 132.52 151.66 132.528C154.655 132.654 154.655 132.654 157.324 131.543C158.907 129.634 159.676 127.234 160.455 124.915C160.57 124.581 160.685 124.248 160.803 123.904C161.55 121.675 162.085 119.515 162.355 117.181C162.665 116.066 163.14 115.804 164.062 115.137C164.591 114.433 164.591 114.433 165.015 113.672C165.234 113.3 165.234 113.3 165.459 112.921C166.557 110.751 166.478 107.569 165.913 105.224C165.637 104.572 165.33 104.008 164.941 103.418C164.817 103.222 164.693 103.025 164.565 102.823C163.111 100.717 161.175 98.8306 158.789 97.8516ZM148.517 105.414C147.881 106.459 147.72 106.909 147.949 108.105C148.555 109.172 148.999 109.517 150.128 110.01C151.16 110.24 151.16 110.24 152.032 109.827C152.232 109.645 152.431 109.464 152.637 109.277C152.637 108.891 152.637 108.504 152.637 108.105C151.766 107.815 150.896 107.525 150 107.227C150.586 106.055 150.586 106.055 151.099 105.835C152.589 105.67 154.09 105.782 155.585 105.835C156.111 105.847 156.111 105.847 156.647 105.859C157.15 105.877 157.15 105.877 157.664 105.894C158.125 105.909 158.125 105.909 158.594 105.923C159.457 106.068 159.727 106.253 160.254 106.934C159.871 107.698 159.563 107.719 158.771 107.996C158.556 108.072 158.341 108.148 158.119 108.227C157.954 108.283 157.788 108.34 157.617 108.398C157.762 109.124 157.762 109.124 157.91 109.863C159.676 110.024 159.676 110.024 161.279 109.406C161.865 108.453 161.992 107.758 162.012 106.641C161.481 105.298 160.615 104.698 159.375 104.004C157.963 103.602 156.51 103.646 155.054 103.638C154.803 103.632 154.552 103.626 154.294 103.619C152.215 103.607 150.006 103.815 148.517 105.414Z" fill="black"/>
<path d="M117.188 66.5039C117.659 67.2097 117.943 67.7403 118.232 68.5181C118.305 68.7107 118.378 68.9033 118.453 69.1017C118.9 70.4956 118.986 71.7802 118.983 73.2422C118.983 73.4349 118.983 73.6277 118.982 73.8263C118.974 75.0702 118.889 76.29 118.763 77.5269C118.613 79.2031 118.808 80.6962 119.094 82.3483C119.575 85.1782 118.762 87.4823 117.773 90.1485C117.117 92.0157 117.156 93.3383 117.774 95.2148C118.022 95.7069 118.275 96.1966 118.532 96.6843C119.395 98.5554 119.375 100.164 119.276 102.191C119.212 104.672 119.23 106.868 119.897 109.269C120.938 113.447 121.551 119.616 119.511 123.484C118.998 124.323 118.46 125.139 117.897 125.945C117.176 127.015 116.579 128.149 115.98 129.291C115.859 129.52 115.738 129.748 115.614 129.984C110.68 139.541 108.528 151.182 111.701 161.635C113.339 166.76 115.952 172.543 119.642 176.534C121.823 179.084 121.824 181.234 121.576 184.495C121.518 185.149 121.459 185.802 121.4 186.456C121.348 187.147 121.299 187.838 121.25 188.529C121.155 189.857 121.056 191.184 120.951 192.511C120.605 196.852 120.339 201.198 120.064 205.544C119.967 207.062 119.868 208.58 119.766 210.097C119.701 211.059 119.638 212.02 119.574 212.982C119.544 213.427 119.514 213.872 119.484 214.318C119.302 216.947 119.212 219.554 119.241 222.19C119.232 226.472 119.232 226.472 118.653 227.051C118.58 227.486 118.523 227.925 118.474 228.363C118.423 228.766 118.423 228.766 118.372 229.178C118.304 229.743 118.238 230.31 118.175 230.876C117.968 232.499 117.754 233.718 116.602 234.961C114.98 235.714 113.346 235.632 111.594 235.625C111.283 235.625 110.971 235.626 110.649 235.626C109.991 235.627 109.333 235.626 108.675 235.623C107.67 235.62 106.666 235.623 105.661 235.627C105.02 235.627 104.38 235.626 103.739 235.625C103.44 235.626 103.14 235.627 102.832 235.628C101.365 235.619 100.087 235.595 98.7313 234.961C98.1179 233.734 98.3287 232.374 98.7313 231.116C99.8542 229.502 101.478 228.613 103.162 227.655C105.499 226.277 106.68 224.546 107.429 221.96C107.713 219.575 107.392 217.28 107.05 214.92C107 214.565 106.95 214.209 106.899 213.843C106.762 212.874 106.624 211.906 106.484 210.937C106.338 209.914 106.194 208.891 106.049 207.868C105.775 205.927 105.498 203.985 105.221 202.044C104.818 199.218 104.417 196.392 104.017 193.566C103.957 193.143 103.897 192.72 103.837 192.298C103.808 192.091 103.779 191.884 103.748 191.67C103.577 190.462 103.405 189.254 103.233 188.046C103.151 187.474 103.07 186.902 102.989 186.33C102.885 185.6 102.781 184.871 102.676 184.141C102.436 182.45 102.207 180.759 102.006 179.064C101.968 178.753 101.93 178.442 101.892 178.122C101.823 177.547 101.757 176.971 101.695 176.394C101.471 174.528 101.057 173.277 99.5919 172.028C94.7176 167.256 92.4076 159.71 92.2311 153.058C92.2999 148.121 93.3846 143.039 95.5087 138.574C95.702 138.478 95.8954 138.381 96.0946 138.281C96.2759 138.595 96.2759 138.595 96.4608 138.914C98.3494 142.046 100.611 144.245 104.215 145.239C105.35 145.48 106.355 145.605 107.52 145.605C107.333 145.474 107.145 145.343 106.952 145.208C106.423 144.839 105.895 144.468 105.369 144.095C104.931 143.791 104.488 143.492 104.032 143.216C100.951 141.298 99.3316 137.762 98.1454 134.473C98.0344 134.168 97.9233 133.862 97.8089 133.548C96.6266 129.885 96.0375 125.723 96.0946 121.875C96.3305 121.781 96.5664 121.687 96.8094 121.589C102.939 119.187 102.939 119.187 108.692 116.016C99.8439 116.174 93.3525 120.226 87.0785 126.105C83.7378 129.227 80.9255 130.294 76.2425 130.148C74.1033 129.92 72.9625 129.078 71.5871 127.452C71.1895 126.851 71.0237 126.388 70.8993 125.684C74.4924 125.196 77.8737 125.377 81.4462 125.977C81.4945 125.644 81.5429 125.312 81.5927 124.969C82.1935 122.668 83.8783 121.226 85.8731 120.052C86.9938 119.422 88.1323 118.829 89.2762 118.243C90.9853 117.345 92.2343 116.464 92.872 114.551C92.9925 113.313 92.9983 112.237 92.5424 111.072C91.659 110.071 90.8507 109.651 89.5177 109.476C86.1823 109.334 83.4605 110.857 80.5867 112.357C78.5635 113.339 76.0699 113.518 73.9137 112.834C73.4793 112.635 73.0498 112.425 72.6285 112.199C71.2576 111.498 69.7693 111.413 68.2626 111.621C67.0544 112.036 65.9008 112.539 64.747 113.086C62.9938 110.69 62.701 108.416 62.9891 105.469C63.5535 103.387 65.0635 102.04 66.8812 100.975C67.8445 100.473 68.8191 99.996 69.7967 99.5218C71.1368 98.8491 72.1629 98.3074 72.9501 96.9727C73.0635 95.5436 72.9388 94.2795 72.6571 92.8711C73.9087 93.0337 74.6691 93.471 75.6967 94.1895C76.9892 95.0338 77.8417 95.57 79.3954 95.5078C80.258 95.1941 80.6978 94.9231 81.1452 94.1128C81.3645 93.61 81.554 93.0945 81.7391 92.5781C81.4491 92.6748 81.1591 92.7715 80.8602 92.8711C79.0561 93.019 78.2103 92.8808 76.7587 91.6992C76.2094 91.1865 76.2094 91.1865 75.8798 90.8203C77.8447 86.5583 83.7345 83.9576 87.8915 82.3242C91.2134 81.1428 94.3625 80.8047 97.8696 80.8051C98.4674 80.8045 99.0651 80.7991 99.6629 80.7936C101.86 80.7844 103.965 80.9236 106.131 81.3137C107.748 81.5785 108.894 81.5833 110.301 80.6877C114.248 77.4608 116.067 72.2809 116.79 67.3759C116.895 66.7969 116.895 66.7969 117.188 66.5039ZM91.8612 92.2592C90.1992 93.2892 88.679 93.5482 86.7196 93.457C86.8274 94.1793 86.8927 94.532 87.4715 94.9997C88.8617 95.6853 90.1378 96.145 91.7001 95.8008C92.9657 95.2553 94.0734 94.5306 95.1791 93.7134C97.5695 92.2791 100.106 92.1567 102.833 92.2852C102.747 91.0222 102.747 91.0222 102.022 90.0467C98.6748 88.007 94.7109 90.4116 91.8612 92.2592ZM94.0438 96.3867C94.0438 96.6768 94.0438 96.9668 94.0438 97.2656C94.8173 97.3623 95.5907 97.459 96.3876 97.5586C97.1107 96.5789 97.1107 96.5789 97.1749 95.4163C97.1085 95.2531 97.042 95.09 96.9735 94.9219C95.4935 94.7104 94.9573 95.2645 94.0438 96.3867ZM64.248 104.109C63.5345 105.012 63.5469 106.11 63.5751 107.227C63.8027 108.011 63.8027 108.011 64.454 108.398C65.5162 108.496 65.5162 108.496 66.5048 108.398C66.6981 108.012 66.8915 107.625 67.0907 107.227C66.849 107.1 66.6073 106.973 66.3583 106.842C65.9957 106.597 65.9957 106.597 65.6259 106.348C65.6259 106.058 65.6259 105.768 65.6259 105.469C66.9808 104.944 68.1305 104.796 69.5809 104.791C69.9526 104.786 70.3242 104.781 70.707 104.776C71.8607 104.891 72.5586 105.148 73.536 105.762C73.7294 106.052 73.9227 106.342 74.122 106.641C73.4452 106.737 72.7684 106.834 72.0712 106.934C72.0712 107.32 72.0712 107.707 72.0712 108.105C72.4253 108.523 72.4253 108.523 73.4628 108.49C74.3702 108.472 74.7454 108.38 75.5868 107.959C76.2584 107.12 76.3873 106.531 76.3135 105.457C76.0661 104.447 75.5237 104.025 74.7079 103.418C73.1643 102.633 71.9449 102.387 70.2218 102.411C70.004 102.412 69.7863 102.414 69.5619 102.416C67.5902 102.47 65.8198 102.855 64.248 104.109Z" fill="black"/>
<path d="M236.719 93.1641C237.238 94.2017 236.972 95.2854 236.719 96.3867C235.524 99.2016 233.092 100.788 230.454 102.112C227.016 103.498 223.664 104.022 219.993 104.395C217.634 104.668 215.137 105.008 213.421 106.82C212.558 108.008 212.507 109.381 212.566 110.809C213.016 113.613 215.209 115.604 217.401 117.218C217.827 117.521 218.255 117.822 218.684 118.121C219.15 118.453 219.617 118.786 220.083 119.118C220.317 119.284 220.551 119.45 220.791 119.622C232.399 127.916 232.399 127.916 233.699 134.444C233.744 134.748 233.744 134.748 233.79 135.059C233.829 135.313 233.868 135.567 233.908 135.829C234.465 140.531 233.417 145.223 230.545 149.023C227.273 152.992 223.41 155.099 218.37 155.997C217.676 155.859 217.676 155.859 217.039 155.109C216.826 154.776 216.618 154.44 216.413 154.102C215.446 152.597 214.435 151.338 213.116 150.114C212.977 149.98 212.839 149.846 212.696 149.707C212.696 149.61 212.696 149.514 212.696 149.414C213.05 149.368 213.404 149.321 213.769 149.273C218.263 148.648 222.596 147.872 225.678 144.25C227.085 142.219 227.499 139.981 227.216 137.549C226.016 131.554 221.45 128.197 216.798 124.805C212.216 121.454 208.082 118.362 206.635 112.573C206.25 108.569 206.697 104.941 209.18 101.66C211.363 99.1717 214.725 98.0729 217.945 97.8048C219.743 97.6877 221.543 97.6187 223.342 97.5501C228.31 97.4364 228.31 97.4364 232.728 95.3796C232.966 95.2014 233.205 95.0231 233.451 94.8395C233.949 94.4422 234.439 94.034 234.925 93.6218C235.548 93.1641 235.548 93.1641 236.719 93.1641Z" fill="black"/>
<path d="M159.082 116.895C159.591 118.847 159.028 120.635 158.055 122.368C157.004 123.953 157.004 123.953 156.445 124.512C155.741 124.592 155.046 124.652 154.34 124.695C154.027 124.715 154.027 124.715 153.708 124.735C151.672 124.844 149.686 124.718 147.656 124.512C147.617 124.327 147.577 124.142 147.536 123.951C147.066 121.999 146.356 120.32 145.411 118.561C144.976 117.741 144.727 117.253 144.727 116.309C144.978 116.356 144.978 116.356 145.234 116.404C146.771 116.631 147.98 116.577 149.487 116.181C152.914 115.311 155.821 115.557 159.082 116.895Z" fill="black"/>
<path d="M77.9301 68.5547C77.9342 68.8591 77.9384 69.1635 77.9427 69.4771C78.0235 72.3916 78.2782 74.6654 80.3539 76.8837C81.7772 78.2194 83.2711 79.3032 84.9613 80.2734C84.1839 81.1758 83.2093 81.6735 82.1781 82.2327C80.4715 83.1773 78.924 84.2189 77.3762 85.4095C76.7582 85.8398 76.7582 85.8398 76.1723 85.8398C74.1945 81.2314 72.9425 76.9924 74.7074 72.0703C76.5969 68.5547 76.5969 68.5547 77.9301 68.5547Z" fill="black"/>
<path d="M89.6484 112.207C90.2815 113.157 90.4226 113.448 90.2344 114.551C89.081 115.637 87.7548 116.27 86.3525 116.968C83.1108 118.642 81.5066 120.065 79.6875 123.34C77.4639 123.34 75.2402 123.34 72.9492 123.34C73.995 120.202 75.5195 117.356 78.4893 115.704C79.1723 115.388 79.865 115.117 80.5664 114.844C80.9643 114.679 81.3617 114.514 81.7589 114.348C83.0188 113.823 84.2797 113.301 85.5469 112.793C85.8644 112.664 85.8644 112.664 86.1883 112.533C87.4784 112.026 88.3014 111.758 89.6484 112.207Z" fill="black"/>
<path d="M120.996 87.8906C121.19 87.8906 121.383 87.8906 121.582 87.8906C122.517 89.8525 123.071 91.5648 122.754 93.75C122.302 94.9549 122.07 95.3783 120.996 96.0938C119.934 94.1998 119.631 92.6237 120.215 90.5428C120.274 90.3504 120.332 90.158 120.392 89.9597C120.449 89.7594 120.506 89.559 120.565 89.3526C120.705 88.8642 120.85 88.3773 120.996 87.8906Z" fill="black"/>
</svg>
