<svg width="300" height="300" viewBox="0 0 300 300" fill="none" xmlns="http://www.w3.org/2000/svg">
<path d="M146.865 86.2793C143.057 87.0996 140.01 89.0918 137.783 92.1973C136.494 94.0137 135.088 97.3535 135.059 98.6133C135.059 99.1406 134.678 99.375 132.598 100.02C126.768 101.836 122.197 106.494 120.352 112.5C119.824 114.229 119.707 115.371 119.707 117.92C119.707 120.762 119.824 121.436 120.586 123.633C123.164 130.928 129.258 135.439 136.582 135.469C139.189 135.498 139.453 135.439 140.156 134.795C140.771 134.209 140.918 133.799 140.918 132.715C140.918 130.605 140.244 130.166 136.934 130.02C133.535 129.873 131.221 128.818 128.936 126.416C124.043 121.23 124.248 113.262 129.375 108.398C131.514 106.377 133.711 105.41 136.729 105.176C140.01 104.912 140.215 104.707 140.391 101.367C140.566 98.291 141.416 96.2402 143.291 94.3652C145.225 92.4316 146.777 91.8457 149.854 91.8457C152.139 91.8457 152.695 91.9629 154.16 92.666C157.383 94.248 159.316 97.3535 159.58 101.396C159.814 104.648 160.049 104.883 163.301 105.176C165.322 105.381 166.318 105.645 167.842 106.377C175.664 110.244 176.953 121.025 170.332 127.148C168.281 129.023 166.23 129.844 162.949 130.049C160.4 130.225 160.137 130.283 159.492 131.045C158.525 132.158 158.584 133.359 159.639 134.531L160.488 135.498H163.389C167.871 135.469 171.533 133.975 174.727 130.811C178.301 127.295 179.912 123.604 180.117 118.506C180.264 114.492 179.766 112.148 178.066 108.867C175.84 104.619 171.855 101.338 167.344 100.049L165.146 99.4043L164.736 97.8223C163.301 92.0801 158.584 87.4512 152.959 86.25C150.615 85.752 149.238 85.752 146.865 86.2793Z" fill="black"/>
<path d="M141.738 137.021C140.625 137.197 139.746 138.398 139.746 139.746C139.746 140.625 139.922 141.035 140.654 141.621L141.562 142.383H149.912H158.262L159.111 141.533C160.02 140.625 160.225 139.336 159.639 138.223C158.965 136.963 157.822 136.816 149.941 136.846C145.869 136.875 142.178 136.963 141.738 137.021Z" fill="black"/>
<path d="M143.613 145.693C142.881 146.455 142.763 148.096 143.349 148.857C143.818 149.473 144.844 150 145.576 150H146.191V180.85C146.191 210.146 146.22 211.729 146.719 212.666C147.334 213.779 148.857 214.746 150.029 214.746C151.113 214.746 152.695 213.604 153.281 212.402C153.779 211.436 153.808 209.326 153.808 180.703V150.059L154.687 149.854C156.592 149.443 157.353 147.07 156.006 145.752C155.303 145.02 155.244 145.02 149.765 145.02C144.375 145.02 144.228 145.049 143.613 145.693Z" fill="black"/>
<path d="M157.382 179.941C156.942 180.381 156.884 189.316 157.323 190.166C157.616 190.693 157.997 190.723 162.978 190.723C166.757 190.723 168.456 190.605 168.69 190.371C168.925 190.137 169.042 188.555 169.042 185.156C169.042 181.758 168.925 180.176 168.69 179.941C168.456 179.707 166.757 179.59 163.036 179.59C159.315 179.59 157.616 179.707 157.382 179.941Z" fill="black"/>
<path d="M173.203 179.942C172.969 180.177 172.852 181.671 172.852 184.718C172.852 187.765 172.969 189.259 173.203 189.493C173.643 189.932 177.92 189.962 178.74 189.552C179.268 189.259 179.297 188.878 179.297 184.6C179.297 180.616 179.238 179.913 178.828 179.766C177.979 179.444 173.584 179.561 173.203 179.942Z" fill="black"/>
<path d="M172.997 195.469C172.909 195.85 172.88 198.369 172.909 201.123L172.997 206.104L175.751 206.191C177.509 206.25 178.622 206.162 178.886 205.928C179.208 205.664 179.296 204.521 179.296 200.684C179.296 197.959 179.208 195.557 179.12 195.293C178.974 194.912 178.417 194.824 176.044 194.824C173.29 194.824 173.144 194.854 172.997 195.469Z" fill="black"/>
<path d="M157.236 195.323C157.119 195.411 157.031 197.784 157.031 200.567V205.665L157.793 206.134C158.438 206.573 159.141 206.602 163.389 206.456C166.348 206.339 168.398 206.134 168.633 205.929C168.955 205.665 169.043 204.552 169.043 200.919C169.043 198.253 168.926 195.997 168.75 195.675C168.457 195.147 168.076 195.118 162.92 195.118C159.902 195.118 157.324 195.206 157.236 195.323Z" fill="black"/>
</svg>
