<svg width="300" height="300" viewBox="0 0 300 300" fill="none" xmlns="http://www.w3.org/2000/svg">
<path d="M107.946 71.4035C108.416 71.3993 108.416 71.3993 108.895 71.395C109.4 71.3955 109.4 71.3955 109.915 71.3959C110.266 71.3946 110.617 71.3933 110.979 71.3921C111.723 71.3904 112.467 71.3902 113.211 71.3915C114.334 71.3924 115.458 71.3856 116.582 71.3781C126.537 71.3518 134.94 74.0483 142.145 81.0787C145.856 84.8388 148.374 89.345 150.092 94.3172C150.193 94.6046 150.193 94.6046 150.296 94.8977C151.965 100.031 151.888 105.238 151.886 110.576C151.895 119.048 153.704 126.205 159.85 132.359C160.267 132.765 160.692 133.163 161.117 133.561C161.719 134.179 161.719 134.179 161.719 134.765C162.106 134.959 162.493 135.152 162.891 135.351C162.891 135.545 162.891 135.738 162.891 135.937C163.062 136.013 163.233 136.089 163.41 136.168C164.111 136.549 164.574 136.961 165.138 137.524C165.347 137.731 165.555 137.938 165.77 138.151C165.996 138.378 166.222 138.605 166.455 138.839C166.695 139.079 166.935 139.318 167.183 139.564C167.977 140.356 168.769 141.149 169.561 141.943C170.111 142.493 170.661 143.042 171.211 143.591C172.363 144.743 173.515 145.896 174.665 147.049C175.997 148.384 177.331 149.717 178.666 151.048C179.811 152.191 180.956 153.335 182.099 154.48C182.782 155.164 183.466 155.848 184.15 156.531C184.912 157.291 185.672 158.053 186.432 158.816C186.66 159.043 186.888 159.27 187.123 159.504C187.329 159.711 187.534 159.918 187.746 160.132C188.016 160.402 188.016 160.402 188.291 160.678C188.672 161.132 188.672 161.132 188.672 161.718C188.926 161.827 188.926 161.827 189.185 161.938C189.941 162.358 190.448 162.827 191.016 163.476C191.016 163.67 191.016 163.863 191.016 164.062C191.27 164.171 191.27 164.171 191.529 164.282C192.284 164.702 192.792 165.171 193.36 165.82C193.36 166.013 193.36 166.207 193.36 166.406C193.746 166.599 194.133 166.793 194.532 166.992C194.532 167.185 194.532 167.379 194.532 167.578C194.918 167.771 195.305 167.964 195.703 168.164C195.703 168.357 195.703 168.55 195.703 168.75C196.09 168.943 196.477 169.136 196.875 169.336C196.875 169.529 196.875 169.722 196.875 169.921C197.262 170.115 197.649 170.308 198.047 170.507C198.047 170.701 198.047 170.894 198.047 171.093C198.301 171.202 198.301 171.202 198.56 171.313C199.316 171.733 199.823 172.202 200.391 172.851C200.391 173.045 200.391 173.238 200.391 173.437C200.778 173.63 201.164 173.824 201.563 174.023C201.563 174.216 201.563 174.41 201.563 174.609C201.95 174.802 202.336 174.996 202.735 175.195C202.735 175.388 202.735 175.582 202.735 175.781C203.121 175.974 203.508 176.168 203.907 176.367C203.907 176.56 203.907 176.754 203.907 176.953C204.293 177.146 204.68 177.339 205.078 177.539C205.078 177.732 205.078 177.925 205.078 178.125C205.465 178.318 205.852 178.511 206.25 178.711C206.25 178.904 206.25 179.097 206.25 179.296C206.444 179.296 206.637 179.296 206.836 179.296C207.28 179.758 207.28 179.758 207.788 180.377C208.424 181.126 209.006 181.74 209.766 182.373C210.463 182.954 210.977 183.468 211.553 184.153C212.778 185.569 214.107 186.86 215.451 188.161C215.983 188.682 216.514 189.203 217.046 189.724C217.872 190.535 218.7 191.344 219.533 192.148C223.698 196.174 227.261 199.681 227.429 205.788C227.437 206.524 227.441 207.259 227.443 207.995C227.444 208.391 227.446 208.787 227.448 209.183C227.452 210.011 227.453 210.839 227.453 211.666C227.453 212.718 227.461 213.77 227.471 214.822C227.477 215.639 227.478 216.457 227.478 217.275C227.479 217.848 227.485 218.422 227.492 218.996C227.479 221.471 227.296 223.985 225.617 225.939C223.356 228.127 220.928 228.356 217.919 228.339C217.409 228.34 217.409 228.34 216.89 228.342C216.174 228.342 215.458 228.341 214.742 228.337C213.655 228.332 212.569 228.337 211.483 228.342C210.784 228.342 210.085 228.341 209.386 228.339C209.065 228.341 208.745 228.343 208.415 228.344C204.1 228.306 200.343 227.104 197.168 224.121C197.168 223.927 197.168 223.734 197.168 223.535C196.878 223.438 196.588 223.341 196.289 223.242C196.289 223.048 196.289 222.855 196.289 222.656C196.096 222.656 195.903 222.656 195.703 222.656C195.295 222.241 195.295 222.241 194.814 221.657C193.58 220.207 192.244 218.877 190.889 217.54C190.362 217.017 189.834 216.493 189.307 215.969C188.481 215.151 187.655 214.333 186.828 213.516C186.026 212.722 185.225 211.927 184.425 211.132C184.175 210.886 183.926 210.64 183.668 210.386C183.326 210.046 183.326 210.046 182.977 209.698C182.775 209.499 182.573 209.299 182.365 209.093C181.934 208.593 181.934 208.593 181.934 208.007C181.644 207.911 181.354 207.814 181.055 207.714C181.055 207.521 181.055 207.328 181.055 207.129C180.862 207.129 180.668 207.129 180.469 207.129C180.084 206.737 180.084 206.737 179.621 206.172C178.317 204.639 176.898 203.231 175.47 201.815C174.98 201.329 174.492 200.842 174.003 200.355C172.967 199.322 171.93 198.29 170.893 197.259C169.686 196.06 168.481 194.86 167.276 193.659C166.796 193.181 166.316 192.704 165.835 192.227C165.54 191.933 165.244 191.638 164.949 191.344C164.564 190.961 164.564 190.961 164.171 190.571C163.502 189.87 162.903 189.141 162.305 188.379C161.824 187.883 161.334 187.396 160.84 186.914C160.41 186.486 159.98 186.057 159.55 185.628C159.305 185.384 159.059 185.139 158.806 184.887C157.836 183.921 156.867 182.954 155.899 181.987C155.166 181.256 154.433 180.525 153.699 179.795C152.848 178.947 151.997 178.098 151.147 177.249C150.887 176.99 150.626 176.731 150.358 176.465C149.09 175.197 147.873 173.91 146.705 172.551C145.728 171.45 144.674 170.425 143.628 169.39C143.269 169.033 143.269 169.033 142.903 168.669C142.144 167.914 141.385 167.16 140.625 166.406C139.623 165.412 138.623 164.417 137.622 163.421C137.396 163.197 137.169 162.973 136.936 162.742C135.723 161.535 134.563 160.304 133.453 159.001C131.144 156.381 128.195 154.478 125.098 152.929C124.916 152.837 124.733 152.745 124.545 152.65C119.272 150.036 114.151 149.539 108.326 149.542C101.004 149.533 101.004 149.533 97.5589 148.535C97.3357 148.471 97.1125 148.406 96.8826 148.34C92.596 146.997 88.6203 144.76 85.2542 141.796C85.0148 141.596 84.7754 141.395 84.5287 141.188C78.4486 135.955 74.0986 128.084 72.9495 120.117C72.9149 119.498 72.8924 118.879 72.8801 118.26C72.8724 117.898 72.8646 117.536 72.8567 117.164C72.8497 116.772 72.8429 116.381 72.8363 115.99C72.8287 115.584 72.8212 115.179 72.8136 114.773C72.7981 113.924 72.7838 113.076 72.7701 112.227C72.7524 111.145 72.7307 110.063 72.7079 108.981C72.6909 108.143 72.6768 107.306 72.6635 106.468C72.6534 105.877 72.6404 105.286 72.6273 104.694C72.5912 102.044 72.5956 99.6642 74.4144 97.5582C75.5079 96.7696 76.4338 96.4037 77.7835 96.3314C81.2869 97.52 84.2002 101.932 86.5612 104.671C87.1947 105.38 87.8731 106.039 88.5513 106.705C89.0818 107.245 89.5765 107.806 90.0699 108.38C90.9586 109.412 91.9037 110.366 92.8737 111.321C93.6474 112.107 94.3675 112.933 95.0847 113.77C95.7478 114.593 95.7478 114.593 96.7002 114.943C97.0752 114.961 97.0752 114.961 97.4578 114.98C97.7418 114.994 98.0257 115.008 98.3183 115.022C99.6335 115.068 100.949 115.104 102.264 115.129C102.953 115.146 103.642 115.172 104.33 115.207C109.063 115.491 109.063 115.491 113.122 113.369C113.887 112.601 114.592 111.798 115.278 110.958C115.833 110.323 116.477 109.884 117.163 109.398C118.808 107.715 118.479 104.839 118.469 102.646C118.47 101.776 118.505 100.912 118.542 100.043C118.59 97.3807 118.513 95.3674 116.622 93.3595C115.918 92.699 115.19 92.0835 114.429 91.4894C113.847 91.0169 113.374 90.4866 112.903 89.9044C111.9 88.7175 110.795 87.642 109.69 86.5508C108.695 85.5626 107.757 84.5449 106.85 83.474C106.261 82.8124 105.631 82.2061 104.993 81.5914C103.427 80.0256 102.191 78.7202 102.082 76.4278C102.177 74.6948 102.872 73.7457 104.132 72.5826C105.388 71.725 106.429 71.411 107.946 71.4035ZM129.2 84.3746C129.206 84.7092 129.213 85.0438 129.22 85.3886C129.281 88.5603 129.316 91.7314 129.328 94.9037C129.335 96.5343 129.35 98.1638 129.385 99.7941C129.419 101.371 129.43 102.947 129.425 104.524C129.427 105.122 129.438 105.72 129.456 106.318C129.547 109.359 129.465 111.628 127.308 113.929C126.32 114.876 125.283 115.743 124.219 116.601C123.797 116.962 123.377 117.325 122.959 117.691C122.776 117.851 122.593 118.01 122.405 118.175C121.503 118.988 120.655 119.853 119.806 120.721C119.468 121.067 119.129 121.412 118.789 121.757C118.643 121.906 118.497 122.056 118.346 122.21C118.157 122.389 117.968 122.569 117.774 122.754C117.642 122.895 117.51 123.037 117.375 123.183C116.153 124.391 115.259 124.716 113.553 124.749C113.278 124.745 113.003 124.741 112.72 124.738C112.426 124.741 112.131 124.744 111.827 124.747C110.859 124.755 109.89 124.751 108.922 124.747C108.248 124.75 107.575 124.754 106.901 124.759C105.132 124.77 103.363 124.77 101.594 124.768C99.7871 124.768 97.9804 124.777 96.1736 124.786C92.6315 124.802 89.0894 124.807 85.5472 124.804C86.3983 129.386 90.3782 133.332 94.0433 135.937C97.8878 138.54 101.803 139.473 106.382 139.515C106.898 139.523 107.414 139.531 107.93 139.54C108.727 139.552 109.524 139.562 110.322 139.57C114.993 139.62 119.567 139.962 124.018 141.504C124.27 141.59 124.522 141.676 124.782 141.765C131.199 144.06 141.776 149.664 145.02 156.152C145.213 156.152 145.407 156.152 145.606 156.152C145.675 156.316 145.743 156.48 145.814 156.649C146.284 157.489 146.861 158.061 147.544 158.738C147.681 158.875 147.818 159.011 147.959 159.152C148.41 159.6 148.862 160.047 149.315 160.494C149.629 160.806 149.942 161.118 150.256 161.43C151.081 162.251 151.907 163.07 152.734 163.889C154.058 165.201 155.381 166.515 156.703 167.83C157.165 168.289 157.629 168.748 158.092 169.206C158.375 169.486 158.657 169.767 158.939 170.048C159.187 170.292 159.434 170.537 159.689 170.79C160.254 171.386 160.254 171.386 160.547 171.972C160.741 171.972 160.934 171.972 161.133 171.972C161.133 172.166 161.133 172.359 161.133 172.558C161.327 172.558 161.52 172.558 161.719 172.558C161.719 172.752 161.719 172.945 161.719 173.144C162.196 173.65 162.681 174.13 163.184 174.609C163.487 174.91 163.79 175.212 164.092 175.515C164.435 175.857 164.778 176.199 165.121 176.541C167.032 178.447 168.942 180.355 170.852 182.262C172.007 183.415 173.162 184.568 174.317 185.72C175.436 186.836 176.555 187.953 177.673 189.07C178.099 189.496 178.526 189.922 178.953 190.347C179.547 190.939 180.141 191.533 180.735 192.127C180.912 192.303 181.09 192.479 181.273 192.661C182.486 193.878 182.486 193.878 182.813 194.531C183.006 194.531 183.2 194.531 183.399 194.531C183.463 194.691 183.527 194.85 183.594 195.015C184.112 195.926 184.811 196.603 185.552 197.332C185.711 197.491 185.871 197.65 186.035 197.814C186.563 198.34 187.093 198.864 187.623 199.388C187.992 199.755 188.36 200.122 188.729 200.489C189.7 201.457 190.673 202.422 191.647 203.388C193.2 204.928 194.751 206.471 196.301 208.014C196.84 208.55 197.38 209.085 197.921 209.62C199.591 211.279 201.213 212.948 202.735 214.746C203.174 215.222 203.618 215.693 204.071 216.156C204.277 216.369 204.483 216.582 204.695 216.802C206.172 218.07 207.508 218.39 209.416 218.347C209.628 218.346 209.84 218.345 210.059 218.343C210.73 218.338 211.402 218.327 212.073 218.316C212.531 218.312 212.989 218.308 213.446 218.304C214.563 218.295 215.68 218.279 216.797 218.261C216.819 216.552 216.835 214.842 216.845 213.133C216.85 212.552 216.856 211.971 216.864 211.391C216.874 210.553 216.879 209.715 216.883 208.877C216.888 208.62 216.892 208.363 216.897 208.098C216.898 203.299 213.252 200.633 210.086 197.457C209.045 196.415 208.001 195.374 206.957 194.334C206.379 193.758 205.802 193.182 205.225 192.605C203.988 191.37 202.75 190.135 201.512 188.901C199.72 187.113 197.928 185.325 196.137 183.536C193.227 180.629 190.317 177.723 187.406 174.818C187.232 174.644 187.059 174.471 186.88 174.292C184.411 171.828 181.942 169.365 179.473 166.902C179.299 166.728 179.125 166.554 178.946 166.375C178.772 166.202 178.598 166.028 178.419 165.85C175.516 162.954 172.614 160.056 169.713 157.158C167.928 155.374 166.141 153.591 164.353 151.809C163.128 150.589 161.905 149.367 160.682 148.144C159.977 147.44 159.272 146.737 158.566 146.034C157.799 145.27 157.034 144.505 156.269 143.74C156.048 143.52 155.828 143.301 155.6 143.076C154.363 141.833 153.249 140.549 152.193 139.148C151.605 138.372 150.968 137.643 150.33 136.908C146.955 132.908 144.383 128.291 142.859 123.285C142.789 123.055 142.719 122.826 142.647 122.59C141.315 117.933 141.398 113.283 141.371 108.479C141.316 100.525 139.92 94.0267 134.329 88.007C132.861 86.6029 131.138 85.0206 129.2 84.3746Z" fill="black"/>
</svg>
