<svg width="300" height="300" viewBox="0 0 300 300" fill="none" xmlns="http://www.w3.org/2000/svg">
<path d="M203.101 72.766C203.752 73.7429 203.847 74.4159 203.906 75.5858C203.961 75.9544 204.015 76.323 204.071 76.7027C204.027 78.4854 202.708 79.6156 201.562 80.8592C201.415 81.0206 201.267 81.1819 201.115 81.3482C200.089 82.4674 199.049 83.574 198.006 84.677C197.118 85.6163 196.237 86.5611 195.355 87.506C195.099 87.7801 195.099 87.7801 194.838 88.0599C193.26 89.7513 191.697 91.4561 190.137 93.1639C189.735 93.603 189.332 94.0419 188.93 94.4807C188.662 94.773 188.394 95.0655 188.126 95.3582C187.436 96.112 186.744 96.863 186.047 97.61C182.798 100.956 182.798 100.956 181.934 105.377C181.932 105.577 181.93 105.777 181.928 105.983C182.005 107.925 182.971 108.813 184.277 110.156C184.651 110.588 185.024 111.021 185.395 111.455C188.921 115.746 188.921 115.746 193.792 117.9C196.071 117.904 197.607 117.315 199.241 115.719C199.935 114.952 200.567 114.153 201.177 113.318C201.626 112.707 202.115 112.145 202.624 111.584C202.775 111.41 202.925 111.235 203.08 111.056C204.253 109.722 205.473 108.429 206.68 107.126C207.369 106.381 208.055 105.632 208.74 104.883C209.86 103.659 210.984 102.439 212.109 101.221C213.112 100.136 214.114 99.0507 215.111 97.9616C215.379 97.6704 215.647 97.3803 215.917 97.0912C216.586 96.3707 217.225 95.6395 217.829 94.8645C219.587 92.6958 219.587 92.6958 220.868 92.3468C222.317 92.3041 223.622 92.4355 224.707 93.4569C229.585 100.123 230.224 110.559 229.167 118.439C227.84 126.667 224.341 134.363 218.848 140.625C218.637 140.874 218.427 141.123 218.21 141.38C216.63 143.21 214.902 144.72 212.988 146.191C212.749 146.383 212.509 146.576 212.263 146.774C204.028 153.135 193.824 155.247 183.635 154.866C181.632 154.779 181.632 154.779 179.889 155.611C179.693 155.886 179.498 156.162 179.297 156.445C179.022 156.727 178.742 157.003 178.457 157.275C178.163 157.566 177.869 157.857 177.576 158.148C177.432 158.289 177.288 158.431 177.14 158.577C176.321 159.39 175.544 160.225 174.79 161.099C173.531 162.554 172.162 163.888 170.789 165.234C169.829 166.183 168.899 167.141 168.018 168.164C166.772 169.61 165.412 170.93 164.051 172.265C163.091 173.215 162.161 174.172 161.279 175.195C160.034 176.641 158.674 177.962 157.313 179.297C156.158 180.438 155.068 181.61 154.009 182.84C153.104 183.864 152.119 184.807 151.141 185.761C150.296 186.594 149.492 187.443 148.718 188.342C147.402 189.866 145.962 191.259 144.526 192.669C143.341 193.841 142.218 195.04 141.131 196.303C140.274 197.271 139.35 198.168 138.428 199.072C137.148 200.338 135.906 201.605 134.746 202.983C133.738 204.105 132.648 205.15 131.576 206.211C130.703 207.079 129.848 207.945 129.053 208.887C127.936 210.208 126.695 211.406 125.46 212.615C124.581 213.481 123.741 214.36 122.937 215.295C121.563 216.887 120.054 218.338 118.556 219.811C117.317 221.038 116.136 222.288 114.999 223.609C111.145 228.012 105.45 230.906 99.5987 231.338C93.5105 231.676 87.8783 230.194 83.2031 226.172C82.4341 225.458 82.4341 225.458 81.7383 224.707C81.5793 224.539 81.4203 224.372 81.2565 224.199C76.8866 219.439 75.6528 213.549 75.8416 207.263C76.153 201.253 79.4837 195.894 83.4961 191.601C83.7317 191.414 83.9674 191.227 84.2102 191.034C84.8368 190.529 85.2605 190.095 85.7677 189.485C87.663 187.295 89.7786 185.303 91.8358 183.268C94.5086 180.632 94.5086 180.632 97.0224 177.847C98.5009 176.189 100.131 174.66 101.711 173.099C103.341 171.488 104.953 169.881 106.441 168.136C107.638 166.78 108.963 165.538 110.252 164.271C111.272 163.261 112.271 162.251 113.205 161.16C114.745 159.368 116.462 157.745 118.143 156.087C119.276 154.964 120.398 153.848 121.436 152.637C122.964 150.852 124.674 149.239 126.346 147.591C127.479 146.468 128.601 145.352 129.639 144.14C131.167 142.356 132.877 140.743 134.549 139.095C136.221 137.438 136.221 137.438 137.796 135.69C139.471 133.734 141.358 131.967 143.188 130.158C145.74 127.641 145.74 127.641 148.135 124.976C148.544 124.501 148.946 124.05 149.414 123.633C149.607 123.633 149.801 123.633 150 123.633C149.926 123.342 149.851 123.051 149.775 122.751C146.907 111.469 146.85 100.941 152.637 90.5272C152.809 90.2077 152.982 89.8882 153.16 89.559C154.272 87.5684 155.546 85.8091 157.031 84.0819C157.334 83.7256 157.334 83.7256 157.642 83.3621C160.421 80.1769 163.441 77.5748 166.992 75.2928C167.261 75.1157 167.531 74.9386 167.808 74.7561C176.397 69.4048 194.406 65.2958 203.101 72.766ZM165.527 83.7889C165.375 83.9251 165.224 84.0613 165.067 84.2016C158.487 90.1997 153.938 98.6705 153.479 107.646C153.349 111.943 153.592 115.868 155.035 119.952C155.863 122.323 155.8 124.241 154.881 126.592C154.087 127.979 152.975 128.998 151.807 130.072C151.118 130.709 150.498 131.378 149.887 132.089C148.631 133.549 147.261 134.883 145.887 136.23C144.96 137.147 144.06 138.066 143.216 139.059C141.467 141.09 139.506 142.931 137.601 144.814C135.026 147.359 135.026 147.359 132.602 150.047C131.472 151.333 130.219 152.506 128.999 153.704C128.028 154.664 127.082 155.626 126.196 156.665C124.56 158.567 122.729 160.295 120.945 162.057C119.327 163.656 117.728 165.251 116.252 166.983C114.934 168.464 113.485 169.83 112.073 171.221C111.653 171.636 111.234 172.051 110.815 172.467C110.569 172.71 110.323 172.953 110.069 173.203C109.452 173.842 108.868 174.488 108.288 175.159C107.277 176.325 106.21 177.417 105.112 178.5C104.918 178.693 104.724 178.886 104.524 179.084C103.706 179.898 102.886 180.709 102.067 181.521C101.464 182.119 100.862 182.717 100.259 183.316C100.078 183.495 99.8961 183.674 99.709 183.859C98.8134 184.75 97.9544 185.655 97.1299 186.612C96.0805 187.827 94.9565 188.947 93.8072 190.067C93.3718 190.496 92.9366 190.925 92.5014 191.354C91.8273 192.017 91.1523 192.679 90.4748 193.339C85.9391 197.764 81.7911 202.175 81.6675 208.89C81.6494 213.625 82.9809 217.654 86.3251 221.137C89.7023 224.284 93.7296 225.449 98.2521 225.375C103.427 225.158 107.142 222.985 110.651 219.342C110.944 219.043 111.238 218.745 111.532 218.448C112.903 217.054 114.227 215.632 115.502 214.149C116.772 212.727 118.164 211.415 119.523 210.078C120.772 208.841 121.965 207.586 123.109 206.253C124.321 204.889 125.651 203.635 126.952 202.357C128.173 201.148 129.336 199.916 130.456 198.613C131.31 197.647 132.234 196.752 133.154 195.849C134.447 194.571 135.702 193.291 136.875 191.9C137.749 190.92 138.694 190.011 139.628 189.088C140.433 188.29 141.209 187.485 141.943 186.621C142.82 185.589 143.764 184.642 144.727 183.691C145.671 182.759 146.599 181.832 147.455 180.817C148.66 179.397 150.004 178.114 151.325 176.805C152.417 175.72 153.46 174.62 154.453 173.443C155.315 172.477 156.243 171.576 157.17 170.672C157.977 169.88 158.738 169.067 159.476 168.21C160.796 166.683 162.238 165.287 163.677 163.874C164.874 162.69 166.01 161.479 167.108 160.203C167.769 159.45 168.473 158.757 169.189 158.056C170.291 156.971 171.334 155.855 172.339 154.679C173.148 153.768 174.014 152.917 174.884 152.063C175.355 151.596 175.81 151.112 176.257 150.622C177.755 149.282 179.192 149.011 181.157 149.066C181.571 149.074 181.985 149.081 182.399 149.089C182.613 149.094 182.827 149.1 183.047 149.105C194.261 149.368 203.927 146.717 212.297 138.95C219.305 132.255 223.389 122.894 223.619 113.217C223.663 108.799 223.083 104.626 221.484 100.488C220.319 100.949 219.672 101.704 218.848 102.63C218.561 102.95 218.274 103.269 217.987 103.588C217.839 103.754 217.692 103.919 217.54 104.089C216.812 104.899 216.072 105.696 215.332 106.494C213.227 108.772 211.122 111.051 209.051 113.36C207.895 114.649 206.724 115.924 205.546 117.193C204.794 118.005 204.047 118.82 203.31 119.646C203.167 119.805 203.024 119.964 202.877 120.128C202.484 120.567 202.092 121.007 201.701 121.447C199.593 123.545 197.265 123.398 194.458 123.413C194.025 123.422 194.025 123.422 193.583 123.431C190.364 123.448 188.303 122.891 185.96 120.626C185.695 120.361 185.43 120.097 185.156 119.824C184.839 119.52 184.522 119.218 184.203 118.916C183.334 118.088 182.475 117.25 181.62 116.407C181.266 116.059 180.911 115.713 180.553 115.37C177.926 112.841 176.137 110.931 175.919 107.135C175.915 106.482 175.919 105.829 175.928 105.176C175.923 104.85 175.919 104.525 175.914 104.189C175.928 101.11 176.695 98.7838 178.784 96.5148C178.934 96.3454 179.085 96.176 179.24 96.0016C181.08 93.9451 182.988 91.9491 184.888 89.9481C186.784 87.945 188.654 85.9196 190.458 83.8336C191.359 82.8141 192.288 81.8206 193.213 80.823C194.453 79.4844 195.671 78.1282 196.875 76.7577C194.845 74.7279 189.645 75.0912 186.914 74.9999C179.133 74.9999 171.208 78.6593 165.527 83.7889Z" fill="black"/>
<path d="M106.794 197.977C109.667 200.331 110.898 203.185 111.328 206.836C111.424 209.878 110.579 212.586 108.563 214.875C107.319 216.188 106.087 217.316 104.406 218.024C104.185 218.119 103.964 218.214 103.736 218.311C101.307 219.28 98.37 219.155 95.9103 218.293C92.3838 216.651 90.3973 214.129 88.9889 210.608C88.335 207.23 88.6077 204 90.4537 201.068C94.3194 195.696 101.192 194.067 106.794 197.977ZM95.361 204.199C94.3898 205.807 94.3307 207.352 94.6285 209.18C95.1129 210.61 96.0018 211.59 97.2653 212.403C98.8212 213.162 100.298 213.068 101.953 212.696C103.522 211.882 104.494 210.855 105.267 209.272C105.63 207.521 105.488 205.974 104.663 204.383C103.611 203.155 102.404 202.023 100.758 201.757C98.4246 201.715 96.8139 202.325 95.361 204.199Z" fill="black"/>
</svg>
