<svg width="300" height="300" viewBox="0 0 300 300" fill="none" xmlns="http://www.w3.org/2000/svg">
<path d="M124.932 121.528C126.185 122.595 127.415 123.676 128.613 124.805C128.815 124.987 129.016 125.169 129.223 125.357C132.781 128.704 135.841 133.608 136.029 138.574C135.967 140.961 135.038 143.069 133.301 144.726C128.332 148.032 121.854 148.004 116.18 146.887C110.314 145.612 104.815 143.003 100.195 139.16C99.9219 138.935 99.6485 138.709 99.3668 138.477C96.0481 135.608 93.7283 132.332 91.9922 128.32C91.8865 128.085 91.7807 127.849 91.6718 127.606C90.6751 124.948 90.5197 120.954 91.5528 118.286C93.0738 115.633 95.5952 114.499 98.4375 113.672C107.567 112.049 117.838 115.868 124.932 121.528Z" fill="black"/>
<path d="M119.825 113.672C120.019 113.765 120.213 113.858 120.413 113.954C124.572 115.98 128.202 118.683 131.543 121.875C131.74 122.053 131.937 122.231 132.14 122.415C136.533 126.537 140.114 132.749 140.384 138.86C140.398 139.557 140.396 140.254 140.374 140.95C140.556 141.904 140.556 141.904 141.607 142.417C142.058 142.609 142.512 142.792 142.969 142.969C143.202 143.064 143.436 143.159 143.676 143.256C144.524 143.596 145.376 143.924 146.229 144.25C151.094 146.138 155.922 148.119 160.752 150.096C168.122 153.11 175.519 156.054 182.917 158.999C185.213 159.913 187.508 160.827 189.804 161.743C191.266 162.326 192.729 162.908 194.192 163.49C195.646 164.067 197.099 164.647 198.552 165.227C199.095 165.444 199.638 165.66 200.182 165.875C210.364 169.913 210.364 169.913 212.696 174.902C213.851 177.975 213.831 180.96 212.696 184.039C211.206 187.271 208.694 189.454 205.416 190.763C201.981 191.703 198.567 190.952 195.521 189.276C193.43 188.004 191.504 186.52 189.566 185.031C188.608 184.297 187.642 183.573 186.677 182.849C186.486 182.706 186.296 182.563 186.1 182.416C184.554 181.256 182.997 180.111 181.44 178.967C179.53 177.564 177.64 176.141 175.767 174.69C173.913 173.259 172.034 171.86 170.146 170.474C167.63 168.628 165.13 166.766 162.653 164.868C160.803 163.451 158.944 162.057 157.038 160.716C155.976 159.967 154.934 159.194 153.898 158.408C145.496 151.467 145.496 151.467 135.352 149.414C133.432 149.841 131.556 150.416 129.676 150.987C121.361 153.468 112.183 151.13 104.753 147.161C101.085 145.137 97.8907 142.697 94.9224 139.746C94.7815 139.606 94.6405 139.466 94.4954 139.323C89.9916 134.793 86.6829 128.927 86.6094 122.424C86.6515 118.722 87.7745 115.674 90.2349 112.884C98.1201 105.473 111.397 109.59 119.825 113.672ZM91.0222 115.228C88.8977 117.89 88.5305 120.911 88.77 124.219C89.9597 131.743 94.9175 137.824 100.935 142.252C108.273 147.492 117.682 150.953 126.782 149.465C128.722 149.115 130.603 148.608 132.496 148.059C136.387 146.937 139.594 146.68 143.243 148.645C143.597 148.844 143.597 148.844 143.958 149.048C144.211 149.189 144.464 149.33 144.724 149.475C147.288 150.942 149.621 152.678 151.963 154.47C153.039 155.284 154.139 156.064 155.237 156.848C157.476 158.454 159.667 160.119 161.853 161.795C163.438 163.009 165.04 164.189 166.672 165.338C168.211 166.426 169.701 167.573 171.194 168.723C172.74 169.911 174.301 171.075 175.873 172.229C178.576 174.212 181.26 176.221 183.94 178.236C185.03 179.056 186.121 179.874 187.213 180.692C187.879 181.192 188.543 181.693 189.207 182.196C195.81 187.555 195.81 187.555 203.907 188.965C206.673 188.209 208.768 186.434 210.286 184.056C211.571 181.703 211.594 178.981 211.05 176.381C209.945 173.27 207.62 171.416 204.786 169.922C203.752 169.469 202.7 169.088 201.636 168.713C201.005 168.483 200.374 168.252 199.743 168.021C199.415 167.901 199.087 167.78 198.749 167.656C197.1 167.041 195.468 166.386 193.836 165.729C193.48 165.585 193.124 165.442 192.757 165.294C192.169 165.058 191.581 164.821 190.993 164.584C189.187 163.857 187.379 163.137 185.57 162.417C179.68 160.071 173.8 157.71 167.953 155.26C164.395 153.771 160.818 152.332 157.232 150.912C157.009 150.823 156.785 150.735 156.555 150.644C154.294 149.748 152.032 148.855 149.768 147.965C148.916 147.63 148.064 147.293 147.212 146.957C146.814 146.8 146.415 146.644 146.017 146.488C139.934 144.108 139.934 144.108 138.839 142.847C138.523 141.941 138.466 141.182 138.447 140.222C138.058 133.312 134.525 127.502 129.617 122.795C123.96 117.803 117.412 114.269 110.157 112.207C109.81 112.107 109.464 112.007 109.107 111.905C103.074 110.442 95.5334 110.38 91.0222 115.228Z" fill="black"/>
<path d="M150.586 150.586C152.636 151.249 154.642 151.994 156.647 152.783C156.996 152.921 157.345 153.058 157.705 153.199C161.66 154.762 165.585 156.397 169.514 158.024C173.718 159.765 177.924 161.499 182.135 163.22C182.579 163.402 182.579 163.402 183.033 163.587C187.941 165.591 192.863 167.555 197.798 169.492C199.151 170.024 200.504 170.557 201.855 171.094C202.213 171.236 202.57 171.377 202.939 171.523C203.406 171.713 203.406 171.713 203.883 171.906C204.274 172.064 204.274 172.064 204.673 172.225C206.679 173.184 208.029 174.7 208.93 176.717C209.573 178.836 209.489 180.922 208.575 182.941C207.65 184.548 206.521 185.597 204.877 186.438C201.012 187.167 198.29 186.106 195.092 183.998C193.656 182.989 192.275 181.912 190.894 180.83C187.29 178.023 183.569 175.36 179.886 172.658C177.562 170.951 175.253 169.23 172.973 167.464C171.053 165.987 169.09 164.567 167.137 163.134C166.409 162.6 165.682 162.063 164.956 161.526C162.881 159.993 160.805 158.464 158.698 156.976C157.113 155.857 155.581 154.681 154.066 153.469C153.224 152.797 152.374 152.153 151.491 151.535C151.192 151.318 150.894 151.102 150.586 150.879C150.586 150.782 150.586 150.686 150.586 150.586Z" fill="black"/>
</svg>
