<svg width="300" height="300" viewBox="0 0 300 300" fill="none" xmlns="http://www.w3.org/2000/svg">
<path d="M105.954 91.0259C106.446 91.0247 106.937 91.0235 107.428 91.0221C108.451 91.0199 109.473 91.02 110.495 91.0215C111.805 91.0232 113.114 91.0182 114.424 91.0115C115.435 91.0071 116.447 91.0069 117.458 91.0078C117.941 91.0076 118.424 91.0061 118.907 91.0032C119.58 90.9995 120.253 91.0015 120.926 91.0049C121.5 91.0046 121.5 91.0046 122.085 91.0044C123.047 91.114 123.047 91.114 124.219 91.9929C124.564 95.7871 124.512 99.6088 124.512 103.419C141.528 103.322 158.543 103.225 176.075 103.126C176.171 99.5486 176.268 95.9714 176.368 92.2859C177.919 91.0443 178.126 90.9672 179.977 90.967C180.188 90.9654 180.399 90.9638 180.616 90.9622C181.312 90.9586 182.007 90.9634 182.702 90.9687C183.189 90.9686 183.676 90.9682 184.164 90.9674C185.186 90.967 186.208 90.9706 187.23 90.9773C188.53 90.9856 189.829 90.9848 191.128 90.9811C192.136 90.979 193.143 90.9814 194.151 90.985C194.629 90.9863 195.107 90.9864 195.586 90.9853C201 90.9783 206.176 91.762 210.352 95.5085C210.557 95.6898 210.762 95.8711 210.973 96.0578C213.231 98.1747 215.187 101.17 215.722 104.274C215.944 105.478 216.093 105.948 217.032 106.802C217.371 107.022 217.714 107.237 218.061 107.447C225.446 112.329 230.162 119.667 232.818 128.013C232.918 128.327 233.018 128.641 233.121 128.965C234.408 133.082 235.478 137.257 236.561 141.431C236.862 142.588 237.165 143.744 237.468 144.9C237.529 145.133 237.59 145.366 237.653 145.606C237.776 146.077 237.899 146.548 238.023 147.019C238.208 147.724 238.392 148.43 238.577 149.135C239.806 153.838 241.064 158.533 242.328 163.226C242.903 165.36 243.475 167.494 244.043 169.63C244.136 169.976 244.228 170.322 244.323 170.678C244.608 171.751 244.891 172.825 245.174 173.899C245.262 174.229 245.349 174.558 245.44 174.897C247.284 181.953 246.9 189.631 243.219 196.052C239.063 202.588 232.94 206.298 225.496 208.078C219.702 209.274 213.689 208.725 208.301 206.251C207.985 206.106 207.669 205.962 207.343 205.814C203.224 203.771 199.812 200.528 197.982 196.281C197.85 195.977 197.85 195.977 197.716 195.667C196.596 193.048 195.623 190.374 194.641 187.702C193.224 182.466 193.224 182.466 190.43 178.419C190.001 178.39 189.572 178.38 189.142 178.378C188.871 178.377 188.601 178.375 188.322 178.373C187.875 178.373 187.875 178.373 187.419 178.372C187.106 178.371 186.793 178.37 186.471 178.368C185.789 178.365 185.108 178.362 184.427 178.36C183.35 178.357 182.273 178.351 181.195 178.345C178.132 178.327 175.069 178.311 172.006 178.301C170.134 178.295 168.263 178.285 166.391 178.272C165.676 178.267 164.961 178.265 164.247 178.264C163.248 178.263 162.25 178.256 161.252 178.248C160.955 178.249 160.658 178.249 160.351 178.25C160.08 178.247 159.808 178.244 159.529 178.241C159.293 178.24 159.056 178.239 158.813 178.238C158.047 178.097 157.786 177.866 157.325 177.247C157.225 176.367 157.225 176.367 157.239 175.302C157.241 174.96 157.243 174.617 157.245 174.264C157.253 173.828 157.261 173.393 157.27 172.944C157.288 171.56 157.306 170.176 157.325 168.751C152.974 168.751 148.623 168.751 144.141 168.751C144.164 170.986 144.164 170.986 144.194 173.22C144.209 176.163 144.209 176.163 143.555 177.54C142.83 178.265 142.619 178.201 141.62 178.207C141.193 178.212 141.193 178.212 140.758 178.217C140.445 178.218 140.132 178.218 139.81 178.219C139.481 178.222 139.152 178.225 138.814 178.228C137.723 178.237 136.633 178.242 135.542 178.247C134.787 178.252 134.033 178.258 133.278 178.264C131.493 178.278 129.707 178.289 127.921 178.298C125.889 178.31 123.856 178.324 121.823 178.339C117.641 178.369 113.46 178.395 109.278 178.419C108.904 179.25 108.532 180.082 108.16 180.913C108.056 181.146 107.951 181.378 107.844 181.618C106.891 183.753 106.072 185.921 105.286 188.123C105.147 188.507 105.007 188.89 104.867 189.274C104.301 190.829 103.74 192.386 103.208 193.954C101.153 199.919 97.1806 203.744 91.5897 206.489C84.5369 209.508 76.5412 209.178 69.4339 206.544C66.4396 205.327 63.9054 203.766 61.5238 201.563C61.296 201.362 61.0683 201.161 60.8337 200.954C56.3237 196.763 53.8645 190.669 53.5541 184.574C53.548 184.152 53.5434 183.73 53.5404 183.308C53.5343 183.11 53.5283 182.911 53.5221 182.707C53.4891 178.093 54.8718 173.512 56.0901 169.105C56.248 168.527 56.4057 167.948 56.5631 167.369C56.9804 165.837 57.4008 164.306 57.8218 162.774C58.2574 161.188 58.6902 159.602 59.1231 158.015C59.2964 157.38 59.4697 156.745 59.643 156.11C59.7283 155.797 59.8137 155.484 59.9016 155.162C60.1589 154.22 60.4165 153.277 60.6742 152.335C61.6376 148.812 62.5921 145.287 63.5288 141.756C63.6313 141.371 63.7338 140.985 63.8362 140.599C64.2015 139.222 64.5665 137.846 64.9283 136.468C67.1593 127.976 69.5894 119.533 75.8792 113.087C76.2045 112.698 76.5281 112.307 76.8497 111.915C77.7071 110.932 78.6537 110.078 79.6512 109.241C79.8026 109.114 79.954 108.987 80.11 108.856C80.9964 108.13 81.8839 107.563 82.8922 107.026C84.4515 106.039 84.728 104.451 85.2085 102.779C86.3938 98.8664 89.0928 95.6651 92.6036 93.6031C96.9461 91.3736 101.161 91.0212 105.954 91.0259ZM92.5968 100.764C90.9207 102.865 90.6816 104.756 90.475 107.367C90.1287 108.854 89.3512 109.487 88.0992 110.299C87.7605 110.482 87.7605 110.482 87.4149 110.67C79.6913 115.162 74.9595 122.813 72.6566 131.251C70.5815 139.651 72.6862 148.857 77.0029 156.184C81.861 164.085 89.4836 169.448 98.4481 171.699C101.374 172.35 104.162 172.603 107.151 172.593C107.488 172.593 107.826 172.593 108.174 172.593C109.283 172.592 110.393 172.59 111.502 172.588C112.274 172.587 113.046 172.587 113.818 172.587C115.637 172.586 117.457 172.583 119.277 172.58C121.35 172.577 123.423 172.576 125.496 172.574C129.758 172.571 134.02 172.566 138.282 172.559C138.283 172.307 138.284 172.054 138.285 171.793C138.293 170.855 138.308 169.916 138.326 168.978C138.333 168.572 138.337 168.166 138.339 167.759C138.342 167.175 138.354 166.591 138.367 166.008C138.372 165.656 138.377 165.305 138.381 164.943C138.575 164.063 138.575 164.063 139.257 163.509C140.279 163.085 141.103 163.073 142.209 163.071C142.528 163.068 142.528 163.068 142.855 163.066C143.556 163.062 144.257 163.065 144.958 163.068C145.447 163.067 145.935 163.066 146.423 163.065C147.445 163.064 148.467 163.066 149.489 163.07C150.8 163.075 152.11 163.072 153.421 163.067C154.429 163.063 155.437 163.064 156.445 163.067C156.928 163.067 157.411 163.067 157.895 163.065C158.569 163.062 159.244 163.066 159.919 163.071C160.302 163.071 160.686 163.072 161.082 163.073C162.012 163.184 162.012 163.184 162.573 163.509C163.05 164.34 163.02 165.055 163.041 166.008C163.056 166.578 163.056 166.578 163.072 167.161C163.079 167.562 163.086 167.964 163.092 168.366C163.102 168.772 163.112 169.177 163.123 169.582C163.147 170.574 163.167 171.567 163.184 172.559C167.491 172.58 171.797 172.595 176.104 172.605C178.105 172.609 180.105 172.615 182.105 172.626C184.039 172.635 185.973 172.64 187.906 172.643C188.641 172.644 189.375 172.647 190.109 172.652C200.494 172.717 209.855 170.41 217.652 163.22C218.833 162.017 219.875 160.714 220.899 159.376C221.077 159.144 221.255 158.912 221.438 158.673C226.593 151.635 229.201 142.407 227.998 133.724C226.697 125.487 222.583 117.782 215.808 112.757C214.447 111.795 213.045 110.908 211.615 110.052C210.896 109.542 210.487 109.169 210.059 108.399C209.95 107.544 209.95 107.544 209.931 106.586C209.758 103.666 208.713 101.584 206.543 99.6101C203.327 97.1463 199.779 96.8397 195.845 96.8875C195.45 96.8892 195.054 96.8904 194.658 96.8913C193.63 96.8946 192.601 96.9032 191.572 96.913C190.517 96.9221 189.463 96.926 188.408 96.9305C186.347 96.9398 184.287 96.9548 182.227 96.9734C182.221 97.3164 182.215 97.6595 182.209 98.0129C182.187 99.283 182.161 100.553 182.134 101.823C182.123 102.373 182.112 102.923 182.103 103.473C182.09 104.263 182.073 105.053 182.055 105.843C182.052 106.089 182.048 106.336 182.045 106.591C182.001 108.332 182.001 108.332 181.348 108.985C180.53 109.044 179.742 109.065 178.924 109.061C178.67 109.063 178.416 109.064 178.155 109.065C177.3 109.068 176.444 109.067 175.589 109.066C174.978 109.067 174.367 109.068 173.756 109.07C172.093 109.074 170.43 109.074 168.766 109.073C167.38 109.073 165.994 109.075 164.607 109.076C161.338 109.079 158.069 109.079 154.8 109.078C151.422 109.076 148.044 109.079 144.666 109.086C141.771 109.091 138.875 109.093 135.979 109.092C134.248 109.091 132.517 109.092 130.785 109.096C129.158 109.1 127.53 109.099 125.903 109.095C125.304 109.095 124.705 109.095 124.106 109.098C123.292 109.101 122.478 109.098 121.663 109.095C121.423 109.097 121.184 109.099 120.937 109.101C120.279 109.095 120.279 109.095 119.239 108.985C118.485 107.855 118.55 106.897 118.531 105.585C118.523 105.216 118.523 105.216 118.514 104.84C118.497 104.055 118.483 103.27 118.47 102.485C118.458 101.952 118.447 101.42 118.435 100.888C118.407 99.583 118.382 98.2782 118.36 96.9734C116.095 96.9529 113.831 96.9373 111.567 96.9278C110.515 96.9233 109.463 96.9171 108.411 96.9071C107.393 96.8974 106.375 96.8922 105.357 96.89C104.786 96.8876 104.215 96.8808 103.645 96.8738C99.4358 96.873 95.5611 97.5704 92.5968 100.764ZM67.6761 149.122C65.8894 155.371 64.1378 161.631 62.4198 167.899C62.158 168.855 61.8952 169.81 61.6301 170.764C59.4768 178.531 57.8233 185.488 61.835 192.962C64.7218 197.967 69.4458 200.716 74.9053 202.219C80.786 203.566 86.7196 202.845 91.8827 199.714C95.6293 197.244 96.8689 194.1 98.3463 189.973C99.4851 186.839 100.685 183.736 101.939 180.647C102.057 180.358 102.174 180.069 102.294 179.771C102.399 179.516 102.503 179.261 102.61 178.999C102.85 178.477 102.85 178.477 102.832 178.126C102.64 178.092 102.447 178.058 102.248 178.024C94.2125 176.593 86.8612 174.117 80.5667 168.751C80.2911 168.523 80.0154 168.295 79.7313 168.059C74.0896 163.196 70.049 156.224 67.9691 149.122C67.8724 149.122 67.7757 149.122 67.6761 149.122ZM232.032 149.122C231.953 149.381 231.874 149.641 231.794 149.908C229.778 156.279 226.738 161.621 222.071 166.407C221.761 166.749 221.761 166.749 221.446 167.097C215.144 173.866 206.23 176.462 197.461 178.126C198.181 180.715 199.122 183.206 200.078 185.715C200.353 186.435 200.625 187.155 200.898 187.876C201.406 189.218 201.922 190.557 202.442 191.895C202.578 192.248 202.714 192.601 202.854 192.964C204.386 196.807 207.228 199.471 210.96 201.221C216.439 203.408 222.764 203.527 228.263 201.311C233.575 198.996 237.404 195.555 239.649 190.137C241.663 184.274 240.714 178.67 239.051 172.875C238.257 170.074 237.485 167.268 236.73 164.456C236.558 163.816 236.385 163.176 236.213 162.536C236.155 162.324 236.098 162.112 236.039 161.893C235.981 161.68 235.924 161.467 235.865 161.248C235.509 159.931 235.155 158.614 234.802 157.296C234.511 156.208 234.218 155.12 233.923 154.034C233.812 153.624 233.702 153.213 233.593 152.803C233.443 152.237 233.289 151.672 233.136 151.107C233.049 150.786 232.963 150.465 232.874 150.135C232.695 149.369 232.695 149.369 232.032 149.122Z" fill="black"/>
<path d="M101.86 121.19C102.11 121.188 102.359 121.186 102.616 121.184C103.144 121.181 103.672 121.18 104.2 121.18C105.007 121.179 105.813 121.168 106.62 121.157C107.133 121.155 107.646 121.154 108.159 121.153C108.4 121.149 108.641 121.145 108.89 121.141C109.968 121.149 110.555 121.156 111.453 121.791C112.422 123.198 112.571 124.291 112.557 125.991C112.556 126.184 112.555 126.377 112.554 126.576C112.551 127.188 112.544 127.799 112.536 128.411C112.533 128.828 112.531 129.245 112.528 129.661C112.522 130.679 112.512 131.697 112.5 132.714C112.972 132.707 112.972 132.707 113.454 132.7C114.622 132.684 115.79 132.674 116.957 132.666C117.463 132.662 117.969 132.656 118.474 132.648C119.201 132.637 119.927 132.632 120.654 132.628C120.88 132.624 121.106 132.619 121.339 132.615C122.9 132.614 122.9 132.614 123.617 133.104C124.147 133.945 124.256 134.683 124.266 135.651C124.268 135.887 124.271 136.123 124.274 136.365C124.276 136.746 124.276 136.746 124.278 137.134C124.28 137.396 124.281 137.658 124.283 137.928C124.286 138.482 124.288 139.036 124.289 139.59C124.292 140.436 124.301 141.282 124.31 142.128C124.312 142.667 124.313 143.205 124.315 143.744C124.318 143.996 124.322 144.249 124.326 144.509C124.319 146.261 124.025 147.264 122.754 148.535C121.999 148.606 121.273 148.644 120.517 148.656C120.297 148.661 120.077 148.667 119.85 148.673C119.145 148.691 118.441 148.704 117.736 148.718C117.259 148.729 116.782 148.74 116.305 148.752C115.134 148.78 113.963 148.805 112.793 148.827C112.797 149.046 112.802 149.264 112.807 149.49C112.825 150.49 112.836 151.489 112.848 152.49C112.855 152.833 112.862 153.177 112.87 153.531C112.904 157.637 112.904 157.637 111.499 159.271C110.425 160.189 109.083 160.017 107.75 160.03C107.514 160.032 107.279 160.035 107.036 160.037C106.537 160.041 106.038 160.044 105.539 160.047C104.777 160.052 104.016 160.065 103.255 160.078C102.77 160.081 102.285 160.083 101.799 160.085C101.573 160.09 101.346 160.095 101.112 160.101C100.011 160.096 99.3833 160.003 98.4467 159.403C97.1448 158.059 97.4521 156.359 97.3949 154.577C97.3753 153.976 97.3525 153.376 97.3294 152.775C97.3165 152.397 97.3037 152.019 97.2905 151.63C97.2785 151.283 97.2666 150.935 97.2543 150.577C97.2653 149.706 97.2653 149.706 97.5583 148.827C97.2642 148.832 96.9701 148.837 96.6671 148.841C95.5724 148.857 94.4777 148.867 93.3829 148.876C92.9098 148.88 92.4367 148.886 91.9636 148.894C91.2821 148.904 90.6008 148.909 89.9193 148.913C89.6038 148.92 89.6038 148.92 89.282 148.927C87.9831 148.927 87.164 148.75 86.1325 147.949C85.797 147.278 85.7973 146.887 85.7876 146.141C85.7839 145.888 85.7801 145.636 85.7763 145.376C85.7741 145.103 85.7719 144.829 85.7697 144.547C85.7673 144.266 85.765 143.985 85.7625 143.696C85.7585 143.1 85.7553 142.504 85.753 141.908C85.748 140.998 85.7351 140.089 85.7222 139.18C85.7192 138.601 85.7167 138.022 85.7148 137.443C85.7096 137.172 85.7045 136.901 85.6992 136.622C85.7033 135.39 85.7995 134.566 86.2859 133.418C87.1039 132.624 87.5798 132.514 88.7075 132.515C88.9258 132.524 89.144 132.533 89.3689 132.543C89.5948 132.545 89.8207 132.548 90.0535 132.55C90.7733 132.56 91.4921 132.582 92.2116 132.604C92.7002 132.613 93.1889 132.621 93.6776 132.628C94.8738 132.648 96.0694 132.678 97.2653 132.714C97.2591 132.469 97.253 132.224 97.2467 131.971C97.2266 131.052 97.212 130.133 97.2009 129.213C97.1922 128.623 97.1773 128.034 97.1623 127.444C97.1403 125.255 97.1882 123.707 98.4372 121.874C99.575 121.116 100.539 121.194 101.86 121.19ZM99.902 123.046C99.8053 126.72 99.7086 130.394 99.609 134.179C95.7418 134.276 91.8747 134.372 87.8903 134.472C87.8903 138.049 87.8903 141.626 87.8903 145.312C93.6911 145.457 93.6911 145.457 99.609 145.605C99.7057 149.085 99.8024 152.566 99.902 156.152C103.382 156.152 106.863 156.152 110.449 156.152C110.546 152.575 110.642 148.997 110.742 145.312C114.609 145.312 118.476 145.312 122.461 145.312C122.818 144.239 122.759 143.282 122.718 142.168C122.712 141.973 122.706 141.778 122.7 141.577C122.677 140.851 122.651 140.124 122.625 139.398C122.571 137.772 122.517 136.147 122.461 134.472C116.66 134.327 116.66 134.327 110.742 134.179C110.645 130.505 110.548 126.831 110.449 123.046C106.968 123.046 103.488 123.046 99.902 123.046Z" fill="black"/>
<path d="M199.511 116.894C201.467 118.428 202.372 120.095 202.679 122.57C202.862 125.551 202.008 127.762 200.097 130.078C197.848 132.014 196.164 132.532 193.217 132.502C191.116 132.338 189.667 131.336 188.244 129.819C186.914 127.994 186.374 125.854 186.621 123.632C187.187 120.718 188.561 118.662 190.997 116.969C193.759 115.289 196.731 115.141 199.511 116.894ZM191.033 119.256C189.933 120.824 189.953 122.36 190.136 124.218C190.691 126.039 191.676 127.074 193.298 128.05C194.749 128.656 196.597 128.566 198.094 128.139C199.525 127.427 200.418 126.267 200.976 124.804C201.325 123.038 201.113 121.602 200.28 120.007C199.253 118.483 198.024 117.738 196.288 117.187C194.197 116.863 192.404 117.673 191.033 119.256Z" fill="black"/>
<path d="M217.629 131.619C219.321 132.982 220.175 134.673 220.412 136.84C220.45 139.972 219.811 142.209 217.634 144.507C216.065 145.99 214.554 147.026 212.312 147.091C209.957 146.969 208.009 146.135 206.287 144.526C204.828 142.251 204.119 140.119 204.493 137.403C205.1 134.878 206.569 132.842 208.695 131.357C211.693 129.614 214.718 129.688 217.629 131.619ZM208.485 133.906C207.668 135.383 207.497 136.625 207.716 138.282C208.288 140.087 209.127 141.54 210.827 142.45C212.56 143.013 214.333 142.908 216.047 142.347C217.648 141.176 218.51 139.95 218.848 137.989C218.818 136.088 218.331 134.756 217.091 133.302C215.844 132.11 214.685 131.738 212.971 131.672C210.919 131.768 209.775 132.243 208.485 133.906Z" fill="black"/>
<path d="M199.22 147.363C201.081 149.098 202.024 151.041 202.223 153.57C202.04 156.35 201.008 158.884 198.929 160.788C196.695 162.529 194.715 162.912 191.895 162.597C189.398 161.833 187.985 160.351 186.659 158.184C185.858 156.055 186.042 153.417 186.823 151.318C188.035 148.752 189.912 147.288 192.513 146.233C194.86 145.534 197.23 145.969 199.22 147.363ZM190.724 149.12C189.731 150.414 189.339 151.783 189.42 153.406C189.74 155.094 190.487 156.784 191.932 157.781C193.658 158.644 195.267 158.677 197.169 158.495C198.481 157.863 199.273 157.051 200.099 155.859C200.611 154.321 200.725 152.592 200.116 151.066C199.177 149.5 197.981 148.375 196.29 147.656C194.129 147.337 192.327 147.566 190.724 149.12Z" fill="black"/>
<path d="M183.105 132.129C184.934 134.034 185.296 136.199 185.246 138.774C184.965 141.79 183.33 143.725 181.182 145.715C179.259 146.997 177.134 146.993 174.902 146.777C172.714 146.176 171.068 144.526 169.958 142.602C169.168 139.968 169.147 137.62 170.214 135.058C171.401 132.927 173.402 131.059 175.78 130.371C178.6 129.666 180.842 130.364 183.105 132.129ZM173.73 133.3C172.603 134.791 172.435 136.144 172.558 137.988C172.96 140.029 174.1 141.213 175.78 142.382C177.432 142.933 179.225 142.894 180.871 142.346C182.225 141.379 183.255 140.197 183.691 138.574C183.897 136.782 183.445 135.401 182.519 133.886C181.502 132.764 180.299 131.932 178.788 131.727C176.721 131.681 175.285 131.87 173.73 133.3Z" fill="black"/>
</svg>
