<svg width="300" height="300" viewBox="0 0 300 300" fill="none" xmlns="http://www.w3.org/2000/svg">
<path d="M160.455 109.021C169.854 113.992 179.453 117.051 189.843 119.238C190.034 119.976 190.223 120.715 190.411 121.453C190.464 121.66 190.518 121.866 190.573 122.079C191.964 127.57 191.864 133.968 190.429 139.453C190.342 139.798 190.342 139.798 190.253 140.151C189.345 143.667 188.084 146.827 186.328 150C186.165 150.306 186.003 150.611 185.836 150.927C180.595 160.429 171.363 167.059 161.079 170.111C157.828 171.026 154.534 171.443 151.171 171.679C150.872 171.701 150.573 171.722 150.265 171.745C139.743 172.092 129.897 167.695 122.168 160.839C121.859 160.584 121.55 160.33 121.241 160.076C120.146 159.152 119.267 158.136 118.359 157.031C118.132 156.756 117.904 156.481 117.67 156.198C111.682 148.786 108.675 139.655 108.563 130.188C108.556 129.876 108.55 129.564 108.543 129.243C108.559 123.385 110.07 117.452 111.353 111.768C111.509 111.064 111.657 110.359 111.799 109.652C113.053 103.434 113.053 103.434 114.641 102.224C115.63 101.65 116.663 101.348 117.773 101.074C118.174 100.916 118.574 100.754 118.97 100.584C133.975 95.6657 147.283 102.021 160.455 109.021ZM120.41 112.207C120.016 113.009 120.016 113.009 119.791 113.921C119.697 114.259 119.603 114.596 119.506 114.944C119.067 116.698 118.672 118.457 118.304 120.227C118.228 120.584 118.152 120.94 118.073 121.308C116.183 130.266 117.001 139.386 121.838 147.293C122.817 148.785 123.914 150.131 125.097 151.464C125.224 151.609 125.35 151.753 125.481 151.902C128.873 156.174 128.873 156.174 133.593 158.203C134.777 157.873 135.421 157.59 136.212 156.646C136.683 155.455 136.709 154.586 136.248 153.387C135.684 152.686 135.185 152.257 134.472 151.721C128.665 147.335 124.993 141.076 123.852 133.886C123.175 128.34 124.23 123.191 125.688 117.853C126.463 115.033 126.463 115.033 125.885 112.243C125.31 111.52 124.831 111.086 123.9 110.936C123.568 110.931 123.568 110.931 123.23 110.925C122.9 110.912 122.9 110.912 122.563 110.9C121.589 111.091 121.13 111.53 120.41 112.207Z" fill="black"/>
<path d="M111.504 65.879C111.782 65.8779 112.06 65.8768 112.347 65.8756C112.653 65.8759 112.96 65.8761 113.275 65.8764C113.6 65.8755 113.925 65.8747 114.26 65.8738C115.354 65.8712 116.449 65.8708 117.543 65.8703C118.325 65.869 119.108 65.8675 119.89 65.8659C122.02 65.862 124.149 65.8602 126.279 65.8589C127.608 65.8581 128.937 65.8569 130.267 65.8555C133.947 65.852 137.627 65.8489 141.307 65.848C141.543 65.8479 141.778 65.8478 142.021 65.8478C142.257 65.8477 142.493 65.8476 142.736 65.8476C143.215 65.8474 143.693 65.8473 144.172 65.8472C144.409 65.8471 144.647 65.847 144.891 65.847C148.738 65.8458 152.584 65.8407 156.431 65.8339C160.379 65.8269 164.327 65.8233 168.275 65.8229C170.493 65.8227 172.71 65.821 174.927 65.8157C176.815 65.8112 178.703 65.8097 180.59 65.8121C181.554 65.8132 182.517 65.8125 183.48 65.8088C184.524 65.8051 185.569 65.8068 186.613 65.8099C186.917 65.8075 187.222 65.8052 187.535 65.8027C189.599 65.8169 190.891 66.0925 192.406 67.5937C193.116 68.6266 193.429 69.5335 193.675 70.7401C193.749 71.069 193.749 71.069 193.824 71.4045C193.933 71.8902 194.039 72.3764 194.144 72.863C194.38 73.9638 194.628 75.0619 194.874 76.1604C195.014 76.7815 195.153 77.4027 195.291 78.0241C195.892 80.7183 196.522 83.4054 197.16 86.0912C197.211 86.3067 197.262 86.5223 197.315 86.7444C197.526 87.6318 197.737 88.5192 197.948 89.4066C199.617 96.4273 201.273 103.451 202.892 110.484C203.052 111.18 203.214 111.876 203.376 112.572C204.727 118.38 205.843 124.024 205.792 130.004C205.791 130.343 205.791 130.343 205.789 130.688C205.701 145.905 199.16 159.822 188.428 170.45C178.963 179.384 167.063 184.745 154.101 185.742C154.101 198.89 154.101 212.039 154.101 225.586C163.76 225.551 163.76 225.551 173.419 225.506C175.289 225.502 175.289 225.502 176.166 225.502C176.776 225.5 177.387 225.497 177.997 225.493C178.923 225.486 179.849 225.485 180.775 225.486C181.046 225.483 181.317 225.479 181.596 225.476C183.451 225.485 184.687 225.805 186.127 227.05C186.949 228.025 187.016 228.984 186.995 230.235C186.848 231.363 186.424 231.994 185.742 232.91C184.239 233.894 182.949 233.913 181.215 233.9C180.939 233.902 180.662 233.903 180.377 233.904C179.451 233.908 178.526 233.905 177.6 233.902C176.936 233.904 176.272 233.905 175.608 233.907C173.804 233.911 172.001 233.91 170.198 233.907C168.312 233.904 166.425 233.907 164.539 233.908C161.167 233.91 157.796 233.907 154.425 233.902C151.37 233.898 148.314 233.899 145.259 233.903C141.709 233.908 138.159 233.91 134.609 233.907C132.731 233.906 130.852 233.906 128.974 233.908C127.208 233.911 125.442 233.909 123.676 233.904C123.028 233.903 122.379 233.903 121.731 233.905C120.846 233.908 119.962 233.905 119.077 233.9C118.692 233.903 118.692 233.903 118.298 233.906C116.493 233.889 115.273 233.534 113.873 232.324C113.046 231.344 112.984 230.376 113.005 229.118C113.186 227.771 114 226.977 114.996 226.129C116.36 225.402 117.437 225.429 118.958 225.452C119.403 225.452 119.403 225.452 119.856 225.452C120.812 225.453 121.768 225.462 122.724 225.471C123.316 225.473 123.907 225.474 124.499 225.475C126.688 225.481 128.877 225.497 131.067 225.512C138.408 225.549 138.408 225.549 145.898 225.586C145.802 212.534 145.705 199.482 145.605 186.035C143.382 185.648 141.158 185.261 138.867 184.863C135.33 184.018 131.96 183.047 128.613 181.64C128.416 181.558 128.219 181.475 128.016 181.39C121.216 178.483 115.472 174.116 110.156 169.043C109.869 168.779 109.869 168.779 109.576 168.509C101.698 161.062 96.7765 149.953 94.9217 139.453C94.8405 139 94.8405 139 94.7577 138.538C94.3347 135.927 94.2359 133.37 94.2433 130.732C94.2442 130.048 94.2373 129.364 94.2299 128.679C94.2025 122.683 95.5279 116.976 96.8809 111.163C97.0479 110.439 97.2147 109.714 97.3815 108.99C99.1229 101.448 100.925 93.9194 102.735 86.3934C103.397 83.6431 104.049 80.8908 104.694 78.1364C104.914 77.1999 105.134 76.2635 105.355 75.3271C105.49 74.7493 105.625 74.1714 105.758 73.5933C105.939 72.8111 106.123 72.0296 106.307 71.2482C106.384 70.911 106.384 70.911 106.462 70.5669C106.938 68.5776 107.595 67.3882 109.277 66.2105C110.115 65.9312 110.634 65.8804 111.504 65.879ZM114.258 74.1207C113.882 75.0218 113.568 75.8959 113.345 76.846C113.287 77.089 113.229 77.332 113.17 77.5823C113.108 77.8454 113.047 78.1084 112.984 78.3794C112.918 78.6599 112.851 78.9404 112.783 79.2294C112.563 80.1618 112.344 81.0946 112.126 82.0274C111.97 82.6879 111.814 83.3484 111.659 84.0088C111.33 85.4029 111.002 86.7971 110.675 88.1915C110.267 89.9331 109.857 91.6744 109.446 93.4156C108.487 97.4877 107.532 101.561 106.582 105.636C106.347 106.642 106.111 107.649 105.876 108.656C105.498 110.27 105.122 111.885 104.748 113.5C104.61 114.096 104.471 114.691 104.331 115.287C101.029 129.385 102.033 142.565 109.534 155.181C111.306 157.985 113.288 160.626 115.722 162.89C117.187 164.355 117.187 164.355 117.644 164.853C125.442 173.121 137.443 177.384 148.595 177.81C153.714 177.932 158.555 177.156 163.476 175.781C163.681 175.724 163.886 175.667 164.097 175.608C167.098 174.746 169.823 173.451 172.558 171.972C173.03 171.718 173.03 171.718 173.512 171.458C184.679 165.183 192.586 154.629 196.061 142.362C198.21 134.256 197.948 126.642 196.263 118.508C196.196 118.184 196.196 118.184 196.128 117.854C195.145 113.105 194.042 108.388 192.912 103.672C192.476 101.849 192.044 100.025 191.61 98.2009C191.445 97.506 191.28 96.811 191.114 96.1161C190.37 92.9884 189.637 89.8583 188.911 86.7263C188.814 86.31 188.718 85.8937 188.621 85.4774C188.255 83.8994 187.889 82.3215 187.526 80.743C187.28 79.6771 187.033 78.6115 186.786 77.5459C186.677 77.0719 186.677 77.0719 186.566 76.5883C186.5 76.3037 186.434 76.019 186.366 75.7258C186.309 75.4778 186.251 75.2298 186.192 74.9743C186.085 74.4158 186.085 74.4158 185.742 74.1207C184.824 74.0919 183.912 74.0826 182.993 74.0854C182.701 74.0852 182.409 74.0849 182.108 74.0847C181.121 74.0842 180.134 74.0858 179.147 74.0874C178.442 74.0875 177.738 74.0875 177.034 74.0873C175.513 74.0872 173.993 74.0881 172.472 74.0897C170.274 74.0921 168.076 74.0928 165.877 74.0932C162.311 74.0939 158.745 74.0958 155.178 74.0986C151.713 74.1013 148.248 74.1033 144.783 74.1046C144.463 74.1047 144.463 74.1047 144.136 74.1048C143.065 74.1052 141.995 74.1056 140.924 74.1059C132.035 74.109 123.146 74.1142 114.258 74.1207Z" fill="black"/>
</svg>
