<svg width="300" height="300" viewBox="0 0 300 300" fill="none" xmlns="http://www.w3.org/2000/svg">
<path d="M86.7188 145.605C87.4339 145.952 88.1273 146.323 88.8222 146.71C91.0363 147.94 93.209 148.939 95.6154 149.733C96.3867 150 96.3867 150 96.6797 150.293C96.7558 150.683 96.8151 151.076 96.8672 151.47C96.9016 151.725 96.9359 151.98 96.9713 152.242C97.0081 152.525 97.0449 152.808 97.0828 153.099C97.1424 153.545 97.1424 153.545 97.2032 154C97.3365 155 97.4681 156 97.5998 157C97.6939 157.708 97.7881 158.415 97.8824 159.122C98.0846 160.639 98.2862 162.156 98.4872 163.673C98.9923 167.483 99.5023 171.292 100.013 175.102C100.068 175.508 100.122 175.915 100.177 176.322C101.561 186.653 103.012 196.973 104.49 207.291C104.97 210.648 105.441 214.006 105.907 217.365C106.187 219.383 106.469 221.4 106.752 223.416C106.943 224.779 107.132 226.141 107.319 227.504C107.491 228.76 107.666 230.015 107.844 231.271C107.908 231.727 107.971 232.184 108.032 232.64C108.741 238.235 108.741 238.235 111.881 242.71C112.867 243.275 113.479 243.472 114.624 243.384C115.923 242.557 116.414 241.327 116.759 239.855C117.369 236.287 116.711 232.384 116.424 228.804C116.374 228.157 116.323 227.51 116.273 226.862C116.136 225.111 115.997 223.359 115.859 221.607C115.712 219.759 115.568 217.911 115.423 216.063C115.18 212.952 114.935 209.84 114.69 206.728C114.44 203.556 114.19 200.384 113.94 197.211C113.925 197.017 113.91 196.823 113.894 196.623C113.637 193.345 113.38 190.066 113.123 186.788C112.951 184.605 112.779 182.422 112.607 180.238C112.089 173.675 111.578 167.111 111.104 160.544C111.085 160.283 111.066 160.023 111.047 159.755C110.994 159.029 110.942 158.304 110.891 157.579C110.876 157.369 110.86 157.16 110.845 156.944C110.765 155.798 110.728 154.663 110.742 153.516C112.822 153.656 114.894 153.836 116.964 154.073C117.176 154.097 117.388 154.121 117.606 154.146C118.049 154.197 118.492 154.247 118.934 154.298C124.206 154.896 129.466 155.312 134.766 155.566C135.263 155.592 135.263 155.592 135.77 155.618C177.397 157.729 177.397 157.729 216.482 145.928C217.09 145.605 217.09 145.605 217.676 145.605C217.638 145.957 217.638 145.957 217.599 146.315C217.343 148.676 217.087 151.037 216.831 153.398C216.686 154.732 216.542 156.066 216.397 157.399C215.669 164.113 214.941 170.826 214.213 177.539C213.563 183.535 212.913 189.531 212.263 195.528C211.89 198.964 211.518 202.4 211.145 205.836C210.812 208.914 210.478 211.992 210.144 215.07C209.97 216.673 209.797 218.276 209.623 219.878C209.557 220.483 209.492 221.087 209.426 221.692C209.394 221.987 209.362 222.282 209.33 222.587C209.173 224.032 209.016 225.478 208.857 226.924C208.795 227.487 208.733 228.051 208.672 228.615C208.641 228.892 208.611 229.169 208.58 229.455C208.384 231.249 208.195 233.044 208.009 234.839C207.882 236.068 207.751 237.296 207.621 238.525C207.56 239.108 207.5 239.69 207.441 240.273C207.36 241.076 207.275 241.878 207.189 242.681C207.155 243.035 207.155 243.035 207.12 243.397C206.891 245.456 206.13 246.707 204.524 248.007C196.646 253.493 183.999 254.377 174.756 255.524C174.395 255.569 174.035 255.614 173.664 255.661C172.417 255.808 171.171 255.937 169.922 256.055C169.647 256.081 169.372 256.106 169.088 256.133C163.403 256.647 157.745 256.742 152.041 256.733C151.075 256.732 150.109 256.734 149.143 256.739C108.546 256.962 108.546 256.962 98.2361 246.918C96.4464 244.395 96.7211 240.183 96.4065 237.161C96.3524 236.649 96.2983 236.138 96.2441 235.627C96.1275 234.525 96.0116 233.423 95.8962 232.322C95.7104 230.548 95.5231 228.774 95.3356 227C95.0673 224.46 94.7997 221.92 94.5325 219.38C93.8729 213.109 93.2099 206.838 92.5468 200.567C92.4417 199.574 92.3368 198.581 92.2318 197.587C91.332 189.075 90.425 180.564 89.5008 172.055C89.4761 171.828 89.4514 171.6 89.4259 171.366C88.9709 167.177 88.514 162.988 88.0557 158.799C87.8737 157.137 87.6922 155.475 87.5107 153.813C87.4032 152.83 87.2951 151.847 87.187 150.865C87.1238 150.287 87.0607 149.71 86.9976 149.133C86.9689 148.874 86.9402 148.614 86.9107 148.347C86.8107 147.429 86.7188 146.53 86.7188 145.605Z" fill="black"/>
<path d="M149.121 30.1006C149.888 30.103 150.655 30.1045 151.422 30.1057C159.161 30.1204 166.888 30.1932 174.61 30.7621C174.857 30.78 175.104 30.7978 175.358 30.8161C223.189 34.3033 223.189 34.3033 237.012 47.4614C239.686 50.6478 240.485 53.6373 240.165 57.7321C240.061 58.7603 239.948 59.7869 239.831 60.8137C239.787 61.2117 239.742 61.6097 239.699 62.0077C239.603 62.871 239.506 63.7342 239.409 64.5973C239.249 66.0103 239.092 67.4235 238.935 68.8367C238.705 70.9096 238.474 72.9823 238.242 75.055C237.866 78.4071 237.493 81.7595 237.121 85.1119C237.089 85.3984 237.057 85.6849 237.024 85.98C236.861 87.453 236.697 88.9259 236.534 90.3989C236.399 91.6101 236.265 92.8213 236.13 94.0326C235.074 103.535 234.03 113.039 232.994 122.544C232.959 122.863 232.925 123.182 232.889 123.511C232.465 127.401 232.042 131.292 231.618 135.183C230.979 141.061 230.339 146.939 229.699 152.817C229.628 153.465 229.558 154.113 229.487 154.761C227.471 173.277 225.437 191.792 223.399 210.306C222.764 216.081 222.13 221.856 221.5 227.631C221.29 229.557 221.08 231.482 220.869 233.407C220.687 235.071 220.506 236.734 220.326 238.397C220.221 239.366 220.115 240.335 220.009 241.304C219.962 241.732 219.915 242.16 219.869 242.589C219.19 248.892 218.413 252.707 213.41 256.952C201.672 265.941 185.338 267.743 171.094 268.946C170.754 268.976 170.413 269.007 170.062 269.038C145.749 271.144 115.194 271.327 90.4373 257.336C86.8279 254.233 85.3015 251.046 84.7225 246.367C84.6745 245.992 84.6264 245.617 84.5768 245.231C83.7763 238.893 83.1339 232.534 82.4592 226.182C82.2719 224.421 82.0836 222.659 81.8953 220.898C81.416 216.413 80.939 211.928 80.4627 207.443C80.281 205.731 80.099 204.02 79.9171 202.308C78.7916 191.721 77.6728 181.133 76.5568 170.545C76.5155 170.153 76.4742 169.761 76.4329 169.37C75.0958 156.685 73.7624 144 72.4318 131.314C72.3634 130.662 72.295 130.01 72.2266 129.358C71.091 118.532 69.9578 107.706 68.8309 96.8794C68.7662 96.2579 68.7015 95.6365 68.6369 95.0151C68.594 94.603 68.5511 94.1909 68.5082 93.7789C68.1898 90.7206 67.8703 87.6624 67.5501 84.6043C67.1876 81.1429 66.8268 77.6813 66.4681 74.2195C66.2853 72.4561 66.1019 70.6928 65.9164 68.9296C65.7465 67.3136 65.5787 65.6973 65.4125 64.0808C65.3523 63.4982 65.2912 62.9155 65.2294 62.333C64.1709 52.3533 64.1709 52.3533 66.5043 49.091C78.3009 34.7331 104.069 32.9656 121.352 31.2649C130.594 30.3818 139.841 30.0702 149.121 30.1006ZM72.4884 53.1262C71.952 53.7523 71.7866 54.1533 71.6313 54.9687C71.8618 56.5245 72.6577 57.291 73.8285 58.3012C93.0139 72.0983 126.076 71.3402 187.629 69.5805C187.888 69.5508 188.148 69.521 188.415 69.4904C191.206 69.1665 193.939 68.7569 196.688 68.1732C197.798 67.9609 198.899 67.8238 200.021 67.6991C202.749 67.389 205.395 66.7715 208.063 66.1381C208.314 66.0792 208.565 66.0203 208.824 65.9596C222.095 63.3135 222.095 63.3135 232.911 55.9575C233.247 54.9095 233.31 54.4308 232.846 53.4249C226.971 45.6558 212.672 43.1314 203.562 41.7405C202.735 41.602 202.735 41.602 202.149 41.309C201.683 41.2174 201.214 41.1382 200.745 41.0653C200.45 41.0194 200.155 40.9734 199.851 40.9261C199.366 40.8528 199.366 40.8528 198.871 40.778C198.533 40.7267 198.194 40.6753 197.845 40.6224C182.672 38.3546 167.575 37.3907 152.239 37.4079C150.933 37.4093 149.628 37.4073 148.322 37.4019C108.847 36.9098 108.847 36.9098 72.4884 53.1262ZM230.375 66.0466C209.783 76.8128 181.329 78.2636 158.495 78.2723C157.892 78.2732 157.289 78.2742 156.686 78.2753C155.429 78.277 154.172 78.2775 152.916 78.2774C151.651 78.2774 150.387 78.2794 149.123 78.2834C139.369 78.3139 129.681 78.106 119.971 77.1061C119.727 77.0815 119.482 77.0569 119.23 77.0316C104.21 75.5136 88.7728 73.3114 75.021 66.7804C74.339 66.47 73.646 66.1949 72.9496 65.9184C73.1295 70.1766 73.5435 74.3979 73.994 78.6349C74.0719 79.3768 74.1497 80.1187 74.2274 80.8606C74.3953 82.4616 74.5639 84.0626 74.7333 85.6634C74.9844 88.0358 75.2339 90.4084 75.4832 92.781C75.8989 96.7389 76.3158 100.697 76.7333 104.654C77.3136 110.156 77.8916 115.658 78.4691 121.16C78.697 123.332 78.925 125.504 79.153 127.675C79.1783 127.916 79.2035 128.156 79.2295 128.404C79.935 135.122 80.642 141.841 81.3491 148.559C81.4288 149.316 81.5085 150.073 81.5882 150.83C81.6414 151.336 81.6946 151.841 81.7477 152.346C82.1465 156.134 82.5449 159.923 82.9431 163.711C84.3669 177.255 85.7938 190.799 87.2271 204.342C87.3058 205.085 87.3845 205.829 87.4631 206.572C88.0863 212.462 88.7108 218.352 89.3386 224.241C89.3879 224.704 89.4373 225.167 89.4867 225.631C89.511 225.858 89.5352 226.086 89.5602 226.32C89.7285 227.9 89.8962 229.48 90.0636 231.06C90.2646 232.958 90.4665 234.855 90.6696 236.751C90.7724 237.711 90.8746 238.671 90.9759 239.631C91.0857 240.671 91.1972 241.71 91.309 242.749C91.3402 243.048 91.3713 243.346 91.4034 243.654C91.7909 247.212 92.1023 249.53 94.9223 251.954C103.414 258.317 115.735 259.779 125.959 261.091C126.306 261.136 126.654 261.181 127.012 261.228C128.228 261.376 129.445 261.504 130.664 261.622C131.063 261.66 131.063 261.66 131.47 261.7C137.565 262.269 143.648 262.308 149.765 262.3C150.869 262.299 151.973 262.301 153.077 262.306C183.947 262.56 183.947 262.56 210.888 249.772C212.235 248.187 212.549 246.504 212.737 244.496C212.763 244.252 212.788 244.009 212.814 243.757C212.9 242.936 212.981 242.114 213.062 241.292C213.124 240.691 213.186 240.089 213.249 239.488C213.385 238.17 213.52 236.852 213.653 235.533C214.009 232.025 214.376 228.519 214.743 225.013C214.807 224.403 214.87 223.794 214.934 223.185C215.696 215.882 216.494 208.583 217.305 201.285C217.336 201.014 217.366 200.743 217.397 200.464C217.855 196.344 218.315 192.224 218.775 188.105C218.893 187.047 219.011 185.989 219.129 184.931C219.158 184.673 219.187 184.414 219.217 184.148C219.532 181.326 219.847 178.504 220.162 175.682C220.19 175.432 220.218 175.183 220.246 174.925C221.827 160.758 223.359 146.585 224.856 132.408C225.684 124.566 226.547 116.729 227.436 108.893C228.475 99.7262 229.483 90.5561 230.475 81.3838C230.585 80.3686 230.695 79.3535 230.805 78.3383C230.979 76.7417 231.151 75.145 231.323 73.5483C231.387 72.9565 231.451 72.3648 231.515 71.7731C231.603 70.9604 231.691 70.1476 231.778 69.3348C231.804 69.0974 231.83 68.86 231.856 68.6154C231.973 67.5165 232.062 66.438 232.032 65.3325C231.422 65.3325 230.903 65.7673 230.375 66.0466Z" fill="black"/>
<path d="M150.146 121.214C150.857 121.216 151.569 121.218 152.281 121.219C159.051 121.234 165.812 121.252 172.559 121.875C172.815 121.899 173.071 121.922 173.335 121.946C209.005 125.254 209.005 125.254 216.504 133.887C217.23 134.925 217.379 135.817 217.42 137.091C217.11 138.672 216.276 139.63 215.039 140.625C202.64 148.921 183.355 149.269 168.815 149.969C168.353 149.991 167.891 150.014 167.429 150.038C161.76 150.323 156.096 150.352 150.421 150.348C150.069 150.348 150.069 150.348 149.709 150.348C142.372 150.346 135.053 150.285 127.735 149.707C127.534 149.692 127.332 149.676 127.125 149.66C111.206 148.413 111.206 148.413 110.157 147.363C110.07 146.665 110.005 145.977 109.955 145.276C109.908 144.704 109.908 144.704 109.86 144.12C109.866 142.209 110.269 140.827 111.621 139.453C114.474 137.516 117.715 136.818 121.038 136.115C122.209 135.867 123.378 135.606 124.547 135.344C125.11 135.217 125.674 135.093 126.238 134.97C126.494 134.914 126.749 134.857 127.013 134.799C127.237 134.75 127.462 134.701 127.694 134.65C128.345 134.466 128.898 134.208 129.493 133.887C129.299 132.975 129.299 132.975 128.604 132.681C127.495 132.351 126.392 132.207 125.244 132.092C124.879 132.056 124.879 132.056 124.507 132.018C115.883 131.229 104.626 131.551 97.1962 136.615C96.1302 137.636 95.447 138.57 95.3937 140.064C95.4014 140.483 95.4152 140.902 95.4349 141.321C95.4429 141.644 95.4429 141.644 95.4509 141.974C95.4646 142.501 95.4856 143.028 95.5082 143.555C92.5205 143.201 89.2838 141.442 87.305 139.16C86.5546 137.915 86.4643 136.771 86.7191 135.352C88.6047 131.137 93.6227 129.329 97.6322 127.716C106.059 124.604 115.324 123.345 124.219 122.388C124.527 122.354 124.527 122.354 124.841 122.319C133.248 121.409 141.696 121.183 150.146 121.214Z" fill="black"/>
</svg>
