<svg width="300" height="300" viewBox="0 0 300 300" fill="none" xmlns="http://www.w3.org/2000/svg">
<path d="M191.602 136.23C192.125 139.042 192.295 141.779 192.28 144.635C192.279 144.944 192.279 144.944 192.278 145.258C192.264 148.474 192.077 151.556 191.309 154.688C191.26 154.899 191.212 155.111 191.162 155.329C188.6 166.29 181.811 175.927 172.327 181.976C165.072 186.48 157.152 188.261 148.695 188.201C147.903 188.196 147.112 188.201 146.32 188.206C145.807 188.206 145.293 188.204 144.78 188.203C144.548 188.204 144.316 188.206 144.078 188.208C142.395 188.187 141.022 187.791 139.454 187.207C138.886 187.054 138.319 186.901 137.751 186.749C127.181 183.498 118.122 175.317 112.904 165.715C108.173 156.717 106.751 146.528 108.399 136.523C110.698 136.914 112.968 137.805 115.082 138.776C117.285 139.683 119.63 139.89 121.983 140.113C122.298 140.144 122.613 140.175 122.937 140.207C123.601 140.272 124.265 140.337 124.93 140.4C125.928 140.496 126.925 140.594 127.923 140.693C134.625 141.35 141.255 141.559 147.985 141.558C148.896 141.558 149.806 141.56 150.717 141.564C164.444 141.624 178.806 136.23 191.602 136.23Z" fill="black"/>
<path d="M110.156 91.6992C110.788 92.6475 110.808 92.7431 110.676 93.7961C110.631 94.1731 110.631 94.1731 110.585 94.5577C110.548 94.8365 110.512 95.1153 110.474 95.4025C110.437 95.7029 110.4 96.0034 110.362 96.3129C110.236 97.3389 110.104 98.3642 109.973 99.3896C109.881 100.122 109.79 100.855 109.7 101.587C109.401 103.988 109.096 106.389 108.79 108.789C108.61 110.206 108.431 111.624 108.251 113.041C108.213 113.343 108.174 113.645 108.135 113.955C107.937 115.517 107.739 117.079 107.542 118.641C107.462 119.271 107.382 119.902 107.302 120.532C107.263 120.844 107.223 121.156 107.183 121.478C106.945 123.357 106.705 125.236 106.465 127.114C106.312 128.306 106.161 129.499 106.009 130.691C105.938 131.248 105.867 131.805 105.795 132.363C103.957 146.647 105.055 160.711 113.836 172.705C115.079 174.286 116.389 175.788 117.773 177.246C117.909 177.391 118.045 177.537 118.185 177.687C124.762 184.691 133.213 189.279 142.675 191.016C143.031 191.081 143.388 191.147 143.754 191.215C155.098 192.997 166.742 189.726 175.983 183.04C176.929 182.321 177.823 181.551 178.71 180.762C178.952 180.555 179.194 180.349 179.443 180.136C187.124 173.451 192.042 164.588 194.238 154.688C194.282 154.498 194.325 154.309 194.371 154.113C195.849 147.483 195.332 140.53 194.488 133.851C194.423 133.318 194.358 132.786 194.292 132.253C194.083 130.551 193.868 128.85 193.652 127.148C193.616 126.864 193.58 126.579 193.542 126.285C193.022 122.183 192.49 118.081 191.956 113.981C191.644 111.585 191.332 109.19 191.021 106.795C190.915 105.976 190.808 105.157 190.701 104.338C190.383 101.894 190.075 99.4492 189.797 97.0001C189.76 96.6802 189.76 96.6802 189.722 96.3539C189.549 94.7907 189.5 93.27 189.55 91.6992C190.339 92.4881 190.409 93.3128 190.616 94.3714C190.662 94.597 190.707 94.8225 190.754 95.0549C190.911 95.834 191.064 96.6138 191.217 97.3938C191.298 97.805 191.298 97.805 191.381 98.2245C192.626 104.52 193.77 110.835 194.915 117.149C195.06 117.948 195.206 118.747 195.351 119.546C198.783 138.413 201.376 156.803 189.938 173.638C187.203 177.493 183.985 181.243 180.23 184.131C179.961 184.339 179.961 184.339 179.687 184.551C179.168 184.951 178.647 185.347 178.125 185.742C177.752 186.024 177.752 186.024 177.373 186.312C171.391 190.664 164.525 193.349 157.36 195.007C156.07 195.326 155.077 195.632 154.101 196.582C153.791 197.373 153.656 198.079 153.515 198.926C153.717 198.922 153.919 198.917 154.127 198.913C156.601 198.884 159.037 199.054 161.499 199.292C161.804 199.321 161.804 199.321 162.116 199.351C179.975 201.072 179.975 201.072 185.156 205.957C185.625 206.895 185.568 207.555 185.449 208.594C184.377 210.832 181.779 211.843 179.589 212.695C177.862 213.303 176.098 213.748 174.316 214.16C174.088 214.213 173.861 214.267 173.627 214.321C165.969 216.062 158.083 216.379 150.26 216.342C149.639 216.339 149.019 216.338 148.398 216.336C122.102 216.266 122.102 216.266 115.294 209.688C114.689 209.006 114.559 208.669 114.459 207.751C114.55 206.836 114.55 206.836 115.026 206.213C116.947 204.697 118.701 204.03 121.051 203.339C121.391 203.237 121.732 203.135 122.083 203.03C123.087 202.732 124.092 202.44 125.097 202.148C125.355 202.072 125.613 201.996 125.879 201.918C132.722 199.91 139.688 199.287 146.777 198.926C146.61 198.503 146.438 198.082 146.264 197.662C146.169 197.428 146.074 197.193 145.976 196.952C145.41 195.94 144.786 195.531 143.698 195.159C143.425 195.093 143.151 195.027 142.869 194.958C142.406 194.842 142.406 194.842 141.934 194.723C141.605 194.642 141.275 194.56 140.936 194.476C131.498 192.022 123.628 187.83 116.601 181.055C116.359 180.831 116.117 180.608 115.868 180.377C106.765 171.727 101.788 158.92 101.367 146.484C101.277 140.521 102.012 134.675 103.051 128.815C103.164 128.165 103.277 127.515 103.39 126.865C103.782 124.615 104.185 122.366 104.589 120.117C104.629 119.896 104.669 119.675 104.71 119.447C105.327 116.009 105.95 112.573 106.579 109.137C106.712 108.407 106.845 107.676 106.978 106.946C107.909 101.831 108.859 96.7367 110.156 91.6992Z" fill="black"/>
<path d="M190.722 132.129C191.07 132.843 191.07 132.843 191.015 133.594C189.76 135.825 187.376 136.414 185.041 137.114C182.438 137.823 179.844 138.349 177.173 138.739C176.967 138.769 176.761 138.8 176.55 138.831C157.573 141.616 128.774 144.533 111.218 135.644C111.034 135.554 110.851 135.463 110.662 135.37C109.912 134.908 109.394 134.431 109.021 133.63C108.967 132.718 109.349 132.284 109.863 131.543C111.379 130.286 113.261 129.543 115.081 128.833C115.261 128.761 115.441 128.689 115.627 128.614C128.764 123.743 180.69 122.764 190.722 132.129Z" fill="black"/>
<path d="M149.615 83.7155C149.956 83.7152 149.956 83.7152 150.304 83.7149C157.459 83.7111 164.565 83.8137 171.679 84.6676C172.045 84.7115 172.411 84.7554 172.788 84.8007C185.905 86.4525 185.905 86.4525 188.591 89.6675C189.006 90.2975 189.212 90.65 189.257 91.4059C188.899 92.6713 188.285 93.3265 187.224 94.0426C180.343 97.8414 171.438 98.1316 163.769 98.7301C163.412 98.7586 163.056 98.787 162.689 98.8164C158.501 99.1078 154.305 99.0951 150.109 99.0963C149.808 99.0965 149.808 99.0965 149.502 99.0967C117.872 99.1074 117.872 99.1074 111.448 93.0161C110.893 92.3027 110.742 91.713 110.668 90.82C111.441 88.9649 113.232 88.1852 115.008 87.4325C119.625 85.7953 124.442 85.1314 129.29 84.5944C129.508 84.5701 129.726 84.5457 129.951 84.5207C136.502 83.8022 143.031 83.7178 149.615 83.7155ZM128.612 85.2536C128.261 85.2975 127.909 85.3414 127.547 85.3866C119.049 86.2035 119.049 86.2035 111.913 90.234C111.87 90.9716 111.87 90.9716 112.206 91.6989C122.497 100.866 149.127 98.0674 161.799 97.3572C175.833 97.0416 175.833 97.0416 188.085 91.4059C188.102 90.6833 188.102 90.6833 187.792 89.9411C184.991 87.4243 181.125 86.8044 177.538 86.1325C177.33 86.0925 177.122 86.0525 176.908 86.0113C175.173 85.6873 173.431 85.4598 171.679 85.2536C171.345 85.213 171.011 85.1725 170.667 85.1308C156.979 83.5597 142.286 83.5401 128.612 85.2536Z" fill="black"/>
</svg>
