<svg width="300" height="300" viewBox="0 0 300 300" fill="none" xmlns="http://www.w3.org/2000/svg">
<path d="M150.311 79.5225C151.38 79.7272 151.643 80.0399 152.343 80.8591C153.427 82.9006 154.05 85.0293 154.394 87.3044C154.563 88.5184 154.563 88.5184 154.98 89.6482C154.803 90.2398 154.608 90.8267 154.394 91.406C154.72 91.417 154.72 91.417 155.052 91.4283C156.047 91.4625 157.043 91.4983 158.038 91.5342C158.55 91.5515 158.55 91.5515 159.072 91.5691C164.388 91.7638 164.388 91.7638 165.399 92.6511C165.844 93.5033 165.928 93.9763 165.82 94.9216C166.11 94.9216 166.4 94.9216 166.699 94.9216C166.539 95.9103 166.39 96.4106 165.82 97.2654C164.558 97.8246 163.625 97.8882 162.268 97.7231C160.625 97.5612 159.098 97.6034 157.459 97.7769C156.738 97.8513 156.738 97.8513 155.859 97.8513C155.859 98.0447 155.859 98.238 155.859 98.4373C155.424 98.5823 155.424 98.5823 154.98 98.7302C154.711 100.309 154.659 101.818 154.687 103.418C154.687 103.708 154.687 103.998 154.687 104.297C155.739 104.998 156.34 105.002 157.594 105.091C158.01 105.123 158.427 105.155 158.843 105.187C159.061 105.203 159.28 105.219 159.504 105.235C173.841 106.301 187.226 109.924 197.168 120.996C198.039 122.034 198.866 123.105 199.687 124.183C200.225 124.882 200.769 125.543 201.361 126.196C202.872 127.93 204.003 129.878 204.492 132.129C204.685 132.129 204.879 132.129 205.078 132.129C205.446 132.98 205.664 133.534 205.664 134.472C205.857 134.472 206.051 134.472 206.25 134.472C207.047 136.445 207.811 138.428 208.55 140.423C208.84 141.237 208.84 141.237 209.472 141.797C209.765 141.289 210.058 140.782 210.351 140.275C210.538 139.952 210.724 139.628 210.917 139.296C211.322 138.594 211.726 137.892 212.13 137.19C213.841 134.215 213.841 134.215 214.691 132.802C214.802 132.614 214.914 132.427 215.028 132.234C215.31 131.762 215.596 131.292 215.881 130.822C216.269 130.115 216.269 130.115 216.139 129.44C216.066 129.264 215.993 129.088 215.918 128.906C215.224 127.07 215.068 125.615 215.771 123.761C216.459 122.32 217.479 121.49 218.847 120.703C220.602 120.118 221.934 120.26 223.59 121.014C225.573 122.097 226.461 123.589 227.179 125.686C227.819 127.954 227.819 127.954 227.343 128.906C227.537 129.003 227.73 129.099 227.929 129.199C227.639 129.199 227.349 129.199 227.051 129.199C226.857 129.779 226.664 130.359 226.465 130.957C226.175 130.86 225.884 130.763 225.586 130.664C225.586 130.857 225.586 131.051 225.586 131.25C225.392 131.25 225.199 131.25 225 131.25C225 131.443 225 131.636 225 131.836C224.324 132.725 223.72 132.812 222.656 133.008C222.559 133.201 222.463 133.394 222.363 133.594C222.17 133.594 221.976 133.594 221.777 133.594C221.637 134.808 221.496 136.023 221.356 137.237C221.297 137.749 221.297 137.749 221.236 138.271C221.022 140.13 220.81 141.988 220.605 143.847C220.412 143.847 220.218 143.847 220.019 143.847C220.019 144.718 220.019 145.588 220.019 146.484C219.826 146.484 219.633 146.484 219.433 146.484C219.488 146.635 219.542 146.786 219.598 146.942C219.961 148.966 219.094 151.249 218.499 153.186C218.163 154.066 218.163 154.066 218.554 154.687C218.417 155.239 218.277 155.79 218.128 156.339C217.901 157.324 217.825 158.31 217.748 159.316C217.676 159.961 217.676 159.961 217.383 160.84C217.116 161.806 216.958 162.78 216.797 163.769C216.671 164.43 216.541 165.085 216.377 165.738C216.155 166.629 215.952 167.524 215.753 168.42C215.635 168.945 215.635 168.945 215.514 169.48C215.345 170.435 215.322 171.299 215.332 172.265C215.235 172.362 215.138 172.459 215.039 172.558C214.996 172.86 214.954 173.163 214.911 173.474C214.746 174.609 214.746 174.609 214.435 175.653C214.115 176.625 214.115 176.625 214.196 177.521C214.145 178.78 213.602 179.681 212.988 180.761C213.181 180.858 213.375 180.955 213.574 181.054C213.381 182.118 213.187 183.181 212.988 184.277C212.795 184.277 212.601 184.277 212.402 184.277C212.411 184.785 212.411 184.785 212.42 185.302C212.42 188.342 212.42 188.342 211.816 189.551C211.816 189.937 211.816 190.324 211.816 190.722C212.009 190.722 212.203 190.722 212.402 190.722C212.348 191.049 212.293 191.375 212.237 191.711C212.016 192.722 212.016 192.722 212.402 193.359C212.292 194.565 212.201 195.271 211.523 196.289C211.813 196.385 212.103 196.482 212.402 196.582C212.209 196.582 212.015 196.582 211.816 196.582C211.774 196.956 211.732 197.331 211.688 197.717C211.609 198.415 211.546 198.88 211.23 199.511C211.037 199.511 210.843 199.511 210.644 199.511C210.614 199.838 210.584 200.164 210.553 200.5C210.453 201.026 210.453 201.026 210.351 201.562C210.061 201.756 209.771 201.949 209.472 202.148C209.472 202.438 209.472 202.728 209.472 203.027C209.182 203.124 208.892 203.22 208.593 203.32C208.292 203.604 208 203.899 207.715 204.199C207.288 204.573 206.854 204.939 206.415 205.298C206.191 205.483 205.968 205.669 205.738 205.861C205.078 206.25 205.078 206.25 204.408 206.163C204.243 206.095 204.077 206.027 203.906 205.957C203.809 206.247 203.713 206.537 203.613 206.836C203.42 206.836 203.226 206.836 203.027 206.836C203.027 207.029 203.027 207.222 203.027 207.422C201.411 208.499 199.652 209.337 197.754 209.765C197.56 209.814 197.367 209.862 197.168 209.912C196.582 210.058 195.996 210.205 195.41 210.351C195.507 210.545 195.603 210.738 195.703 210.937C195.312 211.035 194.922 211.133 194.531 211.23C194.326 211.285 194.12 211.339 193.908 211.395C193.359 211.523 193.359 211.523 192.773 211.523C192.109 211.811 191.459 212.125 190.807 212.439C190.136 212.695 190.136 212.695 188.965 212.695C188.268 212.837 187.582 213.009 186.892 213.181C186.706 213.214 186.52 213.247 186.328 213.281C186.231 213.184 186.134 213.088 186.035 212.988C185.527 213.053 185.022 213.142 184.519 213.239C184.19 213.3 183.862 213.361 183.524 213.424C183.162 213.491 182.8 213.559 182.428 213.629C178.991 214.247 175.553 214.728 172.082 215.112C171.869 215.136 171.655 215.16 171.435 215.185C165.309 215.873 159.181 215.984 153.021 216.083C152.27 216.095 151.519 216.108 150.768 216.121C148.95 216.152 147.131 216.182 145.312 216.211C145.312 216.307 145.312 216.404 145.312 216.504C144.345 216.6 143.379 216.697 142.383 216.797C142.383 216.603 142.383 216.41 142.383 216.211C142.17 216.26 141.957 216.308 141.738 216.359C140.957 216.497 140.3 216.519 139.511 216.478C139.118 216.459 139.118 216.459 138.716 216.44C138.446 216.424 138.175 216.409 137.896 216.394C137.496 216.375 137.496 216.375 137.087 216.355C135.901 216.294 134.727 216.217 133.55 216.061C132.36 215.91 131.184 215.843 129.986 215.79C128.246 215.702 126.582 215.51 124.872 215.158C124.061 215.01 123.282 215.019 122.461 215.039C121.97 214.953 121.482 214.855 120.996 214.746C120.41 214.646 119.824 214.548 119.238 214.453C119.238 214.26 119.238 214.066 119.238 213.867C118.561 213.867 117.884 213.867 117.187 213.867C117.187 213.674 117.187 213.48 117.187 213.281C116.81 213.249 116.433 213.218 116.045 213.185C114.546 213.017 113.166 212.635 111.731 212.182C111.347 212.063 111.347 212.063 110.955 211.942C110.439 211.781 109.923 211.619 109.407 211.456C108.783 211.259 108.157 211.069 107.53 210.881C103.406 209.596 99.1615 207.835 95.8005 205.078C95.552 204.877 95.3035 204.675 95.0475 204.468C92.3268 202.149 90.3541 199.559 89.6482 195.996C89.3589 192.353 89.3589 192.353 89.9663 190.775C90.6662 188.34 89.6887 185.394 89.2213 182.967C89.1457 182.569 89.0701 182.171 88.9947 181.773C88.8307 180.91 88.6658 180.046 88.5003 179.182C88.2334 177.789 87.9684 176.396 87.7036 175.002C86.7656 170.07 85.8213 165.138 84.8778 160.206C84.3414 157.402 83.8056 154.598 83.2702 151.794C82.8731 149.715 82.4749 147.636 82.0759 145.557C81.8247 144.247 81.5744 142.937 81.3242 141.627C81.207 141.014 81.0894 140.401 80.9714 139.788C80.8087 138.943 80.6473 138.097 80.4862 137.252C80.4389 137.007 80.3916 136.763 80.3429 136.512C80.0484 134.957 79.8452 133.411 79.6872 131.836C79.3368 131.812 78.9863 131.787 78.6252 131.762C76.9582 131.548 75.8779 130.752 74.78 129.51C73.6829 128.017 73.3771 126.959 73.5349 125.097C73.9446 123.176 74.8552 122.088 76.4646 120.996C77.7537 120.25 79.1137 120.223 80.5661 120.41C82.4405 120.918 83.3376 121.982 84.337 123.597C84.6677 124.219 84.6677 124.219 84.9607 125.097C85.2024 125.309 85.4441 125.52 85.6931 125.738C86.8132 126.998 86.7185 128.124 86.7185 129.785C86.7245 130.123 86.7306 130.462 86.7368 130.81C86.7185 131.836 86.7185 131.836 86.4255 132.715C86.2321 132.715 86.0388 132.715 85.8396 132.715C86.9936 134.266 86.9936 134.266 88.1833 135.791C88.7023 136.439 89.2152 137.091 89.7214 137.75C89.874 137.948 90.0265 138.145 90.1837 138.349C90.5271 138.867 90.5271 138.867 90.5271 139.453C90.7204 139.55 90.9138 139.646 91.113 139.746C91.113 140.036 91.113 140.326 91.113 140.625C91.3064 140.625 91.4997 140.625 91.6989 140.625C92.8708 142.602 92.8708 142.602 92.8708 143.261C93.0642 143.261 93.2575 143.261 93.4568 143.261C93.5244 142.981 93.592 142.7 93.6616 142.411C93.9192 141.352 94.1869 140.296 94.4584 139.24C94.5663 138.818 94.6724 138.395 94.776 137.972C96.0982 132.612 98.5215 127.382 101.953 123.047C102.074 122.892 102.194 122.738 102.318 122.579C110.769 111.85 123.039 107.458 136.23 105.761C140.145 105.3 144.008 105.106 147.949 105.176C147.949 102.469 147.949 99.7615 147.949 96.9724C147.074 96.986 146.2 96.9996 145.298 97.0136C144.451 97.0228 143.604 97.0299 142.756 97.0368C142.167 97.0427 141.579 97.0507 140.99 97.0608C140.143 97.075 139.297 97.0817 138.45 97.0869C138.056 97.0959 138.056 97.0959 137.653 97.1052C135.832 97.1058 135.832 97.1058 134.9 96.4423C134.293 95.5318 134.199 94.8381 134.179 93.7498C134.574 92.8862 134.79 92.4189 135.644 91.9919C136.541 91.9458 137.432 91.9162 138.329 91.8992C138.595 91.8932 138.861 91.8871 139.134 91.8808C139.985 91.8616 140.836 91.8444 141.687 91.8271C142.263 91.8145 142.839 91.8017 143.415 91.7888C144.828 91.7574 146.242 91.7277 147.656 91.699C147.657 91.3871 147.658 91.0753 147.66 90.7541C147.666 89.5937 147.682 88.4336 147.701 87.2733C147.707 86.7718 147.712 86.2703 147.713 85.7687C147.716 85.0463 147.728 84.3246 147.742 83.6023C147.741 83.3791 147.739 83.156 147.738 82.9261C147.77 81.7549 147.905 81.2078 148.638 80.2768C149.414 79.6873 149.414 79.6873 150.311 79.5225ZM147.363 109.863C147.46 110.153 147.556 110.443 147.656 110.742C147.366 110.742 147.076 110.742 146.777 110.742C146.68 110.549 146.584 110.355 146.484 110.156C146.484 110.349 146.484 110.543 146.484 110.742C146.291 110.742 146.097 110.742 145.898 110.742C145.898 110.549 145.898 110.355 145.898 110.156C143.534 110.122 141.217 110.185 138.867 110.449C139.157 110.739 139.157 110.739 139.453 111.035C139.163 110.938 138.873 110.842 138.574 110.742C136.294 110.63 133.318 110.587 131.25 111.621C131.056 111.663 130.863 111.705 130.664 111.749C130.017 111.879 130.017 111.879 129.492 112.5C129.492 112.306 129.492 112.113 129.492 111.914C128.979 112.005 128.466 112.097 127.954 112.188C127.668 112.239 127.383 112.29 127.089 112.343C125.687 112.542 125.687 112.542 124.603 113.342C123.781 114.098 123.076 114.278 122.022 114.594C120.972 114.951 120.019 115.465 119.035 115.974C118.246 116.364 117.447 116.65 116.601 116.894C116.601 117.088 116.601 117.281 116.601 117.48C116.384 117.565 116.166 117.649 115.942 117.737C115.156 118.043 115.156 118.043 114.514 118.396C113.965 118.652 113.965 118.652 113.086 118.652C113.231 118.942 113.231 118.942 113.379 119.238C112.799 119.383 112.799 119.383 112.207 119.531C112.207 119.724 112.207 119.918 112.207 120.117C111.917 120.262 111.917 120.262 111.621 120.41C111.621 120.603 111.621 120.797 111.621 120.996C111.136 121.294 110.647 121.587 110.156 121.875C110.011 122.165 110.011 122.165 109.863 122.461C109.67 122.551 109.476 122.642 109.277 122.735C108.59 123.014 108.59 123.014 108.398 123.926C108.108 124.071 108.108 124.071 107.812 124.219C107.812 124.412 107.812 124.605 107.812 124.804C107.232 124.949 107.232 124.949 106.64 125.097C106.64 125.291 106.64 125.484 106.64 125.683C106.447 125.683 106.254 125.683 106.054 125.683C106.054 126.07 106.054 126.457 106.054 126.855C106.054 127.049 106.054 127.242 106.054 127.441C105.619 127.586 105.619 127.586 105.176 127.734C104.097 128.864 103.72 129.435 103.418 130.957C103.013 132.111 102.559 133.248 102.107 134.384C101.491 135.996 101.198 137.437 101.074 139.16C100.881 139.16 100.687 139.16 100.488 139.16C100.585 139.45 100.681 139.74 100.781 140.039C100.692 140.745 100.692 140.745 100.525 141.522C100.471 141.779 100.417 142.036 100.362 142.301C100.195 142.969 100.195 142.969 99.9021 143.554C99.8904 144.14 99.8893 144.726 99.9021 145.312C100.095 145.312 100.289 145.312 100.488 145.312C100.488 145.506 100.488 145.699 100.488 145.898C100.295 145.898 100.101 145.898 99.9021 145.898C99.721 147.143 99.595 148.32 99.6274 149.579C99.6426 150.46 99.5633 151.173 99.2978 152.014C98.9284 152.926 98.9284 152.926 99.3161 153.808C99.1228 153.808 98.9294 153.808 98.7302 153.808C98.8612 155.121 98.8612 155.121 99.6091 156.152C101.133 157.981 102.211 159.825 103.125 162.011C103.318 162.011 103.511 162.011 103.711 162.011C103.789 162.271 103.868 162.531 103.949 162.799C104.275 163.708 104.672 164.416 105.176 165.234C105.376 165.72 105.572 166.208 105.761 166.699C106.378 166.666 106.995 166.628 107.611 166.589C108.126 166.559 108.126 166.559 108.651 166.527C109.616 166.469 109.616 166.469 110.449 165.82C110.721 164.967 110.721 164.967 110.889 163.936C110.925 163.743 110.962 163.549 110.999 163.35C111.119 162.707 111.233 162.064 111.347 161.421C111.43 160.972 111.512 160.523 111.595 160.074C111.769 159.129 111.941 158.184 112.11 157.239C112.326 156.039 112.545 154.84 112.765 153.64C112.977 152.487 113.188 151.332 113.398 150.178C113.437 149.963 113.477 149.748 113.517 149.526C113.703 148.506 113.885 147.487 114.059 146.465C114.192 145.691 114.333 144.921 114.482 144.149C114.547 143.786 114.611 143.423 114.677 143.049C114.738 142.729 114.798 142.409 114.86 142.08C114.838 140.945 114.422 140.567 113.672 139.746C113.32 138.643 113.328 138.135 113.708 137.036C114.339 136.111 114.635 135.872 115.722 135.644C116.865 135.668 117.322 135.787 118.158 136.578C118.69 137.465 118.85 138.137 118.945 139.16C119.235 139.16 119.525 139.16 119.824 139.16C120.421 140.353 120.417 141.09 120.117 142.383C120.407 142.383 120.697 142.383 120.996 142.383C120.899 142.654 120.802 142.926 120.703 143.207C120.282 144.549 120.435 145.231 120.996 146.484C121.721 147.845 122.447 149.107 123.541 150.201C124.369 151.029 124.666 151.85 125.097 152.929C125.242 153.112 125.386 153.295 125.535 153.483C126.179 154.384 126.346 155.339 126.608 156.403C126.69 156.61 126.771 156.817 126.855 157.031C127.145 157.128 127.435 157.224 127.734 157.324C128.13 157.878 128.13 157.878 128.503 158.569C128.628 158.794 128.752 159.019 128.881 159.251C129.199 159.961 129.199 159.961 129.342 160.733C129.446 161.515 129.446 161.515 130.243 162.176C130.596 162.53 130.596 162.53 130.957 162.89C130.957 163.277 130.957 163.664 130.957 164.062C131.939 164.071 132.922 164.076 133.905 164.081C134.319 164.084 134.319 164.084 134.742 164.088C135.013 164.089 135.284 164.09 135.563 164.091C135.81 164.092 136.057 164.094 136.312 164.096C137.274 164.055 138.209 163.918 139.16 163.769C140.699 158.568 142.041 153.319 143.38 148.064C143.783 146.485 144.186 144.907 144.59 143.329C144.815 142.451 145.038 141.573 145.258 140.694C145.707 138.917 146.159 137.15 146.743 135.412C148.354 130.546 148.154 125.643 148.07 120.579C148.051 119.367 148.044 118.155 148.035 116.942C148.016 114.582 147.986 112.223 147.949 109.863C147.756 109.863 147.562 109.863 147.363 109.863ZM155.316 111.168C154.155 113.75 154.271 116.573 154.211 119.348C154.2 119.78 154.188 120.212 154.177 120.645C154.121 122.724 154.121 122.724 154.101 124.804C154.053 125.062 154.005 125.32 153.956 125.585C153.781 126.74 153.776 127.85 153.79 129.016C153.791 129.232 153.793 129.447 153.794 129.669C153.797 130.196 153.803 130.723 153.808 131.25C154.002 131.25 154.195 131.25 154.394 131.25C154.304 131.676 154.304 131.676 154.211 132.11C153.969 133.797 154.487 135.337 155.017 136.926C155.273 137.695 155.273 137.695 155.273 138.574C155.467 138.574 155.66 138.574 155.859 138.574C155.956 139.444 156.052 140.314 156.152 141.211C156.345 141.211 156.539 141.211 156.738 141.211C156.678 141.416 156.617 141.622 156.555 141.833C156.421 142.857 156.677 143.475 157.031 144.433C157.031 144.723 157.031 145.013 157.031 145.312C157.224 145.602 157.418 145.892 157.617 146.191C157.81 146.191 158.004 146.191 158.203 146.191C158.203 146.385 158.203 146.578 158.203 146.777C157.913 146.777 157.623 146.777 157.324 146.777C157.421 147.357 157.517 147.937 157.617 148.535C157.81 148.535 158.004 148.535 158.203 148.535C158.747 150.326 159.207 151.929 159.082 153.808C159.275 153.712 159.468 153.615 159.668 153.515C159.764 154.095 159.861 154.676 159.961 155.273C160.154 155.273 160.347 155.273 160.547 155.273C160.45 155.66 160.353 156.047 160.254 156.445C160.35 156.445 160.447 156.445 160.547 156.445C160.603 156.654 160.66 156.863 160.718 157.078C160.876 157.659 161.035 158.241 161.194 158.822C161.371 159.47 161.546 160.118 161.718 160.766C161.938 161.48 162.173 162.123 162.469 162.803C162.608 163.122 162.747 163.441 162.89 163.769C163.671 163.869 164.453 163.966 165.234 164.062C165.452 164.09 165.67 164.118 165.894 164.147C167.346 164.324 168.752 164.382 170.215 164.355C171.604 161.736 172.982 159.111 174.334 156.473C174.438 156.27 174.542 156.067 174.65 155.858C174.755 155.652 174.86 155.447 174.969 155.235C175.185 154.815 175.4 154.394 175.616 153.973C175.777 153.659 175.777 153.659 175.942 153.339C177.375 150.545 178.832 147.768 180.377 145.034C181.731 142.626 182.346 141.128 181.914 138.306C181.939 137.141 182.286 136.741 183.105 135.937C184.168 135.568 184.718 135.602 185.797 135.919C186.791 136.648 186.982 137.202 187.312 138.357C187.456 138.929 187.456 138.929 188.086 139.16C188.145 140.249 188.13 140.558 187.5 141.504C187.886 141.31 188.273 141.117 188.672 140.918C188.575 141.401 188.478 141.885 188.379 142.383C187.799 142.383 187.218 142.383 186.621 142.383C186.717 142.576 186.814 142.769 186.914 142.969C186.817 143.065 186.72 143.162 186.621 143.261C186.544 144.443 186.535 144.89 187.207 145.898C187.27 146.288 187.27 146.288 187.335 146.686C187.495 147.626 187.789 148.427 188.135 149.312C188.783 151.141 189.332 153.03 189.258 154.98C189.451 154.98 189.644 154.98 189.843 154.98C189.747 155.464 189.65 155.947 189.551 156.445C189.744 156.445 189.937 156.445 190.136 156.445C190.147 156.612 190.158 156.78 190.17 156.952C190.384 159.596 190.878 162.191 191.894 164.648C192.095 165.33 192.292 166.013 192.48 166.699C193.35 166.892 194.22 167.086 195.117 167.285C197.282 163.566 199.44 159.843 201.526 156.079C201.674 155.816 201.821 155.553 201.974 155.283C202.109 155.036 202.245 154.79 202.384 154.536C202.502 154.324 202.619 154.112 202.741 153.893C203.656 151.75 203.269 149.388 203.119 147.125C203.105 146.921 203.092 146.717 203.078 146.506C202.868 143.377 202.522 140.398 201.562 137.402C201.472 137.115 201.472 137.115 201.379 136.822C199.86 132.106 197.396 128.012 194.238 124.219C193.912 123.825 193.912 123.825 193.58 123.424C192.014 121.609 190.29 120.094 188.379 118.652C188.124 118.456 187.87 118.261 187.608 118.059C185.745 116.718 183.796 115.773 181.695 114.862C181.433 114.748 181.17 114.633 180.9 114.516C179.474 113.919 178.203 113.511 176.66 113.379C176.66 113.282 176.66 113.185 176.66 113.086C176.141 113.027 176.141 113.027 175.612 112.968C175.155 112.916 174.699 112.863 174.243 112.811C174.015 112.786 173.787 112.76 173.553 112.734C173.332 112.708 173.111 112.683 172.883 112.657C172.681 112.634 172.478 112.611 172.27 112.587C171.668 112.498 171.096 112.36 170.508 112.207C169.352 111.997 168.195 111.839 167.029 111.703C166.549 111.64 166.073 111.557 165.598 111.466C164.507 111.307 163.44 111.296 162.341 111.31C162.139 111.311 161.938 111.312 161.73 111.314C161.238 111.317 160.746 111.322 160.254 111.328C160.254 111.135 160.254 110.941 160.254 110.742C159.539 110.71 158.826 110.687 158.111 110.669C157.808 110.654 157.808 110.654 157.498 110.639C156.618 110.622 156.023 110.613 155.316 111.168ZM114.551 117.48C114.843 118.066 114.843 118.066 114.843 118.066L114.551 117.48ZM85.2536 131.836C85.5466 132.422 85.5466 132.422 85.5466 132.422L85.2536 131.836ZM150 138.574C149.57 140.168 149.142 141.762 148.715 143.356C148.558 143.94 148.402 144.523 148.245 145.106C147.28 148.703 146.34 152.304 145.444 155.919C145.273 156.603 145.103 157.287 144.932 157.971C144.683 158.972 144.435 159.974 144.191 160.976C143.964 161.911 143.732 162.846 143.499 163.78C143.433 164.059 143.367 164.338 143.299 164.625C142.666 167.129 142.666 167.129 141.504 167.871C140.561 168.085 140.561 168.085 139.452 168.178C139.253 168.195 139.054 168.213 138.849 168.232C138.215 168.287 137.58 168.335 136.944 168.384C136.525 168.42 136.106 168.457 135.687 168.495C133.425 168.69 131.177 168.804 128.906 168.75C128.405 167.877 127.905 167.004 127.405 166.131C127.169 165.72 127.169 165.72 126.929 165.301C125.887 163.478 124.859 161.647 123.839 159.811C122.411 157.243 120.968 154.689 119.439 152.179C119.304 151.955 119.169 151.732 119.029 151.502C118.717 150.996 118.393 150.497 118.066 150C117.969 150 117.873 150 117.773 150C116.451 156.533 115.175 163.073 113.965 169.629C112.111 170.275 110.247 170.818 108.343 171.295C108.09 171.361 107.838 171.427 107.577 171.495C106.259 171.826 105.082 172.055 103.711 171.972C103.59 171.76 103.59 171.76 103.467 171.542C100.762 166.776 97.9986 162.045 95.2146 157.324C95.0381 157.025 95.0381 157.025 94.858 156.719C91.4002 150.843 91.4002 150.843 87.8537 145.019C87.7378 144.832 87.6219 144.644 87.5025 144.451C87.2498 144.049 86.9857 143.654 86.7185 143.261C86.6218 143.261 86.5251 143.261 86.4255 143.261C86.5906 146.3 87.1977 149.257 87.7645 152.239C87.8709 152.806 87.9773 153.372 88.0835 153.939C88.3636 155.431 88.6455 156.923 88.9278 158.415C89.2623 160.184 89.5947 161.954 89.9274 163.723C90.1998 165.171 90.4724 166.619 90.7457 168.067C91.2738 170.867 91.797 173.668 92.3086 176.47C92.3566 176.733 92.4045 176.995 92.4539 177.265C92.6795 178.5 92.9042 179.735 93.1271 180.971C93.206 181.404 93.2849 181.837 93.3639 182.271C93.4317 182.646 93.4996 183.021 93.5695 183.408C93.7057 184.252 93.7057 184.252 94.0427 184.863C95.2433 184.426 96.2814 183.836 97.3752 183.178C108.589 176.658 123.112 175.904 135.807 175.248C136.696 175.201 137.585 175.149 138.473 175.096C189.301 172.267 189.301 172.267 205.467 184.5C205.934 184.921 205.934 184.921 206.543 184.863C207.795 178.936 208.965 172.996 210.089 167.043C210.263 166.121 210.438 165.2 210.614 164.279C211.595 159.134 212.541 153.985 213.409 148.82C213.467 148.479 213.467 148.479 213.526 148.13C213.635 147.489 213.741 146.847 213.847 146.205C213.908 145.841 213.969 145.476 214.031 145.101C214.142 144.275 214.187 143.506 214.16 142.676C213.353 143.399 212.871 144.192 212.337 145.131C212.066 145.604 212.066 145.604 211.79 146.086C211.597 146.427 211.405 146.767 211.212 147.107C210.912 147.632 210.612 148.157 210.312 148.682C210.113 149.031 209.913 149.379 209.715 149.728C209.068 150.859 208.409 151.982 207.74 153.099C205.84 156.273 204.117 159.542 202.373 162.803C201.554 164.331 200.726 165.854 199.896 167.376C199.752 167.642 199.607 167.908 199.458 168.181C199.197 168.66 198.934 169.137 198.668 169.613C198.402 170.1 198.162 170.602 197.931 171.106C197.461 171.679 197.461 171.679 196.531 171.888C195.364 171.976 194.542 171.848 193.415 171.552C193.052 171.459 192.688 171.365 192.314 171.269C191.936 171.168 191.558 171.067 191.18 170.965C190.794 170.865 190.409 170.765 190.023 170.665C189.083 170.421 188.145 170.173 187.207 169.922C187.119 169.529 187.119 169.529 187.029 169.129C185.61 162.828 184.115 156.552 182.519 150.293C181.573 151.088 181.094 152.125 180.547 153.208C180.444 153.41 180.34 153.612 180.233 153.82C179.901 154.469 179.571 155.118 179.242 155.768C179.026 156.19 178.81 156.612 178.593 157.034C177.417 159.332 176.255 161.638 175.108 163.951C174.301 165.574 173.443 167.168 172.558 168.75C169.474 168.824 166.453 168.592 163.385 168.31C162.908 168.268 162.431 168.225 161.955 168.183C160.802 168.081 159.649 167.976 158.496 167.871C158.425 167.56 158.353 167.249 158.28 166.928C157.643 164.17 156.948 161.438 156.17 158.716C156.06 158.327 155.95 157.937 155.84 157.548C155.458 156.203 155.073 154.859 154.687 153.515C154.609 153.244 154.531 152.972 154.451 152.692C153.854 150.61 153.255 148.529 152.655 146.448C152.571 146.156 152.487 145.864 152.4 145.564C152.159 144.728 151.918 143.893 151.676 143.058C151.604 142.808 151.532 142.559 151.458 142.302C151.095 141.049 150.716 139.808 150.293 138.574C150.196 138.574 150.099 138.574 150 138.574ZM185.449 142.09C185.742 142.676 185.742 142.676 185.742 142.676L185.449 142.09ZM185.742 142.969C186.035 143.554 186.035 143.554 186.035 143.554L185.742 142.969ZM120.117 143.261C120.41 143.847 120.41 143.847 120.41 143.847L120.117 143.261ZM156.445 143.847C156.738 144.433 156.738 144.433 156.738 144.433L156.445 143.847ZM186.035 144.433C186.328 145.019 186.328 145.019 186.328 145.019L186.035 144.433ZM157.91 148.828C158.203 149.707 158.203 149.707 158.203 149.707L157.91 148.828ZM158.203 150C158.3 150.58 158.396 151.16 158.496 151.758C158.695 151.203 158.695 151.203 158.789 150.586C158.595 150.392 158.402 150.199 158.203 150ZM158.789 152.344C159.082 152.929 159.082 152.929 159.082 152.929L158.789 152.344ZM125.39 153.808C125.683 154.394 125.683 154.394 125.683 154.394L125.39 153.808ZM159.375 154.394C159.668 154.98 159.668 154.98 159.668 154.98L159.375 154.394ZM159.668 155.566C159.961 156.152 159.961 156.152 159.961 156.152L159.668 155.566ZM159.961 156.445C160.254 157.324 160.254 157.324 160.254 157.324L159.961 156.445ZM160.547 158.789C160.84 159.375 160.84 159.375 160.84 159.375L160.547 158.789ZM130.664 163.183C130.957 163.769 130.957 163.769 130.957 163.769L130.664 163.183ZM104.59 165.234C104.783 165.427 104.976 165.621 105.176 165.82C105.176 165.627 105.176 165.433 105.176 165.234C104.982 165.234 104.789 165.234 104.59 165.234ZM105.176 166.113C105.468 166.699 105.468 166.699 105.468 166.699L105.176 166.113ZM128.118 180.109C127.434 180.176 126.75 180.24 126.065 180.304C110.517 181.291 110.517 181.291 97.4404 188.303C97.2088 188.631 97.2088 188.631 96.9724 188.965C98.5046 190.641 100.196 192.037 102.539 192.187C103.487 191.908 103.487 191.908 104.516 191.455C117.947 186.282 134.023 186.16 148.217 186.213C149.564 186.218 150.911 186.215 152.258 186.21C166.606 186.165 182.101 186.636 195.714 191.573C197.197 192.095 198.236 192.32 199.804 191.894C200.544 191.543 200.544 191.543 201.178 191.07C201.399 190.914 201.62 190.757 201.848 190.595C202.492 190.097 203.073 189.575 203.613 188.965C202.925 187.192 201.149 186.505 199.511 185.742C184.679 179.491 167.005 179.164 151.129 179.204C150.462 179.205 149.795 179.206 149.129 179.206C142.101 179.216 135.116 179.414 128.118 180.109ZM123.742 191.839C123.361 191.888 122.98 191.937 122.587 191.987C119.27 192.424 116.03 193.108 112.793 193.945C112.756 194.175 112.72 194.404 112.683 194.641C112.5 195.41 112.5 195.41 111.914 195.996C124.389 199.226 137.076 200.165 149.926 200.152C150.268 200.152 150.609 200.152 150.961 200.152C156.426 200.144 161.84 200.016 167.285 199.511C167.497 199.492 167.71 199.473 167.928 199.453C175.66 198.753 183.312 197.835 190.722 195.41C190.722 195.12 190.722 194.83 190.722 194.531C179.591 191.62 167.858 190.678 156.371 190.673C155.868 190.672 155.366 190.671 154.863 190.67C153.815 190.669 152.767 190.668 151.719 190.668C150.666 190.668 149.613 190.666 148.56 190.662C140.263 190.631 131.983 190.753 123.742 191.839ZM94.3357 193.652C94.239 193.942 94.1423 194.232 94.0427 194.531C94.3327 194.628 94.6228 194.724 94.9216 194.824C94.7282 195.307 94.5349 195.791 94.3357 196.289C94.6257 196.289 94.9157 196.289 95.2146 196.289C95.8595 195.574 95.8595 195.574 96.3864 194.824C95.3713 194.244 95.3713 194.244 94.3357 193.652ZM100.781 196.875C100.295 197.279 99.8139 197.689 99.3344 198.102C99.0659 198.329 98.7974 198.557 98.5208 198.792C97.8098 199.556 97.6437 199.953 97.5583 200.976C106.733 208.622 121.057 209.711 132.422 210.644C132.782 210.675 133.143 210.705 133.514 210.737C152.694 212.298 174.952 212.497 193.359 205.957C193.686 205.841 193.686 205.841 194.019 205.722C199.11 203.892 199.11 203.892 203.027 200.39C202.607 200.011 202.185 199.633 201.764 199.255C201.529 199.044 201.295 198.834 201.053 198.617C199.933 197.631 199.933 197.631 198.483 197.503C196.924 197.746 195.479 198.303 194 198.834C181.976 202.979 168.637 204.223 155.967 204.258C155.511 204.261 155.055 204.263 154.599 204.265C153.152 204.27 151.704 204.272 150.256 204.272C149.887 204.272 149.887 204.272 149.51 204.273C142.222 204.275 134.974 204.252 127.734 203.32C127.533 203.295 127.333 203.269 127.126 203.243C118.107 202.084 109.31 200.045 100.781 196.875Z" fill="black"/>
<path d="M152.637 82.6172C154.029 84.0098 154.176 85.1686 154.285 87.1033C154.307 87.4707 154.328 87.8382 154.351 88.2168C154.365 88.4959 154.38 88.775 154.395 89.0625C154.104 89.0625 153.814 89.0625 153.516 89.0625C153.419 88.4824 153.322 87.9023 153.223 87.3047C153.029 87.4014 152.836 87.498 152.637 87.5977C152.637 85.9541 152.637 84.3105 152.637 82.6172Z" fill="black"/>
</svg>
