<svg width="300" height="300" viewBox="0 0 300 300" fill="none" xmlns="http://www.w3.org/2000/svg">
<path d="M154.01 98.3639C155.498 99.8122 155.939 100.907 156.024 102.96C155.967 104.74 155.592 105.905 154.395 107.226C153.724 107.835 153.149 108.288 152.344 108.691C152.517 109.8 152.836 110.634 153.377 111.615C153.534 111.903 153.691 112.19 153.853 112.487C154.112 112.955 154.112 112.955 154.376 113.434C154.751 114.12 155.125 114.806 155.499 115.492C155.647 115.764 155.647 115.764 155.799 116.042C156.909 118.079 157.99 120.131 159.072 122.183C160.758 125.379 162.455 128.568 164.195 131.735C165.492 134.101 166.755 136.483 168.018 138.867C169.604 141.862 171.204 144.848 172.834 147.82C174.134 150.194 175.402 152.584 176.66 154.98C177.87 154.571 178.653 154.008 179.608 153.167C181.197 151.8 182.852 150.536 184.534 149.286C186.598 147.749 188.639 146.191 190.656 144.593C191.606 143.842 192.564 143.102 193.524 142.364C193.681 142.243 193.839 142.123 194.001 141.998C194.47 141.638 194.94 141.278 195.41 140.918C197.564 139.265 199.713 137.605 201.855 135.937C203.998 134.269 206.147 132.61 208.301 130.957C208.936 130.469 209.57 129.98 210.205 129.492C210.522 129.248 210.84 129.004 211.157 128.759C211.314 128.639 211.471 128.518 211.633 128.393C212.109 128.027 212.585 127.661 213.062 127.295C213.219 127.174 213.376 127.053 213.538 126.928C213.854 126.685 214.17 126.442 214.487 126.199C215.465 125.446 216.443 124.692 217.421 123.938C217.901 123.569 218.381 123.201 218.861 122.834C219.393 122.425 219.921 122.012 220.445 121.593C220.649 121.432 220.853 121.271 221.063 121.106C221.233 120.969 221.402 120.832 221.577 120.691C222.07 120.41 222.07 120.41 223.242 120.41C223.63 121.488 223.436 122.187 223.115 123.27C223.014 123.616 222.914 123.961 222.81 124.317C222.695 124.7 222.58 125.083 222.465 125.466C222.346 125.871 222.227 126.276 222.108 126.681C221.851 127.558 221.591 128.434 221.33 129.31C220.91 130.721 220.494 132.133 220.078 133.545C219.562 135.299 219.045 137.052 218.526 138.805C217.553 142.095 216.587 145.386 215.624 148.679C215.552 148.926 215.479 149.174 215.405 149.428C215.112 150.429 214.82 151.43 214.527 152.43C214.012 154.194 213.496 155.957 212.979 157.72C211.013 164.435 209.051 171.151 207.092 177.868C207.029 178.086 206.965 178.304 206.9 178.529C205.674 182.733 204.448 186.937 203.224 191.142C202.833 192.482 202.442 193.823 202.051 195.164C201.79 196.06 201.529 196.956 201.268 197.853C201.115 198.38 200.961 198.907 200.807 199.435C200.739 199.671 200.67 199.907 200.599 200.15C200.347 201.016 200.09 201.878 199.805 202.734C199.036 203.118 198.471 203.063 197.609 203.063C197.265 203.064 196.921 203.064 196.567 203.065C195.995 203.064 195.995 203.064 195.411 203.062C195.005 203.062 194.598 203.063 194.192 203.063C193.071 203.064 191.95 203.062 190.829 203.061C189.621 203.06 188.414 203.06 187.206 203.06C185.113 203.061 183.02 203.06 180.927 203.058C177.9 203.056 174.874 203.055 171.847 203.054C166.937 203.054 162.027 203.052 157.118 203.049C152.347 203.046 147.577 203.044 142.806 203.043C142.365 203.043 142.365 203.043 141.916 203.043C140.441 203.042 138.967 203.042 137.493 203.042C125.256 203.039 113.018 203.034 100.781 203.027C100.185 201.859 99.7082 200.757 99.3447 199.496C99.2431 199.147 99.1415 198.797 99.0368 198.437C98.927 198.054 98.8173 197.67 98.7076 197.287C98.5896 196.879 98.4715 196.472 98.3532 196.064C98.0986 195.186 97.845 194.308 97.5922 193.429C97.1865 192.019 96.7784 190.61 96.3698 189.202C96.3002 188.962 96.2307 188.722 96.159 188.475C96.0167 187.985 95.8744 187.494 95.732 187.003C95.5138 186.251 95.2957 185.498 95.0777 184.746C93.581 179.582 92.0616 174.425 90.5388 169.269C90.2539 168.304 89.9692 167.339 89.6845 166.374C88.3756 161.938 87.065 157.502 85.7511 153.067C83.6108 145.843 81.4807 138.616 79.3984 131.374C79.1907 130.653 78.9826 129.931 78.7738 129.21C78.4872 128.219 78.203 127.228 77.9194 126.236C77.8351 125.946 77.7509 125.656 77.6641 125.357C77.2224 123.801 76.9105 122.314 76.7578 120.703C77.3849 120.481 77.3849 120.481 78.2227 120.41C79.0237 120.888 79.0237 120.888 79.9072 121.618C80.2442 121.891 80.5814 122.163 80.9189 122.435C81.0981 122.582 81.2773 122.729 81.4619 122.88C82.4649 123.69 83.4948 124.464 84.5215 125.244C84.9473 125.569 85.3731 125.894 85.7986 126.22C86.1065 126.455 86.1065 126.455 86.4206 126.696C87.8895 127.82 89.3547 128.949 90.8203 130.078C91.455 130.566 92.0898 131.054 92.7246 131.543C93.042 131.787 93.3594 132.031 93.6768 132.275C93.8339 132.396 93.991 132.517 94.1528 132.641C94.6289 133.007 95.105 133.374 95.5811 133.74C95.738 133.861 95.895 133.981 96.0568 134.106C96.3754 134.351 96.6939 134.596 97.0125 134.841C97.7874 135.437 98.5625 136.033 99.3382 136.628C101.844 138.553 104.339 140.492 106.832 142.433C107.516 142.965 108.2 143.497 108.885 144.029C110.899 145.594 112.912 147.16 114.917 148.736C115.08 148.865 115.244 148.993 115.412 149.125C116.271 149.801 117.13 150.478 117.987 151.157C118.169 151.3 118.351 151.444 118.538 151.591C118.881 151.862 119.224 152.133 119.566 152.405C120.702 153.3 121.865 154.147 123.047 154.98C123.859 153.977 124.448 152.881 125.042 151.741C125.148 151.54 125.254 151.338 125.364 151.13C125.591 150.697 125.818 150.265 126.045 149.832C126.64 148.694 127.24 147.558 127.839 146.422C127.957 146.198 128.075 145.973 128.197 145.742C129.127 143.979 130.072 142.225 131.03 140.478C132.286 138.189 133.53 135.893 134.766 133.593C136.168 130.984 137.58 128.381 139.001 125.782C140.15 123.679 141.286 121.569 142.419 119.458C143.744 116.991 145.081 114.532 146.453 112.091C147.081 110.972 147.678 109.844 148.242 108.691C148.037 108.625 147.831 108.558 147.62 108.49C145.898 107.704 144.813 106.652 144.141 104.882C143.648 103.051 144.024 101.615 144.727 99.902C145.637 98.4068 146.91 97.655 148.535 97.0456C150.706 96.7742 152.177 97.1702 154.01 98.3639ZM150 120.703C148.619 122.765 147.486 124.998 146.32 127.185C145.956 127.863 145.593 128.541 145.229 129.219C145.047 129.559 144.865 129.899 144.677 130.25C143.868 131.757 143.052 133.261 142.236 134.765C140.739 137.527 139.248 140.292 137.76 143.058C136.946 144.571 136.131 146.083 135.31 147.592C133.165 151.538 131.053 155.501 128.959 159.474C127.888 161.504 126.814 163.53 125.684 165.527C124.121 165.056 122.983 164.039 121.729 163.037C121.253 162.661 120.776 162.286 120.3 161.911C120.068 161.727 119.836 161.543 119.596 161.353C118.751 160.686 117.897 160.03 117.041 159.375C115.292 158.032 113.552 156.678 111.812 155.323C110.531 154.326 109.247 153.332 107.959 152.343C105.788 150.676 103.629 148.994 101.469 147.312C100.785 146.78 100.101 146.248 99.416 145.716C99.0815 145.456 99.0815 145.456 98.7403 145.191C98.2967 144.846 97.8529 144.502 97.4091 144.157C96.3883 143.364 95.3698 142.568 94.3577 141.763C92.5452 140.324 90.7256 138.937 88.7695 137.695C89.7417 141.96 91.0377 146.134 92.299 150.319C92.8973 152.305 93.4921 154.292 94.087 156.278C94.2202 156.723 94.3535 157.168 94.4867 157.613C95.6321 161.436 96.758 165.264 97.8699 169.098C99.4074 174.392 100.96 179.681 102.524 184.967C102.777 185.821 103.029 186.674 103.281 187.528C103.577 188.532 103.873 189.536 104.171 190.539C104.334 191.09 104.496 191.64 104.658 192.191C104.757 192.522 104.855 192.852 104.956 193.193C105.042 193.481 105.127 193.769 105.215 194.066C105.445 194.752 105.725 195.354 106.055 195.996C117.241 196.002 128.428 196.008 139.615 196.011C140.934 196.011 142.254 196.011 143.573 196.012C143.836 196.012 144.099 196.012 144.369 196.012C148.628 196.013 152.886 196.016 157.145 196.018C161.511 196.021 165.878 196.023 170.245 196.023C172.941 196.024 175.637 196.025 178.334 196.027C180.181 196.029 182.027 196.029 183.874 196.029C184.941 196.029 186.008 196.029 187.075 196.031C188.229 196.032 189.384 196.032 190.538 196.031C190.878 196.032 191.219 196.033 191.569 196.034C191.877 196.033 192.184 196.032 192.501 196.032C192.901 196.032 192.901 196.032 193.309 196.032C193.959 196.037 193.959 196.037 194.531 195.703C194.843 194.825 195.118 193.955 195.379 193.061C195.466 192.772 195.552 192.482 195.642 192.184C195.939 191.185 196.233 190.185 196.527 189.184C196.741 188.463 196.954 187.741 197.168 187.02C200.365 176.204 203.451 165.354 206.55 154.51C206.717 153.927 206.883 153.344 207.05 152.761C207.171 152.338 207.171 152.338 207.294 151.906C207.759 150.279 208.227 148.652 208.697 147.026C208.977 146.057 209.256 145.086 209.536 144.116C209.664 143.672 209.793 143.228 209.922 142.784C210.096 142.184 210.269 141.583 210.441 140.983C210.586 140.483 210.586 140.483 210.734 139.972C210.973 139.157 210.973 139.157 210.938 138.281C210.121 138.665 209.42 139.093 208.706 139.644C208.506 139.797 208.306 139.951 208.101 140.108C207.889 140.273 207.677 140.437 207.458 140.606C207.237 140.777 207.015 140.948 206.786 141.124C205.102 142.424 203.428 143.736 201.757 145.054C198.997 147.228 196.22 149.381 193.433 151.519C192.156 152.499 190.888 153.489 189.624 154.486C187.915 155.833 186.19 157.158 184.459 158.477C182.645 159.86 180.844 161.261 179.048 162.669C178.45 163.136 177.849 163.6 177.246 164.062C176.965 164.282 176.965 164.282 176.679 164.506C175.688 165.257 175.305 165.527 174.023 165.527C173.945 165.272 173.866 165.016 173.784 164.753C173.45 163.804 173.053 162.975 172.573 162.092C172.4 161.769 172.226 161.447 172.047 161.115C171.857 160.767 171.668 160.419 171.478 160.07C171.281 159.705 171.083 159.34 170.886 158.974C170.476 158.215 170.066 157.456 169.655 156.698C168.706 154.945 167.767 153.186 166.827 151.428C165.261 148.502 163.688 145.579 162.112 142.657C160.891 140.39 159.678 138.117 158.468 135.844C156.57 132.278 154.65 128.725 152.71 125.183C151.897 123.693 151.094 122.198 150.293 120.703C150.196 120.703 150.1 120.703 150 120.703Z" fill="black"/>
</svg>
