<svg width="300" height="300" viewBox="0 0 300 300" fill="none" xmlns="http://www.w3.org/2000/svg">
<path d="M158.748 103.52C161.872 106.454 163.423 109.773 163.586 114.038C163.515 117.827 162.022 121.214 159.485 123.999C157.721 125.678 155.461 126.565 153.222 127.441C153.458 127.838 153.458 127.838 153.698 128.242C157.171 134.106 160.518 140.042 163.865 145.977C164.513 147.125 165.165 148.271 165.82 149.414C166.872 148.622 167.683 147.813 168.493 146.777C169.467 145.562 170.472 144.4 171.533 143.262C172.789 141.912 173.965 140.515 175.122 139.078C175.812 138.244 176.531 137.447 177.264 136.652C178.602 135.199 179.844 133.688 181.054 132.129C180.839 131.983 180.623 131.838 180.401 131.688C178.086 130.077 176.195 128.529 175.662 125.621C175.3 122.952 175.706 120.89 177.3 118.694C179.121 116.547 181.167 115.415 183.984 115.137C186.915 115.228 188.957 116.191 190.96 118.286C192.509 120.177 192.953 122.16 192.875 124.579C192.588 126.863 191.559 128.839 189.843 130.371C189.088 130.91 188.306 131.377 187.5 131.836C187.065 132.126 187.065 132.126 186.621 132.422C187.781 139.866 188.941 147.311 190.136 154.98C191.499 154.526 192.752 154.021 194.039 153.405C194.242 153.309 194.445 153.212 194.654 153.114C195.534 152.697 196.414 152.277 197.292 151.856C201.728 149.734 201.728 149.734 203.773 148.935C206.378 148.013 206.378 148.013 208.326 146.182C208.655 145.271 208.827 144.519 208.886 143.555C208.911 143.298 208.935 143.042 208.96 142.778C208.865 141.893 208.604 141.686 207.934 141.119C206.495 139.788 205.485 138.049 205.301 136.065C205.226 133.053 205.903 130.767 207.988 128.542C210.228 126.637 212.757 126.045 215.625 126.27C218.041 126.71 220.02 127.981 221.454 129.971C222.861 132.447 223.129 134.889 222.45 137.655C221.411 140.556 219.797 141.897 217.061 143.214C216.279 143.527 215.57 143.696 214.746 143.848C213.1 149.773 211.491 155.709 209.897 161.648C207.769 169.573 205.631 177.496 203.472 185.412C203.303 186.029 203.135 186.646 202.967 187.263C202.654 188.41 202.341 189.557 202.028 190.704C201.938 191.034 201.848 191.363 201.756 191.702C201.585 192.326 201.414 192.949 201.241 193.572C201.048 194.271 200.859 194.97 200.671 195.67C200.568 196.048 200.465 196.425 200.361 196.803C200.269 197.146 200.176 197.488 200.081 197.842C199.804 198.633 199.804 198.633 199.218 198.926C198.605 198.776 198.605 198.776 197.837 198.514C197.55 198.418 197.262 198.322 196.966 198.222C196.652 198.116 196.338 198.01 196.014 197.9C183.451 193.781 170.387 191.401 157.196 190.631C156.997 190.619 156.798 190.608 156.593 190.596C152.135 190.346 147.7 190.38 143.243 190.631C143.027 190.643 142.812 190.655 142.589 190.668C129.143 191.451 115.777 193.938 103 198.212C102.719 198.305 102.439 198.399 102.15 198.495C101.783 198.62 101.783 198.62 101.409 198.748C100.781 198.926 100.781 198.926 99.902 198.926C99.8351 198.665 99.7681 198.404 99.6992 198.136C97.8163 190.818 95.8427 183.525 93.8412 176.239C93.7786 176.011 93.7161 175.783 93.6516 175.549C93.3344 174.394 93.0172 173.239 92.7 172.084C92.6057 171.741 92.6057 171.741 92.5095 171.391C92.3826 170.929 92.2557 170.467 92.1288 170.005C90.9016 165.537 89.6823 161.068 88.4692 156.596C88.2687 155.857 88.068 155.118 87.8671 154.379C87.5903 153.36 87.3139 152.341 87.0377 151.322C86.9583 151.03 86.8789 150.738 86.7971 150.437C86.4009 148.972 86.0133 147.505 85.6364 146.036C85.563 145.75 85.4896 145.464 85.414 145.17C85.2536 144.434 85.2536 144.434 85.2536 143.555C84.8789 143.543 84.5043 143.53 84.1183 143.518C81.8944 143.262 80.0669 142.109 78.6801 140.369C77.0239 137.882 76.7122 135.552 77.1569 132.592C77.73 130.389 79.3464 128.56 81.2081 127.299C83.4636 126.118 85.9467 125.879 88.3847 126.636C90.7405 127.522 92.4833 129.05 93.7817 131.203C94.7709 133.41 94.6807 136.127 93.8778 138.373C93.2228 139.807 92.2975 141.045 91.1129 142.09C90.9196 142.09 90.7262 142.09 90.527 142.09C90.6764 142.91 90.8362 143.726 91.0031 144.543C91.0442 144.776 91.0854 145.009 91.1278 145.248C91.175 145.471 91.2222 145.694 91.2709 145.924C91.3108 146.129 91.3506 146.335 91.3917 146.547C91.8741 147.369 92.5629 147.405 93.4567 147.656C94.0197 147.9 94.5789 148.152 95.1344 148.413C95.6186 148.639 95.6186 148.639 96.1126 148.869C96.4567 149.031 96.8008 149.193 97.1554 149.359C97.5152 149.527 97.875 149.695 98.2349 149.863C98.9883 150.215 99.7415 150.568 100.495 150.92C102.236 151.735 103.98 152.543 105.724 153.352C106.602 153.759 107.479 154.167 108.357 154.574C108.859 154.807 109.361 155.04 109.863 155.273C109.883 154.971 109.883 154.971 109.904 154.662C110.089 152.178 110.432 149.73 110.815 147.269C110.88 146.849 110.944 146.428 111.009 146.008C111.143 145.135 111.278 144.262 111.414 143.389C111.588 142.269 111.759 141.149 111.931 140.029C112.063 139.165 112.197 138.3 112.33 137.436C112.394 137.023 112.458 136.609 112.521 136.196C112.609 135.622 112.699 135.048 112.788 134.474C112.864 133.984 112.864 133.984 112.941 133.485C113.086 132.715 113.086 132.715 113.379 132.129C113.139 132.075 113.139 132.075 112.894 132.019C110.682 131.414 108.96 130.208 107.69 128.273C106.585 126.141 106.265 123.968 106.851 121.615C107.861 118.63 109.45 117.157 112.207 115.723C114.213 115.054 116.981 115.087 118.945 115.906C121.327 117.195 122.658 118.747 123.632 121.289C124.232 123.846 123.802 125.939 122.754 128.32C121.849 129.744 120.695 130.715 119.238 131.543C119.045 131.543 118.851 131.543 118.652 131.543C119.418 132.743 120.218 133.779 121.197 134.821C122.194 135.899 123.151 136.991 124.072 138.135C124.966 139.244 125.89 140.309 126.855 141.357C128.051 142.656 129.17 143.999 130.278 145.373C131.432 146.764 132.658 148.088 133.886 149.414C135.033 147.601 136.048 145.732 137.036 143.829C138.075 141.833 139.163 139.88 140.318 137.948C141.664 135.689 142.939 133.391 144.218 131.093C144.386 130.793 144.553 130.493 144.725 130.183C144.874 129.916 145.022 129.648 145.175 129.373C145.599 128.624 146.038 127.885 146.484 127.148C146.149 127.025 146.149 127.025 145.808 126.9C142.273 125.528 139.53 123.566 137.839 120.087C136.261 116.38 135.965 112.835 137.306 108.985C137.937 107.559 138.754 106.373 139.746 105.176C139.966 104.896 139.966 104.896 140.19 104.612C144.822 99.3356 153.5 99.2114 158.748 103.52ZM144.781 108.472C143.085 110.604 142.12 112.34 142.382 115.137C142.816 117.414 143.979 119.154 145.86 120.513C147.935 121.753 150.216 121.948 152.557 121.392C154.635 120.657 155.776 119.602 156.811 117.678C157.77 115.557 158.007 113.509 157.287 111.273C156.428 109.295 155.146 108.045 153.202 107.146C150.268 106.042 147.231 106.512 144.781 108.472ZM149.707 134.18C148.081 136.617 146.666 139.194 145.257 141.76C144.873 142.457 144.488 143.153 144.103 143.85C144.007 144.023 143.911 144.196 143.812 144.375C142.894 146.036 141.963 147.689 141.027 149.341C140.876 149.61 140.724 149.878 140.567 150.155C139.74 151.616 138.909 153.075 138.076 154.533C137.899 154.844 137.722 155.154 137.539 155.475C137.198 156.074 136.855 156.673 136.512 157.271C136.359 157.538 136.207 157.805 136.05 158.081C135.915 158.317 135.78 158.553 135.64 158.797C135.308 159.355 135.308 159.355 135.351 159.961C133.876 158.864 132.811 157.573 131.666 156.141C130.967 155.287 130.24 154.473 129.492 153.662C128.544 152.632 127.638 151.587 126.764 150.494C125.571 149.015 124.296 147.635 122.993 146.255C121.758 144.937 120.615 143.574 119.502 142.15C118.97 141.533 118.444 141.084 117.773 140.625C117.203 142.701 116.88 144.792 116.563 146.919C116.478 147.487 116.478 147.487 116.391 148.066C116.271 148.865 116.151 149.664 116.033 150.463C115.882 151.477 115.729 152.49 115.575 153.504C115.428 154.483 115.282 155.462 115.135 156.441C115.081 156.8 115.027 157.159 114.971 157.529C114.649 159.703 114.41 161.87 114.257 164.062C110.992 162.581 107.734 161.085 104.493 159.548C104.259 159.437 104.025 159.326 103.784 159.212C102.616 158.657 101.447 158.102 100.28 157.545C99.8427 157.337 99.4054 157.129 98.9682 156.921C98.7718 156.827 98.5755 156.733 98.3733 156.636C97.0504 156.009 95.712 155.48 94.3356 154.98C94.7997 158.216 95.7349 161.348 96.5935 164.495C96.76 165.109 96.9265 165.723 97.0928 166.337C97.4409 167.621 97.79 168.905 98.1397 170.189C98.5842 171.821 99.027 173.453 99.4693 175.085C99.8129 176.353 100.157 177.621 100.502 178.888C100.665 179.489 100.828 180.09 100.991 180.691C101.955 184.243 102.948 187.783 104.004 191.309C104.308 191.232 104.613 191.155 104.926 191.076C115.931 188.306 126.951 185.833 138.281 184.863C138.751 184.822 138.751 184.822 139.23 184.78C142.749 184.506 146.27 184.499 149.798 184.497C150.128 184.497 150.458 184.497 150.798 184.496C156.44 184.502 161.981 184.74 167.578 185.449C167.772 185.473 167.965 185.498 168.165 185.522C177.489 186.692 186.674 188.721 195.703 191.309C197.208 186.131 198.618 180.928 200.025 175.722C200.505 173.949 200.985 172.176 201.465 170.403C201.641 169.752 201.817 169.102 201.993 168.452C202.563 166.344 203.139 164.239 203.725 162.136C203.781 161.937 203.836 161.738 203.893 161.533C204.154 160.596 204.417 159.658 204.681 158.721C204.772 158.394 204.863 158.068 204.957 157.731C205.037 157.446 205.118 157.161 205.2 156.867C205.405 156.132 205.405 156.132 205.371 155.273C203.239 155.912 201.298 156.803 199.305 157.788C198.371 158.249 197.435 158.704 196.498 159.16C196.309 159.252 196.12 159.344 195.926 159.439C194.057 160.347 192.173 161.221 190.283 162.085C189.993 162.218 189.703 162.35 189.404 162.487C188.192 163.039 186.98 163.57 185.742 164.062C185.723 163.76 185.723 163.76 185.704 163.452C185.523 160.952 185.143 158.506 184.715 156.038C184.643 155.616 184.572 155.194 184.5 154.772C184.313 153.674 184.124 152.576 183.935 151.478C183.741 150.353 183.549 149.227 183.357 148.101C182.982 145.902 182.605 143.703 182.226 141.504C181.364 141.411 181.364 141.411 180.904 141.87C180.672 142.124 180.672 142.124 180.436 142.383C180.265 142.569 180.093 142.755 179.916 142.947C179.646 143.248 179.646 143.248 179.37 143.555C179.184 143.757 178.999 143.96 178.808 144.168C177.748 145.33 176.698 146.5 175.672 147.693C175.096 148.356 174.505 149.003 173.913 149.652C173.002 150.66 172.129 151.688 171.277 152.747C170.06 154.251 168.773 155.669 167.454 157.083C166.917 157.671 166.409 158.258 165.907 158.875C165.234 159.668 165.234 159.668 164.648 159.961C164.559 159.622 164.559 159.622 164.467 159.277C163.901 157.777 163.088 156.463 162.268 155.09C161.895 154.459 161.523 153.828 161.151 153.196C160.858 152.701 160.858 152.701 160.56 152.195C159.551 150.478 158.567 148.746 157.58 147.015C157.382 146.668 157.184 146.321 156.986 145.974C156.073 144.376 155.163 142.776 154.257 141.174C154.1 140.898 153.943 140.621 153.781 140.336C153.494 139.83 153.208 139.325 152.923 138.818C152.021 137.23 151.091 135.647 150 134.18C149.903 134.18 149.806 134.18 149.707 134.18Z" fill="black"/>
</svg>
