<svg width="300" height="300" viewBox="0 0 300 300" fill="none" xmlns="http://www.w3.org/2000/svg">
<path d="M74.7336 109.609C75.037 109.746 75.3404 109.884 75.653 110.025C75.999 110.18 76.345 110.334 76.7015 110.493C76.8834 110.575 77.0653 110.657 77.2528 110.742C100.7 121.311 126.481 127.675 157.874 127.221C158.099 127.209 158.323 127.196 158.554 127.183C167.255 126.679 175.767 125.512 184.278 123.632C184.491 123.585 184.704 123.538 184.924 123.49C195.199 121.208 205.308 117.972 215.04 113.964C215.225 113.888 215.41 113.812 215.6 113.734C220.958 111.546 220.958 111.546 226.236 109.177C227.094 108.86 227.673 108.963 228.516 109.277C229.946 110.305 230.098 111.724 230.446 113.351C230.511 113.64 230.576 113.928 230.643 114.225C230.854 115.163 231.059 116.102 231.263 117.041C231.405 117.683 231.548 118.325 231.691 118.967C231.973 120.234 232.252 121.502 232.529 122.77C232.807 124.044 233.092 125.317 233.383 126.588C233.595 127.513 233.802 128.438 234.01 129.364C234.083 129.683 234.157 130.002 234.233 130.331C234.578 131.91 234.814 133.191 234.376 134.765C233.698 135.645 233.043 135.831 231.979 136.076C231.669 136.15 231.359 136.224 231.039 136.301C230.702 136.38 230.365 136.46 230.018 136.541C211.966 141.029 193.265 150.596 182.004 165.914C181.651 166.393 181.29 166.865 180.927 167.336C177.384 172.025 174.607 177.314 172.559 182.812C172.439 183.133 172.439 183.133 172.316 183.46C170.088 189.494 168.867 195.866 168.316 202.265C168.293 202.519 168.27 202.773 168.247 203.035C168.206 203.517 168.169 203.998 168.138 204.481C168.062 205.393 167.958 206.11 167.472 206.896C166.234 207.739 164.978 207.582 163.515 207.568C163.19 207.57 162.866 207.572 162.532 207.573C161.458 207.577 160.384 207.572 159.31 207.567C158.565 207.567 157.82 207.567 157.075 207.568C155.514 207.568 153.952 207.565 152.39 207.558C150.585 207.55 148.779 207.55 146.974 207.553C145.236 207.556 143.499 207.555 141.762 207.55C141.022 207.549 140.283 207.549 139.544 207.55C138.512 207.551 137.48 207.546 136.449 207.54C136.141 207.541 135.834 207.542 135.517 207.544C135.237 207.541 134.956 207.538 134.667 207.535C134.423 207.534 134.179 207.534 133.928 207.533C133.154 207.395 132.905 207.15 132.423 206.543C132.052 205.801 132.033 205.19 131.96 204.362C130.611 190.009 126.439 176.238 117.188 164.941C117.068 164.791 116.947 164.64 116.823 164.485C113.664 160.551 110.093 156.843 106.055 153.808C105.872 153.669 105.689 153.53 105.5 153.387C102.118 150.832 98.6018 148.584 94.9226 146.484C94.7225 146.368 94.5225 146.252 94.3163 146.132C86.3342 141.529 76.787 138.051 67.7759 136.104C66.9322 135.91 66.3061 135.722 65.6326 135.167C64.6272 132.838 65.7416 129.913 66.2632 127.55C66.3597 127.105 66.4562 126.66 66.5524 126.215C66.7541 125.285 66.9574 124.356 67.162 123.428C67.4232 122.242 67.6803 121.055 67.9362 119.868C68.1345 118.95 68.3348 118.032 68.5357 117.115C68.6312 116.677 68.7262 116.24 68.8205 115.803C68.953 115.19 69.0882 114.577 69.2241 113.965C69.3002 113.617 69.3763 113.27 69.4548 112.912C69.814 111.596 70.2078 110.318 71.1189 109.277C72.3238 108.741 73.5382 109.17 74.7336 109.609Z" fill="black"/>
<path d="M78.5157 92.8709C79.5381 93.2415 80.4827 93.7408 81.4453 94.2442C103.042 105.006 127.694 110.313 199.707 101.942C206.064 99.8088 212.227 97.2671 218.297 94.417C222.134 92.6199 222.134 92.6199 223.828 92.8709C225.031 93.78 225.563 94.6276 225.879 96.0936C226.016 97.1813 226.131 98.1101 225.429 99.0221C224.5 99.7777 223.5 100.267 222.418 100.763C222.18 100.874 221.941 100.984 221.696 101.099C203.703 109.352 184.938 115.077 165.234 117.187C164.753 117.239 164.753 117.239 164.262 117.293C144.564 119.314 124.423 116.836 105.469 111.328C105.146 111.235 104.824 111.143 104.491 111.047C95.3311 108.392 86.5171 104.908 77.8839 100.869C77.7016 100.784 77.5193 100.699 77.3315 100.612C74.5507 99.2965 74.5507 99.2965 74.1211 98.4373C73.9551 96.5444 74.2825 95.0858 75.293 93.4569C76.3973 92.7207 77.2384 92.6718 78.5157 92.8709Z" fill="black"/>
</svg>
