<svg width="300" height="300" viewBox="0 0 300 300" fill="none" xmlns="http://www.w3.org/2000/svg">
<path d="M153.002 24.7746C153.339 24.7649 153.677 24.7553 154.024 24.7454C159.059 24.7142 163 27.6019 166.698 30.7621C166.984 30.9949 166.984 30.9949 167.275 31.2325C169.796 33.4716 170.849 36.903 171.187 40.1634C171.301 42.288 171.011 43.605 169.777 45.3464C169.106 46.334 168.749 47.1414 168.749 48.3402C168.948 48.2435 169.148 48.1469 169.353 48.0473C170.363 47.7036 171.205 47.7127 172.265 47.7543C172.846 49.2176 172.056 50.4516 171.498 51.8204C170.157 54.8468 167.779 56.7829 165.092 58.6067C163.861 59.5637 163.079 60.7834 162.231 62.0731C161.368 63.3235 160.439 64.2738 159.257 65.2225C158.751 65.6043 158.751 65.6043 158.495 66.2113C158.368 68.0664 158.368 68.0664 159.081 69.7269C159.678 70.0757 159.678 70.0757 160.363 70.3495C161.641 71.0014 161.641 71.0014 161.987 71.8544C162.049 72.101 162.111 72.3476 162.176 72.6017C162.603 73.8847 163.123 74.3751 164.331 74.984C165.17 75.3711 166.014 75.7488 166.858 76.1262C172.94 78.9913 177.407 82.1096 180.157 88.3671C181.777 91.8991 183.848 95.0338 186.061 98.2183C189.319 102.912 192.527 107.699 195.025 112.848C195.121 113.041 195.216 113.234 195.315 113.433C195.966 114.831 196.359 116.218 196.288 117.774C195.907 118.669 195.907 118.669 195.318 119.495C195.096 119.82 194.877 120.147 194.66 120.475C194.543 120.65 194.426 120.826 194.305 121.007C193.636 122.075 193.086 123.206 192.516 124.329C191.207 126.863 189.746 129.226 188.085 131.543C187.942 131.743 187.799 131.943 187.652 132.149C186.121 134.275 184.606 136.358 182.672 138.141C182.157 138.611 182.157 138.611 181.64 139.454C181.747 140.939 182.142 142.308 182.602 143.716C182.735 144.137 182.867 144.558 183 144.978C183.207 145.63 183.416 146.282 183.627 146.933C185.281 152.049 185.281 152.049 184.862 154.102C183.908 155.866 182.256 156.75 180.554 157.713C179.765 158.289 179.748 158.447 179.589 159.375C179.544 159.88 179.51 160.385 179.484 160.891C178.875 171.292 176.793 181.266 173.696 191.205C172.362 195.301 172.362 195.301 171.844 199.549C171.741 202.251 170.925 204.083 169.335 206.25C169.082 206.465 168.829 206.68 168.568 206.902C167.312 208.403 167.745 210.631 167.815 212.476C167.834 213.082 167.85 213.688 167.863 214.294C167.875 214.846 167.894 215.399 167.913 215.952C167.878 216.875 167.776 217.631 167.583 218.525C167.278 219.938 167.214 221.276 167.193 222.717C167.063 226.722 166.324 230.635 165.63 234.572C165.388 235.951 165.151 237.33 164.914 238.71C164.789 239.439 164.662 240.168 164.534 240.896C163.615 246.184 162.548 252.805 164.941 257.813C165.026 258.007 165.112 258.201 165.2 258.401C166.682 261.013 170.54 262.555 173.089 263.929C173.388 264.091 173.388 264.091 173.693 264.256C176.341 265.647 178.752 266.545 181.735 265.693C182.162 265.548 182.588 265.4 183.013 265.247C183.228 265.178 183.442 265.109 183.664 265.038C185.222 264.49 185.997 263.883 186.913 262.5C187.278 261.635 187.278 261.635 187.462 260.743C187.534 260.453 187.606 260.162 187.68 259.864C187.803 258.901 187.729 258.167 187.499 257.227C186.876 256.443 186.266 256.017 185.412 255.487C184.482 254.821 184.244 254.515 183.983 253.418C183.947 252.448 183.947 252.448 183.983 251.661C185.071 251.083 185.939 251.037 187.159 251.14C188.55 251.64 189.483 252.579 190.15 253.865C190.32 254.239 190.487 254.615 190.649 254.993C190.733 255.179 190.818 255.365 190.906 255.556C192.698 259.564 192.543 263.248 191.157 267.317C190.524 268.835 189.82 270.139 188.378 270.996C186.205 271.833 183.95 272.072 181.64 272.168C181.255 272.186 181.255 272.186 180.863 272.205C176.931 272.295 172.981 271.781 169.098 271.217C168.164 271.082 167.23 270.948 166.295 270.813C166.062 270.78 165.828 270.746 165.587 270.711C162.354 270.25 159.211 269.966 155.937 270.12C153.945 270.202 152.582 269.979 151.043 268.598C149.991 266.704 150.743 264.527 151.263 262.555C152.403 257.981 153.09 253.444 153.222 248.731C153.228 248.532 153.235 248.334 153.241 248.129C153.423 241.725 152.787 235.512 151.271 229.29C150.343 225.481 150.312 221.987 151.557 218.26C151.66 217.948 151.66 217.948 151.765 217.63C151.904 217.216 152.047 216.804 152.196 216.393C152.643 215.076 152.583 214.527 152.05 213.282C152.108 211.526 152.543 210.365 153.496 208.887C155.055 206.444 155.351 204.328 155.273 201.471C155.223 198.207 155.223 198.207 155.566 196.747C156.529 192.234 155.8 187.316 155.456 182.758C155.437 182.51 155.419 182.261 155.4 182.005C155.197 179.316 154.969 176.665 154.394 174.024C153.721 175.296 153.051 176.569 152.383 177.844C151.732 179.085 151.072 180.322 150.408 181.556C148.653 184.844 147.005 187.98 146.059 191.594C144.604 196.936 142.556 202.261 139.802 207.068C138.467 209.399 137.951 211.327 137.816 214.011C137.694 215.039 137.694 215.039 137.251 215.586C136.685 216.399 136.722 216.885 136.75 217.868C136.756 218.192 136.761 218.516 136.767 218.85C136.777 219.188 136.787 219.526 136.797 219.873C137.015 227.943 133.629 233.152 129.34 239.746C126.101 244.726 123.424 249.641 123.187 255.682C123.101 257.398 122.734 258.974 122.296 260.63C121.823 262.494 121.745 264.277 121.747 266.195C121.533 267.475 121.115 267.845 120.116 268.653C119.825 268.837 119.535 269.021 119.235 269.211C118.069 270.027 117.373 271.072 116.59 272.234C115.645 273.552 114.645 274.318 113.085 274.805C112.107 274.951 111.16 274.957 110.174 274.933C109.927 274.935 109.68 274.937 109.426 274.94C107.4 274.919 105.449 274.618 103.838 273.322C103.122 271.859 103.099 270.535 103.595 268.972C103.822 268.344 104.057 267.72 104.296 267.096C105.652 263.513 105.453 260.503 104.003 256.934C103.716 256.442 103.424 255.953 103.124 255.469C102.627 254.012 102.954 253.052 103.596 251.717C104.239 250.702 105.085 250.011 106.054 249.317C106.228 249.851 106.228 249.851 106.347 250.489C106.202 250.761 106.057 251.032 105.907 251.313C105.343 252.513 105.473 253.005 105.761 254.297C106.138 255.257 106.584 256.176 107.043 257.099C107.218 257.461 107.218 257.461 107.397 257.831C108.014 259.099 108.643 260.361 109.276 261.621C109.678 261.142 110.065 260.651 110.448 260.157C110.6 259.965 110.751 259.773 110.907 259.575C111.778 258.392 112.283 257.58 112.298 256.092C112.362 254.361 113.286 253.488 114.455 252.284C116.251 249.867 116.518 247.089 116.721 244.164C116.767 243.513 116.818 242.862 116.872 242.211C116.981 240.869 117.084 239.527 117.187 238.184C117.743 230.928 118.622 223.975 121.423 217.201C122.049 215.636 122.215 214.429 122.152 212.748C122.173 211.844 122.493 211.363 123.028 210.645C124.751 207.96 125.582 204.858 126.569 201.846C126.89 200.871 127.221 199.899 127.556 198.928C127.918 197.729 128.062 196.607 128.055 195.356C128.054 195.059 128.053 194.761 128.052 194.455C128.05 194.134 128.047 193.814 128.045 193.483C128.042 192.79 128.04 192.098 128.037 191.405C128.035 191.042 128.033 190.68 128.032 190.306C127.989 181.065 128.179 171.911 128.901 162.696C128.92 162.447 128.939 162.198 128.96 161.941C128.996 161.474 129.034 161.007 129.072 160.54C129.158 159.461 129.198 158.409 129.198 157.325C127.845 156.551 126.491 155.778 125.097 154.981C125.251 152.407 125.665 150.028 126.287 147.528C126.451 146.864 126.613 146.199 126.773 145.534C126.845 145.245 126.917 144.956 126.991 144.658C127.144 143.868 127.213 143.185 127.148 142.383C126.66 141.858 126.66 141.858 125.957 141.449C125.69 141.275 125.422 141.1 125.146 140.919C124.84 140.726 124.533 140.532 124.218 140.332C121.264 138.42 118.44 136.416 115.722 134.18C115.558 134.046 115.393 133.913 115.224 133.775C112.569 131.601 110.127 129.225 107.702 126.801C107.549 126.649 107.397 126.497 107.24 126.34C106.804 125.904 106.37 125.468 105.937 125.031C105.684 124.776 105.431 124.521 105.171 124.258C104.137 123.148 104.178 122.243 104.199 120.77C104.434 118.486 105.462 116.389 106.383 114.31C107.965 110.733 109.156 107.197 110.155 103.418C111.371 98.9006 112.939 94.8541 115.408 90.8671C116.607 88.9112 117.12 87.2305 117.443 84.9796C117.821 82.5628 118.774 80.407 120.588 78.7231C121.88 77.8005 123.318 77.1561 124.748 76.4744C126.583 75.5968 128.331 74.5787 130.077 73.5355C130.258 73.4294 130.439 73.3232 130.625 73.2138C133.414 71.567 133.414 71.567 135.499 69.1273C136.053 68.4027 136.697 67.9666 137.438 67.4381C139.063 66.1936 139.56 64.9397 140.038 62.9887C140.1 62.7613 140.161 62.534 140.225 62.2997C140.386 61.6524 140.512 61.0095 140.624 60.3519C140.667 60.1068 140.71 59.8617 140.755 59.6092C140.989 57.9558 140.986 56.8205 140.038 55.3715C139.023 54.5357 137.911 53.8811 136.749 53.2715C135.031 52.3286 134.467 51.3634 133.886 49.5121C133.725 48.9322 133.563 48.3523 133.404 47.772C133.345 47.5607 133.287 47.3494 133.227 47.1317C133.137 46.8068 133.137 46.8068 133.045 46.4754C132.559 44.8022 131.855 43.3911 130.986 41.889C129.605 39.4199 128.849 36.6788 128.026 33.9848C128.316 33.8881 128.607 33.7914 128.905 33.6918C129.421 33.9756 129.421 33.9756 129.986 34.4242C130.192 34.5866 130.399 34.749 130.612 34.9163C131.41 35.5845 132.179 36.2816 132.934 36.9991C133.862 37.7053 134.884 38.1774 135.937 38.6723C136.072 38.3883 136.207 38.1043 136.346 37.8117C141.295 27.5715 141.295 27.5715 146.776 25.4887C148.849 24.8305 150.837 24.7853 153.002 24.7746ZM142.931 30.2311C142.252 30.9867 142.252 30.9867 142.089 31.934C143.249 31.7406 144.409 31.5473 145.605 31.348C144.751 32.2013 144.262 32.6717 143.279 33.234C141.916 34.0587 140.925 34.9983 140.038 36.3285C141.343 36.1835 141.343 36.1835 142.675 36.0355C142.41 36.2587 142.41 36.2587 142.139 36.4864C140.828 37.616 139.731 38.633 138.866 40.1371C139.307 41.2117 139.932 41.8038 140.807 42.5541C141.047 42.761 141.286 42.968 141.533 43.1812C141.716 43.3368 141.9 43.4924 142.089 43.6527C142.565 43.1838 143.014 42.7185 143.444 42.2062C144.297 41.4651 145.173 41.1006 146.212 40.6738C146.767 40.4751 146.767 40.4751 147.069 40.1371C147.081 39.649 147.082 39.1604 147.069 38.6723C146.054 38.2372 146.054 38.2372 145.019 37.7933C145.103 36.7861 145.234 36.4042 145.971 35.6876C149.63 33.2762 154.504 34.2438 158.569 34.9897C166.061 36.5439 166.061 36.5439 167.284 38.3793C167.4 39.0601 167.5 39.7439 167.577 40.4301C167.065 40.2164 166.552 40.0028 166.039 39.7892C165.719 39.6563 165.398 39.5233 165.068 39.3864C164.422 39.1163 163.779 38.842 163.138 38.5624C162.845 38.4355 162.551 38.3086 162.249 38.1779C161.853 38.004 161.853 38.004 161.449 37.8265C159.253 37.0334 157.194 36.8266 154.87 36.8595C154.479 36.8598 154.479 36.8598 154.081 36.8601C152.603 36.8681 152.603 36.8681 151.171 37.2074C151.133 37.4941 151.133 37.4941 151.094 37.7865C150.812 39.5438 150.479 40.6538 149.12 41.8949C148.538 42.2188 147.949 42.499 147.342 42.7727C146.504 43.2084 145.936 43.8341 145.312 44.5316C145.118 44.725 144.925 44.9183 144.726 45.1176C144.596 45.8547 144.494 46.5725 144.414 47.3148C144.174 49.4444 144.174 49.4444 143.847 50.098C142.968 49.8051 142.968 49.8051 142.657 49.2718C142.566 49.049 142.475 48.8261 142.382 48.5966C142.281 48.3575 142.18 48.1185 142.076 47.8722C141.846 47.2932 141.627 46.7095 141.411 46.1246C140.131 43.5163 138.22 42.2796 135.733 40.9212C134.279 40.1201 133.054 39.2146 131.835 38.0863C131.588 38.9126 131.54 39.2492 131.743 40.1188C132.653 41.323 133.625 41.5631 135.012 42.0849C136.525 42.7329 138.025 43.6841 138.934 45.089C139.201 45.8179 139.227 46.3933 139.214 47.1683C139.212 47.4161 139.21 47.6638 139.208 47.9191C139.163 48.5841 139.051 49.1663 138.866 49.8051C138.48 49.6117 138.093 49.4183 137.694 49.2191C137.731 48.911 137.767 48.6028 137.804 48.2853C137.817 47.13 137.817 47.13 136.962 46.5092C136.803 46.397 136.645 46.2848 136.481 46.1693C135.503 45.3325 134.834 44.2414 134.101 43.1915C133.615 42.4715 133.615 42.4715 133.007 41.8949C133.187 42.9064 133.445 43.8273 133.81 44.7868C133.911 45.0518 134.012 45.3167 134.116 45.5896C134.221 45.8629 134.327 46.1361 134.435 46.4176C134.538 46.6897 134.641 46.9618 134.748 47.2422C135.788 50.3124 135.788 50.3124 138.2 52.2232C139.284 52.5789 140.368 52.6822 141.503 52.7348C141.503 52.5414 141.503 52.348 141.503 52.1488C142.612 52.9474 142.684 54.1337 142.931 55.3898C143.808 59.3886 145.538 62.5918 149.084 64.8746C150.924 65.8823 152.788 66.4697 154.888 66.5409C156.307 66.059 157.148 65.2001 158.202 64.1605C158.442 63.9415 158.683 63.7225 158.93 63.4968C159.179 63.2626 159.429 63.0285 159.685 62.7872C159.912 62.5746 160.139 62.362 160.373 62.1429C162.509 59.7796 163.682 56.7018 164.791 53.7629C165.014 53.1733 165.242 52.5861 165.472 51.9989C167.086 47.942 167.086 47.942 167.577 43.6527C167.765 43.5742 167.952 43.4956 168.145 43.4147C168.846 43.1 168.846 43.1 169.042 42.1879C169.246 40.1795 168.847 39.0628 167.577 37.5004C166.024 35.7012 163.942 34.9807 161.718 34.2777C161.524 34.2777 161.331 34.2777 161.132 34.2777C161.277 33.8427 161.277 33.8427 161.425 33.3988C163.293 33.2802 164.486 33.4656 166.157 34.3143C166.687 34.6125 166.687 34.6125 167.284 34.5707C166.061 31.5683 161.674 28.6357 158.851 27.29C157.394 26.6857 156.109 26.5207 154.54 26.5507C154.199 26.5548 154.199 26.5548 153.852 26.559C149.914 26.6596 145.71 27.1818 142.931 30.2311ZM168.2 52.2587C167.422 52.9728 166.699 53.6134 165.819 54.1996C165.605 55.0977 165.605 55.0977 165.526 55.9574C167.294 55.3774 168.246 54.1957 169.335 52.7348C169.784 51.764 169.784 51.764 169.921 50.9769C169.29 50.9769 168.624 51.8686 168.2 52.2587ZM142.382 61.2308C142.094 62.1277 141.807 63.025 141.521 63.9225C141.44 64.1757 141.359 64.4289 141.275 64.6898C141.196 64.9362 141.118 65.1827 141.037 65.4366C140.965 65.6621 140.893 65.8876 140.819 66.12C140.613 66.8363 140.431 67.5229 140.331 68.2621C141.151 69.6541 142.415 70.4186 143.737 71.2833C144.159 71.5676 144.58 71.8525 145.001 72.1382C145.205 72.2766 145.409 72.4149 145.62 72.5575C147.615 73.9278 149.25 75.3172 150.685 77.2709C151.189 77.9541 151.718 78.6033 152.27 79.2484C152.431 79.4388 152.593 79.6291 152.759 79.8252C153.231 80.3474 153.231 80.3474 154.101 80.5668C154.923 79.3411 155.336 78.1212 155.749 76.7216C155.874 76.3058 156 75.89 156.126 75.4742C156.231 75.1245 156.336 74.7747 156.444 74.4144C156.541 74.1244 156.638 73.8344 156.737 73.5355C156.773 72.8709 156.789 72.2052 156.792 71.5397C156.796 71.1873 156.801 70.835 156.805 70.472C156.738 69.4396 156.524 68.6367 156.151 67.6762C155.932 67.7075 155.712 67.7389 155.485 67.7711C151.355 68.2549 149.083 66.8607 145.917 64.3608C144.682 63.365 143.488 62.3703 142.382 61.2308ZM133.025 74.3229C130.637 76.29 128.178 77.5579 125.314 78.7403C125.104 78.8284 124.894 78.9164 124.678 79.0072C124.274 79.1748 123.869 79.3378 123.461 79.4948C121.643 80.2408 120.78 81.2618 119.933 83.0204C119.523 84.2134 119.326 85.4431 119.109 86.6825C118.651 89.2739 117.901 91.3265 116.527 93.5673C114.051 97.74 112.678 102.496 111.139 107.073C110.051 110.304 108.886 113.475 107.528 116.605C106.816 118.295 106.14 120.01 106.347 121.875C106.91 122.65 106.91 122.65 107.793 123.102C108.091 123.29 108.388 123.478 108.694 123.672C108.983 123.853 109.272 124.033 109.569 124.219C110.385 124.867 111.151 125.56 111.913 126.27C112.084 126.429 112.255 126.587 112.43 126.751C113.623 127.9 114.653 129.144 115.667 130.453C117.291 132.474 118.9 134.128 121.014 135.645C121.256 135.821 121.498 135.997 121.748 136.178C124.96 138.739 124.96 138.739 128.66 140.053C129.49 139.58 129.761 138.914 130.205 138.08C130.946 136.741 131.682 135.599 132.714 134.473C132.257 133.297 131.426 132.607 130.498 131.8C127.805 129.374 125.723 126.927 123.945 123.756C122.985 122.09 121.867 120.7 120.116 119.825C118.531 119.715 117.365 119.994 115.887 120.557C115.7 120.627 115.514 120.697 115.322 120.769C114.868 120.939 114.416 121.114 113.964 121.289C114.323 120.241 114.646 119.628 115.52 118.946C116.431 118.211 117.251 117.441 118.066 116.602C116.809 116.409 115.552 116.215 114.257 116.016C114.112 115.436 114.112 115.436 113.964 114.844C114.935 114.52 115.782 114.457 116.802 114.386C117.148 114.362 117.493 114.337 117.849 114.312C118.114 114.294 118.379 114.276 118.651 114.258C117.91 112.904 117.91 112.904 116.601 112.207C115.819 112.078 115.046 111.993 114.257 111.914C113.967 111.189 113.967 111.189 113.671 110.45C115.765 110.311 117.511 110.311 119.237 111.621C119.888 112.462 120.216 113.216 120.409 114.258C120.603 114.258 120.796 114.258 120.995 114.258C121.12 113.895 121.245 113.532 121.374 113.157C122.564 109.763 123.887 106.443 125.316 103.144C125.398 102.954 125.48 102.764 125.565 102.568C127.89 97.1879 127.89 97.1879 128.905 96.6801C129.05 97.6952 129.05 97.6952 129.198 98.7308C130.732 98.4541 131.688 97.5149 132.714 96.3871C133.303 95.4491 133.746 94.475 134.179 93.4574C134.405 92.9569 134.63 92.4564 134.856 91.9559C135.022 91.5778 135.187 91.1995 135.351 90.8207C135.644 91.1137 135.644 91.1137 135.735 92.1024C135.674 94.9358 134.42 96.957 132.517 98.9666C131.918 99.5319 131.314 99.9942 130.645 100.47C130.008 100.998 129.81 101.252 129.627 102.067C129.501 105.934 130.876 109.587 133.461 112.449C133.868 112.87 134.274 113.292 134.685 113.71C136.026 115.126 136.948 116.732 137.86 118.448C138.515 119.652 139 120.465 140.331 120.996C140.918 121.04 140.918 121.04 141.521 120.905C145.73 120.36 149.774 120.695 153.931 121.484C156.3 121.92 158.45 122.133 160.546 120.704C161.142 119.906 161.718 119.091 161.718 118.067C161.883 118.207 162.049 118.346 162.219 118.49C163.519 119.373 165.073 119.373 166.59 119.1C168.134 118.669 169.446 118.041 170.8 117.188C170.782 117.006 170.764 116.825 170.746 116.637C170.693 116.08 170.643 115.521 170.595 114.963C170.534 114.267 170.465 113.571 170.391 112.876C170.152 110.287 170.295 108.338 171.402 105.984C171.725 105.043 171.723 104.338 171.685 103.345C171.675 102.983 171.666 102.621 171.656 102.249C171.65 102.057 171.645 101.866 171.639 101.669C171.342 90.1143 171.342 90.1143 173.73 86.4262C174.02 86.3295 174.31 86.2328 174.608 86.1332C174.678 88.7449 174.548 91.1887 174.023 93.7504C174.893 93.4209 175.585 93.0991 176.366 92.5785C176.203 94.6862 175.552 96.3279 174.66 98.2296C174.161 99.397 173.892 100.175 174.325 101.402C174.849 102.525 175.483 103.581 176.147 104.627C177.431 106.703 178.534 108.834 179.589 111.036C180.459 110.939 181.329 110.842 182.226 110.743C182.075 110.99 181.924 111.238 181.768 111.493C181.275 112.672 181.369 113.321 181.64 114.551C181.789 114.488 181.939 114.424 182.093 114.359C184.189 113.556 186.44 113.245 188.615 113.932C189.257 114.258 189.257 114.258 189.495 114.881C189.522 115.153 189.522 115.153 189.55 115.43C187.842 116.284 186.123 116.62 184.251 116.969C183.97 117.041 183.688 117.114 183.398 117.188C183.301 117.381 183.204 117.575 183.105 117.774C185.993 118.922 185.993 118.922 188.964 119.825C188.964 120.211 188.964 120.598 188.964 120.996C187.676 120.883 186.423 120.753 185.174 120.411C183.818 120.044 182.45 119.933 181.054 119.825C180.841 120.261 180.841 120.261 180.623 120.706C180.425 121.108 180.227 121.51 180.028 121.912C179.925 122.123 179.821 122.334 179.714 122.552C179.185 123.613 178.64 124.652 178.022 125.665C177.859 125.934 177.859 125.934 177.693 126.209C177.389 126.702 177.079 127.192 176.768 127.681C176.263 128.854 176.326 129.439 176.659 130.664C177.138 131.611 177.138 131.611 177.758 132.514C178.781 134.093 179.668 135.7 180.468 137.403C181.668 136.952 182.312 136.101 183.068 135.114C183.206 134.934 183.345 134.754 183.488 134.569C187.104 129.797 189.988 124.778 192.649 119.432C192.992 118.79 193.344 118.245 193.786 117.672C194.322 116.901 194.322 116.901 194.228 115.897C193.915 114.736 193.474 113.707 192.919 112.647C192.815 112.445 192.712 112.243 192.605 112.035C190.86 108.684 188.88 105.566 186.62 102.539C184.014 99.0462 181.837 95.4082 179.73 91.5957C179.026 90.3382 178.28 89.1067 177.527 87.8777C176.751 86.6041 176.063 85.3007 175.422 83.9542C173.893 81.7503 171.906 80.7618 169.445 79.871C165.962 78.5305 163.1 76.8377 160.253 74.4144C158.594 75.1296 157.494 76.5223 156.804 78.1813C156.457 79.1464 156.159 80.1219 155.871 81.1058C155.566 82.0316 155.566 82.0316 154.98 82.6176C152.901 82.6176 151.562 81.9096 149.999 80.5668C149.196 79.7059 148.428 78.8352 147.675 77.9301C145.7 75.8206 142.751 74.733 140.166 73.5722C139.847 73.4264 139.527 73.2806 139.198 73.1304C136.283 71.8082 135.428 72.2743 133.025 74.3229ZM126.562 104.883C124.501 109.843 124.501 109.843 122.698 114.899C122.585 115.248 122.472 115.596 122.356 115.955C121.841 118.517 123.372 120.578 124.718 122.642C125.856 124.291 127.069 125.878 128.319 127.442C128.45 127.616 128.581 127.79 128.715 127.969C130.061 129.681 131.834 130.874 133.593 132.129C134.493 131.735 135.033 131.324 135.662 130.573C135.835 130.367 136.007 130.162 136.185 129.95C136.497 129.579 136.497 129.579 136.816 129.2C137.101 128.876 137.388 128.552 137.675 128.229C137.974 127.887 138.274 127.546 138.573 127.204C138.721 127.039 138.869 126.874 139.022 126.704C139.485 126.183 139.485 126.183 140.038 125.391C139.707 124.397 139.469 124.238 138.665 123.615C137.014 122.205 136.083 120.528 135.213 118.555C134.287 116.497 133.397 115.108 131.67 113.636C128.897 111.267 127.891 108.321 126.855 104.883C126.758 104.883 126.661 104.883 126.562 104.883ZM172.851 107.52C171.844 109.868 171.865 112.055 172.059 114.571C172.074 114.779 172.09 114.987 172.106 115.201C172.138 115.616 172.173 116.031 172.212 116.446C172.298 117.546 172.347 118.331 171.679 119.239C171.163 119.676 171.163 119.676 170.598 120.081C170.049 120.515 170.049 120.515 169.628 120.996C169.537 122.456 170.216 123.388 171.093 124.512C172.567 126.285 172.567 126.285 174.608 127.149C176.312 124.934 177.547 122.574 178.744 120.064C178.987 119.565 179.245 119.073 179.504 118.582C180.195 117.105 179.966 115.832 179.644 114.295C178.806 112.247 176.679 110.87 174.996 109.534C174.225 108.912 173.541 108.23 172.851 107.52ZM161.177 126.278C158.586 127.077 155.71 126.87 153.024 126.823C152.747 126.818 152.471 126.814 152.186 126.81C151.038 126.791 149.89 126.772 148.742 126.739C147.893 126.716 147.044 126.704 146.194 126.694C145.938 126.684 145.683 126.674 145.42 126.664C141.922 126.649 139.451 129.525 137.108 131.836C130.83 138.113 127.726 145.573 126.855 154.395C127.035 154.42 127.215 154.444 127.401 154.47C133.065 155.266 138.824 156.271 144.158 158.405C154.833 162.39 168.923 160.842 179.224 156.325C180.665 155.662 182.027 154.933 183.105 153.754C183.757 151.92 182.628 149.65 182.006 147.876C181.418 146.166 180.884 144.451 180.407 142.707C178.612 136.148 176.056 130.598 170.73 126.126C170.214 125.684 170.214 125.684 169.785 125.195C169.023 124.534 168.283 124.672 167.312 124.699C165.223 124.944 163.151 125.566 161.177 126.278ZM133.593 158.496C132.769 161.097 132.026 163.707 131.359 166.352C131.271 166.686 131.184 167.021 131.093 167.366C129.966 171.83 129.683 176.148 129.711 180.725C129.712 180.973 129.712 181.22 129.713 181.475C129.722 185.242 129.882 188.965 130.242 192.717C130.606 196.659 130.07 199.811 128.063 203.271C127.035 205.123 126.499 207.069 125.973 209.112C125.684 210.229 125.413 211.185 124.884 212.217C124.455 212.941 124.455 212.941 124.555 213.622C125.168 215.106 125.819 215.884 127.148 216.797C128.114 217.12 128.859 217.139 129.876 217.145C130.201 217.149 130.526 217.153 130.861 217.158C131.879 217.087 132.661 216.919 133.593 216.504C133.69 216.214 133.786 215.924 133.886 215.625C133.181 215.273 132.729 215.303 131.945 215.314C131.705 215.317 131.466 215.319 131.219 215.322C131.036 215.326 130.852 215.329 130.663 215.332C131.055 213.979 131.055 213.979 131.853 213.52C132.828 213.25 133.806 213.03 134.797 212.832C135.35 212.746 135.35 212.746 135.644 212.403C135.665 212.007 135.668 211.609 135.662 211.213C135.656 210.832 135.65 210.451 135.644 210.059C133.532 210.297 131.847 210.998 130 211.996C129.176 212.437 128.685 212.696 127.733 212.696C128.632 209.633 130.264 207.683 132.421 205.371C132.73 205.029 132.73 205.029 133.045 204.679C134.819 202.787 137.017 201.105 139.46 200.162C140.256 199.67 140.414 199.169 140.765 198.308C140.893 198 141.021 197.691 141.153 197.373C141.286 197.04 141.42 196.706 141.558 196.363C141.7 196.018 141.842 195.674 141.988 195.319C142.642 193.729 143.283 192.133 143.923 190.538C145.155 187.476 146.457 184.455 147.838 181.458C147.993 181.121 148.147 180.784 148.306 180.437C149.778 177.277 151.423 174.309 153.588 171.57C153.749 171.362 153.911 171.154 154.077 170.939C154.884 169.9 155.703 168.87 156.528 167.844C156.678 167.657 156.827 167.47 156.981 167.277C157.264 166.924 157.549 166.573 157.836 166.224C158.628 165.269 158.628 165.269 158.788 164.063C158.527 164.018 158.266 163.972 157.997 163.926C151.431 162.768 145.074 161.227 138.702 159.262C136.935 158.72 135.446 158.46 133.593 158.496ZM174.975 162.177C173.661 163.004 172.34 163.741 170.946 164.429C169.065 165.422 167.665 166.698 166.155 168.167C165.312 168.984 164.419 169.712 163.494 170.435C160.285 173.033 159.075 176.013 158.597 180.065C158.35 182.654 158.569 185.276 158.697 187.868C158.838 190.829 158.878 193.441 157.909 196.289C157.243 198.358 156.716 200.07 157.177 202.259C157.591 204.433 157.382 206.029 156.394 207.996C156.044 208.859 156.168 209.48 156.444 210.352C156.541 210.545 156.638 210.739 156.737 210.938C155.867 211.228 155.867 211.228 154.98 211.524C154.654 212.777 154.556 213.35 155.218 214.49C156.757 216.09 158.943 216.973 161.132 217.09C162.109 217.107 163.084 217.108 164.062 217.09C164.062 216.897 164.062 216.704 164.062 216.504C163.772 216.408 163.482 216.311 163.183 216.211C163.183 216.018 163.183 215.825 163.183 215.625C164.053 215.335 164.923 215.045 165.819 214.746C165.527 213.96 165.251 213.305 164.757 212.622C164.061 211.231 164.124 209.961 164.561 208.482C165.359 206.628 166.604 205.348 168.082 204.016C169.128 203.051 169.937 202.118 170.214 200.684C170.209 200.028 170.192 199.373 170.166 198.718C170.113 196.074 170.816 193.811 171.616 191.31C172.038 189.988 172.436 188.658 172.835 187.329C172.953 186.934 172.953 186.934 173.074 186.531C175.325 178.965 177.085 170.324 176.971 162.397C176.968 162.154 176.965 161.911 176.963 161.661C176.959 161.487 176.956 161.313 176.952 161.133C176.293 161.133 175.496 161.848 174.975 162.177ZM133.373 206.635C132.706 207.326 132.437 207.668 132.128 208.594C134.439 207.712 136.831 206.572 138.573 204.786C138.988 203.861 138.988 203.861 139.159 203.028C137.268 203.028 134.682 205.352 133.373 206.635ZM123.925 217.383C119.979 225.584 118.911 234.714 118.003 243.665C117.322 250.261 117.322 250.261 115.813 252.979C115.239 254.01 115.239 254.01 115.136 255.176C115.379 255.278 115.379 255.278 115.628 255.381C115.84 255.477 116.052 255.572 116.271 255.671C116.482 255.762 116.693 255.854 116.91 255.949C117.647 256.465 117.8 256.969 118.066 257.813C117.818 257.754 117.57 257.696 117.315 257.635C116.229 257.452 115.351 257.368 114.257 257.52C113.189 258.427 112.6 259.535 111.913 260.743C111.56 261.189 111.206 261.635 110.851 262.079C110.206 263.067 110.06 263.643 110.265 264.808C110.411 265.312 110.571 265.812 110.741 266.309C110.822 266.583 110.903 266.857 110.986 267.139C111.577 268.983 112.318 270.199 113.671 271.582C114.28 271.223 114.28 271.223 114.843 270.704C114.843 270.317 114.843 269.93 114.843 269.532C114.456 269.435 114.069 269.338 113.671 269.239C113.671 269.045 113.671 268.852 113.671 268.653C114.006 268.535 114.006 268.535 114.348 268.415C115.166 268.053 115.469 267.879 116.015 267.188C116.305 266.439 116.568 265.697 116.82 264.936C117.507 262.97 118.321 261.621 119.823 260.157C120.355 259.094 120.237 257.833 120.298 256.66C120.409 255.762 120.409 255.762 120.995 254.883C121.206 254.122 121.397 253.362 121.581 252.594C123.407 245.388 125.27 238.343 130.761 233.118C132.292 231.643 133.327 230.311 133.886 228.223C133.955 227.976 134.024 227.729 134.095 227.475C134.47 225.825 134.528 224.177 134.545 222.492C134.548 222.286 134.551 222.08 134.553 221.867C134.579 220.664 134.579 220.664 133.886 219.727C133.099 219.659 132.33 219.619 131.542 219.599C128.864 219.483 126.574 219.253 124.511 217.383C124.317 217.383 124.124 217.383 123.925 217.383ZM154.101 217.676C152.209 223.588 153.295 228.706 154.77 234.578C155.53 237.639 155.635 240.591 155.639 243.732C155.639 243.947 155.64 244.163 155.641 244.385C155.643 247.823 155.375 251.019 154.521 254.36C154.291 255.304 154.264 255.96 154.394 256.934C154.99 257.802 155.708 258.528 156.444 259.278C157.909 260.92 157.909 260.92 157.909 261.621C156.577 261.674 155.601 261.621 154.394 261.036C153.647 263.142 152.929 265.229 152.929 267.481C153.461 267.439 153.461 267.439 154.005 267.396C159.29 267.027 164.239 267.69 169.455 268.515C172.241 268.952 175.02 269.313 177.831 269.532C178.37 269.579 178.37 269.579 178.919 269.628C182.102 269.785 185.473 268.762 188.085 266.895C189.189 265.573 190.262 264.109 190.301 262.336C190.234 261.312 190.234 261.312 189.55 260.743C189.465 261.001 189.379 261.258 189.291 261.524C188.062 265.007 188.062 265.007 186.327 266.016C185.174 266.561 184.007 267.036 182.812 267.481C182.479 267.608 182.147 267.735 181.805 267.865C177.79 268.64 174.895 267.636 171.569 265.393C169.818 264.152 168.134 262.818 166.458 261.478C165.706 260.879 164.936 260.312 164.153 259.754C162.901 258.809 162.391 258.057 162.134 256.478C161.906 254.216 162.006 251.934 162.066 249.665C162.072 249.418 162.078 249.172 162.085 248.918C162.265 242.356 163.348 236.047 164.617 229.615C165.261 226.309 165.629 223.102 165.526 219.727C165.146 219.745 164.765 219.763 164.373 219.782C161.265 219.777 158.039 219.197 155.21 217.902C154.692 217.638 154.692 217.638 154.101 217.676ZM107.226 262.793C107.028 263.782 106.833 264.771 106.64 265.76C106.584 266.038 106.528 266.317 106.47 266.604C106.201 267.99 105.977 269.284 106.054 270.704C106.344 270.607 106.634 270.51 106.933 270.411C108.105 270.411 108.105 270.411 108.752 270.913C109.171 271.343 109.58 271.783 109.979 272.231C110.134 272.404 110.289 272.576 110.448 272.754C110.545 272.754 110.642 272.754 110.741 272.754C110.569 271.295 110.263 269.997 109.789 268.598C109.725 268.41 109.662 268.222 109.596 268.028C108.983 266.25 108.273 264.516 107.519 262.793C107.422 262.793 107.325 262.793 107.226 262.793Z" fill="black"/>
</svg>
