<svg width="300" height="300" viewBox="0 0 300 300" fill="none" xmlns="http://www.w3.org/2000/svg">
<path d="M160.801 74.3535C162.206 74.9866 163.614 75.6126 165.021 76.2395C165.296 76.3625 165.572 76.4855 165.856 76.6123C167.964 77.5521 170.081 78.4666 172.21 79.3581C175.121 80.5771 178.017 81.826 180.91 83.0853C183.251 84.1037 185.599 85.1024 187.965 86.0626C189.088 86.521 190.192 87.0077 191.29 87.5246C193.462 88.5434 195.674 89.4652 197.886 90.3962C200.274 91.4021 202.659 92.4167 205.041 93.4389C205.381 93.5847 205.721 93.7305 206.071 93.8807C207.453 94.4737 208.835 95.0671 210.216 95.6605C211.25 96.1042 212.284 96.5477 213.317 96.9911C213.658 97.1371 213.998 97.283 214.348 97.4334C216.303 98.2711 218.26 99.1034 220.22 99.9296C221.153 100.323 222.085 100.719 223.017 101.114C224.258 101.641 225.5 102.162 226.745 102.679C227.545 103.011 228.342 103.348 229.14 103.685C229.523 103.846 229.907 104.006 230.292 104.164C232.562 105.097 234.418 106.038 236.132 107.813C236.295 107.976 236.457 108.14 236.625 108.308C239.419 111.203 240.328 114.965 240.308 118.858C240.309 119.132 240.31 119.406 240.311 119.688C240.313 120.6 240.311 121.511 240.31 122.423C240.31 123.079 240.311 123.735 240.313 124.391C240.315 126.169 240.314 127.947 240.312 129.724C240.311 131.588 240.312 133.451 240.313 135.314C240.314 138.643 240.313 141.973 240.31 145.302C240.307 148.316 240.307 151.33 240.31 154.343C240.313 157.849 240.314 161.355 240.313 164.86C240.312 166.714 240.312 168.567 240.314 170.421C240.315 172.164 240.314 173.907 240.311 175.651C240.31 176.289 240.31 176.928 240.311 177.566C240.322 183.094 240.123 187.868 236.067 192.1C234.424 193.461 232.504 194.258 230.566 195.117C230.164 195.302 229.763 195.487 229.362 195.674C225.213 197.582 221.009 199.371 216.821 201.193C214.32 202.281 211.821 203.373 209.326 204.474C205.154 206.313 200.977 208.139 196.783 209.925C194.407 210.937 192.055 211.982 189.721 213.085C187.33 214.201 184.902 215.235 182.474 216.268C179.802 217.406 177.144 218.557 174.525 219.814C173.331 220.374 172.11 220.868 170.892 221.372C169.354 222.014 167.828 222.683 166.301 223.349C163.284 224.663 160.263 225.97 157.232 227.252C156.953 227.372 156.674 227.492 156.387 227.616C152.174 229.386 148.54 229.61 144.241 227.918C141.877 226.951 139.547 225.906 137.218 224.858C135.913 224.272 134.605 223.692 133.297 223.112C131.303 222.228 129.311 221.34 127.319 220.453C120.902 217.597 114.477 214.76 108.029 211.973C105.54 210.897 103.058 209.804 100.587 208.685C96.1762 206.689 91.7382 204.753 87.2846 202.853C85.033 201.891 82.7921 200.905 80.5529 199.915C78.823 199.151 77.0895 198.397 75.3507 197.653C74.9595 197.486 74.5683 197.318 74.177 197.15C73.609 196.907 73.0409 196.663 72.4717 196.423C66.8594 194.046 62.7589 191.892 60.3509 186.035C59.7757 184.368 59.6805 182.892 59.6867 181.135C59.6853 180.853 59.684 180.571 59.6826 180.281C59.6789 179.339 59.6794 178.398 59.6799 177.456C59.6781 176.78 59.6761 176.103 59.6739 175.427C59.6687 173.592 59.6674 171.757 59.667 169.921C59.6666 168.774 59.6653 167.627 59.6638 166.479C59.6586 162.682 59.6559 158.884 59.6564 155.087C59.6564 154.882 59.6564 154.677 59.6564 154.467C59.6564 154.262 59.6565 154.057 59.6565 153.846C59.6567 150.529 59.6511 147.213 59.6429 143.896C59.6344 140.485 59.6305 137.075 59.6309 133.665C59.6311 131.752 59.6294 129.839 59.6232 127.927C59.6175 126.127 59.6175 124.327 59.6217 122.528C59.6223 121.868 59.621 121.209 59.6174 120.55C59.5852 114.15 59.5852 114.15 60.9369 111.621C61.0887 111.336 61.2405 111.052 61.3969 110.758C63.9748 107.144 66.909 105.4 70.8978 103.711C71.3082 103.536 71.3082 103.536 71.7268 103.357C73.299 102.685 74.874 102.021 76.4505 101.359C78.5555 100.474 80.6508 99.5679 82.7447 98.6574C87.0595 96.7824 91.3829 94.928 95.7081 93.0772C97.0602 92.4986 98.4118 91.9191 99.7632 91.3389C103.046 89.9296 106.332 88.5272 109.625 87.14C112.488 85.9333 115.337 84.6961 118.177 83.435C119.912 82.6659 121.655 81.9244 123.408 81.1984C124.48 80.7498 125.54 80.276 126.598 79.7975C129.078 78.6868 131.577 77.6249 134.081 76.5724C135.828 75.8377 137.571 75.0947 139.307 74.3364C139.856 74.0979 140.404 73.8594 140.953 73.621C141.469 73.3959 141.984 73.1685 142.499 72.9411C149.558 69.8754 154.067 71.3175 160.801 74.3535ZM147.251 78.9735C147.073 79.0517 146.895 79.1298 146.712 79.2103C146.134 79.4647 145.558 79.7227 144.982 79.9806C144.581 80.1581 144.179 80.3353 143.777 80.5121C142.983 80.8613 142.191 81.2113 141.398 81.5621C140.108 82.1296 138.812 82.6799 137.512 83.2216C134.175 84.6171 130.853 86.0484 127.53 87.4754C126.68 87.8403 125.829 88.2045 124.978 88.5683C120.519 90.475 116.069 92.4053 111.62 94.3361C111.62 94.5295 111.62 94.7228 111.62 94.922C111.879 95.0257 111.879 95.0257 112.142 95.1315C117.827 97.4192 117.827 97.4192 120.135 98.5292C122.216 99.5215 124.338 100.4 126.47 101.276C132.241 103.647 137.987 106.071 143.654 108.682C144.022 108.852 144.022 108.852 144.397 109.025C144.611 109.123 144.824 109.222 145.044 109.324C145.649 109.6 145.649 109.6 146.484 109.863C147.134 111.028 147.208 112.065 147.07 113.379C146.296 114.8 145.619 115.414 144.141 116.049C143.619 116.278 143.619 116.278 143.086 116.512C142.711 116.67 142.336 116.828 141.961 116.986C141.576 117.153 141.191 117.32 140.806 117.488C139.849 117.904 138.89 118.313 137.93 118.721C137.165 119.046 136.401 119.376 135.637 119.706C134.627 120.142 133.615 120.575 132.602 121.005C131.396 121.518 130.196 122.042 128.997 122.571C126.63 123.613 124.247 124.616 121.864 125.622C118.835 126.9 115.813 128.193 112.792 129.492C112.987 130.397 112.987 130.397 113.651 130.706C113.901 130.813 114.15 130.919 114.407 131.028C114.691 131.151 114.975 131.274 115.268 131.401C115.737 131.598 115.737 131.598 116.216 131.799C116.543 131.94 116.869 132.08 117.206 132.225C117.909 132.527 118.613 132.828 119.318 133.128C120.575 133.663 121.828 134.208 123.08 134.752C123.259 134.83 123.437 134.907 123.621 134.987C123.89 135.104 123.89 135.104 124.165 135.224C125.093 135.627 126.021 136.028 126.95 136.43C128.983 137.309 131.015 138.189 133.047 139.07C133.591 139.306 134.135 139.542 134.68 139.778C136.377 140.513 138.074 141.248 139.771 141.985C140.561 142.328 141.351 142.671 142.142 143.014C142.514 143.176 142.886 143.338 143.259 143.5C144.111 143.87 144.963 144.238 145.82 144.597C146.777 145.02 146.777 145.02 147.67 145.511C148.942 146.173 149.808 146.582 151.245 146.293C152.302 145.882 153.299 145.397 154.302 144.873C154.676 144.69 155.051 144.508 155.426 144.328C156.187 143.96 156.946 143.587 157.703 143.209C159.255 142.44 160.842 141.752 162.432 141.065C163.033 140.801 163.635 140.537 164.236 140.273C166.45 139.304 168.669 138.346 170.888 137.387C176.44 134.986 181.973 132.538 187.499 130.078C187.499 129.885 187.499 129.692 187.499 129.492C187.315 129.415 187.13 129.337 186.94 129.257C182.987 127.593 179.043 125.912 175.109 124.203C172.231 122.952 169.35 121.711 166.466 120.476C165.808 120.193 165.149 119.91 164.491 119.627C162.62 118.824 160.748 118.025 158.864 117.254C158.577 117.135 158.29 117.017 157.994 116.894C157.483 116.684 156.97 116.476 156.455 116.272C155.122 115.72 154.305 115.233 153.515 113.965C153.082 112.541 153.121 111.482 153.808 110.156C154.922 109.435 156.109 108.925 157.324 108.399C157.728 108.194 158.131 107.987 158.532 107.776C159.341 107.371 160.159 107.024 161.002 106.695C162.625 106.05 164.223 105.353 165.82 104.645C166.131 104.508 166.442 104.37 166.762 104.229C168.209 103.59 169.655 102.95 171.101 102.31C172.349 101.757 173.598 101.205 174.847 100.653C175.056 100.561 175.265 100.468 175.48 100.373C179.668 98.5234 183.872 96.7135 188.085 94.922C188.085 94.7287 188.085 94.5353 188.085 94.3361C183.445 92.1948 178.765 90.1587 174.059 88.1654C173.366 87.8711 172.673 87.5766 171.98 87.2821C170.589 86.6916 169.199 86.1014 167.808 85.5117C165.974 84.734 164.141 83.9547 162.309 83.1747C161.27 82.7325 160.23 82.2904 159.191 81.8483C158.953 81.7471 158.716 81.6459 158.471 81.5417C157.391 81.0822 156.31 80.6235 155.229 80.1669C154.503 79.8597 153.78 79.5465 153.058 79.229C152.592 79.0267 152.592 79.0267 152.117 78.8202C151.853 78.7037 151.59 78.5873 151.318 78.4673C149.745 77.9426 148.735 78.3131 147.251 78.9735ZM196.302 99.0476C195.875 99.253 195.875 99.253 195.439 99.4626C195.139 99.6078 194.839 99.7529 194.531 99.9025C193.929 100.175 193.326 100.444 192.722 100.712C192.411 100.85 192.099 100.989 191.777 101.132C191.453 101.276 191.129 101.42 190.795 101.569C190.278 101.798 190.278 101.798 189.751 102.033C186.743 103.368 183.726 104.683 180.706 105.991C179.307 106.597 177.91 107.205 176.513 107.813C175.96 108.053 175.408 108.293 174.855 108.534C174.578 108.654 174.301 108.774 174.016 108.898C170.211 110.553 170.211 110.553 166.406 112.207C167.022 112.882 167.571 113.275 168.405 113.646C168.63 113.747 168.855 113.848 169.087 113.952C169.332 114.059 169.577 114.166 169.83 114.276C170.088 114.391 170.347 114.506 170.613 114.624C172.879 115.622 175.166 116.572 177.455 117.517C179.923 118.539 182.369 119.608 184.812 120.689C187.304 121.791 189.803 122.875 192.312 123.94C193.133 124.288 193.95 124.643 194.763 125.011C195.073 125.148 195.383 125.286 195.702 125.427C195.956 125.543 196.21 125.659 196.472 125.778C197.865 126.176 199.092 125.526 200.368 124.966C200.712 124.816 201.056 124.667 201.41 124.512C201.784 124.347 202.158 124.182 202.532 124.017C202.923 123.847 203.314 123.676 203.705 123.505C204.526 123.146 205.347 122.786 206.168 122.426C207.394 121.887 208.622 121.35 209.85 120.813C211.042 120.292 212.234 119.771 213.425 119.249C215.475 118.351 217.527 117.455 219.58 116.564C220.646 116.102 221.712 115.638 222.777 115.174C223.291 114.95 223.806 114.726 224.321 114.503C225.066 114.178 225.811 113.852 226.556 113.526C226.777 113.43 226.998 113.334 227.225 113.236C228.402 112.718 228.402 112.718 229.394 111.914C227.606 110.988 225.788 110.208 223.919 109.461C222.188 108.761 220.462 108.062 218.774 107.263C216.685 106.278 214.557 105.392 212.429 104.497C210.431 103.656 208.437 102.808 206.446 101.95C206.098 101.8 206.098 101.8 205.743 101.647C204.816 101.248 203.888 100.848 202.961 100.447C202.313 100.166 201.664 99.8866 201.015 99.6072C200.821 99.5229 200.627 99.4385 200.427 99.3515C198.365 98.42 198.365 98.42 196.302 99.0476ZM97.7777 100.104C97.3894 100.285 97.0006 100.465 96.6113 100.644C95.83 101.004 95.0507 101.367 94.2725 101.734C92.7241 102.457 91.143 103.096 89.5563 103.729C87.9556 104.373 86.3677 105.032 84.7939 105.739C83.3563 106.376 81.9049 106.982 80.4559 107.593C80.1244 107.733 79.7928 107.873 79.4513 108.017C76.6011 109.221 73.7498 110.422 70.8978 111.621C70.8978 111.911 70.8978 112.201 70.8978 112.5C75.6041 114.573 80.3155 116.631 85.0519 118.634C85.2473 118.717 85.4428 118.8 85.6442 118.885C86.0426 119.053 86.441 119.222 86.8395 119.39C87.0389 119.475 87.2382 119.559 87.4437 119.646C87.7438 119.773 87.7438 119.773 88.0499 119.902C90.3279 120.866 92.6033 121.836 94.8775 122.809C95.3293 123.002 95.7812 123.195 96.2332 123.388C96.8623 123.657 97.4911 123.926 98.1199 124.195C98.3044 124.273 98.4889 124.352 98.679 124.433C99.5207 124.794 100.339 125.173 101.152 125.595C102.191 126.09 102.61 126.002 103.71 125.684C104.623 125.345 105.512 124.96 106.402 124.567C106.669 124.451 106.935 124.335 107.21 124.215C109.711 123.123 112.202 122.008 114.694 120.896C117.091 119.828 119.498 118.785 121.911 117.755C124.654 116.583 127.397 115.41 130.132 114.221C130.448 114.086 130.763 113.951 131.088 113.812C131.518 113.624 131.518 113.624 131.958 113.432C132.337 113.267 132.337 113.267 132.725 113.1C133.348 112.839 133.348 112.839 133.593 112.207C128.246 109.821 122.896 107.442 117.52 105.122C115.588 104.288 113.658 103.45 111.73 102.604C111.519 102.512 111.307 102.419 111.089 102.323C109.879 101.792 108.67 101.261 107.461 100.728C106.924 100.493 106.384 100.265 105.845 100.036C104.882 99.6095 104.882 99.6095 104.109 99.1734C101.763 97.9293 99.9672 99.0295 97.7777 100.104ZM67.6752 118.945C67.6297 125.858 67.5863 132.771 67.5454 139.683C67.5263 142.894 67.5066 146.105 67.4853 149.316C67.4666 152.121 67.4493 154.925 67.4334 157.73C67.425 159.21 67.416 160.689 67.4055 162.169C67.366 167.764 67.3405 173.36 67.441 178.954C67.449 179.437 67.4552 179.92 67.4594 180.403C67.4659 181.067 67.4796 181.729 67.4954 182.392C67.5017 182.765 67.5081 183.138 67.5147 183.522C67.7149 184.83 68.1082 185.528 68.847 186.621C69.615 187.173 69.615 187.173 70.5682 187.537C70.7535 187.617 70.9387 187.697 71.1296 187.78C71.5699 187.97 72.0115 188.157 72.4541 188.341C73.3583 188.721 74.2572 189.112 75.1562 189.504C76.646 190.153 78.1372 190.799 79.6297 191.443C81.8514 192.401 84.0683 193.37 86.2843 194.342C89.2026 195.622 92.1221 196.898 95.0494 198.157C95.4318 198.322 95.4318 198.322 95.822 198.49C96.8049 198.992 96.8049 198.992 97.8509 199.219C97.8777 190.687 97.8984 182.155 97.9108 173.623C97.9122 172.617 97.9138 171.61 97.9153 170.603C97.9158 170.303 97.9158 170.303 97.9162 169.996C97.9213 166.748 97.9306 163.501 97.9414 160.253C97.9523 156.923 97.9587 153.592 97.9612 150.261C97.9627 148.39 97.9663 146.518 97.9748 144.647C97.9828 142.887 97.9853 141.127 97.9835 139.367C97.9838 138.72 97.9862 138.072 97.9906 137.425C97.9964 136.544 97.9951 135.663 97.9919 134.782C97.997 134.394 97.997 134.394 98.0022 133.998C98.0114 132.646 98.0114 132.646 97.3079 131.548C96.5059 131.168 95.7083 130.802 94.8869 130.465C94.711 130.392 94.535 130.319 94.3538 130.244C93.9736 130.087 93.593 129.93 93.2123 129.774C92.1832 129.352 91.1565 128.925 90.1296 128.498C89.9183 128.41 89.707 128.322 89.4893 128.232C87.366 127.349 85.2558 126.437 83.1476 125.519C82.4247 125.205 81.7018 124.89 80.9789 124.576C80.801 124.499 80.6232 124.421 80.4399 124.342C78.5863 123.536 76.7302 122.736 74.8728 121.939C74.359 121.718 73.8454 121.498 73.3318 121.277C73.0165 121.141 72.7012 121.006 72.3764 120.867C72.104 120.75 71.8316 120.633 71.551 120.513C70.7303 120.17 69.9069 119.836 69.0809 119.507C68.8175 119.402 68.5541 119.296 68.2828 119.188C68.0823 119.108 67.8817 119.028 67.6752 118.945ZM228.771 120.282C228.449 120.416 228.127 120.551 227.795 120.689C225.742 121.55 223.721 122.455 221.71 123.412C220.422 124.018 219.113 124.576 217.803 125.134C217.551 125.242 217.299 125.349 217.04 125.46C216.489 125.695 215.938 125.93 215.386 126.164C213.747 126.864 212.108 127.567 210.472 128.273C210.092 128.436 209.713 128.599 209.333 128.762C208.793 128.993 208.253 129.226 207.713 129.459C207.402 129.593 207.092 129.726 206.772 129.864C205.211 130.578 203.683 131.362 202.148 132.129C202.148 154.269 202.148 176.408 202.148 199.219C203.305 198.987 204.088 198.757 205.136 198.283C205.437 198.148 205.737 198.013 206.047 197.874C206.374 197.725 206.7 197.577 207.037 197.424C207.566 197.186 208.096 196.948 208.626 196.711C209.001 196.542 209.377 196.373 209.752 196.205C211.787 195.29 213.828 194.39 215.87 193.492C216.923 193.028 217.976 192.563 219.029 192.098C220.427 191.481 221.825 190.866 223.224 190.252C223.772 190.011 224.32 189.77 224.867 189.529C225.53 189.237 226.193 188.945 226.856 188.655C229.986 187.528 229.986 187.528 232.324 185.449C232.352 184.582 232.362 183.722 232.359 182.854C232.359 182.582 232.359 182.31 232.36 182.03C232.36 181.112 232.358 180.195 232.357 179.278C232.357 178.623 232.357 177.967 232.357 177.312C232.357 175.528 232.355 173.745 232.353 171.961C232.351 170.099 232.351 168.236 232.351 166.374C232.35 163.246 232.348 160.119 232.346 156.992C232.343 153.77 232.341 150.548 232.34 147.327C232.34 147.029 232.34 147.029 232.339 146.725C232.339 145.73 232.339 144.734 232.338 143.738C232.335 135.474 232.33 127.21 232.324 118.945C231.198 118.945 229.795 119.855 228.771 120.282ZM105.468 135.059C105.468 157.488 105.468 179.918 105.468 203.027C105.952 203.124 106.435 203.221 106.933 203.32C107.41 203.512 107.881 203.72 108.346 203.941C108.756 204.132 108.756 204.132 109.174 204.328C109.468 204.467 109.762 204.606 110.064 204.749C112.613 205.937 115.177 207.071 117.773 208.154C120.198 209.169 122.602 210.217 124.987 211.322C129.29 213.315 133.635 215.208 137.988 217.09C138.178 217.172 138.368 217.255 138.564 217.34C139.817 217.882 141.072 218.421 142.327 218.958C142.647 219.096 142.967 219.233 143.296 219.375C143.588 219.5 143.881 219.624 144.182 219.752C144.437 219.861 144.692 219.97 144.955 220.082C145.628 220.362 145.628 220.362 146.484 220.313C146.493 214.252 146.499 208.191 146.502 202.13C146.502 201.793 146.502 201.793 146.502 201.449C146.509 188.986 146.484 176.525 146.337 164.063C146.334 163.764 146.33 163.465 146.327 163.157C146.285 159.651 146.24 156.144 146.191 152.637C142.639 151.014 139.085 149.4 135.497 147.858C135.128 147.698 134.758 147.539 134.388 147.379C133.626 147.05 132.864 146.721 132.102 146.393C130.397 145.658 128.694 144.919 126.992 144.181C126.435 143.94 125.878 143.699 125.321 143.457C123.404 142.627 121.489 141.795 119.574 140.961C116.908 139.799 114.239 138.643 111.567 137.493C111.029 137.262 110.492 137.029 109.954 136.797C109.624 136.655 109.295 136.514 108.955 136.368C108.664 136.242 108.372 136.117 108.072 135.987C107.218 135.641 106.342 135.35 105.468 135.059ZM191.631 136.051C191.283 136.203 190.936 136.355 190.578 136.512C190.199 136.681 189.819 136.849 189.44 137.018C189.045 137.192 188.65 137.365 188.255 137.539C187.434 137.899 186.613 138.261 185.792 138.623C184.641 139.13 183.488 139.63 182.332 140.127C178.319 141.856 174.322 143.614 170.338 145.408C167.879 146.515 165.41 147.598 162.935 148.668C158.481 150.572 158.481 150.572 154.101 152.637C154.101 174.97 154.101 197.303 154.101 220.313C157.386 219.05 157.386 219.05 160.638 217.713C160.873 217.613 161.109 217.513 161.352 217.411C163.439 216.525 165.517 215.619 167.592 214.705C168.367 214.364 169.143 214.024 169.919 213.685C170.312 213.513 170.705 213.341 171.098 213.169C172.045 212.754 172.992 212.341 173.94 211.931C176.601 210.778 179.235 209.574 181.867 208.359C183.854 207.447 185.853 206.571 187.866 205.719C191.144 204.406 191.144 204.406 194.238 202.735C194.628 201.565 194.57 200.444 194.566 199.225C194.566 198.953 194.566 198.681 194.567 198.4C194.567 197.484 194.565 196.567 194.564 195.651C194.564 194.996 194.564 194.34 194.564 193.685C194.564 191.902 194.562 190.12 194.56 188.337C194.559 186.476 194.558 184.614 194.558 182.753C194.557 179.627 194.555 176.501 194.553 173.376C194.55 170.156 194.548 166.937 194.547 163.717C194.547 163.519 194.547 163.32 194.546 163.116C194.546 162.12 194.546 161.125 194.545 160.13C194.542 151.87 194.537 143.611 194.531 135.352C193.3 135.352 192.74 135.561 191.631 136.051Z" fill="black"/>
<path d="M63.5742 108.105C63.7676 108.202 63.9609 108.299 64.1602 108.398C63.7963 109.49 63.2487 109.978 62.4023 110.742C62.209 110.742 62.0156 110.742 61.8164 110.742C62.2009 109.589 62.6716 108.918 63.5742 108.105Z" fill="black"/>
</svg>
