<svg width="300" height="300" viewBox="0 0 300 300" fill="none" xmlns="http://www.w3.org/2000/svg">
<path d="M126.04 130.224C126.254 130.222 126.467 130.221 126.687 130.219C127.402 130.215 128.117 130.22 128.832 130.224C129.344 130.223 129.857 130.221 130.369 130.219C131.761 130.215 133.153 130.218 134.546 130.223C136.001 130.227 137.457 130.225 138.913 130.224C141.357 130.223 143.801 130.227 146.246 130.234C149.074 130.242 151.902 130.243 154.73 130.239C157.448 130.236 160.167 130.238 162.885 130.242C164.043 130.244 165.201 130.244 166.359 130.242C167.722 130.241 169.085 130.244 170.447 130.25C170.948 130.252 171.449 130.252 171.95 130.25C172.632 130.249 173.314 130.252 173.996 130.257C174.379 130.258 174.761 130.259 175.155 130.26C176.074 130.371 176.074 130.371 176.635 130.78C177.278 131.73 177.143 132.796 176.953 133.887C175.74 135.894 173.545 137.341 171.676 138.714C170.969 139.244 170.551 139.581 170.321 140.451C170.169 141.958 170.164 143.456 170.158 144.97C170.156 145.318 170.153 145.665 170.151 146.023C170.143 147.17 170.139 148.316 170.134 149.463C170.133 149.859 170.131 150.254 170.13 150.65C170.123 152.294 170.118 153.939 170.115 155.583C170.11 157.938 170.1 160.292 170.083 162.646C170.072 164.304 170.066 165.961 170.065 167.619C170.064 168.608 170.06 169.598 170.051 170.587C170.041 171.689 170.041 172.791 170.044 173.893C170.039 174.221 170.034 174.55 170.029 174.888C170.036 175.7 170.054 176.45 170.215 177.246C171.098 178.113 171.885 178.235 173.096 178.229C173.505 178.231 173.505 178.231 173.922 178.232C174.213 178.228 174.504 178.225 174.804 178.221C175.105 178.22 175.407 178.22 175.717 178.219C176.353 178.217 176.989 178.213 177.625 178.207C178.599 178.198 179.574 178.195 180.549 178.193C181.167 178.191 181.784 178.188 182.402 178.184C182.695 178.183 182.987 178.182 183.288 178.181C183.558 178.178 183.829 178.175 184.108 178.172C184.347 178.17 184.585 178.168 184.83 178.166C185.505 178.147 185.505 178.147 186.328 177.832C186.693 177.102 186.668 176.593 186.684 175.775C186.69 175.464 186.696 175.153 186.703 174.832C186.711 174.318 186.711 174.318 186.719 173.793C186.729 173.253 186.729 173.253 186.739 172.701C186.797 169.372 186.831 166.042 186.857 162.712C186.875 160.474 186.901 158.238 186.946 156.001C186.986 154.048 187.011 152.095 187.019 150.142C187.023 149.109 187.034 148.077 187.063 147.045C187.391 142.501 187.391 142.501 185.73 138.475C184.901 137.683 184.012 137.066 183.013 136.508C181.95 135.91 180.896 135.171 180.175 134.18C179.942 133.162 179.915 132.263 180.175 131.25C180.506 130.777 180.506 130.777 181.054 130.371C181.904 130.26 181.904 130.26 182.963 130.257C183.158 130.256 183.353 130.254 183.553 130.253C184.207 130.248 184.861 130.25 185.515 130.253C185.983 130.251 186.451 130.249 186.919 130.246C188.192 130.241 189.465 130.242 190.738 130.243C191.8 130.244 192.863 130.242 193.925 130.241C196.431 130.236 198.937 130.237 201.443 130.24C204.029 130.244 206.615 130.239 209.201 130.232C211.42 130.225 213.639 130.223 215.859 130.225C217.185 130.226 218.511 130.225 219.836 130.22C221.084 130.216 222.33 130.217 223.578 130.222C224.035 130.223 224.493 130.222 224.951 130.219C225.576 130.216 226.2 130.219 226.825 130.224C227.175 130.224 227.524 130.224 227.885 130.224C229 130.401 229.484 130.748 230.273 131.543C230.544 132.355 230.603 132.833 230.603 133.67C230.604 134.054 230.604 134.054 230.605 134.446C230.604 134.868 230.604 134.868 230.603 135.299C230.604 135.598 230.604 135.897 230.605 136.204C230.606 137.211 230.605 138.218 230.604 139.224C230.604 139.944 230.605 140.664 230.606 141.384C230.607 143.14 230.607 144.896 230.606 146.653C230.605 148.082 230.605 149.511 230.605 150.941C230.605 151.144 230.605 151.348 230.605 151.557C230.606 151.97 230.606 152.384 230.606 152.797C230.607 156.677 230.606 160.557 230.604 164.437C230.603 167.759 230.603 171.08 230.604 174.402C230.606 178.262 230.606 182.122 230.606 185.982C230.605 186.395 230.605 186.808 230.605 187.221C230.605 187.424 230.605 187.627 230.605 187.837C230.605 189.261 230.605 190.685 230.606 192.108C230.607 194.032 230.606 195.956 230.605 197.88C230.604 198.584 230.604 199.287 230.605 199.99C230.607 202.077 230.596 204.163 230.566 206.25C230.564 206.496 230.561 206.742 230.559 206.996C230.55 207.656 230.532 208.316 230.509 208.976C230.494 209.51 230.494 209.51 230.479 210.054C230.208 211.217 229.799 211.467 228.808 212.109C227.957 212.256 227.957 212.256 226.999 212.257C226.632 212.26 226.266 212.263 225.889 212.266C225.483 212.263 225.077 212.261 224.671 212.258C224.24 212.259 223.808 212.261 223.376 212.264C222.19 212.268 221.004 212.266 219.817 212.262C218.538 212.26 217.259 212.264 215.979 212.267C213.473 212.272 210.967 212.271 208.46 212.268C206.424 212.265 204.387 212.265 202.351 212.266C202.061 212.266 201.771 212.266 201.473 212.267C200.885 212.267 200.296 212.267 199.708 212.268C194.188 212.271 188.668 212.267 183.148 212.261C178.41 212.256 173.672 212.257 168.934 212.262C163.434 212.268 157.935 212.271 152.435 212.267C151.849 212.267 151.262 212.266 150.676 212.266C150.388 212.266 150.099 212.266 149.802 212.265C147.767 212.264 145.733 212.266 143.698 212.269C141.219 212.272 138.74 212.271 136.262 212.265C134.996 212.262 133.731 212.261 132.466 212.265C131.308 212.268 130.151 212.266 128.993 212.26C128.574 212.259 128.155 212.259 127.735 212.262C127.166 212.266 126.597 212.261 126.028 212.257C125.712 212.256 125.395 212.256 125.069 212.256C124.011 212.073 123.52 211.675 122.754 210.937C122.254 209.938 122.421 208.795 122.423 207.695C122.423 207.416 122.422 207.137 122.422 206.85C122.421 205.909 122.422 204.969 122.423 204.028C122.422 203.356 122.422 202.684 122.421 202.011C122.42 200.178 122.42 198.345 122.421 196.511C122.422 194.587 122.421 192.663 122.421 190.739C122.42 187.29 122.421 183.841 122.423 180.392C122.424 177.284 122.424 174.176 122.422 171.068C122.421 167.45 122.42 163.832 122.421 160.214C122.422 158.303 122.422 156.392 122.421 154.48C122.419 149.862 122.425 145.243 122.461 140.625C122.462 140.363 122.464 140.102 122.466 139.832C122.477 138.466 122.494 137.099 122.524 135.733C122.536 135.173 122.542 134.613 122.548 134.053C122.558 133.731 122.567 133.409 122.576 133.077C122.582 132.805 122.588 132.534 122.594 132.254C123.021 130.352 124.299 130.224 126.04 130.224Z" fill="black"/>
<path d="M94.7449 133.278C97.8638 133.258 100.983 133.244 104.102 133.234C105.331 133.23 106.56 133.224 107.789 133.217C109.249 133.209 110.708 133.206 112.168 133.206C112.709 133.205 113.251 133.203 113.792 133.199C114.535 133.194 115.278 133.194 116.022 133.196C116.239 133.193 116.456 133.191 116.679 133.188C117.972 133.198 118.796 133.382 119.824 134.18C120.165 134.862 120.155 135.258 120.157 136.018C120.159 136.283 120.16 136.548 120.162 136.82C120.162 137.113 120.162 137.405 120.162 137.707C120.164 138.171 120.164 138.171 120.166 138.644C120.17 139.687 120.172 140.731 120.174 141.774C120.176 142.519 120.178 143.265 120.181 144.01C120.188 146.251 120.192 148.493 120.196 150.734C120.197 151.367 120.198 152 120.199 152.633C120.207 156.561 120.213 160.489 120.217 164.418C120.218 165.328 120.219 166.238 120.22 167.148C120.22 167.374 120.22 167.601 120.22 167.834C120.224 171.499 120.234 175.165 120.246 178.831C120.258 182.593 120.265 186.355 120.267 190.116C120.268 192.229 120.271 194.342 120.281 196.455C120.29 198.442 120.292 200.429 120.288 202.416C120.288 203.146 120.29 203.876 120.296 204.606C120.302 205.602 120.3 206.596 120.295 207.591C120.299 207.882 120.303 208.173 120.307 208.472C120.292 209.782 120.248 210.451 119.497 211.556C118.471 212.228 117.895 212.293 116.673 212.295C116.38 212.299 116.38 212.299 116.081 212.302C115.429 212.308 114.778 212.303 114.125 212.299C113.657 212.301 113.189 212.303 112.721 212.307C111.45 212.313 110.18 212.311 108.909 212.306C107.579 212.302 106.249 212.306 104.919 212.308C102.686 212.311 100.453 212.307 98.2195 212.3C95.6378 212.292 93.0563 212.295 90.4746 212.303C88.2577 212.309 86.0408 212.31 83.8239 212.307C82.5 212.304 81.1761 212.304 79.8522 212.309C78.6075 212.313 77.363 212.31 76.1183 212.302C75.6616 212.3 75.2049 212.3 74.7482 212.304C74.1244 212.308 73.5013 212.303 72.8775 212.295C72.5286 212.295 72.1797 212.294 71.8202 212.294C70.5584 212.041 70.1582 211.71 69.4334 210.644C69.2241 209.627 69.2383 208.631 69.2514 207.595C69.2495 207.285 69.2476 206.975 69.2457 206.655C69.2412 205.614 69.2472 204.573 69.2532 203.531C69.2522 202.785 69.2505 202.039 69.2483 201.294C69.2445 199.477 69.2476 197.661 69.2539 195.844C69.2609 193.729 69.2604 191.614 69.2596 189.499C69.2586 185.726 69.2647 181.953 69.2747 178.179C69.2843 174.517 69.2885 170.855 69.2867 167.192C69.2847 163.205 69.2854 159.217 69.2912 155.23C69.2915 155.019 69.2918 154.808 69.2921 154.591C69.2927 154.168 69.2933 153.745 69.2939 153.321C69.296 151.846 69.2962 150.372 69.2957 148.897C69.2953 146.913 69.2996 144.929 69.3072 142.945C69.3093 142.215 69.3099 141.486 69.309 140.757C69.3079 139.763 69.3122 138.77 69.3179 137.777C69.3163 137.486 69.3148 137.196 69.3132 136.896C69.3158 136.63 69.3185 136.364 69.3212 136.091C69.3217 135.861 69.3221 135.632 69.3226 135.396C69.4637 134.594 69.7614 134.186 70.3123 133.594C71.0244 133.442 71.0244 133.442 71.8892 133.434C72.3834 133.425 72.3834 133.425 72.8875 133.416C73.4335 133.416 73.4335 133.416 73.9905 133.415C74.3812 133.411 74.772 133.406 75.1627 133.4C76.2374 133.387 77.3121 133.381 78.3869 133.377C79.2935 133.373 80.2 133.365 81.1066 133.356C83.6062 133.334 86.1058 133.321 88.6054 133.311C90.6519 133.303 92.6984 133.291 94.7449 133.278Z" fill="black"/>
<path d="M98.4375 108.105C105.1 108.044 111.762 107.997 118.424 107.969C121.518 107.955 124.611 107.937 127.705 107.906C130.402 107.88 133.1 107.863 135.797 107.857C137.225 107.854 138.652 107.846 140.079 107.827C141.425 107.809 142.77 107.803 144.116 107.807C144.608 107.806 145.1 107.801 145.591 107.791C149.064 107.723 150.914 108.348 153.516 110.742C154.03 111.14 154.548 111.535 155.071 111.922C155.572 112.304 156.073 112.686 156.573 113.068C156.974 113.373 156.974 113.373 157.383 113.685C160.532 116.087 163.668 118.504 166.792 120.939C167.826 121.744 168.861 122.548 169.902 123.343C170.077 123.477 170.252 123.61 170.432 123.748C170.896 124.102 171.36 124.455 171.825 124.808C173.019 125.756 173.019 125.756 173.438 126.269C173.314 127.565 173.314 127.565 172.852 128.027C172.211 128.061 171.57 128.075 170.929 128.08C170.726 128.082 170.522 128.084 170.313 128.087C169.626 128.093 168.94 128.098 168.253 128.102C167.763 128.107 167.272 128.111 166.782 128.115C162.293 128.154 157.804 128.173 153.314 128.188C149.997 128.199 146.68 128.219 143.363 128.251C141.03 128.272 138.697 128.283 136.364 128.287C134.972 128.29 133.579 128.297 132.187 128.315C130.874 128.332 129.561 128.336 128.248 128.331C127.769 128.331 127.289 128.336 126.81 128.345C123.272 128.413 121.375 127.692 118.652 125.391C118.207 125.052 117.761 124.714 117.312 124.38C116.91 124.065 116.508 123.749 116.107 123.431C115.654 123.076 115.202 122.721 114.749 122.366C114.522 122.187 114.295 122.009 114.062 121.825C112.958 120.959 111.85 120.099 110.742 119.238C109.416 118.207 108.09 117.176 106.767 116.141C103.917 113.917 101.045 111.728 98.1445 109.57C98.2412 109.087 98.3379 108.603 98.4375 108.105Z" fill="black"/>
<path d="M157.031 108.105C157.839 107.99 157.839 107.99 158.891 107.982C159.181 107.978 159.181 107.978 159.476 107.974C160.126 107.966 160.776 107.965 161.426 107.964C161.89 107.96 162.355 107.955 162.82 107.951C164.086 107.939 165.352 107.933 166.618 107.929C167.409 107.927 168.201 107.923 168.993 107.919C171.471 107.907 173.95 107.899 176.429 107.895C179.286 107.892 182.143 107.876 185 107.851C187.21 107.832 189.421 107.823 191.631 107.822C192.95 107.821 194.269 107.816 195.588 107.8C196.831 107.785 198.074 107.783 199.317 107.791C199.771 107.792 200.225 107.788 200.679 107.779C204.071 107.718 205.836 108.486 208.301 110.742C208.645 111.012 208.992 111.278 209.343 111.537C209.761 111.86 209.761 111.86 210.187 112.189C210.509 112.437 210.831 112.685 211.153 112.934C211.312 113.057 211.471 113.179 211.635 113.306C212.396 113.893 213.159 114.478 213.922 115.063C215.44 116.23 216.952 117.404 218.463 118.579C218.684 118.751 218.905 118.922 219.132 119.099C220.298 120.007 221.464 120.916 222.629 121.826C222.981 122.1 222.981 122.1 223.34 122.38C223.786 122.729 224.232 123.077 224.677 123.426C225.935 124.407 227.211 125.351 228.516 126.269C228.259 127.698 228.259 127.698 227.93 128.027C227.322 128.061 226.714 128.075 226.105 128.08C225.816 128.083 225.816 128.083 225.521 128.087C224.87 128.093 224.219 128.098 223.569 128.102C223.104 128.107 222.639 128.111 222.174 128.115C217.919 128.154 213.664 128.173 209.409 128.188C206.264 128.199 203.12 128.219 199.976 128.251C197.765 128.272 195.554 128.283 193.342 128.287C192.022 128.29 190.702 128.297 189.382 128.315C188.138 128.332 186.894 128.336 185.649 128.331C185.195 128.331 184.74 128.336 184.286 128.346C180.881 128.414 179.137 127.645 176.66 125.391C176.231 125.057 175.798 124.727 175.361 124.403C174.97 124.104 174.579 123.804 174.188 123.505C173.976 123.342 173.764 123.18 173.546 123.012C172.923 122.536 172.302 122.059 171.68 121.582C171.512 121.453 171.344 121.324 171.17 121.192C166.964 117.968 162.768 114.728 158.65 111.392C158.228 111.055 157.798 110.73 157.367 110.406C156.738 109.863 156.738 109.863 156.445 108.984C156.639 108.694 156.832 108.404 157.031 108.105Z" fill="black"/>
<path d="M97.7784 112.317C98.8207 112.838 99.5285 113.447 100.382 114.229C101.309 115.053 102.291 115.796 103.277 116.547C103.443 116.674 103.61 116.802 103.782 116.932C103.957 117.066 104.133 117.2 104.314 117.338C105.387 118.16 106.453 118.993 107.52 119.824C109.054 121.019 110.591 122.211 112.134 123.395C113.493 124.439 114.848 125.489 116.199 126.544C116.372 126.679 116.546 126.815 116.725 126.954C118.917 128.672 118.917 128.672 119.037 129.657C118.945 130.371 118.945 130.371 118.359 130.957C117.472 131.036 117.472 131.036 116.317 131.042C116.002 131.045 116.002 131.045 115.68 131.048C114.984 131.054 114.287 131.055 113.591 131.056C113.108 131.058 112.624 131.059 112.141 131.062C111.128 131.065 110.114 131.066 109.101 131.066C107.801 131.066 106.501 131.074 105.202 131.084C104.204 131.09 103.206 131.092 102.208 131.091C101.728 131.092 101.249 131.094 100.77 131.099C100.1 131.105 99.4303 131.103 98.7603 131.1C98.1882 131.101 98.1882 131.101 97.6045 131.102C96.6797 130.957 96.6797 130.957 96.1176 130.466C95.7323 129.638 95.6874 129.046 95.6824 128.133C95.6787 127.802 95.675 127.47 95.6712 127.129C95.672 126.773 95.6729 126.416 95.6738 126.049C95.6723 125.682 95.6707 125.315 95.6691 124.937C95.6673 124.161 95.6672 123.386 95.6701 122.611C95.6735 121.617 95.6676 120.623 95.659 119.63C95.6524 118.681 95.6544 117.732 95.6555 116.784C95.6522 116.427 95.6489 116.07 95.6455 115.702C95.6483 115.371 95.651 115.041 95.6538 114.7C95.6539 114.263 95.6539 114.263 95.654 113.818C95.8008 113.086 95.8008 113.086 96.3456 112.539C96.9727 112.207 96.9727 112.207 97.7784 112.317Z" fill="black"/>
<path d="M141.218 84.0532C141.436 84.0536 141.655 84.0541 141.88 84.0545C142.572 84.0561 143.265 84.0598 143.957 84.0635C144.429 84.065 144.901 84.0663 145.373 84.0675C146.525 84.0707 147.676 84.0758 148.828 84.0818C148.973 84.6619 148.973 84.6619 149.121 85.2537C148.908 85.3145 148.695 85.3753 148.475 85.438C142.371 87.3085 138.522 91.1678 135.571 96.6978C134.594 98.6415 134.016 100.692 133.498 102.798C133.205 103.718 132.81 104.585 132.422 105.469C131.097 105.483 129.773 105.494 128.448 105.501C127.998 105.504 127.547 105.508 127.096 105.513C126.449 105.52 125.802 105.523 125.155 105.526C124.953 105.529 124.751 105.532 124.542 105.535C124.043 105.535 123.544 105.504 123.047 105.469C122.461 104.883 122.461 104.883 122.416 104.349C122.98 98.3007 125.993 92.2258 130.39 88.0621C133.643 85.3946 137.02 84.0228 141.218 84.0532Z" fill="black"/>
<path d="M92.5095 112.544C93.1641 112.793 93.1641 112.793 93.457 113.379C93.4881 113.896 93.5006 114.414 93.5042 114.933C93.5071 115.257 93.5099 115.582 93.5128 115.916C93.514 116.269 93.5153 116.621 93.5165 116.984C93.5182 117.344 93.5199 117.705 93.5216 118.076C93.5244 118.84 93.5263 119.604 93.5274 120.368C93.5287 121.152 93.5328 121.935 93.5394 122.719C93.5483 123.847 93.5514 124.974 93.5532 126.102C93.5568 126.453 93.5604 126.804 93.5641 127.166C93.5632 127.492 93.5624 127.819 93.5615 128.155C93.5631 128.586 93.5631 128.586 93.5647 129.025C93.4336 129.95 93.2798 130.335 92.5781 130.957C91.6978 131.102 91.6978 131.102 90.6051 131.099C90.4059 131.1 90.2067 131.101 90.0014 131.102C89.3431 131.105 88.6851 131.098 88.0268 131.092C87.5697 131.091 87.1125 131.091 86.6554 131.091C85.6976 131.09 84.7399 131.085 83.7821 131.077C82.5529 131.067 81.3238 131.065 80.0946 131.066C79.1508 131.065 78.2071 131.062 77.2634 131.058C76.81 131.056 76.3567 131.055 75.9034 131.055C75.2707 131.053 74.6381 131.048 74.0054 131.042C73.6451 131.04 73.2847 131.037 72.9134 131.035C72.0703 130.957 72.0703 130.957 71.4844 130.371C71.5146 129.368 71.7243 128.965 72.3976 128.215C72.6642 127.984 72.9309 127.753 73.2056 127.514C73.3509 127.387 73.4963 127.26 73.646 127.129C74.9865 125.965 76.3623 124.842 77.7443 123.727C78.702 122.951 79.6518 122.165 80.603 121.38C80.8141 121.207 81.0251 121.033 81.2425 120.854C82.3325 119.957 83.4209 119.058 84.5066 118.155C85.7268 117.142 86.9534 116.137 88.1836 115.136C88.3603 114.991 88.537 114.846 88.719 114.697C89.196 114.307 89.6774 113.924 90.1611 113.543C90.4255 113.332 90.6898 113.121 90.9622 112.904C91.6992 112.5 91.6992 112.5 92.5095 112.544Z" fill="black"/>
<path d="M158.203 85.8401C158.403 85.847 158.603 85.8539 158.809 85.8611C163.478 86.0684 167.316 87.6651 170.801 90.8205C170.998 90.9905 171.194 91.1604 171.397 91.3355C174.831 94.4983 177.152 99.3997 177.832 104.004C177.663 105.052 177.663 105.052 177.246 105.469C176.557 105.502 175.877 105.517 175.187 105.518C174.878 105.52 174.878 105.52 174.562 105.521C174.125 105.523 173.688 105.523 173.251 105.523C172.581 105.524 171.911 105.529 171.241 105.535C170.817 105.536 170.393 105.536 169.969 105.536C169.768 105.539 169.567 105.541 169.359 105.543C167.938 105.536 167.938 105.536 167.285 104.883C167.062 104.189 166.859 103.497 166.663 102.796C164.779 96.4811 161.272 91.2905 155.566 87.8908C155.292 87.7443 155.018 87.5978 154.736 87.4468C154.526 87.3033 154.317 87.1598 154.102 87.0119C154.102 86.7219 154.102 86.4319 154.102 86.133C155.325 85.5214 156.868 85.7912 158.203 85.8401Z" fill="black"/>
<path d="M179.882 136.523C180.596 136.999 180.596 136.999 181.054 137.695C181.266 138.986 181.207 139.529 180.45 140.607C179.589 141.211 179.589 141.211 178.564 141.394C177.258 141.161 176.833 140.828 176.074 139.746C175.909 138.702 175.909 138.702 176.074 137.695C177.249 136.206 178.059 136.115 179.882 136.523Z" fill="black"/>
<path d="M118.359 211.23C118.649 211.424 118.939 211.617 119.238 211.816C118.404 212.233 117.702 212.145 116.769 212.145C116.476 212.145 116.476 212.145 116.177 212.145C115.518 212.146 114.86 212.144 114.202 212.143C113.732 212.143 113.261 212.143 112.79 212.143C111.51 212.143 110.23 212.141 108.95 212.139C107.613 212.137 106.276 212.137 104.94 212.137C102.407 212.136 99.8741 212.133 97.3414 212.13C94.4585 212.127 91.5756 212.126 88.6927 212.124C82.7613 212.121 76.8299 212.116 70.8984 212.109C70.8984 212.013 70.8984 211.916 70.8984 211.816C71.1413 211.815 71.3841 211.814 71.6343 211.813C77.5339 211.782 83.4335 211.751 89.3331 211.717C92.186 211.701 95.039 211.685 97.892 211.671C100.378 211.658 102.863 211.645 105.349 211.63C106.666 211.622 107.983 211.615 109.3 211.609C110.538 211.603 111.776 211.596 113.015 211.588C113.47 211.585 113.926 211.583 114.382 211.581C115.001 211.579 115.621 211.574 116.24 211.57C116.588 211.568 116.936 211.566 117.294 211.564C118.044 211.611 118.044 211.611 118.359 211.23Z" fill="black"/>
<path d="M131.543 87.3047C131.543 87.5947 131.543 87.8848 131.543 88.1836C130.848 88.8788 130.095 89.4848 129.334 90.1062C129.193 90.2452 129.052 90.3842 128.906 90.5273C128.906 90.7207 128.906 90.9141 128.906 91.1133C128.423 91.3066 127.939 91.5 127.441 91.6992C128.622 89.9769 129.923 88.6204 131.543 87.3047Z" fill="black"/>
<path d="M149.121 84.375C149.121 84.665 149.121 84.9551 149.121 85.2539C148.638 85.3506 148.154 85.4473 147.656 85.5469C147.56 85.2568 147.463 84.9668 147.363 84.668C147.949 84.375 147.949 84.375 149.121 84.375Z" fill="black"/>
<path d="M98.4375 108.398C98.7275 108.398 99.0176 108.398 99.3164 108.398C99.2197 108.979 99.123 109.559 99.0234 110.156C98.7334 109.963 98.4434 109.77 98.1445 109.57C98.2412 109.184 98.3379 108.797 98.4375 108.398Z" fill="black"/>
</svg>
