<svg width="300" height="300" viewBox="0 0 300 300" fill="none" xmlns="http://www.w3.org/2000/svg">
<path d="M98.1443 84.9609L71.9236 85.1074L70.0193 85.7812C66.6209 87.0117 64.6873 88.2129 62.0799 90.8203C58.5935 94.248 56.8357 97.6172 55.9568 102.539C55.7517 103.682 55.6346 119.268 55.6346 150.352C55.6053 196.318 55.6053 196.436 56.2205 199.014C58.0662 206.777 63.8377 212.578 71.3963 214.365C73.5642 214.863 77.1385 214.893 150.293 214.893C222.92 214.893 226.992 214.863 228.808 214.365C236.367 212.285 241.904 206.572 243.75 198.926C244.336 196.465 244.336 195.674 244.336 150.205C244.336 100.312 244.394 102.012 242.842 98.0273C240.527 92.1387 235.078 87.1875 229.101 85.5762C226.933 84.9902 226.084 84.9609 175.635 84.9023C147.451 84.8438 112.558 84.873 98.1443 84.9609ZM227.431 94.0723C229.306 94.7168 231.211 95.918 231.914 96.9434C232.295 97.5 232.031 97.7344 226.992 101.25C224.033 103.301 220.107 106.084 218.262 107.373C216.416 108.691 210.088 113.174 204.199 117.334C198.31 121.494 188.554 128.408 182.519 132.715C155.683 151.787 152.314 154.072 151.201 154.16C149.502 154.248 148.037 154.043 147.129 153.574C146.601 153.311 136.933 146.484 125.595 138.398C103.271 122.461 88.0662 111.65 75.8201 103.008C69.2576 98.3496 68.0271 97.3828 68.2615 96.9727C68.7303 96.123 71.5721 94.3652 73.242 93.9258C74.6482 93.5449 85.0779 93.4863 150.234 93.4863L225.615 93.457L227.431 94.0723ZM75.7322 113.818C81.0642 117.568 89.824 123.779 95.2439 127.617C100.664 131.455 109.658 137.842 115.224 141.797C120.791 145.752 125.361 149.062 125.39 149.209C125.39 149.355 92.1092 177.188 67.5877 197.52C66.6502 198.281 65.7713 198.926 65.6541 198.926C65.5369 198.926 65.2439 198.428 65.0096 197.812C64.6873 196.904 64.5994 189.463 64.5115 151.348L64.4529 105.967L65.2439 106.494C65.7127 106.787 70.4295 110.068 75.7322 113.818ZM235.488 151.816C235.4 190.459 235.342 197.432 234.99 198.135C234.756 198.574 234.463 198.896 234.345 198.867C234.228 198.809 227.314 193.096 218.965 186.182C181.172 154.775 175.312 149.912 174.961 149.561C174.609 149.268 175.078 148.828 177.597 147.07C179.238 145.898 181.933 143.994 183.545 142.822C185.156 141.68 189.697 138.428 193.652 135.645C197.607 132.861 204.463 127.998 208.887 124.834C221.894 115.576 235.078 106.348 235.342 106.348C235.459 106.348 235.517 126.826 235.488 151.816ZM137.519 157.617C145.195 162.979 148.594 164.033 153.398 162.568C155.947 161.807 157.646 160.869 162.744 157.383C166.553 154.805 166.875 154.629 167.461 155.01C167.812 155.244 170.801 157.676 174.082 160.4C177.334 163.154 187.881 171.914 197.461 179.883C224.355 202.236 227.783 205.107 227.871 205.371C228.193 206.25 224.765 206.279 149.912 206.25C99.6092 206.25 73.8865 206.133 73.1541 205.928C72.5389 205.781 72.1287 205.518 72.2459 205.342C72.3924 205.078 82.2947 196.816 98.2908 183.574C107.138 176.221 129.902 157.266 131.396 155.947C132.187 155.244 132.949 154.688 133.095 154.688C133.242 154.688 135.234 156.006 137.519 157.617Z" fill="black"/>
</svg>
