<svg width="300" height="300" viewBox="0 0 300 300" fill="none" xmlns="http://www.w3.org/2000/svg">
<path d="M52.4411 129.492C53.3992 130.646 53.4433 131.75 53.4244 133.19C53.4253 133.519 53.4253 133.519 53.4262 133.856C53.4271 134.579 53.4217 135.301 53.4161 136.025C53.4152 136.528 53.4147 137.03 53.4144 137.533C53.4131 138.586 53.4089 139.638 53.4024 140.69C53.3941 142.041 53.3909 143.392 53.3896 144.744C53.3884 145.781 53.3855 146.819 53.382 147.856C53.3803 148.355 53.3789 148.853 53.3778 149.352C53.3758 150.046 53.3718 150.74 53.3672 151.435C53.3667 151.746 53.3667 151.746 53.3662 152.064C53.3536 153.482 53.3536 153.482 53.027 153.809C52.285 153.83 51.5531 153.836 50.8114 153.827C50.0924 153.821 49.3733 153.815 48.6325 153.809C48.7292 155.549 48.8258 157.289 48.9255 159.082C72.9987 159.227 72.9987 159.227 97.5583 159.375C97.5583 157.635 97.5583 155.895 97.5583 154.102C96.6881 154.102 95.818 154.102 94.9215 154.102C94.1999 153.38 94.2624 152.969 94.2497 151.984C94.2501 151.664 94.2501 151.664 94.2505 151.339C94.2485 151.114 94.2466 150.89 94.2445 150.658C94.2389 149.914 94.2378 149.171 94.2372 148.426C94.2353 147.911 94.2333 147.395 94.2313 146.879C94.2278 145.796 94.2267 144.714 94.227 143.631C94.2271 142.243 94.2191 140.854 94.209 139.466C94.2025 138.4 94.2013 137.334 94.2016 136.268C94.2009 135.756 94.1983 135.244 94.1938 134.732C94.1881 134.017 94.1897 133.302 94.1933 132.586C94.19 132.374 94.1867 132.162 94.1833 131.943C94.1952 130.996 94.2171 130.499 94.8744 129.791C95.7792 129.364 96.3204 129.504 97.2653 129.785C97.7523 130.135 97.7523 130.135 98.1442 130.664C98.2499 131.426 98.2499 131.426 98.244 132.351C98.2439 132.697 98.2438 133.043 98.2438 133.399C98.2392 133.773 98.2347 134.146 98.23 134.531C98.2288 134.913 98.2275 135.296 98.2263 135.69C98.2229 136.706 98.2143 137.721 98.2046 138.737C98.1956 139.774 98.1915 140.811 98.1871 141.848C98.1777 143.882 98.1627 145.915 98.1442 147.949C100.804 147.846 103.464 147.742 106.123 147.636C107.36 147.587 108.596 147.538 109.832 147.49C114.933 147.292 120.031 147.078 125.127 146.779C125.511 146.757 125.895 146.735 126.29 146.712C132.644 146.321 138.629 145.044 144.726 143.262C145.255 143.111 145.783 142.961 146.311 142.811C150.627 141.568 154.86 140.115 158.919 138.183C165.688 135.014 172.527 132.57 179.882 131.195C180.241 131.127 180.241 131.127 180.607 131.058C185.138 130.253 189.7 129.978 194.293 129.895C194.555 129.89 194.817 129.884 195.087 129.879C201.357 129.751 207.626 129.735 213.896 129.778C214.707 129.783 215.517 129.788 216.328 129.793C219.228 129.81 222.129 129.833 225.03 129.863C225.999 129.872 226.969 129.88 227.938 129.887C246.705 130.014 246.705 130.014 253.418 136.231C257.385 140.304 258.545 145.707 258.502 151.222C258.41 154.843 257.681 158.168 256.054 161.426C255.924 161.697 255.793 161.967 255.658 162.246C253.482 166.191 249.1 168.55 244.91 169.808C241.91 170.658 238.949 171.105 235.842 171.256C235.589 171.269 235.337 171.281 235.077 171.294C231.902 171.435 228.727 171.429 225.55 171.426C224.883 171.426 224.215 171.426 223.548 171.427C222.156 171.427 220.765 171.426 219.374 171.425C217.617 171.423 215.86 171.424 214.103 171.426C196.289 171.441 179.198 171.326 162.568 164.166C145.865 156.995 129.553 153.016 111.328 155.859C110.995 155.911 110.663 155.963 110.321 156.016C108.995 156.224 107.671 156.434 106.348 156.659C106.062 156.708 105.776 156.756 105.481 156.806C105.23 156.849 104.98 156.893 104.721 156.938C103.986 157.034 103.28 157.048 102.539 157.031C102.546 157.403 102.552 157.774 102.559 158.156C102.565 158.654 102.57 159.152 102.575 159.65C102.583 160.015 102.583 160.015 102.59 160.387C102.606 162.421 102.564 164.437 101.294 166.095C98.6826 168.053 94.9355 167.621 91.8298 167.616C91.4036 167.616 90.9774 167.617 90.5511 167.618C89.3997 167.619 88.2484 167.618 87.097 167.618C85.8861 167.617 84.6753 167.617 83.4645 167.618C81.4298 167.618 79.3951 167.618 77.3604 167.616C75.0185 167.615 72.6765 167.615 70.3346 167.617C68.3154 167.618 66.2962 167.618 64.2771 167.618C63.0749 167.617 61.8728 167.617 60.6706 167.618C59.538 167.619 58.4054 167.618 57.2728 167.617C56.8608 167.616 56.4488 167.616 56.0368 167.617C48.3909 167.628 48.3909 167.628 45.7028 166.699C44.4569 165.453 44.2052 164.405 44.1907 162.693C44.1879 162.423 44.1851 162.154 44.1822 161.875C44.181 161.586 44.1797 161.296 44.1784 160.998C44.1768 160.698 44.1751 160.398 44.1734 160.089C44.1706 159.455 44.1687 158.822 44.1676 158.188C44.1647 157.22 44.1556 156.253 44.1464 155.285C44.1445 154.668 44.1429 154.052 44.1418 153.436C44.1382 153.147 44.1346 152.859 44.1309 152.562C44.1359 151.001 44.2216 149.876 45.1169 148.535C45.7177 148.171 45.7177 148.171 46.3803 147.986C46.7049 147.887 46.7049 147.887 47.036 147.787C47.8715 147.635 48.6637 147.648 49.5114 147.656C49.5064 147.45 49.5014 147.243 49.4963 147.03C49.45 145.082 49.4066 143.134 49.3664 141.185C49.3457 140.183 49.3238 139.182 49.2994 138.18C49.2713 137.028 49.2482 135.876 49.2253 134.724C49.2159 134.365 49.2064 134.006 49.1967 133.636C49.1908 133.302 49.1849 132.967 49.1788 132.623C49.1723 132.329 49.1658 132.035 49.1591 131.732C49.2209 130.924 49.3633 130.46 49.8044 129.785C50.7181 129.328 51.4369 129.387 52.4411 129.492ZM165.898 142.164C160.143 144.861 153.926 146.119 147.771 147.572C146.579 147.854 145.392 148.151 144.206 148.456C142.262 148.956 140.348 149.364 138.354 149.597C138.072 149.632 137.79 149.666 137.5 149.702C132.995 150.212 128.452 150.375 123.925 150.586C123.925 150.683 123.925 150.779 123.925 150.879C124.298 150.91 124.298 150.91 124.677 150.941C143.292 152.494 143.292 152.494 152.05 154.395C152.326 154.454 152.602 154.513 152.886 154.575C159.329 156.009 165.544 158.459 171.643 160.95C180.789 164.68 189.835 165.306 199.636 165.411C200.271 165.418 200.907 165.425 201.543 165.434C209.118 165.529 216.695 165.566 224.271 165.58C225.104 165.582 225.938 165.585 226.772 165.589C228.096 165.593 229.42 165.595 230.744 165.595C231.23 165.595 231.717 165.596 232.203 165.598C237.69 165.622 244.296 165.399 248.73 161.719C248.827 161.429 248.923 161.139 249.023 160.84C249.458 160.695 249.458 160.695 249.902 160.547C250.117 159.957 250.117 159.957 250.195 159.375C250.388 159.375 250.582 159.375 250.781 159.375C253 154.841 254.034 150.238 252.649 145.258C251.483 142.041 249.182 139.816 246.203 138.208C243.169 136.798 239.881 136.393 236.57 136.187C236.036 136.152 236.036 136.152 235.492 136.117C230.065 135.8 224.624 135.802 219.189 135.762C217.703 135.75 216.218 135.735 214.732 135.72C189.688 135.1 189.688 135.1 165.898 142.164Z" fill="black"/>
<path d="M223.415 143.777C224.956 143.775 226.496 143.771 228.036 143.765C229.932 143.757 231.828 143.753 233.724 143.752C234.437 143.751 235.15 143.749 235.863 143.745C236.849 143.74 237.834 143.741 238.82 143.743C239.108 143.74 239.397 143.737 239.694 143.734C241.443 143.745 242.746 143.977 244.336 144.726C245.862 146.33 245.862 147.463 245.874 149.578C245.883 149.96 245.883 149.96 245.892 150.35C245.905 152.395 245.637 154.311 244.391 155.987C242.346 157.448 239.612 157.369 237.189 157.362C236.956 157.362 236.722 157.363 236.481 157.363C235.711 157.363 234.94 157.361 234.17 157.359C233.902 157.359 233.633 157.358 233.356 157.358C227.25 157.348 221.148 157.219 215.044 157.069C213.659 157.035 212.275 157.004 210.89 156.972C207.683 156.897 204.476 156.818 201.27 156.738C201.015 156.731 200.76 156.725 200.497 156.718C199.012 156.681 197.527 156.643 196.042 156.605C195.593 156.593 195.145 156.581 194.697 156.57C184.232 156.304 174.147 155.338 164.012 152.639C162.806 152.321 161.598 152.011 160.388 151.707C160.015 151.613 159.642 151.519 159.258 151.422C157.841 151.085 156.418 150.817 154.98 150.585C154.98 150.392 154.98 150.199 154.98 149.999C177.214 143.203 200.382 143.793 223.415 143.777Z" fill="black"/>
<path d="M80.8596 129.785C81.5658 130.844 81.5341 131.623 81.5353 132.847C81.5389 133.18 81.5389 133.18 81.5426 133.519C81.5497 134.252 81.5523 134.985 81.5542 135.717C81.5568 136.226 81.5595 136.735 81.5622 137.244C81.5671 138.311 81.5693 139.378 81.5702 140.445C81.5717 141.814 81.5828 143.182 81.5962 144.55C81.6049 145.601 81.607 146.652 81.6073 147.703C81.6085 148.208 81.6122 148.713 81.6183 149.217C81.6261 149.922 81.6248 150.627 81.6211 151.332C81.6254 151.541 81.6298 151.75 81.6343 151.966C81.6256 152.548 81.6256 152.548 81.4455 153.515C80.5756 154.25 80.1887 154.402 79.0468 154.358C78.2228 154.101 78.2228 154.101 77.6369 153.222C77.5553 152.641 77.5553 152.641 77.5435 151.97C77.5377 151.717 77.5319 151.464 77.5259 151.203C77.5225 150.929 77.5191 150.654 77.5156 150.372C77.5099 150.086 77.5042 149.8 77.4983 149.506C77.4805 148.578 77.467 147.65 77.4538 146.722C77.4431 146.089 77.4323 145.456 77.4214 144.823C77.396 143.298 77.3744 141.774 77.3546 140.249C77.3453 139.551 77.3347 138.854 77.3232 138.157C77.308 137.185 77.2969 136.213 77.289 135.241C77.2852 134.982 77.2814 134.722 77.2774 134.455C77.2753 132.899 77.3211 131.238 77.9299 129.785C79.0317 129.418 79.7329 129.539 80.8596 129.785Z" fill="black"/>
<path d="M69.1402 129.493C69.4303 129.686 69.7203 129.88 70.0191 130.079C70.4691 132.493 70.3655 134.98 70.3716 137.428C70.3724 137.651 70.3733 137.874 70.3741 138.103C70.3785 139.278 70.3812 140.453 70.3825 141.628C70.3841 142.841 70.3912 144.054 70.3995 145.266C70.4049 146.201 70.4065 147.136 70.4069 148.071C70.4078 148.518 70.4101 148.966 70.414 149.413C70.419 150.037 70.4184 150.66 70.4165 151.283C70.4176 151.637 70.4187 151.992 70.4198 152.357C70.3121 153.224 70.3121 153.224 69.9302 153.779C69.1005 154.319 68.3406 154.188 67.3824 154.102C67.0924 153.909 66.8023 153.716 66.5035 153.517C66.403 152.8 66.3602 152.155 66.3536 151.436C66.3483 151.221 66.3429 151.007 66.3375 150.785C66.3211 150.072 66.3113 149.359 66.3021 148.646C66.2932 148.15 66.2842 147.654 66.275 147.158C66.2521 145.84 66.236 144.522 66.221 143.204C66.2105 142.378 66.1966 141.553 66.1817 140.728C66.1575 139.378 66.1399 138.029 66.1273 136.68C66.1218 136.162 66.1144 135.645 66.1052 135.127C66.093 134.402 66.0884 133.677 66.0858 132.951C66.0807 132.737 66.0756 132.522 66.0703 132.3C66.0746 131.297 66.1415 130.758 66.7482 129.943C67.5974 129.341 68.1203 129.363 69.1402 129.493Z" fill="black"/>
<path d="M86.4258 129.785C87.1343 130.848 87.0945 131.625 87.0875 132.852C87.0885 133.074 87.0896 133.297 87.0906 133.525C87.0932 134.26 87.0915 134.994 87.0895 135.728C87.0899 136.238 87.0905 136.748 87.0912 137.257C87.0921 138.325 87.0908 139.393 87.0881 140.462C87.0847 141.833 87.0867 143.204 87.0902 144.575C87.0923 145.627 87.0916 146.679 87.0901 147.732C87.0897 148.237 87.0902 148.743 87.0916 149.249C87.093 149.954 87.0908 150.66 87.0875 151.365C87.0887 151.576 87.0899 151.786 87.0911 152.002C87.0786 153.449 87.0786 153.449 86.4258 154.102C84.2921 154.271 84.2921 154.271 83.6159 153.726C82.8962 152.849 83.0275 151.725 82.9982 150.634C82.9885 150.366 82.9787 150.097 82.9687 149.821C82.862 146.388 82.8949 142.953 82.9488 139.52C82.9653 138.375 82.9735 137.229 82.9817 136.084C82.992 135.354 83.0029 134.624 83.0143 133.894C83.0156 133.552 83.0168 133.211 83.0181 132.859C83.0249 132.545 83.0316 132.23 83.0385 131.906C83.042 131.63 83.0455 131.354 83.0491 131.069C83.2031 130.371 83.2031 130.371 83.7329 129.834C84.7058 129.316 85.3853 129.516 86.4258 129.785Z" fill="black"/>
<path d="M91.0034 129.528C91.9922 129.785 91.9922 129.785 92.5781 130.37C92.6347 131.119 92.655 131.835 92.6493 132.584C92.6498 132.812 92.6504 133.04 92.6509 133.275C92.652 134.032 92.6489 134.788 92.6456 135.544C92.6453 136.068 92.6451 136.592 92.6452 137.116C92.6447 138.215 92.6423 139.313 92.6384 140.412C92.6334 141.824 92.6323 143.235 92.6325 144.647C92.6324 145.729 92.6308 146.811 92.6287 147.892C92.6278 148.413 92.6272 148.934 92.627 149.454C92.6263 150.18 92.6238 150.906 92.6207 151.633C92.6208 151.85 92.6209 152.067 92.6211 152.291C92.6116 153.774 92.6116 153.774 92.2851 154.101C91.804 154.137 91.3211 154.152 90.8386 154.156C90.5761 154.16 90.3137 154.164 90.0432 154.168C89.3554 154.101 89.3554 154.101 88.7695 153.515C88.7084 152.789 88.6835 152.096 88.6844 151.369C88.6824 151.148 88.6804 150.927 88.6784 150.699C88.6728 149.966 88.6717 149.233 88.6711 148.5C88.6692 147.992 88.6672 147.483 88.6652 146.974C88.6617 145.907 88.6606 144.839 88.6609 143.772C88.661 142.404 88.653 141.036 88.6429 139.668C88.6364 138.617 88.6352 137.566 88.6355 136.515C88.6348 136.01 88.6322 135.506 88.6277 135.001C88.622 134.296 88.6236 133.591 88.6272 132.885C88.6239 132.676 88.6206 132.468 88.6172 132.253C88.6297 131.27 88.7139 130.74 89.298 129.936C89.9414 129.492 89.9414 129.492 91.0034 129.528Z" fill="black"/>
<path d="M74.7077 129.491C75.5866 130.077 75.5866 130.077 75.8795 130.956C75.9106 131.669 75.9256 132.373 75.9267 133.086C75.9282 133.302 75.9297 133.518 75.9311 133.74C75.9354 134.454 75.9374 135.168 75.939 135.882C75.9407 136.378 75.9424 136.873 75.9441 137.369C75.9472 138.409 75.9489 139.448 75.9499 140.487C75.9515 141.82 75.9586 143.153 75.9669 144.486C75.9723 145.51 75.9739 146.534 75.9743 147.558C75.9752 148.049 75.9776 148.541 75.9814 149.032C75.9864 149.719 75.9859 150.405 75.984 151.092C75.9867 151.296 75.9894 151.499 75.9921 151.709C75.9848 152.552 75.9724 153.094 75.4697 153.788C74.5687 154.389 73.7092 154.184 72.6569 154.101C71.9306 153.375 71.9987 152.952 71.9883 151.961C71.989 151.745 71.9897 151.529 71.9905 151.306C71.989 151.078 71.9875 150.851 71.9859 150.616C71.9819 149.861 71.9821 149.106 71.9828 148.351C71.9817 147.828 71.9804 147.305 71.979 146.782C71.9768 145.684 71.9769 144.587 71.9785 143.489C71.9802 142.08 71.9752 140.672 71.9684 139.263C71.9641 138.182 71.9638 137.101 71.9647 136.021C71.9646 135.501 71.963 134.981 71.9601 134.462C71.9565 133.737 71.9585 133.011 71.9619 132.286C71.9596 132.07 71.9574 131.854 71.9551 131.631C71.9613 131.034 71.9613 131.034 72.0709 130.077C73.0875 129.4 73.5138 129.392 74.7077 129.491Z" fill="black"/>
<path d="M58.0085 129.492C58.505 129.799 58.505 129.799 58.8874 130.371C58.9741 131.132 59.0075 131.824 59.0012 132.586C59.0027 132.811 59.0042 133.035 59.0058 133.267C59.0097 134.011 59.0071 134.755 59.0042 135.499C59.0048 136.015 59.0056 136.531 59.0067 137.047C59.008 138.129 59.0061 139.211 59.002 140.293C58.997 141.682 58.9999 143.071 59.0052 144.459C59.0083 145.525 59.0073 146.591 59.005 147.657C59.0045 148.169 59.0052 148.681 59.0072 149.194C59.0095 149.909 59.0061 150.623 59.0012 151.338C59.0038 151.657 59.0038 151.657 59.0066 151.983C58.999 152.572 58.999 152.572 58.8874 153.515C57.8654 154.196 57.4527 154.224 56.2507 154.101C55.6179 153.792 55.6179 153.792 55.0788 153.222C54.9622 152.454 54.9214 151.807 54.9319 151.039C54.9295 150.706 54.9295 150.706 54.9271 150.367C54.9234 149.634 54.9282 148.901 54.9335 148.168C54.9335 147.659 54.933 147.15 54.9322 146.641C54.9318 145.575 54.9355 144.508 54.9422 143.441C54.9505 142.072 54.9497 140.704 54.9459 139.336C54.9439 138.285 54.9462 137.234 54.9498 136.182C54.9511 135.678 54.9512 135.173 54.9501 134.669C54.9492 133.964 54.9541 133.259 54.9605 132.554C54.9592 132.345 54.9578 132.136 54.9565 131.92C54.9691 131.085 54.9883 130.505 55.4616 129.801C56.3051 129.275 57.0469 129.389 58.0085 129.492Z" fill="black"/>
<path d="M63.5735 129.492C64.06 129.8 64.06 129.8 64.4524 130.371C64.5376 131.133 64.5696 131.824 64.5615 132.586C64.5626 132.811 64.5637 133.036 64.5648 133.268C64.5671 134.012 64.5631 134.755 64.5589 135.499C64.5587 136.015 64.5589 136.532 64.5593 137.048C64.5593 138.13 64.5562 139.212 64.5509 140.294C64.5443 141.682 64.5441 143.071 64.5461 144.46C64.5471 145.526 64.5451 146.592 64.5423 147.658C64.5411 148.17 64.5408 148.682 64.5413 149.194C64.5414 149.909 64.5377 150.624 64.5329 151.338C64.534 151.658 64.534 151.658 64.5351 151.984C64.5195 153.449 64.5195 153.449 63.8665 154.102C62.2014 154.26 62.2014 154.26 61.5228 154.102C60.6623 153.261 60.5395 152.545 60.5215 151.362C60.5235 151.054 60.5235 151.054 60.5255 150.74C60.5235 150.521 60.5215 150.302 60.5194 150.077C60.514 149.355 60.5152 148.633 60.5168 147.911C60.5155 147.409 60.5139 146.907 60.5122 146.405C60.5095 145.354 60.5103 144.303 60.5132 143.251C60.5165 141.903 60.5106 140.555 60.5021 139.206C60.4967 138.17 60.4968 137.134 60.4984 136.098C60.4985 135.6 60.4967 135.103 60.4931 134.606C60.4887 133.911 60.4918 133.217 60.4969 132.523C60.494 132.317 60.4912 132.111 60.4883 131.899C60.5025 130.968 60.5285 130.492 61.1829 129.804C62.039 129.382 62.6316 129.372 63.5735 129.492Z" fill="black"/>
</svg>
