<svg width="300" height="300" viewBox="0 0 300 300" fill="none" xmlns="http://www.w3.org/2000/svg">
<path d="M151.464 77.051C152.37 77.5161 153.202 78.075 154.046 78.644C154.543 78.9673 155.042 79.2896 155.541 79.611C155.791 79.7725 156.042 79.934 156.299 80.1004C162.279 83.9151 168.802 86.5851 175.78 87.8908C176.15 87.9622 176.52 88.0336 176.902 88.1071C185.294 89.4658 194.146 88.1017 202.395 86.3949C202.954 86.2811 202.954 86.2811 203.524 86.165C203.853 86.0955 204.182 86.0259 204.52 85.9542C205.324 85.8463 205.792 85.8491 206.542 86.133C207.003 86.5944 206.872 87.0529 206.873 87.6939C206.874 87.9693 206.876 88.2447 206.877 88.5284C206.876 88.8346 206.876 89.1407 206.876 89.4562C206.877 89.9399 206.877 89.9399 206.879 90.4335C206.881 91.5235 206.882 92.6135 206.882 93.7036C206.883 94.4816 206.885 95.2596 206.886 96.0377C206.89 98.1596 206.892 100.282 206.893 102.403C206.894 103.73 206.896 105.057 206.897 106.384C206.9 110.061 206.903 113.738 206.904 117.416C206.904 117.651 206.905 117.887 206.905 118.13C206.905 118.366 206.905 118.602 206.905 118.846C206.905 119.324 206.905 119.803 206.905 120.281C206.905 120.519 206.905 120.756 206.905 121.001C206.907 124.834 206.912 128.667 206.918 132.5C206.925 136.441 206.929 140.381 206.929 144.322C206.93 146.532 206.931 148.743 206.937 150.953C206.941 152.838 206.943 154.724 206.94 156.61C206.939 157.569 206.94 158.529 206.944 159.488C206.984 170.813 204.898 181.258 196.886 189.78C196.279 190.417 196.279 190.417 195.772 191.117C194.161 193.028 192.093 194.507 190.099 195.996C189.847 196.185 189.596 196.373 189.336 196.567C186.941 198.345 184.482 200.022 182.009 201.69C180.616 202.63 179.238 203.592 177.868 204.566C176.109 205.814 174.339 207.044 172.559 208.261C171.17 209.214 169.793 210.182 168.419 211.157C166.243 212.701 164.041 214.206 161.833 215.705C159.709 217.149 157.601 218.615 155.502 220.095C155.059 220.407 154.615 220.717 154.171 221.026C153.718 221.343 153.268 221.665 152.823 221.993C151.866 222.675 151.123 223.19 149.966 223.438C148.798 223.168 147.96 222.571 147.014 221.869C146.596 221.57 146.177 221.271 145.758 220.972C145.54 220.815 145.322 220.658 145.098 220.496C144.004 219.714 142.89 218.962 141.777 218.207C139.387 216.575 137.011 214.923 134.636 213.267C132.842 212.017 131.042 210.778 129.235 209.546C126.87 207.933 124.528 206.291 122.194 204.634C121.368 204.049 120.541 203.465 119.714 202.882C119.3 202.589 118.885 202.296 118.471 202.003C117.42 201.261 116.368 200.521 115.314 199.784C104.712 192.367 96.2901 183.943 93.9215 170.717C93.2692 166.827 93.0322 163.034 93.0359 159.095C93.0332 158.509 93.0302 157.923 93.0268 157.336C93.0188 155.761 93.016 154.185 93.0143 152.609C93.0115 150.937 93.0038 149.264 92.9967 147.591C92.9839 144.413 92.9755 141.235 92.9688 138.057C92.9609 134.502 92.948 130.948 92.9347 127.394C92.911 121.039 92.8938 114.684 92.8815 108.329C92.8752 105.154 92.8658 101.978 92.8499 98.8028C92.842 97.216 92.8365 95.6292 92.8314 94.0423C92.8287 93.3549 92.8249 92.6676 92.8201 91.9802C92.8138 91.0799 92.811 90.1796 92.8091 89.2793C92.8064 89.0258 92.8037 88.7722 92.8008 88.511C92.8021 87.3676 92.8061 86.8141 93.4555 85.84C95.2148 86.005 96.9142 86.2832 98.6451 86.6352C116.892 90.3048 132.076 87.9149 147.685 77.6867C149.096 76.8167 149.794 76.6271 151.464 77.051ZM145.44 85.5093C145.13 85.6873 145.13 85.6873 144.814 85.8689C144.591 85.9984 144.369 86.1278 144.139 86.2612C130.866 93.7793 117.393 95.2493 102.427 92.8612C102.196 92.8245 101.965 92.7878 101.727 92.75C101.429 92.7003 101.429 92.7003 101.126 92.6497C100.325 92.5602 99.5346 92.574 98.7289 92.5783C98.7088 101.809 98.6933 111.04 98.6841 120.271C98.683 121.364 98.6818 122.456 98.6807 123.549C98.6804 123.766 98.6802 123.984 98.68 124.208C98.6761 127.718 98.6692 131.229 98.6611 134.739C98.6529 138.348 98.648 141.956 98.6462 145.565C98.645 147.787 98.6413 150.009 98.6341 152.231C98.6288 153.942 98.6284 155.654 98.6295 157.365C98.6293 158.061 98.6276 158.758 98.6242 159.455C98.6001 164.648 98.7656 169.884 100.524 174.829C100.612 175.083 100.7 175.336 100.79 175.597C104.303 185.309 112.06 190.986 120.248 196.651C121.477 197.502 122.701 198.361 123.925 199.219C124.413 199.56 124.9 199.902 125.388 200.243C126.369 200.93 127.35 201.617 128.329 202.305C131.413 204.469 134.511 206.609 137.623 208.731C138.661 209.44 139.698 210.152 140.734 210.864C140.923 210.994 141.112 211.124 141.308 211.258C142.237 211.897 143.163 212.539 144.085 213.189C144.261 213.313 144.437 213.436 144.619 213.564C145.097 213.9 145.574 214.238 146.051 214.576C146.715 215.092 146.715 215.092 147.362 215.039C147.369 211.835 147.374 208.631 147.377 205.427C147.379 203.939 147.381 202.45 147.384 200.962C147.387 199.522 147.389 198.082 147.39 196.642C147.39 196.097 147.392 195.551 147.393 195.006C147.402 191.709 147.323 188.444 147.069 185.156C144.581 186.065 142.121 187.007 139.689 188.058C139.351 188.203 139.351 188.203 139.007 188.351C138.082 188.748 137.159 189.145 136.238 189.55C135.553 189.85 134.866 190.145 134.177 190.438C133.972 190.53 133.767 190.622 133.555 190.717C132.206 191.284 131.238 191.451 129.784 191.016C129.235 190.187 129.123 189.511 129.113 188.529C129.109 188.27 129.105 188.012 129.102 187.746C129.101 187.469 129.1 187.193 129.1 186.907C129.097 186.477 129.097 186.477 129.094 186.038C129.091 185.432 129.089 184.826 129.09 184.219C129.088 183.294 129.078 182.369 129.066 181.444C129.065 180.854 129.064 180.264 129.063 179.675C129.059 179.399 129.055 179.123 129.05 178.839C129.062 177.182 129.251 176.211 130.37 174.903C131.086 174.311 131.086 174.311 131.871 173.786C135.327 171.362 139.406 167.981 141.21 164.063C140.805 162.848 139.973 162.538 138.921 161.92C132.381 157.948 126.154 153.295 120.409 148.242C120.149 148.015 119.889 147.787 119.621 147.552C118.898 146.912 118.187 146.262 117.479 145.606C117.146 145.301 117.146 145.301 116.805 144.99C112.636 141.03 110.149 136.03 109.276 130.371C109.231 130.112 109.186 129.852 109.14 129.585C108.365 123.866 110.209 118.092 113.378 113.379C114.194 112.33 115.071 111.384 116.014 110.449C116.227 110.227 116.439 110.005 116.658 109.776C119.861 106.627 123.965 104.871 128.319 104.004C128.534 103.96 128.748 103.916 128.969 103.871C135.046 102.893 140.962 104.416 146.179 107.49C146.749 107.859 146.749 107.859 147.362 107.813C147.362 100.272 147.362 92.7307 147.362 84.9611C146.44 84.9611 146.205 85.0611 145.44 85.5093ZM152.929 84.9611C152.929 92.5021 152.929 100.043 152.929 107.813C154.106 107.342 155.163 106.829 156.279 106.238C162.335 103.128 169.22 103.012 175.675 104.902C179.159 106.153 181.944 108.162 184.569 110.742C184.753 110.922 184.936 111.102 185.125 111.287C189.367 115.778 191.191 122.277 191.087 128.333C190.616 135.893 187 141.964 181.383 146.942C180.981 147.279 180.578 147.615 180.175 147.949C179.892 148.193 179.609 148.436 179.317 148.686C177.304 150.417 175.245 152.075 173.124 153.673C172.481 154.159 171.841 154.649 171.2 155.139C167.284 158.118 163.263 160.885 159.081 163.477C159.472 164.907 160.108 165.956 161.022 167.102C161.153 167.269 161.285 167.436 161.42 167.608C163.227 169.869 165.186 171.637 167.54 173.329C167.842 173.558 168.145 173.787 168.456 174.024C168.651 174.155 168.847 174.286 169.049 174.421C169.989 175.12 170.682 175.667 171.014 176.818C171.09 177.703 171.094 178.56 171.07 179.448C171.069 179.928 171.069 179.928 171.068 180.418C171.065 181.092 171.055 181.766 171.041 182.439C171.019 183.473 171.017 184.505 171.017 185.539C171.011 186.194 171.005 186.849 170.996 187.505C170.995 187.814 170.994 188.124 170.993 188.442C170.985 188.729 170.978 189.016 170.97 189.311C170.965 189.563 170.961 189.815 170.956 190.075C170.8 190.723 170.8 190.723 170.244 191.253C169.628 191.602 169.628 191.602 168.975 191.57C167.865 191.213 166.789 190.797 165.709 190.357C165.464 190.258 165.218 190.159 164.965 190.057C163.277 189.373 161.597 188.67 159.919 187.963C159.714 187.876 159.509 187.79 159.297 187.701C158.266 187.266 157.235 186.83 156.206 186.392C155.824 186.23 155.442 186.069 155.059 185.907C154.719 185.763 154.379 185.618 154.029 185.469C153.275 185.121 153.275 185.121 152.636 185.156C152.593 192.336 152.661 199.511 152.782 206.69C152.786 206.897 152.789 207.104 152.793 207.317C152.836 209.891 152.882 212.465 152.929 215.039C154.553 214.126 154.553 214.126 156.104 213.097C156.298 212.959 156.492 212.821 156.692 212.679C156.894 212.533 157.096 212.388 157.305 212.238C157.749 211.921 158.193 211.605 158.638 211.289C158.86 211.131 159.083 210.973 159.312 210.81C160.266 210.135 161.229 209.474 162.194 208.814C164.141 207.48 166.08 206.134 168.016 204.785C169.953 203.436 171.892 202.091 173.839 200.757C175.606 199.546 177.36 198.318 179.107 197.078C180.245 196.271 181.387 195.472 182.537 194.682C185.144 192.887 187.662 191.065 190.037 188.968C190.722 188.379 190.722 188.379 191.307 188.086C191.307 187.893 191.307 187.699 191.307 187.5C191.466 187.444 191.625 187.387 191.789 187.329C196.147 184.713 199.204 177.575 200.389 172.852C201.362 168.695 201.388 164.645 201.368 160.394C201.368 159.652 201.368 158.909 201.369 158.167C201.369 156.578 201.366 154.989 201.361 153.401C201.354 151.104 201.352 148.807 201.351 146.51C201.349 142.783 201.343 139.055 201.335 135.327C201.327 131.709 201.32 128.091 201.317 124.473C201.316 124.25 201.316 124.026 201.316 123.796C201.315 122.674 201.314 121.552 201.313 120.43C201.304 111.146 201.288 101.862 201.268 92.5783C200.718 92.6223 200.168 92.6669 199.618 92.7116C199.311 92.7364 199.005 92.7611 198.689 92.7866C197.224 92.9191 195.769 93.1167 194.31 93.3107C180.058 95.1385 166.479 92.9776 154.124 85.3067C153.546 84.913 153.546 84.913 152.929 84.9611ZM123.925 111.035C123.67 111.177 123.415 111.318 123.152 111.463C119.009 113.925 116.073 117.546 114.688 122.178C114.62 122.463 114.62 122.463 114.55 122.754C114.497 122.959 114.444 123.164 114.389 123.376C113.559 128.655 114.537 133.517 117.479 137.988C118.479 139.242 119.557 140.384 120.702 141.504C120.851 141.65 121 141.796 121.153 141.947C123.35 144.08 125.684 146.005 128.116 147.862C128.584 148.221 129.048 148.586 129.512 148.951C133.589 152.147 137.874 155.046 142.235 157.837C142.552 158.04 142.868 158.242 143.194 158.451C144.689 159.43 144.689 159.43 146.266 160.258C146.776 160.547 146.776 160.547 147.069 161.426C147.557 164.701 144.811 168.013 142.968 170.508C140.748 173.378 138.267 176.168 135.108 178.027C134.252 178.948 134.319 179.571 134.343 180.793C134.355 181.048 134.367 181.304 134.38 181.568C134.387 181.828 134.393 182.088 134.4 182.356C134.417 182.997 134.441 183.637 134.472 184.278C135.831 184.077 137.03 183.564 138.284 183.026C138.509 182.931 138.734 182.835 138.966 182.738C139.923 182.333 140.88 181.925 141.837 181.518C146.814 179.4 149.796 178.146 155.034 180.176C155.339 180.292 155.643 180.407 155.956 180.527C158.35 181.447 160.712 182.437 163.058 183.474C163.298 183.579 163.537 183.685 163.784 183.793C164.099 183.934 164.099 183.934 164.421 184.077C164.939 184.313 164.939 184.313 165.526 184.278C166.087 180.933 166.087 180.933 165.118 177.823C164.018 176.73 162.724 175.895 161.439 175.036C158.037 172.617 153.958 167.241 153.084 163.122C153.005 162.055 153.137 161.525 153.831 160.711C154.779 159.88 155.75 159.249 156.829 158.606C164.945 153.644 173.281 147.819 179.882 140.918C180.123 140.689 180.365 140.459 180.614 140.222C183.3 137.402 184.876 134.457 185.741 130.664C185.841 130.238 185.841 130.238 185.942 129.804C186.473 124.607 185.31 119.8 182.071 115.691C178.728 111.783 174.431 109.543 169.302 109.085C164.195 108.722 159.254 109.684 155.272 113.086C154.534 113.859 154.148 114.335 154.048 115.409C154.327 120.794 156.65 127.443 160.546 131.25C162.424 132.82 164.574 133.884 167.046 133.997C168.656 133.838 169.512 133.361 170.726 132.312C171.893 130.802 172.076 128.573 171.905 126.725C171.576 125.257 171.046 124.065 169.866 123.12C167.817 122.21 166.674 122.411 164.611 123.194C164.272 123.336 163.932 123.478 163.583 123.624C162.506 123.954 161.912 123.949 160.839 123.633C159.94 122.579 159.692 121.489 159.667 120.117C160.587 118.583 162.802 118.016 164.462 117.6C167.621 117.112 170.508 117.288 173.205 119.084C175.43 120.834 176.482 123.219 176.888 125.981C177.151 129.568 176.59 133.153 174.263 136.001C172.103 138.119 169.535 138.826 166.588 138.959C162.308 138.838 158.762 136.933 155.858 133.887C153.225 130.874 151.64 126.777 150.292 123.047C150.098 123.047 149.905 123.047 149.706 123.047C149.551 123.488 149.551 123.488 149.393 123.939C147.432 129.42 144.816 134.698 139.452 137.494C135.887 139.165 132.649 139.339 128.88 138.043C126.378 137.024 125.07 135.376 123.913 132.958C122.77 129.858 122.881 125.715 124.085 122.663C125.397 120.235 127.157 118.612 129.784 117.774C130.074 117.677 130.364 117.58 130.663 117.481C133.876 117.232 137.222 117.411 140.009 119.197C140.624 119.824 140.624 119.824 140.723 120.474C140.685 120.695 140.646 120.916 140.606 121.143C140.572 121.363 140.538 121.584 140.504 121.811C140.163 123.093 140.163 123.093 139.745 123.633C138.153 124.085 137.175 123.831 135.68 123.194C134.004 122.557 132.683 122.114 130.956 122.754C129.762 123.506 128.948 124.293 128.458 125.641C127.984 127.792 128.1 129.918 129.125 131.882C129.859 132.965 130.649 133.446 131.91 133.758C134.289 134.119 136.37 133.606 138.335 132.221C138.715 131.906 139.088 131.583 139.452 131.25C139.709 131.017 139.709 131.017 139.97 130.78C142.808 127.878 144.187 123.634 145.311 119.824C145.384 119.596 145.456 119.367 145.53 119.132C146.005 117.496 146.348 115.605 145.658 113.991C143.524 111.054 139.043 109.75 135.662 109.116C131.737 108.54 127.412 109.087 123.925 111.035Z" fill="black"/>
<path d="M151.173 59.7657C152.078 60.2579 152.859 60.8818 153.663 61.5235C154.158 61.9015 154.653 62.2787 155.149 62.6553C155.408 62.8538 155.667 63.0523 155.934 63.2568C169.375 73.4437 181.213 75.3396 197.784 73.2233C200.705 72.8198 203.574 72.2588 206.453 71.6252C206.905 71.5255 206.905 71.5255 207.367 71.4239C208.891 71.0865 210.414 70.7426 211.935 70.3904C212.501 70.2618 213.068 70.1332 213.635 70.0047C213.894 69.9428 214.153 69.8809 214.42 69.8172C216.061 69.4484 217.566 69.2044 219.12 70.0241C220.257 71.0358 220.821 71.8702 220.973 73.3932C220.973 73.6556 220.973 73.918 220.973 74.1884C220.975 74.4929 220.976 74.7973 220.978 75.1111C220.977 75.4437 220.975 75.7764 220.974 76.1191C220.975 76.4741 220.976 76.829 220.977 77.1947C220.979 78.1793 220.978 79.1639 220.976 80.1485C220.975 81.2111 220.977 82.2737 220.979 83.3363C220.981 85.4198 220.981 87.5033 220.979 89.5868C220.978 91.2845 220.977 92.9822 220.978 94.6799C220.978 94.9219 220.978 95.1638 220.978 95.413C220.978 95.9046 220.979 96.3962 220.979 96.8878C220.981 101.503 220.979 106.118 220.975 110.733C220.973 114.675 220.973 118.617 220.976 122.559C220.979 127.146 220.98 131.733 220.979 136.321C220.978 136.813 220.978 137.305 220.978 137.797C220.978 138.039 220.978 138.281 220.978 138.53C220.977 140.218 220.978 141.906 220.979 143.593C220.981 145.662 220.981 147.731 220.978 149.8C220.976 150.851 220.975 151.902 220.977 152.954C221.004 168.308 221.004 168.308 219.435 175.195C219.387 175.406 219.339 175.616 219.29 175.833C215.9 190.188 206.578 201.696 194.563 209.812C193.095 210.805 191.652 211.822 190.229 212.878C188.583 214.101 186.908 215.272 185.213 216.426C183.711 217.453 182.234 218.51 180.763 219.58C178.941 220.904 177.104 222.2 175.245 223.47C173.701 224.524 172.168 225.593 170.637 226.666C166.014 229.907 161.381 233.134 156.724 236.327C156.097 236.757 155.471 237.189 154.845 237.622C154.629 237.771 154.413 237.92 154.191 238.073C153.775 238.36 153.36 238.647 152.945 238.934C151.55 239.896 150.84 240.383 149.122 240.234C148.29 239.822 148.29 239.822 147.383 239.209C147.211 239.094 147.04 238.98 146.863 238.861C146.245 238.445 145.633 238.022 145.021 237.598C144.772 237.426 144.523 237.255 144.267 237.079C142.551 235.896 140.841 234.703 139.133 233.507C138.33 232.943 137.526 232.381 136.721 231.82C134.252 230.094 131.787 228.362 129.327 226.623C127.726 225.491 126.12 224.366 124.513 223.242C122.5 221.835 120.492 220.423 118.487 219.005C117.14 218.053 115.79 217.107 114.437 216.164C112.076 214.516 109.727 212.853 107.399 211.158C106.337 210.387 105.27 209.624 104.188 208.88C93.0321 201.2 85.2207 190.595 81.4465 177.539C81.3796 177.31 81.3128 177.081 81.2439 176.845C78.1498 165.872 78.9662 153.948 78.9745 142.653C78.9757 140.952 78.9752 139.251 78.9737 137.549C78.9735 137.305 78.9733 137.06 78.973 136.809C78.9726 136.312 78.9721 135.815 78.9717 135.318C78.9677 130.696 78.9692 126.073 78.9726 121.451C78.9755 117.225 78.9717 113 78.9647 108.774C78.9576 104.416 78.9548 100.058 78.9567 95.7006C78.9577 93.2613 78.9571 90.8219 78.9519 88.3825C78.9476 86.3132 78.9474 84.2438 78.9526 82.1744C78.955 81.1197 78.9557 80.0651 78.9512 79.0105C78.9464 77.8679 78.9507 76.7254 78.9559 75.5828C78.9531 75.2495 78.9502 74.9162 78.9473 74.5728C78.9643 72.7702 79.0514 71.6753 80.2746 70.3125C81.6021 69.3088 82.6215 69.4078 84.1895 69.5706C86.6175 69.9261 89.0108 70.4863 91.4074 71.0083C97.0666 72.2383 102.679 73.2627 108.455 73.7366C108.783 73.7641 108.783 73.7641 109.119 73.7921C124.162 75.031 134.025 70.9139 145.897 61.9622C146.408 61.5794 146.922 61.2028 147.438 60.8277C147.717 60.62 147.997 60.4123 148.285 60.1982C149.38 59.6325 149.951 59.5655 151.173 59.7657ZM148.718 66.8564C148.524 66.997 148.329 67.1375 148.128 67.2824C147.918 67.4364 147.709 67.5904 147.493 67.7491C147.041 68.0735 146.59 68.3973 146.138 68.7207C145.788 68.9711 145.788 68.9711 145.432 69.2266C130.639 79.7345 116.244 81.0469 98.6218 78.1311C95.3048 77.5621 92.014 76.8794 88.7319 76.1366C88.252 76.0289 88.252 76.0289 87.7625 75.919C87.4824 75.8547 87.2023 75.7904 86.9138 75.7241C86.1461 75.5881 85.4465 75.5762 84.6691 75.586C84.6489 86.5684 84.6335 97.5509 84.6242 108.533C84.6231 109.834 84.622 111.135 84.6208 112.436C84.6206 112.695 84.6204 112.954 84.6201 113.221C84.6163 117.396 84.6094 121.572 84.6013 125.747C84.593 130.042 84.5882 134.336 84.5864 138.631C84.5852 141.274 84.5815 143.918 84.5743 146.561C84.5696 148.381 84.5682 150.201 84.5694 152.022C84.5699 153.067 84.5692 154.112 84.5643 155.158C84.4881 172.631 88.4608 186.946 100.858 199.601C102.8 201.448 105.011 202.89 107.229 204.379C108.611 205.31 109.964 206.276 111.311 207.257C113.893 209.135 116.507 210.965 119.125 212.792C120.191 213.537 121.254 214.288 122.316 215.039C124.845 216.827 127.384 218.604 129.922 220.379C130.649 220.887 131.376 221.396 132.103 221.906C135.543 224.316 138.987 226.722 142.439 229.116C142.986 229.495 143.533 229.875 144.079 230.256C144.844 230.788 145.609 231.318 146.376 231.848C146.603 232.007 146.83 232.165 147.064 232.329C147.646 232.73 148.235 233.115 148.829 233.496C149.19 233.742 149.19 233.742 149.558 233.993C150.877 234.153 151.78 233.228 152.803 232.471C153.17 232.209 153.17 232.209 153.544 231.942C154.061 231.574 154.576 231.203 155.09 230.83C156.053 230.134 157.027 229.454 158.002 228.775C158.731 228.268 159.459 227.757 160.186 227.247C161.817 226.102 163.453 224.965 165.089 223.828C167.929 221.854 170.763 219.873 173.595 217.889C174.333 217.372 175.072 216.855 175.81 216.339C178.728 214.298 181.641 212.251 184.549 210.196C185.374 209.613 186.198 209.031 187.023 208.448C187.438 208.156 187.853 207.863 188.268 207.57C189.318 206.827 190.37 206.087 191.424 205.351C192.661 204.486 193.892 203.613 195.118 202.734C195.29 202.611 195.463 202.489 195.64 202.362C205.328 195.384 212.269 184.292 214.454 172.559C215.176 168.025 215.121 163.474 215.108 158.896C215.106 157.771 215.107 156.646 215.107 155.521C215.107 153.577 215.105 151.634 215.102 149.691C215.097 146.882 215.096 144.072 215.095 141.263C215.094 136.703 215.09 132.144 215.084 127.584C215.079 123.158 215.075 118.732 215.072 114.307C215.072 114.033 215.072 113.76 215.072 113.478C215.071 112.106 215.07 110.735 215.07 109.363C215.064 98.0063 215.053 86.6497 215.04 75.293C214.718 75.3691 214.395 75.4453 214.063 75.5237C212.845 75.8109 211.626 76.0959 210.407 76.3803C209.884 76.5027 209.36 76.6257 208.837 76.7493C204.284 77.8245 199.775 78.6097 195.118 79.1016C194.815 79.1351 194.511 79.1685 194.199 79.203C178.867 80.852 166.891 78.1144 154.428 68.969C154.188 68.7935 153.947 68.618 153.7 68.4372C153.232 68.0942 152.765 67.749 152.301 67.4014C152.09 67.2461 151.879 67.0908 151.662 66.9308C151.475 66.7918 151.289 66.6527 151.097 66.5094C150.119 65.9366 149.55 66.247 148.718 66.8564Z" fill="black"/>
</svg>
