<svg width="300" height="300" viewBox="0 0 300 300" fill="none" xmlns="http://www.w3.org/2000/svg">
<path d="M247.489 44.1994C247.698 44.1991 247.907 44.1988 248.122 44.1985C248.56 44.1983 248.998 44.1989 249.436 44.2001C250.105 44.2017 250.774 44.2001 251.443 44.1982C251.871 44.1984 252.298 44.1988 252.726 44.1994C253.111 44.1997 253.497 44.2 253.895 44.2004C255.339 44.2558 255.339 44.2558 256.055 44.5313C258.047 48.5162 256.123 54.8432 255.055 58.8596C254.572 60.6284 254.572 60.6284 254.883 62.4024C255.088 62.6984 255.294 62.9945 255.505 63.2996C256.055 64.1602 256.055 64.1602 256.003 64.7324C255.711 65.4575 255.347 65.8641 254.791 66.4124C254.53 66.6769 254.53 66.6769 254.264 66.9468C253.657 67.4252 253.31 67.6233 252.539 67.6758C251.984 67.3737 251.984 67.3737 251.422 66.9434C250.581 66.3909 250.277 66.2141 249.243 66.1743C247.944 66.5642 246.733 67.0933 245.491 67.6346C244.392 68.0605 243.456 68.1781 242.285 68.2617C241.107 68.4075 240.65 68.955 239.886 69.8364C239.655 70.1019 239.424 70.3674 239.186 70.641C238.284 71.7138 237.4 72.801 236.518 73.8911C235.593 75.0037 234.612 76.0607 233.632 77.1252C232.932 77.9059 232.268 78.7056 231.61 79.5227C230.538 80.8515 229.41 82.1066 228.248 83.3553C227.372 84.3023 226.542 85.2735 225.732 86.2793C224.667 87.6031 223.544 88.8515 222.388 90.0943C221.517 91.0351 220.693 91.9999 219.891 92.9993C218.765 94.3991 217.568 95.71 216.341 97.02C215.194 98.2516 214.129 99.5347 213.076 100.848C212.178 101.93 211.23 102.96 210.269 103.987C209.195 105.099 209.195 105.099 208.301 106.348C208.425 107.354 208.818 107.86 209.512 108.577C209.7 108.774 209.888 108.971 210.081 109.174C210.279 109.378 210.477 109.581 210.681 109.79C211.067 110.191 211.452 110.592 211.837 110.994C212.029 111.194 212.221 111.394 212.418 111.6C213.153 112.382 213.856 113.188 214.558 113.999C215.269 114.815 216.004 115.608 216.742 116.4C217.047 116.73 217.352 117.059 217.657 117.389C217.883 117.633 217.883 117.633 218.113 117.881C219.574 119.463 221.03 121.05 222.437 122.681C223.631 124.058 224.887 125.378 226.135 126.708C227.031 127.665 227.917 128.626 228.772 129.62C228.913 129.78 229.054 129.94 229.2 130.104C229.525 130.477 229.84 130.859 230.145 131.248C231.851 133.231 233.615 133.533 236.133 133.887C236.5 133.946 236.866 134.005 237.244 134.066C238.142 134.21 239.041 134.346 239.941 134.473C239.701 135.667 239.265 136.08 238.33 136.871C237.092 137.945 235.925 139.057 234.785 140.234C234.199 140.804 233.602 141.337 232.982 141.87C231.465 143.186 230.078 144.624 228.68 146.064C228.482 146.266 228.284 146.467 228.08 146.674C227.903 146.856 227.726 147.038 227.544 147.225C227.051 147.656 227.051 147.656 226.172 147.949C226.132 147.771 226.092 147.592 226.051 147.409C225.164 142.778 225.164 142.778 223.828 138.281C223.635 138.185 223.441 138.088 223.242 137.988C223.242 137.795 223.242 137.602 223.242 137.402C223.085 137.341 222.928 137.28 222.766 137.217C221.799 136.661 221.081 135.893 220.308 135.101C220.14 134.931 219.971 134.761 219.798 134.586C219.26 134.043 218.724 133.498 218.188 132.953C217.486 132.24 216.783 131.527 216.078 130.816C215.909 130.646 215.74 130.475 215.566 130.299C214.513 129.243 213.435 128.236 212.297 127.271C211.559 126.633 210.887 125.942 210.205 125.244C209.311 124.337 208.411 123.451 207.44 122.626C205.776 121.208 204.267 119.622 202.734 118.066C201.857 118.46 201.247 118.896 200.57 119.577C200.379 119.767 200.189 119.957 199.993 120.153C199.787 120.361 199.581 120.569 199.369 120.784C199.15 121.004 198.93 121.223 198.704 121.45C197.979 122.177 197.255 122.907 196.532 123.636C196.027 124.143 195.522 124.65 195.017 125.156C193.685 126.491 192.355 127.829 191.026 129.166C188.902 131.302 186.777 133.436 184.65 135.569C183.91 136.313 183.17 137.058 182.43 137.803C181.972 138.263 181.514 138.723 181.056 139.183C180.853 139.388 180.649 139.593 180.44 139.805C179.298 140.949 178.123 142.033 176.899 143.089C176.194 143.706 175.532 144.359 174.873 145.025C174.606 145.294 174.338 145.564 174.062 145.842C173.923 145.982 173.784 146.123 173.641 146.267C173.201 146.713 172.76 147.157 172.319 147.601C171.066 148.861 169.814 150.123 168.564 151.386C167.795 152.163 167.025 152.938 166.253 153.713C165.961 154.007 165.668 154.302 165.377 154.598C164.972 155.009 164.564 155.418 164.157 155.827C163.926 156.06 163.695 156.293 163.457 156.533C162.891 157.031 162.891 157.031 162.305 157.031C162.305 157.225 162.305 157.418 162.305 157.617C161.894 158.021 161.894 158.021 161.314 158.498C159.815 159.774 158.443 161.16 157.061 162.56C156.651 162.973 156.241 163.385 155.831 163.798C154.829 164.807 153.829 165.817 152.829 166.828C152.264 167.4 151.698 167.97 151.131 168.54C150.599 169.075 150.068 169.612 149.539 170.149C149.18 170.509 149.18 170.509 148.815 170.876C148.605 171.088 148.395 171.301 148.178 171.519C147.656 171.973 147.656 171.973 147.07 171.973C147.07 172.166 147.07 172.359 147.07 172.559C146.639 172.983 146.639 172.983 146.044 173.476C144.765 174.565 143.581 175.722 142.401 176.917C142.189 177.13 141.977 177.343 141.758 177.563C141.087 178.238 140.416 178.914 139.746 179.59C138.862 180.482 137.977 181.373 137.091 182.263C136.793 182.564 136.793 182.564 136.49 182.872C135.554 183.812 134.607 184.721 133.602 185.587C132.328 186.686 131.15 187.866 129.971 189.064C129.514 189.525 129.057 189.986 128.6 190.446C127.887 191.166 127.175 191.886 126.464 192.607C125.773 193.307 125.079 194.006 124.386 194.704C124.065 195.031 124.065 195.031 123.738 195.364C123.54 195.563 123.342 195.762 123.139 195.966C122.965 196.142 122.791 196.318 122.612 196.5C122.168 196.875 122.168 196.875 121.582 196.875C121.582 197.068 121.582 197.262 121.582 197.461C121.172 197.864 121.172 197.864 120.593 198.34C119.081 199.626 117.701 201.028 116.309 202.441C114.79 203.983 113.27 205.486 111.628 206.894C110.45 207.943 109.358 209.081 108.252 210.205C106.778 211.703 105.299 213.165 103.705 214.534C102.652 215.452 101.647 216.421 100.635 217.383C99.0543 218.886 97.4533 220.354 95.8008 221.777C95.6335 221.922 95.4663 222.066 95.294 222.215C94.2717 223.096 93.245 223.972 92.2186 224.848C91.7417 225.257 91.2674 225.668 90.794 226.081C84.8972 231.195 78.3922 235.665 71.8082 239.842C71.1951 240.232 70.5844 240.625 69.9739 241.019C66.0397 243.545 62.0151 245.92 57.9871 248.291C56.7379 249.027 55.4923 249.769 54.2485 250.513C51.0891 252.396 47.9602 254.127 44.5312 255.469C44.6637 253.678 45.4847 252.333 46.3441 250.8C46.4997 250.519 46.6551 250.237 46.8154 249.948C51.7218 241.165 57.3471 232.822 63.2812 224.707C63.451 224.474 63.6208 224.241 63.7956 224.002C67.0644 219.519 70.4737 215.176 73.9829 210.88C74.3622 210.415 74.7401 209.949 75.1179 209.483C76.7437 207.481 78.4149 205.52 80.1002 203.568C80.5692 203.024 81.0365 202.479 81.5037 201.933C83.2552 199.894 85.0407 197.894 86.8784 195.932C87.6758 195.08 88.4644 194.224 89.2274 193.341C90.3686 192.021 91.5553 190.743 92.7426 189.465C93.3895 188.768 94.0355 188.07 94.6807 187.372C97.1152 184.743 99.6081 182.18 102.141 179.646C102.534 179.252 102.928 178.857 103.321 178.463C104.135 177.647 104.949 176.832 105.764 176.018C106.81 174.972 107.854 173.924 108.897 172.876C109.703 172.066 110.512 171.257 111.32 170.449C111.706 170.063 112.091 169.676 112.476 169.289C113.01 168.752 113.545 168.218 114.081 167.684C114.239 167.524 114.398 167.364 114.561 167.199C115.656 166.113 115.656 166.113 116.309 166.113C116.379 165.944 116.45 165.774 116.523 165.599C116.965 164.816 117.473 164.369 118.158 163.788C119.15 162.941 120.077 162.059 120.996 161.133C121.225 160.903 121.454 160.673 121.69 160.437C121.93 160.196 122.169 159.956 122.416 159.708C123.775 158.344 125.135 156.981 126.496 155.618C127.315 154.797 128.135 153.975 128.954 153.153C129.751 152.353 130.549 151.553 131.347 150.754C131.649 150.452 131.95 150.149 132.251 149.847C133.732 148.358 135.225 146.904 136.819 145.537C138.012 144.479 139.119 143.332 140.24 142.2C140.505 141.934 140.769 141.669 141.041 141.396C141.88 140.554 142.717 139.711 143.555 138.867C144.659 137.755 145.763 136.645 146.869 135.535C147.119 135.283 147.368 135.03 147.626 134.771C148.669 133.723 149.711 132.694 150.835 131.734C152.335 130.444 153.712 129.031 155.102 127.626C155.601 127.122 156.101 126.618 156.602 126.115C158.023 124.687 159.443 123.257 160.861 121.826C161.732 120.947 162.605 120.069 163.479 119.192C163.811 118.858 164.143 118.523 164.473 118.188C164.933 117.723 165.395 117.259 165.857 116.796C166.12 116.531 166.382 116.267 166.652 115.994C167.285 115.43 167.285 115.43 167.871 115.43C167.968 115.14 168.064 114.85 168.164 114.551C168.598 114.123 168.598 114.123 169.164 113.659C170.71 112.346 172.127 110.918 173.557 109.48C173.842 109.194 174.128 108.908 174.414 108.622C175.158 107.876 175.901 107.13 176.644 106.384C177.406 105.619 178.168 104.855 178.931 104.091C180.421 102.598 181.91 101.104 183.398 99.6094C182.237 98.2348 181.046 96.8954 179.815 95.5834C179.641 95.3978 179.467 95.2122 179.288 95.0209C177.681 93.3098 176.053 91.6183 174.419 89.9332C173.327 88.807 172.244 87.6751 171.177 86.5259C165.884 80.8377 161.704 76.8028 153.696 76.24C152.93 76.1719 152.93 76.1719 152.344 75.8789C152.344 75.6856 152.344 75.4922 152.344 75.293C152.784 74.8593 152.784 74.8593 153.387 74.3591C154.197 73.672 154.971 72.9761 155.713 72.2168C156.374 71.545 157.049 70.9089 157.764 70.2942C158.953 69.2692 160.098 68.2002 161.243 67.1265C162.945 65.5302 164.662 63.9535 166.406 62.4024C166.6 62.499 166.793 62.5957 166.992 62.6953C167.192 63.3953 167.192 63.3953 167.372 64.3181C167.442 64.6516 167.511 64.985 167.583 65.3286C167.725 66.0314 167.864 66.7349 167.999 67.4389C168.442 69.5334 168.892 70.9334 170.508 72.3633C170.688 72.5267 170.869 72.6901 171.055 72.8584C171.445 73.2037 171.839 73.5452 172.236 73.8831C173.523 74.9933 174.738 76.1841 175.97 77.3552C177.175 78.4967 178.398 79.6106 179.653 80.6983C180.31 81.269 180.958 81.8505 181.604 82.4341C181.851 82.6569 182.099 82.8797 182.354 83.1093C182.847 83.5552 183.339 84.0022 183.83 84.4505C185.063 85.5727 186.312 86.6607 187.61 87.7075C189.125 88.9319 190.552 90.2297 191.975 91.5585C192.238 91.7983 192.502 92.0381 192.773 92.2852C193.025 92.5159 193.276 92.7467 193.536 92.9844C194.179 93.5093 194.179 93.5093 194.829 93.4685C195.643 93.0424 196.17 92.4749 196.802 91.8091C197.691 90.8913 198.576 90.0021 199.548 89.1724C200.566 88.3018 201.502 87.3706 202.441 86.4166C203.192 85.6775 203.986 84.9974 204.785 84.3109C205.396 83.7673 205.97 83.1996 206.543 82.6172C207.293 81.8555 208.057 81.134 208.868 80.4382C209.745 79.6856 210.566 78.8985 211.377 78.0762C212.362 77.078 213.38 76.15 214.444 75.2381C215.108 74.6453 215.732 74.0225 216.357 73.3887C217.342 72.3905 218.36 71.4625 219.424 70.5506C220.301 69.7687 221.116 68.9303 221.933 68.0878C222.525 67.5106 223.126 66.9716 223.753 66.433C225.075 65.2855 226.3 64.0537 227.527 62.8052C229.883 60.4066 229.883 60.4066 230.976 59.5207C232.119 58.5702 232.398 57.8605 232.599 56.4331C232.796 55.0879 233.092 53.8229 233.459 52.5147C233.76 51.2665 233.884 50.5231 233.295 49.3652C233.13 49.116 233.13 49.116 232.962 48.8617C232.546 48.2317 232.296 47.5801 232.031 46.875C232.435 46.473 232.845 46.0775 233.258 45.6848C233.486 45.4639 233.714 45.243 233.948 45.0154C234.668 44.5313 234.668 44.5313 235.434 44.569C236.133 44.8242 236.133 44.8242 237.012 45.4102C238.451 45.5053 239.714 45.3154 241.113 44.989C243.251 44.4953 245.293 44.1928 247.489 44.1994ZM163.044 70.3308C162.848 70.5159 162.651 70.7009 162.449 70.8916C162.142 71.185 162.142 71.185 161.829 71.4844C161.622 71.68 161.415 71.8756 161.201 72.0772C160.689 72.5619 160.178 73.0479 159.668 73.5352C160.041 74.2804 160.312 74.3243 161.078 74.6155C161.38 74.735 161.38 74.735 161.688 74.857C162.421 75.027 162.777 74.9788 163.477 74.707C164.332 74.1437 164.992 73.5332 165.527 72.6563C165.547 71.4756 165.171 70.4785 164.648 69.4336C163.831 69.4336 163.631 69.7734 163.044 70.3308ZM166.486 74.5697C166.211 74.8552 166.211 74.8552 165.93 75.1465C165.745 75.3368 165.56 75.5272 165.369 75.7233C165.228 75.8713 165.087 76.0194 164.941 76.1719C166.382 77.9723 168.038 79.4872 169.747 81.0236C170.493 81.6964 171.233 82.3768 171.973 83.0567C172.266 83.3256 172.559 83.5946 172.853 83.8635C172.998 83.9964 173.143 84.1294 173.292 84.2664C173.728 84.6655 174.163 85.0645 174.599 85.4633C175.33 86.1326 176.06 86.8025 176.79 87.4726C177.263 87.9063 177.737 88.3391 178.211 88.7718C179.933 90.3484 181.621 91.9436 183.249 93.6184C183.85 94.2047 184.46 94.7531 185.096 95.3007C186.559 96.5697 187.902 97.9461 189.258 99.3279C190.394 100.477 191.56 101.56 192.784 102.614C193.937 103.638 194.995 104.76 196.066 105.869C196.325 106.132 196.325 106.132 196.589 106.401C196.743 106.56 196.897 106.719 197.055 106.883C197.447 107.29 197.447 107.29 198.047 107.227C198.047 107.42 198.047 107.613 198.047 107.813C198.491 108.262 198.491 108.262 199.072 108.728C200.131 109.626 201.111 110.568 202.075 111.566C202.631 112.107 203.198 112.61 203.786 113.115C205.317 114.445 206.742 115.879 208.173 117.316C208.571 117.713 208.571 117.713 208.978 118.117C210.301 119.442 211.585 120.782 212.804 122.204C213.62 123.144 214.478 124.045 215.332 124.951C216.556 126.256 217.768 127.564 218.935 128.92C219.823 129.939 220.741 130.93 221.651 131.929C222.275 132.618 222.889 133.313 223.499 134.015C224.167 134.784 224.85 135.524 225.586 136.23C226.572 135.808 227.2 135.254 227.93 134.473C227.468 133.384 226.793 132.642 225.989 131.781C225.85 131.631 225.711 131.482 225.568 131.328C225.087 130.812 224.604 130.298 224.121 129.785C223.937 129.589 223.753 129.393 223.563 129.192C222.766 128.344 221.968 127.497 221.17 126.65C219.162 124.52 217.154 122.388 215.24 120.172C214.053 118.8 212.802 117.486 211.561 116.163C210.664 115.206 209.778 114.245 208.923 113.251C208.098 112.29 207.216 111.402 206.305 110.522C205.776 109.978 205.286 109.425 204.793 108.848C203.421 107.27 201.939 105.801 200.458 104.326C199.97 103.84 199.484 103.352 198.998 102.865C197.536 101.401 196.065 99.9616 194.491 98.617C193.46 97.7243 192.48 96.7762 191.492 95.8374C189.695 94.1386 187.883 92.4634 186.035 90.8203C185.547 90.3812 185.058 89.9417 184.57 89.502C183.845 88.8491 183.12 88.1966 182.394 87.545C180.77 86.0872 179.159 84.6163 177.555 83.1368C176.889 82.5265 176.211 81.9312 175.528 81.3389C174.103 80.096 172.733 78.7963 171.361 77.4954C170.417 76.6049 169.468 75.7221 168.495 74.8638C168.332 74.7203 168.17 74.5769 168.002 74.429C167.329 73.9403 167.099 74.0263 166.486 74.5697ZM184.57 100.195C184.563 100.571 184.555 100.948 184.547 101.335C184.332 108.875 183.159 116.172 177.584 121.623C177.261 121.944 177.261 121.944 176.932 122.271C176.251 122.947 175.568 123.62 174.884 124.292C174.424 124.747 173.965 125.203 173.506 125.658C172.48 126.675 171.453 127.689 170.425 128.702C169.978 129.144 169.535 129.589 169.094 130.036C168.457 130.664 168.457 130.664 167.725 131.232C167.127 131.724 166.703 132.158 166.223 132.751C165.527 133.594 165.527 133.594 164.648 134.18C164.648 134.373 164.648 134.566 164.648 134.766C164.455 134.766 164.262 134.766 164.062 134.766C163.276 135.488 162.59 136.241 161.92 137.073C161.372 137.743 160.794 138.297 160.131 138.853C158.432 140.325 156.864 141.928 155.279 143.52C154.945 143.856 154.61 144.191 154.275 144.526C153.4 145.402 152.526 146.279 151.651 147.157C150.763 148.048 149.874 148.939 148.984 149.829C147.42 151.397 145.856 152.964 144.293 154.533C144.05 154.777 143.806 155.022 143.555 155.273C143.31 155.521 143.065 155.769 142.813 156.024C142.129 156.699 141.427 157.341 140.706 157.976C139.217 159.31 137.799 160.703 136.393 162.124C136.143 162.375 135.892 162.627 135.634 162.886C134.843 163.68 134.054 164.476 133.264 165.271C132.221 166.322 131.176 167.373 130.131 168.423C129.778 168.779 129.778 168.779 129.419 169.142C128.186 170.38 126.93 171.563 125.606 172.702C124.975 173.251 124.383 173.83 123.798 174.426C123.578 174.648 123.358 174.87 123.132 175.099C122.91 175.324 122.689 175.549 122.461 175.781C121.018 177.249 119.569 178.679 118.001 180.013C117.461 180.486 116.957 180.982 116.455 181.494C115.565 182.4 114.625 183.229 113.663 184.058C113.106 184.552 112.582 185.065 112.061 185.596C111.17 186.502 110.23 187.33 109.268 188.159C108.541 188.806 107.864 189.495 107.183 190.19C106.693 190.671 106.192 191.112 105.667 191.553C103.719 193.248 101.92 195.102 100.095 196.927C99.6908 197.329 99.2868 197.732 98.8829 198.135C98.0413 198.975 97.2002 199.816 96.3595 200.657C95.28 201.736 94.1985 202.814 93.1164 203.891C92.284 204.72 91.4529 205.55 90.6222 206.381C90.2236 206.779 89.8247 207.177 89.4252 207.574C88.8698 208.127 88.3162 208.681 87.7631 209.236C87.597 209.401 87.4307 209.565 87.2595 209.735C86.4033 210.488 86.4033 210.488 86.1328 211.523C85.9395 211.523 85.7461 211.523 85.5469 211.523C85.5469 211.717 85.5469 211.91 85.5469 212.109C85.3535 212.109 85.1602 212.109 84.9609 212.109C84.9609 212.303 84.9609 212.496 84.9609 212.695C84.7676 212.695 84.5742 212.695 84.375 212.695C83.9404 213.125 83.9404 213.125 83.4869 213.693C82.0295 215.407 80.4189 216.958 78.8166 218.535C77.5446 219.795 76.3172 221.069 75.1579 222.434C74.687 222.972 74.1922 223.474 73.6817 223.975C73.0099 224.636 72.3738 225.311 71.7591 226.025C70.7341 227.215 69.6651 228.359 68.5914 229.504C67.2107 230.978 65.8422 232.46 64.4966 233.965C63.7909 234.753 63.0786 235.535 62.3657 236.316C61.1896 237.608 60.0322 238.915 58.8867 240.234C58.5024 240.674 58.1178 241.113 57.7332 241.553C57.5613 241.749 57.3895 241.946 57.2124 242.148C57.0882 242.29 56.964 242.432 56.8359 242.578C57.9955 242.578 58.2033 242.213 59.0332 241.425C60.0809 240.452 61.1423 239.52 62.256 238.623C63.5805 237.551 64.8537 236.435 66.1138 235.288C66.7261 234.732 67.3448 234.185 67.9689 233.643C69.0967 232.66 70.209 231.66 71.3197 230.658C72.0448 230.004 72.7716 229.351 73.4985 228.699C75.1807 227.183 76.853 225.658 78.5157 224.121C78.7637 223.892 78.7637 223.892 79.0167 223.659C82.8807 220.081 86.6079 216.37 90.3312 212.648C90.8453 212.134 91.3596 211.62 91.874 211.106C93.6718 209.311 95.4687 207.516 97.265 205.719C98.9364 204.047 100.609 202.377 102.283 200.708C103.727 199.268 105.171 197.826 106.613 196.384C107.471 195.525 108.33 194.667 109.191 193.81C109.995 193.009 110.798 192.206 111.599 191.402C111.894 191.107 112.189 190.812 112.485 190.518C112.887 190.118 113.287 189.717 113.687 189.315C113.912 189.09 114.137 188.866 114.368 188.635C114.908 188.133 114.908 188.133 114.844 187.5C115.013 187.428 115.182 187.355 115.356 187.28C116.112 186.86 116.619 186.391 117.188 185.742C117.188 185.549 117.188 185.355 117.188 185.156C117.363 185.08 117.539 185.003 117.721 184.924C118.399 184.549 118.727 184.205 119.202 183.6C120.016 182.609 120.878 181.861 121.875 181.055C122.369 180.572 122.858 180.084 123.34 179.59C123.563 179.378 123.787 179.167 124.017 178.949C124.578 178.467 124.578 178.467 124.512 177.832C124.686 177.753 124.861 177.673 125.041 177.591C125.675 177.251 126.083 176.918 126.587 176.411C126.758 176.24 126.929 176.07 127.105 175.895C127.289 175.708 127.473 175.522 127.662 175.33C127.858 175.133 128.055 174.936 128.257 174.733C128.907 174.082 129.554 173.428 130.202 172.775C130.654 172.321 131.107 171.867 131.559 171.413C132.752 170.216 133.943 169.018 135.134 167.819C137.035 165.905 138.939 163.993 140.843 162.082C141.506 161.416 142.168 160.749 142.829 160.082C143.24 159.67 143.651 159.257 144.061 158.844C144.243 158.661 144.424 158.477 144.611 158.288C145.703 157.194 146.833 156.165 148.002 155.154C148.668 154.571 149.297 153.959 149.92 153.331C150.165 153.085 150.409 152.84 150.661 152.587C151.045 152.199 151.045 152.199 151.437 151.804C151.851 151.388 152.265 150.973 152.679 150.557C153.398 149.835 154.116 149.112 154.834 148.389C155.692 147.524 156.551 146.66 157.41 145.798C157.943 145.263 158.475 144.727 159.007 144.19C160.28 142.912 161.572 141.685 162.94 140.51C163.783 139.771 164.568 138.979 165.353 138.181C165.52 138.013 165.687 137.845 165.859 137.672C166.384 137.143 166.908 136.614 167.432 136.084C171.391 132.08 171.391 132.08 173.21 130.533C174.164 129.699 175.041 128.785 175.928 127.881C177.218 126.577 178.509 125.306 179.914 124.125C180.884 123.265 181.771 122.321 182.668 121.386C186.669 117.642 193.385 116.976 198.633 116.73C198.888 116.717 199.143 116.704 199.405 116.691C200.027 116.661 200.648 116.631 201.27 116.602C200.067 115.171 198.822 113.814 197.502 112.492C197.225 112.213 197.225 112.213 196.942 111.929C196.556 111.541 196.169 111.154 195.781 110.766C195.186 110.171 194.594 109.573 194.001 108.975C193.624 108.597 193.247 108.219 192.87 107.841C192.604 107.572 192.604 107.572 192.332 107.297C191.531 106.37 191.531 106.37 190.43 106.055C190.43 105.861 190.43 105.668 190.43 105.469C190.015 105.049 190.015 105.049 189.459 104.608C188.207 103.549 187.06 102.41 185.916 101.237C185.57 100.885 185.217 100.54 184.863 100.195C184.767 100.195 184.67 100.195 184.57 100.195ZM228.461 136.615C227.905 137.19 227.658 137.508 227.567 138.306C227.67 139.215 227.934 140.053 228.223 140.918C229.537 140.501 230.285 139.845 231.244 138.867C231.503 138.607 231.761 138.348 232.028 138.08C232.681 137.478 232.681 137.478 232.617 136.816C230.5 135.846 230.5 135.846 228.461 136.615Z" fill="black"/>
<path d="M187.5 106.934C188.571 107.38 189.214 108.02 190.009 108.856C191.52 110.403 193.126 111.749 194.824 113.086C193.521 113.785 192.169 114.088 190.741 114.441C190.348 114.542 190.348 114.542 189.947 114.645C189.693 114.708 189.439 114.772 189.177 114.837C188.946 114.895 188.716 114.952 188.479 115.012C187.748 115.145 187.069 115.158 186.328 115.137C186.364 114.962 186.399 114.787 186.436 114.607C186.927 112.064 187.217 109.506 187.5 106.934Z" fill="black"/>
</svg>
