<svg width="300" height="300" viewBox="0 0 300 300" fill="none" xmlns="http://www.w3.org/2000/svg">
<path d="M281.25 19.6293C283.65 30.9344 286.035 45.749 279.351 56.0971C275.872 61.2594 271.508 65.7566 267.107 70.1309C266.842 70.3953 266.842 70.3953 266.571 70.665C262.17 75.0402 257.635 79.2627 253.033 83.425C250.052 86.1214 247.115 88.858 244.211 91.6369C244.018 91.8216 243.824 92.0063 243.626 92.1966C242.656 93.1241 241.688 94.0523 240.72 94.9808C234.865 100.594 228.967 106.157 222.984 111.632C222.517 112.06 222.05 112.488 221.584 112.917C220.735 113.695 219.884 114.471 219.032 115.246C218.657 115.59 218.657 115.59 218.274 115.941C218.047 116.146 217.821 116.351 217.587 116.562C217.391 116.741 217.194 116.92 216.992 117.104C216.504 117.481 216.504 117.481 215.918 117.481C215.918 117.674 215.918 117.868 215.918 118.067C215.435 118.463 214.946 118.854 214.453 119.239C214.356 119.432 214.26 119.625 214.16 119.825C213.967 119.825 213.773 119.825 213.574 119.825C213.478 120.115 213.381 120.405 213.281 120.703C212.567 121.491 212.567 121.491 211.816 122.168C211.623 122.168 211.43 122.168 211.23 122.168C211.23 122.362 211.23 122.555 211.23 122.754C210.747 123.151 210.259 123.541 209.766 123.926C209.669 124.12 209.572 124.313 209.473 124.512C209.279 124.512 209.086 124.512 208.887 124.512C208.887 124.705 208.887 124.899 208.887 125.098C208.405 125.497 207.915 125.886 207.422 126.27C206.929 126.754 206.442 127.243 205.957 127.735C187.258 146.433 168.56 165.132 136.23 197.461C135.288 197.014 134.681 196.554 133.96 195.795C133.251 195.052 132.522 194.363 131.74 193.698C129.932 192.13 128.256 190.42 126.564 188.728C125.971 188.136 125.376 187.546 124.781 186.956C124.404 186.58 124.027 186.204 123.651 185.828C123.473 185.652 123.294 185.476 123.11 185.294C121.875 184.052 121.875 184.052 121.875 183.399C122.35 182.898 122.84 182.41 123.34 181.934C123.503 181.759 123.666 181.584 123.834 181.403C124.219 181.055 124.219 181.055 124.805 181.055C124.923 180.774 124.923 180.774 125.043 180.487C125.391 179.883 125.391 179.883 126.27 179.59C126.366 179.3 126.463 179.01 126.562 178.711C126.756 178.711 126.949 178.711 127.148 178.711C127.215 178.55 127.282 178.388 127.35 178.221C127.847 177.339 128.474 176.725 129.19 176.008C129.338 175.859 129.486 175.71 129.638 175.557C130.125 175.067 130.614 174.58 131.104 174.092C131.443 173.753 131.782 173.413 132.121 173.073C132.832 172.362 133.543 171.652 134.255 170.942C135.17 170.031 136.081 169.118 136.992 168.203C137.692 167.502 138.393 166.801 139.094 166.101C139.431 165.765 139.767 165.428 140.103 165.091C140.572 164.621 141.042 164.153 141.513 163.685C141.781 163.418 142.048 163.151 142.324 162.876C142.969 162.305 142.969 162.305 143.555 162.305C143.631 162.134 143.707 161.963 143.785 161.786C144.167 161.085 144.578 160.622 145.141 160.058C145.348 159.849 145.555 159.641 145.769 159.426C145.996 159.2 146.223 158.974 146.457 158.741C146.696 158.501 146.935 158.261 147.182 158.013C147.973 157.219 148.767 156.427 149.561 155.635C150.11 155.085 150.66 154.535 151.209 153.985C152.361 152.833 153.513 151.681 154.667 150.531C156.002 149.199 157.334 147.865 158.666 146.53C159.809 145.385 160.953 144.24 162.098 143.097C162.782 142.414 163.466 141.73 164.148 141.046C164.909 140.284 165.671 139.524 166.434 138.764C166.661 138.536 166.888 138.308 167.122 138.073C167.329 137.867 167.536 137.662 167.749 137.45C167.929 137.27 168.11 137.09 168.295 136.905C168.75 136.524 168.75 136.524 169.336 136.524C169.445 136.27 169.445 136.27 169.556 136.011C169.975 135.255 170.445 134.748 171.094 134.18C171.287 134.18 171.48 134.18 171.68 134.18C171.74 134.017 171.801 133.854 171.863 133.686C172.309 132.935 172.846 132.513 173.524 131.976C174.279 131.322 174.898 130.564 175.546 129.806C176.078 129.195 176.625 128.608 177.191 128.028C177.439 127.774 177.439 127.774 177.691 127.515C178.125 127.149 178.125 127.149 178.711 127.149C178.808 126.859 178.904 126.569 179.004 126.27C179.43 125.851 179.43 125.851 179.956 125.428C181.11 124.472 182.167 123.488 183.105 122.315C183.742 121.519 184.407 120.808 185.156 120.118C185.35 120.118 185.543 120.118 185.742 120.118C185.821 119.93 185.899 119.743 185.98 119.55C186.328 118.946 186.328 118.946 187.207 118.653C187.207 118.459 187.207 118.266 187.207 118.067C187.62 117.66 187.62 117.66 188.202 117.181C189.675 115.928 191.029 114.57 192.389 113.196C192.753 112.83 192.753 112.83 193.124 112.457C193.576 112.003 194.027 111.549 194.477 111.094C196.121 109.438 197.777 107.794 199.43 106.147C200.03 105.548 200.631 104.95 201.231 104.352C201.39 104.194 201.548 104.036 201.712 103.873C209.029 96.5821 216.341 89.2877 223.651 81.9904C224.708 80.9351 225.765 79.8798 226.823 78.8246C227.033 78.6145 227.244 78.4045 227.46 78.188C230.866 74.7884 234.275 71.3914 237.684 67.9954C241.189 64.5044 244.691 61.0106 248.19 57.5142C250.346 55.3604 252.504 53.2087 254.665 51.0598C256.148 49.5847 257.628 48.1069 259.106 46.6269C259.957 45.7748 260.81 44.9239 261.665 44.0762C264.936 40.8338 268.082 37.7071 270.41 33.6918C270.741 33.1927 271.075 32.6956 271.415 32.2025C271.562 31.9867 271.708 31.771 271.859 31.5487C272.076 31.2284 272.076 31.2284 272.298 30.9017C272.623 30.4234 272.947 29.945 273.271 29.4666C273.769 28.7322 274.267 27.9979 274.766 27.2639C275.256 26.5421 275.746 25.8197 276.235 25.0973C276.386 24.8755 276.537 24.6536 276.693 24.4251C277.404 23.5583 277.404 23.5583 277.734 22.559C274.895 24.4692 272.086 26.3837 269.406 28.5142C268.706 29.0532 267.994 29.5357 267.24 29.9962C262.665 32.8354 259.047 36.611 255.283 40.412C254.293 41.409 253.299 42.4007 252.305 43.3932C250.589 45.1083 248.876 46.8266 247.166 48.5471C244.691 51.0362 242.211 53.5204 239.731 56.0034C235.702 60.0355 231.678 64.0714 227.656 68.1099C223.756 72.0262 219.854 75.9407 215.95 79.8527C215.709 80.0941 215.468 80.3356 215.219 80.5843C214.01 81.796 212.801 83.0075 211.591 84.2191C203.269 92.5563 194.951 100.897 186.637 109.243C186.46 109.42 186.283 109.598 186.1 109.781C185.281 110.603 184.462 111.426 183.642 112.248C183.424 112.467 183.424 112.467 183.201 112.691C182.816 113.078 182.431 113.465 182.045 113.851C181.815 114.082 181.585 114.313 181.348 114.551C181.094 114.808 180.84 115.065 180.579 115.33C179.883 116.016 179.883 116.016 179.022 116.712C178.165 117.41 177.479 118.202 176.772 119.049C176.277 119.639 175.77 120.19 175.195 120.703C175.002 120.703 174.809 120.703 174.609 120.703C174.609 120.897 174.609 121.09 174.609 121.289C174.416 121.289 174.223 121.289 174.023 121.289C174.023 121.483 174.023 121.676 174.023 121.875C173.594 122.299 173.594 122.299 173 122.791C171.707 123.891 170.507 125.06 169.311 126.264C168.971 126.604 168.971 126.604 168.624 126.951C167.871 127.705 167.119 128.46 166.367 129.215C165.825 129.758 165.283 130.301 164.741 130.844C163.577 132.01 162.413 133.176 161.25 134.343C159.567 136.031 157.884 137.717 156.2 139.403C153.467 142.139 150.735 144.876 148.003 147.613C147.84 147.776 147.677 147.94 147.508 148.108C145.187 150.434 142.866 152.761 140.545 155.088C140.381 155.252 140.218 155.416 140.049 155.585C139.885 155.749 139.722 155.913 139.553 156.082C136.83 158.812 134.105 161.542 131.379 164.27C129.698 165.952 128.018 167.636 126.34 169.321C125.056 170.609 123.771 171.895 122.485 173.181C121.957 173.71 121.429 174.24 120.902 174.77C120.185 175.491 119.466 176.209 118.747 176.927C118.536 177.14 118.325 177.353 118.108 177.572C117.82 177.858 117.82 177.858 117.527 178.15C117.361 178.316 117.196 178.482 117.025 178.653C116.602 179.004 116.602 179.004 116.016 179.004C115.592 178.574 115.592 178.574 115.1 177.979C113.706 176.343 112.229 174.834 110.595 173.438C108.902 171.966 107.34 170.36 105.762 168.769C105.448 168.453 105.134 168.138 104.82 167.823C104.059 167.059 103.299 166.293 102.539 165.528C102.974 164.516 103.547 163.863 104.325 163.09C104.572 162.842 104.82 162.595 105.075 162.34C105.342 162.075 105.61 161.81 105.886 161.537C106.165 161.26 106.443 160.983 106.721 160.705C107.452 159.976 108.186 159.248 108.92 158.521C109.662 157.784 110.403 157.046 111.144 156.308C112.465 154.993 113.786 153.68 115.109 152.368C115.606 151.874 116.099 151.378 116.591 150.88C117.188 150.293 117.188 150.293 117.883 149.762C118.749 149.041 119.437 148.244 120.168 147.389C120.985 146.456 121.869 145.595 122.754 144.727C123.008 144.467 123.261 144.207 123.523 143.94C124.219 143.262 124.219 143.262 124.933 142.713C125.715 142.064 126.325 141.374 126.965 140.59C127.578 139.881 128.241 139.233 128.906 138.575C129.183 138.292 129.458 138.01 129.734 137.727C130.013 137.442 130.293 137.157 130.573 136.872C130.715 136.725 130.857 136.578 131.003 136.426C131.368 136.057 131.747 135.703 132.129 135.352C132.322 135.352 132.516 135.352 132.715 135.352C132.805 135.107 132.805 135.107 132.898 134.858C133.351 134.096 133.908 133.639 134.596 133.091C135.592 132.282 136.43 131.365 137.238 130.371C138.008 129.469 138.827 128.775 139.746 128.028C140.238 127.543 140.726 127.054 141.211 126.563C141.539 126.235 141.539 126.235 141.873 125.901C142.1 125.673 142.327 125.446 142.561 125.212C142.824 124.949 143.088 124.685 143.36 124.413C143.501 124.272 143.641 124.131 143.787 123.986C144.573 123.199 145.359 122.412 146.145 121.625C146.314 121.456 146.483 121.287 146.657 121.113C154.434 113.331 162.211 105.55 169.99 97.7693C171.113 96.645 172.237 95.5207 173.361 94.3964C173.585 94.1726 173.809 93.9488 174.039 93.7182C177.665 90.0912 181.29 86.4637 184.915 82.8359C188.639 79.1099 192.362 75.3845 196.087 71.6596C198.383 69.3628 200.679 67.0656 202.974 64.7679C204.548 63.193 206.122 61.6186 207.696 60.0447C208.604 59.137 209.511 58.2291 210.418 57.3205C211.25 56.4878 212.082 55.6559 212.914 54.8244C213.214 54.5244 213.514 54.2242 213.814 53.9237C215.29 52.4427 216.775 50.9917 218.366 49.6342C219.07 49.0272 219.725 48.3765 220.381 47.7187C220.584 47.516 220.584 47.516 220.791 47.3092C221.228 46.8716 221.665 46.4329 222.101 45.9942C222.41 45.6853 222.718 45.3764 223.026 45.0676C223.832 44.2607 224.637 43.4529 225.442 42.6448C226.26 41.824 227.078 41.0041 227.897 40.184C229.337 38.7409 230.777 37.2972 232.216 35.8528C232.696 35.3716 233.182 34.8964 233.673 34.4262C234.343 33.725 234.815 33.0642 235.311 32.2346C236.564 30.2403 237.945 28.3793 239.447 26.569C239.652 26.3215 239.652 26.3215 239.862 26.069C249.609 14.5909 267.88 18.7937 281.25 19.6293Z" fill="black"/>
<path d="M76.7578 189.258C78.0463 190.362 79.2274 191.407 80.4016 192.609C81.488 193.711 82.6034 194.755 83.7811 195.759C84.737 196.612 85.6239 197.532 86.5173 198.45C87.1352 199.053 87.7587 199.618 88.4125 200.18C89.944 201.508 91.3477 202.954 92.767 204.399C93.9337 205.579 95.1266 206.696 96.3841 207.778C97.4457 208.721 98.4316 209.741 99.4263 210.754C99.8368 211.172 100.248 211.59 100.66 212.006C100.838 212.188 101.017 212.37 101.201 212.557C101.646 213.016 101.646 213.016 102.246 213.281C102.246 213.475 102.246 213.668 102.246 213.867C102.414 213.939 102.582 214.011 102.755 214.086C103.527 214.514 104.038 215.012 104.655 215.643C104.885 215.877 105.115 216.11 105.353 216.351C105.59 216.595 105.828 216.838 106.073 217.09C106.546 217.573 107.019 218.055 107.493 218.536C107.702 218.751 107.911 218.965 108.126 219.185C108.71 219.776 108.71 219.776 109.57 220.312C109.57 220.506 109.57 220.699 109.57 220.898C109.752 220.983 109.933 221.068 110.12 221.155C110.742 221.484 110.742 221.484 111.328 222.07C111.281 223.303 110.433 223.945 109.597 224.767C109.454 224.908 109.311 225.049 109.164 225.195C108.71 225.645 108.252 226.091 107.794 226.538C107.485 226.843 107.176 227.148 106.867 227.454C106.11 228.201 105.351 228.945 104.59 229.688C103.281 228.575 102.001 227.443 100.75 226.266C100.148 225.767 100.148 225.767 99.0234 225.879C98.317 226.454 98.317 226.454 97.6318 227.216C96.8061 228.091 95.9807 228.92 95.0696 229.706C93.5468 231.032 92.0501 232.386 90.5572 233.745C90.4038 233.884 90.2505 234.024 90.0925 234.168C87.05 236.94 84.0571 239.764 81.0818 242.608C79.1946 244.41 77.2949 246.193 75.3533 247.936C73.6481 249.467 71.9785 251.029 70.3398 252.631C69.3308 253.616 68.3062 254.564 67.2275 255.472C64.5426 257.892 63.885 259.334 61.8164 262.793C61.7197 268.594 61.623 274.395 61.5234 280.371C47.4082 280.371 33.293 280.371 18.75 280.371C18.75 266.933 18.75 253.494 18.75 239.648C24.9375 239.552 31.125 239.455 37.5 239.355C38.5635 238.292 39.627 237.229 40.7227 236.133C40.916 236.133 41.1094 236.133 41.3086 236.133C41.502 235.746 41.6953 235.359 41.8945 234.961C42.0879 234.961 42.2812 234.961 42.4805 234.961C42.5447 234.802 42.6089 234.642 42.675 234.478C43.1956 233.562 43.8987 232.873 44.6411 232.137C44.795 231.982 44.9488 231.828 45.1073 231.669C45.4317 231.344 45.7567 231.02 46.0825 230.697C46.5823 230.2 47.079 229.7 47.5754 229.2C47.891 228.885 48.2069 228.57 48.5229 228.255C48.6719 228.105 48.8208 227.954 48.9743 227.8C50.0303 226.758 50.0303 226.758 50.6836 226.758C50.7531 226.593 50.8226 226.429 50.8942 226.259C51.3554 225.432 51.919 224.861 52.5879 224.19C52.8477 223.929 53.1075 223.669 53.3752 223.4C53.6472 223.13 53.9191 222.861 54.1992 222.583C54.4711 222.309 54.743 222.035 55.0232 221.752C55.283 221.493 55.5428 221.234 55.8105 220.967C56.0492 220.729 56.2879 220.491 56.5338 220.246C57.1289 219.727 57.1289 219.727 57.7148 219.727C57.7794 219.563 57.844 219.399 57.9105 219.23C58.4242 218.341 59.0832 217.799 59.8572 217.126C60.778 216.312 61.6574 215.529 62.4207 214.563C62.7016 214.219 62.7016 214.219 62.9883 213.867C63.1816 213.867 63.375 213.867 63.5742 213.867C63.5742 213.674 63.5742 213.48 63.5742 213.281C63.973 212.887 63.973 212.887 64.5435 212.417C66.0073 211.171 67.3742 209.839 68.7359 208.483C69.1573 208.064 69.5818 207.649 70.0064 207.234C72.5193 204.782 72.5193 204.782 74.4141 201.855C74.3109 200.525 73.3541 199.892 72.3999 199.072C71.3938 198.195 70.5356 197.368 69.7266 196.289C72.0469 193.969 74.3672 191.648 76.7578 189.258Z" fill="black"/>
<path d="M72.9492 149.121C73.77 149.498 74.3951 149.9 75.0526 150.517C75.2262 150.679 75.3997 150.842 75.5784 151.009C75.7622 151.183 75.9459 151.358 76.1353 151.538C76.3275 151.719 76.5198 151.9 76.7178 152.086C78.2337 153.521 79.7163 154.987 81.1757 156.479C82.0098 157.327 82.8616 158.133 83.7627 158.909C85.2159 160.165 86.5467 161.532 87.8906 162.902C89.0323 164.057 90.2046 165.148 91.4351 166.207C92.2827 166.956 93.0711 167.758 93.8599 168.567C94.874 169.67 94.874 169.67 96.0938 170.508C96.0938 170.701 96.0938 170.895 96.0938 171.094C96.2587 171.163 96.4236 171.232 96.5936 171.304C97.4216 171.767 97.9793 172.333 98.6435 173.011C99.0383 173.41 99.0383 173.41 99.4411 173.818C99.7171 174.1 99.9929 174.382 100.269 174.664C101.856 176.282 103.436 177.872 105.158 179.345C106.724 180.74 108.164 182.276 109.636 183.768C110.939 185.083 112.255 186.35 113.661 187.554C115.158 188.888 116.536 190.354 117.943 191.782C119.231 193.082 120.534 194.332 121.923 195.523C122.943 196.419 123.877 197.4 124.824 198.371C125.654 199.212 126.499 200.014 127.396 200.784C128.989 202.162 130.445 203.673 131.921 205.174C133.132 206.399 134.367 207.565 135.673 208.688C136.764 209.651 137.766 210.703 138.783 211.743C139.653 212.625 140.537 213.471 141.476 214.279C142.998 215.592 144.387 217.029 145.794 218.462C146.966 219.647 148.164 220.77 149.427 221.857C150.392 222.71 151.293 223.625 152.197 224.542C152.382 224.729 152.567 224.915 152.758 225.107C153.207 225.559 153.654 226.012 154.102 226.465C154.005 226.658 153.908 226.852 153.809 227.051C153.615 227.051 153.422 227.051 153.223 227.051C153.223 227.244 153.223 227.437 153.223 227.637C152.864 227.989 152.864 227.989 152.325 228.425C150.262 230.18 148.392 232.144 146.484 234.064C146.086 234.464 145.687 234.864 145.288 235.264C144.319 236.236 143.351 237.21 142.383 238.184C141.498 237.784 140.857 237.328 140.154 236.662C139.958 236.477 139.762 236.293 139.56 236.102C139.356 235.907 139.151 235.712 138.94 235.51C138.73 235.311 138.519 235.112 138.302 234.907C137.074 233.741 135.867 232.558 134.68 231.35C134.159 230.839 133.617 230.364 133.063 229.889C132.07 229.036 131.143 228.128 130.225 227.197C129.342 226.303 128.456 225.428 127.496 224.615C126.159 223.477 124.941 222.222 123.713 220.968C122.851 220.092 121.975 219.255 121.042 218.454C119.38 217.02 117.867 215.438 116.328 213.875C115.088 212.624 113.83 211.427 112.494 210.28C111.199 209.131 110.008 207.87 108.796 206.636C107.812 205.641 106.823 204.673 105.762 203.76C104.248 202.458 102.869 201.028 101.471 199.604C100.502 198.625 99.5306 197.67 98.4833 196.774C96.769 195.299 95.2086 193.663 93.6221 192.054C91.7176 190.112 91.7176 190.112 89.7034 188.287C87.6241 186.509 85.749 184.494 83.8263 182.551C81.2271 179.917 81.2271 179.917 78.4813 177.439C77.0603 176.187 75.7618 174.795 74.4335 173.446C73.4132 172.415 72.3986 171.399 71.2921 170.461C69.2946 168.746 67.4791 166.826 65.625 164.96C65.2264 164.56 64.8278 164.16 64.4291 163.76C63.4598 162.787 62.4913 161.814 61.5234 160.84C62.2066 159.974 62.8489 159.196 63.7024 158.496C65.9228 156.596 68.0621 154.503 69.928 152.252C70.1516 151.992 70.3751 151.733 70.6055 151.465C70.7988 151.465 70.9922 151.465 71.1914 151.465C71.2639 151.296 71.3364 151.126 71.4111 150.952C71.8262 150.205 72.327 149.702 72.9492 149.121Z" fill="black"/>
</svg>
