<svg width="300" height="300" viewBox="0 0 300 300" fill="none" xmlns="http://www.w3.org/2000/svg">
<path d="M107.226 153.808C107.549 154.426 107.847 155.045 108.142 155.676C112.167 163.973 117.424 172.721 123.726 179.476C123.88 179.644 124.034 179.813 124.192 179.986C124.479 180.296 124.773 180.599 125.076 180.894C125.621 181.482 125.976 181.983 125.977 182.8C125.611 184.725 124.753 186.543 123.962 188.324C123.82 188.644 123.677 188.964 123.531 189.295C120.651 195.634 116.737 201.245 111.913 206.25C111.719 206.459 111.525 206.668 111.325 206.884C103.657 214.937 91.7679 219.213 81.1518 221.484C80.867 221.546 80.5822 221.608 80.2887 221.672C76.3951 222.49 72.558 222.773 68.5907 222.802C68.3786 222.805 68.1664 222.809 67.9479 222.812C64.5129 222.851 61.3625 222.513 58.7843 220.029C56.1118 216.738 56.2569 211.56 56.6076 207.556C57.4907 199.058 60.2254 191.372 63.8666 183.691C64.1566 183.691 64.4467 183.691 64.7455 183.691C65.3313 184.294 65.8623 184.892 66.3935 185.54C66.5508 185.728 66.7081 185.915 66.8703 186.109C67.7747 187.19 68.6597 188.287 69.5429 189.386C72.1548 192.586 75.0746 195.514 77.9818 198.444C78.2713 198.735 78.5603 199.028 78.8489 199.32C80.5611 201.055 82.317 202.671 84.2209 204.193C85.4033 205.139 86.5411 206.135 87.6841 207.128C89.4498 208.657 89.4498 208.657 91.6986 208.886C91.8214 208.069 91.8214 208.069 91.6986 207.129C90.6495 205.956 89.4373 204.957 88.2379 203.942C85.9287 201.981 83.6517 199.995 81.4447 197.918C81.2397 197.726 81.0346 197.533 80.8234 197.334C78.8685 195.491 76.9767 193.638 75.226 191.598C74.6966 191.004 74.1419 190.452 73.5712 189.898C72.3145 188.656 71.2118 187.313 70.1122 185.932C69.674 185.384 69.2309 184.84 68.7876 184.296C68.4655 183.899 68.1436 183.502 67.8217 183.105C67.5893 182.821 67.5893 182.821 67.3522 182.531C66.7252 181.752 66.2362 181.132 65.9174 180.175C66.6784 178.276 67.9094 176.541 69.0485 174.847C69.1599 174.678 69.2712 174.509 69.386 174.335C69.7111 173.864 69.7111 173.864 70.3119 173.144C70.602 173.144 70.892 173.144 71.1908 173.144C71.7298 173.769 71.7298 173.769 72.3444 174.646C73.7224 176.56 75.2303 178.338 76.7828 180.112C77.2223 180.621 77.6562 181.136 78.0878 181.651C80.1554 184.116 82.3395 186.427 84.6252 188.69C85.1853 189.244 85.743 189.801 86.3005 190.359C88.0503 192.104 89.8058 193.819 91.6986 195.41C92.0263 195.695 92.3536 195.98 92.6805 196.266C94.4238 197.776 96.1856 199.256 97.9975 200.683C98.2448 200.879 98.2448 200.879 98.4971 201.078C100.311 202.697 100.311 202.697 102.502 203.247C102.707 203.174 102.913 203.102 103.124 203.027C103.16 202.185 103.145 201.744 102.831 200.976C102.196 200.333 101.512 199.822 100.784 199.286C99.8242 198.575 98.9213 197.817 98.0158 197.039C96.8147 196.015 95.6019 195.009 94.372 194.018C93.2964 193.143 92.2986 192.24 91.3388 191.241C90.8352 190.738 90.314 190.278 89.7715 189.817C88.2912 188.53 86.9113 187.15 85.528 185.76C85.2763 185.51 85.0246 185.259 84.7652 185.001C83.4643 183.698 82.2061 182.376 81.0065 180.98C80.4136 180.292 79.7934 179.631 79.1742 178.967C77.6086 177.251 76.1791 175.444 74.7671 173.601C74.4542 173.197 74.1323 172.8 73.8092 172.404C73.5645 172.1 73.5645 172.1 73.3149 171.789C73.1774 171.622 73.0399 171.455 72.8983 171.283C72.6557 170.8 72.6557 170.8 72.6774 170.266C73.0706 169.342 73.666 168.597 74.2853 167.816C74.4156 167.649 74.5458 167.482 74.68 167.31C75.8041 165.884 76.9888 164.516 78.2221 163.183C80.0239 164.927 81.6692 166.821 83.3124 168.713C85.8839 171.655 88.5744 174.462 91.3414 177.22C91.9035 177.78 92.464 178.342 93.0244 178.905C94.7795 180.661 96.5419 182.378 98.4369 183.984C98.9571 184.459 99.4761 184.934 99.9933 185.412C101.307 186.61 102.656 187.747 104.039 188.863C104.797 189.481 105.543 190.112 106.286 190.749C107.689 191.95 109.107 193.133 110.559 194.275C110.827 194.487 111.095 194.699 111.371 194.918C112.345 195.491 113.139 195.611 114.257 195.703C114.38 194.886 114.38 194.886 114.257 193.945C113.236 192.789 112.054 191.873 110.833 190.942C109.318 189.77 107.875 188.551 106.465 187.252C105.75 186.61 105.012 186.011 104.26 185.412C102.417 183.921 100.709 182.294 98.9897 180.664C98.074 179.796 97.1427 178.948 96.203 178.106C94.4265 176.484 92.7241 174.788 91.0212 173.089C90.8816 172.95 90.742 172.812 90.5981 172.669C89.1094 171.186 87.6542 169.692 86.2865 168.097C85.6209 167.324 84.9235 166.584 84.2279 165.838C82.9225 164.429 81.7094 162.971 80.5658 161.425C80.9808 160.448 81.4687 159.915 82.287 159.246C82.9939 158.654 83.5273 158.16 84.0815 157.415C86.8713 154.19 93.4238 153.642 97.3755 153.343C105.281 152.836 105.281 152.836 107.226 153.808Z" fill="black"/>
<path d="M252.247 51.2691C253.124 51.7372 253.594 52.0815 253.908 53.0429C254.101 54.1854 254.057 54.9337 253.656 56.0298C251.687 57.9551 248.404 58.6566 245.84 59.5706C243.744 60.3208 241.651 61.0756 239.568 61.8607C236.344 63.0694 233.186 64.2206 229.823 64.9757C225.52 65.9608 225.52 65.9608 222.071 68.5542C219.504 72.9479 218.639 78.4248 217.803 83.3808C217.689 84.0141 217.548 84.6313 217.383 85.2535C217.746 85.3501 218.108 85.4468 218.482 85.5464C218.788 85.628 218.788 85.628 219.1 85.7112C219.812 85.8785 219.812 85.8785 220.899 85.8394C220.999 85.6451 221.099 85.4509 221.202 85.2507C222.023 83.6593 222.849 82.0713 223.683 80.487C224.299 79.3145 224.891 78.1387 225.448 76.937C225.619 76.5863 225.619 76.5863 225.794 76.2285C226 75.8082 226.195 75.3828 226.376 74.9516C227.441 72.8485 229.644 72.1081 231.685 71.1881C232.493 70.8215 233.291 70.4356 234.089 70.049C235.109 69.5565 236.134 69.074 237.159 68.5909C237.379 68.4867 237.6 68.3826 237.827 68.2753C241.574 66.5081 245.339 64.7825 249.115 63.0794C249.359 62.9694 249.602 62.8594 249.853 62.746C251.217 62.1298 252.584 61.5205 253.956 60.9219C254.377 60.7377 254.797 60.5517 255.216 60.364C255.803 60.102 256.392 59.8474 256.983 59.5947C257.315 59.4501 257.646 59.3055 257.987 59.1566C259.27 58.8091 260.031 58.8979 261.329 59.1792C262.355 60.0772 262.741 60.613 262.958 61.9624C262.761 63.192 262.397 63.7754 261.622 64.7457C260.806 65.1905 260.806 65.1905 259.78 65.5364C259.582 65.6053 259.384 65.6741 259.18 65.7451C258.711 65.9072 258.241 66.0665 257.77 66.2236C256.815 66.5435 255.863 66.8731 254.912 67.2034C252.519 68.0334 250.121 68.8525 247.724 69.6712C246.904 69.9513 246.084 70.2315 245.264 70.5118C245.062 70.5806 244.861 70.6495 244.653 70.7204C243.648 71.0641 242.643 71.4096 241.64 71.7586C241.247 71.895 240.855 72.0314 240.462 72.1678C240.271 72.2343 240.08 72.3008 239.882 72.3693C238.605 72.8105 237.322 73.2243 236.032 73.6285C235.698 73.7375 235.364 73.8465 235.02 73.9589C234.406 74.1593 233.79 74.3515 233.17 74.5332C230.45 75.4433 229.446 77.3175 228.172 79.7696C228.061 80.0332 227.95 80.2967 227.836 80.5683C227.108 82.2272 226.256 83.7789 225.348 85.345C224.48 86.6874 224.48 86.6874 224.122 88.1832C224.614 88.6242 224.614 88.6242 225.257 89.0804C229.54 92.3399 232.832 96.1545 235.547 100.781C235.649 100.954 235.75 101.127 235.855 101.305C239.03 106.796 242.984 115.209 241.407 121.655C240.454 124.298 238.597 126.165 236.133 127.441C233.235 128.625 230.452 128.798 227.375 128.812C226.906 128.818 226.436 128.824 225.967 128.831C224.989 128.844 224.011 128.853 223.032 128.859C221.792 128.866 220.553 128.882 219.313 128.9C218.345 128.914 217.377 128.924 216.409 128.933C215.952 128.938 215.496 128.943 215.039 128.949C206.869 129.052 200.092 127.29 194.056 121.508C190.064 117.493 188.036 111.985 187.977 106.347C188.031 101.228 189.747 96.6584 192.774 92.5777C192.919 92.3821 193.063 92.1864 193.212 91.9849C196.492 87.8788 201.707 85.2356 206.836 84.3746C207.418 84.3515 208 84.343 208.582 84.3459C208.907 84.3469 209.233 84.3478 209.569 84.3488C209.906 84.3513 210.243 84.3537 210.59 84.3562C210.933 84.3576 211.276 84.3589 211.629 84.3603C212.473 84.3637 213.317 84.3688 214.161 84.3746C214.194 84.161 214.228 83.9474 214.263 83.7273C214.768 80.6062 215.436 77.5372 216.177 74.464C216.334 73.7951 216.485 73.1246 216.629 72.4527C217.895 66.5616 217.895 66.5616 219.564 65.2869C220.638 64.6416 221.761 64.2556 222.95 63.8667C223.468 63.6224 223.983 63.3704 224.492 63.108C224.979 62.8778 225.465 62.6486 225.953 62.4202C228.011 61.4458 230.066 60.4632 232.113 59.4642C232.325 59.3609 232.537 59.2575 232.755 59.151C233.077 58.994 233.077 58.994 233.405 58.8337C237.103 57.029 240.807 55.2394 244.538 53.503C244.87 53.348 245.202 53.193 245.543 53.0333C250.566 50.7089 250.566 50.7089 252.247 51.2691ZM207.88 98.4554C207.035 99.5033 207.028 100.562 207.049 101.853C207.253 103.6 208.363 104.848 209.699 105.916C213.055 108.132 217.71 109.874 221.778 109.57C222.603 109.224 222.603 109.224 223.243 108.691C223.6 107.699 223.674 107.029 223.316 106.023C222.342 104.113 220.904 102.612 219.434 101.074C219.275 100.889 219.116 100.705 218.952 100.515C217.905 99.3487 216.69 98.5245 215.351 97.7229C215.099 97.5671 215.099 97.5671 214.842 97.4081C212.306 95.9642 209.996 96.6652 207.88 98.4554Z" fill="black"/>
<path d="M154.98 129.785C155.108 130.036 155.236 130.287 155.367 130.546C157.673 134.974 160.517 137.646 165.356 139.185C167.122 139.61 168.921 139.553 170.728 139.545C171.104 139.543 171.481 139.542 171.869 139.54C178.333 139.462 185.125 138.543 190.073 134.005C191.253 132.726 192.161 131.266 193.066 129.785C193.797 130.516 193.735 130.971 193.749 131.97C193.746 132.293 193.746 132.293 193.744 132.623C193.742 132.846 193.741 133.068 193.74 133.298C193.657 137.382 192.722 141.374 190.264 144.692C189.078 146.533 188.901 148.316 188.795 150.45C188.742 151.491 188.658 152.529 188.577 153.567C188.562 153.769 188.546 153.97 188.531 154.178C188.347 156.483 187.849 158.624 187.207 160.84C187.048 161.421 186.889 162.002 186.731 162.583C186.617 163.003 186.617 163.003 186.5 163.432C186.415 163.744 186.415 163.744 186.328 164.062C186.571 163.921 186.571 163.921 186.819 163.777C190.029 161.912 193.242 160.087 196.59 158.481C197.199 158.188 197.804 157.89 198.41 157.591C206.459 153.659 206.459 153.659 209.18 154.395C215.41 157.291 219.025 171.292 221.523 177.157C221.968 178.2 222.413 179.243 222.858 180.286C222.969 180.547 223.081 180.809 223.196 181.079C226.623 189.444 226.623 189.444 230.641 197.526C230.859 198.047 230.859 198.047 230.566 198.926C228.975 196.722 227.383 194.518 225.791 192.313C225.636 192.099 225.481 191.884 225.321 191.663C225.007 191.228 224.693 190.793 224.379 190.358C223.582 189.255 222.785 188.152 221.987 187.05C209.957 170.44 209.957 170.44 207.422 160.547C207.183 160.721 206.944 160.895 206.697 161.074C202.232 164.236 197.338 166.428 192.169 168.182C191.853 168.291 191.536 168.399 191.21 168.511C185.294 170.432 185.294 170.432 183.051 169.629C181.827 168.759 181.454 167.75 181.123 166.304C180.822 163.992 180.729 161.762 180.835 159.43C180.846 159.182 180.857 158.934 180.869 158.679C180.979 156.829 181.276 155.038 181.641 153.223C181.438 153.317 181.236 153.412 181.028 153.509C180.104 153.94 179.178 154.369 178.253 154.797C177.776 155.021 177.776 155.021 177.289 155.248C175.729 155.969 174.232 156.633 172.559 157.031C172.528 156.863 172.497 156.695 172.465 156.521C172.322 155.751 172.175 154.981 172.028 154.211C171.979 153.947 171.931 153.682 171.881 153.409C171.404 150.853 171.404 150.853 169.83 148.865C168.867 148.462 168.32 148.366 167.285 148.535C163.715 151.155 162.96 155.653 161.939 159.733C161.801 160.274 161.801 160.274 161.659 160.826C161.579 161.153 161.498 161.48 161.415 161.816C161.133 162.598 161.133 162.598 160.254 163.184C160.174 162.707 160.174 162.707 160.093 162.22C160.018 161.797 159.944 161.373 159.869 160.95C159.835 160.741 159.8 160.532 159.765 160.317C159.478 158.713 159.117 157.273 157.837 156.171C156.701 155.732 156.154 155.8 154.98 156.152C151.387 158.085 149.149 162.334 147.348 165.842C146.519 167.086 145.589 167.755 144.122 168.054C142.915 168.619 142.679 169.429 142.17 170.623C141.081 172.852 138.853 174.783 136.578 175.763C134.622 176.383 132.419 176.437 130.389 176.276C129.216 176.395 128.844 176.864 128.104 177.74C127.982 177.867 127.86 177.994 127.734 178.125C127.541 178.125 127.348 178.125 127.148 178.125C127.148 178.318 127.148 178.512 127.148 178.711C126.245 178.317 125.717 177.911 125.101 177.145C124.944 176.951 124.786 176.757 124.624 176.556C124.46 176.349 124.296 176.141 124.127 175.928C123.956 175.714 123.785 175.499 123.609 175.279C122.379 173.729 121.206 172.16 120.117 170.508C119.992 170.321 119.867 170.134 119.739 169.942C117.666 166.841 115.703 163.681 113.8 160.474C113.7 160.305 113.599 160.135 113.495 159.961C112.411 158.135 111.367 156.31 110.449 154.395C115.096 154.668 120.631 157.562 123.926 160.84C126.621 164.014 126.621 164.014 126.855 165.527C127.022 165.464 127.189 165.4 127.36 165.335C128.825 164.807 129.987 164.549 131.543 164.648C131.592 164.13 131.641 163.611 131.689 163.092C131.717 162.803 131.744 162.514 131.772 162.217C131.848 161.412 131.848 161.412 131.836 160.547C131.969 160.133 132.116 159.724 132.275 159.32C132.357 159.11 132.439 158.901 132.523 158.685C132.586 158.526 132.649 158.367 132.715 158.203C133.15 158.348 133.15 158.348 133.594 158.496C134.054 158.076 134.513 157.656 134.973 157.236C136.75 155.919 139.045 155.283 141.211 154.98C141.197 154.594 141.184 154.208 141.17 153.81C140.987 146.414 142.887 140.654 148.017 135.223C153.251 129.785 153.251 129.785 154.98 129.785Z" fill="black"/>
<path d="M185.741 106.934C185.866 107.691 185.944 108.406 185.998 109.168C186.416 113.53 187.715 117.602 190.591 121.002C192.463 123.218 192.463 123.218 192.513 124.447C192.297 125.316 191.99 126.05 191.601 126.856C191.419 127.292 191.419 127.292 191.233 127.736C189.599 131.381 187.147 133.777 183.526 135.394C179.454 136.939 174.946 137.187 170.635 137.238C170.325 137.244 170.016 137.251 169.696 137.258C165.995 137.247 163.011 136.052 160.253 133.594C157.53 130.694 156.585 127.906 156.656 123.997C156.9 118.611 160.472 114.15 164.169 110.543C169.249 106.066 179.505 102.777 185.741 106.934Z" fill="black"/>
<path d="M168.75 151.172C168.893 151.66 169.033 152.148 169.171 152.637C169.25 152.909 169.328 153.181 169.408 153.461C170.003 155.975 169.976 158.469 169.977 161.041C169.981 161.418 169.984 161.795 169.988 162.183C169.998 168.766 169.998 168.766 168.164 170.801C168.538 170.974 168.538 170.974 168.92 171.152C171.836 172.507 174.746 173.877 177.643 175.272C178.151 175.515 178.659 175.757 179.168 175.998C179.917 176.352 180.664 176.712 181.411 177.072C181.635 177.177 181.859 177.282 182.09 177.39C184.26 178.449 186.376 179.872 187.207 182.227C188.695 187.734 188.257 193.898 187.848 199.527C187.822 199.882 187.797 200.237 187.77 200.603C187.509 204.054 187.112 207.483 186.697 210.918C185.989 216.795 185.376 222.674 184.88 228.573C184.856 228.848 184.833 229.122 184.809 229.405C184.579 232.145 184.355 234.886 184.138 237.627C184.057 238.65 183.974 239.672 183.891 240.695C183.833 241.406 183.779 242.117 183.725 242.829C183.691 243.256 183.656 243.683 183.621 244.11C183.592 244.481 183.563 244.852 183.533 245.233C183.399 246.094 183.399 246.094 182.813 246.68C182.554 243.434 182.296 240.189 182.041 236.943C181.922 235.434 181.803 233.926 181.682 232.418C180.058 212.075 180.058 212.075 180.1 202.637C180.103 201.779 180.1 200.92 180.096 200.062C180.087 188.571 180.087 188.571 182.52 183.984C182.268 183.98 182.016 183.976 181.756 183.972C174.873 183.694 169.075 179.399 164.334 174.704C162.664 172.689 162.997 170.048 163.184 167.578C165.039 151.172 165.039 151.172 168.75 151.172Z" fill="black"/>
<path d="M156.152 158.203C156.442 158.3 156.732 158.396 157.031 158.496C158.276 161.968 157.55 165.34 156.445 168.75C156.353 169.036 156.353 169.036 156.26 169.327C154.138 175.768 150.805 180.011 145.337 183.981C144.536 184.564 143.757 185.165 142.99 185.791C142.716 186.014 142.716 186.014 142.437 186.242C142.094 186.523 141.752 186.807 141.414 187.093C139.988 188.253 138.904 188.379 137.109 188.379C137.034 188.667 136.959 188.955 136.882 189.252C134.155 199.296 128.418 208.016 122.888 216.708C122.458 217.387 122.031 218.068 121.605 218.749C119.575 221.991 117.476 225.182 115.343 228.357C114.564 229.519 113.788 230.684 113.013 231.848C112.725 232.28 112.437 232.712 112.149 233.144C111.622 233.933 111.096 234.724 110.572 235.515C109.294 237.44 108.004 239.355 106.696 241.26C106.565 241.449 106.435 241.639 106.301 241.834C105.451 243.068 104.585 244.29 103.711 245.508C103.614 245.314 103.518 245.121 103.418 244.922C103.718 244.175 103.718 244.175 104.196 243.218C104.282 243.043 104.368 242.869 104.457 242.689C104.644 242.309 104.833 241.929 105.023 241.549C105.536 240.521 106.04 239.488 106.544 238.456C106.65 238.241 106.755 238.026 106.863 237.805C107.978 235.515 109.035 233.199 110.083 230.878C110.175 230.675 110.266 230.472 110.36 230.264C110.722 229.463 111.084 228.661 111.445 227.86C112.264 226.042 113.095 224.23 113.928 222.418C114.846 220.42 115.757 218.419 116.656 216.412C131.708 182.897 131.708 182.897 144.248 177.886C146.737 176.953 146.737 176.953 147.949 176.953C147.901 176.76 147.853 176.566 147.803 176.367C146.98 171.428 149.535 166.196 152.307 162.237C154.936 158.812 154.936 158.812 156.152 158.203Z" fill="black"/>
</svg>
