<svg width="300" height="300" viewBox="0 0 300 300" fill="none" xmlns="http://www.w3.org/2000/svg">
<path d="M108.506 86.9851C110.973 87.8344 112.817 88.9439 114.174 91.2149C116.739 96.5098 115.976 102.094 114.257 107.519C113.531 109.546 112.722 111.148 111.327 112.793C111.144 113.018 110.961 113.244 110.772 113.476C107.757 117.028 104.015 119.477 99.9016 121.582C99.7169 121.677 99.5322 121.772 99.3419 121.87C96.5917 123.269 93.7922 124.28 90.8196 125.097C90.5616 125.17 90.3037 125.242 90.0379 125.317C86.0375 126.282 82.4378 125.866 78.9051 123.75C78.0184 123.177 77.2118 122.622 76.4641 121.875C75.5788 122.338 74.6939 122.802 73.8091 123.266C73.5608 123.396 73.3125 123.526 73.0566 123.66C72.8121 123.788 72.5676 123.917 72.3156 124.049C72.0739 124.175 71.8321 124.302 71.5831 124.432C70.9653 124.768 70.3765 125.13 69.7819 125.505C68.7146 126.043 68.4879 126.016 67.3821 125.683C66.7234 125.314 66.7234 125.314 66.0626 124.852C65.7009 124.602 65.7009 124.602 65.3319 124.347C65.0839 124.171 64.836 123.996 64.5806 123.816C64.3315 123.643 64.0824 123.47 63.8258 123.292C63.153 122.823 62.4822 122.352 61.8157 121.875C61.6016 121.733 61.3875 121.592 61.1669 121.446C60.6438 120.996 60.6438 120.996 60.3691 119.916C60.4162 118.995 60.5838 118.71 61.2526 118.06C62.1052 117.443 62.9788 116.874 63.8665 116.308C64.4554 115.891 65.0415 115.47 65.6243 115.045C65.8841 114.859 66.1439 114.673 66.4116 114.481C67.0882 114.001 67.0882 114.001 67.5469 113.439C67.968 113.086 67.968 113.086 68.5208 113.094C69.3761 113.487 69.8953 114.04 70.5498 114.715C70.8074 114.98 71.0649 115.246 71.3303 115.519C72.1188 116.361 72.8807 117.22 73.6306 118.097C74.4346 119.008 75.3004 119.856 76.1711 120.703C76.193 120.418 76.215 120.133 76.2375 119.84C76.5659 116.189 77.4232 112.77 78.5149 109.277C78.6596 108.805 78.6596 108.805 78.8071 108.323C79.1105 107.354 79.4319 106.393 79.76 105.432C79.8543 105.131 79.9485 104.831 80.0456 104.521C80.783 102.467 80.783 102.467 81.8593 101.822C82.6462 101.52 82.6462 101.52 83.3999 101.311C84.4895 100.932 84.9094 100.25 85.5461 99.3161C85.7516 99.5337 85.957 99.7512 86.1687 99.9753C87.9349 101.665 89.5379 102.417 91.9731 102.649C93.3402 102.598 94.4252 102.208 95.5071 101.367C97.0623 99.5283 97.7499 97.9277 97.5579 95.5076C97.2205 94.4111 96.8086 93.3508 96.386 92.2849C96.241 91.8498 96.241 91.8498 96.093 91.406C95.803 91.2791 95.803 91.2791 95.5071 91.1496C94.9211 90.8201 94.9211 90.8201 94.714 90.1815C94.6122 89.2019 94.7654 88.4757 95.0127 87.5242C95.0901 87.2145 95.1675 86.9048 95.2473 86.5857C96.2991 83.5648 106.181 86.2392 108.506 86.9851Z" fill="black"/>
<path d="M130.957 121.289C132.499 121.634 134.029 122.023 135.56 122.411C136.976 122.761 138.338 123.077 139.793 123.193C140.35 123.266 140.35 123.266 140.918 123.34C141.558 124.3 141.696 124.939 141.915 126.065C141.988 126.439 142.061 126.813 142.136 127.199C142.212 127.603 142.289 128.007 142.365 128.412C142.403 128.615 142.442 128.818 142.482 129.027C142.984 131.664 143.446 134.303 143.811 136.963C143.846 137.218 143.881 137.472 143.917 137.735C144.307 140.758 144.256 143.2 142.383 145.715C141.778 146.455 141.179 147.098 140.453 147.722C137.863 149.983 137.102 152.321 136.249 155.585C135.993 156.511 135.732 157.435 135.472 158.36C135.411 158.579 135.35 158.798 135.287 159.024C133.981 163.691 133.981 163.691 132.422 164.648C128.773 165.486 124.886 164.209 121.782 162.29C120.449 161.323 119.595 160.042 118.671 158.698C118.498 158.453 118.326 158.208 118.148 157.955C117.727 157.356 117.31 156.755 116.895 156.152C117.264 157.499 117.691 158.788 118.19 160.094C118.928 162.141 119.402 164.196 119.791 166.333C119.898 166.923 120.011 167.512 120.124 168.101C120.707 171.175 121.054 174.191 121.106 177.319C121.122 177.688 121.122 177.688 121.139 178.064C121.16 179.625 120.906 180.829 120.338 182.284C119.312 184.963 118.88 187.728 118.394 190.547C118.118 192.15 117.827 193.75 117.539 195.351C117.483 195.663 117.427 195.976 117.369 196.298C115.99 203.986 113.965 210.81 110.819 217.956C109.891 220.077 109.088 222.204 108.398 224.414C108.234 224.413 108.07 224.411 107.901 224.409C107.158 224.403 106.414 224.4 105.67 224.396C105.412 224.393 105.154 224.391 104.888 224.388C104.64 224.387 104.391 224.386 104.136 224.385C103.907 224.384 103.678 224.382 103.443 224.381C102.775 224.39 102.775 224.39 101.953 224.707C102.133 223.092 102.133 223.092 102.667 222.418C103.484 221.798 104.021 221.737 105.029 221.741C105.378 221.74 105.378 221.74 105.734 221.738C106.348 221.777 106.348 221.777 106.934 222.07C106.958 221.901 106.982 221.732 107.007 221.558C107.375 219.377 108.158 217.5 109.076 215.497C109.215 215.188 109.354 214.879 109.496 214.56C110.042 213.349 110.588 212.138 111.163 210.941C111.294 210.664 111.425 210.388 111.56 210.103C111.678 209.861 111.795 209.619 111.917 209.37C112.562 207.646 112.573 205.761 112.69 203.939C112.724 203.427 112.759 202.915 112.794 202.403C112.811 202.137 112.829 201.871 112.848 201.597C113.161 196.937 113.536 192.295 114.068 187.654C114.099 187.378 114.13 187.101 114.162 186.816C114.224 186.309 114.296 185.804 114.38 185.3C114.624 183.734 114.478 182.931 113.635 181.531C108.266 171.962 110.315 157.913 113.068 147.821C113.222 147.449 113.222 147.449 113.379 147.07C114.618 146.657 115.523 147.103 116.711 147.51C117.066 147.631 117.066 147.631 117.428 147.754C121.948 149.346 125.629 152.013 129.125 155.261C129.811 155.883 130.522 156.46 131.25 157.031C131.15 156.814 131.05 156.596 130.947 156.372C130.682 155.342 130.664 154.738 130.738 153.699C131.081 147.651 128.944 143.562 126.098 138.371C124.561 135.565 123.676 133.351 124.091 130.115C124.121 129.86 124.15 129.606 124.181 129.344C124.585 126.217 125.142 123.591 127.734 121.582C128.894 120.809 129.657 121.034 130.957 121.289Z" fill="black"/>
<path d="M196.583 128.613C198.754 132.859 200.323 137.287 201.856 141.797C202.018 142.267 202.018 142.267 202.182 142.747C204.537 149.659 206.399 156.722 208.302 163.77C208.413 164.183 208.413 164.183 208.528 164.605C208.947 166.157 209.365 167.71 209.778 169.264C209.903 169.731 210.027 170.199 210.153 170.667C211.916 177.254 211.916 177.254 211.872 180.469C211.869 180.931 211.869 180.931 211.866 181.403C211.817 182.227 211.817 182.227 211.667 182.776C211.154 185.009 211.761 187.298 212.19 189.496C212.298 190.061 212.405 190.627 212.513 191.192C212.667 192 212.823 192.807 212.979 193.615C213.346 195.519 213.71 197.424 214.073 199.33C214.134 199.652 214.134 199.652 214.197 199.981C214.782 203.05 215.324 206.123 215.833 209.206C215.957 209.947 216.082 210.689 216.206 211.43C216.382 212.48 216.555 213.529 216.719 214.581C217.339 218.565 218.137 221.917 220.285 225.361C220.807 226.203 221.29 227.068 221.778 227.93C221.957 227.927 222.136 227.924 222.32 227.92C223.134 227.908 223.948 227.901 224.763 227.893C225.044 227.888 225.325 227.883 225.615 227.878C225.888 227.876 226.161 227.874 226.442 227.872C226.692 227.869 226.942 227.866 227.199 227.863C228.358 227.969 229.158 228.278 229.981 229.102C230.018 230.164 230.018 230.164 229.981 231.152C229.505 231.111 229.029 231.068 228.553 231.024C228.288 231 228.023 230.977 227.75 230.952C227.052 230.859 227.052 230.859 226.466 230.566C226.158 230.614 225.85 230.662 225.533 230.711C224.375 230.865 223.492 230.809 222.346 230.603C221.833 230.523 221.833 230.523 221.31 230.441C219.848 229.766 219.322 228.72 218.556 227.344C218.368 227.01 218.368 227.01 218.177 226.67C216.658 223.848 215.469 220.959 214.636 217.866C214.55 217.553 214.464 217.24 214.376 216.918C213.371 213.199 212.506 209.447 211.655 205.691C211.522 205.106 211.389 204.522 211.256 203.937C207.423 187.152 207.423 187.152 207.423 185.156C207.211 185.108 207 185.06 206.782 185.01C204.684 183.891 204.009 181.112 203.321 178.986C203.17 178.52 203.17 178.52 203.015 178.046C201.516 173.318 200.664 168.491 199.87 163.605C199.813 163.258 199.813 163.258 199.756 162.905C198.831 157.197 198.066 151.469 197.312 145.737C197.13 144.359 196.947 142.981 196.764 141.604C196.409 138.934 196.056 136.264 195.704 133.594C195.279 134.401 194.958 135.19 194.685 136.06C194.605 136.315 194.525 136.57 194.442 136.832C194.313 137.245 194.313 137.245 194.182 137.666C193.994 138.26 193.807 138.854 193.619 139.449C193.327 140.376 193.036 141.303 192.746 142.23C191.714 145.518 190.659 148.793 189.485 152.034C189.393 152.29 189.3 152.546 189.205 152.81C186.649 159.767 182.755 169.417 175.721 172.732C174.047 173.497 172.919 173.96 171.095 173.438C170.333 172.975 169.685 172.423 169.025 171.826C168.846 171.666 168.666 171.507 168.481 171.342C165.666 168.775 164.184 165.877 163.951 162.022C163.935 161.506 163.924 160.99 163.917 160.474C163.911 160.231 163.906 159.989 163.9 159.739C163.922 157.643 164.536 155.945 165.766 154.248C166.679 153.622 167.356 153.535 168.458 153.516C169.839 154.003 170.642 154.6 171.388 155.859C172.455 158.875 172.603 161.841 171.812 164.931C171.539 166.168 171.576 167.264 171.973 168.457C172.051 168.232 172.129 168.007 172.209 167.776C174.816 160.294 177.852 153.128 182.227 146.484C182.427 146.179 182.628 145.874 182.834 145.559C193.953 128.613 193.953 128.613 196.583 128.613Z" fill="black"/>
<path d="M144.817 96.9056C149.411 100.457 155.288 105.746 156.097 111.822C156.115 112.143 156.133 112.463 156.152 112.793C155.862 112.889 155.572 112.986 155.273 113.086C155.082 113.697 154.892 114.309 154.704 114.921C153.541 117.924 151.325 120.37 148.632 122.077C147.331 122.588 146.202 122.593 144.817 122.571C144.546 122.568 144.275 122.565 143.996 122.562C134.904 122.362 124.651 119.286 118.055 112.792C116.614 111.227 115.547 109.719 115.301 107.574C115.365 106.318 115.719 105.144 116.087 103.948C116.451 102.59 116.609 101.248 116.642 99.846C116.648 99.6358 116.653 99.4257 116.659 99.2091C116.669 98.7789 116.674 98.3486 116.675 97.9183C116.733 96.2377 117.152 95.5116 118.359 94.3357C126.157 88.2537 137.571 91.529 144.817 96.9056Z" fill="black"/>
<path d="M221.778 145.312C223.111 145.784 224.25 146.469 225.44 147.217C225.646 147.346 225.852 147.475 226.064 147.609C229.168 149.588 231.99 151.869 234.669 154.395C234.987 154.685 234.987 154.685 235.312 154.98C238.544 158.038 242.387 162.411 242.614 167.059C242.318 173.85 238.167 179.664 233.389 184.204C231.784 185.673 230.042 186.899 228.224 188.086C228.043 188.207 227.863 188.327 227.677 188.452C218.132 194.824 218.132 194.824 214.161 194.824C213.908 193.611 213.658 192.396 213.41 191.182C213.325 190.769 213.24 190.357 213.154 189.945C213.03 189.35 212.909 188.754 212.788 188.158C212.714 187.801 212.64 187.443 212.565 187.075C212.318 185.489 212.358 184.08 212.696 182.52C212.806 181.013 212.756 179.548 212.482 178.062C211.89 174.733 211.89 174.733 212.521 173.538C213.129 172.931 213.742 172.453 214.454 171.973C218.812 168.561 220.988 163.132 222.364 157.91C222.44 157.624 222.515 157.338 222.593 157.044C223.337 153.703 222.679 150.38 221.96 147.094C221.778 146.191 221.778 146.191 221.778 145.312Z" fill="black"/>
<path d="M100.716 128.525C103.733 128.807 106.33 131.557 108.524 133.488C109.235 134.104 109.971 134.69 110.706 135.279C111.806 136.173 112.822 137.102 113.806 138.122C114.309 138.641 114.309 138.641 115.137 139.289C116.024 140.047 116.75 140.842 117.503 141.73C117.899 142.189 118.306 142.639 118.721 143.082C120.224 144.689 121.412 146.308 122.461 148.242C121.281 148.636 120.613 148.202 119.531 147.73C116.236 146.132 116.236 146.132 112.793 146.192C112.274 146.918 112.274 146.918 111.914 147.656C111.721 147.56 111.527 147.463 111.328 147.364C109.685 147.301 109.685 147.301 108.105 147.656C108.105 147.85 108.105 148.043 108.105 148.242C107.912 148.242 107.719 148.242 107.52 148.242C104.6 145.193 102.773 141.071 100.781 137.403C100.461 139.91 100.155 142.419 99.8692 144.93C97.7157 163.805 97.7157 163.805 94.043 171.735C93.9249 171.991 93.8068 172.247 93.6851 172.511C92.8583 174.224 91.8968 175.83 90.3685 177.009C89.6889 177.853 89.536 178.857 89.2971 179.892C89.2398 180.129 89.1825 180.367 89.1234 180.611C88.9354 181.393 88.7518 182.176 88.5681 182.959C88.4363 183.509 88.3042 184.06 88.1718 184.61C87.5747 187.102 86.9941 189.598 86.4532 192.103C85.398 196.978 84.1905 201.807 82.8402 206.609C82.658 207.262 82.4794 207.917 82.3048 208.572C81.1824 212.764 79.793 215.961 76.9034 219.228C76.2433 219.979 75.625 220.76 75 221.54C74.6856 221.912 74.6856 221.912 74.3649 222.293C73.8336 222.917 73.8336 222.917 73.4653 223.515C72.7769 224.561 72.093 224.864 70.9167 225.11C68.82 225.375 66.7032 225.331 64.5934 225.298C64.3232 225.294 64.0529 225.289 63.7745 225.285C63.5314 225.28 63.2884 225.275 63.038 225.269C62.3486 225.265 62.3486 225.265 61.5234 225.586C61.7022 223.691 61.7022 223.691 62.2192 222.986C63.2402 222.279 64.0229 222.376 65.2027 222.51C68.6421 222.914 68.6421 222.914 71.8462 221.952C72.9264 220.864 73.6123 219.574 74.2678 218.201C74.707 217.383 74.707 217.383 75.3643 216.485C78.0521 212.804 78.8884 208.535 79.8888 204.175C80.0863 203.32 80.2902 202.466 80.494 201.613C81.958 195.478 83.3105 189.323 84.375 183.106C84.4324 182.789 84.4898 182.473 84.549 182.147C85.0236 179.47 85.4891 176.382 84.668 173.731C81.988 164.567 88.9953 151.501 92.5781 143.262C92.6569 143.08 92.7357 142.898 92.8169 142.711C98.8805 128.724 98.8805 128.724 100.716 128.525Z" fill="black"/>
<path d="M155.273 116.016C158.25 118.463 160.812 121.192 163.184 124.219C162.848 124.899 162.502 125.557 162.122 126.215C160.954 129.032 161.64 132.261 162.73 134.973C164.034 137.749 165.775 140.597 168.75 141.797C169.575 141.93 169.575 141.93 170.435 141.98C170.723 142.002 171.012 142.024 171.309 142.046C171.528 142.061 171.747 142.075 171.973 142.09C172.614 144.349 172.435 146.719 171.387 148.828C170.916 149.342 170.916 149.342 170.508 149.707C170.073 149.562 170.073 149.562 169.629 149.414C167.386 149.248 165.397 149.414 163.255 150.101C162.598 150.293 162.598 150.293 161.719 150.293C161.647 150.005 161.574 149.718 161.5 149.421C161.226 148.332 160.95 147.242 160.673 146.153C160.554 145.686 160.436 145.219 160.319 144.752C159.544 141.666 158.672 138.648 157.617 135.645C157.043 135.664 157.043 135.664 156.445 135.938C155.207 138.47 154.918 141.508 154.504 144.269C154.445 144.65 154.385 145.032 154.324 145.425C154.087 146.95 153.852 148.475 153.656 150.006C153.583 150.561 153.583 150.561 153.509 151.127C153.467 151.46 153.426 151.793 153.384 152.136C153.223 152.93 153.223 152.93 152.637 153.516C150.599 153.516 149.393 152.883 147.949 151.465C146.02 149.288 144.678 146.649 144.753 143.689C144.805 143.126 144.857 142.563 144.913 142C145.362 136.753 143.856 131.246 142.823 126.136C142.659 125.305 142.513 124.471 142.383 123.633C142.945 123.621 142.945 123.621 143.518 123.61C144.019 123.593 144.519 123.577 145.02 123.56C145.265 123.555 145.511 123.551 145.765 123.547C148.303 123.449 150.151 122.497 152.022 120.805C153.313 119.361 154.281 117.672 155.273 116.016Z" fill="black"/>
<path d="M243.165 166.406C244.28 167.782 244.824 169.351 245.472 170.984C245.602 171.312 245.732 171.64 245.867 171.978C247.396 175.895 248.549 179.795 249.024 183.984C249.057 184.238 249.089 184.491 249.123 184.752C249.347 186.846 249.356 188.948 249.372 191.052C249.376 191.349 249.38 191.646 249.384 191.952C249.387 194.522 249.335 197.21 247.559 199.219C245.726 200.797 243.419 201.312 241.114 201.855C240.836 201.922 240.557 201.989 240.271 202.058C232.81 203.509 221.912 203.042 215.04 199.512C214.711 198.985 214.711 198.985 214.619 198.413C214.565 198.134 214.565 198.134 214.51 197.85C214.435 196.938 214.444 196.032 214.454 195.117C214.69 195.069 214.69 195.069 214.93 195.02C222.397 193.46 229.209 190.413 235.255 185.742C235.413 185.622 235.571 185.503 235.734 185.379C239.357 182.622 241.762 179.458 242.763 174.952C242.928 173.547 242.884 172.156 242.86 170.745C242.845 169.269 242.952 167.868 243.165 166.406Z" fill="black"/>
<path d="M157.031 137.402C157.992 138.844 158.278 140.537 158.715 142.2C158.767 142.394 158.818 142.589 158.871 142.789C160.565 149.211 161.924 155.691 162.597 162.305C162.625 162.572 162.653 162.838 162.682 163.113C162.894 165.358 162.945 167.596 162.945 169.85C162.945 170.449 162.951 171.049 162.956 171.648C162.972 175.175 162.758 178.679 161.554 182.025C161.426 182.387 161.299 182.748 161.168 183.12C160.839 183.984 160.839 183.984 160.547 184.57C160.495 185.432 160.46 186.287 160.437 187.15C160.429 187.417 160.421 187.685 160.413 187.962C160.386 188.856 160.361 189.75 160.336 190.645C160.317 191.274 160.299 191.904 160.28 192.533C160.231 194.203 160.183 195.873 160.136 197.543C160.08 199.522 160.021 201.501 159.963 203.48C159.915 205.095 159.869 206.709 159.828 208.324C159.759 211.013 159.686 213.7 159.537 216.386C159.48 217.41 159.432 218.434 159.384 219.459C159.36 219.924 159.331 220.389 159.298 220.854C159.087 223.78 159.368 225.524 161.207 227.859C161.718 228.516 161.718 228.516 161.718 229.102C161.424 229.03 161.424 229.03 161.124 228.957C160.084 228.78 159.094 228.77 158.038 228.772C157.466 228.771 157.466 228.771 156.883 228.77C156.081 228.8 155.444 228.859 154.687 229.102C155.055 228.064 155.473 227.381 156.189 226.556C157.075 225.245 157.138 224.119 157.092 222.583C157.086 222.234 157.086 222.234 157.081 221.878C157.068 221.161 157.05 220.444 157.031 219.727C157.022 219.317 157.013 218.907 157.005 218.497C156.982 217.448 156.953 216.398 156.922 215.349C156.801 211.08 156.72 206.81 156.664 202.54C156.661 202.314 156.657 202.089 156.654 201.856C156.624 199.572 156.594 197.287 156.568 195.002C156.558 194.136 156.547 193.269 156.535 192.403C156.53 191.998 156.525 191.593 156.521 191.188C156.566 186.871 156.566 186.871 155.456 182.758C150.876 171.36 153.614 155.135 155.584 143.28C155.622 143.05 155.66 142.82 155.7 142.583C156.38 138.515 156.38 138.515 157.031 137.402Z" fill="black"/>
<path d="M91.1134 81.4453C91.1845 82.4837 91.1337 83.3782 90.8205 84.375C89.9735 85.2706 88.9576 85.8216 87.8908 86.4258C87.3913 86.726 86.8919 87.0263 86.3947 87.3303C85.9179 87.6203 85.4367 87.9033 84.9554 88.1859C82.5563 89.7895 81.2655 91.9248 80.0905 94.4824C79.9749 94.729 79.8593 94.9756 79.7403 95.2297C78.4282 97.8806 78.4282 97.8806 78.2228 100.781C78.9002 101.483 79.7011 101.815 80.5665 102.246C80.4855 102.446 80.4044 102.646 80.3209 102.852C78.2868 107.897 78.2868 107.897 76.7396 113.104C76.6837 113.332 76.6277 113.559 76.5701 113.793C76.2199 115.309 76.0278 116.812 75.879 118.359C75.0001 118.359 75.0001 118.359 74.2277 117.619C73.9273 117.288 73.6295 116.955 73.3339 116.62C73.1788 116.448 73.0236 116.276 72.8638 116.098C72.4017 115.585 71.9428 115.068 71.4845 114.551C71.2364 114.274 70.9883 113.996 70.7326 113.711C70.1996 113.114 69.6689 112.515 69.1408 111.914C68.2396 112.088 67.6923 112.351 66.9858 112.933C66.8046 113.08 66.6234 113.227 66.4367 113.379C66.2475 113.536 66.0582 113.693 65.8632 113.855C65.4703 114.175 65.0774 114.494 64.6844 114.814C64.4946 114.969 64.3047 115.125 64.1091 115.285C63.4165 115.852 62.7196 116.412 62.018 116.968C61.8197 117.126 61.6214 117.285 61.4171 117.448C60.9376 117.773 60.9376 117.773 60.3517 117.773C59.9882 108.645 61.7583 98.3364 68.0604 91.3513C70.1775 89.0874 72.5307 87.3425 75.1283 85.675C75.4355 85.4753 75.4355 85.4753 75.7488 85.2715C76.2661 84.9483 76.804 84.6587 77.3439 84.375C77.6339 84.4717 77.924 84.5684 78.2228 84.668C78.003 84.8987 77.7832 85.1295 77.5568 85.3672C75.4771 87.5714 73.5745 89.8451 71.7775 92.2852C71.6181 92.4991 71.4587 92.7129 71.2945 92.9333C70.7754 93.6309 70.2597 94.3309 69.745 95.0317C69.5821 95.2512 69.4191 95.4707 69.2513 95.6969C67.4882 98.0527 67.4882 98.0527 67.1083 100.873C67.255 101.951 67.255 101.951 67.9059 102.307C69.3476 102.823 70.715 102.749 72.1071 102.136C73.3037 101.044 74.113 99.7869 75.0001 98.4375C76.9861 95.4627 79.0645 92.6108 81.3359 89.8471C81.7017 89.4004 82.0625 88.9495 82.4228 88.4983C83.0628 87.7 83.7141 86.9138 84.3751 86.1328C84.5127 85.9701 84.6502 85.8075 84.7918 85.6399C85.2396 85.1156 85.6943 84.5983 86.1513 84.082C86.358 83.8392 86.358 83.8392 86.569 83.5915C87.8109 82.2153 89.2045 81.4453 91.1134 81.4453Z" fill="black"/>
<path d="M108.106 150.586C109.403 150.864 109.979 151.209 110.742 152.344C110.752 153.116 110.752 153.116 110.655 154.034C110.607 154.545 110.607 154.545 110.557 155.066C110.521 155.424 110.486 155.783 110.449 156.152C110.395 156.863 110.342 157.574 110.293 158.284C110.254 158.831 110.254 158.831 110.215 159.39C110.003 162.527 109.809 165.658 109.809 168.805C109.808 169.198 109.808 169.198 109.807 169.598C109.818 170.952 109.939 172.211 110.175 173.547C110.42 175.907 108.837 178.034 107.52 179.883C107.141 180.326 106.762 180.768 106.382 181.21C105.128 182.773 104.458 184.327 103.81 186.209C103.636 186.69 103.636 186.69 103.459 187.18C103.213 187.861 102.97 188.544 102.729 189.227C102.099 191.012 101.45 192.79 100.803 194.569C100.676 194.92 100.549 195.272 100.418 195.633C99.3541 198.56 98.2234 201.453 97.0278 204.327C96.9487 204.519 96.8695 204.711 96.7879 204.908C95.1996 208.747 93.5445 212.536 91.3699 216.083C91.2237 216.328 91.0776 216.573 90.927 216.825C88.8362 220.278 88.8362 220.278 87.4594 220.969C85.6786 221.405 84.05 221.56 82.2157 221.487C81.4963 221.485 80.9615 221.591 80.2737 221.777C79.5902 221.789 78.9064 221.79 78.2229 221.777C78.1497 220.807 78.1497 220.807 78.2229 219.727C78.8784 219.04 79.2813 218.861 80.227 218.748C80.54 218.752 80.853 218.757 81.1755 218.762C81.5154 218.765 81.8553 218.767 82.2054 218.77C82.5589 218.778 82.9124 218.785 83.2766 218.793C83.6346 218.797 83.9926 218.801 84.3615 218.805C85.2451 218.815 86.1285 218.83 87.012 218.848C87.139 218.515 87.139 218.515 87.2685 218.177C87.7706 216.967 88.4939 215.889 89.1972 214.788C91.2253 211.511 92.3782 207.718 93.677 204.108C93.8117 203.734 93.8117 203.734 93.9491 203.352C95.534 198.934 96.9325 194.493 98.1631 189.963C98.4237 189.016 98.6985 188.074 98.9779 187.133C99.7731 184.385 100.293 181.852 100.342 178.986C100.458 172.493 103.173 166.126 105.563 160.167C106.415 158.04 107.018 155.963 107.465 153.717C107.528 153.413 107.591 153.109 107.657 152.795C107.809 152.059 107.959 151.323 108.106 150.586Z" fill="black"/>
<path d="M208.301 141.375C208.541 141.378 208.781 141.38 209.028 141.382C212.903 141.484 217.973 142.484 221.148 144.835C222.284 146.446 221.901 149.12 221.642 150.956C220.187 158.457 216.377 164.414 211.23 169.921C211.037 169.825 210.844 169.728 210.645 169.628C210.455 169.019 210.298 168.399 210.155 167.777C210.058 167.368 209.961 166.96 209.864 166.551C209.812 166.331 209.761 166.111 209.708 165.885C208.585 161.114 207.26 156.414 205.847 151.721C205.757 151.423 205.668 151.124 205.575 150.817C205.166 149.458 204.754 148.099 204.341 146.741C203.899 145.29 203.462 143.836 203.027 142.382C204.823 141.704 206.379 141.35 208.301 141.375Z" fill="black"/>
<path d="M196.289 146.484C196.342 146.83 196.395 147.176 196.45 147.532C196.7 149.167 196.952 150.801 197.205 152.435C197.25 152.731 197.296 153.028 197.343 153.333C197.83 156.485 198.324 159.634 198.878 162.775C198.92 163.012 198.961 163.249 199.004 163.493C199.2 164.601 199.399 165.709 199.602 166.815C199.673 167.21 199.744 167.605 199.814 167.999C199.876 168.337 199.938 168.675 200.002 169.024C200.097 169.917 200.07 170.532 199.805 171.387C199.308 172.001 198.831 172.527 198.267 173.071C198.11 173.224 197.954 173.377 197.792 173.534C195.293 175.911 191.694 179.004 188.086 179.004C185.345 173.84 184.22 168.522 185.789 162.742C186.629 160.252 187.932 157.918 189.121 155.581C189.557 154.676 189.929 153.76 190.296 152.824C190.891 151.365 191.514 150.398 192.609 149.268C192.874 148.987 193.14 148.706 193.413 148.416C195.511 146.484 195.511 146.484 196.289 146.484Z" fill="black"/>
<path d="M96.9733 69.1402C97.5592 69.7262 97.5592 69.7262 97.6299 70.7746C97.595 72.106 97.3319 73.3421 97.0133 74.6311C96.9569 74.8679 96.9004 75.1048 96.8423 75.3488C96.7231 75.8469 96.6026 76.3447 96.481 76.8422C96.2969 77.595 96.1166 78.3485 95.937 79.1023C94.9895 83.0496 94.9895 83.0496 94.4075 84.8472C93.9894 86.1911 93.8824 87.458 93.8788 88.8607C93.868 89.0867 93.8573 89.3127 93.8462 89.5456C93.8243 90.7994 93.8243 90.7994 94.4272 91.8511C94.8729 92.2071 95.3368 92.5398 95.8014 92.8707C96.6776 94.2512 96.9573 95.9553 96.6803 97.5582C96.1123 99.2878 95.2264 100.331 93.7506 101.367C91.8535 101.999 90.2182 101.644 88.4772 100.781C87.5545 100.139 87.0515 99.6677 86.4264 98.7301C86.1478 96.78 86.9006 95.3724 87.8912 93.7496C88.5321 92.9806 88.5321 92.9806 89.0631 92.5777C89.2565 92.5777 89.4498 92.5777 89.6491 92.5777C89.9469 91.5048 90.2389 90.4304 90.528 89.3551C90.5982 89.0941 90.6684 88.8331 90.7408 88.5643C91.2908 86.4461 91.7223 84.3105 92.1424 82.1637C92.4903 80.3928 92.8779 78.6378 93.3066 76.8844C93.488 76.1496 93.488 76.1496 93.4576 75.2926C92.5226 76.219 91.5892 77.1473 90.6561 78.0758C90.3939 78.3356 90.1316 78.5954 89.8613 78.8631C88.3596 80.3593 86.9265 81.8865 85.5475 83.4957C85.1335 83.9483 84.7186 84.4001 84.3024 84.8507C82.6657 86.6674 81.1749 88.5876 79.6881 90.5269C79.5464 90.7106 79.4047 90.8942 79.2587 91.0834C77.3423 93.5715 75.5346 96.1088 73.8311 98.7481C72.0726 101.45 72.0726 101.45 70.8991 101.869C69.9338 101.977 69.317 102.027 68.4088 101.641C67.7828 100.833 67.8764 100.322 67.9694 99.316C68.3585 98.5401 68.3585 98.5401 68.9215 97.7413C69.2433 97.2836 69.2433 97.2836 69.5715 96.8166C69.8182 96.4775 70.0655 96.1388 70.3131 95.8004C70.5108 95.5268 70.5108 95.5268 70.7125 95.2476C72.6792 92.5333 74.7634 89.9464 76.9769 87.43C77.2793 87.0855 77.5783 86.7381 77.8765 86.3899C81.1026 82.6302 84.6056 79.1095 88.1066 75.6088C88.7984 74.9164 89.4878 74.2216 90.1772 73.5267C90.6209 73.0822 91.0647 72.6378 91.5087 72.1935C91.7126 71.9875 91.9164 71.7816 92.1265 71.5694C94.8087 68.8997 94.8087 68.8997 96.9733 69.1402Z" fill="black"/>
<path d="M63.5748 68.5543C64.2384 69.2746 64.6682 70.1132 65.1312 70.9713C65.435 71.5061 65.7395 72.0405 66.0444 72.5746C66.2094 72.8673 66.3743 73.1601 66.5443 73.4617C67.457 75.0526 68.4198 76.6128 69.378 78.1767C70.2824 79.6527 71.1806 81.1322 72.0709 82.6168C72.2303 82.8769 72.3897 83.1369 72.554 83.4049C72.7595 83.7518 72.7595 83.7518 72.9693 84.1057C73.0873 84.3016 73.2053 84.4976 73.327 84.6994C73.5905 85.399 73.5137 85.7372 73.2428 86.4254C72.7221 86.9141 72.7221 86.9141 72.0892 87.3592C71.8811 87.5084 71.673 87.6576 71.4586 87.8113C70.899 88.1832 70.899 88.1832 70.3131 88.4762C70.272 88.2446 70.2308 88.013 70.1884 87.7744C69.6771 85.2286 68.7869 83.1823 67.5116 80.9322C67.3304 80.6041 67.1493 80.2759 66.9627 79.9377C65.7603 77.7711 64.5257 75.6217 63.2366 73.5053C62.4029 72.1286 62.4029 72.1286 62.4029 71.484C40.5409 78.1848 40.5409 78.1848 20.7945 89.3848C17.9406 91.4833 15.3704 92.967 11.7193 92.5777C10.8221 92.2482 10.8221 92.2482 10.2545 91.6988C9.94322 90.8749 9.94322 90.8749 9.96153 89.941C12.6403 84.2182 22.6772 81.2823 28.143 79.2851C29.7639 78.7032 31.391 78.1396 33.0186 77.577C33.7485 77.3238 34.4776 77.0685 35.2066 76.8128C43.1361 74.0345 51.0989 71.5132 59.2034 69.2962C59.7651 69.1406 60.3252 68.9791 60.8852 68.8177C62.589 68.3361 62.589 68.3361 63.5748 68.5543Z" fill="black"/>
<path d="M115.43 111.914C116.41 112.241 116.555 112.445 117.169 113.232C119.941 116.457 123.703 118.252 127.441 120.117C127.441 120.311 127.441 120.504 127.441 120.703C127.085 121.008 126.716 121.298 126.343 121.582C124.184 123.428 123.61 126.166 123.34 128.906C123.231 131.172 123.27 133.404 123.633 135.645C119.227 132.839 116.114 127.749 114.844 122.754C114.503 121.169 114.487 119.607 114.478 117.993C114.472 117.732 114.465 117.471 114.459 117.202C114.448 115.303 114.791 113.7 115.43 111.914Z" fill="black"/>
<path d="M200.098 172.559C200.684 172.852 200.684 172.852 200.942 173.528C201.028 173.823 201.114 174.119 201.202 174.423C201.299 174.75 201.397 175.077 201.497 175.413C201.647 175.931 201.647 175.931 201.801 176.459C203.069 181.046 203.069 181.046 205.371 185.156C205.371 185.35 205.371 185.543 205.371 185.742C204.402 186.173 203.431 186.599 202.46 187.024C202.188 187.145 201.917 187.266 201.637 187.39C197.377 189.244 197.377 189.244 195.884 188.72C195.631 188.497 195.631 188.497 195.374 188.269C195.183 188.103 194.992 187.937 194.796 187.766C193.872 186.84 193.023 185.869 192.188 184.863C191.828 184.46 191.468 184.057 191.107 183.655C190.301 182.728 189.565 181.836 188.965 180.762C189.11 180.327 189.11 180.327 189.258 179.883C189.952 179.538 189.952 179.538 190.851 179.205C193.704 178.064 195.871 176.621 198.066 174.494C199.163 173.438 199.163 173.438 199.805 173.438C199.901 173.147 199.998 172.857 200.098 172.559Z" fill="black"/>
<path d="M184.863 175.195C185.056 175.195 185.25 175.195 185.449 175.195C185.559 175.479 185.669 175.762 185.782 176.054C185.933 176.439 186.085 176.824 186.236 177.209C186.308 177.395 186.379 177.58 186.453 177.77C186.528 177.959 186.602 178.148 186.679 178.342C186.793 178.63 186.793 178.63 186.908 178.924C187.19 179.595 187.19 179.595 187.587 180.188C188.996 182.484 188.708 184.639 188.43 187.199C188.388 187.648 188.346 188.098 188.306 188.547C188.197 189.723 188.078 190.898 187.957 192.074C187.812 193.498 187.679 194.924 187.544 196.349C187.439 197.459 187.332 198.568 187.219 199.677C186.686 203.414 186.686 203.414 187.365 207.038C187.51 207.386 187.51 207.386 187.658 207.741C187.763 207.98 187.868 208.219 187.976 208.466C188.191 208.98 188.406 209.495 188.62 210.009C188.728 210.263 188.835 210.517 188.946 210.779C189.405 211.874 189.84 212.978 190.265 214.087C190.403 214.442 190.542 214.797 190.685 215.163C191.048 216.316 191.193 217.354 191.308 218.555C191.598 218.458 191.888 218.361 192.187 218.262C193.511 218.111 194.516 218.095 195.703 218.738C196.399 219.564 196.509 220.126 196.582 221.191C196.416 221.144 196.25 221.096 196.079 221.047C195.388 220.894 194.785 220.865 194.078 220.87C193.83 220.871 193.583 220.872 193.328 220.873C192.945 220.876 192.945 220.876 192.553 220.88C192.293 220.881 192.033 220.883 191.765 220.884C191.124 220.888 190.484 220.892 189.844 220.898C189.194 219.204 188.61 217.497 188.049 215.771C187.152 213.04 186.163 210.348 185.136 207.662C185.029 207.38 184.921 207.098 184.81 206.807C184.715 206.558 184.619 206.309 184.52 206.052C184.134 204.97 183.947 204.045 183.945 202.895C183.945 202.629 183.944 202.363 183.943 202.088C183.945 201.794 183.946 201.5 183.948 201.196C183.948 200.881 183.949 200.565 183.951 200.239C184 191.879 184.3 183.537 184.863 175.195Z" fill="black"/>
<path d="M76.541 123.087C77.2072 123.417 77.6969 123.906 78.2507 124.395C79.169 125.069 80.2008 125.473 81.2456 125.915C82.0379 126.273 82.7604 126.688 83.4967 127.149C82.5076 128.176 81.4919 129.064 80.3473 129.914C80.041 130.143 79.7347 130.373 79.4192 130.609C78.6413 131.162 77.8581 131.636 77.0331 132.111C75.7431 132.94 75.5213 133.797 75.1974 135.252C74.81 136.602 73.7739 137.244 72.6568 137.989C71.295 138.145 70.4265 138.209 69.3243 137.348C68.3506 136.304 67.9833 135.587 67.9453 134.153C68.0299 133.084 68.1337 132.022 68.2623 130.957C68.3035 130.61 68.3446 130.262 68.3871 129.904C68.7863 127.536 68.7863 127.536 69.6413 126.603C70.3292 126.129 71.0317 125.766 71.7779 125.391C72.1275 125.182 72.4753 124.971 72.8216 124.757C73.1877 124.535 73.5539 124.313 73.9203 124.091C74.0956 123.983 74.271 123.876 74.4516 123.765C75.706 123.037 75.706 123.037 76.541 123.087Z" fill="black"/>
<path d="M167.871 125.097C171.006 127.296 172.021 131.984 172.717 135.522C172.932 137.128 172.924 138.715 172.851 140.332C171.662 141.075 170.762 141.382 169.355 141.115C166.567 140.208 165.081 137.508 163.769 135.058C162.631 132.654 161.874 130.096 162.652 127.478C163.045 126.462 163.468 125.763 164.355 125.097C165.616 124.677 166.603 124.68 167.871 125.097Z" fill="black"/>
<path d="M141.797 147.949C142.606 148.758 142.615 149.627 142.786 150.714C143.035 152.194 143.335 153.546 143.903 154.944C144.849 157.391 144.6 159.419 143.634 161.831C142.834 163.479 141.804 165.138 140.039 165.82C138.486 166.124 137.061 166.361 135.645 165.527C135.245 165.247 134.851 164.957 134.473 164.648C134.594 164.29 134.715 163.932 134.84 163.564C135.424 161.81 135.964 160.044 136.505 158.276C137.099 156.34 137.099 156.34 137.398 155.376C137.602 154.702 137.799 154.025 137.988 153.346C138.085 153.009 138.181 152.672 138.28 152.324C138.406 151.868 138.406 151.868 138.535 151.402C139.081 150.06 140.055 149.349 141.211 148.535C141.404 148.342 141.598 148.148 141.797 147.949Z" fill="black"/>
<path d="M90.2344 86.4258C89.9179 89.1321 89.3068 90.8213 87.5494 92.8766C86.4314 94.2207 85.8575 95.5748 85.2704 97.2085C84.6801 98.8125 83.9177 100.277 82.3242 101.074C81.0445 101.145 80.2173 101.11 79.1016 100.488C79.2338 98.5431 79.6097 97.0829 80.4749 95.343C80.5806 95.1255 80.6863 94.9081 80.7952 94.684C81.5503 93.1658 82.3548 91.7904 83.4961 90.5273C83.704 90.2696 83.704 90.2696 83.9161 90.0066C85.2577 88.4777 88.1145 86.4258 90.2344 86.4258Z" fill="black"/>
<path d="M60.9368 122.168C61.0873 122.282 61.2378 122.395 61.3929 122.513C62.5465 123.382 63.7055 124.237 64.8919 125.061C65.2681 125.323 65.2681 125.323 65.6518 125.59C65.8361 125.717 66.0204 125.845 66.2103 125.977C65.7972 127.403 65.1752 128.661 64.4879 129.971C64.1912 130.597 64.0053 131.159 63.8665 131.836C64.2351 131.878 64.6037 131.921 64.9835 131.964C65.7493 132.052 66.3493 132.175 67.0892 132.422C67.0553 133.836 67.0145 134.781 66.1187 135.919C64.8418 136.899 64.0502 137.311 62.4017 137.109C61.368 136.522 61.007 136.129 60.5969 135.008C60.3342 133.811 60.3402 132.853 60.4424 131.635C60.4715 131.259 60.5006 130.883 60.5306 130.496C60.6439 129.492 60.6439 129.492 60.7956 128.935C60.9586 128.225 60.9699 127.588 60.9654 126.86C60.9645 126.586 60.9636 126.312 60.9626 126.03C60.9601 125.747 60.9577 125.463 60.9551 125.171C60.9538 124.883 60.9525 124.595 60.9511 124.298C60.9477 123.588 60.9429 122.878 60.9368 122.168Z" fill="black"/>
<path d="M131.543 94.9222C135.324 96.4916 142.531 99.6125 144.434 103.418C143.765 103.088 143.104 102.749 142.446 102.399C139.586 100.909 136.654 99.743 133.594 98.7307C133.392 98.6637 133.19 98.5967 132.982 98.5276C129.097 97.2819 124.635 96.9291 120.667 98.0452C120.013 98.1637 119.572 98.0519 118.945 97.8518C122.519 92.6803 126.02 92.8444 131.543 94.9222Z" fill="black"/>
<path d="M124.512 138.281C125.833 138.942 126.492 141.31 127.124 142.624C127.416 143.21 127.727 143.776 128.052 144.344C129.722 147.374 129.711 150.108 129.493 153.516C128.392 153.28 127.812 152.873 126.947 152.142C125.769 151.156 124.587 150.367 123.228 149.652C122.615 148.965 122.615 148.444 122.66 147.544C122.875 145.804 123.261 144.095 123.633 142.383C123.718 141.984 123.803 141.586 123.887 141.187C124.093 140.218 124.302 139.249 124.512 138.281Z" fill="black"/>
<path d="M77.9297 211.523C78.123 211.813 78.3164 212.104 78.5156 212.402C78.4189 212.692 78.3223 212.982 78.2227 213.281C78.416 213.281 78.6094 213.281 78.8086 213.281C78.8086 213.475 78.8086 213.668 78.8086 213.867C78.5186 214.061 78.2285 214.254 77.9297 214.453C77.833 214.743 77.7363 215.033 77.6367 215.332C77.8301 215.332 78.0234 215.332 78.2227 215.332C78.2227 215.139 78.2227 214.945 78.2227 214.746C78.7537 214.252 78.7537 214.252 79.3945 213.867C79.6846 213.964 79.9746 214.061 80.2734 214.16C79.8356 215.496 79.0784 216.488 78.2043 217.566C78.0614 217.745 77.9184 217.924 77.771 218.108C77.3377 218.649 76.9018 219.188 76.4648 219.727C76.2742 219.962 76.2742 219.962 76.0796 220.202C75.5197 220.893 74.9565 221.58 74.3855 222.261C73.8369 222.913 73.8369 222.913 73.4631 223.518C72.7756 224.563 72.091 224.864 70.9167 225.11C68.82 225.375 66.7032 225.331 64.5934 225.297C64.188 225.291 64.188 225.291 63.7745 225.285C63.5314 225.28 63.2884 225.274 63.038 225.269C62.3486 225.265 62.3486 225.265 61.5234 225.586C61.7022 223.691 61.7022 223.691 62.2192 222.986C63.2402 222.279 64.0229 222.376 65.2027 222.51C68.6421 222.914 68.6421 222.914 71.8462 221.951C72.9551 220.835 73.6586 219.491 74.3473 218.088C74.8248 217.152 75.3941 216.291 75.971 215.413C77.2021 213.584 77.2021 213.584 77.9297 211.523Z" fill="black"/>
<path d="M162.305 116.016C162.466 116.129 162.628 116.242 162.794 116.358C164.07 117.345 165.044 118.569 166.04 119.824C166.178 119.998 166.317 120.172 166.459 120.351C167.264 121.39 167.962 122.405 168.457 123.633C168.36 123.923 168.264 124.213 168.164 124.512C167.999 124.412 167.834 124.312 167.664 124.209C166.865 123.873 166.465 123.961 165.619 124.091C164.598 124.106 164.203 124.051 163.43 123.365C162.876 122.663 162.35 121.946 161.826 121.221C161.05 120.217 160.159 119.314 159.283 118.396C158.189 117.246 157.122 116.104 156.152 114.844C156.445 114.258 156.445 114.258 156.981 114.063C158.988 113.753 160.75 114.894 162.305 116.016Z" fill="black"/>
<path d="M172.53 151.509C174.13 152.679 174.836 154.226 175.195 156.153C175.126 157.829 174.433 159.339 173.73 160.84C173.537 160.84 173.344 160.84 173.145 160.84C173.123 160.553 173.101 160.267 173.078 159.971C172.808 157.28 172.427 155.268 170.322 153.38C169.144 152.565 168.079 152.499 166.72 152.737C164.976 153.293 164.254 154.994 163.453 156.506C163.364 156.68 163.275 156.853 163.184 157.031C162.494 155.997 162.405 155.102 162.268 153.9C162.243 153.695 162.217 153.489 162.191 153.277C162.129 152.771 162.07 152.265 162.012 151.758C162.475 151.568 162.939 151.379 163.403 151.19C163.662 151.085 163.92 150.98 164.186 150.871C166.994 149.812 169.959 149.956 172.53 151.509Z" fill="black"/>
<path d="M206.836 188.086C207.13 189.392 207.423 190.698 207.715 192.004C207.799 192.377 207.883 192.749 207.969 193.133C208.048 193.488 208.128 193.843 208.209 194.208C208.283 194.537 208.357 194.865 208.432 195.203C208.594 195.996 208.594 195.996 208.594 196.582C207.184 196.162 205.933 195.563 204.657 194.842C204.456 194.729 204.255 194.616 204.048 194.5C201.824 193.219 199.786 191.699 197.754 190.136C197.851 189.943 197.947 189.75 198.047 189.551C198.775 189.406 198.775 189.406 199.731 189.294C201.523 189.051 203.147 188.596 204.85 188C205.696 187.785 206.026 187.844 206.836 188.086Z" fill="black"/>
<path d="M96.6797 81.1523C102.038 81.8996 107.618 83.0245 111.328 87.3047C110.338 87.3047 109.894 87.0793 109.003 86.6638C104.797 84.8779 100.33 84.1555 95.8008 83.7891C96.0908 82.9189 96.3809 82.0488 96.6797 81.1523Z" fill="black"/>
<path d="M182.226 143.555C182.323 143.748 182.419 143.941 182.519 144.141C182.271 144.666 182.271 144.666 181.871 145.304C181.725 145.542 181.579 145.779 181.428 146.023C181.268 146.278 181.109 146.533 180.944 146.796C179.301 149.469 177.798 152.19 176.366 154.98C174.587 152.615 174.587 152.615 174.666 151.642C174.944 150.74 175.313 150.312 175.964 149.634C176.79 148.752 177.531 147.869 178.234 146.887C179.331 145.439 180.698 144.511 182.226 143.555Z" fill="black"/>
</svg>
