<svg width="300" height="300" viewBox="0 0 300 300" fill="none" xmlns="http://www.w3.org/2000/svg">
<path d="M147.542 74.648C147.826 74.6463 148.11 74.6447 148.403 74.6429C149 74.6402 149.596 74.6383 150.193 74.6371C151.092 74.6343 151.991 74.6252 152.891 74.616C160.228 74.5763 166.91 76.1581 172.318 81.4641C177.026 86.2773 179.071 92.4331 179.032 99.0788C179.032 99.4933 179.032 99.4933 179.031 99.9161C179.03 100.791 179.026 101.665 179.022 102.54C179.021 103.136 179.019 103.732 179.018 104.328C179.015 105.783 179.009 107.237 179.004 108.692C176.974 108.692 174.943 108.692 172.852 108.692C172.948 111.496 173.045 114.299 173.144 117.188C174.208 117.478 175.271 117.768 176.367 118.067C177.528 118.56 177.528 118.56 178.528 119.074C178.862 119.243 179.197 119.412 179.542 119.586C180.423 120.091 181.183 120.605 181.934 121.29C181.934 121.483 181.934 121.676 181.934 121.875C182.224 121.972 182.514 122.069 182.812 122.168C186.436 125.781 187.553 131.113 187.994 135.975C188.032 136.371 188.071 136.767 188.109 137.162C188.202 138.121 188.292 139.08 188.379 140.04C188.476 140.04 188.572 140.04 188.672 140.04C188.679 141.18 188.684 142.32 188.688 143.46C188.69 144.034 188.694 144.607 188.698 145.181C188.703 147.283 188.626 149.351 188.446 151.446C188.34 152.863 188.336 154.275 188.342 155.695C188.341 155.959 188.34 156.223 188.339 156.496C188.341 158.473 188.427 160.442 188.525 162.416C188.675 165.474 188.717 168.525 188.71 171.586C188.708 172.413 188.71 173.239 188.712 174.066C188.713 176.777 188.664 179.476 188.524 182.184C188.343 185.702 188.346 189.215 188.361 192.737C188.362 193.371 188.363 194.005 188.365 194.639C188.368 196.166 188.373 197.693 188.379 199.219C188.186 199.219 187.992 199.219 187.793 199.219C187.81 199.594 187.826 199.969 187.843 200.356C187.842 201.929 187.467 203.279 186.987 204.767C186.908 205.023 186.828 205.279 186.746 205.542C186.199 207.276 185.606 208.984 184.863 210.645C184.67 210.645 184.477 210.645 184.277 210.645C184.235 210.875 184.193 211.104 184.149 211.341C183.984 212.11 183.984 212.11 183.691 212.696C183.498 212.696 183.305 212.696 183.105 212.696C183.075 212.883 183.045 213.07 183.014 213.263C182.947 213.463 182.881 213.662 182.812 213.868C182.522 213.964 182.232 214.061 181.934 214.161C181.579 214.747 181.579 214.747 181.348 215.333C181.154 215.333 180.961 215.333 180.762 215.333C180.762 215.526 180.762 215.719 180.762 215.918C180.568 215.918 180.375 215.918 180.176 215.918C180.079 216.208 179.982 216.499 179.883 216.797C179.689 216.797 179.496 216.797 179.297 216.797C179.297 216.991 179.297 217.184 179.297 217.383C178.711 217.774 178.125 218.165 177.539 218.555C177.4 218.755 177.261 218.954 177.118 219.159C176.573 219.836 176.017 220.05 175.218 220.359C174.522 220.641 173.867 220.976 173.199 221.32C171.932 221.964 170.645 222.504 169.316 223.009C168.758 223.197 168.758 223.197 168.457 223.536C167.933 223.597 167.408 223.643 166.882 223.682C165.961 223.75 165.235 223.828 164.355 224.122C163.902 224.155 163.447 224.173 162.992 224.182C162.716 224.188 162.44 224.193 162.156 224.199C161.711 224.207 161.711 224.207 161.258 224.214C160.953 224.22 160.649 224.226 160.335 224.233C159.362 224.252 158.389 224.269 157.416 224.286C156.756 224.299 156.097 224.312 155.438 224.325C153.82 224.356 152.203 224.386 150.586 224.415C150.586 224.608 150.586 224.801 150.586 225C149.329 224.807 148.072 224.614 146.777 224.415C146.777 224.318 146.777 224.221 146.777 224.122C146.521 224.117 146.265 224.113 146 224.109C136.504 223.932 127.289 223.284 120.249 216.037C116.731 212.133 114.599 207.512 113.379 202.442C113.311 202.164 113.242 201.885 113.172 201.598C112.248 197.244 112.456 192.577 112.457 188.146C112.457 187.586 112.456 187.027 112.454 186.468C112.452 184.965 112.451 183.463 112.451 181.961C112.451 181.019 112.45 180.077 112.449 179.136C112.447 175.843 112.445 172.549 112.446 169.256C112.446 166.199 112.443 163.141 112.438 160.084C112.434 157.446 112.433 154.809 112.433 152.171C112.433 150.601 112.432 149.032 112.429 147.462C112.426 145.986 112.426 144.51 112.428 143.034C112.429 142.496 112.428 141.958 112.426 141.42C112.403 134.058 113.392 127.237 118.756 121.756C120.308 120.235 121.747 119.415 123.761 118.58C123.943 118.504 124.125 118.428 124.312 118.35C125.713 117.8 126.754 117.677 128.32 117.481C128.224 114.581 128.127 111.68 128.027 108.692C124.837 108.547 124.837 108.547 121.582 108.399C121.568 106.894 121.557 105.389 121.55 103.884C121.547 103.374 121.543 102.864 121.538 102.354C121.457 94.131 122.893 86.7824 128.758 80.6988C133.85 75.7921 140.76 74.6799 147.542 74.648ZM130.371 83.4966C130.189 83.6729 130.006 83.8493 129.818 84.031C124.085 89.97 124.512 98.0288 124.512 105.762C141.624 105.762 158.736 105.762 176.367 105.762C176.169 93.6932 176.169 93.6932 170.508 83.7895C170.353 83.6071 170.197 83.4247 170.037 83.2368C167.158 80.073 162.785 78.0954 158.526 77.889C158.231 77.887 157.936 77.885 157.632 77.883C157.125 77.8787 157.125 77.8787 156.608 77.8744C156.247 77.8732 155.885 77.8719 155.513 77.8707C154.947 77.8682 154.947 77.8682 154.369 77.8656C153.571 77.8625 152.772 77.8608 151.974 77.8598C151.163 77.8585 150.353 77.8545 149.542 77.8478C142.127 77.7879 135.866 77.8433 130.371 83.4966ZM131.25 108.692C131.25 111.496 131.25 114.299 131.25 117.188C144.012 117.188 156.773 117.188 169.922 117.188C169.991 112.447 169.991 112.447 169.629 108.692C156.964 108.692 144.299 108.692 131.25 108.692ZM119.767 124.685C116.498 129.051 115.342 133.756 115.43 139.161C116.202 139.547 116.773 139.491 117.639 139.492C117.991 139.492 118.342 139.493 118.704 139.494C119.103 139.494 119.502 139.493 119.901 139.493C120.331 139.493 120.761 139.493 121.19 139.494C122.4 139.494 123.609 139.493 124.819 139.491C125.591 139.49 126.364 139.49 127.137 139.489C146.379 139.48 165.622 139.302 184.863 139.161C184.873 138.425 184.88 137.689 184.886 136.953C184.891 136.645 184.891 136.645 184.895 136.331C184.922 131.69 183.245 127.5 180.176 124.036C176.807 120.825 172.429 120.321 168.006 120.335C167.58 120.334 167.154 120.333 166.728 120.332C165.579 120.329 164.43 120.33 163.28 120.332C162.073 120.333 160.866 120.332 159.658 120.331C157.631 120.33 155.604 120.331 153.577 120.334C151.24 120.337 148.902 120.336 146.564 120.333C144.551 120.331 142.538 120.33 140.526 120.332C139.326 120.333 138.126 120.333 136.927 120.331C135.798 120.329 134.67 120.33 133.541 120.334C133.129 120.334 132.717 120.334 132.305 120.333C127.67 120.32 123.036 121.044 119.767 124.685ZM115.723 142.383C115.723 143.93 115.723 145.477 115.723 147.071C116.708 147.087 116.708 147.087 117.714 147.104C118.363 147.118 119.011 147.133 119.66 147.148C120.105 147.157 120.55 147.166 120.995 147.172C125.853 147.248 130.557 147.98 134.237 151.477C138.254 155.841 138.95 161.124 138.961 166.853C138.963 167.225 138.966 167.597 138.969 167.98C138.977 168.986 138.982 169.992 138.986 170.998C138.99 172.054 138.998 173.111 139.006 174.167C139.019 176.161 139.03 178.155 139.04 180.149C139.051 182.422 139.066 184.695 139.08 186.968C139.11 191.638 139.137 196.307 139.16 200.977C143.346 201.229 143.346 201.229 147.537 201.33C147.925 201.332 147.925 201.332 148.321 201.335C148.857 201.337 149.392 201.339 149.928 201.34C150.74 201.343 151.552 201.352 152.364 201.362C156.103 201.412 156.103 201.412 159.668 200.391C159.932 200.274 160.197 200.157 160.469 200.036C164.289 197.83 166.278 194.956 167.578 190.723C167.804 189.561 167.908 188.459 167.913 187.276C167.915 186.95 167.917 186.624 167.919 186.288C167.921 185.765 167.921 185.765 167.923 185.231C167.929 184.482 167.936 183.734 167.944 182.985C167.954 181.813 167.963 180.64 167.967 179.468C167.992 173.042 168.121 167.271 172.776 162.325C175.931 159.437 179.494 158.438 183.63 158.026C184.527 158.014 184.527 158.014 184.863 157.618C184.893 156.768 184.904 155.925 184.902 155.075C184.902 154.816 184.903 154.558 184.903 154.291C184.903 153.741 184.903 153.191 184.901 152.641C184.9 151.809 184.901 150.977 184.903 150.145C184.903 149.609 184.903 149.074 184.902 148.538C184.903 148.17 184.903 148.17 184.904 147.795C184.897 145.961 184.738 144.228 184.57 142.383C161.851 142.383 139.131 142.383 115.723 142.383ZM115.43 150.293C115.425 158.549 115.44 166.804 115.484 175.059C115.495 177.289 115.505 179.519 115.509 181.75C115.513 183.725 115.521 185.7 115.534 187.676C115.54 188.711 115.545 189.747 115.544 190.782C115.545 199.82 116.61 207.703 123.082 214.551C128.72 219.776 135.263 220.7 142.672 220.694C143.268 220.695 143.863 220.696 144.458 220.698C145.701 220.7 146.945 220.7 148.188 220.698C149.77 220.697 151.352 220.702 152.933 220.708C154.162 220.713 155.39 220.713 156.618 220.712C157.201 220.712 157.784 220.714 158.366 220.717C164.827 220.746 170.645 219.875 175.781 215.625C176.128 215.35 176.128 215.35 176.483 215.068C181.28 211.072 184.206 204.49 184.899 198.353C184.923 198.137 184.948 197.921 184.973 197.699C185.215 195.399 185.231 193.107 185.211 190.796C185.209 190.308 185.207 189.819 185.205 189.331C185.16 179.932 184.998 170.532 184.863 161.133C184.347 161.13 183.83 161.127 183.314 161.125C183.026 161.124 182.739 161.122 182.442 161.121C179.769 161.163 177.535 162.095 175.488 163.77C175.283 163.935 175.078 164.101 174.867 164.271C172.183 166.676 170.969 170.178 170.746 173.715C170.725 174.664 170.72 175.612 170.721 176.562C170.715 177.279 170.709 177.996 170.702 178.713C170.696 179.827 170.691 180.942 170.689 182.056C170.672 188.785 170.372 194.847 165.438 199.959C162.099 203.027 158.037 204.2 153.559 204.26C153.37 204.263 153.181 204.266 152.986 204.269C152.37 204.278 151.753 204.285 151.136 204.292C150.706 204.298 150.275 204.305 149.845 204.311C148.717 204.327 147.59 204.341 146.462 204.356C145.309 204.37 144.156 204.387 143.004 204.403C140.746 204.434 138.488 204.464 136.23 204.493C136.231 204.3 136.231 204.107 136.231 203.909C136.238 199.196 136.243 194.482 136.246 189.769C136.247 187.49 136.249 185.21 136.253 182.931C136.255 180.942 136.257 178.952 136.258 176.963C136.258 175.912 136.259 174.861 136.261 173.81C136.279 168.349 136.279 168.349 136.112 162.892C136.102 162.677 136.092 162.462 136.082 162.24C135.866 158.53 134.291 155.529 131.616 152.985C129.225 151.01 126.593 150.244 123.555 150.265C123.323 150.265 123.09 150.266 122.851 150.266C122.11 150.268 121.37 150.271 120.63 150.275C120.127 150.277 119.624 150.278 119.122 150.279C117.891 150.282 116.66 150.288 115.43 150.293Z" fill="black"/>
</svg>
