<svg width="300" height="300" viewBox="0 0 300 300" fill="none" xmlns="http://www.w3.org/2000/svg">
<path d="M138.319 62.2619C138.555 62.3442 138.79 62.4265 139.032 62.5114C139.268 62.5922 139.504 62.673 139.747 62.7563C140.332 62.9874 140.332 62.9874 140.625 63.2804C140.661 64.0877 140.678 64.888 140.683 65.6958C140.685 65.9521 140.688 66.2083 140.691 66.4724C140.699 67.3379 140.706 68.2034 140.712 69.0689C140.718 69.6866 140.724 70.3043 140.73 70.9221C140.746 72.6047 140.76 74.2874 140.773 75.9701C140.788 77.7265 140.804 79.4829 140.82 81.2393C140.85 84.5678 140.879 87.8964 140.907 91.2249C140.939 95.0133 140.973 98.8016 141.007 102.59C141.077 110.385 141.145 118.18 141.211 125.976C142.752 126.383 144.012 126.628 145.606 126.562C145.688 124.422 145.771 122.283 145.853 120.144C145.866 119.808 145.879 119.472 145.892 119.126C146.059 114.787 146.225 110.449 146.39 106.11C146.52 102.687 146.651 99.2641 146.782 95.8413C146.862 93.7742 146.94 91.7071 147.019 89.64C147.624 73.6479 147.624 73.6479 147.924 67.8155C147.947 67.3679 147.969 66.9203 147.99 66.4726C148.018 65.8808 148.05 65.2893 148.083 64.6978C148.1 64.3774 148.116 64.057 148.134 63.7269C148.242 62.9874 148.242 62.9874 148.828 62.4015C149.378 62.3134 149.378 62.3134 150 62.3099C150.206 62.305 150.411 62.3001 150.623 62.2951C150.804 62.3302 150.985 62.3653 151.172 62.4015C151.851 63.4193 151.857 63.8829 151.917 65.0906C151.927 65.2822 151.937 65.4738 151.948 65.6713C151.982 66.3375 152.011 67.0039 152.041 67.6704C152.064 68.1669 152.088 68.6634 152.112 69.1599C152.503 77.6105 152.747 86.0688 153.022 94.5239C153.127 97.7394 153.233 100.955 153.339 104.171C153.355 104.653 153.371 105.136 153.387 105.619C153.395 105.855 153.403 106.091 153.411 106.335C153.456 107.706 153.501 109.077 153.546 110.448C153.718 115.722 153.901 120.995 154.102 126.269C155.359 126.269 156.615 126.269 157.91 126.269C158.443 124.937 158.577 124.286 158.607 122.904C158.615 122.616 158.615 122.616 158.622 122.322C158.638 121.666 158.65 121.009 158.661 120.352C158.672 119.867 158.682 119.381 158.693 118.896C158.73 117.154 158.76 115.413 158.789 113.671C158.795 113.331 158.801 112.991 158.807 112.641C158.909 106.552 158.996 100.462 159.082 94.3717C159.164 88.6279 159.248 82.8843 159.341 77.1407C159.363 75.7706 159.384 74.4006 159.402 73.0304C159.422 71.6012 159.445 70.172 159.472 68.7429C159.481 68.2435 159.488 67.7441 159.493 67.2447C159.501 66.5792 159.514 65.914 159.529 65.2486C159.534 64.8856 159.54 64.5226 159.546 64.1485C159.668 63.2804 159.668 63.2804 160.079 62.7233C160.95 62.1248 161.868 62.3512 162.891 62.4015C163.216 63.0525 163.252 63.4798 163.306 64.203C163.326 64.4593 163.346 64.7156 163.366 64.9796C163.386 65.2629 163.407 65.5463 163.428 65.8382C163.45 66.1379 163.472 66.4377 163.496 66.7465C163.57 67.7578 163.643 68.7692 163.715 69.7806C163.74 70.134 163.766 70.4873 163.792 70.8514C164.815 85.1415 165.548 99.4482 166.128 113.763C166.161 114.574 166.194 115.385 166.227 116.197C166.25 116.765 166.25 116.765 166.274 117.345C166.381 119.931 166.513 122.514 166.699 125.097C167.782 125.338 168.456 125.407 169.519 125.06C169.741 124.993 169.962 124.926 170.19 124.856C171.048 124.371 171.263 123.945 171.68 123.046C171.81 122.137 171.803 121.237 171.797 120.32C171.798 120.041 171.799 119.762 171.8 119.474C171.802 118.528 171.796 117.583 171.79 116.637C171.789 116.305 171.788 115.972 171.787 115.63C171.733 101.133 170.965 86.6265 170.19 72.1529C170.172 71.8118 170.154 71.4707 170.135 71.1193C170.102 70.4963 170.068 69.8733 170.034 69.2503C169.99 68.4324 169.954 67.6145 169.922 66.796C169.909 66.5015 169.895 66.207 169.881 65.9036C169.873 65.6155 169.865 65.3273 169.857 65.0305C169.848 64.7718 169.84 64.5131 169.831 64.2465C169.922 63.5734 169.922 63.5734 170.324 63.0522C170.946 62.5857 171.404 62.5488 172.174 62.4931C172.411 62.4738 172.648 62.4545 172.892 62.4347C173.072 62.4237 173.252 62.4128 173.438 62.4015C173.859 63.5791 174.14 64.6908 174.309 65.9293C174.357 66.2751 174.405 66.621 174.455 66.9773C174.53 67.5367 174.53 67.5367 174.606 68.1075C174.66 68.5035 174.715 68.8995 174.769 69.2955C174.914 70.3546 175.057 71.4141 175.199 72.4737C175.287 73.1323 175.376 73.7908 175.465 74.4493C176.426 81.5571 177.324 88.6697 178.064 95.8042C178.119 96.3215 178.175 96.8386 178.231 97.3556C182.252 134.357 182.252 134.357 173.474 145.66C173.077 146.134 172.674 146.604 172.266 147.069C172.092 147.268 171.918 147.466 171.739 147.67C169.523 150.033 166.743 151.793 163.994 153.472C159.961 155.937 156.974 158.617 155.603 163.311C154.595 168.452 154.543 173.852 154.356 179.074C154.343 179.414 154.331 179.754 154.318 180.104C154.081 186.794 154.065 193.479 154.086 200.172C154.087 200.427 154.087 200.682 154.088 200.945C154.102 205.689 154.124 210.433 154.153 215.177C154.169 217.833 154.182 220.488 154.188 223.144C154.192 224.634 154.201 226.124 154.214 227.614C154.221 228.532 154.223 229.449 154.224 230.367C154.225 230.79 154.228 231.214 154.234 231.637C154.241 232.216 154.24 232.794 154.239 233.373C154.241 233.695 154.242 234.018 154.244 234.351C154.037 235.661 153.427 236.628 152.375 237.439C151.05 238.07 150.033 238.381 148.535 238.183C147.298 237.649 146.773 237.041 146.192 235.839C146.114 235.088 146.083 234.411 146.097 233.661C146.097 233.445 146.097 233.228 146.098 233.005C146.1 232.282 146.108 231.558 146.116 230.835C146.119 230.316 146.121 229.797 146.122 229.278C146.127 228.163 146.133 227.047 146.142 225.931C146.163 223.252 146.169 220.572 146.177 217.892C146.178 217.274 146.18 216.655 146.182 216.037C146.203 209.459 146.152 202.883 146.073 196.306C146.064 195.493 146.055 194.681 146.046 193.869C147.277 174.598 147.277 174.598 141.211 157.616C141.211 157.423 141.211 157.23 141.211 157.03C140.954 156.912 140.954 156.912 140.692 156.791C140.037 156.443 139.543 156.06 138.977 155.584C137.668 154.54 136.277 153.706 134.839 152.856C128.669 149.154 124.419 144.297 122.414 137.252C121.361 132.877 120.953 128.539 120.937 124.043C120.935 123.665 120.933 123.287 120.931 122.897C120.925 121.671 120.923 120.445 120.923 119.219C120.923 119.009 120.923 118.799 120.923 118.582C120.922 111.343 121.158 104.179 121.875 96.9718C121.936 96.3517 121.996 95.7316 122.056 95.1114C122.817 87.3659 123.719 79.6395 124.732 71.923C124.775 71.5896 124.819 71.2562 124.864 70.9126C124.987 69.9705 125.113 69.0287 125.24 68.0869C125.276 67.8115 125.312 67.5361 125.35 67.2523C125.927 63.037 125.927 63.037 126.563 62.4015C127.137 62.342 127.137 62.342 127.845 62.3283C128.076 62.3207 128.308 62.3132 128.547 62.3054C129.199 62.4015 129.199 62.4015 129.676 62.7384C130.25 63.5115 130.17 64.0636 130.143 65.0179C130.135 65.3595 130.127 65.7011 130.119 66.053C130.105 66.3949 130.092 66.7368 130.078 67.089C130.063 67.5291 130.063 67.5291 130.048 67.9781C130.012 68.8645 129.968 69.7501 129.922 70.636C129.905 70.9682 129.888 71.3004 129.871 71.6427C129.835 72.3578 129.799 73.073 129.762 73.7881C129.703 74.9291 129.645 76.0702 129.588 77.2113C129.476 79.4367 129.363 81.6621 129.249 83.8874C129.106 86.7013 128.963 89.5152 128.821 92.3292C128.756 93.6313 128.689 94.9333 128.622 96.2353C128.435 99.9051 128.274 103.575 128.151 107.247C128.139 107.605 128.127 107.963 128.114 108.331C128.021 111.24 127.982 114.147 127.989 117.058C127.991 117.837 127.989 118.616 127.988 119.395C127.988 119.899 127.988 120.402 127.989 120.906C127.988 121.135 127.988 121.364 127.987 121.6C127.991 122.621 128.047 123.529 128.321 124.511C128.665 124.608 129.009 124.704 129.364 124.804C129.558 124.858 129.752 124.913 129.951 124.969C130.878 125.135 131.776 125.104 132.715 125.097C132.728 124.895 132.74 124.693 132.753 124.485C133.063 119.476 133.374 114.468 133.686 109.46C133.836 107.038 133.987 104.616 134.137 102.194C134.708 92.9596 135.28 83.7255 135.914 74.4955C135.963 73.7859 136.011 73.0762 136.058 72.3665C136.605 64.2465 136.605 64.2465 137.11 62.4015C137.696 62.1085 137.696 62.1085 138.319 62.2619Z" fill="black"/>
</svg>
