<svg width="300" height="300" viewBox="0 0 300 300" fill="none" xmlns="http://www.w3.org/2000/svg">
<path d="M68.5543 72.3633C70.095 72.5224 71.383 72.9092 72.8035 73.5329C73.232 73.7156 73.6604 73.8983 74.0889 74.081C74.3119 74.1772 74.5349 74.2734 74.7647 74.3724C85.8967 79.161 97.1816 83.5309 109.454 83.5423C109.809 83.5438 110.163 83.5453 110.528 83.5468C111.492 83.5507 112.455 83.5535 113.418 83.556C114.435 83.5592 115.451 83.5646 116.468 83.57C119.922 83.588 123.375 83.6039 126.829 83.6137C128.741 83.6191 130.654 83.6276 132.566 83.6395C133.573 83.6456 134.58 83.6502 135.588 83.6508C144.189 83.6619 153.429 84.1526 159.961 90.5273C164.197 95.2979 165.346 100.558 165.435 106.732C165.445 107.208 165.455 107.685 165.466 108.161C165.533 111.489 165.536 114.817 165.525 118.146C165.418 124.203 165.418 124.203 166.699 130.078C166.791 130.346 166.884 130.614 166.979 130.891C168.94 136.06 172.602 140.555 176.094 144.772C177.862 146.908 179.408 149.034 180.761 151.465C180.905 151.72 181.049 151.975 181.197 152.238C182.729 155.113 183.514 157.889 182.812 161.133C182.133 163.122 181.119 164.723 179.297 165.82C178.074 166.352 176.818 166.661 175.525 166.974C174.62 167.22 174.62 167.22 174.06 167.743C173.491 168.976 173.437 170.332 173.437 171.68C177.584 171.834 180.927 171.836 184.258 169.036C186.663 166.736 188.359 163.801 188.448 160.413C188.517 157.119 188.319 154.302 187.207 151.172C187.104 150.876 187.001 150.58 186.895 150.276C185.132 145.665 182.139 141.549 178.802 137.952C175.458 134.294 174.564 130.748 174.023 125.977C173.614 125.851 173.614 125.851 173.196 125.724C172.055 125.315 171.543 124.88 170.8 123.926C169.971 121.282 171.416 118.699 172.585 116.365C173.457 114.708 174.56 113.322 175.781 111.914C176.684 110.84 176.684 110.84 177.246 109.57C177.072 109.52 176.899 109.471 176.72 109.419C175.321 108.99 174.173 108.61 173.144 107.52C172.459 106.09 172.459 106.09 172.733 105.183C174.595 102.496 180.114 101.496 183.105 100.781C183.298 100.781 183.492 100.781 183.691 100.781C183.143 98.8407 182.351 97.2665 181.256 95.5811C177.399 89.447 176.379 83.8814 177.539 76.7578C177.925 76.6611 178.312 76.5645 178.711 76.4648C179.052 76.8921 179.394 77.3193 179.736 77.7466C179.951 78.0143 180.167 78.2821 180.388 78.558C180.807 79.084 181.221 79.6138 181.629 80.1487C186.231 86.1313 192.116 88.5074 199.387 89.4699C201.115 89.6775 202.848 89.7969 204.583 89.9231C211.767 90.4678 216.489 93.0955 221.303 98.418C221.777 99.0234 221.777 99.0234 221.777 99.6094C222.287 99.7159 222.287 99.7159 222.807 99.8245C231.641 101.704 231.641 101.704 234.668 105.762C236.287 108.768 236.381 113.388 235.619 116.675C235.347 117.374 235.046 118.005 234.668 118.652C234.492 118.961 234.317 119.269 234.137 119.586C232.887 121.193 231.633 122.605 229.687 123.34C229.3 123.34 228.914 123.34 228.515 123.34C228.564 123.068 228.612 122.796 228.662 122.516C228.91 120.779 229.074 118.864 228.515 117.188C227.657 116.844 227.657 116.844 226.757 116.602C226.564 116.505 226.371 116.408 226.172 116.309C225.497 116.228 225.497 116.228 224.743 116.217C224.49 116.206 224.237 116.195 223.977 116.184C222.988 116.352 222.689 116.702 222.07 117.48C220.659 120.006 219.822 122.941 220.55 125.812C221.245 127.553 222.509 128.965 223.677 130.408C229.576 137.713 232.896 144.287 232.617 153.809C232.327 153.905 232.037 154.002 231.738 154.102C230.84 153.5 230.027 152.82 229.189 152.138C228.166 151.36 227.092 150.991 225.879 150.586C225.929 150.76 225.979 150.933 226.031 151.113C228.672 160.328 229.18 168.404 224.798 177.155C222.195 181.662 218.42 184.805 213.75 186.994C212.037 187.7 212.037 187.7 210.911 189.052C210.658 189.803 210.518 190.466 210.426 191.251C210.392 191.532 210.359 191.812 210.325 192.101C210.291 192.407 210.258 192.714 210.223 193.03C210.168 193.517 210.168 193.517 210.113 194.014C209.777 197.136 209.518 200.264 209.271 203.394C209.251 203.636 209.232 203.878 209.212 204.128C208.444 209.035 208.444 209.035 209.265 213.528C210.11 214.101 211.1 214.041 212.091 214.105C215.027 214.381 217.413 215.208 219.506 217.383C221.664 220.052 224.367 224.08 224.121 227.637C223.535 228.222 222.363 227.99 221.56 227.999C221.203 228.005 221.203 228.005 220.839 228.011C220.048 228.023 219.256 228.033 218.465 228.043C217.915 228.051 217.365 228.058 216.815 228.066C215.657 228.081 214.5 228.096 213.343 228.109C211.867 228.127 210.391 228.148 208.916 228.171C207.777 228.188 206.638 228.202 205.5 228.216C204.956 228.223 204.413 228.23 203.869 228.239C198.963 228.318 194.197 228.138 190.393 224.579C188.703 222.685 188.067 220.664 188.013 218.166C188 217.61 188 217.61 187.986 217.044C187.979 216.75 187.979 216.75 187.972 216.451C187.897 213.309 187.781 210.172 187.536 207.037C187.517 206.762 187.497 206.487 187.477 206.203C187.327 204.431 187.164 202.572 186.328 200.977C185.521 200.46 185.071 200.243 184.185 200.006C183.755 199.87 183.324 199.734 182.893 199.598C182.679 199.534 182.465 199.471 182.244 199.406C181.413 199.148 180.616 198.812 179.809 198.486C177.803 197.769 175.76 197.356 173.675 196.93C166.231 195.395 159.408 192.956 152.482 189.871C144.669 186.393 135.146 182.667 126.562 185.742C121.451 187.93 117.712 192.495 113.917 196.393C109.915 200.496 105.918 204.058 100.854 206.799C100.425 207.037 100.425 207.037 99.9866 207.28C98.0315 208.356 96.062 209.4 94.0426 210.352C94.0189 210.968 94.0018 211.584 93.9877 212.201C93.9775 212.544 93.9673 212.888 93.9568 213.241C93.9636 214.146 93.9636 214.146 94.4306 214.704C95.3672 215.343 96.3231 215.398 97.4256 215.506C100.113 215.78 102.025 216.151 103.93 218.188C106.315 221.121 106.875 224.207 106.64 227.93C106.072 228.497 104.997 228.269 104.222 228.27C104 228.271 103.777 228.273 103.548 228.274C102.808 228.279 102.068 228.281 101.328 228.282C100.814 228.284 100.301 228.286 99.7872 228.287C98.7079 228.29 97.6287 228.292 96.5494 228.293C95.1693 228.295 93.7892 228.302 92.409 228.31C91.3469 228.315 90.2847 228.317 89.2226 228.317C88.714 228.318 88.2055 228.321 87.6969 228.325C86.9831 228.33 86.2694 228.329 85.5555 228.327C85.2427 228.331 85.2427 228.331 84.9235 228.335C82.9452 228.319 81.3034 227.689 79.8085 226.358C77.7173 223.938 77.2832 220.72 77.174 217.641C77.1634 217.391 77.1528 217.14 77.1419 216.882C77.1087 216.073 77.0793 215.263 77.0504 214.453C77.04 214.18 77.0295 213.907 77.0187 213.626C76.9541 211.93 76.9 210.235 76.8549 208.539C76.8386 207.96 76.8204 207.381 76.8002 206.801C76.7707 205.945 76.7474 205.09 76.7254 204.234C76.7154 203.979 76.7054 203.724 76.695 203.461C76.6521 201.351 76.919 199.235 78.2704 197.549C78.5083 197.357 78.7462 197.165 78.9913 196.967C79.2508 196.752 79.5102 196.537 79.7776 196.315C81.2554 195.168 81.2554 195.168 81.9393 194.641C85.891 191.588 88.6568 187.251 90.234 182.52C89.9466 182.668 89.6592 182.817 89.3631 182.97C83.9343 185.752 78.8209 188.204 72.601 186.566C68.8374 185.304 65.8492 182.697 63.8668 179.297C62.0526 175.579 61.5279 171.937 62.6686 167.91C64.5171 162.597 67.7174 159.618 72.3011 156.593C73.9528 155.497 75.5425 154.326 77.1237 153.131C77.5054 152.847 77.5054 152.847 77.8949 152.558C80.4854 150.588 82.5383 148.592 83.2028 145.312C83.5765 141.974 83.3189 139.019 81.2435 136.267C79.7792 134.687 77.6194 133.976 75.5123 133.813C71.9764 134.049 70.0238 136.485 67.6937 138.904C65.8437 140.771 63.8983 142.36 61.2301 142.676C60.1903 139.909 60.3295 136.883 61.5231 134.18C63.4287 130.527 66.4245 128.64 70.2389 127.368C74.9772 126.358 79.2606 126.871 83.3676 129.401C86.9018 131.857 89.0366 135.597 89.9411 139.746C90.7331 144.748 89.735 149.283 87.0114 153.516C86.2057 154.582 85.3428 155.525 84.3746 156.445C84.2202 156.599 84.0657 156.752 83.9066 156.91C82.1239 158.56 79.9568 159.809 77.9293 161.133C72.594 164.385 72.594 164.385 69.2799 169.495C68.7877 172.033 68.7785 174.621 70.1107 176.888C71.3364 178.502 72.9219 180.172 74.9996 180.469C80.9685 180.619 86.4336 175.748 90.5821 171.918C92.7384 169.855 94.4964 167.457 96.2857 165.08C100.783 159.117 106.019 155.447 113.452 154.24C115.454 153.998 117.48 154.032 119.494 154.009C119.944 154.003 120.394 153.997 120.844 153.99C122.021 153.974 123.198 153.96 124.375 153.946C125.579 153.931 126.783 153.915 127.987 153.898C130.344 153.867 132.701 153.837 135.058 153.809C133.599 151.594 132.158 150.441 129.84 149.158C126.837 147.492 123.189 145.129 121.875 141.797C121.802 141.006 121.848 140.25 121.875 139.453C121.56 139.489 121.246 139.526 120.923 139.563C117.176 139.517 113.781 136.111 111.035 133.887C110.869 133.755 110.703 133.624 110.532 133.488C107.995 131.47 107.995 131.47 107.776 130.06C107.788 129.776 107.8 129.492 107.812 129.199C109.376 128.361 110.765 127.813 112.5 127.441C112.5 127.248 112.5 127.055 112.5 126.855C112.261 126.851 112.023 126.847 111.778 126.843C106.342 126.617 101.399 124.921 97.5983 120.882C96.1408 119.102 95.3365 117.429 95.3701 115.11C95.5487 114.383 95.7993 114.132 96.3864 113.672C96.9971 113.626 96.9971 113.626 97.6898 113.714C97.9382 113.743 98.1865 113.773 98.4423 113.803C98.7004 113.838 98.9586 113.874 99.2245 113.91C99.486 113.942 99.7476 113.974 100.017 114.007C100.663 114.086 101.308 114.17 101.953 114.258C101.011 113.133 100.279 112.894 98.8583 112.61C94.6407 111.626 90.738 109.295 87.5973 106.348C87.2846 106.064 87.2846 106.064 86.9656 105.775C82.7784 101.814 82.7784 101.814 82.6168 99.3164C82.9069 98.8813 82.9069 98.8813 83.2028 98.4375C85.1083 98.2404 86.8571 98.619 88.7155 99.0016C90.5951 99.37 92.4228 99.4048 94.3356 99.3164C94.1016 99.2127 94.1016 99.2127 93.8628 99.1069C82.611 94.1106 74.0329 89.0187 69.3854 77.1333C69.2924 76.8886 69.1994 76.6438 69.1037 76.3916C69.0135 76.1578 68.9234 75.924 68.8305 75.6831C68.394 74.4749 68.1135 73.6301 68.5543 72.3633ZM204.785 101.074C203.947 102.331 204.026 103.408 204.199 104.883C204.817 106.99 206.263 108.331 208.136 109.387C210.07 109.859 211.845 109.498 213.72 108.984C214.04 108.901 214.04 108.901 214.366 108.815C214.884 108.679 215.401 108.539 215.918 108.398C215.918 107.915 215.918 107.432 215.918 106.934C215.663 106.809 215.409 106.685 215.146 106.557C212.711 105.318 211.207 104.167 209.729 101.862C209.164 101.053 208.941 100.755 208.007 100.488C206.781 100.401 205.814 100.35 204.785 101.074Z" fill="black"/>
<path d="M141.716 192.318C142.335 193.074 142.353 193.685 142.258 194.639C141.316 198.931 138.77 202.732 136.092 206.143C135.6 206.903 135.4 207.398 135.351 208.301C136.328 210.592 138.573 213.086 140.624 214.453C141.235 214.599 141.235 214.599 141.909 214.672C142.286 214.723 142.286 214.723 142.67 214.774C143.192 214.84 143.715 214.906 144.238 214.971C147.524 215.416 150.04 216.501 152.166 219.129C154.036 221.676 155.739 224.41 155.859 227.637C155.269 228.227 154.066 227.979 153.257 227.982C153.015 227.984 152.773 227.986 152.523 227.988C151.718 227.993 150.913 227.997 150.108 228C149.833 228.001 149.558 228.002 149.275 228.003C147.819 228.01 146.364 228.014 144.908 228.016C143.406 228.02 141.904 228.03 140.403 228.041C139.247 228.049 138.091 228.052 136.935 228.053C136.382 228.054 135.828 228.057 135.275 228.063C134.498 228.07 133.722 228.07 132.945 228.068C132.604 228.073 132.604 228.073 132.258 228.079C129.686 228.055 127.747 226.789 125.976 225C125.345 224.276 124.77 223.52 124.2 222.748C124.038 222.533 123.877 222.319 123.711 222.098C123.194 221.407 122.68 220.714 122.167 220.02C121.815 219.547 121.464 219.074 121.112 218.601C120.251 217.439 119.395 216.274 118.543 215.106C118.09 214.486 117.633 213.869 117.176 213.252C116.911 212.89 116.646 212.527 116.381 212.165C116.153 211.855 115.925 211.544 115.69 211.225C114.618 209.536 114.293 207.921 114.55 205.957C115.042 204.2 115.887 203.04 117.212 201.817C117.84 201.204 118.367 200.551 118.908 199.86C122.218 195.665 126.251 191.407 131.801 190.492C134.984 190.175 139.056 190.355 141.716 192.318Z" fill="black"/>
</svg>
