<svg width="300" height="300" viewBox="0 0 300 300" fill="none" xmlns="http://www.w3.org/2000/svg">
<path d="M152.16 85.6931C156.18 88.5998 156.18 88.5998 156.71 90.1139C156.737 90.82 156.737 90.82 156.151 91.6989C154.508 91.7347 153.817 91.2441 152.617 90.1242C152.384 89.8924 152.151 89.6605 151.911 89.4216C151.077 88.6863 150.473 88.244 149.413 87.8903C147.424 88.0807 145.586 88.9117 143.775 89.7019C143.493 89.8224 143.212 89.9428 142.923 90.0669C142.015 90.4563 141.109 90.8487 140.203 91.2412C139.572 91.5122 138.942 91.783 138.311 92.0536C137.08 92.5816 135.851 93.1105 134.621 93.6406C132.792 94.4287 130.96 95.209 129.125 95.9836C128.847 96.1013 128.568 96.2189 128.282 96.3402C123.619 98.3093 118.947 100.257 114.278 102.21C106.353 105.525 98.4378 108.861 90.5262 112.207C90.2812 112.31 90.0363 112.414 89.7839 112.521C88.4438 113.087 87.1038 113.654 85.7642 114.222C85.3726 114.388 84.9811 114.553 84.5895 114.719C82.2838 115.695 79.9852 116.685 77.6956 117.697C76.9003 118.048 76.1169 118.377 75.2918 118.652C74.9878 120.678 74.8032 122.135 75.8778 123.926C76.506 124.676 76.506 124.676 77.3426 125.39C77.5299 125.561 77.7173 125.733 77.9102 125.909C79.466 127.317 81.0799 128.648 82.709 129.97C83.6941 130.771 84.6749 131.578 85.6556 132.385C85.87 132.561 86.0845 132.738 86.3054 132.919C87.5941 133.981 88.8719 135.054 90.1417 136.139C91.4045 137.217 92.6929 138.253 94.0052 139.27C95.6966 140.581 97.317 141.96 98.9265 143.371C100.144 144.436 101.387 145.457 102.658 146.458C103.612 147.228 104.54 148.027 105.468 148.828C106.855 150.026 108.261 151.191 109.7 152.327C110.758 153.179 111.791 154.06 112.825 154.94C113.831 155.795 114.844 156.638 115.868 157.47C117.217 158.568 118.546 159.688 119.871 160.814C120.872 161.664 121.881 162.501 122.899 163.33C124.248 164.428 125.577 165.548 126.903 166.674C127.903 167.523 128.913 168.361 129.931 169.189C131.594 170.544 133.23 171.929 134.865 173.318C135.345 173.725 135.825 174.132 136.305 174.538C136.462 174.671 136.618 174.803 136.78 174.94C137.098 175.209 137.416 175.478 137.735 175.746C138.511 176.401 139.284 177.06 140.049 177.728C146.441 183.61 146.441 183.61 154.192 186.731C155.255 186.623 155.524 186.52 156.36 185.951C157.546 185.182 158.753 184.601 160.05 184.045C160.281 183.944 160.511 183.844 160.749 183.74C161.504 183.411 162.261 183.084 163.018 182.757C163.555 182.524 164.092 182.29 164.629 182.056C165.744 181.57 166.858 181.086 167.973 180.602C170.271 179.604 172.566 178.596 174.859 177.588C175.603 177.262 176.347 176.935 177.09 176.609C180.456 175.132 183.818 173.647 187.179 172.16C191.443 170.273 195.711 168.395 199.987 166.534C208.735 162.727 217.473 158.901 226.171 154.98C226.778 154.707 227.385 154.434 227.993 154.161C229.339 153.556 230.685 152.95 232.03 152.343C232.03 152.15 232.03 151.957 232.03 151.758C231.602 151.321 231.602 151.321 231.033 150.875C230.822 150.703 230.611 150.53 230.394 150.352C230.166 150.169 229.939 149.987 229.705 149.798C229.36 149.518 229.36 149.518 229.007 149.231C227.711 148.18 226.409 147.138 225.085 146.121C222.665 144.262 220.278 142.363 217.922 140.423C216.969 139.649 216.005 138.891 215.038 138.134C213.523 136.95 212.025 135.748 210.541 134.525C210.013 134.091 209.483 133.659 208.952 133.23C203.746 129.015 203.746 129.015 203.319 127.734C203.539 126.965 203.539 126.965 203.905 126.269C204.195 126.173 204.485 126.076 204.784 125.976C206.072 126.719 207.182 127.659 208.3 128.631C209.625 129.768 210.968 130.873 212.346 131.946C213.845 133.112 215.325 134.297 216.796 135.498C218.25 136.684 219.711 137.859 221.19 139.013C222.669 140.168 224.131 141.343 225.585 142.529C227.052 143.726 228.526 144.913 230.016 146.081C230.18 146.21 230.345 146.339 230.514 146.472C231.399 147.165 232.287 147.855 233.177 148.542C233.365 148.688 233.553 148.834 233.747 148.984C234.107 149.264 234.468 149.542 234.831 149.82C236.638 151.225 236.638 151.225 236.846 152.618C236.718 153.515 236.718 153.515 236.172 154.093C235.133 154.765 234.154 155.079 232.98 155.444C230.466 156.183 230.466 156.183 228.502 157.79C228.243 158.748 228.205 159.553 228.222 160.547C228.202 160.95 228.18 161.353 228.156 161.756C228.03 164.645 228.478 167.176 229.394 169.922C229.991 170.383 229.991 170.383 230.737 170.81C231.146 171.057 231.146 171.057 231.563 171.31C231.85 171.48 232.137 171.65 232.433 171.826C232.998 172.164 233.561 172.502 234.124 172.842C234.376 172.991 234.627 173.141 234.886 173.295C235.778 173.883 236.313 174.319 236.699 175.323C236.718 176.074 236.718 176.074 236.231 176.659C235.501 177.284 234.853 177.632 233.975 178.018C233.494 178.232 233.494 178.232 233.004 178.449C232.652 178.602 232.301 178.755 231.939 178.912C231.562 179.078 231.185 179.244 230.808 179.411C229.775 179.866 228.741 180.318 227.706 180.769C227.045 181.056 226.385 181.345 225.725 181.633C223.605 182.56 221.484 183.485 219.362 184.407C216.123 185.816 212.888 187.233 209.655 188.653C209.406 188.762 209.158 188.872 208.902 188.984C207.642 189.537 206.383 190.091 205.123 190.644C202.867 191.636 200.611 192.626 198.355 193.617C197.61 193.944 196.865 194.271 196.12 194.598C193.805 195.614 191.491 196.63 189.176 197.645C188.1 198.117 187.025 198.589 185.949 199.061C185.443 199.283 184.938 199.505 184.432 199.727C181.056 201.207 177.683 202.698 174.315 204.199C174.41 204.572 174.504 204.944 174.602 205.328C174.924 206.602 175.05 207.568 174.901 208.886C173.705 210.819 171.899 211.516 169.884 212.439C169.569 212.589 169.253 212.739 168.928 212.893C162.934 215.702 162.934 215.702 160.546 215.332C158.894 214.243 158.475 212.45 157.909 210.644C156.992 210.644 156.612 210.789 155.797 211.17C155.433 211.337 155.433 211.337 155.063 211.508C154.806 211.628 154.549 211.748 154.284 211.871C153.752 212.113 153.22 212.354 152.687 212.594C151.626 213.075 151.626 213.075 150.566 213.559C147.202 215.089 147.202 215.089 145.412 214.502C143.788 213.693 142.36 212.611 140.917 211.523C140.716 211.373 140.514 211.224 140.307 211.07C137.767 209.181 135.314 207.248 133.007 205.078C131.232 203.419 129.437 201.845 127.497 200.38C125.559 198.914 123.686 197.367 121.804 195.829C121.153 195.3 120.498 194.778 119.842 194.256C117.858 192.675 115.908 191.052 113.952 189.437C111.71 187.59 109.455 185.758 107.2 183.927C105.797 182.787 104.395 181.644 102.997 180.498C102.487 180.081 101.977 179.664 101.466 179.249C100.004 178.058 98.5548 176.855 97.118 175.634C95.722 174.449 94.3144 173.28 92.894 172.123C91.9734 171.372 91.0564 170.616 90.1398 169.86C88.3565 168.388 86.5693 166.923 84.7595 165.484C83.7231 164.655 82.6977 163.813 81.6719 162.972C81.1394 162.535 80.6062 162.099 80.072 161.665C78.4401 160.336 76.8277 158.987 75.2252 157.623C74.2662 156.809 73.2951 156.015 72.3072 155.237C67.267 151.203 64.644 146.858 63.3717 140.497C62.7146 133.005 65.1412 126.945 69.817 121.161C70.039 120.899 70.2611 120.638 70.4899 120.369C70.9861 119.775 71.451 119.186 71.909 118.565C73.2615 116.778 74.5218 115.51 76.569 114.56C76.7733 114.461 76.9776 114.363 77.1881 114.262C79.166 113.321 81.1801 112.469 83.2074 111.642C84.3477 111.177 85.4855 110.705 86.6238 110.235C86.9863 110.085 86.9863 110.085 87.3562 109.933C90.0708 108.812 92.7755 107.669 95.4801 106.524C96.8926 105.927 98.3053 105.33 99.7181 104.733C99.9893 104.618 100.261 104.503 100.54 104.385C105.456 102.308 110.379 100.246 115.307 98.1969C122.797 95.0889 122.797 95.0889 130.26 91.9187C133.274 90.6222 136.288 89.3261 139.308 88.0439C139.799 87.8349 140.291 87.6251 140.781 87.4145C149.17 83.8165 149.17 83.8165 152.16 85.6931ZM71.4832 123.926C67.8151 127.997 65.9571 132.996 66.2281 138.464C66.4813 141.91 67.3714 145.411 69.4325 148.242C69.7225 148.339 70.0125 148.435 70.3114 148.535C70.3401 148.205 70.3688 147.875 70.3983 147.536C71.0163 140.973 72.7573 134.501 77.6356 129.785C77.3811 129.558 77.1265 129.332 76.8643 129.098C75.0606 127.474 73.482 125.911 72.0692 123.926C71.8758 123.926 71.6825 123.926 71.4832 123.926ZM77.9286 133.008C77.2686 133.946 76.7133 134.927 76.1707 135.937C76.0435 136.172 75.9162 136.407 75.7851 136.649C73.9587 140.325 73.1119 144.228 73.0396 148.315C73.0305 148.598 73.0213 148.88 73.0118 149.171C73.0251 150.947 73.3449 151.898 74.5928 153.177C74.9484 153.547 74.9484 153.547 75.2918 153.515C75.2994 153.129 75.3069 152.743 75.3147 152.345C75.4897 146.117 76.5392 139.063 81.1329 134.417C81.432 134.155 81.432 134.155 81.7372 133.886C81.3613 133.048 80.9958 132.414 80.2723 131.836C79.0597 131.836 78.7984 132.158 77.9286 133.008ZM82.8335 136.277C79.377 139.927 77.9909 146.074 77.8553 150.934C77.937 153.739 78.5526 155.671 80.2723 157.91C80.577 156.996 80.6004 156.213 80.6204 155.257C80.7796 148.977 82.6456 143.967 86.7176 139.16C87.0135 138.771 87.3074 138.381 87.5965 137.988C87.0662 137.548 86.5351 137.108 86.0035 136.67C85.7078 136.425 85.4121 136.18 85.1074 135.928C84.0225 135.075 83.8512 135.398 82.8335 136.277ZM89.6473 140.039C85.3377 144.053 83.4721 148.993 83.1642 154.815C83.1053 157.331 83.2969 159.723 84.9598 161.718C85.7314 162.511 85.7314 162.511 86.7176 162.89C86.7108 162.73 86.704 162.569 86.697 162.404C86.5641 156.565 87.9197 150.149 91.9178 145.715C92.1338 145.494 92.3499 145.272 92.5724 145.044C93.1191 144.479 93.5849 143.901 94.0418 143.261C93.5303 142.833 93.0173 142.406 92.5038 141.98C92.2182 141.742 91.9327 141.504 91.6386 141.259C90.9788 140.748 90.4069 140.368 89.6473 140.039ZM94.0418 146.777C90.8577 151.065 89.1356 156.37 89.3543 161.718C89.4971 162.544 89.4971 162.544 89.7389 163.275C89.8102 163.515 89.8816 163.756 89.9552 164.004C90.2474 164.681 90.5589 165.048 91.1122 165.527C91.1197 165.289 91.1273 165.05 91.135 164.805C91.4323 158.8 93.1952 152.293 97.3744 147.784C97.5315 147.645 97.6886 147.506 97.8504 147.363C97.5162 146.36 97.2642 146.148 96.3856 145.605C95.2077 145.605 94.8976 145.985 94.0418 146.777ZM98.719 150.195C94.965 154.651 93.7446 161.361 94.0418 166.992C94.5907 170.597 97.8802 172.437 100.566 174.508C101.549 175.272 102.512 176.061 103.478 176.846C103.932 177.275 103.932 177.275 104.296 177.246C104.315 177.066 104.334 176.887 104.353 176.702C105.076 170.069 106.52 164.144 110.668 158.765C111.114 158.192 111.114 158.192 111.034 157.324C110.445 156.738 110.445 156.738 109.661 156.152C109.367 155.92 109.073 155.688 108.77 155.448C108.614 155.325 108.457 155.201 108.295 155.074C107.478 154.42 106.685 153.738 105.889 153.058C104.716 152.063 103.542 151.069 102.355 150.091C102.014 149.809 102.014 149.809 101.666 149.52C100.455 148.704 99.7036 149.307 98.719 150.195ZM223.036 159.68C222.616 159.874 222.195 160.068 221.775 160.261C221.552 160.365 221.329 160.468 221.099 160.574C217.039 162.446 212.962 164.268 208.856 166.034C208.673 166.113 208.491 166.191 208.303 166.272C208.119 166.351 207.934 166.431 207.744 166.513C205.207 167.605 202.68 168.719 200.152 169.83C199.639 170.055 199.126 170.281 198.613 170.506C197.574 170.963 196.536 171.419 195.498 171.876C192.73 173.092 189.961 174.307 187.192 175.523C186.444 175.851 185.696 176.179 184.948 176.508C184.701 176.616 184.454 176.725 184.199 176.836C182.665 177.51 181.131 178.184 179.598 178.858C178.562 179.313 177.527 179.768 176.491 180.223C175.733 180.557 174.974 180.89 174.216 181.224C171.934 182.227 169.651 183.224 167.357 184.2C166.958 184.371 166.559 184.542 166.159 184.712C165.443 185.018 164.725 185.321 164.006 185.622C162.051 186.456 160.212 187.393 158.393 188.486C156.304 189.73 154.304 189.887 151.942 189.309C150.486 188.865 149.064 188.371 147.655 187.793C144.251 193.275 142.07 199.891 143.483 206.393C144.073 208.11 144.724 209.618 146.41 210.461C148.954 210.95 151.079 209.863 153.368 208.868C153.693 208.73 154.018 208.591 154.352 208.449C155.148 208.109 155.943 207.767 156.737 207.422C156.519 206.956 156.298 206.491 156.075 206.028C155.952 205.769 155.829 205.51 155.702 205.244C154.542 203.214 152.628 202.237 150.585 201.269C150.188 200.476 150.273 199.802 150.292 198.926C152.762 197.663 155.262 196.493 157.799 195.373C158.136 195.223 158.473 195.073 158.82 194.919C164.233 192.521 164.233 192.521 166.112 192.187C166.022 191.852 166.022 191.852 165.929 191.51C165.819 190.722 165.819 190.722 166.405 189.843C167.017 189.508 167.017 189.508 167.785 189.186C168.073 189.063 168.362 188.94 168.659 188.814C168.974 188.683 169.289 188.552 169.614 188.418C169.941 188.28 170.267 188.142 170.603 188C171.486 187.627 172.369 187.257 173.253 186.887C174.172 186.503 175.09 186.115 176.007 185.727C177.097 185.267 178.187 184.807 179.277 184.348C181.78 183.295 184.277 182.23 186.767 181.146C187.092 181.005 187.416 180.863 187.751 180.718C188.441 180.417 189.131 180.117 189.821 179.816C191.252 179.193 192.683 178.572 194.115 177.951C199.806 175.48 205.494 173.002 211.175 170.508C211.427 170.396 211.68 170.285 211.941 170.171C212.658 169.856 213.375 169.541 214.092 169.226C214.298 169.135 214.504 169.044 214.717 168.951C215.013 168.821 215.013 168.821 215.315 168.688C215.507 168.604 215.7 168.519 215.898 168.433C216.333 168.239 216.766 168.041 217.197 167.841C217.429 167.734 217.66 167.627 217.899 167.517C218.108 167.419 218.317 167.321 218.533 167.22C219.468 166.868 220.202 166.889 221.19 166.992C221.483 167.285 221.483 167.285 221.502 168.036C221.496 168.271 221.49 168.507 221.483 168.75C217.506 170.826 213.408 172.599 209.289 174.371C208.59 174.673 207.891 174.975 207.192 175.277C205.826 175.867 204.461 176.456 203.095 177.045C200.879 177.999 198.666 178.959 196.453 179.919C195.775 180.213 195.096 180.507 194.418 180.8C193.113 181.366 191.808 181.932 190.504 182.499C188.234 183.485 185.963 184.468 183.69 185.449C183.413 185.569 183.136 185.688 182.851 185.812C180.936 186.639 179.02 187.464 177.104 188.288C176.458 188.566 175.812 188.845 175.167 189.123C174.253 189.518 173.338 189.911 172.424 190.304C172.151 190.421 171.879 190.539 171.598 190.661C169.987 191.35 168.37 191.957 166.698 192.48C166.913 192.689 167.128 192.897 167.349 193.112C169.73 195.549 171.271 198.142 172.558 201.269C174.304 200.716 175.984 200.082 177.657 199.336C177.887 199.235 178.117 199.133 178.355 199.029C179.108 198.696 179.861 198.362 180.614 198.028C181.147 197.793 181.679 197.558 182.212 197.323C183.32 196.834 184.429 196.345 185.537 195.855C188.173 194.689 190.811 193.529 193.45 192.37C193.703 192.259 193.956 192.148 194.217 192.033C197.233 190.708 200.252 189.394 203.283 188.104C208.094 186.055 212.871 183.928 217.652 181.809C219.426 181.023 221.202 180.239 222.979 179.458C223.21 179.356 223.441 179.254 223.68 179.15C225.468 178.363 225.468 178.363 226.31 177.993C226.898 177.735 227.485 177.477 228.072 177.218C228.4 177.074 228.728 176.93 229.065 176.782C229.968 176.372 230.854 175.937 231.737 175.488C230.614 174.316 229.498 173.349 227.929 172.851C226.501 173.054 225.277 173.673 223.992 174.298C223.603 174.475 223.214 174.651 222.824 174.826C221.967 175.213 221.113 175.607 220.26 176.006C218.739 176.714 217.204 177.392 215.666 178.066C215.393 178.186 215.12 178.306 214.839 178.43C214.286 178.672 213.733 178.915 213.181 179.157C212.134 179.618 211.09 180.083 210.045 180.547C207.495 181.682 204.935 182.794 202.368 183.89C199.971 184.914 197.585 185.963 195.201 187.015C190.861 188.929 186.514 190.826 182.157 192.699C181.622 192.929 181.087 193.16 180.552 193.391C179.804 193.714 179.056 194.035 178.307 194.356C178.09 194.45 177.872 194.544 177.648 194.641C176.563 195.104 175.47 195.537 174.359 195.934C174.147 196.009 173.935 196.084 173.717 196.162C173.144 196.289 173.144 196.289 172.265 195.996C172.168 195.416 172.071 194.836 171.972 194.238C174.665 192.822 177.458 191.637 180.248 190.429C180.765 190.205 181.282 189.98 181.8 189.755C183.08 189.2 184.36 188.644 185.641 188.09C186.589 187.679 187.537 187.268 188.485 186.857C189.663 186.346 190.841 185.835 192.02 185.325C195.586 183.781 199.15 182.235 202.715 180.688C203.05 180.543 203.384 180.398 203.729 180.248C208.633 178.12 213.536 175.988 218.435 173.848C221.009 172.724 223.587 171.61 226.171 170.508C226.129 170.302 226.087 170.097 226.043 169.886C225.498 167.232 225.252 164.739 225.274 162.03C225.275 161.718 225.276 161.405 225.278 161.084C225.281 160.319 225.286 159.554 225.292 158.789C224.549 158.789 223.712 159.366 223.036 159.68ZM112.715 160.036C108.994 164.91 106.751 171.405 107.226 177.539C107.534 179.017 108.02 179.902 109.276 180.761C109.298 180.385 109.32 180.009 109.343 179.622C109.807 172.939 111.675 166.656 116.015 161.426C115.637 161.131 115.259 160.838 114.879 160.547C114.669 160.383 114.458 160.22 114.241 160.052C113.578 159.605 113.308 159.446 112.715 160.036ZM117.772 163.769C113.987 168.015 112.097 173.862 112.06 179.498C112.058 179.736 112.056 179.974 112.054 180.22C112.096 182.195 112.443 183.834 113.762 185.347C114.022 185.568 114.282 185.789 114.55 186.017C114.836 186.263 115.123 186.51 115.418 186.764C115.712 187.007 116.005 187.25 116.308 187.5C116.58 187.727 116.852 187.955 117.133 188.19C117.926 188.846 118.727 189.492 119.53 190.136C119.795 190.352 120.06 190.568 120.332 190.791C120.715 191.101 120.715 191.101 121.105 191.418C121.331 191.602 121.557 191.785 121.789 191.974C122.475 192.492 123.181 192.931 123.925 193.359C123.929 193.106 123.933 192.854 123.937 192.593C124.187 186.206 126.262 179.15 130.956 174.609C130.492 173.333 129.497 172.61 128.484 171.771C128.3 171.616 128.115 171.46 127.925 171.3C126.584 170.173 125.229 169.062 123.866 167.961C123.252 167.455 122.65 166.942 122.051 166.416C121.882 166.269 121.712 166.121 121.538 165.969C121.208 165.681 120.881 165.392 120.556 165.1C119.651 164.313 118.979 163.876 117.772 163.769ZM133.007 176.367C128.852 180.155 126.858 186.437 126.502 191.933C126.497 192.222 126.493 192.512 126.488 192.81C126.481 193.101 126.473 193.391 126.465 193.691C126.579 194.683 126.834 195.207 127.44 195.996C128.046 196.385 128.046 196.385 128.612 196.582C128.638 196.28 128.663 195.978 128.689 195.667C129.275 189.431 131.208 182.816 135.936 178.418C135.021 177.423 134.306 176.775 133.007 176.367ZM137.121 180.852C133.116 185.447 131.18 191.414 131.542 197.461C131.725 198.398 131.94 199.268 132.421 200.097C132.711 200.291 133.001 200.484 133.3 200.683C133.325 200.375 133.35 200.066 133.376 199.748C134.005 192.985 136.809 187.923 141.21 182.812C140.903 182.473 140.59 182.138 140.276 181.805C140.103 181.618 139.929 181.431 139.751 181.239C138.86 180.52 138.127 180.179 137.121 180.852ZM142.602 185.467C142.331 185.752 142.062 186.039 141.796 186.328C141.659 186.47 141.522 186.612 141.382 186.758C137.989 190.459 136.179 195.282 136.175 200.262C136.171 200.48 136.167 200.697 136.164 200.921C136.159 202.535 136.282 203.647 137.449 204.855C137.687 205.055 137.925 205.256 138.17 205.462C138.41 205.667 138.649 205.871 138.896 206.081C139.079 206.234 139.263 206.386 139.452 206.543C139.793 205.377 139.627 204.526 139.452 203.32C138.982 197.664 141.166 192.453 144.457 187.99C144.917 187.348 145.282 186.752 145.604 186.035C144.108 184.775 144.108 184.775 142.602 185.467ZM162.284 196.286C162.086 196.376 161.889 196.466 161.685 196.558C161.267 196.748 160.85 196.938 160.434 197.13C159.797 197.423 159.159 197.713 158.521 198.002C158.115 198.187 157.709 198.372 157.304 198.557C157.113 198.644 156.923 198.73 156.727 198.82C155.9 199.201 155.153 199.591 154.394 200.097C154.643 200.295 154.643 200.295 154.898 200.497C158.344 203.367 160.17 207.241 161.17 211.563C161.372 212.144 161.372 212.144 161.896 212.342C162.946 212.432 163.755 211.995 164.687 211.564C164.887 211.475 165.086 211.386 165.291 211.294C165.711 211.104 166.131 210.913 166.549 210.72C167.191 210.425 167.836 210.137 168.482 209.85C168.89 209.665 169.297 209.48 169.705 209.294C169.898 209.208 170.091 209.122 170.291 209.033C170.765 208.812 171.224 208.558 171.679 208.301C172.392 206.16 170.663 202.936 169.698 200.982C168.62 198.919 167.367 196.88 165.526 195.41C164.243 195.41 163.418 195.762 162.284 196.286Z" fill="black"/>
<path d="M191.453 96.1118C196.949 100.793 200.666 107.924 201.268 115.136C201.72 123.374 199.547 131.221 194.068 137.524C189.421 142.681 182.423 146.413 175.437 146.813C170.277 146.988 164.795 146.486 160.199 143.911C159.423 143.476 159.423 143.476 158.765 143.708C158.049 144.257 157.424 144.851 156.791 145.495C156.554 145.735 156.316 145.974 156.071 146.221C155.277 147.064 154.518 147.929 153.759 148.803C152.882 149.798 151.971 150.758 151.06 151.721C149.869 152.985 148.681 154.25 147.526 155.548C146.118 157.127 144.661 158.661 143.205 160.195C142.158 161.301 141.143 162.419 140.165 163.586C139.063 164.831 138.167 165.375 136.486 165.616C134.382 165.74 132.762 165.089 131.123 163.793C129.407 162.207 128.105 160.486 127.992 158.079C128.163 155.817 129.099 154.41 130.702 152.877C131.214 152.377 131.68 151.862 132.145 151.318C133.661 149.562 135.264 147.884 136.851 146.191C137.737 145.246 138.622 144.3 139.506 143.353C139.677 143.17 139.848 142.987 140.024 142.798C141.324 141.405 142.613 140.002 143.898 138.596C145.433 136.919 146.985 135.258 148.533 133.593C148.331 133.152 148.331 133.152 148.126 132.702C144.398 124.439 143.489 116.23 146.556 107.592C148.982 101.709 153.152 96.2563 158.787 93.1638C159.192 92.9349 159.192 92.9349 159.605 92.7014C161.971 91.4372 164.417 90.6558 166.99 89.9411C167.236 89.8682 167.481 89.7953 167.734 89.7202C175.981 87.6366 185.093 90.9242 191.453 96.1118ZM161.717 94.9216C161.447 95.0507 161.177 95.1799 160.9 95.313C155.009 98.3163 150.861 103.6 148.732 109.8C147.859 112.646 147.5 115.33 147.526 118.304C147.528 118.663 147.53 119.021 147.532 119.39C147.603 123.383 148.404 126.82 150.291 130.371C150.413 130.606 150.536 130.842 150.662 131.085C154.044 137.15 159.494 141.045 166.058 143.082C172.708 144.95 179.561 143.945 185.57 140.652C192.035 136.943 195.856 131.368 197.811 124.267C199.497 117.574 198.277 110.5 194.887 104.555C190.962 98.3742 185.282 94.4982 178.207 92.7861C177.091 92.5448 176.04 92.3359 174.9 92.2849C174.593 92.2664 174.286 92.2479 173.969 92.2288C169.681 92.0883 165.571 93.0333 161.717 94.9216ZM149.5 136.368C149.308 136.564 149.116 136.76 148.918 136.963C148.635 137.248 148.635 137.248 148.347 137.539C147.782 138.144 147.236 138.757 146.694 139.382C145.594 140.646 144.45 141.864 143.296 143.078C142.049 144.397 140.804 145.714 139.598 147.07C138.402 148.413 137.17 149.718 135.935 151.025C135.334 151.664 134.734 152.303 134.133 152.941C133.662 153.441 133.188 153.938 132.714 154.435C132.478 154.688 132.242 154.94 131.999 155.2C131.7 155.515 131.7 155.515 131.396 155.836C130.882 156.547 130.737 157.04 130.662 157.91C131.229 159.71 132.202 161.372 133.872 162.346C135.114 162.868 136.107 163.093 137.4 162.597C138.759 161.501 139.853 160.098 140.989 158.78C141.634 158.055 142.32 157.381 143.012 156.702C143.535 156.17 144.024 155.622 144.511 155.057C145.549 153.863 146.622 152.706 147.709 151.556C148.096 151.145 148.483 150.734 148.87 150.322C149.06 150.12 149.25 149.918 149.446 149.709C151.805 147.194 154.128 144.645 156.443 142.09C156.002 141.012 155.378 140.427 154.502 139.673C153.293 138.616 152.157 137.52 151.051 136.357C150.39 135.763 150.168 135.79 149.5 136.368Z" fill="black"/>
<path d="M183.983 101.368C185.033 102.183 185.979 103.06 186.913 104.004C187.117 104.199 187.322 104.393 187.532 104.594C191.398 108.535 192.63 113.718 192.603 119.07C192.544 121.446 192.212 123.467 191.308 125.684C191.19 125.979 191.073 126.275 190.952 126.579C188.89 131.18 185.032 134.874 180.39 136.819C174.988 138.779 169.908 138.729 164.61 136.358C159.558 133.835 156.032 129.827 154.101 124.512C152.477 119.041 152.922 113.192 155.565 108.106C156.187 107.075 156.873 106.123 157.616 105.176C157.784 104.953 157.952 104.731 158.124 104.501C164.288 96.8886 176.127 96.1813 183.983 101.368ZM160.281 106.162C157.094 110.168 155.485 114.97 155.967 120.103C156.557 124.304 158.37 127.698 161.425 130.664C161.583 130.829 161.741 130.993 161.904 131.162C164.71 133.855 168.959 135.315 172.777 135.48C177.786 135.329 181.971 133.357 185.448 129.786C188.574 126.367 190.077 121.942 189.943 117.319C189.508 112.951 187.922 108.455 184.569 105.469C177.269 99.7949 167.074 98.9009 160.281 106.162Z" fill="black"/>
<path d="M180.208 106.216C180.391 106.356 180.573 106.497 180.762 106.641C180.975 106.796 181.188 106.951 181.407 107.111C183.836 109.049 185.477 111.867 186.328 114.844C186.401 115.796 186.401 115.796 186.328 116.602C185.742 117.188 185.742 117.188 184.973 117.224C184.744 117.212 184.514 117.2 184.277 117.188C184.12 116.874 183.963 116.559 183.801 116.236C183.694 116.023 183.586 115.81 183.475 115.591C183.211 115.058 182.957 114.519 182.708 113.978C181.095 110.539 179.291 108.995 175.781 107.52C173.243 106.658 170.26 107.063 167.871 108.106C166.882 108.197 166.882 108.197 166.113 108.106C165.92 107.912 165.727 107.719 165.527 107.52C165.552 106.569 165.739 106.147 166.37 105.432C170.514 102.946 176.301 103.483 180.208 106.216Z" fill="black"/>
<path d="M137.402 145.605C137.402 146.856 136.666 147.386 135.846 148.242C135.626 148.477 135.626 148.477 135.402 148.716C134.714 149.449 134.018 150.174 133.301 150.879C133.107 150.782 132.914 150.686 132.715 150.586C134.262 148.942 135.809 147.299 137.402 145.605Z" fill="black"/>
<path d="M81.7383 132.715C81.835 132.715 81.9316 132.715 82.0312 132.715C82.1486 133.742 82.0764 134.113 81.4819 134.985C80.8594 135.645 80.8594 135.645 80.2734 135.938C80.1768 136.131 80.0801 136.324 79.9805 136.523C79.6875 137.109 79.6875 137.109 79.1016 137.402C79.3147 136.076 80.0796 135.416 80.9784 134.473C81.4589 133.87 81.6173 133.468 81.7383 132.715Z" fill="black"/>
<path d="M142.969 139.453C143.065 139.743 143.162 140.033 143.262 140.332C142.383 141.211 141.504 142.09 140.625 142.969C140.432 142.872 140.238 142.775 140.039 142.676C140.177 142.541 140.315 142.407 140.457 142.268C141.807 140.943 141.807 140.943 142.969 139.453Z" fill="black"/>
<path d="M148.242 104.004C148.532 104.101 148.822 104.197 149.121 104.297C149.121 104.49 149.121 104.684 149.121 104.883C148.831 105.076 148.541 105.27 148.242 105.469C147.889 106.216 147.889 106.216 147.656 106.934C147.463 106.934 147.27 106.934 147.07 106.934C147.395 105.912 147.733 104.949 148.242 104.004Z" fill="black"/>
</svg>
