<svg width="300" height="300" viewBox="0 0 300 300" fill="none" xmlns="http://www.w3.org/2000/svg">
<path d="M120.996 48.3398C122.426 49.1381 123.65 49.9504 124.878 51.0315C125.336 51.4292 125.795 51.8252 126.26 52.2142C126.69 52.5892 127.103 52.9831 127.505 53.3877C129.753 55.5003 131.696 55.7763 134.65 55.7522C135.088 55.7562 135.525 55.7609 135.963 55.7661C136.876 55.774 137.788 55.7719 138.701 55.7631C139.628 55.7551 140.553 55.7611 141.48 55.7811C148.017 56.0964 148.017 56.0964 153.644 53.23C153.958 52.9194 154.268 52.6034 154.57 52.2812C155.142 51.6882 155.785 51.2213 156.454 50.7431C157.038 50.3019 157.622 49.8606 158.205 49.4179C159.635 48.3398 159.635 48.3398 159.961 48.3398C159.955 48.5827 159.948 48.8255 159.941 49.0757C159.881 51.3852 159.845 53.6938 159.833 56.004C159.826 57.1915 159.811 58.3774 159.775 59.5644C159.389 65.6521 159.389 65.6521 161.919 70.9123C162.87 71.7876 163.851 72.5503 164.942 73.2422C165.232 73.4355 165.522 73.6289 165.821 73.8281C165.335 75.0952 164.394 75.9065 163.44 76.8311C163.275 76.9934 163.11 77.1558 162.94 77.3232C162.535 77.722 162.127 78.119 161.719 78.5156C162.204 79.6132 162.832 80.2154 163.728 80.9875C164.063 81.4453 164.063 81.4453 163.997 81.9976C163.725 82.7399 163.399 83.0753 162.822 83.6135C162.623 83.8024 162.423 83.9913 162.218 84.186C162.002 84.3877 161.785 84.5894 161.562 84.7973C161.109 85.2324 160.656 85.6678 160.203 86.1036C159.489 86.7876 158.772 87.4687 158.049 88.1436C157.351 88.7969 156.664 89.4602 155.978 90.1257C155.761 90.3232 155.544 90.5208 155.32 90.7244C154.428 91.6022 153.869 92.1858 153.676 93.4482C153.674 94.2451 153.712 95.0103 153.809 95.8008C154.063 95.5434 154.318 95.286 154.58 95.0209C155.52 94.0694 156.463 93.1198 157.407 92.1709C157.815 91.7593 158.223 91.3472 158.631 90.9346C159.216 90.3428 159.802 89.7528 160.389 89.1632C160.572 88.9774 160.755 88.7915 160.943 88.6001C161.386 88.157 161.844 87.7292 162.305 87.3047C162.498 87.3047 162.692 87.3047 162.891 87.3047C162.968 87.1291 163.044 86.9535 163.123 86.7725C163.498 86.0945 163.847 85.753 164.447 85.2722C166.07 84.0061 166.07 84.0061 167.259 82.3677C167.357 81.6736 167.357 81.6736 166.737 81.0471C166.365 80.7004 166.365 80.7004 165.985 80.3467C165.738 80.1125 165.491 79.8784 165.236 79.6371C165.042 79.4604 164.848 79.2837 164.649 79.1016C165.229 78.4248 165.809 77.748 166.407 77.0508C169.653 77.7592 172.897 78.4798 176.138 79.2107C176.689 79.335 177.24 79.459 177.792 79.5829C179.485 79.964 181.178 80.3501 182.869 80.7427C183.416 80.8691 183.964 80.9939 184.512 81.1172C185.283 81.2912 186.053 81.4706 186.823 81.6513C187.053 81.7019 187.282 81.7525 187.519 81.8046C188.817 82.1166 189.614 82.4248 190.43 83.4961C190.852 84.1945 190.852 84.1945 191.244 84.9758C191.392 85.2679 191.541 85.56 191.694 85.8609C191.851 86.1742 192.008 86.4875 192.17 86.8103C193.459 89.3394 194.787 91.8358 196.198 94.2993C197.34 96.2957 198.453 98.3001 199.512 100.342C200.718 102.665 201.996 104.941 203.292 107.215C204.506 109.351 205.678 111.506 206.836 113.672C208.145 116.118 209.476 118.547 210.846 120.959C211.001 121.234 211.157 121.508 211.316 121.791C212.079 123.139 212.848 124.481 213.63 125.817C213.923 126.328 214.216 126.839 214.508 127.35C214.643 127.574 214.777 127.798 214.915 128.029C216.864 131.464 216.776 135.874 217.182 139.732C217.245 140.327 217.309 140.922 217.372 141.516C217.538 143.075 217.704 144.633 217.868 146.192C218.132 148.682 218.397 151.171 218.662 153.661C218.754 154.522 218.845 155.384 218.936 156.245C219.073 157.539 219.213 158.833 219.356 160.126C219.407 160.597 219.458 161.068 219.507 161.54C219.575 162.186 219.647 162.831 219.719 163.477C219.758 163.837 219.797 164.196 219.837 164.567C220.141 166.164 220.919 167.312 221.869 168.604C222.264 169.173 222.658 169.743 223.051 170.313C223.267 170.62 223.483 170.926 223.705 171.242C224.944 173.016 226.114 174.837 227.296 176.649C227.705 177.274 228.114 177.897 228.524 178.52C228.653 178.716 228.782 178.913 228.915 179.115C229.157 179.482 229.399 179.85 229.641 180.217C231.584 183.175 231.833 185.237 231.95 188.711C231.968 189.195 231.988 189.678 232.011 190.161C232.257 195.348 232.257 195.348 230.86 197.754C230.76 197.931 230.661 198.107 230.558 198.289C228.78 201.232 226.448 203.821 223.536 205.664C223.342 205.664 223.149 205.664 222.95 205.664C223.133 204.607 223.42 203.605 223.745 202.582C225.098 198.263 226.356 194.152 224.414 189.844C224.382 190.114 224.382 190.114 224.349 190.389C223.513 196.887 223.513 196.887 220.606 199.219C220.205 199.59 220.205 199.59 219.797 199.968C216.535 202.899 212.774 204.945 208.301 204.785C208.757 203.666 209.458 203.022 210.334 202.203C211.664 200.922 212.8 199.558 213.886 198.065C214.022 197.878 214.158 197.691 214.298 197.498C216.506 194.404 216.45 190.92 215.918 187.207C215.396 185.545 214.452 184.181 213.412 182.801C212.968 182.198 212.563 181.58 212.162 180.947C211.152 179.361 211.152 179.361 210.059 177.832C209.866 177.832 209.672 177.832 209.473 177.832C209.091 178.265 209.091 178.265 208.719 178.841C208.573 179.058 208.426 179.275 208.275 179.498C208.121 179.734 207.966 179.97 207.807 180.212C207.649 180.453 207.491 180.693 207.328 180.941C204.329 185.571 202.932 189.971 202.149 195.41C201.955 195.41 201.762 195.41 201.563 195.41C200.086 192.448 198.762 189.58 198.047 186.328C197.954 185.955 197.861 185.581 197.766 185.196C197.108 182.133 197.821 180.238 199.411 177.61C199.84 176.896 200.247 176.172 200.653 175.445C202.971 171.312 202.971 171.312 204.153 169.525C204.279 169.33 204.405 169.136 204.534 168.935C204.766 168.582 205.004 168.232 205.25 167.888C205.69 167.211 205.981 166.643 205.899 165.826C205.504 164.213 205.033 162.643 204.497 161.071C204.412 160.816 204.326 160.561 204.238 160.299C204.053 159.751 203.869 159.203 203.683 158.655C203.186 157.186 202.693 155.716 202.2 154.246C202.099 153.944 201.998 153.642 201.893 153.33C200.657 149.641 199.46 145.94 198.266 142.237C197.882 141.048 197.493 139.861 197.101 138.674C196.949 138.212 196.799 137.748 196.651 137.284C196.433 136.604 196.21 135.925 195.985 135.247C195.923 135.047 195.86 134.847 195.796 134.64C195.155 132.748 193.946 131.597 192.408 130.394C191.168 129.393 190.025 128.302 188.874 127.203C188.448 126.802 188.022 126.4 187.597 125.999C187.28 125.701 187.28 125.701 186.957 125.397C185.801 124.307 184.641 123.221 183.481 122.135C182.038 120.782 180.595 119.43 179.152 118.077C178.832 117.777 178.832 117.777 178.506 117.471C177.989 116.986 177.471 116.501 176.954 116.016C176.871 120.895 176.809 125.775 176.771 130.655C176.753 132.921 176.729 135.188 176.688 137.454C176.653 139.431 176.631 141.409 176.623 143.387C176.618 144.432 176.608 145.476 176.582 146.522C176.467 151.364 176.611 154.969 180.055 158.633C180.627 159.253 181.105 159.93 181.586 160.621C181.897 161.042 182.208 161.463 182.52 161.884C182.689 162.112 182.858 162.341 183.032 162.577C183.866 163.705 184.705 164.829 185.55 165.95C185.706 166.157 185.862 166.363 186.023 166.577C186.311 166.959 186.6 167.34 186.89 167.721C187.15 168.064 187.406 168.41 187.657 168.759C188.073 169.336 188.073 169.336 188.531 169.835C190.143 171.83 190.183 174.013 190.311 176.467C190.352 177.231 190.404 177.994 190.458 178.758C190.612 180.927 190.747 183.097 190.872 185.267C191.199 193.616 191.199 193.616 194.726 201.026C195.373 201.912 195.905 202.865 196.454 203.815C197.136 204.954 197.833 206.082 198.549 207.201C198.815 207.629 199.081 208.056 199.347 208.484C199.534 208.767 199.534 208.767 199.725 209.056C201.514 211.965 201.414 215.84 201.765 219.16C201.81 219.573 201.854 219.986 201.899 220.399C201.991 221.258 202.083 222.117 202.174 222.976C202.29 224.067 202.407 225.158 202.525 226.249C202.616 227.1 202.708 227.951 202.799 228.802C202.842 229.203 202.885 229.605 202.928 230.007C203.661 236.839 203.661 236.839 203.632 239.282C203.629 239.577 203.627 239.871 203.624 240.175C203.619 240.494 203.619 240.494 203.614 240.82C203.946 240.675 204.278 240.53 204.621 240.381C206.412 239.721 208.051 239.617 209.821 240.399C211.547 241.371 212.639 242.772 213.282 244.629C213.353 245.382 213.353 245.382 213.349 246.172C213.349 246.456 213.348 246.741 213.347 247.034C213.344 247.328 213.34 247.622 213.337 247.925C213.336 248.223 213.336 248.521 213.336 248.829C213.323 251.033 213.323 251.033 212.989 251.367C212.546 251.396 212.102 251.404 211.658 251.404C211.371 251.405 211.083 251.406 210.787 251.407C210.31 251.406 210.31 251.406 209.823 251.405C209.49 251.406 209.157 251.406 208.814 251.407C207.707 251.408 206.6 251.407 205.493 251.406C204.727 251.406 203.961 251.407 203.195 251.407C201.587 251.407 199.978 251.407 198.37 251.405C196.51 251.404 194.65 251.404 192.79 251.406C191.002 251.407 189.215 251.407 187.427 251.406C186.666 251.406 185.905 251.406 185.143 251.407C184.08 251.408 183.016 251.407 181.953 251.405C181.636 251.406 181.319 251.406 180.993 251.407C180.704 251.406 180.414 251.405 180.116 251.404C179.865 251.404 179.613 251.404 179.354 251.404C178.711 251.367 178.711 251.367 177.832 251.074C177.798 250 177.777 248.926 177.759 247.852C177.744 247.399 177.744 247.399 177.729 246.937C177.703 244.826 177.939 243.138 179.418 241.547C180.913 240.217 182.171 239.878 184.11 239.864C185.174 239.973 186.17 240.262 187.207 240.527C187.151 237.42 187.09 234.313 187.024 231.206C186.993 229.764 186.964 228.321 186.938 226.878C186.913 225.486 186.884 224.094 186.853 222.701C186.841 222.17 186.831 221.639 186.823 221.108C186.811 220.364 186.794 219.62 186.775 218.875C186.773 218.656 186.77 218.437 186.768 218.211C186.714 216.399 186.134 215.35 184.869 214.103C184.699 213.935 184.53 213.767 184.356 213.593C184.174 213.416 183.993 213.239 183.806 213.056C183.617 212.868 183.428 212.681 183.234 212.488C182.631 211.89 182.026 211.295 181.421 210.699C180.821 210.107 180.221 209.514 179.622 208.921C179.25 208.552 178.877 208.185 178.503 207.818C177.4 206.727 176.365 205.597 175.362 204.413C174.782 203.773 174.115 203.268 173.438 202.734C173.438 202.541 173.438 202.348 173.438 202.148C173.264 202.069 173.09 201.99 172.911 201.908C170.774 200.764 169.533 198.562 168.259 196.588C167.451 195.354 166.616 194.138 165.784 192.92C165.501 192.504 165.501 192.504 165.212 192.08C163.77 189.97 162.31 187.874 160.841 185.783C159.635 184.066 158.444 182.34 157.262 180.608C156.278 179.172 155.256 177.769 154.208 176.379C153.809 175.781 153.809 175.781 153.809 175.195C151.586 176.919 149.392 178.665 147.253 180.492C146.082 181.49 144.891 182.457 143.687 183.413C141.545 185.118 139.444 186.871 137.358 188.644C136.07 189.737 134.764 190.806 133.452 191.87C132.554 192.614 131.687 193.388 130.828 194.175C130.371 194.531 130.371 194.531 129.786 194.531C131.473 197.354 133.441 199.957 135.401 202.594C136.248 203.739 137.082 204.893 137.915 206.049C138.071 206.264 138.226 206.479 138.386 206.701C139.822 208.695 141.251 210.694 142.676 212.695C140.925 216.4 138.893 219.926 136.831 223.464C135.747 225.325 134.679 227.195 133.612 229.065C133.417 229.408 133.221 229.75 133.026 230.093C132.731 230.61 132.436 231.127 132.141 231.643C131.443 232.865 130.745 234.087 130.046 235.308C129.648 236.004 129.25 236.7 128.852 237.396C128.755 237.566 128.658 237.736 128.557 237.911C127.036 240.571 125.524 243.236 124.024 245.909C121.272 250.799 121.272 250.799 120.704 251.367C120.3 251.396 119.896 251.404 119.491 251.404C119.23 251.405 118.969 251.406 118.7 251.407C118.411 251.406 118.122 251.406 117.824 251.405C117.522 251.406 117.219 251.406 116.908 251.407C115.902 251.408 114.897 251.407 113.892 251.406C113.197 251.406 112.502 251.407 111.807 251.407C110.348 251.407 108.889 251.407 107.43 251.405C105.555 251.404 103.68 251.405 101.805 251.406C100.369 251.407 98.9327 251.407 97.4966 251.406C96.8051 251.406 96.1136 251.406 95.422 251.407C94.4574 251.408 93.4928 251.407 92.5282 251.405C92.2393 251.406 91.9504 251.406 91.6528 251.407C91.3915 251.406 91.1302 251.405 90.861 251.404C90.6327 251.404 90.4043 251.404 90.169 251.404C89.6488 251.367 89.6488 251.367 89.3559 251.074C89.273 249.892 89.2879 248.706 89.2826 247.522C89.2766 247.191 89.2705 246.86 89.2643 246.519C89.2535 244.207 89.3925 242.671 90.9489 240.875C92.1222 239.874 92.8898 239.578 94.4336 239.589C94.7377 239.587 95.0417 239.584 95.355 239.582C95.6775 239.58 95.9999 239.578 96.3322 239.575C98.5745 239.531 100.4 239.44 102.43 238.458C105.236 237.102 108.28 237.443 111.329 237.598C111.405 237.39 111.481 237.183 111.56 236.97C111.938 236.077 112.391 235.29 112.896 234.463C113.195 233.973 113.195 233.973 113.499 233.474C113.715 233.121 113.932 232.768 114.148 232.416C114.372 232.05 114.595 231.685 114.818 231.319C115.508 230.188 116.201 229.059 116.895 227.93C117.113 227.574 117.332 227.217 117.551 226.861C118.533 225.261 119.517 223.661 120.503 222.062C120.676 221.779 120.849 221.495 121.028 221.203C121.429 220.559 121.837 219.927 122.26 219.297C122.371 219.127 122.482 218.957 122.597 218.782C122.91 218.305 123.229 217.83 123.547 217.356C124.021 216.527 124.021 216.527 123.723 215.692C123.337 215.034 122.965 214.584 122.406 214.069C121.68 213.373 120.994 212.67 120.337 211.908C119.453 210.883 118.545 209.882 117.627 208.887C116.559 207.726 115.505 206.556 114.472 205.364C113.89 204.7 113.296 204.047 112.702 203.394C108.257 198.467 107.806 195.121 107.648 188.635C107.643 188.416 107.637 188.197 107.631 187.971C107.42 178.473 107.42 178.473 110.114 175.347C111.569 173.862 113.264 172.583 115.137 171.68C115.33 171.68 115.524 171.68 115.723 171.68C115.723 171.486 115.723 171.293 115.723 171.094C116.122 170.701 116.122 170.701 116.693 170.233C117.893 169.216 118.994 168.125 120.098 167.006C120.855 166.242 121.624 165.51 122.443 164.813C123.646 163.788 124.742 162.668 125.852 161.545C126.832 160.558 127.842 159.631 128.901 158.728C131.774 156.337 131.774 156.337 132.853 152.984C133.387 145.08 133.387 145.08 129.762 138.345C129.568 138.142 129.375 137.939 129.176 137.73C128.241 136.699 127.508 135.542 126.746 134.381C126.433 133.921 126.12 133.462 125.805 133.003C125.644 132.768 125.484 132.533 125.318 132.291C122.783 128.594 120.226 124.913 117.579 121.295C116.529 119.855 115.53 118.385 114.551 116.895C114.17 119.104 114.142 120.797 115.379 122.714C116.186 123.852 117.048 124.945 117.944 126.015C118.966 127.36 119.001 128.372 118.885 130.032C118.872 130.256 118.859 130.481 118.845 130.711C118.802 131.428 118.755 132.145 118.708 132.861C118.679 133.334 118.651 133.807 118.622 134.28C118.567 135.197 118.507 136.112 118.444 137.028C118.39 137.801 118.348 138.57 118.315 139.344C118.225 141.09 118.096 142.168 116.858 143.5C116.5 143.895 116.5 143.895 116.135 144.299C115.902 144.536 115.67 144.774 115.43 145.02C115.246 145.209 115.061 145.399 114.872 145.594C114.539 145.929 114.203 146.26 113.863 146.589C113.377 147.073 112.929 147.575 112.482 148.096C111.457 149.285 110.388 150.43 109.314 151.575C107.938 153.043 106.575 154.522 105.233 156.022C103.516 157.935 101.769 159.822 100.022 161.709C99.7249 162.031 99.4282 162.353 99.132 162.676C98.442 163.428 97.7477 164.173 97.0337 164.902C96.6683 165.284 96.6683 165.284 96.2955 165.674C96.0792 165.894 95.8628 166.115 95.6398 166.342C95.1391 166.959 95.1391 166.959 95.2871 167.675C95.5228 168.509 95.8422 169.151 96.2772 169.899C96.4348 170.173 96.5924 170.447 96.7548 170.729C96.9235 171.018 97.0922 171.308 97.266 171.606C97.6122 172.216 97.9582 172.825 98.304 173.434C98.9082 174.492 99.5232 175.54 100.156 176.581C102.316 180.227 102.48 182.956 101.459 187.134C100.628 189.922 99.4836 192.539 98.1449 195.117C97.9516 195.117 97.7582 195.117 97.559 195.117C97.5311 194.943 97.5033 194.77 97.4746 194.591C96.402 188.012 94.4995 182.926 90.5277 177.539C89.4172 177.909 89.2652 178.298 88.6429 179.273C88.4527 179.568 88.2626 179.863 88.0667 180.167C87.8697 180.478 87.6728 180.789 87.4699 181.11C87.0797 181.718 86.6894 182.327 86.2991 182.935C86.0258 183.369 86.0258 183.369 85.747 183.812C85.2543 184.57 85.2543 184.57 84.5596 185.442C83.7966 186.859 83.7354 188.313 83.6063 189.899C83.569 190.213 83.5316 190.527 83.493 190.851C83.2435 193.756 84.2493 195.457 85.8894 197.771C86.1823 198.116 86.1823 198.116 86.4811 198.468C86.7024 198.73 86.9237 198.992 87.1517 199.262C88.1155 200.351 89.0976 201.423 90.1016 202.476C91.1137 203.551 91.1137 203.551 91.1137 204.199C86.8264 204.535 83.2488 202.349 80.0724 199.713C79.4462 199.168 78.8334 198.61 78.223 198.047C78.0029 197.853 77.7827 197.659 77.5558 197.459C75.5611 195.375 75.5593 192.291 75.2934 189.551C73.725 193.927 74.9161 198.09 76.1368 202.399C76.4133 203.383 76.6144 204.358 76.7582 205.371C72.995 203.169 69.4244 199.61 67.9691 195.41C67.898 194.687 67.898 194.687 67.9016 193.925C67.9022 193.637 67.9027 193.35 67.9033 193.054C67.9069 192.756 67.9105 192.458 67.9142 192.151C67.9144 191.869 67.9146 191.587 67.9148 191.296C67.9183 190.681 67.9306 190.066 67.9498 189.451C67.9641 188.659 67.9483 187.895 67.9095 187.106C67.7951 182.883 69.5019 180.325 71.9242 176.99C72.2686 176.498 72.612 176.005 72.9542 175.511C73.7704 174.339 74.5975 173.175 75.4299 172.014C77.714 168.88 77.714 168.88 79.578 165.491C81.0383 162.436 82.7209 159.504 84.3751 156.552C85.2335 155.02 86.0853 153.484 86.9364 151.948C88.457 149.204 89.9868 146.466 91.5348 143.738C93.0179 141.123 94.4782 138.497 95.9293 135.864C96.0767 135.597 96.0767 135.597 96.2271 135.324C97.0378 133.86 97.0378 133.86 97.8345 132.389C98.0679 131.973 98.3197 131.568 98.58 131.169C99.9477 128.955 100.131 127.221 100.045 124.655C100.037 124.068 100.029 123.481 100.021 122.894C100.011 122.269 99.9969 121.644 99.9817 121.019C99.9507 119.709 99.9374 118.4 99.9273 117.09C99.8967 113.368 99.8516 109.646 99.7693 105.925C99.7238 103.865 99.6976 101.805 99.6922 99.7437C99.6885 98.6561 99.6751 97.5706 99.6376 96.4836C99.418 89.9151 99.418 89.9151 100.713 88.008C101.929 86.7361 103.308 85.8301 104.854 85.0042C105.652 84.568 106.355 84.0359 107.068 83.4732C107.493 83.1628 107.918 82.853 108.344 82.5439C110.537 80.9406 112.701 79.3063 114.844 77.6367C115.231 77.8301 115.618 78.0234 116.016 78.2227C116.016 79.3945 116.016 79.3945 115.503 80.0217C115.177 80.3276 115.177 80.3276 114.844 80.6396C114.518 80.9501 114.518 80.9501 114.185 81.2668C114.016 81.4224 113.847 81.578 113.672 81.7383C114.727 83.5357 116.176 84.9019 117.65 86.3594C117.922 86.63 118.193 86.9007 118.473 87.1795C119.19 87.8946 119.909 88.6079 120.629 89.3208C121.364 90.0503 122.098 90.7816 122.832 91.5127C124.269 92.9437 125.709 94.3728 127.149 95.8008C127.723 95.2265 127.606 94.3711 127.608 93.6012C127.334 92.3987 126.52 91.7863 125.611 91.0046C125.442 90.8471 125.272 90.6896 125.098 90.5273C125.098 90.334 125.098 90.1406 125.098 89.9414C124.905 89.9414 124.711 89.9414 124.512 89.9414C124.512 89.748 124.512 89.5547 124.512 89.3555C124.331 89.283 124.15 89.2104 123.963 89.1357C123.237 88.7091 123.062 88.3658 122.754 87.5977C122.561 87.5977 122.368 87.5977 122.168 87.5977C122.168 87.4043 122.168 87.2109 122.168 87.0117C121.999 86.9392 121.83 86.8667 121.656 86.792C120.9 86.3722 120.393 85.9031 119.825 85.2539C119.825 85.0605 119.825 84.8672 119.825 84.668C119.667 84.6075 119.51 84.5471 119.349 84.4849C118.397 83.9339 117.504 83.2506 116.895 82.3242C116.937 81.5273 117.13 81.2139 117.675 80.6305C118.059 80.294 118.444 79.9584 118.829 79.6234C118.964 79.4512 119.099 79.279 119.239 79.1016C119.121 78.1681 118.815 77.692 118.148 77.0462C117.99 76.8914 117.833 76.7365 117.67 76.577C117.505 76.4191 117.34 76.2613 117.17 76.0986C117.003 75.9362 116.837 75.7738 116.665 75.6065C116.256 75.207 115.843 74.8103 115.43 74.4141C115.832 73.4602 116.222 73.029 117.083 72.468C118.914 71.1135 120.409 69.753 120.968 67.4752C121.38 64.6339 121.247 61.7224 121.161 58.862C121.131 57.6737 121.127 56.4853 121.121 55.2967C121.106 52.9769 121.061 50.6588 120.996 48.3398ZM130.371 74.1211C131.345 75.1855 132.425 75.9312 133.631 76.7029C133.816 76.8258 134.002 76.9487 134.193 77.0754C134.665 77.3796 135.154 77.6571 135.645 77.9297C135.838 77.833 136.032 77.7363 136.231 77.6367C136.052 76.5706 135.781 75.8148 135.059 75C133.587 74.3971 131.941 74.2799 130.371 74.1211ZM147.913 74.5056C147.604 74.583 147.295 74.6605 146.977 74.7402C146.158 74.9459 146.158 74.9459 145.606 75.5859C145.409 76.1622 145.409 76.1622 145.276 76.7944C145.192 77.1691 145.107 77.5437 145.02 77.9297C146.426 77.4547 147.559 76.672 148.774 75.8423C148.977 75.7052 149.18 75.5681 149.389 75.4269C149.886 75.0905 150.383 74.7524 150.879 74.4141C149.758 74.0864 149.05 74.2108 147.913 74.5056ZM131.25 83.4961C131.676 88.1815 132.263 92.8229 133.008 97.467C133.045 97.7005 133.082 97.934 133.12 98.1745C133.226 98.8497 133.336 99.5243 133.448 100.199C133.479 100.396 133.51 100.594 133.542 100.797C133.806 102.357 134.25 103.629 134.766 105.176C138.633 105.176 142.5 105.176 146.485 105.176C147.343 101.079 148.119 96.9891 148.755 92.8528C148.786 92.6545 148.818 92.4563 148.85 92.252C149.306 89.3357 149.567 86.4432 149.707 83.4961C148.551 84.1664 147.774 84.6777 147.071 85.8398C146.876 86.7316 146.84 87.6215 146.796 88.5315C146.557 92.0368 146.042 95.4832 145.511 98.9533C145.479 99.1647 145.447 99.3761 145.413 99.5939C145.325 100.174 145.235 100.754 145.145 101.334C145 102.238 145 102.238 145.02 103.125C140.669 102.98 140.669 102.98 136.231 102.832C135.645 99.569 135.091 96.3474 134.792 93.0473C134.77 92.812 134.748 92.5767 134.725 92.3342C134.545 90.4246 134.545 90.4246 134.476 89.4938C134.375 86.4972 134.375 86.4972 132.858 84.066C131.946 83.4485 131.946 83.4485 131.25 83.4961ZM139.746 89.3555C139.922 90.0444 140.118 90.7283 140.332 91.4062C140.526 91.5029 140.719 91.5996 140.918 91.6992C141.287 90.8479 141.504 90.2941 141.504 89.3555C140.924 89.3555 140.344 89.3555 139.746 89.3555ZM135.645 89.6484C135.777 90.2228 135.912 90.7964 136.048 91.3696C136.123 91.6891 136.197 92.0086 136.274 92.3378C136.462 93.1946 136.462 93.1946 137.11 93.75C137.593 92.3965 138.077 91.043 138.575 89.6484C137.608 89.6484 136.641 89.6484 135.645 89.6484ZM142.676 89.6484C142.856 90.3268 143.04 91.004 143.225 91.6809C143.302 91.9707 143.302 91.9707 143.38 92.2663C143.518 92.7661 143.682 93.2588 143.848 93.75C144.041 93.8467 144.235 93.9434 144.434 94.043C144.63 93.4207 144.825 92.7981 145.02 92.1753C145.129 91.8286 145.237 91.4819 145.35 91.1247C145.633 90.295 145.633 90.295 145.606 89.6484C144.639 89.6484 143.672 89.6484 142.676 89.6484ZM137.403 98.1445C137.403 98.8213 137.403 99.498 137.403 100.195C138.176 100.195 138.95 100.195 139.746 100.195C139.046 99.2452 138.515 98.5813 137.403 98.1445ZM142.969 98.1445C142.196 98.7246 141.422 99.3047 140.625 99.9023C140.722 100.096 140.819 100.289 140.918 100.488C142.091 100.515 142.091 100.515 143.262 100.488C143.659 100.159 143.659 100.159 143.573 99.2981C143.567 99.0141 143.561 98.7301 143.555 98.4375C143.362 98.3408 143.168 98.2441 142.969 98.1445Z" fill="black"/>
<path d="M152.343 177.832C153.579 178.927 154.397 180.269 155.291 181.641C155.658 182.197 156.025 182.752 156.392 183.308C156.687 183.755 156.687 183.755 156.989 184.211C157.991 185.719 159.008 187.217 160.026 188.715C160.383 189.241 160.737 189.769 161.09 190.296C162.191 191.934 163.305 193.539 164.515 195.099C166.978 198.33 168 200.421 167.66 204.5C167.362 208.143 169.014 211.952 170.214 215.332C164.873 214.696 160.446 212.051 156.738 208.301C156.499 208.065 156.26 207.829 156.015 207.587C151.429 202.813 149.256 196.409 149.289 189.876C149.377 186.575 149.86 180.315 152.343 177.832Z" fill="black"/>
<path d="M147.07 85.2539C147.572 86.2568 147.282 87.3863 147.18 88.4766C147.155 88.7516 147.13 89.0267 147.104 89.3101C146.828 92.0896 146.433 94.8508 146.027 97.6135C145.978 97.9482 145.978 97.9482 145.927 98.2897C145.369 102.077 145.369 102.077 145.02 103.125C142.119 103.125 139.219 103.125 136.23 103.125C135.75 101.923 135.515 101.076 135.341 99.8234C135.292 99.4683 135.242 99.1132 135.191 98.7473C135.141 98.3731 135.092 97.999 135.04 97.6135C134.963 97.043 134.963 97.043 134.884 96.4609C134.532 93.8007 134.264 91.159 134.18 88.4766C134.276 88.4766 134.373 88.4766 134.473 88.4766C134.473 89.0566 134.473 89.6367 134.473 90.2344C134.956 90.2344 135.439 90.2344 135.938 90.2344C136.228 91.2012 136.518 92.168 136.816 93.1641C137.305 92.4309 137.585 91.8716 137.878 91.0583C137.955 90.8488 138.031 90.6392 138.11 90.4232C138.166 90.2642 138.223 90.1052 138.281 89.9414C138.475 89.9414 138.668 89.9414 138.867 89.9414C138.964 89.748 139.061 89.5547 139.16 89.3555C139.354 89.3555 139.547 89.3555 139.746 89.3555C140.036 90.0322 140.326 90.709 140.625 91.4062C140.818 91.2129 141.012 91.0195 141.211 90.8203C142.293 89.9414 142.293 89.9414 142.969 89.9414C143.355 91.1982 143.742 92.4551 144.141 93.75C144.624 92.3965 145.107 91.043 145.605 89.6484C144.639 89.6484 143.672 89.6484 142.676 89.6484C142.676 89.5518 142.676 89.4551 142.676 89.3555C143.739 89.3555 144.803 89.3555 145.898 89.3555C146.043 89.6455 146.043 89.6455 146.191 89.9414C146.756 89.3769 146.588 88.3513 146.631 87.5977C146.745 85.5794 146.745 85.5794 147.07 85.2539ZM137.402 98.1445C137.402 98.8213 137.402 99.498 137.402 100.195C138.176 100.195 138.949 100.195 139.746 100.195C139.046 99.2452 138.514 98.5813 137.402 98.1445ZM142.969 98.1445C142.195 98.7246 141.422 99.3047 140.625 99.9023C140.722 100.096 140.818 100.289 140.918 100.488C142.091 100.515 142.091 100.515 143.262 100.488C143.659 100.159 143.659 100.159 143.573 99.2981C143.567 99.0141 143.561 98.7301 143.555 98.4375C143.361 98.3408 143.168 98.2441 142.969 98.1445Z" fill="black"/>
</svg>
