<svg width="300" height="300" viewBox="0 0 300 300" fill="none" xmlns="http://www.w3.org/2000/svg">
<path d="M170.161 87.3864C172.757 89.7151 175.117 92.1559 177.246 94.9215C177.363 95.0724 177.479 95.2234 177.599 95.3789C186.133 106.573 189.753 121.075 188.139 135.015C187.199 141.956 184.957 148.53 181.641 154.687C181.5 154.954 181.5 154.954 181.356 155.226C179.273 159.147 176.616 162.481 173.559 165.679C173.284 165.967 173.011 166.256 172.74 166.546C163.544 176.385 149.956 182.318 136.557 182.845C122.056 183.221 108.439 178.752 97.559 169.043C97.4012 168.904 97.2433 168.766 97.0807 168.624C91.3937 163.639 86.8401 157.522 83.7894 150.586C83.6436 150.26 83.6436 150.26 83.4948 149.929C80.4292 143.014 78.9753 135.829 79.0104 128.283C79.0109 128.045 79.0115 127.806 79.012 127.56C79.0256 123.94 79.1743 120.436 79.9808 116.894C80.0296 116.669 80.0783 116.444 80.1285 116.212C81.7312 108.967 84.9058 102.029 89.3558 96.0934C89.4707 95.9356 89.5856 95.7778 89.7039 95.6152C98.0694 84.1414 111.11 76.3653 125.098 74.1207C141.452 71.6335 157.762 76.4632 170.161 87.3864ZM122.754 78.2223C122.511 78.2789 122.268 78.3356 122.017 78.394C110.85 81.0987 100.436 87.4684 93.4574 96.6793C93.2421 96.9486 93.0269 97.2179 92.8051 97.4953C90.9866 99.8169 89.5404 102.273 88.184 104.882C88.08 105.082 87.9761 105.282 87.869 105.488C81.8886 117.167 81.0782 130.94 84.8987 143.428C85.9833 146.739 87.3927 149.876 89.0629 152.929C89.1617 153.112 89.2605 153.295 89.3623 153.483C93.2862 160.641 99.2472 166.656 106.055 171.093C106.252 171.225 106.449 171.356 106.652 171.491C112.057 175.048 118.19 177.191 124.512 178.418C124.848 178.486 125.184 178.554 125.531 178.624C138.23 180.969 151.41 177.767 162.14 170.782C164.81 168.939 167.258 166.859 169.629 164.648C169.864 164.432 170.099 164.217 170.341 163.995C178.533 156.182 184.316 143.767 184.618 132.421C184.624 132.01 184.628 131.6 184.63 131.189C184.633 130.856 184.633 130.856 184.636 130.515C184.725 123.799 184.725 123.799 183.692 117.187C183.635 116.949 183.578 116.711 183.52 116.466C181.026 106.238 175.523 96.3624 167.286 89.6481C166.997 89.4075 166.709 89.1669 166.412 88.9191C154.478 79.121 137.95 74.6627 122.754 78.2223Z" fill="black"/>
<path d="M161.976 97.8646C162.38 98.2499 162.781 98.6369 163.183 99.0239C163.39 99.2119 163.596 99.4 163.809 99.5938C170.63 105.986 174.853 116.145 175.231 125.407C175.492 136.823 172.912 147.279 164.937 155.819C164.467 156.325 164.031 156.837 163.604 157.38C157.383 164.558 147.043 168.939 137.695 169.629C125.064 170.183 114.528 166.626 105.01 158.258C103.427 156.798 102.081 155.23 100.781 153.516C100.662 153.362 100.543 153.208 100.42 153.049C94.9162 145.883 92.2341 137.419 92.2297 128.431C92.2261 128.056 92.2225 127.682 92.2188 127.296C92.2133 123.688 92.6357 120.248 93.6579 116.785C93.7347 116.523 93.8114 116.262 93.8905 115.992C95.5966 110.353 98.3966 105.524 102.246 101.075C102.496 100.758 102.747 100.44 102.996 100.122C103.935 99.0633 104.971 98.1742 106.054 97.2661C106.286 97.0636 106.518 96.8612 106.757 96.6527C122.576 83.1612 146.802 83.5756 161.976 97.8646ZM104.846 103.492C98.0758 111.399 95.3186 121.252 95.8002 131.543C96.6544 141.574 101.827 150.981 109.478 157.449C117.643 164.088 127.875 166.916 138.29 165.851C142.854 165.305 147.056 164.041 151.171 162.012C151.608 161.8 151.608 161.8 152.054 161.583C160.362 157.304 166.982 149.282 169.839 140.425C172.969 130.155 172.142 119.485 167.084 109.962C162.039 101 153.683 94.545 143.81 91.7546C129.353 87.9139 114.947 92.7006 104.846 103.492Z" fill="black"/>
<path d="M191.601 170.508C192.635 171.328 193.586 172.225 194.53 173.145C194.821 173.427 194.821 173.427 195.117 173.714C195.767 174.346 196.413 174.981 197.057 175.617C197.375 175.929 197.375 175.929 197.7 176.248C197.896 176.444 198.093 176.64 198.295 176.843C198.473 177.019 198.651 177.196 198.834 177.377C199.218 177.832 199.218 177.832 199.218 178.418C199.411 178.418 199.604 178.418 199.804 178.418C200.207 178.829 200.207 178.829 200.684 179.409C202.194 181.186 203.875 182.786 205.542 184.413C205.784 184.651 206.026 184.89 206.275 185.136C206.606 185.459 206.606 185.459 206.942 185.788C207.421 186.329 207.421 186.329 207.421 186.914C207.614 186.914 207.808 186.914 208.007 186.914C208.406 187.321 208.406 187.321 208.879 187.898C210.436 189.729 212.173 191.377 213.891 193.055C218.516 197.622 218.516 197.622 219.854 200.464C219.986 200.738 220.119 201.011 220.255 201.293C221.685 204.799 221.825 209.262 220.41 212.809C219.409 214.768 218.143 216.497 216.503 217.969C216.243 218.211 215.983 218.453 215.716 218.702C212.355 221.447 208.364 221.842 204.198 221.485C199.018 220.483 195.565 216.677 191.985 213.117C191.748 212.882 191.512 212.646 191.268 212.404C190.241 211.374 189.233 210.343 188.29 209.236C186.807 207.513 185.16 205.942 183.544 204.346C179.895 200.742 179.895 200.742 178.315 198.886C177.578 198.054 176.78 197.287 175.984 196.512C172.544 193.165 169.34 189.639 169.042 184.571C169.018 184.214 168.994 183.858 168.969 183.49C169.046 179.49 170.832 176.448 173.639 173.724C178.667 168.983 185.296 166.162 191.601 170.508ZM180.175 174.024C179.508 174.623 178.825 175.202 178.142 175.782C177.965 175.935 177.788 176.087 177.605 176.245C176.424 177.261 175.212 178.209 173.926 179.094C172.729 180.308 172.737 182.001 172.741 183.619C172.741 183.824 172.742 184.029 172.742 184.24C172.782 185.933 173.035 187.544 174.022 188.965C174.621 189.338 174.621 189.338 175.194 189.551C175.336 189.406 175.478 189.26 175.625 189.111C176.594 188.128 177.565 187.167 178.618 186.274C179.897 185.176 181.072 183.983 182.249 182.778C183.08 181.934 183.928 181.131 184.826 180.358C186.12 179.24 187.323 178.042 188.524 176.825C188.737 176.611 188.95 176.397 189.17 176.176C189.688 175.655 190.205 175.132 190.722 174.61C188.797 172.621 187.061 171.97 184.331 171.827C182.266 171.857 181.556 172.597 180.175 174.024ZM193.065 177.247C191.209 178.813 189.496 180.497 187.792 182.227C186.257 183.785 184.721 185.307 183.06 186.731C182.185 187.501 181.374 188.333 180.559 189.167C179.501 190.25 178.453 191.267 177.245 192.188C177.687 193.229 178.293 193.886 179.098 194.674C179.351 194.924 179.604 195.174 179.865 195.431C180.131 195.69 180.396 195.949 180.669 196.216C183.613 199.102 183.613 199.102 184.685 200.359C186.111 202.025 187.698 203.539 189.257 205.079C191.18 206.978 193.066 208.881 194.823 210.938C195.32 211.492 195.827 212.03 196.343 212.568C196.703 212.949 196.703 212.949 197.07 213.338C197.683 213.916 197.683 213.916 198.315 213.902C199.245 213.403 199.964 212.708 200.719 211.982C200.902 211.808 201.086 211.635 201.274 211.457C203.643 209.197 205.943 206.865 208.244 204.537C209.72 203.048 211.191 201.574 212.811 200.239C213.34 199.75 213.743 199.22 214.159 198.633C211.487 195.734 208.755 192.906 205.947 190.139C204.706 188.911 203.523 187.664 202.387 186.341C201.336 185.161 200.197 184.067 199.071 182.959C197.546 181.458 196.058 179.964 194.703 178.305C194.196 177.791 193.724 177.531 193.065 177.247ZM215.683 202.028C215.474 202.242 215.266 202.455 215.051 202.675C214.707 203.024 214.707 203.024 214.355 203.38C213.995 203.75 213.995 203.75 213.628 204.126C213.157 204.608 212.685 205.088 212.213 205.568C211.898 205.891 211.898 205.891 211.578 206.219C210.937 206.836 210.937 206.836 210.216 207.41C209.419 208.051 208.721 208.741 208.007 209.473C205.761 211.719 203.515 213.965 201.269 216.211C202.763 217.797 205.023 218.02 207.128 218.097C209.894 218.022 212.462 216.988 214.451 215.058C217.137 212.219 217.789 209.495 217.743 205.69C217.691 204.229 217.342 202.916 216.796 201.563C216.166 201.498 216.166 201.498 215.683 202.028Z" fill="black"/>
<path d="M193.872 185.027C195.546 185.253 196.424 186.419 197.462 187.646C198.846 189.238 200.354 190.706 201.855 192.187C205.561 195.84 205.561 195.84 207.129 197.753C207.293 197.952 207.457 198.151 207.627 198.356C208.008 198.925 208.008 198.925 207.953 199.694C207.715 200.39 207.715 200.39 207.129 200.976C206.36 201.141 206.36 201.141 205.371 200.976C203.744 199.799 202.379 198.28 201.031 196.801C199.05 194.65 196.994 192.583 194.9 190.541C194.674 190.319 194.448 190.096 194.215 189.867C194.015 189.671 193.814 189.476 193.607 189.274C193.021 188.621 192.589 187.986 192.188 187.206C192.277 185.928 192.524 185.242 193.872 185.027Z" fill="black"/>
</svg>
