<svg width="300" height="300" viewBox="0 0 300 300" fill="none" xmlns="http://www.w3.org/2000/svg">
<path d="M149.659 74.7894C150.46 75.7941 150.594 76.3544 150.587 77.6367C150.301 78.447 150.019 79.1069 149.616 79.8523C149.51 80.0554 149.404 80.2585 149.295 80.4678C148.154 82.5925 146.772 84.5112 145.313 86.4258C145.078 86.7415 144.844 87.0573 144.609 87.3734C142.721 89.8975 140.664 92.2693 138.575 94.6289C138.329 94.9084 138.083 95.1878 137.829 95.4758C136.468 97.0057 135.055 98.4682 133.595 99.9023C132.655 100.838 131.721 101.779 130.787 102.72C130.277 103.233 129.766 103.747 129.255 104.26C129.002 104.516 128.748 104.772 128.488 105.035C127.015 106.513 125.512 107.923 123.927 109.277C123.588 109.577 123.249 109.876 122.911 110.177C120.625 112.195 118.271 114.089 115.834 115.923C114.968 116.576 114.11 117.238 113.26 117.912C110.398 120.175 107.471 122.293 104.437 124.319C103.693 124.817 102.951 125.319 102.209 125.821C97.1933 129.206 92.1101 132.386 86.7745 135.242C86.5846 135.344 86.3947 135.446 86.1991 135.551C80.7574 138.465 80.7574 138.465 77.9854 138.226C77.6089 138.198 77.2324 138.17 76.8444 138.14C75.8797 137.988 75.8797 137.988 75.0008 137.402C74.7758 136.89 74.7758 136.89 74.6151 136.272C74.5545 136.041 74.4939 135.81 74.4314 135.572C74.3716 135.33 74.3117 135.088 74.25 134.839C74.1586 134.496 74.1586 134.496 74.0652 134.146C73.0883 130.331 72.8299 126.544 72.8401 122.626C72.8403 122.395 72.8405 122.165 72.8406 121.927C72.853 118.006 73.1571 114.264 74.1219 110.449C74.216 110.076 74.216 110.076 74.3121 109.696C76.1439 102.692 79.1165 96.2056 83.2039 90.2344C84.638 91.4532 85.3436 93.1166 86.1925 94.7594C87.0698 96.4027 87.836 97.5274 89.6675 98.1628C93.9891 98.0942 97.9504 94.3061 100.938 91.4989C101.591 90.8858 102.26 90.3014 102.943 89.7217C104.046 88.7636 105.102 87.7473 105.762 86.4258C105.869 84.7972 105.858 83.9788 104.884 82.6172C104.243 82.0084 104.243 82.0084 103.51 81.4636C103.253 81.2638 102.996 81.0641 102.731 80.8582C101.836 80.1848 100.934 79.5218 100.02 78.875C99.8171 78.6971 99.8171 78.6971 99.6102 78.5156C99.6102 78.3223 99.6102 78.1289 99.6102 77.9297C105.978 74.4017 112.374 71.727 119.532 70.3125C119.873 70.2441 120.214 70.1758 120.565 70.1054C129.528 68.5343 142.207 68.7874 149.659 74.7894Z" fill="black"/>
<path d="M169.922 156.152C171.137 157.351 172.308 158.586 173.474 159.833C173.65 160.02 173.826 160.208 174.007 160.401C174.829 161.278 175.648 162.156 176.451 163.049C178.8 165.651 181.268 168.129 183.75 170.604C184.481 171.334 185.212 172.066 185.942 172.798C186.413 173.27 186.885 173.741 187.357 174.212C187.572 174.428 187.787 174.643 188.008 174.865C189.187 176.039 190.391 177.165 191.654 178.248C192.589 179.059 193.484 179.913 194.385 180.762C195.875 182.158 197.376 183.533 198.926 184.863C199.254 185.148 199.581 185.433 199.909 185.718C203.431 188.782 206.985 191.798 210.617 194.732C211.402 195.366 212.183 196.004 212.961 196.647C215.692 198.899 218.504 201.017 221.367 203.098C222.053 203.601 222.734 204.109 223.414 204.619C225.969 206.534 228.567 208.364 231.226 210.132C231.524 210.331 231.821 210.53 232.128 210.736C233.423 211.597 234.718 212.443 236.061 213.226C239.215 215.092 239.215 215.092 239.777 216.907C239.894 217.794 239.894 217.794 239.941 218.848C239.957 219.068 239.972 219.288 239.987 219.515C240.199 222.804 240.028 225.538 238.477 228.516C238.264 228.951 238.264 228.951 238.046 229.395C235.338 234.492 230.441 238.774 224.935 240.536C221.2 241.498 217.452 241.413 213.867 239.941C212.83 239.114 212.223 238.13 211.523 237.012C211.117 236.431 210.704 235.856 210.29 235.28C209.831 234.639 209.379 233.995 208.928 233.348C208.04 232.076 207.146 230.808 206.25 229.541C205.957 229.126 205.665 228.712 205.372 228.297C204.783 227.463 204.193 226.629 203.603 225.795C202.164 223.763 200.735 221.726 199.329 219.672C198.219 218.051 197.093 216.443 195.946 214.848C195.149 213.738 194.361 212.623 193.576 211.505C191.669 208.788 189.709 206.113 187.733 203.446C187.203 202.729 186.675 202.009 186.148 201.289C183.053 197.06 179.82 192.964 176.504 188.906C176.128 188.445 175.754 187.983 175.381 187.521C172.655 184.155 169.796 180.908 166.851 177.733C166.512 177.362 166.176 176.987 165.843 176.61C164.092 174.638 162.254 172.766 160.382 170.911C160.084 170.614 159.785 170.316 159.487 170.019C158.767 169.302 158.046 168.586 157.324 167.871C157.707 166.723 158.176 166.565 159.192 165.93C161.025 164.745 162.687 163.42 164.355 162.012C164.673 161.761 164.99 161.511 165.308 161.261C166.365 160.324 167.255 159.281 168.164 158.203C168.5 157.812 168.835 157.422 169.171 157.031C169.419 156.741 169.667 156.451 169.922 156.152Z" fill="black"/>
<path d="M169.922 95.5078C170.867 96.4532 171.031 97.7024 171.387 98.9685C171.463 99.2274 171.539 99.4863 171.618 99.753C173.632 106.829 173.371 114.466 171.68 121.582C171.6 121.921 171.6 121.921 171.518 122.266C170.695 125.621 169.375 128.734 167.871 131.836C167.77 132.046 167.669 132.256 167.564 132.472C162.273 143.308 153.329 152.073 142.676 157.617C142.36 157.782 142.36 157.782 142.039 157.95C130.414 163.943 116.133 166.532 103.418 162.598C101.343 161.88 99.3005 161.077 97.2656 160.254C97.6651 159.455 98.0316 159.446 98.8678 159.158C99.1463 159.059 99.4249 158.96 99.7119 158.858C100.016 158.751 100.321 158.643 100.635 158.533C109.989 155.12 118.391 150.045 126.562 144.434C126.81 144.265 127.057 144.096 127.311 143.922C132.903 140.087 138.152 135.843 143.166 131.282C143.605 130.884 144.047 130.49 144.493 130.101C146.216 128.589 147.845 126.991 149.469 125.372C149.692 125.151 149.915 124.929 150.144 124.701C151.524 123.318 152.829 121.892 154.102 120.41C154.38 120.096 154.658 119.783 154.937 119.469C157.295 116.793 159.386 113.959 161.426 111.035C161.556 110.851 161.687 110.666 161.822 110.476C165.105 105.827 167.778 100.776 169.922 95.5078Z" fill="black"/>
<path d="M116.309 119.531C116.36 122.947 116.197 126.339 116.016 129.749C115.987 130.294 115.959 130.84 115.931 131.386C115.863 132.708 115.793 134.03 115.723 135.352C115.897 135.372 116.072 135.393 116.252 135.414C119.777 135.831 123.293 136.289 126.801 136.835C127.115 136.882 127.429 136.93 127.753 136.979C128.045 137.025 128.337 137.072 128.637 137.12C128.895 137.16 129.152 137.201 129.418 137.242C130.078 137.402 130.078 137.402 130.957 137.988C127.783 140.311 124.591 142.589 121.289 144.727C121.076 144.865 120.863 145.004 120.643 145.146C99.7803 158.655 99.7803 158.655 91.8949 157.519C89.9256 156.988 88.5117 155.723 87.0117 154.395C86.7232 154.142 86.4347 153.888 86.1374 153.628C82.4248 150.326 78.7506 146.423 76.7578 141.797C76.7578 141.507 76.7578 141.217 76.7578 140.918C77.0199 140.932 77.282 140.945 77.552 140.959C77.9063 140.97 78.2605 140.98 78.6255 140.991C78.9722 141.005 79.3189 141.018 79.6761 141.032C90.8277 140.557 106.699 126.433 115.488 119.9C116.016 119.531 116.016 119.531 116.309 119.531Z" fill="black"/>
<path d="M153.516 75.8789C159.637 78.0763 164.67 84.2858 167.921 89.6805C168.587 92.003 167.688 94.2378 166.736 96.3501C166.619 96.6141 166.503 96.8782 166.383 97.1503C163.626 103.269 160.021 108.724 155.859 113.965C155.535 114.375 155.535 114.375 155.204 114.793C153.683 116.684 152.07 118.476 150.419 120.251C149.847 120.868 149.281 121.49 148.715 122.112C146.108 124.971 146.108 124.971 145.02 125.977C144.826 125.977 144.633 125.977 144.434 125.977C144.434 126.17 144.434 126.363 144.434 126.562C143.952 127.048 143.952 127.048 143.317 127.588C143.109 127.766 142.902 127.944 142.688 128.128C142.09 128.613 142.09 128.613 141.211 129.199C141.577 125.962 141.988 122.735 142.451 119.51C142.55 118.822 142.647 118.133 142.744 117.444C142.807 117.002 142.87 116.56 142.933 116.119C142.962 115.914 142.991 115.71 143.02 115.5C143.142 114.659 143.285 113.894 143.555 113.086C143.287 113.073 143.02 113.06 142.744 113.047C139.659 112.878 136.605 112.562 133.539 112.177C132.739 112.077 131.938 111.982 131.137 111.886C130.626 111.823 130.115 111.759 129.604 111.695C129.366 111.667 129.127 111.639 128.881 111.61C127.216 111.395 127.216 111.395 126.562 110.742C129.943 107.311 129.943 107.311 131.195 106.256C133.758 104.07 136.189 101.599 138.361 99.0257C138.9 98.3995 139.458 97.7939 140.02 97.1889C148.965 87.7024 148.965 87.7024 153.516 75.8789Z" fill="black"/>
<path d="M69.1406 58.8867C70.7748 59.8965 72.2839 61.029 73.7732 62.2375C75.5253 63.659 77.3105 65.028 79.1199 66.3757C80.9455 67.7363 82.7561 69.1104 84.5399 70.5254C86.0807 71.7445 87.6443 72.9329 89.209 74.1211C91.4557 75.8281 93.6873 77.5515 95.8993 79.3031C96.4199 79.7137 96.9427 80.1214 97.4659 80.5286C99.2999 81.9578 101.111 83.395 102.832 84.9609C102.339 86.228 101.415 87.0768 100.47 88.0188C100.291 88.1972 100.112 88.3756 99.9279 88.5594C98.5401 89.9117 97.0803 91.1413 95.5444 92.3218C95.2419 92.5554 95.2419 92.5554 94.9332 92.7938C91.7019 95.2148 91.7019 95.2148 89.9414 95.2148C89.4495 94.5465 89.4495 94.5465 88.9103 93.6035C88.8122 93.4341 88.7141 93.2647 88.613 93.0902C88.2898 92.5306 87.9712 91.9685 87.6526 91.4062C87.4281 91.0157 87.2033 90.6253 86.9781 90.2352C86.5207 89.4417 86.065 88.6473 85.6105 87.8521C84.8718 86.5609 84.1211 85.2769 83.3689 83.9935C80.8528 79.7002 78.3738 75.3855 75.8906 71.0731C75.3193 70.0809 74.7477 69.0889 74.176 68.0969C73.9942 67.7811 73.8123 67.4652 73.625 67.1398C72.8054 65.7181 71.9821 64.2992 71.1433 62.8887C71.0047 62.6554 70.866 62.422 70.7231 62.1815C70.4695 61.756 70.2147 61.3312 69.9585 60.9071C69.1406 59.5365 69.1406 59.5365 69.1406 58.8867Z" fill="black"/>
<path d="M188.965 58.8867C189.255 59.0317 189.255 59.0317 189.551 59.1797C189.342 59.5014 189.342 59.5014 189.128 59.8297C186.072 64.5585 183.112 69.3494 180.152 74.1388C177.063 79.1314 173.942 84.1028 170.801 89.0625C170.033 88.1343 169.378 87.2072 168.768 86.1694C166.023 81.8094 162.293 78.2467 158.048 75.3727C157.601 75.0668 157.168 74.742 156.738 74.4141C156.738 74.2207 156.738 74.0273 156.738 73.8281C157.033 73.6919 157.033 73.6919 157.333 73.5529C161.536 71.6076 165.733 69.6504 169.922 67.6758C174.003 65.7524 178.088 63.837 182.186 61.9479C182.796 61.6661 183.406 61.3836 184.016 61.1001C184.847 60.7141 185.679 60.331 186.511 59.9487C186.754 59.8351 186.998 59.7214 187.248 59.6043C187.813 59.3473 188.388 59.1142 188.965 58.8867Z" fill="black"/>
<path d="M75 144.727C75.9512 145.614 76.6455 146.554 77.3621 147.638C78.7744 149.727 80.3568 151.633 82.0312 153.516C82.2016 153.707 82.3719 153.899 82.5474 154.097C84.2562 155.905 86.5416 157.968 88.7695 159.082C88.7695 159.275 88.7695 159.469 88.7695 159.668C88.5689 159.757 88.3683 159.847 88.1616 159.939C83.7379 161.91 79.3258 163.904 74.9268 165.93C71.3171 167.592 67.7049 169.248 64.0869 170.892C63.8854 170.984 63.6838 171.076 63.4762 171.17C62.5554 171.589 61.6343 172.006 60.7126 172.423C60.1188 172.692 59.5256 172.962 58.9331 173.233C58.6957 173.341 58.4584 173.449 58.2138 173.56C58.0149 173.651 57.8159 173.742 57.611 173.836C57.1289 174.023 57.1289 174.023 56.543 174.023C57.0035 172.693 57.7277 171.58 58.5022 170.416C59.881 168.316 61.2223 166.196 62.5488 164.062C63.9459 161.819 65.3568 159.586 66.7992 157.371C67.7886 155.85 68.7602 154.319 69.7266 152.783C70.9068 150.909 72.0954 149.041 73.2971 147.18C73.4348 146.967 73.5724 146.753 73.7143 146.533C74.6713 145.055 74.6713 145.055 75 144.727Z" fill="black"/>
<path d="M126.563 113.965C127.076 114.024 127.589 114.082 128.102 114.14C129.912 114.352 131.716 114.597 133.521 114.844C134.154 114.929 134.787 115.013 135.42 115.098C136.96 115.304 138.5 115.512 140.039 115.723C139.904 119.323 139.204 122.825 138.556 126.361C138.444 126.979 138.333 127.597 138.221 128.214C137.95 129.715 137.677 131.215 137.402 132.715C136.255 132.478 135.794 132.071 134.985 131.213C134.146 130.343 133.304 129.509 132.385 128.723C131.633 128.078 130.919 127.416 130.225 126.709C129.357 125.827 128.448 125.013 127.511 124.205C126.739 123.531 125.983 122.841 125.226 122.15C124.03 121.058 122.819 119.99 121.582 118.945C122.721 120.678 123.896 122.378 125.116 124.054C125.278 124.278 125.441 124.502 125.608 124.733C126.121 125.441 126.635 126.148 127.148 126.855C127.827 127.789 128.504 128.723 129.181 129.657C129.333 129.866 129.485 130.075 129.642 130.29C130.705 131.757 131.72 133.252 132.715 134.766C129.675 134.589 126.696 134.18 123.688 133.722C123.225 133.652 122.763 133.583 122.3 133.514C121.182 133.347 120.063 133.178 118.945 133.008C118.714 131.997 118.621 131.083 118.644 130.047C118.65 129.756 118.657 129.466 118.663 129.166C118.704 127.842 118.755 126.518 118.813 125.194C118.84 124.497 118.861 123.8 118.874 123.104C118.998 117.075 118.998 117.075 120.235 115.542C122.239 113.872 124.058 113.627 126.563 113.965Z" fill="black"/>
<path d="M162.304 145.898C167.74 148.469 167.74 148.469 169.042 150C169.317 150.934 169.317 150.934 169.042 152.051C167.702 154.331 165.87 156.288 164.062 158.203C163.864 158.42 163.667 158.636 163.463 158.859C160.612 161.871 156.508 165.267 152.362 166.132C151.278 166.109 150.838 165.914 149.999 165.234C148.984 164.095 148.344 162.907 147.711 161.536C147.616 161.34 147.521 161.144 147.423 160.943C146.741 159.483 146.741 159.483 147.07 158.496C147.734 158.065 147.734 158.065 148.608 157.599C153.764 154.685 158.515 150.426 162.304 145.898Z" fill="black"/>
<path d="M174.023 97.8516C178.23 98.7766 182.356 99.9519 186.493 101.147C187.162 101.34 187.831 101.532 188.5 101.724C190.12 102.19 191.74 102.657 193.359 103.125C193.005 104.189 192.754 104.276 191.811 104.832C191.544 104.992 191.277 105.152 191.002 105.316C190.564 105.573 190.564 105.573 190.118 105.835C189.503 106.203 188.888 106.571 188.272 106.939C187.953 107.13 187.633 107.321 187.304 107.518C185.722 108.471 184.157 109.45 182.593 110.431C182.311 110.607 182.029 110.783 181.739 110.965C180.049 112.024 178.367 113.094 176.692 114.175C176.074 114.551 176.074 114.551 175.781 114.551C175.777 114.323 175.773 114.094 175.768 113.859C175.654 108.39 175.24 103.191 174.023 97.8516Z" fill="black"/>
<path d="M99.6086 164.062C99.7689 164.111 99.9292 164.16 100.094 164.21C104.892 165.654 109.527 166.739 114.55 166.992C114.55 168.009 114.375 168.225 113.797 169.033C113.551 169.38 113.551 169.38 113.3 169.734C113.12 169.983 112.941 170.233 112.756 170.49C112.378 171.021 112 171.552 111.623 172.084C111.428 172.356 111.233 172.629 111.032 172.91C110.121 174.191 109.223 175.481 108.324 176.77C106.704 179.088 105.068 181.395 103.417 183.691C102.803 182.77 102.669 182.224 102.469 181.149C102.372 180.637 102.372 180.637 102.274 180.115C102.172 179.562 102.172 179.562 102.069 178.997C101.963 178.429 101.963 178.429 101.855 177.849C101.705 177.047 101.557 176.244 101.41 175.442C101.222 174.415 101.031 173.389 100.839 172.363C100.655 171.383 100.474 170.402 100.293 169.421C100.224 169.053 100.156 168.685 100.085 168.306C100.022 167.963 99.9597 167.62 99.8951 167.266C99.8396 166.965 99.7842 166.664 99.727 166.354C99.6156 165.576 99.5861 164.847 99.6086 164.062Z" fill="black"/>
<path d="M70.0195 121.582C70.0271 121.962 70.0346 122.343 70.0424 122.734C70.1564 126.759 70.656 130.637 71.3551 134.6C71.5154 135.532 71.6508 136.465 71.7773 137.402C69.6557 136.971 67.6277 136.364 65.5712 135.69C65.0717 135.528 65.0717 135.528 64.5621 135.362C63.8629 135.134 63.1639 134.906 62.4651 134.677C61.3922 134.325 60.3183 133.977 59.2443 133.629C58.5639 133.407 57.8836 133.185 57.2033 132.962C56.8814 132.858 56.5594 132.754 56.2277 132.647C55.9313 132.549 55.6348 132.451 55.3294 132.35C55.068 132.265 54.8066 132.18 54.5373 132.092C53.9062 131.836 53.9062 131.836 53.3203 131.25C56.873 128.977 60.4991 126.83 64.1315 124.688C64.3322 124.57 64.5329 124.451 64.7397 124.329C65.1176 124.106 65.4957 123.883 65.8741 123.66C66.7167 123.163 67.5315 122.65 68.3354 122.091C69.1406 121.582 69.1406 121.582 70.0195 121.582Z" fill="black"/>
<path d="M141.504 50.9766C142.081 51.842 142.251 52.3566 142.474 53.3527C142.544 53.6578 142.613 53.963 142.685 54.2773C142.794 54.7717 142.794 54.7717 142.906 55.2761C142.982 55.6153 143.059 55.9546 143.138 56.3041C143.299 57.0223 143.46 57.7406 143.62 58.4592C143.864 59.5571 144.111 60.6545 144.359 61.7517C144.515 62.4496 144.672 63.1475 144.828 63.8454C144.902 64.1733 144.976 64.5011 145.051 64.8388C145.12 65.1467 145.188 65.4546 145.259 65.7718C145.319 66.0411 145.379 66.3104 145.441 66.5879C145.616 67.4357 145.761 68.2857 145.898 69.1406C145.079 69.5506 144.583 69.2512 143.742 68.9978C139.479 67.7158 135.072 67.2956 130.664 66.7969C131.048 65.9944 131.472 65.2625 131.976 64.5298C132.121 64.3169 132.267 64.104 132.418 63.8847C132.576 63.6554 132.735 63.426 132.898 63.1897C133.146 62.829 133.146 62.829 133.399 62.4609C133.951 61.6594 134.505 60.8589 135.059 60.0586C135.36 59.622 135.36 59.622 135.668 59.1765C136.288 58.2799 136.909 57.3838 137.531 56.488C137.724 56.2083 137.918 55.9285 138.118 55.6402C139.216 54.0613 140.336 52.5048 141.504 50.9766Z" fill="black"/>
<path d="M241.699 229.98C241.893 230.077 242.086 230.174 242.285 230.273C243.389 233.989 242.571 238.037 240.839 241.37C240.263 242.422 239.722 243.299 238.77 244.043C236.304 244.676 233.633 244.686 231.097 244.72C230.745 244.728 230.745 244.728 230.386 244.736C229.024 244.734 228.175 244.604 227.051 243.75C227.964 242.734 228.904 242.168 230.109 241.534C234.643 239.04 238.197 235.296 240.968 230.958C241.406 230.273 241.406 230.273 241.699 229.98Z" fill="black"/>
</svg>
