<svg width="300" height="300" viewBox="0 0 300 300" fill="none" xmlns="http://www.w3.org/2000/svg">
<path d="M136.344 110.195C136.566 110.485 136.789 110.774 137.018 111.072C137.142 111.23 137.266 111.387 137.394 111.55C137.793 112.058 138.183 112.572 138.574 113.086C139.091 113.753 139.611 114.418 140.131 115.082C140.263 115.252 140.395 115.421 140.531 115.596C142.763 118.444 145.19 121.131 147.622 123.808C148.303 124.581 148.951 125.376 149.597 126.178C150.483 127.273 151.393 128.288 152.407 129.263C152.928 129.784 153.409 130.323 153.89 130.881C157.635 135.187 161.709 139.198 165.747 143.227C166.522 144 167.295 144.774 168.068 145.549C168.669 146.151 169.271 146.752 169.873 147.354C170.159 147.639 170.445 147.925 170.73 148.212C171.124 148.607 171.52 149.001 171.915 149.395C172.139 149.619 172.363 149.842 172.594 150.073C173.112 150.605 173.112 150.605 173.73 150.879C173.73 151.072 173.73 151.266 173.73 151.465C173.991 151.581 173.991 151.581 174.257 151.7C174.926 152.064 175.334 152.433 175.854 152.985C176.949 154.109 178.105 155.133 179.297 156.153C179.599 156.412 179.901 156.671 180.203 156.93C180.717 157.37 181.231 157.81 181.745 158.25C182.691 159.058 183.632 159.871 184.568 160.69C184.761 160.859 184.954 161.028 185.153 161.202C185.522 161.524 185.891 161.848 186.258 162.172C186.429 162.321 186.6 162.471 186.776 162.624C186.923 162.754 187.07 162.883 187.222 163.017C187.76 163.479 187.76 163.479 188.301 163.752C189.154 164.248 189.735 164.604 190.046 165.57C190.138 166.353 190.166 167.116 190.172 167.904C190.187 168.331 190.187 168.331 190.203 168.765C190.233 169.67 190.249 170.574 190.265 171.478C190.283 172.093 190.302 172.707 190.322 173.322C190.368 174.825 190.402 176.328 190.43 177.832C189.275 177.394 188.467 176.909 187.518 176.111C187.238 175.876 186.958 175.641 186.669 175.399C186.36 175.136 186.051 174.873 185.742 174.61C185.577 174.469 185.411 174.329 185.241 174.185C183.272 172.517 181.334 170.824 179.425 169.088C178.649 168.403 177.851 167.752 177.045 167.102C175.938 166.207 174.916 165.285 173.928 164.262C173.395 163.728 172.838 163.236 172.266 162.744C171.502 162.086 170.775 161.413 170.068 160.694C169.403 160.017 168.723 159.384 167.999 158.771C166.585 157.558 165.292 156.225 163.989 154.896C163.817 154.722 163.646 154.549 163.47 154.37C163.239 154.134 163.239 154.134 163.003 153.893C162.6 153.483 162.6 153.483 162.012 153.223C162.012 153.03 162.012 152.836 162.012 152.637C161.818 152.637 161.625 152.637 161.426 152.637C161.426 152.444 161.426 152.25 161.426 152.051C161.171 151.939 161.171 151.939 160.911 151.825C160.186 151.428 159.704 150.986 159.122 150.401C158.91 150.189 158.699 149.976 158.481 149.758C158.262 149.536 158.044 149.313 157.819 149.085C157.604 148.869 157.388 148.654 157.167 148.432C156.162 147.42 155.184 146.397 154.254 145.315C153.099 143.976 151.846 142.743 150.586 141.504C149.123 140.066 147.7 138.619 146.363 137.063C145.689 136.28 144.988 135.525 144.287 134.766C143.219 133.606 142.165 132.436 141.133 131.244C140.545 130.573 139.944 129.914 139.343 129.254C138.201 127.989 137.117 126.686 136.045 125.36C135.444 124.625 134.832 123.902 134.213 123.182C132.645 121.357 131.172 119.474 129.723 117.554C128.537 115.989 127.3 114.483 126.012 113.001C125.301 112.093 124.783 111.162 124.219 110.156C125.563 110.072 126.908 109.989 128.253 109.906C128.71 109.878 129.167 109.849 129.624 109.821C130.282 109.78 130.941 109.739 131.6 109.699C131.803 109.686 132.005 109.673 132.214 109.66C135.52 109.459 135.52 109.459 136.344 110.195Z" fill="black"/>
<path d="M173.474 78.9183C175.254 79.6946 176.005 80.9824 176.953 82.617C177.4 83.3524 177.854 84.0834 178.308 84.8143C178.431 85.0126 178.553 85.211 178.68 85.4154C181.294 89.6037 184.333 93.4855 187.5 97.2655C187.646 97.4405 187.792 97.6156 187.943 97.796C191.256 101.757 194.806 105.475 198.45 109.131C198.857 109.54 198.857 109.54 199.273 109.958C200.771 111.452 202.295 112.888 203.906 114.258C204.23 114.539 204.554 114.821 204.878 115.103C209.995 119.53 215.302 123.682 221.051 127.265C222.962 128.468 223.998 129.413 224.548 131.654C224.754 133.03 224.815 134.382 224.835 135.773C224.842 136.029 224.848 136.286 224.855 136.551C224.849 138.393 224.849 138.393 224.113 139.335C223.922 139.471 223.732 139.606 223.535 139.746C216.154 137.714 208.992 131.422 203.194 126.602C202.684 126.178 202.169 125.758 201.652 125.341C199.901 123.932 198.232 122.461 196.588 120.93C195.942 120.33 195.282 119.751 194.614 119.176C193.413 118.127 192.277 117.026 191.152 115.898C190.952 115.698 190.752 115.498 190.546 115.293C190.127 114.874 189.708 114.454 189.29 114.035C188.655 113.399 188.019 112.764 187.383 112.13C186.973 111.719 186.563 111.309 186.153 110.899C185.966 110.712 185.779 110.526 185.586 110.334C184.311 109.052 183.11 107.72 181.934 106.347C181.8 106.193 181.667 106.039 181.53 105.88C178.021 101.799 174.711 97.6142 171.68 93.1639C171.546 92.9685 171.412 92.7731 171.274 92.5718C169.482 89.9421 167.89 87.2247 166.37 84.4298C166.12 83.9706 166.12 83.9706 165.864 83.5021C164.584 81.1133 164.584 81.1133 164.355 79.9803C166.866 77.8438 170.421 78.0357 173.474 78.9183Z" fill="black"/>
<path d="M160.255 80.8594C161.364 81.8273 161.954 82.9493 162.599 84.2468C164.082 87.1393 165.806 89.8564 167.579 92.5781C167.692 92.7531 167.805 92.928 167.922 93.1083C169.371 95.3507 170.937 97.4894 172.56 99.6094C172.792 99.9175 173.025 100.226 173.264 100.543C175.832 103.933 178.587 107.134 181.482 110.248C181.818 110.615 182.15 110.986 182.48 111.36C184.257 113.366 186.123 115.269 188.021 117.16C188.546 117.683 189.069 118.208 189.592 118.733C191.287 120.429 192.991 122.086 194.825 123.633C195.164 123.929 195.502 124.225 195.84 124.522C203.218 130.965 210.972 136.83 219.435 141.797C218.989 142.783 218.696 143.147 217.677 143.555C217.677 143.748 217.677 143.941 217.677 144.141C217.216 144.595 217.216 144.595 216.596 145.111C215.64 145.923 214.741 146.756 213.868 147.656C212.373 147.151 211.107 146.303 209.785 145.459C209.538 145.302 209.291 145.145 209.036 144.983C205.702 142.847 202.531 140.511 199.412 138.074C198.912 137.684 198.411 137.296 197.91 136.908C195.726 135.21 193.595 133.461 191.497 131.659C191.015 131.249 190.529 130.844 190.042 130.441C187.356 128.203 184.895 125.771 182.447 123.276C181.432 122.242 180.403 121.223 179.373 120.203C178.97 119.802 178.566 119.401 178.163 119C177.963 118.803 177.763 118.606 177.557 118.402C176.219 117.071 174.957 115.693 173.731 114.258C173.596 114.101 173.461 113.944 173.321 113.783C171.389 111.542 169.538 109.247 167.725 106.909C167.264 106.319 166.796 105.736 166.326 105.153C162.487 100.355 159.186 95.1933 156.149 89.8554C155.886 89.4005 155.612 88.9524 155.336 88.5052C155.195 88.2722 155.054 88.0391 154.908 87.7991C154.792 87.6129 154.676 87.4267 154.556 87.2349C154.395 86.7188 154.395 86.7188 154.541 86.1752C155.189 85.251 155.993 84.5403 156.831 83.7891C156.998 83.6365 157.164 83.4839 157.336 83.3267C158.282 82.4669 159.247 81.6461 160.255 80.8594Z" fill="black"/>
<path d="M179.59 80.2738C189.684 79.6107 199.848 85.0308 207.271 91.4501C208.015 92.1088 208.746 92.7796 209.473 93.4574C209.708 93.673 209.942 93.8887 210.184 94.1109C218.508 102.049 223.216 113.396 223.535 124.805C221.822 124.365 220.55 123.462 219.122 122.461C218.876 122.291 218.63 122.12 218.377 121.944C216.334 120.518 214.348 119.036 212.402 117.481C212.123 117.258 211.844 117.036 211.557 116.807C209.971 115.526 208.438 114.198 206.931 112.825C206.332 112.282 205.726 111.748 205.115 111.219C201.378 107.952 197.634 104.561 194.429 100.761C193.824 100.053 193.188 99.3766 192.554 98.6942C191.003 96.9931 189.587 95.2038 188.185 93.3793C187.815 92.8994 187.439 92.4237 187.062 91.9491C179.59 82.4568 179.59 82.4568 179.59 80.2738Z" fill="black"/>
<path d="M125.098 159.375C126.43 160.463 127.573 161.58 128.687 162.889C129.179 163.453 129.69 163.978 130.225 164.502C131.131 165.392 131.959 166.332 132.788 167.294C133.283 167.851 133.795 168.375 134.326 168.896C137.223 171.754 137.223 171.754 137.988 173.438C136.363 175.089 134.741 176.715 132.977 178.22C132.192 178.914 131.465 179.66 130.737 180.414C130.166 180.969 129.583 181.487 128.979 182.007C127.723 183.098 126.555 184.262 125.391 185.449C124.268 186.594 123.148 187.721 121.93 188.765C120.367 190.111 118.931 191.584 117.48 193.048C117.195 193.335 116.909 193.622 116.623 193.909C115.932 194.604 115.241 195.3 114.551 195.996C113.417 195.466 112.581 194.743 111.676 193.89C111.512 193.736 111.347 193.583 111.178 193.424C110.64 192.917 110.104 192.406 109.57 191.895C109.386 191.718 109.201 191.542 109.011 191.361C105.982 188.453 103.386 185.446 101.074 181.934C101.537 180.761 102.304 180.108 103.235 179.279C103.555 178.991 103.874 178.704 104.194 178.417C104.439 178.198 104.439 178.198 104.689 177.975C105.443 177.299 106.188 176.613 106.934 175.928C107.227 175.659 107.519 175.391 107.812 175.122C107.958 174.989 108.103 174.856 108.252 174.719C109.57 173.511 109.57 173.511 110.01 173.108C110.303 172.839 110.596 172.57 110.889 172.302C111.618 171.634 112.347 170.966 113.076 170.298C113.366 170.033 113.656 169.767 113.947 169.501C114.09 169.369 114.234 169.237 114.382 169.101C115.316 168.246 116.246 167.388 117.176 166.528C119.788 164.112 122.435 161.735 125.098 159.375Z" fill="black"/>
<path d="M125.976 117.188C127.091 118.273 128.119 119.408 129.126 120.593C129.28 120.774 129.434 120.955 129.593 121.141C130.717 122.462 131.817 123.801 132.91 125.147C133.989 126.456 135.096 127.741 136.204 129.025C136.79 129.705 137.372 130.389 137.95 131.076C139.782 133.247 141.683 135.337 143.644 137.392C144.764 138.567 145.849 139.766 146.913 140.992C147.43 141.58 147.972 142.132 148.535 142.676C149.264 143.379 149.935 144.11 150.593 144.879C151.877 146.35 153.249 147.725 154.631 149.104C154.903 149.375 155.174 149.647 155.453 149.926C156.024 150.497 156.595 151.068 157.166 151.638C157.892 152.362 158.617 153.088 159.342 153.814C160.041 154.516 160.742 155.215 161.443 155.915C161.7 156.173 161.957 156.431 162.222 156.696C163.507 157.976 164.807 159.217 166.189 160.392C166.725 160.862 167.225 161.356 167.725 161.865C168.58 162.735 169.476 163.535 170.4 164.331C171.28 165.106 172.139 165.902 172.998 166.699C175.222 168.759 177.51 170.735 179.814 172.705C181.22 173.909 182.609 175.13 183.984 176.367C182.933 176.743 182.336 176.575 181.303 176.193C181.001 176.083 180.699 175.973 180.388 175.86C180.062 175.738 179.736 175.615 179.4 175.489C179.059 175.365 178.718 175.24 178.367 175.111C177.457 174.776 176.547 174.439 175.638 174.101C174.384 173.635 173.127 173.174 171.871 172.712C171.165 172.452 170.459 172.189 169.753 171.926C168.131 171.32 166.509 170.731 164.861 170.199C161.403 169.069 159.151 167.943 156.738 165.179C156.473 164.891 156.207 164.604 155.939 164.317C155.441 163.78 154.945 163.241 154.454 162.697C153.909 162.118 153.367 161.613 152.747 161.118C152.517 160.929 152.287 160.741 152.051 160.547C152.051 160.354 152.051 160.16 152.051 159.961C151.879 159.885 151.708 159.809 151.531 159.73C150.832 159.35 150.371 158.939 149.811 158.375C149.613 158.176 149.414 157.977 149.21 157.772C148.903 157.46 148.903 157.46 148.59 157.141C148.389 156.94 148.188 156.739 147.981 156.531C147.014 155.556 146.076 154.568 145.181 153.527C144.022 152.185 142.767 150.949 141.504 149.707C140.049 148.277 138.637 146.838 137.307 145.29C136.334 144.173 135.302 143.108 134.279 142.037C133.933 141.671 133.592 141.301 133.254 140.928C132.882 140.517 132.5 140.114 132.111 139.719C130.099 137.512 129.624 135.13 129.016 132.294C128.907 131.812 128.797 131.331 128.687 130.849C128.466 129.883 128.25 128.916 128.039 127.947C127.761 126.677 127.471 125.411 127.177 124.144C126.538 121.362 126.538 121.362 126.268 120.145C126.211 119.89 126.155 119.635 126.096 119.373C125.973 118.631 125.955 117.938 125.976 117.188Z" fill="black"/>
<path d="M154.102 95.2148C155.219 95.6498 155.651 96.2345 156.29 97.2313C156.48 97.5227 156.67 97.814 156.865 98.1142C157.065 98.4263 157.265 98.7385 157.471 99.0601C160.36 103.477 163.498 107.606 166.85 111.678C167.255 112.169 167.658 112.662 168.061 113.156C169.162 114.506 170.268 115.852 171.388 117.188C170.42 118.427 169.391 119.435 168.196 120.454C167.572 121.002 166.989 121.576 166.407 122.168C165.663 122.924 164.906 123.639 164.1 124.329C162.899 125.36 161.799 126.478 160.687 127.604C159.704 128.575 158.67 129.477 157.618 130.371C156.162 129.161 154.836 127.899 153.553 126.508C153.375 126.315 153.196 126.123 153.012 125.925C151.765 124.57 150.586 123.18 149.437 121.741C148.817 120.981 148.171 120.256 147.511 119.531C146.132 118.016 144.839 116.44 143.555 114.844C143.349 114.589 143.143 114.334 142.931 114.071C142.538 113.584 142.147 113.095 141.759 112.604C141.399 112.15 141.034 111.699 140.665 111.251C140.501 111.047 140.337 110.843 140.168 110.632C139.95 110.366 139.95 110.366 139.727 110.094C139.454 109.57 139.454 109.57 139.499 108.971C139.794 108.291 140.085 108.019 140.662 107.556C141.916 106.509 143.114 105.412 144.306 104.297C144.489 104.127 144.672 103.956 144.861 103.781C145.959 102.755 147.029 101.706 148.088 100.64C148.586 100.146 149.1 99.6795 149.635 99.2249C151.151 97.9177 152.625 96.5649 154.102 95.2148Z" fill="black"/>
<path d="M96.6797 182.812C97.1748 183.403 97.5817 183.964 97.998 184.607C100.5 188.257 103.446 191.387 106.567 194.513C106.785 194.731 106.785 194.731 107.007 194.954C108.541 196.487 110.071 197.99 111.782 199.327C112.349 199.964 112.394 200.427 112.5 201.27C112.393 201.998 112.393 201.998 112.188 202.771C112.113 203.062 112.038 203.354 111.96 203.654C111.876 203.965 111.792 204.276 111.706 204.596C111.579 205.079 111.579 205.079 111.45 205.571C111.181 206.598 110.906 207.623 110.632 208.649C110.45 209.343 110.267 210.037 110.085 210.731C109.751 211.998 109.417 213.264 109.079 214.53C109.011 214.785 108.943 215.039 108.873 215.301C108.691 215.918 108.691 215.918 108.398 216.504C106.847 216.02 105.654 215.047 104.37 214.087C104.126 213.905 103.881 213.723 103.629 213.536C100.15 210.929 96.8101 208.169 93.6344 205.199C92.752 204.382 91.8414 203.603 90.9164 202.834C90.5273 202.441 90.5273 202.441 90.5273 201.855C90.2373 201.759 89.9473 201.662 89.6484 201.562C89.217 201.134 89.217 201.134 88.7512 200.574C87.932 199.602 87.0816 198.675 86.2061 197.754C79.6875 190.609 79.6875 190.609 79.6875 187.793C81.4696 187.225 83.2518 186.657 85.034 186.089C85.6393 185.896 86.2445 185.703 86.8496 185.51C87.7238 185.231 88.598 184.953 89.4722 184.674C89.739 184.589 90.0059 184.504 90.2808 184.416C91.046 184.173 91.812 183.932 92.5781 183.691C92.9759 183.564 92.9759 183.564 93.3817 183.435C93.6398 183.354 93.8979 183.274 94.1638 183.191C94.3941 183.118 94.6244 183.045 94.8617 182.97C95.5078 182.812 95.5078 182.812 96.6797 182.812Z" fill="black"/>
<path d="M184.592 130.733C185.372 131.043 185.777 131.516 186.346 132.129C187.548 133.372 188.812 134.461 190.161 135.54C190.887 136.127 191.596 136.728 192.301 137.34C196.313 140.805 200.624 143.909 205.078 146.778C203.286 148.928 201.36 150.859 199.238 152.682C198.571 153.278 197.943 153.904 197.314 154.541C196.325 155.544 195.302 156.479 194.233 157.394C193.401 158.135 192.628 158.928 191.853 159.728C191.312 160.251 190.748 160.695 190.137 161.133C188.989 160.649 188.118 159.872 187.189 159.064C186.848 158.771 186.506 158.478 186.164 158.185C185.995 158.039 185.825 157.894 185.65 157.743C184.946 157.146 184.227 156.567 183.508 155.988C182.112 154.851 180.779 153.657 179.454 152.438C178.848 151.883 178.235 151.341 177.612 150.806C176.433 149.778 175.282 148.719 174.133 147.657C173.855 147.401 173.855 147.401 173.571 147.14C172.357 146.012 171.272 144.831 170.215 143.555C171.346 142.397 172.482 141.259 173.712 140.204C174.588 139.452 175.41 138.665 176.221 137.842C177.175 136.877 178.151 135.969 179.186 135.091C179.774 134.57 180.338 134.037 180.9 133.489C181.082 133.314 181.264 133.139 181.452 132.958C181.818 132.605 182.182 132.248 182.542 131.889C182.711 131.726 182.881 131.564 183.055 131.397C183.206 131.249 183.357 131.101 183.512 130.948C183.984 130.664 183.984 130.664 184.592 130.733Z" fill="black"/>
<path d="M77.3438 191.602C77.5371 191.602 77.7305 191.602 77.9297 191.602C78.0649 191.853 78.2001 192.105 78.3394 192.365C79.7473 194.937 81.3381 197.248 83.2031 199.512C83.3407 199.679 83.4782 199.847 83.62 200.02C86.3539 203.333 89.29 206.41 92.5781 209.18C92.847 209.413 93.1159 209.646 93.3929 209.886C96.1747 212.286 99.0789 214.528 102.038 216.705C102.253 216.863 102.468 217.022 102.689 217.185C102.885 217.328 103.081 217.472 103.283 217.619C103.424 217.735 103.565 217.85 103.711 217.969C103.711 218.065 103.711 218.162 103.711 218.262C98.3589 218.97 92.996 219.542 87.6252 220.083C86.4753 220.199 85.3257 220.317 84.176 220.435C83.2786 220.527 82.381 220.618 81.4834 220.708C81.0591 220.751 80.6348 220.795 80.2105 220.838C79.621 220.899 79.0314 220.958 78.4417 221.017C77.9417 221.068 77.9417 221.068 77.4316 221.119C76.4222 221.195 75.4258 221.204 74.4141 221.191C74.6757 215.691 75.1283 210.224 75.7141 204.749C75.7444 204.463 75.7746 204.178 75.8058 203.884C76.2435 199.779 76.7646 195.689 77.3438 191.602Z" fill="black"/>
<path d="M130.664 145.605C131.799 146.129 132.43 146.772 133.264 147.711C133.556 148.035 133.848 148.359 134.14 148.683C134.292 148.852 134.444 149.022 134.6 149.197C137.649 152.591 140.854 155.82 144.097 159.027C145.738 160.654 147.341 162.292 148.828 164.062C149.164 164.453 149.499 164.844 149.835 165.234C150.083 165.524 150.331 165.814 150.586 166.113C149.317 166.756 148.045 167.392 146.77 168.023C146.337 168.238 145.904 168.456 145.473 168.674C144.852 168.989 144.229 169.297 143.605 169.604C143.316 169.752 143.316 169.752 143.021 169.904C141.674 170.557 141.674 170.557 140.833 170.314C140.09 169.733 139.438 169.093 138.776 168.42C138.632 168.275 138.489 168.13 138.341 167.98C137.396 167.015 136.503 166.016 135.627 164.988C134.882 164.16 134.093 163.381 133.301 162.598C132.133 161.442 130.988 160.286 129.947 159.012C129.505 158.479 129.505 158.479 128.937 158.062C128.32 157.539 128.02 157.207 127.734 156.445C127.865 155.065 128.257 153.79 128.68 152.476C129.019 151.402 129.317 150.317 129.621 149.232C129.962 148.021 130.312 146.813 130.664 145.605Z" fill="black"/>
<path d="M173.438 119.824C175.303 121.361 176.993 123.053 178.693 124.768C178.98 125.057 179.267 125.345 179.554 125.633C180.25 126.333 180.946 127.033 181.641 127.734C181.115 128.865 180.445 129.584 179.553 130.463C179.408 130.606 179.263 130.749 179.113 130.897C178.148 131.843 177.149 132.735 176.121 133.611C175.131 134.5 174.208 135.454 173.273 136.401C172.261 137.421 171.218 138.384 170.124 139.316C169.435 139.915 168.8 140.555 168.164 141.211C167.156 140.776 166.497 140.205 165.722 139.433C165.482 139.194 165.243 138.955 164.996 138.709C164.749 138.459 164.501 138.209 164.246 137.952C163.877 137.587 163.877 137.587 163.502 137.215C162.089 135.798 160.81 134.359 159.668 132.715C159.931 132.47 160.194 132.225 160.464 131.972C161.45 131.053 162.436 130.133 163.421 129.212C164.049 128.626 164.677 128.041 165.305 127.455C167.177 125.709 169.032 123.956 170.828 122.131C171.66 121.314 172.54 120.569 173.438 119.824Z" fill="black"/>
</svg>
