<svg width="300" height="300" viewBox="0 0 300 300" fill="none" xmlns="http://www.w3.org/2000/svg">
<path d="M139.16 135.352C140.417 136.499 141.234 137.715 142.09 139.178C143.259 141.135 144.464 143.06 145.715 144.965C147.016 146.948 148.283 148.949 149.524 150.97C150.88 153.18 152.276 155.359 153.699 157.526C155.13 159.705 156.525 161.9 157.874 164.132C159.078 166.12 160.325 168.079 161.578 170.036C162.501 171.479 163.414 172.927 164.309 174.387C167.226 179.142 170.291 183.246 174.147 187.269C174.869 188.025 175.566 188.796 176.25 189.586C177.097 190.562 177.975 191.481 178.894 192.389C179.158 192.65 179.421 192.911 179.693 193.18C179.949 193.432 180.205 193.685 180.469 193.945C181.207 194.68 181.942 195.419 182.668 196.165C184.474 198.008 186.346 199.676 188.379 201.27C188.664 201.501 188.949 201.733 189.243 201.971C193.844 205.637 199.002 208.53 204.492 210.645C203.672 211.518 202.851 212.162 201.833 212.789C201.398 213.058 201.398 213.058 200.956 213.333C200.495 213.616 200.495 213.616 200.024 213.904C199.707 214.1 199.391 214.296 199.064 214.498C198.429 214.891 197.794 215.283 197.158 215.675C196.237 216.243 195.319 216.814 194.403 217.388C194.039 217.615 193.675 217.841 193.311 218.067C192.235 218.735 191.174 219.421 190.12 220.121C189.74 220.37 189.74 220.37 189.354 220.623C188.859 220.947 188.368 221.275 187.878 221.607C187.655 221.752 187.432 221.898 187.202 222.047C187.005 222.179 186.808 222.311 186.605 222.447C186.035 222.656 186.035 222.656 185.445 222.459C183.477 221.145 181.819 219.365 180.157 217.694C179.962 217.499 179.766 217.305 179.564 217.104C177.466 215.002 175.568 212.77 173.749 210.425C173.568 210.192 173.387 209.959 173.201 209.719C172.074 208.255 171.011 206.769 170.007 205.218C169.084 203.8 168.107 202.419 167.139 201.031C166.936 200.741 166.734 200.451 166.525 200.152C166.108 199.553 165.69 198.954 165.272 198.355C164.085 196.654 162.902 194.95 161.717 193.247C160.753 191.86 159.788 190.474 158.82 189.09C156.566 185.862 154.339 182.617 152.134 179.355C150.56 177.029 148.972 174.714 147.363 172.412C145.036 169.081 142.755 165.719 140.478 162.353C139.734 161.254 138.988 160.157 138.24 159.061C134.598 153.726 131.018 148.349 127.441 142.969C128.302 142.266 129.16 141.606 130.102 141.016C130.325 140.876 130.548 140.736 130.777 140.592C131.012 140.446 131.246 140.3 131.488 140.149C131.731 139.997 131.974 139.844 132.224 139.687C132.973 139.218 133.723 138.749 134.473 138.281C134.942 137.988 135.411 137.694 135.88 137.4C136.973 136.716 138.066 136.034 139.16 135.352Z" fill="black"/>
<path d="M147.656 89.9414C156.72 92.3691 164.504 100.76 169.03 108.586C170.437 111.085 171.603 113.603 172.559 116.309C172.669 116.62 172.78 116.932 172.894 117.253C174.598 122.404 175.909 129.482 174.316 134.766C173.219 134.366 172.317 133.86 171.35 133.209C164.499 128.803 156.235 127.617 148.326 129.325C146.39 129.807 144.537 130.539 142.676 131.25C142.09 131.447 141.505 131.643 140.918 131.836C140.766 131.605 140.766 131.605 140.611 131.37C139.547 129.754 138.482 128.138 137.417 126.522C137.021 125.92 136.625 125.319 136.229 124.718C133.165 120.066 133.165 120.066 130.078 115.43C130.899 114.591 131.708 113.913 132.678 113.251C140.851 107.355 144.959 99.4482 147.656 89.9414Z" fill="black"/>
<path d="M150.293 77.3438C163.231 82.2504 174.167 91.9913 180.469 104.297C180.58 104.513 180.692 104.729 180.807 104.952C186.994 117.06 188.205 130.773 184.57 143.848C184.474 144.041 184.377 144.234 184.277 144.434C183.187 144.07 182.957 143.655 182.263 142.749C181.472 141.717 180.772 140.89 179.721 140.125C178.579 139.255 177.561 138.439 176.953 137.109C176.667 134.872 177.113 132.607 177.43 130.391C177.669 128.418 177.482 126.477 177.246 124.512C177.223 124.307 177.2 124.102 177.176 123.891C176.298 116.485 173.267 108.776 168.75 102.832C168.561 102.582 168.372 102.333 168.178 102.076C166.792 100.3 165.302 98.6222 163.77 96.9727C163.582 96.7627 163.395 96.5527 163.202 96.3364C159.445 92.3157 154.587 89.7039 149.707 87.3047C149.316 87.1096 148.926 86.9144 148.535 86.7188C148.634 84.5694 148.994 82.4889 149.414 80.3833C149.466 80.1192 149.518 79.8552 149.572 79.5831C149.962 77.6746 149.962 77.6746 150.293 77.3438Z" fill="black"/>
<path d="M112.5 125.977C113.899 127.25 114.89 128.72 115.936 130.289C116.12 130.563 116.304 130.837 116.494 131.119C117.081 131.992 117.665 132.866 118.25 133.74C118.645 134.328 119.04 134.916 119.435 135.504C119.813 136.066 120.191 136.629 120.568 137.192C120.745 137.455 120.922 137.719 121.104 137.99C121.269 138.237 121.434 138.485 121.604 138.74C121.749 138.956 121.894 139.172 122.043 139.395C122.25 139.714 122.25 139.714 122.461 140.039C122.624 140.289 122.786 140.54 122.954 140.798C123.34 141.504 123.34 141.504 123.34 142.383C122.91 142.835 122.91 142.835 122.314 143.317C117.282 147.563 114.053 152.728 111.621 158.789C110.96 158.166 110.459 157.532 109.967 156.769C109.746 156.427 109.746 156.427 109.52 156.078C109.361 155.831 109.203 155.583 109.039 155.328C108.871 155.068 108.703 154.808 108.53 154.539C107.666 153.199 106.809 151.855 105.956 150.508C103.818 147.128 101.635 143.783 99.4055 140.464C98.7874 139.542 98.1721 138.62 97.5586 137.695C97.3565 137.392 97.1544 137.088 96.9462 136.776C96.6642 136.344 96.6642 136.344 96.3764 135.904C96.1249 135.522 96.1249 135.522 95.8682 135.131C95.5078 134.473 95.5078 134.473 95.5078 133.594C96.9967 132.927 98.4856 132.261 99.9746 131.595C100.479 131.369 100.982 131.144 101.486 130.918C104.418 129.606 107.351 128.295 110.287 126.995C111.402 126.503 111.402 126.503 112.5 125.977Z" fill="black"/>
<path d="M127.734 117.188C128.248 117.917 128.728 118.647 129.199 119.403C129.493 119.866 129.786 120.328 130.08 120.79C130.228 121.023 130.376 121.257 130.528 121.497C131.133 122.444 131.758 123.378 132.385 124.31C134.185 126.994 135.939 129.709 137.695 132.422C137.017 133.155 136.298 133.669 135.455 134.201C135.186 134.372 134.917 134.542 134.64 134.718C134.355 134.897 134.07 135.076 133.777 135.26C133.487 135.442 133.197 135.624 132.899 135.812C132.321 136.175 131.743 136.538 131.165 136.9C130.484 137.331 129.811 137.769 129.14 138.214C128.967 138.327 128.793 138.439 128.615 138.556C128.169 138.846 127.726 139.14 127.283 139.435C126.562 139.746 126.562 139.746 125.932 139.589C125.278 139.071 124.954 138.58 124.53 137.86C123.565 136.28 122.541 134.752 121.49 133.228C120.282 131.468 119.074 129.708 117.883 127.936C117.766 127.763 117.648 127.589 117.527 127.411C116.838 126.382 116.254 125.337 115.723 124.219C115.945 124.087 115.945 124.087 116.172 123.952C119.284 122.101 122.375 120.228 125.414 118.26C125.634 118.119 125.853 117.978 126.08 117.833C126.369 117.646 126.369 117.646 126.664 117.454C127.148 117.188 127.148 117.188 127.734 117.188Z" fill="black"/>
<path d="M121.582 106.348C122.827 107.492 123.689 108.716 124.567 110.156C124.759 110.463 124.759 110.463 124.955 110.777C125.595 111.812 126.158 112.809 126.562 113.965C124.784 115.266 122.95 116.445 121.054 117.566C118.559 119.045 116.118 120.611 113.672 122.168C112.427 120.982 111.581 119.66 110.669 118.213C110.507 117.963 110.344 117.712 110.177 117.454C110.024 117.212 109.87 116.97 109.712 116.721C109.502 116.391 109.502 116.391 109.289 116.055C108.984 115.43 108.984 115.43 108.984 114.258C109.478 113.809 109.478 113.809 110.178 113.38C110.438 113.218 110.697 113.056 110.965 112.889C111.248 112.718 111.531 112.548 111.823 112.372C112.109 112.194 112.396 112.017 112.692 111.834C113.295 111.461 113.9 111.09 114.506 110.72C115.416 110.165 116.322 109.604 117.228 109.04C118.677 108.139 120.128 107.242 121.582 106.348Z" fill="black"/>
</svg>
