<svg width="300" height="300" viewBox="0 0 300 300" fill="none" xmlns="http://www.w3.org/2000/svg">
<path d="M183.398 68.5547C185.273 74.3814 186.712 80.312 187.206 86.4258C187.223 86.6298 187.239 86.8338 187.256 87.044C188.43 102.311 185.696 118.346 178.401 131.901C178.122 132.425 177.856 132.954 177.592 133.486C175.453 137.732 172.692 141.684 169.628 145.312C169.399 145.595 169.17 145.877 168.935 146.169C167.35 148.108 165.662 149.925 163.897 151.703C163.691 151.912 163.485 152.12 163.273 152.335C163.079 152.527 162.886 152.719 162.687 152.917C162.514 153.089 162.342 153.261 162.164 153.439C161.718 153.809 161.718 153.809 161.132 153.809C161.097 153.548 161.062 153.288 161.025 153.02C159.08 138.792 156.27 123.814 144.339 114.345C137.931 109.484 130.091 106.914 122.088 106.873C121.731 106.871 121.373 106.868 121.005 106.865C120.03 106.857 119.055 106.851 118.08 106.845C117.059 106.838 116.038 106.83 115.017 106.822C113.086 106.808 111.155 106.795 109.225 106.782C107.025 106.768 104.826 106.751 102.627 106.735C98.1052 106.702 93.5834 106.671 89.0616 106.641C88.8887 104.735 88.7321 102.844 88.7307 100.929C88.7302 100.737 88.7297 100.546 88.7292 100.348C88.7279 99.7316 88.7287 99.1149 88.7297 98.4982C88.7295 98.0638 88.7293 97.6294 88.7289 97.1951C88.7285 96.2932 88.7291 95.3914 88.7305 94.4895C88.7321 93.3316 88.7312 92.1738 88.7294 91.0159C88.7284 90.1229 88.7287 89.23 88.7295 88.3371C88.7296 87.9096 88.7294 87.4822 88.7287 87.0548C88.728 86.4617 88.7293 85.8686 88.7307 85.2754C88.731 84.938 88.7312 84.6005 88.7315 84.2529C88.7687 83.4961 88.7687 83.4961 89.0616 83.2031C89.5286 83.1573 89.9977 83.1319 90.4666 83.1143C90.7778 83.1026 91.0891 83.0909 91.4097 83.0788C91.7599 83.0677 92.11 83.0566 92.4708 83.0452C92.8432 83.0329 93.2156 83.0206 93.5993 83.008C97.0929 82.9005 100.587 82.8724 104.082 82.8484C104.371 82.8463 104.661 82.8442 104.959 82.842C107.669 82.8224 110.38 82.8036 113.09 82.7926C120.267 82.7617 127.342 82.6098 134.472 81.7383C134.726 81.7084 134.98 81.6786 135.241 81.6478C136.57 81.4901 137.892 81.3051 139.214 81.0974C139.5 81.0533 139.5 81.0533 139.791 81.0083C154.232 78.7635 168.403 74.5715 181.829 68.8077C182.519 68.5547 182.519 68.5547 183.398 68.5547Z" fill="black"/>
<path d="M97.8507 109.277C104.328 109.277 110.806 109.277 117.48 109.277C117.488 113.377 117.488 113.377 117.497 117.559C117.516 126.343 117.538 135.127 117.562 143.912C117.565 145.28 117.569 146.649 117.573 148.017C117.573 148.29 117.574 148.562 117.575 148.843C117.586 153.231 117.596 157.619 117.605 162.008C117.614 166.524 117.625 171.04 117.639 175.556C117.647 178.334 117.653 181.111 117.658 183.889C117.661 185.804 117.666 187.719 117.673 189.634C117.677 190.733 117.68 191.831 117.68 192.929C117.683 197.555 117.783 202.161 118.05 206.778C118.062 206.993 118.074 207.207 118.087 207.428C118.571 215.655 119.843 223.926 122.007 231.89C122.33 233.36 122.286 234.574 121.498 235.875C119.507 238.365 116.657 239.623 113.671 240.527C113.457 240.594 113.243 240.66 113.022 240.729C107.863 242.034 101.802 241.207 97.1469 238.685C95.5778 237.651 94.2114 236.411 93.4562 234.668C93.1482 232.598 93.7377 230.598 94.2435 228.607C95.6524 222.742 96.6384 216.845 97.1527 210.837C97.1716 210.618 97.1905 210.399 97.21 210.173C97.6079 205.465 97.6892 200.778 97.6845 196.057C97.6843 194.885 97.6892 193.713 97.6934 192.541C97.7 190.524 97.7036 188.508 97.7049 186.491C97.7068 183.575 97.7136 180.659 97.7214 177.744C97.734 173.01 97.7428 168.276 97.7492 163.542C97.7554 158.951 97.7634 154.36 97.7738 149.77C97.7744 149.485 97.7751 149.201 97.7758 148.908C97.779 147.481 97.7823 146.054 97.7856 144.628C97.8128 132.844 97.8331 121.061 97.8507 109.277Z" fill="black"/>
<path d="M206.25 59.1797C214.021 80.5108 212.64 105.086 203.247 125.684C202.696 126.861 202.133 128.032 201.562 129.199C201.423 129.485 201.284 129.771 201.141 130.065C196.512 139.485 190.157 147.699 182.757 155.109C182.609 155.257 182.461 155.405 182.309 155.558C180.213 157.651 178.091 159.628 175.684 161.361C175.154 161.749 174.638 162.15 174.121 162.555C171.905 164.281 169.617 165.841 167.23 167.322C166.836 167.566 166.836 167.566 166.433 167.816C165.272 168.525 164.167 169.147 162.89 169.629C162.444 168.737 162.415 167.775 162.302 166.794C162.276 166.571 162.249 166.348 162.222 166.118C162.167 165.645 162.112 165.171 162.058 164.698C161.975 163.977 161.889 163.255 161.802 162.534C161.749 162.074 161.696 161.614 161.643 161.155C161.617 160.94 161.59 160.725 161.563 160.503C161.439 159.383 161.372 158.406 161.718 157.324C162.318 156.792 162.318 156.792 163.11 156.281C164.987 154.985 166.61 153.521 168.25 151.944C168.584 151.624 168.92 151.304 169.257 150.986C172.052 148.346 174.428 145.512 176.66 142.383C176.807 142.178 176.954 141.972 177.106 141.761C185.573 129.831 190.068 116.076 191.894 101.66C191.925 101.425 191.955 101.19 191.987 100.947C193.197 90.0151 192.269 78.4956 188.603 68.1167C188.378 67.3828 188.378 67.3828 188.378 66.5039C192.253 64.7931 196.148 63.1292 200.055 61.4948C200.536 61.2939 201.016 61.0927 201.495 60.8911C202.175 60.6056 202.856 60.3216 203.536 60.038C203.743 59.9512 203.949 59.8643 204.161 59.7748C205.597 59.1797 205.597 59.1797 206.25 59.1797Z" fill="black"/>
<path d="M112.792 68.8478C112.996 68.972 113.2 69.0963 113.41 69.2243C115.493 70.6297 116.83 72.5784 117.48 75.0001C117.548 75.966 117.535 76.9255 117.516 77.8932C117.513 78.1508 117.511 78.4083 117.508 78.6737C117.501 79.3047 117.491 79.9356 117.48 80.5665C114.963 80.5733 112.447 80.5785 109.931 80.5817C108.763 80.5832 107.595 80.5853 106.427 80.5886C105.3 80.5918 104.174 80.5936 103.048 80.5943C102.617 80.5949 102.186 80.5959 101.755 80.5975C101.154 80.5996 100.553 80.5999 99.9518 80.5998C99.609 80.6004 99.2661 80.6011 98.9129 80.6018C98.1436 80.5665 98.1436 80.5665 97.8506 80.2736C97.5684 76.7299 97.9654 73.6712 100.285 70.8345C103.483 67.4661 108.698 66.2608 112.792 68.8478Z" fill="black"/>
</svg>
