<svg width="300" height="300" viewBox="0 0 300 300" fill="none" xmlns="http://www.w3.org/2000/svg">
<path d="M147.567 74.0516C147.895 74.0481 147.895 74.0481 148.23 74.0444C148.694 74.0404 149.157 74.0372 149.62 74.0349C150.09 74.0316 150.559 74.0256 151.028 74.0169C154.67 73.9496 157.54 74.151 160.31 76.7867C163.127 79.7505 164.302 83.077 164.471 87.1322C164.491 87.5471 164.511 87.9619 164.532 88.3767C164.563 89.0234 164.593 89.6699 164.618 90.3169C164.643 90.9463 164.675 91.5751 164.709 92.2042C164.725 92.5781 164.742 92.952 164.759 93.3373C164.969 94.491 165.285 94.983 166.113 95.8011C166.661 96.1598 166.661 96.1598 167.257 96.3744C167.474 96.4635 167.69 96.5525 167.913 96.6442C168.141 96.7346 168.368 96.8249 168.603 96.918C174.323 99.3163 179.138 103.384 181.576 109.242C182.049 110.505 182.437 111.791 182.812 113.086C182.977 113.642 183.141 114.197 183.306 114.753C183.368 114.971 183.43 115.19 183.493 115.415C184.121 117.322 185.231 117.848 186.93 118.86C188.143 119.804 188.845 120.787 189.074 122.308C189.119 123.161 189.127 124.007 189.12 124.861C189.121 125.173 189.122 125.484 189.123 125.805C189.124 126.461 189.122 127.118 189.117 127.774C189.111 128.776 189.117 129.778 189.125 130.781C189.124 131.42 189.122 132.059 189.12 132.698C189.122 132.996 189.125 133.295 189.127 133.603C189.104 135.353 188.958 136.363 187.793 137.696C186.145 139.013 184.391 139.098 182.351 139.281C181.337 139.455 180.885 139.603 180.175 140.332C179.815 141.528 179.76 142.128 180.304 143.262C181.073 144.163 181.889 144.89 182.789 145.655C187.14 149.491 188.752 154.635 189.257 160.254C189.333 161.787 189.341 163.318 189.338 164.852C189.339 165.293 189.341 165.734 189.342 166.175C189.346 167.358 189.346 168.541 189.346 169.725C189.345 170.718 189.347 171.712 189.348 172.706C189.351 175.052 189.352 177.399 189.35 179.746C189.348 182.155 189.352 184.563 189.358 186.972C189.363 189.052 189.365 191.133 189.364 193.213C189.363 194.45 189.364 195.687 189.368 196.924C189.372 198.088 189.371 199.252 189.368 200.416C189.367 200.839 189.368 201.263 189.37 201.686C189.403 207.824 187.81 212.961 184.277 217.969C184.133 218.174 183.988 218.379 183.84 218.59C180.207 223.244 173.813 225.605 168.164 226.465C166.983 226.545 165.807 226.548 164.624 226.546C164.283 226.547 163.941 226.549 163.59 226.55C162.468 226.554 161.346 226.554 160.224 226.553C159.637 226.554 159.05 226.555 158.463 226.556C156.618 226.559 154.774 226.559 152.929 226.558C151.039 226.556 149.149 226.559 147.259 226.566C145.626 226.571 143.992 226.573 142.359 226.572C141.388 226.571 140.418 226.572 139.447 226.576C130.716 226.605 123.353 225.5 116.894 219.141C112.193 214.449 110.69 208.228 110.662 201.772C110.663 201.363 110.665 200.955 110.666 200.547C110.665 200.106 110.664 199.666 110.663 199.225C110.66 198.039 110.661 196.853 110.663 195.667C110.665 194.419 110.663 193.17 110.662 191.921C110.661 189.824 110.663 187.728 110.665 185.631C110.669 183.218 110.668 180.805 110.664 178.392C110.662 176.309 110.661 174.226 110.663 172.144C110.664 170.905 110.664 169.665 110.662 168.426C110.66 167.26 110.661 166.094 110.665 164.927C110.666 164.503 110.665 164.079 110.664 163.655C110.652 159.364 110.953 155.402 112.793 151.465C112.927 151.177 113.061 150.888 113.2 150.591C114.318 148.457 115.79 146.882 117.539 145.256C118.485 144.368 119.206 143.684 119.531 142.383C119.475 141.46 119.413 140.858 118.853 140.113C117.793 139.327 116.748 139.035 115.466 138.758C114.071 138.414 112.992 138.105 111.914 137.11C110.95 135.357 110.902 133.819 110.908 131.844C110.906 131.539 110.905 131.234 110.903 130.92C110.901 130.277 110.902 129.635 110.904 128.993C110.907 128.011 110.898 127.031 110.889 126.05C110.888 125.424 110.889 124.798 110.889 124.172C110.886 123.88 110.883 123.588 110.879 123.287C110.897 121.554 111.047 120.555 112.207 119.239C113.08 118.666 113.977 118.216 114.909 117.746C116.505 116.651 116.775 114.907 117.242 113.123C118.325 109.256 120.03 105.812 122.753 102.832C122.908 102.654 123.063 102.476 123.223 102.292C125.767 99.5344 129.191 97.7474 132.505 96.0886C133.587 95.5244 134.336 95.101 135.082 94.12C135.441 92.8441 135.42 91.6975 135.369 90.3812C135.283 85.5452 135.787 81.3402 139.16 77.637C141.567 75.1515 144.135 74.0871 147.567 74.0516ZM142.273 80.8963C142.095 81.0904 141.918 81.2845 141.735 81.4845C139.856 84.4951 139.888 87.4714 139.921 90.9231C139.898 93.5639 139.548 95.6594 137.662 97.615C137.449 97.7475 137.236 97.8801 137.017 98.0167C136.765 98.1776 136.512 98.3384 136.252 98.5042C134.975 99.241 133.683 99.9513 132.392 100.663C130.688 101.616 129.183 102.691 127.734 104.004C127.484 104.23 127.235 104.456 126.977 104.689C124.541 107.005 122.022 109.977 121.838 113.491C121.904 114.751 122.068 115.307 122.882 116.309C124.085 117.248 124.743 117.225 126.268 117.229C126.481 117.23 126.695 117.231 126.915 117.232C127.633 117.234 128.352 117.235 129.071 117.235C129.585 117.236 130.099 117.238 130.613 117.239C132.011 117.243 133.41 117.245 134.809 117.246C135.683 117.247 136.557 117.249 137.43 117.25C140.163 117.254 142.895 117.257 145.628 117.258C148.784 117.259 151.94 117.264 155.096 117.273C157.534 117.279 159.972 117.282 162.41 117.282C163.866 117.283 165.323 117.284 166.78 117.29C168.151 117.295 169.521 117.295 170.892 117.293C171.395 117.292 171.898 117.294 172.4 117.297C173.087 117.3 173.774 117.299 174.461 117.295C174.846 117.296 175.23 117.296 175.626 117.297C176.749 117.178 177.461 116.9 178.418 116.309C179.022 115.101 178.856 113.678 178.541 112.395C176.761 107.442 172.838 103.589 168.137 101.372C167.32 101.014 166.498 100.671 165.674 100.33C164.029 99.6347 162.693 98.8883 161.689 97.3609C160.977 95.5209 161.098 93.4537 161.062 91.5103C160.998 85.4148 160.998 85.4148 157.952 80.3218C155.631 78.1882 153.764 78.1091 150.677 78.0948C150.137 78.0804 150.137 78.0804 149.586 78.0656C146.682 78.0486 144.248 78.6273 142.273 80.8963ZM115.722 121.875C115.223 122.874 115.375 124.016 115.37 125.115C115.368 125.379 115.366 125.643 115.365 125.914C115.362 126.473 115.36 127.031 115.359 127.589C115.356 128.444 115.347 129.299 115.338 130.155C115.336 130.696 115.334 131.238 115.333 131.78C115.33 132.037 115.326 132.293 115.322 132.557C115.323 132.796 115.324 133.034 115.325 133.28C115.324 133.49 115.323 133.699 115.322 133.915C115.464 134.652 115.731 134.882 116.308 135.352C117.214 135.438 118.06 135.469 118.966 135.462C119.379 135.463 119.379 135.463 119.8 135.465C120.727 135.468 121.653 135.464 122.58 135.461C123.242 135.462 123.905 135.463 124.567 135.464C126.37 135.467 128.172 135.464 129.975 135.46C131.858 135.457 133.742 135.458 135.625 135.459C138.789 135.459 141.952 135.456 145.115 135.45C148.371 135.445 151.628 135.443 154.884 135.444C158.806 135.446 162.727 135.445 166.649 135.442C168.148 135.44 169.647 135.44 171.146 135.441C172.91 135.441 174.674 135.439 176.438 135.434C177.087 135.433 177.736 135.433 178.384 135.434C179.267 135.434 180.15 135.432 181.033 135.428C181.292 135.429 181.551 135.43 181.818 135.432C183.281 135.424 183.281 135.424 184.57 134.766C184.7 134.216 184.7 134.216 184.674 133.579C184.675 133.335 184.676 133.09 184.677 132.839C184.673 132.574 184.67 132.31 184.666 132.038C184.665 131.631 184.665 131.631 184.664 131.217C184.662 130.643 184.658 130.07 184.652 129.497C184.643 128.617 184.64 127.738 184.639 126.858C184.636 126.302 184.633 125.746 184.629 125.19C184.628 124.793 184.628 124.793 184.626 124.389C184.623 124.144 184.62 123.9 184.617 123.648C184.615 123.432 184.613 123.217 184.611 122.995C184.601 122.432 184.601 122.432 184.277 121.875C183.204 121.518 182.22 121.542 181.103 121.545C180.866 121.545 180.63 121.544 180.386 121.544C179.591 121.543 178.796 121.544 178.001 121.544C177.431 121.544 176.862 121.544 176.292 121.543C174.741 121.542 173.19 121.542 171.639 121.543C170.009 121.544 168.379 121.543 166.75 121.543C164.004 121.542 161.259 121.543 158.514 121.544C155.361 121.546 152.208 121.545 149.055 121.544C146.338 121.542 143.621 121.542 140.903 121.543C139.285 121.543 137.667 121.543 136.05 121.542C129.268 121.539 122.498 121.558 115.722 121.875ZM125.042 140.9C124.517 141.787 124.236 142.576 123.925 143.555C123.332 145.421 122.694 146.418 121.087 147.528C117.7 150.006 116.044 153.883 115.259 157.889C115.011 159.704 115.077 161.535 115.098 163.363C115.101 163.806 115.104 164.248 115.106 164.69C115.111 165.6 115.118 166.51 115.126 167.42C115.139 169.04 115.141 170.661 115.143 172.281C115.148 176.435 115.168 180.588 115.19 184.742C115.202 187 115.211 189.259 115.216 191.517C115.22 193.519 115.227 195.52 115.24 197.521C115.247 198.571 115.251 199.621 115.251 200.67C115.251 201.835 115.26 202.999 115.269 204.163C115.268 204.502 115.266 204.841 115.265 205.19C115.322 209.691 117.161 213.412 120.214 216.664C123.583 219.762 127.987 221.796 132.603 221.823C133.084 221.827 133.084 221.827 133.574 221.83C133.922 221.832 134.269 221.833 134.627 221.834C134.997 221.837 135.366 221.839 135.747 221.841C136.969 221.849 138.191 221.854 139.413 221.858C139.836 221.859 140.259 221.861 140.682 221.862C142.444 221.869 144.207 221.874 145.969 221.878C148.482 221.882 150.994 221.892 153.507 221.909C155.28 221.92 157.054 221.926 158.827 221.927C159.883 221.928 160.938 221.932 161.994 221.941C168.763 222 174.645 221.63 179.827 216.742C183.676 212.677 184.753 208.176 184.717 202.74C184.718 202.251 184.72 201.763 184.722 201.274C184.726 199.959 184.723 198.644 184.718 197.329C184.714 195.946 184.715 194.563 184.717 193.18C184.717 190.859 184.713 188.538 184.707 186.217C184.699 183.541 184.698 180.865 184.702 178.189C184.705 175.605 184.703 173.021 184.699 170.436C184.697 169.341 184.697 168.246 184.699 167.151C184.7 165.859 184.697 164.568 184.691 163.276C184.689 162.805 184.689 162.333 184.69 161.862C184.704 156.736 183.725 152.646 180.159 148.802C179.556 148.189 179.556 148.189 178.674 147.528C177.253 146.262 176.424 144.634 175.655 142.907C175.445 142.439 175.445 142.439 175.232 141.962C175.111 141.672 174.991 141.383 174.868 141.084C174.092 140.027 173.21 139.739 171.972 139.453C170.541 139.327 169.113 139.333 167.678 139.34C167.245 139.339 166.812 139.337 166.379 139.335C165.209 139.331 164.039 139.333 162.869 139.335C161.642 139.338 160.415 139.336 159.188 139.334C157.128 139.333 155.068 139.335 153.007 139.339C150.629 139.344 148.25 139.342 145.871 139.337C143.825 139.333 141.779 139.333 139.733 139.335C138.513 139.336 137.292 139.337 136.072 139.334C134.925 139.331 133.777 139.333 132.63 139.338C132.21 139.339 131.79 139.339 131.37 139.337C127.943 139.277 127.943 139.277 125.042 140.9Z" fill="black"/>
<path d="M129.308 212.359C129.573 212.358 129.838 212.356 130.111 212.354C130.542 212.353 130.542 212.353 130.981 212.353C131.276 212.352 131.571 212.351 131.874 212.35C132.499 212.348 133.124 212.348 133.749 212.348C134.704 212.347 135.658 212.342 136.613 212.336C137.22 212.335 137.827 212.335 138.433 212.335C138.719 212.332 139.004 212.33 139.298 212.328C141.85 212.337 141.85 212.337 142.969 212.988C143.392 213.834 143.372 214.393 143.262 215.332C142.668 216.168 142.196 216.712 141.165 216.93C140.38 216.981 139.608 216.984 138.821 216.971C138.534 216.971 138.247 216.971 137.951 216.971C137.346 216.969 136.74 216.964 136.134 216.955C135.208 216.943 134.283 216.943 133.357 216.945C132.767 216.942 132.178 216.938 131.589 216.934C131.313 216.934 131.036 216.934 130.752 216.934C129.327 216.908 128.286 216.876 127.148 215.918C126.709 215.075 126.709 215.075 126.562 214.16C127.216 212.69 127.754 212.367 129.308 212.359Z" fill="black"/>
<path d="M188.379 120.996C188.965 121.582 188.965 121.582 189.031 122.536C189.031 122.942 189.028 123.348 189.022 123.754C189.021 123.968 189.02 124.182 189.02 124.402C189.016 125.086 189.009 125.769 189.001 126.453C188.999 126.916 188.996 127.379 188.993 127.842C188.987 128.978 188.977 130.114 188.965 131.25C188.868 131.25 188.771 131.25 188.672 131.25C188.665 130.978 188.657 130.706 188.65 130.426C188.622 129.418 188.593 128.41 188.563 127.402C188.55 126.965 188.538 126.529 188.526 126.092C188.509 125.466 188.491 124.839 188.472 124.212C188.461 123.834 188.45 123.457 188.439 123.068C188.439 122.194 188.439 122.194 188.086 121.582C188.183 121.389 188.279 121.195 188.379 120.996Z" fill="black"/>
</svg>
