<svg width="300" height="300" viewBox="0 0 300 300" fill="none" xmlns="http://www.w3.org/2000/svg">
<path d="M144.727 84.375C145.792 84.5005 146.286 84.9529 147.015 85.7117C147.221 85.925 147.426 86.1384 147.638 86.3583C148.345 87.1232 149.033 87.9019 149.713 88.6917C150.43 89.5117 151.166 90.3126 151.904 91.1133C152.959 92.2587 153.997 93.4156 155.017 94.5923C155.726 95.396 156.452 96.1842 157.178 96.9727C158.245 98.1324 159.299 99.3023 160.332 100.493C160.922 101.168 161.521 101.836 162.122 102.502C162.341 102.747 162.561 102.991 162.788 103.243C163.263 103.768 163.741 104.29 164.22 104.811C164.458 105.07 164.696 105.33 164.941 105.597C165.159 105.832 165.376 106.067 165.601 106.31C166.113 106.934 166.113 106.934 166.406 107.812C166.6 107.812 166.793 107.812 166.992 107.812C167.395 108.212 167.395 108.212 167.871 108.783C168.773 109.846 169.696 110.885 170.636 111.914C170.889 112.192 171.143 112.47 171.404 112.756C171.592 112.962 171.779 113.167 171.973 113.379C171.53 114.489 170.894 115.016 169.958 115.741C168.728 116.719 167.555 117.726 166.406 118.799C165.053 120.059 163.654 121.24 162.212 122.399C161.135 123.287 160.107 124.225 159.081 125.171C158.496 125.684 158.496 125.684 157.91 125.977C158.112 127.408 159.096 128.148 160.073 129.135C160.547 129.785 160.547 129.785 160.484 130.361C160.219 131.046 159.958 131.315 159.392 131.776C159.221 131.918 159.05 132.06 158.874 132.206C158.695 132.349 158.516 132.493 158.331 132.642C158.151 132.79 157.971 132.938 157.785 133.091C157.34 133.457 156.893 133.818 156.445 134.18C157.231 135.713 158.411 136.852 159.595 138.08C160.951 139.496 162.284 140.922 163.568 142.404C164.371 143.32 165.205 144.206 166.04 145.093C168.273 147.476 170.489 149.874 172.668 152.307C172.88 152.54 173.092 152.772 173.31 153.012C173.856 153.621 174.385 154.236 174.91 154.861C176.646 156.882 177.85 158.134 180.512 158.78C182.14 159.369 183.169 160.732 184.277 162.012C184.447 162.202 184.616 162.393 184.791 162.59C185.115 162.957 185.435 163.326 185.754 163.697C186.491 164.542 187.251 165.364 188.013 166.187C188.164 166.35 188.315 166.513 188.471 166.682C188.779 167.014 189.087 167.346 189.395 167.678C190.084 168.424 190.77 169.173 191.455 169.922C193.159 171.782 194.87 173.636 196.582 175.488C198.3 177.347 200.017 179.207 201.727 181.073C201.926 181.29 201.926 181.29 202.129 181.512C202.781 182.223 203.433 182.936 204.084 183.649C205.811 185.54 207.557 187.412 209.31 189.278C210.673 190.73 212.024 192.192 213.365 193.664C213.948 194.302 214.537 194.934 215.129 195.564C215.291 195.736 215.453 195.909 215.62 196.087C215.934 196.422 216.248 196.755 216.564 197.088C217.227 197.796 217.658 198.286 217.969 199.219C218.162 199.219 218.355 199.219 218.555 199.219C218.988 199.659 218.988 199.659 219.489 200.262C220.175 201.075 220.871 201.827 221.649 202.551C224.132 205.023 225.598 208.479 225.714 211.981C225.567 215.243 224.661 218.386 222.252 220.684C221.429 221.369 220.583 222.013 219.727 222.656C219.405 222.917 219.084 223.178 218.764 223.441C217.063 224.826 215.494 226.084 213.281 226.465C213.018 226.512 212.754 226.559 212.482 226.608C208.923 227.073 205.348 226.249 202.441 224.121C200.598 222.525 199 220.696 197.403 218.861C196.547 217.89 195.658 216.95 194.769 216.01C194.384 215.6 193.998 215.189 193.612 214.779C193.422 214.577 193.232 214.375 193.036 214.167C189.505 210.402 189.505 210.402 187.976 208.63C186.807 207.278 185.576 205.982 184.353 204.678C183.166 203.41 181.997 202.129 180.84 200.835C180.052 199.96 179.254 199.094 178.455 198.23C178.306 198.069 178.157 197.909 178.004 197.743C177.856 197.582 177.707 197.422 177.554 197.256C175.748 195.303 173.947 193.346 172.174 191.364C170.873 189.913 169.542 188.492 168.21 187.07C167.035 185.813 165.875 184.543 164.73 183.259C164.225 182.7 163.717 182.147 163.203 181.597C157.91 175.935 157.91 175.935 157.91 172.357C157.739 169.899 156.718 168.913 154.98 167.285C154.384 166.66 153.804 166.02 153.223 165.381C152.921 165.054 152.619 164.728 152.316 164.401C151.586 163.611 150.865 162.813 150.146 162.012C149.143 160.892 148.128 159.783 147.107 158.679C146.959 158.519 146.811 158.359 146.658 158.194C146.358 157.87 146.058 157.545 145.759 157.221C142.125 153.289 142.125 153.289 140.46 151.354C140.041 150.881 139.631 150.422 139.16 150C138.271 150.03 137.94 150.334 137.256 150.916C136.523 151.465 136.523 151.465 135.943 151.403C134.952 151.016 134.35 150.18 133.667 149.396C133.519 149.229 133.37 149.063 133.217 148.892C132.852 148.482 132.49 148.069 132.129 147.656C130.997 148.124 130.201 148.893 129.327 149.725C127.945 151.02 126.519 152.231 125.04 153.416C123.957 154.32 122.93 155.279 121.918 156.261C121.077 157.057 120.344 157.558 119.238 157.91C119.121 157.775 119.003 157.64 118.882 157.5C116.8 155.111 114.671 152.764 112.527 150.43C111.238 149.026 109.964 147.61 108.691 146.191C107.317 144.661 105.939 143.134 104.553 141.614C103.732 140.712 102.917 139.807 102.118 138.885C101.25 137.887 100.359 136.911 99.4629 135.938C98.4048 134.788 97.3618 133.629 96.3387 132.448C95.2012 131.153 94.0335 129.886 92.8711 128.613C93.2552 127.748 93.6428 127.199 94.3623 126.587C94.5421 126.432 94.722 126.277 94.9073 126.118C95.1955 125.876 95.1955 125.876 95.4895 125.629C95.6873 125.46 95.8851 125.291 96.0889 125.117C97.4763 123.936 98.8866 122.785 100.303 121.639C101.423 120.705 102.493 119.72 103.562 118.729C104.274 118.087 105.007 117.486 105.762 116.895C105.265 115.791 104.589 115.054 103.753 114.194C103.418 113.672 103.418 113.672 103.415 113.117C103.85 112.212 104.542 111.631 105.286 110.98C105.444 110.838 105.603 110.696 105.767 110.55C107.008 109.447 108.287 108.395 109.579 107.354C110.792 106.36 111.972 105.331 113.154 104.301C114.248 103.349 115.345 102.402 116.449 101.461C117.858 100.261 119.249 99.0491 120.612 97.7966C121.919 96.5969 123.27 95.4657 124.65 94.3508C125.597 93.5826 126.52 92.7906 127.441 91.9922C128.579 92.4463 129.208 93.1655 130.005 94.0796C130.356 94.4795 130.356 94.4795 130.714 94.8875C130.891 95.0922 131.068 95.2969 131.25 95.5078C132.496 95.3664 133.192 94.5835 134.052 93.75C135.198 92.6672 136.356 91.6269 137.585 90.6372C138.896 89.5814 140.152 88.4809 141.396 87.3482C142.253 86.5711 143.123 85.811 143.995 85.0525C144.245 84.8334 144.492 84.61 144.727 84.375ZM208.649 210.278C208.159 211.206 208.044 211.941 208.008 212.988C208.416 214.05 208.866 214.912 209.766 215.625C211.201 216.104 212.272 216.122 213.647 215.46C214.623 214.596 214.967 213.942 215.332 212.695C215.303 211.267 214.872 210.477 213.867 209.473C211.95 208.441 210.222 208.759 208.649 210.278Z" fill="black"/>
<path d="M83.4957 122.461C85.8902 124.83 88.1067 127.321 90.218 129.943C90.8965 130.756 91.621 131.492 92.3809 132.227C93.0839 132.927 93.7244 133.675 94.3722 134.426C95.4166 135.629 96.4905 136.806 97.5582 137.988C100.069 140.768 100.069 140.768 101.202 142.072C102.025 143.017 102.866 143.946 103.711 144.873C104.724 145.984 105.723 147.105 106.71 148.239C108.406 150.175 110.147 152.071 111.888 153.966C112.948 155.121 113.998 156.286 115.045 157.452C115.803 158.293 116.568 159.127 117.334 159.961C118.548 161.283 119.755 162.61 120.952 163.947C121.388 164.432 121.826 164.915 122.266 165.396C122.481 165.633 122.697 165.869 122.918 166.113C123.112 166.325 123.306 166.536 123.505 166.754C123.925 167.285 123.925 167.285 123.925 167.871C122.778 168.104 121.631 168.336 120.483 168.567C120.163 168.632 119.843 168.697 119.514 168.764C113.577 169.958 108.795 170.681 103.305 167.506C101.942 166.592 100.779 165.501 99.609 164.355C99.2317 163.99 99.2317 163.99 98.8468 163.617C97.7632 162.552 96.7144 161.474 95.7192 160.325C94.3765 158.778 92.9546 157.308 91.5329 155.835C91.3316 155.623 91.1303 155.412 90.923 155.194C90.7412 155.005 90.5594 154.816 90.3721 154.621C89.941 154.102 89.941 154.102 89.6481 153.223C89.4547 153.223 89.2614 153.223 89.0621 153.223C88.3156 152.5 87.6726 151.68 87.0114 150.879C86.8573 150.695 86.7032 150.511 86.5444 150.322C79.2801 141.33 79.2801 141.33 79.8645 135.804C80.3344 132.775 81.2178 129.806 82.0309 126.855C82.1598 126.379 82.2888 125.902 82.4177 125.425C83.141 122.816 83.141 122.816 83.4957 122.461Z" fill="black"/>
<path d="M165.686 79.4763C167.288 81.0376 168.836 82.6526 170.282 84.3595C170.974 85.1627 171.693 85.94 172.412 86.7192C173.463 87.8621 174.512 89.0056 175.524 90.1834C175.961 90.6898 176.406 91.1897 176.854 91.6871C181.398 96.7994 182.901 102.78 182.605 109.531C182.333 112.459 181.56 115.747 180.176 118.36C179.1 117.296 178.054 116.211 177.026 115.101C176.872 114.933 176.717 114.766 176.558 114.594C175.639 113.593 174.762 112.573 173.914 111.512C172.498 109.748 170.95 108.12 169.4 106.475C168.558 105.581 167.745 104.667 166.944 103.737C166.194 102.884 165.421 102.054 164.648 101.221C163.526 100.011 162.418 98.7922 161.338 97.5442C160.308 96.3635 159.253 95.2059 158.203 94.0434C155.692 91.2625 155.692 91.2625 154.578 89.9785C153.703 88.9741 152.806 87.9918 151.904 87.0122C150.837 85.8524 149.783 84.6826 148.75 83.492C147.716 82.309 146.658 81.147 145.605 79.9809C144.725 79.0058 143.846 78.0291 142.969 77.0513C142.661 76.7125 142.661 76.7125 142.347 76.3669C142.066 76.0531 142.066 76.0531 141.779 75.7329C141.612 75.5486 141.445 75.3643 141.274 75.1744C140.918 74.7075 140.918 74.7075 140.918 74.1216C149.373 72.814 159.134 73.2807 165.686 79.4763Z" fill="black"/>
</svg>
