<svg width="300" height="300" viewBox="0 0 300 300" fill="none" xmlns="http://www.w3.org/2000/svg">
<path d="M146.484 86.1328C147.647 86.5908 148.364 87.3988 149.176 88.3118C149.317 88.4683 149.459 88.6248 149.604 88.7861C150.731 90.0438 151.798 91.3461 152.857 92.6617C153.541 93.4883 154.254 94.2791 154.98 95.0684C156.158 96.3495 157.266 97.6702 158.36 99.0234C159.194 100.039 160.05 101.034 160.913 102.026C161.072 102.21 161.232 102.394 161.396 102.583C162.245 103.559 163.096 104.532 163.95 105.503C164.122 105.7 164.294 105.896 164.472 106.099C164.8 106.475 165.13 106.85 165.461 107.223C166.276 108.156 166.98 109.063 167.578 110.156C167.337 110.337 167.096 110.518 166.848 110.704C160.149 115.77 154.813 121.369 153.363 129.884C153.059 131.666 153.059 131.666 153.589 133.317C153.842 133.581 153.842 133.581 154.101 133.85C154.289 134.048 154.477 134.247 154.67 134.451C154.969 134.752 154.969 134.752 155.273 135.059C155.463 135.256 155.653 135.454 155.849 135.657C156.963 136.798 158.127 137.854 159.336 138.892C160.06 139.542 160.742 140.226 161.426 140.918C162.268 141.771 163.113 142.595 164.026 143.372C165.068 144.262 166.029 145.217 166.992 146.191C168.12 147.334 169.267 148.42 170.49 149.461C171.407 150.281 172.262 151.162 173.125 152.037C173.888 152.807 174.663 153.545 175.488 154.248C176.616 155.21 177.651 156.256 178.691 157.31C179.635 158.262 180.613 159.148 181.632 160.017C182.611 160.89 183.518 161.836 184.44 162.769C185.241 163.561 186.079 164.294 186.934 165.026C187.746 165.746 188.497 166.522 189.258 167.294C189.826 167.853 190.411 168.377 191.015 168.896C192.044 169.78 192.993 170.722 193.944 171.688C194.702 172.434 195.502 173.121 196.308 173.814C196.862 174.305 197.382 174.814 197.9 175.342C198.595 176.049 199.309 176.711 200.061 177.356C201.159 178.301 202.174 179.31 203.183 180.35C203.972 181.119 204.796 181.836 205.628 182.558C206.646 183.454 207.628 184.388 208.612 185.321C209.048 185.734 209.485 186.146 209.921 186.558C210.139 186.764 210.357 186.97 210.581 187.182C211.581 188.123 212.587 189.056 213.592 189.99C214.908 191.214 216.198 192.454 217.457 193.737C217.986 194.255 218.538 194.731 219.104 195.209C223.314 198.872 225.271 202.584 225.961 208.078C226.196 212.65 223.908 216.975 221.103 220.402C220.605 220.898 220.605 220.898 220.019 220.898C220.019 221.092 220.019 221.285 220.019 221.484C216.754 224.297 212.246 226.141 207.901 225.959C203.158 225.467 198.773 223.77 195.703 220.02C194.912 219.04 194.134 218.052 193.366 217.054C192.409 215.816 191.411 214.613 190.411 213.409C188.934 211.627 187.501 209.82 186.098 207.978C184.84 206.332 183.535 204.726 182.226 203.12C181.903 202.723 181.579 202.326 181.256 201.929C181.092 201.727 180.927 201.526 180.758 201.318C179.587 199.877 178.436 198.423 177.294 196.96C176.11 195.447 174.897 193.957 173.682 192.468C172.664 191.22 171.662 189.961 170.672 188.69C169.3 186.931 167.885 185.209 166.462 183.491C165.399 182.205 164.355 180.907 163.33 179.59C161.808 177.636 160.235 175.727 158.657 173.819C156.46 171.16 154.281 168.486 152.16 165.765C151 164.276 149.799 162.829 148.571 161.395C147.459 160.09 146.401 158.747 145.35 157.392C144.431 156.215 143.482 155.07 142.511 153.937C141.16 152.361 139.885 150.738 138.63 149.084C138.418 148.807 138.206 148.529 137.988 148.242C137.808 147.965 137.628 147.688 137.442 147.402C136.856 146.69 136.856 146.69 135.924 146.665C135.386 146.703 135.386 146.703 134.839 146.741C132.736 146.834 130.749 146.633 128.668 146.338C121.895 145.287 121.895 145.287 115.675 147.55C115.136 147.949 115.136 147.949 114.551 147.949C113.825 149.348 113.269 150.449 113.434 152.051C113.465 152.355 113.496 152.659 113.527 152.972C113.742 154.656 113.988 156.336 114.253 158.013C114.979 162.786 114.979 162.786 113.672 164.648C111.666 166.75 108.012 170.218 104.992 170.306C104.753 170.317 104.514 170.328 104.267 170.34C101.984 170.004 100.593 168.708 99.188 166.974C99.0239 166.778 98.8598 166.582 98.6908 166.381C98.2114 165.807 97.7376 165.228 97.2654 164.648C97.032 164.364 96.7986 164.08 96.5581 163.788C96.1391 163.276 95.7214 162.763 95.305 162.249C94.3602 161.099 93.3877 159.974 92.4161 158.848C91.5072 157.791 90.6165 156.723 89.7397 155.64C88.6982 154.356 87.6069 153.13 86.4942 151.908C85.8392 151.171 85.2145 150.418 84.5945 149.652C83.5191 148.325 82.4174 147.024 81.2986 145.734C81.1353 145.545 80.972 145.357 80.8038 145.163C79.8731 144.093 78.9268 143.041 77.966 141.998C74.3998 138.064 74.3998 138.064 74.3223 135.406C74.3113 135.163 74.3003 134.919 74.2891 134.668C74.5746 132.879 75.954 131.678 77.2519 130.518C77.4069 130.378 77.5619 130.239 77.7215 130.096C79.8042 128.255 81.4614 126.842 84.3747 126.855C85.7377 127.026 87.0762 127.294 88.4214 127.57C92.8349 128.604 92.8349 128.604 97.2104 127.936C101.037 125.254 101.797 119.285 102.55 115.035C103.179 111.696 104.492 109.043 107.19 106.915C108.493 105.871 109.771 104.803 111.035 103.711C112.495 102.452 113.972 101.219 115.473 100.009C116.103 99.4868 116.717 98.9577 117.327 98.4135C121.173 94.9909 124.313 94.3359 129.341 93.6509C135.233 92.8381 140.377 91.2038 145.019 87.3047C145.463 86.9512 145.463 86.9512 145.916 86.5906C146.197 86.364 146.197 86.364 146.484 86.1328Z" fill="black"/>
<path d="M157.948 75.5148C159.805 76.7513 161.097 78.2619 162.484 80.0031C163.179 80.8547 163.903 81.6641 164.648 82.4716C165.826 83.7524 166.934 85.0726 168.027 86.4256C168.867 87.4483 169.73 88.4492 170.599 89.4479C170.761 89.634 170.923 89.82 171.089 90.0117C171.734 90.7533 172.379 91.4946 173.025 92.2353C174.623 94.0707 176.201 95.9194 177.704 97.8342C177.934 98.1269 178.164 98.4195 178.401 98.7211C179.911 100.948 180.493 103.254 180.051 105.932C179.504 108.333 178.419 110.092 176.495 111.64C175.576 111.994 175.001 112.078 174.023 111.915C172.895 110.902 171.975 109.746 171.057 108.546C169.977 107.151 168.873 105.784 167.725 104.444C166.627 103.164 165.571 101.859 164.539 100.526C162.951 98.4803 161.262 96.532 159.555 94.5853C158.799 93.7202 158.052 92.8477 157.306 91.9748C157.162 91.8067 157.018 91.6387 156.87 91.4655C156.58 91.1272 156.291 90.7887 156.001 90.4503C155.417 89.768 154.833 89.0861 154.248 88.4045C153.956 88.0641 153.665 87.7235 153.374 87.3826C152.62 86.4996 151.86 85.6227 151.089 84.7536C150.932 84.5738 150.774 84.394 150.611 84.2088C150.313 83.8691 150.012 83.5309 149.709 83.1949C148.456 81.7611 147.363 80.2671 147.363 78.3151C147.828 76.7744 148.478 76.129 149.78 75.2023C152.154 74.1111 155.675 74.2728 157.948 75.5148Z" fill="black"/>
</svg>
