<svg width="300" height="300" viewBox="0 0 300 300" fill="none" xmlns="http://www.w3.org/2000/svg">
<path d="M92.5777 71.7188C88.7398 72.7148 86.191 74.8535 83.5543 79.2773C82.6753 80.7129 77.8414 88.7695 72.773 97.1777C67.7046 105.586 63.3101 113.203 62.9878 114.141C60.7906 120.469 63.6031 127.881 69.4039 131.133L70.898 131.982V180.088C70.898 227.842 70.898 228.223 71.4839 228.809C72.0699 229.395 72.4507 229.395 150.087 229.395C192.978 229.395 228.222 229.277 228.398 229.16C229.394 228.516 229.394 228.164 229.394 179.824V131.982L230.068 131.572C233.144 129.697 235.664 126.855 236.718 124.014C237.685 121.465 237.978 118.389 237.48 116.016C236.982 113.643 236.718 113.115 232.324 105.615C230.419 102.393 226.025 94.8633 222.509 88.916C219.023 82.9395 215.625 77.373 214.951 76.4941C213.427 74.5312 211.084 72.8613 208.593 72.0117L206.689 71.3379L150.585 71.2793C98.525 71.2207 94.3355 71.25 92.5777 71.7188ZM105.761 77.3438C105.761 77.4902 105.644 77.9004 105.468 78.2812C105.322 78.6621 104.003 81.9727 102.568 85.6934C97.7046 98.2324 88.857 120.264 88.1246 121.729C85.898 126.094 81.0347 128.76 76.3765 128.232C74.3843 127.969 71.4839 126.533 70.2828 125.186C67.939 122.49 67.0015 118.184 68.2613 115.693C69.4332 113.438 89.355 80.1562 90.2046 79.0723C90.5269 78.6328 91.3765 78.0176 92.0503 77.666C93.2222 77.1094 93.7789 77.0508 99.5503 77.0508C103.3 77.0508 105.761 77.168 105.761 77.3438ZM126.855 77.6074C126.855 78.1348 123.486 94.9805 120.878 107.52C120.146 110.977 119.355 114.814 119.121 116.016C117.773 122.402 115.371 125.889 111.123 127.5C104.091 130.166 96.6792 125.361 96.5621 118.066C96.5328 115.986 97.3824 113.73 107.607 88.4766C109.921 82.7637 111.884 77.8418 112.002 77.5488C112.177 77.0801 112.793 77.0508 119.531 77.0508C126.474 77.0508 126.855 77.0801 126.855 77.6074ZM147.421 81.6797C147.685 89.5312 147.363 118.389 147.011 119.531C146.835 120.088 146.308 121.318 145.839 122.256C142.5 128.936 133.447 130.342 128.349 124.98C126.679 123.193 125.918 121.787 125.302 119.443C124.892 117.832 124.892 117.568 125.712 113.291C128.349 99.7852 132.773 77.4609 132.89 77.2852C132.978 77.1387 136.259 77.0508 140.156 77.0508H147.275L147.421 81.6797ZM167.988 79.1602C168.252 80.332 169.658 87.1582 171.123 94.3359C176.162 119.15 175.986 118.066 174.931 120.879C173.144 125.654 169.453 128.203 164.355 128.145C162.334 128.115 161.543 127.969 160.195 127.354C157.089 125.947 154.892 123.369 153.779 119.795C153.252 118.125 153.222 116.777 153.222 97.5293V77.0508H160.371H167.519L167.988 79.1602ZM193.418 89.9414C196.142 96.9434 199.57 105.703 201.035 109.424C203.496 115.547 203.73 116.338 203.701 118.066C203.701 120.967 202.763 123.105 200.566 125.273C199.306 126.504 198.31 127.207 197.314 127.559C191.513 129.521 186.181 127.354 183.427 121.875C182.109 119.209 181.787 117.891 178.681 102.686C174.697 83.1445 173.73 78.2812 173.73 77.666C173.73 77.0508 173.789 77.0508 181.084 77.1094L188.466 77.1973L193.418 89.9414ZM207.451 77.4902C209.912 78.3691 210.117 78.6621 217.822 91.8457C220.371 96.1816 224.326 102.92 226.611 106.787C232.47 116.66 232.412 116.572 232.265 119.092C232.06 121.904 231.152 123.896 229.218 125.654C227.168 127.529 225.351 128.174 222.07 128.174C219.902 128.174 219.345 128.057 217.675 127.236C215.302 126.094 213.339 124.16 212.021 121.641C210.966 119.619 208.242 112.705 201.621 95.3613C197.46 84.4922 194.824 77.4316 194.824 77.1973C194.824 77.1094 197.373 77.0508 200.507 77.0508C204.873 77.0508 206.484 77.168 207.451 77.4902ZM93.6031 126.299C95.0386 128.35 97.7046 130.576 100.166 131.748C101.455 132.363 102.509 132.979 102.509 133.125C102.539 133.271 102.07 134.355 101.513 135.527C100.283 138.076 98.4371 139.98 96.1519 141.123C94.6285 141.885 94.189 141.943 91.2593 141.943C88.3296 141.943 87.8902 141.885 86.5718 141.152C84.6968 140.186 82.7632 138.105 81.855 136.113C80.7125 133.623 80.771 133.301 82.4703 132.715C86.0152 131.484 88.7691 129.58 90.9664 126.855C91.7281 125.889 92.4605 125.098 92.5777 125.098C92.6949 125.098 93.1636 125.625 93.6031 126.299ZM122.9 126.855C124.423 128.789 126.855 130.664 129.521 132.012C130.722 132.598 131.748 133.125 131.806 133.184C132.128 133.477 129.609 137.812 128.466 139.014C126.474 141.064 124.394 141.885 120.966 142.031C118.388 142.148 117.978 142.09 116.367 141.357C114.199 140.391 111.884 138.076 110.888 135.879C109.746 133.33 109.746 133.33 112.031 132.568C114.726 131.631 117.597 129.668 119.707 127.324C120.673 126.27 121.494 125.391 121.582 125.391C121.669 125.391 122.255 126.064 122.9 126.855ZM180.029 126.592C181.816 129.053 185.332 131.543 188.584 132.715C190.283 133.33 190.371 133.389 190.136 134.15C189.697 135.703 188.32 138.047 187.177 139.189C185.332 141.035 183.164 141.914 180.175 142.031C176.894 142.178 174.814 141.445 172.646 139.365C171.064 137.871 168.486 133.418 168.955 132.979C169.072 132.891 169.687 132.627 170.273 132.451C172.031 131.865 174.638 130.02 176.601 127.91C177.597 126.826 178.418 125.83 178.418 125.684C178.418 125.039 179.209 125.479 180.029 126.592ZM209.853 127.822C212.343 130.342 214.716 131.807 217.91 132.861C219.638 133.418 219.638 133.359 218.437 136.084C216.621 140.156 212.871 142.295 208.037 142.031C205.253 141.885 203.408 141.064 201.416 139.014C200.039 137.607 198.017 134.18 198.076 133.271C198.076 133.037 199.013 132.422 200.127 131.895C202.294 130.84 205.488 128.115 206.572 126.387C206.894 125.83 207.246 125.391 207.334 125.391C207.392 125.391 208.535 126.475 209.853 127.822ZM151.962 127.471C154.277 129.932 157.822 132.246 160.341 132.832C161.367 133.066 161.367 133.623 160.224 135.879C157.002 142.324 149.238 144.199 143.496 139.951C142.382 139.131 140.742 136.699 140.039 134.824L139.453 133.301L140.244 132.979C143.906 131.543 145.517 130.518 147.802 128.174C149.091 126.855 150.175 125.742 150.234 125.713C150.293 125.713 151.054 126.475 151.962 127.471ZM77.4605 139.893C78.8668 142.5 82.8218 145.605 86.2203 146.777C92.7828 149.033 100.341 146.514 104.589 140.654L105.908 138.838L106.611 139.805C107.021 140.332 108.281 141.709 109.394 142.852C113.32 146.748 118.535 148.389 123.691 147.334C127.5 146.543 132.041 143.555 134.209 140.361C134.765 139.541 135.293 138.867 135.38 138.867C135.498 138.867 135.908 139.365 136.289 139.951C137.402 141.621 140.097 144.17 141.855 145.254C148.154 149.033 155.742 148.271 161.22 143.262C162.275 142.295 163.505 140.918 163.974 140.186C164.414 139.453 164.882 138.867 165 138.867C165.087 138.867 165.673 139.512 166.23 140.303C169.482 144.727 174.873 147.627 179.853 147.656C184.628 147.656 190.224 144.609 193.095 140.361C193.652 139.541 194.179 138.867 194.267 138.867C194.384 138.867 194.794 139.365 195.205 139.98C197.9 144.082 202.939 147.129 207.744 147.539C212.724 147.979 218.73 145.166 221.806 140.977C222.509 139.98 223.183 139.189 223.33 139.189C223.447 139.16 223.535 158.203 223.535 181.494V223.828H217.236H210.937V192.773V161.689L210.205 160.986L209.502 160.254H184.394H159.257L158.584 160.898L157.91 161.514V192.832V224.121L117.275 224.062L76.6109 223.975L76.523 181.406C76.4937 158.027 76.5523 138.867 76.6988 138.867C76.816 138.867 77.1675 139.336 77.4605 139.893ZM205.019 165.967C205.283 166.084 205.371 172.119 205.371 194.912V223.74L184.687 223.975C172.47 224.092 163.886 224.062 163.74 223.916C163.593 223.77 163.505 211.67 163.535 194.795L163.623 165.967L170.361 165.82C177.568 165.674 204.404 165.791 205.019 165.967Z" fill="black"/>
<path d="M89.8242 156.797C89.4141 157.383 89.3555 160.459 89.3555 184.131C89.3555 207.803 89.4141 210.879 89.8242 211.465L90.2637 212.109H120.674C149.766 212.109 151.113 212.08 151.553 211.582C152.021 211.084 152.051 208.77 152.051 184.16C152.051 166.201 151.963 157.09 151.758 156.709C151.465 156.152 150.791 156.152 120.85 156.152H90.2637L89.8242 156.797ZM146.777 184.277V207.129H120.703H94.6289V184.277V161.426H120.703H146.777V184.277Z" fill="black"/>
</svg>
