<svg width="300" height="300" viewBox="0 0 300 300" fill="none" xmlns="http://www.w3.org/2000/svg">
<path d="M160.657 88.3487C161.046 88.5582 161.436 88.7676 161.825 88.9768C162.963 89.589 164.099 90.2042 165.235 90.8206C165.538 90.9854 165.842 91.1501 166.155 91.3199C167.477 92.0382 168.797 92.7589 170.117 93.4814C171.783 94.3934 173.452 95.2994 175.122 96.2039C175.413 96.3613 175.703 96.5186 176.003 96.6807C177.863 97.6877 179.726 98.6914 181.589 99.6935C191.653 105.107 191.653 105.107 196.033 107.63C197.824 108.661 199.617 109.648 201.477 110.55C203.084 111.358 204.654 112.233 206.23 113.098C207.784 113.951 209.341 114.796 210.905 115.629C211.242 115.809 211.58 115.99 211.928 116.176C212.582 116.524 213.236 116.872 213.891 117.218C219.577 120.255 219.577 120.255 220.313 122.461C220.493 123.987 220.451 125.352 219.582 126.679C219.049 127.246 218.504 127.586 217.832 127.977C217.439 128.206 217.439 128.206 217.038 128.439C215.685 129.204 214.321 129.948 212.952 130.683C212.329 131.018 211.707 131.354 211.084 131.69C210.769 131.86 210.453 132.03 210.128 132.205C208.626 133.013 207.127 133.826 205.628 134.638C205.336 134.796 205.044 134.954 204.744 135.116C202.815 136.161 200.888 137.211 198.963 138.263C196.623 139.541 194.279 140.809 191.931 142.072C184.82 145.893 184.82 145.893 177.748 149.786C174.363 151.673 170.957 153.519 167.549 155.362C167.251 155.523 166.953 155.684 166.647 155.849C166.049 156.172 165.452 156.495 164.855 156.818C163.279 157.671 161.709 158.532 160.147 159.408C159.304 159.879 158.459 160.346 157.613 160.811C157.231 161.022 156.851 161.236 156.471 161.452C153.334 163.231 150.568 163.892 146.998 163.129C145.458 162.674 144.082 161.897 142.676 161.133C142.354 160.962 142.031 160.79 141.699 160.614C139.438 159.406 137.192 158.168 134.957 156.913C133.34 156.007 131.709 155.128 130.078 154.248C128.033 153.144 125.992 152.032 123.963 150.898C121.845 149.713 119.711 148.564 117.572 147.419C115.124 146.107 112.696 144.769 110.285 143.39C107.673 141.898 105.022 140.499 102.346 139.124C99.9867 137.907 97.6766 136.616 95.373 135.297C93.3962 134.17 91.3954 133.101 89.374 132.056C85.1958 129.89 85.1958 129.89 83.4597 128.943C83.2743 128.846 83.0889 128.748 82.8979 128.648C81.4609 127.853 80.4282 126.872 79.6878 125.391C79.5091 123.789 79.4937 122.26 80.4186 120.87C80.9524 120.314 81.5007 119.972 82.1665 119.584C82.4283 119.432 82.6901 119.279 82.9598 119.122C84.3255 118.349 85.7025 117.6 87.0852 116.858C87.7071 116.523 88.3289 116.188 88.9506 115.852C89.2625 115.684 89.5743 115.516 89.8956 115.343C91.3168 114.576 92.7353 113.805 94.1531 113.031C94.4203 112.886 94.6875 112.74 94.9628 112.59C96.5896 111.702 98.211 110.804 99.8294 109.9C103.563 107.817 107.337 105.809 111.105 103.789C114.923 101.741 118.73 99.6732 122.52 97.574C125.508 95.9197 128.513 94.2977 131.527 92.6895C133.668 91.5462 135.804 90.3927 137.934 89.2276C138.695 88.8119 139.456 88.3962 140.217 87.9806C140.675 87.7307 141.133 87.4805 141.59 87.2302C142.196 86.8997 142.802 86.571 143.408 86.243C143.738 86.064 144.067 85.885 144.406 85.7006C150.312 82.7927 155.379 85.4876 160.657 88.3487Z" fill="black"/>
<path d="M65.9966 132.497C66.3449 132.675 66.6908 132.858 67.0346 133.044C67.2306 133.146 67.4265 133.248 67.6284 133.354C68.3304 133.722 69.0283 134.097 69.7263 134.473C70.3171 134.788 70.908 135.103 71.499 135.418C74.8058 137.187 78.0987 138.982 81.3897 140.78C83.3587 141.856 85.331 142.926 87.3044 143.994C87.8907 144.312 88.477 144.63 89.0633 144.947C90.2426 145.586 91.423 146.223 92.6041 146.859C93.1752 147.167 93.7463 147.476 94.3173 147.784C94.5755 147.923 94.8336 148.061 95.0995 148.203C95.8272 148.597 96.5478 149.001 97.2653 149.414C97.5022 149.549 97.739 149.684 97.983 149.824C98.2118 149.964 98.4406 150.104 98.6764 150.248C98.8775 150.37 99.0786 150.491 99.2859 150.616C100.653 151.85 101.439 153.189 101.548 155.046C101.555 155.631 101.554 156.216 101.546 156.801C101.548 157.122 101.549 157.444 101.551 157.775C101.555 158.832 101.549 159.89 101.543 160.947C101.545 161.686 101.547 162.424 101.55 163.163C101.557 165.104 101.556 167.046 101.552 168.988C101.546 172.094 101.55 175.199 101.56 178.305C101.561 179.387 101.558 180.468 101.553 181.55C101.554 182.218 101.555 182.885 101.556 183.553C101.554 183.851 101.551 184.149 101.548 184.456C101.561 186.834 102.017 188.903 103.125 191.016C101.57 190.552 100.173 189.877 98.7302 189.148C98.474 189.019 98.2178 188.89 97.9538 188.757C95.5313 187.529 93.149 186.231 90.7697 184.922C88.9494 183.92 87.1204 182.935 85.2902 181.952C79.5053 178.841 73.7326 175.708 67.9685 172.559C68.1359 174.584 68.3519 175.979 69.7263 177.539C71.6805 178.926 73.9 179.985 76.0134 181.106C76.9235 181.589 77.832 182.074 78.7408 182.559C78.9227 182.657 79.1046 182.754 79.2921 182.854C80.8869 183.705 82.4767 184.565 84.0634 185.431C84.4418 185.637 84.4418 185.637 84.8277 185.848C86.5499 186.789 88.2669 187.74 89.9827 188.693C91.6073 189.595 93.2363 190.488 94.8665 191.38C95.6615 191.818 96.4509 192.264 97.239 192.714C99.626 194.044 101.819 194.819 104.59 194.238C107.364 193.271 109.938 191.855 112.518 190.466C112.931 190.245 113.345 190.024 113.758 189.803C116.703 188.226 119.63 186.614 122.546 184.983C125.073 183.57 127.616 182.187 130.17 180.823C131.846 179.924 131.846 179.924 133.442 178.893C134.179 178.418 134.179 178.418 135.04 178.491C136.655 179.414 137.758 180.591 138.304 182.384C138.636 183.786 138.658 185.143 138.654 186.578C138.657 186.997 138.657 186.997 138.659 187.423C138.663 188.34 138.663 189.256 138.662 190.172C138.663 190.813 138.664 191.453 138.666 192.094C138.668 193.434 138.668 194.775 138.666 196.115C138.665 197.828 138.67 199.542 138.676 201.255C138.681 202.577 138.681 203.9 138.68 205.222C138.68 205.854 138.682 206.485 138.685 207.117C138.688 208.001 138.686 208.886 138.683 209.771C138.685 210.029 138.687 210.287 138.69 210.553C138.672 212.655 138.315 214.506 137.036 216.211C136.038 216.937 135.41 217.09 134.179 217.09C133.09 216.62 132.462 216.04 131.836 215.039C131.571 214.246 131.491 213.711 131.454 212.89C131.437 212.502 131.437 212.502 131.419 212.106C131.408 211.824 131.397 211.542 131.386 211.251C131.374 210.954 131.361 210.657 131.349 210.352C131.259 208.02 131.211 205.688 131.178 203.355C131.17 202.842 131.17 202.842 131.163 202.319C131.143 200.913 131.125 199.507 131.11 198.101C131.098 197.057 131.083 196.013 131.068 194.968C131.064 194.492 131.064 194.492 131.06 194.007C131.055 193.712 131.051 193.417 131.045 193.113C131.041 192.727 131.041 192.727 131.036 192.333C130.946 191.502 130.753 190.88 130.371 190.137C129.34 189.769 128.796 189.777 127.767 190.153C127.476 190.315 127.184 190.476 126.884 190.642C126.554 190.822 126.224 191.002 125.884 191.187C125.53 191.386 125.176 191.585 124.823 191.785C124.456 191.987 124.09 192.188 123.723 192.389C122.792 192.902 121.866 193.42 120.94 193.94C120.438 194.222 119.936 194.503 119.434 194.784C118.002 195.584 116.573 196.39 115.15 197.207C114.239 197.729 113.324 198.235 112.394 198.722C110.44 199.755 108.956 200.616 108.105 202.734C107.984 203.024 107.863 203.314 107.739 203.613C107.288 205.418 107.19 207.205 107.18 209.06C107.179 209.268 107.177 209.477 107.176 209.691C107.172 210.14 107.17 210.588 107.168 211.036C107.164 211.747 107.159 212.458 107.152 213.168C107.134 215.188 107.118 217.207 107.109 219.227C107.103 220.466 107.092 221.706 107.079 222.945C107.075 223.415 107.072 223.885 107.072 224.355C107.07 225.014 107.063 225.672 107.055 226.33C107.052 226.89 107.052 226.89 107.048 227.462C106.888 228.932 106.424 230.047 105.56 231.262C104.594 231.941 103.711 232.087 102.539 232.031C101.19 231.51 100.607 230.628 99.902 229.394C99.5264 228.308 99.5705 227.233 99.5675 226.092C99.5665 225.879 99.5655 225.667 99.5644 225.448C99.5623 224.987 99.5607 224.526 99.5597 224.065C99.5576 223.333 99.553 222.601 99.5476 221.869C99.5322 219.788 99.5181 217.707 99.5136 215.626C99.5106 214.352 99.502 213.078 99.4898 211.804C99.4862 211.321 99.4847 210.838 99.4853 210.354C99.4884 207.306 99.2844 204.82 97.6086 202.185C96.8191 201.412 95.9625 200.903 94.9948 200.391C94.6939 200.226 94.6939 200.226 94.387 200.059C93.6879 199.678 92.9864 199.302 92.2849 198.926C91.7224 198.621 91.1601 198.316 90.598 198.011C89.6948 197.521 88.7913 197.032 87.8872 196.544C86.1239 195.591 84.3664 194.63 82.6169 193.652C79.6887 192.017 76.7405 190.417 73.7833 188.835C73.2078 188.52 72.6376 188.196 72.0722 187.863C71.6491 187.618 71.6491 187.618 71.2174 187.367C70.9659 187.217 70.7143 187.067 70.4552 186.913C69.5895 186.566 69.1411 186.648 68.2614 186.914C67.744 188.253 67.6021 189.365 67.6007 190.797C67.5991 191.105 67.5991 191.105 67.5975 191.419C67.5954 191.861 67.5947 192.304 67.5951 192.747C67.5954 193.449 67.5916 194.151 67.5866 194.854C67.5731 196.849 67.5658 198.845 67.5639 200.841C67.5624 202.064 67.5553 203.288 67.5448 204.511C67.5419 204.975 67.5412 205.44 67.5428 205.904C67.5573 210.456 67.5573 210.456 66.2106 212.402C65.2085 213.137 64.6491 213.278 63.4091 213.299C62.185 212.921 61.5285 212.342 60.9372 211.23C60.3296 209.508 60.267 207.95 60.2729 206.133C60.2716 205.83 60.2703 205.527 60.2689 205.215C60.2652 204.202 60.2657 203.188 60.2661 202.175C60.2644 201.448 60.2624 200.721 60.2602 199.994C60.2555 198.225 60.2537 196.456 60.2534 194.687C60.2531 193.249 60.2519 191.811 60.25 190.373C60.2449 186.294 60.2422 182.215 60.2426 178.135C60.2426 177.916 60.2427 177.696 60.2427 177.47C60.2427 177.14 60.2427 177.14 60.2428 176.803C60.243 173.236 60.2374 169.67 60.2291 166.103C60.2207 162.438 60.2167 158.774 60.2172 155.109C60.2174 153.053 60.2158 150.996 60.2095 148.94C60.2036 147.006 60.2037 145.073 60.208 143.14C60.2086 142.43 60.2072 141.72 60.2037 141.011C60.1992 140.042 60.2019 139.074 60.2064 138.105C60.2034 137.824 60.2004 137.543 60.1973 137.254C60.2155 135.49 60.495 134.453 61.5231 133.008C62.9083 131.847 64.3412 131.86 65.9966 132.497Z" fill="black"/>
<path d="M237.818 132.495C238.788 133.249 239.261 133.893 239.649 135.058C239.676 135.477 239.687 135.897 239.688 136.316C239.689 136.575 239.69 136.833 239.691 137.099C239.691 137.383 239.69 137.667 239.69 137.96C239.692 138.412 239.692 138.412 239.693 138.874C239.695 139.889 239.696 140.905 239.696 141.92C239.698 142.646 239.699 143.372 239.701 144.098C239.705 146.075 239.706 148.051 239.708 150.028C239.709 151.262 239.71 152.496 239.711 153.731C239.715 157.149 239.718 160.568 239.719 163.986C239.719 164.205 239.719 164.424 239.719 164.649C239.719 164.869 239.719 165.088 239.719 165.314C239.719 165.759 239.719 166.203 239.719 166.648C239.72 166.868 239.72 167.088 239.72 167.316C239.721 170.886 239.726 174.456 239.733 178.026C239.74 181.693 239.743 185.359 239.744 189.026C239.744 191.084 239.746 193.142 239.751 195.2C239.756 197.137 239.756 199.074 239.754 201.01C239.754 201.721 239.755 202.431 239.758 203.142C239.761 204.112 239.76 205.083 239.757 206.054C239.759 206.334 239.761 206.614 239.764 206.903C239.749 208.967 239.54 210.984 238.093 212.548C237.184 213.055 236.59 213.26 235.548 213.281C234.483 212.905 233.934 212.596 233.259 211.688C232.627 210.324 232.579 209.17 232.572 207.665C232.57 207.456 232.569 207.247 232.567 207.031C232.564 206.578 232.561 206.124 232.559 205.671C232.556 204.953 232.55 204.235 232.544 203.517C232.526 201.476 232.51 199.435 232.5 197.394C232.494 196.145 232.484 194.895 232.471 193.646C232.467 193.171 232.464 192.695 232.463 192.22C232.462 191.554 232.455 190.889 232.447 190.223C232.445 189.845 232.442 189.467 232.44 189.077C232.318 188.03 232.057 187.468 231.446 186.621C229.319 186.705 227.724 187.723 225.898 188.745C225.387 189.025 224.876 189.306 224.365 189.586C223.842 189.874 223.319 190.163 222.797 190.452C221.555 191.138 220.308 191.813 219.059 192.487C218.19 192.956 217.321 193.427 216.453 193.898C215.319 194.513 214.185 195.127 213.05 195.74C211.462 196.599 209.88 197.466 208.301 198.339C208.059 198.473 207.816 198.606 207.567 198.744C206.881 199.123 206.199 199.508 205.518 199.896C205.32 200.005 205.122 200.114 204.918 200.226C202.997 201.338 201.525 202.859 200.854 205.008C200.215 207.479 200.345 210.114 200.333 212.647C200.329 213.317 200.324 213.988 200.317 214.658C200.299 216.561 200.283 218.464 200.274 220.368C200.268 221.537 200.257 222.707 200.244 223.877C200.24 224.32 200.237 224.763 200.237 225.207C200.235 225.826 200.228 226.446 200.22 227.065C200.217 227.593 200.217 227.593 200.213 228.131C200.058 229.443 199.628 230.436 198.707 231.39C197.779 231.879 197.044 231.995 195.997 232.031C194.92 231.658 194.389 231.353 193.708 230.438C193.072 229.066 193.027 227.898 193.016 226.385C193.014 226.172 193.012 225.959 193.01 225.74C193.006 225.279 193.003 224.818 193 224.357C192.995 223.625 192.988 222.893 192.981 222.162C192.96 220.081 192.942 218 192.927 215.919C192.918 214.645 192.906 213.371 192.892 212.097C192.887 211.614 192.884 211.13 192.881 210.647C192.97 205.55 192.97 205.55 191.016 200.976C189.237 199.54 187.133 198.508 185.12 197.442C182.648 196.119 180.196 194.766 177.759 193.377C175.155 191.896 175.155 191.896 172.523 190.466C172.274 190.334 172.026 190.201 171.77 190.065C170.927 189.788 170.462 189.842 169.63 190.136C168.933 191.181 168.949 191.94 168.937 193.149C168.933 193.365 168.928 193.581 168.924 193.804C168.915 194.274 168.907 194.744 168.9 195.214C168.889 195.96 168.874 196.705 168.859 197.45C168.814 199.569 168.777 201.688 168.742 203.807C168.72 205.104 168.694 206.4 168.666 207.697C168.656 208.189 168.648 208.682 168.641 209.175C168.632 209.867 168.617 210.559 168.602 211.251C168.601 211.452 168.599 211.653 168.598 211.86C168.546 213.739 168.164 215.36 166.791 216.668C165.567 217.2 164.734 217.242 163.477 216.796C162.248 215.861 161.805 215.049 161.426 213.574C161.343 212.596 161.343 211.622 161.346 210.641C161.344 210.351 161.343 210.06 161.341 209.76C161.337 208.801 161.338 207.842 161.338 206.884C161.337 206.215 161.336 205.547 161.334 204.878C161.332 203.478 161.332 202.078 161.334 200.677C161.336 198.886 161.331 197.094 161.324 195.303C161.32 193.922 161.319 192.542 161.32 191.162C161.32 190.501 161.319 189.841 161.316 189.18C161.312 188.256 161.314 187.331 161.317 186.406C161.314 186 161.314 186 161.311 185.585C161.331 183.043 161.973 181.137 163.77 179.296C164.457 178.803 164.742 178.688 165.581 178.781C166.631 179.064 167.54 179.539 168.492 180.052C168.793 180.211 168.793 180.211 169.1 180.374C169.754 180.721 170.406 181.07 171.058 181.42C171.513 181.663 171.969 181.906 172.425 182.149C174.881 183.461 177.32 184.798 179.737 186.181C182.358 187.681 185.006 189.126 187.671 190.547C188.114 190.783 188.556 191.02 188.997 191.257C193.954 193.966 193.954 193.966 199.512 194.238C200.853 193.771 202.051 193.124 203.284 192.425C203.629 192.237 203.975 192.05 204.32 191.863C205.361 191.298 206.392 190.719 207.423 190.136C207.723 189.967 208.024 189.799 208.333 189.625C209.455 188.994 210.576 188.361 211.693 187.721C213.615 186.623 215.562 185.583 217.53 184.57C220.951 182.806 224.307 180.934 227.637 179.003C227.908 178.849 228.179 178.694 228.458 178.534C228.72 178.382 228.982 178.229 229.252 178.072C229.487 177.936 229.722 177.8 229.965 177.66C231.417 176.661 231.743 175.326 232.059 173.661C232.135 173.268 232.135 173.268 232.212 172.867C232.249 172.669 232.287 172.47 232.325 172.265C228.719 174.203 225.113 176.141 221.522 178.106C218.901 179.54 216.269 180.953 213.634 182.361C211.283 183.618 208.937 184.884 206.599 186.163C204.77 187.162 202.941 188.162 201.105 189.147C200.773 189.326 200.44 189.505 200.097 189.69C199.321 190.085 198.585 190.458 197.755 190.722C197.464 190.626 197.174 190.529 196.876 190.429C197.009 190.278 197.141 190.127 197.278 189.971C198.521 188.108 198.422 186.078 198.411 183.918C198.411 183.593 198.412 183.268 198.412 182.933C198.413 182.229 198.413 181.526 198.412 180.822C198.41 179.707 198.413 178.593 198.417 177.478C198.428 174.31 198.433 171.142 198.43 167.974C198.428 166.034 198.434 164.094 198.443 162.154C198.446 161.416 198.445 160.678 198.442 159.94C198.438 158.907 198.443 157.874 198.45 156.841C198.444 156.386 198.444 156.386 198.439 155.922C198.464 153.966 198.847 152.692 200.098 151.171C201.932 149.428 204.654 148.359 206.889 147.195C208.012 146.61 209.133 146.019 210.254 145.429C210.471 145.314 210.689 145.2 210.913 145.082C213.043 143.961 215.146 142.796 217.243 141.617C221.725 139.107 226.231 136.639 230.75 134.198C231.234 133.935 231.234 133.935 231.729 133.667C232.026 133.507 232.323 133.347 232.629 133.182C232.89 133.042 233.15 132.902 233.418 132.757C234.889 132.014 236.285 131.798 237.818 132.495Z" fill="black"/>
<path d="M104.901 59.3993C105.83 59.881 106.581 60.389 107.227 61.2304C107.227 61.4237 107.227 61.6171 107.227 61.8163C106.983 61.9345 106.74 62.0527 106.49 62.1745C102.554 64.1066 98.7026 66.1984 94.8449 68.2802C94.0573 68.7048 93.269 69.128 92.4808 69.5514C88.7171 71.5771 84.983 73.6507 81.2719 75.7713C80.6624 76.1173 80.0503 76.4575 79.4357 76.7944C76.3934 78.4896 74.7226 80.1691 73.5351 83.496C73.2975 84.5065 73.2049 85.4412 73.203 86.4782C73.2017 86.7775 73.2005 87.0769 73.1992 87.3853C73.1994 87.8732 73.1994 87.8732 73.1996 88.371C73.1986 88.716 73.1976 89.0611 73.1966 89.4166C73.1943 90.3609 73.1933 91.3053 73.1932 92.2496C73.1929 92.8404 73.1923 93.4313 73.1915 94.0221C73.1888 96.0859 73.1876 98.1496 73.1879 100.213C73.188 102.133 73.185 104.053 73.1803 105.972C73.1765 107.624 73.1749 109.275 73.1751 110.926C73.1752 111.911 73.1744 112.896 73.1713 113.881C73.1684 114.98 73.1692 116.08 73.171 117.179C73.1685 117.664 73.1685 117.664 73.166 118.159C73.174 120.118 73.1903 122.037 74.2675 123.743C74.7185 124.532 74.8323 125.071 74.9817 125.958C75.4061 128.269 76.6843 129.599 78.5156 130.957C79.662 131.647 80.8438 132.263 82.0312 132.88C82.7212 133.244 83.411 133.609 84.1003 133.975C84.2734 134.066 84.4466 134.158 84.625 134.252C86.2208 135.099 87.789 135.99 89.3554 136.89C92.1626 138.494 95.0099 140.015 97.8698 141.522C98.1937 141.693 98.1937 141.693 98.5242 141.867C98.739 141.98 98.9538 142.093 99.1751 142.21C99.6014 142.435 100.028 142.659 100.454 142.884C100.661 142.993 100.868 143.102 101.082 143.215C104.79 145.172 108.459 147.199 112.122 149.241C112.452 149.425 112.782 149.609 113.123 149.799C113.453 149.983 113.784 150.167 114.124 150.357C116.695 151.787 119.285 153.179 121.882 154.561C124.225 155.809 126.546 157.087 128.851 158.404C131.349 159.831 133.877 161.186 136.435 162.502C137.997 163.307 139.538 164.139 141.063 165.012C145.275 167.413 149.13 168.314 153.994 167.372C157.052 166.385 159.854 164.634 162.642 163.065C163.945 162.335 165.258 161.625 166.571 160.913C168.367 159.935 170.159 158.952 171.949 157.963C172.211 157.818 172.211 157.818 172.478 157.67C172.837 157.472 173.195 157.273 173.554 157.075C176.794 155.283 180.043 153.511 183.305 151.76C185.556 150.552 187.801 149.332 190.042 148.106C191.471 147.325 192.902 146.55 194.338 145.78C197.394 144.143 200.439 142.493 203.448 140.771C205.896 139.373 208.376 138.051 210.883 136.761C218.853 133.253 218.853 133.253 224.78 127.313C225.032 126.533 225.032 126.533 225.11 125.574C225.332 124.288 225.793 123.573 226.465 122.461C226.759 121.561 226.796 120.734 226.799 119.791C226.801 119.488 226.802 119.185 226.804 118.874C226.804 118.543 226.805 118.213 226.805 117.872C226.806 117.523 226.808 117.174 226.809 116.814C226.813 115.856 226.815 114.898 226.816 113.941C226.817 113.341 226.818 112.742 226.82 112.142C226.824 110.263 226.827 108.384 226.828 106.505C226.829 104.342 226.834 102.179 226.843 100.016C226.849 98.3409 226.852 96.6654 226.852 94.9899C226.853 93.9911 226.854 92.9924 226.86 91.9936C226.865 90.8767 226.864 89.7599 226.862 88.6429C226.865 88.3167 226.868 87.9904 226.87 87.6542C226.852 84.2177 226.197 81.4808 223.738 79.009C222.127 77.5125 220.217 76.5736 218.28 75.5675C217.913 75.3741 217.545 75.1803 217.178 74.9862C216.432 74.5919 215.685 74.1986 214.937 73.8062C213.396 72.9955 211.864 72.1679 210.333 71.3378C210.052 71.1855 209.771 71.0332 209.481 70.8763C207.229 69.6543 204.99 68.4102 202.753 67.163C200.521 65.9198 198.289 64.6809 196.033 63.4826C195.838 63.3786 195.643 63.2747 195.442 63.1676C194.474 62.6573 193.506 62.2004 192.48 61.8163C193.595 60.2344 194.691 59.3817 196.582 58.8866C200.799 58.3751 203.869 60.4668 207.458 62.384C207.769 62.549 207.769 62.549 208.085 62.7174C210.996 64.2666 213.879 65.856 216.74 67.4956C218.699 68.6134 220.688 69.6641 222.693 70.6969C231.554 75.295 231.554 75.295 233.203 80.2734C233.778 82.6189 233.875 84.9098 233.869 87.3152C233.871 87.6829 233.872 88.0507 233.874 88.4296C233.877 89.429 233.878 90.4284 233.877 91.4279C233.877 92.2671 233.879 93.1064 233.88 93.9457C233.883 95.9288 233.883 97.9119 233.882 99.895C233.88 101.929 233.883 103.963 233.89 105.997C233.895 107.754 233.897 109.511 233.896 111.267C233.895 112.312 233.896 113.357 233.9 114.401C233.939 125.247 233.939 125.247 231.738 128.613C230.649 129.341 229.475 129.925 228.316 130.534C227.929 130.738 227.541 130.942 227.154 131.147C226.851 131.306 226.851 131.306 226.542 131.469C223.192 133.235 219.865 135.033 216.576 136.911C213.743 138.527 210.873 140.072 208.003 141.619C206.55 142.402 205.1 143.188 203.65 143.976C203.394 144.114 203.138 144.252 202.875 144.395C198.31 146.678 198.31 146.678 195.227 150.531C194.977 151.05 194.977 151.05 194.721 151.58C194.223 152.628 194.223 152.628 193.857 153.719C193.254 154.892 192.575 155.312 191.437 155.878C191.235 155.984 191.034 156.091 190.826 156.201C190.368 156.444 189.909 156.683 189.449 156.921C187.954 157.697 186.474 158.503 184.991 159.302C184.662 159.478 184.334 159.654 183.995 159.836C181.923 160.948 179.872 162.089 177.832 163.257C175.238 164.739 172.612 166.152 169.97 167.545C169.322 167.887 168.673 168.23 168.025 168.573C164.677 170.343 164.677 170.343 163.314 171.048C162.42 171.511 161.529 171.979 160.638 172.449C160.261 172.64 160.261 172.64 159.876 172.836C157.626 174.032 155.938 175.73 154.98 178.125C154.75 179.101 154.65 180.006 154.647 181.007C154.645 181.423 154.645 181.423 154.642 181.847C154.642 182.148 154.642 182.448 154.641 182.758C154.64 183.077 154.638 183.397 154.637 183.726C154.634 184.418 154.631 185.111 154.629 185.804C154.626 186.901 154.62 187.999 154.614 189.096C154.596 192.215 154.58 195.335 154.57 198.455C154.564 200.364 154.553 202.272 154.54 204.181C154.536 204.908 154.534 205.635 154.533 206.361C154.531 207.379 154.524 208.396 154.517 209.413C154.517 209.712 154.518 210.011 154.519 210.319C154.495 212.361 154.324 214.185 152.856 215.735C151.688 216.425 150.71 216.912 149.324 216.687C147.868 216.266 146.977 215.804 146.191 214.453C145.468 212.799 145.524 211.216 145.531 209.445C145.529 208.958 145.529 208.958 145.527 208.461C145.525 207.758 145.525 207.054 145.525 206.35C145.525 205.236 145.522 204.121 145.517 203.007C145.503 199.838 145.496 196.669 145.494 193.501C145.493 191.561 145.485 189.622 145.475 187.682C145.472 186.944 145.471 186.206 145.473 185.468C145.475 184.435 145.47 183.402 145.463 182.368C145.465 182.065 145.468 181.762 145.47 181.45C145.44 178.764 144.621 176.581 142.779 174.603C141.259 173.325 139.44 172.496 137.677 171.606C137.252 171.387 136.827 171.168 136.403 170.947C135.56 170.51 134.716 170.075 133.871 169.641C132.373 168.869 130.895 168.063 129.419 167.248C127.01 165.927 124.591 164.625 122.168 163.33C119.142 161.712 116.119 160.088 113.115 158.43C112.113 157.879 111.104 157.353 110.082 156.841C109.838 156.716 109.594 156.59 109.343 156.46C108.889 156.227 108.432 156 107.971 155.782C106.774 155.155 106.237 154.677 105.806 153.375C105.691 152.934 105.578 152.493 105.469 152.051C105.264 151.544 105.047 151.042 104.81 150.549C104.705 150.325 104.601 150.101 104.494 149.869C103.026 147.626 101.055 146.463 98.7121 145.257C98.0803 144.924 97.4486 144.59 96.817 144.256C96.4994 144.09 96.1818 143.924 95.8545 143.752C94.4558 143.017 93.0678 142.261 91.6809 141.504C91.4177 141.361 91.1546 141.217 90.8835 141.07C88.9637 140.022 87.062 138.944 85.1623 137.86C82.4676 136.324 79.7324 134.879 76.9749 133.459C74.9949 132.437 73.0373 131.393 71.1193 130.259C70.6176 129.964 70.1079 129.682 69.5881 129.421C68.1161 128.646 67.5888 127.825 67.028 126.266C66.3398 123.659 66.1238 121.228 66.1258 118.531C66.1238 118.148 66.1219 117.765 66.1198 117.371C66.1147 116.328 66.1133 115.286 66.1129 114.244C66.1125 113.59 66.1112 112.937 66.1097 112.283C66.1043 109.998 66.1019 107.712 66.1023 105.426C66.1027 103.305 66.0965 101.184 66.0872 99.0636C66.0796 97.2342 66.0764 95.4049 66.0768 93.5756C66.077 92.4867 66.0753 91.398 66.0691 90.3091C66.0623 89.0929 66.0651 87.8768 66.0686 86.6605C66.0653 86.3062 66.062 85.952 66.0586 85.587C66.0855 81.9099 67.0326 78.4406 69.4336 75.5859C71.5781 73.7104 74.0895 72.4039 76.604 71.1045C77.4421 70.6714 78.2772 70.2327 79.1125 69.7943C79.5257 69.5774 79.939 69.3609 80.3524 69.1446C81.8401 68.3657 83.3145 67.5658 84.7778 66.7419C87.8479 65.0194 90.946 63.3499 94.054 61.6967C94.8134 61.2887 95.5659 60.871 96.3169 60.4476C99.1625 58.8761 101.746 58.1249 104.901 59.3993Z" fill="black"/>
<path d="M110.742 66.2109C111.908 66.9535 112.4 67.5332 112.792 68.8476C112.884 69.7735 112.89 70.6963 112.896 71.6262C112.902 72.0431 112.902 72.0431 112.908 72.4683C112.919 73.3854 112.926 74.3025 112.932 75.2197C112.934 75.5332 112.937 75.8468 112.939 76.1699C112.951 77.828 112.96 79.4861 112.965 81.1443C112.972 82.8576 112.992 84.5706 113.015 86.2838C113.03 87.6013 113.035 88.9186 113.037 90.2362C113.04 90.8679 113.047 91.4996 113.058 92.1313C113.072 93.0145 113.072 93.8966 113.068 94.7799C113.075 95.0408 113.083 95.3017 113.09 95.5705C113.078 96.3047 113.044 96.8682 112.792 97.5585C112.085 98.2226 111.325 98.6207 110.449 99.0234C110.183 99.1737 109.918 99.324 109.644 99.4789C109.405 99.6065 109.165 99.7341 108.918 99.8657C108.644 100.013 108.369 100.16 108.086 100.312C107.651 100.544 107.651 100.544 107.208 100.781C104.865 102.04 102.539 103.323 100.231 104.645C96.9886 106.495 93.6909 108.237 90.388 109.976C87.9169 111.278 85.452 112.589 83.001 113.928C82.7493 114.066 82.4976 114.203 82.2382 114.345C81.1885 114.92 80.1457 115.503 79.1135 116.109C78.222 116.601 78.222 116.601 77.636 116.601C77.6086 112.56 77.588 108.518 77.5753 104.476C77.5692 102.6 77.5609 100.723 77.5476 98.8459C77.5349 97.0337 77.5279 95.2216 77.5249 93.4093C77.5227 92.7189 77.5185 92.0285 77.5121 91.3381C77.5036 90.3689 77.5025 89.4 77.503 88.4308C77.4988 88.1472 77.4946 87.8635 77.4902 87.5713C77.5024 85.5545 77.8294 83.608 79.3001 82.1187C80.9285 80.7774 82.918 79.8625 84.7826 78.8912C85.7724 78.3756 86.7588 77.8533 87.7457 77.3322C87.9392 77.2304 88.1326 77.1285 88.3319 77.0236C89.7826 76.2587 91.2211 75.4742 92.6507 74.6703C95.0858 73.3036 97.5453 71.9836 100.006 70.664C102.196 69.4877 104.376 68.2936 106.54 67.0698C108.094 66.1959 108.977 65.7521 110.742 66.2109Z" fill="black"/>
<path d="M192.827 66.6145C193.141 66.7851 193.456 66.9557 193.78 67.1314C193.954 67.2246 194.127 67.3178 194.306 67.4139C194.871 67.718 195.433 68.0265 195.995 68.3354C196.392 68.5504 196.789 68.7651 197.186 68.9797C199.744 70.3663 202.28 71.7913 204.805 73.2367C207.667 74.8667 210.58 76.3999 213.497 77.9306C215.262 78.8583 217.022 79.7953 218.761 80.7705C219.033 80.9224 219.306 81.0742 219.586 81.2307C221.14 82.3182 221.878 83.7412 222.363 85.5473C222.478 86.5793 222.474 87.5996 222.462 88.6372C222.463 89.0877 222.463 89.0877 222.463 89.5474C222.462 90.5334 222.455 91.5193 222.448 92.5053C222.447 93.1916 222.446 93.8779 222.445 94.5643C222.441 96.3656 222.433 98.1669 222.423 99.9682C222.414 101.808 222.41 103.648 222.406 105.489C222.396 109.095 222.381 112.702 222.363 116.309C222.169 116.406 221.976 116.502 221.777 116.602C221.069 116.292 221.069 116.292 220.172 115.803C219.84 115.624 219.508 115.444 219.166 115.259C218.803 115.06 218.441 114.86 218.078 114.661C217.705 114.458 217.332 114.256 216.959 114.054C216.197 113.64 215.435 113.225 214.674 112.808C213.682 112.266 212.687 111.727 211.692 111.19C208.646 109.546 205.606 107.89 202.569 106.229C201.108 105.431 199.644 104.639 198.176 103.854C188.13 98.4829 188.13 98.4829 187.206 97.559C187.174 96.6765 187.16 95.8007 187.159 94.918C187.158 94.6408 187.156 94.3635 187.155 94.0779C187.15 93.1558 187.148 92.2337 187.147 91.3117C187.145 90.6726 187.143 90.0335 187.142 89.3944C187.139 88.0519 187.137 86.7094 187.136 85.3668C187.134 83.647 187.127 81.9273 187.119 80.2076C187.114 78.8863 187.112 77.5651 187.112 76.2438C187.111 75.6099 187.108 74.976 187.104 74.3421C187.099 73.4542 187.1 72.5664 187.102 71.6785C187.099 71.4168 187.097 71.1552 187.094 70.8855C187.105 69.1569 187.39 67.9302 188.525 66.5592C189.857 65.5045 191.396 65.9961 192.827 66.6145Z" fill="black"/>
<path d="M106.055 159.668C107.125 160.017 108.111 160.37 109.096 160.915C109.337 161.048 109.578 161.18 109.827 161.317C110.087 161.462 110.347 161.606 110.615 161.755C111.033 161.986 111.033 161.986 111.46 162.221C112.07 162.558 112.68 162.895 113.289 163.233C114.283 163.783 115.278 164.332 116.273 164.88C117.511 165.562 118.749 166.245 119.987 166.929C121.505 167.768 123.024 168.605 124.545 169.439C125.328 169.868 126.112 170.298 126.895 170.729C127.269 170.934 127.643 171.138 128.017 171.343C128.537 171.627 129.057 171.913 129.577 172.198C129.872 172.36 130.168 172.522 130.473 172.689C131.17 173.097 131.812 173.494 132.423 174.023C132.423 174.217 132.423 174.41 132.423 174.609C132.22 174.718 132.016 174.827 131.807 174.939C126.626 177.718 126.626 177.718 121.478 180.558C119.45 181.691 117.409 182.799 115.367 183.904C113.906 184.698 112.473 185.517 111.054 186.383C109.837 187.099 108.946 187.559 107.52 187.5C106.578 187.004 106.396 186.764 106.055 185.742C106.029 184.909 106.019 184.082 106.022 183.249C106.022 182.994 106.022 182.74 106.022 182.478C106.022 181.636 106.025 180.794 106.027 179.953C106.027 179.369 106.028 178.786 106.028 178.203C106.029 176.667 106.032 175.131 106.035 173.595C106.038 172.028 106.04 170.461 106.041 168.894C106.044 165.818 106.049 162.743 106.055 159.668Z" fill="black"/>
<path d="M193.359 159.668C193.649 159.813 193.649 159.813 193.945 159.961C193.934 163.379 193.917 166.796 193.891 170.214C193.88 171.801 193.87 173.388 193.866 174.974C193.861 176.506 193.851 178.037 193.837 179.568C193.833 180.152 193.831 180.737 193.831 181.321C193.83 182.139 193.822 182.957 193.812 183.775C193.814 184.138 193.814 184.138 193.817 184.509C193.797 185.568 193.743 186.203 193.112 187.071C192.48 187.5 192.48 187.5 191.589 187.535C189.967 187.19 188.544 186.273 187.115 185.468C186.803 185.295 186.49 185.122 186.167 184.943C185.243 184.431 184.32 183.915 183.398 183.398C182.735 183.029 182.072 182.66 181.409 182.291C181 182.064 180.592 181.837 180.184 181.608C177.874 180.32 175.54 179.075 173.205 177.831C167.722 174.897 167.722 174.897 167.285 174.023C171.34 171.734 175.41 169.479 179.514 167.279C181.341 166.299 183.162 165.31 184.973 164.301C185.177 164.187 185.381 164.074 185.59 163.957C186.489 163.457 187.386 162.955 188.282 162.449C189.094 161.99 189.908 161.534 190.723 161.078C190.977 160.933 191.231 160.788 191.493 160.639C191.728 160.508 191.964 160.376 192.206 160.241C192.415 160.123 192.623 160.006 192.839 159.884C193.011 159.813 193.182 159.741 193.359 159.668Z" fill="black"/>
<path d="M72.0703 73.5352C72.2637 73.6318 72.457 73.7285 72.6562 73.8281C71.5928 74.7949 70.5293 75.7617 69.4336 76.7578C69.2402 76.6611 69.0469 76.5645 68.8477 76.4648C69.7712 75.1719 70.768 74.4117 72.0703 73.5352Z" fill="black"/>
<path d="M61.5234 210.938C62.2485 211.228 62.2485 211.228 62.9883 211.523C62.7949 211.91 62.6016 212.297 62.4023 212.695C62.0156 212.405 61.6289 212.115 61.2305 211.816C61.3271 211.526 61.4238 211.236 61.5234 210.938Z" fill="black"/>
<path d="M192.48 186.035C192.771 186.132 193.061 186.229 193.359 186.328C193.011 186.914 193.011 186.914 192.48 187.5C191.693 187.573 191.693 187.573 191.016 187.5C191.306 187.403 191.596 187.307 191.895 187.207C192.249 186.621 192.249 186.621 192.48 186.035Z" fill="black"/>
</svg>
