<svg width="300" height="300" viewBox="0 0 300 300" fill="none" xmlns="http://www.w3.org/2000/svg">
<path d="M171.716 67.2726C174.551 69.6183 174.551 69.6183 175.781 70.8992C175.781 71.0926 175.781 71.2859 175.781 71.4852C175.974 71.4852 176.168 71.4852 176.367 71.4852C176.842 72.0174 177.274 72.5472 177.704 73.1148C177.833 73.2858 177.963 73.4567 178.097 73.6329C181.148 77.7337 183.453 82.1863 184.808 87.1224C184.894 87.427 184.894 87.427 184.981 87.7378C186.097 92.1167 186.121 96.6798 186.111 101.168C186.112 101.744 186.113 102.319 186.114 102.895C186.117 104.442 186.116 105.989 186.114 107.536C186.112 109.165 186.114 110.794 186.114 112.423C186.116 115.157 186.114 117.89 186.111 120.624C186.108 123.773 186.109 126.921 186.112 130.07C186.115 132.787 186.115 135.503 186.114 138.22C186.113 139.837 186.113 141.453 186.115 143.07C186.117 144.591 186.115 146.111 186.112 147.632C186.111 148.186 186.111 148.74 186.113 149.294C186.122 153.737 185.97 158.166 184.68 162.452C184.604 162.708 184.529 162.964 184.451 163.228C181.522 172.747 174.753 180.542 166.04 185.249C160.932 187.909 155.656 189.083 149.908 189.057C149.533 189.056 149.158 189.054 148.772 189.053C146.139 189.02 143.745 188.841 141.211 188.087C140.857 187.987 140.503 187.887 140.138 187.785C131.001 184.988 123.166 178.529 118.585 170.143C114.869 163.041 113.92 155.971 113.922 148.054C113.921 147.475 113.92 146.895 113.919 146.316C113.917 144.75 113.916 143.184 113.916 141.618C113.915 140.638 113.915 139.657 113.914 138.677C113.911 135.251 113.91 131.824 113.91 128.398C113.911 125.214 113.907 122.029 113.903 118.845C113.899 116.103 113.897 113.361 113.898 110.619C113.898 108.985 113.897 107.351 113.894 105.717C113.891 104.179 113.891 102.641 113.893 101.103C113.893 100.542 113.893 99.9802 113.891 99.4189C113.858 88.4309 117.043 78.6206 124.788 70.6143C137.287 58.0564 157.621 56.2604 171.716 67.2726ZM142.09 67.9695C141.784 68.0658 141.479 68.1621 141.164 68.2614C133.342 71.0081 127.267 76.618 123.654 84.0561C121.853 87.9917 120.948 92.2188 120.957 96.5409C120.956 96.7848 120.955 97.0287 120.955 97.28C120.953 98.0933 120.953 98.9067 120.953 99.72C120.952 100.305 120.951 100.89 120.95 101.475C120.948 103.061 120.947 104.648 120.947 106.235C120.947 107.227 120.946 108.22 120.945 109.213C120.943 112.681 120.941 116.149 120.942 119.617C120.942 122.842 120.939 126.067 120.934 129.292C120.93 132.066 120.929 134.84 120.929 137.615C120.929 139.269 120.928 140.923 120.925 142.578C120.922 144.136 120.922 145.694 120.924 147.252C120.925 147.821 120.924 148.39 120.922 148.959C120.894 158.527 123.111 166.996 129.968 174.024C135.46 179.477 142.203 182.013 149.853 182.081C157.916 182.014 165.014 179.137 170.801 173.438C175.982 167.971 179.145 160.818 179.061 153.247C179.06 152.959 179.059 152.671 179.058 152.375C179.055 151.467 179.048 150.56 179.04 149.653C179.037 149.032 179.035 148.412 179.032 147.792C179.026 146.282 179.016 144.772 179.004 143.263C178.812 143.262 178.62 143.262 178.423 143.262C173.757 143.258 169.092 143.245 164.427 143.224C162.17 143.214 159.914 143.206 157.658 143.205C155.691 143.204 153.725 143.198 151.758 143.186C150.717 143.18 149.676 143.176 148.634 143.179C147.471 143.181 146.309 143.172 145.146 143.163C144.629 143.167 144.629 143.167 144.102 143.17C141.498 143.134 141.498 143.134 140.414 142.262C139.608 141.349 139.463 140.916 139.404 139.745C139.484 138.79 139.788 138.183 140.332 137.403C141.377 136.65 142.104 136.414 143.385 136.407C143.7 136.404 144.016 136.4 144.34 136.396C144.683 136.397 145.025 136.397 145.378 136.398C145.923 136.393 145.923 136.393 146.479 136.389C147.472 136.381 148.465 136.378 149.458 136.376C150.497 136.373 151.536 136.366 152.575 136.358C154.541 136.346 156.507 136.337 158.474 136.33C160.712 136.323 162.951 136.31 165.19 136.296C169.795 136.269 174.399 136.249 179.004 136.231C179.004 133.331 179.004 130.43 179.004 127.442C177.327 127.438 177.327 127.438 175.616 127.434C171.924 127.424 168.233 127.408 164.541 127.388C162.303 127.377 160.064 127.367 157.826 127.363C155.875 127.359 153.923 127.351 151.972 127.338C150.939 127.332 149.906 127.327 148.873 127.327C147.719 127.328 146.566 127.319 145.412 127.309C145.07 127.311 144.729 127.312 144.377 127.314C142.554 127.29 141.417 127.217 140.039 125.977C139.35 125.038 139.316 124.191 139.453 123.048C140.08 121.883 140.56 121.181 141.797 120.704C142.522 120.627 142.522 120.627 143.35 120.622C143.665 120.619 143.979 120.616 144.304 120.612C144.647 120.612 144.991 120.611 145.345 120.611C145.89 120.606 145.89 120.606 146.445 120.602C147.44 120.594 148.434 120.589 149.429 120.585C150.468 120.581 151.508 120.573 152.548 120.565C154.516 120.552 156.484 120.541 158.452 120.531C160.693 120.52 162.934 120.506 165.175 120.491C169.785 120.461 174.394 120.435 179.004 120.411C179.004 117.511 179.004 114.61 179.004 111.622C177.875 111.619 176.747 111.616 175.585 111.614C171.86 111.604 168.136 111.587 164.411 111.568C162.153 111.556 159.894 111.547 157.636 111.542C155.667 111.539 153.699 111.531 151.73 111.518C150.688 111.511 149.646 111.507 148.603 111.507C147.44 111.507 146.276 111.498 145.112 111.489C144.594 111.491 144.594 111.491 144.066 111.493C141.738 111.463 141.738 111.463 140.572 110.794C139.837 109.916 139.625 109.237 139.453 108.106C139.676 106.889 139.882 105.922 140.918 105.177C141.799 104.883 142.394 104.844 143.315 104.837C143.786 104.833 143.786 104.833 144.267 104.829C144.612 104.827 144.957 104.825 145.312 104.823C145.675 104.821 146.038 104.818 146.412 104.815C147.408 104.807 148.403 104.801 149.399 104.795C150.439 104.788 151.48 104.78 152.52 104.772C154.491 104.758 156.461 104.745 158.431 104.732C160.674 104.718 162.918 104.701 165.161 104.685C169.775 104.652 174.389 104.621 179.004 104.591C179.026 103.096 179.042 101.602 179.052 100.108C179.056 99.6018 179.062 99.0959 179.07 98.59C179.193 90.3222 177.131 83.6136 171.972 77.0516C171.743 76.7434 171.513 76.4352 171.277 76.1177C166.295 70.7804 159.222 67.2883 151.922 66.9888C148.569 66.9156 145.307 66.9361 142.09 67.9695Z" fill="black"/>
<path d="M103.418 131.836C104.272 132.378 105.009 132.967 105.469 133.887C105.501 134.467 105.515 135.049 105.52 135.63C105.524 135.998 105.528 136.365 105.532 136.743C105.534 136.941 105.535 137.138 105.537 137.341C105.541 137.965 105.548 138.588 105.556 139.211C105.576 140.984 105.594 142.756 105.609 144.529C105.751 160.543 108.432 174.197 120.25 185.866C128.748 193.815 140.343 197.528 151.848 197.25C163.975 196.756 174.678 191.5 182.954 182.711C190.992 173.96 194.313 162.075 194.328 150.408C194.329 149.745 194.334 149.082 194.34 148.419C194.356 146.539 194.365 144.658 194.372 142.778C194.377 141.618 194.386 140.457 194.397 139.296C194.401 138.858 194.402 138.419 194.402 137.98C194.402 137.37 194.408 136.76 194.414 136.149C194.416 135.803 194.417 135.457 194.419 135.101C194.571 133.855 195.044 133.095 195.905 132.202C196.883 131.673 197.826 131.473 198.926 131.543C200.248 132.191 200.923 132.868 201.563 134.179C201.675 135.113 201.675 135.113 201.677 136.18C201.679 136.473 201.679 136.473 201.681 136.773C201.685 137.419 201.683 138.064 201.68 138.71C201.68 139.166 201.681 139.621 201.682 140.076C201.684 141.034 201.682 141.991 201.678 142.948C201.673 144.155 201.675 145.362 201.681 146.57C201.699 151.673 201.662 156.689 200.684 161.719C200.618 162.057 200.553 162.396 200.485 162.745C200.311 163.547 200.115 164.334 199.897 165.124C199.822 165.401 199.747 165.678 199.67 165.963C195.894 179.415 187.147 191.175 174.919 198.075C173.571 198.803 172.195 199.463 170.801 200.097C170.503 200.234 170.503 200.234 170.199 200.373C164.872 202.78 159.685 203.691 153.809 204.492C153.809 213.773 153.809 223.054 153.809 232.617C155.843 232.628 157.878 232.639 159.974 232.65C161.262 232.659 162.551 232.668 163.839 232.678C165.884 232.694 167.93 232.709 169.975 232.718C171.624 232.726 173.273 232.738 174.922 232.753C175.551 232.758 176.18 232.761 176.809 232.763C177.69 232.766 178.571 232.774 179.452 232.783C179.713 232.783 179.973 232.782 180.241 232.782C181.627 232.803 182.574 232.877 183.692 233.789C184.458 234.978 184.776 235.896 184.571 237.304C183.832 238.754 183.14 239.347 181.641 239.941C180.777 240.062 179.925 240.061 179.054 240.055C178.797 240.056 178.54 240.058 178.275 240.06C177.416 240.064 176.556 240.062 175.697 240.06C175.08 240.061 174.463 240.063 173.846 240.066C172.171 240.071 170.496 240.071 168.821 240.069C167.422 240.068 166.024 240.07 164.625 240.072C161.325 240.076 158.026 240.075 154.726 240.072C151.322 240.069 147.919 240.073 144.516 240.08C141.593 240.087 138.671 240.089 135.748 240.087C134.003 240.086 132.257 240.087 130.512 240.092C128.871 240.096 127.229 240.095 125.588 240.09C124.986 240.089 124.384 240.09 123.782 240.093C122.959 240.097 122.137 240.093 121.314 240.088C121.077 240.091 120.84 240.094 120.596 240.097C118.961 240.075 117.665 239.71 116.309 238.769C115.576 237.77 115.43 237.223 115.43 235.986C115.791 234.724 116.23 234.099 117.188 233.203C118.808 232.599 120.272 232.536 121.973 232.55C122.243 232.55 122.513 232.55 122.792 232.55C123.661 232.551 124.53 232.555 125.399 232.56C125.938 232.561 126.477 232.561 127.016 232.562C129.007 232.565 130.999 232.573 132.99 232.58C137.443 232.592 141.897 232.605 146.485 232.617C146.388 223.336 146.291 214.054 146.192 204.492C143.678 204.105 141.165 203.719 138.575 203.32C129.955 200.986 122.679 197.411 116.087 191.324C115.521 190.805 114.943 190.313 114.35 189.825C113.218 188.856 112.273 187.77 111.329 186.621C111.208 186.474 111.087 186.328 110.962 186.176C109.016 183.803 107.285 181.383 105.762 178.711C105.659 178.535 105.556 178.359 105.449 178.178C100.435 169.594 98.3392 159.665 98.3498 149.795C98.3487 149.345 98.3474 148.896 98.346 148.446C98.3439 147.515 98.3439 146.584 98.3455 145.652C98.3472 144.461 98.3422 143.27 98.3354 142.079C98.3311 141.155 98.3308 140.231 98.3318 139.308C98.3316 138.868 98.3301 138.429 98.3271 137.989C98.3235 137.377 98.3255 136.766 98.3289 136.154C98.3287 135.807 98.3285 135.46 98.3283 135.103C98.4807 133.819 98.9371 133.047 99.9028 132.202C101.147 131.424 102.02 131.504 103.418 131.836Z" fill="black"/>
</svg>
