<svg width="300" height="300" viewBox="0 0 300 300" fill="none" xmlns="http://www.w3.org/2000/svg">
<path d="M86.718 36.3284C87.4504 36.951 87.4504 36.951 87.8898 37.7933C87.8469 39.5186 86.9682 40.5996 86.0038 41.9498C80.984 49.2546 77.9732 56.8712 78.9234 65.837C79.8048 70.4259 82.6161 74.6095 86.4348 77.2583C90.6433 80.0206 94.9511 80.9739 99.9382 80.9329C100.284 80.9311 100.63 80.9294 100.986 80.9276C105.433 80.8774 109.562 80.7547 113.287 78.0948C121.443 72.4944 130.554 68.4696 140.331 66.7972C140.68 66.7315 141.028 66.6657 141.388 66.598C152.469 64.8338 164.079 66.8515 174.316 71.1917C174.529 71.2814 174.742 71.3712 174.961 71.4636C178.481 72.972 181.728 74.9245 185.003 76.8996C186.025 77.5146 187.052 78.12 188.085 78.7173C188.538 78.9819 188.538 78.9819 189.001 79.2518C194.433 82.0638 203.236 81.479 208.904 79.7794C213.456 78.1519 217.021 75.2604 219.268 70.9743C222.005 64.9625 221.777 58.2611 219.611 52.1247C218.117 48.1336 215.927 44.6423 213.382 41.2494C212.109 39.5511 212.109 39.5511 212.109 38.3792C212.751 37.0324 212.751 37.0324 213.573 36.6214C219.121 36.005 225.854 40.5448 230.011 43.7935C234.238 47.1854 237.583 51.2288 240.234 55.9573C240.389 56.2323 240.545 56.5072 240.705 56.7905C242.529 60.2127 243.872 64.111 244.335 67.969C244.367 68.2323 244.399 68.4955 244.432 68.7667C245.587 79.7116 241.848 91.0804 234.96 99.6097C233.975 100.77 232.938 101.878 231.878 102.971C231.462 103.401 231.05 103.835 230.639 104.27C228.103 106.894 225.314 109.026 222.24 110.978C221.96 111.157 221.96 111.157 221.674 111.34C221.22 111.63 220.766 111.919 220.312 112.207C220.603 112.241 220.894 112.275 221.194 112.309C241.544 114.689 241.544 114.689 244.335 117.481C244.611 119.445 243.832 120.844 242.962 122.571C242.747 123.007 242.747 123.007 242.528 123.453C242.061 124.394 241.588 125.332 241.112 126.27C240.871 126.751 240.871 126.751 240.624 127.242C236.641 135.147 231.996 143.43 223.151 146.532C220.464 147.383 218.05 147.721 215.24 147.748C214.954 147.757 214.668 147.765 214.374 147.774C212.467 147.79 210.751 147.519 208.91 147.063C208.681 147.007 208.452 146.952 208.217 146.895C207.658 146.76 207.1 146.622 206.542 146.485C206.543 146.868 206.543 146.868 206.544 147.259C206.557 153.482 206.566 159.705 206.573 165.929C206.576 168.938 206.58 171.948 206.586 174.957C206.592 177.581 206.596 180.205 206.597 182.829C206.598 184.217 206.6 185.606 206.604 186.995C206.608 188.303 206.609 189.612 206.608 190.92C206.609 191.399 206.61 191.878 206.612 192.357C206.627 195.755 206.498 198.783 204.876 201.837C204.771 202.039 204.667 202.24 204.559 202.448C202.842 205.712 200.778 208.483 198.339 211.231C198.089 211.514 197.838 211.797 197.58 212.089C196.225 213.593 194.829 215.037 193.384 216.454C191.269 218.53 189.344 220.643 187.584 223.027C187.202 223.541 186.81 224.047 186.417 224.552C180.691 231.989 177.005 240.652 175.146 249.821C174.817 250.72 174.496 251.076 173.73 251.66C172.858 251.779 172.093 251.826 171.221 251.82C170.967 251.823 170.713 251.826 170.451 251.83C169.605 251.838 168.758 251.839 167.912 251.839C167.314 251.843 166.716 251.848 166.118 251.854C164.518 251.867 162.918 251.873 161.317 251.877C159.671 251.882 158.025 251.894 156.379 251.905C153.167 251.926 149.955 251.938 146.743 251.948C145.192 251.953 143.642 251.959 142.092 251.967C139.784 251.978 137.476 251.986 135.168 251.99C134.836 251.991 134.504 251.992 134.163 251.993C133.249 251.994 132.335 251.994 131.421 251.992C131.037 251.993 131.037 251.993 130.646 251.994C126.641 251.979 126.641 251.979 125.576 251.069C124.964 249.954 124.705 248.89 124.456 247.65C124.171 246.098 124.171 246.098 123.632 244.629C123.592 244.321 123.551 244.013 123.51 243.695C122.536 237.32 118.231 231.02 114.55 225.879C114.403 225.673 114.257 225.468 114.106 225.256C112.382 222.852 110.567 220.596 108.536 218.445C107.895 217.764 107.282 217.07 106.676 216.358C105.951 215.519 105.197 214.816 104.296 214.16C104.199 214.354 104.103 214.547 104.003 214.746C104.003 214.456 104.003 214.166 104.003 213.867C103.713 213.771 103.423 213.674 103.124 213.575C102.929 212.989 102.734 212.403 102.538 211.817C102.248 211.72 101.958 211.623 101.659 211.524C100.848 210.654 100.128 209.71 99.3944 208.774C99.0305 208.311 98.661 207.853 98.2914 207.395C92.8091 200.53 92.8091 200.53 92.7867 196.672C92.7839 196.382 92.7839 196.382 92.781 196.086C92.7753 195.44 92.7738 194.794 92.7722 194.148C92.769 193.684 92.7656 193.22 92.7619 192.756C92.7526 191.496 92.747 190.237 92.7421 188.977C92.7364 187.655 92.7277 186.334 92.7194 185.012C92.7059 182.79 92.6947 180.567 92.6848 178.345C92.6735 175.785 92.6591 173.224 92.6428 170.663C92.6272 168.194 92.6134 165.724 92.6006 163.254C92.5952 162.207 92.5892 161.159 92.5827 160.112C92.5752 158.874 92.5693 157.636 92.5647 156.397C92.5627 155.946 92.5602 155.495 92.5572 155.043C92.5389 152.273 92.6292 149.539 92.8703 146.778C92.5659 146.838 92.2615 146.898 91.9479 146.96C87.4755 147.83 87.4755 147.83 85.2531 147.95C84.8328 147.978 84.8328 147.978 84.404 148.007C78.3318 148.232 73.0552 145.735 68.5539 141.797C62.6555 136.111 59.3436 127.897 55.6633 120.703C55.4914 120.386 55.4914 120.386 55.3161 120.062C54.9671 119.286 55.0928 118.86 55.3703 118.067C56.3592 116.787 57.5186 116.477 59.0141 116.053C59.2643 115.979 59.5144 115.906 59.7721 115.831C63.713 114.72 67.7633 113.939 71.7923 113.22C72.1912 113.147 72.1912 113.147 72.5982 113.073C72.8301 113.032 73.0619 112.992 73.3008 112.95C73.4745 112.899 73.6483 112.847 73.8273 112.793C73.924 112.6 74.0207 112.407 74.1203 112.207C74.3862 112.256 74.652 112.304 74.926 112.354C76.5044 112.585 78.0956 112.524 79.6867 112.5C78.7459 111.724 77.7991 111.045 76.757 110.413C75.4345 109.583 74.1841 108.692 72.9484 107.74C72.706 107.553 72.706 107.553 72.4586 107.363C71.8374 106.879 71.2403 106.399 70.6905 105.834C70.1419 105.305 69.5843 105.276 68.8469 105.176C68.7502 104.789 68.6535 104.403 68.5539 104.004C68.0705 103.908 67.5871 103.811 67.0891 103.711C67.1857 103.325 67.2824 102.938 67.382 102.539C67.092 102.539 66.8019 102.539 66.5031 102.539C65.9625 101.77 65.629 101.089 65.3312 100.196C65.0412 100.196 64.7512 100.196 64.4523 100.196C64.2637 99.8104 64.2637 99.8104 64.0712 99.4174C63.6216 98.5326 63.1446 97.6806 62.6396 96.8265C62.4602 96.5191 62.2808 96.2116 62.096 95.8949C61.7156 95.2496 61.3304 94.6071 60.9401 93.9677C58.5564 89.9779 56.9608 85.69 55.9562 81.1526C55.9043 80.9232 55.8523 80.6938 55.7988 80.4574C55.3289 78.1837 55.2685 75.9621 55.2788 73.6453C55.2794 73.4515 55.28 73.2578 55.2807 73.0581C55.334 62.8396 59.2442 54.2687 66.2101 46.8753C66.3892 46.6774 66.5682 46.4795 66.7526 46.2756C71.0441 41.7102 80.2109 35.6312 86.718 36.3284ZM69.9272 50.9402C63.7565 57.2503 60.459 65.4627 60.5408 74.2834C60.8061 83.873 65.2885 92.4404 71.7766 99.3167C72.0943 99.6679 72.0943 99.6679 72.4186 100.026C78.4804 106.468 87.1558 110.122 95.507 112.5C95.715 112.562 95.9229 112.624 96.1372 112.688C97.3082 113.016 98.1655 113.225 99.3156 112.793C99.8658 112.017 99.8658 112.017 100.284 111.019C100.368 110.839 100.452 110.658 100.539 110.472C100.808 109.893 101.069 109.311 101.33 108.728C102.544 106.055 103.807 103.508 105.468 101.075C105.693 100.741 105.693 100.741 105.922 100.401C106.334 99.7924 106.751 99.1877 107.171 98.5843C107.447 98.1845 107.724 97.7848 108.001 97.3849C108.119 97.2137 108.238 97.0424 108.361 96.866C109.091 95.8049 109.363 95.3643 109.131 94.0713C108.835 92.838 108.417 91.6491 107.995 90.4544C107.906 90.1916 107.817 89.9287 107.725 89.6579C107.592 89.2795 107.592 89.2795 107.457 88.8934C107.338 88.5517 107.338 88.5517 107.216 88.2031C106.889 87.5048 106.698 87.1519 106.054 86.719C105.074 86.6114 105.074 86.6114 103.944 86.6641C103.734 86.6674 103.525 86.6708 103.309 86.6742C102.416 86.6885 101.524 86.7127 100.632 86.7371C92.5797 86.9376 85.5942 84.2306 79.7233 78.6624C75.1154 73.7601 73.0733 67.4973 73.1807 60.8554C73.3287 56.4779 74.4617 52.4884 75.9635 48.3969C76.1884 47.7007 76.3331 47.0087 76.4641 46.2894C74.2624 46.2894 71.4119 49.4608 69.9272 50.9402ZM223.534 46.5823C223.65 46.9731 223.766 47.3637 223.882 47.7542C224.001 48.1541 224.001 48.1541 224.123 48.5622C224.334 49.2533 224.552 49.9401 224.777 50.6267C224.841 50.8234 224.905 51.0202 224.97 51.2229C225.095 51.6066 225.221 51.9896 225.35 52.3719C227.656 59.5248 226.938 67.5158 223.536 74.1739C220.416 79.8259 215.219 83.5946 209.179 85.5472C208.64 85.7239 208.64 85.7239 208.089 85.9042C203.454 87.2315 198.433 86.9658 193.652 87.012C192.253 89.7493 192.253 89.7493 191.015 92.5601C190.888 92.8649 190.761 93.1696 190.63 93.4837C190.382 94.5338 190.487 94.8693 191.015 95.8011C191.344 96.2498 191.674 96.6976 192.019 97.1344C195.903 102.07 198.488 107.944 200.976 113.672C210.689 111.286 219.598 107.274 227.05 100.489C227.261 100.298 227.473 100.107 227.691 99.9107C233.902 94.0128 238.583 85.1213 239.114 76.502C239.294 67.7244 237.62 59.8244 231.737 53.0276C231.543 52.7795 231.349 52.5314 231.148 52.2758C229.245 49.947 226.371 47.5892 223.534 46.5823ZM124.804 77.637C124.49 77.796 124.176 77.955 123.853 78.1188C120.54 79.8501 117.227 81.8031 114.257 84.0823C114.257 84.2757 114.257 84.469 114.257 84.6683C114.088 84.7468 113.919 84.8254 113.744 84.9063C113.076 85.2592 112.507 85.6667 111.913 86.1331C112.342 88.2945 113.021 90.2434 113.85 92.2803C114.451 93.8302 114.749 95.0155 114.55 96.68C114.188 97.4492 113.858 98.0472 113.378 98.7308C113.253 98.9112 113.128 99.0916 112.999 99.2775C112.581 99.8683 112.156 100.453 111.73 101.038C100.803 116.327 98.1828 134.665 98.0733 153.039C98.0695 153.519 98.0657 153.998 98.0617 154.478C98.0282 158.806 98.0113 163.133 97.9982 167.461C97.9885 170.65 97.9709 173.838 97.9433 177.027C97.9244 179.283 97.9146 181.539 97.9113 183.795C97.9091 185.137 97.903 186.479 97.887 187.821C97.8721 189.081 97.8685 190.342 97.8733 191.602C97.8731 192.062 97.869 192.521 97.8604 192.981C97.8018 196.294 98.4953 198.324 100.487 200.977C100.704 201.281 100.921 201.585 101.145 201.899C103.728 205.492 106.689 208.681 109.836 211.78C111.439 213.368 112.888 215.001 114.257 216.797C114.641 217.298 115.026 217.798 115.411 218.299C115.57 218.511 115.73 218.723 115.895 218.942C116.282 219.47 116.282 219.47 116.894 219.727C117.171 220.212 117.447 220.698 117.715 221.188C118.074 221.792 118.474 222.325 118.908 222.876C119.587 223.761 120.14 224.657 120.666 225.641C120.811 225.91 120.957 226.179 121.106 226.456C121.356 226.922 121.604 227.389 121.844 227.86C122.841 230.051 122.841 230.051 124.661 231.393C125.337 231.391 125.911 231.329 126.562 231.153C126.909 229.89 126.796 228.812 126.562 227.545C126.522 227.332 126.483 227.119 126.443 226.899C125.064 219.863 122.093 208.846 116.142 204.129C114.234 201.788 115.43 194.883 115.453 192.049C115.5 186 115.511 179.967 115.026 173.932C115.008 173.692 114.989 173.452 114.97 173.204C114.827 171.262 114.827 171.262 114.55 169.336C114.357 169.24 114.163 169.143 113.964 169.043C114.049 168.85 114.133 168.657 114.22 168.457C114.28 167.037 113.378 166.288 112.499 165.235C112.193 164.838 112.193 164.838 111.88 164.432C111.046 163.345 111.046 163.345 110.155 162.305C109.962 162.305 109.769 162.305 109.57 162.305C109.451 161.98 109.451 161.98 109.329 161.649C109 160.878 108.631 160.29 108.141 159.613C106.284 156.844 105.805 154.101 105.355 150.851C105.301 149.776 105.301 149.776 104.882 149.414C104.857 148.859 104.853 148.303 104.858 147.747C104.861 147.401 104.864 147.054 104.866 146.697C105.14 127.544 105.14 127.544 109.199 123.073C110.058 122.297 110.743 121.751 111.913 121.582C112.203 121.679 112.493 121.776 112.792 121.875C112.903 123.874 112.502 125.515 111.932 127.423C111.348 129.395 110.908 131.248 110.741 133.301C111.022 133.332 111.302 133.363 111.591 133.395C112.651 133.512 113.712 133.632 114.772 133.753C115.227 133.805 115.682 133.856 116.137 133.906C116.799 133.979 117.461 134.054 118.123 134.131C118.34 134.156 118.558 134.181 118.782 134.206C120.559 134.424 122.251 134.814 123.976 135.297C124.843 135.452 124.843 135.452 125.455 134.787C125.627 134.587 125.799 134.386 125.976 134.18C126.73 134.169 126.73 134.169 127.441 134.473C127.886 135.07 127.886 135.07 128.265 135.828C129.919 138.749 132.533 140.108 135.373 141.729C135.571 141.842 135.769 141.955 135.973 142.072C136.445 142.339 136.919 142.6 137.395 142.859C137.987 143.262 137.987 143.262 138.189 144.068C137.738 146.2 135.91 147.393 134.179 148.535C134.462 150.489 134.921 152.347 135.497 154.23C136.369 157.127 136.859 159.86 136.889 162.891C136.893 163.212 136.893 163.212 136.897 163.54C136.89 164.638 136.841 165.475 136.23 166.407C135.65 166.407 135.07 166.407 134.472 166.407C134.069 165.243 133.722 164.075 133.403 162.886C132.82 160.721 132.188 158.576 131.487 156.446C131.377 156.107 131.377 156.107 131.266 155.761C130.862 154.528 130.862 154.528 130.077 153.516C129.209 153.488 128.363 153.491 127.496 153.516C124.127 153.566 121.165 153.155 117.992 151.996C117.207 151.665 117.207 151.665 116.601 152.051C116.697 151.761 116.794 151.471 116.894 151.172C116.604 151.075 116.314 150.979 116.015 150.879C114.302 149.005 114.069 146.225 113.64 143.83C113.466 142.857 113.287 141.886 113.089 140.918C113.046 140.707 113.003 140.495 112.959 140.277C112.816 139.68 112.816 139.68 112.206 139.16C111.156 139.112 111.156 139.112 110.155 139.16C109.225 144.177 109.147 151.249 111.62 155.86C112.222 156.637 112.862 157.34 113.544 158.048C114.747 159.299 115.822 160.649 116.894 162.012C117.092 162.264 117.29 162.515 117.495 162.774C117.677 163.018 117.859 163.262 118.047 163.513C118.207 163.726 118.367 163.938 118.531 164.157C119.494 165.985 119.629 168.129 119.77 170.162C119.788 170.403 119.806 170.643 119.824 170.891C119.862 171.399 119.898 171.906 119.934 172.414C119.987 173.166 120.043 173.917 120.1 174.668C120.214 176.21 120.315 177.753 120.409 179.297C120.434 179.692 120.434 179.692 120.458 180.095C120.652 183.389 120.715 186.658 120.638 189.956C120.625 190.625 120.612 191.293 120.599 191.961C120.579 192.978 120.555 193.995 120.52 195.012C120.373 199.345 120.358 202.094 123.339 205.371C127.979 212.254 130.405 220.559 131.722 228.67C131.761 228.911 131.801 229.151 131.842 229.399C131.938 229.983 132.033 230.568 132.128 231.153C136.587 231.159 141.046 231.165 145.505 231.168C147.576 231.169 149.646 231.171 151.716 231.175C153.713 231.178 155.709 231.18 157.706 231.18C158.469 231.181 159.232 231.182 159.995 231.184C161.061 231.186 162.127 231.186 163.192 231.186C163.511 231.187 163.829 231.188 164.157 231.189C164.446 231.189 164.736 231.188 165.034 231.188C165.286 231.188 165.538 231.188 165.798 231.189C166.424 231.192 166.424 231.192 166.991 230.86C167.236 230.076 167.236 230.076 167.423 229.119C167.499 228.76 167.575 228.402 167.653 228.032C167.731 227.654 167.809 227.276 167.889 226.886C167.967 226.516 168.046 226.146 168.127 225.764C168.597 223.532 168.597 223.532 168.913 221.275C169.042 220.313 169.042 220.313 169.628 219.434C169.664 219.228 169.701 219.023 169.738 218.811C170.075 217.26 170.812 215.832 171.587 214.453C172.03 213.442 172.089 212.605 172.117 211.51C172.265 210.938 172.265 210.938 172.861 210.567C173.051 210.496 173.241 210.425 173.437 210.352C173.34 210.159 173.243 209.965 173.144 209.766C173.24 209.669 173.337 209.573 173.437 209.473C173.437 209.183 173.437 208.893 173.437 208.594C173.609 208.569 173.782 208.544 173.96 208.518C175.7 207.936 176.743 205.578 177.556 204.053C179.745 199.562 179.111 194.166 179.031 189.306C178.987 186.492 179.089 183.699 179.259 180.89C179.272 180.674 179.285 180.457 179.298 180.234C179.385 178.749 179.484 177.265 179.589 175.782C179.604 175.563 179.62 175.345 179.635 175.12C179.728 173.805 179.829 172.492 179.94 171.179C179.974 170.776 180.006 170.372 180.037 169.968C180.27 166.978 180.804 164.944 182.738 162.635C183.044 162.264 183.044 162.264 183.355 161.885C183.666 161.513 183.666 161.513 183.984 161.133C187.613 156.757 189.605 153.073 189.589 147.274C189.589 147.05 189.589 146.826 189.59 146.596C189.59 146.126 189.589 145.657 189.588 145.188C189.587 144.466 189.588 143.745 189.59 143.024C189.59 142.567 189.589 142.11 189.589 141.653C189.59 141.328 189.59 141.328 189.591 140.997C189.676 139.994 189.676 139.994 189.257 139.16C188.574 139.148 187.89 139.148 187.206 139.16C186.562 140.515 186.414 141.866 186.217 143.335C185.927 145.32 185.607 147.081 184.57 148.828C184.406 149.137 184.243 149.445 184.075 149.762C182.131 152.126 179.35 153.129 176.366 153.516C174.817 153.602 173.267 153.636 171.715 153.61C171.424 153.612 171.133 153.613 170.833 153.614C170.573 153.61 170.312 153.606 170.044 153.601C169.255 153.762 169.255 153.762 168.692 154.574C168.153 155.585 167.849 156.477 167.577 157.589C167.53 157.777 167.482 157.964 167.433 158.158C167.283 158.752 167.137 159.347 166.991 159.943C165.809 164.781 165.809 164.781 164.648 166.407C164.043 166.736 164.043 166.736 163.476 166.7C163.008 166.377 163.008 166.377 162.597 165.821C161.918 160.872 163.385 155.738 165.056 151.149C165.159 150.864 165.261 150.579 165.366 150.285C165.46 150.032 165.555 149.779 165.652 149.519C165.837 148.757 165.836 148.373 165.527 147.657C164.951 147.343 164.364 147.052 163.769 146.778C162.806 146.157 162.386 145.821 161.974 144.745C162.011 143.848 162.011 143.848 162.605 143.138C163.589 142.285 164.581 141.72 165.728 141.12C168.615 139.541 170.966 138.091 172.426 135.031C172.851 134.473 172.851 134.473 173.559 134.317C174.316 134.473 174.316 134.473 174.883 135.088C175.083 135.271 175.282 135.455 175.487 135.645C176.32 135.554 176.32 135.554 177.245 135.187C179.885 134.334 182.589 134.132 185.339 133.873C185.858 133.824 185.858 133.824 186.388 133.774C186.701 133.746 187.013 133.718 187.335 133.689C188.081 133.637 188.081 133.637 188.671 133.301C188.389 130.681 187.874 128.24 187.112 125.722C186.474 123.58 186.474 123.58 186.62 122.461C186.814 122.268 187.007 122.075 187.206 121.875C188.361 121.897 189.059 122.028 190.008 122.699C195.023 128.602 194.955 139.447 194.53 146.778C194.428 148.02 194.295 149.257 194.146 150.495C194.112 150.782 194.077 151.069 194.042 151.364C193.35 156.534 191.033 160.277 187.889 164.336C187.36 165.021 186.841 165.711 186.327 166.407C186.203 166.57 186.079 166.733 185.95 166.901C184.846 168.538 184.829 170.458 184.661 172.376C184.627 172.716 184.593 173.056 184.558 173.407C184.153 177.577 183.951 181.742 183.925 185.931C183.914 187.307 183.889 188.682 183.867 190.058C183.849 191.253 183.835 192.447 183.831 193.642C183.79 203.565 183.79 203.565 180.761 207.422C180.298 208.173 179.869 208.939 179.443 209.711C179.26 210.035 179.26 210.035 179.073 210.365C175.733 216.415 171.984 224.057 172.265 231.153C172.722 231.193 173.18 231.221 173.638 231.244C174.021 231.27 174.021 231.27 174.411 231.296C175.555 231.087 175.923 230.578 176.659 229.688C177.182 228.901 177.653 228.089 178.124 227.271C181.993 220.764 187.207 214.872 192.653 209.634C195.928 206.467 201.091 201.135 201.307 196.308C201.308 195.953 201.309 195.598 201.31 195.232C201.311 195.035 201.312 194.837 201.313 194.633C201.315 193.968 201.316 193.303 201.316 192.638C201.317 192.161 201.319 191.685 201.32 191.208C201.324 189.908 201.326 188.609 201.327 187.309C201.328 186.491 201.329 185.674 201.331 184.856C201.335 182.283 201.338 179.711 201.339 177.138C201.34 174.198 201.345 171.258 201.354 168.319C201.36 166.031 201.363 163.744 201.363 161.456C201.364 160.099 201.365 158.741 201.371 157.384C201.392 151.615 201.275 145.886 200.856 140.131C200.838 139.875 200.819 139.62 200.8 139.356C200.018 128.83 198.159 118.363 193.087 108.983C192.754 108.363 192.431 107.739 192.108 107.114C190.61 104.268 188.883 101.733 186.879 99.2206C184.933 96.7707 184.933 96.7707 184.698 95.4898C184.907 94.0218 185.442 92.7855 186.036 91.4317C186.344 90.4755 186.328 90.0088 186.034 89.0628C186.217 89.045 186.4 89.0273 186.588 89.009C187.275 88.8259 187.275 88.8259 187.513 88.1003C187.581 87.8318 187.649 87.5633 187.719 87.2867C187.79 87.0174 187.861 86.7481 187.934 86.4707C187.984 86.2626 188.034 86.0545 188.085 85.8401C187.61 85.4967 187.134 85.1553 186.657 84.8148C186.392 84.6244 186.127 84.4341 185.854 84.238C185.212 83.7366 185.212 83.7366 184.57 83.7894C184.57 83.596 184.57 83.4026 184.57 83.2034C183.816 82.685 183.065 82.2069 182.281 81.7386C182.044 81.5959 181.807 81.4533 181.563 81.3063C164.199 70.9655 143.265 68.205 124.804 77.637ZM186.327 89.3558C186.62 89.9417 186.62 89.9417 186.62 89.9417L186.327 89.3558ZM62.1086 120.996C62.2808 122.118 62.6079 122.941 63.1706 123.924C63.4067 124.339 63.4067 124.339 63.6475 124.763C63.8164 125.055 63.9853 125.347 64.1594 125.647C64.332 125.948 64.5047 126.249 64.6826 126.559C65.0299 127.163 65.3783 127.766 65.7278 128.368C66.1403 129.079 66.5489 129.792 66.9563 130.506C69.9705 135.732 73.7218 140.022 79.6215 141.846C81.0468 142.174 82.4589 142.202 83.9164 142.2C84.196 142.2 84.4755 142.199 84.7635 142.199C86.6177 142.169 88.3724 141.979 90.1787 141.559C90.3886 141.511 90.5986 141.462 90.8149 141.413C91.4538 141.256 91.4538 141.256 92.2844 140.918C92.682 139.725 92.3456 139.247 91.8209 138.145C89.6599 134.282 86.4754 132.251 82.3234 130.957C79.7657 130.252 77.192 129.927 74.555 129.707C73.3469 129.601 72.2752 129.499 71.1906 128.907C70.8976 128.192 70.8976 128.192 70.8976 127.442C71.5119 126.466 72.4613 126.26 73.5344 125.977C79.5048 125.1 85.3246 125.617 90.4087 129.141C91.3021 129.82 92.1289 130.503 92.9069 131.312C93.4003 131.904 93.4003 131.904 94.0422 131.836C94.1389 132.03 94.2355 132.223 94.3351 132.422C94.3853 132.152 94.4355 131.882 94.4872 131.603C94.6758 130.589 94.8647 129.575 95.054 128.562C95.1354 128.125 95.2167 127.688 95.2977 127.252C95.4151 126.619 95.533 125.987 95.6512 125.355C95.6894 125.151 95.7275 124.947 95.7669 124.737C95.9718 123.652 96.1932 122.574 96.4431 121.499C96.7202 120.405 96.7202 120.405 96.6789 119.239C86.0396 116.291 72.5008 117.656 62.1086 120.996ZM203.32 119.239C203.009 120.406 203.068 121.21 203.352 122.379C203.428 122.701 203.504 123.022 203.583 123.354C203.665 123.688 203.747 124.022 203.832 124.366C203.989 125.022 204.147 125.678 204.304 126.334C204.382 126.658 204.461 126.982 204.542 127.316C204.928 128.917 205.296 130.523 205.663 132.129C205.816 132.015 205.969 131.901 206.126 131.784C206.525 131.487 206.923 131.19 207.322 130.893C207.769 130.553 208.211 130.205 208.647 129.85C213.578 125.841 218.842 125.358 224.999 125.684C226.305 125.844 227.56 126.146 228.808 126.563C228.735 127.552 228.735 127.552 228.515 128.614C227.654 129.207 226.838 129.301 225.812 129.387C225.512 129.416 225.212 129.445 224.903 129.474C224.425 129.519 224.425 129.519 223.937 129.566C221.573 129.82 219.327 130.157 217.071 130.921C216.868 130.989 216.664 131.057 216.455 131.127C212.466 132.577 209.395 135.509 207.338 139.176C207.043 139.795 207.043 139.795 207.421 140.625C208.255 140.984 208.255 140.984 209.252 141.248C209.586 141.345 209.92 141.443 210.264 141.543C215.074 142.808 220.332 142.355 224.733 139.995C231.215 135.879 234.503 127.984 237.597 121.289C236.852 120.545 236.34 120.502 235.314 120.282C234.968 120.208 234.622 120.133 234.266 120.056C233.897 119.98 233.528 119.903 233.147 119.825C232.773 119.746 232.399 119.667 232.014 119.586C229.487 119.064 226.984 118.607 224.413 118.36C224.133 118.328 223.852 118.295 223.563 118.262C216.827 117.598 209.974 118.078 203.32 119.239ZM118.066 139.746C117.947 142.345 117.968 144.567 119.549 146.723C122.344 148.804 125.258 148.752 128.612 148.535C129.177 147.971 129.045 147.076 129.089 146.32C129.081 145.119 129.075 144.393 128.4 143.389C127.722 142.775 127.046 142.278 126.269 141.797C126.076 141.675 125.884 141.553 125.685 141.428C123.318 140.106 120.748 139.614 118.066 139.746ZM172.247 143.17C171.142 144.343 171.053 145.028 171.056 146.649C171.056 146.994 171.055 147.339 171.054 147.694C170.997 148.505 170.997 148.505 171.386 148.828C174.587 148.846 177.554 148.707 180.175 146.686C181.676 144.669 181.512 142.169 181.64 139.746C178.242 139.651 174.703 140.769 172.247 143.17ZM127.148 237.012C127.2 237.186 127.253 237.36 127.308 237.539C127.712 238.877 128.108 240.218 128.487 241.563C128.562 241.83 128.637 242.097 128.714 242.372C128.869 242.923 129.023 243.473 129.177 244.024C129.288 244.42 129.288 244.42 129.402 244.823C129.469 245.06 129.535 245.298 129.604 245.543C129.737 246.091 129.737 246.091 130.077 246.387C130.578 246.416 131.08 246.424 131.582 246.424C132.071 246.425 132.071 246.425 132.57 246.427C132.931 246.426 133.292 246.426 133.664 246.425C134.231 246.426 134.231 246.426 134.809 246.426C135.848 246.428 136.888 246.427 137.927 246.426C139.014 246.426 140.1 246.426 141.187 246.427C143.014 246.427 144.84 246.427 146.667 246.425C148.778 246.424 150.889 246.424 152.999 246.426C154.811 246.427 156.622 246.427 158.433 246.426C159.516 246.426 160.598 246.426 161.68 246.427C162.888 246.428 164.096 246.427 165.304 246.425C165.662 246.426 166.021 246.426 166.39 246.427C166.72 246.426 167.049 246.425 167.389 246.424C167.674 246.424 167.96 246.424 168.254 246.424C169.033 246.387 169.748 246.268 170.507 246.094C170.556 245.914 170.604 245.734 170.654 245.549C170.88 244.717 171.105 243.886 171.331 243.054C171.407 242.772 171.484 242.489 171.563 242.197C171.639 241.916 171.716 241.635 171.794 241.345C171.898 240.963 171.898 240.963 172.004 240.573C172.235 239.755 172.476 238.94 172.721 238.126C172.8 237.863 172.879 237.599 172.961 237.327C173.021 237.127 173.081 236.926 173.144 236.719C167.233 236.712 161.322 236.707 155.412 236.704C152.668 236.702 149.923 236.7 147.179 236.697C144.788 236.694 142.397 236.692 140.006 236.691C138.739 236.691 137.472 236.69 136.205 236.688C135.014 236.686 133.823 236.685 132.632 236.686C132.193 236.686 131.755 236.685 131.317 236.684C130.721 236.683 130.124 236.683 129.528 236.684C129.194 236.684 128.859 236.683 128.515 236.683C127.741 236.666 127.741 236.666 127.148 237.012Z" fill="black"/>
<path d="M149.271 172.797C150.283 172.797 151.294 172.791 152.306 172.786C168.355 172.745 168.355 172.745 173.438 175.488C174.768 177.484 174.322 180.089 173.969 182.355C173.927 182.625 173.885 182.895 173.842 183.174C173.215 187.013 171.84 189.555 169.336 192.48C169.186 192.657 169.036 192.834 168.881 193.016C168.422 193.55 167.956 194.079 167.487 194.604C167.343 194.769 167.199 194.933 167.051 195.103C166.415 195.795 165.929 196.251 165.033 196.561C164.068 196.591 163.634 196.305 162.891 195.703C162.313 194.558 162.199 193.514 162.122 192.242C162.1 191.902 162.078 191.562 162.055 191.211C162.041 190.953 162.027 190.695 162.012 190.43C160.083 190.473 158.806 191.344 157.2 192.364C156.951 192.499 156.702 192.634 156.445 192.773C155.545 192.323 155.026 191.8 154.395 191.016C154.259 189.843 154.483 189.233 155.197 188.299C157.918 185.389 161.134 184.336 165.015 183.948C165.25 183.922 165.485 183.897 165.727 183.871C166.644 183.774 167.533 183.691 168.457 183.691C168.554 182.435 168.65 181.178 168.75 179.883C156.241 177.43 142.937 178.035 130.371 179.883C130.516 181.913 130.516 181.913 130.664 183.984C131.071 183.974 131.478 183.964 131.897 183.953C135.969 183.881 139.173 183.858 142.383 186.621C142.649 186.814 142.915 187.008 143.189 187.207C144.26 188.159 144.937 189.035 145.166 190.466C145.02 191.309 145.02 191.309 144.544 192.004C143.618 192.638 143.204 192.618 142.09 192.48C141.265 192.069 140.531 191.552 139.783 191.016C139.581 190.876 139.379 190.736 139.172 190.592C138.677 190.249 138.186 189.9 137.695 189.551C137.048 190.198 137.303 192.23 137.278 193.116C137.089 194.374 136.73 195.013 135.938 195.996C135.242 196.472 135.242 196.472 134.473 196.582C131.887 195.289 130.016 192.691 128.32 190.43C128.156 190.228 127.992 190.026 127.823 189.817C125.681 186.835 125.003 181.74 125.391 178.125C125.903 177.154 125.903 177.154 126.563 176.367C126.75 176.101 126.937 175.835 127.13 175.561C128.242 174.349 129.594 174.216 131.175 174.013C131.364 173.989 131.553 173.964 131.748 173.939C132.148 173.888 132.548 173.837 132.949 173.788C133.546 173.714 134.142 173.636 134.738 173.558C139.589 172.935 144.386 172.797 149.271 172.797Z" fill="black"/>
<path d="M127.735 199.512C128.376 199.548 128.376 199.548 129.2 199.805C129.694 200.386 130.182 200.972 130.664 201.562C133.55 202.999 137.022 201.902 140.021 201.288C146.998 199.873 153.814 199.493 160.73 201.453C163.272 202.167 165.984 202.827 168.515 201.75C169.188 201.356 169.686 201.007 170.233 200.464C171.094 199.805 171.094 199.805 171.918 199.823C172.559 200.098 172.559 200.098 172.852 200.684C173.119 203.177 172.079 204.828 170.803 206.909C170.126 208.091 169.762 209.327 169.373 210.626C168.273 214.062 166.848 215.749 163.77 217.676C163.533 217.838 163.297 218.001 163.053 218.168C160.766 219.35 157.405 218.457 154.919 218.119C151.036 217.594 147.346 217.596 143.459 218.053C142.213 218.198 141.004 218.294 139.746 218.262C139.65 218.455 139.553 218.648 139.453 218.848C136.087 218.188 133.425 217.15 131.387 214.281C130.38 212.624 129.815 211.028 129.584 209.106C129.356 207.561 128.705 206.582 127.826 205.334C126.357 203.23 126.357 203.23 126.49 201.819C126.714 200.898 127.055 200.191 127.735 199.512ZM135.059 208.008C134.927 209.887 135.094 210.876 136.231 212.402C137.994 213.704 140.05 213.391 142.114 213.133C143.532 212.975 144.932 212.946 146.358 212.949C146.744 212.949 146.744 212.949 147.137 212.949C147.677 212.948 148.217 212.949 148.757 212.95C149.578 212.952 150.399 212.95 151.22 212.948C151.747 212.948 152.275 212.949 152.803 212.949C153.045 212.949 153.288 212.948 153.537 212.948C155.021 212.953 156.441 213.075 157.91 213.281C160.543 213.541 160.543 213.541 162.946 212.64C164.087 211.5 164.327 210.683 164.514 209.13C164.558 208.76 164.603 208.39 164.649 208.008C158.587 206.217 158.587 206.217 152.344 205.371C152.059 205.356 151.773 205.34 151.479 205.324C145.999 205.175 140.231 206.212 135.059 208.008Z" fill="black"/>
<path d="M146.036 91.3789C147.382 91.9603 147.703 93.3854 148.288 94.6565C148.744 95.573 148.744 95.573 149.625 95.7734C149.956 95.787 149.956 95.787 150.293 95.8009C151.161 94.7258 151.662 93.5892 152.205 92.3276C152.637 91.6993 152.637 91.6993 153.418 91.4647C153.756 91.4358 153.756 91.4358 154.102 91.4064C154.795 92.5127 155.348 93.6467 155.896 94.8304C158.933 101.07 164.792 103.517 170.914 105.835C171.154 105.927 171.393 106.019 171.639 106.114C171.852 106.195 172.065 106.275 172.284 106.358C172.911 106.67 173.295 106.973 173.731 107.52C173.694 108.27 173.694 108.27 173.438 108.984C171.31 110.403 168.125 109.526 165.732 109.047C165.175 108.932 164.619 108.812 164.063 108.692C163.771 108.629 163.48 108.567 163.18 108.503C162.594 108.375 162.01 108.241 161.426 108.106C161.517 108.586 161.517 108.586 161.609 109.076C161.719 110.156 161.719 110.156 161.133 111.035C156.814 109.993 152.941 106.511 150.586 102.832C150.586 102.639 150.586 102.445 150.586 102.246C149.617 102.316 149.366 102.591 148.688 103.319C148.421 103.649 148.157 103.982 147.895 104.315C145.808 106.868 143.006 110.118 139.713 110.981C138.868 111.035 138.868 111.035 137.989 110.449C138.134 108.999 138.134 108.999 138.282 107.52C137.557 107.665 137.557 107.665 136.817 107.813C136.817 108.006 136.817 108.199 136.817 108.399C135.828 108.638 134.84 108.875 133.851 109.113C133.572 109.18 133.293 109.247 133.006 109.317C131.135 109.765 129.32 110.196 127.387 110.211C127.141 110.215 126.895 110.22 126.642 110.224C125.977 110.156 125.977 110.156 125.098 109.57C124.952 108.875 124.952 108.875 125.098 108.106C126.085 107.189 127.039 106.679 128.292 106.207C128.624 106.079 128.955 105.951 129.297 105.819C129.82 105.618 129.82 105.618 130.353 105.414C133.335 104.238 136.015 103.015 138.575 101.074C138.83 100.882 139.086 100.69 139.349 100.492C141.377 98.76 142.51 96.2528 143.628 93.8809C144.798 91.4259 144.798 91.4259 146.036 91.3789Z" fill="black"/>
</svg>
