<svg width="300" height="300" viewBox="0 0 300 300" fill="none" xmlns="http://www.w3.org/2000/svg">
<path d="M109.328 77.1963C109.578 77.1962 109.828 77.196 110.086 77.1958C110.375 77.1927 110.664 77.1897 110.961 77.1865C111.438 77.1904 111.438 77.1904 111.925 77.1944C112.262 77.1926 112.6 77.1908 112.947 77.1889C113.885 77.185 114.823 77.1864 115.76 77.19C116.771 77.1927 117.782 77.1886 118.793 77.1854C120.773 77.1802 122.754 77.1813 124.735 77.1847C126.344 77.1873 127.954 77.1877 129.563 77.1864C129.792 77.1862 130.021 77.1861 130.257 77.1859C130.721 77.1855 131.186 77.1851 131.651 77.1847C136.013 77.1814 140.375 77.1852 144.737 77.1915C148.481 77.1968 152.226 77.1959 155.97 77.1905C160.316 77.1842 164.661 77.1817 169.007 77.1853C169.47 77.1857 169.933 77.1861 170.396 77.1864C170.624 77.1866 170.852 77.1868 171.087 77.187C172.695 77.188 174.303 77.1863 175.911 77.1835C177.87 77.1802 179.829 77.1811 181.788 77.1874C182.788 77.1904 183.788 77.1916 184.788 77.1878C185.871 77.1846 186.953 77.1886 188.037 77.1944C188.354 77.1918 188.671 77.1892 188.998 77.1865C191.109 77.2088 191.109 77.2088 192.099 77.8781C192.708 78.8966 192.44 79.7597 192.187 80.8589C192.08 81.3244 192.08 81.3244 191.971 81.7993C191.689 82.9746 191.392 84.1455 191.093 85.3163C190.979 85.7663 190.865 86.2163 190.751 86.6663C190.442 87.8868 190.131 89.1069 189.819 90.3269C189.555 91.3617 189.292 92.3966 189.029 93.4316C186.882 101.883 184.697 110.325 182.502 118.765C180.453 126.649 178.427 134.54 176.41 142.433C176.096 143.663 175.782 144.892 175.467 146.122C175.406 146.361 175.345 146.6 175.282 146.846C174.418 150.223 173.547 153.598 172.67 156.971C172.565 157.377 172.459 157.783 172.354 158.19C171.872 160.044 171.389 161.897 170.903 163.751C170.736 164.393 170.569 165.035 170.402 165.677C170.327 165.961 170.252 166.246 170.174 166.54C169.806 167.958 169.507 169.344 169.335 170.8C169.645 170.966 169.645 170.966 169.96 171.136C174.927 173.904 179.375 177.698 182.812 182.226C183.067 182.557 183.067 182.557 183.328 182.896C189.236 190.924 191.913 200.696 191.953 210.588C191.955 210.907 191.957 211.226 191.958 211.554C191.961 212.223 191.963 212.891 191.964 213.56C191.967 214.585 191.976 215.61 191.985 216.636C191.987 217.287 191.989 217.938 191.99 218.59C191.995 219.05 191.995 219.05 192.001 219.519C192 219.803 191.999 220.087 191.998 220.379C191.999 220.628 192 220.878 192.002 221.135C191.894 221.777 191.894 221.777 191.557 222.296C190.783 222.81 190.196 222.772 189.271 222.779C188.912 222.783 188.553 222.788 188.184 222.793C187.792 222.793 187.399 222.793 187.007 222.793C186.605 222.795 186.202 222.797 185.8 222.8C184.956 222.804 184.112 222.804 183.269 222.803C182.189 222.801 181.11 222.81 180.031 222.822C179.199 222.829 178.368 222.83 177.536 222.829C177.139 222.829 176.741 222.832 176.343 222.837C172.841 222.878 172.841 222.878 171.891 221.961C171.396 221.206 170.97 220.476 170.599 219.653C170.185 218.605 170.185 218.605 169.335 217.968C166.168 217.746 163.122 219.554 160.316 220.808C153.908 223.639 147.568 223.991 140.96 221.448C139.458 220.834 137.981 220.158 136.512 219.469C134.495 218.528 132.649 217.749 130.37 217.968C129.55 218.608 129.192 219.38 128.759 220.312C127.96 222.033 127.96 222.033 127.148 222.656C126.358 222.767 126.358 222.767 125.395 222.769C125.034 222.772 124.673 222.775 124.301 222.778C123.907 222.776 123.513 222.774 123.12 222.772C122.716 222.773 122.312 222.774 121.908 222.775C121.062 222.776 120.216 222.774 119.369 222.77C118.285 222.765 117.2 222.768 116.115 222.773C115.281 222.777 114.448 222.776 113.614 222.773C113.214 222.773 112.814 222.773 112.414 222.776C111.855 222.778 111.296 222.774 110.737 222.769C110.419 222.769 110.101 222.768 109.773 222.767C108.984 222.656 108.984 222.656 108.444 222.251C105.635 218.324 107.894 206.876 108.571 202.381C108.766 201.312 109.006 200.27 109.277 199.218C109.356 198.9 109.356 198.9 109.436 198.576C110.911 192.758 113.381 187.188 117.187 182.519C117.389 182.266 117.389 182.266 117.595 182.008C120.865 177.945 125.676 172.317 130.956 171.093C130.88 170.814 130.88 170.814 130.802 170.529C129.445 165.56 128.165 160.577 126.925 155.578C126.465 153.722 126.002 151.867 125.539 150.012C125.485 149.798 125.432 149.584 125.377 149.363C124.087 144.189 122.781 139.019 121.472 133.85C121.414 133.621 121.356 133.392 121.296 133.156C119.304 125.295 117.29 117.439 115.267 109.585C115.053 108.752 114.838 107.919 114.623 107.086C114.571 106.883 114.519 106.68 114.465 106.47C113.332 102.073 112.209 97.6738 111.089 93.2734C111.006 92.9474 110.923 92.6214 110.838 92.2855C110.457 90.787 110.076 89.2883 109.697 87.7891C109.416 86.675 109.129 85.5623 108.839 84.4503C108.703 83.9223 108.567 83.3942 108.431 82.8662C108.368 82.6288 108.305 82.3914 108.24 82.1468C107.466 79.1196 107.466 79.1196 108.17 77.889C108.691 77.3432 108.691 77.3432 109.328 77.1963ZM117.187 84.9604C120.715 99.0853 120.715 99.0853 124.262 113.206C124.407 113.784 124.553 114.362 124.699 114.941C125.253 117.144 125.809 119.347 126.364 121.55C126.678 122.795 126.992 124.041 127.305 125.286C129.715 134.85 132.126 144.414 134.548 153.975C134.708 154.604 134.867 155.234 135.027 155.864C135.551 157.934 136.077 160.005 136.607 162.074C136.801 162.832 136.992 163.59 137.184 164.349C137.288 164.755 137.392 165.162 137.497 165.568C137.58 165.894 137.663 166.221 137.748 166.557C137.941 167.326 137.941 167.326 138.574 167.871C139.151 167.847 139.151 167.847 139.799 167.682C140.045 167.628 140.291 167.575 140.545 167.52C140.807 167.461 141.069 167.401 141.339 167.34C143.446 166.891 145.496 166.477 147.656 166.406C148.002 166.394 148.348 166.382 148.705 166.37C152.486 166.307 156.286 166.61 159.976 167.47C160.642 167.614 160.642 167.614 161.718 167.578C162.601 164.549 163.416 161.506 164.206 158.451C164.331 157.969 164.456 157.488 164.581 157.006C164.913 155.724 165.245 154.442 165.577 153.159C165.785 152.354 165.993 151.549 166.202 150.744C168.086 143.467 169.956 136.187 171.805 128.901C171.887 128.58 171.968 128.259 172.052 127.928C172.135 127.603 172.218 127.277 172.303 126.941C173.547 122.042 174.8 117.146 176.054 112.25C176.255 111.461 176.457 110.672 176.659 109.883C177.919 104.958 179.179 100.034 180.472 95.1171C180.557 94.7918 180.642 94.4666 180.73 94.1314C181.11 92.6888 181.491 91.2466 181.875 89.8052C182.003 89.3202 182.131 88.8352 182.259 88.3502C182.345 88.0316 182.345 88.0316 182.433 87.7066C182.686 86.7431 182.812 85.9671 182.812 84.9604C161.156 84.9604 139.499 84.9604 117.187 84.9604ZM124.672 185.331C118.289 192.693 115.631 201.939 115.704 211.56C115.705 211.896 115.706 212.232 115.708 212.578C115.711 213.398 115.716 214.218 115.722 215.039C116.906 215.124 118.089 215.176 119.274 215.222C119.609 215.246 119.944 215.271 120.288 215.296C121.285 215.325 122.087 215.315 123.046 215.039C123.693 214.341 124.056 213.695 124.443 212.829C125.132 211.454 126.375 210.908 127.781 210.428C133.282 209.001 138.825 211.509 143.591 214.086C147.033 215.813 150.806 216.019 154.449 214.829C156.238 214.174 157.96 213.375 159.685 212.569C163.517 210.778 168.019 209.164 172.264 210.407C173.665 210.972 175.101 211.676 175.831 213.047C176.247 213.823 176.616 214.42 177.245 215.039C178.467 215.365 179.617 215.29 180.871 215.203C181.198 215.191 181.526 215.18 181.863 215.167C182.669 215.136 183.472 215.093 184.277 215.039C184.484 206.501 183.611 198.535 179.296 191.015C179.194 190.836 179.092 190.657 178.986 190.473C177.438 187.817 175.607 185.568 173.437 183.398C173.202 183.163 172.967 182.928 172.725 182.686C166.213 176.516 157.406 173.764 148.56 173.951C139.33 174.303 130.863 178.51 124.672 185.331Z" fill="black"/>
</svg>
