<svg width="300" height="300" viewBox="0 0 300 300" fill="none" xmlns="http://www.w3.org/2000/svg">
<path d="M167.63 68.9447C168.491 69.7591 169.079 70.6051 169.75 71.5787C170.497 72.5348 171.101 73.1711 172.317 73.472C173.468 73.4522 174.573 73.3112 175.707 73.1316C176.148 73.0767 176.589 73.0238 177.031 72.9729C178.053 72.8531 179.073 72.7238 180.093 72.59C183.282 72.1836 186.486 71.897 189.685 71.5906C190.921 71.472 192.155 71.3492 193.389 71.2223C193.982 71.1616 194.574 71.1019 195.166 71.0427C195.899 70.9693 196.632 70.8942 197.364 70.8171C201.46 70.4149 201.46 70.4149 202.674 71.2675C203.833 72.7534 204.721 74.327 205.572 76.0064C205.723 76.3019 205.874 76.5974 206.03 76.9018C219.639 103.736 219.639 103.736 216.935 115.384C216.88 115.621 216.826 115.859 216.77 116.103C216.719 116.312 216.668 116.521 216.615 116.736C216.247 119.178 216.775 121.32 217.338 123.694C217.425 124.069 217.512 124.444 217.602 124.831C217.833 125.83 218.067 126.827 218.302 127.825C218.534 128.812 218.763 129.799 218.992 130.787C219.308 132.147 219.625 133.506 219.944 134.865C220.334 136.531 220.721 138.198 221.101 139.866C221.218 140.38 221.218 140.38 221.338 140.904C221.483 141.539 221.627 142.174 221.77 142.809C223.466 150.239 226.796 156.964 230.461 163.606C230.995 164.612 231.188 165.375 231.189 166.497C231.189 166.756 231.19 167.015 231.191 167.282C231.19 167.707 231.19 167.707 231.189 168.142C231.19 168.442 231.19 168.742 231.191 169.052C231.192 170.056 231.191 171.06 231.19 172.064C231.191 172.771 231.191 173.479 231.192 174.187C231.193 176.28 231.191 178.373 231.189 180.466C231.188 181.442 231.187 182.417 231.187 183.392C231.181 192.39 231.171 201.387 231.05 210.384C231.042 210.989 231.035 211.593 231.028 212.198C231.015 213.296 230.998 214.393 230.98 215.49C230.976 215.798 230.973 216.106 230.97 216.423C230.909 219.402 230.551 221.587 228.515 223.827C228.381 223.981 228.247 224.134 228.108 224.292C225.032 227.344 219.654 228.506 215.525 228.971C215.203 229.009 214.881 229.047 214.549 229.087C213.476 229.214 212.403 229.338 211.33 229.461C210.558 229.552 209.785 229.643 209.012 229.735C207.135 229.956 205.256 230.175 203.378 230.393C201.187 230.647 198.997 230.903 196.806 231.16C193.121 231.592 189.435 232.022 185.75 232.45C181.182 232.982 176.615 233.517 172.048 234.056C171.567 234.113 171.086 234.17 170.606 234.226C170.368 234.254 170.131 234.282 169.886 234.311C166.85 234.67 163.813 235.026 160.777 235.382C158.525 235.645 156.274 235.91 154.023 236.176C152.106 236.403 150.189 236.628 148.272 236.85C147.293 236.964 146.314 237.079 145.335 237.196C144.274 237.322 143.212 237.445 142.15 237.567C141.685 237.624 141.685 237.624 141.211 237.681C139.187 237.91 137.575 237.975 135.779 236.892C135.538 236.748 135.297 236.603 135.049 236.455C134.798 236.3 134.547 236.145 134.289 235.986C133.9 235.749 133.9 235.749 133.503 235.507C128.802 232.609 128.802 232.609 127.107 230.763C125.767 229.98 124.563 230.377 123.083 230.639C122.474 230.731 121.865 230.822 121.256 230.91C120.96 230.953 120.664 230.997 120.359 231.041C116.452 231.561 112.604 231.148 109.337 228.776C108.654 228.191 108.184 227.573 107.64 226.858C105.713 224.695 103.146 223.796 100.524 222.692C99.9945 222.463 99.4653 222.232 98.9365 222.001C97.8867 221.544 96.8355 221.09 95.7825 220.64C93.8929 219.831 92.0176 218.992 90.1419 218.151C88.3774 217.365 86.6115 216.583 84.8391 215.815C84.2999 215.581 83.7611 215.346 83.2226 215.11C82.5517 214.818 81.88 214.527 81.2071 214.239C76.7958 212.307 72.8173 209.784 70.6045 205.37C69.4632 202.429 69.101 199.593 69.0795 196.467C69.0766 196.202 69.0737 195.936 69.0708 195.663C69.0615 194.787 69.0542 193.91 69.047 193.034C69.041 192.411 69.0348 191.788 69.0286 191.166C69.0157 189.855 69.0037 188.544 68.9924 187.232C68.9783 185.594 68.9625 183.955 68.9462 182.317C68.9144 179.125 68.8876 175.934 68.8668 172.742C68.8543 170.855 68.8373 168.967 68.8172 167.08C68.8053 165.88 68.7971 164.68 68.79 163.48C68.7859 162.919 68.7803 162.357 68.7731 161.796C68.7634 161.025 68.7592 160.255 68.7564 159.484C68.7523 159.26 68.7481 159.035 68.7439 158.804C68.7462 157.409 68.9648 156.448 69.7256 155.273C70.6595 154.723 70.6595 154.723 71.4835 154.394C71.3254 151.831 70.9535 149.355 70.4672 146.836C70.3596 146.266 70.252 145.696 70.1444 145.126C69.9952 144.337 69.8444 143.549 69.6935 142.761C69.4289 141.376 69.1663 139.992 68.9045 138.607C68.7655 137.872 68.6256 137.138 68.4848 136.404C68.063 134.183 67.6844 131.991 67.5822 129.73C67.5698 129.456 67.5574 129.182 67.5446 128.9C67.4829 127.339 67.4284 125.779 67.3819 124.218C67.3663 123.726 67.3663 123.726 67.3504 123.224C67.3231 122.261 67.3051 121.299 67.2903 120.336C67.2816 120.038 67.2729 119.74 67.2639 119.433C67.2473 117.372 67.2473 117.372 67.9369 116.422C68.9949 115.724 69.6189 115.476 70.8975 115.722C71.7006 116.521 72.2837 117.457 72.8968 118.406C73.1728 118.818 73.1728 118.818 73.4544 119.238C73.843 119.821 74.2287 120.405 74.6118 120.992C75.1959 121.886 75.7881 122.774 76.3821 123.661C76.7589 124.228 77.1352 124.796 77.5111 125.364C77.6868 125.629 77.8626 125.894 78.0438 126.167C79.5652 128.5 80.3901 130.594 80.8401 133.333C80.8888 133.617 80.9375 133.901 80.9877 134.193C81.1423 135.097 81.2934 136.002 81.4444 136.907C81.5456 137.503 81.6471 138.098 81.7488 138.693C82.0414 140.41 82.3295 142.129 82.6163 143.847C82.6613 144.117 82.7064 144.387 82.7529 144.664C83.001 146.15 83.2485 147.635 83.4952 149.12C83.6885 149.024 83.8819 148.927 84.0811 148.827C84.2107 148.3 84.2107 148.3 84.2496 147.653C84.2723 147.397 84.295 147.141 84.3185 146.877C84.341 146.59 84.3635 146.304 84.3867 146.009C84.4128 145.704 84.4388 145.399 84.4657 145.085C84.5539 144.044 84.6379 143.002 84.722 141.961C84.7841 141.218 84.8465 140.475 84.909 139.732C85.2904 135.168 85.6426 130.602 85.9902 126.035C86.0566 125.164 86.1232 124.293 86.1899 123.422C86.2346 122.837 86.2793 122.253 86.3239 121.668C86.3461 121.378 86.3683 121.089 86.3911 120.79C86.5221 119.073 86.6505 117.356 86.7773 115.639C87.1573 110.506 87.5534 105.38 88.193 100.271C88.2379 99.9112 88.2828 99.551 88.3291 99.18C90.2402 84.6299 90.2402 84.6299 94.042 81.1517C95.408 80.4275 96.8705 80.3736 98.3838 80.2349C98.6722 80.2067 98.9606 80.1785 99.2577 80.1495C100.21 80.0569 101.162 79.9674 102.115 79.8779C102.778 79.814 103.441 79.7498 104.104 79.6855C105.849 79.5166 107.595 79.3502 109.34 79.1845C111.798 78.9507 114.256 78.7134 116.713 78.4765C118.022 78.3504 119.33 78.2252 120.639 78.1009C121.238 78.0436 121.838 77.9863 122.437 77.9289C122.707 77.9035 122.976 77.8781 123.254 77.8519C123.967 77.7835 124.678 77.7102 125.39 77.636C125.593 77.6185 125.797 77.6009 126.007 77.5828C126.62 77.528 126.62 77.528 127.44 77.3431C127.92 76.6587 128.217 76.1184 128.539 75.3655C131.13 70.0038 135.719 66.1006 141.21 63.8665C150.684 60.6054 159.971 62.6641 167.63 68.9447ZM135.937 74.1204C134.694 75.4267 134.694 75.4267 134.179 77.0501C139.383 76.5994 144.587 76.1436 149.791 75.6817C150.491 75.6196 151.192 75.5575 151.892 75.4956C153.664 75.339 155.437 75.1801 157.208 75.0169C157.735 74.9687 158.261 74.9214 158.788 74.8749C159.513 74.8107 160.238 74.7435 160.964 74.6754C161.174 74.6575 161.384 74.6395 161.6 74.621C162.635 74.5205 163.463 74.3788 164.355 73.8274C160.788 70.102 156.055 68.2914 150.97 68.1444C144.923 68.0699 140.227 69.6773 135.937 74.1204ZM194.362 77.0603C193.848 77.109 193.848 77.109 193.324 77.1587C192.379 77.2486 191.434 77.3391 190.49 77.43C189.478 77.5271 188.467 77.6232 187.455 77.7194C185.717 77.885 183.979 78.051 182.24 78.2175C179.503 78.4797 176.766 78.7406 174.028 79.0014C173.105 79.0893 172.182 79.1773 171.259 79.2652C171.03 79.287 170.801 79.3088 170.566 79.3313C168.938 79.4864 167.31 79.6416 165.682 79.797C158.014 80.5286 150.346 81.2547 142.677 81.9773C141.082 82.1276 139.487 82.2782 137.892 82.4288C132.339 82.9529 126.787 83.4758 121.234 83.9903C120.537 84.0548 119.84 84.1195 119.143 84.1843C118.922 84.2048 118.701 84.2253 118.474 84.2465C118.041 84.2867 117.607 84.3269 117.174 84.3672C116.16 84.4613 115.145 84.5551 114.131 84.648C113.066 84.7456 112.001 84.8443 110.936 84.9431C110.478 84.9845 110.478 84.9845 110.011 85.0268C109.734 85.0526 109.458 85.0785 109.173 85.1051C108.936 85.1268 108.699 85.1486 108.455 85.171C107.832 85.2507 107.246 85.3802 106.64 85.5462C107.023 86.6266 107.541 87.5662 108.142 88.5407C111.818 94.5177 114.429 101.018 116.967 107.537C121.676 119.99 121.676 119.99 130.956 129.199C131.604 129.423 131.604 129.423 132.128 129.492C132.219 129.25 132.309 129.008 132.403 128.759C133.007 128.027 133.007 128.027 133.556 127.94C135.115 127.973 136.579 128.141 138.103 128.465C138.324 128.51 138.545 128.555 138.773 128.601C139.47 128.743 140.166 128.888 140.862 129.034C141.334 129.13 141.806 129.227 142.278 129.323C145.898 130.063 145.898 130.063 147.069 130.37C147.069 131.144 147.069 131.917 147.069 132.714C157.212 132.513 167.344 131.544 177.41 130.334C177.724 130.296 178.038 130.259 178.361 130.22C179.253 130.113 180.145 130.003 181.037 129.892C181.427 129.844 181.427 129.844 181.825 129.796C183.451 129.589 185.025 129.282 186.62 128.906C186.717 128.229 186.814 127.552 186.913 126.855C189.301 125.94 191.724 125.179 194.179 124.468C194.792 124.29 195.405 124.108 196.018 123.926C196.412 123.811 196.807 123.696 197.201 123.582C197.554 123.479 197.906 123.376 198.269 123.27C199.128 123.067 199.808 122.95 200.683 123.046C201.214 123.632 201.214 123.632 201.562 124.218C203.543 123.65 204.927 122.528 206.542 121.288C206.85 121.065 207.158 120.841 207.476 120.611C210.04 118.161 211.975 115.016 212.149 111.411C211.729 101.321 206.288 90.0422 201.983 81.115C201.893 80.9279 201.802 80.7408 201.709 80.548C200.813 78.5151 200.813 78.5151 199.511 76.7571C197.806 76.6225 196.059 76.8959 194.362 77.0603ZM96.8802 86.9561C95.5662 89.438 94.9408 92.0584 94.4815 94.8113C94.3888 95.3659 94.3888 95.3659 94.2943 95.9316C92.822 105.034 92.3541 114.297 91.6429 123.481C90.977 132.081 90.2361 140.672 89.46 149.262C89.3775 150.177 89.295 151.092 89.2126 152.007C89.193 152.225 89.1733 152.443 89.1531 152.667C88.7941 156.658 88.4742 160.651 88.1827 164.648C89.3063 165.041 90.207 165.336 91.4053 165.234C91.8531 164.786 91.7853 164.345 91.8418 163.72C91.8667 163.452 91.8916 163.185 91.9172 162.909C91.9439 162.608 91.9706 162.307 91.9981 161.997C92.0606 161.323 92.123 160.648 92.1855 159.974C92.2191 159.605 92.2528 159.236 92.2875 158.855C92.4764 156.79 92.6698 154.725 92.8644 152.66C92.8861 152.43 92.9078 152.2 92.9301 151.963C93.3526 147.486 93.8031 143.013 94.2583 138.54C94.2936 138.193 94.3289 137.847 94.3652 137.489C94.6872 134.322 95.0096 131.155 95.3352 127.988C96.061 120.928 96.7764 113.87 97.2987 106.792C97.3145 106.579 97.3304 106.365 97.3467 106.146C97.388 105.584 97.4283 105.021 97.4684 104.459C97.5656 103.325 97.7028 102.202 97.8506 101.074C99.2266 100.619 100.161 101.185 101.413 101.767C101.644 101.871 101.874 101.975 102.111 102.081C102.847 102.414 103.581 102.751 104.314 103.088C105.049 103.422 105.785 103.755 106.52 104.088C106.978 104.295 107.435 104.503 107.892 104.713C108.737 105.099 109.566 105.467 110.448 105.761C109.803 103.695 108.995 101.755 108.086 99.7918C107.945 99.4857 107.804 99.1795 107.658 98.8641C104.741 92.092 104.741 92.092 100.194 86.4251C98.9601 86.11 97.8894 86.1651 96.8802 86.9561ZM101.952 109.277C101.415 109.814 101.52 110.675 101.45 111.401C101.431 111.594 101.412 111.788 101.392 111.987C101.329 112.64 101.267 113.294 101.205 113.947C101.16 114.414 101.115 114.881 101.069 115.348C100.946 116.621 100.824 117.894 100.702 119.168C100.574 120.503 100.445 121.839 100.316 123.175C100.071 125.713 99.8269 128.251 99.5835 130.789C99.2818 133.935 98.9785 137.08 98.6752 140.225C98.5683 141.333 98.4615 142.441 98.3547 143.549C98.3287 143.818 98.3028 144.088 98.276 144.365C98.0988 146.204 97.9219 148.044 97.7453 149.883C97.6976 150.379 97.6499 150.876 97.6022 151.372C97.5116 152.315 97.4212 153.258 97.3309 154.2C97.1515 156.07 96.9707 157.94 96.7751 159.809C96.7469 160.08 96.7187 160.351 96.6896 160.63C96.6408 161.094 96.5909 161.558 96.5395 162.022C96.3846 163.491 96.368 164.93 96.3858 166.406C97.527 166.574 98.6685 166.741 99.8101 166.906C100.388 166.99 100.966 167.076 101.544 167.161C101.91 167.214 102.275 167.267 102.651 167.321C103.155 167.395 103.155 167.395 103.67 167.47C104.479 167.565 105.24 167.622 106.054 167.577C106.653 166.978 106.472 165.751 106.518 164.924C106.533 164.675 106.548 164.425 106.563 164.168C106.613 163.329 106.661 162.49 106.708 161.651C106.743 161.056 106.778 160.461 106.813 159.867C106.889 158.593 106.963 157.318 107.037 156.044C107.211 153.037 107.388 150.03 107.566 147.023C107.606 146.344 107.646 145.664 107.686 144.985C107.961 140.338 108.246 135.693 108.546 131.048C108.564 130.781 108.581 130.515 108.599 130.24C108.761 127.731 108.925 125.222 109.091 122.713C109.151 121.807 109.21 120.901 109.269 119.995C109.309 119.387 109.35 118.779 109.391 118.171C109.515 116.275 109.599 114.399 109.569 112.499C108.52 113.379 107.499 114.259 106.548 115.246C105.761 116.015 105.761 116.015 105.175 116.015C105.098 115.842 105.021 115.669 104.942 115.491C104.593 114.707 104.243 113.924 103.893 113.14C103.772 112.868 103.651 112.596 103.527 112.316C103.41 112.054 103.293 111.793 103.172 111.523C103.011 111.162 103.011 111.162 102.847 110.793C102.527 110.095 102.527 110.095 101.952 109.277ZM70.3116 123.339C70.4083 124.306 70.5049 125.273 70.6045 126.269C71.0336 126.19 71.4626 126.112 71.9046 126.031C72.1459 125.987 72.3872 125.942 72.6359 125.897C72.9355 125.791 72.9355 125.791 73.2413 125.683C73.6254 124.854 73.6254 124.854 73.3065 124.27C73.1943 124.089 73.0822 123.909 72.9666 123.724C72.7672 123.403 72.5678 123.083 72.3624 122.753C71.1769 122.645 71.1769 122.645 70.3116 123.339ZM194.658 128.173C194.422 128.243 194.186 128.313 193.943 128.385C193.357 128.558 192.772 128.732 192.187 128.906C192.673 130.621 193.203 132.263 193.944 133.886C195.664 133.733 197.035 133.37 198.632 132.714C198.461 130.867 198.034 129.202 197.46 127.441C196.553 127.441 195.536 127.912 194.658 128.173ZM71.4835 129.784C70.8574 130.706 70.364 131.654 70.0186 132.714C70.1153 133.004 70.212 133.294 70.3116 133.593C70.795 133.496 71.2784 133.4 71.7764 133.3C72.7075 134.34 73.119 135.091 73.3546 136.464C73.4166 136.811 73.4786 137.157 73.5425 137.514C73.6063 137.894 73.67 138.274 73.7356 138.665C73.8068 139.069 73.8784 139.472 73.9505 139.876C74.0691 140.541 74.1873 141.206 74.3039 141.871C74.8171 144.796 75.3706 147.713 75.9204 150.632C76.0952 151.561 76.2692 152.49 76.443 153.419C76.5522 154.003 76.6614 154.586 76.7706 155.17C76.8442 155.564 76.8442 155.564 76.9193 155.966C77.0128 156.465 77.1073 156.963 77.2029 157.461C77.301 157.981 77.3944 158.502 77.4841 159.023C77.5316 159.287 77.579 159.551 77.6279 159.823C77.669 160.061 77.7102 160.299 77.7525 160.545C77.8904 161.211 77.8904 161.211 78.6269 161.675C79.0245 161.787 79.0245 161.787 79.4302 161.901C79.6969 161.983 79.9635 162.066 80.2382 162.151C80.4429 162.201 80.6476 162.252 80.8585 162.304C81.1468 161.39 81.1424 160.766 80.9483 159.831C80.8962 159.573 80.844 159.316 80.7903 159.05C80.7312 158.771 80.6721 158.492 80.6113 158.205C80.5513 157.911 80.4913 157.618 80.4295 157.315C80.3001 156.682 80.1696 156.05 80.0382 155.418C79.6933 153.758 79.3575 152.096 79.0205 150.434C78.9526 150.1 78.8847 149.766 78.8147 149.422C78.2361 146.572 77.6778 143.718 77.1458 140.859C77.0582 140.389 76.9697 139.919 76.8804 139.45C76.757 138.8 76.6364 138.15 76.5166 137.5C76.4493 137.139 76.382 136.778 76.3127 136.406C76.1086 134.887 75.9709 133.314 76.4639 131.835C76.6573 131.835 76.8506 131.835 77.0499 131.835C77.1465 132.029 77.2432 132.222 77.3428 132.421C78.0292 131.638 78.0292 131.638 78.2217 130.663C77.6124 130.417 77.0018 130.173 76.3907 129.931C76.0508 129.795 75.7109 129.659 75.3607 129.519C73.9276 129.034 72.811 129.08 71.4835 129.784ZM136.815 132.714C136.152 134.42 135.917 136.188 135.644 137.988C136.247 138.136 136.852 138.282 137.456 138.427C137.793 138.509 138.129 138.59 138.476 138.674C139.326 138.842 140.056 138.905 140.917 138.867C141.066 138.263 141.212 137.658 141.356 137.054C141.438 136.717 141.52 136.381 141.604 136.034C141.771 135.184 141.835 134.454 141.796 133.593C141.241 133.444 140.686 133.298 140.13 133.154C139.82 133.072 139.511 132.99 139.192 132.906C138.365 132.732 137.657 132.677 136.815 132.714ZM114.843 117.773C114.163 125.536 113.602 133.305 113.103 141.082C113.084 141.375 113.066 141.668 113.046 141.97C111.859 160.463 111.042 178.96 110.375 197.479C110.362 197.841 110.349 198.204 110.335 198.577C110.259 200.678 110.185 202.778 110.112 204.878C110.089 205.519 110.067 206.16 110.044 206.8C109.939 209.752 109.844 212.701 109.835 215.655C109.834 215.866 109.833 216.077 109.832 216.295C109.838 219.003 110.181 221.399 112.08 223.444C114.099 225.322 116.143 225.373 118.808 225.33C120.049 225.284 121.235 225.207 122.46 224.999C122.88 224.16 122.595 223.729 122.339 222.833C121.701 220.176 121.748 217.559 121.756 214.839C121.754 214.266 121.752 213.693 121.75 213.12C121.744 211.575 121.745 210.03 121.746 208.485C121.747 207.193 121.745 205.901 121.744 204.609C121.74 201.564 121.74 198.518 121.743 195.473C121.747 192.331 121.743 189.189 121.735 186.048C121.728 183.346 121.726 180.645 121.728 177.944C121.729 176.332 121.728 174.72 121.723 173.109C121.719 171.596 121.72 170.083 121.725 168.57C121.727 168.015 121.726 167.459 121.723 166.903C121.719 166.146 121.722 165.39 121.727 164.633C121.723 164.301 121.723 164.301 121.719 163.963C121.732 163.018 121.813 162.401 122.324 161.596C123.302 160.967 124.237 160.862 125.369 160.755C125.604 160.729 125.839 160.703 126.082 160.675C126.869 160.589 127.657 160.509 128.445 160.43C129.01 160.369 129.576 160.308 130.141 160.246C131.662 160.081 133.185 159.922 134.708 159.765C136.24 159.605 137.772 159.439 139.304 159.274C142.918 158.885 146.533 158.506 150.149 158.128C151.962 157.938 153.776 157.747 155.59 157.557C159.011 157.197 162.432 156.838 165.854 156.48C171.982 155.838 178.11 155.194 184.238 154.551C186.378 154.326 188.518 154.102 190.658 153.877C191.991 153.738 193.323 153.598 194.655 153.458C195.286 153.392 195.918 153.326 196.549 153.26C199.387 152.962 202.225 152.664 205.061 152.343C205.435 152.301 205.809 152.259 206.195 152.215C206.845 152.141 207.495 152.066 208.146 151.989C211.773 151.572 211.773 151.572 212.639 152.05C212.987 152.636 212.987 152.636 213.042 153.753C213.115 154.511 213.169 154.865 213.704 155.418C215.352 156.586 217.055 157.625 218.81 158.624C219.088 158.786 219.366 158.948 219.652 159.115C219.918 159.267 220.183 159.418 220.456 159.575C220.696 159.712 220.935 159.85 221.182 159.992C221.378 160.078 221.574 160.164 221.776 160.253C221.97 160.157 222.163 160.06 222.362 159.96C222.196 159.623 222.029 159.286 221.858 158.938C217.615 150.245 215.65 141.077 213.59 131.682C213.079 129.362 212.565 127.062 211.815 124.804C210.684 125.204 209.837 125.724 208.886 126.452C207.098 127.784 205.232 128.934 203.319 130.077C203.505 131.69 203.887 133.165 204.367 134.712C204.515 135.206 204.664 135.7 204.812 136.194C205.046 136.966 205.28 137.737 205.518 138.507C205.749 139.255 205.974 140.005 206.198 140.755C206.27 140.984 206.343 141.214 206.418 141.45C206.709 142.441 206.867 143.088 206.675 144.115C206.113 144.921 205.7 145.036 204.757 145.287C204.455 145.37 204.153 145.454 203.841 145.541C203.524 145.622 203.207 145.704 202.88 145.788C202.26 145.956 201.641 146.125 201.021 146.294C200.719 146.374 200.416 146.454 200.104 146.536C199.036 146.826 197.982 147.15 196.927 147.486C195.868 147.767 195.037 147.79 193.944 147.656C192.977 146.702 192.682 145.456 192.306 144.188C192.237 143.966 192.169 143.744 192.099 143.516C191.882 142.809 191.668 142.101 191.454 141.393C191.24 140.688 191.026 139.982 190.809 139.277C190.675 138.839 190.542 138.401 190.411 137.962C190.034 136.73 189.576 135.613 188.964 134.472C185.99 134.642 183.069 135.038 180.122 135.455C168.672 137.062 157.156 138.102 145.605 138.574C145.557 138.817 145.557 138.817 145.508 139.066C145.178 140.758 144.845 142.45 144.51 144.142C144.386 144.773 144.262 145.405 144.139 146.036C143.961 146.944 143.782 147.851 143.602 148.759C143.547 149.041 143.493 149.323 143.436 149.614C143.383 149.878 143.331 150.142 143.276 150.414C143.231 150.645 143.185 150.877 143.138 151.116C142.956 151.802 142.777 152.337 142.382 152.929C141.158 153.439 139.952 153.042 138.701 152.779C138.337 152.705 138.337 152.705 137.966 152.629C137.454 152.523 136.941 152.416 136.43 152.307C135.647 152.142 134.864 151.985 134.08 151.829C133.582 151.725 133.084 151.62 132.586 151.516C132.352 151.47 132.118 151.423 131.877 151.376C130.584 151.094 129.696 150.85 128.905 149.706C128.818 149.153 128.818 149.153 128.913 148.528C128.951 148.271 128.988 148.013 129.026 147.749C129.083 147.428 129.14 147.107 129.198 146.777C129.25 146.474 129.25 146.474 129.304 146.166C129.6 144.45 129.92 142.738 130.242 141.027C130.34 140.504 130.437 139.981 130.534 139.458C130.771 138.186 131.01 136.915 131.249 135.644C130.832 135.41 130.832 135.41 130.406 135.171C130.035 134.962 129.665 134.752 129.294 134.543C129.112 134.441 128.929 134.338 128.741 134.233C122.09 130.463 118.443 124.401 115.136 117.773C115.039 117.773 114.942 117.773 114.843 117.773ZM197.259 137.402C196.913 137.51 196.567 137.619 196.211 137.731C195.814 137.858 195.814 137.858 195.409 137.988C195.695 139.687 195.999 141.163 196.874 142.675C197.497 142.536 198.119 142.395 198.742 142.254C199.088 142.176 199.435 142.098 199.792 142.017C200.652 141.838 200.652 141.838 201.269 141.503C201.093 139.848 200.661 138.38 200.097 136.816C199.049 136.816 198.256 137.086 197.259 137.402ZM134.765 142.382C134.665 142.839 134.568 143.297 134.472 143.755C134.417 144.01 134.363 144.265 134.307 144.528C134.182 145.293 134.156 146.003 134.179 146.777C135.725 147.387 137.224 147.532 138.866 147.656C139.428 146.196 139.615 144.806 139.745 143.261C137.302 142.501 137.302 142.501 134.765 142.382ZM74.7061 165.82C74.667 168.426 74.6288 171.032 74.5915 173.639C74.5742 174.85 74.5566 176.062 74.5383 177.273C74.4921 180.344 74.4517 183.415 74.4205 186.486C74.4155 186.97 74.4105 187.454 74.4052 187.938C74.3899 189.382 74.3781 190.825 74.3712 192.269C74.3687 192.715 74.3652 193.162 74.3605 193.608C74.3194 197.73 74.2811 201.957 77.1403 205.219C78.4551 206.398 80.0611 207.448 81.7374 208.007C81.6773 207.777 81.6173 207.547 81.5554 207.31C81.4765 207.002 81.3975 206.695 81.3162 206.377C81.238 206.075 81.1599 205.772 81.0793 205.461C80.5875 203.302 80.5171 201.242 80.5053 199.034C80.5024 198.697 80.4995 198.359 80.4965 198.012C80.4873 196.901 80.48 195.789 80.4728 194.678C80.4668 193.906 80.4606 193.134 80.4543 192.362C80.4398 190.54 80.4266 188.718 80.4139 186.896C80.3994 184.821 80.3833 182.746 80.3671 180.67C80.3338 176.404 80.3025 172.137 80.2725 167.87C79.4551 167.527 78.6372 167.186 77.8189 166.845C77.5863 166.747 77.3536 166.649 77.1139 166.549C76.8911 166.456 76.6683 166.364 76.4387 166.268C76.2332 166.182 76.0276 166.096 75.8158 166.008C75.2929 165.787 75.2929 165.787 74.7061 165.82ZM222.139 167.756C221.64 167.815 221.64 167.815 221.131 167.875C220.773 167.918 220.416 167.961 220.047 168.005C219.675 168.05 219.303 168.094 218.92 168.139C218.132 168.233 217.345 168.327 216.557 168.421C215.559 168.541 214.562 168.66 213.564 168.778C212.6 168.892 211.636 169.007 210.672 169.122C210.144 169.185 210.144 169.185 209.605 169.249C207.94 169.449 206.28 169.664 204.622 169.911C202.528 170.212 200.432 170.429 198.327 170.628C193.896 171.059 189.475 171.564 185.053 172.089C184.257 172.183 183.46 172.276 182.664 172.37C180.587 172.614 178.51 172.86 176.433 173.105C172.934 173.519 169.435 173.931 165.936 174.343C165.335 174.414 164.734 174.485 164.133 174.556C158.372 175.234 152.608 175.893 146.841 176.52C146.589 176.547 146.336 176.575 146.075 176.603C145.614 176.654 145.153 176.704 144.691 176.753C143.52 176.881 142.375 177.051 141.21 177.245C141.21 195.228 141.21 213.21 141.21 231.738C153.706 230.302 153.706 230.302 166.202 228.865C167.892 228.67 169.582 228.476 171.272 228.281C171.484 228.257 171.696 228.232 171.914 228.207C175.32 227.815 178.726 227.424 182.132 227.033C185.636 226.63 189.139 226.227 192.642 225.824C194.607 225.598 196.571 225.372 198.536 225.147C200.39 224.934 202.244 224.721 204.098 224.507C204.773 224.429 205.449 224.351 206.125 224.274C209.393 223.9 212.66 223.514 215.923 223.085C216.311 223.036 216.311 223.036 216.706 222.986C219.399 222.623 222.554 222.067 224.64 220.203C226.018 218.374 225.656 215.28 225.626 213.122C225.623 212.767 225.621 212.412 225.618 212.046C225.612 211.286 225.605 210.525 225.597 209.764C225.585 208.603 225.577 207.441 225.571 206.279C225.559 204.012 225.543 201.746 225.526 199.479C225.517 198.351 225.509 197.224 225.501 196.096C225.486 193.976 225.47 191.855 225.455 189.735C225.437 187.314 225.419 184.894 225.401 182.473C225.365 177.508 225.329 172.543 225.292 167.577C224.224 167.57 223.201 167.63 222.139 167.756ZM85.8389 169.628C85.5783 171.419 85.4994 173.161 85.4941 174.97C85.4922 175.261 85.4902 175.552 85.4883 175.852C85.4825 176.808 85.4791 177.765 85.4761 178.722C85.4749 179.051 85.4738 179.379 85.4725 179.718C85.4664 181.459 85.4622 183.2 85.4595 184.941C85.4562 186.73 85.4462 188.519 85.4345 190.307C85.4268 191.691 85.4244 193.075 85.4234 194.459C85.4219 195.118 85.4186 195.777 85.4131 196.436C85.3722 201.691 85.7058 206.658 89.3179 210.845C91.0017 212.371 93.1695 213.225 95.2139 214.159C95.5805 214.328 95.947 214.496 96.3136 214.664C98.3541 215.599 100.398 216.527 102.445 217.446C102.795 217.603 103.144 217.76 103.503 217.922C104.197 218.28 104.197 218.28 104.589 218.261C104.78 212.633 104.971 207.005 105.162 201.377C105.25 198.764 105.339 196.15 105.428 193.537C105.505 191.26 105.583 188.982 105.66 186.705C105.7 185.499 105.741 184.293 105.782 183.087C105.821 181.951 105.86 180.816 105.898 179.681C105.912 179.264 105.926 178.848 105.94 178.431C105.96 177.862 105.979 177.293 105.998 176.724C106.009 176.405 106.02 176.087 106.031 175.759C106.052 174.984 106.058 174.212 106.054 173.437C105.737 173.393 105.42 173.349 105.094 173.303C99.2066 172.479 93.3797 171.637 87.6302 170.088C87.0347 169.928 86.4376 169.776 85.8389 169.628ZM127.148 171.093C127.12 177.493 127.099 183.893 127.087 190.293C127.081 193.264 127.073 196.236 127.059 199.208C127.047 201.799 127.04 204.39 127.037 206.981C127.036 208.352 127.032 209.724 127.024 211.095C127.016 212.387 127.013 213.68 127.015 214.972C127.015 215.445 127.012 215.917 127.008 216.39C126.973 220.236 127.44 223.187 130.202 226.045C132.674 228.391 132.674 228.391 135.644 229.98C135.746 223.122 135.824 216.264 135.871 209.405C135.894 206.22 135.925 203.036 135.975 199.851C136.019 197.075 136.047 194.299 136.057 191.522C136.063 190.052 136.076 188.583 136.108 187.114C136.138 185.728 136.147 184.345 136.141 182.959C136.142 182.453 136.151 181.946 136.167 181.44C136.299 178.78 136.299 178.78 135.223 176.442C134.191 175.49 133.044 174.764 131.828 174.07C130.874 173.509 129.986 172.856 129.088 172.21C128.198 171.478 128.198 171.478 127.148 171.093Z" fill="black"/>
</svg>
