<svg width="300" height="300" viewBox="0 0 300 300" fill="none" xmlns="http://www.w3.org/2000/svg">
<path d="M138.495 79.9313C139.237 79.9311 139.979 79.9305 140.722 79.9297C143.319 79.927 145.916 79.9258 148.513 79.926C150.922 79.9262 153.331 79.9231 155.741 79.9185C157.822 79.9147 159.903 79.9131 161.984 79.9133C163.221 79.9134 164.459 79.9125 165.696 79.9094C166.859 79.9066 168.021 79.9066 169.184 79.9087C169.608 79.909 170.031 79.9083 170.455 79.9065C177.737 79.8779 177.737 79.8779 180.469 82.3241C182.367 84.3938 182.615 86.602 182.703 89.3187C182.714 89.6042 182.726 89.8897 182.737 90.1839C182.765 90.8842 182.79 91.5845 182.813 92.285C183.38 92.2937 183.38 92.2937 183.959 92.3026C185.37 92.325 186.781 92.351 188.192 92.378C188.801 92.3892 189.41 92.3994 190.019 92.4086C190.898 92.4221 191.776 92.439 192.655 92.4567C192.925 92.4601 193.194 92.4634 193.473 92.4669C195.544 92.5137 197.663 92.6188 199.292 94.0428C199.475 94.1939 199.658 94.3449 199.846 94.5006C202.001 97.3249 201.938 100.966 202.228 104.361C202.286 105.001 202.344 105.642 202.403 106.282C202.53 107.67 202.655 109.058 202.778 110.447C203.097 114.058 203.432 117.667 203.767 121.276C203.823 121.887 203.88 122.498 203.936 123.108C204.888 133.418 205.953 143.715 207.021 154.013C207.092 154.701 207.163 155.388 207.235 156.076C207.328 156.975 207.421 157.873 207.514 158.772C207.537 158.992 207.56 159.212 207.583 159.438C207.629 159.879 207.675 160.319 207.72 160.76C209.306 176.05 209.306 176.05 209.93 182.301C209.991 182.918 210.054 183.535 210.116 184.152C210.422 187.157 210.689 190.16 210.851 193.177C210.865 193.425 210.879 193.672 210.894 193.927C211.194 200.315 208.41 206.592 204.296 211.371C200.894 215.052 196.971 217.411 192.188 218.848C191.965 218.916 191.743 218.984 191.514 219.055C188.997 219.756 186.361 219.77 183.769 219.768C183.465 219.768 183.162 219.769 182.85 219.77C181.842 219.773 180.834 219.773 179.825 219.774C179.099 219.775 178.373 219.776 177.647 219.778C175.68 219.782 173.713 219.784 171.745 219.785C170.515 219.786 169.284 219.787 168.053 219.788C164.639 219.792 161.224 219.795 157.809 219.796C157.482 219.796 157.482 219.796 157.149 219.796C156.93 219.796 156.711 219.796 156.486 219.796C156.043 219.797 155.601 219.797 155.158 219.797C154.828 219.797 154.828 219.797 154.492 219.797C150.936 219.798 147.379 219.803 143.823 219.81C140.163 219.817 136.502 219.821 132.842 219.821C130.791 219.821 128.739 219.823 126.688 219.828C124.757 219.833 122.826 219.834 120.895 219.831C120.189 219.831 119.483 219.832 118.777 219.835C110.048 219.869 103.385 218.235 96.68 212.402C96.4934 212.244 96.3069 212.086 96.1147 211.923C92.1568 208.302 89.3571 202.07 89.0189 196.773C88.7787 190.459 89.5214 184.201 90.1579 177.931C90.3211 176.315 90.4799 174.698 90.6389 173.082C90.8499 170.939 91.0612 168.796 91.274 166.653C91.9004 160.343 92.5093 154.032 93.114 147.72C93.1626 147.213 93.2112 146.706 93.2598 146.199C93.5038 143.653 93.7476 141.108 93.9914 138.562C94.7277 130.872 95.4657 123.183 96.2106 115.494C96.3446 114.111 96.4779 112.729 96.611 111.346C96.7797 109.595 96.95 107.845 97.1218 106.094C97.1825 105.473 97.2427 104.851 97.3023 104.229C97.3828 103.391 97.4652 102.554 97.5482 101.717C97.5817 101.361 97.5817 101.361 97.6159 100.997C97.8676 98.5064 98.1253 96.2212 99.9027 94.3358C102.095 92.5727 104.227 92.4927 106.924 92.5208C107.226 92.5216 107.529 92.5224 107.841 92.5233C108.802 92.5265 109.763 92.5339 110.724 92.5414C111.378 92.5443 112.032 92.547 112.686 92.5494C114.284 92.5558 115.883 92.5656 117.481 92.578C117.478 92.3918 117.475 92.2057 117.471 92.0139C117.459 91.164 117.452 90.314 117.444 89.464C117.439 89.1712 117.434 88.8784 117.429 88.5767C117.413 86.0753 117.789 84.4856 119.482 82.6079C123.977 78.2821 132.691 79.9322 138.495 79.9313ZM126.563 89.3553C126.521 94.6365 126.478 99.9176 126.435 105.359C126.416 107.019 126.397 108.68 126.378 110.39C126.371 111.894 126.371 111.894 126.367 113.397C126.364 114.061 126.357 114.724 126.346 115.388C126.273 120.292 126.493 123.684 129.877 127.46C132.834 130.175 136.459 131.002 140.38 130.999C140.61 131 140.84 131.001 141.077 131.002C141.832 131.005 142.586 131.006 143.341 131.006C143.87 131.007 144.398 131.008 144.927 131.009C146.033 131.011 147.14 131.011 148.246 131.011C149.658 131.011 151.069 131.015 152.481 131.02C153.572 131.023 154.664 131.024 155.756 131.024C156.276 131.024 156.796 131.026 157.316 131.028C162.202 131.047 166.808 130.746 170.508 127.148C172.834 124.421 173.576 121.861 173.538 118.324C173.538 118.004 173.538 117.685 173.538 117.355C173.537 116.328 173.531 115.302 173.524 114.275C173.522 113.638 173.521 113 173.521 112.363C173.516 110.01 173.504 107.657 173.493 105.304C173.475 100.041 173.456 94.7778 173.438 89.3553C157.969 89.3553 142.5 89.3553 126.563 89.3553ZM182.52 101.953C182.498 102.54 182.498 103.127 182.505 103.714C182.509 104.092 182.513 104.469 182.517 104.859C182.519 105.062 182.522 105.266 182.525 105.476C182.533 106.116 182.538 106.756 182.542 107.396C182.555 109.217 182.568 111.037 182.592 112.858C182.607 113.971 182.615 115.085 182.62 116.199C182.622 116.619 182.627 117.04 182.635 117.46C182.742 123.757 180.779 129.298 176.368 133.887C171.436 138.618 165.195 139.708 158.643 139.911C158.262 139.923 157.882 139.936 157.489 139.949C156.556 139.98 155.622 140.01 154.688 140.039C154.686 140.208 154.684 140.377 154.683 140.552C154.664 142.315 154.639 144.078 154.611 145.841C154.601 146.499 154.593 147.157 154.586 147.815C154.576 148.761 154.561 149.707 154.545 150.653C154.543 150.947 154.541 151.241 154.539 151.543C154.508 153.044 154.449 154.033 153.516 155.273C153.516 155.467 153.516 155.66 153.516 155.859C151.843 156.725 150.408 156.954 148.535 156.738C147.528 156.207 147.528 156.207 146.778 155.566C146.624 155.441 146.471 155.316 146.312 155.187C144.532 153.035 145.179 147.9 145.13 145.221C145.118 144.716 145.107 144.211 145.095 143.706C145.068 142.484 145.043 141.261 145.02 140.039C144.789 140.036 144.557 140.033 144.319 140.031C136.161 139.909 129.372 139.122 123.245 133.232C119.792 129.644 117.486 124.899 117.421 119.88C117.418 119.685 117.415 119.491 117.412 119.29C117.403 118.652 117.395 118.013 117.388 117.374C117.382 116.929 117.376 116.485 117.37 116.04C117.354 114.873 117.339 113.706 117.325 112.539C117.31 111.347 117.294 110.155 117.278 108.963C117.246 106.626 117.216 104.29 117.188 101.953C115.775 101.946 114.361 101.94 112.948 101.937C112.467 101.935 111.986 101.933 111.505 101.931C110.815 101.927 110.125 101.926 109.434 101.924C109.218 101.923 109.002 101.921 108.779 101.92C108.261 101.92 107.744 101.935 107.227 101.953C106.604 102.576 106.744 103.9 106.665 104.763C106.627 105.165 106.627 105.165 106.588 105.575C106.502 106.481 106.418 107.388 106.334 108.295C106.273 108.945 106.212 109.595 106.15 110.245C106.017 111.655 105.884 113.065 105.752 114.475C105.412 118.103 105.068 121.731 104.723 125.359C104.665 125.964 104.608 126.57 104.55 127.176C103.949 133.503 103.331 139.828 102.702 146.152C102.681 146.363 102.66 146.574 102.638 146.792C102.246 150.734 101.853 154.676 101.457 158.618C100.969 163.485 100.485 168.353 100.01 173.222C99.9376 173.959 99.8654 174.695 99.793 175.431C99.5767 177.63 99.364 179.829 99.1564 182.029C99.0924 182.703 99.0273 183.376 98.961 184.049C98.6261 187.458 98.3806 190.845 98.3613 194.272C98.3585 194.561 98.3558 194.85 98.353 195.148C98.3642 197.458 98.7569 199.232 99.9027 201.269C100.136 201.695 100.136 201.695 100.374 202.13C102.739 206.122 106.228 208.682 110.701 209.916C112.46 210.346 114.117 210.435 115.923 210.428C116.228 210.429 116.533 210.43 116.847 210.431C117.863 210.434 118.879 210.433 119.895 210.432C120.625 210.433 121.356 210.435 122.087 210.436C123.862 210.44 125.638 210.441 127.414 210.44C128.858 210.439 130.302 210.44 131.746 210.441C132.055 210.441 132.055 210.441 132.37 210.442C132.789 210.442 133.207 210.442 133.626 210.443C137.546 210.446 141.467 210.445 145.387 210.444C148.968 210.442 152.549 210.445 156.13 210.451C159.813 210.457 163.495 210.459 167.178 210.458C169.243 210.457 171.309 210.458 173.374 210.462C175.317 210.466 177.259 210.465 179.202 210.462C179.913 210.461 180.625 210.462 181.336 210.464C187.316 210.483 192.28 210.094 196.822 205.727C197.138 205.406 197.138 205.406 197.461 205.078C197.719 204.825 197.719 204.825 197.982 204.566C200.415 201.984 201.645 198.091 201.548 194.593C201.525 194.067 201.499 193.54 201.471 193.014C201.457 192.73 201.443 192.447 201.428 192.154C201.275 189.31 200.997 186.484 200.691 183.652C200.631 183.084 200.571 182.516 200.511 181.948C200.382 180.721 200.252 179.495 200.121 178.269C199.796 175.217 199.477 172.164 199.157 169.112C199.04 167.996 198.923 166.88 198.806 165.764C197.83 156.46 196.884 147.152 195.94 137.845C195.772 136.194 195.604 134.543 195.436 132.892C195.161 130.201 194.888 127.509 194.615 124.817C194.593 124.604 194.572 124.391 194.55 124.171C193.924 117.991 193.331 111.809 192.818 105.619C192.786 105.241 192.786 105.241 192.753 104.856C192.714 104.395 192.676 103.933 192.64 103.471C192.634 102.48 192.634 102.48 192.188 101.66C191.495 101.63 190.811 101.619 190.119 101.621C189.912 101.621 189.705 101.621 189.492 101.62C189.053 101.62 188.615 101.621 188.176 101.622C187.503 101.623 186.83 101.622 186.157 101.62C185.732 101.62 185.307 101.621 184.882 101.621C184.679 101.621 184.477 101.62 184.268 101.619C183.312 101.542 183.312 101.542 182.52 101.953Z" fill="black"/>
</svg>
