<svg width="300" height="300" viewBox="0 0 300 300" fill="none" xmlns="http://www.w3.org/2000/svg">
<g clip-path="url(#clip0_67_4128)">
<path d="M140.686 -0.0988431C141.429 -0.100732 142.172 -0.102703 142.914 -0.104753C144.467 -0.108245 146.019 -0.109374 147.572 -0.109C149.148 -0.108688 150.725 -0.112786 152.301 -0.121016C154.225 -0.130909 156.149 -0.134809 158.073 -0.134424C158.797 -0.135104 159.521 -0.137633 160.244 -0.142236C173.833 -0.220535 187.587 3.18203 198.633 11.4254C198.933 11.6463 199.233 11.8672 199.542 12.0948C204.824 16.0423 209.874 20.5121 213.867 25.7808C214.09 26.0675 214.09 26.0675 214.318 26.36C217.058 29.8922 219.395 33.5485 221.485 37.4996C221.603 37.7212 221.722 37.9428 221.845 38.1712C224.716 43.6003 226.702 49.652 227.93 55.6636C227.984 55.9248 228.037 56.186 228.093 56.4551C229.072 61.7403 229.188 67.1148 229.178 72.4728C229.179 73.1384 229.18 73.8039 229.181 74.4695C229.184 76.2796 229.184 78.0897 229.183 79.8998C229.182 81.6575 229.184 83.4152 229.186 85.1729C229.19 89.2067 229.191 93.2405 229.19 97.2742C229.19 100.391 229.19 103.508 229.192 106.625C229.192 107.075 229.192 107.524 229.192 107.973C229.192 108.65 229.193 109.327 229.193 110.005C229.195 116.293 229.197 122.582 229.195 128.871C229.195 129.107 229.195 129.344 229.195 129.588C229.195 130.787 229.195 131.986 229.194 133.185C229.194 133.423 229.194 133.661 229.194 133.907C229.194 134.388 229.194 134.87 229.194 135.351C229.192 142.84 229.195 150.328 229.2 157.817C229.206 166.249 229.209 174.68 229.208 183.112C229.208 184.013 229.208 184.914 229.208 185.814C229.208 186.036 229.208 186.258 229.208 186.486C229.207 189.819 229.209 193.152 229.213 196.485C229.216 200.28 229.217 204.075 229.213 207.87C229.211 209.803 229.211 211.736 229.214 213.669C229.249 234.312 226.089 252.901 212.988 269.531C212.65 269.964 212.65 269.964 212.304 270.405C199.101 286.897 179.343 297.129 158.496 299.707C158.282 299.734 158.068 299.762 157.848 299.791C138.252 302.075 117.581 295.66 101.953 283.886C101.776 283.754 101.598 283.622 101.415 283.486C98.5803 281.37 95.9995 279.018 93.4572 276.562C93.2275 276.342 93.2275 276.342 92.9933 276.118C91.0328 274.234 89.2646 272.263 87.5978 270.117C87.4026 269.87 87.4026 269.87 87.2034 269.617C80.4456 261.037 75.5682 251.2 73.0043 240.582C72.882 240.083 72.882 240.083 72.7572 239.573C71.415 233.686 71.06 227.73 71.0799 221.711C71.0789 221.029 71.0775 220.347 71.0758 219.665C71.0722 217.814 71.0739 215.963 71.0767 214.112C71.0785 212.314 71.0761 210.515 71.0739 208.717C71.0693 204.817 71.0697 200.918 71.0722 197.018C71.0744 193.605 71.075 190.193 71.0739 186.78C71.0739 186.553 71.0738 186.326 71.0737 186.092C71.0735 185.17 71.0732 184.247 71.0729 183.325C71.0702 174.689 71.0726 166.053 71.0774 157.417C71.0815 149.759 71.0812 142.101 71.077 134.443C71.0723 125.821 71.0704 117.199 71.0731 108.578C71.0734 107.657 71.0737 106.737 71.0739 105.816C71.074 105.59 71.0741 105.363 71.0742 105.129C71.0751 101.72 71.074 98.311 71.0718 94.9018C71.0692 91.0225 71.0699 87.1433 71.0746 83.264C71.077 81.2872 71.0779 79.3106 71.075 77.3338C71.0723 75.5202 71.0738 73.7066 71.0784 71.893C71.0794 71.2411 71.079 70.5892 71.0768 69.9373C71.0279 53.8874 76.2145 38.2509 86.4259 25.7808C86.5601 25.6169 86.6943 25.453 86.8325 25.2842C88.2475 23.5633 89.6801 21.8801 91.2874 20.3334C91.7491 19.889 91.7491 19.889 92.267 19.189C93.1411 18.1295 94.1666 17.2892 95.215 16.4058C95.6059 16.0693 95.6059 16.0693 96.0046 15.726C104.283 8.68412 114.176 3.49224 124.841 1.24469C125.117 1.18651 125.392 1.12833 125.676 1.06838C130.7 0.0622341 135.576 -0.0957598 140.686 -0.0988431ZM97.6617 28.2402C96.1293 29.8596 94.7817 31.6076 93.4572 33.398C93.3319 33.5641 93.2066 33.7302 93.0775 33.9013C87.7929 40.914 84.1062 49.0347 82.3793 57.6412C82.3222 57.9192 82.2651 58.1971 82.2062 58.4835C80.8271 65.9162 81.0723 73.5431 81.0931 81.0667C81.0968 82.6401 81.0971 84.2134 81.0978 85.7868C81.0996 88.754 81.1044 91.7212 81.1103 94.6885C81.1169 98.0717 81.1201 101.455 81.123 104.838C81.1291 111.787 81.1394 118.735 81.1525 125.683C81.3703 125.69 81.5881 125.697 81.8125 125.705C82.8106 125.738 83.8086 125.774 84.8066 125.809C85.3205 125.826 85.3205 125.826 85.8447 125.843C94.6433 126.162 102.599 129.676 108.779 135.977C117.091 145.074 117.003 156.573 116.952 168.194C116.949 169.104 116.949 170.014 116.949 170.924C116.949 175.089 116.928 179.252 116.776 183.415C116.761 183.84 116.761 183.84 116.747 184.273C116.448 191.273 114.109 197.664 109.57 203.027C109.44 203.2 109.309 203.374 109.174 203.552C105.736 207.993 99.9447 210.98 94.6291 212.402C94.2963 212.495 93.9636 212.588 93.6208 212.685C89.5579 213.636 85.298 213.36 81.1525 213.281C80.9468 229.93 82.705 246.289 92.8712 260.156C93.071 260.435 93.2708 260.714 93.4766 261.002C97.3232 266.266 101.755 271.116 107.003 275.005C107.53 275.398 108.049 275.799 108.568 276.202C111.287 278.286 114.157 279.954 117.188 281.543C117.476 281.697 117.476 281.697 117.77 281.855C127.575 287.109 138.487 289.81 149.597 289.819C149.81 289.819 150.022 289.819 150.241 289.82C154.119 289.814 157.894 289.543 161.719 288.867C161.996 288.818 162.272 288.769 162.557 288.719C175.626 286.326 187.61 280.267 197.376 271.301C198.047 270.703 198.047 270.703 198.864 270.077C199.078 269.897 199.292 269.716 199.512 269.531C199.512 269.337 199.512 269.144 199.512 268.945C199.802 268.848 200.092 268.752 200.391 268.652C200.834 268.237 200.834 268.237 201.27 267.7C201.45 267.486 201.63 267.273 201.816 267.053C202.022 266.807 202.229 266.561 202.442 266.308C202.801 265.899 202.801 265.899 203.168 265.481C213.074 254.155 218.352 239.901 219.01 224.929C219.022 224.65 219.035 224.371 219.048 224.084C219.172 221.057 219.183 218.032 219.18 215.003C219.18 214.377 219.181 213.751 219.182 213.126C219.184 211.426 219.184 209.726 219.183 208.026C219.183 206.185 219.185 204.344 219.186 202.503C219.189 198.904 219.19 195.305 219.19 191.705C219.19 188.777 219.19 185.849 219.191 182.921C219.192 182.075 219.192 181.229 219.192 180.383C219.192 180.173 219.192 179.963 219.192 179.746C219.194 173.837 219.195 167.928 219.195 162.019C219.195 161.797 219.195 161.575 219.195 161.346C219.195 160.219 219.195 159.093 219.195 157.966C219.195 157.743 219.195 157.519 219.195 157.289C219.195 156.836 219.195 156.384 219.195 155.932C219.195 148.897 219.197 141.863 219.201 134.829C219.206 126.907 219.208 118.985 219.208 111.064C219.208 110.217 219.208 109.371 219.208 108.524C219.208 108.316 219.208 108.107 219.208 107.893C219.208 104.556 219.21 101.22 219.212 97.884C219.215 94.5247 219.215 91.1654 219.213 87.8061C219.212 85.9906 219.212 84.1751 219.215 82.3596C219.238 64.9087 218.426 48.0177 207.129 33.691C206.913 33.4138 206.697 33.1366 206.474 32.851C204.834 30.798 203.072 28.8628 201.27 26.9527C201.035 26.7019 200.8 26.4512 200.558 26.1928C195.969 21.4383 190.265 17.6828 184.277 14.941C183.948 14.7854 183.619 14.6298 183.28 14.4695C177.825 11.997 172.058 10.7165 166.113 10.1986C165.705 10.1616 165.705 10.1616 165.289 10.1239C161.938 9.86636 158.66 9.96051 155.274 9.96051C155.274 22.7222 155.274 35.484 155.274 48.6324C156.434 49.1158 157.594 49.5992 158.789 50.0972C163.316 52.4711 166.157 56.0861 167.706 60.9188C168.423 63.4103 168.503 65.7692 168.509 68.3465C168.511 68.705 168.513 69.0635 168.515 69.4329C168.521 70.6167 168.524 71.8005 168.527 72.9843C168.528 73.3944 168.529 73.8045 168.531 74.2145C168.536 76.1433 168.54 78.072 168.543 80.0008C168.546 82.2146 168.553 84.4282 168.565 86.642C168.574 88.3611 168.578 90.0802 168.579 91.7993C168.58 92.8222 168.583 93.845 168.59 94.8679C168.638 101.837 168.231 108.043 163.184 113.378C160.871 115.566 158.21 116.901 155.274 118.066C155.273 118.432 155.273 118.432 155.271 118.806C155.254 124.75 155.232 130.695 155.205 136.639C155.191 139.513 155.18 142.388 155.172 145.263C155.165 147.768 155.156 150.274 155.142 152.78C155.135 154.106 155.13 155.433 155.128 156.759C155.126 158.008 155.12 159.258 155.111 160.507C155.109 160.965 155.108 161.423 155.108 161.88C155.109 162.507 155.104 163.134 155.097 163.76C155.096 164.111 155.095 164.461 155.093 164.822C154.92 166.353 154.414 167.48 153.443 168.695C152.185 169.695 150.983 170.006 149.396 169.885C147.828 169.618 146.853 168.914 145.858 167.68C144.884 165.892 145.146 163.716 145.153 161.736C145.15 161.259 145.147 160.782 145.144 160.306C145.135 159.016 145.134 157.726 145.135 156.437C145.134 155.087 145.126 153.738 145.119 152.389C145.108 149.835 145.102 147.282 145.098 144.728C145.093 141.821 145.082 138.913 145.07 136.005C145.046 130.026 145.03 124.046 145.02 118.066C144.777 117.966 144.534 117.866 144.284 117.763C143.967 117.632 143.649 117.5 143.322 117.365C143.006 117.235 142.691 117.104 142.366 116.97C137.937 115.074 134.815 111.604 132.915 107.214C131.763 103.994 131.454 100.669 131.467 97.2716C131.466 96.7799 131.466 96.7799 131.464 96.2782C131.462 95.2072 131.463 94.1362 131.465 93.0652C131.465 92.3127 131.464 91.5601 131.464 90.8076C131.463 89.2351 131.464 87.6626 131.467 86.09C131.47 84.2839 131.469 82.4778 131.466 80.6717C131.463 78.9199 131.463 77.1681 131.465 75.4162C131.465 74.6774 131.465 73.9386 131.463 73.1997C131.453 66.4817 131.518 60.4305 135.645 54.7847C135.791 54.5778 135.937 54.3708 136.088 54.1576C138.069 51.6227 141.203 49.8814 144.201 48.8247C144.726 48.6746 144.726 48.6746 145.02 48.3394C145.048 47.8427 145.055 47.3447 145.055 46.8472C145.055 46.5238 145.056 46.2005 145.056 45.8674C145.055 45.5096 145.054 45.1518 145.053 44.7831C145.053 44.2215 145.053 44.2215 145.053 43.6486C145.053 42.619 145.051 41.5895 145.049 40.5599C145.048 39.485 145.047 38.4102 145.047 37.3353C145.046 35.2985 145.044 33.2618 145.041 31.225C145.038 28.9068 145.036 26.5886 145.034 24.2704C145.031 19.5004 145.026 14.7305 145.02 9.96051C143.823 9.95403 142.626 9.95019 141.429 9.94678C140.927 9.94402 140.927 9.94402 140.416 9.9412C123.725 9.90565 109.255 16.3114 97.6617 28.2402ZM143.149 61.7015C141.714 63.8271 141.669 65.8674 141.679 68.3538C141.677 68.7095 141.675 69.0652 141.673 69.4317C141.668 70.4015 141.668 71.3711 141.669 72.3409C141.67 73.1533 141.668 73.9657 141.667 74.7781C141.663 76.6964 141.663 78.6147 141.666 80.5329C141.67 82.5053 141.666 84.4776 141.658 86.45C141.651 88.1495 141.649 89.8489 141.651 91.5483C141.652 92.5607 141.651 93.5729 141.646 94.5853C141.641 95.7155 141.645 96.8455 141.65 97.9757C141.647 98.3067 141.644 98.6377 141.641 98.9786C141.669 101.913 142.399 104.256 144.435 106.418C146.118 107.9 147.854 108.594 150.073 108.764C152.466 108.605 154.428 107.728 156.152 106.054C158.292 103.45 158.584 101.123 158.581 97.8456C158.583 97.4957 158.585 97.1458 158.587 96.7853C158.592 95.83 158.594 94.8748 158.594 93.9196C158.595 93.3214 158.596 92.7232 158.597 92.125C158.603 90.034 158.605 87.943 158.605 85.8519C158.604 83.9093 158.611 81.9668 158.62 80.0242C158.628 78.3509 158.631 76.6777 158.63 75.0043C158.63 74.0074 158.632 73.0105 158.638 72.0135C158.644 70.9001 158.642 69.7869 158.639 68.6735C158.644 68.1846 158.644 68.1846 158.649 67.6858C158.625 64.7663 157.883 62.4306 155.858 60.2802C154.176 58.7982 152.439 58.1049 150.22 57.9341C147.221 58.1341 145.138 59.5245 143.149 61.7015ZM81.1525 136.23C81.1238 137.089 81.1144 137.942 81.1173 138.801C81.117 139.074 81.1168 139.347 81.1165 139.628C81.116 140.551 81.1176 141.473 81.1192 142.395C81.1193 143.053 81.1193 143.711 81.1191 144.369C81.119 146.162 81.1207 147.955 81.1228 149.748C81.1246 151.619 81.1248 153.491 81.1251 155.362C81.1259 158.505 81.1278 161.648 81.1304 164.791C81.1331 168.029 81.1352 171.266 81.1364 174.504C81.1365 174.704 81.1366 174.903 81.1366 175.109C81.137 176.109 81.1374 177.11 81.1377 178.11C81.1408 186.416 81.146 194.721 81.1525 203.027C84.1851 204.543 89.5802 203.627 92.6389 202.657C98.096 200.779 102.057 197.622 104.81 192.517C106.324 189.354 106.684 185.923 106.688 182.462C106.689 182.169 106.691 181.875 106.692 181.573C106.697 180.607 106.699 179.64 106.7 178.674C106.701 178.342 106.702 178.01 106.703 177.668C106.707 175.909 106.71 174.151 106.711 172.393C106.713 170.586 106.72 168.78 106.728 166.974C106.734 165.577 106.735 164.179 106.736 162.782C106.736 162.116 106.739 161.451 106.743 160.786C106.78 153.854 106.029 147.422 100.983 142.163C95.4486 136.935 89.4426 135.778 82.0637 135.89C81.4497 135.869 81.4497 135.869 81.1525 136.23Z" fill="black"/>
</g>
<defs>
<clipPath id="clip0_67_4128">
<rect width="300" height="300" fill="white"/>
</clipPath>
</defs>
</svg>
