<svg width="300" height="300" viewBox="0 0 300 300" fill="none" xmlns="http://www.w3.org/2000/svg">
<path d="M150.332 39.8297C167.893 39.4543 183.234 45.2123 196.093 57.2797C196.743 57.8844 197.404 58.462 198.084 59.0329C209.003 68.5787 211.744 82.1778 213.437 95.884C213.637 97.4639 213.859 99.0402 214.087 100.616C214.125 100.874 214.162 101.133 214.201 101.399C214.285 101.974 214.369 102.549 214.454 103.125C219.645 100.345 224.681 97.3404 229.625 94.1404C237.155 89.279 237.155 89.279 240.235 89.9411C241.004 90.3439 241.004 90.3439 241.407 91.113C242.016 94.1402 240.422 97.0954 239.21 99.7896C236.306 106.249 234.597 113.036 233.559 120.03C232.99 123.831 232.235 126.788 230.274 130.078C229.919 130.779 229.594 131.487 229.267 132.202C229.128 132.499 228.99 132.797 228.847 133.104C227.221 136.952 228.142 141.648 229.356 145.47C229.953 147.362 230.33 148.974 229.67 150.915C228.406 152.79 227.169 153.51 225.001 154.101C225.109 154.468 225.216 154.835 225.328 155.213C226.457 159.085 227.458 162.976 228.388 166.9C228.492 167.339 228.492 167.339 228.599 167.786C231.635 180.555 234.176 192.882 227.051 204.785C223.679 210.015 219.075 214.638 214.387 218.687C213.757 219.237 213.158 219.811 212.568 220.404C212.278 220.692 212.278 220.692 211.983 220.986C211.5 221.463 211.5 221.463 211.231 222.07C211.038 222.07 210.844 222.07 210.645 222.07C210.577 222.235 210.508 222.399 210.438 222.569C209.966 223.408 209.38 223.966 208.686 224.633C207.415 225.88 206.228 227.157 205.079 228.515C204.828 228.809 204.577 229.102 204.319 229.405C203.086 230.85 201.865 232.301 200.684 233.789C198.445 236.609 196.104 239.355 193.653 241.992C193.442 242.222 193.231 242.453 193.013 242.69C188.413 247.516 182.432 251.308 176.661 254.59C176.464 254.702 176.267 254.815 176.065 254.931C170.756 257.941 164.908 260.169 158.728 260.203C158.528 260.205 158.327 260.206 158.121 260.208C157.463 260.212 156.805 260.214 156.147 260.215C155.92 260.216 155.692 260.217 155.458 260.218C154.251 260.222 153.045 260.225 151.838 260.226C150.607 260.228 149.377 260.235 148.146 260.243C147.186 260.249 146.227 260.25 145.267 260.251C144.815 260.252 144.362 260.254 143.909 260.258C139.749 260.291 135.515 259.915 131.562 258.526C131.348 258.453 131.135 258.379 130.915 258.303C119.546 254.191 108.509 245.455 101.163 235.974C100.037 234.527 98.8583 233.134 97.6576 231.749C96.7853 230.742 95.9372 229.721 95.1055 228.68C92.8234 225.87 90.3006 223.217 87.6737 220.728C87.3052 220.312 87.3052 220.312 87.3052 219.726C87.1319 219.648 86.9587 219.57 86.7801 219.489C86.1224 219.134 85.688 218.771 85.1593 218.247C84.8833 217.975 84.8833 217.975 84.6017 217.698C84.4054 217.501 84.2092 217.305 84.007 217.102C83.801 216.897 83.595 216.693 83.3828 216.482C82.9462 216.047 82.5104 215.611 82.0752 215.175C81.4202 214.519 80.7615 213.867 80.1023 213.215C73.4647 206.608 68.2725 198.915 68.2439 189.204C68.2839 178.548 70.7965 166.703 74.5047 156.704C74.7855 155.94 75.0405 155.168 75.2935 154.394C75.0567 154.295 74.8199 154.195 74.5759 154.092C71.3539 152.631 71.3539 152.631 70.5213 150.966C69.6499 148.15 70.6031 145.413 71.4288 142.705C72.7359 138.356 72.0533 134.516 69.9307 130.566C69.7063 130.159 69.4776 129.755 69.2436 129.353C67.4246 126.144 66.8409 122.561 66.2264 118.973C64.9468 111.558 63.119 104.862 60.015 97.9832C59.859 97.6364 59.859 97.6364 59.6998 97.2825C59.6081 97.081 59.5165 96.8795 59.4221 96.6719C58.7019 94.9497 58.4115 93.2636 58.5943 91.4059C59.1601 90.3422 59.5259 90.0244 60.6634 89.6298C64.8349 89.696 68.7674 92.8991 72.1464 95.1109C76.5559 97.987 81.1182 100.788 85.8404 103.125C86.4941 99.0936 87.0492 95.086 87.3836 91.0173C87.7058 87.134 88.2414 83.4289 89.356 79.6872C89.43 79.4319 89.504 79.1765 89.5803 78.9134C91.0545 73.9065 93.1229 69.4328 96.3872 65.3317C96.5847 65.0783 96.7823 64.8249 96.9858 64.5638C99.2667 61.7012 101.735 58.8058 104.563 56.4648C105.024 56.0826 105.474 55.6864 105.918 55.2838C110.313 51.374 115.352 48.1338 120.704 45.7028C121.006 45.5521 121.308 45.4015 121.619 45.2462C128.759 41.7402 136.574 40.1908 144.471 39.9716C144.681 39.9657 144.89 39.9598 145.107 39.9537C146.848 39.9057 148.59 39.868 150.332 39.8297ZM112.511 59.628C112.195 59.9413 112.195 59.9413 111.873 60.261C111.431 60.7011 110.99 61.1423 110.551 61.5846C109.888 62.2493 109.221 62.9083 108.553 63.567C105.387 66.7169 102.593 69.9568 100.544 73.956C100.437 74.1631 100.33 74.3701 100.219 74.5835C98.5202 77.9616 96.9338 81.885 97.7136 85.7205C98.6199 88.1595 100.795 89.5816 102.906 90.9299C104.454 91.9693 105.107 93.2065 105.762 94.9216C105.592 94.8336 105.422 94.7456 105.247 94.6549C104.225 94.1575 103.391 93.7608 102.247 93.7131C100.93 94.2068 99.8571 94.968 98.731 95.8005C98.5633 95.9225 98.3956 96.0444 98.2229 96.1701C96.2197 97.7241 95.3589 99.2346 95.0208 101.732C94.8136 104.047 94.7166 106.368 94.6294 108.691C94.869 108.663 95.1086 108.634 95.3554 108.604C98.2174 108.324 100.779 108.58 103.602 109.039C104.04 109.107 104.479 109.175 104.918 109.242C108.147 109.746 111.358 110.333 114.551 111.035C114.363 109.882 114.008 108.901 113.544 107.831C113.041 106.666 112.595 105.505 112.208 104.297C112.401 104.297 112.594 104.297 112.793 104.297C112.858 104.499 112.923 104.701 112.99 104.909C113.478 105.976 114.156 106.805 114.918 107.684C115.072 107.863 115.227 108.042 115.386 108.226C118.013 111.19 121.863 115.035 125.684 116.308C125.298 115.089 125.298 115.089 124.769 113.928C124.512 113.379 124.512 113.379 124.512 112.207C124.626 112.363 124.74 112.519 124.858 112.681C127.139 115.718 129.88 118.879 133.594 120.117C135.45 120.237 136.376 120.077 137.842 118.879C139.193 117.281 139.664 114.512 139.567 112.456C139.042 108.585 138.152 103.72 135.059 101.074C132.557 99.5113 129.634 98.7043 126.856 97.778C126.15 97.5406 125.444 97.3026 124.739 97.0643C124.303 96.9172 123.867 96.7708 123.43 96.6251C121.939 96.1252 121.939 96.1252 121.29 95.8005C123.334 96.092 125.378 96.3842 127.421 96.6794C127.754 96.7273 128.087 96.7752 128.43 96.8246C129.134 96.9259 129.837 97.0279 130.541 97.1304C132.772 97.4533 132.772 97.4533 135.012 97.7025C137.185 97.9119 138.921 98.345 140.922 99.2205C146.113 101.41 152.827 102.011 158.204 100.195C159.813 99.5041 161.354 98.6874 162.891 97.8513C163.796 97.3989 164.777 97.3937 165.772 97.2939C166.002 97.2697 166.233 97.2455 166.471 97.2206C167.212 97.1429 167.954 97.0666 168.696 96.9907C171.853 96.6665 174.994 96.3274 178.126 95.8005C177.564 96.3621 176.675 96.5134 175.941 96.7652C175.544 96.903 175.147 97.0409 174.75 97.1789C174.127 97.3946 173.504 97.6095 172.88 97.8227C166.746 99.8268 166.746 99.8268 162.708 104.571C161.073 108.434 159.992 112.813 161.335 116.913C161.859 118.149 162.333 119.061 163.477 119.824C165.153 120.37 166.5 120.15 168.05 119.364C171.219 117.469 173.657 115.204 175.782 112.207C175.33 113.59 174.88 114.966 174.317 116.308C179.249 114.468 184.245 109.97 186.915 105.468C187.122 104.829 187.122 104.829 187.208 104.297C187.401 104.297 187.594 104.297 187.793 104.297C187.513 105.145 187.232 105.993 186.951 106.842C186.833 107.201 186.833 107.201 186.712 107.567C186.323 108.738 185.927 109.896 185.45 111.035C185.892 110.971 185.892 110.971 186.344 110.907C195.459 109.671 195.459 109.671 198.219 111.358C200.052 112.799 202.022 114.361 203.321 116.308C203.514 116.308 203.708 116.308 203.907 116.308C205.016 111.509 203.815 105.64 201.264 101.463C198.53 97.223 196.049 94.6507 191.016 93.4567C185.918 92.581 181.176 93.493 176.307 94.9891C175.489 95.2145 175.489 95.2145 174.61 95.2145C174.707 95.0659 174.804 94.9172 174.905 94.764C179.414 88.0732 179.414 88.0732 180.469 80.2731C179.609 76.588 176.632 74.048 174.038 71.4955C172.786 70.2586 171.646 68.937 170.534 67.5748C168.899 65.6311 167.521 64.5339 164.96 64.2331C162.199 64.0247 159.553 64.2801 156.812 64.5993C150.208 65.3202 142.686 66.1288 137.037 61.926C134.898 60.1028 133.392 57.7988 132.189 55.2769C131.721 54.6231 131.451 54.6314 130.665 54.4919C123.431 54.0445 117.788 54.3274 112.511 59.628ZM61.231 91.6989C61.1622 92.3125 61.1622 92.3125 61.6407 92.698C61.8318 92.8577 62.0229 93.0175 62.2198 93.1821C62.435 93.366 62.6503 93.5499 62.8721 93.7394C63.2199 94.0345 63.2199 94.0345 63.5747 94.3356C67.8904 98.0379 71.4062 102.307 74.6686 106.949C74.7994 107.135 74.9303 107.321 75.065 107.513C75.3063 107.859 75.5453 108.206 75.7817 108.555C76.6093 109.75 77.4998 110.673 78.8091 111.328C79.3949 111.34 79.9811 111.341 80.5669 111.328C81.3566 110.094 81.2875 108.934 81.0579 107.52C79.5323 101.624 72.5798 96.9757 67.6946 94.0244C64.6532 92.2142 64.6532 92.2142 61.231 91.6989ZM226.465 98.4372C226.22 98.6476 225.974 98.8579 225.72 99.0746C223.058 101.406 219.934 104.207 219.141 107.812C218.983 109.622 218.983 109.622 219.434 111.328C220.914 111.415 221.791 111.405 222.95 110.449C224.192 109.046 225.227 107.489 226.282 105.945C229.536 101.194 233.501 97.1643 237.732 93.2906C238.288 92.7743 238.825 92.2414 239.356 91.6989C234.753 91.2013 229.715 95.6252 226.465 98.4372ZM143.698 107.092C143.585 107.251 143.471 107.41 143.354 107.574C143.238 107.729 143.122 107.885 143.002 108.045C141.302 111.415 141.928 115.641 142.621 119.201C142.67 119.454 142.718 119.706 142.768 119.967C143.074 121.573 143.074 121.573 144.141 122.754C145.346 122.693 146.309 122.517 147.455 122.149C149.703 121.578 151.653 121.75 153.808 122.552C154.646 122.84 155.281 122.92 156.153 122.754C157.058 121.581 157.301 120.321 157.526 118.89C157.563 118.66 157.599 118.43 157.637 118.194C158.219 114.199 158.583 110.012 156.061 106.604C154.227 105.324 151.526 105.698 149.378 105.688C148.865 105.679 148.865 105.679 148.342 105.67C147.848 105.668 147.848 105.668 147.343 105.665C147.045 105.663 146.746 105.66 146.439 105.657C145.285 105.802 144.507 106.267 143.698 107.092ZM88.4771 112.207C88.4975 112.511 88.5179 112.816 88.5389 113.129C88.6667 115.88 88.4317 117.565 86.7193 119.824C85.7425 121.407 85.4599 122.958 85.5474 124.804C85.8851 126.096 86.3226 127.289 87.2182 128.294C87.5982 128.906 87.5982 128.906 87.5341 129.755C87.3188 130.61 87.0998 131.462 86.8657 132.312C86.0971 135.379 85.7241 137.848 87.3601 140.63C89.4586 143.748 93.1555 145.53 96.718 146.42C99.319 146.854 101.968 146.886 104.599 146.944C109.581 147.08 109.581 147.08 111.329 148.828C112.149 150.469 111.505 152.49 111.001 154.147C110.938 154.366 110.874 154.584 110.808 154.81C110.606 155.502 110.4 156.193 110.193 156.884C109.99 157.576 109.787 158.267 109.585 158.959C109.459 159.387 109.332 159.815 109.205 160.243C109.03 160.831 108.86 161.421 108.692 162.011C108.631 162.219 108.57 162.426 108.508 162.64C108.209 163.725 108.065 164.454 108.399 165.527C108.508 165.378 108.617 165.23 108.729 165.076C114.764 156.845 114.764 156.845 117.188 154.101C116.967 155.118 116.56 155.925 116.051 156.834C114.621 159.388 113.539 161.99 112.538 164.736C112.095 165.946 111.617 167.135 111.117 168.323C110.914 168.809 110.914 168.809 110.708 169.304C110.445 169.931 110.178 170.557 109.907 171.181C109.123 173.071 108.802 174.614 108.985 176.66C109.999 175.5 110.614 174.324 111.255 172.943C112.403 170.563 113.741 168.17 116.016 166.699C116.913 166.571 116.913 166.571 117.774 166.699C118.761 167.662 118.807 168.604 118.928 169.94C119.125 171.81 119.412 173.645 119.788 175.488C119.832 175.715 119.876 175.943 119.921 176.177C120.253 177.76 120.81 179.046 121.583 180.468C121.941 180.337 122.299 180.206 122.669 180.071C127.778 178.226 132.826 176.939 138.172 176.001C138.387 175.962 138.601 175.924 138.822 175.884C151.082 173.711 164.81 174.722 176.239 179.839C177.44 180.405 177.44 180.405 178.711 180.175C180.077 177.436 180.437 174.405 180.74 171.397C181.122 167.804 181.122 167.804 182.227 166.699C183.427 166.745 184.093 166.839 185.029 167.614C185.264 167.892 185.5 168.17 185.743 168.457C185.873 168.595 186.003 168.733 186.136 168.875C187.477 170.334 188.336 171.951 189.222 173.712C189.367 173.996 189.513 174.28 189.663 174.573C190.019 175.267 190.372 175.963 190.723 176.66C190.82 176.66 190.917 176.66 191.016 176.66C191.686 170.404 186.104 162.567 182.392 157.892C182.039 157.46 182.039 157.46 181.679 157.021C180.659 155.601 179.897 154.137 180.176 152.343C180.762 151.648 180.762 151.648 181.348 151.172C181.793 151.764 182.237 152.357 182.679 152.952C183.703 154.304 184.781 155.504 185.999 156.682C186.978 157.691 187.836 158.793 188.707 159.895C189.202 160.566 189.202 160.566 189.844 160.84C189.562 159.154 189.237 157.507 188.782 155.859C188.24 153.7 187.848 151.592 189.002 149.579C190.131 148.024 191.534 147.284 193.36 146.777C194.131 146.722 194.861 146.694 195.63 146.704C195.836 146.705 196.041 146.706 196.253 146.707C197.678 146.729 199.006 146.894 200.387 147.263C201.06 147.377 201.504 147.278 202.149 147.07C200.534 145.383 198.859 143.86 197.016 142.424C196.276 141.784 195.704 141.113 195.118 140.332C195.415 140.431 195.713 140.53 196.019 140.632C200.372 142.053 204.751 143.293 209.18 141.504C210.447 140.813 211.264 140.218 211.817 138.867C212.012 136.847 211.623 135.422 210.413 133.745C206.989 129.842 201.332 129.205 196.463 128.855C193.728 128.716 191.134 128.97 188.443 129.449C185.895 129.893 183.343 129.994 180.762 130.078C181.988 131.508 183.326 132.327 185.208 132.514C186.268 132.537 187.32 132.524 188.379 132.495C188.929 132.487 188.929 132.487 189.491 132.479C190.39 132.465 191.289 132.446 192.188 132.422C189.992 134.382 187.651 136.1 184.571 135.937C182.572 135.648 180.645 135.121 178.718 134.531C173.355 132.89 167.832 131.306 162.481 133.858C161.92 134.2 161.92 134.2 161.426 135.058C163.626 135.899 165.757 136.202 168.088 136.444C170.863 136.772 173.268 137.403 175.058 139.662C176.674 142.176 177.01 144.719 177.027 147.638C177.036 148.025 177.036 148.025 177.045 148.42C177.055 149.974 176.888 150.976 176.075 152.343C176.075 152.537 176.075 152.73 176.075 152.929C174.677 153.478 173.402 153.592 171.918 153.625C167.865 153.798 164.132 155.447 161.133 158.203C161.628 158.533 162.129 158.855 162.646 159.148C166.923 161.578 166.923 161.578 167.872 163.476C167.576 163.38 167.279 163.283 166.974 163.183C162.928 162.193 158.674 163.096 154.816 164.41C150.11 165.91 145.449 164.464 141.2 162.292C140.332 161.837 139.467 161.377 138.605 160.911C137.488 160.308 136.375 159.743 135.206 159.247C134.18 158.789 134.18 158.789 133.887 158.203C135.724 158.299 137.561 158.396 139.454 158.496C138.261 157.244 138.261 157.244 136.934 156.406C136.743 156.309 136.553 156.213 136.357 156.113C136.159 156.017 135.96 155.921 135.755 155.822C135.442 155.67 135.442 155.67 135.123 155.515C132.324 154.187 129.793 153.712 126.704 153.663C125.495 153.488 124.868 153.109 123.926 152.343C122.485 149.845 122.716 146.32 123.395 143.591C124.267 140.908 125.192 138.806 127.735 137.402C129.818 136.592 131.953 136.306 134.162 136.065C134.757 136 135.352 135.933 135.946 135.863C136.205 135.835 136.464 135.806 136.731 135.777C137.481 135.673 137.481 135.673 138.282 135.058C138.081 134.123 138.081 134.123 137.263 133.783C134.914 132.826 134.914 132.826 132.422 132.422C132.127 132.394 132.127 132.394 131.826 132.367C130.518 132.293 129.567 132.467 128.357 132.971C126.187 133.845 123.901 133.937 121.589 134.111C120.981 134.181 120.417 134.322 119.825 134.472C117.483 134.612 115.175 134.453 112.848 134.198C112.616 134.172 112.383 134.147 112.143 134.121C110.488 133.925 110.488 133.925 110.157 133.593C110.359 133.554 110.561 133.514 110.77 133.473C111.695 133.29 112.62 133.103 113.544 132.916C113.862 132.853 114.181 132.791 114.508 132.727C116.187 132.385 117.698 132.004 119.239 131.25C119.239 131.153 119.239 131.056 119.239 130.957C119.012 130.926 118.785 130.895 118.551 130.863C117.498 130.719 116.446 130.572 115.394 130.426C115.037 130.377 114.68 130.329 114.312 130.279C112.532 130.029 110.796 129.738 109.049 129.314C106.334 128.711 103.612 128.769 100.845 128.756C100.156 128.752 99.4677 128.742 98.779 128.732C98.4704 128.733 98.4704 128.733 98.1556 128.735C96.3777 128.708 94.7337 128.344 93.366 127.136C93.2028 126.928 93.0397 126.721 92.8716 126.507C92.7024 126.298 92.5332 126.088 92.3589 125.872C92.2381 125.713 92.1172 125.554 91.9927 125.39C92.16 125.454 92.3273 125.517 92.4997 125.583C95.3605 126.565 98.1909 126.588 101.075 125.683C101.075 125.49 101.075 125.297 101.075 125.097C100.897 125.054 100.72 125.011 100.537 124.967C98.3789 124.389 96.1734 123.664 94.737 121.86C93.8799 120.333 93.6095 118.818 93.3477 117.114C93.0583 115.213 93.0583 115.213 91.9011 113.727C91.3713 113.365 91.3713 113.365 90.8208 113.086C90.5006 112.904 90.1803 112.723 89.8504 112.536C89.1152 112.169 89.1152 112.169 88.4771 112.207ZM212.696 117.773C212.428 118.041 212.428 118.041 212.156 118.313C210.686 119.317 209.047 119.5 207.323 119.843C205.818 120.166 204.715 120.428 203.614 121.582C203.359 122.206 203.359 122.206 203.321 122.754C204.488 123.778 205.673 124.399 207.074 125.024C207.277 125.117 207.48 125.209 207.69 125.304C208.186 125.53 208.683 125.754 209.18 125.976C209.709 125.529 210.233 125.077 210.755 124.621C211.047 124.37 211.34 124.118 211.641 123.859C212.965 122.448 213.161 120.813 213.282 118.945C213.051 118.235 213.051 118.235 212.696 117.773ZM113.965 122.754C114.474 124.126 115.604 125.038 116.895 125.683C118.513 125.954 119.621 125.745 120.997 124.841C121.88 124.219 121.88 124.219 122.461 123.34C122.302 123.378 122.142 123.417 121.977 123.457C117.757 124.446 117.757 124.446 116.016 123.925C115.919 123.442 115.823 122.959 115.723 122.461C114.829 122.414 114.829 122.414 113.965 122.754ZM184.571 122.461C184.377 122.944 184.184 123.427 183.985 123.925C182.386 124.3 181.432 124.138 179.917 123.513C179.203 123.313 178.818 123.395 178.126 123.633C178.448 123.921 178.771 124.207 179.096 124.493C179.276 124.653 179.456 124.813 179.642 124.977C180.727 125.816 181.783 125.794 183.106 125.683C184.339 125.195 185.387 124.523 186.036 123.34C186.036 123.049 186.036 122.759 186.036 122.461C185.552 122.461 185.069 122.461 184.571 122.461ZM145.889 125.927C145.367 126.509 144.895 127.103 144.434 127.734C144.279 127.942 144.123 128.15 143.963 128.365C143.383 129.178 143.383 129.178 142.969 130.078C143.177 130.679 143.177 130.679 143.555 131.25C144.273 132.536 144.296 133.609 144.141 135.058C143.632 136.671 142.746 138.28 141.504 139.453C140.411 139.815 139.612 139.708 138.501 139.471C136.476 139.133 134.474 139.072 132.422 139.05C132.101 139.042 131.779 139.035 131.447 139.027C129.652 139.016 129.652 139.016 128.006 139.651C127.39 140.394 126.998 141.074 126.618 141.961C126.495 142.24 126.372 142.518 126.246 142.805C125.928 143.56 125.928 143.56 125.977 144.433C126.286 144.473 126.596 144.513 126.914 144.553C134.097 145.562 140.291 148.2 146.025 152.583C147.343 153.575 148.614 154.521 150.293 154.687C152.12 154.096 153.701 152.926 155.222 151.784C160.9 147.519 167.301 145.255 174.317 144.433C173.81 142.347 172.951 140.929 171.387 139.453C170.291 138.905 168.968 139.104 167.762 139.105C167.463 139.105 167.164 139.105 166.856 139.104C163.948 139.124 161.088 139.392 158.204 139.746C158.122 139.526 158.041 139.306 157.958 139.08C157.652 138.361 157.338 137.834 156.867 137.219C155.731 135.729 155.653 134.247 155.86 132.422C156.175 131.564 156.563 130.869 157.032 130.078C155.175 127.097 153.728 124.956 150.293 123.925C148.641 123.925 147.1 124.836 145.889 125.927ZM115.026 172.015C111.842 175.659 111.708 182.252 111.873 186.89C112.099 190.232 113.445 192.301 115.723 194.637C116.361 195.16 116.659 195.369 117.481 195.41C119.281 194.751 121.398 193.818 122.461 192.187C122.747 191.023 122.92 189.863 123.047 188.672C122.874 188.572 122.701 188.472 122.522 188.369C119.614 186.586 118.613 184.301 117.774 181.054C117.055 177.761 116.735 174.457 116.602 171.093C115.955 171.093 115.491 171.617 115.026 172.015ZM183.399 171.386C183.386 171.569 183.373 171.752 183.359 171.94C182.433 184.461 182.433 184.461 178.711 187.793C177.869 188.36 177.869 188.36 177.247 188.672C177.342 190.828 177.775 192.101 179.316 193.689C180.588 194.501 181.971 194.94 183.399 195.41C185.716 193.512 187.515 191.704 188.086 188.672C188.544 183.498 188.252 177.122 185.45 172.558C184.557 171.662 184.557 171.662 183.399 171.386ZM152.637 181.054C151.429 182.887 151.26 185.061 151.465 187.207C151.943 188.739 152.426 189.605 153.809 190.429C154.857 190.579 155.884 190.553 156.94 190.521C157.222 190.518 157.504 190.515 157.795 190.512C159.218 190.539 159.218 190.539 160.547 190.136C161.362 187.694 160.994 184.924 160.023 182.583C159.366 181.378 158.596 180.892 157.325 180.468C155.723 180.35 154.08 180.28 152.637 181.054ZM140.04 182.519C139.381 183.785 139.375 184.987 139.399 186.383C139.399 186.595 139.399 186.807 139.399 187.025C139.39 188.179 139.39 188.179 139.747 189.258C141.873 189.966 144.895 189.739 147.071 189.258C147.637 188.839 147.89 188.53 148.147 187.876C148.285 186.912 148.305 185.965 148.316 184.991C148.322 184.794 148.328 184.597 148.334 184.394C148.341 183.56 148.344 182.964 147.872 182.258C145.79 180.927 141.709 180.526 140.04 182.519ZM126.911 183.069C125.293 185.38 124.834 188.616 125.182 191.39C125.423 192.349 125.741 193.083 126.563 193.652C129.64 194.587 132.168 193.739 134.95 192.429C136.02 191.868 136.02 191.868 136.817 191.015C137.099 189.406 136.859 188.566 135.956 187.207C134.283 185.013 132.304 182.895 129.482 182.419C128.408 182.338 127.807 182.471 126.911 183.069ZM165.479 185.594C164.423 187.037 163.621 188.479 163.294 190.246C163.421 191.055 163.421 191.055 164.045 191.638C166.971 193.43 170.002 194.329 173.421 193.594C174.148 193.311 174.456 193.125 174.903 192.48C175.567 189.546 175.049 185.967 173.438 183.398C172.878 182.714 172.55 182.563 171.688 182.43C168.903 182.268 167.213 183.518 165.479 185.594ZM191.602 195.41C191.492 195.767 191.382 196.124 191.269 196.491C191.118 196.967 190.966 197.443 190.815 197.918C190.707 198.27 190.707 198.27 190.598 198.629C189.985 200.53 189.234 202.113 187.574 203.32C185.551 203.942 183.578 203.247 181.659 202.533C175.62 200.418 169.198 199.325 162.891 198.34C162.588 198.291 162.284 198.242 161.972 198.192C152.689 196.761 142.143 196.465 132.937 198.464C132.101 198.638 131.265 198.778 130.422 198.913C126.06 199.645 121.967 200.968 117.816 202.463C117.596 202.54 117.376 202.618 117.149 202.698C116.735 202.844 116.322 202.994 115.912 203.148C114.568 203.618 113.589 203.646 112.208 203.32C109.776 201.806 108.892 198.617 108.106 195.996C107.913 195.996 107.719 195.996 107.52 195.996C106.086 199.324 105.569 202.726 106.641 206.25C107.496 207.929 108.661 208.876 110.45 209.472C113.473 209.756 116.309 209.148 119.251 208.537C136.553 204.968 154.161 204.175 171.094 209.765C172.183 210.121 173.273 210.475 174.362 210.828C175.053 211.052 175.744 211.278 176.433 211.506C181.548 213.178 186.458 214.338 191.602 212.109C194.045 210.848 196.14 208.841 197.265 206.301C198 203.92 197.432 201.972 196.307 199.828C195.447 198.299 194.454 196.799 193.067 195.703C192.294 195.477 192.294 195.477 191.602 195.41Z" fill="black"/>
</svg>
