<svg width="300" height="300" viewBox="0 0 300 300" fill="none" xmlns="http://www.w3.org/2000/svg">
<path d="M175.765 81.9663C181.793 87.1504 186.129 93.2639 187.846 101.085C188.31 103.099 189.012 104.79 190.43 106.348C191.282 106.348 191.496 105.916 192.096 105.322C197.065 100.851 204.049 99.7527 210.343 98.2622C212.643 97.7176 214.932 97.1433 217.205 96.4953C219.94 95.7407 219.94 95.7407 221.151 96.3832C222.143 97.2895 222.6 97.831 222.726 99.1893C222.802 102.252 222.026 104.512 220.061 106.874C218.045 108.949 215.54 110.402 213.098 111.914C208.648 114.678 205.53 117.655 203.906 122.754C203.561 124.264 203.313 125.781 203.082 127.313C203.019 127.709 202.955 128.106 202.891 128.502C202.554 130.598 202.554 130.598 202.441 132.715C202.691 132.801 202.941 132.887 203.199 132.976C213.325 136.568 222.536 141.851 230.473 149.091C231.063 149.626 231.663 150.144 232.269 150.659C234.613 152.703 236.838 154.948 238.847 157.321C239.48 158.054 240.142 158.758 240.802 159.466C244.641 163.694 244.641 163.694 244.617 164.977C244.243 165.708 243.83 165.988 243.146 166.443C242.879 166.621 242.613 166.799 242.338 166.983C241.109 167.768 239.87 168.535 238.631 169.302C234.72 171.737 230.943 174.37 227.344 177.246C227.065 177.468 226.786 177.691 226.498 177.92C224.912 179.201 223.379 180.53 221.871 181.903C221.279 182.44 220.68 182.967 220.074 183.49C216.851 186.302 213.668 189.205 210.88 192.455C210.288 193.14 209.68 193.807 209.07 194.476C207.117 196.644 205.305 198.922 203.503 201.215C203.37 201.384 203.237 201.554 203.1 201.728C202.38 202.646 201.665 203.568 200.955 204.493C200.735 204.778 200.735 204.778 200.511 205.069C200.228 205.435 199.946 205.803 199.666 206.172C199.335 206.599 198.986 207.012 198.633 207.422C198.439 207.422 198.246 207.422 198.047 207.422C198.084 207.244 198.12 207.067 198.158 206.884C198.934 203.118 199.662 199.346 200.317 195.557C200.379 195.202 200.441 194.848 200.504 194.483C200.562 194.146 200.62 193.808 200.679 193.46C200.73 193.164 200.78 192.869 200.832 192.564C201.162 190.368 201.318 188.217 201.329 185.996C201.332 185.58 201.332 185.58 201.335 185.156C201.425 176.91 201.425 176.91 200.391 168.75C200.334 168.45 200.277 168.15 200.219 167.841C198.712 159.962 196.006 152.632 192.773 145.312C192.46 144.6 192.146 143.888 191.833 143.175C191.586 142.615 191.337 142.056 191.087 141.497C190.542 140.191 190.389 139.185 190.393 137.768C190.392 137.48 190.392 137.191 190.391 136.894C190.427 135.999 190.535 135.13 190.652 134.242C191.163 129.538 190.831 124.96 188.672 120.703C188.672 120.51 188.672 120.316 188.672 120.117C188.479 120.117 188.285 120.117 188.086 120.117C188.019 120.286 187.953 120.455 187.885 120.63C187.106 121.964 185.871 122.673 184.434 123.185C182.845 123.516 181.204 123.401 179.59 123.34C179.396 124.017 179.203 124.693 179.004 125.391C179.205 125.423 179.406 125.455 179.614 125.488C179.878 125.534 180.142 125.581 180.414 125.629C180.806 125.695 180.806 125.695 181.207 125.762C181.987 125.992 182.302 126.236 182.812 126.855C182.493 126.881 182.174 126.906 181.844 126.932C179.439 127.148 177.209 127.486 174.902 128.21C171.302 129.301 167.665 129.54 164.196 127.884C163.515 127.465 163.013 127.035 162.451 126.471C161.535 125.578 160.799 125.572 159.54 125.574C158.996 125.602 158.452 125.635 157.91 125.684C157.958 125.842 158.006 126.001 158.055 126.164C158.228 126.973 158.231 127.713 158.221 128.54C158.219 128.828 158.216 129.117 158.213 129.414C158.208 129.743 158.208 129.743 158.203 130.078C158.356 130.032 158.51 129.985 158.668 129.937C161.605 129.305 164.419 129.696 166.945 131.299C168.32 132.338 169.017 133.687 169.336 135.351C169.371 136.083 169.387 136.816 169.391 137.549C169.395 137.932 169.399 138.316 169.403 138.711C169.306 140.198 168.766 140.942 167.871 142.09C167.722 142.294 167.573 142.498 167.419 142.709C163.564 147.865 157.399 150.718 151.099 151.63C145.018 152.206 138.945 148.895 134.326 145.184C133.108 144.066 132.259 142.694 131.543 141.211C131.543 141.017 131.543 140.824 131.543 140.625C131.253 140.625 130.963 140.625 130.664 140.625C130.567 140.335 130.471 140.045 130.371 139.746C130.468 139.553 130.564 139.359 130.664 139.16C130.623 138.658 130.565 138.158 130.499 137.659C130.307 135.722 130.527 134.405 131.451 132.66C132.803 131.015 134.15 130.268 136.23 129.785C137.351 129.718 137.351 129.718 138.483 129.73C138.858 129.732 139.234 129.734 139.621 129.736C140.41 129.775 141.051 129.842 141.797 130.078C141.793 129.834 141.79 129.591 141.787 129.34C141.784 129.022 141.781 128.703 141.779 128.375C141.775 128.059 141.772 127.743 141.768 127.417C141.797 126.562 141.797 126.562 142.09 125.684C139.804 125.424 139.804 125.424 137.664 126.034C137.342 126.338 137.028 126.652 136.723 126.973C134.693 128.904 131.613 129.059 128.97 129.011C127.469 128.929 126.123 128.478 124.704 128.007C122.251 127.222 119.745 127.043 117.188 126.855C117.897 126.014 118.534 125.769 119.586 125.482C119.982 125.372 119.982 125.372 120.386 125.259C120.688 125.179 120.688 125.179 120.996 125.098C120.899 124.421 120.803 123.744 120.703 123.047C120.51 123.143 120.316 123.24 120.117 123.34C116.557 123.605 114.268 123.097 111.519 120.828C111.359 120.69 111.2 120.552 111.035 120.41C110.724 121.286 110.432 122.16 110.156 123.047C110.072 123.313 109.989 123.579 109.902 123.854C108.883 127.577 109.053 131.553 109.57 135.351C110.012 139.363 109.031 142.036 107.333 145.623C98.1956 165.298 97.2612 184.003 101.719 204.853C101.9 205.709 102.077 206.564 102.246 207.422C102.053 207.518 101.859 207.615 101.66 207.715C101.472 207.473 101.283 207.231 101.089 206.982C99.1093 204.449 97.0956 201.946 95.0615 199.457C94.6772 198.985 94.2958 198.511 93.9148 198.036C92.5217 196.308 91.0627 194.66 89.5523 193.034C88.8652 192.291 88.1934 191.537 87.5244 190.778C86.3265 189.442 85.0731 188.166 83.8074 186.896C83.613 186.7 83.4186 186.504 83.2183 186.303C83.0354 186.12 82.8525 185.938 82.6641 185.75C82.4999 185.586 82.3356 185.422 82.1664 185.253C81.7439 184.833 81.7439 184.833 81.1523 184.57C81.1523 184.377 81.1523 184.184 81.1523 183.984C80.9775 183.906 80.8026 183.828 80.6225 183.747C79.9671 183.391 79.5867 183.046 79.0833 182.501C77.8668 181.251 76.5359 180.173 75.174 179.086C74.6852 178.693 74.2016 178.295 73.7183 177.895C69.329 174.289 64.5738 171.243 59.7725 168.22C59.5281 168.065 59.2836 167.909 59.0318 167.749C58.5354 167.434 58.0365 167.123 57.5355 166.816C57.1767 166.59 57.1767 166.59 56.8108 166.359C56.5969 166.227 56.383 166.095 56.1626 165.959C55.5642 165.441 55.4376 165.138 55.3711 164.355C55.7854 163.69 55.7854 163.69 56.4331 162.945C56.7974 162.522 56.7974 162.522 57.169 162.089C57.3035 161.936 57.4381 161.783 57.5768 161.625C58.033 161.104 58.4814 160.577 58.9291 160.048C60.5892 158.097 62.2766 156.214 64.1247 154.438C64.7671 153.809 64.7671 153.809 65.3481 153.054C65.8547 152.423 66.3443 151.928 66.9617 151.41C67.9085 150.604 68.8198 149.77 69.7266 148.92C75.964 143.249 89.4177 132.715 98.1445 132.715C98.0701 132.441 97.9957 132.167 97.9191 131.885C97.327 129.644 96.8598 127.429 96.5332 125.134C95.8557 120.58 93.8855 116.928 90.1767 114.049C88.7561 113.035 87.2428 112.155 85.7509 111.252C82.047 109.003 78.6473 106.586 77.3438 102.246C77.1062 100.303 76.9902 98.3082 78.2227 96.6796C79.2109 95.9031 80.2294 96.0423 81.4453 96.0937C82.2293 96.2644 82.9806 96.4506 83.749 96.6727C83.9662 96.733 84.1833 96.7933 84.4071 96.8554C84.871 96.9843 85.3346 97.1143 85.7979 97.2453C87.0154 97.5895 88.235 97.926 89.455 98.2612C89.6976 98.3279 89.9403 98.3946 90.1902 98.4634C92.2795 99.0327 94.3804 99.5157 96.4966 99.9755C100.762 100.92 104.865 102.256 108.252 105.139C108.899 105.825 108.899 105.825 109.57 105.762C111.007 104.32 111.542 102.549 112.024 100.635C114.16 92.2477 120.109 84.5566 127.441 79.9804C127.601 79.8801 127.761 79.7798 127.926 79.6764C142.157 70.8685 162.656 71.0467 175.765 81.9663ZM123.34 89.6483C120.319 93.3 116.89 98.216 116.602 103.125C117.27 103.821 117.27 103.821 118.066 104.297C118.211 104.587 118.211 104.587 118.359 104.883C118.099 104.952 118.099 104.952 117.834 105.023C116.013 105.561 114.884 106.124 113.91 107.839C112.758 110.306 112.634 112.973 113.562 115.539C114.219 116.978 115.148 118.511 116.602 119.238C117.497 119.359 118.346 119.387 119.238 119.238C120.003 118.559 120.003 118.559 120.41 117.773C120.217 117.387 120.023 117 119.824 116.601C125.553 114.692 132.438 117.393 137.744 119.489C139.732 120.27 142.061 120.899 144.122 120.044C145.315 119.367 145.315 119.367 146.484 118.652C146.484 119.619 146.484 120.586 146.484 121.582C148.708 121.582 150.932 121.582 153.223 121.582C153.223 120.712 153.223 119.842 153.223 118.945C153.513 118.945 153.803 118.945 154.102 118.945C154.492 119.336 154.883 119.726 155.273 120.117C157.08 120.891 159.254 120.376 161.041 119.806C161.355 119.71 161.355 119.71 161.676 119.612C163.715 118.982 165.738 118.299 167.755 117.601C170.235 116.754 172.594 116.231 175.214 116.107C175.544 116.086 175.544 116.086 175.88 116.065C177.353 115.988 178.718 116.088 180.176 116.309C180.176 116.502 180.176 116.695 180.176 116.894C179.982 116.991 179.789 117.088 179.59 117.187C179.855 118.004 180.099 118.57 180.688 119.202C181.627 119.671 182.109 119.537 183.105 119.238C185.105 118.218 185.97 116.682 186.731 114.642C187.248 112.087 186.859 109.494 185.581 107.234C184.505 105.73 183.06 105.294 181.348 104.883C182.227 104.004 182.227 104.004 183.105 103.125C182.908 97.1924 179.059 91.944 174.948 87.9626C167.635 81.5437 156.808 77.8934 147.1 78.4675C138.005 79.178 129.461 82.7513 123.34 89.6483ZM82.6172 101.953C84.0083 104.433 86.2847 105.715 88.7146 107.043C94.1631 110.023 98.6417 114.151 100.781 120.117C101.569 122.981 101.793 125.745 101.825 128.705C101.757 133 101.757 133 103.235 136.944C103.352 137.131 103.469 137.318 103.59 137.511C104.065 138.059 104.512 138.293 105.176 138.574C105.91 137.474 105.915 136.333 105.762 135.059C105.575 134.385 105.355 133.74 105.104 133.088C104.24 130.483 104.409 127.617 104.956 124.969C105.747 120.19 102.417 115.216 99.7559 111.475C99.2239 110.738 98.6862 110.007 98.1445 109.277C104.246 112.352 104.246 112.352 106.348 114.258C107.025 113.58 107.079 113.238 107.263 112.317C107.312 112.077 107.361 111.838 107.412 111.591C107.447 111.408 107.483 111.224 107.52 111.035C103.307 107.589 99.0294 105.783 93.75 104.59C92.7577 104.362 91.7654 104.134 90.7732 103.906C90.1127 103.755 89.4517 103.606 88.7903 103.46C87.166 103.095 85.5953 102.689 84.0312 102.116C83.4492 101.91 83.4492 101.91 82.6172 101.953ZM214.508 102.557C212.259 103.249 209.986 103.78 207.691 104.294C202.049 105.564 196.593 106.986 192.48 111.328C192.771 112.198 193.061 113.068 193.359 113.965C194.418 113.583 195.229 113.123 196.124 112.445C197.92 111.152 199.862 110.222 201.855 109.277C201.629 109.565 201.402 109.852 201.169 110.148C196.373 116.31 196.373 116.31 194.879 123.724C194.993 124.62 195.136 125.506 195.282 126.398C195.668 129.538 195.316 132.089 194.238 135.059C193.905 136.057 193.984 136.231 194.366 137.164C194.451 137.374 194.535 137.583 194.622 137.799C194.722 138.038 194.722 138.038 194.824 138.281C195.953 138.077 196.43 137.633 197.138 136.719C198.574 134.545 198.366 131.677 198.322 129.181C198.277 122.331 199.871 116.818 204.655 111.726C206.972 109.49 209.635 107.898 212.446 106.368C214.397 105.285 216.461 104.068 217.383 101.953C216.342 101.953 215.489 102.248 214.508 102.557ZM128.027 120.703C128.103 121.119 128.183 121.534 128.265 121.948C128.31 122.179 128.354 122.41 128.399 122.649C128.65 123.46 128.878 123.92 129.492 124.512C130.32 124.687 130.32 124.687 131.232 124.64C131.689 124.639 131.689 124.639 132.155 124.639C133.084 124.5 133.493 124.256 134.18 123.633C131.348 121.533 131.348 121.533 128.027 120.703ZM169.061 121.527C168.816 121.631 168.571 121.736 168.318 121.843C167.966 121.998 167.966 121.998 167.607 122.155C167.391 122.249 167.175 122.342 166.952 122.439C166.312 122.754 166.312 122.754 165.82 123.633C166.786 124.508 167.459 124.638 168.75 124.64C169.052 124.645 169.354 124.651 169.666 124.657C170.72 124.475 171.055 124.2 171.68 123.34C171.881 122.586 171.881 122.586 171.899 121.802C171.916 121.54 171.933 121.279 171.95 121.01C171.957 120.812 171.965 120.614 171.973 120.41C171.028 120.41 169.914 121.154 169.061 121.527ZM145.789 125.519C144.556 127.462 144.507 129.288 144.727 131.543C145.031 132.66 145.424 133.71 145.898 134.766C145.763 134.67 145.628 134.574 145.489 134.476C143.103 132.878 140.906 132.346 138.062 132.294C137.85 132.287 137.639 132.281 137.421 132.274C135.905 132.28 135.056 132.647 133.887 133.594C133.101 134.481 132.941 135.133 133.008 136.285C133.616 140.11 136.432 142.979 139.428 145.213C140.183 145.698 140.923 145.99 141.797 146.191C141.555 145.901 141.313 145.611 141.064 145.312C140.135 144.081 139.444 142.769 138.757 141.394C138.653 141.185 138.548 140.976 138.44 140.76C137.695 139.239 137.695 139.239 137.695 138.574C137.848 138.776 138.001 138.978 138.159 139.186C140.376 142.017 142.757 144.112 145.972 145.752C146.165 145.851 146.359 145.95 146.559 146.052C148.033 146.766 149.43 147.251 151.085 146.904C155.422 145.208 159.113 142.864 162.012 139.16C161.276 141.348 160.282 142.977 158.789 144.726C158.502 145.074 158.215 145.422 157.928 145.77C157.729 146.006 157.53 146.241 157.324 146.484C161.007 145.367 163.687 143.036 165.541 139.696C166.326 138.191 167.041 136.739 166.88 135.01C166.541 134.001 165.842 133.482 164.941 133.008C161.945 131.82 158.595 132.403 155.681 133.62C155.145 133.887 154.622 134.177 154.102 134.473C154.223 134.191 154.223 134.191 154.348 133.904C155.38 131.438 155.895 129.438 154.98 126.855C154.257 125.371 153.302 124.482 151.789 123.826C149.484 123.104 147.449 123.814 145.789 125.519ZM95.8889 138.958C95.5612 139.103 95.2336 139.248 94.896 139.397C94.548 139.554 94.2001 139.712 93.8416 139.874C93.6636 139.954 93.4856 140.034 93.3022 140.117C84.3451 144.15 75.9087 149.444 69.0411 156.545C68.5547 157.031 68.5547 157.031 67.6575 157.764C66.7683 158.52 66.0512 159.327 65.2966 160.214C64.3823 161.253 63.3924 162.217 62.4023 163.184C62.9991 163.813 63.5962 164.303 64.325 164.773C64.5314 164.908 64.7378 165.042 64.9505 165.181C65.1731 165.325 65.3957 165.47 65.625 165.619C72.889 170.404 79.621 175.915 85.9932 181.827C86.4343 182.234 86.8781 182.638 87.323 183.041C89.2275 184.769 91.0681 186.545 92.8711 188.379C93.1639 188.672 93.4568 188.965 93.75 189.258C93.7469 188.908 93.7439 188.559 93.7407 188.199C93.7299 186.87 93.7233 185.542 93.7178 184.213C93.7149 183.644 93.711 183.075 93.7058 182.506C93.6224 173.045 94.7708 163.596 98.2204 154.728C98.685 153.559 98.685 153.559 98.4375 152.344C95.1486 154.555 92.1054 156.952 89.1712 159.623C88.1709 160.531 87.1527 161.419 86.1328 162.305C87.2535 158.121 89.8163 154.448 92.5781 151.172C92.7042 151.021 92.8303 150.87 92.9602 150.714C95.5468 147.652 98.5051 145.236 102.032 143.307C102.199 143.196 102.367 143.084 102.539 142.969C102.539 142.775 102.539 142.582 102.539 142.383C102.062 142.001 102.062 142.001 101.459 141.614C100.311 140.796 99.7106 139.983 99.0829 138.732C98.9085 138.509 98.9085 138.509 98.7305 138.281C97.5171 138.281 96.9785 138.473 95.8889 138.958ZM201.562 138.281C200.966 138.888 200.966 138.888 200.427 139.673C199.517 140.88 198.743 141.613 197.461 142.383C197.461 142.576 197.461 142.769 197.461 142.969C198.089 143.422 198.089 143.422 198.889 143.884C205.496 148 211.747 154.764 214.16 162.305C214.006 162.162 213.853 162.019 213.694 161.872C209.875 158.377 205.885 155.194 201.562 152.344C201.205 153.416 201.371 153.699 201.756 154.74C201.867 155.051 201.978 155.361 202.092 155.681C202.214 156.018 202.335 156.355 202.46 156.702C203.471 159.622 204.292 162.514 204.913 165.546C205.016 166.04 205.016 166.04 205.121 166.545C206.146 171.771 206.357 176.95 206.433 182.263C206.444 182.917 206.456 183.57 206.467 184.223C206.495 185.804 206.52 187.384 206.543 188.965C206.886 188.686 207.228 188.405 207.568 188.122C207.759 187.966 207.949 187.81 208.145 187.649C208.293 187.503 208.441 187.357 208.594 187.207C208.594 187.014 208.594 186.82 208.594 186.621C208.787 186.621 208.98 186.621 209.18 186.621C209.337 186.422 209.494 186.222 209.656 186.017C210.391 185.107 211.185 184.412 212.072 183.656C212.682 183.117 213.246 182.555 213.812 181.97C214.931 180.834 216.134 179.839 217.382 178.848C218.11 178.25 218.808 177.635 219.507 177.003C220.848 175.805 222.253 174.723 223.7 173.657C224.22 173.271 224.74 172.885 225.26 172.499C225.642 172.216 225.642 172.216 226.032 171.927C226.676 171.448 227.316 170.964 227.954 170.476C231.178 168.014 234.524 165.739 237.891 163.476C236.454 161.735 234.893 160.132 233.298 158.537C232.86 158.098 232.423 157.656 231.987 157.214C230.364 155.582 228.7 154.062 226.895 152.628C226.162 152.043 225.453 151.437 224.744 150.824C219.14 146.261 212.733 142.866 206.213 139.819C205.885 139.665 205.556 139.511 205.218 139.352C204.911 139.212 204.605 139.071 204.288 138.927C204.017 138.802 203.745 138.677 203.464 138.548C202.68 138.214 202.68 138.214 201.562 138.281Z" fill="black"/>
<path d="M112.207 137.695C112.465 137.819 112.722 137.942 112.988 138.07C113.328 138.23 113.669 138.391 114.019 138.556C114.356 138.716 114.692 138.875 115.039 139.04C116.769 139.772 118.337 139.8 120.19 139.801C120.427 139.805 120.664 139.808 120.908 139.812C122.57 139.816 124.077 139.586 125.683 139.16C125.323 141.007 124.227 141.921 122.753 142.969C121.465 143.574 120.361 143.636 118.945 143.555C118.752 143.458 118.558 143.361 118.359 143.262C118.341 144.281 118.331 145.3 118.322 146.32C118.317 146.599 118.312 146.879 118.307 147.167C118.296 148.878 118.415 150.512 118.652 152.206C119.138 155.852 119.007 159.532 118.981 163.202C118.979 163.941 118.976 164.681 118.973 165.42C118.967 167.214 118.957 169.007 118.945 170.801C119.428 170.897 119.912 170.994 120.41 171.094C120.436 170.52 120.436 170.52 120.464 169.936C120.488 169.418 120.513 168.901 120.538 168.384C120.551 168.117 120.563 167.85 120.577 167.575C120.663 165.843 120.785 164.121 120.97 162.396C120.996 161.715 120.904 161.195 120.703 160.547C121.363 160.538 121.363 160.538 122.168 160.84C122.677 161.616 122.986 162.468 123.321 163.33C123.523 163.814 123.727 164.298 123.932 164.781C124.031 165.013 124.129 165.245 124.231 165.483C124.762 166.677 125.399 167.774 126.269 168.75C126.381 168.9 126.493 169.05 126.608 169.205C127.45 170.145 128.083 170.477 129.348 170.644C130.63 170.693 131.909 170.647 133.19 170.599C134.061 170.577 134.931 170.558 135.802 170.541C136.026 170.536 136.25 170.531 136.481 170.525C138.144 170.494 139.791 170.552 141.451 170.646C145.026 170.845 148.597 170.845 152.177 170.839C153.298 170.837 154.419 170.839 155.541 170.841C159.27 170.842 162.98 170.802 166.699 170.508C166.795 170.314 166.892 170.121 166.992 169.922C167.672 169.803 168.356 169.704 169.043 169.629C168.946 169.919 168.849 170.209 168.75 170.508C169.426 170.218 170.103 169.928 170.8 169.629C170.8 169.822 170.8 170.016 170.8 170.215C171.09 170.215 171.38 170.215 171.679 170.215C171.679 170.021 171.679 169.828 171.679 169.629C171.486 169.532 171.293 169.436 171.093 169.336C171.464 169.18 171.837 169.028 172.21 168.878C172.418 168.793 172.625 168.708 172.839 168.621C173.437 168.457 173.437 168.457 174.316 168.75C174.671 167.817 174.904 167.1 174.884 166.095C174.906 165.055 175.221 164.631 175.781 163.77C175.877 163.455 175.974 163.141 176.074 162.817C176.17 162.552 176.267 162.286 176.367 162.012C176.657 161.915 176.947 161.818 177.246 161.719C177.342 161.429 177.439 161.139 177.539 160.84C178.088 160.876 178.088 160.876 178.71 161.133C179.421 162.815 179.586 164.617 179.84 166.41C180.036 167.735 180.286 168.953 180.761 170.215C180.568 170.118 180.375 170.021 180.175 169.922C180.079 170.115 179.982 170.309 179.882 170.508C180.366 170.508 180.849 170.508 181.347 170.508C181.256 169.952 181.164 169.397 181.073 168.842C181.022 168.532 180.971 168.223 180.918 167.904C180.819 167.327 180.71 166.752 180.587 166.18C180.454 165.45 180.568 165.063 180.761 164.355C180.755 164.059 180.749 163.763 180.743 163.458C180.761 162.598 180.761 162.598 181.347 161.719C181.154 161.622 180.96 161.525 180.761 161.426C180.761 160.749 180.761 160.072 180.761 159.375C180.955 159.375 181.148 159.375 181.347 159.375C181.342 158.992 181.342 158.992 181.337 158.601C181.333 158.078 181.333 158.078 181.329 157.544C181.326 157.204 181.322 156.864 181.319 156.514C181.326 155.55 181.403 154.603 181.494 153.644C181.677 151.573 181.673 149.514 181.658 147.437C181.657 146.873 181.657 146.873 181.654 146.299C181.651 145.384 181.646 144.469 181.64 143.555C181.422 143.56 181.205 143.566 180.98 143.571C180.693 143.576 180.405 143.58 180.109 143.584C179.825 143.59 179.541 143.595 179.248 143.601C177.571 143.507 176.326 142.749 175.213 141.522C174.644 140.678 174.404 140.162 174.316 139.16C174.598 139.255 174.881 139.35 175.172 139.447C176.476 139.818 177.728 139.847 179.077 139.838C179.322 139.837 179.567 139.836 179.82 139.835C182.466 139.788 184.562 139.194 186.914 137.988C187.107 138.085 187.3 138.182 187.5 138.281C187.355 138.483 187.21 138.684 187.061 138.891C186.874 139.155 186.686 139.419 186.492 139.691C186.306 139.953 186.119 140.215 185.926 140.484C185.41 141.203 185.41 141.203 185.156 142.09C185.548 142.88 185.962 143.633 186.401 144.397C194.544 159.261 199.841 182.227 195.52 199.017C193.83 204.286 190.704 208.451 186.914 212.402C186.545 212.789 186.545 212.789 186.17 213.183C184.717 214.672 183.199 216.024 181.573 217.321C181.041 217.745 180.515 218.177 179.996 218.616C174.676 223.109 169.185 226.202 162.076 226.224C161.795 226.226 161.515 226.228 161.226 226.23C160.302 226.235 159.377 226.239 158.453 226.242C157.976 226.243 157.976 226.243 157.49 226.245C155.804 226.251 154.119 226.256 152.434 226.258C150.707 226.262 148.979 226.272 147.252 226.283C145.913 226.291 144.573 226.293 143.234 226.294C142.598 226.296 141.962 226.299 141.326 226.305C132.981 226.372 127.174 224.391 120.703 219.141C120.532 219.002 120.36 218.863 120.184 218.72C117.837 216.8 115.587 214.773 113.378 212.695C113.147 212.479 112.915 212.263 112.676 212.041C106.394 206.002 103.614 198.939 103.355 190.351C103.212 183.008 103.882 175.632 105.468 168.457C105.536 168.149 105.604 167.841 105.674 167.523C107.589 159.021 110.282 150.372 114.609 142.757C114.915 142.101 114.915 142.101 114.649 141.478C114.12 140.721 113.519 140.064 112.892 139.389C112.466 138.823 112.33 138.387 112.207 137.695ZM176.66 162.598C176.953 163.184 176.953 163.184 176.953 163.184L176.66 162.598ZM176.367 163.477C176.463 163.863 176.56 164.25 176.66 164.648C176.756 164.262 176.853 163.875 176.953 163.477C176.759 163.477 176.566 163.477 176.367 163.477ZM175.781 164.941C175.587 165.425 175.394 165.908 175.195 166.406C175.485 166.116 175.775 165.826 176.074 165.527C175.977 165.334 175.88 165.141 175.781 164.941ZM172.558 169.043C172.268 169.478 172.268 169.478 171.972 169.922C172.456 169.825 172.939 169.729 173.437 169.629C173.437 169.436 173.437 169.242 173.437 169.043C173.147 169.043 172.857 169.043 172.558 169.043ZM113.671 151.758C109.012 163.88 104.845 186.029 109.79 198.285C109.998 198.699 110.219 199.108 110.449 199.512C110.671 199.904 110.671 199.904 110.897 200.304C113.441 204.535 117.115 207.239 121.875 208.594C124.276 209.108 126.737 209.548 129.199 209.473C129.518 208.514 129.416 207.897 129.275 206.914C128.951 204.108 128.951 204.108 129.492 203.027C130.237 203.138 130.586 203.236 131.103 203.8C131.248 203.998 131.393 204.196 131.543 204.401C133.046 206.21 135.352 207.426 137.695 207.715C139.924 207.831 142.08 207.565 144.287 207.275C149.033 206.701 153.325 206.707 158.057 207.428C160.944 207.847 163.558 207.788 166.113 206.25C167.21 205.412 168.185 204.485 169.134 203.485C169.628 203.027 169.628 203.027 170.507 203.027C171.362 204.736 170.743 207.351 170.507 209.18C172.782 210.317 177.377 208.824 179.711 208.055C184.424 206.374 187.598 203.37 189.843 198.926C194.47 186.903 191.822 165.531 186.969 153.754C186.759 153.282 186.547 152.811 186.328 152.344C186.231 152.344 186.134 152.344 186.035 152.344C186.03 152.632 186.026 152.921 186.022 153.218C185.91 160.223 185.797 167.209 184.167 174.06C184.113 174.291 184.059 174.522 184.003 174.759C183.427 176.957 182.413 178.912 180.468 180.176C178.912 181.065 177.071 181.002 175.367 180.591C173.639 179.975 172.225 178.978 170.747 177.918C166.624 175.001 161.924 175.103 157.072 175.107C156.51 175.106 155.948 175.105 155.387 175.103C154.214 175.101 153.041 175.101 151.868 175.103C150.377 175.105 148.887 175.1 147.396 175.093C146.237 175.088 145.078 175.088 143.918 175.089C143.369 175.089 142.821 175.087 142.272 175.084C136.301 175.056 131.628 175.743 126.78 179.505C124.892 180.902 122.966 180.989 120.703 180.762C119.229 180.28 118.295 179.43 117.48 178.125C116.489 176.067 115.965 173.95 115.539 171.716C115.477 171.393 115.415 171.07 115.351 170.737C114.177 164.448 114.097 158.136 113.964 151.758C113.868 151.758 113.771 151.758 113.671 151.758Z" fill="black"/>
<path d="M175.105 185.499C177.37 186.315 180.208 186.487 182.465 185.596C183.72 184.957 184.622 184.028 185.559 182.991C186.036 182.52 186.036 182.52 186.622 182.52C186.596 183.411 186.565 184.302 186.53 185.193C186.52 185.569 186.52 185.569 186.51 185.953C186.447 187.451 186.287 188.551 185.45 189.844C183.611 191.323 181.87 191.48 179.59 191.309C176.856 190.835 174.502 189.761 172.028 188.544C167.706 186.464 163.747 185.135 158.898 185.109C158.583 185.107 158.583 185.107 158.262 185.105C157.574 185.1 156.886 185.098 156.199 185.097C155.961 185.096 155.723 185.095 155.479 185.094C154.219 185.09 152.96 185.087 151.701 185.086C150.414 185.084 149.127 185.077 147.841 185.069C146.839 185.063 145.838 185.062 144.836 185.062C144.363 185.061 143.889 185.058 143.415 185.054C136.781 185.004 131.548 186.928 125.589 189.719C122.694 191.062 119.624 192.058 116.433 191.076C115.47 190.611 114.658 190.069 113.965 189.258C113.269 187.021 113.32 184.846 113.38 182.52C113.67 182.52 113.96 182.52 114.258 182.52C114.626 182.917 114.626 182.917 115.009 183.453C116.362 185.076 117.86 185.884 119.958 186.176C122.778 186.285 125.141 185.613 127.735 184.57C127.919 184.497 128.104 184.423 128.294 184.347C129.038 184.049 129.782 183.749 130.525 183.448C144.596 177.786 161.438 179.799 175.105 185.499Z" fill="black"/>
<path d="M131.836 103.711C134.289 103.857 136.597 104.405 138.977 104.993C141.558 105.612 144.137 106.222 146.759 106.641C146.967 106.677 147.176 106.713 147.391 106.751C151.824 107.401 156.145 106.189 160.419 105.157C161.29 104.949 162.162 104.742 163.034 104.536C163.573 104.41 164.11 104.281 164.647 104.15C165.946 103.843 167.112 103.635 168.457 103.711C167.835 104.333 167.428 104.515 166.619 104.834C166.23 104.988 166.23 104.988 165.833 105.145C165.551 105.254 165.269 105.364 164.979 105.477C164.689 105.591 164.398 105.705 164.098 105.823C163.481 106.064 162.864 106.306 162.246 106.546C161.31 106.911 160.375 107.279 159.44 107.647C158.839 107.882 158.238 108.117 157.637 108.351C157.36 108.46 157.084 108.569 156.799 108.682C149.909 111.349 145.33 109.817 138.759 107.045C138.051 106.746 137.341 106.452 136.631 106.158C136.175 105.967 135.72 105.776 135.265 105.585C135.055 105.498 134.845 105.411 134.628 105.322C133.597 104.884 132.693 104.438 131.836 103.711Z" fill="black"/>
<path d="M138.574 100.488C140.669 100.611 142.725 100.776 144.8 101.093C148.426 101.59 151.805 101.577 155.367 100.684C157.463 100.304 159.597 100.423 161.719 100.488C160.638 101.446 159.418 101.826 158.075 102.283C157.855 102.36 157.635 102.438 157.408 102.517C151.2 104.669 144.46 103.319 138.574 100.781C138.574 100.685 138.574 100.588 138.574 100.488Z" fill="black"/>
<path d="M125.977 105.762C127.641 105.674 128.947 105.953 130.518 106.494C130.747 106.573 130.976 106.651 131.213 106.732C135.444 108.235 139.734 110.513 142.383 114.258C142.383 114.451 142.383 114.645 142.383 114.844C141.381 114.464 140.465 114.028 139.538 113.491C139.273 113.339 139.008 113.187 138.735 113.031C138.452 112.868 138.17 112.705 137.878 112.537C135.163 110.983 132.417 109.506 129.625 108.094C128.298 107.416 127.095 106.764 125.977 105.762Z" fill="black"/>
<path d="M173.438 105.469C173.438 105.759 173.438 106.049 173.438 106.348C173.058 106.546 173.058 106.546 172.67 106.749C171.484 107.37 170.3 107.994 169.116 108.618C168.903 108.73 168.691 108.842 168.471 108.958C165.549 110.501 162.674 112.09 159.889 113.872C159.675 114.006 159.461 114.14 159.241 114.278C159.06 114.396 158.879 114.513 158.692 114.633C158.203 114.844 158.203 114.844 157.324 114.551C161.194 109.648 167.367 106.605 173.438 105.469Z" fill="black"/>
</svg>
