<svg width="300" height="300" viewBox="0 0 300 300" fill="none" xmlns="http://www.w3.org/2000/svg">
<path d="M89.4398 82.2353C90.1775 82.2341 90.9152 82.2329 91.653 82.2315C93.1909 82.2293 94.7288 82.2294 96.2668 82.2309C97.8368 82.2325 99.4068 82.2304 100.977 82.2249C102.888 82.2183 104.799 82.216 106.71 82.2172C107.432 82.217 108.155 82.2155 108.877 82.2126C115.173 82.1898 120.811 82.343 125.635 86.9019C128.618 89.8725 129.981 93.4599 130.664 97.5578C130.664 99.8781 130.664 102.198 130.664 104.589C136.078 104.492 141.492 104.396 147.07 104.296C147.078 103.048 147.085 101.799 147.093 100.513C147.102 99.5143 147.113 98.5159 147.124 97.5176C147.135 96.4653 147.145 95.4131 147.149 94.3607C147.154 93.3462 147.164 92.332 147.178 91.3176C147.184 90.7441 147.185 90.1706 147.185 89.5971C147.239 86.3272 147.239 86.3272 148.535 84.9601C149.552 84.2819 149.946 84.2988 151.147 84.2926C151.691 84.2877 151.691 84.2877 152.246 84.2827C152.649 84.282 153.052 84.2813 153.455 84.2808C153.879 84.278 154.304 84.2751 154.728 84.2718C155.885 84.2638 157.042 84.2594 158.198 84.2556C159.421 84.251 160.644 84.2432 161.866 84.2357C163.932 84.2235 165.998 84.2134 168.064 84.2048C170.931 84.1929 173.797 84.1774 176.663 84.1611C181.333 84.1346 186.003 84.1133 190.673 84.0965C193.025 84.088 195.377 84.0767 197.729 84.0604C198.918 84.0525 200.107 84.0468 201.296 84.0418C201.81 84.0391 202.323 84.0355 202.836 84.0307C207.265 83.9899 211.53 84.2123 215.002 87.3405C217.292 89.8661 218.332 93.1974 218.338 96.5497C218.339 96.7607 218.34 96.9716 218.342 97.189C218.345 97.8925 218.344 98.5959 218.343 99.2994C218.344 99.8102 218.346 100.321 218.348 100.832C218.353 102.233 218.354 103.634 218.354 105.035C218.355 106.546 218.36 108.058 218.364 109.57C218.37 112.188 218.375 114.807 218.378 117.425C218.382 121.211 218.389 124.996 218.398 128.782C218.411 134.924 218.422 141.066 218.431 147.208C218.44 153.175 218.45 159.141 218.461 165.107C218.462 165.475 218.463 165.843 218.464 166.222C218.467 168.067 218.471 169.912 218.474 171.757C218.505 187.063 218.531 202.369 218.554 217.675C204.85 217.685 191.145 217.694 177.44 217.7C177.237 217.7 177.035 217.7 176.826 217.7C172.417 217.702 168.009 217.703 163.601 217.705C161.439 217.706 159.277 217.706 157.116 217.707C156.793 217.707 156.793 217.707 156.464 217.707C149.491 217.71 142.518 217.714 135.546 217.72C128.38 217.725 121.215 217.729 114.05 217.73C113.038 217.73 112.026 217.73 111.014 217.731C110.814 217.731 110.615 217.731 110.41 217.731C107.204 217.731 103.997 217.734 100.791 217.738C97.5675 217.741 94.344 217.742 91.1205 217.741C89.374 217.741 87.6275 217.742 85.8809 217.745C84.2821 217.748 82.6833 217.748 81.0844 217.746C80.5059 217.746 79.9275 217.746 79.349 217.748C78.5624 217.75 77.7758 217.749 76.9892 217.747C76.6527 217.749 76.6527 217.749 76.3095 217.752C72.5687 217.729 69.8708 216.527 67.1662 213.964C63.9964 210.695 63.6882 206.008 63.72 201.659C63.7188 201.218 63.7172 200.776 63.7151 200.335C63.7108 199.136 63.7137 197.937 63.7179 196.738C63.7212 195.439 63.7177 194.14 63.715 192.842C63.711 190.303 63.7132 187.764 63.7176 185.226C63.7225 182.265 63.7216 179.303 63.7205 176.342C63.7188 171.055 63.7229 165.769 63.7301 160.482C63.7371 155.362 63.7392 150.241 63.7361 145.121C63.7328 139.535 63.7322 133.948 63.7365 128.362C63.7369 127.766 63.7374 127.169 63.7378 126.572C63.738 126.279 63.7382 125.985 63.7385 125.683C63.7399 123.623 63.7393 121.563 63.7381 119.503C63.7366 116.989 63.7384 114.475 63.7442 111.962C63.7471 110.681 63.7486 109.401 63.7463 108.12C63.7442 106.945 63.7463 105.769 63.7514 104.594C63.7526 104.172 63.7524 103.75 63.7504 103.328C63.7346 99.5771 63.9278 95.2667 65.7711 91.8998C65.8708 91.7099 65.9706 91.52 66.0733 91.3243C68.4361 87.0508 72.0942 84.2868 76.7574 82.9093C80.9409 82.1315 85.2024 82.2325 89.4398 82.2353ZM72.2897 92.5041C70.6074 94.8968 69.9839 97.4525 69.9807 100.349C69.9795 100.731 69.9784 101.113 69.9773 101.506C69.9775 101.928 69.9777 102.35 69.978 102.772C69.9773 103.221 69.9764 103.671 69.9754 104.121C69.973 105.355 69.9725 106.59 69.9723 107.824C69.9717 109.156 69.9695 110.488 69.9676 111.82C69.9636 114.732 69.9618 117.643 69.9605 120.554C69.9597 122.372 69.9585 124.19 69.9571 126.007C69.9536 131.04 69.9506 136.072 69.9496 141.104C69.9495 141.426 69.9494 141.748 69.9494 142.08C69.9493 142.403 69.9492 142.725 69.9492 143.058C69.949 143.712 69.9489 144.366 69.9488 145.02C69.9487 145.344 69.9487 145.669 69.9486 146.003C69.9474 151.262 69.9423 156.522 69.9355 161.781C69.9286 167.181 69.9249 172.58 69.9246 177.979C69.9243 181.011 69.9226 184.043 69.9173 187.074C69.9128 189.655 69.9113 192.236 69.9137 194.817C69.9148 196.134 69.9146 197.451 69.9105 198.768C69.9067 199.973 69.9071 201.179 69.9106 202.384C69.9112 202.82 69.9103 203.256 69.9077 203.692C69.8653 207.282 69.8653 207.282 71.6122 210.296C72.9998 211.48 74.045 211.607 75.8423 211.596C76.0776 211.596 76.3128 211.597 76.5551 211.598C77.3483 211.6 78.1414 211.597 78.9346 211.595C79.5069 211.596 80.0793 211.596 80.6517 211.597C82.2285 211.599 83.8052 211.597 85.382 211.595C87.0809 211.593 88.7798 211.594 90.4787 211.595C93.8081 211.597 97.1375 211.595 100.467 211.593C104.145 211.59 107.822 211.59 111.5 211.59C118.813 211.59 126.126 211.587 133.439 211.583C139.941 211.579 146.444 211.577 152.946 211.577C153.364 211.577 153.781 211.577 154.199 211.577C154.405 211.577 154.612 211.577 154.824 211.577C155.864 211.577 156.903 211.577 157.942 211.577C158.147 211.577 158.352 211.577 158.563 211.577C163.992 211.577 169.42 211.576 174.848 211.574C175.427 211.574 175.427 211.574 176.017 211.574C176.791 211.573 177.566 211.573 178.34 211.573C181.044 211.572 183.747 211.572 186.45 211.572C189.742 211.571 193.033 211.57 196.325 211.567C198.006 211.566 199.687 211.565 201.368 211.565C202.904 211.566 204.44 211.565 205.976 211.563C206.534 211.562 207.093 211.562 207.651 211.563C208.405 211.563 209.158 211.562 209.912 211.56C210.133 211.561 210.355 211.562 210.582 211.562C211.576 211.647 211.576 211.647 212.402 211.23C212.431 210.745 212.439 210.259 212.439 209.774C212.44 209.456 212.441 209.138 212.442 208.81C212.441 208.455 212.44 208.1 212.44 207.735C212.441 207.173 212.441 207.173 212.441 206.599C212.443 205.547 212.442 204.496 212.441 203.444C212.441 202.532 212.441 201.62 212.442 200.708C212.444 197.649 212.442 194.589 212.439 191.53C212.438 190.457 212.438 189.385 212.437 188.312C212.433 181.49 212.424 174.668 212.412 167.846C212.406 164.329 212.401 160.813 212.396 157.296C212.386 148.727 212.372 140.158 212.347 131.589C212.336 127.715 212.327 123.84 212.323 119.966C212.319 116.633 212.311 113.3 212.298 109.967C212.292 108.247 212.287 106.527 212.287 104.807C212.287 103.22 212.282 101.634 212.273 100.047C212.27 99.4698 212.27 98.8928 212.271 98.3158C212.273 97.5307 212.268 96.7461 212.261 95.9611C212.263 95.7353 212.266 95.5094 212.268 95.2767C212.244 93.7579 211.976 92.5575 210.937 91.4054C209.477 90.3219 208.006 90.0632 206.209 90.0926C205.981 90.0916 205.753 90.0906 205.518 90.0896C204.76 90.0877 204.002 90.0941 203.244 90.1005C202.699 90.1008 202.153 90.1007 201.607 90.1C200.129 90.0997 198.652 90.1065 197.175 90.1147C195.629 90.1221 194.083 90.1227 192.538 90.1241C189.613 90.1278 186.688 90.1374 183.763 90.1492C180.433 90.1623 177.102 90.1687 173.771 90.1746C166.922 90.1868 160.072 90.2083 153.222 90.2335C153.222 94.9709 153.222 99.7082 153.222 104.589C154.581 104.59 155.94 104.591 157.341 104.593C161.825 104.598 166.31 104.611 170.794 104.628C173.514 104.638 176.233 104.645 178.953 104.646C181.323 104.647 183.693 104.653 186.064 104.665C187.319 104.672 188.574 104.675 189.829 104.673C191.011 104.671 192.192 104.675 193.373 104.685C193.807 104.688 194.24 104.687 194.674 104.685C195.266 104.681 195.858 104.688 196.45 104.695C196.782 104.696 197.113 104.696 197.455 104.697C198.626 104.942 199.07 105.42 199.804 106.347C199.954 107.562 199.964 108.562 199.218 109.569C197.551 110.788 194.808 110.491 192.83 110.49C192.549 110.49 192.269 110.491 191.98 110.492C191.043 110.495 190.107 110.495 189.171 110.496C188.499 110.497 187.826 110.498 187.153 110.5C185.328 110.504 183.504 110.506 181.68 110.507C180.54 110.508 179.4 110.509 178.261 110.51C175.102 110.514 171.944 110.517 168.786 110.518C168.584 110.518 168.383 110.518 168.175 110.518C167.871 110.518 167.871 110.518 167.562 110.518C167.152 110.519 166.743 110.519 166.333 110.519C166.13 110.519 165.926 110.519 165.717 110.519C162.42 110.52 159.123 110.525 155.826 110.532C152.438 110.539 149.05 110.543 145.662 110.543C143.761 110.543 141.859 110.545 139.958 110.55C138.172 110.555 136.385 110.556 134.598 110.553C133.942 110.553 133.286 110.554 132.631 110.557C131.736 110.561 130.841 110.559 129.946 110.556C129.686 110.558 129.426 110.561 129.158 110.563C127.687 110.551 126.661 110.395 125.39 109.569C124.926 108.64 125.045 107.636 125.035 106.615C125.027 106.125 125.019 105.636 125.01 105.146C124.998 104.378 124.988 103.609 124.98 102.84C124.931 98.4597 124.829 94.4237 121.594 91.1113C119.592 89.2779 117.732 88.4451 115.012 88.4326C114.697 88.4305 114.381 88.4284 114.056 88.4263C113.542 88.4251 113.542 88.4251 113.017 88.4239C112.653 88.422 112.289 88.42 111.915 88.418C110.711 88.4123 109.508 88.4088 108.304 88.4059C107.888 88.4047 107.473 88.4035 107.057 88.4023C105.103 88.3967 103.149 88.3926 101.194 88.3901C98.9453 88.3873 96.6965 88.3796 94.4475 88.3677C92.7048 88.3588 90.9621 88.3545 89.2194 88.3536C88.1807 88.3529 87.142 88.3503 86.1033 88.3429C84.9422 88.3347 83.7812 88.336 82.6201 88.338C82.1109 88.3324 82.1109 88.3324 81.5913 88.3267C77.8447 88.3505 74.6784 89.5494 72.2897 92.5041Z" fill="black"/>
<path d="M90.4165 121.4C90.8605 121.398 91.3044 121.397 91.7484 121.394C92.9676 121.389 94.1865 121.393 95.4057 121.399C96.7208 121.403 98.0358 121.4 99.3509 121.397C101.927 121.392 104.502 121.396 107.078 121.402C110.077 121.409 113.075 121.409 116.074 121.408C121.424 121.407 126.773 121.413 132.123 121.423C137.316 121.433 142.508 121.437 147.701 121.435C153.354 121.433 159.007 121.434 164.66 121.44C164.959 121.44 165.258 121.44 165.566 121.44C166.166 121.441 166.766 121.442 167.366 121.442C169.457 121.444 171.548 121.445 173.639 121.444C176.187 121.444 178.734 121.447 181.282 121.453C182.582 121.457 183.882 121.459 185.182 121.457C186.372 121.456 187.561 121.458 188.751 121.464C189.182 121.466 189.613 121.465 190.044 121.464C190.629 121.462 191.213 121.465 191.798 121.47C192.123 121.47 192.448 121.471 192.783 121.471C193.769 121.597 194.319 121.88 195.117 122.461C195.8 123.403 195.863 124.251 195.703 125.39C195.169 126.247 194.57 126.983 193.653 127.441C193.071 127.47 192.488 127.479 191.905 127.48C191.531 127.481 191.156 127.482 190.77 127.483C190.35 127.483 189.93 127.483 189.51 127.482C189.067 127.483 188.624 127.484 188.181 127.485C186.96 127.487 185.738 127.488 184.516 127.488C183.2 127.489 181.884 127.491 180.568 127.493C177.689 127.497 174.81 127.499 171.93 127.5C170.133 127.501 168.336 127.502 166.54 127.503C161.568 127.507 156.596 127.51 151.624 127.511C151.306 127.511 150.987 127.511 150.659 127.511C150.34 127.511 150.021 127.511 149.692 127.511C149.045 127.511 148.398 127.511 147.752 127.512C147.27 127.512 147.27 127.512 146.779 127.512C141.579 127.513 136.379 127.518 131.178 127.525C125.843 127.532 120.508 127.535 115.173 127.536C112.176 127.536 109.179 127.538 106.182 127.543C103.63 127.548 101.079 127.549 98.5269 127.547C97.2243 127.546 95.9218 127.546 94.6192 127.55C93.4274 127.554 92.2356 127.553 91.0438 127.55C90.612 127.549 90.1802 127.55 89.7485 127.553C89.1626 127.556 88.5767 127.553 87.9909 127.55C87.6651 127.55 87.3394 127.551 87.0038 127.551C85.8313 127.403 85.0152 126.988 84.2654 126.068C83.985 125.03 83.9631 124.035 84.3753 123.047C86.0006 121.079 88.0321 121.378 90.4165 121.4Z" fill="black"/>
</svg>
