<svg width="300" height="300" viewBox="0 0 300 300" fill="none" xmlns="http://www.w3.org/2000/svg">
<path d="M125.393 40.4297C125.761 40.5143 126.13 40.5989 126.51 40.686C127.016 40.796 127.523 40.9059 128.029 41.0156C128.252 41.0682 128.475 41.1209 128.705 41.1751C131.004 41.6656 133.264 41.6664 135.601 41.6366C136.327 41.6277 137.053 41.6228 137.779 41.6191C139.841 41.6076 141.903 41.5887 143.965 41.5674C166.141 41.3477 166.141 41.3477 173.439 48.0469C173.705 48.2893 173.971 48.5318 174.245 48.7816C176.564 50.968 178.459 53.4314 180.349 55.9885C181.043 56.9173 181.771 57.8192 182.5 58.7208C182.814 59.1797 182.814 59.1797 182.814 59.7656C183.154 59.7558 183.493 59.746 183.842 59.7359C187.886 59.7412 191.409 61.3258 194.295 64.0869C200.908 71.0201 202.927 81.333 202.799 90.6418C202.622 96.6456 201.776 102.634 200.869 108.564C200.838 108.773 200.806 108.981 200.774 109.196C200.688 109.761 200.601 110.325 200.513 110.889C200.299 112.711 200.373 114.15 200.96 115.887C203.158 122.449 201.294 129.385 198.342 135.41C195.817 140.276 191.954 145.122 187.209 147.949C186.69 148.095 186.69 148.095 186.161 148.243C184.829 149.02 184.702 149.705 184.306 151.151C184.231 151.46 184.156 151.769 184.078 152.087C183.999 152.371 183.92 152.655 183.839 152.948C182.241 159.036 181.755 165.133 181.716 171.405C181.708 172.091 181.699 172.778 181.69 173.464C181.668 175.116 181.653 176.767 181.643 178.418C181.917 178.506 182.192 178.594 182.475 178.685C183.794 179.14 184.553 179.618 185.248 180.859C185.663 181.717 186.055 182.582 186.44 183.453C189.123 189.525 193.319 192.69 198.928 195.996C199.109 196.103 199.29 196.21 199.476 196.32C206.233 200.267 213.388 203.404 220.638 206.319C221.594 206.705 222.548 207.095 223.503 207.485C226.633 208.763 229.765 210.036 232.909 211.281C237.057 212.925 241.18 214.598 245.217 216.504C245.413 216.596 245.609 216.687 245.811 216.782C248.105 217.86 250.245 219.041 252.248 220.605C252.477 220.783 252.706 220.96 252.942 221.142C256.908 224.421 258.129 228.842 258.693 233.789C259.054 242.083 258.986 250.39 258.986 258.691C224.182 258.691 189.377 258.691 153.518 258.691C154.049 257.096 154.569 255.571 155.202 254.025C155.277 253.841 155.352 253.658 155.428 253.47C155.588 253.08 155.747 252.69 155.907 252.3C156.159 251.686 156.408 251.072 156.658 250.458C157.412 248.604 158.17 246.754 158.953 244.913C159.187 244.36 159.42 243.807 159.652 243.254C159.94 242.571 160.231 241.889 160.527 241.21C160.718 240.752 160.718 240.752 160.914 240.285C161.028 240.019 161.142 239.754 161.259 239.48C161.492 238.778 161.492 238.778 161.215 238.143C160.606 237.254 159.849 236.503 159.102 235.73C156.095 232.552 153.514 229.058 150.959 225.513C150.698 225.152 150.434 224.793 150.169 224.436C149.123 223.013 149.123 223.013 149.123 222.363C147.683 223.726 146.526 225.252 145.349 226.843C144.464 228.033 143.58 229.147 142.505 230.171C141.476 231.377 140.887 232.105 140.99 233.698C141.086 234.114 141.191 234.529 141.302 234.941C141.421 235.438 141.54 235.934 141.658 236.431C141.762 236.845 141.762 236.845 141.867 237.268C142.255 238.849 142.604 240.439 142.96 242.027C143.184 243.023 143.411 244.019 143.639 245.015C143.684 245.216 143.73 245.417 143.777 245.624C144.012 246.655 144.247 247.685 144.483 248.716C144.715 249.731 144.947 250.746 145.177 251.761C145.305 252.326 145.435 252.891 145.565 253.456C145.643 253.801 145.722 254.147 145.802 254.503C145.871 254.803 145.94 255.104 146.01 255.414C146.223 256.497 146.349 257.596 146.486 258.691C138.559 258.691 130.631 258.691 122.463 258.691C123.122 255.395 123.122 255.395 123.567 253.962C123.666 253.641 123.765 253.32 123.867 252.989C124.026 252.482 124.026 252.482 124.188 251.965C124.355 251.426 124.355 251.426 124.525 250.876C124.76 250.118 124.996 249.36 125.233 248.603C125.531 247.651 125.827 246.698 126.122 245.745C127.456 241.436 128.849 237.156 130.373 232.91C130.47 232.62 130.566 232.33 130.666 232.031C130.232 231.29 129.788 230.606 129.293 229.907C128.311 228.498 127.396 227.09 126.564 225.586C126.405 225.785 126.245 225.983 126.08 226.188C124.732 227.853 123.354 229.472 121.91 231.055C121.189 231.851 120.49 232.664 119.8 233.487C119.24 234.082 119.24 234.082 118.452 234.714C116.841 236.033 116.841 236.033 116.22 237.938C116.255 238.288 116.291 238.638 116.328 239C116.346 239.199 116.364 239.398 116.383 239.603C116.449 240.303 116.527 241.001 116.604 241.699C116.66 242.26 116.715 242.822 116.77 243.383C116.989 245.583 117.223 247.782 117.459 249.98C117.56 250.927 117.659 251.874 117.758 252.822C117.789 253.107 117.821 253.393 117.853 253.687C117.881 253.96 117.909 254.232 117.939 254.512C117.964 254.747 117.989 254.982 118.015 255.224C118.089 256.378 118.068 257.536 118.068 258.691C92.7382 258.691 67.4081 258.691 41.3105 258.691C41.1283 257.234 40.9778 255.914 40.9481 254.466C40.9403 254.113 40.9326 253.76 40.9246 253.396C40.9179 253.02 40.9112 252.644 40.9042 252.256C40.8967 251.858 40.8891 251.459 40.8816 251.061C40.8661 250.227 40.8518 249.393 40.8381 248.559C40.824 247.714 40.8077 246.868 40.7894 246.023C40.4378 229.718 40.4378 229.718 45.7416 223.48C51.5446 217.433 59.3474 214.857 67.1081 212.309C75.8502 209.433 84.4411 206.128 92.873 202.441C93.1945 202.301 93.516 202.161 93.8473 202.016C101.311 198.733 108.662 194.971 114.671 189.367C115.139 188.965 115.139 188.965 115.699 188.61C116.661 187.959 117.116 187.512 117.394 186.36C117.487 185.322 117.498 184.312 117.482 183.27C117.502 182.742 117.502 182.742 117.521 182.203C117.538 180.266 117.538 180.266 116.623 178.633C115.943 178.091 115.943 178.091 115.234 177.669C107.281 172.725 103.751 157.035 101.721 148.753C101.253 146.738 100.847 144.714 100.49 142.676C100.453 142.466 100.416 142.256 100.378 142.04C100.007 139.809 99.8939 137.612 99.8676 135.356C99.8609 134.93 99.8541 134.505 99.8473 134.079C99.8342 133.229 99.8336 132.38 99.8399 131.529C99.906 129.556 99.906 129.556 99.2416 127.766C98.7279 127.334 98.7279 127.334 97.8535 126.855C93.8608 121.971 91.409 112.744 91.5764 106.508C91.7519 105.458 92.1107 104.873 92.8627 104.13C94.0278 103.311 95.3226 102.923 96.6816 102.539C97.022 102.44 97.022 102.44 97.3694 102.339C98.3518 102.073 99.1728 101.953 100.197 101.953C100.395 99.0848 99.922 96.9717 98.8239 94.3359C96.6829 88.8804 93.7983 80.8085 95.4149 74.8564C95.9268 73.8858 96.3869 73.7363 97.398 73.3372C97.7133 73.2097 98.0287 73.0823 98.3536 72.9509C98.684 72.8235 99.0145 72.696 99.3549 72.5647C99.6876 72.4316 100.02 72.2985 100.363 72.1613C101.185 71.8332 102.009 71.5102 102.834 71.1914C102.633 71.0369 102.432 70.8823 102.225 70.7231C101.961 70.517 101.697 70.3109 101.425 70.0985C101.164 69.8956 100.902 69.6928 100.633 69.4837C99.397 68.4048 98.6612 67.1694 98.1464 65.625C97.8257 60.7463 98.8477 57.1646 102.078 53.3661C102.537 52.8574 103.002 52.3529 103.473 51.8543C104.02 51.3068 104.02 51.3068 104.299 50.6836C104.492 50.6836 104.686 50.6836 104.885 50.6836C104.935 51.0371 104.985 51.3906 105.036 51.7548C105.107 52.2278 105.179 52.7008 105.251 53.1738C105.283 53.4057 105.315 53.6376 105.348 53.8765C105.822 56.918 107.188 59.1786 109.664 61.0474C110.022 61.3059 110.382 61.563 110.744 61.8164C110.647 61.623 110.551 61.4297 110.451 61.2305C109.745 55.5708 110.545 50.1074 113.07 44.9707C113.164 44.7777 113.259 44.5847 113.357 44.3858C114.011 43.1162 114.732 42.048 115.725 41.0156C116.015 41.0156 116.305 41.0156 116.604 41.0156C116.758 41.3238 116.758 41.3238 116.916 41.6382C118.846 45.3479 120.809 47.3182 124.854 48.6431C126.534 49.0997 128.05 49.319 129.787 49.2188C129.666 49.1039 129.545 48.9891 129.421 48.8708C128.141 47.5451 127.265 46.1257 126.436 44.4946C126.333 44.2952 126.229 44.0958 126.122 43.8904C125.531 42.6878 125.271 41.7998 125.393 40.4297ZM166.222 76.4786C152.704 80.1287 152.704 80.1287 147.072 80.2734C146.848 80.2794 146.623 80.2854 146.392 80.2916C140.5 80.4266 134.901 79.8392 129.118 78.7689C120.048 76.8682 120.048 76.8682 111.422 79.295C106.645 82.7569 105.895 88.3974 105.009 93.8308C104.605 96.4323 104.258 99.0223 104.299 101.66C104.639 101.667 104.639 101.667 104.987 101.673C112.175 101.824 117.631 102.385 123.635 106.641C125.131 107.638 126.848 107.313 128.579 107.062C130.085 106.735 131.15 105.992 132.414 105.139C139.723 100.624 150.378 100.633 158.498 102.539C158.701 102.586 158.904 102.633 159.113 102.682C164.285 103.938 169.214 106.197 173.732 108.984C173.829 108.791 173.926 108.598 174.025 108.398C173.723 107.709 173.723 107.709 173.26 106.935C173.089 106.634 172.917 106.334 172.741 106.025C172.555 105.702 172.368 105.38 172.176 105.048C171.798 104.38 171.42 103.713 171.043 103.045C170.509 102.103 169.974 101.161 169.436 100.221C169.013 99.4773 168.598 98.7293 168.184 97.9797C168.058 97.7626 167.932 97.5455 167.802 97.3218C167.007 95.8604 166.879 94.7953 167.287 93.1641C167.34 92.9406 167.394 92.7171 167.449 92.4868C167.628 91.7693 167.822 91.0569 168.02 90.3442C168.152 89.8646 168.283 89.3847 168.413 88.9046C168.471 88.6955 168.529 88.4864 168.589 88.271C168.935 86.8412 169.082 85.4801 169.084 84.0099C169.084 83.497 169.084 83.497 169.085 82.9737C169.084 82.6204 169.083 82.2671 169.082 81.9031C169.083 81.5509 169.084 81.1987 169.085 80.8359C169.083 79.1541 169.059 77.5344 168.752 75.8789C167.923 75.8789 167.025 76.2598 166.222 76.4786ZM99.0253 107.812C97.4125 109.737 97.7151 112.773 97.8535 115.137C98.2716 118.87 98.8989 122.874 101.955 125.391C104.811 127.281 109.34 126.962 112.6 126.456C113.782 126.208 114.907 125.864 116.018 125.391C116.414 125.247 116.414 125.247 116.818 125.1C117.909 124.134 117.92 122.887 118.123 121.49C118.17 121.201 118.217 120.911 118.266 120.613C118.401 119.765 118.528 118.916 118.654 118.066C118.721 117.644 118.789 117.223 118.857 116.801C119.305 113.898 119.481 111.638 118.068 108.984C115.808 106.531 112.162 106.151 109.016 106C105.637 105.921 101.925 105.898 99.0253 107.812ZM136.525 108.691C134.938 110.739 135.181 113.545 135.354 116.016C135.773 118.973 136.361 122.604 138.869 124.512C141.716 126.247 144.532 126.665 147.823 126.636C148.081 126.638 148.339 126.64 148.605 126.643C151.163 126.635 153.946 126.386 155.861 124.512C158.49 120.357 159.207 115.194 158.278 110.376C157.675 108.565 156.932 107.509 155.297 106.571C150.559 104.831 140.411 105.16 136.525 108.691ZM164.357 109.57C163.709 111.864 163.136 114.157 162.654 116.491C160.741 125.717 160.741 125.717 157.454 127.954C152.413 130.757 146.818 131.054 141.264 129.761C138.03 128.826 135.439 127.26 133.722 124.307C132.041 121.077 131.123 117.962 130.755 114.352C130.674 113.703 130.589 113.117 130.373 112.5C129.489 111.914 128.674 111.833 127.627 111.841C127.315 111.839 127.315 111.839 126.997 111.836C126.034 111.94 125.148 112.227 124.221 112.5C124.169 112.77 124.118 113.039 124.065 113.317C122.829 119.731 121.465 125.902 118.702 131.862C118.348 132.748 118.157 133.524 118.068 134.473C118.377 135.332 118.377 135.332 119.24 135.938C122.315 137.063 125.751 137.232 128.981 137.604C129.544 137.67 130.107 137.737 130.669 137.803C132.035 137.965 133.401 138.124 134.768 138.281C135.16 139.661 134.796 140.227 134.182 141.504C131.163 141.673 128.273 141.397 125.283 140.973C124.935 140.924 124.587 140.876 124.228 140.826C118.085 139.913 118.085 139.913 116.018 137.988C115.211 136.694 115.032 135.73 115.065 134.216C115.07 133.879 115.075 133.541 115.079 133.193C115.143 132.044 115.276 130.925 115.432 129.785C114.968 129.885 114.968 129.885 114.494 129.988C110.931 130.699 107.618 130.667 104.006 130.371C102.488 144.318 107.422 162.195 116.035 173.353C120.144 178.198 126.672 179.516 132.717 180.176C144.192 181.066 155.633 174.451 164.064 167.285C164.333 167.062 164.602 166.838 164.879 166.608C165.672 165.95 165.672 165.95 166.408 165.234C166.408 165.041 166.408 164.848 166.408 164.648C166.602 164.648 166.795 164.648 166.994 164.648C167.74 163.928 168.379 163.099 169.045 162.305C169.277 162.039 169.509 161.774 169.749 161.5C173.179 157.521 174.921 154.151 175.233 148.837C175.504 144.959 175.504 144.959 176.369 143.555C176.93 143.295 176.93 143.295 177.541 143.262C178.144 143.729 178.73 144.218 179.299 144.727C180.499 145.127 181.56 145.084 182.814 145.02C183.021 145.013 183.227 145.007 183.439 145.001C186.546 144.634 189.336 141.328 191.275 139.077C195.519 133.645 198.631 126.26 198.049 119.238C197.704 117.373 197.241 116.05 195.705 114.844C193.954 113.648 192.229 113.414 190.139 113.672C187.307 114.572 185.67 116.451 184.261 118.982C183.454 120.684 182.932 122.442 182.43 124.255C182.355 124.524 182.281 124.793 182.204 125.07C181.787 126.656 181.546 128.144 181.5 129.785C181.35 130.371 181.35 130.371 180.771 130.727C180.575 130.803 180.38 130.879 180.178 130.957C180.081 131.054 179.984 131.15 179.885 131.25C179.201 131.262 178.518 131.262 177.834 131.25C177.798 129.422 177.906 127.706 178.2 125.903C178.238 125.663 178.276 125.422 178.316 125.174C178.617 123.378 179.071 121.706 179.688 119.99C179.904 119.166 179.952 118.834 179.592 118.066C176.524 114.896 172.302 112.907 168.386 111.017C167.941 110.802 167.941 110.802 167.487 110.582C167.208 110.45 166.929 110.318 166.642 110.183C166.392 110.064 166.142 109.946 165.885 109.824C165.216 109.517 165.216 109.517 164.357 109.57ZM177.834 156.738C178.127 157.324 178.127 157.324 178.127 157.324L177.834 156.738ZM177.541 157.324C177.402 157.639 177.402 157.639 177.26 157.959C172.169 168.83 160.545 174.816 150.295 179.883C149.998 180.03 149.701 180.177 149.395 180.329C144.958 182.505 140.642 184.113 135.647 184.277C135.332 184.289 135.017 184.301 134.693 184.313C130.731 184.388 127.084 183.809 123.342 182.52C122.756 182.324 122.17 182.129 121.584 181.934C121.55 183.093 121.529 184.253 121.511 185.413C121.501 185.737 121.491 186.062 121.481 186.397C121.449 189.139 122.013 191.347 123.653 193.579C123.829 193.819 124.006 194.059 124.188 194.307C124.392 194.574 124.596 194.842 124.807 195.117C124.927 195.276 125.048 195.435 125.172 195.598C126.726 197.634 128.326 199.605 130.062 201.489C130.644 202.125 131.205 202.774 131.765 203.43C133.365 205.247 133.365 205.247 135.653 205.822C137.363 205.952 137.363 205.952 138.162 206.046C143.429 206.652 147.196 204.84 151.674 202.381C152.516 201.922 153.363 201.483 154.22 201.054C160.568 197.864 166.547 193.836 171.975 189.258C172.245 189.052 172.515 188.847 172.794 188.635C173.007 188.454 173.22 188.273 173.439 188.086C173.439 187.893 173.439 187.699 173.439 187.5C173.633 187.5 173.826 187.5 174.025 187.5C174.025 187.307 174.025 187.113 174.025 186.914C174.219 186.914 174.412 186.914 174.611 186.914C175.078 186.368 175.506 185.825 175.93 185.248C176.048 185.092 176.166 184.937 176.288 184.777C177.597 183.017 177.921 181.679 177.901 179.508C177.901 179.268 177.901 179.028 177.901 178.78C177.9 177.989 177.896 177.198 177.891 176.407C177.89 175.858 177.889 175.308 177.889 174.758C177.886 173.314 177.881 171.869 177.874 170.425C177.868 168.95 177.866 167.475 177.863 166.001C177.856 163.108 177.846 160.216 177.834 157.324C177.737 157.324 177.641 157.324 177.541 157.324ZM181.35 183.691C181.183 183.96 181.017 184.229 180.845 184.506C177.617 189.66 177.617 189.66 176.076 190.43C176.076 190.623 176.076 190.816 176.076 191.016C175.908 191.089 175.74 191.162 175.567 191.238C174.812 191.652 174.297 192.138 173.678 192.737C165.937 199.8 155.482 204.867 145.9 208.887C146.271 210.087 146.716 211.147 147.328 212.243C147.577 212.692 147.577 212.692 147.832 213.15C148.011 213.466 148.189 213.781 148.372 214.105C148.556 214.431 148.74 214.758 148.929 215.094C150.457 217.782 152.066 220.397 153.811 222.949C153.933 223.129 154.055 223.309 154.181 223.494C155.954 226.088 157.899 228.492 159.963 230.859C160.163 231.096 160.364 231.333 160.571 231.577C160.832 231.883 160.832 231.883 161.098 232.196C161.315 232.45 161.315 232.45 161.535 232.71C162.136 233.329 162.802 233.841 163.479 234.375C164.522 232.152 165.558 229.927 166.57 227.689C168.619 223.16 170.718 218.661 172.908 214.197C180.457 200.58 180.457 200.58 182.814 185.742C182.37 184.462 182.37 184.462 181.35 183.691ZM118.068 191.309C116.961 192.701 116.299 193.922 115.835 195.63C115.774 195.843 115.714 196.057 115.652 196.277C113.769 203.26 113.761 210.49 114.205 217.657C114.217 217.866 114.23 218.075 114.243 218.289C114.53 223.075 114.965 227.846 115.432 232.617C116.67 232.061 117.382 231.212 118.233 230.182C118.386 230 118.538 229.819 118.696 229.631C119.013 229.253 119.33 228.874 119.647 228.494C120.099 227.954 120.555 227.418 121.014 226.884C121.799 225.97 122.571 225.047 123.342 224.121C123.519 223.916 123.696 223.711 123.879 223.5C124.566 222.649 124.819 222.227 124.732 221.118C124.444 219.667 123.99 218.291 123.531 216.886C123.317 215.789 123.374 215.408 123.928 214.453C124.469 213.783 124.469 213.783 125.118 213.098C126.113 212.022 127.077 210.932 128.011 209.802C128.225 209.543 128.439 209.284 128.66 209.017C129.129 208.396 129.454 207.826 129.787 207.129C129.655 207.003 129.522 206.876 129.386 206.746C124.798 202.342 120.272 197.533 118.361 191.309C118.265 191.309 118.168 191.309 118.068 191.309ZM130.703 211.542C130.199 212.388 130.199 212.388 129.787 213.281C129.4 213.861 129.014 214.441 128.615 215.039C133.933 215.136 139.25 215.232 144.729 215.332C144.323 214.116 143.973 213.122 143.374 212.018C143.243 211.765 143.112 211.513 142.978 211.252C142.108 210.36 141.222 210.419 140.041 210.352C139.44 210.283 138.839 210.214 138.239 210.146C134.047 209.544 134.047 209.544 130.703 211.542Z" fill="black"/>
<path d="M149.413 138.281C151.243 139.709 152.767 141.311 153.515 143.555C153.542 144.003 153.553 144.452 153.554 144.902C153.554 145.161 153.554 145.419 153.555 145.686C153.554 145.956 153.552 146.225 153.551 146.503C153.552 146.773 153.554 147.044 153.555 147.323C153.554 147.71 153.554 147.71 153.554 148.106C153.553 148.343 153.553 148.58 153.553 148.824C153.515 149.414 153.515 149.414 153.222 150C152.479 149.867 152.108 149.763 151.555 149.231C150.627 148.679 149.985 148.683 148.928 148.843C147.783 149.307 147.273 150.222 146.568 151.202C142.805 155.966 136.591 158.887 130.663 159.668C126.087 160.042 121.763 159.35 118.065 156.445C117.205 155.676 117.205 155.676 116.601 154.98C116.401 154.763 116.202 154.545 115.996 154.321C114.955 152.843 114.351 151.245 113.891 149.506C113.469 148.142 112.704 147.644 111.546 146.877C111.034 146.484 111.034 146.484 110.723 145.697C110.741 145.02 110.741 145.02 111.034 144.141C112.407 144.253 113.763 144.393 115.12 144.628C126.515 146.606 137.98 146.036 149.413 144.727C149.29 144.508 149.166 144.288 149.039 144.063C148.878 143.774 148.718 143.486 148.552 143.188C148.393 142.903 148.233 142.617 148.068 142.323C147.395 140.988 147.395 140.988 147.362 140.332C147.782 139.769 147.782 139.769 148.369 139.233C148.562 139.054 148.755 138.874 148.954 138.689C149.181 138.487 149.181 138.487 149.413 138.281ZM118.065 149.414C119.002 151.819 120.358 153.614 122.753 154.688C127.381 156.424 132.415 155.782 136.918 154.008C138.915 153.083 140.575 151.895 142.089 150.293C142.089 150.196 142.089 150.1 142.089 150C141.905 150.001 141.72 150.003 141.53 150.004C139.567 150.017 137.603 150.026 135.639 150.032C134.912 150.035 134.184 150.039 133.457 150.044C128.298 150.08 123.204 149.877 118.065 149.414Z" fill="black"/>
</svg>
