<svg width="300" height="300" viewBox="0 0 300 300" fill="none" xmlns="http://www.w3.org/2000/svg">
<path d="M191.565 88.422C191.812 88.4223 192.06 88.4226 192.314 88.4229C205.482 88.4542 225.517 89.0306 235.558 98.9346C237.201 100.865 237.843 102.669 237.719 105.209C237.372 107.627 236.095 109.361 234.375 111.036C234.24 111.168 234.105 111.3 233.966 111.436C232.491 112.794 230.833 113.63 229.047 114.515C225.358 116.395 222.117 118.37 219.141 121.289C218.871 121.548 218.871 121.548 218.596 121.812C217.232 123.235 216.33 124.888 215.415 126.618C211.72 133.53 202.69 135.577 195.885 138.316C193.323 139.348 190.767 140.395 188.214 141.449C184.189 143.111 180.16 144.763 176.129 146.412C175.701 146.587 175.701 146.587 175.264 146.765C174.452 147.098 173.64 147.43 172.828 147.762C172.585 147.861 172.342 147.961 172.092 148.063C171.652 148.242 171.212 148.421 170.772 148.598C170.313 148.788 169.86 148.995 169.411 149.206C167.937 149.671 166.612 148.87 165.278 148.263C165.08 148.175 164.883 148.086 164.679 147.995C164.021 147.701 163.364 147.404 162.708 147.107C161.995 146.788 161.283 146.469 160.57 146.15C160.069 145.925 159.567 145.7 159.066 145.475C156.483 144.317 153.893 143.176 151.302 142.035C145.659 139.549 140.032 137.028 134.411 134.491C132.996 133.852 131.579 133.216 130.162 132.583C126.353 130.881 122.554 129.161 118.762 127.424C115.475 125.917 112.182 124.427 108.875 122.964C105.891 121.643 102.915 120.304 99.939 118.964C99.4308 118.735 98.9225 118.506 98.4143 118.277C97.6648 117.94 96.9153 117.602 96.1658 117.265C90.1961 114.576 84.22 111.904 78.2227 109.278C78.2227 109.084 78.2227 108.891 78.2227 108.692C83.4266 106.507 88.6532 104.398 93.9247 102.381C95.279 101.863 96.6308 101.338 97.9815 100.81C98.9951 100.414 100.009 100.02 101.024 99.6257C101.512 99.4357 102 99.2449 102.487 99.0535C110.795 95.7936 118.949 94.5955 127.835 93.8392C128.881 93.7495 129.926 93.6566 130.972 93.564C132.952 93.3891 134.933 93.2167 136.914 93.0454C140.855 92.7045 144.795 92.3586 148.735 92.0119C149.371 91.9561 150.006 91.9003 150.641 91.8445C157.076 91.2791 163.502 90.6607 169.922 89.9418C170.513 89.8767 171.103 89.8117 171.694 89.7468C173.244 89.5761 174.795 89.4052 176.344 89.2284C181.415 88.6514 186.462 88.4146 191.565 88.422Z" fill="black"/>
<path d="M77.3431 110.449C81.1849 112.095 85.0031 113.787 88.8055 115.521C89.0118 115.615 89.2181 115.709 89.4306 115.806C89.6382 115.901 89.8458 115.996 90.0596 116.093C90.4781 116.284 90.8967 116.475 91.3152 116.666C91.5216 116.76 91.728 116.854 91.9407 116.951C93.9133 117.849 95.8906 118.738 97.8692 119.623C98.5666 119.935 99.2639 120.247 99.9612 120.559C100.141 120.639 100.32 120.72 100.505 120.802C102.973 121.907 105.438 123.017 107.903 124.127C108.402 124.352 108.9 124.576 109.398 124.8C111.176 125.6 112.953 126.4 114.73 127.2C127.312 132.865 127.312 132.865 139.915 138.484C142.504 139.633 145.091 140.787 147.673 141.951C147.919 142.062 148.166 142.174 148.419 142.288C149.412 142.736 150.405 143.184 151.397 143.632C153.999 144.808 156.605 145.974 159.228 147.102C159.447 147.197 159.666 147.291 159.892 147.389C160.92 147.832 161.949 148.272 162.98 148.707C163.342 148.862 163.704 149.018 164.066 149.174C164.378 149.306 164.691 149.438 165.012 149.574C166.436 150.325 166.436 150.325 166.992 151.172C167.163 152.271 167.149 153.359 167.137 154.47C167.137 154.792 167.138 155.114 167.138 155.446C167.138 156.126 167.134 156.806 167.128 157.487C167.12 158.531 167.122 159.575 167.126 160.619C167.124 161.279 167.122 161.94 167.119 162.6C167.119 162.914 167.12 163.227 167.121 163.551C167.117 163.84 167.114 164.129 167.11 164.428C167.108 164.683 167.107 164.938 167.105 165.202C167.068 165.406 167.03 165.61 166.992 165.82C166.113 166.406 166.113 166.406 165.55 166.335C164.682 166.019 163.884 165.59 163.069 165.159C160.887 164.538 158.69 165.639 156.683 166.425C156.379 166.541 156.075 166.658 155.761 166.778C155.131 167.02 154.501 167.263 153.871 167.507C152.953 167.862 152.033 168.21 151.112 168.557C150.552 168.768 149.992 168.978 149.432 169.189C149.168 169.288 148.905 169.387 148.633 169.489C148.393 169.581 148.152 169.672 147.904 169.766C147.587 169.886 147.587 169.886 147.263 170.008C146.775 170.18 146.775 170.18 146.484 170.508C147.934 171.281 149.384 172.055 150.878 172.852C150.878 173.142 150.878 173.432 150.878 173.73C147.222 172.772 143.783 171.139 140.341 169.601C139.463 169.21 138.579 168.833 137.695 168.457C137.695 168.264 137.695 168.07 137.695 167.871C137.399 167.847 137.103 167.823 136.797 167.798C135.788 167.653 135.086 167.288 134.217 166.747C133.43 166.317 132.622 166.021 131.78 165.71C130.172 165.11 128.666 164.401 127.141 163.616C125.711 162.907 124.231 162.322 122.753 161.719C121.492 161.186 120.264 160.651 119.091 159.943C118.147 159.383 117.187 159.061 116.142 158.736C114.044 158.031 112.057 156.98 110.064 156.024C108.263 155.166 106.458 154.342 104.609 153.592C103.447 153.114 102.297 152.611 101.147 152.106C100.937 152.014 100.727 151.921 100.51 151.826C100.014 151.608 99.5186 151.39 99.0228 151.172C99.0228 150.979 99.0228 150.785 99.0228 150.586C98.775 150.562 98.5273 150.538 98.2721 150.513C97.2795 150.296 96.5991 149.935 95.7395 149.407C94.9293 148.966 94.0491 148.781 93.1634 148.535C92.9372 148.398 92.711 148.261 92.4779 148.12C91.6553 147.631 90.8593 147.319 89.9591 146.997C88.6005 146.487 87.3123 145.922 86.0223 145.258C83.3571 143.892 80.6028 142.736 77.8519 141.556C76.7336 141.075 75.6193 140.585 74.505 140.094C73.1626 139.504 71.8147 138.93 70.4583 138.373C69.1063 137.813 67.7953 137.21 66.5033 136.523C66.2132 136.378 65.9232 136.233 65.6244 136.084C65.431 135.939 65.2376 135.794 65.0384 135.645C65.0384 135.258 65.0384 134.871 65.0384 134.473C65.853 134.616 66.5534 134.787 67.3199 135.107C68.4908 135.411 68.9879 135.219 70.099 134.768C70.437 134.634 70.775 134.5 71.1232 134.362C71.6461 134.145 71.6461 134.145 72.1795 133.923C72.5349 133.781 72.8903 133.639 73.2564 133.492C74.1325 133.14 75.0061 132.783 75.8783 132.422C75.8783 132.132 75.8783 131.842 75.8783 131.543C78.6336 130.383 78.6336 130.383 81.4447 129.199C80.2223 128.229 80.2223 128.229 78.8079 128.027C77.8403 128.275 76.9217 128.632 75.9916 128.993C75.7196 129.096 75.4476 129.198 75.1674 129.303C74.2982 129.631 73.4312 129.965 72.564 130.298C71.9838 130.518 71.4034 130.738 70.8228 130.957C69.5131 131.453 68.2043 131.951 66.8976 132.455C66.4395 132.628 65.9793 132.796 65.5173 132.959C64.3295 133.295 64.3295 133.295 63.5736 134.18C63.4108 135.616 63.4108 135.616 64.0646 136.832C64.8007 137.449 65.4824 137.818 66.3556 138.216C66.6781 138.364 67.0006 138.513 67.3329 138.666C67.6815 138.823 68.0301 138.98 68.3892 139.142C68.7573 139.31 69.1252 139.478 69.4931 139.647C70.6432 140.172 71.7957 140.692 72.9486 141.211C73.3087 141.373 73.6688 141.536 74.0289 141.699C76.1391 142.65 78.2522 143.596 80.3663 144.538C82.0161 145.274 83.6643 146.014 85.3126 146.753C85.8551 146.996 86.3976 147.239 86.94 147.482C88.9176 148.369 90.8945 149.257 92.8704 150.146C97.5451 152.252 102.224 154.347 106.904 156.44C107.823 156.85 108.742 157.261 109.661 157.672C109.894 157.776 110.127 157.88 110.366 157.987C114.022 159.622 117.674 161.264 121.325 162.909C125.019 164.573 128.717 166.228 132.421 167.871C136.061 169.486 139.698 171.106 143.332 172.735C143.854 172.97 144.376 173.203 144.899 173.437C145.625 173.761 146.352 174.087 147.078 174.414C147.293 174.51 147.508 174.606 147.73 174.704C150.042 175.747 150.042 175.747 150.878 176.367C150.989 177.229 151.018 177.913 150.97 178.766C150.963 178.985 150.957 179.205 150.95 179.431C150.933 179.973 150.906 180.514 150.878 181.055C149.67 180.89 148.664 180.619 147.553 180.121C147.258 179.99 146.964 179.859 146.661 179.725C146.349 179.583 146.036 179.442 145.715 179.297C145.222 179.077 145.222 179.077 144.719 178.852C143.744 178.416 142.77 177.978 141.796 177.539C141.322 177.327 140.847 177.115 140.373 176.904C138.1 175.889 135.835 174.856 133.571 173.82C133.36 173.723 133.148 173.626 132.93 173.526C132.714 173.427 132.498 173.328 132.276 173.226C131.83 173.022 131.384 172.818 130.938 172.614C130.715 172.511 130.491 172.409 130.261 172.303C127.157 170.882 124.046 169.48 120.924 168.1C117.869 166.748 114.827 165.369 111.785 163.989C107.702 162.138 103.613 160.302 99.5148 158.486C95.7766 156.829 92.0468 155.154 88.3193 153.474C85.036 151.994 81.7488 150.523 78.4562 149.064C76.5217 148.206 74.5884 147.346 72.6556 146.484C72.3142 146.332 72.3142 146.332 71.9659 146.177C70.5869 145.562 69.209 144.945 67.8325 144.324C67.401 144.13 66.9693 143.936 66.5372 143.744C65.9441 143.479 65.3521 143.211 64.7603 142.944C64.424 142.792 64.0876 142.641 63.741 142.485C62.9876 142.09 62.9876 142.09 62.6947 141.504C62.5932 140.183 62.5575 138.859 62.5152 137.535C62.4934 136.877 62.4668 136.219 62.44 135.562C62.4258 135.142 62.4119 134.722 62.3983 134.302C62.3848 133.921 62.3713 133.539 62.3574 133.147C62.4009 132.147 62.4944 131.53 62.9876 130.664C63.4897 130.298 63.4897 130.298 64.1 130.037C64.4444 129.886 64.4444 129.886 64.7957 129.731C65.045 129.628 65.2943 129.525 65.5511 129.419C65.8083 129.308 66.0656 129.197 66.3306 129.083C67.167 128.725 68.0065 128.375 68.847 128.027C69.1371 127.906 69.4273 127.785 69.7262 127.66C74.7947 125.542 74.7947 125.542 77.0501 124.805C77.0495 124.629 77.0488 124.454 77.0482 124.273C77.0417 122.453 77.0373 120.633 77.034 118.813C77.0326 118.133 77.0306 117.453 77.028 116.772C77.0245 115.797 77.0228 114.822 77.0215 113.847C77.02 113.541 77.0185 113.235 77.0169 112.919C77.0169 112.638 77.0169 112.356 77.0169 112.066C77.0162 111.817 77.0156 111.568 77.0149 111.311C77.0501 110.742 77.0501 110.742 77.3431 110.449ZM82.4517 130.646C81.0185 131.17 79.5826 131.682 78.1385 132.176C77.8092 132.289 77.4799 132.401 77.1406 132.518C76.4849 132.742 75.8289 132.965 75.1727 133.187C73.026 133.924 70.9313 134.747 68.847 135.645C69.861 136.748 70.8563 137.277 72.3626 137.402C73.8075 137.05 75.1328 136.459 76.4825 135.846C76.8512 135.686 77.2203 135.527 77.5897 135.368C78.4876 134.979 79.3814 134.583 80.2728 134.18C80.0794 133.793 79.8861 133.406 79.6869 133.008C79.9293 132.978 80.1718 132.948 80.4216 132.917C81.6066 132.683 82.6411 132.281 83.7518 131.818C83.9535 131.735 84.1551 131.653 84.3629 131.568C84.8557 131.366 85.3475 131.162 85.8392 130.957C85.4548 130.499 85.4548 130.499 84.9603 130.078C83.9714 130.078 83.3789 130.301 82.4517 130.646ZM86.3771 132.351C86.0748 132.461 85.7725 132.571 85.461 132.684C84.9775 132.863 84.9775 132.863 84.4842 133.044C83.8178 133.288 83.1514 133.531 82.4849 133.773C82.1577 133.893 81.8306 134.013 81.4934 134.136C80.266 134.582 79.0339 135.013 77.8009 135.443C76.0665 136.05 74.3514 136.694 72.6556 137.402C73.6903 138.308 74.7878 139.033 76.1712 139.16C77.6059 138.801 78.9286 138.21 80.2728 137.604C80.6429 137.444 81.0133 137.285 81.384 137.126C82.2864 136.737 83.1851 136.341 84.0814 135.938C83.9364 135.357 83.9364 135.357 83.7884 134.766C83.9829 134.736 84.1774 134.706 84.3778 134.675C85.4852 134.419 86.4933 134.008 87.5421 133.575C87.7451 133.493 87.9481 133.41 88.1572 133.325C88.6545 133.123 89.1512 132.919 89.6478 132.715C89.2634 132.257 89.2634 132.257 88.7689 131.836C87.8249 131.836 87.2594 132.027 86.3771 132.351ZM90.4866 134.078C90.1815 134.183 89.8764 134.289 89.562 134.398C89.0697 134.571 89.0697 134.571 88.5675 134.747C88.2314 134.865 87.8952 134.982 87.5489 135.103C85.1651 135.941 82.7886 136.799 80.4193 137.677C80.1188 137.787 79.8183 137.898 79.5087 138.012C79.2321 138.115 78.9556 138.219 78.6706 138.326C78.4276 138.416 78.1846 138.507 77.9342 138.6C77.2936 138.848 77.2936 138.848 76.7572 139.453C77.1086 139.653 77.4633 139.847 77.8192 140.039C78.0163 140.148 78.2134 140.257 78.4166 140.369C79.9129 140.929 81.1461 140.596 82.5685 139.984C82.88 139.852 83.1916 139.72 83.5126 139.584C83.8332 139.444 84.1539 139.304 84.4842 139.16C84.8116 139.02 85.1391 138.881 85.4764 138.737C86.2822 138.392 87.0866 138.045 87.89 137.695C87.745 137.26 87.745 137.26 87.597 136.816C89.5306 136.043 91.4642 135.27 93.4564 134.473C93.263 134.183 93.0697 133.893 92.8704 133.594C91.9398 133.594 91.362 133.774 90.4866 134.078ZM92.431 136.487C92.0955 136.603 91.76 136.719 91.4143 136.839C87.7661 138.116 84.1632 139.505 80.5658 140.918C81.7156 141.799 82.5581 142.42 84.0585 142.334C85.7001 142.072 87.2187 141.374 88.7506 140.753C89.0627 140.629 89.3748 140.504 89.6964 140.376C90.4623 140.07 91.2273 139.763 91.9915 139.453C91.7982 139.163 91.6048 138.873 91.4056 138.574C93.4359 137.801 95.4661 137.027 97.5579 136.23C95.6916 134.831 94.5068 135.765 92.431 136.487ZM97.5293 137.806C97.2205 137.915 97.2205 137.915 96.9054 138.026C96.2374 138.262 95.5701 138.501 94.9029 138.739C94.4481 138.9 93.9932 139.062 93.5384 139.223C90.4616 140.319 87.4021 141.451 84.3744 142.676C86.2456 143.948 86.2456 143.948 88.44 144C89.7445 143.681 90.9826 143.168 92.2296 142.676C92.5089 142.568 92.7881 142.46 93.0759 142.348C94.4564 141.822 94.4564 141.822 95.8001 141.211C95.6551 140.631 95.6551 140.631 95.5072 140.039C95.7017 140.009 95.8961 139.979 96.0965 139.949C97.204 139.692 98.2121 139.281 99.2608 138.849C99.4638 138.766 99.6668 138.684 99.8759 138.599C100.373 138.396 100.87 138.193 101.367 137.988C100.982 137.531 100.982 137.531 100.488 137.109C99.4054 137.109 98.5344 137.447 97.5293 137.806ZM101.252 139.536C101.047 139.609 100.843 139.682 100.632 139.757C99.972 139.993 99.3143 140.236 98.6566 140.479C98.2058 140.642 97.755 140.804 97.304 140.967C94.2452 142.074 91.1986 143.214 88.1829 144.434C88.8425 144.873 89.4884 145.292 90.1788 145.679C90.368 145.789 90.5572 145.899 90.7521 146.013C91.7276 146.279 92.2229 145.987 93.1634 145.605C93.4091 145.507 93.6548 145.409 93.9079 145.308C94.7727 144.96 95.6345 144.606 96.4959 144.25C96.7954 144.127 97.0949 144.004 97.4035 143.877C98.1388 143.575 98.8738 143.272 99.6087 142.969C99.6087 142.582 99.6087 142.195 99.6087 141.797C99.9615 141.673 100.314 141.55 100.678 141.423C101.139 141.261 101.601 141.098 102.062 140.936C102.295 140.855 102.528 140.774 102.767 140.69C102.99 140.611 103.213 140.533 103.442 140.452C103.648 140.38 103.854 140.308 104.065 140.234C104.608 140.043 104.608 140.043 105.175 139.746C105.175 139.553 105.175 139.359 105.175 139.16C103.688 138.784 102.653 139.011 101.252 139.536ZM104.278 141.705C103.724 141.927 103.17 142.147 102.615 142.367C102.349 142.473 102.082 142.578 101.808 142.688C100.916 143.029 100.014 143.31 99.096 143.573C96.7526 144.255 94.5266 145.235 92.2845 146.191C93.7182 147.27 94.4006 147.774 96.2629 147.515C97.676 147.213 98.9907 146.649 100.323 146.1C100.617 145.985 100.912 145.871 101.215 145.753C101.494 145.639 101.773 145.525 102.061 145.407C102.442 145.254 102.442 145.254 102.83 145.097C103.568 144.632 103.519 144.372 103.71 143.555C104.228 143.233 104.228 143.233 104.892 142.992C105.129 142.903 105.366 142.814 105.611 142.723C105.86 142.635 106.109 142.547 106.365 142.456C106.616 142.364 106.866 142.271 107.123 142.176C107.742 141.948 108.362 141.724 108.984 141.504C108.984 141.311 108.984 141.117 108.984 140.918C107.19 140.365 105.926 141.02 104.278 141.705ZM108.912 143.164C108.557 143.286 108.557 143.286 108.195 143.41C107.694 143.582 107.193 143.756 106.692 143.93C105.938 144.191 105.184 144.45 104.43 144.709C99.7297 145.887 99.7297 145.887 96.0931 148.242C96.4865 148.45 96.8841 148.65 97.2833 148.846C97.6147 149.015 97.6147 149.015 97.9528 149.186C100.121 149.822 102.297 148.588 104.278 147.784C104.59 147.66 104.902 147.536 105.224 147.407C105.99 147.102 106.755 146.794 107.519 146.484C107.374 146.049 107.374 146.049 107.226 145.605C109.16 144.832 111.093 144.059 113.085 143.262C112.892 142.972 112.699 142.682 112.499 142.383C111.177 142.383 110.142 142.735 108.912 143.164ZM111.877 145.221C111.326 145.442 110.775 145.662 110.224 145.881C109.96 145.987 109.695 146.093 109.423 146.202C108.519 146.551 107.606 146.838 106.677 147.107C105.243 147.528 103.855 148.025 102.465 148.572C102.273 148.646 102.08 148.721 101.882 148.797C100.842 149.165 100.842 149.165 100.195 150C100.539 150.208 100.888 150.408 101.238 150.604C101.529 150.772 101.529 150.772 101.825 150.944C103.786 151.57 105.799 150.457 107.592 149.707C108.112 149.493 108.633 149.28 109.153 149.066C109.495 148.924 109.495 148.924 109.843 148.779C110.331 148.582 110.828 148.409 111.327 148.242C111.134 147.759 110.941 147.275 110.742 146.777C111.035 146.744 111.328 146.712 111.631 146.678C112.804 146.51 113.86 146.146 114.971 145.734C115.333 145.6 115.696 145.467 116.069 145.33C116.477 145.176 116.477 145.176 116.894 145.02C116.894 144.826 116.894 144.633 116.894 144.434C114.95 143.938 113.688 144.461 111.877 145.221ZM115.576 146.96C114.999 147.18 114.423 147.4 113.846 147.618C113.566 147.726 113.286 147.834 112.997 147.944C111.955 148.337 110.904 148.686 109.844 149.03C107.869 149.676 105.936 150.406 104.003 151.172C104.003 151.365 104.003 151.559 104.003 151.758C104.403 151.965 104.807 152.165 105.212 152.362C105.548 152.53 105.548 152.53 105.892 152.702C107.323 153.137 108.644 152.589 109.979 152.031C110.264 151.913 110.55 151.795 110.843 151.674C111.282 151.489 111.282 151.489 111.73 151.3C112.03 151.176 112.329 151.051 112.638 150.923C113.374 150.617 114.109 150.309 114.843 150C114.843 149.71 114.843 149.42 114.843 149.121C116.134 148.431 117.512 147.942 118.879 147.425C119.996 147.058 119.996 147.058 120.702 146.191C118.743 145.691 117.416 146.229 115.576 146.96ZM121.914 147.868C121.615 147.976 121.315 148.085 121.006 148.197C120.682 148.315 120.359 148.432 120.025 148.553C117.38 149.511 114.732 150.457 112.074 151.378C110.645 151.874 109.226 152.393 107.812 152.93C107.812 153.123 107.812 153.316 107.812 153.516C108.212 153.723 108.615 153.923 109.02 154.12C109.357 154.288 109.357 154.288 109.7 154.46C111.67 155.059 113.702 153.843 115.502 153.094C115.797 152.975 116.091 152.855 116.395 152.732C117.939 152.144 117.939 152.144 119.238 151.172C118.948 150.882 118.658 150.592 118.359 150.293C118.667 150.281 118.975 150.269 119.293 150.256C121.177 150.036 122.834 149.078 124.511 148.242C124.224 147.943 123.931 147.65 123.632 147.363C123.044 147.363 122.459 147.67 121.914 147.868ZM124.632 149.938C124.383 150.026 124.133 150.114 123.875 150.205C123.073 150.488 122.272 150.775 121.472 151.062C120.943 151.249 120.415 151.435 119.887 151.622C117.115 152.602 114.356 153.61 111.62 154.688C112.552 155.681 113.471 156.302 114.843 156.445C116.227 156.131 117.496 155.593 118.798 155.035C119.151 154.892 119.504 154.748 119.867 154.6C120.735 154.245 121.598 153.884 122.46 153.516C122.526 152.659 122.526 152.659 122.167 152.051C122.557 152.024 122.557 152.024 122.955 151.996C124.73 151.754 126.379 150.964 128.027 150.293C128.027 150.003 128.027 149.713 128.027 149.414C126.761 148.992 125.837 149.503 124.632 149.938ZM128.613 151.685C128.366 151.772 128.119 151.859 127.864 151.949C127.288 152.153 126.711 152.357 126.134 152.562C124.921 152.992 123.707 153.421 122.492 153.849C120.04 154.713 117.588 155.579 115.136 156.445C116.24 157.295 117.238 158.048 118.652 158.203C120.03 157.902 121.291 157.377 122.588 156.83C122.939 156.691 123.289 156.552 123.65 156.409C125.37 155.867 125.37 155.867 126.562 154.688C126.417 154.252 126.417 154.252 126.269 153.809C126.511 153.779 126.754 153.749 127.004 153.718C128.189 153.484 129.223 153.082 130.334 152.618C130.535 152.536 130.737 152.453 130.945 152.368C131.438 152.166 131.93 151.962 132.421 151.758C132.018 151.306 132.018 151.306 131.542 150.879C130.519 150.879 129.569 151.343 128.613 151.685ZM132.733 153.141C132.449 153.25 132.165 153.358 131.873 153.47C131.571 153.588 131.268 153.706 130.956 153.827C130.322 154.07 129.687 154.312 129.052 154.554C128.574 154.736 128.574 154.736 128.086 154.921C126.474 155.526 124.849 156.09 123.221 156.651C121.787 157.147 120.364 157.665 118.945 158.203C119.983 159.112 121.077 159.813 122.46 159.961C123.944 159.603 125.313 159.01 126.708 158.405C127.093 158.245 127.477 158.085 127.862 157.927C128.799 157.539 129.732 157.141 130.663 156.738C130.47 156.352 130.277 155.965 130.077 155.566C130.386 155.5 130.694 155.433 131.011 155.365C132.81 154.921 134.513 154.201 136.23 153.516C135.864 153.052 135.864 153.052 135.351 152.637C134.247 152.637 133.732 152.754 132.733 153.141ZM137.128 154.748C136.904 154.825 136.681 154.903 136.451 154.982C136.212 155.067 135.973 155.153 135.726 155.24C135.351 155.372 135.351 155.372 134.968 155.506C134.438 155.692 133.908 155.879 133.379 156.066C132.58 156.35 131.78 156.63 130.979 156.909C128.3 157.85 125.647 158.818 123.046 159.961C124.487 161.044 125.163 161.539 127.032 161.28C128.394 160.994 129.667 160.457 130.956 159.943C131.239 159.832 131.522 159.722 131.814 159.608C132.505 159.337 133.196 159.064 133.886 158.789C133.886 158.402 133.886 158.016 133.886 157.617C135.916 156.844 137.947 156.07 140.038 155.273C139.845 154.983 139.652 154.693 139.452 154.395C138.467 154.395 138.009 154.438 137.128 154.748ZM138.83 157.233C138.279 157.454 137.728 157.674 137.176 157.893C136.912 157.999 136.647 158.105 136.374 158.214C135.477 158.56 134.571 158.849 133.648 159.119C132.168 159.554 130.719 160.051 129.272 160.583C128.962 160.695 128.962 160.695 128.646 160.809C127.545 161.157 127.545 161.157 126.855 162.012C127.255 162.219 127.658 162.419 128.063 162.616C128.4 162.784 128.4 162.784 128.743 162.956C130.188 163.395 131.539 162.826 132.895 162.285C133.193 162.167 133.492 162.049 133.799 161.928C134.106 161.804 134.412 161.681 134.728 161.554C135.042 161.43 135.355 161.305 135.678 161.177C136.449 160.871 137.218 160.563 137.988 160.254C137.843 159.674 137.843 159.674 137.695 159.082C137.937 159.052 138.18 159.022 138.429 158.992C139.614 158.757 140.649 158.356 141.76 157.892C141.961 157.809 142.163 157.727 142.371 157.642C142.863 157.44 143.355 157.236 143.847 157.031C143.847 156.838 143.847 156.645 143.847 156.445C141.903 155.95 140.641 156.473 138.83 157.233ZM142.62 158.936C142.047 159.154 141.474 159.372 140.901 159.59C140.612 159.701 140.323 159.813 140.025 159.927C138.459 160.518 136.873 161.054 135.288 161.591C133.706 162.137 132.183 162.774 130.663 163.477C131.501 164.159 132.256 164.643 133.3 164.941C134.516 164.801 135.569 164.496 136.704 164.043C137.002 163.925 137.3 163.807 137.608 163.685C137.914 163.562 138.221 163.439 138.537 163.312C138.85 163.187 139.164 163.063 139.487 162.935C140.257 162.629 141.027 162.321 141.796 162.012C141.796 161.722 141.796 161.432 141.796 161.133C143.73 160.359 145.663 159.586 147.656 158.789C147.656 158.596 147.656 158.402 147.656 158.203C145.722 157.718 144.437 158.213 142.62 158.936ZM146.41 160.73C145.834 160.946 145.256 161.162 144.679 161.378C144.392 161.485 144.104 161.593 143.808 161.704C142.591 162.15 141.362 162.56 140.13 162.964C138.23 163.588 136.345 164.24 134.472 164.941C134.472 165.135 134.472 165.328 134.472 165.527C134.872 165.734 135.276 165.934 135.681 166.132C136.017 166.3 136.017 166.3 136.36 166.471C137.805 166.911 139.156 166.342 140.512 165.801C140.811 165.683 141.109 165.565 141.416 165.443C141.723 165.32 142.03 165.197 142.346 165.07C142.659 164.945 142.972 164.821 143.295 164.692C144.066 164.386 144.836 164.079 145.605 163.77C145.605 163.479 145.605 163.189 145.605 162.891C146.715 162.301 147.88 161.85 149.047 161.389C149.252 161.308 149.456 161.227 149.666 161.143C150.168 160.944 150.669 160.745 151.171 160.547C151.171 160.257 151.171 159.967 151.171 159.668C149.41 159.499 148.021 160.109 146.41 160.73ZM151.428 162.067C149.521 162.823 147.613 163.495 145.648 164.084C143.153 164.842 140.72 165.779 138.281 166.699C138.281 166.893 138.281 167.086 138.281 167.285C138.681 167.492 139.084 167.692 139.489 167.889C139.826 168.058 139.826 168.058 140.169 168.229C141.613 168.669 142.965 168.1 144.321 167.559C144.619 167.441 144.917 167.323 145.225 167.201C145.532 167.078 145.838 166.954 146.154 166.827C146.468 166.703 146.781 166.579 147.104 166.45C147.874 166.144 148.644 165.837 149.413 165.527C149.479 164.67 149.479 164.67 149.12 164.062C149.414 164.033 149.707 164.003 150.01 163.972C151.22 163.799 152.244 163.377 153.35 162.872C153.537 162.79 153.723 162.707 153.915 162.622C154.369 162.421 154.821 162.217 155.273 162.012C154.87 161.56 154.87 161.56 154.394 161.133C153.348 161.133 152.389 161.679 151.428 162.067ZM156.335 163.342C156.073 163.438 155.811 163.535 155.541 163.635C155.259 163.74 154.977 163.845 154.687 163.953C152.591 164.725 150.493 165.474 148.37 166.168C146.247 166.863 144.164 167.629 142.089 168.457C143.657 169.784 143.657 169.784 145.588 170.156C148.311 169.413 150.929 168.112 153.515 166.992C153.37 166.557 153.37 166.557 153.222 166.113C155.156 165.34 157.089 164.566 159.081 163.77C158.791 163.479 158.501 163.189 158.202 162.891C157.488 162.891 157.006 163.091 156.335 163.342Z" fill="black"/>
<path d="M238.183 108.984C238.28 108.984 238.377 108.984 238.476 108.984C238.531 122.755 238.531 122.755 238.403 127.844C238.399 128.156 238.395 128.468 238.391 128.789C238.305 131.386 237.716 133.756 235.766 135.59C234.111 137.119 232.384 138.113 230.373 139.098C225.064 141.7 220.636 144.643 218.408 150.33C216.95 153.987 214.072 156.738 210.56 158.45C210.355 158.551 210.151 158.652 209.941 158.755C207.902 159.745 205.816 160.604 203.71 161.437C202.525 161.906 201.344 162.383 200.161 162.857C199.915 162.956 199.669 163.055 199.415 163.157C196.71 164.243 194.018 165.36 191.327 166.479C190.572 166.793 189.818 167.106 189.064 167.42C188.551 167.633 188.038 167.846 187.525 168.059C184.775 169.202 182.023 170.338 179.27 171.474C174.827 173.308 170.385 175.143 165.945 176.984C165.447 177.19 164.948 177.397 164.45 177.603C163.982 177.797 163.515 177.991 163.047 178.184C162.597 178.371 162.147 178.557 161.697 178.743C160.504 179.235 159.319 179.741 158.139 180.263C157.887 180.374 157.635 180.484 157.375 180.597C156.891 180.809 156.409 181.024 155.929 181.243C153.93 182.113 153.93 182.113 152.636 181.641C152.45 179.789 152.309 177.935 152.252 176.074C152.241 175.766 152.23 175.458 152.219 175.14C152.382 174.064 152.68 173.837 153.515 173.145C154.28 172.769 155.025 172.436 155.813 172.12C156.037 172.028 156.262 171.935 156.492 171.84C157.208 171.546 157.925 171.256 158.642 170.966C159.115 170.772 159.588 170.578 160.061 170.384C160.292 170.289 160.523 170.194 160.761 170.097C161.22 169.909 161.679 169.72 162.138 169.532C163.139 169.122 164.142 168.72 165.154 168.337C165.467 168.216 165.781 168.095 166.104 167.971C166.371 167.872 166.638 167.773 166.914 167.671C167.822 167.144 168.068 166.806 168.457 165.82C168.566 164.741 168.544 163.672 168.524 162.589C168.524 161.946 168.523 161.303 168.524 160.66C168.519 159.649 168.512 158.639 168.496 157.628C168.483 156.651 168.484 155.674 168.488 154.697C168.479 154.395 168.471 154.093 168.462 153.782C168.483 151.758 168.483 151.758 169.19 150.982C169.807 150.576 170.413 150.285 171.093 150C171.31 149.901 171.527 149.801 171.751 149.698C172.463 149.382 173.182 149.09 173.906 148.802C174.179 148.691 174.451 148.581 174.732 148.467C175.63 148.103 176.529 147.742 177.429 147.382C178.064 147.125 178.699 146.868 179.334 146.611C180.677 146.067 182.02 145.525 183.363 144.983C186.497 143.718 189.625 142.441 192.754 141.164C194.041 140.64 195.327 140.116 196.613 139.592C197.228 139.341 197.843 139.09 198.458 138.839C200.093 138.171 201.731 137.511 203.373 136.86C203.724 136.72 204.075 136.58 204.436 136.435C205.103 136.169 205.771 135.905 206.44 135.643C211.229 133.723 214.556 131.383 217.09 126.855C217.433 126.291 217.781 125.73 218.133 125.171C218.37 124.792 218.37 124.792 218.611 124.406C221.321 120.449 225.136 118.298 229.351 116.24C232.646 114.614 236.473 112.406 238.183 108.984Z" fill="black"/>
<path d="M81.4453 129.786C81.4453 129.979 81.4453 130.173 81.4453 130.372C81.6387 130.565 81.832 130.759 82.0312 130.958C79.6887 131.932 77.3415 132.832 74.9268 133.613C72.9303 134.259 71.0225 135.002 69.1406 135.938C69.5189 136.163 69.9052 136.374 70.2942 136.579C70.6154 136.758 70.6154 136.758 70.9431 136.94C72.2377 137.204 73.2134 136.715 74.4141 136.231C74.6424 136.14 74.8708 136.049 75.1061 135.955C76.0283 135.581 76.9488 135.204 77.8645 134.815C78.0877 134.725 78.3108 134.634 78.5408 134.541C78.8401 134.416 78.8401 134.416 79.1455 134.288C79.6875 134.18 79.6875 134.18 80.5664 134.766C80.2341 134.88 79.9017 134.993 79.5593 135.11C79.1137 135.264 78.6682 135.418 78.2227 135.572C78.0047 135.646 77.7868 135.72 77.5623 135.796C76.0532 136.321 74.6585 136.956 73.2422 137.696C74.5028 138.45 75.5858 138.984 77.0672 138.69C78.0312 138.325 78.9575 137.918 79.8889 137.476C83.7471 135.722 83.7471 135.722 85.5469 135.938C84.6284 136.42 83.6943 136.796 82.7225 137.158C82.409 137.275 82.0956 137.392 81.7726 137.513C81.4471 137.634 81.1215 137.755 80.7861 137.879C80.291 138.064 80.291 138.064 79.7859 138.252C78.9721 138.556 78.158 138.859 77.3438 139.161C78.6024 140.126 79.2441 140.426 80.8594 140.333C81.651 140.103 81.651 140.103 82.4203 139.756C82.7028 139.637 82.9853 139.518 83.2764 139.396C83.5664 139.27 83.8564 139.144 84.1553 139.014C84.7363 138.766 85.3176 138.519 85.8994 138.273C86.1551 138.162 86.4109 138.052 86.6744 137.938C87.3047 137.696 87.3047 137.696 87.8906 137.696C87.6006 137.116 87.6006 137.116 87.3047 136.524C87.9453 136.291 88.5862 136.06 89.2273 135.828C89.5842 135.699 89.9411 135.57 90.3088 135.437C91.3528 135.078 92.3931 134.766 93.457 134.473C93.457 134.667 93.457 134.86 93.457 135.059C93.9404 135.253 94.4238 135.446 94.9219 135.645C94.2004 136.126 93.7197 136.376 92.9226 136.644C92.6968 136.722 92.4711 136.799 92.2385 136.878C91.9941 136.961 91.7496 137.043 91.4978 137.128C88.0227 138.321 84.5875 139.616 81.1523 140.919C81.8369 141.603 82.2734 141.822 83.2031 142.091C85.0862 141.968 86.7155 141.297 88.4583 140.607C88.8845 140.442 88.8845 140.442 89.3194 140.273C90.0158 140.002 90.7114 139.729 91.4062 139.454C91.4499 138.846 91.4499 138.846 91.1133 138.282C92.0715 137.946 93.0298 137.611 93.988 137.275C94.2601 137.18 94.5322 137.084 94.8126 136.986C95.0741 136.894 95.3356 136.803 95.6051 136.708C95.846 136.624 96.0868 136.54 96.335 136.453C96.8393 136.278 97.3451 136.107 97.8516 135.938C97.8516 136.228 97.8516 136.518 97.8516 136.817C98.2727 137.312 98.2727 137.312 98.7305 137.696C98.5111 137.774 98.2918 137.852 98.0658 137.932C93.6886 139.49 89.3157 141.057 84.9609 142.677C86.3476 143.626 86.3476 143.626 87.9673 143.85C89.4326 143.456 90.8224 142.928 92.2302 142.365C92.7811 142.147 93.3323 141.93 93.8839 141.714C94.1255 141.618 94.3672 141.521 94.6161 141.422C95.2148 141.212 95.2148 141.212 95.8008 141.212C95.6558 140.632 95.6558 140.632 95.5078 140.04C96.1158 139.778 96.7268 139.523 97.3389 139.271C97.8487 139.057 97.8487 139.057 98.3688 138.838C99.3164 138.575 99.3164 138.575 99.9893 138.77C100.488 139.161 100.488 139.161 101.074 140.04C100.754 140.152 100.433 140.264 100.102 140.38C98.9093 140.798 97.7163 141.216 96.5234 141.635C96.0077 141.816 95.492 141.996 94.9762 142.177C94.2335 142.437 93.4911 142.698 92.7486 142.958C92.5191 143.038 92.2895 143.119 92.053 143.201C90.9482 143.59 89.8524 143.988 88.7695 144.434C89.1676 144.698 89.5717 144.953 89.978 145.203C90.2024 145.346 90.4267 145.489 90.6578 145.636C91.7117 146.007 92.1363 145.747 93.1641 145.313C93.6415 145.123 94.1191 144.933 94.5969 144.743C95.3901 144.422 96.1827 144.098 96.9749 143.774C97.2295 143.671 97.484 143.568 97.7463 143.462C97.9775 143.367 98.2087 143.273 98.4469 143.175C99.0234 142.97 99.0234 142.97 99.6094 142.97C99.3193 142.389 99.3193 142.389 99.0234 141.798C99.7921 141.504 100.561 141.211 101.331 140.919C101.549 140.835 101.768 140.751 101.993 140.665C103.645 140.04 103.645 140.04 104.297 140.04C104.297 140.33 104.297 140.62 104.297 140.919C104.49 141.015 104.684 141.112 104.883 141.212C104.883 141.405 104.883 141.598 104.883 141.798C103.01 142.546 101.142 143.26 99.2065 143.83C97.0361 144.476 94.9603 145.325 92.8711 146.192C93.6429 146.902 94.3857 147.308 95.4404 147.42C97.003 147.286 98.4577 146.528 99.884 145.918C100.224 145.776 100.564 145.635 100.915 145.49C101.751 145.142 102.585 144.79 103.418 144.434C103.321 144.144 103.225 143.854 103.125 143.555C103.991 143.212 104.858 142.871 105.725 142.53C105.972 142.432 106.218 142.334 106.472 142.234C106.708 142.141 106.944 142.049 107.188 141.953C107.406 141.867 107.623 141.781 107.848 141.693C108.398 141.505 108.398 141.505 108.984 141.505C109.081 141.311 109.178 141.118 109.277 140.919C109.567 141.112 109.857 141.305 110.156 141.505C110.06 141.601 109.963 141.698 109.863 141.798C110.347 141.991 110.83 142.184 111.328 142.384C110.347 143.037 109.361 143.375 108.254 143.744C108.037 143.818 107.82 143.892 107.596 143.968C106.899 144.204 106.202 144.438 105.505 144.672C102.44 145.705 99.394 146.756 96.3867 147.95C96.5468 148.043 96.7069 148.135 96.8719 148.231C97.2538 148.452 97.6356 148.673 98.0175 148.894C100.188 149.587 102.519 148.159 104.478 147.304C105.965 146.679 107.076 146.347 108.691 146.485C108.691 146.582 108.691 146.679 108.691 146.778C108.467 146.842 108.244 146.907 108.013 146.973C105.435 147.736 102.969 148.678 100.488 149.708C100.803 149.9 101.117 150.092 101.442 150.289C101.707 150.451 101.707 150.451 101.978 150.616C102.847 151.024 103.651 150.956 104.59 150.88C104.3 151.025 104.3 151.025 104.004 151.173C104.004 151.366 104.004 151.559 104.004 151.759C104.405 151.916 104.808 152.068 105.212 152.216C105.437 152.301 105.661 152.386 105.892 152.474C107.342 152.791 108.644 152.297 109.98 151.739C110.408 151.562 110.408 151.562 110.844 151.382C111.137 151.258 111.429 151.135 111.731 151.008C112.03 150.883 112.33 150.759 112.638 150.631C113.374 150.325 114.109 150.017 114.844 149.708C114.747 149.418 114.65 149.128 114.551 148.829C116.386 148.074 118.227 147.381 120.117 146.778C119.924 147.262 119.73 147.745 119.531 148.243C119.725 148.436 119.918 148.63 120.117 148.829C119.906 148.901 119.696 148.973 119.478 149.048C118.501 149.383 117.524 149.719 116.547 150.056C116.198 150.176 115.849 150.296 115.49 150.42C113.421 151.136 111.37 151.874 109.343 152.703C108.691 152.93 108.691 152.93 107.812 152.93C107.812 153.124 107.812 153.317 107.812 153.516C108.139 153.571 108.139 153.571 108.472 153.626C109.277 153.809 109.277 153.809 109.845 154.139C110.908 154.59 111.942 154.194 112.998 153.827C113.259 153.718 113.52 153.609 113.789 153.497C114.216 153.32 114.216 153.32 114.653 153.139C114.945 153.016 115.238 152.893 115.54 152.766C115.839 152.641 116.139 152.517 116.447 152.389C117.183 152.083 117.918 151.775 118.652 151.466C118.556 151.079 118.459 150.692 118.359 150.294C119.375 150.149 119.375 150.149 120.41 150.001C120.12 150.484 119.83 150.968 119.531 151.466C119.821 151.562 120.111 151.659 120.41 151.759C120.194 151.835 119.979 151.912 119.756 151.991C118.778 152.34 117.8 152.69 116.821 153.04C116.482 153.161 116.142 153.282 115.792 153.407C115.466 153.524 115.139 153.641 114.803 153.761C114.502 153.869 114.201 153.976 113.891 154.087C113.205 154.35 112.563 154.638 111.914 154.981C113.202 155.767 114.28 156.258 115.8 155.975C116.835 155.613 117.832 155.205 118.835 154.762C119.186 154.617 119.536 154.471 119.896 154.322C120.755 153.965 121.609 153.599 122.461 153.223C122.364 152.837 122.268 152.45 122.168 152.052C122.651 152.052 123.135 152.052 123.633 152.052C123.536 152.632 123.439 153.212 123.34 153.809C123.12 153.888 122.899 153.966 122.672 154.047C121.68 154.4 120.688 154.755 119.696 155.109C119.349 155.233 119.002 155.356 118.645 155.483C118.315 155.601 117.986 155.719 117.646 155.841C117.341 155.95 117.036 156.059 116.721 156.171C116.041 156.382 116.041 156.382 115.723 156.739C117.011 157.525 118.089 158.016 119.608 157.733C120.644 157.371 121.641 156.962 122.644 156.519C122.994 156.374 123.344 156.229 123.705 156.08C124.564 155.723 125.418 155.356 126.27 154.981C126.27 154.595 126.27 154.208 126.27 153.809C127.026 153.522 127.783 153.235 128.54 152.949C128.754 152.867 128.968 152.786 129.188 152.702C129.395 152.624 129.603 152.545 129.817 152.465C130.007 152.393 130.198 152.32 130.394 152.246C130.967 152.048 131.539 151.897 132.129 151.759C131.549 152.339 131.549 152.339 130.957 152.93C131.247 153.221 131.537 153.511 131.836 153.809C129.004 154.889 126.161 155.927 123.29 156.901C121.982 157.35 120.754 157.842 119.531 158.497C120.001 158.686 120.471 158.876 120.941 159.065C121.203 159.17 121.465 159.275 121.734 159.384C122.264 159.591 122.8 159.782 123.34 159.962C123.63 160.167 123.92 160.373 124.219 160.584C125.629 161.427 127.058 161.099 128.613 160.841C128.027 161.427 128.027 161.427 127.148 161.72C127.499 161.927 127.854 162.127 128.21 162.324C128.408 162.436 128.605 162.548 128.808 162.664C130.651 163.277 132.692 162.084 134.399 161.408C134.953 161.19 135.507 160.973 136.061 160.757C136.305 160.661 136.548 160.564 136.799 160.465C137.402 160.255 137.402 160.255 137.988 160.255C137.892 159.868 137.795 159.481 137.695 159.083C137.889 159.083 138.082 159.083 138.281 159.083C138.281 159.47 138.281 159.856 138.281 160.255C138.571 160.351 138.861 160.448 139.16 160.548C138.995 160.605 138.83 160.663 138.659 160.722C137.899 160.987 137.138 161.253 136.377 161.518C135.987 161.654 135.987 161.654 135.59 161.792C134.037 162.334 132.494 162.894 130.957 163.477C131.126 163.564 131.294 163.651 131.468 163.741C131.87 163.949 132.272 164.157 132.674 164.364C133.272 164.636 133.831 164.805 134.473 164.942C134.473 165.136 134.473 165.329 134.473 165.528C134.799 165.583 134.799 165.583 135.132 165.638C135.938 165.821 135.938 165.821 136.505 166.151C137.803 166.701 139.249 166.013 140.492 165.519C140.788 165.402 141.084 165.286 141.388 165.165C141.692 165.043 141.996 164.921 142.31 164.796C142.618 164.674 142.927 164.552 143.245 164.426C144.737 163.847 144.737 163.847 146.191 163.184C146.288 163.474 146.385 163.764 146.484 164.063C146.315 164.122 146.145 164.181 145.97 164.242C145.195 164.512 144.421 164.782 143.646 165.052C143.379 165.145 143.112 165.238 142.837 165.334C142.577 165.424 142.317 165.515 142.05 165.608C141.693 165.733 141.693 165.733 141.329 165.859C140.834 166.039 140.344 166.233 139.858 166.439C139.16 166.7 139.16 166.7 138.281 166.7C138.281 166.893 138.281 167.087 138.281 167.286C138.608 167.34 138.608 167.34 138.94 167.396C139.746 167.579 139.746 167.579 140.314 167.909C141.619 168.462 143.073 167.764 144.321 167.266C144.62 167.148 144.918 167.03 145.226 166.909C145.532 166.786 145.839 166.662 146.155 166.535C146.468 166.411 146.782 166.286 147.105 166.158C147.875 165.852 148.645 165.544 149.414 165.235C149.317 164.848 149.221 164.462 149.121 164.063C149.694 163.859 150.268 163.658 150.842 163.459C151.162 163.347 151.481 163.235 151.81 163.119C152.637 162.891 152.637 162.891 153.223 163.184C153.223 163.474 153.223 163.764 153.223 164.063C153.319 164.257 153.416 164.45 153.516 164.649C153.302 164.721 153.088 164.794 152.868 164.868C151.881 165.202 150.895 165.539 149.908 165.876C149.572 165.99 149.236 166.103 148.889 166.22C146.758 166.951 144.707 167.775 142.676 168.751C144.049 169.672 144.049 169.672 145.652 169.877C146.445 169.648 147.186 169.361 147.949 169.044C148.374 168.871 148.798 168.697 149.223 168.524C149.902 168.246 150.58 167.966 151.256 167.678C152.87 166.993 152.87 166.993 153.516 166.993C153.612 166.8 153.709 166.606 153.809 166.407C153.809 166.6 153.809 166.794 153.809 166.993C154.099 167.09 154.389 167.186 154.688 167.286C154.501 167.352 154.315 167.419 154.124 167.487C153.274 167.791 152.424 168.097 151.575 168.403C151.282 168.507 150.989 168.612 150.688 168.719C150.403 168.822 150.118 168.925 149.824 169.031C149.563 169.125 149.302 169.218 149.033 169.315C148.162 169.662 147.324 170.089 146.484 170.509C147.935 171.282 149.385 172.055 150.879 172.852C150.879 173.142 150.879 173.432 150.879 173.731C147.223 172.772 143.784 171.14 140.342 169.601C139.463 169.211 138.58 168.834 137.695 168.458C137.695 168.264 137.695 168.071 137.695 167.872C137.399 167.848 137.103 167.824 136.798 167.799C135.788 167.654 135.087 167.289 134.217 166.748C133.431 166.318 132.622 166.022 131.781 165.711C130.172 165.111 128.667 164.402 127.142 163.617C125.711 162.907 124.231 162.323 122.754 161.72C121.493 161.187 120.265 160.652 119.092 159.943C118.147 159.384 117.188 159.062 116.143 158.737C114.045 158.031 112.057 156.981 110.065 156.025C108.264 155.166 106.459 154.343 104.609 153.593C103.448 153.115 102.298 152.612 101.147 152.107C100.937 152.014 100.727 151.922 100.511 151.827C100.015 151.609 99.5192 151.391 99.0234 151.173C99.0234 150.979 99.0234 150.786 99.0234 150.587C98.7757 150.563 98.528 150.538 98.2727 150.513C97.2801 150.297 96.5997 149.936 95.7401 149.408C94.9299 148.967 94.0497 148.782 93.1641 148.536C92.9378 148.399 92.7116 148.262 92.4786 148.121C91.656 147.631 90.86 147.32 89.9597 146.998C88.6011 146.487 87.3129 145.923 86.0229 145.258C83.3578 143.893 80.6034 142.737 77.8526 141.557C76.7343 141.075 75.6199 140.585 74.5056 140.095C73.1632 139.505 71.8153 138.931 70.459 138.374C69.1069 137.814 67.796 137.211 66.5039 136.524C66.2139 136.379 65.9238 136.234 65.625 136.085C65.4316 135.94 65.2383 135.795 65.0391 135.645C65.0391 135.259 65.0391 134.872 65.0391 134.473C65.8536 134.617 66.5541 134.787 67.3206 135.107C68.4915 135.412 68.9885 135.22 70.0996 134.769C70.4376 134.635 70.7756 134.501 71.1239 134.362C71.4725 134.218 71.821 134.073 72.1802 133.924C72.7132 133.711 72.7132 133.711 73.2571 133.493C74.1331 133.141 75.0068 132.784 75.8789 132.423C75.8789 132.133 75.8789 131.843 75.8789 131.544C76.6957 131.193 77.5136 130.846 78.3325 130.5C78.5652 130.4 78.7978 130.3 79.0375 130.196C79.2603 130.103 79.4831 130.009 79.7127 129.913C79.9183 129.826 80.1238 129.738 80.3357 129.648C80.8594 129.493 80.8594 129.493 81.4453 129.786Z" fill="black"/>
<path d="M174.023 175.488C173.838 179.395 173.639 183.301 173.437 187.207C173.426 187.408 173.416 187.609 173.405 187.816C173.262 190.581 173.116 193.347 172.966 196.112C172.902 197.299 172.838 198.486 172.776 199.674C172.717 200.811 172.656 201.948 172.593 203.084C172.57 203.509 172.547 203.933 172.526 204.358C172.496 204.945 172.463 205.531 172.43 206.118C172.412 206.449 172.394 206.78 172.376 207.121C172.265 208.006 172.073 208.675 171.679 209.473C171.022 209.908 170.381 210.087 169.628 210.352C168.174 208.898 168.89 202.47 168.821 200.406C168.802 199.847 168.783 199.288 168.763 198.729C168.723 197.564 168.684 196.399 168.644 195.234C168.594 193.747 168.543 192.261 168.492 190.775C168.452 189.623 168.413 188.471 168.373 187.319C168.355 186.771 168.336 186.223 168.317 185.675C168.136 180.434 168.136 180.434 168.163 177.832C172.683 175.488 172.683 175.488 174.023 175.488Z" fill="black"/>
<path d="M229.981 140.918C230.567 141.504 230.567 141.504 230.592 142.465C230.572 142.886 230.548 143.306 230.522 143.726C230.504 144.069 230.504 144.069 230.486 144.42C230.446 145.18 230.401 145.941 230.355 146.701C230.325 147.228 230.295 147.756 230.265 148.284C230.201 149.391 230.134 150.499 230.066 151.606C229.979 153.025 229.901 154.443 229.826 155.862C229.766 156.953 229.701 158.043 229.633 159.134C229.602 159.657 229.573 160.18 229.546 160.703C229.508 161.435 229.461 162.167 229.412 162.899C229.403 163.115 229.393 163.33 229.384 163.553C229.298 164.682 229.123 165.208 228.401 166.097C227.615 166.717 227.164 166.937 226.172 166.992C225.679 166.499 225.801 165.872 225.765 165.194C225.748 164.872 225.73 164.55 225.712 164.218C225.694 163.865 225.677 163.513 225.658 163.149C225.639 162.786 225.62 162.422 225.601 162.048C225.56 161.273 225.521 160.498 225.482 159.723C225.423 158.556 225.361 157.389 225.299 156.222C225.202 154.381 225.118 152.54 225.043 150.698C225.016 150.067 224.985 149.436 224.95 148.805C224.907 148.028 224.876 147.252 224.849 146.474C224.834 146.256 224.819 146.038 224.803 145.814C224.785 144.951 224.845 144.322 225.416 143.655C226.545 142.703 227.759 142.103 229.102 141.504C229.392 141.311 229.682 141.117 229.981 140.918Z" fill="black"/>
<path d="M90.235 156.152C91.0593 156.487 91.8832 156.823 92.7069 157.159C92.942 157.255 93.1771 157.35 93.4193 157.448C93.7549 157.586 93.7549 157.586 94.0974 157.726C94.3045 157.81 94.5116 157.895 94.725 157.982C95.2155 158.203 95.2155 158.203 95.5084 158.496C95.5033 158.984 95.4758 159.472 95.4398 159.959C95.417 160.276 95.3943 160.592 95.3709 160.919C95.1653 163.562 95.1653 163.562 95.0658 164.804C94.9614 166.128 94.8756 167.452 94.8002 168.778C94.7456 169.712 94.6829 170.645 94.619 171.579C94.5895 172.035 94.5633 172.492 94.5406 172.95C94.3567 176.586 94.3567 176.586 93.5737 177.504C92.8712 177.921 92.2277 178.125 91.4069 178.125C91.0361 177.383 91.0432 176.812 91 175.982C90.9824 175.656 90.9648 175.331 90.9467 174.995C90.929 174.64 90.9113 174.285 90.893 173.919C90.8739 173.553 90.8548 173.187 90.8352 172.81C90.7949 172.032 90.7552 171.254 90.7163 170.476C90.6768 169.686 90.6362 168.896 90.5944 168.106C90.1535 159.753 90.1535 159.753 90.235 156.152Z" fill="black"/>
</svg>
