<svg width="300" height="300" viewBox="0 0 300 300" fill="none" xmlns="http://www.w3.org/2000/svg">
<path d="M78.2798 98.3281C78.9701 99.2326 79.6897 100.196 79.6897 101.368C86.804 101.336 93.9182 101.303 101.032 101.268C104.338 101.252 107.643 101.237 110.948 101.222C128.157 101.165 128.157 101.165 145.364 100.936C145.661 100.931 145.958 100.925 146.263 100.92C147.067 100.904 147.871 100.887 148.675 100.869C148.895 100.864 149.116 100.86 149.343 100.855C150.405 100.828 151.447 100.758 152.503 100.631C153.718 100.487 154.92 100.453 156.144 100.465C156.472 100.466 156.472 100.466 156.808 100.467C157.283 100.47 157.758 100.472 158.233 100.476C159.006 100.481 159.779 100.484 160.552 100.487C161.674 100.491 162.795 100.495 163.916 100.5C175.05 100.546 186.17 100.421 197.3 100.108C198.355 100.079 199.409 100.051 200.464 100.023C201.172 100.003 201.879 99.9812 202.587 99.9589C204.96 99.8905 207.326 99.8969 209.699 99.9881C210.065 99.9986 210.065 99.9986 210.438 100.009C212.109 100.088 213.372 100.41 214.688 101.516C215.977 103.011 216.799 104.635 216.799 106.641C216.955 106.56 217.11 106.479 217.271 106.395C217.581 106.236 217.581 106.236 217.898 106.073C218.102 105.968 218.306 105.863 218.516 105.754C220.532 104.838 223.09 104.832 225.167 105.524C226.415 106.452 226.957 107.123 227.328 108.655C227.449 110.189 226.892 111.32 226.009 112.555C225.097 113.234 224.147 113.578 223.08 113.957C222.31 114.282 221.8 114.561 221.194 115.137C220.942 116.348 221.017 117.584 221.029 118.818C221.022 119.152 221.015 119.487 221.008 119.832C221.012 122.468 221.573 124.387 223.275 126.421C224.624 127.545 225.992 128.47 227.511 129.348C229.041 130.285 230.328 131.152 230.935 132.88C230.842 134.154 230.523 134.683 229.69 135.645C228.46 136.556 227.217 137.138 225.79 137.659C221.086 139.494 218.999 142.46 216.827 146.907C215.845 149.203 215.734 152.707 216.506 155.109C216.931 156.024 217.557 156.725 218.209 157.489C219.953 159.571 220.941 162.102 221.447 164.759C221.771 166.282 222.441 167.523 223.189 168.879C224.853 171.985 226.458 175.118 228.038 178.267C228.305 178.799 228.573 179.331 228.841 179.862C230.226 182.599 231.566 185.344 232.761 188.169C232.902 188.501 232.902 188.501 233.046 188.841C234.912 193.342 235.832 198.004 234.18 202.731C233.168 205.027 231.845 206.723 229.69 208.008C228.861 208.284 228.333 208.341 227.474 208.338C227.244 208.339 227.014 208.339 226.777 208.34C226.174 208.301 226.174 208.301 225.588 208.008C225.57 208.316 225.552 208.625 225.533 208.942C225.255 210.25 224.832 210.672 223.83 211.524C223.734 211.621 223.637 211.717 223.537 211.817C220.028 212.3 216.446 212.105 212.917 212.018C212.612 212.011 212.308 212.004 211.994 211.997C207.563 211.896 203.135 211.747 198.708 211.542C198.464 211.531 198.219 211.52 197.967 211.509C195.259 211.385 192.559 211.207 189.86 210.955C189.488 210.922 189.488 210.922 189.108 210.889C188.761 210.855 188.761 210.855 188.407 210.819C188.204 210.8 188 210.78 187.791 210.76C187.132 210.63 186.623 210.382 186.037 210.059C186.099 207.523 186.099 207.523 187.118 206.543C187.341 206.253 187.565 205.963 187.795 205.665C187.452 203.468 186.712 201.367 186.039 199.252C185.023 196.022 184.051 192.782 183.116 189.527C183.055 189.315 182.994 189.103 182.931 188.885C182.368 186.93 181.808 184.974 181.249 183.017C180.029 178.753 178.808 174.489 177.451 170.267C177.363 169.982 177.274 169.698 177.183 169.404C176.666 167.837 176.185 166.875 174.905 165.821C174.737 165.675 174.568 165.528 174.395 165.378C172.202 163.739 169.944 163.617 167.287 163.77C166.089 163.952 164.915 164.211 163.735 164.484C155.296 166.388 146.046 166.414 138.424 161.865C135.69 159.946 133.951 157.391 133.303 154.102C133.236 153.326 133.18 152.554 133.138 151.777C133.125 151.556 133.112 151.335 133.099 151.108C133.026 149.759 133.006 148.422 133.028 147.071C133.046 143.581 131.912 140.817 129.494 138.282C127.025 136.39 124.352 136.191 121.345 136.175C121.094 136.173 120.844 136.171 120.586 136.168C120.045 136.163 119.503 136.159 118.962 136.155C118.102 136.148 117.242 136.141 116.381 136.132C114.551 136.115 112.721 136.099 110.891 136.084C108.776 136.067 106.662 136.049 104.547 136.028C103.707 136.021 102.867 136.014 102.026 136.008C93.4569 135.936 93.4569 135.936 92.5804 135.059C92.5437 134.29 92.5437 134.29 92.5804 133.594C92.3742 133.642 92.1681 133.689 91.9557 133.738C91.0818 133.893 90.2776 133.924 89.3904 133.925C88.88 133.926 88.88 133.926 88.3592 133.928C87.9942 133.927 87.6292 133.927 87.2531 133.926C86.687 133.926 86.687 133.926 86.1094 133.927C85.3118 133.927 84.5142 133.927 83.7165 133.925C82.6977 133.924 81.6788 133.925 80.6599 133.926C79.6838 133.928 78.7077 133.927 77.7316 133.926C77.3672 133.927 77.0028 133.927 76.6273 133.928C76.2861 133.927 75.9449 133.926 75.5934 133.925C75.1453 133.925 75.1452 133.925 74.688 133.924C73.7955 133.886 72.9513 133.75 72.0725 133.594C71.3814 133.587 70.6983 133.612 70.0079 133.641C69.4357 133.594 69.4358 133.594 68.8499 133.008C67.4516 128.429 67.8865 123.385 67.971 118.653C67.599 118.663 67.227 118.674 66.8437 118.685C65.9111 118.711 65.7034 118.708 64.9131 118.14C63.7482 116.463 64.0971 114.273 64.0919 112.312C64.0891 111.662 64.0801 111.013 64.0708 110.364C64.0689 109.948 64.0674 109.531 64.0663 109.115C64.0635 108.739 64.0608 108.363 64.058 107.976C64.172 106.838 64.4365 106.141 65.0413 105.176C66.1089 104.464 66.7148 104.543 67.971 104.59C67.9823 104.34 67.9823 104.34 67.9939 104.086C68.1191 102.381 68.407 101.284 69.4358 99.9028C71.278 98.4291 76.2458 96.8171 78.2798 98.3281ZM207.97 101.681C207.239 101.69 206.509 101.7 205.778 101.71C205.373 101.715 204.969 101.72 204.564 101.726C203.465 101.74 202.366 101.755 201.267 101.769C200.574 101.779 199.88 101.788 199.186 101.797C196.996 101.826 194.806 101.855 192.615 101.885C190.371 101.915 188.126 101.945 185.882 101.974C180.017 102.051 174.153 102.131 168.288 102.219C166.883 102.24 165.478 102.26 164.072 102.279C162.363 102.304 160.653 102.331 158.944 102.361C158.342 102.371 157.739 102.38 157.137 102.388C156.331 102.399 155.525 102.414 154.719 102.429C154.372 102.433 154.372 102.433 154.017 102.436C152.917 102.462 152.405 102.5 151.467 103.125C149.987 103.412 148.527 103.462 147.024 103.463C146.791 103.464 146.558 103.465 146.318 103.467C145.541 103.47 144.764 103.472 143.986 103.474C143.427 103.476 142.867 103.479 142.307 103.481C141.1 103.487 139.893 103.491 138.686 103.495C136.754 103.501 134.823 103.509 132.891 103.517C129.11 103.533 125.328 103.547 121.547 103.561C116.151 103.581 110.754 103.602 105.358 103.625C104.699 103.628 104.04 103.63 103.38 103.633C92.0641 103.681 80.7504 103.795 69.4358 104.004C69.4358 104.874 69.4358 105.745 69.4358 106.641C82.8045 106.648 96.1732 106.653 109.542 106.656C111.123 106.656 112.703 106.657 114.284 106.657C114.599 106.657 114.914 106.657 115.238 106.657C120.323 106.659 125.408 106.661 130.494 106.664C135.718 106.666 140.941 106.668 146.165 106.669C149.385 106.669 152.604 106.67 155.824 106.673C158.036 106.674 160.248 106.675 162.46 106.674C163.734 106.674 165.007 106.674 166.281 106.676C174.874 106.858 174.874 106.858 183.401 106.055C183.497 105.958 183.594 105.862 183.694 105.762C184.575 105.736 185.449 105.729 186.33 105.734C186.607 105.734 186.883 105.734 187.169 105.735C187.772 105.736 188.376 105.738 188.979 105.74C189.935 105.744 190.89 105.746 191.846 105.747C194.221 105.751 196.596 105.758 198.972 105.765C200.975 105.771 202.978 105.776 204.981 105.779C205.921 105.78 206.862 105.784 207.802 105.788C208.382 105.789 208.961 105.79 209.541 105.791C209.801 105.792 210.062 105.794 210.331 105.795C211.738 105.795 213.068 105.706 214.455 105.469C214.107 103.854 213.703 103.057 212.405 101.954C211.157 101.33 209.343 101.666 207.97 101.681ZM65.9202 106.055C64.8582 107.706 64.9188 109.197 64.9497 111.091C64.9488 111.383 64.9478 111.675 64.9469 111.976C64.9181 113.654 64.9181 113.654 65.6272 115.137C65.6434 114.955 65.6597 114.774 65.6764 114.586C65.7505 113.763 65.8261 112.939 65.9019 112.116C65.9274 111.83 65.9528 111.544 65.979 111.249C66.0045 110.974 66.0301 110.7 66.0564 110.416C66.0794 110.163 66.1024 109.91 66.1261 109.649C66.2132 108.985 66.2131 108.985 66.506 108.106C66.6994 108.009 66.8929 107.913 67.0921 107.813C66.9954 108.006 66.8986 108.2 66.799 108.399C66.7742 108.93 66.7677 109.462 66.7705 109.994C66.7719 110.467 66.7719 110.467 66.7734 110.95C66.7758 111.28 66.7783 111.611 66.7808 111.951C66.7821 112.284 66.7834 112.617 66.7848 112.959C66.7883 113.783 66.793 114.607 66.799 115.43C67.089 115.527 67.3792 115.623 67.678 115.723C68.0738 115.394 68.0738 115.394 68.0042 114.536C68.0042 114.141 68.0024 113.746 67.9995 113.351C67.9989 113.039 67.999 113.039 67.9983 112.721C67.9967 112.056 67.9929 111.39 67.9892 110.724C67.9877 110.274 67.9865 109.824 67.9853 109.373C67.982 108.267 67.977 107.161 67.971 106.055C67.2942 106.055 66.6175 106.055 65.9202 106.055ZM184.573 106.934C184.669 111.091 184.766 115.248 184.866 119.532C185.252 119.532 185.639 119.532 186.037 119.532C186.037 115.471 186.037 111.411 186.037 107.227C185.554 107.13 185.071 107.034 184.573 106.934ZM186.916 106.934C187.013 111.091 187.11 115.248 187.209 119.532C187.596 119.628 187.983 119.725 188.381 119.825C188.928 119.278 188.712 118.359 188.713 117.63C188.713 117.339 188.713 117.339 188.714 117.043C188.714 116.631 188.714 116.219 188.712 115.806C188.711 115.187 188.712 114.567 188.714 113.947C188.715 111.694 188.642 109.468 188.381 107.227C187.898 107.13 187.414 107.034 186.916 106.934ZM196.877 106.934C196.527 107.219 196.527 107.219 196.56 107.74C196.566 107.964 196.572 108.187 196.578 108.417C196.584 108.669 196.59 108.921 196.596 109.181C196.604 109.455 196.612 109.729 196.62 110.011C196.627 110.291 196.634 110.57 196.641 110.857C196.663 111.753 196.688 112.649 196.712 113.544C196.728 114.15 196.743 114.755 196.759 115.361C196.797 116.849 196.836 118.337 196.877 119.825C197.602 119.68 197.602 119.68 198.342 119.532C198.342 115.471 198.342 111.411 198.342 107.227C197.859 107.13 197.375 107.034 196.877 106.934ZM199.221 106.934C199.221 111.188 199.221 115.442 199.221 119.825C199.704 119.825 200.188 119.825 200.686 119.825C201.115 119.464 201.115 119.464 200.985 118.369C200.973 117.85 200.959 117.331 200.943 116.811C200.936 116.539 200.929 116.266 200.922 115.985C200.9 115.11 200.875 114.236 200.851 113.361C200.835 112.77 200.82 112.178 200.804 111.587C200.766 110.133 200.727 108.68 200.686 107.227C200.202 107.13 199.719 107.034 199.221 106.934ZM201.565 106.934C201.526 111.143 201.629 115.329 201.858 119.532C202.341 119.628 202.824 119.725 203.323 119.825C203.363 115.518 203.266 111.234 203.03 106.934C202.546 106.934 202.063 106.934 201.565 106.934ZM204.201 106.934C204.192 110.988 204.192 110.988 204.348 115.027C204.441 116.63 204.512 118.219 204.494 119.825C206.074 120.089 207.594 120.161 209.193 120.157C209.441 120.157 209.688 120.157 209.943 120.157C210.462 120.158 210.982 120.157 211.501 120.156C212.294 120.154 213.088 120.156 213.881 120.158C214.387 120.157 214.894 120.157 215.401 120.157C215.637 120.157 215.873 120.158 216.116 120.158C217.262 120.154 218.317 120.107 219.436 119.825C218.889 116.901 218.088 114.193 217.055 111.402C216.921 111.03 216.786 110.659 216.651 110.287C216.056 108.584 216.056 108.584 215.334 106.934C211.66 106.934 207.987 106.934 204.201 106.934ZM189.553 107.227C189.553 111.288 189.553 115.348 189.553 119.532C190.036 119.532 190.52 119.532 191.018 119.532C191.018 115.471 191.018 111.411 191.018 107.227C190.534 107.227 190.051 107.227 189.553 107.227ZM192.19 107.227C192.093 111.288 191.996 115.348 191.897 119.532C192.38 119.532 192.864 119.532 193.362 119.532C193.362 115.471 193.362 111.411 193.362 107.227C192.975 107.227 192.588 107.227 192.19 107.227ZM194.533 107.227C194.533 111.288 194.533 115.348 194.533 119.532C195.017 119.532 195.5 119.532 195.998 119.532C196.006 118.156 196.011 116.78 196.014 115.405C196.016 114.938 196.018 114.47 196.02 114.003C196.024 113.328 196.026 112.654 196.027 111.979C196.028 111.773 196.03 111.567 196.032 111.355C196.032 109.955 195.902 108.613 195.705 107.227C195.319 107.227 194.932 107.227 194.533 107.227ZM69.4358 108.106C69.4358 111.393 69.4358 114.68 69.4358 118.067C69.9192 118.067 70.4025 118.067 70.9006 118.067C71.4721 117.495 71.2681 116.413 71.2863 115.63C71.2924 115.416 71.2985 115.202 71.3048 114.981C71.324 114.295 71.3412 113.608 71.3584 112.922C71.3711 112.457 71.3839 111.993 71.3968 111.528C71.4282 110.388 71.4578 109.247 71.4865 108.106C70.8097 108.106 70.1331 108.106 69.4358 108.106ZM72.9514 108.106C72.1245 112.98 72.1245 112.98 72.6585 117.774C73.0394 117.787 73.4204 117.8 73.8129 117.814C75.2414 117.864 76.6697 117.919 78.098 117.976C78.7134 118 79.3288 118.022 79.9442 118.043C86.3828 118.265 86.3828 118.265 89.3577 119.239C89.7724 119.356 90.1874 119.472 90.6028 119.587C90.8687 119.665 91.1346 119.744 91.4085 119.825C91.3375 119.547 91.2665 119.27 91.1933 118.985C90.573 116.542 89.9916 114.096 89.4736 111.63C89.2312 110.503 88.9487 109.453 88.4788 108.399C83.2993 108.095 78.1375 108.073 72.9514 108.106ZM90.2365 108.106C90.4271 113.496 90.4272 113.496 92.9283 119.513C95.0419 120.312 97.387 120.16 99.6133 120.156C100.139 120.156 100.139 120.156 100.675 120.157C101.642 120.158 102.61 120.158 103.577 120.157C104.409 120.156 105.241 120.157 106.072 120.157C108.575 120.159 111.077 120.157 113.579 120.155C115.009 120.154 116.438 120.154 117.867 120.153C132.49 120.148 147.112 120.095 161.734 120.003C163.218 119.994 164.703 119.985 166.187 119.976C168.763 119.961 171.338 119.945 173.913 119.926C174.771 119.92 175.63 119.915 176.488 119.91C177.655 119.903 178.823 119.894 179.99 119.885C180.335 119.883 180.68 119.881 181.035 119.88C181.501 119.875 181.501 119.875 181.976 119.871C182.246 119.869 182.516 119.867 182.794 119.865C183.398 119.892 183.398 119.892 183.694 119.532C183.694 115.761 183.694 111.991 183.694 108.106C152.853 108.106 122.012 108.106 90.2365 108.106ZM69.4358 120.411C69.4213 121.808 69.4107 123.205 69.4036 124.602C69.4007 125.077 69.3967 125.552 69.3916 126.027C69.3845 126.711 69.3812 127.395 69.3786 128.078C69.3756 128.29 69.3726 128.502 69.3694 128.72C69.3692 129.808 69.4176 130.619 70.0218 131.543C70.7462 131.443 70.7461 131.443 71.4865 131.25C72.4371 129.349 71.6548 126.109 71.4865 124.054C71.4586 123.703 71.4307 123.352 71.4019 122.99C71.3334 122.13 71.2639 121.27 71.1935 120.411C70.6135 120.411 70.0335 120.411 69.4358 120.411ZM73.2444 120.704C73.2444 124.087 73.2444 127.471 73.2444 130.957C75.3129 131.146 77.2961 131.294 79.3601 131.289C79.621 131.29 79.882 131.29 80.1508 131.29C80.6973 131.29 81.2438 131.29 81.7903 131.289C82.6175 131.287 83.4447 131.289 84.2719 131.291C86.8586 131.291 89.4238 131.288 91.9944 130.957C92.0199 129.706 92.0355 128.455 92.0493 127.204C92.0567 126.848 92.0641 126.492 92.0717 126.125C92.0745 125.784 92.0773 125.444 92.0802 125.092C92.0848 124.778 92.0894 124.463 92.0942 124.139C92.0624 123.336 92.0624 123.336 91.5879 122.811C88.0146 120.164 82.5004 120.394 78.2798 120.374C78.0804 120.373 77.8809 120.371 77.6754 120.37C76.162 120.375 74.7699 120.534 73.2444 120.704ZM206.252 122.168C206.454 122.201 206.655 122.233 206.862 122.266C207.258 122.335 207.258 122.335 207.662 122.406C208.055 122.473 208.055 122.473 208.455 122.54C209.265 122.779 209.574 122.95 210.061 123.633C210.256 124.376 210.355 125.108 210.464 125.867C210.676 126.675 210.894 126.91 211.526 127.442C212.084 127.694 212.084 127.694 212.703 127.861C213.044 127.966 213.044 127.966 213.392 128.072C213.865 128.212 214.339 128.351 214.813 128.489C216.371 128.971 217.372 129.538 218.557 130.665C218.433 132.073 217.785 132.93 216.799 133.887C214.276 135.966 214.276 135.966 212.789 135.865C210.786 135.618 208.812 135.18 206.838 134.766C206.967 136.539 207.292 138.222 207.699 139.948C207.749 140.16 207.798 140.372 207.85 140.591C208.14 141.797 208.477 142.969 208.889 144.141C209.875 143.648 210.06 142.562 210.468 141.578C211.711 139.068 213.127 137.477 215.426 135.883C215.661 135.714 215.897 135.545 216.139 135.371C217.703 134.255 219.297 133.186 220.901 132.129C220.728 131.191 220.675 131.01 219.882 130.392C219.426 130.11 219.426 130.11 218.96 129.822C216.468 128.272 214.878 126.853 213.467 124.274C213.214 123.827 212.962 123.379 212.709 122.932C212.547 122.638 212.547 122.638 212.381 122.338C212.14 121.879 212.14 121.879 211.819 121.582C211.046 121.545 210.284 121.528 209.512 121.528C209.297 121.524 209.082 121.52 208.86 121.517C207.736 121.514 207.209 121.53 206.252 122.168ZM213.576 121.582C215.256 124.803 216.772 126.827 219.912 128.76C221.49 129.739 222.966 130.749 223.446 132.624C222.859 134.597 219.643 135.695 217.949 136.616C215.386 138.044 213.383 139.441 212.13 142.145C211.964 142.494 211.798 142.842 211.628 143.202C210.029 147.006 211.333 150.447 212.698 154.102C213.084 154.102 213.471 154.102 213.869 154.102C213.859 153.857 213.849 153.612 213.839 153.359C213.704 147.591 215.342 143.085 219.218 138.813C221.054 136.93 223.056 135.99 225.496 135.111C226.684 134.674 227.597 134.176 228.518 133.301C228.518 133.108 228.518 132.915 228.518 132.715C227.899 132.226 227.28 131.772 226.632 131.324C226.445 131.191 226.258 131.059 226.065 130.923C225.047 130.207 224.015 129.536 222.951 128.888C221.293 127.779 220.265 126.4 219.795 124.45C219.693 123.829 219.604 123.206 219.531 122.58C219.51 121.891 219.51 121.891 219.143 121.582C218.728 121.557 218.312 121.551 217.897 121.554C217.521 121.555 217.521 121.555 217.138 121.557C216.744 121.56 216.744 121.56 216.341 121.564C216.077 121.565 215.813 121.567 215.541 121.568C214.886 121.572 214.231 121.576 213.576 121.582ZM147.971 121.647C147.714 121.648 147.457 121.65 147.193 121.651C144.086 121.671 140.98 121.692 137.874 121.713C135.19 121.731 132.506 121.749 129.821 121.766C124.341 121.802 118.861 121.838 113.381 121.875C113.381 121.972 113.381 122.069 113.381 122.168C113.563 122.17 113.745 122.172 113.932 122.174C115.843 122.193 117.754 122.217 119.665 122.245C120.376 122.255 121.086 122.263 121.797 122.27C129.377 122.343 129.377 122.343 132.717 123.34C132.717 123.534 132.717 123.727 132.717 123.926C132.383 123.878 132.049 123.831 131.704 123.781C130.406 123.621 129.135 123.596 127.828 123.607C127.44 123.609 127.44 123.609 127.045 123.61C126.103 123.616 125.162 123.624 124.221 123.633C123.836 123.637 123.452 123.641 123.055 123.644C120.315 123.672 117.576 123.706 114.836 123.742C113.87 123.755 112.905 123.767 111.939 123.779C105.873 123.852 99.8141 123.975 93.7522 124.219C93.7522 124.799 93.7522 125.379 93.7522 125.977C93.9356 125.973 94.1191 125.97 94.308 125.966C129.848 125.258 129.848 125.258 135.143 129.566C136.21 130.652 137.019 131.944 137.698 133.301C137.495 133.152 137.293 133.004 137.085 132.85C136.218 132.215 135.347 131.586 134.475 130.957C134.255 130.794 134.035 130.63 133.808 130.462C129.238 127.202 124.054 127.058 118.661 127.081C118.128 127.082 117.595 127.082 117.063 127.082C115.95 127.082 114.838 127.085 113.725 127.089C112.316 127.094 110.907 127.095 109.497 127.094C108.397 127.095 107.297 127.096 106.197 127.098C105.679 127.099 105.16 127.1 104.641 127.1C101.1 127.103 97.5795 127.225 94.0452 127.442C94.0452 128.505 94.0452 129.569 94.0452 130.665C101.847 130.719 101.847 130.719 109.646 130.518C125.697 129.828 125.697 129.828 132.707 135.083C134.343 136.117 135.923 136.307 137.831 136.286C138.136 136.283 138.136 136.283 138.446 136.279C140.413 136.249 142.373 136.122 144.335 135.98C147.755 135.738 151.169 135.577 154.598 135.553C154.931 135.548 155.264 135.543 155.608 135.538C159.555 135.54 163.73 136.24 166.814 138.879C170.117 142.329 170.401 146.942 170.314 151.49C170.229 153.37 169.719 154.985 169.045 156.739C168.941 157.128 168.84 157.518 168.752 157.911C169.074 157.943 169.397 157.975 169.728 158.008C173.154 158.367 176.246 158.868 179.299 160.547C179.502 160.632 179.705 160.716 179.914 160.803C180.612 161.217 180.714 161.577 181.057 162.305C181.289 162.705 181.522 163.104 181.756 163.503C182.569 164.959 183.114 166.458 183.639 168.036C183.73 168.304 183.821 168.571 183.915 168.847C184.136 169.498 184.356 170.149 184.573 170.801C184.898 169.829 184.83 169.256 184.522 168.286C184.399 167.89 184.399 167.89 184.273 167.487C184.182 167.204 184.091 166.922 183.997 166.631C183.905 166.34 183.814 166.049 183.72 165.749C183.427 164.82 183.13 163.892 182.833 162.964C182.634 162.335 182.435 161.705 182.236 161.075C181.749 159.531 181.258 157.988 180.764 156.446C180.496 156.539 180.496 156.539 180.223 156.634C179.988 156.714 179.752 156.795 179.51 156.878C179.277 156.958 179.044 157.038 178.804 157.121C176.997 157.665 175 157.567 173.238 156.94C172.561 156.446 172.561 156.446 171.975 155.567C171.69 153.513 171.891 151.686 173.147 150C174.219 149.02 175.22 149.033 176.609 149.062C177.239 149.121 177.808 149.255 178.42 149.415C177.992 146.676 177.067 144.113 176.146 141.511C175.359 139.276 174.677 137.155 174.612 134.766C172.884 134.398 171.165 134.413 169.407 134.391C168.903 134.383 168.903 134.383 168.388 134.374C167.313 134.357 166.238 134.342 165.163 134.327C153.402 134.158 153.402 134.158 147.915 133.448C147.609 133.41 147.303 133.371 146.988 133.332C146.401 133.259 145.815 133.184 145.229 133.108C144.726 133.045 144.222 132.986 143.718 132.933C142.15 132.766 142.15 132.766 141.524 132.221C140.405 129.783 140.859 127.087 141.521 124.596C141.799 123.926 141.799 123.926 142.678 123.34C143.368 123.252 143.368 123.252 144.176 123.229C144.616 123.214 144.616 123.214 145.065 123.199C145.524 123.187 145.524 123.187 145.992 123.175C146.595 123.158 147.198 123.139 147.802 123.119C148.069 123.112 148.337 123.105 148.612 123.098C149.41 123.065 149.41 123.065 150.155 122.901C151.516 122.705 152.854 122.705 154.228 122.699C154.532 122.696 154.835 122.694 155.148 122.691C155.806 122.686 156.463 122.682 157.121 122.678C158.161 122.672 159.202 122.664 160.242 122.656C162.825 122.635 165.409 122.618 167.992 122.6C170.177 122.585 172.361 122.569 174.546 122.552C175.571 122.544 176.596 122.538 177.621 122.532C178.25 122.527 178.878 122.522 179.506 122.517C179.933 122.515 179.933 122.515 180.37 122.513C180.633 122.511 180.896 122.508 181.167 122.506C181.509 122.504 181.509 122.504 181.857 122.501C182.587 122.457 183.273 122.327 183.987 122.168C183.89 121.975 183.793 121.782 183.694 121.582C171.786 121.566 159.879 121.572 147.971 121.647ZM204.201 124.219C203.823 125.141 203.847 125.522 204.201 126.453C204.998 127.399 205.652 127.692 206.838 128.028C208.055 127.866 208.655 127.705 209.475 126.783C209.847 125.76 209.825 125.249 209.475 124.219C208.852 123.502 208.386 123.122 207.444 122.935C206.017 122.854 205.184 123.117 204.201 124.219ZM142.678 124.805C142.493 126.904 142.509 128.977 143.264 130.957C145.294 131.102 145.294 131.102 147.366 131.25C147.269 130.67 147.172 130.09 147.073 129.493C146.954 127.715 147.073 126.196 147.658 124.512C144.998 123.907 144.998 123.907 142.678 124.805ZM200.971 123.483C199.254 123.644 197.552 123.682 195.828 123.689C195.505 123.691 195.182 123.694 194.849 123.696C194.151 123.701 193.453 123.706 192.755 123.71C191.636 123.716 190.517 123.724 189.398 123.732C187.209 123.748 185.02 123.762 182.831 123.776C176.576 123.816 170.32 123.86 164.065 123.926C163.731 123.93 163.397 123.933 163.053 123.937C161.216 123.956 159.38 123.98 157.543 124.013C157.003 124.022 156.462 124.03 155.921 124.036C155.19 124.045 154.459 124.059 153.727 124.074C153.412 124.077 153.412 124.077 153.09 124.079C151.428 124.124 150.527 124.616 149.325 125.721C148.633 126.898 148.6 127.865 148.83 129.2C149.53 130.652 150.267 131.258 151.76 131.836C153.078 132.182 154.385 132.172 155.738 132.168C155.983 132.169 156.228 132.169 156.48 132.17C157.275 132.17 158.07 132.169 158.865 132.166C159.135 132.165 159.406 132.164 159.685 132.163C161.299 132.158 162.912 132.147 164.525 132.134C165.158 132.13 165.791 132.128 166.423 132.128C171.257 132.114 175.413 131.344 179.885 129.493C179.901 129.078 179.912 128.663 179.922 128.248C179.928 128.016 179.935 127.785 179.942 127.547C179.877 126.759 179.77 126.322 179.299 125.684C178.209 125.372 177.286 125.4 176.166 125.517C173.703 125.733 171.253 125.721 168.783 125.713C168.289 125.712 167.796 125.712 167.302 125.711C166.015 125.71 164.729 125.707 163.443 125.704C162.125 125.701 160.807 125.7 159.489 125.698C156.913 125.695 154.336 125.69 151.76 125.684C151.305 126.758 151.106 127.535 151.137 128.705C151.143 128.964 151.148 129.223 151.154 129.489C151.16 129.684 151.167 129.878 151.174 130.079C150.981 130.079 150.787 130.079 150.588 130.079C150.58 129.352 150.574 128.626 150.57 127.9C150.566 127.589 150.566 127.589 150.562 127.272C150.56 126.743 150.573 126.213 150.588 125.684C151.13 125.142 152.02 125.346 152.746 125.34C153.038 125.337 153.038 125.337 153.336 125.334C153.761 125.33 154.186 125.327 154.612 125.324C155.287 125.319 155.962 125.312 156.637 125.305C158.558 125.284 160.479 125.267 162.4 125.251C163.574 125.242 164.749 125.23 165.923 125.216C166.368 125.212 166.814 125.208 167.259 125.205C169.527 125.192 171.72 125.13 173.944 124.643C175.026 124.431 176.094 124.438 177.193 124.457C177.506 124.458 177.506 124.458 177.825 124.458C178.68 124.465 179.497 124.493 180.338 124.661C181.769 124.865 183.18 124.835 184.623 124.823C184.939 124.822 185.254 124.821 185.58 124.82C186.925 124.815 188.27 124.807 189.615 124.799C190.6 124.794 191.585 124.79 192.57 124.787C192.869 124.784 193.169 124.782 193.478 124.779C198.45 124.763 198.45 124.763 199.649 125.604C200.139 126.328 200.506 127.05 200.869 127.845C201.843 129.669 202.938 130.401 204.787 131.25C205.096 131.394 205.405 131.537 205.724 131.684C206.583 132.065 207.446 132.428 208.318 132.778C208.715 132.938 209.111 133.101 209.507 133.266C210.135 133.527 210.766 133.781 211.397 134.034C211.593 134.116 211.788 134.198 211.989 134.282C212.868 134.623 213.439 134.798 214.368 134.583C215.075 134.16 215.66 133.71 216.268 133.155C216.466 132.976 216.663 132.798 216.867 132.615C217.241 132.264 217.608 131.906 217.971 131.543C217.957 130.941 217.957 130.941 217.678 130.372C216.26 129.344 214.262 128.908 212.606 128.357C212.301 128.252 212.301 128.252 211.99 128.145C210.833 127.769 210.833 127.769 209.664 127.971C209.505 128.086 209.346 128.202 209.182 128.321C208.096 128.864 206.852 128.748 205.666 128.614C204.537 128.029 204.026 127.618 203.323 126.563C203.255 125.995 203.255 125.995 203.268 125.391C203.27 125.092 203.27 125.092 203.273 124.787C203.323 124.219 203.323 124.219 203.616 123.34C202.708 123.34 201.869 123.389 200.971 123.483ZM181.936 126.27C181.936 126.367 181.936 126.463 181.936 126.563C187.447 126.66 192.957 126.756 198.635 126.856C197.497 126.287 197.115 126.198 195.905 126.203C195.439 126.204 195.439 126.204 194.963 126.204C194.629 126.207 194.296 126.21 193.952 126.213C193.609 126.214 193.266 126.214 192.913 126.215C191.817 126.219 190.722 126.226 189.626 126.233C188.884 126.236 188.141 126.239 187.398 126.241C185.577 126.248 183.757 126.258 181.936 126.27ZM181.936 128.028C181.936 128.705 181.936 129.381 181.936 130.079C182.426 130.015 182.426 130.015 182.927 129.95C188.802 129.235 194.519 129.433 200.393 130.079C199.13 128.675 198.045 128.275 196.168 128.165C195.955 128.156 195.742 128.147 195.522 128.138C195.294 128.127 195.065 128.115 194.83 128.104C190.537 127.928 186.231 128.004 181.936 128.028ZM178.182 133.466C177.423 134.384 177.445 135.458 177.461 136.604C177.627 138.258 178.191 139.818 178.695 141.394C178.824 141.809 178.953 142.223 179.082 142.638C179.375 143.579 179.67 144.519 179.966 145.459C180.527 147.246 181.079 149.036 181.63 150.827C183.571 157.128 185.525 163.425 187.484 169.721C187.647 170.246 187.81 170.77 187.974 171.295C188.715 173.678 189.457 176.06 190.2 178.443C190.895 180.668 191.589 182.894 192.281 185.12C192.395 185.485 192.508 185.849 192.625 186.224C194.235 191.403 195.81 196.589 197.272 201.811C197.446 202.448 197.446 202.448 197.756 203.028C201.148 203.01 204.541 202.987 207.933 202.959C209.508 202.946 211.084 202.934 212.659 202.926C214.181 202.919 215.702 202.907 217.224 202.892C217.803 202.887 218.382 202.884 218.961 202.882C219.776 202.879 220.589 202.871 221.404 202.861C221.759 202.862 221.759 202.862 222.122 202.863C224.086 202.831 226.018 202.536 227.502 201.176C228.573 199.222 228.038 196.742 227.547 194.66C224.975 185.87 220.784 177.448 217.02 169.119C215.258 165.219 213.535 161.308 211.901 157.352C211.499 156.381 211.093 155.411 210.687 154.441C208.445 149.052 206.326 143.744 205.384 137.959C204.959 135.664 203.946 133.999 202.131 132.512C201.446 132.049 200.826 131.861 200.027 131.653C199.765 131.583 199.504 131.513 199.235 131.44C197.346 131.038 195.488 130.909 193.563 130.898C193.224 130.895 193.224 130.895 192.878 130.893C192.401 130.89 191.924 130.888 191.448 130.887C190.735 130.884 190.022 130.875 189.309 130.866C183.344 130.818 183.344 130.818 178.182 133.466ZM94.0452 131.836C94.0452 132.223 94.0452 132.61 94.0452 133.008C94.5066 133.013 94.5066 133.013 94.9773 133.017C97.8988 133.046 100.82 133.076 103.742 133.108C105.243 133.124 106.744 133.139 108.246 133.154C109.699 133.168 111.152 133.183 112.605 133.2C113.155 133.205 113.706 133.211 114.256 133.216C116.981 133.241 119.703 133.288 122.425 133.426C122.636 133.436 122.847 133.446 123.065 133.456C124.89 133.56 126.579 133.947 128.323 134.473C128.713 134.573 129.103 134.671 129.494 134.766C127.993 132.964 125.925 132.19 123.635 131.836C122.674 131.795 121.714 131.799 120.752 131.803C120.464 131.803 120.175 131.803 119.877 131.803C118.925 131.803 117.972 131.805 117.019 131.808C116.358 131.808 115.697 131.809 115.035 131.809C113.296 131.81 111.557 131.813 109.818 131.816C108.042 131.819 106.267 131.821 104.492 131.822C101.01 131.825 97.5274 131.83 94.0452 131.836ZM129.494 134.766C129.784 135.201 129.784 135.201 130.08 135.645C130.274 135.548 130.467 135.452 130.666 135.352C130.28 135.159 129.893 134.965 129.494 134.766ZM131.838 136.817C131.939 136.992 132.039 137.168 132.143 137.348C133.765 140.194 134.8 142.516 134.819 145.828C134.826 146.276 134.833 146.724 134.841 147.171C134.851 147.869 134.859 148.567 134.863 149.265C134.888 152.97 135.112 156.264 137.847 159.064C142.901 163.253 151.498 164.242 157.864 163.699C159.778 163.467 161.621 162.93 163.479 162.433C170.933 160.451 170.933 160.451 174.52 162.012C178.317 164.348 179.415 168.602 180.636 172.632C180.761 173.041 180.887 173.449 181.013 173.858C181.351 174.955 181.686 176.052 182.02 177.15C182.371 178.299 182.724 179.447 183.077 180.595C183.148 180.827 183.22 181.06 183.293 181.299C183.512 182.011 183.731 182.723 183.95 183.436C184.023 183.672 184.096 183.909 184.171 184.153C184.694 185.855 185.219 187.557 185.744 189.258C185.822 189.508 185.899 189.759 185.979 190.016C186.446 191.527 186.915 193.036 187.387 194.545C187.534 195.015 187.68 195.485 187.826 195.955C188.757 198.96 189.804 201.883 191.018 204.786C191.791 204.882 192.565 204.979 193.362 205.079C193.282 204.849 193.203 204.619 193.122 204.382C191.438 199.469 189.847 194.539 188.399 189.551C188.327 189.302 188.255 189.054 188.181 188.797C187.735 187.261 187.292 185.724 186.85 184.186C186.235 182.049 185.617 179.913 184.997 177.777C184.783 177.039 184.571 176.301 184.359 175.563C183.644 173.089 182.876 170.639 182.034 168.206C181.95 167.961 181.867 167.717 181.78 167.465C180.9 164.966 179.788 162.938 177.541 161.426C173.525 159.518 169.464 159.518 165.237 160.84C165.382 160.617 165.527 160.393 165.676 160.163C166.187 159.398 166.187 159.398 166.116 158.497C165.952 158.606 165.788 158.716 165.619 158.83C159.849 162.512 152.8 163.134 146.194 161.719C142.994 160.841 139.822 159.316 137.991 156.446C137.102 154.58 136.346 152.665 136.233 150.586C136.215 150.336 136.196 150.085 136.178 149.826C136.03 146.31 136.986 142.839 139.162 140.04C139.808 139.393 140.488 138.835 141.213 138.282C141.407 138.088 141.6 137.895 141.799 137.696C141.591 137.7 141.383 137.705 141.169 137.71C140.213 137.728 139.257 137.739 138.302 137.751C137.811 137.762 137.811 137.762 137.31 137.773C135.283 137.791 133.721 137.578 131.838 136.817ZM140.689 141.54C140.202 142.289 139.821 143.033 139.455 143.848C139.335 144.111 139.214 144.374 139.089 144.645C137.91 147.625 137.759 151.104 138.778 154.157C139.983 156.902 141.775 158.083 144.436 159.375C150.321 161.641 156.883 161.254 162.6 158.79C164.898 157.663 166.983 156.469 168.166 154.102C168.238 152.974 168.221 151.844 168.221 150.715C168.225 150.404 168.228 150.093 168.232 149.773C168.236 147.755 168.21 145.694 167.287 143.848C165.54 144.241 164.34 145.15 163.186 146.485C162.663 147.425 162.334 148.39 162.014 149.415C160.952 152.757 159.833 155.407 156.592 157.129C154.187 158.121 151.706 158.31 149.197 157.599C148.537 157.032 148.537 157.032 148.281 155.951C148.269 155.631 148.257 155.311 148.244 154.981C148.474 154.881 148.704 154.782 148.941 154.679C151.94 153.295 153.454 151.977 154.671 148.884C155.544 146.176 155.675 143.935 154.47 141.32C154.349 141.091 154.228 140.862 154.104 140.625C153.983 140.393 153.862 140.161 153.738 139.922C153.201 139.055 152.762 138.415 151.767 138.096C148.495 137.928 142.865 138.96 140.689 141.54ZM173.733 150.879C172.985 152.095 172.931 153.297 173.147 154.688C173.609 155.353 173.609 155.353 174.319 155.567C174.966 155.503 174.966 155.503 175.491 155.274C175.303 155.159 175.116 155.044 174.923 154.926C174.319 154.395 174.319 154.395 174.062 153.736C174.012 152.628 174.152 151.893 174.612 150.879C175.674 150.458 175.674 150.458 176.662 150.293C176.662 150.197 176.662 150.1 176.662 150C175.413 149.893 174.733 150.123 173.733 150.879ZM177.834 150.879C177.937 151.079 178.04 151.278 178.146 151.484C178.495 152.579 178.39 153.282 178.127 154.395C177.669 155.109 177.669 155.109 177.248 155.567C178.122 155.406 178.122 155.406 179.006 154.981C179.526 154.203 179.526 154.203 179.592 153.223C179.287 152.105 179.287 152.105 178.713 151.172C178.423 151.076 178.133 150.979 177.834 150.879ZM174.905 152.344C175.001 153.021 175.098 153.698 175.198 154.395C176.047 154.594 176.047 154.594 176.955 154.688C177.634 154.136 177.634 154.136 177.615 153.223C177.634 152.311 177.634 152.311 176.955 151.758C175.77 151.65 175.77 151.65 174.905 152.344ZM175.491 155.567C175.491 155.664 175.491 155.76 175.491 155.86C175.974 155.86 176.457 155.86 176.955 155.86C176.955 155.763 176.955 155.666 176.955 155.567C176.472 155.567 175.989 155.567 175.491 155.567ZM213.869 156.153C214.461 158.076 215.203 159.884 216.067 161.701C216.181 161.95 216.296 162.198 216.413 162.454C216.526 162.692 216.638 162.929 216.753 163.174C216.904 163.494 216.904 163.494 217.057 163.82C217.39 164.448 217.39 164.448 218.264 164.942C218.554 164.748 218.844 164.555 219.143 164.356C218.594 160.895 217.597 158.372 214.748 156.153C214.458 156.153 214.168 156.153 213.869 156.153ZM219.143 166.993C218.949 167.186 218.756 167.379 218.557 167.579C218.706 167.904 218.854 168.229 219.007 168.564C231.573 196.075 231.573 196.075 229.616 201.691C229.142 202.657 228.652 203.405 227.932 204.2C228.904 204.111 229.538 204.019 230.331 203.431C231.825 201.472 232.095 199.318 232.143 196.93C232.16 196.643 232.16 196.643 232.177 196.35C232.244 192.324 230.099 188.313 228.426 184.754C228.222 184.313 228.017 183.872 227.813 183.431C227.281 182.284 226.746 181.139 226.208 179.995C225.88 179.295 225.552 178.594 225.224 177.892C222.683 172.414 222.683 172.414 220.022 166.993C219.732 166.993 219.442 166.993 219.143 166.993ZM184.866 170.801C185.036 172.357 185.036 172.357 185.744 173.731C185.574 172.176 185.574 172.176 184.866 170.801ZM185.744 173.731C186.037 174.61 186.037 174.61 186.037 174.61L185.744 173.731ZM186.037 174.61C186.33 175.489 186.33 175.489 186.33 175.489L186.037 174.61ZM186.33 175.782C186.623 176.661 186.623 176.661 186.623 176.661L186.33 175.782ZM221.004 206.326C220.719 206.343 220.435 206.36 220.141 206.377C219.831 206.395 219.52 206.414 219.2 206.432C201.619 207.457 201.619 207.457 196.256 207.407C195.953 207.405 195.953 207.405 195.643 207.403C194.664 207.395 193.686 207.382 192.706 207.36C192.358 207.356 192.01 207.351 191.652 207.347C191.192 207.337 191.192 207.337 190.722 207.327C189.69 207.439 188.985 207.792 188.088 208.301C188.088 208.495 188.088 208.688 188.088 208.887C191.99 208.964 195.892 209.04 199.794 209.116C201.606 209.152 203.418 209.187 205.23 209.223C206.981 209.257 208.733 209.291 210.484 209.325C211.15 209.338 211.815 209.351 212.481 209.365C217.571 209.535 217.571 209.535 222.658 209.473C223.027 209.17 223.027 209.17 222.98 208.511C222.977 208.242 222.973 207.974 222.97 207.697C222.967 207.428 222.964 207.158 222.962 206.881C222.958 206.673 222.955 206.465 222.951 206.25C222.299 206.25 221.655 206.288 221.004 206.326Z" fill="black"/>
<path d="M93.75 127.441C93.8467 127.441 93.9434 127.441 94.043 127.441C94.043 128.505 94.043 129.568 94.043 130.664C94.38 130.653 94.38 130.653 94.7238 130.642C96.8813 130.572 99.0388 130.503 101.196 130.435C102.305 130.4 103.413 130.365 104.521 130.328C108.953 130.183 113.382 130.052 117.817 130.05C118.135 130.049 118.452 130.049 118.78 130.049C122.771 130.062 126.423 130.35 129.785 132.715C130.108 133.46 130.078 133.944 130.078 134.766C129.459 134.459 128.844 134.147 128.233 133.823C127.996 133.699 127.759 133.575 127.515 133.447C127.281 133.323 127.046 133.2 126.805 133.072C124.78 132.199 122.919 132.046 120.745 132.072C120.466 132.073 120.187 132.073 119.9 132.074C119.298 132.076 118.696 132.08 118.095 132.085C117.143 132.092 116.191 132.096 115.24 132.099C113.222 132.106 111.204 132.117 109.186 132.129C106.842 132.143 104.498 132.155 102.154 132.162C101.216 132.165 100.277 132.173 99.3388 132.18C98.7659 132.182 98.1929 132.184 97.62 132.186C97.2276 132.191 97.2276 132.191 96.8272 132.195C96.5878 132.195 96.3484 132.195 96.1018 132.195C95.8939 132.197 95.686 132.198 95.4719 132.199C94.9219 132.129 94.9219 132.129 94.043 131.543C94.1396 131.446 94.2363 131.35 94.3359 131.25C94.1426 131.153 93.9492 131.057 93.75 130.957C93.75 129.797 93.75 128.637 93.75 127.441Z" fill="black"/>
<path d="M204.493 121.875C208.573 121.936 208.573 121.936 209.693 122.736C210.473 123.797 210.652 124.626 210.815 125.916C210.887 126.621 210.887 126.621 211.524 127.148C212.054 127.361 212.054 127.361 212.663 127.528C213.003 127.633 213.003 127.633 213.35 127.739C213.823 127.88 214.297 128.019 214.772 128.156C216.461 128.68 217.596 129.417 218.849 130.664C218.742 132.426 217.533 133.489 216.311 134.636C215.149 135.645 215.149 135.645 214.454 135.645C214.309 135.064 214.309 135.064 214.161 134.473C214.317 134.359 214.472 134.246 214.633 134.129C216.283 132.972 216.283 132.972 217.677 131.543C217.687 130.943 217.687 130.943 217.384 130.371C216.709 129.981 216.709 129.981 215.858 129.723C215.392 129.566 215.392 129.566 214.916 129.406C214.588 129.302 214.261 129.197 213.923 129.089C213.599 128.978 213.275 128.867 212.941 128.752C211.333 128.112 211.333 128.112 209.701 128.276C209.529 128.387 209.357 128.499 209.181 128.613C208.094 129.157 206.851 129.039 205.665 128.906C204.536 128.332 203.602 127.71 203.028 126.562C202.76 124.552 203.301 123.475 204.493 121.875ZM204.2 124.219C203.822 125.141 203.845 125.521 204.2 126.453C204.996 127.398 205.651 127.691 206.837 128.027C208.054 127.865 208.653 127.705 209.474 126.782C209.845 125.76 209.824 125.248 209.474 124.219C208.851 123.502 208.385 123.121 207.442 122.935C206.016 122.854 205.183 123.117 204.2 124.219Z" fill="black"/>
<path d="M190.721 133.008C191.683 133.72 192.1 134.216 192.478 135.352C192.478 136.432 192.277 136.861 191.6 137.696C190.764 138.373 190.336 138.575 189.256 138.575C188.12 138.196 187.624 137.779 186.912 136.817C186.709 135.556 186.761 134.998 187.461 133.924C188.506 132.879 189.259 132.86 190.721 133.008Z" fill="black"/>
<path d="M212.402 193.359C213.25 193.811 213.738 194.151 214.054 195.079C214.238 196.127 214.224 196.729 213.794 197.717C213.123 198.532 212.628 198.891 211.579 199.054C210.58 198.917 209.968 198.646 209.221 197.958C208.672 197.141 208.686 196.398 208.75 195.437C208.947 194.558 209.333 194.165 210.059 193.652C210.895 193.234 211.475 193.268 212.402 193.359Z" fill="black"/>
<path d="M90.2344 108.691C90.7458 109.592 90.9283 110.343 91.0389 111.369C91.0727 111.659 91.1065 111.949 91.1413 112.247C91.2076 112.851 91.2732 113.454 91.3382 114.058C91.6385 117.069 91.6385 117.069 93.219 119.531C93.3942 119.628 93.5695 119.725 93.75 119.824C93.3149 119.969 93.3149 119.969 92.8711 120.117C92.8711 119.924 92.8711 119.73 92.8711 119.531C92.5811 119.725 92.291 119.918 91.9922 120.117C91.7021 120.021 91.4121 119.924 91.1133 119.824C90.8738 119.149 90.6998 118.524 90.5457 117.828C90.4976 117.625 90.4495 117.421 90.4 117.211C89.7915 114.581 89.2801 111.928 88.7695 109.277C89.2529 109.084 89.7363 108.891 90.2344 108.691Z" fill="black"/>
<path d="M151.717 125.027C152.075 125.029 152.432 125.03 152.801 125.031C152.998 125.031 153.196 125.031 153.399 125.031C154.052 125.031 154.705 125.036 155.358 125.041C155.811 125.042 156.263 125.043 156.715 125.043C157.907 125.045 159.098 125.051 160.29 125.058C161.506 125.064 162.721 125.066 163.937 125.069C166.322 125.075 168.708 125.085 171.094 125.098C171.094 125.194 171.094 125.291 171.094 125.391C164.81 125.487 158.525 125.584 152.051 125.684C151.584 126.85 151.377 127.511 151.282 128.705C151.26 128.964 151.238 129.222 151.215 129.489C151.201 129.683 151.187 129.878 151.172 130.078C150.979 130.078 150.785 130.078 150.586 130.078C150.521 129.358 150.461 128.638 150.403 127.918C150.384 127.713 150.365 127.508 150.346 127.297C150.304 126.761 150.297 126.222 150.293 125.684C150.879 125.098 150.879 125.098 151.717 125.027Z" fill="black"/>
<path d="M214.16 101.367C215.876 102.368 216.281 103.946 216.797 105.762C216.797 105.955 216.797 106.148 216.797 106.348C216.313 106.444 215.83 106.541 215.332 106.641C215.235 106.447 215.139 106.254 215.039 106.055C214.846 106.151 214.652 106.248 214.453 106.348C214.453 106.154 214.453 105.961 214.453 105.762C213.776 105.762 213.1 105.762 212.402 105.762C212.402 105.665 212.402 105.568 212.402 105.469C213.079 105.469 213.756 105.469 214.453 105.469C214.358 105.295 214.264 105.122 214.166 104.943C213.813 104.243 213.504 103.585 213.281 102.832C213.647 101.935 213.647 101.935 214.16 101.367Z" fill="black"/>
<path d="M134.161 128.906C135.531 129.57 136.528 130.912 137.402 132.129C137.622 132.806 137.622 132.806 137.695 133.301C136.845 132.904 136.129 132.447 135.388 131.873C134.422 131.135 133.441 130.447 132.422 129.785C133.406 128.906 133.406 128.906 134.161 128.906Z" fill="black"/>
<path d="M208.008 123.633C208.575 124.128 208.575 124.128 208.887 124.805C208.887 125.702 208.887 125.702 208.594 126.563C207.953 127.149 207.953 127.149 207.129 127.442C206.195 127.259 206.195 127.259 205.371 126.856C204.785 125.977 204.785 125.977 204.822 124.933C205.078 123.926 205.078 123.926 205.573 123.487C206.491 123.288 207.108 123.365 208.008 123.633ZM205.371 124.512C205.298 125.379 205.298 125.379 205.371 126.27C205.906 126.929 205.906 126.929 206.689 126.929C207.473 126.929 207.473 126.929 208.008 126.27C208.105 125.537 208.105 125.537 208.008 124.805C207.454 124.122 207.454 124.122 206.525 124.164C205.697 124.122 205.697 124.122 205.371 124.512Z" fill="black"/>
<path d="M191.309 106.934C191.895 107.52 191.895 107.52 191.962 108.339C191.959 108.68 191.956 109.02 191.953 109.371C191.951 109.739 191.949 110.108 191.947 110.487C191.942 110.873 191.937 111.26 191.932 111.658C191.929 112.05 191.926 112.443 191.924 112.835C191.917 113.798 191.907 114.76 191.895 115.723C191.799 115.723 191.702 115.723 191.602 115.723C191.105 113.704 190.96 111.75 190.962 109.68C190.961 109.444 190.961 109.208 190.961 108.964C190.977 107.266 190.977 107.266 191.309 106.934Z" fill="black"/>
<path d="M151.337 125.372C151.69 125.381 151.69 125.381 152.051 125.39C151.96 125.62 151.87 125.85 151.776 126.086C151.388 127.411 151.275 128.705 151.172 130.078C150.979 130.078 150.785 130.078 150.586 130.078C150.529 129.352 150.474 128.625 150.421 127.899C150.405 127.692 150.388 127.485 150.371 127.271C150.333 126.743 150.312 126.213 150.293 125.683C150.586 125.39 150.586 125.39 151.337 125.372Z" fill="black"/>
<path d="M136.249 130.829C136.969 131.364 137.296 131.917 137.695 132.715C137.695 132.908 137.695 133.102 137.695 133.301C136.51 132.78 135.51 132.013 134.473 131.25C135.462 130.614 135.462 130.614 136.249 130.829Z" fill="black"/>
<path d="M91.4057 116.602C91.9916 117.773 91.9916 117.773 92.248 118.378C92.6433 119.058 93.0999 119.391 93.7495 119.824C93.4594 119.921 93.1694 120.018 92.8705 120.117C92.8705 119.924 92.8705 119.73 92.8705 119.531C92.5805 119.725 92.2905 119.918 91.9916 120.117C91.7016 120.021 91.4116 119.924 91.1127 119.824C91.0709 117.648 91.0709 117.648 91.4057 116.602Z" fill="black"/>
<path d="M145.203 123.028C145.438 123.029 145.672 123.031 145.914 123.032C146.495 123.036 147.076 123.041 147.656 123.046C147.656 123.143 147.656 123.24 147.656 123.339C146.303 123.436 144.949 123.533 143.555 123.632C143.941 123.826 144.328 124.019 144.727 124.218C144.05 124.412 143.373 124.605 142.676 124.804C142.482 124.321 142.289 123.837 142.09 123.339C143.06 122.855 144.138 123.017 145.203 123.028Z" fill="black"/>
<path d="M11.1328 298.242C11.9063 298.242 12.6797 298.242 13.4766 298.242C13.4766 298.532 13.4766 298.822 13.4766 299.121C12.8965 299.121 12.3164 299.121 11.7188 299.121C11.7188 299.411 11.7188 299.701 11.7188 300C11.5254 300 11.332 300 11.1328 300C11.1328 299.42 11.1328 298.84 11.1328 298.242Z" fill="black"/>
<path d="M217.676 130.078C218.063 130.271 218.449 130.465 218.848 130.664C218.628 132.056 218.628 132.056 217.969 132.715C217.346 132.605 217.346 132.605 216.797 132.422C217.014 132.25 217.014 132.25 217.236 132.074C217.809 131.382 217.747 130.953 217.676 130.078Z" fill="black"/>
<path d="M215.332 128.613C216.438 128.933 217.228 129.172 217.969 130.078C217.383 130.371 217.383 130.371 216.813 130.207C216.602 130.122 216.391 130.037 216.174 129.95C215.962 129.866 215.75 129.782 215.531 129.695C215.288 129.594 215.288 129.594 215.039 129.492C215.136 129.202 215.232 128.912 215.332 128.613Z" fill="black"/>
<path d="M273.34 299.707C273.823 299.707 274.307 299.707 274.805 299.707C274.805 299.804 274.805 299.9 274.805 300C274.321 300 273.838 300 273.34 300C273.34 299.903 273.34 299.807 273.34 299.707Z" fill="black"/>
</svg>
