<svg width="300" height="300" viewBox="0 0 300 300" fill="none" xmlns="http://www.w3.org/2000/svg">
<path d="M158.892 15.3394C160.277 16.198 161.675 17.034 163.073 17.8712C163.378 18.0542 163.683 18.2371 163.998 18.4256C165.748 19.4742 167.501 20.5183 169.257 21.5585C169.546 21.7302 169.546 21.7302 169.842 21.9054C170.636 22.3758 171.43 22.8462 172.224 23.3165C175.032 24.9806 177.828 26.6633 180.615 28.3632C183.998 30.4265 187.411 32.435 190.84 34.4217C192.52 35.3962 194.195 36.38 195.866 37.37C196.404 37.688 196.943 38.005 197.482 38.3215C198.477 38.9061 199.47 39.4938 200.463 40.0819C200.781 40.2679 201.099 40.4539 201.426 40.6455C205.096 42.8278 205.096 42.8278 205.664 44.5314C205.694 45.0852 205.707 45.64 205.711 46.1946C205.714 46.5359 205.717 46.8772 205.719 47.2288C205.721 47.7822 205.721 47.7822 205.723 48.3468C205.725 48.7258 205.727 49.1047 205.728 49.4952C205.731 50.2975 205.733 51.0999 205.734 51.9022C205.736 52.9284 205.743 53.9545 205.751 54.9806C205.758 55.9615 205.758 56.9424 205.76 57.9233C205.763 58.291 205.767 58.6588 205.771 59.0377C205.77 59.3808 205.769 59.7239 205.768 60.0775C205.769 60.3786 205.77 60.6798 205.771 60.9901C205.617 62.1786 205.139 62.9626 204.254 63.7597C202.386 65.034 200.45 66.1724 198.48 67.2812C198.016 67.5444 197.555 67.8132 197.096 68.0866C196.491 68.4377 195.871 68.7647 195.246 69.0791C193.503 70.0029 192.135 70.8082 191.463 72.767C191.179 73.8076 190.974 74.8556 190.777 75.9157C190.678 76.3821 190.577 76.8483 190.474 77.314C190.261 78.2911 190.057 79.2694 189.859 80.2497C189.561 81.7112 189.224 83.1617 188.876 84.612C187.646 89.7596 186.521 94.9213 185.535 100.122C185.496 100.324 185.457 100.527 185.417 100.736C185.313 101.276 185.211 101.818 185.109 102.359C184.925 103.151 184.718 103.871 184.453 104.635C183.875 106.32 183.475 108.041 183.065 109.773C182.982 110.12 182.898 110.468 182.813 110.826C182.549 111.927 182.287 113.028 182.025 114.13C181.845 114.88 181.666 115.63 181.486 116.38C181.048 118.212 180.611 120.043 180.175 121.875C181.498 122.962 182.872 123.82 184.35 124.677C184.587 124.818 184.824 124.959 185.068 125.104C186.227 125.778 187.312 126.334 188.601 126.715C190.525 127.308 191.713 128.701 192.773 130.371C193.033 131.666 192.707 132.554 192.13 133.709C191.493 134.629 190.879 135.015 189.917 135.582C189.751 135.681 189.585 135.78 189.414 135.882C188.875 136.203 188.334 136.519 187.793 136.835C187.235 137.166 186.677 137.497 186.12 137.829C185.747 138.051 185.374 138.273 185.001 138.494C183.122 139.61 181.28 140.782 179.446 141.972C177.893 142.969 177.893 142.969 177.246 142.969C177.246 168.879 177.246 194.789 177.246 221.485C177.826 221.678 178.406 221.871 179.004 222.07C182.181 223.615 185.197 225.532 187.793 227.93C188.026 228.14 188.259 228.35 188.5 228.566C191.273 231.181 193.786 234.866 193.974 238.798C193.989 239.573 193.995 240.348 193.997 241.123C193.999 241.418 194.001 241.713 194.003 242.017C194.008 242.992 194.012 243.967 194.015 244.943C194.016 245.277 194.017 245.611 194.018 245.955C194.024 247.723 194.029 249.492 194.031 251.26C194.035 253.081 194.045 254.903 194.056 256.724C194.064 258.129 194.066 259.534 194.068 260.939C194.069 261.61 194.072 262.281 194.078 262.953C194.085 263.895 194.085 264.837 194.083 265.779C194.088 266.19 194.088 266.19 194.094 266.609C194.063 270.621 192.083 274.039 189.367 276.892C182.021 283.884 171.236 286.806 161.425 287.988C161.18 288.019 160.935 288.049 160.682 288.08C145.546 289.86 127.078 288.714 114.194 279.713C113.512 279.17 112.857 278.608 112.207 278.027C111.911 277.81 111.614 277.592 111.309 277.368C108.375 274.875 106.495 271.268 106.054 267.481C106.014 266.57 106.011 265.66 106.012 264.749C106.011 264.483 106.01 264.216 106.009 263.942C106.006 263.067 106.005 262.191 106.005 261.316C106.004 260.703 106.003 260.09 106.002 259.478C106 258.194 106 256.911 106 255.628C106 253.991 105.996 252.354 105.991 250.718C105.988 249.452 105.987 248.187 105.987 246.921C105.987 246.318 105.986 245.715 105.983 245.112C105.956 237.017 105.956 237.017 107.647 233.789C107.8 233.493 107.8 233.493 107.956 233.191C111.063 227.465 117.099 224.004 122.754 221.192C122.753 220.863 122.752 220.534 122.751 220.195C122.721 205.443 122.811 190.692 122.884 175.941C122.902 172.305 122.92 168.668 122.937 165.032C122.973 157.58 123.01 150.128 123.047 142.676C122.823 142.589 122.6 142.503 122.37 142.414C121.423 142.025 120.576 141.534 119.693 141.015C119.515 140.911 119.336 140.806 119.151 140.698C118.773 140.476 118.396 140.253 118.018 140.031C117.452 139.696 116.885 139.364 116.317 139.032C108.727 134.575 108.727 134.575 108.217 133.055C107.995 131.873 108.044 130.798 108.599 129.701C110.001 127.874 112.442 126.824 114.408 125.724C116.366 124.625 118.24 123.4 120.117 122.168C118.536 114.878 116.93 107.574 114.83 100.414C113.664 96.4392 113.664 96.4392 113.379 94.629C113.475 94.5324 113.572 94.4357 113.672 94.3361C113.587 93.7415 113.587 93.7415 113.41 93.0299C113.313 92.6103 113.313 92.6103 113.214 92.1823C113.141 91.8756 113.068 91.569 112.993 91.253C112.919 90.9364 112.846 90.6197 112.77 90.2934C112.365 88.5566 111.953 86.8217 111.542 85.0866C111.377 84.3906 111.213 83.6945 111.049 82.9984C110.968 82.6564 110.887 82.3145 110.804 81.9621C110.376 80.1224 109.986 78.2873 109.684 76.4226C109.281 73.0486 109.281 73.0486 107.543 70.2726C106.654 69.6514 105.707 69.2546 104.701 68.8588C103.281 68.2401 101.978 67.3937 100.653 66.5956C100.382 66.4385 100.112 66.2815 99.8333 66.1197C95.6908 63.703 95.6908 63.703 94.6285 62.1095C94.5576 61.3288 94.5193 60.5762 94.5072 59.7944C94.5015 59.5641 94.4957 59.3339 94.4898 59.0967C94.472 58.3493 94.4585 57.6019 94.4454 56.8544C94.4352 56.3437 94.4248 55.8331 94.4143 55.3224C94.3944 54.3224 94.3765 53.3224 94.36 52.3224C94.3413 51.2208 94.3118 50.1198 94.2772 49.0186C94.2657 48.5116 94.2546 48.0047 94.244 47.4977C94.2353 47.2813 94.2265 47.0649 94.2175 46.842C94.1998 45.2476 94.4909 44.0018 95.5074 42.7736C96.651 41.8776 97.8915 41.1655 99.1512 40.4481C99.5165 40.2341 99.8815 40.0195 100.246 39.8044C101.009 39.3556 101.774 38.9105 102.541 38.4684C103.694 37.8039 104.842 37.1306 105.988 36.4553C107.435 35.6034 108.884 34.7543 110.334 33.9078C112.254 32.7866 114.163 31.6491 116.065 30.4991C116.668 30.1356 117.272 29.774 117.876 29.4126C120.617 27.7724 123.351 26.1208 126.079 24.4605C128.612 22.9194 131.148 21.3845 133.709 19.8912C136.306 18.3719 138.87 16.7983 141.439 15.2339C142.794 14.4094 144.148 13.585 145.506 12.7649C145.844 12.5599 145.844 12.5599 146.19 12.3507C150.807 9.6855 155.007 12.9124 158.892 15.3394ZM148.15 19.4642C147.946 19.5789 147.743 19.6935 147.532 19.8116C145.3 21.0806 143.112 22.4217 140.921 23.7601C138.25 25.3906 135.564 26.9895 132.861 28.5646C130.049 30.2039 127.254 31.8682 124.475 33.5634C121.472 35.3953 118.455 37.2019 115.426 38.9909C112.752 40.5704 110.089 42.1655 107.429 43.7676C107.141 43.9407 106.853 44.1138 106.557 44.2922C106.177 44.5213 106.177 44.5213 105.789 44.755C105.397 44.9867 104.997 45.2066 104.589 45.4103C104.589 45.6036 104.589 45.797 104.589 45.9962C104.787 46.1051 104.984 46.214 105.187 46.3262C111.81 49.9884 111.81 49.9884 114.276 51.5626C117.016 53.311 119.833 54.9243 122.644 56.5545C124.404 57.5776 126.161 58.6075 127.917 59.6376C128.189 59.7968 128.189 59.7968 128.466 59.9593C132.646 62.4106 136.818 64.8746 140.984 67.3498C141.194 67.4747 141.405 67.5997 141.621 67.7285C142.669 68.3507 143.716 68.9732 144.763 69.5961C145.15 69.8262 145.537 70.0562 145.924 70.2863C146.098 70.3899 146.272 70.4935 146.452 70.6003C146.95 70.8963 147.449 71.1904 147.949 71.4845C148.124 71.6018 148.299 71.7192 148.479 71.84C149.54 72.5406 149.54 72.5406 150.764 72.4921C151.111 72.2834 151.111 72.2834 151.464 72.0704C151.71 71.9356 151.955 71.8008 152.208 71.662C152.472 71.5041 152.736 71.3462 153.008 71.1835C153.312 71.0026 153.616 70.8218 153.929 70.6354C154.258 70.4383 154.586 70.2411 154.925 70.038C155.275 69.829 155.626 69.6201 155.976 69.4113C156.722 68.9664 157.468 68.521 158.214 68.0753C159.372 67.3839 160.532 66.6964 161.693 66.0096C165.612 63.6905 169.52 61.3556 173.407 58.984C176.772 56.9322 180.171 54.9396 183.574 52.9519C185.492 51.8318 187.401 50.6996 189.299 49.5462C189.955 49.1515 190.616 48.7644 191.276 48.3766C191.769 48.0837 192.262 47.7907 192.755 47.4977C192.99 47.3614 193.224 47.2251 193.466 47.0847C193.681 46.9559 193.896 46.827 194.118 46.6943C194.407 46.5239 194.407 46.5239 194.702 46.35C194.839 46.2332 194.976 46.1165 195.117 45.9962C195.117 45.7062 195.117 45.4161 195.117 45.1173C194.509 44.6777 193.922 44.3069 193.272 43.9374C193.08 43.8247 192.888 43.7119 192.69 43.5958C192.06 43.2271 191.428 42.8631 190.796 42.4989C190.36 42.2451 189.925 41.9909 189.49 41.7364C188.63 41.2331 187.768 40.7312 186.906 40.2303C185.495 39.409 184.098 38.5665 182.702 37.7199C180.559 36.4262 178.392 35.1746 176.22 33.9296C173.133 32.1588 170.085 30.3313 167.047 28.477C164.716 27.0545 162.374 25.6533 160.02 24.2698C158.542 23.4007 157.069 22.5244 155.6 21.6398C155.431 21.5377 155.261 21.4356 155.087 21.3304C154.255 20.8297 153.425 20.3282 152.594 19.8257C152.298 19.6471 152.002 19.4686 151.697 19.2846C151.432 19.1247 151.168 18.9648 150.896 18.8001C149.806 18.1803 149.156 18.8985 148.15 19.4642ZM101.367 52.1486C100.8 55.9937 100.8 55.9937 102.033 59.4648C102.928 60.0274 103.805 60.4776 104.77 60.9033C105.836 61.403 106.831 62.013 107.841 62.6163C108.733 63.1491 109.631 63.6712 110.531 64.1912C112.662 65.4252 114.788 66.6685 116.912 67.9139C117.097 68.0218 117.281 68.1296 117.47 68.2407C119.709 69.5531 121.942 70.8754 124.163 72.2169C125.979 73.3064 127.811 74.3701 129.638 75.4396C134.129 78.0675 134.129 78.0675 136.12 79.2665C136.436 79.4564 136.752 79.6464 137.078 79.8421C137.792 80.2717 138.506 80.7026 139.219 81.1343C140.119 81.6793 141.021 82.2216 141.924 82.7627C142.289 82.9823 142.654 83.2028 143.018 83.4241C143.53 83.7349 144.044 84.0427 144.558 84.3499C144.858 84.5311 145.159 84.7122 145.468 84.8988C145.707 85.0161 145.945 85.1333 146.191 85.254C146.384 85.1574 146.578 85.0607 146.777 84.9611C147.07 82.9218 147.294 80.8268 146.777 78.8087C145.697 77.5251 144.423 76.9756 142.917 76.2827C141.423 75.5539 140.012 74.6754 138.586 73.8224C137.668 73.2755 136.744 72.7388 135.82 72.2009C133.712 70.9702 131.61 69.7277 129.51 68.4816C129.182 68.2866 128.853 68.0916 128.514 67.8907C127.872 67.5094 127.229 67.1281 126.587 66.7468C125.243 65.95 123.898 65.1558 122.552 64.3617C120.7 63.2683 118.849 62.1721 117.001 61.0727C113.289 58.8655 109.577 56.6589 105.853 54.474C105.566 54.3048 105.279 54.1357 104.984 53.9614C104.72 53.8069 104.455 53.6524 104.183 53.4932C103.956 53.3599 103.729 53.2266 103.495 53.0892C102.802 52.7185 102.101 52.4268 101.367 52.1486ZM196.754 52.8787C196.491 53.0354 196.228 53.1921 195.957 53.3535C195.532 53.609 195.532 53.609 195.099 53.8698C194.505 54.2238 193.911 54.5778 193.318 54.9318C193.024 55.1074 192.731 55.283 192.428 55.4639C191.344 56.1105 190.255 56.7482 189.166 57.3854C186.801 58.7726 184.452 60.1858 182.103 61.5988C180.075 62.8175 178.04 64.0236 176.001 65.2223C173.663 66.5971 171.354 68.0126 169.054 69.4492C167.106 70.6601 165.132 71.8199 163.147 72.9677C158.213 75.5249 158.213 75.5249 153.808 78.8087C153.783 79.2876 153.777 79.7676 153.78 80.2472C153.781 80.5371 153.781 80.8269 153.782 81.1256C153.785 81.4305 153.787 81.7355 153.79 82.0497C153.791 82.3558 153.793 82.6619 153.794 82.9772C153.797 83.7362 153.802 84.4951 153.808 85.254C154.939 84.8339 155.946 84.3073 156.986 83.6965C157.232 83.5523 157.232 83.5523 157.484 83.4052C158.023 83.0887 158.562 82.7707 159.1 82.4525C159.481 82.2286 159.861 82.0047 160.242 81.7809C162.989 80.162 165.717 78.5106 168.438 76.8478C171.173 75.1778 173.937 73.5642 176.719 71.9738C179.274 70.5076 181.792 68.9852 184.305 67.4479C186.293 66.2322 188.288 65.0319 190.317 63.8838C190.823 63.5964 191.329 63.3059 191.832 63.012C192.99 62.3376 194.135 61.7208 195.365 61.1871C197.238 60.3407 197.238 60.3407 198.632 58.8868C199.179 56.6854 198.922 54.3744 198.632 52.1486C197.833 52.1486 197.44 52.4682 196.754 52.8787ZM116.894 76.172C117.254 78.4632 117.685 80.7236 118.206 82.9835C118.277 83.2954 118.348 83.6073 118.421 83.9287C118.655 84.9567 118.891 85.9843 119.128 87.0118C119.21 87.3668 119.291 87.7218 119.375 88.0876C119.726 89.6108 120.077 91.1339 120.429 92.6567C120.978 95.0315 121.521 97.4075 122.059 99.7848C122.475 101.619 122.894 103.452 123.316 105.285C123.573 106.401 123.829 107.518 124.079 108.636C124.317 109.693 124.559 110.749 124.805 111.803C124.938 112.379 125.065 112.955 125.193 113.532C125.726 115.79 126.121 116.863 128.033 118.182C128.313 118.336 128.313 118.336 128.599 118.493C128.805 118.608 129.01 118.722 129.222 118.84C129.537 119.01 129.537 119.01 129.858 119.183C130.073 119.303 130.287 119.422 130.508 119.545C131.416 120.142 131.416 120.142 132.422 120.41C132.058 114.566 131.448 108.739 130.795 102.922C130.574 100.94 130.367 98.9587 130.192 96.9724C129.943 88.2232 129.943 88.2232 126.407 80.683C124.734 79.2994 122.844 78.5237 120.764 77.9228C119.388 77.5044 118.154 76.8564 116.894 76.172ZM183.105 76.172C182.11 76.7573 181.115 77.3435 180.12 77.9298C179.845 78.0918 179.569 78.2538 179.286 78.4208C178.712 78.7592 178.141 79.1036 177.574 79.4532C176.66 79.9806 176.66 79.9806 175.631 80.4245C173.796 81.2884 173.796 81.2884 172.598 82.8687C172.071 84.6069 171.955 86.4198 171.789 88.2203C171.72 88.8323 171.648 89.4441 171.575 90.0556C171.454 91.0748 171.334 92.094 171.22 93.114C170.861 96.3092 170.414 99.4891 169.951 102.671C169.876 103.192 169.8 103.713 169.725 104.233C169.573 105.278 169.422 106.322 169.27 107.367C169.194 107.888 169.118 108.409 169.043 108.93C169.005 109.188 168.967 109.447 168.929 109.714C168.71 111.216 168.494 112.719 168.282 114.222C168.216 114.686 168.149 115.149 168.081 115.613C167.988 116.251 167.898 116.89 167.808 117.528C167.73 118.069 167.73 118.069 167.651 118.62C167.586 119.427 167.607 119.948 167.871 120.703C168.835 120.169 169.79 119.623 170.745 119.074C171.018 118.923 171.29 118.773 171.57 118.618C171.832 118.466 172.093 118.314 172.363 118.157C172.603 118.02 172.844 117.884 173.092 117.743C174.405 116.6 174.725 114.853 175.107 113.212C175.151 113.023 175.196 112.834 175.242 112.639C175.393 111.995 175.541 111.35 175.689 110.706C175.799 110.235 175.909 109.764 176.019 109.293C176.276 108.193 176.531 107.093 176.786 105.993C177.124 104.53 177.463 103.068 177.803 101.606C177.852 101.395 177.901 101.185 177.951 100.968C178.053 100.533 178.154 100.098 178.255 99.6625C178.928 96.7687 179.6 93.8747 180.271 90.9805C180.345 90.6626 180.345 90.6626 180.42 90.3383C180.661 89.2999 180.901 88.2614 181.14 87.2227C181.231 86.8259 181.323 86.4291 181.414 86.0322C181.458 85.841 181.502 85.6497 181.548 85.4527C181.83 84.2285 182.119 83.0061 182.411 81.7842C182.482 81.4838 182.553 81.1834 182.626 80.8739C182.755 80.3283 182.885 79.7832 183.019 79.2386C183.074 79.0025 183.129 78.7664 183.186 78.5232C183.235 78.3218 183.283 78.1203 183.333 77.9128C183.407 77.2627 183.299 76.7927 183.105 76.172ZM135.351 87.0118C135.528 91.0513 136.076 95.0407 136.603 99.0465C136.699 99.7803 136.795 100.514 136.891 101.248C137.092 102.777 137.293 104.305 137.496 105.834C137.729 107.599 137.959 109.365 138.187 111.132C138.408 112.838 138.632 114.545 138.858 116.251C138.954 116.975 139.048 117.698 139.141 118.422C139.27 119.43 139.405 120.436 139.54 121.443C139.578 121.742 139.615 122.042 139.654 122.35C139.691 122.624 139.729 122.897 139.768 123.179C139.799 123.417 139.831 123.654 139.863 123.899C140.208 125.102 141.175 125.586 142.211 126.182C142.458 126.324 142.705 126.467 142.959 126.614C143.216 126.76 143.473 126.906 143.737 127.057C144.126 127.282 144.126 127.282 144.522 127.511C145.59 128.245 145.59 128.245 146.777 128.613C146.781 127.86 146.784 127.107 146.787 126.353C146.788 126.106 146.789 125.858 146.791 125.603C146.796 124.157 146.794 122.71 146.783 121.264C146.762 117.99 146.77 114.724 146.875 111.451C146.935 109.53 146.972 107.61 146.996 105.689C147.012 104.492 147.04 103.297 147.095 102.101C147.512 97.1351 147.512 97.1351 145.866 92.6812C144.353 91.4099 142.684 90.6507 140.843 89.9693C139.625 89.4836 138.555 88.8007 137.457 88.0922C136.456 87.3676 136.456 87.3676 135.351 87.0118ZM162.78 88.1105C162.386 88.3501 161.992 88.5897 161.598 88.8292C161.384 88.9596 161.171 89.0901 160.95 89.2246C159.666 90.0063 158.375 90.7791 157.086 91.5529C156.7 91.785 156.7 91.785 156.307 92.0218C155.946 92.2383 155.946 92.2383 155.579 92.4592C155.364 92.5882 155.15 92.7172 154.929 92.85C154.563 93.0653 154.188 93.2672 153.808 93.4572C153.712 104.865 153.615 116.274 153.515 128.027C154.896 128.488 155.857 127.911 157.128 127.296C158.574 126.516 159.662 125.745 160.364 124.225C161.086 121.76 161.319 119.204 161.561 116.656C161.672 115.547 161.812 114.442 161.949 113.336C162.145 111.746 162.331 110.156 162.506 108.564C162.816 105.743 163.183 102.933 163.585 100.123C163.613 99.9251 163.641 99.7268 163.671 99.5226C163.808 98.5564 163.947 97.5902 164.086 96.6242C164.338 94.8553 164.583 93.0853 164.824 91.3148C164.866 91.0124 164.908 90.71 164.951 90.3984C165.008 89.9836 165.008 89.9836 165.065 89.5604C165.098 89.3213 165.131 89.0821 165.165 88.8357C165.255 88.0988 165.255 88.0988 165.234 87.0118C164.283 87.0118 163.57 87.6236 162.78 88.1105ZM124.041 128.041C123.825 128.168 123.609 128.295 123.387 128.426C123.16 128.56 122.933 128.695 122.699 128.833C122.477 128.963 122.256 129.093 122.027 129.227C120.778 129.964 119.557 130.725 118.359 131.543C119.26 132.528 120.196 133.161 121.349 133.826C121.524 133.928 121.699 134.03 121.88 134.134C122.445 134.462 123.011 134.788 123.578 135.114C123.969 135.341 124.361 135.568 124.753 135.796C125.513 136.238 126.275 136.679 127.036 137.12C128.639 138.051 130.226 139.006 131.812 139.965C133.174 140.786 134.537 141.602 135.901 142.42C136.532 142.798 137.163 143.177 137.795 143.556C138.114 143.748 138.434 143.94 138.764 144.137C140.989 145.473 143.214 146.808 145.439 148.143C145.712 148.304 145.985 148.466 146.266 148.633C146.809 148.962 147.343 149.305 147.87 149.659C148.249 149.909 148.249 149.909 148.637 150.164C148.858 150.315 149.079 150.467 149.306 150.623C150.308 150.993 150.796 150.72 151.757 150.293C152.336 149.979 152.906 149.647 153.466 149.301C153.793 149.101 154.119 148.901 154.456 148.694C154.808 148.477 155.159 148.259 155.511 148.041C156.066 147.7 156.621 147.36 157.177 147.019C157.555 146.788 157.932 146.556 158.31 146.324C160.073 145.241 161.847 144.177 163.623 143.115C166.236 141.552 168.84 139.975 171.441 138.391C174.921 136.273 178.419 134.189 181.933 132.129C181.515 131.087 181.062 130.689 180.093 130.138C179.846 129.996 179.6 129.855 179.346 129.709C178.959 129.493 178.959 129.493 178.564 129.273C178.177 129.05 178.177 129.05 177.782 128.823C176.561 128.039 176.561 128.039 175.195 127.735C175.173 128.127 175.173 128.127 175.151 128.526C175.13 128.869 175.108 129.212 175.085 129.566C175.065 129.905 175.044 130.245 175.023 130.596C174.886 131.668 174.715 132.396 173.851 133.087C173.571 133.248 173.571 133.248 173.286 133.413C173.069 133.541 172.852 133.668 172.628 133.8C172.388 133.937 172.147 134.075 171.899 134.216C171.366 134.529 170.833 134.841 170.3 135.154C170.007 135.325 169.714 135.495 169.412 135.671C167.817 136.605 166.233 137.557 164.648 138.508C164.08 138.849 163.512 139.19 162.944 139.53C160.427 141.039 157.924 142.568 155.436 144.124C151.214 146.759 151.214 146.759 149.414 146.485C147.2 145.562 145.161 144.253 143.126 142.998C142.222 142.442 141.316 141.889 140.411 141.336C140.229 141.225 140.048 141.114 139.861 141C138.216 139.996 136.556 139.017 134.893 138.043C132.808 136.817 130.738 135.571 128.686 134.29C128.45 134.144 128.214 133.998 127.971 133.848C127.756 133.712 127.54 133.576 127.317 133.436C127.128 133.318 126.939 133.199 126.744 133.077C126.269 132.715 126.269 132.715 125.683 131.836C125.595 131.078 125.534 130.344 125.5 129.584C125.489 129.378 125.477 129.173 125.466 128.961C125.438 128.454 125.414 127.948 125.39 127.442C124.875 127.442 124.476 127.785 124.041 128.041ZM130.078 147.07C129.89 158.331 129.745 169.592 129.659 180.854C129.649 182.186 129.638 183.517 129.627 184.848C129.625 185.114 129.623 185.379 129.621 185.652C129.585 189.936 129.52 194.219 129.445 198.503C129.368 202.903 129.323 207.303 129.306 211.704C129.295 214.417 129.259 217.127 129.193 219.84C129.149 221.703 129.136 223.566 129.147 225.43C129.152 226.504 129.144 227.574 129.1 228.648C128.941 232.506 128.941 232.506 130.078 236.133C132.074 238.202 134.64 239.423 137.224 240.61C138.891 241.404 140.453 242.358 142.035 243.311C142.604 243.642 143.174 243.973 143.744 244.302C145.333 245.224 146.909 246.166 148.477 247.123C149.189 247.634 149.189 247.634 150 247.852C150.161 236.576 150.285 225.3 150.359 214.023C150.367 212.69 150.377 211.358 150.386 210.025C150.388 209.76 150.39 209.495 150.391 209.222C150.422 204.931 150.477 200.641 150.542 196.351C150.608 191.946 150.647 187.541 150.661 183.136C150.671 180.419 150.701 177.704 150.758 174.987C150.796 173.122 150.807 171.258 150.798 169.393C150.793 168.317 150.8 167.245 150.838 166.169C151.111 161.81 151.111 161.81 149.309 158.049C147.616 156.741 145.773 155.857 143.803 155.046C142.678 154.563 141.668 153.951 140.642 153.29C140.316 153.092 139.991 152.894 139.656 152.689C139.341 152.497 139.026 152.304 138.702 152.106C138.356 151.895 138.01 151.684 137.664 151.474C136.997 151.068 136.331 150.661 135.664 150.255C134.469 149.526 133.272 148.8 132.074 148.078C131.743 147.878 131.413 147.678 131.072 147.472C130.463 147.046 130.463 147.046 130.078 147.07ZM115.88 234.159C114.026 236.159 112.918 238.605 113.015 241.378C113.392 244.647 115.472 246.974 117.907 249.034C124.68 254.267 133.464 256.015 141.797 256.934C142.039 256.961 142.281 256.989 142.53 257.017C144.859 257.258 147.184 257.298 149.524 257.3C149.733 257.3 149.942 257.3 150.158 257.301C161.112 257.284 175.372 255.974 183.691 247.852C186.051 245.317 187.142 243.256 187.053 239.76C186.611 236.623 184.57 234.004 182.104 232.137C179.745 230.204 179.745 230.204 176.953 229.395C176.96 229.847 176.96 229.847 176.968 230.308C176.983 231.432 176.98 232.555 176.972 233.679C176.972 234.164 176.975 234.65 176.984 235.135C177.05 239.123 177.05 239.123 176.187 240.286C175.491 240.757 174.794 241.072 174.023 241.406C173.414 241.772 172.809 242.144 172.208 242.523C171.532 242.933 170.855 243.342 170.178 243.75C169.813 243.971 169.449 244.191 169.084 244.412C168.347 244.858 167.61 245.304 166.872 245.75C165.366 246.661 163.863 247.577 162.359 248.493C161.818 248.822 161.277 249.152 160.735 249.481C160.184 249.817 159.633 250.153 159.082 250.488C157.849 251.239 156.616 251.99 155.383 252.741C154.958 252.999 154.958 252.999 154.525 253.263C154.26 253.424 153.996 253.585 153.724 253.751C153.492 253.892 153.26 254.033 153.021 254.179C152.798 254.314 152.574 254.45 152.343 254.59C151.968 254.834 151.968 254.834 151.585 255.082C150.542 255.653 149.966 255.48 148.828 255.176C147.962 254.764 147.164 254.262 146.356 253.748C145.838 253.428 145.319 253.108 144.801 252.789C144.513 252.611 144.225 252.432 143.929 252.249C142.262 251.227 140.577 250.235 138.894 249.24C137.878 248.639 136.864 248.036 135.849 247.434C135.654 247.318 135.458 247.202 135.257 247.083C132.744 245.59 130.235 244.09 127.734 242.578C127.437 242.399 127.437 242.399 127.133 242.216C126.588 241.886 126.044 241.555 125.5 241.223C125.206 241.044 124.912 240.865 124.61 240.681C123.925 240.235 123.925 240.235 123.339 239.649C123.268 238.873 123.23 238.125 123.218 237.348C123.212 237.122 123.207 236.895 123.201 236.661C123.183 235.936 123.17 235.21 123.156 234.485C123.145 233.994 123.134 233.502 123.122 233.011C123.094 231.806 123.069 230.6 123.047 229.395C120.648 229.395 117.527 232.549 115.88 234.159ZM113.086 254.004C113.063 255.927 113.048 257.851 113.037 259.774C113.033 260.428 113.027 261.082 113.019 261.736C113.009 262.678 113.004 263.619 113 264.561C112.995 264.852 112.991 265.142 112.986 265.442C112.985 268.189 113.846 270.149 115.722 272.168C119.941 276.088 125.753 278.129 131.25 279.492C131.474 279.549 131.698 279.605 131.929 279.664C147.223 283.402 166.93 282.966 180.761 274.805C183.352 273.174 185.752 271.269 186.914 268.36C187.033 267.254 187.016 266.158 187 265.048C186.998 264.731 186.997 264.415 186.996 264.09C186.991 263.084 186.98 262.078 186.969 261.072C186.964 260.388 186.96 259.705 186.957 259.021C186.947 257.349 186.932 255.676 186.914 254.004C186.757 254.123 186.599 254.242 186.437 254.365C186.229 254.522 186.021 254.679 185.807 254.841C185.601 254.997 185.396 255.152 185.184 255.312C172.025 264.946 152.02 265.333 136.523 263.086C128.593 261.809 121.217 259.408 114.55 254.883C114.063 254.588 113.575 254.295 113.086 254.004Z" fill="black"/>
<path d="M171.68 36.3282C174.035 38.5971 175.546 40.9933 175.635 44.33C175.671 47.3608 174.551 49.8798 172.485 52.1302C165.37 58.4231 155.26 59.3778 146.192 58.8868C138.811 58.2696 131.222 56.2281 126.27 50.3907C124.752 48.2157 124.286 45.5202 124.651 42.92C125.365 39.5138 127.439 36.9658 130.275 34.9893C134.366 32.4774 138.797 31.0568 143.555 30.4689C143.787 30.4364 144.02 30.4039 144.26 30.3705C153.141 29.3306 164.604 30.2284 171.68 36.3282ZM132.129 42.4806C131.581 43.3854 131.542 43.889 131.561 44.9525C131.956 46.4508 132.627 47.2968 133.881 48.1477C134.554 48.5384 135.235 48.885 135.938 49.2189C136.258 49.3724 136.258 49.3724 136.584 49.529C144.595 53.0363 154.678 52.8197 162.809 49.8952C165.133 48.9676 167.125 47.9122 168.457 45.7032C168.749 44.8339 168.741 44.2304 168.457 43.3595C167.013 40.584 163.706 39.5321 160.914 38.5976C152.281 36.1219 139.064 35.7147 132.129 42.4806Z" fill="black"/>
<path d="M115.137 225.586C115.33 225.683 115.523 225.779 115.723 225.879C115.274 226.241 114.826 226.604 114.378 226.966C113.926 227.334 113.926 227.334 113.672 227.93C113.479 227.93 113.285 227.93 113.086 227.93C112.989 228.22 112.893 228.51 112.793 228.809C112.031 229.291 111.661 229.395 110.742 229.395C112.102 227.958 113.523 226.73 115.137 225.586Z" fill="black"/>
<path d="M127.441 37.5C128.027 38.0859 128.027 38.0859 128.027 38.6719C127.734 39.2578 127.734 39.2578 126.837 39.624C126.553 39.6965 126.269 39.769 125.977 39.8438C126.324 38.855 126.643 38.1893 127.441 37.5Z" fill="black"/>
</svg>
