<svg width="300" height="300" viewBox="0 0 300 300" fill="none" xmlns="http://www.w3.org/2000/svg">
<path d="M181.751 89.1531C185.293 92.498 186.917 96.2383 187.299 101.055C187.153 105.273 184.832 108.65 182.612 112.078C181.338 114.061 180.079 116.049 178.858 118.065C177.605 120.131 176.325 122.178 175.031 124.218C174.853 124.5 174.675 124.782 174.491 125.073C174.324 125.334 174.158 125.596 173.986 125.866C173.838 126.099 173.69 126.333 173.537 126.573C173.145 127.148 173.145 127.148 172.559 127.733C171.779 127.814 171.779 127.814 170.768 127.824C170.385 127.829 170.003 127.834 169.609 127.839C169.182 127.841 168.756 127.844 168.33 127.846C167.883 127.851 167.436 127.856 166.989 127.861C165.518 127.876 164.047 127.885 162.577 127.894C162.07 127.897 161.564 127.9 161.058 127.903C158.952 127.916 156.846 127.927 154.741 127.933C151.722 127.943 148.705 127.962 145.686 127.996C143.565 128.018 141.443 128.03 139.321 128.033C138.053 128.035 136.786 128.042 135.519 128.061C134.326 128.079 133.134 128.082 131.94 128.076C131.503 128.075 131.066 128.08 130.629 128.091C127.329 128.164 127.329 128.164 126.149 127.089C125.623 126.348 125.204 125.619 124.805 124.804C124.614 124.512 124.422 124.22 124.225 123.919C124.074 123.677 123.923 123.435 123.767 123.186C123.594 122.908 123.42 122.63 123.241 122.344C122.973 121.912 122.973 121.912 122.7 121.471C122.509 121.166 122.319 120.861 122.123 120.546C120.771 118.369 119.442 116.179 118.133 113.975C117.336 112.634 116.515 111.314 115.669 110.003C113.333 106.369 111.896 102.83 112.798 98.4349C113.918 93.6971 116.773 89.8504 120.918 87.2826C136.315 78.4321 167.837 76.5529 181.751 89.1531Z" fill="black"/>
<path d="M132.531 151.734C132.857 151.736 133.184 151.738 133.521 151.74C133.879 151.744 134.237 151.747 134.607 151.751C134.984 151.754 135.361 151.757 135.75 151.76C136.785 151.768 137.82 151.777 138.855 151.787C139.937 151.797 141.018 151.806 142.1 151.814C144.148 151.831 146.196 151.849 148.244 151.867C150.576 151.888 152.907 151.907 155.239 151.927C160.036 151.966 164.832 152.008 169.629 152.051C169.651 152.494 169.651 152.494 169.674 152.946C169.731 154.066 169.79 155.186 169.85 156.305C169.875 156.786 169.9 157.266 169.924 157.746C170.157 162.338 170.654 166.845 171.387 171.387C171.438 171.706 171.488 172.025 171.541 172.353C173.529 184.457 177.594 196.231 184.107 206.659C184.57 207.422 184.57 207.422 184.57 207.715C161.561 207.715 138.551 207.715 114.844 207.715C115.617 206.361 116.391 205.008 117.188 203.613C126.021 187.7 129.53 170.091 130.078 152.051C130.983 151.749 131.584 151.726 132.531 151.734Z" fill="black"/>
<path d="M100.665 230.16C101.105 230.158 101.544 230.157 101.984 230.155C103.19 230.151 104.396 230.152 105.603 230.154C106.904 230.155 108.206 230.152 109.508 230.149C112.057 230.144 114.606 230.143 117.156 230.145C119.228 230.146 121.3 230.146 123.372 230.144C123.667 230.144 123.962 230.144 124.266 230.143C124.865 230.143 125.464 230.143 126.063 230.142C131.682 230.138 137.301 230.14 142.92 230.143C148.06 230.146 153.199 230.142 158.339 230.135C163.617 230.128 168.895 230.125 174.174 230.127C177.137 230.128 180.1 230.127 183.063 230.122C185.585 230.118 188.107 230.118 190.63 230.123C191.917 230.125 193.203 230.126 194.49 230.122C195.669 230.118 196.847 230.119 198.026 230.125C198.452 230.126 198.877 230.125 199.303 230.122C201.877 230.105 204.176 230.161 206.203 231.909C207.611 233.32 208.251 235.142 208.329 237.117C208.175 239.35 207.338 241.027 205.701 242.541C204.254 243.802 202.759 244.116 200.869 244.117C200.498 244.119 200.126 244.121 199.743 244.122C199.333 244.121 198.923 244.12 198.513 244.119C198.076 244.12 197.639 244.121 197.201 244.122C196.001 244.125 194.8 244.125 193.599 244.124C192.304 244.123 191.009 244.125 189.713 244.128C187.176 244.131 184.639 244.132 182.101 244.131C180.039 244.131 177.977 244.131 175.915 244.132C175.474 244.133 175.474 244.133 175.025 244.133C174.429 244.133 173.833 244.134 173.237 244.134C167.646 244.137 162.055 244.137 156.464 244.135C151.348 244.133 146.233 244.137 141.118 244.142C135.866 244.148 130.614 244.15 125.362 244.149C122.413 244.149 119.464 244.149 116.515 244.154C114.005 244.157 111.495 244.157 108.984 244.154C107.704 244.152 106.423 244.152 105.142 244.155C103.969 244.158 102.797 244.158 101.624 244.153C101.2 244.153 100.776 244.153 100.352 244.156C95.5363 244.181 95.5363 244.181 93.6157 242.553C93.4307 242.331 93.2456 242.11 93.055 241.882C92.8654 241.662 92.6758 241.442 92.4805 241.216C91.1716 239.366 91.157 237.453 91.407 235.254C92.1138 233.063 93.1592 231.825 95.1428 230.691C96.8853 229.964 98.8106 230.151 100.665 230.16Z" fill="black"/>
<path d="M114.182 212.068C114.5 212.067 114.817 212.066 115.144 212.065C116.207 212.063 117.27 212.062 118.333 212.062C119.096 212.06 119.858 212.059 120.62 212.057C122.692 212.053 124.763 212.052 126.835 212.05C128.129 212.049 129.424 212.048 130.718 212.047C134.306 212.043 137.893 212.04 141.481 212.039C141.825 212.039 141.825 212.039 142.176 212.039C142.406 212.039 142.636 212.039 142.873 212.039C143.339 212.039 143.805 212.039 144.271 212.039C144.502 212.039 144.733 212.038 144.971 212.038C148.714 212.037 152.457 212.032 156.2 212.025C160.047 212.018 163.894 212.015 167.741 212.014C169.899 212.014 172.057 212.012 174.215 212.007C176.246 212.002 178.277 212.002 180.308 212.004C181.052 212.004 181.796 212.003 182.54 212C183.559 211.997 184.578 211.998 185.596 212.001C185.888 211.999 186.18 211.997 186.48 211.994C190.62 212.023 194.05 213.198 197.07 216.029C199.569 218.832 200.216 222.243 200.099 225.878C199.326 226.265 198.752 226.208 197.886 226.208C197.538 226.209 197.19 226.21 196.831 226.211C196.446 226.21 196.06 226.209 195.663 226.209C195.251 226.209 194.84 226.209 194.429 226.21C193.295 226.211 192.161 226.211 191.028 226.21C189.806 226.209 188.585 226.21 187.364 226.211C184.97 226.212 182.576 226.212 180.182 226.211C178.238 226.21 176.293 226.21 174.349 226.211C173.934 226.211 173.934 226.211 173.511 226.211C172.95 226.211 172.389 226.211 171.828 226.211C166.56 226.212 161.293 226.211 156.025 226.209C151.5 226.208 146.976 226.208 142.451 226.21C137.202 226.211 131.954 226.212 126.705 226.211C126.146 226.211 125.587 226.211 125.028 226.211C124.753 226.211 124.478 226.211 124.194 226.211C122.251 226.21 120.307 226.211 118.364 226.211C115.997 226.212 113.63 226.212 111.264 226.21C110.055 226.21 108.846 226.209 107.638 226.21C106.533 226.211 105.428 226.211 104.324 226.209C103.731 226.209 103.138 226.21 102.545 226.211C102.198 226.21 101.851 226.209 101.493 226.208C101.191 226.208 100.889 226.208 100.578 226.208C99.9032 226.171 99.9032 226.171 99.6102 225.878C99.2363 222.666 100.108 219.413 102.031 216.814C105.255 212.995 109.358 212.064 114.182 212.068Z" fill="black"/>
<path d="M122.038 141.755C122.287 141.754 122.535 141.754 122.791 141.753C123.622 141.75 124.452 141.75 125.283 141.749C125.879 141.748 126.476 141.746 127.072 141.745C128.69 141.741 130.309 141.739 131.928 141.738C132.939 141.737 133.951 141.736 134.963 141.734C138.129 141.73 141.296 141.728 144.462 141.726C148.115 141.725 151.768 141.72 155.421 141.712C158.247 141.705 161.072 141.702 163.898 141.702C165.585 141.702 167.272 141.7 168.958 141.695C170.545 141.69 172.132 141.689 173.719 141.692C174.3 141.692 174.882 141.691 175.463 141.688C176.259 141.684 177.054 141.686 177.85 141.689C178.078 141.686 178.307 141.684 178.542 141.682C180.917 141.703 182.985 142.326 184.734 143.961C185.709 145.052 186.035 145.913 186.035 147.363C162.059 147.363 138.082 147.363 113.379 147.363C113.695 145.467 114.111 144.597 115.43 143.261C117.464 141.85 119.62 141.753 122.038 141.755Z" fill="black"/>
<path d="M144.434 55.3711C147.817 55.3711 151.201 55.3711 154.688 55.3711C154.688 57.498 154.688 59.625 154.688 61.8164C156.506 61.8048 156.506 61.8048 158.325 61.79C158.55 61.7893 158.776 61.7885 159.008 61.7878C159.239 61.7863 159.471 61.7847 159.71 61.7831C160.254 61.8164 160.254 61.8164 160.547 62.1094C160.576 62.7131 160.585 63.3177 160.586 63.9221C160.586 64.29 160.587 64.6578 160.587 65.0368C160.586 65.2293 160.586 65.4218 160.585 65.6201C160.584 66.2085 160.585 66.7968 160.587 67.3851C160.587 67.7529 160.586 68.1208 160.586 68.4998C160.585 68.84 160.585 69.1803 160.585 69.5309C160.547 70.3125 160.547 70.3125 160.254 70.6055C159.839 70.6308 159.423 70.6368 159.008 70.6341C158.782 70.6333 158.557 70.6326 158.325 70.6319C158.037 70.6292 157.749 70.6265 157.452 70.6238C156.54 70.6177 155.628 70.6117 154.688 70.6055C154.688 72.5391 154.688 74.4727 154.688 76.4648C153.274 76.5133 151.861 76.5609 150.448 76.6061C149.967 76.6218 149.486 76.638 149.004 76.6547C148.314 76.6787 147.624 76.7007 146.934 76.7223C146.718 76.7303 146.501 76.7382 146.278 76.7463C145.761 76.7616 145.244 76.7613 144.727 76.7578C144.434 76.4648 144.434 76.4648 144.4 75.8937C144.402 75.6498 144.403 75.4058 144.405 75.1545C144.406 74.8911 144.407 74.6277 144.408 74.3563C144.41 74.0793 144.413 73.8022 144.415 73.5168C144.417 73.2387 144.418 72.9606 144.419 72.674C144.423 71.9845 144.428 71.295 144.434 70.6055C142.597 70.6055 140.76 70.6055 138.867 70.6055C138.867 67.7051 138.867 64.8047 138.867 61.8164C140.704 61.8164 142.541 61.8164 144.434 61.8164C144.434 59.6895 144.434 57.5625 144.434 55.3711Z" fill="black"/>
<path d="M124.491 131.512C124.884 131.513 125.277 131.515 125.669 131.519C125.885 131.52 126.1 131.521 126.322 131.522C127.05 131.526 127.778 131.531 128.506 131.537C129.026 131.54 129.545 131.543 130.065 131.545C131.48 131.553 132.895 131.563 134.31 131.573C135.787 131.583 137.265 131.591 138.742 131.6C141.541 131.616 144.341 131.634 147.14 131.653C150.326 131.674 153.512 131.693 156.698 131.712C163.254 131.752 169.81 131.793 176.366 131.836C176.366 133.673 176.366 135.51 176.366 137.403C172.082 137.454 167.797 137.503 163.512 137.549C163.192 137.553 162.871 137.556 162.541 137.56C152.977 137.663 143.414 137.723 133.849 137.714C133.455 137.713 133.455 137.713 133.053 137.713C129.913 137.71 126.772 137.704 123.632 137.696C123.359 136.439 123.295 135.242 123.302 133.96C123.301 133.76 123.3 133.559 123.299 133.353C123.302 131.555 123.302 131.555 124.491 131.512Z" fill="black"/>
</svg>
