<svg width="300" height="300" viewBox="0 0 300 300" fill="none" xmlns="http://www.w3.org/2000/svg">
<path d="M78.955 77.1094C68.9941 87.334 63.1054 96.9434 61.0546 106.348C60.4101 109.248 60.3515 116.484 60.9374 118.652C61.3476 120.205 62.7831 121.67 65.5956 123.486C66.6796 124.16 74.2675 128.115 82.4706 132.275C99.3456 140.801 110.566 146.602 113.379 148.242C119.766 151.963 127.002 158.789 131.25 165.117C132.92 167.549 136.055 173.525 143.174 187.646C148.184 197.607 148.184 197.637 150.644 200.449C152.666 202.764 154.775 204.229 157.266 205.049C159.023 205.664 159.551 205.664 181.611 205.664H204.17L204.99 204.961L205.81 204.258L206.016 189.99C206.279 174.346 206.308 174.668 204.551 173.643C203.203 172.852 190.84 169.336 189.433 169.336C188.642 169.336 187.617 169.688 186.211 170.479C183.516 171.943 179.15 173.555 176.309 174.141C173.701 174.668 165.293 174.785 162.451 174.316C159.639 173.848 159.639 173.848 155.068 166.113C150.117 157.705 143.35 147.92 137.021 140.039C130.342 131.719 124.482 125.625 113.291 115.342C105.205 107.9 99.6386 102.363 97.2948 99.4336C93.8671 95.1855 89.414 87.1582 86.1327 79.3945C85.1659 77.0801 84.1405 74.9414 83.8769 74.6484C82.8808 73.5352 82.0605 73.9453 78.955 77.1094Z" fill="black"/>
<path d="M91.8162 78.8677C99.9607 95.9477 109.131 106.7 118.242 109.893C121.113 110.889 124.072 111.329 127.939 111.329C133.799 111.329 136.025 110.918 150.146 107.198C151.933 106.729 154.218 106.26 155.273 106.172C157.06 105.997 157.265 106.026 158.144 106.788C158.672 107.227 159.492 108.37 159.961 109.278L160.81 110.977L160.166 111.416C159.814 111.651 158.935 112.12 158.203 112.5C157.47 112.852 156.855 113.204 156.797 113.233C156.592 113.409 158.525 116.895 158.789 116.895C158.965 116.895 159.726 116.573 160.488 116.192C162.861 114.991 162.744 114.903 164.502 118.653L166.084 122.022L163.974 122.989C162.802 123.545 161.806 124.014 161.748 124.073C161.543 124.307 162.978 127.5 163.359 127.647C163.564 127.706 164.619 127.383 165.732 126.885C166.816 126.416 167.812 126.094 167.929 126.211C168.222 126.504 170.801 132.364 170.801 132.715C170.801 132.891 169.804 133.477 168.574 134.034C166.582 134.942 166.377 135.118 166.582 135.704C166.758 136.29 167.812 138.575 168.017 138.809C168.047 138.838 169.101 138.428 170.361 137.842C171.621 137.286 172.705 136.846 172.734 136.905C172.91 137.081 175.781 143.233 175.781 143.409C175.781 143.497 174.785 144.053 173.584 144.581C172.383 145.137 171.386 145.752 171.386 145.957C171.386 146.573 172.793 149.415 173.115 149.415C173.261 149.415 174.258 149.034 175.342 148.536C176.426 148.067 177.422 147.657 177.597 147.657C177.978 147.657 181.347 154.864 181.347 155.713C181.347 156.094 180.996 156.827 180.586 157.325C179.883 158.145 173.086 162.334 166.64 165.967C164.209 167.315 163.564 167.989 165.029 167.666C171.65 166.114 183.926 162.452 185.508 161.514C188.174 159.961 187.763 157.881 182.842 148.829L181.318 146.045L182.285 145.254L183.252 144.493L182.431 142.823C181.582 141.065 181.728 141.124 179.736 141.651C179.238 141.797 178.974 141.387 177.744 138.604C176.953 136.817 176.396 135.235 176.484 135.118C176.572 134.971 177.041 134.678 177.539 134.473C178.623 134.034 178.623 133.741 177.656 131.749L176.865 130.166L175.722 130.606C175.107 130.84 174.551 130.987 174.492 130.928C174.199 130.577 171.679 124.952 171.679 124.629C171.679 124.424 172.09 124.014 172.588 123.78C173.554 123.252 173.554 122.989 172.529 120.909C171.885 119.678 171.709 119.649 170.508 120.264L169.629 120.704L168.017 117.305C167.138 115.43 166.406 113.76 166.406 113.643C166.406 113.497 166.816 113.204 167.285 112.94C167.783 112.676 168.164 112.354 168.164 112.178C168.164 112.032 167.754 111.124 167.285 110.157L166.406 108.399L165.351 108.838C164.765 109.073 164.238 109.278 164.179 109.278C164.15 109.278 163.476 108.077 162.715 106.612C160.078 101.661 158.408 100.459 154.98 101.075C153.984 101.25 151.494 102.012 149.443 102.715C140.185 106.055 137.285 106.788 131.982 107.227C124.131 107.842 117.48 106.172 112.177 102.217C106.758 98.2036 99.9314 89.8833 92.5486 78.311C91.2009 76.1723 89.9997 74.4145 89.8826 74.4145C89.7654 74.4145 90.6443 76.436 91.8162 78.8677Z" fill="black"/>
<path d="M62.8125 131.865C62.9297 133.213 63.457 136.084 64.0137 138.281C66.123 146.719 71.8359 171.445 73.9746 181.348C76.7871 194.414 79.6289 206.191 80.1562 207.041C80.8008 208.066 81.9141 207.92 82.5 206.777C83.0859 205.664 82.9687 201.855 82.1777 193.359C81.4746 186.211 81.4453 174.551 82.1191 170.742C83.4668 163.066 86.6016 157.031 90.4395 154.775C92.1973 153.75 95.332 153.545 98.291 154.219C103.359 155.42 110.596 159.814 115.43 164.648C119.648 168.867 124.277 175.811 127.588 182.9C130.869 189.99 136.494 200.83 138.223 203.467C139.6 205.576 141.299 207.539 144.316 210.557C146.602 212.842 148.916 214.922 149.473 215.156C150 215.391 150.908 215.859 151.465 216.182C152.021 216.475 153.223 217.09 154.072 217.5L155.684 218.262H198.193C230.859 218.262 240.791 218.174 241.055 217.91C241.553 217.412 241.523 212.812 241.055 212.49C240.85 212.373 222.363 212.197 199.951 212.109L159.229 211.963L156.65 211.025C151.084 209.062 146.719 205.547 143.291 200.391C142.295 198.867 139.424 193.506 136.904 188.525C131.484 177.715 127.178 169.512 125.742 167.285C124.248 164.971 122.725 163.301 119.033 160.049C113.584 155.186 111.943 154.131 102.686 149.297C92.2852 143.848 64.3066 129.902 63.3105 129.609L62.6074 129.434L62.8125 131.865Z" fill="black"/>
<path d="M213.164 176.719C212.607 177.656 212.461 179.824 212.08 192.568C211.728 204.433 211.816 205.195 213.105 205.547C213.457 205.635 219.463 205.664 226.465 205.605C240.732 205.517 240.527 205.547 241.553 203.467C242.08 202.412 242.139 201.709 242.139 197.021C242.109 191.426 241.787 189.404 240.498 186.855C238.799 183.457 236.719 182.021 231.387 180.498C226.846 179.209 214.599 176.074 214.072 176.074C213.808 176.074 213.398 176.367 213.164 176.719Z" fill="black"/>
</svg>
