<svg width="300" height="300" viewBox="0 0 300 300" fill="none" xmlns="http://www.w3.org/2000/svg">
<path d="M133.483 106.464C133.858 106.652 134.231 106.845 134.601 107.043C134.904 107.2 134.904 107.2 135.213 107.361C139.107 109.419 142.683 111.899 146.192 114.551C146.482 114.26 146.772 113.97 147.07 113.672C147.941 114.001 148.633 114.323 149.414 114.843C149.318 115.327 149.221 115.81 149.121 116.308C150.174 117.003 151.231 117.691 152.289 118.377C152.739 118.675 152.739 118.675 153.198 118.978C153.486 119.164 153.774 119.35 154.071 119.541C154.336 119.715 154.602 119.888 154.875 120.067C155.583 120.519 155.583 120.519 156.445 120.117C157.361 120.611 157.361 120.611 158.203 121.289C158.244 121.478 158.285 121.668 158.326 121.863C158.565 122.703 158.975 122.876 159.712 123.324C159.958 123.476 160.204 123.628 160.458 123.785C160.717 123.94 160.976 124.095 161.243 124.255C161.5 124.413 161.756 124.57 162.021 124.732C162.498 125.025 162.977 125.316 163.457 125.606C163.959 125.913 164.452 126.236 164.942 126.562C165.328 126.369 165.715 126.176 166.113 125.976C166.974 126.471 166.974 126.471 167.871 127.148C167.915 127.388 167.958 127.628 168.002 127.875C168.092 128.638 168.092 128.638 168.663 129.039C168.875 129.15 169.087 129.262 169.305 129.376C169.537 129.501 169.769 129.626 170.007 129.755C170.251 129.879 170.495 130.004 170.746 130.133C171.107 130.325 171.107 130.325 171.474 130.521C172.126 130.867 172.78 131.208 173.438 131.543C173.645 131.659 173.852 131.775 174.066 131.894C174.245 131.972 174.425 132.049 174.609 132.129C174.803 132.032 174.996 131.935 175.195 131.836C175.54 132.058 175.881 132.285 176.221 132.513C176.411 132.639 176.602 132.765 176.798 132.894C176.946 133.028 177.094 133.162 177.246 133.301C177.246 133.591 177.246 133.881 177.246 134.179C177.452 134.254 177.659 134.328 177.871 134.405C180.864 135.689 183.843 137.861 185.222 140.879C185.61 141.943 185.831 143.029 186.035 144.14C186.221 144.171 186.406 144.202 186.597 144.233C188.872 144.627 191.098 145.161 193.335 145.729C193.939 145.88 194.543 146.031 195.146 146.182C195.787 146.343 196.429 146.504 197.07 146.665C202.92 148.132 208.77 149.583 214.668 150.845C214.877 150.89 215.085 150.935 215.299 150.981C217.467 151.446 219.636 151.901 221.808 152.345C225.601 153.133 229.298 154.073 232.976 155.283C233.517 155.46 233.517 155.46 234.07 155.64C238.896 157.284 242.808 160.057 245.215 164.648C246.766 167.896 247.088 171.054 247.266 174.609C247.544 174.694 247.822 174.778 248.108 174.865C249.024 175.195 249.024 175.195 249.609 175.781C249.974 177.272 249.937 178.761 249.921 180.285C249.919 180.529 249.918 180.773 249.917 181.024C249.913 181.62 249.908 182.216 249.902 182.812C248.482 183.458 247.087 183.936 245.57 184.305C245.348 184.36 245.127 184.415 244.899 184.471C244.163 184.653 243.425 184.832 242.688 185.009C242.302 185.103 242.302 185.103 241.908 185.199C237.255 186.325 232.58 187.344 227.893 188.324C227.582 188.389 227.27 188.455 226.949 188.523C223.157 189.32 219.357 190.015 215.53 190.622C215.11 190.69 214.69 190.757 214.27 190.824C213.257 190.986 212.244 191.147 211.231 191.308C211.526 191.309 211.526 191.309 211.828 191.31C216.617 191.328 221.407 191.35 226.197 191.377C228.513 191.391 230.83 191.402 233.146 191.41C235.165 191.417 237.183 191.426 239.202 191.44C240.271 191.447 241.34 191.452 242.409 191.454C243.602 191.456 244.794 191.465 245.987 191.475C246.342 191.474 246.698 191.474 247.065 191.473C247.389 191.477 247.713 191.481 248.047 191.484C248.47 191.486 248.47 191.486 248.902 191.489C249.733 191.621 249.999 191.805 250.488 192.48C250.58 193.231 250.58 193.231 250.488 193.945C249.761 194.673 249.552 194.604 248.549 194.604C248.262 194.606 247.974 194.607 247.678 194.609C247.359 194.607 247.04 194.606 246.712 194.605C246.205 194.606 246.205 194.606 245.688 194.607C244.743 194.609 243.798 194.608 242.853 194.606C241.828 194.605 240.803 194.607 239.778 194.608C237.979 194.61 236.18 194.61 234.381 194.609C231.705 194.606 229.03 194.608 226.355 194.609C221.578 194.613 216.801 194.612 212.024 194.611C207.843 194.609 203.663 194.609 199.483 194.609C199.206 194.609 198.929 194.609 198.644 194.61C197.52 194.61 196.396 194.61 195.272 194.61C184.722 194.612 174.171 194.61 163.62 194.607C154.239 194.604 144.857 194.605 135.476 194.607C124.945 194.61 114.414 194.612 103.883 194.61C102.761 194.61 101.64 194.61 100.518 194.609C100.241 194.609 99.9652 194.609 99.6806 194.609C95.502 194.609 91.3234 194.609 87.1448 194.611C82.3954 194.613 77.6461 194.612 72.8967 194.609C70.2358 194.607 67.575 194.607 64.9142 194.609C63.1399 194.611 61.3655 194.61 59.5912 194.607C58.5782 194.606 57.5653 194.605 56.5523 194.607C55.4644 194.609 54.3766 194.607 53.2887 194.605C52.8104 194.607 52.8104 194.607 52.3225 194.609C52.0349 194.607 51.7473 194.606 51.451 194.604C51.2019 194.604 50.9528 194.604 50.6962 194.604C50.0978 194.531 50.0978 194.531 49.5118 193.945C49.4752 193.176 49.4752 193.176 49.5118 192.48C49.8019 192.384 50.0919 192.287 50.3907 192.187C50.3901 191.887 50.3894 191.587 50.3888 191.277C50.3828 188.453 50.3784 185.629 50.3756 182.806C50.374 181.354 50.372 179.902 50.3686 178.45C50.3655 177.05 50.3637 175.65 50.363 174.25C50.3624 173.715 50.3613 173.179 50.3598 172.644C50.3577 171.897 50.3574 171.149 50.3575 170.402C50.3564 170.179 50.3554 169.955 50.3543 169.725C50.3573 168.197 50.3573 168.197 50.6837 167.871C51.3243 167.85 51.9655 167.846 52.6063 167.853C52.9572 167.855 53.308 167.858 53.6695 167.861C53.941 167.864 54.2125 167.867 54.4923 167.871C54.3968 167.601 54.3012 167.332 54.2028 167.054C48.8771 151.76 53.0653 136.459 58.4829 121.813C58.5956 121.508 58.7083 121.202 58.8244 120.888C59.1656 120.148 59.4036 119.716 60.0587 119.238C62.2981 119.212 64.1481 120.243 66.1378 121.179C66.8947 121.528 67.6531 121.873 68.4118 122.218C68.6104 122.309 68.8091 122.399 69.0137 122.492C74.9732 125.196 81.057 127.823 87.3048 129.785C87.67 129.9 88.0352 130.015 88.4115 130.134C98.7352 133.225 108.477 132.778 118.148 128.007C118.753 127.68 119.28 127.275 119.824 126.855C120.018 126.855 120.211 126.855 120.41 126.855C120.459 126.701 120.508 126.546 120.559 126.387C121.138 124.602 121.814 122.87 122.531 121.137C122.649 120.85 122.767 120.562 122.889 120.267C123.138 119.663 123.387 119.059 123.637 118.455C124.015 117.541 124.39 116.627 124.765 115.713C128.181 107.419 128.181 107.419 129.474 106.421C130.926 105.828 132.024 105.901 133.483 106.464ZM131.25 108.984C129.725 111.175 128.806 113.587 127.826 116.052C127.654 116.478 127.483 116.904 127.31 117.33C127.145 117.741 126.98 118.152 126.816 118.563C126.702 118.846 126.702 118.846 126.586 119.134C126.15 120.232 125.754 121.337 125.391 122.461C126.539 121.965 127.462 121.204 128.43 120.428C128.609 120.287 128.787 120.146 128.971 120.001C129.908 119.26 130.839 118.511 131.763 117.754C131.941 117.61 132.119 117.466 132.303 117.317C132.64 117.044 132.976 116.768 133.309 116.489C134.868 115.233 136.565 114.506 138.574 114.349C138.798 114.33 139.021 114.311 139.252 114.291C139.415 114.28 139.578 114.269 139.746 114.258C138.702 113.147 137.612 112.273 136.322 111.456C136.144 111.342 135.965 111.228 135.781 111.11C134.335 110.207 132.863 109.539 131.25 108.984ZM132.667 120.517C131.65 121.461 130.588 122.334 129.507 123.202C128.852 123.732 128.206 124.268 127.564 124.814C118.992 132.032 109.489 136.053 98.155 135.271C86.7331 134.206 76.1663 129.061 65.8345 124.427C65.6323 124.336 65.4301 124.246 65.2217 124.153C64.6757 123.909 64.1302 123.664 63.5848 123.418C62.6655 123.008 62.6655 123.008 61.5236 122.754C61.2335 123.624 60.9435 124.494 60.6447 125.39C79.7843 135.025 79.7843 135.025 100.488 139.453C100.855 139.477 100.855 139.477 101.229 139.501C110.011 139.806 117.963 136.17 124.805 130.957C132.225 125.317 132.225 125.317 137.588 125.868C139.638 126.189 141.429 127.093 143.262 128.027C143.533 128.162 143.804 128.297 144.084 128.437C148.03 130.411 151.885 132.54 155.715 134.73C156.996 135.461 158.285 136.174 159.581 136.878C163.655 139.093 167.65 141.439 171.533 143.976C171.799 144.146 171.799 144.146 172.07 144.321C174.62 146.018 175.132 147.998 175.728 150.853C175.883 151.63 176.031 152.407 176.177 153.186C176.32 154.069 176.32 154.069 176.66 154.687C177.724 154.687 178.787 154.687 179.883 154.687C180.305 153.444 180.722 152.199 181.135 150.952C181.275 150.529 181.417 150.106 181.561 149.684C182.863 146.045 182.863 146.045 182.618 142.25C181.182 139.565 178.606 138.33 176.074 136.816C175.224 137.847 174.588 138.825 174.024 140.039C173.25 139.652 172.477 139.265 171.68 138.867C171.764 138.666 171.849 138.464 171.936 138.257C172.045 137.993 172.154 137.729 172.266 137.457C172.375 137.195 172.483 136.934 172.595 136.664C172.9 135.928 172.9 135.928 172.852 135.058C172.242 134.575 172.242 134.575 171.442 134.139C171.151 133.97 170.86 133.801 170.561 133.627C170.253 133.453 169.946 133.279 169.629 133.099C169.322 132.921 169.014 132.744 168.697 132.561C167.935 132.121 167.172 131.684 166.406 131.25C165.133 132.849 165.133 132.849 164.649 134.765C163.488 134.185 163.488 134.185 162.305 133.593C162.463 132.61 162.731 131.696 163.05 130.754C163.13 130.518 163.209 130.281 163.292 130.037C163.353 129.857 163.414 129.677 163.477 129.492C162.472 128.854 161.464 128.22 160.455 127.588C160.169 127.406 159.883 127.224 159.589 127.037C159.176 126.779 159.176 126.779 158.756 126.516C158.376 126.277 158.376 126.277 157.989 126.033C157.32 125.615 157.32 125.615 156.445 125.683C156.249 126.061 156.054 126.44 155.859 126.819C155.751 127.029 155.642 127.24 155.53 127.457C155.233 128.012 155.233 128.012 155.274 128.613C154.5 128.323 153.727 128.033 152.93 127.734C153.148 126.337 153.579 125.32 154.102 123.926C151.781 122.669 149.461 121.412 147.07 120.117C145.806 121.716 145.806 121.716 145.313 123.633C144.152 123.052 144.152 123.052 142.969 122.461C143.493 120.814 143.493 120.814 143.903 120.08C144.178 119.538 144.178 119.538 144.159 118.927C143.556 117.828 142.26 117.618 141.12 117.279C137.22 116.825 135.49 117.865 132.667 120.517ZM59.4728 128.32C58.6237 130.332 57.9363 132.351 57.3488 134.454C57.2702 134.727 57.1917 135 57.1107 135.281C56.6805 136.758 56.6805 136.758 56.5431 138.281C56.7613 138.32 56.9794 138.359 57.2042 138.399C98.253 145.714 98.253 145.714 101.367 148.828C101.402 149.464 101.416 150.102 101.423 150.739C101.426 151.038 101.426 151.038 101.43 151.344C101.435 151.779 101.44 152.213 101.444 152.648C101.45 153.335 101.458 154.021 101.466 154.708C101.487 156.414 101.504 158.12 101.521 159.826C101.536 161.267 101.552 162.707 101.57 164.148C101.578 164.826 101.584 165.505 101.59 166.183C101.595 166.597 101.6 167.011 101.605 167.424C101.608 167.787 101.612 168.15 101.616 168.524C101.568 169.309 101.568 169.309 101.953 169.629C107.531 170.665 107.531 170.665 112.98 169.9C114.106 169.051 114.745 167.928 115.389 166.694C115.955 165.708 116.731 164.931 117.517 164.117C117.739 163.88 117.739 163.88 117.965 163.638C126.332 154.697 137.816 149.511 150 148.828C151.642 148.78 153.283 148.771 154.926 148.773C155.155 148.773 155.385 148.772 155.621 148.772C161.179 148.773 166.72 149.074 172.266 149.414C172.17 148.171 172.17 148.171 171.504 147.167C171.301 147.041 171.098 146.915 170.889 146.785C170.659 146.639 170.429 146.492 170.192 146.341C169.814 146.113 169.814 146.113 169.428 145.88C169.165 145.716 168.902 145.552 168.632 145.383C167.796 144.864 166.956 144.355 166.113 143.847C165.722 143.61 165.722 143.61 165.323 143.367C163.452 142.233 161.565 141.129 159.668 140.039C159.384 139.875 159.1 139.712 158.807 139.543C154.688 137.185 150.51 134.958 146.285 132.797C144.787 132.031 143.3 131.251 141.828 130.434C140.183 129.524 138.705 128.768 136.817 128.613C136.402 128.573 136.402 128.573 135.979 128.532C132.29 128.34 130.097 130.236 127.322 132.397C123.857 135.094 120.306 137.335 116.309 139.16C116.042 139.285 116.042 139.285 115.769 139.412C108.553 142.734 99.9541 143.1 92.2853 141.211C91.9373 141.126 91.9373 141.126 91.5823 141.039C83.7703 139.073 76.4591 135.728 69.1686 132.369C68.4642 132.045 67.7595 131.721 67.0548 131.397C66.139 130.976 65.2244 130.552 64.3104 130.127C63.8888 129.932 63.4672 129.738 63.0456 129.543C62.854 129.454 62.6624 129.364 62.465 129.271C61.4738 128.816 60.5537 128.479 59.4728 128.32ZM55.9572 141.211C53.0585 149.286 54.4691 159.687 57.422 167.578C58.4947 168.651 62.1584 168.255 63.6379 168.305C64.1151 168.322 64.1151 168.322 64.6019 168.339C65.6479 168.377 66.6939 168.413 67.74 168.449C68.4731 168.475 69.2062 168.5 69.9393 168.526C71.475 168.58 73.0107 168.634 74.5464 168.687C76.5022 168.754 78.458 168.823 80.4138 168.892C81.9285 168.946 83.4431 168.999 84.9578 169.052C85.6781 169.077 86.3985 169.102 87.1189 169.128C90.9909 169.265 94.8559 169.377 98.7306 169.336C98.7645 166.983 98.7906 164.63 98.8065 162.276C98.8141 161.184 98.8245 160.091 98.8411 158.998C98.857 157.944 98.8658 156.89 98.8696 155.836C98.8723 155.433 98.8776 155.031 98.8855 154.628C98.8961 154.065 98.8967 153.502 98.8969 152.939C98.9018 152.458 98.9018 152.458 98.9067 151.967C98.8069 151.109 98.8069 151.109 98.0242 150.637C85.2838 144.847 69.679 143.221 55.9572 141.211ZM185.156 147.363C185.1 147.545 185.043 147.726 184.984 147.913C184.393 149.801 183.799 151.687 183.202 153.573C182.98 154.277 182.758 154.982 182.538 155.687C182.221 156.699 181.901 157.71 181.58 158.721C181.433 159.195 181.433 159.195 181.283 159.678C181.189 159.972 181.096 160.265 180.999 160.567C180.918 160.825 180.836 161.084 180.753 161.35C180.45 162.055 180.201 162.429 179.59 162.89C178.771 162.981 178.015 163.02 177.196 163.02C176.955 163.023 176.714 163.027 176.466 163.031C175.947 163.038 175.428 163.044 174.909 163.048C173.54 163.06 172.172 163.087 170.803 163.114C170.391 163.121 170.391 163.121 169.971 163.129C156.912 163.385 144.658 164.991 134.656 174.088C134.114 174.564 134.114 174.564 134.18 175.195C160.035 183.973 184.572 185.564 213.574 180.468C213.368 177.634 212.8 174.885 212.248 172.103C212.145 171.578 212.041 171.053 211.938 170.528C211.723 169.433 211.506 168.338 211.289 167.243C211.01 165.841 210.735 164.438 210.46 163.035C210.248 161.953 210.034 160.871 209.82 159.79C209.718 159.272 209.616 158.755 209.515 158.237C209.374 157.516 209.23 156.794 209.086 156.073C209.024 155.754 209.024 155.754 208.961 155.428C208.695 153.943 208.695 153.943 208.008 152.636C207.278 152.304 207.278 152.304 206.388 152.114C206.049 152.029 205.709 151.944 205.359 151.856C204.99 151.769 204.62 151.682 204.239 151.592C203.855 151.497 203.471 151.403 203.087 151.307C202.073 151.057 201.057 150.813 200.041 150.57C199.021 150.325 198.003 150.074 196.984 149.824C195.138 149.372 193.292 148.923 191.443 148.483C190.753 148.319 190.063 148.152 189.373 147.984C189.037 147.903 188.701 147.823 188.355 147.74C188.056 147.667 187.758 147.595 187.45 147.52C186.662 147.371 185.956 147.333 185.156 147.363ZM139.307 153.387C139.058 153.461 138.809 153.534 138.552 153.61C131.843 155.701 126.253 159.456 121.289 164.355C121.099 164.541 120.909 164.727 120.714 164.919C118.169 167.253 118.169 167.253 116.016 169.922C116.016 170.115 116.016 170.308 116.016 170.508C116.742 170.691 117.468 170.874 118.195 171.057C118.497 171.133 118.497 171.133 118.805 171.211C119.221 171.316 119.637 171.417 120.054 171.514C120.703 171.679 120.703 171.679 121.381 171.912C122.064 172.124 122.625 172.266 123.34 172.265C124.149 171.827 124.662 171.191 125.244 170.489C125.596 170.104 125.95 169.721 126.306 169.34C126.49 169.144 126.674 168.947 126.864 168.745C136.528 159.032 150.42 155.388 163.682 154.823C164.104 154.805 164.104 154.805 164.535 154.785C165.421 154.746 166.307 154.707 167.194 154.669C167.8 154.642 168.406 154.615 169.013 154.588C170.488 154.523 171.963 154.458 173.438 154.394C173.341 153.717 173.244 153.041 173.145 152.343C167.813 151.855 162.492 151.689 157.139 151.67C156.466 151.667 155.792 151.663 155.119 151.658C149.788 151.618 144.451 151.847 139.307 153.387ZM211.524 153.515C211.749 156.146 212.287 158.716 212.796 161.303C212.894 161.802 212.991 162.301 213.088 162.801C213.292 163.842 213.496 164.883 213.7 165.925C213.962 167.259 214.223 168.593 214.483 169.927C214.732 171.203 214.982 172.479 215.231 173.754C215.279 173.997 215.326 174.24 215.375 174.49C215.509 175.176 215.644 175.862 215.779 176.549C215.819 176.751 215.858 176.954 215.899 177.163C216.079 178.076 216.266 178.983 216.504 179.883C219.586 179.474 222.633 178.942 225.687 178.363C226.163 178.273 226.639 178.183 227.115 178.094C228.104 177.907 229.092 177.72 230.081 177.532C231.345 177.292 232.609 177.054 233.873 176.817C234.853 176.633 235.832 176.448 236.811 176.262C237.277 176.174 237.743 176.086 238.21 175.999C238.86 175.877 239.511 175.753 240.161 175.629C240.714 175.524 240.714 175.524 241.278 175.417C242.23 175.207 243.126 174.936 244.043 174.609C244.279 170.336 243.387 166.322 240.637 162.982C238.512 160.756 235.879 159.396 232.984 158.441C232.668 158.335 232.352 158.23 232.026 158.121C226.601 156.417 220.971 155.365 215.413 154.192C215.089 154.123 214.765 154.055 214.43 153.984C214.133 153.922 213.836 153.86 213.53 153.796C213.138 153.714 213.138 153.714 212.738 153.631C212.12 153.498 212.12 153.498 211.524 153.515ZM152.893 158.716C152.498 158.791 152.498 158.791 152.095 158.868C142.422 160.794 132.907 165.396 126.563 173.144C127.122 173.357 127.684 173.563 128.247 173.767C128.56 173.882 128.873 173.998 129.195 174.117C130.042 174.385 130.042 174.385 130.716 174.122C131.301 173.693 131.766 173.239 132.257 172.705C137.96 166.876 145.709 163.192 153.644 161.645C153.87 161.601 154.096 161.557 154.329 161.511C159.714 160.542 165.107 160.433 170.563 160.363C171.3 160.352 172.036 160.341 172.773 160.329C174.557 160.301 176.341 160.276 178.125 160.254C178.564 159.266 178.711 158.729 178.711 157.617C176.534 157.602 174.358 157.592 172.181 157.585C171.443 157.582 170.706 157.578 169.968 157.573C164.245 157.534 158.533 157.632 152.893 158.716ZM53.3204 171.093C53.3204 177.474 53.3204 183.855 53.3204 190.429C55.8559 190.624 58.3448 190.775 60.8809 190.809C61.235 190.815 61.5892 190.821 61.9541 190.827C62.9158 190.842 63.8775 190.857 64.8392 190.87C65.8616 190.885 66.8839 190.901 67.9062 190.917C69.6298 190.944 71.3533 190.97 73.0769 190.995C74.822 191.02 76.5671 191.047 78.3123 191.074C87.6573 191.221 97.0012 191.365 106.348 191.308C106.355 189.527 106.36 187.746 106.364 185.965C106.365 185.362 106.367 184.759 106.37 184.155C106.386 180.376 106.318 176.622 106.055 172.851C104.508 172.641 102.992 172.507 101.43 172.454C101.105 172.442 101.105 172.442 100.774 172.43C100.059 172.405 99.3446 172.382 98.6299 172.358C98.1193 172.34 97.6087 172.323 97.0981 172.305C95.7287 172.257 94.3594 172.211 92.99 172.166C91.8522 172.128 90.7145 172.089 89.5767 172.05C86.4278 171.943 83.2788 171.837 80.1298 171.733C78.853 171.691 77.5762 171.648 76.2994 171.605C73.9146 171.525 71.5297 171.446 69.1447 171.37C68.3724 171.345 67.6002 171.319 66.828 171.294C65.7557 171.258 64.6833 171.224 63.611 171.191C63.3141 171.181 63.0172 171.171 62.7113 171.16C59.5779 171.065 56.4606 171.093 53.3204 171.093ZM109.277 173.144C109.277 174.691 109.277 176.238 109.277 177.832C109.675 177.818 110.072 177.805 110.481 177.791C118.942 177.587 126.797 180.395 134.767 182.947C144.444 186.046 154.174 188.629 164.227 190.21C164.65 190.276 164.65 190.276 165.081 190.344C169.826 191.05 174.555 191.431 179.352 191.418C179.608 191.418 179.863 191.417 180.127 191.417C202.534 191.335 225.349 186.25 246.973 180.761C246.876 179.698 246.779 178.634 246.68 177.539C242.702 178.062 238.78 178.731 234.85 179.535C221.516 182.25 208.014 184.814 194.471 186.213C193.773 186.285 193.076 186.36 192.379 186.439C183.448 187.451 174.12 187.367 165.234 186.035C164.788 185.973 164.788 185.973 164.332 185.911C154.056 184.473 143.989 181.249 134.045 178.376C121.859 174.609 121.859 174.609 109.277 173.144ZM109.277 180.761C109.277 184.339 109.277 187.916 109.277 191.601C124.069 191.601 138.861 191.601 154.102 191.601C154.102 191.505 154.102 191.408 154.102 191.308C153.851 191.25 153.601 191.192 153.343 191.131C147.758 189.815 142.253 188.325 136.78 186.603C136.498 186.514 136.215 186.425 135.925 186.333C133.861 185.683 131.8 185.027 129.739 184.368C120.959 181.473 120.959 181.473 111.823 180.432C111.38 180.431 111.38 180.431 110.929 180.43C110.124 180.435 110.124 180.435 109.277 180.761Z" fill="black"/>
<path d="M241.406 159.961C242.428 160.778 243.311 161.5 244.043 162.598C243.673 163.338 243.302 163.407 242.578 163.77C242.578 163.576 242.578 163.383 242.578 163.184C241.853 163.619 241.853 163.619 241.113 164.062C240.727 163.482 240.34 162.902 239.941 162.305C240.231 162.208 240.521 162.111 240.82 162.012C240.724 161.722 240.627 161.432 240.527 161.133C240.721 161.133 240.914 161.133 241.113 161.133C241.21 160.746 241.307 160.359 241.406 159.961Z" fill="black"/>
<path d="M123.633 158.203C123.826 158.3 124.02 158.396 124.219 158.496C123.046 159.701 121.855 160.844 120.551 161.906C120.042 162.342 120.042 162.342 119.531 163.184C119.241 163.28 118.951 163.377 118.652 163.477C117.898 164.323 117.23 165.17 116.602 166.113C116.505 165.823 116.408 165.533 116.309 165.234C117.934 162.537 121.168 160.127 123.633 158.203Z" fill="black"/>
<path d="M169.922 142.969C170.212 143.065 170.502 143.162 170.801 143.262C170.511 143.358 170.221 143.455 169.922 143.555C169.722 144.041 169.527 144.53 169.336 145.02C169.046 145.213 168.756 145.406 168.457 145.605C167.974 145.219 167.49 144.832 166.992 144.434C167.204 144.355 167.415 144.276 167.633 144.196C168.472 143.869 168.472 143.869 169.226 143.353C169.456 143.226 169.685 143.099 169.922 142.969Z" fill="black"/>
<path d="M165.234 141.796C165.234 142.28 165.234 142.763 165.234 143.261C163.843 142.712 163.843 142.712 163.184 142.382C163.184 142.189 163.184 141.995 163.184 141.796C163.965 141.406 164.404 141.6 165.234 141.796Z" fill="black"/>
<path d="M118.652 162.598C118.652 163.856 117.998 164.308 117.188 165.234C116.994 165.524 116.801 165.814 116.602 166.113C116.505 165.823 116.408 165.533 116.309 165.234C116.718 164.646 116.718 164.646 117.297 164.026C117.487 163.82 117.677 163.613 117.872 163.401C118.13 163.131 118.388 162.862 118.652 162.598Z" fill="black"/>
<path d="M142.969 121.289C143.065 121.482 143.162 121.676 143.262 121.875C143.455 121.875 143.648 121.875 143.848 121.875C143.848 122.068 143.848 122.262 143.848 122.461C144.138 122.558 144.428 122.654 144.727 122.754C144.63 122.947 144.533 123.141 144.434 123.34C143.719 123.102 143.719 123.102 142.969 122.754C142.872 122.464 142.775 122.174 142.676 121.875C142.772 121.682 142.869 121.488 142.969 121.289Z" fill="black"/>
<path d="M126.855 121.289C127.049 121.386 127.242 121.482 127.441 121.582C126.978 122.213 126.531 122.785 125.977 123.34C125.687 123.243 125.396 123.146 125.098 123.047C125.098 122.854 125.098 122.66 125.098 122.461C125.577 122.154 126.066 121.861 126.562 121.582C126.659 121.485 126.756 121.389 126.855 121.289Z" fill="black"/>
<path d="M165.527 140.625C166.919 140.845 166.919 140.845 167.578 141.504C166.406 141.504 166.406 141.504 165.527 141.211C165.527 141.018 165.527 140.824 165.527 140.625ZM165.82 141.504C166.014 141.504 166.207 141.504 166.406 141.504C166.31 141.697 166.213 141.891 166.113 142.09C166.017 141.896 165.92 141.703 165.82 141.504Z" fill="black"/>
<path d="M131.25 167.285C131.54 167.575 131.83 167.865 132.129 168.164C131.404 168.599 131.404 168.599 130.664 169.043C130.567 168.656 130.471 168.27 130.371 167.871C130.661 167.678 130.951 167.484 131.25 167.285Z" fill="black"/>
</svg>
