<svg width="300" height="300" viewBox="0 0 300 300" fill="none" xmlns="http://www.w3.org/2000/svg">
<path d="M140.918 63.5742C144.063 66.4086 145.315 69.8905 146.232 73.9083C146.398 74.6251 146.583 75.3377 146.79 76.0437C147.506 78.6157 147.718 81.3334 147.877 83.9917C147.928 84.6798 148.007 85.3661 148.104 86.0493C148.449 88.7696 148.449 88.7696 147.835 89.6393C147.29 90.0696 147.29 90.0696 146.717 90.445C145.834 91.0755 145.614 91.8601 145.312 92.8711C145.137 94.4767 145.379 95.8707 146.191 97.2657C147.066 98.2024 148.058 98.9009 149.121 99.6094C149.262 100.38 149.347 101.093 149.399 101.871C149.417 102.097 149.436 102.323 149.454 102.557C149.492 103.037 149.529 103.518 149.563 103.999C149.615 104.726 149.672 105.452 149.73 106.178C149.835 107.504 149.921 108.829 150 110.156C150.031 110.631 150.031 110.631 150.062 111.114C150.132 112.913 150.132 112.913 149.528 113.705C149.321 113.821 149.114 113.937 148.901 114.056C148.687 114.192 148.473 114.328 148.252 114.467C147.957 114.654 147.957 114.654 147.656 114.844C146.264 116.274 145.682 117.844 145.495 119.806C145.595 122 146.353 123.866 147.949 125.391C149.231 126.193 150.604 126.714 152.051 127.148C152.051 128.115 152.051 129.082 152.051 130.078C151.664 130.187 151.277 130.296 150.879 130.408C148.982 131.047 147.398 132.03 146.356 133.777C145.444 135.747 145.243 137.847 145.826 139.96C146.503 141.715 147.23 143.368 148.828 144.434C148.535 145.313 148.535 145.313 147.858 145.953C146.171 147.719 145.483 149.801 145.524 152.234C145.747 154.146 146.243 155.964 147.676 157.277C149.002 158.806 148.723 160.558 148.643 162.478C148.634 162.858 148.625 163.239 148.615 163.631C148.591 164.638 148.557 165.644 148.52 166.65C148.484 167.679 148.458 168.708 148.432 169.737C148.379 171.752 148.314 173.767 148.242 175.781C148.435 175.878 148.629 175.975 148.828 176.074C148.807 176.305 148.787 176.535 148.766 176.773C148.571 179.092 148.49 181.389 148.488 183.716C148.486 184.078 148.485 184.44 148.483 184.813C148.48 185.793 148.478 186.774 148.476 187.755C148.476 188.369 148.474 188.984 148.473 189.598C148.469 191.528 148.466 193.457 148.465 195.386C148.464 197.602 148.459 199.818 148.45 202.035C148.444 203.757 148.441 205.479 148.44 207.201C148.44 208.226 148.438 209.251 148.433 210.276C148.427 211.418 148.429 212.56 148.431 213.702C148.428 214.037 148.425 214.372 148.422 214.717C148.434 217.009 148.669 219.122 150.073 221.008C151.578 222.445 152.766 222.711 154.797 222.784C157.429 222.712 159.271 221.816 161.193 220.039C162.862 218.116 163.474 215.932 163.603 213.448C163.624 213.063 163.645 212.679 163.666 212.283C163.676 212.078 163.687 211.872 163.698 211.66C163.731 211.005 163.766 210.35 163.802 209.695C163.902 207.832 164 205.969 164.097 204.105C164.36 199.084 164.656 194.07 165.092 189.061C165.119 188.751 165.119 188.751 165.146 188.435C165.423 185.223 165.856 182.117 166.699 179.004C166.748 178.812 166.797 178.621 166.847 178.423C168.287 172.858 170.998 167.638 174.609 163.184C175.94 163.443 176.764 164.217 177.777 165.07C182.725 169.118 188.3 172.226 193.945 175.195C193.571 176.199 193.133 177.061 192.554 177.96C190.654 181.083 189.523 184.468 188.562 187.976C188.507 188.173 188.452 188.371 188.396 188.574C186.025 197.14 184.277 205.881 182.905 214.658C182.816 215.221 182.727 215.784 182.638 216.348C182.465 217.45 182.296 218.554 182.131 219.658C181.223 225.557 179.563 230.736 175.488 235.254C175.186 235.598 175.186 235.598 174.877 235.949C170.416 240.733 163.928 243.205 157.487 243.504C150.454 243.665 143.599 242.07 138.37 237.1C138.148 236.877 137.925 236.655 137.695 236.426C137.49 236.225 137.286 236.023 137.075 235.816C134.451 233.065 131.836 228.895 131.836 225C131.546 224.903 131.256 224.807 130.957 224.707C130.846 213.902 130.846 213.902 131.213 210.132C131.57 206.433 131.724 202.73 131.872 199.017C131.885 198.698 131.898 198.378 131.911 198.049C132.08 193.771 132.189 189.501 132.133 185.219C132.129 184.899 132.125 184.579 132.121 184.249C132.116 183.975 132.11 183.702 132.105 183.42C132.129 182.813 132.129 182.813 132.422 182.52C132.483 181.704 132.527 180.894 132.558 180.076C132.569 179.817 132.58 179.558 132.591 179.291C132.628 178.42 132.662 177.549 132.696 176.678C132.721 176.065 132.746 175.451 132.771 174.837C132.853 172.808 132.93 170.779 133.008 168.75C133.028 168.212 133.028 168.212 133.049 167.663C133.135 165.441 133.218 163.219 133.298 160.996C133.324 160.282 133.35 159.568 133.377 158.854C133.533 154.655 133.623 150.465 133.581 146.263C133.569 144.547 133.622 142.908 133.887 141.211C133.5 141.114 133.113 141.018 132.715 140.918C133.198 140.821 133.682 140.725 134.18 140.625C134.177 140.37 134.175 140.115 134.173 139.852C134.16 137.098 134.23 134.355 134.342 131.604C134.373 130.854 134.402 130.105 134.431 129.356C134.513 127.228 134.598 125.1 134.683 122.972C134.924 116.939 135.141 110.921 135.058 104.883C135.252 104.883 135.445 104.883 135.644 104.883C135.665 101.205 135.68 97.5276 135.69 93.8499C135.695 92.1418 135.701 90.4339 135.711 88.7259C135.72 87.0751 135.726 85.4244 135.728 83.7736C135.729 83.1463 135.733 82.519 135.737 81.8917C135.771 77.2996 135.76 73.3232 133.008 69.4336C132.808 69.1315 132.609 68.8294 132.403 68.5181C128.018 63.6192 120.078 63.1818 114.001 62.7869C113.403 62.754 112.805 62.7224 112.207 62.6953C111.738 61.5229 112.121 60.6312 112.5 59.4727C121.247 58.017 133.628 57.5947 140.918 63.5742Z" fill="black"/>
<path d="M183.897 141.138C190.512 144.497 196.561 148.753 202.031 153.756C202.485 154.167 202.945 154.571 203.412 154.967C207.016 158.034 210.745 162.451 211.342 167.307C211.426 169.455 211.107 171.085 209.662 172.712C208.1 174.158 206.247 174.457 204.194 174.407C202.288 174.207 200.465 173.69 198.634 173.144C198.106 172.988 198.106 172.988 197.568 172.829C189.694 170.176 182.118 165.006 176.075 159.374C175.891 159.203 175.707 159.032 175.518 158.856C170.945 154.555 166.298 149.029 166.088 142.434C166.18 140.858 166.512 139.785 167.579 138.574C172.597 134.784 179.092 138.755 183.897 141.138ZM172.628 144.093C172.204 144.835 172.169 145.326 172.34 146.161C173.375 149.063 175.724 151.354 177.833 153.515C177.99 153.679 178.148 153.843 178.31 154.013C179.518 155.253 180.791 156.337 182.173 157.378C182.387 157.541 182.602 157.703 182.823 157.871C191.6 164.68 191.6 164.68 202.006 167.432C202.852 167.261 203.278 166.989 203.907 166.406C204.328 165.423 204.191 164.903 203.925 163.86C203.257 162.241 202.108 160.983 200.977 159.667C200.814 159.465 200.65 159.262 200.482 159.053C199.082 157.356 197.429 156.041 195.704 154.687C195.382 154.427 195.061 154.167 194.739 153.906C191.193 151.047 187.541 148.652 183.509 146.52C183.209 146.36 182.909 146.199 182.6 146.034C177.609 143.355 177.609 143.355 172.628 144.093Z" fill="black"/>
<path d="M166.699 154.102C167.715 155.089 168.632 156.109 169.518 157.214C170.367 158.293 170.367 158.293 171.338 159.254C171.679 159.668 171.679 159.668 171.662 160.194C171.279 161.092 170.742 161.868 170.196 162.671C161.44 175.956 161.046 192.509 160.265 207.882C160.24 208.331 160.24 208.331 160.215 208.79C160.185 209.356 160.156 209.921 160.131 210.487C160.095 211.127 160.031 211.765 159.96 212.402C159.222 212.772 158.831 212.672 158.019 212.567C157.78 212.537 157.54 212.507 157.294 212.477C157.11 212.452 156.927 212.428 156.738 212.402C156.612 206.224 156.791 200.079 157.122 193.909C157.139 193.573 157.157 193.237 157.174 192.891C158.784 162.016 158.784 162.016 166.699 154.102Z" fill="black"/>
<path d="M89.0625 56.25C91.2173 56.2363 93.3721 56.2259 95.5269 56.2196C96.5278 56.2166 97.5287 56.2125 98.5296 56.2058C99.6845 56.1981 100.839 56.1953 101.994 56.1928C102.348 56.1897 102.701 56.1867 103.066 56.1836C105.291 56.1833 107.388 56.3964 109.57 56.8359C109.435 57.1679 109.435 57.1679 109.298 57.5065C108.236 60.1954 108.286 62.2898 108.984 65.039C102.997 65.3656 95.7761 63.2368 91.095 59.4543C90.2464 58.667 89.634 57.8418 89.0625 56.8359C89.0625 56.6426 89.0625 56.4492 89.0625 56.25Z" fill="black"/>
<path d="M155.933 147.84C157.069 148.821 157.751 149.756 158.033 151.223C158.131 152.76 157.77 153.831 156.877 155.079C156.033 156.033 155.239 156.375 153.986 156.536C152.309 156.619 151.301 156.419 150 155.274C148.884 154.007 148.426 153.252 148.454 151.532C148.654 149.932 149.35 148.826 150.586 147.822C152.439 146.857 154.058 146.902 155.933 147.84Z" fill="black"/>
<path d="M155.273 133.593C156.329 134.489 157.147 135.364 157.562 136.706C157.646 138.217 157.331 139.648 156.318 140.816C155.094 141.869 154.011 142.214 152.401 142.19C151.207 142.003 150.315 141.407 149.414 140.624C148.54 139.422 148.381 138.321 148.43 136.869C148.595 135.868 149.067 135.24 149.707 134.472C149.828 134.303 149.949 134.134 150.073 133.959C151.667 132.821 153.543 132.8 155.273 133.593Z" fill="black"/>
<path d="M154.395 116.016C155.466 116.619 156.395 117.45 156.738 118.652C156.869 120.279 156.829 121.377 155.859 122.754C154.348 123.88 153.335 124.137 151.465 123.926C150.384 123.434 149.608 122.767 148.828 121.875C148.369 120.496 148.374 119.377 148.883 118.011C150.276 115.849 152.005 115.416 154.395 116.016Z" fill="black"/>
<path d="M150.953 90.7285C151.948 90.7412 152.315 90.8035 153.205 91.3145C154.1 92.3175 154.415 92.9836 154.359 94.3357C153.98 95.635 153.409 96.4022 152.235 97.0823C151.263 97.3136 150.667 97.2521 149.708 96.9724C148.367 96.0488 148.367 96.0488 147.95 95.2146C147.827 94.3184 147.806 93.4721 147.95 92.5779C148.664 91.699 148.664 91.699 149.415 91.113C149.872 90.656 150.32 90.7484 150.953 90.7285Z" fill="black"/>
</svg>
