<svg width="300" height="300" viewBox="0 0 300 300" fill="none" xmlns="http://www.w3.org/2000/svg">
<path d="M148.398 111.607C148.95 112.085 149.483 112.572 150 113.086C150.121 112.976 150.242 112.867 150.367 112.753C153.81 109.702 157.096 108.692 161.719 108.692C163.815 108.847 165.579 109.189 167.285 110.45C168.061 111.428 167.958 112.462 167.871 113.672C167.771 113.86 167.671 114.048 167.568 114.242C167.229 114.963 167.263 115.345 167.377 116.126C167.409 116.359 167.44 116.592 167.473 116.832C167.553 117.325 167.645 117.815 167.743 118.305C168.121 121.057 167.789 123.604 167.157 126.288C165.427 133.797 166.16 139.769 169.539 146.653C174.718 157.239 176.39 169.345 172.519 180.647C169.742 188.347 165.872 195.435 161.668 202.426C157.743 208.635 157.743 208.635 156.061 215.625C156.05 215.928 156.039 216.23 156.028 216.541C156.09 217.399 156.09 217.399 156.614 218.036C157.494 218.679 158.376 218.965 159.412 219.251C159.835 219.377 160.258 219.503 160.681 219.63C161.125 219.76 161.568 219.89 162.012 220.02C167.185 221.541 172.1 223.596 176.075 227.344C176.225 227.481 176.375 227.618 176.529 227.759C181.642 232.444 186.348 239.786 186.984 246.872C187.042 249.107 187.042 249.107 186.457 250.068C184.638 251.14 182.584 251.233 180.524 251.404C180.25 251.43 179.977 251.455 179.695 251.481C171.963 252.157 164.247 251.014 158.131 245.908C157.238 245.127 156.4 244.302 155.567 243.457C155.307 243.198 155.048 242.938 154.781 242.67C153.162 240.975 151.93 239.219 150.76 237.203C150.329 236.415 150.329 236.415 149.707 235.84C149.551 236.159 149.395 236.478 149.234 236.806C145.885 243.476 140.936 247.953 133.876 250.5C129.285 251.99 124.449 251.867 119.696 251.404C119.457 251.381 119.218 251.358 118.972 251.335C114.72 250.883 114.72 250.883 113.507 249.848C112.286 247.459 113.68 244.397 114.444 241.995C117.33 233.241 123.183 226.564 131.376 222.405C133.885 221.189 136.559 220.374 139.257 219.694C139.457 219.643 139.657 219.592 139.863 219.54C140.405 219.407 140.949 219.282 141.493 219.157C142.472 218.817 142.914 218.482 143.555 217.676C144.511 214.809 143.421 211.865 142.166 209.258C140.874 206.703 139.381 204.266 137.897 201.819C135.817 198.391 133.918 194.897 132.129 191.309C131.997 191.045 131.864 190.78 131.728 190.508C128.118 183.268 125.626 175.992 125.098 167.872C125.08 167.607 125.062 167.342 125.044 167.069C124.836 159.968 126.857 153.042 130.065 146.782C130.78 145.387 131.455 143.98 132.093 142.548C132.176 142.365 132.26 142.181 132.347 141.992C133.402 139.592 133.715 137.228 133.722 134.62C133.723 134.33 133.724 134.04 133.726 133.742C133.687 131.173 133.213 128.777 132.655 126.277C132.247 124.397 131.991 122.612 132.001 120.685C132.002 120.482 132.003 120.278 132.003 120.068C132.033 119.043 132.175 118.1 132.436 117.114C132.778 115.77 132.757 114.635 132.129 113.379C132.046 112.442 132.087 111.747 132.386 110.852C136.142 106.654 144.591 108.675 148.398 111.607ZM149.707 122.461C149.509 122.638 149.31 122.815 149.105 122.997C145.823 125.815 143.111 126.538 138.863 126.745C138.574 126.782 138.286 126.818 137.989 126.856C137.631 127.57 137.704 127.893 137.795 128.68C137.823 128.932 137.85 129.183 137.879 129.442C137.909 129.713 137.939 129.983 137.97 130.262C138.447 134.961 138.25 139.206 137.403 143.848C137.591 143.834 137.78 143.821 137.974 143.807C141.008 143.686 143.938 144.329 146.298 146.323C147.998 147.934 148.808 149.608 149.707 151.758C150.368 150.935 150.806 150.142 151.227 149.176C152.472 146.671 154.349 145.434 156.918 144.434C158.684 143.913 160.474 143.723 162.305 143.555C162.265 143.376 162.225 143.197 162.184 143.013C161.814 141.277 161.593 139.596 161.518 137.824C161.506 137.567 161.493 137.31 161.481 137.045C161.386 134.514 161.489 131.995 161.626 129.467C161.641 129.169 161.657 128.871 161.673 128.563C161.689 128.297 161.705 128.031 161.721 127.757C161.791 127.151 161.791 127.151 161.426 126.856C160.927 126.799 160.427 126.743 159.927 126.697C156.452 126.361 153.496 125.487 150.793 123.18C150.308 122.733 150.308 122.733 149.707 122.461Z" fill="black"/>
<path d="M164.941 52.7352C169.324 56.4685 171.367 61.6332 173.229 66.9316C173.343 67.2555 173.457 67.5794 173.574 67.9131C173.794 68.5442 174.01 69.1767 174.222 69.8107C175.142 72.4771 176.218 74.6986 178.637 76.2825C180.126 77.2713 180.126 77.2713 180.761 78.2234C180.898 79.4574 180.898 80.065 180.212 81.1165C179.041 82.2877 177.789 82.1386 176.225 82.1442C172.646 82.068 170.026 80.3867 167.285 78.2234C166.995 78.0301 166.705 77.8367 166.406 77.6375C166.345 77.9072 166.284 78.1768 166.222 78.4546C165.134 82.9246 163.438 87.1919 159.393 89.7591C154.957 92.2152 148.947 92.4643 144.099 91.1267C139.718 89.5286 136.79 86.5673 134.803 82.3891C134.15 80.9328 133.56 79.5131 133.3 77.9305C131.522 77.9076 130.172 77.9602 128.814 79.1939C128.452 79.5522 128.092 79.9121 127.734 80.2742C125.713 81.8222 123.538 82.588 120.996 82.325C120.41 82.032 120.41 82.032 120.117 81.4461C119.982 80.5189 119.908 79.9837 120.117 79.1023C121.014 78.1153 121.868 77.6261 123.065 77.0699C124.656 76.3044 125.558 75.2041 126.144 73.544C126.664 71.9231 126.757 70.3192 126.855 68.6287C127.323 62.2307 129.076 57.6182 134.033 53.2845C142.476 46.8445 156.533 45.7067 164.941 52.7352ZM141.503 59.4734C141.337 59.7744 141.17 60.0754 140.999 60.3855C140.89 60.5802 140.781 60.7749 140.669 60.9755C140.429 61.407 140.191 61.8396 139.955 62.2732C139.274 63.5074 138.549 64.5443 137.64 65.6258C135.9 68.3063 136.994 72.2867 137.559 75.2328C138.348 78.9385 139.433 83.1055 142.705 85.392C145.088 86.8007 147.368 87.1208 150.091 87.1041C150.498 87.1022 150.498 87.1022 150.913 87.1003C153.869 87.0515 156.453 86.6501 158.657 84.5234C162.214 80.7018 162.314 74.9258 162.341 69.9837C162.342 69.7647 162.344 69.5458 162.345 69.3202C162.364 68.1677 162.364 68.1677 162.011 67.0906C161.304 66.8704 161.304 66.8704 160.438 66.7107C159.944 66.6082 159.944 66.6082 159.441 66.5037C159.086 66.4315 158.732 66.3593 158.367 66.285C152.678 65.0659 147.077 63.5705 142.505 59.7756C142.096 59.416 142.096 59.416 141.503 59.4734Z" fill="black"/>
<path d="M130.664 81.4453C131.45 82.1021 131.843 82.8596 132.289 83.7707C134.563 88.399 137.755 91.4411 142.219 94.0121C142.676 94.3359 142.676 94.3359 143.262 95.2148C143.418 96.4213 143.423 97.0311 142.726 98.045C141.38 99.0381 140.155 98.9843 138.519 99.0417C134.535 99.1999 131.698 100.275 128.889 103.158C125.216 107.419 123.435 113.163 122.2 118.539C122.098 118.975 121.995 119.411 121.892 119.847C121.622 121 121.354 122.153 121.087 123.307C120.867 124.259 120.644 125.21 120.422 126.161C119.173 131.503 117.937 136.848 116.73 142.2C116.648 142.561 116.648 142.561 116.565 142.929C116.417 143.585 116.27 144.242 116.124 144.898C116.046 145.252 115.967 145.605 115.886 145.97C115.703 146.736 115.703 146.736 115.723 147.363C115.814 147.188 115.905 147.013 115.999 146.833C116.274 146.305 116.549 145.778 116.824 145.25C117.143 144.639 117.461 144.027 117.78 143.415C118.527 141.981 119.277 140.548 120.042 139.124C122.316 134.883 124.454 130.743 125.472 126.007C125.847 124.351 125.847 124.351 126.558 123.621C127.148 123.34 127.148 123.34 127.881 123.358C128.81 123.707 129.203 123.994 129.785 124.805C130.603 129.121 128.408 133.314 126.562 137.109C126.481 137.278 126.399 137.447 126.315 137.62C122.685 145.1 119.135 152.386 113.379 158.496C113.203 158.691 113.028 158.885 112.847 159.085C109.932 162.189 105.161 166.116 100.708 166.296C99.375 166.074 99.375 166.074 98.7305 165.234C98.4345 164.352 98.3677 163.525 98.4375 162.598C99.3492 160.872 100.518 160.563 102.312 159.974C104.807 159.035 106.965 156.814 108.234 154.508C110.588 149.189 111.532 143.171 112.814 137.523C113.145 136.065 113.478 134.608 113.813 133.152C113.924 132.664 114.036 132.176 114.148 131.688C114.203 131.448 114.258 131.208 114.315 130.961C115.018 127.897 115.718 124.832 116.408 121.764C117.943 114.965 119.501 108.375 123.213 102.378C123.682 101.714 123.682 101.714 123.633 101.074C123.315 101.007 122.997 100.939 122.669 100.869C122.246 100.773 121.822 100.677 121.399 100.58C121.19 100.536 120.981 100.493 120.766 100.448C119.021 100.039 117.812 99.3802 116.792 97.8401C116.313 96.3922 116.407 95.0497 117.041 93.6768C118.513 92.0573 120.433 91.2183 122.403 90.3248C123.153 89.8785 123.504 89.5339 123.926 88.7695C124.032 87.9439 124.032 87.9439 123.981 87.085C123.973 86.7964 123.965 86.5079 123.957 86.2106C123.941 85.8821 123.941 85.8821 123.926 85.5469C124.434 85.2869 124.434 85.2869 124.953 85.0216C125.404 84.7879 125.855 84.554 126.306 84.3201C126.64 84.1498 126.64 84.1498 126.981 83.9762C128.36 83.2571 129.507 82.4857 130.664 81.4453Z" fill="black"/>
<path d="M168.165 82.9102C169.351 83.2921 170.497 83.7222 171.644 84.2102C173.013 84.7872 174.387 85.33 175.782 85.8398C175.798 86.1582 175.798 86.1582 175.815 86.483C175.957 88.573 176.152 90.0185 177.686 91.5527C178.519 92.2059 179.423 92.6745 180.36 93.1641C181.79 93.9183 182.667 94.6297 183.399 96.0938C183.577 97.8124 183.384 98.8436 182.385 100.266C180.932 101.925 179.035 102.221 176.954 102.539C177.12 102.827 177.287 103.115 177.459 103.412C178.719 105.652 179.804 107.89 180.606 110.335C180.693 110.599 180.78 110.863 180.869 111.135C181.776 113.97 182.427 116.851 183.047 119.76C183.26 120.756 183.477 121.75 183.696 122.744C184.427 126.079 185.142 129.417 185.849 132.757C186.23 134.553 186.614 136.348 187.001 138.143C187.237 139.237 187.47 140.331 187.697 141.427C189.646 151.375 189.646 151.375 195.913 159.004C197.004 159.608 198.155 160.044 199.326 160.467C200.398 160.984 200.819 161.593 201.234 162.689C201.286 163.805 200.892 164.544 200.391 165.527C199.805 166.113 199.805 166.113 198.853 166.278C194.18 166.134 189.081 161.038 186.078 157.934C182.336 153.781 179.686 149.055 177.149 144.115C176.125 142.13 175.04 140.192 173.914 138.263C168.904 129.621 168.904 129.621 169.63 125.098C170.106 124.2 170.106 124.2 170.802 123.633C171.699 123.358 171.699 123.358 172.559 123.34C173.526 123.985 173.559 124.058 173.806 125.113C173.867 125.356 173.928 125.6 173.991 125.851C174.056 126.116 174.122 126.381 174.189 126.654C175.969 133.26 179.621 139.353 183.399 145.02C182.295 139.286 181.05 133.586 179.776 127.887C179.498 126.64 179.222 125.392 178.946 124.144C178.73 123.164 178.511 122.184 178.292 121.204C178.189 120.745 178.087 120.285 177.986 119.825C176.684 113.882 176.684 113.882 174.354 108.289C174.253 108.095 174.153 107.902 174.05 107.703C172.171 104.152 169.854 100.926 165.945 99.5087C164.696 99.1704 163.494 99.0112 162.204 98.9822C161.865 98.9737 161.865 98.9737 161.52 98.9651C161.054 98.9551 160.588 98.9498 160.121 98.9491C158.869 98.9092 158.343 98.8373 157.318 98.0495C156.739 97.2656 156.739 97.2656 156.574 96.2219C156.769 95.0341 157.016 94.8082 157.911 94.043C158.402 93.7642 158.904 93.5024 159.412 93.2556C163.542 91.0724 166.673 87.3066 168.165 82.9102ZM183.692 145.605C183.985 146.191 183.985 146.191 183.985 146.191L183.692 145.605Z" fill="black"/>
<path d="M153.809 77.9297C154.195 78.123 154.582 78.3164 154.98 78.5156C154.918 79.6151 154.703 79.9646 153.918 80.7678C152.277 82.0006 150.628 82.1578 148.644 81.8951C147.61 81.6616 146.967 81.284 146.191 80.5664C145.77 79.6509 145.77 79.6509 145.605 78.8086C145.702 78.6152 145.799 78.4219 145.898 78.2227C146.285 78.2227 146.672 78.2227 147.07 78.2227C147.315 78.5036 147.315 78.5036 147.565 78.7903C148.57 79.6865 149.558 79.7476 150.879 79.6875C152.049 79.3933 153.039 78.8804 153.809 77.9297Z" fill="black"/>
<path d="M157.032 70.3129C157.618 70.8989 157.618 70.8989 157.727 71.8876C157.618 72.9496 157.618 72.9496 157.123 73.6821C156.446 74.1215 156.446 74.1215 155.677 74.0849C154.981 73.8285 154.981 73.8285 154.395 73.2426C154.234 71.4694 154.234 71.4694 154.724 70.6242C155.523 70.1719 156.132 70.2172 157.032 70.3129Z" fill="black"/>
<path d="M143.556 70.2383C144.435 70.3115 144.435 70.3115 145.02 70.8975C145.109 71.5109 145.109 71.5109 145.112 72.2158C145.119 72.5648 145.119 72.5648 145.127 72.9208C145.092 73.1232 145.057 73.3256 145.02 73.5342C144.142 74.1201 144.142 74.1201 143.244 74.0835C142.384 73.8271 142.384 73.8271 141.963 73.3328C141.744 72.4328 141.858 71.7884 142.091 70.8975C142.677 70.3115 142.677 70.3115 143.556 70.2383Z" fill="black"/>
</svg>
