<svg width="300" height="300" viewBox="0 0 300 300" fill="none" xmlns="http://www.w3.org/2000/svg">
<path d="M153.077 34.1683C153.334 34.1685 153.59 34.1688 153.854 34.169C166.216 34.2097 175.996 38.0167 184.864 46.5828C185.159 46.8591 185.454 47.1353 185.749 47.4114C193.09 54.3924 196.94 63.7505 198.241 73.6781C198.347 74.4617 198.467 75.2425 198.588 76.0239C199.253 80.464 199.53 84.9092 199.078 89.3875C198.919 91.0942 198.846 92.7968 198.79 94.5095C198.767 95.1506 198.744 95.7916 198.721 96.4327C198.686 97.4271 198.652 98.4214 198.619 99.4158C198.587 100.387 198.551 101.357 198.516 102.328C198.507 102.62 198.498 102.912 198.489 103.213C198.421 105.005 198.214 106.727 197.891 108.491C197.688 109.664 197.598 110.84 197.498 112.025C197.245 114.702 196.896 117.813 195.411 120.118C195.023 120.318 194.632 120.513 194.239 120.704C193.714 121.265 193.714 121.265 193.214 121.949C189.063 127.294 184.576 131.523 178.949 135.289C178.6 135.523 178.253 135.761 177.908 136.001C176.724 136.817 176.724 136.817 176.075 136.817C177.286 139.367 178.661 141.77 180.132 144.175C185.908 153.626 191.387 163.257 196.306 173.183C197.085 174.75 197.892 176.302 198.707 177.851C198.828 178.081 198.949 178.312 199.073 178.549C199.617 179.579 200.17 180.597 200.763 181.599C201.32 182.61 201.451 183.144 201.27 184.278C200.615 185.106 200.439 185.151 199.33 185.285C193.244 185.05 185.895 182.259 181.49 178.086C179.502 175.794 178.12 173.021 176.654 170.38C173.605 164.892 170.366 159.067 166.114 154.395C165.921 154.395 165.727 154.395 165.528 154.395C160.638 160.274 156.793 167.982 154.589 175.309C154.493 175.626 154.493 175.626 154.396 175.949C154.277 176.35 154.162 176.752 154.051 177.155C153.79 178.049 153.546 178.677 152.939 179.391C152.264 180.283 152.076 180.936 151.843 182.024C151.764 182.38 151.684 182.736 151.602 183.103C151.521 183.479 151.44 183.855 151.356 184.242C150.66 187.308 149.914 190.222 148.536 193.067C148.302 193.554 148.302 193.554 148.063 194.05C144.665 200.714 139.345 205.313 133.302 209.473C126.703 214.018 120.224 218.689 118.472 227.034C117.767 232.673 119.221 237.821 122.663 242.341C126.205 246.553 130.524 248.617 135.938 249.317C141.081 249.743 147.137 249.402 151.429 246.223C154.014 243.751 154.644 240.136 154.78 236.72C154.726 234.584 154.076 232.574 153.435 230.552C151.347 223.909 151.913 217.804 155.055 211.579C156.079 209.769 157.311 208.292 158.79 206.837C159.065 206.563 159.065 206.563 159.345 206.283C162.129 203.681 165.624 202.047 169.031 200.427C172.829 198.589 177.929 195.468 179.517 191.328C179.95 189.868 180.097 188.357 180.229 186.845C180.364 185.479 180.634 184.114 181.642 183.106C182.628 183.106 183.384 183.155 184.178 183.784C186.665 186.525 187.137 189.775 186.965 193.356C186.706 196.411 185.412 199.317 184.225 202.108C182.777 205.557 182.758 208.669 182.87 212.355C182.983 216.36 182.462 219.883 180.598 223.499C180.453 223.781 180.453 223.781 180.305 224.068C179.057 226.429 177.565 228.647 176.075 230.86C176.328 230.765 176.58 230.669 176.841 230.571C181.518 228.896 186.081 228.391 191.029 228.517C195.652 228.626 199.972 228.37 204.522 227.496C205.685 227.289 206.852 227.149 208.024 227.008C211.046 226.641 213.571 226.097 216.266 224.632C216.486 224.513 216.706 224.393 216.934 224.27C217.37 224.03 217.804 223.786 218.234 223.535C219.564 222.789 220.505 222.482 222.071 222.657C222.785 223.06 222.785 223.06 223.243 223.829C223.749 226.736 222.434 229.045 220.833 231.368C219.676 232.846 218.293 234.124 216.889 235.365C216.24 236.101 215.885 236.73 215.443 237.598C214.331 239.708 212.835 241.422 211.231 243.165C211.082 243.327 210.933 243.49 210.779 243.658C206.164 248.617 200.746 251.843 194.239 253.712C193.786 253.842 193.786 253.842 193.324 253.975C184.499 256.249 173.606 256.099 165.528 251.661C165.139 251.464 164.748 251.268 164.356 251.075C164.19 251.263 164.023 251.45 163.852 251.644C163.145 252.435 162.434 253.221 161.72 254.005C161.555 254.186 161.391 254.366 161.222 254.553C154.569 261.541 144.068 265.957 134.474 266.309C119.331 266.539 106.284 260.92 95.4709 250.507C93.2798 248.363 91.2269 246.182 89.3564 243.751C89.1301 243.471 88.9039 243.191 88.6709 242.903C85.5687 239.007 82.9299 234.773 80.8314 230.256C80.6548 229.876 80.4757 229.498 80.2941 229.12C78.7878 225.987 77.8115 222.824 77.0517 219.434C76.9792 219.127 76.9067 218.82 76.8319 218.503C74.7568 207.868 78.3076 197.432 84.0646 188.581C84.4554 188.022 84.8527 187.466 85.2548 186.915C85.3819 186.739 85.5091 186.563 85.64 186.381C87.5938 183.685 89.6692 181.126 91.8589 178.619C92.5742 177.793 93.2726 176.953 93.9706 176.112C94.3309 175.678 94.3309 175.678 94.6985 175.235C94.8692 175.029 95.0399 174.823 95.2157 174.61C94.8634 174.674 94.511 174.737 94.148 174.802C91.0419 175.323 88.0033 175.577 84.852 175.581C84.5163 175.582 84.1806 175.584 83.8348 175.585C81.9368 175.569 80.1895 175.549 78.5165 174.555C78.0185 173.653 78.2871 172.95 78.5165 171.973C79.0039 171.32 79.446 170.798 80.018 170.234C80.3135 169.928 80.6087 169.622 80.9038 169.316C81.1194 169.096 81.1194 169.096 81.3395 168.872C81.8613 168.331 82.3506 167.766 82.8378 167.194C83.6218 166.289 84.4503 165.447 85.305 164.609C85.8045 164.1 86.266 163.577 86.7266 163.033C88.1268 161.424 89.6405 159.928 91.1496 158.422C91.463 158.109 91.7763 157.795 92.0896 157.482C92.7428 156.828 93.3966 156.175 94.0508 155.522C94.8834 154.691 95.7147 153.859 96.5456 153.026C97.1913 152.379 97.8377 151.733 98.4843 151.088C98.7908 150.781 99.0972 150.475 99.4033 150.168C100.911 148.657 102.429 147.177 104.05 145.787C104.994 144.96 105.877 144.074 106.765 143.188C106.961 142.994 107.156 142.799 107.358 142.599C107.767 142.191 108.175 141.783 108.583 141.375C109.206 140.753 109.831 140.133 110.456 139.514C110.855 139.115 111.255 138.716 111.654 138.318C111.839 138.134 112.025 137.951 112.215 137.762C113.242 136.731 114.082 135.715 114.845 134.473C114.637 134.495 114.429 134.516 114.215 134.538C104.683 135.368 94.5327 135.032 86.6464 128.962C86.1762 128.56 85.7125 128.151 85.2548 127.735C84.9935 127.501 84.7321 127.267 84.4629 127.026C79.9802 122.793 76.5558 116.89 76.3101 110.625C76.3051 109.889 76.3083 109.153 76.3192 108.418C76.323 108.032 76.3268 107.646 76.3306 107.248C76.3873 104.531 76.5882 102.143 77.6376 99.6102C77.7766 99.2646 77.9156 98.919 78.0588 98.563C79.2505 95.9132 80.8377 93.9765 82.911 91.993C83.1297 91.783 83.3484 91.573 83.5737 91.3567C86.4074 88.8839 90.0439 87.3312 93.4404 85.7843C97.4712 83.948 101.147 81.3236 102.833 77.0516C103.47 75.0289 103.499 73.1189 103.529 71.0091C103.778 61.7699 106.235 54.3003 112.501 47.4617C112.728 47.214 112.955 46.9662 113.189 46.711C114.669 45.1651 116.256 43.9124 118.067 42.7742C118.243 42.6602 118.418 42.5461 118.598 42.4286C119.914 41.6711 121.302 41.3865 122.773 41.0713C124.692 40.6593 126.289 40.0697 128.049 39.1949C131.638 37.4424 135.51 36.3629 139.399 35.5049C139.657 35.4479 139.915 35.3908 140.181 35.332C144.478 34.4376 148.702 34.1575 153.077 34.1683ZM145.951 73.6655C142.55 75.4144 139.097 76.9562 135.371 77.8755C135.032 77.9648 135.032 77.9648 134.686 78.0558C130.887 79.0271 126.425 79.5322 122.755 77.9305C122.553 77.1065 122.553 77.1065 122.462 76.1727C122.825 75.6783 122.825 75.6783 123.341 75.2938C124.201 75.2519 125.01 75.2556 125.868 75.2938C131.652 75.4093 137.136 73.9168 142.091 70.8992C141.144 70.5835 140.96 70.6227 140.04 70.8626C135.238 71.8776 130.212 71.7912 125.718 69.6598C124.965 69.3859 124.431 69.3612 123.634 69.4344C121.582 70.9892 120.704 74.3034 119.734 76.6121C117.783 81.2411 115.697 85.6046 112.476 89.4964C111.091 91.2414 110.935 92.786 111.144 94.9666C112.038 102.682 115.307 109.912 121.284 115.054C124.642 117.595 128.015 118.602 132.13 119.239C132.516 119.302 132.901 119.365 133.287 119.428C142.429 120.91 150.696 121.206 159.815 119.349C160.123 119.286 160.431 119.224 160.748 119.16C165.748 118.127 170.636 117.071 174.61 113.673C174.795 113.52 174.98 113.368 175.17 113.211C178.822 109.909 181.771 103.901 182.136 98.9876C182.118 98.072 182.083 97.7075 181.428 97.0547C180.732 96.6061 180.019 96.2061 179.298 95.8016C175.548 93.1093 174.315 89.3835 173.593 85.0041C173.498 84.4013 173.403 83.7985 173.309 83.1957C172.528 78.2178 171.394 73.7996 167.318 70.4506C160.531 65.7248 152.277 70.3958 145.951 73.6655ZM150.576 124.374C149.006 124.55 147.465 124.508 145.889 124.459C145.265 124.446 144.64 124.435 144.016 124.424C143.047 124.406 142.078 124.385 141.109 124.352C136.812 124.213 133.713 124.475 130.079 126.856C129.741 127.069 129.402 127.281 129.064 127.492C124.959 130.106 121.469 133.298 118.224 136.907C112.358 143.39 112.358 143.39 109.389 145.934C107.792 147.32 106.317 148.829 104.829 150.33C104.541 150.619 104.254 150.908 103.966 151.197C103.438 151.728 102.91 152.259 102.382 152.791C101.114 154.067 99.8394 155.337 98.5641 156.606C97.6897 157.476 96.8161 158.348 95.9426 159.219C95.4837 159.676 95.0246 160.133 94.5653 160.59C93.8971 161.255 93.23 161.92 92.563 162.586C92.3603 162.787 92.1576 162.988 91.9487 163.196C90.794 164.35 89.6936 165.535 88.6314 166.775C87.7734 167.756 86.8192 168.64 85.8808 169.543C85.3181 170.148 84.9828 170.631 84.6689 171.388C91.7593 171.658 95.5468 169.58 100.606 164.903C101.087 164.457 101.567 164.011 102.046 163.563C103.263 162.433 104.526 161.374 105.821 160.334C106.724 159.602 107.607 158.849 108.491 158.094C109.944 156.856 111.429 155.666 112.937 154.494C114.543 153.241 116.111 151.944 117.679 150.644C119.146 149.432 120.634 148.253 122.137 147.087C123.385 146.113 124.582 145.089 125.776 144.05C129.374 140.952 132.401 139.516 137.301 139.646C140.837 140.009 143.888 142.118 146.485 144.434C147.776 143.962 148.779 143.307 149.89 142.512C152.25 141.085 155.222 141.234 157.876 141.631C162.767 142.903 165.913 146.991 168.751 150.88C168.883 151.061 169.016 151.242 169.152 151.429C173.553 157.483 177.463 163.823 181.159 170.327C184.166 175.614 187.694 178.035 193.514 179.71C194.21 179.906 194.21 179.906 194.825 179.884C194.423 176.21 192.447 173.009 190.559 169.904C190.352 169.559 190.144 169.214 189.938 168.869C188.682 166.779 187.399 164.705 186.109 162.635C183.291 158.114 180.725 153.468 178.21 148.773C171.994 135.59 171.994 135.59 162.013 125.684C161.178 125.496 160.348 125.363 159.501 125.246C158.591 125.112 157.699 124.938 156.8 124.745C154.618 124.278 152.788 124.082 150.576 124.374ZM123.121 151.118C121.873 152.158 120.612 153.177 119.331 154.176C114.687 157.81 110.18 161.584 105.811 165.544C104.929 166.336 104.03 167.105 103.126 167.872C103.978 168.298 104.402 167.996 105.298 167.699C105.632 167.591 105.965 167.483 106.309 167.372C106.673 167.253 107.036 167.134 107.411 167.011C109.857 166.22 112.304 165.48 114.806 164.882C115.018 164.831 115.23 164.78 115.449 164.727C116.481 164.481 117.515 164.243 118.551 164.013C118.926 163.925 119.301 163.838 119.688 163.747C120.019 163.674 120.35 163.6 120.691 163.524C122.246 162.932 123.117 161.788 123.835 160.328C123.951 160.1 124.067 159.872 124.186 159.637C125.046 157.406 125.178 155.285 125.135 152.912C125.133 152.631 125.13 152.349 125.127 152.059C125.12 151.373 125.111 150.687 125.099 150.001C124.193 150.001 123.804 150.541 123.121 151.118ZM143.674 154.216C140.138 156.109 136.398 156.753 132.443 155.775C131.477 155.443 130.661 154.92 129.786 154.395C129.496 154.395 129.206 154.395 128.907 154.395C128.857 154.745 128.807 155.095 128.756 155.456C127.966 160.737 127.966 160.737 126.325 163.056C125.816 164.101 126.018 165.018 126.27 166.114C126.605 167.005 127.026 167.84 127.465 168.683C127.585 168.918 127.705 169.154 127.828 169.396C128.08 169.89 128.334 170.382 128.59 170.874C128.98 171.626 129.362 172.381 129.744 173.138C129.991 173.619 130.238 174.099 130.486 174.579C130.6 174.804 130.713 175.03 130.83 175.262C131.477 176.489 131.968 177.276 133.302 177.833C134.098 177.914 134.814 177.943 135.609 177.924C135.842 177.921 136.075 177.919 136.315 177.916C138.755 177.867 141.193 177.723 143.629 177.576C143.927 177.559 143.927 177.559 144.231 177.542C144.807 177.508 145.383 177.47 145.959 177.432C146.46 177.4 146.46 177.4 146.972 177.367C148.062 177.233 148.982 177.079 150.001 176.661C150.501 175.901 150.501 175.901 150.739 174.941C150.905 174.411 150.905 174.411 151.074 173.87C151.129 173.683 151.184 173.496 151.24 173.303C151.527 172.328 151.843 171.364 152.16 170.399C152.255 170.111 152.255 170.111 152.351 169.817C153.324 166.912 154.777 164.139 156.531 161.627C157.111 160.873 157.111 160.873 157.032 159.962C156.766 159.883 156.5 159.805 156.225 159.724C152.364 158.52 148.823 157.098 146.086 154.011C145.928 153.848 145.769 153.684 145.606 153.516C144.835 153.516 144.34 153.858 143.674 154.216ZM172.605 206.36C172.387 206.454 172.168 206.549 171.943 206.646C171.711 206.751 171.48 206.857 171.241 206.965C171.004 207.072 170.766 207.179 170.522 207.289C168.575 208.195 166.889 209.271 165.235 210.645C165.005 210.822 164.775 210.998 164.537 211.18C161.57 213.579 159.803 216.825 159.376 220.606C159.272 222.17 159.231 223.733 159.376 225.294C159.569 225.487 159.763 225.68 159.962 225.88C160.068 225.533 160.175 225.186 160.285 224.829C162.259 218.555 165.91 214.799 170.68 210.395C172.084 209.086 173.376 207.721 174.61 206.251C173.624 205.922 173.51 205.968 172.605 206.36ZM172.499 215.678C169.166 219.044 165.444 224.012 165.202 228.894C165.204 229.134 165.205 229.373 165.207 229.62C165.208 229.88 165.209 230.141 165.21 230.409C165.212 230.679 165.214 230.949 165.217 231.226C165.218 231.501 165.22 231.775 165.221 232.057C165.224 232.732 165.229 233.408 165.235 234.083C166.348 232.844 166.923 231.541 167.579 230.036C168.791 227.363 170.338 225.149 172.162 222.864C174.563 219.841 175.311 217.742 175.196 213.868C174.072 213.868 173.287 214.952 172.499 215.678ZM195.992 240.278C194.378 241.921 192.841 243.091 190.724 244.044C190.47 244.159 190.217 244.273 189.956 244.392C184.763 246.49 178.952 246.401 173.438 246.68C173.438 246.777 173.438 246.874 173.438 246.973C183.029 248.776 193.264 248.116 201.563 242.579C202.572 241.833 203.535 241.045 204.493 240.235C204.683 240.088 204.873 239.941 205.069 239.789C206.455 238.691 207.453 237.394 208.302 235.841C208.302 235.647 208.302 235.454 208.302 235.255C202.404 234.881 200.065 236.076 195.992 240.278ZM189.131 237.888C185.554 238.741 182.039 239.312 178.374 239.627C176.17 239.826 174.103 240.221 171.974 240.821C172.07 241.014 172.167 241.208 172.267 241.407C178.007 242.786 184.948 241.877 190.138 239.063C190.728 238.605 191.133 238.185 191.602 237.598C190.652 237.598 190.028 237.665 189.131 237.888Z" fill="black"/>
<path d="M133.874 87.3491C135.693 88.9973 136.485 90.7638 136.78 93.189C136.884 95.618 136.066 97.4907 134.473 99.3173C132.903 100.73 130.999 101.304 128.907 101.368C126.618 101.019 124.782 100.051 123.267 98.2919C122.093 96.6335 121.793 94.7345 121.922 92.729C122.38 90.1549 123.865 88.2034 125.977 86.7197C128.584 85.2944 131.525 85.594 133.874 87.3491Z" fill="black"/>
<path d="M168.473 86.9823C170.263 87.9926 171.634 89.2943 172.375 91.2338C172.909 93.4408 172.873 95.7905 171.816 97.8302C170.794 99.2736 169.481 100.39 167.926 101.22C164.837 101.704 162.675 101.32 160.034 99.7001C158.516 98.1399 157.693 96.3812 157.578 94.2024C157.688 92.0884 158.417 89.9652 159.961 88.4757C162.605 86.6056 165.342 85.6197 168.473 86.9823Z" fill="black"/>
<path d="M142.069 106.973C142.384 107.069 142.384 107.069 142.704 107.167C144.129 107.541 145.438 107.609 146.906 107.592C147.269 107.592 147.269 107.592 147.641 107.591C149.189 107.572 150.617 107.43 152.106 106.976C152.637 106.933 152.637 106.933 153.148 107.314C153.516 107.812 153.516 107.812 153.534 108.508C153.016 109.788 152.098 110.41 150.917 111.029C148.467 112.015 145.334 112.126 142.896 111.09C142.1 110.687 141.497 110.25 140.918 109.57C140.662 108.691 140.662 108.691 140.625 107.812C141.077 107.177 141.271 106.917 142.069 106.973Z" fill="black"/>
</svg>
