<svg width="300" height="300" viewBox="0 0 300 300" fill="none" xmlns="http://www.w3.org/2000/svg">
<path d="M103.564 69.0235C102.421 69.6388 98.2609 73.711 96.1222 76.3184C89.2081 84.7267 84.6671 94.5997 82.587 105.586C81.6788 110.332 81.4738 119.707 82.1769 124.57C83.1144 131.338 85.1066 137.754 88.1827 143.848C91.3175 150.147 96.7081 157.441 99.1105 158.701C100.751 159.551 102.48 158.76 103.124 156.856C103.564 155.596 103.241 154.922 100.634 151.904C88.2999 137.52 84.4327 117.246 90.5558 98.877C93.339 90.4981 98.173 82.588 104.15 76.6114C105.614 75.1466 107.021 73.6524 107.284 73.2423C108.398 71.6602 107.694 69.5216 105.849 68.8184C104.911 68.4669 104.618 68.4962 103.564 69.0235Z" fill="black"/>
<path d="M194.062 68.8477C193.008 69.2578 192.188 70.5762 192.188 71.8359C192.188 72.8906 192.422 73.2422 196.084 76.9922C201.299 82.3828 204.258 86.5723 206.953 92.3438C210.352 99.6387 211.963 106.289 212.314 114.404C212.695 123.838 210.791 132.686 206.631 140.947C204.375 145.4 202.646 148.096 200.186 150.967C196.846 154.893 196.582 155.273 196.582 156.299C196.582 157.705 198.018 159.082 199.453 159.082C200.977 159.082 202.148 158.262 204.258 155.713C209.912 148.828 214.365 140.098 216.65 131.338C218.936 122.52 218.994 112.119 216.768 102.539C214.189 91.2891 208.564 80.9766 200.391 72.5391C197.812 69.873 195.996 68.5254 195.059 68.584C194.854 68.584 194.385 68.7012 194.062 68.8477Z" fill="black"/>
<path d="M113.086 83.7588C111.152 84.8135 106.728 90.878 104.297 95.917C98.1736 108.456 98.0271 122.665 103.857 134.97C105.498 138.427 108.427 142.939 109.892 144.257C111.885 146.073 113.994 145.546 114.844 143.056C115.254 141.884 114.814 140.858 112.705 138.222C105.967 129.667 103.769 115.78 107.402 104.267C108.926 99.3741 111.885 94.1299 115.312 90.2334C117.451 87.8018 117.92 86.7471 117.451 85.3409C117.099 84.2569 115.722 83.2022 114.697 83.2022C114.375 83.2315 113.642 83.4659 113.086 83.7588Z" fill="black"/>
<path d="M184.072 83.7892C183.457 84.1408 183.047 84.6974 182.841 85.4298C182.431 86.8947 183.076 88.2423 185.478 90.9669C192.451 98.965 195.732 110.713 194.091 121.729C193.213 127.559 190.459 134.443 187.441 138.34C185.332 141.035 184.863 141.856 184.863 142.705C184.863 144.522 187.441 146.074 189.228 145.342C190.898 144.639 194.853 138.75 196.963 133.799C199.453 128.057 200.507 122.725 200.507 116.016C200.507 110.625 199.922 106.787 198.31 101.865C195.644 93.6036 188.554 83.2033 185.595 83.2033C185.273 83.2033 184.599 83.4669 184.072 83.7892Z" fill="black"/>
<path d="M126.356 94.3354C123.866 95.8295 119.881 102.802 118.504 107.988C116.395 115.956 117.86 125.068 122.371 131.865C123.69 133.857 125.741 134.267 127.264 132.861C128.67 131.572 128.553 130.605 126.473 126.562C124.071 121.845 123.485 119.238 123.719 114.492C123.983 109.13 125.477 105.029 128.524 101.279C129.315 100.341 130.223 99.1693 130.604 98.6713C132.684 95.8002 129.403 92.4604 126.356 94.3354Z" fill="black"/>
<path d="M170.624 94.1897C169.189 94.9222 168.603 96.7972 169.364 98.2327C169.57 98.555 170.419 99.6976 171.269 100.752C177.538 108.34 178.271 118.535 173.232 127.383C172.528 128.614 171.855 129.991 171.767 130.401C171.415 132.129 173.671 134.18 175.429 133.741C177.099 133.33 179.56 129.61 181.054 125.215C183.163 119.121 183.134 111.885 180.995 105.616C179.706 101.895 177.099 97.5296 174.814 95.2737C173.32 93.8089 172.03 93.4866 170.624 94.1897Z" fill="black"/>
<path d="M145.722 100.722C142.118 101.982 139.247 104.414 137.46 107.724C134.354 113.554 135.351 120.175 140.009 124.804C142.938 127.734 146.015 128.994 150.145 128.964C153.075 128.964 155.741 128.144 158.085 126.591C160.253 125.156 161.103 124.248 162.45 122.021C163.856 119.677 164.413 117.656 164.413 114.843C164.413 108.281 160.399 102.626 154.423 100.781C151.991 100.019 147.831 99.9897 145.722 100.722Z" fill="black"/>
<path d="M144.727 134.326C135 135.996 126.65 142.881 123.34 151.963C122.08 155.478 121.553 158.847 121.553 163.681V167.871H114.814C107.285 167.871 106.494 168.017 105.469 169.687C104.883 170.654 104.883 171.093 104.883 200.888V231.093L105.645 232.002C106.055 232.5 106.875 233.027 107.461 233.203C108.164 233.379 122.695 233.496 150.234 233.496C194.971 233.496 193.037 233.554 194.385 232.031C194.971 231.386 194.971 230.918 195.059 201.006C195.117 170.976 195.117 170.654 194.531 169.687C193.506 168.047 192.686 167.871 185.303 167.871H178.711V165.879C178.711 154.599 175.078 145.752 168.164 140.127C165.908 138.281 161.367 135.908 158.584 135.088C154.453 133.886 149.063 133.593 144.727 134.326ZM157.178 141.299C161.279 142.646 165.029 145.312 167.49 148.652C170.625 152.871 171.943 157.119 172.178 163.681L172.354 167.871H150.176H128.027V163.916C128.027 159.492 128.525 156.445 129.697 153.691C132.363 147.304 138.34 142.265 144.902 140.8C148.096 140.068 154.16 140.332 157.178 141.299ZM188.672 200.683V227.05H150H111.328V200.683V174.316H150H188.672V200.683Z" fill="black"/>
<path d="M148.096 185.712C145.576 186.327 143.174 188.407 142.031 190.868C141.533 191.981 141.357 192.889 141.357 194.53C141.357 196.434 141.475 196.932 142.207 198.28C142.705 199.159 143.584 200.243 144.17 200.712L145.254 201.561L145.371 206.659C145.459 211.288 145.518 211.844 146.074 212.577C147.188 214.1 148.154 214.598 149.883 214.569C151.67 214.569 152.637 214.012 153.75 212.401C154.365 211.493 154.395 211.141 154.395 206.512V201.591L155.391 200.829C157.441 199.276 158.584 196.757 158.525 193.915C158.496 191.483 157.617 189.579 155.654 187.792C153.428 185.77 150.85 185.067 148.096 185.712Z" fill="black"/>
</svg>
