<svg width="300" height="300" viewBox="0 0 300 300" fill="none" xmlns="http://www.w3.org/2000/svg">
<path d="M199.511 90.527C200.15 93.0586 200.15 93.0586 199.988 94.2807C198.831 95.8371 196.873 96.5702 195.117 97.2653C195.395 97.3983 195.673 97.5312 195.959 97.6681C196.875 98.1442 196.875 98.1442 197.461 98.7302C197.531 99.8967 197.427 100.464 196.682 101.375C195.151 102.82 192.634 104.883 190.429 104.883C190.525 105.078 190.62 105.274 190.719 105.475C191.084 106.549 191.083 107.449 191.07 108.581C191.068 108.966 191.066 109.35 191.065 109.746C191.015 110.742 191.015 110.742 190.722 111.621C195.079 112.058 195.079 112.058 198.931 110.488C199.708 109.639 200.35 108.709 200.955 107.731C201.359 107.082 201.829 106.5 202.313 105.908C202.649 105.469 202.984 105.029 203.32 104.59C205.162 102.222 207.03 99.8782 208.928 97.5551C210.147 96.0606 211.342 94.5494 212.519 93.0218C214.35 90.6631 214.35 90.6631 215.355 90.3176C217.467 90.101 218.911 90.4713 220.587 91.7905C221.308 92.7301 221.507 93.1491 221.484 94.3356C220.56 97.7098 217.851 100.628 215.596 103.214C214.447 104.549 213.526 105.965 212.695 107.519C214.458 106.193 216.018 104.834 217.444 103.148C218.932 101.42 218.932 101.42 219.793 101.201C221.803 101.204 223.35 101.661 225 102.832C226.448 104.418 226.301 106.073 226.299 108.159C226.152 109.453 225.793 110.422 225.293 111.621C225.492 111.616 225.69 111.612 225.895 111.607C236.568 111.393 236.568 111.393 240.836 114.728C243.733 117.544 244.281 123.263 245.228 127.055C245.667 128.81 246.11 130.563 246.555 132.316C246.603 132.509 246.652 132.702 246.703 132.9C248.398 139.588 250.159 146.258 251.91 152.931C254.672 163.461 257.382 174.005 260.026 184.565C260.278 185.572 260.531 186.578 260.785 187.585C260.987 188.386 261.187 189.186 261.388 189.987C261.525 190.535 261.663 191.083 261.801 191.63C262.603 194.844 263.281 197.673 262.793 200.976C262.765 201.18 262.737 201.384 262.709 201.595C262.614 202.287 262.512 202.977 262.408 203.668C262.362 203.997 262.362 203.997 262.315 204.332C261.896 206.929 260.804 209.037 258.691 210.644C255.544 212.494 252.235 212.784 248.653 212.77C248.129 212.772 248.129 212.772 247.594 212.773C246.629 212.776 245.665 212.775 244.7 212.774C243.649 212.773 242.597 212.775 241.546 212.777C239.705 212.78 237.863 212.781 236.022 212.781C233.284 212.78 230.546 212.782 227.809 212.785C222.634 212.791 217.459 212.793 212.285 212.793C208.289 212.793 204.293 212.794 200.297 212.796C199.147 212.797 197.996 212.797 196.846 212.798C196.56 212.798 196.274 212.798 195.979 212.798C187.935 212.802 179.891 212.804 171.847 212.804C171.544 212.804 171.241 212.804 170.928 212.804C169.392 212.804 167.855 212.804 166.318 212.804C166.013 212.804 165.708 212.804 165.393 212.804C164.776 212.804 164.159 212.804 163.542 212.804C153.938 212.803 144.333 212.808 134.729 212.816C123.937 212.825 113.145 212.83 102.354 212.829C101.203 212.829 100.052 212.829 98.9015 212.829C98.6181 212.829 98.3348 212.829 98.0429 212.829C93.4839 212.829 88.925 212.833 84.366 212.838C79.7845 212.843 75.203 212.843 70.6216 212.839C67.9002 212.837 65.1789 212.838 62.4575 212.844C60.6388 212.848 58.8201 212.847 57.0014 212.843C55.9658 212.84 54.9303 212.84 53.8946 212.845C52.7769 212.849 51.6594 212.846 50.5417 212.841C50.0639 212.845 50.0639 212.845 49.5764 212.85C45.8722 212.816 42.5566 211.75 39.8435 209.179C38.2049 207.225 37.7549 205.222 37.4997 202.734C37.4574 202.464 37.4151 202.193 37.3715 201.915C37.1421 200.184 37.2478 198.582 37.5421 196.868C37.581 196.639 37.62 196.41 37.6602 196.174C38.1825 193.245 38.945 190.377 39.697 187.5C39.8635 186.856 40.0297 186.212 40.1958 185.567C40.5613 184.151 40.928 182.734 41.2954 181.318C41.9312 178.865 42.5595 176.411 43.1874 173.957C46.2757 161.889 49.3951 149.83 52.5459 137.778C52.9129 136.374 53.2792 134.97 53.6452 133.566C54.1194 131.747 54.5954 129.928 55.0726 128.11C55.2436 127.457 55.4141 126.805 55.5841 126.152C58.3321 115.608 58.3321 115.608 60.4383 114.054C60.6754 113.916 60.9126 113.777 61.1569 113.635C61.3911 113.495 61.6252 113.355 61.8665 113.212C65.3388 111.456 69.0659 111.29 72.8894 111.289C73.1289 111.288 73.3685 111.288 73.6152 111.287C74.5966 111.286 75.5775 111.287 76.5587 111.305C79.3271 111.483 79.3271 111.483 81.7772 110.53C82.1739 109.928 82.1739 109.928 82.3915 109.29C82.8023 108.199 83.7069 107.546 84.6677 106.933C86.519 106.119 88.4069 105.722 90.4266 105.733C90.7524 105.734 91.0781 105.735 91.4136 105.736C91.7631 105.738 92.1125 105.741 92.4726 105.743C93.0161 105.745 93.0161 105.745 93.5705 105.746C94.7289 105.75 95.8873 105.755 97.0456 105.761C98.5669 105.769 100.088 105.775 101.61 105.78C101.957 105.782 102.304 105.785 102.661 105.787C104.504 105.793 106.278 105.711 108.105 105.468C109.69 105.335 111.208 105.238 112.597 106.152C114.09 107.645 115.021 109.578 115.429 111.621C116.59 111.621 117.75 111.621 118.945 111.621C118.903 111.201 118.903 111.201 118.86 110.773C118.477 106.307 119.105 102.677 122.058 99.0964C125.805 95.1862 131.047 93.5226 136.368 93.3686C137.054 93.3631 137.741 93.3621 138.427 93.3652C138.797 93.3658 139.166 93.3663 139.547 93.367C142.391 93.3966 145.169 93.6522 147.989 94.0003C153.012 94.614 158.051 94.6535 163.105 94.6796C163.577 94.6822 164.048 94.6855 164.52 94.6898C168.523 94.7216 172.31 94.4225 176.147 93.1821C176.625 93.0329 177.102 92.8838 177.58 92.7346C177.812 92.6611 178.044 92.5876 178.283 92.5119C179.048 92.2709 179.814 92.0349 180.582 91.8019C180.933 91.6952 180.933 91.6952 181.291 91.5863C183.731 90.9011 186.162 90.922 188.602 91.5421C188.926 91.6197 188.926 91.6197 189.258 91.6989C189.508 91.7718 189.758 91.8447 190.015 91.9198C191.779 92.0469 193.404 91.366 195.075 90.8475C196.696 90.3689 197.858 90.1223 199.511 90.527ZM215.649 92.833C215.429 93.0811 215.21 93.3293 214.984 93.5849C214.66 93.9469 214.66 93.9469 214.33 94.3162C213.35 95.4586 212.441 96.6583 211.523 97.8513C209.06 101.039 206.568 104.197 204.018 107.315C203.474 107.983 202.939 108.657 202.405 109.332C198.787 113.846 195.029 117.999 190.377 121.471C189.824 121.889 189.281 122.32 188.739 122.752C185.055 125.659 181.077 127.702 176.77 129.528C174.791 130.371 173.066 131.304 171.679 133.008C171.187 134.486 171.093 135.811 171.697 137.275C173.774 140.962 177.339 142.972 181.329 144.104C187.298 145.598 193.928 145.178 199.367 142.237C201.285 141.08 202.56 139.764 203.393 137.64C203.891 135.11 203.568 132.752 203.027 130.261C201.447 122.239 203.229 116.148 207.715 109.383C208.561 108.151 209.446 106.95 210.351 105.761C210.486 105.585 210.62 105.408 210.759 105.226C211.994 103.61 213.27 102.028 214.56 100.456C217.69 97.1619 217.69 97.1619 219.14 93.1638C218.762 93.0161 218.384 92.8699 218.005 92.7243C217.689 92.6019 217.689 92.6019 217.367 92.4771C216.486 92.1801 216.335 92.1634 215.649 92.833ZM193.707 93.6032C193.361 93.708 193.361 93.708 193.007 93.8149C192.44 93.9867 191.874 94.1609 191.308 94.3356C191.405 94.6257 191.502 94.9157 191.601 95.2145C193.604 95.0853 195.39 94.7242 197.168 93.7497C197.361 93.4597 197.554 93.1696 197.754 92.8708C196.307 92.7548 195.071 93.1803 193.707 93.6032ZM179.297 94.9216C174.134 96.5553 169.294 97.1176 163.897 97.0639C163.316 97.061 162.734 97.0581 162.152 97.0552C156.492 97.0137 150.793 96.8631 145.184 96.0568C138.841 95.1797 131.081 95.1612 125.72 99.133C123.161 101.275 121.339 103.833 120.996 107.226C120.929 110.199 121.517 112.542 123.486 114.807C123.728 115.012 123.969 115.218 124.218 115.429C124.436 115.629 124.654 115.828 124.878 116.034C129.123 119.024 134.27 118.49 139.194 118.25C142.958 118.07 146.712 118.034 150.479 118.053C151.526 118.058 152.572 118.061 153.619 118.064C156.588 118.071 159.558 118.081 162.528 118.094C164.359 118.102 166.191 118.107 168.023 118.11C168.714 118.112 169.404 118.115 170.095 118.119C178.583 118.383 178.583 118.383 186.129 115.044C187.947 113.221 188.924 110.761 188.983 108.189C188.841 106.222 188.235 104.619 186.914 103.125C186.72 103.125 186.527 103.125 186.328 103.125C186.328 102.931 186.328 102.738 186.328 102.539C186.509 102.546 186.69 102.552 186.876 102.559C189.8 102.622 192.301 102.267 194.531 100.195C194.531 99.905 194.531 99.6149 194.531 99.3161C194.213 99.1665 194.213 99.1665 193.888 99.014C191.903 98.0188 190.73 97.0816 189.55 95.2145C188.889 94.2184 188.889 94.2184 187.793 93.7497C184.713 93.5297 182.22 93.8745 179.297 94.9216ZM218.556 105.57C217.133 107.453 215.429 108.812 213.482 110.119C209.001 113.223 205.956 116.232 204.876 121.728C204.846 122.067 204.816 122.405 204.785 122.754C204.757 123.057 204.757 123.057 204.728 123.366C204.437 129.187 207.567 135.158 211.23 139.453C212.296 140.359 213.362 141.007 214.782 141.064C215.905 140.993 215.905 140.993 216.716 140.459C217.909 139.936 218.839 140.052 220.092 140.204C223.283 140.472 225.136 139.531 227.728 137.75C227.9 137.632 228.072 137.514 228.249 137.393C229.731 136.319 230.856 135.069 231.445 133.3C231.635 131.443 231.196 129.92 230.273 128.32C229.284 127.217 228.153 126.224 226.758 125.683C226.322 125.828 226.322 125.828 225.879 125.976C226.031 126.055 226.183 126.133 226.34 126.214C228.142 127.227 229.237 128.37 229.871 130.364C230.171 131.947 229.815 133.338 229.101 134.765C227.881 136.262 225.923 136.431 224.121 136.816C223.892 136.877 223.662 136.938 223.426 137C221.537 137.469 219.681 137.445 217.747 137.406C216.685 137.387 215.768 137.425 214.746 137.695C213.365 137.825 212.313 137.73 211.123 136.964C208.861 134.88 208.338 131.114 208.217 128.211C208.205 127.643 208.196 127.075 208.191 126.507C208.187 126.239 208.182 125.972 208.178 125.696C208.191 123.85 208.43 122.113 209.179 120.41C209.469 120.265 209.469 120.265 209.765 120.117C210.064 120.425 210.064 120.425 210.37 120.739C210.655 121.021 210.942 121.302 211.23 121.582C211.379 121.729 211.528 121.877 211.681 122.029C214.416 124.576 217.61 124.862 221.191 124.804C221.191 124.708 221.191 124.611 221.191 124.511C220.698 124.442 220.698 124.442 220.194 124.371C214.815 123.556 214.815 123.556 213.168 121.713C212.175 120.31 211.858 118.877 212.109 117.187C213.341 113.791 216.503 111.631 219.258 109.51C220.819 108.306 222.322 107.033 223.828 105.761C223.74 105.19 223.74 105.19 223.535 104.59C222.677 104.031 221.906 103.744 220.916 103.491C219.655 103.8 219.269 104.524 218.556 105.57ZM107.423 107.961C105.686 108.18 103.948 108.13 102.201 108.113C101.446 108.109 100.692 108.106 99.937 108.102C98.7554 108.095 97.5738 108.087 96.3922 108.077C95.2463 108.068 94.1003 108.063 92.9544 108.058C92.6036 108.054 92.2529 108.05 91.8916 108.046C89.2329 108.038 86.7864 108.089 84.6677 109.863C82.713 112.452 82.9971 115.418 83.3276 118.508C83.3868 118.929 83.4489 119.349 83.5141 119.769C83.5511 120.066 83.5511 120.066 83.5888 120.368C83.683 121.009 83.683 121.009 84.0818 121.875C85.7447 122.788 87.4153 123.004 89.2797 123.237C89.5823 123.277 89.885 123.317 90.1969 123.359C90.8411 123.444 91.4856 123.529 92.1301 123.613C98.7128 124.469 105.285 125.325 111.653 127.265C112.541 127.45 113.099 127.395 113.965 127.148C114.681 121.319 115.488 113.369 111.621 108.398C110.283 107.506 108.957 107.727 107.423 107.961ZM222.949 109.863C217.917 113.219 217.917 113.219 214.16 117.773C214.086 118.567 214.086 118.567 214.16 119.238C214.353 119.238 214.547 119.238 214.746 119.238C214.746 119.045 214.746 118.851 214.746 118.652C214.939 118.652 215.133 118.652 215.332 118.652C215.838 118.175 216.318 117.69 216.797 117.187C217.834 116.122 218.878 115.101 220.019 114.148C221.288 113.06 222.263 111.797 223.242 110.449C223.145 110.256 223.049 110.062 222.949 109.863ZM61.2302 116.308C59.9025 118.392 59.451 121.009 58.8395 123.374C58.7254 123.809 58.6111 124.243 58.4966 124.678C58.1924 125.835 57.891 126.993 57.5902 128.151C57.3392 129.116 57.0865 130.08 56.8338 131.045C55.2136 137.227 53.6151 143.416 52.0406 149.611C51.2483 152.728 50.4425 155.841 49.6348 158.954C49.3838 159.922 49.1332 160.89 48.8827 161.858C47.9987 165.27 47.1099 168.681 46.2132 172.089C45.67 174.154 45.1285 176.219 44.5878 178.285C44.1869 179.816 43.7838 181.346 43.3792 182.876C43.126 183.835 42.8749 184.795 42.6243 185.755C42.5066 186.204 42.3881 186.653 42.2686 187.102C42.1038 187.722 41.9421 188.342 41.7811 188.963C41.6435 189.485 41.6435 189.485 41.5032 190.019C41.2213 191.46 41.1137 192.624 41.7111 193.982C43.1764 195.586 45.0386 196.315 47.1677 196.582C48.3036 196.624 49.4387 196.622 50.5753 196.62C51.0959 196.621 51.0959 196.621 51.627 196.622C52.5921 196.623 53.5573 196.623 54.5224 196.623C55.5718 196.623 56.6212 196.624 57.6705 196.625C59.7527 196.628 61.8348 196.628 63.917 196.629C66.4106 196.629 68.9043 196.631 71.398 196.633C77.4254 196.637 83.4528 196.639 89.4802 196.641C92.3316 196.641 95.183 196.642 98.0344 196.643C107.795 196.647 117.556 196.65 127.316 196.651C127.929 196.651 128.542 196.651 129.154 196.652C129.769 196.652 130.383 196.652 130.997 196.652C132.229 196.652 133.462 196.652 134.694 196.652C135.152 196.652 135.152 196.652 135.62 196.652C145.526 196.653 155.432 196.658 165.338 196.665C175.812 196.672 186.285 196.676 196.759 196.676C197.908 196.676 199.058 196.676 200.208 196.677C200.633 196.677 200.633 196.677 201.066 196.677C205.622 196.677 210.177 196.68 214.732 196.684C219.312 196.689 223.891 196.69 228.47 196.687C231.19 196.686 233.91 196.687 236.63 196.692C238.449 196.695 240.267 196.694 242.085 196.691C243.12 196.69 244.155 196.689 245.19 196.693C252.372 197.065 252.372 197.065 258.691 194.238C259.688 192.59 259.097 190.831 258.677 189.051C258.548 188.544 258.417 188.038 258.285 187.533C258.175 187.106 258.175 187.106 258.064 186.67C257.817 185.707 257.567 184.745 257.318 183.783C257.137 183.081 256.957 182.379 256.777 181.678C256.479 180.52 256.182 179.363 255.884 178.206C255.104 175.183 254.331 172.159 253.56 169.134C250.276 156.251 250.276 156.251 246.944 143.38C246.885 143.155 246.826 142.929 246.765 142.697C246.201 140.534 245.635 138.372 245.067 136.21C244.122 132.611 243.178 129.013 242.303 125.396C242.21 125.012 242.21 125.012 242.115 124.62C241.845 123.51 241.58 122.398 241.324 121.284C240.563 118.006 240.563 118.006 238.402 115.551C233.902 114.013 228.226 113.123 223.535 114.258C221.175 115.556 219.518 117.666 217.968 119.824C217.814 120.035 217.66 120.246 217.502 120.463C217.165 120.931 216.833 121.402 216.504 121.875C218.882 122.758 221.222 123.105 223.732 123.423C226.534 123.824 229.007 124.693 230.976 126.806C232.299 128.597 233.401 130.783 233.653 133.011C233.691 133.344 233.691 133.344 233.73 133.683C233.768 134.029 233.768 134.029 233.807 134.381C233.834 134.614 233.86 134.848 233.888 135.089C233.953 135.664 234.018 136.24 234.082 136.816C236.055 136.885 237.855 136.751 239.79 136.362C241.084 136.131 242.196 136.103 243.457 136.523C244.389 138.208 244.163 140.197 244.167 142.068C244.171 142.724 244.185 143.378 244.2 144.033C244.225 146.295 244.057 148.003 242.885 149.999C242.509 150.611 242.509 150.611 242.56 151.502C242.97 152.612 243.473 153.633 244.043 154.669C244.16 154.886 244.277 155.103 244.397 155.327C245.187 156.779 246.021 158.201 246.881 159.613C249.475 163.877 250.595 167.299 250.58 172.29C250.58 172.977 250.586 173.664 250.594 174.351C250.616 179.438 249.173 182.897 245.6 186.574C241.663 190.433 237.082 193.609 231.396 193.657C214.748 193.47 214.748 193.47 209.501 189.085C207.376 186.877 207.26 183.833 207.275 180.926C207.275 180.596 207.275 180.265 207.276 179.924C207.329 176.904 207.977 174.246 208.886 171.386C208.886 171.193 208.886 171 208.886 170.8C208.182 170.342 207.45 169.952 206.712 169.55C205.844 168.967 205.341 168.464 204.785 167.578C204.299 164.682 204.869 161.935 206.453 159.486C209.401 155.565 213.714 152.838 218.515 151.883C220.701 151.605 222.623 151.958 224.748 152.434C227.33 152.896 229.684 152.626 231.903 151.153C232.787 150.087 232.781 149.577 232.698 148.236C232.658 147.804 232.658 147.804 232.617 147.363C232.593 146.999 232.569 146.636 232.545 146.261C232.479 145.26 232.405 144.261 232.324 143.261C232.144 143.488 231.964 143.715 231.779 143.948C230.125 146 228.186 147.614 225.586 148.242C224.443 148.268 223.304 148.212 222.162 148.169C219.724 148.113 218.063 148.182 216.007 149.604C214.763 150.333 213.494 150.244 212.109 150C210.372 149.467 209.312 148.557 208.3 147.07C207.535 145.286 207.596 143.486 207.549 141.579C207.503 140.263 207.452 139.184 206.836 137.988C206.739 137.988 206.642 137.988 206.543 137.988C206.531 138.157 206.519 138.327 206.507 138.502C206.045 144.927 206.045 144.927 204.785 147.363C204.637 147.652 204.637 147.652 204.486 147.948C202.312 151.521 196.86 152.536 193.084 153.479C186.513 154.746 179.1 153.22 173.47 149.577C171.038 147.783 169.783 145.896 169.262 142.914C169.004 140.976 168.985 139.061 169.043 137.109C168.306 137.77 167.931 138.391 167.523 139.288C166.769 140.855 165.835 142.255 164.845 143.681C164.318 144.421 164.318 144.421 164.062 145.312C163.833 145.167 163.603 145.022 163.366 144.873C162.66 144.385 162.66 144.385 162.011 144.433C161.383 143.176 161.194 142.004 161.426 140.625C161.669 139.979 161.927 139.338 162.195 138.702C162.861 137.163 162.861 137.163 162.689 135.553C162.562 135.293 162.435 135.033 162.304 134.765C161.298 134.886 160.371 135.017 159.411 135.351C157.06 136.104 155.013 135.875 152.591 135.507C151.551 135.363 150.535 135.291 149.487 135.241C146.669 135.034 144.575 134.155 142.421 132.341C141.659 131.724 140.849 131.255 139.987 130.791C138.266 129.438 137.975 127.605 137.622 125.573C137.571 125.302 137.521 125.03 137.468 124.751C137.345 124.086 137.225 123.42 137.109 122.754C138.019 122.226 138.699 122.09 139.746 122.067C140.028 122.059 140.311 122.05 140.602 122.042C140.9 122.035 141.197 122.028 141.504 122.021C143.897 121.945 146.191 121.808 148.535 121.289C148.535 121.192 148.535 121.095 148.535 120.996C148.339 120.998 148.143 121 147.942 121.002C145.883 121.021 143.825 121.034 141.767 121.044C141.001 121.048 140.235 121.054 139.47 121.062C126.944 121.184 126.944 121.184 122.754 117.773C121.608 116.619 120.775 115.464 120.117 113.965C118.86 113.965 117.603 113.965 116.308 113.965C116.329 114.228 116.351 114.492 116.372 114.763C116.621 118.21 116.632 121.643 116.601 125.097C117.486 124.422 118.239 123.8 118.872 122.882C118.991 122.712 119.11 122.543 119.233 122.368C119.58 121.834 119.58 121.834 119.824 120.996C132.64 123.311 132.64 123.311 135.644 125.39C136.219 126.253 136.317 126.534 136.418 127.513C136.901 131.632 137.786 134.635 140.645 137.771C142.396 140.259 142.553 142.703 142.566 145.678C142.592 148.212 142.738 150.637 143.128 153.141C143.32 154.521 143.358 155.878 143.353 157.269C143.358 157.522 143.362 157.775 143.367 158.035C143.369 160.559 142.831 162.677 141.073 164.538C139.97 165.529 138.941 165.586 137.495 165.575C136.247 165.487 135.058 165.161 133.85 164.85C133.305 164.714 132.76 164.579 132.214 164.444C131.95 164.379 131.686 164.313 131.414 164.245C130.405 163.999 129.392 163.781 128.375 163.568C124.334 162.712 124.334 162.712 123.633 162.011C123.222 160.909 123.29 159.736 123.278 158.575C123.27 158.123 123.261 157.672 123.253 157.22C123.241 156.514 123.23 155.808 123.222 155.101C123.27 150.886 123.27 150.886 121.557 147.156C121.335 146.952 121.114 146.749 120.886 146.539C120.556 146.228 120.556 146.228 120.22 145.911C119.537 145.303 119.537 145.303 118.799 144.763C116.171 142.529 114.689 139.303 114.258 135.937C114.034 135.961 113.81 135.986 113.58 136.01C112.579 135.943 112.058 135.788 111.152 135.418C108.823 134.551 106.417 134.107 103.985 133.63C103.735 133.58 103.485 133.53 103.227 133.478C98.573 132.551 93.8962 131.847 89.1892 131.247C88.813 131.197 88.813 131.197 88.4292 131.147C87.963 131.086 87.4965 131.027 87.0295 130.971C85.6933 130.795 84.6092 130.56 83.4958 129.785C82.7114 128.387 82.4262 126.976 82.2209 125.404C82.1904 125.187 82.1598 124.97 82.1283 124.746C82.0321 124.058 81.94 123.369 81.8479 122.68C81.784 122.223 81.7199 121.766 81.6556 121.308C81.3549 119.145 81.0808 116.988 80.9273 114.808C80.916 114.254 80.916 114.254 80.5661 113.965C79.7333 113.927 78.908 113.909 78.0747 113.905C77.6921 113.903 77.6921 113.903 77.3018 113.9C76.7577 113.897 76.2136 113.895 75.6696 113.894C74.8536 113.891 74.0378 113.882 73.2219 113.873C66.8455 113.747 66.8455 113.747 61.2302 116.308ZM189.155 114.49C188.743 115.176 188.42 115.875 188.086 116.601C185.402 119.673 181.079 120.23 177.246 120.703C176.282 120.757 175.319 120.777 174.354 120.796C174.084 120.802 173.813 120.808 173.535 120.814C172.678 120.833 171.822 120.85 170.965 120.868C170.382 120.88 169.798 120.893 169.215 120.906C167.79 120.937 166.366 120.967 164.941 120.996C164.941 121.092 164.941 121.189 164.941 121.289C165.161 121.314 165.381 121.339 165.607 121.365C167.911 121.682 170.159 122.173 171.895 123.822C172.432 124.822 172.432 125.819 172.467 126.928C172.482 127.256 172.482 127.256 172.497 127.59C172.521 128.126 172.54 128.662 172.558 129.199C180.967 125.762 189.329 121.528 195.41 114.55C195.41 114.357 195.41 114.164 195.41 113.965C192.127 113.526 192.127 113.526 189.155 114.49ZM147.812 123.318C144.969 123.88 142.043 123.708 139.16 123.633C139.203 123.997 139.245 124.361 139.289 124.737C139.313 124.942 139.337 125.147 139.362 125.358C139.518 126.419 139.761 127.11 140.332 128.027C141.051 128.455 141.785 128.789 142.551 129.126C143.254 129.488 143.582 129.765 144.049 130.389C145.062 131.676 146.324 132.412 147.949 132.715C148.949 132.789 149.948 132.843 150.95 132.892C151.867 132.941 152.64 133.009 153.515 133.3C155.812 133.548 157.74 133.085 159.913 132.356C160.874 132.12 161.376 132.104 162.304 132.422C164.267 134.156 164.267 134.156 164.464 135.517C164.509 137.54 164.235 138.87 163.182 140.608C162.788 141.244 162.788 141.244 163.183 142.09C165.581 139.692 167.103 136.68 167.193 133.282C167.17 131.654 166.807 130.786 165.82 129.492C166.461 129.51 166.461 129.51 167.285 129.785C167.719 130.297 168.071 130.826 168.424 131.397C168.531 131.542 168.639 131.687 168.75 131.836C168.943 131.836 169.136 131.836 169.336 131.836C170.755 128.736 170.755 128.736 170.526 125.445C167.964 122.728 163.422 122.857 159.961 122.754C153.852 122.561 153.852 122.561 147.812 123.318ZM209.472 122.754C209.156 124.778 209.249 126.446 209.655 128.448C209.709 128.719 209.763 128.989 209.819 129.268C210.312 131.599 210.858 133.578 212.64 135.241C214.076 135.861 215.294 135.852 216.797 135.351C217.76 135.344 218.718 135.359 219.681 135.388C221.075 135.411 222.191 135.181 223.535 134.765C224.521 134.613 225.506 134.491 226.497 134.373C227.388 134.169 227.699 134.035 228.222 133.3C228.575 132.054 228.634 131.482 228.039 130.316C226.746 128.785 225.505 127.859 223.459 127.674C222.691 127.642 221.923 127.623 221.155 127.606C217.395 127.467 213.741 127.054 210.961 124.234C210.55 123.752 210.156 123.254 209.765 122.754C209.669 122.754 209.572 122.754 209.472 122.754ZM84.3747 124.804C84.7409 125.875 84.8643 126.205 85.8396 126.855C86.4531 127.003 86.4531 127.003 87.1399 127.077C87.4041 127.112 87.6683 127.146 87.9405 127.182C88.3711 127.235 88.3711 127.235 88.8105 127.289C89.4288 127.37 90.0472 127.451 90.6655 127.532C90.9899 127.574 91.3144 127.615 91.6486 127.659C96.3805 128.274 101.09 128.917 105.743 129.986C106.092 130.066 106.441 130.146 106.8 130.229C108.625 130.669 110.364 131.211 112.108 131.906C112.858 132.189 112.858 132.189 113.965 132.129C113.965 131.645 113.965 131.162 113.965 130.664C105.568 125.921 93.8394 125.082 84.3747 124.804ZM221.191 124.804C221.191 124.901 221.191 124.998 221.191 125.097C221.868 125.097 222.545 125.097 223.242 125.097C223.242 125.001 223.242 124.904 223.242 124.804C222.565 124.804 221.888 124.804 221.191 124.804ZM223.535 125.097C224.707 125.39 224.707 125.39 224.707 125.39L223.535 125.097ZM119.03 125.909C116.689 129.212 115.484 131.746 116.14 135.836C116.919 138.856 119.044 141.503 121.519 143.361C123.417 144.8 124.653 147.071 125.097 149.414C125.122 150.135 125.129 150.857 125.126 151.579C125.126 151.785 125.125 151.992 125.125 152.205C125.123 152.861 125.119 153.518 125.116 154.174C125.114 154.621 125.113 155.067 125.112 155.513C125.108 156.605 125.103 157.697 125.097 158.789C125.412 158.832 125.726 158.875 126.05 158.919C128.063 159.217 129.892 159.784 131.781 160.528C135.379 162.069 135.379 162.069 139.16 162.304C140.351 161.384 140.876 160.542 141.211 159.082C141.218 158.594 141.22 158.105 141.211 157.617C141.031 157.586 140.851 157.555 140.665 157.523C139.834 157.379 139.002 157.233 138.171 157.086C137.888 157.037 137.605 156.989 137.314 156.939C135.662 156.645 134.091 156.255 132.491 155.752C131.627 155.507 130.789 155.417 129.895 155.365C129.595 155.345 129.295 155.326 128.986 155.306C128.766 155.295 128.546 155.284 128.32 155.273C128.335 154.753 128.335 154.753 128.351 154.223C128.48 149.597 128.48 149.597 126.306 145.642C125.209 144.498 124.04 143.443 122.863 142.383C121.295 140.968 120.027 139.525 118.945 137.695C118.822 137.49 118.7 137.286 118.573 137.075C117.596 135.3 117.256 133.649 117.737 131.671C118.483 129.425 119.905 126.774 121.582 125.097C124.274 124.747 126.695 125.304 129.199 126.269C129.404 126.336 129.609 126.404 129.82 126.473C131.096 127.359 131.698 129.198 132.36 130.574C133.476 132.889 134.758 134.999 136.23 137.109C138.021 139.691 139.2 141.791 138.735 144.996C138.412 146.214 137.69 147.075 136.816 147.949C136.381 147.804 136.381 147.804 135.937 147.656C136.082 147.39 136.227 147.124 136.377 146.85C137.144 145.009 137.169 143.067 136.493 141.195C135.796 139.759 134.973 138.435 134.088 137.109C132.942 135.383 132.166 133.515 131.41 131.592C130.59 129.631 129.466 128.053 127.451 127.196C126.803 127.003 126.803 127.003 125.775 126.855C125.22 126.755 125.22 126.755 124.654 126.654C123.38 126.539 123.38 126.539 122.168 126.855C121.787 127.436 121.787 127.436 121.582 128.174C121.206 129.253 120.788 130.183 120.19 131.158C119.525 132.339 119.29 133.097 119.531 134.472C120.373 136.849 121.893 138.553 123.633 140.332C123.902 140.613 123.902 140.613 124.176 140.899C125.204 141.953 126.28 142.897 127.443 143.799C129.182 145.688 129.771 147.83 130.169 150.311C130.219 150.593 130.268 150.874 130.319 151.164C130.438 151.85 130.553 152.535 130.664 153.222C130.839 153.253 131.014 153.284 131.195 153.316C134.455 153.893 137.704 154.473 140.918 155.273C141.223 154.136 141.176 153.483 140.79 152.38C140.056 149.901 140.15 147.306 140.515 144.763C140.926 141.481 139.048 139.045 137.219 136.505C135.259 133.751 134.742 131.425 134.641 128.09C134.559 127.154 134.559 127.154 134.011 126.637C130.395 124.768 126.474 124.041 122.461 123.633C122.19 123.597 121.918 123.562 121.639 123.525C120.367 123.738 119.777 124.943 119.03 125.909ZM231.152 138.281C230.981 138.43 230.811 138.579 230.635 138.732C227.81 141.104 224.952 142.859 221.191 142.675C220.917 142.64 220.643 142.604 220.36 142.568C218.394 142.32 217.232 142.477 215.439 143.296C214.266 143.733 213.286 143.66 212.109 143.261C211.173 142.744 210.318 142.157 209.472 141.504C209.559 143.227 210.296 144.435 211.523 145.605C212.514 146.068 212.514 146.068 213.574 145.898C214.159 145.576 214.651 145.221 215.162 144.793C216.249 143.948 217.539 144.039 218.847 144.14C219.415 144.289 219.983 144.438 220.549 144.591C222.938 145.094 225.254 144.84 227.343 143.554C228.956 142.195 230.386 140.697 231.445 138.867C231.3 138.577 231.3 138.577 231.152 138.281ZM240.46 138.71C239.38 138.919 238.309 138.972 237.213 139.032C236.887 139.051 236.887 139.051 236.555 139.07C236.024 139.101 235.492 139.13 234.961 139.16C234.964 139.341 234.967 139.522 234.971 139.708C234.984 140.907 234.982 142.073 234.814 143.261C234.693 144.176 234.664 145.061 234.679 145.982C234.683 146.211 234.686 146.441 234.69 146.677C234.699 147.136 234.712 147.594 234.73 148.052C234.761 149.603 234.615 150.997 233.789 152.343C232.975 152.947 232.975 152.947 232.049 153.351C231.592 153.558 231.592 153.558 231.126 153.771C228.545 154.772 226.021 154.529 223.352 153.936C219.786 153.178 217.047 153.854 213.933 155.774C213.21 156.272 212.511 156.789 211.816 157.324C211.354 157.659 211.354 157.659 210.882 158.001C208.955 159.843 206.986 162.517 206.762 165.252C206.787 165.44 206.811 165.627 206.836 165.82C206.996 165.615 207.157 165.411 207.322 165.2C212.61 158.685 212.61 158.685 215.918 157.031C215.791 157.276 215.791 157.276 215.661 157.525C215.553 157.749 215.444 157.972 215.332 158.203C215.22 158.409 215.108 158.616 214.993 158.829C214.656 159.973 214.9 160.913 215.149 162.048C215.799 165.405 215.628 168.27 215.033 171.631C214.73 173.423 214.54 175.007 215.57 176.605C217.102 177.657 218.894 178.022 220.74 177.71C221.015 177.656 221.29 177.603 221.574 177.548C223.669 177.188 225.729 177.143 227.852 177.124C228.254 177.119 228.656 177.113 229.058 177.107C230.104 177.092 231.15 177.081 232.196 177.07C233.269 177.058 234.341 177.043 235.414 177.028C237.509 177 239.604 176.975 241.699 176.953C241.238 177.142 240.777 177.33 240.316 177.518C240.06 177.622 239.803 177.727 239.539 177.835C236.678 178.911 233.529 178.932 230.511 179.15C227.506 179.37 224.523 179.619 221.541 180.054C218.747 180.417 216.06 180.378 213.739 178.601C212.661 177.496 212.378 176.689 212.329 175.177C212.349 174.149 212.494 173.199 212.695 172.192C213.01 170.455 213.054 168.752 213.061 166.992C213.064 166.722 213.067 166.452 213.069 166.174C213.068 165.791 213.068 165.791 213.066 165.399C213.065 165.17 213.064 164.94 213.064 164.704C212.98 163.991 212.757 163.51 212.402 162.89C212.04 163.23 211.688 163.58 211.34 163.934C211.143 164.128 210.946 164.321 210.743 164.521C210.24 165.248 210.24 165.248 210.578 166.207C210.756 166.74 210.756 166.74 210.937 167.285C211.103 169.546 210.994 171.698 210.486 173.904C210.165 175.581 210.101 177.181 210.717 178.784C213.134 181.201 216.162 182.125 219.433 182.812C219.863 182.906 219.863 182.906 220.302 183.002C227.092 184.26 234.29 184.354 240.252 180.56C243.81 178.072 247.253 175.014 248.319 170.63C249.101 165.935 246.901 162.227 244.336 158.496C243.971 157.988 243.605 157.481 243.237 156.976C241.066 153.941 239.721 150.532 240.234 146.777C240.663 144.751 241.228 142.758 241.797 140.768C241.991 140.041 242.145 139.313 242.285 138.574C241.193 138.534 241.193 138.534 240.46 138.71ZM203.906 140.918C203.616 141.367 203.33 141.819 203.045 142.273C200.95 145.274 197.439 146.472 193.952 147.189C187.039 148.409 179.773 147.475 173.73 143.847C173.453 143.682 173.176 143.516 172.89 143.345C172.684 143.221 172.478 143.096 172.265 142.968C173.213 145.299 176.362 146.249 178.535 147.202C185.835 150.232 192.432 149.96 199.804 147.363C201.644 146.579 202.998 145.654 203.976 143.877C204.347 142.854 204.295 141.995 204.199 140.918C204.102 140.918 204.006 140.918 203.906 140.918ZM246.093 179.297C245.951 179.435 245.808 179.574 245.661 179.717C240.078 184.924 233.972 186.914 226.41 186.658C220.172 186.379 213.712 185.532 209.179 180.761C209.247 181.171 209.322 181.58 209.399 181.988C209.44 182.216 209.481 182.444 209.523 182.678C210.248 184.83 212.276 185.922 214.177 186.933C218.811 189.159 224.046 189.302 229.083 189.349C229.444 189.354 229.805 189.359 230.177 189.365C235.944 189.36 239.79 186.49 243.763 182.544C244.643 181.662 245.517 180.775 246.386 179.882C246.241 179.592 246.241 179.592 246.093 179.297ZM40.1364 196.289C39.6478 197.755 39.5448 199.291 40.0884 200.759C41.1462 202.626 42.6254 203.589 44.6468 204.213C46.263 204.605 47.8651 204.573 49.52 204.566C49.8725 204.567 50.225 204.568 50.5882 204.569C51.5661 204.571 52.5438 204.571 53.5216 204.569C54.5857 204.568 55.6497 204.57 56.7138 204.572C58.5784 204.574 60.4431 204.575 62.3078 204.574C65.0807 204.572 67.8535 204.574 70.6264 204.576C75.8667 204.581 81.107 204.581 86.3473 204.58C90.3935 204.58 94.4398 204.58 98.4861 204.582C99.0672 204.582 99.6483 204.582 100.229 204.582C101.105 204.582 101.981 204.583 102.857 204.583C110.999 204.585 119.142 204.587 127.284 204.586C127.745 204.585 127.745 204.585 128.215 204.585C129.771 204.585 131.327 204.585 132.883 204.585C133.192 204.585 133.501 204.585 133.82 204.585C134.445 204.584 135.07 204.584 135.695 204.584C145.421 204.583 155.147 204.585 164.873 204.59C175.798 204.596 186.723 204.6 197.648 204.598C198.813 204.598 199.977 204.598 201.142 204.598C201.429 204.598 201.716 204.598 202.011 204.598C206.342 204.598 210.673 204.6 215.005 204.603C219.93 204.606 224.855 204.607 229.78 204.603C232.536 204.601 235.293 204.602 238.05 204.606C239.891 204.608 241.732 204.607 243.573 204.604C244.622 204.602 245.671 204.602 246.721 204.605C247.851 204.609 248.982 204.605 250.113 204.602C250.438 204.604 250.763 204.606 251.097 204.608C253.987 204.588 256.704 204.028 258.984 202.148C260.019 200.822 260.492 199.813 260.467 198.138C260.463 197.783 260.463 197.783 260.459 197.421C260.456 197.24 260.452 197.06 260.449 196.875C259.048 196.875 258.375 197.3 257.176 197.962C255.15 198.885 253.194 199.019 251.003 199.045C250.713 199.051 250.423 199.057 250.125 199.062C249.173 199.08 248.221 199.093 247.269 199.106C246.595 199.117 245.921 199.128 245.247 199.14C238.796 199.242 232.344 199.261 225.893 199.257C224.238 199.256 222.584 199.257 220.93 199.258C217.702 199.259 214.475 199.259 211.247 199.258C208.597 199.257 205.947 199.257 203.297 199.258C202.914 199.258 202.531 199.258 202.136 199.258C201.357 199.258 200.578 199.258 199.799 199.258C192.725 199.259 185.651 199.258 178.577 199.256C172.448 199.255 166.32 199.255 160.191 199.256C139.225 199.261 118.259 199.254 97.2938 199.222C95.9186 199.219 94.5433 199.217 93.1681 199.216C85.7529 199.205 78.3378 199.191 70.9227 199.161C70.3705 199.159 69.8184 199.157 69.2663 199.155C68.9965 199.154 68.7267 199.153 68.4487 199.152C66.5864 199.144 64.7241 199.14 62.8617 199.137C60.6584 199.133 58.4551 199.126 56.2518 199.113C55.1542 199.107 54.0567 199.102 52.9591 199.103C51.7853 199.103 50.6118 199.094 49.4381 199.085C49.1029 199.086 48.7677 199.088 48.4223 199.089C45.3923 199.051 42.9632 198.357 40.7224 196.289C40.529 196.289 40.3357 196.289 40.1364 196.289ZM256.146 206.817C254.001 207.505 251.884 207.463 249.652 207.459C249.301 207.46 248.951 207.46 248.59 207.461C247.616 207.462 246.643 207.462 245.669 207.461C244.61 207.461 243.551 207.462 242.492 207.463C240.636 207.464 238.78 207.465 236.924 207.464C234.163 207.464 231.403 207.465 228.643 207.467C223.426 207.47 218.209 207.47 212.992 207.471C208.964 207.471 204.935 207.471 200.907 207.472C199.748 207.472 198.588 207.473 197.429 207.473C197.141 207.473 196.853 207.473 196.556 207.473C188.449 207.475 180.341 207.476 172.234 207.476C171.929 207.476 171.623 207.476 171.308 207.476C169.758 207.476 168.209 207.476 166.659 207.476C166.351 207.476 166.044 207.476 165.727 207.476C165.104 207.476 164.482 207.476 163.86 207.476C154.177 207.476 144.494 207.478 134.811 207.482C123.935 207.486 113.058 207.489 102.182 207.489C101.022 207.489 99.8625 207.489 98.7028 207.489C98.4172 207.489 98.1317 207.489 97.8375 207.489C93.2413 207.489 88.6452 207.49 84.049 207.493C79.43 207.495 74.811 207.496 70.192 207.494C67.4478 207.493 64.7036 207.493 61.9595 207.496C60.1258 207.498 58.2922 207.497 56.4586 207.495C55.4143 207.494 54.3699 207.494 53.3256 207.496C52.199 207.499 51.0725 207.497 49.9459 207.494C49.6239 207.496 49.3019 207.497 48.9701 207.499C46.8537 207.489 44.8494 207.243 42.7732 206.836C44.9794 208.899 47.524 209.015 50.4112 208.998C50.7615 208.999 51.1119 209.001 51.4728 209.002C52.443 209.005 53.4131 209.004 54.3833 209.001C55.4397 208.999 56.496 209.002 57.5523 209.005C59.403 209.008 61.2537 209.009 63.1043 209.007C65.8564 209.004 68.6084 209.007 71.3605 209.01C76.2758 209.016 81.1911 209.016 86.1065 209.015C90.4083 209.014 94.7101 209.014 99.0119 209.015C99.5888 209.016 100.166 209.016 100.743 209.016C101.612 209.016 102.481 209.017 103.351 209.017C111.433 209.02 119.516 209.022 127.599 209.019C127.904 209.019 128.209 209.019 128.523 209.019C130.997 209.018 133.472 209.018 135.947 209.017C145.6 209.014 155.254 209.016 164.907 209.023C175.752 209.031 186.596 209.034 197.441 209.032C198.597 209.032 199.753 209.032 200.909 209.032C201.336 209.032 201.336 209.032 201.772 209.032C206.07 209.031 210.369 209.033 214.668 209.037C219.556 209.042 224.445 209.042 229.333 209.037C232.069 209.034 234.804 209.034 237.54 209.039C239.368 209.042 241.195 209.041 243.023 209.036C244.064 209.034 245.105 209.033 246.147 209.038C247.269 209.043 248.392 209.038 249.514 209.033C249.997 209.037 249.997 209.037 250.489 209.042C252.821 209.02 255.249 208.731 257.025 207.088C257.188 206.908 257.351 206.728 257.519 206.543C256.887 206.51 256.887 206.51 256.146 206.817Z" fill="black"/>
<path d="M151.465 138.867C152.559 139.529 153.404 140.506 154.294 141.413C161.703 148.962 169.657 151.267 179.799 153.267C199.024 157.063 199.024 157.063 202.148 161.719C203.163 163.81 203.658 165.659 203.662 167.98C203.663 168.19 203.664 168.4 203.665 168.617C203.667 169.063 203.667 169.509 203.667 169.955C203.668 170.624 203.673 171.294 203.679 171.963C203.699 177.002 203.223 180.977 199.618 184.753C199.275 185.098 199.275 185.098 198.925 185.449C198.73 185.655 198.535 185.86 198.334 186.072C196.41 187.955 194.042 189.061 191.601 190.137C191.367 190.241 191.134 190.346 190.893 190.454C188.297 191.376 185.542 190.459 183.014 189.715C182.35 189.526 181.686 189.337 181.021 189.149C180.732 189.065 180.442 188.98 180.144 188.893C178.586 188.486 177.121 188.342 175.512 188.327C175.119 188.322 174.726 188.315 174.333 188.309C174.13 188.306 173.927 188.302 173.718 188.299C167.336 188.18 159.495 187.581 154.687 182.812C154.478 182.61 154.268 182.408 154.052 182.2C150.314 178.326 150.458 172.951 150.522 167.874C150.567 166.281 150.803 164.77 151.158 163.214C151.178 161.904 150.792 161 150 159.961C149.271 159.384 148.493 158.987 147.656 158.588C144.939 157.246 144.939 157.246 144.14 155.859C143.961 154.763 144.022 154.286 144.622 153.346C144.832 153.088 145.041 152.829 145.257 152.563C146.72 150.48 146.978 148.491 147.275 146.004C147.421 144.852 147.621 143.71 147.821 142.566C147.854 142.359 147.888 142.151 147.923 141.938C148.095 140.928 148.263 140.026 148.828 139.16C149.783 138.682 150.403 138.73 151.465 138.867ZM150 141.797C149.978 142.031 149.956 142.266 149.933 142.508C149.83 143.583 149.723 144.658 149.615 145.734C149.581 146.103 149.546 146.472 149.51 146.852C149.196 149.94 148.706 152.237 146.777 154.687C147.06 154.829 147.342 154.97 147.633 155.115C148.715 155.656 149.797 156.197 150.879 156.738C151.109 156.847 151.34 156.955 151.578 157.067C152.244 157.429 152.353 157.796 152.636 158.496C152.794 158.78 152.951 159.064 153.113 159.357C154.122 161.755 153.519 164.625 153.061 167.092C152.811 168.575 152.869 169.93 153.222 171.387C153.319 171.387 153.416 171.387 153.515 171.387C153.526 171.135 153.537 170.883 153.549 170.623C153.649 168.811 153.814 167.105 154.266 165.344C155.499 160.341 153.896 156.624 151.465 152.344C153.512 153.024 154.48 154.576 155.427 156.45C157.294 160.745 156.871 164.918 155.486 169.276C155.066 170.624 154.908 171.731 154.98 173.144C154.69 173.289 154.69 173.289 154.394 173.437C158.587 176.492 162.399 177.585 167.505 177.667C172.686 177.804 177.506 178.434 182.489 179.858C185.838 180.783 190.144 181.131 193.359 179.59C194.213 179.075 194.956 178.491 195.703 177.832C195.874 177.688 196.045 177.544 196.221 177.396C198.772 175.075 200.742 171.746 201.077 168.3C201.173 165.894 201.017 163.954 199.511 162.012C194.45 156.746 185.841 155.951 179.051 154.723C169.295 152.956 160.846 151.025 153.808 143.555C153.808 145.184 155.348 146.259 156.445 147.363C158.117 148.962 159.885 150.199 161.938 151.245C162.199 151.379 162.199 151.379 162.466 151.516C167.184 153.795 172.263 154.523 177.376 155.412C193.832 158.294 193.832 158.294 197.292 162.855C198.307 164.781 198.748 166.644 198.17 168.795C197.222 171.041 195.214 172.038 193.048 172.925C189.525 174.094 185.835 174.339 182.226 173.437C181.73 173.157 181.24 172.867 180.761 172.558C180.568 172.558 180.375 172.558 180.175 172.558C179.822 171.875 179.541 171.241 179.297 170.508C179.443 170.592 179.589 170.677 179.739 170.764C181.686 171.771 183.57 171.992 185.742 171.68C186.569 171.265 186.569 171.265 187.207 170.801C187.052 169.139 186.571 168.279 185.298 167.203C182.72 165.364 179.128 164.901 176.074 164.355C180.03 163.78 183.596 164.064 186.952 166.514C188.441 167.813 189.123 169.187 189.55 171.094C191.662 171.382 193.36 170.456 195.117 169.336C195.895 168.501 195.989 168.222 196.124 167.047C196.037 165.369 195.42 164.314 194.204 163.203C188.242 158.555 180.534 157.112 173.266 155.872C165.11 154.471 157.574 151.835 152.343 145.019C151.764 144.158 151.21 143.29 150.677 142.399C150.55 142.2 150.423 142.001 150.293 141.797C150.196 141.797 150.099 141.797 150 141.797ZM153.515 171.387C153.808 171.973 153.808 171.973 153.808 171.973L153.515 171.387ZM154.101 172.558C154.394 173.144 154.394 173.144 154.394 173.144L154.101 172.558ZM200.39 176.66C200.28 176.799 200.169 176.937 200.055 177.08C197.886 179.686 195.057 182.451 191.601 183.105C187.759 183.401 184.328 182.772 180.614 181.825C179.605 181.571 178.592 181.347 177.575 181.128C177.28 181.063 176.985 180.998 176.68 180.931C173.754 180.38 170.825 180.383 167.855 180.343C164.101 180.254 160.605 179.604 157.031 178.418C159.318 181.228 165.424 181.331 168.759 181.753C174.378 182.465 179.634 183.791 185.032 185.485C185.372 185.591 185.711 185.697 186.061 185.806C186.367 185.903 186.674 185.999 186.989 186.099C189.166 186.72 190.825 186.163 192.773 185.156C195.903 183.231 198.998 180.556 200.683 177.246C200.587 177.053 200.49 176.859 200.39 176.66Z" fill="black"/>
<path d="M115.016 143.444C119.765 147.199 119.765 147.199 120.22 150.436C120.253 151.197 120.25 151.948 120.227 152.71C120.222 152.98 120.218 153.249 120.213 153.527C120.119 157.312 119.821 161.65 117.082 164.541C115.055 166.23 112.136 166.361 109.614 166.192C106.859 165.847 104.166 164.718 101.557 163.813C97.1286 162.284 92.8895 161.317 88.1836 161.133C87.8755 161.121 87.5673 161.109 87.2498 161.096C85.2185 161.059 83.2313 161.17 81.2088 161.343C77.7751 161.634 74.3625 161.789 70.9174 161.806C70.4474 161.809 69.9775 161.813 69.5076 161.819C65.617 161.86 61.6682 161.79 58.5938 159.082C56.5149 156.73 56.4001 153.432 56.4332 150.439C56.4298 150.132 56.4264 149.824 56.4229 149.507C56.4377 145.499 57.6191 142.09 60.355 139.132C74.0653 126.014 101.876 133.333 115.016 143.444ZM61.8645 141.053C59.9782 143.266 59.1247 145.673 59.1797 148.535C59.7941 147.781 60.3857 147.022 60.9501 146.23C63.4236 142.761 66.0893 140.693 70.3583 139.858C72.5621 139.562 74.1191 139.844 76.1719 140.625C76.462 140.722 76.752 140.818 77.0508 140.918C77.4137 141.684 77.6617 142.458 77.9297 143.262C77.6287 143.156 77.3278 143.05 77.0176 142.941C73.7349 141.825 71.037 141.14 67.7376 142.639C64.0151 144.533 62.3299 147.962 60.3516 151.465C62.9117 154.195 67.8818 154.954 71.418 155.152C71.6333 155.164 71.8485 155.177 72.0703 155.19C74.0875 155.293 76.0968 155.272 78.1156 155.239C86.0171 155.109 92.5979 156.602 99.8736 159.774C100.535 160.04 100.535 160.04 101.367 159.668C101.126 159.576 101.126 159.576 100.881 159.481C97.0322 157.798 94.0991 154.487 91.1983 151.541C88.4291 148.745 85.8863 146.736 82.0038 145.9C81.0038 145.898 80.3583 146.179 79.4439 146.552C78.3489 146.94 77.2318 147.037 76.0804 147.144C75.8357 147.167 75.591 147.19 75.3389 147.214C72.1524 147.488 69.8883 147.251 67.0899 145.605C67.1866 145.509 67.2832 145.412 67.3829 145.312C67.7514 145.403 68.12 145.494 68.4998 145.587C71.5891 146.294 74.5111 145.78 77.5773 145.235C78.9618 144.989 80.334 144.808 81.7383 144.727C82.0133 144.704 82.2882 144.682 82.5715 144.659C86.4978 144.472 89.1743 146.273 91.9922 148.828C93.3604 150.14 94.6695 151.516 95.9754 152.89C98.6652 155.71 101.358 157.806 105.416 158.009C109.157 158.072 112.813 158.021 115.823 155.476C117.025 154.249 117.842 153.068 117.957 151.318C117.82 149.173 116.404 147.571 114.898 146.146C102.605 135.766 74.8862 128.71 61.8645 141.053ZM115.43 158.789C114.735 159.031 114.077 159.335 113.406 159.637C111.012 160.493 108.688 160.627 106.165 160.583C105.723 160.58 105.723 160.58 105.273 160.575C104.557 160.569 103.841 160.559 103.125 160.547C104.831 161.684 107.257 161.986 109.277 161.719C111.758 161.214 113.946 160.603 116.016 159.082C115.822 158.985 115.629 158.889 115.43 158.789ZM101.367 159.961C101.561 160.154 101.754 160.348 101.953 160.547C102.571 160.454 102.571 160.454 103.125 160.254C102.255 160.109 102.255 160.109 101.367 159.961Z" fill="black"/>
<path d="M106.055 167.285C106.257 167.383 106.459 167.481 106.667 167.582C110.755 169.595 114.432 171.902 116.016 176.367C116.421 178.085 116.374 179.793 116.382 181.549C116.391 182.047 116.391 182.047 116.4 182.556C116.415 185.886 115.906 188.234 113.551 190.665C109.718 193.919 104.096 194.021 99.3164 194.238C99.0377 194.251 98.759 194.264 98.4718 194.277C93.1171 194.395 87.289 193.812 83.2455 190.001C81.8851 188.623 81.1057 187.089 80.2734 185.358C78.285 181.396 75.9207 178.312 72.8783 175.084C70.871 172.912 69.9298 170.875 70.0195 167.871C70.2473 166.793 70.3938 166.276 71.2772 165.598C73.6312 164.486 75.9717 163.735 78.5156 163.184C78.8204 163.117 79.1252 163.051 79.4392 162.982C88.6558 161.342 97.7586 163.257 106.055 167.285ZM72.6562 167.578C74.9854 167.517 77.0457 166.883 79.2366 166.159C80.8328 165.638 82.2362 165.457 83.9172 165.436C84.1372 165.427 84.3572 165.419 84.5838 165.41C85.7281 165.397 86.2933 165.445 87.2898 166.063C87.8906 166.699 87.8906 166.699 88.2935 167.596C88.6948 168.547 88.6948 168.547 89.7034 168.787C91.1772 169.313 91.7177 170.606 92.5106 171.878C93.5876 173.549 95.022 174.932 96.3867 176.367C97.6909 177.779 98.9614 179.192 100.122 180.725C101.758 182.852 103.547 183.797 106.165 184.259C108.343 184.435 110.128 183.458 111.749 182.08C113.142 180.8 113.831 179.838 113.984 177.942C113.933 176.113 113.103 174.78 111.914 173.438C108.535 170.686 104.579 168.879 100.562 167.267C100.226 167.13 100.226 167.13 99.8844 166.99C98.7803 166.563 98.1028 166.333 96.9727 166.699C97.1198 166.773 97.2669 166.846 97.4185 166.922C100.692 168.567 103.754 170.297 106.641 172.559C107.014 172.852 107.014 172.852 107.396 173.15C109.117 174.587 110.372 176.273 111.621 178.125C111.044 177.693 110.468 177.26 109.894 176.826C106.662 174.383 103.367 172.12 99.9166 169.999C97.914 168.765 95.9401 167.505 94.043 166.113C94.2363 165.92 94.4297 165.727 94.6289 165.527C89.0797 164.185 77.1901 163.044 72.6562 167.578ZM76.7578 168.457C77.2204 169.494 77.8519 170.313 78.5522 171.204C80.0177 173.109 81.1645 175.146 82.3242 177.246C84.3746 180.868 86.5027 183.476 90.6693 184.675C93.4773 185.393 96.2093 185.527 99.0967 185.486C99.4581 185.483 99.8195 185.481 100.192 185.478C101.072 185.471 101.952 185.461 102.832 185.449C102.374 185.144 101.916 184.839 101.458 184.535C99.5972 183.226 98.1674 181.591 96.6797 179.883C96.5018 179.683 96.3239 179.483 96.1407 179.277C95.8127 178.908 95.4877 178.535 95.1656 178.161C94.7686 177.701 94.3637 177.248 93.9548 176.799C92.24 174.854 90.9817 172.887 89.8169 170.576C88.9343 168.871 88.0307 167.625 86.1328 166.992C83.0402 166.773 79.5242 166.905 76.7578 168.457ZM72.0703 167.578C72.1789 169.043 72.9241 169.699 73.9563 170.636C77.3611 173.898 79.4032 177.671 81.4093 181.888C82.7766 184.723 84.2769 186.872 87.2131 188.196C90.4024 189.273 93.7837 189.356 97.1191 189.331C97.499 189.329 97.8788 189.328 98.2701 189.326C100.603 189.302 102.924 189.219 105.249 189.02C105.498 188.999 105.746 188.979 106.003 188.958C108.361 188.721 110.736 188.329 112.5 186.639C112.711 186.443 112.923 186.247 113.141 186.046C113.654 185.469 113.981 184.995 114.258 184.277C114.17 183.634 114.17 183.634 113.965 183.106C113.759 183.323 113.554 183.541 113.342 183.765C109.562 187.38 104.005 187.835 99.0177 187.792C94.0242 187.678 88.5505 187.479 84.668 183.984C84.4746 183.984 84.2812 183.984 84.082 183.984C84.0039 183.816 83.9257 183.648 83.8451 183.475C83.4827 182.787 83.0647 182.208 82.5989 181.586C81.6539 180.262 80.915 178.893 80.1819 177.448C78.5162 174.204 76.4312 171.501 73.7732 168.986C73.2422 168.457 73.2422 168.457 72.6562 167.578C72.4629 167.578 72.2695 167.578 72.0703 167.578Z" fill="black"/>
<path d="M181.054 103.711C182.167 104.718 182.724 105.937 182.911 107.427C182.935 109.177 182.865 110.264 181.64 111.621C180.577 112.581 179.662 113.038 178.289 113.434C177.97 113.529 177.65 113.623 177.32 113.721C175.751 114.122 174.28 114.294 172.66 114.299C172.275 114.301 171.89 114.304 171.493 114.306C171.289 114.306 171.084 114.307 170.873 114.307C169.759 114.311 168.646 114.32 167.533 114.328C167.299 114.33 167.065 114.332 166.824 114.333C159.736 114.383 152.682 114.446 145.623 115.155C145.354 115.182 145.085 115.209 144.808 115.236C144.284 115.289 143.76 115.341 143.236 115.394C142.989 115.418 142.741 115.443 142.487 115.469C142.249 115.492 142.011 115.516 141.765 115.541C139.615 115.75 137.476 115.843 135.315 115.851C135.032 115.854 134.749 115.857 134.457 115.86C131.621 115.824 128.453 115.325 126.269 113.379C124.987 111.914 124.395 110.349 124.511 108.398C124.827 106.825 125.351 105.384 126.562 104.297C128.627 103.204 130.497 102.945 132.806 102.997C133.113 103 133.421 103.004 133.737 103.007C135.94 103.055 138.07 103.292 140.241 103.648C142.522 104.012 144.803 104.196 147.107 104.352C147.461 104.376 147.815 104.401 148.18 104.426C151.972 104.67 155.65 104.53 159.43 104.205C159.778 104.176 159.778 104.176 160.133 104.147C163.022 103.905 165.895 103.61 168.768 103.217C172.705 102.689 177.296 102.082 181.054 103.711ZM165.62 106.097C156.13 107.269 146.736 107.493 137.278 105.884C135.745 105.705 134.221 105.696 132.678 105.688C132.364 105.682 132.05 105.676 131.727 105.67C131.424 105.669 131.12 105.667 130.808 105.666C130.397 105.662 130.397 105.662 129.978 105.657C129.036 105.784 128.498 106.082 127.734 106.641C126.941 107.83 126.891 108.761 127.148 110.156C127.832 111.514 128.789 112.252 130.206 112.756C133.28 113.592 136.313 113.443 139.452 113.133C139.719 113.108 139.987 113.082 140.263 113.056C141.11 112.976 141.957 112.894 142.804 112.811C143.37 112.757 143.936 112.703 144.502 112.649C145.55 112.55 146.597 112.449 147.645 112.348C147.889 112.325 148.132 112.302 148.383 112.278C148.871 112.231 149.358 112.181 149.845 112.126C152.123 111.887 154.395 111.866 156.682 111.856C157.401 111.852 158.12 111.846 158.839 111.84C160.88 111.822 162.922 111.806 164.964 111.796C166.219 111.79 167.475 111.78 168.73 111.767C169.204 111.763 169.677 111.76 170.15 111.759C175.541 111.868 175.541 111.868 180.175 109.57C180.641 108.639 180.587 107.654 180.468 106.641C179.938 105.857 179.625 105.774 178.711 105.469C174.333 105.049 169.958 105.56 165.62 106.097Z" fill="black"/>
<path d="M129.052 165.637C129.785 166.113 129.785 166.113 130.078 166.699C131.379 167.103 132.705 167.001 134.051 166.974C138.066 166.94 141.427 167.503 144.726 169.922C145.016 170.133 145.306 170.345 145.605 170.563C148.025 172.641 149.294 175.722 149.652 178.821C149.757 179.705 149.757 179.705 150 180.469C150.858 181.074 150.858 181.074 151.499 181.313C152.772 182.068 153.569 183.797 153.997 185.18C154.391 187.305 154.01 188.879 152.929 190.723C151.261 192.752 149.288 193.539 146.777 193.945C145.805 194.027 144.841 194.043 143.866 194.037C143.607 194.035 143.349 194.033 143.083 194.032C141.259 193.998 139.66 193.848 137.988 193.066C137.728 192.945 137.469 192.824 137.202 192.699C135.759 191.965 134.576 191.164 133.374 190.082C131.857 188.805 130.401 188.597 128.48 188.286C125.569 187.725 123.075 185.59 121.33 183.255C119.822 180.855 119.073 178.525 119.11 175.69C119.112 175.447 119.114 175.205 119.116 174.956C119.197 171.949 119.973 169.152 122.168 166.992C124.296 165.377 126.472 164.623 129.052 165.637ZM123.984 168.641C122.128 170.608 121.242 172.615 121.142 175.323C121.26 178.891 122.834 181.584 125.343 184.032C126.475 184.994 127.678 185.742 129.199 185.742C129.12 185.549 129.042 185.355 128.961 185.156C128.846 184.866 128.731 184.576 128.613 184.277C128.539 184.107 128.465 183.937 128.389 183.761C127.607 181.873 127.354 179.996 127.533 177.96C127.432 176.854 127.22 176.56 126.58 175.69C125.576 174.289 125.268 173.106 125.39 171.387C125.714 169.869 126.279 168.912 127.441 167.871C127.441 167.678 127.441 167.484 127.441 167.285C125.946 167.285 125.1 167.631 123.984 168.641ZM128.213 169.562C127.527 170.497 127.382 171.424 127.441 172.558C127.771 173.432 128.029 174.073 128.751 174.677C129.414 175.445 129.564 176.275 129.84 177.246C131.045 181.112 133.552 183.905 137.06 185.927C138.745 186.752 140.219 187.115 142.089 187.207C141.503 188.086 141.503 188.086 140.496 188.36C137.778 188.587 135.609 187.102 133.621 185.42C133.007 184.863 133.007 184.863 132.522 184.352C132.147 183.918 132.147 183.918 131.543 183.984C131.47 183.809 131.398 183.634 131.323 183.453C130.909 182.728 130.473 182.392 129.785 181.933C130.707 185.623 134.109 188.117 137.203 189.998C140.455 191.786 144.1 191.943 147.656 191.015C147.873 190.961 148.091 190.907 148.315 190.852C149.667 190.44 150.578 189.801 151.444 188.677C152.128 187.387 151.958 186.178 151.582 184.812C150.949 183.246 150.016 182.639 148.513 181.936C147.949 181.64 147.949 181.64 147.656 181.055C147.633 180.481 147.615 179.907 147.601 179.333C147.385 176.461 146.312 174.293 144.25 172.284C141.163 169.71 137.761 169.281 133.894 169.124C133.485 169.107 133.077 169.086 132.669 169.064C132.077 169.031 131.484 169.006 130.891 168.982C130.539 168.966 130.186 168.949 129.822 168.932C128.886 168.968 128.886 168.968 128.213 169.562ZM129.492 181.348C129.785 181.933 129.785 181.933 129.785 181.933L129.492 181.348Z" fill="black"/>
<path d="M67.5154 165.175C68.6676 166.071 69.2781 167.089 69.7263 168.457C69.7939 169.446 69.7939 169.446 69.7813 170.508C69.7794 170.858 69.7775 171.209 69.7756 171.57C69.7331 172.424 69.6299 173.193 69.4334 174.023C69.7036 174.193 69.7036 174.193 69.9793 174.367C70.2161 174.519 70.4528 174.672 70.6968 174.829C71.0486 175.053 71.0486 175.053 71.4075 175.282C72.3839 176.017 72.8563 176.675 73.242 177.832C73.3177 178.917 73.3098 180.004 73.3152 181.091C73.3213 181.386 73.3273 181.682 73.3335 181.986C73.3446 184.132 73.1653 186.084 71.8881 187.872C68.2816 190.935 63.3965 190.994 58.8865 190.722C56.0843 190.336 53.3374 189.512 51.2693 187.5C48.909 184.324 49.181 180.298 49.6362 176.497C50.5204 172.494 52.6848 168.58 56.1582 166.314C59.4305 164.521 64.0656 163.081 67.5154 165.175ZM55.4258 169.574C54.2236 171.326 53.7388 173.063 53.906 175.195C54.0316 175.872 54.0316 175.872 54.199 176.367C53.354 175.988 52.7716 175.588 52.1482 174.902C51.6306 176.394 51.4269 177.433 51.8553 179.004C52.9818 180.799 54.4921 181.511 56.4978 182.089C61.0062 183.068 66.4867 182.253 70.4576 179.955C70.987 179.582 70.987 179.582 71.1912 178.711C70.5197 177.4 69.9535 176.694 68.5545 176.239C68.349 176.173 68.1436 176.107 67.9319 176.039C67.3826 175.781 67.3826 175.781 66.7967 174.902C66.8698 173.769 66.958 172.868 67.4009 171.826C67.7879 170.794 67.8469 169.828 67.6756 168.75C67.0248 167.472 66.3849 166.64 65.0388 166.113C61.2024 165.604 58.0854 166.914 55.4258 169.574ZM51.8553 182.519C52.2571 183.834 52.7313 184.437 53.906 185.156C58.0165 186.606 64.0235 187.321 68.0933 185.408C69.168 184.839 70.0671 184.295 70.8982 183.398C70.7532 183.108 70.7532 183.108 70.6053 182.812C70.2941 182.915 69.9829 183.017 69.6623 183.122C69.2442 183.257 68.8261 183.392 68.408 183.526C68.2041 183.594 68.0001 183.661 67.79 183.731C63.1539 185.212 57.1784 185.216 52.7708 183.05C52.4687 182.875 52.1665 182.7 51.8553 182.519Z" fill="black"/>
<path d="M237.598 148.242C237.695 148.242 237.791 148.242 237.891 148.242C237.952 148.561 238.013 148.88 238.075 149.208C238.957 153.534 240.921 156.575 243.543 160.084C245.908 163.272 247.438 166.136 246.973 170.215C246.365 172.146 245.422 173.483 243.75 174.609C240.9 175.559 237.673 175.04 234.906 174.078C231.942 173.049 228.98 172.797 225.872 172.592C223.13 172.392 219.937 172.069 217.969 169.922C216.161 167.242 215.921 163.95 216.504 160.84C217.163 158.646 218.37 156.791 220.35 155.603C221.643 155.097 222.595 154.951 223.988 155.037C224.302 155.053 224.617 155.07 224.942 155.087C225.598 155.126 226.254 155.165 226.91 155.206C230.403 155.388 233.003 154.821 235.734 152.527C236.873 151.323 237.218 149.807 237.598 148.242ZM234.346 155.189C231.639 156.393 229.027 156.187 226.12 156.104C223.955 156.069 222.348 156.063 220.628 157.504C220.494 157.668 220.36 157.832 220.221 158.002C220.084 158.164 219.946 158.326 219.804 158.493C218.48 160.604 218.649 163.135 218.848 165.527C219.273 166.973 220.194 167.997 221.485 168.75C223.827 169.62 226.244 169.742 228.708 169.926C230.666 170.101 232.432 170.536 234.302 171.13C236.93 171.951 239.534 172.512 242.286 171.973C243.193 171.412 243.887 170.753 244.465 169.849C244.991 167.273 243.965 165.306 242.579 163.184C241.788 162.08 240.977 160.991 240.167 159.901C238.826 158.064 237.836 156.23 237.012 154.102C236.016 154.102 235.209 154.723 234.346 155.189Z" fill="black"/>
<path d="M197.461 119.824C197.478 120.344 197.478 120.344 197.494 120.875C197.657 125.128 198.439 127.88 200.684 131.543C200.968 132.036 201.249 132.53 201.526 133.026C201.64 133.229 201.754 133.432 201.872 133.641C202.48 134.824 202.553 135.794 202.442 137.109C201.409 139.095 199.789 140.347 197.754 141.211C196.785 141.43 195.81 141.562 194.824 141.687C194.55 141.724 194.275 141.76 193.993 141.798C179.518 143.673 179.518 143.673 175.489 140.625C174.204 139.389 173.528 138.443 173.31 136.633C173.346 134.993 174.122 133.906 175.196 132.715C177.203 130.9 179.552 129.759 181.961 128.588C184.808 127.202 187.285 125.511 189.775 123.569C191.397 122.308 193.042 121.146 194.824 120.117C195.016 119.998 195.207 119.878 195.405 119.755C196.18 119.462 196.676 119.606 197.461 119.824ZM193.415 123.596C193.16 123.774 193.16 123.774 192.901 123.955C191.721 124.786 190.577 125.655 189.441 126.544C186.75 128.644 183.935 130.52 180.945 132.166C177.928 133.844 177.928 133.844 175.983 136.578C176.11 137.723 176.379 138.103 177.246 138.867C178.988 139.662 180.645 139.875 182.539 139.853C182.784 139.853 183.03 139.853 183.282 139.853C183.799 139.852 184.315 139.85 184.831 139.845C185.605 139.838 186.379 139.839 187.153 139.841C193.635 140.032 193.635 140.032 199.384 137.659C199.99 136.447 199.809 135.48 199.512 134.18C199.154 133.336 198.699 132.575 198.212 131.799C196.819 129.533 196.236 127.461 195.96 124.823C195.934 124.595 195.909 124.367 195.883 124.131C195.822 123.575 195.762 123.018 195.703 122.461C194.752 122.461 194.182 123.06 193.415 123.596Z" fill="black"/>
<path d="M79.3582 116.492C81.2998 118.662 81.2112 121.458 81.2258 124.201C81.2319 124.483 81.2379 124.765 81.2441 125.056C81.2557 127.171 80.9917 128.585 79.6511 130.28C76.2237 133.037 70.5474 133.491 66.2844 133.301C65.0747 133.115 64.2466 132.654 63.3811 131.791C61.9628 129.839 62.1711 126.794 62.4026 124.512C62.6979 123.695 62.947 123.382 63.5745 122.754C63.8645 122.658 64.1545 122.561 64.4534 122.461C64.4715 122.256 64.4896 122.051 64.5083 121.839C65.0264 120.006 66.2478 119.148 67.8042 118.177C70.9311 116.432 75.9463 114.564 79.3582 116.492ZM67.1725 121.308C66.4092 122.462 66.2112 123.734 66.2112 125.098C65.7278 125.195 65.2444 125.291 64.7463 125.391C64.3579 127.086 64.5234 128.236 65.3323 129.786C65.8909 130.471 65.8909 130.471 66.852 130.445C67.9542 130.418 67.9542 130.418 68.9005 130.072C70.4005 129.688 71.7777 129.774 73.3128 129.86C75.244 129.916 76.7759 129.419 78.2046 128.083C78.9905 126.465 78.8623 124.503 78.8638 122.736C78.8691 122.395 78.8691 122.395 78.8746 122.047C78.878 120.709 78.7761 119.604 78.2229 118.36C75.1696 116.833 69.4103 119.029 67.1725 121.308Z" fill="black"/>
<path d="M157.617 156.152C165.438 159.387 171.437 163.179 175.151 171.056C175.238 171.24 175.326 171.424 175.417 171.614C175.657 172.126 175.89 172.641 176.122 173.156C177.119 174.764 178.676 175.433 180.442 175.916C183.836 176.508 187.131 176.074 190.43 175.195C189.918 176.418 189.355 176.745 188.182 177.28C184.737 178.587 181.312 178.254 177.786 177.478C176.308 177.173 174.829 176.991 173.33 176.815C173.075 176.764 172.821 176.713 172.559 176.66C172.148 175.838 172.209 175.105 172.174 174.188C171.948 170.884 170.951 168.57 168.75 166.113C168.513 165.836 168.513 165.836 168.272 165.553C166.814 163.964 165.079 162.795 163.314 161.577C161.315 160.194 159.34 158.754 157.617 157.031C157.617 156.741 157.617 156.451 157.617 156.152Z" fill="black"/>
<path d="M109.063 143.435C109.57 143.848 109.57 143.848 109.863 144.434C108.419 144.266 107.145 143.956 105.775 143.469C105.383 143.332 104.99 143.195 104.596 143.058C104.392 142.987 104.188 142.915 103.978 142.842C95.8875 140.024 87.7123 138.488 79.1699 137.91C78.7667 137.881 78.7667 137.881 78.3554 137.85C78.1172 137.834 77.879 137.818 77.6336 137.802C77.0508 137.696 77.0508 137.696 76.4648 137.11C85.0768 132.394 101.615 138.426 109.063 143.435Z" fill="black"/>
<path d="M137.413 172.628C138.33 173.174 138.986 173.752 139.728 174.518C140.111 174.911 140.111 174.911 140.503 175.311C141.075 175.928 141.602 176.553 142.126 177.21C143.293 178.589 144.764 179.589 146.232 180.623C147.729 181.695 149.162 182.895 150 184.571C150.012 185.156 150.013 185.743 150 186.328C148.795 185.668 147.825 184.85 146.832 183.911C146.52 183.62 146.208 183.329 145.895 183.038C145.745 182.898 145.594 182.758 145.439 182.613C144.907 182.124 144.361 181.652 143.811 181.183C142.383 179.946 141.071 178.592 139.746 177.246C139.453 176.953 139.161 176.66 138.867 176.367C139.323 176.98 139.781 177.59 140.24 178.199C140.368 178.37 140.495 178.542 140.627 178.719C141.418 179.763 142.226 180.534 143.262 181.348C143.262 181.541 143.262 181.735 143.262 181.934C143.419 182 143.576 182.067 143.738 182.135C144.675 182.653 145.398 183.263 146.191 183.985C146.191 184.178 146.191 184.371 146.191 184.571C144.249 184.49 143.247 183.767 141.797 182.52C141.557 182.315 141.316 182.11 141.069 181.9C137.051 178.381 137.051 178.381 136.505 176.422C136.523 175.489 136.523 175.489 137.109 174.61C135.982 174.264 134.836 174.219 133.667 174.152C133.463 174.139 133.258 174.127 133.048 174.114C132.546 174.083 132.045 174.053 131.543 174.024C131.543 173.83 131.543 173.637 131.543 173.438C133.213 171.903 135.334 171.782 137.413 172.628Z" fill="black"/>
<path d="M64.4531 166.699C64.4531 166.892 64.4531 167.086 64.4531 167.285C64.1419 167.388 63.8307 167.491 63.5101 167.597C59.7549 168.868 59.7549 168.868 57.0693 171.678C56.6907 172.63 56.8887 173.338 57.1288 174.316C57.953 175.734 59.1323 176.415 60.6445 176.953C62.0032 177.295 63.3686 177.576 64.746 177.832C64.5527 177.608 64.3593 177.385 64.1601 177.154C63.2769 175.809 63.33 174.4 63.5742 172.851C63.9362 171.789 64.3454 170.809 65.039 169.922C65.6753 169.695 65.6753 169.695 66.2109 169.629C66.2328 170.77 66.1973 171.751 65.9179 172.851C65.7174 174.6 65.9288 175.798 66.862 177.297C67.1539 177.982 67.0529 178.317 66.7968 179.004C66.2334 179.567 65.2557 179.361 64.508 179.37C61.2477 179.368 58.2408 178.773 55.7704 176.514C54.8239 175.47 54.7263 174.259 54.7851 172.906C55.0463 170.932 55.9617 169.529 57.4355 168.215C59.5861 166.64 61.8561 166.134 64.4531 166.699Z" fill="black"/>
<path d="M89.9413 109.277C89.6484 110.156 89.6484 110.156 89.1173 110.436C88.9059 110.519 88.6944 110.602 88.4765 110.687C87.4371 111.163 87.4371 111.163 86.9567 112.225C86.9396 113.071 86.9396 113.071 87.3595 113.617C88.4789 114.35 89.6964 114.306 91.0033 114.367C93.49 114.535 95.9234 114.903 97.8515 116.601C98.5658 117.635 99.042 118.516 98.9867 119.787C98.7304 120.41 98.7304 120.41 98.1444 120.996C97.2421 121.129 96.3273 121.093 95.4162 121.087C95.1532 121.087 94.8902 121.086 94.6193 121.085C92.5124 121.052 90.4649 120.873 88.4765 120.117C88.3798 119.923 88.2831 119.73 88.1835 119.531C88.3696 119.534 88.5556 119.537 88.7473 119.54C89.5969 119.552 90.4466 119.56 91.2963 119.568C91.589 119.572 91.8817 119.577 92.1832 119.582C93.7033 119.592 94.9655 119.561 96.3866 118.945C96.375 118.382 96.375 118.382 96.0937 117.773C94.5053 116.724 92.8111 116.644 90.9667 116.455C88.7979 116.233 87.1613 115.973 85.2904 114.788C84.7316 113.888 84.8142 112.926 84.9609 111.914C85.4442 110.826 86.0053 110.199 87.0116 109.57C88.0292 109.231 88.8751 109.257 89.9413 109.277Z" fill="black"/>
<path d="M107.812 110.742C108.597 110.678 109.106 110.638 109.79 111.053C110.486 112.132 110.506 113.29 110.321 114.532C110.267 114.732 110.212 114.931 110.156 115.137C110.419 115.182 110.419 115.182 110.687 115.228C111.443 115.465 111.716 115.692 112.207 116.308C112.574 118.269 112.132 120.368 111.328 122.168C110.534 123.166 109.965 123.761 108.691 123.926C106.88 123.472 105.489 122.719 104.297 121.289C104.491 121.331 104.686 121.373 104.886 121.417C105.274 121.499 105.274 121.499 105.67 121.582C106.053 121.663 106.053 121.663 106.443 121.747C107.208 121.872 107.917 121.897 108.691 121.875C109.622 120.337 109.763 118.941 109.863 117.187C109.374 117.26 109.374 117.26 108.875 117.334C107.91 117.45 106.953 117.525 105.981 117.553C105.626 117.565 105.626 117.565 105.263 117.576C104.427 117.457 104.027 117.177 103.418 116.601C103.418 116.408 103.418 116.215 103.418 116.015C103.707 115.966 103.997 115.916 104.295 115.864C104.67 115.793 105.045 115.722 105.432 115.649C105.806 115.581 106.18 115.513 106.565 115.443C107.529 115.234 107.529 115.234 107.94 114.583C108.283 113.303 108.215 112 107.812 110.742Z" fill="black"/>
<path d="M144.727 127.148C145.56 127.42 146.378 127.687 147.179 128.042C150.646 129.294 156.197 128.079 159.668 127.148C160.547 128.247 160.547 128.247 160.547 128.906C159.29 129.196 158.033 129.486 156.738 129.785C157.112 129.782 157.486 129.778 157.871 129.775C158.36 129.772 158.849 129.769 159.338 129.767C159.708 129.763 159.708 129.763 160.086 129.759C160.322 129.758 160.558 129.758 160.801 129.757C161.019 129.755 161.237 129.753 161.461 129.752C162.012 129.785 162.012 129.785 162.598 130.078C162.598 130.271 162.598 130.465 162.598 130.664C160.548 131.391 158.726 131.686 156.555 131.653C156.276 131.65 155.997 131.647 155.709 131.644C152.175 131.57 148.333 131.393 145.728 128.724C144.727 127.574 144.727 127.574 144.727 127.148Z" fill="black"/>
<path d="M95.6543 165.582C96.7313 165.832 96.8471 165.956 97.5586 166.699C98.0504 167.004 98.0504 167.004 98.5897 167.259C98.7906 167.36 98.9915 167.461 99.1985 167.565C99.5197 167.726 99.5197 167.726 99.8474 167.889C104.691 170.388 108.856 173.556 111.914 178.125C111.769 178.415 111.769 178.415 111.621 178.711C111.463 178.565 111.305 178.419 111.142 178.268C109.574 176.846 107.961 175.573 106.219 174.371C105.967 174.195 105.714 174.02 105.454 173.838C103.586 172.552 101.676 171.355 99.7292 170.194C97.6527 168.946 95.695 167.555 93.75 166.113C94.6289 165.527 94.6289 165.527 95.6543 165.582Z" fill="black"/>
<path d="M141.284 97.8145C141.666 97.8138 142.049 97.813 142.442 97.8122C143.537 97.8298 144.622 97.9055 145.714 97.9908C148.534 98.2029 151.357 98.2461 154.184 98.3059C154.891 98.3212 155.598 98.3379 156.305 98.3547C156.515 98.3587 156.726 98.3626 156.943 98.3667C161.164 98.4683 161.164 98.4683 162.012 99.316C161.498 99.8292 160.78 99.649 160.083 99.6515C159.733 99.6534 159.382 99.6553 159.021 99.6572C158.638 99.6575 158.255 99.6578 157.861 99.6582C157.464 99.6591 157.067 99.6601 156.67 99.6611C155.834 99.6629 154.998 99.6634 154.161 99.6632C153.101 99.6632 152.041 99.6672 150.981 99.6723C150.159 99.6756 149.336 99.6761 148.513 99.676C147.936 99.6765 147.359 99.6796 146.781 99.6829C144.044 99.6761 141.192 99.6028 138.574 98.7301C138.574 98.5367 138.574 98.3433 138.574 98.1441C139.445 97.7086 140.33 97.8091 141.284 97.8145Z" fill="black"/>
<path d="M79.6875 171.094C81.331 171.224 82.7113 171.484 84.2571 172.044C85.3053 172.374 86.3719 172.533 87.4569 172.697C88.1745 172.85 88.7186 173.08 89.3555 173.438C89.3555 173.631 89.3555 173.824 89.3555 174.023C87.4823 174.96 84.6622 174.413 82.7454 173.822C81.4033 173.319 80.5393 172.836 79.6875 171.68C79.6875 171.486 79.6875 171.293 79.6875 171.094Z" fill="black"/>
<path d="M224.872 155.072C225.085 155.087 225.299 155.101 225.519 155.115C226.728 155.201 227.909 155.346 229.102 155.567C229.102 155.663 229.102 155.76 229.102 155.86C229.778 155.956 230.455 156.053 231.152 156.153C231.152 156.249 231.152 156.346 231.152 156.446C230.923 156.441 230.695 156.436 230.459 156.432C229.414 156.413 228.37 156.402 227.325 156.391C226.965 156.383 226.605 156.376 226.234 156.368C223.214 156.322 223.214 156.322 220.671 157.795C220.559 157.948 220.446 158.101 220.331 158.258C220.131 158.53 219.932 158.802 219.727 159.082C219.545 158.895 219.364 158.708 219.177 158.515C218.606 157.899 218.606 157.899 217.969 157.618C218.312 157.284 218.661 156.955 219.012 156.629C219.206 156.445 219.4 156.262 219.6 156.073C221.256 154.897 222.939 154.913 224.872 155.072Z" fill="black"/>
<path d="M58.8867 153.516C59.1133 153.653 59.3399 153.791 59.5734 153.933C65.263 157.334 70.6944 157.451 77.1973 157.379C77.8957 157.375 78.5942 157.371 79.2927 157.367C80.9868 157.358 82.6809 157.343 84.375 157.324C84.375 157.421 84.375 157.518 84.375 157.617C66.9837 159.416 66.9837 159.416 60.1685 155.255C59.4703 154.686 59.2493 154.316 58.8867 153.516Z" fill="black"/>
<path d="M140.224 186.704C140.843 186.891 141.461 187.057 142.09 187.207C141.943 187.775 141.943 187.775 141.504 188.379C139.675 188.911 138.361 188.519 136.589 187.91C135.938 187.5 135.938 187.5 135.698 186.724C135.681 186.497 135.663 186.27 135.645 186.035C137.006 185.354 138.846 186.274 140.224 186.704Z" fill="black"/>
<path d="M179.046 163.722C180.895 163.648 182.523 164.098 184.277 164.649C183.508 165.784 183.508 165.784 182.52 166.114C181.778 165.97 181.778 165.97 180.908 165.729C179.211 165.278 177.513 164.938 175.781 164.649C175.878 164.455 175.975 164.262 176.074 164.063C177.07 163.885 178.04 163.799 179.046 163.722Z" fill="black"/>
<path d="M70.8984 121.289C70.8018 121.773 70.7051 122.256 70.6055 122.754C71.1855 123.238 71.7656 123.721 72.3633 124.219C72.2666 124.413 72.1699 124.606 72.0703 124.805C71.496 124.673 70.9224 124.539 70.3491 124.402C70.0296 124.328 69.7101 124.253 69.381 124.176C68.5547 123.926 68.5547 123.926 67.9688 123.34C68.0237 122.608 68.0237 122.608 68.2617 121.875C69.2681 121.204 69.7223 121.237 70.8984 121.289Z" fill="black"/>
<path d="M222.363 154.98C223.157 155.022 223.95 155.065 224.744 155.109C225.078 155.126 225.078 155.126 225.419 155.144C226.666 155.213 227.872 155.333 229.102 155.566C229.102 155.663 229.102 155.76 229.102 155.859C229.778 155.956 230.455 156.053 231.152 156.152C231.152 156.249 231.152 156.346 231.152 156.445C225.302 156.499 225.302 156.499 222.656 156.152C222.56 155.766 222.463 155.379 222.363 154.98Z" fill="black"/>
<path d="M177.128 164.034C177.564 164.036 178 164.04 178.436 164.044C178.659 164.046 178.881 164.047 179.11 164.048C179.66 164.052 180.211 164.057 180.762 164.063C180.665 164.353 180.568 164.643 180.469 164.942C179.852 164.958 179.236 164.969 178.619 164.978C178.104 164.989 178.104 164.989 177.579 164.999C176.66 164.942 176.66 164.942 175.781 164.356C176.074 164.063 176.074 164.063 177.128 164.034Z" fill="black"/>
<path d="M190.137 175.195C190.137 175.485 190.137 175.775 190.137 176.074C189.323 176.857 188.606 177.092 187.5 177.246C187.403 176.956 187.307 176.666 187.207 176.367C186.917 176.271 186.627 176.174 186.328 176.074C187.585 175.784 188.842 175.494 190.137 175.195Z" fill="black"/>
<path d="M104.297 121.289C105.747 121.579 107.197 121.869 108.691 122.168C108.305 122.555 107.918 122.941 107.52 123.34C105.904 122.927 105.588 122.58 104.297 121.289Z" fill="black"/>
<path d="M96.6797 165.82C96.7764 166.11 96.873 166.4 96.9727 166.699C96.5859 166.989 96.1992 167.279 95.8008 167.578C95.124 167.095 94.4473 166.611 93.75 166.113C94.878 165.361 95.3864 165.576 96.6797 165.82Z" fill="black"/>
<path d="M89.9414 109.277C89.6484 110.156 89.6484 110.156 89.1071 110.434C88.893 110.505 88.6789 110.577 88.4583 110.65C88.1359 110.761 88.1359 110.761 87.8071 110.873C87.6413 110.927 87.4755 110.98 87.3047 111.035C87.208 110.551 87.1113 110.068 87.0117 109.57C88.0293 109.231 88.8752 109.257 89.9414 109.277Z" fill="black"/>
<path d="M215.918 156.738C216.015 157.028 216.111 157.318 216.211 157.617C215.771 158.386 215.771 158.386 215.039 159.082C213.94 159.32 213.94 159.32 212.988 159.375C213.831 158.209 214.694 157.49 215.918 156.738Z" fill="black"/>
<path d="M133.997 172.338C134.154 172.411 134.311 172.483 134.473 172.558C134.086 172.848 133.699 173.138 133.301 173.437C134.171 173.582 134.171 173.582 135.059 173.73C135.059 173.827 135.059 173.923 135.059 174.023C133.898 174.023 132.738 174.023 131.543 174.023C131.543 173.83 131.543 173.636 131.543 173.437C133.049 172.239 133.049 172.239 133.997 172.338Z" fill="black"/>
<path d="M87.5977 166.406C88.3302 167.043 88.6044 167.499 88.7695 168.457C89.1563 168.554 89.543 168.65 89.9414 168.75C88.8566 168.849 88.3607 168.89 87.4878 168.201C87.0117 167.578 87.0117 167.578 87.0117 166.992C87.2051 166.992 87.3984 166.992 87.5977 166.992C87.5977 166.799 87.5977 166.605 87.5977 166.406Z" fill="black"/>
<path d="M109.57 176.074C110.083 176.111 110.083 176.111 110.742 176.367C111.401 177.264 111.401 177.264 111.914 178.125C111.817 178.318 111.721 178.512 111.621 178.711C111.277 178.439 110.936 178.164 110.596 177.887C110.31 177.658 110.31 177.658 110.019 177.423C109.57 176.953 109.57 176.953 109.57 176.074Z" fill="black"/>
<path d="M88.1836 119.531C88.6598 119.573 89.1358 119.616 89.6118 119.659C89.8769 119.683 90.142 119.707 90.4152 119.732C91.1133 119.824 91.1133 119.824 91.6992 120.117C91.6992 120.311 91.6992 120.504 91.6992 120.703C89.1881 120.452 89.1881 120.452 88.1836 119.824C88.1836 119.728 88.1836 119.631 88.1836 119.531Z" fill="black"/>
<path d="M123.34 166.113C123.533 166.21 123.727 166.307 123.926 166.406C123.112 167.461 122.244 168.407 121.289 169.336C121.096 169.239 120.902 169.143 120.703 169.043C122.169 166.851 122.169 166.851 123.34 166.113Z" fill="black"/>
<path d="M70.3125 123.34C71.0083 123.413 71.0083 123.413 71.7773 123.633C72.1619 124.237 72.1619 124.237 72.3633 124.805C71.6865 124.611 71.0098 124.418 70.3125 124.219C70.3125 123.929 70.3125 123.639 70.3125 123.34Z" fill="black"/>
<path d="M83.7891 107.52C83.9824 107.616 84.1758 107.713 84.375 107.812C83.6431 108.754 82.8896 109.622 82.0312 110.449C81.9346 110.256 81.8379 110.063 81.7383 109.863C82.415 109.09 83.0918 108.316 83.7891 107.52Z" fill="black"/>
<path d="M66.3517 156.809C66.7443 156.901 66.7443 156.901 67.1448 156.995C67.4088 157.054 67.6727 157.114 67.9447 157.175C68.2467 157.249 68.2467 157.249 68.5547 157.324C68.5547 157.421 68.5547 157.518 68.5547 157.617C67.2316 157.64 66.0378 157.647 64.7461 157.324C65.625 156.738 65.625 156.738 66.3517 156.809Z" fill="black"/>
<path d="M176.074 164.062C176.751 164.062 177.428 164.062 178.125 164.062C178.125 164.353 178.125 164.643 178.125 164.941C177.352 164.845 176.578 164.748 175.781 164.648C175.878 164.455 175.975 164.262 176.074 164.062Z" fill="black"/>
<path d="M214.16 157.91C214.354 158.007 214.547 158.104 214.746 158.203C214.843 158.493 214.939 158.783 215.039 159.082C214.362 159.179 213.686 159.275 212.988 159.375C213.375 158.892 213.762 158.408 214.16 157.91Z" fill="black"/>
<path d="M60.9375 113.672C61.1309 113.769 61.3242 113.865 61.5234 113.965C60.9434 114.642 60.3633 115.318 59.7656 116.016C59.5723 115.822 59.3789 115.629 59.1797 115.43C59.7656 114.844 60.3516 114.258 60.9375 113.672Z" fill="black"/>
</svg>
