<svg width="300" height="300" viewBox="0 0 300 300" fill="none" xmlns="http://www.w3.org/2000/svg">
<path d="M8.49562 121.875C8.85638 122.583 9.17923 123.282 9.48439 124.017C10.4226 125.633 12.1693 126.313 13.7691 127.148C14.1237 127.339 14.4781 127.53 14.8322 127.721C15.7565 128.219 16.6841 128.711 17.6127 129.201C18.4879 129.664 19.3602 130.132 20.2327 130.6C21.2532 131.147 22.2739 131.694 23.2958 132.239C25.6399 133.49 27.9663 134.769 30.2852 136.066C33.1183 137.65 35.9693 139.195 38.8362 140.717C41.7834 142.281 44.7173 143.866 47.6274 145.499C52.1863 148.057 56.76 150.579 61.3773 153.03C63.7287 154.278 66.0712 155.539 68.3933 156.841C70.1641 157.833 71.9493 158.797 73.7361 159.76C76.0647 161.015 78.3769 162.295 80.6758 163.605C83.3816 165.146 86.115 166.629 88.8606 168.097C90.9339 169.209 92.988 170.349 95.0313 171.515C97.5193 172.933 100.03 174.305 102.557 175.653C102.819 175.793 102.819 175.793 103.086 175.935C103.608 176.214 104.131 176.492 104.653 176.771C109.121 179.154 113.551 181.604 117.973 184.069C120.581 185.519 123.206 186.935 125.837 188.343C127.865 189.432 129.873 190.551 131.872 191.693C134.766 193.346 137.703 194.911 140.65 196.465C143.435 197.935 146.191 199.444 148.924 201.009C151.243 202.331 153.593 203.59 155.95 204.84C158.516 206.201 161.075 207.569 163.608 208.99C165.379 209.981 167.164 210.945 168.951 211.908C171.268 213.157 173.568 214.431 175.854 215.735C178.553 217.272 181.281 218.751 184.022 220.212C186.118 221.329 188.209 222.451 190.283 223.608C190.486 223.721 190.69 223.834 190.899 223.951C192.029 224.579 193.152 225.218 194.272 225.864C198.016 228.006 201.234 229.692 205.664 228.809C207.826 228.204 209.5 226.811 211.243 225.446C212.427 224.524 213.624 223.62 214.819 222.711C215.22 222.405 215.22 222.405 215.629 222.093C217.185 220.906 218.745 219.726 220.312 218.555C222.095 217.221 223.87 215.876 225.64 214.526C225.898 214.33 226.155 214.134 226.42 213.932C227.766 212.906 229.11 211.878 230.455 210.851C235.156 207.259 235.156 207.259 237.332 205.693C240.95 203.081 244.518 200.406 248.055 197.686C251.487 195.052 254.932 192.433 258.398 189.844C258.955 189.426 259.513 189.008 260.07 188.59C260.47 188.29 260.87 187.99 261.27 187.69C262.258 186.949 263.245 186.208 264.231 185.466C266.594 183.689 268.969 181.928 271.351 180.176C272.604 179.254 273.854 178.328 275.097 177.393C276.561 176.291 278.034 175.202 279.51 174.115C279.745 173.942 279.981 173.768 280.223 173.59C281.456 172.682 282.69 171.775 283.924 170.869C284.169 170.689 284.415 170.509 284.667 170.323C285.131 169.982 285.595 169.642 286.06 169.301C286.704 168.827 287.347 168.35 287.988 167.871C288.224 167.695 288.461 167.518 288.705 167.337C288.939 167.159 289.173 166.982 289.414 166.799C289.625 166.639 289.836 166.48 290.053 166.316C291.202 165.319 291.661 164.34 292.089 162.891C292.186 162.891 292.283 162.891 292.382 162.891C292.403 165.234 292.418 167.577 292.428 169.92C292.432 171.008 292.439 172.096 292.449 173.184C292.458 174.234 292.463 175.285 292.466 176.335C292.467 176.735 292.471 177.136 292.475 177.536C292.482 178.098 292.482 178.659 292.482 179.221C292.484 179.54 292.486 179.86 292.488 180.189C292.287 181.837 291.337 182.784 290.102 183.785C289.414 184.306 288.706 184.762 287.973 185.218C286.264 186.297 284.606 187.438 282.952 188.599C282.356 189.015 281.76 189.432 281.164 189.848C280.877 190.049 280.589 190.25 280.294 190.457C279.248 191.185 278.199 191.907 277.148 192.627C275.256 193.924 273.372 195.234 271.49 196.545C269.409 197.995 267.323 199.438 265.228 200.867C262.348 202.831 259.493 204.832 256.64 206.836C253.726 208.881 250.809 210.924 247.872 212.936C246.313 214.005 244.765 215.088 243.219 216.174C241.287 217.53 239.346 218.873 237.396 220.203C234.806 221.969 232.244 223.772 229.687 225.586C226.624 227.757 223.549 229.91 220.464 232.051C218.968 233.091 217.476 234.135 215.991 235.191C214.054 236.567 212.103 237.919 210.131 239.246C209.911 239.395 209.691 239.544 209.464 239.698C206.727 241.526 204.033 242.096 200.763 241.571C197.541 240.755 194.765 238.895 191.92 237.239C190.455 236.397 188.969 235.596 187.481 234.796C186.891 234.478 186.302 234.16 185.712 233.842C185.424 233.686 185.135 233.531 184.838 233.371C179.347 230.41 173.889 227.389 168.469 224.3C165.503 222.611 162.524 220.967 159.493 219.396C158.016 218.629 156.554 217.842 155.108 217.017C152.951 215.786 150.762 214.615 148.571 213.446C145.67 211.898 142.784 210.326 139.914 208.721C138.298 207.82 136.678 206.925 135.058 206.03C134.876 205.93 134.695 205.829 134.507 205.726C131.614 204.128 128.707 202.558 125.793 200.998C123.775 199.914 121.776 198.799 119.787 197.662C116.893 196.009 113.956 194.445 111.009 192.89C108.224 191.42 105.468 189.911 102.735 188.347C100.416 187.025 98.0664 185.766 95.7088 184.515C92.7387 182.939 89.7817 181.345 86.8495 179.699C82.3479 177.175 77.8321 174.681 73.2836 172.243C71.2812 171.168 69.2894 170.077 67.3059 168.968C65.5514 167.989 63.7855 167.031 62.0173 166.077C59.3541 164.639 56.7008 163.184 54.0523 161.719C51.1879 160.135 48.3163 158.565 45.4357 157.011C42.968 155.677 40.5135 154.32 38.0596 152.961C35.4071 151.493 32.7414 150.052 30.0654 148.627C27.32 147.164 24.6001 145.666 21.9008 144.12C20.3357 143.228 18.7591 142.363 17.1657 141.523C16.9807 141.426 16.7957 141.328 16.6052 141.227C15.7007 140.749 14.7948 140.275 13.8864 139.804C9.30451 137.394 9.30451 137.394 8.49562 135.352C8.42516 134.699 8.42516 134.699 8.4291 133.981C8.42914 133.712 8.42919 133.442 8.42923 133.164C8.43226 132.875 8.43528 132.587 8.4384 132.289C8.43923 131.992 8.44006 131.694 8.44091 131.388C8.44419 130.438 8.45154 129.489 8.459 128.54C8.46194 127.896 8.46461 127.252 8.46701 126.608C8.47346 125.03 8.48327 123.453 8.49562 121.875Z" fill="black"/>
<path d="M78.333 135.627C78.7506 135.853 79.1684 136.08 79.5863 136.306C80.611 136.861 81.6333 137.42 82.655 137.981C83.4248 138.403 84.197 138.82 84.9694 139.237C87.4883 140.6 89.9929 141.988 92.4943 143.382C92.8242 143.566 93.1542 143.75 93.4941 143.94C93.825 144.124 94.1559 144.309 94.4969 144.499C97.0553 145.921 99.6315 147.307 102.215 148.683C104.635 149.972 107.036 151.29 109.424 152.637C113.002 154.654 116.619 156.595 120.245 158.526C121.986 159.453 123.725 160.385 125.464 161.316C125.804 161.498 126.144 161.68 126.495 161.868C131.188 164.384 135.868 166.925 140.541 169.477C142.52 170.557 144.502 171.632 146.485 172.705C147.368 173.184 148.251 173.662 149.133 174.14C149.705 174.45 150.276 174.759 150.848 175.068C152.718 176.079 154.585 177.097 156.446 178.125C156.714 178.273 156.981 178.42 157.257 178.573C158.039 179.006 158.817 179.443 159.595 179.883C159.831 180.013 160.067 180.144 160.31 180.278C160.634 180.463 160.634 180.463 160.964 180.652C161.153 180.759 161.342 180.865 161.537 180.975C162.119 181.432 162.331 181.835 162.598 182.52C162.653 183.326 162.653 183.326 162.305 184.278C161.504 185.164 160.624 185.908 159.668 186.621C159.435 186.815 159.435 186.815 159.197 187.012C157.356 188.384 155.506 188.315 153.278 188.288C152.924 188.296 152.571 188.304 152.206 188.312C149.633 188.305 148.045 187.694 145.899 186.328C145.427 186.075 144.953 185.828 144.475 185.586C141.476 184.036 138.519 182.427 135.586 180.756C132.41 178.949 129.194 177.219 125.977 175.489C122.224 173.47 118.488 171.43 114.784 169.322C112.319 167.924 109.826 166.579 107.328 165.241C105.516 164.27 103.711 163.29 101.917 162.287C99.9545 161.189 97.9812 160.114 96.0027 159.046C90.8306 156.252 85.6893 153.403 80.5523 150.545C78.68 149.504 76.8059 148.467 74.9308 147.431C74.5634 147.228 74.196 147.025 73.8287 146.822C71.8915 145.749 69.951 144.686 67.9933 143.651C67.5183 143.399 67.5183 143.399 67.0338 143.142C66.445 142.83 65.8549 142.521 65.2631 142.215C63.5747 141.319 61.8884 140.351 60.645 138.868C60.5372 137.617 60.7273 137.091 61.4873 136.103C61.7851 135.844 62.092 135.595 62.4028 135.352C62.6442 135.157 62.8855 134.962 63.1341 134.761C68.2873 130.788 73.1375 132.76 78.333 135.627Z" fill="black"/>
<path d="M224.175 170.434C226.554 171.48 228.815 172.791 231.082 174.054C232.74 174.977 234.422 175.837 236.132 176.66C235.842 176.225 235.842 176.225 235.546 175.781C235.505 175.019 235.491 174.289 235.51 173.529C235.512 173.323 235.515 173.118 235.518 172.906C235.525 172.399 235.535 171.893 235.546 171.386C235.74 171.386 235.933 171.386 236.132 171.386C236.132 171.58 236.132 171.773 236.132 171.972C236.338 172.05 236.544 172.128 236.757 172.209C237.645 172.578 238.476 173.005 239.324 173.461C239.652 173.638 239.981 173.814 240.319 173.996C240.489 174.088 240.658 174.18 240.833 174.274C241.346 174.551 241.859 174.827 242.372 175.102C243.774 175.858 245.151 176.602 246.463 177.506C247.672 178.28 248.787 178.351 250.195 178.418C250.628 178.471 251.062 178.525 251.495 178.58C254.388 178.831 256.185 178.458 258.471 176.605C259.055 176.108 259.629 175.602 260.197 175.087C262.409 173.144 262.409 173.144 263.378 173.144C263.452 173.546 263.518 173.949 263.58 174.353C263.636 174.689 263.636 174.689 263.693 175.033C263.654 176.365 263.073 177.259 262.146 178.184C260.577 179.417 258.99 180.618 257.372 181.787C257.197 181.914 257.021 182.041 256.84 182.172C254.4 183.904 251.339 183.693 248.437 183.398C247.328 183.055 246.433 182.632 245.507 181.933C246.873 182.914 246.873 182.914 247.265 183.673C247.265 184.563 246.885 185.013 246.386 185.742C245.654 186.441 244.879 187.048 244.079 187.668C243.158 188.365 243.158 188.365 242.321 189.135C239.872 191.16 237.764 191.424 234.651 191.213C232.711 190.997 231.317 190.305 229.687 189.258C229.103 188.925 228.514 188.602 227.924 188.279C227.251 187.91 226.58 187.535 225.91 187.16C224.248 186.232 222.573 185.328 220.898 184.424C220.007 183.942 219.117 183.459 218.227 182.977C217.682 182.682 217.137 182.387 216.593 182.093C215.878 181.706 215.165 181.316 214.452 180.926C214.248 180.816 214.043 180.706 213.832 180.592C209.953 178.456 209.953 178.456 209.58 177.217C209.517 176.53 209.518 176.139 209.765 175.488C210.903 174.155 212.309 173.203 213.738 172.21C214.07 171.976 214.07 171.976 214.408 171.737C217.408 169.636 220.644 169.178 224.175 170.434ZM237.597 177.539C238.234 178.271 238.69 178.546 239.648 178.711C239.011 177.978 238.555 177.704 237.597 177.539ZM240.234 179.004C240.524 179.294 240.814 179.584 241.113 179.883C241.306 179.786 241.499 179.689 241.699 179.59C240.973 179.3 240.973 179.3 240.234 179.004ZM242.285 180.175C242.865 180.466 242.865 180.466 243.456 180.761C243.36 180.568 243.263 180.375 243.163 180.175C242.873 180.175 242.583 180.175 242.285 180.175Z" fill="black"/>
<path d="M60.6453 140.039C60.8462 140.157 61.0471 140.275 61.2541 140.397C63.7015 141.817 66.1864 143.159 68.6836 144.489C71.5359 146.007 74.3632 147.563 77.1702 149.165C79.6161 150.556 82.0912 151.889 84.5713 153.218C86.3502 154.172 88.1247 155.132 89.8873 156.116C90.0892 156.228 90.2912 156.341 90.4993 156.457C90.9379 156.702 91.3765 156.947 91.8152 157.192C93.4349 158.094 95.0575 158.991 96.6805 159.888C96.8624 159.988 97.0443 160.089 97.2317 160.192C99.7978 161.609 102.373 163.008 104.957 164.392C107.758 165.893 110.536 167.43 113.304 168.99C115.381 170.158 117.47 171.301 119.569 172.43C121.843 173.655 124.1 174.905 126.344 176.184C128.868 177.622 131.416 179.011 133.979 180.377C137.092 182.036 140.189 183.718 143.263 185.449C143.463 185.561 143.663 185.674 143.869 185.789C144.449 186.114 145.028 186.441 145.606 186.768C145.933 186.952 146.259 187.136 146.595 187.326C147.364 187.793 147.364 187.793 147.95 188.379C148.658 188.466 149.331 188.517 150.042 188.539C150.251 188.546 150.461 188.553 150.677 188.561C151.355 188.58 152.033 188.591 152.711 188.599C152.939 188.602 153.166 188.605 153.401 188.609C156.332 188.63 158.762 188.544 161.034 186.491C161.371 186.155 161.694 185.804 162.013 185.449C162.109 185.449 162.206 185.449 162.305 185.449C162.614 188.11 162.614 188.11 161.942 189.336C161.415 189.952 160.867 190.483 160.255 191.016C160.04 191.207 159.825 191.398 159.604 191.595C157.495 193.352 155.551 193.758 152.857 193.762C152.628 193.769 152.399 193.777 152.163 193.784C148.591 193.801 145.56 191.907 142.512 190.247C142.119 190.035 141.727 189.823 141.334 189.612C138.648 188.162 135.972 186.692 133.31 185.197C132.271 184.614 131.23 184.033 130.189 183.453C129.974 183.334 129.76 183.215 129.539 183.092C127.707 182.074 125.863 181.079 124.018 180.084C121.701 178.835 119.402 177.561 117.115 176.257C114.487 174.76 111.831 173.32 109.162 171.898C106.51 170.484 103.87 169.051 101.24 167.596C101.064 167.499 100.889 167.402 100.708 167.302C99.8184 166.81 98.9292 166.318 98.0402 165.825C96.4465 164.942 94.851 164.063 93.2557 163.183C92.3728 162.696 91.4899 162.209 90.6071 161.722C90.4322 161.626 90.2572 161.529 90.077 161.43C89 160.836 87.9233 160.241 86.8468 159.645C83.3263 157.699 79.8036 155.757 76.2642 153.845C73.6216 152.417 70.9857 150.979 68.3671 149.507C67.5882 149.072 66.8066 148.641 66.0252 148.21C65.4647 147.898 64.9043 147.585 64.344 147.272C64.0808 147.128 63.8175 146.984 63.5462 146.835C62.2319 146.095 61.1432 145.474 60.3523 144.141C60.2379 142.699 60.3962 141.463 60.6453 140.039Z" fill="black"/>
<path d="M29.6635 109.79C29.9248 109.783 30.1861 109.775 30.4554 109.768C32.8755 110.028 35.0528 111.403 37.1708 112.519C37.4957 112.689 37.8207 112.859 38.1555 113.034C40.2162 114.118 42.2618 115.225 44.2917 116.365C46.1192 117.391 47.9608 118.39 49.8051 119.385C61.7925 125.868 61.7925 125.868 62.6957 127.442C62.8433 128.165 62.8433 128.165 62.6957 128.907C62.0628 129.575 62.0628 129.575 61.2125 130.225C60.9172 130.452 60.6219 130.678 60.3176 130.912C59.8995 131.224 59.8995 131.224 59.473 131.543C59.2789 131.704 59.0848 131.864 58.8848 132.029C57.6732 132.998 56.5921 133.266 55.0785 133.301C54.8406 133.309 54.6027 133.317 54.3575 133.325C53.5223 133.339 52.691 133.319 51.8558 133.301C51.5504 133.303 51.2449 133.305 50.9302 133.306C48.0962 133.236 46.1761 132.378 43.7809 130.939C43.4152 130.727 43.0491 130.516 42.6825 130.306C41.9215 129.869 41.1627 129.428 40.4052 128.985C38.7378 128.014 37.0442 127.091 35.3516 126.165C34.4622 125.677 33.5746 125.187 32.687 124.696C32.3574 124.514 32.0278 124.332 31.6882 124.145C29.8198 123.113 27.9529 122.078 26.0888 121.038C25.4426 120.678 24.7955 120.319 24.1486 119.961C23.7163 119.72 23.2841 119.479 22.8519 119.239C22.6534 119.129 22.4548 119.019 22.2502 118.906C21.4877 118.48 20.8362 118.102 20.2152 117.481C20.0553 116.537 19.9865 116.037 20.2152 115.137C20.8513 114.265 21.6807 113.703 22.559 113.086C22.7317 112.964 22.9044 112.842 23.0824 112.717C27.1945 109.833 27.1945 109.833 29.6635 109.79Z" fill="black"/>
<path d="M50.8187 97.6329C51.6266 98.0536 52.4239 98.4911 53.2183 98.9368C53.9606 99.3465 54.7114 99.7352 55.4663 100.121C58.6279 101.739 61.7416 103.427 64.8229 105.192C66.313 106.044 67.811 106.874 69.3286 107.677C69.8092 107.931 69.8092 107.931 70.2997 108.192C70.9163 108.517 71.5344 108.84 72.154 109.16C74.8189 110.57 74.8189 110.57 75.5862 111.914C75.6424 112.946 75.5868 113.607 74.9156 114.425C72.9837 116.174 70.8724 117.517 68.262 117.774C67.8836 117.814 67.8836 117.814 67.4976 117.856C62.2356 118.349 58.903 117.297 54.4843 114.502C53.0533 113.619 51.5652 112.847 50.0796 112.061C47.6799 110.766 45.2951 109.445 42.9202 108.106C42.5083 107.874 42.5083 107.874 42.0881 107.637C40.8849 106.955 39.6863 106.265 38.5016 105.551C38.3159 105.44 38.1301 105.328 37.9388 105.213C37.5002 104.883 37.5002 104.883 37.1523 104.151C37.2418 102.958 37.836 102.191 38.6893 101.38C46.2827 95.4574 46.2827 95.4574 50.8187 97.6329Z" fill="black"/>
<path d="M71.85 87.2873C72.2104 87.4841 72.571 87.6808 72.9317 87.8772C73.6609 88.2747 74.3892 88.6736 75.1172 89.0734C76.0963 89.6101 77.0811 90.1357 78.0676 90.6587C78.6379 90.9631 79.2082 91.2676 79.7785 91.572C80.0367 91.7077 80.2949 91.8435 80.561 91.9833C84.3346 94.0169 84.3346 94.0169 84.997 95.82C84.9523 96.8697 84.684 97.2914 84.0815 98.1455C83.4063 98.7165 83.4063 98.7165 82.6532 99.2258C82.4062 99.3961 82.1593 99.5664 81.9048 99.7419C78.4742 101.812 72.305 101.784 68.4887 100.929C67.4361 100.562 66.5152 99.998 65.5917 99.3819C64.6775 98.7911 63.7226 98.2732 62.7734 97.7413C61.9717 97.2902 61.1752 96.8311 60.3796 96.3693C59.4657 95.84 58.5485 95.3193 57.6216 94.8129C57.4339 94.7094 57.2462 94.6059 57.0528 94.4993C56.5629 94.23 56.0715 93.9635 55.5799 93.6971C54.7164 93.1194 54.1907 92.5603 53.6127 91.7001C53.5211 90.8762 53.5211 90.8762 53.9057 89.9423C59.4182 83.7027 64.9101 83.4529 71.85 87.2873Z" fill="black"/>
<path d="M203.32 153.223C203.563 153.552 203.563 153.552 203.812 153.889C206.07 156.542 209.293 157.526 212.64 157.855C214.673 157.968 216.564 157.724 218.554 157.324C218.971 157.242 218.971 157.242 219.395 157.157C219.601 157.116 219.807 157.074 220.019 157.031C219.96 158.35 219.842 159.58 219.433 160.84C218.631 161.543 217.828 161.789 216.796 162.012C216.458 162.09 216.458 162.09 216.112 162.171C215.139 162.338 214.174 162.405 213.189 162.469C212.822 162.494 212.454 162.519 212.076 162.544C211.797 162.562 211.517 162.579 211.23 162.598C211.484 162.749 211.737 162.9 211.999 163.055C213.453 164.036 214.525 165.145 215.075 166.827C215.019 168.44 214.511 169.557 213.379 170.713C210.268 173.254 206.347 173.687 202.474 173.368C199.459 172.977 196.497 171.858 194.576 169.397C193.95 168.2 193.942 167.121 194.238 165.82C195.099 163.714 196.998 162.884 198.976 162.03C201.394 161.163 204.001 161.213 206.542 161.133C206.332 160.989 206.332 160.989 206.118 160.841C205.934 160.713 205.75 160.584 205.561 160.452C205.378 160.325 205.196 160.199 205.008 160.069C203.835 159.159 203.382 158.205 203.082 156.775C202.978 155.558 203.127 154.425 203.32 153.223Z" fill="black"/>
<path d="M251.071 163.455C252.333 164.081 253.572 164.747 254.81 165.418C255.32 165.686 255.831 165.953 256.342 166.22C258.231 167.215 260.106 168.217 261.914 169.354C262.131 169.49 262.349 169.627 262.573 169.767C263.18 170.297 263.308 170.592 263.379 171.387C262.863 172.508 262.232 173.149 261.238 173.861C260.995 174.038 260.752 174.214 260.502 174.396C260.249 174.575 259.996 174.755 259.736 174.939C259.358 175.212 259.358 175.212 258.973 175.49C258.504 175.828 258.035 176.165 257.564 176.501C257.146 176.801 256.736 177.114 256.335 177.439C254.525 178.682 251.154 178.214 249.06 177.95C247.53 177.661 246.223 176.895 244.897 176.111C244.272 175.744 243.638 175.394 243.002 175.046C241.9 174.442 240.802 173.831 239.708 173.212C239.25 172.957 238.79 172.705 238.328 172.458C238.089 172.329 237.85 172.2 237.604 172.067C237.386 171.951 237.167 171.834 236.942 171.715C236.426 171.387 236.426 171.387 236.133 170.801C235.987 169.996 235.987 169.996 236.133 169.043C237.406 167.638 239.128 166.573 240.674 165.491C240.991 165.266 240.991 165.266 241.314 165.037C241.732 164.743 242.153 164.453 242.576 164.168C243.095 163.817 243.603 163.448 244.108 163.076C246.439 161.853 248.803 162.399 251.071 163.455Z" fill="black"/>
<path d="M147.95 128.027C148.984 128.889 149.494 129.776 149.726 131.103C149.801 132.466 149.454 133.146 148.536 134.18C146.088 136.763 142.908 137.458 139.462 137.679C135.779 137.779 132.221 136.679 129.493 134.18C128.559 133.1 128.46 132.112 128.511 130.726C128.722 129.399 129.494 128.604 130.426 127.698C135.42 124.369 143.151 124.32 147.95 128.027Z" fill="black"/>
<path d="M222.656 147.657C223.555 148.577 224.352 149.596 224.469 150.912C224.341 152.411 224.024 153.412 222.966 154.502C219.889 156.944 216.233 157.618 212.402 157.325C209.066 156.884 206.05 155.908 203.925 153.16C203.402 152.281 203.302 151.602 203.32 150.586C203.829 148.687 204.915 147.562 206.543 146.485C211.668 144.051 217.964 144.431 222.656 147.657Z" fill="black"/>
<path d="M139.476 101.763C140.724 102.746 141.36 103.646 141.797 105.176C141.767 106.651 141.269 107.568 140.332 108.692C136.808 111.543 132.977 111.882 128.613 111.622C125.844 111.257 123.21 110.197 121.271 108.124C120.602 107.068 120.41 106.426 120.41 105.176C120.912 103.389 121.79 102.327 123.34 101.368C128.373 99.0426 134.641 98.6274 139.476 101.763Z" fill="black"/>
<path d="M131.25 118.945C132.492 120.259 133.124 121.163 133.087 123.022C132.896 124.501 131.89 125.404 130.792 126.306C127.46 128.675 123.309 129.003 119.367 128.412C116.519 127.831 113.841 126.376 112.207 123.926C112.001 122.532 112.057 121.336 112.628 120.044C114.981 117.519 117.911 116.553 121.294 116.328C124.876 116.248 128.373 116.617 131.25 118.945Z" fill="black"/>
<path d="M206.25 138.28C207.392 139.322 207.95 140.315 208.099 141.869C207.991 143.165 207.674 144.041 206.836 145.019C203.305 147.981 199.241 148.267 194.824 147.948C192.417 147.529 190.456 146.697 188.672 145.019C188.518 144.883 188.364 144.747 188.205 144.608C187.369 143.769 187.106 143.071 187.061 141.924C187.168 140.281 187.801 139.384 188.965 138.262C193.546 134.48 201.535 135.248 206.25 138.28Z" fill="black"/>
<path d="M155.859 110.743C158.149 112.73 158.149 112.73 158.295 114.478C158.267 116.004 157.629 116.831 156.61 117.939C153.953 120.494 150.276 120.8 146.764 120.766C143.664 120.6 140.603 119.847 138.372 117.559C137.569 116.526 137.109 115.594 137.109 114.259C137.686 112.239 138.845 111.192 140.601 110.101C144.967 107.739 151.72 107.918 155.859 110.743Z" fill="black"/>
<path d="M163.689 136.57C164.76 137.39 165.365 138.188 165.82 139.453C166 140.861 165.832 141.851 165.05 143.058C163.377 145.127 161.065 146.029 158.496 146.484C154.117 146.873 150.411 146.488 146.777 143.847C145.843 143.038 145.37 142.287 145.02 141.082C145.02 139.543 145.383 138.587 146.367 137.444C150.668 133.302 158.886 133.342 163.689 136.57Z" fill="black"/>
<path d="M88.1844 117.773C89.329 118.741 90.0124 119.646 90.2718 121.142C90.325 122.506 89.9846 123.501 89.0633 124.511C85.8751 127.357 82.3907 127.68 78.2784 127.562C75.3031 127.389 72.4674 126.327 70.3133 124.218C69.4017 123.164 69.2394 122.163 69.3005 120.801C69.5575 119.487 70.201 118.649 71.1922 117.773C76.1115 114.626 83.3309 114.179 88.1844 117.773Z" fill="black"/>
<path d="M114.093 109.241C115.115 110.089 116.001 111.007 116.601 112.208C116.729 113.713 116.71 114.799 115.854 116.115C113.848 118.419 110.758 119.278 107.812 119.532C104.086 119.758 100.574 119.226 97.5583 116.895C96.4807 115.842 95.8359 114.976 95.709 113.453C95.7375 112.135 96.0802 111.451 96.9724 110.45C101.656 106.489 108.848 106.38 114.093 109.241Z" fill="black"/>
<path d="M99.0236 101.074C100.129 102.314 100.561 103.529 100.488 105.175C99.9625 106.893 98.7074 107.984 97.2658 108.984C93.8361 110.714 89.2764 111.135 85.5493 110.082C83.2442 109.221 80.8419 108.07 79.6876 105.761C79.496 104.417 79.4953 103.214 80.2369 102.044C84.597 96.7655 93.9691 97.2944 99.0236 101.074Z" fill="black"/>
<path d="M171.937 143.427C172.36 143.43 172.36 143.43 172.792 143.434C175.981 143.508 178.707 144.222 181.055 146.485C182.088 147.676 182.263 148.743 182.227 150.294C181.712 152.012 180.443 153.103 179.005 154.102C175.341 155.976 170.848 156.132 166.921 154.994C164.6 154.115 162.564 152.862 161.427 150.587C161.409 148.846 161.695 147.505 162.891 146.192C165.652 144.133 168.532 143.389 171.937 143.427Z" fill="black"/>
<path d="M106.273 83.5502C107.331 84.4013 107.983 85.1079 108.213 86.4742C108.306 88.065 108.016 89.0176 106.935 90.2347C103.871 93.0566 100.11 93.3539 96.0954 93.2043C93.0691 92.9984 90.3076 91.8762 88.1662 89.722C87.296 88.6494 87.041 87.8299 87.1637 86.4559C87.5316 84.8597 88.5533 83.8523 89.8851 82.9586C94.9195 80.2891 101.557 80.2576 106.273 83.5502Z" fill="black"/>
<path d="M136.256 143.966C137.425 144.943 138.29 145.809 138.574 147.363C138.574 148.856 138.288 149.652 137.271 150.751C134.498 153.33 130.793 153.971 127.103 153.881C123.963 153.609 120.421 152.734 118.304 150.22C117.531 148.947 117.527 147.629 117.773 146.191C118.644 144.133 120.62 143.214 122.586 142.37C126.844 140.958 132.606 141.269 136.256 143.966Z" fill="black"/>
<path d="M122.462 92.2849C123.848 93.4864 124.699 94.495 124.97 96.3316C124.903 97.5701 124.489 98.3772 123.706 99.3276C120.479 102.145 116.684 102.458 112.608 102.3C109.728 102.076 106.804 100.889 104.902 98.6753C103.988 97.4289 103.877 96.7735 104.005 95.2146C104.875 93.1957 106.045 92.1702 108.08 91.3591C112.74 89.7481 118.167 89.4785 122.462 92.2849Z" fill="black"/>
<path d="M196.984 155.089C197.892 155.996 198.577 156.868 198.678 158.206C198.572 159.636 198.132 160.637 197.168 161.718C193.782 164.25 189.988 164.909 185.852 164.446C182.869 163.995 180.153 162.874 178.125 160.546C177.605 158.985 177.662 157.774 178.235 156.262C179.567 154.2 182.28 153.206 184.571 152.636C188.644 151.778 193.721 152.37 196.984 155.089Z" fill="black"/>
<path d="M188.965 128.907C191.264 131.156 191.264 131.156 191.346 132.388C191.251 134.089 190.784 135.073 189.596 136.293C186.534 138.838 182.837 139.125 179.004 138.868C175.987 138.386 173.206 137.342 171.094 135.059C170.407 133.925 170.347 132.843 170.508 131.544C171.077 130.137 172.174 129.127 173.438 128.321C178.116 126.363 184.601 125.769 188.965 128.907Z" fill="black"/>
<path d="M152.05 152.636C153.181 153.644 153.959 154.562 154.449 156.006C154.363 157.605 153.862 158.735 152.724 159.872C149.505 162.465 145.801 162.822 141.796 162.597C138.823 162.128 135.911 161.111 133.941 158.734C133.446 157.56 133.394 156.529 133.593 155.273C134.842 152.823 136.968 151.825 139.458 150.968C143.37 149.906 148.679 150.249 152.05 152.636Z" fill="black"/>
<path d="M120.117 135.058C121.256 136.073 122.034 136.98 122.497 138.445C122.445 139.873 122.119 140.897 121.158 141.982C118.319 144.609 114.653 145.16 110.914 145.091C107.662 144.868 104.648 144.017 102.374 141.577C101.607 140.376 101.523 139.394 101.66 137.988C102.214 136.256 103.357 135.361 104.882 134.472C109.453 132.406 115.831 132.023 120.117 135.058Z" fill="black"/>
<path d="M238.769 156.738C239.71 157.55 240.407 158.262 240.688 159.5C240.768 161.003 240.545 162.134 239.574 163.301C236.684 165.939 233.168 166.41 229.394 166.406C226.575 166.255 223.803 165.393 221.697 163.446C220.5 162.103 219.909 161.262 219.936 159.402C220.11 158.108 220.923 157.298 221.813 156.408C226.548 153.32 234.272 152.99 238.769 156.738Z" fill="black"/>
<path d="M105.261 127.213C106.134 128.124 106.333 128.764 106.457 130.024C106.411 131.321 106.032 132.323 105.175 133.302C101.559 136.328 97.384 136.551 92.8702 136.231C90.5438 135.809 88.7718 134.855 87.0109 133.302C86.7752 133.12 86.5395 132.939 86.2967 132.752C85.609 131.817 85.4698 130.916 85.546 129.786C86.001 127.875 87.2512 126.856 88.8511 125.823C93.8071 123.138 100.904 123.657 105.261 127.213Z" fill="black"/>
<path d="M173.144 120.411C174.36 121.715 174.759 122.621 174.723 124.383C174.51 125.722 173.853 126.556 172.851 127.442C169.281 129.726 165.5 130.296 161.323 129.629C158.558 128.988 156.13 128.03 154.394 125.684C153.782 124.45 153.738 123.612 154.083 122.278C155.476 119.999 157.539 118.907 160.05 118.158C164.505 117.107 169.447 117.58 173.144 120.411Z" fill="black"/>
<path d="M169.043 162.304C169.849 163.25 170.184 164.141 170.361 165.381C170.136 166.957 169.677 167.948 168.447 168.935C164.802 171.294 160.871 171.848 156.641 171.248C153.803 170.64 151.395 169.388 149.707 166.992C149.25 166.078 149.331 165.367 149.414 164.355C150.205 162.305 151.566 161.468 153.516 160.547C158.408 158.653 164.925 158.724 169.043 162.304Z" fill="black"/>
<path d="M89.9421 74.7065C90.8051 75.3887 91.309 76.0424 91.5649 77.1441C91.6838 78.5846 91.4713 79.521 90.5647 80.6574C88.1437 83.0736 84.9502 83.8467 81.6233 83.8851C81.3775 83.8835 81.1317 83.8818 80.8784 83.8801C80.6205 83.8784 80.3626 83.8768 80.0969 83.8751C76.8806 83.8149 73.9277 82.9667 71.5618 80.654C70.8671 79.7832 70.6204 79.1892 70.4414 78.0757C70.6912 76.5211 71.1665 75.5036 72.3709 74.5108C77.5517 70.9302 84.8349 70.9679 89.9421 74.7065Z" fill="black"/>
<path d="M182.643 170.036C184.02 170.992 185.202 172.066 185.589 173.759C185.711 175.098 185.473 175.947 184.643 177.008C182.491 179.182 179.653 180.182 176.66 180.469C176.341 180.5 176.341 180.5 176.017 180.532C172.755 180.682 169.332 179.767 166.699 177.832C165.604 176.806 164.854 175.81 164.758 174.28C165.04 172.533 165.808 171.579 167.138 170.471C171.418 167.509 178.143 167.452 182.643 170.036Z" fill="black"/>
<path d="M261.036 145.898C261.9 146.668 262.416 147.407 262.794 148.516C262.794 150.011 262.236 151.04 261.347 152.215C257.698 155.119 253.789 155.299 249.317 154.98C247.013 154.562 245.18 153.628 243.458 152.05C243.216 151.833 242.974 151.615 242.725 151.391C242.048 150.149 242.05 149.037 242.286 147.656C242.847 146.075 243.998 145.395 245.435 144.635C250.424 142.364 256.559 142.528 261.036 145.898Z" fill="black"/>
<path d="M277.295 154.652C278.379 155.555 279.324 156.455 279.602 157.895C279.693 159.392 279.299 160.263 278.32 161.427C275.657 163.942 272.31 164.5 268.76 164.429C265.515 164.191 262.422 163.293 260.138 160.859C259.47 159.803 259.277 159.161 259.277 157.911C259.787 156.01 260.853 154.867 262.5 153.81C266.896 151.628 273.261 151.86 277.295 154.652Z" fill="black"/>
<path d="M184.13 105.944C184.514 105.939 184.514 105.939 184.905 105.934C187.983 105.947 190.58 106.882 193.066 108.69C194.002 109.695 194.5 110.336 194.604 111.712C194.491 113.376 193.802 114.168 192.645 115.301C189.823 117.656 185.976 117.971 182.43 117.698C179.568 117.294 176.746 116.266 174.792 114.055C174.174 112.797 174.08 111.825 174.316 110.448C175.161 108.574 176.872 107.412 178.759 106.69C180.573 106.088 182.227 105.919 184.13 105.944Z" fill="black"/>
<path d="M174.591 98.3821C176.012 99.4291 177.039 100.349 177.539 102.099C177.539 103.505 177.191 104.306 176.236 105.341C173.538 107.845 169.968 108.553 166.374 108.471C163.249 108.201 160.263 107.392 158.056 105.065C157.271 104.055 157.007 103.254 157.031 101.953C157.53 100.174 158.42 99.1044 159.96 98.144C164.445 96.1525 170.281 95.6905 174.591 98.3821Z" fill="black"/>
<path d="M243.458 136.23C244.622 137.139 245.381 137.884 245.838 139.306C245.772 141.166 245.198 142.211 243.879 143.463C240.866 145.932 237.244 146.102 233.497 145.898C230.719 145.509 227.957 144.506 226.136 142.273C225.409 141.107 225.413 140.218 225.587 138.867C226.251 137.226 227.683 136.061 229.24 135.283C233.636 133.456 239.403 133.507 243.458 136.23Z" fill="black"/>
<path d="M107.758 61.7796C108.892 62.8806 109.271 63.7278 109.296 65.3135C109.028 66.7506 108.349 67.6404 107.227 68.5545C103.637 70.8923 99.6818 71.2767 95.5085 70.6052C92.8204 69.8941 90.436 68.7741 88.8984 66.3755C88.6317 64.8135 88.8137 63.7111 89.5942 62.3655C94.1524 57.5438 102.712 58.4155 107.758 61.7796Z" fill="black"/>
<path d="M124.492 71.0298C125.428 71.734 126.042 72.496 126.562 73.536C126.676 74.7181 126.648 75.4179 126.104 76.484C124.154 78.8351 122.094 79.8429 119.11 80.494C115.579 80.7418 111.693 80.6742 108.691 78.5165C106.415 76.289 106.415 76.289 106.256 74.6347C106.382 73.12 106.913 72.3752 107.985 71.3193C112.439 67.562 119.804 68.0047 124.492 71.0298Z" fill="black"/>
<path d="M227.288 127.423C228.382 128.455 228.768 129.134 228.936 130.646C228.861 132.323 227.925 133.366 226.775 134.51C223.777 136.903 219.568 136.9 215.917 136.524C212.995 135.925 210.574 134.639 208.886 132.129C208.493 131.021 208.558 130.499 208.868 129.364C209.861 127.359 211.544 126.285 213.61 125.574C218.282 124.149 223.221 124.622 227.288 127.423Z" fill="black"/>
<path d="M201.197 115.339C201.427 115.34 201.656 115.342 201.893 115.344C205.274 115.413 208.02 116.174 210.536 118.51C211.424 119.473 211.817 120.275 211.817 121.582C211.296 123.491 210.201 124.566 208.594 125.684C205.331 127.482 200.922 127.524 197.406 126.614C194.952 125.771 192.802 124.57 191.602 122.168C191.426 120.711 191.468 119.83 192.298 118.598C194.466 115.995 197.964 115.314 201.197 115.339Z" fill="black"/>
<path d="M157.451 89.1983C158.027 89.6148 158.555 90.0517 159.082 90.5281C159.318 90.7154 159.553 90.9027 159.796 91.0957C160.48 91.9977 160.547 92.623 160.547 93.7508C160.003 95.7186 158.746 96.8411 157.031 97.8523C153.488 99.5928 149.386 99.5798 145.606 98.7312C143.685 98.06 141.282 96.8229 140.332 94.9226C140.152 93.5158 140.093 92.1392 140.845 90.8943C144.456 86.5424 152.962 86.5033 157.451 89.1983Z" fill="black"/>
<path d="M140.762 79.8333C141.335 80.2489 141.864 80.6727 142.383 81.1528C142.543 81.2898 142.703 81.4269 142.868 81.5682C143.623 82.4551 143.612 83.5426 143.555 84.6684C142.717 86.819 141.033 88.0708 138.959 89.008C135.586 90.2174 130.914 90.2075 127.594 88.8684C125.949 87.996 123.955 86.804 123.34 84.9614C123.234 83.5255 123.463 82.3774 124.348 81.226C128.218 77.2259 136.198 77.063 140.762 79.8333Z" fill="black"/>
<path d="M20.2158 118.652C21.3172 119.07 22.3427 119.567 23.3812 120.123C23.7119 120.3 24.0426 120.476 24.3833 120.659C24.7397 120.85 25.0962 121.042 25.4526 121.234C25.6348 121.332 25.8171 121.43 26.0048 121.531C28.7234 122.99 31.4183 124.487 34.0981 126.017C36.5807 127.43 39.0939 128.784 41.6164 130.124C46.7082 132.84 46.7082 132.84 47.7548 133.887C49.0805 134.007 50.4067 133.975 51.7365 133.951C52.1774 133.945 52.6183 133.944 53.0592 133.95C56.0866 133.989 57.9095 133.618 60.2027 131.579C60.9246 130.969 61.5124 130.665 62.4033 130.371C62.8413 131.247 62.7302 132.041 62.6962 133.008C62.19 134.527 60.7125 135.279 59.4736 136.23C59.2647 136.403 59.0559 136.576 58.8407 136.753C56.2932 138.815 53.5729 138.787 50.3915 138.574C48.0008 138.312 46.1653 137.411 44.0927 136.23C43.7835 136.059 43.4744 135.887 43.1558 135.71C42.2455 135.203 41.3381 134.691 40.4306 134.18C39.9804 133.93 39.5299 133.68 39.0791 133.431C38.2467 132.972 37.4155 132.51 36.5854 132.047C35.4881 131.434 34.3891 130.824 33.2895 130.215C31.5996 129.28 29.9116 128.341 28.2246 127.4C27.5873 127.045 26.9493 126.691 26.3106 126.339C25.4554 125.867 24.6023 125.391 23.7497 124.915C23.4967 124.776 23.2438 124.638 22.9832 124.495C21.7113 123.779 20.6862 123.166 19.9228 121.875C19.7981 121.176 19.7981 121.176 19.8312 120.502C19.8384 120.277 19.8456 120.052 19.853 119.821C19.9228 119.238 19.9228 119.238 20.2158 118.652Z" fill="black"/>
<path d="M209.179 178.418C209.979 178.809 210.754 179.227 211.523 179.676C214.51 181.405 217.521 183.078 220.568 184.698C223.246 186.123 225.91 187.568 228.552 189.056C228.836 189.216 229.121 189.376 229.415 189.54C229.804 189.761 229.804 189.761 230.202 189.987C230.543 190.18 230.543 190.18 230.89 190.376C231.445 190.723 231.445 190.723 232.031 191.309C234.759 191.742 238.472 192.241 240.882 190.711C241.194 190.463 241.503 190.21 241.809 189.954C241.972 189.822 242.135 189.691 242.303 189.556C242.632 189.291 242.96 189.025 243.286 188.758C243.939 188.224 244.604 187.706 245.269 187.189C245.473 187.028 245.676 186.868 245.886 186.702C246.386 186.328 246.386 186.328 246.972 186.035C247.251 186.871 247.332 187.47 247.357 188.342C247.373 188.713 247.373 188.713 247.39 189.091C247.107 190.801 245.614 191.757 244.299 192.737C244.132 192.863 243.965 192.989 243.794 193.118C239.115 196.634 239.115 196.634 236.261 196.674C236.065 196.682 235.87 196.691 235.669 196.699C232.382 196.74 229.487 194.731 226.684 193.213C226.293 193.003 225.902 192.792 225.511 192.582C224.541 192.06 223.573 191.536 222.604 191.012C221.823 190.589 221.04 190.168 220.258 189.746C218.96 189.045 217.666 188.336 216.375 187.621C215.86 187.337 215.343 187.054 214.826 186.773C214.046 186.349 213.269 185.918 212.493 185.486C212.143 185.298 212.143 185.298 211.786 185.106C210.438 184.343 209.67 183.766 209.179 182.227C209.093 181.222 209.093 181.222 209.124 180.212C209.136 179.706 209.136 179.706 209.148 179.189C209.159 178.935 209.169 178.68 209.179 178.418Z" fill="black"/>
<path d="M192.607 197.869C193.819 198.714 194.785 199.618 195.41 200.977C195.505 202.21 195.308 203.033 194.623 204.066C193.864 204.872 193.185 205.264 192.187 205.738C191.885 205.884 191.583 206.031 191.272 206.182C188.344 207.439 184.109 207.288 181.11 206.361C179.421 205.668 177.827 204.896 176.878 203.28C176.395 202.088 176.326 201.437 176.642 200.172C177.948 198.113 179.883 197.079 182.195 196.426C185.583 195.678 189.609 196.156 192.607 197.869Z" fill="black"/>
<path d="M37.4998 105.762C38.7113 106.405 39.9219 107.051 41.1318 107.698C41.6683 107.985 42.2048 108.271 42.7414 108.558C46.5055 110.568 50.2502 112.606 53.9588 114.718C55.7694 115.748 57.5909 116.751 59.4335 117.723C60.0584 118.066 60.0584 118.066 60.3513 118.359C61.0473 118.385 61.7348 118.393 62.4307 118.388C62.6384 118.388 62.8461 118.387 63.06 118.387C63.7257 118.385 64.3914 118.381 65.0571 118.378C65.5075 118.376 65.9578 118.375 66.4081 118.374C67.5142 118.37 68.6203 118.365 69.7263 118.359C69.5851 118.773 69.5851 118.773 69.4409 119.196C69.1926 119.957 69.0391 120.608 68.9573 121.399C68.9029 121.925 68.9029 121.925 68.8474 122.461C63.5513 123.948 59.7601 122.611 55.1145 120.044C54.7896 119.867 54.4646 119.689 54.1298 119.506C53.2581 119.03 52.3875 118.551 51.5175 118.071C50.7863 117.669 50.054 117.269 49.3217 116.868C47.3508 115.791 45.3861 114.703 43.4247 113.608C42.5731 113.137 41.7168 112.677 40.8575 112.221C40.4034 111.972 39.9494 111.724 39.4956 111.475C39.2956 111.373 39.0956 111.27 38.8896 111.165C37.8911 110.605 37.376 110.109 37.0454 109.03C36.8218 107.801 37.0657 106.919 37.4998 105.762Z" fill="black"/>
<path d="M205.371 187.794C206.501 188.597 207.67 189.462 208.301 190.723C208.441 192.129 208.474 192.773 207.751 194.001C205.901 195.936 203.321 196.601 200.735 196.668C197.656 196.696 194.784 196.41 192.261 194.459C191.375 193.581 190.956 192.853 190.93 191.596C191.125 190.275 191.692 189.394 192.675 188.543C196.38 185.989 201.367 185.926 205.371 187.794Z" fill="black"/>
<path d="M235.547 171.387C235.74 171.387 235.933 171.387 236.133 171.387C236.133 171.58 236.133 171.773 236.133 171.973C236.339 172.051 236.545 172.129 236.757 172.209C237.646 172.579 238.477 173.006 239.324 173.462C239.817 173.726 239.817 173.726 240.319 173.997C240.489 174.088 240.659 174.18 240.834 174.275C241.346 174.552 241.859 174.827 242.373 175.102C243.774 175.858 245.151 176.602 246.463 177.506C247.672 178.28 248.788 178.351 250.195 178.418C250.629 178.471 251.062 178.525 251.495 178.58C254.388 178.831 256.185 178.459 258.471 176.605C259.056 176.108 259.629 175.602 260.198 175.087C262.41 173.145 262.41 173.145 263.379 173.145C263.453 173.546 263.518 173.949 263.58 174.353C263.618 174.577 263.655 174.802 263.693 175.033C263.655 176.365 263.073 177.259 262.146 178.185C260.577 179.417 258.99 180.619 257.373 181.787C257.197 181.914 257.022 182.041 256.841 182.172C254.555 183.795 252 183.738 249.27 183.541C247.165 183.181 245.428 181.919 243.677 180.764C243.037 180.396 242.421 180.298 241.699 180.176C241.404 179.884 241.112 179.591 240.82 179.297C240.299 178.96 240.299 178.96 239.73 178.665C239.523 178.553 239.317 178.441 239.105 178.325C238.673 178.094 238.24 177.862 237.807 177.632C237.499 177.464 237.499 177.464 237.184 177.292C236.997 177.192 236.809 177.091 236.615 176.988C236.133 176.66 236.133 176.66 235.547 175.781C235.505 175.019 235.492 174.29 235.51 173.529C235.513 173.323 235.515 173.118 235.518 172.906C235.525 172.399 235.535 171.893 235.547 171.387Z" fill="black"/>
<path d="M176.055 191.858C176.801 192.626 177.198 193.219 177.538 194.239C177.31 195.865 176.761 196.735 175.487 197.754C172.364 199.289 168.653 199.467 165.325 198.432C163.541 197.732 162.374 197.089 161.553 195.283C161.393 193.975 161.533 193.546 162.304 192.481C166.136 188.952 171.796 189.14 176.055 191.858Z" fill="black"/>
<path d="M207.532 207.989C207.786 208.189 208.04 208.388 208.302 208.594C208.525 208.763 208.749 208.932 208.979 209.106C209.689 210.053 209.929 210.95 209.766 212.109C208.974 213.561 207.794 214.475 206.251 215.039C202.817 215.952 199.074 215.968 195.896 214.197C194.778 213.437 194.329 212.688 193.928 211.414C193.949 210.189 194.172 209.692 194.928 208.761C198.194 205.65 203.849 205.875 207.532 207.989Z" fill="black"/>
<path d="M53.6128 93.457C54.516 93.6429 55.2043 93.9476 55.9978 94.4138C56.2357 94.552 56.4737 94.6903 56.7188 94.8328C56.9748 94.983 57.2309 95.1333 57.4947 95.2881C59.8979 96.681 62.3198 98.0331 64.7639 99.353C65.2159 99.5973 65.2159 99.5973 65.6769 99.8466C66.8211 100.463 66.8211 100.463 67.9683 101.074C68.14 101.187 68.3117 101.299 68.4886 101.416C69.5158 101.801 70.5469 101.697 71.6258 101.653C71.8648 101.646 72.1037 101.639 72.3499 101.631C73.1112 101.607 73.8722 101.579 74.6333 101.55C75.1502 101.533 75.6671 101.516 76.184 101.5C77.4495 101.459 78.7147 101.414 79.98 101.367C79.8843 101.596 79.7887 101.825 79.6901 102.061C79.4086 102.794 79.3467 103.268 79.3391 104.041C79.2606 104.415 79.182 104.79 79.1011 105.176C77.2009 106.309 75.197 106.412 73.0403 106.439C72.82 106.448 72.5996 106.456 72.3726 106.465C69.2434 106.5 66.5849 104.819 63.885 103.4C63.568 103.234 63.2509 103.067 62.9242 102.896C60.8905 101.823 58.8701 100.729 56.8721 99.5911C56.6425 99.4621 56.4129 99.3331 56.1764 99.2002C54.1092 98.0021 54.1092 98.0021 53.6128 96.9727C53.527 96.0892 53.527 96.0892 53.5579 95.1416C53.5698 94.668 53.5698 94.668 53.5819 94.1849C53.5921 93.9447 53.6023 93.7045 53.6128 93.457Z" fill="black"/>
<path d="M190.43 192.48C190.532 192.734 190.635 192.988 190.741 193.25C191.984 195.414 193.654 196.308 196.034 196.965C199.539 197.591 203.587 197.674 206.671 195.685C207.043 195.404 207.043 195.404 207.422 195.117C207.712 194.924 208.002 194.73 208.301 194.531C208.546 196.496 208.546 196.496 207.927 197.451C206.657 198.868 205.325 199.991 203.76 201.068C203.297 201.394 202.833 201.721 202.37 202.048C202.023 202.291 202.023 202.291 201.669 202.539C200.585 203.303 199.517 204.09 198.45 204.877C198.086 205.144 197.722 205.412 197.358 205.679C197.102 205.867 196.846 206.056 196.582 206.25C196.292 206.105 196.292 206.105 195.996 205.957C195.989 205.597 195.981 205.236 195.973 204.865C195.957 204.387 195.94 203.909 195.923 203.43C195.919 203.193 195.915 202.957 195.91 202.713C195.83 200.75 195.3 199.644 193.838 198.278C191.541 196.718 188.753 196.068 186.035 195.703C186.852 194.862 187.687 194.05 188.562 193.268C188.729 193.118 188.896 192.968 189.068 192.813C189.551 192.48 189.551 192.48 190.43 192.48Z" fill="black"/>
<path d="M164.648 176.66C164.769 176.77 164.89 176.88 165.015 176.993C168.111 179.737 171.03 180.924 175.195 180.872C175.465 180.875 175.735 180.878 176.012 180.882C178.543 180.871 180.756 180.279 182.996 179.095C183.241 178.967 183.487 178.839 183.739 178.708C183.917 178.612 184.094 178.516 184.277 178.418C184.442 179.691 184.531 180.841 183.944 182.013C182.323 184.065 179.794 185.076 177.246 185.449C173.186 185.667 169.37 185.552 166.113 182.812C164.798 181.398 164.611 180.411 164.63 178.51C164.633 178.164 164.635 177.818 164.638 177.462C164.642 177.198 164.645 176.933 164.648 176.66Z" fill="black"/>
<path d="M176.367 203.613C176.56 203.825 176.753 204.036 176.953 204.254C179.616 206.88 182.712 207.502 186.346 207.532C189.642 207.505 192.007 206.799 194.824 205.078C195.117 205.371 195.117 205.371 195.153 205.894C195.059 207.609 194.603 208.605 193.395 209.827C190.761 212.045 187.477 212.483 184.131 212.367C181.614 212.074 178.947 211.261 177.183 209.359C176.209 207.934 175.995 206.999 176.184 205.28C176.216 204.966 176.248 204.653 176.282 204.331C176.324 203.976 176.324 203.976 176.367 203.613Z" fill="black"/>
<path d="M259.277 160.84C259.543 161.094 259.808 161.347 260.082 161.609C263.342 164.388 267.109 165.207 271.288 164.941C273.097 164.73 274.656 164.236 276.295 163.448C276.855 163.184 276.855 163.184 277.734 162.891C277.866 164.375 277.932 165.469 277.184 166.791C275.003 168.953 271.965 169.597 269.004 169.648C265.756 169.584 262.645 168.925 260.156 166.699C258.962 164.78 258.875 163.027 259.277 160.84Z" fill="black"/>
<path d="M123.046 86.4258C123.883 86.806 124.476 87.2164 125.133 87.854C128.124 90.4898 132.053 90.3896 135.805 90.2807C137.272 90.186 138.648 89.8302 140.038 89.3555C139.983 92.5461 139.983 92.5461 139.196 93.6218C135.317 95.4061 131.173 95.395 127.148 94.043C125.41 93.348 124.335 92.4067 123.394 90.7837C122.842 89.3865 122.974 87.9012 123.046 86.4258Z" fill="black"/>
<path d="M170.214 135.059C170.408 135.059 170.601 135.059 170.8 135.059C171.057 135.36 171.299 135.673 171.533 135.992C173.644 138.511 177.092 139.258 180.242 139.537C182.649 139.604 184.879 139.16 187.207 138.574C187.123 139.032 187.037 139.49 186.95 139.948C186.903 140.202 186.855 140.457 186.806 140.72C186.745 140.979 186.684 141.237 186.621 141.504C186.562 141.764 186.504 142.024 186.443 142.291C185.93 143.143 185.424 143.278 184.48 143.515C184.274 143.558 184.068 143.601 183.856 143.646C183.644 143.694 183.433 143.742 183.215 143.791C179.677 144.543 176.331 144.185 173.102 142.473C171.918 141.638 170.864 140.458 170.214 139.16C170.194 138.465 170.19 137.769 170.196 137.073C170.199 136.697 170.201 136.322 170.204 135.935C170.208 135.646 170.211 135.357 170.214 135.059Z" fill="black"/>
<path d="M241.992 151.465C242.113 151.575 242.234 151.685 242.358 151.798C245.377 154.473 248.281 155.74 252.356 155.676C252.622 155.675 252.889 155.673 253.164 155.671C255.208 155.632 257.044 155.362 258.984 154.688C259.055 155.9 259.097 156.987 258.709 158.148C257.184 159.766 254.954 160.186 252.809 160.303C249.155 160.326 246.098 159.83 243.164 157.507C241.774 155.683 241.921 153.654 241.992 151.465Z" fill="black"/>
<path d="M174.023 114.258C174.216 114.258 174.41 114.258 174.609 114.258C174.802 114.518 174.996 114.777 175.195 115.045C176.765 117.01 179.543 117.865 181.948 118.185C185.078 118.492 188.044 118.248 191.015 117.188C191.094 120.267 191.094 120.267 190.263 121.242C188.193 122.575 185.843 122.864 183.435 122.845C183.203 122.844 182.972 122.842 182.733 122.84C179.794 122.779 177.478 122.027 175.195 120.117C174.028 118.778 173.986 117.681 174.005 115.942C174.009 115.469 174.009 115.469 174.013 114.986C174.016 114.745 174.02 114.505 174.023 114.258Z" fill="black"/>
<path d="M191.309 123.34C191.502 123.34 191.696 123.34 191.895 123.34C192.01 123.551 192.124 123.763 192.243 123.981C193.618 126.115 195.967 126.886 198.34 127.441C201.782 127.949 205.018 127.719 208.301 126.562C208.246 129.764 208.246 129.764 207.441 130.829C203.676 132.596 199.307 132.766 195.367 131.369C193.697 130.546 191.944 129.259 191.309 127.441C191.252 126.43 191.252 126.43 191.272 125.317C191.278 124.947 191.283 124.577 191.288 124.196C191.295 123.913 191.302 123.631 191.309 123.34Z" fill="black"/>
<path d="M103.71 98.7305C104.499 99.0518 104.912 99.3496 105.487 99.9939C108.228 102.502 111.949 102.954 115.518 102.911C117.29 102.782 118.982 102.392 120.703 101.953C120.612 102.466 120.52 102.979 120.428 103.491C120.377 103.777 120.326 104.062 120.274 104.356C120.222 104.627 120.17 104.897 120.117 105.176C120.085 105.498 120.085 105.498 120.053 105.826C119.824 106.348 119.824 106.348 119.127 106.718C115.288 107.905 111.527 108.095 107.812 106.348C106.154 105.46 104.851 104.563 104.003 102.832C103.704 101.458 103.682 100.133 103.71 98.7305Z" fill="black"/>
<path d="M88.7696 67.6758C89.5594 68.0429 90.062 68.3682 90.7289 68.9575C93.567 71.3568 97.2452 71.6339 100.814 71.3881C102.528 71.2358 104.134 70.8608 105.762 70.3125C106.068 72.7746 106.068 72.7746 105.398 73.7972C103.409 75.6071 100.92 76.035 98.3094 75.9888C98.0655 75.9858 97.8216 75.9828 97.5703 75.9798C94.5912 75.9046 92.2591 75.1806 89.9415 73.2422C88.8761 71.98 88.7338 71.0072 88.7513 69.3787C88.754 69.0603 88.7566 68.7419 88.7593 68.4139C88.7627 68.1703 88.7661 67.9268 88.7696 67.6758Z" fill="black"/>
<path d="M203.321 153.223C203.483 153.442 203.646 153.662 203.813 153.889C206.071 156.542 209.294 157.526 212.641 157.855C214.674 157.968 216.565 157.724 218.555 157.324C218.833 157.269 219.11 157.214 219.396 157.157C219.602 157.116 219.808 157.074 220.02 157.031C219.961 158.35 219.843 159.58 219.434 160.84C218.632 161.543 217.829 161.789 216.798 162.012C216.571 162.062 216.345 162.113 216.112 162.165C215.351 162.301 214.657 162.343 213.885 162.344C213.484 162.344 213.484 162.344 213.074 162.345C212.798 162.344 212.522 162.342 212.238 162.341C211.961 162.342 211.684 162.344 211.399 162.345C211.132 162.344 210.864 162.344 210.589 162.344C210.347 162.343 210.105 162.343 209.855 162.343C209.202 162.306 208.635 162.193 208.008 162.012C208.008 161.818 208.008 161.625 208.008 161.426C207.7 161.353 207.392 161.281 207.075 161.206C205.621 160.784 204.788 160.029 203.834 158.862C202.821 156.981 202.994 155.258 203.321 153.223Z" fill="black"/>
<path d="M157.032 104.59C157.207 104.816 157.382 105.042 157.563 105.275C159.55 107.693 162.508 108.578 165.528 108.984C168.512 109.16 171.185 108.677 174.024 107.812C174.006 108.325 173.98 108.838 173.951 109.351C173.937 109.636 173.923 109.922 173.909 110.216C173.688 111.232 173.365 111.564 172.559 112.207C169.682 113.946 165.726 113.749 162.51 113.22C160.241 112.597 158.731 111.419 157.325 109.57C156.876 108.672 157.002 107.734 157.013 106.75C157.015 106.544 157.016 106.337 157.017 106.123C157.021 105.612 157.026 105.101 157.032 104.59Z" fill="black"/>
<path d="M140.039 95.5078C140.226 95.7133 140.413 95.9187 140.606 96.1304C143.1 98.5957 145.951 99.7088 149.442 99.7313C149.71 99.7273 149.979 99.7233 150.256 99.7192C150.537 99.7175 150.817 99.7158 151.106 99.7141C153.187 99.676 155.058 99.4297 157.031 98.7305C156.988 100.058 156.872 101.276 156.445 102.539C154.116 104.61 150.64 104.476 147.705 104.349C145.187 104.141 142.676 103.224 140.918 101.367C139.731 99.5502 139.953 97.6202 140.039 95.5078Z" fill="black"/>
<path d="M87.0112 89.3555C87.1321 89.4654 87.2529 89.5753 87.3775 89.6885C91.217 93.0909 95.0831 94.0501 100.195 93.75C101.495 93.5242 102.727 93.2152 104.003 92.8711C103.81 94.2246 103.617 95.5781 103.417 96.9727C99.5956 98.5524 95.7672 99.1482 91.8063 97.538C89.8671 96.6176 87.9514 95.6313 87.1451 93.5097C86.8588 92.1442 86.9498 90.742 87.0112 89.3555Z" fill="black"/>
<path d="M106.347 77.0508C106.475 77.1641 106.603 77.2774 106.734 77.3941C109.298 79.6356 111.687 80.938 115.137 81.1523C115.46 81.1756 115.46 81.1756 115.79 81.1993C117.697 81.2708 119.437 80.9046 121.288 80.4657C122.168 80.2734 122.168 80.2734 123.047 80.2734C122.991 83.1992 122.991 83.1992 122.168 84.2285C120.122 85.2513 118.226 85.7045 115.942 85.675C115.58 85.672 115.58 85.672 115.211 85.669C112.544 85.5995 109.745 85.0765 107.627 83.3382C106.128 81.7362 105.929 80.1331 105.985 77.9949C106.055 77.3438 106.055 77.3438 106.347 77.0508Z" fill="black"/>
<path d="M120.41 107.812C120.597 108.018 120.784 108.223 120.977 108.435C123.893 111.278 127.452 112.24 131.451 112.335C133.508 112.28 135.427 111.888 137.402 111.328C137.302 111.995 137.189 112.66 137.072 113.324C137.011 113.694 136.95 114.065 136.887 114.447C136.523 115.43 136.523 115.43 135.684 115.979C131.925 117.327 127.806 117.397 124.126 115.703C122.487 114.761 121.017 113.443 120.41 111.621C120.389 110.968 120.385 110.315 120.391 109.662C120.394 109.316 120.397 108.971 120.399 108.615C120.403 108.35 120.406 108.085 120.41 107.812Z" fill="black"/>
<path d="M219.727 162.305C219.915 162.51 220.102 162.716 220.295 162.927C223.461 166.049 226.949 166.802 231.256 166.811C232.948 166.782 234.499 166.541 236.133 166.113C236.524 166.015 236.915 165.918 237.305 165.82C236.942 167.719 236.175 169.256 234.669 170.508C231.482 171.84 227.65 171.665 224.415 170.581C222.149 169.642 220.771 168.654 219.727 166.406C219.261 165.044 219.529 163.702 219.727 162.305Z" fill="black"/>
<path d="M208.594 133.008C208.715 133.118 208.836 133.228 208.96 133.341C212.674 136.632 216.228 137.399 221.117 137.165C222.557 137.044 223.926 136.689 225.293 136.23C225.238 139.41 225.238 139.41 224.469 140.497C220.623 142.231 216.682 142.178 212.696 140.918C210.99 140.075 209.32 138.954 208.679 137.09C208.298 135.631 208.281 134.478 208.594 133.008Z" fill="black"/>
<path d="M161.133 151.758C161.327 151.758 161.52 151.758 161.719 151.758C162.018 152.108 162.302 152.471 162.58 152.838C164.519 155.106 167.327 155.869 170.215 156.152C172.972 156.347 175.455 155.946 178.126 155.273C177.986 155.592 177.986 155.592 177.844 155.918C177.556 156.693 177.43 157.329 177.357 158.148C177.335 158.38 177.313 158.611 177.29 158.85C177.276 159.023 177.262 159.196 177.247 159.375C173.118 161.154 169.364 161.122 165.094 159.723C163.509 159.036 162.415 157.841 161.426 156.445C161.092 155.443 161.105 154.662 161.115 153.607C161.118 153.262 161.12 152.916 161.123 152.56C161.127 152.295 161.13 152.031 161.133 151.758Z" fill="black"/>
<path d="M128.32 133.887C128.513 133.887 128.706 133.887 128.906 133.887C129.093 134.141 129.28 134.394 129.473 134.656C131.115 136.699 133.711 137.612 136.23 137.988C137.251 138.064 138.264 138.071 139.288 138.062C139.545 138.064 139.802 138.066 140.066 138.068C141.875 138.063 143.553 137.818 145.312 137.402C144.882 140.824 144.882 140.824 143.849 141.714C143.167 142.018 142.524 142.221 141.796 142.383C141.524 142.455 141.252 142.528 140.972 142.603C136.97 142.916 133.516 142.563 130.077 140.332C129.003 139.253 128.343 138.091 128.291 136.547C128.294 136.231 128.298 135.915 128.301 135.59C128.304 135.271 128.307 134.953 128.309 134.625C128.313 134.381 128.316 134.138 128.32 133.887Z" fill="black"/>
<path d="M95.5084 115.723C95.6293 115.833 95.7501 115.942 95.8747 116.056C99.2239 119.024 102.688 120.311 107.227 120.117C109.002 119.927 110.752 119.593 112.501 119.238C112.362 119.559 112.362 119.559 112.22 119.886C111.94 120.636 111.818 121.27 111.713 122.058C111.569 122.747 111.569 122.747 111.329 123.34C108.559 125.012 104.326 124.962 101.227 124.291C98.9345 123.485 97.2509 122.357 95.8014 120.41C95.4672 119.408 95.4797 118.627 95.4901 117.572C95.4928 117.226 95.4954 116.881 95.4981 116.525C95.5015 116.26 95.5049 115.995 95.5084 115.723Z" fill="black"/>
<path d="M186.915 144.141C187.101 144.305 187.101 144.305 187.291 144.474C191.254 147.931 194.811 148.822 200.098 148.535C201.283 148.392 202.447 148.197 203.614 147.949C203.506 148.567 203.388 149.183 203.266 149.799C203.169 150.314 203.169 150.314 203.07 150.839C202.735 151.758 202.735 151.758 202.053 152.298C198.679 153.758 194.72 153.571 191.309 152.344C189.487 151.493 188.133 150.639 187.208 148.828C186.873 147.825 186.886 147.045 186.896 145.99C186.899 145.644 186.902 145.299 186.904 144.943C186.908 144.678 186.911 144.413 186.915 144.141Z" fill="black"/>
<path d="M137.11 116.895C137.298 117.1 137.485 117.305 137.678 117.517C140.828 120.632 144.644 121.378 148.953 121.358C150.713 121.242 152.393 120.841 154.102 120.41C154.02 120.978 153.934 121.546 153.846 122.113C153.798 122.429 153.751 122.745 153.702 123.071C153.516 123.926 153.516 123.926 152.931 124.805C149.733 126.215 145.205 126.212 141.889 125.208C139.898 124.408 138.262 123.47 137.238 121.527C136.631 119.972 136.833 118.508 137.11 116.895Z" fill="black"/>
<path d="M111.914 124.805C112.198 125.065 112.482 125.324 112.774 125.592C115.871 128.234 119.305 129.212 123.339 129.199C124.625 129.071 125.88 128.859 127.148 128.613C127.734 128.514 128.32 128.416 128.906 128.32C128.815 128.568 128.725 128.816 128.631 129.071C128.281 130.076 128.281 130.076 128.228 131.158C128.027 132.129 128.027 132.129 127.423 132.66C123.936 134.069 119.684 134.179 116.178 132.79C114.369 131.9 112.929 130.9 112.092 129.014C111.736 127.631 111.829 126.219 111.914 124.805Z" fill="black"/>
<path d="M177.539 160.84C177.659 160.95 177.78 161.06 177.905 161.173C181.736 164.568 185.321 165.175 190.339 164.983C191.665 164.901 192.952 164.686 194.238 164.355C194.196 165.683 194.086 166.903 193.652 168.164C192.751 168.885 191.844 169.122 190.722 169.336C190.437 169.39 190.153 169.445 189.859 169.501C186.406 169.995 182.729 169.719 179.791 167.694C178.749 166.833 177.972 165.949 177.539 164.648C177.518 163.996 177.514 163.342 177.52 162.689C177.523 162.344 177.526 161.998 177.528 161.642C177.532 161.377 177.535 161.113 177.539 160.84Z" fill="black"/>
<path d="M70.8979 80.5664C71.1759 80.8262 71.4538 81.0861 71.7402 81.3538C74.4783 83.6936 77.5686 84.486 81.0969 84.4482C81.3532 84.4471 81.6096 84.446 81.8737 84.4448C83.7278 84.4201 85.5026 84.2518 87.3042 83.7891C87.2452 84.4063 87.1761 85.0227 87.1027 85.6384C87.0654 85.9817 87.028 86.325 86.9895 86.6787C86.7182 87.5977 86.7182 87.5977 86.0316 88.1378C82.5955 89.6335 78.4463 89.4849 74.956 88.2637C73.2824 87.5163 71.8914 86.5197 70.8979 84.9609C70.748 84.3212 70.748 84.3212 70.6965 83.6609C70.678 83.4317 70.6595 83.2024 70.6404 82.9662C70.562 81.5468 70.562 81.5468 70.6049 80.8594C70.7016 80.7627 70.7983 80.666 70.8979 80.5664Z" fill="black"/>
<path d="M145.019 142.676C145.336 143.002 145.336 143.002 145.66 143.335C148.216 145.835 151.235 147.132 154.832 147.152C155.05 147.149 155.268 147.146 155.492 147.144C155.72 147.142 155.948 147.141 156.183 147.14C158.065 147.112 159.878 146.888 161.718 146.484C161.627 146.732 161.537 146.98 161.443 147.235C161.088 148.239 161.088 148.239 161.077 149.323C160.839 150.293 160.839 150.293 160.015 150.824C159.452 151.008 159.452 151.008 158.788 151.172C158.533 151.235 158.278 151.298 158.015 151.363C154.624 152.057 151.059 151.917 147.948 150.293C146.336 149.213 145.245 148.106 144.726 146.191C144.527 143.658 144.527 143.658 145.019 142.676Z" fill="black"/>
<path d="M225.294 142.383C225.487 142.383 225.68 142.383 225.88 142.383C226.129 142.685 226.365 142.998 226.594 143.317C228.237 145.296 230.99 146.201 233.497 146.484C236.459 146.69 239.125 146.28 241.993 145.605C241.893 148.507 241.893 148.507 241.26 149.561C239.24 150.773 237.171 151.034 234.852 151.007C234.446 151.004 234.446 151.004 234.032 151C231.004 150.927 228.353 150.156 226.173 147.949C225.046 146.189 225.203 144.425 225.294 142.383Z" fill="black"/>
<path d="M153.809 125.977C153.997 126.182 154.184 126.387 154.377 126.599C156.747 128.949 159.571 130.17 162.891 130.371C163.237 130.394 163.237 130.394 163.589 130.418C166.059 130.503 168.398 129.999 170.801 129.492C170.707 129.709 170.612 129.926 170.514 130.149C170.243 130.884 170.153 131.395 170.124 132.166C169.923 133.301 169.923 133.301 169.337 133.85C165.728 135.203 161.374 135.373 157.761 133.944C155.795 133 154.735 132.072 153.809 130.078C153.343 128.716 153.611 127.374 153.809 125.977Z" fill="black"/>
<path d="M69.1413 123.633C69.3165 123.832 69.4917 124.032 69.6723 124.237C72.6128 127.136 75.9775 128.093 79.9994 128.119C81.991 128.104 83.9009 127.92 85.8405 127.441C85.7321 128.059 85.6143 128.675 85.4926 129.291C85.3957 129.806 85.3957 129.806 85.2969 130.331C84.9616 131.25 84.9616 131.25 84.2909 131.79C80.6564 133.34 76.7824 132.878 73.157 131.599C71.5409 130.896 70.446 129.749 69.4342 128.32C69.1 127.318 69.1125 126.537 69.1229 125.482C69.1256 125.137 69.1282 124.791 69.131 124.435C69.1344 124.17 69.1378 123.906 69.1413 123.633Z" fill="black"/>
<path d="M85.2535 132.715C85.4468 132.715 85.6402 132.715 85.8394 132.715C86.1113 133.096 86.1113 133.096 86.3887 133.484C87.954 135.444 90.7497 136.398 93.1636 136.816C94.0264 136.891 94.8798 136.9 95.7454 136.89C95.9742 136.889 96.203 136.887 96.4388 136.886C98.2321 136.86 99.9082 136.631 101.66 136.23C101.466 137.584 101.273 138.937 101.074 140.332C96.9655 141.786 92.8607 142.052 88.7748 140.237C86.9538 139.212 85.9233 138.24 85.2535 136.23C85.2333 135.627 85.2287 135.022 85.2352 134.418C85.2378 134.099 85.2405 133.781 85.2432 133.453C85.2466 133.209 85.25 132.966 85.2535 132.715Z" fill="black"/>
<path d="M79.3955 106.641C79.5163 106.751 79.6372 106.86 79.7617 106.974C83.6515 110.421 87.42 111.315 92.5791 111.035C93.7638 110.892 94.9274 110.697 96.0947 110.449C95.9991 110.666 95.9036 110.883 95.8052 111.106C95.5306 111.855 95.4615 112.34 95.4538 113.123C95.3753 113.497 95.2967 113.872 95.2158 114.258C92.4579 115.934 88.1821 115.839 85.0798 115.219C82.8721 114.527 80.7099 113.565 79.5843 111.42C79.1543 109.877 79.3163 108.226 79.3955 106.641Z" fill="black"/>
<path d="M193.946 169.629C194.127 169.834 194.309 170.04 194.495 170.251C197.275 173.015 200.926 173.982 204.731 174.078C206.958 174.054 209.147 173.64 211.231 172.852C210.938 173.73 210.938 173.73 210.224 174.371C209.454 175.217 209.398 175.358 209.254 176.404C209.1 177.105 209.019 177.434 208.453 177.885C205.342 179.151 201.054 178.715 197.983 177.618C196.255 176.829 194.711 175.825 193.946 174.023C193.536 172.522 193.727 171.145 193.946 169.629Z" fill="black"/>
<path d="M101.368 141.504C101.561 141.504 101.754 141.504 101.954 141.504C102.225 141.885 102.225 141.885 102.503 142.273C104.116 144.275 106.869 145.186 109.341 145.535C111.629 145.734 113.738 145.688 115.97 145.119C116.663 145.01 117.112 145.097 117.774 145.312C117.192 148.607 117.192 148.607 116.034 149.469C115.738 149.548 115.442 149.626 115.137 149.707C114.95 149.759 114.763 149.811 114.57 149.864C111.075 150.65 106.994 150.116 103.868 148.441C102.647 147.633 101.91 146.809 101.481 145.401C101.263 144.105 101.303 142.812 101.368 141.504Z" fill="black"/>
<path d="M133.301 159.082C133.579 159.342 133.857 159.602 134.143 159.869C137.587 162.824 141.798 163.464 146.192 163.184C147.387 162.959 148.545 162.662 149.707 162.305C149.617 162.546 149.526 162.788 149.433 163.037C149.174 163.888 149.098 164.43 149.066 165.289C148.988 165.658 148.909 166.026 148.828 166.406C146.155 168 142.546 167.956 139.554 167.368C137.282 166.709 135.291 165.927 133.759 164.081C132.871 162.342 133.011 160.951 133.301 159.082Z" fill="black"/>
<path d="M117.479 150C117.679 150.211 117.878 150.423 118.084 150.641C120.821 153.325 124.024 154.217 127.815 154.409C129.762 154.383 131.671 154.111 133.593 153.809C133.073 157.277 133.073 157.277 132.25 158.055C131.725 158.276 131.725 158.276 130.663 158.496C130.436 158.547 130.208 158.599 129.974 158.652C126.29 159.304 122.38 158.687 119.246 156.622C118.081 155.703 117.585 154.833 117.241 153.406C117.18 152.214 117.294 151.177 117.479 150Z" fill="black"/>
<path d="M149.122 167.578C149.243 167.688 149.363 167.798 149.488 167.911C153.325 171.312 156.907 172.195 162.012 171.973C163.101 171.83 164.166 171.636 165.235 171.387C165.095 171.711 165.095 171.711 164.951 172.042C164.682 172.765 164.561 173.318 164.503 174.078C164.356 175.195 164.356 175.195 163.77 175.781C159.757 177.027 155.714 176.578 151.922 174.874C150.671 174.194 149.875 173.421 149.3 172.11C148.933 170.623 149.038 169.097 149.122 167.578Z" fill="black"/>
<path d="M193.946 213.574C194.095 213.691 194.245 213.808 194.399 213.928C197.615 216.272 201.137 216.561 204.987 216.01C206.342 215.746 207.304 215.257 208.402 214.431C208.562 214.342 208.722 214.252 208.887 214.16C209.177 214.257 209.467 214.354 209.766 214.453C209.655 216.09 209.574 217.116 208.301 218.262C205.201 219.948 201.648 220.232 198.207 219.516C196.247 218.852 195.1 217.942 193.946 216.211C193.888 215.548 193.888 215.548 193.909 214.838C193.914 214.601 193.92 214.364 193.925 214.12C193.932 213.94 193.939 213.76 193.946 213.574Z" fill="black"/>
<path d="M161.427 196.875C161.586 196.992 161.746 197.108 161.911 197.229C165.124 199.486 168.327 200.114 172.23 199.585C173.55 199.352 174.629 199.05 175.782 198.34C176.173 198.145 176.563 197.949 176.954 197.754C176.089 201.381 176.089 201.381 174.932 202.296C174.34 202.595 173.778 202.831 173.145 203.027C172.974 203.083 172.802 203.138 172.626 203.196C169.48 203.797 166.164 203.445 163.368 201.892C162.529 201.213 161.96 200.749 161.427 199.805C161.333 198.82 161.358 197.861 161.427 196.875Z" fill="black"/>
</svg>
