<svg width="300" height="300" viewBox="0 0 300 300" fill="none" xmlns="http://www.w3.org/2000/svg">
<path d="M123.442 87.5179C123.681 87.5163 123.919 87.5148 124.165 87.5132C124.959 87.5088 125.754 87.5086 126.548 87.5084C127.12 87.5062 127.691 87.5037 128.262 87.501C129.812 87.4946 131.362 87.492 132.911 87.4905C133.881 87.4895 134.85 87.4876 135.82 87.4856C139.205 87.4784 142.591 87.4746 145.976 87.4735C149.126 87.4724 152.276 87.4637 155.426 87.4514C158.135 87.4412 160.843 87.4367 163.552 87.4365C165.168 87.4363 166.784 87.4338 168.399 87.4254C169.921 87.4177 171.442 87.4171 172.963 87.4218C173.519 87.4223 174.075 87.4204 174.631 87.4157C178.896 87.3819 182.427 87.8568 185.743 90.8208C185.92 90.9674 186.097 91.1139 186.279 91.2649C188.539 93.2891 189.922 96.2998 190.138 99.3169C190.209 102.844 189.213 105.943 186.937 108.663C184.671 110.955 181.552 112.969 178.241 113.122C177.952 113.121 177.663 113.12 177.366 113.12C177.037 113.12 176.709 113.12 176.371 113.12C176.018 113.118 175.665 113.117 175.302 113.115C174.939 113.115 174.577 113.114 174.203 113.114C173.242 113.112 172.28 113.11 171.319 113.107C170.337 113.104 169.355 113.102 168.373 113.101C166.448 113.098 164.523 113.092 162.599 113.086C162.599 116.664 162.599 120.241 162.599 123.926C163.889 123.911 163.889 123.911 165.206 123.895C166.036 123.889 166.867 123.883 167.698 123.878C168.277 123.874 168.856 123.868 169.434 123.86C170.265 123.849 171.095 123.844 171.926 123.84C172.185 123.836 172.445 123.831 172.713 123.827C172.953 123.827 173.193 123.827 173.441 123.827C173.653 123.825 173.865 123.823 174.084 123.821C174.61 123.926 174.61 123.926 175.196 124.805C175.267 125.589 175.267 125.589 175.263 126.546C175.263 126.903 175.263 127.261 175.263 127.63C175.26 128.016 175.257 128.402 175.253 128.8C175.252 129.2 175.252 129.599 175.251 129.999C175.249 131.049 175.243 132.099 175.236 133.15C175.23 134.222 175.228 135.294 175.225 136.367C175.219 138.47 175.209 140.573 175.196 142.676C175.526 142.667 175.856 142.659 176.196 142.649C201.374 141.979 201.374 141.979 210.06 146.778C210.488 147.012 210.488 147.012 210.926 147.251C217.713 151.255 221.968 158.066 224.16 165.475C225.293 169.89 225.179 174.394 225.168 178.918C225.166 179.839 225.169 180.76 225.171 181.681C225.176 183.852 225.175 186.023 225.17 188.193C225.165 190.43 225.17 192.666 225.179 194.903C225.187 196.832 225.189 198.761 225.186 200.69C225.185 201.838 225.186 202.987 225.192 204.135C225.197 205.211 225.195 206.286 225.188 207.362C225.186 207.945 225.191 208.528 225.196 209.111C225.192 209.456 225.189 209.802 225.185 210.158C225.185 210.459 225.185 210.76 225.184 211.07C225.001 211.817 225.001 211.817 224.349 212.353C223.513 212.705 222.969 212.806 222.068 212.807C221.78 212.81 221.492 212.812 221.195 212.815C220.725 212.812 220.725 212.812 220.246 212.81C219.748 212.812 219.748 212.812 219.24 212.814C218.142 212.818 217.044 212.816 215.946 212.813C215.183 212.813 214.421 212.814 213.658 212.815C212.059 212.817 210.46 212.815 208.861 212.81C207.014 212.806 205.168 212.807 203.321 212.812C201.542 212.817 199.764 212.816 197.985 212.813C197.229 212.813 196.473 212.814 195.717 212.816C194.661 212.818 193.605 212.814 192.548 212.81C192.235 212.811 191.922 212.813 191.6 212.815C190.433 212.805 189.45 212.756 188.333 212.403C187.495 211.492 187.588 210.526 187.601 209.351C187.598 209.099 187.595 208.847 187.591 208.588C187.583 207.756 187.585 206.924 187.587 206.091C187.583 205.515 187.578 204.938 187.573 204.361C187.562 202.843 187.559 201.324 187.557 199.805C187.555 198.256 187.544 196.707 187.534 195.157C187.515 192.117 187.505 189.076 187.501 186.036C186.995 186.076 186.489 186.119 185.983 186.161C185.56 186.197 185.56 186.197 185.129 186.232C183.811 186.382 182.565 186.709 181.294 187.079C181.027 187.157 180.76 187.234 180.485 187.314C178.204 188.006 176.167 188.97 174.074 190.095C168.315 193.133 162.951 195.219 156.353 195.192C156.007 195.193 155.661 195.194 155.305 195.195C154.356 195.197 153.407 195.196 152.458 195.194C151.431 195.193 150.403 195.195 149.376 195.197C147.368 195.199 145.36 195.199 143.352 195.197C141.721 195.196 140.09 195.195 138.459 195.196C138.226 195.196 137.993 195.196 137.754 195.196C137.281 195.197 136.808 195.197 136.336 195.197C131.912 195.199 127.489 195.197 123.066 195.194C119.27 195.191 115.473 195.191 111.677 195.194C107.265 195.197 102.852 195.198 98.4404 195.197C97.9704 195.196 97.5003 195.196 97.0303 195.196C96.799 195.196 96.5678 195.196 96.3295 195.196C94.6987 195.195 93.0678 195.196 91.4369 195.198C89.452 195.199 87.467 195.199 85.4821 195.196C84.4691 195.194 83.4561 195.194 82.4432 195.195C81.3467 195.197 80.2504 195.195 79.1539 195.192C78.8317 195.193 78.5095 195.195 78.1776 195.196C77.8851 195.195 77.5926 195.193 77.2913 195.191C77.0381 195.191 76.7849 195.191 76.5241 195.191C75.8798 195.118 75.8798 195.118 75.0009 194.532C74.8911 193.661 74.8911 193.661 74.8913 192.519C74.8895 192.205 74.8895 192.205 74.8878 191.884C74.8849 191.179 74.8884 190.474 74.8918 189.768C74.8911 189.264 74.89 188.76 74.8886 188.255C74.8858 186.883 74.8886 185.511 74.8925 184.139C74.8958 182.705 74.8946 181.272 74.894 179.838C74.8938 177.431 74.897 175.023 74.9024 172.615C74.9086 169.828 74.9097 167.041 74.9078 164.255C74.9062 161.578 74.9078 158.901 74.9111 156.224C74.9125 155.083 74.9127 153.942 74.9121 152.801C74.9116 151.458 74.9139 150.116 74.9186 148.773C74.9198 148.279 74.9201 147.785 74.9192 147.291C74.9183 146.619 74.9209 145.947 74.9245 145.275C74.9251 144.898 74.9257 144.522 74.9264 144.133C75.0009 143.262 75.0009 143.262 75.5869 142.676C76.4322 142.6 76.4322 142.6 77.537 142.595C77.7397 142.593 77.9423 142.591 78.1512 142.59C78.8336 142.585 79.516 142.584 80.1984 142.583C80.6863 142.58 81.1742 142.577 81.662 142.574C82.9894 142.566 84.3168 142.562 85.6441 142.558C87.0302 142.553 88.4163 142.545 89.8025 142.538C92.4285 142.524 95.0546 142.513 97.6807 142.504C100.67 142.492 103.659 142.478 106.648 142.463C112.798 142.433 118.948 142.407 125.099 142.383C125.098 142.156 125.097 141.93 125.097 141.696C125.091 139.562 125.086 137.428 125.083 135.294C125.082 134.196 125.08 133.099 125.076 132.002C125.073 130.944 125.072 129.886 125.071 128.828C125.07 128.423 125.069 128.019 125.068 127.614C125.065 127.049 125.065 126.485 125.065 125.92C125.065 125.598 125.064 125.276 125.063 124.944C125.099 124.219 125.099 124.219 125.392 123.926C126.279 123.9 127.16 123.893 128.048 123.898C128.314 123.898 128.58 123.899 128.854 123.899C129.708 123.901 130.562 123.904 131.416 123.908C131.993 123.909 132.57 123.911 133.148 123.912C134.566 123.915 135.985 123.921 137.403 123.926C137.403 120.349 137.403 116.772 137.403 113.086C136.263 113.103 135.123 113.12 133.948 113.138C132.833 113.149 131.718 113.158 130.603 113.167C129.833 113.174 129.064 113.184 128.294 113.197C127.182 113.215 126.07 113.223 124.958 113.23C124.619 113.237 124.279 113.245 123.93 113.252C119.95 113.254 116.902 111.781 114.039 109.113C111.398 106.252 110.283 103.349 110.36 99.4451C110.679 95.8881 112.205 93.0106 114.79 90.5828C117.313 88.5097 120.189 87.5074 123.442 87.5179ZM118.946 94.3365C118.781 94.4414 118.616 94.5462 118.446 94.6543C117.182 95.5724 116.425 96.6574 116.017 98.1451C115.69 100.666 115.762 102.76 117.253 104.876C118.607 106.415 120.234 107.435 122.3 107.602C122.691 107.608 123.082 107.612 123.473 107.613C123.688 107.616 123.902 107.619 124.123 107.622C124.829 107.631 125.534 107.636 126.24 107.641C126.73 107.647 127.221 107.653 127.711 107.659C129 107.674 130.288 107.685 131.576 107.696C132.892 107.708 134.208 107.723 135.524 107.737C138.103 107.766 140.683 107.791 143.263 107.813C143.262 108.011 143.261 108.208 143.261 108.412C143.254 110.46 143.25 112.508 143.247 114.556C143.245 115.321 143.243 116.087 143.241 116.852C143.237 117.949 143.235 119.047 143.234 120.144C143.233 120.489 143.231 120.833 143.229 121.188C143.229 121.663 143.229 121.663 143.229 122.148C143.229 122.428 143.228 122.709 143.227 122.998C143.191 123.627 143.191 123.627 143.556 123.926C143.969 123.954 144.384 123.961 144.799 123.96C145.063 123.96 145.327 123.96 145.599 123.96C145.886 123.958 146.173 123.956 146.468 123.955C146.76 123.955 147.053 123.954 147.354 123.954C148.291 123.952 149.228 123.948 150.166 123.945C150.8 123.943 151.433 123.942 152.067 123.941C153.625 123.937 155.182 123.932 156.739 123.926C156.742 123.729 156.745 123.531 156.748 123.328C156.78 121.28 156.814 119.231 156.848 117.183C156.861 116.418 156.873 115.653 156.885 114.887C156.902 113.79 156.92 112.693 156.939 111.595C156.944 111.251 156.949 110.906 156.954 110.551C156.96 110.235 156.966 109.918 156.972 109.592C156.977 109.311 156.981 109.031 156.986 108.742C157.032 108.106 157.032 108.106 157.325 107.813C157.978 107.781 158.631 107.77 159.284 107.767C159.489 107.765 159.694 107.764 159.905 107.762C160.352 107.759 160.799 107.757 161.245 107.755C161.954 107.751 162.662 107.746 163.37 107.739C165.385 107.721 167.399 107.705 169.414 107.695C170.645 107.689 171.876 107.679 173.108 107.666C173.576 107.662 174.044 107.659 174.512 107.658C177.787 107.651 180.374 107.542 182.882 105.177C184.424 103.427 184.774 101.57 184.681 99.2757C184.4 97.1355 183.338 95.8943 181.756 94.4955C179.992 93.3571 178.329 93.0341 176.279 93.051C175.929 93.0486 175.929 93.0486 175.572 93.0462C174.795 93.0421 174.019 93.0441 173.243 93.0462C172.684 93.0445 172.126 93.0425 171.567 93.0401C170.053 93.0349 168.539 93.0352 167.025 93.0369C165.76 93.0378 164.494 93.036 163.229 93.0342C160.243 93.0301 157.258 93.0306 154.272 93.0339C151.195 93.0373 148.118 93.0331 145.041 93.0253C142.396 93.0188 139.75 93.0169 137.105 93.0186C135.527 93.0196 133.949 93.0189 132.37 93.0138C130.886 93.0093 129.401 93.0105 127.917 93.016C127.373 93.017 126.83 93.0161 126.286 93.0131C122.446 92.9255 122.446 92.9255 118.946 94.3365ZM130.958 129.493C130.861 135.487 130.765 141.481 130.665 147.657C130.13 148.192 129.283 148 128.564 148.01C128.375 148.013 128.187 148.016 127.992 148.019C127.366 148.028 126.74 148.035 126.114 148.042C125.681 148.048 125.247 148.055 124.814 148.061C123.672 148.077 122.53 148.092 121.388 148.106C120.224 148.12 119.06 148.137 117.895 148.153C115.609 148.184 113.322 148.214 111.036 148.243C111.395 150.758 111.852 153.23 112.405 155.709C112.553 156.395 112.7 157.081 112.848 157.766C113.076 158.827 113.306 159.887 113.544 160.946C115.187 168.287 115.187 168.287 114.393 172.167C114.236 172.967 114.109 173.77 113.985 174.577C113.633 176.848 113.259 179.115 112.884 181.383C112.724 182.355 112.565 183.327 112.407 184.3C112.358 184.595 112.308 184.891 112.257 185.196C112.212 185.473 112.167 185.75 112.121 186.035C112.061 186.397 112.061 186.397 112 186.767C111.903 187.602 111.91 188.418 111.915 189.258C118.037 189.272 124.16 189.282 130.282 189.289C133.125 189.292 135.968 189.296 138.811 189.303C141.29 189.308 143.77 189.312 146.249 189.313C147.561 189.314 148.872 189.316 150.184 189.32C151.421 189.324 152.658 189.325 153.895 189.325C154.347 189.325 154.798 189.326 155.25 189.328C161.234 189.357 166.149 188.192 171.388 185.358C174.886 183.471 178.404 182.125 182.227 181.055C182.435 180.996 182.642 180.936 182.856 180.875C186.203 179.946 189.626 180.084 193.067 180.176C193.44 181.296 193.412 182.355 193.42 183.522C193.423 183.773 193.426 184.025 193.429 184.284C193.438 185.116 193.446 185.948 193.453 186.781C193.459 187.357 193.465 187.934 193.471 188.511C193.488 190.03 193.502 191.548 193.516 193.067C193.534 194.889 193.553 196.71 193.572 198.532C193.601 201.3 193.627 204.068 193.653 206.836C202.064 206.836 210.476 206.836 219.142 206.836C219.176 200.234 219.176 200.234 219.199 193.631C219.206 190.935 219.214 188.24 219.23 185.544C219.242 183.58 219.249 181.616 219.252 179.652C219.253 178.614 219.257 177.576 219.265 176.538C219.338 170.348 219.338 170.348 217.97 164.356C217.859 164.035 217.748 163.714 217.634 163.383C215.524 157.574 210.834 153.124 205.368 150.464C202.048 148.934 198.648 148.205 195.005 148.187C194.734 148.185 194.463 148.182 194.183 148.18C193.597 148.175 193.01 148.17 192.424 148.166C191.497 148.16 190.57 148.152 189.643 148.144C187.343 148.124 185.043 148.106 182.742 148.089C180.795 148.074 178.848 148.058 176.901 148.04C175.985 148.032 175.07 148.026 174.154 148.02C173.597 148.015 173.04 148.01 172.483 148.005C172.227 148.004 171.97 148.003 171.706 148.002C169.956 147.983 169.956 147.983 169.63 147.657C169.436 141.663 169.243 135.668 169.044 129.493C156.476 129.493 143.907 129.493 130.958 129.493ZM80.8603 148.243C80.8603 161.778 80.8603 175.313 80.8603 189.258C84.5341 189.258 88.208 189.258 91.9931 189.258C92.3305 187.484 92.3305 187.484 92.6672 185.71C92.94 184.273 93.2174 182.837 93.505 181.403C95.5443 171.978 95.5443 171.978 94.3642 162.572C93.9292 161.079 93.6143 159.559 93.2851 158.04C93.2198 157.739 93.1544 157.437 93.0871 157.127C92.954 156.511 92.821 155.896 92.6882 155.281C92.3673 153.805 92.0357 152.332 91.7036 150.859C91.5091 149.996 91.3146 149.132 91.1142 148.243C87.7304 148.243 84.3466 148.243 80.8603 148.243ZM97.2665 148.243C97.4328 150.472 97.8224 152.613 98.2931 154.796C98.4391 155.491 98.585 156.186 98.7308 156.882C98.9596 157.965 99.1894 159.047 99.4214 160.129C99.6466 161.183 99.8673 162.237 100.088 163.292C100.157 163.61 100.227 163.929 100.298 164.257C101.058 167.927 100.751 171.208 100.131 174.879C100.064 175.287 99.9979 175.695 99.9318 176.103C99.7592 177.165 99.5836 178.227 99.407 179.289C99.1228 180.999 98.8418 182.709 98.5635 184.42C98.4658 185.016 98.366 185.612 98.266 186.208C98.2073 186.566 98.1486 186.925 98.0882 187.294C98.0355 187.61 97.9828 187.927 97.9285 188.253C97.9034 188.488 97.8783 188.723 97.8525 188.965C98.1629 189.342 98.1629 189.342 98.8779 189.292C99.1955 189.29 99.5131 189.289 99.8403 189.287C100.183 189.286 100.526 189.285 100.879 189.284C101.24 189.282 101.601 189.279 101.972 189.277C102.334 189.275 102.696 189.274 103.069 189.273C103.967 189.269 104.865 189.264 105.763 189.258C106.37 186.736 106.887 184.214 107.314 181.656C107.372 181.311 107.43 180.965 107.49 180.61C107.611 179.886 107.731 179.163 107.85 178.439C108.033 177.337 108.221 176.237 108.41 175.136C108.527 174.428 108.644 173.721 108.761 173.013C108.817 172.688 108.874 172.363 108.932 172.027C109.489 168.574 108.866 165.614 108.134 162.222C108.049 161.826 107.965 161.43 107.881 161.034C107.706 160.211 107.529 159.389 107.352 158.567C107.125 157.511 106.9 156.455 106.675 155.398C106.502 154.584 106.328 153.77 106.154 152.956C106.07 152.566 105.987 152.177 105.904 151.787C105.789 151.245 105.672 150.704 105.555 150.163C105.489 149.855 105.423 149.547 105.355 149.23C105.244 148.553 105.244 148.553 104.884 148.243C104.319 148.217 103.754 148.211 103.189 148.214C102.846 148.215 102.503 148.216 102.15 148.217C101.789 148.219 101.429 148.222 101.057 148.224C100.695 148.226 100.333 148.227 99.9599 148.228C99.0621 148.232 98.1643 148.237 97.2665 148.243Z" fill="black"/>
</svg>
