<svg width="300" height="300" viewBox="0 0 300 300" fill="none" xmlns="http://www.w3.org/2000/svg">
<path d="M155.767 60.0776C157.541 61.4658 159.069 63.7704 159.667 65.9187C159.887 68.5968 159.675 70.9985 158.788 73.5359C159.109 73.5298 159.429 73.5238 159.759 73.5176C160.839 73.5359 160.839 73.5359 161.718 73.8288C162.167 74.4257 162.572 75.0144 162.97 75.6439C163.089 75.8272 163.208 76.0105 163.33 76.1993C163.711 76.7871 164.088 77.377 164.465 77.967C164.84 78.5504 165.216 79.1332 165.593 79.7159C165.827 80.0783 166.06 80.4413 166.292 80.8047C167.077 82.0268 167.903 83.1903 168.749 84.3757C168.846 82.0554 168.943 79.7351 169.042 77.3445C170.197 76.767 170.612 76.6856 171.849 76.6874C172.176 76.6865 172.503 76.6856 172.841 76.6846C173.193 76.6867 173.545 76.6888 173.907 76.691C174.45 76.6912 174.45 76.6912 175.003 76.6914C175.963 76.6925 176.923 76.6963 177.883 76.7012C178.862 76.7052 179.841 76.7042 180.82 76.7042C181.561 76.7056 182.303 76.7073 183.044 76.7093C183.575 76.7098 183.575 76.7098 184.116 76.7103C184.44 76.7122 184.765 76.714 185.1 76.716C185.387 76.7171 185.674 76.7182 185.97 76.7194C186.62 76.7585 186.62 76.7585 186.913 77.0515C187.418 80.3688 187.267 83.821 187.232 87.1645C187.227 87.8189 187.227 88.4733 187.231 89.1277C187.259 93.3652 186.984 96.3812 184.57 99.9031C184.216 100.495 183.864 101.088 183.516 101.683C183.178 102.231 182.84 102.78 182.5 103.327C182.145 103.906 181.79 104.486 181.435 105.065C181.268 105.337 181.102 105.608 180.93 105.888C180.344 106.844 179.761 107.802 179.186 108.765C179.033 109.021 178.88 109.276 178.722 109.539C178.353 110.174 178.353 110.174 178.417 111.036C178.611 111.036 178.804 111.036 179.003 111.036C179.364 112.115 179.269 113.062 179.168 114.185C179.138 114.528 179.108 114.871 179.078 115.224C179.053 115.486 179.028 115.747 179.003 116.016C178.192 116.287 177.747 116.334 176.916 116.309C176.541 116.309 176.167 116.309 175.781 116.309C175.424 116.601 175.424 116.601 175.454 117.173C175.457 117.539 175.457 117.539 175.459 117.913C175.46 118.308 175.46 118.308 175.462 118.711C175.464 118.988 175.467 119.265 175.469 119.55C175.471 119.967 175.471 119.967 175.473 120.393C175.477 121.083 175.482 121.772 175.488 122.462C175.661 122.458 175.834 122.454 176.013 122.45C178.954 122.412 181.442 123.116 183.691 125.098C185.428 127.14 186.188 129.268 186.127 131.948C185.884 133.958 184.987 136.099 183.398 137.403C181.166 138.853 179.406 139.47 176.745 139.46C176.454 139.459 176.164 139.458 175.865 139.457C175.644 139.456 175.423 139.455 175.195 139.454C175.174 142.195 175.158 144.936 175.149 147.677C175.145 148.951 175.138 150.225 175.128 151.499C175.088 156.639 175.098 161.749 175.586 166.869C175.621 167.235 175.655 167.601 175.691 167.978C176.467 175.322 178.028 184.426 182.226 190.723C182.226 191.013 182.226 191.303 182.226 191.602C182.419 191.602 182.613 191.602 182.812 191.602C182.812 191.796 182.812 191.989 182.812 192.188C183.017 192.237 183.223 192.285 183.434 192.335C185.011 193.157 185.813 194.56 186.456 196.18C186.813 197.942 186.511 199.793 186.327 201.563C186.54 201.567 186.753 201.572 186.973 201.576C190.646 201.75 193.251 202.919 195.894 205.485C198.145 207.992 199.092 211.052 199.053 214.381C199.052 214.634 199.051 214.888 199.05 215.149C199.004 217.32 198.578 219.174 197.753 221.192C198.025 221.156 198.297 221.12 198.577 221.082C200.418 221.082 202.149 222.207 203.518 223.365C205.7 225.778 206.006 228.798 205.985 231.903C205.984 232.249 205.984 232.249 205.984 232.603C205.982 233.334 205.978 234.066 205.975 234.797C205.973 235.296 205.972 235.794 205.971 236.293C205.967 237.51 205.962 238.726 205.956 239.942C193.175 239.98 180.394 240.017 167.612 240.054C166.098 240.058 164.584 240.063 163.07 240.067C162.768 240.068 162.467 240.069 162.156 240.07C157.297 240.084 152.438 240.098 147.578 240.113C142.58 240.127 137.582 240.142 132.583 240.156C129.507 240.165 126.431 240.174 123.355 240.183C121.236 240.19 119.118 240.196 116.999 240.202C115.782 240.205 114.566 240.209 113.35 240.212C110.972 240.22 108.594 240.226 106.216 240.23C104.865 240.233 103.514 240.238 102.163 240.244C101.227 240.248 100.291 240.251 99.3543 240.253C98.9077 240.254 98.4611 240.256 98.0146 240.259C97.4014 240.262 96.7882 240.264 96.1749 240.265C95.8258 240.266 95.4766 240.267 95.1168 240.269C94.3352 240.235 94.3352 240.235 94.0422 239.942C94.0053 239.199 93.987 238.464 93.9827 237.72C93.9811 237.494 93.9794 237.268 93.9777 237.035C93.9749 236.553 93.973 236.072 93.9719 235.591C93.969 234.865 93.96 234.139 93.9507 233.413C93.9253 229.655 94.2029 226.23 96.8438 223.325C98.3892 221.866 100.125 221.192 102.245 221.192C102.118 220.94 102.118 220.94 101.989 220.683C100.576 217.449 100.518 213.265 101.629 209.908C103.148 206.494 105.472 203.824 108.874 202.241C110.421 201.687 112.042 201.642 113.671 201.563C113.623 201.297 113.574 201.031 113.525 200.758C113.184 198.165 112.97 196.084 114.63 193.921C115.338 193.136 116.028 192.505 116.894 191.895C117.087 191.895 117.281 191.895 117.48 191.895C117.553 191.704 117.627 191.513 117.703 191.316C117.983 190.631 118.276 189.961 118.584 189.288C121.952 181.933 123.587 174.432 124.511 166.407C124.549 166.088 124.549 166.088 124.587 165.763C124.87 163.094 124.87 160.423 124.897 157.743C124.903 157.222 124.909 156.701 124.915 156.18C124.931 154.819 124.946 153.459 124.96 152.098C124.975 150.706 124.991 149.313 125.007 147.921C125.038 145.196 125.068 142.471 125.097 139.747C124.8 139.731 124.503 139.716 124.197 139.7C123.801 139.677 123.405 139.654 123.01 139.631C122.815 139.621 122.62 139.612 122.419 139.601C119.804 139.444 117.709 138.683 115.764 136.925C115.429 136.524 115.429 136.524 115.429 135.938C115.236 135.938 115.042 135.938 114.843 135.938C113.566 132.491 113.373 129.95 114.843 126.563C115.036 126.563 115.23 126.563 115.429 126.563C115.489 126.4 115.55 126.237 115.612 126.069C116.798 124.075 119.018 123.162 121.16 122.535C122.174 122.431 123.198 122.462 124.218 122.462C124.315 120.431 124.411 118.401 124.511 116.309C123.722 116.318 123.722 116.318 122.918 116.328C122.375 116.334 121.831 116.33 121.288 116.309C120.725 115.746 120.854 114.774 120.794 114.02C120.747 113.474 120.747 113.474 120.699 112.916C120.702 111.963 120.774 111.525 121.288 110.743C121.482 110.743 121.675 110.743 121.874 110.743C121.608 110.186 121.339 109.631 121.069 109.077C120.919 108.767 120.77 108.458 120.615 108.139C120.131 107.253 119.578 106.545 118.945 105.762C118.667 105.27 118.404 104.77 118.157 104.261C118.035 104.012 117.913 103.764 117.788 103.508C117.48 102.833 117.48 102.833 117.187 101.954C116.993 101.857 116.8 101.76 116.601 101.661C116.195 100.977 115.816 100.296 115.447 99.5918C115.345 99.4031 115.244 99.2145 115.139 99.0201C114.831 98.4388 114.532 97.8643 114.257 97.2663C114.102 96.9406 113.947 96.6149 113.787 96.2794C113.136 94.5023 113.27 92.6518 113.292 90.7844C113.294 90.3871 113.295 89.9898 113.296 89.5924C113.299 88.554 113.308 87.5157 113.318 86.4773C113.327 85.4148 113.331 84.3522 113.335 83.2897C113.345 81.2102 113.36 79.1309 113.378 77.0515C115.665 77.0447 117.952 77.0395 120.239 77.0363C121.3 77.0348 122.362 77.0327 123.424 77.0294C124.448 77.0262 125.472 77.0245 126.496 77.0237C127.078 77.0229 127.661 77.0206 128.243 77.0183C128.595 77.0183 128.947 77.0183 129.309 77.0182C129.777 77.0173 129.777 77.0173 130.254 77.0163C130.956 77.0515 130.956 77.0515 131.249 77.3445C131.267 78.2978 131.255 79.2467 131.238 80.1998C131.223 81.5288 131.322 82.7713 131.542 84.0827C131.916 83.5343 132.288 82.9848 132.659 82.4348C132.867 82.1289 133.074 81.823 133.287 81.5078C133.846 80.63 134.318 79.748 134.765 78.8093C134.958 78.8093 135.152 78.8093 135.351 78.8093C135.797 77.9488 136.171 77.0759 136.523 76.1726C136.716 76.1726 136.909 76.1726 137.109 76.1726C137.187 75.9551 137.266 75.7375 137.347 75.5134C137.697 74.7011 137.937 74.1507 138.573 73.5359C139.654 73.3161 139.654 73.3161 140.624 73.2429C140.557 73.002 140.491 72.761 140.422 72.5128C139.588 69.2734 139.75 66.9706 140.917 63.8679C141.014 63.5779 141.111 63.2878 141.21 62.989C141.404 62.989 141.597 62.989 141.796 62.989C141.896 62.7443 141.896 62.7443 141.998 62.4946C142.985 60.7553 144.577 59.5152 146.484 58.979C149.65 58.182 152.943 58.308 155.767 60.0776ZM147.07 64.4538C146.065 65.3511 145.341 66.2925 145.263 67.657C145.261 67.9958 145.259 68.3346 145.257 68.6836C145.253 69.0216 145.249 69.3596 145.244 69.7078C145.242 70.6568 145.242 70.6568 145.898 71.4851C146.091 71.4851 146.284 71.4851 146.484 71.4851C146.55 71.6664 146.617 71.8476 146.685 72.0344C147.207 72.8798 147.576 72.9929 148.534 73.2429C150.345 73.421 151.76 73.2194 153.222 72.071C154.266 70.7719 154.589 69.3529 154.507 67.7074C154.264 66.3815 153.48 65.584 152.544 64.6736C150.62 63.4203 149.059 63.3771 147.07 64.4538ZM142.968 77.3445C140.276 80.0416 138.356 83.503 136.314 86.6974C135.512 87.947 134.677 89.1672 133.815 90.3759C133.015 91.5221 132.265 92.7007 131.511 93.8777C130.978 94.6005 130.554 95.0531 129.784 95.5085C128.571 95.6169 127.567 95.6672 126.562 94.9226C125.752 93.7824 125.873 92.4787 125.855 91.1369C125.849 90.8849 125.843 90.633 125.837 90.3734C125.82 89.5705 125.806 88.7676 125.793 87.9646C125.782 87.4195 125.77 86.8743 125.758 86.3292C125.73 84.9945 125.706 83.6598 125.683 82.3249C123.459 82.3249 121.236 82.3249 118.945 82.3249C118.883 83.9457 118.831 85.5623 118.8 87.1833C118.787 87.732 118.769 88.2806 118.746 88.829C118.573 93.038 119.29 95.7906 121.581 99.3171C121.789 99.6578 121.995 99.9992 122.199 100.342C122.653 101.098 123.119 101.846 123.59 102.591C124.272 103.679 124.94 104.777 125.61 105.872C125.744 106.092 125.879 106.311 126.018 106.538C126.63 107.537 127.228 108.538 127.793 109.564C128.222 110.467 128.222 110.467 128.906 110.743C129.461 110.776 130.018 110.79 130.575 110.796C130.93 110.8 131.285 110.804 131.652 110.809C132.047 110.812 132.443 110.815 132.839 110.818C133.254 110.822 133.67 110.827 134.085 110.831C137.878 110.869 141.671 110.888 145.464 110.904C148.267 110.915 151.071 110.935 153.874 110.966C155.846 110.988 157.817 110.999 159.788 111.003C160.966 111.005 162.143 111.013 163.32 111.031C164.428 111.047 165.536 111.052 166.645 111.046C167.051 111.047 167.457 111.051 167.862 111.061C170.121 111.152 170.121 111.152 172.067 110.182C172.599 109.512 173.024 108.855 173.437 108.106C173.708 107.666 173.978 107.226 174.249 106.786C174.505 106.336 174.759 105.885 175.011 105.433C175.29 104.943 175.568 104.453 175.847 103.963C175.983 103.723 176.12 103.483 176.26 103.235C177.025 101.902 177.83 100.593 178.632 99.2828C178.781 99.0225 178.781 99.0225 178.932 98.7569C179.296 98.1452 179.296 98.1452 179.826 97.3923C181.782 94.3417 181.585 91.4599 181.475 87.9463C181.465 87.3708 181.455 86.7954 181.447 86.2199C181.425 84.8235 181.389 83.4279 181.347 82.032C180.279 82.0235 179.211 82.0183 178.143 82.0137C177.838 82.0112 177.533 82.0087 177.218 82.0062C176.929 82.0053 176.639 82.0043 176.34 82.0034C176.072 82.0018 175.803 82.0003 175.527 81.9987C174.906 81.9619 174.906 81.9619 174.609 82.3249C174.573 83.1523 174.554 83.9737 174.547 84.8014C174.539 85.3145 174.53 85.8276 174.522 86.3407C174.51 87.152 174.499 87.9633 174.491 88.7747C174.483 89.5561 174.47 90.3373 174.455 91.1186C174.454 91.36 174.453 91.6015 174.452 91.8502C174.424 93.1981 174.332 94.1344 173.437 95.2156C172.38 95.5677 171.617 95.6042 170.507 95.5085C169.146 94.6272 168.363 93.4661 167.486 92.1394C167.345 91.9302 167.204 91.7209 167.058 91.5054C166.643 90.8882 166.231 90.269 165.82 89.6492C165.616 89.344 165.412 89.0389 165.203 88.7245C164.832 88.1674 164.461 87.61 164.09 87.0525C162.949 85.3463 161.794 83.651 160.617 81.9692C160.302 81.5165 159.993 81.0599 159.684 80.6026C158.572 79.0354 157.461 78.1104 155.566 77.6374C154.781 77.6332 154.781 77.6332 154.101 77.9304C150.992 79.0736 147.836 79.0674 144.726 77.9304C144.436 77.737 144.146 77.5437 143.847 77.3445C143.557 77.3445 143.267 77.3445 142.968 77.3445ZM160.075 116.121C153.023 116.277 145.975 116.336 138.921 116.328C138.707 116.327 138.492 116.327 138.271 116.327C135.637 116.324 133.004 116.318 130.37 116.309C129.889 117.271 130.023 118.329 130.022 119.385C130.019 119.615 130.015 119.845 130.012 120.082C130.01 120.681 130.042 121.279 130.077 121.876C130.607 122.528 130.607 122.528 131.349 122.534C131.637 122.533 131.926 122.533 132.224 122.532C132.555 122.533 132.886 122.534 133.228 122.535C133.775 122.531 133.775 122.531 134.334 122.528C134.717 122.528 135.1 122.528 135.494 122.528C136.546 122.529 137.598 122.525 138.65 122.521C139.749 122.517 140.847 122.517 141.946 122.516C144.028 122.515 146.109 122.51 148.19 122.504C150.559 122.497 152.929 122.494 155.298 122.491C160.172 122.485 165.047 122.475 169.921 122.462C169.921 120.431 169.921 118.401 169.921 116.309C166.723 115.67 163.326 116.048 160.075 116.121ZM119.893 128.717C119.069 129.815 119.173 131.354 119.347 132.661C120.206 133.817 121.698 134.346 123.098 134.58C123.753 134.618 124.397 134.622 125.053 134.611C125.299 134.612 125.546 134.612 125.8 134.613C126.618 134.614 127.435 134.606 128.253 134.598C128.84 134.597 129.428 134.596 130.015 134.596C131.599 134.593 133.183 134.583 134.767 134.572C136.086 134.563 137.405 134.557 138.724 134.552C141.794 134.54 144.864 134.522 147.933 134.5C150.957 134.478 153.98 134.467 157.004 134.461C159.493 134.457 161.983 134.447 164.473 134.432C165.939 134.424 167.405 134.418 168.871 134.416C170.243 134.415 171.614 134.407 172.986 134.393C173.486 134.39 173.987 134.388 174.488 134.39C175.17 134.391 175.851 134.383 176.533 134.374C176.913 134.372 177.294 134.37 177.686 134.368C179.031 134.122 179.509 133.673 180.468 132.716C180.814 131.932 180.839 131.222 180.761 130.372C180.339 129.422 179.802 128.694 179.003 128.028C177.949 127.677 176.99 127.694 175.893 127.696C175.549 127.695 175.549 127.695 175.198 127.694C174.427 127.692 173.655 127.692 172.884 127.693C172.332 127.692 171.78 127.691 171.228 127.69C169.727 127.687 168.226 127.686 166.725 127.686C165.473 127.686 164.22 127.685 162.968 127.684C160.014 127.681 157.06 127.681 154.106 127.681C151.057 127.681 148.007 127.678 144.958 127.673C142.342 127.669 139.726 127.668 137.109 127.668C135.546 127.668 133.983 127.667 132.42 127.664C130.949 127.661 129.479 127.661 128.009 127.663C127.469 127.664 126.929 127.663 126.389 127.661C125.653 127.659 124.916 127.66 124.18 127.663C123.966 127.661 123.752 127.66 123.531 127.658C122.115 127.668 121.029 127.846 119.893 128.717ZM130.663 139.454C130.662 139.714 130.661 139.974 130.66 140.241C130.649 142.743 130.632 145.245 130.609 147.746C130.598 149.031 130.589 150.316 130.584 151.601C130.537 163.697 129.473 175.306 125.316 186.758C125.042 187.559 125.042 187.559 125.097 188.673C137.323 188.846 149.549 188.997 161.776 189.017C162.823 189.019 163.871 189.022 164.919 189.026C166.151 189.031 167.383 189.033 168.615 189.033C169.066 189.033 169.518 189.034 169.969 189.036C170.584 189.039 171.199 189.038 171.813 189.037C172.157 189.037 172.501 189.038 172.855 189.038C173.701 188.968 174.187 188.822 174.902 188.38C174.594 186.868 174.227 185.409 173.728 183.95C170.161 173.459 169.793 162.688 169.742 151.733C169.731 149.603 169.714 147.473 169.696 145.343C169.69 144.605 169.687 143.866 169.683 143.128C169.681 142.683 169.677 142.237 169.674 141.792C169.674 141.588 169.674 141.383 169.673 141.173C169.744 140.232 169.744 140.232 169.335 139.454C168.835 139.426 168.333 139.418 167.832 139.419C167.506 139.418 167.18 139.418 166.845 139.417C166.484 139.418 166.123 139.419 165.752 139.421C165.186 139.421 165.186 139.421 164.609 139.42C163.571 139.42 162.534 139.422 161.497 139.424C160.413 139.426 159.33 139.426 158.247 139.426C156.195 139.427 154.143 139.43 152.09 139.433C149.754 139.436 147.418 139.438 145.083 139.439C140.276 139.442 135.47 139.447 130.663 139.454ZM149.413 194.239C148.566 194.261 147.727 194.263 146.88 194.254C146.481 194.251 146.481 194.251 146.074 194.248C145.495 194.244 144.915 194.239 144.336 194.234C143.419 194.226 142.501 194.221 141.584 194.217C138.975 194.204 136.366 194.19 133.757 194.167C132.163 194.152 130.569 194.144 128.974 194.139C128.367 194.136 127.759 194.131 127.151 194.124C126.3 194.114 125.449 194.112 124.597 194.111C124.346 194.106 124.096 194.101 123.837 194.096C122.005 194.106 121.021 194.626 119.624 195.838C118.892 196.668 118.654 197.141 118.542 198.249C118.679 199.462 118.745 199.929 119.689 200.73C120.878 201.364 121.827 201.434 123.139 201.419C123.38 201.421 123.621 201.423 123.87 201.425C124.675 201.429 125.479 201.426 126.284 201.422C126.862 201.423 127.44 201.426 128.018 201.428C129.587 201.433 131.155 201.431 132.723 201.428C134.364 201.425 136.006 201.427 137.647 201.429C140.402 201.431 143.158 201.429 145.914 201.423C149.1 201.417 152.287 201.419 155.473 201.425C158.209 201.43 160.945 201.431 163.68 201.428C165.314 201.426 166.948 201.426 168.582 201.43C170.118 201.433 171.654 201.431 173.19 201.424C173.754 201.423 174.318 201.423 174.882 201.426C175.651 201.429 176.42 201.425 177.189 201.419C177.413 201.422 177.637 201.424 177.867 201.427C179.302 201.406 180.049 201.128 181.054 200.098C181.518 198.996 181.407 197.971 181.091 196.839C180.11 195.512 178.773 194.464 177.142 194.075C176.408 194.011 175.692 193.999 174.955 194.008C174.681 194.004 174.406 194.001 174.124 193.997C173.226 193.987 172.329 193.99 171.432 193.993C170.806 193.989 170.18 193.984 169.553 193.979C167.912 193.966 166.271 193.965 164.63 193.965C163.285 193.964 161.94 193.955 160.595 193.945C158.995 193.934 157.395 193.927 155.795 193.92C155.335 193.918 155.335 193.918 154.865 193.916C154.003 193.913 153.141 193.912 152.28 193.912C152.022 193.911 151.764 193.91 151.498 193.909C150.365 193.799 150.365 193.799 149.413 194.239ZM107.519 209.766C106.081 211.737 105.812 214.131 106.054 216.505C106.423 218.155 107.079 219.219 108.398 220.313C109.289 220.849 109.942 220.973 110.977 220.974C111.403 220.976 111.403 220.976 111.838 220.979C112.305 220.977 112.305 220.977 112.782 220.976C113.113 220.977 113.444 220.978 113.786 220.979C114.9 220.982 116.014 220.981 117.129 220.98C117.926 220.981 118.724 220.982 119.521 220.984C121.464 220.988 123.408 220.988 125.351 220.988C126.93 220.987 128.51 220.988 130.089 220.989C130.314 220.989 130.538 220.989 130.77 220.989C131.226 220.99 131.682 220.99 132.139 220.991C136.42 220.994 140.701 220.993 144.982 220.991C148.9 220.99 152.817 220.993 156.735 220.999C160.756 221.004 164.778 221.007 168.799 221.006C171.057 221.005 173.316 221.006 175.574 221.01C177.496 221.013 179.419 221.014 181.341 221.01C182.322 221.009 183.303 221.009 184.284 221.012C185.347 221.015 186.41 221.013 187.473 221.009C187.783 221.011 188.094 221.013 188.414 221.015C190.449 221.013 190.449 221.013 192.187 220.02C192.656 219.41 192.656 219.41 192.992 218.72C193.112 218.497 193.231 218.274 193.354 218.044C194.224 216.114 194.209 213.943 193.615 211.927C192.691 209.517 191.413 208.179 189.072 207.103C187.999 206.691 187.067 206.507 185.916 206.506C185.659 206.505 185.401 206.504 185.135 206.503C184.712 206.504 184.712 206.504 184.28 206.505C183.98 206.504 183.679 206.503 183.369 206.502C182.359 206.501 181.348 206.501 180.338 206.501C179.615 206.5 178.891 206.499 178.168 206.498C176.405 206.496 174.643 206.495 172.88 206.495C171.446 206.495 170.013 206.494 168.58 206.493C164.514 206.49 160.449 206.489 156.384 206.489C156.055 206.489 156.055 206.489 155.72 206.489C155.391 206.489 155.391 206.489 155.055 206.489C151.501 206.49 147.947 206.487 144.393 206.483C140.742 206.478 137.091 206.476 133.441 206.477C131.392 206.477 129.343 206.476 127.294 206.473C125.366 206.47 123.438 206.47 121.51 206.472C120.803 206.472 120.096 206.472 119.389 206.47C118.423 206.468 117.457 206.469 116.49 206.471C116.211 206.47 115.933 206.468 115.645 206.467C112.227 206.484 109.881 207.149 107.519 209.766ZM149.413 226.173C148.808 226.2 148.203 226.206 147.597 226.204C147.31 226.204 147.31 226.204 147.016 226.203C146.368 226.202 145.721 226.2 145.073 226.197C144.611 226.196 144.149 226.195 143.686 226.194C142.688 226.192 141.69 226.189 140.692 226.186C139.114 226.18 137.536 226.177 135.957 226.175C131.469 226.168 126.981 226.158 122.492 226.144C120.015 226.137 117.538 226.132 115.061 226.129C113.492 226.127 111.923 226.123 110.354 226.116C109.378 226.113 108.401 226.112 107.424 226.112C106.972 226.111 106.519 226.109 106.066 226.107C105.447 226.103 104.829 226.103 104.21 226.104C103.864 226.103 103.518 226.102 103.161 226.101C102.23 226.174 101.603 226.319 100.781 226.759C99.4368 228.699 99.2752 230.377 99.2974 232.728C99.3 233.093 99.3027 233.457 99.3054 233.833C99.3088 234.109 99.3122 234.385 99.3157 234.669C100.091 235.056 100.669 234.998 101.537 234.999C101.887 234.999 102.237 235 102.597 235.001C102.989 235 103.38 235 103.772 234.999C104.185 234.999 104.599 235 105.012 235C106.152 235.001 107.292 235.001 108.432 235C109.66 234.999 110.887 235 112.115 235.001C114.522 235.002 116.929 235.002 119.336 235.001C121.291 235.001 123.247 235.001 125.202 235.001C125.619 235.001 125.619 235.001 126.044 235.001C126.608 235.001 127.172 235.001 127.737 235.001C133.034 235.002 138.331 235.001 143.628 235C148.178 234.998 152.727 234.999 157.277 235C162.554 235.001 167.832 235.002 173.11 235.001C173.672 235.001 174.234 235.001 174.797 235.001C175.212 235.001 175.212 235.001 175.635 235.001C177.589 235 179.543 235.001 181.497 235.002C183.877 235.002 186.257 235.002 188.637 235.001C189.852 235 191.067 235 192.282 235.001C193.393 235.001 194.504 235.001 195.615 234.999C196.019 234.999 196.422 234.999 196.825 235C197.371 235.001 197.916 235 198.462 234.999C198.917 234.998 198.917 234.998 199.382 234.998C200.099 235.009 200.099 235.009 200.683 234.669C200.699 233.771 200.71 232.874 200.719 231.977C200.724 231.724 200.729 231.471 200.734 231.21C200.753 229.354 200.753 229.354 200.097 227.637C198.411 225.989 197.194 225.843 194.909 225.842C194.716 225.842 194.522 225.842 194.323 225.841C193.676 225.84 193.029 225.841 192.383 225.842C191.918 225.841 191.454 225.841 190.989 225.84C189.73 225.839 188.47 225.839 187.211 225.84C185.894 225.841 184.577 225.84 183.259 225.84C181.049 225.839 178.838 225.84 176.628 225.841C174.069 225.843 171.509 225.843 168.95 225.841C166.755 225.84 164.56 225.839 162.364 225.84C161.052 225.841 159.74 225.841 158.428 225.84C157.196 225.839 155.964 225.839 154.731 225.841C154.278 225.842 153.825 225.841 153.371 225.841C152.755 225.84 152.139 225.841 151.522 225.842C151.004 225.843 151.004 225.843 150.475 225.843C149.728 225.792 149.728 225.792 149.413 226.173Z" fill="black"/>
</svg>
