<svg width="300" height="300" viewBox="0 0 300 300" fill="none" xmlns="http://www.w3.org/2000/svg">
<path d="M157.053 61.6339C159.381 63.5932 160.737 66.1919 161.426 69.1401C161.54 72.6375 160.815 75.3867 158.789 78.2221C158.589 78.6102 158.393 79.0004 158.204 79.394C158.384 79.5284 158.564 79.6629 158.749 79.8014C158.986 79.9812 159.223 80.1609 159.467 80.3461C159.702 80.5229 159.936 80.6996 160.178 80.8817C160.807 81.4163 161.255 81.9378 161.719 82.6166C162.021 82.5668 162.322 82.5169 162.632 82.4656C164.486 82.2354 166.339 82.3331 168.201 82.3969C168.75 82.4088 168.75 82.4088 169.31 82.4209C169.664 82.4326 170.018 82.4444 170.382 82.4564C170.862 82.4707 170.862 82.4707 171.351 82.4853C172.384 82.6335 173.1 83.0255 174.024 83.4955C174.993 83.3601 174.993 83.3601 175.782 82.9096C175.878 82.6196 175.975 82.3295 176.075 82.0307C176.353 82.0798 176.631 82.1289 176.917 82.1795C178.545 82.4129 180.182 82.317 181.822 82.2607C183.462 82.2333 184.608 82.3614 186.036 83.2026C186.801 84.2454 187.025 84.9867 187.033 86.271C187.038 86.742 187.038 86.742 187.044 87.2225C187.043 87.7274 187.043 87.7274 187.042 88.2426C187.043 88.5919 187.045 88.9412 187.046 89.3011C187.048 90.0399 187.048 90.7787 187.045 91.5174C187.043 92.6427 187.051 93.7675 187.06 94.8927C187.061 95.6118 187.061 96.3309 187.06 97.0499C187.063 97.3842 187.066 97.7184 187.07 98.0628C187.047 100.705 186.409 102.65 184.827 104.772C183.933 106.007 183.071 107.257 182.227 108.526C182.102 108.714 181.977 108.901 181.848 109.095C180.933 110.473 180.043 111.865 179.171 113.271C178.711 113.964 178.711 113.964 178.068 114.749C177.48 115.363 177.48 115.363 177.539 116.015C177.78 116.104 178.02 116.193 178.267 116.284C178.583 116.407 178.899 116.529 179.224 116.656C179.537 116.775 179.849 116.894 180.172 117.016C181.511 117.719 182.224 118.748 182.813 120.117C182.955 121.114 182.948 122.113 182.959 123.12C182.978 123.522 182.978 123.522 182.996 123.933C183.016 125.722 182.693 126.744 181.549 128.125C180.477 129.184 179.616 129.736 178.094 129.818C177.879 129.816 177.665 129.815 177.443 129.813C177.209 129.812 176.975 129.811 176.734 129.81C176.492 129.808 176.25 129.805 176.001 129.803C175.755 129.802 175.509 129.8 175.255 129.799C174.649 129.795 174.044 129.79 173.438 129.785C173.168 153.192 173.168 153.192 178.711 175.781C178.941 176.463 179.166 177.147 179.389 177.831C179.979 179.63 180.625 181.401 181.301 183.169C181.744 184.335 182.146 185.504 182.52 186.694C183.007 188.186 183.657 189.536 184.378 190.928C184.95 192.065 185.47 193.219 185.981 194.384C186.069 194.584 186.158 194.784 186.249 194.99C187.003 196.723 187.244 197.958 187.236 199.854C187.235 200.154 187.235 200.154 187.235 200.46C187.233 201.096 187.229 201.732 187.226 202.368C187.224 202.8 187.223 203.232 187.222 203.664C187.219 204.721 187.213 205.778 187.207 206.835C187.499 206.866 187.79 206.897 188.09 206.928C190.164 207.164 192.001 207.409 193.854 208.428C194.182 208.603 194.509 208.778 194.846 208.958C195.567 209.39 196.243 209.799 196.875 210.351C196.875 210.544 196.875 210.738 196.875 210.937C197.044 211.001 197.213 211.065 197.387 211.131C199.247 212.234 200.41 214.741 200.977 216.76C201.804 220.832 201.393 224.419 199.219 227.929C199.564 228.002 199.908 228.074 200.263 228.149C201.94 228.576 203.191 229.15 204.291 230.548C205.645 233.004 206.187 236.001 205.426 238.751C205.067 239.375 204.747 239.768 204.2 240.234C201.915 240.645 199.592 240.57 197.278 240.568C196.844 240.569 196.411 240.57 195.978 240.571C194.792 240.573 193.606 240.573 192.42 240.574C191.139 240.574 189.858 240.576 188.577 240.578C185.779 240.582 182.982 240.584 180.184 240.585C178.437 240.586 176.69 240.587 174.943 240.589C170.105 240.592 165.266 240.595 160.428 240.596C159.964 240.596 159.964 240.596 159.49 240.597C159.025 240.597 159.025 240.597 158.551 240.597C157.922 240.597 157.294 240.597 156.666 240.597C156.354 240.597 156.043 240.597 155.722 240.597C150.667 240.599 145.612 240.604 140.557 240.61C135.366 240.617 130.174 240.621 124.983 240.621C122.069 240.622 119.154 240.623 116.24 240.629C113.76 240.633 111.28 240.635 108.8 240.632C107.535 240.631 106.27 240.631 105.004 240.636C103.846 240.639 102.688 240.639 101.529 240.635C101.111 240.635 100.692 240.636 100.273 240.638C96.3118 240.661 96.3118 240.661 94.6293 239.648C93.625 238.026 93.8605 235.911 94.0434 234.081C94.6482 231.679 95.7125 229.827 97.852 228.515C98.5509 228.224 99.1533 228.07 99.9028 227.929C99.9028 227.446 99.9028 226.962 99.9028 226.464C99.7094 226.464 99.516 226.464 99.3168 226.464C97.9735 223.354 97.8044 218.899 98.993 215.701C101.034 211.525 103.748 208.998 108.106 207.421C109.453 207.072 110.82 206.922 112.207 206.835C112.186 206.597 112.165 206.359 112.143 206.113C112.069 205.191 112.007 204.27 111.954 203.347C111.928 202.946 111.898 202.545 111.863 202.145C111.53 198.254 112.663 195.397 114.258 191.894C114.744 190.791 115.224 189.685 115.705 188.58C115.827 188.301 115.949 188.023 116.075 187.736C116.969 185.689 117.817 183.627 118.634 181.549C118.741 181.278 118.849 181.007 118.959 180.728C119.55 179.208 120.066 177.686 120.51 176.117C120.704 175.488 120.704 175.488 121.143 174.481C121.61 173.373 121.923 172.284 122.224 171.122C122.384 170.512 122.551 169.904 122.726 169.298C126.361 156.465 126.327 143.292 126.27 130.078C125.934 130.084 125.598 130.091 125.253 130.098C124.804 130.104 124.356 130.109 123.908 130.114C123.688 130.119 123.467 130.124 123.24 130.129C120.884 130.149 119.211 129.718 117.481 128.027C116.019 125.961 116.158 123.744 116.309 121.289C116.676 119.426 117.603 118.199 119.162 117.131C120.157 116.519 120.686 116.308 121.875 116.308C121.875 115.921 121.875 115.535 121.875 115.136C121.585 115.039 121.295 114.943 120.997 114.843C120.558 114.182 120.558 114.182 120.118 113.378C118.315 110.48 116.407 107.65 114.503 104.818C113.389 103.131 112.467 101.68 112.458 99.608C112.456 99.3096 112.454 99.0113 112.452 98.704C112.452 98.3817 112.452 98.0594 112.451 97.7274C112.45 97.2294 112.45 97.2294 112.448 96.7212C112.447 96.0179 112.446 95.3145 112.446 94.6112C112.445 93.5381 112.44 92.4651 112.435 91.392C112.434 90.7084 112.433 90.0248 112.433 89.3412C112.431 89.0213 112.429 88.7014 112.427 88.3718C112.432 86.448 112.456 84.7464 113.544 83.0927C115.248 81.9568 117.84 82.2779 119.825 82.287C120.07 82.2859 120.316 82.2848 120.569 82.2836C125.358 82.291 125.358 82.291 126.563 83.4955C126.563 83.3022 126.563 83.1088 126.563 82.9096C127.634 82.5527 128.579 82.6241 129.688 82.6704C130.142 82.6827 130.596 82.6943 131.05 82.7053C131.762 82.7233 132.474 82.7447 133.186 82.7774C135.973 82.9816 135.973 82.9816 138.524 82.0858C139.162 81.4592 139.162 81.4592 139.653 80.7811C139.781 80.6134 139.908 80.4457 140.039 80.2729C140.233 80.2729 140.426 80.2729 140.625 80.2729C140.625 80.0795 140.625 79.8862 140.625 79.6869C140.819 79.5903 141.012 79.4936 141.211 79.394C141.028 79.153 140.844 78.9121 140.655 78.6638C139.221 76.7277 138.144 75.1293 137.989 72.6557C137.958 72.2992 137.928 71.9427 137.897 71.5754C138.046 67.6982 139.034 64.8242 141.837 62.0825C146.228 58.3543 152.439 58.2509 157.053 61.6339ZM145.02 64.1596C144.712 64.365 144.404 64.5705 144.086 64.7822C142.534 66.1727 141.772 68.1362 141.504 70.1655C141.389 72.4919 142.045 74.6755 143.555 76.4643C145.065 77.8755 146.454 78.88 148.536 79.101C148.743 79.1248 148.951 79.1486 149.165 79.1731C151.417 79.3035 153.437 78.5207 155.219 77.1601C157.051 75.4109 157.707 73.5357 157.782 71.0261C157.699 68.732 157.243 67.1587 155.768 65.4047C152.737 62.8665 148.55 61.6005 145.02 64.1596ZM142.383 82.6166C140.343 84.3212 140.343 84.3212 139.378 86.7122C139.377 86.9151 139.375 87.118 139.374 87.3271C139.371 87.5588 139.368 87.7905 139.365 88.0292C139.364 88.2767 139.364 88.5243 139.363 88.7793C139.356 89.3055 139.348 89.8318 139.341 90.358C139.332 91.1861 139.325 92.0142 139.32 92.8423C139.314 93.6426 139.302 94.4427 139.29 95.2429C139.29 95.491 139.29 95.7391 139.29 95.9948C139.261 97.7194 139.261 97.7194 138.77 98.3651C138.282 98.7299 138.282 98.7299 137.384 98.6933C136.524 98.4369 136.524 98.4369 135.938 97.558C135.867 96.6883 135.829 95.8436 135.817 94.9728C135.811 94.7205 135.805 94.4681 135.799 94.2081C135.782 93.4022 135.768 92.5962 135.755 91.7902C135.744 91.2438 135.732 90.6973 135.72 90.1509C135.692 88.8113 135.669 87.4719 135.645 86.1323C133.035 86.1323 130.424 86.1323 127.735 86.1323C127.708 87.391 127.708 87.391 127.681 88.6751C127.663 89.4857 127.644 90.2963 127.626 91.1069C127.613 91.6712 127.601 92.2356 127.589 92.8C127.572 93.6102 127.554 94.4202 127.535 95.2303C127.527 95.6103 127.527 95.6103 127.52 95.9979C127.475 97.7843 127.475 97.7843 127.149 98.4369C125.994 98.7193 125.395 98.7308 124.219 98.4369C124.074 92.3461 124.074 92.3461 123.926 86.1323C121.413 86.1323 118.899 86.1323 116.309 86.1323C116.241 88.1339 116.183 90.1314 116.148 92.1333C116.133 92.8118 116.114 93.4903 116.088 94.1686C115.93 98.4679 116.08 101.483 118.802 104.905C119.426 105.71 119.978 106.557 120.539 107.408C120.975 108.068 121.417 108.724 121.863 109.378C122.009 109.593 122.156 109.808 122.306 110.029C122.454 110.246 122.602 110.463 122.754 110.687C123.061 111.138 123.367 111.589 123.673 112.04C124.228 112.857 124.783 113.673 125.338 114.489C125.749 115.094 126.158 115.7 126.563 116.308C127.387 116.449 127.387 116.449 128.375 116.435C128.563 116.438 128.751 116.441 128.944 116.445C129.577 116.454 130.209 116.456 130.841 116.459C131.294 116.464 131.746 116.469 132.198 116.475C133.43 116.489 134.661 116.497 135.892 116.503C136.662 116.507 137.431 116.512 138.201 116.517C140.608 116.532 143.016 116.543 145.424 116.549C148.202 116.556 150.98 116.577 153.759 116.609C155.907 116.633 158.054 116.645 160.202 116.647C161.485 116.649 162.767 116.656 164.05 116.676C165.257 116.694 166.464 116.697 167.672 116.689C168.115 116.688 168.557 116.693 168.999 116.704C171.497 116.789 171.497 116.789 173.616 115.616C174.219 114.798 174.713 113.98 175.196 113.085C175.52 112.596 175.849 112.109 176.183 111.626C176.505 111.139 176.825 110.652 177.145 110.164C177.402 109.773 177.402 109.773 177.665 109.374C178.022 108.83 178.379 108.287 178.736 107.742C179.284 106.907 179.833 106.072 180.383 105.238C180.732 104.707 181.081 104.176 181.429 103.645C181.676 103.271 181.676 103.271 181.927 102.889C182.078 102.659 182.228 102.429 182.384 102.192C182.517 101.989 182.649 101.787 182.786 101.578C183.522 100.417 183.441 99.3733 183.438 98.0341C183.438 97.7883 183.438 97.5425 183.439 97.2892C183.439 96.7671 183.438 96.245 183.437 95.7228C183.436 94.9327 183.437 94.1425 183.439 93.3523C183.44 90.9269 183.422 88.5415 183.106 86.1323C181.891 86.1238 180.677 86.1186 179.462 86.114C179.115 86.1115 178.768 86.109 178.411 86.1065C178.081 86.1056 177.752 86.1046 177.412 86.1037C177.107 86.1021 176.802 86.1006 176.487 86.099C175.796 86.0523 175.796 86.0523 175.489 86.4252C175.442 87.291 175.413 88.1508 175.396 89.0173C175.387 89.4069 175.387 89.4069 175.378 89.8043C175.358 90.6371 175.341 91.47 175.324 92.3029C175.311 92.8662 175.298 93.4294 175.286 93.9926C175.254 95.3764 175.224 96.7602 175.196 98.144C174.12 98.7368 174.12 98.7368 173.255 98.675C172.559 98.4369 172.559 98.4369 171.973 97.558C171.902 96.6883 171.864 95.8436 171.852 94.9728C171.843 94.5943 171.843 94.5943 171.835 94.2081C171.817 93.4022 171.803 92.5962 171.79 91.7902C171.779 91.2438 171.767 90.6973 171.756 90.1509C171.727 88.8113 171.704 87.4719 171.68 86.1323C169.07 86.1323 166.459 86.1323 163.77 86.1323C163.777 86.8732 163.784 87.6142 163.791 88.3776C163.795 89.099 163.799 89.8204 163.802 90.5418C163.805 91.0414 163.809 91.5409 163.814 92.0404C163.821 92.7604 163.825 93.4803 163.827 94.2003C163.83 94.422 163.833 94.6436 163.836 94.8719C163.837 96.1747 163.668 97.2267 163.184 98.4369C162.221 98.6712 161.804 98.7582 160.84 98.4369C160.371 97.4974 160.501 96.4732 160.496 95.4409C160.489 94.9461 160.482 94.4513 160.475 93.9566C160.464 93.1775 160.456 92.3985 160.452 91.6193C160.447 90.8666 160.435 90.1143 160.423 89.3618C160.423 89.0174 160.423 89.0174 160.424 88.6661C160.382 86.7162 159.798 85.1909 158.507 83.7176C156.973 82.4478 155.971 81.6391 153.919 81.811C152.943 81.9242 152.611 82.0478 151.758 82.6166C151.621 83.2854 151.621 83.2854 151.636 84.0723C151.629 84.5269 151.629 84.5269 151.622 84.9907C151.621 85.3191 151.62 85.6475 151.619 85.9858C151.614 86.3217 151.609 86.6576 151.605 87.0037C151.591 88.0804 151.583 89.1571 151.575 90.2338C151.564 91.3105 151.553 92.3872 151.539 93.4639C151.531 94.1349 151.525 94.8059 151.521 95.4769C151.516 95.9315 151.516 95.9315 151.511 96.3953C151.509 96.7967 151.509 96.7967 151.506 97.2061C151.465 97.851 151.465 97.851 151.172 98.4369C150.342 98.7063 149.877 98.7913 149.048 98.4919C148.536 98.144 148.536 98.144 148.243 97.558C148.208 97.0705 148.191 96.5817 148.182 96.0931C148.174 95.6356 148.174 95.6356 148.165 95.1689C148.16 94.8387 148.155 94.5085 148.15 94.1683C148.144 93.831 148.138 93.4937 148.131 93.1461C148.112 92.0655 148.095 90.9849 148.078 89.9042C148.065 89.173 148.052 88.4417 148.039 87.7104C148.008 85.9148 147.978 84.1193 147.95 82.3237C147.439 82.2178 146.927 82.1155 146.415 82.0147C146.13 81.9573 145.845 81.9 145.552 81.8409C144.293 81.6835 143.436 81.9285 142.383 82.6166ZM120.411 120.41C119.539 121.717 119.643 122.978 119.825 124.511C120.127 125.282 120.422 125.645 120.997 126.269C122.044 126.618 122.995 126.604 124.084 126.603C124.425 126.604 124.425 126.604 124.772 126.606C125.536 126.608 126.299 126.609 127.062 126.609C127.608 126.611 128.154 126.612 128.7 126.614C130.186 126.617 131.671 126.619 133.156 126.621C134.084 126.621 135.012 126.623 135.939 126.624C138.84 126.628 141.741 126.631 144.642 126.632C147.993 126.633 151.344 126.638 154.695 126.647C157.284 126.653 159.873 126.656 162.462 126.657C164.009 126.657 165.556 126.659 167.103 126.664C168.558 126.669 170.012 126.669 171.467 126.667C172.001 126.666 172.535 126.668 173.07 126.671C173.799 126.674 174.527 126.673 175.256 126.67C175.574 126.673 175.574 126.673 175.898 126.677C177.18 126.664 177.984 126.468 179.004 125.683C179.969 124.364 179.947 123.278 179.828 121.718C179.484 120.672 178.978 120.222 178.125 119.531C177.298 119.387 176.649 119.334 175.824 119.349C175.594 119.347 175.364 119.345 175.127 119.343C174.357 119.338 173.588 119.344 172.819 119.35C172.267 119.349 171.715 119.348 171.163 119.346C169.664 119.341 168.165 119.346 166.667 119.353C165.099 119.359 163.531 119.357 161.963 119.357C159.329 119.357 156.696 119.363 154.063 119.372C151.018 119.383 147.973 119.385 144.928 119.383C142 119.381 139.071 119.385 136.143 119.39C134.896 119.393 133.649 119.393 132.403 119.393C130.935 119.393 129.467 119.397 127.999 119.404C127.46 119.407 126.922 119.407 126.383 119.406C125.647 119.405 124.912 119.409 124.177 119.415C123.964 119.414 123.75 119.412 123.53 119.41C122.245 119.428 121.429 119.616 120.411 120.41ZM130.079 129.785C130.073 130.209 130.067 130.633 130.061 131.07C129.769 151.73 127.368 170.138 119.301 189.261C119.052 189.851 118.806 190.441 118.559 191.032C117.248 194.159 117.248 194.159 116.485 195.648C115.972 196.495 115.972 196.495 116.016 197.167C117.121 197.21 118.225 197.236 119.33 197.259C119.644 197.271 119.958 197.284 120.282 197.296C120.734 197.303 120.734 197.303 121.195 197.31C121.611 197.322 121.611 197.322 122.036 197.334C122.817 197.234 122.817 197.234 123.26 196.496C123.383 196.234 123.506 195.972 123.633 195.703C123.768 195.423 123.768 195.423 123.906 195.137C123.983 194.956 124.06 194.775 124.139 194.589C124.228 194.379 124.318 194.169 124.41 193.953C124.551 193.613 124.551 193.613 124.695 193.267C124.796 193.025 124.898 192.782 125.002 192.533C130.838 178.41 134.545 164.08 135.645 148.828C135.659 148.632 135.674 148.437 135.689 148.235C135.972 144.27 135.972 140.313 135.956 136.34C135.955 135.7 135.953 135.061 135.952 134.422C135.949 132.876 135.944 131.33 135.938 129.785C134.004 129.785 132.071 129.785 130.079 129.785ZM139.454 129.785C139.417 132.008 139.381 134.232 139.344 136.523C138.947 156.93 135.54 175.359 127.749 194.343C127.632 194.629 127.514 194.916 127.394 195.21C127.29 195.462 127.186 195.714 127.078 195.973C126.822 196.565 126.822 196.565 126.856 197.167C141.841 197.167 156.827 197.167 172.266 197.167C172.042 195.824 171.84 194.97 171.322 193.765C171.189 193.452 171.057 193.139 170.921 192.816C170.779 192.481 170.636 192.147 170.49 191.802C165.494 179.738 162.644 166.788 161.426 153.808C161.397 153.508 161.368 153.209 161.338 152.9C160.623 145.22 160.664 137.488 160.547 129.785C153.586 129.785 146.625 129.785 139.454 129.785ZM164.063 129.785C163.962 143.553 164.341 157.001 167.286 170.507C167.343 170.778 167.401 171.049 167.461 171.328C170.108 185.116 170.108 185.116 176.368 197.167C176.868 197.193 177.369 197.199 177.87 197.196C178.173 197.195 178.476 197.194 178.789 197.193C179.108 197.191 179.426 197.188 179.755 197.186C180.075 197.184 180.395 197.183 180.725 197.182C181.519 197.178 182.312 197.173 183.106 197.167C182.45 195.084 181.634 193.108 180.762 191.107C173.536 174.224 170.24 157.321 170.039 139.005C170.027 137.96 170.012 136.915 169.998 135.869C169.97 133.841 169.945 131.813 169.922 129.785C167.989 129.785 166.055 129.785 164.063 129.785ZM115.723 200.683C115.723 202.81 115.723 204.937 115.723 207.128C124.34 207.135 132.956 207.14 141.573 207.143C142.589 207.144 143.605 207.144 144.621 207.144C144.925 207.145 144.925 207.145 145.234 207.145C148.514 207.146 151.795 207.148 155.075 207.151C158.438 207.154 161.801 207.155 165.164 207.156C167.054 207.156 168.944 207.157 170.835 207.159C172.611 207.161 174.388 207.162 176.165 207.161C176.819 207.162 177.473 207.162 178.127 207.163C179.016 207.165 179.905 207.164 180.794 207.164C181.057 207.164 181.319 207.165 181.59 207.166C182.732 207.277 182.732 207.277 183.692 206.835C183.717 206.356 183.723 205.876 183.72 205.397C183.719 205.107 183.719 204.817 183.718 204.519C183.715 204.214 183.713 203.909 183.71 203.594C183.708 203.135 183.708 203.135 183.706 202.667C183.703 201.908 183.698 201.149 183.692 200.39C175.16 200.383 166.628 200.378 158.096 200.375C157.09 200.375 156.083 200.374 155.076 200.374C154.876 200.374 154.675 200.374 154.469 200.374C151.221 200.372 147.974 200.37 144.726 200.367C141.396 200.365 138.065 200.363 134.734 200.363C132.863 200.362 130.991 200.361 129.12 200.359C127.36 200.357 125.6 200.356 123.84 200.357C123.193 200.357 122.545 200.356 121.898 200.355C121.017 200.354 120.136 200.354 119.255 200.355C118.996 200.354 118.738 200.353 118.471 200.352C117.482 200.355 116.668 200.368 115.723 200.683ZM104.004 214.16C103.878 214.3 103.751 214.44 103.621 214.584C102.072 216.482 101.548 218.921 101.642 221.337C101.923 223.462 102.85 225.472 104.254 227.089C105.693 227.942 107.092 227.799 108.735 227.787C109.1 227.789 109.465 227.791 109.841 227.793C110.854 227.798 111.866 227.797 112.879 227.794C113.972 227.792 115.064 227.796 116.156 227.8C118.296 227.806 120.436 227.806 122.576 227.804C124.314 227.802 126.053 227.803 127.792 227.804C128.039 227.805 128.287 227.805 128.542 227.805C129.044 227.806 129.547 227.806 130.049 227.807C134.762 227.812 139.476 227.809 144.189 227.804C148.503 227.8 152.816 227.804 157.13 227.813C161.558 227.821 165.986 227.824 170.414 227.822C170.915 227.821 171.415 227.821 171.916 227.821C172.162 227.821 172.409 227.821 172.662 227.82C174.399 227.82 176.136 227.823 177.873 227.827C179.99 227.832 182.106 227.832 184.223 227.825C185.303 227.822 186.383 227.821 187.463 227.827C188.633 227.832 189.803 227.827 190.973 227.82C191.316 227.824 191.658 227.827 192.011 227.831C193.874 227.828 193.874 227.828 195.459 226.928C195.725 226.553 195.725 226.553 195.997 226.171C196.143 225.982 196.289 225.793 196.439 225.598C198.034 223.082 198.282 220.883 197.754 217.968C196.88 215.084 195.218 213.023 192.593 211.577C190.057 210.317 187.432 210.307 184.658 210.31C184.195 210.309 184.195 210.309 183.722 210.307C182.69 210.305 181.659 210.304 180.627 210.304C179.886 210.302 179.144 210.301 178.403 210.299C176.392 210.296 174.38 210.294 172.369 210.292C171.111 210.292 169.853 210.29 168.595 210.289C165.108 210.285 161.621 210.282 158.133 210.281C157.91 210.281 157.687 210.281 157.458 210.281C157.234 210.281 157.011 210.281 156.781 210.281C156.328 210.281 155.876 210.281 155.423 210.281C155.198 210.281 154.974 210.28 154.743 210.28C151.107 210.279 147.472 210.274 143.836 210.267C140.097 210.26 136.358 210.257 132.619 210.256C130.522 210.256 128.426 210.254 126.329 210.249C124.356 210.244 122.382 210.244 120.409 210.246C119.687 210.246 118.965 210.245 118.243 210.242C110.38 210.069 110.38 210.069 104.004 214.16ZM98.4562 232.434C97.2825 233.927 97.559 235.037 97.559 237.011C132.074 237.011 166.588 237.011 202.149 237.011C202.373 234.275 202.373 234.275 201.27 232.324C199.735 230.789 197.288 231.117 195.271 231.111C194.903 231.112 194.536 231.112 194.157 231.113C193.76 231.112 193.362 231.111 192.964 231.111C191.874 231.109 190.785 231.109 189.695 231.109C188.518 231.109 187.342 231.108 186.165 231.106C183.862 231.104 181.558 231.103 179.254 231.103C177.382 231.103 175.509 231.102 173.637 231.101C168.327 231.099 163.017 231.097 157.708 231.097C157.421 231.097 157.135 231.097 156.84 231.097C156.411 231.098 156.411 231.098 155.972 231.098C151.328 231.098 146.683 231.095 142.039 231.091C137.269 231.087 132.499 231.084 127.729 231.085C125.051 231.085 122.374 231.084 119.696 231.081C117.417 231.078 115.138 231.078 112.858 231.08C111.696 231.081 110.533 231.081 109.37 231.078C108.305 231.076 107.24 231.076 106.176 231.079C105.609 231.079 105.043 231.077 104.476 231.075C101.258 231.044 101.258 231.044 98.4562 232.434Z" fill="black"/>
</svg>
