<svg width="300" height="300" viewBox="0 0 300 300" fill="none" xmlns="http://www.w3.org/2000/svg">
<path d="M92.8711 53.0282C93.9325 53.5979 94.8525 54.3401 95.8008 55.079C96.1739 55.3629 96.5474 55.6463 96.9212 55.9293C97.9933 56.7432 99.0606 57.5632 100.127 58.3845C100.963 59.027 101.801 59.666 102.639 60.305C104.817 61.9661 106.983 63.6415 109.143 65.3252C110.429 66.3275 111.719 67.3254 113.013 68.3176C114.479 69.4437 115.938 70.579 117.389 71.7257C118.265 72.4178 119.144 73.1033 120.034 73.7775C122.296 75.5013 124.182 77.2644 125.942 79.5145C127.391 81.3436 128.946 83.0142 130.591 84.6689C130.806 84.8864 131.021 85.1039 131.242 85.3281C133.084 87.2371 133.084 87.2371 135.546 87.9877C135.929 87.9801 136.312 87.9726 136.707 87.9648C137.283 87.958 137.283 87.958 137.872 87.951C138.864 87.9349 138.864 87.9349 139.746 87.5986C139.698 87.2239 139.649 86.8493 139.6 86.4633C138.685 76.9271 141.245 67.2443 147.363 59.7665C147.559 59.5229 147.755 59.2794 147.957 59.0284C149.317 57.4129 150.507 56.2186 152.637 55.7748C154.194 56.0994 155.189 57.1846 156.084 58.4437C156.617 59.3009 157.122 60.1687 157.617 61.0483C157.796 61.3621 157.976 61.676 158.16 61.9993C161.359 67.6786 164.063 74.2164 164.063 80.8603C164.374 80.7402 164.685 80.6201 165.006 80.4964C165.424 80.3368 165.842 80.1774 166.26 80.018C166.464 79.9391 166.668 79.8601 166.878 79.7788C170.899 78.2521 174.737 78.0854 178.973 78.5142C181.561 78.7528 184.118 78.8523 186.716 78.8255C187.038 78.8223 187.361 78.8191 187.693 78.8157C189.011 78.7996 190.328 78.7787 191.646 78.7533C192.627 78.7357 193.608 78.7252 194.59 78.7157C194.887 78.7078 195.184 78.6999 195.49 78.6918C197.536 78.6771 197.536 78.6771 198.669 79.3645C199.434 80.2222 199.51 80.771 199.563 81.8914C199.357 84.8026 197.486 86.6065 195.563 88.5916C194.798 89.4005 194.078 90.2463 193.359 91.0959C193.226 91.2516 193.092 91.4073 192.954 91.5677C191.506 93.1937 191.506 93.1937 191.016 95.2157C191.275 95.3442 191.535 95.4726 191.802 95.6048C198.703 99.104 204.696 104.084 209.473 110.157C209.784 110.549 209.784 110.549 210.102 110.949C222.111 126.469 228.166 147.629 225.805 167.159C223.398 185.257 215.51 202.888 200.693 214.231C200.357 214.484 200.021 214.735 199.685 214.986C199.263 215.3 198.847 215.619 198.43 215.939C194.778 218.694 190.787 221.005 186.652 222.952C186.231 223.151 185.812 223.352 185.393 223.556C181.061 225.668 176.57 227.097 171.973 228.517C162.469 231.469 155.237 236.049 149.076 243.976C146.26 247.582 146.26 247.582 144.141 248.438C143.491 248.483 143.491 248.483 142.822 248.42C142.602 248.405 142.381 248.389 142.154 248.373C141.161 248.025 140.9 247.575 140.332 246.681C139.826 245.571 139.399 244.437 138.977 243.293C138.862 242.994 138.746 242.695 138.627 242.386C136.941 237.871 136.804 233.572 137.633 228.853C138.327 224.63 138.779 220.389 139.209 216.132C139.318 215.062 139.428 213.991 139.539 212.92C139.747 210.9 139.954 208.88 140.159 206.859C140.392 204.576 140.626 202.293 140.861 200.01C141.148 197.214 141.436 194.419 141.721 191.623C141.751 191.328 141.751 191.328 141.782 191.028C141.802 190.834 141.821 190.641 141.842 190.442C142.211 186.824 142.584 183.207 142.969 179.591C142.691 179.663 142.691 179.663 142.408 179.737C140.449 180.246 138.49 180.754 136.531 181.263C135.804 181.451 135.077 181.64 134.35 181.829C133.643 182.013 132.937 182.197 132.23 182.38C131.532 182.561 130.835 182.743 130.137 182.925C128.55 183.337 126.962 183.741 125.365 184.112C125.094 184.176 124.824 184.24 124.545 184.305C124.049 184.421 123.552 184.534 123.054 184.642C121.752 184.949 120.945 185.257 120.117 186.329C119.746 187.013 119.746 187.013 119.458 187.794C119.335 188.101 119.213 188.409 119.086 188.725C118.852 189.328 118.619 189.931 118.386 190.534C115.94 196.856 113.161 201.949 106.677 204.878C100.845 207.189 94.3636 207.422 88.5418 204.91C86.4568 203.95 84.6528 202.755 82.9102 201.27C82.6202 201.059 82.3301 200.847 82.0313 200.63C77.7078 196.929 75.5851 190.86 75.0801 185.345C74.3822 175.283 79.6536 166.694 84.375 158.204C84.4962 157.986 84.6173 157.767 84.7421 157.542C85.4904 156.196 86.2486 154.855 87.0118 153.517C87.1364 153.298 87.261 153.079 87.3894 152.854C88.7318 150.499 90.077 148.147 91.4283 145.797C91.8488 145.066 92.2687 144.334 92.6886 143.602C92.8927 143.247 93.0972 142.891 93.3019 142.536C94.2362 140.916 95.1606 139.301 95.9759 137.617C96.554 136.434 97.2352 135.374 97.9801 134.289C98.8372 132.988 99.5642 131.613 100.305 130.244C100.545 129.808 100.545 129.808 100.789 129.363C100.94 129.086 101.091 128.809 101.246 128.524C101.382 128.274 101.518 128.023 101.658 127.766C101.995 127.175 101.995 127.175 101.953 126.563C102.081 126.436 102.209 126.309 102.34 126.177C102.931 125.585 103.269 124.978 103.671 124.244C103.832 123.952 103.993 123.66 104.16 123.36C104.332 123.045 104.504 122.731 104.681 122.407C105.049 121.742 105.417 121.078 105.786 120.414C105.88 120.245 105.974 120.075 106.071 119.9C107.225 117.828 108.426 115.784 109.63 113.741C109.946 113.205 110.259 112.667 110.571 112.128C110.892 111.575 111.221 111.027 111.555 110.482C111.719 110.205 111.883 109.928 112.051 109.642C112.201 109.396 112.35 109.15 112.504 108.897C112.996 107.551 112.635 106.388 112.106 105.09C111.939 104.758 111.771 104.425 111.599 104.082C111.506 103.897 111.414 103.711 111.319 103.52C111.014 102.909 110.705 102.301 110.395 101.693C110.179 101.263 109.963 100.832 109.748 100.402C109.179 99.268 108.606 98.136 108.033 97.0042C107.574 96.0959 107.117 95.1862 106.66 94.2765C104.64 90.2517 102.611 86.2325 100.499 82.2551C99.6508 80.6568 98.8537 79.0397 98.0896 77.3996C96.9201 74.92 95.7082 72.4641 94.4736 70.0165C92.9853 67.0634 91.5194 64.1018 90.1245 61.1032C89.9903 60.819 89.856 60.5349 89.7177 60.2421C88.8626 58.3792 88.194 56.8998 88.8062 54.8593C89.7881 53.1572 90.939 52.7115 92.8711 53.0282ZM151.758 64.454C151.305 65.0556 150.896 65.6501 150.494 66.2851C150.317 66.5649 150.317 66.5649 150.136 66.8504C146.658 72.4671 144.816 79.9859 146.245 86.5333C146.68 88.3183 147.267 89.8544 148.25 91.4152C148.736 92.401 148.633 93.2591 148.535 94.3368C147.62 94.8821 147.059 94.9771 146.008 94.8312C145.781 94.8021 145.554 94.7731 145.319 94.7431C144.727 94.6298 144.727 94.6298 144.141 94.3368C141.728 94.0776 139.441 94.6514 137.109 95.2157C137.066 95.6457 137.066 95.6457 137.022 96.0844C136.522 100.473 135.104 103.481 131.702 106.382C129.111 108.304 125.992 109.523 122.755 109.599C120.399 109.652 120.399 109.652 118.488 110.934C117.884 111.859 117.414 112.848 116.945 113.847C116.305 115.162 115.554 116.415 114.825 117.683C114.497 118.265 114.169 118.848 113.841 119.431C112.737 121.392 111.622 123.347 110.504 125.3C110.306 125.646 110.108 125.992 109.91 126.338C109.208 127.566 108.506 128.794 107.803 130.021C107.104 131.243 106.405 132.464 105.707 133.686C105.609 133.857 105.511 134.029 105.41 134.205C103.942 136.772 102.485 139.346 101.033 141.922C99.8461 144.025 98.6404 146.117 97.4305 148.206C95.8024 151.02 94.1991 153.846 92.6166 156.685C91.7989 158.152 90.9779 159.617 90.144 161.075C82.5002 173.737 82.5002 173.737 82.0313 188.087C82.9495 191.118 84.3405 193.852 86.7188 195.997C86.9121 195.997 87.1055 195.997 87.3047 195.997C87.3047 196.19 87.3047 196.384 87.3047 196.583C89.0787 197.959 90.9836 198.978 93.1641 199.513C93.3733 199.566 93.5825 199.619 93.7981 199.674C98.2459 200.379 102.741 199.876 106.561 197.385C110.578 194.314 111.864 189.658 113.133 184.987C114.229 181.023 114.229 181.023 115.725 180.111C117.607 179.15 119.457 178.555 121.507 178.057C121.832 177.975 122.157 177.894 122.492 177.809C123.543 177.545 124.595 177.286 125.647 177.027C126.376 176.845 127.105 176.662 127.833 176.479C130.999 175.685 134.168 174.904 137.339 174.132C147.744 171.593 158.029 169.035 164.053 159.304C169.066 150.777 169.714 140.974 167.379 131.507C166.772 129.229 165.89 127.078 164.926 124.929C164.115 123.081 163.817 121.725 164.301 119.715C164.415 119.461 164.53 119.208 164.648 118.946C165.741 118.582 166.736 118.504 167.871 118.653C170.234 119.862 171.114 123.428 171.991 125.776C172.092 126.045 172.193 126.313 172.297 126.59C173.478 129.763 174.468 132.859 174.902 136.231C174.935 136.483 174.968 136.734 175.002 136.992C176.101 146.976 173.71 157.714 167.372 165.649C167.247 165.803 167.121 165.956 166.992 166.114C166.868 166.267 166.743 166.42 166.615 166.577C162.602 171.403 157.412 174.699 151.558 176.868C151.03 177.069 150.513 177.302 150 177.54C149.715 178.395 149.616 179.101 149.531 179.995C149.5 180.321 149.468 180.646 149.436 180.981C149.403 181.336 149.369 181.69 149.335 182.056C149.3 182.426 149.264 182.795 149.228 183.176C149.131 184.179 149.037 185.181 148.942 186.183C148.844 187.218 148.745 188.254 148.646 189.289C148.606 189.704 148.567 190.12 148.527 190.535C148.507 190.74 148.488 190.946 148.468 191.157C148.408 191.781 148.349 192.404 148.289 193.027C148.056 195.481 147.817 197.935 147.573 200.388C147.531 200.809 147.531 200.809 147.488 201.237C147.28 203.332 147.28 203.332 147.178 204.343C147.108 205.03 147.04 205.718 146.972 206.405C146.934 206.782 146.896 207.159 146.857 207.547C146.778 208.585 146.763 209.606 146.777 210.645C148.039 209.608 149.193 208.523 150.33 207.35C155.279 202.315 161.143 199.641 167.684 197.259C180.302 192.663 190.935 184.953 196.843 172.6C197.825 170.446 198.529 168.23 199.146 165.949C199.204 165.735 199.262 165.521 199.322 165.301C200.273 161.581 200.502 157.884 200.482 154.066C200.482 153.841 200.481 153.615 200.48 153.383C200.464 149.845 200.294 146.432 199.512 142.97C199.424 142.572 199.424 142.572 199.335 142.166C197.717 134.966 194.767 128.16 190.43 122.169C190.21 121.861 189.989 121.554 189.763 121.237C186.481 116.797 182.399 112.685 177.832 109.571C177.547 109.376 177.263 109.181 176.969 108.98C174.722 107.523 172.347 106.389 169.917 105.272C169.532 105.094 169.532 105.094 169.14 104.913C168.91 104.809 168.679 104.704 168.442 104.596C167.871 104.298 167.871 104.298 167.285 103.712C167.034 102.532 167.11 101.966 167.717 100.913C169.932 97.8036 172.97 93.5936 176.968 92.7445C177.419 92.6749 177.871 92.6076 178.323 92.5421C183.005 91.8452 187.312 89.4211 190.723 86.1337C190.819 85.9404 190.916 85.747 191.016 85.5478C190.457 85.558 190.457 85.558 189.886 85.5684C187.152 85.602 184.47 85.5512 181.751 85.2548C176.137 84.6596 170.31 84.2872 165.609 87.9968C164.331 89.2037 164.01 90.2348 163.953 91.9565C163.944 92.2518 163.936 92.5471 163.927 92.8514C163.553 94.9865 161.771 96.4246 160.291 97.8891C160.087 98.0949 159.883 98.3007 159.674 98.5128C156.94 101.236 156.94 101.236 155.468 101.483C154.915 101.444 154.362 101.406 153.809 101.368C153.356 99.5148 153.739 98.4583 154.559 96.7721C154.666 96.5419 154.774 96.3117 154.884 96.0745C155.649 94.4412 156.451 92.8248 157.286 91.2263C159.67 86.195 157.493 76.7482 155.755 71.7154C154.833 69.1643 153.723 66.7897 152.344 64.454C152.15 64.454 151.957 64.454 151.758 64.454ZM101.66 68.2626C101.759 69.9949 101.861 71.4568 102.832 72.9501C103.122 73.1435 103.412 73.3368 103.711 73.5361C104.32 73.4159 104.32 73.4159 104.883 72.9501C105.262 71.7755 105.262 71.7755 105.176 70.6064C104.297 69.4264 103.059 68.6866 101.66 68.2626ZM109.863 74.7079C109.673 75.1249 109.673 75.1249 109.479 75.5502C108.984 76.4657 108.984 76.4657 108.106 77.0517C107.443 77.2371 107.443 77.2371 106.732 77.3813C106.495 77.4304 106.259 77.4795 106.015 77.53C105.835 77.5655 105.654 77.601 105.469 77.6376C106.443 80.3962 106.443 80.3962 108.442 82.3617C109.826 82.7019 111.111 82.6654 112.5 82.3251C113.189 81.636 113.173 81.4864 113.178 80.549C113.127 78.4639 112.564 76.4829 111.035 75.0009C110.411 74.7461 110.411 74.7461 109.863 74.7079ZM118.945 81.4462C118.839 81.6653 118.732 81.8843 118.623 82.11C116.992 85.3044 116.992 85.3044 114.933 86.0113C113.953 86.189 112.979 86.1642 111.987 86.152C111.783 86.1507 111.579 86.1494 111.368 86.148C110.867 86.1446 110.365 86.1393 109.863 86.1337C110.244 87.4126 110.736 88.4543 111.456 89.5761C111.631 89.8525 111.806 90.129 111.986 90.4138C112.54 91.1689 113.002 91.6184 113.939 91.8214C117.608 92.2685 117.608 92.2685 120.996 91.1142C122.048 89.4853 122.154 87.7417 121.875 85.8407C121.261 84.06 120.372 82.6687 118.945 81.4462ZM126.856 90.8212C126.43 91.3487 126.43 91.3487 126.05 92.0297C124.507 94.4211 123.024 95.3973 120.267 96.169C118.663 96.5098 117.066 96.627 115.43 96.6806C115.831 97.9159 116.26 99.0591 116.895 100.196C117.088 100.293 117.281 100.39 117.481 100.489C117.511 100.707 117.541 100.924 117.572 101.148C117.842 102.227 118.425 102.689 119.238 103.419C119.142 103.612 119.045 103.806 118.945 104.005C122.583 103.889 125.778 103.187 128.613 100.782C130.092 99.1958 131.044 97.6178 130.975 95.3989C130.751 93.7557 129.768 92.8148 128.613 91.7001C128.465 91.5332 128.316 91.3663 128.162 91.1943C127.719 90.725 127.719 90.725 126.856 90.8212ZM177.539 98.4384C177.34 98.7587 177.14 99.0789 176.935 99.4089C176.823 99.589 176.711 99.7691 176.595 99.9547C176.276 100.539 176.276 100.539 176.66 101.368C177.265 101.747 177.86 102.082 178.491 102.412C180.692 103.618 182.636 105.045 184.57 106.642C184.743 106.784 184.915 106.926 185.093 107.073C197.669 117.52 205.253 132.917 206.773 149.176C207.486 158.509 206.013 167.964 201.856 176.368C201.767 176.547 201.679 176.726 201.587 176.911C194.809 190.422 182.454 199.005 168.402 203.761C158.086 207.274 150.544 214.54 145.656 224.216C143.481 228.731 142.859 233.906 144.141 238.77C145.049 238.871 145.049 238.871 145.61 238.212C145.826 237.961 146.042 237.71 146.265 237.452C146.499 237.184 146.734 236.915 146.975 236.638C147.379 236.166 147.781 235.692 148.182 235.217C153.741 228.68 161.568 224.747 169.694 222.426C179.965 219.49 189.942 215.115 198.047 208.009C198.292 207.796 198.537 207.583 198.79 207.363C211.529 196.1 218.389 180.593 219.594 163.757C220.131 154.571 218.978 145.018 216.211 136.231C216.138 135.999 216.065 135.767 215.99 135.528C212.984 126.254 207.953 117.816 201.27 110.743C201.019 110.47 200.768 110.197 200.51 109.916C195.232 104.3 187.044 98.991 179.141 98.3812C178.951 98.388 178.761 98.3948 178.564 98.4018C178.226 98.4139 177.888 98.426 177.539 98.4384Z" fill="black"/>
<path d="M124.307 124.147C124.625 124.146 124.943 124.145 125.271 124.145C125.617 124.147 125.963 124.149 126.32 124.151C126.86 124.151 126.86 124.151 127.411 124.151C128.373 124.152 129.336 124.156 130.298 124.161C131.251 124.165 132.204 124.164 133.157 124.164C135.353 124.167 137.55 124.187 139.746 124.218C140.085 124.223 140.424 124.227 140.773 124.231C141.714 124.246 142.655 124.269 143.596 124.295C143.873 124.299 144.151 124.303 144.437 124.307C146.291 124.374 146.291 124.374 147.241 125.049C147.868 126.006 147.83 126.613 147.656 127.734C147.037 128.808 146.214 129.68 145.02 130.078C144.729 130.078 144.439 130.078 144.141 130.078C144.154 130.34 144.168 130.602 144.182 130.872C144.268 133.757 143.954 135.929 142.163 138.244C140.702 139.782 139.265 140.394 137.146 140.478C134.548 140.377 132.499 139.494 130.61 137.709C128.941 135.828 127.441 133.238 127.441 130.664C127.233 130.587 127.025 130.51 126.811 130.43C124.75 129.56 122.505 128.392 121.582 126.269C121.6 125.464 121.6 125.464 121.875 124.804C122.854 124.151 123.164 124.146 124.307 124.147Z" fill="black"/>
<path d="M102.832 169.684C104.12 170.463 104.968 171.126 105.505 172.559C105.468 173.437 105.468 173.437 104.956 174.225C103.843 175.017 102.868 175.285 101.549 175.583C100.687 175.777 100.687 175.777 99.6089 176.367C99.6089 177.431 99.6089 178.494 99.6089 179.59C99.4155 179.59 99.2221 179.59 99.0229 179.59C99.1498 179.898 99.1498 179.898 99.2793 180.212C99.5058 180.791 99.7124 181.378 99.9018 181.97C100.17 182.855 100.17 182.855 100.781 183.691C101.071 183.546 101.071 183.546 101.367 183.398C101.56 184.172 101.753 184.945 101.953 185.742C100.957 186.788 100.229 187.436 98.7849 187.72C96.9403 187.562 95.3522 186.466 94.0722 185.186C92.2204 182.901 92.0623 180.383 92.2846 177.539C92.7057 174.744 93.6505 171.936 96.0017 170.197C97.9679 169.046 100.675 168.839 102.832 169.684ZM99.0229 177.539C99.0229 178.119 99.0229 178.699 99.0229 179.297C99.1196 179.297 99.2163 179.297 99.3159 179.297C99.3159 178.717 99.3159 178.137 99.3159 177.539C99.2192 177.539 99.1225 177.539 99.0229 177.539ZM101.074 184.277C101.367 184.863 101.367 184.863 101.367 184.863L101.074 184.277Z" fill="black"/>
<path d="M146.777 206.25C146.873 206.25 146.97 206.25 147.07 206.25C147.07 207.604 147.07 208.957 147.07 210.352C148.327 209.095 149.583 207.838 150.878 206.543C151.072 206.833 151.265 207.123 151.464 207.422C151.302 207.56 151.14 207.698 150.972 207.84C150.76 208.022 150.548 208.204 150.329 208.392C150.118 208.572 149.908 208.753 149.69 208.938C149.064 209.485 149.064 209.485 148.535 210.352C147.821 211.011 147.821 211.011 147.07 211.523C146.78 211.427 146.49 211.33 146.191 211.23C146.117 209.452 146.279 207.96 146.777 206.25Z" fill="black"/>
</svg>
