<svg width="300" height="300" viewBox="0 0 300 300" fill="none" xmlns="http://www.w3.org/2000/svg">
<path d="M177.833 129.199C178.913 129.799 179.742 130.452 180.61 131.329C180.86 131.58 181.111 131.831 181.369 132.09C181.636 132.361 181.903 132.632 182.178 132.912C182.459 133.195 182.74 133.478 183.022 133.76C183.762 134.504 184.5 135.249 185.237 135.995C186.414 137.184 187.592 138.371 188.772 139.558C189.18 139.969 189.588 140.381 189.995 140.794C191.299 142.107 192.613 143.378 194.033 144.567C196.186 146.521 197.917 149.5 198.086 152.426C198.087 152.656 198.088 152.885 198.089 153.121C198.09 153.387 198.092 153.652 198.094 153.925C198.094 154.213 198.094 154.5 198.095 154.796C198.096 155.102 198.098 155.407 198.099 155.722C198.103 156.731 198.105 157.741 198.107 158.75C198.109 159.453 198.11 160.155 198.112 160.857C198.115 162.33 198.117 163.802 198.118 165.274C198.119 167.159 198.127 169.044 198.135 170.93C198.14 172.38 198.142 173.831 198.142 175.282C198.143 175.977 198.146 176.672 198.149 177.367C198.154 178.339 198.154 179.312 198.152 180.284C198.155 180.571 198.157 180.857 198.16 181.152C198.147 183.264 197.87 184.698 196.381 186.292C195.239 187.024 194.417 187.296 193.067 187.207C191.874 186.855 191.225 186.591 190.449 185.614C190.137 184.863 190.137 184.863 190.137 183.691C188.941 183.727 188.941 183.727 187.794 183.984C187.296 184.809 187.296 184.809 186.915 185.742C185.963 186.583 185.224 186.988 183.967 187.042C182.464 186.875 181.815 186.448 180.707 185.468C179.184 182.894 179.516 179.482 179.546 176.577C179.554 175.842 179.558 175.108 179.561 174.374C179.567 172.816 179.578 171.259 179.59 169.702C179.604 167.892 179.616 166.081 179.623 164.27C179.627 163.551 179.634 162.831 179.642 162.111C179.644 161.666 179.646 161.222 179.648 160.777C179.651 160.392 179.654 160.007 179.657 159.611C179.563 158.032 179.37 156.64 178.4 155.347C177.323 154.468 177.323 154.468 174.903 153.516C175 183.68 175.096 213.844 175.196 244.922C168.042 244.922 160.887 244.922 153.516 244.922C153.661 221.429 153.661 221.429 153.809 197.461C151.392 197.461 148.975 197.461 146.485 197.461C146.582 213.123 146.678 228.785 146.778 244.922C139.43 244.922 132.083 244.922 124.512 244.922C124.512 243.182 124.512 241.441 124.512 239.648C124.706 239.648 124.899 239.648 125.098 239.648C125.098 211.225 125.098 182.801 125.098 153.516C122.157 155.332 122.157 155.332 120.578 158.195C120.519 158.846 120.513 159.477 120.525 160.13C120.523 160.373 120.521 160.616 120.519 160.866C120.516 161.663 120.522 162.46 120.528 163.257C120.526 163.814 120.524 164.371 120.52 164.928C120.514 166.391 120.515 167.855 120.519 169.318C120.524 171.66 120.521 174.002 120.511 176.344C120.509 177.16 120.513 177.976 120.517 178.791C120.517 179.294 120.516 179.797 120.514 180.299C120.517 180.524 120.52 180.749 120.522 180.981C120.511 182.485 120.235 183.527 119.532 184.863C118.303 186.002 117.561 186.372 115.906 186.383C115.626 186.387 115.346 186.391 115.057 186.396C114.233 186.326 113.771 186.198 113.087 185.742C112.53 184.794 112.123 183.893 111.915 182.812C111.431 182.716 110.948 182.619 110.45 182.52C110.426 182.828 110.402 183.136 110.377 183.453C110.102 184.85 109.605 185.571 108.472 186.42C106.939 186.888 105.643 186.78 104.206 186.127C103.024 185.471 102.47 184.737 102.083 183.434C101.946 182.777 101.914 182.185 101.911 181.514C101.909 181.256 101.906 180.998 101.904 180.732C101.903 180.451 101.903 180.17 101.902 179.88C101.9 179.582 101.898 179.284 101.896 178.977C101.89 177.991 101.887 177.005 101.884 176.018C101.883 175.681 101.882 175.343 101.88 174.995C101.874 173.208 101.87 171.421 101.867 169.633C101.864 167.792 101.854 165.95 101.842 164.109C101.835 162.689 101.832 161.269 101.831 159.849C101.83 159.171 101.826 158.492 101.821 157.814C101.814 156.861 101.814 155.909 101.816 154.956C101.812 154.679 101.809 154.402 101.805 154.117C101.831 150.646 103.229 147.904 105.469 145.312C106.179 144.618 106.909 143.963 107.663 143.317C108.395 142.68 109.075 142.013 109.754 141.321C110.541 140.523 111.338 139.761 112.189 139.032C113.388 138.005 114.484 136.888 115.593 135.766C116.392 134.977 117.226 134.246 118.078 133.517C119.098 132.614 120.046 131.638 120.997 130.664C122.052 131.098 122.584 131.675 123.304 132.55C126.816 136.528 131.176 139.462 136.524 140.039C137.96 140.118 139.39 140.122 140.827 140.112C141.031 140.112 141.234 140.111 141.444 140.111C145.572 140.099 149.687 139.889 153.807 139.661C157.197 139.477 160.561 139.401 163.955 139.501C167.679 139.571 171.055 138.85 173.937 136.391C175.782 134.468 176.889 131.651 177.833 129.199Z" fill="black"/>
<path d="M150.53 55.2975C150.744 55.2973 150.959 55.2971 151.18 55.2969C160.549 55.3106 170.5 57.9336 177.392 64.6908C181.78 69.2115 184.374 76.0621 184.287 82.3688C184.283 82.5844 184.279 82.7999 184.274 83.0219C184.269 83.4892 184.264 83.9565 184.259 84.4238C184.25 85.1523 184.24 85.8806 184.226 86.6089C184.214 87.3176 184.207 88.0261 184.201 88.7348C184.195 88.9515 184.19 89.1682 184.184 89.3915C184.178 90.7075 184.344 91.5317 185.155 92.5777C185.758 93.006 185.758 93.006 186.437 93.3102C187.585 93.9056 188.396 94.5241 189.257 95.5074C189.462 95.731 189.668 95.9546 189.879 96.1849C191.137 97.9869 191.466 99.7523 191.436 101.898C191.433 102.129 191.43 102.36 191.427 102.598C191.332 105.731 190.404 107.851 188.204 110.111C185.865 112.203 182.805 112.99 179.882 113.964C179.854 114.141 179.826 114.318 179.798 114.5C179.108 118.792 178.168 122.389 176.014 126.192C175.591 126.961 175.189 127.732 174.796 128.516C174.61 128.883 174.61 128.883 174.419 129.258C174.173 129.743 173.93 130.23 173.69 130.719C172.427 133.19 170.783 134.932 168.163 135.937C167.169 136.245 166.26 136.264 165.222 136.259C164.863 136.258 164.505 136.257 164.135 136.256C163.944 136.255 163.753 136.253 163.556 136.252C162.948 136.248 162.341 136.246 161.733 136.245C160.219 136.241 158.705 136.234 157.19 136.227C155.713 136.22 154.236 136.215 152.759 136.212C152.553 136.211 152.346 136.211 152.134 136.21C149.122 136.205 146.119 136.268 143.112 136.435C137.494 136.735 131.923 134.846 127.624 131.158C123.71 127.403 122.534 122.817 121.441 117.702C121.303 117.065 121.159 116.431 121.013 115.796C120.932 115.422 120.851 115.049 120.767 114.665C120.272 113.29 119.647 112.548 118.319 111.903C117.581 111.6 116.838 111.324 116.088 111.053C112.651 109.733 110.303 108.666 108.69 105.175C107.882 102.725 108.255 99.8773 109.147 97.5113C110.091 95.6515 111.54 94.2737 113.149 92.9783C113.308 92.8499 113.468 92.7216 113.632 92.5893C114.088 92.2291 114.552 91.879 115.017 91.5295C115.856 90.6849 115.988 90.2398 116.015 89.0621C115.866 88.4723 115.866 88.4723 115.594 87.9269C114.21 84.1023 115.199 79.4281 116.846 75.827C117.325 74.8309 117.839 73.8551 118.369 72.8846C118.621 72.4193 118.862 71.948 119.101 71.476C120.195 69.352 121.572 67.4995 123.046 65.6246C123.276 65.3165 123.505 65.0083 123.742 64.6908C128.873 59.1925 136.008 56.7719 143.261 55.6637C143.555 55.6184 143.555 55.6184 143.855 55.5721C146.068 55.2796 148.302 55.2993 150.53 55.2975ZM160.315 90.5647C159.076 92.3467 158.509 93.8892 158.788 96.0934C159.419 98.1493 160.415 99.4804 162.176 100.726C164.076 101.383 166.166 101.432 168.017 100.579C169.651 99.6051 170.414 98.3115 170.952 96.5214C171.301 94.7359 171.061 93.1581 170.141 91.589C169.143 90.167 168.047 89.3347 166.405 88.7692C164.051 88.4665 161.905 88.6726 160.315 90.5647ZM130.572 90.8749C129.479 92.6963 128.978 94.4084 129.286 96.5351C129.776 98.2811 130.774 99.5045 132.146 100.653C133.851 101.475 136.039 101.378 137.824 100.87C139.426 100.147 140.491 99.0517 141.242 97.4518C141.849 95.6547 141.722 93.7568 141.009 92.0101C140.268 90.5445 139.206 89.6796 137.694 89.0621C134.892 88.7654 132.656 88.9034 130.572 90.8749ZM134.849 112.012C132.68 114.812 132.992 120.749 133.39 124.1C133.674 125.405 134.178 126.442 135.058 127.441C137.054 128.258 139.195 128.16 141.322 128.212C141.738 128.224 142.154 128.237 142.57 128.249C143.442 128.275 144.314 128.299 145.186 128.322C146.285 128.35 147.384 128.381 148.483 128.414C150.768 128.482 153.053 128.541 155.338 128.589C156.042 128.604 156.745 128.62 157.449 128.638C158.309 128.658 159.17 128.672 160.031 128.684C160.272 128.69 160.512 128.697 160.76 128.703C162.412 128.714 163.526 128.334 164.886 127.349C165.797 126.054 165.578 124.094 165.586 122.562C165.588 122.323 165.589 122.083 165.591 121.836C165.594 121.331 165.596 120.826 165.597 120.321C165.6 119.553 165.609 118.784 165.618 118.016C165.62 117.524 165.621 117.031 165.623 116.538C165.628 116.197 165.628 116.197 165.633 115.849C165.627 114.128 165.312 112.744 164.208 111.364C163.177 110.591 162.043 110.683 160.806 110.645C160.595 110.639 160.384 110.632 160.166 110.625C159.467 110.603 158.767 110.584 158.067 110.564C157.578 110.55 157.089 110.536 156.601 110.522C155.574 110.493 154.547 110.465 153.52 110.437C152.213 110.402 150.907 110.362 149.601 110.322C148.589 110.291 147.578 110.263 146.566 110.237C146.085 110.223 145.604 110.209 145.123 110.193C139.686 109.905 139.686 109.905 134.849 112.012Z" fill="black"/>
<path d="M141.233 113.492C142.1 113.721 142.621 113.91 143.262 114.551C143.305 115.307 143.317 116.031 143.299 116.785C143.296 116.992 143.294 117.199 143.291 117.412C143.284 117.924 143.274 118.435 143.262 118.946C144.326 118.946 145.389 118.946 146.485 118.946C146.482 118.59 146.478 118.234 146.475 117.867C146.472 117.403 146.469 116.938 146.467 116.474C146.464 116.239 146.462 116.004 146.459 115.762C146.457 115.163 146.47 114.564 146.485 113.966C147.079 113.372 148.254 113.618 149.067 113.618C149.279 113.614 149.492 113.61 149.71 113.607C151.722 113.601 151.722 113.601 152.637 114.258C153.077 115.138 152.957 115.955 152.949 116.932C152.946 117.307 152.943 117.683 152.941 118.069C152.937 118.359 152.934 118.648 152.93 118.946C153.897 118.946 154.864 118.946 155.86 118.946C155.878 118.59 155.895 118.234 155.914 117.867C155.938 117.403 155.963 116.938 155.988 116.474C156 116.239 156.011 116.004 156.023 115.762C156.12 113.999 156.12 113.999 156.446 113.673C157.158 113.635 157.858 113.618 158.57 113.618C158.864 113.612 158.864 113.612 159.164 113.607C160.339 113.603 161.263 113.7 162.305 114.258C163.25 116.148 162.561 119.053 162.342 121.107C162.319 121.329 162.296 121.552 162.272 121.782C162.126 123.053 161.882 124.186 161.426 125.391C159.816 125.859 158.141 125.718 156.592 125.098C155.859 124.121 155.93 123.078 155.86 121.876C154.796 121.876 153.733 121.876 152.637 121.876C152.649 122.244 152.661 122.613 152.674 122.993C152.707 124.012 152.655 124.193 152.051 125.098C151.121 125.409 150.411 125.45 149.433 125.465C149.128 125.472 148.823 125.48 148.509 125.487C147.543 125.378 147.153 125.212 146.485 124.512C146.249 123.723 146.246 122.999 146.192 122.169C144.742 122.314 144.742 122.314 143.262 122.462C143.166 123.235 143.069 124.008 142.969 124.805C141.878 125.296 140.919 125.509 139.728 125.611C139.279 125.654 139.279 125.654 138.821 125.698C137.95 125.684 137.565 125.507 136.817 125.098C136.808 123.847 136.803 122.596 136.799 121.345C136.796 120.994 136.794 120.644 136.791 120.283C136.778 115.336 136.778 115.336 137.11 113.966C138.412 113.097 139.717 113.212 141.233 113.492Z" fill="black"/>
</svg>
