<svg width="300" height="300" viewBox="0 0 300 300" fill="none" xmlns="http://www.w3.org/2000/svg">
<path d="M183.105 70.0197C183.806 70.6868 184.484 71.374 185.156 72.0705C185.509 72.424 185.509 72.424 185.87 72.7846C186.117 73.0323 186.365 73.2801 186.62 73.5353C186.788 73.6928 186.956 73.8503 187.129 74.0125C194.649 81.2168 199.553 91.7515 200.152 102.081C200.175 102.453 200.198 102.825 200.222 103.208C200.517 108.188 200.637 112.585 198.61 117.243C198.332 118.089 198.25 118.441 198.632 119.238C199.56 119.723 200.486 120.049 201.474 120.391C204.531 121.463 206.6 122.911 208.263 125.739C209.526 128.895 209.006 132.294 207.714 135.352C206.413 137.669 204.417 139.361 202.056 140.515C201.091 141.063 200.749 141.328 200.353 142.378C200.219 143.042 200.096 143.709 199.986 144.378C199.616 146.281 198.489 147.761 196.985 148.956C194.077 150.866 190.858 152.096 187.574 153.185C186.674 153.419 186.674 153.419 186.327 153.809C186.305 154.442 186.284 155.076 186.272 155.709C186.073 164.859 184.235 173.625 178.01 180.527C177.209 181.423 176.432 182.338 175.652 183.252C175.511 183.417 175.369 183.582 175.223 183.752C175.087 183.91 174.951 184.069 174.811 184.232C174.679 184.385 174.548 184.538 174.412 184.696C174.15 185.006 173.892 185.32 173.64 185.638C171.553 188.25 168.56 188.746 165.398 189.178C162.879 189.448 160.331 189.376 157.802 189.364C157.153 189.364 156.505 189.364 155.856 189.365C154.506 189.365 153.157 189.362 151.807 189.356C150.084 189.35 148.361 189.35 146.639 189.352C145.303 189.353 143.967 189.351 142.632 189.348C141.997 189.347 141.361 189.346 140.726 189.347C139.838 189.347 138.949 189.343 138.061 189.338C137.675 189.34 137.675 189.34 137.281 189.341C131.86 189.295 128.26 187.109 124.511 183.399C124.319 183.224 124.127 183.05 123.929 182.87C117.805 177.211 115.774 168.67 114.616 160.777C114.546 160.298 114.475 159.818 114.404 159.339C114.37 159.111 114.336 158.883 114.301 158.648C114.041 156.992 113.613 155.452 113.018 153.882C112.792 153.223 112.792 153.223 112.792 152.344C112.452 152.336 112.113 152.329 111.762 152.321C107.916 152.198 104.393 151.734 101.367 149.121C99.4828 147.096 99.0005 145.283 98.927 142.558C98.9313 139.835 98.9313 139.835 97.7548 137.522C96.9216 137.112 96.0927 136.82 95.2142 136.524C92.8265 134.776 91.1328 131.775 90.5267 128.906C90.2638 126.774 90.6396 125.034 91.8622 123.266C94.0936 120.524 96.7713 119.225 100.195 118.652C100.203 117.413 100.208 116.174 100.213 114.935C100.217 114.417 100.217 114.417 100.22 113.889C100.226 111.843 100.153 109.827 99.9723 107.789C99.165 98.006 102.494 87.6505 108.105 79.6877C108.225 79.517 108.345 79.3463 108.468 79.1704C112.548 73.4674 117.849 68.7961 123.925 65.3322C124.357 65.0807 124.357 65.0807 124.798 64.8241C142.573 55.197 167.582 56.7454 183.105 70.0197ZM120.336 113.892C118.452 116.567 117.827 119.529 118.066 122.754C118.724 126.278 120.704 128.776 123.567 130.852C125.983 132.33 128.848 132.512 131.575 131.937C134.62 131.039 136.945 129.298 138.574 126.563C140.16 123.557 140.36 120.506 139.491 117.239C138.337 114.002 136.214 111.817 133.154 110.321C128.52 108.649 123.408 110.083 120.336 113.892ZM164.062 113.086C161.712 115.991 160.816 119.037 161.132 122.754C161.87 126.173 163.612 128.603 166.406 130.664C169.052 132.252 171.873 132.611 174.915 131.929C178.372 130.752 180.524 128.906 182.244 125.687C183.48 123.007 183.473 119.8 182.529 117.034C181.202 113.86 179.293 111.691 176.096 110.369C171.838 108.881 167.246 109.926 164.062 113.086ZM140.624 145.899C140.624 146.092 140.624 146.285 140.624 146.485C140.451 146.559 140.278 146.633 140.1 146.71C139.195 147.214 138.644 147.937 137.981 148.722C137.402 149.121 137.402 149.121 136.573 149.091C135.563 148.805 134.706 148.417 133.776 147.931C133.466 147.771 133.155 147.61 132.835 147.445C132.602 147.321 132.369 147.198 132.128 147.07C131.776 148.127 131.768 149.113 131.743 150.214C131.736 150.434 131.73 150.654 131.724 150.88C131.705 151.582 131.688 152.283 131.67 152.985C131.658 153.461 131.645 153.937 131.632 154.412C131.601 155.578 131.571 156.744 131.542 157.91C134.574 157.761 137.601 157.608 140.624 157.324C141.236 156.047 141.359 154.802 141.46 153.409C141.478 153.177 141.497 152.945 141.516 152.706C141.575 151.969 141.631 151.232 141.686 150.495C141.726 149.993 141.765 149.492 141.805 148.99C141.902 147.765 141.997 146.539 142.089 145.313C141.408 145.258 141.408 145.258 140.624 145.899ZM145.605 145.606C145.701 149.376 145.798 153.147 145.898 157.031C149.558 157.038 149.558 157.038 153.204 156.885C153.435 156.871 153.667 156.857 153.906 156.843C154.459 156.809 155.012 156.774 155.566 156.738C155.789 155.354 155.894 154.031 155.887 152.629C155.886 152.252 155.885 151.875 155.884 151.487C155.882 151.095 155.88 150.703 155.877 150.311C155.876 149.911 155.874 149.511 155.873 149.112C155.87 148.138 155.865 147.165 155.859 146.192C154.428 147.02 153.366 148.028 152.197 149.19C151.464 149.707 151.464 149.707 150.763 149.759C149.617 149.242 148.888 148.403 148.04 147.492C147.705 147.136 147.368 146.782 147.03 146.428C146.882 146.271 146.735 146.113 146.584 145.951C146.205 145.541 146.205 145.541 145.605 145.606ZM166.589 147.034C164.541 148.972 164.541 148.972 163.769 149.121C163.012 148.724 162.371 148.332 161.681 147.84C160.482 146.88 160.482 146.88 159.081 146.485C159.032 147.981 158.985 149.478 158.94 150.975C158.924 151.484 158.908 151.994 158.891 152.503C158.868 153.234 158.846 153.965 158.824 154.696C158.816 154.925 158.808 155.154 158.8 155.39C158.785 155.937 158.785 156.484 158.788 157.031C159.549 157.792 161.44 157.656 162.469 157.782C162.94 157.843 162.94 157.843 163.422 157.905C163.73 157.943 164.038 157.982 164.356 158.021C164.636 158.056 164.917 158.091 165.206 158.127C166.286 158.218 167.373 158.203 168.456 158.203C168.553 154.046 168.65 149.889 168.749 145.606C167.787 145.606 167.252 146.4 166.589 147.034ZM158.788 160.254C158.508 161.473 158.413 162.665 158.339 163.913C158.32 164.222 158.32 164.222 158.3 164.537C158.261 165.191 158.222 165.844 158.184 166.498C158.157 166.943 158.13 167.388 158.103 167.833C158.038 168.92 157.973 170.007 157.909 171.094C158.988 170.675 159.944 170.198 160.931 169.592C161.189 169.435 161.448 169.277 161.715 169.114C161.909 168.994 162.104 168.874 162.304 168.75C162.611 168.979 162.918 169.209 163.234 169.445C163.638 169.744 164.042 170.044 164.446 170.343C164.649 170.494 164.851 170.646 165.059 170.802C165.255 170.946 165.45 171.09 165.651 171.239C165.921 171.439 165.921 171.439 166.195 171.644C166.733 172.026 166.733 172.026 167.577 172.266C168.237 167.4 168.237 167.4 168.463 162.502C168.462 162.189 168.461 161.877 168.46 161.555C168.459 161.319 168.458 161.083 168.456 160.84C167.175 160.741 165.893 160.644 164.611 160.547C164.067 160.505 164.067 160.505 163.513 160.462C163.161 160.436 162.81 160.409 162.448 160.382C162.126 160.358 161.804 160.333 161.472 160.308C160.575 160.256 159.687 160.245 158.788 160.254ZM137.55 161.325C137.075 161.379 137.075 161.379 136.59 161.433C136.193 161.479 135.797 161.525 135.388 161.572C133.484 161.79 133.484 161.79 131.542 162.012C131.832 165.782 132.122 169.553 132.421 173.438C133.386 172.955 133.827 172.69 134.541 171.961C134.709 171.791 134.877 171.621 135.05 171.446C135.222 171.27 135.394 171.093 135.571 170.911C135.747 170.732 135.923 170.553 136.105 170.368C136.539 169.928 136.97 169.486 137.402 169.043C138.559 169.531 139.445 170.32 140.386 171.131C141.303 172.071 141.303 172.071 142.382 172.559C142.468 170.124 142.135 167.767 141.796 165.363C141.74 164.951 141.683 164.54 141.627 164.128C141.49 163.13 141.351 162.131 141.21 161.133C139.973 161.113 138.78 161.185 137.55 161.325ZM145.898 161.719C145.893 162.564 145.906 163.402 145.933 164.247C145.94 164.5 145.947 164.753 145.954 165.014C145.977 165.826 146.001 166.638 146.026 167.45C146.042 167.999 146.057 168.548 146.072 169.097C146.11 170.447 146.15 171.796 146.191 173.145C147.333 172.764 147.652 172.202 148.388 171.259C149.1 170.348 149.62 169.686 150.585 169.043C151.041 169.292 151.041 169.292 151.505 169.546C151.907 169.763 152.308 169.98 152.709 170.197C153.009 170.361 153.009 170.361 153.315 170.528C153.509 170.633 153.704 170.738 153.904 170.846C154.171 170.991 154.171 170.991 154.443 171.138C155.006 171.399 155.547 171.548 156.152 171.68C156.214 169.446 156.03 167.285 155.749 165.07C155.712 164.75 155.675 164.43 155.637 164.101C155.599 163.798 155.561 163.495 155.522 163.183C155.472 162.771 155.472 162.771 155.42 162.351C155.371 162.142 155.323 161.934 155.273 161.719C154.435 161.3 153.716 161.388 152.781 161.387C152.401 161.387 152.021 161.386 151.63 161.386C151.431 161.386 151.233 161.387 151.029 161.388C150.422 161.389 149.815 161.388 149.208 161.386C148.828 161.386 148.449 161.387 148.057 161.387C147.531 161.388 147.531 161.388 146.995 161.388C146.217 161.334 146.217 161.334 145.898 161.719Z" fill="black"/>
<path d="M179.59 185.156C179.687 203.719 179.783 222.281 179.883 241.406C160.257 241.406 140.631 241.406 120.41 241.406C120.507 222.94 120.604 204.475 120.703 185.449C121.582 185.742 121.582 185.742 122.15 186.475C124.916 189.932 129.352 192.036 133.681 192.562C136.003 192.795 138.33 192.875 140.662 192.938C140.986 192.947 140.986 192.947 141.317 192.956C145.67 193.073 150.024 193.106 154.379 193.118C155.115 193.12 155.851 193.123 156.587 193.127C166.114 193.338 166.114 193.338 174.609 189.551C174.863 189.37 175.117 189.188 175.378 189.001C176.21 188.257 176.921 187.443 177.642 186.592C178.887 185.156 178.887 185.156 179.59 185.156Z" fill="black"/>
</svg>
