<svg width="300" height="300" viewBox="0 0 300 300" fill="none" xmlns="http://www.w3.org/2000/svg">
<path d="M28.6887 96.0574C29.0036 96.0567 29.3186 96.0559 29.6431 96.0552C29.9941 96.0559 30.3451 96.0565 30.7068 96.0573C31.0773 96.0568 31.4479 96.0564 31.8297 96.056C32.8679 96.0548 33.906 96.0555 34.9441 96.0565C36.0703 96.0572 37.1965 96.0563 38.3226 96.0555C40.3001 96.0545 42.2777 96.0545 44.2552 96.0553C47.1969 96.0564 50.1386 96.0558 53.0803 96.0549C58.3393 96.0534 63.5982 96.0535 68.8572 96.0543C73.4731 96.0551 78.089 96.0553 82.7049 96.0549C83.1643 96.0549 83.1643 96.0549 83.6329 96.0549C84.8763 96.0548 86.1197 96.0547 87.3631 96.0546C99.051 96.0537 110.739 96.0545 122.427 96.0561C132.767 96.0574 143.106 96.0573 153.446 96.0559C165.079 96.0544 176.713 96.0537 188.346 96.0546C189.594 96.0547 190.842 96.0548 192.09 96.0549C192.397 96.0549 192.704 96.055 193.021 96.055C197.614 96.0553 202.207 96.0549 206.8 96.0542C212.052 96.0533 217.304 96.0536 222.555 96.0552C225.225 96.0559 227.895 96.0563 230.565 96.0553C244.63 96.0502 258.691 96.1657 272.754 96.3871C272.765 97.3451 272.775 98.3031 272.785 99.2612C272.788 99.5302 272.791 99.7992 272.794 100.076C273.047 123.826 273.109 147.574 273.064 171.325C273.064 171.594 273.063 171.862 273.063 172.139C273.062 172.543 273.062 172.543 273.061 172.955C273.061 173.226 273.06 173.496 273.06 173.775C273.059 174.325 273.058 174.874 273.057 175.424C273.048 179.81 273.046 184.195 273.046 188.581C273.045 194.055 273.038 199.529 273.023 205.003C273.015 207.921 273.01 210.839 273.012 213.757C273.014 216.23 273.01 218.702 272.999 221.175C272.993 222.435 272.99 223.695 272.994 224.956C273.036 237.512 270.262 248.679 261.914 258.399C261.593 258.775 261.593 258.775 261.264 259.159C255.251 266.019 246.596 271.269 237.598 273.047C237.211 273.047 236.825 273.047 236.426 273.047C236.426 273.241 236.426 273.434 236.426 273.633C232.748 273.947 229.084 273.974 225.395 273.98C224.727 273.983 224.059 273.985 223.392 273.987C221.566 273.993 219.741 273.998 217.916 274.002C216.146 274.006 214.377 274.012 212.607 274.018C207.871 274.032 203.135 274.044 198.399 274.055C196.155 274.061 193.912 274.066 191.668 274.072C183.977 274.091 176.286 274.109 168.595 274.126C168.113 274.127 167.631 274.128 167.148 274.129C166.909 274.129 166.67 274.13 166.424 274.13C165.213 274.133 164.002 274.135 162.791 274.138C162.43 274.139 162.43 274.139 162.062 274.139C154.275 274.156 146.487 274.177 138.7 274.201C130.453 274.226 122.205 274.247 113.958 274.262C113.051 274.264 112.144 274.266 111.237 274.268C111.013 274.268 110.79 274.269 110.56 274.269C106.981 274.276 103.403 274.287 99.8244 274.3C96.221 274.313 92.6176 274.321 89.0142 274.324C87.0658 274.327 85.1175 274.331 83.1691 274.34C69.5868 274.403 56.1918 273.966 44.9241 265.342C44.318 264.902 43.7356 264.587 43.0668 264.258C42.7217 263.933 42.3789 263.605 42.0517 263.261C41.713 262.909 41.3659 262.565 41.0148 262.225C39.3093 260.566 37.7905 258.809 36.3285 256.934C36.0345 256.56 36.0345 256.56 35.7345 256.178C33.0705 252.659 31.0335 248.797 29.5902 244.629C29.5238 244.439 29.4574 244.248 29.3889 244.052C27.2107 237.651 27.1133 231.138 27.1197 224.446C27.1199 223.237 27.115 222.028 27.1107 220.819C27.1041 218.724 27.1006 216.629 27.0993 214.534C27.0974 211.469 27.0906 208.404 27.0828 205.339C27.0701 200.318 27.0613 195.296 27.055 190.274C27.0489 185.482 27.041 180.69 27.0304 175.897C27.0297 175.606 27.0291 175.314 27.0284 175.014C27.0258 173.839 27.0232 172.664 27.0206 171.489C26.9923 158.885 26.973 146.282 26.9588 133.678C26.955 130.338 26.9504 126.997 26.9453 123.657C26.9392 119.634 26.9346 115.611 26.9314 111.588C26.9303 110.175 26.9285 108.762 26.9261 107.349C26.9235 105.755 26.9222 104.16 26.9221 102.566C26.9218 101.997 26.921 101.427 26.9197 100.858C26.9181 100.098 26.9182 99.3382 26.9188 98.5784C26.9179 98.3571 26.917 98.1357 26.916 97.9076C26.9207 96.1821 26.9823 96.0575 28.6887 96.0574Z" fill="black"/>
<path d="M210.991 26.151C212.727 26.1632 214.463 26.1713 216.199 26.1779C217.969 26.1849 219.738 26.1966 221.508 26.2098C222.225 26.2146 222.942 26.218 223.659 26.2199C237.958 26.2618 249.96 29.8502 260.328 39.9993C261.137 40.8268 261.884 41.6941 262.632 42.5765C263.061 43.0966 263.061 43.0966 263.672 43.3593C263.986 43.8159 263.986 43.8159 264.295 44.3664C264.398 44.5473 264.502 44.7281 264.608 44.9145C264.844 45.4101 264.844 45.4101 264.844 45.996C265.037 45.996 265.231 45.996 265.43 45.996C265.724 46.5201 266.017 47.0452 266.309 47.5707C266.554 48.0092 266.554 48.0092 266.803 48.4565C267.188 49.2187 267.188 49.2187 267.188 49.8046C267.381 49.8046 267.574 49.8046 267.774 49.8046C268.006 50.36 268.238 50.9154 268.469 51.4708C268.599 51.7801 268.728 52.0894 268.861 52.4081C269.048 52.8596 269.048 52.8596 269.238 53.3202C269.407 53.7128 269.407 53.7128 269.58 54.1133C269.824 54.7851 269.824 54.7851 269.824 55.664C270.018 55.664 270.211 55.664 270.41 55.664C272.15 62.3345 272.797 68.7168 272.809 75.5858C272.809 75.7895 272.81 75.9932 272.81 76.2031C272.809 79.6321 272.809 79.6321 272.461 79.9804C271.926 80.0091 271.389 80.0168 270.852 80.0168C270.5 80.0174 270.148 80.0181 269.785 80.0188C269.389 80.018 268.992 80.0172 268.595 80.0164C268.177 80.0166 267.758 80.017 267.34 80.0174C266.179 80.0183 265.018 80.0174 263.858 80.0162C262.599 80.0152 261.34 80.0159 260.081 80.0164C257.872 80.017 255.662 80.0165 253.453 80.0153C250.167 80.0135 246.881 80.0134 243.596 80.0137C238.07 80.0141 232.543 80.0131 227.017 80.0113C221.543 80.0096 216.069 80.0085 210.595 80.0082C210.085 80.0081 210.085 80.0081 209.564 80.0081C207.838 80.008 206.112 80.0079 204.386 80.0078C192.148 80.0072 179.91 80.0052 167.672 80.0025C155.78 79.9998 143.889 79.9977 131.997 79.9965C131.631 79.9964 131.265 79.9964 130.887 79.9963C127.209 79.996 123.53 79.9956 119.851 79.9952C112.357 79.9945 104.862 79.9937 97.368 79.9928C96.851 79.9927 96.851 79.9927 96.3237 79.9927C73.2979 79.99 50.2721 79.9853 27.2463 79.9804C27.244 78.6545 27.2423 77.3286 27.2413 76.0027C27.2408 75.5528 27.2402 75.1029 27.2394 74.653C27.2149 60.5049 30.9517 48.4673 41.1015 38.2738C49.1802 30.507 60.4388 26.3314 71.5553 26.3207C72.04 26.3186 72.04 26.3186 72.5344 26.3164C73.6142 26.3119 74.6939 26.3094 75.7736 26.3069C76.5512 26.3041 77.3287 26.3012 78.1063 26.2981C80.0065 26.2909 81.9067 26.2852 83.8069 26.2801C86.0586 26.2738 88.3103 26.2661 90.562 26.2583C94.6283 26.2443 98.6946 26.2317 102.761 26.2198C106.614 26.2086 110.466 26.1964 114.319 26.1832C114.788 26.1816 115.258 26.18 115.727 26.1784C115.959 26.1776 116.191 26.1768 116.431 26.1759C116.779 26.1748 116.779 26.1748 117.133 26.1735C117.365 26.1727 117.597 26.1719 117.835 26.1711C140.935 26.0921 164.034 26.0436 210.991 26.151ZM41.6338 53.1177C38.8812 56.6298 38.0918 60.3597 38.3791 64.746C39.0158 68.9296 40.9843 72.3876 44.3804 74.9667C46.0758 76.0385 47.8945 76.7486 49.8049 77.3437C49.9717 77.3956 50.1385 77.4476 50.3103 77.5011C51.2078 77.6836 52.0651 77.6787 52.981 77.6838C53.1804 77.6853 53.3797 77.6867 53.585 77.6882C54.2438 77.6925 54.9025 77.6945 55.5613 77.6961C55.7878 77.697 56.0143 77.6978 56.2477 77.6986C57.4491 77.703 58.6506 77.7057 59.8521 77.707C61.0826 77.7086 62.313 77.7156 63.5435 77.724C64.4982 77.7295 65.4528 77.731 66.4075 77.7314C66.8604 77.7323 67.3133 77.7346 67.7662 77.7385C73.132 77.7813 77.9599 76.9197 81.9765 73.0704C84.6685 70.0996 85.8686 66.3689 85.84 62.4022C85.6333 58.2237 83.5703 54.6769 80.5666 51.8554C76.842 48.5526 72.6571 48.2456 67.8911 48.2413C67.3982 48.2394 66.9054 48.2375 66.4125 48.2354C65.3822 48.2319 64.3519 48.2308 63.3216 48.2312C62.0113 48.2312 60.7011 48.2232 59.3908 48.2131C58.3733 48.2066 57.3559 48.2054 56.3384 48.2057C55.8558 48.2051 55.3732 48.2025 54.8907 48.1979C49.7362 48.1536 45.3101 49.2654 41.6338 53.1177ZM93.0246 52.7492C90.1543 56.4217 89.2688 60.1558 89.6486 64.746C90.3353 68.3781 92.6105 71.5865 95.5996 73.7273C99.1489 75.9901 102.498 76.006 106.58 75.9924C107.175 75.9936 107.769 75.9952 108.363 75.9972C109.993 76.0014 111.622 76.0002 113.252 75.998C115.011 75.9966 116.769 76.0003 118.528 76.0033C121.774 76.008 125.019 76.0087 128.264 76.0073C131.263 76.006 134.262 76.0061 137.261 76.0078C137.663 76.008 138.066 76.0083 138.468 76.0085C139.075 76.0088 139.682 76.0092 140.289 76.0095C145.928 76.0126 151.567 76.014 157.206 76.0117C157.418 76.0116 157.631 76.0115 157.849 76.0114C159.575 76.0107 161.3 76.01 163.026 76.0092C169.755 76.0062 176.483 76.0087 183.212 76.0155C190.776 76.0231 198.34 76.0269 205.904 76.0248C206.711 76.0246 207.518 76.0244 208.325 76.0242C208.524 76.0242 208.722 76.0241 208.927 76.0241C211.923 76.0234 214.919 76.0257 217.915 76.0296C221.323 76.0339 224.731 76.0341 228.139 76.029C229.878 76.0265 231.616 76.0258 233.355 76.0303C234.947 76.0344 236.54 76.033 238.132 76.0273C238.707 76.0262 239.282 76.0271 239.857 76.0301C243.692 76.0491 247.402 75.9606 250.58 73.5167C250.845 73.32 251.109 73.1232 251.382 72.9205C251.571 72.7366 251.759 72.5527 251.953 72.3632C251.953 72.0731 251.953 71.7831 251.953 71.4843C252.216 71.4503 252.216 71.4503 252.484 71.4156C253.803 70.9539 254.303 69.4508 254.883 68.2616C256.439 64.5629 256.554 60.8911 255.239 57.0991C254.743 55.9157 254.185 54.936 253.418 53.9062C253.225 53.9062 253.031 53.9062 252.832 53.9062C252.805 53.7336 252.777 53.561 252.749 53.3832C252.277 51.9223 250.723 50.9933 249.45 50.2463C246.563 48.7701 243.895 48.2936 240.687 48.3012C240.327 48.3003 240.327 48.3003 239.961 48.2994C239.161 48.2978 238.361 48.2982 237.56 48.2986C236.98 48.2978 236.399 48.297 235.819 48.296C234.226 48.2936 232.632 48.2931 231.039 48.2929C229.32 48.2923 227.6 48.2901 225.881 48.2881C221.927 48.2839 217.973 48.2822 214.018 48.2809C212.063 48.2802 210.108 48.2792 208.153 48.2781C201.457 48.2743 194.76 48.2712 188.064 48.2701C187.644 48.2701 187.224 48.27 186.804 48.2699C186.383 48.2699 185.961 48.2698 185.54 48.2698C184.696 48.2696 183.851 48.2695 183.006 48.2694C182.797 48.2693 182.587 48.2693 182.371 48.2693C175.581 48.2682 168.79 48.2635 162 48.2567C154.816 48.2495 147.632 48.2455 140.448 48.2451C139.659 48.2451 138.87 48.245 138.081 48.2449C137.887 48.2449 137.693 48.2449 137.492 48.2449C134.563 48.2446 131.635 48.2418 128.706 48.2379C125.373 48.2333 122.04 48.2319 118.707 48.2343C117.007 48.2354 115.307 48.2351 113.607 48.231C112.049 48.2273 110.492 48.2277 108.934 48.2312C108.372 48.2318 107.81 48.2309 107.248 48.2283C101.938 48.2057 96.8581 48.5884 93.0246 52.7492Z" fill="black"/>
<path d="M104.129 53.8318C104.371 53.8308 104.613 53.8299 104.862 53.8289C105.673 53.8265 106.484 53.8282 107.295 53.8299C107.882 53.8291 108.469 53.8279 109.056 53.8265C110.67 53.8235 112.284 53.8242 113.897 53.8254C115.638 53.8261 117.378 53.8235 119.118 53.8213C122.527 53.8176 125.937 53.817 129.346 53.8177C132.117 53.8183 134.888 53.8178 137.659 53.8165C138.057 53.8163 138.455 53.8161 138.853 53.816C139.453 53.8157 140.053 53.8154 140.653 53.8152C146.23 53.8127 151.808 53.8114 157.385 53.8127C157.596 53.8127 157.806 53.8127 158.023 53.8128C159.088 53.813 160.154 53.8133 161.22 53.8135C161.431 53.8136 161.643 53.8136 161.861 53.8137C162.289 53.8138 162.717 53.8139 163.145 53.814C169.805 53.8156 176.465 53.8132 183.124 53.8078C190.607 53.8018 198.09 53.7986 205.573 53.7998C206.371 53.7999 207.169 53.8 207.967 53.8001C208.163 53.8001 208.359 53.8002 208.562 53.8002C211.527 53.8005 214.493 53.7986 217.458 53.7955C220.831 53.7919 224.204 53.7916 227.577 53.7951C229.298 53.7969 231.019 53.7972 232.74 53.7937C234.315 53.7905 235.89 53.7914 237.466 53.7955C238.036 53.7963 238.606 53.7956 239.176 53.7932C239.951 53.7903 240.726 53.7927 241.501 53.7965C241.722 53.7944 241.943 53.7922 242.17 53.79C244.865 53.8174 246.924 54.7453 248.972 56.4652C249.982 57.5164 250.782 58.8563 250.782 60.3516C250.975 60.3516 251.168 60.3516 251.367 60.3516C251.367 61.5118 251.367 62.6719 251.367 63.8672C251.174 63.8672 250.981 63.8672 250.782 63.8672C250.746 64.0474 250.711 64.2275 250.674 64.4131C250.625 64.6499 250.576 64.8867 250.525 65.1307C250.478 65.3652 250.43 65.5997 250.381 65.8414C250.196 66.504 250.196 66.504 249.61 67.3829C249.416 67.3829 249.223 67.3829 249.024 67.3829C248.949 67.5604 248.875 67.7379 248.798 67.9207C248.391 68.6372 248.056 68.8985 247.357 69.3238C247.169 69.4424 246.981 69.561 246.786 69.6831C245.087 70.5091 243.435 70.691 241.571 70.6809C241.328 70.6819 241.086 70.683 240.836 70.684C240.024 70.6867 239.212 70.6853 238.4 70.6839C237.812 70.685 237.223 70.6863 236.635 70.6879C235.019 70.6915 233.402 70.6914 231.786 70.6907C230.043 70.6906 228.299 70.6938 226.556 70.6966C223.141 70.7015 219.725 70.7031 216.31 70.7034C213.534 70.7037 210.758 70.7049 207.982 70.7068C207.183 70.7073 206.384 70.7078 205.585 70.7083C205.287 70.7085 205.287 70.7085 204.983 70.7087C199.395 70.7123 193.807 70.7146 188.219 70.7144C187.903 70.7144 187.903 70.7144 187.58 70.7143C186.513 70.7143 185.445 70.7142 184.377 70.7142C184.165 70.7142 183.953 70.7142 183.735 70.7141C183.306 70.7141 182.877 70.7141 182.448 70.7141C175.777 70.7137 169.105 70.7181 162.433 70.7261C154.937 70.7351 147.441 70.7402 139.944 70.7396C139.145 70.7396 138.345 70.7395 137.546 70.7395C137.349 70.7395 137.152 70.7395 136.949 70.7395C133.783 70.7395 130.616 70.7432 127.449 70.7483C124.267 70.7532 121.084 70.7537 117.901 70.75C116.177 70.7481 114.453 70.748 112.729 70.7531C111.15 70.7577 109.572 70.7569 107.993 70.7518C107.422 70.7509 106.852 70.7519 106.281 70.7552C102.519 70.7753 99.4727 70.6531 96.5895 67.9505C94.9603 66.0842 94.5234 64.0031 94.5468 61.5842C94.7417 59.3619 95.684 57.503 97.2659 55.9571C99.3887 54.3493 101.469 53.8163 104.129 53.8318Z" fill="black"/>
<path d="M27.2461 87.0117C108.264 87.0117 189.281 87.0117 272.754 87.0117C272.754 88.2686 272.754 89.5254 272.754 90.8203C191.736 90.8203 110.719 90.8203 27.2461 90.8203C26.9531 89.9414 26.9531 89.9414 27.2461 87.0117Z" fill="black"/>
<path d="M55.6644 55.9568C57.7193 57.4532 59.0938 58.8388 59.6264 61.3745C59.9787 63.7213 59.5603 65.7746 58.1409 67.7065C56.3808 69.5999 54.3946 70.5031 51.8192 70.6533C49.5725 70.5251 47.5239 69.6051 45.9965 67.9686C44.6217 65.8783 43.9564 64.0358 44.2387 61.5232C44.9091 59.1001 46 57.2882 48.2121 56.0118C50.6163 54.7242 53.2359 54.6906 55.6644 55.9568Z" fill="black"/>
<path d="M76.6903 56.3698C78.178 57.4302 79.134 58.9164 79.6875 60.6442C79.9136 62.9923 80.0803 65.4678 78.5156 67.3825C76.9332 69.1551 75.3331 70.2818 72.9492 70.6051C70.6887 70.6877 68.8577 69.908 67.1631 68.4445C65.6053 66.6271 64.8495 65.1037 64.7461 62.695C65.0511 59.9144 66.0755 57.8926 68.2434 56.1398C71.0847 54.6322 73.8986 54.8386 76.6903 56.3698Z" fill="black"/>
</svg>
