<svg width="300" height="300" viewBox="0 0 300 300" fill="none" xmlns="http://www.w3.org/2000/svg">
<g clip-path="url(#clip0_50_2844)">
<path d="M0 0C11.6982 0 23.3965 0 35.4492 0C37.0861 1.63687 38.645 3.22892 40.1367 4.98047C40.4017 5.28881 40.6668 5.59703 40.9321 5.90515C42.2666 7.45699 43.5959 9.01299 44.9139 10.5788C45.9996 11.8685 47.0951 13.1451 48.23 14.3921C49.1027 15.3528 49.9399 16.3315 50.7568 17.3401C52.2809 19.2214 53.8699 21.0433 55.4608 22.868C59.8527 27.9082 64.2426 32.9557 68.4631 38.1409C69.2172 39.058 69.9831 39.9644 70.752 40.8691C71.9589 42.2895 73.1449 43.7251 74.3214 45.171C75.0814 46.0951 75.8543 47.0074 76.6296 47.9187C77.7631 49.2514 78.8665 50.603 79.953 51.9745C80.6801 52.8752 81.4273 53.7573 82.1777 54.6387C83.2965 55.9533 84.3897 57.2833 85.4622 58.6361C86.353 59.7474 87.259 60.8459 88.1653 61.9446C88.3448 62.1622 88.5242 62.3798 88.7092 62.604C89.0599 63.0292 89.4107 63.4543 89.7614 63.8795C91.7475 66.2885 93.7155 68.7122 95.6829 71.1365C96.3429 71.9495 97.0044 72.7611 97.6673 73.5718C99.6268 75.9704 101.541 78.3954 103.418 80.8594C103.948 81.5496 104.48 82.239 105.011 82.9285C105.457 83.5078 105.903 84.0876 106.348 84.668C106.616 84.9846 106.616 84.9846 106.889 85.3077C107 85.4833 107.112 85.6589 107.227 85.8398C107.13 86.1299 107.033 86.4199 106.934 86.7188C106.314 87.0028 106.314 87.0028 105.503 87.2623C105.209 87.3732 104.915 87.484 104.613 87.5982C104.001 87.8248 103.382 88.0333 102.757 88.2208C101.468 88.7375 100.526 89.2791 99.8867 90.5595C99.2344 92.2931 98.8232 94.0929 98.4024 95.8938C98.1346 97.014 97.8418 98.1258 97.5387 99.2368C97.4304 99.6345 97.322 100.032 97.2137 100.43C97.1312 100.733 97.1313 100.733 97.0471 101.041C96.7584 102.107 96.4761 103.174 96.1937 104.242C96.075 104.69 95.9563 105.138 95.8377 105.586C95.7477 105.926 95.7477 105.926 95.6559 106.273C95.1412 108.216 94.6242 110.159 94.1075 112.101C93.9734 112.606 93.8392 113.11 93.7051 113.615C92.329 118.791 90.9372 123.963 89.542 129.134C85.802 142.997 82.1194 156.875 78.4576 170.759C75.058 183.649 75.058 183.649 73.7264 188.657C73.5761 189.222 73.4259 189.788 73.276 190.354C73.0754 191.111 72.874 191.868 72.6723 192.625C72.6146 192.843 72.5569 193.061 72.4974 193.286C72.1039 194.757 72.1039 194.757 71.7773 195.41C72.0201 195.486 72.2628 195.562 72.5128 195.641C73.646 196.035 74.7352 196.503 75.8297 196.991C76.297 197.197 76.7643 197.404 77.2316 197.61C77.4789 197.72 77.7261 197.829 77.9809 197.942C83.5555 200.413 89.1538 202.826 94.7626 205.218C95.0286 205.332 95.2947 205.446 95.5688 205.563C96.1353 205.804 96.7025 206.044 97.2707 206.281C98.7171 206.89 100.128 207.526 101.516 208.259C106.277 210.701 110.516 211.082 115.779 210.983C116.92 210.965 118.06 210.967 119.201 210.968C120.702 210.967 122.202 210.964 123.703 210.954C127.763 210.928 131.819 210.965 135.878 211.025C141.789 211.11 147.7 211.169 153.611 211.204C157.017 211.225 160.423 211.256 163.828 211.307C166.869 211.353 169.91 211.382 172.951 211.39C174.538 211.396 176.124 211.408 177.711 211.442C185.996 211.612 192.39 210.477 199.852 206.798C201.326 206.071 202.838 205.444 204.358 204.821C204.797 204.635 205.235 204.449 205.673 204.262C205.973 204.133 205.973 204.133 206.28 204.003C206.706 203.821 207.131 203.637 207.557 203.453C208.204 203.174 208.854 202.898 209.504 202.623C209.787 202.499 209.787 202.499 210.076 202.372C210.815 202.063 211.382 201.843 212.19 201.917C213.01 202.293 213.581 202.886 214.233 203.503C214.523 203.774 214.812 204.044 215.102 204.314C215.371 204.566 215.641 204.818 215.918 205.078C216.999 206.047 218.1 206.992 219.205 207.933C221.122 209.569 223.016 211.221 224.873 212.924C225.476 213.474 226.085 214.012 226.703 214.545C227.82 215.514 228.899 216.521 229.98 217.529C231.242 218.706 232.51 219.87 233.815 220.998C235.554 222.509 237.25 224.071 238.953 225.623C239.854 226.444 240.76 227.259 241.681 228.058C244.243 230.288 246.711 232.625 249.191 234.946C250.201 235.889 251.216 236.824 252.246 237.744C254.23 239.518 256.163 241.345 258.105 243.164C261.184 246.045 264.263 248.924 267.407 251.733C268.908 253.08 270.376 254.461 271.845 255.842C273.089 257.011 274.337 258.175 275.592 259.332C275.745 259.473 275.897 259.614 276.054 259.759C276.849 260.491 277.645 261.222 278.442 261.952C280.001 263.383 281.539 264.822 283.022 266.332C283.559 266.86 284.111 267.355 284.682 267.846C285.938 268.937 287.148 270.071 288.354 271.216C290.07 272.837 291.796 274.444 293.539 276.035C294.624 277.028 295.701 278.031 296.777 279.034C297.057 279.295 297.057 279.295 297.342 279.56C297.518 279.724 297.694 279.889 297.876 280.059C298.032 280.204 298.187 280.349 298.347 280.499C298.907 281.033 299.453 281.582 300 282.129C300 288.026 300 293.924 300 300C201 300 102 300 0 300C0 201 0 102 0 0Z" fill="black"/>
<path d="M120.997 84.375C129.601 84.375 138.206 84.375 147.071 84.375C147.071 114.056 147.071 143.736 147.071 174.316C133.536 174.316 120.001 174.316 106.055 174.316C105.637 173.479 105.848 172.939 106.005 172.02C106.066 171.657 106.127 171.294 106.19 170.921C106.26 170.517 106.33 170.114 106.4 169.71C106.472 169.285 106.545 168.859 106.617 168.434C106.81 167.296 107.005 166.158 107.201 165.021C107.351 164.149 107.499 163.277 107.648 162.405C108.637 156.578 109.659 150.756 110.682 144.935C112.129 136.707 113.546 128.475 114.951 120.24C115.141 119.127 115.331 118.013 115.521 116.9C116.721 109.877 117.921 102.855 119.097 95.8282C119.131 95.6241 119.166 95.4199 119.201 95.2096C119.805 91.5989 120.4 87.9868 120.997 84.375Z" fill="black"/>
<path d="M154.123 84.3382C154.442 84.3398 154.442 84.3398 154.767 84.3414C154.99 84.3414 155.213 84.3413 155.443 84.3413C156.183 84.3415 156.923 84.3438 157.663 84.346C158.175 84.3466 158.687 84.347 159.199 84.3473C160.549 84.3484 161.899 84.3513 163.249 84.3545C164.626 84.3575 166.002 84.3589 167.379 84.3604C170.082 84.3635 172.785 84.3685 175.488 84.3747C176.498 89.3445 177.451 94.3225 178.361 99.3115C178.492 100.028 178.624 100.744 178.755 101.46C179.067 103.162 179.378 104.865 179.689 106.567C179.941 107.946 180.193 109.324 180.446 110.702C180.482 110.9 180.518 111.097 180.555 111.3C180.628 111.7 180.701 112.099 180.774 112.498C182.054 119.486 183.33 126.474 184.599 133.463C184.644 133.706 184.688 133.95 184.733 134.2C185.107 136.26 185.481 138.32 185.854 140.38C186.749 145.317 187.653 150.253 188.574 155.186C188.663 155.666 188.753 156.145 188.842 156.624C189.224 158.671 189.607 160.717 189.993 162.763C190.147 163.583 190.301 164.403 190.454 165.224C190.557 165.773 190.661 166.323 190.766 166.873C191.228 169.353 191.559 171.806 191.894 174.316C178.939 174.316 165.984 174.316 152.636 174.316C152.388 173.322 152.306 172.624 152.306 171.619C152.306 171.309 152.305 170.998 152.304 170.679C152.305 170.338 152.305 169.997 152.306 169.646C152.305 169.284 152.305 168.922 152.305 168.549C152.304 167.544 152.304 166.538 152.305 165.532C152.305 164.448 152.304 163.364 152.304 162.28C152.302 160.156 152.303 158.032 152.303 155.908C152.304 154.183 152.304 152.458 152.304 150.732C152.304 150.487 152.304 150.242 152.304 149.989C152.304 149.491 152.304 148.992 152.304 148.494C152.303 143.82 152.304 139.145 152.305 134.471C152.307 130.456 152.306 126.441 152.305 122.427C152.303 117.768 152.303 113.109 152.304 108.451C152.304 107.954 152.304 107.458 152.304 106.962C152.304 106.718 152.304 106.474 152.304 106.222C152.304 104.497 152.304 102.773 152.303 101.048C152.302 98.9486 152.303 96.849 152.304 94.7493C152.305 93.6771 152.305 92.6049 152.304 91.5327C152.303 90.3731 152.304 89.2135 152.306 88.0539C152.305 87.7113 152.305 87.3687 152.304 87.0157C152.305 86.7076 152.305 86.3996 152.306 86.0822C152.306 85.8141 152.306 85.5461 152.306 85.27C152.379 84.0746 153.096 84.3404 154.123 84.3382Z" fill="black"/>
<path d="M115.542 179.552C115.814 179.553 116.085 179.554 116.365 179.555C116.651 179.554 116.938 179.554 117.233 179.554C118.199 179.553 119.166 179.555 120.133 179.557C120.823 179.557 121.512 179.557 122.202 179.556C124.082 179.556 125.961 179.558 127.841 179.56C129.604 179.562 131.367 179.562 133.13 179.562C136.623 179.563 140.116 179.565 143.61 179.568C147.004 179.57 150.398 179.572 153.792 179.574C154.001 179.574 154.21 179.574 154.425 179.574C155.474 179.574 156.523 179.575 157.572 179.575C166.278 179.578 174.985 179.583 183.691 179.59C184.192 180.779 184.415 181.815 184.559 183.101C184.582 183.302 184.605 183.502 184.629 183.708C184.704 184.368 184.775 185.028 184.847 185.688C184.899 186.151 184.951 186.613 185.002 187.076C185.111 188.045 185.217 189.015 185.323 189.984C185.457 191.218 185.595 192.451 185.735 193.685C185.842 194.64 185.948 195.596 186.053 196.552C186.103 197.007 186.154 197.461 186.205 197.915C186.277 198.555 186.346 199.196 186.415 199.836C186.455 200.199 186.495 200.561 186.536 200.935C186.646 202.508 186.621 204.087 186.621 205.664C161.581 205.664 136.541 205.664 110.742 205.664C111.072 200.389 111.072 200.389 111.279 198.513C111.301 198.307 111.324 198.101 111.347 197.889C111.419 197.231 111.492 196.573 111.566 195.915C111.618 195.449 111.669 194.984 111.72 194.518C111.827 193.554 111.934 192.59 112.043 191.627C112.181 190.39 112.317 189.152 112.453 187.915C112.558 186.959 112.665 186.003 112.771 185.047C112.822 184.591 112.873 184.134 112.923 183.677C112.992 183.044 113.064 182.411 113.135 181.778C113.175 181.418 113.215 181.058 113.257 180.687C113.482 179.207 114.192 179.555 115.542 179.552Z" fill="black"/>
<path d="M181.934 88.1836C185.32 89.736 188.632 91.3983 191.916 93.1588C192.472 93.4766 192.472 93.4766 193.09 93.6348C194.037 94.3221 194.156 95.4162 194.434 96.5012C194.543 96.9033 194.543 96.9033 194.654 97.3136C194.911 98.2728 195.161 99.2339 195.41 100.195C195.56 100.765 195.71 101.335 195.861 101.905C196.566 104.58 197.258 107.258 197.949 109.936C198.271 111.184 198.595 112.431 198.918 113.678C198.983 113.93 199.048 114.182 199.115 114.441C199.248 114.951 199.38 115.461 199.512 115.972C199.711 116.74 199.91 117.508 200.109 118.276C201.311 122.918 202.52 127.557 203.733 132.196C203.889 132.79 204.044 133.384 204.199 133.978C205.204 137.825 206.213 141.67 207.241 145.51C209.261 153.058 211.196 160.624 213.077 168.207C213.271 168.99 213.466 169.773 213.66 170.556C213.731 170.841 213.731 170.841 213.803 171.131C214.4 173.536 215.009 175.937 215.64 178.333C215.705 178.581 215.77 178.829 215.837 179.084C216.124 180.178 216.414 181.27 216.71 182.361C216.853 182.904 216.853 182.904 217 183.458C217.082 183.762 217.164 184.066 217.249 184.379C217.383 185.154 217.35 185.595 217.09 186.328C213.374 184.423 209.697 182.468 206.073 180.393C203.989 179.203 201.879 178.075 199.735 176.999C199.52 176.89 199.306 176.78 199.085 176.667C198.898 176.573 198.71 176.479 198.518 176.382C197.7 175.847 197.471 175.236 197.248 174.313C197.181 173.946 197.114 173.578 197.045 173.199C197.007 172.993 196.969 172.786 196.93 172.574C196.801 171.872 196.675 171.169 196.549 170.467C196.455 169.952 196.361 169.437 196.267 168.923C196.004 167.486 195.744 166.049 195.484 164.612C195.204 163.063 194.921 161.513 194.639 159.964C194.192 157.511 193.745 155.059 193.3 152.606C192.302 147.11 191.299 141.615 190.295 136.12C189.484 131.68 188.673 127.24 187.862 122.801C187.767 122.282 187.673 121.763 187.578 121.244C187.026 118.225 186.475 115.205 185.925 112.186C185.713 111.026 185.502 109.867 185.29 108.708C184.831 106.196 184.374 103.683 183.921 101.17C183.761 100.288 183.601 99.4064 183.441 98.5248C183.232 97.3704 183.024 96.2158 182.817 95.061C182.738 94.6236 182.659 94.1864 182.579 93.7492C182.469 93.1447 182.361 92.54 182.253 91.9351C182.191 91.5916 182.13 91.2481 182.066 90.8942C181.939 89.9763 181.909 89.1088 181.934 88.1836Z" fill="black"/>
<path d="M115.137 88.1836C114.499 92.838 113.761 97.4724 112.985 102.106C112.882 102.717 112.78 103.329 112.678 103.94C110.931 114.399 109.104 124.843 107.279 135.288C106.589 139.239 105.902 143.19 105.218 147.142C104.9 148.978 104.582 150.814 104.263 152.65C104.011 154.108 103.758 155.567 103.506 157.026C103.41 157.582 103.314 158.138 103.217 158.695C103.148 159.099 103.148 159.099 103.076 159.511C102.852 160.81 102.625 162.108 102.394 163.405C102.351 163.649 102.307 163.892 102.263 164.143C102.178 164.619 102.093 165.094 102.008 165.57C101.75 167.032 101.518 168.495 101.3 169.963C101.243 170.317 101.186 170.672 101.127 171.037C101.026 171.67 100.933 172.304 100.852 172.94C100.58 174.558 100.209 175.345 98.8638 176.325C97.837 176.95 96.8041 177.489 95.6783 177.914C93.6997 178.71 91.8425 179.675 89.961 180.673C89.0605 181.148 88.1536 181.61 87.2475 182.074C86.0342 182.699 84.8263 183.331 83.6266 183.981C83.3927 184.107 83.1589 184.234 82.918 184.364C82.4987 184.592 82.0805 184.822 81.6635 185.054C81.2092 185.301 80.7424 185.524 80.2734 185.742C80.0801 185.646 79.8867 185.549 79.6875 185.449C84.0012 168.908 88.3714 152.383 92.7902 135.87C93.132 134.593 93.4736 133.315 93.8151 132.038C94.7874 128.402 95.761 124.766 96.7366 121.131C97.2939 119.054 97.8503 116.977 98.4062 114.9C98.8859 113.107 99.3661 111.315 99.8466 109.522C100.138 108.435 100.429 107.348 100.72 106.26C100.831 105.846 100.942 105.432 101.052 105.018C101.133 104.717 101.133 104.717 101.215 104.41C101.474 103.441 101.735 102.472 102 101.505C102.426 99.9479 102.848 98.3935 103.219 96.8227C104.06 93.3829 104.06 93.3829 105.493 92.4122C106.167 92.0962 106.167 92.0962 106.879 91.8274C107.122 91.7183 107.365 91.6092 107.616 91.4968C108.115 91.2731 108.616 91.056 109.121 90.8456C110.284 90.347 111.396 89.7555 112.518 89.1724C114.452 88.1836 114.452 88.1836 115.137 88.1836Z" fill="black"/>
<path d="M190.065 179.295C194.299 179.339 197.387 180.907 200.954 183.13C202.056 183.816 203.18 184.454 204.312 185.09C204.845 185.389 205.378 185.692 205.908 185.997C208.911 187.715 212 189.27 215.09 190.826C215.293 190.929 215.497 191.033 215.707 191.139C216.091 191.334 216.475 191.527 216.86 191.719C217.749 192.171 218.492 192.592 219.141 193.359C215.824 194.945 212.433 196.339 209.033 197.735C208.439 197.98 207.845 198.224 207.25 198.469C206.043 198.965 204.835 199.461 203.628 199.956C202.208 200.538 200.789 201.123 199.371 201.71C198.362 202.126 197.352 202.541 196.341 202.955C195.868 203.149 195.396 203.344 194.923 203.54C194.273 203.809 193.622 204.075 192.97 204.341C192.779 204.421 192.588 204.501 192.391 204.583C191.939 204.766 191.478 204.924 191.016 205.078C190.43 204.785 190.43 204.785 190.191 204.079C190.075 203.609 190.075 203.609 189.956 203.128C189.823 202.595 189.823 202.595 189.686 202.051C189.59 201.658 189.494 201.264 189.399 200.871C189.298 200.466 189.197 200.061 189.096 199.655C188.829 198.581 188.565 197.507 188.302 196.432C188.039 195.363 187.774 194.295 187.509 193.226C187.005 191.197 186.507 189.167 186.011 187.136C185.761 186.112 185.508 185.088 185.255 184.064C185.117 183.499 184.979 182.933 184.842 182.368C184.778 182.115 184.715 181.861 184.65 181.6C184.513 181.031 184.393 180.457 184.277 179.883C185.313 178.847 188.573 179.309 190.065 179.295Z" fill="black"/>
<path d="M105.068 179.561C105.399 179.561 105.399 179.561 105.736 179.562C106.44 179.564 107.145 179.567 107.849 179.571C108.326 179.573 108.804 179.574 109.281 179.575C110.452 179.578 111.622 179.583 112.793 179.589C113.231 180.466 112.923 181.024 112.681 181.965C112.634 182.148 112.587 182.332 112.539 182.521C112.384 183.132 112.225 183.741 112.066 184.351C111.957 184.779 111.848 185.206 111.738 185.633C111.449 186.764 111.158 187.894 110.866 189.025C110.403 190.817 109.944 192.611 109.484 194.404C109.325 195.024 109.165 195.643 109.005 196.262C108.275 199.094 107.594 201.936 106.934 204.785C105.178 204.225 103.477 203.592 101.785 202.864C101.436 202.716 101.436 202.716 101.08 202.564C100.327 202.244 99.5744 201.921 98.822 201.599C98.2971 201.375 97.7721 201.15 97.2472 200.926C90.9847 198.252 84.7292 195.56 78.5156 192.773C78.8587 191.744 79.1777 191.62 80.1063 191.14C80.2903 191.049 80.4742 190.957 80.6637 190.863C80.8556 190.765 81.0475 190.667 81.2453 190.565C81.8782 190.243 82.5132 189.924 83.1482 189.605C83.5884 189.382 84.0285 189.158 84.4684 188.934C85.8023 188.256 87.139 187.584 88.4766 186.914C88.6742 186.815 88.8719 186.715 89.0756 186.613C90.6642 185.817 92.2537 185.024 93.8446 184.232C96.6687 182.826 99.4615 181.365 102.246 179.882C103.144 179.433 104.083 179.554 105.068 179.561Z" fill="black"/>
<path d="M147.07 0C148.424 0 149.777 0 151.172 0C151.172 26.0068 151.172 52.0137 151.172 78.8086C149.818 78.8086 148.465 78.8086 147.07 78.8086C147.07 52.8018 147.07 26.7949 147.07 0Z" fill="black"/>
</g>
<defs>
<clipPath id="clip0_50_2844">
<rect width="300" height="300" fill="white"/>
</clipPath>
</defs>
</svg>
