<svg width="300" height="300" viewBox="0 0 300 300" fill="none" xmlns="http://www.w3.org/2000/svg">
<path d="M145.255 71.8917C146.026 72.1054 146.283 72.3262 146.778 72.9492C146.891 73.5606 146.891 73.5606 146.895 74.2783C146.898 74.5507 146.902 74.823 146.906 75.1036C146.905 75.4018 146.905 75.7 146.904 76.0072C146.909 76.4789 146.909 76.4789 146.914 76.9601C146.922 78.0016 146.925 79.043 146.928 80.0845C146.933 80.8058 146.938 81.5271 146.944 82.2484C146.958 84.1484 146.966 86.0484 146.974 87.9485C146.983 89.8867 146.996 91.8249 147.01 93.7631C147.035 97.5673 147.055 101.371 147.071 105.176C149.391 106.191 149.391 106.191 151.758 107.226C153.127 105.88 153.127 105.88 153.264 104.156C153.265 103.88 153.267 103.604 153.268 103.32C153.269 103.016 153.269 102.712 153.269 102.399C153.271 102.08 153.272 101.761 153.274 101.432C153.277 100.737 153.28 100.043 153.281 99.3479C153.285 98.2499 153.291 97.152 153.297 96.0541C153.315 92.9318 153.331 89.8095 153.341 86.6872C153.347 84.7793 153.357 82.8715 153.37 80.9637C153.374 80.2348 153.377 79.5059 153.378 78.777C153.379 77.7597 153.386 76.7427 153.394 75.7255C153.393 75.2698 153.393 75.2698 153.391 74.8049C153.396 74.3908 153.396 74.3908 153.401 73.9684C153.402 73.7277 153.403 73.4871 153.404 73.2391C153.441 73.0467 153.478 72.8544 153.516 72.6562C154.397 72.0686 154.652 71.9716 155.658 71.9421C155.875 71.9304 156.091 71.9187 156.314 71.9066C157.82 72.25 158.735 73.3791 159.553 74.6154C159.809 75.0342 160.061 75.4555 160.309 75.8788C160.446 76.1073 160.582 76.3357 160.723 76.571C165.719 85.0441 169.473 94.0574 169.922 104.004C169.938 104.28 169.953 104.555 169.969 104.839C170.159 111.22 168.622 117.644 165.822 123.356C165.451 124.443 165.468 124.878 165.821 125.976C166.521 127.263 167.328 128.483 168.127 129.71C168.285 129.962 168.443 130.214 168.606 130.473C168.753 130.699 168.9 130.926 169.052 131.16C169.41 132.012 169.329 132.432 169.043 133.301C168.457 134.088 168.457 134.088 167.872 134.766C167.175 136.158 167.398 138.255 167.817 139.728C168.904 142.249 171.573 144.34 173.493 146.241C188.049 160.954 191.678 180.122 191.619 200.095C191.618 200.719 191.617 201.343 191.616 201.967C191.614 203.293 191.611 204.619 191.607 205.945C191.603 207.676 191.6 209.406 191.598 211.137C191.595 214.696 191.584 218.255 191.563 221.814C191.553 223.639 191.546 225.464 191.545 227.289C191.543 229.099 191.535 230.909 191.522 232.719C191.518 233.398 191.517 234.078 191.518 234.758C191.52 235.695 191.512 236.633 191.502 237.57C191.506 237.983 191.506 237.983 191.51 238.404C191.488 239.665 191.425 240.555 190.638 241.573C189.413 242.672 188.559 242.615 186.954 242.63C186.607 242.634 186.261 242.637 185.905 242.641C185.345 242.645 185.345 242.645 184.774 242.648C184.198 242.651 184.198 242.651 183.61 242.655C182.797 242.659 181.983 242.662 181.17 242.665C180.131 242.668 179.093 242.678 178.054 242.689C177.059 242.699 176.064 242.7 175.07 242.703C174.698 242.708 174.326 242.713 173.943 242.718C170.711 242.71 170.711 242.71 169.336 241.406C168.632 240.35 168.677 239.877 168.675 238.621C168.674 238.426 168.673 238.231 168.672 238.031C168.669 237.377 168.67 236.724 168.671 236.07C168.67 235.602 168.668 235.133 168.666 234.665C168.663 233.655 168.661 232.644 168.661 231.634C168.661 230.029 168.655 228.425 168.649 226.821C168.635 222.831 168.626 218.841 168.62 214.85C168.615 211.759 168.608 208.668 168.595 205.577C168.59 204.247 168.586 202.917 168.587 201.587C168.597 191.606 168.597 191.606 166.828 181.805C166.754 181.532 166.68 181.259 166.604 180.978C164.592 173.887 161.026 167.31 157.093 161.112C156.095 159.518 155.131 157.902 154.156 156.294C152.991 154.375 151.799 152.475 150.586 150.586C149.874 151.273 149.251 151.931 148.719 152.766C148.595 152.958 148.472 153.15 148.345 153.348C148.214 153.555 148.084 153.761 147.95 153.973C147.81 154.192 147.671 154.41 147.527 154.635C147.231 155.099 146.936 155.564 146.642 156.029C146.201 156.724 145.757 157.416 145.313 158.108C137.344 170.56 131.814 182.997 131.786 198.023C131.784 198.454 131.782 198.885 131.78 199.315C131.775 200.236 131.772 201.157 131.769 202.078C131.765 203.538 131.758 204.997 131.75 206.457C131.729 210.605 131.712 214.753 131.697 218.902C131.688 221.198 131.678 223.493 131.665 225.789C131.658 227.237 131.652 228.685 131.649 230.133C131.646 231.037 131.641 231.941 131.636 232.845C131.633 233.261 131.632 233.676 131.632 234.092C131.629 239.444 131.629 239.444 130.957 241.406C129.917 242.378 128.943 242.612 127.55 242.643C127.275 242.65 126.999 242.656 126.716 242.663C126.27 242.672 126.27 242.672 125.815 242.681C125.506 242.688 125.198 242.695 124.88 242.702C124.226 242.716 123.571 242.729 122.916 242.741C121.926 242.761 120.936 242.784 119.946 242.807C110.765 243.006 110.765 243.006 109.278 241.699C108.553 239.345 108.609 236.984 108.616 234.546C108.615 234.092 108.614 233.638 108.613 233.185C108.61 231.957 108.611 230.729 108.613 229.501C108.615 228.205 108.613 226.91 108.612 225.614C108.611 223.432 108.613 221.251 108.615 219.069C108.619 216.57 108.618 214.072 108.614 211.573C108.612 209.412 108.611 207.251 108.613 205.09C108.614 203.806 108.614 202.523 108.612 201.24C108.585 180.588 112.163 163.495 125.684 147.363C125.882 147.125 126.081 146.887 126.285 146.641C126.467 146.426 126.65 146.211 126.838 145.99C127.077 145.707 127.077 145.707 127.322 145.419C127.735 145.019 127.735 145.019 128.321 145.019C128.387 144.856 128.454 144.693 128.522 144.525C128.907 143.848 128.907 143.848 129.548 143.225C132.217 140.627 133.758 137.169 133.936 133.448C133.948 131.154 133.806 129.014 133.425 126.744C133.31 125.755 133.309 124.852 133.35 123.862C133.45 121.321 132.972 119.479 131.992 117.149C130.454 113.443 130.302 109.351 130.298 105.395C130.298 105.186 130.298 104.976 130.298 104.76C130.303 101.411 130.485 98.191 131.25 94.9218C131.299 94.7072 131.348 94.4926 131.398 94.2715C133.03 87.2859 136.289 80.4176 140.625 74.707C140.818 74.4369 141.01 74.1669 141.208 73.8887C142.427 72.3125 143.238 71.7777 145.255 71.8917ZM143.555 75.5859C138.044 82.2218 134.23 91.6741 133.301 100.195C133.278 100.398 133.255 100.6 133.232 100.809C132.018 112.418 136.435 121.578 142.383 131.25C142.644 131.678 142.905 132.107 143.165 132.535C143.678 133.378 144.192 134.219 144.709 135.06C145.819 136.869 146.921 138.683 148.023 140.497C148.129 140.672 148.236 140.847 148.345 141.027C149.858 143.518 151.361 146.015 152.857 148.517C154.2 150.762 155.559 152.997 156.94 155.218C158.76 158.148 160.558 161.089 162.305 164.062C162.437 164.286 162.569 164.51 162.705 164.741C165.927 170.252 168.273 176.048 169.812 182.245C169.869 182.467 169.926 182.69 169.985 182.919C171.488 189.248 171.526 195.61 171.535 202.073C171.538 203.377 171.546 204.682 171.553 205.987C171.566 208.447 171.574 210.907 171.581 213.366C171.589 216.172 171.602 218.977 171.615 221.782C171.642 227.542 171.663 233.302 171.68 239.062C172.543 239.516 173.115 239.721 174.095 239.72C174.338 239.72 174.58 239.721 174.83 239.722C175.091 239.72 175.351 239.718 175.619 239.716C175.89 239.716 176.161 239.716 176.44 239.715C177.014 239.715 177.588 239.712 178.162 239.709C179.032 239.703 179.901 239.703 180.771 239.703C181.331 239.701 181.89 239.7 182.449 239.698C182.834 239.697 182.834 239.697 183.227 239.697C184.496 239.687 185.744 239.632 187.006 239.499C187.394 239.459 187.394 239.459 187.79 239.418C187.985 239.397 188.179 239.377 188.379 239.355C188.425 233.719 188.468 228.083 188.509 222.446C188.528 219.828 188.548 217.21 188.569 214.592C188.588 212.307 188.605 210.021 188.621 207.735C188.63 206.529 188.639 205.322 188.649 204.115C188.78 193.885 188.78 193.885 188.031 183.691C187.976 183.23 187.976 183.23 187.92 182.759C187.202 177.23 185.871 171.835 183.692 166.699C183.602 166.487 183.512 166.274 183.42 166.056C180.717 159.782 176.768 154.215 172.073 149.272C171.387 148.535 171.387 148.535 170.781 147.766C170.257 147.121 169.742 146.638 169.098 146.118C166.612 143.97 164.926 141.532 164.538 138.211C164.467 136.268 164.721 134.785 165.593 133.043C165.874 132.277 165.781 132.018 165.528 131.25C165.283 130.779 165.021 130.316 164.748 129.859C164.51 129.458 164.51 129.458 164.267 129.049C164.097 128.766 163.927 128.484 163.752 128.192C163.577 127.9 163.403 127.607 163.224 127.306C162.167 125.539 161.096 123.782 160.008 122.034C159.48 121.175 158.969 120.306 158.459 119.436C158.293 119.154 158.128 118.871 157.957 118.58C157.631 118.023 157.306 117.465 156.982 116.906C156.519 116.115 156.045 115.333 155.567 114.551C155.417 114.29 155.266 114.03 155.112 113.762C153.812 111.673 152.365 110.826 150.129 109.882C149.683 109.682 149.683 109.682 149.227 109.478C148.66 109.224 148.09 108.973 147.519 108.726C146.91 108.457 146.317 108.173 145.726 107.866C145.063 107.476 145.063 107.476 144.434 107.519C144.162 106.703 144.102 106.201 144.095 105.356C144.092 105.093 144.089 104.831 144.086 104.56C144.084 104.13 144.084 104.13 144.081 103.69C144.078 103.387 144.075 103.084 144.072 102.772C144.063 101.768 144.056 100.765 144.048 99.7615C144.042 99.0665 144.036 98.3715 144.03 97.6765C144.014 95.8458 143.999 94.0151 143.985 92.1844C143.97 90.3169 143.954 88.4494 143.938 86.5819C143.906 82.9166 143.877 79.2512 143.848 75.5859C143.751 75.5859 143.655 75.5859 143.555 75.5859ZM156.446 75.5859C156.445 75.9674 156.444 76.3488 156.443 76.7419C156.432 80.3371 156.415 83.9322 156.392 87.5273C156.38 89.3756 156.371 91.2238 156.366 93.0722C156.362 94.8559 156.352 96.6396 156.338 98.4233C156.334 99.1038 156.331 99.7843 156.331 100.465C156.33 101.418 156.322 102.371 156.313 103.324C156.314 103.606 156.316 103.887 156.317 104.177C156.29 105.897 156.025 106.745 154.981 108.105C155.113 108.882 155.113 108.882 155.567 109.57C155.696 109.802 155.826 110.033 155.959 110.271C156.107 110.512 156.255 110.754 156.408 111.002C156.575 111.275 156.742 111.547 156.914 111.828C157.092 112.116 157.27 112.404 157.453 112.701C157.725 113.146 157.725 113.146 158.003 113.599C158.376 114.207 158.749 114.814 159.123 115.421C159.787 116.501 160.448 117.583 161.108 118.665C161.702 119.638 162.296 120.61 162.891 121.582C166.007 118.665 166.736 112.122 166.966 108.066C166.975 107.789 166.984 107.512 166.993 107.226C167.004 106.913 167.016 106.6 167.028 106.277C167.238 95.4105 162.935 84.3992 156.739 75.5859C156.642 75.5859 156.545 75.5859 156.446 75.5859ZM136.817 127.734C136.826 128.004 136.826 128.004 136.835 128.278C137.008 134.11 136.677 139.637 132.587 144.214C132.143 144.679 131.698 145.143 131.25 145.605C130.918 145.981 130.588 146.36 130.262 146.741C129.68 147.412 129.089 148.066 128.48 148.711C124.835 152.581 121.895 156.829 119.239 161.426C119.128 161.614 119.018 161.802 118.905 161.996C117.166 164.99 115.94 168.107 114.844 171.387C114.774 171.593 114.704 171.799 114.633 172.011C113.798 174.511 113.207 177.034 112.739 179.626C112.693 179.872 112.648 180.118 112.601 180.371C111.62 186.18 111.533 192.033 111.564 197.909C111.568 198.746 111.569 199.584 111.571 200.421C111.599 213.497 111.767 226.573 111.915 239.648C114.11 239.656 116.305 239.661 118.5 239.664C119.247 239.666 119.994 239.668 120.742 239.67C121.814 239.674 122.887 239.676 123.959 239.677C124.295 239.678 124.63 239.68 124.975 239.682C125.441 239.682 125.441 239.682 125.917 239.682C126.191 239.682 126.465 239.683 126.747 239.684C127.486 239.677 127.486 239.677 128.321 239.355C128.703 238.408 128.652 237.424 128.654 236.414C128.656 236.052 128.657 235.689 128.659 235.315C128.659 234.913 128.66 234.512 128.66 234.11C128.661 233.687 128.663 233.263 128.664 232.839C128.668 231.926 128.67 231.013 128.672 230.1C128.675 228.648 128.681 227.196 128.688 225.744C128.706 221.615 128.722 217.485 128.731 213.356C128.737 211.076 128.745 208.796 128.757 206.516C128.763 205.313 128.768 204.11 128.768 202.908C128.782 184.948 133.582 170.848 143.262 155.859C143.406 155.637 143.549 155.415 143.696 155.186C144.119 154.531 144.542 153.877 144.965 153.223C145.097 153.017 145.23 152.812 145.366 152.601C145.951 151.694 146.54 150.793 147.152 149.904C147.343 149.621 147.533 149.339 147.73 149.048C147.977 148.692 147.977 148.692 148.229 148.329C148.626 147.457 148.5 147.108 148.243 146.191C147.96 145.635 147.654 145.09 147.333 144.555C147.143 144.237 146.954 143.919 146.758 143.592C146.551 143.25 146.344 142.908 146.137 142.566C145.925 142.212 145.713 141.858 145.501 141.504C144.855 140.428 144.205 139.354 143.555 138.281C143.362 137.962 143.169 137.642 142.97 137.313C141.948 135.625 140.921 133.94 139.89 132.257C139.488 131.599 139.087 130.939 138.688 130.278C138.473 129.925 138.258 129.571 138.044 129.217C137.867 128.925 137.689 128.632 137.507 128.331C137.376 128.134 137.245 127.937 137.11 127.734C137.013 127.734 136.916 127.734 136.817 127.734Z" fill="black"/>
</svg>
