<svg width="300" height="300" viewBox="0 0 300 300" fill="none" xmlns="http://www.w3.org/2000/svg">
<path d="M188.965 70.0191C189.309 70.2529 189.654 70.4864 189.998 70.7195C192.379 72.3502 194.517 74.1559 196.582 76.1714C196.753 76.3379 196.924 76.5044 197.1 76.676C201.06 80.5501 201.06 80.5501 202.735 82.6167C202.949 82.8781 203.163 83.1394 203.383 83.4087C214.854 97.8326 220.307 116.786 218.262 135.058C216.986 145.372 213.681 155.194 209.473 164.648C209.256 165.141 209.04 165.634 208.824 166.127C206.244 171.973 203.307 177.58 200.098 183.105C199.954 183.354 199.809 183.603 199.661 183.86C194.674 192.44 188.931 200.597 182.478 208.137C181.696 209.052 180.943 209.981 180.213 210.937C179.481 211.893 178.696 212.733 177.832 213.574C177.59 213.864 177.349 214.154 177.1 214.453C176.546 215.117 175.986 215.723 175.373 216.33C174.787 216.911 174.206 217.498 173.624 218.085C173.141 218.571 172.658 219.057 172.174 219.543C171.935 219.785 171.696 220.026 171.449 220.275C170.17 221.56 168.872 222.798 167.497 223.979C166.867 224.522 166.263 225.091 165.656 225.659C160.91 229.918 155.508 233.579 148.884 233.323C142.135 232.821 136.852 227.992 132.192 223.536C131.653 223.021 131.14 222.575 130.537 222.133C130.31 221.957 130.31 221.957 130.078 221.777C130.078 221.584 130.078 221.39 130.078 221.191C129.885 221.191 129.692 221.191 129.492 221.191C129.492 220.998 129.492 220.804 129.492 220.605C129.323 220.534 129.153 220.464 128.978 220.391C128.192 219.947 127.753 219.443 127.167 218.756C126.07 217.503 124.928 216.318 123.743 215.148C122.374 213.792 121.064 212.415 119.824 210.937C119.47 210.524 119.47 210.524 119.109 210.103C111.247 200.919 104.367 191.002 98.4376 180.468C98.2908 180.21 98.144 179.952 97.9927 179.685C85.3162 157.29 77.7096 132.353 84.6681 106.933C84.7321 106.698 84.7961 106.463 84.8621 106.221C86.9909 98.6607 91.0827 91.4951 95.8009 85.2535C95.9297 85.0824 96.0585 84.9114 96.1912 84.7352C100.803 78.6458 106.116 73.3707 112.5 69.1402C112.932 68.8513 112.932 68.8513 113.372 68.5565C121.695 63.2016 131.408 60.3846 141.211 59.4722C141.536 59.4397 141.861 59.4073 142.195 59.3738C158.371 58.0197 175.463 60.4881 188.965 70.0191ZM112.5 76.4644C112.213 76.6906 111.925 76.9168 111.629 77.1499C110.835 77.789 110.054 78.4401 109.277 79.1011C108.925 79.3997 108.925 79.3997 108.565 79.7042C107.319 80.7813 106.195 81.8953 105.135 83.1546C104.747 83.6061 104.345 84.0461 103.935 84.4776C91.5701 97.5123 87.4404 114.652 87.8692 132.08C87.9477 134.389 88.2962 136.611 88.7697 138.867C88.8216 139.137 88.8736 139.407 88.9272 139.686C91.1255 151.03 95.6183 161.981 100.781 172.265C101 172.7 101 172.7 101.222 173.144C106.563 183.729 113.178 193.689 120.816 202.757C121.259 203.284 121.7 203.813 122.139 204.343C123.742 206.266 125.404 208.124 127.114 209.952C127.845 210.734 128.557 211.531 129.269 212.331C130.668 213.888 132.129 215.375 133.612 216.851C133.86 217.1 134.108 217.349 134.363 217.606C138.717 221.953 143.762 226.935 150.256 227.142C155.889 227.022 159.865 223.001 163.765 219.371C164.366 218.813 164.973 218.263 165.587 217.719C165.737 217.585 165.887 217.452 166.041 217.314C166.457 216.945 166.873 216.577 167.29 216.209C167.94 215.693 167.94 215.693 167.871 215.039C168.045 214.963 168.219 214.888 168.399 214.811C169.105 214.418 169.468 214.032 169.977 213.409C170.738 212.506 171.528 211.668 172.376 210.846C173.557 209.678 174.6 208.44 175.637 207.143C176.303 206.329 176.988 205.541 177.686 204.755C179.969 202.175 182.03 199.453 184.067 196.678C184.511 196.076 184.959 195.478 185.41 194.882C201.135 173.998 214.133 146.836 212.036 118.056C210.464 107.047 205.915 96.2728 198.926 87.5972C198.716 87.3317 198.507 87.0662 198.291 86.7927C195.996 83.9295 193.585 81.1193 190.723 78.8082C190.578 78.6893 190.434 78.5704 190.285 78.4479C187.913 76.502 185.497 74.741 182.813 73.2417C182.575 73.1084 182.338 72.975 182.093 72.8376C161.39 61.3366 131.579 61.4049 112.5 76.4644Z" fill="black"/>
<path d="M201.562 130.664C203.202 132.426 202.821 134.813 202.76 137.067C202.357 146.791 196.801 155.088 189.916 161.609C187.011 164.146 183.754 166.14 180.175 167.578C179.911 167.689 179.646 167.799 179.373 167.913C173.579 170.102 167.453 170.112 161.718 167.871C159.944 167.038 158.45 166.203 157.617 164.356C157.206 162.433 157.382 160.681 157.763 158.771C157.843 158.368 157.843 158.368 157.924 157.957C158.464 155.418 159.353 153.175 160.546 150.879C160.648 150.68 160.75 150.481 160.855 150.276C162.243 147.59 163.793 145.227 165.82 142.969C166.091 142.655 166.362 142.342 166.633 142.028C173.752 133.924 190.61 125.136 201.562 130.664Z" fill="black"/>
<path d="M105.451 129.693C105.745 129.695 106.04 129.696 106.343 129.698C116.439 129.854 125.377 134.151 132.642 141.009C138.258 146.903 142.633 154.838 142.452 163.133C142.343 164.607 142.143 165.488 141.044 166.563C137.253 169.469 132.345 170.071 127.735 169.629C126.33 169.437 124.999 169.128 123.633 168.75C123.236 168.652 122.838 168.555 122.44 168.458C118.099 167.349 114.388 165.279 111.036 162.304C110.75 162.057 110.464 161.81 110.169 161.555C104.12 156.239 98.9297 148.391 97.5591 140.332C97.4889 139.173 97.4915 138.014 97.4859 136.853C97.4798 136.541 97.4738 136.23 97.4676 135.909C97.4577 133.916 97.5246 132.269 98.9141 130.719C100.943 129.704 103.227 129.68 105.451 129.693Z" fill="black"/>
<path d="M163.912 197.317C164.426 197.824 164.85 198.315 165.235 198.926C165.034 199.714 165.034 199.714 164.649 200.391C163.799 200.816 163.093 200.685 162.144 200.649C161.735 200.634 161.325 200.62 160.916 200.606C160.589 200.593 160.589 200.593 160.256 200.581C156.16 200.43 152.067 200.357 147.968 200.354C147.742 200.354 147.516 200.353 147.283 200.352C144.902 200.346 142.546 200.39 140.173 200.616C139.34 200.695 138.514 200.733 137.678 200.739C137.292 200.745 137.292 200.745 136.898 200.752C136.231 200.684 136.231 200.684 135.352 200.098C135.133 199.146 135.133 199.146 135.352 198.047C136.128 197.277 137.026 196.795 137.989 196.29C138.236 196.16 138.483 196.03 138.737 195.896C146.226 192.251 157.086 191.874 163.912 197.317Z" fill="black"/>
<path d="M146.485 173.145C146.917 173.284 147.344 173.437 147.767 173.603C149.508 174.25 151.37 174.124 153.088 173.431C154.208 172.986 155.262 172.932 156.446 173.145C157.105 173.712 157.105 173.712 157.325 174.61C157.007 177.394 154.85 179.914 152.82 181.696C151.679 182.494 150.727 182.898 149.322 182.797C146.72 181.88 144.175 178.778 142.969 176.368C142.91 175.754 142.91 175.754 142.896 175.049C142.888 174.817 142.881 174.584 142.873 174.344C142.905 174.142 142.936 173.939 142.969 173.731C144.162 172.936 145.083 172.989 146.485 173.145Z" fill="black"/>
</svg>
