<svg width="300" height="300" viewBox="0 0 300 300" fill="none" xmlns="http://www.w3.org/2000/svg">
<path d="M44.8723 91.0385C45.1805 91.0367 45.4888 91.0349 45.8064 91.0331C46.3149 91.0347 46.3149 91.0347 46.8336 91.0362C47.1949 91.035 47.5563 91.0338 47.9285 91.0326C48.9365 91.0298 49.9444 91.0297 50.9523 91.0307C52.047 91.0311 53.1417 91.0282 54.2364 91.0257C56.4098 91.0212 58.5832 91.02 60.7566 91.0196C63.3589 91.0191 65.9612 91.0152 68.5636 91.0112C74.8535 91.0018 81.1435 90.9984 87.4335 90.9956C90.4078 90.9942 93.3822 90.9921 96.3566 90.9899C106.534 90.9824 116.712 90.9761 126.89 90.9741C127.529 90.9739 128.168 90.9738 128.807 90.9737C129.447 90.9735 130.088 90.9734 130.729 90.9733C132.014 90.973 133.299 90.9728 134.584 90.9725C135.062 90.9724 135.062 90.9724 135.55 90.9723C145.886 90.9702 156.223 90.9608 166.56 90.9472C177.483 90.9328 188.407 90.9247 199.33 90.924C200.529 90.9239 201.727 90.9238 202.925 90.9237C203.368 90.9236 203.368 90.9236 203.82 90.9236C208.574 90.9229 213.329 90.9164 218.084 90.9079C222.86 90.8995 227.636 90.8976 232.413 90.9023C235.252 90.9049 238.092 90.9026 240.931 90.8934C242.827 90.8877 244.722 90.8883 246.617 90.8942C247.698 90.8974 248.779 90.8978 249.86 90.8904C251.023 90.8826 252.186 90.8883 253.349 90.8953C253.686 90.8909 254.023 90.8864 254.37 90.8818C256.224 90.9063 257.299 91.1044 258.633 92.437C259.285 93.2423 259.315 93.7918 259.317 94.8055C259.318 95.0913 259.32 95.3772 259.321 95.6718C259.321 96.1463 259.321 96.1463 259.321 96.6304C259.322 96.9648 259.323 97.2991 259.324 97.6436C259.327 98.5747 259.328 99.5057 259.329 100.437C259.33 101.44 259.333 102.443 259.335 103.446C259.341 105.872 259.344 108.298 259.347 110.723C259.348 111.867 259.35 113.01 259.351 114.153C259.356 117.956 259.36 121.76 259.362 125.563C259.363 126.55 259.364 127.538 259.364 128.525C259.364 128.771 259.364 129.016 259.365 129.269C259.367 133.237 259.374 137.204 259.384 141.172C259.394 145.249 259.399 149.326 259.4 153.403C259.4 155.69 259.403 157.978 259.41 160.265C259.417 162.215 259.419 164.166 259.416 166.116C259.415 167.109 259.416 168.103 259.421 169.096C259.446 174.194 259.348 179.04 256.989 183.691C256.887 183.898 256.786 184.105 256.681 184.318C255.866 185.932 254.92 187.324 253.711 188.672C253.52 188.908 253.328 189.144 253.131 189.387C249.333 193.918 243.694 196.628 237.891 197.461C235.661 197.647 233.423 197.599 231.188 197.575C230.558 197.573 229.928 197.571 229.298 197.57C227.657 197.566 226.016 197.554 224.375 197.541C222.694 197.529 221.013 197.524 219.331 197.518C216.045 197.506 212.759 197.486 209.473 197.461C209.478 197.745 209.482 198.028 209.487 198.321C209.503 199.379 209.513 200.437 209.521 201.495C209.526 201.952 209.532 202.409 209.539 202.866C209.55 203.525 209.555 204.183 209.559 204.842C209.563 205.045 209.568 205.247 209.573 205.456C209.573 206.816 209.317 207.735 208.594 208.887C207.594 209.591 207.017 209.766 205.793 209.766C204.552 209.405 204.117 209.021 203.321 208.008C203.192 207.151 203.148 206.473 203.178 205.622C203.18 205.396 203.182 205.171 203.184 204.938C203.192 204.222 203.21 203.506 203.229 202.789C203.236 202.302 203.243 201.815 203.249 201.327C203.264 200.136 203.293 198.946 203.321 197.754C201.387 197.754 199.453 197.754 197.461 197.754C197.482 198.77 197.482 198.77 197.502 199.807C197.512 200.467 197.519 201.128 197.526 201.788C197.531 202.245 197.539 202.702 197.55 203.159C197.564 203.818 197.571 204.476 197.576 205.135C197.582 205.338 197.588 205.54 197.594 205.749C197.595 207.224 197.204 208.039 196.289 209.18C195.395 209.914 194.516 209.801 193.388 209.729C192.418 209.324 191.835 208.599 191.309 207.715C191.182 206.868 191.135 206.204 191.166 205.364C191.169 205.036 191.169 205.036 191.172 204.702C191.18 204.009 191.199 203.317 191.217 202.624C191.225 202.153 191.231 201.681 191.237 201.209C191.252 200.057 191.281 198.906 191.309 197.754C189.375 197.754 187.442 197.754 185.45 197.754C185.46 198.41 185.47 199.067 185.48 199.743C185.487 200.383 185.493 201.023 185.498 201.663C185.502 202.105 185.508 202.548 185.516 202.991C185.527 203.629 185.531 204.268 185.535 204.906C185.54 205.29 185.545 205.674 185.549 206.069C185.414 207.503 185.014 208.494 183.93 209.454C182.83 209.87 181.853 209.954 180.762 209.473C179.745 208.473 179.344 208.03 179.131 206.601C179.131 206.189 179.139 205.776 179.154 205.364C179.156 205.146 179.158 204.927 179.16 204.702C179.169 204.009 179.187 203.317 179.206 202.624C179.213 202.153 179.22 201.681 179.226 201.209C179.24 200.057 179.269 198.906 179.297 197.754C177.46 197.754 175.623 197.754 173.731 197.754C173.72 198.435 173.709 199.116 173.698 199.817C173.684 200.48 173.669 201.142 173.654 201.804C173.644 202.263 173.636 202.722 173.629 203.181C173.619 203.842 173.604 204.503 173.588 205.164C173.586 205.368 173.584 205.572 173.582 205.782C173.544 207.057 173.327 207.865 172.559 208.887C171.672 209.647 171.042 209.834 169.904 209.747C168.81 209.559 168.25 209.213 167.578 208.301C167.294 207.448 167.244 206.885 167.234 205.996C167.23 205.707 167.226 205.417 167.222 205.119C167.219 204.651 167.219 204.651 167.216 204.173C167.213 203.852 167.211 203.531 167.208 203.2C167.204 202.52 167.201 201.841 167.199 201.161C167.194 200.121 167.181 199.081 167.168 198.041C167.165 197.381 167.163 196.721 167.161 196.061C167.156 195.75 167.15 195.438 167.145 195.117C167.146 194.681 167.146 194.682 167.148 194.237C167.145 193.855 167.145 193.855 167.143 193.465C167.345 192.484 167.651 192.2 168.457 191.602C169.343 191.426 170.217 191.444 171.118 191.453C171.39 191.452 171.662 191.45 171.942 191.448C172.856 191.443 173.77 191.447 174.684 191.451C175.338 191.449 175.993 191.447 176.647 191.445C178.058 191.44 179.47 191.439 180.881 191.441C183.114 191.444 185.348 191.439 187.581 191.433C190.716 191.425 193.85 191.421 196.984 191.42C197.183 191.42 197.382 191.42 197.587 191.42C197.786 191.42 197.985 191.42 198.19 191.42C201.006 191.419 203.822 191.417 206.638 191.414C206.836 191.413 207.034 191.413 207.238 191.413C210.545 191.409 213.852 191.402 217.16 191.395C219.377 191.39 221.595 191.388 223.812 191.389C225.197 191.39 226.582 191.387 227.966 191.385C228.605 191.384 229.244 191.384 229.883 191.385C236.565 191.398 242.781 190.97 247.907 186.145C251.515 182.361 252.887 177.802 252.866 172.674C252.866 172.262 252.866 172.262 252.866 171.841C252.866 170.94 252.863 170.038 252.861 169.136C252.86 168.508 252.86 167.88 252.86 167.253C252.859 165.605 252.856 163.957 252.852 162.31C252.849 160.627 252.848 158.944 252.847 157.261C252.843 153.962 252.838 150.662 252.832 147.363C252.592 147.566 252.352 147.769 252.104 147.977C251.786 148.245 251.467 148.513 251.148 148.781C250.99 148.914 250.832 149.048 250.669 149.185C247.87 151.531 244.647 152.937 241.114 153.809C240.817 153.886 240.817 153.886 240.514 153.965C239.244 154.165 237.988 154.142 236.704 154.14C236.254 154.141 236.253 154.141 235.794 154.142C234.78 154.144 233.766 154.143 232.753 154.143C232.021 154.143 231.29 154.144 230.559 154.145C228.755 154.147 226.951 154.148 225.148 154.148C222.987 154.149 220.827 154.151 218.667 154.153C213.445 154.157 208.223 154.159 203.002 154.16C200.531 154.161 198.06 154.162 195.589 154.163C187.13 154.167 178.671 154.17 170.212 154.171C169.681 154.171 169.15 154.171 168.619 154.171C168.086 154.171 167.554 154.171 167.022 154.172C165.954 154.172 164.886 154.172 163.818 154.172C163.42 154.172 163.42 154.172 163.015 154.172C154.433 154.173 145.85 154.178 137.267 154.185C128.192 154.192 119.116 154.196 110.041 154.196C109.044 154.196 108.047 154.196 107.05 154.196C106.805 154.196 106.56 154.196 106.307 154.196C102.361 154.197 98.4147 154.2 94.4688 154.204C90.5001 154.208 86.5315 154.209 82.5628 154.207C80.2068 154.206 77.8509 154.207 75.4949 154.211C73.7328 154.215 71.9707 154.213 70.2087 154.21C69.4979 154.21 68.7871 154.21 68.0764 154.213C59.7636 154.241 53.9198 152.75 47.4612 147.363C47.4339 150.949 47.4132 154.535 47.4005 158.122C47.3944 159.787 47.3862 161.453 47.3728 163.118C47.36 164.729 47.3531 166.34 47.35 167.951C47.3479 168.562 47.3437 169.173 47.3373 169.784C47.2753 175.97 48.0707 181.551 52.547 186.225C57.2992 190.457 62.8393 191.391 69.0213 191.398C69.7702 191.399 70.519 191.404 71.2678 191.41C73.394 191.426 75.5202 191.435 77.6464 191.442C78.9537 191.447 80.2608 191.456 81.5679 191.467C82.0641 191.47 82.5603 191.472 83.0565 191.472C83.7478 191.472 84.4388 191.478 85.13 191.484C85.334 191.483 85.5379 191.481 85.748 191.48C86.6303 191.493 87.2315 191.561 88.0085 191.993C88.8099 192.827 88.8082 193.654 88.817 194.754C88.8198 195.036 88.8227 195.319 88.8256 195.61C88.8274 196.067 88.8274 196.067 88.8293 196.534C88.831 196.848 88.8327 197.162 88.8344 197.485C88.8372 198.15 88.8391 198.814 88.8402 199.479C88.843 200.494 88.8521 201.51 88.8614 202.526C88.8633 203.172 88.8648 203.817 88.866 204.462C88.8696 204.766 88.8732 205.07 88.8769 205.383C88.8687 208.025 88.8687 208.025 87.8909 209.18C87.0552 209.754 86.4203 209.849 85.419 209.766C85.2018 209.754 84.9847 209.741 84.761 209.729C83.7415 209.344 83.1566 208.633 82.6175 207.715C82.4911 206.848 82.4442 206.16 82.4744 205.3C82.4775 204.962 82.4775 204.962 82.4807 204.618C82.4889 203.904 82.5072 203.191 82.5259 202.478C82.5333 201.992 82.54 201.506 82.546 201.02C82.562 199.833 82.5873 198.647 82.6175 197.461C82.3753 197.464 82.1331 197.466 81.8836 197.469C79.5785 197.492 77.2736 197.51 74.9685 197.522C73.7839 197.528 72.5995 197.536 71.4151 197.549C70.2677 197.562 69.1204 197.569 67.973 197.572C67.5396 197.574 67.1063 197.578 66.6729 197.585C59.8816 197.681 53.6628 195.637 48.6842 190.897C44.664 186.923 41.2864 181.162 40.9782 175.365C40.9777 175.115 40.9771 174.866 40.9766 174.609C40.9753 174.319 40.974 174.029 40.9726 173.731C40.9727 173.415 40.9727 173.099 40.9728 172.773C40.9717 172.436 40.9706 172.099 40.9695 171.751C40.9669 170.816 40.9655 169.881 40.9647 168.945C40.9636 167.936 40.9608 166.927 40.9582 165.918C40.9524 163.482 40.9495 161.046 40.9469 158.611C40.9456 157.463 40.944 156.316 40.9425 155.169C40.9375 151.356 40.9333 147.542 40.9311 143.729C40.9306 142.74 40.93 141.751 40.9294 140.762C40.9293 140.517 40.9292 140.271 40.929 140.018C40.9266 136.033 40.9192 132.048 40.9096 128.063C40.9 123.972 40.8947 119.881 40.8937 115.79C40.8931 113.493 40.8905 111.195 40.8831 108.898C40.8767 106.943 40.8743 104.988 40.8772 103.032C40.8785 102.035 40.878 101.037 40.8723 100.039C40.8671 98.9578 40.8692 97.8765 40.873 96.795C40.8698 96.4797 40.8666 96.1643 40.8633 95.8394C40.8785 94.0826 40.9775 93.015 42.1878 91.6992C43.102 91.1279 43.8029 91.0397 44.8723 91.0385ZM47.1683 96.9726C47.1408 101.954 47.1202 106.936 47.1075 111.917C47.1015 114.23 47.0933 116.544 47.0799 118.857C47.0681 120.874 47.0606 122.892 47.058 124.91C47.0565 125.977 47.0529 127.044 47.0444 128.111C47.0348 129.306 47.0347 130.501 47.0352 131.695C47.031 132.044 47.0268 132.393 47.0225 132.753C47.0402 136.4 48.0764 139.274 50.3909 142.09C50.643 142.397 50.643 142.397 50.9002 142.71C53.4947 145.566 57.2156 147.435 61.0674 147.707C63.2367 147.793 65.4075 147.776 67.578 147.77C68.3203 147.771 69.0626 147.773 69.8049 147.775C71.416 147.778 73.0271 147.779 74.6382 147.777C77.034 147.774 79.4298 147.776 81.8256 147.78C86.1051 147.786 90.3847 147.786 94.6643 147.785C98.4096 147.783 102.155 147.784 105.9 147.785C106.403 147.785 106.906 147.786 107.408 147.786C108.166 147.786 108.923 147.787 109.681 147.787C116.722 147.79 123.763 147.791 130.805 147.789C131.07 147.789 131.335 147.789 131.609 147.789C133.763 147.788 135.918 147.787 138.072 147.787C146.477 147.784 154.882 147.786 163.286 147.793C172.732 147.801 182.179 147.804 191.625 147.802C192.632 147.802 193.64 147.802 194.647 147.802C194.895 147.802 195.143 147.802 195.399 147.801C199.141 147.801 202.883 147.803 206.626 147.807C210.882 147.811 215.139 147.812 219.395 147.806C221.776 147.804 224.157 147.804 226.538 147.809C228.317 147.813 230.096 147.81 231.875 147.805C232.593 147.804 233.312 147.805 234.031 147.808C240.108 147.832 244.621 147.128 249.222 142.817C252.208 139.629 253.309 136.049 253.263 131.76C253.264 131.386 253.264 131.012 253.265 130.626C253.266 129.61 253.261 128.594 253.254 127.578C253.247 126.511 253.248 125.445 253.247 124.379C253.245 122.593 253.239 120.807 253.23 119.02C253.218 116.725 253.213 114.43 253.21 112.135C253.208 110.16 253.203 108.185 253.197 106.21C253.196 105.787 253.195 105.363 253.194 104.939C253.19 103.55 253.184 102.16 253.177 100.771C253.176 100.242 253.176 100.242 253.175 99.7018C253.172 99.2238 253.172 99.2238 253.168 98.7362C253.167 98.4576 253.166 98.179 253.165 97.892C253.195 97.2706 253.195 97.2706 252.832 96.9726C252.301 96.9441 251.768 96.9364 251.236 96.9366C250.887 96.936 250.539 96.9354 250.18 96.9348C249.788 96.9356 249.396 96.9365 249.004 96.9374C248.592 96.9373 248.18 96.937 247.767 96.9366C246.629 96.936 245.491 96.9372 244.352 96.9386C243.127 96.9399 241.901 96.9395 240.675 96.9392C238.55 96.9391 236.425 96.94 234.3 96.9417C231.227 96.944 228.154 96.9448 225.082 96.9452C220.097 96.9458 215.112 96.9478 210.127 96.9505C205.284 96.9532 200.44 96.9553 195.597 96.9565C195.298 96.9566 195 96.9567 194.693 96.9568C193.196 96.9572 191.7 96.9575 190.203 96.9579C177.779 96.9609 165.354 96.9661 152.93 96.9726C153.211 97.349 153.492 97.7251 153.773 98.1012C154.008 98.4155 154.008 98.4155 154.248 98.7361C154.725 99.3657 155.226 99.9723 155.731 100.58C157.244 102.534 158.053 104.711 158.841 107.03C160.098 110.724 161.684 113.901 164.96 116.199C165.259 116.414 165.559 116.629 165.868 116.851C169.586 119.064 173.415 118.813 177.607 118.789C178.327 118.789 179.047 118.79 179.767 118.791C181.311 118.793 182.855 118.791 184.399 118.786C186.633 118.779 188.868 118.78 191.102 118.783C194.73 118.788 198.357 118.788 201.985 118.785C202.31 118.785 202.31 118.785 202.642 118.785C205.062 118.783 207.482 118.78 209.902 118.777C210.782 118.776 211.661 118.775 212.54 118.774C212.757 118.774 212.975 118.773 213.198 118.773C216.816 118.769 220.433 118.771 224.051 118.776C226.28 118.78 228.509 118.778 230.739 118.77C232.444 118.764 234.15 118.766 235.856 118.77C236.556 118.77 237.256 118.768 237.956 118.764C238.91 118.758 239.863 118.761 240.817 118.766C241.096 118.762 241.374 118.758 241.661 118.754C242.989 118.771 243.565 118.803 244.648 119.635C245.312 120.543 245.508 121.043 245.508 122.168C245.06 123.332 244.797 123.814 243.75 124.512C241.98 124.819 240.243 124.845 238.45 124.837C238.16 124.837 237.87 124.836 237.571 124.836C236.604 124.836 235.637 124.833 234.67 124.83C233.975 124.829 233.28 124.828 232.585 124.827C230.503 124.824 228.421 124.818 226.339 124.812C225.356 124.809 224.373 124.807 223.391 124.804C220.12 124.796 216.85 124.786 213.58 124.775C212.733 124.772 211.886 124.769 211.039 124.766C210.828 124.765 210.618 124.764 210.401 124.764C206.993 124.752 203.585 124.745 200.177 124.74C196.671 124.736 193.165 124.726 189.659 124.713C187.693 124.705 185.727 124.7 183.762 124.699C181.911 124.698 180.061 124.691 178.211 124.681C177.534 124.678 176.858 124.677 176.181 124.678C169.431 124.687 163.93 123.339 158.926 118.513C156.266 115.746 154.736 112.22 153.445 108.662C151.758 104.016 149.256 100.193 144.753 97.8538C143.146 97.1119 141.567 96.9359 139.815 96.9366C139.316 96.9357 139.316 96.9357 138.808 96.9348C138.265 96.9361 138.265 96.9361 137.711 96.9374C137.321 96.9373 136.93 96.937 136.54 96.9366C135.468 96.936 134.396 96.9372 133.325 96.9386C132.168 96.9399 131.012 96.9395 129.856 96.9392C127.853 96.9391 125.85 96.94 123.848 96.9417C120.952 96.944 118.056 96.9448 115.161 96.9452C110.463 96.9458 105.765 96.9478 101.067 96.9505C96.5034 96.9532 91.9399 96.9553 87.3764 96.9565C87.095 96.9566 86.8137 96.9567 86.5239 96.9568C85.1126 96.9572 83.7013 96.9575 82.29 96.9579C70.5827 96.9609 58.8755 96.9661 47.1683 96.9726Z" fill="black"/>
<path d="M61.6087 173.985C61.8672 173.985 62.1257 173.984 62.3921 173.983C62.8193 173.983 62.8193 173.983 63.2552 173.984C63.7101 173.983 63.7101 173.983 64.1741 173.982C65.2002 173.98 66.2264 173.98 67.2525 173.98C67.9916 173.979 68.7307 173.978 69.4697 173.977C71.2944 173.974 73.1191 173.973 74.9438 173.972C77.1286 173.971 79.3133 173.969 81.498 173.966C86.7788 173.96 92.0596 173.957 97.3403 173.955C99.8375 173.953 102.335 173.952 104.832 173.95C113.376 173.945 121.921 173.941 130.465 173.938C131.002 173.938 131.538 173.938 132.075 173.938C132.341 173.938 132.607 173.938 132.881 173.938C134.229 173.937 135.577 173.937 136.925 173.937C137.327 173.937 137.327 173.937 137.736 173.937C146.414 173.934 155.092 173.927 163.77 173.918C172.941 173.908 182.112 173.902 191.282 173.901C192.288 173.901 193.295 173.901 194.301 173.901C194.548 173.901 194.796 173.901 195.051 173.901C199.043 173.9 203.035 173.895 207.027 173.889C211.037 173.883 215.047 173.882 219.057 173.885C221.441 173.886 223.825 173.884 226.209 173.878C227.986 173.873 229.764 173.875 231.542 173.879C232.263 173.88 232.984 173.879 233.705 173.875C234.682 173.871 235.658 173.874 236.635 173.878C236.918 173.875 237.2 173.872 237.492 173.869C239.178 173.887 240.117 174.081 241.407 175.195C241.971 176.103 241.994 176.611 241.956 177.685C241.671 178.824 241.365 179.361 240.528 180.176C239.156 180.928 237.792 180.843 236.27 180.834C235.986 180.835 235.702 180.836 235.409 180.837C234.452 180.839 233.494 180.836 232.536 180.834C231.845 180.834 231.153 180.835 230.462 180.836C228.955 180.838 227.449 180.837 225.942 180.835C223.702 180.832 221.461 180.833 219.221 180.834C215.449 180.836 211.678 180.835 207.906 180.832C204.165 180.83 200.424 180.828 196.682 180.829C196.449 180.829 196.216 180.829 195.977 180.829C195.031 180.829 194.086 180.829 193.141 180.829C184.266 180.829 175.391 180.826 166.516 180.821C158.649 180.817 150.781 180.816 142.914 180.816C142.41 180.816 141.906 180.816 141.402 180.816C141.028 180.816 141.028 180.816 140.647 180.816C139.392 180.816 138.138 180.816 136.883 180.816C136.512 180.816 136.512 180.816 136.133 180.816C129.547 180.816 122.961 180.815 116.376 180.813C116.141 180.813 115.906 180.813 115.664 180.813C114.72 180.812 113.776 180.812 112.832 180.812C109.563 180.811 106.295 180.811 103.027 180.81C98.806 180.81 94.585 180.809 90.364 180.806C88.3318 180.805 86.2995 180.804 84.2673 180.804C79.8058 180.805 75.3445 180.797 70.883 180.767C70.0476 180.762 69.2121 180.758 68.3766 180.754C67.1682 180.748 65.96 180.735 64.7518 180.714C64.3327 180.707 63.9135 180.703 63.4944 180.702C60.1063 180.687 60.1063 180.687 58.9451 179.758C58.056 178.717 57.8914 178.075 57.904 176.691C58.09 175.589 58.675 175.077 59.473 174.316C60.2867 174.045 60.7692 173.986 61.6087 173.985Z" fill="black"/>
<path d="M97.5243 191.488C97.923 191.486 97.923 191.486 98.3297 191.483C99.2221 191.479 100.114 191.481 101.007 191.483C101.646 191.482 102.285 191.48 102.924 191.477C104.661 191.472 106.398 191.472 108.136 191.474C109.585 191.475 111.033 191.473 112.482 191.471C116.095 191.467 119.708 191.468 123.32 191.472C126.263 191.474 129.206 191.472 132.149 191.465C135.567 191.457 138.984 191.454 142.401 191.456C144.21 191.457 146.019 191.456 147.828 191.451C149.529 191.446 151.229 191.447 152.93 191.453C153.555 191.454 154.18 191.453 154.805 191.45C155.656 191.446 156.508 191.45 157.359 191.455C157.732 191.451 157.732 191.451 158.113 191.446C159.19 191.46 159.822 191.495 160.691 192.16C161.356 193.084 161.464 193.596 161.473 194.721C161.476 195.003 161.479 195.286 161.482 195.577C161.484 196.037 161.484 196.037 161.486 196.505C161.487 196.82 161.489 197.134 161.491 197.458C161.493 198.124 161.495 198.79 161.496 199.457C161.499 200.475 161.508 201.493 161.518 202.512C161.52 203.159 161.521 203.805 161.522 204.452C161.526 204.757 161.529 205.061 161.533 205.375C161.525 208.026 161.525 208.026 160.547 209.18C159.711 209.754 159.077 209.849 158.075 209.766C157.858 209.754 157.641 209.742 157.417 209.729C156.398 209.344 155.813 208.634 155.274 207.715C155.148 206.849 155.1 206.159 155.131 205.3C155.132 205.1 155.134 204.901 155.135 204.695C155.143 203.956 155.163 203.217 155.182 202.478C155.227 199.995 155.227 199.995 155.274 197.461C151.697 197.461 148.119 197.461 144.434 197.461C144.469 200.673 144.469 200.673 144.513 203.885C144.516 204.29 144.518 204.695 144.52 205.1C144.526 205.411 144.526 205.411 144.533 205.729C144.534 207.036 144.351 207.844 143.555 208.887C142.687 209.631 142.038 209.841 140.918 209.784C139.952 209.708 139.697 209.424 138.985 208.724C138.136 207.672 138.091 206.679 138.138 205.364C138.142 205.036 138.142 205.036 138.145 204.702C138.153 204.009 138.171 203.317 138.19 202.625C138.197 202.153 138.204 201.681 138.21 201.209C138.225 200.057 138.253 198.906 138.282 197.754C136.348 197.754 134.414 197.754 132.422 197.754C132.448 198.802 132.448 198.802 132.474 199.871C132.485 200.552 132.494 201.232 132.503 201.913C132.51 202.384 132.52 202.856 132.533 203.327C132.551 204.006 132.559 204.685 132.565 205.364C132.573 205.573 132.58 205.782 132.588 205.997C132.589 207.139 132.425 207.849 131.718 208.723C130.813 209.615 130.414 209.769 129.198 209.836C128.19 209.715 127.602 209.251 126.856 208.594C126.123 207.532 126.194 206.434 126.213 205.193C126.213 204.98 126.214 204.767 126.215 204.547C126.218 203.87 126.226 203.192 126.233 202.515C126.236 202.054 126.239 201.594 126.241 201.133C126.247 200.007 126.259 198.881 126.27 197.754C124.24 197.754 122.209 197.754 120.117 197.754C120.133 198.739 120.133 198.739 120.148 199.743C120.155 200.383 120.161 201.023 120.166 201.663C120.17 202.106 120.176 202.548 120.184 202.991C120.195 203.63 120.199 204.268 120.203 204.907C120.208 205.29 120.212 205.674 120.217 206.069C120.109 207.215 119.839 207.911 119.239 208.887C118.419 209.551 117.927 209.75 116.876 209.857C116.009 209.765 115.546 209.688 114.844 209.18C113.922 207.963 113.828 206.872 113.815 205.393C113.81 205.174 113.805 204.955 113.799 204.729C113.783 204.034 113.774 203.338 113.764 202.643C113.754 202.17 113.744 201.696 113.733 201.223C113.708 200.067 113.69 198.911 113.672 197.754C110.578 197.754 107.485 197.754 104.297 197.754C104.314 198.453 104.331 199.151 104.349 199.871C104.36 200.552 104.369 201.232 104.378 201.913C104.385 202.384 104.395 202.856 104.408 203.327C104.426 204.006 104.434 204.685 104.44 205.364C104.448 205.573 104.455 205.782 104.463 205.997C104.464 207.139 104.3 207.849 103.593 208.723C102.688 209.615 102.289 209.769 101.073 209.836C100.065 209.715 99.4767 209.251 98.7307 208.594C97.9981 207.532 98.0693 206.434 98.0876 205.193C98.0884 204.98 98.0892 204.767 98.0901 204.547C98.0934 203.87 98.1007 203.192 98.1082 202.515C98.1111 202.054 98.1138 201.594 98.1162 201.133C98.1226 200.007 98.1328 198.88 98.1448 197.754C97.5619 197.762 96.9789 197.769 96.396 197.777C95.6012 197.746 95.0285 197.555 94.3362 197.168C93.644 196.13 93.6543 195.617 93.6404 194.385C93.6321 194.049 93.6238 193.714 93.6152 193.369C93.7503 192.481 93.7503 192.481 94.182 191.993C95.268 191.419 96.3253 191.48 97.5243 191.488Z" fill="black"/>
<path d="M61.6778 118.541C62.1382 118.539 62.1382 118.539 62.608 118.537C63.6347 118.533 64.6613 118.536 65.6881 118.539C66.4249 118.537 67.1617 118.536 67.8985 118.534C69.6908 118.53 71.483 118.531 73.2753 118.533C74.7318 118.535 76.1884 118.536 77.6449 118.535C77.8524 118.535 78.0598 118.534 78.2735 118.534C78.695 118.534 79.1164 118.534 79.5379 118.533C83.4874 118.531 87.4369 118.534 91.3864 118.538C94.7751 118.542 98.1637 118.542 101.552 118.538C105.489 118.533 109.425 118.531 113.362 118.534C113.782 118.534 114.201 118.534 114.621 118.535C114.827 118.535 115.034 118.535 115.247 118.535C116.702 118.536 118.157 118.535 119.612 118.532C121.57 118.53 123.528 118.532 125.485 118.537C126.205 118.538 126.924 118.538 127.644 118.536C128.624 118.533 129.604 118.536 130.584 118.541C131.013 118.538 131.013 118.538 131.451 118.535C132.902 118.547 133.875 118.596 135.059 119.531C135.312 119.712 135.312 119.712 135.571 119.897C136.167 120.731 136.196 121.45 136.23 122.461C135.888 123.451 135.578 124.029 134.775 124.702C133.47 125.284 132.264 125.219 130.851 125.209C130.388 125.211 130.388 125.211 129.915 125.213C128.878 125.217 127.842 125.214 126.805 125.211C126.063 125.213 125.32 125.214 124.578 125.216C122.769 125.22 120.961 125.219 119.152 125.216C117.683 125.215 116.213 125.214 114.743 125.215C114.43 125.215 114.43 125.215 114.11 125.216C113.685 125.216 113.26 125.216 112.835 125.216C108.85 125.219 104.866 125.216 100.882 125.211C97.4625 125.207 94.0436 125.208 90.6246 125.212C86.6544 125.217 82.6843 125.219 78.7141 125.216C78.2908 125.216 77.8674 125.215 77.4441 125.215C77.2358 125.215 77.0275 125.215 76.8129 125.215C75.345 125.214 73.877 125.215 72.4091 125.217C70.4334 125.22 68.4578 125.218 66.4821 125.213C65.7561 125.212 65.0301 125.212 64.3041 125.214C63.3149 125.217 62.3258 125.214 61.3366 125.209C60.9033 125.212 60.9033 125.212 60.4613 125.215C59.0047 125.203 58.0242 125.158 56.8359 124.219C56.6667 124.104 56.4975 123.989 56.3232 123.871C55.7174 122.992 55.6355 122.036 55.664 120.996C56.0509 119.908 56.3975 119.61 57.4122 119.059C58.8122 118.49 60.1857 118.53 61.6778 118.541Z" fill="black"/>
</svg>
