<svg width="300" height="300" viewBox="0 0 300 300" fill="none" xmlns="http://www.w3.org/2000/svg">
<path d="M169.263 105.561C171.322 107.038 173.537 108.762 175.088 110.779C176.085 111.569 177.028 111.489 178.246 111.473C178.623 111.475 178.623 111.475 179.007 111.477C179.849 111.48 180.692 111.475 181.534 111.47C182.138 111.47 182.741 111.472 183.345 111.473C184.645 111.476 185.945 111.475 187.246 111.471C189.301 111.465 191.357 111.468 193.413 111.472C198.149 111.481 202.884 111.477 207.62 111.474C211.959 111.471 216.297 111.471 220.635 111.48C222.679 111.484 224.723 111.482 226.767 111.476C228.038 111.473 229.31 111.476 230.581 111.479C231.171 111.48 231.761 111.478 232.351 111.475C233.156 111.47 233.961 111.473 234.766 111.477C234.999 111.474 235.233 111.471 235.473 111.468C236.986 111.486 237.902 111.738 239.063 112.793C239.843 114.189 240.052 115.321 240.051 116.906C240.053 117.103 240.054 117.3 240.055 117.503C240.058 118.158 240.054 118.813 240.051 119.468C240.052 119.94 240.053 120.411 240.054 120.883C240.057 122.161 240.054 123.439 240.05 124.717C240.047 126.057 240.048 127.397 240.049 128.737C240.049 130.988 240.046 133.24 240.04 135.491C240.034 138.088 240.033 140.686 240.035 143.284C240.036 145.788 240.035 148.291 240.032 150.795C240.03 151.858 240.03 152.921 240.031 153.985C240.031 155.239 240.029 156.493 240.024 157.747C240.023 158.205 240.023 158.664 240.023 159.122C240.032 164.608 239.093 167.971 235.254 171.973C234.847 172.413 234.442 172.855 234.037 173.297C228.281 179.575 228.281 179.575 225.494 182.309C224.966 182.848 224.481 183.41 223.993 183.985C221.719 186.606 219.72 188.211 216.211 188.672C215.27 188.714 214.329 188.714 213.387 188.713C213.104 188.714 212.822 188.715 212.53 188.716C211.585 188.719 210.639 188.719 209.693 188.719C209.014 188.721 208.336 188.722 207.657 188.724C205.814 188.728 203.972 188.73 202.129 188.731C200.979 188.732 199.828 188.733 198.677 188.734C195.489 188.738 192.301 188.741 189.113 188.742C188.91 188.742 188.706 188.742 188.496 188.742C188.292 188.742 188.087 188.742 187.877 188.742C187.463 188.742 187.049 188.742 186.635 188.743C186.327 188.743 186.327 188.743 186.013 188.743C182.684 188.744 179.355 188.749 176.025 188.756C172.605 188.763 169.186 188.766 165.766 188.767C163.846 188.767 161.927 188.769 160.007 188.774C158.203 188.779 156.398 188.78 154.594 188.777C153.931 188.777 153.269 188.778 152.606 188.781C151.702 188.785 150.799 188.783 149.895 188.78C149.632 188.782 149.37 188.785 149.099 188.787C147.618 188.775 146.597 188.616 145.313 187.793C144.613 186.871 144.588 185.994 144.727 184.864C145.254 184.073 145.63 183.533 146.485 183.106C147.396 183.077 148.301 183.066 149.213 183.067C149.499 183.067 149.785 183.066 150.08 183.065C151.046 183.064 152.012 183.064 152.978 183.064C153.668 183.063 154.358 183.062 155.048 183.061C156.537 183.059 158.026 183.057 159.514 183.056C161.868 183.055 164.222 183.05 166.575 183.044C167.38 183.042 168.185 183.041 168.99 183.039C169.292 183.038 169.292 183.038 169.6 183.037C171.891 183.032 174.182 183.027 176.473 183.023C176.787 183.022 176.787 183.022 177.108 183.022C180.502 183.015 183.895 183.012 187.289 183.01C190.772 183.008 194.256 183.001 197.739 182.99C199.695 182.984 201.651 182.981 203.608 182.982C205.448 182.983 207.288 182.979 209.128 182.971C209.804 182.969 210.479 182.969 211.155 182.971C212.077 182.974 212.999 182.969 213.92 182.963C214.188 182.965 214.457 182.968 214.733 182.97C216.665 182.946 217.712 182.427 219.143 181.093C219.313 180.907 219.484 180.721 219.659 180.53C219.852 180.322 220.044 180.115 220.243 179.901C220.54 179.575 220.54 179.575 220.844 179.242C221.26 178.793 221.677 178.343 222.094 177.894C222.292 177.68 222.49 177.466 222.695 177.245C223.356 176.539 224.036 175.855 224.726 175.177C225.669 174.249 226.538 173.279 227.399 172.275C227.992 171.611 228.615 170.987 229.248 170.362C232.166 167.558 232.166 167.558 234.082 164.063C234.082 159.519 234.082 154.975 234.082 150.293C178.492 150.293 122.901 150.293 65.6253 150.293C65.6253 159.29 66.8938 166.388 72.6566 173.438C72.8397 173.669 73.0229 173.901 73.2116 174.139C77.5567 179.363 84.1488 182.363 90.8206 183.106C91.9594 183.164 93.0945 183.214 94.2344 183.241C95.3767 183.425 95.8633 183.767 96.68 184.571C97.2121 185.635 97.0694 186.611 96.7166 187.72C95.6839 188.814 94.6352 188.896 93.1644 188.965C84.2569 188.777 75.7943 185.019 69.608 178.632C63.5107 172.012 59.581 163.137 59.7224 154.044C59.9654 149.459 61.0443 145.1 62.952 140.932C63.0649 140.683 63.1779 140.435 63.2943 140.178C64.7066 137.101 66.225 134.075 67.7458 131.051C68.2433 130.061 68.7389 129.07 69.2342 128.08C77.0336 112.506 77.0336 112.506 79.6878 111.621C80.1775 111.594 80.6682 111.583 81.1586 111.582C81.4643 111.58 81.77 111.579 82.0849 111.577C82.4219 111.577 82.7588 111.577 83.106 111.577C83.463 111.576 83.8201 111.575 84.1879 111.573C85.1808 111.57 86.1737 111.568 87.1665 111.567C88.2365 111.565 89.3066 111.562 90.3766 111.559C92.2311 111.553 94.0857 111.549 95.9403 111.545C98.622 111.54 101.304 111.533 103.985 111.525C108.336 111.512 112.688 111.501 117.039 111.49C117.299 111.49 117.56 111.489 117.828 111.488C119.942 111.483 122.057 111.478 124.171 111.473C126.02 111.469 127.869 111.464 129.718 111.46C129.978 111.459 130.239 111.458 130.507 111.458C134.842 111.447 139.178 111.435 143.513 111.423C146.189 111.415 148.866 111.409 151.542 111.403C153.374 111.4 155.206 111.395 157.038 111.389C158.097 111.386 159.156 111.384 160.214 111.382C161.359 111.381 162.504 111.377 163.649 111.373C163.987 111.373 164.325 111.373 164.674 111.373C164.978 111.371 165.282 111.37 165.595 111.368C165.992 111.367 165.992 111.367 166.397 111.366C166.991 111.394 166.991 111.394 167.285 111.035C164.759 109.336 162.348 107.844 159.417 106.953C158.471 106.648 157.966 106.417 157.338 105.632C156.906 104.578 157.028 103.921 157.325 102.832C160.164 99.1116 166.418 103.662 169.263 105.561ZM79.9808 119.239C79.8347 119.51 79.6887 119.782 79.5382 120.062C79.4173 120.309 79.2963 120.556 79.1717 120.81C78.9636 121.231 78.9636 121.231 78.7513 121.661C78.6072 121.955 78.463 122.25 78.3145 122.553C77.2511 124.702 76.179 126.843 75.0552 128.962C74.8198 129.407 74.5845 129.852 74.3491 130.297C74.223 130.536 74.0968 130.774 73.9668 131.02C73.8244 131.289 73.6821 131.559 73.5355 131.836C73.3618 132.165 73.1881 132.493 73.0092 132.832C72.5226 133.754 72.0388 134.677 71.5562 135.601C71.3662 135.964 71.1755 136.327 70.984 136.689C69.5905 139.323 68.4981 141.939 67.3831 144.727C122.491 144.727 177.598 144.727 234.375 144.727C235.354 130.672 235.354 130.672 234.082 116.895C219.551 116.855 205.02 116.817 190.489 116.796C190.274 116.795 190.059 116.795 189.837 116.795C185.165 116.788 180.494 116.781 175.822 116.775C173.531 116.772 171.24 116.769 168.949 116.766C168.721 116.766 168.493 116.766 168.259 116.765C160.866 116.755 153.473 116.738 146.08 116.716C138.484 116.694 130.889 116.68 123.293 116.675C122.221 116.674 121.149 116.673 120.077 116.673C119.866 116.672 119.655 116.672 119.437 116.672C116.037 116.669 112.636 116.658 109.236 116.644C105.819 116.631 102.403 116.626 98.9866 116.629C97.1345 116.63 95.2826 116.628 93.4306 116.615C91.7366 116.604 90.043 116.603 88.3491 116.612C87.7347 116.613 87.1203 116.609 86.506 116.602C85.6735 116.593 84.8422 116.598 84.0097 116.606C83.6481 116.597 83.6481 116.597 83.2792 116.588C81.3146 116.634 80.7796 117.536 79.9808 119.239Z" fill="black"/>
<path d="M140.918 171.093C141.504 171.551 141.504 171.551 141.796 172.265C142.012 174.495 140.999 175.755 139.641 177.408C139.191 177.943 138.737 178.474 138.281 179.004C137.998 179.339 137.715 179.675 137.433 180.011C136.893 180.653 136.349 181.292 135.804 181.93C135.156 182.696 134.526 183.471 133.905 184.259C132.951 185.463 131.96 186.63 130.957 187.793C129.783 189.153 128.637 190.528 127.522 191.938C126.596 193.097 125.655 194.245 124.713 195.391C124.534 195.61 124.354 195.829 124.17 196.054C124 196.261 123.83 196.468 123.654 196.681C123.502 196.867 123.35 197.052 123.193 197.243C123.048 197.412 122.903 197.58 122.754 197.754C122.543 198 122.543 198 122.329 198.251C121.654 198.818 120.971 198.788 120.118 198.754C119.089 198.541 118.661 197.998 118.066 197.168C117.755 196.307 117.755 196.307 117.773 195.41C118.548 194.116 119.48 192.977 120.465 191.839C120.752 191.503 121.039 191.167 121.326 190.831C121.468 190.665 121.611 190.499 121.757 190.327C122.792 189.108 123.795 187.862 124.804 186.621C125.244 186.083 125.683 185.546 126.123 185.009C126.451 184.608 126.451 184.608 126.786 184.198C127.21 183.68 127.635 183.162 128.059 182.644C129.035 181.453 130.009 180.261 130.977 179.064C132.53 177.145 134.088 175.232 135.681 173.346C135.812 173.189 135.944 173.033 136.079 172.873C138.393 170.147 138.393 170.147 140.918 171.093Z" fill="black"/>
<path d="M120.703 171.094C121.417 171.716 121.417 171.716 121.875 172.558C121.833 174.485 121.382 175.409 120.08 176.788C119.782 177.121 119.485 177.455 119.188 177.788C118.972 178.027 118.972 178.027 118.751 178.27C118.263 178.819 117.814 179.39 117.37 179.974C116.43 181.203 115.455 182.401 114.477 183.6C113.251 185.104 112.032 186.614 110.833 188.141C110.639 188.388 110.639 188.388 110.441 188.641C109.772 189.495 109.111 190.353 108.457 191.218C108.324 191.393 108.191 191.568 108.054 191.748C107.802 192.081 107.551 192.414 107.302 192.748C106.727 193.508 106.273 193.995 105.468 194.531C104.244 194.62 103.273 194.668 102.246 193.945C101.688 193.108 101.459 192.638 101.498 191.637C101.887 190.142 103.046 188.97 104.004 187.793C104.146 187.615 104.289 187.438 104.436 187.255C105.234 186.265 106.037 185.279 106.843 184.295C107.742 183.196 108.623 182.083 109.497 180.963C110.629 179.514 111.777 178.08 112.951 176.663C113.519 175.968 114.077 175.267 114.631 174.56C114.799 174.347 114.967 174.135 115.141 173.916C115.473 173.495 115.804 173.072 116.131 172.648C117.484 170.947 118.538 170.034 120.703 171.094Z" fill="black"/>
<path d="M226.172 173.438C226.365 173.728 226.559 174.018 226.758 174.316C226.564 174.316 226.371 174.316 226.172 174.316C226.148 174.498 226.124 174.679 226.099 174.866C225.807 175.693 225.476 175.69 224.707 176.074C224.136 176.575 224.136 176.575 223.608 177.136C223.429 177.321 223.249 177.506 223.064 177.697C222.929 177.838 222.795 177.979 222.656 178.125C222.463 178.028 222.27 177.932 222.07 177.832C222.342 177.564 222.613 177.296 222.893 177.02C223.248 176.668 223.602 176.316 223.956 175.964C224.135 175.788 224.315 175.611 224.499 175.429C224.67 175.259 224.841 175.089 225.017 174.914C225.175 174.757 225.333 174.601 225.496 174.44C225.911 174.027 225.911 174.027 226.172 173.438Z" fill="black"/>
<path d="M78.2227 112.207C78.416 112.304 78.6094 112.4 78.8086 112.5C77.8812 113.639 76.9325 114.699 75.8789 115.723C76.321 114.264 77.2139 113.308 78.2227 112.207Z" fill="black"/>
</svg>
