<svg width="300" height="300" viewBox="0 0 300 300" fill="none" xmlns="http://www.w3.org/2000/svg">
<path d="M63.2578 139.736C66.2168 141.083 69.4519 140.793 72.6305 140.786C73.3207 140.788 74.0108 140.791 74.701 140.795C76.3959 140.802 78.0907 140.804 79.7856 140.804C81.8172 140.804 83.8487 140.81 85.8803 140.817C90.3253 140.832 94.7702 140.837 99.2153 140.84C99.5604 140.84 99.5604 140.84 99.9125 140.84C100.258 140.84 100.258 140.84 100.611 140.841C103.171 140.843 105.73 140.846 108.289 140.85C116.028 140.862 123.766 140.871 131.505 140.873C131.752 140.873 132 140.873 132.255 140.873C133.257 140.873 134.26 140.874 135.262 140.874C136.017 140.874 136.771 140.874 137.526 140.874C137.9 140.874 137.9 140.874 138.281 140.874C146.104 140.876 153.926 140.889 161.749 140.91C170.547 140.934 179.346 140.948 188.144 140.948C189.085 140.948 190.025 140.948 190.966 140.949C191.313 140.949 191.313 140.949 191.667 140.949C195.376 140.949 199.086 140.959 202.795 140.973C206.532 140.986 210.268 140.989 214.005 140.98C216.026 140.976 218.046 140.976 220.066 140.99C231.322 141.119 231.322 141.119 242.018 138.037C243.468 137.456 244.973 137.126 246.497 136.798C246.763 136.74 247.029 136.682 247.304 136.622C253.162 135.373 259.257 135.354 264.69 138.077C265.838 138.849 266.463 139.702 266.986 140.973C267.353 143.006 267.233 144.65 266.125 146.429C264.789 148.235 263.28 149.32 261.035 149.707C259.276 149.732 257.995 149.435 256.641 148.242C255.676 146.904 255.72 145.923 255.96 144.363C255.991 144.193 256.022 144.023 256.055 143.848C256.2 143.971 256.345 144.095 256.495 144.222C257.787 145.263 258.725 145.93 260.449 145.898C261.608 145.551 262.287 145.273 263.068 144.342C263.445 143.386 263.549 142.815 263.379 141.797C262.237 140.319 261.041 139.882 259.232 139.604C249.355 138.82 241.015 144.425 232.972 149.417C215.182 160.443 197.193 167.379 176.214 168.724C171.801 168.942 171.801 168.942 167.566 170.088C166.198 170.64 164.847 170.714 163.385 170.782C163.123 170.802 162.862 170.822 162.593 170.842C160.708 170.94 160.708 170.94 159.959 170.291C159.686 169.671 159.424 169.064 159.21 168.42C158.944 167.625 158.812 167.308 158.203 166.699C157.362 166.528 157.362 166.528 156.445 166.699C154.725 168.077 153.926 170.05 152.961 171.986C152.827 172.243 152.692 172.5 152.554 172.765C152.436 172.999 152.318 173.234 152.197 173.475C151.758 174.023 151.758 174.023 151.039 174.246C149.967 174.347 149.283 174.361 148.242 174.023C147.579 173.195 147.162 172.274 146.722 171.313C145.601 168.618 145.601 168.618 143.555 166.699C142.688 166.577 142.688 166.577 141.797 166.699C140.868 167.521 140.476 168.817 140 169.944C139.746 170.508 139.746 170.508 139.453 170.801C138.538 170.845 137.622 170.785 136.707 170.746C136.455 170.74 136.204 170.735 135.946 170.729C134.537 170.669 133.389 170.468 132.082 169.931C130.44 169.315 128.935 169.108 127.194 169.006C126.902 168.985 126.609 168.964 126.307 168.942C125.687 168.898 125.066 168.855 124.445 168.814C122.826 168.706 121.208 168.58 119.591 168.454C119.275 168.429 118.96 168.405 118.635 168.38C106.668 167.436 95.2179 164.197 84.375 159.082C84.1006 158.953 83.8263 158.824 83.5436 158.691C78.0231 156.068 72.7985 152.939 67.596 149.741C54.509 141.269 54.509 141.269 39.4192 139.815C38.5666 140.071 37.9298 140.399 37.207 140.918C36.6402 142.146 36.564 142.755 36.9141 144.067C37.6135 145.204 37.9815 145.52 39.2578 145.898C41.2536 146.015 42.4355 145.393 43.9453 144.141C44.1877 145.419 44.3338 146.192 43.927 147.436C42.9867 148.771 41.9537 149.422 40.3564 149.707C38.4233 149.847 36.831 149.013 35.2112 148.041C33.7528 146.499 33.015 145.06 32.959 142.914C33.0529 141.013 33.5006 139.853 34.8816 138.538C41.8509 132.956 56.0746 136.124 63.2578 139.736ZM70.3125 142.676C71.2425 143.373 72.0114 143.85 73.0408 144.35C73.3515 144.501 73.6623 144.652 73.9824 144.807C74.3182 144.968 74.654 145.129 75 145.294C75.2611 145.419 75.2611 145.419 75.5275 145.547C87.5667 151.294 98.744 154.616 111.968 156.137C112.196 156.164 112.425 156.191 112.66 156.219C116.179 156.616 119.633 156.773 123.173 156.651C123.762 156.635 124.35 156.62 124.939 156.604C126.369 156.567 127.8 156.526 129.23 156.476C130.04 156.448 130.85 156.424 131.66 156.405C132.417 156.386 133.174 156.362 133.931 156.331C136.176 156.286 137.382 156.577 139.16 157.91C142.439 159.471 145.622 159.597 149.201 159.55C150.057 159.54 150.912 159.544 151.769 159.549C155.024 159.548 157.855 159.395 160.754 157.754C162.982 156.501 164.649 156.225 167.176 156.369C167.521 156.38 167.865 156.392 168.22 156.403C168.953 156.428 169.685 156.457 170.418 156.489C172.334 156.57 174.251 156.617 176.168 156.664C176.544 156.673 176.921 156.683 177.308 156.692C181.623 156.786 185.842 156.488 190.119 155.937C190.756 155.855 191.394 155.778 192.031 155.701C203.208 154.343 213.084 151.063 223.242 146.191C223.901 145.878 224.559 145.565 225.217 145.252C226.807 144.495 228.395 143.734 229.98 142.969C229.98 142.872 229.98 142.775 229.98 142.676C177.29 142.676 124.6 142.676 70.3125 142.676Z" fill="black"/>
</svg>
