<svg width="300" height="300" viewBox="0 0 300 300" fill="none" xmlns="http://www.w3.org/2000/svg">
<path d="M111.65 86.0582C112.115 86.0557 112.115 86.0557 112.591 86.0531C112.933 86.0542 113.276 86.0553 113.629 86.0564C113.991 86.0553 114.354 86.0542 114.728 86.053C115.737 86.0505 116.746 86.0506 117.755 86.0519C118.842 86.0526 119.93 86.05 121.017 86.0478C123.148 86.044 125.279 86.0435 127.41 86.0442C129.141 86.0447 130.872 86.0442 132.603 86.043C132.849 86.0428 133.096 86.0426 133.349 86.0424C133.849 86.0421 134.349 86.0417 134.849 86.0414C139.539 86.0382 144.229 86.0388 148.92 86.0406C153.215 86.0421 157.51 86.0388 161.806 86.0333C166.212 86.0276 170.619 86.0252 175.025 86.0263C177.5 86.0268 179.976 86.0261 182.451 86.0219C184.558 86.0185 186.665 86.018 188.772 86.0216C189.848 86.0233 190.924 86.0236 192 86.0201C193.164 86.0164 194.328 86.0194 195.492 86.0231C195.835 86.021 196.178 86.0188 196.531 86.0166C196.841 86.0187 197.151 86.0208 197.47 86.023C197.739 86.023 198.008 86.023 198.285 86.023C198.497 86.0592 198.708 86.0954 198.926 86.1328C199.64 87.2041 199.593 87.9948 199.585 89.2329C199.586 89.4623 199.587 89.6918 199.587 89.9282C199.589 90.7034 199.587 91.4786 199.585 92.2539C199.585 92.8127 199.586 93.3716 199.587 93.9304C199.589 95.4711 199.587 97.0118 199.584 98.5524C199.583 100.212 199.584 101.872 199.585 103.531C199.587 106.784 199.585 110.037 199.582 113.29C199.579 117.074 199.579 120.858 199.579 124.642C199.579 131.596 199.576 138.549 199.572 145.503C199.568 151.855 199.566 158.208 199.566 164.561C199.566 164.969 199.567 165.377 199.567 165.785C199.567 166.087 199.567 166.087 199.567 166.396C199.567 167.411 199.567 168.427 199.567 169.442C199.567 169.642 199.567 169.842 199.567 170.049C199.567 176.489 199.565 182.929 199.562 189.369C199.562 192.01 199.561 194.651 199.561 197.293C199.561 200.508 199.56 203.724 199.557 206.94C199.556 208.582 199.555 210.225 199.555 211.867C199.555 213.368 199.554 214.869 199.552 216.37C199.552 216.916 199.552 217.461 199.552 218.007C199.553 218.743 199.552 219.479 199.55 220.216C199.55 220.432 199.551 220.648 199.552 220.871C199.546 222.33 199.546 222.33 199.219 222.656C198.408 222.725 197.615 222.765 196.802 222.784C196.466 222.805 196.466 222.805 196.124 222.825C194.821 222.851 194.377 222.773 193.346 221.897C192.774 220.898 192.774 220.898 192.774 218.848C167.444 218.848 142.114 218.848 116.016 218.848C115.919 219.621 115.823 220.395 115.723 221.191C114.991 222.052 114.991 222.052 114.258 222.656C114.162 222.753 114.065 222.85 113.965 222.949C113.23 222.978 112.504 222.99 111.768 222.986C111.562 222.987 111.356 222.988 111.144 222.989C109.608 222.986 109.608 222.986 109.278 222.656C109.248 221.934 109.238 221.221 109.239 220.499C109.239 220.269 109.238 220.039 109.237 219.803C109.236 219.023 109.236 218.244 109.237 217.464C109.236 216.904 109.235 216.343 109.234 215.783C109.232 214.234 109.231 212.686 109.231 211.138C109.23 209.472 109.228 207.805 109.226 206.139C109.222 202.491 109.22 198.844 109.219 195.196C109.218 192.921 109.217 190.646 109.216 188.37C109.212 182.077 109.209 175.784 109.208 169.49C109.208 169.083 109.208 168.676 109.208 168.269C109.208 167.861 109.208 167.452 109.208 167.044C109.208 166.225 109.208 165.406 109.207 164.588C109.207 164.384 109.207 164.181 109.207 163.972C109.206 157.385 109.202 150.798 109.195 144.211C109.188 137.252 109.184 130.293 109.183 123.334C109.183 119.538 109.181 115.742 109.176 111.947C109.171 108.716 109.17 105.484 109.172 102.253C109.173 100.603 109.173 98.953 109.169 97.3028C109.165 95.7945 109.166 94.2861 109.169 92.7777C109.17 92.2299 109.169 91.682 109.166 91.1341C109.163 90.3937 109.165 89.6534 109.169 88.913C109.167 88.6965 109.164 88.4801 109.162 88.257C109.168 87.6628 109.168 87.6628 109.278 86.7187C110.244 86.0746 110.528 86.0593 111.65 86.0582ZM117.188 93.164C117.188 123.231 117.188 153.299 117.188 184.277C117.862 184.614 118.239 184.607 118.988 184.607C119.372 184.608 119.372 184.608 119.764 184.609C120.047 184.609 120.33 184.608 120.621 184.607C120.92 184.608 121.219 184.608 121.528 184.609C122.537 184.61 123.546 184.609 124.555 184.608C125.275 184.609 125.996 184.609 126.717 184.61C128.475 184.611 130.233 184.611 131.992 184.61C133.42 184.609 134.849 184.609 136.277 184.609C136.48 184.61 136.683 184.61 136.892 184.61C137.305 184.61 137.717 184.61 138.129 184.61C142 184.611 145.87 184.61 149.741 184.608C153.064 184.607 156.388 184.607 159.712 184.608C163.568 184.61 167.424 184.611 171.28 184.61C171.691 184.61 172.102 184.61 172.513 184.609C172.816 184.609 172.816 184.609 173.126 184.609C174.553 184.609 175.98 184.61 177.408 184.61C179.328 184.611 181.248 184.61 183.167 184.609C183.874 184.608 184.58 184.609 185.287 184.609C186.248 184.61 187.208 184.609 188.169 184.607C188.452 184.608 188.735 184.609 189.026 184.609C189.282 184.609 189.538 184.608 189.802 184.607C190.135 184.607 190.135 184.607 190.474 184.607C191.044 184.603 191.044 184.603 191.602 184.277C191.609 172.712 191.614 161.147 191.617 149.582C191.617 148.219 191.618 146.855 191.618 145.491C191.618 145.219 191.618 144.948 191.618 144.668C191.62 140.265 191.622 135.863 191.625 131.46C191.627 126.946 191.629 122.432 191.63 117.918C191.63 115.131 191.631 112.343 191.634 109.555C191.635 107.646 191.636 105.737 191.635 103.828C191.635 102.725 191.635 101.622 191.637 100.519C191.639 99.3262 191.638 98.1331 191.637 96.9401C191.638 96.5876 191.639 96.2351 191.64 95.8719C191.639 95.5549 191.639 95.238 191.638 94.9114C191.638 94.4978 191.638 94.4978 191.638 94.0757C191.671 93.4611 191.671 93.4611 191.309 93.164C190.912 93.1358 190.513 93.1278 190.115 93.128C189.857 93.1274 189.598 93.1268 189.331 93.1262C189.044 93.1271 188.756 93.1279 188.46 93.1288C188.158 93.1286 187.856 93.1283 187.544 93.128C186.52 93.1276 185.496 93.1292 184.472 93.1308C183.73 93.1309 182.987 93.1308 182.245 93.1307C180.453 93.1306 178.661 93.1319 176.868 93.1337C174.796 93.1358 172.724 93.1361 170.652 93.1363C165.178 93.1379 159.704 93.1419 154.23 93.1457C135.894 93.1548 135.894 93.1548 117.188 93.164ZM117.188 192.773C117.188 199.541 117.188 206.309 117.188 213.281C118.039 213.707 118.779 213.611 119.731 213.611C119.934 213.612 120.138 213.612 120.348 213.613C121.035 213.614 121.722 213.613 122.41 213.612C122.902 213.612 123.394 213.613 123.886 213.614C125.232 213.615 126.579 213.614 127.925 213.614C129.353 213.613 130.782 213.613 132.21 213.614C134.631 213.614 137.052 213.614 139.472 213.612C141.914 213.611 144.356 213.611 146.798 213.612C161.736 213.621 176.667 213.556 191.602 213.281C191.603 213.005 191.603 212.729 191.604 212.445C191.605 211.844 191.606 211.243 191.607 210.641C191.609 209.491 191.611 208.34 191.613 207.19C191.617 205.019 191.621 202.848 191.627 200.678C191.629 199.825 191.63 198.973 191.63 198.121C191.63 197.701 191.631 197.281 191.633 196.86C191.635 196.225 191.635 195.59 191.635 194.955C191.636 194.597 191.637 194.238 191.637 193.869C191.694 193.092 191.694 193.092 191.309 192.773C190.912 192.745 190.513 192.737 190.115 192.737C189.727 192.736 189.727 192.736 189.331 192.736C189.044 192.736 188.756 192.737 188.46 192.738C188.157 192.738 187.854 192.738 187.542 192.737C186.519 192.737 185.495 192.739 184.472 192.74C183.741 192.74 183.011 192.74 182.281 192.74C180.704 192.74 179.128 192.741 177.551 192.742C175.272 192.745 172.992 192.746 170.713 192.746C167.015 192.747 163.317 192.749 159.619 192.751C156.026 192.754 152.433 192.756 148.84 192.757C148.619 192.757 148.397 192.757 148.169 192.758C147.059 192.758 145.949 192.758 144.838 192.759C135.622 192.762 126.405 192.767 117.188 192.773Z" fill="black"/>
<path d="M157.746 95.4337C158.145 95.4312 158.145 95.4312 158.552 95.4286C158.989 95.4304 158.989 95.4304 159.435 95.4322C159.896 95.4307 159.896 95.4307 160.367 95.4291C161.385 95.4265 162.403 95.4283 163.421 95.4302C164.127 95.4298 164.833 95.4293 165.539 95.4285C167.02 95.4277 168.501 95.4289 169.981 95.4317C171.882 95.435 173.782 95.4331 175.683 95.4296C177.141 95.4275 178.599 95.4281 180.057 95.4297C180.758 95.43 181.459 95.4296 182.16 95.4282C183.138 95.4267 184.117 95.429 185.095 95.4322C185.387 95.4311 185.678 95.4299 185.978 95.4286C186.244 95.4303 186.51 95.432 186.785 95.4337C187.016 95.4339 187.247 95.4341 187.486 95.4343C188.086 95.5081 188.086 95.5081 188.964 96.094C189.074 96.715 189.074 96.715 189.073 97.5013C189.075 97.8003 189.077 98.0993 189.079 98.4073C189.077 98.7382 189.075 99.0692 189.072 99.4102C189.074 99.9346 189.074 99.9346 189.075 100.47C189.077 101.443 189.075 102.417 189.071 103.39C189.068 104.439 189.069 105.487 189.071 106.536C189.072 108.592 189.069 110.647 189.065 112.702C189.06 115.094 189.059 117.485 189.059 119.876C189.058 124.141 189.054 128.407 189.047 132.672C189.04 136.815 189.036 140.958 189.035 145.101C189.035 145.357 189.035 145.612 189.035 145.875C189.034 146.389 189.034 146.903 189.034 147.417C189.034 147.671 189.034 147.924 189.034 148.185C189.034 148.565 189.034 148.565 189.034 148.952C189.033 152.894 189.029 156.836 189.026 160.778C189.024 162.21 189.023 163.641 189.023 165.072C189.021 167.342 189.019 169.612 189.015 171.881C189.013 172.919 189.011 173.957 189.011 174.995C189.011 176.117 189.008 177.239 189.006 178.362C189.006 178.693 189.006 179.025 189.006 179.367C189.005 179.814 189.005 179.814 189.003 180.27C189.003 180.53 189.002 180.789 189.002 181.057C188.964 181.641 188.964 181.641 188.671 181.934C188.245 181.962 187.818 181.97 187.391 181.969C187.114 181.969 186.838 181.97 186.553 181.97C186.247 181.969 185.941 181.968 185.626 181.967C185.306 181.967 184.986 181.967 184.656 181.967C183.592 181.967 182.529 181.965 181.465 181.962C180.73 181.962 179.995 181.961 179.259 181.961C177.518 181.96 175.777 181.958 174.036 181.955C171.86 181.951 169.684 181.95 167.508 181.948C163.625 181.945 159.742 181.94 155.859 181.934C155.5 181.215 155.529 180.75 155.527 179.946C155.526 179.648 155.525 179.35 155.524 179.044C155.524 178.714 155.525 178.384 155.525 178.045C155.524 177.697 155.523 177.348 155.522 176.99C155.52 176.02 155.519 175.05 155.519 174.081C155.519 173.036 155.516 171.992 155.514 170.947C155.51 168.662 155.509 166.378 155.507 164.093C155.507 162.667 155.505 161.241 155.504 159.816C155.5 155.871 155.497 151.927 155.496 147.983C155.496 147.73 155.496 147.478 155.496 147.218C155.496 146.965 155.496 146.711 155.496 146.451C155.496 145.938 155.496 145.425 155.496 144.911C155.496 144.53 155.496 144.53 155.495 144.14C155.494 140.014 155.489 135.887 155.482 131.76C155.475 127.527 155.472 123.294 155.471 119.061C155.471 116.683 155.469 114.305 155.464 111.927C155.46 109.902 155.458 107.878 155.461 105.854C155.462 104.82 155.461 103.786 155.457 102.753C155.453 101.634 155.455 100.516 155.458 99.3971C155.456 99.0675 155.454 98.7379 155.451 98.3983C155.453 98.1005 155.455 97.8027 155.457 97.4959C155.457 97.2375 155.457 96.979 155.456 96.7127C155.493 96.5086 155.529 96.3044 155.566 96.094C156.487 95.4799 156.697 95.4347 157.746 95.4337ZM158.789 139.16C158.739 140.438 158.692 141.715 158.647 142.992C158.632 143.427 158.616 143.861 158.599 144.296C158.575 144.921 158.553 145.545 158.531 146.17C158.517 146.546 158.504 146.922 158.489 147.309C158.448 148.249 158.448 148.249 158.789 149.121C159.163 149.139 159.538 149.158 159.924 149.176C160.135 149.186 160.345 149.197 160.562 149.207C160.751 149.179 160.939 149.151 161.132 149.121C161.869 148.017 161.765 147.485 161.711 146.17C161.7 145.869 161.7 145.869 161.689 145.563C161.665 144.924 161.637 144.285 161.608 143.646C161.591 143.213 161.575 142.779 161.558 142.346C161.517 141.284 161.472 140.222 161.425 139.16C160.555 139.16 159.685 139.16 158.789 139.16Z" fill="black"/>
<path d="M121.736 95.3978C122.007 95.3958 122.279 95.3937 122.558 95.3916C122.856 95.3938 123.153 95.3961 123.459 95.3984C123.929 95.3968 123.929 95.3968 124.409 95.3951C125.448 95.3928 126.486 95.3968 127.525 95.401C128.245 95.4012 128.965 95.401 129.685 95.4006C131.194 95.4006 132.704 95.4037 134.213 95.409C136.152 95.4156 138.09 95.4158 140.029 95.4138C141.515 95.4128 143.002 95.4148 144.489 95.4176C145.204 95.4188 145.919 95.4191 146.634 95.4186C147.631 95.4185 148.629 95.4222 149.626 95.427C149.924 95.4263 150.222 95.4255 150.529 95.4248C150.935 95.4279 150.935 95.4279 151.349 95.4311C151.703 95.432 151.703 95.432 152.064 95.4329C152.637 95.5075 152.637 95.5075 153.223 96.0934C153.296 96.7122 153.296 96.7122 153.297 97.4953C153.298 97.7931 153.3 98.0909 153.301 98.3977C153.3 98.7273 153.299 99.0569 153.297 99.3965C153.298 99.7447 153.299 100.093 153.3 100.452C153.302 101.421 153.301 102.391 153.299 103.36C153.298 104.405 153.3 105.449 153.302 106.494C153.304 108.541 153.304 110.588 153.302 112.636C153.301 114.299 153.301 115.962 153.301 117.626C153.301 117.862 153.301 118.098 153.302 118.342C153.302 118.822 153.302 119.302 153.302 119.782C153.304 124.288 153.302 128.795 153.299 133.301C153.296 137.171 153.297 141.041 153.299 144.911C153.302 149.401 153.304 153.89 153.302 158.38C153.302 158.858 153.301 159.337 153.301 159.815C153.301 160.168 153.301 160.168 153.301 160.528C153.3 162.19 153.301 163.853 153.303 165.515C153.304 167.539 153.304 169.563 153.301 171.588C153.299 172.621 153.299 173.655 153.301 174.689C153.303 175.807 153.3 176.926 153.297 178.044C153.299 178.374 153.3 178.703 153.301 179.043C153.299 179.49 153.299 179.49 153.297 179.945C153.296 180.204 153.296 180.462 153.296 180.729C153.223 181.347 153.223 181.347 152.637 181.933C152.058 182.006 152.058 182.006 151.334 182.006C151.06 182.007 150.786 182.008 150.504 182.009C150.202 182.008 149.901 182.006 149.59 182.004C149.115 182.005 149.115 182.005 148.63 182.006C147.579 182.007 146.528 182.004 145.476 182.001C144.749 182 144.021 182 143.294 182C141.572 182 139.85 181.996 138.128 181.992C136.362 181.988 134.597 181.987 132.831 181.988C131.328 181.988 129.826 181.986 128.323 181.984C127.6 181.983 126.876 181.982 126.153 181.982C125.144 181.981 124.135 181.979 123.127 181.976C122.824 181.976 122.522 181.976 122.211 181.976C121.801 181.974 121.801 181.974 121.383 181.972C121.144 181.972 120.906 181.971 120.66 181.971C120.117 181.933 120.117 181.933 119.824 181.64C119.794 181.186 119.784 180.73 119.781 180.275C119.779 179.978 119.777 179.681 119.775 179.375C119.774 179.045 119.773 178.715 119.772 178.374C119.77 178.027 119.768 177.679 119.766 177.321C119.76 176.351 119.756 175.381 119.753 174.412C119.749 173.367 119.743 172.323 119.737 171.279C119.725 168.994 119.716 166.709 119.707 164.424C119.701 162.999 119.695 161.573 119.689 160.147C119.671 156.203 119.655 152.259 119.64 148.315C119.639 148.062 119.638 147.809 119.637 147.549C119.636 147.296 119.636 147.043 119.635 146.782C119.633 146.268 119.631 145.755 119.629 145.242C119.628 144.987 119.627 144.733 119.626 144.471C119.611 140.344 119.591 136.218 119.57 132.091C119.549 127.858 119.531 123.626 119.516 119.393C119.507 117.015 119.497 114.637 119.484 112.259C119.472 110.234 119.464 108.21 119.459 106.185C119.457 105.151 119.453 104.117 119.445 103.084C119.437 101.965 119.436 100.846 119.435 99.7267C119.431 99.3977 119.428 99.0687 119.424 98.7298C119.425 98.4313 119.426 98.1327 119.427 97.8251C119.426 97.5667 119.425 97.3082 119.424 97.0418C119.648 95.6755 120.462 95.3976 121.736 95.3978ZM147.071 139.16C147.071 142.35 147.071 145.541 147.071 148.828C147.944 149.265 148.745 149.156 149.707 149.121C150.106 148.788 150.106 148.788 150.033 147.907C150.033 147.499 150.032 147.092 150.029 146.684C150.028 146.47 150.028 146.256 150.028 146.035C150.026 145.349 150.022 144.662 150.019 143.975C150.017 143.511 150.016 143.047 150.015 142.582C150.011 141.441 150.006 140.301 150 139.16C149.033 139.16 148.067 139.16 147.071 139.16Z" fill="black"/>
<path d="M89.3329 140.227C89.6897 140.226 90.0464 140.226 90.414 140.225C90.9922 140.23 90.9922 140.23 91.5821 140.236C91.9808 140.236 92.3795 140.237 92.7782 140.237C93.6131 140.239 94.4479 140.243 95.2828 140.249C96.355 140.258 97.4272 140.261 98.4995 140.262C99.3223 140.263 100.145 140.266 100.968 140.27C101.556 140.272 102.145 140.274 102.733 140.276C103.088 140.279 103.443 140.282 103.809 140.284C104.28 140.287 104.28 140.287 104.761 140.291C105.468 140.332 105.468 140.332 105.761 140.625C105.791 141.07 105.801 141.517 105.803 141.963C105.805 142.254 105.806 142.545 105.808 142.845C105.809 143.169 105.809 143.492 105.81 143.826C105.811 144.167 105.813 144.507 105.815 144.859C105.819 145.809 105.822 146.759 105.824 147.709C105.827 148.732 105.832 149.755 105.836 150.778C105.845 152.784 105.851 154.79 105.858 156.797C105.863 158.426 105.868 160.056 105.874 161.686C105.875 161.917 105.876 162.149 105.877 162.387C105.879 162.858 105.88 163.328 105.882 163.798C105.899 168.213 105.913 172.629 105.927 177.044C105.939 180.836 105.953 184.627 105.967 188.419C105.984 192.818 106 197.216 106.015 201.614C106.016 202.083 106.018 202.552 106.02 203.02C106.02 203.251 106.021 203.482 106.022 203.719C106.027 205.348 106.034 206.976 106.04 208.605C106.048 210.588 106.054 212.572 106.06 214.556C106.063 215.569 106.066 216.581 106.07 217.594C106.075 218.69 106.078 219.786 106.08 220.882C106.082 221.205 106.084 221.528 106.086 221.861C106.086 222.153 106.086 222.445 106.087 222.745C106.087 222.999 106.088 223.252 106.089 223.513C106.054 224.121 106.054 224.121 105.761 224.707C99.5738 224.707 93.3863 224.707 87.0113 224.707C86.77 223.742 86.6813 223.079 86.6798 222.107C86.6781 221.675 86.6781 221.675 86.6764 221.233C86.6767 220.917 86.6769 220.6 86.6772 220.274C86.6763 219.938 86.6754 219.601 86.6745 219.255C86.6724 218.32 86.6717 217.386 86.6714 216.452C86.6709 215.444 86.6687 214.437 86.6667 213.429C86.6627 211.227 86.661 209.024 86.6597 206.821C86.6589 205.447 86.6576 204.072 86.6563 202.697C86.6527 198.892 86.6497 195.088 86.6487 191.283C86.6487 191.039 86.6486 190.796 86.6485 190.545C86.6485 190.301 86.6484 190.057 86.6483 189.806C86.6482 189.311 86.6481 188.817 86.648 188.322C86.6479 188.077 86.6478 187.831 86.6478 187.579C86.6466 183.6 86.6415 179.621 86.6347 175.643C86.6277 171.56 86.6241 167.477 86.6237 163.394C86.6235 161.1 86.6218 158.807 86.6165 156.514C86.6119 154.562 86.6104 152.61 86.6129 150.658C86.614 149.662 86.6137 148.666 86.6096 147.669C86.6059 146.591 86.6076 145.512 86.6107 144.434C86.6083 144.117 86.6059 143.8 86.6035 143.473C86.6054 143.185 86.6074 142.898 86.6094 142.601C86.6092 142.352 86.609 142.103 86.6088 141.846C86.8789 140.279 87.9346 140.223 89.3329 140.227Z" fill="black"/>
<path d="M120.117 195.41C121.022 195.323 121.869 195.294 122.775 195.302C123.193 195.301 123.193 195.301 123.62 195.299C124.56 195.297 125.5 195.301 126.44 195.306C127.112 195.305 127.784 195.305 128.455 195.304C130.284 195.302 132.113 195.306 133.941 195.311C135.851 195.316 137.761 195.315 139.67 195.316C142.878 195.317 146.086 195.321 149.294 195.328C152.596 195.334 155.899 195.339 159.202 195.34C159.507 195.34 159.507 195.34 159.819 195.34C160.228 195.34 160.638 195.34 161.048 195.34C161.25 195.34 161.452 195.34 161.66 195.34C161.963 195.34 161.963 195.34 162.271 195.341C165.605 195.342 168.938 195.345 172.272 195.349C173.412 195.35 174.553 195.351 175.693 195.352C177.482 195.354 179.271 195.357 181.06 195.361C181.718 195.362 182.377 195.363 183.035 195.363C183.93 195.364 184.825 195.366 185.721 195.369C185.984 195.369 186.248 195.368 186.519 195.368C188.312 195.377 188.312 195.377 188.965 195.703C188.965 200.634 188.965 205.564 188.965 210.644C187.964 211.144 186.819 210.977 185.719 210.975C185.3 210.975 185.3 210.975 184.873 210.976C183.932 210.977 182.991 210.976 182.051 210.975C181.378 210.976 180.706 210.976 180.034 210.977C178.204 210.978 176.375 210.978 174.545 210.977C172.634 210.976 170.724 210.977 168.813 210.977C165.398 210.978 161.983 210.977 158.569 210.975C155.47 210.974 152.371 210.974 149.271 210.976C145.676 210.977 142.081 210.978 138.485 210.977C136.581 210.976 134.676 210.976 132.772 210.977C130.982 210.978 129.192 210.978 127.403 210.976C126.744 210.975 126.085 210.976 125.426 210.976C124.53 210.977 123.635 210.976 122.74 210.975C122.475 210.975 122.211 210.976 121.939 210.977C120.15 210.971 120.15 210.971 119.824 210.644C119.785 210.2 119.766 209.753 119.755 209.307C119.747 209.023 119.739 208.738 119.731 208.445C119.724 208.135 119.718 207.826 119.711 207.506C119.703 207.19 119.696 206.874 119.688 206.548C119.673 205.878 119.658 205.208 119.645 204.537C119.623 203.51 119.596 202.482 119.569 201.455C119.555 200.805 119.541 200.155 119.528 199.505C119.519 199.196 119.511 198.888 119.502 198.57C119.497 198.283 119.492 197.997 119.487 197.702C119.481 197.45 119.476 197.197 119.47 196.938C119.531 196.289 119.531 196.289 120.117 195.41ZM135.937 201.269C135.692 202.633 135.64 203.722 135.937 205.078C136.419 205.086 136.902 205.092 137.384 205.096C137.787 205.101 137.787 205.101 138.197 205.107C138.857 205.154 138.857 205.154 139.16 204.785C139.189 204.249 139.198 203.711 139.197 203.174C139.197 202.881 139.198 202.588 139.199 202.286C139.242 201.579 139.242 201.579 138.867 201.269C138.373 201.248 137.878 201.245 137.384 201.251C137.115 201.254 136.845 201.256 136.568 201.259C136.36 201.262 136.152 201.266 135.937 201.269ZM169.629 201.562C169.607 202.154 169.604 202.746 169.61 203.338C169.613 203.662 169.616 203.986 169.618 204.319C169.622 204.57 169.625 204.82 169.629 205.078C170.692 205.078 171.756 205.078 172.851 205.078C172.859 204.498 172.865 203.918 172.87 203.338C172.873 203.016 172.876 202.693 172.88 202.36C172.943 201.587 172.943 201.587 172.558 201.269C172.12 201.241 171.68 201.231 171.24 201.233C171.001 201.232 170.763 201.231 170.517 201.23C169.923 201.204 169.923 201.204 169.629 201.562Z" fill="black"/>
<path d="M106.459 74.9611C106.803 74.96 107.147 74.9588 107.502 74.9577C108.076 74.958 108.076 74.958 108.662 74.9584C109.069 74.9577 109.476 74.9568 109.884 74.9558C111.007 74.9534 112.131 74.9529 113.255 74.9527C114.465 74.9522 115.675 74.9499 116.885 74.948C119.533 74.944 122.182 74.9422 124.83 74.9409C126.482 74.9401 128.134 74.9389 129.786 74.9376C134.356 74.934 138.925 74.931 143.495 74.93C143.788 74.9299 144.08 74.9299 144.382 74.9298C144.675 74.9297 144.969 74.9297 145.271 74.9296C145.866 74.9295 146.46 74.9293 147.055 74.9292C147.497 74.9291 147.497 74.9291 147.949 74.929C152.731 74.9278 157.513 74.9227 162.295 74.9159C167.2 74.909 172.104 74.9053 177.008 74.905C179.764 74.9047 182.52 74.903 185.276 74.8977C187.622 74.8932 189.968 74.8917 192.314 74.8941C193.512 74.8953 194.71 74.895 195.908 74.8909C197.003 74.8872 198.099 74.8875 199.194 74.891C199.781 74.8919 200.368 74.8884 200.955 74.8848C201.3 74.8867 201.645 74.8886 202 74.8906C202.3 74.8904 202.599 74.8903 202.908 74.8901C203.141 74.9262 203.373 74.9624 203.613 74.9996C204.545 76.3976 204.295 77.8972 204.291 79.5406C204.296 79.8786 204.3 80.2166 204.305 80.5648C204.305 80.8885 204.305 81.2121 204.306 81.5456C204.307 81.9906 204.307 81.9906 204.308 82.4445C204.199 83.2027 204.199 83.2027 203.856 83.683C203.11 84.2383 202.601 84.1893 201.676 84.186C201.331 84.1869 200.987 84.1878 200.632 84.1888C200.252 84.1853 199.871 84.1818 199.48 84.1782C199.073 84.1775 198.666 84.1773 198.26 84.1774C197.14 84.1766 196.02 84.1703 194.9 84.1632C193.694 84.1564 192.487 84.1546 191.281 84.1523C188.916 84.1469 186.551 84.1368 184.187 84.1252C181.436 84.1119 178.684 84.1033 175.933 84.0949C171.027 84.0798 166.12 84.0605 161.213 84.0388C156.447 84.0178 151.68 83.9995 146.914 83.9842C146.473 83.9828 146.473 83.9828 146.024 83.9813C145.432 83.9795 144.841 83.9776 144.249 83.9757C143.958 83.9747 143.666 83.9738 143.365 83.9728C143.074 83.9719 142.783 83.971 142.484 83.97C137.948 83.9554 133.412 83.9386 128.877 83.9214C127.23 83.9152 125.584 83.9093 123.937 83.9036C121.326 83.8945 118.715 83.8845 116.104 83.8724C114.91 83.8669 113.716 83.8619 112.523 83.8581C111.431 83.8546 110.34 83.8498 109.249 83.8438C108.664 83.841 108.078 83.8396 107.493 83.8382C107.15 83.8361 106.807 83.8339 106.454 83.8317C106.155 83.8305 105.857 83.8292 105.549 83.8279C104.883 83.7886 104.883 83.7886 104.59 83.4957C104.561 82.892 104.552 82.2873 104.551 81.6829C104.551 81.3151 104.55 80.9473 104.55 80.5683C104.55 80.3758 104.551 80.1833 104.552 79.9849C104.553 79.3966 104.552 78.8083 104.55 78.2199C104.55 77.8521 104.551 77.4843 104.551 77.1053C104.551 76.5949 104.551 76.5949 104.552 76.0742C104.619 74.6945 105.227 74.9626 106.459 74.9611Z" fill="black"/>
<path d="M204.757 194.201C205.212 194.2 205.212 194.2 205.677 194.199C206.011 194.199 206.345 194.2 206.69 194.201C207.041 194.2 207.392 194.2 207.754 194.199C208.718 194.198 209.682 194.198 210.646 194.199C211.654 194.2 212.661 194.199 213.669 194.199C215.361 194.198 217.052 194.199 218.744 194.2C220.703 194.202 222.661 194.201 224.619 194.2C226.299 194.198 227.978 194.198 229.657 194.199C230.661 194.199 231.665 194.2 232.669 194.199C233.787 194.198 234.905 194.199 236.023 194.201C236.526 194.2 236.526 194.2 237.038 194.199C237.341 194.2 237.644 194.2 237.956 194.201C238.221 194.201 238.485 194.202 238.758 194.202C239.355 194.239 239.355 194.239 239.648 194.531C239.717 195.988 239.553 197.292 239.254 198.715C239.212 198.917 239.17 199.12 239.127 199.328C238.989 199.99 238.849 200.651 238.708 201.312C238.61 201.774 238.513 202.236 238.416 202.698C238.213 203.663 238.009 204.628 237.803 205.592C237.539 206.829 237.279 208.067 237.021 209.305C236.821 210.258 236.62 211.21 236.418 212.162C236.321 212.618 236.225 213.075 236.13 213.532C235.996 214.168 235.86 214.804 235.724 215.44C235.608 215.983 235.608 215.983 235.491 216.537C235.254 217.383 235.254 217.383 234.668 217.969C234.102 218.042 234.102 218.042 233.398 218.041C232.998 218.043 232.998 218.043 232.59 218.045C232.297 218.043 232.004 218.042 231.701 218.04C231.239 218.041 231.239 218.041 230.767 218.042C229.745 218.043 228.722 218.04 227.699 218.036C226.992 218.036 226.284 218.036 225.576 218.036C224.091 218.036 222.606 218.033 221.121 218.029C219.213 218.024 217.305 218.023 215.397 218.023C213.935 218.023 212.473 218.022 211.011 218.02C210.308 218.019 209.604 218.018 208.9 218.018C207.918 218.017 206.937 218.015 205.956 218.012C205.662 218.012 205.368 218.012 205.065 218.012C204.799 218.011 204.533 218.009 204.26 218.008C204.027 218.008 203.795 218.007 203.556 218.007C203.027 217.969 203.027 217.969 202.734 217.676C202.706 216.954 202.697 216.24 202.701 215.518C202.701 215.292 202.701 215.067 202.701 214.834C202.701 214.084 202.703 213.334 202.706 212.585C202.706 212.066 202.707 211.548 202.707 211.029C202.708 209.662 202.711 208.294 202.714 206.927C202.717 205.533 202.718 204.139 202.72 202.744C202.723 200.007 202.728 197.269 202.734 194.531C203.461 194.168 203.943 194.202 204.757 194.201Z" fill="black"/>
<path d="M74.7066 171.68C76.7955 171.63 78.7904 171.819 80.859 172.101C81.3195 172.16 81.3195 172.16 81.7894 172.221C84.0431 172.52 84.0431 172.52 84.3746 172.852C84.4979 175.345 84.1438 177.8 83.846 180.27C83.7891 180.751 83.7323 181.233 83.6757 181.714C83.5222 183.015 83.3667 184.316 83.2107 185.616C83.0806 186.702 82.9513 187.789 82.8221 188.875C82.5173 191.437 82.2108 193.998 81.9034 196.559C81.586 199.202 81.2717 201.846 80.9588 204.49C80.6899 206.762 80.4191 209.033 80.1467 211.304C79.9841 212.66 79.8222 214.016 79.6623 215.372C79.5121 216.645 79.3595 217.918 79.2049 219.19C79.1485 219.658 79.093 220.126 79.0384 220.594C78.964 221.231 78.8865 221.868 78.8081 222.504C78.7654 222.861 78.7228 223.218 78.6788 223.585C78.5152 224.414 78.5152 224.414 77.9293 225C77.0921 225.071 77.0921 225.071 76.0341 225.068C75.6553 225.067 75.2766 225.067 74.8863 225.066C74.6886 225.064 74.491 225.062 74.2873 225.061C73.6836 225.055 73.0799 225.054 72.4762 225.055C69.5153 225.041 69.5153 225.041 68.8472 224.707C68.7816 222.124 69.0391 219.599 69.322 217.035C69.3732 216.562 69.4242 216.088 69.475 215.614C69.6128 214.335 69.7526 213.056 69.8928 211.777C70.0099 210.708 70.126 209.638 70.2421 208.568C70.516 206.045 70.7916 203.523 71.0681 201C71.3532 198.4 71.6356 195.799 71.9168 193.199C72.1587 190.962 72.4022 188.725 72.6468 186.489C72.7928 185.155 72.9381 183.821 73.0821 182.486C73.2174 181.233 73.3546 179.98 73.4933 178.726C73.5438 178.267 73.5937 177.808 73.6428 177.348C73.7101 176.72 73.7797 176.092 73.85 175.465C73.8884 175.113 73.9267 174.762 73.9662 174.401C74.1198 173.443 74.373 172.589 74.7066 171.68Z" fill="black"/>
<path d="M204.266 152.892C204.661 152.89 204.661 152.89 205.063 152.889C205.492 152.89 205.492 152.89 205.93 152.891C206.221 152.891 206.513 152.89 206.813 152.89C207.431 152.89 208.049 152.89 208.666 152.892C209.615 152.893 210.564 152.892 211.513 152.89C212.112 152.89 212.711 152.89 213.309 152.891C213.595 152.89 213.881 152.89 214.176 152.889C214.439 152.89 214.701 152.891 214.972 152.892C215.321 152.892 215.321 152.892 215.677 152.893C216.211 152.93 216.211 152.93 216.504 153.223C216.533 153.708 216.541 154.194 216.541 154.68C216.542 154.995 216.543 155.311 216.544 155.636C216.543 155.985 216.543 156.334 216.542 156.694C216.543 157.059 216.543 157.424 216.544 157.801C216.545 158.806 216.545 159.81 216.544 160.815C216.543 161.864 216.544 162.914 216.544 163.963C216.545 165.726 216.544 167.488 216.542 169.25C216.541 171.291 216.541 173.331 216.543 175.372C216.544 177.121 216.544 178.869 216.544 180.618C216.543 181.664 216.543 182.71 216.544 183.756C216.545 184.921 216.544 186.086 216.542 187.252C216.543 187.601 216.543 187.95 216.544 188.31C216.543 188.625 216.542 188.941 216.541 189.266C216.541 189.542 216.541 189.818 216.541 190.102C216.504 190.723 216.504 190.723 216.211 191.016C215.821 191.053 215.428 191.071 215.036 191.08C214.786 191.087 214.537 191.094 214.28 191.101C214.009 191.107 213.737 191.113 213.458 191.119C213.181 191.125 212.904 191.132 212.618 191.139C212.03 191.153 211.443 191.166 210.855 191.179C209.955 191.199 209.055 191.221 208.155 191.245C207.585 191.258 207.015 191.271 206.445 191.283C206.04 191.294 206.04 191.294 205.626 191.305C205.375 191.31 205.124 191.315 204.865 191.32C204.644 191.325 204.423 191.33 204.196 191.335C203.614 191.309 203.614 191.309 202.735 191.016C202.728 186.093 202.723 181.171 202.72 176.248C202.718 173.963 202.716 171.677 202.713 169.392C202.71 167.4 202.708 165.409 202.707 163.418C202.707 162.363 202.706 161.308 202.704 160.253C202.701 159.077 202.701 157.901 202.701 156.725C202.7 156.373 202.699 156.021 202.698 155.658C202.699 155.339 202.699 155.021 202.699 154.693C202.699 154.414 202.699 154.136 202.699 153.849C202.763 152.728 203.276 152.893 204.266 152.892Z" fill="black"/>
<path d="M233.496 155.859C233.496 167.364 233.496 178.869 233.496 190.722C231.848 191.382 231.848 191.382 230.736 191.348C230.489 191.342 230.243 191.336 229.989 191.33C229.728 191.321 229.466 191.311 229.197 191.301C228.926 191.294 228.655 191.287 228.375 191.279C227.513 191.255 226.65 191.227 225.787 191.198C225.201 191.181 224.615 191.165 224.029 191.148C222.595 191.107 221.161 191.062 219.727 191.015C219.471 190.132 219.397 189.346 219.397 188.427C219.396 188.143 219.395 187.859 219.394 187.566C219.395 187.256 219.395 186.946 219.396 186.627C219.395 186.299 219.395 185.971 219.394 185.634C219.393 184.549 219.394 183.464 219.395 182.38C219.395 181.627 219.394 180.875 219.394 180.123C219.394 178.546 219.394 176.969 219.396 175.393C219.397 173.569 219.397 171.745 219.395 169.921C219.393 168.167 219.394 166.413 219.395 164.658C219.395 163.912 219.394 163.165 219.394 162.418C219.393 161.376 219.394 160.334 219.396 159.293C219.395 158.826 219.395 158.826 219.394 158.35C219.395 157.926 219.395 157.926 219.397 157.494C219.397 157.247 219.397 157.001 219.397 156.747C219.434 156.152 219.434 156.152 219.727 155.566C221.452 155.51 223.178 155.457 224.903 155.409C225.49 155.392 226.077 155.374 226.664 155.354C227.508 155.327 228.352 155.303 229.197 155.28C229.458 155.271 229.72 155.261 229.989 155.251C230.236 155.246 230.482 155.24 230.736 155.234C231.059 155.224 231.059 155.224 231.388 155.214C232.031 155.273 232.031 155.273 233.496 155.859Z" fill="black"/>
<path d="M119.183 221.411C119.4 221.411 119.616 221.411 119.84 221.411C120.215 221.409 120.215 221.409 120.597 221.407C120.874 221.409 121.15 221.41 121.434 221.412C121.873 221.411 121.873 221.411 122.32 221.41C123.305 221.408 124.291 221.411 125.276 221.413C125.98 221.413 126.684 221.412 127.388 221.411C129.105 221.41 130.822 221.412 132.539 221.414C134.537 221.417 136.534 221.417 138.532 221.417C142.095 221.417 145.658 221.42 149.222 221.424C152.683 221.428 156.144 221.43 159.605 221.43C159.925 221.43 159.925 221.43 160.251 221.43C160.464 221.43 160.677 221.43 160.896 221.43C164.832 221.43 168.767 221.431 172.703 221.434C174.097 221.435 175.491 221.435 176.885 221.435C178.759 221.436 180.634 221.437 182.508 221.44C183.198 221.441 183.888 221.442 184.578 221.441C185.516 221.441 186.454 221.443 187.391 221.445C187.668 221.445 187.945 221.444 188.23 221.444C190.103 221.451 190.103 221.451 190.429 221.777C190.429 222.744 190.429 223.711 190.429 224.707C166.646 224.707 142.863 224.707 118.359 224.707C117.918 223.824 118.014 223.042 118.066 222.07C118.652 221.484 118.652 221.484 119.183 221.411Z" fill="black"/>
<path d="M204.226 220.568C204.614 220.567 204.614 220.567 205.009 220.566C205.295 220.566 205.581 220.567 205.875 220.568C206.174 220.567 206.473 220.567 206.781 220.566C207.776 220.565 208.77 220.566 209.764 220.567C210.452 220.566 211.14 220.566 211.828 220.566C213.272 220.565 214.716 220.566 216.16 220.567C218.014 220.569 219.869 220.568 221.723 220.566C223.145 220.565 224.566 220.566 225.987 220.566C226.671 220.567 227.355 220.566 228.039 220.566C228.994 220.565 229.948 220.566 230.903 220.568C231.188 220.567 231.473 220.566 231.767 220.566C232.026 220.567 232.286 220.568 232.553 220.568C232.891 220.569 232.891 220.569 233.237 220.569C233.789 220.606 233.789 220.606 234.375 220.899C234.349 221.418 234.318 221.936 234.283 222.455C234.266 222.744 234.249 223.033 234.232 223.33C234.061 224.229 233.91 224.448 233.203 225C232.624 225.109 232.624 225.109 231.954 225.108C231.699 225.109 231.444 225.111 231.182 225.113C230.903 225.11 230.625 225.107 230.338 225.105C230.044 225.105 229.75 225.106 229.447 225.106C228.473 225.107 227.5 225.102 226.526 225.096C225.852 225.095 225.177 225.095 224.503 225.095C223.089 225.093 221.674 225.089 220.26 225.083C218.443 225.074 216.626 225.071 214.809 225.07C213.416 225.069 212.023 225.066 210.631 225.062C209.96 225.06 209.29 225.059 208.62 225.058C207.685 225.056 206.751 225.052 205.817 225.047C205.537 225.047 205.257 225.047 204.969 225.046C204.716 225.045 204.463 225.043 204.202 225.041C203.981 225.04 203.76 225.04 203.532 225.039C203.027 225 203.027 225 202.734 224.707C202.705 224.073 202.696 223.438 202.698 222.803C202.697 222.455 202.696 222.108 202.695 221.75C202.754 220.461 203.054 220.569 204.226 220.568Z" fill="black"/>
<path d="M62.4023 205.957C64.093 205.922 65.7113 205.982 67.3828 206.25C67.6758 206.543 67.6758 206.543 67.7168 207.67C67.6978 209.307 67.5121 210.914 67.3119 212.537C67.2742 212.849 67.2366 213.161 67.1978 213.482C67.1183 214.138 67.038 214.793 66.9569 215.448C66.8333 216.451 66.7137 217.455 66.5943 218.458C66.5164 219.097 66.4382 219.735 66.3597 220.374C66.3243 220.673 66.2889 220.973 66.2524 221.282C66.2172 221.561 66.1821 221.839 66.1458 222.127C66.1159 222.371 66.086 222.616 66.0552 222.867C65.9125 223.562 65.6771 224.091 65.332 224.707C64.5569 224.715 63.7818 224.721 63.0066 224.726C62.7855 224.728 62.5644 224.731 62.3365 224.733C61.7725 224.736 61.2084 224.723 60.6445 224.707C60.5479 224.611 60.4512 224.514 60.3516 224.414C60.3593 223.713 60.3884 223.025 60.434 222.326C60.4477 222.106 60.4614 221.886 60.4756 221.66C60.6581 218.959 60.9646 216.271 61.2764 213.583C61.3786 212.7 61.478 211.817 61.5772 210.934C61.6415 210.371 61.706 209.808 61.7706 209.245C61.8002 208.982 61.8299 208.719 61.8604 208.447C61.8887 208.205 61.9171 207.963 61.9463 207.714C61.9708 207.501 61.9953 207.289 62.0205 207.07C62.1094 206.543 62.1094 206.543 62.4023 205.957Z" fill="black"/>
<path d="M119.11 221.759C119.464 221.768 119.464 221.768 119.825 221.777C119.631 222.26 119.438 222.744 119.239 223.242C119.045 223.242 118.852 223.242 118.653 223.242C118.459 223.532 118.266 223.822 118.067 224.121C118.054 223.437 118.055 222.754 118.067 222.07C118.36 221.777 118.36 221.777 119.11 221.759Z" fill="black"/>
</svg>
