<svg width="300" height="300" viewBox="0 0 300 300" fill="none" xmlns="http://www.w3.org/2000/svg">
<path d="M254.938 8.09354C255.47 8.08107 255.47 8.08107 256.013 8.06836C258.726 8.23494 261.212 9.70024 263.508 11.0415C263.776 11.1969 264.044 11.3523 264.32 11.5124C266.374 12.72 268.278 14.0095 270.118 15.5276C270.276 15.6572 270.435 15.7868 270.598 15.9203C274.256 18.9196 276.441 21.3206 278.229 25.7083C278.319 25.9254 278.41 26.1426 278.502 26.3663C279.764 29.4418 279.994 32.458 278.689 35.596C277.24 38.4763 275.063 40.233 272.075 41.3775C271.251 41.613 270.495 41.679 269.642 41.7483C267.214 42.1076 265.561 43.6833 263.717 45.1916C262.871 45.8786 262.009 46.5428 261.146 47.2082C260.481 47.7217 259.819 48.2381 259.157 48.7555C258.031 49.6355 256.903 50.5129 255.774 51.3892C255.329 51.735 254.885 52.0813 254.441 52.4282C253.43 53.2173 252.417 54.001 251.39 54.7671C249.182 56.4257 247.48 58.1393 245.801 60.3518C245.202 61.1007 244.595 61.843 243.989 62.5857C243.663 62.987 243.337 63.3883 243.011 63.7896C241.789 65.2919 240.556 66.785 239.323 68.2784C238.427 69.3644 237.539 70.4549 236.664 71.5579C235.796 72.6519 234.898 73.7184 233.991 74.7805C232.876 76.0862 231.801 77.4149 230.75 78.7722C229.445 80.455 228.074 82.0688 226.672 83.671C225.297 85.2437 223.969 86.8514 222.657 88.4768C221.23 90.2394 219.783 91.9803 218.299 93.6953C217.105 95.0759 215.956 96.4819 214.838 97.9251C213.709 99.3827 212.53 100.766 211.281 102.125C210.385 103.121 209.548 104.161 208.704 105.202C207.957 106.118 207.198 107.022 206.434 107.923C206.299 108.082 206.164 108.24 206.026 108.404C205.474 109.054 204.923 109.703 204.371 110.352C202.988 111.979 201.61 113.608 200.263 115.265C199.104 116.69 197.911 118.084 196.712 119.475C195.824 120.508 194.951 121.55 194.092 122.608C193.087 123.846 192.058 125.061 191.016 126.27C189.75 127.739 188.51 129.226 187.287 130.732C185.876 132.454 184.426 134.144 182.984 135.84C181.602 137.467 180.223 139.096 178.876 140.753C177.717 142.179 176.524 143.573 175.325 144.964C174.442 145.99 173.576 147.026 172.724 148.078C171.513 149.57 170.256 151.019 168.993 152.467C167.608 154.059 166.265 155.681 164.942 157.324C165.724 158.251 166.507 159.169 167.335 160.054C180.681 174.315 187.852 193.61 187.867 213.043C187.867 213.391 187.867 213.391 187.867 213.745C187.839 234.564 179.391 253.116 165.235 268.067C165.027 268.287 164.82 268.507 164.606 268.734C163.304 270.075 161.899 271.251 160.441 272.419C159.801 272.94 159.194 273.476 158.588 274.036C145.485 285.588 126.472 291.381 109.26 291.303C109.012 291.302 108.764 291.302 108.509 291.301C104.32 291.286 100.227 291.052 96.0944 290.332C95.6667 290.259 95.6667 290.259 95.2304 290.185C81.0896 287.689 67.5094 281.369 56.9099 271.602C56.3285 271.068 55.7357 270.555 55.1337 270.044C52.3121 267.577 49.76 264.874 47.4616 261.914C47.2275 261.62 46.9933 261.325 46.7521 261.022C40.7438 253.411 36.294 244.796 33.3991 235.547C33.2894 235.199 33.2894 235.199 33.1774 234.844C32.3821 232.278 31.785 229.691 31.2934 227.051C31.2253 226.687 31.2253 226.687 31.1558 226.315C30.3388 221.667 30.0659 217.078 30.0849 212.366C30.0854 212.09 30.086 211.814 30.0865 211.53C30.1003 207.273 30.2723 203.12 31.0554 198.926C31.1025 198.658 31.1497 198.39 31.1983 198.115C32.4296 191.265 34.7128 184.651 37.7936 178.418C37.9521 178.096 37.9521 178.096 38.1138 177.767C40.3821 173.203 43.1381 168.945 46.2897 164.942C46.4963 164.678 46.7029 164.415 46.9157 164.144C50.387 159.813 54.2401 155.788 58.5944 152.344C58.9015 152.092 59.2082 151.839 59.5145 151.586C68.6639 144.109 79.6341 139.452 91.1689 137.183C91.6118 137.096 91.6118 137.096 92.0636 137.006C96.6897 136.143 101.282 135.817 105.982 135.828C106.371 135.828 106.371 135.828 106.768 135.828C117.785 135.859 128.759 138.109 138.817 142.678C139.549 143.001 140.167 143.263 140.975 143.26C141.764 142.827 142.184 142.233 142.731 141.522C143.61 140.408 144.501 139.328 145.46 138.282C146.372 137.28 147.244 136.259 148.096 135.205C149.154 133.897 150.26 132.648 151.393 131.405C152.07 130.644 152.712 129.863 153.352 129.071C154.483 127.673 155.677 126.348 156.895 125.025C157.601 124.237 158.272 123.431 158.936 122.608C159.831 121.499 160.755 120.433 161.719 119.385C162.925 118.076 164.055 116.722 165.172 115.337C165.808 114.567 166.466 113.825 167.139 113.086C168.052 112.085 168.924 111.063 169.776 110.01C170.834 108.702 171.94 107.452 173.073 106.209C173.749 105.449 174.392 104.668 175.031 103.876C176.162 102.478 177.356 101.153 178.573 99.8305C179.516 98.7799 180.399 97.6857 181.285 96.5873C182.129 95.5646 183.021 94.5903 183.914 93.6107C184.584 92.8565 185.22 92.0824 185.853 91.2967C186.931 89.9628 188.065 88.7012 189.233 87.4465C190.347 86.2422 191.38 84.9839 192.409 83.7058C193.326 82.5974 194.303 81.548 195.277 80.49C195.966 79.7225 196.616 78.9362 197.26 78.1314C198.454 76.6504 199.732 75.2697 201.035 73.886C202.226 72.6147 203.333 71.295 204.422 69.9351C205.149 69.0562 205.913 68.2176 206.69 67.3831C207.701 66.2966 208.672 65.1902 209.601 64.0323C210.588 62.8062 211.621 61.6458 212.696 60.4983C214.008 59.097 215.24 57.6541 216.443 56.1564C217.123 55.3325 217.832 54.5458 218.555 53.76C219.515 52.718 220.432 51.659 221.32 50.5557C222.264 49.3854 223.245 48.2682 224.268 47.1682C225.531 45.8114 226.715 44.4099 227.875 42.9637C228.515 42.1892 229.186 41.457 229.871 40.7229C230.942 39.5456 231.776 38.3329 232.603 36.9773C233.351 35.8051 234.161 34.6865 234.98 33.5635C236.568 31.3846 238.129 29.1882 239.656 26.9661C240.377 25.9236 241.091 24.9002 241.928 23.947C243.628 21.9709 244.034 20.3956 244.331 17.8756C244.676 15.0481 245.736 12.6229 247.875 10.6822C250.019 9.0523 252.227 8.12211 254.938 8.09354ZM252.833 16.4065C252.051 17.5791 252.002 18.5432 252.247 19.9221C252.886 20.7295 253.381 21.2217 254.298 21.68C255.459 21.7895 256.143 21.794 257.172 21.2222C257.996 20.3038 258.233 19.6805 258.399 18.4573C258.067 17.2851 257.78 16.624 256.843 15.8389C255.266 15.2156 254.181 15.3956 252.833 16.4065ZM249.024 26.9534C248.924 27.1045 248.825 27.2556 248.722 27.4112C246.48 30.8036 244.199 34.1648 241.869 37.4976C240.516 39.4344 239.184 41.382 237.891 43.3596C238.278 43.553 238.665 43.7464 239.063 43.9456C241.239 41.069 243.266 38.109 245.254 35.0997C246.59 33.0817 247.963 31.1022 249.398 29.1541C249.943 28.432 249.943 28.432 250.196 27.5393C249.809 27.346 249.423 27.1526 249.024 26.9534ZM266.016 29.2971C265.505 30.3193 265.558 31.4046 265.723 32.5198C266.311 33.4015 266.738 33.8395 267.756 34.1678C268.744 34.3474 269.431 34.3201 270.356 33.9297C271.41 33.0561 271.833 32.6185 271.986 31.2198C271.869 30.1155 271.669 29.5824 270.997 28.7112C269.284 27.5691 267.435 27.7898 266.016 29.2971ZM260.157 35.4495C259.898 35.6727 259.64 35.8959 259.373 36.1258C257.217 37.9821 255.043 39.8106 252.833 41.6018C251.059 43.043 249.293 44.493 247.541 45.9597C247.377 46.0958 247.212 46.2319 247.043 46.3722C246.303 46.9949 245.757 47.5286 245.216 48.3401C245.506 48.5335 245.796 48.7268 246.094 48.9261C246.343 48.7097 246.591 48.4933 246.847 48.2703C248.616 46.738 250.396 45.2321 252.247 43.7991C253.852 42.5559 255.4 41.2599 256.934 39.9307C258.369 38.69 259.836 37.4981 261.329 36.3284C260.942 36.0384 260.555 35.7483 260.157 35.4495ZM235.255 45.4104C234.689 46.0011 234.175 46.5896 233.662 47.2232C233.347 47.601 233.032 47.9782 232.716 48.355C232.474 48.6443 232.474 48.6443 232.227 48.9394C231.472 49.8245 230.684 50.6762 229.89 51.5262C228.797 52.6993 227.719 53.8812 226.67 55.0944C226.086 55.763 225.488 56.4179 224.891 57.0742C223.98 58.0824 223.107 59.1106 222.254 60.1687C221.034 61.6764 219.742 63.1001 218.425 64.5221C216.342 66.7768 214.381 69.1383 212.403 71.4846C212.806 71.9363 212.806 71.9363 213.282 72.3636C213.475 72.3636 213.669 72.3636 213.868 72.3636C214.264 71.9207 214.638 71.4588 215.003 70.9903C216.043 69.6879 217.121 68.451 218.262 67.2366C219.332 66.0955 220.359 64.9417 221.339 63.721C222.318 62.5003 223.346 61.3467 224.415 60.2054C225.72 58.8116 226.943 57.3758 228.14 55.8864C229.143 54.6755 230.213 53.5294 231.281 52.3764C232.058 51.5344 232.814 50.6773 233.564 49.8118C234.602 48.6252 235.663 47.4589 236.719 46.2893C236.429 45.8543 236.429 45.8543 236.133 45.4104C235.843 45.4104 235.553 45.4104 235.255 45.4104ZM237.35 47.4028C237.029 47.7671 237.029 47.7671 236.701 48.1387C236.464 48.4072 236.228 48.6757 235.984 48.9524C235.3 49.7517 234.634 50.5616 233.973 51.3797C232.895 52.7133 231.761 53.9746 230.594 55.2292C229.473 56.4404 228.432 57.7049 227.397 58.99C226.765 59.7579 226.11 60.4958 225.44 61.2307C224.533 62.2257 223.667 63.241 222.822 64.2886C221.694 65.6836 220.503 67.0055 219.288 68.3249C218.302 69.4234 217.374 70.5642 216.45 71.7147C215.919 72.3636 215.919 72.3636 215.333 72.9495C215.333 73.2395 215.333 73.5296 215.333 73.8284C215.816 73.9251 216.299 74.0218 216.798 74.1214C216.957 73.9227 217.117 73.7241 217.282 73.5194C218.415 72.1202 219.557 70.7459 220.771 69.4156C221.606 68.499 222.403 67.5698 223.17 66.5957C224.629 64.7449 226.188 62.9815 227.736 61.2051C228.495 60.3323 229.248 59.4543 229.999 58.5757C230.143 58.4075 230.287 58.2394 230.436 58.0661C230.87 57.5586 231.305 57.0509 231.739 56.5432C234.17 53.7018 236.612 50.8705 239.063 48.0471C238.773 47.4671 238.773 47.4671 238.477 46.8753C237.835 46.8071 237.835 46.8071 237.35 47.4028ZM239.987 49.1607C238.592 50.7422 237.24 52.3496 235.914 53.9889C235.274 54.7624 234.612 55.5083 233.936 56.2503C232.811 57.4866 231.75 58.764 230.699 60.0634C229.888 61.0513 229.058 62.0208 228.223 62.9886C226.964 64.4498 225.732 65.9297 224.517 67.4277C223.709 68.4075 222.882 69.3696 222.053 70.3311C220.652 71.9554 219.292 73.6045 217.969 75.2932C218.259 75.5833 218.549 75.8733 218.848 76.1721C220.396 74.9538 221.593 73.6216 222.821 72.0843C223.563 71.1573 224.323 70.2477 225.092 69.3423C225.227 69.1839 225.361 69.0254 225.499 68.8622C226.648 67.5094 227.804 66.1628 228.959 64.816C230.921 62.5286 232.88 60.2391 234.778 57.8982C236.304 56.0236 237.894 54.2065 239.482 52.385C240.226 51.5288 240.963 50.6671 241.7 49.805C241.41 49.2249 241.41 49.2249 241.114 48.6331C240.472 48.5649 240.472 48.5649 239.987 49.1607ZM242.872 50.3909C241.466 51.9382 240.124 53.5179 238.827 55.1574C238.097 56.0659 237.347 56.9556 236.591 57.8433C235.597 59.0121 234.612 60.1868 233.643 61.3772C232.675 62.5676 231.69 63.7424 230.695 64.9112C229.756 66.0152 228.831 67.126 227.93 68.262C227.03 69.398 226.104 70.5084 225.165 71.6128C225.03 71.7729 224.895 71.933 224.755 72.098C224.087 72.8884 223.415 73.6744 222.734 74.4532C222.369 74.8781 222.369 74.8781 221.998 75.3116C221.779 75.5627 221.56 75.8138 221.334 76.0726C220.823 76.7195 220.823 76.7195 220.977 77.4344C221.048 77.598 221.119 77.7615 221.192 77.93C222.15 77.8561 222.417 77.5828 223.101 76.8783C223.371 76.5537 223.638 76.2266 223.902 75.8975C224.044 75.7247 224.187 75.5519 224.333 75.3739C225.342 74.1461 226.331 72.9026 227.318 71.6575C228.039 70.7637 228.779 69.8875 229.523 69.0127C230.718 67.6082 231.895 66.1919 233.06 64.7624C233.953 63.6678 234.851 62.5773 235.749 61.4871C235.922 61.2766 236.096 61.0662 236.274 60.8494C237.18 59.7496 238.087 58.6506 238.995 57.5526C242.191 54.3565 242.191 54.3565 244.044 50.6839C243.657 50.5872 243.27 50.4905 242.872 50.3909ZM210.24 73.9016C208.807 75.341 207.472 76.8434 206.153 78.3873C205.71 78.9063 205.266 79.4253 204.822 79.9441C204.67 80.1223 204.518 80.3005 204.361 80.4841C203.474 81.5205 202.574 82.5424 201.655 83.5513C200.767 84.5283 199.921 85.5275 199.091 86.5542C197.946 87.9688 196.743 89.3164 195.513 90.6569C192.448 93.5329 192.448 93.5329 190.723 96.9729C191.11 97.0696 191.497 97.1663 191.895 97.2659C193.351 95.6944 194.781 94.1198 196.125 92.4502C197.197 91.1212 198.325 89.8659 199.488 88.617C200.358 87.6762 201.182 86.7114 201.984 85.7119C202.97 84.4859 204.004 83.3255 205.079 82.178C206.405 80.7611 207.657 79.3042 208.874 77.7903C209.728 76.7369 210.622 75.7198 211.524 74.7073C211.234 74.1272 211.234 74.1272 210.938 73.5354C210.59 73.5027 210.59 73.5027 210.24 73.9016ZM212.805 75.9856C211.439 77.362 210.204 78.8046 208.99 80.3161C208.297 81.1579 207.576 81.962 206.837 82.7639C205.631 84.0735 204.501 85.4272 203.384 86.8117C202.748 87.5824 202.09 88.3243 201.417 89.0628C200.301 90.2884 199.251 91.5554 198.209 92.8439C196.735 94.648 195.185 96.3902 193.653 98.1448C193.846 98.5315 194.04 98.9182 194.239 99.3167C195.486 98.8558 196.184 97.913 197.004 96.918C197.318 96.5444 197.632 96.171 197.946 95.7976C198.188 95.5079 198.188 95.5079 198.435 95.2124C199.223 94.2765 200.027 93.3546 200.831 92.4319C202.057 91.0202 203.277 89.6045 204.493 88.1839C205.865 86.5796 207.246 84.9825 208.63 83.3885C209.44 82.4552 210.248 81.5199 211.05 80.5804C211.21 80.3937 211.369 80.2069 211.534 80.0145C211.837 79.6596 212.139 79.3045 212.441 78.9491C213.088 78.1915 213.732 77.4455 214.454 76.7581C214.164 76.178 214.164 76.178 213.868 75.5862C213.253 75.5235 213.253 75.5235 212.805 75.9856ZM215.919 77.344C214.397 79.1331 212.877 80.9221 211.396 82.7456C209.667 84.8681 207.873 86.9343 206.086 89.0076C204.4 90.9646 202.729 92.9281 201.109 94.9405C200.542 95.6204 199.965 96.28 199.372 96.9363C199.195 97.1333 199.019 97.3303 198.837 97.5332C198.487 97.9229 198.134 98.31 197.777 98.6941C197.618 98.8719 197.459 99.0498 197.295 99.2331C197.078 99.4693 197.078 99.4693 196.857 99.7103C196.524 100.194 196.524 100.194 196.63 100.823C196.711 101.003 196.792 101.182 196.876 101.367C197.166 101.464 197.456 101.561 197.755 101.66C197.946 101.433 198.138 101.206 198.336 100.971C199.807 99.2295 201.284 97.4927 202.772 95.7644C203.795 94.5746 204.805 93.3767 205.793 92.1573C207.007 90.6617 208.267 89.2104 209.532 87.7589C210.678 86.4413 211.792 85.1021 212.888 83.7424C213.422 83.0953 213.964 82.4614 214.518 81.8313C214.68 81.6458 214.842 81.4604 215.009 81.2694C215.329 80.9048 215.651 80.5417 215.975 80.1804C216.883 79.2041 216.883 79.2041 217.091 77.93C216.704 77.7366 216.317 77.5432 215.919 77.344ZM218.848 79.3948C217.118 81.1702 215.527 83.0679 213.97 84.9955C213.215 85.9222 212.445 86.8342 211.671 87.7444C210.462 89.1662 209.275 90.6032 208.098 92.0508C207.358 92.9498 206.604 93.8353 205.848 94.7207C204.555 96.2377 203.31 97.7877 202.088 99.3622C201.902 99.602 201.902 99.602 201.712 99.8465C201.592 100.002 201.473 100.157 201.349 100.317C201.091 100.639 200.823 100.954 200.548 101.261C200.182 101.67 199.845 102.103 199.512 102.539C199.609 102.829 199.706 103.119 199.805 103.418C200.888 103.254 201.317 102.867 202.021 102.045C202.224 101.808 202.427 101.571 202.637 101.326C203.553 100.205 204.442 99.064 205.33 97.9199C206.348 96.6153 207.425 95.3833 208.544 94.1646C209.44 93.1692 210.277 92.13 211.119 91.0895C211.878 90.1602 212.651 89.2443 213.428 88.3304C215.675 85.6847 217.858 82.9892 220.02 80.2737C219.734 79.9746 219.44 79.6817 219.141 79.3948C219.045 79.3948 218.948 79.3948 218.848 79.3948ZM187.794 99.5547C186.666 100.696 185.67 101.928 184.665 103.177C184.019 103.963 183.352 104.718 182.667 105.469C181.286 106.983 179.996 108.56 178.712 110.157C178.905 110.543 179.098 110.93 179.298 111.328C180.377 110.969 180.616 110.571 181.312 109.68C182.411 108.303 183.54 106.961 184.699 105.634C186.345 103.746 187.958 101.834 189.551 99.9026C189.358 99.5159 189.165 99.1292 188.966 98.7307C188.441 98.7307 188.151 99.2019 187.794 99.5547ZM191.602 100.782C189.691 102.816 187.832 104.863 186.084 107.04C185.228 108.083 184.324 109.078 183.412 110.072C182.794 110.764 182.215 111.478 181.641 112.207C181.835 112.594 182.028 112.981 182.227 113.379C183.482 112.918 184.186 111.962 185.01 110.962C185.323 110.59 185.636 110.218 185.949 109.845C186.108 109.654 186.268 109.463 186.432 109.266C187.048 108.533 187.673 107.809 188.299 107.085C189.833 105.309 191.326 103.508 192.774 101.66C192.387 101.37 192.001 101.08 191.602 100.782ZM194.532 102.832C192.965 104.54 191.459 106.281 190.002 108.083C188.942 109.369 187.846 110.624 186.747 111.877C185.259 113.334 185.259 113.334 184.571 115.137C184.958 115.33 185.344 115.524 185.743 115.723C189.109 111.854 192.427 107.949 195.704 104.004C195.317 103.617 194.93 103.231 194.532 102.832ZM197.462 104.883C195.677 106.947 193.902 109.012 192.213 111.157C191.735 111.75 191.249 112.332 190.753 112.91C190.606 113.082 190.459 113.254 190.307 113.431C190.016 113.768 189.725 114.105 189.432 114.441C188.812 115.161 188.39 115.691 188.087 116.602C187.797 116.747 187.797 116.747 187.501 116.895C187.887 117.185 188.274 117.475 188.673 117.774C190.401 116.145 191.875 114.35 193.36 112.5C193.799 111.963 194.238 111.426 194.678 110.889C194.893 110.626 195.107 110.364 195.327 110.094C195.798 109.52 196.272 108.949 196.749 108.379C196.99 108.09 197.231 107.8 197.48 107.501C197.701 107.238 197.922 106.975 198.149 106.704C198.692 106.112 198.692 106.112 198.633 105.469C198.247 105.276 197.86 105.082 197.462 104.883ZM176.368 112.793C175.949 113.217 175.548 113.66 175.159 114.112C174.947 114.356 174.735 114.601 174.516 114.853C174.354 115.044 174.191 115.234 174.024 115.43C174.121 115.72 174.217 116.01 174.317 116.309C174.607 116.406 174.897 116.502 175.196 116.602C175.969 115.635 176.743 114.668 177.54 113.672C177.346 113.382 177.153 113.092 176.954 112.793C176.76 112.793 176.567 112.793 176.368 112.793ZM179.298 114.844C178.879 115.268 178.478 115.711 178.089 116.162C177.877 116.407 177.665 116.652 177.446 116.904C177.284 117.094 177.121 117.285 176.954 117.481C177.147 117.867 177.341 118.254 177.54 118.653C178.48 118.248 179.019 117.796 179.664 117.005C179.816 116.82 179.969 116.635 180.126 116.444C180.239 116.303 180.353 116.161 180.469 116.016C180.276 115.629 180.083 115.242 179.883 114.844C179.69 114.844 179.497 114.844 179.298 114.844ZM181.629 117.765C181.421 118.009 181.214 118.254 181 118.506C180.686 118.873 180.686 118.873 180.365 119.248C180.127 119.533 180.127 119.533 179.883 119.824C180.27 120.211 180.657 120.598 181.055 120.996C182.12 119.99 182.919 119.005 183.692 117.774C183.499 117.58 183.305 117.387 183.106 117.188C182.194 117.086 182.194 117.086 181.629 117.765ZM171.68 118.067C171.433 118.339 171.185 118.611 170.93 118.891C170.79 119.044 170.651 119.197 170.507 119.354C170.411 119.509 170.315 119.665 170.216 119.824C170.312 120.115 170.409 120.405 170.508 120.703C171.439 120.604 171.687 120.403 172.34 119.696C172.907 119.016 172.907 119.016 172.852 118.36C172.466 118.263 172.079 118.166 171.68 118.067ZM185.45 119.239C185.029 119.712 184.629 120.203 184.241 120.703C183.923 121.111 183.923 121.111 183.598 121.527C183.436 121.739 183.273 121.95 183.106 122.168C183.396 122.603 183.396 122.603 183.692 123.047C184.633 122.642 185.171 122.19 185.816 121.399C185.969 121.214 186.121 121.029 186.278 120.838C186.392 120.697 186.505 120.556 186.622 120.41C186.428 120.024 186.235 119.637 186.036 119.239C185.842 119.239 185.649 119.239 185.45 119.239ZM174.61 120.117C173.545 121.137 173.545 121.137 173.145 122.461C173.725 122.751 173.725 122.751 174.317 123.047C174.8 122.467 175.284 121.887 175.782 121.289C175.589 120.903 175.395 120.516 175.196 120.117C175.003 120.117 174.809 120.117 174.61 120.117ZM167.872 122.461C167.388 123.041 166.905 123.621 166.407 124.219C166.697 124.509 166.987 124.799 167.286 125.098C168.361 124.362 168.361 124.362 168.989 123.267C169.007 123.098 169.025 122.928 169.044 122.754C168.657 122.658 168.27 122.561 167.872 122.461ZM177.833 122.461C177.253 123.138 176.673 123.815 176.075 124.512C176.365 124.802 176.655 125.092 176.954 125.391C177.147 125.391 177.341 125.391 177.54 125.391C178.605 124.371 178.605 124.371 179.005 123.047C178.618 122.854 178.231 122.66 177.833 122.461ZM170.801 124.512C170.318 125.092 169.835 125.672 169.337 126.27C169.627 126.705 169.627 126.705 169.923 127.149C170.73 127.037 171.042 126.912 171.607 126.306C172.048 125.678 172.048 125.678 171.973 124.805C171.587 124.708 171.2 124.612 170.801 124.512ZM181.055 124.512C180.475 125.189 179.895 125.866 179.298 126.563C179.588 126.998 179.588 126.998 179.883 127.442C180.434 127.428 180.434 127.428 181.055 127.149C181.718 126.276 181.718 126.276 182.227 125.391C181.841 125.101 181.454 124.811 181.055 124.512ZM164.356 126.563C163.728 127.069 163.728 127.069 163.184 127.735C163.224 128.385 163.224 128.385 163.477 128.907C163.767 128.907 164.057 128.907 164.356 128.907C165.004 128.045 165.004 128.045 165.528 127.149C165.141 126.955 164.755 126.762 164.356 126.563ZM174.024 126.856C173.522 127.43 173.033 128.016 172.559 128.614C172.849 129.049 172.849 129.049 173.145 129.492C173.99 129.114 174.573 128.713 175.196 128.028C175.003 127.641 174.809 127.254 174.61 126.856C174.417 126.856 174.223 126.856 174.024 126.856ZM166.993 128.907C166.436 129.413 166.436 129.413 166.114 130.078C166.211 130.368 166.307 130.658 166.407 130.957C166.697 131.054 166.987 131.151 167.286 131.25C167.909 130.575 167.909 130.575 168.458 129.785C168.361 129.495 168.264 129.205 168.165 128.907C167.778 128.907 167.391 128.907 166.993 128.907ZM177.247 128.907C176.763 129.487 176.28 130.067 175.782 130.664C176.165 131.579 176.165 131.579 176.954 132.129C177.316 131.721 177.316 131.721 177.686 131.305C177.822 131.152 177.958 130.999 178.098 130.842C178.501 130.345 178.501 130.345 178.419 129.492C178.032 129.299 177.645 129.106 177.247 128.907ZM161.133 130.371C160.261 131.278 160.261 131.278 159.962 132.422C160.348 132.519 160.735 132.616 161.133 132.715C161.52 132.135 161.907 131.555 162.305 130.957C161.919 130.764 161.532 130.571 161.133 130.371ZM170.508 130.957C170.025 131.537 169.542 132.117 169.044 132.715C169.334 133.005 169.624 133.295 169.923 133.594C170.799 133.272 171.049 133.103 171.461 132.239C171.569 131.895 171.569 131.895 171.68 131.543C171.294 131.35 170.907 131.157 170.508 130.957ZM163.77 132.715C163.335 133.295 163.335 133.295 162.891 133.887C163.085 134.274 163.278 134.66 163.477 135.059C164.354 134.737 164.604 134.568 165.015 133.704C165.088 133.474 165.16 133.245 165.235 133.008C164.752 132.911 164.268 132.815 163.77 132.715ZM173.731 133.301C173.103 133.807 173.103 133.807 172.559 134.473C172.599 135.123 172.599 135.123 172.852 135.645C173.239 135.645 173.626 135.645 174.024 135.645C174.581 135.138 174.581 135.138 174.903 134.473C174.806 134.183 174.71 133.893 174.61 133.594C174.32 133.497 174.03 133.401 173.731 133.301ZM157.911 134.18C157.307 134.711 157.307 134.711 156.739 135.352C156.739 135.642 156.739 135.932 156.739 136.231C157.126 136.327 157.512 136.424 157.911 136.524C158.298 136.04 158.684 135.557 159.083 135.059C158.696 134.769 158.309 134.479 157.911 134.18ZM166.993 135.059C166.493 135.627 166.493 135.627 166.114 136.231C166.307 136.617 166.501 137.004 166.7 137.403C167.795 137.038 167.927 136.631 168.458 135.645C168.264 135.451 168.071 135.258 167.872 135.059C167.582 135.059 167.292 135.059 166.993 135.059ZM160.841 136.524C160.438 136.902 160.047 137.293 159.669 137.696C159.669 137.889 159.669 138.082 159.669 138.282C160.249 138.572 160.249 138.572 160.841 138.867C161.227 138.287 161.614 137.707 162.012 137.11C161.626 136.916 161.239 136.723 160.841 136.524ZM170.216 137.403C169.568 138.265 169.568 138.265 169.044 139.16C169.769 139.45 169.769 139.45 170.508 139.746C170.895 139.166 171.282 138.586 171.68 137.989C171.487 137.795 171.294 137.602 171.094 137.403C170.804 137.403 170.514 137.403 170.216 137.403ZM154.066 138.574C153.884 138.768 153.703 138.961 153.516 139.16C153.613 139.45 153.71 139.741 153.809 140.039C154.099 140.136 154.389 140.233 154.688 140.332C155.075 139.849 155.462 139.366 155.86 138.867C155.667 138.577 155.473 138.287 155.274 137.989C154.617 137.922 154.617 137.922 154.066 138.574ZM163.77 138.867C163.059 139.635 163.059 139.635 162.891 140.625C163.471 140.915 163.471 140.915 164.063 141.211C164.45 140.824 164.837 140.438 165.235 140.039C165.042 139.653 164.848 139.266 164.649 138.867C164.359 138.867 164.069 138.867 163.77 138.867ZM157.618 140.332C157.213 140.809 156.821 141.297 156.446 141.797C157.171 142.232 157.171 142.232 157.911 142.676C158.201 142.289 158.491 141.903 158.79 141.504C158.596 141.117 158.403 140.731 158.204 140.332C158.01 140.332 157.817 140.332 157.618 140.332ZM166.993 141.211C166.558 141.791 166.558 141.791 166.114 142.383C166.307 142.77 166.501 143.157 166.7 143.555C167.468 143.248 167.811 143.072 168.238 142.346C168.31 142.165 168.383 141.984 168.458 141.797C167.733 141.507 167.733 141.507 166.993 141.211ZM151.466 141.797C150.821 142.512 150.821 142.512 150.294 143.262C151.019 143.552 151.019 143.552 151.758 143.848C152.236 143.318 152.236 143.318 152.637 142.676C152.541 142.386 152.444 142.096 152.344 141.797C152.054 141.797 151.764 141.797 151.466 141.797ZM160.841 142.383C160.26 143.253 160.26 143.253 159.669 144.141C160.055 144.431 160.442 144.721 160.841 145.02C161.227 144.536 161.614 144.053 162.012 143.555C161.626 143.168 161.239 142.782 160.841 142.383ZM154.688 143.848C154.301 144.235 153.915 144.621 153.516 145.02C153.613 145.31 153.71 145.6 153.809 145.899C154.099 145.995 154.389 146.092 154.688 146.192C155.091 145.814 155.481 145.422 155.86 145.02C155.86 144.826 155.86 144.633 155.86 144.434C155.473 144.241 155.087 144.047 154.688 143.848ZM163.77 145.02C163.267 145.736 163.267 145.736 162.891 146.485C163.278 146.775 163.665 147.065 164.063 147.364C164.45 146.977 164.837 146.59 165.235 146.192C165.042 145.805 164.848 145.418 164.649 145.02C164.359 145.02 164.069 145.02 163.77 145.02ZM148.536 145.313C148.133 145.691 147.743 146.082 147.364 146.485C147.364 146.678 147.364 146.871 147.364 147.071C147.944 147.361 147.944 147.361 148.536 147.657C148.923 147.27 149.309 146.883 149.708 146.485C149.611 146.195 149.514 145.905 149.415 145.606C149.125 145.509 148.835 145.412 148.536 145.313ZM157.618 146.192C157.141 146.722 157.141 146.722 156.739 147.364C156.836 147.654 156.932 147.944 157.032 148.242C157.622 148.457 157.622 148.457 158.204 148.535C158.89 147.752 158.89 147.752 159.083 146.778C158.358 146.488 158.358 146.488 157.618 146.192ZM151.466 147.657C151.061 148.133 150.669 148.621 150.294 149.121C151.019 149.556 151.019 149.556 151.758 150C152.049 149.614 152.339 149.227 152.637 148.828C152.444 148.442 152.251 148.055 152.051 147.657C151.858 147.657 151.665 147.657 151.466 147.657ZM160.841 148.535C160.361 149.11 160.361 149.11 159.962 149.707C160.155 150.094 160.348 150.481 160.548 150.879C161.474 150.478 161.717 150.296 162.305 149.414C161.903 148.963 161.903 148.963 161.426 148.535C161.233 148.535 161.04 148.535 160.841 148.535ZM145.313 148.828C144.878 149.553 144.878 149.553 144.434 150.293C144.628 150.487 144.821 150.68 145.02 150.879C145.623 150.875 145.623 150.875 146.192 150.586C146.568 150.005 146.568 150.005 146.778 149.414C146.053 149.124 146.053 149.124 145.313 148.828ZM154.688 150C154.23 150.385 154.23 150.385 153.809 150.879C153.809 151.169 153.809 151.459 153.809 151.758C154.534 151.903 154.534 151.903 155.274 152.051C155.564 151.568 155.854 151.084 156.153 150.586C155.428 150.296 155.428 150.296 154.688 150ZM148.536 151.172C148.101 151.897 148.101 151.897 147.657 152.637C147.85 152.83 148.044 153.024 148.243 153.223C148.533 153.223 148.823 153.223 149.122 153.223C149.315 152.74 149.508 152.256 149.708 151.758C149.321 151.565 148.934 151.371 148.536 151.172ZM142.383 152.344C141.87 152.941 141.357 153.539 140.845 154.138C140.702 154.305 140.558 154.472 140.409 154.644C139.518 155.69 138.728 156.752 137.989 157.91C138.472 158.007 138.956 158.104 139.454 158.203C140.854 156.469 142.232 154.724 143.555 152.93C143.169 152.737 142.782 152.543 142.383 152.344ZM157.911 152.344C157.429 152.704 157.429 152.704 157.032 153.223C157.099 153.857 157.099 153.857 157.325 154.395C157.712 154.395 158.098 154.395 158.497 154.395C158.69 153.911 158.883 153.428 159.083 152.93C158.696 152.737 158.309 152.543 157.911 152.344ZM151.758 153.516C151.372 153.999 150.985 154.483 150.587 154.981C150.78 155.174 150.973 155.367 151.173 155.567C151.775 155.563 151.775 155.563 152.344 155.274C152.721 154.693 152.721 154.693 152.93 154.102C152.544 153.908 152.157 153.715 151.758 153.516ZM145.606 154.688C145.03 155.339 144.457 155.992 143.885 156.647C143.722 156.83 143.559 157.014 143.392 157.203C142.547 158.174 141.884 158.998 141.505 160.254C141.891 160.351 142.278 160.448 142.676 160.547C144.104 158.828 145.51 157.114 146.778 155.274C146.391 155.08 146.005 154.887 145.606 154.688ZM154.981 155.86C154.504 156.39 154.504 156.39 154.102 157.032C154.199 157.322 154.296 157.612 154.395 157.91C154.685 158.007 154.975 158.104 155.274 158.203C155.961 157.42 155.961 157.42 156.153 156.446C155.766 156.252 155.38 156.059 154.981 155.86ZM69.1413 171.387C68.9773 171.541 68.8133 171.696 68.6443 171.855C59.7933 180.217 54.5997 191.141 52.4421 203.028C52.4032 203.237 52.3643 203.447 52.3242 203.663C50.1933 215.763 52.7893 228.646 58.5944 239.356C58.7598 239.662 58.9253 239.968 59.0957 240.284C60.7711 243.261 62.754 246.183 65.0397 248.731C65.2331 248.731 65.4265 248.731 65.6257 248.731C66.0378 248.187 66.0378 248.187 66.4462 247.473C66.6099 247.201 66.7736 246.928 66.9422 246.647C67.118 246.35 67.2939 246.052 67.475 245.746C67.8467 245.126 68.2187 244.506 68.5908 243.886C68.78 243.57 68.9692 243.254 69.164 242.928C70.0103 241.522 70.8749 240.127 71.7414 238.733C72.0531 238.231 72.3648 237.728 72.6764 237.226C72.8218 236.992 72.9673 236.757 73.1171 236.516C74.0419 235.023 74.9609 233.528 75.8796 232.032C77.4257 232.512 78.5968 233.487 79.8713 234.449C80.3695 234.82 80.8677 235.192 81.3659 235.563C81.6209 235.754 81.8759 235.945 82.1386 236.142C83.6008 237.235 85.0724 238.315 86.5427 239.396C86.7668 239.561 86.9909 239.726 87.2218 239.896C87.4359 240.053 87.65 240.211 87.8706 240.373C88.4223 240.78 88.9725 241.189 89.5221 241.599C89.9566 241.921 89.9566 241.921 90.3998 242.249C90.6419 242.429 90.884 242.61 91.1334 242.796C91.6691 243.218 91.6691 243.218 92.2858 243.164C90.6511 245.104 88.8844 246.897 87.0868 248.685C86.7875 248.984 86.4883 249.282 86.1891 249.581C85.4091 250.36 84.6281 251.138 83.847 251.916C83.0471 252.713 82.248 253.511 81.4489 254.309C79.8862 255.868 78.3227 257.427 76.7585 258.985C78.1198 260.417 79.4864 261.235 81.2263 262.134C81.5217 262.287 81.8172 262.44 82.1216 262.597C95.4304 269.294 111.019 270.889 125.245 266.254C132.682 263.712 139.442 259.973 145.228 254.619C145.816 254.08 146.419 253.576 147.034 253.07C156.942 244.378 162.345 230.318 163.323 217.455C164.266 202.528 159.749 187.549 149.88 176.184C149.056 175.255 148.216 174.342 147.364 173.438C145.173 175.609 143.185 177.899 141.299 180.336C140.328 181.584 139.319 182.791 138.282 183.985C137.125 185.317 136.01 186.672 134.931 188.068C133.627 189.754 132.253 191.367 130.849 192.97C129.778 194.195 128.748 195.444 127.741 196.723C126.894 197.779 126.015 198.807 125.138 199.838C124.284 200.844 123.441 201.858 122.608 202.881C121.639 204.072 120.655 205.246 119.66 206.415C118.721 207.519 117.796 208.63 116.895 209.766C116.019 210.871 115.118 211.952 114.204 213.025C112.936 214.518 111.677 216.018 110.432 217.53C110.185 217.824 110.185 217.824 109.934 218.125C109.13 219.107 108.488 219.959 108.106 221.192C108.82 221.717 109.534 222.242 110.248 222.766C110.451 222.915 110.653 223.064 110.861 223.217C111.154 223.433 111.154 223.433 111.454 223.652C111.633 223.784 111.813 223.916 111.997 224.052C112.451 224.378 112.915 224.69 113.38 225C112.957 226.217 112.354 227.139 111.585 228.168C111.373 228.454 111.161 228.74 110.942 229.034C110.698 229.358 110.698 229.358 110.45 229.688C108.817 228.812 107.409 227.785 105.964 226.63C103.747 224.881 101.486 223.21 99.1901 221.567C97.8065 220.576 96.4371 219.567 95.069 218.555C92.9932 217.021 90.907 215.501 88.8103 213.996C87.4166 212.993 86.0382 211.973 84.6686 210.938C84.7886 210.779 84.9086 210.62 85.0322 210.456C86.0055 209.165 86.957 207.862 87.8913 206.543C89.3647 207.035 90.4243 207.909 91.6164 208.883C92.0186 209.199 92.4441 209.485 92.8718 209.766C93.9558 209.405 94.2039 208.993 94.9042 208.1C95.9599 206.776 97.0381 205.48 98.1452 204.199C99.1868 202.991 100.216 201.776 101.221 200.537C102.227 199.299 103.256 198.084 104.298 196.875C105.563 195.407 106.803 193.921 108.025 192.416C108.91 191.336 109.814 190.273 110.718 189.209C111.562 188.215 112.393 187.212 113.215 186.2C114.374 184.775 115.567 183.381 116.766 181.989C117.649 180.964 118.515 179.928 119.367 178.876C120.569 177.396 121.813 175.957 123.065 174.519C124.372 173.018 125.662 171.503 126.944 169.979C127.488 169.333 128.037 168.691 128.59 168.052C130.091 166.31 131.511 164.564 132.716 162.598C111.308 152.628 86.59 154.676 69.1413 171.387ZM148.829 157.032C148.39 157.516 147.972 158.021 147.565 158.533C147.331 158.826 147.097 159.12 146.856 159.422C146.637 159.697 146.418 159.971 146.192 160.254C145.894 160.603 145.596 160.951 145.295 161.298C144.666 161.936 144.666 161.936 144.727 162.598C145.114 162.695 145.501 162.791 145.899 162.891C146.072 162.679 146.246 162.466 146.424 162.248C147.61 160.797 148.797 159.347 150.001 157.91C149.807 157.62 149.614 157.33 149.415 157.032C149.221 157.032 149.028 157.032 148.829 157.032ZM152.344 159.375C151.685 160.055 151.077 160.783 150.458 161.499C150.283 161.699 150.108 161.899 149.927 162.105C149.758 162.299 149.59 162.494 149.416 162.694C149.261 162.872 149.107 163.05 148.947 163.233C148.529 163.779 148.236 164.318 147.95 164.942C148.385 165.232 148.385 165.232 148.829 165.528C150.316 163.885 151.791 162.237 153.223 160.547C153.03 160.16 152.837 159.774 152.637 159.375C152.541 159.375 152.444 159.375 152.344 159.375ZM133.887 163.77C133.282 164.378 133.282 164.378 132.679 165.18C132.327 165.624 132.327 165.624 131.968 166.077C131.731 166.379 131.495 166.681 131.251 166.992C129.667 168.956 128.046 170.885 126.4 172.796C125.512 173.828 124.638 174.87 123.78 175.928C122.627 177.348 121.441 178.735 120.247 180.12C119.359 181.153 118.486 182.195 117.628 183.252C116.342 184.834 115.017 186.38 113.687 187.925C111.631 190.316 109.602 192.727 107.612 195.172C106.722 196.254 105.815 197.321 104.908 198.389C104.065 199.383 103.233 200.386 102.412 201.398C101.399 202.642 100.363 203.863 99.3171 205.078C99.0199 205.425 98.7227 205.773 98.4256 206.12C97.8674 206.772 97.3047 207.42 96.7387 208.065C96.3745 208.49 96.3745 208.49 96.0029 208.924C95.6783 209.296 95.6783 209.296 95.3471 209.677C94.8635 210.3 94.8635 210.3 94.959 210.92C95.312 211.751 95.7924 212.005 96.5522 212.476C96.7943 212.628 97.0363 212.781 97.2858 212.938C97.5662 213.108 97.5662 213.108 97.8522 213.282C97.9596 213.151 98.067 213.02 98.1776 212.885C99.9774 210.691 101.777 208.499 103.62 206.342C104.703 205.073 105.746 203.778 106.769 202.46C108.016 200.855 109.313 199.303 110.643 197.766C111.747 196.49 112.82 195.191 113.884 193.88C114.634 192.966 115.397 192.063 116.163 191.162C117.811 189.221 119.426 187.254 121.027 185.273C122.466 183.499 123.948 181.767 125.45 180.044C126.6 178.722 127.717 177.377 128.819 176.015C129.602 175.063 130.407 174.132 131.214 173.2C132.956 171.184 134.607 169.104 136.231 166.992C136.493 166.663 136.493 166.663 136.761 166.326C137.166 165.843 137.166 165.843 137.11 165.235C136.617 164.834 136.617 164.834 135.993 164.466C135.682 164.27 135.682 164.27 135.365 164.07C134.747 163.704 134.747 163.704 133.887 163.77ZM138.026 167.196C136.627 168.796 135.297 170.43 133.997 172.11C132.81 173.634 131.556 175.091 130.283 176.544C129.141 177.85 128.036 179.18 126.944 180.529C126.161 181.481 125.356 182.412 124.549 183.344C123.211 184.89 121.938 186.476 120.686 188.093C119.683 189.38 118.615 190.592 117.511 191.794C116.7 192.698 115.956 193.647 115.205 194.6C114.421 195.572 113.61 196.517 112.794 197.461C111.596 198.849 110.431 200.255 109.294 201.693C108.577 202.584 107.84 203.457 107.099 204.328C105.876 205.766 104.669 207.217 103.477 208.682C103.028 209.233 102.577 209.781 102.124 210.328C101.019 211.664 99.9406 212.979 99.0241 214.453C100.088 215.13 101.151 215.807 102.247 216.504C104.224 214.18 106.18 211.841 108.106 209.473C108.766 208.666 109.426 207.86 110.086 207.054C110.518 206.525 110.95 205.995 111.381 205.465C112.705 203.84 114.048 202.233 115.406 200.635C116.249 199.641 117.08 198.638 117.902 197.626C118.915 196.382 119.95 195.161 120.997 193.946C122.491 192.211 123.947 190.449 125.391 188.672C127.5 186.091 129.623 183.525 131.801 181.002C132.814 179.826 133.788 178.626 134.75 177.409C135.467 176.518 136.204 175.646 136.945 174.774C137.988 173.546 139.029 172.316 140.058 171.076C140.267 170.825 140.476 170.573 140.691 170.315C141.15 169.71 141.49 169.148 141.798 168.457C141.427 168.162 141.054 167.869 140.681 167.578C140.37 167.334 140.37 167.334 140.052 167.084C139.199 166.536 138.786 166.508 138.026 167.196ZM142.428 170.45C141.05 172.013 139.707 173.598 138.395 175.218C137.63 176.155 136.85 177.077 136.066 177.997C135.127 179.101 134.202 180.212 133.301 181.348C132.268 182.652 131.197 183.922 130.119 185.19C129.264 186.195 128.421 187.209 127.589 188.233C126.625 189.416 125.647 190.585 124.659 191.748C123.472 193.146 122.302 194.555 121.144 195.976C119.01 198.593 116.87 201.207 114.68 203.778C112.99 205.763 111.351 207.789 109.712 209.816C107.734 212.259 105.728 214.678 103.712 217.09C104.105 218.004 104.495 218.51 105.305 219.086C105.479 219.215 105.654 219.344 105.834 219.476C106.397 219.825 106.397 219.825 107.227 219.434C107.693 218.882 108.121 218.332 108.546 217.749C109.574 216.375 110.63 215.041 111.75 213.739C112.859 212.446 113.929 211.131 114.973 209.784C116.219 208.179 117.516 206.627 118.846 205.09C119.726 204.073 120.589 203.046 121.436 202.002C122.442 200.764 123.471 199.549 124.512 198.34C125.779 196.87 127.021 195.382 128.244 193.875C128.968 192.992 129.705 192.122 130.445 191.254C131.828 189.628 133.176 187.976 134.518 186.315C135.674 184.888 136.853 183.481 138.045 182.083C138.818 181.173 139.574 180.253 140.314 179.315C141.442 177.891 142.622 176.515 143.812 175.143C144.54 174.302 145.248 173.461 145.899 172.559C145.434 171.302 144.601 170.706 143.555 169.922C142.913 169.854 142.913 169.854 142.428 170.45Z" fill="black"/>
</svg>
