<svg width="300" height="300" viewBox="0 0 300 300" fill="none" xmlns="http://www.w3.org/2000/svg">
<path d="M132.095 30.0577C132.536 30.056 132.976 30.0539 133.416 30.0516C134.606 30.0463 135.796 30.0466 136.986 30.0483C137.982 30.0492 138.978 30.0474 139.974 30.0457C142.325 30.0416 144.675 30.042 147.026 30.0453C149.446 30.0487 151.866 30.0446 154.285 30.0367C156.368 30.0302 158.451 30.0283 160.533 30.03C161.775 30.031 163.016 30.0303 164.258 30.0253C165.426 30.0207 166.594 30.0219 167.762 30.0274C168.189 30.0285 168.616 30.0276 169.043 30.0245C171.842 30.0058 174.254 30.1829 176.539 31.9258C180.138 36.1307 179.634 41.2929 179.608 46.509C179.607 47.0294 179.605 47.5497 179.604 48.07C179.601 49.3319 179.596 50.5938 179.59 51.8557C179.828 51.8544 180.066 51.8531 180.311 51.8518C182.577 51.8399 184.843 51.8311 187.109 51.8254C188.273 51.8223 189.438 51.8182 190.602 51.8115C206.053 51.7247 206.053 51.7247 211.523 55.6643C211.71 55.7961 211.896 55.9279 212.088 56.0637C216.445 59.4594 218.71 64.9848 219.434 70.3127C219.632 72.74 219.591 75.1776 219.58 77.6109C219.581 78.3396 219.583 79.0683 219.585 79.797C219.589 81.373 219.588 82.9488 219.585 84.5248C219.58 86.8683 219.582 89.2118 219.584 91.5554C219.59 95.7422 219.588 99.9291 219.584 104.116C219.58 107.78 219.578 111.443 219.579 115.107C219.579 115.472 219.579 115.472 219.579 115.845C219.579 116.833 219.579 117.822 219.58 118.81C219.582 128.073 219.577 137.335 219.57 146.598C219.563 154.82 219.561 163.042 219.564 171.264C219.565 173.37 219.566 175.476 219.566 177.582C219.566 177.841 219.567 178.101 219.567 178.368C219.569 185.247 219.567 192.126 219.564 199.005C219.564 199.745 219.563 200.486 219.563 201.226C219.563 201.717 219.562 202.209 219.562 202.7C219.561 206.361 219.561 210.022 219.562 213.683C219.564 217.847 219.562 222.011 219.556 226.175C219.553 228.503 219.552 230.831 219.555 233.159C219.556 234.9 219.554 236.641 219.549 238.382C219.548 239.084 219.548 239.787 219.55 240.489C219.57 248.612 218.296 255.371 212.537 261.513C204.908 268.863 194.83 270.011 184.718 269.971C183.9 269.972 183.081 269.974 182.262 269.976C180.285 269.98 178.307 269.978 176.33 269.974C174.019 269.969 171.708 269.97 169.397 269.971C165.268 269.973 161.139 269.968 157.01 269.961C153.02 269.954 149.03 269.952 145.04 269.955C140.677 269.958 136.313 269.959 131.949 269.955C131.483 269.954 131.016 269.954 130.549 269.953C130.319 269.953 130.09 269.953 129.853 269.953C128.249 269.951 126.645 269.952 125.04 269.953C123.081 269.955 121.121 269.953 119.161 269.947C118.165 269.944 117.168 269.943 116.172 269.945C105.567 269.962 95.2031 268.748 87.2531 261.03C81.5419 255.194 80.679 247.984 80.7125 240.247C80.7113 239.514 80.7097 238.78 80.7075 238.046C80.7041 236.459 80.7043 234.871 80.7078 233.283C80.7129 230.922 80.7112 228.561 80.7083 226.2C80.7033 221.982 80.7049 217.764 80.7093 213.546C80.7131 209.855 80.7146 206.165 80.7139 202.474C80.7138 202.229 80.7138 201.983 80.7137 201.731C80.7135 200.735 80.7133 199.74 80.7131 198.745C80.7111 189.415 80.7156 180.086 80.7233 170.757C80.73 162.474 80.7316 154.191 80.7286 145.908C80.7279 143.787 80.7271 141.665 80.7264 139.543C80.7263 139.282 80.7262 139.021 80.7261 138.752C80.7239 131.823 80.7258 124.895 80.7289 117.967C80.7293 117.221 80.7296 116.476 80.7299 115.73C80.7302 115.235 80.7304 114.741 80.7306 114.246C80.7323 110.558 80.7319 106.869 80.7305 103.181C80.729 98.9863 80.7308 94.7919 80.7367 90.5974C80.7399 88.2517 80.7407 85.906 80.738 83.5603C80.7363 81.8071 80.7392 80.0539 80.7439 78.3006C80.7451 77.5927 80.7448 76.8848 80.7429 76.1769C80.7239 68.5385 81.957 62.6423 87.3778 56.9094C92.4641 52.0118 98.6504 51.8032 105.318 51.8271C105.772 51.8277 106.227 51.8281 106.682 51.8284C107.867 51.8295 109.051 51.8323 110.236 51.8356C111.45 51.8386 112.664 51.8399 113.878 51.8414C116.251 51.8445 118.623 51.8495 120.996 51.8557C120.976 51.5187 120.955 51.1818 120.934 50.8346C120.907 50.3854 120.88 49.9362 120.853 49.487C120.84 49.2657 120.826 49.0445 120.812 48.8165C120.081 36.5472 120.081 36.5472 123.047 32.8127C125.707 30.2206 128.544 30.0454 132.095 30.0577ZM131.543 40.7229C131.514 41.1218 131.505 41.5223 131.504 41.9222C131.504 42.1764 131.503 42.4306 131.503 42.6924C131.504 42.9609 131.505 43.2295 131.506 43.5061C131.505 43.7565 131.504 44.0069 131.503 44.2648C131.507 46.8113 131.686 49.3002 131.836 51.8557C144.017 51.8557 156.199 51.8557 168.75 51.8557C168.75 48.0852 168.75 44.3147 168.75 40.4299C163.942 40.4233 159.134 40.4179 154.326 40.4148C152.094 40.4132 149.862 40.4112 147.629 40.4078C145.684 40.4049 143.739 40.403 141.795 40.4024C140.764 40.402 139.734 40.4011 138.703 40.399C137.555 40.3966 136.406 40.3965 135.258 40.3967C134.914 40.3956 134.569 40.3946 134.215 40.3935C133.748 40.3941 133.748 40.3941 133.272 40.3947C132.865 40.3943 132.865 40.3943 132.448 40.3939C131.839 40.3617 131.839 40.3617 131.543 40.7229ZM94.4274 64.7646C91.9368 67.4202 91.3095 71.0703 91.3396 74.578C91.3396 74.8442 91.3395 75.1103 91.3394 75.3845C91.3398 76.2547 91.3443 77.1249 91.3489 77.9952C91.35 78.6023 91.3509 79.2094 91.3515 79.8165C91.3537 81.4073 91.3594 82.9981 91.3659 84.5889C91.3719 86.215 91.3746 87.8412 91.3776 89.4673C91.3838 92.6528 91.3938 95.8382 91.4062 99.0237C91.9588 99.3034 92.5118 99.5824 93.0651 99.861C93.527 100.094 93.527 100.094 93.9982 100.332C103.771 105.089 115.126 107.136 125.848 108.49C126.188 108.533 126.528 108.577 126.879 108.621C128.041 108.758 129.205 108.876 130.371 108.985C130.641 109.01 130.911 109.035 131.189 109.061C136.284 109.524 141.358 109.664 146.47 109.647C147.474 109.644 148.478 109.646 149.482 109.649C155.987 109.667 162.457 109.409 168.896 108.435C169.235 108.386 169.574 108.337 169.924 108.286C172.127 107.954 174.303 107.551 176.462 106.998C178.003 106.613 179.569 106.356 181.115 106.846C182.222 107.527 182.945 108.05 183.398 109.278C183.598 110.765 183.573 111.864 182.886 113.214C181.943 114.288 181.167 114.9 179.763 115.199C179.502 115.255 179.242 115.31 178.973 115.368C178.687 115.425 178.401 115.481 178.107 115.54C177.801 115.601 177.496 115.663 177.182 115.726C161.915 118.698 146.143 119.228 130.664 117.774C130.472 117.756 130.28 117.738 130.082 117.72C116.796 116.476 103.915 113.675 91.4062 108.985C91.4062 118.169 91.4062 127.354 91.4062 136.817C95.8714 138.819 95.8714 138.819 100.433 140.497C100.767 140.606 101.1 140.716 101.443 140.828C124.589 148.236 152.661 149.848 176.394 144.503C178.443 144.049 180.149 143.68 182.062 144.654C183.325 145.763 183.849 146.477 184.001 148.217C183.962 149.627 183.365 150.585 182.455 151.616C180.956 152.813 178.956 152.933 177.118 153.241C176.702 153.315 176.286 153.389 175.869 153.463C151.733 157.687 126.086 156.658 92.6712 147.005C92.0188 146.747 92.0188 146.747 91.4062 146.778C91.4062 155.962 91.4062 165.147 91.4062 174.61C96.907 176.958 96.907 176.958 102.521 178.913C102.871 179.019 103.22 179.125 103.581 179.235C111.17 181.475 119.002 182.796 126.855 183.692C127.07 183.716 127.284 183.741 127.504 183.766C143.669 185.576 160.68 185.396 176.618 182.051C177.003 181.97 177.003 181.97 177.396 181.888C177.728 181.816 177.728 181.816 178.067 181.742C179.393 181.534 180.7 181.562 181.882 182.241C182.928 183.061 183.584 183.883 183.79 185.2C183.818 186.803 183.6 187.704 182.519 188.965C181.673 189.697 181.003 189.994 179.909 190.209C179.623 190.266 179.337 190.324 179.043 190.383C178.579 190.47 178.579 190.47 178.107 190.558C177.622 190.651 177.622 190.651 177.128 190.747C167.242 192.611 157.377 193.426 147.327 193.415C147.035 193.414 146.743 193.414 146.442 193.414C134.731 193.395 123.124 192.385 111.621 190.137C111.128 190.041 111.128 190.041 110.624 189.943C104.618 188.747 98.515 187.206 92.8734 184.782C92.2514 184.521 92.2514 184.521 91.4062 184.571C91.4062 193.658 91.4062 202.746 91.4062 212.11C94.2585 213.441 96.956 214.651 99.9206 215.625C100.106 215.687 100.292 215.748 100.484 215.811C110.054 218.956 120.065 220.576 130.078 221.485C130.401 221.515 130.723 221.546 131.055 221.577C145.592 222.905 161.189 222.879 175.473 219.617C177.144 219.274 178.581 219.136 180.139 219.91C181.322 220.809 181.812 221.519 182.025 223.001C182.11 224.588 181.842 225.532 180.762 226.758C179.356 227.857 177.675 228.038 175.964 228.351C175.462 228.444 175.462 228.444 174.95 228.54C151.189 232.827 124.63 232.124 94.2857 222.933C93.3336 222.615 92.3717 222.344 91.4062 222.071C91.3857 225.142 91.3701 228.214 91.3606 231.285C91.3561 232.712 91.3499 234.138 91.3399 235.565C91.3302 236.944 91.325 238.323 91.3228 239.702C91.3212 240.226 91.318 240.75 91.3132 241.273C91.2705 246.156 91.7637 250.49 95.2514 254.224C99.0688 257.763 103.771 258.891 108.831 259.313C109.121 259.337 109.411 259.362 109.71 259.387C113.23 259.659 116.748 259.653 120.276 259.646C121.03 259.647 121.784 259.648 122.538 259.649C124.356 259.652 126.173 259.652 127.99 259.65C129.469 259.648 130.948 259.648 132.427 259.649C132.639 259.649 132.851 259.649 133.07 259.649C133.501 259.649 133.932 259.65 134.364 259.65C138.387 259.651 142.409 259.65 146.432 259.646C149.871 259.644 153.31 259.644 156.749 259.647C160.761 259.65 164.774 259.651 168.786 259.65C169.215 259.649 169.644 259.649 170.073 259.649C170.284 259.649 170.495 259.649 170.713 259.649C172.188 259.648 173.662 259.649 175.137 259.65C177.128 259.652 179.118 259.651 181.108 259.648C181.834 259.647 182.56 259.647 183.286 259.648C195.161 259.727 195.161 259.727 205.164 253.976C208.041 250.89 208.938 247.271 208.92 243.154C208.92 242.764 208.92 242.764 208.92 242.365C208.92 241.509 208.918 240.653 208.915 239.797C208.915 239.202 208.914 238.607 208.914 238.012C208.913 236.448 208.91 234.885 208.907 233.322C208.904 231.725 208.902 230.128 208.901 228.532C208.898 225.402 208.893 222.271 208.887 219.141C207.032 219.681 205.207 220.267 203.392 220.928C202.92 221.098 202.447 221.267 201.975 221.437C201.245 221.699 200.515 221.962 199.786 222.227C199.073 222.487 198.358 222.742 197.643 222.998C197.429 223.077 197.214 223.156 196.993 223.237C195.33 223.826 193.496 224.363 191.741 223.945C190.557 223.29 189.775 222.794 189.258 221.485C188.828 219.827 189.025 218.879 189.844 217.383C190.904 215.954 192.492 215.592 194.11 215.039C194.423 214.93 194.735 214.82 195.057 214.707C196.15 214.325 197.244 213.949 198.34 213.574C198.788 213.421 199.235 213.268 199.683 213.114C200.154 212.953 200.624 212.792 201.094 212.631C201.444 212.512 201.444 212.512 201.8 212.39C202.964 211.992 204.128 211.595 205.293 211.201C205.618 211.09 205.618 211.09 205.951 210.977C206.362 210.838 206.773 210.699 207.184 210.561C208.109 210.293 208.109 210.293 208.887 209.766C208.915 208.892 208.923 208.025 208.92 207.151C208.92 206.739 208.92 206.739 208.92 206.319C208.92 205.408 208.918 204.496 208.915 203.585C208.915 202.955 208.914 202.325 208.914 201.694C208.913 200.032 208.91 198.37 208.907 196.708C208.904 195.013 208.902 193.319 208.901 191.624C208.898 188.296 208.893 184.969 208.887 181.641C208.581 181.743 208.275 181.845 207.96 181.95C199.607 184.734 199.607 184.734 198.98 184.942C198.531 185.092 198.083 185.247 197.636 185.405C197.405 185.485 197.174 185.565 196.937 185.648C196.729 185.722 196.522 185.796 196.308 185.871C195.269 186.153 194.366 186.118 193.359 185.742C192.406 185.108 191.533 184.434 191.016 183.399C190.858 181.964 190.862 180.801 191.473 179.48C193.109 177.719 195.348 177.094 197.568 176.346C197.883 176.237 198.199 176.129 198.523 176.018C199.523 175.675 200.524 175.334 201.526 174.994C202.533 174.65 203.54 174.306 204.547 173.961C205.173 173.747 205.798 173.534 206.424 173.321C206.705 173.225 206.986 173.13 207.275 173.031C207.523 172.946 207.772 172.862 208.027 172.775C208.587 172.606 208.587 172.606 208.887 172.266C208.915 171.383 208.923 170.507 208.92 169.624C208.92 169.208 208.92 169.208 208.92 168.784C208.92 167.863 208.918 166.942 208.915 166.021C208.915 165.384 208.914 164.747 208.914 164.111C208.913 162.431 208.91 160.752 208.907 159.072C208.904 157.36 208.902 155.648 208.901 153.935C208.898 150.573 208.893 147.21 208.887 143.848C208.582 143.95 208.278 144.052 207.965 144.157C206.824 144.539 205.683 144.92 204.541 145.302C204.05 145.466 203.558 145.631 203.067 145.795C201.688 146.257 200.308 146.717 198.926 147.171C198.414 147.339 197.902 147.509 197.389 147.679C197.005 147.801 197.005 147.801 196.613 147.927C196.405 147.994 196.197 148.061 195.982 148.13C194.566 148.408 193.418 147.878 192.224 147.125C191.375 146.251 191.025 145.637 191.006 144.402C191.11 142.861 191.401 141.785 192.48 140.625C194.178 139.706 196.044 139.096 197.866 138.473C198.117 138.385 198.369 138.298 198.628 138.208C199.423 137.932 200.218 137.658 201.013 137.384C201.81 137.109 202.607 136.834 203.404 136.557C203.897 136.386 204.391 136.216 204.884 136.047C205.11 135.968 205.336 135.89 205.569 135.809C205.765 135.742 205.96 135.675 206.162 135.605C207.083 135.259 207.983 134.86 208.887 134.473C208.887 125.192 208.887 115.91 208.887 106.348C206.953 106.875 205.107 107.389 203.242 108.082C202.808 108.239 202.374 108.397 201.94 108.554C201.272 108.797 200.604 109.042 199.936 109.289C199.282 109.53 198.625 109.767 197.969 110.004C197.772 110.078 197.575 110.153 197.371 110.229C195.926 110.746 194.524 111.031 193.034 110.538C191.914 109.863 191.188 109.338 190.723 108.106C190.504 106.44 190.642 105.133 191.601 103.711C192.966 102.329 194.724 101.883 196.521 101.282C196.856 101.167 197.191 101.052 197.535 100.934C198.602 100.569 199.67 100.208 200.738 99.8477C201.809 99.483 202.88 99.1176 203.951 98.7519C204.617 98.5248 205.283 98.2985 205.949 98.073C206.249 97.9712 206.55 97.8695 206.859 97.7646C207.124 97.6751 207.389 97.5856 207.662 97.4934C208.302 97.2798 208.302 97.2798 208.887 96.9729C208.907 93.7104 208.923 90.4479 208.932 87.1853C208.937 85.67 208.943 84.1548 208.953 82.6396C208.963 81.175 208.968 79.7105 208.97 78.2459C208.972 77.6895 208.975 77.133 208.98 76.5767C209.014 72.4192 208.961 68.4554 206.25 65.0393C204.093 63.0004 201.852 62.3662 198.915 62.3657C198.565 62.365 198.216 62.3642 197.856 62.3634C197.474 62.3641 197.092 62.3647 196.699 62.3654C196.288 62.365 195.876 62.3646 195.465 62.364C194.335 62.3628 193.206 62.3634 192.076 62.3643C190.858 62.365 189.639 62.3639 188.42 62.3631C186.033 62.3618 183.646 62.3621 181.259 62.363C179.318 62.3636 177.378 62.3637 175.437 62.3634C175.161 62.3633 174.885 62.3633 174.6 62.3632C174.039 62.3632 173.478 62.3631 172.917 62.363C167.654 62.3621 162.392 62.3631 157.129 62.3647C152.615 62.366 148.102 62.3657 143.589 62.3644C138.346 62.3628 133.104 62.3622 127.862 62.3631C127.303 62.3632 126.744 62.3633 126.184 62.3634C125.909 62.3634 125.634 62.3635 125.35 62.3635C123.413 62.3638 121.476 62.3633 119.539 62.3627C117.176 62.3618 114.814 62.3621 112.451 62.3636C111.246 62.3644 110.042 62.3647 108.837 62.3637C107.733 62.3628 106.628 62.3633 105.524 62.3649C104.938 62.3654 104.352 62.3644 103.766 62.3634C98.7004 62.3279 98.7004 62.3279 94.4274 64.7646Z" fill="black"/>
</svg>
