<svg width="300" height="300" viewBox="0 0 300 300" fill="none" xmlns="http://www.w3.org/2000/svg">
<path d="M162.598 49.2188C162.846 49.2722 163.093 49.3256 163.349 49.3806C169.074 50.6371 176.375 52.5805 179.883 57.6966C180.868 59.5873 180.583 61.8007 180.469 63.8673C180.732 63.8714 180.996 63.8756 181.268 63.8799C186.44 64.0716 191.408 65.4351 196.289 67.0899C196.515 67.1647 196.74 67.2394 196.973 67.3164C212.537 72.4788 212.537 72.4788 215.921 78.7735C216.703 80.4032 216.966 81.7128 216.944 83.5092C216.946 83.7636 216.948 84.018 216.95 84.2802C216.954 85.1299 216.95 85.9794 216.946 86.8292C216.947 87.4456 216.949 88.0621 216.951 88.6786C216.956 90.3706 216.954 92.0625 216.95 93.7545C216.948 95.58 216.952 97.4055 216.955 99.2311C216.96 102.6 216.959 105.969 216.956 109.338C216.953 112.45 216.952 115.563 216.954 118.675C216.954 118.882 216.954 119.088 216.954 119.301C216.954 120.139 216.955 120.978 216.955 121.816C216.959 129.68 216.956 137.544 216.949 145.407C216.944 152.392 216.944 159.376 216.95 166.361C216.956 174.21 216.959 182.059 216.955 189.908C216.955 190.745 216.954 191.582 216.954 192.419C216.954 192.625 216.954 192.831 216.954 193.043C216.952 196.153 216.954 199.263 216.957 202.373C216.96 205.911 216.959 209.448 216.953 212.985C216.95 214.789 216.949 216.594 216.952 218.399C216.956 220.051 216.954 221.703 216.948 223.356C216.946 223.953 216.947 224.551 216.95 225.148C216.969 229.533 216.551 232.448 213.574 235.84C213.431 236.011 213.288 236.181 213.141 236.357C201.564 249.094 175.299 251.17 159.288 252.003C158.31 252.046 157.332 252.083 156.354 252.118C155.873 252.137 155.873 252.137 155.382 252.156C134.863 252.908 104.061 251.515 88.0372 237.195C85.575 234.886 83.5438 231.878 83.386 228.412C83.3815 227.96 83.3816 227.507 83.3856 227.055C83.3843 226.802 83.3831 226.549 83.3817 226.289C83.3785 225.445 83.3816 224.602 83.3846 223.758C83.3836 223.146 83.3822 222.534 83.3805 221.922C83.3768 220.242 83.3786 218.563 83.3813 216.883C83.3833 215.071 83.3802 213.258 83.3778 211.446C83.3741 208.102 83.3745 204.757 83.3769 201.413C83.3791 198.324 83.3797 195.234 83.3786 192.145C83.3785 191.94 83.3785 191.735 83.3784 191.523C83.3781 190.691 83.3778 189.859 83.3776 189.027C83.3749 181.222 83.3773 173.418 83.382 165.613C83.3862 158.68 83.3858 151.747 83.3816 144.813C83.3769 137.022 83.3751 129.232 83.3778 121.441C83.3781 120.61 83.3783 119.78 83.3786 118.949C83.3787 118.745 83.3787 118.54 83.3788 118.329C83.3798 115.242 83.3786 112.154 83.3764 109.066C83.3739 105.556 83.3746 102.045 83.3793 98.5344C83.3816 96.7428 83.3825 94.9512 83.3796 93.1596C83.377 91.52 83.3784 89.8805 83.3831 88.2409C83.3841 87.6473 83.3836 87.0538 83.3815 86.4602C83.3788 85.6539 83.3815 84.8478 83.3856 84.0416C83.3836 83.8107 83.3815 83.5797 83.3794 83.3418C83.4137 79.9523 85.2562 77.328 87.5978 75.0001C94.762 68.8812 105.436 66.2759 114.551 65.0391C114.78 65.0074 115.009 64.9757 115.246 64.943C115.935 64.8493 116.625 64.7599 117.316 64.6729C117.526 64.6458 117.736 64.6187 117.952 64.5908C118.893 64.4808 119.499 64.4423 120.41 64.7462C120.362 64.5226 120.314 64.299 120.264 64.0687C119.906 61.4282 119.866 59.0892 121.398 56.8292C125.185 52.0889 132.047 50.4409 137.695 49.2188C137.937 49.1659 138.179 49.1129 138.428 49.0583C145.948 47.5097 155.106 47.5414 162.598 49.2188ZM128.906 61.2306C131.614 64.5486 138.815 64.8116 142.705 65.2509C151.778 66.1553 163.57 66.4499 171.68 61.5235C171.68 61.3302 171.68 61.1368 171.68 60.9376C168.458 59.2665 165.269 58.1726 161.719 57.422C161.495 57.3736 161.271 57.3252 161.041 57.2753C151.54 55.3236 136.999 55.1612 128.906 61.2306ZM128.027 70.3126C128.027 72.4395 128.027 74.5665 128.027 76.7579C134.657 80.562 143.332 80.9263 150.787 80.9327C151.101 80.933 151.101 80.933 151.421 80.9333C158.321 80.923 166.163 80.6111 172.266 77.0509C172.266 74.9239 172.266 72.797 172.266 70.6056C170.545 70.9498 168.86 71.3017 167.16 71.7194C155.48 74.5354 140.492 75.1708 129.17 70.5277C128.622 70.2773 128.622 70.2773 128.027 70.3126ZM114.588 72.8211C114.224 72.9001 113.861 72.9791 113.487 73.0605C102.018 75.5231 102.018 75.5231 92.2853 81.7384C91.783 82.5851 91.783 82.5851 91.6993 83.4962C92.6709 86.2027 95.9654 87.7684 98.385 88.9665C121.34 99.6662 152.533 99.1278 198.432 90.3809C204.213 88.22 204.213 88.22 208.594 84.0821C208.838 83.2414 208.838 83.2414 208.594 82.3243C204.467 75.9694 191.955 74.1617 185.248 72.6746C184.831 72.5816 184.831 72.5816 184.405 72.4867C184.144 72.4313 183.883 72.3759 183.615 72.3187C183.388 72.2704 183.162 72.2221 182.929 72.1723C182.102 72.0523 181.303 72.0541 180.469 72.0704C180.465 72.4293 180.465 72.4293 180.461 72.7955C180.445 73.8846 180.42 74.9732 180.396 76.0621C180.391 76.4386 180.387 76.8151 180.383 77.2031C180.294 80.6497 180.294 80.6497 179.004 82.0313C178.862 82.1945 178.721 82.3576 178.575 82.5257C170.107 90.0729 153.762 89.2961 143.226 88.7104C136.505 88.2226 126.702 87.2165 121.694 82.1366C120.584 80.8442 120.371 80.1017 120.318 78.4219C120.305 78.0537 120.293 77.6854 120.28 77.3061C120.269 76.9197 120.257 76.5334 120.245 76.1353C120.233 75.7428 120.22 75.3503 120.207 74.9577C120.176 73.9953 120.146 73.0329 120.117 72.0704C118.198 72.0218 116.455 72.4148 114.588 72.8211ZM91.6993 94.0431C91.6651 100.654 91.6393 107.265 91.6234 113.876C91.6159 116.946 91.6056 120.016 91.5888 123.085C91.5742 125.761 91.5648 128.437 91.5615 131.112C91.5596 132.529 91.5551 133.946 91.5445 135.362C91.5345 136.696 91.5315 138.03 91.5337 139.364C91.5333 139.853 91.5303 140.342 91.5247 140.831C91.3938 143.702 91.3938 143.702 92.39 146.309C100.927 154.709 117.884 156.113 129.199 157.324C129.595 157.369 129.99 157.413 130.385 157.457C143.554 158.899 157.354 158.861 170.508 157.324C170.899 157.281 171.291 157.238 171.683 157.196C191.539 155.384 191.539 155.384 208.301 145.899C208.986 144.837 208.959 143.918 208.957 142.673C208.958 142.466 208.958 142.259 208.959 142.046C208.96 141.353 208.957 140.661 208.953 139.968C208.953 139.471 208.953 138.975 208.954 138.478C208.954 137.13 208.95 135.781 208.946 134.432C208.943 133.023 208.942 131.614 208.942 130.205C208.94 127.536 208.935 124.868 208.929 122.199C208.922 119.161 208.919 116.123 208.916 113.085C208.91 106.835 208.9 100.586 208.887 94.336C207.725 94.7099 206.653 95.1387 205.562 95.6876C191.086 102.912 172.057 104.901 156.039 104.942C155.817 104.943 155.595 104.944 155.366 104.945C154.186 104.949 153.006 104.952 151.825 104.953C150.876 104.955 149.926 104.959 148.977 104.965C140.364 105.025 131.818 104.581 123.285 103.345C123.075 103.315 122.865 103.285 122.648 103.254C112.647 101.823 102.142 99.7949 93.2183 94.8797C92.9326 94.7226 92.6468 94.5656 92.3524 94.4038C92.1369 94.2848 91.9214 94.1657 91.6993 94.0431ZM91.6993 155.566C91.6592 164.857 91.6281 174.148 91.6096 183.439C91.6074 184.536 91.6051 185.633 91.6028 186.73C91.6023 186.949 91.6019 187.167 91.6014 187.392C91.5937 190.928 91.5799 194.463 91.5637 197.998C91.5473 201.627 91.5375 205.255 91.534 208.884C91.5315 211.122 91.5239 213.36 91.5096 215.599C91.4992 217.316 91.4982 219.033 91.5005 220.75C91.5 221.454 91.4965 222.158 91.4898 222.862C91.481 223.824 91.4832 224.785 91.488 225.746C91.4828 226.024 91.4777 226.303 91.4724 226.589C91.4994 228.589 92.0909 229.706 93.4572 231.152C103.507 240.871 123.713 242.345 136.817 243.457C137.298 243.499 137.298 243.499 137.789 243.543C141.551 243.827 145.32 243.805 149.091 243.804C150.263 243.804 151.435 243.81 152.608 243.816C159.142 243.831 165.575 243.403 172.046 242.505C172.388 242.458 172.388 242.458 172.736 242.41C191.966 239.852 191.966 239.852 208.008 229.981C208.928 228.492 209.011 227.327 208.995 225.633C208.996 225.246 208.996 225.246 208.997 224.852C209 223.991 208.995 223.13 208.991 222.268C208.992 221.65 208.992 221.031 208.993 220.413C208.995 218.731 208.991 217.05 208.986 215.368C208.981 213.602 208.982 211.835 208.981 210.068C208.98 207.093 208.976 204.119 208.969 201.145C208.961 197.352 208.958 193.559 208.956 189.766C208.955 186.483 208.952 183.201 208.948 179.918C208.946 178.875 208.945 177.832 208.945 176.789C208.938 169.71 208.931 162.639 208.594 155.566C208.279 155.726 207.965 155.885 207.641 156.049C196.958 161.428 184.577 163.604 172.778 165.015C172.412 165.059 172.046 165.103 171.668 165.149C164.721 165.93 157.771 166.226 150.783 166.207C150.171 166.205 149.559 166.204 148.947 166.203C142.333 166.191 135.775 165.985 129.199 165.234C128.977 165.21 128.754 165.185 128.524 165.159C116.628 163.826 104.702 161.675 93.7992 156.551C93.5966 156.456 93.3941 156.361 93.1854 156.264C92.6899 156.032 92.1946 155.799 91.6993 155.566Z" fill="black"/>
<path d="M103.125 171.68C106.076 172.335 106.076 172.335 107.279 172.71C114.855 175.019 122.522 176.548 130.371 177.539C130.754 177.588 131.137 177.637 131.532 177.687C143.96 179.181 157.219 179.123 169.629 177.539C170.055 177.487 170.481 177.434 170.908 177.382C178.414 176.451 185.779 175.07 193.044 172.931C193.325 172.849 193.606 172.766 193.896 172.681C194.14 172.608 194.384 172.535 194.635 172.459C195.57 172.226 196.507 172.104 197.461 171.973C197.475 178.876 197.485 185.78 197.491 192.684C197.494 195.889 197.498 199.095 197.505 202.3C197.511 205.093 197.515 207.886 197.516 210.679C197.517 212.158 197.519 213.638 197.523 215.118C197.527 216.509 197.528 217.9 197.527 219.292C197.527 219.803 197.529 220.315 197.531 220.827C197.534 221.524 197.533 222.22 197.531 222.916C197.534 223.223 197.534 223.223 197.537 223.536C197.528 224.933 197.528 224.933 196.875 225.586C196.357 225.775 195.831 225.941 195.301 226.094C194.974 226.189 194.647 226.284 194.31 226.382C193.954 226.482 193.598 226.582 193.231 226.685C192.862 226.789 192.493 226.893 192.113 227C182.337 229.724 172.405 231.233 162.305 232.031C162.046 232.052 161.787 232.073 161.52 232.095C145.245 233.358 128.319 231.842 112.463 228.094C112.134 228.017 111.804 227.94 111.465 227.86C108.606 227.16 105.946 226.233 103.125 225.293C103.125 207.601 103.125 189.908 103.125 171.68Z" fill="black"/>
</svg>
