<svg width="300" height="300" viewBox="0 0 300 300" fill="none" xmlns="http://www.w3.org/2000/svg">
<path d="M182.836 75.0859C183.021 75.251 183.207 75.416 183.399 75.586C183.584 75.748 183.77 75.9101 183.962 76.077C185.824 77.8081 187.15 79.8841 187.245 82.4633C187.246 82.8803 187.247 83.2974 187.246 83.7144C187.246 83.9454 187.247 84.1765 187.248 84.4146C187.249 85.1936 187.249 85.9726 187.248 86.7515C187.249 87.3138 187.25 87.8761 187.251 88.4383C187.253 89.9872 187.254 91.536 187.254 93.0849C187.255 94.7539 187.257 96.4229 187.259 98.0918C187.263 101.743 187.265 105.394 187.266 109.045C187.267 111.325 187.268 113.604 187.269 115.883C187.273 122.191 187.276 128.498 187.277 134.806C187.277 135.214 187.277 135.622 187.277 136.03C187.277 136.439 187.277 136.848 187.277 137.257C187.277 138.077 187.277 138.898 187.278 139.718C187.278 140.023 187.278 140.023 187.278 140.334C187.279 146.93 187.283 153.525 187.29 160.121C187.297 167.093 187.301 174.066 187.302 181.039C187.302 184.84 187.304 188.641 187.309 192.442C187.314 195.679 187.315 198.915 187.313 202.152C187.312 203.804 187.312 205.455 187.316 207.107C187.32 208.619 187.319 210.131 187.316 211.643C187.315 212.19 187.316 212.737 187.319 213.284C187.337 217.434 186.964 220.689 184.004 223.847C178.634 228.891 171.071 231.241 164.008 232.691C163.685 232.757 163.685 232.757 163.356 232.825C158.95 233.67 154.587 233.9 150.11 233.881C149.84 233.88 149.569 233.879 149.29 233.879C145.176 233.863 141.153 233.736 137.11 232.91C136.814 232.85 136.519 232.791 136.215 232.729C129.29 231.281 122.268 229.229 116.895 224.414C116.706 224.256 116.517 224.098 116.323 223.935C114.266 222.088 113.047 219.726 112.885 216.965C112.849 215.716 112.853 214.47 112.863 213.221C112.861 212.653 112.858 212.084 112.855 211.516C112.847 209.96 112.851 208.405 112.856 206.85C112.86 205.17 112.854 203.49 112.849 201.81C112.842 198.522 112.843 195.234 112.848 191.945C112.852 189.273 112.853 186.6 112.851 183.927C112.851 183.546 112.85 183.165 112.85 182.773C112.85 182 112.849 181.227 112.848 180.453C112.844 173.411 112.849 166.369 112.858 159.327C112.866 152.902 112.865 146.478 112.857 140.054C112.848 132.831 112.844 125.608 112.849 118.385C112.85 117.614 112.85 116.844 112.851 116.073C112.851 115.694 112.851 115.315 112.852 114.925C112.853 112.256 112.851 109.586 112.847 106.917C112.842 103.664 112.843 100.41 112.852 97.1568C112.857 95.4973 112.859 93.8379 112.853 92.1784C112.848 90.6582 112.851 89.1382 112.86 87.618C112.862 87.0692 112.861 86.5204 112.857 85.9715C112.83 82.3129 113.197 79.1445 115.829 76.3127C131.13 62.4723 166.866 61.7878 182.836 75.0859ZM136.963 72.4916C136.385 73.4786 136.231 74.1462 136.231 75.2931C136.975 77.222 138.202 78.2019 140.039 79.1017C146.215 81.5319 153.278 81.6733 159.503 79.3214C161.23 78.5409 162.887 77.6127 163.78 75.8744C164.095 74.8862 164.084 74.193 163.788 73.2057C161.771 70.3941 158.591 69.1968 155.274 68.5548C149.158 67.6433 141.621 67.9503 136.963 72.4916ZM163.477 69.7267C163.597 69.8687 163.717 70.0107 163.841 70.157C165.115 71.7425 165.914 73.1247 165.763 75.2061C165.724 76.1549 165.739 76.7585 166.113 77.6368C167.328 78.4435 168.606 78.9393 169.962 79.4614C171.928 80.2756 173.647 81.5715 174.61 83.4962C174.719 84.807 174.74 85.5566 174.188 86.7555C170.812 90.5439 165.183 91.2937 160.381 91.6558C152.619 91.9914 143.008 91.1144 136.524 86.4259C135.293 85.28 134.511 84.2713 134.426 82.5461C134.415 81.5067 134.405 80.4675 134.402 79.428C134.4 78.7612 134.391 78.0947 134.381 77.428C134.36 74.5233 134.472 72.2834 136.524 70.0196C129.653 70.4482 121.906 73.2505 117.104 78.3475C115.774 79.9732 114.945 81.5259 115.008 83.6896C115.612 86.8923 117.701 89.0993 120.255 90.9022C123.976 93.409 128.186 94.8234 132.514 95.8924C132.784 95.9599 133.054 96.0274 133.332 96.0969C138.489 97.2868 143.71 97.7074 148.99 97.6733C149.854 97.6686 150.717 97.6733 151.581 97.6789C156.868 97.685 162.115 97.1655 167.249 95.8558C167.553 95.7798 167.857 95.7039 168.17 95.6256C174.226 94.0749 180.705 91.9398 184.24 86.4305C185.176 84.7589 185.154 82.6297 184.704 80.7965C182.849 76.537 177.845 74.0088 173.758 72.3831C168.738 70.4719 168.738 70.4719 163.477 69.7267ZM115.137 92.2853C115.1 94.3594 115.074 96.4335 115.056 98.508C115.049 99.2127 115.039 99.9174 115.026 100.622C115.009 101.639 115 102.655 114.994 103.672C114.986 103.984 114.979 104.296 114.971 104.617C114.97 107.881 116.314 110.084 118.526 112.409C124.443 118.031 133.684 119.683 141.486 120.648C141.764 120.685 142.042 120.721 142.328 120.758C145.69 121.134 148.908 120.996 152.344 120.996C152.344 115.195 152.344 109.395 152.344 103.418C149.734 103.321 147.123 103.225 144.434 103.125C135.214 102.255 122.633 100.792 116.126 93.1642C115.781 92.7291 115.781 92.7291 115.43 92.2853C115.333 92.2853 115.237 92.2853 115.137 92.2853ZM115.137 118.067C115.11 130.333 115.089 142.6 115.077 154.866C115.076 156.315 115.074 157.763 115.073 159.212C115.072 159.5 115.072 159.788 115.072 160.085C115.067 164.753 115.057 169.421 115.047 174.089C115.036 178.88 115.029 183.67 115.027 188.461C115.025 191.416 115.02 194.371 115.01 197.327C115.004 199.354 115.002 201.381 115.004 203.409C115.005 204.578 115.004 205.747 114.997 206.916C114.992 207.988 114.991 209.06 114.995 210.132C114.996 210.7 114.991 211.269 114.986 211.838C115.007 215.042 115.766 217.374 117.996 219.701C126.728 227.826 141.072 228.809 152.344 228.809C152.344 196.034 152.344 163.26 152.344 129.492C149.25 129.299 146.156 129.106 142.969 128.906C134.297 127.803 123.765 126.309 117.211 119.837C116.556 119.193 115.857 118.636 115.137 118.067Z" fill="black"/>
<path d="M133.301 189.844C133.494 189.94 133.687 190.037 133.887 190.137C134.006 190.672 134.006 190.672 134.076 191.382C134.685 198.661 134.685 198.661 138.059 204.821C141.501 207.28 145.918 208.312 150 209.18C149.903 209.373 149.807 209.566 149.707 209.766C148.826 209.965 147.962 210.128 147.071 210.271C146.807 210.316 146.542 210.361 146.269 210.407C145.42 210.55 144.57 210.689 143.719 210.828C143.147 210.924 142.575 211.02 142.002 211.116C140.955 211.291 139.908 211.466 138.86 211.637C138.649 211.672 138.437 211.707 138.22 211.742C137.695 211.816 137.695 211.816 137.109 211.816C137.041 212.187 136.972 212.558 136.901 212.94C136.413 215.382 135.778 217.789 135.168 220.203C135.044 220.697 134.92 221.192 134.795 221.687C134.493 222.889 134.19 224.091 133.887 225.293C133.693 225.293 133.5 225.293 133.301 225.293C133.272 225.111 133.243 224.928 133.213 224.74C132.276 215.869 132.276 215.869 128.02 208.601C126.179 207.472 124.149 206.967 122.046 206.531C120.268 206.055 118.759 205.143 117.188 204.199C117.188 204.103 117.188 204.006 117.188 203.906C123.568 203.326 123.568 203.326 130.078 202.734C131.673 196.354 131.673 196.354 133.301 189.844Z" fill="black"/>
</svg>
