<svg width="300" height="300" viewBox="0 0 300 300" fill="none" xmlns="http://www.w3.org/2000/svg">
<path d="M106.811 77.558C107.036 77.5567 107.261 77.5554 107.493 77.554C108.247 77.5503 109.001 77.5508 109.755 77.5512C110.295 77.5495 110.836 77.5475 111.376 77.5453C112.845 77.5401 114.314 77.5387 115.784 77.5384C116.702 77.5379 117.621 77.5367 118.539 77.5351C121.746 77.5297 124.952 77.5273 128.158 77.5278C131.143 77.5281 134.129 77.522 137.114 77.5127C139.679 77.505 142.244 77.5019 144.809 77.5023C146.34 77.5024 147.871 77.5008 149.402 77.4945C150.843 77.4889 152.285 77.4888 153.726 77.4931C154.254 77.4937 154.781 77.4923 155.308 77.4888C158.917 77.466 162.086 77.6802 165.023 80.0442C166.562 81.6361 167.32 83.5636 167.326 85.7497C167.328 86.0972 167.33 86.4447 167.331 86.8028C167.332 87.3753 167.332 87.3753 167.332 87.9595C167.334 88.3652 167.335 88.7709 167.337 89.1765C167.341 90.2788 167.343 91.381 167.344 92.4832C167.345 93.1715 167.346 93.8598 167.347 94.5481C167.351 96.7007 167.354 98.8533 167.355 101.006C167.356 103.493 167.362 105.979 167.37 108.466C167.376 110.387 167.379 112.309 167.38 114.23C167.38 115.378 167.382 116.526 167.387 117.674C167.392 118.753 167.393 119.832 167.39 120.912C167.39 121.497 167.394 122.083 167.398 122.669C167.395 123.19 167.395 123.19 167.393 123.722C167.393 124.025 167.394 124.328 167.394 124.639C167.285 125.39 167.285 125.39 166.877 125.927C166.263 126.373 165.878 126.383 165.123 126.386C164.878 126.387 164.632 126.388 164.379 126.389C164.123 126.386 163.868 126.383 163.605 126.379C163.348 126.382 163.092 126.386 162.827 126.389C162.582 126.388 162.337 126.387 162.084 126.386C161.747 126.384 161.747 126.384 161.403 126.383C160.84 126.269 160.84 126.269 160.254 125.39C160.163 124.548 160.106 123.733 160.076 122.888C160.065 122.63 160.054 122.372 160.043 122.107C159.923 119.026 159.903 115.944 159.885 112.861C159.878 111.786 159.871 110.711 159.862 109.636C159.842 106.973 159.824 104.311 159.807 101.648C159.792 99.3813 159.776 97.1148 159.758 94.8483C159.75 93.7891 159.744 92.7298 159.738 91.6705C159.733 91.0261 159.729 90.3817 159.723 89.7373C159.722 89.4428 159.721 89.1484 159.72 88.845C159.717 88.5761 159.715 88.3073 159.712 88.0303C159.711 87.7968 159.709 87.5632 159.708 87.3226C159.69 86.6601 159.69 86.6601 159.375 85.8395C158.538 85.4212 157.83 85.5106 156.895 85.5113C156.6 85.5109 156.6 85.5109 156.299 85.5105C155.636 85.51 154.974 85.5117 154.312 85.5133C153.839 85.5133 153.365 85.5133 152.892 85.5131C151.604 85.513 150.316 85.5148 149.028 85.5168C147.683 85.5186 146.337 85.5188 144.992 85.5192C142.444 85.5201 139.896 85.5225 137.348 85.5254C134.447 85.5287 131.546 85.5303 128.646 85.5318C122.678 85.5348 116.71 85.54 110.742 85.5465C110.733 90.0692 110.727 94.5919 110.724 99.1146C110.724 99.6144 110.724 99.6144 110.723 100.124C110.716 110.796 110.779 121.46 111.035 132.129C113.149 132.385 115.225 132.458 117.353 132.441C117.841 132.439 117.841 132.439 118.339 132.437C119.04 132.434 119.741 132.43 120.442 132.426C121.553 132.419 122.664 132.415 123.775 132.412C126.932 132.402 130.089 132.39 133.246 132.371C135.181 132.36 137.116 132.354 139.052 132.35C139.787 132.347 140.523 132.343 141.258 132.338C142.287 132.33 143.315 132.327 144.344 132.326C144.646 132.323 144.948 132.319 145.259 132.315C147.281 132.321 149.044 132.504 150.657 133.847C150.815 134.042 150.973 134.236 151.135 134.436C151.298 134.628 151.46 134.821 151.627 135.019C152.691 136.589 152.724 137.987 152.725 139.826C152.728 140.097 152.73 140.368 152.733 140.647C152.741 141.542 152.744 142.436 152.748 143.33C152.752 143.951 152.758 144.572 152.763 145.194C152.776 146.827 152.786 148.461 152.796 150.094C152.811 152.713 152.83 155.333 152.851 157.952C152.858 158.868 152.862 159.785 152.867 160.702C152.871 161.26 152.875 161.818 152.879 162.376C152.88 162.761 152.88 162.761 152.881 163.155C152.78 164.286 152.78 164.286 153.223 165.234C153.744 165.263 154.267 165.271 154.789 165.271C155.298 165.272 155.298 165.272 155.818 165.274C156.194 165.273 156.57 165.273 156.958 165.272C157.355 165.272 157.753 165.273 158.15 165.273C159.232 165.275 160.315 165.274 161.397 165.273C162.528 165.273 163.658 165.273 164.789 165.274C166.688 165.274 168.587 165.274 170.486 165.272C172.684 165.271 174.882 165.271 177.08 165.273C178.964 165.274 180.848 165.274 182.732 165.273C183.859 165.273 184.985 165.273 186.112 165.274C187.171 165.275 188.23 165.274 189.29 165.273C189.865 165.272 190.441 165.273 191.017 165.274C191.358 165.273 191.698 165.272 192.049 165.271C192.346 165.271 192.643 165.271 192.95 165.271C193.656 165.281 193.656 165.281 194.238 164.941C194.265 161.447 194.286 157.953 194.299 154.459C194.305 152.837 194.313 151.214 194.327 149.592C194.339 148.027 194.346 146.462 194.349 144.896C194.352 144.299 194.356 143.701 194.362 143.103C194.371 142.267 194.372 141.431 194.371 140.595C194.378 140.223 194.378 140.223 194.384 139.844C194.376 138.742 194.359 138.165 193.724 137.238C192.956 136.745 192.674 136.706 191.782 136.839C191.523 136.875 191.264 136.91 190.997 136.946C190.711 136.992 190.426 137.038 190.132 137.085C189.827 137.129 189.522 137.172 189.208 137.217C188.149 137.37 187.092 137.532 186.035 137.695C185.218 137.817 184.401 137.936 183.583 138.056C181.818 138.316 180.053 138.578 178.289 138.842C178.065 138.876 177.842 138.909 177.612 138.943C176.461 139.116 175.31 139.29 174.159 139.465C173.025 139.639 171.891 139.808 170.756 139.976C170.328 140.039 169.9 140.104 169.473 140.171C168.882 140.263 168.29 140.35 167.697 140.436C167.362 140.487 167.027 140.538 166.681 140.59C165.782 140.626 165.389 140.53 164.648 140.039C164.355 139.746 164.355 139.746 164.322 139.148C164.324 138.891 164.325 138.635 164.327 138.371C164.328 138.095 164.329 137.818 164.33 137.533C164.332 137.242 164.335 136.951 164.337 136.651C164.338 136.359 164.34 136.067 164.341 135.766C164.345 135.042 164.349 134.318 164.355 133.593C164.549 133.593 164.742 133.593 164.941 133.593C164.941 133.4 164.941 133.207 164.941 133.007C167.516 132.372 170.131 132.028 172.754 131.659C173.26 131.588 173.765 131.517 174.27 131.445C175.327 131.296 176.383 131.148 177.44 131C178.784 130.813 180.127 130.621 181.469 130.429C182.513 130.28 183.556 130.134 184.6 129.989C185.094 129.919 185.589 129.849 186.083 129.778C190.705 129.113 194.736 128.621 199.017 130.883C200.613 132.219 202.012 133.975 202.223 136.105C202.224 136.375 202.224 136.645 202.225 136.923C202.227 137.234 202.229 137.546 202.231 137.866C202.23 138.205 202.23 138.543 202.229 138.892C202.231 139.43 202.231 139.43 202.233 139.98C202.237 140.961 202.238 141.943 202.237 142.925C202.236 143.745 202.238 144.565 202.239 145.384C202.243 147.318 202.243 149.251 202.241 151.185C202.239 153.18 202.243 155.175 202.249 157.17C202.254 158.884 202.256 160.597 202.255 162.311C202.254 163.334 202.255 164.358 202.259 165.381C202.264 166.521 202.261 167.66 202.258 168.8C202.26 169.14 202.262 169.48 202.264 169.83C202.262 170.139 202.26 170.449 202.258 170.768C202.258 171.172 202.258 171.172 202.258 171.585C202.124 172.419 201.924 172.626 201.27 173.144C200.691 173.255 200.691 173.255 200.018 173.257C199.761 173.26 199.504 173.262 199.239 173.265C198.957 173.264 198.674 173.262 198.383 173.261C198.083 173.263 197.783 173.265 197.474 173.267C196.463 173.272 195.452 173.272 194.44 173.271C193.717 173.273 192.994 173.277 192.27 173.28C190.707 173.286 189.144 173.29 187.581 173.291C185.307 173.293 183.033 173.3 180.759 173.308C177.051 173.321 173.342 173.329 169.634 173.336C166.064 173.342 162.494 173.35 158.924 173.36C158.597 173.361 158.597 173.361 158.263 173.362C157.385 173.365 156.508 173.367 155.63 173.37C139.724 173.418 139.724 173.418 131.911 173.427C131.199 173.428 130.488 173.429 129.776 173.43C129.26 173.43 129.26 173.43 128.733 173.431C126.73 173.434 124.727 173.441 122.724 173.454C121.5 173.461 120.277 173.467 119.053 173.472C118.495 173.474 117.937 173.478 117.379 173.483C109.491 173.554 109.491 173.554 106.907 171.655C105.217 169.959 104.555 167.695 104.547 165.366C104.546 165.172 104.545 164.979 104.544 164.779C104.542 164.14 104.541 163.501 104.541 162.862C104.54 162.418 104.539 161.974 104.538 161.53C104.536 160.599 104.535 159.669 104.536 158.739C104.536 157.545 104.532 156.352 104.527 155.158C104.523 154.241 104.523 153.325 104.523 152.408C104.523 151.968 104.521 151.528 104.519 151.087C104.516 150.473 104.517 149.859 104.519 149.244C104.518 148.894 104.518 148.544 104.517 148.184C104.59 147.363 104.59 147.363 105.176 146.777C105.771 146.701 105.771 146.701 106.494 146.699C106.754 146.698 107.014 146.698 107.282 146.697C107.553 146.699 107.825 146.701 108.105 146.704C108.377 146.701 108.649 146.699 108.929 146.697C109.319 146.698 109.319 146.698 109.717 146.699C109.955 146.7 110.194 146.7 110.44 146.701C111.035 146.777 111.035 146.777 111.621 147.363C111.711 148.074 111.765 148.754 111.794 149.467C111.81 149.795 111.81 149.795 111.827 150.129C111.965 153.117 112.019 156.109 112.079 159.1C112.092 159.698 112.104 160.297 112.117 160.895C112.148 162.341 112.178 163.788 112.207 165.234C116.361 165.241 120.514 165.246 124.668 165.249C126.596 165.251 128.524 165.253 130.453 165.256C132.313 165.259 134.172 165.261 136.032 165.262C136.743 165.262 137.454 165.263 138.165 165.265C139.157 165.267 140.15 165.267 141.143 165.267C141.587 165.269 141.587 165.269 142.041 165.27C142.311 165.27 142.58 165.27 142.858 165.269C143.21 165.27 143.21 165.27 143.57 165.27C144.164 165.27 144.164 165.27 144.727 164.941C144.727 156.917 144.727 148.892 144.727 140.625C143.729 140.292 142.976 140.298 141.924 140.302C141.629 140.303 141.629 140.303 141.329 140.303C140.67 140.305 140.01 140.309 139.351 140.312C138.879 140.314 138.407 140.315 137.935 140.317C136.918 140.319 135.901 140.323 134.884 140.328C133.276 140.334 131.668 140.338 130.061 140.342C125.489 140.351 120.918 140.364 116.347 140.382C113.822 140.392 111.298 140.399 108.774 140.402C107.438 140.404 106.101 140.408 104.765 140.416C103.509 140.423 102.253 140.426 100.996 140.426C100.535 140.426 100.073 140.429 99.6114 140.432C98.9824 140.438 98.3536 140.437 97.7246 140.435C97.1961 140.437 97.1961 140.437 96.6569 140.439C95.8008 140.332 95.8008 140.332 95.2476 139.929C94.7894 139.259 94.8174 138.773 94.8258 137.967C94.8273 137.681 94.8288 137.394 94.8303 137.099C94.8364 136.8 94.8424 136.501 94.8486 136.193C94.8502 135.892 94.8517 135.592 94.8532 135.281C94.8768 133.053 94.8768 133.053 95.2149 132.714C95.7754 132.672 96.3375 132.648 96.8994 132.632C97.2408 132.621 97.5822 132.61 97.934 132.599C98.6603 132.578 99.3866 132.558 100.113 132.537C100.454 132.526 100.796 132.515 101.147 132.504C101.463 132.495 101.779 132.486 102.104 132.477C102.815 132.502 102.815 132.502 103.125 132.129C103.157 131.432 103.17 130.744 103.171 130.047C103.173 129.826 103.174 129.606 103.176 129.379C103.18 128.635 103.183 127.891 103.185 127.147C103.188 126.616 103.191 126.085 103.194 125.553C103.202 124.107 103.208 122.66 103.214 121.214C103.22 119.704 103.228 118.193 103.236 116.683C103.251 113.822 103.264 110.96 103.277 108.099C103.291 104.842 103.307 101.585 103.323 98.3276C103.357 91.6259 103.388 84.9241 103.418 78.2223C104.503 77.5229 105.563 77.5526 106.811 77.558Z" fill="black"/>
<path d="M130.74 180.425C131.074 180.423 131.408 180.421 131.752 180.419C132.121 180.418 132.491 180.417 132.872 180.417C133.263 180.415 133.653 180.413 134.044 180.411C135.108 180.406 136.172 180.403 137.236 180.4C137.901 180.399 138.565 180.397 139.23 180.395C141.307 180.389 143.385 180.385 145.463 180.383C147.863 180.38 150.264 180.372 152.664 180.36C154.518 180.352 156.372 180.347 158.226 180.346C159.334 180.346 160.442 180.343 161.55 180.336C162.592 180.329 163.634 180.327 164.677 180.33C165.242 180.331 165.807 180.325 166.372 180.319C166.877 180.322 166.877 180.322 167.392 180.326C167.684 180.325 167.977 180.324 168.278 180.323C169.255 180.508 169.602 180.875 170.215 181.64C170.367 182.239 170.367 182.239 170.371 182.867C170.373 183.21 170.373 183.21 170.375 183.561C170.371 183.797 170.366 184.033 170.362 184.277C170.369 184.632 170.369 184.632 170.375 184.993C170.374 185.222 170.372 185.451 170.371 185.687C170.37 185.894 170.368 186.102 170.367 186.315C170.148 187.179 169.723 187.521 169.043 188.086C168.324 188.238 168.324 188.238 167.512 188.246C167.207 188.251 166.902 188.257 166.588 188.263C166.097 188.264 166.097 188.264 165.596 188.264C165.092 188.271 165.092 188.271 164.577 188.279C163.502 188.293 162.428 188.299 161.353 188.305C160.624 188.314 159.896 188.322 159.167 188.332C157.381 188.354 155.595 188.366 153.809 188.379C153.809 191.859 153.809 195.339 153.809 198.925C154.983 199.512 155.71 199.649 156.997 199.792C157.198 199.815 157.4 199.838 157.608 199.862C158.279 199.938 158.951 200.011 159.623 200.084C160.099 200.137 160.575 200.19 161.051 200.244C162.065 200.358 163.079 200.471 164.093 200.582C165.675 200.756 167.257 200.934 168.839 201.111C170.947 201.348 173.055 201.584 175.163 201.818C178.797 202.222 182.43 202.631 186.063 203.046C187.003 203.153 187.944 203.258 188.885 203.363C189.451 203.428 190.017 203.492 190.583 203.557C190.953 203.597 190.953 203.597 191.329 203.639C194.014 203.95 196.398 204.227 198.34 206.25C199.55 208.33 199.671 210.359 199.604 212.713C199.601 213.013 199.598 213.313 199.595 213.623C199.524 218.439 199.524 218.439 198.843 219.35C197.913 220.046 196.825 219.876 195.704 219.873C195.463 219.881 195.223 219.889 194.976 219.898C193.26 219.903 193.26 219.903 192.474 219.181C192.054 217.83 192.031 216.521 192.005 215.112C191.99 214.552 191.974 213.992 191.957 213.432C191.949 213.062 191.949 213.062 191.941 212.684C191.957 212.108 191.957 212.108 191.602 211.816C191.123 211.739 190.642 211.679 190.16 211.627C189.848 211.593 189.536 211.558 189.214 211.523C188.869 211.486 188.523 211.449 188.167 211.411C187.625 211.352 187.625 211.352 187.072 211.291C186.284 211.205 185.495 211.119 184.707 211.034C183.461 210.9 182.216 210.764 180.97 210.628C178.55 210.364 176.13 210.101 173.71 209.839C170.632 209.505 167.554 209.17 164.476 208.834C163.237 208.698 161.998 208.564 160.759 208.43C159.808 208.327 158.857 208.223 157.906 208.12C157.561 208.083 157.217 208.046 156.862 208.008C156.548 207.973 156.235 207.939 155.911 207.903C155.638 207.874 155.365 207.844 155.083 207.814C154.395 207.714 154.395 207.714 153.516 207.422C153.519 207.744 153.522 208.066 153.525 208.398C153.536 209.595 153.543 210.792 153.548 211.988C153.551 212.506 153.555 213.024 153.56 213.542C153.567 214.286 153.571 215.031 153.573 215.776C153.576 216.007 153.579 216.238 153.582 216.476C153.583 218.534 153.583 218.534 152.93 219.433C151.897 219.95 150.717 219.793 149.579 219.799C149.324 219.805 149.068 219.812 148.805 219.818C148.559 219.819 148.314 219.821 148.061 219.822C147.723 219.826 147.723 219.826 147.379 219.831C146.606 219.696 146.389 219.45 145.899 218.847C145.802 217.967 145.756 217.144 145.749 216.262C145.744 216.01 145.738 215.757 145.733 215.497C145.717 214.691 145.707 213.886 145.697 213.079C145.688 212.533 145.678 211.987 145.667 211.44C145.642 210.101 145.623 208.761 145.606 207.422C143.213 207.671 140.821 207.921 138.428 208.172C138.062 208.211 137.696 208.249 137.319 208.288C132.997 208.741 128.675 209.202 124.355 209.681C123.709 209.752 123.063 209.824 122.417 209.895C120.539 210.103 118.662 210.311 116.785 210.522C116.195 210.589 115.605 210.654 115.015 210.72C114.295 210.8 113.575 210.88 112.854 210.962C111.162 211.149 109.516 211.274 107.813 211.23C107.816 211.428 107.819 211.626 107.822 211.83C107.834 212.729 107.842 213.627 107.85 214.526C107.854 214.838 107.859 215.149 107.864 215.47C107.866 215.77 107.868 216.071 107.87 216.38C107.873 216.656 107.876 216.932 107.879 217.217C107.809 218.008 107.656 218.476 107.227 219.14C106.275 219.616 105.234 219.606 104.187 219.69C103.85 219.727 103.85 219.727 103.505 219.765C103.287 219.782 103.069 219.798 102.844 219.815C102.645 219.834 102.446 219.852 102.241 219.87C101.283 219.633 100.992 219.082 100.489 218.261C100.342 217.33 100.342 217.33 100.343 216.288C100.343 215.908 100.343 215.529 100.343 215.137C100.346 214.94 100.349 214.743 100.352 214.541C100.36 213.946 100.358 213.352 100.354 212.757C100.37 210.235 100.479 207.916 102.045 205.847C103.819 204.115 105.82 203.932 108.182 203.613C108.532 203.563 108.883 203.514 109.244 203.463C112.845 202.962 116.455 202.549 120.068 202.154C120.756 202.077 121.443 202.001 122.13 201.924C123.911 201.726 125.692 201.53 127.473 201.334C130.343 201.018 133.214 200.699 136.084 200.38C137.08 200.27 138.076 200.16 139.072 200.051C139.68 199.983 140.288 199.916 140.896 199.849C141.308 199.804 141.308 199.804 141.728 199.758C142.11 199.715 142.11 199.715 142.5 199.672C142.719 199.648 142.938 199.624 143.164 199.599C143.981 199.494 144.793 199.354 145.606 199.218C145.509 195.641 145.413 192.064 145.313 188.379C144.445 188.089 143.906 188.055 143.003 188.066C142.713 188.069 142.423 188.072 142.124 188.075C141.81 188.079 141.497 188.083 141.175 188.088C140.514 188.093 139.853 188.098 139.193 188.103C138.149 188.112 137.106 188.122 136.062 188.136C135.056 188.148 134.051 188.155 133.045 188.161C132.732 188.167 132.419 188.172 132.096 188.178C131.806 188.179 131.515 188.18 131.216 188.181C130.833 188.185 130.833 188.185 130.441 188.189C129.642 188.063 129.386 187.848 128.907 187.207C128.802 186.52 128.802 186.52 128.811 185.721C128.812 185.435 128.814 185.148 128.815 184.853C128.821 184.554 128.827 184.255 128.833 183.947C128.835 183.646 128.836 183.345 128.838 183.035C128.865 180.433 128.865 180.433 130.74 180.425Z" fill="black"/>
</svg>
