<svg width="300" height="300" viewBox="0 0 300 300" fill="none" xmlns="http://www.w3.org/2000/svg">
<g clip-path="url(#clip0_48_248)">
<path d="M126.712 13.918C129.584 16.0149 131.297 18.6891 131.993 22.1759C132.142 23.2424 132.168 24.2836 132.164 25.3576C132.164 25.6828 132.164 25.6828 132.165 26.0147C132.165 26.738 132.163 27.4613 132.162 28.1846C132.162 28.7044 132.162 29.2242 132.162 29.744C132.162 31.153 132.16 32.562 132.158 33.971C132.156 35.4443 132.156 36.9176 132.156 38.3909C132.155 41.1799 132.153 43.9688 132.15 46.7578C132.146 49.9333 132.145 53.1088 132.143 56.2843C132.14 62.8157 132.135 69.3471 132.129 75.8786C131.711 75.7413 131.293 75.6035 130.875 75.4654C130.643 75.3888 130.41 75.3121 130.17 75.2331C129.244 74.9146 128.353 74.5351 127.456 74.1425C127.274 74.0634 127.093 73.9842 126.906 73.9027C126.333 73.653 125.761 73.4017 125.189 73.1503C124.624 72.9034 124.06 72.6568 123.495 72.4104C123.122 72.2475 122.749 72.0842 122.377 71.9205C121.428 71.5039 120.476 71.0947 119.519 70.6974C119.329 70.6181 119.139 70.5389 118.944 70.4573C118.42 70.2388 117.895 70.0224 117.369 69.8061C116.601 69.4332 116.601 69.4332 116.308 68.8473C116.28 68.3656 116.271 67.8828 116.271 67.4004C116.27 67.0944 116.269 66.7884 116.269 66.4732C116.269 65.9675 116.269 65.9675 116.27 65.4516C116.27 64.9207 116.27 64.9207 116.269 64.379C116.268 63.4062 116.268 62.4334 116.269 61.4606C116.27 60.4422 116.269 59.4238 116.268 58.4054C116.268 56.6935 116.269 54.9815 116.27 53.2695C116.272 51.2932 116.271 49.3169 116.27 47.3405C116.268 45.6429 116.268 43.9453 116.269 42.2476C116.269 41.2341 116.269 40.2207 116.268 39.2072C116.267 38.0753 116.269 36.9434 116.27 35.8114C116.27 35.4773 116.269 35.1432 116.269 34.7989C116.273 33.226 116.323 31.7246 116.601 30.1754C113.175 31.7865 109.768 33.4182 106.429 35.2021C104.562 36.1963 102.675 37.1451 100.781 38.0856C98.7043 39.1173 96.6384 40.1631 94.5919 41.2533C92.184 42.5353 89.7466 43.7555 87.3043 44.9704C84.9231 46.1548 82.5458 47.3426 80.1998 48.5958C77.2085 50.193 74.1683 51.6931 71.1301 53.1985C68.72 54.3949 66.3298 55.6237 63.9513 56.8817C61.3043 58.281 58.6405 59.6468 55.975 61.0104C55.7159 61.1431 55.4567 61.2758 55.1898 61.4126C51.5704 63.2659 47.9416 65.0986 44.3005 66.9089C42.2282 67.9412 40.1743 69.0027 38.1309 70.0909C36.1792 71.1259 34.2043 72.1119 32.2262 73.0954C29.3267 74.5377 26.4516 76.0183 23.5913 77.5367C22.1194 78.3176 20.6457 79.095 19.1708 79.8703C18.8758 80.0266 18.5807 80.183 18.2768 80.3441C18.0034 80.4876 17.7301 80.6311 17.4484 80.7789C17.0827 80.9719 17.0827 80.9719 16.7097 81.1687C16.1129 81.445 16.1129 81.445 15.527 81.445C15.527 109.675 15.527 137.906 15.527 166.992C16.8322 167.427 16.8322 167.427 18.1637 167.871C18.6588 168.065 19.1514 168.267 19.6393 168.479C19.899 168.591 20.1587 168.703 20.4263 168.818C20.8375 168.998 20.8375 168.998 21.257 169.181C21.5515 169.309 21.846 169.436 22.1494 169.567C22.7813 169.841 23.4131 170.115 24.0446 170.39C25.3852 170.973 26.7269 171.554 28.0685 172.135C28.7538 172.432 29.4389 172.728 30.124 173.025C33.2626 174.386 36.4057 175.735 39.5504 177.081C40.0559 177.297 40.5613 177.514 41.0668 177.73C42.0452 178.149 43.0238 178.568 44.0023 178.987C46.0116 179.847 48.0205 180.708 50.0293 181.569C51.077 182.018 52.1247 182.467 53.1723 182.916C53.5866 183.094 54.0008 183.271 54.415 183.449C54.6204 183.537 54.8258 183.625 55.0375 183.716C56.9364 184.529 56.9364 184.529 57.577 184.804C58.0053 184.988 58.4335 185.171 58.8618 185.355C59.9311 185.813 61.0004 186.271 62.0697 186.73C64.0056 187.559 65.9415 188.389 67.8779 189.218C68.964 189.682 70.0501 190.147 71.1361 190.612C71.3518 190.705 71.5675 190.797 71.7897 190.892C74.6027 192.097 77.4119 193.31 80.2181 194.531C85.0918 196.649 89.9837 198.725 94.8735 200.805C99.6276 202.828 104.379 204.858 109.126 206.896C110.779 207.605 112.432 208.313 114.085 209.02C118.982 211.117 123.878 213.217 128.764 215.34C132.199 216.831 135.642 218.304 139.084 219.777C142.378 221.187 145.669 222.602 148.956 224.029C152.01 225.356 155.068 226.673 158.13 227.984C158.446 228.12 158.446 228.12 158.769 228.258C160.338 228.93 161.907 229.602 163.476 230.273C165.255 231.034 167.033 231.795 168.811 232.557C169.33 232.779 169.85 233.002 170.369 233.224C173.199 234.435 176.027 235.651 178.848 236.882C179.342 237.097 179.835 237.312 180.329 237.527C181.248 237.927 182.166 238.329 183.083 238.732C186.673 240.302 190.102 241.739 194.073 241.79C194.284 241.799 194.494 241.807 194.711 241.816C198.542 241.859 201.959 240.163 205.279 238.44C205.667 238.242 206.055 238.044 206.443 237.847C208.769 236.661 211.083 235.453 213.387 234.227C215.243 233.241 217.122 232.303 219.005 231.369C220.626 230.562 222.23 229.731 223.828 228.881C226.152 227.646 228.502 226.464 230.859 225.293C233.399 224.03 235.925 222.747 238.429 221.413C240.708 220.205 243.019 219.063 245.328 217.915C247.207 216.978 249.074 216.025 250.927 215.039C253.107 213.879 255.309 212.769 257.519 211.67C259.705 210.583 261.883 209.485 264.038 208.337C266.433 207.061 268.859 205.847 271.289 204.638C273.866 203.356 276.433 202.062 278.97 200.702C280.576 199.849 282.2 199.037 283.83 198.232C284.063 198.117 284.296 198.001 284.536 197.883C285.714 197.3 286.892 196.72 288.072 196.144C291.91 194.32 291.91 194.32 295.205 191.689C295.337 191.563 295.469 191.438 295.605 191.308C296.379 191.345 296.713 191.546 297.299 192.05C297.465 192.24 297.631 192.431 297.802 192.627C297.969 192.811 298.135 192.995 298.306 193.185C299.842 195.422 300.171 197.389 300.151 200.071C300.154 200.58 300.154 200.58 300.157 201.1C300.163 202.216 300.159 203.331 300.155 204.447C300.156 205.226 300.157 206.005 300.159 206.784C300.161 208.413 300.158 210.043 300.152 211.672C300.146 213.551 300.148 215.43 300.155 217.309C300.16 218.928 300.161 220.547 300.158 222.166C300.156 223.131 300.156 224.095 300.159 225.06C300.162 226.136 300.158 227.211 300.151 228.286C300.154 228.603 300.156 228.919 300.158 229.245C300.129 231.863 299.352 233.703 297.591 235.662C296.086 237.021 294.337 237.806 292.328 237.964C289.924 237.806 287.967 236.93 286.23 235.254C284.182 232.789 284.092 229.897 284.058 226.811C284.05 226.329 284.05 226.329 284.041 225.837C284.023 224.82 284.01 223.802 283.996 222.784C283.985 222.09 283.974 221.397 283.962 220.703C283.934 219.01 283.909 217.317 283.886 215.625C278.09 218.489 278.09 218.489 272.351 221.466C269.872 222.789 267.359 224.041 264.843 225.293C262.34 226.538 259.839 227.784 257.373 229.101C254.906 230.419 252.405 231.664 249.902 232.91C247.411 234.149 244.922 235.388 242.468 236.7C239.893 238.076 237.281 239.373 234.668 240.673C231.341 242.33 228.028 244.006 224.75 245.758C221.396 247.548 218.028 249.304 214.622 250.992C213.111 251.742 211.601 252.493 210.092 253.246C209.535 253.524 208.977 253.801 208.42 254.078C208.076 254.249 207.733 254.42 207.379 254.596C206.915 254.827 206.915 254.827 206.442 255.063C205.629 255.469 205.629 255.469 204.785 256.054C204.698 256.826 204.669 257.53 204.677 258.302C204.676 258.534 204.675 258.766 204.673 259.005C204.671 259.51 204.672 260.016 204.673 260.521C204.676 261.323 204.673 262.125 204.669 262.927C204.657 265.208 204.656 267.49 204.657 269.771C204.657 271.166 204.651 272.561 204.643 273.956C204.64 274.742 204.643 275.527 204.647 276.313C204.64 279.562 204.471 282.717 202.097 285.205C200.113 286.836 197.882 287.559 195.338 287.347C193.33 287.013 191.563 286.067 190.252 284.494C188.984 282.579 188.585 280.614 188.578 278.333C188.575 278.11 188.572 277.887 188.569 277.657C188.56 276.926 188.555 276.195 188.55 275.465C188.545 274.955 188.539 274.446 188.533 273.936C188.518 272.601 188.506 271.265 188.495 269.93C188.484 268.565 188.469 267.2 188.454 265.835C188.426 263.161 188.401 260.486 188.379 257.812C188.11 257.724 187.842 257.637 187.565 257.546C186.484 257.18 185.446 256.736 184.403 256.275C184.079 256.134 184.079 256.134 183.749 255.989C183.281 255.784 182.812 255.578 182.344 255.373C181.055 254.806 179.765 254.243 178.475 253.679C178.205 253.56 177.935 253.442 177.657 253.321C174.765 252.056 171.867 250.804 168.969 249.554C168.706 249.44 168.442 249.327 168.171 249.21C166.509 248.493 164.848 247.776 163.186 247.059C161.32 246.255 159.455 245.45 157.589 244.646C155.988 243.955 154.387 243.265 152.786 242.574C150.014 241.379 147.241 240.182 144.471 238.98C139.415 236.785 134.346 234.624 129.265 232.487C123.521 230.07 117.807 227.585 112.095 225.093C109.932 224.15 107.766 223.216 105.597 222.29C102.572 220.997 99.5514 219.696 96.5328 218.39C96.3077 218.292 96.0825 218.195 95.8505 218.094C95.3887 217.894 94.9269 217.695 94.4652 217.495C94.2321 217.394 93.999 217.293 93.7588 217.189C93.4042 217.036 93.4042 217.036 93.0424 216.879C89.6049 215.392 86.1658 213.908 82.727 212.423C80.1886 211.328 77.6507 210.231 75.1141 209.131C70.5647 207.159 66.0116 205.196 61.45 203.253C60.9301 203.031 60.4103 202.809 59.8905 202.587C59.1689 202.279 58.4469 201.972 57.7248 201.665C57.512 201.574 57.2992 201.483 57.0799 201.389C56.6882 201.223 56.2954 201.06 55.9014 200.9C55.4162 200.702 54.9355 200.493 54.4553 200.283C53.3279 200.035 52.8571 200.304 51.8425 200.834C51.5032 201.008 51.1639 201.182 50.8143 201.361C50.4592 201.55 50.1043 201.739 49.7494 201.928C49.4127 202.102 49.076 202.276 48.7292 202.455C47.41 203.136 46.0991 203.832 44.7882 204.529C40.5293 206.792 36.2222 208.95 31.9032 211.096C27.3911 213.338 22.9073 215.624 18.4796 218.029C10.0749 222.586 10.0749 222.586 6.1886 221.447C3.54129 220.574 1.9639 219.318 0.613042 216.875C-0.00640172 215.59 -0.0427595 214.481 -0.0405054 213.084C-0.0412823 212.851 -0.0420564 212.619 -0.0428568 212.38C-0.0451159 211.594 -0.0452747 210.809 -0.0454496 210.024C-0.0466255 209.458 -0.0479244 208.892 -0.0493388 208.326C-0.05285 206.766 -0.054502 205.205 -0.0558387 203.644C-0.0575816 201.963 -0.0609833 200.282 -0.0641267 198.601C-0.0713168 194.538 -0.0755988 190.474 -0.0793796 186.411C-0.0804668 185.264 -0.0816298 184.116 -0.0828217 182.969C-0.0902158 175.845 -0.0966807 168.721 -0.100319 161.597C-0.101175 159.946 -0.102046 158.296 -0.102929 156.645C-0.103038 156.44 -0.103148 156.235 -0.10326 156.023C-0.10682 149.377 -0.115876 142.731 -0.128097 136.085C-0.140996 129.058 -0.148523 122.031 -0.1501 115.004C-0.151101 111.173 -0.154542 107.343 -0.164191 103.513C-0.172396 100.25 -0.175615 96.9879 -0.172336 93.7254C-0.170817 92.0611 -0.171667 90.397 -0.178925 88.7328C-0.185521 87.2078 -0.185288 85.6829 -0.179739 84.1579C-0.178919 83.6076 -0.180557 83.0573 -0.18496 82.507C-0.215016 78.5048 0.166373 74.9923 2.88348 71.802C5.78053 69.0004 9.60616 67.2995 13.1649 65.5148C13.7049 65.2414 14.2447 64.9678 14.7844 64.6939C16.2996 63.9261 17.817 63.163 19.3356 62.402C19.526 62.3065 19.7164 62.2111 19.9126 62.1127C21.1792 61.478 22.4465 60.8447 23.7154 60.2147C25.2712 59.4409 26.8107 58.641 28.3444 57.8244C31.3856 56.2051 34.473 54.6783 37.56 53.1487C39.7335 52.0697 41.8923 50.9681 44.0365 49.8318C47.1544 48.1802 50.3117 46.6111 53.4724 45.0436C56.4093 43.586 59.3295 42.1037 62.227 40.5692C64.292 39.4765 66.3787 38.4317 68.4742 37.3989C70.2672 36.5098 72.041 35.5891 73.8095 34.6524C77.0749 32.9247 80.3817 31.2833 83.6909 29.6414C86.7027 28.146 89.6994 26.6288 92.6708 25.0544C94.6747 23.9939 96.6977 22.9772 98.7301 21.9723C101.063 20.8138 103.388 19.6433 105.688 18.4201C120.842 10.3942 120.842 10.3942 126.712 13.918ZM15.527 183.691C15.527 191.425 15.527 199.16 15.527 207.129C16.6763 206.745 17.6283 206.407 18.6869 205.877C18.9504 205.746 19.2138 205.615 19.4852 205.479C19.7663 205.338 20.0474 205.196 20.3369 205.05C20.6334 204.902 20.9298 204.754 21.2352 204.601C21.8637 204.286 22.4919 203.971 23.1198 203.655C24.0609 203.182 25.0029 202.711 25.9451 202.24C30.9145 199.751 35.8365 197.18 40.7223 194.531C39.7752 193.899 38.7963 193.453 37.7594 192.996C37.5503 192.903 37.3412 192.81 37.1257 192.715C36.439 192.41 35.7517 192.106 35.0643 191.803C34.5878 191.592 34.1113 191.38 33.6348 191.169C29.5983 189.383 25.553 187.616 21.4965 185.875C20.7891 185.57 20.0835 185.262 19.3788 184.951C19.1922 184.87 19.0055 184.788 18.8133 184.704C18.2913 184.475 17.7699 184.245 17.2486 184.015C16.4196 183.638 16.4196 183.638 15.527 183.691Z" fill="black"/>
<path d="M195.153 114.734C195.444 114.726 195.735 114.718 196.034 114.709C199.066 115.07 201.86 116.343 204.615 117.597C205.686 118.084 206.761 118.562 207.836 119.041C208.074 119.146 208.312 119.252 208.557 119.362C211.994 120.887 215.459 122.347 218.92 123.816C220.29 124.398 221.661 124.98 223.031 125.563C223.522 125.771 223.522 125.771 224.022 125.984C226.914 127.213 229.798 128.459 232.678 129.715C234.331 130.435 235.987 131.145 237.651 131.84C237.996 131.984 238.341 132.128 238.696 132.277C239.337 132.544 239.978 132.81 240.621 133.074C246.02 135.326 246.02 135.326 247.906 137.366C248.229 137.709 248.229 137.709 248.559 138.06C248.788 138.314 248.788 138.314 249.023 138.574C248.628 139.525 248.306 139.921 247.383 140.371C247.166 140.479 246.949 140.586 246.726 140.697C246.49 140.81 246.255 140.923 246.012 141.04C245.766 141.161 245.519 141.282 245.266 141.408C244.475 141.797 243.682 142.182 242.889 142.566C241.86 143.069 240.832 143.574 239.804 144.079C239.547 144.205 239.29 144.331 239.024 144.461C237.06 145.427 235.121 146.436 233.188 147.462C230.991 148.627 228.77 149.738 226.542 150.843C223.321 152.44 220.107 154.046 216.934 155.738C215.243 156.639 213.532 157.498 211.816 158.35C208.861 159.818 205.94 161.343 203.026 162.891C200.187 164.396 197.345 165.889 194.465 167.315C192.982 168.052 191.521 168.826 190.064 169.612C188.794 170.293 187.514 170.949 186.223 171.591C186.022 171.691 185.822 171.791 185.615 171.894C184.974 172.213 184.332 172.533 183.691 172.852C176.663 176.321 176.663 176.321 169.707 179.929C168.211 180.728 166.702 181.501 165.189 182.266C164.532 182.599 163.874 182.933 163.217 183.267C162.786 183.486 162.353 183.704 161.921 183.92C157.416 186.176 154.071 188.435 152.062 193.247C151.217 195.99 151.076 198.702 151.05 201.557C151.044 201.936 151.038 202.315 151.032 202.706C151.018 203.702 151.006 204.699 150.995 205.695C150.983 206.717 150.968 207.738 150.954 208.759C150.925 210.755 150.901 212.751 150.878 214.746C148.895 214.122 146.984 213.373 145.069 212.565C144.766 212.438 144.462 212.311 144.15 212.18C140.452 210.625 136.766 209.042 133.08 207.459C132.391 207.163 131.702 206.867 131.013 206.572C129.639 205.982 128.264 205.392 126.89 204.802C123.111 203.18 119.33 201.56 115.55 199.941C112.619 198.685 112.619 198.685 111.507 198.206C109.804 197.472 108.098 196.749 106.385 196.04C105.453 195.653 104.522 195.263 103.591 194.873C103.139 194.684 102.686 194.497 102.233 194.312C96.3658 191.914 96.3658 191.914 95.1645 189.17C94.4164 187.199 94.4583 185.233 94.4724 183.152C94.4716 182.736 94.4705 182.32 94.469 181.904C94.4673 181.038 94.4697 180.171 94.4752 179.304C94.4819 178.201 94.4781 177.098 94.4711 175.995C94.4668 175.138 94.4682 174.281 94.4712 173.423C94.472 173.017 94.4711 172.611 94.4683 172.204C94.4506 168.859 94.9018 166.195 97.2606 163.705C98.3126 162.776 99.4806 162.153 100.725 161.518C101.019 161.363 101.312 161.208 101.614 161.049C105.274 159.138 108.978 157.307 112.678 155.475C115.401 154.126 118.106 152.75 120.791 151.327C122.796 150.266 124.821 149.248 126.855 148.242C129.151 147.102 131.44 145.952 133.703 144.745C136.277 143.373 138.886 142.075 141.498 140.776C143.965 139.548 146.419 138.299 148.851 137.003C150.683 136.031 152.536 135.103 154.394 134.18C156.446 133.16 158.488 132.127 160.509 131.049C163.538 129.435 166.614 127.915 169.689 126.391C171.851 125.318 173.999 124.223 176.133 123.093C178.926 121.614 181.742 120.181 184.567 118.765C185.388 118.353 186.206 117.939 187.025 117.525C187.554 117.26 188.083 116.995 188.611 116.73C188.853 116.608 189.094 116.485 189.342 116.359C191.251 115.408 192.989 114.762 195.153 114.734Z" fill="black"/>
<path d="M270.446 146.082C271.214 146.42 271.981 146.757 272.749 147.093C272.953 147.183 273.158 147.273 273.369 147.365C275.11 148.127 276.863 148.861 278.618 149.593C279.452 149.943 280.286 150.293 281.12 150.644C281.666 150.872 282.213 151.099 282.761 151.325C283.537 151.644 284.31 151.969 285.083 152.296C285.427 152.435 285.427 152.435 285.778 152.577C288.07 153.557 289.92 154.973 290.979 157.27C291.567 158.9 291.871 160.348 291.882 162.084C291.884 162.285 291.886 162.486 291.888 162.694C291.893 163.354 291.894 164.013 291.895 164.673C291.897 165.136 291.899 165.599 291.901 166.062C291.904 167.03 291.905 167.999 291.905 168.967C291.905 170.201 291.913 171.435 291.923 172.67C291.93 173.626 291.931 174.581 291.931 175.537C291.931 175.992 291.934 176.447 291.938 176.901C291.966 179.925 291.913 182.759 289.673 185.047C288.579 185.914 287.379 186.518 286.129 187.125C285.708 187.333 285.286 187.541 284.865 187.749C284.652 187.854 284.439 187.959 284.22 188.068C283.272 188.539 282.331 189.025 281.392 189.512C281.209 189.606 281.027 189.701 280.84 189.798C280.463 189.993 280.087 190.188 279.711 190.383C275.536 192.547 271.34 194.665 267.127 196.753C264.965 197.827 262.818 198.922 260.685 200.053C257.335 201.828 253.939 203.509 250.543 205.194C247.443 206.734 244.357 208.293 241.298 209.914C239.299 210.972 237.281 211.986 235.254 212.989C232.228 214.492 229.225 216.031 226.243 217.619C222.862 219.419 219.47 221.191 216.038 222.892C210.374 225.695 210.374 225.695 204.767 228.607C202.991 229.552 201.202 230.457 199.383 231.317C199.177 231.415 198.97 231.514 198.758 231.615C196.288 232.767 193.88 233.063 191.204 232.359C189.949 231.901 188.725 231.391 187.5 230.86C187.217 230.738 186.935 230.617 186.644 230.492C185.274 229.903 183.904 229.311 182.538 228.713C180.137 227.663 177.729 226.633 175.313 225.617C175.019 225.494 174.726 225.37 174.423 225.243C173.243 224.747 172.062 224.251 170.881 223.757C170.05 223.409 169.219 223.06 168.388 222.711C168.143 222.609 167.897 222.507 167.644 222.402C161.836 219.957 161.836 219.958 160.549 217.389C159.624 215.112 159.618 212.781 159.608 210.358C159.606 210.05 159.605 209.743 159.603 209.426C159.6 208.777 159.598 208.128 159.597 207.48C159.594 206.497 159.585 205.514 159.576 204.531C159.574 203.897 159.573 203.264 159.572 202.63C159.568 202.341 159.564 202.052 159.561 201.753C159.57 198.685 160.047 195.32 162.304 193.067C163.402 192.288 164.559 191.665 165.755 191.055C166.451 190.7 167.141 190.336 167.832 189.97C169.597 189.038 171.371 188.123 173.144 187.207C173.523 187.011 173.902 186.815 174.281 186.619C178.657 184.353 183.038 182.103 187.451 179.91C189.12 179.079 190.778 178.23 192.425 177.356C194.948 176.018 197.484 174.707 200.024 173.401C200.237 173.292 200.45 173.182 200.67 173.069C204.973 170.857 209.284 168.659 213.594 166.461C217.314 164.563 221.028 162.655 224.732 160.726C227.103 159.493 229.491 158.296 231.885 157.107C233.908 156.1 235.912 155.059 237.908 153.999C239.793 153 241.699 152.046 243.61 151.098C245.269 150.273 246.911 149.422 248.547 148.554C250.625 147.454 252.711 146.374 254.809 145.313C255.212 145.107 255.212 145.107 255.623 144.896C261.101 142.143 265.086 143.708 270.446 146.082Z" fill="black"/>
<path d="M113.685 77.6827C114.495 78.031 115.308 78.375 116.12 78.7192C118.509 79.7318 120.893 80.7565 123.274 81.7882C124.264 82.2171 125.256 82.6424 126.248 83.0665C127.129 83.4446 128.009 83.8275 128.889 84.2098C129.197 84.3408 129.505 84.4719 129.823 84.6069C134.327 86.5833 138.161 89.6005 141.212 93.4566C141.334 93.6111 141.456 93.7656 141.583 93.9247C146.862 100.656 146.862 100.656 146.485 104.296C146.076 106.037 145.401 107.469 143.957 108.556C142.484 109.464 140.924 110.196 139.366 110.945C137.746 111.729 136.138 112.537 134.528 113.342C134.35 113.431 134.172 113.52 133.988 113.612C131.57 114.819 129.166 116.05 126.78 117.32C125.158 118.18 123.521 119.008 121.876 119.824C120.051 120.73 118.237 121.652 116.438 122.607C113.75 124.031 111.049 125.427 108.344 126.818C108.121 126.933 107.898 127.048 107.668 127.166C104.613 128.737 101.549 130.288 98.472 131.816C96.6704 132.712 94.8865 133.637 93.1099 134.582C84.2426 139.283 84.2426 139.283 78.9297 138.034C75.7038 137.014 72.624 135.736 69.5259 134.381C68.9858 134.147 68.4456 133.913 67.9053 133.679C66.8024 133.202 65.7002 132.723 64.5985 132.243C62.8551 131.484 61.1097 130.729 59.364 129.975C58.233 129.487 57.1021 128.998 55.9719 128.507C53.9102 127.613 51.8464 126.724 49.7745 125.854C49.4002 125.696 49.026 125.538 48.6517 125.38C47.9752 125.095 47.2979 124.812 46.6195 124.531C42.4445 122.769 38.4087 120.701 36.6218 116.308C35.8897 113.704 36.5488 111.361 37.8013 109.004C39.3088 106.363 41.0511 103.938 43.0671 101.66C43.1929 101.516 43.3187 101.373 43.4482 101.225C49.1739 94.7198 56.0582 91.069 63.6392 87.1417C64.8169 86.5298 65.9904 85.9101 67.1638 85.2901C96.0332 70.075 96.0332 70.075 113.685 77.6827Z" fill="black"/>
<path d="M155.273 103.418C156.625 103.59 157.722 103.958 158.965 104.513C159.148 104.594 159.332 104.675 159.521 104.759C160.12 105.024 160.718 105.292 161.316 105.56C161.945 105.84 162.574 106.118 163.203 106.397C163.633 106.587 164.062 106.777 164.491 106.967C165.911 107.597 167.336 108.216 168.766 108.825C168.952 108.905 169.137 108.984 169.329 109.065C170.206 109.439 171.084 109.811 171.962 110.183C173.656 110.904 175.317 111.654 176.953 112.5C176.953 112.693 176.953 112.887 176.953 113.086C174.629 114.249 172.305 115.41 169.98 116.569C168.89 117.112 167.8 117.656 166.71 118.199C166.155 118.476 165.6 118.753 165.045 119.029C161.973 120.558 158.913 122.105 155.881 123.712C153.178 125.142 150.453 126.529 147.729 127.917C147.158 128.209 146.586 128.501 146.015 128.793C145.123 129.247 144.232 129.702 143.341 130.157C141.245 131.226 139.15 132.297 137.055 133.369C131.458 136.234 125.859 139.095 120.224 141.884C117.979 142.998 115.755 144.149 113.54 145.322C111.736 146.274 109.924 147.207 108.106 148.131C107.832 148.271 107.558 148.41 107.275 148.554C106.155 149.124 105.034 149.693 103.913 150.262C100.91 151.785 97.9134 153.322 94.9479 154.918C94.7136 155.041 94.4792 155.164 94.2378 155.292C90.4549 157.353 87.8987 160.493 86.572 164.594C85.7693 167.406 85.7991 170.246 85.8109 173.146C85.8113 173.532 85.8118 173.919 85.8122 174.317C85.8133 175.335 85.8162 176.354 85.8194 177.373C85.8224 178.415 85.8238 179.458 85.8252 180.501C85.8284 182.541 85.8333 184.581 85.8395 186.621C84.564 186.424 83.4947 186.136 82.3045 185.631C81.9563 185.484 81.6082 185.338 81.2495 185.187C80.8691 185.024 80.4887 184.861 80.1083 184.698C79.7067 184.528 79.3049 184.358 78.9031 184.188C75.3344 182.674 71.7779 181.132 68.2216 179.589C65.3777 178.356 62.529 177.135 59.6738 175.928C55.2912 174.075 50.9178 172.201 46.5451 170.325C39.1415 167.149 31.731 163.989 24.3161 160.84C24.2662 158.714 24.2195 156.589 24.1748 154.463C24.1593 153.742 24.1431 153.021 24.1262 152.3C23.8236 139.347 23.8236 139.347 26.1655 136.249C28.1511 134.171 30.9001 133.086 33.4849 131.923C34.2845 131.556 34.2845 131.556 35.0297 131.084C36.8027 130.026 36.8027 130.026 37.9023 130.167C38.6799 130.448 39.3859 130.793 40.1181 131.177C40.7211 131.465 41.3247 131.752 41.9286 132.038C42.254 132.197 42.5794 132.355 42.9147 132.518C44.5506 133.296 46.2173 133.998 47.8848 134.704C48.7364 135.065 49.5868 135.43 50.4371 135.794C51.1505 136.099 51.864 136.404 52.5776 136.709C53.7562 137.213 54.9347 137.717 56.1132 138.221C57.8539 138.966 59.595 139.709 61.3363 140.452C62.0247 140.746 62.7131 141.041 63.4013 141.335C66.6919 142.742 69.9843 144.143 73.3048 145.478C73.5387 145.573 73.7725 145.667 74.0135 145.765C79.3175 147.877 84.8139 148.144 90.1212 145.862C93.2177 144.47 96.2506 142.933 99.2336 141.312C100.521 140.613 101.825 139.952 103.136 139.3C106.009 137.87 108.867 136.412 111.724 134.952C112.625 134.492 113.526 134.033 114.427 133.574C117.014 132.254 119.597 130.93 122.16 129.564C124.283 128.433 126.427 127.349 128.583 126.282C129.688 125.734 130.792 125.183 131.896 124.633C132.125 124.519 132.353 124.405 132.589 124.288C139.023 121.103 139.023 121.103 145.378 117.764C145.885 117.488 146.394 117.216 146.904 116.944C150.324 115.053 153.343 112.564 154.632 108.765C155.102 107.013 155.191 105.223 155.273 103.418Z" fill="black"/>
<path d="M150.586 198.047C150.683 198.047 150.779 198.047 150.879 198.047C150.879 203.558 150.879 209.068 150.879 214.746C150.202 214.553 149.525 214.359 148.828 214.16C149.963 213.281 149.963 213.281 150.293 213.281C150.39 208.254 150.486 203.227 150.586 198.047Z" fill="black"/>
<path d="M149.707 213.281C150.348 213.373 150.348 213.373 150.879 213.574C150.879 213.961 150.879 214.348 150.879 214.746C150.202 214.553 149.525 214.359 148.828 214.16C149.194 213.702 149.194 213.702 149.707 213.281Z" fill="black"/>
</g>
<defs>
<clipPath id="clip0_48_248">
<rect width="300" height="300" fill="white"/>
</clipPath>
</defs>
</svg>
