<svg width="300" height="300" viewBox="0 0 300 300" fill="none" xmlns="http://www.w3.org/2000/svg">
<path d="M126.689 26.3773C129.932 28.8566 131.549 32.3473 132.129 36.3279C132.205 37.5334 132.204 38.7341 132.196 39.9415C132.196 40.2906 132.196 40.6396 132.196 40.9992C132.196 41.947 132.193 42.8946 132.189 43.8424C132.185 44.8363 132.185 45.8302 132.184 46.8241C132.182 48.702 132.177 50.58 132.171 52.4579C132.165 54.5976 132.162 56.7373 132.159 58.877C132.153 63.2747 132.142 67.6724 132.129 72.0701C130.927 71.8538 130.034 71.4969 128.956 70.9131C128.627 70.7378 128.299 70.5625 127.961 70.3819C127.789 70.2896 127.618 70.1973 127.441 70.1022C123.399 67.9352 119.488 66.1157 114.955 65.1979C114.258 65.0389 114.258 65.0389 113.965 64.7459C113.938 64.1078 113.931 63.4688 113.932 62.8301C113.932 62.63 113.932 62.43 113.932 62.2238C113.932 61.5596 113.934 60.8954 113.937 60.2312C113.937 59.7718 113.938 59.3125 113.938 58.8531C113.939 57.6418 113.942 56.4305 113.945 55.2191C113.948 53.984 113.949 52.7488 113.951 51.5137C113.954 49.0885 113.959 46.6633 113.965 44.2381C113.65 44.3961 113.334 44.5541 113.01 44.7169C110.007 46.2212 107.004 47.7248 104.001 49.2279C102.458 50.0003 100.914 50.7728 99.3716 51.5459C97.8769 52.2949 96.3819 53.0433 94.8866 53.7913C94.3222 54.0738 93.7578 54.3565 93.1935 54.6394C89.9234 56.2789 86.6403 57.886 83.3372 59.458C80.8081 60.6637 78.2991 61.9073 75.7957 63.1653C75.0232 63.5535 74.2503 63.9409 73.4773 64.328C71.8362 65.1502 70.1956 65.9734 68.555 66.7967C66.3887 67.8838 64.2221 68.9706 62.0548 70.056C61.7927 70.1872 61.5306 70.3185 61.2605 70.4537C58.222 71.9746 55.1773 73.4773 52.1047 74.9284C47.2521 77.2315 42.4668 79.6795 37.6651 82.086C32.2178 84.8142 32.2178 84.8142 26.6605 87.5975C26.6605 101.133 26.6605 114.668 26.6605 128.613C30.0094 126.939 30.0094 126.939 33.3564 125.261C33.9746 124.956 34.593 124.651 35.2115 124.347C35.5274 124.187 35.8433 124.028 36.1688 123.863C36.6257 123.64 36.6257 123.64 37.0918 123.412C37.3611 123.278 37.6305 123.144 37.908 123.006C39.1923 122.582 40.1577 123.005 41.333 123.57C41.5582 123.677 41.7835 123.785 42.0156 123.895C42.2477 124.008 42.4797 124.121 42.7188 124.237C42.9385 124.342 43.1581 124.446 43.3843 124.554C44.8561 125.261 46.3167 125.989 47.776 126.72C50.757 128.214 53.7489 129.686 56.742 131.156C57.3868 131.473 58.0314 131.79 58.6758 132.108C62.1605 133.825 65.6537 135.52 69.1822 137.146C69.4691 137.279 69.756 137.411 70.0516 137.548C73.2337 139.002 76.17 139.827 79.6878 139.892C80.0265 139.901 80.0265 139.901 80.3719 139.909C84.5386 139.863 88.2506 138.124 91.9193 136.34C92.3622 136.128 92.8052 135.916 93.2483 135.705C95.6953 134.531 98.123 133.325 100.509 132.031C102.167 131.138 103.854 130.319 105.557 129.516C109.561 127.614 113.521 125.624 117.481 123.633C121.615 121.554 125.751 119.485 129.932 117.5C132.905 116.085 135.85 114.616 138.794 113.142C139.723 112.676 140.653 112.212 141.583 111.748C142.185 111.447 142.786 111.146 143.388 110.845C143.661 110.709 143.934 110.573 144.215 110.432C148.778 108.143 151.27 106.405 153.224 101.509C154.095 98.8337 154.023 95.951 154.102 93.1639C158.203 94.9325 162.196 96.8954 166.182 98.9077C169.013 100.336 171.856 101.725 174.745 103.034C174.997 103.151 175.249 103.268 175.508 103.388C175.725 103.487 175.943 103.585 176.167 103.687C176.661 104.004 176.661 104.004 176.953 104.883C176.757 104.976 176.561 105.069 176.358 105.164C175.464 105.589 174.57 106.014 173.676 106.439C173.367 106.585 173.058 106.732 172.739 106.882C172.44 107.025 172.141 107.168 171.832 107.314C171.558 107.445 171.283 107.575 171 107.71C170.201 108.086 170.201 108.086 169.492 108.631C168.75 108.984 168.75 108.984 167.883 108.794C167.589 108.663 167.295 108.533 166.993 108.398C166.588 108.219 166.588 108.219 166.174 108.036C165.901 107.904 165.628 107.772 165.347 107.636C165.049 107.493 164.75 107.349 164.443 107.201C164.136 107.052 163.829 106.904 163.514 106.75C163.043 106.524 163.043 106.524 162.564 106.293C161.793 105.921 161.024 105.549 160.254 105.176C160.211 105.404 160.168 105.632 160.123 105.867C159.399 109.33 156.69 112.366 153.9 114.404C149.932 116.977 145.596 118.971 141.337 121.007C137.68 122.763 134.047 124.566 130.42 126.383C130.152 126.516 129.885 126.65 129.61 126.788C127.678 127.756 125.747 128.724 123.816 129.693C111.297 135.976 111.297 135.976 107.122 137.951C103.042 139.885 99.0052 141.908 94.9641 143.922C93.9775 144.413 92.99 144.903 92.0018 145.391C90.7884 145.99 89.5765 146.593 88.3655 147.197C87.9103 147.424 87.4546 147.649 86.9983 147.874C83.02 149.834 79.2633 151.845 77.589 156.185C77.15 157.702 77.1673 159.209 77.1656 160.778C77.1607 161.125 77.1559 161.472 77.1509 161.829C77.1368 162.928 77.1304 164.026 77.1244 165.124C77.1161 165.873 77.1073 166.622 77.098 167.371C77.0765 169.198 77.0613 171.024 77.0511 172.851C75.3155 172.343 73.7301 171.549 72.1073 170.764C71.8218 170.627 71.5363 170.49 71.2421 170.349C70.5413 170.012 69.8409 169.674 69.141 169.336C69.1111 167.267 69.0906 165.198 69.0766 163.129C69.0707 162.426 69.0628 161.724 69.0526 161.021C69.0382 160.007 69.0317 158.992 69.0265 157.977C69.0205 157.667 69.0144 157.357 69.0082 157.037C69.0074 154.335 69.5896 151.782 71.3932 149.689C72.1001 148.868 72.1001 148.868 72.6566 147.949C61.9525 142.636 61.9525 142.636 51.1458 137.537C49.2009 136.646 47.3145 135.708 45.4551 134.649C41.7646 132.348 41.7646 132.348 37.648 132.086C36.4206 132.581 35.3665 133.263 34.3029 134.043C33.3407 134.719 32.292 135.202 31.2381 135.718C29.0468 136.855 27.7927 137.987 26.9051 140.289C26.4055 142.171 26.5189 144.115 26.5461 146.047C26.5482 146.509 26.5499 146.971 26.5511 147.434C26.5555 148.641 26.567 149.847 26.58 151.054C26.5921 152.29 26.5974 153.525 26.6033 154.761C26.6158 157.178 26.6357 159.595 26.6605 162.012C35.3512 166.279 35.3512 166.279 44.1142 170.396C46.3947 171.446 48.641 172.552 50.8803 173.687C52.949 174.73 55.0428 175.711 57.1476 176.678C60.4648 178.204 63.7541 179.782 67.0353 181.384C67.3865 181.556 67.3865 181.556 67.7448 181.73C68.6646 182.179 69.5843 182.628 70.504 183.077C74.1031 184.834 77.7172 186.559 81.3438 188.259C82.1713 188.646 82.9987 189.034 83.826 189.422C84.1392 189.569 84.1392 189.569 84.4586 189.719C87.881 191.325 91.2864 192.965 94.6842 194.623C94.9155 194.735 95.1467 194.848 95.385 194.965C96.287 195.405 97.1889 195.845 98.0908 196.285C101.718 198.054 105.362 199.789 109.013 201.507C109.895 201.922 110.777 202.337 111.658 202.752C111.881 202.857 112.104 202.963 112.334 203.071C116.053 204.823 119.753 206.613 123.446 208.419C126.302 209.815 129.167 211.186 132.056 212.512C135.506 214.096 138.919 215.751 142.328 217.419C142.59 217.548 142.853 217.676 143.123 217.808C144.148 218.31 145.173 218.811 146.198 219.313C149.89 221.12 153.601 222.887 157.321 224.636C157.529 224.734 157.737 224.832 157.952 224.932C159.024 225.436 160.096 225.939 161.169 226.441C163.218 227.399 165.256 228.372 167.276 229.39C167.641 229.572 168.006 229.754 168.371 229.936C169.047 230.275 169.72 230.618 170.391 230.967C170.691 231.116 170.991 231.266 171.3 231.42C171.688 231.619 171.688 231.619 172.084 231.822C173.769 232.28 175.585 230.998 177.075 230.247C177.319 230.125 177.563 230.003 177.814 229.878C178.63 229.47 179.446 229.06 180.261 228.65C180.847 228.357 181.433 228.064 182.018 227.771C183.28 227.14 184.541 226.508 185.802 225.875C187.801 224.873 189.8 223.872 191.799 222.871C194.607 221.466 197.414 220.06 200.222 218.653C200.4 218.564 200.578 218.475 200.761 218.383C201.028 218.249 201.028 218.249 201.301 218.112C201.662 217.932 202.022 217.751 202.383 217.57C202.561 217.481 202.74 217.391 202.924 217.299C204.9 216.309 206.877 215.319 208.853 214.329C209.118 214.196 209.118 214.196 209.388 214.06C212.349 212.577 215.311 211.094 218.272 209.612C220.255 208.619 222.237 207.626 224.219 206.633C225.46 206.011 226.701 205.389 227.942 204.768C228.512 204.482 229.082 204.197 229.652 203.911C232.854 202.304 236.069 200.73 239.312 199.208C240.845 198.487 242.36 197.732 243.871 196.968C244.899 196.449 245.927 195.931 246.955 195.413C248.132 194.821 249.309 194.229 250.487 193.636C253.385 192.177 256.285 190.721 259.185 189.266C261.246 188.232 263.306 187.196 265.365 186.158C267.176 185.246 268.988 184.335 270.801 183.427C271.756 182.949 272.71 182.469 273.663 181.987C274.725 181.451 275.789 180.919 276.853 180.387C277.163 180.229 277.472 180.072 277.791 179.91C280.807 178.412 284.048 177.142 287.421 178.106C289.212 178.882 290.444 180.358 291.276 182.095C292.365 185.275 292.26 188.444 292.246 191.77C292.247 192.407 292.248 193.045 292.249 193.683C292.251 195.013 292.248 196.344 292.243 197.674C292.236 199.373 292.24 201.073 292.247 202.772C292.251 204.087 292.25 205.401 292.247 206.716C292.246 207.342 292.247 207.969 292.25 208.595C292.253 209.472 292.248 210.349 292.242 211.225C292.244 211.48 292.247 211.735 292.249 211.997C292.21 214.827 291.177 217.102 289.245 219.146C287.151 220.958 284.824 221.598 282.112 221.565C279.852 221.352 277.521 220.228 275.977 218.554C274.483 216.127 273.892 214.136 273.833 211.317C273.827 211.072 273.821 210.826 273.815 210.573C273.796 209.791 273.779 209.009 273.761 208.227C273.749 207.696 273.736 207.165 273.723 206.634C273.692 205.334 273.662 204.034 273.633 202.734C273.368 202.867 273.103 203 272.829 203.137C270.301 204.404 267.772 205.671 265.243 206.937C263.943 207.588 262.644 208.238 261.345 208.89C250.834 214.158 250.834 214.158 247.228 215.842C245.83 216.496 244.446 217.177 243.066 217.869C242.757 218.024 242.757 218.024 242.441 218.182C242.013 218.397 241.584 218.611 241.155 218.826C240.391 219.209 239.628 219.591 238.864 219.973C238.114 220.348 237.364 220.724 236.614 221.099C232.101 223.359 227.587 225.617 223.073 227.875C220.473 229.176 217.873 230.477 215.273 231.779C212.989 232.922 210.705 234.065 208.42 235.208C207.217 235.809 206.015 236.411 204.813 237.013C203.467 237.687 202.121 238.361 200.775 239.033C200.564 239.139 200.352 239.245 200.135 239.353C197.236 240.8 194.325 242.214 191.397 243.602C189.433 244.536 187.512 245.524 185.614 246.588C185.337 246.741 185.06 246.894 184.775 247.052C184.12 247.414 183.466 247.778 182.813 248.144C182.813 248.361 182.814 248.578 182.815 248.801C182.821 250.857 182.825 252.912 182.828 254.968C182.83 256.024 182.832 257.081 182.835 258.137C182.838 259.159 182.84 260.181 182.841 261.203C182.841 261.777 182.844 262.351 182.846 262.926C182.846 266.912 182.81 270.228 180.193 273.455C178.33 275.305 176.081 276.132 173.48 276.335C171.043 276.247 168.763 275.254 166.932 273.653C164.938 271.496 164.317 269.242 164.323 266.337C164.323 266.14 164.322 265.942 164.322 265.739C164.323 265.091 164.325 264.442 164.327 263.794C164.328 263.343 164.328 262.892 164.328 262.441C164.33 261.256 164.332 260.072 164.336 258.888C164.339 257.678 164.34 256.468 164.342 255.259C164.345 252.887 164.35 250.516 164.356 248.144C164.093 248.06 163.83 247.976 163.558 247.89C162.765 247.616 162.043 247.319 161.293 246.948C160.927 246.768 160.927 246.768 160.554 246.584C160.293 246.455 160.033 246.325 159.764 246.192C159.488 246.056 159.212 245.92 158.927 245.78C158.334 245.487 157.742 245.195 157.149 244.902C155.592 244.132 154.034 243.367 152.475 242.602C152.163 242.449 151.852 242.296 151.531 242.139C147.703 240.264 143.845 238.454 139.982 236.653C138.732 236.07 137.482 235.484 136.233 234.898C136.03 234.803 135.828 234.708 135.619 234.61C134.324 234.001 133.041 233.371 131.763 232.727C128.101 230.883 124.399 229.12 120.703 227.344C120.267 227.133 120.267 227.133 119.821 226.919C117.117 225.618 114.41 224.328 111.694 223.054C110.864 222.665 110.034 222.276 109.204 221.887C108.994 221.788 108.783 221.69 108.566 221.588C105.108 219.965 101.668 218.305 98.235 216.63C94.8745 214.99 91.4991 213.385 88.1126 211.8C85.0109 210.348 81.9242 208.867 78.8456 207.367C74.856 205.422 70.8406 203.542 66.8107 201.682C65.5096 201.08 64.2116 200.472 62.9154 199.859C62.7206 199.768 62.5257 199.676 62.325 199.582C61.1282 199.015 59.9425 198.428 58.7596 197.833C56.2814 196.587 53.7833 195.389 51.2724 194.21C46.26 191.855 41.2784 189.44 36.3121 186.989C33.1271 185.421 29.9159 183.935 26.6605 182.519C26.6651 182.903 26.6697 183.287 26.6744 183.683C26.6905 185.119 26.7005 186.555 26.7088 187.991C26.7132 188.61 26.7192 189.23 26.7268 189.849C26.7376 190.744 26.7425 191.638 26.7463 192.533C26.7509 192.806 26.7554 193.079 26.7601 193.361C26.7609 196.678 25.8366 199.1 23.5363 201.481C21.356 203.507 19.2232 203.781 16.3173 203.715C13.5983 203.459 11.5719 202.252 9.83425 200.183C7.76109 197.261 7.78159 193.509 7.80087 190.069C7.80006 189.631 7.79887 189.192 7.79733 188.754C7.79426 187.56 7.7966 186.365 7.7999 185.171C7.80251 183.879 7.80001 182.587 7.79818 181.295C7.7954 178.767 7.79733 176.24 7.80089 173.712C7.8049 170.764 7.8044 167.817 7.80378 164.869C7.80285 159.606 7.80626 154.343 7.81201 149.081C7.81757 143.983 7.81965 138.885 7.81801 133.787C7.81624 128.227 7.8163 122.668 7.81962 117.108C7.81998 116.514 7.82033 115.92 7.82068 115.327C7.82086 115.034 7.82103 114.742 7.82122 114.441C7.82235 112.39 7.82224 110.34 7.82168 108.289C7.82106 105.786 7.82261 103.283 7.82684 100.78C7.82895 99.5048 7.83017 98.2297 7.82882 96.9545C7.82762 95.7838 7.82917 94.6131 7.83281 93.4424C7.83366 93.0223 7.83356 92.6022 7.83233 92.1821C7.82638 89.9424 7.92095 87.7389 8.17505 85.5149C8.19821 85.3098 8.22136 85.1048 8.24522 84.8935C8.46465 83.1363 8.92575 81.5822 9.66831 79.9803C9.77028 79.7563 9.87224 79.5324 9.9773 79.3016C12.4022 74.4936 16.7867 72.05 21.3871 69.7264C21.7422 69.5448 22.0974 69.3633 22.4525 69.1816C24.5811 68.101 26.7311 67.0654 28.883 66.0321C32.2283 64.4252 35.5627 62.7983 38.8805 61.1353C39.0574 61.0466 39.2343 60.958 39.4165 60.8667C40.6703 60.238 41.9235 59.6082 43.1766 58.9781C44.6128 58.2559 46.0493 57.5343 47.4865 56.814C47.6629 56.7256 47.8393 56.6371 48.0211 56.546C50.2383 55.4356 52.464 54.3473 54.7054 53.2869C57.8178 51.8123 60.8982 50.2756 63.9774 48.7333C64.2324 48.6056 64.4874 48.4779 64.7501 48.3463C66.6048 47.4172 68.4589 46.4869 70.3128 45.5564C72.4243 44.4967 74.536 43.4375 76.6483 42.3796C76.9037 42.2516 77.1591 42.1237 77.4223 41.9919C80.439 40.4817 83.463 38.9924 86.5137 37.552C89.1362 36.3071 91.7267 34.9995 94.3191 33.6935C94.7902 33.4564 95.2613 33.2194 95.7323 32.9823C97.6692 32.0074 99.6059 31.032 101.541 30.0528C102.742 29.4449 103.945 28.8393 105.149 28.2352C105.599 28.0083 106.05 27.7806 106.5 27.552C113.321 24.0869 119.818 21.748 126.689 26.3773Z" fill="black"/>
<path d="M212.565 115.224C214.289 116.083 216.027 116.912 217.767 117.737C220.393 118.981 222.99 120.278 225.586 121.582C225.986 121.783 226.386 121.984 226.786 122.185C226.984 122.284 227.181 122.384 227.385 122.486C233.472 125.542 233.472 125.542 239.603 128.507C242.301 129.788 244.985 131.095 247.669 132.404C247.909 132.521 248.15 132.639 248.398 132.76C249.393 133.245 250.388 133.73 251.383 134.216C252.968 134.99 254.554 135.763 256.14 136.535C257.213 137.058 258.287 137.581 259.361 138.104C259.87 138.352 260.379 138.6 260.888 138.848C262.28 139.526 263.671 140.206 265.061 140.888C265.73 141.215 266.4 141.538 267.071 141.861C267.495 142.067 267.919 142.274 268.342 142.48C268.631 142.618 268.631 142.618 268.925 142.758C270.245 143.406 271.314 144.031 271.857 145.441C271.882 146.496 271.675 146.838 270.996 147.657C269.274 148.97 267.409 149.924 265.448 150.824C262.475 152.217 259.537 153.67 256.604 155.146C253.852 156.529 251.098 157.902 248.309 159.211C246.212 160.195 244.16 161.245 242.117 162.339C240.398 163.252 238.655 164.102 236.895 164.932C233.158 166.708 229.459 168.555 225.761 170.411C224.832 170.877 223.902 171.342 222.972 171.808C220.62 172.985 218.269 174.164 215.918 175.342C213.377 176.616 210.835 177.89 208.293 179.162C207.376 179.622 206.459 180.081 205.542 180.541C201.252 182.694 196.945 184.805 192.61 186.866C190.005 188.109 187.418 189.391 184.831 190.674C183.886 191.143 182.939 191.61 181.991 192.074C181.051 192.533 180.112 192.997 179.175 193.464C178.658 193.721 178.138 193.973 177.619 194.225C174.769 195.654 172.385 197.143 171.286 200.247C170.764 202.23 170.763 204.137 170.772 206.175C170.773 206.504 170.773 206.833 170.773 207.172C170.775 208.22 170.779 209.268 170.783 210.315C170.784 211.027 170.785 211.739 170.787 212.451C170.79 214.193 170.795 215.934 170.801 217.676C170.607 217.773 170.414 217.869 170.215 217.969C169.549 217.697 168.921 217.407 168.28 217.086C168.084 216.99 167.889 216.894 167.688 216.796C167.046 216.481 166.406 216.163 165.765 215.845C165.32 215.626 164.874 215.407 164.428 215.189C163.539 214.753 162.65 214.316 161.762 213.878C160.245 213.132 158.722 212.398 157.196 211.67C156.808 211.485 156.808 211.485 156.412 211.296C153.699 210.001 150.976 208.726 148.255 207.448C144.438 205.655 140.635 203.832 136.838 201.997C135.142 201.179 133.444 200.369 131.745 199.558C130.265 198.851 128.786 198.141 127.31 197.427C124.021 195.836 120.726 194.265 117.407 192.737C113.791 191.071 110.212 189.332 106.637 187.579C103.079 185.835 99.5056 184.132 95.8958 182.496C95.4347 182.286 95.4347 182.286 94.9643 182.071C94.567 181.892 94.567 181.892 94.1618 181.709C93.4397 181.339 92.8793 181.024 92.2852 180.469C92.1384 179.76 92.1384 179.76 92.1382 178.91C92.1355 178.591 92.1327 178.272 92.1299 177.943C92.1332 177.598 92.1365 177.253 92.1399 176.897C92.1394 176.541 92.139 176.185 92.1386 175.819C92.1391 175.064 92.1425 174.309 92.1485 173.554C92.1569 172.406 92.1546 171.258 92.1507 170.109C92.1526 169.375 92.155 168.641 92.1582 167.907C92.1573 167.566 92.1564 167.225 92.1556 166.874C92.1845 164.336 92.4372 161.789 94.0796 159.742C94.2314 159.544 94.3833 159.346 94.5397 159.142C96.9498 156.838 100.175 155.518 103.127 154.053C103.646 153.794 104.165 153.535 104.683 153.275C105.77 152.733 106.857 152.192 107.944 151.651C109.318 150.968 110.69 150.284 112.062 149.599C117.108 147.079 122.157 144.569 127.253 142.153C129.093 141.28 130.912 140.367 132.729 139.449C134.414 138.598 136.103 137.754 137.79 136.908C138.224 136.69 138.657 136.472 139.091 136.254C141.398 135.094 143.711 133.948 146.045 132.842C149.387 131.258 152.699 129.62 156.006 127.964C156.248 127.842 156.49 127.721 156.739 127.596C158.497 126.716 160.254 125.834 162.012 124.952C164.013 123.947 166.015 122.942 168.018 121.939C168.258 121.819 168.498 121.699 168.745 121.575C172.103 119.894 175.474 118.247 178.868 116.64C180.194 116.011 181.503 115.351 182.807 114.676C193.753 109.013 201.774 109.842 212.565 115.224Z" fill="black"/>
<path d="M111.035 74.7071C111.254 74.7575 111.473 74.8079 111.698 74.8598C120.847 77.0668 134.842 83.744 140.338 91.6741C141.525 93.7811 141.916 95.7482 141.504 98.1446C141.162 99.0839 140.705 99.7481 140.039 100.488C139.889 100.658 139.739 100.828 139.585 101.003C138.412 102.163 137.072 102.894 135.6 103.608C135.178 103.815 134.756 104.023 134.334 104.231C134.006 104.392 134.006 104.392 133.672 104.556C132.588 105.089 131.51 105.632 130.431 106.174C129.979 106.4 129.528 106.626 129.076 106.852C128.73 107.026 128.73 107.026 128.378 107.202C126.853 107.966 125.329 108.729 123.804 109.492C122.481 110.155 121.158 110.817 119.835 111.48C109.633 116.594 109.633 116.594 105.217 118.683C103.021 119.724 100.848 120.809 98.6778 121.902C98.5011 121.991 98.3243 122.08 98.1423 122.172C96.5153 122.991 94.889 123.811 93.264 124.633C92.5362 125.002 91.8078 125.369 91.079 125.736C90.4029 126.076 89.7276 126.417 89.053 126.76C85.9643 128.309 83.2615 129.232 79.779 129.272C79.2063 129.284 79.2063 129.284 78.622 129.295C75.4088 129.156 72.5696 127.677 69.7265 126.306C69.2966 126.101 68.8665 125.897 68.4364 125.692C64.2878 123.713 60.1592 121.692 56.0333 119.667C53.8107 118.576 51.5887 117.486 49.3469 116.435C48.8797 116.215 48.8797 116.215 48.403 115.991C47.8647 115.74 47.3255 115.491 46.7849 115.245C44.2168 114.047 41.7527 112.484 40.6128 109.79C40.1825 107.208 40.7025 105.26 42.1875 103.125C44.3768 100.069 47.6949 98.551 51.0148 96.983C52.1212 96.4598 53.2238 95.9285 54.3262 95.3968C54.5782 95.2753 54.8302 95.1539 55.0898 95.0287C57.5104 93.8572 59.9165 92.6571 62.3211 91.4532C62.6261 91.3005 62.6261 91.3005 62.9373 91.1447C64.8012 90.2113 66.6645 89.2768 68.5271 88.3411C69.7064 87.7486 70.8859 87.1567 72.0657 86.5654C72.2557 86.4702 72.4457 86.375 72.6414 86.2768C75.4063 84.8921 78.1855 83.5401 80.9793 82.2145C82.7923 81.3533 84.5849 80.4615 86.3703 79.5442C89.2284 78.0783 92.0985 76.6942 95.0866 75.5127C95.3493 75.4077 95.612 75.3026 95.8826 75.1944C100.868 73.2925 105.924 73.5168 111.035 74.7071Z" fill="black"/>
<path d="M175.195 103.418C175.775 103.708 176.355 103.998 176.953 104.297C176.953 104.49 176.953 104.684 176.953 104.883C176.47 105.076 175.986 105.27 175.488 105.469C175.392 104.792 175.295 104.115 175.195 103.418Z" fill="black"/>
<path d="M94.043 34.5704C93.8798 34.649 93.7167 34.7275 93.5486 34.8085C92.8133 35.186 92.1113 35.6044 91.4062 36.0353C91.2129 35.8419 91.0195 35.6486 90.8203 35.4494C91.1907 35.2444 91.5635 35.0438 91.9373 34.8451C92.1446 34.7329 92.3519 34.6208 92.5655 34.5052C93.1641 34.2775 93.1641 34.2775 94.043 34.5704Z" fill="black"/>
<path d="M155.566 111.328C155.953 111.425 156.34 111.521 156.738 111.621C156.363 112.121 155.971 112.609 155.566 113.086C155.373 113.086 155.18 113.086 154.98 113.086C155.129 112.451 155.273 111.914 155.566 111.328Z" fill="black"/>
</svg>
