<svg width="300" height="300" viewBox="0 0 300 300" fill="none" xmlns="http://www.w3.org/2000/svg">
<path d="M137.402 76.4648C137.402 78.0117 137.402 79.5586 137.402 81.1523C136.959 81.3298 136.516 81.5073 136.06 81.6902C130.587 83.909 125.364 86.2717 120.703 89.9414C120.542 90.0671 120.382 90.1927 120.216 90.3222C114.611 94.7547 110.509 100.327 107.227 106.641C107.105 106.869 106.983 107.097 106.858 107.332C102.664 115.256 100.241 123.973 98.4376 132.715C98.3726 133.027 98.3077 133.339 98.2409 133.66C97.9024 135.296 97.5765 136.933 97.2657 138.574C97.8282 138.468 97.8282 138.468 98.4021 138.359C106.447 136.897 114.603 136.265 122.754 135.736C123.028 135.718 123.302 135.7 123.584 135.682C129.793 135.284 135.993 135.013 142.215 134.999C142.796 134.997 143.377 134.995 143.959 134.993C145.808 134.987 147.657 134.986 149.506 134.985C149.979 134.985 149.979 134.985 150.462 134.985C160.783 134.981 171.053 135.13 181.348 135.938C181.785 135.971 181.785 135.971 182.23 136.006C197.58 137.215 197.58 137.215 202.734 138.574C199.845 123.352 196.16 106.845 185.138 95.2377C184.57 94.6289 184.57 94.6289 183.974 93.877C178.783 87.4477 170.124 83.8945 162.598 81.1523C162.598 79.6055 162.598 78.0586 162.598 76.4648C168.083 77.6471 173.192 79.3341 178.125 82.0312C178.438 82.2001 178.75 82.3689 179.073 82.5428C187.338 87.1789 193.862 94.5325 197.754 103.125C197.91 103.458 198.065 103.791 198.225 104.134C201.26 110.876 203.796 119.438 203.613 126.855C203.784 126.937 203.954 127.018 204.129 127.101C207.409 128.802 211.733 131.486 212.988 135.059C213.182 136.102 213.182 136.102 213.3 137.194C213.322 137.389 213.345 137.584 213.368 137.786C213.464 138.611 213.553 139.437 213.642 140.263C213.708 140.87 213.778 141.476 213.849 142.083C213.888 142.443 213.927 142.803 213.967 143.173C214.167 144.174 214.462 144.773 215.039 145.605C216.019 147.075 215.967 148.539 215.978 150.263C215.979 150.484 215.981 150.705 215.983 150.932C215.985 151.397 215.987 151.863 215.988 152.328C215.991 153.035 216 153.742 216.01 154.449C216.011 154.903 216.013 155.357 216.014 155.811C216.018 156.02 216.021 156.23 216.025 156.445C216.019 157.95 215.743 158.95 215.039 160.254C214.563 160.675 214.563 160.675 214.056 160.903C213.874 160.989 213.692 161.075 213.504 161.163C213.316 161.244 213.127 161.324 212.933 161.407C212.742 161.496 212.55 161.585 212.353 161.676C211.884 161.891 211.411 162.099 210.938 162.305C210.351 161.425 210.185 160.888 209.961 159.872C209.892 159.563 209.822 159.255 209.75 158.937C209.676 158.61 209.603 158.284 209.528 157.947C208.911 155.297 208.285 152.765 207.129 150.293C206.994 150.003 206.859 149.712 206.719 149.413C205.299 146.591 203.726 145.386 200.845 144.164C198.232 143.37 195.612 143.172 192.895 143.209C192.58 143.211 192.266 143.214 191.941 143.216C188.693 143.247 185.447 143.355 182.201 143.479C181.128 143.519 180.056 143.558 178.983 143.597C175.938 143.706 172.894 143.819 169.849 143.933C155.995 144.447 142.334 144.381 128.484 143.805C118.637 143.375 118.637 143.375 108.783 143.175C108.367 143.172 107.95 143.168 107.534 143.162C103.506 143.112 98.936 143.418 95.7493 146.152C92.121 149.883 90.7134 155.989 89.8648 160.989C89.7934 161.23 89.722 161.471 89.6485 161.719C88.7696 162.012 88.7696 162.012 87.9456 161.697C87.6374 161.541 87.3293 161.385 87.0118 161.224C86.7036 161.072 86.3954 160.92 86.0779 160.763C85.051 160.128 84.5128 159.619 84.2099 158.438C83.9697 156.895 84.0276 155.33 84.0278 153.771C84.0272 153.155 84.0218 152.54 84.0163 151.924C83.9968 147.241 83.9968 147.241 84.961 145.312C85.1543 145.312 85.3477 145.312 85.5469 145.312C85.5778 145.124 85.6087 144.936 85.6406 144.741C85.945 142.889 86.2544 141.037 86.5673 139.186C86.6986 138.402 86.8256 137.617 86.9511 136.832C87.0199 136.424 87.0889 136.016 87.1583 135.608C87.2157 135.257 87.2731 134.905 87.3322 134.544C87.9933 132.178 89.5586 131.172 91.5162 129.895C91.7616 129.731 92.0071 129.567 92.26 129.398C92.7204 129.091 93.1816 128.786 93.644 128.482C93.9866 128.257 93.9866 128.257 94.336 128.027C94.645 127.855 94.9539 127.683 95.2723 127.506C96.3154 126.68 96.3679 126.24 96.5241 124.937C96.5754 124.554 96.6267 124.171 96.6796 123.776C96.7034 123.574 96.7272 123.371 96.7517 123.162C96.8782 122.096 97.0328 121.034 97.1856 119.972C97.2157 119.759 97.2459 119.546 97.2769 119.326C98.6656 109.731 102.511 99.8969 108.984 92.5781C109.228 92.2956 109.472 92.0132 109.723 91.7221C115.826 84.7537 127.644 76.4648 137.402 76.4648Z" fill="black"/>
<path d="M103.936 147.335C104.197 147.335 104.457 147.336 104.726 147.337C104.996 147.34 105.265 147.342 105.543 147.345C105.817 147.346 106.091 147.347 106.374 147.349C107.049 147.352 107.724 147.357 108.399 147.363C108.124 148.84 107.742 150.288 107.363 151.741C106.527 155.014 105.863 158.965 107.348 162.129C109.64 165.874 112.714 168.865 116.123 171.587C116.647 172.008 117.167 172.435 117.686 172.863C119.637 174.466 121.605 176.035 123.634 177.539C125.299 178.773 126.931 180.041 128.541 181.348C128.737 181.506 128.932 181.664 129.134 181.827C129.494 182.121 129.852 182.419 130.207 182.72C130.577 183.031 130.96 183.327 131.347 183.618C132.633 185.348 132.556 188.161 132.736 190.253C132.774 190.674 132.774 190.674 132.813 191.102C132.865 191.691 132.917 192.279 132.968 192.867C133.045 193.758 133.126 194.648 133.207 195.538C133.258 196.114 133.308 196.69 133.359 197.266C133.383 197.527 133.407 197.788 133.431 198.057C133.497 198.835 133.55 199.611 133.595 200.391C133.611 200.672 133.627 200.954 133.644 201.244C133.713 203.467 133.304 205.302 132.608 207.403C132.506 207.728 132.403 208.052 132.297 208.387C132.078 209.077 131.856 209.767 131.633 210.457C131.05 212.257 130.483 214.062 129.914 215.866C129.801 216.223 129.689 216.58 129.572 216.947C128.614 219.987 127.729 223.042 126.893 226.117C126.836 226.328 126.778 226.54 126.719 226.758C126.462 227.703 126.207 228.649 125.952 229.595C125.592 230.903 125.206 232.201 124.806 233.496C124.516 233.496 124.226 233.496 123.927 233.496C123.539 233.053 123.539 233.053 123.139 232.416C122.986 232.173 122.832 231.931 122.674 231.681C122.508 231.41 122.341 231.139 122.169 230.859C121.991 230.575 121.813 230.291 121.63 229.998C119.464 226.509 117.379 222.97 115.296 219.432C114.534 218.139 113.767 216.851 112.995 215.564C103.841 200.285 103.841 200.285 103.419 195.703C104.811 194.824 104.811 194.824 105.47 194.824C105.417 194.629 105.364 194.434 105.309 194.234C101.552 180.236 100.613 166.51 100.782 152.051C100.348 152.231 99.9148 152.415 99.4822 152.6C99.2409 152.702 98.9995 152.804 98.7509 152.909C98.0994 153.171 98.0994 153.171 97.8526 153.808C97.8161 154.611 97.7974 155.405 97.793 156.207C97.791 156.453 97.789 156.698 97.7869 156.951C97.7818 157.759 97.78 158.567 97.7793 159.375C97.7787 159.788 97.7787 159.788 97.7781 160.21C97.7802 167.063 98.2274 173.878 99.449 180.63C99.5856 181.486 99.6233 182.244 99.6104 183.105C98.3906 183.584 97.1695 184.059 95.9483 184.534C95.6046 184.668 95.2609 184.803 94.9068 184.942C93.1675 185.616 91.4742 186.228 89.6494 186.621C87.034 176.998 91.5445 159.917 96.1703 151.374C97.5387 149.26 99.5211 148.201 101.906 147.497C102.601 147.35 103.226 147.33 103.936 147.335Z" fill="black"/>
<path d="M112.299 147.619C114.395 147.626 116.461 147.736 118.548 147.92C137.923 149.509 157.205 149.206 176.598 148.235C176.852 148.222 177.105 148.21 177.367 148.196C179.691 148.08 182.016 147.962 184.34 147.837C184.784 147.813 184.784 147.813 185.236 147.79C185.752 147.763 186.268 147.734 186.783 147.705C187.315 147.677 187.847 147.665 188.379 147.657C188.476 147.754 188.572 147.85 188.672 147.95C188.66 148.815 188.63 149.669 188.58 150.532C188.566 150.785 188.551 151.038 188.537 151.299C188.211 156.506 187.218 159.883 183.326 163.504C181.214 165.302 178.808 166.582 176.367 167.872C176.187 167.968 176.007 168.065 175.821 168.165C169.187 171.697 162.049 174.253 155.04 176.928C154.823 177.01 154.607 177.093 154.383 177.179C150.356 178.709 148.047 178.043 144.086 176.569C143.874 176.491 143.662 176.413 143.444 176.333C121.614 168.288 121.614 168.288 115.43 162.012C115.234 161.82 115.039 161.628 114.838 161.43C111.938 158.383 111.661 154.399 111.42 150.385C111.405 150.15 111.391 149.915 111.377 149.672C111.348 149.099 111.336 148.524 111.328 147.95C111.621 147.657 111.621 147.657 112.299 147.619Z" fill="black"/>
<path d="M191.6 147.364C199.547 147.076 199.547 147.076 202.777 149.95C204.326 151.767 205.183 153.754 205.919 156.006C206.018 156.309 206.117 156.611 206.219 156.923C208.839 165.214 210.168 173.922 210.607 182.593C210.621 182.869 210.636 183.144 210.651 183.428C210.664 183.806 210.664 183.806 210.678 184.191C210.69 184.516 210.69 184.516 210.702 184.847C210.634 185.548 210.406 186.015 210.058 186.622C208.1 185.952 206.147 185.267 204.198 184.571C203.994 184.499 203.79 184.427 203.58 184.354C203.082 184.176 202.587 183.989 202.092 183.802C201.822 183.701 201.552 183.601 201.274 183.497C200.683 183.106 200.683 183.106 200.486 182.447C200.383 181.587 200.448 180.921 200.597 180.069C200.648 179.76 200.699 179.452 200.752 179.134C200.861 178.507 200.97 177.88 201.079 177.252C202.036 171.48 202.245 165.674 202.33 159.833C202.342 159.187 202.353 158.54 202.365 157.893C202.392 156.336 202.417 154.78 202.44 153.223C202.174 153.139 201.909 153.054 201.635 152.967C200.881 152.706 200.21 152.428 199.511 152.051C199.514 152.313 199.517 152.574 199.52 152.844C199.66 166.712 199.145 181.58 194.53 194.825C194.814 194.915 195.098 195.006 195.391 195.099C196.288 195.411 196.288 195.411 196.581 195.704C196.473 197.566 195.971 199.021 195.189 200.702C195.073 200.956 194.957 201.209 194.837 201.47C193.354 204.63 191.602 207.634 189.843 210.645C189.549 211.153 189.254 211.66 188.961 212.168C186.644 216.166 184.278 220.129 181.843 224.056C180.93 225.528 180.024 227.004 179.141 228.494C178.981 228.765 178.821 229.035 178.656 229.314C178.36 229.815 178.066 230.317 177.773 230.819C177.107 231.948 176.486 232.917 175.487 233.79C174.869 232.201 174.351 230.621 173.908 228.976C173.773 228.485 173.638 227.995 173.504 227.504C173.359 226.975 173.215 226.445 173.07 225.916C172.062 222.231 171.018 218.562 169.884 214.914C169.783 214.588 169.683 214.261 169.579 213.925C168.984 211.997 168.984 211.997 168.376 210.074C167.251 206.554 166.36 203.526 166.698 199.805C166.735 199.315 166.771 198.825 166.806 198.335C166.911 196.973 167.035 195.613 167.167 194.252C167.248 193.411 167.325 192.57 167.402 191.729C167.453 191.184 167.505 190.639 167.556 190.095C167.579 189.848 167.602 189.602 167.625 189.348C168.077 184.761 168.077 184.761 169.06 183.509C169.486 183.164 169.486 183.164 169.921 182.813C170.092 182.653 170.262 182.494 170.438 182.329C172.007 180.865 173.7 179.59 175.42 178.313C177.427 176.824 179.394 175.289 181.347 173.731C181.626 173.509 181.906 173.286 182.195 173.057C189.444 167.483 189.444 167.483 193.358 159.669C193.664 155.879 192.865 152.09 191.6 148.536C191.6 148.149 191.6 147.762 191.6 147.364Z" fill="black"/>
<path d="M146.943 66.1332C147.189 66.1326 147.434 66.132 147.688 66.1315C148.2 66.1311 148.713 66.1321 149.226 66.1346C150 66.1377 150.773 66.1346 151.546 66.1309C154.319 66.1289 156.938 66.2762 159.669 66.7969C160.744 78.7928 159.68 89.6798 156.703 101.323C156.271 103.028 155.86 104.739 155.447 106.449C154.741 109.36 154.02 112.268 153.289 115.173C152.587 117.969 151.904 120.77 151.228 123.572C151.13 123.978 151.031 124.384 150.933 124.79C150.72 125.674 150.507 126.558 150.294 127.441C150.1 127.441 149.907 127.441 149.708 127.441C147.742 119.028 145.806 110.608 143.895 102.181C143.633 101.024 143.37 99.8676 143.107 98.7108C142.79 97.3128 142.472 95.9148 142.155 94.5168C142.096 94.2574 142.037 93.9981 141.976 93.7309C141.81 92.9968 141.643 92.2627 141.477 91.5286C141.429 91.3168 141.381 91.105 141.331 90.8868C141.239 90.4825 141.148 90.078 141.058 89.6735C140.961 89.2472 140.86 88.8219 140.756 88.3973C140.427 87.0176 140.261 85.7515 140.266 84.3246C140.266 84.0369 140.266 84.0369 140.266 83.7433C140.267 83.1203 140.271 82.4975 140.276 81.8745C140.277 81.4382 140.278 81.0019 140.278 80.5656C140.28 79.4255 140.286 78.2856 140.293 77.1456C140.299 75.9789 140.301 74.8123 140.304 73.6456C140.311 71.3627 140.321 69.0798 140.333 66.7969C142.547 66.4189 144.696 66.1213 146.943 66.1332Z" fill="black"/>
</svg>
