<svg width="300" height="300" viewBox="0 0 300 300" fill="none" xmlns="http://www.w3.org/2000/svg">
<path d="M55.694 56.7184C54.6979 57.4216 54.1706 58.9157 54.4929 60.029C54.6393 60.527 56.6608 63.5153 59.0046 66.6501C62.989 71.9528 63.4284 72.4216 65.2448 73.4763C68.3796 75.322 75.9968 79.57 83.9362 83.9352C87.9792 86.1325 96.0651 90.6149 101.954 93.8376C107.843 97.0602 114.347 100.664 116.456 101.836L120.265 103.975L102.394 104.062C85.7819 104.15 84.405 104.18 83.0573 104.707C79.3366 106.084 76.4069 109.131 75.2936 112.705C74.8249 114.229 74.7077 115.43 74.7077 118.682V122.754H150.03H225.353L225.235 117.979C225.147 113.818 225.06 113.057 224.474 111.768C222.979 108.516 220.519 106.084 217.267 104.766C215.831 104.18 215.187 104.15 197.989 104.004L180.235 103.857L184.513 101.484C186.886 100.166 192.247 97.236 196.437 94.9216C208.185 88.447 227.989 77.4606 231.739 75.322C233.585 74.2673 235.489 73.1833 235.958 72.9489C236.72 72.5681 243.634 63.7497 245.216 61.1716C246.036 59.7946 245.978 58.5056 245.011 57.4216C243.37 55.6052 243.634 55.5173 227.638 62.6364C199.483 75.1755 173.614 86.777 171.388 87.8903C170.011 88.5641 166.29 91.113 162.452 93.9841L161.544 94.6579L160.079 93.2224C158.761 91.9626 157.56 91.3181 155.304 90.6442C155.069 90.5563 155.948 89.9704 157.237 89.3259C161.632 87.1286 164.767 83.5251 166.319 78.9548C167.433 75.6442 167.433 71.4841 166.319 68.1149C162.979 58.0075 152.14 53.4665 142.384 58.0661C139.747 59.3259 136.407 62.695 134.972 65.5368C130.284 74.9704 134.474 85.986 144.288 89.9997C145.021 90.2927 145.284 90.527 145.021 90.6149C142.413 91.4645 141.505 91.9626 140.157 93.3102L138.634 94.8337L133.858 91.4059C129.229 88.0954 128.761 87.8317 120.558 84.1696C115.899 82.0602 100.724 75.2341 86.8659 68.9938C73.0085 62.7536 60.9089 57.3337 60.0007 56.9528C58.0378 56.1325 56.6608 56.0446 55.694 56.7184Z" fill="black"/>
<path d="M74.7656 162.363L74.8535 193.798L75.7617 195.732C77.3145 199.013 79.6582 201.152 83.0566 202.441L84.8145 203.085L105.117 203.027C120.088 202.998 125.391 203.085 125.391 203.32C125.391 203.525 123.164 209.619 120.439 216.884C114.404 232.998 112.178 239.033 108.223 250.048C106.523 254.707 104.883 259.248 104.59 260.097C103.799 262.207 103.828 263.408 104.707 264.345C105.703 265.4 106.348 265.517 111.27 265.371C117.451 265.195 117.715 265.019 120.615 259.57C123.311 254.472 137.607 226.992 143.701 215.185C148.916 205.107 149.912 203.261 150.117 203.232C150.352 203.173 151.523 205.341 157.471 216.943C173.496 248.232 181.143 262.705 182.197 263.73C183.779 265.224 185.039 265.488 190.195 265.371L194.59 265.283L195.439 264.316C195.908 263.789 196.289 263.056 196.289 262.646C196.289 262.236 195.498 259.834 194.531 257.314C193.594 254.765 189.697 244.306 185.918 234.082C182.139 223.857 178.066 212.812 176.836 209.531C175.605 206.279 174.609 203.496 174.609 203.378C174.609 203.261 182.285 203.203 191.689 203.261C201.064 203.32 210.469 203.232 212.578 203.115C216.035 202.88 216.65 202.734 218.32 201.914C220.723 200.742 222.979 198.398 224.209 195.791L225.146 193.798L225.234 162.363L225.293 130.957H150H74.707L74.7656 162.363ZM98.7305 143.994V147.949H95.2441H91.7578L91.6406 146.396C91.4355 143.671 91.8457 142.06 93.0176 140.976C93.9844 140.068 94.1309 140.039 96.3867 140.039H98.7305V143.994ZM106.055 148.535V157.031H102.979H99.9023V148.535V140.039H102.979H106.055V148.535ZM113.086 140.771C114.141 141.709 114.551 143.056 114.551 145.605V147.949H110.889H107.227V143.964V139.98L109.834 140.097C111.943 140.156 112.559 140.302 113.086 140.771ZM98.7305 152.929V157.031H96.3574C93.9844 157.031 93.9844 157.031 92.8418 155.888L91.6992 154.746V151.787V148.828H95.2148H98.7305V152.929ZM114.551 151.347C114.551 155.712 113.379 157.031 109.453 157.031H107.227V152.929V148.828H110.889H114.551V151.347Z" fill="black"/>
</svg>
