<svg width="300" height="300" viewBox="0 0 300 300" fill="none" xmlns="http://www.w3.org/2000/svg">
<path d="M136.926 111.007C137.335 111.009 137.744 111.012 138.152 111.017C138.464 111.019 138.464 111.019 138.783 111.021C139.299 111.025 139.815 111.03 140.331 111.035C140.041 111.229 139.751 111.422 139.452 111.621C139.595 111.74 139.738 111.859 139.885 111.981C140.442 112.629 140.441 112.932 140.442 113.777C140.445 114.04 140.447 114.302 140.45 114.573C140.448 114.861 140.446 115.15 140.445 115.447C140.447 115.907 140.447 115.907 140.449 116.376C140.454 117.408 140.451 118.439 140.449 119.471C140.451 120.208 140.453 120.946 140.455 121.684C140.46 123.482 140.461 125.281 140.459 127.079C140.458 128.54 140.458 130.002 140.46 131.463C140.46 131.671 140.46 131.879 140.461 132.093C140.461 132.515 140.462 132.937 140.462 133.359C140.466 137.319 140.464 141.279 140.461 145.239C140.458 148.865 140.462 152.49 140.469 156.115C140.476 159.836 140.479 163.556 140.477 167.276C140.476 169.365 140.477 171.455 140.482 173.545C140.487 175.509 140.485 177.473 140.48 179.437C140.479 180.159 140.479 180.882 140.483 181.604C140.486 182.587 140.483 183.57 140.478 184.553C140.482 184.986 140.482 184.986 140.486 185.428C140.483 185.69 140.481 185.953 140.478 186.223C140.478 186.45 140.478 186.677 140.478 186.911C140.331 187.5 140.331 187.5 139.805 188.013C138.807 188.579 137.794 188.5 136.677 188.491C136.425 188.492 136.172 188.494 135.911 188.495C135.063 188.498 134.214 188.496 133.365 188.493C132.758 188.494 132.15 188.496 131.542 188.498C129.89 188.502 128.239 188.5 126.587 188.497C124.86 188.495 123.133 188.497 121.407 188.498C118.507 188.5 115.608 188.498 112.708 188.494C109.353 188.489 105.998 188.491 102.642 188.495C99.7644 188.499 96.8865 188.5 94.0085 188.498C92.2884 188.496 90.5682 188.496 88.8481 188.499C87.2314 188.502 85.6148 188.5 83.9981 188.495C83.4037 188.494 82.8093 188.494 82.2149 188.496C81.4057 188.498 80.5966 188.495 79.7874 188.491C79.5503 188.493 79.3131 188.495 79.0687 188.497C77.4802 188.48 77.4802 188.48 76.8433 188.013C76.3657 187.368 76.3541 187.016 76.3541 186.218C76.352 185.954 76.3499 185.691 76.3477 185.419C76.3499 185.129 76.3521 184.839 76.3543 184.54C76.3531 184.232 76.3519 183.925 76.3508 183.607C76.3479 182.571 76.3514 181.535 76.3548 180.498C76.3541 179.757 76.353 179.016 76.3516 178.275C76.3491 176.469 76.3508 174.662 76.3543 172.855C76.3583 170.753 76.3578 168.651 76.3572 166.548C76.3563 162.798 76.3597 159.048 76.3654 155.298C76.371 151.656 76.3731 148.014 76.3714 144.372C76.3697 140.409 76.3697 136.446 76.373 132.483C76.3734 132.061 76.3737 131.638 76.3741 131.216C76.3743 131.008 76.3744 130.801 76.3746 130.587C76.3758 129.12 76.3757 127.653 76.3751 126.186C76.3744 124.214 76.3769 122.241 76.3816 120.269C76.3828 119.543 76.383 118.817 76.3822 118.091C76.3813 117.104 76.3839 116.117 76.3875 115.13C76.3864 114.84 76.3853 114.549 76.3842 114.25C76.3859 113.987 76.3876 113.724 76.3894 113.453C76.3896 113.225 76.3899 112.997 76.3901 112.762C76.4639 112.207 76.4639 112.207 77.0499 111.621C77.8241 111.562 78.568 111.539 79.3428 111.542C79.5824 111.54 79.8219 111.539 80.0687 111.537C80.876 111.533 81.6832 111.533 82.4904 111.533C83.0673 111.53 83.6442 111.528 84.2211 111.525C85.4655 111.52 86.7098 111.516 87.9542 111.514C89.9197 111.511 91.8851 111.503 93.8506 111.495C96.9578 111.483 100.065 111.474 103.172 111.465C108.74 111.45 114.308 111.432 119.876 111.411C121.832 111.404 123.788 111.398 125.744 111.394C126.958 111.391 128.173 111.386 129.387 111.382C129.952 111.38 130.517 111.379 131.083 111.378C131.851 111.377 132.619 111.374 133.388 111.371C133.614 111.371 133.841 111.371 134.075 111.371C135.168 111.365 135.892 111.037 136.926 111.007ZM80.8584 116.016C80.8297 116.89 80.8204 117.757 80.8232 118.632C80.823 118.909 80.8227 119.187 80.8225 119.473C80.822 120.412 80.8236 121.35 80.8252 122.288C80.8253 122.958 80.8252 123.628 80.8251 124.298C80.825 126.122 80.8267 127.946 80.8287 129.77C80.8306 131.675 80.8307 133.579 80.8311 135.483C80.8319 138.681 80.8337 141.879 80.8363 145.077C80.839 148.372 80.8411 151.667 80.8424 154.961C80.8424 155.166 80.8425 155.371 80.8426 155.583C80.8433 157.366 80.8439 159.149 80.8445 160.932C80.8473 168.616 80.8531 176.301 80.8584 183.985C99.0342 183.985 117.21 183.985 135.936 183.985C135.945 171.911 135.945 171.911 135.951 159.838C135.951 158.213 135.952 156.587 135.953 154.961C135.953 154.758 135.953 154.554 135.953 154.344C135.954 151.05 135.956 147.756 135.959 144.463C135.962 141.085 135.963 137.707 135.964 134.329C135.964 132.431 135.965 130.533 135.967 128.634C135.969 126.85 135.97 125.065 135.97 123.281C135.97 122.624 135.97 121.967 135.971 121.31C135.973 120.417 135.973 119.524 135.972 118.632C135.973 118.368 135.973 118.104 135.974 117.833C136.086 116.686 136.086 116.686 135.644 115.723C134.94 115.694 134.245 115.684 133.542 115.686C133.319 115.685 133.096 115.685 132.867 115.684C132.116 115.683 131.364 115.684 130.613 115.685C130.076 115.685 129.54 115.684 129.003 115.683C127.542 115.682 126.081 115.683 124.62 115.684C123.094 115.684 121.569 115.684 120.043 115.683C117.481 115.683 114.918 115.683 112.356 115.685C109.389 115.686 106.422 115.686 103.455 115.684C100.912 115.683 98.3698 115.683 95.8273 115.683C94.3066 115.684 92.7859 115.684 91.2652 115.683C89.8359 115.682 88.4065 115.683 86.9772 115.684C86.4511 115.685 85.9249 115.685 85.3987 115.684C84.6836 115.683 83.9685 115.684 83.2534 115.686C83.0424 115.685 82.8315 115.684 82.6141 115.684C81.6538 115.605 81.6538 115.605 80.8584 116.016Z" fill="black"/>
<path d="M207.678 104.48C214.066 109.751 218.277 116.69 219.351 124.972C220.044 133.417 217.839 141.254 212.357 147.828C207.324 153.587 200.503 157.698 192.749 158.27C188.788 158.457 185.113 158.326 181.348 157.031C181.026 156.929 180.704 156.826 180.373 156.72C175.899 155.164 172.1 152.433 168.75 149.121C168.75 148.928 168.75 148.735 168.75 148.535C168.557 148.535 168.363 148.535 168.164 148.535C167.682 147.954 167.243 147.376 166.809 146.759C166.679 146.575 166.55 146.391 166.416 146.202C164.473 143.39 162.247 139.95 161.719 136.524C161.985 135.608 162.215 135.149 162.891 134.473C164.099 134.496 164.749 134.606 165.689 135.385C166.495 136.335 166.835 137.146 167.249 138.318C169.377 143.997 173.842 148.807 179.297 151.465C185.925 154.208 193.161 154.516 199.862 151.789C202.463 150.667 204.74 149.286 206.836 147.363C207.057 147.169 207.279 146.974 207.507 146.774C212.183 142.427 214.698 136.091 215.039 129.785C215.051 129.583 215.063 129.381 215.076 129.173C215.297 121.76 212.162 115.159 207.22 109.809C204.35 107.082 200.909 105.22 197.168 104.004C196.864 103.905 196.561 103.805 196.248 103.703C191.435 102.417 185.718 102.569 181.055 104.297C180.79 104.385 180.526 104.473 180.254 104.564C177.502 105.551 175.128 107.195 173.015 109.194C172.559 109.57 172.559 109.57 171.973 109.57C171.856 109.83 171.856 109.83 171.737 110.095C171.378 110.759 170.996 111.192 170.471 111.731C167.43 115.158 165.85 119.574 164.648 123.926C164.887 123.834 165.125 123.742 165.371 123.647C167.315 122.92 169.208 122.338 171.24 121.912C174.991 121.089 178.922 119.414 181.098 116.087C182.457 113.791 183.348 111.509 183.76 108.86C183.984 108.106 183.984 108.106 184.527 107.559C185.484 107.054 186.183 107.273 187.207 107.52C187.929 108.242 187.896 108.479 187.921 109.479C187.828 114.222 185.209 118.341 181.934 121.582C181.197 122.261 180.441 122.812 179.59 123.34C179.332 123.502 179.075 123.663 178.809 123.83C176.156 125.318 173.37 126.011 170.415 126.688C167.952 127.268 166.051 128.102 164.008 129.584C163.036 130.167 162.539 130.272 161.426 130.078C160.57 129.434 160.285 129.083 160.098 128.016C160.171 119.672 163.534 112.509 169.336 106.641C169.596 106.349 169.596 106.349 169.861 106.051C179.385 95.5487 197.104 96.3653 207.678 104.48Z" fill="black"/>
<path d="M213.526 167.92C213.736 168.097 213.946 168.274 214.162 168.457C214.348 168.607 214.534 168.756 214.725 168.911C220.75 173.856 225.377 182.375 226.174 190.136C226.413 192.966 226.493 195.793 226.504 198.632C226.505 198.881 226.506 199.129 226.508 199.385C226.495 204.17 226.495 204.17 225.588 205.078C225.048 205.152 225.048 205.152 224.379 205.152C224.124 205.154 223.87 205.156 223.607 205.157C223.326 205.156 223.044 205.155 222.754 205.154C222.456 205.155 222.158 205.156 221.852 205.158C220.847 205.161 219.843 205.159 218.839 205.158C218.122 205.159 217.404 205.161 216.687 205.163C214.937 205.166 213.187 205.167 211.436 205.166C210.014 205.166 208.592 205.166 207.17 205.168C206.968 205.168 206.766 205.168 206.558 205.168C206.147 205.168 205.736 205.169 205.326 205.169C201.472 205.172 197.619 205.172 193.765 205.17C190.238 205.168 186.71 205.172 183.182 205.177C179.562 205.183 175.943 205.185 172.323 205.184C170.29 205.184 168.257 205.184 166.224 205.189C164.312 205.192 162.401 205.192 160.489 205.188C159.786 205.187 159.083 205.188 158.38 205.19C157.423 205.193 156.467 205.191 155.51 205.187C155.089 205.191 155.089 205.191 154.659 205.194C154.403 205.192 154.148 205.19 153.885 205.188C153.664 205.188 153.443 205.188 153.215 205.188C152.479 205.047 152.218 204.781 151.76 204.199C151.646 203.617 151.646 203.617 151.641 202.946C151.638 202.693 151.634 202.44 151.63 202.18C151.631 201.906 151.632 201.632 151.633 201.35C151.631 201.065 151.63 200.78 151.628 200.486C151.626 199.879 151.627 199.271 151.629 198.664C151.632 197.754 151.623 196.844 151.614 195.933C151.581 186.636 154.713 178.195 161.135 171.386C161.273 171.237 161.41 171.087 161.552 170.933C175.113 156.261 198.352 155.349 213.526 167.92ZM163.305 175.018C157.947 181.131 155.729 188.611 155.806 196.655C155.807 197.04 155.807 197.426 155.807 197.823C155.65 199.509 155.65 199.509 156.154 200.976C156.998 201.006 157.835 201.016 158.679 201.013C158.947 201.014 159.215 201.014 159.491 201.015C160.397 201.016 161.302 201.015 162.207 201.014C162.853 201.014 163.499 201.015 164.146 201.016C165.906 201.017 167.666 201.016 169.426 201.016C171.264 201.015 173.101 201.015 174.939 201.016C178.223 201.017 181.508 201.016 184.792 201.014C187.773 201.013 190.754 201.013 193.735 201.014C197.193 201.016 200.651 201.017 204.108 201.016C205.94 201.015 207.772 201.015 209.604 201.016C211.326 201.017 213.047 201.016 214.769 201.015C215.403 201.014 216.037 201.014 216.671 201.015C217.532 201.016 218.393 201.015 219.255 201.013C219.636 201.014 219.636 201.014 220.025 201.015C221.139 201.12 221.139 201.12 222.072 200.683C222.381 195.709 222.477 190.51 220.9 185.742C220.811 185.463 220.811 185.463 220.72 185.179C219.131 180.354 216.282 176.388 212.697 172.851C212.438 172.589 212.179 172.327 211.912 172.057C205.93 166.287 197.532 163.607 189.351 163.385C179.24 163.591 170.127 167.543 163.305 175.018Z" fill="black"/>
<path d="M92.6669 122.612C92.9114 122.611 93.1559 122.61 93.4078 122.608C94.2153 122.606 95.0225 122.613 95.83 122.619C96.3911 122.62 96.9522 122.62 97.5133 122.62C98.6888 122.621 99.8642 122.626 101.04 122.634C102.548 122.643 104.056 122.646 105.564 122.645C106.722 122.645 107.881 122.649 109.039 122.653C109.595 122.655 110.151 122.656 110.708 122.656C111.484 122.658 112.26 122.663 113.037 122.669C113.267 122.669 113.498 122.668 113.735 122.668C114.847 122.681 115.362 122.708 116.31 123.34C116.661 124.395 116.646 125.358 116.645 126.456C116.646 126.684 116.647 126.911 116.648 127.145C116.651 127.897 116.651 128.649 116.652 129.401C116.653 129.923 116.654 130.445 116.655 130.967C116.656 132.062 116.657 133.156 116.657 134.251C116.657 135.654 116.661 137.058 116.666 138.462C116.669 139.54 116.67 140.619 116.67 141.697C116.67 142.214 116.671 142.732 116.673 143.25C116.676 143.973 116.676 144.696 116.674 145.419C116.675 145.634 116.677 145.848 116.679 146.069C116.672 147.153 116.634 147.609 116.017 148.535C114.923 148.9 113.905 148.872 112.766 148.871C112.524 148.872 112.283 148.873 112.034 148.874C111.234 148.877 110.435 148.877 109.635 148.878C109.08 148.878 108.526 148.879 107.971 148.88C106.807 148.882 105.644 148.883 104.48 148.883C102.988 148.883 101.495 148.887 100.003 148.892C98.8562 148.895 97.7101 148.895 96.5641 148.895C96.0137 148.896 95.4633 148.897 94.9129 148.899C94.1441 148.902 93.3755 148.901 92.6068 148.9C92.3785 148.901 92.1501 148.903 91.9149 148.904C90.8052 148.898 90.3029 148.874 89.3561 148.242C89.0053 147.19 89.0153 146.227 89.0113 145.131C89.0093 144.904 89.0074 144.677 89.0054 144.443C88.9996 143.693 88.9962 142.942 88.9933 142.192C88.9921 141.936 88.9909 141.679 88.9897 141.415C88.9836 140.059 88.9794 138.704 88.9766 137.348C88.9734 135.947 88.9633 134.546 88.9517 133.144C88.944 132.067 88.9416 130.99 88.9405 129.913C88.9391 129.397 88.9357 128.88 88.9303 128.364C88.9231 127.641 88.9234 126.919 88.9254 126.197C88.9217 125.983 88.9179 125.769 88.9141 125.549C88.9237 124.615 89.0126 124.008 89.5057 123.207C90.538 122.566 91.4889 122.595 92.6669 122.612ZM93.4576 127.149C93.4576 132.853 93.4576 138.557 93.4576 144.434C99.6451 144.434 105.833 144.434 112.208 144.434C112.208 138.73 112.208 133.026 112.208 127.149C106.021 127.149 99.8326 127.149 93.4576 127.149Z" fill="black"/>
<path d="M92.8246 171.932C93.1171 171.93 93.4095 171.928 93.7108 171.927C94.1916 171.926 94.1916 171.926 94.6821 171.926C95.1889 171.924 95.1889 171.924 95.7058 171.921C96.8259 171.917 97.9459 171.915 99.0659 171.913C99.6465 171.912 100.227 171.911 100.808 171.91C102.426 171.906 104.043 171.904 105.661 171.903C107.752 171.902 109.844 171.897 111.935 171.888C113.553 171.882 115.17 171.879 116.787 171.878C117.753 171.878 118.718 171.876 119.684 171.871C120.761 171.866 121.839 171.867 122.916 171.869C123.235 171.866 123.555 171.863 123.884 171.86C126.608 171.875 126.608 171.875 127.733 172.852C128.15 173.684 128.118 174.274 128.026 175.196C127.44 175.943 127.086 176.32 126.145 176.514C125.88 176.514 125.614 176.514 125.34 176.514C124.881 176.519 124.881 176.519 124.413 176.523C124.079 176.52 123.745 176.517 123.401 176.514C122.871 176.517 122.871 176.517 122.331 176.519C121.363 176.522 120.396 176.52 119.429 176.515C118.417 176.511 117.404 176.513 116.392 176.514C114.692 176.515 112.993 176.511 111.293 176.504C109.328 176.496 107.363 176.496 105.397 176.499C103.507 176.502 101.616 176.501 99.7254 176.497C98.9207 176.495 98.116 176.495 97.3113 176.496C96.1883 176.498 95.0653 176.492 93.9423 176.486C93.4403 176.488 93.4403 176.488 92.9281 176.49C92.6229 176.487 92.3177 176.484 92.0033 176.481C91.7378 176.48 91.4722 176.48 91.1986 176.479C90.3941 176.346 90.1343 176.131 89.6474 175.489C89.4845 174.696 89.5226 173.942 89.6474 173.145C90.4314 171.988 91.513 171.936 92.8246 171.932Z" fill="black"/>
<path d="M92.0043 164.242C92.4621 164.238 92.4621 164.238 92.9291 164.233C93.4312 164.235 93.4312 164.235 93.9434 164.237C94.2959 164.235 94.6485 164.233 95.0118 164.231C95.9791 164.227 96.9463 164.226 97.9136 164.228C98.721 164.229 99.5284 164.227 100.336 164.225C102.241 164.221 104.146 164.222 106.05 164.225C108.016 164.228 109.981 164.224 111.946 164.216C113.633 164.21 115.32 164.208 117.008 164.21C118.015 164.211 119.023 164.21 120.031 164.205C121.154 164.2 122.278 164.204 123.402 164.209C123.736 164.206 124.07 164.203 124.414 164.2C124.72 164.203 125.026 164.206 125.341 164.209C125.607 164.209 125.873 164.209 126.146 164.209C127.086 164.404 127.439 164.784 128.027 165.528C128.174 166.407 128.174 166.407 128.027 167.285C127.439 168.029 127.086 168.409 126.146 168.605C125.881 168.605 125.615 168.606 125.341 168.606C125.035 168.609 124.729 168.613 124.414 168.616C124.08 168.614 123.746 168.611 123.402 168.609C123.049 168.611 122.695 168.613 122.332 168.615C121.364 168.619 120.397 168.618 119.43 168.615C118.418 168.612 117.405 168.615 116.393 168.616C114.693 168.618 112.994 168.616 111.294 168.61C109.329 168.604 107.364 168.606 105.398 168.612C103.711 168.618 102.023 168.618 100.336 168.615C99.328 168.613 98.3202 168.613 97.3123 168.617C96.1893 168.621 95.0664 168.616 93.9434 168.609C93.4413 168.613 93.4413 168.613 92.9291 168.616C92.624 168.613 92.3188 168.61 92.0043 168.606C91.606 168.605 91.606 168.605 91.1996 168.605C90.5274 168.457 90.5274 168.457 90.0025 167.927C89.4869 166.993 89.5342 166.282 89.6485 165.235C90.3211 164.294 90.8832 164.245 92.0043 164.242Z" fill="black"/>
<path d="M92.017 156.04C92.3251 156.038 92.6332 156.035 92.9506 156.033C93.2885 156.035 93.6264 156.036 93.9745 156.038C94.5084 156.036 94.5084 156.036 95.053 156.034C96.0294 156.03 97.0056 156.031 97.982 156.034C99.0033 156.036 100.025 156.034 101.046 156.033C102.761 156.031 104.476 156.033 106.192 156.037C108.175 156.042 110.159 156.041 112.142 156.036C113.845 156.032 115.547 156.031 117.249 156.034C118.266 156.035 119.283 156.035 120.3 156.032C121.434 156.029 122.567 156.033 123.701 156.038C124.208 156.036 124.208 156.036 124.725 156.033C125.033 156.035 125.341 156.038 125.658 156.04C125.927 156.041 126.195 156.041 126.471 156.041C127.148 156.152 127.148 156.152 127.672 156.536C128.282 157.386 128.168 158.076 128.027 159.082C127.39 159.858 126.86 160.208 125.86 160.361C124.95 160.407 124.046 160.412 123.134 160.405C122.613 160.408 122.613 160.408 122.082 160.411C121.133 160.416 120.184 160.415 119.235 160.411C118.241 160.408 117.247 160.411 116.253 160.413C114.584 160.415 112.915 160.412 111.246 160.406C109.317 160.4 107.388 160.402 105.459 160.409C103.802 160.414 102.144 160.415 100.487 160.412C99.4971 160.41 98.5078 160.409 97.5184 160.413C96.4157 160.416 95.3134 160.412 94.2108 160.405C93.8831 160.408 93.5554 160.41 93.2177 160.412C92.7674 160.407 92.7674 160.407 92.3079 160.402C91.917 160.402 91.917 160.402 91.5182 160.401C90.5825 160.203 90.23 159.827 89.6481 159.082C89.4331 157.331 89.4331 157.331 90.0024 156.536C90.7048 156.022 91.1506 156.042 92.017 156.04Z" fill="black"/>
<path d="M174.372 176.77C175.416 177.001 175.789 177.221 176.368 178.125C176.441 179.077 176.441 179.077 176.075 180.175C175.554 180.761 174.986 181.277 174.411 181.811C170.729 185.641 169.156 190.854 168.348 195.978C168.13 196.698 167.88 197.004 167.286 197.46C166.309 197.585 165.731 197.565 164.851 197.113C164.213 196.427 164.167 196.047 164.062 195.117C164.152 194.36 164.261 193.645 164.411 192.901C164.452 192.694 164.494 192.486 164.536 192.272C165.488 187.661 168.826 177.857 174.372 176.77Z" fill="black"/>
<path d="M104.003 128.907C104.454 129.809 104.356 130.761 104.366 131.752C104.368 131.976 104.37 132.2 104.373 132.43C104.377 132.905 104.38 133.379 104.382 133.853C104.387 134.578 104.4 135.303 104.413 136.027C104.416 136.488 104.419 136.949 104.421 137.41C104.426 137.626 104.431 137.843 104.436 138.065C104.432 139.082 104.373 139.644 103.757 140.469C102.893 141.082 102.403 141.091 101.366 140.918C100.734 140.469 100.734 140.469 100.194 139.747C100.081 138.931 100.037 138.234 100.049 137.42C100.049 137.196 100.048 136.972 100.048 136.742C100.048 136.27 100.052 135.798 100.058 135.326C100.066 134.603 100.064 133.88 100.06 133.158C100.062 132.699 100.064 132.239 100.067 131.78C100.066 131.564 100.066 131.348 100.065 131.126C100.092 129.633 100.092 129.633 100.609 128.925C101.834 128.104 102.675 128.346 104.003 128.907Z" fill="black"/>
<path d="M176.366 209.473C177.116 210.123 177.23 210.543 177.373 211.524C177.209 212.649 176.939 212.844 176.073 213.574C175.277 214.074 174.453 214.513 173.62 214.948C173.402 215.066 173.185 215.184 172.96 215.305C171.764 215.936 170.712 216.434 169.335 216.504C168.466 215.917 168.208 215.456 167.852 214.472C167.87 213.574 167.87 213.574 168.44 212.874C169.472 211.905 170.692 211.318 171.953 210.7C172.184 210.58 172.414 210.461 172.651 210.338C173.923 209.705 174.911 209.265 176.366 209.473Z" fill="black"/>
<path d="M168.819 87.877C170.303 88.2895 171.013 89.0569 172.046 90.1612C172.225 90.3432 172.404 90.5253 172.588 90.7128C173.498 91.6541 174.331 92.5583 174.902 93.7501C174.882 94.778 174.794 95.2962 174.115 96.0755C173.153 96.5173 172.695 96.3899 171.68 96.0938C170.956 95.5607 170.354 94.9335 169.739 94.2811C169.575 94.1155 169.411 93.9499 169.242 93.7792C168.263 92.7708 167.398 91.7563 166.699 90.5274C166.718 89.4288 166.718 89.4288 166.992 88.4766C167.871 87.8907 167.871 87.8907 168.819 87.877Z" fill="black"/>
<path d="M155.415 82.1896C156.623 82.409 157.761 82.7825 158.919 83.1845C159.271 83.301 159.271 83.301 159.631 83.4197C161.349 84.0033 161.349 84.0033 162.014 84.6677C162.109 85.6999 162.105 86.476 161.739 87.4509C160.871 88.0824 160.271 87.8669 159.238 87.7317C158.03 87.5123 156.891 87.1388 155.733 86.7368C155.381 86.6204 155.381 86.6204 155.022 86.5016C153.303 85.9181 153.303 85.9181 152.639 85.2536C152.543 84.2214 152.548 83.4453 152.913 82.4704C153.782 81.8389 154.382 82.0544 155.415 82.1896Z" fill="black"/>
<path d="M162.541 214.782C163.03 215.554 163.126 216.182 163.182 217.089C162.999 217.749 162.999 217.749 162.596 218.261C161.416 218.838 160.266 219.011 158.97 219.177C158.599 219.226 158.228 219.275 157.846 219.326C154.955 219.606 154.955 219.606 153.971 218.975C153.339 217.99 153.347 217.358 153.514 216.211C154.535 215.073 155.998 215.037 157.432 214.837C157.678 214.799 157.923 214.761 158.176 214.722C161.62 214.211 161.62 214.211 162.541 214.782Z" fill="black"/>
<path d="M128.509 207.305C129.729 207.814 130.693 208.499 131.744 209.29C132.036 209.502 132.036 209.502 132.333 209.718C134.194 211.097 134.194 211.097 134.766 212.11C134.745 213.118 134.649 213.657 133.997 214.435C132.974 214.892 132.334 214.702 131.25 214.453C130.544 214.009 129.945 213.588 129.309 213.062C129.149 212.936 128.989 212.809 128.824 212.679C127.81 211.869 126.84 211.031 125.977 210.059C125.977 209.073 126.076 208.545 126.691 207.77C127.413 207.221 127.593 207.097 128.509 207.305Z" fill="black"/>
<path d="M142.364 81.4222C142.994 81.3988 143.623 81.384 144.252 81.3718C144.458 81.3655 144.664 81.3592 144.876 81.3526C145.731 81.3473 146.334 81.3436 147.057 81.8261C147.588 82.6849 147.485 83.3977 147.365 84.3747C146.962 85.0705 146.962 85.0705 146.193 85.5466C145.22 85.771 144.26 85.8071 143.264 85.8396C142.913 85.8581 142.563 85.8766 142.202 85.8957C139.355 85.9876 139.355 85.9876 138.464 85.3029C137.99 84.6677 137.99 84.6677 137.844 83.7888C137.99 82.9099 137.99 82.9099 138.411 82.2324C139.656 81.4129 140.924 81.4804 142.364 81.4222Z" fill="black"/>
<path d="M132.423 84.0821C133.11 85.1129 133.179 85.5053 133.009 86.7188C131.951 87.9629 130.787 88.7 129.365 89.4471C129.177 89.5523 128.988 89.6575 128.795 89.7658C127.622 90.3908 126.752 90.6963 125.392 90.5274C124.696 90.0514 124.696 90.0514 124.22 89.3556C124.073 88.4767 124.073 88.4767 124.22 87.5977C125.189 86.3886 126.485 85.7362 127.827 85.016C128.042 84.893 128.257 84.7701 128.479 84.6435C129.89 83.8831 130.817 83.5876 132.423 84.0821Z" fill="black"/>
<path d="M144.637 214.399C144.855 214.447 145.074 214.496 145.299 214.546C147.433 215.05 147.433 215.05 148.244 215.918C148.503 216.927 148.421 217.929 147.933 218.848C146.39 219.645 144.381 219.007 142.769 218.628C142.551 218.582 142.332 218.536 142.107 218.489C140.822 218.191 139.97 217.912 139.162 216.797C139.038 215.783 138.975 215.088 139.473 214.179C141.002 213.341 143.031 214.011 144.637 214.399Z" fill="black"/>
<path d="M118.152 195.1C119.652 195.528 120.109 196.306 120.942 197.57C121.082 197.771 121.221 197.972 121.365 198.179C121.737 198.717 122.101 199.259 122.462 199.804C122.655 200.094 122.849 200.384 123.048 200.683C123.208 202.481 123.208 202.481 122.7 203.283C121.975 203.733 121.568 203.906 120.704 203.906C119.275 202.879 118.335 201.722 117.372 200.262C117.24 200.074 117.108 199.886 116.972 199.692C116.195 198.528 115.808 197.733 116.017 196.289C116.658 195.289 116.957 195.121 118.152 195.1Z" fill="black"/>
<path d="M119.458 91.6443C119.772 91.7591 120.086 91.8739 120.41 91.9922C120.789 93.1278 120.865 93.7064 120.338 94.804C119.805 95.6485 119.239 96.4576 118.652 97.2656C118.477 97.5273 118.301 97.7891 118.12 98.0587C116.871 99.8337 116.871 99.8337 115.668 100.14C114.679 99.8546 114.287 99.5511 113.672 98.7305C113.379 98.1995 113.379 98.1995 113.379 97.5586C114.355 95.3843 116.825 91.0738 119.458 91.6443Z" fill="black"/>
<path d="M112.225 102.135C112.794 102.246 112.794 102.246 113.526 102.704C114.142 103.704 114.151 104.316 113.966 105.469C113.362 106.201 113.362 106.201 112.501 106.641C111.384 106.641 110.736 106.597 109.883 105.853C109.476 104.969 109.451 104.382 109.571 103.418C110.112 102.134 110.881 102.058 112.225 102.135Z" fill="black"/>
</svg>
