<svg width="300" height="300" viewBox="0 0 300 300" fill="none" xmlns="http://www.w3.org/2000/svg">
<path d="M200.977 85.2539C200.88 86.7041 200.783 88.1543 200.684 89.6484C201.24 89.6424 201.795 89.6364 202.368 89.6301C207.702 89.636 207.702 89.636 208.594 90.5273C208.484 90.7342 208.375 90.9411 208.262 91.1542C207.769 92.0902 207.284 93.0299 206.799 93.9697C206.627 94.2953 206.454 94.6208 206.276 94.9562C206.036 95.4264 206.036 95.4264 205.79 95.9061C205.64 96.1945 205.489 96.4829 205.334 96.7801C204.998 97.5392 204.998 97.5392 205.299 98.2176C205.693 98.7718 206.12 99.2358 206.598 99.7192C209.063 102.546 209.922 105.6 210.754 109.186C211.577 112.714 212.704 115.78 214.453 118.945C214.634 119.274 214.634 119.274 214.818 119.609C215.385 120.633 215.96 121.649 216.549 122.66C217.785 124.883 218.071 126.891 217.495 129.401C216.492 132.24 214.526 134.112 211.961 135.588C209.689 136.674 207.283 137.006 204.838 136.277C202.805 135.354 201.274 134.007 200.339 131.961C199.937 130.873 199.596 129.773 199.263 128.662C198.5 126.298 197.296 124.688 195.369 123.124C194.134 122.579 192.989 122.66 191.656 122.699C191.398 122.703 191.139 122.707 190.872 122.711C190.236 122.721 189.601 122.737 188.965 122.754C188.883 122.964 188.802 123.174 188.718 123.39C188.388 124.195 188.023 124.973 187.646 125.757C186.01 129.353 186.009 133.162 185.907 137.054C185.713 143.122 185.503 149.379 183.187 155.085C182.768 156.243 182.768 156.243 183.105 157.324C183.505 157.749 183.505 157.749 184.026 158.094C184.217 158.233 184.407 158.371 184.604 158.513C184.811 158.659 185.017 158.804 185.229 158.954C185.661 159.268 186.092 159.584 186.523 159.9C186.738 160.058 186.953 160.216 187.175 160.379C191.273 163.436 197.048 167.812 198.633 172.852C199.477 180.73 195.616 189.667 190.837 195.749C189.578 197.246 188.262 198.68 186.914 200.098C186.653 200.387 186.653 200.387 186.388 200.681C184.208 203.022 181.412 204.668 178.583 206.104C178.389 206.203 178.195 206.302 177.995 206.404C176.87 206.955 175.855 207.283 174.609 207.422C174.143 205.713 173.869 204.056 173.694 202.295C173.669 202.054 173.643 201.813 173.617 201.565C173.556 200.978 173.496 200.391 173.438 199.805C173.263 199.926 173.088 200.046 172.908 200.171C168.831 202.884 163.218 205.957 158.203 205.957C157.864 205.28 157.884 204.927 157.904 204.175C157.91 203.929 157.916 203.682 157.922 203.429C157.93 203.163 157.937 202.896 157.946 202.622C157.953 202.35 157.959 202.078 157.967 201.797C157.989 200.925 158.014 200.054 158.038 199.182C158.054 198.592 158.069 198.002 158.085 197.412C158.123 195.963 158.162 194.515 158.203 193.066C159.088 192.967 159.973 192.87 160.858 192.773C161.106 192.745 161.355 192.718 161.611 192.689C162.727 192.568 163.799 192.481 164.924 192.489C166.633 192.473 167.809 191.221 169.043 190.137C171.453 187.644 172.878 184.142 173.438 180.762C173.482 180.515 173.527 180.268 173.574 180.013C173.496 179.21 173.496 179.21 172.672 178.616C172.315 178.379 171.953 178.149 171.588 177.924C171.392 177.798 171.196 177.673 170.993 177.544C167.372 175.276 163.545 173.42 159.63 171.719C158.329 171.148 157.149 170.54 155.969 169.739C154.504 168.806 153.402 168.986 151.758 169.336C151.531 169.347 151.304 169.358 151.07 169.369C149.885 169.473 149.312 169.698 148.528 170.619C147.918 171.544 147.348 172.488 146.777 173.438C145.304 175.592 143.72 177.491 141.767 179.217C140.946 179.979 140.628 180.457 140.345 181.554C140.234 182.539 140.234 182.539 140.863 183.234C141.168 183.492 141.48 183.741 141.797 183.984C142.011 184.155 142.224 184.327 142.445 184.503C142.943 184.901 143.442 185.299 143.943 185.695C147.618 188.662 150.611 191.863 152.93 195.996C153.137 196.351 153.137 196.351 153.349 196.714C155.77 201.143 156.762 206.559 155.859 211.523C153.712 211.251 151.694 210.685 149.615 210.095C149.235 209.991 148.854 209.887 148.473 209.783C148.114 209.681 147.755 209.58 147.385 209.475C147.057 209.383 146.73 209.291 146.392 209.197C145.605 208.887 145.605 208.887 145.02 208.008C144.913 207.236 144.83 206.476 144.763 205.701C144.348 201.746 143.453 198.155 140.3 195.495C139.259 194.655 138.186 193.859 137.109 193.066C129.868 187.672 129.868 187.672 128.906 183.105C128.437 179.499 130.027 176.478 132.122 173.694C133.155 172.226 133.429 171.131 133.301 169.336C133.184 168.518 133.184 168.518 132.715 167.871C132.038 167.562 131.355 167.268 130.664 166.992C130.542 167.298 130.421 167.604 130.296 167.919C128.922 171.243 127.18 174.2 125.205 177.2C124.533 178.223 123.873 179.252 123.232 180.295C123.02 180.641 123.02 180.641 122.803 180.993C121.994 182.524 121.928 184.181 122.337 185.846C123.033 187.835 124.214 189.274 125.582 190.851C130.623 196.698 135.165 203.482 135.077 211.487C135.076 211.716 135.074 211.946 135.073 212.183C135.069 212.744 135.064 213.306 135.059 213.867C132.603 213.674 130.251 213.104 127.863 212.531C127.451 212.433 127.04 212.335 126.628 212.238C125.629 212.002 124.631 211.763 123.633 211.523C123.586 211.187 123.54 210.85 123.492 210.504C122.882 206.342 121.89 202.867 119.238 199.512C119.103 199.332 118.969 199.153 118.83 198.968C117.987 197.906 117.037 197.08 115.979 196.234C112.371 193.344 108.226 189.694 107.574 184.882C107.407 182.461 108.17 180.83 109.338 178.774C109.965 177.65 110.549 176.509 111.127 175.36C111.229 175.159 111.331 174.958 111.437 174.751C112.715 172.202 112.995 169.426 112.134 166.663C111.079 164.06 109.356 161.709 107.812 159.375C107.734 159.705 107.655 160.034 107.574 160.374C106.156 166.038 103.653 171.185 98.5092 174.339C93.3257 177.358 88.1817 177.383 82.3242 177.246C82.4697 175.588 82.7769 174.353 83.4961 172.852C84.0377 172.862 84.0377 172.862 84.5901 172.872C89.6305 172.94 94.3069 172.61 98.3242 169.188C103.915 163.341 104.397 154.838 104.286 147.176C104.266 145.133 104.466 143.216 104.883 141.211C102.557 143.989 101.99 147.522 101.868 151.057C101.701 155.744 101.138 160.573 97.8069 164.179C94.8997 166.699 94.8997 166.699 93.457 166.699C93.0703 165.442 92.6836 164.186 92.2852 162.891C92.7383 162.564 93.1915 162.238 93.6584 161.902C95.8425 160.153 96.7849 158.002 97.2656 155.273C97.4291 153.588 97.5077 151.897 97.5946 150.207C97.859 145.827 98.6836 141.182 101.953 137.988C103.669 136.623 105.566 135.742 107.572 134.881C108.313 134.515 108.751 134.217 109.277 133.594C104.594 133.442 100.864 133.87 96.9177 136.578C95.0119 138.484 93.7598 140.873 93.6825 143.6C93.6836 144.025 93.6879 144.449 93.6951 144.873C93.6953 145.084 93.6954 145.295 93.6956 145.513C93.7064 146.838 93.8427 148.102 94.043 149.414C94.2574 152.305 93.8818 155.026 91.9922 157.324C90.5628 158.801 89.2719 159.657 87.3047 160.254C87.1075 159.785 86.9126 159.315 86.7188 158.844C86.61 158.582 86.5012 158.321 86.3892 158.051C86.1328 157.324 86.1328 157.324 86.1328 156.445C86.6787 156.047 86.6787 156.047 87.3962 155.64C88.7071 154.799 89.2592 154.194 89.6484 152.637C89.7449 151.43 89.7728 150.253 89.5031 149.068C88.7048 144.6 89.2507 139.886 91.7587 136.055C93.3598 133.915 95.1006 132.35 97.467 131.122C97.6422 131.029 97.8174 130.936 97.9979 130.84C101.465 129.172 105.08 129.129 108.838 129.291C111.923 129.376 114.19 129.225 116.79 127.473C117.966 126.734 119.099 126.364 120.428 125.995C120.738 125.908 120.738 125.908 121.053 125.818C126.834 124.25 132.477 125.184 138.216 126.419C143.544 127.548 148.15 127.474 152.93 124.512C153.961 123.685 154.923 122.807 155.859 121.875C154.313 121.419 152.76 121.03 151.19 120.667C150.962 120.613 150.734 120.56 150.498 120.505C149.942 120.375 149.385 120.246 148.828 120.117C148.485 118.97 148.624 118.072 148.828 116.895C150.908 117.13 150.908 117.13 151.86 117.337C154.311 117.872 158.071 118.685 160.369 117.373C160.913 116.76 161.302 116.135 161.719 115.43C162.069 114.949 162.431 114.479 162.794 114.007C163.325 113.317 163.84 112.616 164.355 111.914C161.298 111.738 161.298 111.738 158.496 112.793C157.544 113.674 156.858 114.486 156.445 115.723C155.479 115.626 154.512 115.529 153.516 115.43C154.285 112.694 155.376 110.779 157.845 109.28C159.627 108.472 161.041 108.375 162.975 108.421C165.874 108.559 165.874 108.559 168.356 107.306C169.087 106.471 169.639 105.537 170.215 104.59C170.408 104.59 170.602 104.59 170.801 104.59C170.891 104.345 170.891 104.345 170.984 104.095C171.548 103.147 172.277 102.632 173.145 101.953C169.564 102.274 166.761 103.753 163.806 105.707C161.358 107.294 159.055 107.475 156.152 107.227C155.302 107.007 154.607 106.724 153.809 106.348C153.891 105.914 153.977 105.48 154.065 105.048C154.113 104.806 154.16 104.565 154.209 104.316C154.27 104.117 154.331 103.917 154.395 103.711C154.588 103.614 154.781 103.518 154.98 103.418C155.271 103.515 155.561 103.611 155.859 103.711C159.643 104.035 161.961 103.004 165.068 100.977C168.21 98.9355 171.633 98.0144 175.36 98.2361C178.014 98.3698 179.631 97.3007 181.751 95.8221C182.724 95.1796 183.786 94.7705 184.863 94.3359C183.729 93.4286 182.769 93.2955 181.366 93.3289C180.257 93.4873 179.236 93.8286 178.18 94.1895C175.496 95.0921 173.011 95.5077 170.343 94.281C169.277 93.6745 168.533 93.0456 167.871 91.9922C168.548 91.4121 169.225 90.832 169.922 90.2344C171.387 90.8203 171.387 90.8203 172.064 91.1499C174.025 91.7883 175.722 91.3165 177.594 90.6738C180.44 89.7733 183.103 89.4899 185.978 90.485C186.944 90.9884 187.799 91.6367 188.672 92.2852C188.819 92.1971 188.966 92.109 189.117 92.0182C189.325 91.8933 189.533 91.7684 189.748 91.6397C189.982 91.4989 190.217 91.3582 190.458 91.2131C190.98 90.9 191.503 90.587 192.025 90.2741C193.42 89.4378 194.814 88.5986 196.204 87.7533C196.47 87.5921 196.736 87.431 197.01 87.2649C197.525 86.953 198.039 86.64 198.552 86.3259C198.902 86.1148 198.902 86.1148 199.258 85.8994C199.463 85.7744 199.668 85.6495 199.879 85.5208C200.391 85.2539 200.391 85.2539 200.977 85.2539ZM196.289 92.2852C195.562 92.7288 194.835 93.1742 194.11 93.6218C193.786 93.8219 193.786 93.8219 193.455 94.026C192.32 94.7348 191.263 95.4569 190.247 96.3318C188.93 97.4075 187.48 97.8405 185.882 98.3711C181.314 99.9828 177.46 103.322 174.023 106.641C173.795 106.854 173.567 107.067 173.332 107.286C170.946 109.57 169.025 112.239 167.04 114.867C155.738 129.824 155.738 129.824 146.777 131.25C142.668 131.657 138.752 130.737 134.755 129.905C128.183 128.547 121.831 128.803 116.016 132.422C114.958 133.232 114.013 134.104 113.086 135.059C112.922 135.217 112.757 135.375 112.588 135.538C109.82 138.422 108.472 142.694 108.289 146.613C108.541 152.094 110.958 156.598 113.783 161.165C116.107 164.957 117.207 168.517 116.422 172.998C115.64 176.03 114.149 178.625 112.598 181.314C111.904 182.581 111.348 183.628 111.67 185.118C112.912 188.296 115.311 190.516 117.902 192.609C122.219 196.11 125.514 200.47 126.855 205.957C128.209 205.86 129.562 205.764 130.957 205.664C129.23 201.058 126.594 197.302 123.34 193.652C120.434 190.384 118.207 187.609 118.263 183.051C118.592 179.226 121.039 176.046 123.088 172.929C126.864 167.153 129.284 159.868 128.228 152.904C127.747 150.615 126.825 148.515 125.684 146.484C125.854 146.404 126.025 146.323 126.201 146.239C126.831 145.911 127.381 145.548 127.954 145.129C128.134 144.999 128.314 144.868 128.499 144.733C128.701 144.585 128.701 144.585 128.906 144.434C128.988 144.644 129.07 144.855 129.155 145.072C129.478 145.864 129.837 146.629 130.206 147.4C132.479 152.374 132.347 157.557 131.836 162.891C137.24 165.085 144.777 167.171 150.586 165.234C150.288 164.628 149.982 164.031 149.653 163.441C148.587 161.472 148.079 159.516 147.656 157.324C147.833 157.306 148.01 157.289 148.192 157.27C148.426 157.246 148.66 157.221 148.901 157.196C149.132 157.172 149.364 157.148 149.602 157.124C150.241 157.038 150.843 156.908 151.465 156.738C151.483 157.065 151.501 157.391 151.52 157.727C151.908 160.67 153.732 162.977 155.859 164.941C158.706 167.117 162.073 168.561 165.338 169.992C169.273 171.722 172.806 173.77 176.253 176.339C177.098 177.029 177.098 177.029 178.125 177.246C177.124 183.819 175.535 190.209 170.079 194.515C169.453 194.941 168.822 195.33 168.164 195.703C167.96 195.823 167.755 195.943 167.545 196.067C167.071 196.342 166.593 196.61 166.113 196.875C166.113 197.745 166.113 198.615 166.113 199.512C171.713 197.817 175.993 192.755 178.711 187.793C180.859 183.457 182.483 177.888 181.502 173.047C179.855 169.117 175.019 166.365 171.68 164.062C170.903 163.526 170.126 162.989 169.35 162.45C168.857 162.109 168.363 161.769 167.868 161.432C166.193 160.276 164.677 158.999 163.184 157.617C163.738 156.475 164.405 155.648 165.234 154.688C166.155 155.097 166.781 155.584 167.505 156.281C168.762 157.424 170.099 158.396 171.497 159.357C171.702 159.499 171.908 159.641 172.12 159.787C172.959 160.356 173.64 160.81 174.609 161.133C177.882 157.304 179.827 153.171 180.835 148.242C180.883 148.01 180.931 147.777 180.98 147.537C181.622 144.168 181.678 140.749 181.769 137.329C182.135 125.951 182.135 125.951 185.466 121.304C185.821 120.71 185.821 120.71 185.541 120.093C185.2 119.595 184.823 119.121 184.442 118.652C182.61 116.098 182.705 113.14 183.105 110.156C183.135 109.927 183.164 109.697 183.194 109.46C183.255 109.008 183.325 108.556 183.398 108.105C184.559 108.492 185.719 108.879 186.914 109.277C186.883 109.61 186.851 109.942 186.819 110.284C186.415 113.918 186.415 113.918 187.923 117.119C189 118.191 189.967 118.596 191.472 118.698C192.28 118.646 192.967 118.436 193.744 118.213C194.854 117.981 195.288 118.005 196.314 118.521C200.061 121.253 202.366 124.425 203.632 128.888C204.051 130.324 204.377 131.261 205.664 132.129C207.029 132.812 207.914 132.742 209.326 132.294C211.295 131.495 212.708 130.274 213.574 128.32C214.072 125.963 212.935 124.215 211.78 122.241C211.427 121.613 211.076 120.985 210.725 120.356C210.557 120.059 210.389 119.762 210.216 119.456C208.219 115.895 207.252 112.239 206.308 108.298C205.29 104.246 202.866 101.165 199.387 98.8495C198.214 98.2089 197.003 97.8489 195.703 97.5586C195.803 97.1349 195.803 97.1349 195.906 96.7026C195.99 96.3325 196.074 95.9624 196.161 95.5811C196.246 95.214 196.331 94.8469 196.418 94.4687C196.569 93.536 196.549 93.1509 196.289 92.2852ZM200.098 93.457C200.098 93.9404 200.098 94.4238 200.098 94.9219C200.194 94.5352 200.291 94.1484 200.391 93.75C201.067 93.75 201.744 93.75 202.441 93.75C202.441 93.6533 202.441 93.5566 202.441 93.457C201.668 93.457 200.895 93.457 200.098 93.457ZM201.855 94.043C202.148 94.6289 202.148 94.6289 202.148 94.6289L201.855 94.043ZM201.562 94.9219C201.855 95.5078 201.855 95.5078 201.855 95.5078L201.562 94.9219ZM180.762 159.668C180.32 160.234 179.881 160.801 179.443 161.371C179.255 161.611 179.255 161.611 179.062 161.857C178.288 162.843 178.288 162.843 178.125 164.062C178.765 164.666 178.765 164.666 179.59 165.271C181.55 166.828 183.21 168.362 184.331 170.618C185.161 172.147 186.263 172.945 187.701 173.877C187.927 174.03 188.153 174.184 188.386 174.342C189.524 175.113 189.524 175.113 190.723 175.781C190.573 182.606 187.842 189.908 182.922 194.678C181.851 195.794 181.851 195.794 181.586 197.272C181.734 198.153 181.93 198.963 182.227 199.805C188.824 195.846 193.048 187.329 194.901 180.122C194.966 179.856 195.031 179.59 195.099 179.315C195.161 179.066 195.223 178.816 195.287 178.559C195.74 176.577 196.18 174.46 195.293 172.56C195.007 172.206 195.007 172.206 194.714 171.844C194.499 171.577 194.285 171.309 194.063 171.033C193.831 170.763 193.599 170.493 193.359 170.215C193.13 169.942 192.901 169.669 192.665 169.387C191.005 167.483 189.198 165.902 187.207 164.355C186.862 164.08 186.518 163.804 186.174 163.527C184.427 162.129 182.701 160.793 180.762 159.668ZM137.109 169.043C137.109 169.235 137.108 169.427 137.107 169.624C136.964 172.991 135.364 175.406 133.442 178.076C132.379 179.632 132.18 181.268 132.422 183.105C133.508 186.91 137.59 189.094 140.635 191.201C144.532 193.911 147.001 197.113 147.949 201.855C149.399 202.049 150.85 202.242 152.344 202.441C150.47 195.767 145.728 190.594 140.216 186.619C138.813 185.545 137.548 184.276 137.109 182.52C136.968 180.964 137.212 180.055 137.988 178.711C138.079 178.493 138.17 178.276 138.263 178.052C138.574 177.539 138.574 177.539 139.082 177.314C139.99 176.821 140.618 176.117 141.302 175.36C141.443 175.206 141.584 175.051 141.729 174.892C143.904 172.629 143.904 172.629 145.02 169.922C143.921 169.774 142.822 169.628 141.724 169.482C141.412 169.441 141.101 169.399 140.779 169.355C140.479 169.316 140.179 169.276 139.87 169.235C139.594 169.198 139.317 169.162 139.033 169.124C138.213 169.022 138.213 169.022 137.109 169.043ZM185.449 176.074C185.406 176.457 185.363 176.84 185.319 177.235C184.53 183.718 182.526 189.199 178.711 194.531C182.345 192.86 184.506 188.314 185.931 184.785C186.382 183.544 186.801 182.299 187.189 181.036C187.254 180.827 187.32 180.618 187.388 180.402C187.868 178.804 187.868 178.804 187.5 177.246C186.841 176.765 186.188 176.437 185.449 176.074Z" fill="black"/>
<path d="M201.434 104.718C202.441 104.883 202.441 104.883 203.155 105.34C203.798 106.342 203.798 106.936 203.613 108.105C202.896 109.096 202.472 109.503 201.269 109.753C200.076 109.504 199.645 109.079 198.925 108.105C198.742 107.226 198.742 107.226 198.925 106.347C199.698 105.27 200.115 104.926 201.434 104.718Z" fill="black"/>
<path d="M211.23 125.977C211.78 126.471 211.78 126.471 212.109 127.148C212.039 128.136 211.937 128.493 211.23 129.199C210.37 129.309 210.37 129.309 209.473 129.199C208.905 128.705 208.905 128.705 208.594 128.027C208.63 127.258 208.63 127.258 208.887 126.562C209.83 125.933 210.135 125.812 211.23 125.977Z" fill="black"/>
<path d="M200.098 93.457C200.968 93.457 201.838 93.457 202.734 93.457C202.444 94.1338 202.154 94.8105 201.855 95.5078C201.275 95.2822 200.695 95.0566 200.098 94.8242C200.098 94.373 200.098 93.9219 200.098 93.457Z" fill="black"/>
<path d="M170.215 189.551C170.215 189.744 170.215 189.937 170.215 190.137C170.021 190.137 169.828 190.137 169.629 190.137C169.532 190.427 169.436 190.717 169.336 191.016C169.143 191.016 168.949 191.016 168.75 191.016C168.653 191.209 168.557 191.402 168.457 191.602C168.264 191.408 168.07 191.215 167.871 191.016C169.556 189.551 169.556 189.551 170.215 189.551Z" fill="black"/>
<path d="M160.254 99.9023C161.133 100.195 161.133 100.195 161.133 100.195L160.254 99.9023Z" fill="black"/>
</svg>
