<svg width="300" height="300" viewBox="0 0 300 300" fill="none" xmlns="http://www.w3.org/2000/svg">
<path d="M113.52 72.9184C114.183 73.1893 114.809 73.4709 115.43 73.8282C115.43 74.1183 115.43 74.4083 115.43 74.7071C115.202 74.7679 114.975 74.8287 114.741 74.8914C111.411 75.841 108.424 77.2379 105.579 79.2321C104.141 80.1731 102.596 80.9435 101.074 81.7384C103.481 81.9232 105.418 81.3897 107.684 80.6214C111.768 79.3044 115.781 78.1802 120.117 78.5157C120.464 78.5412 120.464 78.5412 120.819 78.5672C123.864 78.9863 126.757 80.8161 129.327 82.4159C132.069 84.079 134.816 84.4622 137.988 84.0821C138.976 83.8365 139.896 83.5381 140.842 83.1666C141.504 82.9103 141.504 82.9103 142.09 82.9103C141.22 85.4781 138.842 87.7118 136.523 89.0626C132.362 90.9894 127.951 89.3245 123.878 87.8854C121.457 87.0676 119.631 87.1479 117.188 87.8907C118.641 88.3824 120.094 88.8723 121.549 89.3606C122.042 89.5266 122.536 89.6931 123.029 89.8601C123.742 90.1014 124.456 90.3409 125.17 90.5801C125.387 90.654 125.604 90.7278 125.828 90.804C130.029 92.2049 134.121 92.6806 138.281 90.8204C139.006 90.4464 139.711 90.0585 140.408 89.6348C140.918 89.3556 140.918 89.3556 141.504 89.3556C141.592 91.3889 141.317 93.0387 140.717 94.9769C140.609 95.3562 140.609 95.3562 140.5 95.7431C139.925 97.6448 139.267 98.9944 137.526 100.081C134.849 101.224 132.386 101.724 129.492 101.953C131.467 103.837 133.381 105.562 136.208 105.79C137.741 105.718 139.022 105.221 140.222 104.279C141.206 103.062 142.094 101.786 142.969 100.488C144.699 102.505 144.888 105.588 144.81 108.151C144.433 111.915 142.437 114.919 139.746 117.481C138.898 118.126 138.03 118.703 137.109 119.238C142.897 122.301 148.553 122.209 154.871 121.123C163.947 119.586 173.813 118.793 181.824 124.219C182.739 124.886 182.739 124.886 183.634 124.756C184.688 124.481 185.519 124.063 186.475 123.541C189.144 122.142 192.084 121.128 195.117 120.996C195.407 120.981 195.697 120.966 195.995 120.95C203.935 120.734 210.835 123.907 216.57 129.283C218.774 131.412 220.732 133.73 222.659 136.109C227.182 141.59 234.279 145.948 241.368 146.998C244.712 147.261 247.966 147.306 251.212 146.384C251.953 146.192 251.953 146.192 253.125 146.192C251.666 151.223 246.44 154.773 242.059 157.186C236.672 159.847 230.093 160.309 224.339 158.611C221.298 157.481 218.592 156.084 216.13 153.946C215.698 153.484 215.698 153.484 215.332 153.516C218.701 158.031 222.593 160.825 227.93 162.598C228.227 162.697 228.524 162.797 228.83 162.9C233.332 164.12 238.575 163.749 243.164 163.184C243.164 163.377 243.164 163.57 243.164 163.77C237.151 168.824 230.164 170.949 222.363 170.508C215.148 169.828 209.067 166.085 204.433 160.627C200.695 155.899 199.58 150.613 198.763 144.767C198.026 137.909 198.026 137.909 194.238 132.422C192.92 131.522 191.963 131.236 190.39 131.244C190.016 131.246 189.643 131.248 189.258 131.25C189.413 131.555 189.569 131.86 189.729 132.175C192.955 138.645 194.032 145.628 191.79 152.663C190.086 157.734 187.513 162.113 184.489 166.509C181.753 170.237 181.753 170.237 181.055 174.609C181.476 175.625 182.003 176.586 182.521 177.554C183.489 179.389 183.992 180.865 183.533 182.942C182.595 185.743 180.438 187.871 178.36 189.887C177.215 191.064 176.216 192.368 175.195 193.652C174.959 193.942 174.722 194.233 174.479 194.531C172.062 197.562 170.087 200.822 168.431 204.327C167.387 206.537 166.266 208.174 164.355 209.766C165.032 209.572 165.709 209.379 166.406 209.18C166.653 210.125 166.896 211.071 167.139 212.018C167.243 212.419 167.243 212.419 167.35 212.828C167.416 213.087 167.483 213.347 167.551 213.614C167.612 213.852 167.673 214.09 167.737 214.335C167.881 215.091 167.944 215.737 167.871 216.504C165.806 218.569 161.744 219.651 158.884 219.755C158.502 219.75 158.502 219.75 158.112 219.745C157.853 219.742 157.594 219.74 157.328 219.737C157.036 219.732 157.036 219.732 156.738 219.727C155.083 216.416 156.911 210.864 157.939 207.56C159.63 202.831 162.65 198.858 165.518 194.791C169.471 190.094 169.471 190.094 171.636 184.845C171.325 184.138 170.971 183.853 170.361 183.38C167.66 181.108 165.823 178.212 164.062 175.195C163.824 175.805 163.586 176.416 163.348 177.026C163.15 177.536 163.15 177.536 162.947 178.056C162.133 180.266 161.962 182.329 162.871 184.543C163.361 185.504 163.967 186.389 164.588 187.27C165.165 188.602 165.216 189.938 164.733 191.317C164.447 191.904 164.13 192.455 163.788 193.012C163.669 193.213 163.549 193.415 163.427 193.622C161.724 196.448 159.704 198.939 157.46 201.355C156.527 202.381 155.657 203.451 154.788 204.531C154.308 205.119 153.823 205.695 153.323 206.266C150.838 209.111 148.615 212.055 147.045 215.508C145.876 218.081 145.876 218.081 144.874 218.752C144.222 218.967 143.653 219.103 142.969 219.141C143.452 219.334 143.936 219.527 144.434 219.727C144.418 220.972 144.391 222.217 144.36 223.462C144.356 223.816 144.352 224.169 144.348 224.533C144.338 224.873 144.329 225.213 144.319 225.563C144.313 225.876 144.307 226.189 144.301 226.512C144.105 227.529 143.766 227.876 142.969 228.516C140.144 229.653 135.83 228.756 133.008 227.93C132.15 227.459 132.15 227.459 131.543 227.051C131.702 225.526 132.066 224.241 132.697 222.839C132.831 222.539 132.831 222.539 132.967 222.231C135.168 217.428 138.168 213.257 141.626 209.284C142.657 208.094 143.637 206.875 144.598 205.628C146.101 203.683 147.736 201.891 149.414 200.098C152.967 196.391 152.967 196.391 154.201 191.66C153.827 188.134 151.696 185.033 149.506 182.355C147.495 179.834 147.057 177.157 147.07 174.024C146.829 174.041 146.587 174.059 146.338 174.077C140.89 174.473 135.531 174.774 130.068 174.421C129.29 174.374 128.513 174.345 127.734 174.317C127.543 174.307 127.351 174.298 127.154 174.288C123.319 174.112 119.993 174.684 116.309 175.708C115.811 175.84 115.313 175.971 114.815 176.102C110.307 176.976 110.307 176.976 106.641 179.297C106.542 180.072 106.502 180.756 106.512 181.531C106.514 181.751 106.516 181.971 106.519 182.197C106.667 187.533 108.655 193.92 112.277 197.904C113.298 198.766 114.515 199.256 115.723 199.805C116.858 200.406 117.94 201.051 118.945 201.856C118.365 200.84 118.365 200.84 117.773 199.805C119.849 198.776 121.896 198.186 124.219 198.633C126.257 199.913 127.009 202.2 127.844 204.364C128.101 205.778 128.074 207.161 128.027 208.594C127.662 208.785 127.296 208.973 126.929 209.161C126.725 209.267 126.521 209.372 126.311 209.481C123.139 210.922 118.091 210.214 114.844 209.18C106.97 205.333 101.023 195.27 98.1726 187.35C97.712 185.95 97.3195 184.538 96.9727 183.106C96.913 182.878 96.8533 182.65 96.7918 182.415C96.616 181.201 96.6495 179.991 96.6614 178.766C96.6627 178.507 96.664 178.248 96.6654 177.981C96.6688 177.346 96.6741 176.71 96.6797 176.074C96.1696 176.017 96.1696 176.017 95.6493 175.958C94.4413 175.806 93.2596 175.571 92.0723 175.304C91.6447 175.211 91.2171 175.119 90.7894 175.027C90.1296 174.883 89.4702 174.739 88.8114 174.591C84.568 173.555 84.568 173.555 80.2734 173.731C78.3534 176.141 78.9174 180.087 79.1655 182.97C79.8173 188.703 81.393 194.946 86.0722 198.769C86.4258 199.219 86.4258 199.219 86.4475 200.01C86.4101 200.299 86.3727 200.587 86.3342 200.885C86.2991 201.176 86.264 201.467 86.2278 201.767C86.1965 201.99 86.1651 202.212 86.1328 202.442C86.4229 201.958 86.7129 201.475 87.0117 200.977C88.3847 201.126 89.1573 201.694 90.2344 202.533C90.5305 202.762 90.8265 202.99 91.1316 203.225C91.4156 203.45 91.6996 203.675 91.9922 203.906C92.2641 204.086 92.536 204.265 92.8162 204.45C93.457 205.078 93.457 205.078 93.7981 205.966C93.7256 207.719 92.9413 208.984 92.1021 210.498C91.9453 210.793 91.7886 211.088 91.6271 211.392C89.2809 215.748 89.2809 215.748 87.8906 216.211C77.2469 206.725 71.7708 191.129 70.8984 177.246C70.7264 173.723 70.5276 168.835 72.6562 165.82C74.4412 164.018 76.5556 163.525 78.9551 162.927C82.9111 161.873 86.2595 160.517 89.6484 158.203C89.5672 157.889 89.486 157.574 89.4024 157.25C89.2951 156.829 89.188 156.408 89.0808 155.988C89.0007 155.678 89.0007 155.678 88.9189 155.362C87.4254 149.47 88.7353 144.306 90.5657 138.651C92.5545 132.477 93.0618 126.409 90.2344 120.41C90.0358 119.923 89.8395 119.435 89.6484 118.945C84.7302 121.481 82.8655 124.349 80.6033 129.355C79.2661 132.286 77.7661 134.847 74.707 136.231C71.8509 137.259 69.2248 137.452 66.4124 136.212C64.79 135.329 63.8055 134.056 62.9883 132.422C63.041 129.953 63.4143 127.51 63.8248 125.079C63.9049 124.595 63.9049 124.595 63.9865 124.101C64.1583 123.066 64.3329 122.031 64.5081 120.996C64.5675 120.643 64.627 120.289 64.6882 119.925C65.9109 112.666 67.2111 105.477 69.3001 98.4083C69.4678 97.8046 69.4678 97.8046 69.4336 96.9728C69.1504 96.9898 68.8671 97.0067 68.5753 97.0243C66.0369 97.1122 64.2978 96.9497 62.1094 95.5079C62.5661 94.5945 63.4108 94.4672 64.3295 94.1003C65.8355 93.357 66.6864 92.4185 67.5293 90.9852C68.5511 89.3349 69.3627 88.0863 71.2383 87.4147C71.5545 87.3002 71.5545 87.3002 71.877 87.1835C72.0375 87.1268 72.1979 87.0702 72.3633 87.0118C72.2787 86.6829 72.1941 86.3539 72.1069 86.015C71.0243 81.6919 71.0243 81.6919 71.1914 79.3946C72.2562 79.9165 73.2975 80.4792 74.3408 81.0426C74.5172 81.1378 74.6936 81.2329 74.8753 81.331C75.3076 81.5643 75.7397 81.7978 76.1719 82.0314C76.2285 81.71 76.2852 81.3886 76.3435 81.0575C76.4205 80.6313 76.4976 80.2052 76.5747 79.7792C76.6302 79.4622 76.6302 79.4622 76.6869 79.1389C76.897 77.9886 77.1502 76.9515 77.6367 75.879C77.8301 75.879 78.0234 75.879 78.2227 75.879C78.5311 76.2575 78.8208 76.6514 79.1016 77.0509C80.495 78.9 82.255 80.4756 84.375 81.4454C84.5381 81.2932 84.7013 81.141 84.8694 80.9842C88.215 77.9268 91.2735 77.023 95.6497 76.1388C112.581 72.6771 112.581 72.6771 113.52 72.9184ZM79.1016 80.8595C79.241 82.7906 79.6228 84.3126 80.4016 86.078C80.4932 86.2938 80.5848 86.5096 80.6791 86.732C81.031 87.5556 81.3864 88.3647 81.8035 89.1576C82.0312 89.6485 82.0312 89.6485 82.0312 90.5274C81.5266 90.9589 81.5266 90.9589 80.8411 91.4247C71.8552 98.2062 70.4672 116.068 68.4998 126.306C68.4386 126.619 68.3775 126.931 68.3146 127.252C68.142 128.139 67.975 129.027 67.8097 129.916C67.7574 130.182 67.705 130.448 67.6511 130.722C67.6067 130.968 67.5623 131.214 67.5165 131.468C67.4763 131.681 67.4361 131.895 67.3947 132.115C67.3798 132.866 67.561 133.261 67.9688 133.887C69.8371 134.845 72.0437 134.577 74.0662 134.345C76.4425 133.18 77.4212 129.928 78.4058 127.625C78.5417 127.314 78.6777 127.004 78.8177 126.684C79.215 125.768 79.6008 124.849 79.9805 123.926C80.1569 123.5 80.1569 123.5 80.337 123.066C80.9997 121.377 81.316 119.969 81.2256 118.158C81.2203 117.949 81.215 117.74 81.2096 117.525C81.1961 117.021 81.1751 116.519 81.1523 116.016C81.4061 116.085 81.4061 116.085 81.665 116.156C84.2755 116.759 86.8299 116.047 89.1392 114.771C92.814 112.229 94.4313 108.534 95.2148 104.297C95.3409 103.417 95.4327 102.547 95.5078 101.66C95.9849 103.042 96.1232 104.105 96.0259 105.558C95.8539 108.268 96.3449 109.897 97.8218 112.14C101.304 117.493 101.178 123.475 100.239 129.521C99.3216 135.508 99.6833 140.742 101.66 146.484C102.211 145.494 102.488 144.501 102.777 143.408C104.132 138.607 106.32 134.506 109.863 130.957C110.086 130.731 110.308 130.505 110.537 130.273C112.09 128.783 115.162 125.977 117.48 125.977C117.257 126.172 117.034 126.367 116.804 126.568C110.779 131.913 106.207 139.188 105.469 147.363C105.184 152.618 105.751 156.443 109.314 160.529C111.291 162.65 113.442 164.617 115.723 166.406C115.366 166.301 115.009 166.196 114.641 166.088C114.166 165.962 113.69 165.836 113.214 165.711C112.98 165.64 112.745 165.569 112.504 165.497C111.144 165.139 111.144 165.139 109.857 165.57C109.338 166.02 108.875 166.498 108.398 166.992C107.134 167.927 105.926 168.518 104.425 168.988C102.687 169.604 101.716 170.378 100.781 171.973C98.7905 176.152 98.7627 180.543 100.098 184.941C101.167 187.937 102.362 190.808 104.297 193.359C104.758 192.438 104.454 191.511 104.315 190.521C103.148 181.384 103.148 181.384 105.573 178.086C107.271 176.158 109.712 175.305 112.079 174.5C112.553 174.333 112.553 174.333 113.037 174.163C114.669 173.593 116.308 173.047 117.954 172.516C118.265 172.415 118.576 172.315 118.897 172.211C119.484 172.022 120.072 171.836 120.661 171.655C123.799 170.651 126.939 169.058 128.613 166.113C129.987 162.843 128.681 159.545 127.441 156.445C127.324 156.145 127.206 155.844 127.084 155.534C126.817 154.86 126.546 154.187 126.27 153.516C128.398 155.741 130.482 158.043 131.378 161.041C132.112 162.765 133.841 163.416 135.465 164.123C142.463 166.94 149.995 167.21 157.031 164.356C159.606 163.221 159.606 163.221 161.719 161.426C161.916 160.862 161.916 160.862 161.999 160.233C162.04 159.997 162.081 159.761 162.123 159.518C162.165 159.266 162.207 159.013 162.25 158.753C163.535 151.762 166.608 144.631 172.54 140.35C172.836 140.151 173.132 139.952 173.438 139.746C173.317 139.931 173.196 140.116 173.071 140.307C167.492 148.95 163.255 158.627 165.288 169.143C166.652 175.317 169.732 180.264 174.609 184.277C174.392 184.453 174.174 184.628 173.95 184.808C172.816 185.943 172.345 187.432 171.973 188.965C171.998 189.992 171.998 189.992 172.266 190.723C173.515 190.91 174.188 190.699 175.177 189.972C177.469 188.111 179.229 186.492 179.642 183.481C179.545 182.249 178.926 181.534 178.015 180.744C177.761 180.556 177.508 180.369 177.246 180.176C175.907 179.187 175.047 178.373 174.755 176.687C174.661 171.627 178.269 167.785 181.158 163.918C186.827 156.29 189.948 148.288 188.839 138.652C188.031 134.963 186.079 131.809 183.398 129.199C183.176 128.97 182.953 128.742 182.723 128.506C178.149 124.051 171.645 122.655 165.446 122.663C162.025 122.729 158.634 123.28 155.261 123.822C148.132 124.941 140.377 123.761 134.436 119.454C133.642 118.819 132.882 118.162 132.129 117.481C131.671 117.084 131.214 116.687 130.756 116.29C130.432 116.004 130.108 115.717 129.785 115.43C129.688 115.623 129.592 115.817 129.492 116.016C129.667 116.537 129.667 116.537 129.966 117.101C130.124 117.423 130.124 117.423 130.285 117.752C130.511 118.201 130.737 118.651 130.963 119.1C131.563 120.324 131.993 121.377 132.129 122.754C131.965 122.49 131.801 122.227 131.632 121.955C130.979 120.905 130.322 119.858 129.664 118.81C129.348 118.305 129.033 117.799 128.719 117.292C126.422 113.585 124.026 110.037 121.289 106.641C121.161 106.478 121.032 106.316 120.9 106.149C113.65 97.0089 104.007 89.3139 92.1352 87.7557C91.4034 87.6863 90.6757 87.6295 89.9414 87.5978C90.0864 88.7579 90.0864 88.7579 90.2344 89.9415C89.9995 89.6896 89.7646 89.4377 89.5226 89.1782C86.3903 85.8953 82.8737 83.3543 79.1016 80.8595ZM119.238 202.442C119.531 203.027 119.531 203.027 119.531 203.027L119.238 202.442ZM85.5469 202.734C85.8398 203.32 85.8398 203.32 85.8398 203.32L85.5469 202.734Z" fill="black"/>
</svg>
