<svg width="300" height="300" viewBox="0 0 300 300" fill="none" xmlns="http://www.w3.org/2000/svg">
<path d="M163.769 132.128C172.769 131.835 181.079 133.736 187.846 140.008C194.818 146.676 197.378 155.609 197.989 165.003C198.026 165.53 198.07 166.057 198.123 166.583C198.569 171.088 197.201 174.052 194.824 177.832C194.653 178.11 194.653 178.11 194.479 178.395C192.632 181.4 190.431 184.265 187.793 186.621C187.696 186.621 187.6 186.621 187.5 186.621C187.492 185.87 187.486 185.119 187.482 184.368C187.479 184.157 187.477 183.946 187.474 183.728C187.469 182.602 187.519 181.562 187.793 180.468C186.553 181.001 185.555 181.591 184.57 182.519C184.262 183.457 184.262 183.457 184.204 184.513C184.185 184.705 184.165 184.898 184.146 185.096C184.106 185.501 184.069 185.905 184.035 186.31C183.955 187.255 183.847 188.197 183.744 189.139C183.685 189.716 183.627 190.293 183.569 190.871C183.507 191.497 183.444 192.123 183.38 192.749C183.2 194.525 183.022 196.302 182.844 198.079C181.977 206.73 181.977 206.73 181.468 210.51C181.435 210.755 181.402 211 181.369 211.252C181.108 213.106 180.731 214.929 180.281 216.747C179.649 219.347 179.542 221.962 179.53 224.63C179.529 224.923 179.527 225.217 179.525 225.519C179.522 226.138 179.521 226.756 179.519 227.375C179.517 228.3 179.508 229.225 179.498 230.15C179.463 237.035 179.859 242.934 184.277 248.437C184.655 248.925 185.03 249.416 185.405 249.906C186.21 250.961 187.021 252.012 187.848 253.051C188.035 253.287 188.222 253.523 188.415 253.765C188.579 253.969 188.743 254.173 188.912 254.382C189.258 254.882 189.258 254.882 189.258 255.468C184.037 255.468 178.816 255.468 173.437 255.468C174.088 251.562 174.088 251.562 174.502 249.941C174.781 248.318 174.638 247.41 173.701 246.017C173.578 245.843 173.454 245.669 173.328 245.489C171.667 243.078 171.1 241.185 170.995 238.255C170.98 237.859 170.964 237.463 170.949 237.066C170.941 236.857 170.934 236.648 170.926 236.433C170.516 225.492 169.725 214.84 167.771 204.051C167.385 201.904 167.056 199.755 166.764 197.593C166.725 197.306 166.686 197.019 166.646 196.723C166.499 195.641 166.353 194.56 166.216 193.477C166.127 192.769 166.031 192.062 165.934 191.355C165.898 191.045 165.898 191.045 165.861 190.729C165.783 190.099 165.783 190.099 165.527 189.257C164.984 188.84 164.984 188.84 164.355 188.671C159.645 185.363 156.983 180.782 155.859 175.195C155.746 174.095 155.73 173.007 155.732 171.902C155.729 171.593 155.726 171.285 155.723 170.968C155.714 169.961 155.713 168.955 155.712 167.948C155.709 167.243 155.706 166.538 155.703 165.832C155.698 164.36 155.696 162.887 155.696 161.415C155.697 159.531 155.685 157.647 155.669 155.762C155.66 154.308 155.658 152.854 155.658 151.4C155.657 150.705 155.653 150.01 155.647 149.316C155.638 148.344 155.641 147.374 155.646 146.403C155.638 145.976 155.638 145.976 155.631 145.54C155.656 143.75 156.014 142.763 157.199 141.409C157.681 140.887 157.681 140.887 158.038 140.002C158.479 139.191 158.75 138.909 159.448 138.354C161.476 136.716 162.654 134.437 163.769 132.128Z" fill="black"/>
<path d="M114.332 137.585C114.682 137.582 115.032 137.579 115.392 137.575C117.369 137.582 119.2 137.756 121.134 138.142C121.454 138.204 121.454 138.204 121.781 138.268C122.301 138.368 122.821 138.471 123.34 138.574C123.361 143.535 123.376 148.497 123.386 153.458C123.39 155.762 123.397 158.066 123.407 160.37C123.415 162.38 123.421 164.391 123.423 166.401C123.424 167.464 123.427 168.526 123.433 169.589C123.496 180.27 121.311 188.392 113.845 196.409C108.42 201.834 100.871 206.016 93.8638 209.02C93.5989 209.133 93.3341 209.247 93.0612 209.365C92.5593 209.577 92.0552 209.783 91.5484 209.984C89.9097 210.672 88.9636 211.375 88.1841 212.988C87.3898 215.472 87.0798 217.998 86.8348 220.584C86.797 220.966 86.7593 221.348 86.7203 221.742C86.6411 222.548 86.5638 223.354 86.4878 224.16C86.4113 224.971 86.3321 225.782 86.2501 226.592C84.8339 238.377 84.8339 238.377 89.1999 248.977C89.883 249.939 90.5483 250.913 91.2145 251.887C91.5591 252.39 91.9048 252.893 92.2518 253.394C92.4087 253.622 92.5657 253.849 92.7274 254.084C92.8683 254.288 93.0092 254.491 93.1544 254.701C93.4575 255.176 93.4575 255.176 93.4575 255.469C88.0434 255.469 82.6294 255.469 77.0513 255.469C77.6079 253.613 78.1571 251.894 78.8766 250.119C79.4038 248.243 79.0866 247.01 78.1791 245.358C77.9924 245.033 77.9924 245.033 77.802 244.702C77.5577 244.265 77.3139 243.827 77.0707 243.388C76.9618 243.197 76.8529 243.006 76.7406 242.81C75.9887 241.377 76.1248 239.982 76.13 238.406C76.1307 238.078 76.1314 237.75 76.1321 237.412C76.1623 232.216 76.3352 227.021 76.4996 221.828C76.5484 220.277 76.5924 218.727 76.6353 217.177C76.6696 215.971 76.7074 214.765 76.7462 213.559C76.764 212.987 76.7805 212.415 76.7956 211.843C76.8168 211.047 76.8432 210.251 76.8708 209.455C76.8784 209.108 76.8784 209.108 76.8861 208.753C76.9792 206.384 77.6758 204.436 79.395 202.734C79.9283 202.247 80.4722 201.775 81.0224 201.306C82.0911 200.377 83.123 199.409 84.1575 198.443C84.9072 197.746 85.6611 197.07 86.4594 196.429C89.2023 194.076 91.1035 190.739 91.6448 187.152C91.672 186.599 91.672 186.599 91.6997 186.035C91.7144 185.831 91.7292 185.627 91.7443 185.417C91.9225 181.17 90.5461 176.724 89.6694 172.603C87.9344 164.382 88.4923 156.576 93.1113 149.338C96.9177 143.731 102.544 139.478 109.17 137.876C110.889 137.561 112.589 137.569 114.332 137.585Z" fill="black"/>
<path d="M127.148 137.988C128.663 138.485 130.11 139.077 131.572 139.711C133.147 140.319 134.626 140.388 136.304 140.387C136.524 140.387 136.745 140.387 136.972 140.388C138.557 140.372 139.975 140.191 141.504 139.746C141.653 140.046 141.801 140.347 141.955 140.656C142.158 141.055 142.362 141.453 142.566 141.852C142.663 142.049 142.76 142.246 142.86 142.45C143.667 144.01 144.585 145.095 146.191 145.898C146.191 146.092 146.191 146.285 146.191 146.484C147.809 146.776 148.949 146.809 150.534 146.344C150.82 146.261 151.105 146.179 151.399 146.094C151.614 146.029 151.829 145.965 152.051 145.898C152.053 146.226 152.056 146.554 152.058 146.892C152.081 149.999 152.107 153.106 152.135 156.214C152.15 157.81 152.163 159.407 152.174 161.004C152.185 162.549 152.199 164.093 152.214 165.638C152.22 166.223 152.224 166.809 152.228 167.395C152.281 176.222 153.827 183.461 160.272 189.88C160.439 190.038 160.605 190.196 160.777 190.359C161.133 190.723 161.133 190.723 161.133 191.016C159.137 190.85 157.199 190.564 155.237 190.165C154.956 190.11 154.676 190.054 154.387 189.996C153.468 189.813 152.55 189.628 151.632 189.443C150.988 189.314 150.343 189.185 149.699 189.057C148.352 188.787 147.005 188.517 145.658 188.245C143.94 187.899 142.221 187.555 140.503 187.212C139.173 186.946 137.843 186.68 136.514 186.413C135.881 186.286 135.247 186.159 134.614 186.032C128.283 184.765 128.283 184.765 125.391 183.984C125.423 183.831 125.455 183.677 125.488 183.519C125.591 183.013 125.691 182.506 125.789 181.999C125.915 181.364 126.051 180.732 126.198 180.102C127.049 176.056 126.996 171.995 127.004 167.879C127.007 166.824 127.014 165.77 127.021 164.716C127.034 162.728 127.042 160.741 127.049 158.753C127.057 156.486 127.07 154.22 127.083 151.953C127.11 147.298 127.131 142.643 127.148 137.988Z" fill="black"/>
<path d="M124.219 187.5C125.105 187.636 125.978 187.791 126.857 187.963C127.257 188.04 127.257 188.04 127.666 188.118C128.234 188.227 128.802 188.337 129.369 188.447C130.232 188.615 131.095 188.78 131.958 188.945C132.51 189.051 133.061 189.157 133.613 189.264C133.869 189.313 134.125 189.362 134.389 189.413C135.896 189.706 137.381 190.044 138.867 190.43C136.437 195.461 133.629 199.978 129.822 204.109C129.247 204.733 128.69 205.369 128.137 206.012C126.263 208.158 124.178 210.026 122.005 211.863C120.015 213.585 118.282 215.289 117.957 218.009C118.104 219.528 118.718 220.456 119.531 221.722C119.688 221.974 119.844 222.225 120.005 222.484C120.346 223.033 120.689 223.581 121.034 224.128C121.598 225.025 122.152 225.926 122.705 226.83C124.786 230.232 126.891 233.619 129.01 236.999C130.559 239.473 132.086 241.96 133.612 244.449C135.098 246.868 136.615 249.267 138.156 251.652C138.314 251.898 138.472 252.144 138.635 252.397C138.772 252.609 138.91 252.822 139.051 253.041C139.522 253.825 139.923 254.65 140.332 255.469C135.401 255.469 130.471 255.469 125.391 255.469C126.465 253.32 127.539 251.172 128.613 249.023C128.32 248.832 128.026 248.641 127.724 248.444C127.331 248.186 126.937 247.927 126.544 247.668C126.352 247.543 126.159 247.418 125.961 247.29C123.607 245.735 121.97 244.246 120.52 241.809C120.213 241.308 119.906 240.808 119.598 240.308C119.441 240.052 119.285 239.796 119.124 239.533C118.377 238.325 117.6 237.138 116.821 235.95C115.36 233.713 113.918 231.464 112.482 229.211C111.075 227.01 109.662 224.814 108.215 222.638C108.081 222.434 107.946 222.231 107.807 222.021C106.994 220.806 106.141 219.63 105.253 218.469C104.332 217.223 104.157 216.212 104.376 214.661C105.103 211.963 106.809 209.408 108.243 207.034C108.624 206.368 108.906 205.733 109.186 205.023C109.876 203.589 111.184 202.838 112.452 201.94C113.835 200.939 115.066 199.801 116.309 198.633C116.503 198.461 116.698 198.288 116.898 198.111C119.759 195.465 121.797 191.93 123.562 188.49C123.926 187.793 123.926 187.793 124.219 187.5Z" fill="black"/>
<path d="M199.512 176.074C201.023 176.035 202.442 176.173 203.932 176.432C204.273 176.489 204.273 176.489 204.621 176.547C205.368 176.673 206.115 176.801 206.861 176.93C207.384 177.019 207.907 177.108 208.43 177.197C209.524 177.384 210.617 177.573 211.711 177.762C213.107 178.003 214.504 178.24 215.9 178.475C216.98 178.657 218.059 178.843 219.138 179.03C219.653 179.118 220.167 179.206 220.682 179.292C227.345 180.411 227.345 180.411 229.395 182.519C231.036 185.213 231.389 188.148 230.674 191.23C230.418 192.142 230.144 193.048 229.863 193.953C229.759 194.295 229.655 194.636 229.548 194.988C229.266 195.914 228.981 196.84 228.694 197.764C228.515 198.34 228.338 198.917 228.161 199.493C227.427 201.88 226.683 204.263 225.932 206.645C225.674 207.463 225.418 208.282 225.164 209.102C224.848 210.117 224.53 211.131 224.209 212.144C224.034 212.702 223.861 213.261 223.689 213.82C222.1 218.803 220.07 221.541 215.625 224.157C215.258 224.376 214.891 224.596 214.524 224.815C213.429 225.468 212.331 226.114 211.23 226.757C210.91 226.945 210.589 227.133 210.259 227.326C208.917 228.107 207.572 228.884 206.221 229.65C206.02 229.764 205.82 229.879 205.612 229.996C205.078 230.273 205.078 230.273 204.199 230.566C204.673 227.175 205.501 223.861 206.287 220.532C206.425 219.941 206.564 219.35 206.702 218.759C207.038 217.323 207.376 215.888 207.715 214.453C208.549 214.197 208.794 214.122 209.634 214.462C210.035 214.675 210.035 214.675 210.443 214.892C211.469 215.377 212.118 215.625 213.263 215.734C214.464 215.195 214.577 214.611 215.066 213.436C215.474 212.299 215.708 211.16 215.918 209.972C215.989 209.594 215.989 209.594 216.061 209.208C216.212 208.4 216.358 207.59 216.504 206.781C216.606 206.223 216.709 205.665 216.812 205.107C217.013 204.019 217.212 202.931 217.409 201.843C217.625 200.657 217.852 199.474 218.088 198.292C219.24 193.712 219.24 193.712 218.528 189.316C216.558 188.079 214.149 188.929 212.036 189.349C208.742 189.97 205.488 190.455 202.148 190.722C201.798 190.755 201.448 190.787 201.086 190.821C196.866 191.157 192.61 191.041 188.379 191.015C188.379 190.822 188.379 190.628 188.379 190.429C188.853 190.037 188.853 190.037 189.514 189.569C194.072 186.095 196.823 181.016 199.512 176.074Z" fill="black"/>
<path d="M95.2148 141.211C94.8302 142.075 94.4349 142.617 93.7317 143.243C88.3415 148.511 85.5449 156.246 85.437 163.641C85.4279 166.617 85.825 169.475 86.2972 172.408C87.0614 177.214 87.1123 182.243 84.668 186.621C84.5517 186.84 84.4353 187.058 84.3155 187.284C82.6428 190.115 80.0105 191.758 76.8711 192.59C73.6792 193.179 70.9856 192.724 67.9688 191.602C67.9688 190.527 68.2232 190.3 68.866 189.459C71.4899 185.803 73.4721 181.547 72.9492 176.953C72.4373 174.135 71.551 171.501 70.448 168.861C68.3666 163.816 68.3134 158.165 70.393 153.11C72.8756 147.549 77.4579 143.634 83.0566 141.394C86.8623 140.144 91.4106 139.778 95.2148 141.211Z" fill="black"/>
<path d="M139.452 97.5586C143.277 99.2095 146.514 101.998 148.827 105.469C148.748 106.266 148.533 106.643 148.04 107.281C147.453 108.539 147.87 109.449 148.242 110.742C148.396 111.34 148.549 111.938 148.699 112.537C148.772 112.815 148.845 113.094 148.92 113.381C149.457 115.73 149.5 118.071 149.565 120.469C149.685 124.431 149.685 124.431 151.171 128.027C151.94 128.725 151.94 128.725 152.837 129.327C157.269 132.516 157.269 132.516 158.202 134.18C158.288 135.484 158.232 136.119 157.415 137.144C156.818 137.743 156.2 138.308 155.566 138.867C155.324 139.115 155.082 139.363 154.833 139.618C154.471 139.971 154.471 139.971 154.101 140.332C153.845 140.586 153.845 140.586 153.584 140.846C151.592 142.724 149.744 143.198 147.07 143.555C145.119 140.398 143.789 137.458 143.282 133.738C142.899 130.997 142.056 128.856 140.735 126.44C135.823 117.23 135.823 117.23 134.765 112.5C134.672 112.121 134.672 112.121 134.577 111.734C133.792 107.292 136.564 101.863 138.949 98.275C139.115 98.0386 139.281 97.8022 139.452 97.5586Z" fill="black"/>
<path d="M157.123 74.2676C158.602 74.5428 159.456 75.8835 160.407 76.9787C161.643 78.4008 162.913 79.7843 164.209 81.1523C165.5 82.5156 166.767 83.8934 167.998 85.3114C168.571 85.9705 169.154 86.62 169.739 87.2681C169.962 87.5154 170.184 87.7628 170.414 88.0177C170.86 88.5108 171.307 89.003 171.755 89.4939C173.14 91.0159 174.466 92.5719 175.755 94.1757C176.293 94.8317 176.853 95.4529 177.429 96.0754C178.125 96.9727 178.125 96.9727 178.077 97.5678C177.644 98.5871 176.66 99.1146 175.781 99.7375C175.35 100.052 174.918 100.367 174.487 100.682C174.264 100.843 174.041 101.005 173.811 101.172C172.764 101.939 171.737 102.734 170.709 103.528C168.866 104.942 167.01 106.338 165.143 107.721C164.788 107.985 164.788 107.985 164.427 108.254C164.205 108.418 163.983 108.581 163.755 108.75C163.559 108.894 163.364 109.039 163.163 109.188C162.602 109.567 162.038 109.868 161.426 110.156C160.851 109.205 160.278 108.252 159.705 107.3C159.542 107.03 159.379 106.761 159.211 106.483C158.976 106.092 158.976 106.092 158.736 105.693C158.52 105.334 158.52 105.334 158.299 104.968C157.949 104.363 157.629 103.754 157.324 103.125C157.533 102.962 157.742 102.799 157.957 102.631C161.303 99.9645 163.789 97.2928 164.583 92.9386C165.026 88.5053 162.545 84.3116 159.866 80.9605C158.155 78.9184 156.248 77.169 154.102 75.5859C155.144 74.7774 155.857 74.5413 157.123 74.2676Z" fill="black"/>
<path d="M192.187 47.1677C192.585 47.4514 192.979 47.7405 193.359 48.0466C193.055 48.951 192.83 49.1892 191.965 49.6327C191.64 49.7498 191.314 49.8669 190.979 49.9875C190.497 50.1654 190.497 50.1654 190.006 50.3468C187.038 51.3059 184.351 51.3765 181.237 51.4094C179.211 51.4524 177.623 51.5781 175.781 52.4411C175.437 52.568 175.437 52.568 175.085 52.6975C174.394 53.176 174.28 53.7033 174.023 54.4919C173.915 54.7034 173.806 54.9149 173.694 55.1328C173.048 57.2077 173.307 58.8153 174.261 60.7541C174.877 61.9132 174.877 61.9132 175.702 62.9193C176.411 64.1662 175.993 65.6826 175.851 67.0644C175.723 68.6037 175.765 69.5662 176.66 70.8981C177.161 71.4755 177.161 71.4755 177.74 71.9418C178.014 72.1781 178.014 72.1781 178.293 72.4191C178.95 72.961 178.95 72.961 179.6 73.1699C180.378 73.5022 180.805 73.7572 181.348 74.4138C181.65 76.0124 181.568 77.5743 181.494 79.1928C181.482 79.6378 181.472 80.0828 181.462 80.5278C181.436 81.6154 181.396 82.7019 181.348 83.7888C180.192 82.826 179.095 81.8696 178.107 80.7309C176.78 79.226 175.414 77.7608 174.038 76.301C173.541 75.7724 173.049 75.2407 172.559 74.7067C172.389 74.5228 172.219 74.3389 172.043 74.1495C171.883 73.9701 171.722 73.7907 171.556 73.6058C171.411 73.4456 171.266 73.2855 171.117 73.1204C170.801 72.656 170.801 72.656 170.782 71.7221C170.962 71.0767 171.143 70.4315 171.326 69.7869C171.406 69.489 171.487 69.191 171.57 68.884C171.652 68.6068 171.734 68.3296 171.819 68.044C172.192 65.7219 171.555 63.9037 170.508 61.8527C170.294 61.4203 170.08 60.9877 169.867 60.555C169.772 60.3677 169.677 60.1804 169.58 59.9875C168.488 57.68 168.778 54.4051 169.519 52.02C170.801 48.7179 172.962 46.1465 176.147 44.531C181.626 42.4614 187.358 44.454 192.187 47.1677Z" fill="black"/>
<path d="M151.56 78.5338C155.851 80.0375 158.575 84.3482 160.547 88.1835C161.404 89.9675 161.771 91.4685 161.168 93.4054C159.919 96.6908 158.067 98.4 155.261 100.433C154.132 101.268 153.086 102.178 152.051 103.125C150.981 102.686 150.413 102.078 149.67 101.202C147.593 98.8424 145.355 96.8647 142.676 95.2147C143.045 93.7286 143.762 92.6637 144.623 91.4275C146.236 89.1115 147.361 87.2847 147.755 84.4722C148.157 82.4511 149.216 80.486 150.412 78.8211C150.879 78.5155 150.879 78.5155 151.56 78.5338Z" fill="black"/>
<path d="M210.937 108.984C214.833 111.23 218.251 114.738 221.118 118.176C223.187 120.594 225.853 122.301 228.537 123.957C231.297 125.681 231.297 125.681 232.031 127.148C232.216 129.122 232.169 130.795 231.23 132.561C230.616 133.3 229.971 133.546 229.037 133.702C228.348 133.723 227.729 133.723 227.05 133.594C226.654 133.11 226.263 132.622 225.878 132.129C225.263 132.002 225.263 132.002 224.578 131.982C223.586 131.916 223.303 131.881 222.473 131.268C219.726 127.727 219.726 127.727 219.726 126.855C219.426 126.737 219.426 126.737 219.12 126.616C217.56 125.986 216.02 125.313 214.476 124.646C214.07 124.471 213.664 124.297 213.257 124.122C212.667 123.869 212.076 123.614 211.486 123.359C211.135 123.208 210.784 123.057 210.422 122.901C209.569 122.506 208.777 122.122 208.007 121.582C207.07 117.472 208.91 112.491 210.937 108.984Z" fill="black"/>
<path d="M191.895 53.3203C191.869 53.7831 191.869 53.7831 191.843 54.2553C191.74 57.0425 192.03 59.1823 193.096 61.7661C193.359 62.6953 193.359 62.6953 193.147 63.533C192.773 64.1602 192.773 64.1602 192.187 64.4531C192.187 65.3232 192.187 66.1934 192.187 67.0898C191.897 67.1865 191.607 67.2832 191.309 67.3828C191.361 67.7076 191.414 68.0324 191.468 68.367C191.531 68.7957 191.594 69.2245 191.656 69.6533C191.692 69.8671 191.727 70.0808 191.763 70.3011C191.895 71.2346 191.953 71.9238 191.598 72.8073C190.709 73.4709 190.051 73.3428 188.965 73.2422C185.901 72.6873 183.147 71.5976 180.469 70.0195C180.188 69.8688 179.907 69.7182 179.617 69.5629C178.628 68.4089 178.937 67.2094 179.041 65.7532C179.152 62.9252 178.749 61.4124 176.953 59.1797C176.573 58.4349 176.467 57.9785 176.367 57.1289C176.74 56.1416 177.088 55.5289 177.832 54.7852C178.67 54.5021 179.41 54.466 180.289 54.4945C184.264 54.5824 188.072 53.3203 191.895 53.3203Z" fill="black"/>
<path d="M181.347 100.195C181.347 106.866 181.347 113.537 181.347 120.41C176.223 120.41 171.099 120.41 165.82 120.41C165.529 119.54 165.239 118.67 164.941 117.773C164.554 116.858 164.148 115.953 163.737 115.049C163.476 114.258 163.476 114.258 163.475 113.656C163.933 112.767 164.685 112.261 165.472 111.676C165.652 111.538 165.833 111.4 166.019 111.257C166.634 110.789 167.252 110.326 167.87 109.863C168.324 109.522 168.777 109.181 169.23 108.84C170.207 108.106 171.185 107.374 172.164 106.643C174.091 105.201 176.004 103.739 177.915 102.276C178.16 102.089 178.404 101.902 178.656 101.709C178.872 101.544 179.088 101.379 179.31 101.208C180.666 100.195 180.666 100.195 181.347 100.195Z" fill="black"/>
<path d="M166.699 72.9488C167.277 73.5233 167.277 73.5233 167.889 74.2306C168.876 75.3559 169.875 76.4658 170.892 77.5631C172.225 79.0075 173.508 80.4898 174.78 81.9874C175.698 83.0652 176.635 84.1201 177.594 85.162C179.76 87.5257 181.737 90.0384 183.691 92.5777C185.071 90.322 186.367 88.0251 187.646 85.7113C187.833 85.3742 188.02 85.0372 188.213 84.6899C189.351 82.6362 190.48 80.578 191.602 78.5152C192.65 78.9204 193.579 79.3813 194.531 79.9801C194.372 81.2612 194.065 82.2084 193.446 83.3389C193.282 83.6425 193.117 83.9462 192.947 84.259C192.769 84.5812 192.591 84.9033 192.407 85.2352C192.224 85.5698 192.042 85.9044 191.853 86.2491C189.501 90.5494 187.11 94.8303 184.57 99.023C183.089 97.9216 182.016 96.6222 180.866 95.1835C180.219 94.3883 179.549 93.6274 178.857 92.8707C177.967 91.8945 177.12 90.8988 176.294 89.8678C175.092 88.3805 173.807 86.9917 172.497 85.6009C171.565 84.6055 170.679 83.5944 169.83 82.5252C168.472 80.827 166.983 79.2629 165.482 77.6915C164.19 76.3368 162.94 74.9539 161.719 73.5348C162.441 72.8127 162.885 72.7692 163.879 72.5826C164.16 72.5267 164.44 72.4708 164.729 72.4132C165.634 72.3562 165.961 72.4363 166.699 72.9488Z" fill="black"/>
<path d="M199.512 87.3047C201.609 89.1139 201.943 92.1958 202.149 94.7937C202.484 98.8125 204.129 102.402 206.973 105.324C207.395 105.764 207.395 105.764 208.008 106.641C207.86 107.504 207.86 107.504 207.422 108.398C207.29 108.718 207.158 109.037 207.022 109.367C206.876 109.712 206.73 110.057 206.58 110.413C205.632 112.712 205.034 115.058 204.493 117.48C201.797 116.66 199.207 114.993 197.754 112.5C197.776 111.837 197.776 111.837 197.956 111.127C198.017 110.868 198.077 110.61 198.14 110.344C198.264 109.865 198.388 109.386 198.513 108.907C199.484 104.968 198.666 101.175 197.33 97.4052C196.845 95.2242 197.349 93.4089 198.011 91.333C198.09 91.0739 198.169 90.8149 198.25 90.5479C198.601 89.4151 198.958 88.3565 199.512 87.3047Z" fill="black"/>
<path d="M187.208 99.9023C188.245 100.277 189.043 100.709 189.907 101.391C190.133 101.568 190.358 101.744 190.59 101.926C190.821 102.11 191.053 102.294 191.291 102.484C191.521 102.665 191.751 102.846 191.988 103.032C192.437 103.385 192.884 103.74 193.33 104.098C193.717 104.407 194.108 104.713 194.502 105.013C194.988 105.391 194.988 105.391 195.704 106.055C195.746 107.225 195.516 108.077 195.154 109.184C193.987 112.841 193.718 116.602 193.36 120.41C192.243 120.419 191.126 120.424 190.009 120.428C189.69 120.431 189.371 120.433 189.043 120.436C188.74 120.437 188.437 120.438 188.124 120.439C187.843 120.44 187.563 120.442 187.273 120.443C186.622 120.41 186.622 120.41 186.329 120.117C186.297 119.442 186.288 118.778 186.292 118.103C186.293 117.885 186.294 117.668 186.295 117.444C186.346 111.58 186.683 105.742 187.208 99.9023Z" fill="black"/>
<path d="M186.621 124.512C188.844 124.512 191.068 124.512 193.359 124.512C193.456 129.926 193.552 135.34 193.652 140.918C193.459 140.918 193.265 140.918 193.066 140.918C192.666 140.455 192.285 139.976 191.912 139.49C190.298 137.467 188.492 135.622 186.328 134.18C186.246 133.456 186.219 132.806 186.232 132.082C186.232 131.875 186.233 131.669 186.233 131.456C186.235 131.019 186.239 130.583 186.245 130.146C186.254 129.475 186.257 128.805 186.259 128.134C186.262 127.711 186.265 127.287 186.268 126.863C186.269 126.662 186.271 126.46 186.272 126.252C186.293 124.839 186.293 124.839 186.621 124.512Z" fill="black"/>
<path d="M166.727 124.477C166.997 124.477 167.267 124.478 167.545 124.479C167.85 124.479 168.155 124.479 168.469 124.479C168.801 124.48 169.133 124.482 169.474 124.483C169.812 124.484 170.15 124.484 170.498 124.484C171.581 124.486 172.665 124.49 173.749 124.493C174.481 124.495 175.214 124.496 175.947 124.497C177.747 124.501 179.547 124.506 181.348 124.512C181.635 125.374 181.675 125.925 181.669 126.822C181.668 127.097 181.667 127.372 181.666 127.655C181.663 128.084 181.663 128.084 181.659 128.522C181.658 128.811 181.656 129.101 181.655 129.399C181.651 130.114 181.647 130.828 181.641 131.543C181.458 131.488 181.275 131.433 181.087 131.377C180.563 131.219 180.039 131.062 179.515 130.906C179.035 130.761 178.554 130.616 178.075 130.468C173.859 129.184 169.613 128.715 165.234 128.32C165.324 127.74 165.416 127.161 165.509 126.581C165.56 126.258 165.611 125.935 165.664 125.602C165.875 124.525 165.875 124.525 166.727 124.477Z" fill="black"/>
<path d="M194.238 89.3555C194.586 90.3997 194.453 90.9346 194.257 92.0105C193.786 94.9413 193.818 96.9642 194.889 99.765C195.117 100.488 195.117 100.488 194.824 101.074C194.213 100.562 193.603 100.049 192.993 99.5361C192.821 99.3922 192.649 99.2484 192.472 99.1001C191.556 98.3276 190.676 97.5448 189.844 96.6797C190.299 95.8423 190.758 95.0066 191.217 94.1711C191.408 93.8196 191.408 93.8196 191.603 93.461C192.399 92.0172 193.253 90.6777 194.238 89.3555Z" fill="black"/>
<path d="M185.742 75.8789C186.709 76.1689 187.676 76.459 188.672 76.7578C188.379 77.9283 187.978 78.7075 187.372 79.7424C187.191 80.0548 187.01 80.3671 186.824 80.6889C186.328 81.4453 186.328 81.4453 185.742 81.7383C185.742 79.8047 185.742 77.8711 185.742 75.8789Z" fill="black"/>
</svg>
