<svg width="300" height="300" viewBox="0 0 300 300" fill="none" xmlns="http://www.w3.org/2000/svg">
<path d="M123.248 66.1457C128.459 68.8964 133.253 73.8805 137.013 78.3543C137.404 78.8254 137.404 78.8254 137.894 79.2721C138.282 79.6875 138.282 79.6875 138.282 80.2734C138.551 80.1956 138.821 80.1178 139.099 80.0377C145.657 78.208 153.466 77.3609 160.024 79.7356C160.945 80.0119 161.405 80.0094 162.305 79.6875C162.797 79.2854 162.797 79.2854 163.202 78.7354C164.687 76.9343 166.276 75.2371 167.872 73.5352C168.203 73.18 168.203 73.18 168.54 72.8176C175.09 66.0115 175.09 66.0115 178.649 65.8756C179.115 65.8966 179.115 65.8966 179.59 65.918C182.912 71.9425 185.011 79.2367 185.157 86.1328C185.531 86.1509 185.906 86.1691 186.292 86.1877C192.004 86.7903 197.732 89.2265 202.149 92.8711C202.457 93.1028 202.457 93.1028 202.77 93.3392C205.917 95.8353 207.693 99.531 209.066 103.213C211.564 109.89 215.663 114.38 221.609 118.254C225.321 120.681 225.321 120.681 225.879 122.168C226.284 125.328 224.026 128.835 222.217 131.268C220.985 132.744 219.567 133.994 217.969 135.059C217.679 134.962 217.389 134.865 217.09 134.766C217.767 133.315 218.444 131.865 219.141 130.371C218.754 130.661 218.368 130.951 217.969 131.25C212.694 134.473 212.694 134.473 210.352 134.473C210.252 134.763 210.252 134.763 210.151 135.059C209.653 136.197 209.064 137.296 208.301 138.281C208.108 138.281 207.915 138.281 207.715 138.281C207.566 137.824 207.421 137.366 207.276 136.908C207.154 136.526 207.154 136.526 207.029 136.135C206.837 135.353 206.802 134.688 206.837 133.887C206.582 133.821 206.327 133.755 206.064 133.688C204.943 133.247 204.221 132.626 203.376 131.799C203.068 131.509 202.76 131.219 202.452 130.928C202.156 130.645 201.859 130.362 201.563 130.078C199.371 127.872 199.371 127.872 196.461 127.143C195.281 127.207 194.394 127.367 193.323 127.881C192.634 128.8 192.492 129.38 192.559 130.52C193.017 132.074 194.263 133.096 195.411 134.18C195.633 134.397 195.855 134.614 196.084 134.838C199.078 137.656 202.886 141.051 207.075 141.669C208.49 141.419 209.4 140.848 210.234 139.673C210.693 138.773 210.85 138.016 210.993 137.018C211.039 136.705 211.086 136.392 211.134 136.069C211.182 135.714 211.182 135.714 211.231 135.352C212.295 135.352 213.358 135.352 214.454 135.352C214.393 138.885 212.531 141.955 210.114 144.432C209.092 145.369 208.261 146.119 206.812 146.244C204.159 146.105 201.977 144.549 199.852 143.091C197.495 141.544 195.046 140.546 192.188 140.918C190.757 141.607 190.032 142.473 189.258 143.848C188.462 146.3 188.803 148.907 189.881 151.194C190.137 151.758 190.137 151.758 190.137 152.344C186.864 153.534 183.413 153.02 180.245 151.718C177.221 150.283 175.493 148.395 174.249 145.292C171.633 137.754 173.881 130.439 176.397 123.22C178.101 118.321 178.89 113.628 178.195 108.449C177.777 104.632 177.914 100.866 179.297 97.2656C179.379 97.0525 179.461 96.8394 179.545 96.6199C179.899 95.6986 180.254 94.778 180.627 93.8642C183.709 86.2597 181.706 77.3388 179.302 69.7838C179.079 69.0825 178.877 68.392 178.712 67.6758C174.562 69.7178 172.347 72.9929 170.801 77.3083C169.981 79.8685 169.289 82.9609 170.124 85.5972C170.611 86.5146 171.284 87.2253 172.017 87.9467C172.174 88.1018 172.33 88.2568 172.492 88.4166C172.67 88.5913 172.67 88.5913 172.852 88.7695C172.844 88.5012 172.837 88.2329 172.829 87.9564C172.536 76.1557 172.536 76.1557 176.075 71.7773C176.828 72.0671 177.182 72.2531 177.597 72.9584C180.347 80.2612 179.336 87.6142 177.035 94.867C175.796 98.8241 175.409 102.523 175.478 106.637C175.585 113.432 174.84 119.297 172.435 125.688C170.448 130.989 169.58 136.388 168.998 141.987C168.39 147.78 167.073 152.93 162.598 157.031C161.663 157.715 160.702 158.268 159.669 158.789C159.462 158.9 159.255 159.01 159.041 159.124C154.38 161.429 148.395 161.555 143.465 160.057C139.012 158.455 135.883 155.911 133.703 151.719C131.863 147.597 131.471 143.069 130.933 138.629C130.276 133.269 129.067 128.417 127.022 123.408C125.473 119.588 124.768 115.976 124.764 111.864C124.759 111.215 124.753 110.566 124.747 109.917C124.738 108.907 124.732 107.897 124.732 106.886C124.728 102.819 124.503 99.1255 123.245 95.24C122.961 94.3622 122.702 93.4775 122.44 92.5931C122.319 92.1893 122.196 91.7862 122.072 91.3836C121.196 88.5528 120.89 85.7752 120.905 82.8186C120.906 82.4978 120.908 82.177 120.909 81.8464C120.956 78.4441 121.465 75.4142 123.047 72.3633C123.144 72.1699 123.241 71.9766 123.34 71.7773C123.63 71.7773 123.921 71.7773 124.219 71.7773C126.544 74.5797 127.486 78.4462 127.471 82.0107C127.47 82.3883 127.469 82.766 127.468 83.1551C127.465 83.5495 127.463 83.9439 127.46 84.3384C127.459 84.7397 127.458 85.141 127.456 85.5423C127.453 86.5204 127.448 87.4985 127.442 88.4766C127.721 88.2503 128 88.0241 128.288 87.7911C128.445 87.6638 128.602 87.5366 128.763 87.4055C129.671 86.587 130.2 85.5757 130.372 84.375C130.53 79.3285 128.822 74.2695 125.556 70.4041C124.373 69.182 123.113 68.3927 121.583 67.6758C118.439 78.0669 116.34 87.186 120.757 97.533C121.774 99.9373 122.269 102.143 122.223 104.755C122.223 105.064 122.223 105.064 122.223 105.379C122.213 106.591 122.107 107.758 121.944 108.961C121.339 114.346 122.451 119.138 124.265 124.158C126.858 131.385 128.872 139.406 125.59 146.766C123.879 149.88 121.301 151.459 117.995 152.563C115.46 153.233 112.622 153.261 110.157 152.344C110.241 152.144 110.326 151.945 110.413 151.74C111.425 149.097 111.925 146.294 110.889 143.555C110.177 142.202 109.247 141.436 107.813 140.918C105.025 140.35 102.508 141.626 100.219 143.112C99.6361 143.499 99.0585 143.891 98.4859 144.293C96.4493 145.72 94.7939 146.191 92.2857 145.898C91.3336 145.441 91.3336 145.441 90.5279 144.727C90.286 144.523 90.286 144.523 90.0393 144.316C87.8391 142.329 86.1633 139.433 85.5475 136.523C85.5475 136.137 85.5475 135.75 85.5475 135.352C86.6109 135.352 87.6744 135.352 88.7701 135.352C88.82 135.585 88.8698 135.818 88.9212 136.059C89.5834 138.972 89.5834 138.972 91.4984 141.174C92.8279 141.731 93.7697 141.721 95.1262 141.202C98.2898 139.715 100.959 137.568 103.494 135.186C104.004 134.766 104.004 134.766 104.59 134.766C104.59 134.572 104.59 134.379 104.59 134.18C105.008 133.789 105.008 133.789 105.561 133.356C106.804 132.314 107.445 131.568 107.648 129.913C107.6 128.908 107.6 128.908 107.044 128.229C105.624 127.22 104.342 127 102.646 127.248C100.55 127.833 99.1774 129.297 97.8419 130.928C96.6252 132.227 95.0525 133.382 93.4576 134.18C93.2881 134.803 93.1457 135.433 93.0182 136.066C92.6428 137.924 92.6428 137.924 91.9928 138.574C91.8228 138.314 91.8228 138.314 91.6495 138.049C91.4206 137.702 91.4206 137.702 91.1871 137.347C91.0376 137.12 90.888 136.892 90.7339 136.657C90.5693 136.42 90.4046 136.182 90.235 135.937C90.0616 135.681 89.8883 135.425 89.7097 135.16C88.9052 134.305 88.2605 134.11 87.1405 133.777C85.111 133.11 83.4792 132.18 81.7389 130.957C81.3038 130.667 81.3038 130.667 80.86 130.371C81.0503 130.768 81.0503 130.768 81.2445 131.173C81.4076 131.519 81.5708 131.864 81.7389 132.22C81.9836 132.735 81.9836 132.735 82.2333 133.261C82.6178 134.18 82.6178 134.18 82.6178 135.059C79.3576 133.941 76.9455 130.684 75.4194 127.719C74.6795 126.056 73.9475 124.314 74.1217 122.461C75.1221 120.187 77.5814 118.872 79.5965 117.572C82.7736 115.474 85.7301 113.024 87.8912 109.863C88.0608 109.617 88.2304 109.37 88.4051 109.116C89.5841 107.251 90.355 105.336 91.1139 103.271C93.4952 96.8063 97.5985 91.996 103.933 89.0516C107.368 87.5786 111.354 86.0466 115.137 86.1328C115.141 85.9149 115.146 85.697 115.15 85.4725C115.407 79.5967 116.782 71.0303 120.411 66.2109C121.471 65.4975 122.078 65.6482 123.248 66.1457ZM133.594 94.043C133.011 94.9816 132.487 95.9247 132.13 96.9727C132.226 97.2627 132.323 97.5527 132.422 97.8516C132.558 97.7383 132.693 97.625 132.832 97.5082C134.966 95.8044 137.137 94.6971 139.921 94.8029C141.087 94.9998 141.956 95.4932 142.969 96.0938C143.055 94.6294 143.029 93.7352 142.09 92.5781C140.882 91.514 139.938 91.2165 138.37 91.293C136.581 91.5937 134.771 92.6681 133.594 94.043ZM157.911 92.5781C157.261 93.8751 156.859 94.9734 157.325 96.3867C157.548 96.1994 157.772 96.0121 158.002 95.8191C159.432 94.7221 160.862 94.7448 162.598 94.9219C164.504 95.4422 166.034 96.3493 167.579 97.5586C167.968 96.7088 167.968 96.7088 167.598 96.0148C166.383 93.9607 165.121 92.754 163.056 91.5894C161.103 91.1129 159.417 91.1076 157.911 92.5781ZM149.708 91.9922C147.273 96.182 145.319 100.415 143.585 104.936C143.129 106.104 142.635 107.253 142.127 108.398C142.045 108.585 141.962 108.772 141.878 108.965C141.54 109.727 141.195 110.484 140.836 111.237C139.754 113.525 139.515 115.123 140.366 117.543C140.587 118.121 140.587 118.121 141.212 118.359C141.258 118.123 141.304 117.886 141.352 117.642C142.061 114.396 142.061 114.396 143.555 113.379C145.746 112.246 147.706 112.025 150.147 112.061C150.459 112.056 150.77 112.051 151.091 112.047C153.458 112.058 155.719 112.385 157.471 114.093C158.299 115.507 158.598 116.728 158.79 118.359C159.932 117.291 160.299 116.537 160.356 114.98C160.336 113.2 159.708 111.888 158.918 110.321C157.924 108.255 157.018 106.205 156.263 104.041C154.752 99.7798 152.54 95.902 150.294 91.9922C150.1 91.9922 149.907 91.9922 149.708 91.9922ZM135.077 98.8403C134.701 99.3212 134.701 99.3212 134.766 100.031C135.242 101.25 136.118 101.734 137.238 102.338C138.204 102.597 138.787 102.526 139.747 102.246C140.83 101.62 141.149 101.265 141.541 100.067C141.592 99.0001 141.592 99.0001 140.955 98.1628C138.918 96.8185 136.96 97.5047 135.077 98.8403ZM158.79 98.7305C158.545 99.7433 158.545 99.7433 158.79 100.781C159.488 101.725 159.988 102.153 161.097 102.539C162.687 102.539 163.727 101.933 164.942 100.946C165.6 100.277 165.6 100.277 165.482 99.6128C165.01 98.4862 163.976 98.0199 162.891 97.5586C161.245 97.2393 159.887 97.3498 158.79 98.7305ZM96.0394 102.887C94.4908 104.825 94.1878 106.85 94.0436 109.277C94.2369 109.277 94.4303 109.277 94.6295 109.277C95.0547 108.791 95.4605 108.287 95.8563 107.776C97.2803 106 98.5721 104.437 100.782 103.711C102.723 103.514 104.491 103.736 106.348 104.297C105.229 102.594 103.559 101.707 101.661 101.074C99.3228 100.865 97.6915 101.118 96.0394 102.887ZM193.946 103.711C194.043 103.904 194.139 104.098 194.239 104.297C194.456 104.2 194.674 104.104 194.898 104.004C197.022 103.438 199.055 103.318 201.032 104.388C202.473 105.358 203.481 106.612 204.519 107.991C205.064 108.746 205.064 108.746 205.958 109.277C205.857 106.923 205.548 104.61 203.935 102.789C202.442 101.426 201.356 100.961 199.302 100.992C197.186 101.253 195.467 102.27 193.946 103.711ZM100.782 106.055C100.975 106.151 101.169 106.248 101.368 106.348C101.368 106.734 101.368 107.121 101.368 107.52C101.078 107.52 100.788 107.52 100.489 107.52C100.489 107.133 100.489 106.746 100.489 106.348C99.1943 106.743 98.6304 107.303 97.8522 108.398C99.0252 109.635 99.7481 110.192 101.459 110.248C102.812 110.23 103.558 109.894 104.59 108.984C105.2 108.294 105.2 108.294 105.469 107.52C105.328 106.845 105.328 106.845 104.883 106.348C103.961 106.04 103.305 106.025 102.338 106.036C102.047 106.039 101.756 106.042 101.456 106.044C101.233 106.048 101.011 106.051 100.782 106.055ZM194.532 106.934C194.951 108.146 195.232 108.818 196.18 109.698C197.439 110.281 198.44 110.37 199.805 110.156C200.675 109.749 201.181 109.366 201.856 108.691C201.875 107.956 201.875 107.956 201.563 107.227C200.878 106.654 200.878 106.654 200.098 106.348C199.808 106.493 199.808 106.493 199.512 106.641C199.512 106.931 199.512 107.221 199.512 107.52C199.222 107.616 198.932 107.713 198.633 107.812C198.73 107.232 198.827 106.652 198.926 106.055C196.58 105.897 196.58 105.897 194.532 106.934ZM116.309 108.398C114.792 110.349 113.799 112.253 113.873 114.791C114.165 116.807 115.002 118.544 116.602 119.824C116.989 120.026 117.379 120.223 117.774 120.41C117.717 120.236 117.661 120.062 117.602 119.883C117.352 119.085 117.12 118.285 116.895 117.48C116.829 117.247 116.764 117.014 116.696 116.774C116.058 114.016 116.399 111.195 116.602 108.398C116.505 108.398 116.409 108.398 116.309 108.398ZM183.399 108.398C183.445 108.627 183.492 108.856 183.54 109.092C184.023 112.47 184.096 116.042 182.748 119.214C182.673 119.416 182.598 119.617 182.52 119.824C182.617 120.018 182.713 120.211 182.813 120.41C184.978 118.743 184.978 118.743 186.036 116.309C186.316 113.695 186.184 111.438 184.571 109.277C183.965 108.767 183.965 108.767 183.399 108.398ZM144.086 115.906C143.911 116.135 143.736 116.365 143.555 116.602C143.852 117.889 143.852 117.889 144.764 118.762C144.945 118.823 145.126 118.883 145.313 118.945C145.41 118.849 145.506 118.752 145.606 118.652C146.278 118.533 146.278 118.533 147.071 118.652C147.727 119.357 147.727 119.357 148.334 120.264C148.641 120.712 148.641 120.712 148.953 121.17C149.182 121.519 149.182 121.519 149.415 121.875C150.12 121.83 150.12 121.83 150.879 121.582C151.37 120.989 151.37 120.989 151.74 120.264C152.53 118.982 152.53 118.982 153.553 118.634C153.831 118.64 154.109 118.646 154.395 118.652C155.545 118.785 155.545 118.785 156.098 118.158C156.506 117.496 156.506 117.496 156.428 116.73C156.091 115.855 155.762 115.637 154.981 115.137C152.121 114.152 146.416 113.602 144.086 115.906ZM215.04 122.461C214.677 122.767 214.677 122.767 214.637 123.431C214.673 124.286 214.673 124.286 215.442 124.878C216.686 125.707 217.659 125.877 219.141 125.684C220.057 125.36 220.916 124.958 221.778 124.512C221.543 123.874 221.543 123.874 220.923 123.725C220.683 123.666 220.443 123.608 220.195 123.548C219.804 123.452 219.804 123.452 219.405 123.354C219.131 123.289 218.856 123.224 218.574 123.157C218.3 123.09 218.027 123.022 217.746 122.953C216.407 122.597 216.407 122.597 215.04 122.461ZM80.8783 123.34C80.65 123.396 80.4217 123.452 80.1865 123.509C79.6292 123.646 79.0726 123.786 78.5162 123.926C78.7279 124.892 78.7279 124.892 79.7064 125.299C81.0955 125.833 82.3746 125.966 83.7977 125.481C84.4453 125.188 84.4453 125.188 85.2545 124.512C85.5626 123.596 85.5626 123.596 85.5475 122.754C83.8962 122.684 82.4755 122.935 80.8783 123.34ZM133.301 111.914C130.813 114.46 130.565 117.277 130.552 120.64C130.624 124.984 131.903 130.02 134.76 133.401C135.93 134.505 136.984 135.107 138.575 135.352C139.258 135.274 139.258 135.274 139.747 135.059C139.605 135.359 139.605 135.359 139.461 135.666C138.793 137.576 138.779 140.08 139.619 141.943C140.708 143.723 142.198 144.808 144.17 145.431C145.829 145.772 147.518 145.723 149.205 145.704C149.853 145.697 150.5 145.698 151.148 145.7C155.383 145.72 155.383 145.72 159.083 143.848C160.812 142.04 161.215 140.553 161.188 138.08C161.186 137.698 161.185 137.316 161.183 136.923C161.178 135.939 161.178 135.939 160.84 135.059C161.004 135.061 161.167 135.064 161.335 135.067C163.065 134.999 163.985 134.538 165.258 133.382C166.687 131.689 167.557 129.891 168.22 127.789C168.294 127.558 168.368 127.326 168.445 127.088C169.76 122.901 170.234 118.778 168.751 114.551C168.003 113.132 167.11 112.249 165.821 111.328C165.055 111.136 165.055 111.136 164.356 111.035C164.458 111.332 164.561 111.629 164.666 111.935C164.801 112.331 164.936 112.727 165.07 113.123C165.138 113.317 165.205 113.512 165.274 113.713C166.904 118.53 166.534 124.143 164.429 128.741C163.639 130.24 162.795 131.143 161.426 132.129C161.42 131.909 161.414 131.689 161.407 131.463C161.196 130.574 161.196 130.574 160.246 130.103C159.867 129.93 159.485 129.763 159.101 129.602C158.902 129.514 158.703 129.427 158.498 129.336C153.271 127.081 148.076 126.792 142.719 128.849C142.233 129.048 141.749 129.251 141.266 129.456C141.033 129.551 140.8 129.647 140.56 129.746C139.954 130.018 139.407 130.275 138.868 130.664C138.533 131.431 138.533 131.431 138.575 132.129C135.808 130.033 134.616 126.853 134.014 123.505C133.489 119.187 133.952 114.939 135.938 111.035C134.81 111.035 134.268 111.334 133.301 111.914Z" fill="black"/>
<path d="M128.32 150C129.199 150.293 129.199 150.293 129.725 151.254C129.918 151.665 130.109 152.077 130.298 152.49C131.209 154.39 132.168 156.047 133.593 157.617C133.77 157.817 133.947 158.018 134.129 158.224C137.695 162.036 142.898 164.227 148.079 164.439C155.141 164.602 161.353 162.959 166.619 158.017C168.842 155.705 170.228 152.827 171.679 150C172.015 150.25 172.351 150.5 172.686 150.751C172.902 150.911 173.119 151.072 173.341 151.237C173.779 151.571 174.21 151.915 174.632 152.269C178.777 155.716 183.693 156.774 188.965 156.445C189.832 156.326 190.678 156.179 191.533 155.988C192.187 155.859 192.187 155.859 193.359 155.859C193.813 156.3 193.813 156.3 194.247 156.925C194.41 157.157 194.574 157.39 194.742 157.629C194.914 157.885 195.086 158.141 195.263 158.405C195.444 158.669 195.624 158.934 195.81 159.207C203.565 170.74 208.595 185.347 206.176 199.408C204.901 205.115 202.455 210.36 197.503 213.779C193.686 216.094 190.157 216.961 185.705 216.925C185.326 216.924 184.947 216.922 184.556 216.921C179.892 216.868 175.336 216.082 170.8 215.039C170.8 214.749 170.8 214.459 170.8 214.16C171.52 213.611 171.52 213.611 172.503 212.988C177.94 209.385 181.805 203.76 183.249 197.397C183.632 195.299 183.745 193.291 183.746 191.162C183.75 190.873 183.753 190.584 183.757 190.285C183.762 187.85 183.47 185.51 183.105 183.105C183.043 183.381 182.982 183.657 182.918 183.941C180.772 193.47 178.445 202.305 171.386 209.473C171.074 209.796 171.074 209.796 170.755 210.126C168.831 211.983 166.604 213.399 164.391 214.885C162.426 216.207 160.552 217.554 158.789 219.141C158.6 219.309 158.41 219.478 158.215 219.652C154.675 222.992 152.48 227.568 151.174 232.189C150.925 233.044 150.641 233.849 150.293 234.668C150.099 234.668 149.906 234.668 149.707 234.668C149.628 234.342 149.55 234.015 149.469 233.679C147.169 224.559 141.904 218.942 134.176 213.88C123.341 206.71 119.537 196.013 117.018 183.72C116.977 183.517 116.936 183.314 116.894 183.105C115.358 190.94 115.97 199.08 120.465 205.847C122.672 208.88 125.098 211.371 128.129 213.586C128.906 214.16 128.906 214.16 129.492 214.746C122.159 216.935 112.679 218.615 105.468 215.332C105.236 215.238 105.003 215.143 104.764 215.046C100.398 213.115 97.3081 209.088 95.5075 204.785C91.9787 195.151 93.3766 183.528 96.6794 174.023C96.7969 173.679 96.9143 173.335 97.0353 172.981C99.3673 166.566 103.125 160.963 107.226 155.566C107.552 155.63 107.877 155.693 108.213 155.759C113.777 156.815 119.269 156.69 124.21 153.548C125.719 152.484 127.068 151.354 128.32 150Z" fill="black"/>
<path d="M141.796 132.129C142.382 132.422 142.382 132.422 142.644 133.104C142.823 133.671 143 134.239 143.175 134.807C143.648 135.853 144.126 136.384 145.019 137.109C145.838 137.253 146.474 137.309 147.29 137.294C147.505 137.294 147.721 137.295 147.943 137.296C148.397 137.295 148.851 137.292 149.305 137.284C149.998 137.274 150.689 137.278 151.382 137.284C151.825 137.282 152.267 137.279 152.71 137.275C152.915 137.277 153.121 137.278 153.333 137.28C154.738 137.246 155.459 136.934 156.445 135.938C156.841 135.223 156.841 135.223 157.086 134.454C157.402 133.561 157.671 132.927 158.203 132.129C158.566 133.422 158.561 134.657 158.569 135.992C158.575 136.231 158.581 136.469 158.587 136.714C158.6 138.715 158.351 140.685 156.976 142.218C154.867 143.39 152.662 143.352 150.311 143.335C150.008 143.337 149.705 143.339 149.394 143.342C144.867 143.33 144.867 143.33 143.133 141.998C141.921 140.727 141.722 139.665 141.739 137.937C141.741 137.598 141.743 137.259 141.745 136.91C141.75 136.559 141.755 136.208 141.76 135.846C141.762 135.489 141.765 135.133 141.768 134.765C141.775 133.886 141.784 133.008 141.796 132.129Z" fill="black"/>
<path d="M154.74 130.057C155.273 130.371 155.273 130.371 155.859 130.957C155.795 132.563 155.325 134.036 154.395 135.351C154.104 135.448 153.814 135.545 153.516 135.644C153.389 135.505 153.262 135.366 153.131 135.223C152.021 134.195 150.555 134.379 149.13 134.384C147.88 134.508 147.197 134.913 146.191 135.644C145.058 134.072 144.538 132.901 144.434 130.957C144.805 130.718 145.178 130.48 145.551 130.243C145.758 130.11 145.965 129.978 146.179 129.841C148.584 128.438 152.319 128.949 154.74 130.057Z" fill="black"/>
<path d="M102.942 128.247C104.004 128.32 104.004 128.32 104.59 128.632C105.08 129.581 104.845 130.231 104.59 131.25C104.052 132.056 103.403 132.725 102.722 133.411C102.537 133.602 102.352 133.793 102.162 133.991C99.9811 136.215 97.5731 138.586 94.6289 139.746C94.2422 139.746 93.8555 139.746 93.457 139.746C94.0292 136.656 94.0292 136.656 94.9219 135.645C95.4961 135.444 96.0706 135.243 96.6476 135.051C98.8022 134.057 100.027 131.351 101.191 129.393C101.831 128.329 101.831 128.329 102.942 128.247Z" fill="black"/>
<path d="M197.732 128.177C198.889 128.737 199.276 129.483 199.824 130.59C201.275 133.438 201.275 133.438 203.907 135.113C205.529 135.849 205.985 136.834 206.619 138.449C206.837 139.16 206.837 139.16 206.837 139.746C202.864 139.657 200.013 136.001 197.445 133.382C195.131 130.94 195.131 130.94 195.1 129.583C195.662 128.359 196.405 127.945 197.732 128.177Z" fill="black"/>
<path d="M100.488 103.711C100.295 104.194 100.102 104.678 99.9023 105.176C99.5156 105.176 99.1289 105.176 98.7305 105.176C98.7305 105.369 98.7305 105.562 98.7305 105.762C99.0205 105.858 99.3105 105.955 99.6094 106.055C99.0808 107.011 98.7791 107.487 97.8516 108.105C97.6582 108.009 97.4648 107.912 97.2656 107.812C97.1689 108.103 97.0723 108.393 96.9727 108.691C96.876 108.498 96.7793 108.305 96.6797 108.105C96.1963 108.202 95.7129 108.299 95.2148 108.398C98.4291 103.711 98.4291 103.711 100.488 103.711Z" fill="black"/>
<path d="M123.926 66.504C123.732 66.6974 123.539 66.8907 123.34 67.09C123.05 67.09 122.76 67.09 122.461 67.09C122.461 67.2833 122.461 67.4767 122.461 67.6759C122.171 67.6759 121.881 67.6759 121.582 67.6759C121.389 68.0626 121.195 68.4493 120.996 68.8478C120.996 68.6544 120.996 68.4611 120.996 68.2618C120.513 68.3585 120.029 68.4552 119.531 68.5548C119.763 67.4402 119.924 66.6972 120.74 65.8815C121.976 65.5052 122.797 65.9581 123.926 66.504Z" fill="black"/>
<path d="M195.996 103.418C196.557 103.394 197.119 103.377 197.681 103.363C198.15 103.348 198.15 103.348 198.628 103.332C199.6 103.426 199.978 103.644 200.684 104.297C200.49 104.297 200.297 104.297 200.098 104.297C200.098 104.49 200.098 104.683 200.098 104.883C199.614 104.786 199.131 104.689 198.633 104.59C198.729 104.396 198.826 104.203 198.926 104.004C197.959 103.907 196.992 103.81 195.996 103.711C195.996 103.614 195.996 103.517 195.996 103.418Z" fill="black"/>
<path d="M137.695 98.1445C138.275 98.2896 138.275 98.2896 138.867 98.4375C138.771 98.8242 138.674 99.2109 138.574 99.6094C138.187 99.6094 137.801 99.6094 137.402 99.6094C137.499 99.126 137.596 98.6426 137.695 98.1445Z" fill="black"/>
<path d="M100.195 106.055C100.582 106.151 100.969 106.248 101.367 106.348C101.464 106.734 101.561 107.121 101.66 107.52C101.273 107.616 100.887 107.713 100.488 107.812C100.195 106.384 100.195 106.384 100.195 106.055Z" fill="black"/>
<path d="M162.012 98.1445C162.592 98.2896 162.592 98.2896 163.184 98.4375C163.087 98.8242 162.99 99.2109 162.891 99.6094C162.504 99.6094 162.117 99.6094 161.719 99.6094C161.815 99.126 161.912 98.6426 162.012 98.1445Z" fill="black"/>
</svg>
