<svg width="300" height="300" viewBox="0 0 300 300" fill="none" xmlns="http://www.w3.org/2000/svg">
<path d="M98.4373 103.74C92.2263 104.443 85.781 107.49 81.0056 111.972C67.8513 124.247 67.5583 145.605 80.3611 158.32C84.0818 162.011 87.8611 164.267 93.0173 165.907C104.648 169.57 117.158 165.82 125.449 156.181L126.797 154.599L130.927 156.269C133.213 157.177 135.117 157.909 135.176 157.909C135.263 157.909 135.586 157.06 135.937 156.005C136.289 154.95 136.67 154.042 136.816 153.954C137.051 153.808 141.679 155.624 155.566 161.279C173.554 168.603 184.043 172.88 184.219 172.997C184.248 173.027 183.486 175.312 182.519 178.095C181.552 180.878 180.761 183.251 180.761 183.368C180.761 183.603 187.412 186.327 187.939 186.327C188.115 186.327 189.023 184.072 189.961 181.318C190.986 178.329 191.806 176.396 192.011 176.454C196.406 178.212 197.754 178.827 197.754 179.12C197.754 179.296 197.051 181.581 196.172 184.189L194.619 188.935L198.603 190.546C201.357 191.63 202.646 192.04 202.763 191.806C202.881 191.601 203.642 189.433 204.492 186.972C205.342 184.54 206.191 182.519 206.367 182.519C206.777 182.519 211.289 184.277 211.611 184.57C211.758 184.687 211.113 186.943 210.234 189.579C209.326 192.187 208.681 194.443 208.799 194.531C208.945 194.648 210.615 195.351 212.549 196.142C214.482 196.904 216.211 197.577 216.357 197.636C216.533 197.724 217.353 195.644 218.261 192.919C219.111 190.253 219.931 188.085 220.049 188.085C220.166 188.085 221.631 188.613 223.271 189.257C224.941 189.902 226.377 190.341 226.494 190.224C226.582 190.077 227.373 187.909 228.222 185.361C229.511 181.493 229.717 180.673 229.365 180.439C229.131 180.292 226.406 179.179 223.301 177.919C217.734 175.722 217.617 175.663 217.793 174.902C217.851 174.462 219.14 170.8 220.576 166.757C222.041 162.685 223.242 159.198 223.242 158.993C223.213 158.525 213.896 154.804 213.603 155.156C213.457 155.302 212.08 158.964 210.527 163.3C208.974 167.665 207.656 171.269 207.568 171.327C207.48 171.415 199.277 168.281 198.984 168.017C198.867 167.929 199.775 165.204 201.709 159.814C202.617 157.236 203.672 154.247 204.052 153.193L204.726 151.259L199.98 149.325C197.373 148.241 195.088 147.363 194.941 147.363C194.795 147.363 193.447 150.907 191.924 155.214C190.429 159.521 189.082 163.124 188.994 163.271C188.877 163.388 185.566 162.187 181.611 160.605C153.867 149.413 140.742 144.052 140.537 143.847C140.39 143.73 140.566 142.675 140.918 141.503C141.269 140.361 141.504 139.365 141.445 139.335C141.386 139.306 140.185 138.837 138.72 138.31C137.285 137.753 135.41 137.021 134.619 136.669L133.154 136.025L132.802 132.538C132.334 127.822 131.543 125.009 129.492 120.849C126.386 114.462 121.845 109.863 115.576 106.786C109.834 103.945 104.677 103.036 98.4373 103.74ZM107.812 115.136C113.203 116.659 117.744 120.556 120.263 125.829C121.582 128.583 122.461 131.952 122.461 134.384V135.79L120.644 136.669C118.447 137.724 117.129 139.335 116.426 141.738C115.84 143.7 116.162 145.693 117.363 147.421L118.125 148.505L117.51 149.384C116.601 150.644 114.287 152.636 112.383 153.779C108.603 156.034 103.711 157.089 99.5798 156.503C94.5701 155.8 91.0837 154.042 87.4216 150.439C85.4587 148.505 84.8142 147.597 83.7009 145.312C81.7966 141.415 81.2986 139.423 81.3279 135.351C81.3279 131.454 81.8552 129.228 83.408 126.122C86.3962 120.146 91.406 116.132 97.7048 114.667C100.136 114.111 105 114.345 107.812 115.136Z" fill="black"/>
</svg>
