<svg width="300" height="300" viewBox="0 0 300 300" fill="none" xmlns="http://www.w3.org/2000/svg">
<path d="M150.6 112.968C152.373 113.696 154.043 114.527 155.713 115.466C158.54 117.032 161.388 118.554 164.246 120.062C165.106 120.516 165.966 120.971 166.826 121.425C167.038 121.537 167.25 121.649 167.468 121.764C169.53 122.855 171.585 123.957 173.639 125.061C176.09 126.378 178.548 127.68 181.018 128.961C183.221 130.105 185.412 131.269 187.592 132.458C187.859 132.604 188.126 132.75 188.401 132.9C189.644 133.581 190.882 134.268 192.113 134.969C201.614 140.377 211.98 143.122 222.544 145.667C224.821 146.216 227.088 146.793 229.348 147.407C229.605 147.476 229.863 147.546 230.128 147.617C236.364 149.33 242.449 151.683 246.973 156.445C247.166 156.63 247.359 156.815 247.559 157.005C249.343 158.817 250.301 161.203 251.367 163.476C251.464 163.67 251.561 163.863 251.66 164.062C251.796 166.1 251.517 167.298 250.159 168.896C239.984 177.744 220.385 178.946 207.417 180.34C206.307 180.46 205.2 180.598 204.093 180.735C184.354 183.024 164.322 180.475 144.914 176.801C135.572 175.034 126.251 173.775 116.788 172.827C116.258 172.773 116.258 172.773 115.718 172.719C115.05 172.652 114.383 172.587 113.715 172.522C113.417 172.492 113.12 172.463 112.813 172.432C112.553 172.407 112.294 172.382 112.026 172.356C111.383 172.273 110.781 172.145 110.156 171.973C110.525 170.929 110.921 170.212 111.681 169.409C111.869 169.209 112.057 169.008 112.251 168.802C112.454 168.591 112.657 168.381 112.866 168.164C113.077 167.943 113.289 167.723 113.506 167.495C123.08 157.57 134.993 149.658 149.092 148.979C149.326 148.968 149.56 148.956 149.801 148.944C150.99 148.887 152.178 148.839 153.368 148.801C153.815 148.783 154.262 148.765 154.709 148.747C154.913 148.743 155.116 148.739 155.326 148.735C156.899 148.663 157.812 148.237 159.082 147.363C159.95 145.98 160.083 144.874 159.837 143.302C159.579 142.348 159.107 141.685 158.496 140.918C158.339 140.682 158.182 140.446 158.02 140.204C156.546 138.613 154.613 137.534 152.783 136.395C149.007 133.993 146.092 131.399 144.91 126.93C144.144 122.945 145.288 119.153 147.363 115.722C149.511 112.65 149.511 112.65 150.6 112.968Z" fill="black"/>
<path d="M143.262 111.621C144.545 111.878 145.498 112.218 146.484 113.086C146.085 113.934 145.621 114.669 145.074 115.43C142.953 118.589 141.651 122.438 142.09 126.27C142.963 130.462 145.027 133.701 148.593 136.073C149.606 136.73 150.623 137.379 151.642 138.028C153.967 139.521 156.304 141.042 157.617 143.555C157.798 145.064 157.798 145.064 157.264 145.797C156.565 146.322 156.116 146.308 155.246 146.321C154.947 146.328 154.648 146.335 154.34 146.343C153.859 146.349 153.859 146.349 153.369 146.356C152.7 146.375 152.032 146.395 151.363 146.416C151.032 146.426 150.7 146.436 150.359 146.447C137.993 146.934 126.967 152.11 117.773 160.254C117.498 160.494 117.222 160.734 116.938 160.981C115.876 161.916 114.853 162.829 113.965 163.934C113.675 164.288 113.675 164.288 113.379 164.648C113.186 164.648 112.992 164.648 112.793 164.648C112.726 164.81 112.658 164.972 112.589 165.138C112.099 166.013 111.475 166.636 110.779 167.358C109.446 168.763 108.263 170.245 107.114 171.803C106.955 172.018 106.795 172.233 106.631 172.454C106.243 172.976 105.855 173.5 105.469 174.023C105.669 174.042 105.868 174.061 106.074 174.08C119.844 175.377 133.422 177.057 147.051 179.433C158.598 181.495 158.598 181.495 170.215 183.105C170.5 183.139 170.785 183.173 171.078 183.208C182.265 184.474 193.903 184.045 205.078 182.812C205.43 182.774 205.43 182.774 205.789 182.735C209.466 182.332 213.134 181.868 216.797 181.348C217.025 181.315 217.253 181.283 217.488 181.25C224.209 180.287 230.77 178.893 237.321 177.108C237.858 176.962 238.396 176.817 238.934 176.672C242.569 175.683 245.787 174.501 249.023 172.559C250.984 171.387 250.984 171.387 251.66 171.387C251.963 174.895 251.963 174.895 251.358 176.08C250.811 176.586 250.271 176.901 249.609 177.246C249.333 177.403 249.057 177.56 248.773 177.721C245.162 179.587 241.21 180.584 237.305 181.641C237.009 181.721 237.009 181.721 236.707 181.803C213.534 188.091 189.087 190.561 165.24 187.328C164.962 187.291 164.684 187.253 164.398 187.214C157.803 186.315 151.258 185.161 144.708 183.984C137.91 182.764 131.115 181.578 124.275 180.615C124.007 180.577 123.74 180.539 123.464 180.5C122.707 180.393 121.95 180.288 121.192 180.185C120.973 180.154 120.754 180.123 120.528 180.091C117.885 179.665 117.885 179.665 115.364 180.213C115.214 180.366 115.064 180.519 114.91 180.677C114.65 180.932 114.65 180.932 114.384 181.193C114.122 181.469 114.122 181.469 113.855 181.75C113.476 182.126 113.098 182.502 112.719 182.878C112.534 183.065 112.35 183.252 112.16 183.444C111.387 184.219 110.583 184.955 109.772 185.687C109.519 185.919 109.266 186.15 109.006 186.389C108.018 187.243 107.455 187.24 106.168 187.223C105.82 187.219 105.472 187.215 105.113 187.211C104.539 187.201 104.539 187.201 103.954 187.192C103.551 187.187 103.148 187.181 102.745 187.176C101.658 187.161 100.57 187.144 99.4825 187.127C98.8044 187.115 98.1264 187.105 97.4484 187.095C91.3674 187 85.2893 186.862 79.2114 186.639C78.9008 186.628 78.5902 186.617 78.2702 186.606C74.8481 186.483 71.4348 186.3 68.0202 186.041C67.5578 186.006 67.5578 186.006 67.0859 185.97C53.4065 184.882 53.4065 184.882 49.4568 181.146C48.4854 179.907 48.5941 178.699 48.6042 177.197C48.6048 176.848 48.6048 176.848 48.6054 176.491C48.6071 175.748 48.6107 175.005 48.6145 174.261C48.6159 173.757 48.6173 173.253 48.6185 172.749C48.6217 171.514 48.6268 170.278 48.6328 169.043C49.7181 169.244 50.5834 169.539 51.5808 170.013C63.6406 175.08 80.2289 173.562 93.0587 173.706C94.1191 173.718 95.1762 173.752 96.2356 173.799C96.7407 173.815 97.2458 173.831 97.7508 173.847C98.0963 173.869 98.0963 173.869 98.4488 173.891C99.1742 173.927 99.1742 173.927 100.195 173.73C100.952 172.892 100.952 172.892 101.367 171.973C100.116 171.672 98.8925 171.623 97.6128 171.602C97.3862 171.597 97.1595 171.592 96.926 171.587C96.4337 171.577 95.9414 171.567 95.449 171.558C94.6585 171.543 93.8679 171.527 93.0774 171.51C90.8291 171.461 88.5808 171.416 86.3325 171.372C80.6503 171.26 74.973 171.133 69.2985 170.805C69.0915 170.794 68.8845 170.782 68.6712 170.769C63.9401 170.494 59.2449 170.091 54.6386 168.933C54.4196 168.879 54.2006 168.825 53.9749 168.769C52.0391 168.237 50.2884 167.32 48.9258 165.82C48.6694 165.271 48.6694 165.271 48.6328 164.648C49.08 163.617 49.4166 163.235 50.4169 162.697C50.7902 162.554 51.1662 162.417 51.5442 162.286C51.7493 162.213 51.9544 162.14 52.1658 162.064C56.4988 160.586 61.079 160.02 65.625 159.668C65.9327 159.644 66.2404 159.619 66.5574 159.594C70.0523 159.345 73.5367 159.332 77.0393 159.336C77.6843 159.336 78.3294 159.336 78.9744 159.335C80.3213 159.335 81.6681 159.335 83.015 159.337C84.7182 159.338 86.4214 159.337 88.1246 159.336C95.1624 159.33 102.183 159.332 109.211 159.751C111.107 159.903 111.107 159.903 112.843 159.282C113.372 158.759 113.808 158.209 114.258 157.617C115.006 156.896 115.808 156.237 116.602 155.566C116.756 155.433 116.91 155.299 117.069 155.161C125.559 147.825 135.308 144.527 146.191 142.383C146.744 142.272 147.296 142.162 147.848 142.051C148.273 141.966 148.697 141.882 149.121 141.797C148.991 141.692 148.862 141.588 148.728 141.48C147.481 140.473 146.237 139.461 144.996 138.446C144.557 138.089 144.115 137.735 143.673 137.382C140.658 134.901 138.71 131.259 137.988 127.441C137.544 122.229 138.676 117.128 141.806 112.86C142.383 112.207 142.383 112.207 143.262 111.621Z" fill="black"/>
<path d="M113.086 167.871C113.183 168.064 113.279 168.258 113.379 168.457C113.137 168.717 112.896 168.977 112.646 169.244C112.072 169.926 111.922 170.141 111.823 171.057C111.853 171.263 111.883 171.468 111.914 171.68C112.784 171.825 112.784 171.825 113.672 171.973C113.672 172.069 113.672 172.166 113.672 172.266C111.161 172.307 111.161 172.307 110.156 171.973C110.558 170.782 111.1 170.017 111.951 169.098C112.163 168.866 112.375 168.635 112.594 168.396C112.756 168.223 112.919 168.05 113.086 167.871Z" fill="black"/>
</svg>
