<svg width="300" height="300" viewBox="0 0 300 300" fill="none" xmlns="http://www.w3.org/2000/svg">
<path d="M140.881 45.8676C141.23 46.0499 141.579 46.2321 141.928 46.4142C144.285 47.6474 146.626 48.9095 148.957 50.1907C151.247 51.4488 153.552 52.6792 155.859 53.906C158.382 55.2473 160.899 56.596 163.403 57.9709C166.364 59.5955 169.349 61.1721 172.335 62.7481C174.916 64.1102 177.49 65.4819 180.048 66.8882C182.271 68.1109 184.513 69.2936 186.768 70.4587C189.323 71.7794 191.858 73.13 194.38 74.5134C196.566 75.7125 198.76 76.8977 200.958 78.0759C201.218 78.2154 201.218 78.2154 201.483 78.3576C203.59 79.4872 205.704 80.6016 207.829 81.6982C211.827 83.764 215.719 85.8084 219.141 88.7693C219.377 88.9634 219.613 89.1575 219.857 89.3575C225.371 94.0417 228.969 100.665 229.98 107.812C230.334 112.373 229.865 116.818 229.055 121.3C228.808 122.668 228.576 124.038 228.342 125.408C228.214 126.158 228.085 126.907 227.956 127.657C227.167 132.231 226.452 136.817 225.733 141.402C225.549 142.578 225.364 143.753 225.179 144.928C224.955 146.349 224.732 147.771 224.508 149.193C224.048 152.121 223.586 155.047 223.121 157.974C222.855 159.652 222.589 161.33 222.323 163.008C222.143 164.146 221.963 165.284 221.782 166.422C221.613 167.478 221.446 168.534 221.28 169.59C221.189 170.16 221.098 170.729 221.007 171.299C220.954 171.638 220.9 171.978 220.846 172.328C220.776 172.769 220.776 172.769 220.704 173.218C220.61 173.985 220.587 174.717 220.605 175.488C221.227 175.843 221.85 176.197 222.473 176.55C222.776 176.722 222.776 176.722 223.085 176.896C224.46 177.67 225.845 178.422 227.238 179.162C227.576 179.341 227.913 179.521 228.261 179.706C228.935 180.063 229.609 180.419 230.284 180.772C234.616 183.074 234.616 183.074 235.635 185.362C236.31 187.578 235.917 189.463 234.896 191.488C233.635 193.181 231.903 194.273 230.09 195.3C229.876 195.424 229.661 195.548 229.44 195.676C228.742 196.078 228.043 196.476 227.344 196.875C226.876 197.143 226.408 197.412 225.94 197.68C224.928 198.26 223.916 198.838 222.902 199.415C221.678 200.112 220.455 200.812 219.233 201.512C215.309 203.76 211.374 205.989 207.425 208.194C205.712 209.151 204.003 210.117 202.295 211.084C199.646 212.583 196.992 214.072 194.335 215.558C192.31 216.691 190.288 217.831 188.269 218.976C185.488 220.551 182.697 222.106 179.901 223.653C178.318 224.53 176.739 225.412 175.17 226.315C167.348 230.814 159.889 234.934 150.64 232.606C148.576 232.021 146.728 231.106 144.853 230.077C144.032 229.628 143.206 229.187 142.379 228.747C140.423 227.701 138.473 226.644 136.523 225.586C136.245 225.434 135.966 225.283 135.678 225.127C132.19 223.237 128.718 221.319 125.251 219.389C122.62 217.925 119.983 216.47 117.345 215.017C114.875 213.656 112.412 212.283 109.955 210.901C107.195 209.349 104.415 207.839 101.623 206.344C98.9831 204.928 96.3635 203.476 93.747 202.016C91.2498 200.624 88.7395 199.259 86.2233 197.902C84.5548 197.001 82.8942 196.088 81.2439 195.154C79.8262 194.352 78.4071 193.554 76.9776 192.773C76.68 192.61 76.3824 192.447 76.0758 192.279C74.3212 191.417 72.1545 191.199 70.2736 191.802C69.0052 192.463 68.3385 193.29 67.6758 194.531C67.5139 195.46 67.5182 196.37 67.5305 197.312C67.53 197.577 67.5296 197.842 67.5292 198.115C67.5297 198.674 67.533 199.233 67.5391 199.792C67.5476 200.642 67.5452 201.492 67.5413 202.342C67.5432 202.887 67.5456 203.432 67.5488 203.977C67.5475 204.354 67.5475 204.354 67.5462 204.739C67.5811 207 68.0806 208.99 69.7266 210.644C70.389 211.074 71.027 211.45 71.7224 211.816C72.146 212.047 72.5694 212.277 72.9927 212.509C73.2215 212.632 73.4503 212.756 73.686 212.883C75.0059 213.604 76.3109 214.351 77.6184 215.094C82.7369 217.99 87.8702 220.86 93.0132 223.712C93.8538 224.178 94.694 224.646 95.5342 225.113C99.1673 227.134 102.804 229.148 106.444 231.155C109.329 232.745 112.21 234.343 115.089 235.944C117.495 237.281 119.904 238.612 122.314 239.941C126.041 241.995 129.761 244.059 133.479 246.127C134.331 246.601 135.183 247.074 136.036 247.547C136.385 247.741 136.734 247.935 137.084 248.129C137.932 248.6 138.781 249.07 139.63 249.54C141.048 250.325 142.462 251.114 143.859 251.936C144.075 252.061 144.29 252.187 144.512 252.316C144.894 252.54 145.274 252.767 145.652 252.997C146.754 253.64 147.556 253.87 148.828 253.711C149.118 253.517 149.408 253.324 149.707 253.125C149.8 252.237 149.837 251.411 149.834 250.522C149.836 250.262 149.837 250.002 149.839 249.734C149.841 249.182 149.84 248.629 149.838 248.077C149.835 247.238 149.844 246.399 149.853 245.56C149.853 245.023 149.853 244.486 149.852 243.949C149.857 243.576 149.857 243.576 149.862 243.195C149.843 241.486 149.521 240.184 148.535 238.769C147.524 237.784 146.339 237.16 145.093 236.517C144.904 236.418 144.714 236.318 144.519 236.216C144.115 236.004 143.71 235.793 143.305 235.582C142.238 235.026 141.174 234.464 140.11 233.902C139.899 233.791 139.689 233.68 139.472 233.565C137.798 232.678 136.148 231.755 134.509 230.804C131.932 229.309 129.317 227.891 126.691 226.484C124.247 225.175 121.819 223.84 119.399 222.487C117.833 221.613 116.265 220.743 114.697 219.873C110.913 217.771 110.913 217.771 109.311 216.877C106.899 215.531 104.476 214.207 102.045 212.896C99.7162 211.641 97.4039 210.361 95.105 209.051C92.7182 207.692 90.3126 206.373 87.8907 205.078C84.614 203.324 81.3699 201.519 78.1447 199.672C77.3329 199.212 76.5158 198.763 75.697 198.316C75.1839 198.031 74.6708 197.746 74.1577 197.461C73.9206 197.334 73.6835 197.207 73.4391 197.077C71.8528 196.185 71.8528 196.185 71.4661 195.214C71.4844 194.531 71.4844 194.531 71.7408 193.853C72.5909 193.178 73.1822 193.218 74.2462 193.241C75.6868 193.467 76.8318 194.254 78.0579 195.007C78.6552 195.36 79.253 195.711 79.8512 196.062C80.1604 196.245 80.4697 196.428 80.7883 196.616C82.3528 197.524 83.9498 198.37 85.5469 199.218C88.001 200.53 90.4356 201.869 92.8528 203.247C95.0996 204.527 97.3638 205.762 99.6573 206.956C102.109 208.236 104.522 209.583 106.934 210.937C108.087 211.584 109.241 212.231 110.394 212.878C110.855 213.137 110.855 213.137 111.326 213.4C114.06 214.932 116.804 216.447 119.549 217.959C121.938 219.275 124.325 220.597 126.709 221.924C130.505 224.034 134.303 226.141 138.11 228.231C138.812 228.617 139.513 229.003 140.214 229.39C141.228 229.95 142.245 230.505 143.262 231.061C143.56 231.226 143.859 231.391 144.166 231.561C149.995 234.726 156.43 236.167 162.963 234.365C167.076 233.093 170.791 230.828 174.502 228.7C176.357 227.637 178.229 226.604 180.103 225.575C182.986 223.993 185.856 222.392 188.707 220.753C191.095 219.381 193.503 218.046 195.912 216.711C198.14 215.476 200.366 214.235 202.588 212.988C205.112 211.573 207.639 210.163 210.168 208.758C210.497 208.576 210.825 208.393 211.163 208.206C212.825 207.283 214.487 206.362 216.15 205.443C224.452 200.873 224.452 200.873 232.562 195.978C232.758 195.855 232.954 195.733 233.156 195.608C234.082 195.008 234.801 194.424 235.495 193.562C235.811 193.171 235.811 193.171 236.133 192.773C236.326 192.773 236.52 192.773 236.719 192.773C236.746 195.048 236.767 197.322 236.78 199.596C236.786 200.653 236.794 201.709 236.807 202.766C236.82 203.788 236.827 204.81 236.83 205.832C236.833 206.406 236.842 206.98 236.852 207.554C236.852 210.598 236.273 213.293 234.315 215.699C233.748 216.251 233.195 216.622 232.511 217.02C232.251 217.171 231.991 217.323 231.723 217.479C230.297 218.287 228.864 219.082 227.426 219.87C226.487 220.384 225.549 220.901 224.611 221.418C224.326 221.574 224.326 221.574 224.036 221.734C219.52 224.221 215.033 226.75 210.588 229.362C208.411 230.637 206.206 231.851 203.986 233.048C202.025 234.11 200.097 235.22 198.175 236.352C195.561 237.891 192.924 239.379 190.265 240.838C190.085 240.937 189.905 241.036 189.719 241.138C189.54 241.236 189.36 241.335 189.175 241.436C188.816 241.633 188.457 241.83 188.099 242.027C187.923 242.124 187.747 242.22 187.566 242.32C185.901 243.235 184.246 244.167 182.593 245.105C179.357 246.939 176.117 248.765 172.868 250.575C172.278 250.904 171.688 251.233 171.098 251.563C164.865 255.049 158.603 258.316 151.3 258.508C150.931 258.522 150.562 258.537 150.182 258.552C146.763 258.353 143.559 256.394 140.662 254.736C140.291 254.527 139.92 254.319 139.549 254.11C138.984 253.794 138.42 253.477 137.856 253.159C136.118 252.178 134.363 251.23 132.605 250.287C130.062 248.916 127.544 247.507 125.034 246.077C122.923 244.88 120.792 243.723 118.652 242.578C115.949 241.132 113.272 239.649 110.608 238.132C108.616 237 106.608 235.9 104.59 234.814C102.018 233.429 99.4667 232.012 96.9265 230.569C91.6205 227.557 86.2719 224.62 80.929 221.674C78.1683 220.151 75.408 218.628 72.6563 217.09C72.4611 216.981 72.266 216.872 72.0649 216.76C71.4983 216.444 70.9327 216.126 70.3675 215.808C69.8933 215.542 69.8933 215.542 69.4096 215.27C66.6837 213.599 64.8833 211.026 63.8672 208.008C63.2689 205.422 63.1915 202.869 63.208 200.226C63.2058 199.863 63.2035 199.501 63.2012 199.128C63.2149 192.614 63.2149 192.614 65.4955 190.249C67.1448 188.746 68.9413 187.749 70.9168 186.731C71.6018 186.37 72.2866 186.009 72.971 185.647C73.3129 185.467 73.6548 185.286 74.0071 185.101C75.4644 184.322 76.8988 183.505 78.3326 182.684C81.2396 181.025 84.1811 179.436 87.1358 177.864C87.4627 177.691 87.7896 177.517 88.1264 177.337C88.5942 177.091 88.5942 177.091 89.0714 176.84C89.6203 176.541 90.1627 176.231 90.6947 175.903C91.7533 175.254 92.3628 174.907 93.6253 174.88C94.8321 175.259 95.8334 175.779 96.9178 176.422C97.3774 176.686 97.8375 176.95 98.2979 177.213C98.5497 177.357 98.8015 177.501 99.0609 177.65C100.688 178.568 102.338 179.442 103.986 180.322C104.642 180.673 105.297 181.023 105.953 181.375C106.374 181.6 106.374 181.6 106.804 181.83C107.52 182.226 107.52 182.226 108.398 182.812C108.398 183.006 108.398 183.199 108.398 183.398C107.803 183.823 107.803 183.823 106.976 184.311C106.679 184.489 106.381 184.667 106.075 184.85C105.603 185.129 105.603 185.129 105.121 185.412C104.506 185.777 103.891 186.142 103.277 186.509C103.003 186.671 102.728 186.833 102.445 186.999C100.949 187.911 100.949 187.911 99.9024 189.258C99.8162 190.244 99.8209 191.234 99.8108 192.224C99.8023 192.495 99.7938 192.766 99.7851 193.046C99.7652 195.212 100.144 196.798 101.681 198.377C102.99 199.214 104.352 199.939 105.725 200.665C108.147 201.961 110.553 203.278 112.939 204.638C116.093 206.432 119.279 208.162 122.472 209.883C123.618 210.501 124.76 211.125 125.902 211.75C126.708 212.19 127.515 212.629 128.323 213.068C129.222 213.558 130.118 214.053 131.01 214.556C134.536 216.526 138.17 217.994 142.255 218.042C142.826 218.053 142.826 218.053 143.409 218.065C146.54 217.934 149.176 216.735 151.886 215.259C152.205 215.089 152.525 214.92 152.854 214.745C154.19 214.034 155.52 213.312 156.836 212.565C157.166 212.378 157.496 212.191 157.837 211.999C158.107 211.84 158.378 211.681 158.656 211.516C160.1 210.942 161.416 211.715 162.799 212.237C166.882 213.715 170.28 214.008 174.335 212.219C177.326 210.6 179.324 208.159 180.318 204.941C180.842 203.146 181.141 201.328 181.435 199.484C181.497 199.111 181.558 198.737 181.621 198.352C181.788 197.331 181.952 196.309 182.116 195.288C182.256 194.419 182.397 193.55 182.539 192.681C184.063 183.301 185.536 173.912 187.004 164.523C187.565 160.937 188.127 157.352 188.689 153.766C188.884 152.524 189.078 151.282 189.272 150.04C189.363 149.459 189.454 148.878 189.545 148.297C189.663 147.545 189.78 146.793 189.897 146.041C190.2 144.106 190.512 142.173 190.835 140.241C190.935 139.634 191.036 139.027 191.136 138.42C191.23 137.861 191.325 137.301 191.421 136.742C192.915 127.732 191.32 120.007 186.092 112.463C184.906 110.909 183.596 109.498 182.227 108.105C182.026 107.894 181.826 107.684 181.62 107.467C179.742 105.633 177.451 104.492 175.152 103.274C174.225 102.783 173.301 102.288 172.377 101.791C171.324 101.226 170.27 100.661 169.216 100.098C167.102 98.969 164.993 97.8307 162.891 96.6794C160.457 95.3469 158.014 94.0323 155.566 92.7243C152.847 91.2708 150.134 89.8064 147.43 88.3264C145.362 87.1955 143.287 86.0766 141.211 84.9607C138.602 83.5582 135.998 82.1467 133.4 80.7253C131.296 79.5763 129.186 78.4407 127.075 77.3069C124.721 76.0418 122.374 74.7643 120.041 73.4599C117.995 72.3177 115.933 71.2044 113.869 70.0929C112.193 69.188 110.524 68.2721 108.862 67.3413C101.061 62.6269 101.061 62.6269 92.2852 60.9372C92.2852 60.7439 92.2852 60.5505 92.2852 60.3513C96.3483 58.1027 100.412 55.856 104.498 53.6496C106.469 52.5851 108.437 51.5162 110.394 50.427C110.597 50.314 110.801 50.201 111.01 50.0847C112.354 49.3361 113.695 48.5831 115.036 47.8292C115.561 47.5348 116.087 47.2406 116.613 46.9465C117.115 46.665 117.616 46.382 118.117 46.099C126.817 41.2341 132.127 41.265 140.881 45.8676Z" fill="black"/>
<path d="M102.502 72.3812C102.818 72.5472 103.135 72.7132 103.461 72.8842C106.046 74.2441 108.614 75.6358 111.174 77.0424C112.287 77.6537 113.402 78.2599 114.52 78.862C117.459 80.4449 120.384 82.0458 123.284 83.6971C125.517 84.9678 127.765 86.1974 130.043 87.3838C131.781 88.2895 133.504 89.2196 135.223 90.1608C137.604 91.4646 139.991 92.7575 142.382 94.0426C145.545 95.7432 148.701 97.4575 151.852 99.1803C153.175 99.9036 154.498 100.626 155.822 101.349C156.086 101.493 156.351 101.637 156.623 101.786C158.612 102.871 160.604 103.951 162.597 105.029C164.936 106.295 167.274 107.564 169.61 108.838C169.868 108.978 170.126 109.119 170.392 109.264C170.88 109.53 171.368 109.797 171.855 110.064C172.327 110.323 172.801 110.579 173.276 110.833C178.421 113.617 182.023 118.755 183.813 124.263C184.914 128.069 184.273 131.522 183.654 135.388C183.59 135.791 183.526 136.195 183.463 136.599C183.291 137.691 183.117 138.783 182.943 139.875C182.757 141.044 182.572 142.214 182.387 143.384C182.073 145.367 181.759 147.351 181.443 149.334C181.012 152.045 180.583 154.756 180.154 157.467C179.423 162.089 178.689 166.71 177.953 171.331C177.875 171.821 177.797 172.311 177.719 172.801C177.681 173.045 177.642 173.288 177.602 173.539C177.318 175.32 177.036 177.102 176.753 178.883C176.389 181.179 176.024 183.474 175.658 185.769C175.467 186.97 175.276 188.171 175.086 189.372C174.909 190.488 174.731 191.604 174.553 192.719C174.489 193.123 174.424 193.528 174.361 193.932C174.159 195.208 173.948 196.481 173.73 197.754C173.697 197.948 173.665 198.142 173.632 198.342C173.532 198.934 173.426 199.526 173.318 200.117C173.257 200.464 173.195 200.812 173.132 201.17C172.631 202.91 171.689 204.056 170.214 205.078C169.332 205.372 168.668 205.449 167.742 205.481C167.465 205.495 167.187 205.509 166.901 205.524C164.073 205.123 161.475 203.517 159.008 202.148C158.391 201.81 157.774 201.471 157.156 201.133C156.844 200.961 156.532 200.789 156.211 200.612C154.718 199.793 153.219 198.984 151.72 198.175C142.545 193.206 142.545 193.206 138.937 191.16C137.211 190.185 135.466 189.246 133.721 188.305C131.086 186.885 128.474 185.428 125.872 183.948C123.577 182.645 121.26 181.388 118.936 180.138C116.947 179.064 114.976 177.963 113.012 176.843C110.346 175.324 107.65 173.865 104.941 172.425C102.321 171.03 99.7275 169.593 97.1494 168.122C94.6842 166.719 92.1894 165.374 89.6852 164.042C82.9759 160.462 79.1737 156.8 76.3725 149.597C75.8024 146.591 76.2623 143.531 76.7181 140.539C76.7823 140.104 76.8464 139.669 76.9104 139.234C78.0153 131.79 79.2164 124.359 80.3965 116.927C80.95 113.44 81.5022 109.954 82.0547 106.467C82.1908 105.607 82.327 104.748 82.4633 103.889C83.2367 99.0109 84.0058 94.1324 84.7582 89.2512C84.8748 88.4949 84.9918 87.7386 85.1088 86.9823C85.1816 86.5115 85.2545 86.0406 85.3273 85.5698C85.3617 85.3472 85.3962 85.1247 85.4316 84.8954C85.6266 83.6338 85.8193 82.3718 86.0104 81.1096C86.1505 80.1877 86.2937 79.2662 86.4364 78.3447C86.506 77.8756 86.506 77.8756 86.577 77.3971C86.9536 74.9939 87.4314 72.5708 89.3546 70.8981C94.171 67.7101 97.8347 69.9161 102.502 72.3812ZM94.3351 81.7379C93.6706 82.7189 93.3254 83.5169 93.1401 84.6839C93.0901 84.9893 93.0402 85.2947 92.9887 85.6093C92.9097 86.1243 92.9097 86.1243 92.8291 86.6497C92.7689 87.0259 92.7087 87.402 92.6467 87.7896C92.4657 88.924 92.2897 90.0592 92.1145 91.1945C91.983 92.0461 91.8505 92.8976 91.7179 93.749C91.0049 98.3298 90.3015 102.912 89.5999 107.495C89.2616 109.703 88.9228 111.912 88.5838 114.12C88.3028 115.951 88.0222 117.782 87.7427 119.613C87.1921 123.215 86.6333 126.815 86.0558 130.413C85.8387 131.768 85.624 133.123 85.4087 134.477C85.2914 135.211 85.1728 135.945 85.0529 136.678C83.5279 144.905 83.5279 144.905 86.4799 152.417C88.3996 155.052 91.3865 156.367 94.2069 157.855C94.5645 158.045 94.922 158.235 95.2794 158.425C96.2316 158.931 97.1847 159.436 98.138 159.94C99.735 160.786 101.331 161.633 102.927 162.48C103.328 162.693 103.729 162.906 104.13 163.119C106.831 164.551 109.523 165.999 112.205 167.467C114.203 168.562 116.206 169.647 118.212 170.727C118.685 170.982 118.685 170.982 119.167 171.242C120.898 172.173 122.631 173.099 124.368 174.02C125.117 174.417 125.867 174.815 126.617 175.213C126.803 175.312 126.989 175.411 127.181 175.513C129.876 176.945 132.541 178.426 135.19 179.943C137.644 181.339 140.148 182.629 142.66 183.916C144.806 185.021 146.917 186.172 149.01 187.371C151.399 188.734 153.798 190.07 156.225 191.363C156.669 191.606 156.669 191.606 157.123 191.854C159.298 193 161.655 193.994 164.153 193.469C165.962 192.794 167.093 192.024 168.105 190.346C168.888 188.574 169.054 186.593 169.33 184.69C169.406 184.195 169.482 183.701 169.559 183.207C169.765 181.869 169.965 180.531 170.163 179.192C170.374 177.782 170.59 176.374 170.806 174.966C171.214 172.293 171.617 169.619 172.018 166.945C172.516 163.632 173.019 160.321 173.523 157.009C173.701 155.84 173.879 154.671 174.057 153.502C174.121 153.075 174.121 153.075 174.188 152.64C174.482 150.705 174.774 148.77 175.065 146.834C175.22 145.806 175.375 144.777 175.53 143.748C175.567 143.504 175.604 143.259 175.642 143.007C176.128 139.79 176.63 136.576 177.2 133.372C177.961 129.002 177.858 125.097 175.268 121.344C173.389 118.797 171.071 117.346 168.273 115.96C167.614 115.626 166.955 115.291 166.297 114.956C165.969 114.789 165.64 114.623 165.302 114.451C163.929 113.746 162.575 113.007 161.224 112.262C159.419 111.269 157.609 110.286 155.79 109.32C155.514 109.174 155.514 109.174 155.233 109.025C154.856 108.825 154.48 108.625 154.103 108.426C151.267 106.921 148.447 105.397 145.66 103.802C143.063 102.317 140.429 100.92 137.77 99.5503C135.531 98.3957 133.315 97.2053 131.107 95.9931C128.928 94.7977 126.739 93.6211 124.548 92.4496C121.992 91.0835 119.44 89.712 116.894 88.3297C114.463 87.011 112.029 85.6961 109.593 84.3878C109.076 84.1102 108.559 83.8322 108.043 83.5541C101.202 79.3588 101.202 79.3588 94.3351 81.7379Z" fill="black"/>
<path d="M107.605 68.7063C110.182 70.1811 112.801 71.5689 115.429 72.9492C118.247 74.4304 121.053 75.9243 123.815 77.5085C126.866 79.2579 129.966 80.9058 133.075 82.549C133.475 82.7601 133.874 82.9713 134.274 83.1825C134.469 83.2855 134.663 83.3884 134.864 83.4944C136.788 84.5133 138.7 85.5543 140.61 86.6017C142.054 87.3933 143.501 88.1782 144.952 88.9561C145.292 89.1382 145.632 89.3204 145.982 89.508C146.637 89.8588 147.292 90.209 147.948 90.5585C149.625 91.457 151.268 92.3914 152.894 93.3796C153.597 93.7993 154.313 94.1683 155.053 94.519C157.009 95.4799 158.916 96.5264 160.827 97.5742C162.974 98.751 165.128 99.9151 167.284 101.074C167.925 101.42 168.566 101.765 169.207 102.111C170.437 102.774 171.67 103.431 172.906 104.084C178.348 106.976 178.348 106.976 180.468 108.984C180.708 109.202 180.949 109.42 181.197 109.645C186.052 114.235 189.791 121.22 190.204 127.976C190.305 132.083 189.673 136.02 188.998 140.06C188.878 140.802 188.757 141.544 188.638 142.287C188.383 143.86 188.125 145.433 187.866 147.006C187.458 149.471 187.057 151.937 186.657 154.403C186.523 155.233 186.388 156.064 186.253 156.895C186.219 157.101 186.186 157.306 186.152 157.518C185.915 158.973 185.678 160.428 185.441 161.883C184.621 166.903 183.814 171.925 183.026 176.95C182.979 177.25 182.932 177.55 182.883 177.859C182.572 179.846 182.261 181.833 181.951 183.82C181.789 184.857 181.627 185.894 181.465 186.931C181.427 187.177 181.388 187.424 181.348 187.678C181.061 189.519 180.769 191.359 180.477 193.2C180.274 194.478 180.078 195.757 179.886 197.038C179.793 197.652 179.698 198.266 179.603 198.88C179.488 199.619 179.376 200.359 179.269 201.1C178.765 204.278 177.621 206.993 175.194 209.18C172.526 211.114 169.985 211.861 166.698 211.523C160.728 210.414 155.176 206.603 149.978 203.626C147.634 202.288 145.26 201.014 142.876 199.75C139.664 198.045 136.469 196.316 133.3 194.531C129.276 192.265 125.243 190.025 121.171 187.847C119.075 186.723 117 185.567 114.934 184.387C112.731 183.129 110.507 181.924 108.251 180.762C105.732 179.463 103.256 178.104 100.793 176.7C98.5101 175.399 96.2151 174.121 93.914 172.852C93.6458 172.703 93.6458 172.703 93.3721 172.552C91.474 171.504 89.5721 170.464 87.6575 169.446C87.1873 169.195 87.1873 169.195 86.7075 168.939C86.1287 168.631 85.5488 168.325 84.9676 168.021C78.3178 164.479 73.7997 158.886 71.2272 151.831C70.0741 147.911 70.1433 144.075 70.7877 140.076C70.866 139.57 70.866 139.57 70.9459 139.053C71.0915 138.116 71.2396 137.178 71.3888 136.241C71.518 135.428 71.645 134.613 71.7721 133.799C72.2555 130.702 72.7477 127.607 73.2413 124.512C73.2848 124.239 73.3282 123.967 73.373 123.686C74.2467 118.208 75.122 112.731 76.0036 107.254C76.9692 101.255 77.9302 95.2551 78.8462 89.2478C78.9686 88.4449 79.0915 87.6419 79.2145 86.839C79.5551 84.6136 79.8947 82.3882 80.2264 80.1614C80.3595 79.2725 80.4952 78.384 80.6316 77.4956C80.693 77.0916 80.7532 76.6875 80.8121 76.2832C81.4896 71.6406 82.7068 68.1978 86.4799 65.2222C93.674 60.293 101.075 64.9526 107.605 68.7063ZM87.0269 70.0859C84.5535 73.3458 84.3104 77.5205 83.7001 81.4568C83.6076 82.0443 83.515 82.6318 83.4222 83.2193C83.1729 84.801 82.9257 86.383 82.679 87.9651C82.4197 89.6259 82.1583 91.2863 81.8972 92.9468C81.4674 95.6808 81.0387 98.4149 80.6108 101.149C80.021 104.917 79.4265 108.683 78.8306 112.45C76.7498 125.585 76.7498 125.585 74.7282 138.729C74.6422 139.297 74.5556 139.864 74.4684 140.432C74.3542 141.176 74.2425 141.921 74.1317 142.667C74.0999 142.871 74.0681 143.076 74.0353 143.287C73.2319 148.809 75.1396 153.619 78.35 158.038C80.5012 160.863 82.8166 162.747 85.9489 164.392C86.297 164.579 86.6448 164.767 86.9924 164.956C87.7125 165.345 88.4338 165.733 89.1559 166.119C90.8639 167.035 92.552 167.987 94.2435 168.933C97.5967 170.799 100.968 172.631 104.344 174.453C108.381 176.635 112.402 178.847 116.419 181.066C118.746 182.352 121.076 183.631 123.412 184.9C125.992 186.302 128.555 187.736 131.114 189.175C133.5 190.514 135.903 191.819 138.313 193.116C140.349 194.215 142.367 195.345 144.378 196.49C146.608 197.76 148.854 198.989 151.131 200.173C152.934 201.112 154.718 202.085 156.499 203.064C158.416 204.114 160.336 205.152 162.286 206.14C162.467 206.233 162.649 206.327 162.836 206.423C165.235 207.621 167.79 208.29 170.414 207.469C172.166 206.677 173.637 205.588 174.609 203.906C175.438 201.645 175.813 199.307 176.188 196.937C176.253 196.533 176.319 196.128 176.384 195.724C176.563 194.62 176.739 193.515 176.914 192.41C177.065 191.464 177.217 190.519 177.369 189.573C178.87 180.237 180.326 170.893 181.777 161.549C181.961 160.366 182.145 159.183 182.329 157.999C182.374 157.71 182.419 157.42 182.465 157.122C183.055 153.33 183.657 149.541 184.274 145.754C184.392 145.032 184.509 144.31 184.626 143.589C184.701 143.125 184.776 142.661 184.851 142.198C184.888 141.974 184.924 141.75 184.962 141.519C185.171 140.231 185.383 138.943 185.597 137.656C185.696 137.061 185.793 136.467 185.889 135.872C186.004 135.165 186.121 134.459 186.241 133.753C187.299 127.163 185.781 121.681 182.098 116.199C179.554 112.759 176.797 110.094 172.961 108.197C172.356 107.89 171.753 107.583 171.149 107.275C170.845 107.12 170.541 106.966 170.228 106.807C168.873 106.11 167.538 105.379 166.204 104.645C163.894 103.376 161.575 102.125 159.25 100.884C156.609 99.4737 153.974 98.0538 151.361 96.5918C148.687 95.0972 145.988 93.6469 143.292 92.1907C141.804 91.3869 140.317 90.5819 138.83 89.7766C138.538 89.6188 138.247 89.461 137.947 89.2985C135.741 88.1037 133.539 86.9035 131.338 85.7009C129.624 84.7655 127.909 83.8356 126.191 82.908C123.986 81.7167 121.782 80.5243 119.604 79.2847C117.149 77.8897 114.656 76.5657 112.165 75.2365C110.142 74.1567 108.123 73.0702 106.11 71.9732C104.726 71.2201 103.34 70.4717 101.952 69.7266C101.632 69.5542 101.632 69.5542 101.305 69.3784C96.3492 66.7347 91.1892 65.3218 87.0269 70.0859Z" fill="black"/>
<path d="M110.742 184.277C111.448 184.577 112.114 184.895 112.793 185.248C113.002 185.354 113.211 185.461 113.426 185.571C115.394 186.583 117.324 187.66 119.253 188.743C120.868 189.647 122.498 190.523 124.127 191.4C126.444 192.649 128.744 193.923 131.03 195.227C133.741 196.772 136.482 198.256 139.236 199.723C141.437 200.895 143.627 202.081 145.795 203.315C147.761 204.432 149.758 205.488 151.758 206.543C151.758 206.736 151.758 206.93 151.758 207.129C150.868 207.607 149.976 208.082 149.084 208.557C148.834 208.692 148.583 208.827 148.325 208.966C146.445 209.963 144.823 210.727 142.657 210.754C142.364 210.763 142.071 210.771 141.768 210.78C138.558 210.4 135.8 209.049 133.008 207.495C132.653 207.301 132.297 207.107 131.942 206.913C131.015 206.407 130.091 205.897 129.168 205.385C128.266 204.886 127.363 204.389 126.46 203.891C125.392 203.303 124.325 202.714 123.259 202.124C119.179 199.866 115.068 197.663 110.956 195.463C110.438 195.185 109.92 194.908 109.402 194.63C108.755 194.283 108.108 193.937 107.461 193.592C105.592 192.589 103.761 191.539 101.953 190.43C102.448 189.35 102.888 188.944 103.912 188.324C104.197 188.15 104.482 187.976 104.775 187.796C105.264 187.505 105.264 187.505 105.762 187.207C106.152 186.971 106.542 186.735 106.931 186.499C109.956 184.671 109.956 184.671 110.742 184.277Z" fill="black"/>
<path d="M101.661 192.773C102.81 192.949 103.671 193.301 104.688 193.858C104.991 194.023 105.294 194.188 105.606 194.357C105.93 194.535 106.253 194.714 106.587 194.897C107.1 195.177 107.613 195.457 108.126 195.736C108.653 196.024 109.18 196.313 109.707 196.601C110.684 197.136 111.663 197.666 112.644 198.195C115.33 199.642 118.009 201.099 120.663 202.604C122.683 203.746 124.726 204.847 126.769 205.949C128.275 206.761 129.778 207.577 131.274 208.406C131.559 208.564 131.845 208.722 132.139 208.884C132.676 209.181 133.212 209.479 133.746 209.778C137.592 211.899 141.534 213.249 145.944 212.178C147.324 211.628 148.589 210.91 149.873 210.167C150.108 210.032 150.344 209.897 150.587 209.758C151.056 209.486 151.522 209.208 151.985 208.924C153.612 207.965 153.612 207.965 154.638 208.187C154.848 208.322 155.058 208.456 155.274 208.594C155.595 208.751 155.915 208.908 156.245 209.07C156.505 209.203 156.764 209.336 157.032 209.473C156.591 210.726 155.83 211.081 154.687 211.689C154.512 211.783 154.337 211.877 154.157 211.974C153.786 212.171 153.414 212.368 153.042 212.562C152.48 212.856 151.921 213.156 151.362 213.457C146.806 215.885 142.571 216.908 137.482 215.545C133.921 214.401 130.571 212.408 127.342 210.546C125.533 209.505 123.703 208.502 121.876 207.495C121.692 207.394 121.509 207.293 121.32 207.188C118.838 205.819 116.35 204.464 113.856 203.119C111.475 201.831 109.098 200.536 106.733 199.219C106.451 199.064 106.169 198.909 105.878 198.75C102.278 196.731 102.278 196.731 101.661 194.824C101.638 194.141 101.635 193.457 101.661 192.773Z" fill="black"/>
<path d="M73.243 200.977C74.9855 201.038 76.2083 201.658 77.6742 202.515C77.8762 202.627 78.0783 202.739 78.2865 202.855C79.5083 203.553 80.5582 204.256 81.4462 205.371C81.5995 206.16 81.5995 206.16 81.556 207.001C81.5356 207.458 81.5356 207.458 81.5148 207.924C81.4808 208.401 81.4808 208.401 81.4462 208.887C81.4296 209.213 81.4129 209.54 81.3958 209.877C81.2434 212.312 81.2434 212.312 80.5673 212.988C78.7395 212.985 77.2902 211.883 75.7882 210.956C75.5191 210.794 75.2501 210.633 74.9728 210.467C72.9907 209.261 72.9907 209.261 72.6571 208.594C72.5862 207.423 72.6028 206.25 72.6022 205.078C72.5986 204.75 72.595 204.423 72.5913 204.085C72.5907 203.772 72.5902 203.459 72.5896 203.137C72.5884 202.849 72.5872 202.562 72.5859 202.265C72.6571 201.562 72.6571 201.562 73.243 200.977Z" fill="black"/>
<path d="M86.1324 208.887C87.7201 208.948 88.7123 209.351 89.9409 210.352C90.7399 211.466 90.624 212.717 90.6184 214.032C90.6232 214.257 90.6279 214.482 90.6327 214.713C90.6342 216.361 90.6342 216.361 90.0817 217.098C89.9386 217.192 89.7954 217.286 89.648 217.383C88.9156 217.2 88.9156 217.2 87.8902 216.797C87.6794 216.719 87.4687 216.642 87.2516 216.562C86.4183 216.131 86.0503 215.844 85.5464 215.039C85.2244 213.275 85.2134 211.237 85.5464 209.473C85.7398 209.279 85.9331 209.086 86.1324 208.887Z" fill="black"/>
</svg>
