<svg width="300" height="300" viewBox="0 0 300 300" fill="none" xmlns="http://www.w3.org/2000/svg">
<path d="M107.183 93.4162C107.577 93.4154 107.972 93.4145 108.366 93.4135C109.439 93.4112 110.512 93.4107 111.585 93.4104C112.746 93.4099 113.908 93.4077 115.069 93.4057C117.604 93.4017 120.138 93.4 122.673 93.3987C124.258 93.3979 125.844 93.3966 127.429 93.3953C131.827 93.3917 136.224 93.3887 140.622 93.3877C140.903 93.3877 141.184 93.3876 141.473 93.3875C141.895 93.3874 141.895 93.3874 142.326 93.3873C142.897 93.3872 143.467 93.3871 144.037 93.3869C144.32 93.3869 144.603 93.3868 144.894 93.3867C149.476 93.3856 154.058 93.3805 158.639 93.3737C163.354 93.3667 168.069 93.3631 172.783 93.3627C175.426 93.3624 178.069 93.3608 180.712 93.3554C182.962 93.3509 185.213 93.3494 187.463 93.3519C188.609 93.353 189.755 93.3528 190.901 93.3486C200.245 93.3168 208.339 94.0474 215.625 100.489C215.812 100.647 215.998 100.806 216.19 100.969C219.624 104.102 221.436 108.816 223.35 112.938C223.763 113.826 224.18 114.712 224.598 115.597C224.943 116.328 225.286 117.059 225.629 117.791C225.872 118.307 226.115 118.824 226.358 119.34C227.981 122.827 229.129 126.382 230.222 130.06C231.693 135.001 233.219 139.922 234.781 144.834C236.829 151.279 238.848 157.734 240.829 164.2C241.101 165.088 241.374 165.976 241.649 166.864C241.974 167.915 242.296 168.966 242.616 170.018C242.789 170.585 242.965 171.15 243.14 171.716C244.252 175.39 245.092 179.102 245.032 182.959C245.029 183.245 245.026 183.531 245.023 183.825C244.896 189.992 242.905 195.76 238.606 200.299C233.984 204.678 227.554 207.065 221.189 206.908C214.03 206.32 208.301 203.345 203.394 198.084C201.339 195.615 200.101 192.498 198.761 189.606C198.631 189.327 198.631 189.327 198.499 189.042C197.099 186.031 195.745 183.001 194.421 179.956C194.338 179.764 194.254 179.571 194.167 179.373C193.931 178.831 193.697 178.288 193.462 177.745C193.329 177.436 193.196 177.127 193.058 176.808C192.774 176.075 192.774 176.075 192.774 175.489C192.391 175.743 192.391 175.743 192 176.004C191.838 176.111 191.677 176.218 191.511 176.329C191.07 176.624 190.633 176.925 190.196 177.226C184.413 181.036 177.704 182.028 170.947 180.744C166.063 179.495 161.588 176.508 158.496 172.559C158.404 172.308 158.311 172.056 158.216 171.797C157.502 170.959 157.319 170.973 156.259 170.886C155.682 170.868 155.105 170.86 154.527 170.858C154.221 170.854 153.915 170.85 153.6 170.846C152.952 170.839 152.304 170.837 151.655 170.839C150.666 170.838 149.68 170.815 148.691 170.791C148.061 170.788 147.431 170.786 146.8 170.785C146.359 170.772 146.359 170.772 145.909 170.758C144.668 170.778 143.874 170.802 142.934 171.661C142.414 172.33 141.962 173.018 141.504 173.731C138.077 177.764 132.693 180.525 127.442 181.055C120.101 181.538 114.327 180.276 108.399 175.782C107.478 176.86 106.987 178.071 106.437 179.361C106.335 179.598 106.233 179.834 106.127 180.077C105.909 180.582 105.692 181.086 105.475 181.591C105.138 182.376 104.799 183.16 104.459 183.944C104.016 184.967 103.573 185.989 103.131 187.012C100.012 194.222 96.8671 200.932 89.3556 204.492C83.1307 206.953 76.0364 207.724 69.7099 205.124C67.0969 203.989 64.8059 202.615 62.6954 200.684C62.3958 200.424 62.3958 200.424 62.09 200.16C58.3692 196.737 55.9992 191.605 55.3712 186.621C55.3323 186.351 55.2934 186.081 55.2533 185.803C54.7953 181.743 55.3404 177.759 56.519 173.869C56.608 173.57 56.697 173.271 56.7887 172.963C58.172 168.35 59.6485 163.764 61.1096 159.175C61.6629 157.437 62.2153 155.699 62.7664 153.96C62.8872 153.579 62.8872 153.579 63.0105 153.19C64.1971 149.442 65.349 145.685 66.4787 141.92C66.9709 140.282 67.4672 138.645 67.963 137.009C68.3577 135.704 68.7493 134.398 69.1334 133.09C71.1349 126.281 73.6107 119.962 76.7909 113.615C77.6107 111.973 78.3746 110.306 79.1383 108.637C80.0839 106.575 81.161 104.869 82.6173 103.125C82.8329 102.859 83.0486 102.594 83.2708 102.32C88.1126 96.7529 94.8462 94.0461 102.08 93.5169C103.781 93.42 105.479 93.415 107.183 93.4162ZM101.536 98.2631C101.2 98.2775 101.2 98.2775 100.858 98.2923C96.0973 98.5531 91.7771 100.263 88.1837 103.418C87.8863 103.674 87.8863 103.674 87.5829 103.936C84.2172 107.046 82.5116 111.54 80.6581 115.631C80.2932 116.431 79.9277 117.23 79.5619 118.029C79.328 118.54 79.0947 119.052 78.862 119.563C78.3033 120.788 77.7277 121.994 77.099 123.184C76.2743 124.806 75.8072 126.521 75.3114 128.266C75.081 129.057 74.8482 129.847 74.6156 130.637C74.5536 130.848 74.4917 131.059 74.4279 131.277C73.6291 133.993 72.7852 136.696 71.9423 139.398C71.8572 139.672 71.7721 139.945 71.6845 140.226C70.0556 145.454 68.4056 150.676 66.7538 155.897C65.0177 161.384 63.2972 166.877 61.5934 172.375C61.4731 172.762 61.4731 172.762 61.3504 173.158C61.203 173.634 61.0558 174.109 60.9088 174.585C60.6215 175.512 60.329 176.435 60.0182 177.354C58.5029 181.982 59.3876 187.909 61.5236 192.188C64.1644 197.081 68.1004 200.029 73.3533 201.653C78.8305 203.098 84.7601 202.317 89.6463 199.507C92.8008 197.426 94.9467 194.774 96.4933 191.359C96.6049 191.118 96.7165 190.877 96.8315 190.629C97.9039 188.299 98.9307 185.949 99.9455 183.594C101.825 179.231 103.745 174.889 105.728 170.572C105.888 170.223 106.047 169.873 106.212 169.514C106.352 169.209 106.492 168.904 106.636 168.59C106.971 167.911 106.971 167.911 106.934 167.285C107.127 167.285 107.32 167.285 107.52 167.285C107.633 167.604 107.633 167.604 107.749 167.93C109.281 171.451 112.814 174.111 116.309 175.489C118.424 176.195 120.524 176.805 122.754 176.953C123.064 176.976 123.064 176.976 123.381 176.999C128.544 177.204 133.383 175.466 137.257 172.09C138.828 170.62 140.179 168.88 141.211 166.992C141.211 166.799 141.211 166.606 141.211 166.407C150.492 166.552 150.492 166.552 159.961 166.7C160.444 167.57 160.928 168.44 161.426 169.336C164.499 173.385 168.529 175.889 173.537 176.815C179.047 177.526 184.082 176.476 188.598 173.136C190.469 171.563 191.875 169.711 193.067 167.578C193.067 167.385 193.067 167.192 193.067 166.992C193.26 166.992 193.453 166.992 193.652 166.992C193.803 167.497 193.803 167.497 193.956 168.011C194.617 169.992 195.522 171.867 196.4 173.759C196.93 174.9 197.456 176.044 197.982 177.188C198.087 177.417 198.193 177.646 198.302 177.882C199.259 179.964 200.195 182.055 201.123 184.149C201.265 184.469 201.408 184.789 201.554 185.118C202.18 186.528 202.799 187.939 203.399 189.36C204.4 191.714 205.351 193.819 207.129 195.703C207.426 196.035 207.426 196.035 207.73 196.373C211.298 200.17 215.959 202.146 221.152 202.429C226.407 202.535 231.564 201.011 235.474 197.388C239.172 193.406 240.624 188.297 240.656 182.978C240.665 182.702 240.675 182.427 240.685 182.143C240.728 176.225 237.961 170.074 236.206 164.472C235.833 163.28 235.462 162.088 235.09 160.896C233.667 156.333 232.237 151.771 230.805 147.211C230.596 146.544 230.387 145.878 230.178 145.211C229.589 143.334 228.999 141.457 228.408 139.58C228.167 138.815 227.926 138.05 227.685 137.285C227.512 136.732 227.337 136.18 227.163 135.627C226.607 133.852 226.067 132.075 225.558 130.286C224.479 126.5 223.289 122.958 221.521 119.44C221.314 119.018 221.108 118.596 220.903 118.173C220.598 117.545 220.292 116.917 219.984 116.29C219.249 114.791 218.567 113.273 217.902 111.74C215.408 106.008 211.752 101.914 205.891 99.5158C200.756 97.7957 195.322 98.0603 189.981 98.0725C188.849 98.0745 187.717 98.073 186.586 98.072C184.375 98.0705 182.164 98.0721 179.953 98.0749C177.372 98.0779 174.79 98.0779 172.209 98.0777C167.599 98.0776 162.989 98.0803 158.379 98.0845C153.918 98.0887 149.457 98.0907 144.997 98.0905C144.722 98.0905 144.447 98.0905 144.164 98.0905C143.89 98.0905 143.616 98.0905 143.334 98.0905C138.239 98.0903 133.143 98.092 128.048 98.0946C126.255 98.0955 124.461 98.0958 122.667 98.0959C120.476 98.0961 118.286 98.0975 116.095 98.1001C114.98 98.1015 113.865 98.1024 112.75 98.102C107.141 98.0963 107.141 98.0963 101.536 98.2631Z" fill="black"/>
<path d="M183.584 147.613C183.716 147.724 183.848 147.835 183.984 147.949C183.984 148.142 183.984 148.336 183.984 148.535C184.177 148.535 184.371 148.535 184.57 148.535C185.055 149.178 185.055 149.178 185.595 150.036C185.773 150.315 185.952 150.594 186.135 150.881C187.542 153.423 187.802 156.333 187.188 159.155C186.51 161.5 185.207 163.317 183.398 164.941C183.186 165.141 182.975 165.34 182.757 165.545C180.45 167.135 177.685 167.864 174.902 167.578C171.433 166.865 168.945 165.335 166.847 162.476C165.207 159.663 164.838 156.758 165.582 153.644C166.028 152.15 166.649 150.953 167.578 149.707C167.704 149.529 167.83 149.352 167.96 149.169C171.919 144.046 178.554 144.447 183.584 147.613ZM170.638 152.266C169.484 154.075 169.129 155.976 169.444 158.091C169.969 160.081 171.171 161.391 172.838 162.543C174.536 163.53 176.349 163.78 178.247 163.296C180.423 162.552 181.786 161.368 182.85 159.326C183.665 157.261 183.524 155.195 182.647 153.168C181.75 151.56 180.381 150.396 178.747 149.579C175.448 148.985 172.788 149.566 170.638 152.266Z" fill="black"/>
<path d="M132.715 148.243C135.346 151.492 136.007 154.382 135.645 158.497C134.981 161.563 133.207 164.015 130.664 165.821C128.088 167.397 125.28 168.012 122.292 167.432C120.59 166.973 119.199 166.262 117.774 165.235C117.471 165.023 117.169 164.812 116.858 164.594C114.988 162.98 113.794 160.424 113.574 157.999C113.534 153.991 114.381 151.151 117.198 148.205C121.476 144.108 128.403 143.931 132.715 148.243ZM118.751 152.374C117.598 154.013 117.284 156.042 117.587 158.018C118.152 160.022 119.293 161.639 121.092 162.711C123.061 163.593 124.984 163.918 127.054 163.208C129.292 162.183 130.632 160.82 131.543 158.497C132.06 156.201 131.766 154.328 130.609 152.289C129.489 150.612 127.952 149.556 125.977 149.122C122.954 148.69 120.602 150.036 118.751 152.374Z" fill="black"/>
<path d="M98.951 115.03C99.1428 115.03 99.3345 115.03 99.5321 115.03C99.937 115.031 100.342 115.034 100.747 115.038C101.366 115.045 101.985 115.044 102.604 115.042C105.64 115.055 105.64 115.055 106.641 115.723C106.782 116.495 106.862 117.197 106.902 117.976C106.915 118.203 106.927 118.429 106.94 118.663C106.973 119.398 106.993 120.132 107.008 120.868C107.014 121.115 107.019 121.362 107.025 121.617C107.062 124.568 106.974 126.848 104.858 129.105C103.843 130.003 102.812 130.825 101.661 131.543C99.3286 130.408 97.1979 128.994 96.0946 126.563C95.6988 124.76 95.7307 122.906 95.765 121.07C95.7689 120.829 95.7729 120.588 95.7769 120.34C95.7934 119.644 95.8203 118.95 95.8543 118.254C95.8637 118.042 95.8731 117.83 95.8829 117.611C95.94 116.803 96.0167 116.151 96.4255 115.443C97.2668 114.973 97.9936 115.028 98.951 115.03Z" fill="black"/>
<path d="M100.78 133.008C101.935 133.167 102.431 133.695 103.216 134.528C104.035 135.378 104.853 136.188 105.761 136.945C106.64 137.695 106.64 137.695 106.933 138.281C106.995 139.52 106.987 140.76 106.987 142C106.988 142.615 106.993 143.231 106.998 143.846C106.999 144.239 107 144.632 107 145.025C107.001 145.382 107.003 145.739 107.004 146.107C106.934 147.057 106.799 147.699 106.347 148.535C104.516 149.392 102.538 149.156 100.561 149.066C100.228 149.057 99.8952 149.048 99.5524 149.038C99.234 149.025 98.9156 149.012 98.5876 148.999C98.2984 148.987 98.0092 148.976 97.7113 148.964C96.9717 148.828 96.9717 148.828 96.4392 148.516C95.9018 147.637 95.9617 146.737 95.9658 145.736C95.9642 145.52 95.9627 145.303 95.9611 145.08C95.9592 144.623 95.9596 144.165 95.9621 143.708C95.9646 143.01 95.9562 142.313 95.9469 141.615C95.9464 141.17 95.9466 140.725 95.9475 140.279C95.9442 140.072 95.9409 139.864 95.9375 139.65C95.9574 138.229 96.2732 137.53 97.2647 136.523C97.6463 136.172 98.0368 135.829 98.4366 135.498C99.332 134.735 100.085 133.964 100.78 133.008Z" fill="black"/>
<path d="M112.61 126.234C112.941 126.242 112.941 126.242 113.278 126.251C117.003 126.379 117.003 126.379 117.773 127.149C117.849 128.063 117.849 128.063 117.851 129.227C117.852 129.534 117.852 129.534 117.853 129.848C117.853 130.282 117.852 130.717 117.85 131.151C117.847 131.815 117.85 132.479 117.854 133.143C117.853 133.565 117.852 133.987 117.851 134.408C117.851 134.793 117.85 135.177 117.849 135.573C117.773 136.524 117.773 136.524 117.188 137.403C115.858 137.611 114.518 137.604 113.174 137.614C112.51 137.623 111.848 137.65 111.185 137.678C109.061 137.724 107.493 137.645 105.828 136.155C105.406 135.701 104.993 135.238 104.59 134.767C104.141 134.318 103.69 133.872 103.235 133.43C102.905 133.095 102.575 132.76 102.246 132.423C104.506 127.706 107.568 126.103 112.61 126.234Z" fill="black"/>
<path d="M89.9669 126.367C90.5952 126.361 91.2214 126.337 91.8493 126.313C94.777 126.255 94.777 126.255 95.8994 127.041C96.4123 127.637 96.8355 128.249 97.2658 128.906C97.8199 129.477 98.4095 129.987 99.0053 130.517C99.2859 130.768 99.5665 131.019 99.8556 131.277C100.169 131.553 100.169 131.553 100.488 131.835C99.3548 134.221 97.5853 136.467 95.215 137.695C93.6688 138.038 92.1747 138.095 90.6007 138.061C90.4038 138.058 90.2068 138.055 90.0039 138.051C86.8274 137.969 86.8274 137.969 85.7321 137.221C85.0785 136.267 85.107 135.604 85.1087 134.453C85.1083 134.255 85.1079 134.057 85.1074 133.853C85.1079 133.436 85.1113 133.019 85.1174 132.603C85.1259 131.965 85.1234 131.327 85.1196 130.689C85.1214 130.284 85.1239 129.878 85.127 129.472C85.1299 129.104 85.1327 128.735 85.1357 128.356C85.2541 127.441 85.2541 127.441 85.5764 126.885C86.8465 126.148 88.528 126.375 89.9669 126.367Z" fill="black"/>
<path d="M214.746 126.855C216.393 128.286 217.156 129.905 217.369 132.078C217.408 133.883 217.009 135.226 215.863 136.633C214.395 138.143 213.042 138.616 210.955 138.702C209.046 138.645 207.721 138.236 206.323 136.919C204.635 135.061 204.374 133.466 204.419 130.985C204.57 129.106 205.457 128.07 206.836 126.855C209.387 125.113 212.118 125.353 214.746 126.855Z" fill="black"/>
<path d="M189.349 126.251C190.992 127.167 192.098 128.577 192.667 130.374C193.017 132.294 192.93 134.245 191.894 135.937C190.38 137.636 188.969 138.456 186.694 138.684C184.905 138.622 183.256 138.04 181.898 136.864C180.295 135.125 179.713 133.511 179.774 131.15C180.003 129.504 180.655 128.028 181.936 126.942C184.256 125.453 186.781 125.119 189.349 126.251Z" fill="black"/>
<path d="M201.655 138.903C203.033 139.863 203.958 141.071 204.493 142.675C204.688 144.876 204.825 146.845 203.447 148.668C202.051 150.177 200.731 150.951 198.677 151.161C196.836 151.191 195.376 150.558 193.946 149.414C192.483 147.943 191.812 146.567 191.785 144.488C191.828 142.33 192.374 141.057 193.854 139.508C196.316 137.882 198.993 137.393 201.655 138.903Z" fill="black"/>
<path d="M201.507 113.543C203.113 114.358 204.097 115.52 204.895 117.114C205.298 119.213 205.397 121.215 204.296 123.11C203.205 124.572 201.908 125.607 200.097 125.976C197.977 126.147 196.452 125.703 194.622 124.64C193.08 123.014 192.388 121.293 192.297 119.055C192.373 117.31 192.737 116.118 193.945 114.843C196.146 112.921 198.763 112.453 201.507 113.543Z" fill="black"/>
</svg>
