<svg width="300" height="300" viewBox="0 0 300 300" fill="none" xmlns="http://www.w3.org/2000/svg">
<path d="M94.9782 52.6455C95.2496 52.8683 95.5211 53.0911 95.8008 53.3206C95.9829 53.466 96.165 53.6115 96.3526 53.7614C96.507 53.898 96.6614 54.0347 96.8204 54.1755C96.9965 54.33 97.1725 54.4845 97.3539 54.6437C97.5362 54.8052 97.7186 54.9668 97.9065 55.1333C99.4528 56.489 101.016 57.8144 102.615 59.109C103.526 59.8545 104.425 60.6144 105.322 61.3772C106.478 62.36 107.642 63.332 108.82 64.2886C110.245 65.448 111.638 66.6405 113.03 67.8396C114.062 68.7276 115.105 69.6008 116.162 70.4593C117.582 71.6117 118.969 72.7985 120.354 73.992C121.387 74.88 122.429 75.7532 123.486 76.6116C125.604 78.3325 127.663 80.1215 129.73 81.9031C131.697 83.5979 133.674 85.2746 135.69 86.9113C136.843 87.8615 137.973 88.8376 139.105 89.813C140.131 90.6953 141.166 91.562 142.218 92.4136C143.697 93.6149 145.136 94.8588 146.573 96.1097C148.901 98.1351 151.25 100.135 153.644 102.082C155.231 103.374 156.783 104.705 158.335 106.04C160.462 107.87 162.599 109.687 164.777 111.457C166.364 112.749 167.916 114.08 169.468 115.415C171.588 117.239 173.718 119.051 175.891 120.813C177.755 122.331 179.561 123.913 181.374 125.491C183.698 127.51 186.039 129.504 188.428 131.446C189.916 132.671 191.372 133.933 192.833 135.191C193.69 135.93 194.55 136.666 195.41 137.403C195.752 137.696 196.094 137.989 196.436 138.282C196.689 138.499 196.689 138.499 196.948 138.721C214.893 154.102 214.893 154.102 215.405 154.541C215.747 154.834 216.088 155.126 216.429 155.418C217.295 156.161 218.161 156.904 219.025 157.648C220.587 158.993 222.153 160.33 223.755 161.627C225.037 162.668 226.262 163.757 227.482 164.87C228.243 165.546 229.024 166.188 229.816 166.828C231.214 167.958 232.538 169.152 233.861 170.37C234.912 171.313 236.006 172.195 237.104 173.082C237.875 173.718 238.617 174.376 239.355 175.049C240.357 175.962 241.378 176.834 242.432 177.686C243.739 178.744 244.988 179.849 246.231 180.982C246.999 181.664 247.786 182.313 248.584 182.959C249.637 183.811 250.659 184.683 251.66 185.596C252.898 186.723 254.177 187.784 255.477 188.837C256.444 189.63 257.395 190.439 258.344 191.254C258.515 191.401 258.686 191.548 258.862 191.699C259.76 192.471 260.655 193.245 261.55 194.021C261.731 194.177 261.911 194.333 262.097 194.494C262.439 194.789 262.78 195.085 263.121 195.382C264.235 196.344 265.393 197.205 266.602 198.047C266.505 198.337 266.408 198.627 266.309 198.926C265.598 199.155 265.598 199.155 264.648 199.324C264.124 199.423 264.124 199.423 263.59 199.524C263.023 199.627 263.023 199.627 262.445 199.732C258.647 200.461 255.018 201.457 251.367 202.735C250.847 202.911 250.326 203.086 249.805 203.262C234.333 208.589 219.052 217.826 207.699 229.738C207.554 229.889 207.409 230.04 207.26 230.195C206.858 230.616 206.462 231.042 206.067 231.468C205.371 232.032 205.371 232.032 204.773 232.04C204.052 231.661 203.532 231.215 202.936 230.658C202.551 230.302 202.551 230.302 202.159 229.938C201.862 229.66 201.566 229.381 201.27 229.102C200.921 228.777 200.573 228.452 200.225 228.128C199.473 227.427 198.722 226.726 197.971 226.023C196.445 224.596 194.903 223.186 193.359 221.778C193.078 221.521 192.797 221.264 192.508 220.999C191.351 219.944 190.194 218.893 189.001 217.877C187.732 216.778 186.567 215.579 185.387 214.386C184.354 213.345 183.294 212.358 182.175 211.408C181.396 210.722 180.677 209.981 179.956 209.235C179.386 208.68 178.803 208.158 178.203 207.637C176.735 206.363 175.33 205.026 173.92 203.688C173.723 203.502 173.526 203.316 173.323 203.124C173.148 202.957 172.972 202.791 172.792 202.619C172.262 202.128 172.262 202.128 171.614 201.685C171.442 201.548 171.27 201.411 171.094 201.27C171.094 201.076 171.094 200.883 171.094 200.684C170.926 200.612 170.758 200.541 170.586 200.468C169.803 200.032 169.295 199.518 168.677 198.871C167.881 198.058 167.088 197.267 166.223 196.527C165.045 195.516 163.913 194.458 162.781 193.396C161.319 192.026 159.847 190.67 158.353 189.335C156.988 188.106 155.644 186.855 154.296 185.608C153.823 185.169 153.348 184.732 152.874 184.295C150.982 182.552 149.099 180.801 147.221 179.045C146.108 178.006 144.99 176.973 143.866 175.946C140.639 172.996 137.467 169.985 134.284 166.987C132.691 165.487 131.095 163.99 129.499 162.494C128.072 161.158 126.649 159.818 125.226 158.478C122.944 156.329 120.653 154.188 118.359 152.051C117.639 151.38 116.919 150.708 116.199 150.037C116.02 149.87 115.841 149.704 115.657 149.532C114.445 148.401 113.238 147.265 112.033 146.127C110.309 144.501 108.58 142.884 106.81 141.307C105.633 140.245 104.479 139.159 103.322 138.076C101.894 136.739 100.455 135.415 99.012 134.095C98.0852 133.248 97.1626 132.396 96.2402 131.543C94.5833 130.012 92.9215 128.487 91.2576 126.963C90.8121 126.555 90.367 126.146 89.922 125.738C88.573 124.499 87.2218 123.263 85.8582 122.04C83.7366 120.135 81.6499 118.192 79.5593 116.254C78.0729 114.877 76.583 113.508 75.0492 112.183C74.005 111.259 72.9873 110.307 71.969 109.354C71.2491 108.684 70.5368 108.053 69.7575 107.45C69.5539 107.28 69.3503 107.109 69.1406 106.934C69.1406 106.741 69.1406 106.547 69.1406 106.348C68.9729 106.277 68.8053 106.205 68.6325 106.132C67.8503 105.696 67.3423 105.182 66.7236 104.535C65.7378 103.527 64.7307 102.581 63.6612 101.664C62.7866 100.898 61.9359 100.108 61.084 99.3167C60.0695 98.3757 59.0547 97.4384 58.0078 96.5335C56.4759 95.2075 55.0004 93.8197 53.5144 92.4429C52.7622 91.7472 52.0069 91.0548 51.2512 90.3628C51.1074 90.2311 50.9636 90.0994 50.8155 89.9637C50.5258 89.6984 50.2361 89.4332 49.9465 89.1679C49.2153 88.4984 48.4846 87.8284 47.7539 87.1585C47.4609 86.8899 47.168 86.6214 46.875 86.3528C46.2891 85.8157 45.7031 85.2786 45.1172 84.7415C44.9723 84.6086 44.8273 84.4758 44.678 84.3389C44.3841 84.0695 44.0901 83.8 43.7963 83.5304C43.0792 82.8728 42.3615 82.2159 41.6428 81.56C39.8935 79.9621 38.1533 78.3547 36.4197 76.7398C36.1085 76.4516 36.1085 76.4516 35.7911 76.1576C35.5986 75.9777 35.4061 75.7978 35.2077 75.6125C35.0353 75.452 34.8628 75.2915 34.6851 75.1261C34.2773 74.7073 34.2773 74.7073 33.9844 74.1214C42.3867 70.9978 50.795 67.8917 59.2163 64.8196C59.411 64.7486 59.6057 64.6775 59.8063 64.6044C65.493 62.53 71.1814 60.4605 76.8708 58.3937C80.2876 57.1522 83.7021 55.9047 87.1136 54.649C87.7394 54.4188 88.366 54.191 88.9935 53.9656C89.6811 53.7102 90.3535 53.4436 91.0289 53.1596C91.2114 53.0863 91.394 53.0129 91.5821 52.9373C92.0932 52.7316 92.6014 52.5186 93.1093 52.3051C94.043 52.1487 94.043 52.1487 94.9782 52.6455ZM100.765 66.5397C100.522 66.6366 100.278 66.7336 100.027 66.8336C99.4956 67.045 98.9647 67.2568 98.4339 67.469C97.0013 68.0416 95.5674 68.6108 94.1334 69.1798C93.836 69.2978 93.5387 69.4158 93.2323 69.5374C90.1107 70.7744 86.9779 71.9821 83.844 73.1875C79.9779 74.6757 76.1199 76.1794 72.2781 77.7295C69.9898 78.6507 67.6949 79.554 65.3961 80.4488C65.0927 80.567 64.7893 80.6852 64.4766 80.807C62.9588 81.3982 61.4405 81.9881 59.9214 82.5762C59.3606 82.7944 58.7998 83.0126 58.239 83.2309C57.9842 83.329 57.7295 83.4271 57.467 83.5282C55.9398 84.1242 54.4831 84.7927 53.0273 85.5471C53.2207 85.9339 53.4141 86.3206 53.6133 86.719C55.3849 86.3745 57.0127 85.8926 58.6796 85.205C58.9055 85.1138 59.1314 85.0226 59.3641 84.9286C59.8496 84.7324 60.3347 84.5353 60.8195 84.3373C61.8628 83.9112 62.9081 83.4897 63.9532 83.0677C64.4947 82.849 65.0362 82.6301 65.5776 82.4109C68.2057 81.3473 70.842 80.3049 73.4802 79.2666C74.1692 78.9952 74.8581 78.7237 75.547 78.4523C76.0133 78.2685 76.4797 78.0848 76.946 77.901C78.6906 77.2136 80.4343 76.5239 82.1777 75.8334C82.7042 75.6249 83.2307 75.4165 83.7572 75.208C84.5487 74.8947 85.3402 74.5812 86.1315 74.2675C89.1279 73.0796 92.1278 71.9022 95.1359 70.7442C95.6952 70.5283 96.2545 70.3124 96.8138 70.0964C97.876 69.6863 98.9394 69.2792 100.003 68.8737C100.482 68.689 100.961 68.5042 101.44 68.3192C101.659 68.237 101.877 68.1549 102.102 68.0702C103.098 67.6826 103.92 67.3624 104.59 66.5042C104.187 66.0525 104.187 66.0525 103.711 65.6253C102.671 65.6253 101.72 66.1557 100.765 66.5397ZM72.0703 72.3635C72.0703 72.5569 72.0703 72.7503 72.0703 72.9495C74.3901 73.5102 74.3901 73.5102 76.7578 73.5354C77.7783 72.8343 78.3189 72.0281 78.8086 70.8987C78.8086 70.7053 78.8086 70.512 78.8086 70.3128C78.2267 70.1934 77.639 70.1024 77.0508 70.0198C76.8457 69.9862 76.6406 69.9526 76.4294 69.9179C74.3311 69.7179 73.2829 70.7181 72.0703 72.3635ZM72.7798 85.5883C71.0277 87.657 69.8885 89.8097 70.0195 92.5784C70.33 92.9552 70.33 92.9552 71.0461 92.9C71.3418 92.8966 71.6375 92.8932 71.9421 92.8897C72.2386 92.887 72.5351 92.8844 72.8405 92.8817C73.0697 92.8783 73.299 92.8749 73.5352 92.8714C73.5994 92.627 73.6636 92.3827 73.7297 92.1309C74.9401 87.8355 77.2139 84.9691 81.1295 82.7651C90.2873 78.2907 101.449 77.7279 111.136 80.8243C113.429 81.616 115.544 82.7577 117.532 84.1464C118.323 84.7514 118.323 84.7514 119.257 84.6499C120.135 84.3697 120.82 84.0116 121.582 83.4964C120.904 81.5958 118.61 80.8048 116.895 79.9807C113.218 78.334 109.438 77.3821 105.469 76.7581C105.186 76.7135 104.902 76.669 104.61 76.623C103.819 76.5295 103.043 76.4891 102.246 76.4651C102.031 76.4576 101.817 76.45 101.595 76.4422C91.4257 76.127 80.1107 77.9185 72.7798 85.5883ZM124.933 92.5784C124.691 92.6872 124.449 92.7959 124.199 92.908C124.012 92.9926 123.825 93.0772 123.633 93.1643C123.625 93.363 123.618 93.5616 123.61 93.7663C123.398 97.2361 122.256 99.7429 119.824 102.246C116.841 104.85 112.972 106.49 109.222 107.63C108.993 107.7 108.764 107.769 108.528 107.841C105.233 108.785 101.947 109.093 98.5291 109.076C97.9925 109.074 97.9925 109.074 97.4451 109.072C90.0872 108.977 82.4038 107.013 77.0508 101.66C76.0971 100.543 75.2445 99.3566 74.4141 98.1448C73.0786 98.3374 72.0864 98.6661 70.8984 99.3167C71.3292 102.112 73.3894 104.136 75.5859 105.762C79.7384 108.474 84.2003 110.126 89.0625 111.035C89.4771 111.114 89.4771 111.114 89.9001 111.193C92.4409 111.631 94.9501 111.739 97.522 111.731C97.7323 111.731 97.9425 111.731 98.1592 111.731C106.804 111.701 115.669 109.62 122.461 104.004C122.674 103.831 122.887 103.658 123.106 103.48C125.235 101.571 127.015 98.4933 127.198 95.6088C127.2 95.1964 127.2 95.1964 127.203 94.7757C127.208 94.5007 127.212 94.2258 127.216 93.9425C127.147 93.1468 126.968 92.6724 126.562 91.9925C125.989 91.9925 125.446 92.3473 124.933 92.5784ZM139.296 102.96C139.052 103.065 138.808 103.17 138.557 103.279C137.774 103.616 136.993 103.956 136.212 104.297C135.196 104.738 134.179 105.177 133.162 105.616C132.908 105.725 132.654 105.835 132.392 105.948C130.37 106.818 128.331 107.644 126.284 108.455C124.199 109.283 122.129 110.143 120.062 111.017C119.287 111.344 118.511 111.67 117.735 111.997C117.531 112.082 117.328 112.168 117.119 112.256C113.85 113.629 110.572 114.98 107.296 116.335C106.808 116.536 106.321 116.738 105.834 116.939C105.483 117.085 105.483 117.085 105.126 117.233C103.375 117.959 101.633 118.704 99.8957 119.462C98.7732 119.928 97.6334 120.318 96.476 120.687C95.6804 121.051 95.2105 121.522 94.6289 122.168C95.0862 122.675 95.5441 123.182 96.0022 123.688C96.2571 123.97 96.512 124.252 96.7747 124.543C97.5071 125.335 98.2552 126.099 99.0234 126.856C100.87 126.267 102.664 125.592 104.454 124.848C104.717 124.74 104.98 124.631 105.252 124.519C106.112 124.164 106.971 123.807 107.831 123.45C108.437 123.199 109.043 122.948 109.649 122.697C113.934 120.92 118.207 119.116 122.474 117.295C126.651 115.512 130.838 113.757 135.03 112.01C138.564 110.535 142.088 109.035 145.605 107.52C145.618 107 145.627 106.48 145.634 105.96C145.642 105.526 145.642 105.526 145.651 105.083C145.66 104.254 145.66 104.254 145.144 103.47C144.94 103.29 144.736 103.109 144.525 102.924C144.325 102.735 144.124 102.547 143.917 102.353C142.327 101.384 140.837 102.281 139.296 102.96ZM153.09 111.467C152.716 111.625 152.716 111.625 152.334 111.787C151.802 112.012 151.271 112.238 150.741 112.465C149.943 112.805 149.144 113.142 148.345 113.479C143.434 115.266 143.434 115.266 139.16 118.067C139.3 119.414 140.069 120.459 141.038 121.359C141.295 121.56 141.551 121.76 141.815 121.967C142.072 122.171 142.33 122.375 142.595 122.586C143.207 123.103 143.207 123.103 143.848 123.047C143.944 123.337 144.041 123.627 144.141 123.926C144.607 124.347 145.092 124.747 145.587 125.135C146.699 126.021 147.779 126.921 148.828 127.881C150.752 129.632 152.764 131.268 154.834 132.843C156.136 133.846 157.331 134.951 158.54 136.063C160.796 138.255 160.796 138.255 163.477 139.746C163.477 139.94 163.477 140.133 163.477 140.332C163.955 140.765 164.454 141.177 164.96 141.577C166.245 142.605 167.507 143.649 168.75 144.727C171.877 143.482 174.961 142.145 178.033 140.772C178.384 140.616 178.735 140.459 179.097 140.298C180.143 139.828 181.186 139.35 182.227 138.867C182.417 138.78 182.608 138.693 182.804 138.603C183.379 138.339 183.95 138.068 184.521 137.796C185.03 137.557 185.03 137.557 185.55 137.313C186.359 136.897 186.359 136.897 186.606 136.206C186.666 135.619 186.666 135.619 186.328 135.059C186.135 135.059 185.941 135.059 185.742 135.059C185.674 134.892 185.605 134.725 185.535 134.553C184.908 133.451 183.936 132.738 182.986 131.914C182.529 131.515 182.081 131.105 181.65 130.678C181.484 130.516 181.317 130.355 181.146 130.188C181.006 130.046 180.866 129.903 180.722 129.756C179.822 129.322 179.048 129.529 178.125 129.785C176.938 130.215 175.785 130.711 174.628 131.214C174.13 131.425 174.13 131.425 173.623 131.641C171.896 132.382 170.189 133.153 168.496 133.969C168.178 134.121 167.861 134.273 167.533 134.43C166.926 134.722 166.321 135.021 165.719 135.325C163.695 136.301 163.695 136.301 162.651 135.968C162.44 135.764 162.229 135.561 162.012 135.352C161.742 135.122 161.472 134.893 161.195 134.656C160.92 134.402 160.646 134.148 160.364 133.887C160.088 133.633 159.812 133.379 159.528 133.118C158.979 132.601 158.438 132.082 157.91 131.543C158.685 130.927 159.412 130.478 160.326 130.099C160.568 129.997 160.811 129.896 161.061 129.791C161.32 129.684 161.58 129.577 161.847 129.466C162.399 129.234 162.95 129.002 163.502 128.77C164.369 128.407 165.237 128.045 166.106 127.684C166.945 127.335 167.784 126.981 168.622 126.628C168.881 126.521 169.141 126.415 169.408 126.305C170.678 125.768 171.667 125.317 172.559 124.219C171.231 122.576 169.77 120.814 167.871 119.824C166.879 119.957 166.031 120.24 165.121 120.648C164.754 120.811 164.754 120.811 164.38 120.977C163.989 121.153 163.989 121.153 163.59 121.333C163.318 121.454 163.046 121.575 162.766 121.7C161.897 122.086 161.03 122.475 160.162 122.864C159.298 123.251 158.433 123.637 157.568 124.022C157.031 124.262 156.494 124.502 155.957 124.743C154.476 125.404 152.99 126.01 151.465 126.563C151.27 126.386 151.076 126.209 150.875 126.027C150.617 125.793 150.358 125.559 150.092 125.318C149.837 125.087 149.582 124.855 149.319 124.617C148.802 124.161 148.268 123.722 147.72 123.303C147.07 122.754 147.07 122.754 146.832 121.949C146.814 121.731 146.796 121.513 146.777 121.289C146.939 121.238 147.101 121.186 147.267 121.133C148.842 120.621 150.364 120.04 151.884 119.384C152.105 119.289 152.327 119.194 152.556 119.096C153.019 118.898 153.483 118.698 153.946 118.499C154.655 118.193 155.365 117.89 156.075 117.587C156.527 117.392 156.979 117.198 157.432 117.004C157.749 116.868 157.749 116.868 158.073 116.73C158.955 116.348 159.744 115.965 160.547 115.43C160.336 113.601 158.762 112.438 157.416 111.365C155.738 110.062 154.942 110.677 153.09 111.467ZM114.653 127.999C113.812 128.36 112.971 128.718 112.129 129.077C111.591 129.308 111.052 129.538 110.513 129.769C110.264 129.876 110.014 129.982 109.757 130.091C107.59 130.879 107.59 130.879 106.055 132.422C105.861 132.519 105.668 132.616 105.469 132.715C106.143 133.505 106.829 134.283 107.52 135.059C107.787 135.367 107.787 135.367 108.061 135.681C108.319 135.962 108.319 135.962 108.582 136.249C108.736 136.422 108.891 136.594 109.051 136.772C109.556 137.178 109.556 137.178 110.196 137.04C111.26 136.757 112.257 136.348 113.269 135.919C113.592 135.784 113.592 135.784 113.922 135.646C114.383 135.454 114.843 135.26 115.303 135.066C116.018 134.765 116.735 134.465 117.451 134.166C119.512 133.305 121.567 132.436 123.605 131.524C123.889 131.398 124.172 131.272 124.464 131.142C124.971 130.915 125.476 130.684 125.979 130.449C127.586 129.729 127.586 129.729 128.34 130.015C129.147 130.523 129.803 131.149 130.499 131.8C131.503 132.735 132.518 133.621 133.594 134.473C133.323 134.592 133.052 134.712 132.772 134.834C127.764 137.039 122.757 139.245 117.773 141.504C117.483 143.673 117.483 143.673 118.22 145.624C118.768 146.087 118.768 146.087 119.347 146.459C119.824 146.778 119.824 146.778 120.117 147.364C121.621 147.186 122.843 146.715 124.212 146.109C124.434 146.013 124.657 145.916 124.886 145.816C125.36 145.61 125.834 145.403 126.307 145.195C127.042 144.872 127.778 144.551 128.514 144.231C130.582 143.331 132.645 142.423 134.691 141.476C134.962 141.351 135.233 141.226 135.512 141.097C135.989 140.875 136.464 140.649 136.938 140.42C138.011 139.918 138.617 139.639 139.746 140.039C140.227 140.444 140.227 140.444 140.698 140.955C141.638 141.941 142.63 142.829 143.671 143.707C144.141 144.141 144.141 144.141 144.434 144.727C144.179 144.808 143.924 144.89 143.662 144.973C142.734 145.293 141.854 145.656 140.959 146.057C140.472 146.274 140.472 146.274 139.975 146.496C139.634 146.649 139.292 146.803 138.94 146.961C138.232 147.277 137.524 147.594 136.815 147.911C136.468 148.066 136.121 148.222 135.763 148.382C134.388 148.997 133.012 149.609 131.635 150.22C131.212 150.408 130.79 150.595 130.368 150.783C130.079 150.911 129.79 151.04 129.492 151.172C129.153 152.571 128.987 153.906 129.492 155.274C130.858 157.182 132.699 158.733 134.473 160.254C137.052 159.308 139.544 158.238 142.025 157.059C142.981 156.605 143.939 156.155 144.897 155.705C145.084 155.617 145.272 155.529 145.465 155.438C147.741 154.369 150.039 153.35 152.344 152.344C152.666 149.869 152.666 149.869 151.915 147.596C151.302 147.078 150.665 146.64 150 146.192C149.519 145.764 149.043 145.331 148.572 144.892C147.793 144.079 147.793 144.079 146.777 143.848C146.777 143.655 146.777 143.461 146.777 143.262C146.238 142.774 146.238 142.774 145.532 142.255C144.322 141.312 143.176 140.331 142.053 139.289C141.903 139.149 141.753 139.01 141.599 138.867C141.452 138.731 141.305 138.595 141.154 138.454C140.497 137.848 139.836 137.255 139.16 136.67C138.338 135.958 137.535 135.228 136.737 134.489C135.224 133.086 133.675 131.758 132.066 130.464C131.174 129.722 130.323 128.946 129.474 128.156C123.847 122.939 121.173 125.2 114.653 127.999Z" fill="black"/>
<path d="M30.7618 75.8789C32.3889 76.9838 33.7625 78.256 35.138 79.6594C36.0575 80.5955 37.003 81.4707 38.0002 82.3219C38.9264 83.1329 39.8232 83.9742 40.7228 84.8145C42.3053 86.2919 42.3053 86.2919 43.9271 87.7258C45.0732 88.7141 46.1738 89.7491 47.2779 90.7837C50.1786 93.5577 50.1786 93.5577 53.254 96.1281C53.4693 96.3101 53.6846 96.4921 53.9064 96.6797C53.9064 96.873 53.9064 97.0664 53.9064 97.2656C54.0771 97.34 54.2478 97.4144 54.4236 97.4911C55.1491 97.8906 55.6071 98.3327 56.1769 98.9319C56.9172 99.6912 57.6602 100.421 58.4657 101.111C59.6362 102.118 60.7632 103.168 61.8898 104.224C63.2262 105.476 64.5659 106.724 65.9181 107.959C67.238 109.166 68.5485 110.382 69.8548 111.603C71.2684 112.924 72.6829 114.244 74.1029 115.558C74.2479 115.692 74.3929 115.827 74.5423 115.966C75.3528 116.715 76.175 117.447 77.0085 118.171C78.2623 119.263 79.4706 120.4 80.6764 121.545C82.2245 123.009 83.7816 124.459 85.373 125.876C86.3826 126.788 87.3741 127.719 88.3668 128.65C90.0116 130.193 90.0116 130.193 91.6993 131.689C93.0419 132.844 94.3234 134.065 95.6153 135.276C96.8844 136.464 98.1673 137.635 99.463 138.794C101.418 140.554 103.344 142.345 105.258 144.15C105.47 144.349 105.681 144.548 105.899 144.753C106.314 145.144 106.728 145.536 107.141 145.928C107.33 146.106 107.519 146.285 107.714 146.468C107.882 146.627 108.049 146.786 108.222 146.949C108.737 147.422 108.737 147.422 109.57 147.949C109.57 148.143 109.57 148.336 109.57 148.535C109.735 148.604 109.9 148.672 110.069 148.742C110.908 149.215 111.467 149.801 112.134 150.494C113.208 151.592 114.304 152.622 115.47 153.62C116.196 154.261 116.867 154.95 117.546 155.641C118.086 156.171 118.646 156.666 119.22 157.159C120.254 158.05 121.21 158.997 122.167 159.969C122.922 160.713 123.72 161.398 124.524 162.088C125.294 162.772 126.011 163.502 126.725 164.243C127.14 164.68 127.14 164.68 127.734 164.941C127.734 165.135 127.734 165.328 127.734 165.527C127.896 165.593 128.058 165.658 128.224 165.725C129.12 166.235 129.729 166.892 130.444 167.633C131.56 168.776 132.703 169.859 133.918 170.896C134.703 171.59 135.43 172.336 136.157 173.09C136.728 173.644 137.311 174.167 137.912 174.688C139.159 175.772 140.361 176.897 141.559 178.033C143.524 179.891 145.501 181.734 147.492 183.564C148.28 184.289 149.067 185.016 149.854 185.742C150.171 186.035 150.488 186.327 150.805 186.62C151.443 187.21 152.082 187.799 152.72 188.389C154.836 190.344 156.957 192.293 159.082 194.238C161.053 196.043 163.021 197.85 164.983 199.663C166.481 201.046 167.984 202.424 169.487 203.801C170.366 204.606 171.244 205.411 172.122 206.216C172.839 206.874 173.557 207.531 174.275 208.186C175.974 209.738 177.658 211.303 179.334 212.878C180.81 214.266 182.297 215.637 183.808 216.987C185.549 218.56 187.253 220.174 188.965 221.777C189.715 222.48 190.466 223.181 191.217 223.883C191.493 224.14 191.493 224.14 191.774 224.403C192.877 225.432 193.985 226.454 195.099 227.472C196.537 228.786 197.962 230.113 199.384 231.445C199.586 231.635 199.789 231.825 199.998 232.02C200.188 232.199 200.379 232.378 200.575 232.562C200.744 232.721 200.914 232.88 201.088 233.044C201.323 233.268 201.323 233.268 201.563 233.496C201.729 233.611 201.895 233.727 202.066 233.845C202.693 234.729 202.485 235.718 202.409 236.752C202.396 236.988 202.382 237.224 202.368 237.467C202.324 238.225 202.273 238.983 202.222 239.74C202.192 240.238 202.162 240.735 202.133 241.233C201.965 244.027 201.768 246.818 201.563 249.609C200.233 249.124 199.523 248.534 198.541 247.504C197.475 246.404 196.393 245.356 195.227 244.362C194.018 243.298 192.853 242.186 191.683 241.08C190.947 240.387 190.235 239.72 189.418 239.122C189.269 239.006 189.119 238.889 188.965 238.77C188.965 238.576 188.965 238.383 188.965 238.184C188.8 238.115 188.636 238.047 188.466 237.976C187.627 237.504 187.069 236.918 186.401 236.224C185.334 235.133 184.244 234.11 183.085 233.118C182.297 232.42 181.566 231.671 180.835 230.914C180.264 230.359 179.682 229.837 179.081 229.316C177.834 228.232 176.631 227.107 175.433 225.97C173.899 224.519 172.358 223.076 170.801 221.649C169.501 220.457 168.245 219.23 167.007 217.974C166.241 217.22 165.434 216.524 164.619 215.824C163.889 215.178 163.214 214.486 162.531 213.792C161.998 213.267 161.444 212.779 160.877 212.292C159.995 211.533 159.167 210.74 158.35 209.912C157.544 209.096 156.73 208.315 155.859 207.568C154.749 206.616 153.73 205.59 152.703 204.549C151.92 203.777 151.098 203.063 150.263 202.348C149.713 201.861 149.196 201.354 148.682 200.83C147.407 199.535 146.032 198.36 144.643 197.19C144.429 197.007 144.215 196.825 143.994 196.637C143.798 196.472 143.601 196.307 143.399 196.137C142.969 195.703 142.969 195.703 142.969 195.117C142.813 195.058 142.658 194.999 142.497 194.938C141.492 194.354 140.769 193.551 139.966 192.719C138.743 191.472 137.511 190.273 136.179 189.142C135.375 188.435 134.637 187.666 133.886 186.904C133.324 186.351 132.745 185.834 132.147 185.321C131.271 184.568 130.45 183.781 129.639 182.959C128.839 182.149 128.032 181.373 127.167 180.634C125.968 179.606 124.872 178.49 123.763 177.367C122.962 176.576 122.124 175.843 121.269 175.111C120.664 174.575 120.098 174.013 119.531 173.438C118.805 172.7 118.068 172.002 117.279 171.332C115.987 170.223 114.806 169.013 113.61 167.804C112.576 166.763 111.517 165.776 110.398 164.826C109.593 164.117 108.853 163.348 108.101 162.584C107.558 162.05 107.001 161.553 106.421 161.06C105.368 160.156 104.393 159.19 103.418 158.203C102.29 157.061 101.143 155.974 99.9196 154.934C99.151 154.247 98.4288 153.517 97.7052 152.783C96.8167 151.883 95.9241 151.002 94.9586 150.183C93.6825 149.096 92.5221 147.901 91.3445 146.71C90.3106 145.669 89.2511 144.682 88.1322 143.732C87.328 143.024 86.5889 142.255 85.8377 141.492C85.2823 140.946 84.7107 140.436 84.1188 139.929C83.1837 139.126 82.3117 138.279 81.4454 137.402C80.591 136.538 79.7327 135.702 78.8087 134.912C77.6153 133.892 76.5264 132.781 75.4235 131.664C74.6218 130.873 73.7843 130.139 72.9287 129.408C72.3244 128.872 71.7581 128.31 71.1915 127.734C69.8872 126.412 68.5047 125.196 67.0728 124.014C66.8851 123.858 66.6974 123.702 66.504 123.541C66.3348 123.403 66.1656 123.266 65.9913 123.124C65.6251 122.754 65.6251 122.754 65.6251 122.168C65.4604 122.1 65.2958 122.031 65.1261 121.961C64.287 121.488 63.7289 120.903 63.0616 120.209C62.1777 119.305 61.2946 118.429 60.3334 117.609C59.4684 116.869 58.6607 116.093 57.8614 115.283C57.0799 114.491 56.2927 113.733 55.4444 113.013C54.1576 111.911 52.9832 110.706 51.7932 109.502C50.7677 108.47 49.7175 107.491 48.6066 106.55C47.6899 105.738 46.8438 104.857 45.9905 103.98C45.3958 103.37 45.3958 103.37 44.5314 102.832C44.5314 102.639 44.5314 102.445 44.5314 102.246C44.2934 102.153 44.2934 102.153 44.0507 102.057C43.1095 101.517 42.4204 100.77 41.6749 99.9939C40.5176 98.8113 39.3448 97.686 38.0838 96.6133C37.1072 95.7439 36.2037 94.8026 35.2937 93.8644C34.6431 93.2344 33.9853 92.738 33.2521 92.2119C32.2272 91.3175 32.0567 90.6319 31.8994 89.296C31.8551 88.9309 31.8108 88.5658 31.7652 88.1896C31.723 87.797 31.6816 87.4044 31.6407 87.0117C31.6198 86.8168 31.5988 86.6219 31.5772 86.421C31.4486 85.2127 31.3315 84.0036 31.221 82.7934C31.1639 82.17 31.1049 81.5467 31.0456 80.9235C31.0081 80.5206 30.9707 80.1178 30.9335 79.715C30.8838 79.1788 30.8838 79.1788 30.8332 78.6318C30.7671 77.7097 30.7486 76.8029 30.7618 75.8789Z" fill="black"/>
<path d="M268.945 202.148C268.551 205.629 268.117 209.103 267.629 212.572C267.553 213.112 267.48 213.653 267.409 214.194C267.304 214.988 267.193 215.781 267.08 216.574C267.049 216.815 267.019 217.056 266.987 217.304C266.954 217.529 266.921 217.753 266.887 217.984C266.846 218.278 266.846 218.278 266.805 218.577C266.303 219.967 265.008 220.596 263.755 221.221C263.413 221.393 263.071 221.565 262.719 221.743C262.341 221.93 261.963 222.117 261.585 222.304C261.185 222.504 260.786 222.703 260.387 222.903C259.303 223.446 258.218 223.986 257.132 224.525C255.99 225.094 254.848 225.664 253.707 226.235C251.785 227.195 249.861 228.154 247.937 229.111C245.488 230.33 243.041 231.551 240.593 232.773C238.471 233.833 236.348 234.892 234.226 235.95C233.775 236.175 233.324 236.4 232.873 236.625C223.777 241.162 223.777 241.162 219.282 243.29C217.432 244.166 215.599 245.074 213.771 245.996C213.49 246.138 213.209 246.28 212.92 246.426C211.859 246.961 210.798 247.498 209.738 248.037C208.935 248.445 208.13 248.85 207.326 249.256C206.961 249.442 206.961 249.442 206.588 249.633C206.251 249.802 206.251 249.802 205.908 249.975C205.613 250.124 205.613 250.124 205.313 250.276C204.785 250.488 204.785 250.488 203.906 250.488C204.262 247.094 204.628 243.701 205.005 240.309C205.071 239.713 205.136 239.117 205.201 238.521C205.301 237.621 205.408 236.721 205.518 235.822C205.545 235.566 205.573 235.311 205.601 235.048C205.646 234.701 205.646 234.701 205.692 234.346C205.715 234.151 205.738 233.957 205.762 233.756C206.229 232.434 207.364 231.849 208.571 231.266C208.851 231.136 208.851 231.136 209.136 231.002C209.434 230.859 209.434 230.859 209.739 230.713C210.169 230.508 210.599 230.303 211.03 230.099C212.191 229.55 213.348 228.993 214.506 228.437C214.744 228.322 214.983 228.208 215.229 228.09C217.695 226.906 220.14 225.681 222.583 224.451C225.539 222.965 228.503 221.504 231.493 220.09C234.035 218.883 236.548 217.62 239.062 216.357C242.086 214.839 245.115 213.337 248.172 211.887C250.522 210.772 252.862 209.637 255.201 208.499C256.941 207.652 258.681 206.807 260.422 205.962C261.015 205.674 261.608 205.386 262.201 205.097C263.234 204.595 264.267 204.095 265.302 203.595C265.606 203.447 265.911 203.298 266.225 203.145C266.501 203.012 266.776 202.879 267.06 202.742C267.418 202.569 267.418 202.569 267.783 202.392C268.359 202.148 268.359 202.148 268.945 202.148Z" fill="black"/>
<path d="M143.072 103.04C143.231 103.165 143.39 103.289 143.555 103.418C143.772 103.575 143.99 103.732 144.214 103.894C144.383 104.027 144.552 104.16 144.727 104.297C144.434 105.176 144.434 105.176 143.728 105.569C143.259 105.768 143.259 105.768 142.781 105.971C142.43 106.122 142.078 106.272 141.716 106.428C141.328 106.59 140.94 106.753 140.552 106.915C140.149 107.086 139.747 107.257 139.345 107.429C138.113 107.952 136.879 108.469 135.645 108.984C135.296 109.13 134.948 109.275 134.589 109.425C132.703 110.212 130.815 110.992 128.925 111.769C126.414 112.801 123.907 113.841 121.399 114.88C121.149 114.984 120.899 115.087 120.642 115.194C115.722 117.233 110.809 119.288 105.899 121.351C105.188 121.649 104.475 121.944 103.763 122.24C103.029 122.545 102.305 122.86 101.581 123.19C101.195 123.362 101.195 123.362 100.801 123.538C100.596 123.634 100.392 123.73 100.181 123.829C99.3385 123.971 98.94 123.629 98.2544 123.156C97.6753 122.651 97.6753 122.651 97.2656 122.168C97.2656 121.974 97.2656 121.781 97.2656 121.582C97.59 121.453 97.9144 121.325 98.2487 121.193C102.171 119.635 106.072 118.026 109.97 116.408C111.549 115.752 113.128 115.099 114.708 114.446C116.512 113.701 118.314 112.954 120.117 112.207C120.315 112.125 120.512 112.043 120.716 111.959C121.988 111.431 123.26 110.903 124.531 110.375C124.968 110.193 125.406 110.011 125.844 109.83C128.54 108.712 131.225 107.572 133.899 106.405C134.706 106.054 135.513 105.704 136.32 105.355C136.844 105.126 137.367 104.896 137.889 104.665C138.616 104.342 139.346 104.025 140.076 103.71C140.401 103.563 140.401 103.563 140.733 103.413C142.213 102.781 142.213 102.781 143.072 103.04Z" fill="black"/>
<path d="M146.802 145.225C147.376 145.614 147.871 146.02 148.375 146.496C148.647 146.751 148.647 146.751 148.924 147.011C149.11 147.188 149.296 147.365 149.487 147.547C149.773 147.815 149.773 147.815 150.064 148.089C150.532 148.53 150.999 148.972 151.465 149.415C150.504 150.201 149.472 150.728 148.352 151.246C148.149 151.34 147.946 151.435 147.737 151.533C143.638 153.429 139.488 155.218 135.352 157.032C134.061 156.093 132.829 155.17 131.726 154.01C130.982 153.214 130.982 153.214 130.078 152.637C130.078 152.444 130.078 152.25 130.078 152.051C130.42 151.903 130.42 151.903 130.769 151.753C131.457 151.455 132.144 151.158 132.832 150.86C133.625 150.517 134.418 150.175 135.211 149.833C137.163 148.99 139.108 148.138 141.04 147.252C141.373 147.1 141.705 146.949 142.048 146.794C142.677 146.507 143.304 146.216 143.929 145.921C144.352 145.73 144.352 145.73 144.784 145.534C145.151 145.363 145.151 145.363 145.526 145.189C146.191 145.02 146.191 145.02 146.802 145.225Z" fill="black"/>
<path d="M180.176 130.957C180.919 131.521 180.919 131.521 181.659 132.22C181.904 132.449 182.149 132.677 182.402 132.913C183.034 133.524 183.656 134.143 184.277 134.765C181.232 136.316 178.166 137.803 175.045 139.196C174.601 139.395 174.158 139.596 173.716 139.799C173.065 140.098 172.412 140.391 171.758 140.682C171.56 140.774 171.363 140.866 171.16 140.96C169.801 141.554 169.801 141.554 168.969 141.312C168.094 140.638 167.288 139.913 166.479 139.16C166.303 139 166.127 138.84 165.945 138.675C165.501 138.263 165.073 137.834 164.648 137.402C164.648 137.209 164.648 137.015 164.648 136.816C164.866 136.723 165.084 136.631 165.308 136.535C166.146 136.179 166.983 135.821 167.82 135.464C168.195 135.304 168.57 135.144 168.945 134.984C170.858 134.169 172.766 133.35 174.649 132.47C174.914 132.346 175.179 132.223 175.453 132.096C175.941 131.867 176.429 131.634 176.915 131.397C178.977 130.431 178.977 130.431 180.176 130.957Z" fill="black"/>
<path d="M135.059 135.059C136.661 136.346 136.661 136.346 137.109 136.816C137.109 137.106 137.109 137.396 137.109 137.695C136.92 137.775 136.731 137.854 136.536 137.935C135.622 138.318 134.708 138.703 133.795 139.087C133.457 139.229 133.119 139.371 132.77 139.517C130.925 140.297 129.089 141.093 127.266 141.925C126.997 142.047 126.997 142.047 126.722 142.172C125.85 142.568 124.98 142.968 124.112 143.372C123.797 143.516 123.483 143.659 123.159 143.806C122.882 143.935 122.605 144.063 122.32 144.195C121.517 144.455 121.184 144.448 120.41 144.141C119.847 143.792 119.847 143.792 119.312 143.39C119.132 143.257 118.952 143.123 118.767 142.986C118.632 142.884 118.498 142.781 118.359 142.676C119.261 141.697 120.313 141.267 121.52 140.758C121.862 140.611 121.862 140.611 122.21 140.461C122.94 140.147 123.671 139.837 124.402 139.526C124.878 139.322 125.354 139.118 125.83 138.913C128.894 137.599 131.972 136.32 135.059 135.059Z" fill="black"/>
<path d="M123.633 125.098C124.026 125.369 124.416 125.644 124.805 125.922C125.131 126.151 125.131 126.151 125.464 126.385C125.718 126.618 125.718 126.618 125.977 126.855C125.977 127.146 125.977 127.436 125.977 127.734C125.825 127.798 125.673 127.861 125.516 127.927C123.924 128.592 122.331 129.257 120.739 129.923C120.146 130.171 119.553 130.419 118.96 130.666C118.104 131.024 117.248 131.382 116.392 131.74C116.13 131.849 115.868 131.958 115.598 132.071C115.346 132.177 115.094 132.282 114.835 132.391C114.471 132.542 114.471 132.542 114.099 132.697C113.611 132.908 113.126 133.128 112.646 133.358C112.415 133.468 112.184 133.578 111.945 133.691C111.742 133.792 111.538 133.893 111.327 133.997C110.619 134.218 110.26 134.138 109.57 133.887C108.911 133.452 108.395 132.965 107.812 132.422C107.812 132.229 107.812 132.035 107.812 131.836C108.123 131.714 108.434 131.593 108.754 131.467C112.142 130.132 115.501 128.733 118.854 127.313C119.073 127.221 119.293 127.128 119.519 127.032C120.147 126.767 120.775 126.501 121.402 126.234C121.594 126.153 121.785 126.072 121.982 125.989C122.873 125.648 122.873 125.648 123.633 125.098Z" fill="black"/>
<path d="M167.656 121.037C168.541 121.476 169.184 122.1 169.922 122.754C169.16 123.355 168.434 123.818 167.547 124.212C167.313 124.316 167.079 124.421 166.838 124.529C166.588 124.639 166.338 124.749 166.08 124.862C165.69 125.034 165.69 125.034 165.292 125.211C164.742 125.453 164.193 125.695 163.642 125.936C162.804 126.304 161.967 126.676 161.131 127.049C160.596 127.284 160.06 127.52 159.525 127.755C159.276 127.866 159.028 127.977 158.772 128.091C157.396 128.689 156.19 129.104 154.688 129.199C153.86 128.827 153.343 128.325 152.637 127.734C153.377 126.867 154.167 126.519 155.21 126.083C155.551 125.939 155.892 125.795 156.243 125.646C156.609 125.494 156.976 125.341 157.343 125.189C158.088 124.876 158.833 124.562 159.578 124.248C159.762 124.171 159.946 124.094 160.136 124.014C161.23 123.552 162.315 123.075 163.393 122.578C163.634 122.467 163.874 122.356 164.123 122.242C164.56 122.039 164.996 121.834 165.43 121.625C166.817 120.985 166.817 120.985 167.656 121.037Z" fill="black"/>
<path d="M156.738 111.914C157.562 112.482 157.562 112.482 158.203 113.086C158.203 113.279 158.203 113.473 158.203 113.672C155.551 114.87 152.897 116.061 150.239 117.244C149.751 117.461 149.264 117.678 148.777 117.896C148.008 118.237 147.238 118.574 146.466 118.909C146.244 119.008 146.021 119.107 145.792 119.21C144.713 119.671 144.085 119.913 142.969 119.531C142.406 119.182 142.406 119.182 141.87 118.781C141.69 118.647 141.511 118.514 141.325 118.377C141.191 118.274 141.056 118.172 140.918 118.067C141.638 117.347 142.29 117.119 143.234 116.737C143.589 116.592 143.944 116.447 144.309 116.297C144.693 116.142 145.076 115.988 145.459 115.833C146.235 115.517 147.01 115.201 147.784 114.884C147.976 114.806 148.167 114.727 148.364 114.647C150.168 113.904 151.947 113.106 153.7 112.25C154.829 111.723 155.547 111.472 156.738 111.914Z" fill="black"/>
</svg>
