<svg width="300" height="300" viewBox="0 0 300 300" fill="none" xmlns="http://www.w3.org/2000/svg">
<path d="M129.593 57.0527C130.106 57.0519 130.62 57.0508 131.134 57.0496C132.511 57.0469 133.889 57.0479 135.267 57.0498C136.718 57.0513 138.169 57.0499 139.62 57.049C142.054 57.0479 144.487 57.0493 146.921 57.0521C149.726 57.0553 152.53 57.0542 155.334 57.051C157.754 57.0484 160.174 57.048 162.594 57.0495C164.034 57.0504 165.474 57.0506 166.914 57.0486C168.267 57.0469 169.621 57.0481 170.974 57.0515C171.468 57.0523 171.961 57.0521 172.454 57.0507C179.783 57.0332 186.47 58.3845 192.187 63.2808C192.425 63.4761 192.662 63.6713 192.907 63.8725C198.319 68.4866 201.169 75.0355 201.855 82.0308C201.881 82.8302 201.895 83.6217 201.893 84.4208C201.893 84.6507 201.894 84.8806 201.894 85.1175C201.896 85.8855 201.895 86.6535 201.894 87.4216C201.895 87.9788 201.895 88.5359 201.896 89.0931C201.898 90.6226 201.898 92.152 201.898 93.6815C201.898 95.3317 201.899 96.9819 201.901 98.6321C201.903 101.865 201.904 105.098 201.904 108.33C201.904 110.959 201.905 113.587 201.906 116.215C201.908 122.456 201.91 128.697 201.909 134.939C201.909 135.138 201.909 135.338 201.909 135.543C201.909 136.555 201.909 137.566 201.909 138.577C201.909 138.878 201.909 138.878 201.909 139.186C201.909 139.592 201.909 139.998 201.909 140.404C201.909 146.72 201.911 153.035 201.915 159.351C201.92 166.451 201.922 173.551 201.922 180.65C201.922 184.408 201.923 188.165 201.926 191.923C201.929 195.123 201.929 198.322 201.927 201.522C201.926 203.154 201.926 204.786 201.929 206.417C201.931 207.913 201.931 209.409 201.928 210.905C201.928 211.444 201.928 211.983 201.93 212.522C201.952 220.482 200.674 228.015 195.117 234.082C194.926 234.299 194.735 234.517 194.539 234.741C189.976 239.653 183.313 242.461 176.65 242.711C175.424 242.735 174.199 242.732 172.973 242.725C172.421 242.726 171.868 242.727 171.316 242.729C169.831 242.734 168.347 242.73 166.863 242.725C165.3 242.721 163.737 242.723 162.173 242.724C159.55 242.725 156.927 242.721 154.303 242.714C151.282 242.707 148.262 242.706 145.241 242.71C142.319 242.713 139.397 242.711 136.475 242.707C135.238 242.705 134.002 242.705 132.766 242.706C131.307 242.708 129.848 242.705 128.389 242.699C127.858 242.697 127.326 242.697 126.795 242.698C118.914 242.717 111.817 240.933 106.054 235.253C105.786 235.017 105.786 235.017 105.512 234.775C102.19 231.757 99.9817 227.107 98.9314 222.821C98.8847 222.632 98.8379 222.444 98.7897 222.25C97.9545 218.5 98.1017 214.56 98.1069 210.74C98.1065 210.195 98.1061 209.651 98.1055 209.107C98.1043 207.621 98.1049 206.135 98.1058 204.649C98.1065 203.042 98.1054 201.436 98.1046 199.829C98.1033 196.686 98.1036 193.543 98.1044 190.4C98.1051 187.845 98.1052 185.29 98.1049 182.734C98.1048 182.37 98.1048 182.006 98.1047 181.631C98.1047 180.891 98.1046 180.151 98.1045 179.411C98.1036 172.677 98.1045 165.942 98.106 159.208C98.1074 153.067 98.1073 146.926 98.1059 140.785C98.1043 133.877 98.1037 126.97 98.1046 120.062C98.1047 119.325 98.1048 118.588 98.1049 117.851C98.1049 117.488 98.105 117.125 98.105 116.752C98.1053 114.201 98.1048 111.649 98.1042 109.098C98.1033 105.988 98.1036 102.877 98.1051 99.767C98.1059 98.181 98.1062 96.5951 98.1052 95.0092C98.1043 93.5555 98.1048 92.1019 98.1064 90.6482C98.1067 90.1242 98.1065 89.6003 98.1058 89.0763C98.0958 81.1277 98.0958 81.1277 98.9497 77.7462C99.0012 77.5372 99.0526 77.3283 99.1056 77.1131C100.837 70.3762 105.045 64.4704 111.028 60.883C116.913 57.5681 122.969 57.0351 129.593 57.0527ZM113.964 69.7261C113.779 69.8545 113.593 69.9829 113.401 70.1152C110.376 72.419 108.601 76.0397 107.812 79.6871C107.552 81.6859 107.59 83.7074 107.59 85.7194C107.585 86.3142 107.579 86.9091 107.572 87.5039C107.557 89.1067 107.551 90.7094 107.548 92.3123C107.545 93.3159 107.541 94.3195 107.536 95.3231C107.519 98.8303 107.51 102.337 107.508 105.845C107.506 109.105 107.486 112.365 107.457 115.626C107.433 118.434 107.422 121.242 107.422 124.051C107.421 125.724 107.415 127.397 107.396 129.071C107.377 130.644 107.376 132.217 107.388 133.79C107.389 134.365 107.384 134.94 107.373 135.515C107.298 139.191 107.298 139.191 109.034 142.316C109.629 142.928 110.248 143.498 110.897 144.052C111.543 144.624 112.1 145.266 112.664 145.916C113.382 146.718 114.103 147.515 114.833 148.305C114.981 148.465 115.128 148.625 115.28 148.789C115.57 149.102 115.859 149.414 116.15 149.726C117.527 151.217 117.52 152.168 117.509 154.149C117.508 154.415 117.508 154.681 117.507 154.955C117.506 155.805 117.502 156.656 117.498 157.507C117.497 158.083 117.496 158.659 117.494 159.235C117.491 160.649 117.486 162.062 117.48 163.476C116.369 162.543 115.282 161.617 114.296 160.55C114.105 160.344 113.913 160.138 113.716 159.926C113.52 159.714 113.324 159.502 113.122 159.283C112.711 158.842 112.299 158.401 111.887 157.96C111.691 157.75 111.495 157.54 111.292 157.323C109.739 155.671 109.739 155.671 108.105 154.101C108.008 154.101 107.912 154.101 107.812 154.101C107.785 162.471 107.765 170.841 107.752 179.211C107.751 180.201 107.749 181.191 107.748 182.18C107.747 182.377 107.747 182.574 107.747 182.777C107.742 185.961 107.732 189.145 107.722 192.329C107.711 195.6 107.704 198.87 107.702 202.141C107.7 203.976 107.697 205.812 107.688 207.647C107.68 209.377 107.678 211.107 107.68 212.836C107.679 213.469 107.677 214.102 107.672 214.735C107.634 220.348 108.393 224.759 112.367 228.996C115.587 232.093 119.577 233.593 124.016 233.574C124.246 233.575 124.476 233.577 124.713 233.578C125.476 233.582 126.239 233.581 127.002 233.581C127.552 233.583 128.102 233.585 128.653 233.587C130.142 233.592 131.632 233.593 133.122 233.594C134.055 233.594 134.987 233.595 135.92 233.597C139.179 233.602 142.438 233.605 145.697 233.604C148.726 233.604 151.755 233.61 154.784 233.619C157.391 233.627 159.999 233.63 162.606 233.63C164.161 233.63 165.715 233.631 167.269 233.637C168.733 233.643 170.196 233.643 171.659 233.639C172.193 233.638 172.727 233.64 173.261 233.643C178.893 233.678 183.763 232.666 188.001 228.657C190.913 225.497 192.237 221.848 192.222 217.622C192.223 217.351 192.223 217.079 192.223 216.799C192.224 215.889 192.222 214.978 192.22 214.068C192.22 213.415 192.22 212.763 192.22 212.11C192.221 210.338 192.219 208.566 192.217 206.794C192.215 204.942 192.215 203.09 192.214 201.238C192.214 198.13 192.212 195.022 192.209 191.913C192.206 188.712 192.204 185.51 192.203 182.309C192.203 182.112 192.203 181.914 192.203 181.711C192.203 180.721 192.202 179.73 192.202 178.74C192.199 170.527 192.194 162.314 192.187 154.101C191.857 154.383 191.527 154.665 191.198 154.946C191.014 155.103 190.83 155.26 190.641 155.422C189.166 156.699 187.881 158.133 186.614 159.611C185.682 160.645 184.676 161.603 183.674 162.567C183.039 163.115 183.039 163.115 183.105 163.769C182.912 163.769 182.718 163.769 182.519 163.769C182.496 162.034 182.49 160.299 182.499 158.564C182.5 157.975 182.497 157.386 182.488 156.797C182.413 151.278 182.413 151.278 184.056 149.249C184.507 148.802 184.97 148.366 185.449 147.949C185.726 147.66 186.002 147.369 186.275 147.076C186.498 146.862 186.721 146.649 186.95 146.429C187.984 145.416 188.988 144.4 189.909 143.283C190.429 142.675 190.429 142.675 190.964 142.165C192.981 140.05 192.758 137.689 192.717 134.956C192.717 134.442 192.718 133.928 192.72 133.413C192.722 132.021 192.711 130.628 192.698 129.236C192.686 127.771 192.686 126.305 192.684 124.84C192.68 122.375 192.668 119.91 192.651 117.445C192.627 113.992 192.616 110.539 192.608 107.086C192.602 104.383 192.592 101.679 192.581 98.9761C192.58 98.6907 192.578 98.4054 192.577 98.1113C192.555 90.34 192.555 90.34 192.358 82.5716C192.349 82.3012 192.339 82.0307 192.33 81.752C192.118 77.0613 190.039 73.2121 186.621 70.0191C183.607 67.7451 180.71 66.4594 176.933 66.4604C176.696 66.4593 176.459 66.4582 176.215 66.4571C175.423 66.4539 174.631 66.4527 173.839 66.4516C173.27 66.4498 172.702 66.4478 172.133 66.4458C170.267 66.4396 168.4 66.4366 166.534 66.4337C165.89 66.4325 165.247 66.4313 164.603 66.4301C161.579 66.4245 158.554 66.4203 155.53 66.4179C152.044 66.415 148.558 66.4073 145.072 66.3955C142.374 66.3866 139.677 66.3823 136.979 66.3813C135.37 66.3806 133.76 66.378 132.151 66.3706C130.635 66.3638 129.119 66.3626 127.603 66.3656C127.049 66.3657 126.495 66.3639 125.941 66.3598C121.347 66.3282 117.771 66.9507 113.964 69.7261Z" fill="black"/>
<path d="M166.698 87.3043C167.716 88.1432 168.676 89.0289 169.628 89.941C169.851 90.1423 170.074 90.3436 170.304 90.551C175.358 95.2717 178.048 102.381 178.395 109.191C178.618 116.466 176.037 123.566 171.093 128.906C170.874 129.151 170.656 129.397 170.43 129.65C165.685 134.717 158.92 137.791 152 138.089C143.901 138.278 136.513 136.059 130.501 130.494C125.206 125.365 122.008 118.272 121.792 110.909C121.69 103.336 124.445 96.4573 129.491 90.8199C129.649 90.6379 129.807 90.4558 129.97 90.2683C139.244 80.2484 155.933 79.2802 166.698 87.3043ZM136.23 96.9722C136.022 97.1735 135.814 97.3748 135.6 97.5822C132.013 101.286 130.806 106.024 130.853 111.048C131.006 116.323 133.361 120.646 137.145 124.255C141.558 127.981 146.549 129.35 152.265 128.973C157.223 128.474 161.78 126.031 165.048 122.296C166.8 120.127 167.921 117.784 168.749 115.136C168.821 114.918 168.893 114.7 168.967 114.476C170.246 109.857 169.144 104.971 166.956 100.846C164.254 96.2111 160.121 93.0999 154.982 91.6187C147.984 89.9282 141.283 91.8585 136.23 96.9722Z" fill="black"/>
<path d="M139.655 155.731C141.534 157.074 143.08 159.082 143.493 161.392C143.78 164.228 143.566 166.686 141.942 169.119C140.243 171.196 138.061 172.816 135.352 173.145C132.572 173.418 130.315 172.616 128.05 171.015C126.45 169.681 125.202 167.883 124.805 165.82C124.573 163.227 124.613 161.045 125.977 158.789C126.134 158.487 126.292 158.185 126.453 157.874C129.826 153.791 135.187 153.044 139.655 155.731Z" fill="black"/>
<path d="M171.168 155.786C173.396 157.619 174.924 159.643 175.308 162.575C175.416 165.347 174.653 168.064 172.852 170.215C170.855 172.098 168.406 173.175 165.656 173.291C163.038 173.179 160.662 172.035 158.79 170.215C156.577 167.475 156.152 164.91 156.446 161.426C156.699 160.437 157.076 159.65 157.618 158.789C157.739 158.585 157.86 158.381 157.984 158.171C159.296 156.189 161.234 154.931 163.514 154.285C166.305 153.835 168.816 154.108 171.168 155.786Z" fill="black"/>
<path d="M170.123 184.166C172.642 185.672 174.206 187.607 175.079 190.414C175.674 193.513 174.977 196.122 173.254 198.706C171.897 200.407 169.708 201.723 167.578 202.149C164.82 202.409 162.416 202.063 160.104 200.47C158.311 198.986 156.88 197.157 156.445 194.825C156.184 191.711 156.552 188.998 158.551 186.512C159.64 185.368 160.875 184.636 162.304 183.985C162.532 183.877 162.76 183.77 162.994 183.66C165.258 182.897 167.978 183.157 170.123 184.166Z" fill="black"/>
<path d="M139.16 184.57C141.182 185.933 142.448 187.675 143.353 189.917C143.909 192.949 143.654 195.687 142.016 198.349C140.592 200.193 138.215 201.683 135.937 202.148C133.245 202.426 130.926 201.981 128.69 200.414C126.374 198.476 125.147 196.519 124.804 193.505C124.688 190.691 125.464 188.528 127.304 186.393C130.469 182.99 135.044 182.423 139.16 184.57Z" fill="black"/>
</svg>
