<svg width="300" height="300" viewBox="0 0 300 300" fill="none" xmlns="http://www.w3.org/2000/svg">
<path d="M112.207 130.664C113.086 130.664 113.086 130.664 113.777 131.318C114.032 131.586 114.288 131.853 114.551 132.128C122.409 138.815 132.349 140.754 142.425 139.956C147.385 139.367 151.815 137.402 156.006 134.747C163.65 129.948 172.934 129.653 181.575 131.553C193.54 134.304 193.54 134.304 195.996 137.988C195.738 138.794 195.453 139.519 195.108 140.287C194.958 140.634 194.958 140.634 194.804 140.989C194.587 141.491 194.368 141.991 194.147 142.492C193.676 143.558 193.213 144.629 192.751 145.699C192.514 146.246 192.276 146.793 192.039 147.34C190.988 149.758 189.979 152.191 188.983 154.632C188.649 155.448 188.315 156.263 187.981 157.078C187.896 157.284 187.811 157.491 187.724 157.704C186.728 160.125 185.715 162.539 184.702 164.953C180.941 173.917 177.217 182.896 173.575 191.91C171.613 196.765 169.61 201.604 167.595 206.438C167.01 207.843 166.428 209.25 165.85 210.658C165.502 211.506 165.152 212.354 164.801 213.201C164.64 213.591 164.481 213.981 164.321 214.371C164.104 214.904 163.884 215.436 163.663 215.968C163.541 216.264 163.42 216.561 163.294 216.866C162.364 218.731 161.268 219.594 159.375 220.312C157.164 220.862 154.981 221.002 152.71 220.99C152.392 220.988 152.075 220.986 151.747 220.985C132.599 220.703 107.663 211.562 94.1173 197.641C92.685 195.978 91.9024 194.168 91.9345 191.952C92.0332 190.848 92.3905 189.86 92.7657 188.823C92.8471 188.588 92.9285 188.354 93.0124 188.112C93.1879 187.608 93.365 187.105 93.5435 186.602C93.8287 185.799 94.1095 184.995 94.3891 184.19C94.7729 183.086 95.158 181.982 95.5439 180.878C96.3275 178.63 97.0828 176.373 97.8332 174.115C97.9379 173.8 97.9379 173.8 98.0448 173.479C98.9309 170.819 99.8049 168.154 100.671 165.487C100.762 165.206 100.854 164.926 100.947 164.637C101.322 163.484 101.696 162.332 102.07 161.18C103.395 157.102 104.757 153.039 106.156 148.986C108.03 143.555 109.799 138.09 111.565 132.622C111.776 131.968 111.99 131.315 112.207 130.664Z" fill="black"/>
<path d="M138.702 61.7067C139.056 61.707 139.056 61.707 139.417 61.7074C165.632 61.8006 198.209 74.1236 217.968 91.1134C218.217 91.3196 218.466 91.5258 218.723 91.7382C221.679 94.2645 224.7 97.7917 225.414 101.746C225.666 105.203 224.194 108.191 222.9 111.323C222.638 111.957 222.378 112.591 222.118 113.225C221.081 115.75 220.034 118.271 218.982 120.789C217.855 123.488 216.743 126.194 215.636 128.902C213.787 133.427 211.908 137.941 210.016 142.449C208.347 146.426 206.698 150.411 205.065 154.402C203.553 158.097 202.031 161.786 200.5 165.473C198.993 169.102 197.49 172.733 195.996 176.367C192.865 183.98 189.707 191.582 186.538 199.18C185.077 202.681 183.626 206.186 182.179 209.693C181.825 210.549 181.472 211.405 181.118 212.261C180.059 214.824 179.001 217.388 177.95 219.954C177.5 221.052 177.048 222.15 176.597 223.247C176.386 223.761 176.175 224.275 175.966 224.789C171.961 234.612 171.961 234.612 166.874 236.884C151.438 243.051 129.136 234.46 114.753 228.31C111.606 226.94 108.512 225.465 105.434 223.949C104.646 223.563 103.856 223.184 103.065 222.806C96.4227 219.607 89.7694 215.701 84.3815 210.616C83.8534 210.12 83.3109 209.668 82.745 209.216C79.2209 206.198 76.4631 201.81 75.8786 197.168C75.7236 194.838 75.9616 192.806 76.6293 190.576C76.7173 190.272 76.8052 189.968 76.8959 189.655C78.008 185.914 79.3023 182.23 80.5745 178.541C81.8977 174.703 83.1804 170.855 84.4296 166.992C84.7686 165.945 85.1077 164.898 85.447 163.851C85.5704 163.47 85.5704 163.47 85.6962 163.081C86.5241 160.529 87.3694 157.983 88.2199 155.438C88.2914 155.224 88.363 155.01 88.4367 154.79C88.7945 153.719 89.1527 152.649 89.5111 151.578C90.1687 149.614 90.8233 147.648 91.4782 145.682C91.6992 145.019 91.9205 144.355 92.1417 143.692C92.7883 141.753 93.4346 139.814 94.0783 137.874C95.8323 132.588 97.6112 127.311 99.4076 122.04C101.495 115.915 103.553 109.78 105.592 103.639C106.139 101.994 106.687 100.349 107.238 98.7054C108.525 94.858 109.804 91.008 111.061 87.1503C111.165 86.8317 111.269 86.5131 111.376 86.1848C111.888 84.6136 112.399 83.0422 112.908 81.4703C113.757 78.8551 114.612 76.2418 115.513 73.644C115.581 73.4455 115.648 73.2471 115.718 73.0426C116.925 69.6124 119.378 66.9586 122.577 65.2498C123.408 64.8604 124.247 64.506 125.097 64.1603C125.276 64.0861 125.454 64.012 125.638 63.9355C126.225 63.6937 126.814 63.4592 127.404 63.2264C127.583 63.1532 127.762 63.0799 127.947 63.0044C131.383 61.6912 135.076 61.697 138.702 61.7067ZM127.148 71.7775C126.482 72.595 126.482 72.595 126.58 73.4826C126.917 74.6244 127.506 75.3053 128.32 76.1354C128.539 76.365 128.539 76.365 128.762 76.5992C145.937 94.4022 178.432 103.728 204.84 105.103C205.354 105.122 205.354 105.122 205.878 105.142C211.004 105.295 211.004 105.295 215.918 104.004C216.607 103.45 216.607 103.45 216.522 102.521C215.833 98.7379 211.096 95.9166 208.176 93.879C189.405 80.9995 151.31 62.6637 127.148 71.7775ZM121.875 81.7384C121.803 81.952 121.732 82.1657 121.659 82.3858C121.554 82.699 121.45 83.0122 121.343 83.3348C121.253 83.603 121.253 83.603 121.162 83.8765C120.802 84.9571 120.442 86.0376 120.081 87.1181C119.185 89.8058 118.289 92.4938 117.395 95.1823C116.824 96.899 116.253 98.6156 115.682 100.332C115.324 101.406 114.967 102.48 114.61 103.554C113.12 108.039 111.617 112.52 110.083 116.99C106.839 126.442 103.698 135.93 100.54 145.412C99.9304 147.242 99.3203 149.072 98.71 150.901C93.8699 165.377 93.8699 165.377 89.1302 179.886C87.8756 183.776 86.55 187.641 85.1928 191.497C84.3831 193.852 83.7955 196.245 84.7958 198.633C92.0578 210.996 110.274 217.704 123.047 222.656C123.443 222.814 123.443 222.814 123.846 222.974C131.373 225.953 139.389 228.046 147.363 229.395C147.674 229.451 147.674 229.451 147.991 229.509C150.747 230.001 153.488 230.037 156.28 230.054C156.807 230.058 156.807 230.058 157.344 230.062C160.05 230.052 162.475 229.991 164.648 228.223C165.815 226.964 166.407 225.572 167.065 224.011C167.251 223.578 167.251 223.578 167.44 223.135C168.956 219.573 170.414 215.987 171.878 212.404C173.199 209.17 174.533 205.942 175.872 202.716C176.288 201.716 176.703 200.717 177.118 199.717C177.222 199.465 177.327 199.212 177.435 198.953C178.724 195.845 180.008 192.734 181.292 189.624C181.532 189.044 181.772 188.463 182.012 187.883C182.833 185.893 183.655 183.903 184.476 181.913C186.421 177.204 188.378 172.5 190.338 167.798C193.987 159.044 197.626 150.287 201.221 141.511C202.638 138.054 204.062 134.599 205.489 131.146C205.843 130.288 206.198 129.43 206.552 128.572C207.551 126.155 208.55 123.738 209.552 121.322C209.942 120.382 210.331 119.443 210.72 118.503C210.9 118.069 211.08 117.635 211.261 117.202C211.506 116.613 211.75 116.024 211.993 115.434C212.13 115.106 212.266 114.777 212.407 114.439C212.729 113.717 212.729 113.717 212.695 113.086C212.329 113.093 212.329 113.093 211.956 113.1C192.629 113.413 174.024 109.198 156.152 101.953C155.874 101.842 155.597 101.731 155.31 101.617C144.391 97.2313 133.174 91.889 124.511 83.7892C124.068 83.3904 123.622 82.9935 123.175 82.599C122.987 82.4324 122.799 82.2659 122.606 82.0943C122.224 81.7076 122.224 81.7076 121.875 81.7384Z" fill="black"/>
</svg>
