<svg width="300" height="300" viewBox="0 0 300 300" fill="none" xmlns="http://www.w3.org/2000/svg">
<path d="M155.685 97.6974C157.909 99.2656 159.243 101.39 159.961 104.004C160.32 107.767 159.659 110.356 157.374 113.32C156.786 113.916 156.198 114.387 155.526 114.884C155.315 115.042 155.103 115.199 154.885 115.361C154.723 115.481 154.561 115.6 154.394 115.723C154.462 115.926 154.53 116.129 154.6 116.338C156.252 121.274 157.902 126.211 159.551 131.148C160.348 133.535 161.146 135.923 161.945 138.31C162.641 140.39 163.337 142.47 164.031 144.551C164.399 145.653 164.767 146.755 165.136 147.856C165.484 148.892 165.83 149.929 166.175 150.966C166.302 151.347 166.43 151.728 166.558 152.109C166.732 152.628 166.905 153.147 167.077 153.667C167.223 154.103 167.223 154.103 167.372 154.548C167.578 155.274 167.578 155.274 167.578 156.153C168.754 155.02 169.794 153.816 170.819 152.546C170.985 152.34 171.152 152.134 171.324 151.921C172.731 150.171 174.083 148.383 175.422 146.58C176.497 145.133 177.596 143.704 178.692 142.273C180.385 140.062 182.039 137.828 183.644 135.552C185.541 132.883 185.541 132.883 186.895 132.422C187.793 132.422 187.793 132.422 188.544 132.879C189.445 133.782 189.587 134.422 189.854 135.663C189.9 135.869 189.946 136.075 189.993 136.287C190.143 136.965 190.284 137.644 190.426 138.323C190.528 138.794 190.631 139.265 190.735 139.737C191.005 140.974 191.269 142.213 191.531 143.453C191.8 144.718 192.075 145.983 192.35 147.247C192.888 149.726 193.419 152.206 193.945 154.688C195.226 154.688 195.837 153.892 196.746 153.077C197.12 152.749 197.493 152.422 197.867 152.096C198.049 151.936 198.231 151.776 198.419 151.612C199.274 150.87 200.161 150.171 201.048 149.469C202.099 148.635 203.14 147.789 204.181 146.943C204.485 146.695 204.485 146.695 204.795 146.443C206.455 145.093 208.111 143.739 209.765 142.383C216.242 137.075 216.242 137.075 219.451 134.522C220.327 133.825 221.199 133.124 222.07 132.422C222.305 132.233 222.541 132.045 222.783 131.85C224.332 130.557 225.542 129.048 226.757 127.442C227.144 127.538 227.531 127.635 227.929 127.735C228.432 129.509 227.946 130.996 227.501 132.728C227.42 133.053 227.34 133.378 227.257 133.713C226.987 134.794 226.713 135.874 226.439 136.954C226.248 137.717 226.058 138.48 225.868 139.243C225.463 140.864 225.056 142.485 224.647 144.106C224.01 146.634 223.377 149.163 222.745 151.692C222.535 152.533 222.326 153.373 222.116 154.214C222.064 154.421 222.012 154.628 221.959 154.841C221.595 156.299 221.23 157.757 220.865 159.215C219.371 165.178 217.894 171.146 216.448 177.121C216.303 177.721 216.157 178.321 216.011 178.921C215.026 182.981 214.057 187.045 213.113 191.116C212.988 191.652 212.988 191.652 212.861 192.199C212.476 193.855 212.093 195.512 211.717 197.17C211.586 197.737 211.455 198.305 211.324 198.872C211.267 199.126 211.211 199.38 211.153 199.642C210.473 202.559 210.473 202.559 209.273 203.354C208.365 203.701 207.6 203.688 206.628 203.688C206.429 203.689 206.231 203.69 206.027 203.691C205.359 203.693 204.692 203.692 204.025 203.69C203.542 203.691 203.06 203.692 202.578 203.693C201.251 203.696 199.924 203.696 198.596 203.695C197.166 203.694 195.735 203.696 194.305 203.699C191.501 203.702 188.698 203.703 185.894 203.702C183.616 203.702 181.339 203.702 179.061 203.703C178.575 203.704 178.575 203.704 178.079 203.704C177.421 203.704 176.764 203.705 176.106 203.705C169.933 203.708 163.76 203.708 157.587 203.706C151.935 203.704 146.284 203.708 140.633 203.713C134.835 203.719 129.036 203.721 123.238 203.72C119.98 203.72 116.723 203.72 113.466 203.724C110.694 203.728 107.921 203.728 105.148 203.725C103.733 203.723 102.318 203.723 100.902 203.726C99.6077 203.729 98.3129 203.729 97.0181 203.724C96.5489 203.724 96.0797 203.724 95.6105 203.727C94.9741 203.73 94.3379 203.727 93.7014 203.723C93.1706 203.723 93.1706 203.723 92.629 203.723C91.5963 203.602 91.0514 203.37 90.234 202.735C89.3331 200.835 88.9186 198.766 88.4293 196.728C88.2936 196.171 88.1579 195.614 88.0221 195.058C87.8767 194.461 87.7321 193.864 87.5875 193.267C87.0657 191.112 86.5377 188.959 86.01 186.806C85.9552 186.582 85.9003 186.358 85.8438 186.127C84.6117 181.097 83.3438 176.076 82.0675 171.057C81.958 170.627 81.8485 170.196 81.739 169.765C81.2966 168.025 80.8541 166.285 80.4112 164.545C79.5953 161.34 78.7823 158.134 77.9705 154.928C77.8519 154.46 77.7332 153.991 77.6146 153.523C76.7002 149.912 76.7002 149.912 76.2495 148.131C75.9897 147.104 75.7297 146.078 75.4695 145.051C75.3193 144.458 75.1696 143.865 75.0199 143.272C74.5626 141.462 74.0992 139.655 73.6168 137.853C73.3946 137.023 73.1746 136.192 72.9545 135.362C72.8006 134.785 72.6431 134.209 72.4854 133.633C71.9781 131.718 71.5665 130.011 71.777 128.028C72.2239 127.518 72.2239 127.518 72.6559 127.149C73.3883 127.552 73.3883 127.552 74.1208 128.028C74.1208 128.221 74.1208 128.414 74.1208 128.614C74.3141 128.614 74.5075 128.614 74.7067 128.614C74.7067 128.807 74.7067 129 74.7067 129.2C74.9001 129.2 75.0934 129.2 75.2926 129.2C75.6797 129.657 76.0486 130.131 76.4096 130.609C78.6237 133.372 81.4467 135.435 84.2257 137.599C85.8154 138.839 87.3705 140.119 88.9241 141.404C90.3682 142.598 91.8181 143.785 93.2736 144.965C94.5573 146.006 95.8402 147.048 97.1188 148.096C97.6558 148.536 98.193 148.975 98.7301 149.414C98.9131 149.564 99.096 149.714 99.2845 149.868C99.8988 150.37 100.514 150.872 101.129 151.374C101.32 151.53 101.512 151.687 101.709 151.849C103.034 152.928 104.387 153.965 105.761 154.981C106.493 152.166 107.155 149.34 107.786 146.501C107.861 146.165 107.936 145.828 108.013 145.482C108.325 144.08 108.637 142.678 108.945 141.275C109.173 140.239 109.404 139.204 109.635 138.169C109.704 137.854 109.773 137.538 109.843 137.212C110.494 134.321 110.494 134.321 111.328 133.008C112.17 132.55 112.17 132.55 113.086 132.422C114.154 132.949 114.834 133.537 115.558 134.473C115.759 134.733 115.96 134.993 116.167 135.262C117.974 137.66 119.745 140.085 121.516 142.509C123.557 145.301 125.622 148.066 127.756 150.787C128.982 152.351 130.175 153.935 131.346 155.54C131.787 156.18 131.787 156.18 132.422 156.446C132.457 156.213 132.457 156.213 132.494 155.975C132.936 153.461 133.771 151.084 134.587 148.674C134.746 148.2 134.905 147.725 135.064 147.251C135.399 146.249 135.736 145.247 136.074 144.246C136.598 142.689 137.12 141.132 137.642 139.575C137.728 139.318 137.814 139.061 137.902 138.796C138.075 138.279 138.248 137.763 138.421 137.246C138.678 136.478 138.936 135.709 139.194 134.941C140.428 131.257 141.656 127.571 142.862 123.877C143.029 123.367 143.196 122.856 143.364 122.345C144.115 120.059 144.859 117.798 145.312 115.43C145.121 115.295 144.93 115.16 144.733 115.02C142.335 113.231 140.848 111.303 140.039 108.399C139.732 105.416 139.99 102.713 141.814 100.265C145.551 95.9484 150.644 94.612 155.685 97.6974ZM145.807 102.887C145.011 104.214 144.594 105.499 144.836 107.053C145.378 108.9 146.271 109.934 147.894 110.981C149.517 111.585 150.833 111.555 152.398 110.871C153.79 110.09 154.665 109.066 155.164 107.545C155.463 105.97 155.159 104.526 154.394 103.125C153.378 101.979 152.374 101.172 150.81 101.005C148.607 100.94 147.436 101.346 145.807 102.887ZM149.707 120.118C148.198 124.585 146.69 129.053 145.184 133.521C145.073 133.849 144.963 134.177 144.849 134.515C141.989 142.997 139.135 151.479 136.39 159.999C136.301 160.277 136.211 160.555 136.118 160.841C135.957 161.341 135.796 161.841 135.637 162.341C134.918 164.568 134.918 164.568 134.472 165.235C133.502 165.546 133.502 165.546 132.422 165.528C131.269 164.533 130.391 163.355 129.51 162.122C129.226 161.73 128.943 161.338 128.659 160.947C128.509 160.74 128.36 160.532 128.206 160.319C127.377 159.176 126.539 158.04 125.702 156.903C125.527 156.667 125.353 156.431 125.174 156.187C123.806 154.333 122.428 152.487 121.042 150.646C120.348 149.724 119.659 148.799 118.972 147.872C118.678 147.476 118.678 147.476 118.378 147.073C117.996 146.559 117.615 146.044 117.235 145.529C116.311 144.289 115.39 143.145 114.257 142.09C113.397 145.558 112.577 149.033 111.816 152.524C111.758 152.792 111.699 153.061 111.639 153.337C111.345 154.69 111.053 156.043 110.763 157.397C110.654 157.902 110.544 158.408 110.435 158.913C110.386 159.145 110.337 159.377 110.286 159.616C109.789 161.906 109.789 161.906 109.277 162.891C108.453 163.187 108.453 163.187 107.519 163.184C106.787 162.823 106.787 162.823 106.054 162.25C105.638 161.927 105.638 161.927 105.213 161.597C103.844 160.478 102.505 159.324 101.17 158.165C100.164 157.293 99.129 156.461 98.0847 155.635C97.0152 154.781 95.9592 153.911 94.9032 153.04C94.6912 152.865 94.4792 152.69 94.2607 152.51C93.8231 152.149 93.3856 151.788 92.9481 151.427C91.8609 150.529 90.7729 149.633 89.6847 148.737C89.4762 148.565 89.2676 148.393 89.0528 148.216C87.6495 147.061 86.2451 145.907 84.8359 144.759C84.2847 144.307 83.7366 143.852 83.1902 143.395C82.7523 143.03 82.7523 143.03 82.3056 142.658C82.0423 142.437 81.7791 142.216 81.5079 141.988C80.9157 141.446 80.9157 141.446 80.2731 141.504C80.7276 144.349 81.4292 147.128 82.1311 149.92C82.2607 150.438 82.3902 150.957 82.5196 151.475C82.8691 152.875 83.2199 154.274 83.5709 155.673C83.9387 157.14 84.3053 158.607 84.672 160.073C85.2872 162.533 85.9032 164.993 86.5198 167.452C87.3116 170.611 88.1021 173.77 88.8921 176.929C89.5718 179.646 90.2519 182.363 90.9322 185.08C91.1509 185.954 91.3695 186.827 91.588 187.701C91.9308 189.07 92.274 190.44 92.6175 191.81C92.7436 192.313 92.8696 192.816 92.9955 193.32C93.167 194.005 93.3388 194.69 93.5108 195.375C93.5609 195.576 93.6109 195.776 93.6625 195.983C93.863 196.78 94.0755 197.56 94.3356 198.34C131.171 198.34 168.006 198.34 205.957 198.34C209.401 184.322 209.401 184.322 212.829 170.301C213.012 169.552 213.194 168.803 213.377 168.054C215.511 159.306 217.628 150.554 219.726 141.797C218.497 141.797 217.947 142.485 217.071 143.262C216.727 143.561 216.383 143.859 216.038 144.157C215.868 144.305 215.698 144.452 215.523 144.604C214.874 145.162 214.208 145.697 213.537 146.228C210.911 148.313 208.332 150.456 205.744 152.589C204.306 153.774 202.866 154.956 201.423 156.134C200.923 156.543 200.424 156.952 199.926 157.361C199.401 157.792 198.876 158.221 198.35 158.649C197.677 159.199 197.009 159.754 196.343 160.313C195.952 160.635 195.562 160.957 195.172 161.28C194.989 161.435 194.807 161.59 194.619 161.749C193.539 162.634 192.756 163.134 191.308 163.184C191.018 163.087 190.728 162.991 190.429 162.891C190.201 162.156 190.036 161.464 189.891 160.711C189.791 160.227 189.691 159.743 189.591 159.258C189.511 158.863 189.511 158.863 189.429 158.459C189.12 156.946 188.788 155.438 188.459 153.929C188.318 153.283 188.178 152.636 188.038 151.99C187.967 151.666 187.897 151.343 187.824 151.01C187.679 150.341 187.535 149.673 187.392 149.004C187.181 148.027 186.969 147.05 186.756 146.074C186.66 145.625 186.66 145.625 186.562 145.167C186.502 144.891 186.441 144.614 186.379 144.33C186.326 144.088 186.274 143.845 186.22 143.595C186.045 142.891 186.045 142.891 185.449 142.09C183.753 144.066 182.147 146.077 180.622 148.186C179.443 149.812 178.229 151.409 177.008 153.003C175.279 155.262 173.58 157.539 171.901 159.836C170.82 161.31 169.709 162.746 168.532 164.146C168.106 164.624 168.106 164.624 168.164 165.235C167.193 165.436 167.193 165.436 166.113 165.528C165.076 164.844 164.821 163.664 164.449 162.54C164.376 162.326 164.303 162.112 164.228 161.892C163.987 161.182 163.75 160.471 163.513 159.76C163.343 159.257 163.173 158.755 163.004 158.252C161.74 154.506 160.519 150.746 159.304 146.983C157.679 141.949 155.979 136.942 154.255 131.941C153.763 130.512 153.276 129.081 152.794 127.648C152.495 126.761 152.195 125.875 151.895 124.989C151.756 124.577 151.617 124.164 151.479 123.751C151.292 123.189 151.101 122.628 150.911 122.068C150.752 121.595 150.752 121.595 150.59 121.114C150.364 120.367 150.364 120.367 149.707 120.118Z" fill="black"/>
</svg>
