<svg width="300" height="300" viewBox="0 0 300 300" fill="none" xmlns="http://www.w3.org/2000/svg">
<path d="M150.055 95.1416C150.327 95.1658 150.599 95.1899 150.879 95.2148C151.79 97.1642 152.533 99.1453 153.228 101.181C153.338 101.499 153.448 101.818 153.562 102.147C153.92 103.187 154.276 104.227 154.633 105.267C154.883 105.996 155.134 106.724 155.385 107.453C156.528 110.777 157.666 114.103 158.796 117.431C158.887 117.698 158.977 117.965 159.071 118.24C159.16 118.502 159.249 118.765 159.341 119.035C159.428 119.293 159.516 119.552 159.606 119.818C159.782 120.335 159.957 120.852 160.133 121.369C161.751 126.136 163.428 130.882 165.128 135.622C165.955 137.93 166.78 140.238 167.567 142.56C167.741 143.075 167.741 143.075 167.92 143.6C168.164 144.434 168.164 144.434 168.164 145.312C169.211 144.29 170.189 143.229 171.13 142.108C171.27 141.943 171.409 141.778 171.553 141.607C172.666 140.279 173.74 138.921 174.804 137.553C175.887 136.164 177.001 134.803 178.125 133.447C179.397 131.912 180.652 130.368 181.879 128.796C182.856 127.547 183.834 126.298 184.827 125.061C185.125 124.688 185.125 124.688 185.429 124.308C187.06 122.492 187.06 122.492 188.544 122.388C189.551 122.754 189.551 122.754 190.109 123.65C191.03 125.637 191.569 127.78 192.173 129.879C192.308 130.344 192.444 130.81 192.579 131.275C192.862 132.246 193.144 133.218 193.424 134.19C193.782 135.433 194.143 136.676 194.505 137.918C194.785 138.877 195.063 139.837 195.341 140.796C195.474 141.255 195.607 141.713 195.741 142.171C195.927 142.811 196.111 143.452 196.296 144.093C196.401 144.456 196.506 144.82 196.614 145.195C196.854 146.111 197.03 147.013 197.168 147.949C197.311 147.843 197.453 147.738 197.6 147.628C200.331 145.603 203.072 143.595 205.855 141.642C207.363 140.583 208.86 139.509 210.352 138.428C212.258 137.047 214.174 135.682 216.1 134.329C217.355 133.446 218.599 132.55 219.837 131.644C220.966 130.82 222.103 130.008 223.242 129.199C223.534 128.991 223.826 128.784 224.127 128.57C225.067 127.906 226.012 127.252 226.959 126.599C227.257 126.388 227.555 126.177 227.861 125.959C230.228 124.349 230.228 124.349 231.469 124.473C232.324 124.805 232.324 124.805 232.91 125.684C232.895 128.079 232.02 130.246 231.229 132.476C230.756 133.811 230.295 135.15 229.833 136.489C229.73 136.788 229.626 137.087 229.52 137.396C228.183 141.279 226.909 145.183 225.631 149.085C225.277 150.167 224.922 151.248 224.568 152.329C224.421 152.777 224.275 153.224 224.128 153.671C224.054 153.896 223.981 154.121 223.905 154.352C223.754 154.813 223.603 155.273 223.452 155.734C222.179 159.621 220.9 163.506 219.619 167.39C219.528 167.667 219.436 167.944 219.342 168.23C218.604 170.47 217.865 172.711 217.125 174.951C214.422 183.145 214.422 183.145 211.741 191.346C211.629 191.69 211.517 192.033 211.402 192.387C210.91 193.9 210.42 195.413 209.931 196.927C209.554 198.092 209.171 199.255 208.78 200.416C208.611 200.924 208.451 201.435 208.291 201.946C208.201 202.21 208.111 202.474 208.018 202.746C207.95 202.956 207.882 203.165 207.812 203.382C207.202 204.202 206.316 204.477 205.371 204.785C204.402 204.894 204.402 204.894 203.379 204.892C203.188 204.893 202.998 204.894 202.802 204.895C202.166 204.896 201.531 204.892 200.895 204.888C200.434 204.888 199.972 204.888 199.511 204.889C198.245 204.89 196.979 204.885 195.714 204.88C194.348 204.875 192.982 204.875 191.616 204.874C188.942 204.872 186.267 204.865 183.593 204.857C181.42 204.85 179.246 204.844 177.073 204.84C176.61 204.839 176.61 204.839 176.137 204.838C175.509 204.837 174.88 204.836 174.252 204.835C168.363 204.823 162.474 204.806 156.584 204.787C151.192 204.77 145.801 204.76 140.409 204.753C134.875 204.745 129.341 204.734 123.807 204.717C120.699 204.708 117.591 204.7 114.483 204.697C111.838 204.695 109.194 204.688 106.549 204.676C105.199 204.67 103.849 204.665 102.499 204.666C101.264 204.667 100.029 204.663 98.7947 204.654C98.347 204.651 97.8993 204.651 97.4516 204.653C96.8449 204.655 96.2385 204.65 95.6318 204.643C95.1255 204.642 95.1255 204.642 94.609 204.641C93.5558 204.459 93.2255 204.155 92.5782 203.32C92.2584 202.578 91.9905 201.869 91.7425 201.104C91.6669 200.88 91.5913 200.656 91.5134 200.426C91.2613 199.677 91.0142 198.926 90.767 198.176C90.5869 197.637 90.4064 197.099 90.2256 196.561C89.8391 195.408 89.4547 194.255 89.072 193.101C88.4847 191.331 87.8918 189.563 87.2978 187.795C86.1313 184.322 84.9706 180.846 83.811 177.37C83.4672 176.34 83.1234 175.309 82.7795 174.279C81.6987 171.041 80.6182 167.802 79.5382 164.563C78.3614 161.034 77.1836 157.505 76.0048 153.977C74.9751 150.894 73.9464 147.812 72.9186 144.729C72.3447 143.008 71.7704 141.286 71.195 139.565C70.6573 137.957 70.1209 136.349 69.5854 134.74C69.389 134.15 69.1921 133.561 68.9948 132.972C68.7258 132.168 68.4583 131.364 68.1914 130.56C68.1129 130.327 68.0345 130.094 67.9537 129.855C66.9238 126.737 66.9238 126.737 67.3829 125.446C67.9689 124.805 67.9689 124.805 68.9061 124.543C70.2734 124.505 70.9593 124.938 72.0155 125.72C72.2963 125.918 72.2963 125.918 72.5827 126.119C73.1976 126.554 73.8059 126.997 74.4142 127.441C74.8416 127.748 75.2692 128.055 75.6971 128.362C76.5847 128.999 77.4697 129.64 78.3532 130.283C79.6443 131.221 80.9458 132.144 82.2511 133.063C84.2657 134.481 86.2731 135.908 88.2763 137.342C88.7673 137.694 89.2588 138.044 89.7504 138.395C91.216 139.439 92.6804 140.485 94.1369 141.543C97.0061 143.625 99.9024 145.66 102.832 147.656C102.927 147.228 102.927 147.228 103.023 146.79C103.821 143.256 104.814 139.792 105.853 136.322C106.024 135.749 106.195 135.177 106.366 134.604C106.775 133.236 107.186 131.869 107.598 130.502C107.79 129.861 107.981 129.22 108.17 128.578C108.444 127.655 108.722 126.733 109.003 125.812C109.076 125.562 109.149 125.312 109.225 125.054C109.513 124.129 109.757 123.448 110.444 122.75C111.471 122.248 112.007 122.394 113.086 122.754C113.99 123.533 114.697 124.452 115.43 125.391C115.668 125.692 115.906 125.993 116.151 126.303C116.548 126.807 116.944 127.312 117.339 127.818C118.425 129.213 119.54 130.583 120.667 131.946C122.483 134.142 124.285 136.351 126.08 138.565C126.588 139.192 127.097 139.818 127.606 140.444C127.778 140.655 127.95 140.866 128.126 141.084C128.454 141.486 128.781 141.888 129.108 142.291C129.256 142.473 129.405 142.656 129.558 142.844C129.687 143.003 129.816 143.162 129.949 143.325C130.483 143.986 131.013 144.649 131.543 145.312C133.795 138.92 136.02 132.52 138.153 126.086C139.964 120.627 141.807 115.179 143.675 109.738C144.201 108.205 144.721 106.67 145.238 105.134C145.587 104.095 145.938 103.058 146.288 102.02C146.454 101.529 146.619 101.037 146.783 100.545C147.009 99.8672 147.238 99.1906 147.468 98.5142C147.533 98.3149 147.599 98.1156 147.667 97.9103C148.574 95.2578 148.574 95.2578 150.055 95.1416ZM149.707 118.945C149.647 119.124 149.586 119.303 149.523 119.487C148.807 121.602 148.089 123.717 147.372 125.832C147.18 126.397 146.989 126.963 146.797 127.529C144.269 134.982 144.269 134.982 143.002 138.683C142.917 138.933 142.831 139.182 142.743 139.44C142.414 140.402 142.084 141.364 141.754 142.326C140.789 145.14 139.839 147.959 138.906 150.785C138.812 151.07 138.718 151.354 138.621 151.647C138.167 153.023 137.714 154.399 137.264 155.776C137.102 156.269 136.939 156.762 136.776 157.256C136.704 157.479 136.632 157.702 136.558 157.933C136.176 159.085 135.798 160.153 135.059 161.133C134.078 161.323 134.078 161.323 133.008 161.133C132.365 160.612 131.927 160.186 131.415 159.558C131.276 159.397 131.137 159.236 130.994 159.07C130.584 158.591 130.184 158.106 129.785 157.617C129.589 157.379 129.393 157.141 129.191 156.896C128.821 156.438 128.455 155.976 128.092 155.513C127.427 154.669 126.75 153.837 126.07 153.006C124.502 151.087 122.97 149.148 121.468 147.177C120.426 145.822 119.34 144.503 118.254 143.183C117.297 142.015 116.388 140.826 115.514 139.594C115.39 139.451 115.265 139.308 115.137 139.16C114.943 139.16 114.75 139.16 114.551 139.16C114.244 140.106 113.94 141.052 113.635 141.998C113.485 142.465 113.485 142.465 113.332 142.94C112.594 145.243 111.877 147.552 111.169 149.865C110.893 150.763 110.617 151.661 110.341 152.559C110.157 153.16 109.974 153.761 109.791 154.362C109.532 155.218 109.269 156.072 109.006 156.927C108.928 157.186 108.851 157.445 108.771 157.712C108.014 160.152 108.014 160.152 107.227 160.84C106.381 160.982 105.931 160.929 105.173 160.528C104.983 160.383 104.793 160.237 104.597 160.087C104.379 159.923 104.161 159.759 103.937 159.59C103.59 159.321 103.59 159.321 103.235 159.045C102.734 158.666 102.233 158.287 101.731 157.908C101.476 157.713 101.22 157.518 100.957 157.317C99.7856 156.427 98.5988 155.558 97.4122 154.688C96.9486 154.346 96.4852 154.005 96.0218 153.663C95.7922 153.494 95.5626 153.325 95.3261 153.151C94.6261 152.635 93.9266 152.118 93.2271 151.601C90.6661 149.71 88.0979 147.829 85.5097 145.975C84.424 145.195 83.3588 144.403 82.3243 143.555C82.0343 143.7 82.0343 143.7 81.7384 143.848C83.986 150.604 86.2346 157.36 88.4843 164.116C89.5288 167.252 90.573 170.389 91.6164 173.526C92.5255 176.259 93.4353 178.992 94.3457 181.725C94.8281 183.173 95.3101 184.621 95.7914 186.069C96.2439 187.43 96.6973 188.791 97.1512 190.152C97.3182 190.654 97.4848 191.155 97.6512 191.656C97.8774 192.337 98.1046 193.018 98.3321 193.699C98.4317 194.001 98.4317 194.001 98.5333 194.308C98.7943 195.225 98.7943 195.225 99.3165 195.996C99.8571 196.025 100.399 196.032 100.94 196.032C101.472 196.033 101.472 196.033 102.015 196.034C102.414 196.033 102.812 196.032 103.211 196.031C103.631 196.031 104.05 196.032 104.47 196.032C105.628 196.033 106.787 196.032 107.945 196.03C109.192 196.029 110.44 196.029 111.687 196.029C113.849 196.03 116.012 196.029 118.175 196.027C121.301 196.025 124.428 196.024 127.555 196.024C132.628 196.023 137.7 196.021 142.773 196.018C147.701 196.016 152.63 196.013 157.559 196.012C157.862 196.012 158.166 196.012 158.479 196.012C160.002 196.012 161.525 196.011 163.048 196.011C175.691 196.008 188.334 196.003 200.977 195.996C201.665 194.42 201.665 194.42 202.249 192.804C202.314 192.603 202.379 192.402 202.446 192.195C202.514 191.983 202.581 191.771 202.651 191.552C202.725 191.324 202.798 191.096 202.874 190.861C203.032 190.37 203.19 189.878 203.348 189.387C203.774 188.06 204.203 186.734 204.632 185.408C204.719 185.138 204.806 184.868 204.896 184.59C205.637 182.303 206.394 180.022 207.158 177.743C209.331 171.258 211.457 164.757 213.567 158.251C213.871 157.312 214.176 156.374 214.481 155.435C214.974 153.917 215.464 152.399 215.952 150.879C216.136 150.308 216.321 149.737 216.506 149.166C216.761 148.38 217.014 147.593 217.265 146.806C217.341 146.573 217.418 146.339 217.496 146.099C217.933 144.965 217.933 144.965 217.676 143.848C217.535 143.952 217.394 144.056 217.249 144.164C214.666 146.073 212.08 147.977 209.473 149.854C207.665 151.156 205.864 152.468 204.071 153.79C203.729 154.042 203.729 154.042 203.381 154.299C202.164 155.198 200.948 156.098 199.733 156.999C199.355 157.279 199.355 157.279 198.97 157.563C198.489 157.92 198.008 158.277 197.528 158.634C194.368 160.972 194.368 160.972 192.481 160.84C191.536 159.157 191.027 157.359 190.468 155.519C190.361 155.173 190.255 154.827 190.145 154.471C189.805 153.365 189.467 152.259 189.13 151.154C188.904 150.417 188.678 149.681 188.452 148.945C188.033 147.581 187.615 146.217 187.197 144.852C186.617 142.954 186.034 141.057 185.449 139.16C184.292 139.546 184.028 140.085 183.307 141.064C182.116 142.657 180.88 144.204 179.608 145.734C178.33 147.275 177.068 148.824 175.836 150.403C174.71 151.846 173.567 153.272 172.403 154.685C171.833 155.38 171.265 156.078 170.7 156.777C170.529 156.989 170.358 157.2 170.182 157.418C169.844 157.836 169.506 158.255 169.169 158.674C169.013 158.866 168.858 159.058 168.697 159.256C168.559 159.427 168.421 159.599 168.279 159.775C167.145 161.107 167.145 161.107 166.113 161.279C165.234 161.133 165.234 161.133 164.807 160.579C164.178 159.31 163.733 158 163.279 156.659C163.121 156.202 163.121 156.202 162.961 155.736C162.613 154.722 162.266 153.707 161.92 152.692C161.676 151.978 161.431 151.265 161.186 150.552C160.662 149.026 160.14 147.501 159.618 145.975C158.409 142.442 157.194 138.912 155.98 135.382C155.498 133.978 155.016 132.574 154.534 131.171C153.133 127.091 151.725 123.014 150.293 118.945C150.1 118.945 149.906 118.945 149.707 118.945Z" fill="black"/>
</svg>
