<svg width="300" height="300" viewBox="0 0 300 300" fill="none" xmlns="http://www.w3.org/2000/svg">
<g clip-path="url(#clip0_50_603)">
<path d="M86.6694 98.8902C86.8793 98.9341 87.0892 98.978 87.3054 99.0232C87.5093 99.0616 87.7132 99.1 87.9233 99.1395C88.558 99.2778 89.1778 99.4452 89.8025 99.6228C90.0327 99.6851 90.2629 99.7473 90.5 99.8115C91.2305 100.009 91.9596 100.212 92.6887 100.415C93.6426 100.678 94.597 100.939 95.552 101.198C95.7873 101.262 96.0226 101.326 96.265 101.392C98.2409 101.921 100.232 102.351 102.241 102.735C103.283 102.94 103.989 103.114 104.884 103.711C105.682 103.923 106.473 104.111 107.28 104.283C107.522 104.336 107.764 104.389 108.014 104.443C108.813 104.617 109.613 104.787 110.413 104.956C110.689 105.014 110.964 105.073 111.248 105.133C124.28 107.89 137.452 109.636 150.788 109.643C151.096 109.643 151.403 109.644 151.72 109.644C157.534 109.638 163.266 109.331 169.044 108.691C169.271 108.666 169.498 108.641 169.733 108.616C175.376 107.995 180.979 107.186 186.567 106.183C186.798 106.141 187.03 106.1 187.268 106.057C189.779 105.603 192.28 105.107 194.773 104.563C194.992 104.516 195.211 104.469 195.436 104.421C196.552 104.172 197.578 103.852 198.634 103.418C199.316 103.315 200 103.217 200.684 103.125C200.781 103.028 200.878 102.931 200.977 102.832C201.568 102.742 202.16 102.665 202.753 102.594C204.41 102.367 206.019 102.06 207.642 101.66C207.845 101.611 208.047 101.563 208.256 101.512C209.419 101.219 209.419 101.219 210.352 100.488C211.969 99.7872 213.588 99.4748 215.333 99.3161C216.252 101.834 216.812 104.427 217.4 107.036C217.513 107.535 217.626 108.034 217.74 108.533C217.978 109.579 218.214 110.624 218.451 111.67C218.807 113.249 219.166 114.828 219.525 116.407C220.034 118.647 220.54 120.889 221.043 123.131C221.349 124.497 221.66 125.861 221.972 127.226C222.106 127.819 222.24 128.411 222.373 129.004C222.431 129.253 222.489 129.502 222.549 129.759C223.519 134.121 223.306 138.29 221.485 142.383C221.405 142.565 221.325 142.747 221.242 142.934C219.03 147.874 215.924 152.411 212.696 156.738C212.578 156.897 212.459 157.056 212.337 157.22C210.498 159.678 208.548 162.031 206.544 164.355C206.273 164.67 206.273 164.67 205.998 164.991C204.597 166.609 203.144 168.18 201.695 169.754C201.003 170.505 200.313 171.257 199.622 172.009C199.42 172.229 199.42 172.229 199.215 172.453C198.387 173.357 197.565 174.265 196.748 175.177C194.999 177.125 193.216 179.042 191.438 180.963C190.986 181.451 190.534 181.939 190.083 182.428C189.861 182.668 189.861 182.668 189.634 182.912C188.787 183.83 187.948 184.755 187.116 185.687C185.756 187.206 184.358 188.689 182.957 190.171C181.215 192.018 179.542 193.914 177.943 195.886C177.721 196.157 177.499 196.429 177.271 196.709C176.908 197.156 176.546 197.605 176.188 198.057C175.87 198.454 175.535 198.838 175.196 199.218C175.003 199.218 174.809 199.218 174.61 199.218C174.535 199.429 174.46 199.64 174.382 199.857C173.729 201.364 172.672 202.606 171.68 203.906C171.501 204.147 171.321 204.388 171.136 204.636C169.39 206.878 167.374 208.84 165.349 210.828C165.112 211.061 164.875 211.294 164.631 211.533C164.416 211.743 164.201 211.953 163.98 212.169C163.456 212.666 163.456 212.666 163.184 213.281C162.991 213.281 162.798 213.281 162.598 213.281C162.598 213.474 162.598 213.668 162.598 213.867C162.405 213.867 162.212 213.867 162.012 213.867C161.898 214.124 161.898 214.124 161.782 214.386C161.401 215.086 160.991 215.543 160.424 216.103C160.22 216.306 160.015 216.51 159.805 216.719C159.583 216.937 159.362 217.154 159.134 217.378C158.792 217.718 158.792 217.718 158.442 218.065C157.711 218.791 156.978 219.515 156.245 220.239C155.517 220.959 154.789 221.679 154.063 222.4C153.611 222.848 153.158 223.296 152.705 223.742C151.529 224.907 150.417 226.101 149.337 227.355C148.463 228.343 147.524 229.264 146.586 230.191C146.276 230.499 146.276 230.499 145.959 230.814C145.085 231.683 144.209 232.551 143.334 233.419C142.69 234.057 142.047 234.697 141.404 235.336C141.209 235.528 141.015 235.72 140.815 235.918C139.693 237.034 138.637 238.185 137.603 239.382C136.855 240.231 136.058 241.025 135.252 241.818C135 242.068 135 242.068 134.743 242.323C134.037 243.024 133.329 243.724 132.622 244.424C130.34 246.651 130.34 246.651 128.193 249.005C126.382 251.136 124.311 253.048 122.325 255.013C121.763 255.57 121.201 256.128 120.64 256.686C120.471 256.853 120.302 257.019 120.128 257.19C119.265 258.048 118.441 258.923 117.646 259.844C116.59 261.065 115.466 262.203 114.318 263.337C114.108 263.546 113.899 263.754 113.683 263.969C113.021 264.628 112.358 265.285 111.695 265.942C110.817 266.813 109.94 267.684 109.063 268.556C108.862 268.754 108.662 268.952 108.455 269.156C108.268 269.342 108.082 269.528 107.889 269.72C107.725 269.882 107.562 270.044 107.393 270.211C106.909 270.709 106.909 270.709 106.472 271.35C106.334 271.523 106.197 271.696 106.055 271.875C105.862 271.875 105.669 271.875 105.469 271.875C105.392 272.047 105.315 272.22 105.236 272.397C104.867 273.076 104.482 273.517 103.934 274.058C103.742 274.249 103.549 274.441 103.351 274.638C103.143 274.842 102.936 275.046 102.722 275.255C102.509 275.467 102.296 275.678 102.076 275.896C101.396 276.571 100.714 277.244 100.031 277.917C99.348 278.592 98.6652 279.268 97.9833 279.944C97.5589 280.365 97.1338 280.785 96.7078 281.204C96.5161 281.394 96.3245 281.584 96.127 281.779C95.873 282.03 95.873 282.03 95.6139 282.285C95.185 282.707 95.185 282.707 94.9226 283.301C94.7292 283.301 94.5359 283.301 94.3367 283.301C94.3367 283.494 94.3367 283.687 94.3367 283.886C94.1433 283.886 93.9499 283.886 93.7507 283.886C93.6736 284.059 93.5965 284.232 93.517 284.409C93.1488 285.088 92.7644 285.528 92.2164 286.069C92.0237 286.26 91.8309 286.452 91.6323 286.65C91.4239 286.854 91.2155 287.059 91.0007 287.269C90.6776 287.59 90.6776 287.59 90.348 287.917C89.6587 288.602 88.9674 289.284 88.2759 289.966C87.5898 290.643 86.9042 291.322 86.2195 292.001C85.7938 292.423 85.3673 292.845 84.9399 293.265C83.9886 294.207 83.069 295.159 82.1958 296.174C82.0378 296.354 81.8798 296.534 81.7169 296.719C81.3349 297.155 80.9595 297.598 80.5904 298.045C79.4879 299.284 78.6613 300.147 76.9657 300.324C76.3834 300.335 75.8007 300.332 75.2185 300.317C74.8956 300.319 74.5728 300.321 74.2401 300.324C73.1629 300.328 72.0867 300.314 71.0095 300.299C70.2356 300.298 69.4617 300.299 68.6877 300.3C67.024 300.302 65.3605 300.293 63.6968 300.279C61.2915 300.257 58.8863 300.25 56.4808 300.247C52.5778 300.241 48.6749 300.224 44.7719 300.199C40.9818 300.174 37.1916 300.156 33.4014 300.145C33.1676 300.144 32.9337 300.143 32.6928 300.142C31.5197 300.139 30.3465 300.136 29.1734 300.132C19.4491 300.105 9.72492 300.059 0.000728338 300C-0.0461938 285.367 -0.0823376 270.734 -0.103994 256.101C-0.106559 254.374 -0.109215 252.648 -0.111924 250.921C-0.112462 250.577 -0.112997 250.233 -0.113552 249.879C-0.122479 244.31 -0.138654 238.74 -0.157495 233.171C-0.176661 227.458 -0.188065 221.745 -0.19223 216.032C-0.195046 212.505 -0.20394 208.979 -0.220581 205.453C-0.231407 203.036 -0.2347 200.619 -0.232034 198.202C-0.230718 196.807 -0.232765 195.411 -0.243737 194.016C-0.253708 192.739 -0.254223 191.462 -0.247206 190.185C-0.246339 189.723 -0.248949 189.26 -0.255378 188.798C-0.300641 185.344 -0.30064 185.344 0.447549 184.15C0.9558 183.635 1.46044 183.226 2.05151 182.812C2.29774 182.566 2.54397 182.319 2.79766 182.065C3.33639 181.527 3.87661 180.991 4.41815 180.456C4.72791 180.149 5.03766 179.842 5.34741 179.535C5.58533 179.3 5.58533 179.3 5.82806 179.061C6.68263 178.235 6.68263 178.235 7.32495 177.246C7.51831 177.246 7.71167 177.246 7.91088 177.246C7.98964 177.072 8.06838 176.898 8.14952 176.719C8.49838 176.071 8.84684 175.652 9.36612 175.136C9.54399 174.958 9.72185 174.78 9.90511 174.596C10.0998 174.404 10.2945 174.212 10.495 174.014C10.7004 173.809 10.9057 173.604 11.1173 173.393C11.7962 172.716 12.4771 172.041 13.158 171.366C13.6295 170.896 14.1009 170.426 14.5722 169.956C15.813 168.719 17.0554 167.484 18.2982 166.249C20.2892 164.271 22.2781 162.291 24.2661 160.31C24.9622 159.617 25.6592 158.925 26.3563 158.233C26.781 157.81 27.2057 157.387 27.6303 156.964C27.8255 156.771 28.0208 156.578 28.222 156.379C28.399 156.202 28.5761 156.026 28.7585 155.844C28.913 155.69 29.0675 155.537 29.2267 155.378C29.624 154.98 29.624 154.98 29.8835 154.394C30.0769 154.394 30.2703 154.394 30.4695 154.394C30.5873 154.134 30.5873 154.134 30.7075 153.868C31.0589 153.216 31.4122 152.794 31.9351 152.274C32.1154 152.094 32.2956 151.913 32.4814 151.727C32.6788 151.532 32.8761 151.337 33.0795 151.136C33.2878 150.929 33.496 150.721 33.7106 150.507C34.4 149.819 35.0915 149.133 35.783 148.448C36.2634 147.969 36.7437 147.491 37.2239 147.012C38.49 145.749 39.7578 144.489 41.026 143.229C43.051 141.216 45.074 139.202 47.0961 137.187C47.8008 136.485 48.5066 135.784 49.2124 135.084C49.6488 134.649 50.0851 134.215 50.5215 133.78C50.8131 133.492 50.8131 133.492 51.1106 133.197C52.2267 132.084 53.2796 130.934 54.3098 129.741C54.9634 128.997 55.6552 128.297 56.3577 127.598C56.5005 127.456 56.6432 127.314 56.7903 127.167C57.0956 126.863 57.4012 126.559 57.7071 126.256C58.1934 125.773 58.6788 125.29 59.1639 124.806C60.3681 123.606 61.574 122.407 62.7797 121.208C63.8021 120.192 64.8237 119.175 65.8446 118.157C66.319 117.684 66.7942 117.213 67.2695 116.741C68.649 115.368 69.9939 113.984 71.2601 112.504C73.0338 110.483 74.964 108.594 76.8521 106.679C77.5969 105.924 78.339 105.166 79.075 104.402C79.7933 103.656 80.518 102.917 81.2476 102.183C81.6553 101.769 82.0563 101.349 82.4572 100.928C84.7278 98.6646 84.7278 98.6646 86.6694 98.8902ZM90.2351 106.054C89.8082 107.059 89.5041 108.029 89.2715 109.095C89.2073 109.389 89.1431 109.683 89.077 109.986C89.012 110.29 88.947 110.594 88.8801 110.907C88.8129 111.212 88.7457 111.517 88.6764 111.831C88.409 113.068 88.1843 114.158 88.1843 115.429C101.462 118.78 114.734 121.838 128.321 123.633C128.682 123.681 129.043 123.73 129.416 123.78C155.904 127.288 181.983 123.224 212.989 116.308C213.308 115.121 213.231 114.306 212.936 113.119C212.857 112.796 212.779 112.473 212.697 112.14C212.612 111.805 212.527 111.471 212.44 111.126C212.357 110.789 212.274 110.451 212.189 110.103C211.826 108.477 211.826 108.477 211.231 106.933C209.272 107.139 207.384 107.531 205.463 107.962C204.785 108.112 204.107 108.263 203.429 108.413C203.076 108.491 202.724 108.57 202.361 108.65C188.82 111.656 175.275 114.125 161.427 115.136C161.158 115.157 160.889 115.178 160.613 115.199C158.931 115.325 157.253 115.393 155.567 115.429C155.22 115.437 154.872 115.445 154.515 115.454C133.798 115.856 113.607 111.858 93.6244 106.754C93.2624 106.662 92.9004 106.569 92.5274 106.474C92.2104 106.393 91.8934 106.312 91.5668 106.228C90.8535 106.032 90.8535 106.032 90.2351 106.054ZM86.7195 120.996C86.3258 122.573 85.9399 124.152 85.5608 125.733C85.4309 126.269 85.2991 126.805 85.1651 127.341C84.972 128.114 84.7865 128.889 84.6023 129.665C84.5416 129.901 84.4809 130.137 84.4184 130.381C84.0243 132.086 84.1591 133.389 84.6687 135.058C84.9187 135.119 85.1687 135.18 85.4263 135.243C86.7378 135.566 88.0474 135.896 89.3562 136.23C89.6341 136.301 89.912 136.372 90.1983 136.444C102.201 139.522 112.33 143.509 121.876 151.465C121.876 143.827 121.876 136.189 121.876 128.32C119.277 127.812 116.679 127.305 114.002 126.782C107.368 125.472 100.786 124.031 94.2247 122.387C93.9362 122.315 93.6478 122.243 93.3507 122.169C92.8218 122.038 92.2934 121.904 91.7655 121.768C90.0894 121.35 88.4418 121.125 86.7195 120.996ZM212.594 121.899C212.099 122.003 212.099 122.003 211.595 122.11C211.234 122.187 210.873 122.264 210.501 122.343C209.928 122.464 209.355 122.585 208.782 122.706C208.173 122.835 207.564 122.964 206.955 123.093C195.558 125.505 195.558 125.505 189.918 126.599C189.72 126.637 189.523 126.676 189.319 126.716C186.845 127.197 184.365 127.631 181.875 128.025C180.698 128.199 180.698 128.199 179.591 128.613C179.591 136.154 179.591 143.695 179.591 151.465C180.267 150.884 180.944 150.304 181.641 149.707C190.82 142.064 204.139 136.091 216.203 135.482C216.913 135.398 216.913 135.398 217.384 134.472C217.513 132.84 217.206 131.417 216.807 129.85C216.748 129.612 216.69 129.375 216.629 129.13C216.444 128.377 216.254 127.625 216.065 126.874C215.938 126.361 215.811 125.848 215.684 125.335C215.374 124.083 215.061 122.832 214.747 121.582C213.996 121.582 213.329 121.743 212.594 121.899ZM127.735 129.492C127.317 134.312 127.344 139.139 127.323 143.974C127.318 145.087 127.308 146.2 127.293 147.313C127.276 148.67 127.267 150.027 127.264 151.385C127.261 151.897 127.256 152.409 127.247 152.922C127.196 156.109 127.45 158.359 129.2 161.133C129.412 161.535 129.62 161.939 129.823 162.347C129.959 162.613 129.959 162.613 130.098 162.884C135.03 172.572 137.034 183.321 137.203 194.134C137.209 194.467 137.215 194.799 137.221 195.142C137.24 196.19 137.258 197.237 137.275 198.285C137.288 199.001 137.3 199.718 137.313 200.434C137.345 202.178 137.374 203.921 137.403 205.664C140.884 205.664 144.364 205.664 147.95 205.664C147.947 204.621 147.944 203.579 147.941 202.505C147.931 199.058 147.924 195.611 147.92 192.164C147.917 190.074 147.912 187.984 147.906 185.895C147.9 184.072 147.896 182.25 147.895 180.428C147.894 179.464 147.892 178.5 147.888 177.536C147.884 176.457 147.883 175.379 147.883 174.3C147.88 173.825 147.88 173.825 147.877 173.341C147.889 168.955 147.889 168.955 149.03 167.56C150.004 167.165 150.718 167.155 151.759 167.285C152.61 167.935 152.883 168.316 153.223 169.336C153.253 169.83 153.266 170.325 153.27 170.821C153.273 171.127 153.275 171.434 153.278 171.75C153.28 172.087 153.282 172.424 153.284 172.77C153.286 173.125 153.289 173.479 153.292 173.844C153.3 174.816 153.306 175.788 153.312 176.76C153.319 177.776 153.327 178.792 153.335 179.808C153.349 181.732 153.362 183.655 153.375 185.579C153.389 187.769 153.406 189.959 153.422 192.149C153.455 196.654 153.486 201.159 153.516 205.664C156.997 205.664 160.477 205.664 164.063 205.664C164.074 204.575 164.085 203.485 164.096 202.363C164.459 171.258 164.459 171.258 172.263 161.266C174.535 158.224 174.328 155.223 174.253 151.55C174.249 150.912 174.245 150.274 174.243 149.636C174.234 147.968 174.211 146.3 174.185 144.632C174.161 142.925 174.15 141.219 174.139 139.512C174.114 136.172 174.074 132.832 174.024 129.492C173.608 129.49 173.191 129.488 172.775 129.487C172.427 129.486 172.427 129.486 172.072 129.484C171.109 129.495 170.159 129.58 169.2 129.674C168.903 129.702 168.903 129.702 168.599 129.731C167.972 129.79 167.345 129.852 166.718 129.913C161.418 130.431 156.151 130.725 150.825 130.719C150.573 130.719 150.322 130.719 150.063 130.719C143.955 130.713 137.868 130.407 131.801 129.671C130.432 129.507 129.111 129.47 127.735 129.492ZM85.5476 140.918C85.701 142.408 86.2171 143.539 86.9575 144.818C87.0733 145.02 87.1891 145.223 87.3084 145.431C89.5936 149.342 92.3809 152.922 95.2156 156.445C95.6062 156.933 95.9968 157.422 96.3874 157.91C96.5721 158.14 96.7568 158.37 96.9471 158.607C97.6878 159.536 98.4199 160.472 99.1523 161.407C100.331 162.912 101.532 164.397 102.747 165.873C103.489 166.786 104.215 167.712 104.938 168.64C106.165 170.211 107.421 171.756 108.692 173.291C110.073 174.959 111.431 176.641 112.762 178.35C113.768 179.639 114.797 180.907 115.833 182.171C117.167 183.801 118.462 185.455 119.733 187.134C121.044 188.863 122.392 190.544 123.793 192.202C124.581 193.149 125.346 194.11 126.105 195.08C126.238 195.249 126.37 195.418 126.507 195.592C127.216 196.499 127.921 197.408 128.624 198.319C128.77 198.506 128.915 198.694 129.065 198.887C129.344 199.246 129.622 199.607 129.899 199.968C130.507 200.751 131.003 201.3 131.837 201.855C131.866 200.663 131.887 199.47 131.901 198.277C131.907 197.873 131.915 197.469 131.925 197.064C132.07 191.217 129.523 187.998 126.01 183.651C125.154 182.591 124.309 181.523 123.469 180.45C123.271 180.198 123.271 180.198 123.069 179.941C122.539 179.264 122.009 178.588 121.479 177.911C121.08 177.402 120.682 176.894 120.283 176.385C120.085 176.133 120.085 176.133 119.883 175.875C118.889 174.611 117.884 173.355 116.877 172.101C115.665 170.591 114.473 169.068 113.296 167.531C111.301 164.926 109.263 162.355 107.209 159.796C105.895 158.158 104.605 156.504 103.328 154.836C102.047 153.163 100.751 151.502 99.4545 149.841C98.809 149.013 98.168 148.183 97.5319 147.348C97.3906 147.164 97.2493 146.981 97.1038 146.791C96.8452 146.455 96.5881 146.117 96.3332 145.778C94.684 143.645 93.1633 142.481 90.5464 141.852C90.3238 141.792 90.1011 141.733 89.8717 141.671C88.436 141.3 87.0219 141.074 85.5476 140.918ZM212.641 141.302C212.427 141.337 212.213 141.371 211.993 141.407C209.703 141.802 207.824 142.331 206.251 144.14C205.995 144.421 205.995 144.421 205.733 144.708C203.469 147.204 201.382 149.845 199.307 152.498C198.309 153.771 197.302 155.037 196.29 156.299C195.154 157.715 194.024 159.136 192.902 160.565C192.77 160.733 192.638 160.902 192.502 161.075C191.842 161.917 191.183 162.759 190.525 163.601C188.937 165.632 187.326 167.641 185.696 169.639C184.257 171.406 182.847 173.194 181.445 174.99C180.929 175.65 180.411 176.307 179.893 176.965C179.494 177.472 179.097 177.979 178.699 178.486C178.073 179.285 177.442 180.081 176.811 180.876C171.679 187.36 169.306 191.939 169.63 200.39C170.836 199.851 171.281 199.213 172.01 198.102C172.938 196.709 173.904 195.369 174.94 194.055C176.041 192.65 177.033 191.205 177.959 189.679C178.456 188.906 179.01 188.212 179.591 187.5C180.031 186.92 180.47 186.34 180.909 185.76C183.489 182.389 186.316 179.26 189.224 176.171C190.062 175.279 190.873 174.368 191.672 173.441C192.493 172.503 193.341 171.589 194.185 170.671C195.249 169.514 196.301 168.346 197.351 167.175C197.863 166.609 198.379 166.048 198.9 165.49C200.748 163.511 202.52 161.501 204.2 159.375C204.428 159.089 204.428 159.089 204.66 158.797C211.89 150.594 211.89 150.594 215.919 140.918C214.802 140.918 213.738 141.113 212.641 141.302ZM194.843 147.07C194.62 147.19 194.396 147.31 194.165 147.433C190.476 149.44 186.125 152.018 183.399 155.273C183.198 156.29 183.198 156.29 183.256 157.403C183.258 157.602 183.26 157.802 183.262 158.007C183.271 158.641 183.289 159.273 183.308 159.906C183.315 160.337 183.322 160.767 183.328 161.198C183.344 162.251 183.369 163.303 183.399 164.355C184.531 163.477 185.36 162.614 186.219 161.462C186.476 161.121 186.733 160.78 186.99 160.439C187.122 160.264 187.254 160.088 187.39 159.907C188.05 159.037 188.728 158.181 189.405 157.324C190.56 155.859 191.703 154.385 192.837 152.904C193.49 152.052 194.148 151.206 194.815 150.366C194.96 150.183 195.105 149.999 195.255 149.81C195.534 149.458 195.814 149.107 196.095 148.756C196.822 147.839 197.471 146.917 198.048 145.898C196.805 145.898 195.912 146.494 194.843 147.07ZM103.712 146.484C104.096 147.301 104.524 148.001 105.075 148.716C105.228 148.916 105.381 149.115 105.539 149.321C105.704 149.533 105.868 149.745 106.037 149.963C106.208 150.184 106.378 150.406 106.554 150.634C107.07 151.302 107.588 151.97 108.106 152.636C108.251 152.822 108.395 153.008 108.544 153.199C110.193 155.315 111.866 157.412 113.547 159.503C114.78 161.042 115.98 162.605 117.171 164.177C117.642 164.774 118.111 165.291 118.653 165.82C118.726 164.45 118.779 163.081 118.814 161.709C118.829 161.244 118.849 160.779 118.874 160.314C119.07 157.529 119.07 157.529 118.068 155.01C117.323 154.329 116.568 153.773 115.723 153.222C115.336 152.92 114.949 152.615 114.564 152.309C114.19 152.037 113.813 151.768 113.435 151.501C113.229 151.356 113.024 151.211 112.812 151.062C108.55 147.957 108.55 147.957 103.712 146.484Z" fill="black"/>
</g>
<defs>
<clipPath id="clip0_50_603">
<rect width="300" height="300" fill="white"/>
</clipPath>
</defs>
</svg>
