<svg width="300" height="300" viewBox="0 0 300 300" fill="none" xmlns="http://www.w3.org/2000/svg">
<path d="M70.2144 83.0927C70.4958 83.0914 70.7771 83.0901 71.0669 83.0888C72.0116 83.0856 72.9561 83.0886 73.9007 83.0917C74.584 83.0907 75.2673 83.0893 75.9506 83.0875C77.6328 83.0842 79.3149 83.085 80.9971 83.0876C83.0122 83.0904 85.0273 83.0881 87.0424 83.0856C90.9904 83.081 94.9385 83.0814 98.8866 83.0839C102.341 83.0861 105.796 83.0867 109.251 83.0857C109.48 83.0856 109.709 83.0855 109.945 83.0855C110.875 83.0852 111.805 83.0849 112.735 83.0846C121.459 83.0819 130.184 83.0844 138.908 83.0891C146.662 83.0933 154.415 83.0929 162.168 83.0887C170.877 83.084 179.586 83.0821 188.295 83.0848C189.223 83.0851 190.151 83.0854 191.079 83.0857C191.308 83.0857 191.536 83.0858 191.772 83.0859C195.225 83.0869 198.678 83.0857 202.131 83.0835C206.057 83.081 209.982 83.0816 213.908 83.0864C215.912 83.0887 217.916 83.0897 219.92 83.0867C221.752 83.0841 223.585 83.0855 225.418 83.0902C226.083 83.0912 226.747 83.0906 227.412 83.0885C228.313 83.0859 229.213 83.0886 230.114 83.0927C230.504 83.0896 230.504 83.0896 230.903 83.0864C232.375 83.0999 233.391 83.2647 234.667 84.0822C235.898 85.9391 235.911 88.8013 236.21 90.9553C236.27 91.3793 236.331 91.8033 236.392 92.2272C236.556 93.3752 236.718 94.5237 236.879 95.6722C237.05 96.8895 237.224 98.1063 237.397 99.3233C237.689 101.377 237.98 103.431 238.269 105.486C238.671 108.335 239.075 111.183 239.48 114.032C240.141 118.678 240.797 123.325 241.448 127.972C241.782 130.35 242.118 132.728 242.458 135.105C242.633 136.331 242.806 137.558 242.978 138.785C243.053 139.321 243.13 139.857 243.208 140.392C243.311 141.102 243.41 141.812 243.508 142.522C243.563 142.904 243.617 143.286 243.673 143.679C243.765 144.949 243.785 146.209 243.133 147.336C242.986 147.49 242.839 147.644 242.687 147.803C242.505 147.996 242.322 148.189 242.134 148.388C241.894 148.63 241.653 148.872 241.405 149.121C241.244 149.286 241.082 149.451 240.916 149.621C239.087 151.491 237.26 153.352 235.259 155.039C234.279 155.913 233.37 156.858 232.447 157.792C231.472 158.775 230.466 159.697 229.411 160.594C228.642 161.281 227.92 162.011 227.196 162.744C226.32 163.633 225.441 164.503 224.486 165.308C223.273 166.341 222.165 167.472 221.044 168.604C219.765 169.895 218.485 171.152 217.095 172.324C216.114 173.198 215.205 174.144 214.282 175.078C213.322 176.046 212.333 176.952 211.292 177.832C210.187 178.83 209.156 179.906 208.121 180.977C207.703 181.404 207.27 181.817 206.835 182.227C206.642 182.227 206.448 182.227 206.249 182.227C206.152 182.517 206.056 182.807 205.956 183.106C205.502 183.553 205.502 183.553 204.922 184.03C203.581 185.168 202.353 186.393 201.122 187.647C199.744 189.05 198.351 190.399 196.86 191.681C195.893 192.538 194.995 193.462 194.091 194.385C193.008 195.49 191.923 196.571 190.749 197.58C189.401 198.742 188.16 200.001 186.913 201.27C185.04 203.175 183.136 204.99 181.053 206.664C179.51 207.97 179.51 207.97 178.883 209.818C178.967 210.794 179.118 211.733 179.296 212.695C179.342 213.238 179.374 213.781 179.388 214.325C179.398 214.549 179.409 214.773 179.421 215.004C179.236 215.926 178.865 216.224 178.124 216.797C177.328 216.912 176.651 216.956 175.856 216.946C175.511 216.949 175.511 216.949 175.159 216.951C174.388 216.956 173.617 216.952 172.846 216.949C172.294 216.95 171.741 216.952 171.189 216.955C169.688 216.96 168.187 216.958 166.685 216.954C165.116 216.951 163.546 216.954 161.976 216.956C159.34 216.958 156.704 216.955 154.067 216.95C151.018 216.943 147.969 216.945 144.919 216.952C142.303 216.957 139.686 216.958 137.07 216.955C135.506 216.953 133.943 216.953 132.379 216.957C130.91 216.96 129.44 216.958 127.97 216.951C127.43 216.949 126.89 216.95 126.35 216.952C125.614 216.956 124.879 216.952 124.143 216.946C123.821 216.95 123.821 216.95 123.492 216.954C122.484 216.938 121.962 216.865 121.154 216.241C120.625 215.52 120.567 215.208 120.611 214.325C120.616 213.936 120.616 213.936 120.621 213.539C120.702 212.695 120.702 212.695 120.957 211.843C121.239 210.688 121.291 210.052 120.995 208.887C119.409 206.667 117.211 204.884 115.147 203.123C113.121 201.387 111.272 199.475 109.399 197.578C107.831 195.991 106.264 194.427 104.566 192.978C103.209 191.778 101.965 190.453 100.696 189.162C99.6829 188.139 98.6692 187.137 97.576 186.2C95.8543 184.72 94.2928 183.076 92.7008 181.46C91.404 180.151 90.0918 178.891 88.6931 177.691C88.0003 177.087 87.3589 176.44 86.7178 175.781C85.8813 174.935 85.0435 174.116 84.1361 173.346C83.0348 172.406 82.0223 171.39 81.005 170.361C80.0118 169.357 79.0268 168.363 77.9471 167.45C76.803 166.481 75.76 165.421 74.7061 164.356C73.1499 162.778 73.1499 162.778 71.5018 161.298C70.0922 160.107 68.8228 158.772 67.5257 157.462C66.4541 156.384 65.368 155.356 64.205 154.376C63.0868 153.372 62.0425 152.289 60.9909 151.215C59.9866 150.196 58.9559 149.241 57.8536 148.329C57.2042 147.759 56.8609 147.291 56.5421 146.485C56.4642 144.477 56.6688 142.57 56.9528 140.585C56.9967 140.267 57.0406 139.95 57.0859 139.623C57.2318 138.571 57.3802 137.521 57.5285 136.47C57.6325 135.724 57.7362 134.978 57.8398 134.232C58.0885 132.444 58.3388 130.657 58.5898 128.869C59.0796 125.38 59.5654 121.891 60.0516 118.401C60.1656 117.583 60.2797 116.765 60.394 115.946C61.1042 110.858 61.8025 105.768 62.4747 100.675C62.5434 100.156 62.6122 99.6367 62.681 99.1175C62.9579 97.0248 63.2335 94.9319 63.5026 92.8381C63.5834 92.2127 63.6655 91.5874 63.7482 90.9622C63.8456 90.2253 63.9408 89.4881 64.0331 88.7505C64.4754 85.4474 64.4754 85.4474 65.3311 84.0822C66.9772 83.1754 68.3594 83.078 70.2144 83.0927ZM68.5538 87.3048C67.8916 90.0197 67.8916 90.0197 67.6749 93.1642C122.009 93.1642 176.343 93.1642 232.323 93.1642C232.033 91.2306 231.743 89.297 231.444 87.3048C177.69 87.3048 123.937 87.3048 68.5538 87.3048ZM67.0889 97.5587C66.3478 100.658 66.3478 100.658 65.9171 105.762C121.411 105.762 176.905 105.762 234.081 105.762C233.758 103.019 233.403 100.276 232.909 97.5587C178.189 97.5587 123.468 97.5587 67.0889 97.5587ZM189.843 109.863C189.822 112.25 189.807 114.637 189.797 117.024C189.793 118.133 189.787 119.242 189.777 120.35C189.734 125.117 189.698 129.789 190.722 134.473C191.95 134.207 192.926 133.62 193.999 132.99C205.797 126.248 219.505 123.981 232.818 127.348C233.865 127.642 234.887 127.974 235.913 128.334C236.668 128.645 236.668 128.645 237.304 128.613C236.918 124.935 236.453 121.271 235.939 117.608C235.819 116.752 235.7 115.896 235.582 115.04C235.506 114.493 235.429 113.946 235.353 113.399C235.317 113.144 235.282 112.89 235.246 112.627C235.213 112.392 235.18 112.157 235.145 111.915C235.117 111.709 235.088 111.503 235.058 111.291C234.962 110.678 234.962 110.678 234.667 109.863C215.634 109.631 215.634 109.631 196.599 109.534C196.274 109.533 195.948 109.532 195.613 109.532C194.725 109.53 193.836 109.53 192.948 109.532C192.568 109.531 192.568 109.531 192.182 109.53C190.973 109.504 190.973 109.504 189.843 109.863ZM65.3311 109.863C64.5613 113.903 64.0255 117.961 63.5184 122.04C63.4378 122.681 63.3571 123.321 63.2763 123.962C63.0811 125.512 62.8872 127.063 62.6944 128.613C63.7967 128.442 64.8595 128.23 65.9331 127.928C79.2683 124.254 93.3405 125.597 105.468 132.422C106.348 132.975 107.213 133.539 108.065 134.135C108.271 134.247 108.478 134.358 108.69 134.473C108.981 134.376 109.271 134.279 109.569 134.18C110.081 131.421 110.238 128.762 110.223 125.96C110.223 125.549 110.222 125.138 110.222 124.727C110.222 123.875 110.22 123.022 110.216 122.17C110.211 121.081 110.21 119.991 110.21 118.902C110.21 118.058 110.208 117.213 110.206 116.368C110.205 115.966 110.204 115.565 110.204 115.163C110.204 114.603 110.201 114.042 110.198 113.482C110.197 113.164 110.196 112.846 110.195 112.519C110.155 111.612 110.03 110.754 109.862 109.863C108.4 109.57 107.008 109.529 105.524 109.533C105.27 109.532 105.015 109.532 104.753 109.531C103.909 109.53 103.065 109.531 102.221 109.532C101.625 109.531 101.029 109.531 100.432 109.53C98.8431 109.53 97.2538 109.531 95.6646 109.533C94.6855 109.534 93.7065 109.534 92.7274 109.535C83.5926 109.538 74.4623 109.58 65.3311 109.863ZM173.364 109.58C169.701 109.594 166.039 109.611 162.377 109.63C160.678 109.638 158.98 109.646 157.281 109.654C154.082 109.67 150.882 109.685 147.683 109.701C144.033 109.719 140.383 109.736 136.734 109.754C129.241 109.79 121.749 109.827 114.257 109.863C114.19 111.703 114.144 113.543 114.112 115.383C114.099 116.009 114.081 116.634 114.058 117.26C114.026 118.161 114.011 119.061 113.999 119.963C113.979 120.38 113.979 120.38 113.958 120.805C113.957 122.025 113.985 122.751 114.831 123.673C115.498 124.196 116.172 124.655 116.894 125.098C117.179 125.301 117.464 125.504 117.758 125.713C118.134 125.966 118.134 125.966 118.516 126.223C118.804 126.417 119.091 126.611 119.387 126.811C119.688 127.013 119.989 127.215 120.299 127.423C120.95 127.863 121.6 128.303 122.251 128.743C122.415 128.854 122.579 128.965 122.748 129.079C124.425 130.216 126.09 131.372 127.752 132.532C129.597 133.819 131.444 135.105 133.3 136.377C135.167 137.657 137.026 138.948 138.885 140.241C139.308 140.534 139.308 140.534 139.739 140.834C141.251 141.885 142.759 142.942 144.26 144.008C144.565 144.223 144.87 144.439 145.184 144.661C145.77 145.075 146.355 145.491 146.938 145.909C147.203 146.096 147.467 146.282 147.74 146.474C147.972 146.639 148.204 146.804 148.442 146.974C149.184 147.4 149.733 147.59 150.585 147.656C151.319 147.214 151.937 146.779 152.599 146.246C152.992 145.945 153.385 145.644 153.779 145.344C153.979 145.19 154.179 145.037 154.384 144.879C155.285 144.205 156.218 143.585 157.159 142.969C159.285 141.568 161.384 140.13 163.48 138.683C164.04 138.296 164.601 137.911 165.163 137.526C166.843 136.374 168.522 135.219 170.192 134.051C174.176 131.265 178.191 128.532 182.223 125.817C182.434 125.674 182.646 125.531 182.864 125.384C183.265 125.114 183.667 124.844 184.069 124.574C184.947 124.009 184.947 124.009 185.741 123.34C185.77 122.919 185.779 122.496 185.779 122.074C185.781 121.671 185.781 121.671 185.782 121.26C185.781 120.967 185.781 120.675 185.78 120.374C185.78 120.076 185.781 119.778 185.781 119.471C185.781 118.839 185.781 118.208 185.779 117.576C185.778 116.606 185.779 115.636 185.781 114.665C185.781 114.053 185.781 113.442 185.78 112.83C185.781 112.391 185.781 112.391 185.782 111.944C185.781 111.675 185.78 111.406 185.779 111.129C185.779 110.891 185.779 110.653 185.778 110.408C185.801 109.859 185.801 109.859 185.448 109.57C184.903 109.543 184.357 109.538 183.811 109.54C183.451 109.54 183.09 109.541 182.719 109.541C182.311 109.544 181.904 109.546 181.496 109.548C181.064 109.549 180.632 109.551 180.199 109.552C178.987 109.555 177.775 109.561 176.563 109.567C175.497 109.572 174.43 109.576 173.364 109.58ZM114.257 128.027C114.033 129.257 113.813 130.487 113.599 131.718C113.525 132.137 113.45 132.555 113.374 132.973C113.264 133.575 113.159 134.177 113.055 134.78C112.959 135.323 112.959 135.323 112.86 135.877C112.789 136.864 112.811 137.2 113.378 137.988C113.768 138.413 114.176 138.822 114.593 139.22C114.838 139.456 115.082 139.693 115.334 139.936C115.726 140.314 115.726 140.314 116.125 140.698C122.769 147.239 127.086 155.085 130.419 163.726C130.69 164.426 130.97 165.123 131.249 165.82C136.76 165.82 142.271 165.82 147.948 165.82C148.033 163.464 148.117 161.107 148.205 158.679C148.261 157.572 148.261 157.572 148.318 156.443C148.509 153.4 148.509 153.4 147.578 150.592C146.65 149.64 145.563 149.05 144.366 148.494C143.636 148.14 143.009 147.677 142.36 147.193C141.91 146.877 141.459 146.562 141.009 146.246C140.761 146.073 140.514 145.9 140.259 145.722C138.374 144.405 136.478 143.104 134.578 141.809C132.71 140.534 130.852 139.245 128.997 137.952C126.554 136.25 124.108 134.552 121.651 132.871C121.158 132.534 120.667 132.196 120.175 131.859C119.283 131.246 118.391 130.635 117.498 130.023C117.211 129.826 116.924 129.629 116.629 129.426C116.363 129.244 116.097 129.063 115.824 128.875C115.466 128.63 115.466 128.63 115.1 128.38C114.618 128.001 114.618 128.001 114.257 128.027ZM183.661 129.297C183.356 129.505 183.052 129.713 182.738 129.927C182.409 130.155 182.079 130.382 181.75 130.609C181.412 130.841 181.075 131.072 180.737 131.303C180.068 131.761 179.4 132.22 178.733 132.68C178.003 133.183 177.272 133.684 176.54 134.184C173.981 135.935 171.438 137.709 168.894 139.481C167.269 140.612 165.64 141.74 164.007 142.859C162.008 144.229 160.021 145.617 158.038 147.009C157.81 147.169 157.582 147.329 157.347 147.494C157.116 147.666 156.884 147.837 156.646 148.014C155.858 148.535 155.858 148.535 154.84 148.985C153.691 149.527 152.732 150.069 152.05 151.172C151.411 153.582 151.697 156.204 151.812 158.661C151.89 161.024 151.969 163.386 152.05 165.82C157.657 165.82 163.265 165.82 169.042 165.82C169.815 163.694 170.589 161.567 171.386 159.375C174.93 151.774 179.619 143.837 186.302 138.532C187.054 137.915 187.054 137.915 187.373 137.015C187.33 136.786 187.287 136.558 187.243 136.322C187.198 136.05 187.154 135.777 187.108 135.496C187.043 135.158 186.979 134.821 186.913 134.473C186.84 133.998 186.77 133.522 186.7 133.047C186.553 132.053 186.404 131.06 186.245 130.068C186.211 129.858 186.178 129.649 186.144 129.433C186.052 128.88 186.052 128.88 185.741 128.32C184.854 128.32 184.387 128.798 183.661 129.297ZM62.1085 133.594C61.8134 134.424 61.8155 135.04 61.8155 135.938C62.9403 135.756 63.9628 135.419 65.0313 135.038C76.2632 131.059 88.8358 132.037 99.5501 137.088C102.404 138.477 105.087 140.031 107.519 142.09C108.154 141.857 108.154 141.857 108.298 141.253C108.337 141.028 108.376 140.803 108.416 140.57C108.462 140.349 108.507 140.127 108.554 139.898C108.225 138.35 106.523 137.494 105.263 136.672C104.876 136.436 104.486 136.204 104.095 135.974C103.882 135.85 103.67 135.725 103.451 135.597C93.0388 129.683 72.6065 125.441 62.1085 133.594ZM191.894 138.867C191.948 139.429 191.948 139.429 192.003 140.003C192.024 140.213 192.044 140.424 192.065 140.641C192.147 141.277 192.147 141.277 192.773 141.797C193.054 141.602 193.335 141.407 193.625 141.205C204.369 133.912 216.387 131.164 229.215 133.442C231.648 133.925 234.1 134.532 236.371 135.544C237.27 135.995 237.27 135.995 238.183 135.938C238.233 135.002 238.194 134.192 237.89 133.301C237.109 132.649 236.217 132.418 235.253 132.129C234.974 132.031 234.694 131.933 234.406 131.832C220.655 127.202 203.25 129.556 191.894 138.867ZM64.7452 139.16C65.2122 140.306 65.9578 141.027 66.8326 141.889C66.9774 142.031 67.1222 142.174 67.2714 142.322C68.2502 143.28 69.2617 144.187 70.3036 145.076C71.0189 145.714 71.6887 146.389 72.3624 147.07C73.1929 147.911 74.0239 148.724 74.9259 149.487C76.0859 150.478 77.1497 151.554 78.2217 152.637C79.778 154.215 79.778 154.215 81.4261 155.695C82.624 156.706 83.7112 157.823 84.8135 158.936C86.4499 160.598 86.4499 160.598 88.1827 162.158C89.5733 163.329 90.8283 164.643 92.1 165.94C93.0005 166.853 93.9112 167.732 94.8843 168.567C96.5433 169.998 98.0535 171.577 99.589 173.137C100.826 174.385 102.081 175.578 103.414 176.723C104.777 177.935 106.032 179.265 107.31 180.565C108.519 181.786 109.751 182.949 111.054 184.069C112.02 184.924 112.915 185.847 113.817 186.768C115.094 188.058 116.371 189.315 117.762 190.482C118.77 191.383 119.704 192.36 120.641 193.335C121.388 194.099 122.042 194.723 123.046 195.117C123.275 194.304 123.378 193.575 123.386 192.731C123.39 192.375 123.39 192.375 123.395 192.012C123.396 191.756 123.397 191.501 123.398 191.238C123.4 190.971 123.403 190.703 123.405 190.428C123.41 189.562 123.412 188.696 123.412 187.83C123.412 187.536 123.413 187.242 123.413 186.939C123.408 182.771 123.34 178.7 122.46 174.61C122.387 174.251 122.387 174.251 122.312 173.885C120.313 164.29 115.825 155.555 108.983 148.535C108.781 148.312 108.579 148.088 108.371 147.858C102.068 141.083 92.2058 137.128 83.0843 136.55C82.7076 136.537 82.7076 136.537 82.3233 136.524C82.0269 136.512 81.7304 136.5 81.4249 136.488C75.9525 136.38 69.8021 136.917 64.7452 139.16ZM190.136 149.414C188.991 150.728 187.944 152.113 186.913 153.516C186.724 153.769 186.534 154.023 186.339 154.284C179.299 163.983 176.529 175.367 176.583 187.209C176.586 188.043 176.583 188.878 176.579 189.712C176.58 190.246 176.58 190.78 176.581 191.314C176.58 191.562 176.579 191.809 176.578 192.064C176.58 192.295 176.582 192.525 176.583 192.762C176.584 192.963 176.584 193.164 176.585 193.371C176.672 194.048 176.912 194.526 177.245 195.117C177.451 194.908 177.656 194.7 177.868 194.484C179.268 193.068 180.673 191.691 182.191 190.4C183.154 189.537 184.054 188.614 184.956 187.688C185.974 186.651 185.974 186.651 186.62 186.328C186.62 186.135 186.62 185.942 186.62 185.742C186.776 185.683 186.931 185.624 187.092 185.563C188.097 184.979 188.82 184.177 189.623 183.344C191.687 181.239 191.687 181.239 192.773 180.322C193.858 179.403 194.849 178.403 195.849 177.393C196.842 176.388 197.827 175.394 198.907 174.481C200.247 173.346 201.459 172.083 202.693 170.835C203.74 169.782 204.806 168.782 205.94 167.823C206.923 166.945 207.836 165.997 208.762 165.06C209.737 164.077 210.743 163.155 211.798 162.258C212.715 161.439 213.569 160.558 214.432 159.683C215.382 158.725 216.367 157.831 217.393 156.956C218.287 156.162 219.114 155.302 219.953 154.451C220.73 153.685 221.545 152.979 222.373 152.27C222.98 151.73 223.55 151.165 224.12 150.586C224.852 149.842 225.596 149.138 226.391 148.462C227.609 147.417 228.725 146.282 229.852 145.141C230.851 144.135 231.881 143.186 232.961 142.266C233.867 141.471 234.706 140.61 235.546 139.746C234.445 138.723 233.174 138.471 231.756 138.117C231.507 138.053 231.257 137.99 231.001 137.924C227.76 137.117 224.524 136.7 221.19 136.524C220.961 136.511 220.732 136.499 220.496 136.486C209.056 136.188 197.935 141.089 190.136 149.414ZM60.9366 141.504C60.5581 142.888 60.3604 144.185 60.6436 145.606C61.2633 146.539 62.055 147.202 62.9141 147.913C63.3735 148.317 63.8324 148.722 64.2909 149.127C64.518 149.324 64.7451 149.52 64.9791 149.723C65.8756 150.516 66.7126 151.358 67.5467 152.216C68.4286 153.111 69.3162 153.984 70.275 154.798C71.4244 155.774 72.4743 156.839 73.5342 157.91C75.0905 159.488 75.0905 159.488 76.7386 160.968C78.1482 162.159 79.4176 163.494 80.7147 164.804C81.7867 165.882 82.8733 166.911 84.0365 167.891C85.1455 168.887 86.1811 169.96 87.2237 171.025C88.0892 171.903 88.9685 172.744 89.9039 173.548C91.4952 174.921 92.9469 176.43 94.4197 177.928C95.4391 178.958 96.4603 179.965 97.56 180.909C99.1331 182.261 100.558 183.759 102.003 185.244C102.321 185.567 102.321 185.567 102.646 185.897C102.836 186.092 103.027 186.288 103.224 186.49C103.676 186.978 103.676 186.978 104.296 186.914C104.296 187.108 104.296 187.301 104.296 187.5C104.706 187.915 104.706 187.915 105.257 188.352C106.305 189.242 107.293 190.177 108.26 191.153C108.402 191.296 108.544 191.439 108.69 191.586C109.278 192.179 109.865 192.774 110.451 193.368C111.967 194.903 113.486 196.408 115.128 197.81C116.681 199.196 118.107 200.728 119.561 202.217C119.939 202.599 119.939 202.599 120.325 202.99C120.552 203.222 120.78 203.455 121.014 203.694C121.527 204.264 121.527 204.264 122.167 204.199C122.661 202.918 122.921 201.707 122.46 200.391C121.052 198.403 119.121 196.593 117.187 195.117C116.993 195.117 116.8 195.117 116.601 195.117C116.601 194.924 116.601 194.731 116.601 194.531C116.175 194.101 116.175 194.101 115.61 193.651C113.833 192.141 112.233 190.46 110.606 188.793C110.248 188.43 110.248 188.43 109.883 188.06C109.668 187.84 109.453 187.619 109.231 187.393C108.738 186.849 108.738 186.849 108.105 186.914C108.008 186.624 107.911 186.334 107.812 186.035C107.36 185.578 107.36 185.578 106.795 185.129C105.086 183.679 103.543 182.073 101.972 180.477C100.729 179.222 99.4678 178.023 98.1282 176.873C96.9017 175.786 95.7746 174.595 94.628 173.426C93.4926 172.278 92.3267 171.194 91.1032 170.141C90.1346 169.282 89.2353 168.356 88.3292 167.432C87.0633 166.152 85.7959 164.91 84.4187 163.75C83.3098 162.754 82.2741 161.681 81.2315 160.616C80.363 159.735 79.4804 158.891 78.5422 158.084C77.0211 156.771 75.6314 155.334 74.2243 153.901C73.0463 152.71 71.8416 151.581 70.5719 150.488C69.7124 149.73 68.915 148.915 68.1143 148.096C66.9245 146.891 65.7215 145.733 64.4282 144.639C63.4908 143.808 62.6257 142.906 61.7526 142.009C61.3156 141.47 61.3156 141.47 60.9366 141.504ZM111.913 142.09C111.497 143.208 111.19 144.119 111.327 145.313C111.77 145.944 111.77 145.944 112.408 146.539C120.343 154.949 124.563 165.735 126.562 176.953C126.601 177.17 126.64 177.386 126.681 177.609C128.102 185.886 127.082 194.595 126.178 202.86C126.144 203.175 126.11 203.491 126.075 203.816C126.009 204.413 125.942 205.01 125.873 205.607C125.843 205.872 125.814 206.138 125.784 206.411C125.757 206.643 125.731 206.874 125.703 207.113C125.646 207.774 125.646 207.774 125.976 208.594C132.134 194.992 131.886 178.382 126.868 164.477C126.325 163.047 125.73 161.646 125.097 160.254C124.956 159.944 124.956 159.944 124.812 159.627C121.797 153.1 117.55 146.639 111.913 142.09ZM186.382 143.39C175.181 154.646 169.547 170.715 169.573 186.383C169.573 186.597 169.574 186.812 169.574 187.032C169.583 190.152 169.624 193.216 170.214 196.289C170.282 196.654 170.282 196.654 170.352 197.025C171.373 203.4 171.373 203.4 174.315 208.887C174.152 205.631 173.818 202.396 173.467 199.156C173.044 195.199 172.789 191.279 172.796 187.299C172.796 187.094 172.796 186.889 172.796 186.678C172.832 171.367 177.989 156.287 188.964 145.313C188.982 144.682 188.982 144.682 188.872 143.994C188.829 143.645 188.829 143.645 188.784 143.289C188.698 142.662 188.698 142.662 188.378 142.09C187.426 142.09 187.045 142.737 186.382 143.39ZM237.249 143.445C237.094 143.589 236.94 143.733 236.78 143.881C236.445 144.194 236.11 144.507 235.776 144.821C235.255 145.311 234.732 145.798 234.208 146.285C233.286 147.143 232.366 148.004 231.446 148.864C230.834 149.437 230.221 150.009 229.609 150.58C229.195 150.967 228.782 151.353 228.368 151.74C228.084 152.004 228.084 152.004 227.795 152.274C226.874 153.136 225.967 154.008 225.078 154.903C224.409 155.577 223.732 156.22 223.003 156.83C222.063 157.64 221.184 158.492 220.312 159.375C219.276 160.424 218.214 161.408 217.094 162.364C216.169 163.189 215.31 164.078 214.446 164.966C213.866 165.527 213.866 165.527 212.987 166.113C212.987 166.307 212.987 166.5 212.987 166.699C212.816 166.775 212.644 166.851 212.468 166.929C211.766 167.312 211.314 167.724 210.758 168.296C210.561 168.496 210.364 168.697 210.161 168.903C209.856 169.217 209.856 169.217 209.545 169.538C208.19 170.927 206.821 172.259 205.349 173.524C204.435 174.332 203.587 175.203 202.733 176.074C201.488 177.334 200.235 178.552 198.883 179.696C198.02 180.457 197.226 181.283 196.425 182.108C195.83 182.688 195.224 183.231 194.594 183.774C193.341 184.862 192.176 186.023 191.015 187.207C189.688 188.56 188.34 189.853 186.904 191.09C185.935 191.949 185.036 192.875 184.13 193.799C181.833 196.121 181.833 196.121 180.614 197.168C180.442 197.318 180.271 197.469 180.094 197.624C179.734 197.925 179.363 198.212 178.984 198.489C178.349 199.003 177.937 199.381 177.538 200.098C177.456 201.402 177.601 202.623 177.831 203.906C178.712 203.514 179.295 203.087 179.955 202.387C180.648 201.654 181.375 200.987 182.139 200.33C183.452 199.19 184.67 197.969 185.888 196.729C187.074 195.521 188.256 194.326 189.541 193.222C190.883 192.067 192.117 190.813 193.358 189.551C194.787 188.098 196.227 186.693 197.772 185.365C198.738 184.51 199.634 183.587 200.536 182.666C201.796 181.393 203.057 180.158 204.427 179.004C205.62 177.929 206.732 176.769 207.861 175.628C208.953 174.53 210.059 173.479 211.243 172.481C212.152 171.674 212.994 170.8 213.847 169.935C214.785 168.99 215.756 168.112 216.768 167.249C217.688 166.425 218.546 165.541 219.413 164.663C220.357 163.711 221.335 162.825 222.354 161.956C223.334 161.082 224.241 160.136 225.163 159.202C225.958 158.418 226.788 157.692 227.637 156.966C228.298 156.377 228.918 155.757 229.54 155.127C230.322 154.335 231.109 153.577 231.957 152.857C233.242 151.757 234.415 150.553 235.603 149.351C236.806 148.14 238.049 146.998 239.355 145.899C239.451 145.802 239.548 145.705 239.648 145.606C239.621 145.013 239.575 144.42 239.519 143.829C239.475 143.344 239.475 143.344 239.429 142.849C239.404 142.598 239.38 142.348 239.355 142.09C238.386 142.09 237.938 142.8 237.249 143.445ZM132.714 170.215C132.884 171.919 133.056 173.597 133.292 175.289C133.339 175.627 133.386 175.965 133.434 176.313C133.492 176.729 133.551 177.146 133.611 177.576C133.798 178.917 133.986 180.259 134.179 181.641C138.723 181.641 143.267 181.641 147.948 181.641C147.948 177.87 147.948 174.1 147.948 170.215C142.921 170.215 137.894 170.215 132.714 170.215ZM152.05 170.215C152.05 173.986 152.05 177.756 152.05 181.641C156.594 181.641 161.138 181.641 165.819 181.641C166.007 180.299 166.194 178.958 166.387 177.576C166.475 176.951 166.475 176.951 166.564 176.313C166.611 175.975 166.658 175.637 166.706 175.289C166.754 174.949 166.801 174.608 166.85 174.257C167.021 172.913 167.149 171.563 167.284 170.215C162.257 170.215 157.23 170.215 152.05 170.215ZM134.472 186.035C134.357 187.383 134.242 188.73 134.124 190.119C133.44 197.457 131.96 204.586 129.164 211.425C128.871 212.079 128.871 212.079 128.905 212.695C131.383 212.702 133.861 212.707 136.339 212.711C137.489 212.712 138.64 212.714 139.79 212.718C140.9 212.721 142.009 212.722 143.118 212.723C143.542 212.724 143.967 212.725 144.391 212.726C144.983 212.729 145.575 212.729 146.167 212.729C146.505 212.729 146.842 212.73 147.19 212.731C147.928 212.782 147.928 212.782 148.241 212.402C148.269 211.587 148.275 210.779 148.269 209.964C148.268 209.696 148.267 209.428 148.266 209.153C148.242 204.921 148.17 200.689 148.105 196.457C148.084 195.069 148.064 193.682 148.043 192.294C148.012 190.208 147.98 188.122 147.948 186.035C143.501 186.035 139.054 186.035 134.472 186.035ZM152.05 186.035C152.022 194.932 152.123 203.801 152.343 212.695C158.53 212.695 164.718 212.695 171.093 212.695C170.851 211.247 170.616 210.44 170.013 209.162C166.77 201.88 166.065 193.894 165.526 186.035C161.079 186.035 156.632 186.035 152.05 186.035Z" fill="black"/>
</svg>
