<svg width="300" height="300" viewBox="0 0 300 300" fill="none" xmlns="http://www.w3.org/2000/svg">
<path d="M163.784 67.7389C164.093 67.8941 164.402 68.0493 164.719 68.2092C165.705 68.7057 166.687 69.207 167.67 69.7085C168.317 70.0355 168.965 70.3622 169.613 70.6886C173.938 72.8718 178.236 75.1052 182.503 77.399C184.925 78.7004 187.38 79.932 189.844 81.1525C193.235 82.8332 196.611 84.535 199.951 86.315C200.806 86.7702 201.666 87.213 202.533 87.6448C204.862 88.8158 206.684 89.8303 207.825 92.267C208.233 94.2668 208.188 96.3482 207.129 98.1447C205.869 99.4266 204.564 100.239 202.869 100.84C202.648 100.922 202.426 101.005 202.198 101.089C201.402 101.383 200.604 101.668 199.805 101.953C199.481 102.07 199.158 102.186 198.826 102.306C196.189 103.254 193.548 104.189 190.906 105.121C189.532 105.606 188.158 106.092 186.784 106.578C186.24 106.771 185.696 106.962 185.152 107.154C184.823 107.27 184.494 107.387 184.155 107.507C183.867 107.609 183.578 107.711 183.281 107.815C182.61 108.071 181.982 108.356 181.348 108.692C181.534 108.782 181.721 108.873 181.914 108.967C183.684 109.828 185.451 110.694 187.215 111.565C188.123 112.012 189.03 112.458 189.94 112.9C190.989 113.409 192.033 113.925 193.078 114.442C193.564 114.676 193.564 114.676 194.06 114.915C195.829 115.799 197.279 116.645 198.34 118.36C198.638 119.253 198.672 119.861 198.676 120.797C198.679 121.281 198.679 121.281 198.682 121.776C198.683 122.131 198.684 122.486 198.685 122.851C198.686 123.225 198.688 123.598 198.69 123.983C198.697 125.222 198.7 126.462 198.702 127.701C198.704 128.129 198.705 128.556 198.706 128.983C198.712 130.991 198.716 132.998 198.718 135.006C198.721 137.32 198.729 139.635 198.741 141.949C198.75 143.74 198.754 145.531 198.755 147.322C198.756 148.39 198.758 149.459 198.766 150.528C198.774 151.721 198.772 152.915 198.77 154.108C198.776 154.636 198.776 154.636 198.782 155.174C198.767 157.552 198.401 159.102 196.895 160.948C196.212 161.486 195.615 161.758 194.796 162.047C194.498 162.153 194.201 162.26 193.894 162.37C193.413 162.537 193.413 162.537 192.922 162.707C192.422 162.884 192.422 162.884 191.912 163.065C190.845 163.444 189.777 163.817 188.708 164.191C188 164.441 187.292 164.691 186.584 164.942C185.233 165.42 183.882 165.896 182.529 166.369C181.489 166.733 180.453 167.104 179.422 167.494C178.888 167.695 178.888 167.695 178.342 167.9C178.057 168.011 177.772 168.121 177.478 168.235C176.335 168.546 175.134 168.717 174.045 168.178C172.456 166.692 172.027 165.529 171.946 163.355C171.936 162.476 171.936 161.596 171.939 160.717C171.939 160.382 171.939 160.047 171.939 159.703C171.939 158.599 171.942 157.496 171.944 156.393C171.944 155.627 171.945 154.861 171.945 154.095C171.946 152.286 171.948 150.478 171.951 148.67C171.955 146.61 171.956 144.55 171.958 142.491C171.961 138.256 171.966 134.02 171.973 129.785C171.573 129.657 171.573 129.657 171.166 129.527C170.422 129.271 169.76 129.005 169.064 128.646C168.855 128.539 168.646 128.432 168.431 128.322C168.099 128.15 168.099 128.15 167.76 127.974C167.525 127.853 167.29 127.732 167.049 127.608C166.291 127.218 165.534 126.826 164.776 126.435C164.257 126.167 163.738 125.899 163.218 125.632C160.056 124.002 156.899 122.362 153.752 120.702C153.559 120.602 153.366 120.502 153.166 120.399C152.68 120.14 152.205 119.86 151.731 119.578C149.849 118.828 147.849 119.826 146.048 120.495C145.779 120.593 145.509 120.692 145.231 120.793C144.348 121.115 143.466 121.44 142.584 121.765C141.656 122.105 140.728 122.443 139.801 122.782C139.166 123.013 138.532 123.245 137.897 123.477C134.705 124.644 131.504 125.788 128.302 126.929C127.798 127.108 127.295 127.288 126.791 127.468C125.904 127.784 125.017 128.1 124.13 128.416C122.304 129.066 120.478 129.719 118.652 130.371C118.651 130.638 118.651 130.638 118.65 130.91C118.633 135.241 118.611 139.571 118.583 143.902C118.57 145.996 118.558 148.09 118.551 150.185C118.544 152.011 118.534 153.836 118.521 155.662C118.514 156.629 118.509 157.595 118.506 158.561C118.504 159.641 118.495 160.721 118.486 161.801C118.486 162.12 118.487 162.439 118.487 162.767C118.463 164.753 118.233 166.156 117.114 167.835C116.293 168.363 115.509 168.497 114.551 168.457C113.481 168.128 112.497 167.649 111.493 167.157C111.205 167.021 110.917 166.885 110.621 166.745C109.779 166.345 108.942 165.938 108.105 165.528C107.902 165.429 107.7 165.33 107.491 165.228C106.594 164.79 105.702 164.343 104.813 163.889C103.819 163.382 102.819 162.889 101.816 162.4C101.018 162.011 100.222 161.619 99.425 161.227C99.0262 161.032 98.627 160.837 98.2272 160.644C97.6599 160.369 97.0947 160.091 96.5296 159.811C96.1989 159.65 95.8682 159.488 95.5275 159.322C93.9558 158.391 93.0828 157.437 92.465 155.703C92.1003 154.239 92.1609 152.747 92.1666 151.246C92.1646 150.877 92.1626 150.508 92.1605 150.128C92.1553 149.122 92.1556 148.116 92.1573 147.11C92.1582 146.269 92.1564 145.427 92.1546 144.585C92.1505 142.6 92.151 140.614 92.1543 138.628C92.1577 136.583 92.1536 134.537 92.1457 132.492C92.1392 130.731 92.1373 128.971 92.139 127.211C92.14 126.162 92.1393 125.112 92.1342 124.062C92.1289 122.893 92.133 121.723 92.138 120.553C92.1352 120.207 92.1324 119.861 92.1294 119.504C92.146 117.667 92.2099 116.528 93.4569 115.137C94.3138 114.354 95.2113 113.985 96.2927 113.581C96.6269 113.455 96.9611 113.329 97.3055 113.199C97.6669 113.065 98.0283 112.931 98.4007 112.793C98.7821 112.65 99.1634 112.508 99.5446 112.365C100.737 111.918 101.931 111.476 103.125 111.035C103.311 110.966 103.498 110.897 103.69 110.826C106.237 109.886 108.786 108.954 111.336 108.024C112.967 107.428 114.598 106.832 116.229 106.235C116.811 106.022 117.392 105.81 117.973 105.598C118.323 105.47 118.672 105.342 119.032 105.21C119.341 105.097 119.651 104.984 119.969 104.868C120.688 104.61 120.688 104.61 121.289 104.297C119.479 103.358 117.67 102.419 115.855 101.491C115.403 101.26 114.952 101.03 114.5 100.799C114.153 100.621 114.153 100.621 113.798 100.44C112.314 99.6788 110.839 98.903 109.368 98.1171C108.375 97.5884 107.377 97.068 106.379 96.5489C105.897 96.2959 105.417 96.0393 104.938 95.7791C102.069 94.0661 102.069 94.0661 98.8768 93.9264C98.3349 94.1494 97.7982 94.3851 97.2655 94.6291C96.6921 94.8355 96.115 95.0278 95.5369 95.2206C94.6316 95.5244 93.7326 95.8451 92.8326 96.1644C91.8228 96.5225 90.8119 96.8779 89.8012 97.2335C89.2572 97.4249 88.7132 97.6164 88.1693 97.8081C84.9969 98.9255 81.8215 100.034 78.6447 101.139C77.9971 101.364 77.3497 101.59 76.7024 101.816C75.7941 102.134 74.8855 102.45 73.9767 102.766C73.7029 102.862 73.4291 102.958 73.147 103.057C72.8971 103.143 72.6471 103.23 72.3896 103.319C72.1712 103.395 71.9528 103.471 71.7278 103.55C71.1913 103.711 71.1913 103.711 70.6053 103.711C70.6053 103.904 70.6053 104.098 70.6053 104.297C70.8365 104.366 71.0676 104.435 71.3058 104.506C72.6582 104.988 73.9274 105.599 75.2184 106.224C75.6268 106.422 75.6268 106.422 76.0435 106.623C76.6178 106.901 77.1917 107.18 77.7654 107.459C78.6383 107.883 79.5132 108.303 80.3883 108.723C80.9479 108.994 81.5073 109.266 82.0666 109.538C82.4558 109.724 82.4558 109.724 82.8528 109.913C86.4579 111.686 86.4579 111.686 87.3045 113.379C87.4768 114.792 87.4352 115.772 86.7552 117.041C86.1327 117.774 86.1327 117.774 85.5467 118.067C79.2891 118.067 73.8586 113.541 68.2616 110.742C68.2616 137.136 68.2616 163.53 68.2616 190.723C69.5667 191.158 69.5667 191.158 70.8983 191.602C71.3422 191.791 71.7823 191.989 72.2136 192.205C72.4399 192.318 72.6662 192.43 72.8993 192.546C73.2581 192.727 73.2582 192.727 73.6242 192.912C73.8856 193.042 74.147 193.173 74.4164 193.307C75.2862 193.741 76.1547 194.178 77.0232 194.614C77.649 194.927 78.2748 195.24 78.9007 195.553C80.4204 196.313 81.9393 197.074 83.4579 197.836C85.2284 198.724 86.9999 199.611 88.7715 200.497C91.9335 202.079 95.0947 203.663 98.2555 205.247C101.319 206.783 104.382 208.318 107.446 209.852C107.635 209.946 107.824 210.041 108.018 210.138C108.966 210.612 109.913 211.087 110.86 211.561C117.391 214.83 123.921 218.1 130.45 221.373C130.726 221.511 131.002 221.649 131.286 221.792C131.792 222.045 132.298 222.299 132.804 222.552C133.029 222.665 133.255 222.778 133.487 222.895C133.679 222.991 133.87 223.087 134.068 223.186C135.081 223.694 136.095 224.2 137.109 224.707C137.109 198.797 137.109 172.887 137.109 146.192C136.529 145.998 135.949 145.805 135.351 145.606C134.603 145.271 133.864 144.93 133.127 144.575C132.919 144.475 132.711 144.375 132.497 144.272C132.059 144.062 131.622 143.851 131.185 143.639C130.521 143.318 129.855 143.001 129.189 142.685C128.762 142.479 128.335 142.272 127.908 142.066C127.711 141.973 127.514 141.88 127.312 141.784C125.877 141.082 124.336 140.27 123.595 138.795C123.363 137.623 123.282 136.982 123.688 135.828C123.863 135.574 124.038 135.32 124.219 135.059C124.333 134.884 124.448 134.708 124.566 134.528C125.453 133.947 126.406 133.867 127.441 133.887C128.37 134.137 129.2 134.542 130.06 134.967C130.431 135.141 130.431 135.141 130.81 135.319C132.293 136.019 133.76 136.752 135.229 137.483C135.554 137.643 135.878 137.802 136.213 137.967C136.848 138.281 137.481 138.599 138.112 138.923C138.551 139.141 138.551 139.141 139 139.363C139.257 139.493 139.514 139.624 139.779 139.758C142.131 140.54 144.037 139.77 146.258 138.937C146.57 138.824 146.882 138.71 147.203 138.593C148.198 138.23 149.19 137.862 150.183 137.494C150.843 137.252 151.503 137.01 152.164 136.769C152.807 136.534 153.451 136.298 154.095 136.062C154.406 135.948 154.718 135.834 155.039 135.717C156.338 135.24 157.635 134.762 158.924 134.258C159.28 134.122 159.637 133.985 160.004 133.845C160.294 133.73 160.584 133.615 160.882 133.497C161.94 133.249 162.716 133.35 163.769 133.594C164.965 134.608 165.481 135.181 165.637 136.743C165.712 137.742 165.489 138.043 164.899 138.895C164.125 139.76 163.385 140.149 162.286 140.552C162.103 140.621 161.92 140.69 161.731 140.76C161.045 141.015 160.357 141.259 159.668 141.504C159.039 141.731 158.41 141.957 157.782 142.184C156.377 142.689 154.97 143.189 153.562 143.688C151.35 144.472 149.146 145.277 146.946 146.093C146.699 146.184 146.452 146.274 146.198 146.368C145.983 146.447 145.769 146.527 145.547 146.609C145.019 146.778 145.019 146.778 144.433 146.778C144.433 172.881 144.433 198.985 144.433 225.879C147.14 224.912 149.848 223.946 152.637 222.949C156.792 221.51 156.792 221.51 158.509 220.922C168.378 217.533 178.238 214.118 188.088 210.672C189.358 210.229 190.627 209.785 191.896 209.342C202.929 205.491 202.929 205.491 213.94 201.581C219.766 199.498 225.606 197.454 231.445 195.41C231.542 168.63 231.639 141.85 231.738 114.258C222.127 117.63 222.127 117.63 212.571 121.151C211.702 121.478 210.831 121.799 209.96 122.12C209.703 122.219 209.447 122.317 209.182 122.419C207.699 122.958 206.654 123.174 205.078 122.754C204.285 122.22 203.749 121.853 203.32 120.996C203.25 120.35 203.25 120.35 203.229 119.586C203.218 119.337 203.207 119.087 203.195 118.83C203.364 117.798 203.784 117.364 204.492 116.602C205.251 116.162 205.251 116.162 206.167 115.788C206.429 115.681 206.429 115.681 206.695 115.572C209.676 114.379 212.734 113.374 215.771 112.335C216.724 112.008 217.676 111.68 218.628 111.353C219.237 111.143 219.847 110.933 220.457 110.723C222.661 109.965 224.859 109.192 227.051 108.399C226.052 107.626 225.016 107.061 223.883 106.513C221.784 105.478 219.699 104.42 217.621 103.345C217.33 103.196 217.04 103.048 216.74 102.895C213.552 101.241 213.552 101.241 212.604 99.9758C212.295 98.9655 212.235 98.0089 212.402 96.9729C213.281 95.3615 213.281 95.3615 214.16 94.9221C216.303 94.6998 217.708 95.3528 219.598 96.3137C219.892 96.4585 220.186 96.6034 220.488 96.7526C222.816 97.9085 225.123 99.106 227.42 100.322C228.907 101.109 230.401 101.871 231.916 102.602C232.235 102.757 232.554 102.912 232.883 103.072C233.495 103.368 234.109 103.661 234.726 103.95C236.569 104.845 237.829 105.639 238.769 107.52C238.798 108.014 238.807 108.51 238.808 109.005C238.809 109.322 238.81 109.638 238.811 109.964C238.811 110.315 238.811 110.665 238.811 111.026C238.812 111.581 238.812 111.581 238.813 112.148C238.816 113.179 238.816 114.209 238.816 115.24C238.817 116.351 238.819 117.461 238.821 118.571C238.825 121.001 238.827 123.431 238.828 125.861C238.829 127.377 238.83 128.894 238.831 130.41C238.835 134.607 238.838 138.804 238.839 143.001C238.839 143.27 238.839 143.539 238.839 143.816C238.839 144.085 238.839 144.355 238.839 144.632C238.839 145.178 238.84 145.724 238.84 146.27C238.84 146.541 238.84 146.812 238.84 147.091C238.841 151.479 238.846 155.867 238.853 160.256C238.86 164.759 238.864 169.262 238.864 173.765C238.864 176.294 238.866 178.823 238.871 181.353C238.876 183.506 238.877 185.66 238.875 187.814C238.874 188.913 238.874 190.012 238.878 191.111C238.883 192.302 238.88 193.493 238.877 194.685C238.879 195.033 238.882 195.38 238.884 195.739C238.866 198.682 238.866 198.682 237.89 200.098C235.709 201.803 232.372 202.538 229.779 203.449C229.246 203.637 228.714 203.826 228.181 204.015C222.509 206.022 216.826 207.997 211.144 209.977C206.322 211.658 201.504 213.35 196.692 215.058C196.406 215.159 196.121 215.26 195.827 215.364C194.716 215.759 193.605 216.153 192.494 216.547C186.406 218.707 180.312 220.848 174.204 222.949C171.224 223.974 168.245 225.005 165.268 226.039C164.697 226.237 164.126 226.435 163.555 226.633C160.175 227.805 156.8 228.993 153.434 230.207C152.792 230.438 152.15 230.668 151.509 230.899C150.283 231.339 149.058 231.784 147.835 232.231C147.273 232.433 146.712 232.634 146.15 232.836C145.776 232.975 145.776 232.975 145.393 233.116C143.335 233.848 140.958 234.585 138.875 233.608C138.512 233.443 138.512 233.443 138.141 233.275C137.897 233.154 137.654 233.034 137.402 232.91C137.033 232.736 137.033 232.736 136.657 232.558C135.881 232.184 135.112 231.798 134.344 231.409C134.097 231.285 133.849 231.161 133.594 231.034C132.099 230.281 130.615 229.508 129.137 228.723C125.811 226.961 122.451 225.273 119.08 223.598C118.47 223.294 117.86 222.99 117.249 222.686C115.948 222.038 114.646 221.39 113.344 220.742C111.285 219.717 109.227 218.691 107.169 217.665C106.816 217.489 106.464 217.313 106.112 217.137C105.578 216.871 105.045 216.605 104.511 216.339C102.513 215.342 100.514 214.346 98.515 213.349C98.3328 213.259 98.1506 213.168 97.9629 213.074C94.9981 211.596 92.0325 210.12 89.0666 208.645C86.0106 207.124 82.9559 205.601 79.902 204.077C78.1915 203.223 76.4805 202.37 74.7682 201.52C73.1621 200.722 71.5573 199.922 69.9535 199.12C69.365 198.826 68.776 198.533 68.1865 198.241C67.3822 197.843 66.5798 197.441 65.7777 197.039C65.4273 196.867 65.4273 196.867 65.0698 196.692C63.4243 195.858 61.8894 194.879 61.2303 193.067C60.8339 191.318 60.8958 189.559 60.8982 187.777C60.8975 187.418 60.8969 187.059 60.8962 186.689C60.8946 185.696 60.8944 184.702 60.8948 183.709C60.8948 182.636 60.8932 181.564 60.8918 180.491C60.8894 178.391 60.8886 176.291 60.8884 174.191C60.8883 172.483 60.8877 170.776 60.8867 169.069C60.8842 164.227 60.8828 159.386 60.883 154.545C60.883 154.284 60.883 154.023 60.8831 153.754C60.8831 153.493 60.8831 153.232 60.8831 152.962C60.8832 148.728 60.8804 144.494 60.8763 140.259C60.8721 135.91 60.87 131.562 60.8703 127.213C60.8704 124.772 60.8696 122.33 60.8664 119.889C60.8638 117.811 60.8631 115.733 60.8651 113.654C60.8661 112.594 60.8661 111.534 60.8636 110.474C60.8608 109.325 60.8626 108.175 60.8649 107.025C60.8634 106.691 60.8619 106.357 60.8604 106.013C60.8804 101.403 60.8804 101.403 62.4478 99.7173C63.7322 98.7648 65.3165 98.3419 66.815 97.8335C67.2026 97.6975 67.5899 97.5611 67.9771 97.424C68.8058 97.1314 69.6354 96.8415 70.4657 96.5533C71.8106 96.0846 73.1493 95.5993 74.4872 95.1109C74.946 94.9437 75.4049 94.7764 75.8638 94.6092C76.0892 94.527 76.3145 94.4448 76.5467 94.3602C76.7674 94.2797 76.9881 94.1993 77.2154 94.1164C77.426 94.0396 77.6365 93.9628 77.8534 93.8837C80.3317 92.9817 82.8183 92.114 85.3224 91.2863C88.2228 90.3275 91.1018 89.3144 93.9783 88.2866C99.6817 86.2499 105.4 84.2574 111.127 82.2878C111.668 82.1016 111.668 82.1016 112.22 81.9116C112.58 81.7878 112.94 81.664 113.311 81.5365C114.028 81.2899 114.745 81.0433 115.462 80.7966C115.811 80.6765 116.16 80.5563 116.52 80.4325C120.184 79.1714 123.842 77.8953 127.5 76.6161C130.24 75.6581 132.981 74.7042 135.724 73.7562C136.961 73.3287 138.198 72.9011 139.435 72.4733C139.736 72.3692 140.037 72.265 140.347 72.1577C144.881 70.5883 149.402 68.9851 153.909 67.3377C154.113 67.263 154.318 67.1883 154.529 67.1114C155.072 66.9131 155.615 66.7141 156.158 66.515C156.446 66.4147 156.734 66.3144 157.031 66.2111C157.308 66.1083 157.308 66.1083 157.59 66.0034C159.93 65.6778 161.766 66.7014 163.784 67.7389ZM156.463 73.6929C156.181 73.7922 155.899 73.8915 155.609 73.9938C155.305 74.1035 155.001 74.2131 154.687 74.3261C154.367 74.4395 154.047 74.5529 153.717 74.6698C152.673 75.0402 151.629 75.4139 150.586 75.7876C149.87 76.042 149.154 76.2961 148.439 76.5501C147.003 77.0598 145.567 77.5705 144.132 78.0821C141.552 79.0011 138.968 79.909 136.383 80.8149C135.277 81.2027 134.171 81.5914 133.065 81.98C132.46 82.1924 131.855 82.4049 131.25 82.6174C131.25 82.8107 131.25 83.0041 131.25 83.2033C133.88 84.5523 136.513 85.8948 139.15 87.2293C140.375 87.8493 141.598 88.4713 142.819 89.0984C143.998 89.7038 145.18 90.3034 146.364 90.8992C146.814 91.1271 147.264 91.3571 147.712 91.5892C148.342 91.9148 148.975 92.2327 149.609 92.5492C149.792 92.6462 149.976 92.7431 150.165 92.843C151.832 93.6573 153.009 93.4473 154.76 92.9937C154.932 92.9305 155.105 92.8672 155.283 92.802C155.486 92.729 155.689 92.656 155.899 92.5808C156.113 92.501 156.327 92.4213 156.548 92.3391C156.898 92.2124 156.898 92.2124 157.256 92.0831C157.76 91.9001 158.265 91.7162 158.769 91.5312C160.129 91.0322 161.491 90.5413 162.854 90.0492C163.139 89.9459 163.424 89.8427 163.718 89.7363C167.106 88.5119 170.51 87.3312 173.913 86.1513C174.514 85.943 175.114 85.7347 175.714 85.5264C177.104 85.0445 178.493 84.5632 179.883 84.0822C179.039 83.1859 178.093 82.6785 177.004 82.1287C176.803 82.0255 176.602 81.9223 176.395 81.8159C175.734 81.477 175.071 81.1407 174.408 80.8046C173.949 80.5707 173.489 80.3367 173.03 80.1027C172.081 79.6191 171.13 79.1368 170.18 78.6553C169.017 78.0664 167.858 77.4733 166.698 76.8785C165.842 76.4397 164.984 76.0035 164.125 75.568C163.719 75.3612 163.313 75.1536 162.907 74.9449C162.342 74.6546 161.776 74.368 161.208 74.0824C160.888 73.9196 160.569 73.7568 160.239 73.589C158.857 73.0346 157.842 73.2014 156.463 73.6929ZM119.01 86.7167C118.752 86.8063 118.494 86.896 118.228 86.9883C117.68 87.1787 117.133 87.3693 116.585 87.5602C115.746 87.8524 114.906 88.1423 114.066 88.4321C113.535 88.617 113.004 88.802 112.474 88.9872C112.221 89.0739 111.969 89.1606 111.709 89.2499C111.358 89.373 111.358 89.373 111.001 89.4986C110.795 89.5701 110.589 89.6417 110.377 89.7154C109.803 89.9312 109.803 89.9312 109.277 90.5275C109.448 90.6128 109.62 90.6981 109.796 90.7859C111.608 91.6885 113.419 92.5919 115.23 93.4959C115.902 93.8313 116.575 94.1665 117.247 94.5015C120.647 96.1949 124.038 97.8976 127.392 99.6796C130.504 101.326 133.664 102.877 136.816 104.444C140.949 106.497 145.069 108.567 149.144 110.736C150.373 111.389 151.606 112.036 152.838 112.683C153.067 112.804 153.296 112.925 153.532 113.05C156.815 114.773 160.146 116.405 163.471 118.045C164.739 118.671 166.006 119.298 167.273 119.927C168.211 120.392 169.15 120.856 170.09 121.318C171.015 121.772 171.937 122.229 172.859 122.688C173.374 122.944 173.89 123.196 174.406 123.448C177.956 125.223 177.956 125.223 178.741 127.003C179.094 128.381 179.076 129.674 179.061 131.091C179.06 131.548 179.06 131.548 179.058 132.014C179.056 132.673 179.053 133.333 179.048 133.992C179.04 135.035 179.036 136.077 179.034 137.12C179.027 139.332 179.016 141.544 179.004 143.756C178.99 146.323 178.978 148.889 178.971 151.455C178.967 152.484 178.96 153.512 178.952 154.541C178.95 155.169 178.948 155.798 178.947 156.426C178.942 156.857 178.942 156.857 178.937 157.296C178.937 157.69 178.937 157.69 178.937 158.091C178.936 158.319 178.935 158.547 178.933 158.782C178.969 159.467 178.969 159.467 179.59 160.254C181.16 159.689 182.73 159.121 184.298 158.55C184.832 158.356 185.365 158.163 185.9 157.971C186.668 157.695 187.435 157.416 188.201 157.136C188.44 157.05 188.679 156.965 188.926 156.877C189.148 156.795 189.371 156.713 189.601 156.629C189.797 156.558 189.992 156.487 190.194 156.414C190.82 156.104 191.16 155.817 191.601 155.274C191.733 154.631 191.733 154.631 191.713 153.906C191.715 153.625 191.718 153.344 191.721 153.055C191.719 152.747 191.717 152.439 191.715 152.122C191.717 151.797 191.718 151.473 191.72 151.139C191.724 150.063 191.721 148.988 191.718 147.913C191.719 147.167 191.72 146.422 191.721 145.676C191.722 144.113 191.72 142.55 191.716 140.986C191.711 139.178 191.713 137.371 191.718 135.563C191.722 133.824 191.722 132.086 191.719 130.347C191.718 129.607 191.719 128.867 191.721 128.127C191.723 127.093 191.72 126.06 191.715 125.027C191.718 124.565 191.718 124.565 191.721 124.094C191.718 123.813 191.716 123.532 191.713 123.243C191.713 122.999 191.712 122.754 191.712 122.502C191.574 121.721 191.339 121.482 190.723 120.996C190.068 120.641 189.416 120.31 188.745 119.989C186.709 118.994 184.693 117.964 182.684 116.913C182.396 116.762 182.107 116.612 181.81 116.456C180.096 115.559 178.386 114.654 176.678 113.745C174.916 112.808 173.139 111.906 171.351 111.02C170.031 110.365 168.728 109.683 167.431 108.985C165.417 107.901 163.377 106.873 161.328 105.856C159.62 105.009 157.913 104.159 156.207 103.308C156.015 103.212 155.822 103.116 155.624 103.017C153.126 101.77 150.641 100.502 148.177 99.1897C146.217 98.1491 144.234 97.1566 142.243 96.1761C140.536 95.3311 138.85 94.4514 137.166 93.5602C134.304 92.0467 131.416 90.5881 128.519 89.1428C127.68 88.7241 126.841 88.3041 126.003 87.884C125.468 87.6169 124.934 87.3498 124.399 87.0829C124.024 86.8948 124.024 86.8948 123.641 86.7029C123.413 86.5892 123.185 86.4755 122.949 86.3583C122.748 86.2579 122.547 86.1574 122.34 86.0539C121.264 85.5591 120.064 86.3507 119.01 86.7167ZM186.635 88.5713C186.394 88.6569 186.153 88.7426 185.904 88.8309C185.507 88.9734 185.507 88.9734 185.102 89.1188C184.825 89.2175 184.547 89.3163 184.261 89.418C183.66 89.6323 183.058 89.847 182.456 90.062C180.864 90.6311 179.271 91.1972 177.677 91.7635C177.351 91.8795 177.025 91.9955 176.689 92.115C173.315 93.3141 169.935 94.4954 166.553 95.6728C166.276 95.7691 166 95.8654 165.715 95.9646C164.188 96.4965 162.66 97.0279 161.133 97.5588C161.133 97.8488 161.133 98.1389 161.133 98.4377C162.677 99.2426 164.225 100.04 165.776 100.832C166.303 101.102 166.829 101.374 167.354 101.648C168.11 102.042 168.87 102.429 169.63 102.815C169.863 102.938 170.096 103.062 170.336 103.189C172.324 104.184 173.6 103.953 175.686 103.286C176.209 103.105 176.733 102.922 177.255 102.737C177.683 102.589 177.683 102.589 178.119 102.437C179.049 102.113 179.979 101.786 180.908 101.459C181.55 101.235 182.192 101.01 182.834 100.786C188.601 98.769 194.353 96.7103 200.098 94.6291C199.307 93.7758 198.59 93.2186 197.545 92.7099C197.279 92.5786 197.013 92.4473 196.738 92.312C196.457 92.1763 196.176 92.0406 195.886 91.9008C195.305 91.6163 194.725 91.3317 194.144 91.0471C193.861 90.9092 193.578 90.7712 193.286 90.6291C192.575 90.2812 191.869 89.9275 191.164 89.5685C190.881 89.4243 190.881 89.4243 190.591 89.2771C190.096 89.0246 189.601 88.7719 189.107 88.5191C188.094 88.0526 187.648 88.2093 186.635 88.5713ZM128.441 109.137C128.167 109.236 127.893 109.334 127.61 109.436C127.162 109.599 127.162 109.599 126.704 109.765C126.392 109.878 126.079 109.99 125.757 110.106C124.731 110.476 123.706 110.847 122.681 111.218C121.975 111.473 121.27 111.728 120.564 111.982C119.14 112.495 117.717 113.009 116.293 113.524C114.467 114.183 112.639 114.838 110.81 115.489C110.291 115.675 109.772 115.86 109.253 116.045C108.534 116.302 107.814 116.558 107.095 116.814C106.439 117.047 105.784 117.281 105.129 117.515C104.767 117.644 104.406 117.772 104.033 117.905C102.446 118.506 100.883 119.172 99.3163 119.824C99.3163 130.943 99.3163 142.061 99.3163 153.516C105.099 157.265 105.099 157.265 111.328 159.082C111.329 158.919 111.33 158.755 111.331 158.587C111.355 154.609 111.382 150.63 111.412 146.652C111.427 144.728 111.44 142.804 111.452 140.881C111.462 139.025 111.476 137.169 111.491 135.313C111.497 134.604 111.501 133.895 111.505 133.187C111.51 132.195 111.518 131.204 111.528 130.213C111.528 129.919 111.529 129.624 111.529 129.321C111.533 129.051 111.536 128.78 111.539 128.502C111.542 128.15 111.542 128.15 111.544 127.792C111.631 127.067 111.828 126.597 112.207 125.977C114.442 124.402 117.37 123.66 119.934 122.754C120.398 122.589 120.861 122.423 121.325 122.257C122.29 121.912 123.255 121.568 124.22 121.225C126.347 120.468 128.47 119.701 130.593 118.933C131.262 118.691 131.931 118.45 132.6 118.208C135.671 117.1 138.737 115.981 141.797 114.844C140.892 113.836 139.99 113.286 138.778 112.691C138.513 112.56 138.513 112.56 138.244 112.427C137.683 112.15 137.122 111.876 136.56 111.603C136.185 111.418 135.81 111.234 135.435 111.049C134.743 110.707 134.049 110.367 133.356 110.028C132.725 109.719 132.099 109.4 131.477 109.072C130.293 108.518 129.62 108.711 128.441 109.137Z" fill="black"/>
</svg>
