<svg width="300" height="300" viewBox="0 0 300 300" fill="none" xmlns="http://www.w3.org/2000/svg">
<path d="M155.378 77.5144C155.58 77.5917 155.782 77.6689 155.99 77.7486C158.376 78.6762 160.706 79.729 163.038 80.7863C163.523 81.0048 164.008 81.2232 164.493 81.4415C165.758 82.0112 167.023 82.5826 168.288 83.1545C170.474 84.1429 172.661 85.1289 174.848 86.1146C175.089 86.2235 175.331 86.3324 175.579 86.4445C179.561 88.2392 183.556 90.003 187.557 91.7539C191.244 93.3675 194.924 94.9969 198.597 96.6432C198.947 96.8002 198.947 96.8002 199.304 96.9604C200.216 97.3688 201.127 97.7773 202.038 98.1859C206.518 100.195 211.006 102.186 215.504 104.154C218.057 105.272 220.609 106.393 223.16 107.518C223.587 107.706 224.014 107.894 224.441 108.082C225.612 108.598 226.781 109.119 227.948 109.644C228.352 109.822 228.352 109.822 228.765 110.003C231.341 111.173 233.444 112.517 234.668 115.137C235.831 118.274 235.67 121.529 235.656 124.819C235.657 125.438 235.658 126.058 235.66 126.678C235.662 128.352 235.66 130.026 235.656 131.7C235.652 133.456 235.654 135.212 235.654 136.968C235.654 139.915 235.651 142.862 235.646 145.81C235.64 149.213 235.639 152.617 235.64 156.021C235.642 159.302 235.64 162.582 235.637 165.862C235.636 167.256 235.635 168.649 235.636 170.043C235.637 171.684 235.634 173.325 235.63 174.967C235.628 175.568 235.628 176.169 235.629 176.77C235.63 177.593 235.627 178.415 235.624 179.238C235.625 179.474 235.626 179.71 235.627 179.953C235.61 182.113 235.318 184.213 234.192 186.09C234.062 186.318 233.931 186.546 233.796 186.78C232.357 188.528 230.415 189.57 228.388 190.503C228.135 190.622 227.882 190.74 227.621 190.863C224.171 192.462 220.676 193.966 217.191 195.487C214.409 196.703 211.637 197.932 208.887 199.219C204.403 201.313 199.862 203.279 195.328 205.261C192.827 206.354 190.328 207.455 187.83 208.557C187.523 208.693 187.523 208.693 187.211 208.831C182.167 211.057 177.126 213.291 172.098 215.552C170.491 216.274 168.883 216.994 167.275 217.712C166.881 217.888 166.488 218.064 166.094 218.24C164.841 218.8 163.586 219.359 162.329 219.914C161.93 220.091 161.531 220.269 161.132 220.447C155.427 222.999 149.901 224.709 143.761 222.404C143.036 222.103 142.317 221.791 141.599 221.474C141.333 221.358 141.066 221.242 140.791 221.123C139.954 220.757 139.118 220.389 138.282 220.02C137.891 219.847 137.891 219.847 137.492 219.672C135.647 218.859 133.806 218.039 131.965 217.218C131.385 216.96 130.805 216.702 130.226 216.444C129.062 215.926 127.898 215.408 126.734 214.889C124.641 213.957 122.547 213.026 120.452 212.096C119.821 211.815 119.189 211.534 118.558 211.253C116.433 210.309 114.309 209.365 112.184 208.421C104.862 205.17 97.5453 201.909 90.2348 198.633C89.846 198.459 89.4572 198.285 89.0685 198.11C87.3067 197.321 85.5451 196.531 83.7837 195.741C82.1694 195.017 80.5541 194.295 78.9384 193.574C77.3462 192.863 75.7561 192.147 74.1664 191.43C73.3377 191.058 72.5067 190.692 71.6747 190.328C68.2342 188.802 66.1507 187.301 64.7465 183.692C64.3936 182.343 64.4093 181.024 64.4084 179.64C64.4071 179.38 64.4059 179.119 64.4045 178.851C64.4006 177.978 64.3988 177.104 64.397 176.231C64.3947 175.605 64.3923 174.979 64.3898 174.353C64.3821 172.296 64.3776 170.239 64.3734 168.183C64.3718 167.474 64.3703 166.765 64.3687 166.056C64.3623 163.106 64.3569 160.157 64.3536 157.207C64.3488 152.985 64.3391 148.763 64.3224 144.54C64.311 141.569 64.3053 138.598 64.3038 135.627C64.3027 133.853 64.2992 132.08 64.2897 130.307C64.2809 128.637 64.279 126.967 64.2825 125.297C64.2825 124.687 64.2801 124.076 64.275 123.465C64.2416 119.286 64.3882 115.395 67.5079 112.217C68.9453 111.081 70.5684 110.35 72.2291 109.602C73.0021 109.254 73.7707 108.897 74.5392 108.538C78.5938 106.655 82.6818 104.846 86.7696 103.036C87.983 102.499 89.1953 101.959 90.4076 101.419C95.1806 99.293 99.9587 97.1798 104.747 95.0895C104.941 95.0051 105.134 94.9208 105.333 94.8339C105.528 94.7486 105.724 94.6632 105.925 94.5753C107.538 93.8711 109.149 93.1638 110.76 92.4558C111.139 92.2889 111.139 92.2889 111.527 92.1187C112.043 91.8917 112.56 91.6646 113.076 91.4375C116.817 89.7934 120.559 88.1548 124.311 86.5358C127.336 85.2298 130.351 83.9004 133.361 82.5589C134.697 81.9639 136.033 81.3705 137.369 80.7771C138.301 80.363 139.233 79.948 140.164 79.5307C145.263 77.2459 149.84 75.3572 155.378 77.5144ZM143.006 83.1666C142.678 83.3072 142.349 83.4478 142.011 83.5926C139.223 84.7932 136.452 86.0336 133.684 87.282C130.849 88.5603 128.003 89.814 125.153 91.0585C124.943 91.1501 124.733 91.2418 124.517 91.3362C123.344 91.8484 122.17 92.3601 120.996 92.8712C121.205 93.8361 121.205 93.8361 122.173 94.2148C122.585 94.3925 122.999 94.5669 123.413 94.7389C123.898 94.9472 124.383 95.1559 124.868 95.3649C125.272 95.5379 125.272 95.5379 125.685 95.7144C127.154 96.3494 128.612 97.0078 130.072 97.6646C130.8 97.9922 131.529 98.3188 132.257 98.6455C133.56 99.2293 134.862 99.8137 136.163 100.399C136.344 100.481 136.525 100.562 136.712 100.646C137.075 100.809 137.438 100.973 137.801 101.136C138.693 101.538 139.587 101.937 140.482 102.333C142.156 103.074 143.815 103.832 145.453 104.653C145.751 104.797 146.05 104.941 146.358 105.09C146.909 105.356 147.455 105.633 147.995 105.922C149.123 106.455 149.902 106.721 151.143 106.467C151.968 106.162 152.761 105.821 153.552 105.439C154.133 105.161 154.72 104.9 155.309 104.641C156.448 104.14 157.581 103.628 158.713 103.112C159.992 102.53 161.274 101.95 162.556 101.371C162.821 101.251 163.086 101.131 163.36 101.007C165.296 100.134 167.239 99.2756 169.186 98.425C169.46 98.3056 169.733 98.1862 170.015 98.0631C171.334 97.4869 172.654 96.9124 173.975 96.3397C174.456 96.1304 174.936 95.921 175.417 95.7116C175.632 95.6191 175.847 95.5265 176.068 95.4311C177.395 94.8515 178.637 94.1955 179.883 93.4572C179.218 93.0139 178.624 92.6689 177.91 92.3293C177.692 92.2257 177.475 92.1221 177.251 92.0154C177.016 91.9047 176.78 91.794 176.538 91.6799C176.168 91.5053 176.168 91.5053 175.791 91.3272C173.045 90.039 170.268 88.8255 167.487 87.6161C166.43 87.1555 165.374 86.6943 164.318 86.2325C164.064 86.1215 163.81 86.0105 163.549 85.8961C161.584 85.0352 159.636 84.1438 157.691 83.2399C152.05 80.6373 148.729 80.6842 143.006 83.1666ZM111.457 96.7897C111.168 96.9105 110.88 97.0314 110.583 97.1559C110.309 97.273 110.035 97.39 109.753 97.5107C109.5 97.6181 109.248 97.7254 108.988 97.8361C108.352 98.0963 108.352 98.0963 108.106 98.7306C108.52 98.9155 108.52 98.9155 108.942 99.1041C110.275 99.6996 111.607 100.295 112.94 100.891C113.187 101.002 113.433 101.112 113.688 101.225C116.841 102.635 119.992 104.049 123.14 105.47C125.103 106.356 127.067 107.24 129.032 108.12C130.035 108.57 131.038 109.02 132.039 109.476C132.91 109.871 133.782 110.262 134.656 110.651C134.89 110.759 135.124 110.867 135.365 110.978C136.674 111.552 137.496 111.763 138.868 111.328C139.752 110.965 140.61 110.559 141.468 110.138C141.812 109.972 141.812 109.972 142.163 109.803C142.726 109.532 143.287 109.259 143.848 108.985C143.848 108.791 143.848 108.598 143.848 108.399C143.547 108.263 143.245 108.128 142.935 107.989C141.5 107.345 140.065 106.7 138.63 106.055C138.235 105.877 138.235 105.877 137.832 105.696C134.326 104.12 130.825 102.532 127.331 100.928C124.197 99.4904 121.061 98.0607 117.902 96.6798C117.625 96.558 117.348 96.4362 117.062 96.3107C116.813 96.2029 116.564 96.0951 116.308 95.984C116.094 95.8911 115.88 95.7982 115.659 95.7025C114.244 95.1754 112.751 96.2347 111.457 96.7897ZM183.471 96.6489C183.271 96.7376 183.071 96.8264 182.864 96.9178C182.206 97.2098 181.548 97.5033 180.89 97.7968C180.432 98.0004 179.973 98.2039 179.515 98.4074C178.595 98.8152 177.676 99.2235 176.757 99.6321C175.128 100.356 173.496 101.072 171.863 101.788C168.993 103.05 166.126 104.319 163.261 105.59C162.787 105.8 162.312 106.011 161.838 106.221C161.171 106.516 160.505 106.812 159.839 107.108C159.641 107.195 159.442 107.283 159.238 107.374C158.096 107.882 156.973 108.417 155.86 108.985C156.968 109.723 158.129 110.246 159.339 110.797C159.574 110.909 159.809 111.02 160.052 111.135C160.281 111.239 160.51 111.344 160.746 111.451C160.954 111.547 161.162 111.643 161.376 111.742C162.776 112.121 164.034 111.426 165.313 110.881C165.492 110.805 165.672 110.728 165.857 110.65C166.456 110.395 167.054 110.139 167.652 109.882C168.078 109.7 168.504 109.518 168.929 109.336C176.726 106 184.502 102.608 192.188 99.0236C191.796 98.239 191.4 98.1591 190.605 97.8036C190.344 97.6866 190.084 97.5695 189.815 97.4489C189.541 97.328 189.266 97.2072 188.984 97.0826C188.71 96.9595 188.437 96.8364 188.156 96.7096C186.147 95.815 185.488 95.7447 183.471 96.6489ZM100.223 101.807C99.8716 101.968 99.5201 102.128 99.1579 102.294C98.8756 102.425 98.8756 102.425 98.5876 102.559C97.778 102.934 96.966 103.305 96.1542 103.676C95.7229 103.873 95.2917 104.07 94.8606 104.268C92.4663 105.365 90.0603 106.434 87.653 107.501C87.2148 107.696 86.7766 107.89 86.3383 108.085C81.6837 110.151 77.0241 112.205 72.3637 114.258C72.3637 114.451 72.3637 114.645 72.3637 114.844C72.6854 114.98 73.0072 115.116 73.3387 115.256C76.7331 116.697 80.1089 118.179 83.4782 119.678C83.6991 119.776 83.92 119.874 84.1475 119.976C86.8053 121.158 89.4609 122.346 92.115 123.537C92.6199 123.763 93.1248 123.99 93.6297 124.216C94.5919 124.647 95.5537 125.08 96.5152 125.513C98.7013 126.495 100.886 127.465 103.125 128.32C103.266 128.176 103.406 128.031 103.551 127.882C105.484 126.018 107.646 124.954 110.065 123.871C110.479 123.681 110.894 123.492 111.308 123.301C114.821 121.696 118.366 120.161 121.917 118.639C123.717 117.866 125.509 117.077 127.295 116.272C127.526 116.168 127.757 116.064 127.995 115.958C129.192 115.417 130.373 114.854 131.543 114.258C130.942 113.604 130.412 113.205 129.603 112.843C129.39 112.746 129.177 112.65 128.958 112.55C128.727 112.448 128.496 112.346 128.258 112.24C128.014 112.131 127.771 112.021 127.52 111.908C126.72 111.548 125.918 111.191 125.116 110.834C124.561 110.585 124.005 110.335 123.449 110.086C122.029 109.448 120.607 108.814 119.185 108.18C118.397 107.829 117.609 107.478 116.821 107.126C114.211 105.961 111.601 104.796 108.986 103.644C108.16 103.28 107.336 102.91 106.514 102.537C106.09 102.347 105.666 102.157 105.243 101.967C105.047 101.877 104.852 101.788 104.651 101.695C102.898 100.914 101.934 101.016 100.223 101.807ZM195.361 102.143C195.181 102.226 195.001 102.31 194.815 102.395C194.421 102.577 194.028 102.76 193.635 102.944C192.553 103.449 191.468 103.947 190.383 104.445C190.152 104.551 189.922 104.657 189.684 104.766C186.907 106.039 184.11 107.265 181.311 108.49C180.798 108.716 180.284 108.941 179.77 109.166C177.596 110.119 175.421 111.067 173.239 112C172.919 112.137 172.599 112.274 172.27 112.416C171.701 112.659 171.131 112.901 170.561 113.14C170.32 113.243 170.079 113.346 169.831 113.452C169.524 113.581 169.524 113.581 169.212 113.713C168.694 113.939 168.694 113.939 168.457 114.551C173.002 116.635 177.548 118.713 182.141 120.689C183.391 121.227 184.639 121.769 185.887 122.31C186.568 122.604 187.249 122.897 187.931 123.189C194.756 126.119 194.756 126.119 196.875 128.613C198.083 128.229 199.231 127.783 200.385 127.261C200.722 127.109 201.058 126.957 201.405 126.801C201.583 126.721 201.76 126.64 201.943 126.557C202.705 126.212 203.469 125.868 204.232 125.525C204.626 125.347 205.02 125.169 205.414 124.992C207.229 124.173 209.046 123.361 210.865 122.553C211.326 122.347 211.326 122.347 211.798 122.137C213.644 121.316 215.495 120.504 217.349 119.7C218.453 119.221 219.556 118.741 220.66 118.26C221.207 118.022 221.755 117.785 222.304 117.549C223.075 117.216 223.846 116.881 224.616 116.546C224.966 116.396 224.966 116.396 225.322 116.244C225.645 116.102 225.645 116.102 225.974 115.958C226.256 115.836 226.256 115.836 226.543 115.712C227.109 115.397 227.494 115.027 227.93 114.551C222.585 112.088 217.233 109.644 211.834 107.301C211.451 107.135 211.068 106.968 210.685 106.802C210.495 106.72 210.304 106.637 210.108 106.552C208.582 105.888 207.061 105.21 205.542 104.529C204.854 104.222 204.166 103.915 203.478 103.608C203.035 103.41 202.592 103.21 202.149 103.01C201.535 102.733 200.92 102.459 200.304 102.184C199.777 101.947 199.777 101.947 199.239 101.706C197.682 101.12 196.803 101.47 195.361 102.143ZM146.894 112.003C146.668 112.106 146.442 112.209 146.209 112.315C145.717 112.538 145.225 112.763 144.734 112.987C143.406 113.595 142.076 114.197 140.746 114.799C140.47 114.924 140.194 115.049 139.91 115.178C137.016 116.488 134.107 117.764 131.195 119.037C126.718 120.996 122.251 122.977 117.796 124.986C116.934 125.373 116.071 125.756 115.207 126.138C110.214 127.91 110.214 127.91 106.641 131.25C106.554 131.846 106.554 131.846 106.566 132.476C106.565 132.72 106.563 132.964 106.561 133.215C106.562 133.481 106.564 133.747 106.565 134.021C106.564 134.305 106.562 134.589 106.561 134.881C106.558 135.835 106.559 136.789 106.561 137.743C106.559 138.426 106.558 139.109 106.556 139.791C106.552 141.648 106.552 143.504 106.553 145.361C106.553 147.104 106.551 148.848 106.55 150.592C106.546 154.255 106.547 157.919 106.549 161.582C106.55 164.936 106.547 168.289 106.541 171.643C106.536 175.085 106.533 178.527 106.534 181.969C106.535 183.902 106.534 185.835 106.53 187.768C106.527 189.585 106.527 191.401 106.531 193.218C106.532 193.886 106.531 194.554 106.528 195.222C106.525 196.132 106.528 197.041 106.531 197.95C106.529 198.217 106.527 198.484 106.525 198.758C106.527 199.001 106.529 199.244 106.531 199.494C106.531 199.704 106.531 199.914 106.531 200.131C106.674 200.849 106.961 201.104 107.52 201.563C108.097 201.89 108.097 201.89 108.739 202.161C109.087 202.316 109.087 202.316 109.443 202.473C109.685 202.577 109.926 202.682 110.175 202.789C110.418 202.897 110.66 203.005 110.91 203.116C112.102 203.693 112.102 203.693 113.379 203.906C113.379 203.569 113.378 203.232 113.378 202.885C113.365 194.878 113.355 186.871 113.349 178.863C113.349 177.877 113.348 176.891 113.347 175.904C113.347 175.708 113.347 175.511 113.347 175.309C113.344 172.133 113.339 168.957 113.334 165.781C113.329 162.52 113.325 159.259 113.324 155.998C113.323 154.167 113.322 152.337 113.317 150.506C113.313 148.782 113.312 147.058 113.313 145.334C113.313 144.702 113.312 144.07 113.309 143.438C113.307 142.573 113.307 141.708 113.309 140.843C113.307 140.595 113.305 140.347 113.304 140.092C113.316 137.558 113.581 135.332 115.13 133.268C116.674 131.829 118.61 130.95 120.532 130.129C120.765 130.027 120.998 129.926 121.238 129.821C121.738 129.604 122.239 129.387 122.74 129.171C124.089 128.589 125.435 128.002 126.781 127.415C127.057 127.295 127.332 127.176 127.616 127.052C130.369 125.854 133.108 124.626 135.846 123.395C139.542 121.735 143.249 120.105 146.97 118.503C150.148 117.131 153.302 115.707 156.446 114.258C155.792 113.527 155.195 113.159 154.294 112.781C154.05 112.678 153.806 112.575 153.554 112.469C153.3 112.364 153.045 112.26 152.784 112.152C152.529 112.044 152.275 111.937 152.013 111.826C149.914 110.951 148.973 111.044 146.894 112.003ZM160.269 116.836C159.997 116.954 159.724 117.071 159.443 117.192C159.161 117.317 158.879 117.443 158.588 117.572C158.302 117.694 158.017 117.816 157.722 117.942C156.259 118.462 156.259 118.462 155.274 119.531C161.503 122.408 167.758 125.218 174.046 127.964C174.748 128.27 175.449 128.578 176.15 128.885C177.1 129.302 178.053 129.713 179.006 130.122C179.478 130.327 179.951 130.532 180.423 130.737C180.638 130.829 180.853 130.92 181.075 131.014C183.29 131.981 185.192 133.243 186.209 135.513C186.709 136.9 186.746 138.183 186.738 139.645C186.74 139.921 186.742 140.197 186.744 140.482C186.75 141.402 186.749 142.321 186.748 143.241C186.751 143.903 186.754 144.564 186.757 145.225C186.765 147.017 186.768 148.809 186.77 150.602C186.773 152.476 186.78 154.35 186.787 156.224C186.799 159.368 186.807 162.513 186.813 165.657C186.819 168.895 186.827 172.133 186.838 175.371C186.838 175.571 186.839 175.771 186.84 175.977C186.843 176.979 186.846 177.981 186.849 178.984C186.877 187.291 186.898 195.599 186.914 203.906C187.333 203.77 187.751 203.632 188.169 203.494C188.519 203.38 188.519 203.38 188.875 203.263C189.768 202.952 190.608 202.568 191.455 202.149C191.755 202.004 192.054 201.859 192.362 201.709C193.154 201.319 193.154 201.319 193.36 200.391C193.385 199.712 193.391 199.033 193.388 198.354C193.388 198.146 193.387 197.938 193.387 197.724C193.385 197.026 193.381 196.328 193.378 195.631C193.376 195.131 193.375 194.631 193.373 194.131C193.371 193.335 193.369 192.54 193.367 191.744C193.358 189.003 193.361 186.262 193.364 183.52C193.371 177.557 193.364 171.594 193.351 165.63C193.344 162.216 193.341 158.801 193.347 155.387C193.352 152.376 193.349 149.365 193.339 146.355C193.333 144.77 193.331 143.185 193.338 141.6C193.344 140.118 193.341 138.637 193.33 137.156C193.328 136.613 193.329 136.07 193.334 135.528C193.462 132.785 193.462 132.785 192.636 130.26C192.114 129.794 191.648 129.493 191.016 129.199C190.691 129.003 190.691 129.003 190.359 128.802C190.171 128.719 189.983 128.635 189.788 128.549C189.569 128.45 189.35 128.351 189.125 128.249C188.893 128.148 188.661 128.048 188.423 127.944C188.176 127.833 187.928 127.722 187.674 127.608C186.873 127.25 186.07 126.897 185.267 126.544C184.709 126.296 184.151 126.048 183.593 125.799C182.482 125.303 181.369 124.809 180.256 124.317C178.925 123.728 177.595 123.134 176.268 122.535C174.253 121.627 172.235 120.724 170.215 119.824C169.869 119.67 169.523 119.516 169.167 119.357C168.144 118.901 167.12 118.447 166.095 117.993C165.788 117.857 165.481 117.72 165.165 117.579C164.882 117.454 164.6 117.33 164.309 117.201C164.062 117.092 163.816 116.983 163.562 116.87C162.217 116.332 161.63 116.246 160.269 116.836ZM69.141 118.067C69.1068 126.516 69.081 134.966 69.0651 143.416C69.0636 144.196 69.0621 144.977 69.0606 145.758C69.0602 145.952 69.0598 146.146 69.0594 146.346C69.0534 149.292 69.0431 152.239 69.0305 155.185C69.0159 158.604 69.0065 162.023 69.0032 165.443C69.0013 167.253 68.9968 169.064 68.9861 170.875C68.9762 172.579 68.9731 174.283 68.9753 175.987C68.9749 176.612 68.972 177.238 68.9664 177.864C68.9591 178.718 68.9609 179.571 68.9649 180.425C68.9606 180.673 68.9563 180.921 68.9519 181.176C68.9672 182.382 69.0604 183.159 69.8274 184.117C70.694 184.948 71.4675 185.395 72.5571 185.896C72.8423 186.029 72.8423 186.029 73.1334 186.165C73.7599 186.455 74.3891 186.74 75.0187 187.024C75.4648 187.229 75.9108 187.435 76.3566 187.641C79.9304 189.285 83.5259 190.884 87.126 192.47C89.4347 193.487 91.7361 194.518 94.0273 195.575C94.265 195.685 94.5027 195.794 94.7476 195.907C95.8931 196.435 97.0376 196.965 98.1809 197.498C98.5904 197.687 98.9999 197.876 99.4095 198.065C99.6889 198.197 99.6889 198.197 99.9739 198.331C100.792 198.707 101.334 198.926 102.246 198.926C102.246 177.076 102.246 155.227 102.246 132.715C99.6398 131.412 97.0507 130.142 94.3913 128.961C94.0323 128.801 93.6734 128.641 93.3145 128.481C89.5699 126.812 85.8143 125.167 82.0587 123.523C79.7466 122.51 77.4356 121.496 75.132 120.464C74.9436 120.38 74.7552 120.296 74.5611 120.209C73.7001 119.823 72.8397 119.437 71.9802 119.048C71.6871 118.917 71.3941 118.786 71.0922 118.65C70.8404 118.536 70.5885 118.423 70.329 118.306C69.7442 118.03 69.7442 118.03 69.141 118.067ZM228.308 119.344C227.956 119.499 227.603 119.653 227.241 119.813C226.848 119.988 226.455 120.162 226.062 120.337C225.649 120.52 225.235 120.702 224.822 120.885C223.667 121.395 222.514 121.907 221.361 122.419C220.313 122.884 219.264 123.348 218.216 123.812C216.821 124.429 215.427 125.047 214.032 125.665C213.775 125.78 213.517 125.894 213.252 126.011C208.07 128.309 202.915 130.662 197.754 133.008C197.754 154.858 197.754 176.707 197.754 199.219C199.461 198.65 201.038 198.088 202.649 197.329C202.857 197.233 203.065 197.136 203.28 197.037C203.727 196.829 204.173 196.621 204.62 196.413C205.823 195.851 207.029 195.294 208.235 194.737C208.483 194.623 208.73 194.508 208.986 194.39C211.572 193.198 214.174 192.04 216.779 190.888C217.221 190.692 217.663 190.495 218.105 190.299C219.679 189.601 221.254 188.903 222.829 188.208C223.731 187.809 224.631 187.408 225.531 187.006C225.906 186.842 225.906 186.842 226.288 186.674C228.801 185.595 228.801 185.595 230.618 183.662C230.95 182.496 230.939 181.407 230.93 180.201C230.931 179.806 230.931 179.806 230.932 179.403C230.933 178.521 230.929 177.639 230.926 176.757C230.926 176.124 230.926 175.492 230.927 174.86C230.927 173.143 230.923 171.425 230.919 169.708C230.916 167.914 230.915 166.12 230.914 164.325C230.913 160.927 230.908 157.529 230.902 154.131C230.895 150.263 230.892 146.394 230.889 142.526C230.883 134.568 230.873 126.61 230.86 118.652C229.822 118.652 229.256 118.924 228.308 119.344ZM147.344 122.779C147.131 122.875 146.917 122.972 146.697 123.071C146.231 123.281 145.764 123.491 145.299 123.702C144.038 124.273 142.776 124.84 141.513 125.407C141.25 125.525 140.986 125.644 140.715 125.766C137.805 127.072 134.886 128.358 131.965 129.639C131.711 129.75 131.457 129.861 131.196 129.976C127.511 131.592 123.822 133.196 120.118 134.766C120.118 134.959 120.118 135.152 120.118 135.352C120.45 135.495 120.45 135.495 120.79 135.641C124.861 137.395 128.927 139.157 132.972 140.973C133.307 141.124 133.642 141.274 133.987 141.429C135.888 142.284 137.787 143.143 139.684 144.005C140.757 144.492 141.831 144.978 142.905 145.464C143.433 145.703 143.961 145.944 144.489 146.184C145.23 146.522 145.972 146.858 146.714 147.194C146.935 147.296 147.157 147.398 147.386 147.502C149.18 148.41 149.18 148.41 151.104 148.379C151.747 148.124 152.369 147.84 152.994 147.544C153.229 147.437 153.464 147.33 153.706 147.22C154.475 146.868 155.24 146.512 156.006 146.155C156.539 145.91 157.072 145.666 157.605 145.422C158.675 144.933 159.743 144.442 160.811 143.949C162.798 143.034 164.794 142.14 166.791 141.248C167.292 141.023 167.292 141.023 167.802 140.794C169.545 140.012 171.291 139.237 173.04 138.469C173.408 138.307 173.776 138.145 174.145 137.983C174.839 137.677 175.534 137.373 176.229 137.071C176.538 136.935 176.847 136.799 177.165 136.659C177.436 136.54 177.708 136.422 177.987 136.3C178.69 135.948 179.272 135.551 179.883 135.059C172.398 131.727 164.909 128.405 157.412 125.102C156.787 124.826 156.162 124.55 155.536 124.274C154.565 123.845 153.592 123.418 152.619 122.992C152.217 122.815 152.217 122.815 151.806 122.633C151.451 122.478 151.451 122.478 151.089 122.32C150.89 122.233 150.691 122.146 150.486 122.056C149.33 121.626 148.391 122.302 147.344 122.779ZM117.774 139.16C117.774 161.203 117.774 183.246 117.774 205.957C120.274 207.207 122.745 208.426 125.299 209.546C125.623 209.689 125.946 209.831 126.279 209.978C127.017 210.304 127.755 210.629 128.494 210.954C129.989 211.613 131.483 212.275 132.976 212.937C133.823 213.312 134.67 213.687 135.516 214.062C136.073 214.308 136.629 214.555 137.185 214.801C138.916 215.568 140.649 216.331 142.383 217.09C142.572 217.173 142.761 217.256 142.956 217.342C143.439 217.554 143.923 217.762 144.408 217.97C144.659 218.079 144.911 218.187 145.17 218.299C145.998 218.59 146.785 218.748 147.657 218.848C148.074 218.497 148.074 218.497 147.981 217.48C147.98 216.985 147.978 216.49 147.974 215.995C147.972 215.587 147.972 215.587 147.971 215.171C147.967 214.253 147.962 213.335 147.956 212.417C147.953 211.761 147.95 211.106 147.947 210.451C147.94 208.666 147.93 206.881 147.92 205.096C147.91 203.233 147.902 201.37 147.893 199.507C147.879 196.377 147.863 193.248 147.847 190.119C147.83 186.896 147.813 183.672 147.798 180.448C147.796 180.151 147.796 180.151 147.795 179.847C147.79 178.851 147.785 177.854 147.781 176.858C147.741 168.589 147.7 160.32 147.657 152.051C145.971 151.288 144.286 150.525 142.601 149.762C142.029 149.503 141.457 149.244 140.886 148.985C136.89 147.176 132.89 145.381 128.87 143.628C128.387 143.417 127.904 143.205 127.421 142.994C126.719 142.687 126.017 142.38 125.315 142.074C124.203 141.59 123.093 141.101 121.986 140.605C121.77 140.509 121.554 140.413 121.332 140.314C120.926 140.133 120.52 139.95 120.115 139.766C119.279 139.395 118.7 139.16 117.774 139.16ZM180.55 139.614C180.21 139.765 180.21 139.765 179.864 139.919C179.616 140.03 179.368 140.142 179.112 140.257C178.852 140.372 178.592 140.488 178.324 140.608C177.464 140.991 176.604 141.376 175.745 141.76C175.15 142.026 174.554 142.292 173.958 142.558C172.124 143.377 170.291 144.198 168.457 145.02C167.89 145.274 167.323 145.528 166.756 145.782C165.187 146.485 163.618 147.189 162.049 147.894C161.811 148.001 161.572 148.108 161.327 148.219C160.64 148.527 159.954 148.836 159.268 149.145C159.076 149.231 158.884 149.318 158.687 149.406C156.562 150.365 154.457 151.358 152.344 152.344C152.344 174.29 152.344 196.236 152.344 218.848C154.453 218.426 156.019 218.022 157.892 217.127C158.411 216.886 158.93 216.646 159.45 216.406C159.724 216.278 159.997 216.151 160.28 216.019C161.765 215.334 163.262 214.675 164.759 214.014C167.158 212.949 169.556 211.881 171.952 210.808C172.327 210.64 172.327 210.64 172.71 210.469C173.953 209.913 175.196 209.356 176.439 208.799C176.899 208.593 177.359 208.387 177.819 208.181C178.027 208.088 178.234 207.994 178.448 207.898C178.646 207.81 178.843 207.721 179.047 207.63C179.216 207.554 179.386 207.478 179.56 207.4C180.446 207.01 181.337 206.631 182.227 206.25C182.227 184.11 182.227 161.971 182.227 139.16C181.542 139.16 181.175 139.335 180.55 139.614Z" fill="black"/>
<path d="M80.5664 106.055C80.373 106.441 80.1797 106.828 79.9805 107.227C79.4004 107.227 78.8203 107.227 78.2227 107.227C79.7512 106.055 79.7512 106.055 80.5664 106.055Z" fill="black"/>
</svg>
