<svg width="300" height="300" viewBox="0 0 300 300" fill="none" xmlns="http://www.w3.org/2000/svg">
<path d="M124.511 70.0199C125.097 70.8988 125.097 70.8988 125.061 71.8876C124.785 73.0292 124.457 73.59 123.633 74.4144C123.439 74.4144 123.246 74.4144 123.047 74.4144C122.902 74.8495 122.902 74.8495 122.754 75.2933C122.335 75.6439 121.915 75.9933 121.487 76.3325C120.97 76.7809 120.552 77.2556 120.117 77.7836C119.316 78.75 118.456 79.485 117.48 80.2738C116.988 80.7582 116.501 81.2471 116.015 81.7386C115.602 82.1529 115.188 82.5669 114.773 82.9807C114.539 83.2152 114.304 83.4497 114.063 83.6913C110.807 86.9467 107.552 90.202 104.297 93.4574C104.387 93.6372 104.476 93.8169 104.569 94.0021C104.869 94.6018 105.169 95.2015 105.469 95.8011C105.662 95.8011 105.855 95.8011 106.054 95.8011C106.59 96.3681 107.071 96.9702 107.563 97.575C108.107 98.1467 108.555 98.4286 109.277 98.7308C109.479 98.5076 109.681 98.2844 109.889 98.0545C111.413 96.3779 112.952 94.7287 114.568 93.1392C115.053 92.6608 115.526 92.1733 115.997 91.6813C116.601 91.1136 116.601 91.1136 117.187 91.1136C117.332 90.6786 117.332 90.6786 117.48 90.2347C117.674 90.2347 117.867 90.2347 118.066 90.2347C118.137 90.0655 118.207 89.8962 118.279 89.7218C118.727 88.9312 119.238 88.4847 119.928 87.8944C121.594 86.4317 123.163 84.8896 124.726 83.3197C125.192 82.852 125.66 82.386 126.128 81.92C126.43 81.6174 126.733 81.3147 127.035 81.0119C127.303 80.7434 127.571 80.4748 127.848 80.1981C128.396 79.623 128.888 79.0614 129.38 78.4435C130.248 77.4401 130.82 77.2147 132.129 77.0511C132.844 77.3778 133.334 77.6703 133.886 78.223C134.052 79.2382 134.106 79.9633 133.494 80.828C133.324 81.0139 133.153 81.1998 132.978 81.3914C132.791 81.5959 132.604 81.8005 132.411 82.0113C131.564 82.9038 130.702 83.7782 129.823 84.64C129.634 84.8271 129.445 85.0141 129.249 85.2068C128.843 85.6084 128.436 86.0096 128.029 86.4105C127.164 87.2632 126.302 88.1187 125.439 88.974C123.837 90.5626 122.234 92.15 120.626 93.7326C119.504 94.8377 118.385 95.9463 117.268 97.0574C116.843 97.4797 116.415 97.9007 115.987 98.3203C115.391 98.9044 114.799 99.4929 114.209 100.083C114.03 100.256 113.852 100.428 113.668 100.607C113.127 101.135 113.127 101.135 112.5 101.953C112.63 103.229 113.463 103.895 114.349 104.737C114.492 104.875 114.634 105.014 114.781 105.157C115.191 105.555 115.603 105.952 116.015 106.348C116.407 106.738 116.797 107.129 117.187 107.52C118.184 106.53 119.18 105.54 120.175 104.548C120.514 104.211 120.853 103.874 121.192 103.537C121.68 103.053 122.166 102.569 122.652 102.084C122.804 101.933 122.956 101.782 123.113 101.627C123.912 100.841 123.912 100.841 124.511 99.9027C124.705 99.9027 124.898 99.9027 125.097 99.9027C125.161 99.7437 125.224 99.5847 125.29 99.4208C125.818 98.4947 126.536 97.8058 127.291 97.0657C127.45 96.9083 127.608 96.7508 127.771 96.5886C128.276 96.0867 128.783 95.5868 129.291 95.087C129.628 94.752 129.966 94.4169 130.304 94.0817C130.928 93.4625 131.553 92.8441 132.178 92.2266C132.724 91.6872 133.262 91.1404 133.793 90.586C134.472 89.9418 134.472 89.9418 135.351 89.6488C135.351 89.4554 135.351 89.2621 135.351 89.0629C135.545 89.0629 135.738 89.0629 135.937 89.0629C136.012 88.8918 136.086 88.7207 136.163 88.5444C136.995 87.0364 138.336 85.9996 139.966 85.5106C140.918 85.5472 140.918 85.5472 141.614 85.8585C142.27 86.6412 142.362 87.1671 142.383 88.184C141.727 89.552 140.709 90.5111 139.636 91.5531C139.388 91.7972 139.388 91.7972 139.135 92.0463C138.823 92.3532 138.51 92.6594 138.197 92.9647C137.807 93.3478 137.419 93.7337 137.033 94.1206C136.228 94.9248 135.418 95.7241 134.607 96.5222C133.037 98.0683 131.471 99.618 129.907 101.17C128.962 102.107 128.016 103.043 127.067 103.975C126.146 104.88 125.229 105.788 124.315 106.699C123.966 107.045 123.616 107.39 123.264 107.734C122.774 108.213 122.29 108.696 121.806 109.18C121.659 109.322 121.512 109.463 121.361 109.609C120.915 110.045 120.915 110.045 120.41 110.743C120.428 111.413 120.428 111.413 120.703 111.914C120.896 111.914 121.09 111.914 121.289 111.914C121.797 112.442 122.248 113.007 122.711 113.574C123.252 114.163 123.796 114.664 124.404 115.18C124.681 115.415 124.681 115.415 124.964 115.656C125.105 115.774 125.245 115.893 125.39 116.016C127.94 113.473 130.49 110.929 133.038 108.384C134.221 107.202 135.405 106.021 136.589 104.84C137.731 103.701 138.873 102.561 140.014 101.421C140.45 100.985 140.886 100.55 141.322 100.115C141.932 99.5071 142.542 98.898 143.151 98.2887C143.332 98.1083 143.514 97.928 143.701 97.7421C143.95 97.4926 143.95 97.4926 144.204 97.238C144.348 97.094 144.492 96.9501 144.641 96.8018C145.086 96.3349 145.086 96.3349 145.605 95.5082C145.799 95.5082 145.992 95.5082 146.191 95.5082C146.191 95.3148 146.191 95.1215 146.191 94.9222C147.193 94.3017 147.7 93.9994 148.883 94.2081C149.77 94.6614 150.161 94.9018 150.586 95.8011C150.619 97.2983 149.974 98.0911 149.008 99.1428C148.4 99.743 147.747 100.261 147.07 100.782C146.578 101.266 146.09 101.755 145.605 102.246C139.941 107.911 134.277 113.575 128.613 119.239C129.025 120.093 129.437 120.731 130.089 121.422C130.344 121.694 130.344 121.694 130.604 121.971C130.781 122.157 130.958 122.343 131.14 122.535C131.408 122.82 131.408 122.82 131.682 123.111C132.123 123.579 132.565 124.046 133.008 124.512C133.851 124.13 134.454 123.724 135.106 123.068C135.282 122.893 135.458 122.717 135.639 122.536C135.828 122.345 136.018 122.153 136.213 121.955C136.415 121.752 136.617 121.55 136.825 121.341C137.493 120.672 138.158 120 138.823 119.329C139.287 118.864 139.75 118.399 140.213 117.935C141.433 116.711 142.651 115.486 143.868 114.261C145.819 112.297 147.771 110.336 149.725 108.376C150.408 107.69 151.09 107.002 151.772 106.315C152.189 105.896 152.606 105.477 153.023 105.059C153.309 104.77 153.309 104.77 153.6 104.475C153.774 104.301 153.949 104.126 154.128 103.946C154.279 103.794 154.431 103.642 154.587 103.485C155.248 102.881 155.644 102.822 156.555 102.704C157.617 102.832 157.617 102.832 158.368 103.601C158.789 104.59 158.789 104.59 158.697 105.432C157.595 107.474 155.78 109.107 154.144 110.733C153.955 110.922 153.767 111.111 153.572 111.305C152.956 111.921 152.339 112.536 151.722 113.15C151.291 113.58 150.861 114.011 150.43 114.441C149.303 115.567 148.176 116.691 147.048 117.816C145.894 118.966 144.742 120.118 143.589 121.269C141.332 123.523 139.075 125.775 136.816 128.028C137.239 128.911 137.656 129.523 138.357 130.211C138.54 130.393 138.723 130.574 138.912 130.761C139.102 130.946 139.293 131.132 139.49 131.324C139.682 131.514 139.875 131.704 140.074 131.9C140.549 132.369 141.026 132.835 141.504 133.301C142.92 132.124 144.241 130.888 145.525 129.569C145.908 129.178 146.291 128.787 146.675 128.396C146.875 128.192 147.075 127.987 147.281 127.777C148.348 126.686 149.421 125.601 150.494 124.516C151.854 123.138 153.213 121.758 154.565 120.372C155.662 119.248 156.765 118.13 157.872 117.015C158.291 116.59 158.709 116.164 159.124 115.735C159.705 115.136 160.292 114.544 160.882 113.954C161.136 113.687 161.136 113.687 161.394 113.415C162.28 112.545 162.873 112.099 164.141 112.059C165.234 112.207 165.234 112.207 165.985 112.83C166.406 113.672 166.406 113.672 166.461 114.496C165.374 117.413 162.019 119.86 159.845 122.03C159.436 122.44 159.026 122.849 158.617 123.259C157.763 124.113 156.909 124.967 156.054 125.82C154.957 126.915 153.862 128.012 152.767 129.109C151.923 129.953 151.08 130.796 150.235 131.64C149.831 132.044 149.427 132.449 149.023 132.853C148.46 133.416 147.897 133.979 147.333 134.54C147.166 134.708 146.999 134.876 146.827 135.049C145.672 136.197 145.672 136.197 145.019 136.524C145.415 137.411 145.856 138.013 146.552 138.689C146.738 138.872 146.924 139.054 147.115 139.242C147.312 139.433 147.508 139.623 147.711 139.82C149.055 141.141 150.365 142.46 151.581 143.901C152.359 144.785 153.21 145.595 154.048 146.422C154.797 147.182 155.487 147.981 156.18 148.793C157.103 149.821 158.104 150.77 159.099 151.728C159.668 152.344 159.668 152.344 159.668 152.93C159.861 152.93 160.054 152.93 160.254 152.93C160.667 153.35 160.667 153.35 161.151 153.937C161.939 154.866 162.754 155.738 163.623 156.592C164.612 157.568 165.532 158.576 166.433 159.633C167.357 160.661 168.358 161.61 169.353 162.568C169.922 163.184 169.922 163.184 169.922 163.77C170.115 163.77 170.308 163.77 170.508 163.77C170.921 164.19 170.921 164.19 171.405 164.777C172.193 165.706 173.008 166.578 173.877 167.432C174.881 168.423 175.816 169.448 176.734 170.518C177.274 171.126 177.839 171.696 178.418 172.266C179.167 173.004 179.877 173.755 180.56 174.555C181.413 175.548 182.321 176.474 183.252 177.393C184.348 178.474 185.385 179.583 186.384 180.754C187.022 181.469 187.697 182.139 188.379 182.813C189.237 183.661 190.067 184.513 190.851 185.431C191.69 186.413 192.587 187.326 193.506 188.233C194.595 189.308 195.626 190.41 196.618 191.574C197.442 192.494 198.326 193.352 199.204 194.219C200.156 195.163 201.042 196.141 201.911 197.16C202.549 197.876 203.224 198.545 203.906 199.219C204.753 200.056 205.571 200.893 206.341 201.801C207.282 202.902 208.297 203.915 209.326 204.932C210.508 206.101 211.642 207.279 212.713 208.552C213.34 209.245 214.003 209.887 214.676 210.535C217.61 213.38 219.686 216.033 219.836 220.258C219.785 223.08 218.989 225.078 217.045 227.124C214.629 229.412 212.226 230.129 208.913 230.104C204.52 229.949 201.146 227.721 198.199 224.627C197.433 223.799 196.691 222.956 195.959 222.098C195.136 221.179 194.252 220.321 193.374 219.454C192.422 218.51 191.536 217.532 190.666 216.512C189.792 215.532 188.846 214.625 187.912 213.703C187.134 212.915 186.415 212.09 185.696 211.249C185.054 210.531 184.377 209.857 183.691 209.18C182.838 208.338 182.014 207.493 181.238 206.58C180.347 205.538 179.392 204.576 178.418 203.614C177.278 202.488 176.192 201.346 175.156 200.122C174.292 199.159 173.361 198.262 172.428 197.367C172.07 197.019 171.727 196.655 171.386 196.289C171.386 196.096 171.386 195.903 171.386 195.703C171.193 195.703 171 195.703 170.801 195.703C170.377 195.273 170.377 195.273 169.885 194.678C169.147 193.809 168.392 192.986 167.578 192.188C166.822 191.444 166.107 190.687 165.417 189.881C164.614 188.946 163.767 188.074 162.89 187.207C161.84 186.17 160.855 185.105 159.895 183.984C159.307 183.322 158.687 182.702 158.056 182.08C157.258 181.293 156.494 180.499 155.768 179.645C154.87 178.597 153.91 177.629 152.929 176.661C151.781 175.526 150.687 174.373 149.64 173.143C148.772 172.167 147.829 171.265 146.9 170.347C146.101 169.538 145.36 168.694 144.622 167.831C143.982 167.106 143.294 166.436 142.605 165.759C141.872 165.013 141.196 164.222 140.515 163.43C140.119 162.982 139.697 162.558 139.27 162.14C137.876 160.709 136.897 159.082 136.029 157.288C135.929 157.089 135.829 156.89 135.726 156.685C135.158 155.542 134.638 154.393 134.159 153.21C132.465 149.159 130.128 146.529 126.908 143.58C126.104 142.811 125.383 141.987 124.662 141.14C124.106 140.495 123.511 139.9 122.9 139.307C122.096 138.514 121.326 137.713 120.593 136.853C119.747 135.866 118.845 134.946 117.92 134.034C116.824 132.953 115.786 131.844 114.787 130.672C113.913 129.693 112.967 128.786 112.033 127.863C111.255 127.075 110.536 126.251 109.817 125.409C109.175 124.691 108.498 124.017 107.812 123.34C106.96 122.498 106.135 121.653 105.359 120.74C104.327 119.532 103.203 118.429 102.073 117.314C101.069 116.317 100.122 115.29 99.2074 114.21C98.7034 113.642 98.1659 113.131 97.6133 112.61C94.5778 109.61 91.9923 105.842 91.9004 101.477C91.9145 99.5349 92.2564 98.0945 93.1638 96.3871C93.327 96.0729 93.4901 95.7587 93.6582 95.4349C94.8391 94.0306 96.3121 93.1263 98.0161 92.4686C99.2406 91.8898 99.9618 91.1199 100.869 90.1306C101.367 89.6488 101.367 89.6488 101.953 89.6488C102.098 89.2137 102.098 89.2137 102.246 88.7699C102.65 88.3728 102.65 88.3728 103.192 87.9338C104.873 86.506 106.4 84.9321 107.948 83.3644C108.504 82.802 109.061 82.2409 109.619 81.6801C111.202 80.0873 112.783 78.4932 114.362 76.8962C115.332 75.9156 116.304 74.9371 117.277 73.96C117.646 73.5882 118.015 73.2155 118.383 72.8421C118.895 72.3219 119.41 71.8044 119.926 71.2875C120.077 71.1329 120.228 70.9782 120.384 70.8189C121.832 69.3784 122.628 69.201 124.511 70.0199ZM96.6794 98.7308C95.9396 100.211 96.174 102.352 96.6005 103.905C97.9293 106.855 100.615 109.139 102.884 111.372C103.417 111.913 103.913 112.473 104.406 113.05C105.21 113.985 106.056 114.857 106.933 115.723C107.984 116.761 108.969 117.825 109.928 118.947C110.517 119.608 111.137 120.228 111.767 120.85C112.578 121.649 113.353 122.457 114.093 123.322C114.889 124.251 115.73 125.117 116.601 125.977C117.652 127.015 118.637 128.079 119.596 129.201C120.185 129.862 120.805 130.482 121.435 131.104C122.24 131.897 123.009 132.698 123.742 133.557C124.717 134.696 125.773 135.743 126.839 136.795C127.81 137.758 128.718 138.757 129.606 139.797C130.243 140.52 130.929 141.186 131.616 141.861C132.315 142.572 132.959 143.325 133.603 144.086C134.141 144.71 134.141 144.71 134.651 145.139C136.258 146.585 136.897 148.127 137.64 150.129C139.568 154.991 141.977 158.605 145.634 162.321C146.605 163.314 147.549 164.331 148.498 165.345C148.894 165.765 149.29 166.185 149.686 166.606C150.671 167.651 151.655 168.696 152.638 169.741C153.027 170.154 153.415 170.566 153.803 170.978C154.81 172.048 155.816 173.118 156.82 174.19C157.027 174.41 157.234 174.631 157.448 174.858C157.839 175.275 158.229 175.692 158.619 176.109C159.745 177.308 160.892 178.479 162.064 179.633C162.601 180.18 163.105 180.747 163.604 181.33C164.357 182.206 165.144 183.027 165.967 183.838C166.759 184.62 167.517 185.407 168.237 186.255C169.184 187.362 170.205 188.381 171.24 189.405C172.445 190.596 173.603 191.798 174.698 193.092C175.519 194.019 176.411 194.875 177.298 195.738C177.832 196.289 177.832 196.289 178.125 196.875C178.318 196.875 178.511 196.875 178.711 196.875C178.788 197.048 178.865 197.221 178.945 197.399C179.312 198.075 179.693 198.506 180.243 199.041C180.429 199.223 180.615 199.406 180.807 199.594C181.101 199.88 181.101 199.88 181.402 200.171C182.746 201.492 184.056 202.811 185.273 204.252C186.05 205.136 186.9 205.946 187.738 206.772C188.496 207.542 189.196 208.351 189.898 209.171C190.491 209.835 191.114 210.459 191.748 211.084C192.746 212.069 193.674 213.087 194.586 214.151C195.368 215.028 196.206 215.843 197.049 216.66C197.628 217.254 198.172 217.858 198.714 218.485C199.819 219.758 200.979 220.966 202.167 222.162C202.366 222.368 202.566 222.573 202.771 222.785C204.855 224.885 206.649 225.618 209.601 225.66C211.567 225.64 212.606 225.305 214.087 223.993C215.15 222.783 215.417 221.964 215.423 220.349C215.428 220.054 215.433 219.759 215.438 219.455C214.999 215.747 210.663 212.685 208.17 210.227C207.761 209.824 207.353 209.419 206.946 209.015C206.706 208.779 206.467 208.543 206.22 208.3C205.664 207.715 205.664 207.715 205.371 207.129C205.177 207.129 204.984 207.129 204.785 207.129C204.709 206.958 204.633 206.786 204.555 206.609C204.173 205.909 203.761 205.457 203.191 204.902C202.996 204.71 202.801 204.519 202.6 204.321C202.396 204.124 202.193 203.927 201.983 203.724C201.58 203.33 201.176 202.935 200.774 202.54C200.595 202.367 200.416 202.193 200.232 202.014C199.804 201.563 199.804 201.563 199.511 200.977C199.318 200.977 199.125 200.977 198.926 200.977C198.847 200.803 198.769 200.629 198.688 200.449C198.336 199.798 197.986 199.388 197.457 198.876C197.285 198.707 197.112 198.537 196.934 198.363C196.66 198.098 196.66 198.098 196.38 197.828C195.101 196.571 193.864 195.312 192.706 193.942C191.895 193.031 191.019 192.185 190.151 191.329C189.199 190.385 188.313 189.407 187.444 188.387C186.569 187.407 185.623 186.5 184.689 185.578C183.911 184.79 183.193 183.965 182.474 183.124C181.595 182.142 180.647 181.231 179.71 180.305C178.925 179.511 178.199 178.68 177.474 177.831C176.885 177.17 176.265 176.55 175.635 175.928C174.824 175.129 174.049 174.321 173.309 173.456C172.513 172.527 171.671 171.661 170.801 170.801C169.942 169.953 169.112 169.101 168.329 168.183C167.489 167.201 166.593 166.288 165.674 165.381C164.578 164.3 163.54 163.191 162.541 162.02C161.903 161.305 161.229 160.635 160.547 159.961C159.694 159.119 158.87 158.274 158.093 157.361C157.203 156.319 156.248 155.357 155.273 154.395C154.317 153.45 153.378 152.51 152.508 151.484C151.428 150.212 150.237 149.058 149.051 147.886C148.03 146.871 147.065 145.832 146.134 144.734C145.21 143.698 144.208 142.739 143.216 141.77C142.583 141.139 141.995 140.479 141.412 139.801C140.283 138.498 139.071 137.292 137.842 136.084C136.427 134.695 135.064 133.289 133.77 131.785C133.109 131.033 132.406 130.339 131.689 129.639C130.599 128.565 129.569 127.462 128.576 126.297C127.885 125.526 127.153 124.8 126.416 124.073C125.515 123.184 124.635 122.292 123.816 121.326C122.882 120.23 121.872 119.225 120.849 118.213C119.655 117.032 118.51 115.84 117.423 114.558C116.74 113.792 116.013 113.074 115.283 112.354C114.382 111.465 113.502 110.573 112.683 109.607C111.596 108.331 110.4 107.17 109.209 105.993C108.175 104.966 107.196 103.913 106.252 102.801C105.462 101.908 104.603 101.085 103.753 100.248C103.039 99.5225 102.384 98.7635 101.745 97.9721C100.984 97.1398 100.468 96.9704 99.3528 96.8265C97.8746 96.8538 97.4627 97.5441 96.6794 98.7308Z" fill="black"/>
</svg>
