<svg width="300" height="300" viewBox="0 0 300 300" fill="none" xmlns="http://www.w3.org/2000/svg">
<path d="M133.641 81.1097C133.939 81.1076 134.238 81.1055 134.545 81.1033C134.87 81.1026 135.194 81.1018 135.528 81.101C135.872 81.099 136.216 81.0971 136.571 81.0951C137.71 81.0894 138.85 81.0859 139.989 81.083C140.383 81.0818 140.778 81.0806 141.172 81.0794C143.027 81.0738 144.882 81.0696 146.738 81.0672C148.868 81.0643 150.998 81.0567 153.128 81.0448C154.781 81.0359 156.434 81.0316 158.087 81.0306C159.071 81.03 160.055 81.0268 161.039 81.02C166.042 80.9873 170.784 80.9923 175.304 83.4233C175.498 83.524 175.691 83.6247 175.89 83.7284C177.58 84.6359 179.055 85.713 180.468 87.0122C180.696 87.2169 180.924 87.4216 181.159 87.6325C184.948 91.2054 187.648 96.4451 187.881 101.69C187.933 103.549 187.937 105.408 187.942 107.268C187.947 107.973 187.952 108.677 187.958 109.382C187.972 111.242 187.981 113.103 187.988 114.963C187.997 116.793 188.011 118.622 188.024 120.452C188.047 123.727 188.062 127.002 188.072 130.277C188.08 132.533 188.094 134.79 188.112 137.046C188.124 138.545 188.132 140.044 188.139 141.542C188.144 142.248 188.149 142.954 188.157 143.659C188.203 148.206 188.234 152.626 186.254 156.83C186.166 157.025 186.077 157.219 185.986 157.42C185.203 159.087 184.257 160.574 183.105 162.012C182.953 162.212 182.8 162.412 182.644 162.618C178.946 167.193 173.262 169.608 167.577 170.508C166.264 170.731 165.368 171.064 164.355 171.973C163.659 173.257 163.686 174.527 163.708 175.951C163.709 176.195 163.711 176.44 163.714 176.692C163.747 179.146 163.91 181.588 164.103 184.034C164.166 184.823 164.225 185.612 164.284 186.401C164.451 188.641 164.624 190.879 164.798 193.118C164.905 194.5 165.009 195.881 165.111 197.263C165.169 198.033 165.23 198.803 165.292 199.573C165.719 205.165 165.291 209.682 161.681 214.179C158.824 217.333 154.74 218.82 150.585 219.141C146.102 219.194 141.944 217.722 138.647 214.673C135.296 211.081 134.328 207.216 134.472 202.442C134.552 200.897 134.674 199.356 134.797 197.815C134.858 197.055 134.917 196.295 134.975 195.535C135.14 193.377 135.309 191.219 135.479 189.061C135.583 187.733 135.685 186.404 135.786 185.076C135.825 184.576 135.864 184.077 135.904 183.578C136.116 180.944 136.273 178.313 136.309 175.67C136.318 175.322 136.318 175.322 136.327 174.968C136.332 173.62 136.197 172.746 135.351 171.68C133.868 170.702 132.193 170.455 130.48 170.105C124.498 168.803 119.015 165.935 115.588 160.665C114.988 159.675 114.467 158.66 113.964 157.618C113.842 157.365 113.719 157.112 113.593 156.852C112.017 153.257 111.783 149.542 111.795 145.682C111.793 145.204 111.791 144.727 111.789 144.249C111.784 142.965 111.784 141.68 111.786 140.396C111.787 139.318 111.785 138.24 111.783 137.162C111.779 134.615 111.779 132.069 111.783 129.522C111.786 126.908 111.782 124.294 111.774 121.68C111.768 119.424 111.766 117.167 111.767 114.911C111.768 113.569 111.768 112.226 111.763 110.884C111.758 109.62 111.759 108.357 111.765 107.093C111.766 106.633 111.765 106.174 111.762 105.714C111.737 101.677 112.218 97.519 114.184 93.9153C114.335 93.6272 114.335 93.6272 114.489 93.3333C115.398 91.6516 116.478 90.1781 117.773 88.77C117.977 88.5419 118.182 88.3138 118.393 88.0788C119.959 86.4179 121.652 85.208 123.632 84.0825C123.867 83.9469 124.102 83.8113 124.344 83.6717C127.122 82.1735 130.467 81.1251 133.641 81.1097ZM121.913 93.5285C118.84 97.6567 118.269 101.903 118.278 106.902C118.277 107.367 118.275 107.832 118.274 108.297C118.27 109.551 118.27 110.806 118.27 112.061C118.271 113.112 118.269 114.163 118.268 115.215C118.265 117.697 118.264 120.179 118.266 122.661C118.268 125.213 118.264 127.765 118.258 130.318C118.253 132.516 118.251 134.715 118.252 136.914C118.253 138.224 118.252 139.534 118.248 140.844C118.244 142.076 118.245 143.309 118.249 144.542C118.249 144.992 118.248 145.441 118.246 145.891C118.221 150.79 119.051 155.49 122.527 159.196C125.903 162.267 129.479 163.523 133.885 164.367C137.063 165.013 139.327 166.372 141.21 169.043C143.211 172.624 142.642 176.642 142.329 180.56C142.29 181.08 142.251 181.6 142.212 182.12C142.109 183.484 142.004 184.848 141.897 186.212C141.728 188.385 141.564 190.558 141.4 192.731C141.343 193.479 141.284 194.227 141.226 194.975C141.135 196.149 141.05 197.322 140.969 198.497C140.933 198.996 140.896 199.495 140.856 199.994C140.796 200.776 140.742 201.559 140.689 202.341C140.67 202.577 140.65 202.812 140.63 203.054C140.478 205.535 141.196 207.592 142.756 209.517C144.757 211.667 147.061 212.695 149.999 212.806C152.636 212.706 154.822 211.888 156.738 210.059C159.249 207.263 159.225 204.469 159.048 200.893C158.964 199.407 158.857 197.924 158.747 196.44C158.685 195.607 158.625 194.774 158.566 193.94C158.398 191.574 158.226 189.208 158.052 186.843C157.946 185.386 157.841 183.93 157.739 182.474C157.7 181.924 157.659 181.374 157.618 180.825C156.895 171.227 156.895 171.227 159.979 167.487C162.243 165.157 164.769 164.595 167.852 163.935C172.453 162.949 176.126 161.07 178.893 157.115C181.091 153.463 181.733 150.051 181.711 145.841C181.712 145.328 181.712 145.328 181.713 144.805C181.714 143.679 181.711 142.553 181.707 141.427C181.707 140.631 181.707 139.835 181.707 139.04C181.707 137.369 181.704 135.698 181.7 134.028C181.696 132.337 181.694 130.647 181.694 128.957C181.695 123.471 181.68 117.986 181.64 112.5C181.638 112.183 181.636 111.865 181.634 111.537C181.622 109.877 181.605 108.217 181.575 106.556C181.567 106.09 181.561 105.624 181.557 105.158C181.512 100.31 180.352 95.8768 176.879 92.3406C173.861 89.4813 170.027 87.5759 165.799 87.555C165.507 87.5529 165.215 87.5508 164.913 87.5487C164.596 87.5479 164.278 87.5471 163.951 87.5463C163.614 87.5443 163.277 87.5424 162.93 87.5404C161.815 87.5347 160.7 87.5312 159.585 87.5283C159.203 87.5271 158.821 87.5259 158.428 87.5247C156.615 87.5191 154.801 87.515 152.988 87.5125C150.903 87.5097 148.819 87.502 146.735 87.4901C145.118 87.4812 143.502 87.4769 141.885 87.476C140.922 87.4753 139.96 87.4721 138.997 87.4653C137.919 87.4581 136.842 87.4584 135.765 87.4604C135.452 87.4567 135.139 87.4529 134.817 87.4491C129.879 87.4827 125.084 89.7212 121.913 93.5285Z" fill="black"/>
<path d="M147.604 94.5748C148.89 94.5748 150.175 94.5708 151.46 94.5658C152.464 94.5625 153.467 94.5619 154.471 94.5621C154.945 94.5617 155.419 94.5605 155.892 94.5582C161.737 94.5325 166.757 95.372 171.113 99.613C171.628 100.179 172.098 100.757 172.559 101.367C172.69 101.534 172.821 101.7 172.957 101.871C173.862 103.144 174.354 104.541 174.829 106.018C174.891 106.208 174.953 106.398 175.016 106.593C175.802 109.189 175.825 111.862 175.824 114.554C175.825 114.862 175.826 115.17 175.827 115.488C175.83 116.499 175.83 117.509 175.83 118.52C175.831 119.228 175.832 119.937 175.833 120.645C175.835 122.128 175.836 123.61 175.836 125.093C175.835 126.983 175.839 128.874 175.845 130.764C175.848 132.227 175.848 133.69 175.848 135.153C175.849 135.849 175.85 136.546 175.852 137.243C175.873 144.113 175.631 149.951 170.814 155.326C169.532 156.584 168.096 157.466 166.516 158.295C166.34 158.39 166.163 158.486 165.982 158.584C162.628 160.239 158.786 160.392 155.12 160.381C154.698 160.382 154.276 160.384 153.854 160.386C152.977 160.388 152.101 160.388 151.224 160.385C150.336 160.382 149.448 160.384 148.56 160.391C141.306 160.445 134.553 160.44 128.969 155.092C125.215 151.059 124.13 146.7 124.134 141.329C124.132 140.937 124.13 140.544 124.128 140.151C124.123 139.093 124.121 138.035 124.121 136.977C124.12 136.314 124.119 135.651 124.117 134.987C124.112 132.667 124.11 130.347 124.11 128.027C124.11 125.875 124.104 123.722 124.095 121.569C124.087 119.712 124.084 117.856 124.085 115.999C124.085 114.894 124.083 113.789 124.077 112.684C124.071 111.643 124.071 110.603 124.075 109.562C124.076 109.005 124.072 108.447 124.066 107.89C124.1 103.292 125.699 99.5041 128.915 96.2221C130.512 95.0562 132.093 94.7772 134.032 94.7241C134.29 94.7145 134.549 94.7048 134.815 94.6949C139.075 94.5589 143.342 94.5743 147.604 94.5748ZM131.452 102.779C131.13 103.537 131.13 103.537 130.957 104.297C130.906 104.473 130.854 104.648 130.801 104.829C130.637 105.593 130.625 106.298 130.623 107.081C130.621 107.408 130.62 107.736 130.618 108.074C130.617 108.432 130.617 108.79 130.617 109.159C130.615 109.538 130.614 109.916 130.612 110.306C130.609 111.343 130.607 112.381 130.605 113.419C130.605 114.068 130.603 114.717 130.602 115.366C130.598 117.4 130.595 119.434 130.594 121.468C130.593 123.81 130.588 126.153 130.579 128.496C130.573 130.309 130.57 132.123 130.569 133.937C130.569 135.019 130.567 136.101 130.562 137.182C130.556 138.391 130.558 139.6 130.56 140.809C130.557 141.164 130.554 141.518 130.551 141.884C130.567 145.1 131.183 147.805 133.301 150.293C135.699 152.618 138.618 153.832 141.94 153.861C142.52 153.866 142.52 153.866 143.112 153.872C143.534 153.874 143.955 153.877 144.377 153.879C144.591 153.88 144.805 153.881 145.026 153.882C146.16 153.888 147.295 153.892 148.43 153.895C149.592 153.898 150.754 153.909 151.916 153.92C152.818 153.928 153.72 153.93 154.621 153.931C155.049 153.933 155.477 153.936 155.905 153.942C159.668 153.987 163.278 153.571 166.113 150.879C166.275 150.725 166.437 150.572 166.604 150.413C168.402 148.517 169.366 145.898 169.379 143.299C169.381 143.012 169.383 142.725 169.385 142.429C169.386 142.116 169.387 141.803 169.388 141.481C169.391 140.984 169.391 140.984 169.394 140.477C169.399 139.379 169.403 138.282 169.406 137.184C169.408 136.621 169.408 136.621 169.409 136.046C169.415 134.261 169.419 132.477 169.422 130.693C169.424 128.641 169.432 126.59 169.444 124.539C169.454 122.756 169.457 120.973 169.459 119.19C169.46 118.435 169.463 117.68 169.469 116.926C169.684 110.316 169.684 110.316 166.903 104.505C164.545 102.126 162.122 101.239 158.818 101.221C158.538 101.216 158.257 101.211 157.968 101.206C157.048 101.192 156.128 101.185 155.207 101.179C154.891 101.176 154.576 101.173 154.251 101.17C152.583 101.155 150.915 101.145 149.247 101.14C147.525 101.134 145.804 101.109 144.083 101.081C142.757 101.063 141.431 101.057 140.105 101.055C139.47 101.052 138.835 101.044 138.2 101.031C134.336 100.722 134.336 100.722 131.452 102.779Z" fill="black"/>
<path d="M151.465 199.805C152.526 200.357 153.132 200.996 153.516 202.148C153.624 203.613 153.575 204.508 152.637 205.664C151.534 206.613 150.616 207.062 149.131 206.99C148.015 206.701 147.214 205.947 146.485 205.078C146.131 204.018 146.097 203.264 146.192 202.148C147.403 199.855 148.981 199.413 151.465 199.805Z" fill="black"/>
</svg>
