<svg width="300" height="300" viewBox="0 0 300 300" fill="none" xmlns="http://www.w3.org/2000/svg">
<path d="M150.463 76.4258C151.438 76.8826 152.221 77.5166 153.039 78.2042C155.159 79.9234 157.359 81.4548 159.667 82.91C159.86 83.032 160.053 83.154 160.252 83.2796C166.252 87.0351 172.585 89.4971 179.479 91.0399C179.737 91.0981 179.995 91.1564 180.261 91.2164C185.254 92.2762 190.298 92.433 195.382 92.5865C196.239 92.6132 197.096 92.645 197.952 92.6775C198.214 92.684 198.476 92.6904 198.745 92.6971C198.987 92.7068 199.229 92.7166 199.479 92.7267C199.691 92.7334 199.903 92.7401 200.121 92.7469C200.863 92.9108 201.114 93.1388 201.562 93.7498C201.909 95.0207 201.893 96.2842 201.884 97.5912C201.884 97.8279 201.884 98.0646 201.883 98.3085C201.882 99.0978 201.878 99.8872 201.875 100.677C201.874 101.241 201.872 101.806 201.871 102.371C201.868 103.571 201.865 104.771 201.861 105.971C201.854 107.763 201.851 109.555 201.848 111.347C201.836 118.658 201.812 125.97 201.785 133.281C201.772 136.949 201.761 140.617 201.753 144.285C201.746 147.524 201.737 150.763 201.723 154.002C201.716 155.704 201.711 157.407 201.709 159.109C201.707 160.704 201.701 162.3 201.692 163.895C201.69 164.474 201.689 165.054 201.689 165.633C201.697 178.947 197.493 190.648 188.085 200.207C186.36 201.907 184.488 203.381 182.519 204.785C182.361 204.899 182.203 205.013 182.04 205.13C178.762 207.471 175.227 209.369 171.705 211.314C170.382 212.048 169.071 212.801 167.76 213.556C165.083 215.093 162.387 216.596 159.682 218.085C158.086 218.966 156.502 219.859 154.938 220.798C154.66 220.963 154.381 221.129 154.094 221.299C153.577 221.609 153.062 221.922 152.551 222.241C151.471 222.883 150.808 223.237 149.534 223.264C148.326 222.883 147.315 222.364 146.227 221.722C145.76 221.455 145.293 221.187 144.825 220.92C144.574 220.775 144.324 220.63 144.065 220.481C142.912 219.819 141.749 219.173 140.587 218.526C137.248 216.664 133.922 214.779 130.608 212.874C129.704 212.357 128.799 211.843 127.894 211.33C122.916 208.498 117.995 205.64 113.671 201.855C113.422 201.642 113.174 201.429 112.918 201.21C103.271 192.772 99.1372 181.237 98.1436 168.75C98.0086 166.194 98.0198 163.636 98.0252 161.077C98.0236 160.345 98.0215 159.614 98.0192 158.882C98.0145 157.123 98.0139 155.364 98.0154 153.605C98.0166 152.176 98.0162 150.747 98.0146 149.318C98.0144 149.113 98.0142 148.908 98.0139 148.697C98.0135 148.28 98.013 147.863 98.0126 147.446C98.0086 143.565 98.0101 139.684 98.0135 135.802C98.0164 132.254 98.0126 128.705 98.0056 125.156C97.9985 121.499 97.9957 117.841 97.9976 114.184C97.9986 112.135 97.998 110.087 97.9929 108.039C97.9881 106.119 97.9895 104.2 97.995 102.28C97.9961 101.575 97.9952 100.87 97.9921 100.166C97.9883 99.2056 97.9916 98.2458 97.9968 97.2857C97.994 97.0056 97.9912 96.7256 97.9883 96.437C98.002 95.2031 98.0401 94.5107 98.6794 93.4302C99.5833 92.6355 100.203 92.6915 101.395 92.6947C101.599 92.6927 101.804 92.6908 102.015 92.6887C102.454 92.6848 102.894 92.6839 103.334 92.6858C104.499 92.6893 105.663 92.6662 106.827 92.6443C107.061 92.6404 107.295 92.6364 107.536 92.6323C121.814 92.3475 134.7 87.3653 146.113 78.9652C146.338 78.8011 146.563 78.6369 146.795 78.4678C147.224 78.1527 147.651 77.8337 148.075 77.5103C149.484 76.4761 149.484 76.4761 150.463 76.4258ZM148.435 83.9491C139.424 91.2165 127.933 95.5138 116.601 97.2655C116.368 97.302 116.135 97.3385 115.894 97.3761C112.984 97.8146 110.066 97.9506 107.127 98.0445C106.853 98.0537 106.578 98.0628 106.295 98.0723C106.051 98.0793 105.806 98.0863 105.554 98.0935C104.906 98.1425 104.337 98.2722 103.71 98.4373C103.676 107.718 103.651 116.999 103.635 126.279C103.633 127.379 103.631 128.478 103.63 129.578C103.629 129.797 103.629 130.016 103.628 130.241C103.622 133.769 103.611 137.298 103.597 140.826C103.583 144.455 103.575 148.085 103.572 151.714C103.57 153.948 103.564 156.181 103.552 158.415C103.543 160.137 103.542 161.859 103.544 163.582C103.544 164.281 103.541 164.98 103.535 165.68C103.448 177.06 106.673 187.069 114.55 195.41C114.762 195.645 114.974 195.879 115.193 196.121C119.56 200.761 125.48 203.707 130.956 206.836C131.409 207.095 131.409 207.095 131.871 207.359C133.806 208.465 135.748 209.557 137.694 210.644C138.02 210.827 138.346 211.009 138.682 211.196C138.851 211.291 139.021 211.386 139.195 211.483C139.542 211.677 139.889 211.871 140.235 212.065C141.095 212.546 141.958 213.02 142.827 213.486C145.595 214.974 145.595 214.974 146.783 216.003C147.784 216.828 148.658 217.474 149.999 217.383C152.678 216.468 155.071 214.867 157.445 213.355C158.908 212.427 160.422 211.594 161.938 210.754C162.481 210.446 163.025 210.138 163.568 209.828C164.733 209.168 165.902 208.513 167.073 207.862C173.543 204.265 179.735 200.806 185.155 195.703C185.335 195.539 185.514 195.375 185.699 195.206C190.304 190.844 193.433 184.613 195.061 178.528C195.147 178.208 195.147 178.208 195.234 177.883C196.35 173.427 196.371 169.058 196.359 164.495C196.36 163.773 196.36 163.052 196.361 162.33C196.362 160.583 196.361 158.836 196.358 157.089C196.355 155.053 196.355 153.018 196.355 150.982C196.355 147.353 196.353 143.723 196.348 140.094C196.344 136.571 196.342 133.049 196.342 129.527C196.342 129.2 196.342 129.2 196.342 128.867C196.342 128.542 196.342 128.542 196.343 128.209C196.343 124.195 196.341 120.181 196.338 116.166C196.337 114.746 196.337 113.327 196.337 111.907C196.337 110.001 196.335 108.095 196.332 106.189C196.331 105.487 196.331 104.786 196.331 104.084C196.331 103.131 196.329 102.178 196.327 101.226C196.328 100.944 196.328 100.663 196.329 100.373C196.448 99.1633 196.448 99.1633 195.995 98.1444C195.58 98.1121 195.164 98.0987 194.748 98.0929C187.667 97.9317 180.552 97.1825 173.73 95.2147C173.507 95.1506 173.284 95.0865 173.055 95.0204C164.894 92.6071 157.408 88.3979 150.609 83.3403C149.558 82.5987 149.369 83.1705 148.435 83.9491Z" fill="black"/>
<path d="M150.768 87.9826C151.757 88.477 151.757 88.477 152.05 89.0629C152.081 89.7713 152.095 90.4714 152.096 91.1799C152.098 91.4005 152.099 91.6212 152.1 91.8485C152.105 92.5916 152.107 93.3347 152.11 94.0779C152.113 94.6091 152.116 95.1402 152.119 95.6714C152.127 97.1168 152.133 98.5622 152.139 100.008C152.145 101.517 152.153 103.026 152.161 104.535C152.176 107.395 152.189 110.255 152.201 113.114C152.216 116.369 152.232 119.624 152.248 122.879C152.281 129.575 152.313 136.272 152.343 142.969C153.339 142.751 153.805 142.495 154.529 141.766C154.722 141.574 154.915 141.382 155.113 141.184C155.319 140.975 155.524 140.766 155.736 140.551C156.058 140.228 156.058 140.228 156.386 139.899C156.84 139.443 157.294 138.985 157.746 138.527C158.432 137.832 159.122 137.139 159.812 136.448C160.254 136.003 160.696 135.558 161.137 135.113C161.443 134.806 161.443 134.806 161.755 134.492C162.895 133.335 163.988 132.154 165.036 130.912C165.526 130.372 165.526 130.372 166.038 129.956C166.821 129.318 167.226 128.889 167.439 127.882C167.501 126.967 167.504 126.068 167.489 125.151C167.491 124.818 167.493 124.485 167.495 124.142C167.5 123.081 167.493 122.021 167.486 120.96C167.482 119.897 167.481 118.834 167.486 117.772C167.488 117.111 167.485 116.45 167.478 115.79C167.478 115.491 167.478 115.191 167.478 114.883C167.476 114.62 167.474 114.357 167.472 114.087C167.597 113.244 167.899 112.84 168.456 112.207C169.594 112.231 170.127 112.628 170.885 113.414C171.257 113.822 171.626 114.232 171.992 114.645C172.411 115.103 172.83 115.56 173.25 116.016C173.471 116.257 173.692 116.497 173.919 116.744C175.077 117.983 176.278 119.177 177.481 120.372C177.723 120.612 177.964 120.853 178.213 121.101C178.952 121.836 179.691 122.57 180.431 123.304C181.426 124.291 182.42 125.279 183.413 126.268C183.752 126.603 183.752 126.603 184.098 126.945C184.305 127.151 184.513 127.358 184.727 127.571C184.909 127.752 185.092 127.933 185.28 128.119C185.741 128.614 185.741 128.614 186.327 129.493C186.217 130.28 186.217 130.28 186.034 130.957C185.154 131.251 184.637 131.272 183.722 131.241C182.083 131.194 180.445 131.171 178.805 131.156C178.1 131.146 177.395 131.128 176.691 131.103C172.38 130.819 172.38 130.819 168.578 132.488C167.682 133.381 166.935 134.351 166.218 135.392C165.591 136.25 164.849 136.945 164.08 137.677C163.041 138.704 162.066 139.754 161.12 140.866C160.199 141.89 159.213 142.85 158.227 143.812C157.547 144.481 156.976 145.101 156.444 145.899C156.537 146.819 156.537 146.819 156.737 147.657C156.908 147.656 157.079 147.655 157.255 147.654C161.412 147.635 165.568 147.62 169.725 147.611C171.735 147.607 173.746 147.6 175.756 147.59C177.695 147.581 179.635 147.576 181.574 147.573C182.315 147.572 183.055 147.569 183.796 147.564C184.832 147.557 185.867 147.557 186.903 147.557C187.211 147.554 187.518 147.551 187.834 147.547C189.482 147.554 190.666 147.601 191.893 148.829C191.993 149.88 192.06 150.604 191.503 151.524C190.248 152.371 188.975 152.204 187.496 152.184C187.167 152.184 186.838 152.185 186.499 152.185C185.412 152.184 184.325 152.175 183.237 152.166C182.483 152.163 181.73 152.162 180.976 152.161C179.195 152.157 177.413 152.147 175.632 152.136C173.603 152.123 171.575 152.116 169.546 152.11C165.374 152.098 161.202 152.077 157.03 152.051C156.711 153.458 156.711 153.458 157.11 154.768C157.313 154.971 157.517 155.174 157.726 155.384C157.966 155.63 158.206 155.876 158.454 156.13C158.76 156.431 159.067 156.731 159.374 157.032C159.779 157.436 160.183 157.84 160.587 158.245C161.235 158.893 161.883 159.541 162.536 160.184C163.487 161.122 164.412 162.063 165.277 163.081C165.447 163.268 165.617 163.456 165.793 163.649C166.405 164.356 166.405 164.356 166.768 164.855C167.983 166.526 169.259 168.147 171.34 168.664C173.667 168.941 175.993 168.792 178.325 168.659C179.375 168.617 180.425 168.581 181.476 168.549C182.125 168.527 182.775 168.499 183.424 168.463C183.862 168.443 183.862 168.443 184.308 168.423C184.564 168.408 184.821 168.394 185.085 168.379C185.741 168.457 185.741 168.457 186.288 168.808C186.62 169.336 186.62 169.336 186.587 170.057C186.299 170.88 186.004 171.265 185.384 171.873C185.186 172.07 184.987 172.267 184.783 172.471C184.567 172.679 184.352 172.888 184.13 173.103C183.91 173.32 183.69 173.538 183.463 173.762C182.76 174.456 182.054 175.147 181.347 175.837C180.64 176.53 179.935 177.225 179.23 177.921C178.791 178.353 178.351 178.784 177.911 179.215C177.712 179.409 177.514 179.604 177.309 179.805C177.134 179.976 176.958 180.147 176.778 180.323C176.336 180.752 176.336 180.752 176.073 181.348C175.88 181.348 175.686 181.348 175.487 181.348C175.412 181.518 175.336 181.688 175.258 181.863C174.606 183.063 173.586 183.956 172.631 184.919C172.425 185.134 172.218 185.35 172.006 185.573C170.455 187.14 170.455 187.14 169.184 187.497C168.944 187.498 168.703 187.499 168.456 187.5C167.273 186.065 167.499 184.591 167.563 182.835C167.576 182.196 167.588 181.557 167.6 180.918C167.624 179.915 167.65 178.913 167.684 177.91C167.714 176.939 167.731 175.969 167.746 174.998C167.76 174.7 167.773 174.403 167.787 174.097C167.804 172.518 167.668 171.594 166.617 170.378C166.26 170.024 165.897 169.676 165.526 169.336C165.309 169.11 165.092 168.884 164.869 168.65C164.684 168.469 164.499 168.287 164.309 168.1C164.1 167.894 163.891 167.687 163.676 167.474C163.465 167.267 163.254 167.06 163.036 166.846C161.642 165.477 160.299 164.093 159.024 162.612C158.039 161.494 156.996 160.435 155.95 159.375C155.622 159.035 155.622 159.035 155.288 158.688C155.076 158.474 154.864 158.259 154.646 158.039C154.457 157.845 154.267 157.651 154.072 157.452C153.475 156.914 153.475 156.914 152.343 157.032C152.342 157.311 152.342 157.591 152.341 157.879C152.331 164.682 152.313 171.484 152.289 178.286C152.277 181.575 152.268 184.864 152.263 188.154C152.259 191.02 152.252 193.887 152.239 196.753C152.232 198.272 152.228 199.79 152.228 201.308C152.228 202.737 152.223 204.165 152.213 205.593C152.211 206.118 152.21 206.643 152.212 207.168C152.214 207.883 152.209 208.599 152.202 209.314C152.204 209.523 152.206 209.731 152.209 209.946C152.191 210.941 152.116 211.441 151.49 212.231C150.843 212.722 150.518 212.964 149.706 212.989C149.049 212.652 148.473 212.341 147.948 211.817C147.916 211.105 147.903 210.402 147.902 209.691C147.9 209.465 147.899 209.24 147.897 209.008C147.893 208.248 147.89 207.488 147.888 206.728C147.885 206.185 147.882 205.642 147.879 205.1C147.871 203.621 147.865 202.143 147.859 200.665C147.853 199.122 147.845 197.579 147.837 196.037C147.822 193.113 147.809 190.189 147.797 187.265C147.782 183.937 147.766 180.609 147.75 177.281C147.716 170.434 147.685 163.586 147.655 156.739C146.569 156.93 145.998 157.077 145.222 157.875C144.968 158.133 144.968 158.133 144.708 158.396C144.532 158.581 144.357 158.765 144.176 158.954C143.901 159.236 143.901 159.236 143.62 159.524C142.573 160.604 141.566 161.707 140.595 162.856C139.651 163.908 138.633 164.888 137.628 165.882C136.592 166.91 135.6 167.957 134.665 169.079C134.179 169.629 134.179 169.629 133.283 170.321C132.195 171.413 132.211 172.45 132.192 173.939C132.197 174.267 132.201 174.596 132.206 174.935C132.203 175.276 132.2 175.616 132.198 175.967C132.191 177.053 132.195 178.138 132.201 179.224C132.201 180.314 132.198 181.404 132.192 182.493C132.189 183.171 132.189 183.848 132.194 184.526C132.194 184.831 132.194 185.136 132.193 185.451C132.195 185.854 132.195 185.854 132.198 186.266C132.128 186.915 132.128 186.915 131.542 187.5C130.635 187.633 130.224 187.604 129.467 187.071C129.267 186.869 129.068 186.668 128.862 186.461C128.633 186.234 128.405 186.007 128.169 185.773C127.927 185.525 127.684 185.277 127.435 185.022C127.183 184.769 126.932 184.517 126.672 184.257C126.142 183.724 125.612 183.188 125.085 182.651C124.274 181.826 123.458 181.006 122.641 180.188C122.127 179.669 121.613 179.15 121.099 178.631C120.854 178.384 120.609 178.137 120.356 177.883C120.132 177.654 119.908 177.426 119.677 177.19C119.478 176.988 119.28 176.787 119.075 176.579C118.651 176.075 118.651 176.075 118.651 175.489C118.458 175.489 118.265 175.489 118.065 175.489C118.065 175.295 118.065 175.102 118.065 174.903C117.872 174.903 117.679 174.903 117.479 174.903C117.046 174.472 117.046 174.472 116.546 173.877C115.985 173.212 115.426 172.556 114.828 171.923C114.639 171.722 114.451 171.521 114.257 171.314C113.994 171.04 113.994 171.04 113.726 170.76C113.378 170.215 113.378 170.215 113.503 169.595C113.558 169.413 113.614 169.231 113.671 169.043C113.961 169.036 114.252 169.029 114.551 169.021C114.961 169.011 115.372 169 115.782 168.99C116.002 168.984 116.221 168.978 116.447 168.973C117.651 168.941 118.855 168.908 120.059 168.871C120.542 168.856 121.025 168.841 121.508 168.826C121.745 168.819 121.983 168.811 122.228 168.804C123.514 168.765 124.798 168.744 126.085 168.748C128.362 168.803 128.362 168.803 130.446 168.041C130.955 167.496 130.955 167.496 131.349 166.85C131.984 165.889 132.766 165.152 133.593 164.356C134.544 163.419 135.476 162.483 136.339 161.463C137.478 160.122 138.738 158.902 139.994 157.672C140.503 157.171 141.004 156.663 141.503 156.153C141.677 155.981 141.852 155.808 142.031 155.631C142.195 155.459 142.359 155.287 142.527 155.11C142.675 154.959 142.824 154.807 142.976 154.651C143.396 153.84 143.137 153.217 142.968 152.344C142.793 152.343 142.619 152.343 142.439 152.342C138.2 152.325 133.96 152.303 129.72 152.275C127.67 152.262 125.62 152.25 123.569 152.243C121.592 152.235 119.614 152.223 117.637 152.209C116.881 152.204 116.126 152.2 115.37 152.198C114.314 152.196 113.259 152.187 112.203 152.178C111.888 152.178 111.574 152.179 111.249 152.179C110.962 152.176 110.675 152.172 110.379 152.168C110.129 152.167 109.88 152.165 109.622 152.164C108.835 152.025 108.583 151.802 108.104 151.172C107.791 150.144 107.716 149.63 108.154 148.638C108.69 147.95 108.69 147.95 109.373 147.756C109.645 147.752 109.918 147.747 110.198 147.743C110.514 147.734 110.831 147.725 111.157 147.717C111.507 147.715 111.857 147.713 112.217 147.712C112.775 147.701 112.775 147.701 113.343 147.69C114.624 147.667 115.905 147.661 117.186 147.657C117.663 147.654 118.14 147.652 118.616 147.649C122.278 147.632 125.939 147.643 129.601 147.657C131.497 147.664 133.392 147.67 135.288 147.673C136.036 147.675 136.784 147.679 137.533 147.682C137.991 147.683 138.449 147.684 138.907 147.685C139.111 147.687 139.314 147.688 139.525 147.69C140.803 147.69 142.003 147.57 143.261 147.364C143.566 146.734 143.566 146.734 143.554 145.899C143.079 145.137 142.448 144.534 141.814 143.903C141.631 143.714 141.447 143.524 141.258 143.329C140.661 142.716 140.058 142.109 139.452 141.504C139.247 141.298 139.041 141.093 138.83 140.88C137.621 139.67 137.621 139.67 136.404 138.467C135.493 137.569 134.617 136.661 133.784 135.69C133.61 135.499 133.436 135.307 133.256 135.111C132.714 134.473 132.714 134.473 132.211 133.683C131.286 132.438 130.53 131.691 129.003 131.388C126.638 131.148 124.265 131.218 121.892 131.269C120.813 131.281 119.735 131.289 118.656 131.292C117.987 131.296 117.318 131.305 116.649 131.32C116.197 131.325 116.197 131.325 115.735 131.331C115.47 131.336 115.205 131.342 114.932 131.348C114.127 131.232 113.877 130.997 113.378 130.372C113.774 129.191 114.271 128.493 115.154 127.621C115.4 127.377 115.645 127.132 115.898 126.88C116.164 126.619 116.43 126.359 116.705 126.09C117.123 125.675 117.542 125.259 117.961 124.843C118.547 124.262 119.136 123.682 119.724 123.103C120.89 121.955 122.051 120.803 123.213 119.651C123.616 119.253 124.019 118.855 124.423 118.458C125.729 117.167 126.99 115.863 128.177 114.462C128.861 113.681 129.505 113.083 130.37 112.5C131.596 112.555 131.596 112.555 132.128 113.086C132.153 113.542 132.158 113.998 132.155 114.454C132.154 114.891 132.154 114.891 132.153 115.338C132.152 115.655 132.15 115.973 132.148 116.301C132.151 116.97 132.154 117.64 132.158 118.309C132.162 119.367 132.164 120.425 132.157 121.483C132.151 122.503 132.158 123.521 132.167 124.541C132.162 124.855 132.157 125.168 132.151 125.492C132.183 127.458 132.527 128.492 133.941 129.881C134.116 130.043 134.291 130.205 134.472 130.372C134.785 130.711 135.097 131.052 135.404 131.397C135.721 131.739 136.039 132.081 136.358 132.422C136.53 132.608 136.703 132.793 136.881 132.984C138.424 134.629 140.013 136.225 141.622 137.804C142.757 138.923 143.828 140.076 144.862 141.289C145.446 141.949 146.033 142.494 146.776 142.969C147.066 142.873 147.356 142.776 147.655 142.676C147.656 142.261 147.656 142.261 147.657 141.837C147.675 135.103 147.697 128.37 147.724 121.636C147.737 118.38 147.749 115.124 147.757 111.868C147.763 109.03 147.773 106.193 147.787 103.355C147.794 101.852 147.799 100.349 147.801 98.8461C147.803 97.4324 147.809 96.0188 147.818 94.6051C147.82 94.0853 147.821 93.5655 147.821 93.0458C147.82 92.3378 147.825 91.6301 147.831 90.9222C147.829 90.6114 147.829 90.6114 147.827 90.2943C147.839 89.4643 147.854 88.904 148.34 88.2143C149.325 87.5604 149.636 87.5728 150.768 87.9826Z" fill="black"/>
<path d="M134.18 92.2846C133.393 92.8092 132.814 93.064 131.927 93.3466C131.691 93.4229 131.454 93.4991 131.21 93.5777C131.03 93.6344 130.85 93.691 130.664 93.7494C131.453 91.9296 132.336 91.9367 134.18 92.2846Z" fill="black"/>
<path d="M111.328 199.219C111.715 199.315 112.102 199.412 112.5 199.512C112.5 199.802 112.5 200.092 112.5 200.391C112.693 200.391 112.887 200.391 113.086 200.391C112.989 200.681 112.893 200.971 112.793 201.27C112.292 200.794 111.804 200.305 111.328 199.805C111.328 199.611 111.328 199.418 111.328 199.219ZM113.086 200.098C113.672 200.391 113.672 200.391 113.672 200.391L113.086 200.098Z" fill="black"/>
<path d="M185.742 168.75C185.936 168.75 186.129 168.75 186.328 168.75C186.53 169.427 186.53 169.427 186.621 170.215C186.2 170.746 186.2 170.746 185.742 171.094C185.742 170.312 185.742 169.531 185.742 168.75ZM185.156 169.043C185.742 169.336 185.742 169.336 185.742 169.336L185.156 169.043Z" fill="black"/>
<path d="M191.602 148.828C191.698 148.828 191.795 148.828 191.895 148.828C191.931 149.817 191.931 149.817 191.895 150.879C191.701 151.072 191.508 151.266 191.309 151.465C191.115 151.271 190.922 151.078 190.723 150.879C190.723 150.686 190.723 150.492 190.723 150.293C190.916 150.293 191.109 150.293 191.309 150.293C191.405 149.81 191.502 149.326 191.602 148.828Z" fill="black"/>
<path d="M146.191 84.668C146.095 84.958 145.998 85.248 145.898 85.5469C145.898 85.6436 145.898 85.7402 145.898 85.8398C145.514 86.1405 145.123 86.4338 144.727 86.7188C144.836 85.8582 144.836 85.8582 145.02 84.9609C145.605 84.668 145.605 84.668 146.191 84.668Z" fill="black"/>
</svg>
