<svg width="300" height="300" viewBox="0 0 300 300" fill="none" xmlns="http://www.w3.org/2000/svg">
<path d="M149.707 51.8555C149.997 51.8555 150.287 51.8555 150.586 51.8555C151.677 54.0306 152.767 56.2061 153.857 58.3821C154.363 59.3932 154.87 60.4043 155.377 61.4151C160.427 71.4828 160.427 71.4828 162.229 75.3969C162.465 75.8929 162.714 76.3831 162.979 76.8643C164.185 79.1755 164.267 81.2551 164.239 83.8194C164.239 84.2609 164.241 84.7023 164.242 85.1438C164.246 86.3491 164.24 87.5542 164.233 88.7595C164.226 90.0622 164.228 91.3648 164.229 92.6674C164.23 94.9218 164.226 97.1761 164.217 99.4304C164.205 102.69 164.202 105.949 164.2 109.208C164.197 114.497 164.187 119.786 164.173 125.074C164.16 130.21 164.149 135.346 164.143 140.483C164.143 140.799 164.142 141.116 164.142 141.443C164.14 143.032 164.138 144.621 164.136 146.211C164.121 159.388 164.094 172.565 164.062 185.742C172.28 185.742 180.498 185.742 188.965 185.742C188.422 187.099 187.876 187.843 186.896 188.855C185.601 190.228 184.383 191.639 183.198 193.11C182.069 194.499 180.914 195.87 179.728 197.212C179.268 197.764 179.268 197.764 178.87 198.483C178.054 199.761 177.446 200.558 175.939 200.942C174.674 201.023 173.44 201.014 172.174 200.97C171.711 200.964 171.248 200.96 170.785 200.957C169.573 200.946 168.362 200.917 167.15 200.885C165.911 200.855 164.671 200.841 163.432 200.827C161.005 200.795 158.579 200.745 156.152 200.684C156.156 204.758 156.169 208.833 156.191 212.908C156.201 214.8 156.208 216.693 156.21 218.585C156.211 220.412 156.219 222.24 156.232 224.067C156.236 224.763 156.238 225.459 156.236 226.155C156.235 227.132 156.242 228.11 156.252 229.087C156.25 229.372 156.247 229.658 156.244 229.952C156.283 232.252 156.773 232.98 157.91 235.254C160.134 235.351 162.357 235.447 164.648 235.547C162.487 238.069 160.129 240.11 157.554 242.192C156.446 243.114 155.394 244.09 154.334 245.066C153.027 246.239 151.664 247.34 150.293 248.438C146.773 246.864 143.616 243.274 140.706 240.755C140.35 240.447 139.993 240.139 139.636 239.832C139.466 239.684 139.295 239.536 139.119 239.384C138.196 238.592 137.259 237.847 136.267 237.14C135.965 236.904 135.663 236.669 135.352 236.426C135.352 236.136 135.352 235.846 135.352 235.547C137.575 235.547 139.799 235.547 142.09 235.547C142.283 234.967 142.477 234.387 142.676 233.789C142.83 233.526 142.985 233.263 143.144 232.993C143.723 231.638 143.683 230.413 143.681 228.954C143.684 228.648 143.687 228.342 143.69 228.027C143.699 227.019 143.702 226.011 143.705 225.002C143.71 224.302 143.715 223.602 143.721 222.901C143.734 221.061 143.743 219.22 143.751 217.379C143.76 215.5 143.773 213.62 143.786 211.741C143.812 208.055 143.832 204.369 143.848 200.684C143.469 200.698 143.469 200.698 143.084 200.713C140.692 200.802 138.301 200.868 135.909 200.911C134.679 200.934 133.45 200.965 132.221 201.015C123.608 201.358 123.608 201.358 121.581 199.74C120.728 198.857 120.102 197.907 119.536 196.821C119.089 196.022 118.482 195.404 117.847 194.751C116.74 193.532 115.706 192.264 114.673 190.981C113.744 189.874 112.761 188.822 111.754 187.785C110.742 186.716 110.742 186.716 110.742 185.742C119.057 185.742 127.371 185.742 135.938 185.742C135.921 182.556 135.904 179.37 135.886 176.087C135.835 165.872 135.799 155.657 135.773 145.442C135.769 143.853 135.765 142.265 135.76 140.676C135.76 140.359 135.759 140.043 135.758 139.717C135.744 134.608 135.719 129.498 135.689 124.388C135.659 119.139 135.641 113.889 135.634 108.64C135.63 105.405 135.616 102.17 135.59 98.9351C135.573 96.7117 135.568 94.4884 135.572 92.2649C135.574 90.9852 135.571 89.7061 135.553 88.4265C135.48 82.8014 135.741 78.2892 138.759 73.3316C139.396 72.2593 139.924 71.1373 140.463 70.0134C140.668 69.5997 140.874 69.1864 141.081 68.7736C141.183 68.5694 141.286 68.3652 141.391 68.1548C141.495 67.9461 141.6 67.7374 141.708 67.5224C141.932 67.073 142.157 66.6235 142.381 66.1741C142.843 65.2499 143.306 64.3259 143.768 63.4021C144.362 62.2168 144.954 61.031 145.546 59.845C146.006 58.925 146.466 58.0052 146.926 57.0856C147.145 56.6476 147.364 56.2096 147.583 55.7714C147.885 55.1664 148.188 54.5618 148.491 53.9573C148.748 53.4423 148.748 53.4423 149.011 52.9169C149.414 52.1484 149.414 52.1484 149.707 51.8555ZM149.707 60.3516C149.582 60.6016 149.457 60.8516 149.328 61.1092C149.242 61.2812 149.156 61.4533 149.068 61.6305C148.866 62.0342 148.664 62.438 148.462 62.8417C147.801 64.1652 147.138 65.4878 146.473 66.8095C144.47 70.7955 142.509 74.7984 140.601 78.8303C140.417 79.2155 140.23 79.5989 140.039 79.9805C140.011 80.5545 140.003 81.1296 140.003 81.7043C140.002 82.0739 140.002 82.4434 140.001 82.8242C140.002 83.2382 140.003 83.6521 140.004 84.0661C140.004 84.5028 140.003 84.9396 140.003 85.3763C140.002 86.5808 140.004 87.7854 140.005 88.9899C140.006 90.2872 140.006 91.5845 140.006 92.8818C140.006 95.1309 140.006 97.38 140.008 99.6291C140.01 102.881 140.011 106.133 140.012 109.385C140.012 114.66 140.014 119.936 140.017 125.211C140.02 130.337 140.022 135.462 140.023 140.588C140.023 140.904 140.023 141.22 140.023 141.545C140.024 143.129 140.024 144.713 140.024 146.297C140.027 159.445 140.033 172.594 140.039 185.742C141.302 185.751 142.566 185.756 143.829 185.76C144.19 185.763 144.551 185.765 144.923 185.768C145.266 185.769 145.608 185.77 145.961 185.771C146.279 185.772 146.597 185.774 146.924 185.775C147.639 185.825 147.639 185.825 147.949 185.449C147.976 184.916 147.982 184.382 147.98 183.848C147.98 183.498 147.979 183.148 147.979 182.788C147.977 182.395 147.975 182.002 147.973 181.608C147.971 181.195 147.97 180.781 147.97 180.367C147.967 179.464 147.964 178.56 147.96 177.657C147.954 176.187 147.95 174.717 147.946 173.247C147.941 171.39 147.935 169.532 147.929 167.675C147.917 164.02 147.909 160.366 147.902 156.712C147.901 156.137 147.9 155.562 147.899 154.987C147.897 153.822 147.895 152.658 147.892 151.493C147.887 148.496 147.881 145.498 147.875 142.501C147.874 142.2 147.874 141.899 147.873 141.589C147.863 136.723 147.847 131.856 147.829 126.989C147.812 121.992 147.801 116.994 147.796 111.996C147.792 108.915 147.784 105.834 147.768 102.753C147.758 100.637 147.754 98.522 147.755 96.4066C147.756 95.1878 147.754 93.9692 147.744 92.7505C147.669 83.36 147.669 83.36 149.707 79.6875C151.495 81.475 151.601 84.4829 151.622 86.8661C151.62 87.2459 151.617 87.6256 151.615 88.0169C151.616 88.4334 151.618 88.8499 151.621 89.2664C151.626 90.4013 151.624 91.5362 151.621 92.6712C151.619 93.8988 151.624 95.1264 151.628 96.3539C151.634 98.478 151.635 100.602 151.634 102.726C151.632 105.799 151.637 108.871 151.644 111.944C151.654 116.931 151.66 121.919 151.662 126.907C151.665 131.747 151.668 136.587 151.675 141.427C151.675 141.725 151.676 142.024 151.676 142.331C151.681 145.588 151.685 148.845 151.691 152.102C151.691 152.531 151.691 152.531 151.692 152.969C151.695 154.685 151.695 154.685 151.698 156.4C151.703 159.749 151.707 163.097 151.709 166.446C151.71 168.544 151.712 170.643 151.714 172.741C151.716 174.185 151.716 175.629 151.716 177.073C151.716 177.949 151.717 178.824 151.719 179.699C151.719 180.291 151.719 180.883 151.718 181.475C151.719 181.825 151.72 182.176 151.72 182.538C151.721 182.84 151.721 183.143 151.721 183.455C151.742 184.392 151.742 184.392 152.051 185.742C154.661 185.742 157.271 185.742 159.961 185.742C160.047 172.446 160.115 159.149 160.155 145.853C160.16 144.279 160.165 142.705 160.17 141.132C160.171 140.818 160.172 140.505 160.173 140.182C160.19 135.126 160.22 130.069 160.255 125.013C160.291 119.815 160.312 114.618 160.319 109.42C160.324 106.219 160.341 103.018 160.372 99.8166C160.392 97.6144 160.398 95.4124 160.393 93.21C160.391 91.9437 160.394 90.6782 160.415 89.412C160.513 83.1008 159.764 78.4926 156.636 72.94C156.003 71.8009 155.433 70.6349 154.865 69.4621C154.253 68.2 153.617 66.9502 152.985 65.6982C152.72 65.1711 152.455 64.6439 152.19 64.1167C151.559 62.861 150.926 61.606 150.293 60.3516C150.1 60.3516 149.906 60.3516 149.707 60.3516ZM119.824 189.844C120.285 190.765 120.613 191.308 121.27 192.05C121.436 192.239 121.602 192.429 121.773 192.624C121.945 192.818 122.118 193.013 122.296 193.213C122.638 193.6 122.979 193.988 123.32 194.376C123.472 194.546 123.623 194.717 123.779 194.892C124.219 195.41 124.219 195.41 124.563 196.018C125.072 196.667 125.072 196.667 125.97 196.736C126.33 196.74 126.69 196.743 127.061 196.747C127.262 196.75 127.463 196.754 127.669 196.757C128.343 196.767 129.017 196.769 129.691 196.771C130.174 196.776 130.657 196.782 131.139 196.788C132.452 196.804 133.765 196.811 135.079 196.817C135.9 196.82 136.721 196.825 137.542 196.83C140.112 196.846 142.683 196.857 145.253 196.862C148.217 196.867 151.18 196.888 154.144 196.922C156.437 196.947 158.729 196.959 161.022 196.96C162.39 196.962 163.758 196.969 165.126 196.99C166.415 197.009 167.704 197.011 168.993 197.001C169.464 197 169.935 197.005 170.406 197.017C173.188 197.099 173.188 197.099 175.58 195.83C176.42 194.975 177.127 194.036 177.832 193.066C178.287 192.509 178.745 191.953 179.205 191.4C179.864 190.7 179.864 190.7 180.176 189.844C160.26 189.844 140.344 189.844 119.824 189.844ZM148.242 200.684C148.242 210.062 148.242 219.439 148.242 229.102C149.402 229.102 150.563 229.102 151.758 229.102C151.758 219.724 151.758 210.346 151.758 200.684C150.598 200.684 149.437 200.684 148.242 200.684ZM146.484 235.254C145.831 236.372 145.768 237.176 145.898 238.477C146.299 239.655 146.79 240.564 147.711 241.406C148.89 241.826 149.936 241.895 151.172 241.699C152.456 241.057 153.281 240.41 153.809 239.062C154.009 237.585 153.977 236.475 153.314 235.126C152.26 233.957 151.463 233.451 149.89 233.331C148.352 233.38 147.445 234.094 146.484 235.254Z" fill="black"/>
<path d="M162.305 235.84C162.981 235.84 163.658 235.84 164.355 235.84C163.872 236.323 163.389 236.807 162.891 237.305C162.697 237.111 162.504 236.918 162.305 236.719C162.305 236.429 162.305 236.139 162.305 235.84Z" fill="black"/>
<path d="M110.742 186.035C111.129 186.035 111.516 186.035 111.914 186.035C112.011 186.615 112.107 187.195 112.207 187.793C111.707 187.418 111.219 187.026 110.742 186.621C110.742 186.428 110.742 186.234 110.742 186.035Z" fill="black"/>
</svg>
