<svg width="300" height="300" viewBox="0 0 300 300" fill="none" xmlns="http://www.w3.org/2000/svg">
<path d="M197.038 77.6638C198.426 78.7457 199.627 80.0173 200.848 81.2796C201.373 81.817 201.898 82.3538 202.424 82.8898C202.653 83.1256 202.881 83.3614 203.117 83.6044C203.714 84.1865 204.312 84.7284 204.944 85.2692C206.666 86.7629 208.264 88.3849 209.878 89.9931C210.048 90.1625 210.218 90.3319 210.393 90.5064C211.293 91.4014 212.191 92.2973 213.089 93.1939C214.01 94.1136 214.934 95.0305 215.859 95.9467C216.576 96.6581 217.291 97.3714 218.005 98.0853C218.345 98.424 218.685 98.762 219.026 99.0992C222.399 102.437 224.992 105.511 225.091 110.448C225.102 115.464 222.672 119.679 219.433 123.339C219.121 123.705 219.121 123.705 218.802 124.078C217.673 125.374 216.493 126.565 215.214 127.712C213.306 129.442 211.486 131.252 209.671 133.079C209.095 133.659 208.518 134.238 207.941 134.817C206.717 136.044 205.495 137.272 204.272 138.5C202.85 139.93 201.427 141.359 200.002 142.787C199.438 143.353 198.874 143.92 198.31 144.488C195.221 147.589 195.221 147.589 193.541 149.005C193.008 149.463 192.508 149.948 192.004 150.439C188.5 153.495 183.88 154.756 179.309 154.457C176.844 154.196 174.547 153.315 172.265 152.398C168.924 151.176 165.5 151.814 162.304 153.222C159.266 154.732 156.559 156.83 154.687 159.667C154.494 159.667 154.301 159.667 154.101 159.667C154.018 159.839 153.935 160.011 153.85 160.189C153.547 160.777 153.219 161.313 152.856 161.864C152.047 163.143 151.387 164.48 150.724 165.84C150.357 166.57 149.963 167.262 149.542 167.962C148.794 169.278 148.351 170.677 147.892 172.111C146.737 175.708 145.153 178.438 142.438 181.072C142.24 181.268 142.043 181.464 141.84 181.665C140.349 183.133 140.349 183.133 139.575 183.793C137.767 185.334 136.099 187.01 134.426 188.695C133.885 189.24 133.342 189.785 132.799 190.329C131.647 191.485 130.496 192.641 129.345 193.798C128.01 195.14 126.675 196.481 125.338 197.822C124.807 198.354 124.277 198.888 123.747 199.422C121.076 202.104 121.076 202.104 119.832 203.162C118.217 204.54 116.759 206.084 115.274 207.599C114.318 208.573 113.358 209.542 112.398 210.513C111.184 211.74 109.972 212.969 108.765 214.202C107.782 215.206 106.795 216.205 105.805 217.201C105.432 217.578 105.061 217.956 104.691 218.336C101.795 221.313 98.6661 224.049 94.4456 224.853C94.2367 224.896 94.0277 224.94 93.8125 224.985C89.6529 225.801 85.6621 225.199 82.031 222.948C79.5548 221.219 77.9509 218.764 77.189 215.844C76.4834 211.738 77.3478 207.953 79.6141 204.494C80.8826 202.797 82.4025 201.351 83.917 199.877C84.2409 199.556 84.5646 199.236 84.888 198.915C86.3498 197.469 87.8315 196.061 89.3931 194.723C90.4547 193.782 91.4375 192.759 92.4314 191.747C92.8487 191.322 93.2668 190.898 93.6857 190.475C93.9579 190.197 93.9579 190.197 94.2356 189.914C94.8229 189.352 95.4221 188.819 96.0374 188.288C97.2088 187.269 98.3088 186.196 99.3986 185.091C99.5913 184.897 99.784 184.704 99.9825 184.504C100.591 183.892 101.199 183.279 101.806 182.665C102.608 181.856 103.411 181.047 104.214 180.239C104.393 180.057 104.573 179.876 104.757 179.689C105.841 178.598 106.965 177.576 108.128 176.571C108.977 175.821 109.773 175.022 110.568 174.215C110.735 174.047 110.901 173.879 111.073 173.706C111.598 173.178 112.122 172.648 112.646 172.118C116.655 168.063 116.655 168.063 118.481 166.512C119.309 165.798 120.048 165 120.801 164.209C121.289 163.769 121.289 163.769 121.875 163.769C121.951 163.595 122.027 163.42 122.106 163.241C123.695 160.355 127.777 158.105 130.664 156.737C130.893 156.544 131.123 156.351 131.36 156.151C132.514 155.272 134.16 154.394 135.644 154.394C135.644 154.2 135.644 154.007 135.644 153.808C135.934 153.808 136.224 153.808 136.523 153.808C136.523 153.614 136.523 153.421 136.523 153.222C136.813 153.222 137.103 153.222 137.402 153.222C137.499 152.932 137.595 152.642 137.695 152.343C137.985 152.343 138.275 152.343 138.574 152.343C138.574 152.053 138.574 151.763 138.574 151.464C139.052 151.155 139.543 150.865 140.039 150.585C140.519 150.181 140.988 149.765 141.449 149.34C142.321 148.536 143.2 147.76 144.122 147.014C147.173 144.348 150.188 140.354 150.651 136.236C150.685 135.622 150.697 135.014 150.696 134.399C150.695 134.07 150.695 134.07 150.694 133.736C150.653 131.846 150.196 130.332 149.414 128.612C147.039 122.928 146.81 117.365 149.121 111.62C151.592 106.154 156.04 102.013 160.228 97.8384C160.859 97.209 161.488 96.5781 162.117 95.9469C162.525 95.5396 162.932 95.1324 163.34 94.7253C163.525 94.54 163.71 94.3547 163.9 94.1638C164.802 93.2666 165.717 92.4023 166.682 91.5725C167.967 90.461 169.151 89.2631 170.337 88.0476C170.806 87.5722 171.275 87.0969 171.744 86.6217C172.471 85.8839 173.197 85.1452 173.921 84.4041C180.144 78.0382 188.141 71.5371 197.038 77.6638ZM182.226 83.4952C181.936 83.7127 181.646 83.9302 181.347 84.1544C181.154 84.3236 180.961 84.4927 180.761 84.6671C180.761 84.8604 180.761 85.0538 180.761 85.253C180.588 85.3313 180.415 85.4096 180.236 85.4903C179.58 85.8443 179.148 86.2052 178.621 86.7291C178.436 86.9117 178.251 87.0943 178.06 87.2825C177.86 87.4826 177.66 87.6828 177.455 87.8889C177.241 88.1001 177.028 88.3112 176.809 88.5287C176.103 89.2286 175.4 89.9306 174.697 90.6329C174.206 91.1221 173.715 91.6114 173.224 92.1006C172.192 93.1283 171.162 94.1572 170.133 95.1868C168.821 96.4986 167.506 97.8062 166.189 99.1129C165.172 100.124 164.157 101.137 163.144 102.151C162.66 102.634 162.176 103.116 161.69 103.596C157.225 108.024 152.892 112.567 152.838 119.219C152.832 121.666 153.211 123.684 154.101 125.976C154.299 126.526 154.498 127.076 154.693 127.627C154.878 128.143 155.068 128.657 155.258 129.171C156.78 133.65 155.915 138.559 153.9 142.711C152.913 144.655 151.744 146.317 150.293 147.948C150.131 148.148 149.969 148.348 149.803 148.554C146.019 153.157 140.51 156.076 135.268 158.681C133.356 159.643 131.509 160.74 129.785 162.011C129.785 162.107 129.785 162.204 129.785 162.304C134.157 162.488 137.97 161.722 142.09 160.253C142.771 160.045 143.453 159.854 144.14 159.667C144.14 159.474 144.14 159.28 144.14 159.081C144.38 159.006 144.38 159.006 144.624 158.93C146.274 158.4 147.843 157.762 149.414 157.03C149.414 156.837 149.414 156.644 149.414 156.444C149.617 156.387 149.819 156.33 150.028 156.272C151.191 155.707 151.893 154.874 152.765 153.936C157.165 149.381 162.852 146.556 169.244 146.355C171.243 146.399 172.799 146.844 174.609 147.655C175.139 147.871 175.67 148.085 176.202 148.296C176.431 148.391 176.661 148.486 176.897 148.583C179.887 149.719 183.474 149.465 186.355 148.176C188.55 146.834 190.404 145.127 192.198 143.297C192.409 143.084 192.621 142.871 192.839 142.651C193.508 141.977 194.176 141.301 194.842 140.624C195.51 139.948 196.179 139.272 196.848 138.597C197.262 138.18 197.676 137.761 198.088 137.342C199.006 136.414 199.934 135.518 200.924 134.666C202.448 133.351 203.869 131.932 205.296 130.514C205.443 130.369 205.589 130.224 205.74 130.074C206.515 129.305 207.29 128.535 208.063 127.764C208.852 126.979 209.644 126.197 210.437 125.416C211.055 124.805 211.671 124.191 212.286 123.577C212.577 123.288 212.868 123 213.161 122.713C216.539 119.394 219.715 115.573 220.093 110.668C219.763 105.73 214.875 102.319 211.596 99.026C211.363 98.7913 211.13 98.5566 210.889 98.3148C209.656 97.0757 208.422 95.8374 207.187 94.5999C205.917 93.3264 204.65 92.0495 203.384 90.7719C202.404 89.7844 201.422 88.7996 200.439 87.8154C199.971 87.3458 199.503 86.8752 199.037 86.4036C198.385 85.744 197.729 85.0883 197.072 84.4332C196.883 84.2404 196.693 84.0475 196.499 83.8488C194.436 81.8097 192.299 80.5474 189.367 80.4739C186.454 80.5058 184.424 81.6825 182.226 83.4952ZM144.012 165.032C142.631 165.456 141.243 165.842 139.848 166.215C139.321 166.361 138.799 166.525 138.281 166.698C135.406 167.121 132.501 166.996 129.605 166.928C127.064 166.899 125.321 167.027 123.358 168.767C123.1 168.99 123.1 168.99 122.837 169.217C122.395 169.607 122.395 169.607 122.461 170.214C122.171 170.311 121.881 170.407 121.582 170.507C121.582 170.7 121.582 170.894 121.582 171.093C121.319 171.213 121.319 171.213 121.051 171.335C120.426 171.67 120.028 171.991 119.534 172.493C119.372 172.656 119.209 172.82 119.042 172.988C118.869 173.164 118.697 173.341 118.519 173.522C118.247 173.797 118.247 173.797 117.97 174.077C117.39 174.661 116.813 175.248 116.235 175.835C115.478 176.603 114.719 177.371 113.96 178.137C113.777 178.322 113.593 178.507 113.404 178.698C112.369 179.736 111.312 180.722 110.192 181.669C108.571 183.119 107.071 184.708 105.542 186.254C104.836 186.967 104.13 187.68 103.422 188.392C103.263 188.554 103.103 188.716 102.939 188.883C102.306 189.519 101.688 190.115 100.964 190.648C100.728 190.829 100.728 190.829 100.488 191.015C100.488 191.208 100.488 191.401 100.488 191.601C100.327 191.666 100.166 191.731 100 191.798C99.1098 192.304 98.4535 192.982 97.7461 193.71C97.5972 193.86 97.4484 194.011 97.295 194.165C96.8198 194.646 96.3467 195.128 95.8738 195.611C95.2538 196.241 94.6328 196.871 94.0107 197.5C93.8602 197.652 93.7096 197.804 93.5545 197.961C92.5622 198.957 91.5386 199.897 90.4689 200.808C89.547 201.613 88.694 202.485 87.8355 203.356C87.6627 203.53 87.4899 203.704 87.3119 203.884C86.9755 204.223 86.6395 204.562 86.3042 204.902C85.8846 205.325 85.4585 205.741 85.0317 206.156C84.4594 206.748 84.0167 207.291 83.5874 207.989C83.4135 208.264 83.4135 208.264 83.2361 208.546C82.1466 210.66 81.9229 213.079 82.4808 215.396C83.3381 217.528 84.588 218.464 86.5903 219.428C89.3074 220.56 92.0922 220.107 94.8335 219.275C97.5135 218.089 99.4671 216.176 101.496 214.105C101.782 213.817 102.068 213.529 102.355 213.241C103.103 212.488 103.848 211.733 104.593 210.976C105.785 209.767 106.981 208.561 108.176 207.356C108.589 206.939 109.001 206.521 109.413 206.103C110.493 205.011 111.567 203.931 112.737 202.935C114.353 201.548 115.833 200.019 117.332 198.509C117.89 197.948 118.448 197.388 119.006 196.828C120.189 195.642 121.371 194.454 122.552 193.267C123.927 191.885 125.303 190.503 126.68 189.123C127.229 188.572 127.778 188.019 128.327 187.467C128.663 187.13 128.998 186.793 129.334 186.456C129.486 186.303 129.638 186.149 129.795 185.991C130.45 185.336 131.062 184.793 131.836 184.276C131.836 184.083 131.836 183.89 131.836 183.69C131.997 183.624 132.159 183.558 132.326 183.49C133.214 182.988 133.827 182.35 134.545 181.625C134.689 181.48 134.833 181.334 134.982 181.185C135.442 180.721 135.9 180.256 136.358 179.79C136.665 179.481 136.972 179.171 137.279 178.862C137.847 178.289 138.414 177.716 138.98 177.142C139.488 176.627 140.002 176.119 140.522 175.616C142.53 173.532 143.52 170.785 144.543 168.127C144.675 167.79 144.807 167.454 144.943 167.108C145.264 166.289 145.582 165.469 145.898 164.648C145.2 164.648 144.679 164.824 144.012 165.032Z" fill="black"/>
<path d="M189.257 92.8708C190.702 93.6162 191.836 94.4433 192.979 95.6047C193.132 95.7568 193.286 95.9089 193.443 96.0657C193.944 96.5637 194.441 97.0649 194.938 97.5663C195.288 97.9159 195.637 98.2654 195.987 98.6148C196.717 99.3451 197.446 100.077 198.174 100.81C199.105 101.747 200.039 102.682 200.974 103.615C201.696 104.336 202.416 105.058 203.135 105.78C203.479 106.125 203.824 106.47 204.168 106.814C204.65 107.296 205.13 107.779 205.609 108.263C205.75 108.404 205.892 108.545 206.038 108.69C207.222 109.893 208.13 110.987 208.172 112.719C208.041 115.485 205.832 117.441 203.961 119.287C203.739 119.509 203.517 119.732 203.288 119.962C202.561 120.69 201.83 121.415 201.1 122.14C200.591 122.648 200.083 123.156 199.574 123.664C198.513 124.724 197.45 125.783 196.386 126.84C195.02 128.198 193.656 129.559 192.293 130.92C191.245 131.967 190.197 133.012 189.148 134.058C188.644 134.56 188.141 135.061 187.638 135.563C186.938 136.262 186.236 136.959 185.534 137.657C185.325 137.865 185.117 138.074 184.901 138.288C184.711 138.477 184.52 138.666 184.324 138.861C184.158 139.026 183.993 139.19 183.822 139.36C183.132 139.987 182.778 140.042 181.823 140.13C180.761 140.039 180.761 140.039 180.047 139.618C179.483 138.692 179.322 138.063 179.4 136.983C180.099 134.2 184.193 131.322 186.203 129.346C187.323 128.244 188.438 127.138 189.554 126.033C190.968 124.633 192.383 123.234 193.803 121.84C194.957 120.706 196.107 119.568 197.254 118.427C197.691 117.994 198.13 117.563 198.57 117.133C199.182 116.535 199.789 115.932 200.394 115.327C200.577 115.151 200.761 114.974 200.949 114.793C201.892 113.859 201.892 113.859 202.19 112.612C201.771 111.74 201.274 111.192 200.585 110.51C200.18 110.106 200.18 110.106 199.767 109.693C199.471 109.403 199.175 109.113 198.878 108.823C198.576 108.523 198.275 108.223 197.973 107.923C197.181 107.134 196.384 106.35 195.588 105.566C194.774 104.765 193.965 103.96 193.155 103.156C191.566 101.58 189.973 100.007 188.378 98.4372C187.489 98.8347 186.879 99.2796 186.196 99.9715C186.004 100.164 185.813 100.357 185.615 100.556C185.411 100.764 185.206 100.972 184.995 101.187C184.782 101.403 184.568 101.618 184.347 101.84C183.663 102.529 182.981 103.22 182.299 103.912C181.621 104.598 180.943 105.284 180.264 105.968C179.842 106.394 179.42 106.821 179 107.248C177.866 108.392 176.7 109.471 175.481 110.522C174.492 111.398 173.57 112.337 172.643 113.276C172.439 113.48 172.236 113.685 172.026 113.895C171.385 114.54 170.745 115.186 170.104 115.832C169.255 116.69 168.404 117.546 167.552 118.403C167.26 118.698 167.26 118.698 166.962 119C166.782 119.181 166.602 119.362 166.417 119.549C166.179 119.788 166.179 119.788 165.937 120.032C165.264 120.651 164.904 120.706 163.97 120.794C162.702 120.687 162.269 120.474 161.425 119.531C161.077 118.725 161.077 118.725 161.132 117.773C161.862 116.442 162.649 115.447 164.062 114.843C164.062 114.65 164.062 114.457 164.062 114.257C164.464 113.862 164.464 113.862 165.036 113.392C166.476 112.167 167.802 110.844 169.132 109.502C169.575 109.056 170.019 108.61 170.464 108.164C171.407 107.217 172.349 106.27 173.29 105.322C174.383 104.222 175.477 103.123 176.572 102.024C177.005 101.589 177.438 101.153 177.87 100.716C179.222 99.3601 180.583 98.0399 182.042 96.7997C182.475 96.4247 182.883 96.0222 183.288 95.6174C185.021 93.8844 186.633 92.3433 189.257 92.8708Z" fill="black"/>
<path d="M91.1133 209.179C92.0275 209.704 92.4462 210.129 92.981 211.028C93.2262 212.083 93.1334 212.817 92.8711 213.867C92.3369 214.659 91.9703 215.196 91.1133 215.624C89.7614 215.76 88.8746 215.843 87.7808 214.983C87.0373 214.187 86.6571 213.748 86.4258 212.695C86.4854 211.263 86.9152 210.507 87.8906 209.472C88.9058 208.964 90.0032 209.041 91.1133 209.179Z" fill="black"/>
</svg>
