<svg width="300" height="300" viewBox="0 0 300 300" fill="none" xmlns="http://www.w3.org/2000/svg">
<path d="M222.656 29.0039C222.656 29.2088 222.656 29.4137 222.655 29.6249C222.654 30.6252 222.654 31.6256 222.653 32.626C222.653 33.006 222.652 33.386 222.652 33.7775C222.651 36.0473 222.662 38.3166 222.688 40.5863C222.706 42.2604 222.711 43.9343 222.709 45.6084C222.708 46.6794 222.713 47.7496 222.732 48.8204C222.75 49.8848 222.752 50.9482 222.743 52.0126C222.742 52.5998 222.757 53.1869 222.773 53.7739C222.748 55.3732 222.691 56.422 221.678 57.7014C220.864 58.4501 220.033 59.1123 219.141 59.7656C218.596 60.2091 218.052 60.6543 217.511 61.1023C217.245 61.3172 216.979 61.5321 216.704 61.7535C215.934 62.3895 215.192 63.0476 214.453 63.7207C213.217 64.8464 211.939 65.9065 210.64 66.9594C208.374 68.8162 206.155 70.7291 203.998 72.7112C202.736 73.8682 201.434 74.9562 200.102 76.0311C199.059 76.8896 198.04 77.7737 197.022 78.6621C195.767 79.7561 194.507 80.8373 193.213 81.8848C191.364 83.3837 189.574 84.9487 187.78 86.5129C187.209 87.0099 186.636 87.505 186.063 87.9993C182.147 91.3587 182.147 91.3587 178.418 94.9219C180.758 93.4797 182.998 91.9262 185.223 90.3166C188.44 87.9918 191.689 85.7144 194.942 83.4417C196.173 82.5818 197.403 81.7205 198.633 80.8594C199.121 80.5176 199.609 80.1758 200.098 79.834C200.339 79.6648 200.581 79.4956 200.83 79.3213C203.027 77.7832 203.027 77.7832 203.76 77.2704C204.248 76.9291 204.735 76.5877 205.223 76.2464C206.454 75.3843 207.686 74.5225 208.918 73.661C210.142 72.8048 211.366 71.9479 212.589 71.0904C213.037 70.7768 213.484 70.4634 213.932 70.1503C217.633 67.5615 221.295 64.9184 224.889 62.1838C225.192 61.9538 225.494 61.7238 225.806 61.4868C226.058 61.2927 226.31 61.0986 226.57 60.8986C227.47 60.2623 228.438 59.7265 229.395 59.1797C229.395 67.6875 229.395 76.1953 229.395 84.9609C227.839 85.7386 226.357 86.4339 224.739 87.0312C224.521 87.1129 224.304 87.1946 224.079 87.2789C223.386 87.5389 222.691 87.7973 221.997 88.0554C214.445 90.8712 206.962 93.8645 199.478 96.858C198.428 97.2783 197.377 97.6979 196.325 98.1173C195.496 98.4485 194.666 98.7802 193.837 99.112C193.45 99.2669 193.062 99.4216 192.675 99.5762C190.053 100.622 187.453 101.709 184.863 102.832C189.125 102.649 193.354 102.244 197.596 101.805C198.302 101.734 199.007 101.662 199.713 101.59C201.553 101.403 203.394 101.214 205.234 101.025C208.193 100.721 211.152 100.419 214.111 100.118C215.142 100.012 216.173 99.9064 217.204 99.8002C217.833 99.736 218.461 99.6718 219.09 99.6076C219.376 99.5779 219.662 99.5482 219.957 99.5177C220.351 99.4776 220.351 99.4776 220.753 99.4368C220.98 99.4134 221.208 99.39 221.442 99.3659C222.041 99.3188 222.642 99.3164 223.242 99.3164C223.242 107.921 223.242 116.525 223.242 125.391C219.61 123.079 219.61 123.079 218.193 122.153C217.882 121.95 217.571 121.747 217.251 121.537C216.932 121.329 216.613 121.12 216.284 120.905C216.118 120.795 215.951 120.686 215.779 120.574C213.345 118.981 210.917 117.379 208.5 115.759C207.989 115.417 207.476 115.076 206.963 114.736C205.348 113.665 203.738 112.588 202.141 111.489C201.764 111.231 201.764 111.231 201.38 110.967C200.888 110.628 200.397 110.288 199.906 109.948C199.681 109.793 199.456 109.638 199.225 109.479C199.025 109.341 198.826 109.203 198.621 109.061C198.055 108.697 197.482 108.394 196.875 108.105C197.129 108.352 197.383 108.599 197.644 108.854C197.974 109.178 198.303 109.502 198.633 109.827C198.801 109.989 198.968 110.152 199.141 110.32C199.569 110.743 199.981 111.181 200.391 111.621C200.391 111.814 200.391 112.008 200.391 112.207C200.551 112.273 200.712 112.338 200.878 112.405C201.768 112.909 202.431 113.584 203.143 114.306C203.367 114.53 203.367 114.53 203.596 114.759C203.912 115.076 204.228 115.394 204.542 115.712C205.017 116.192 205.494 116.67 205.971 117.147C207.421 118.602 208.843 120.068 210.179 121.63C211.024 122.606 211.918 123.537 212.805 124.475C214.453 126.225 216.082 127.986 217.676 129.785C217.848 129.978 218.02 130.171 218.198 130.37C219.634 131.992 221 133.669 222.363 135.352C222.17 135.448 221.977 135.545 221.777 135.645C221.096 135.335 221.096 135.335 220.237 134.846C219.918 134.666 219.599 134.486 219.27 134.301C218.922 134.102 218.574 133.903 218.225 133.704C217.687 133.399 217.148 133.096 216.608 132.792C216.24 132.584 215.871 132.377 215.503 132.169C213.719 131.162 211.918 130.188 210.114 129.218C208.025 128.091 205.951 126.947 203.896 125.761C196.895 121.741 189.777 117.909 182.606 114.204C181.383 113.571 180.172 112.939 179.004 112.207C180.025 113.279 181.062 114.139 182.282 114.99C182.648 115.248 183.014 115.506 183.38 115.764C183.574 115.9 183.767 116.035 183.966 116.175C185.022 116.92 186.069 117.676 187.116 118.433C187.336 118.592 187.557 118.751 187.784 118.915C191.319 121.473 194.835 124.059 198.313 126.693C199.402 127.516 200.502 128.318 201.616 129.107C201.872 129.289 202.128 129.472 202.392 129.661C202.891 130.018 203.393 130.371 203.898 130.721C204.124 130.883 204.35 131.045 204.583 131.212C204.885 131.425 204.885 131.425 205.194 131.642C206.192 132.676 205.993 134.231 205.99 135.589C205.99 135.783 205.99 135.978 205.991 136.178C205.99 136.817 205.988 137.456 205.986 138.095C205.985 138.539 205.985 138.984 205.984 139.428C205.983 140.595 205.98 141.762 205.977 142.929C205.974 144.121 205.973 145.313 205.971 146.506C205.968 148.842 205.963 151.179 205.957 153.516C205.078 153.516 205.078 153.516 204.306 152.819C204.006 152.51 203.708 152.199 203.412 151.886C203.095 151.56 202.777 151.234 202.459 150.909C202.305 150.751 202.15 150.593 201.992 150.431C201.294 149.73 200.552 149.088 199.799 148.447C199.123 147.867 198.467 147.268 197.809 146.667C196.794 145.751 195.76 144.872 194.696 144.012C193.582 143.111 192.51 142.181 191.455 141.211C190.169 140.029 188.845 138.915 187.486 137.818C186.494 137.005 185.523 136.171 184.552 135.333C183.187 134.157 181.808 133.007 180.394 131.889C179.358 131.066 178.329 130.234 177.301 129.401C177 129.157 177 129.157 176.694 128.908C175.393 127.849 174.108 126.773 172.833 125.684C171.611 124.639 170.376 123.653 169.043 122.754C169.188 122.913 169.332 123.072 169.481 123.236C169.763 123.55 169.763 123.55 170.05 123.871C170.237 124.078 170.424 124.286 170.617 124.499C171.094 125.098 171.094 125.098 171.387 125.977C171.58 125.977 171.774 125.977 171.973 125.977C172.402 126.408 172.402 126.408 172.899 127.003C173.963 128.255 175.072 129.453 176.202 130.646C176.615 131.082 177.027 131.519 177.44 131.955C177.649 132.177 177.859 132.398 178.075 132.627C178.703 133.292 179.329 133.96 179.955 134.628C180.358 135.059 180.761 135.489 181.165 135.919C181.359 136.127 181.553 136.334 181.753 136.547C183.086 137.964 184.448 139.342 185.852 140.688C186.328 141.211 186.328 141.211 186.328 141.797C186.522 141.797 186.715 141.797 186.914 141.797C187.338 142.227 187.338 142.227 187.83 142.822C188.736 143.891 189.689 144.88 190.696 145.854C190.898 146.062 191.101 146.27 191.309 146.484C191.453 146.595 191.598 146.705 191.747 146.819C192.687 147.657 193.033 148.312 193.221 149.569C193.293 150.893 193.264 152.217 193.238 153.542C193.235 154.032 193.232 154.521 193.231 155.011C193.224 156.295 193.207 157.578 193.187 158.862C193.169 160.174 193.161 161.485 193.152 162.797C193.134 165.368 193.104 167.938 193.067 170.508C191.458 168.906 191.458 168.906 190.749 168.083C190.6 167.91 190.451 167.738 190.297 167.56C190.142 167.379 189.986 167.197 189.826 167.01C189.66 166.819 189.494 166.627 189.324 166.429C188.813 165.836 188.303 165.242 187.793 164.648C187.488 164.293 187.182 163.938 186.876 163.583C185.727 162.245 184.579 160.907 183.444 159.557C181.94 157.767 180.406 156.018 178.823 154.296C178.148 153.542 177.512 152.768 176.88 151.978C175.626 150.422 174.273 148.978 172.9 147.528C171.643 146.193 170.482 144.815 169.338 143.382C168.61 142.507 167.812 141.73 166.996 140.939C166.344 140.267 165.764 139.561 165.18 138.831C163.964 137.315 162.669 135.894 161.336 134.483C160.252 133.333 159.234 132.16 158.203 130.957C158.107 139.852 158.01 148.746 157.91 157.91C158.297 158.007 158.684 158.104 159.082 158.203C159.654 158.667 159.654 158.667 160.258 159.275C160.486 159.502 160.714 159.729 160.949 159.963C161.193 160.21 161.437 160.458 161.688 160.713C161.942 160.967 162.195 161.221 162.456 161.483C162.994 162.022 163.53 162.562 164.065 163.103C164.878 163.926 165.695 164.746 166.512 165.565C167.034 166.089 167.556 166.615 168.078 167.14C168.32 167.383 168.562 167.626 168.812 167.877C170.048 169.128 171.236 170.401 172.383 171.733C173.083 172.528 173.827 173.272 174.582 174.014C174.737 174.168 174.892 174.322 175.051 174.48C175.538 174.963 176.026 175.446 176.514 175.928C180.137 179.507 180.137 179.507 181.707 181.348C182.843 182.627 184.085 183.809 185.303 185.01C186.915 186.599 188.499 188.186 189.971 189.906C190.672 190.706 191.427 191.446 192.188 192.188C193.337 193.321 194.43 194.475 195.477 195.705C196.111 196.418 196.783 197.084 197.461 197.754C198.696 198.978 199.852 200.237 200.977 201.562C201.544 202.228 202.111 202.893 202.68 203.558C202.907 203.826 202.907 203.826 203.14 204.099C204.061 205.176 205.006 206.223 205.975 207.257C210.681 212.423 214.159 218.116 213.957 225.285C213.877 226.732 213.541 228.056 212.988 229.395C212.795 229.298 212.602 229.201 212.402 229.102C212.256 228.605 212.256 228.605 212.151 227.956C212.109 227.717 212.067 227.477 212.024 227.231C211.98 226.972 211.935 226.713 211.89 226.447C210.814 220.678 208.457 215.83 204.785 211.23C204.581 210.973 204.376 210.715 204.165 210.449C200.735 206.196 197.114 202.047 193.22 198.212C192.528 197.526 191.878 196.821 191.246 196.08C190.139 194.809 188.964 193.619 187.766 192.435C187.546 192.216 187.326 191.997 187.099 191.772C186.404 191.08 185.707 190.388 185.01 189.697C184.09 188.786 183.172 187.873 182.254 186.96C182.047 186.755 181.84 186.55 181.626 186.339C180.456 185.174 179.341 183.98 178.266 182.726C177.712 182.088 177.12 181.497 176.514 180.908C175.503 179.911 174.561 178.88 173.637 177.802C173 177.083 172.319 176.417 171.634 175.745C171.111 175.212 170.62 174.664 170.133 174.098C169.109 172.921 168.059 171.773 166.992 170.636C166.806 170.438 166.621 170.239 166.429 170.035C164.417 167.9 162.341 165.83 160.254 163.77C161.334 165.219 162.428 166.655 163.55 168.073C164.71 169.544 165.861 171.023 167 172.511C167.701 173.424 168.405 174.333 169.115 175.239C171.415 178.175 173.652 181.15 175.852 184.16C176.37 184.867 176.891 185.572 177.413 186.277C205.366 224 205.366 224 202.545 244.496C201.519 250.547 199.117 256.35 195.117 261.035C194.926 261.269 194.734 261.503 194.537 261.744C192.352 264.311 189.72 266.224 186.914 268.066C186.721 267.97 186.527 267.873 186.328 267.773C186.509 267.588 186.69 267.403 186.876 267.213C192.76 260.998 196.196 252.839 196.124 244.244C196.122 243.864 196.12 243.484 196.118 243.093C195.797 223.961 185.348 206.148 175.31 190.484C174.913 189.86 174.521 189.234 174.131 188.605C172.164 185.445 170.117 182.34 168.054 179.242C167.914 179.03 167.773 178.818 167.628 178.6C167.219 177.985 166.81 177.371 166.399 176.757C166.279 176.576 166.158 176.394 166.034 176.207C165.129 174.858 164.168 173.557 163.184 172.266C163.272 172.425 163.36 172.585 163.451 172.749C165.783 176.969 168.022 181.228 170.178 185.541C170.33 185.845 170.482 186.148 170.639 186.461C173.258 191.706 175.666 196.995 177.832 202.441C177.964 202.767 178.095 203.093 178.231 203.429C182.209 213.302 185.649 223.471 186.914 234.082C186.971 234.501 186.971 234.501 187.03 234.929C187.921 242.491 187.221 251.186 182.43 257.433C181.543 258.502 180.584 259.481 179.59 260.449C179.297 260.742 179.297 260.742 178.997 261.04C173.846 265.865 164.976 269.531 157.91 269.531C157.91 269.338 157.91 269.145 157.91 268.945C158.199 268.816 158.489 268.686 158.786 268.552C159.881 268.061 160.973 267.566 162.066 267.071C162.535 266.859 163.004 266.648 163.474 266.437C170.581 263.249 178.008 259.502 181.007 251.82C181.167 251.372 181.324 250.922 181.476 250.47C181.545 250.266 181.613 250.063 181.684 249.853C182.747 246.444 182.923 242.978 182.904 239.429C182.904 239.218 182.903 239.008 182.902 238.791C182.846 226.947 179.986 204.009 171.094 195.117C171.128 195.36 171.162 195.604 171.197 195.854C171.325 196.78 171.452 197.705 171.578 198.631C171.659 199.219 171.741 199.808 171.823 200.396C172.463 205.109 172.629 209.776 172.632 214.526C172.632 214.81 172.632 215.094 172.633 215.386C172.625 222.368 171.952 229.06 170.215 235.84C170.15 236.092 170.086 236.345 170.019 236.605C167.572 245.923 162.705 253.546 156.445 260.742C156.445 259.572 156.994 258.88 157.599 257.922C163.009 249.097 166.895 239.364 168.457 229.102C168.511 228.759 168.565 228.416 168.621 228.062C169.178 224.051 169.147 220.035 169.135 215.991C169.134 215.619 169.134 215.247 169.133 214.864C169.12 209.496 169.011 204.236 168.164 198.926C168.108 198.561 168.051 198.196 167.993 197.82C167.419 194.146 166.77 190.511 165.82 186.914C165.829 187.114 165.838 187.314 165.847 187.52C166.502 202.55 165.469 218.116 154.876 229.867C151.869 233.012 148.326 235.525 144.727 237.946C144.511 238.091 144.296 238.235 144.074 238.385C142.958 239.121 141.835 239.797 140.65 240.416C138.401 241.472 138.401 241.472 136.768 243.216C136.737 244.043 136.906 244.704 137.109 245.508C137.169 245.923 137.223 246.339 137.273 246.755C138.098 253.31 140.353 259.441 143.949 264.993C144.224 265.422 144.478 265.864 144.727 266.309C144.63 266.502 144.533 266.695 144.434 266.895C138.502 260.667 133.589 253.781 131.836 245.215C127.645 246.781 124.467 248.428 122.499 252.607C121.001 256.282 121.657 260.951 123.047 264.551C123.358 265.278 123.676 265.992 124.032 266.698C124.094 266.859 124.155 267.021 124.219 267.188C124.122 267.381 124.025 267.574 123.926 267.773C120.279 264.329 116.354 260.525 116.162 255.212C116.306 250.919 118.328 247.291 121.42 244.371C123.944 242.275 128.413 239.355 131.836 239.355C131.818 239.059 131.8 238.763 131.781 238.458C131.812 229.626 137.16 221.737 143.134 215.735C143.369 215.505 143.605 215.276 143.848 215.039C141.961 215.961 140.101 216.932 138.245 217.914C136.509 218.832 134.767 219.734 133.008 220.605C132.226 220.995 131.445 221.386 130.664 221.777C130.441 221.889 130.217 222.001 129.986 222.116C123.079 225.585 116.171 230.165 113.086 237.598C113.086 237.888 113.086 238.178 113.086 238.477C112.893 238.477 112.699 238.477 112.5 238.477C111.442 242.22 110.626 245.807 110.394 249.701C110.37 250.061 110.346 250.421 110.322 250.792C110.264 251.667 110.209 252.542 110.156 253.418C108.866 251.783 108.408 249.817 107.813 247.852C107.717 247.548 107.622 247.245 107.523 246.933C106.182 242.072 106.498 237.15 108.97 232.751C113.635 224.872 121.036 220.559 129.381 217.466C134.035 215.739 137.887 213.757 141.797 210.645C141.982 210.498 142.167 210.351 142.358 210.199C143.479 209.307 144.597 208.411 145.711 207.51C146.254 207.079 146.807 206.664 147.363 206.25C146.934 206.378 146.504 206.507 146.075 206.636C145.806 206.716 145.537 206.797 145.26 206.88C144.522 207.102 143.785 207.33 143.049 207.558C135.836 209.755 128.578 210.323 121.098 210.848C109.277 211.674 109.277 211.674 99.3165 217.676C95.5801 222.253 94.3254 227.149 93.7501 232.91C92.266 231.426 92.1156 227.938 91.9923 225.879C91.9734 225.568 91.9545 225.257 91.9351 224.936C91.7626 219.463 93.2714 214.736 96.9728 210.645C97.6198 209.999 98.289 209.43 99.0235 208.887C99.2734 208.699 99.2734 208.699 99.5282 208.507C103.664 205.662 108.654 205.271 113.517 205.336C114.209 205.345 114.902 205.35 115.595 205.354C117.562 205.365 119.53 205.384 121.497 205.405C136.504 205.779 136.504 205.779 150 200.098C150.193 200.098 150.387 200.098 150.586 200.098C150.67 199.927 150.754 199.757 150.84 199.581C151.143 198.982 151.463 198.399 151.796 197.817C151.911 197.613 152.027 197.409 152.146 197.199C152.389 196.774 152.631 196.349 152.874 195.925C152.99 195.721 153.105 195.518 153.224 195.308C153.329 195.124 153.434 194.94 153.543 194.75C154.016 193.84 154.138 193.098 154.137 192.091C154.137 191.83 154.138 191.57 154.138 191.301C154.137 191.014 154.136 190.728 154.135 190.433C154.135 189.976 154.135 189.976 154.135 189.511C154.135 188.486 154.133 187.462 154.13 186.438C154.13 185.706 154.129 184.973 154.129 184.241C154.128 182.662 154.126 181.082 154.124 179.503C154.12 177.219 154.118 174.935 154.117 172.651C154.115 168.945 154.112 165.238 154.108 161.532C154.107 161.31 154.107 161.088 154.107 160.86C154.105 159.285 154.103 157.709 154.102 156.134C154.1 154.334 154.098 152.534 154.096 150.734C154.095 150.513 154.095 150.291 154.095 150.062C154.091 146.37 154.088 142.677 154.086 138.985C154.085 136.705 154.082 134.426 154.079 132.147C154.076 130.402 154.075 128.658 154.074 126.913C154.073 126.196 154.072 125.479 154.071 124.761C154.069 123.786 154.068 122.81 154.068 121.835C154.067 121.548 154.066 121.26 154.065 120.964C154.066 120.705 154.066 120.445 154.066 120.177C154.066 119.839 154.066 119.839 154.066 119.494C154.102 118.945 154.102 118.945 154.395 118.359C158.976 118.107 163.54 118.029 168.128 118.048C168.762 118.05 169.396 118.051 170.03 118.052C171.556 118.055 173.083 118.06 174.609 118.066C174.606 117.785 174.606 117.785 174.602 117.497C174.544 112.92 174.5 108.342 174.473 103.764C174.459 101.55 174.441 99.3364 174.411 97.1226C174.384 95.1923 174.367 93.2621 174.361 91.3315C174.358 90.3099 174.35 89.2889 174.331 88.2675C174.309 87.125 174.309 85.983 174.31 84.8403C174.301 84.5046 174.291 84.1689 174.281 83.823C174.303 81.953 174.557 81.004 175.899 79.6591C176.345 79.2744 176.794 78.8928 177.246 78.5156C177.73 77.9854 178.158 77.4339 178.601 76.8677C179.496 75.7502 180.417 74.7234 181.445 73.7286C182.14 73.0365 182.773 72.2957 183.413 71.553C184.081 70.7875 184.764 70.0373 185.449 69.2871C186.283 68.3733 187.111 67.4568 187.921 66.5222C188.789 65.5234 189.68 64.5475 190.576 63.5742C192.741 61.2851 192.741 61.2851 194.696 58.8226C194.905 58.5643 194.905 58.5643 195.117 58.3008C195.311 58.3008 195.504 58.3008 195.703 58.3008C195.781 58.1271 195.858 57.9533 195.938 57.7744C196.302 57.1054 196.671 56.697 197.223 56.1768C197.928 55.4918 198.598 54.7993 199.237 54.0527C200.273 52.8501 201.356 51.6943 202.442 50.5371C204.004 48.8747 204.004 48.8747 205.518 47.168C206.51 46.0138 207.553 44.9088 208.594 43.7988C209.806 42.5066 211.004 41.2094 212.16 39.8666C213.048 38.8574 213.966 37.8764 214.88 36.8905C215.776 35.9221 216.666 34.9486 217.548 33.9661C217.754 33.7368 217.96 33.5076 218.173 33.2714C218.537 32.8656 218.901 32.4596 219.264 32.0525C219.704 31.5598 220.145 31.0691 220.587 30.5786C220.726 30.4222 220.865 30.2659 221.007 30.1048C222.004 29.0039 222.004 29.0039 222.656 29.0039ZM157.91 178.711C157.909 178.882 157.907 179.052 157.905 179.228C157.886 181.025 157.861 182.822 157.833 184.619C157.824 185.287 157.815 185.955 157.809 186.624C157.761 191.216 157.582 195.391 155.823 199.695C155.158 201.33 155.158 201.33 154.688 203.027C157.683 200.902 159.155 196.744 159.867 193.266C160.362 190.344 160.343 187.792 159.723 184.9C159.67 184.645 159.617 184.39 159.563 184.127C159.179 182.302 158.744 180.496 158.203 178.711C158.107 178.711 158.01 178.711 157.91 178.711ZM162.598 193.359C162.534 193.654 162.469 193.948 162.403 194.251C161.319 199.008 159.416 203.218 156.056 206.819C155.904 206.983 155.752 207.146 155.596 207.315C154.427 208.564 153.223 209.774 152.003 210.973C151.735 211.237 151.735 211.237 151.461 211.505C150.731 212.223 149.999 212.94 149.263 213.653C145.996 216.823 143.232 220.12 141.138 224.194C141.017 224.426 140.897 224.659 140.773 224.898C139.005 228.407 137.109 233.028 137.109 237.012C139.715 236.267 142.044 235.042 144.434 233.789C144.614 233.696 144.795 233.604 144.981 233.509C153.45 229.139 158.115 221.535 161.023 212.705C162.505 207.983 163.241 203.211 163.22 198.267C163.221 197.987 163.223 197.708 163.224 197.42C163.222 196.033 163.179 194.723 162.891 193.359C162.794 193.359 162.697 193.359 162.598 193.359ZM154.395 203.027C154.395 203.906 154.395 203.906 154.395 203.906V203.027Z" fill="black"/>
<path d="M156.739 51.5625C157.029 51.7075 157.029 51.7075 157.325 51.8555C158.117 55.5737 156.564 58.9532 154.688 62.1094C154.054 62.9483 153.388 63.718 152.637 64.4531C157.802 63.5858 163.747 60.5966 167.307 56.7684C167.872 56.25 167.872 56.25 168.75 56.25C167.709 61.9945 164.397 66.4685 159.687 69.8547C157.275 71.5118 154.539 73.1943 151.758 74.1211C151.687 77.2735 151.895 80.3453 152.216 83.4778C152.253 83.849 152.253 83.849 152.292 84.2277C153.355 99.4931 153.355 99.4931 157.642 113.953C157.911 114.551 157.911 114.551 157.911 115.43C156.557 115.43 155.204 115.43 153.809 115.43C153.338 113.67 153.019 111.926 152.759 110.124C152.716 109.836 152.674 109.548 152.63 109.252C152.538 108.628 152.447 108.005 152.356 107.382C152.21 106.383 152.062 105.384 151.915 104.385C151.494 101.545 151.077 98.705 150.661 95.8647C150.356 93.7858 150.049 91.7073 149.741 89.629C149.691 89.2909 149.64 88.9528 149.589 88.6045C148.676 82.484 147.635 76.3926 146.485 70.3125C146.659 75.035 147.104 79.7136 147.612 84.4105C147.713 85.3472 147.81 86.2842 147.908 87.2211C147.97 87.8069 148.033 88.3926 148.096 88.9783C148.14 89.3967 148.184 89.8152 148.228 90.2338C148.515 92.986 148.853 95.725 149.26 98.4623C151.266 112.021 151.468 125.382 151.341 139.071C151.314 142.031 151.302 144.991 151.29 147.95C151.266 154.005 151.225 160.059 151.172 166.113C148.913 164.834 148.913 164.834 148.04 164.117C147.856 163.967 147.673 163.818 147.483 163.663C147.293 163.505 147.102 163.347 146.906 163.184C146.703 163.017 146.5 162.849 146.291 162.677C145.67 162.165 145.051 161.649 144.434 161.133C144.251 160.98 144.068 160.827 143.88 160.669C139.131 156.68 134.519 152.533 130.665 147.656C130.462 147.412 130.26 147.168 130.052 146.916C124.423 140.077 121.562 132.507 122.168 123.633C122.385 121.829 122.821 120.097 123.34 118.359C123.397 118.166 123.453 117.972 123.512 117.773C126.363 108.303 131.743 99.4452 136.903 91.0759C137.068 90.7982 137.233 90.5205 137.403 90.2344C137.602 89.947 137.602 89.947 137.805 89.6539C138.586 88.4454 138.997 87.614 138.765 86.1651C138.643 85.6529 138.511 85.1431 138.37 84.6359C138.303 84.3635 138.236 84.0911 138.167 83.8104C137.952 82.9462 137.724 82.0861 137.494 81.2256C137.273 80.3603 137.055 79.4944 136.838 78.6282C136.702 78.0911 136.564 77.5546 136.422 77.019C136.114 75.835 135.842 74.7708 135.938 73.5352C135.165 73.6318 134.391 73.7285 133.594 73.8281C133.828 75.0411 134.063 76.2541 134.297 77.467C134.376 77.8774 134.456 78.2879 134.535 78.6984C134.612 79.097 134.689 79.4956 134.766 79.8942C134.843 80.296 134.92 80.698 134.995 81.1002C135.185 82.1089 135.396 83.1029 135.657 84.0958C136.458 87.247 136.458 87.247 135.702 88.7478C135.415 89.1846 135.114 89.6129 134.803 90.033C134.471 90.53 134.141 91.0279 133.812 91.5264C133.634 91.7882 133.456 92.0499 133.272 92.3196C132.26 93.8537 131.357 95.4514 130.445 97.0459C130.256 97.3736 130.067 97.7012 129.873 98.0388C128.595 100.27 127.383 102.515 126.28 104.838C125.925 105.577 125.559 106.311 125.193 107.045C120.57 116.395 117.627 125.761 120.722 136.047C123.63 144.255 129.36 150.757 135.407 156.83C135.736 157.161 135.736 157.161 136.071 157.498C137.444 158.867 138.86 160.165 140.333 161.426C140.615 161.674 140.897 161.921 141.189 162.177C143.823 164.448 146.593 166.524 149.39 168.591C149.591 168.74 149.793 168.889 150 169.043C150.214 169.189 150.427 169.335 150.647 169.486C151.172 169.922 151.172 169.922 151.465 170.801C151.485 171.307 151.49 171.814 151.484 172.321C151.481 172.585 151.478 172.849 151.476 173.12C151.471 173.422 151.471 173.422 151.465 173.73C149.809 172.853 148.427 171.807 146.998 170.599C146.78 170.419 146.563 170.238 146.339 170.052C145.368 169.243 144.4 168.429 143.435 167.612C143.154 167.378 142.874 167.143 142.585 166.901C142.344 166.696 142.104 166.492 141.856 166.282C141.199 165.811 140.833 165.624 140.04 165.527C139.512 165.783 139.512 165.783 139.034 166.219C138.845 166.375 138.657 166.531 138.463 166.692C138.264 166.864 138.066 167.035 137.861 167.212C137.653 167.386 137.446 167.56 137.232 167.739C136.602 168.268 135.977 168.801 135.352 169.336C135.005 169.629 134.658 169.922 134.311 170.215C133.684 170.743 133.059 171.274 132.435 171.806C131.316 172.751 130.178 173.672 129.035 174.589C128.266 175.242 127.566 175.944 126.856 176.66C127.151 176.744 127.447 176.828 127.751 176.915C128.859 177.231 129.968 177.547 131.076 177.864C131.553 178 132.031 178.136 132.508 178.272C132.739 178.338 132.97 178.403 133.207 178.471C133.436 178.536 133.664 178.601 133.899 178.668C134.57 178.86 135.24 179.054 135.91 179.247C136.627 179.454 137.343 179.651 138.065 179.84C138.324 179.909 138.584 179.979 138.852 180.051C139.065 180.105 139.279 180.16 139.5 180.215C140.225 180.556 140.515 180.955 140.918 181.641C140.918 183.421 140.334 184.216 139.161 185.449C138.967 185.353 138.774 185.256 138.575 185.156C138.575 184.383 138.575 183.609 138.575 182.812C138.301 182.769 138.301 182.769 138.022 182.726C134.972 182.232 131.94 181.64 128.907 181.055C129.234 181.381 129.234 181.381 129.567 181.714C130.035 182.182 130.501 182.652 130.966 183.124C131.853 184.024 132.732 184.899 133.722 185.687C134.669 186.495 134.738 186.958 134.876 188.177C134.729 189.624 134.343 190.021 133.301 191.016C132.665 191.21 132.665 191.21 132.129 191.309C132.33 190.746 132.53 190.183 132.73 189.621C132.783 188.897 132.783 188.897 132.126 188.277C131.837 188.021 131.548 187.764 131.25 187.5C130.919 187.185 130.589 186.869 130.259 186.552C128.306 184.712 126.342 182.922 124.241 181.252C123.633 180.762 123.633 180.762 123.047 180.176C121.881 180.244 121.248 180.961 120.429 181.732C119.679 182.434 118.944 183.107 118.129 183.733C117.413 184.216 117.413 184.216 117.353 184.991C117.188 185.742 117.188 185.742 116.309 186.438C115.35 187.134 115.35 187.134 115.156 188.214C115.138 189.197 115.22 190.057 115.43 191.016C114.673 190.728 114.281 190.457 113.764 189.825C112.935 187.97 112.89 186.096 113.532 184.167C114.735 182.034 117.061 180.499 118.946 179.004C118.446 178.504 117.77 178.572 117.086 178.49C116.77 178.451 116.454 178.413 116.128 178.373C115.628 178.314 115.628 178.314 115.119 178.253C114.785 178.213 114.451 178.172 114.107 178.13C113.278 178.03 112.45 177.93 111.622 177.832C110.662 179.251 110.662 179.251 109.864 180.762C109.015 179.95 108.716 179.55 108.6 178.345C108.709 177.047 109.034 176.479 109.864 175.488C112.231 173.889 117.174 175.401 119.866 175.776C120.143 175.815 120.42 175.853 120.706 175.892C120.953 175.927 121.199 175.962 121.453 175.998C123.055 176.203 123.055 176.203 124.432 175.462C124.718 175.187 125.001 174.909 125.281 174.628C125.593 174.328 125.906 174.028 126.22 173.729C126.454 173.505 126.454 173.505 126.693 173.276C127.342 172.672 128.029 172.121 128.724 171.57C130.197 170.385 131.57 169.116 132.943 167.818C134.282 166.56 135.674 165.414 137.135 164.298C137.32 164.124 137.505 163.949 137.696 163.77C137.797 162.856 137.797 162.856 137.112 162.285C136.833 162.044 136.555 161.803 136.268 161.554C132.678 158.369 129.172 155.004 126.27 151.172C125.989 150.814 125.707 150.457 125.425 150.1C123.376 147.471 121.619 144.774 120.118 141.797C120.021 141.607 119.925 141.416 119.826 141.22C117.523 136.575 116.66 132.02 116.895 126.855C116.728 127.076 116.56 127.297 116.388 127.524C114.504 129.996 112.56 132.415 110.591 134.82C110.213 135.282 109.838 135.746 109.462 136.211C107.758 138.315 105.988 140.358 104.209 142.398C102.18 144.725 100.156 147.056 98.1633 149.414C97.9648 149.649 97.9648 149.649 97.7622 149.889C97.207 150.546 96.6527 151.205 96.0999 151.864C95.7135 152.322 95.3192 152.774 94.9224 153.223C94.8257 153.223 94.729 153.223 94.6294 153.223C94.4792 150.353 94.3651 147.484 94.2954 144.611C94.262 143.277 94.2167 141.945 94.1432 140.612C93.6815 132.022 93.6815 132.022 95.2383 129.792C96.7191 128.418 98.3816 127.616 100.254 126.901C101.551 126.366 102.677 125.6 103.84 124.823C104.293 124.535 104.747 124.249 105.201 123.964C107.392 122.573 109.565 121.156 111.73 119.727C112.784 119.034 113.847 118.364 114.928 117.715C115.168 117.567 115.408 117.418 115.656 117.265C116.096 116.993 116.542 116.728 116.992 116.472C118.887 115.282 119.384 113.666 120.118 111.621C120.355 111.046 120.596 110.473 120.842 109.902C120.964 109.616 121.087 109.331 121.213 109.036C122.886 105.178 124.758 101.495 126.856 97.8516C126.954 97.6806 127.053 97.5097 127.154 97.3336C127.917 96.0085 128.685 94.6861 129.456 93.3655C129.562 93.1843 129.667 93.0031 129.776 92.8164C130.759 91.1352 131.739 89.4748 132.882 87.8963C133.427 87.0864 133.591 86.8174 133.627 85.8192C133.211 84.7239 132.729 83.6909 132.184 82.6538C131.981 82.2578 131.778 81.8619 131.574 81.4659C131.257 80.8513 130.939 80.237 130.619 79.6231C130.512 79.414 130.405 79.2049 130.295 78.9894C130.148 78.7055 130.148 78.7055 129.999 78.4159C129.786 77.9297 129.786 77.9297 129.786 77.3438C128.718 77.3265 127.649 77.3163 126.581 77.3071C126.132 77.2998 126.132 77.2998 125.674 77.2923C123.007 77.2752 120.807 77.4448 118.653 79.1016C118.493 77.6077 118.521 76.7621 119.422 75.531C121.672 72.8441 124.35 71.5922 127.735 70.8984C128.122 70.8984 128.508 70.8984 128.907 70.8984C128.981 70.7302 129.054 70.562 129.13 70.3887C131.287 66.4471 135.961 63.2256 139.747 60.9375C139.961 60.8065 140.175 60.6756 140.395 60.5407C146.478 56.8359 146.478 56.8359 147.657 56.8359C146.595 59.2846 144.048 60.9951 142.022 62.6198C140.972 63.4765 139.972 64.3809 138.971 65.2931C138.327 65.8767 137.675 66.4483 137.018 67.0166C136.348 67.5977 135.71 68.1896 135.096 68.8293C134.473 69.4336 134.473 69.4336 133.887 69.4336C133.887 69.627 133.887 69.8203 133.887 70.0195C143.074 66.1923 151.73 62.5042 156.153 53.0273C156.352 52.5408 156.549 52.053 156.739 51.5625Z" fill="black"/>
<path d="M76.1719 29.2969C76.5008 29.5739 76.8291 29.8518 77.1571 30.13C77.3399 30.2847 77.5228 30.4393 77.7112 30.5986C78.3671 31.1835 78.8947 31.8246 79.4312 32.5195C80.5013 33.8628 81.6253 35.1307 82.8003 36.3831C83.9657 37.6254 85.1176 38.8727 86.2312 40.1619C86.8136 40.8317 87.4064 41.4915 88.0005 42.1509C88.2233 42.3982 88.4461 42.6456 88.6757 42.9005C89.1216 43.3936 89.5686 43.8858 90.0169 44.3768C91.1278 45.5979 92.2041 46.8324 93.2373 48.1201C94.6027 49.8089 96.0755 51.3834 97.5597 52.9667C98.8421 54.3351 100.064 55.7512 101.279 57.1793C101.577 57.5288 101.875 57.8782 102.173 58.2275C102.323 58.4033 102.473 58.5791 102.627 58.7603C103.886 60.2286 105.184 61.6554 106.502 63.0707C106.861 63.465 106.861 63.465 107.227 63.8672C107.605 64.2603 107.605 64.2603 107.992 64.6614C108.819 65.6652 108.881 66.4696 108.895 67.7762C108.901 68.0915 108.901 68.0915 108.908 68.4131C108.92 69.1142 108.921 69.8148 108.923 70.516C108.929 71.02 108.936 71.524 108.943 72.0279C108.961 73.3947 108.97 74.7615 108.975 76.1284C108.979 76.983 108.984 77.8376 108.99 78.6922C109.011 81.6757 109.022 84.6591 109.027 87.6426C109.032 90.4208 109.058 93.1982 109.093 95.9761C109.122 98.3637 109.136 100.751 109.137 103.139C109.138 104.564 109.146 105.988 109.17 107.413C109.192 108.754 109.195 110.094 109.182 111.435C109.181 111.926 109.187 112.417 109.2 112.907C109.292 116.506 109.292 116.506 108.296 117.636C107.324 118.448 106.256 119.024 105.117 119.565C104.281 119.976 103.511 120.477 102.724 120.975C102.089 121.361 101.454 121.747 100.818 122.131C100.647 122.235 100.475 122.339 100.299 122.446C93.5673 126.524 86.7881 130.523 79.9805 134.473C79.9805 133.21 80.7347 132.623 81.5369 131.726C81.862 131.355 82.187 130.984 82.5119 130.613C82.6771 130.425 82.8424 130.237 83.0126 130.044C83.7274 129.228 84.427 128.399 85.1257 127.57C85.3908 127.256 85.656 126.942 85.9211 126.629C86.4629 125.987 87.0037 125.345 87.5439 124.702C89.1864 122.749 90.8606 120.833 92.5781 118.945C93.0056 118.469 93.4328 117.993 93.8599 117.517C94.8311 116.438 95.8082 115.364 96.7896 114.294C96.9226 114.149 97.0556 114.004 97.1927 113.855C97.9095 113.073 98.628 112.294 99.3484 111.516C99.4963 111.356 99.6442 111.195 99.7966 111.03C100.081 110.722 100.367 110.414 100.652 110.107C101.388 109.314 101.388 109.314 101.953 108.398C101.493 108.714 101.493 108.714 101.024 109.036C95.3015 112.958 89.5708 116.869 83.7891 120.703C83.2123 121.087 82.6357 121.472 82.0593 121.856C81.6818 122.108 81.3041 122.359 80.9263 122.611C80.1325 123.139 79.3408 123.67 78.5534 124.207C78.3174 124.368 78.0813 124.529 77.8381 124.695C77.6399 124.832 77.4416 124.968 77.2373 125.109C76.7578 125.391 76.7578 125.391 76.1719 125.391C76.1719 116.786 76.1719 108.182 76.1719 99.3164C77.0332 98.8858 77.6666 99.1033 78.6165 99.2359C78.9034 99.2751 78.9034 99.2751 79.1961 99.3152C79.8343 99.4031 80.4721 99.4936 81.11 99.5842C81.5603 99.6469 82.0106 99.7095 82.461 99.772C83.4126 99.9044 84.364 100.038 85.3153 100.173C86.5053 100.341 87.6956 100.507 88.8861 100.672C94.9154 101.509 100.929 102.419 106.934 103.418C106.79 103.335 106.646 103.252 106.497 103.166C104.178 101.826 101.875 100.474 99.646 98.9868C99.483 98.8783 99.32 98.7698 99.1521 98.6579C98.3784 98.1355 97.6238 97.611 96.8956 97.0257C94.4932 95.1403 91.9141 94.1044 89.0991 92.9993C88.598 92.7986 88.0972 92.5974 87.5964 92.3959C86.5594 91.9792 85.5215 91.5648 84.4827 91.1526C82.1944 90.244 79.9121 89.3205 77.63 88.3962C76.9376 88.1164 76.2445 87.8382 75.5512 87.5604C75.1237 87.3882 74.6962 87.216 74.2687 87.0438C74.08 86.9686 73.8912 86.8934 73.6968 86.8159C72.3254 86.2614 71.061 85.6282 69.7266 84.9609C69.7266 76.5498 69.7266 68.1387 69.7266 59.4727C71.6996 60.788 71.6996 60.788 72.5166 61.4685C72.6983 61.6185 72.88 61.7685 73.0672 61.923C73.2579 62.0812 73.4486 62.2394 73.645 62.4023C75.4423 63.8789 77.2727 65.2976 79.1401 66.684C80.4303 67.6431 81.7038 68.62 82.9651 69.6167C84.7159 71.0001 86.4786 72.3667 88.2504 73.7231C88.8075 74.1502 89.3636 74.5785 89.9197 75.0069C93.0204 77.3917 96.1557 79.7266 99.3164 82.0312C99.5072 82.1707 99.698 82.3101 99.8946 82.4538C102.378 84.2646 104.918 85.9611 107.52 87.5977C106.545 85.2694 104.086 83.5361 102.206 81.9271C101.487 81.2926 100.823 80.6115 100.152 79.9271C99.6607 79.4449 99.1573 79.0027 98.6309 78.5603C96.9067 77.0606 95.3089 75.4307 93.6967 73.813C93.147 73.2617 92.5957 72.712 92.0443 72.1624C91.6877 71.8057 91.3312 71.4488 90.9748 71.0918C90.8133 70.9309 90.6518 70.77 90.4854 70.6043C89.6365 69.7503 88.8448 68.8798 88.0783 67.9507C87.1941 66.9285 86.2762 66.2582 85.1268 65.5594C81.281 63.177 77.087 59.8466 76.0035 55.2415C74.5216 46.8426 75.5156 37.7474 76.1719 29.2969Z" fill="black"/>
</svg>
