<svg width="300" height="300" viewBox="0 0 300 300" fill="none" xmlns="http://www.w3.org/2000/svg">
<path d="M142.543 98.0985C142.84 98.0972 143.137 98.0959 143.443 98.0946C144.43 98.0907 145.418 98.0889 146.405 98.0871C147.116 98.0848 147.827 98.0823 148.538 98.0798C150.664 98.0728 152.79 98.0683 154.915 98.0646C155.516 98.0635 156.117 98.0623 156.717 98.0611C160.453 98.0537 164.188 98.0473 167.923 98.0436C168.785 98.0428 169.648 98.0419 170.511 98.041C170.725 98.0408 170.939 98.0406 171.16 98.0403C174.64 98.0366 178.12 98.0269 181.6 98.0147C185.177 98.0023 188.753 97.9954 192.33 97.9938C194.336 97.9928 196.343 97.9894 198.35 97.9797C200.235 97.9707 202.12 97.9691 204.005 97.9725C204.697 97.9726 205.39 97.9701 206.082 97.965C207.026 97.9584 207.969 97.9608 208.913 97.9654C209.188 97.9614 209.463 97.9573 209.747 97.9531C211.074 97.9694 211.631 97.9963 212.701 98.8456C216.596 103.968 217.079 111.436 218.252 117.6C218.833 120.653 219.421 123.709 220.215 126.715C220.798 128.947 221.209 131.178 221.561 133.457C221.618 133.82 221.676 134.184 221.735 134.558C221.885 135.513 222.033 136.468 222.181 137.423C222.303 138.205 222.426 138.987 222.549 139.768C222.697 140.704 222.843 141.64 222.989 142.575C223.044 142.925 223.099 143.275 223.156 143.635C223.206 143.958 223.256 144.281 223.307 144.614C223.351 144.898 223.395 145.182 223.441 145.474C223.535 146.19 223.535 146.19 223.535 147.069C223.932 147.044 223.932 147.044 224.337 147.018C224.683 147.005 225.028 146.991 225.385 146.978C225.899 146.952 225.899 146.952 226.425 146.926C227.344 147.069 227.344 147.069 227.801 147.623C228.389 148.893 228.611 150.165 228.86 151.536C228.918 151.838 228.975 152.14 229.034 152.451C229.222 153.447 229.406 154.444 229.59 155.442C229.72 156.136 229.85 156.831 229.981 157.525C230.253 158.981 230.523 160.437 230.792 161.893C231.136 163.756 231.485 165.618 231.836 167.48C232.105 168.914 232.372 170.349 232.639 171.783C232.766 172.47 232.895 173.156 233.024 173.842C233.204 174.804 233.382 175.766 233.558 176.728C233.612 177.009 233.665 177.291 233.72 177.581C234.023 179.255 234.132 180.817 234.082 182.519C233.025 183.085 232.165 183.237 230.966 183.354C230.585 183.392 230.204 183.43 229.812 183.468C229.614 183.487 229.416 183.505 229.211 183.524C228.614 183.58 228.017 183.639 227.42 183.7C225.432 183.892 223.481 184.032 221.484 183.983C221.502 184.217 221.52 184.451 221.538 184.693C222.127 192.591 222.127 192.591 222.144 196.361C222.148 196.742 222.148 196.742 222.152 197.131C222.143 198.852 222.143 198.852 221.484 199.511C216.129 200.982 210.02 200.798 204.51 200.976C204.169 200.987 203.827 200.999 203.476 201.01C177.709 201.868 151.965 202.132 77.9297 198.467C77.5136 198.423 77.5136 198.423 77.0892 198.378C74.3674 198.088 71.6565 197.765 68.9575 197.305C68.7509 197.271 68.5444 197.237 68.3315 197.202C67.349 197.025 66.7627 196.851 65.918 196.288C66.0818 195.089 66.3466 194.091 66.8438 192.989C66.9772 192.691 67.1106 192.392 67.248 192.085C67.3952 191.762 67.5424 191.439 67.6941 191.106C67.8492 190.762 68.0043 190.417 68.1642 190.062C68.6817 188.913 69.204 187.767 69.7266 186.62C69.9098 186.217 70.0931 185.815 70.2763 185.412C71.3496 183.055 72.4277 180.699 73.5078 178.345C74.1981 176.839 74.8849 175.332 75.5699 173.824C86.3618 150.081 86.3618 150.081 92.4711 139.564C92.8266 138.944 93.1704 138.32 93.5074 137.69C96.6047 131.922 100.486 126.495 104.44 121.29C104.754 120.874 105.062 120.454 105.366 120.031C105.601 119.708 105.601 119.708 105.84 119.378C105.979 119.183 106.119 118.987 106.263 118.785C106.388 118.645 106.512 118.504 106.641 118.358C106.834 118.358 107.027 118.358 107.227 118.358C107.323 118.068 107.42 117.778 107.52 117.48C107.713 117.48 107.906 117.48 108.105 117.48C108.202 117.093 108.299 116.706 108.398 116.308C108.592 116.308 108.785 116.308 108.984 116.308C109.054 116.143 109.124 115.978 109.196 115.808C109.99 114.381 111.315 113.296 112.463 112.151C112.73 111.879 112.997 111.608 113.272 111.328C113.53 111.07 113.788 110.811 114.054 110.546C114.29 110.309 114.525 110.073 114.768 109.829C115.413 109.29 115.781 109.094 116.602 108.983C116.602 108.79 116.602 108.597 116.602 108.397C122.918 101.509 133.487 98.1033 142.543 98.0985ZM131.378 103.454C131.034 103.585 131.034 103.585 130.682 103.719C125.468 105.782 121.277 109.013 117.187 112.792C116.915 113.034 116.643 113.276 116.362 113.526C114.755 114.958 113.293 116.415 111.914 118.065C111.647 118.374 111.379 118.682 111.111 118.989C100.279 131.43 92.4954 146.147 85.6831 161.082C85.2714 161.973 84.8492 162.858 84.4208 163.741C84.2946 164.002 84.1684 164.263 84.0384 164.531C83.8057 165.01 83.5713 165.488 83.3349 165.964C83.0784 166.494 82.845 167.035 82.6172 167.577C82.7139 167.771 82.8105 167.964 82.9102 168.163C83.1092 168.072 83.3083 167.981 83.5134 167.888C99.7695 160.491 116.28 153.891 133.594 149.413C133.594 148.237 133.161 147.919 132.422 147.014C128.536 142.034 126.581 135.915 127.263 129.603C127.974 125.292 129.914 121.07 133.455 118.382C138.279 115.137 143.054 114.507 148.718 114.503C149.142 114.501 149.567 114.5 149.992 114.498C151.138 114.494 152.284 114.492 153.43 114.491C154.147 114.49 154.865 114.489 155.583 114.488C157.835 114.484 160.086 114.481 162.338 114.48C164.927 114.479 167.515 114.473 170.104 114.465C172.113 114.459 174.122 114.456 176.13 114.455C177.327 114.455 178.523 114.453 179.72 114.448C180.845 114.443 181.971 114.442 183.097 114.445C183.508 114.445 183.918 114.444 184.329 114.441C188.065 114.416 191.542 114.765 194.427 117.32C198.507 121.565 198.737 129.422 198.627 134.997C198.462 139.631 197.673 142.921 195.41 147.069C203.531 147.069 211.652 147.069 220.02 147.069C219.504 143.29 218.989 139.523 218.368 135.761C218.297 135.327 218.226 134.893 218.155 134.458C217.93 133.089 217.702 131.72 217.474 130.352C217.436 130.119 217.397 129.886 217.357 129.645C215.513 115.246 215.513 115.246 210.938 101.659C201.878 101.639 192.819 101.624 183.76 101.614C182.688 101.613 181.616 101.612 180.544 101.611C180.331 101.611 180.118 101.61 179.898 101.61C176.452 101.606 173.007 101.599 169.561 101.591C166.021 101.583 162.48 101.578 158.939 101.577C156.953 101.575 154.966 101.573 152.98 101.566C151.107 101.56 149.234 101.558 147.361 101.56C146.676 101.56 145.992 101.558 145.308 101.554C140.53 101.532 135.885 101.692 131.378 103.454ZM135.352 120.702C134.413 121.778 133.623 122.951 132.843 124.145C132.73 124.311 132.617 124.478 132.5 124.65C130.892 127.116 130.507 129.431 130.536 132.348C130.538 132.659 130.541 132.97 130.543 133.291C130.594 135.644 130.849 137.585 131.836 139.745C132.039 140.21 132.039 140.21 132.247 140.685C133.532 143.333 135.347 145.301 137.402 147.362C137.514 147.527 137.626 147.692 137.741 147.862C138.645 148.497 139.633 148.21 140.674 148.071C141.023 148.03 141.023 148.03 141.38 147.988C142.124 147.9 142.867 147.805 143.61 147.71C144.114 147.649 144.618 147.589 145.122 147.529C146.358 147.381 147.593 147.227 148.828 147.069C148.974 146.676 148.974 146.676 149.123 146.274C149.318 145.759 149.318 145.759 149.516 145.233C149.644 144.892 149.771 144.551 149.903 144.199C150.491 142.783 151.065 141.801 152.527 141.173C153.705 140.868 154.819 140.833 156.027 140.837C156.396 140.834 156.396 140.834 156.773 140.832C157.582 140.828 158.392 140.828 159.201 140.829C159.766 140.828 160.331 140.826 160.895 140.825C162.077 140.823 163.259 140.823 164.441 140.825C165.955 140.826 167.468 140.821 168.981 140.814C170.147 140.81 171.312 140.81 172.478 140.811C173.036 140.811 173.594 140.809 174.151 140.806C174.932 140.803 175.712 140.805 176.493 140.808C176.722 140.806 176.951 140.803 177.187 140.801C178.591 140.815 179.538 141.036 180.762 141.796C181.642 142.895 182.014 144.352 182.406 145.686C182.483 145.946 182.56 146.206 182.639 146.474C182.696 146.671 182.753 146.867 182.812 147.069C183.997 147.104 185.18 147.124 186.365 147.143C186.699 147.152 187.034 147.162 187.379 147.172C189.852 147.208 189.852 147.208 191.895 145.897C195.486 141.797 195.661 136.428 195.339 131.217C194.982 126.94 194.411 122.557 191.437 119.292C189.099 117.523 185.682 117.647 182.9 117.668C182.515 117.667 182.13 117.667 181.734 117.666C180.688 117.665 179.643 117.669 178.598 117.674C177.496 117.678 176.394 117.678 175.292 117.678C173.442 117.679 171.592 117.683 169.742 117.69C167.38 117.699 165.018 117.702 162.656 117.703C160.61 117.704 158.564 117.708 156.518 117.712C155.868 117.713 155.218 117.714 154.568 117.715C153.347 117.716 152.126 117.721 150.905 117.725C150.374 117.726 150.374 117.726 149.832 117.726C142.183 117.674 142.183 117.674 135.352 120.702ZM150.338 150.711C149.876 150.727 149.876 150.727 149.405 150.744C132.573 151.425 116.178 157.603 100.809 164.095C100.217 164.345 99.6248 164.594 99.0326 164.843C94.6445 166.689 90.3134 168.648 86.0046 170.672C85.6823 170.823 85.6823 170.823 85.3534 170.977C84.7403 171.265 84.1278 171.555 83.5155 171.845C83.3362 171.929 83.1568 172.013 82.972 172.1C80.4009 173.16 80.4009 173.16 78.7456 175.206C78.6597 175.424 78.5738 175.642 78.4853 175.867C78.3643 176.205 78.3643 176.205 78.241 176.549C78.1524 176.777 78.0638 177.004 77.9726 177.238C77.5077 178.381 77.5077 178.381 77.3437 179.589C101.365 183.607 126.691 182.624 150.97 182.577C152.848 182.574 154.725 182.573 156.602 182.573C168.15 182.574 179.695 182.568 191.24 182.244C191.856 182.227 192.472 182.21 193.089 182.194C195.218 182.138 197.347 182.07 199.475 181.988C199.778 181.976 200.082 181.964 200.394 181.953C210.175 181.571 219.98 180.874 229.688 179.589C230.146 178.403 229.834 177.299 229.593 176.098C229.548 175.866 229.503 175.633 229.457 175.393C229.309 174.624 229.156 173.855 229.004 173.086C228.9 172.55 228.796 172.013 228.692 171.477C228.417 170.063 228.14 168.649 227.862 167.235C227.581 165.805 227.303 164.375 227.025 162.945C226.261 159.018 225.496 155.092 224.707 151.171C220.372 150.849 216.035 150.784 211.69 150.724C211.056 150.715 210.422 150.706 209.787 150.697C199.494 150.549 189.201 150.54 178.906 150.547C176.885 150.549 174.865 150.548 172.844 150.546C170.846 150.545 168.848 150.545 166.85 150.545C165.678 150.546 164.506 150.546 163.334 150.545C159 150.542 154.669 150.557 150.338 150.711ZM71.1914 190.136C71.0431 190.507 70.8971 190.88 70.7519 191.253C70.6704 191.46 70.5888 191.667 70.5048 191.881C70.2677 192.514 70.2677 192.514 70.3125 193.358C86.3806 195.881 102.786 196.557 119.019 197.204C119.297 197.215 119.576 197.226 119.864 197.238C131.464 197.701 143.073 197.805 154.682 197.791C155.678 197.79 156.675 197.789 157.671 197.788C167.909 197.781 178.144 197.737 188.379 197.46C188.933 197.445 188.933 197.445 189.499 197.43C203.908 197.149 203.908 197.149 218.262 195.995C218.71 194.799 218.447 193.712 218.262 192.48C217.95 192.503 217.639 192.527 217.318 192.551C206.997 193.32 196.672 193.684 186.328 193.944C185.987 193.953 185.646 193.962 185.295 193.971C158.215 194.675 131.043 194.498 77.4382 190.597C77.1701 190.566 76.902 190.536 76.6257 190.504C76.1305 190.447 75.6354 190.389 75.1404 190.329C73.8135 190.176 72.5273 190.109 71.1914 190.136Z" fill="black"/>
</svg>
