<svg width="300" height="300" viewBox="0 0 300 300" fill="none" xmlns="http://www.w3.org/2000/svg">
<path d="M171.807 54.4565C172.597 55.5308 172.597 56.4341 172.605 57.7288C172.608 58.0935 172.611 58.4582 172.614 58.834C172.615 59.2326 172.617 59.6312 172.618 60.0298C172.619 60.4388 172.621 60.8478 172.623 61.2569C172.626 62.1144 172.628 62.9719 172.629 63.8295C172.63 64.9266 172.637 66.0236 172.646 67.1207C172.651 67.9657 172.653 68.8107 172.653 69.6557C172.654 70.0601 172.656 70.4644 172.66 70.8688C172.665 71.4353 172.664 72.0018 172.663 72.5683C172.664 73.0513 172.664 73.0513 172.666 73.544C172.544 74.5327 172.268 75.0833 171.679 75.8798C170.366 76.5364 168.753 76.1728 167.285 76.1728C167.381 83.6171 167.478 91.0615 167.578 98.7314C169.898 99.7465 169.898 99.7465 172.265 100.782C174.915 102.181 177.325 103.8 179.589 105.763C179.822 105.957 180.055 106.151 180.296 106.351C183.601 109.19 186.275 112.5 188.378 116.31C188.556 116.628 188.733 116.946 188.915 117.274C189.9 119.139 190.698 121.019 191.381 123.011C191.484 123.306 191.484 123.306 191.589 123.606C192.842 127.446 193.197 131.249 193.18 135.252C193.181 135.725 193.182 136.199 193.184 136.672C193.189 137.958 193.187 139.244 193.185 140.53C193.184 141.922 193.187 143.314 193.19 144.706C193.195 147.427 193.196 150.147 193.194 152.868C193.193 155.078 193.193 157.289 193.195 159.5C193.195 159.815 193.195 160.13 193.196 160.455C193.196 161.095 193.197 161.736 193.197 162.376C193.201 168.371 193.199 174.365 193.196 180.36C193.193 185.846 193.197 191.332 193.204 196.818C193.211 202.455 193.214 208.092 193.212 213.729C193.211 216.893 193.212 220.056 193.217 223.219C193.221 225.909 193.221 228.599 193.216 231.289C193.214 232.662 193.213 234.035 193.218 235.407C193.222 236.663 193.22 237.918 193.215 239.174C193.213 239.629 193.214 240.084 193.217 240.539C193.221 241.156 193.218 241.773 193.213 242.39C193.213 242.733 193.213 243.076 193.213 243.43C193.033 244.54 192.698 245.024 191.894 245.802C191.048 246.151 190.22 246.132 189.311 246.133C189.026 246.134 188.741 246.135 188.447 246.137C188.135 246.136 187.823 246.136 187.501 246.136C187.169 246.137 186.836 246.138 186.494 246.138C185.376 246.141 184.258 246.141 183.141 246.142C182.341 246.143 181.541 246.145 180.741 246.146C178.566 246.15 176.391 246.152 174.215 246.153C172.857 246.154 171.499 246.155 170.14 246.157C166.38 246.16 162.62 246.163 158.86 246.164C158.619 246.164 158.378 246.164 158.13 246.164C157.769 246.165 157.769 246.165 157.4 246.165C156.911 246.165 156.422 246.165 155.933 246.165C155.57 246.165 155.57 246.165 155.199 246.165C151.269 246.166 147.339 246.172 143.409 246.178C139.375 246.185 135.34 246.189 131.306 246.189C129.041 246.19 126.776 246.191 124.51 246.197C122.582 246.201 120.653 246.203 118.725 246.2C117.74 246.199 116.757 246.2 115.773 246.203C114.706 246.207 113.639 246.205 112.572 246.202C112.261 246.205 111.95 246.207 111.63 246.209C110.065 246.199 108.821 246.186 107.519 245.216C106.747 243.938 106.53 242.989 106.529 241.506C106.527 241.316 106.526 241.126 106.525 240.931C106.521 240.296 106.524 239.661 106.527 239.026C106.525 238.566 106.524 238.106 106.522 237.646C106.518 236.382 106.519 235.118 106.521 233.853C106.522 232.49 106.519 231.126 106.516 229.762C106.511 227.09 106.51 224.418 106.512 221.745C106.513 219.571 106.513 217.397 106.511 215.223C106.511 214.913 106.511 214.604 106.511 214.285C106.51 213.656 106.51 213.027 106.509 212.399C106.505 206.498 106.507 200.598 106.51 194.698C106.513 189.309 106.509 183.921 106.502 178.532C106.495 172.994 106.492 167.456 106.494 161.918C106.495 158.811 106.495 155.704 106.489 152.597C106.485 149.949 106.485 147.302 106.49 144.654C106.493 143.305 106.493 141.957 106.489 140.608C106.456 130.063 106.456 130.063 107.812 125.392C107.879 125.158 107.946 124.924 108.015 124.683C109.808 118.51 113.039 113.325 117.48 108.692C117.702 108.452 117.923 108.212 118.152 107.964C121.872 104.056 126.814 100.982 131.836 99.0244C132.126 99.0244 132.416 99.0244 132.714 99.0244C132.618 91.58 132.521 84.1357 132.421 76.4658C131.261 76.3691 130.101 76.2724 128.906 76.1728C127.839 75.5453 127.537 75.2884 127.148 74.122C127.118 73.5413 127.104 72.9596 127.101 72.3781C127.098 72.0192 127.095 71.6603 127.092 71.2906C127.091 70.8985 127.09 70.5064 127.089 70.1143C127.087 69.7118 127.085 69.3093 127.083 68.9069C127.08 68.0631 127.079 67.2194 127.078 66.3756C127.076 65.2963 127.069 64.217 127.061 63.1376C127.055 62.3062 127.054 61.4748 127.053 60.6434C127.052 60.2455 127.05 59.8477 127.046 59.4499C127.041 58.8925 127.042 58.3351 127.044 57.7777C127.042 57.3025 127.042 57.3025 127.04 56.8178C127.164 55.8281 127.434 55.2892 128.027 54.4931C129.015 53.8346 129.352 53.8316 130.508 53.8236C130.841 53.8199 131.175 53.8162 131.518 53.8124C132.066 53.8108 132.066 53.8108 132.626 53.8091C133.011 53.8057 133.396 53.8023 133.793 53.7988C134.849 53.7895 135.906 53.7839 136.963 53.779C138.07 53.7733 139.177 53.7646 140.284 53.7563C142.145 53.7428 144.006 53.7315 145.866 53.7217C148.014 53.7104 150.162 53.6959 152.309 53.6797C154.377 53.6641 156.445 53.6503 158.514 53.6375C159.392 53.632 160.271 53.626 161.15 53.6196C162.187 53.6121 163.224 53.6062 164.261 53.6015C164.82 53.5986 165.38 53.5943 165.939 53.5898C170.659 53.5728 170.659 53.5728 171.807 54.4565ZM131.836 58.5947C131.836 62.8486 131.836 67.1025 131.836 71.4853C132.816 71.7305 133.474 71.8118 134.461 71.8024C134.753 71.8003 135.046 71.7982 135.347 71.7961C135.826 71.7904 135.826 71.7904 136.314 71.7846C136.82 71.7804 136.82 71.7804 137.336 71.7761C138.452 71.7664 139.568 71.7546 140.684 71.7428C141.457 71.7357 142.231 71.7287 143.004 71.7218C144.832 71.7054 146.661 71.6874 148.489 71.6689C150.57 71.6479 152.652 71.6285 154.734 71.6094C159.015 71.5699 163.296 71.5283 167.578 71.4853C168.936 67.4089 167.682 62.8903 167.578 58.5947C155.783 58.5947 143.988 58.5947 131.836 58.5947ZM137.402 76.1728C137.391 77.9814 137.38 79.79 137.369 81.6534C137.36 82.7976 137.351 83.9418 137.341 85.086C137.325 86.9031 137.31 88.7201 137.3 90.5372C137.293 92.0018 137.281 93.4663 137.266 94.9309C137.261 95.4903 137.258 96.0497 137.256 96.6091C137.253 97.3913 137.245 98.1733 137.236 98.9555C137.236 99.3041 137.236 99.3041 137.237 99.6598C137.21 101.221 137.21 101.221 136.72 101.935C135.92 102.445 135.036 102.715 134.143 103.016C126.67 105.696 120.124 110.615 116.015 117.481C115.848 117.757 115.848 117.757 115.678 118.038C113.243 122.129 111.292 126.952 111.291 131.776C111.29 132.11 111.289 132.444 111.289 132.787C111.289 133.151 111.29 133.515 111.291 133.89C111.29 134.283 111.29 134.676 111.289 135.069C111.288 136.147 111.289 137.226 111.289 138.304C111.29 139.469 111.289 140.633 111.288 141.797C111.287 144.081 111.287 146.365 111.288 148.649C111.289 150.512 111.289 152.375 111.289 154.238C111.288 154.504 111.288 154.77 111.288 155.044C111.288 155.584 111.288 156.124 111.288 156.664C111.287 161.736 111.288 166.807 111.29 171.879C111.291 176.201 111.291 180.524 111.29 184.846C111.288 189.882 111.287 194.917 111.288 199.953C111.288 200.495 111.288 201.036 111.289 201.578C111.289 201.844 111.289 202.111 111.289 202.385C111.289 204.233 111.288 206.081 111.288 207.929C111.287 210.201 111.287 212.473 111.289 214.744C111.29 216.084 111.29 217.424 111.288 218.764C111.286 226.22 111.462 233.656 111.621 241.114C136.951 241.114 162.281 241.114 188.378 241.114C188.456 221.65 188.456 221.65 188.526 202.186C188.534 199.56 188.543 196.934 188.552 194.308C188.553 193.979 188.554 193.65 188.555 193.311C188.573 188.002 188.594 182.694 188.617 177.386C188.64 171.936 188.659 166.485 188.675 161.035C188.685 157.673 188.698 154.312 188.714 150.951C188.725 148.644 188.733 146.336 188.738 144.029C188.741 142.699 188.745 141.37 188.754 140.04C188.761 138.82 188.765 137.599 188.765 136.379C188.766 135.94 188.768 135.502 188.772 135.063C188.854 125.654 185.173 117.372 178.711 110.633C174.351 106.438 168.888 103.791 163.183 101.954C162.601 101.371 162.839 100.212 162.835 99.4142C162.831 99.0612 162.831 99.0612 162.827 98.7011C162.822 98.1883 162.818 97.6755 162.814 97.1626C162.808 96.3513 162.8 95.5399 162.791 94.7286C162.774 93.005 162.759 91.2814 162.744 89.5578C162.726 87.5641 162.708 85.5703 162.688 83.5766C162.68 82.7769 162.674 81.9771 162.668 81.1773C162.663 80.6866 162.658 80.1959 162.653 79.7052C162.652 79.4825 162.65 79.2598 162.649 79.0304C162.637 78.0093 162.554 77.1718 162.304 76.1728C154.086 76.1728 145.869 76.1728 137.402 76.1728Z" fill="black"/>
</svg>
