<svg width="300" height="300" viewBox="0 0 300 300" fill="none" xmlns="http://www.w3.org/2000/svg">
<path d="M139.261 63.6821C139.507 63.68 139.753 63.6779 140.007 63.6757C140.819 63.6708 141.632 63.6765 142.445 63.6827C143.01 63.6825 143.576 63.6817 144.141 63.6806C145.327 63.6797 146.512 63.684 147.698 63.6921C149.216 63.702 150.733 63.7003 152.251 63.6948C153.419 63.6917 154.588 63.6943 155.756 63.6987C156.315 63.7002 156.875 63.7001 157.434 63.6983C158.218 63.6967 159.001 63.7027 159.784 63.7107C160.129 63.7078 160.129 63.7078 160.481 63.7049C161.994 63.7311 162.858 64.0454 164.062 65.0388C164.584 66.0896 164.39 67.4047 164.386 68.5625C164.39 69.0353 164.395 69.5081 164.399 69.981C164.406 70.7195 164.41 71.4577 164.407 72.1963C164.396 75.2051 164.569 77.4762 166.03 80.1651C166.406 80.8591 166.406 80.8591 166.406 81.4451C165.246 81.3484 164.086 81.2517 162.891 81.1521C162.902 84.0889 162.919 87.0256 162.944 89.9623C162.956 91.3264 162.965 92.6904 162.97 94.0546C162.974 95.3749 162.985 96.695 162.998 98.0153C163.003 98.5151 163.005 99.0149 163.005 99.5148C163.01 103.695 163.455 107.732 165.491 111.474C165.593 111.669 165.696 111.864 165.802 112.065C167.13 114.539 168.557 116.141 170.763 117.891C178.075 123.838 181.706 131.346 182.812 140.625C182.888 141.967 182.892 143.305 182.887 144.649C182.887 145.04 182.888 145.431 182.89 145.821C182.892 146.884 182.891 147.946 182.889 149.009C182.888 150.159 182.89 151.309 182.891 152.459C182.894 154.707 182.893 156.954 182.892 159.202C182.89 161.028 182.89 162.853 182.891 164.679C182.891 164.94 182.891 165.2 182.891 165.468C182.891 165.997 182.891 166.526 182.892 167.055C182.893 172.005 182.891 176.955 182.888 181.905C182.886 186.154 182.886 190.404 182.889 194.653C182.892 199.591 182.893 204.529 182.891 209.467C182.891 209.993 182.891 210.519 182.891 211.045C182.891 211.433 182.891 211.433 182.891 211.829C182.89 213.654 182.891 215.48 182.892 217.306C182.894 219.527 182.893 221.749 182.89 223.971C182.889 225.105 182.888 226.239 182.89 227.373C182.892 228.599 182.89 229.826 182.887 231.053C182.889 231.595 182.889 231.595 182.891 232.148C182.888 232.638 182.888 232.638 182.886 233.138C182.886 233.421 182.886 233.704 182.886 233.996C182.812 234.668 182.812 234.668 182.226 235.254C181.388 235.312 180.578 235.334 179.739 235.33C179.479 235.331 179.218 235.332 178.95 235.333C178.072 235.336 177.194 235.335 176.316 235.334C175.688 235.335 175.061 235.337 174.434 235.339C172.725 235.343 171.017 235.343 169.309 235.342C167.885 235.342 166.461 235.343 165.037 235.345C161.678 235.348 158.319 235.348 154.96 235.346C151.491 235.344 148.021 235.348 144.552 235.354C141.578 235.359 138.603 235.361 135.628 235.36C133.85 235.36 132.072 235.36 130.293 235.365C128.621 235.368 126.949 235.368 125.277 235.364C124.662 235.363 124.047 235.364 123.433 235.366C122.595 235.369 121.758 235.367 120.921 235.363C120.676 235.365 120.432 235.368 120.179 235.37C119.249 235.361 118.483 235.307 117.623 234.937C116.956 234.076 117.035 233.374 117.029 232.295C117.026 232.081 117.023 231.867 117.02 231.646C117.011 230.923 117.011 230.201 117.011 229.478C117.007 228.958 117.003 228.437 116.997 227.916C116.985 226.483 116.979 225.05 116.975 223.617C116.97 222.078 116.958 220.539 116.947 219C116.923 215.295 116.91 211.59 116.898 207.885C116.892 206.143 116.885 204.401 116.877 202.658C116.845 194.751 116.828 186.844 116.825 178.936C116.825 178.205 116.824 177.474 116.824 176.743C116.824 176.381 116.824 176.018 116.824 175.645C116.822 172.643 116.816 169.641 116.81 166.639C116.803 163.688 116.8 160.737 116.8 157.786C116.8 156.048 116.798 154.31 116.793 152.572C116.788 150.957 116.787 149.343 116.79 147.729C116.79 147.143 116.789 146.557 116.786 145.971C116.74 136.17 119.434 127.369 126.398 120.268C127.476 119.222 128.637 118.273 129.801 117.326C133.675 114.074 135.946 109.236 136.816 104.297C136.965 102.521 136.919 100.735 136.902 98.9545C136.901 98.4472 136.899 97.9399 136.898 97.4326C136.895 96.1091 136.886 94.7856 136.877 93.4621C136.868 92.1069 136.864 90.7517 136.859 89.3964C136.85 86.7459 136.835 84.0955 136.816 81.4451C135.85 81.3484 134.883 81.2517 133.887 81.1521C134.766 78.5154 134.766 78.5154 135.069 77.7534C135.418 76.5213 135.433 75.4114 135.432 74.138C135.438 73.6297 135.444 73.1214 135.45 72.6131C135.457 71.8178 135.461 71.0227 135.463 70.2274C135.466 69.4556 135.476 68.6841 135.487 67.9124C135.485 67.6756 135.484 67.4387 135.482 67.1947C135.486 66.9717 135.49 66.7488 135.494 66.5191C135.495 66.3246 135.495 66.1302 135.496 65.9299C136.011 63.8519 137.363 63.654 139.261 63.6821ZM140.039 67.9685C140.039 70.9656 140.039 73.9627 140.039 77.0505C146.71 77.0505 153.381 77.0505 160.254 77.0505C160.254 74.0535 160.254 71.0564 160.254 67.9685C153.583 67.9685 146.912 67.9685 140.039 67.9685ZM155.413 81.1457C154.938 81.1546 154.938 81.1546 154.453 81.1636C154.115 81.1715 153.776 81.1794 153.427 81.1876C153.078 81.1945 152.729 81.2014 152.37 81.2086C151.256 81.231 150.143 81.2556 149.029 81.2803C148.274 81.2959 147.518 81.3113 146.763 81.3266C144.912 81.3644 143.062 81.4041 141.211 81.4451C141.21 81.724 141.209 82.0029 141.208 82.2902C141.197 84.9402 141.18 87.5901 141.157 90.24C141.145 91.6019 141.136 92.9636 141.131 94.3255C141.127 95.6439 141.117 96.9621 141.103 98.2804C141.099 98.7792 141.096 99.278 141.096 99.7768C141.09 106.132 139.561 111.833 135.849 117.055C135.343 117.741 135.343 117.741 135.046 118.437C134.766 118.945 134.766 118.945 133.887 119.238C133.887 119.431 133.887 119.625 133.887 119.824C133.651 119.924 133.651 119.924 133.411 120.025C132.115 120.741 131.101 121.659 130.188 122.809C129.492 123.633 129.492 123.633 128.914 123.914C127.815 124.477 127.246 125.563 126.562 126.562C126.395 126.805 126.228 127.049 126.055 127.299C121.707 133.865 121.063 140.473 121.119 148.188C121.125 149.305 121.123 150.422 121.122 151.539C121.121 153.468 121.126 155.396 121.134 157.324C121.146 160.112 121.15 162.9 121.152 165.688C121.155 170.213 121.165 174.738 121.178 179.263C121.192 183.654 121.202 188.046 121.209 192.437C121.209 192.711 121.209 192.985 121.21 193.268C121.213 195.413 121.216 197.557 121.218 199.702C121.232 210.185 121.262 220.669 121.289 231.152C140.238 231.152 159.187 231.152 178.711 231.152C178.762 215.36 178.762 215.36 178.797 199.567C178.8 197.431 178.804 195.295 178.807 193.16C178.808 192.892 178.808 192.624 178.809 192.348C178.816 188.044 178.83 183.739 178.846 179.434C178.863 175.007 178.873 170.579 178.876 166.152C178.879 163.427 178.886 160.701 178.901 157.975C178.91 156.099 178.913 154.223 178.91 152.347C178.909 151.269 178.911 150.191 178.92 149.113C178.99 140.893 178.238 132.382 172.559 125.976C172.261 125.627 172.261 125.627 171.958 125.27C170.15 123.192 168.178 121.211 165.96 119.57C165.072 118.805 164.444 117.939 163.806 116.968C163.68 116.776 163.553 116.584 163.423 116.386C160.648 112.049 158.771 106.905 158.729 101.733C158.726 101.513 158.723 101.293 158.72 101.066C158.711 100.343 158.704 99.6202 158.696 98.8973C158.69 98.3941 158.684 97.8908 158.678 97.3876C158.662 96.0669 158.647 94.7463 158.633 93.4257C158.618 92.0765 158.602 90.7273 158.586 89.3781C158.554 86.7338 158.525 84.0894 158.496 81.4451C157.443 81.2015 156.492 81.123 155.413 81.1457Z" fill="black"/>
</svg>
