<svg width="300" height="300" viewBox="0 0 300 300" fill="none" xmlns="http://www.w3.org/2000/svg">
<g clip-path="url(#clip0_50_418)">
<path d="M128.906 52.4406C128.715 52.5293 128.523 52.6181 128.327 52.7095C125.562 54.0348 123.596 55.462 122.488 58.4236C122.259 59.1609 122.056 59.8933 121.874 60.6437C121.803 60.9213 121.803 60.9213 121.73 61.2046C121.335 62.825 121.203 64.3359 121.207 65.9999C121.205 66.2606 121.203 66.5213 121.202 66.7898C121.197 67.6562 121.196 68.5224 121.195 69.3888C121.192 70.0126 121.189 70.6365 121.186 71.2603C121.178 72.9489 121.174 74.6375 121.17 76.3261C121.165 78.0927 121.157 79.8592 121.15 81.6257C121.136 84.9687 121.125 88.3117 121.116 91.6547C121.105 95.4615 121.09 99.2683 121.075 103.075C121.045 110.904 121.019 118.733 120.995 126.562C121.672 126.562 122.349 126.562 123.046 126.562C123.046 126.658 123.046 126.755 123.046 126.855C122.37 126.855 121.693 126.855 120.995 126.855C121.092 166.977 121.189 207.099 121.288 248.437C143.031 255.684 176.821 245.925 206.048 241.112C206.282 241.071 206.517 241.029 206.758 240.986C207.4 240.872 208.041 240.755 208.681 240.636C209.029 240.572 209.377 240.508 209.736 240.442C210.756 240.232 210.756 240.232 212.109 239.648C212.109 238.004 212.109 236.361 212.109 234.667C212.079 235.132 212.048 235.598 212.017 236.077C211.928 237.453 211.928 237.453 211.455 238.06C210.813 238.575 210.339 238.677 209.531 238.827C209.241 238.883 208.952 238.938 208.653 238.995C208.335 239.051 208.017 239.108 207.689 239.166C207.184 239.259 207.184 239.259 206.669 239.354C202.282 240.149 197.876 240.828 193.469 241.497C193.129 241.549 193.129 241.549 192.782 241.602C173.083 244.602 153.213 247.165 133.3 248.144C133 248.159 133 248.159 132.693 248.174C131.474 248.231 130.255 248.268 129.034 248.29C128.757 248.299 128.48 248.308 128.195 248.318C126.237 248.318 124.663 247.801 123.046 246.679C122.756 246.292 122.466 245.905 122.167 245.507C123.231 245.7 124.294 245.894 125.39 246.093C125.39 245.847 125.39 245.6 125.389 245.347C125.376 230.761 125.366 216.175 125.36 201.59C125.359 199.84 125.359 198.09 125.358 196.34C125.358 195.991 125.358 195.643 125.357 195.284C125.355 189.637 125.35 183.991 125.345 178.344C125.339 172.553 125.336 166.762 125.335 160.971C125.334 157.396 125.332 153.821 125.327 150.245C125.324 147.796 125.323 145.347 125.324 142.897C125.324 141.482 125.323 140.068 125.32 138.653C125.317 137.359 125.317 136.065 125.319 134.771C125.319 134.302 125.319 133.833 125.317 133.364C125.315 132.728 125.316 132.092 125.318 131.457C125.318 131.103 125.317 130.749 125.317 130.385C125.388 129.521 125.495 129.032 125.976 128.32C126.793 127.911 127.423 128.014 128.338 128.043C128.526 128.048 128.715 128.053 128.909 128.059C129.559 128.078 130.208 128.099 130.858 128.12C131.337 128.135 131.816 128.149 132.295 128.163C133.384 128.196 134.472 128.229 135.561 128.263C137.543 128.324 139.524 128.382 141.505 128.441C144.629 128.532 147.752 128.624 150.876 128.717C151.293 128.73 151.711 128.742 152.128 128.755C154.062 128.812 155.996 128.87 157.929 128.927C160.82 129.014 163.711 129.099 166.601 129.185C166.824 129.191 167.046 129.198 167.275 129.205C173.471 129.387 179.667 129.558 185.864 129.714C187.022 129.743 188.181 129.772 189.339 129.802C192.584 129.884 195.829 129.966 199.073 130.042C200.381 130.072 201.688 130.106 202.995 130.139C203.597 130.154 204.199 130.168 204.8 130.181C205.616 130.199 206.431 130.22 207.246 130.242C207.6 130.248 207.6 130.248 207.962 130.255C209.165 130.291 210.173 130.355 211.23 130.956C212.112 131.896 212.218 132.547 212.217 133.819C212.219 134.166 212.22 134.513 212.222 134.871C212.22 135.253 212.217 135.635 212.214 136.028C212.215 136.438 212.216 136.847 212.217 137.257C212.219 138.383 212.215 139.509 212.211 140.636C212.207 141.85 212.208 143.064 212.209 144.278C212.209 146.383 212.207 148.487 212.202 150.591C212.195 153.633 212.192 156.675 212.191 159.717C212.189 164.653 212.183 169.588 212.175 174.524C212.167 179.319 212.161 184.114 212.157 188.909C212.157 189.204 212.157 189.499 212.156 189.804C212.155 191.286 212.154 192.768 212.153 194.251C212.144 206.551 212.128 218.851 212.109 231.152C212.584 231.216 212.584 231.216 213.068 231.282C214.194 231.45 215.265 231.715 216.357 232.026C216.568 232.084 216.779 232.143 216.997 232.204C217.698 232.4 218.398 232.597 219.099 232.795C219.6 232.935 220.101 233.075 220.602 233.216C221.956 233.594 223.31 233.975 224.663 234.355C226.095 234.758 227.527 235.158 228.958 235.559C231.304 236.216 233.649 236.874 235.994 237.532C238.981 238.371 241.967 239.208 244.954 240.044C245.836 240.29 246.718 240.537 247.6 240.784C247.816 240.844 248.032 240.905 248.254 240.967C249.787 241.396 251.32 241.825 252.853 242.255C258.019 243.702 263.186 245.148 268.353 246.592C268.962 246.762 269.57 246.932 270.179 247.102C272.841 247.846 275.503 248.59 278.166 249.334C279.272 249.643 280.379 249.952 281.485 250.261C281.986 250.401 282.487 250.541 282.988 250.681C288.662 252.265 294.33 253.869 299.999 255.468C299.999 270.163 299.999 284.859 299.999 299.999C283.159 300.188 283.159 300.188 276.041 300.228C274.415 300.237 272.79 300.247 271.164 300.257C270.96 300.258 270.756 300.259 270.547 300.26C267.283 300.281 264.02 300.318 260.757 300.361C257.394 300.405 254.03 300.43 250.666 300.44C248.783 300.446 246.9 300.46 245.017 300.495C236.287 300.649 229.296 300.218 221.599 295.861C220.216 295.097 218.785 294.476 217.328 293.865C216.871 293.665 216.414 293.465 215.958 293.263C215.511 293.067 215.064 292.871 214.617 292.675C214.374 292.568 214.13 292.461 213.879 292.351C206.501 289.115 199.108 285.915 191.689 282.777C189.019 281.647 186.353 280.508 183.689 279.363C179.845 277.711 175.994 276.077 172.137 274.456C168.735 273.027 165.336 271.591 161.947 270.132C159.613 269.128 157.275 268.133 154.935 267.142C148.712 264.505 142.492 261.862 136.309 259.13C135.769 258.892 135.227 258.653 134.686 258.416C131.818 257.157 128.991 255.835 126.206 254.401C125.958 254.275 125.709 254.149 125.454 254.019C122.829 252.644 120.216 251.078 119.238 248.144C119.211 247.712 119.201 247.279 119.201 246.847C119.2 246.579 119.199 246.312 119.199 246.036C119.199 245.741 119.2 245.446 119.201 245.143C119.2 244.672 119.2 244.672 119.2 244.192C119.198 243.13 119.199 242.068 119.2 241.006C119.2 240.241 119.2 239.476 119.199 238.711C119.198 237.042 119.198 235.374 119.199 233.706C119.2 231.224 119.199 228.743 119.198 226.262C119.197 221.832 119.197 217.401 119.198 212.971C119.199 209.094 119.199 205.216 119.198 201.339C119.198 201.082 119.198 200.825 119.198 200.561C119.198 199.518 119.198 198.475 119.198 197.433C119.197 187.645 119.198 177.858 119.2 168.071C119.201 159.369 119.201 150.668 119.199 141.967C119.198 132.198 119.197 122.43 119.198 112.661C119.198 111.62 119.198 110.579 119.198 109.538C119.198 109.282 119.199 109.026 119.199 108.762C119.199 104.887 119.198 101.011 119.198 97.136C119.197 92.7307 119.197 88.3254 119.199 83.9201C119.2 81.4527 119.2 78.9853 119.199 76.518C119.198 74.6792 119.199 72.8404 119.2 71.0017C119.2 70.2551 119.2 69.5085 119.199 68.7619C119.199 67.7521 119.199 66.7423 119.201 65.7325C119.2 65.4383 119.199 65.1441 119.199 64.841C119.199 64.5727 119.2 64.3045 119.201 64.0281C119.201 63.7971 119.201 63.5661 119.201 63.328C119.238 62.6903 119.369 62.1388 119.531 61.5226C119.552 60.9124 119.57 60.302 119.586 59.6916C119.734 57.7699 120.136 56.6566 121.581 55.3703C126.514 51.6126 126.514 51.6126 128.906 52.4406ZM129.828 131.863C129.331 132.688 129.378 133.365 129.375 134.324C129.374 134.699 129.373 135.075 129.371 135.461C129.373 135.656 129.375 135.852 129.377 136.053C129.382 136.648 129.377 137.242 129.371 137.837C129.373 138.213 129.374 138.588 129.375 138.975C129.376 139.319 129.377 139.664 129.378 140.018C129.506 141.029 129.572 141.448 130.37 142.089C132.632 142.354 134.963 141.814 137.205 141.489C137.648 141.426 138.092 141.363 138.535 141.301C139.703 141.135 140.871 140.967 142.039 140.799C143.198 140.633 144.356 140.468 145.514 140.304C146.875 140.11 148.236 139.916 149.596 139.72C151.528 139.442 153.459 139.165 155.393 138.904C155.981 138.824 156.568 138.744 157.155 138.664C157.869 138.566 158.583 138.471 159.298 138.377C159.61 138.334 159.923 138.291 160.245 138.247C160.517 138.211 160.789 138.174 161.069 138.137C161.774 138.035 161.774 138.035 162.304 137.402C162.21 136.494 162.21 136.494 162.011 135.644C158.836 135.078 155.642 134.658 152.446 134.232C151.864 134.154 151.282 134.076 150.7 133.998C149.487 133.835 148.275 133.673 147.062 133.512C145.509 133.305 143.956 133.096 142.404 132.887C141.205 132.726 140.006 132.566 138.808 132.406C138.235 132.329 137.662 132.253 137.09 132.175C136.291 132.068 135.492 131.961 134.692 131.856C134.34 131.808 134.34 131.808 133.981 131.759C131.838 131.37 131.838 131.37 129.828 131.863Z" fill="black"/>
<path d="M152.252 53.5987C153.846 53.5718 155.437 53.5847 157.031 53.6135C157.365 53.6187 157.699 53.624 158.042 53.6294C173.744 53.9022 189.031 55.6848 204.199 59.8391C204.538 59.9306 204.538 59.9306 204.883 60.024C205.523 60.1981 206.161 60.377 206.799 60.5577C207.342 60.7103 207.342 60.7103 207.896 60.8659C209.38 61.4123 210.501 62.0114 211.329 63.3882C212.105 65.1393 211.994 67.0168 211.995 68.8971C211.999 69.3255 212.004 69.754 212.01 70.1824C212.023 71.3626 212.029 72.5427 212.033 73.723C212.037 74.7257 212.045 75.7285 212.053 76.7312C212.076 79.5652 212.089 82.3993 212.099 85.2334C212.107 87.697 212.119 90.1605 212.132 92.6241C212.152 96.5359 212.166 100.448 212.176 104.36C212.18 105.918 212.186 107.477 212.193 109.036C212.201 110.891 212.204 112.746 212.204 114.6C212.205 115.291 212.207 115.981 212.211 116.672C212.216 117.621 212.216 118.571 212.214 119.52C212.216 119.799 212.219 120.077 212.222 120.364C212.205 122.941 212.205 122.941 211.23 123.926C209.716 124.325 208.199 124.227 206.649 124.146C206.4 124.134 206.151 124.123 205.895 124.111C205.061 124.072 204.226 124.03 203.392 123.989C202.787 123.96 202.181 123.932 201.575 123.904C200.259 123.842 198.943 123.779 197.627 123.715C194.395 123.559 191.164 123.409 187.932 123.258C187.16 123.223 186.388 123.187 185.616 123.151C179.04 122.844 172.464 122.559 165.888 122.285C165.419 122.265 164.949 122.246 164.48 122.226C160.097 122.043 155.714 121.861 151.331 121.681C149.585 121.609 147.839 121.537 146.093 121.464C145.084 121.422 144.075 121.38 143.066 121.339C138.963 121.173 134.863 120.983 130.765 120.736C130.342 120.71 129.919 120.685 129.496 120.661C128.912 120.626 128.328 120.59 127.744 120.553C127.409 120.533 127.074 120.512 126.729 120.491C125.976 120.41 125.976 120.41 125.683 120.117C125.653 119.384 125.641 118.658 125.642 117.924C125.641 117.691 125.641 117.459 125.64 117.219C125.637 116.434 125.637 115.649 125.636 114.864C125.635 114.304 125.633 113.743 125.632 113.182C125.628 111.655 125.626 110.127 125.625 108.599C125.624 107.644 125.623 106.689 125.621 105.734C125.617 102.747 125.615 99.7591 125.613 96.7715C125.612 93.3239 125.607 89.8763 125.599 86.4287C125.592 83.7642 125.589 81.0997 125.589 78.4352C125.589 76.844 125.587 75.2528 125.582 73.6616C125.577 72.1625 125.576 70.6635 125.579 69.1644C125.579 68.6159 125.578 68.0673 125.575 67.5188C125.561 64.7138 125.572 62.1413 126.562 59.4728C126.677 59.1586 126.792 58.8444 126.91 58.5207C128.29 56.4276 130.013 55.3519 132.422 54.7853C133.887 54.5636 135.358 54.4306 136.835 54.3093C137.044 54.2911 137.253 54.273 137.468 54.2543C142.392 53.8285 147.312 53.6912 152.252 53.5987ZM130.14 101.535C129.669 102.478 129.671 103.2 129.668 104.252C129.667 104.444 129.667 104.635 129.666 104.832C129.665 105.235 129.667 105.638 129.67 106.042C129.675 106.658 129.67 107.274 129.665 107.891C129.665 108.283 129.667 108.676 129.668 109.068C129.669 109.424 129.67 109.78 129.671 110.147C129.717 111.008 129.717 111.008 130.104 111.534C130.974 112.125 131.672 111.946 132.706 111.856C132.912 111.839 133.119 111.822 133.331 111.805C134.005 111.749 134.678 111.685 135.351 111.621C135.8 111.582 136.248 111.542 136.697 111.503C138.151 111.373 139.603 111.232 141.056 111.09C141.59 111.039 142.123 110.987 142.657 110.936C143.765 110.829 144.873 110.722 145.981 110.614C147.398 110.476 148.814 110.339 150.231 110.203C151.328 110.097 152.426 109.991 153.524 109.885C154.046 109.834 154.569 109.784 155.091 109.734C155.82 109.663 156.549 109.592 157.277 109.521C157.49 109.501 157.703 109.48 157.922 109.459C160.257 109.422 160.257 109.422 162.195 108.472C162.366 107.787 162.366 107.787 162.021 107.073C161.18 106.049 160.286 105.987 159.036 105.803C158.476 105.708 157.916 105.614 157.356 105.519C157.032 105.466 156.709 105.414 156.375 105.359C155.122 105.151 153.873 104.927 152.623 104.7C150.346 104.288 148.069 103.88 145.791 103.476C144.189 103.191 142.586 102.905 140.983 102.618C139.944 102.432 138.904 102.248 137.865 102.063C137.37 101.975 136.876 101.887 136.382 101.798C135.695 101.675 135.009 101.553 134.322 101.432C134.121 101.396 133.919 101.359 133.711 101.322C131.81 100.88 131.81 100.88 130.14 101.535Z" fill="black"/>
<path d="M133.007 48.5051C133.332 48.5078 133.332 48.5078 133.664 48.5106C141.382 48.5749 149.1 49.3163 156.738 50.3911C156.738 50.4878 156.738 50.5845 156.738 50.6841C154.369 50.7286 152.03 50.5984 149.667 50.4333C145.869 50.1747 142.074 50.0289 138.266 50.0104C137.784 50.0079 137.301 50.0039 136.819 49.9984C130.221 49.9298 124.253 51.0351 119.238 55.6646C118.079 57.4025 118.316 59.4671 118.318 61.487C118.317 61.81 118.316 62.1331 118.315 62.4659C118.313 63.5543 118.313 64.6426 118.312 65.731C118.311 66.5168 118.309 67.3026 118.308 68.0884C118.305 69.7998 118.302 71.5113 118.301 73.2227C118.299 75.7676 118.295 78.3125 118.291 80.8573C118.284 85.1381 118.278 89.4189 118.273 93.6997C118.269 97.9388 118.263 102.178 118.257 106.417C118.257 106.681 118.256 106.944 118.256 107.216C118.254 108.554 118.252 109.892 118.25 111.23C118.236 120.709 118.223 130.189 118.211 139.669C118.2 148.879 118.188 158.089 118.175 167.299C118.174 167.583 118.174 167.867 118.174 168.16C118.17 171.01 118.165 173.86 118.161 176.711C118.153 182.518 118.145 188.324 118.137 194.131C118.137 194.398 118.136 194.665 118.136 194.94C118.111 212.773 118.088 230.605 118.066 248.438C117.872 248.535 117.679 248.631 117.48 248.731C116.894 248.438 116.894 248.438 116.639 247.881C116.232 247.125 115.866 246.917 115.119 246.504C114.747 246.293 114.747 246.293 114.367 246.077C114.095 245.926 113.823 245.774 113.543 245.618C110.965 244.139 108.464 242.572 105.999 240.912C105.835 240.802 105.671 240.692 105.502 240.578C104.83 240.125 104.158 239.672 103.486 239.218C102.284 238.406 101.076 237.6 99.8661 236.798C96.9397 234.859 94.0136 232.919 91.1308 230.915C90.8348 230.712 90.8348 230.712 90.5327 230.505C88.9795 229.413 87.9199 228.3 87.3039 226.465C87.2293 225.647 87.2293 225.647 87.2273 224.734C87.2251 224.385 87.2229 224.036 87.2206 223.676C87.2212 223.293 87.2218 222.911 87.2223 222.516C87.2209 222.104 87.2192 221.692 87.2172 221.28C87.2126 220.146 87.2116 219.012 87.2112 217.879C87.2101 216.654 87.2056 215.428 87.2016 214.203C87.1942 211.791 87.1899 209.378 87.1866 206.966C87.1825 204.113 87.1752 201.261 87.1677 198.409C87.1543 193.263 87.1437 188.118 87.1346 182.973C87.1259 178.084 87.1159 173.196 87.1039 168.308C87.1032 168.012 87.1025 167.717 87.1018 167.413C87.0989 166.223 87.0959 165.032 87.093 163.842C87.0663 152.954 87.0451 142.066 87.03 131.179C87.0206 124.396 87.0077 117.613 86.9875 110.83C86.9749 106.611 86.9653 102.392 86.9581 98.1734C86.9534 95.4997 86.9462 92.826 86.9355 90.1523C86.9286 88.364 86.9248 86.5758 86.9237 84.7875C86.9229 83.7678 86.9208 82.7482 86.9147 81.7285C86.9089 80.6304 86.9085 79.5324 86.9094 78.4343C86.9065 78.1173 86.9035 77.8004 86.9004 77.4738C86.9098 75.4587 87.07 73.681 88.377 72.0481C89.9648 70.756 91.638 69.6841 93.4013 68.6467C94.0043 68.2859 94.607 67.9246 95.2095 67.563C95.5077 67.3846 95.8058 67.2062 96.113 67.0224C97.3437 66.2802 98.5601 65.5166 99.7734 64.7466C99.9932 64.6074 100.213 64.4682 100.439 64.3247C101.714 63.5163 102.985 62.7032 104.255 61.889C104.69 61.6106 104.69 61.6106 105.134 61.3265C105.697 60.9665 106.259 60.6056 106.821 60.2439C109.52 58.5164 109.52 58.5164 110.741 58.0083C110.935 58.105 111.128 58.2017 111.327 58.3013C111.072 58.4876 111.072 58.4876 110.812 58.6778C103.31 64.3109 102.566 75.49 101.312 84.1476C100.308 91.2278 99.6648 98.3489 99.0227 105.469C99.0039 105.677 98.9851 105.885 98.9658 106.099C97.8888 118.035 96.89 129.976 95.9831 141.926C95.9644 142.172 95.9456 142.419 95.9263 142.673C95.6812 145.896 95.4416 149.12 95.2141 152.344C95.1944 152.621 95.1747 152.899 95.1544 153.184C94.8875 157.04 94.8503 160.895 94.8479 164.759C94.8476 165.088 94.8473 165.418 94.847 165.758C94.8595 186.636 97.7422 207.978 106.64 227.051C106.739 227.266 106.838 227.48 106.94 227.701C110.605 236.178 110.605 236.178 116.601 242.579C116.601 242.418 116.6 242.257 116.6 242.091C116.575 224.579 116.552 207.066 116.539 189.554C116.539 189.292 116.538 189.031 116.538 188.761C116.534 183.078 116.53 177.394 116.526 171.711C116.524 168.924 116.522 166.137 116.52 163.35C116.52 163.072 116.52 162.795 116.52 162.509C116.514 153.517 116.503 144.524 116.489 135.532C116.475 126.292 116.466 117.053 116.463 107.813C116.463 106.509 116.462 105.204 116.462 103.9C116.462 103.643 116.462 103.386 116.462 103.122C116.46 98.9857 116.453 94.8499 116.444 90.7141C116.436 86.5579 116.432 82.4017 116.435 78.2455C116.436 75.7751 116.433 73.3048 116.424 70.8344C116.418 68.9912 116.419 67.1482 116.424 65.305C116.424 64.5582 116.422 63.8113 116.418 63.0645C116.412 62.0514 116.415 61.0387 116.421 60.0256C116.417 59.7338 116.413 59.4419 116.409 59.1413C116.44 56.5704 117.476 54.9636 119.256 53.156C123.132 49.4457 127.79 48.417 133.007 48.5051Z" fill="black"/>
<path d="M129.376 122.993C129.795 122.995 130.213 122.998 130.632 123C134.877 123.028 139.119 123.168 143.361 123.326C144.191 123.356 145.02 123.386 145.849 123.415C147.82 123.486 149.79 123.558 151.761 123.631C153.35 123.69 154.939 123.748 156.529 123.806C168.325 124.234 180.119 124.683 191.913 125.171C192.207 125.183 192.501 125.195 192.804 125.208C194.732 125.288 196.66 125.369 198.588 125.45C198.942 125.465 198.942 125.465 199.303 125.48C200.838 125.545 202.372 125.613 203.906 125.684C204.275 125.701 204.275 125.701 204.652 125.718C205.411 125.753 206.171 125.789 206.93 125.827C207.163 125.837 207.396 125.848 207.636 125.859C208.763 125.916 209.835 126.006 210.938 126.27C210.836 127.013 210.766 127.348 210.16 127.814C207.64 128.903 205.135 128.69 202.459 128.569C201.928 128.55 201.398 128.532 200.868 128.514C199.733 128.475 198.599 128.433 197.465 128.388C195.712 128.319 193.958 128.264 192.204 128.212C189.723 128.138 187.243 128.062 184.762 127.982C184.439 127.972 184.116 127.961 183.783 127.951C183.119 127.929 182.455 127.908 181.791 127.886C180.408 127.842 179.024 127.797 177.641 127.753C174.376 127.649 171.112 127.544 167.848 127.438C164.503 127.33 161.157 127.223 157.812 127.116C154.911 127.024 152.01 126.93 149.109 126.837C147.388 126.782 145.668 126.726 143.947 126.672C142.334 126.62 140.721 126.568 139.108 126.516C138.522 126.497 137.936 126.478 137.349 126.459C134.359 126.364 131.369 126.258 128.38 126.128C128.113 126.117 127.847 126.107 127.572 126.096C125.718 126.011 125.718 126.011 125.391 125.684C124.898 125.616 124.403 125.563 123.907 125.519C123.638 125.494 123.369 125.47 123.092 125.445C122.883 125.427 122.675 125.409 122.461 125.391C122.278 124.841 122.278 124.841 122.168 124.219C123.907 122.48 127.112 122.97 129.376 122.993Z" fill="black"/>
</g>
<defs>
<clipPath id="clip0_50_418">
<rect width="300" height="300" fill="white"/>
</clipPath>
</defs>
</svg>
