<svg width="300" height="300" viewBox="0 0 300 300" fill="none" xmlns="http://www.w3.org/2000/svg">
<path d="M128.32 67.0899C128.394 68.8679 128.232 70.3601 127.734 72.0704C129.33 71.9254 129.33 71.9254 130.957 71.7774C131.287 73.0958 131.287 73.0958 130.894 74.0891C130.814 74.2969 130.734 74.5046 130.651 74.7186C130.521 75.0392 130.521 75.0392 130.389 75.3663C130.262 75.6937 130.262 75.6937 130.131 76.0278C129.921 76.5653 129.707 77.1012 129.492 77.6368C129.687 77.5734 129.881 77.5099 130.082 77.4446C130.34 77.363 130.599 77.2814 130.865 77.1974C131.12 77.1158 131.375 77.0342 131.638 76.9502C132.425 76.7571 133.08 76.7014 133.887 76.7579C133.983 76.8546 134.08 76.9513 134.18 77.0509C134.065 78.5107 133.723 79.5851 133.008 80.8595C133.195 80.8916 133.382 80.9237 133.574 80.9567C133.937 81.0264 133.937 81.0264 134.308 81.0975C134.549 81.1417 134.791 81.1859 135.039 81.2314C135.239 81.302 135.439 81.3726 135.645 81.4454C135.741 81.7354 135.838 82.0255 135.938 82.3243C135.59 82.9457 135.59 82.9457 135.059 83.6244C134.889 83.8476 134.72 84.0708 134.546 84.3007C132.652 86.1979 130.99 86.303 128.412 86.316C127.813 86.3235 127.213 86.3333 126.614 86.3458C126.351 86.3475 126.088 86.3493 125.817 86.3511C125.059 86.4299 124.578 86.6292 123.926 87.0118C124.094 88.1634 124.094 88.1634 124.805 89.0626C125.472 89.1831 126.145 89.2771 126.819 89.3556C129.074 89.6192 129.074 89.6192 130.078 90.2345C131.23 92.0968 131.643 93.9941 132.037 96.1305C132.101 96.464 132.164 96.7976 132.229 97.1413C132.754 100.081 132.899 102.974 132.983 105.952C133.15 110.543 134.606 114.016 137.988 117.188C138.378 117.472 138.774 117.748 139.178 118.012C140.039 118.652 140.039 118.652 140.167 119.476C140.125 119.688 140.083 119.899 140.039 120.117C138.274 120.905 137.248 121.076 135.352 120.703C135.4 120.903 135.448 121.102 135.498 121.307C135.665 122.29 135.664 123.224 135.645 124.219C134.421 124.685 133.438 124.867 132.129 124.805C132.419 126.11 132.419 126.11 132.715 127.442C130.018 130.028 126.787 131.701 123.515 133.449C119.834 135.394 119.834 135.394 116.602 137.988C116.322 138.256 116.322 138.256 116.037 138.529C113.297 141.393 111.936 145.277 111.786 149.194C111.881 152.65 112.772 155.987 114.844 158.789C115.019 159.03 115.195 159.27 115.376 159.518C119.189 163.904 125.434 165.136 130.957 165.527C132.612 165.584 134.266 165.602 135.921 165.62C136.397 165.626 136.872 165.632 137.347 165.639C138.589 165.655 139.831 165.669 141.072 165.683C142.567 165.701 144.062 165.72 145.557 165.739C147.819 165.768 150.081 165.794 152.344 165.82C152.344 162.147 152.344 158.473 152.344 154.688C158.239 154.664 158.239 154.664 160.791 154.659C162.519 154.656 164.247 154.651 165.975 154.643C167.371 154.637 168.767 154.634 170.163 154.632C170.691 154.631 171.218 154.629 171.745 154.626C179.779 154.579 188.081 154.907 194.178 160.783C194.591 161.19 195.001 161.601 195.41 162.012C195.653 162.237 195.895 162.462 196.145 162.694C200.632 166.935 203.76 172.321 206.854 177.603C209.393 181.924 212.159 185.914 215.625 189.551C215.897 189.856 215.897 189.856 216.174 190.167C219.176 193.406 223.516 195.621 227.93 195.996C231.255 196.03 234.148 195.425 236.773 193.305C239.384 190.699 240.017 187.223 240.07 183.673C240.043 179.601 238.303 176.103 235.562 173.113C234.13 171.792 232.532 170.786 230.695 170.142C229.426 170.234 228.625 170.722 227.52 171.322C225.327 172.352 222.87 172.053 220.605 171.387C216.575 169.887 213.867 166.987 212.055 163.145C210.804 160.272 210.544 157.476 210.516 154.376C210.512 153.948 210.512 153.948 210.507 153.51C210.528 151.826 210.741 150.618 211.523 149.121C212.441 149.58 212.548 150.509 212.878 151.428C213.711 153.642 214.81 155.631 216.504 157.324C216.49 157.117 216.477 156.909 216.463 156.695C216.294 151.708 216.873 145.161 219.141 140.625C220.292 141.009 220.348 141.413 220.898 142.474C222.813 145.847 225.674 148.38 228.537 150.943C230.938 153.135 232.434 155.558 232.69 158.851C232.722 160.554 232.621 162.127 232.159 163.77C232.007 164.465 232.012 165.111 232.031 165.82C232.293 165.938 232.555 166.055 232.825 166.176C238.227 168.681 241.457 172.752 243.553 178.27C245.035 183.035 244.885 188.452 242.788 193.005C240.867 196.461 238.303 198.934 234.558 200.171C227.96 202.026 220.906 200.154 215.039 196.875C213.905 196.157 212.854 195.381 211.816 194.531C211.611 194.37 211.405 194.208 211.193 194.042C208.584 191.897 206.657 189.039 204.616 186.373C202.499 183.588 202.499 183.588 200.098 181.055C199.435 181.717 199.714 183.378 199.711 184.297C199.753 187.061 200.4 189.709 202.148 191.895C202.31 192.119 202.472 192.343 202.639 192.574C203.472 193.535 204.392 194.206 205.426 194.934C205.82 195.218 206.214 195.502 206.607 195.787C206.797 195.923 206.987 196.06 207.183 196.2C211.053 198.979 211.053 198.979 211.816 201.27C211.846 202.137 211.859 202.997 211.859 203.865C211.86 204.263 211.86 204.263 211.862 204.669C211.865 205.549 211.865 206.428 211.866 207.308C211.867 207.919 211.868 208.53 211.869 209.141C211.87 210.424 211.871 211.707 211.871 212.989C211.871 214.631 211.875 216.272 211.88 217.914C211.883 219.177 211.884 220.44 211.883 221.703C211.884 222.309 211.885 222.914 211.887 223.519C211.89 224.366 211.889 225.214 211.888 226.062C211.889 226.311 211.891 226.559 211.893 226.816C211.883 228.549 211.794 230.146 210.681 231.555C209.388 232.544 207.886 232.368 206.32 232.367C206.062 232.368 205.803 232.369 205.536 232.37C204.681 232.373 203.826 232.373 202.971 232.374C202.377 232.374 201.783 232.375 201.189 232.376C199.945 232.378 198.701 232.379 197.456 232.379C195.859 232.379 194.263 232.383 192.666 232.388C191.44 232.391 190.214 232.391 188.988 232.391C188.399 232.392 187.81 232.393 187.221 232.395C186.399 232.398 185.577 232.397 184.755 232.395C184.511 232.397 184.266 232.399 184.015 232.4C182.875 232.394 182.318 232.385 181.348 231.738C181.731 227.747 183.452 223.879 186.437 221.14C187.979 220.07 189.484 219.934 191.318 219.952C191.539 219.952 191.76 219.952 191.987 219.953C192.452 219.953 192.917 219.956 193.382 219.959C194.09 219.965 194.797 219.965 195.505 219.965C195.959 219.967 196.412 219.968 196.866 219.97C197.18 219.971 197.18 219.971 197.501 219.971C198.689 219.983 199.811 220.084 200.977 220.313C200.723 217.64 200.312 215.037 199.713 212.421C199.658 212.168 199.603 211.915 199.546 211.655C199.08 209.698 198.405 207.774 196.951 206.33C196.045 205.82 195.348 205.844 194.312 205.838C194.12 205.835 193.928 205.832 193.731 205.828C193.119 205.818 192.507 205.814 191.895 205.811C185.9 205.778 181.712 204.545 177.428 200.289C176.385 199.226 175.381 198.13 174.387 197.02C173.889 196.465 173.387 195.93 172.852 195.41C171.819 196.156 171.819 196.156 171.094 197.168C170.867 199.471 171.29 201.283 172.119 203.412C173.059 206.039 173.92 208.597 172.879 211.346C171.78 213.205 170.025 214.696 168.487 216.193C167.801 216.863 167.154 217.548 166.534 218.28C165.535 219.459 164.443 220.535 163.337 221.613C162.541 222.395 161.788 223.196 161.06 224.042C159.776 225.525 158.41 226.92 157.031 228.314C156.778 228.576 156.525 228.837 156.264 229.107C153.399 232.001 151.082 232.321 147.091 232.362C146.322 232.364 145.554 232.365 144.785 232.363C144.372 232.363 143.96 232.364 143.547 232.364C142.688 232.365 141.829 232.364 140.97 232.363C139.871 232.361 138.772 232.362 137.674 232.364C136.824 232.365 135.974 232.364 135.124 232.364C134.719 232.363 134.314 232.364 133.909 232.364C133.343 232.365 132.778 232.364 132.212 232.362C131.731 232.362 131.731 232.362 131.239 232.362C130.421 232.326 129.694 232.255 128.906 232.031C128.223 230.664 128.461 229.033 128.879 227.613C130.024 224.694 131.247 223.085 134.101 221.761C135.425 221.21 136.573 221.135 137.988 221.137C138.212 221.136 138.436 221.136 138.667 221.136C140.191 221.15 141.604 221.326 143.097 221.645C144.961 221.974 146.815 222.046 148.535 221.191C150.351 219.654 151.631 217.385 152.95 215.426C153.529 214.567 154.119 213.719 154.722 212.876C154.869 212.668 155.017 212.46 155.169 212.245C155.451 211.847 155.736 211.451 156.023 211.056C156.789 209.968 157.35 209.092 157.324 207.715C156.654 206.386 155.684 205.473 154.605 204.478C151.073 201.202 148.935 197.402 148.663 192.536C148.607 191.552 148.554 190.78 148.242 189.844C142.826 190.966 137.615 192.416 132.392 194.238C132.175 194.313 131.958 194.389 131.734 194.466C131.329 194.607 130.925 194.749 130.522 194.893C129.292 195.323 128.143 195.557 126.855 195.703C126.823 195.857 126.79 196.011 126.756 196.169C126.295 197.978 125.549 199.558 124.677 201.196C124.508 201.513 124.508 201.513 124.336 201.836C123.672 203.06 122.959 204.225 122.168 205.371C121.245 204.975 120.758 204.583 120.177 203.767C120.035 203.57 119.893 203.374 119.748 203.172C119.604 202.967 119.46 202.762 119.312 202.551C119.163 202.344 119.015 202.137 118.862 201.924C118.497 201.415 118.135 200.903 117.773 200.391C116.429 202.334 115.223 204.344 114.039 206.388C111.813 210.231 109.524 214.034 107.212 217.826C106.331 219.27 105.458 220.72 104.592 222.173C104.037 223.103 103.478 224.03 102.918 224.957C102.669 225.371 102.42 225.786 102.173 226.202C100.915 228.314 99.762 230.219 97.5586 231.445C97.3913 231.55 97.224 231.654 97.0516 231.761C94.7131 232.711 91.8732 232.372 89.3898 232.374C88.9376 232.374 88.4853 232.375 88.0331 232.376C87.089 232.378 86.1449 232.379 85.2008 232.379C83.9938 232.379 82.7868 232.383 81.5798 232.388C80.6473 232.391 79.7148 232.391 78.7824 232.391C78.3374 232.392 77.8923 232.393 77.4473 232.395C76.8249 232.398 76.2025 232.397 75.5801 232.395C75.2267 232.396 74.8734 232.396 74.5093 232.397C73.5098 232.322 72.7098 232.097 71.7773 231.738C71.1581 229.468 71.9804 227.462 73.0442 225.432C74.4078 223.246 76.2784 221.311 78.8086 220.606C81.1599 220.397 83.4856 220.664 85.814 220.983C88.8583 221.436 88.8583 221.436 91.6992 220.606C92.17 219.47 92.3517 218.285 92.5644 217.078C92.673 216.52 92.7816 215.962 92.8906 215.404C93.0055 214.81 93.1167 214.215 93.2272 213.62C93.4528 212.414 93.6954 211.211 93.9428 210.009C94.3204 208.171 94.6927 206.333 95.0606 204.493C95.3121 203.235 95.5649 201.978 95.8188 200.72C95.986 199.891 96.1522 199.061 96.318 198.231C96.4325 197.66 96.5481 197.089 96.6636 196.517C97.3358 193.139 97.936 189.793 97.9317 186.341C97.9376 185.816 97.9437 185.291 97.95 184.767C97.9566 183.965 97.9614 183.163 97.9631 182.361C97.9851 176.257 98.9188 170.058 103.043 165.231C103.477 164.676 103.477 164.676 103.407 164.019C103.052 162.672 102.643 161.477 101.953 160.254C97.0661 164.621 94.3041 170.756 93.9307 177.294C93.8733 178.834 93.8633 180.374 93.8599 181.915C93.8551 182.707 93.8486 183.498 93.8389 184.29C93.8332 184.776 93.8304 185.263 93.831 185.749C93.8204 186.877 93.8046 187.418 93.1641 188.379C87.8643 186.467 84.1879 180.553 81.7875 175.725C79.2665 170.339 77.666 164.279 77.3952 158.33C77.3703 157.576 77.3703 157.576 77.0508 156.738C76.3851 157.306 75.7199 157.873 75.0549 158.441C74.8667 158.602 74.6784 158.762 74.4844 158.927C74.3022 159.083 74.12 159.239 73.9323 159.399C73.765 159.542 73.5978 159.684 73.4255 159.832C72.9375 160.249 72.9375 160.249 72.5033 160.747C72.0703 161.133 72.0703 161.133 71.1914 161.133C71.0789 158.353 71.3221 155.904 72.0703 153.223C71.8894 153.23 71.7085 153.236 71.5221 153.243C69.3092 153.291 67.3076 153.105 65.332 152.051C65.7651 150.912 66.3345 150.564 67.3828 149.982C71.6075 147.368 73.6953 143.154 75.6947 138.783C77.7324 134.338 80.4749 131.21 83.9802 127.856C84.4077 127.448 84.4077 127.448 84.668 126.856C84.4093 126.785 84.1506 126.714 83.884 126.642C82.8245 126.237 82.2202 125.772 81.3904 125.006C81.1445 124.784 80.8987 124.561 80.6454 124.332C79.9786 123.631 79.4996 123.05 79.1016 122.168C79.2272 121.39 79.2272 121.39 79.3945 120.703C79.6053 120.7 79.8161 120.698 80.0333 120.695C89.0864 120.547 95.2711 117.89 101.691 111.279C103.258 109.557 103.804 108.435 103.711 106.055C99.6227 103.938 93.8351 103.124 89.3337 104.347C87.7382 105.033 86.539 106.114 85.5469 107.52C85.0635 107.423 84.5801 107.326 84.082 107.227C83.9293 105.432 84.2731 104.065 85.2539 102.539C87.0156 100.628 89.321 100.039 91.8354 99.8097C93.8452 99.7421 95.368 99.9413 97.1878 100.794C98.1852 101.215 99.1209 101.288 100.195 101.367C99.1564 98.4339 96.8079 96.1236 94.1711 94.5191C91.3869 93.2448 88.179 94.0797 85.3638 94.8442C84.3249 95.2337 83.5261 95.758 82.6172 96.3868C82.4238 96.3868 82.2305 96.3868 82.0312 96.3868C81.9463 96.5571 81.8613 96.7275 81.7738 96.9029C81.5737 97.3023 81.3708 97.7002 81.1626 98.0954C80.2862 99.8799 79.9366 101.692 79.6028 103.636C79.3945 104.59 79.3945 104.59 78.8086 105.469C78.2627 105.415 78.2627 105.415 77.6367 105.176C76.7036 103.49 76.2556 101.525 76.1719 99.6095C76.1568 99.3447 76.1417 99.08 76.1261 98.8072C76.0241 95.5321 76.7159 92.6893 78.5156 89.9415C78.6848 89.6817 78.854 89.4219 79.0283 89.1542C81.0135 87.1138 83.6694 85.8126 86.4853 85.4142C88.9651 85.0499 90.0352 84.2134 91.4972 82.2723C91.6788 82.0267 91.6788 82.0267 91.864 81.7761C94.3062 78.6412 98.2545 78.4025 101.953 77.8932C106.578 77.1886 110.774 75.8177 115.137 74.1212C115.39 74.0251 115.643 73.9291 115.904 73.8301C118.714 72.7533 120.99 71.33 123.34 69.4337C123.935 68.9906 124.533 68.551 125.134 68.1153C125.395 67.925 125.655 67.7347 125.924 67.5385C126.888 66.861 127.2 66.7539 128.32 67.0899ZM100.281 86.3721C99.6928 87.3657 99.5215 88.1913 99.6964 89.3418C100.161 90.9858 101.067 91.668 102.493 92.5405C103.869 93.2606 105.121 93.3073 106.641 93.1642C108.011 92.673 108.819 92.0725 109.57 90.8204C109.952 89.5562 109.953 88.7116 109.479 87.4696C109.058 86.6947 109.058 86.6947 108.398 86.4259C107.665 86.3642 106.936 86.3158 106.201 86.2794C104.563 86.1951 102.962 86.0607 101.343 85.7793C100.725 85.7844 100.725 85.7844 100.281 86.3721Z" fill="black"/>
<path d="M162.282 83.4214C162.626 83.4205 162.969 83.4196 163.324 83.4187C164.271 83.4167 165.219 83.4174 166.167 83.4192C167.191 83.4206 168.216 83.4185 169.24 83.4169C171.244 83.4143 173.248 83.4149 175.252 83.4166C176.88 83.4179 178.508 83.4181 180.136 83.4174C180.368 83.4173 180.6 83.4172 180.839 83.4172C181.31 83.417 181.781 83.4168 182.252 83.4166C186.666 83.4149 191.079 83.4168 195.493 83.42C199.282 83.4226 203.07 83.4221 206.859 83.4194C211.26 83.4163 215.66 83.4151 220.061 83.4169C220.53 83.4171 220.999 83.4172 221.468 83.4174C221.699 83.4175 221.929 83.4176 222.167 83.4177C223.794 83.4182 225.422 83.4174 227.049 83.416C229.03 83.4143 231.012 83.4148 232.993 83.4179C234.004 83.4194 235.015 83.42 236.026 83.4181C237.121 83.4165 238.215 83.4185 239.31 83.4214C239.632 83.4201 239.953 83.4188 240.285 83.4175C240.723 83.4198 240.723 83.4198 241.169 83.4221C241.422 83.4222 241.675 83.4223 241.935 83.4224C242.579 83.4958 242.579 83.4958 243.458 84.0818C243.079 87.356 240.485 90.2595 238.029 92.3215C236.153 93.7443 234.182 94.8488 232.032 95.8005C231.816 95.8972 231.601 95.9939 231.378 96.0935C227.752 97.5085 223.173 97.0138 219.338 97.0057C218.783 97.0056 218.229 97.0056 217.674 97.0058C216.181 97.0059 214.689 97.0042 213.197 97.0021C211.632 97.0003 210.067 97.0001 208.502 96.9998C205.545 96.9988 202.588 96.9964 199.631 96.9935C196.262 96.9902 192.893 96.9886 189.524 96.9871C182.6 96.9841 175.675 96.9789 168.751 96.9724C168.751 97.4558 168.751 97.9392 168.751 98.4372C169.245 98.5793 169.739 98.7192 170.234 98.8584C170.509 98.9366 170.784 99.0147 171.068 99.0953C172.896 99.5413 174.669 99.6531 176.54 99.6555C176.785 99.6569 177.031 99.6584 177.285 99.6599C178.104 99.6643 178.924 99.6668 179.743 99.6693C180.332 99.6721 180.921 99.675 181.511 99.6781C183.107 99.686 184.704 99.6921 186.3 99.698C187.97 99.7044 189.64 99.7124 191.309 99.7203C194.47 99.7349 197.63 99.748 200.79 99.7607C204.389 99.7752 207.987 99.7913 211.586 99.8075C218.987 99.8408 226.388 99.8721 233.79 99.9021C234.133 101.269 234.133 101.269 233.68 102.154C233.432 102.484 233.174 102.807 232.911 103.125C232.728 103.346 232.546 103.567 232.358 103.795C230.123 106.387 227.722 108.438 224.671 109.991C224.482 110.088 224.293 110.185 224.099 110.284C221.059 111.755 218.016 111.702 214.721 111.687C214.216 111.687 213.71 111.687 213.205 111.688C211.839 111.688 210.473 111.684 209.107 111.68C207.677 111.677 206.247 111.676 204.817 111.676C202.113 111.674 199.408 111.669 196.703 111.663C193.622 111.656 190.542 111.653 187.461 111.65C181.127 111.644 174.792 111.634 168.458 111.621C168.554 112.201 168.651 112.781 168.751 113.379C172.018 114.103 175.106 114.385 178.448 114.37C178.929 114.371 179.41 114.373 179.891 114.375C180.917 114.378 181.942 114.379 182.968 114.378C184.589 114.376 186.211 114.381 187.832 114.386C191.56 114.398 195.289 114.402 199.018 114.405C202.448 114.408 205.879 114.413 209.309 114.425C210.922 114.43 212.534 114.431 214.146 114.429C215.146 114.429 216.145 114.432 217.144 114.436C217.609 114.437 218.073 114.437 218.537 114.435C219.169 114.432 219.8 114.435 220.432 114.44C220.786 114.44 221.14 114.44 221.505 114.44C222.364 114.551 222.364 114.551 222.924 114.997C223.029 115.14 223.134 115.282 223.243 115.429C221.3 120 216.503 122.677 212.11 124.511C208.857 125.665 205.661 125.726 202.244 125.717C201.81 125.717 201.377 125.717 200.944 125.717C199.773 125.717 198.603 125.715 197.432 125.713C196.207 125.711 194.981 125.711 193.756 125.711C191.438 125.71 189.12 125.707 186.802 125.704C184.162 125.701 181.523 125.7 178.883 125.698C173.455 125.695 168.026 125.69 162.598 125.683C163.625 127.304 164.552 128.288 166.407 128.906C166.939 128.934 167.473 128.945 168.006 128.946C168.339 128.948 168.671 128.95 169.013 128.951C169.378 128.952 169.743 128.952 170.119 128.952C170.708 128.954 171.298 128.957 171.887 128.959C172.521 128.961 173.155 128.963 173.789 128.964C175.11 128.967 176.43 128.973 177.751 128.98C181.507 128.998 185.264 129.014 189.02 129.024C191.094 129.029 193.168 129.037 195.243 129.049C196.34 129.056 197.438 129.06 198.536 129.061C199.76 129.061 200.984 129.069 202.208 129.077C202.572 129.076 202.936 129.075 203.312 129.074C203.811 129.079 203.811 129.079 204.321 129.084C204.755 129.086 204.755 129.086 205.198 129.087C206.084 129.218 206.488 129.462 207.13 130.078C207.294 130.755 207.294 130.755 207.13 131.543C206.016 133.251 204.427 134.257 202.735 135.351C202.491 135.51 202.248 135.668 201.997 135.831C198.969 137.724 196.497 138.456 192.912 138.441C192.526 138.444 192.14 138.447 191.742 138.45C190.692 138.458 189.642 138.459 188.592 138.459C187.491 138.46 186.391 138.467 185.29 138.474C183.21 138.486 181.13 138.492 179.049 138.496C176.679 138.501 174.309 138.512 171.939 138.524C167.068 138.548 162.196 138.564 157.325 138.574C157.539 139.56 157.69 139.94 158.552 140.497C161.802 142.303 165.57 142.216 169.181 142.21C170.016 142.209 170.851 142.213 171.686 142.218C173.756 142.231 175.825 142.234 177.895 142.238C179.654 142.241 181.413 142.248 183.172 142.26C183.994 142.263 184.816 142.262 185.638 142.261C186.14 142.264 186.642 142.267 187.144 142.27C187.371 142.268 187.599 142.266 187.834 142.264C189.072 142.279 189.827 142.372 190.723 143.261C190.74 144.086 190.726 144.56 190.43 145.312C187.471 148.364 181.284 150.155 177.169 150.319C176.398 150.329 175.628 150.329 174.857 150.326C174.565 150.326 174.273 150.326 173.973 150.326C173.014 150.326 172.055 150.324 171.096 150.321C170.428 150.321 169.761 150.32 169.094 150.32C167.343 150.319 165.591 150.316 163.839 150.313C162.05 150.31 160.261 150.308 158.472 150.307C154.965 150.304 151.457 150.299 147.95 150.293C147.951 150.62 147.953 150.946 147.955 151.283C147.96 152.491 147.963 153.7 147.966 154.908C147.967 155.432 147.969 155.955 147.972 156.479C147.976 157.23 147.977 157.982 147.978 158.733C147.98 158.968 147.982 159.204 147.983 159.447C147.983 160.009 147.968 160.571 147.95 161.133C147.453 161.629 146.835 161.463 146.173 161.466C145.963 161.466 145.753 161.465 145.537 161.464C145.212 161.465 145.212 161.465 144.879 161.466C144.17 161.466 143.46 161.464 142.75 161.462C142.509 161.462 142.269 161.461 142.021 161.461C138.328 161.453 134.64 161.427 130.958 161.133C130.755 161.117 130.552 161.101 130.343 161.085C125.931 160.711 121.318 159.197 118.224 155.869C116.422 153.481 115.767 150.815 116.136 147.871C116.552 145.733 117.227 144.038 118.653 142.383C118.786 142.227 118.919 142.072 119.056 141.912C120.472 140.371 122.062 139.522 123.926 138.611C124.531 138.305 125.135 137.998 125.738 137.69C126.03 137.542 126.323 137.393 126.624 137.24C133.984 133.427 143.241 127.526 145.899 119.238C145.978 118.402 146.016 117.631 146.007 116.797C146.008 116.562 146.009 116.327 146.011 116.085C146.012 115.577 146.012 115.07 146.01 114.562C146.008 113.756 146.011 112.95 146.015 112.144C146.027 109.854 146.027 107.564 146.027 105.273C146.027 103.869 146.032 102.465 146.041 101.061C146.044 100.271 146.041 99.4824 146.037 98.6933C146.045 94.9961 146.64 92.1254 148.829 89.0622C149.137 88.6181 149.137 88.6181 149.451 88.165C152.647 84.4766 157.668 83.4025 162.282 83.4214Z" fill="black"/>
</svg>
