<svg width="300" height="300" viewBox="0 0 300 300" fill="none" xmlns="http://www.w3.org/2000/svg">
<path d="M250.195 43.6523C251.305 45.455 250.659 47.725 250.288 49.6948C248.474 57.3066 243.394 63.0157 237.305 67.6758C237.141 67.8018 236.977 67.9279 236.808 68.0577C234.156 70.0878 231.421 71.8885 228.516 73.5352C228.26 73.6828 228.26 73.6828 227.999 73.8334C224.701 75.7298 221.212 77.1276 217.676 78.5156C226.588 76.8496 235.059 74.5164 243.256 70.5872C243.603 70.4216 243.95 70.256 244.308 70.0853C247.313 68.6108 250.058 66.8344 252.679 64.7552C253.125 64.4531 253.125 64.4531 253.711 64.4531C253.972 68.3089 252.487 72.1499 249.989 75.0755C249.114 76.0601 248.198 76.9996 247.266 77.9297C247.03 78.1687 246.794 78.4078 246.552 78.6541C239.819 85.1022 229.856 88.2615 221.191 91.1133C224.171 91.2156 227.111 90.9117 230.072 90.6189C230.336 90.593 230.6 90.5672 230.872 90.5405C238.379 89.797 245.999 88.8415 253.138 86.3006C253.711 86.1328 253.711 86.1328 254.59 86.1328C254.43 89.2405 251.703 91.6398 249.528 93.612C241.264 100.676 229.577 103.044 219.087 104.211C218.527 104.274 218.527 104.274 217.969 104.59C227.562 106.433 237.224 107.311 246.973 107.812C246.685 109.121 246.22 109.483 245.135 110.244C242.454 111.915 239.625 113.168 236.646 114.203C236.42 114.284 236.194 114.366 235.961 114.449C231.182 116.029 226.103 116.157 221.118 116.217C220.552 116.227 219.986 116.237 219.42 116.247C218.057 116.272 216.695 116.292 215.332 116.309C216.827 116.799 218.322 117.287 219.818 117.773C220.043 117.847 220.268 117.92 220.5 117.995C223.495 118.968 226.497 119.901 229.523 120.776C236.543 122.812 236.543 122.812 239.355 124.219C239.355 124.412 239.355 124.605 239.355 124.805C235.748 127.287 231.06 127.902 226.758 128.027C226.379 128.039 226 128.051 225.61 128.063C219.934 128.176 214.364 127.471 208.797 126.418C207.461 126.166 206.123 125.926 204.785 125.684C205.035 125.8 205.284 125.915 205.541 126.035C210.482 128.332 215.4 130.667 220.276 133.099C220.491 133.206 220.707 133.313 220.929 133.424C221.541 133.728 222.153 134.034 222.764 134.341C223.034 134.475 223.034 134.475 223.31 134.612C224.236 135.08 225.072 135.577 225.879 136.23C225.827 136.776 225.827 136.776 225.586 137.402C224.914 137.763 224.914 137.763 224.066 138.043C223.79 138.138 223.514 138.233 223.23 138.33C216.957 140.095 209.693 138.321 203.613 136.523C203.212 136.406 203.212 136.406 202.803 136.285C201.117 135.788 199.434 135.281 197.754 134.766C201.547 136.949 205.363 139.067 209.27 141.041C214.355 143.636 214.355 143.636 216.211 145.605C216.114 145.896 216.018 146.186 215.918 146.484C208.091 148.461 199.083 144.921 191.895 142.09C192.091 142.236 192.287 142.382 192.488 142.533C196.014 145.169 199.53 147.817 202.954 150.586C203.146 150.74 203.338 150.895 203.536 151.054C204.596 151.918 205.634 152.782 206.543 153.809C206.543 154.099 206.543 154.389 206.543 154.688C204.129 155.895 200.481 154.812 198.077 154.02C193.654 152.499 189.546 150.488 185.449 148.242C185.449 148.532 185.449 148.822 185.449 149.121C185.614 149.189 185.779 149.258 185.948 149.328C186.787 149.801 187.345 150.387 188.013 151.08C189.258 152.351 190.545 153.53 191.895 154.688C197.315 159.376 197.315 159.376 198.047 162.012C191.289 161.86 184.946 157.376 179.883 153.223C179.989 153.364 180.096 153.505 180.206 153.65C187.091 162.8 187.091 162.8 186.914 165.527C181.596 165.291 176.865 159.721 173.438 156.152C174.788 158.676 176.229 161.135 177.71 163.584C177.873 163.856 178.036 164.129 178.204 164.409C178.424 164.774 178.424 164.774 178.649 165.147C178.978 165.77 179.163 166.303 179.297 166.992C178.297 167.411 177.61 167.183 176.623 166.805C176.436 166.728 176.249 166.651 176.056 166.571C175.861 166.491 175.665 166.411 175.464 166.328C171.677 164.701 168.683 161.686 165.82 158.789C165.922 158.959 166.024 159.129 166.129 159.304C167.198 161.085 168.267 162.867 169.336 164.648C169.499 164.895 169.661 165.142 169.829 165.397C170.215 166.113 170.215 166.113 170.215 167.285C166.561 167.649 163.886 166.074 161.082 163.869C159.359 162.443 157.727 160.963 156.152 159.375C156.197 159.542 156.241 159.709 156.287 159.88C156.489 160.645 156.687 161.411 156.885 162.177C156.955 162.439 157.024 162.701 157.096 162.971C157.477 164.454 157.701 165.754 157.617 167.285C156.372 167.7 155.61 167.166 154.486 166.626C154.156 166.469 154.156 166.469 153.819 166.308C151.4 165.117 149.241 163.6 147.07 162.012C146.734 161.769 146.398 161.527 146.061 161.285C145.32 160.75 144.582 160.211 143.848 159.668C146.941 163.58 150.393 167.709 155.273 169.336C155.829 169.356 156.384 169.361 156.94 169.354C157.376 169.35 157.376 169.35 157.822 169.346C158.044 169.343 158.267 169.339 158.496 169.336C159.009 168.231 159.148 167.383 159.119 166.168C159.113 165.882 159.108 165.596 159.103 165.302C159.096 165.086 159.089 164.871 159.082 164.648C160.537 165.43 161.952 166.255 163.348 167.139C166.337 168.991 169.461 170.606 172.559 172.266C178.558 175.483 184.411 178.835 190.137 182.52C190.43 182.708 190.43 182.708 190.73 182.899C195.126 185.727 199.26 188.853 203.027 192.48C203.254 192.689 203.481 192.897 203.715 193.112C209.322 198.412 212.422 205.616 214.939 212.764C215.034 213.031 215.128 213.297 215.225 213.572C215.695 214.912 216.16 216.254 216.616 217.599C219.243 225.246 223.147 232.108 230.613 235.877C232.832 236.929 235.134 237.773 237.598 237.891C238.005 237.913 238.005 237.913 238.42 237.935C243.193 238.081 247.663 237.055 251.459 234.045C255.059 230.592 257.137 225.882 257.325 220.922C257.375 217.403 257.29 214.268 256.055 210.938C255.949 210.633 255.842 210.329 255.733 210.015C254.295 206.222 251.834 203.241 249.023 200.391C248.792 200.155 248.56 199.919 248.321 199.677C241.997 193.626 232.905 191.504 224.694 189.4C220.037 188.185 215.573 186.2 212.93 181.955C212.616 181.373 212.357 180.79 212.109 180.176C212.022 179.973 211.934 179.771 211.844 179.562C210.336 175.487 211.152 171.194 212.695 167.285C212.777 167.067 212.859 166.85 212.943 166.625C214.192 163.33 215.664 160.88 218.262 158.496C218.533 158.245 218.805 157.993 219.085 157.734C223.993 153.431 230.011 150.762 235.84 147.949C236.016 147.863 236.193 147.778 236.374 147.689C239.2 146.32 241.546 145.493 244.702 145.514C244.944 145.514 245.186 145.515 245.435 145.515C247.401 145.546 249.205 145.857 251.074 146.484C251.074 146.774 251.074 147.064 251.074 147.363C249.237 147.847 247.4 148.33 245.508 148.828C246.668 149.263 246.668 149.263 247.852 149.707C253.83 151.976 259.301 154.709 262.5 160.547C262.614 160.753 262.729 160.959 262.847 161.172C263.086 161.719 263.086 161.719 263.086 162.598C259.707 162.23 256.662 160.446 253.671 158.912C252.842 158.477 252.842 158.477 251.953 158.203C252.099 158.424 252.244 158.644 252.394 158.871C255.186 163.238 258.252 168.77 257.076 174.125C257.029 174.285 256.982 174.445 256.934 174.609C256.43 174.577 256.43 174.577 255.762 174.316C255.281 173.714 254.862 173.128 254.443 172.485C252.922 170.262 251.197 168.33 249.316 166.406C249.046 166.129 249.046 166.129 248.77 165.846C248.209 165.274 247.647 164.704 247.083 164.136C246.817 163.868 246.817 163.868 246.546 163.595C245.671 162.694 245.671 162.694 244.629 162.012C244.751 162.229 244.751 162.229 244.876 162.45C245.243 163.108 245.604 163.768 245.966 164.429C246.158 164.77 246.158 164.77 246.354 165.119C246.534 165.45 246.534 165.45 246.717 165.788C246.829 165.991 246.941 166.193 247.057 166.402C247.307 167.11 247.219 167.467 246.973 168.164C244.104 168.091 242.286 166.904 240.316 164.878C239.227 163.548 238.308 162.102 237.393 160.649C236.48 159.218 235.639 158.103 234.082 157.324C231.522 157.158 229.151 157.206 226.758 158.203C226.398 158.353 226.398 158.353 226.031 158.505C222.751 160.011 220.481 162.208 218.555 165.234C218.369 165.523 218.369 165.523 218.18 165.817C216.423 168.914 216.134 172.651 217.019 176.048C218.076 179.278 220.095 181.703 223.125 183.25C224.606 183.974 226.079 184.441 227.673 184.845C227.949 184.918 228.224 184.99 228.507 185.065C230.282 185.531 232.064 185.967 233.846 186.402C243.202 188.695 252.366 191.904 257.812 200.391C262.448 208.123 264.262 217.149 262.216 226.013C260.677 232.016 257.272 237.23 251.953 240.527C246.146 243.739 239.112 245.839 232.523 244.114C229.052 242.942 225.682 241.387 222.445 239.676C221.396 239.172 220.517 239.025 219.36 239.044C218.998 239.05 218.635 239.056 218.262 239.062C217.492 240.404 217.625 241.396 217.969 242.871C218.475 244.28 219.086 245.637 219.715 246.994C220.407 248.519 220.849 249.798 220.276 251.422C219.256 252.952 218.283 253.513 216.483 253.887C214.578 254.147 212.646 254.079 210.727 254.07C210.233 254.07 209.739 254.07 209.245 254.071C207.91 254.071 206.576 254.067 205.241 254.063C203.844 254.06 202.447 254.059 201.05 254.059C198.408 254.057 195.765 254.052 193.122 254.046C190.113 254.04 187.103 254.036 184.093 254.033C177.905 254.027 171.716 254.017 165.527 254.004C165.952 251.691 167.131 250.132 169.025 248.749C171.277 247.3 173.454 247.136 176.074 246.973C172.871 246.133 170.45 245.976 167.479 247.632C165.105 249.194 164.291 251.446 163.184 254.004C161.347 254.004 159.51 254.004 157.617 254.004C157.48 249.537 157.48 249.537 158.984 247.91C160.688 246.27 162.439 245.47 164.813 245.453C165.312 245.48 165.312 245.48 165.82 245.508C165.838 245.209 165.838 245.209 165.857 244.904C166.221 243.681 166.897 242.811 167.871 241.992C169.429 241.166 170.716 240.953 172.467 240.967C172.698 240.968 172.93 240.969 173.168 240.97C175.248 241.028 176.874 241.606 178.711 242.578C182.404 244.422 186.202 244.434 190.247 244.501C191.235 244.521 192.224 244.543 193.213 244.565C193.454 244.57 193.694 244.575 193.943 244.58C196.778 244.642 199.609 244.772 202.441 244.922C202.122 244.787 201.802 244.651 201.473 244.512C194.82 241.654 188.564 237.996 183.105 233.203C182.824 232.961 182.544 232.719 182.254 232.47C175.529 226.573 170.502 218.972 169.666 209.912C169.529 206.835 169.523 202.956 171.525 200.433C174.97 197.547 179.109 197.437 183.398 197.754C189.327 198.737 195.457 202.971 200.391 206.25C195.023 200.702 186.938 195.784 179.068 195.582C178.811 195.58 178.554 195.577 178.29 195.575C178.047 195.572 177.804 195.569 177.554 195.566C175.685 195.593 174.093 195.917 172.529 197.013C169.227 200.459 168.156 204.537 167.578 209.18C166.557 209.527 165.876 209.413 164.837 209.158C164.521 209.084 164.205 209.009 163.879 208.933C163.535 208.851 163.191 208.769 162.836 208.685C157.053 207.391 151.224 206.707 145.316 206.318C145.039 206.299 144.763 206.281 144.478 206.262C143.124 206.174 141.77 206.092 140.415 206.02C137.866 205.875 135.389 205.624 132.887 205.106C132.545 205.035 132.545 205.035 132.197 204.964C130.894 204.673 129.791 204.268 128.613 203.613C128.783 201.458 129.744 199.411 131.36 197.974C133.676 195.84 134.961 192.326 135.167 189.222C135.346 182.96 132.788 177.751 129.492 172.559C129.652 172.998 129.652 172.998 129.815 173.447C130.888 176.54 131.622 179.675 132.239 182.886C132.297 183.179 132.297 183.179 132.357 183.478C133.172 187.608 133.62 191.753 131.836 195.703C131.381 196.353 131.018 196.696 130.371 197.168C130.274 197.168 130.178 197.168 130.078 197.168C130.06 196.903 130.043 196.638 130.024 196.366C130 196.02 129.975 195.675 129.95 195.319C129.926 194.975 129.902 194.632 129.878 194.278C129.818 193.352 129.818 193.352 129.492 192.48C129.442 192.774 129.442 192.774 129.39 193.073C128.308 199.259 126.954 205.07 124.133 210.706C122.892 213.214 122.03 215.797 121.213 218.468C121.015 219.082 120.792 219.674 120.549 220.27C119.849 221.985 119.849 221.985 120.115 223.748C120.567 224.492 121.066 225.178 121.582 225.879C122.963 228.713 123.162 232.152 122.413 235.201C121.926 236.472 121.065 237.856 119.824 238.477C119.774 238.222 119.725 237.967 119.673 237.705C119.101 234.904 119.101 234.904 117.48 232.617C116.092 232.478 115.06 232.605 113.86 233.356C112.596 234.494 111.695 236.37 111.562 238.057C111.465 241.358 111.465 241.358 112.926 244.195C114.352 245.172 116.049 245.731 117.666 246.319C119.684 247.073 120.855 248.087 121.854 249.963C122.459 251.54 122.595 253.211 122.754 254.883C122.44 254.78 122.125 254.677 121.802 254.572C119.968 254.111 118.16 254.425 116.31 254.666C114.548 254.883 112.809 254.937 111.035 254.938C110.762 254.941 110.488 254.945 110.207 254.949C108.642 254.952 107.275 254.786 105.76 254.408C104.165 254.105 102.499 254.837 100.982 255.287C97.1048 255.94 92.9988 255.238 89.1174 254.883C88.4855 254.826 87.8536 254.77 87.2217 254.713C85.6867 254.576 84.1519 254.437 82.6172 254.297C82.9258 252.17 83.8544 251.04 85.556 249.741C87.8934 248.217 90.1072 247.873 92.8711 248.145C93.9882 248.45 95.0379 248.842 96.0938 249.316C95.1277 247.804 93.9771 247.151 92.2852 246.68C89.9715 246.375 88.1409 246.676 86.1328 247.852C85.8677 247.995 85.8677 247.995 85.5972 248.142C83.3452 249.532 82.0096 251.996 80.8594 254.297C78.4424 254.297 76.0254 254.297 73.5352 254.297C73.8663 251.979 74.4876 250.122 76.1719 248.438C78.1697 246.949 80.1896 246.276 82.6172 245.801C82.6957 245.444 82.7743 245.088 82.8552 244.72C83.2126 243.296 83.7798 242.033 84.9609 241.113C87.6989 240.631 89.82 241.267 92.2108 242.487C93.8258 243.138 95.5851 243.041 97.2095 242.436C98.6945 241.409 99.2539 239.514 99.9023 237.891C100.002 237.646 100.101 237.401 100.204 237.148C102.796 230.712 103.971 224.628 103.711 217.676C103.701 217.368 103.701 217.368 103.69 217.054C103.528 213.161 102.907 209.335 102.211 205.507C102.114 204.974 102.019 204.44 101.927 203.905C101.342 200.556 100.476 197.608 98.9874 194.547C96.5908 189.57 96.2658 184.14 96.3867 178.711C94.7487 185.112 96.0583 191.166 98.4341 197.157C100.74 203.066 101.795 208.935 99.6094 215.039C98.5809 217.128 97.0964 218.856 95.6108 220.633C94.8564 221.565 94.1478 222.518 93.457 223.499C93.1307 223.96 93.1307 223.96 92.7979 224.43C92.1384 225.525 92.1384 225.525 91.9922 226.758C92.2908 227.608 92.694 228.394 93.1091 229.193C94.6247 232.153 95.1693 234.539 94.6289 237.891C94.2289 238.917 93.9314 239.467 93.1641 240.234C92.7773 240.234 92.3906 240.234 91.9922 240.234C91.9034 239.98 91.8147 239.725 91.7233 239.463C90.7779 236.825 90.7779 236.825 89.0625 234.668C87.7126 234.218 86.5905 234.226 85.2356 234.668C83.5389 235.823 82.5524 237.38 82.0312 239.355C81.961 240.361 81.961 240.361 81.9946 241.37C81.9999 241.707 82.0052 242.045 82.0107 242.393C82.0174 242.647 82.0242 242.902 82.0312 243.164C81.7201 243.288 81.4089 243.413 81.0883 243.541C77.7239 244.912 77.7239 244.912 75 247.266C74.864 247.422 74.7281 247.579 74.588 247.741C73.1529 249.705 72.6883 252.276 72.0703 254.59C70.6718 254.336 70.6718 254.336 70.0745 253.986C68.4626 253.295 66.8891 253.756 65.2634 254.162C62.0132 254.876 58.6916 254.61 55.3894 254.498C54.732 254.48 54.0745 254.462 53.417 254.444C51.8221 254.4 50.2274 254.351 48.6328 254.297C49.0055 251.466 50.169 249.338 52.4414 247.559C54.5214 246.155 56.7423 246.152 59.1797 246.387C60.2809 246.612 61.3395 246.901 62.4023 247.266C60.9528 245.693 59.32 245.187 57.2021 245.087C54.1128 245.202 51.2019 246.347 48.9258 248.438C47.6434 249.928 46.8902 251.593 46.2193 253.427C45.9961 254.004 45.9961 254.004 45.7031 254.297C44.8645 254.318 44.033 254.324 43.1946 254.315C42.9584 254.314 42.7221 254.313 42.4788 254.311C41.8934 254.308 41.308 254.302 40.7227 254.297C40.9809 251.734 41.6407 249.695 43.5791 247.888C44.7999 246.906 46.4274 245.801 48.0469 245.801C48.1262 245.587 48.2055 245.373 48.2872 245.152C49.0082 243.45 50.1305 241.712 51.5625 240.527C54.2438 239.634 56.4423 240.524 58.8867 241.699C59.213 241.874 59.5393 242.05 59.8755 242.23C61.5541 242.78 63.2935 242.833 65.0391 242.578C66.5883 241.787 67.4465 240.7 68.4082 239.301C68.5567 239.088 68.7053 238.875 68.8583 238.655C70.5632 236.149 72.0011 233.491 73.455 230.835C74.2309 229.42 75.0465 228.038 75.8972 226.666C77.655 223.811 78.8353 221.075 78.9013 217.716C78.9074 217.455 78.9136 217.194 78.9199 216.925C78.9394 216.07 78.9566 215.216 78.9734 214.362C78.9793 214.071 78.9852 213.78 78.9913 213.48C79.0266 211.725 79.0584 209.971 79.0878 208.217C79.1003 207.497 79.114 206.777 79.1283 206.056C79.2682 198.737 78.4168 192.333 76.3794 185.3C76.3109 185.059 76.2424 184.819 76.1719 184.57C76.1089 184.36 76.046 184.149 75.9812 183.933C75.8235 183.109 76.1681 182.615 76.5381 181.879C78.0683 178.67 78.8145 175.878 78.2261 172.307C78.1438 171.799 78.1438 171.799 78.0598 171.282C78.0169 171.026 77.9739 170.771 77.9297 170.508C77.8544 170.729 77.7791 170.951 77.7016 171.179C77.3578 172.189 77.012 173.198 76.6663 174.207C76.5479 174.555 76.4295 174.904 76.3075 175.263C76.1914 175.601 76.0752 175.939 75.9556 176.287C75.8497 176.597 75.7439 176.907 75.6348 177.226C75.2813 178.156 74.9127 179.022 74.4141 179.883C74.124 179.979 73.834 180.076 73.5352 180.176C69.3346 176.376 67.6605 168.857 66.7969 163.477C66.7596 163.246 66.7223 163.015 66.6839 162.777C66.1179 158.931 66.1179 158.931 66.9079 157.441C67.4744 156.83 67.4744 156.83 68.1301 156.242C69.0137 155.41 69.6469 154.506 70.3125 153.497C70.4362 153.31 70.56 153.123 70.6874 152.93C71.8981 151.053 72.8827 149.082 73.8411 147.068C74.3123 146.086 74.8036 145.114 75.293 144.141C75.4622 143.802 75.6313 143.464 75.8057 143.115C75.9265 142.874 76.0474 142.632 76.1719 142.383C76.3652 142.383 76.5586 142.383 76.7578 142.383C76.8269 142.545 76.8961 142.707 76.9673 142.874C79.5861 149.282 79.5861 149.282 84.7355 153.604C85.2518 153.844 85.2518 153.844 85.8398 153.809C85.8854 153.636 85.931 153.463 85.978 153.286C86.1907 152.488 86.4089 151.693 86.6272 150.897C86.6988 150.626 86.7703 150.355 86.8441 150.075C87.4993 147.711 88.3385 145.425 90.2893 143.829C90.4868 143.663 90.6843 143.496 90.8878 143.325C91.4062 142.969 91.4062 142.969 91.9922 142.969C91.9565 143.31 91.9565 143.31 91.9201 143.658C91.7003 147.417 93.3409 150.286 95.7287 153.088C97.9844 155.919 97.9844 155.919 101.074 157.324C101.351 156.493 101.43 155.874 101.483 155.007C101.854 149.482 102.533 144.395 105.176 139.453C105.369 139.356 105.562 139.26 105.762 139.16C105.8 139.601 105.8 139.601 105.838 140.052C106.303 144.807 107.768 149.054 111.567 152.187C113.008 153.2 114.58 154.022 116.309 154.395C116.195 152.826 116.064 151.296 115.704 149.762C114.732 145.062 115.878 140.838 118.359 136.816C118.534 136.525 118.534 136.525 118.712 136.227C119.019 135.736 119.019 135.736 119.531 135.059C119.725 135.059 119.918 135.059 120.117 135.059C120.117 136.025 120.117 136.992 120.117 137.988C121.181 138.343 121.355 138.212 122.333 137.732C124.089 136.808 125.459 135.576 126.855 134.18C127.043 133.992 127.23 133.805 127.423 133.612C131.056 129.719 132.78 124.537 132.751 119.275C132.751 118.911 132.751 118.911 132.751 118.539C132.74 116.565 132.614 114.615 132.429 112.651C132.42 111.336 132.553 110.114 133.421 109.076C133.661 108.886 133.661 108.886 133.905 108.691C138.425 104.444 140.205 97.1276 140.46 91.1316C140.338 87.8699 139.415 84.7795 138.365 81.7131C134.691 70.9614 134.691 70.9614 136.728 66.3551C136.854 66.1142 136.98 65.8732 137.109 65.625C137.303 65.2455 137.303 65.2455 137.5 64.8582C141.469 57.9249 148.826 54.655 156.097 52.2766C156.306 52.2079 156.514 52.1391 156.729 52.0683C165.44 49.2055 174.441 47.5749 183.616 47.376C188.957 47.2552 194.018 46.8015 199.157 45.3006C200.388 44.945 201.437 44.7481 202.734 44.8242C198.093 50.3938 192.914 53.8392 186.009 55.9846C185.113 56.2634 184.22 56.5484 183.326 56.8348C181.789 57.3273 180.251 57.8155 178.711 58.3008C178.711 58.3975 178.711 58.4941 178.711 58.5938C179.136 58.5144 179.136 58.5144 179.569 58.4334C185.178 57.3893 190.786 56.4235 196.436 55.6274C205.587 54.3294 215.404 52.6866 223.242 47.4609C223.925 47.4378 224.61 47.4352 225.293 47.4609C225.589 48.3913 225.634 48.8115 225.248 49.7246C223.985 51.7759 222.662 53.7544 221.191 55.6641C221.048 55.8536 220.904 56.0432 220.755 56.2386C216.679 61.3139 209.928 63.9856 203.906 65.918C215.41 65.6708 229.127 61.2199 238.477 54.4922C238.762 54.2875 239.047 54.0828 239.341 53.8719C243.283 50.9758 247.499 47.7867 250.195 43.6523ZM190.32 76.7029C186.714 78.0972 183.417 78.5446 179.572 78.6255C170.714 78.8276 160.807 80.1482 154.102 86.4258C151.442 89.2384 150.486 92.3934 150.498 96.2048C150.59 98.2764 150.983 100.327 151.341 102.366C151.704 104.5 151.828 106.529 151.758 108.691C151.75 109.026 151.75 109.026 151.742 109.368C151.597 114.428 150.867 119.458 147.467 123.415C147.01 123.895 147.01 123.895 147.07 124.512C146.899 124.592 146.727 124.672 146.55 124.754C145.915 125.089 145.408 125.458 144.849 125.906C143.46 126.965 141.966 127.764 140.424 128.577C136.494 130.466 136.494 130.466 133.008 133.008C132.996 133.594 132.995 134.18 133.008 134.766C135.447 135.985 139.849 134.984 142.383 134.18C147.351 132.204 151.716 128.44 154.102 123.633C156.593 117.779 155.473 111.969 154.253 105.94C153.287 101.148 152.585 95.4775 154.395 90.8203C154.476 90.6039 154.558 90.3875 154.642 90.1646C155.858 87.3806 158.351 85.5809 161.095 84.4401C165.56 82.7099 170.167 81.9337 174.905 81.3927C175.17 81.3622 175.435 81.3317 175.708 81.3004C177.046 81.1476 178.385 81.0007 179.725 80.8633C183.538 80.4558 187.193 79.7141 190.827 78.4728C191.62 78.2166 192.239 78.174 193.066 78.2227C193.242 80.9057 192.725 83.1407 190.985 85.239C189.878 86.4582 188.658 87.3658 187.28 88.2568C187.05 88.4084 186.82 88.5599 186.583 88.716C184.921 89.7828 183.272 90.6216 181.348 91.1133C181.348 91.21 181.348 91.3066 181.348 91.4062C184.45 91.4366 187.509 91.4084 190.6 91.1201C191.667 91.1128 192.393 91.2515 193.359 91.6992C193.456 91.9893 193.553 92.2793 193.652 92.5781C193.176 93.4021 193.176 93.4021 192.48 94.3359C192.275 94.6199 192.07 94.9039 191.858 95.1965C190.205 97.1073 187.925 98.2777 185.706 99.408C185.513 99.5069 185.321 99.6058 185.123 99.7077C183.025 100.743 181.036 101.133 178.711 101.257C178.512 101.269 178.313 101.28 178.108 101.292C177.625 101.319 177.143 101.343 176.66 101.367C177.441 102.148 178.066 102.186 179.144 102.418C179.531 102.504 179.919 102.59 180.307 102.676C180.917 102.809 181.526 102.941 182.135 103.071C187.243 104.173 187.243 104.173 189.001 105.725C189.258 106.348 189.258 106.348 189.185 107.172C188.039 109.259 185.906 110.423 183.689 111.136C180.847 111.759 178.02 111.287 175.207 110.736C174.121 110.529 173.324 110.421 172.266 110.742C177.387 113.327 177.387 113.327 182.812 115.137C183.234 115.257 183.655 115.379 184.076 115.503C184.466 115.612 184.466 115.612 184.863 115.723C184.107 117.514 182.521 118.291 180.781 119.005C177.635 120.017 174.373 120.191 171.094 120.41C171.923 120.963 172.508 121.194 173.45 121.471C173.741 121.558 174.031 121.644 174.331 121.734C174.634 121.823 174.938 121.912 175.25 122.003C179.392 123.225 179.392 123.225 181.055 123.926C181.151 124.119 181.248 124.312 181.348 124.512C181.135 124.591 180.922 124.67 180.703 124.751C179.65 125.196 178.733 125.792 177.771 126.406C175.711 127.538 174.026 127.86 171.68 127.789C171.425 127.785 171.17 127.781 170.907 127.777C170.286 127.767 169.664 127.751 169.043 127.734C169.709 128.481 170.332 128.851 171.248 129.245C171.504 129.357 171.761 129.469 172.025 129.585C172.292 129.699 172.558 129.814 172.833 129.932C173.361 130.159 173.889 130.388 174.416 130.618C174.65 130.719 174.883 130.819 175.124 130.922C175.809 131.264 176.376 131.626 176.953 132.129C176.953 132.322 176.953 132.516 176.953 132.715C176.392 132.954 175.83 133.192 175.269 133.429C174.956 133.562 174.643 133.694 174.321 133.831C171.49 134.949 168.43 134.621 165.527 133.887C166.291 134.664 167.06 135.422 167.873 136.148C168.023 136.282 168.173 136.416 168.328 136.554C168.635 136.828 168.943 137.1 169.252 137.371C170.156 138.184 170.856 138.941 171.387 140.039C171.387 140.329 171.387 140.619 171.387 140.918C169.399 141.912 166.94 141.01 164.983 140.358C164.679 140.253 164.375 140.148 164.062 140.039C163.544 139.868 163.025 139.697 162.506 139.526C162.15 139.406 161.793 139.285 161.426 139.16C162.1 140.24 162.808 141.159 163.678 142.09C164.532 143.039 164.909 143.704 164.941 145.02C162.774 144.898 161.158 144.323 159.21 143.39C158.809 143.203 158.809 143.203 158.399 143.013C157.746 142.709 157.095 142.401 156.445 142.09C156.889 142.998 157.394 143.825 157.947 144.672C158.737 145.966 158.984 146.746 158.789 148.242C156.615 148.159 155.468 147.673 153.79 146.32C153.593 146.167 153.395 146.015 153.191 145.858C152.71 145.486 152.233 145.107 151.758 144.727C151.661 144.92 151.564 145.113 151.465 145.312C151.878 146.19 152.328 147.034 152.798 147.882C153.533 149.266 153.533 149.266 153.433 150.13C153.364 150.281 153.294 150.431 153.223 150.586C149.66 150.31 147.683 148.411 145.02 146.191C145.165 148.512 145.165 148.512 145.312 150.879C143.333 150.817 142.315 150.495 140.809 149.202C140.356 148.768 140.356 148.768 139.746 148.828C139.649 148.538 139.553 148.248 139.453 147.949C139.26 147.949 139.066 147.949 138.867 147.949C138.74 148.088 138.613 148.227 138.483 148.37C137.803 149 137.456 149.1 136.523 149.121C134.822 148.569 133.731 147.672 132.715 146.191C132.378 145.516 132.105 144.848 131.836 144.141C131.739 144.141 131.643 144.141 131.543 144.141C131.35 146.227 131.823 147.681 133.008 149.414C133.898 150.427 134.72 151.111 136.092 151.243C137.57 151.141 138.761 150.774 140.039 150C140.217 150.166 140.394 150.332 140.577 150.502C142.082 151.82 143.213 152.665 145.253 152.707C146.173 152.607 146.696 152.404 147.363 151.758C147.552 151.006 147.552 151.006 147.656 150.293C147.879 150.438 148.103 150.582 148.333 150.731C150.187 151.882 151.596 152.707 153.809 152.637C154.465 152.168 154.659 151.885 154.837 151.095C154.854 150.861 154.871 150.626 154.889 150.385C154.908 150.148 154.927 149.911 154.947 149.667C154.958 149.487 154.969 149.307 154.98 149.121C155.214 149.275 155.214 149.275 155.452 149.431C155.659 149.565 155.866 149.698 156.079 149.835C156.385 150.034 156.385 150.034 156.697 150.237C157.318 150.582 157.792 150.792 158.496 150.879C159.288 150.393 159.559 150.218 159.961 149.414C160.085 148.232 160.046 147.082 159.961 145.898C160.281 145.995 160.601 146.092 160.931 146.191C162.688 146.623 164.713 146.976 166.315 146.008C166.802 145.127 166.807 144.548 166.699 143.555C166.603 143.361 166.506 143.168 166.406 142.969C166.588 143.017 166.769 143.065 166.956 143.115C168.948 143.434 170.838 143.587 172.559 142.383C173.206 141.623 173.146 141.142 173.163 140.131C172.926 138.518 171.85 137.414 170.801 136.23C171.062 136.219 171.062 136.219 171.328 136.208C174.09 136.019 176.756 135.358 178.711 133.301C179.072 132.739 179.072 132.739 179.004 132.129C178.568 131.067 177.984 130.523 177.063 129.885C176.878 129.756 176.693 129.626 176.502 129.493C176.29 129.348 176.29 129.348 176.074 129.199C176.237 129.118 176.399 129.037 176.567 128.954C177.308 128.581 178.046 128.204 178.784 127.826C179.04 127.698 179.296 127.571 179.559 127.44C180.915 126.741 182.022 126.169 182.812 124.805C182.756 123.877 182.756 123.877 182.227 123.047C181.354 122.384 181.354 122.384 180.469 121.875C180.372 121.682 180.275 121.488 180.176 121.289C180.369 121.265 180.562 121.241 180.762 121.216C183.233 120.598 185.288 119.133 186.914 117.188C187.304 116.087 187.304 116.087 186.621 115.137C185.499 114.424 184.333 113.884 183.105 113.379C183.105 113.282 183.105 113.186 183.105 113.086C183.329 113.043 183.552 113 183.782 112.955C186.915 112.275 189.125 111.019 191.016 108.398C191.502 107.425 191.566 106.508 191.309 105.469C190.106 103.917 188.393 103.01 186.621 102.246C186.428 102.246 186.234 102.246 186.035 102.246C186.035 102.053 186.035 101.859 186.035 101.66C186.35 101.548 186.35 101.548 186.67 101.434C190.322 99.8521 193.641 96.4098 195.41 92.8711C195.561 91.6782 195.561 91.6782 195.41 90.5273C194.298 89.6232 193.201 89.4704 191.803 89.3005C191.436 89.2541 191.068 89.2076 190.689 89.1598C190.41 89.1277 190.131 89.0956 189.844 89.0625C190.068 88.8873 190.292 88.712 190.522 88.5315C192.746 86.7189 194.613 84.0234 195.117 81.1523C195.348 78.7625 195.348 78.7625 194.623 76.5381C194.024 75.8264 194.024 75.8264 193.306 75.7862C192.23 75.907 191.311 76.2938 190.32 76.7029ZM184.277 147.363C184.277 147.557 184.277 147.75 184.277 147.949C184.471 147.853 184.664 147.756 184.863 147.656C184.67 147.56 184.477 147.463 184.277 147.363ZM172.852 155.273C173.145 155.859 173.145 155.859 173.145 155.859L172.852 155.273ZM128.906 171.68C129.199 172.266 129.199 172.266 129.199 172.266L128.906 171.68ZM104.883 244.629C103.948 246.382 103.783 247.927 104.004 249.902C104.529 251.245 105.476 252.024 106.641 252.832C107.273 252.745 107.273 252.745 107.812 252.539C107.692 252.369 107.572 252.199 107.449 252.024C105.746 249.556 105.359 247.601 105.176 244.629C105.079 244.629 104.982 244.629 104.883 244.629Z" fill="black"/>
<path d="M116.125 68.1523C117.574 68.7021 118.38 69.6242 119.238 70.8989C119.238 71.0923 119.238 71.2856 119.238 71.4849C118.851 71.4849 118.464 71.4849 118.066 71.4849C119.026 73.0529 120.101 74.475 121.307 75.8611C126.61 82.0151 129.74 87.5303 129.492 95.8013C128.386 96.1294 128.386 96.1294 127.788 95.8127C127.619 95.676 127.45 95.5393 127.276 95.3984C126.608 94.8655 126.222 94.6137 125.39 94.3364C125.75 96.5619 126.201 98.413 127.259 100.406C128.589 103.09 129 105.885 129.455 108.82C129.541 109.345 129.628 109.87 129.716 110.394C131.095 118.75 130.857 125.816 125.976 133.008C124.901 134.453 123.783 135.698 122.167 136.524C121.53 136.404 121.53 136.404 120.995 136.231C121.049 136.066 121.102 135.901 121.157 135.73C121.4 134.971 121.637 134.209 121.874 133.448C121.958 133.188 122.042 132.928 122.128 132.66C122.625 131.052 122.848 129.711 122.753 128.028C121.94 128.739 121.571 129.468 121.124 130.445C120.416 131.906 119.609 133.217 118.688 134.546C117.637 136.077 116.704 137.63 115.869 139.289C115.773 139.476 115.678 139.663 115.579 139.855C114.538 141.981 114.159 143.962 114.202 146.32C114.204 146.537 114.206 146.753 114.208 146.976C114.229 148.489 114.332 149.967 114.55 151.465C111.849 150.807 110.466 148.937 109.045 146.673C106.748 142.831 106.239 138.85 105.761 134.473C105.072 135.835 104.389 137.199 103.712 138.567C103.469 139.057 103.223 139.546 102.977 140.035C101.132 143.853 100.519 147.858 100.323 152.051C100.304 152.434 100.304 152.434 100.285 152.824C100.254 153.445 100.224 154.067 100.195 154.688C97.229 153.028 94.3735 149.851 93.2882 146.582C92.8822 144.358 93.0347 141.961 93.4564 139.747C89.7729 141.837 87.2814 143.939 86.012 148.131C85.6915 149.425 85.4625 150.735 85.2533 152.051C81.9858 150.467 80.2281 146.63 78.9957 143.386C78.0929 140.573 77.8804 138.003 77.9291 135.059C76.5126 136.747 75.6658 138.427 74.8895 140.479C73.4199 144.208 71.8613 147.95 69.433 151.172C69.2115 151.471 69.2115 151.471 68.9855 151.775C68.3072 152.633 67.8971 153.144 66.8512 153.516C66.6397 153.516 66.4282 153.516 66.2103 153.516C65.9174 153.223 65.9174 153.223 65.8841 152.276C65.8842 151.856 65.8858 151.436 65.8888 151.016C65.8892 150.795 65.8896 150.574 65.89 150.347C65.8917 149.639 65.8953 148.932 65.8991 148.224C65.9005 147.746 65.9019 147.267 65.9031 146.789C65.9063 145.613 65.9114 144.438 65.9174 143.262C64.7432 145.72 64.7432 145.72 63.9398 148.316C63.8424 148.726 63.8424 148.726 63.743 149.144C63.0726 152.532 63.1234 155.958 63.5736 159.375C63.2836 159.375 62.9935 159.375 62.6947 159.375C58.3428 154.001 57.4903 145.981 58.0664 139.359C58.8037 133.348 61.6453 127.565 65.6244 123.047C65.8287 122.805 66.033 122.562 66.2435 122.312C69.6337 118.379 74.0305 115.503 78.4052 112.775C83.0157 109.887 88.9439 106.047 91.1127 100.782C91.0501 99.6815 91.0501 99.6815 90.8197 98.731C91.1097 98.5376 91.3998 98.3442 91.6986 98.145C91.6986 97.7583 91.6986 97.3716 91.6986 96.9731C92.1381 96.1675 92.1381 96.1675 92.5775 95.5083C92.7709 95.605 92.9642 95.7017 93.1635 95.8013C93.5502 95.1245 93.9369 94.4478 94.3353 93.7505C94.5287 93.7505 94.7221 93.7505 94.9213 93.7505C94.9213 93.4604 94.9213 93.1704 94.9213 92.8716C95.5687 92.3047 96.2095 91.7894 96.8988 91.2786C99.1799 89.7765 99.1799 89.7765 100.341 87.5066C100.162 86.1833 99.7181 85.5053 99.0228 84.3755C99.0228 84.0854 99.0228 83.7954 99.0228 83.4966C99.3476 83.3376 99.6724 83.1786 100.007 83.0148C100.436 82.8031 100.865 82.5914 101.293 82.3796C101.507 82.2752 101.721 82.1708 101.941 82.0632C103.003 81.5369 103.94 80.9988 104.882 80.2739C105.076 80.2739 105.269 80.2739 105.468 80.2739C105.553 80.104 105.637 79.934 105.724 79.7589C105.927 79.3551 106.134 78.9533 106.347 78.555C107.336 76.5701 107.575 74.5514 107.812 72.3638C108.225 72.2573 108.225 72.2573 108.647 72.1486C109.012 72.0504 109.377 71.9522 109.753 71.8511C110.113 71.7559 110.473 71.6607 110.845 71.5627C112.328 71.0481 113.529 70.3922 114.385 69.0496C115.136 68.2622 115.136 68.2622 116.125 68.1523Z" fill="black"/>
<path d="M118.359 58.8867C118.196 60.3717 117.497 61.4908 116.748 62.7502C116.551 63.0815 116.551 63.0815 116.351 63.4194C114.741 66.062 112.946 68.2928 110.156 69.7266C109.99 69.8346 109.825 69.9426 109.654 70.0539C108.643 70.4445 107.634 70.3736 106.567 70.3491C106.349 70.3465 106.131 70.3438 105.906 70.3411C105.37 70.3342 104.833 70.3237 104.297 70.3125C104.438 70.6818 104.438 70.6818 104.582 71.0587C105.248 73.2986 105.273 75.9119 104.334 78.0762C102.877 80.5328 100.44 81.5869 97.8104 82.4043C96.9493 82.6231 96.0931 82.7776 95.2149 82.9102C95.3984 83.0269 95.5819 83.1435 95.771 83.2638C96.0105 83.419 96.2499 83.5742 96.4966 83.7341C96.7345 83.8871 96.9724 84.04 97.2176 84.1976C98.1357 84.8787 98.4113 85.3928 98.6023 86.5173C98.3662 88.0651 97.5919 88.4567 96.3867 89.3555C95.9999 89.7008 95.6154 90.0487 95.2332 90.3992C93.2377 92.228 91.0736 93.1745 88.5132 93.9697C87.9646 94.1449 87.416 94.3204 86.8675 94.4962C86.6278 94.5712 86.388 94.6463 86.141 94.7236C85.5367 94.9098 85.5367 94.9098 84.961 95.2148C85.0576 95.4082 85.1543 95.6016 85.2539 95.8008C84.7707 95.939 84.7707 95.939 84.2777 96.08C82.3063 96.6482 80.3333 97.2187 78.3875 97.8699C78.0164 97.9928 78.0164 97.9928 77.6379 98.1182C76.9226 98.5072 76.7499 98.8603 76.4649 99.6094C76.2715 99.6094 76.0781 99.6094 75.8789 99.6094C75.8789 99.3193 75.8789 99.0293 75.8789 98.7305C75.5587 98.9299 75.2384 99.1293 74.9085 99.3347C73.3386 100.107 71.9854 100.047 70.3125 99.6094C68.4012 98.7843 66.7511 97.5769 65.625 95.8008C65.625 95.6074 65.625 95.4141 65.625 95.2148C65.7814 95.2571 65.9377 95.2994 66.0988 95.343C71.179 96.6087 75.9805 94.6792 80.7512 92.9938C81.4708 92.7404 82.1924 92.4929 82.9142 92.2457C83.3803 92.0826 83.8462 91.9191 84.3121 91.7553C84.5239 91.6832 84.7357 91.6112 84.9539 91.5369C86.455 90.9985 88.3164 90.2618 89.0625 88.7695C89.2583 87.794 89.2583 87.794 89.0625 86.7188C87.7624 85.1037 86.1308 84.4195 84.118 84.1428C82.8936 84.0232 81.6673 84.0402 80.4382 84.0454C80.1737 84.0443 79.9092 84.0431 79.6366 84.042C78.0642 84.0443 76.5558 84.1457 75 84.375C77.2376 84.7019 79.4429 84.9793 81.7017 85.0891C83.7661 85.2145 85.4918 85.4657 87.1948 86.6821C87.5977 87.3047 87.5977 87.3047 87.5457 88.021C87.1049 89.3902 85.8832 89.8767 84.668 90.5273C83.4726 91.0673 82.2573 91.5279 81.0242 91.9739C80.5464 92.1543 80.5464 92.1543 80.0589 92.3384C78.3241 92.9785 78.3241 92.9785 77.6367 93.1641C77.4434 93.0674 77.25 92.9707 77.0508 92.8711C77.246 92.7499 77.4413 92.6287 77.6425 92.5039C78.5208 91.9571 79.3971 91.407 80.2735 90.8569C80.5809 90.6662 80.8883 90.4755 81.205 90.279C81.4958 90.0958 81.7866 89.9127 82.0862 89.724C82.4912 89.4708 82.4912 89.4708 82.9044 89.2126C83.0997 89.0664 83.2949 88.9202 83.4961 88.7695C83.4961 88.5762 83.4961 88.3828 83.4961 88.1836C79.3363 86.9834 75.4538 86.3767 71.1182 86.3342C70.6342 86.3264 70.6342 86.3264 70.1405 86.3185C67.6817 86.3207 65.449 86.673 63.2813 87.8906C62.9025 88.4042 62.9025 88.4042 62.6404 89.0076C62.5456 89.2028 62.4508 89.3981 62.3531 89.5992C61.8469 90.9185 61.7827 92.1438 61.7981 93.5486C61.8008 93.8617 61.8034 94.1747 61.8061 94.4973C61.8095 94.7341 61.8129 94.9709 61.8164 95.2148C59.2275 94.1635 57.9068 90.575 56.836 88.1836C55.8616 85.7921 55.8359 82.8317 56.7627 80.4199C57.8634 78.0739 59.4753 76.294 61.2305 74.4141C61.4204 74.2082 61.6104 74.0024 61.8061 73.7904C62.7161 72.8366 63.4361 72.1346 64.7461 71.7773C64.7461 72.9492 64.7461 72.9492 64.1785 73.7732C63.3224 75.0963 63.156 76.1317 63.4644 77.6733C64.3307 79.4848 65.5827 80.1887 67.3828 80.8594C67.1925 80.626 67.0022 80.3926 66.806 80.1521C66.5586 79.8387 66.3115 79.5252 66.0645 79.2114C65.9387 79.0585 65.8129 78.9055 65.6834 78.7479C65.0672 77.9557 64.7548 77.4093 64.6225 76.4076C64.8282 75.0403 65.6868 74.2438 66.742 73.407C68.4499 72.9678 70.4111 73.6767 72.0703 74.1211C71.9736 73.6377 71.877 73.1543 71.7774 72.6562C71.604 72.6064 71.4307 72.5565 71.2521 72.5052C69.833 72.07 68.7817 71.6401 67.6758 70.6055C67.7904 69.1672 68.4981 68.4696 69.5069 67.5293C69.647 67.3945 69.7871 67.2597 69.9314 67.1207C70.3499 66.7182 70.7706 66.3181 71.1914 65.918C71.4426 65.6646 71.6937 65.4112 71.9525 65.1501C76.4224 60.7237 82.2709 59.9995 88.3301 60.0037C88.6316 60.0035 88.933 60.0033 89.2436 60.0031C93.0084 60.0267 96.7679 60.2336 100.527 60.436C103.18 60.5759 105.83 60.6779 108.487 60.6972C108.735 60.7007 108.984 60.7042 109.24 60.7078C111.874 60.7104 114.192 60.0109 116.667 59.1408C117.48 58.8867 117.48 58.8867 118.359 58.8867ZM80.0812 70.6409C79.9029 70.8649 79.7247 71.0888 79.541 71.3196C79.3567 71.5428 79.1724 71.766 78.9826 71.9959C78.2082 73.0911 77.6938 73.9167 77.9297 75.293C78.5367 75.9076 78.5367 75.9076 79.3396 76.3916C79.7322 76.6522 79.7322 76.6522 80.1327 76.918C81.7462 77.8633 83.4344 77.94 85.2539 77.6367C87.0431 76.706 88.4741 75.4674 89.6485 73.8281C89.6485 73.6348 89.6485 73.4414 89.6485 73.2422C88.4608 73.7709 87.6369 74.5482 86.6902 75.4223C85.7126 76.2232 84.7511 76.2553 83.5167 76.2348C82.5648 76.136 81.9286 75.842 81.1524 75.293C80.9018 74.5592 80.8594 74.0095 80.8594 73.2422C81.0527 73.2422 81.2461 73.2422 81.4453 73.2422C81.5178 73.4235 81.5903 73.6047 81.6651 73.7915C82.111 74.5496 82.3734 74.7234 83.2031 75C84.4039 75.098 84.818 75.0953 85.8399 74.4141C86.1315 73.8581 86.1315 73.8581 86.1328 73.2422C85.6396 72.5724 85.3493 72.383 84.5272 72.2134C84.1346 72.1879 84.1346 72.1879 83.7341 72.1619C83.4702 72.1426 83.2062 72.1233 82.9342 72.1035C82.7329 72.0925 82.5316 72.0816 82.3242 72.0703C84.6128 71.0854 86.7806 71.0748 89.2261 71.109C89.8901 71.1182 90.5539 71.121 91.218 71.1227C94.7251 71.1449 94.7251 71.1449 95.8008 71.4844C95.6931 73.8108 95.0318 75.4211 93.75 77.3438C95.4446 76.8596 97.0026 76.0894 98.1445 74.707C98.5013 73.6369 98.552 72.9031 98.4375 71.7773C97.5103 70.3163 96.582 69.6694 94.9219 69.1406C94.0754 69.0222 93.2431 69.0171 92.3893 69.0239C92.1521 69.0231 91.9148 69.0222 91.6704 69.0213C91.1708 69.0208 90.6712 69.0224 90.1717 69.026C89.4155 69.0307 88.6599 69.0261 87.9038 69.0205C83.7472 68.9338 83.7472 68.9338 80.0812 70.6409ZM72.0703 76.7578C73.2087 77.9577 73.7664 78.4979 75.4612 78.5442C75.8629 78.5423 76.2646 78.5388 76.6663 78.5339C76.8719 78.5326 77.0775 78.5313 77.2894 78.5299C77.7958 78.5265 78.3022 78.5212 78.8086 78.5156C77.9613 77.4261 77.9613 77.4261 76.7285 76.9024C76.0216 76.8414 75.325 76.8178 74.6155 76.8127C74.3706 76.8054 74.1257 76.798 73.8733 76.7904C73.2725 76.7733 72.6714 76.7647 72.0703 76.7578Z" fill="black"/>
<path d="M150 207.715C155.505 207.889 162.884 208.394 167.578 211.523C167.799 212.292 167.974 213.031 168.128 213.812C169.619 220.682 173.28 226.185 178.125 231.152C178.298 231.334 178.471 231.515 178.649 231.702C180.063 233.159 181.563 234.4 183.197 235.602C183.448 235.788 183.699 235.975 183.958 236.167C185.981 237.661 188.045 239.094 190.136 240.491C190.354 240.637 190.572 240.784 190.797 240.935C190.989 241.062 191.18 241.189 191.377 241.32C191.896 241.7 192.332 242.111 192.774 242.578C192.481 242.871 192.481 242.871 191.831 242.887C190.894 242.853 189.957 242.819 189.02 242.78C188.702 242.769 188.383 242.759 188.055 242.748C184.88 242.622 181.966 242.374 179.151 240.82C178.953 240.716 178.755 240.612 178.551 240.504C177.813 240.115 177.079 239.722 176.358 239.301C174.794 238.655 173.084 238.724 171.424 238.824C171.218 238.837 171.013 238.849 170.801 238.862C169.37 238.974 168.237 239.256 166.99 239.96C166.187 240.338 165.538 240.48 164.649 240.527C163.875 240.136 163.875 240.136 163.111 239.539C162.831 239.32 162.552 239.102 162.264 238.877C156.46 234.072 150.01 227.319 149.121 219.434C148.871 215.439 149.121 211.616 150 207.715Z" fill="black"/>
<path d="M149.432 240.694C150.489 241.064 151.55 241.424 152.612 241.784C152.818 241.854 153.024 241.924 153.236 241.997C155.548 242.779 157.889 243.441 160.254 244.043C159.53 244.773 158.811 245.489 158.038 246.167C156.04 248.422 155.869 251.025 155.273 254.004C148.796 254.004 142.318 254.004 135.645 254.004C135.951 251.555 136.225 250.767 137.915 249.115C140.516 247.264 143.392 247.217 146.484 247.248C146.739 247.249 146.994 247.25 147.257 247.252C147.878 247.255 148.5 247.26 149.121 247.266C148.699 247.123 148.277 246.981 147.855 246.839C147.62 246.76 147.385 246.681 147.143 246.599C144.522 245.756 141.794 245.757 139.281 246.897C136.125 248.542 134.495 250.508 133.008 253.711C131.461 253.711 129.914 253.711 128.32 253.711C128.395 250.877 129.019 248.492 130.947 246.326C132.53 244.883 134.079 244.006 136.23 243.75C136.27 243.58 136.31 243.41 136.351 243.235C136.853 241.413 137.524 240.337 139.16 239.356C142.483 237.981 146.217 239.568 149.432 240.694Z" fill="black"/>
<path d="M85.8398 72.9492C87.1339 73.1419 87.5718 73.2163 88.4766 74.1211C88.1057 74.4584 87.7331 74.7937 87.3596 75.1282C87.0486 75.4086 87.0486 75.4086 86.7313 75.6947C85.5871 76.607 84.3173 76.6191 82.9102 76.4648C81.9398 76.0695 81.3049 75.7385 80.5664 75C80.6763 74.0845 80.6763 74.0845 80.8594 73.2422C81.4453 73.2422 81.4453 73.2422 82.0312 73.8098C82.3213 74.1089 82.3213 74.1089 82.6172 74.4141C83.4196 74.8153 84.0735 74.744 84.9609 74.707C85.1543 74.6104 85.3477 74.5137 85.5469 74.4141C85.7389 73.6736 85.7389 73.6736 85.8398 72.9492Z" fill="black"/>
<path d="M84.082 88.1836C84.082 88.7695 84.082 89.3555 84.082 89.9414C84.2754 90.1348 84.4687 90.3281 84.668 90.5273C83.5097 90.9765 82.3495 91.4207 81.189 91.864C80.6933 92.0563 80.6933 92.0563 80.1876 92.2525C79.8723 92.3724 79.5569 92.4924 79.232 92.6159C78.7948 92.7839 78.7948 92.7839 78.3487 92.9553C77.6367 93.1641 77.6367 93.1641 77.0508 92.8711C77.243 92.7499 77.4351 92.6287 77.6331 92.5039C78.5015 91.9557 79.3692 91.4063 80.2368 90.8569C80.5393 90.6662 80.8418 90.4755 81.1535 90.279C81.4424 90.0958 81.7313 89.9127 82.029 89.724C82.4294 89.4708 82.4294 89.4708 82.8379 89.2126C83.5172 88.7859 83.5172 88.7859 84.082 88.1836Z" fill="black"/>
<path d="M87.3047 70.8405C87.6216 70.8417 87.6216 70.8417 87.9449 70.843C88.6105 70.8462 89.2759 70.8536 89.9414 70.8611C90.3965 70.864 90.8516 70.8667 91.3067 70.8691C92.4141 70.8755 93.5215 70.8856 94.6289 70.8977C94.6289 70.9944 94.6289 71.091 94.6289 71.1906C91.8252 71.2873 89.0215 71.384 86.1328 71.4836C86.0361 71.8703 85.9395 72.2571 85.8398 72.6555C84.583 72.5588 83.3262 72.4621 82.0312 72.3625C82.7151 71.3368 83.1447 71.2556 84.3143 71.0011C85.3116 70.8416 86.2982 70.8252 87.3047 70.8405Z" fill="black"/>
</svg>
