<svg width="300" height="300" viewBox="0 0 300 300" fill="none" xmlns="http://www.w3.org/2000/svg">
<path d="M155.274 64.7451C156.758 65.5019 157.644 66.4097 158.204 67.9678C158.47 69.518 158.19 70.7565 157.325 72.0693C157.059 72.2446 156.793 72.4198 156.519 72.6004C155.803 73.1504 155.803 73.1504 155.834 73.7757C156.066 75.5075 156.437 77.1725 156.886 78.8603C156.957 79.1341 157.029 79.4079 157.102 79.69C157.327 80.556 157.554 81.4213 157.782 82.2866C158.011 83.1583 158.239 84.03 158.466 84.9021C158.607 85.4427 158.749 85.983 158.892 86.5229C158.955 86.7666 159.019 87.0102 159.084 87.2612C159.141 87.4751 159.197 87.689 159.255 87.9094C159.375 88.4756 159.375 88.4756 159.375 89.3545C159.115 89.4559 159.115 89.4559 158.85 89.5594C157.391 90.1615 156.231 90.6858 155.274 91.9912C154.567 94.0188 154.606 96.1249 154.617 98.2451C154.616 98.7788 154.616 98.7788 154.615 99.3234C154.614 100.301 154.616 101.278 154.619 102.255C154.621 103.302 154.621 104.349 154.62 105.396C154.62 107.423 154.624 109.45 154.628 111.476C154.632 113.111 154.635 114.745 154.637 116.379C154.645 122.682 154.662 128.984 154.686 135.286C154.688 135.923 154.69 136.559 154.692 137.196C154.709 141.931 154.73 146.667 154.766 151.402C154.775 152.685 154.783 153.967 154.789 155.25C154.797 156.739 154.808 158.228 154.824 159.716C154.828 160.253 154.832 160.789 154.834 161.326C154.837 162.05 154.845 162.774 154.854 163.499C154.854 163.706 154.853 163.913 154.853 164.127C154.892 166.184 155.588 167.848 157.032 169.335C158.791 170.201 160.805 170.196 162.7 169.764C164.576 169.102 166.194 168.099 167.286 166.405C167.635 165.541 167.907 164.664 168.164 163.769C168.225 163.562 168.286 163.355 168.349 163.143C168.486 162.669 168.619 162.193 168.75 161.718C170.195 161.615 171.33 161.546 172.651 162.194C174.371 163.714 175.333 165.047 175.597 167.353C175.682 171.847 174.349 175.728 172.302 179.697C171.088 182.082 170.693 184.342 170.673 187.005C170.663 187.229 170.654 187.453 170.644 187.684C170.624 189.806 171.386 191.458 172.266 193.358C172.516 193.925 172.764 194.492 173.011 195.059C173.137 195.346 173.263 195.634 173.392 195.929C181.443 214.498 181.443 214.498 178.494 222.706C177.442 225.072 175.88 226.747 174.024 228.515C173.764 228.799 173.504 229.083 173.236 229.375C172.453 230.074 172.105 230.074 171.094 230.272C170.583 230.471 170.073 230.67 169.566 230.879C166.807 232.005 164.078 232.527 161.133 232.909C160.778 232.961 160.422 233.012 160.056 233.065C158.305 233.28 156.541 233.332 154.779 233.404C154.425 233.421 154.071 233.439 153.705 233.457C153.364 233.471 153.022 233.484 152.67 233.499C152.362 233.512 152.053 233.526 151.735 233.539C150.826 233.492 150.242 233.272 149.414 232.909C148.912 232.788 148.406 232.68 147.898 232.583C147.61 232.526 147.321 232.47 147.024 232.412C146.719 232.352 146.414 232.293 146.1 232.232C138.269 230.638 129.956 227.892 124.219 222.069C124.052 221.905 123.885 221.741 123.712 221.572C120.766 218.443 119.936 214.567 120.047 210.419C120.323 204.429 122.88 199.179 125.475 193.883C128.325 188.044 130.349 182.489 128.98 175.945C128.92 175.647 128.859 175.349 128.797 175.041C127.956 171.088 126.853 167.193 125.766 163.301C124.526 158.824 123.449 154.289 123.505 149.615C123.507 149.346 123.509 149.078 123.51 148.801C123.579 145.806 124.123 143.059 125.977 140.624C126.267 140.527 126.557 140.431 126.856 140.331C126.885 140.653 126.913 140.975 126.943 141.307C127.192 143.864 127.521 146.179 128.614 148.534C128.73 148.794 128.847 149.055 128.967 149.323C130.79 153.016 133.634 155.817 137.439 157.415C139.94 158.013 141.723 157.836 144.141 157.03C145.028 155.355 145.056 153.433 145.066 151.575C145.069 151.196 145.072 150.817 145.075 150.427C145.077 150.012 145.078 149.597 145.08 149.182C145.083 148.741 145.086 148.3 145.089 147.859C145.097 146.662 145.103 145.464 145.109 144.267C145.115 143.002 145.123 141.737 145.131 140.472C145.144 138.338 145.156 136.204 145.167 134.07C145.181 131.367 145.197 128.664 145.213 125.961C145.228 123.605 145.241 121.248 145.255 118.891C145.258 118.394 145.261 117.897 145.263 117.4C145.28 114.61 145.294 111.821 145.304 109.031C145.309 107.564 145.319 106.097 145.331 104.63C145.339 103.609 145.344 102.588 145.349 101.568C145.351 101.083 145.355 100.599 145.36 100.115C145.432 95.3786 145.432 95.3786 143.555 91.1123C142.975 90.8223 142.975 90.8223 142.383 90.5264C142.673 89.5596 142.963 88.5928 143.262 87.5967C142.875 87.5967 142.489 87.5967 142.09 87.5967C141.897 88.0801 141.704 88.5635 141.504 89.0615C140.644 88.9517 140.644 88.9517 139.746 88.7686C139.454 88.1826 139.454 88.1826 139.681 87.4845C139.793 87.2194 139.906 86.9543 140.021 86.6812C140.133 86.4145 140.244 86.1479 140.359 85.8732C140.447 85.6685 140.535 85.4638 140.625 85.2529C141.193 85.3445 141.193 85.3445 141.797 85.5459C141.894 85.8359 141.991 86.126 142.09 86.4248C142.67 86.5215 143.25 86.6182 143.848 86.7178C144.041 85.751 144.235 84.7842 144.434 83.7881C143.854 83.4981 143.854 83.4981 143.262 83.2022C143.22 83.4318 143.178 83.6614 143.134 83.898C142.969 84.667 142.969 84.667 142.676 85.2529C142.096 85.0596 141.516 84.8662 140.918 84.667C141.001 84.2454 141.087 83.8244 141.175 83.4036C141.222 83.1691 141.27 82.9345 141.319 82.6929C141.504 82.0303 141.504 82.0303 142.09 81.1514C142.804 81.3894 142.804 81.3894 143.555 81.7373C143.652 82.0274 143.748 82.3174 143.848 82.6162C144.138 82.6162 144.428 82.6162 144.727 82.6162C145.114 81.6494 145.5 80.6826 145.899 79.6865C145.512 79.6865 145.125 79.6865 144.727 79.6865C144.203 80.3975 144.203 80.3975 143.848 81.1514C143.365 80.958 142.881 80.7647 142.383 80.5654C142.532 79.3005 142.734 78.212 143.262 77.0498C144.332 77.416 144.663 77.5394 145.313 78.5147C145.748 78.6597 145.748 78.6597 146.192 78.8076C146.482 77.7442 146.772 76.6807 147.071 75.585C146.491 75.44 146.491 75.44 145.899 75.292C145.609 76.1621 145.609 76.1621 145.313 77.0498C144.599 76.8118 144.599 76.8118 143.848 76.4639C143.492 75.397 143.653 75.1948 144.123 74.2117C144.234 73.9749 144.346 73.7381 144.46 73.4941C144.548 73.314 144.636 73.1339 144.727 72.9483C145.714 73.3992 146.138 73.8335 146.778 74.7061C146.971 74.7061 147.164 74.7061 147.364 74.7061C147.75 73.6426 148.137 72.5791 148.536 71.4834C148.052 71.3867 147.569 71.29 147.071 71.1904C147.028 71.4201 146.986 71.6497 146.943 71.8862C146.778 72.6553 146.778 72.6553 146.485 73.2412C145.057 72.7285 145.057 72.7285 144.727 72.0693C144.891 71.4353 144.891 71.4353 145.148 70.7144C145.274 70.3552 145.274 70.3552 145.403 69.9888C145.47 69.8053 145.537 69.6217 145.606 69.4326C146.991 69.4326 147.234 69.7282 148.243 70.6045C148.436 70.7012 148.629 70.7979 148.829 70.8975C149.119 69.5923 149.119 69.5923 149.414 68.2608C149.028 68.3574 148.641 68.4541 148.243 68.5537C148.146 68.7471 148.049 68.9404 147.95 69.1397C147.466 69.043 146.983 68.9463 146.485 68.8467C146.115 67.589 146.3 66.8316 146.778 65.624C147.413 65.7723 147.95 65.917 148.536 66.21C148.536 66.5 148.536 66.79 148.536 67.0889C148.922 67.1856 149.309 67.2822 149.707 67.3818C149.789 67.1371 149.789 67.1371 149.872 66.8875C151.112 64.8934 153.051 64.2554 155.274 64.7451ZM153.677 88.9139C152.694 90.0444 152.309 90.8795 152.304 92.3589C152.302 92.6146 152.3 92.8703 152.299 93.1338C152.298 93.415 152.298 93.6962 152.298 93.9859C152.296 94.2845 152.295 94.5831 152.293 94.8908C152.289 95.8966 152.286 96.9024 152.284 97.9082C152.281 98.6277 152.278 99.3472 152.275 100.067C152.268 101.823 152.262 103.579 152.257 105.336C152.251 107.388 152.243 109.44 152.235 111.492C152.221 115.163 152.209 118.834 152.197 122.505C152.185 126.05 152.173 129.595 152.16 133.141C152.159 133.358 152.159 133.575 152.158 133.799C152.155 134.673 152.151 135.546 152.148 136.42C152.123 143.168 152.099 149.916 152.077 156.664C152.075 157.365 152.072 158.066 152.07 158.768C152.052 163.853 152.048 168.937 152.051 174.022C152.535 174.119 153.018 174.216 153.516 174.315C153.515 174.057 153.515 174.057 153.515 173.794C153.488 163.595 153.468 153.395 153.456 143.196C153.455 141.971 153.453 140.747 153.452 139.522C153.451 139.278 153.451 139.034 153.451 138.783C153.446 134.835 153.436 130.888 153.426 126.94C153.415 122.89 153.408 118.839 153.406 114.788C153.404 112.289 153.399 109.789 153.39 107.29C153.383 105.576 153.381 103.862 153.383 102.147C153.384 101.159 153.382 100.17 153.376 99.1811C153.371 98.108 153.372 97.0352 153.375 95.9621C153.372 95.6509 153.368 95.3397 153.365 95.019C153.381 93.0002 153.667 91.307 155.102 89.7982C155.785 89.2041 156.508 88.7317 157.288 88.2742C157.493 88.1473 157.699 88.0204 157.911 87.8897C157.911 87.6963 157.911 87.5029 157.911 87.3037C156.019 87.1524 155.002 87.5462 153.677 88.9139ZM146.778 95.7998C146.775 96.0632 146.772 96.3266 146.769 96.598C146.701 103.1 146.633 109.602 146.564 116.104C146.53 119.249 146.497 122.394 146.464 125.539C146.426 129.177 146.388 132.816 146.349 136.455C146.345 136.752 146.342 137.049 146.339 137.354C146.251 145.555 146.148 153.755 145.987 161.955C145.908 166.076 145.883 170.194 145.899 174.315C146.479 174.315 147.059 174.315 147.657 174.315C147.657 148.405 147.657 122.495 147.657 95.7998C147.367 95.7998 147.077 95.7998 146.778 95.7998ZM147.95 95.7998C147.95 121.71 147.95 147.62 147.95 174.315C148.24 174.315 148.53 174.315 148.829 174.315C148.829 148.405 148.829 122.495 148.829 95.7998C148.538 95.7998 148.248 95.7998 147.95 95.7998ZM149.121 95.7998C149.121 121.71 149.121 147.62 149.121 174.315C149.315 174.315 149.508 174.315 149.707 174.315C149.707 148.405 149.707 122.495 149.707 95.7998C149.514 95.7998 149.321 95.7998 149.121 95.7998ZM150 95.7998C150 121.71 150 147.62 150 174.315C150.29 174.315 150.58 174.315 150.879 174.315C150.879 148.405 150.879 122.495 150.879 95.7998C150.589 95.7998 150.299 95.7998 150 95.7998ZM151.172 95.7998C151.172 121.71 151.172 147.62 151.172 174.315C151.366 174.219 151.559 174.122 151.758 174.022C151.758 148.209 151.758 122.396 151.758 95.7998C151.565 95.7998 151.371 95.7998 151.172 95.7998ZM125.977 155.272C126.27 156.151 126.27 156.151 126.27 156.151L125.977 155.272ZM126.27 156.151C126.444 158.491 127.018 160.652 127.643 162.908C127.857 163.692 128.069 164.476 128.281 165.26C128.334 165.455 128.387 165.651 128.442 165.853C128.944 167.705 129.426 169.562 129.895 171.422C129.965 171.694 130.035 171.965 130.107 172.245C132.304 181.005 130.543 187.688 126.703 195.638C123.716 201.844 120.484 208.592 122.432 215.609C124.411 221.09 128.873 223.923 133.887 226.317C134.094 226.417 134.301 226.516 134.514 226.618C135.671 227.151 136.709 227.492 137.989 227.636C137.149 226.964 136.265 226.433 135.33 225.906C132.88 224.511 130.885 222.897 128.907 220.897C128.73 220.727 128.553 220.557 128.371 220.381C125.654 217.543 124.308 213.364 124.183 209.519C124.352 204.127 126.54 199.575 128.832 194.792C134.043 183.861 132.964 175.515 129.122 164.368C128.186 161.651 127.35 158.915 126.563 156.151C126.466 156.151 126.37 156.151 126.27 156.151ZM169.922 163.183C169.853 163.523 169.853 163.523 169.782 163.869C169.134 166.762 168.311 168.709 165.841 170.432C164.983 170.952 164.123 171.326 163.184 171.679C163.184 171.775 163.184 171.872 163.184 171.972C165.532 171.934 166.784 171.263 168.457 169.628C170.132 167.741 170.594 165.965 170.508 163.476C170.315 163.379 170.121 163.282 169.922 163.183ZM125.684 147.069C125.784 152.519 128.261 156.852 130.938 161.439C136.932 171.714 139.829 181.136 136.786 192.946C136.278 194.863 135.759 196.776 135.205 198.68C133.265 205.546 133.966 211.511 137.413 217.759C140.132 222.579 144.025 225.905 148.829 228.515C149.164 228.7 149.164 228.7 149.507 228.889C153.262 230.917 156.308 231.558 160.547 231.151C160.908 231.125 161.269 231.099 161.641 231.072C164.606 230.762 167.831 229.853 170.508 228.515C170.508 228.321 170.508 228.128 170.508 227.929C170.315 227.832 170.121 227.735 169.922 227.636C170.11 227.599 170.297 227.563 170.49 227.526C170.689 227.465 170.889 227.405 171.094 227.343C171.191 227.149 171.288 226.956 171.387 226.757C171.774 226.95 172.161 227.144 172.559 227.343C175.138 225.395 177.045 222.674 177.539 219.433C178.244 210.23 173.872 201.346 170.154 193.165C170.049 192.934 169.944 192.702 169.836 192.463C169.746 192.266 169.656 192.069 169.563 191.866C168.251 188.629 168.658 183.641 169.922 180.468C170.454 179.307 171.016 178.161 171.578 177.015C173.065 173.934 174.313 170.463 173.731 166.991C173.396 166.156 173.396 166.156 172.852 165.526C172.465 165.526 172.079 165.526 171.68 165.526C171.549 165.781 171.418 166.035 171.283 166.298C169.724 169.27 168.297 171.732 164.942 172.851C161.129 173.206 158.49 172.102 155.274 170.214C155.08 170.214 154.887 170.214 154.688 170.214C154.691 170.511 154.695 170.808 154.698 171.113C154.701 171.509 154.704 171.905 154.706 172.301C154.709 172.496 154.711 172.691 154.714 172.892C154.719 174.08 154.684 175.21 154.395 176.366C153.681 176.751 153.681 176.751 152.93 176.952C152.64 177.097 152.64 177.097 152.344 177.245C152.344 182.853 152.344 188.46 152.344 194.237C153.311 194.624 154.278 195.011 155.274 195.409C155.371 195.796 155.467 196.183 155.567 196.581C153.972 196.291 153.972 196.291 152.344 195.995C152.344 196.479 152.344 196.962 152.344 197.46C153.311 197.75 154.278 198.04 155.274 198.339C155.177 198.629 155.08 198.919 154.981 199.218C154.111 199.218 153.241 199.218 152.344 199.218C152.338 199.598 152.332 199.979 152.326 200.371C152.322 200.585 152.319 200.8 152.316 201.02C152.284 201.567 152.284 201.567 152.637 201.855C153.13 201.923 153.625 201.975 154.12 202.019C154.39 202.044 154.659 202.068 154.936 202.094C155.144 202.111 155.352 202.129 155.567 202.147C155.84 202.967 155.899 203.478 155.896 204.326C155.898 204.661 155.898 204.661 155.899 205.003C155.861 205.651 155.732 206.21 155.567 206.835C152.935 207.128 150.373 207.12 147.73 207C147.355 206.984 146.979 206.969 146.592 206.953C145.677 206.916 144.763 206.876 143.848 206.835C143.411 205.96 143.516 205.152 143.518 204.18C143.517 203.622 143.517 203.622 143.516 203.053C143.555 202.147 143.555 202.147 143.848 201.855C145.021 201.812 146.19 201.842 147.364 201.855C147.364 200.501 147.364 199.147 147.364 197.753C146.687 197.463 146.01 197.173 145.313 196.874C145.41 196.487 145.506 196.101 145.606 195.702C146.186 195.799 146.766 195.896 147.364 195.995C147.364 195.512 147.364 195.028 147.364 194.53C146.687 194.337 146.01 194.144 145.313 193.944C145.216 193.558 145.12 193.171 145.02 192.772C145.697 192.869 146.373 192.966 147.071 193.065C147.435 191.376 147.401 189.714 147.392 187.996C147.392 187.68 147.391 187.363 147.391 187.038C147.389 186.032 147.386 185.026 147.382 184.02C147.381 183.336 147.379 182.653 147.378 181.969C147.375 180.297 147.37 178.625 147.364 176.952C147.037 176.819 146.711 176.686 146.375 176.549C145.313 176.073 145.313 176.073 144.727 175.487C144.696 174.661 144.701 173.866 144.734 173.042C144.741 172.794 144.748 172.547 144.756 172.292C144.78 171.495 144.808 170.699 144.837 169.903C144.871 168.868 144.903 167.833 144.935 166.798C144.947 166.418 144.947 166.418 144.96 166.03C145.033 163.616 145.038 161.203 145.02 158.788C144.8 158.856 144.58 158.923 144.353 158.993C140.753 160.077 137.921 159.767 134.509 158.077C133.14 157.288 132.009 156.463 130.957 155.272C130.784 155.103 130.611 154.934 130.432 154.76C128.744 153.035 127.772 151.125 126.757 148.967C126.298 147.946 126.298 147.946 125.684 147.069ZM147.95 177.538C147.95 182.662 147.95 187.786 147.95 193.065C148.433 193.259 148.916 193.452 149.414 193.651C149.414 188.334 149.414 183.017 149.414 177.538C148.931 177.538 148.448 177.538 147.95 177.538ZM150 177.538C150 182.855 150 188.173 150 193.651C150.58 193.845 151.161 194.038 151.758 194.237C151.758 188.727 151.758 183.216 151.758 177.538C151.178 177.538 150.598 177.538 150 177.538ZM147.657 194.823C147.657 195.307 147.657 195.79 147.657 196.288C148.333 196.385 149.01 196.481 149.707 196.581C149.514 196.001 149.321 195.421 149.121 194.823C148.638 194.823 148.155 194.823 147.657 194.823ZM150 195.409C150 195.893 150 196.376 150 196.874C150.677 196.971 151.354 197.067 152.051 197.167C151.955 196.684 151.858 196.2 151.758 195.702C150.888 195.557 150.888 195.557 150 195.409ZM147.95 197.753C147.942 198.327 147.936 198.9 147.931 199.474C147.928 199.794 147.925 200.113 147.921 200.442C147.892 201.254 147.892 201.254 148.243 201.855C148.629 201.855 149.016 201.855 149.414 201.855C149.414 200.694 149.414 199.534 149.414 198.339C148.689 198.049 148.689 198.049 147.95 197.753ZM150 198.632C149.993 199.114 149.987 199.596 149.982 200.078C149.979 200.347 149.975 200.615 149.972 200.892C149.924 201.552 149.924 201.552 150.293 201.855C150.782 201.866 151.27 201.867 151.758 201.855C151.766 201.372 151.772 200.89 151.777 200.408C151.78 200.139 151.783 199.871 151.787 199.594C151.834 198.935 151.834 198.935 151.465 198.632C150.977 198.62 150.489 198.619 150 198.632Z" fill="black"/>
<path d="M172.559 211.231C173.279 212.311 173.347 213.2 173.145 214.454C172.669 215.186 172.669 215.186 171.973 215.626C171.076 215.754 171.076 215.754 170.215 215.626C169.619 215.173 169.377 214.828 169.044 214.161C168.97 213.032 168.934 212.158 169.63 211.231C170.775 210.55 171.407 210.577 172.559 211.231Z" fill="black"/>
<path d="M167.542 203.797C168.457 203.907 168.457 203.907 169.153 204.346C169.824 205.379 169.825 206.224 169.629 207.422C169.318 208.155 169.318 208.155 168.75 208.594C167.742 208.72 167.039 208.798 166.15 208.265C165.682 207.486 165.582 206.863 165.527 205.958C165.892 204.724 166.187 203.974 167.542 203.797Z" fill="black"/>
<path d="M162.305 197.168C163.526 197.442 163.941 197.571 164.648 198.633C164.792 199.735 164.723 200.258 164.172 201.233C163.477 201.855 163.477 201.855 162.579 202.002C161.719 201.855 161.719 201.855 161.188 201.526C160.69 200.74 160.584 200.147 160.547 199.219C161.017 198.185 161.35 197.804 162.305 197.168Z" fill="black"/>
</svg>
