<svg width="300" height="300" viewBox="0 0 300 300" fill="none" xmlns="http://www.w3.org/2000/svg">
<path d="M158.321 59.7426C158.742 59.7371 159.163 59.7317 159.583 59.7264C159.958 59.72 160.333 59.7136 160.719 59.707C162.022 59.7836 162.843 60.0105 163.77 60.9377C163.9 61.5715 164 62.2118 164.083 62.8534C164.134 63.2348 164.185 63.6163 164.238 64.0092C164.289 64.4136 164.341 64.818 164.392 65.2223C164.446 65.629 164.5 66.0356 164.554 66.4423C164.685 67.4392 164.814 68.4363 164.942 69.4337C165.288 69.4308 165.288 69.4308 165.642 69.4278C167.823 69.4102 170.004 69.3968 172.185 69.3882C173.306 69.3836 174.427 69.3774 175.548 69.3674C176.631 69.3579 177.714 69.3526 178.796 69.3504C179.209 69.3487 179.621 69.3456 180.033 69.3408C180.612 69.3344 181.192 69.3341 181.771 69.334C182.1 69.332 182.429 69.3301 182.768 69.3281C183.832 69.4498 184.537 69.7611 185.449 70.3127C185.865 71.1429 185.777 71.8387 185.776 72.767C185.776 72.9585 185.776 73.1501 185.776 73.3474C185.776 73.9815 185.773 74.6156 185.771 75.2496C185.77 75.6889 185.77 76.1281 185.77 76.5674C185.769 77.7243 185.766 78.8812 185.762 80.038C185.76 81.2182 185.758 82.3984 185.757 83.5786C185.754 85.8949 185.749 88.2112 185.742 90.5275C185.952 90.5242 186.162 90.521 186.378 90.5176C188.356 90.4883 190.334 90.466 192.313 90.4516C193.33 90.444 194.347 90.4336 195.364 90.417C196.534 90.398 197.704 90.3909 198.874 90.3844C199.239 90.3769 199.603 90.3693 199.978 90.3615C200.318 90.3614 200.658 90.3613 201.008 90.3612C201.307 90.3579 201.606 90.3547 201.913 90.3513C203.062 90.5977 203.463 91.0895 204.199 91.9923C204.383 92.9372 204.383 92.9372 204.383 94.0272C204.386 94.2284 204.388 94.4296 204.39 94.6369C204.395 95.3093 204.39 95.9811 204.384 96.6535C204.386 97.1363 204.388 97.619 204.391 98.1018C204.396 99.4117 204.392 100.721 204.387 102.031C204.382 103.402 204.384 104.773 204.386 106.144C204.387 108.446 204.382 110.749 204.374 113.051C204.365 115.712 204.365 118.374 204.37 121.035C204.375 123.596 204.373 126.157 204.368 128.717C204.366 129.807 204.366 130.896 204.368 131.986C204.37 133.269 204.367 134.552 204.359 135.835C204.357 136.306 204.357 136.777 204.359 137.248C204.361 137.891 204.357 138.533 204.35 139.176C204.349 139.536 204.349 139.896 204.348 140.266C204.17 141.397 203.824 141.868 203.028 142.676C202.349 143.127 201.688 143.529 200.977 143.921C200.529 144.176 200.081 144.432 199.634 144.689C199.384 144.832 199.135 144.975 198.877 145.123C197.427 145.966 195.998 146.843 194.567 147.718C191.577 149.543 188.575 151.347 185.554 153.12C183.768 154.17 182.003 155.249 180.254 156.36C179.59 156.738 179.59 156.738 179.004 156.738C178.94 157.051 178.876 157.364 178.81 157.686C177.153 165.558 174.419 172.847 170.508 179.883C170.796 179.865 171.084 179.846 171.381 179.827C172.46 179.763 173.539 179.723 174.619 179.69C175.084 179.672 175.55 179.648 176.014 179.618C179.844 179.372 179.844 179.372 181.307 180.568C181.862 181.298 182.343 182.011 182.774 182.82C183.115 183.435 183.115 183.435 183.611 184.123C184.949 186.059 185.508 187.596 185.736 189.925C185.794 190.414 185.794 190.414 185.853 190.913C185.983 192.014 186.1 193.117 186.218 194.22C186.309 195.014 186.401 195.808 186.494 196.601C186.65 197.938 186.805 199.275 186.956 200.612C187.444 204.94 187.968 209.264 188.496 213.587C188.672 215.029 188.847 216.471 189.023 217.913C189.066 218.272 189.11 218.63 189.155 218.999C189.287 220.084 189.419 221.169 189.551 222.254C189.616 222.792 189.616 222.792 189.683 223.341C189.937 225.429 190.19 227.516 190.441 229.604C190.518 230.248 190.596 230.893 190.675 231.537C190.783 232.427 190.89 233.316 190.996 234.205C191.044 234.596 191.044 234.596 191.093 234.994C191.494 238.373 191.494 238.373 190.989 239.454C190.177 240.162 189.58 240.102 188.512 240.121C188.318 240.126 188.125 240.131 187.925 240.136C187.285 240.15 186.645 240.155 186.004 240.159C185.558 240.164 185.112 240.17 184.665 240.175C183.729 240.185 182.792 240.189 181.856 240.191C180.66 240.194 179.465 240.216 178.269 240.243C177.346 240.26 176.424 240.265 175.501 240.265C175.061 240.268 174.62 240.275 174.18 240.287C173.56 240.303 172.943 240.3 172.323 240.293C171.972 240.296 171.62 240.299 171.258 240.302C170.026 239.876 169.858 239.524 169.135 238.477C168.304 237.353 168.304 237.353 167.088 236.738C166.147 236.641 165.243 236.63 164.297 236.652C163.945 236.649 163.594 236.646 163.231 236.642C162.273 236.636 161.315 236.643 160.357 236.656C159.353 236.666 158.35 236.659 157.346 236.655C155.448 236.648 153.551 236.657 151.653 236.67C149.491 236.685 147.33 236.684 145.168 236.681C140.724 236.675 136.28 236.69 131.836 236.719C131.752 236.893 131.667 237.067 131.58 237.246C130.445 239.465 130.445 239.465 129.492 239.942C128.866 239.973 128.238 239.985 127.611 239.989C127.418 239.99 127.225 239.992 127.026 239.993C126.387 239.997 125.748 239.999 125.108 240.001C124.664 240.003 124.221 240.004 123.777 240.006C122.846 240.009 121.916 240.011 120.985 240.012C119.792 240.014 118.598 240.021 117.405 240.029C116.488 240.034 115.572 240.036 114.655 240.036C114.215 240.037 113.775 240.04 113.335 240.043C112.72 240.048 112.105 240.048 111.49 240.046C111.14 240.047 110.789 240.048 110.429 240.049C109.571 239.942 109.571 239.942 109.01 239.617C107.192 236.45 109.596 228.859 110.06 225.203C110.206 224.048 110.351 222.893 110.495 221.737C110.738 219.799 110.983 217.861 111.228 215.923C111.571 213.204 111.913 210.484 112.255 207.765C112.714 204.106 113.174 200.448 113.636 196.789C113.709 196.214 113.781 195.639 113.854 195.063C113.943 194.36 114.032 193.658 114.123 192.955C114.219 192.202 114.312 191.449 114.403 190.696C114.453 190.3 114.502 189.905 114.552 189.509C114.616 188.977 114.616 188.977 114.683 188.435C114.902 187.167 115.367 186.247 116.016 185.156C116.219 184.699 116.421 184.242 116.624 183.784C117.446 182.194 118.265 180.83 119.824 179.883C122.964 179.134 126.296 179.371 129.492 179.59C129.407 179.442 129.322 179.293 129.234 179.14C126.416 174.212 124.096 169.215 122.461 163.77C122.402 163.577 122.343 163.384 122.282 163.186C119.704 154.667 119.135 145.669 118.38 136.85C118.212 134.899 118.032 132.95 117.851 131.001C116.853 120.142 116.853 120.142 116.705 115.055C116.908 107.993 116.908 107.993 114.208 101.798C112.47 100.186 110.435 99.2119 108.265 98.3138C106.717 97.6249 105.427 96.6669 104.077 95.6545C103.616 95.3266 103.154 95.0004 102.69 94.676C102.471 94.5219 102.253 94.3679 102.027 94.2092C101.358 93.7439 100.684 93.2874 100.008 92.8335C99.6842 92.6154 99.6842 92.6154 99.3541 92.3929C98.9543 92.1243 98.5533 91.8575 98.1507 91.5929C97.0683 90.864 96.2385 90.1486 95.508 89.0627C95.287 87.9086 95.446 87.4196 96.0055 86.3846C96.5803 85.729 96.9101 85.56 97.7741 85.382C98.8185 85.3146 99.8505 85.3038 100.897 85.3113C101.469 85.3053 101.469 85.3053 102.053 85.2991C103.064 85.2886 104.075 85.2884 105.086 85.2905C106.119 85.2908 107.152 85.2812 108.185 85.2724C110.209 85.2566 112.234 85.2518 114.258 85.2541C114.256 85.0725 114.254 84.8909 114.252 84.7039C114.233 82.8172 114.219 80.9306 114.21 79.0439C114.205 78.3394 114.199 77.6349 114.192 76.9304C114.181 75.9189 114.176 74.9074 114.172 73.8958C114.168 73.5799 114.163 73.264 114.158 72.9386C114.158 72.6454 114.158 72.3522 114.158 72.0501C114.156 71.7918 114.154 71.5335 114.152 71.2674C114.258 70.6056 114.258 70.6056 114.583 70.0821C115.412 69.5505 116.087 69.6215 117.065 69.6269C117.26 69.6268 117.454 69.6267 117.655 69.6266C118.297 69.6272 118.939 69.634 119.581 69.6409C120.026 69.6425 120.471 69.6438 120.917 69.6447C122.089 69.648 123.26 69.6566 124.432 69.6664C125.628 69.6754 126.824 69.6794 128.02 69.6838C130.366 69.6932 132.713 69.7082 135.059 69.7267C135.082 69.5245 135.106 69.3222 135.13 69.1138C135.239 68.1888 135.35 67.264 135.462 66.3393C135.499 66.0211 135.536 65.7029 135.574 65.3751C136.097 61.0713 136.097 61.0713 137.11 60.0587C137.905 59.9772 137.905 59.9772 138.93 59.9653C139.314 59.9595 139.698 59.9537 140.093 59.9477C140.515 59.9442 140.938 59.9408 141.36 59.9374C141.794 59.932 142.229 59.9262 142.664 59.9202C143.813 59.9052 144.962 59.8936 146.112 59.8827C147.263 59.8711 148.415 59.856 149.566 59.8413C151.855 59.8131 154.144 59.7867 156.433 59.7716C157.062 59.7655 157.691 59.7542 158.321 59.7426ZM142.09 66.2111C141.993 67.2746 141.897 68.338 141.797 69.4337C142.628 69.7109 143.14 69.7644 144.001 69.7656C144.272 69.7662 144.544 69.7668 144.823 69.7673C145.117 69.766 145.412 69.7647 145.716 69.7633C146.172 69.7625 146.172 69.7625 146.638 69.7616C150.496 69.7412 154.349 69.587 158.203 69.4337C158.058 67.8385 158.058 67.8385 157.91 66.2111C152.69 66.2111 147.469 66.2111 142.09 66.2111ZM120.703 75.8791C120.703 78.9728 120.703 82.0666 120.703 85.2541C140.039 85.2541 159.375 85.2541 179.297 85.2541C179.297 82.1603 179.297 79.0666 179.297 75.8791C159.961 75.8791 140.625 75.8791 120.703 75.8791ZM109.571 91.6994C110.551 92.6799 111.41 93.3631 112.555 94.1164C112.867 94.3233 113.18 94.5303 113.502 94.7435C114.151 95.2408 114.151 95.2408 114.551 95.215C114.557 94.8525 114.563 94.4899 114.569 94.1164C114.573 93.9124 114.576 93.7085 114.58 93.4984C114.567 92.7716 114.567 92.7716 114.258 91.6994C112.711 91.6994 111.164 91.6994 109.571 91.6994ZM120.703 91.6994C121.711 102.938 121.711 102.938 122.719 114.177C123.358 121.304 123.993 128.43 124.6 135.559C124.624 135.84 124.648 136.121 124.673 136.41C124.905 139.127 125.131 141.844 125.317 144.564C126.032 154.685 128.461 164.777 133.301 173.731C133.414 173.94 133.527 174.149 133.643 174.365C133.99 175.003 134.34 175.64 134.693 176.276C134.853 176.566 134.853 176.566 135.016 176.861C135.119 177.044 135.223 177.226 135.329 177.414C135.418 177.573 135.508 177.732 135.6 177.896C135.711 178.068 135.823 178.241 135.938 178.418C136.161 178.79 136.161 178.79 136.389 179.169C137.382 180.153 138.272 180.106 139.599 180.11C139.85 180.116 140.1 180.122 140.359 180.129C141.188 180.147 142.016 180.154 142.845 180.16C143.423 180.167 144 180.174 144.577 180.181C145.788 180.194 146.999 180.2 148.209 180.203C149.758 180.207 151.305 180.237 152.853 180.272C154.046 180.295 155.238 180.3 156.432 180.301C157.002 180.305 157.573 180.314 158.143 180.33C161.048 180.527 161.048 180.527 163.651 179.508C164.532 178.482 165.031 177.329 165.528 176.074C165.742 175.674 165.961 175.277 166.187 174.883C170.25 166.766 173.061 158.178 173.851 149.111C173.887 148.705 173.924 148.3 173.961 147.894C174.082 146.546 174.2 145.197 174.317 143.848C174.348 143.491 174.348 143.491 174.379 143.127C174.68 139.673 174.974 136.219 175.268 132.765C175.914 125.163 176.563 117.561 177.269 109.964C177.293 109.704 177.317 109.444 177.342 109.177C177.571 106.715 177.801 104.253 178.035 101.792C178.12 100.904 178.203 100.016 178.286 99.1274C178.343 98.5295 178.4 97.9317 178.458 97.3338C178.492 96.9752 178.525 96.6165 178.56 96.247C178.604 95.7857 178.604 95.7857 178.649 95.3151C178.725 94.1121 178.711 92.9048 178.711 91.6994C159.569 91.6994 140.426 91.6994 120.703 91.6994ZM184.571 96.9728C184.462 97.8805 184.372 98.7844 184.292 99.6947C184.265 99.9821 184.239 100.269 184.212 100.566C184.124 101.528 184.038 102.491 183.953 103.454C183.891 104.13 183.83 104.807 183.768 105.483C183.604 107.295 183.442 109.108 183.279 110.92C183.146 112.409 183.012 113.898 182.878 115.386C182.49 119.682 182.106 123.978 181.723 128.274C181.647 129.133 181.57 129.993 181.493 130.852C181.266 133.397 181.039 135.941 180.816 138.487C180.756 139.174 180.696 139.86 180.635 140.547C180.553 141.472 180.473 142.397 180.393 143.321C180.371 143.576 180.348 143.83 180.325 144.092C180.183 145.772 180.152 147.436 180.176 149.121C182.522 147.877 184.789 146.533 187.042 145.13C187.711 144.715 188.38 144.301 189.049 143.888C189.214 143.785 189.38 143.683 189.551 143.577C191.38 142.448 193.225 141.345 195.076 140.25C195.297 140.118 195.519 139.986 195.747 139.85C196.033 139.681 196.033 139.681 196.325 139.508C196.507 139.394 196.688 139.279 196.875 139.16C197.077 139.043 197.279 138.925 197.487 138.804C198.117 138.319 198.117 138.319 198.191 137.524C198.19 137.218 198.189 136.912 198.188 136.596C198.19 136.245 198.191 135.894 198.193 135.532C198.189 135.146 198.184 134.76 198.18 134.363C198.18 133.953 198.18 133.543 198.181 133.133C198.181 132.019 198.174 130.905 198.166 129.792C198.159 128.628 198.158 127.464 198.156 126.301C198.153 124.097 198.143 121.893 198.131 119.689C198.118 117.181 198.112 114.672 198.106 112.163C198.094 107.002 198.073 101.841 198.047 96.6798C196.175 96.6724 194.303 96.6673 192.431 96.6637C191.793 96.6623 191.156 96.6603 190.518 96.6577C189.604 96.6542 188.69 96.6525 187.776 96.6512C187.489 96.6497 187.202 96.6482 186.907 96.6467C186.643 96.6466 186.379 96.6466 186.107 96.6466C185.873 96.6459 185.64 96.6453 185.399 96.6446C184.858 96.6211 184.858 96.6211 184.571 96.9728ZM121.668 187.938C121.085 189.068 120.841 190.05 120.703 191.309C120.639 191.755 120.639 191.755 120.574 192.209C120.422 193.286 120.286 194.365 120.153 195.445C120.101 195.857 120.049 196.269 119.997 196.681C119.856 197.793 119.718 198.905 119.579 200.017C119.434 201.182 119.287 202.347 119.14 203.512C118.895 205.466 118.65 207.421 118.406 209.375C118.093 211.885 117.778 214.395 117.462 216.905C117.191 219.063 116.92 221.222 116.65 223.381C116.563 224.075 116.476 224.769 116.389 225.463C116.252 226.551 116.116 227.639 115.98 228.728C115.93 229.128 115.88 229.527 115.83 229.927C115.762 230.472 115.694 231.016 115.626 231.56C115.588 231.865 115.55 232.17 115.511 232.484C115.419 233.18 115.419 233.18 115.43 233.789C116.769 233.855 118.107 233.902 119.448 233.934C119.903 233.947 120.358 233.965 120.813 233.988C123.477 234.195 123.477 234.195 125.855 233.221C126.604 232.277 127.061 231.415 127.442 230.274C133.108 230.26 138.774 230.25 144.44 230.243C147.071 230.24 149.702 230.236 152.333 230.229C154.626 230.224 156.919 230.22 159.212 230.218C160.426 230.218 161.641 230.216 162.855 230.212C163.998 230.208 165.141 230.206 166.284 230.207C166.703 230.207 167.122 230.206 167.542 230.204C168.115 230.201 168.688 230.202 169.261 230.203C169.581 230.203 169.902 230.202 170.232 230.202C171.13 230.277 171.758 230.452 172.559 230.86C172.947 231.344 173.318 231.842 173.675 232.35C174.528 233.333 174.977 233.74 176.259 234.029C177.477 234.113 178.684 234.046 179.901 233.972C180.327 233.958 180.752 233.944 181.178 233.932C182.212 233.903 183.244 233.847 184.278 233.789C184.107 229.624 183.59 225.503 183.087 221.367C182.965 220.366 182.845 219.365 182.725 218.364C182.523 216.685 182.321 215.006 182.117 213.327C181.857 211.185 181.599 209.042 181.342 206.899C181.118 205.04 180.894 203.181 180.67 201.322C180.599 200.732 180.528 200.143 180.457 199.553C180.324 198.447 180.189 197.34 180.055 196.234C180.017 195.913 179.978 195.593 179.939 195.263C179.864 194.649 179.786 194.035 179.705 193.421C179.624 192.755 179.558 192.087 179.503 191.418C179.314 189.514 179.132 187.807 177.701 186.433C175.935 185.493 173.812 185.709 171.863 185.727C171.341 185.724 170.819 185.719 170.298 185.714C168.883 185.702 167.47 185.705 166.056 185.711C164.874 185.715 163.692 185.711 162.511 185.708C159.723 185.699 156.935 185.703 154.146 185.714C151.272 185.725 148.399 185.718 145.525 185.702C143.055 185.689 140.585 185.686 138.115 185.692C136.641 185.695 135.167 185.695 133.693 185.685C132.306 185.676 130.92 185.68 129.534 185.694C129.026 185.697 128.518 185.696 128.01 185.689C124.352 185.632 124.352 185.632 121.668 187.938Z" fill="black"/>
<path d="M156.207 202.093C158.924 204.205 160.758 206.852 161.353 210.313C161.377 210.519 161.401 210.724 161.426 210.937C161.45 211.139 161.474 211.342 161.499 211.551C161.677 214.609 160.451 217.705 158.496 220.019C156.402 222.293 153.696 223.615 150.623 223.907C147.379 224.013 144.745 223.246 142.255 221.117C139.616 218.53 138.218 215.897 138.135 212.182C138.151 208.791 139.379 205.727 141.797 203.319C146.078 199.703 151.429 199.375 156.207 202.093ZM145.312 208.3C144.457 209.899 143.875 211.453 144.141 213.28C144.813 215.458 145.764 216.66 147.766 217.766C149.723 218.279 151.156 218.026 152.93 217.089C154.335 216.163 155.019 215.196 155.422 213.553C155.702 211.842 155.471 210.435 154.688 208.886C153.624 207.598 152.461 206.776 150.879 206.249C148.705 206.082 146.828 206.702 145.312 208.3Z" fill="black"/>
</svg>
