<svg width="300" height="300" viewBox="0 0 300 300" fill="none" xmlns="http://www.w3.org/2000/svg">
<path d="M112.207 34.2773C113.312 35.269 113.998 36.3867 114.752 37.6465C117.47 42.0786 120.745 46.21 124.511 49.8047C124.689 49.7548 124.868 49.705 125.051 49.6536C125.944 49.4067 126.839 49.1665 127.734 48.9258C128.088 48.8272 128.442 48.7286 128.806 48.6271C130.914 48.0556 132.996 47.6307 135.168 47.3877C135.377 47.3643 135.585 47.3408 135.8 47.3167C138.324 47.0653 140.831 47.1269 143.353 47.3694C143.723 47.4044 143.723 47.4044 144.101 47.4401C146.335 47.681 148.48 48.1784 150.643 48.7789C151.009 48.8766 151.009 48.8766 151.382 48.9761C151.596 49.0368 151.811 49.0976 152.031 49.1601C152.99 49.253 153.541 48.8501 154.266 48.2595C158.413 44.2383 161.42 39.819 164.355 34.8633C164.941 35.1562 164.941 35.1562 165.147 35.6485C165.208 35.8623 165.27 36.0761 165.334 36.2964C165.439 36.6597 165.439 36.6597 165.547 37.0304C165.62 37.2957 165.694 37.5609 165.769 37.8342C165.847 38.1094 165.924 38.3846 166.003 38.6681C166.77 41.4641 167.371 44.2872 167.926 47.1318C168.091 47.9781 168.262 48.8233 168.432 49.6685C169.328 54.1517 169.956 58.5775 170.104 63.1531C170.116 63.452 170.127 63.7509 170.139 64.0589C170.166 64.7762 170.191 65.4935 170.214 66.2109C170.439 66.1695 170.663 66.128 170.894 66.0853C173.406 65.6558 175.836 65.5359 178.381 65.5518C178.752 65.5495 179.123 65.5472 179.505 65.5449C181.299 65.5487 182.882 65.5762 184.57 66.2109C184.181 66.9883 183.86 67.0052 183.051 67.2924C182.804 67.3817 182.556 67.471 182.301 67.5631C182.041 67.6546 181.78 67.7462 181.512 67.8406C181 68.0238 180.487 68.2073 179.975 68.391C179.747 68.4717 179.518 68.5523 179.283 68.6354C178.699 68.8401 178.699 68.8401 178.124 69.1406C178.586 69.2471 178.586 69.2471 179.057 69.3558C181.3 69.8865 183.376 70.4479 185.449 71.4844C184.925 72.5313 183.62 72.7155 182.571 73.1209C181.575 73.5643 180.771 74.0808 179.882 74.707C180.121 74.7002 180.36 74.6934 180.607 74.6864C190.065 74.5423 201.177 75.6966 209.472 80.5664C209.472 80.6631 209.472 80.7598 209.472 80.8594C207.442 80.8594 205.412 80.8594 203.32 80.8594C203.997 81.5361 204.673 82.2129 205.371 82.9102C205.801 83.4154 206.223 83.9276 206.634 84.4482C207.533 85.5663 208.459 86.6383 209.436 87.6892C211.126 89.5228 212.642 91.4807 214.16 93.457C213.966 93.5537 213.773 93.6504 213.574 93.75C212.996 93.5412 212.996 93.5412 212.299 93.2018C212.05 93.0819 211.8 92.962 211.544 92.8385C211.283 92.7103 211.022 92.5821 210.754 92.45C210.36 92.2593 210.36 92.2593 209.957 92.0649C209.306 91.7497 208.656 91.4325 208.007 91.1133C209.443 92.8014 210.954 94.3898 212.53 95.9473C212.744 96.1603 212.959 96.3733 213.179 96.5927C213.701 97.1107 214.223 97.6279 214.746 98.1445C214.649 98.3379 214.552 98.5312 214.453 98.7305C213.292 98.2471 212.132 97.7637 210.937 97.2656C215.489 108.452 221.625 120.133 229.917 129.046C230.273 129.492 230.273 129.492 230.273 130.078C230.563 130.175 230.853 130.271 231.152 130.371C231.548 131.156 231.548 131.156 231.953 132.223C232.027 132.417 232.102 132.611 232.179 132.811C232.427 133.461 232.669 134.113 232.91 134.766C232.994 134.993 233.079 135.22 233.166 135.454C233.707 136.911 234.237 138.371 234.762 139.834C235.036 140.594 235.312 141.353 235.588 142.113C235.765 142.605 235.942 143.097 236.119 143.589C236.2 143.812 236.281 144.034 236.365 144.263C236.9 145.765 237.285 147.265 237.597 148.828C237.404 148.828 237.21 148.828 237.011 148.828C236.34 148.062 235.727 147.258 235.102 146.453C234.33 145.554 233.544 144.874 232.617 144.141C232.716 144.466 232.815 144.792 232.917 145.127C234.667 150.943 234.667 150.943 234.667 153.516C233.701 153.032 232.734 152.549 231.738 152.051C231.548 157.18 231.887 162.038 232.599 167.111C232.97 169.774 233.29 172.432 233.52 175.112C233.544 175.399 233.569 175.686 233.594 175.982C233.712 177.372 233.823 178.763 233.929 180.155C234.279 184.551 235.054 188.505 236.92 192.535C237.154 193.052 237.387 193.569 237.619 194.086C237.771 194.416 237.771 194.416 237.926 194.753C238.863 197.149 238.103 199.276 237.108 201.549C235.465 205.092 233.462 208.107 229.98 210.059C230.373 208.957 230.872 208.117 231.573 207.184C232.477 205.927 233.032 204.793 233.496 203.32C233.012 203.32 232.529 203.32 232.031 203.32C231.678 202.262 231.809 201.587 231.939 200.482C232.087 198.67 231.985 197.448 230.859 195.996C230.572 195.697 230.28 195.403 229.98 195.117C229.584 195.91 229.608 196.586 229.561 197.472C229.54 197.83 229.518 198.188 229.496 198.556C229.453 199.308 229.412 200.061 229.372 200.813C229.097 205.257 229.097 205.257 227.529 207.037C227.274 207.261 227.02 207.484 226.757 207.715C226.515 207.957 226.272 208.198 226.023 208.447C224.312 210.081 222.629 211.464 220.312 212.109C220.022 212.013 219.732 211.916 219.433 211.816C219.703 211.561 219.703 211.561 219.979 211.301C221.819 209.604 221.819 209.604 222.949 207.422C222.805 207.149 222.805 207.149 222.658 206.87C222.288 206.093 222.373 205.744 222.562 204.913C222.617 204.657 222.672 204.401 222.728 204.138C222.789 203.868 222.85 203.598 222.912 203.32C223.885 198.634 223.885 198.634 222.363 194.238C222.363 194.045 222.363 193.852 222.363 193.652C221.365 194.443 221.04 195.515 220.623 196.674C220.508 196.983 220.508 196.983 220.39 197.298C219.763 199.015 219.311 200.744 218.92 202.531C218.554 203.32 218.554 203.32 217.691 203.656C217.396 203.738 217.101 203.821 216.796 203.906C216.305 204.411 216.305 204.411 215.954 205.023C214.967 206.441 213.792 207.437 212.089 207.868C211.523 207.953 211.523 207.953 210.644 208.008C210.98 206.999 211.205 206.87 212.054 206.287C213.025 205.586 213.781 204.914 214.453 203.906C214.453 203.713 214.453 203.52 214.453 203.32C214.259 203.224 214.066 203.127 213.867 203.027C213.909 202.819 213.951 202.61 213.995 202.394C214.47 199.943 214.57 198.122 213.867 195.703C213.673 194.119 214.123 193.46 215.039 192.188C216.411 190.008 216.653 187.69 216.796 185.156C216.7 184.866 216.603 184.576 216.503 184.277C215.343 184.277 214.183 184.277 212.988 184.277C212.794 184.761 212.601 185.244 212.402 185.742C211.879 186.466 211.514 186.849 210.633 187.051C210.053 187.125 209.469 187.168 208.886 187.207C207.973 189.565 207.91 191.728 208.007 194.238C206.265 192.18 206.344 189.777 206.542 187.207C206.709 186.583 206.923 186.046 207.194 185.462C207.483 184.7 207.559 183.969 207.659 183.16C207.954 181.22 208.714 179.764 209.765 178.125C209.932 177.827 209.932 177.827 210.103 177.523C210.424 177.026 210.424 177.026 211.23 176.367C211.915 176.318 212.519 176.417 213.197 176.53C214.467 176.702 215.718 176.723 216.998 176.733C217.234 176.739 217.471 176.746 217.715 176.752C219.293 176.762 220.368 176.498 221.777 175.781C220.902 170.762 219.728 166.22 217.811 161.486C215.551 155.89 214.278 150.137 213.642 144.146C213.606 143.804 213.569 143.461 213.532 143.108C213.464 142.446 213.401 141.783 213.343 141.12C212.759 135.177 206.843 130.647 202.825 126.617C202.68 126.471 202.534 126.325 202.384 126.174C200.698 124.48 198.984 122.842 197.167 121.289C196.804 120.966 196.442 120.642 196.08 120.317C192.802 117.096 192.802 117.096 188.671 115.723C188.867 115.908 189.062 116.093 189.263 116.283C192.115 119.052 194.938 122.186 196.874 125.684C196.874 125.877 196.874 126.07 196.874 126.27C195.207 125.948 193.726 125.525 192.187 124.805C192.179 125.051 192.172 125.296 192.164 125.55C192.007 128.884 191.401 132.087 190.722 135.352C190.432 135.352 190.142 135.352 189.843 135.352C189.166 133.998 188.49 132.645 187.792 131.25C187.728 131.612 187.664 131.974 187.598 132.346C186.958 135.815 186.046 139.065 184.863 142.383C182.512 148.993 181.033 155.594 180.468 162.598C180.444 162.883 180.42 163.169 180.395 163.463C179.897 170.288 182.004 176.776 184.549 183.044C187.437 190.163 188.747 197.652 189.485 205.275C190.122 211.785 193.664 217 197.167 222.363C197.322 222.6 197.476 222.836 197.634 223.08C200.216 227.088 200.216 227.088 203.206 230.792C205.874 233.724 205.871 236.721 205.975 240.509C206.12 245.318 206.474 250.017 207.952 254.626C208.026 254.867 208.1 255.108 208.176 255.356C208.742 257.164 209.39 258.94 210.134 260.684C210.624 261.892 210.719 262.709 210.351 263.965C209.609 264.707 209.137 264.625 208.125 264.637C207.896 264.636 207.667 264.636 207.431 264.636C207.07 264.639 207.07 264.639 206.701 264.642C205.901 264.647 205.101 264.649 204.302 264.649C203.747 264.651 203.192 264.653 202.638 264.655C201.474 264.659 200.31 264.66 199.146 264.659C197.654 264.659 196.161 264.667 194.669 264.677C193.523 264.684 192.377 264.685 191.231 264.685C190.681 264.685 190.131 264.688 189.581 264.693C188.811 264.698 188.042 264.697 187.272 264.693C187.045 264.696 186.817 264.7 186.582 264.703C185.545 264.691 184.973 264.635 184.136 263.997C183.335 262.884 183.5 261.761 183.691 260.449C184.178 258.799 184.909 257.371 186.328 256.348C187.721 256.085 188.476 256.347 189.624 257.098C189.812 257.238 190.001 257.377 190.196 257.521C190.369 257.617 190.543 257.713 190.722 257.812C191.718 257.481 191.909 257.19 192.48 256.348C194.477 256.434 195.815 257.316 197.46 258.398C196.636 257.546 195.863 256.925 194.824 256.348C195.41 253.711 195.41 253.711 195.557 253.153C197.085 247.067 196.073 239.862 193.066 234.375C189.888 229.455 185.138 225.437 179.846 222.968C177.495 221.861 175.815 220.417 174.023 218.555C173.777 218.308 173.532 218.061 173.279 217.807C166.782 211.011 162.287 201.825 159.082 193.066C156.266 193.177 153.234 193.74 151.226 195.868C151.047 196.068 150.867 196.269 150.682 196.476C148.48 198.711 145.695 200.455 143.078 202.167C136.888 206.066 136.888 206.066 132.812 211.815C132.262 215.129 133.093 217.817 135.003 220.532C135.86 221.651 136.763 222.664 137.782 223.635C138.488 224.323 139.12 225.067 139.763 225.815C140.414 226.559 141.087 227.279 141.76 228.003C146.484 233.197 146.484 233.197 146.484 235.803C145.724 238.177 143.636 239.906 141.888 241.589C139.694 243.743 137.743 245.953 135.937 248.438C135.763 248.671 135.59 248.905 135.411 249.146C134.253 250.747 133.216 252.423 132.165 254.095C131.707 254.82 131.249 255.543 130.791 256.267C130.53 256.68 130.272 257.095 130.016 257.511C128.301 260.296 125.896 263.033 122.753 264.258C121.999 264.311 121.277 264.332 120.523 264.324C120.3 264.324 120.077 264.324 119.847 264.325C119.111 264.324 118.376 264.32 117.64 264.315C117.13 264.314 116.619 264.313 116.108 264.313C114.765 264.31 113.423 264.305 112.08 264.298C110.709 264.292 109.338 264.289 107.968 264.286C105.279 264.28 102.59 264.27 99.9018 264.258C99.8963 263.792 99.8923 263.326 99.889 262.86C99.8867 262.6 99.8843 262.341 99.8818 262.073C99.9313 260.231 100.528 257.987 101.733 256.549C103.329 255.57 104.843 256.042 106.567 256.421C106.831 256.489 107.096 256.557 107.368 256.627C107.611 256.631 107.854 256.636 108.105 256.641C108.282 256.451 108.459 256.261 108.641 256.065C109.421 255.334 109.764 255.32 110.816 255.311C111.115 255.304 111.414 255.297 111.722 255.29C112.033 255.289 112.344 255.287 112.664 255.286C116.734 255.405 116.734 255.405 120.366 253.943C120.574 253.673 120.782 253.403 120.996 253.125C121.254 252.813 121.513 252.5 121.771 252.188C122.039 251.848 122.305 251.507 122.57 251.166C122.712 250.984 122.853 250.802 122.999 250.615C128.792 243.37 128.792 243.37 130.664 234.668C129.153 228.778 123.26 225.56 118.489 222.527C110.493 217.432 110.493 217.432 109.863 214.746C109.737 213.184 109.794 211.622 109.863 210.059C108.993 210.349 108.123 210.639 107.226 210.938C107.35 208.862 108.015 207.297 108.929 205.444C109.073 205.149 109.216 204.855 109.365 204.551C112.477 198.274 116.434 192.457 120.703 186.914C120.927 186.619 121.151 186.323 121.381 186.019C123.343 183.438 125.387 180.926 127.441 178.418C127.684 178.121 127.927 177.824 128.177 177.517C129.023 176.482 129.87 175.447 130.722 174.416C131.39 173.605 132.054 172.79 132.714 171.973C132.906 171.738 132.906 171.738 133.101 171.498C133.5 171.006 133.895 170.51 134.289 170.013C134.527 169.716 134.765 169.419 135.01 169.113C136.25 167.258 136.676 165.582 136.633 163.367C136.63 163.139 136.626 162.911 136.623 162.676C136.334 151.845 130.848 142.803 123.632 135.059C123.042 134.506 122.441 133.983 121.817 133.469C120.692 132.488 119.753 131.312 118.826 130.146C118.139 129.286 117.6 128.77 116.601 128.32C116.593 128.491 116.586 128.662 116.578 128.838C116.432 130.946 115.866 132.789 115.136 134.766C114.413 134.042 114.401 133.647 114.237 132.648C114.186 132.346 114.135 132.044 114.082 131.733C114.031 131.416 113.98 131.1 113.928 130.774C113.874 130.455 113.821 130.136 113.766 129.808C113.635 129.019 113.506 128.231 113.378 127.441C111.06 134.026 108.826 140.561 107.226 147.363C105.445 154.789 105.445 154.789 104.296 157.324C103.71 157.617 103.71 157.617 101.074 157.91C100.59 159.747 100.107 161.584 99.6089 163.477C99.4155 163.477 99.2221 163.477 99.0229 163.477C98.7329 161.881 98.7329 161.881 98.437 160.254C98.292 160.592 98.1469 160.931 97.9975 161.279C97.0504 163.416 95.9751 165.492 94.9214 167.578C94.8247 167.771 94.728 167.965 94.6284 168.164C93.6073 167.975 92.8623 167.548 91.9917 166.992C91.9099 167.163 91.8282 167.335 91.7439 167.511C91.4259 168.125 91.0801 168.67 90.6825 169.234C90.5409 169.435 90.3994 169.636 90.2536 169.844C90.1021 170.057 89.9505 170.27 89.7944 170.49C89.6361 170.713 89.4777 170.936 89.3146 171.166C88.0496 172.94 86.7375 174.67 85.3979 176.389C83.0026 179.479 80.6464 182.6 78.2954 185.724C78.0859 186.001 78.0859 186.001 77.8721 186.284C76.1398 188.328 76.1398 188.328 75.2925 190.723C75.7056 192.1 76.3218 192.984 77.2517 194.073C79.3331 196.574 81.0953 199.999 81.7561 203.192C81.9507 204.126 81.9507 204.126 82.1887 205.048C82.7624 207.664 82.3829 210.332 81.1518 212.695C80.6723 213.224 80.6723 213.224 80.2729 213.574C80.3213 213.29 80.3696 213.006 80.4194 212.714C80.7103 210.588 80.9281 208.124 79.687 206.25C79.0845 206.005 78.5337 205.923 77.8914 205.831C77.3432 205.664 77.3432 205.664 76.7756 204.712C76.5046 203.756 76.2916 202.841 76.1714 201.855C76.0014 201.799 75.8315 201.742 75.6564 201.684C74.3632 201.253 73.07 200.822 71.7768 200.391C71.7032 200.633 71.6295 200.876 71.5537 201.125C71.1419 202.287 70.6298 203.358 70.074 204.456C69.9701 204.663 69.8662 204.87 69.7592 205.084C69.2136 206.159 68.6475 207.199 67.9865 208.209C67.2452 209.351 67.2452 209.351 67.0893 210.645C68.0108 213.014 70.0254 214.086 72.1614 215.295C72.9171 215.612 73.6045 215.799 74.4135 215.918C74.4135 215.725 74.4135 215.531 74.4135 215.332C74.7886 215.489 74.7886 215.489 75.1711 215.649C76.3351 215.962 76.9569 215.841 78.1123 215.533C78.5983 215.408 78.5983 215.408 79.0942 215.281C79.3865 215.201 79.6788 215.121 79.98 215.039C80.3704 214.941 80.7609 214.842 81.1518 214.746C81.1518 214.939 81.1518 215.133 81.1518 215.332C80.5625 215.817 80.5625 215.817 79.7785 216.357C79.5236 216.536 79.2687 216.714 79.0061 216.898C77.7478 217.676 76.7781 218.054 75.2925 217.969C75.2562 218.204 75.2199 218.44 75.1826 218.683C75.1222 218.931 75.0617 219.178 74.9995 219.434C74.1082 219.879 73.1595 219.836 72.1797 219.891C71.8692 219.91 71.8692 219.91 71.5525 219.93C71.0414 219.961 70.5302 219.99 70.019 220.02C70.2394 220.285 70.2394 220.285 70.4642 220.555C70.8979 221.191 70.8979 221.191 70.8064 221.997C70.7399 222.215 70.6734 222.432 70.605 222.656C72.752 223.867 74.9236 224.163 77.3524 224.313C77.5427 224.347 77.7331 224.38 77.9292 224.414C78.0259 224.607 78.1225 224.801 78.2221 225C75.4912 226.059 72.1008 226.009 69.3919 224.864C67.5586 223.88 65.8347 222.717 64.1596 221.484C63.9928 221.365 63.826 221.246 63.6541 221.123C62.5715 220.301 62.171 219.701 61.9258 218.372C61.7094 217.156 61.7094 217.156 60.9118 216.259C60.7268 216.146 60.5417 216.034 60.351 215.918C60.3933 216.13 60.4356 216.342 60.4792 216.561C61.0676 219.625 61.0676 219.625 60.937 220.898C60.7436 221.092 60.5503 221.285 60.351 221.484C60.5318 223.27 62.199 224.576 63.4822 225.673C64.1894 226.24 64.9018 226.797 65.6245 227.344C64.7456 227.637 64.7456 227.637 63.9731 227.353C61.8862 226.305 59.785 225.205 58.4754 223.199C57.8773 222.506 57.4338 222.46 56.5425 222.363C56.3725 221.823 56.3725 221.823 56.1991 221.272C56.0452 220.793 55.891 220.315 55.7368 219.836C55.6258 219.481 55.6258 219.481 55.5125 219.119C55.1443 217.987 54.8149 217.133 54.1209 216.149C53.6128 215.332 53.6128 215.332 53.6788 214.507C53.9125 213.546 54.2372 212.779 54.6851 211.899C54.844 211.581 55.0029 211.263 55.1666 210.935C55.3366 210.598 55.5067 210.26 55.6819 209.912C57.7184 205.791 59.2912 201.598 60.7035 197.225C62.4641 191.788 64.6553 187.236 67.551 182.327C69.3716 179.228 71.0448 176.064 72.6557 172.852C72.7747 172.615 72.8937 172.378 73.0162 172.134C75.6652 166.817 77.9381 161.319 80.2729 155.859C79.856 156.077 79.856 156.077 79.4306 156.299C78.5151 156.738 78.5151 156.738 77.9292 156.738C78.1225 156.158 78.3159 155.578 78.5151 154.98C78.1284 154.98 77.7417 154.98 77.3432 154.98C77.7867 153.935 78.3994 153.27 79.204 152.477C79.4533 152.229 79.7026 151.982 79.9594 151.727C80.2199 151.471 80.4805 151.216 80.749 150.952C81.0118 150.692 81.2747 150.432 81.5455 150.164C82.1942 149.522 82.8443 148.881 83.4956 148.242C82.9336 148.26 82.9336 148.26 82.3603 148.279C81.7217 148.299 81.7217 148.299 81.1518 148.242C80.9585 148.049 80.7651 147.855 80.5659 147.656C81.1148 147.332 81.6642 147.009 82.2138 146.686C82.5197 146.506 82.8256 146.326 83.1408 146.14C84.0815 145.605 84.0815 145.605 84.965 145.247C86.2011 144.511 86.8371 143.524 87.6338 142.346C87.7837 142.135 87.9336 141.923 88.0881 141.705C89.7341 139.327 90.6699 137.161 90.877 134.267C90.8998 134 90.9226 133.734 90.9461 133.46C91.0184 132.601 91.084 131.743 91.1494 130.884C91.1978 130.292 91.2465 129.701 91.2956 129.11C91.4372 127.382 91.5698 125.654 91.6987 123.926C91.7263 123.557 91.7263 123.557 91.7544 123.181C91.9464 120.598 92.1235 118.015 92.2846 115.43C91.8979 116.3 91.5112 117.17 91.1128 118.066C90.2708 117.224 90.3154 116.29 90.1972 115.155C90.173 114.928 90.1488 114.702 90.1238 114.468C89.6429 109.731 90.2718 105.402 91.9951 100.975C92.3187 100.242 92.3187 100.242 92.2846 99.6094C92.0766 99.7786 91.8685 99.9478 91.6541 100.122C91.3848 100.34 91.1155 100.557 90.8381 100.781C90.4353 101.108 90.4353 101.108 90.0244 101.44C89.355 101.953 89.355 101.953 89.062 101.953C88.8147 98.0165 90.0672 95.36 91.9917 91.9922C90.5415 92.4756 89.0913 92.959 87.5971 93.457C90.1145 88.4223 95.7499 84.8001 100.268 81.6833C100.513 81.5142 100.757 81.3451 101.009 81.1709C101.237 81.0156 101.466 80.8603 101.701 80.7003C101.905 80.5613 102.109 80.4222 102.319 80.2789C102.832 79.9805 102.832 79.9805 103.417 79.9805C103.417 79.7871 103.417 79.5938 103.417 79.3945C103.036 79.3526 102.655 79.3107 102.263 79.2675C101.332 79.1643 100.402 79.057 99.4727 78.9448C97.1616 78.6699 94.9097 78.4404 92.5776 78.5156C92.5776 77.9297 92.5776 77.9297 93.0743 77.4319C96.753 74.4215 100.945 72.3742 105.761 72.6562C104.684 71.3854 103.578 70.1642 102.392 68.9941C100.957 67.5762 99.5584 66.1353 98.437 64.4531C100.874 64.5767 102.93 65.3545 105.194 66.2292C105.563 66.3693 105.932 66.5091 106.301 66.6487C107.196 66.9883 108.09 67.3307 108.984 67.6758C108.916 67.3839 108.849 67.0921 108.779 66.7914C107.612 61.6247 108.322 57.5119 109.637 52.4423C110.95 47.3204 111.671 42.3864 111.814 37.096C111.823 36.7743 111.832 36.4525 111.841 36.121C111.852 35.6838 111.852 35.6838 111.863 35.2377C111.914 34.5703 111.914 34.5703 112.207 34.2773ZM114.257 42.4805C113.962 44.4237 113.67 46.3674 113.381 48.3116C113.282 48.9718 113.183 49.6318 113.083 50.2917C112.938 51.2448 112.796 52.1984 112.655 53.1521C112.61 53.4431 112.565 53.734 112.519 54.0338C112.132 56.6865 111.882 59.2555 112.792 61.8164C112.986 61.8164 113.179 61.8164 113.378 61.8164C114.346 60.5282 114.346 60.5282 114.498 58.9771C114.347 58.2524 114.176 57.5452 113.964 56.8359C114.641 57.0293 115.318 57.2227 116.015 57.4219C115.974 56.9457 115.931 56.4696 115.887 55.9937C115.863 55.7285 115.839 55.4634 115.815 55.1903C115.76 54.4889 115.76 54.4889 115.429 53.9062C116.009 54.1963 116.589 54.4863 117.187 54.7852C117.138 52.3803 116.755 50.1419 116.198 47.8088C116.137 47.5503 116.076 47.2917 116.013 47.0253C115.627 45.4602 115.145 43.9786 114.55 42.4805C114.454 42.4805 114.357 42.4805 114.257 42.4805ZM162.89 43.3594C162.844 43.6543 162.797 43.9493 162.749 44.2532C162.316 46.8983 161.756 49.471 161.023 52.0504C160.706 53.1867 160.458 54.1779 160.546 55.3711C161.223 55.1777 161.9 54.9844 162.597 54.7852C162.5 55.9453 162.404 57.1055 162.304 58.3008C163.514 58.1346 163.514 58.1346 164.648 57.7148C164.551 58.6816 164.455 59.6484 164.355 60.6445C164.645 60.7412 164.935 60.8379 165.234 60.9375C166.021 59.2221 165.92 57.5954 165.911 55.7373C165.91 55.3831 165.908 55.0289 165.907 54.6639C165.858 50.9065 165.717 46.8469 163.476 43.6523C163.283 43.5557 163.089 43.459 162.89 43.3594ZM148.242 72.3633C148.064 72.5412 147.886 72.719 147.703 72.9023C146.533 74.1596 145.575 75.5581 144.616 76.9775C144.487 77.1681 144.357 77.3587 144.224 77.555C143.63 78.4545 143.188 79.2193 142.968 80.2734C143.235 80.161 143.235 80.161 143.507 80.0463C147.892 78.2001 152.298 76.4194 156.738 74.707C153.605 80.4931 153.605 80.4931 151.171 81.4453C149.803 81.5448 148.904 81.3851 147.656 80.8594C146.862 80.8102 146.862 80.8102 146.191 80.8594C146.232 81.2806 146.275 81.7018 146.319 82.1228C146.343 82.3573 146.367 82.5919 146.391 82.8335C146.47 83.5432 146.47 83.5432 146.777 84.375C146.61 84.3082 146.444 84.2413 146.272 84.1724C144.537 83.5263 143.247 83.2671 141.483 84.0626C141.085 84.263 140.69 84.4704 140.301 84.6863C138.9 85.3793 138.123 85.1925 136.633 84.7046C136.297 84.5966 135.961 84.4886 135.614 84.3773C134.765 84.082 134.765 84.082 134.179 83.7891C132.589 83.6936 131.301 83.9494 129.785 84.375C129.93 83.9037 129.93 83.9037 130.078 83.4229C130.421 82.325 130.421 82.325 130.371 81.1523C130.059 81.1905 129.748 81.2286 129.428 81.2679C129.01 81.3092 128.591 81.35 128.173 81.3904C127.969 81.4166 127.765 81.4429 127.555 81.4699C126.073 81.6003 125.124 81.3356 123.903 80.4798C122.845 79.5426 122.077 78.4167 121.289 77.2522C121.032 76.8848 121.032 76.8848 120.77 76.51C120.353 75.9117 119.94 75.3108 119.531 74.707C121.346 75.0457 122.949 75.5592 124.621 76.3367C124.843 76.4371 125.065 76.5375 125.293 76.641C126.537 77.2072 127.77 77.7929 129 78.3875C129.38 78.5707 129.38 78.5707 129.768 78.7576C130.261 78.9962 130.753 79.2371 131.244 79.4804C131.466 79.5884 131.689 79.6964 131.918 79.8077C132.114 79.9047 132.311 80.0018 132.513 80.1018C132.676 80.1585 132.839 80.2151 133.007 80.2734C133.201 80.1768 133.394 80.0801 133.593 79.9805C131.374 75.9691 128.511 71.3518 124.021 69.6442C121.553 69.1111 118.461 69.0384 116.015 69.7266C115.924 70.1854 115.924 70.1854 115.831 70.6535C115.234 73.5428 114.465 76.3357 113.54 79.1372C112.368 82.4227 112.368 82.4227 111.914 85.8398C112.566 86.4501 112.566 86.4501 113.415 86.9934C113.859 87.3027 113.859 87.3027 114.312 87.6183C114.72 87.8981 114.72 87.8981 115.136 88.1836C116.91 89.4962 118.188 91.1372 119.531 92.8711C119.761 93.163 119.991 93.4549 120.228 93.7557C123.239 97.6959 125.401 102.242 127.31 106.799C128.134 108.728 129.188 110.478 130.371 112.207C130.545 112.466 130.719 112.724 130.898 112.991C131.984 114.138 133.146 114.513 134.681 114.642C135.062 114.633 135.443 114.623 135.836 114.614C136.043 114.609 136.25 114.604 136.463 114.599C136.897 114.587 137.332 114.573 137.766 114.556C138.425 114.533 139.085 114.52 139.744 114.508C140.169 114.495 140.594 114.481 141.018 114.467C141.399 114.456 141.781 114.444 142.173 114.432C143.689 114.189 144.8 113.62 145.878 112.495C147.717 109.763 149.09 106.805 150.469 103.823C153.881 96.4784 158.114 90.0493 165.234 85.8398C164.336 82.56 163.264 79.3727 162.047 76.1966C161.286 74.1557 160.827 72.1794 160.546 70.0195C159.045 69.5558 157.582 69.2496 156.024 69.0491C155.815 69.0164 155.606 68.9837 155.391 68.9501C152.214 68.5432 150.392 70.2134 148.242 72.3633ZM198.046 256.641C197.635 257.241 197.635 257.241 197.46 257.812C197.769 257.595 197.769 257.595 198.083 257.373C199.089 256.848 199.563 256.754 200.683 256.934C201.237 257.291 201.734 257.675 202.233 258.107C202.725 258.461 202.725 258.461 203.331 258.325C204.069 258.043 204.706 257.651 205.371 257.227C206.144 257.71 206.917 258.193 207.714 258.691C207.121 257.505 206.767 257.04 205.664 256.348C204.606 256.401 203.702 256.812 202.734 257.227C202.522 257.039 202.311 256.852 202.093 256.659C200.551 255.528 199.652 255.606 198.046 256.641Z" fill="black"/>
<path d="M186.328 180.762C192.332 184.684 196.137 191.803 199.396 197.99C204.245 207.191 209.458 212.661 218.657 217.552C221.749 219.21 224.635 221.005 227.418 223.144C232.175 226.789 236.564 228.936 242.596 228.845C242.934 228.843 243.271 228.84 243.619 228.837C244.444 228.83 245.269 228.821 246.094 228.809C246.094 229.002 246.094 229.195 246.094 229.395C240.772 233.477 234.572 235.354 227.93 235.547C228.393 235.877 228.857 236.207 229.321 236.536C229.58 236.719 229.838 236.903 230.104 237.092C230.735 237.514 231.344 237.866 232.031 238.184C232.031 238.377 232.031 238.57 232.031 238.77C223.503 239.092 216.582 235.332 210.425 229.669C209.91 229.19 209.397 228.707 208.887 228.223C209.843 230.085 210.966 231.746 212.234 233.413C212.695 234.082 212.695 234.082 212.695 234.668C210.884 234.25 209.689 233.202 208.301 232.031C208.064 231.834 207.827 231.637 207.583 231.434C203.919 228.27 201.497 224.483 198.943 220.421C197.741 218.516 196.474 216.66 195.164 214.827C193.406 212.323 192.61 210.025 192.188 207.001C192.139 206.683 192.091 206.366 192.042 206.039C191.842 204.711 191.652 203.383 191.465 202.053C190.58 195.772 189.154 189.869 187.072 183.875C186.976 183.595 186.879 183.316 186.779 183.028C186.692 182.781 186.605 182.533 186.515 182.279C186.328 181.641 186.328 181.641 186.328 180.762Z" fill="black"/>
<path d="M141.596 99.9941C141.89 100.046 141.89 100.046 142.191 100.098C143.713 100.396 145.021 100.807 146.156 101.895C146.938 103.428 146.436 105.534 145.959 107.121C145.371 108.534 144.59 109.621 143.555 110.742C143.168 110.549 142.781 110.356 142.383 110.156C142.31 110.44 142.238 110.724 142.163 111.017C141.797 111.914 141.797 111.914 141.331 112.115C140.333 112.246 139.341 112.249 138.336 112.244C138.135 112.245 137.934 112.246 137.727 112.247C136.425 112.245 135.167 112.18 133.887 111.914C133.338 111.2 133.338 111.2 133.008 110.449C132.911 110.256 132.815 110.063 132.715 109.863C132.425 110.154 132.135 110.444 131.836 110.742C129.902 108.754 129.053 106.217 128.879 103.465C128.92 102.525 129.143 102.052 129.785 101.367C133.372 99.3221 137.64 99.2936 141.596 99.9941ZM136.524 101.074C136.322 101.764 136.322 101.764 136.231 102.539C136.521 102.974 136.521 102.974 136.817 103.418C137.185 102.567 137.402 102.013 137.402 101.074C137.112 101.074 136.822 101.074 136.524 101.074ZM139.16 101.367C139.45 102.334 139.74 103.301 140.039 104.297C140.233 104.297 140.426 104.297 140.625 104.297C140.818 103.427 141.012 102.557 141.211 101.66C140.534 101.564 139.858 101.467 139.16 101.367ZM133.008 101.953C133.13 103.207 133.13 103.207 133.759 104.26C133.898 104.369 134.037 104.478 134.18 104.59C134.597 103.47 134.836 102.565 134.766 101.367C134.155 101.367 133.565 101.725 133.008 101.953ZM142.676 101.953C142.966 102.823 143.256 103.694 143.555 104.59C144.512 103.825 144.512 103.825 144.489 102.924C144.471 102.7 144.452 102.477 144.434 102.246C143.564 102.101 143.564 102.101 142.676 101.953ZM130.078 102.539C130.175 103.313 130.272 104.086 130.371 104.883C130.565 104.883 130.758 104.883 130.957 104.883C131.151 104.013 131.344 103.143 131.543 102.246C130.686 102.181 130.686 102.181 130.078 102.539Z" fill="black"/>
<path d="M138.099 89.8866C138.392 89.883 138.686 89.8794 138.989 89.8757C140.713 89.8723 142.201 90.0085 143.848 90.5275C144.141 90.8204 144.141 90.8204 144.251 91.8458C144.223 93.4076 143.639 94.5886 142.676 95.8009C141.006 97.1937 139.369 97.6741 137.219 97.6388C135.529 97.444 134.313 96.6238 133.191 95.3798C132.323 94.2707 131.896 93.3652 131.727 91.9557C131.836 91.1134 131.836 91.1134 132.312 90.5824C134.083 89.6971 136.166 89.8878 138.099 89.8866Z" fill="black"/>
</svg>
