<svg width="300" height="300" viewBox="0 0 300 300" fill="none" xmlns="http://www.w3.org/2000/svg">
<path d="M106.934 61.8164C107.614 61.9281 108.012 62.0182 108.512 62.5065C109.659 64.1226 110.732 65.7837 111.796 67.4549C113.657 70.3717 115.61 73.2253 117.59 76.062C117.765 76.3121 117.939 76.5621 118.119 76.8198C118.803 77.7955 119.485 78.7519 120.238 79.6761C120.703 80.2734 120.703 80.2734 120.703 80.8594C121.985 80.4258 122.968 79.7246 124.036 78.9185C131.194 73.696 139.773 71.4045 148.535 70.8984C148.831 70.8807 149.127 70.8629 149.431 70.8447C158.652 70.6001 168.336 73.364 175.781 78.8086C176.143 79.0302 176.508 79.2465 176.88 79.4495C177.832 79.9805 177.832 79.9805 178.711 80.5664C178.788 80.3993 178.865 80.2323 178.945 80.0601C179.321 79.3492 179.753 78.7552 180.246 78.1197C180.531 77.7492 180.531 77.7492 180.822 77.3713C181.128 76.977 181.128 76.977 181.439 76.5747C183.024 74.5131 184.588 72.4405 186.108 70.3308C186.262 70.1181 186.415 69.9055 186.573 69.6864C187.221 68.7839 187.852 67.8802 188.448 66.9422C188.704 66.5802 188.704 66.5802 188.965 66.2109C189.158 66.2109 189.352 66.2109 189.551 66.2109C189.665 65.8965 189.665 65.8965 189.781 65.5758C190.156 64.7003 190.604 63.9736 191.144 63.1897C191.319 62.931 191.494 62.6723 191.674 62.4058C191.843 62.2113 192.013 62.0168 192.188 61.8164C192.478 61.8164 192.768 61.8164 193.066 61.8164C197.015 68.9923 198.372 76.9175 199.292 84.9792C199.316 85.192 199.341 85.4048 199.366 85.6241C199.862 90.0261 200.154 94.3866 200.066 98.815C200.045 99.9296 200.035 101.044 200.023 102.159C200.007 103.562 199.989 104.965 199.959 106.367C199.935 107.516 199.921 108.665 199.914 109.814C199.91 110.246 199.902 110.678 199.89 111.11C199.807 114.14 200.359 116.164 202.148 118.652C202.357 118.974 202.565 119.297 202.779 119.629C203.98 121.297 205.201 122.678 206.836 123.926C207.052 124.093 207.268 124.261 207.491 124.434C210.607 126.736 213.942 128.15 217.637 129.213C218.24 129.389 218.838 129.585 219.434 129.785C219.53 129.979 219.627 130.172 219.727 130.371C218.322 132.047 216.824 132.566 214.673 132.833C213.818 132.906 212.966 132.966 212.109 133.008C212.219 133.146 212.328 133.284 212.44 133.426C212.579 133.608 212.717 133.79 212.86 133.978C212.999 134.158 213.139 134.339 213.282 134.524C213.379 134.701 213.475 134.877 213.574 135.059C213.478 135.349 213.381 135.639 213.281 135.938C212.398 136.232 211.804 136.261 210.883 136.249C210.619 136.246 210.355 136.243 210.083 136.241C209.781 136.236 209.781 136.236 209.473 136.23C210.299 137.496 211.169 138.713 212.091 139.911C212.213 140.072 212.335 140.234 212.461 140.4C213.073 141.197 213.68 141.902 214.399 142.611C215.039 143.262 215.039 143.262 215.039 143.848C215.329 143.944 215.619 144.041 215.918 144.141C215.918 144.334 215.918 144.527 215.918 144.727C216.183 144.845 216.183 144.845 216.452 144.966C217.095 145.316 217.432 145.631 217.914 146.173C219.143 147.45 220.561 148.442 221.999 149.467C222.184 149.599 222.369 149.731 222.56 149.867C222.727 149.985 222.893 150.102 223.065 150.223C223.557 150.603 223.984 151.016 224.414 151.465C224.317 151.755 224.221 152.045 224.121 152.344C223.409 152.604 222.75 152.797 222.015 152.966C221.802 153.016 221.589 153.066 221.37 153.118C217.133 154.063 213.162 153.697 208.887 153.223C209.05 153.408 209.213 153.593 209.381 153.783C211.042 155.73 212.328 157.738 213.554 159.98C215.264 163.075 217.113 166.07 219.103 168.993C219.63 169.778 220.128 170.57 220.605 171.387C219.429 171.779 218.447 171.538 217.255 171.332C217.017 171.291 216.78 171.25 216.535 171.207C213.054 170.575 210.176 169.328 207.129 167.578C207.299 167.788 207.469 167.997 207.644 168.213C211.648 173.321 213.07 179.081 213.574 185.449C213.381 185.546 213.188 185.643 212.988 185.742C212.282 185.464 211.605 185.166 210.919 184.845C206.906 183.037 202.99 181.723 198.633 181.055C198.654 181.317 198.675 181.579 198.697 181.849C199.2 188.408 198.69 194.593 195.996 200.684C195.117 200.391 195.117 200.391 194.58 199.429C194.385 199.018 194.191 198.606 194 198.193C192.431 194.797 192.431 194.797 189.844 192.188C189.789 192.526 189.735 192.864 189.679 193.213C188.274 199.337 184.213 204.828 180.743 209.949C180.531 210.263 180.318 210.577 180.099 210.901C178.307 213.513 178.307 213.513 177.246 214.453C177.053 214.453 176.859 214.453 176.66 214.453C176.67 214.049 176.67 214.049 176.681 213.636C176.718 211.006 176.508 208.557 176.074 205.957C175.991 206.162 175.908 206.368 175.822 206.579C173.522 212.185 171.042 217.863 167.285 222.656C167.13 222.858 166.975 223.06 166.815 223.268C163.04 228.153 163.04 228.153 161.133 229.395C160.939 229.395 160.746 229.395 160.547 229.395C160.625 229.055 160.702 228.715 160.783 228.365C161.367 225.788 161.915 223.22 162.305 220.605C162.208 220.783 162.112 220.96 162.013 221.143C159.668 225.274 156.424 227.961 152.344 230.273C151.882 230.554 151.882 230.554 151.41 230.841C150.048 231.356 148.905 231.018 147.594 230.454C145.619 229.366 143.789 228.246 142.09 226.758C141.892 226.587 141.694 226.417 141.49 226.242C139.722 224.607 138.591 222.679 137.402 220.605C137.829 222.875 138.249 225.11 138.999 227.3C139.183 228.018 139.187 228.657 139.16 229.395C134.912 227.206 131.986 221.893 129.492 217.969C129.309 217.684 129.125 217.399 128.936 217.106C127.338 214.509 126.231 211.707 125.098 208.887C124.963 208.554 124.828 208.221 124.689 207.878C124.432 207.239 124.177 206.599 123.926 205.957C123.228 208.786 123.283 211.562 123.34 214.453C122.384 213.732 121.645 213.066 120.978 212.073C120.716 211.685 120.716 211.685 120.449 211.29C120.243 210.98 120.037 210.671 119.824 210.352C119.561 209.965 119.298 209.579 119.035 209.193C110.965 197.31 110.965 197.31 110.156 192.188C108.892 193.319 108.191 194.454 107.465 195.978C107.364 196.18 107.264 196.382 107.161 196.591C106.601 197.738 106.135 198.874 105.762 200.098C105.375 200.098 104.988 200.098 104.59 200.098C103.552 198.366 102.924 196.631 102.466 194.678C102.418 194.476 102.37 194.275 102.321 194.068C101.715 191.332 101.613 188.61 101.624 185.815C101.622 185.522 101.621 185.229 101.62 184.926C101.622 183.506 101.654 182.158 101.953 180.762C97.5038 181.699 93.189 182.909 89.0588 184.847C87.7342 185.467 87.7342 185.467 86.8835 185.358C86.657 185.258 86.657 185.258 86.4258 185.156C87.3316 179.022 88.7599 172.981 92.8711 168.164C92.0694 168.431 91.2965 168.741 90.5159 169.063C86.9442 170.53 83.5793 171.466 79.6875 171.387C80.0467 170.391 80.4297 169.662 81.1157 168.86C83.6066 165.741 85.5965 162.209 87.5059 158.714C88.6422 156.67 90.0067 154.8 91.4062 152.93C91.1325 152.972 90.8587 153.014 90.5766 153.058C85.9312 153.733 79.3504 154.519 75 152.344C75.4528 151.129 76.2425 150.606 77.2705 149.854C82.2971 146.094 87.3787 141.942 90.2344 136.23C88.9775 135.94 87.7207 135.65 86.4258 135.352C86.7188 134.18 86.7188 134.18 87.3047 133.301C87.0569 133.251 86.8092 133.201 86.554 133.15C84.1737 132.641 82.3074 132.02 80.2734 130.664C80.3701 130.374 80.4668 130.084 80.5664 129.785C81.2598 129.525 81.923 129.318 82.6355 129.126C86.271 128.063 89.7226 126.782 92.5781 124.219C92.8077 124.034 93.0374 123.849 93.2739 123.658C95.3512 121.925 96.8811 119.902 98.3907 117.678C98.669 117.276 98.9668 116.888 99.2695 116.504C100.261 115.111 100.223 113.882 100.085 112.231C99.0591 97.3214 98.6861 74.9514 106.934 61.8164ZM109.57 70.3125C109.927 72.2438 110.375 74.119 110.941 75.9991C111.016 76.2488 111.09 76.4985 111.167 76.7558C111.323 77.2791 111.48 77.8022 111.638 78.3252C111.877 79.1183 112.112 79.9124 112.348 80.7066C112.501 81.2188 112.655 81.7309 112.809 82.243C112.878 82.4765 112.947 82.71 113.018 82.9506C113.508 84.5602 114.129 86.0753 114.844 87.5977C115.037 87.5977 115.23 87.5977 115.43 87.5977C115.932 86.9686 115.932 86.9686 116.437 86.1877C117.025 85.3075 117.579 84.5076 118.359 83.7891C117.941 82.2933 117.278 81.1634 116.422 79.8912C116.224 79.5911 116.224 79.5911 116.021 79.285C115.6 78.6489 115.176 78.0146 114.752 77.3804C114.332 76.7479 113.912 76.115 113.493 75.482C113.232 75.0896 112.972 74.6976 112.71 74.3061C112.528 74.0333 112.528 74.0333 112.343 73.755C112.225 73.5777 112.106 73.4003 111.985 73.2176C111.461 72.4082 110.97 71.5788 110.482 70.7472C110.375 70.6038 110.267 70.4603 110.156 70.3125C109.963 70.3125 109.77 70.3125 109.57 70.3125ZM188.965 72.6562C188.569 73.0804 188.569 73.0804 188.177 73.6462C188.022 73.8607 187.866 74.0753 187.706 74.2963C187.541 74.5285 187.377 74.7608 187.207 75C187.042 75.2311 186.878 75.4622 186.708 75.7002C186.188 76.4352 185.671 77.1728 185.156 77.9114C184.897 78.2816 184.897 78.2816 184.632 78.6592C183.515 80.2572 182.422 81.8692 181.348 83.4961C181.493 83.6581 181.638 83.82 181.788 83.9869C182.616 84.9111 183.414 85.8133 184.076 86.8652C184.239 87.1069 184.402 87.3486 184.57 87.5977C184.764 87.5977 184.957 87.5977 185.156 87.5977C186.412 84.6087 187.466 81.602 188.342 78.479C188.43 78.1703 188.517 77.8616 188.607 77.5435C189.054 75.9122 189.393 74.3408 189.551 72.6562C189.357 72.6562 189.164 72.6562 188.965 72.6562ZM126.542 82.5291C125.474 83.8019 124.867 85.08 124.731 86.7371C124.756 86.9244 124.78 87.1117 124.805 87.3047C125.385 87.208 125.965 87.1113 126.562 87.0117C126.464 87.1775 126.365 87.3433 126.264 87.5141C125.933 88.2857 125.952 88.6968 126.068 89.5203C126.097 89.7442 126.126 89.9682 126.156 90.1989C126.264 90.8723 126.264 90.8723 126.562 91.6992C126.324 91.7989 126.324 91.7989 126.081 91.9006C125.184 92.4002 124.47 93.0547 123.724 93.75C123.569 93.8944 123.414 94.0387 123.254 94.1875C118.161 98.9805 114.519 104.915 112.5 111.621C112.431 111.849 112.361 112.077 112.29 112.311C111.401 115.503 111.162 118.805 110.822 122.09C110.402 126.11 109.973 129.887 107.794 133.392C104.394 139.041 104.82 146.306 106.298 152.568C106.409 152.983 106.523 153.396 106.641 153.809C106.708 154.051 106.776 154.293 106.846 154.543C106.918 154.782 106.991 155.022 107.065 155.269C107.164 155.596 107.164 155.596 107.264 155.93C107.348 156.1 107.433 156.27 107.52 156.445C107.81 156.542 108.1 156.639 108.398 156.738C108.785 155.868 109.172 154.998 109.57 154.102C109.764 154.102 109.957 154.102 110.156 154.102C110.211 154.34 110.211 154.34 110.267 154.584C111.827 161.595 111.827 161.595 116.016 167.285C116.209 167.285 116.402 167.285 116.602 167.285C116.795 166.028 116.988 164.771 117.188 163.477C117.574 163.38 117.961 163.283 118.359 163.184C118.378 163.492 118.396 163.8 118.414 164.117C118.68 166.239 119.595 168.27 120.529 170.177C121.504 172.221 121.716 173.951 121.787 176.177C121.925 180.257 123.308 183.327 125.775 186.548C129.387 191.276 131.477 196.178 132.595 202.017C132.936 203.735 133.402 205.131 134.473 206.543C134.62 206.745 134.767 206.948 134.919 207.156C136.779 209.497 139.247 210.741 142.09 211.523C141.945 211.088 141.945 211.088 141.797 210.645C142.087 211.08 142.087 211.08 142.383 211.523C144.287 212.193 146.425 212.234 148.425 212.311C148.705 212.322 148.985 212.333 149.273 212.345C154.656 212.527 159.97 212.237 164.154 208.411C166.578 205.755 167.204 202.854 167.882 199.431C168.416 196.829 169.274 194.541 170.508 192.188C170.613 191.986 170.717 191.784 170.825 191.576C171.912 189.547 173.239 187.714 174.585 185.851C176.937 182.553 178.114 179.575 178.235 175.507C178.311 173.178 178.834 171.43 179.883 169.336C180.115 168.808 180.341 168.277 180.56 167.743C180.656 167.52 180.751 167.297 180.85 167.067C181.079 166.328 181.091 165.71 181.055 164.941C181.151 164.941 181.248 164.941 181.348 164.941C181.541 164.265 181.734 163.588 181.934 162.891C182.224 163.084 182.514 163.277 182.812 163.477C182.996 164.465 182.996 164.465 183.105 165.527C183.201 165.919 183.297 166.309 183.398 166.699C183.398 166.893 183.398 167.086 183.398 167.285C185.836 166.29 187.02 163.154 188.022 160.896C188.508 159.622 188.76 158.373 188.965 157.031C189.023 156.823 189.082 156.615 189.142 156.401C189.322 155.835 189.322 155.835 188.965 155.273C189.158 155.273 189.352 155.273 189.551 155.273C189.581 155.086 189.611 154.899 189.642 154.706C189.709 154.506 189.775 154.307 189.844 154.102C190.134 154.005 190.424 153.908 190.723 153.809C191.158 155.114 191.158 155.114 191.602 156.445C191.892 156.349 192.182 156.252 192.48 156.152C192.784 155.376 193.019 154.647 193.231 153.845C193.294 153.609 193.357 153.373 193.422 153.129C194.339 149.514 194.627 145.922 194.476 142.2C194.468 141.964 194.459 141.728 194.45 141.485C194.362 140.016 194.065 138.76 193.543 137.382C193.359 136.816 193.359 136.816 193.359 135.938C193.226 135.811 193.094 135.684 192.957 135.553C192.312 134.883 192.169 134.18 191.895 133.301C191.701 133.011 191.508 132.721 191.309 132.422C191.115 132.422 190.922 132.422 190.723 132.422C190.686 132.204 190.65 131.987 190.613 131.763C190.469 130.976 190.469 130.976 190.137 130.389C189.763 129.618 189.679 128.871 189.551 128.027C189.454 127.834 189.357 127.641 189.258 127.441C189.258 127.055 189.258 126.668 189.258 126.27C189.064 126.27 188.871 126.27 188.672 126.27C188.769 125.593 188.865 124.916 188.965 124.219C188.771 124.219 188.578 124.219 188.379 124.219C188.428 124.049 188.477 123.88 188.527 123.705C188.757 122.659 188.634 121.618 188.562 120.557C188.543 120.223 188.543 120.223 188.523 119.883C188.458 118.852 188.353 117.89 188.086 116.895C187.905 116.059 187.765 115.233 187.646 114.386C187.537 113.636 187.411 112.934 187.207 112.207C187.014 112.207 186.82 112.207 186.621 112.207C186.607 112.027 186.592 111.847 186.578 111.661C186.545 111.306 186.545 111.306 186.511 110.944C186.491 110.709 186.47 110.475 186.449 110.233C186.359 109.491 186.359 109.491 185.742 108.691C185.7 108.486 185.658 108.281 185.614 108.069C185.56 107.888 185.505 107.706 185.449 107.52C185.159 107.423 184.869 107.326 184.57 107.227C184.546 106.985 184.522 106.743 184.497 106.494C184.094 104.612 183.198 103.106 181.934 101.66C181.598 101.751 181.598 101.751 181.256 101.843C180.469 101.953 180.469 101.953 179.59 101.367C179.493 101.077 179.396 100.787 179.297 100.488C179.865 100.598 179.865 100.598 180.469 100.781C180.565 100.975 180.662 101.168 180.762 101.367C181.197 101.077 181.197 101.077 181.641 100.781C179.269 97.8063 176.846 94.7934 173.866 92.403C173.438 91.9922 173.438 91.9922 173.145 91.1133C173.241 90.9199 173.338 90.7266 173.438 90.5273C173.602 88.8211 173.248 88.0878 172.266 86.7188C172.046 85.8765 172.046 85.8765 171.973 85.2539C173.884 85.4342 173.884 85.4342 174.591 86.0046C174.694 86.1436 174.797 86.2826 174.902 86.4258C174.811 84.2829 173.873 82.726 172.338 81.2416C161.335 72.4672 136.8 72.5296 126.542 82.5291ZM105.762 77.9297C104.803 81.415 104.166 84.8914 103.711 88.4766C103.664 88.8393 103.664 88.8393 103.617 89.2094C103.011 94.0858 102.591 99.174 103.711 104.004C103.904 104.004 104.098 104.004 104.297 104.004C104.389 103.771 104.481 103.537 104.576 103.297C105.654 100.628 105.654 100.628 106.439 99.6094C107.73 97.3139 106.823 93.9859 106.578 91.4509C106.174 86.9585 106.147 82.4371 106.055 77.9297C105.958 77.9297 105.861 77.9297 105.762 77.9297ZM194.238 78.5156C194.219 78.935 194.219 78.935 194.198 79.3629C193.96 84.3516 193.71 89.3191 193.056 94.274C192.464 97.5168 192.464 97.5168 193.433 100.488C194.282 101.689 194.849 102.942 195.41 104.297C195.7 104.152 195.7 104.152 195.996 104.004C196.831 101.19 196.698 98.1047 196.692 95.1965C196.692 94.9535 196.692 94.7105 196.692 94.4601C196.684 89.0358 196.224 83.7004 194.531 78.5156C194.435 78.5156 194.338 78.5156 194.238 78.5156ZM174.023 86.4258C174.316 87.0117 174.316 87.0117 174.316 87.0117L174.023 86.4258Z" fill="black"/>
<path d="M167.578 166.699C167.868 166.796 168.158 166.893 168.457 166.992C168.457 167.186 168.457 167.379 168.457 167.578C169.037 167.723 169.037 167.723 169.629 167.871C169.532 168.161 169.435 168.451 169.336 168.75C169.626 168.75 169.916 168.75 170.215 168.75C170.311 169.523 170.408 170.297 170.508 171.094C170.701 171.094 170.894 171.094 171.094 171.094C171.366 172.363 171.366 173.34 171.094 174.609C171.287 174.609 171.48 174.609 171.679 174.609C171.696 175.232 171.707 175.854 171.716 176.477C171.723 176.824 171.73 177.17 171.737 177.528C171.685 179.939 170.964 182.278 170.215 184.552C170.127 184.819 170.039 185.086 169.949 185.361C169.322 187.184 168.533 188.815 167.578 190.485C166.169 192.959 165.433 195.474 164.797 198.242C163.982 201.694 162.754 204.68 159.759 206.726C155.277 209.415 148.794 209.06 143.847 208.008C141.239 207.252 138.997 206.389 137.517 204.036C136.207 201.595 135.379 198.971 134.895 196.247C134.467 193.899 133.561 192.12 132.376 190.082C129.16 184.522 127.834 178.255 129.118 171.854C129.627 170.088 130.365 168.692 131.543 167.285C131.833 167.382 132.123 167.479 132.422 167.578C132.289 167.729 132.156 167.88 132.019 168.036C130.068 170.962 130.543 176.082 131.148 179.386C131.421 180.459 131.751 181.479 132.129 182.52C132.297 183 132.464 183.48 132.632 183.96C133.351 185.98 134.098 187.926 135.058 189.844C135.058 190.037 135.058 190.23 135.058 190.43C135.252 190.43 135.445 190.43 135.644 190.43C135.662 190.253 135.68 190.076 135.698 189.894C135.735 189.543 135.735 189.543 135.773 189.185C135.796 188.953 135.82 188.722 135.845 188.484C135.93 187.845 136.061 187.243 136.23 186.621C138.281 186.914 138.281 186.914 139.215 187.079C141.744 187.369 144.257 187.226 146.777 186.914C146.68 187.397 146.584 187.881 146.484 188.379C148.012 189.397 149.672 189.393 151.465 189.258C152.465 188.999 152.465 188.999 153.222 188.672C152.932 187.995 152.642 187.318 152.344 186.621C153.384 186.569 154.186 186.644 155.2 186.914C158.036 187.658 160.681 187.005 163.476 186.328C163.964 187.478 164.318 188.64 164.648 189.844C166.859 185.906 169.076 180.949 169.082 176.364C169.082 175.958 169.082 175.958 169.083 175.545C169.082 175.266 169.081 174.988 169.079 174.701C169.081 174.419 169.082 174.137 169.083 173.847C169.082 173.578 169.082 173.308 169.082 173.031C169.081 172.663 169.081 172.663 169.081 172.288C169.081 171.662 169.081 171.662 168.75 171.094C168.846 170.804 168.943 170.514 169.043 170.215C168.753 170.07 168.753 170.07 168.457 169.922C168.258 169.337 168.063 168.751 167.871 168.164C167.581 167.874 167.581 167.874 167.285 167.578C167.382 167.288 167.478 166.998 167.578 166.699ZM139.746 189.844C139.431 190.788 139.473 191.1 139.691 192.041C139.741 192.268 139.791 192.494 139.843 192.728C140.03 193.436 140.03 193.436 140.625 194.238C141.012 194.142 141.398 194.045 141.797 193.945C142.219 192.625 142.483 191.54 142.383 190.137C142.095 189.784 142.095 189.784 141.548 189.815C140.948 189.825 140.347 189.834 139.746 189.844ZM157.324 189.844C157.263 191.33 157.389 192.546 157.91 193.945C158.2 194.139 158.49 194.332 158.789 194.531C159.804 193.746 160.004 192.828 160.254 191.602C160.17 190.63 160.17 190.63 159.961 189.844C159.091 189.844 158.221 189.844 157.324 189.844ZM151.572 195.417C150.429 195.749 149.445 195.706 148.279 195.593C148.077 195.577 147.875 195.56 147.667 195.543C147.175 195.502 146.683 195.456 146.191 195.41C145.325 197.263 144.684 198.912 145.019 200.977C145.413 201.96 145.739 202.576 146.484 203.32C147.064 203.224 147.644 203.127 148.242 203.027C148.629 201.771 149.015 200.514 149.414 199.219C149.69 200.115 149.967 201.012 150.244 201.908C150.529 202.814 150.529 202.814 151.465 203.32C152.357 203.343 152.357 203.343 153.222 203.027C154.456 201.416 154.319 199.696 154.101 197.754C153.803 196.813 153.423 195.97 152.929 195.117C152.297 195.082 152.297 195.082 151.572 195.417ZM157.749 200.442C157.212 201.117 157.119 201.65 156.976 202.496C156.93 202.76 156.883 203.024 156.835 203.296C156.787 203.598 156.787 203.598 156.738 203.906C157.603 204.601 157.603 204.601 158.789 204.492C159.374 203.285 159.474 202.312 159.375 200.977C159.181 200.687 158.988 200.396 158.789 200.098C158.186 200.039 158.186 200.039 157.749 200.442ZM140.918 200.391C140.277 201.352 140.268 201.506 140.405 202.588C140.431 202.814 140.456 203.041 140.483 203.275C140.604 203.988 140.604 203.988 141.211 204.785C141.694 204.688 142.178 204.592 142.676 204.492C142.989 203.682 143.016 203.163 142.727 202.343C142.431 201.684 142.124 201.035 141.797 200.391C141.507 200.391 141.217 200.391 140.918 200.391Z" fill="black"/>
<path d="M162.432 170.086C163.188 171.265 163.246 172.64 163.183 174.022C162.893 174.458 162.893 174.458 162.597 174.901C162.476 175.24 162.355 175.578 162.23 175.927C161.628 177.132 161.193 177.359 159.96 177.831C159.67 177.976 159.67 177.976 159.374 178.124C159.084 178.124 158.794 178.124 158.495 178.124C158.495 178.317 158.495 178.511 158.495 178.71C158.302 178.71 158.108 178.71 157.909 178.71C157.909 179.29 157.909 179.87 157.909 180.468C157.716 180.468 157.522 180.468 157.323 180.468C157.42 180.758 157.517 181.048 157.616 181.347C157.429 181.425 157.242 181.504 157.049 181.585C156.347 181.899 156.347 181.899 156.151 182.812C155.492 183.123 155.492 183.123 154.687 183.397C154.458 183.492 154.23 183.586 153.994 183.684C151.182 184.775 148.753 184.612 145.897 183.69C144.262 182.963 143.094 181.962 142.089 180.468C141.945 180.013 141.811 179.555 141.686 179.095C141.506 178.413 141.506 178.413 141.21 177.831C140.226 177.315 140.226 177.315 139.159 176.952C137.95 175.851 137.434 174.817 137.328 173.18C137.357 171.603 137.929 170.85 139.049 169.756C144.986 165.106 156.385 166.21 162.432 170.086Z" fill="black"/>
<path d="M178.125 133.301C178.589 133.285 179.053 133.274 179.517 133.265C179.904 133.255 179.904 133.255 180.299 133.244C181.095 133.304 181.54 133.498 182.227 133.887C182.517 133.951 182.517 133.951 182.812 134.015C183.548 134.222 184.003 134.553 184.57 135.059C184.57 135.253 184.57 135.446 184.57 135.645C184.86 135.79 184.86 135.79 185.156 135.938C185.156 136.421 185.156 136.905 185.156 137.403C184.866 137.403 184.576 137.403 184.277 137.403C184.181 137.693 184.084 137.983 183.984 138.282C182.824 138.427 182.824 138.427 181.641 138.575C181.641 138.962 181.641 139.348 181.641 139.747C181.447 139.747 181.254 139.747 181.055 139.747C181.024 140.073 180.994 140.399 180.963 140.735C180.897 141.086 180.83 141.436 180.762 141.797C180.472 141.991 180.182 142.184 179.883 142.383C179.683 142.637 179.484 142.891 179.279 143.152C179.091 143.382 178.904 143.612 178.711 143.848C178.518 143.848 178.324 143.848 178.125 143.848C178.028 144.138 177.932 144.428 177.832 144.727C177.397 144.872 177.397 144.872 176.953 145.02C176.663 145.31 176.663 145.31 176.367 145.606C175.883 145.81 175.394 146.005 174.902 146.192C174.691 146.307 174.479 146.422 174.261 146.54C174.086 146.618 173.911 146.697 173.73 146.778C173.537 146.681 173.344 146.585 173.145 146.485C173.145 146.678 173.145 146.872 173.145 147.071C168.284 147.708 168.284 147.708 166.113 147.071C166.113 146.878 166.113 146.684 166.113 146.485C165.823 146.582 165.533 146.678 165.234 146.778C165.234 146.585 165.234 146.391 165.234 146.192C164.672 146.325 164.111 146.459 163.55 146.595C163.237 146.67 162.924 146.744 162.602 146.821C161.845 147.035 161.236 147.288 160.547 147.657C160.159 147.765 159.769 147.865 159.375 147.95C159.762 148.433 160.148 148.917 160.547 149.415C159.822 149.56 159.822 149.56 159.082 149.708C159.082 149.418 159.082 149.128 159.082 148.829C158.889 148.829 158.695 148.829 158.496 148.829C158.315 148.593 158.134 148.357 157.947 148.115C157.317 147.355 157.103 147.173 156.152 147.071C156.152 146.878 156.152 146.684 156.152 146.485C155.959 146.292 155.766 146.098 155.566 145.899C155.566 145.706 155.566 145.512 155.566 145.313C155.331 145.144 155.095 144.975 154.852 144.8C153.919 143.981 153.904 143.598 153.809 142.383C153.609 140.897 153.609 140.897 153.223 139.454C153.398 139.393 153.573 139.333 153.754 139.271C154.632 138.719 154.867 138.044 155.273 137.11C155.37 137.11 155.467 137.11 155.566 137.11C155.553 137.329 155.539 137.548 155.525 137.774C155.413 139.534 155.413 139.534 156.079 141.102C157.977 142.262 160.463 141.806 162.534 141.309C163.862 140.888 163.862 140.888 164.941 140.04C165.222 139.904 165.222 139.904 165.509 139.765C166.116 139.494 166.116 139.494 166.492 139.058C167.126 138.446 167.817 138.029 168.567 137.568C169.412 137.047 170.199 136.537 170.966 135.905C171.664 135.365 172.198 135.098 173.035 134.839C173.256 134.768 173.477 134.697 173.705 134.624C174.316 134.473 174.316 134.473 175.195 134.473C175.195 134.28 175.195 134.087 175.195 133.887C176.162 133.887 177.129 133.887 178.125 133.887C178.125 133.694 178.125 133.501 178.125 133.301Z" fill="black"/>
<path d="M130.664 137.109C131.677 137.8 132.678 138.509 133.68 139.216C135.134 140.225 136.572 141.007 138.282 141.504C138.465 141.559 138.648 141.614 138.837 141.671C139.629 141.832 140.385 141.858 141.193 141.87C141.641 141.881 141.641 141.881 142.098 141.893C143.099 141.782 143.633 141.518 144.434 140.918C144.829 140.165 144.829 140.165 145.02 139.453C145.407 139.453 145.793 139.453 146.192 139.453C146.482 141.193 146.482 141.193 146.778 142.969C146.387 143.164 145.997 143.359 145.606 143.554C145.703 143.845 145.799 144.135 145.899 144.433C144.776 145.573 143.617 146.666 142.438 147.748C142.263 147.909 142.088 148.07 141.908 148.236C141.481 148.629 141.053 149.021 140.625 149.414C140.529 149.22 140.432 149.027 140.332 148.828C140.607 148.205 140.607 148.205 140.918 147.656C140.693 147.578 140.467 147.5 140.234 147.42C139.94 147.317 139.646 147.213 139.344 147.107C139.051 147.005 138.759 146.903 138.458 146.798C137.696 146.484 137.696 146.484 137.11 145.898C136.277 145.993 135.541 146.226 134.745 146.491C131.485 147.419 127.215 147.154 124.219 145.605C121.516 144.05 119.707 141.98 118.225 139.25C117.725 138.5 117.381 138.27 116.565 137.915C115.44 137.412 115.44 137.412 115.137 137.109C115.009 136.285 115.009 136.285 115.137 135.351C119.548 131.642 126.521 134.42 130.664 137.109Z" fill="black"/>
</svg>
