<svg width="300" height="300" viewBox="0 0 300 300" fill="none" xmlns="http://www.w3.org/2000/svg">
<path d="M175.195 93.7509C175.438 93.9617 175.681 94.1724 175.931 94.3895C176.672 95.0456 177.401 95.7126 178.125 96.3877C178.45 96.689 178.45 96.689 178.782 96.9965C187.392 105.27 192.569 117.525 192.833 129.427C192.976 143.23 188.588 155.524 179.297 165.821C178.65 166.453 178.001 167.073 177.324 167.672C177.202 167.835 177.079 167.997 176.953 168.165C177.157 169.569 178.035 170.613 178.821 171.754C178.966 171.972 179.111 172.19 179.26 172.415C179.401 172.622 179.543 172.828 179.688 173.04C179.817 173.229 179.945 173.418 180.078 173.613C180.207 173.749 180.336 173.884 180.469 174.024C181.531 174.024 181.637 173.851 182.376 173.135C182.575 172.946 182.773 172.757 182.977 172.562C183.182 172.362 183.388 172.162 183.6 171.955C188.436 167.302 188.436 167.302 190.43 166.7C191.608 166.81 192.172 167.126 192.991 167.965C193.287 168.265 193.287 168.265 193.589 168.571C193.791 168.781 193.993 168.992 194.202 169.209C194.401 169.411 194.601 169.614 194.807 169.823C195.974 171.015 197.086 172.245 198.177 173.507C198.742 174.148 199.338 174.748 199.951 175.343C200.743 176.124 201.502 176.911 202.222 177.76C203.169 178.866 204.19 179.886 205.225 180.909C206.412 182.084 207.551 183.27 208.631 184.545C209.514 185.53 210.464 186.447 211.405 187.377C212.388 188.352 213.31 189.358 214.207 190.413C214.894 191.182 215.624 191.904 216.357 192.628C217.461 193.719 218.524 194.828 219.527 196.012C219.876 196.417 220.236 196.812 220.603 197.2C224.42 201.269 225.742 205.966 225.667 211.401C225.52 215.624 223.712 219.76 220.605 222.657C216.411 226.045 211.642 227.615 206.25 227.052C202.983 226.546 199.584 225.282 197.168 222.95C197.168 222.757 197.168 222.563 197.168 222.364C196.975 222.364 196.781 222.364 196.582 222.364C196.179 221.955 196.179 221.955 195.703 221.375C194.655 220.14 193.531 219.008 192.371 217.878C191.578 217.067 190.839 216.224 190.097 215.368C189.184 214.331 188.231 213.332 187.28 212.33C185.644 210.599 184.021 208.859 182.417 207.1C181.563 206.167 180.705 205.238 179.846 204.31C178.831 203.212 177.822 202.11 176.825 200.996C175.747 199.792 174.649 198.607 173.547 197.425C167.489 190.915 167.489 190.915 167.139 189.076C167.299 187.995 167.466 187.781 168.174 187.001C168.361 186.795 168.547 186.59 168.739 186.378C169.695 185.361 170.671 184.365 171.661 183.381C171.856 183.185 172.051 182.989 172.251 182.788C173.413 181.629 174.605 180.524 175.852 179.458C176.337 179.031 176.795 178.588 177.246 178.126C176.762 176.67 175.93 175.495 175.067 174.244C174.923 174.03 174.78 173.815 174.632 173.594C174.492 173.39 174.352 173.186 174.208 172.976C174.081 172.791 173.954 172.605 173.824 172.414C173.428 171.888 173.428 171.888 172.559 171.681C171.915 172.042 171.331 172.415 170.728 172.834C163.605 177.554 155.119 180.767 146.488 180.822C146.272 180.824 146.056 180.826 145.834 180.828C136.794 180.895 136.794 180.895 132.715 179.884C132.346 179.794 132.346 179.794 131.969 179.703C119.38 176.562 108.623 168.59 101.832 157.53C94.8971 145.818 92.9312 132.1 96.2587 118.877C99.6549 106.282 108.063 95.5517 119.22 88.8803C136.795 78.7883 159.74 80.323 175.195 93.7509ZM112.5 99.6103C112.268 99.8267 112.037 100.043 111.798 100.266C104.257 107.491 99.3514 118.453 99.0234 128.907C99.0159 129.105 99.0083 129.302 99.0005 129.505C98.564 142.305 103.028 153.923 111.718 163.26C117.891 169.716 126.042 174.001 134.766 175.782C135.134 175.86 135.134 175.86 135.511 175.94C138.126 176.441 140.72 176.485 143.372 176.478C143.604 176.478 143.836 176.478 144.075 176.478C147.906 176.465 151.56 176.204 155.273 175.196C155.613 175.104 155.613 175.104 155.96 175.011C167.081 171.881 176.72 164.455 182.453 154.414C184.75 150.27 186.427 146.126 187.5 141.505C187.552 141.283 187.604 141.062 187.658 140.833C190.131 129.759 187.895 117.562 181.934 107.96C175.152 97.3664 164.835 90.2576 152.608 87.5288C150.672 87.1509 148.782 86.9649 146.812 86.9428C146.598 86.94 146.385 86.9371 146.165 86.9341C133.168 86.7948 121.972 90.4623 112.5 99.6103ZM189.551 172.267C189.551 172.46 189.551 172.653 189.551 172.852C189.378 172.93 189.205 173.007 189.027 173.086C188.351 173.454 187.92 173.835 187.386 174.385C187.203 174.571 187.021 174.757 186.833 174.948C186.547 175.243 186.547 175.243 186.255 175.544C184.953 176.869 183.653 178.158 182.232 179.356C181.252 180.23 180.343 181.176 179.42 182.11C178.454 183.083 177.458 183.995 176.413 184.884C174.969 186.178 173.626 187.585 172.266 188.966C172.658 189.847 173.085 190.43 173.785 191.09C174.503 191.787 175.184 192.493 175.836 193.25C178.176 195.96 180.66 198.546 183.105 201.16C184.254 202.39 185.384 203.635 186.505 204.89C187.395 205.872 188.298 206.84 189.203 207.807C194.411 213.376 194.411 213.376 196.407 215.69C197.079 216.44 197.796 217.141 198.521 217.839C198.926 218.263 198.926 218.263 199.219 218.849C199.412 218.849 199.605 218.849 199.805 218.849C199.805 219.042 199.805 219.235 199.805 219.435C202.299 221.873 205.524 222.732 208.909 222.73C212.381 222.672 215.498 221.409 218.077 219.081C220.504 216.41 221.595 212.964 221.547 209.407C221.132 204.049 218.139 200.813 214.484 197.209C213.928 196.645 213.41 196.068 212.897 195.466C211.999 194.418 211.039 193.45 210.059 192.481C209.108 191.543 208.175 190.609 207.312 189.588C206.169 188.243 204.902 187.025 203.649 185.784C202.589 184.731 201.581 183.658 200.616 182.517C199.805 181.606 198.93 180.761 198.062 179.905C197.098 178.948 196.197 177.957 195.316 176.924C194.597 176.111 193.82 175.36 193.045 174.6C192.495 174.039 191.992 173.458 191.492 172.852C191.238 172.562 190.984 172.272 190.723 171.974C190.115 171.93 190.115 171.93 189.551 172.267Z" fill="#0A0A0A"/>
<path d="M167.461 103.796C174.971 110.047 179.098 119.08 180.085 128.682C180.923 138.765 177.595 148.24 171.15 155.932C166.591 161.189 160.673 164.77 154.048 166.79C153.698 166.897 153.698 166.897 153.342 167.005C144.249 169.639 134.6 168.241 126.27 163.934C123.341 162.267 120.806 160.216 118.36 157.909C118.162 157.73 117.964 157.551 117.76 157.366C111.657 151.63 107.9 142.6 107.484 134.325C107.19 124.117 110.011 114.616 117.101 107.048C117.324 106.817 117.546 106.585 117.774 106.347C117.996 106.106 118.219 105.866 118.447 105.618C131.494 91.9108 153.263 92.3099 167.461 103.796ZM119.618 110.539C113.606 117.11 111.661 125.491 111.875 134.184C112.255 142.497 116.333 150.062 122.255 155.751C129.08 161.72 137.46 164.322 146.485 163.769C153.923 163.105 160.192 160.075 165.821 155.273C166.018 155.106 166.216 154.939 166.419 154.767C172.187 149.436 175.502 141.064 175.866 133.332C176.111 124.31 173.073 115.76 166.865 109.121C159.77 102.286 151.299 99.7315 141.623 99.8398C133.009 100.014 125.457 104.415 119.618 110.539Z" fill="black"/>
</svg>
