<svg width="300" height="300" viewBox="0 0 300 300" fill="none" xmlns="http://www.w3.org/2000/svg">
<path d="M140.919 68.2616C141.133 68.2994 141.348 68.3372 141.569 68.3761C153.245 70.4778 163.499 75.8042 172.1 83.9417C172.404 84.2283 172.709 84.5133 173.016 84.7966C177.147 88.6239 180.538 93.1711 183.112 98.1775C183.393 98.7192 183.688 99.2517 183.986 99.7844C186.849 105.029 188.588 111.015 189.551 116.894C189.617 117.26 189.682 117.626 189.749 118.002C190.701 124.375 190.569 131.397 189.258 137.695C189.21 137.934 189.161 138.174 189.111 138.42C187.928 144.043 185.834 149.348 183.106 154.394C183.012 154.57 182.919 154.745 182.823 154.926C179.846 160.47 175.917 165.28 171.387 169.629C172.565 171.048 173.808 172.355 175.125 173.646C175.929 174.466 176.651 175.339 177.362 176.24C177.873 176.79 177.873 176.79 179.004 176.66C179.508 176.265 179.508 176.265 179.957 175.726C182.52 173.027 185.76 172.01 189.423 171.899C194.263 171.959 197.638 173.876 200.977 177.246C201.877 178.184 202.762 179.136 203.647 180.089C205.789 182.387 208.018 184.596 210.253 186.804C212.655 189.183 212.655 189.183 213.702 190.41C215.167 192.125 216.806 193.68 218.409 195.264C222.174 198.982 222.174 198.982 223.718 200.797C224.234 201.402 224.784 201.973 225.33 202.551C227.81 205.357 229.021 208.998 228.892 212.739C228.505 216.657 227.045 219.959 224.122 222.656C223.928 222.656 223.735 222.656 223.536 222.656C223.536 222.85 223.536 223.043 223.536 223.242C223.167 223.604 223.167 223.604 222.62 224.048C221.775 224.76 220.978 225.499 220.205 226.289C220.03 226.468 219.855 226.647 219.675 226.831C219.327 227.189 218.981 227.549 218.636 227.911C217.13 229.456 215.465 230.738 213.373 231.372C213.167 231.437 212.96 231.502 212.747 231.569C208.902 232.59 204.929 232.066 201.426 230.176C199.839 229.131 198.514 227.795 197.169 226.465C196.958 226.258 196.747 226.052 196.53 225.839C192.305 221.686 192.305 221.686 190.902 220.048C189.366 218.264 187.65 216.652 185.968 215.008C185.713 214.756 185.457 214.504 185.195 214.245C184.846 213.904 184.846 213.904 184.49 213.555C183.985 212.988 183.985 212.988 183.985 212.402C183.792 212.402 183.598 212.402 183.399 212.402C182.981 211.977 182.981 211.977 182.493 211.386C181.348 210.04 180.118 208.805 178.858 207.568C177.435 206.171 176.061 204.759 174.761 203.246C174.236 202.641 173.681 202.068 173.127 201.489C170.051 198.038 169.363 194.098 169.574 189.647C169.873 185.991 171.73 183.485 174.317 181.055C173.927 180.197 173.495 179.563 172.849 178.879C172.675 178.694 172.501 178.509 172.322 178.318C172.14 178.127 171.959 177.937 171.772 177.74C171.596 177.553 171.42 177.366 171.239 177.173C170.885 176.797 170.528 176.424 170.169 176.052C169.8 175.666 169.437 175.276 169.079 174.88C168.903 174.69 168.726 174.5 168.543 174.304C168.386 174.13 168.229 173.957 168.066 173.778C167.597 173.372 167.597 173.372 166.991 173.493C166.04 173.88 165.231 174.483 164.393 175.067C151.117 184.049 135.029 187.078 119.307 184.125C108.073 181.871 98.1797 176.324 89.942 168.457C89.5352 168.073 89.5352 168.073 89.1203 167.682C87.0253 165.655 85.2281 163.473 83.4967 161.133C83.3796 160.975 83.2625 160.817 83.1419 160.654C74.1513 148.405 70.4659 132.974 72.5389 117.951C74.8234 103.158 82.4379 89.4886 94.3365 80.2733C94.5 80.146 94.6636 80.0187 94.832 79.8875C97.5563 77.7807 100.375 76.0195 103.419 74.414C103.606 74.3124 103.794 74.2109 103.987 74.1063C114.998 68.1551 128.586 66.0376 140.919 68.2616ZM94.6295 86.4257C94.2461 86.7505 93.8616 87.074 93.4759 87.3961C89.0552 91.2764 85.5786 96.1557 82.9107 101.367C82.7425 101.693 82.7425 101.693 82.5708 102.025C77.1169 112.699 75.3457 125.638 77.9303 137.402C77.9854 137.655 78.0404 137.908 78.0972 138.168C79.8295 145.786 83.087 152.916 87.8912 159.082C88.1614 159.442 88.1614 159.442 88.4371 159.809C91.5916 163.857 95.3844 167.59 99.6099 170.508C99.9234 170.725 100.237 170.942 100.56 171.166C112.561 179.263 127.149 182.219 141.387 179.59C151.167 177.661 159.739 173.487 167.286 166.992C167.685 166.656 167.685 166.656 168.091 166.312C169.523 165.079 170.764 163.754 171.973 162.305C172.199 162.046 172.426 161.786 172.659 161.52C174.509 159.37 176.085 157.12 177.54 154.687C177.659 154.49 177.778 154.293 177.901 154.09C179.98 150.629 181.489 147.07 182.813 143.262C182.933 142.929 183.053 142.595 183.177 142.252C187.528 129.335 185.902 114.266 179.938 102.154C177.463 97.2831 174.237 93.0461 170.508 89.0624C170.253 88.7878 169.998 88.5133 169.735 88.2304C160.225 78.2393 146.301 72.6842 132.622 72.3266C118.611 72.0774 104.896 76.7278 94.6295 86.4257ZM182.52 179.883C182.057 180.299 181.593 180.714 181.129 181.128C180.762 181.46 180.762 181.46 180.388 181.8C179.82 182.312 179.25 182.819 178.674 183.322C175.518 186.081 175.518 186.081 174.247 189.963C174.148 193.503 174.558 196.009 177.045 198.706C177.592 199.277 178.149 199.834 178.712 200.391C178.908 200.587 179.104 200.783 179.305 200.986C179.623 201.303 179.943 201.619 180.264 201.933C180.745 202.424 181.187 202.931 181.63 203.455C183.097 205.142 184.702 206.695 186.292 208.264C186.903 208.867 187.512 209.47 188.121 210.075C188.389 210.339 188.656 210.603 188.932 210.875C189.551 211.523 189.551 211.523 189.844 212.109C190.038 212.109 190.231 212.109 190.43 212.109C190.497 212.272 190.563 212.434 190.632 212.601C191.128 213.48 191.755 214.08 192.475 214.787C192.619 214.93 192.763 215.072 192.911 215.219C193.371 215.673 193.832 216.125 194.294 216.577C197.823 220.043 197.823 220.043 199.373 221.858C201.502 224.35 203.618 226.442 206.873 227.289C207.151 227.307 207.429 227.325 207.715 227.344C208.25 227.389 208.25 227.389 208.796 227.435C211.643 227.37 213.663 226.02 215.684 224.128C216.276 223.594 216.276 223.594 216.212 222.949C216.405 222.949 216.598 222.949 216.797 222.949C217.432 222.412 217.432 222.412 217.969 221.777C217.969 221.584 217.969 221.391 217.969 221.191C218.21 221.088 218.21 221.088 218.456 220.982C220.794 219.697 222.871 217.544 223.829 215.039C224.416 212.618 224.364 209.894 223.198 207.652C220.882 204.001 217.468 201.032 214.417 198.01C213.585 197.186 212.755 196.361 211.925 195.536C211.738 195.352 211.552 195.168 211.36 194.979C210.264 193.888 209.234 192.76 208.223 191.589C207.409 190.669 206.539 189.809 205.665 188.946C205.477 188.76 205.29 188.574 205.097 188.382C204.506 187.794 203.913 187.208 203.321 186.621C198.778 182.124 198.778 182.124 197.247 180.319C195.442 178.198 193.394 176.858 190.596 176.549C187.012 176.429 185.057 177.479 182.52 179.883Z" fill="black"/>
<path d="M130.903 84.3014C131.12 84.3012 131.337 84.301 131.56 84.3008C134.849 84.3055 138.012 84.4405 141.212 85.2535C141.417 85.3038 141.621 85.3541 141.832 85.4059C148.972 87.2027 155.203 90.7373 160.548 95.8004C160.825 96.0557 161.103 96.311 161.389 96.574C168.238 103.013 173.054 112.86 173.486 122.324C173.499 123.572 173.511 124.82 173.512 126.068C173.512 126.293 173.512 126.518 173.512 126.75C173.508 129.997 173.399 133.075 172.56 136.23C172.509 136.43 172.459 136.63 172.407 136.835C169.596 147.911 162.375 157.045 152.659 162.94C142.908 168.645 131.036 169.976 120.135 167.221C113.17 165.344 107.279 161.835 101.954 157.031C101.727 156.828 101.499 156.625 101.265 156.416C93.8024 149.374 89.0139 138.785 88.7075 128.557C88.4632 115.901 92.5892 105.271 101.368 96.0934C109.166 88.2541 119.979 84.3103 130.903 84.3014ZM106.935 97.5582C106.695 97.7625 106.456 97.9668 106.209 98.1773C98.8255 104.612 94.3382 113.284 93.4579 123.046C92.828 132.711 95.4903 142.659 101.885 150.083C102.665 150.959 103.479 151.798 104.298 152.636C104.511 152.867 104.724 153.099 104.943 153.337C111.182 159.946 120.605 163.506 129.58 163.829C140.524 164.025 149.944 160.421 157.911 152.929C158.171 152.698 158.171 152.698 158.435 152.462C162.858 148.354 166.062 142.313 167.579 136.523C167.636 136.319 167.692 136.116 167.751 135.906C170.297 126.48 168.897 116.103 164.079 107.642C163.185 106.154 162.218 104.772 161.134 103.418C160.939 103.173 160.939 103.173 160.74 102.924C158.828 100.551 156.857 98.5014 154.395 96.6793C154.07 96.4255 154.07 96.4255 153.739 96.1666C140.192 86.042 119.764 86.2394 106.935 97.5582Z" fill="black"/>
</svg>
