<svg width="300" height="300" viewBox="0 0 300 300" fill="none" xmlns="http://www.w3.org/2000/svg">
<path d="M158.184 32.4651C163.88 35.3592 168.987 38.7858 173.73 43.0669C173.896 43.2166 174.062 43.3663 174.233 43.5205C177.326 46.3167 180.215 49.1695 182.812 52.4419C182.984 52.6517 183.156 52.8615 183.333 53.0777C194.693 67.0139 200.078 83.739 199.218 101.661C199.129 102.248 199.034 102.835 198.925 103.418C197.81 103.025 196.859 102.489 195.859 101.873C186.997 96.4281 176.093 92.7682 165.636 95.1054C164.809 95.3115 163.996 95.5461 163.183 95.8012C162.986 95.8625 162.789 95.9237 162.587 95.9868C156.842 97.8371 151.903 101.019 147.289 104.847C147.128 104.979 146.967 105.112 146.801 105.248C145.978 105.949 145.464 106.541 145.019 107.52C145.362 107.861 145.362 107.861 145.712 108.209C146.571 109.062 147.428 109.916 148.286 110.771C148.655 111.139 149.025 111.506 149.395 111.874C149.93 112.405 150.464 112.938 150.998 113.471C151.161 113.632 151.323 113.793 151.49 113.959C152.306 114.774 153.086 115.605 153.835 116.483C155.235 118.1 156.764 119.59 158.281 121.097C158.836 121.648 159.39 122.201 159.944 122.753C161.121 123.926 162.298 125.098 163.476 126.27C164.842 127.629 166.207 128.989 167.572 130.35C168.114 130.89 168.658 131.43 169.201 131.97C171.932 134.689 171.932 134.689 172.985 135.926C174.39 137.574 175.957 139.072 177.495 140.595C178.078 141.173 178.66 141.752 179.242 142.331C180.894 143.977 182.548 145.62 184.203 147.262C185.219 148.271 186.234 149.28 187.248 150.291C187.634 150.675 188.021 151.059 188.408 151.442C188.946 151.975 189.483 152.51 190.02 153.045C190.181 153.204 190.342 153.362 190.508 153.526C191.601 154.621 191.601 154.621 191.601 155.274C191.987 155.467 192.374 155.661 192.773 155.86C192.773 156.053 192.773 156.247 192.773 156.446C193.063 156.542 193.353 156.639 193.651 156.739C194.134 157.229 194.134 157.229 194.64 157.837C195.445 158.786 196.275 159.678 197.167 160.547C197.656 161.035 198.144 161.524 198.632 162.012C198.934 162.314 199.237 162.616 199.539 162.918C199.704 163.082 199.868 163.245 200.037 163.414C200.212 163.589 200.387 163.763 200.568 163.943C202.487 165.858 204.406 167.773 206.324 169.689C207.482 170.846 208.641 172.002 209.8 173.158C210.925 174.28 212.049 175.403 213.173 176.526C213.6 176.952 214.027 177.377 214.454 177.803C215.053 178.4 215.651 178.998 216.249 179.596C216.423 179.769 216.597 179.942 216.776 180.12C217.631 180.977 218.452 181.85 219.242 182.768C220.444 184.157 221.735 185.449 223.035 186.746C223.3 187.012 223.566 187.278 223.839 187.551C224.56 188.274 225.281 188.995 226.003 189.716C226.763 190.475 227.521 191.234 228.28 191.993C229.554 193.268 230.829 194.542 232.104 195.815C233.572 197.282 235.04 198.751 236.507 200.219C237.773 201.486 239.038 202.752 240.305 204.017C241.059 204.771 241.812 205.524 242.565 206.279C243.406 207.12 244.247 207.96 245.089 208.8C245.335 209.047 245.581 209.293 245.834 209.547C247.078 210.786 248.34 211.983 249.677 213.122C250.578 213.911 251.408 214.77 252.245 215.625C253.496 216.891 254.756 218.116 256.116 219.267C256.708 219.787 257.259 220.337 257.812 220.899C258.74 221.84 259.701 222.718 260.702 223.58C261.407 224.191 262.1 224.814 262.792 225.44C263.659 226.222 264.529 226.999 265.41 227.765C266.64 228.836 267.842 229.936 269.045 231.035C269.687 231.616 270.337 232.183 270.995 232.746C274.374 235.699 276.851 238.145 277.239 242.798C276.957 250.348 271.456 256.697 266.253 261.64C260.948 266.322 253.568 271.409 246.227 271.14C243.989 270.824 242.269 269.791 240.819 268.067C240.674 267.908 240.529 267.748 240.38 267.584C239.127 266.116 238.266 264.521 237.395 262.812C235.916 259.914 234.184 257.255 232.323 254.59C232.181 254.384 232.038 254.178 231.891 253.966C229.731 250.851 227.488 247.799 225.231 244.754C224.704 244.041 224.18 243.325 223.658 242.608C221.796 240.059 219.897 237.556 217.91 235.103C217.122 234.13 216.362 233.138 215.606 232.142C214.502 230.692 213.345 229.297 212.159 227.913C211.189 226.777 210.259 225.614 209.344 224.433C207.837 222.495 206.255 220.632 204.646 218.779C203.89 217.907 203.138 217.032 202.386 216.156C202.239 215.985 202.091 215.814 201.94 215.638C201.058 214.609 200.197 213.567 199.346 212.513C198.144 211.031 196.868 209.632 195.572 208.234C194.969 207.581 194.379 206.922 193.798 206.25C192.799 205.098 191.767 203.978 190.734 202.857C190.004 202.063 189.283 201.263 188.579 200.446C187.25 198.913 185.849 197.444 184.462 195.962C183.487 194.921 182.516 193.877 181.548 192.829C181.404 192.673 181.261 192.517 181.112 192.357C180.224 191.393 179.345 190.42 178.472 189.441C177.573 188.437 176.645 187.478 175.683 186.533C175.172 186.013 174.698 185.472 174.224 184.919C173.414 183.978 172.562 183.099 171.679 182.227C170.838 181.396 170.025 180.566 169.262 179.664C168.271 178.503 167.196 177.44 166.112 176.368C164.866 175.134 163.662 173.895 162.529 172.556C161.85 171.793 161.126 171.079 160.399 170.362C159.505 169.479 158.63 168.594 157.818 167.634C156.679 166.297 155.424 165.078 154.17 163.85C153.298 162.991 152.463 162.118 151.665 161.188C150.404 159.727 149.03 158.386 147.655 157.032C146.084 155.484 144.547 153.934 143.111 152.26C142.556 151.621 141.964 151.029 141.357 150.44C140.564 149.671 139.823 148.879 139.104 148.041C137.873 146.622 136.543 145.312 135.204 143.995C133.704 142.518 132.247 141.035 130.875 139.438C129.974 138.42 128.997 137.476 128.026 136.524C126.653 135.177 125.335 133.809 124.079 132.35C123.568 131.764 123.034 131.209 122.478 130.665C122.307 130.495 122.135 130.326 121.958 130.152C121.771 129.971 121.771 129.971 121.581 129.786C121.085 130.267 120.599 130.755 120.116 131.25C119.964 131.404 119.812 131.557 119.655 131.715C116.651 134.922 114.885 138.798 113.671 142.969C113.593 143.235 113.515 143.5 113.434 143.774C111.901 150.38 113.465 156.876 116.923 162.541C118.879 165.616 121.386 168.206 123.925 170.801C124.184 171.069 124.443 171.336 124.71 171.611C125.842 172.763 127.01 173.851 128.236 174.902C128.924 175.505 129.594 176.126 130.263 176.751C132.461 178.803 134.747 180.709 137.114 182.565C137.316 182.724 137.518 182.883 137.727 183.048C138.127 183.363 138.529 183.677 138.933 183.989C139.41 184.365 139.872 184.759 140.331 185.157C140.331 185.35 140.331 185.543 140.331 185.743C122.485 195.444 103.23 197.919 83.5501 192.243C75.3921 189.816 67.2734 186.043 60.3507 181.055C60.086 180.864 60.086 180.864 59.8159 180.67C53.9455 176.415 48.4035 171.597 43.6514 166.114C43.4168 165.845 43.4168 165.845 43.1774 165.571C40.0578 161.977 37.4139 158.115 34.8624 154.102C34.7189 153.877 34.5754 153.652 34.4275 153.42C30.6952 147.502 27.9772 141.098 25.7804 134.473C25.7046 134.253 25.6288 134.033 25.5508 133.807C23.5229 127.899 22.4816 121.305 22.5394 115.064C22.5434 114.5 22.5434 114.5 22.5474 113.924C22.5508 113.648 22.5542 113.371 22.5577 113.086C23.6084 112.736 24.6296 112.663 25.7254 112.57C26.2036 112.527 26.6818 112.484 27.1599 112.441C27.5387 112.406 27.5387 112.406 27.9252 112.371C47.1888 110.599 66.6868 105.685 81.7374 92.8716C81.9451 92.6959 82.1528 92.5203 82.3668 92.3394C82.8431 91.9337 83.3161 91.5243 83.7882 91.1137C82.4709 89.5117 81.0364 88.074 79.5367 86.6448C77.9995 84.9483 77.7465 83.5045 77.8121 81.2775C78.3822 76.3758 82.5034 72.2014 85.8389 68.8481C85.9865 68.6994 86.1341 68.5506 86.2861 68.3974C89.945 64.7584 95.9624 59.2738 101.403 59.0886C103.858 59.1476 105.554 60.2725 107.219 62.0028C107.402 62.2013 107.586 62.3998 107.775 62.6042C108.151 63.0033 108.529 63.4013 108.908 63.7978C109.152 64.0605 109.152 64.0605 109.401 64.3285C109.878 64.8174 109.878 64.8174 110.741 65.0395C110.88 64.8975 111.019 64.7555 111.162 64.6092C111.789 63.9699 112.419 63.3328 113.048 62.6958C113.267 62.4722 113.486 62.2486 113.711 62.0183C113.921 61.8068 114.13 61.5953 114.346 61.3774C114.636 61.0828 114.636 61.0828 114.932 60.7823C115.429 60.352 115.429 60.352 116.015 60.352C116.123 60.0982 116.123 60.0982 116.234 59.8393C116.654 59.0836 117.123 58.5763 117.773 58.0083C117.966 58.0083 118.159 58.0083 118.358 58.0083C118.434 57.8338 118.509 57.6593 118.586 57.4796C118.977 56.7787 119.364 56.4183 119.988 55.9209C120.764 55.3103 120.764 55.3103 121.288 54.4927C121.482 54.4927 121.675 54.4927 121.874 54.4927C122.067 54.1059 122.261 53.7192 122.46 53.3208C122.653 53.3208 122.847 53.3208 123.046 53.3208C123.118 53.1532 123.19 52.9856 123.264 52.8129C123.695 52.0354 124.199 51.5205 124.835 50.8992C125.075 50.6624 125.315 50.4256 125.562 50.1817C125.813 49.9366 126.065 49.6915 126.324 49.4389C127.867 47.9274 129.38 46.4164 130.786 44.7753C131.491 43.9582 132.232 43.1764 132.97 42.3894C134.522 40.719 135.989 38.9983 137.401 37.2075C137.579 36.9832 137.579 36.9832 137.761 36.7545C139.335 34.7632 140.807 32.7417 142.179 30.6043C145.466 25.8223 154.226 30.4994 158.184 32.4651ZM146.776 35.1567C146.158 35.8752 146.158 35.8752 145.586 36.823C144.299 38.7897 142.844 40.5444 141.307 42.3179C140.697 43.031 140.113 43.7638 139.525 44.4951C138.642 45.5814 137.727 46.5856 136.721 47.5575C136.193 48.0842 135.708 48.6352 135.222 49.2009C134.353 50.2107 133.434 51.1502 132.476 52.0757C131.934 52.6334 131.429 53.2021 130.923 53.7921C129.777 55.1054 128.564 56.3406 127.33 57.5712C127.093 57.8083 126.856 58.0453 126.613 58.2896C125.837 59.0667 125.06 59.8427 124.283 60.6187C123.74 61.1621 123.197 61.7056 122.653 62.2491C121.518 63.3856 120.381 64.5215 119.244 65.657C117.935 66.9645 116.627 68.273 115.319 69.5821C114.055 70.8483 112.789 72.1136 111.523 73.3786C110.988 73.9139 110.453 74.4495 109.918 74.9852C109.168 75.7353 108.418 76.4844 107.667 77.2333C107.449 77.4523 107.231 77.6714 107.005 77.8971C105.819 79.0784 104.604 80.2058 103.337 81.2991C102.765 81.7965 102.221 82.3149 101.688 82.8534C101.496 83.0461 101.305 83.2387 101.107 83.4372C100.909 83.6381 100.71 83.8389 100.506 84.0459C100.293 84.2592 100.081 84.4725 99.8626 84.6923C99.1912 85.3672 98.5208 86.0431 97.8507 86.7192C96.9665 87.6112 96.0814 88.5022 95.1956 89.3926C94.9972 89.5934 94.7988 89.7943 94.5943 90.0012C93.4502 91.1511 92.2751 92.2449 91.044 93.3014C90.5636 93.7182 90.0992 94.1464 89.6395 94.5859C74.5249 109.033 54.1559 115.325 33.9048 118.202C32.269 118.438 30.6359 118.691 29.003 118.946C30.4281 138.184 41.7045 157.178 56.1347 169.707C56.9464 170.375 57.7694 171.027 58.5929 171.68C58.9215 171.953 59.2495 172.227 59.577 172.502C64.3742 176.49 69.713 179.472 75.2921 182.227C75.5196 182.34 75.7471 182.454 75.9816 182.57C91.3645 190.132 109.8 190.917 125.939 185.505C126.832 185.199 127.723 184.888 128.612 184.571C128.714 183.622 128.714 183.622 127.882 182.93C127.554 182.632 127.224 182.337 126.891 182.044C126.656 181.831 126.656 181.831 126.415 181.615C125.656 180.931 124.892 180.254 124.127 179.577C115.541 171.919 107.726 163.502 106.676 151.52C106.28 141.718 109.729 133.465 116.18 126.197C116.612 125.732 117.045 125.268 117.48 124.805C117.749 124.51 118.018 124.214 118.286 123.918C121.84 120.002 121.84 120.002 123.729 118.411C125.649 116.739 127.409 114.895 129.198 113.086C133.339 108.9 133.339 108.9 135.147 107.365C135.992 106.632 136.766 105.83 137.548 105.03C138.918 103.648 140.297 102.316 141.796 101.075C141.952 100.942 142.109 100.809 142.27 100.672C150.334 93.8372 160.006 88.5654 170.8 88.1841C171.085 88.1723 171.37 88.1606 171.664 88.1486C178.971 87.9958 185.803 90.0828 192.48 92.8716C193.318 80.9482 187.258 68.2562 180.021 59.1404C179.583 58.5864 179.153 58.027 178.724 57.4658C177.49 55.859 176.257 54.293 174.781 52.8973C174.278 52.4049 173.834 51.8831 173.382 51.3432C167.031 44.0393 157.322 37.6176 147.948 35.1567C147.562 35.1567 147.175 35.1567 146.776 35.1567ZM96.4774 68.3904C96.2538 68.6381 96.0302 68.8858 95.7999 69.1411C95.3461 69.5605 94.888 69.9752 94.4266 70.3862C94.2019 70.5871 93.9772 70.788 93.7457 70.995C93.1632 71.4848 93.1632 71.4848 92.5772 71.7778C92.5772 71.9712 92.5772 72.1645 92.5772 72.3637C92.4137 72.431 92.2502 72.4982 92.0817 72.5674C91.222 73.0533 90.6432 73.6671 89.9588 74.3779C89.2429 75.1193 88.5644 75.8127 87.7398 76.4321C86.8199 77.2134 86.2297 78.0737 85.5826 79.0837C85.461 79.2618 85.3394 79.4398 85.2141 79.6233C84.7254 80.3784 84.3854 80.9839 84.3249 81.8898C84.854 83.0153 85.6938 83.7667 86.5897 84.6135C86.77 84.7885 86.9503 84.9636 87.1361 85.1439C87.58 85.5741 88.0275 86.0005 88.4757 86.4262C89.7778 86.01 90.5088 85.3776 91.4644 84.4115C91.609 84.2666 91.7535 84.1218 91.9024 83.9725C92.3774 83.4954 92.8492 83.0154 93.3211 82.5353C93.6517 82.2023 93.9825 81.8695 94.3135 81.537C95.1829 80.6625 96.0499 79.7856 96.9161 78.908C98.3041 77.5027 99.6958 76.1011 101.088 74.6996C101.573 74.21 102.058 73.7192 102.542 73.2283C102.839 72.9281 103.136 72.6279 103.434 72.3277C103.693 72.0653 103.952 71.803 104.219 71.5327C104.882 70.8989 104.882 70.8989 105.761 70.313C105.761 70.0229 105.761 69.7329 105.761 69.4341C105.567 69.4341 105.374 69.4341 105.175 69.4341C105.175 69.2407 105.175 69.0473 105.175 68.8481C104.702 68.358 104.702 68.358 104.095 67.8593C103.881 67.6785 103.668 67.4976 103.448 67.3112C103.244 67.1416 103.041 66.972 102.831 66.7973C102.553 66.5617 102.275 66.326 101.989 66.0832C100.356 64.8825 97.7344 67.2503 96.4774 68.3904ZM133.707 117.338C132.813 118.233 131.921 119.129 131.029 120.026C130.566 120.491 130.102 120.957 129.638 121.422C128.514 122.549 127.391 123.677 126.269 124.805C126.743 125.814 127.272 126.448 128.081 127.222C128.906 128.013 129.679 128.823 130.422 129.689C131.698 131.163 133.084 132.52 134.472 133.887C136.016 135.408 137.523 136.931 138.934 138.577C139.933 139.702 141.017 140.743 142.089 141.797C144.599 144.265 144.599 144.265 145.733 145.588C146.979 147.038 148.344 148.366 149.706 149.707C151.262 151.24 152.783 152.775 154.205 154.434C155.006 155.343 155.872 156.184 156.737 157.032C157.984 158.264 159.188 159.505 160.321 160.844C160.999 161.607 161.724 162.321 162.45 163.038C163.345 163.92 164.22 164.806 165.032 165.766C166.015 166.921 167.086 167.977 168.163 169.043C169.409 170.277 170.614 171.516 171.746 172.855C172.666 173.888 173.665 174.844 174.654 175.809C175.48 176.634 176.237 177.511 177.001 178.393C177.893 179.408 178.824 180.386 179.754 181.366C180.168 181.805 180.582 182.243 180.995 182.681C181.201 182.9 181.408 183.118 181.62 183.342C185.048 186.978 188.457 190.634 191.791 194.355C192.611 195.263 193.442 196.161 194.274 197.059C195.835 198.746 197.357 200.461 198.848 202.211C199.148 202.562 199.449 202.914 199.749 203.266C199.9 203.443 200.052 203.621 200.208 203.804C201.147 204.9 202.104 205.975 203.081 207.038C204.238 208.299 205.326 209.602 206.401 210.933C207.26 211.977 208.144 212.996 209.032 214.014C210.334 215.508 211.613 217.016 212.86 218.556C213.415 219.239 213.973 219.918 214.533 220.596C216.279 222.704 218.009 224.82 219.69 226.979C220.726 228.307 221.789 229.612 222.857 230.915C224.085 232.419 225.274 233.938 226.401 235.52C227.275 236.741 228.171 237.947 229.064 239.155C230.759 241.452 232.44 243.758 234.081 246.094C234.202 246.266 234.323 246.438 234.447 246.616C235.413 247.995 236.362 249.385 237.304 250.782C237.477 251.038 237.65 251.294 237.828 251.557C239.949 254.712 242.009 257.848 243.63 261.295C244.364 262.801 245.198 263.996 246.679 264.844C248.277 265.106 249.447 264.641 250.854 263.929C251.045 263.835 251.237 263.741 251.435 263.644C252 263.365 252.562 263.08 253.124 262.793C253.548 262.583 253.548 262.583 253.981 262.369C257.739 260.426 260.932 257.802 263.964 254.883C264.156 254.71 264.348 254.537 264.545 254.358C267.367 251.737 270.628 247.17 270.83 243.256C270.848 243.019 270.866 242.783 270.884 242.539C270.413 240.369 268.408 238.758 266.82 237.323C266.531 237.058 266.531 237.058 266.235 236.787C265.675 236.274 265.112 235.764 264.55 235.254C264.278 235.004 264.006 234.754 263.726 234.497C262.547 233.42 261.346 232.389 260.1 231.391C258.339 229.966 256.703 228.422 255.056 226.868C253.95 225.825 252.821 224.813 251.686 223.802C251.119 223.285 250.581 222.75 250.048 222.199C249.416 221.417 249.416 221.417 248.73 221.485C248.73 221.291 248.73 221.098 248.73 220.899C248.326 220.49 248.326 220.49 247.781 220.059C246.03 218.569 244.433 216.927 242.815 215.296C242.5 214.979 242.184 214.662 241.868 214.345C241.288 213.762 240.708 213.179 240.129 212.596C239.874 212.339 239.618 212.082 239.355 211.817C239.022 211.48 239.022 211.48 238.683 211.136C237.857 210.32 237.007 209.536 236.149 208.755C234.043 206.824 232.019 204.816 230 202.794C229.623 202.417 229.246 202.041 228.869 201.664C228.086 200.881 227.303 200.098 226.521 199.315C225.525 198.317 224.527 197.319 223.528 196.323C222.752 195.548 221.977 194.772 221.201 193.996C220.834 193.628 220.466 193.26 220.098 192.893C219.583 192.379 219.069 191.864 218.555 191.348C218.407 191.201 218.259 191.053 218.106 190.901C217.305 190.095 216.543 189.269 215.801 188.409C214.751 187.198 213.638 186.063 212.501 184.935C212.287 184.721 212.073 184.507 211.852 184.287C211.391 183.827 210.929 183.367 210.468 182.908C209.735 182.179 209.004 181.45 208.272 180.72C206.72 179.171 205.166 177.623 203.612 176.075C201.811 174.28 200.009 172.485 198.209 170.688C197.491 169.972 196.773 169.257 196.054 168.542C195.611 168.1 195.167 167.657 194.724 167.215C194.526 167.019 194.329 166.822 194.125 166.62C193.01 165.505 191.957 164.356 190.927 163.162C190.147 162.279 189.316 161.45 188.479 160.62C188.297 160.438 188.114 160.256 187.926 160.068C187.534 159.677 187.141 159.286 186.748 158.896C186.127 158.278 185.507 157.66 184.887 157.041C183.573 155.731 182.259 154.422 180.944 153.113C179.414 151.59 177.884 150.066 176.355 148.541C175.743 147.931 175.131 147.322 174.518 146.713C174.146 146.342 173.773 145.97 173.401 145.599C173.23 145.429 173.059 145.26 172.882 145.085C171.712 143.915 171.712 143.915 171.386 143.262C171.192 143.262 170.999 143.262 170.8 143.262C170.72 143.087 170.64 142.911 170.557 142.731C170.225 142.111 169.908 141.712 169.412 141.22C169.168 140.975 169.168 140.975 168.918 140.725C168.74 140.549 168.562 140.374 168.378 140.193C168.19 140.005 168.002 139.817 167.808 139.623C167.185 139.002 166.56 138.383 165.935 137.764C165.501 137.332 165.066 136.899 164.632 136.466C163.487 135.325 162.341 134.186 161.194 133.047C159.363 131.229 157.535 129.409 155.707 127.588C155.07 126.955 154.433 126.322 153.795 125.69C153.4 125.297 153.005 124.904 152.61 124.511C152.435 124.337 152.26 124.164 152.079 123.986C151.007 122.916 149.996 121.81 149.01 120.66C148.208 119.745 147.348 118.889 146.486 118.03C146.301 117.845 146.116 117.66 145.925 117.469C145.539 117.083 145.153 116.697 144.766 116.311C144.171 115.717 143.577 115.122 142.984 114.527C142.607 114.151 142.23 113.774 141.853 113.398C141.675 113.219 141.497 113.041 141.314 112.857C138.886 110.443 135.711 115.338 133.707 117.338Z" fill="black"/>
<path d="M147.363 40.4297C149.652 41.0133 151.668 41.9129 153.754 43.0115C154.071 43.1782 154.389 43.3448 154.716 43.5166C159.365 46.0024 163.669 48.9057 167.578 52.4414C167.832 52.6631 168.085 52.8848 168.346 53.1132C174.189 58.2631 178.95 64.2703 182.52 71.1914C182.69 71.5212 182.69 71.5212 182.864 71.8576C184.83 75.7064 186.998 80.1931 186.932 84.613C186.93 84.8445 186.927 85.076 186.924 85.3146C186.919 85.5746 186.919 85.5746 186.914 85.8398C186.729 85.8043 186.544 85.7688 186.353 85.7323C182.608 85.0306 178.976 84.5599 175.159 84.5764C174.961 84.577 174.764 84.5775 174.561 84.578C171.192 84.5933 167.942 84.8238 164.648 85.5469C164.419 85.5972 164.19 85.6474 163.954 85.6992C154.947 87.7498 146.757 91.8377 139.746 97.8516C139.421 98.126 139.095 98.4003 138.77 98.6744C136.579 100.527 134.447 102.436 132.354 104.398C131.803 104.914 131.249 105.427 130.696 105.94C128.026 108.426 125.428 110.974 122.878 113.584C122.523 113.945 122.523 113.945 122.16 114.313C121.949 114.528 121.739 114.744 121.521 114.966C120.996 115.43 120.996 115.43 120.41 115.43C120.313 115.72 120.217 116.01 120.117 116.309C119.513 116.656 119.513 116.656 118.945 116.895C116.65 114.606 114.355 112.316 112.061 110.026C110.996 108.962 109.93 107.898 108.864 106.836C107.834 105.809 106.805 104.781 105.776 103.753C105.384 103.362 104.993 102.971 104.601 102.581C100.862 98.8572 100.862 98.8572 99.4062 97.1113C98.8574 96.4925 98.2098 96.0143 97.5586 95.5078C97.0276 94.8486 97.0276 94.8486 96.6797 94.3359C97.1583 93.0321 98.1659 92.2709 99.1711 91.3685C100.905 89.7814 102.592 88.1575 104.25 86.491C104.468 86.2718 104.687 86.0525 104.911 85.8266C105.58 85.1541 106.248 84.4809 106.915 83.8074C107.808 82.9066 108.702 82.0069 109.597 81.1077C109.795 80.9069 109.993 80.706 110.198 80.4991C111.131 79.5614 112.075 78.6554 113.077 77.7911C114.349 76.6935 115.536 75.522 116.722 74.3328C116.948 74.1072 117.174 73.8815 117.406 73.6491C117.881 73.175 118.355 72.7005 118.828 72.2257C119.548 71.5047 120.269 70.7852 120.99 70.0659C121.453 69.6023 121.916 69.1386 122.38 68.6749C122.699 68.3566 122.699 68.3566 123.024 68.0319C124.195 66.8564 125.309 65.6511 126.392 64.3953C127.009 63.6915 127.663 63.0317 128.329 62.3749C128.591 62.1154 128.853 61.856 129.123 61.5887C129.662 61.0569 130.201 60.5251 130.741 59.9934C132.085 58.6612 133.39 57.3192 134.621 55.8816C135.225 55.1763 135.857 54.4969 136.487 53.8147C137.692 52.4933 138.838 51.137 139.96 49.7452C140.641 48.9067 141.337 48.0834 142.035 47.2595C143.554 45.444 144.967 43.5549 146.376 41.6531C147.07 40.7227 147.07 40.7227 147.363 40.4297Z" fill="black"/>
<path d="M94.9219 95.5078C95.8815 96.2568 96.7217 96.994 97.4985 97.9314C99.0434 99.7163 100.747 101.346 102.429 103.001C103.267 103.827 104.103 104.656 104.939 105.485C106.492 107.024 108.046 108.563 109.604 110.096C110.693 111.167 111.777 112.241 112.86 113.318C113.272 113.727 113.686 114.135 114.102 114.542C114.68 115.108 115.253 115.678 115.825 116.249C115.998 116.417 116.171 116.584 116.35 116.757C116.818 117.229 116.818 117.229 117.48 118.066C117.346 119.356 116.497 119.991 115.594 120.831C109.044 127.176 103.866 136.4 103.623 145.656C103.617 146.396 103.616 147.136 103.619 147.876C103.62 148.069 103.621 148.263 103.621 148.462C103.673 158.358 107.734 166.406 114.099 173.749C114.847 174.613 115.579 175.487 116.309 176.367C100.276 174.053 85.2965 167.409 72.6562 157.324C72.3942 157.119 72.1321 156.913 71.862 156.702C69.4685 154.792 67.2497 152.701 65.0391 150.586C64.6238 150.189 64.6238 150.189 64.2002 149.785C62.7447 148.363 61.4287 146.877 60.1604 145.286C59.5462 144.525 58.9156 143.784 58.275 143.045C52.5427 136.406 48.0651 128.357 45.1172 120.117C45.2903 120.067 45.4634 120.017 45.6418 119.966C47.8127 119.34 49.9809 118.704 52.1484 118.066C52.6226 117.928 52.6226 117.928 53.1063 117.786C60.0276 115.755 66.7234 113.248 73.2422 110.156C73.4356 110.065 73.629 109.974 73.8283 109.88C76.5099 108.608 79.1073 107.183 81.7017 105.743C82.0082 105.574 82.3147 105.405 82.6306 105.23C85.1099 103.841 87.5228 102.359 89.6118 100.415C89.9681 100.086 89.9681 100.086 90.3316 99.7513C90.5896 99.5111 90.8475 99.2709 91.1133 99.0234C91.4315 98.7317 91.7501 98.4402 92.0689 98.1491C93.5156 96.8496 93.5156 96.8496 94.9219 95.5078Z" fill="black"/>
<path d="M139.453 116.895C140.43 117.32 141.072 117.855 141.821 118.609C142.046 118.834 142.271 119.06 142.502 119.292C142.851 119.646 142.851 119.646 143.207 120.007C143.436 120.237 143.665 120.466 143.901 120.702C144.925 121.733 145.92 122.774 146.87 123.874C147.907 125.066 149.004 126.185 150.128 127.295C150.328 127.494 150.529 127.693 150.735 127.899C151.368 128.528 152.002 129.157 152.637 129.785C153.474 130.614 154.31 131.445 155.145 132.275C155.427 132.554 155.427 132.554 155.715 132.838C156.613 133.731 157.477 134.636 158.302 135.596C159.57 137.064 160.946 138.418 162.323 139.783C162.604 140.063 162.885 140.343 163.166 140.623C164.05 141.503 164.935 142.383 165.82 143.262C166.848 144.282 167.875 145.303 168.9 146.325C169.306 146.729 169.713 147.133 170.121 147.536C171.399 148.81 172.626 150.101 173.801 151.469C174.798 152.594 175.876 153.64 176.944 154.697C177.19 154.941 177.436 155.186 177.689 155.438C178.468 156.214 179.249 156.989 180.029 157.764C181.059 158.785 182.087 159.808 183.115 160.831C183.348 161.061 183.58 161.292 183.82 161.529C184.827 162.531 185.811 163.538 186.736 164.616C187.922 165.994 189.207 167.267 190.497 168.547C190.944 168.99 191.39 169.434 191.836 169.878C192.782 170.821 193.73 171.763 194.678 172.705C195.778 173.798 196.877 174.892 197.975 175.986C198.411 176.42 198.847 176.852 199.283 177.285C200.611 178.608 201.893 179.944 203.112 181.367C204.063 182.443 205.092 183.442 206.113 184.451C206.346 184.683 206.578 184.915 206.818 185.153C207.556 185.888 208.294 186.621 209.033 187.354C210.008 188.32 210.981 189.288 211.954 190.256C212.284 190.582 212.284 190.582 212.621 190.915C213.798 192.088 214.925 193.282 216 194.55C216.628 195.257 217.295 195.917 217.969 196.582C218.229 196.841 218.489 197.099 218.757 197.366C219.042 197.65 219.328 197.934 219.614 198.218C221.208 199.802 222.8 201.388 224.392 202.975C225.353 203.933 226.315 204.891 227.278 205.847C228.212 206.775 229.144 207.703 230.076 208.633C230.431 208.987 230.786 209.341 231.143 209.694C231.639 210.186 232.133 210.679 232.626 211.173C232.774 211.319 232.923 211.465 233.076 211.616C234.082 212.628 234.082 212.628 234.082 213.281C234.24 213.343 234.397 213.405 234.559 213.469C235.515 214.017 236.23 214.77 236.993 215.552C237.144 215.702 237.294 215.852 237.448 216.007C238.164 216.731 238.827 217.454 239.466 218.248C240.01 218.913 240.586 219.464 241.241 220.02C242.389 220.999 243.456 222.045 244.519 223.114C244.694 223.289 244.868 223.465 245.048 223.646C245.776 224.379 246.502 225.113 247.228 225.848C249.841 228.5 249.841 228.5 252.601 230.996C253.792 232.018 254.915 233.118 256.055 234.198C257.218 235.295 258.4 236.363 259.607 237.411C260.543 238.229 261.452 239.075 262.365 239.919C263.419 240.889 264.494 241.829 265.598 242.743C266.016 243.164 266.016 243.164 266.309 244.043C266.001 244.807 265.678 245.512 265.302 246.24C265.193 246.451 265.085 246.662 264.974 246.879C261.692 253.127 256.585 257.342 250.195 260.156C249.709 260.263 249.221 260.363 248.73 260.449C248.618 260.255 248.507 260.06 248.391 259.86C245.491 254.785 245.491 254.785 242.285 249.902C242.068 249.591 241.851 249.279 241.627 248.958C239.823 246.388 237.919 243.895 236.001 241.409C235.581 240.864 235.163 240.318 234.746 239.771C233.429 238.045 232.087 236.344 230.705 234.669C230.161 234.008 229.62 233.346 229.082 232.68C227.438 230.648 225.784 228.627 224.088 226.637C223.243 225.645 222.415 224.64 221.594 223.627C220.546 222.337 219.449 221.104 218.329 219.876C217.677 219.142 217.062 218.388 216.449 217.621C215.013 215.844 213.45 214.195 211.884 212.533C211.021 211.616 210.184 210.681 209.362 209.728C207.676 207.782 205.924 205.893 204.182 203.998C203.462 203.214 202.751 202.424 202.057 201.617C200.88 200.26 199.644 198.957 198.416 197.647C197.229 196.379 196.059 195.098 194.902 193.803C193.966 192.764 193.016 191.738 192.066 190.711C191.072 189.637 190.081 188.56 189.093 187.482C188.961 187.337 188.828 187.193 188.692 187.044C188.036 186.328 187.381 185.612 186.726 184.895C185.047 183.059 183.356 181.234 181.651 179.422C180.805 178.52 179.975 177.608 179.164 176.674C178.115 175.468 177.027 174.304 175.928 173.145C175.513 172.706 175.098 172.266 174.684 171.827C174.476 171.607 174.268 171.387 174.053 171.16C173.107 170.158 172.164 169.152 171.222 168.146C171.042 167.954 170.862 167.761 170.676 167.563C169.95 166.789 169.225 166.015 168.5 165.24C165.854 162.417 163.204 159.597 160.552 156.78C159.768 155.948 158.985 155.116 158.202 154.283C157.813 153.871 157.425 153.458 157.036 153.045C156.032 151.979 155.03 150.913 154.029 149.844C152.212 147.906 150.392 145.978 148.499 144.113C147.766 143.368 147.09 142.58 146.41 141.787C145.707 140.996 144.956 140.261 144.196 139.526C143.64 138.955 143.122 138.372 142.603 137.769C141.511 136.512 140.348 135.344 139.16 134.18C137.804 132.85 136.507 131.5 135.268 130.061C134.462 129.148 133.6 128.295 132.733 127.441C132.561 127.27 132.388 127.099 132.211 126.923C131.794 126.509 131.375 126.096 130.957 125.684C131.745 123.928 133.235 122.759 134.674 121.527C136.358 120.079 137.895 118.476 139.453 116.895Z" fill="black"/>
<path d="M43.3594 120.996C43.7036 121.466 43.7036 121.466 43.9327 122.077C44.0216 122.304 44.1106 122.53 44.2022 122.763C44.3379 123.13 44.3379 123.13 44.4763 123.505C44.6788 124.017 44.8825 124.529 45.0874 125.04C45.2408 125.426 45.2408 125.426 45.3973 125.819C46.1649 127.684 47.1033 129.469 48.0469 131.25C48.1484 131.442 48.2499 131.634 48.3544 131.832C51.6706 138.05 55.9096 143.802 60.7658 148.905C61.3676 149.542 61.9349 150.187 62.4939 150.86C68.7165 158.042 77.2026 163.746 85.5469 168.164C85.742 168.267 85.9372 168.371 86.1382 168.477C95.5441 173.417 105.874 176.972 116.441 178.27C118.675 178.58 118.675 178.58 119.578 179.441C120.117 180.176 120.117 180.176 120.117 180.762C119.111 180.953 118.103 181.142 117.096 181.329C116.816 181.383 116.535 181.436 116.246 181.491C99.8825 184.521 82.1728 179.728 68.5547 170.434C64.1536 167.358 60.0933 164.002 56.25 160.254C55.9667 159.982 55.6833 159.71 55.3997 159.439C53.8313 157.912 52.4093 156.306 51.0601 154.582C50.793 154.241 50.5243 153.901 50.2544 153.563C47.7131 150.368 45.4606 147.054 43.3594 143.555C43.2386 143.356 43.1178 143.157 42.9933 142.952C39.5671 137.274 35.1562 128.953 35.1562 122.168C36.2477 121.913 37.3406 121.664 38.4338 121.417C38.7429 121.345 39.0521 121.272 39.3705 121.198C39.6698 121.131 39.9691 121.064 40.2775 120.995C40.6894 120.9 40.6894 120.9 41.1097 120.804C41.9668 120.694 42.5425 120.712 43.3594 120.996Z" fill="black"/>
</svg>
