<svg width="300" height="300" viewBox="0 0 300 300" fill="none" xmlns="http://www.w3.org/2000/svg">
<path d="M167.726 80.8559C169.31 81.8752 170.839 82.9661 172.357 84.082C172.557 84.2279 172.757 84.3738 172.963 84.5241C174.411 85.6127 175.777 86.7066 176.367 88.4766C176.392 89.3194 176.401 90.155 176.396 90.9977C176.395 91.3665 176.395 91.3665 176.395 91.7427C176.393 92.5278 176.389 93.3128 176.385 94.0979C176.384 94.6302 176.383 95.1626 176.381 95.6949C176.378 96.9997 176.373 98.3046 176.367 99.6094C176.68 99.6825 176.993 99.7556 177.315 99.831C177.735 99.9317 178.154 100.033 178.574 100.134C178.779 100.181 178.984 100.229 179.195 100.278C183.738 101.382 187.816 104.294 191.794 106.648C192.8 107.242 193.807 107.833 194.815 108.424C194.988 108.525 195.16 108.626 195.338 108.73C195.691 108.936 196.043 109.143 196.396 109.349C197.294 109.875 198.192 110.402 199.091 110.929C199.27 111.034 199.45 111.139 199.635 111.248C200.721 111.885 201.806 112.522 202.892 113.16C203.785 113.685 204.679 114.209 205.572 114.734C205.748 114.837 205.924 114.94 206.105 115.047C208.631 116.528 211.164 117.997 213.702 119.458C214.626 119.991 215.55 120.525 216.473 121.058C217.086 121.411 217.7 121.763 218.315 122.114C219.209 122.623 220.099 123.137 220.99 123.651C221.256 123.801 221.522 123.951 221.796 124.106C222.042 124.249 222.289 124.393 222.543 124.54C222.757 124.663 222.971 124.785 223.191 124.911C224.195 125.667 225.129 126.461 225.428 127.715C225.48 128.379 225.485 129.03 225.475 129.697C225.477 129.95 225.479 130.203 225.481 130.463C225.485 131.309 225.479 132.154 225.473 132.999C225.474 133.606 225.476 134.213 225.478 134.82C225.482 136.467 225.477 138.114 225.47 139.761C225.465 141.484 225.466 143.207 225.467 144.931C225.467 147.824 225.461 150.718 225.452 153.611C225.441 156.958 225.438 160.304 225.44 163.65C225.442 166.869 225.439 170.087 225.433 173.305C225.431 174.675 225.43 176.045 225.431 177.416C225.431 179.028 225.427 180.641 225.419 182.254C225.417 182.846 225.416 183.439 225.417 184.031C225.419 184.839 225.414 185.646 225.409 186.454C225.411 186.806 225.411 186.806 225.413 187.166C225.397 188.501 225.241 189.367 224.414 190.43C221.395 192.673 217.045 193.497 213.519 194.604C212.786 194.837 212.053 195.07 211.32 195.303C209.607 195.848 207.893 196.39 206.178 196.93C204.58 197.433 202.983 197.938 201.386 198.443C199.007 199.196 196.628 199.948 194.248 200.697C189.371 202.234 184.496 203.782 179.624 205.335C171.307 207.985 162.987 210.623 154.66 213.239C154.439 213.308 154.219 213.377 153.991 213.449C153.118 213.723 152.244 213.998 151.37 214.272C148.867 215.058 146.366 215.848 143.867 216.647C142.628 217.043 141.388 217.437 140.148 217.829C139.596 218.005 139.045 218.182 138.495 218.36C137.756 218.599 137.016 218.833 136.276 219.066C135.966 219.169 135.966 219.169 135.65 219.273C130.615 220.834 125.901 217.891 121.564 215.607C121.078 215.354 120.592 215.101 120.106 214.849C117.424 213.452 114.759 212.026 112.115 210.559C109.144 208.922 106.113 207.4 103.092 205.86C100.362 204.467 97.6373 203.071 94.9585 201.581C91.3282 199.562 87.6153 197.699 83.9133 195.815C75.7761 191.674 75.7761 191.674 74.6763 189.496C74.3403 188.44 74.332 187.446 74.3377 186.35C74.3365 186.118 74.3354 185.886 74.3343 185.646C74.3312 184.87 74.3324 184.093 74.3336 183.316C74.3323 182.759 74.3308 182.201 74.329 181.644C74.3251 180.131 74.3249 178.618 74.3257 177.104C74.326 175.841 74.3246 174.578 74.3232 173.315C74.3199 170.335 74.3198 167.355 74.3216 164.375C74.3233 161.3 74.3197 158.226 74.3135 155.151C74.3083 152.512 74.3066 149.872 74.3075 147.232C74.308 145.656 74.3073 144.079 74.3032 142.503C74.2995 141.02 74.3001 139.538 74.3039 138.055C74.3046 137.511 74.3038 136.967 74.3014 136.423C74.2983 135.681 74.3007 134.938 74.3044 134.195C74.3022 133.98 74.3001 133.765 74.2979 133.544C74.3173 131.692 74.8433 130.57 76.0803 129.218C77.1081 128.392 78.2427 127.865 79.4444 127.343C79.65 127.254 79.8556 127.164 80.0675 127.072C82.3892 126.087 84.7737 125.338 87.1834 124.601C87.6693 124.45 88.1551 124.299 88.6409 124.148C89.9216 123.749 91.2034 123.355 92.4853 122.96C93.8078 122.553 95.1293 122.142 96.4509 121.732C99.0047 120.94 101.56 120.151 104.115 119.363C106.286 118.693 108.457 118.022 110.627 117.35C111.93 116.947 113.233 116.545 114.536 116.145C114.761 116.076 114.985 116.007 115.217 115.935C115.794 115.758 116.372 115.581 116.949 115.403C117.748 115.168 117.748 115.168 118.359 114.844C118.356 114.558 118.356 114.558 118.353 114.267C118.334 112.27 118.321 110.274 118.311 108.278C118.307 107.534 118.301 106.791 118.293 106.048C118.282 104.974 118.277 103.901 118.274 102.827C118.269 102.5 118.264 102.172 118.26 101.834C118.259 96.4888 118.259 96.4888 120.021 94.7239C120.969 94 121.941 93.624 123.078 93.2551C123.278 93.1888 123.479 93.1225 123.686 93.0542C124.347 92.837 125.01 92.6257 125.673 92.4145C126.145 92.2613 126.616 92.1078 127.087 91.954C128.57 91.4719 130.056 90.9987 131.543 90.5273C131.779 90.4523 132.015 90.3773 132.259 90.3C135.544 89.2574 138.834 88.233 142.127 87.2144C143.555 86.7724 144.982 86.329 146.409 85.8855C147.583 85.5208 148.757 85.1569 149.932 84.7947C152.051 84.1404 154.167 83.4789 156.275 82.7866C157.214 82.478 158.155 82.1729 159.095 81.8678C159.537 81.7232 159.979 81.5768 160.419 81.4283C165.144 79.8369 165.144 79.8369 167.726 80.8559ZM162.247 87.1399C161.879 87.2591 161.879 87.2591 161.503 87.3808C160.966 87.5546 160.43 87.7295 159.894 87.9054C158.437 88.3833 156.977 88.8524 155.517 89.3223C155.211 89.421 154.905 89.5197 154.59 89.6214C151.173 90.7213 147.74 91.7704 144.305 92.8162C143.697 93.0016 143.089 93.187 142.482 93.3725C141.603 93.6406 140.724 93.9087 139.845 94.1766C137.326 94.9444 134.809 95.7178 132.294 96.4966C131.949 96.603 131.603 96.7094 131.248 96.8191C130.941 96.9143 130.634 97.0096 130.317 97.1077C129.925 97.2291 129.925 97.2291 129.525 97.353C128.9 97.5444 128.9 97.5444 128.32 97.8516C128.32 98.0449 128.32 98.2383 128.32 98.4375C129.79 99.5063 131.095 100.261 132.951 100.096C134.282 99.7856 135.565 99.3275 136.853 98.8769C137.35 98.7139 137.848 98.5522 138.347 98.3918C139.456 98.0332 140.563 97.6679 141.669 97.299C143.771 96.603 145.884 95.9479 148 95.2961C148.19 95.2375 148.38 95.1789 148.576 95.1185C149.344 94.8815 150.113 94.6446 150.882 94.408C153.231 93.6847 155.577 92.9523 157.924 92.22C158.519 92.0344 159.115 91.8498 159.712 91.6665C160.266 91.4938 160.818 91.3155 161.369 91.1315C161.625 91.0481 161.881 90.9647 162.145 90.8787C162.367 90.8038 162.59 90.7289 162.819 90.6518C164.009 90.4266 164.761 90.6975 165.747 91.3696C166.452 92.0354 166.668 92.4513 166.74 93.4185C166.742 93.6251 166.744 93.8317 166.746 94.0445C166.75 94.4013 166.75 94.4013 166.754 94.7653C166.756 95.0251 166.758 95.285 166.759 95.5527C166.762 95.8271 166.765 96.1015 166.768 96.3843C166.777 97.2926 166.785 98.2009 166.792 99.1093C166.798 99.7386 166.804 100.368 166.81 100.997C166.827 102.654 166.841 104.312 166.855 105.969C166.87 107.66 166.886 109.351 166.902 111.041C166.934 114.36 166.964 117.678 166.992 120.996C168.211 121.02 169.32 120.991 170.508 120.703C170.623 116.792 170.712 112.88 170.766 108.967C170.792 107.15 170.827 105.334 170.884 103.517C170.938 101.762 170.967 100.008 170.98 98.2516C170.989 97.5838 171.007 96.9161 171.034 96.2488C171.282 92.7384 171.282 92.7384 170.009 89.5992C167.636 87.3917 165.374 86.0977 162.247 87.1399ZM157.73 98.1224C157.541 98.1824 157.352 98.2424 157.157 98.3043C156.534 98.5031 155.911 98.7049 155.288 98.9067C154.85 99.0472 154.411 99.1875 153.973 99.3276C152.816 99.6978 151.66 100.071 150.504 100.444C149.347 100.817 148.189 101.188 147.031 101.558C142.739 102.934 138.449 104.317 134.18 105.762C134.18 107.115 134.18 108.469 134.18 109.863C136.378 109.464 138.463 108.895 140.588 108.213C141.082 108.057 141.082 108.057 141.585 107.897C142.633 107.565 143.68 107.231 144.727 106.897C145.752 106.571 146.779 106.245 147.805 105.919C148.486 105.703 149.166 105.487 149.847 105.271C152.627 104.388 155.414 103.528 158.204 102.68C158.504 102.589 158.803 102.497 159.112 102.403C159.376 102.323 159.639 102.243 159.911 102.16C160.551 101.969 160.551 101.969 161.133 101.66C161.133 100.307 161.133 98.9531 161.133 97.5586C159.779 97.5586 158.994 97.7163 157.73 98.1224ZM124.512 103.125C124.512 112.696 124.512 122.268 124.512 132.129C126.837 133.57 126.837 133.57 128.32 133.887C128.347 130.202 128.368 126.517 128.381 122.832C128.387 121.121 128.395 119.41 128.409 117.699C128.421 116.048 128.428 114.397 128.431 112.746C128.434 112.116 128.438 111.486 128.444 110.856C128.453 109.974 128.454 109.092 128.453 108.21C128.458 107.949 128.462 107.687 128.466 107.418C128.457 106.026 128.457 106.026 127.891 104.785C126.842 104.096 125.658 103.635 124.512 103.125ZM176.367 106.055C176.368 106.232 176.37 106.409 176.371 106.591C176.384 108.445 176.393 110.298 176.399 112.152C176.402 112.843 176.406 113.533 176.411 114.224C176.419 115.22 176.422 116.216 176.424 117.213C176.427 117.518 176.43 117.823 176.434 118.138C176.434 120.661 176.41 123.448 174.609 125.391C171.857 126.845 168.413 126.897 165.344 126.984C164.777 127.001 164.777 127.001 164.198 127.019C162.909 126.811 162.497 126.422 161.719 125.391C161.445 124.358 161.383 123.372 161.366 122.307C161.36 121.991 161.354 121.674 161.348 121.348C161.341 120.84 161.341 120.84 161.333 120.322C161.327 119.973 161.321 119.624 161.315 119.264C161.295 118.151 161.278 117.037 161.261 115.924C161.248 115.169 161.236 114.413 161.223 113.658C161.191 111.807 161.161 109.956 161.133 108.105C159.323 108.295 157.673 108.796 155.943 109.349C155.487 109.493 155.487 109.493 155.022 109.64C154.037 109.951 153.053 110.264 152.069 110.577C151.394 110.791 150.718 111.005 150.042 111.218C148.7 111.643 147.358 112.068 146.015 112.493C144.375 113.013 142.733 113.527 141.09 114.038C140.867 114.107 140.645 114.176 140.416 114.248C139.598 114.502 138.781 114.756 137.964 115.009C137.425 115.176 136.887 115.343 136.348 115.511C135.906 115.648 135.906 115.648 135.456 115.788C134.77 115.996 134.77 115.996 134.18 116.309C134.18 116.556 134.18 116.803 134.18 117.058C134.181 119.399 134.173 121.739 134.156 124.079C134.148 125.282 134.142 126.485 134.144 127.688C134.146 128.85 134.14 130.013 134.127 131.175C134.124 131.617 134.124 132.059 134.127 132.501C134.142 135.134 134.004 137.159 132.129 139.16C131.088 140.131 130.648 140.336 129.22 140.317C127.352 140.072 125.781 139.195 124.127 138.336C123.814 138.18 123.5 138.023 123.177 137.862C119.71 136.097 119.71 136.097 118.945 134.18C118.509 131.611 118.62 128.995 118.634 126.398C118.635 125.93 118.637 125.462 118.638 124.994C118.641 123.857 118.646 122.719 118.652 121.582C116.87 121.755 115.263 122.136 113.557 122.669C113.29 122.751 113.022 122.833 112.746 122.918C111.857 123.191 110.97 123.467 110.083 123.743C109.458 123.936 108.833 124.129 108.208 124.322C106.311 124.909 104.415 125.5 102.519 126.093C101.938 126.274 101.357 126.455 100.776 126.637C98.3473 127.394 95.9193 128.154 93.4924 128.917C92.6997 129.166 91.9066 129.415 91.1134 129.663C89.9992 130.012 88.8859 130.363 87.7727 130.716C87.4368 130.82 87.1008 130.925 86.7547 131.033C86.4487 131.13 86.1426 131.228 85.8273 131.328C85.5596 131.413 85.2919 131.497 85.0162 131.584C84.3276 131.805 84.3277 131.805 83.789 132.422C87.8469 134.463 91.9239 136.465 96.0022 138.464C96.5227 138.72 96.5227 138.72 97.0537 138.98C101.114 140.972 105.177 142.958 109.254 144.916C113.378 146.901 117.484 148.923 121.592 150.941C123.049 151.657 124.508 152.369 125.968 153.081C126.892 153.533 127.813 153.991 128.735 154.449C129.342 154.747 129.949 155.045 130.556 155.343C130.836 155.484 131.115 155.624 131.403 155.769C131.665 155.896 131.927 156.024 132.197 156.155C132.425 156.268 132.653 156.381 132.888 156.497C134.415 157.019 135.692 156.698 137.183 156.202C137.539 156.085 137.895 155.968 138.262 155.848C138.648 155.718 139.035 155.588 139.421 155.459C139.827 155.325 140.233 155.191 140.639 155.058C141.484 154.78 142.329 154.502 143.174 154.223C144.93 153.644 146.692 153.083 148.455 152.523C149.029 152.34 149.604 152.157 150.179 151.974C151.161 151.661 152.143 151.349 153.126 151.036C153.75 150.838 154.375 150.639 155 150.44C160.724 148.619 166.453 146.809 172.187 145.015C177.639 143.309 183.085 141.583 188.53 139.851C194.713 137.885 200.899 135.932 207.092 133.997C211.211 132.708 215.324 131.398 219.434 130.078C218.545 129.144 217.73 128.4 216.599 127.781C216.204 127.562 216.204 127.562 215.802 127.339C215.52 127.186 215.238 127.032 214.947 126.874C214.338 126.535 213.728 126.197 213.119 125.858C212.806 125.684 212.493 125.51 212.17 125.331C210.68 124.497 209.206 123.636 207.733 122.772C207.295 122.516 207.295 122.516 206.849 122.255C206.258 121.909 205.667 121.563 205.076 121.217C203.931 120.546 202.783 119.877 201.636 119.209C198.898 117.614 196.163 116.015 193.429 114.413C192.887 114.095 192.344 113.777 191.801 113.46C190.13 112.481 188.462 111.498 186.803 110.5C186.37 110.24 186.37 110.24 185.928 109.975C185.399 109.657 184.87 109.338 184.344 109.016C181.763 107.469 179.316 106.605 176.367 106.055ZM216.93 136.729C216.585 136.84 216.24 136.95 215.885 137.064C215.501 137.187 215.118 137.311 214.735 137.434C214.334 137.563 213.934 137.691 213.533 137.819C212.67 138.096 211.808 138.372 210.945 138.649C208.625 139.395 206.304 140.136 203.983 140.878C203.627 140.992 203.627 140.992 203.263 141.108C198.711 142.562 194.15 143.991 189.586 145.411C182.138 147.728 174.705 150.088 167.277 152.469C158.623 155.244 158.623 155.244 154.789 156.422C154.514 156.507 154.239 156.592 153.955 156.679C152.769 157.043 151.582 157.405 150.394 157.762C145.524 159.243 140.764 160.943 135.937 162.598C135.937 179.13 135.937 195.662 135.937 212.695C137.732 212.296 139.452 211.869 141.197 211.317C141.45 211.238 141.703 211.159 141.964 211.078C142.812 210.812 143.659 210.545 144.507 210.278C145.12 210.086 145.734 209.893 146.347 209.701C152.457 207.781 158.557 205.831 164.657 203.882C169.99 202.178 175.327 200.486 180.67 198.816C187.004 196.835 193.327 194.82 199.646 192.791C201.942 192.054 204.238 191.321 206.535 190.589C207.543 190.267 208.55 189.946 209.558 189.624C210.202 189.419 210.847 189.213 211.491 189.008C212.385 188.724 213.278 188.439 214.172 188.153C214.433 188.07 214.695 187.987 214.965 187.902C216.473 187.419 217.956 186.896 219.434 186.328C219.443 182.758 219.449 179.187 219.452 175.616C219.452 175.346 219.452 175.076 219.453 174.797C219.46 165.676 219.4 156.557 219.287 147.437C219.284 147.153 219.28 146.869 219.276 146.577C219.234 143.128 219.188 139.679 219.141 136.23C218.338 136.23 217.696 136.483 216.93 136.729ZM80.5664 137.402C80.5664 144.17 80.5664 150.937 80.5664 157.91C84.8539 160.249 89.1374 162.524 93.5119 164.685C94.5969 165.222 95.6814 165.76 96.7655 166.299C97.03 166.43 97.2945 166.562 97.567 166.697C99.541 167.682 101.495 168.702 103.443 169.735C105.637 170.896 107.855 172.006 110.079 173.109C113.181 174.647 116.282 176.187 119.348 177.795C119.558 177.905 119.768 178.014 119.984 178.127C123.228 179.845 123.228 179.845 123.553 180.805C123.482 182.35 123.312 183.426 122.168 184.57C120.029 184.963 118.393 183.792 116.565 182.794C116.216 182.608 115.866 182.422 115.517 182.236C114.783 181.847 114.051 181.455 113.319 181.063C111.712 180.202 110.092 179.364 108.472 178.528C107.939 178.252 107.406 177.976 106.873 177.7C104.181 176.307 101.472 174.949 98.7574 173.6C96.9658 172.708 95.1868 171.797 93.4204 170.856C91.0235 169.581 88.6034 168.353 86.1772 167.135C85.7461 166.918 85.3152 166.701 84.8844 166.484C84.2784 166.178 83.6717 165.874 83.0646 165.571C82.8803 165.478 82.6959 165.384 82.5059 165.288C81.5811 164.802 81.5811 164.802 80.5664 164.648C80.5664 172.189 80.5664 179.73 80.5664 187.5C84.7265 189.692 84.7265 189.692 88.8972 191.862C91.4234 193.167 93.9351 194.492 96.4233 195.868C99.7016 197.678 103.039 199.37 106.375 201.071C109.463 202.646 112.532 204.245 115.564 205.927C117.781 207.15 120.041 208.28 122.31 209.401C124.375 210.423 126.41 211.488 128.428 212.599C129.142 213.032 129.142 213.032 129.785 212.988C129.785 195.876 129.785 178.764 129.785 161.133C128.238 160.359 126.691 159.586 125.098 158.789C124.227 158.351 124.227 158.351 123.339 157.904C120.195 156.324 117.04 154.774 113.861 153.265C111.832 152.299 109.82 151.303 107.812 150.293C105.356 149.058 102.888 147.852 100.404 146.673C97.0208 145.063 93.6566 143.414 90.2909 141.768C87.9753 140.636 85.6567 139.51 83.329 138.404C83.1179 138.302 82.9069 138.201 82.6895 138.097C81.6727 137.579 81.6727 137.579 80.5664 137.402Z" fill="black"/>
</svg>
