<svg width="300" height="300" viewBox="0 0 300 300" fill="none" xmlns="http://www.w3.org/2000/svg">
<path d="M149.241 91.0664C155.13 90.8669 160.452 93.2262 164.722 97.1741C169.701 102.47 170.508 108.195 170.508 115.43C183.85 115.526 197.191 115.623 210.938 115.723C210.938 144.727 210.938 173.731 210.938 203.613C170.719 203.613 130.5 203.613 89.0625 203.613C89.0625 174.609 89.0625 145.606 89.0625 115.723C102.501 115.723 115.939 115.723 129.785 115.723C129.482 115.354 129.482 115.354 128.82 115.394C128.52 115.394 128.22 115.394 127.911 115.395C127.568 115.394 127.225 115.394 126.871 115.393C126.302 115.395 126.302 115.395 125.721 115.396C125.319 115.397 124.918 115.397 124.517 115.396C123.424 115.396 122.332 115.398 121.239 115.4C120.099 115.402 118.958 115.402 117.818 115.402C115.656 115.403 113.495 115.406 111.334 115.409C108.874 115.412 106.414 115.414 103.954 115.415C98.8926 115.418 93.8311 115.423 88.7695 115.43C88.7695 115.333 88.7695 115.236 88.7695 115.137C108.782 114.992 108.782 114.992 129.199 114.844C129.103 114.65 129.006 114.457 128.906 114.258C128.882 113.769 128.875 113.28 128.878 112.791C128.879 112.502 128.88 112.213 128.881 111.915C128.883 111.613 128.885 111.31 128.888 110.999C128.889 110.694 128.891 110.389 128.892 110.075C128.895 109.321 128.9 108.567 128.906 107.813C129.1 107.813 129.293 107.813 129.492 107.813C129.553 107.582 129.614 107.351 129.676 107.113C130.605 103.829 132.044 100.341 134.473 97.8516C134.666 97.8516 134.859 97.8516 135.059 97.8516C135.059 97.6583 135.059 97.4649 135.059 97.2657C139.065 93.6253 143.827 91.4262 149.241 91.0664ZM135.39 100.214C132.365 103.976 131.119 108.603 131.543 113.379C131.736 114.152 131.93 114.926 132.129 115.723C134.353 115.723 136.576 115.723 138.867 115.723C139.233 115.139 139.233 115.139 139.032 114.441C138.511 111.085 138.856 107.896 140.863 105.066C142.666 102.894 144.831 101.312 147.656 100.781C151.464 100.522 154.583 100.879 157.616 103.424C160.266 106.043 160.957 109.051 161.041 112.665C161.071 113.674 161.102 114.683 161.133 115.723C164.468 115.578 164.468 115.578 167.871 115.43C168.974 112.12 168.327 107.713 166.992 104.59C166.889 104.336 166.787 104.083 166.681 103.822C164.78 99.5911 161.204 96.3744 156.937 94.6278C156.678 94.5315 156.419 94.4352 156.152 94.336C155.917 94.2427 155.683 94.1494 155.441 94.0533C147.997 91.5375 140.418 94.6605 135.39 100.214ZM142.676 105.762C141.321 107.761 140.874 109.318 140.845 111.731C140.837 112.108 140.83 112.485 140.822 112.873C140.865 114.128 140.865 114.128 141.797 115.723C147.211 115.723 152.625 115.723 158.203 115.723C159.301 113.161 159.477 111.385 158.569 108.746C157.593 106.353 156.29 104.518 153.952 103.34C149.91 101.703 145.597 102.371 142.676 105.762ZM123.34 117.773C123.34 145.327 123.34 172.881 123.34 201.27C141.032 201.27 158.725 201.27 176.953 201.27C176.953 173.716 176.953 146.162 176.953 117.773C159.261 117.773 141.568 117.773 123.34 117.773ZM190.723 117.773C190.723 145.327 190.723 172.881 190.723 201.27C192.366 201.27 194.01 201.27 195.703 201.27C195.909 200.702 196.114 200.134 196.326 199.548C197.841 195.633 199.962 192.467 203.906 190.723C204.942 190.413 205.99 190.167 207.05 189.955C207.571 189.846 208.083 189.701 208.594 189.551C208.956 188.465 208.926 187.462 208.922 186.331C208.922 185.969 208.922 185.969 208.923 185.6C208.923 184.789 208.922 183.978 208.92 183.167C208.92 182.586 208.92 182.006 208.92 181.426C208.92 179.848 208.918 178.27 208.916 176.692C208.915 175.044 208.914 173.396 208.914 171.748C208.913 168.626 208.911 165.504 208.908 162.382C208.905 158.828 208.903 155.274 208.901 151.72C208.898 144.408 208.893 137.097 208.887 129.785C208.567 129.689 208.247 129.592 207.917 129.492C207.492 129.362 207.067 129.232 206.643 129.102C206.432 129.039 206.222 128.975 206.005 128.91C202.234 127.749 199.388 125.358 197.461 121.875C197.214 121.202 196.992 120.527 196.79 119.839C196.583 119.16 196.583 119.16 195.996 118.359C195.221 118.294 194.533 118.277 193.762 118.304C193.049 118.323 192.336 118.341 191.602 118.359C193.052 118.263 194.502 118.166 195.996 118.066C195.996 117.97 195.996 117.873 195.996 117.773C194.256 117.773 192.516 117.773 190.723 117.773ZM198.34 117.773C199.007 121.212 200.449 123.6 203.32 125.684C205.168 126.852 206.73 127.266 208.887 127.441C208.894 126.112 208.899 124.782 208.903 123.452C208.904 122.999 208.906 122.547 208.909 122.094C208.912 121.445 208.914 120.795 208.915 120.146C208.918 119.841 208.918 119.841 208.92 119.529C208.92 119.041 208.905 118.554 208.887 118.066C208.548 117.661 208.548 117.661 207.619 117.74C207.187 117.74 206.754 117.742 206.322 117.745C206.095 117.745 205.868 117.746 205.634 117.746C204.905 117.748 204.177 117.751 203.448 117.755C202.956 117.757 202.463 117.758 201.97 117.759C200.76 117.762 199.55 117.767 198.34 117.773ZM91.4062 118.066C91.4062 121.16 91.4062 124.254 91.4062 127.441C93.9296 127.081 96.4048 126.2 98.1445 124.219C100.234 121.396 100.234 121.396 101.074 118.066C97.8838 118.066 94.6934 118.066 91.4062 118.066ZM103.418 118.066C103.11 119 103.11 119 102.795 119.952C102.162 121.766 101.409 123.31 100.195 124.805C100.034 125.006 99.8728 125.207 99.7066 125.414C97.4997 127.879 94.5528 128.999 91.4062 129.785C91.4062 149.508 91.4062 169.231 91.4062 189.551C92.7598 189.841 94.1133 190.131 95.5078 190.43C98.7339 191.873 101.342 194.229 102.832 197.461C103.179 198.394 103.493 199.329 103.781 200.282C103.939 200.956 103.939 200.956 104.297 201.27C105.94 201.27 107.584 201.27 109.277 201.27C109.277 173.813 109.277 146.356 109.277 118.066C107.344 118.066 105.41 118.066 103.418 118.066ZM111.621 118.066C111.621 145.523 111.621 172.981 111.621 201.27C114.715 201.27 117.809 201.27 120.996 201.27C121.238 200.304 121.326 199.644 121.325 198.672C121.326 198.384 121.326 198.096 121.327 197.799C121.326 197.484 121.325 197.168 121.324 196.843C121.325 196.507 121.325 196.171 121.325 195.824C121.325 194.892 121.325 193.959 121.323 193.027C121.322 192.021 121.322 191.015 121.322 190.009C121.323 188.267 121.322 186.524 121.32 184.782C121.318 182.263 121.317 179.743 121.317 177.224C121.316 173.137 121.314 169.049 121.311 164.962C121.308 160.991 121.306 157.02 121.305 153.05C121.305 152.805 121.305 152.56 121.305 152.308C121.305 151.08 121.304 149.853 121.304 148.625C121.301 138.439 121.296 128.253 121.289 118.066C118.099 118.066 114.908 118.066 111.621 118.066ZM179.004 118.066C179.004 145.523 179.004 172.981 179.004 201.27C182.001 201.27 184.998 201.27 188.086 201.27C188.3 200.199 188.415 199.408 188.415 198.348C188.416 198.06 188.416 197.773 188.417 197.476C188.415 197.006 188.415 197.006 188.414 196.525C188.414 196.19 188.415 195.855 188.415 195.51C188.415 194.385 188.414 193.26 188.412 192.135C188.412 191.33 188.412 190.524 188.412 189.719C188.412 187.983 188.412 186.248 188.41 184.512C188.407 182.003 188.407 179.494 188.406 176.985C188.406 172.914 188.404 168.843 188.401 164.772C188.398 160.817 188.396 156.863 188.395 152.908C188.395 152.665 188.395 152.421 188.395 152.17C188.394 150.947 188.394 149.724 188.394 148.501C188.391 138.356 188.385 128.211 188.379 118.066C185.285 118.066 182.191 118.066 179.004 118.066ZM91.4062 191.602C91.4062 194.792 91.4062 197.982 91.4062 201.27C94.79 201.27 98.1738 201.27 101.66 201.27C101.15 198.21 99.7774 195.538 97.2656 193.652C95.2493 192.411 93.8031 191.901 91.4062 191.602ZM205.486 192.103C202.681 193.169 200.439 195.125 199.03 197.785C198.17 199.611 198.17 199.611 198.34 201.563C201.82 201.466 205.301 201.369 208.887 201.27C208.887 198.079 208.887 194.889 208.887 191.602C207.798 191.057 206.589 191.746 205.486 192.103Z" fill="black"/>
<path d="M152.637 90.8203C153.809 91.1133 153.809 91.1133 153.809 91.1133L152.637 90.8203Z" fill="black"/>
<path d="M165.527 118.066C166.406 118.359 166.406 118.359 166.406 118.359L165.527 118.066Z" fill="black"/>
<path d="M162.891 95.2148C163.77 95.5078 163.77 95.5078 163.77 95.5078L162.891 95.2148Z" fill="black"/>
<path d="M157.031 91.9922C157.91 92.2852 157.91 92.2852 157.91 92.2852L157.031 91.9922Z" fill="black"/>
<path d="M154.102 91.1133C154.98 91.4062 154.98 91.4062 154.98 91.4062L154.102 91.1133Z" fill="black"/>
<path d="M146.191 90.8203C147.07 91.1133 147.07 91.1133 147.07 91.1133L146.191 90.8203Z" fill="black"/>
<path d="M99.0234 203.906C99.6094 204.199 99.6094 204.199 99.6094 204.199L99.0234 203.906Z" fill="black"/>
<path d="M164.648 96.9727C165.234 97.2656 165.234 97.2656 165.234 97.2656L164.648 96.9727Z" fill="black"/>
<path d="M137.402 94.6289C137.988 94.9219 137.988 94.9219 137.988 94.9219L137.402 94.6289Z" fill="black"/>
<path d="M159.082 92.8711C159.668 93.1641 159.668 93.1641 159.668 93.1641L159.082 92.8711Z" fill="black"/>
<path d="M140.332 92.8711C140.918 93.1641 140.918 93.1641 140.918 93.1641L140.332 92.8711Z" fill="black"/>
<path d="M158.496 92.5781C159.082 92.8711 159.082 92.8711 159.082 92.8711L158.496 92.5781Z" fill="black"/>
<path d="M140.918 92.5781C141.504 92.8711 141.504 92.8711 141.504 92.8711L140.918 92.5781Z" fill="black"/>
<path d="M157.91 92.2852C158.496 92.5781 158.496 92.5781 158.496 92.5781L157.91 92.2852Z" fill="black"/>
<path d="M142.09 91.9922C142.676 92.2852 142.676 92.2852 142.676 92.2852L142.09 91.9922Z" fill="black"/>
<path d="M155.273 91.4062C155.859 91.6992 155.859 91.6992 155.859 91.6992L155.273 91.4062Z" fill="black"/>
<path d="M145.02 91.1133C145.605 91.4062 145.605 91.4062 145.605 91.4062L145.02 91.1133Z" fill="black"/>
</svg>
