<svg width="300" height="300" viewBox="0 0 300 300" fill="none" xmlns="http://www.w3.org/2000/svg">
<path d="M144.083 67.7935C133.184 69.7271 123.37 77.6665 119.503 87.7153C117.833 92.022 117.452 94.4536 117.276 101.368C117.1 108.75 116.983 108.487 119.972 108.516C121.993 108.545 122.784 108.135 122.784 107.051C122.843 102.774 123.429 95.5376 123.897 93.7212C126.124 85.02 132.159 78.2525 140.333 75.2642C151.934 71.0747 165.382 74.7954 172.266 84.0825C176.016 89.1216 177.54 94.8052 177.54 103.594C177.54 108.311 177.657 108.516 180.675 108.487C183.546 108.458 183.487 108.604 183.311 101.368C183.136 95.2153 182.784 92.7837 181.583 89.2095C179.972 84.4927 177.364 80.3032 173.614 76.5825C169.307 72.2759 165.206 69.9614 159.112 68.3501C156.768 67.7349 155.479 67.5884 151.319 67.5005C148.009 67.4419 145.577 67.5298 144.083 67.7935Z" fill="black"/>
<path d="M146.25 79.8047C140.683 80.8594 135.674 84.2285 132.598 88.8867C129.902 92.9883 128.76 97.5586 128.965 103.623C129.111 108.047 129.316 108.398 131.894 108.398C133.33 108.398 133.74 108.281 134.326 107.666C135.029 106.992 135.058 106.846 135.058 102.715C135.058 98.9941 135.146 98.1738 135.791 96.123C137.402 91.0547 141.797 87.0703 146.982 85.9863C152.344 84.8437 157.148 86.25 160.986 90.0879C164.502 93.5742 165.527 96.5039 165.527 102.92C165.527 106.816 165.557 106.992 166.26 107.666C166.846 108.281 167.256 108.398 168.691 108.398C171.562 108.398 171.533 108.428 171.474 102.48C171.445 97.9395 171.357 97.1191 170.654 94.7754C169.599 91.084 167.871 88.1836 165.234 85.5469C161.308 81.6211 157.002 79.7461 151.465 79.5117C149.56 79.4531 147.568 79.5703 146.25 79.8047Z" fill="black"/>
<path d="M88.4773 102.071C87.5984 102.276 86.3386 102.686 85.6941 102.979C84.1413 103.712 81.7976 106.143 80.8015 107.989C79.0144 111.3 79.1023 109.073 79.1023 153.985C79.1023 181.583 79.2195 195.821 79.4245 197.374C79.6296 198.868 80.0691 200.391 80.7429 201.798C82.53 205.518 84.9909 207.364 89.0632 207.979C90.7038 208.243 106.671 208.302 151.612 208.243C208.682 208.155 212.022 208.126 213.282 207.628C217.706 205.899 220.313 202.149 220.899 196.788C221.016 195.469 221.046 175.694 220.958 152.637L220.753 110.889L219.844 108.985C218.526 106.29 217.325 104.737 215.567 103.594C212.842 101.778 211.817 101.661 199.776 101.661C187.091 101.661 188.087 101.368 188.087 105.264C188.087 106.671 188.116 107.843 188.175 107.872C188.204 107.901 193.507 108.018 199.952 108.106C211.524 108.253 211.671 108.253 212.608 108.927C213.106 109.278 213.78 110.128 214.132 110.831C214.717 112.061 214.717 112.471 214.805 149.356L214.893 186.622L150.147 186.563L85.4011 186.475V149.415V112.354L86.1628 110.889C86.6609 109.893 87.2761 109.219 88.0671 108.78C89.1804 108.135 89.3562 108.106 100.372 108.106C108.634 108.106 111.592 108.018 111.856 107.755C112.061 107.55 112.208 106.495 112.208 105.03C112.208 101.397 113.087 101.661 100.606 101.69C93.5163 101.69 89.5613 101.837 88.4773 102.071ZM214.981 195.382C214.805 198.282 213.897 200.303 212.403 201.036C211.466 201.534 207.657 201.563 150.147 201.563C92.6374 201.563 88.8288 201.534 87.8913 201.036C86.3972 200.303 85.489 198.282 85.3132 195.382L85.1667 193.067H150.147H215.128L214.981 195.382Z" fill="black"/>
<path d="M140.919 101.866C140.04 102.188 139.747 102.95 139.747 104.942C139.747 108.282 139.19 108.106 150.294 108.106C161.368 108.106 160.841 108.252 160.841 105.03C160.841 103.36 160.753 103.008 160.108 102.393L159.405 101.661L150.382 101.69C145.43 101.69 141.153 101.778 140.919 101.866Z" fill="black"/>
<path d="M95.2156 113.322C93.8386 113.996 93.2234 115.226 92.989 117.687C92.8425 119.386 92.6961 119.796 92.2566 119.914C91.7586 120.06 91.7 120.382 91.7 122.843C91.7 126.681 91.4949 126.564 97.9109 126.564C104.18 126.564 103.946 126.681 103.946 122.931C103.917 120.734 103.858 120.324 103.419 120.207C103.009 120.089 102.891 119.621 102.745 117.921C102.569 115.431 101.983 114.171 100.694 113.38C99.4636 112.619 96.6511 112.589 95.2156 113.322ZM99.3171 116.164C99.7273 116.662 99.8738 118.8 99.5515 119.591C99.3757 120.002 98.9949 120.119 97.7351 120.119C96.4168 120.119 96.0945 120.031 95.948 119.533C95.6843 118.742 96.0652 116.837 96.6218 116.222C97.1785 115.607 98.8191 115.578 99.3171 116.164Z" fill="black"/>
<path d="M200.098 113.35C198.633 114.111 197.959 115.459 197.783 117.891C197.608 119.795 197.549 119.971 196.905 120.059C196.231 120.176 196.231 120.205 196.348 122.93C196.436 124.512 196.641 125.859 196.875 126.123C197.168 126.475 198.135 126.562 202.559 126.562C206.309 126.562 208.008 126.445 208.242 126.211C208.477 125.977 208.594 124.834 208.594 122.988C208.594 120.645 208.506 120.117 208.155 120.117C207.832 120.117 207.715 119.766 207.715 118.711C207.715 114.814 205.957 112.793 202.53 112.793C201.709 112.793 200.684 113.027 200.098 113.35ZM203.906 116.309C204.346 116.748 204.492 117.275 204.492 118.506V120.146L202.676 120.059L200.83 119.971L200.889 118.359C200.918 117.1 201.065 116.66 201.563 116.25C202.412 115.576 203.174 115.576 203.906 116.309Z" fill="black"/>
<path d="M110.157 114.932L109.425 115.312L109.337 147.627C109.308 171.27 109.366 180.059 109.601 180.352C109.894 180.703 116.632 180.762 150.177 180.762C186.329 180.762 190.431 180.703 190.841 180.293C191.251 179.883 191.31 176.543 191.31 147.92V115.986L190.577 115.283L189.874 114.551H150.382C119.122 114.551 110.743 114.639 110.157 114.932ZM185.099 147.568L185.157 174.023H150.294H115.431V147.51V120.996L150.235 121.055L185.011 121.143L185.099 147.568Z" fill="black"/>
<path d="M121.494 127.881C121.025 128.32 120.996 129.961 120.996 147.627C120.996 164.414 121.084 166.963 121.465 167.52C121.846 168.076 122.168 168.164 124.219 168.164C126.211 168.164 126.592 168.076 126.855 167.607C127.236 166.846 127.266 128.643 126.855 128.027C126.416 127.354 122.139 127.236 121.494 127.881Z" fill="black"/>
<path d="M173.76 127.852C173.233 128.467 173.291 167.608 173.819 167.93C174.405 168.311 178.565 168.194 178.946 167.813C179.209 167.549 179.297 162.686 179.297 147.745C179.297 125.098 179.649 127.442 176.133 127.442C174.727 127.442 173.994 127.559 173.76 127.852Z" fill="black"/>
<path d="M146.691 128.906C141.446 130.225 138.312 134.707 138.634 140.449C138.839 144.199 140.597 147.363 143.439 149.004L144.728 149.766V156.768C144.728 163.359 144.757 163.77 145.284 164.062C145.607 164.209 147.716 164.355 150.001 164.355C152.286 164.355 154.396 164.209 154.718 164.062C155.245 163.77 155.275 163.359 155.275 156.768V149.795L156.446 149.268C157.941 148.594 160.079 146.309 160.9 144.521C161.456 143.35 161.544 142.559 161.573 139.746C161.573 136.729 161.486 136.201 160.812 134.766C159.816 132.627 157.882 130.781 155.597 129.697C153.956 128.906 153.341 128.789 150.763 128.73C149.122 128.672 147.306 128.76 146.691 128.906ZM151.876 135.381C152.667 135.586 153.546 136.084 154.132 136.699C154.982 137.578 155.099 137.93 155.216 139.541C155.333 141.621 154.747 142.881 153.195 143.818C150.294 145.576 146.105 144.17 145.284 141.152C144.23 137.168 147.511 134.268 151.876 135.381Z" fill="black"/>
<path d="M96.0059 131.075C93.8965 131.866 93.2227 132.95 92.959 135.968C92.8418 137.286 92.666 137.989 92.4316 137.989C91.9043 137.989 91.6992 138.985 91.6992 141.739C91.6992 144.054 91.7285 144.171 92.4609 144.435C93.5742 144.874 102.92 144.815 103.359 144.376C103.594 144.142 103.711 142.97 103.711 141.007C103.711 138.194 103.682 137.989 103.125 137.989C102.598 137.989 102.539 137.784 102.539 135.997C102.539 133.712 101.924 132.247 100.576 131.485C99.3457 130.753 97.3535 130.577 96.0059 131.075ZM99.1406 134.356C99.4629 134.649 99.6094 135.353 99.6094 136.407V137.989H97.6758H95.7129L95.8887 136.349C95.9766 135.47 96.2109 134.532 96.416 134.298C96.8555 133.741 98.584 133.771 99.1406 134.356Z" fill="black"/>
<path d="M200.098 131.486C198.633 132.277 197.988 133.566 197.812 135.968C197.695 137.697 197.607 137.99 197.139 137.99C196.641 137.99 196.582 138.253 196.582 141.066C196.582 143.79 196.641 144.142 197.139 144.435C197.754 144.757 207.334 144.845 208.125 144.552C208.506 144.406 208.594 143.849 208.594 141.359C208.594 138.663 208.535 138.312 208.066 138.165C207.656 138.019 207.568 137.755 207.656 137.14C207.891 135.47 207.188 133.185 206.074 132.101C205.166 131.222 204.873 131.105 203.086 131.017C201.562 130.958 200.889 131.046 200.098 131.486ZM203.936 134.503C204.404 134.972 204.492 135.382 204.434 136.613C204.346 138.048 204.287 138.136 203.496 138.224C203.027 138.282 202.178 138.253 201.621 138.136L200.625 137.96L200.801 136.437C201.094 134.122 202.617 133.185 203.936 134.503Z" fill="black"/>
<path d="M95.3613 149.385C93.7793 150.352 93.3984 151.025 93.0762 153.486C92.8125 155.332 92.6367 155.859 92.2266 155.947C91.7578 156.094 91.6992 156.445 91.6992 159.053C91.6992 161.66 91.7578 162.012 92.2559 162.305C92.6074 162.48 94.9805 162.598 97.9395 162.598C101.953 162.598 103.125 162.51 103.389 162.188C103.623 161.924 103.711 160.781 103.652 158.906C103.594 156.562 103.477 156.006 103.125 156.006C102.773 156.006 102.656 155.479 102.539 153.779C102.363 151.289 101.865 150.293 100.4 149.414C99.1406 148.652 96.5625 148.623 95.3613 149.385ZM99.0527 152.373C99.5215 152.842 99.6094 153.252 99.5508 154.482L99.4629 156.006H97.8516H96.2402L96.1523 154.336C96.0645 152.9 96.1523 152.637 96.7383 152.227C97.6172 151.611 98.3203 151.641 99.0527 152.373Z" fill="black"/>
<path d="M200.859 149.123C198.896 149.738 197.754 151.847 197.754 154.835C197.754 155.656 197.637 155.861 197.168 155.861C196.611 155.861 196.582 156.066 196.582 158.878C196.582 160.841 196.699 162.013 196.934 162.248C197.314 162.628 207.217 162.775 208.125 162.423C208.77 162.189 208.828 156.154 208.184 156.154C207.92 156.154 207.744 155.539 207.627 154.132C207.422 151.789 206.895 150.587 205.664 149.708C204.668 149.005 202.207 148.683 200.859 149.123ZM204.023 152.609C204.375 153.019 204.492 153.546 204.434 154.572L204.346 156.007L202.676 156.095L200.977 156.183V154.425C200.977 153.048 201.094 152.609 201.504 152.374C202.295 151.906 203.467 151.994 204.023 152.609Z" fill="black"/>
<path d="M95.5079 167.638C93.8087 168.517 93.1642 169.748 93.1642 172.179C93.1642 173.586 93.0763 174.025 92.754 174.025C92.0802 174.025 91.9337 174.464 91.7872 177.218C91.5528 180.88 91.3478 180.763 97.9688 180.763C101.719 180.763 103.418 180.646 103.652 180.412C103.887 180.177 104.004 179.035 104.004 177.189C104.004 174.523 103.975 174.318 103.418 174.318C102.891 174.318 102.832 174.113 102.832 172.677C102.832 170.392 101.924 168.429 100.518 167.638C99.0235 166.789 97.1778 166.818 95.5079 167.638ZM98.9942 170.421C99.5802 170.919 99.7853 171.828 99.6681 173.498C99.6095 174.289 99.5509 174.318 97.8517 174.318H96.0938V172.707C96.0938 170.275 97.5001 169.191 98.9942 170.421Z" fill="black"/>
<path d="M200.127 167.519C198.457 168.34 197.93 169.365 197.813 171.855C197.696 173.701 197.608 174.023 197.168 174.023C196.465 174.023 196.377 174.346 196.319 177.217C196.231 180.849 196.055 180.762 202.588 180.762C206.309 180.762 208.008 180.644 208.243 180.41C208.77 179.883 208.741 174.316 208.184 174.316C207.92 174.316 207.715 173.613 207.481 172.002C207.159 169.365 206.514 168.193 204.961 167.461C203.643 166.846 201.387 166.875 200.127 167.519ZM203.907 170.508C204.346 170.947 204.493 171.474 204.493 172.705V174.346L202.676 174.258L200.83 174.17L200.743 172.646C200.684 171.416 200.772 171.006 201.241 170.537C202.032 169.746 203.145 169.746 203.907 170.508Z" fill="black"/>
</svg>
