<svg width="300" height="300" viewBox="0 0 300 300" fill="none" xmlns="http://www.w3.org/2000/svg">
<path d="M104.211 88.403C104.547 88.4012 104.883 88.3995 105.229 88.3978C105.781 88.3994 105.781 88.3994 106.343 88.4011C106.739 88.4002 107.135 88.3991 107.53 88.3977C108.617 88.3947 109.704 88.3954 110.79 88.3966C111.962 88.3973 113.135 88.3947 114.307 88.3925C116.603 88.3888 118.898 88.3882 121.194 88.3889C123.06 88.3895 124.925 88.3889 126.791 88.3877C127.056 88.3875 127.322 88.3873 127.595 88.3872C128.134 88.3868 128.673 88.3865 129.212 88.3861C134.268 88.3829 139.324 88.3835 144.38 88.3853C149.008 88.3868 153.636 88.3835 158.265 88.378C163.015 88.3723 167.765 88.3699 172.515 88.371C175.183 88.3715 177.85 88.3708 180.518 88.3667C182.789 88.3632 185.059 88.3628 187.33 88.3663C188.489 88.3681 189.647 88.3684 190.806 88.3649C191.867 88.3617 192.927 88.3626 193.987 88.3667C194.554 88.3678 195.12 88.3647 195.687 88.3613C196.022 88.3634 196.357 88.3656 196.703 88.3677C196.993 88.3677 197.282 88.3677 197.581 88.3677C198.497 88.5004 198.881 88.6762 199.511 89.3564C199.852 90.6186 199.841 91.872 199.842 93.1741C199.842 93.3754 199.843 93.5767 199.843 93.7842C199.844 94.4585 199.844 95.1328 199.843 95.8072C199.844 96.2956 199.844 96.7841 199.845 97.2726C199.847 98.6147 199.847 99.9568 199.846 101.299C199.846 102.746 199.848 104.194 199.849 105.641C199.852 108.477 199.853 111.313 199.853 114.148C199.853 116.452 199.854 118.756 199.854 121.061C199.857 127.591 199.858 134.122 199.858 140.652C199.858 141.18 199.858 141.18 199.858 141.719C199.858 142.071 199.858 142.424 199.858 142.787C199.858 148.503 199.861 154.22 199.865 159.936C199.869 165.803 199.871 171.67 199.871 177.537C199.871 180.832 199.872 184.127 199.875 187.422C199.877 190.226 199.878 193.031 199.876 195.836C199.875 197.267 199.875 198.698 199.878 200.13C199.88 201.439 199.88 202.749 199.877 204.059C199.877 204.533 199.877 205.008 199.879 205.482C199.881 206.126 199.879 206.77 199.877 207.414C199.877 207.951 199.877 207.951 199.877 208.498C199.78 209.796 199.618 210.815 198.697 211.774C197.887 212.193 197.331 212.22 196.419 212.22C196.086 212.222 195.753 212.224 195.41 212.227C195.043 212.224 194.677 212.222 194.3 212.22C193.908 212.221 193.515 212.222 193.122 212.223C192.042 212.227 190.962 212.224 189.882 212.221C188.717 212.218 187.553 212.221 186.388 212.223C184.107 212.225 181.825 212.223 179.543 212.22C176.887 212.216 174.231 212.216 171.575 212.217C166.836 212.218 162.097 212.215 157.358 212.209C152.758 212.203 148.158 212.201 143.558 212.203C138.551 212.205 133.544 212.205 128.537 212.201C128.004 212.201 127.47 212.2 126.936 212.2C126.673 212.2 126.411 212.2 126.14 212.2C124.288 212.198 122.436 212.199 120.584 212.199C118.327 212.2 116.07 212.198 113.813 212.194C112.661 212.192 111.509 212.191 110.357 212.192C109.303 212.193 108.249 212.192 107.195 212.188C106.632 212.187 106.07 212.188 105.507 212.19C105.173 212.188 104.839 212.187 104.495 212.185C104.207 212.185 103.919 212.184 103.622 212.184C102.764 212.104 102.135 211.911 101.366 211.524C100.938 210.669 101.037 209.919 101.037 208.963C101.037 208.757 101.037 208.55 101.036 208.337C101.036 207.639 101.037 206.94 101.038 206.241C101.038 205.738 101.038 205.235 101.037 204.731C101.037 203.343 101.038 201.955 101.039 200.567C101.041 199.072 101.04 197.577 101.04 196.082C101.04 193.49 101.041 190.898 101.042 188.306C101.045 184.558 101.046 180.81 101.046 177.063C101.047 170.983 101.049 164.903 101.051 158.824C101.054 152.916 101.056 147.009 101.057 141.102C101.057 140.738 101.057 140.374 101.058 139.999C101.058 138.174 101.058 136.348 101.059 134.523C101.062 119.37 101.067 104.217 101.073 89.0634C102.164 88.5626 103.014 88.404 104.211 88.403ZM104.589 92.2861C104.589 100.311 104.589 108.335 104.589 116.603C134.656 116.603 164.724 116.603 195.702 116.603C195.702 108.578 195.702 100.554 195.702 92.2861C165.635 92.2861 135.568 92.2861 104.589 92.2861ZM104.589 120.411C104.583 134.647 104.577 148.883 104.571 163.551C104.568 168.052 104.565 172.553 104.563 177.191C104.562 181.213 104.562 181.213 104.561 185.235C104.561 187.031 104.56 188.828 104.558 190.624C104.556 192.695 104.555 194.765 104.556 196.836C104.556 197.896 104.556 198.955 104.554 200.015C104.552 201.148 104.553 202.282 104.554 203.415C104.553 203.748 104.552 204.08 104.551 204.423C104.552 204.727 104.552 205.03 104.553 205.343C104.553 205.605 104.553 205.867 104.553 206.137C104.587 206.801 104.696 207.372 104.882 208.009C107.201 208.264 109.486 208.34 111.818 208.326C112.177 208.325 112.537 208.324 112.907 208.323C113.899 208.32 114.89 208.316 115.881 208.311C116.968 208.306 118.056 208.303 119.144 208.299C121.252 208.293 123.36 208.284 125.469 208.275C127.909 208.265 130.349 208.256 132.79 208.248C139.228 208.225 145.667 208.199 152.105 208.174C166.492 208.119 180.879 208.065 195.702 208.009C195.702 179.102 195.702 150.194 195.702 120.411C165.635 120.411 135.568 120.411 104.589 120.411Z" fill="black"/>
<path d="M162.771 142.606C166.736 146.294 169.368 151.553 169.676 156.981C169.843 163.023 167.661 167.969 163.568 172.321C159.567 176.163 154.451 178.014 148.946 177.914C143.424 177.668 138.762 174.981 135.003 171.039C131.183 166.536 129.618 161.113 130.078 155.274C130.648 151.183 132.332 147.532 135.058 144.434C135.232 144.236 135.407 144.037 135.586 143.833C142.911 136.022 154.741 135.859 162.771 142.606Z" fill="black"/>
<path d="M167.818 134.51C168.135 134.782 168.135 134.782 168.457 135.059C168.698 135.261 168.939 135.463 169.187 135.671C174.442 140.215 178.42 147.078 179.004 154.102C179.484 162.905 177.888 170.706 171.973 177.539C171.847 177.696 171.72 177.852 171.59 178.013C167.222 183.343 160.294 186.667 153.516 187.5C144.688 188.006 137.29 185.891 130.573 180.029C125.456 175.234 122.711 169.611 120.996 162.891C120.899 162.891 120.803 162.891 120.703 162.891C120.813 152.983 121.985 144.542 129.199 137.109C129.375 136.912 129.551 136.714 129.733 136.511C139.353 126.079 157.076 125.677 167.818 134.51ZM133.301 138.574C133.013 138.804 132.726 139.034 132.43 139.27C128.386 142.643 126.151 147.897 125.098 152.93C125.042 153.193 124.986 153.456 124.928 153.727C123.991 161.012 125.433 167.754 129.785 173.731C134.081 179.011 139.636 182.414 146.433 183.326C154.294 183.936 161.3 181.975 167.38 176.802C172.079 172.579 174.835 166.23 175.232 159.972C175.517 152.488 173.59 145.692 168.457 140.039C163.455 134.971 157.125 132.338 150.055 132.257C143.555 132.303 138.211 134.296 133.301 138.574Z" fill="black"/>
<path d="M111.223 198.815C111.504 198.813 111.784 198.811 112.074 198.808C112.537 198.811 112.537 198.811 113.011 198.814C113.339 198.813 113.666 198.812 114.004 198.81C115.109 198.807 116.213 198.809 117.318 198.812C118.108 198.811 118.897 198.809 119.687 198.807C121.612 198.804 123.537 198.804 125.463 198.807C127.027 198.809 128.592 198.809 130.156 198.808C130.49 198.808 130.49 198.808 130.83 198.808C131.282 198.808 131.734 198.807 132.185 198.807C136.425 198.805 140.664 198.807 144.903 198.812C148.543 198.816 152.183 198.815 155.822 198.811C160.046 198.807 164.27 198.805 168.494 198.807C168.944 198.808 169.394 198.808 169.844 198.808C170.066 198.808 170.287 198.809 170.515 198.809C172.078 198.809 173.641 198.808 175.204 198.806C177.108 198.804 179.013 198.804 180.917 198.809C181.889 198.811 182.861 198.812 183.833 198.809C184.885 198.807 185.937 198.81 186.989 198.814C187.299 198.812 187.608 198.81 187.926 198.808C188.348 198.812 188.348 198.812 188.777 198.815C189.02 198.815 189.263 198.816 189.514 198.816C190.294 198.954 190.552 199.169 191.016 199.805C191.144 200.83 191.144 200.83 191.016 201.856C190.191 202.663 189.596 202.844 188.458 202.845C188.179 202.847 187.9 202.85 187.612 202.852C187.306 202.85 187.001 202.848 186.686 202.846C186.197 202.848 186.197 202.848 185.699 202.85C184.604 202.854 183.509 202.851 182.414 202.848C181.631 202.849 180.848 202.851 180.064 202.853C178.155 202.857 176.246 202.856 174.337 202.853C172.785 202.851 171.234 202.851 169.682 202.852C169.351 202.852 169.351 202.852 169.014 202.852C168.566 202.853 168.117 202.853 167.669 202.853C163.464 202.856 159.259 202.853 155.054 202.848C151.445 202.844 147.836 202.845 144.226 202.849C140.037 202.854 135.847 202.856 131.657 202.853C131.211 202.853 130.764 202.852 130.318 202.852C130.098 202.852 129.878 202.852 129.652 202.852C128.102 202.851 126.552 202.852 125.002 202.854C123.114 202.857 121.226 202.856 119.337 202.851C118.374 202.849 117.41 202.849 116.446 202.851C115.402 202.853 114.358 202.85 113.315 202.846C113.009 202.848 112.703 202.85 112.388 202.852C111.969 202.849 111.969 202.849 111.542 202.845C111.18 202.845 111.18 202.845 110.811 202.845C109.984 202.705 109.582 202.44 108.984 201.856C108.766 200.105 108.766 200.105 109.347 199.308C110.013 198.815 110.398 198.816 111.223 198.815Z" fill="black"/>
<path d="M112.822 98.0967C113.099 98.0952 113.375 98.0937 113.66 98.0922C114.576 98.088 115.493 98.086 116.41 98.0843C117.044 98.0827 117.679 98.081 118.314 98.0793C119.646 98.0762 120.978 98.0745 122.31 98.0735C124.02 98.0719 125.731 98.0648 127.441 98.0565C128.752 98.051 130.064 98.0495 131.375 98.0491C132.006 98.0482 132.637 98.0458 133.268 98.042C134.148 98.037 135.028 98.0375 135.909 98.0394C136.171 98.0367 136.434 98.034 136.705 98.0312C137.429 98.0362 137.429 98.0362 138.574 98.1439C139.335 99.2853 139.25 100.253 139.249 101.577C139.25 101.827 139.251 102.078 139.252 102.336C139.254 102.864 139.254 103.393 139.253 103.922C139.252 104.733 139.259 105.543 139.266 106.353C139.267 106.867 139.267 107.38 139.267 107.894C139.27 108.137 139.272 108.379 139.275 108.629C139.261 110.327 139.261 110.327 138.751 110.941C137.655 111.844 136.495 111.664 135.142 111.663C134.745 111.664 134.745 111.664 134.341 111.666C133.463 111.669 132.586 111.669 131.709 111.67C131.101 111.671 130.493 111.672 129.885 111.673C128.61 111.674 127.334 111.675 126.059 111.675C124.422 111.675 122.785 111.679 121.149 111.684C119.893 111.687 118.637 111.688 117.381 111.687C116.777 111.688 116.174 111.689 115.57 111.691C114.727 111.694 113.884 111.693 113.041 111.692C112.79 111.693 112.54 111.695 112.281 111.697C110.55 111.687 110.55 111.687 109.571 111.034C109.465 110.486 109.465 110.486 109.471 109.812C109.471 109.559 109.471 109.307 109.471 109.047C109.478 108.639 109.478 108.639 109.485 108.222C109.486 107.943 109.487 107.664 109.489 107.377C109.493 106.484 109.504 105.592 109.516 104.699C109.52 104.095 109.524 103.491 109.528 102.886C109.537 101.403 109.553 99.92 109.571 98.4368C110.572 97.936 111.72 98.098 112.822 98.0967ZM130.833 101.672C129.717 101.687 128.6 101.705 127.484 101.724C127.075 101.73 126.666 101.737 126.256 101.743C125.191 101.76 124.125 101.778 123.059 101.795C121.967 101.813 120.875 101.831 119.783 101.848C117.648 101.883 115.514 101.918 113.379 101.952C113.379 103.886 113.379 105.82 113.379 107.812C120.63 107.812 127.881 107.812 135.352 107.812C135.352 105.878 135.352 103.945 135.352 101.952C135.059 101.595 135.059 101.595 134.478 101.629C134.222 101.631 133.965 101.634 133.701 101.637C133.261 101.641 133.261 101.641 132.813 101.645C132.153 101.655 131.493 101.664 130.833 101.672Z" fill="black"/>
<path d="M171.002 100.379C172.2 101.61 172.897 103.157 172.997 104.883C172.88 106.794 172.091 108.425 170.672 109.699C169.323 110.731 168.198 111.182 166.458 111.126C164.456 110.843 162.978 109.908 161.763 108.315C160.776 106.847 160.61 105.447 160.839 103.712C161.392 101.891 162.494 100.653 164.062 99.61C166.6 98.4221 168.703 98.9893 171.002 100.379ZM165.307 103.144C164.574 103.964 164.574 103.964 164.465 105.03C164.581 106.087 164.581 106.087 165.252 106.934C166.086 107.617 166.086 107.617 167.175 107.538C168.153 107.303 168.153 107.303 168.731 106.733C169.226 105.656 169.195 104.755 168.823 103.638C168.369 103.003 168.018 102.799 167.285 102.54C166.101 102.422 166.101 102.422 165.307 103.144Z" fill="black"/>
<path d="M187.551 99.7837C188.839 100.777 189.847 102.094 190.136 103.711C190.358 105.647 190.049 107.071 188.964 108.692C187.68 110.254 186.339 110.933 184.331 111.164C182.58 111.079 180.851 110.555 179.608 109.285C178.081 107.27 177.818 105.664 178.124 103.125C178.848 101.381 179.979 100.183 181.64 99.3168C183.634 98.7086 185.721 98.7446 187.551 99.7837ZM182.244 103.309C181.585 104.386 181.404 104.824 181.64 106.055C182.013 106.943 182.013 106.943 182.812 107.52C183.74 107.746 184.522 107.758 185.448 107.52C186.28 106.809 186.28 106.809 186.62 105.762C186.62 104.606 186.493 103.96 185.851 102.997C184.463 102.084 183.46 102.222 182.244 103.309Z" fill="black"/>
<path d="M153.809 100.489C155.039 101.718 155.774 103.202 155.91 104.941C155.819 106.803 155.057 108.208 153.809 109.571C152.404 110.712 150.847 110.965 149.067 110.891C147.384 110.588 145.926 109.788 144.88 108.418C143.97 106.739 143.635 105.108 144.177 103.253C144.787 101.635 145.562 100.576 147.07 99.6646C149.579 98.6717 151.626 98.9771 153.809 100.489ZM148.114 103.272C147.559 104.16 147.468 104.754 147.526 105.788C147.633 106.43 147.633 106.43 148.261 107.099C149.382 107.648 149.981 107.558 151.172 107.227C151.782 106.958 151.782 106.958 152.051 106.348C152.237 104.716 152.237 104.716 151.593 103.272C150.382 102.527 149.325 102.527 148.114 103.272Z" fill="black"/>
<path d="M111.106 192.659C111.356 192.656 111.605 192.653 111.862 192.65C112.13 192.652 112.398 192.654 112.675 192.656C112.951 192.655 113.227 192.654 113.512 192.653C114.096 192.653 114.68 192.654 115.264 192.658C116.159 192.663 117.054 192.658 117.949 192.652C118.516 192.653 119.084 192.654 119.651 192.656C120.053 192.653 120.053 192.653 120.464 192.65C120.713 192.653 120.962 192.656 121.219 192.659C121.548 192.66 121.548 192.66 121.884 192.661C122.62 192.803 122.882 193.069 123.341 193.651C123.492 194.471 123.408 195.151 123.341 195.995C122.638 196.698 122.477 196.657 121.519 196.666C121.136 196.672 121.136 196.672 120.745 196.678C120.331 196.679 120.331 196.679 119.908 196.68C119.625 196.681 119.342 196.683 119.05 196.685C118.451 196.688 117.851 196.69 117.251 196.69C116.332 196.691 115.414 196.702 114.495 196.713C113.913 196.714 113.331 196.716 112.749 196.716C112.473 196.72 112.198 196.725 111.914 196.729C110.017 196.716 110.017 196.716 109.251 196.043C108.891 195.186 108.868 194.571 108.985 193.651C109.623 192.81 110.068 192.662 111.106 192.659Z" fill="black"/>
<path d="M139.453 129.492C140.332 129.785 140.332 129.785 140.332 129.785L139.453 129.492Z" fill="black"/>
</svg>
