<svg width="300" height="300" viewBox="0 0 300 300" fill="none" xmlns="http://www.w3.org/2000/svg">
<path d="M175.069 66.3578C175.554 66.7742 176.033 67.1958 176.51 67.6203C177.183 68.2602 177.183 68.2602 177.832 68.5542C177.832 68.7475 177.832 68.9409 177.832 69.1401C178.122 69.2368 178.412 69.3335 178.711 69.4331C178.711 69.6264 178.711 69.8198 178.711 70.019C178.879 70.0866 179.047 70.1542 179.22 70.2239C184.053 73.0036 187.737 81.5034 189.257 86.7182C190.428 91.2278 191.063 95.5288 191.049 100.188C191.049 100.557 191.049 100.926 191.049 101.306C191.049 102.309 191.047 103.312 191.045 104.315C191.043 105.366 191.043 106.418 191.043 107.469C191.042 109.456 191.039 111.443 191.036 113.43C191.033 115.693 191.032 117.957 191.03 120.221C191.027 124.874 191.022 129.526 191.015 134.179C191.229 134.176 191.442 134.173 191.662 134.169C193.675 134.14 195.687 134.118 197.701 134.103C198.735 134.096 199.77 134.085 200.805 134.069C201.995 134.05 203.186 134.043 204.376 134.036C204.747 134.029 205.117 134.021 205.499 134.013C208.361 134.012 208.361 134.012 209.26 134.866C209.974 135.965 210.096 136.762 210.105 138.044C210.108 138.356 210.111 138.667 210.114 138.988C210.116 139.496 210.116 139.496 210.118 140.015C210.119 140.367 210.121 140.72 210.123 141.083C210.126 141.835 210.128 142.586 210.129 143.338C210.131 144.462 210.141 145.587 210.15 146.711C210.175 152.516 209.836 158.265 208.41 163.916C208.299 164.363 208.299 164.363 208.186 164.82C204.143 180.45 194.063 194.097 180.218 202.431C172.036 207.202 163.753 209.543 154.394 210.644C154.394 218.475 154.394 226.306 154.394 234.374C156.129 234.361 157.864 234.347 159.652 234.333C160.752 234.327 161.852 234.322 162.952 234.317C164.698 234.31 166.443 234.302 168.189 234.286C169.597 234.273 171.004 234.266 172.412 234.263C172.948 234.261 173.485 234.257 174.021 234.251C174.774 234.242 175.526 234.241 176.279 234.241C176.5 234.237 176.721 234.233 176.949 234.229C178.458 234.24 179.308 234.592 180.468 235.546C181.375 236.804 181.473 237.813 181.242 239.301C180.922 240.393 180.424 240.922 179.59 241.699C178.359 242.343 177.195 242.368 175.836 242.361C175.607 242.362 175.379 242.363 175.144 242.364C174.379 242.367 173.614 242.366 172.85 242.365C172.301 242.366 171.752 242.368 171.204 242.37C169.714 242.374 168.224 242.374 166.735 242.373C165.491 242.373 164.248 242.374 163.004 242.376C160.07 242.379 157.137 242.379 154.203 242.377C151.177 242.375 148.15 242.379 145.123 242.385C142.525 242.39 139.926 242.392 137.328 242.391C135.776 242.391 134.224 242.391 132.672 242.395C131.212 242.399 129.753 242.399 128.294 242.395C127.758 242.394 127.223 242.395 126.687 242.397C125.956 242.4 125.225 242.398 124.494 242.394C124.282 242.396 124.07 242.399 123.852 242.401C122.491 242.386 121.566 242.121 120.41 241.406C119.322 240.204 119.048 239.226 119.125 237.65C119.354 236.359 120.017 235.555 121.035 234.774C122.12 234.258 123.096 234.246 124.273 234.248C124.511 234.245 124.748 234.242 124.992 234.239C125.774 234.23 126.555 234.227 127.337 234.225C127.88 234.22 128.423 234.214 128.966 234.209C130.393 234.195 131.82 234.186 133.247 234.178C134.961 234.168 136.674 234.151 138.388 234.136C140.989 234.113 143.59 234.098 146.191 234.082C146.094 226.25 145.998 218.419 145.898 210.351C144.931 210.351 143.965 210.351 142.968 210.351C142.128 210.267 142.128 210.267 141.458 210.146C141.204 210.101 140.949 210.056 140.688 210.009C140.425 209.959 140.163 209.909 139.892 209.857C139.612 209.803 139.331 209.75 139.043 209.696C130.104 207.947 121.781 204.182 114.55 198.632C114.305 198.444 114.305 198.444 114.055 198.252C109.622 194.791 105.459 190.655 102.246 186.035C102.021 185.727 101.796 185.42 101.565 185.103C92.7466 172.76 89.9029 158.312 89.8707 143.439C89.8678 142.629 89.8586 141.82 89.8495 141.011C89.8476 140.491 89.8461 139.971 89.8449 139.45C89.8413 139.211 89.8377 138.972 89.834 138.726C89.8405 137.065 90.1609 135.932 91.1829 134.577C91.9279 134.003 92.4793 134.074 93.4123 134.079C93.7641 134.079 94.116 134.08 94.4785 134.08C94.8585 134.084 95.2385 134.089 95.6299 134.093C96.0228 134.095 96.4156 134.096 96.8085 134.097C97.8416 134.1 98.8747 134.109 99.9078 134.119C100.962 134.128 102.017 134.132 103.071 134.136C105.14 134.146 107.209 134.161 109.277 134.179C109.276 133.987 109.275 133.794 109.275 133.595C109.255 128.882 109.241 124.169 109.231 119.456C109.227 117.176 109.221 114.897 109.211 112.617C109.202 110.628 109.196 108.639 109.194 106.649C109.193 105.598 109.191 104.547 109.184 103.496C109.151 97.9829 109.257 92.6118 110.925 87.3042C110.998 87.0659 111.072 86.8276 111.148 86.582C114.447 76.3541 122.033 67.277 131.603 62.3343C145.31 55.5513 163.053 56.2969 175.069 66.3578ZM125.482 76.6841C119.153 84.0349 117.086 92.4866 117.111 102.013C117.111 102.529 117.11 103.046 117.108 103.562C117.106 104.951 117.107 106.34 117.108 107.728C117.11 109.192 117.109 110.655 117.108 112.119C117.107 114.577 117.108 117.034 117.111 119.492C117.114 122.318 117.113 125.145 117.11 127.971C117.107 130.412 117.107 132.853 117.108 135.294C117.109 136.745 117.109 138.197 117.107 139.649C117.106 141.015 117.107 142.382 117.11 143.749C117.111 144.246 117.111 144.742 117.109 145.238C117.103 147.874 117.192 150.478 117.446 153.103C117.468 153.338 117.491 153.574 117.514 153.817C118.375 161.944 122.902 169.831 129.17 175.02C136.436 180.832 144.958 183.238 154.22 182.46C160.641 181.71 166.893 178.936 171.679 174.609C171.932 174.395 172.184 174.181 172.444 173.96C178.841 168.445 182.394 160.483 183.047 152.156C183.148 150.444 183.146 148.734 183.143 147.02C183.143 146.615 183.144 146.211 183.145 145.807C183.146 144.715 183.145 143.624 183.144 142.532C183.144 141.371 183.144 140.211 183.145 139.05C183.145 137.09 183.145 135.13 183.143 133.17C183.142 131.189 183.142 129.208 183.143 127.227C183.148 120.958 183.141 114.69 183.108 108.422C183.105 107.829 183.102 107.235 183.099 106.642C183.088 104.584 183.071 102.526 183.042 100.469C183.034 99.8819 183.028 99.2953 183.024 98.7086C182.99 94.1929 182.521 89.7434 180.67 85.5647C180.583 85.3609 180.495 85.1572 180.405 84.9473C179.167 82.1402 177.432 79.7032 175.488 77.3432C175.321 77.1333 175.154 76.9233 174.982 76.7069C170.079 70.823 162.216 66.8942 154.687 65.9175C143.311 65.0418 133.371 68.338 125.482 76.6841ZM97.8512 141.796C97.6268 158.519 100.967 174.158 112.793 186.621C113.281 187.109 113.769 187.598 114.257 188.085C114.462 188.303 114.666 188.521 114.877 188.746C119.615 193.72 125.909 197.641 132.422 199.804C132.645 199.879 132.868 199.953 133.097 200.03C136.445 201.131 139.769 201.954 143.261 202.441C143.555 202.482 143.555 202.482 143.854 202.525C151.311 203.475 158.963 202.613 166.113 200.39C166.307 200.33 166.5 200.27 166.7 200.209C172.38 198.395 177.644 195.385 182.226 191.601C182.402 191.459 182.578 191.317 182.76 191.171C191.755 183.912 198.047 173.859 200.683 162.597C200.77 162.238 200.856 161.879 200.945 161.509C202.381 154.994 202.199 148.431 202.148 141.796C198.474 141.796 194.8 141.796 191.015 141.796C190.985 143.259 190.955 144.721 190.924 146.228C190.573 159.126 187.059 170.522 177.539 179.589C169.611 186.699 159.035 190.706 148.367 190.186C140.304 189.626 132.347 187.007 125.976 181.933C125.728 181.736 125.728 181.736 125.475 181.534C122.038 178.768 118.971 175.717 116.601 171.972C116.437 171.718 116.437 171.718 116.268 171.459C110.317 162.213 109.555 152.517 109.277 141.796C105.507 141.796 101.736 141.796 97.8512 141.796Z" fill="black"/>
<path d="M148.565 121.756C148.831 121.754 149.097 121.752 149.371 121.75C150.249 121.744 151.127 121.746 152.004 121.747C152.615 121.746 153.226 121.744 153.838 121.743C155.118 121.74 156.398 121.741 157.679 121.744C159.318 121.747 160.958 121.741 162.597 121.733C163.859 121.727 165.121 121.727 166.383 121.729C166.988 121.729 167.592 121.727 168.197 121.724C169.042 121.719 169.888 121.722 170.734 121.727C171.107 121.723 171.107 121.723 171.488 121.719C173.058 121.738 173.945 122.01 175.196 123.046C176.122 124.126 176.23 125.12 176.175 126.499C176.012 127.553 175.623 128.13 174.903 128.906C173.295 129.76 172.001 129.912 170.2 129.898C169.813 129.901 169.813 129.901 169.419 129.903C168.573 129.907 167.728 129.904 166.882 129.901C166.291 129.902 165.7 129.903 165.11 129.904C163.874 129.905 162.639 129.903 161.403 129.899C159.822 129.894 158.24 129.897 156.658 129.902C155.439 129.905 154.221 129.904 153.002 129.902C152.419 129.902 151.836 129.902 151.252 129.904C150.437 129.907 149.622 129.903 148.806 129.898C148.446 129.901 148.446 129.901 148.08 129.904C146.65 129.888 145.675 129.691 144.434 128.906C143.346 127.704 143.072 126.726 143.149 125.15C143.377 123.865 144.04 123.064 145.042 122.273C146.232 121.719 147.268 121.749 148.565 121.756Z" fill="black"/>
<path d="M175.488 103.417C176.274 104.453 176.234 105.682 176.074 106.933C175.55 108.146 174.805 108.817 173.73 109.57C172.602 109.946 171.535 109.908 170.359 109.91C170.105 109.911 169.85 109.913 169.588 109.914C168.745 109.918 167.903 109.92 167.06 109.922C166.474 109.924 165.888 109.925 165.303 109.927C164.074 109.93 162.845 109.932 161.617 109.933C160.043 109.935 158.47 109.942 156.897 109.95C155.687 109.955 154.476 109.957 153.266 109.957C152.686 109.958 152.106 109.961 151.526 109.964C150.714 109.969 149.902 109.969 149.09 109.967C148.852 109.97 148.613 109.972 148.367 109.975C146.608 109.962 145.409 109.574 144.049 108.398C143.222 107.418 143.161 106.451 143.179 105.193C143.352 103.926 144.073 103.11 145.056 102.351C146.153 101.832 147.147 101.821 148.336 101.821C148.698 101.816 148.698 101.816 149.068 101.811C149.866 101.8 150.663 101.796 151.46 101.792C152.017 101.786 152.573 101.78 153.13 101.774C154.296 101.762 155.462 101.752 156.629 101.745C158.118 101.735 159.608 101.721 161.098 101.704C162.248 101.692 163.397 101.681 164.547 101.671C165.096 101.666 165.645 101.661 166.194 101.656C166.964 101.649 167.734 101.644 168.505 101.639C168.729 101.637 168.952 101.634 169.183 101.632C173.77 101.615 173.77 101.615 175.488 103.417Z" fill="black"/>
</svg>
