<svg width="300" height="300" viewBox="0 0 300 300" fill="none" xmlns="http://www.w3.org/2000/svg">
<path d="M160.11 59.3648C160.771 59.8642 161.393 60.3875 162.012 60.9373C162.192 61.0834 162.373 61.2296 162.558 61.3801C165.649 64.1008 166.704 68.3227 167.064 72.2612C167.117 74.1429 166.876 76.0202 166.694 77.8905C166.666 78.1762 166.639 78.4619 166.611 78.7562C166.543 79.4572 166.475 80.1582 166.407 80.8591C166.762 80.8325 167.117 80.8059 167.483 80.7784C188.322 79.2291 188.322 79.2291 193.252 83.2452C198.01 87.4137 200.872 92.3114 201.845 98.5563C201.895 98.8783 201.946 99.2003 201.998 99.5321C202.522 102.934 202.903 106.348 203.264 109.77C203.336 110.442 203.408 111.114 203.481 111.786C203.671 113.556 203.859 115.328 204.047 117.099C204.244 118.953 204.442 120.806 204.64 122.66C204.984 125.88 205.326 129.102 205.667 132.323C205.897 134.495 206.13 136.666 206.364 138.838C207.546 149.789 208.538 160.759 209.542 171.727C209.668 173.095 209.793 174.462 209.918 175.829C209.965 176.334 209.965 176.334 210.012 176.848C210.4 181.084 210.798 185.318 211.213 189.55C211.288 190.316 211.363 191.081 211.437 191.847C211.485 192.337 211.533 192.828 211.581 193.318C211.604 193.554 211.627 193.79 211.65 194.034C211.761 195.165 211.872 196.297 211.987 197.428C212.766 205.136 212.766 205.136 212.785 208.989C212.787 209.237 212.789 209.485 212.79 209.74C212.753 213.144 211.868 216.355 210.022 219.232C206.725 222.315 202.688 223.645 198.301 224.254C197.898 224.313 197.494 224.373 197.09 224.433C196.225 224.562 195.359 224.688 194.492 224.812C193.096 225.012 191.7 225.218 190.304 225.426C190.065 225.461 189.827 225.497 189.581 225.533C189.092 225.606 188.604 225.679 188.116 225.751C187.368 225.862 186.62 225.973 185.873 226.083C180.768 226.837 175.671 227.644 170.575 228.456C169.362 228.65 168.148 228.842 166.934 229.035C163.255 229.619 159.576 230.205 155.897 230.791C145.702 232.415 135.507 234.035 125.3 235.578C124.447 235.707 123.594 235.837 122.742 235.968C121.571 236.148 120.4 236.324 119.228 236.499C118.719 236.577 118.719 236.577 118.2 236.658C112.317 237.525 112.317 237.525 109.864 235.84C109.278 235.254 109.278 235.254 109.062 234.431C108.595 233.25 107.879 232.728 106.879 232.013C106.506 231.733 106.134 231.453 105.762 231.172C105.473 230.953 105.473 230.953 105.177 230.73C104.198 229.968 103.269 229.151 102.338 228.332C101.09 227.238 99.8363 226.157 98.5479 225.11C93.6131 221.097 89.5858 217.605 88.4771 210.937C88.4328 210.131 88.4093 209.351 88.4177 208.547C88.4191 208.319 88.4205 208.091 88.422 207.856C88.4586 205.083 88.7053 202.328 88.9509 199.566C89.0021 198.97 89.0531 198.373 89.1039 197.777C89.2136 196.493 89.3245 195.208 89.4362 193.924C89.7448 190.376 90.0434 186.826 90.3425 183.277C90.374 182.903 90.4055 182.53 90.438 182.145C91.1623 173.553 91.8303 164.956 92.4873 156.358C92.5787 155.163 92.6703 153.967 92.7619 152.771C93.3653 144.895 93.9631 137.019 94.5542 129.142C94.577 128.837 94.577 128.837 94.6003 128.527C94.6231 128.223 94.6231 128.223 94.6464 127.913C94.7524 126.5 94.8588 125.087 94.9653 123.675C94.9801 123.478 94.9949 123.282 95.0102 123.079C95.0841 122.099 95.158 121.12 95.232 120.14C95.4012 117.896 95.5688 115.652 95.7351 113.408C95.8381 112.022 95.9426 110.636 96.0474 109.25C96.095 108.618 96.1419 107.986 96.1881 107.354C96.4283 104.074 96.7221 100.808 97.1226 97.5442C97.158 97.2522 97.1935 96.9601 97.23 96.6593C97.7107 92.8964 98.8253 89.1536 101.825 86.5903C105.595 84.2054 110.292 84.3762 114.588 84.1733C115.569 84.1225 116.55 84.0703 117.531 84.0179C118.137 83.9861 118.743 83.9553 119.349 83.926C121.106 83.8393 122.856 83.7145 124.608 83.5564C125.725 83.47 126.835 83.4634 127.955 83.4775C128.266 83.4795 128.266 83.4795 128.584 83.4815C129.082 83.4849 129.58 83.4902 130.079 83.4958C130.083 83.2201 130.083 83.2201 130.087 82.9387C130.239 74.7818 131.446 67.8405 137.153 61.728C143.319 55.8262 152.861 54.6451 160.11 59.3648ZM143.262 62.6951C143.022 62.8291 142.783 62.9632 142.536 63.1013C138.684 65.4564 136.462 69.7334 135.277 73.9869C134.646 76.925 134.378 79.9072 134.473 82.9099C135.346 83.3464 136.076 83.1738 137.046 83.1063C137.353 83.0857 137.353 83.0857 137.666 83.0646C138.345 83.0184 139.025 82.9699 139.704 82.9214C140.179 82.8886 140.654 82.8561 141.128 82.8237C142.383 82.7376 143.638 82.6495 144.893 82.561C146.154 82.4725 147.414 82.3857 148.675 82.2988C150.1 82.2004 151.525 82.1019 152.951 82.0021C153.169 81.9868 153.387 81.9716 153.612 81.9559C154.038 81.9259 154.464 81.8957 154.891 81.8651C155.929 81.7911 156.966 81.7244 158.005 81.6711C158.308 81.6545 158.308 81.6545 158.617 81.6375C159.167 81.6077 159.717 81.5806 160.267 81.5537C161.187 81.5038 161.187 81.5038 162.012 80.8591C162.182 80.2167 162.182 80.2167 162.208 79.4595C162.236 79.0251 162.236 79.0251 162.264 78.5819C162.335 76.9417 162.383 75.3049 162.397 73.6631C162.405 73.3249 162.414 72.9867 162.423 72.6383C162.446 69.4471 161.617 66.7866 159.376 64.4529C156.179 61.5693 152.258 60.9364 148.096 61.0986C146.296 61.2332 144.821 61.7987 143.262 62.6951ZM169.741 85.2111C168.584 85.2903 167.427 85.3668 166.271 85.4436C164.316 85.5739 162.361 85.7058 160.407 85.839C157.73 86.0213 155.053 86.2006 152.376 86.3793C142.774 87.0204 133.174 87.6814 123.575 88.3607C122.899 88.4084 122.224 88.4559 121.548 88.5032C120.498 88.5768 119.448 88.6513 118.398 88.7264C117.834 88.7666 117.269 88.8061 116.705 88.8455C116.368 88.8698 116.031 88.8941 115.683 88.9192C115.392 88.9399 115.101 88.9606 114.801 88.9819C113.927 89.0659 113.072 89.2012 112.208 89.3552C112.628 90.5257 113.197 91.5756 113.798 92.6598C114.936 94.7322 115.97 96.7998 116.73 99.0415C116.795 99.227 116.86 99.4125 116.927 99.6036C118.361 104.096 118.433 108.599 118.4 113.265C118.379 119.29 118.689 124.279 121.29 129.785C121.563 130.406 121.836 131.027 122.109 131.649C124.984 138.126 124.984 138.126 130.408 142.364C135.659 144.126 142.215 142.771 147.642 142.347C148.783 142.258 149.925 142.171 151.066 142.084C152.985 141.937 154.904 141.789 156.823 141.64C159.017 141.469 161.211 141.301 163.405 141.134C165.542 140.971 167.679 140.807 169.816 140.642C170.712 140.573 171.609 140.504 172.505 140.436C176.913 140.099 181.319 139.742 185.719 139.312C186.059 139.28 186.399 139.249 186.75 139.216C190.991 138.785 194.186 137.849 197.021 134.548C201.479 129.011 199.835 121.13 199.228 114.586C199.128 113.507 199.033 112.428 198.938 111.349C198.648 108.089 198.325 104.835 197.893 101.59C197.86 101.336 197.826 101.082 197.792 100.82C197.003 95.178 194.654 90.2733 190.174 86.6086C187.847 85.0147 185.409 84.4798 182.628 84.5576C182.179 84.5641 182.179 84.5641 181.721 84.5708C177.722 84.6525 173.73 84.9362 169.741 85.2111ZM103.843 90.8578C101.13 94.3604 101.207 99.3565 100.913 103.564C100.872 104.131 100.831 104.698 100.79 105.264C100.703 106.466 100.616 107.668 100.531 108.87C100.307 112.017 100.076 115.164 99.8445 118.311C99.8217 118.622 99.7989 118.933 99.7754 119.254C99.4055 124.294 98.9983 129.329 98.5479 134.363C98.0185 140.304 97.5516 146.248 97.1197 152.197C97.0889 152.62 97.0581 153.043 97.0274 153.466C96.8737 155.58 96.7206 157.695 96.5678 159.809C96.2937 163.6 96.0184 167.391 95.7354 171.182C95.7062 171.574 95.677 171.966 95.6478 172.357C95.2647 177.507 94.8398 182.651 94.3742 187.794C94.3507 188.055 94.3271 188.316 94.3029 188.584C94.0709 191.155 93.837 193.726 93.5948 196.296C92.2318 205.296 92.2318 205.296 94.0435 213.867C94.1745 214.121 94.3056 214.376 94.4406 214.638C95.3597 216.289 96.4455 217.591 97.8521 218.847C98.4336 217.866 98.541 217.054 98.6118 215.922C98.6356 215.562 98.6593 215.202 98.6838 214.831C98.7076 214.433 98.7312 214.034 98.7549 213.635C98.7817 213.214 98.8088 212.793 98.836 212.372C98.9098 211.224 98.9804 210.075 99.0504 208.926C99.1254 207.705 99.2034 206.484 99.281 205.264C99.429 202.93 99.5744 200.597 99.7188 198.263C99.8944 195.428 100.073 192.593 100.252 189.758C100.442 186.737 100.632 183.717 100.821 180.697C101.116 175.966 101.414 171.237 101.723 166.508C101.751 166.077 101.779 165.646 101.807 165.215C101.937 163.229 102.067 161.242 102.199 159.256C102.245 158.561 102.29 157.865 102.336 157.17C102.357 156.861 102.378 156.551 102.399 156.233C102.503 154.639 102.561 153.062 102.54 151.465C103.893 151.368 105.247 151.271 106.641 151.172C106.616 151.544 106.592 151.917 106.566 152.301C105.424 169.448 104.289 186.595 103.193 203.745C103.126 204.803 103.058 205.861 102.989 206.918C102.883 208.577 102.777 210.236 102.671 211.894C102.633 212.5 102.594 213.105 102.555 213.711C102.502 214.536 102.45 215.361 102.398 216.186C102.382 216.423 102.367 216.66 102.351 216.905C102.034 220.138 102.034 220.138 103.418 222.949C106.194 225.971 106.194 225.971 109.571 228.222C110.319 213.135 111.008 198.047 111.637 182.954C111.833 178.256 112.037 173.558 112.244 168.86C112.982 152.127 113.688 135.399 113.965 118.652C113.971 118.306 113.977 117.96 113.984 117.603C114.014 115.816 114.039 114.029 114.052 112.241C114.055 111.76 114.06 111.279 114.066 110.798C114.146 103.418 111.676 96.1611 107.227 90.2341C106.909 89.857 106.909 89.857 106.147 89.8313C105.137 89.9456 104.59 90.1655 103.843 90.8578ZM117.774 133.008C117.767 133.228 117.76 133.449 117.752 133.677C117.277 148.365 116.695 163.047 116.063 177.729C116.034 178.4 116.006 179.07 115.977 179.741C115.589 188.786 115.195 197.831 114.763 206.873C114.735 207.467 114.706 208.061 114.678 208.655C114.564 211.04 114.449 213.426 114.329 215.811C114.051 221.322 113.894 226.805 113.965 232.324C116.744 232.153 119.475 231.816 122.226 231.396C122.673 231.329 123.12 231.261 123.568 231.194C124.804 231.008 126.041 230.82 127.277 230.631C128.072 230.51 128.867 230.389 129.662 230.269C142.57 228.311 155.464 226.259 168.358 224.209C168.992 224.108 169.626 224.008 170.26 223.907C170.679 223.84 171.099 223.774 171.518 223.707C171.725 223.674 171.932 223.641 172.145 223.607C173.381 223.411 174.618 223.214 175.854 223.016C179.892 222.371 183.931 221.736 187.975 221.135C188.572 221.046 189.169 220.957 189.766 220.867C189.96 220.838 190.153 220.809 190.353 220.779C190.544 220.75 190.736 220.721 190.933 220.691C192.394 220.472 193.856 220.257 195.318 220.046C201.312 219.341 201.312 219.341 206.251 216.211C208.985 211.979 208.449 206.949 208.006 202.149C207.975 201.792 207.944 201.434 207.911 201.066C207.825 200.095 207.738 199.124 207.649 198.153C207.555 197.112 207.463 196.072 207.37 195.031C207.213 193.27 207.055 191.508 206.896 189.747C206.736 187.981 206.578 186.215 206.42 184.449C206.401 184.235 206.382 184.021 206.363 183.801C206.344 183.587 206.325 183.374 206.305 183.154C205.356 172.5 204.359 161.852 203.316 151.207C202.809 146.021 202.332 140.833 201.856 135.644C201.105 136.389 200.395 137.142 199.714 137.951C195.456 142.813 190.221 143.372 184.095 143.811C183.453 143.859 182.812 143.908 182.17 143.957C180.782 144.062 179.394 144.166 178.005 144.268C175.302 144.468 172.599 144.677 169.897 144.885C169.494 144.916 169.092 144.948 168.69 144.979C168.49 144.994 168.29 145.009 168.084 145.025C166.662 145.135 165.239 145.243 163.817 145.351C160.09 145.634 156.364 145.925 152.641 146.252C147.115 146.733 141.617 147.178 136.066 147.18C135.849 147.18 135.633 147.181 135.409 147.182C131.203 147.18 127.33 146.668 124.128 143.646C121.341 140.579 119.78 136.73 118.067 133.008C117.97 133.008 117.874 133.008 117.774 133.008Z" fill="black"/>
<path d="M195.997 148.828C196.441 149.716 196.43 150.665 196.51 151.642C196.54 151.99 196.54 151.99 196.571 152.345C196.638 153.123 196.704 153.901 196.769 154.679C196.817 155.231 196.864 155.783 196.911 156.335C197.039 157.826 197.166 159.317 197.292 160.808C197.37 161.735 197.448 162.662 197.527 163.589C197.74 166.098 197.953 168.608 198.164 171.118C198.457 174.586 198.754 178.053 199.057 181.519C199.207 183.231 199.355 184.943 199.501 186.655C199.597 187.784 199.695 188.912 199.796 190.04C200.999 203.523 200.999 203.523 199.219 207.129C197.991 208.318 196.992 208.854 195.302 209.167C194.965 209.236 194.965 209.236 194.622 209.306C193.812 209.467 193.001 209.617 192.188 209.766C191.869 209.824 191.551 209.883 191.222 209.944C188.643 210.416 186.059 210.866 183.475 211.314C182.314 211.515 181.152 211.718 179.99 211.921C178.483 212.184 176.975 212.447 175.467 212.709C171.622 213.379 167.778 214.054 163.934 214.73C162.009 215.069 160.084 215.408 158.159 215.746C156.587 216.023 155.014 216.3 153.442 216.577C151.948 216.84 150.454 217.103 148.959 217.365C148.41 217.462 147.862 217.558 147.313 217.655C144.535 218.146 141.754 218.622 138.967 219.059C138.62 219.116 138.62 219.116 138.265 219.174C134.047 219.82 130.127 219.293 126.563 216.797C123.378 214.099 122.906 210.497 122.532 206.542C122.265 203.218 122.155 199.879 122.014 196.547C121.976 195.669 121.936 194.79 121.896 193.912C121.693 189.43 121.51 184.956 121.583 180.469C123.081 180.248 124.467 180.149 125.977 180.176C126.22 182.811 126.367 185.446 126.481 188.089C126.499 188.506 126.518 188.922 126.537 189.339C126.585 190.428 126.633 191.517 126.681 192.606C126.966 199.307 126.966 199.307 127.303 206.005C127.322 206.357 127.341 206.708 127.361 207.07C127.621 210.114 127.621 210.114 129.273 212.567C130.699 213.59 132.164 214.133 133.887 214.453C133.867 214.181 133.847 213.909 133.826 213.629C133.167 204.818 132.564 196.003 131.973 187.187C131.87 185.646 131.766 184.106 131.662 182.565C130.671 167.887 130.671 167.887 130.3 161.663C130.288 161.464 130.276 161.264 130.263 161.059C130.019 157.014 130.019 157.014 130.079 155.273C130.372 154.98 130.372 154.98 131.287 154.942C131.662 154.942 132.037 154.943 132.423 154.944C132.797 154.943 133.172 154.942 133.558 154.942C134.473 154.98 134.473 154.98 134.766 155.273C134.815 155.677 134.844 156.084 134.865 156.49C134.88 156.759 134.895 157.028 134.911 157.304C134.934 157.761 134.934 157.761 134.959 158.226C134.997 158.918 135.036 159.611 135.075 160.303C135.096 160.685 135.117 161.067 135.139 161.461C135.258 163.626 135.384 165.79 135.512 167.955C135.527 168.203 135.542 168.451 135.557 168.706C136.078 177.453 136.689 186.194 137.284 194.935C137.33 195.614 137.376 196.293 137.422 196.973C137.805 202.604 138.189 208.236 138.575 213.867C140.656 213.54 142.737 213.212 144.818 212.884C145.784 212.732 146.751 212.58 147.718 212.427C153.038 211.591 158.355 210.742 163.659 209.813C164.201 209.718 164.743 209.623 165.285 209.529C165.746 209.448 165.746 209.448 166.217 209.366C167.481 209.146 168.746 208.926 170.011 208.706C172.901 208.203 175.79 207.7 178.679 207.195C179.474 207.057 180.268 206.918 181.063 206.78C182.332 206.559 183.6 206.337 184.869 206.115C185.341 206.033 185.812 205.95 186.284 205.868C187.561 205.646 188.837 205.42 190.112 205.188C190.529 205.113 190.945 205.04 191.362 204.968C191.977 204.861 192.591 204.749 193.205 204.637C193.56 204.574 193.914 204.51 194.28 204.445C195.206 204.271 195.206 204.271 195.704 203.32C196.027 200.552 195.541 197.603 195.317 194.831C195.276 194.309 195.234 193.787 195.193 193.265C195.083 191.865 194.971 190.466 194.858 189.066C194.765 187.901 194.672 186.737 194.58 185.572C194.106 179.596 193.622 173.62 193.125 167.646C193.084 167.147 193.043 166.648 193.001 166.15C192.827 164.046 192.651 161.942 192.472 159.838C192.4 158.986 192.329 158.133 192.258 157.281C192.21 156.708 192.16 156.136 192.111 155.563C191.948 153.606 191.852 151.672 191.895 149.707C193.24 149.227 194.558 148.828 195.997 148.828Z" fill="black"/>
<path d="M105.176 112.207C105.854 112.248 106.531 112.291 107.209 112.335C107.775 112.371 107.775 112.371 108.352 112.407C109.278 112.5 109.278 112.5 109.571 112.793C109.564 113.346 109.535 113.898 109.498 114.449C109.474 114.805 109.451 115.161 109.427 115.528C109.399 115.923 109.371 116.319 109.343 116.714C109.315 117.124 109.288 117.533 109.26 117.943C109.171 119.254 109.078 120.565 108.985 121.875C108.97 122.088 108.955 122.3 108.939 122.519C108.742 125.28 108.538 128.041 108.331 130.802C108.249 131.894 108.168 132.987 108.087 134.08C108.023 134.939 107.959 135.798 107.895 136.657C107.864 137.061 107.834 137.464 107.805 137.868C107.649 139.964 107.477 142.053 107.227 144.141C105.874 144.237 104.52 144.334 103.126 144.434C103.06 140.949 103.315 137.509 103.574 134.037C103.62 133.405 103.666 132.773 103.712 132.142C103.832 130.491 103.954 128.84 104.076 127.19C104.201 125.501 104.324 123.812 104.447 122.123C104.689 118.817 104.932 115.512 105.176 112.207Z" fill="black"/>
</svg>
