<svg width="300" height="300" viewBox="0 0 300 300" fill="none" xmlns="http://www.w3.org/2000/svg">
<path d="M97.241 87.8525C97.6198 87.8515 97.9987 87.8506 98.389 87.8496C98.8149 87.8501 99.2408 87.8505 99.6667 87.851C100.115 87.8505 100.563 87.8498 101.011 87.849C102.248 87.8472 103.486 87.8472 104.723 87.8476C106.056 87.8476 107.388 87.846 108.72 87.8446C111.332 87.8422 113.945 87.8414 116.557 87.8412C118.679 87.8411 120.802 87.8405 122.924 87.8396C128.934 87.837 134.944 87.8356 140.954 87.8359C141.278 87.8359 141.603 87.8359 141.937 87.8359C142.261 87.8359 142.586 87.8359 142.921 87.8359C148.186 87.836 153.451 87.8332 158.717 87.8291C164.116 87.8249 169.516 87.8229 174.915 87.8231C177.95 87.8232 180.984 87.8224 184.018 87.8193C186.601 87.8166 189.184 87.816 191.767 87.818C193.086 87.8189 194.405 87.8189 195.724 87.8164C196.93 87.8141 198.136 87.8145 199.342 87.8171C199.78 87.8175 200.218 87.817 200.655 87.8153C201.247 87.8133 201.839 87.8152 202.431 87.8173C202.761 87.8172 203.091 87.8171 203.431 87.8171C204.2 87.8902 204.2 87.8902 204.786 88.4761C204.859 89.191 204.859 89.191 204.859 90.1122C204.861 90.6372 204.861 90.6372 204.863 91.1728C204.862 91.5647 204.86 91.9565 204.859 92.3484C204.859 92.762 204.86 93.1756 204.861 93.5892C204.863 94.7297 204.861 95.8701 204.858 97.0106C204.857 98.239 204.858 99.4674 204.859 100.696C204.86 103.104 204.859 105.512 204.856 107.92C204.853 110.721 204.853 113.522 204.853 116.323C204.853 121.32 204.851 126.316 204.846 131.312C204.842 136.166 204.84 141.02 204.84 145.873C204.84 146.172 204.84 146.471 204.84 146.779C204.84 147.078 204.841 147.376 204.841 147.684C204.841 153.202 204.839 158.72 204.836 164.238C204.835 166.193 204.835 168.148 204.835 170.103C204.835 172.483 204.834 174.864 204.831 177.244C204.829 178.46 204.829 179.676 204.829 180.892C204.829 182.003 204.828 183.114 204.826 184.225C204.826 184.629 204.826 185.033 204.826 185.436C204.827 185.982 204.825 186.527 204.824 187.072C204.824 187.376 204.823 187.68 204.823 187.993C204.786 188.671 204.786 188.671 204.493 188.964C203.989 188.993 203.484 189 202.979 189C202.65 189 202.322 189 201.984 189.001C201.621 189 201.257 188.999 200.883 188.998C200.313 188.998 200.313 188.998 199.731 188.998C198.686 188.998 197.641 188.996 196.595 188.994C195.504 188.992 194.413 188.992 193.321 188.992C191.254 188.991 189.186 188.988 187.118 188.985C184.764 188.982 182.411 188.981 180.057 188.979C175.214 188.976 170.371 188.971 165.528 188.964C165.528 191.285 165.528 193.605 165.528 195.996C166.592 196.189 167.655 196.382 168.751 196.582C169.564 196.885 170.278 197.177 171.04 197.57C171.237 197.671 171.434 197.771 171.637 197.875C176.406 200.436 179.815 204.791 183.042 209.019C183.377 209.444 183.737 209.85 184.099 210.254C184.255 210.479 184.411 210.705 184.571 210.937C184.475 211.324 184.378 211.71 184.278 212.109C161.559 212.109 138.839 212.109 115.431 212.109C115.726 210.631 115.924 210.271 116.859 209.179C117.098 208.898 117.336 208.617 117.582 208.328C117.773 208.106 117.773 208.106 117.968 207.88C118.364 207.417 118.752 206.949 119.139 206.478C122.899 201.922 127.262 197.254 133.302 195.996C133.688 195.996 134.075 195.996 134.474 195.996C134.474 193.675 134.474 191.355 134.474 188.964C133.986 188.965 133.499 188.966 132.996 188.966C128.413 188.972 123.831 188.977 119.248 188.98C116.891 188.981 114.535 188.983 112.178 188.986C110.125 188.989 108.072 188.991 106.019 188.992C104.931 188.992 103.844 188.993 102.756 188.995C101.544 188.998 100.331 188.998 99.1192 188.998C98.7559 188.999 98.3926 189 98.0183 189.001C97.5259 189 97.5259 189 97.0236 189C96.7365 189 96.4495 189 96.1537 189C95.5091 188.964 95.5091 188.964 95.2161 188.671C95.1873 188.137 95.1794 187.602 95.1793 187.067C95.1785 186.716 95.1777 186.366 95.177 186.005C95.1776 185.611 95.1782 185.217 95.1789 184.823C95.1786 184.409 95.1781 183.994 95.1776 183.58C95.1763 182.435 95.1769 181.291 95.1778 180.146C95.1785 178.914 95.1775 177.682 95.1767 176.45C95.1754 174.034 95.1757 171.618 95.1765 169.202C95.1772 167.239 95.1773 165.276 95.1769 163.314C95.1769 163.035 95.1768 162.756 95.1768 162.469C95.1767 161.903 95.1766 161.337 95.1765 160.77C95.1757 155.454 95.1766 150.138 95.1782 144.822C95.1795 140.256 95.1793 135.689 95.1779 131.122C95.1764 125.826 95.1758 120.53 95.1767 115.233C95.1768 114.669 95.1768 114.105 95.1769 113.541C95.177 113.263 95.177 112.986 95.1771 112.7C95.1773 110.738 95.1769 108.777 95.1762 106.815C95.1754 104.427 95.1756 102.038 95.1772 99.6493C95.1779 98.4293 95.1782 97.2094 95.1773 95.9894C95.1764 94.8745 95.1769 93.7595 95.1784 92.6446C95.1788 92.2394 95.1786 91.8343 95.1779 91.4292C95.177 90.882 95.1781 90.3349 95.1793 89.7877C95.1793 89.4827 95.1794 89.1778 95.1794 88.8635C95.2517 87.5244 96.0835 87.8532 97.241 87.8525ZM99.6107 92.2847C99.6107 122.739 99.6107 153.193 99.6107 184.57C132.868 184.57 166.126 184.57 200.392 184.57C200.392 154.116 200.392 123.662 200.392 92.2847C167.134 92.2847 133.876 92.2847 99.6107 92.2847ZM138.868 188.964C138.868 191.188 138.868 193.412 138.868 195.703C146.216 195.703 153.563 195.703 161.134 195.703C161.134 193.479 161.134 191.255 161.134 188.964C153.786 188.964 146.438 188.964 138.868 188.964ZM123.634 207.421C123.634 207.518 123.634 207.615 123.634 207.714C141.036 207.714 158.438 207.714 176.368 207.714C176.078 207.134 176.078 207.134 175.782 206.543C175.589 206.543 175.396 206.543 175.196 206.543C175.127 206.376 175.057 206.209 174.986 206.037C173.485 203.374 170.15 201.358 167.284 200.52C165.621 200.077 164.082 199.971 162.368 199.979C162.07 199.977 161.772 199.975 161.465 199.973C160.492 199.967 159.518 199.969 158.544 199.97C157.861 199.969 157.178 199.967 156.494 199.966C155.066 199.963 153.638 199.964 152.21 199.967C150.388 199.97 148.565 199.964 146.743 199.955C145.333 199.95 143.923 199.95 142.513 199.952C141.841 199.952 141.17 199.95 140.498 199.946C132.999 199.911 128.743 201.857 123.634 207.421Z" fill="black"/>
<path d="M120.04 101.032C120.803 101.031 121.567 101.03 122.33 101.029C124.181 101.027 126.031 101.026 127.882 101.026C129.386 101.025 130.89 101.025 132.393 101.024C136.661 101.021 140.929 101.02 145.197 101.02C145.541 101.02 145.541 101.02 145.892 101.02C146.122 101.02 146.351 101.02 146.588 101.02C150.32 101.02 154.052 101.018 157.784 101.013C161.621 101.009 165.457 101.007 169.293 101.007C171.446 101.008 173.598 101.007 175.75 101.004C177.771 101.001 179.791 101.001 181.812 101.003C182.555 101.003 183.297 101.002 184.04 101.001C185.051 100.998 186.062 101 187.073 101.002C187.369 101.001 187.665 100.999 187.97 100.997C188.241 100.999 188.511 101 188.79 101.002C189.023 101.002 189.256 101.001 189.497 101.001C190.136 101.074 190.136 101.074 191.308 101.66C191.308 126.024 191.308 150.387 191.308 175.489C190.602 175.841 190.163 175.819 189.375 175.819C188.946 175.821 188.946 175.821 188.509 175.822C188.193 175.822 187.878 175.821 187.552 175.821C187.218 175.821 186.884 175.822 186.54 175.823C185.611 175.824 184.681 175.824 183.752 175.824C182.75 175.824 181.749 175.826 180.748 175.827C178.785 175.829 176.822 175.83 174.86 175.83C173.265 175.831 171.671 175.831 170.076 175.832C165.559 175.835 161.042 175.836 156.526 175.836C156.282 175.836 156.038 175.836 155.787 175.836C155.543 175.836 155.299 175.836 155.048 175.836C151.092 175.836 147.136 175.838 143.179 175.843C139.121 175.847 135.063 175.849 131.005 175.849C128.725 175.848 126.445 175.849 124.165 175.852C122.224 175.855 120.283 175.856 118.343 175.854C117.352 175.853 116.361 175.853 115.37 175.855C114.298 175.858 113.225 175.856 112.153 175.854C111.679 175.856 111.679 175.856 111.196 175.859C110.91 175.857 110.625 175.856 110.33 175.854C110.083 175.854 109.835 175.855 109.58 175.855C108.983 175.782 108.983 175.782 108.397 175.196C108.324 174.652 108.324 174.652 108.324 173.976C108.323 173.719 108.322 173.462 108.32 173.197C108.322 172.912 108.323 172.628 108.325 172.335C108.324 172.035 108.324 171.734 108.323 171.425C108.321 170.411 108.324 169.397 108.326 168.383C108.326 167.659 108.325 166.935 108.325 166.211C108.323 164.445 108.325 162.678 108.327 160.912C108.33 158.857 108.33 156.802 108.33 154.747C108.33 151.081 108.333 147.415 108.337 143.75C108.341 140.189 108.343 136.629 108.343 133.068C108.343 132.849 108.343 132.629 108.343 132.403C108.343 132.184 108.343 131.965 108.343 131.74C108.343 127.691 108.345 123.643 108.347 119.594C108.348 118.16 108.348 116.726 108.349 115.292C108.349 113.364 108.351 111.435 108.354 109.507C108.354 108.797 108.355 108.087 108.355 107.377C108.354 106.413 108.356 105.448 108.358 104.483C108.358 104.199 108.357 103.914 108.357 103.62C108.358 103.236 108.358 103.236 108.36 102.843C108.36 102.62 108.36 102.397 108.36 102.168C108.397 101.66 108.397 101.66 108.69 101.367C112.408 100.799 116.293 101.031 120.04 101.032ZM112.792 105.762C112.792 127.418 112.792 149.074 112.792 171.387C137.252 171.387 161.712 171.387 186.913 171.387C186.913 149.731 186.913 128.074 186.913 105.762C162.453 105.762 137.993 105.762 112.792 105.762Z" fill="black"/>
</svg>
