<svg width="300" height="300" viewBox="0 0 300 300" fill="none" xmlns="http://www.w3.org/2000/svg">
<path d="M105.262 29.5431C121.066 29.1248 135.655 35.4407 149.122 43.0666C149.351 43.1958 149.58 43.3251 149.816 43.4582C151.26 44.279 152.685 45.1291 154.102 45.9963C154.367 46.1582 154.632 46.3201 154.905 46.4869C158.683 48.804 162.39 51.2007 166.027 53.7328C166.714 54.2089 167.404 54.6798 168.096 55.1492C173.17 58.5924 178.094 62.2081 182.958 65.9417C183.645 66.4681 184.334 66.9919 185.024 67.5146C187.646 69.5028 190.221 71.5403 192.763 73.63C193.38 74.1374 193.998 74.6432 194.617 75.1489C197.086 77.1712 199.527 79.2221 201.942 81.3084C202.451 81.7462 202.962 82.181 203.474 82.6151C205.369 84.2231 207.226 85.8608 209.043 87.5556C209.85 88.3081 210.664 89.0453 211.506 89.7585C213.207 91.2269 214.759 92.8613 216.338 94.4578C217.309 95.4391 218.288 96.4122 219.274 97.3779C221.195 99.2661 223.033 101.148 224.701 103.266C225.286 103.995 225.902 104.675 226.539 105.359C228.239 107.228 229.738 109.25 231.254 111.269C231.722 111.891 232.191 112.512 232.661 113.133C235.85 117.351 238.861 121.662 241.772 126.076C242.101 126.575 242.431 127.074 242.761 127.572C256.738 148.664 273.93 175.574 271.053 211.714C267.553 228.014 256.846 241.726 243.751 251.66C243.552 251.812 243.354 251.964 243.15 252.12C238.392 255.733 233.28 258.808 227.882 261.366C227.351 261.618 226.824 261.877 226.296 262.136C212.996 268.613 196.673 271.899 181.934 270.117C182.049 269.749 182.164 269.38 182.282 269C182.725 267.509 183.152 266.014 183.564 264.514C183.625 264.3 183.687 264.085 183.75 263.865C184.805 259.958 184.976 255.959 184.956 251.935C184.955 251.713 184.955 251.49 184.954 251.261C184.939 247.434 184.691 243.71 183.985 239.942C183.933 239.664 183.882 239.387 183.828 239.101C183.059 235.107 182.039 231.205 180.763 227.344C180.682 227.097 180.601 226.85 180.517 226.596C176.007 213.052 168.47 200.428 159.669 189.258C159.377 188.886 159.377 188.886 159.079 188.506C157.604 186.641 156.069 184.827 154.526 183.019C154.11 182.529 153.699 182.035 153.29 181.54C151.379 179.249 149.343 177.127 147.199 175.052C146.992 174.85 146.785 174.648 146.572 174.44C146.293 174.171 146.293 174.171 146.008 173.896C145.606 173.438 145.606 173.438 145.606 172.852C145.316 172.755 145.026 172.658 144.727 172.559C144.275 172.09 144.275 172.09 143.794 171.497C142.925 170.472 142.01 169.611 140.987 168.744C140.199 168.046 139.46 167.303 138.722 166.553C137.643 165.461 136.544 164.415 135.376 163.418C134.64 162.781 133.926 162.122 133.21 161.463C131.904 160.271 130.562 159.143 129.186 158.033C128.194 157.22 127.223 156.386 126.252 155.548C124.627 154.149 122.977 152.789 121.29 151.465C120.991 151.229 120.692 150.993 120.384 150.75C119.32 149.911 118.255 149.076 117.188 148.242C116.976 148.077 116.764 147.911 116.546 147.74C114.019 145.765 111.486 143.801 108.912 141.887C108.3 141.43 107.688 140.97 107.077 140.511C102.651 137.182 98.2021 133.886 93.7044 130.654C92.0371 129.452 90.3926 128.222 88.752 126.984C86.7476 125.471 84.7203 124 82.6619 122.562C81.0678 121.445 79.5089 120.287 77.9565 119.112C76.4974 118.011 75.0209 116.936 73.536 115.869C71.6743 114.531 69.8305 113.173 67.9997 111.793C66.5012 110.664 64.9944 109.547 63.4835 108.435C63.2516 108.264 63.0196 108.094 62.7807 107.918C61.588 107.04 60.394 106.164 59.1988 105.289C56.5849 103.374 54.0021 101.431 51.4678 99.4123C50.9632 99.0124 50.4558 98.6164 49.9474 98.2214C42.4254 92.3735 34.5786 86.0103 32.9449 76.069C32.5901 73.1868 32.5589 70.3794 33.6922 67.6759C33.8033 67.4067 33.9143 67.1374 34.0287 66.86C36.0144 62.504 39.4918 59.0688 42.7743 55.6642C43.0163 55.4101 43.2584 55.1559 43.5078 54.894C45.1065 53.2496 46.8281 51.8027 48.6336 50.3908C48.8008 50.2582 48.968 50.1257 49.1403 49.9891C52.1207 47.6354 55.2443 45.6256 58.5348 43.7325C59.0992 43.4065 59.6589 43.0741 60.2173 42.7381C60.4976 42.5746 60.7778 42.4111 61.0665 42.2426C61.2957 42.1078 61.525 41.973 61.7611 41.834C62.7873 41.4627 63.5907 41.7698 64.5635 42.2078C64.8038 42.3379 65.0441 42.4679 65.2917 42.6019C65.5663 42.75 65.8409 42.8981 66.1238 43.0506C66.4187 43.213 66.7136 43.3754 67.0174 43.5426C67.3286 43.7131 67.6397 43.8836 67.9603 44.0593C74.8883 47.8859 81.8877 52.0127 88.1844 56.8361C87.8547 57.7263 87.5486 58.0457 86.7745 58.6305C85.3113 59.8133 84.5273 61.4144 84.2442 63.2608C84.1663 65.3297 84.5077 67.329 85.5477 69.1408C86.6341 70.1861 87.8848 70.7684 89.2464 71.3747C96.2671 74.6054 102.845 78.6386 109.419 82.6837C110.406 83.2908 111.396 83.8924 112.388 84.4919C112.677 84.6669 112.966 84.8419 113.263 85.0222C113.814 85.3555 114.365 85.6883 114.916 86.0204C119.187 88.6089 123.34 91.3874 127.494 94.1571C128.232 94.6487 128.97 95.1393 129.709 95.6299C132.507 97.4922 135.266 99.397 137.989 101.367C138.452 101.696 138.915 102.025 139.378 102.353C142.156 104.329 144.828 106.401 147.453 108.575C148.118 109.123 148.794 109.658 149.47 110.193C156.023 115.438 162.853 121.274 167.872 128.028C168.83 127.578 169.686 127.033 170.562 126.441C170.856 126.244 171.15 126.046 171.453 125.842C171.764 125.633 172.075 125.423 172.395 125.208C175.769 122.948 179.166 120.796 182.703 118.799C182.933 118.668 183.163 118.537 183.399 118.403C183.614 118.283 183.83 118.163 184.052 118.039C184.34 117.877 184.34 117.877 184.634 117.712C185.157 117.481 185.157 117.481 186.036 117.481C181.943 112.256 177.494 107.361 172.727 102.743C172.463 102.485 172.463 102.485 172.194 102.221C171.96 101.994 171.96 101.994 171.721 101.763C171.388 101.367 171.388 101.367 171.388 100.781C171.232 100.722 171.076 100.663 170.916 100.602C169.91 100.018 169.188 99.2156 168.385 98.3827C167.17 97.1458 165.953 95.9434 164.63 94.8213C163.974 94.26 163.343 93.6754 162.708 93.091C161.406 91.9159 160.053 90.8277 158.667 89.7545C157.745 89.0391 156.831 88.3159 155.933 87.5692C151.862 84.1847 147.526 81.2282 143.098 78.3327C142.817 78.1483 142.536 77.9639 142.246 77.7739C140.904 76.8995 139.556 76.0522 138.165 75.2577C135.435 73.6794 133.721 72.4562 132.347 69.586C131.456 67.7861 130.179 66.2898 128.907 64.7463C128.696 64.4902 128.486 64.2342 128.268 63.9704C121.861 56.5305 113.244 52.8023 103.576 52.0719C102.024 52.0194 100.677 52.0572 99.2016 52.556C95.8042 53.6624 95.8042 53.6624 94.2106 53.0442C92.6286 52.1416 91.24 50.9804 89.8344 49.8292C88.5487 48.8116 87.1811 47.9279 85.804 47.04C85.5267 46.8595 85.2495 46.679 84.9638 46.4931C80.2339 43.4434 75.3131 40.6685 70.3133 38.0861C70.9882 37.3189 71.5964 36.9855 72.5483 36.627C72.8235 36.5228 73.0986 36.4187 73.3821 36.3114C73.6806 36.2022 73.9791 36.0929 74.2867 35.9804C74.7543 35.808 74.7543 35.808 75.2314 35.6322C85.0446 32.0677 94.8434 30.0498 105.262 29.5431Z" fill="black"/>
<path d="M28.4186 88.1836C29.3525 89.0591 30.1561 89.9766 30.9454 90.9851C33.8612 94.6751 37.1505 98.0537 40.8288 100.982C41.3668 101.413 41.9001 101.85 42.433 102.287C44.7517 104.188 47.1009 106.03 49.5123 107.812C49.8704 108.082 50.2282 108.352 50.5858 108.622C52.6463 110.177 54.7204 111.709 56.8182 113.214C58.7674 114.613 60.6804 116.051 62.5796 117.516C64.2867 118.829 66.0262 120.092 67.776 121.346C69.2212 122.384 70.6511 123.439 72.0709 124.512C74.582 126.406 77.1333 128.243 79.6881 130.078C82.4293 132.047 85.1618 134.024 87.8568 136.056C89.3984 137.217 90.9503 138.365 92.5055 139.508C97.6624 143.302 102.757 147.18 107.826 151.091C108.417 151.546 109.01 152 109.604 152.452C111.993 154.274 114.329 156.156 116.654 158.059C117.124 158.444 117.596 158.828 118.068 159.211C119.969 160.758 121.847 162.331 123.711 163.922C124.053 164.213 124.395 164.504 124.737 164.795C127.569 167.203 130.29 169.714 132.985 172.275C133.756 173.005 134.535 173.726 135.314 174.447C138.12 177.047 140.918 179.671 143.397 182.59C143.869 183.129 144.363 183.63 144.874 184.131C145.961 185.204 146.956 186.34 147.95 187.5C148.209 187.799 148.468 188.097 148.727 188.396C149.647 189.459 150.558 190.529 151.465 191.602C151.621 191.784 151.776 191.967 151.935 192.156C154.373 195.046 156.555 198.059 158.648 201.206C159.04 201.791 159.437 202.371 159.839 202.948C165.156 210.644 169.096 219.158 172.266 227.93C172.364 228.195 172.462 228.461 172.562 228.735C174.633 234.398 176.093 240.376 176.661 246.387C176.693 246.691 176.725 246.996 176.758 247.31C177.342 253.604 177.683 261.459 173.438 266.602C171.888 268.3 170.215 269.091 167.931 269.321C157.979 269.624 147.278 264.853 139.454 258.984C139.217 258.813 138.979 258.641 138.735 258.464C135.381 255.926 132.376 252.76 129.782 249.458C129.201 248.732 128.588 248.056 127.955 247.375C126.074 245.308 124.43 243.054 122.755 240.82C122.464 240.435 122.174 240.049 121.884 239.663C121.158 238.699 120.435 237.732 119.713 236.766C119.205 236.087 118.695 235.41 118.186 234.732C116.364 232.309 114.551 229.88 112.757 227.435C110.989 225.028 109.186 222.651 107.364 220.285C106.967 219.77 106.573 219.252 106.179 218.734C104.697 216.791 103.176 214.887 101.63 212.995C100.576 211.704 99.5376 210.402 98.5114 209.088C96.4993 206.516 94.4255 203.999 92.3084 201.512C91.4777 200.535 90.6686 199.544 89.8688 198.541C88.3812 196.711 86.7563 195.015 85.1355 193.304C84.2809 192.402 83.4444 191.486 82.6178 190.558C81.7458 189.58 80.8447 188.647 79.9091 187.73C79.4342 187.247 78.9992 186.749 78.5632 186.231C77.0626 184.506 75.4321 182.907 73.8136 181.294C73.2623 180.745 72.7126 180.193 72.1631 179.642C70.5652 178.043 68.9705 176.461 67.2477 174.996C66.4892 174.345 65.8064 173.625 65.1129 172.906C64.541 172.351 63.9571 171.827 63.3551 171.304C61.9258 170.063 60.5544 168.764 59.1803 167.463C58.0205 166.368 56.8412 165.304 55.6372 164.259C54.6436 163.388 53.6814 162.485 52.7155 161.584C51.861 160.79 50.9965 160.011 50.1166 159.246C48.3223 157.682 46.5937 156.05 44.8703 154.41C44.4527 154.012 44.034 153.616 43.6143 153.22C31.669 141.924 29.2783 124.988 28.1256 109.277C28.1087 109.062 28.0917 108.846 28.0743 108.624C27.8209 105.311 27.803 101.996 27.796 98.6755C27.7952 98.4666 27.7945 98.2576 27.7936 98.0424C27.7711 90.1261 27.7711 90.1261 28.4186 88.1836ZM47.7545 120.996C46.8523 125.973 46.8523 125.973 47.8036 130.767C48.6546 131.943 49.7001 132.88 50.8172 133.799C51.3692 134.263 51.8217 134.775 52.2772 135.333C54.5042 137.908 56.8647 140.379 59.2535 142.804C59.5088 143.063 59.7641 143.323 60.0272 143.59C60.5801 144.206 60.5801 144.206 61.2311 144.141C61.2968 144.302 61.3625 144.463 61.4302 144.629C61.9374 145.525 62.5853 146.147 63.3185 146.869C63.5851 147.134 63.8517 147.398 64.1264 147.671C65.9097 149.384 67.8153 150.961 69.7272 152.527C69.9389 152.7 70.1506 152.874 70.3687 153.053C70.8101 153.415 71.2517 153.776 71.6934 154.138C72.3667 154.69 73.0378 155.245 73.7086 155.8C74.1331 156.149 74.5577 156.499 74.9823 156.848C75.1815 157.014 75.3807 157.179 75.586 157.35C76.4941 158.2 76.4941 158.2 77.6373 158.496C77.6483 157.996 77.6483 157.996 77.6596 157.486C77.6877 156.22 77.7169 154.953 77.7464 153.686C77.7589 153.143 77.7711 152.601 77.783 152.058C77.7946 151.531 77.8069 151.005 77.8198 150.478C77.8317 149.946 77.8405 149.415 77.8463 148.884C77.8681 147.526 77.9536 146.232 78.1811 144.892C78.5302 142.748 78.5302 142.748 78.2233 140.625C77.1543 139.235 75.495 138.525 73.9553 137.77C72.8105 137.18 71.7673 136.452 70.7068 135.725C70.2805 135.44 69.8538 135.156 69.4268 134.872C68.9898 134.58 68.5528 134.288 68.1158 133.997C67.8884 133.845 67.661 133.693 67.4267 133.537C64.2274 131.403 61.0413 129.252 57.8664 127.082C55.282 125.32 52.6653 123.61 50.0338 121.919C49.5643 121.616 49.0986 121.306 48.6334 120.996C48.3434 120.996 48.0533 120.996 47.7545 120.996ZM83.4967 145.02C83.2556 146.032 83.0188 147.045 82.7826 148.059C82.7152 148.342 82.6478 148.625 82.5783 148.916C81.8785 151.939 81.6595 154.846 81.7286 157.942C81.7389 159.082 81.7389 159.082 81.6302 159.966C81.5609 160.933 81.6088 161.423 82.0319 162.305C83.3042 163.627 84.8581 164.638 86.3672 165.668C87.2549 166.281 88.1019 166.934 88.9532 167.596C89.258 167.831 89.5628 168.065 89.8768 168.306C90.7211 168.961 91.5516 169.632 92.3815 170.305C94.7947 172.258 97.2859 174.083 99.8143 175.884C100.486 176.365 101.154 176.852 101.821 177.341C104.004 178.939 106.203 180.497 108.472 181.97C108.675 182.102 108.877 182.234 109.086 182.369C111.656 184.016 113.502 184.586 116.602 184.277C118.374 183.833 119.331 182.801 120.373 181.348C121.06 180.13 121.158 178.919 120.997 177.539C119.987 175.842 118.558 174.431 117.163 173.052C116.969 172.858 116.776 172.665 116.576 172.466C116.17 172.06 115.763 171.655 115.355 171.251C114.737 170.638 114.121 170.023 113.505 169.407C113.107 169.011 112.709 168.614 112.311 168.218C112.13 168.037 111.949 167.856 111.762 167.67C110.655 166.575 109.516 165.533 108.336 164.516C107.577 163.858 106.846 163.173 106.11 162.488C104.773 161.254 103.402 160.079 101.985 158.938C101.285 158.373 100.591 157.804 99.8995 157.23C97.5664 155.295 95.2179 153.394 92.801 151.563C92.2179 151.12 91.6372 150.674 91.0567 150.228C87.4992 146.95 87.4992 146.95 83.4967 145.02Z" fill="black"/>
<path d="M103.125 55.3711C103.457 55.3998 103.789 55.4285 104.131 55.4581C109.776 56.0989 115.292 58.2945 119.531 62.1094C119.781 62.3276 120.031 62.5459 120.288 62.7708C121.021 63.4198 121.742 64.0809 122.461 64.7461C122.722 64.9727 122.722 64.9727 122.987 65.2038C125.718 67.7007 127.63 71.1625 129.346 74.3957C129.466 74.6207 129.585 74.8457 129.709 75.0775C131.543 78.6345 131.543 78.6345 131.543 80.5664C130.93 81.0043 130.338 81.3743 129.684 81.7417C129.402 81.9057 129.402 81.9057 129.113 82.0729C128.509 82.4222 127.902 82.7669 127.295 83.1116C126.885 83.3472 126.476 83.5831 126.067 83.8194C125.062 84.3987 124.055 84.9738 123.047 85.5469C122.307 84.8326 121.804 84.1222 121.271 83.2397C120.034 81.2695 118.64 79.4486 117.188 77.6367C116.997 77.3974 116.997 77.3974 116.803 77.1533C110.711 69.5465 102.6 63.9848 93.0634 61.7752C92.0098 61.5276 90.9794 61.2425 89.9414 60.9375C91.4315 59.7021 93.0416 58.714 94.7023 57.7301C95.1955 57.4335 95.6809 57.1241 96.1658 56.8142C98.5575 55.371 100.363 55.0897 103.125 55.3711Z" fill="black"/>
<path d="M153.416 92.643C153.671 92.7754 153.926 92.9078 154.189 93.0442C154.456 93.1864 154.723 93.3285 154.999 93.475C155.274 93.6209 155.55 93.7668 155.834 93.9171C159.151 95.6948 162.063 97.7666 164.941 100.195C165.259 100.445 165.576 100.695 165.894 100.946C166.741 101.696 167.452 102.498 168.182 103.36C168.716 103.965 169.273 104.519 169.855 105.076C171.128 106.339 172.174 107.713 173.218 109.167C173.393 109.407 173.568 109.647 173.749 109.895C174.236 110.565 174.717 111.238 175.195 111.914C175.322 112.093 175.449 112.272 175.579 112.456C176.367 113.598 176.367 113.598 176.367 114.257C176.031 114.442 175.694 114.626 175.348 114.816C174.888 115.069 174.428 115.322 173.969 115.576C173.73 115.707 173.491 115.838 173.245 115.973C172.122 116.595 171.013 117.225 169.937 117.924C169.68 118.09 169.68 118.09 169.418 118.26C168.958 118.562 168.503 118.87 168.047 119.178C167.285 119.531 167.285 119.531 166.679 119.403C165.905 118.776 165.383 118.064 164.795 117.26C164.532 116.91 164.269 116.561 164.004 116.212C163.868 116.033 163.732 115.853 163.592 115.668C159.441 110.262 154.426 105.41 149.121 101.147C148.937 100.999 148.754 100.851 148.564 100.699C146.947 99.4142 145.261 98.2433 143.534 97.1122C143.043 96.7864 142.565 96.4417 142.09 96.0934C142.09 95.9 142.09 95.7067 142.09 95.5074C150.239 90.9887 150.239 90.9887 153.416 92.643Z" fill="black"/>
</svg>
