<svg width="300" height="300" viewBox="0 0 300 300" fill="none" xmlns="http://www.w3.org/2000/svg">
<path d="M231.626 100.637C236.255 105.038 239.876 110.105 242.872 115.722C243.031 116.014 243.191 116.305 243.355 116.605C245.483 120.642 246.919 125.034 247.852 129.492C247.918 129.794 247.985 130.095 248.053 130.406C248.494 132.843 248.498 135.28 248.512 137.75C248.514 138.098 248.517 138.446 248.52 138.805C248.512 140.938 248.317 142.936 247.852 145.019C247.491 144.903 247.129 144.786 246.756 144.666C238.223 141.966 229.119 141.395 220.313 143.261C220.072 143.312 219.83 143.362 219.582 143.414C206.951 146.125 195.712 153.073 185.157 160.254C184.571 160.645 183.986 161.035 183.399 161.426C183.125 161.608 182.851 161.791 182.569 161.979C181.983 162.37 181.396 162.76 180.81 163.151C178.875 164.437 176.95 165.737 175.031 167.047C150.18 183.964 150.18 183.964 141.798 188.965C141.556 189.11 141.314 189.254 141.066 189.404C124.337 199.382 107.948 201.578 88.9534 196.947C83.849 195.639 78.1511 194.161 73.8289 191.015C75.8556 185.212 80.2044 181.074 84.449 176.825C84.6152 176.658 84.7813 176.492 84.9525 176.32C86.6027 174.67 88.2562 173.036 90.0316 171.519C90.785 170.873 91.5051 170.195 92.231 169.519C92.8333 168.967 93.4384 168.419 94.0438 167.871C94.1904 167.737 94.3369 167.602 94.488 167.464C94.9087 167.081 95.3367 166.707 95.765 166.333C96.012 166.114 96.2589 165.895 96.5134 165.669C97.5024 165.098 97.9306 165.265 99.0242 165.527C103.043 165.764 106.354 165.4 109.571 162.89C109.871 162.66 110.172 162.43 110.481 162.193C112.553 160.592 114.581 158.935 116.61 157.279C118.064 156.094 119.534 154.931 121.013 153.776C122.335 152.741 123.638 151.682 124.935 150.614C125.638 150.038 126.346 149.468 127.058 148.901C128.138 148.04 129.211 147.171 130.282 146.298C132.159 144.768 134.048 143.254 135.956 141.763C137.253 140.747 138.528 139.707 139.8 138.66C140.713 137.917 141.639 137.192 142.567 136.468C144.362 135.067 146.119 133.623 147.872 132.169C149.154 131.109 150.453 130.078 151.777 129.071C152.079 128.839 152.381 128.606 152.692 128.367C153.203 127.975 153.715 127.586 154.231 127.202C155.998 125.802 156.809 124.25 157.142 122.018C157.254 119.784 156.548 117.709 155.201 115.924C152.851 113.627 150.218 112.759 146.961 112.683C142.457 112.787 139.068 114.358 135.645 117.187C135.2 117.542 134.755 117.896 134.309 118.249C133.217 119.124 132.131 120.006 131.047 120.89C127.284 123.956 127.284 123.956 125.431 125.379C124.578 126.036 123.758 126.707 122.965 127.438C120.584 129.574 118.56 130.209 115.425 130.7C108.777 131.766 102.898 136.351 99.0059 141.687C97.3791 143.976 96.1083 146.417 95.084 149.034C94.632 149.995 94.3357 150.363 93.4945 150.97C91.7505 152.409 90.8606 154.216 90.5282 156.445C90.4189 158.554 90.9355 160.391 92.3043 162.012C92.5859 162.31 92.8721 162.603 93.1649 162.89C93.3582 163.084 93.5516 163.277 93.7508 163.476C92.5533 164.708 91.3217 165.873 90.0223 166.995C88.6036 168.236 87.2246 169.521 85.8407 170.801C85.6639 170.964 85.4872 171.127 85.3051 171.295C80.537 175.685 80.537 175.685 76.1727 180.469C75.9869 180.687 75.8011 180.905 75.6096 181.13C73.6118 183.538 71.9749 186.152 70.6063 188.965C66.9616 186.986 63.9694 184.447 60.9383 181.64C60.7616 181.483 60.5848 181.325 60.4027 181.163C56.0582 177.113 52.4364 170.469 52.0897 164.503C51.9738 154.754 57.3372 146.483 63.9299 139.696C64.1029 139.519 64.2758 139.342 64.4539 139.16C64.6574 138.95 64.861 138.741 65.0706 138.525C67.5881 135.942 70.0999 133.464 72.95 131.25C73.2946 130.968 73.6382 130.685 73.9811 130.402C76.867 128.018 79.8419 125.769 82.844 123.535C83.6964 122.898 84.5405 122.25 85.3829 121.6C89.1396 118.701 92.8978 115.808 96.7568 113.046C98.4089 111.861 100.038 110.647 101.661 109.424C109.007 103.902 116.541 98.6282 124.513 94.0427C124.831 93.8564 124.831 93.8564 125.156 93.6664C137.937 86.1962 152.556 81.6123 167.286 80.2732C167.619 80.2407 167.952 80.2083 168.295 80.1748C191.051 78.2912 214.792 84.8992 231.626 100.637Z" fill="black"/>
<path d="M246.681 148.535C246.52 150.203 246.068 151.553 245.38 153.076C245.225 153.421 245.225 153.421 245.067 153.772C238.656 167.535 223.74 173.831 211.017 180.398C209.449 181.208 207.885 182.026 206.324 182.849C201.342 185.477 196.342 188.071 191.333 190.647C188.957 191.869 186.584 193.096 184.223 194.348C182.033 195.51 179.819 196.619 177.598 197.722C174.7 199.166 171.839 200.679 168.981 202.201C166.241 203.662 163.494 205.101 160.707 206.47C160.159 206.739 159.612 207.01 159.065 207.282C136.296 218.569 111.621 223.86 86.7592 215.935C76.8997 212.608 76.8997 212.608 75.6646 210.268C75.5173 209.721 75.5173 209.721 75.367 209.162C75.3116 208.96 75.2562 208.758 75.1991 208.551C75.0221 207.884 74.8629 207.215 74.7079 206.543C74.624 206.187 74.624 206.187 74.5385 205.823C72.7404 198.012 72.7404 198.012 73.536 195.117C75.0949 195.612 76.609 196.164 78.1146 196.803C94.4606 203.678 114.286 205.363 130.898 198.613C132.728 197.839 134.48 196.932 136.231 195.996C136.598 195.803 136.598 195.803 136.972 195.606C140.583 193.699 144.085 191.666 147.509 189.441C148.043 189.095 148.578 188.751 149.115 188.409C152.164 186.46 155.176 184.456 158.186 182.447C158.592 182.176 158.592 182.176 159.006 181.899C163.312 179.026 167.604 176.132 171.887 173.224C174.39 171.525 176.897 169.83 179.404 168.137C179.944 167.773 180.484 167.408 181.023 167.043C207.7 148.996 207.7 148.996 222.657 146.192C223.225 146.084 223.225 146.084 223.805 145.973C231.358 144.799 239.743 145.067 246.681 148.535Z" fill="black"/>
<path d="M152.032 117.682C153.032 118.641 153.591 119.623 153.809 120.996C153.726 122.722 153.235 123.439 151.978 124.603C151.422 125.069 150.86 125.526 150.293 125.976C150.142 126.097 149.99 126.217 149.834 126.341C149.176 126.864 148.516 127.383 147.852 127.898C146.44 128.995 145.059 130.126 143.683 131.268C142.147 132.539 140.605 133.798 139.032 135.022C138.73 135.257 138.428 135.492 138.118 135.734C137.402 136.23 137.402 136.23 136.816 136.23C136.745 136.018 136.674 135.806 136.601 135.587C135.668 132.894 134.667 130.931 132.129 129.492C130.78 128.939 129.418 128.468 128.027 128.027C129.05 126.98 130.111 126.003 131.232 125.061C131.396 124.923 131.56 124.784 131.729 124.642C133.425 123.222 135.157 121.851 136.908 120.501C137.388 120.128 137.864 119.749 138.34 119.37C142.204 116.346 147.662 114.298 152.032 117.682Z" fill="black"/>
<path d="M130.664 140.625C130.809 141.06 130.809 141.06 130.957 141.504C130.804 141.622 130.651 141.739 130.493 141.86C128.83 143.145 127.199 144.466 125.575 145.8C123.023 147.894 120.46 149.973 117.857 152.004C116.757 152.864 115.671 153.74 114.591 154.626C112.783 156.107 110.958 157.562 109.094 158.973C108.808 159.191 108.808 159.191 108.516 159.414C107.448 160.214 106.396 160.867 105.175 161.426C104.781 155.813 107.796 150.348 111.328 146.192C116.103 140.741 123.598 137.847 130.664 140.625Z" fill="black"/>
<path d="M53.0273 177.539C53.599 178.251 54.1683 178.964 54.7256 179.687C58.3068 184.235 62.723 188.74 67.9039 191.44C68.6693 191.841 69.3536 192.222 70.0195 192.773C70.2453 193.745 70.2718 194.176 70.1477 195.117C70.1165 195.583 70.0896 196.05 70.0665 196.517C70.0537 196.763 70.0409 197.01 70.0277 197.264C70.013 198.671 70.219 200.045 70.4224 201.434C70.4781 201.831 70.4781 201.831 70.535 202.236C70.7499 203.696 71.0264 205.118 71.4015 206.545C71.4958 207.209 71.3924 207.666 71.1914 208.301C70.6356 207.795 70.0802 207.288 69.5251 206.781C69.3697 206.64 69.2143 206.498 69.0542 206.352C68.081 205.463 67.1379 204.552 66.2109 203.613C66.0522 203.46 65.8935 203.306 65.7299 203.148C59.0186 196.613 53.8568 186.918 53.0273 177.539Z" fill="black"/>
</svg>
