<svg width="300" height="300" viewBox="0 0 300 300" fill="none" xmlns="http://www.w3.org/2000/svg">
<path d="M116.131 115.414C116.912 115.441 116.912 115.441 117.759 115.373C120.782 115.32 122.743 116.821 124.913 118.766C125.927 119.769 126.556 120.887 127.148 122.168C127.374 122.537 127.374 122.537 127.605 122.913C128.577 124.569 128.771 126.151 128.32 128.027C127.734 128.613 127.734 128.613 126.912 128.727C125.73 128.584 125.339 128.208 124.493 127.387C124.24 127.144 123.987 126.902 123.726 126.652C123.502 126.429 123.278 126.206 123.047 125.977C122.793 125.729 122.539 125.481 122.278 125.226C121.869 124.807 121.466 124.382 121.077 123.944C119.377 122.105 117.576 120.997 115.027 120.85C110.866 121.097 107.128 123.656 104.297 126.563C103.652 127.084 102.993 127.577 102.329 128.073C101.561 128.693 100.889 129.377 100.195 130.078C99.6721 130.55 99.1471 131.02 98.6206 131.488C97.1136 132.849 95.7055 134.291 94.3177 135.773C94.0351 136.074 94.0351 136.074 93.7467 136.382C92.9145 137.279 92.1295 138.172 91.4063 139.16C91.9773 139.097 91.9773 139.097 92.5598 139.032C92.881 138.996 92.881 138.996 93.2087 138.96C93.7534 138.92 93.7534 138.92 94.043 138.574C94.429 138.512 94.8177 138.466 95.2069 138.428C95.4465 138.404 95.6861 138.379 95.933 138.355C96.1855 138.33 96.4379 138.306 96.698 138.281C97.1898 138.233 97.6815 138.184 98.1732 138.135C98.5018 138.103 98.5018 138.103 98.837 138.071C99.4491 138.005 100.06 137.926 100.67 137.842C112.719 136.328 124.978 137.558 136.523 141.211C136.831 141.308 137.139 141.406 137.455 141.506C140.566 142.514 142.655 143.666 144.763 146.195C146.047 147.557 147.834 147.877 149.648 148.009C151.954 148.045 153.946 147.936 155.768 146.411C156.131 145.98 156.491 145.546 156.831 145.096C157.803 143.859 158.635 143.251 160.102 142.684C160.92 142.35 161.66 141.932 162.433 141.504C164.523 140.439 166.712 140.021 169.001 139.599C169.668 139.456 169.668 139.456 170.446 139.164C172.352 138.563 174.384 138.453 176.367 138.245C176.615 138.219 176.862 138.193 177.117 138.166C187.881 137.07 198.498 137.601 209.18 139.16C204.54 134.109 204.54 134.109 199.532 129.433C199.083 129.043 198.643 128.641 198.209 128.233C194.667 124.908 190.471 121.294 185.394 121.198C185.022 121.187 184.649 121.176 184.265 121.164C181.799 121.43 180.263 122.785 178.546 124.475C176.343 126.603 176.343 126.603 175.269 127.556C175.11 127.697 174.951 127.839 174.787 127.984C174.085 128.486 173.406 128.572 172.559 128.613C172.101 128.192 172.101 128.192 171.68 127.441C171.578 124.297 173.332 121.373 175.36 119.074C175.787 118.633 176.219 118.199 176.66 117.773C176.821 117.617 176.981 117.461 177.147 117.3C179.337 115.325 181.443 115.289 184.282 115.315C184.881 115.32 185.48 115.315 186.079 115.31C186.461 115.311 186.842 115.312 187.236 115.313C187.582 115.314 187.928 115.315 188.284 115.316C189.374 115.443 190.067 115.769 191.016 116.309C191.219 116.412 191.421 116.516 191.631 116.623C195.609 118.685 199.372 120.836 202.562 124.052C203.579 125.061 204.681 125.951 205.795 126.85C206.681 127.582 207.223 128.174 207.715 129.199C208.377 129.773 208.377 129.773 209.143 130.316C210.059 131.022 210.775 131.588 211.304 132.623C211.772 133.509 212.02 133.825 212.769 134.418C213.034 134.629 213.3 134.841 213.574 135.059C213.574 135.252 213.574 135.445 213.574 135.645C213.864 135.741 214.154 135.838 214.453 135.938C215.625 137.243 215.625 137.243 215.625 137.988C215.812 138.067 216 138.145 216.193 138.226C216.797 138.574 216.797 138.574 217.09 139.453C217.283 139.453 217.477 139.453 217.676 139.453C217.815 139.719 217.954 139.985 218.097 140.259C218.977 141.668 220.559 141.932 222.07 142.383C223.103 142.715 223.803 142.952 224.707 143.555C224.785 144.282 224.809 144.936 224.793 145.663C224.792 145.87 224.79 146.077 224.789 146.291C224.784 146.954 224.773 147.616 224.762 148.279C224.758 148.728 224.754 149.177 224.75 149.626C224.74 150.727 224.725 151.828 224.707 152.93C223.479 153.45 222.393 153.659 221.063 153.809C219.019 154.027 219.019 154.027 217.09 154.688C216.584 155.727 216.323 156.803 216.06 157.925C215.978 158.267 215.897 158.608 215.813 158.96C215.727 159.321 215.64 159.681 215.552 160.053C214.794 163.15 213.968 166.116 212.695 169.043C212.579 169.313 212.463 169.583 212.343 169.861C210.292 174.27 206.779 178.228 202.441 180.469C202.248 180.469 202.055 180.469 201.855 180.469C201.855 180.662 201.855 180.856 201.855 181.055C200.418 181.848 199.004 182.284 197.424 182.684C197.175 182.748 196.925 182.811 196.668 182.876C195.957 183.054 195.244 183.227 194.531 183.398C194.087 183.51 194.087 183.51 193.633 183.623C185.305 185.36 176.156 183.234 169.043 178.711C167.909 177.892 166.856 177.015 165.82 176.074C165.639 175.916 165.457 175.759 165.27 175.596C161.225 171.861 158.764 166.566 156.969 161.468C156.167 159.202 156.167 159.202 154.446 157.585C151.501 156.573 148.504 156.413 145.624 157.8C143.88 159.152 143.269 161.494 142.456 163.495C140.899 167.24 139.219 170.657 136.523 173.731C136.347 173.949 136.171 174.167 135.989 174.392C131.338 179.988 123.757 183.316 116.602 183.984C110.659 184.358 105.067 183.849 99.6094 181.348C99.2941 181.204 98.9787 181.06 98.6538 180.912C96.1233 179.657 94.2693 178.053 92.2852 176.074C92.0367 175.838 91.7882 175.602 91.5322 175.359C87.4847 171.097 85.9214 165.412 84.5953 159.859C84.5481 159.664 84.5009 159.47 84.4524 159.27C84.3232 158.735 84.1972 158.199 84.0715 157.664C83.7934 156.752 83.4147 156.075 82.9102 155.273C82.9102 155.08 82.9102 154.887 82.9102 154.688C80.9787 154.094 79.1641 153.703 77.1424 153.606C76.4649 153.516 76.4649 153.516 75.586 152.93C75.3669 151.776 75.3519 150.611 75.314 149.438C75.2997 149.024 75.2814 148.609 75.2594 148.195C75.2259 147.564 75.2032 146.933 75.1831 146.301C75.1688 145.917 75.1544 145.532 75.1396 145.136C75.293 144.141 75.293 144.141 75.9442 143.446C76.7079 142.998 77.3116 142.748 78.1678 142.548C81.3578 141.644 83.1408 139.537 85.2539 137.109C85.5355 136.794 85.5355 136.794 85.8227 136.473C86.7881 135.389 87.6996 134.271 88.6048 133.136C89.5301 132 90.4641 131.035 91.5894 130.102C93.5474 128.386 95.3379 126.463 97.1581 124.602C97.8199 123.957 98.4961 123.377 99.2249 122.809C99.4496 122.632 99.6743 122.455 99.9058 122.272C100.488 121.875 100.488 121.875 101.074 121.875C101.219 121.44 101.219 121.44 101.367 120.996C101.848 120.69 102.338 120.401 102.832 120.117C103.201 119.84 103.567 119.559 103.931 119.275C104.98 118.474 106.068 117.829 107.232 117.21C107.876 116.871 107.876 116.871 108.691 116.309C109.625 116.272 109.625 116.272 110.449 116.309C110.449 116.115 110.449 115.922 110.449 115.723C112.342 115.541 114.229 115.359 116.131 115.414ZM92.6754 148.012C91.4335 149.677 91.2626 151.249 91.2964 153.259C91.2985 153.511 91.3007 153.763 91.3029 154.022C91.4242 159.855 92.1826 166.464 96.3867 170.801C96.6587 171.172 96.6587 171.172 96.9361 171.552C100.022 175.091 104.984 177.29 109.57 177.832C113.849 178.104 118.437 178.118 122.319 176.137C123.011 175.799 123.661 175.584 124.402 175.378C126.111 174.844 127.524 173.696 128.744 172.403C129.199 171.973 129.199 171.973 129.895 171.597C130.877 170.955 131.471 170.14 132.129 169.189C132.257 169.006 132.385 168.823 132.517 168.635C135.533 164.22 136.821 159.015 136.926 153.717C136.934 153.496 136.942 153.276 136.949 153.049C136.955 151.194 136.448 149.973 135.151 148.598C129.173 144.244 121.165 143.243 113.965 142.969C113.711 142.957 113.457 142.945 113.195 142.932C106.707 142.77 97.787 143.602 92.6754 148.012ZM175.781 144.141C175.539 144.199 175.298 144.257 175.048 144.317C170.985 145.334 166.239 146.662 163.77 150.293C162.427 152.977 163.628 157.28 164.282 159.998C164.356 160.306 164.43 160.615 164.506 160.933C165.043 163.035 165.783 164.782 166.901 166.644C167.285 167.285 167.285 167.285 167.578 168.164C167.868 168.164 168.158 168.164 168.457 168.164C168.536 168.424 168.614 168.684 168.695 168.951C169.786 171.995 172.363 173.686 175.14 175.14C178.395 176.672 181.569 177.451 185.156 177.539C185.397 177.547 185.637 177.554 185.885 177.562C190.825 177.704 194.829 177.396 199.219 174.902C199.479 174.763 199.738 174.624 200.006 174.48C203.967 172.264 206.43 168.767 207.695 164.432C208.634 160.88 208.96 157.235 208.997 153.571C209.001 153.307 209.005 153.043 209.009 152.771C208.995 150.897 208.79 149.167 207.533 147.68C202.679 144.288 196.119 143.238 190.287 143.202C190.059 143.2 189.831 143.198 189.597 143.196C182.638 143.1 182.638 143.1 175.781 144.141ZM80.8594 147.07C80.1848 147.895 80.1848 147.895 80.3101 148.828C80.6047 149.838 80.8357 150.082 81.7383 150.586C82.9216 150.98 84.0252 151.192 85.1921 150.624C86.1156 149.956 86.4117 149.481 86.6455 148.37C86.5153 147.306 86.5153 147.306 85.6385 146.649C83.9221 145.84 82.4999 146.19 80.8594 147.07ZM213.867 147.656C213.647 148.535 213.647 148.535 213.867 149.414C214.509 150.227 215.005 150.533 216.03 150.698C217.256 150.753 218.069 150.682 219.177 150.128C219.811 149.423 219.811 149.423 219.891 148.37C219.827 147.37 219.827 147.37 219.24 146.869C218.379 146.386 217.78 146.357 216.797 146.356C216.495 146.351 216.193 146.345 215.881 146.339C214.842 146.518 214.503 146.829 213.867 147.656Z" fill="black"/>
<path d="M99.0234 173.145C99.6094 173.529 99.6094 173.529 100.195 174.023C100.195 174.313 100.195 174.604 100.195 174.902C99.8086 174.709 99.4219 174.516 99.0234 174.316C99.0234 173.93 99.0234 173.543 99.0234 173.145Z" fill="black"/>
</svg>
