<svg width="300" height="300" viewBox="0 0 300 300" fill="none" xmlns="http://www.w3.org/2000/svg">
<path d="M139.453 86.4263C138.574 86.7193 138.574 86.7193 137.695 86.7193C137.918 86.8749 138.14 87.0305 138.369 87.1908C138.806 87.5012 138.806 87.5012 139.252 87.8179C139.541 88.0219 139.83 88.2258 140.127 88.4359C140.833 88.9959 141.304 89.4885 141.797 90.2349C140.655 89.7987 139.573 89.2846 138.483 88.7335C138.17 88.5756 137.857 88.4178 137.534 88.2551C137.179 88.075 137.179 88.075 136.816 87.8912C137.398 88.4723 138.137 88.8944 138.812 89.356C140.727 90.671 142.586 92.0497 144.434 93.4576C144.53 93.0709 144.627 92.6842 144.727 92.2857C145.21 92.7691 145.693 93.2525 146.191 93.7506C146.191 93.5572 146.191 93.3638 146.191 93.1646C146.288 92.9713 146.385 92.7779 146.484 92.5787C147.661 93.8695 148.595 95.136 149.414 96.6802C149.511 96.1969 149.607 95.7135 149.707 95.2154C149.9 95.5054 150.094 95.7955 150.293 96.0943C150.583 95.4176 150.873 94.7408 151.172 94.0435C151.752 94.4786 151.752 94.4786 152.344 94.9224C152.485 94.7566 152.626 94.5909 152.772 94.42C152.957 94.2052 153.142 93.9903 153.333 93.7689C153.516 93.5547 153.7 93.3406 153.889 93.12C154.395 92.5787 154.395 92.5787 154.98 92.2857C154.98 92.6724 154.98 93.0592 154.98 93.4576C155.878 92.7989 156.775 92.1395 157.672 91.4801C158.052 91.2013 158.052 91.2013 158.439 90.917C158.686 90.7357 158.932 90.5545 159.186 90.3677C159.524 90.1191 159.524 90.1191 159.87 89.8656C160.595 89.3198 161.303 88.7512 162.012 88.1842C160.755 88.7642 159.498 89.3443 158.203 89.942C158.496 88.7701 158.496 88.7701 159.23 88.207C159.525 88.0303 159.821 87.8536 160.126 87.6715C160.422 87.4917 160.719 87.3119 161.024 87.1267C161.253 86.9923 161.483 86.8578 161.719 86.7193C161.295 86.2952 160.828 86.2631 160.254 86.1334C160.662 85.9919 161.071 85.8518 161.481 85.7122C161.708 85.6341 161.936 85.5559 162.171 85.4753C166.575 84.124 170.771 84.9976 174.902 86.7193C175.233 86.8557 175.233 86.8557 175.571 86.9948C180.605 89.1124 185.147 92.4577 187.5 97.5592C189.55 102.83 190.235 108.631 190.137 114.258C189.847 114.162 189.557 114.065 189.258 113.965C189.161 114.642 189.064 115.319 188.965 116.016C188.013 115.541 187.88 114.623 187.5 113.672C187.21 113.672 186.92 113.672 186.621 113.672C186.159 111.469 185.943 109.347 185.889 107.099C185.812 104.749 185.666 102.497 185.156 100.196C185.06 100.196 184.963 100.196 184.863 100.196C184.859 100.421 184.855 100.645 184.851 100.877C184.698 104.44 183.984 108.069 182.747 111.42C182.478 112.351 182.459 112.769 182.812 113.672C183.331 114.252 183.833 114.765 184.406 115.284C185.625 116.399 186.529 117.303 186.678 119.016C186.659 119.578 186.64 120.141 186.621 120.704C186.234 120.414 185.848 120.124 185.449 119.825C185.449 120.502 185.449 121.178 185.449 121.876C185.062 121.876 184.676 121.876 184.277 121.876C184.259 122.039 184.241 122.202 184.222 122.37C183.887 123.326 183.254 123.835 182.52 124.512C182.326 124.416 182.133 124.319 181.934 124.219C182.03 123.833 182.127 123.446 182.227 123.047C181.356 123.724 180.486 124.401 179.59 125.098C179.396 125.002 179.203 124.905 179.004 124.805C179.101 124.612 179.197 124.419 179.297 124.219C178.784 124.592 178.271 124.964 177.759 125.336C177.473 125.544 177.188 125.751 176.894 125.965C176.396 126.328 175.903 126.698 175.42 127.079C174.902 127.442 174.902 127.442 174.316 127.442C174.316 127.152 174.316 126.862 174.316 126.563C174.112 126.732 173.907 126.901 173.696 127.076C173.43 127.293 173.163 127.511 172.888 127.735C172.623 127.952 172.358 128.17 172.085 128.394C171.387 128.907 171.387 128.907 170.801 128.907C170.897 128.52 170.994 128.133 171.094 127.735C170.93 127.898 170.766 128.061 170.597 128.229C166.883 131.764 161.696 134.323 156.738 135.645C156.115 135.566 156.115 135.566 155.566 135.352C154.847 134.206 154.526 133.176 154.395 131.837C154.361 131.517 154.361 131.517 154.327 131.191C154.306 130.849 154.306 130.849 154.285 130.5C154.27 130.288 154.256 130.076 154.241 129.858C154.476 128.852 155.106 128.422 155.859 127.735C156.138 127.457 156.414 127.177 156.689 126.895C158.165 125.403 159.64 123.935 161.244 122.579C161.718 122.169 162.156 121.735 162.598 121.29C162.449 121.389 162.3 121.488 162.146 121.59C161.464 122.039 160.777 122.479 160.089 122.919C159.855 123.075 159.62 123.232 159.379 123.392C157.847 124.362 157.103 124.605 155.273 124.219C153.595 125.49 153.406 128.106 153.126 130.05C153.091 130.307 153.057 130.564 153.021 130.829C152.964 131.231 152.964 131.231 152.906 131.64C152.814 132.291 152.724 132.943 152.637 133.594C152.443 133.208 152.25 132.821 152.051 132.422C151.437 133.42 151.389 134.193 151.465 135.352C151.562 135.545 151.658 135.739 151.758 135.938C152.048 135.938 152.338 135.938 152.637 135.938C152.83 135.551 153.023 135.165 153.223 134.766C153.416 134.766 153.609 134.766 153.809 134.766C154.98 136.744 154.98 136.744 154.98 137.403C154.074 137.856 153.103 137.821 152.106 137.879C151.772 137.898 151.772 137.898 151.432 137.918C149.097 138.035 146.701 138.038 144.434 137.403C144.983 135.718 144.983 135.718 145.312 135.059C145.506 135.059 145.699 135.059 145.898 135.059C146.092 135.349 146.285 135.639 146.484 135.938C147.241 136.011 147.241 136.011 147.949 135.938C147.965 135.517 147.976 135.096 147.986 134.675C147.993 134.44 147.999 134.206 148.006 133.964C147.996 133.218 147.996 133.218 147.363 132.422C147.267 132.809 147.17 133.196 147.07 133.594C146.877 133.594 146.684 133.594 146.484 133.594C146.125 132.081 145.845 130.595 145.642 129.053C145.401 127.447 145.088 125.865 144.141 124.512C143.62 124.1 143.62 124.1 142.969 123.926C142.741 123.984 142.512 124.042 142.277 124.102C141.315 124.248 141.016 124.061 140.207 123.543C139.974 123.397 139.741 123.25 139.501 123.1C139.142 122.865 139.142 122.865 138.776 122.626C138.531 122.471 138.286 122.316 138.033 122.157C137.43 121.774 136.829 121.387 136.23 120.997C137.311 122.094 138.426 123.144 139.563 124.183C142.52 126.905 142.52 126.905 143.555 128.028C143.796 128.288 144.038 128.548 144.287 128.815C145.039 130.476 144.765 132.272 144.214 133.985C143.976 134.546 143.976 134.546 143.555 135.352C138.092 134.728 132.697 131.578 128.613 128.028C128.225 127.732 127.835 127.438 127.441 127.149C127.828 127.536 128.215 127.922 128.613 128.321C128.517 128.514 128.42 128.708 128.32 128.907C128.181 128.811 128.042 128.715 127.899 128.616C127.271 128.181 126.642 127.748 126.013 127.314C125.685 127.087 125.685 127.087 125.351 126.855C125.141 126.711 124.931 126.567 124.715 126.418C124.425 126.218 124.425 126.218 124.13 126.013C123.631 125.668 123.631 125.668 123.047 125.391C123.337 125.778 123.627 126.165 123.926 126.563C122.416 126.05 121.426 125.157 120.235 124.125C119.514 123.521 119.514 123.521 118.359 123.633C117.7 123.34 117.7 123.34 117.188 123.047C117.091 123.241 116.994 123.434 116.895 123.633C116.704 123.416 116.704 123.416 116.51 123.194C116.016 122.657 116.016 122.657 115.137 122.754C115.137 122.271 115.137 121.788 115.137 121.29C114.75 121.29 114.363 121.29 113.965 121.29C114.221 119.898 114.221 119.898 114.551 119.239C114.067 119.529 113.584 119.819 113.086 120.118C113.148 117.282 113.148 117.282 114.038 116.199C116.071 114.258 116.071 114.258 116.895 114.258C117.229 112.375 117.133 111.007 116.528 109.205C115.616 106.247 115.216 103.262 114.844 100.196C114.3 102.8 114.154 105.343 114.091 108C114.033 109.916 113.959 111.927 113.086 113.672C112.796 113.672 112.506 113.672 112.207 113.672C112.122 113.95 112.038 114.228 111.951 114.515C111.621 115.43 111.621 115.43 111.035 116.016C110.938 115.339 110.842 114.663 110.742 113.965C110.162 114.255 110.162 114.255 109.57 114.551C109.764 106.43 110.506 98.3619 116.309 92.2857C116.468 92.1014 116.627 91.9171 116.79 91.7272C122.092 85.8211 132.269 83.3436 139.453 86.4263ZM139.16 114.844C139.797 115.547 140.375 115.931 141.24 116.314C141.59 116.472 141.59 116.472 141.947 116.634C142.194 116.744 142.44 116.855 142.694 116.968C144.591 117.834 146.301 118.716 147.918 120.055C148.788 120.557 149.298 120.546 150.293 120.411C151.04 120.046 151.714 119.674 152.417 119.239C154.413 118.052 156.449 117.077 158.591 116.182C159.777 115.76 159.777 115.76 160.547 114.844C158.362 115.393 156.26 116.084 154.15 116.87C149.834 118.351 146.238 117.245 142.176 115.671C141.185 115.316 140.186 115.077 139.16 114.844Z" fill="black"/>
<path d="M183.984 155.566C184.64 156.55 184.845 157.457 185.101 158.588C186.469 164.209 189.071 169.122 191.733 174.231C193.556 177.754 195.196 181.415 195.117 185.449C194.863 185.114 194.863 185.114 194.604 184.772C194.024 184.078 193.5 183.626 192.773 183.105C192.872 183.343 192.971 183.581 193.073 183.825C194.288 186.84 194.931 189.523 194.824 192.773C194.28 192.244 193.813 191.726 193.341 191.125C192.838 190.412 192.838 190.412 192.188 190.137C192.284 190.427 192.381 190.717 192.48 191.016C192.556 192.553 192.474 193.668 191.895 195.117C191.798 195.117 191.701 195.117 191.602 195.117C191.527 194.852 191.453 194.588 191.376 194.315C191.275 193.969 191.174 193.624 191.071 193.268C190.972 192.925 190.873 192.581 190.772 192.228C190.456 191.379 190.247 190.982 189.551 190.43C189.561 190.725 189.571 191.02 189.582 191.323C189.755 198.81 189.755 198.81 188.379 201.562C188.186 201.562 187.992 201.562 187.793 201.562C187.704 201.305 187.615 201.047 187.524 200.781C186.641 198.228 186.641 198.228 184.863 196.289C184.956 196.579 185.048 196.87 185.144 197.169C185.473 198.324 185.589 199.469 185.651 200.665C185.662 200.87 185.674 201.075 185.685 201.287C185.753 202.696 185.758 203.995 185.449 205.371C185.256 205.468 185.063 205.564 184.863 205.664C184.785 205.498 184.708 205.332 184.628 205.162C184.472 204.839 184.472 204.839 184.314 204.51C184.212 204.296 184.11 204.082 184.005 203.862C183.73 203.272 183.73 203.272 183.105 203.027C183.142 203.379 183.142 203.379 183.18 203.737C183.385 205.947 183.523 208.156 183.105 210.352C182.912 210.545 182.719 210.738 182.52 210.938C182.378 210.666 182.237 210.394 182.092 210.115C181.905 209.76 181.718 209.406 181.531 209.052C181.438 208.872 181.345 208.693 181.249 208.508C180.755 207.494 180.755 207.494 179.883 206.836C179.883 207.899 179.883 208.963 179.883 210.059C179.689 210.059 179.496 210.059 179.297 210.059C179.219 209.818 179.141 209.578 179.061 209.331C178.906 208.857 178.906 208.857 178.748 208.374C178.595 207.905 178.595 207.905 178.439 207.426C178.182 206.702 177.903 206.046 177.539 205.371C177.518 205.859 177.518 205.859 177.496 206.358C177.205 212.347 177.205 212.347 176.074 214.453C175.881 214.453 175.688 214.453 175.488 214.453C175.488 214.26 175.488 214.066 175.488 213.867C175.295 213.867 175.102 213.867 174.902 213.867C174.83 214.085 174.757 214.302 174.683 214.526C174.29 215.391 173.845 215.873 173.145 216.504C172.401 214.57 171.74 212.613 171.094 210.645C170.866 212.908 170.725 215.165 170.636 217.438C170.617 217.898 170.617 217.898 170.598 218.368C170.567 219.114 170.537 219.859 170.508 220.605C168.401 218.636 167.247 215.958 166.15 213.336C166.063 213.13 165.975 212.923 165.885 212.711C165.366 211.429 165.082 210.263 164.941 208.887C164.216 209.467 164.216 209.467 163.477 210.059C163.397 209.767 163.397 209.767 163.315 209.469C163.242 209.211 163.168 208.952 163.092 208.685C163.021 208.43 162.949 208.175 162.876 207.913C162.582 207.084 162.193 206.402 161.719 205.664C161.708 206.046 161.697 206.428 161.686 206.822C161.461 213.212 161.461 213.212 160.254 215.625C160.061 215.625 159.867 215.625 159.668 215.625C158.04 211.631 158.04 211.631 157.91 209.766C157.717 209.766 157.523 209.766 157.324 209.766C157.034 210.926 157.034 210.926 156.738 212.109C156.139 211.21 155.86 210.442 155.53 209.418C155.426 209.099 155.323 208.781 155.216 208.453C155.138 208.209 155.061 207.966 154.98 207.715C154.787 208.392 154.594 209.068 154.395 209.766C153.285 209.396 153.159 209.019 152.582 208.026C152.427 207.764 152.271 207.501 152.111 207.231C151.758 206.543 151.758 206.543 151.758 205.957C151.564 206.054 151.371 206.15 151.172 206.25C151.053 206.93 150.954 207.614 150.879 208.301C150.226 207.648 150.09 207.229 149.817 206.36C149.741 206.12 149.664 205.881 149.586 205.634C149.529 205.451 149.472 205.267 149.414 205.078C149.221 205.078 149.027 205.078 148.828 205.078C148.793 205.307 148.757 205.537 148.721 205.773C148.647 206.217 148.647 206.217 148.572 206.671C148.5 207.115 148.5 207.115 148.428 207.567C148.366 207.809 148.305 208.051 148.242 208.301C148.049 208.397 147.855 208.494 147.656 208.594C147.509 207.929 147.362 207.263 147.217 206.598C147.135 206.227 147.054 205.857 146.97 205.475C146.777 204.492 146.777 204.492 146.777 203.613C146.584 203.613 146.391 203.613 146.191 203.613C146.202 203.815 146.212 204.017 146.222 204.226C146.276 206.098 146.173 207.776 145.312 209.473C145.119 209.569 144.926 209.666 144.727 209.766C144.63 209.186 144.533 208.605 144.434 208.008C143.95 208.298 143.467 208.588 142.969 208.887C142.912 208.71 142.855 208.533 142.797 208.351C142.721 208.117 142.645 207.883 142.566 207.642C142.491 207.41 142.416 207.179 142.339 206.941C142.1 206.278 141.873 205.679 141.504 205.078C141.214 204.981 140.924 204.885 140.625 204.785C140.643 205.063 140.661 205.341 140.68 205.627C140.672 207.495 140.17 209.357 138.995 210.828C138.281 211.523 138.281 211.523 137.695 211.523C137.405 209.88 137.115 208.236 136.816 206.543C136.623 206.543 136.43 206.543 136.23 206.543C136.202 206.703 136.173 206.862 136.143 207.027C135.803 208.746 135.239 210.244 134.473 211.816C134.279 211.816 134.086 211.816 133.887 211.816C133.742 209.641 133.742 209.641 133.594 207.422C133.414 207.775 133.233 208.127 133.048 208.491C132.809 208.952 132.57 209.414 132.33 209.875C132.212 210.108 132.094 210.341 131.972 210.58C131.855 210.803 131.739 211.026 131.62 211.256C131.514 211.461 131.408 211.667 131.299 211.879C130.957 212.402 130.957 212.402 130.078 212.988C129.994 212.753 129.909 212.517 129.822 212.274C129.571 211.485 129.571 211.485 128.906 211.23C128.713 211.714 128.52 212.197 128.32 212.695C128.127 212.695 127.934 212.695 127.734 212.695C127.541 212.405 127.348 212.115 127.148 211.816C126.858 212.106 126.568 212.396 126.27 212.695C125.883 210.858 125.496 209.021 125.098 207.129C124.691 208.145 124.4 208.959 124.182 210.004C124.133 210.235 124.084 210.467 124.033 210.705C123.98 210.965 123.98 210.965 123.926 211.23C123.249 211.327 122.572 211.424 121.875 211.523C121.644 210.488 121.531 209.501 121.489 208.442C121.477 208.142 121.465 207.843 121.452 207.535C121.441 207.225 121.429 206.916 121.417 206.598C121.405 206.283 121.392 205.968 121.379 205.644C121.348 204.869 121.318 204.095 121.289 203.32C120.229 205.282 119.474 207.196 118.89 209.344C118.748 209.864 118.603 210.383 118.457 210.902C118.365 211.24 118.365 211.24 118.271 211.585C118.066 212.109 118.066 212.109 117.48 212.402C116.243 207.79 116.243 207.79 115.723 205.664C115.336 207.018 114.949 208.371 114.551 209.766C114.357 209.766 114.164 209.766 113.965 209.766C113.771 209.186 113.578 208.605 113.379 208.008C112.896 208.104 112.412 208.201 111.914 208.301C111.793 201.331 111.793 201.331 112.5 198.34C112.27 198.576 112.041 198.811 111.804 199.054C111.035 199.805 111.035 199.805 110.449 200.098C110.256 199.324 110.063 198.551 109.863 197.754C109.573 197.851 109.283 197.947 108.984 198.047C108.888 196.79 108.791 195.533 108.691 194.238C108.516 194.71 108.341 195.181 108.16 195.667C107.629 197.095 107.629 197.095 106.641 197.754C104.779 194.65 105.904 190.497 106.641 187.207C106.459 187.443 106.278 187.678 106.091 187.921C105.469 188.672 105.469 188.672 104.883 188.965C104.981 184.772 106.553 180.95 108.398 177.246C107.03 178.074 106.154 178.909 105.176 180.176C104.709 178.777 105.226 177.705 105.762 176.367C106.744 174.436 107.843 172.595 109.113 170.837C112.322 166.347 113.917 161.933 114.551 156.445C114.647 156.445 114.744 156.445 114.844 156.445C114.84 156.791 114.837 157.136 114.833 157.492C114.251 167.71 114.251 167.71 116.492 177.429C117.424 179.388 117.277 181.328 117.159 183.449C117.068 185.573 117.439 186.688 118.817 188.342C119.679 189.017 120.66 189.078 121.724 189.07C123.005 188.887 124.158 188.37 125.347 187.878C126.231 187.516 127.119 187.206 128.027 186.914C127.834 187.591 127.641 188.268 127.441 188.965C127.787 188.835 128.133 188.704 128.49 188.57C128.946 188.402 129.402 188.235 129.858 188.068C130.086 187.981 130.314 187.895 130.548 187.806C130.769 187.726 130.99 187.646 131.218 187.563C131.42 187.488 131.623 187.413 131.832 187.335C132.516 187.187 132.936 187.283 133.594 187.5C133.497 187.597 133.4 187.693 133.301 187.793C133.573 187.761 133.573 187.761 133.851 187.729C136.215 187.481 138.544 187.471 140.918 187.5C140.773 187.935 140.773 187.935 140.625 188.379C141.398 188.282 142.172 188.186 142.969 188.086C142.872 188.666 142.775 189.246 142.676 189.844C143.353 189.844 144.029 189.844 144.727 189.844C144.727 190.134 144.727 190.424 144.727 190.723C144.922 190.676 145.118 190.629 145.319 190.581C148.231 190.076 151.277 190.374 154.175 190.833C154.408 190.869 154.642 190.906 154.883 190.944C156.057 191.145 157.113 191.393 158.203 191.895C158.106 191.411 158.01 190.928 157.91 190.43C157.62 190.333 157.33 190.236 157.031 190.137C157.031 190.04 157.031 189.943 157.031 189.844C158.046 189.699 158.046 189.699 159.082 189.551C158.985 189.067 158.889 188.584 158.789 188.086C167.304 187.843 167.304 187.843 171.387 189.258C171.651 189.348 171.916 189.438 172.189 189.531C172.708 189.719 173.221 189.924 173.73 190.137C173.107 189.169 172.513 188.295 171.68 187.5C171.893 187.518 172.106 187.535 172.325 187.554C172.946 187.605 173.566 187.655 174.187 187.704C174.839 187.761 175.49 187.832 176.139 187.919C178.337 188.223 178.337 188.223 180.298 187.371C182.352 185.346 182.49 182.563 182.611 179.846C182.632 179.482 182.654 179.118 182.676 178.743C182.727 177.854 182.773 176.964 182.812 176.074C183.006 176.171 183.199 176.268 183.398 176.367C183.495 176.657 183.592 176.947 183.691 177.246C183.909 175.864 184.034 174.515 184.077 173.117C184.083 172.924 184.089 172.73 184.096 172.531C184.115 171.905 184.132 171.28 184.149 170.654C184.155 170.44 184.161 170.226 184.168 170.006C184.246 167.256 184.306 164.506 184.314 161.755C184.316 161.37 184.316 161.37 184.318 160.978C184.314 159.162 184.173 157.372 183.984 155.566Z" fill="black"/>
<path d="M112.5 128.027C113.053 128.648 113.053 128.648 113.581 129.456C113.757 129.721 113.934 129.986 114.115 130.259C114.551 130.957 114.551 130.957 114.844 131.543C113.974 131.398 113.974 131.398 113.086 131.25C113.84 132.995 114.839 134.046 116.602 134.766C117.411 134.897 118.205 135.008 119.019 135.095C119.346 135.133 119.346 135.133 119.681 135.172C120.217 135.234 120.753 135.293 121.29 135.352C121.315 135.549 121.34 135.747 121.366 135.951C121.605 137.628 121.605 137.628 122.553 138.977C122.813 139.134 123.073 139.291 123.34 139.453C123.57 139.665 123.8 139.876 124.036 140.094C125.699 141.242 127.518 140.884 129.427 140.702C131.014 140.573 132.589 140.587 134.18 140.625C134.379 140.629 134.577 140.632 134.782 140.636C138.877 140.727 141.852 141.356 145.02 144.141C144.66 143.14 144.277 142.392 143.573 141.595C143.352 141.34 143.352 141.34 143.126 141.079C142.641 140.559 142.641 140.559 141.797 140.039C141.797 139.846 141.797 139.652 141.797 139.453C142.377 139.55 142.958 139.646 143.555 139.746C143.555 139.939 143.555 140.133 143.555 140.332C143.841 140.35 144.127 140.368 144.421 140.386C144.794 140.41 145.167 140.435 145.551 140.46C145.922 140.484 146.292 140.508 146.674 140.532C147.657 140.625 147.657 140.625 148.536 140.918C150.069 140.997 151.357 140.845 152.843 140.481C153.738 140.283 154.631 140.193 155.542 140.103C156.338 140.02 157.123 139.887 157.911 139.746C157.717 139.933 157.524 140.121 157.325 140.314C155.342 142.207 155.342 142.207 153.809 144.434C154.053 144.275 154.298 144.116 154.55 143.952C158.002 141.739 160.85 141.053 164.89 140.684C165.467 140.631 166.043 140.573 166.62 140.514C168.925 140.292 168.925 140.292 169.922 140.625C171.992 140.721 174.028 140.653 176.075 140.332C176.075 140.139 176.075 139.945 176.075 139.746C175.688 139.649 175.301 139.553 174.903 139.453C175.086 139.403 175.27 139.352 175.459 139.3C176.247 139.029 176.864 138.773 177.54 138.281C177.943 137.317 178.064 136.39 178.125 135.352C178.479 135.305 178.832 135.259 179.197 135.211C182.782 134.843 182.782 134.843 185.743 133.008C186.238 132.238 186.567 131.519 186.915 130.664C186.685 130.815 186.455 130.966 186.219 131.122C185.965 131.261 185.711 131.4 185.45 131.543C185.256 131.446 185.063 131.35 184.864 131.25C185.637 130.187 186.411 129.123 187.208 128.027C189.539 128.494 191.344 129.752 192.692 131.725C194.729 135.509 194.95 140.024 193.946 144.141C193.384 146.01 192.068 147.378 190.81 148.823C189.507 150.32 188.345 151.889 187.208 153.516C186.915 152.637 186.915 152.637 187.316 151.701C187.515 151.315 187.717 150.932 187.922 150.549C188.139 150.129 188.355 149.709 188.572 149.288C188.685 149.07 188.797 148.851 188.914 148.626C189.483 147.507 190.023 146.374 190.558 145.239C190.658 145.03 190.758 144.821 190.862 144.605C191.92 142.361 192.452 139.797 191.698 137.349C191.447 136.829 191.447 136.829 191.016 136.23C190.919 136.327 190.823 136.424 190.723 136.523C190.822 137.032 190.934 137.539 191.053 138.043C191.253 139.114 191.335 139.655 191.034 140.717C189.589 142.6 187.941 143.586 185.743 144.434C186.323 144.53 186.903 144.627 187.5 144.727C186.915 145.312 186.915 145.312 186.036 145.605C186.132 145.799 186.229 145.992 186.329 146.191C185.997 146.23 185.665 146.269 185.324 146.309C184.89 146.361 184.456 146.414 184.021 146.466C183.803 146.492 183.584 146.517 183.359 146.543C182.17 146.67 182.17 146.67 181.055 147.07C181.829 147.264 182.602 147.457 183.399 147.656C182.554 148.219 182.292 148.328 181.34 148.428C181.11 148.452 180.879 148.477 180.642 148.502C180.275 148.537 180.275 148.537 179.902 148.572C179.651 148.596 179.401 148.621 179.142 148.646C174.334 149.09 170.48 148.351 165.941 146.808C161.44 145.23 161.44 145.23 156.794 145.66C155.814 146.217 155.304 146.721 154.688 147.656C154.688 147.753 154.688 147.85 154.688 147.949C154.978 147.708 155.268 147.466 155.567 147.217C156.558 146.517 157.286 146.26 158.499 146.34C159.781 146.657 160.764 147.446 161.536 148.499C161.799 149.393 161.943 150.242 162.012 151.172C161.819 151.365 161.625 151.559 161.426 151.758C161.426 151.564 161.426 151.371 161.426 151.172C159.989 151.068 159.22 151.313 158.002 152.069C157.698 152.255 157.394 152.441 157.081 152.633C156.197 153.195 155.314 153.757 154.432 154.321C154.167 154.489 153.901 154.657 153.628 154.831C153.101 155.165 152.576 155.502 152.051 155.841C150.625 156.346 149.439 156.473 147.95 156.152C146.678 155.498 145.536 154.714 144.374 153.884C143.524 153.288 142.644 152.742 141.761 152.197C141.458 152.007 141.155 151.817 140.843 151.62C140.15 151.233 139.65 150.973 138.868 150.879C138.433 151.024 138.433 151.024 137.989 151.172C137.714 150.122 137.647 149.548 138.025 148.517C138.721 147.428 139.432 146.515 140.589 145.898C142.402 145.898 143.748 147.094 145.02 148.242C144.328 146.743 143.728 145.845 142.177 145.197C138.701 144.281 134.719 146.54 131.562 147.835C131.229 147.969 130.897 148.104 130.555 148.242C130.268 148.363 129.982 148.484 129.687 148.608C128.805 148.857 128.32 148.747 127.442 148.535C127.007 148.68 127.007 148.68 126.563 148.828C124.151 149.01 121.821 148.791 119.44 148.425C119.193 148.388 118.947 148.351 118.692 148.313C118.089 148.214 117.491 148.084 116.895 147.949C116.798 147.756 116.702 147.563 116.602 147.363C117.472 147.218 117.472 147.218 118.36 147.07C118.36 146.974 118.36 146.877 118.36 146.777C116.716 146.584 115.073 146.391 113.379 146.191C113.573 145.998 113.766 145.805 113.965 145.605C113.385 145.412 112.805 145.219 112.208 145.02C112.208 144.826 112.208 144.633 112.208 144.434C113.078 144.289 113.078 144.289 113.965 144.141C113.771 144.07 113.576 143.999 113.376 143.925C111.563 143.237 110.157 142.666 109.04 141.01C108.442 139.341 108.544 137.647 108.985 135.938C108.695 136.034 108.405 136.131 108.106 136.23C106.92 138.957 107.77 141.775 108.766 144.439C109.472 146.127 110.369 147.731 111.266 149.324C111.391 149.551 111.517 149.778 111.647 150.013C111.762 150.215 111.877 150.418 111.995 150.626C112.208 151.172 112.208 151.172 111.915 152.051C111.211 151.314 110.509 150.575 109.809 149.835C109.612 149.629 109.414 149.422 109.211 149.21C106.594 146.44 105.189 144.017 105.066 140.112C105.181 136.478 105.716 132.835 108.331 130.127C109.61 128.983 110.736 128.027 112.5 128.027Z" fill="black"/>
<path d="M181.964 81.6015C183.059 82.5939 184.116 83.6206 185.156 84.6686C185.329 84.8424 185.502 85.0163 185.681 85.1954C190.074 89.6549 192.011 94.1465 193.652 100.178C193.752 100.541 193.852 100.904 193.954 101.278C194.854 104.603 195.61 107.952 196.289 111.329C198.136 110.786 199.445 109.824 200.977 108.692C201.236 108.517 201.496 108.342 201.764 108.161C203.131 106.868 204.092 105.215 205.103 103.638C205.306 103.324 205.51 103.01 205.719 102.686C205.904 102.393 206.09 102.1 206.281 101.798C206.829 101.084 207.176 100.799 208.008 100.489C209.547 102.798 209.048 106.812 208.561 109.435C207.968 112.203 207.138 114.889 205.831 117.41C204.749 119.605 204.663 121.464 204.813 123.866C204.909 125.865 204.516 127.305 203.167 128.823C203.014 128.986 202.86 129.149 202.702 129.317C201.649 130.485 201.439 131.669 201.196 133.192C201.11 133.678 201.024 134.164 200.935 134.649C200.896 134.876 200.857 135.102 200.816 135.335C200.684 135.938 200.684 135.938 200.316 136.739C200.021 137.423 200.021 137.423 200.332 138.202C201.488 140.417 202.836 142.274 204.492 144.141C204.718 144.399 204.943 144.656 205.175 144.922C206.879 146.843 208.592 148.739 210.645 150.294C209.524 150.71 208.619 150.95 207.422 150.879C208.283 152.228 209.231 153.443 210.278 154.651C210.434 154.832 210.591 155.013 210.751 155.199C214.43 159.422 218.869 162.895 223.51 166.014C223.688 166.134 223.865 166.253 224.048 166.377C224.531 166.698 225.017 167.016 225.504 167.333C225.724 167.511 225.945 167.688 226.172 167.872C226.172 168.162 226.172 168.452 226.172 168.751C223.675 170.203 221.354 170.038 218.555 169.922C219.052 171.126 219.554 172.328 220.056 173.53C220.265 174.034 220.265 174.034 220.477 174.549C221.291 176.488 222.171 178.328 223.24 180.141C223.337 180.346 223.435 180.551 223.535 180.762C223.438 180.956 223.342 181.149 223.242 181.348C218.57 176.879 214.818 172.433 211.816 166.7C211.696 166.481 211.576 166.262 211.452 166.036C211.23 165.528 211.23 165.528 211.23 164.649C211.575 164.77 211.919 164.891 212.274 165.015C213.535 165.432 214.804 165.812 216.083 166.169C216.44 166.27 216.797 166.37 217.164 166.474C218.364 166.721 219.385 166.739 220.605 166.7C220.375 166.526 220.144 166.352 219.906 166.172C213.74 161.492 208.649 156.371 204.199 150.001C204.199 149.904 204.199 149.807 204.199 149.708C204.973 149.611 205.746 149.514 206.543 149.415C206.341 149.241 206.139 149.066 205.931 148.887C202.001 145.421 198.364 141.169 197.726 135.761C197.766 134.743 198.256 134.339 198.926 133.594C199.026 133.036 199.102 132.474 199.164 131.91C199.391 130.241 199.91 129.314 201.02 128.067C201.199 127.861 201.378 127.654 201.562 127.442C201.779 127.197 201.995 126.951 202.217 126.698C202.97 125.223 202.786 123.939 202.698 122.315C202.627 119.696 202.778 117.952 203.985 115.615C204.668 114.274 205.053 112.844 205.463 111.402C205.537 111.149 205.612 110.896 205.688 110.635C206.171 108.919 206.422 107.247 206.543 105.469C206.387 105.742 206.387 105.742 206.228 106.02C205.025 108.022 203.643 109.697 202.085 111.43C200.825 112.858 199.886 114.294 199.005 115.988C198.821 116.292 198.821 116.292 198.633 116.602C198.439 116.602 198.246 116.602 198.047 116.602C198.137 115.979 198.229 115.357 198.322 114.734C198.398 114.214 198.398 114.214 198.476 113.684C198.633 112.794 198.633 112.794 198.926 112.208C198.732 112.208 198.539 112.208 198.34 112.208C198.243 112.498 198.146 112.788 198.047 113.087C197.526 113.557 197.526 113.557 196.893 114.02C196.685 114.176 196.477 114.331 196.263 114.491C195.703 114.844 195.703 114.844 195.117 114.844C195.027 114.434 195.027 114.434 194.935 114.015C191.866 100.121 188.405 87.4105 175.766 79.1667C169.507 75.2459 161.675 72.3254 154.242 72.3147C154.003 72.3137 153.764 72.3127 153.517 72.3117C153.011 72.3102 152.504 72.3095 151.998 72.3096C151.24 72.309 150.483 72.3037 149.726 72.2981C145.406 72.2828 141.205 72.5789 137.018 73.7189C136.736 73.7944 136.454 73.87 136.164 73.9479C130.463 75.5337 125.216 77.8595 120.703 81.7389C120.424 81.9643 120.424 81.9643 120.14 82.1944C118.804 83.2877 117.713 84.5242 116.602 85.8404C116.224 86.2676 116.224 86.2676 115.838 86.7033C108.888 94.6119 106.781 104.751 104.883 114.844C103.285 114.298 102.513 113.421 101.367 112.208C101.512 114.383 101.512 114.383 101.66 116.602C101.225 116.022 101.225 116.022 100.781 115.43C100.349 114.862 99.9155 114.294 99.4812 113.727C99.3558 113.564 99.2303 113.4 99.1011 113.231C98.3849 112.3 97.6589 111.379 96.9189 110.467C96.7633 110.275 96.6076 110.083 96.4473 109.885C96.1463 109.514 95.8441 109.145 95.5405 108.777C94.6107 107.632 93.8647 106.475 93.1641 105.176C93.5138 107.59 94.0367 109.891 94.7388 112.226C94.8241 112.518 94.9095 112.811 94.9974 113.112C95.4237 114.553 95.8876 115.945 96.4531 117.337C97.0902 119.054 97.0681 120.597 96.9727 122.407C96.7943 125.134 96.7943 125.134 98.1445 127.442C98.4865 127.796 98.8341 128.144 99.1882 128.486C100.354 129.768 100.593 131.079 100.868 132.758C101.089 133.656 101.304 133.864 101.953 134.473C102.343 137.979 100.806 141.107 98.7305 143.848C97.0529 145.882 95.2102 147.75 93.1641 149.415C93.8408 149.511 94.5176 149.608 95.2148 149.708C93.8191 153.879 90.0661 157.515 87.0117 160.547C86.7898 160.768 86.7898 160.768 86.5634 160.993C84.1696 163.343 81.5161 165.317 78.8086 167.286C82.2299 166.803 85.2861 165.976 88.4766 164.649C86.4206 171.179 81.6644 176.988 76.7578 181.641C76.7578 180.46 77.2847 179.641 77.8198 178.62C79.3153 175.7 80.6264 172.718 81.7383 169.629C81.4482 169.726 81.1582 169.823 80.8594 169.922C78.3474 170.122 76.0403 170.071 73.8281 168.751C73.7314 168.557 73.6348 168.364 73.5352 168.165C73.8082 167.987 74.0812 167.81 74.3626 167.627C77.8321 165.354 81.1244 162.983 84.1206 160.105C84.7964 159.463 85.234 159.089 86.1328 158.79C86.487 158.204 86.487 158.204 86.7188 157.618C86.9121 157.618 87.1055 157.618 87.3047 157.618C87.3689 157.46 87.4331 157.301 87.4992 157.138C88.118 156.044 89.0221 155.199 89.8933 154.303C90.8997 153.241 91.5998 152.174 92.2852 150.879C91.3184 150.783 90.3516 150.686 89.3555 150.587C89.3555 150.296 89.3555 150.006 89.3555 149.708C89.7446 149.361 89.7446 149.361 90.3076 148.994C93.7793 146.495 98.7228 141.782 99.6094 137.403C99.5286 136.715 99.5286 136.715 99.3164 135.938C99.2326 135.573 99.1487 135.208 99.0623 134.831C98.9643 134.425 98.8659 134.019 98.7671 133.613C98.7199 133.41 98.6727 133.208 98.624 133C98.2109 131.311 97.6455 129.947 96.5149 128.596C95.2625 127.086 95.1725 125.945 95.1785 124.044C95.1775 120.996 94.743 118.628 93.505 115.852C91.4394 111.195 90.1774 105.789 91.6992 100.782C91.8926 100.685 92.0859 100.588 92.2852 100.489C93.4803 101.584 94.23 102.686 95.0134 104.096C96.9685 107.443 99.3537 109.374 102.832 111.036C103.122 111.036 103.412 111.036 103.711 111.036C103.75 110.833 103.79 110.631 103.83 110.422C104.647 106.291 105.577 102.221 106.769 98.1817C106.87 97.8293 106.972 97.4769 107.077 97.1139C108.11 93.7018 109.471 90.3829 111.932 87.7447C112.094 87.5651 112.256 87.3854 112.423 87.2003C112.931 86.6432 113.446 86.0944 113.965 85.5475C114.132 85.369 114.3 85.1906 114.473 85.0067C116.855 82.4889 119.381 80.2793 122.168 78.2233C122.403 78.0449 122.403 78.0449 122.642 77.8629C139.339 65.2028 166.804 68.2777 181.964 81.6015Z" fill="black"/>
<path d="M162.598 148.828C166.671 149.551 169.458 151.469 171.922 154.777C172.535 155.663 173.057 156.595 173.566 157.544C173.662 157.724 173.759 157.903 173.858 158.088C174.317 158.979 174.677 159.842 174.931 160.808C175.018 161.108 175.105 161.409 175.195 161.719C175.389 161.815 175.582 161.912 175.781 162.012C175.424 162.667 175.064 163.319 174.701 163.971C174.552 164.246 174.552 164.246 174.399 164.527C173.721 165.738 172.997 166.64 171.973 167.578C171.524 166.387 171.079 165.196 170.644 164.001C170.533 163.699 170.533 163.699 170.42 163.391C170.269 162.978 170.118 162.564 169.969 162.15C169.532 160.952 169.532 160.952 168.75 159.961C167.993 159.912 167.993 159.912 167.285 159.961C167.245 160.205 167.206 160.448 167.165 160.699C167.014 161.615 166.861 162.531 166.708 163.446C166.642 163.84 166.577 164.234 166.512 164.628C165.58 170.341 165.58 170.341 164.429 171.698C163.357 172.144 162.873 172.246 161.719 171.973C160.69 170.744 159.882 169.392 159.375 167.871C159.375 169.189 159.681 169.701 160.319 170.801C160.595 171.51 160.504 171.853 160.254 172.559C159.412 172.742 159.412 172.742 158.496 172.852C158.303 172.658 158.109 172.465 157.91 172.266C157.717 172.556 157.523 172.846 157.324 173.145C156.562 173.23 156.562 173.23 155.676 173.199C155.382 173.192 155.089 173.184 154.786 173.175C154.56 173.165 154.334 173.155 154.102 173.145C154.02 172.894 153.939 172.644 153.856 172.386C153.749 172.062 153.643 171.738 153.534 171.405C153.429 171.082 153.323 170.759 153.215 170.427C153.006 169.664 153.006 169.664 152.637 169.336C152.782 171.076 152.782 171.076 152.93 172.852C150.899 173.142 150.899 173.142 148.828 173.438C148.292 172.098 148.175 171.503 148.206 170.123C148.211 169.81 148.216 169.497 148.222 169.175C148.228 168.938 148.235 168.701 148.242 168.457C148.049 168.457 147.855 168.457 147.656 168.457C147.635 168.712 147.635 168.712 147.613 168.972C147.282 172.429 147.282 172.429 146.1 173.419C145.179 173.783 144.768 173.786 143.848 173.438C143.654 173.147 143.461 172.857 143.262 172.559C143.165 172.752 143.068 172.945 142.969 173.145C141.696 173.193 140.857 173.183 139.746 172.559C139.879 172.052 140.014 171.545 140.149 171.039C140.224 170.757 140.298 170.475 140.376 170.184C140.61 169.388 140.89 168.635 141.211 167.871C141.018 167.871 140.824 167.871 140.625 167.871C140.592 168.081 140.559 168.291 140.524 168.507C140.321 169.384 140.011 170.075 139.6 170.874C139.47 171.129 139.34 171.385 139.206 171.648C138.867 172.266 138.867 172.266 138.574 172.559C138.02 172.628 138.02 172.628 137.329 172.65C136.991 172.667 136.991 172.667 136.647 172.683C135.597 172.499 135.189 172.182 134.473 171.387C134.15 170.453 134.012 169.506 133.868 168.53C133.776 167.978 133.682 167.425 133.587 166.873C133.517 166.461 133.517 166.461 133.446 166.04C133.232 164.856 132.956 163.691 132.66 162.524C132.587 162.229 132.587 162.229 132.512 161.927C132.326 161.013 132.326 161.013 131.836 160.254C131.348 160.242 130.859 160.241 130.371 160.254C129.121 162.477 128.455 164.852 127.734 167.285C126.52 166.88 126.148 166.035 125.5 164.996C125.381 164.812 125.262 164.627 125.139 164.437C124.569 163.539 124.145 162.757 123.926 161.719C124.119 161.719 124.312 161.719 124.512 161.719C124.614 161.368 124.717 161.018 124.823 160.657C126.226 156.537 128.481 152.442 132.428 150.261C133.757 149.663 135.054 149.121 136.523 149.121C136.566 149.541 136.566 149.541 136.61 149.969C137.047 153.742 137.843 157.67 140.982 160.19C141.154 160.308 141.326 160.425 141.504 160.547C141.345 160.277 141.345 160.277 141.183 160.001C141.048 159.764 140.912 159.527 140.771 159.283C140.636 159.049 140.5 158.814 140.359 158.573C140.039 157.91 140.039 157.91 140.039 157.031C142.14 157.397 143.435 158.593 145.02 159.961C145.225 160.137 145.43 160.314 145.642 160.495C145.823 160.651 146.005 160.807 146.191 160.968C147.318 161.93 147.766 162.057 149.213 162.067C149.489 162.071 149.766 162.075 150.051 162.079C151.782 161.938 152.661 161.207 153.882 160.016C155.641 158.375 157.267 157.144 159.668 156.738C159.232 158.439 158.323 159.72 157.324 161.133C160.105 159.742 161.164 157.145 162.305 154.395C162.672 153.292 162.629 152.264 162.616 151.117C162.614 150.788 162.614 150.788 162.612 150.451C162.609 149.91 162.603 149.369 162.598 148.828Z" fill="black"/>
<path d="M124.511 174.609C124.608 174.803 124.705 174.996 124.804 175.195C124.224 175.389 123.644 175.582 123.047 175.781C123.143 175.975 123.24 176.168 123.34 176.367C123.493 176.269 123.647 176.171 123.805 176.07C125.937 175.199 128.936 176.112 131.135 176.537C133.119 176.887 134.416 176.519 136.23 175.781C136.424 175.781 136.617 175.781 136.816 175.781C137.009 176.168 137.203 176.555 137.402 176.953C137.481 176.724 137.559 176.494 137.64 176.257C137.988 175.488 137.988 175.488 138.867 174.902C140.49 174.664 141.894 174.824 143.261 175.781C143.666 176.645 143.57 176.906 143.261 177.832C147.612 177.832 151.963 177.832 156.445 177.832C156.3 176.672 156.3 176.672 156.152 175.488C156.467 174.909 156.467 174.909 157.031 174.609C158.867 174.339 160.77 174.357 162.304 175.488C162.707 176.129 162.707 176.129 162.89 176.66C162.987 176.37 163.084 176.08 163.183 175.781C165.126 176.043 165.126 176.043 165.776 176.232C166.603 176.41 167.366 176.378 168.212 176.355C168.565 176.348 168.918 176.342 169.282 176.336C170.019 176.32 170.756 176.301 171.493 176.279C173.769 176.246 175.505 176.489 177.539 177.539C176.682 176.577 175.853 176.379 174.609 176.074C175.64 175.387 176.032 175.318 177.246 175.488C178.335 176.287 178.665 176.74 178.949 178.07C178.967 178.378 178.985 178.686 179.004 179.004C178.714 179.101 178.424 179.197 178.125 179.297C177.992 179.436 177.859 179.575 177.722 179.718C177.127 180.29 176.552 180.48 175.781 180.762C175.575 180.871 175.37 180.979 175.158 181.091C174.609 181.348 174.609 181.348 173.73 181.348C173.73 181.638 173.73 181.928 173.73 182.227C174.02 182.227 174.31 182.227 174.609 182.227C174.609 182.42 174.609 182.613 174.609 182.813C174.237 182.767 173.866 182.721 173.483 182.674C166.612 181.924 159.706 182.332 152.818 182.661C149.828 182.803 146.886 182.78 143.896 182.641C138.458 182.395 132.941 182.208 127.54 182.977C126.709 183.086 125.933 183.131 125.097 183.105C125.5 182.666 125.5 182.666 125.976 182.227C126.17 182.227 126.363 182.227 126.562 182.227C126.562 182.033 126.562 181.84 126.562 181.641C126.392 181.633 126.222 181.626 126.047 181.618C124.132 181.479 122.946 181.032 121.618 179.572C121.101 178.221 121.096 176.915 121.289 175.488C122.111 174.042 123.003 174.211 124.511 174.609Z" fill="black"/>
<path d="M101.659 155.566C101.756 155.566 101.853 155.566 101.952 155.566C102.022 158.219 101.813 160.791 101.495 163.422C101.444 163.855 101.393 164.288 101.343 164.721C101.002 167.608 100.635 170.491 100.267 173.375C100.222 173.726 100.177 174.078 100.13 174.44C99.906 176.193 99.68 177.946 99.4512 179.698C98.7305 185.249 98.1642 190.794 97.8142 196.381C97.7887 196.776 97.7632 197.171 97.7375 197.567C97.6768 198.508 97.6169 199.449 97.5578 200.391C97.1184 199.988 97.1184 199.988 96.6789 199.512C96.6789 199.318 96.6789 199.125 96.6789 198.926C96.4856 198.926 96.2922 198.926 96.093 198.926C96.093 202.02 96.093 205.113 96.093 208.301C95.5129 208.591 95.5129 208.591 94.9211 208.887C94.9211 208.5 94.9211 208.113 94.9211 207.715C94.7278 207.715 94.5344 207.715 94.3352 207.715C93.4473 210.015 93.1428 212.313 92.8703 214.746C91.153 213.029 91.6273 209.451 91.6169 207.171C91.6169 206.302 91.6206 205.434 91.6252 204.565C91.6266 204.118 91.6266 204.118 91.628 203.661C91.6733 190.965 93.7654 179.982 97.8244 167.967C99.0339 164.377 100.124 160.759 101.169 157.118C101.322 156.597 101.488 156.081 101.659 155.566Z" fill="black"/>
<path d="M197.754 157.031C198.34 157.324 198.34 157.324 198.559 157.833C198.628 158.055 198.697 158.277 198.768 158.505C198.847 158.758 198.927 159.01 199.009 159.27C199.094 159.546 199.178 159.823 199.266 160.107C199.355 160.393 199.445 160.679 199.537 160.973C199.73 161.586 199.921 162.199 200.112 162.813C200.605 164.401 201.106 165.988 201.607 167.574C201.705 167.884 201.803 168.194 201.904 168.513C202.627 170.787 203.402 173.033 204.236 175.269C208.486 186.792 208.44 199.093 208.301 211.23C207.484 210.822 207.344 210.303 206.946 209.491C206.815 209.228 206.684 208.966 206.55 208.696C206.25 208.008 206.25 208.008 206.25 207.422C205.38 207.325 204.51 207.229 203.613 207.129C203.613 207.322 203.613 207.516 203.613 207.715C203.42 207.715 203.227 207.715 203.027 207.715C203.038 207.461 203.048 207.206 203.059 206.944C203.097 206.002 203.133 205.06 203.169 204.117C203.184 203.709 203.2 203.301 203.217 202.893C203.241 202.307 203.263 201.721 203.285 201.134C203.299 200.782 203.312 200.429 203.327 200.065C203.383 199.236 203.383 199.236 203.027 198.633C202.302 199.213 202.302 199.213 201.562 199.805C201.55 199.545 201.55 199.545 201.537 199.281C200.977 187.843 200.122 176.529 198.534 165.188C198.157 162.47 197.895 159.772 197.754 157.031Z" fill="black"/>
<path d="M175.781 168.163C176.692 169.985 175.97 172.37 175.445 174.214C175.195 174.901 175.195 174.901 174.609 175.78C174.416 175.78 174.223 175.78 174.023 175.78C173.967 175.529 173.91 175.278 173.852 175.019C173.375 172.887 173.375 172.887 172.797 170.782C172.559 169.921 172.559 169.921 172.559 168.749C172.93 168.593 173.302 168.441 173.676 168.291C173.883 168.206 174.09 168.121 174.304 168.034C174.902 167.87 174.902 167.87 175.781 168.163Z" fill="black"/>
<path d="M123.633 167.871C124.118 168.029 124.6 168.195 125.08 168.365C125.348 168.457 125.617 168.549 125.894 168.644C126.563 169.043 126.563 169.043 126.834 169.703C126.861 170.684 126.659 171.41 126.343 172.339C126.242 172.649 126.141 172.958 126.037 173.277C125.92 173.524 125.804 173.77 125.684 174.023C125.394 174.12 125.104 174.217 124.805 174.316C123.981 172.299 123.318 170.368 123.34 168.164C123.437 168.067 123.534 167.971 123.633 167.871Z" fill="black"/>
<path d="M171.973 133.886C171.516 135.12 170.659 135.745 169.629 136.523C168.746 136.817 168.152 136.846 167.23 136.834C166.966 136.832 166.702 136.829 166.43 136.826C166.229 136.823 166.028 136.82 165.82 136.816C165.82 136.526 165.82 136.236 165.82 135.937C166.437 135.65 167.053 135.363 167.67 135.077C168.185 134.837 168.185 134.837 168.71 134.592C169.878 134.067 170.702 133.852 171.973 133.886Z" fill="black"/>
<path d="M127.148 133.594C128.752 133.753 129.956 134.342 131.36 135.077C131.576 135.187 131.791 135.298 132.013 135.412C132.541 135.682 133.068 135.956 133.594 136.23C133.497 136.424 133.4 136.617 133.301 136.816C131.375 137.03 130.315 136.584 128.672 135.586C127.951 134.996 127.58 134.413 127.148 133.594Z" fill="black"/>
<path d="M189.551 154.395C189.844 154.98 189.844 154.98 189.588 155.786C189.045 157.508 189.06 159.343 188.965 161.133C188.379 160.84 188.379 160.84 188.12 160.222C188.042 159.967 187.965 159.711 187.885 159.448C187.805 159.196 187.726 158.944 187.644 158.684C187.482 157.812 187.523 157.288 187.794 156.445C188.207 155.854 188.207 155.854 188.691 155.328C188.851 155.151 189.012 154.974 189.177 154.792C189.301 154.661 189.424 154.53 189.551 154.395Z" fill="black"/>
<path d="M109.863 154.102C110.924 154.876 111.755 155.488 112.207 156.738C112.091 158.303 111.798 159.753 111.035 161.133C110.76 160.178 110.677 159.266 110.614 158.276C110.503 156.819 110.268 155.504 109.863 154.102Z" fill="black"/>
<path d="M177.246 175.489C178.335 176.288 178.666 176.741 178.949 178.071C178.967 178.379 178.985 178.687 179.004 179.005C178.714 179.15 178.714 179.15 178.418 179.298C178.065 178.614 177.784 177.98 177.539 177.247C176.864 176.934 176.18 176.642 175.488 176.368C175.198 176.175 174.908 175.981 174.609 175.782C175.595 175.454 176.213 175.365 177.246 175.489Z" fill="black"/>
<path d="M125.098 137.695C125.874 138.023 126.649 138.352 127.423 138.684C127.755 138.823 127.755 138.823 128.093 138.966C129.752 139.68 129.752 139.68 130.078 140.332C128.001 140.084 126.549 139.85 125.098 138.281C125.098 138.088 125.098 137.895 125.098 137.695Z" fill="black"/>
<path d="M174.609 138.281C172.919 139.518 171.406 140.048 169.336 140.332C170.175 139.671 171.024 139.139 171.973 138.647C172.22 138.516 172.468 138.384 172.723 138.249C173.51 137.961 173.839 137.988 174.609 138.281Z" fill="black"/>
</svg>
