<svg width="300" height="300" viewBox="0 0 300 300" fill="none" xmlns="http://www.w3.org/2000/svg">
<path d="M244.051 102.003C245.384 103.239 245.869 104.209 245.946 106.019C245.946 106.671 245.94 107.324 245.929 107.977C245.931 108.306 245.933 108.635 245.935 108.974C245.922 110.637 245.906 111.694 244.922 113.085C243.699 114.267 242.242 114.888 240.71 115.576C240.264 115.778 240.264 115.778 239.808 115.985C234.133 118.533 228.386 120.92 222.656 123.339C222.36 123.464 222.065 123.589 221.76 123.718C220.025 124.451 218.29 125.183 216.555 125.915C215.724 126.266 214.893 126.617 214.062 126.968C213.661 127.137 213.661 127.137 213.253 127.309C212.729 127.531 212.205 127.752 211.682 127.973C210.293 128.56 208.903 129.145 207.513 129.729C206.572 130.124 205.633 130.522 204.693 130.92C204.372 131.054 204.051 131.188 203.72 131.326C198.628 133.491 195.692 136.981 192.919 141.67C192.48 142.382 192.48 142.382 191.963 143.098C190.168 145.75 190.145 147.984 190.186 151.065C190.184 151.56 190.182 152.056 190.179 152.551C190.173 153.848 190.178 155.145 190.187 156.442C190.199 158.512 190.192 160.581 190.186 162.651C190.186 163.365 190.19 164.078 190.195 164.791C190.204 167.021 190.134 169.214 189.881 171.431C189.858 171.628 189.836 171.826 189.813 172.029C189.044 178.062 185.451 183.181 180.762 186.914C180.484 187.135 180.206 187.357 179.92 187.585C174.853 191.478 168.905 193.971 162.89 195.996C162.614 196.089 162.338 196.182 162.053 196.278C152.336 199.501 142.045 201.225 131.836 201.855C131.579 201.872 131.323 201.888 131.059 201.905C110.014 203.211 82.9836 201.919 65.9178 188.085C65.6886 187.902 65.6886 187.902 65.4548 187.715C59.2773 182.745 55.2355 176.531 54.2617 168.543C54.1499 167.344 54.1533 166.147 54.1518 164.944C54.1503 164.661 54.1489 164.377 54.1474 164.086C54.1431 163.155 54.1411 162.224 54.1395 161.293C54.1387 160.973 54.1378 160.653 54.137 160.323C54.1326 158.63 54.1299 156.938 54.1286 155.245C54.127 153.504 54.12 151.763 54.1116 150.022C54.1062 148.676 54.1047 147.331 54.1042 145.985C54.1033 145.344 54.101 144.702 54.0971 144.061C54.0645 138.231 54.5656 133.731 58.7732 129.314C59.004 129.083 59.2347 128.851 59.4724 128.613C59.682 128.396 59.8916 128.18 60.1076 127.957C74.4788 114.031 100.975 113.013 119.732 113.031C120.074 113.031 120.416 113.031 120.768 113.031C138.163 113.055 155.774 115.017 172.056 121.493C178.906 123.892 188.549 119.072 194.824 116.436C195.416 116.19 196.007 115.943 196.599 115.697C197.832 115.183 199.065 114.669 200.297 114.153C202.084 113.405 203.873 112.66 205.662 111.916C212.391 109.116 212.391 109.116 219.113 106.299C220.394 105.76 221.676 105.222 222.958 104.685C223.566 104.43 224.174 104.174 224.781 103.917C238.403 98.1603 238.403 98.1603 244.051 102.003ZM230.566 108.398C230.47 108.688 230.373 108.978 230.273 109.277C232.646 110.44 236.086 110.197 238.55 109.368C239.775 108.848 240.573 108.26 241.406 107.226C241.13 106.473 240.921 106.117 240.234 105.688C236.759 104.819 233.229 106.076 230.566 108.398ZM97.8514 117.48C97.5075 117.528 97.1636 117.576 96.8094 117.625C83.9161 119.477 68.1102 122.622 59.7082 133.551C58.1047 135.929 56.9775 138.589 57.4217 141.503C58.9553 146.979 63.4758 150.473 68.2134 153.164C73.8939 156.283 79.8866 158.299 86.1326 159.96C86.5154 160.063 86.5154 160.063 86.9059 160.167C103.218 164.435 121.305 164.827 137.988 163.183C138.273 163.155 138.273 163.155 138.563 163.127C147.225 162.274 155.736 160.795 164.062 158.203C164.44 158.087 164.44 158.087 164.826 157.969C172.633 155.54 182.124 151.656 186.328 144.14C187.313 141.699 187.107 139.47 186.149 137.06C182.494 129.615 174.088 125.758 166.699 123.046C166.487 122.968 166.275 122.889 166.057 122.808C144.925 115.042 119.966 114.392 97.8514 117.48Z" fill="black"/>
<path d="M179.297 133.008C179.551 133.212 179.805 133.415 180.067 133.625C181.88 135.151 183.131 136.799 184.277 138.867C184.398 139.068 184.519 139.269 184.644 139.475C184.914 140.17 184.817 140.52 184.57 141.211C184.442 141.013 184.314 140.814 184.181 140.609C177.645 131.017 163.64 127.371 152.889 125.268C142.213 123.25 131.488 122.394 120.63 122.388C120.277 122.388 119.923 122.387 119.56 122.387C113.36 122.391 107.234 122.643 101.074 123.34C100.879 123.362 100.683 123.384 100.482 123.407C86.9334 124.947 70.4259 127.774 60.9375 138.574C60.3044 139.428 59.7224 140.298 59.1797 141.211C58.8868 140.625 58.8868 140.625 59.0962 139.902C59.9945 137.675 61.0898 135.96 62.6953 134.18C62.8445 134.004 62.9937 133.827 63.1474 133.646C74.0577 121.613 96.4729 120.104 111.58 119.359C132.638 118.407 162.234 118.841 179.297 133.008Z" fill="black"/>
</svg>
