<svg width="300" height="300" viewBox="0 0 300 300" fill="none" xmlns="http://www.w3.org/2000/svg">
<path d="M147.832 74.1216C138.809 75.5571 130.752 79.7759 124.336 86.4849C120.088 90.938 117.686 94.688 115.723 99.9028L114.668 102.686L111.885 103.448C105.234 105.235 100.781 107.608 96.5039 111.68C88.125 119.59 84.4043 131.133 86.543 142.5L86.9238 144.493L85.3418 145.196C79.2188 147.92 76.084 152.608 76.084 159.083C76.084 161.221 76.2598 162.217 77.4023 165.967C78.1348 168.37 79.7754 173.995 81.0059 178.418C88.6816 205.665 91.1719 214.161 92.1973 216.211C93.6914 219.288 96.8848 222.481 99.9023 223.916C104.268 225.997 101.133 225.879 155.859 225.879C210.557 225.879 206.279 226.055 207.393 223.887C207.92 222.862 208.857 218.965 210.498 210.938C210.879 209.092 212.607 201.241 214.307 193.506C222.48 156.534 224.707 146.045 224.707 144.698C224.707 143.702 224.121 142.383 223.359 141.768C223.037 141.504 221.836 141.299 219.697 141.211L216.504 141.065L216.387 137.403C216.182 131.69 214.834 127.178 211.699 121.875C208.945 117.159 203.232 112.266 198.545 110.596C197.197 110.098 196.67 109.747 196.523 109.249C193.418 98.7602 190.4 93.0767 184.775 87.1294C178.77 80.8013 171.504 76.5825 163.184 74.6489C160.342 74.0044 150.82 73.6821 147.832 74.1216ZM163.535 80.2153C177.51 83.8188 187.998 95.2446 191.309 110.391C192.041 113.672 192.48 114.229 195 114.991C202.5 117.276 208.184 123.458 210.381 131.69C211.025 134.063 211.318 139.6 210.879 140.684C210.674 141.182 209.355 141.211 188.965 141.211C165.088 141.211 166.143 141.124 164.443 143.057C163.535 144.083 162.773 146.866 159.873 159.522L159.521 160.987H146.338H133.154L131.895 160.313C130.986 159.844 130.312 159.112 129.551 157.881C126.035 152.198 121.787 146.133 120.322 144.668C119.326 143.672 117.861 142.618 116.807 142.12C112.295 139.981 108.457 140.098 92.9883 142.881C91.875 143.057 91.8164 142.94 91.377 139.366C90.9668 136.084 91.2305 132.598 92.1387 129.024C94.9512 117.95 103.477 110.245 115.459 107.959C116.807 107.725 118.125 107.286 118.418 107.022C118.711 106.758 119.297 105.44 119.707 104.063C122.754 94.102 130.811 85.4009 140.654 81.4751C145.225 79.6587 148.711 79.102 155.127 79.2485C159.521 79.3364 160.518 79.4536 163.535 80.2153ZM114.287 146.69C114.99 147.012 116.016 147.627 116.514 148.067C117.598 148.975 122.314 155.743 124.189 159.053C126.504 163.155 128.086 164.62 131.572 165.879L133.447 166.553L149.971 166.495C166.934 166.407 174.551 166.114 177.1 165.44C179.443 164.795 181.406 163.653 184.014 161.397C185.361 160.254 187.324 158.907 188.379 158.409C190.225 157.53 190.4 157.5 196.143 157.295C203.936 157.002 216.797 156.973 216.797 157.237C216.797 157.383 216.592 158.262 216.387 159.229C215.186 164.327 205.488 208.624 204.17 215.04C203.672 217.53 203.115 219.815 202.969 220.108C202.705 220.606 200.361 220.606 153.867 220.518C108.486 220.459 104.941 220.401 103.594 219.932C100.43 218.819 97.9102 216.563 96.709 213.809C95.918 211.934 94.8047 208.155 89.3555 188.672C86.748 179.415 83.9648 169.6 83.1738 166.846C81.2402 160.313 81.0352 159.229 81.4453 156.973C82.5 151.26 86.0156 149.385 100.049 147.071C106.992 145.928 106.934 145.928 110.186 146.045C112.207 146.104 113.379 146.309 114.287 146.69ZM218.848 147.012C218.848 147.979 218.174 151.026 217.91 151.319C217.734 151.495 212.607 151.67 204.404 151.788C189.873 151.993 189.023 152.081 185.713 153.838C184.805 154.336 182.754 155.772 181.172 157.061C179.502 158.379 177.715 159.551 176.953 159.815C174.609 160.606 165.234 161.221 165.234 160.606C165.234 160.137 167.93 148.36 168.34 146.983C168.486 146.514 169.951 146.485 193.682 146.485C217.881 146.485 218.848 146.514 218.848 147.012Z" fill="black"/>
</svg>
