<svg width="300" height="300" viewBox="0 0 300 300" fill="none" xmlns="http://www.w3.org/2000/svg">
<path d="M143.408 46.4648C138.838 46.9629 131.309 48.6035 127.793 49.8633C118.857 52.998 109.98 59.9121 106.816 66.123C105.85 68.0859 104.883 72.0117 104.883 74.1211C104.912 84.6094 116.133 95.6543 134.502 103.213C138.252 104.766 142.09 106.055 152.49 109.307C166.582 113.701 173.232 116.104 180 119.355C194.59 126.328 203.057 134.766 208.008 147.187C211.26 155.449 211.758 165.703 209.385 177.012C208.945 179.121 208.975 179.297 209.854 179.297C212.197 179.297 218.643 170.889 223.037 162.129C225.908 156.416 228.457 149.355 229.658 143.73C232.207 131.924 232.119 117.48 229.424 106.494C223.418 82.1191 206.25 62.1387 183.018 52.4707C171.562 47.7246 154.746 45.1465 143.408 46.4648Z" fill="black"/>
<path d="M98.086 69.4914C89.8829 78.6027 85.4297 87.1867 83.1739 98.1437C82.2071 102.831 82.2071 111.327 83.1739 119.53C84.1114 127.499 83.9649 130.868 82.5 135.058C80.5957 140.361 77.2852 146.044 72.5098 152.05C70.2247 154.95 69.5508 156.298 69.8438 157.47C70.1075 158.495 71.2207 159.14 75 160.517C81.8262 163.007 82.4707 163.505 82.8223 166.435C82.9688 167.577 82.8223 168.163 82.002 169.95C80.8594 172.411 80.7422 173.935 81.6211 175.107C82.3243 176.044 85.6055 177.831 86.7188 177.861C87.4219 177.861 87.4219 177.89 86.8653 178.212C85.5176 179.032 84.668 180.146 84.668 181.054C84.668 182.489 85.4004 183.573 88.5059 186.796C92.3731 190.839 92.6368 191.806 91.1133 196.2C89.5606 200.653 90.1465 202.939 93.2227 204.521C97.9395 206.952 105.557 206.952 117.188 204.579C127.383 202.47 130.283 202.616 132.891 205.429C135.996 208.71 137.461 213.573 137.461 220.458C137.461 224.179 136.67 233.876 136.348 234.433C136.084 234.814 137.08 235.048 137.52 234.696C138.545 233.847 140.332 223.739 140.537 217.675C140.918 206.22 137.578 200.624 129.668 199.54C127.383 199.218 122.256 199.628 118.506 200.39C109.072 202.353 98.9063 202.88 96.3282 201.532C95.0977 200.917 94.043 199.687 93.7207 198.544C93.4864 197.636 93.545 196.933 94.1602 194.53C95.5079 189.374 95.2149 188.056 91.875 184.599C89.3262 181.962 88.9161 181.288 89.3555 180.468C89.8536 179.56 91.1719 179.032 95.1563 178.153C99.1993 177.275 99.9024 176.806 98.877 175.81C98.3789 175.312 97.6172 175.194 93.2813 174.931C88.0664 174.638 85.6055 174.198 85.3711 173.583C85.2832 173.378 85.5176 172.236 85.8985 171.064C86.8946 167.87 86.8653 163.622 85.8399 161.571C85.0196 159.902 84.4336 159.579 80.5664 158.349C78.545 157.704 74.9414 156.152 74.4434 155.683C74.3848 155.653 74.9414 154.833 75.6446 153.896C80.2149 147.861 84.2579 141.152 86.2207 136.318C88.125 131.63 88.3594 127.528 87.3047 117.48C86.3086 107.812 86.5723 101.777 88.3594 93.8371C90.0879 86.0441 93.6622 78.4562 99.4336 70.1652C100.342 68.8761 101.074 67.675 101.074 67.4699C101.074 66.591 100.107 67.2355 98.086 69.4914Z" fill="black"/>
<path d="M99.0229 78.6621C98.5541 79.2188 98.7885 81.8262 99.6381 85.752C102.275 97.9688 109.482 107.783 121.083 114.902C127.617 118.916 132.451 121.113 148.388 127.295C160.869 132.158 165.38 134.326 171.679 138.516C176.542 141.768 181.523 146.455 184.335 150.439C189.55 157.852 192.187 166.523 192.187 176.162C192.187 181.26 191.748 184.482 190.283 190.02C189.726 192.158 189.257 194.209 189.257 194.648C189.257 195.293 189.374 195.41 190.136 195.41C190.869 195.41 191.455 195 193.154 193.301C201.093 185.332 206.044 174.17 205.986 164.355C205.956 153.867 200.566 142.559 192.275 135.615C184.101 128.73 173.378 123.838 150.292 116.338C134.179 111.094 128.876 108.984 122.373 105.176C111.035 98.5547 103.124 89.6484 100.986 81.123C100.283 78.3105 99.8139 77.7246 99.0229 78.6621Z" fill="black"/>
<path d="M204.785 198.222C193.066 201.181 185.508 204.17 177.187 209.121C162.627 217.822 150.059 228.955 141.562 240.703C138.926 244.365 134.473 252.217 134.473 253.242C134.473 254.004 135.41 254.033 136.348 253.301C136.846 252.92 138.311 251.631 139.6 250.459C155.361 235.986 170.42 225.351 187.939 216.328C196.26 212.051 199.98 210.469 213.721 205.459C214.863 205.049 215.859 204.551 215.977 204.375C216.299 203.877 215.977 203.086 214.541 200.83C212.754 198.076 211.582 196.875 210.674 196.904C210.234 196.904 207.598 197.49 204.785 198.222Z" fill="black"/>
</svg>
