<svg width="300" height="300" viewBox="0 0 300 300" fill="none" xmlns="http://www.w3.org/2000/svg">
<path d="M182.904 82.8545C185.869 85.9397 187.521 89.7994 188.775 93.8328C190.204 98.4195 192.153 102.755 195.41 106.347C195.607 106.582 195.804 106.817 196.008 107.059C200.666 112.497 206.793 115.616 213.072 118.829C214.197 119.407 215.314 120 216.431 120.593C218.881 121.887 221.346 123.154 223.811 124.42C224.484 124.766 225.158 125.112 225.831 125.458C226.051 125.571 226.271 125.684 226.498 125.801C226.936 126.027 227.375 126.252 227.814 126.478C228.805 126.987 229.795 127.496 230.786 128.004C231.727 128.486 232.667 128.97 233.606 129.455C234.01 129.661 234.01 129.661 234.422 129.871C236.662 131.031 238.228 132.17 239.355 134.472C239.761 135.892 239.696 136.936 239.115 138.27C236.919 142.06 231.762 143.874 228.001 145.783C224.872 147.373 221.753 148.975 218.683 150.677C215.442 152.472 212.14 154.153 208.796 155.747C208.017 156.122 208.017 156.122 207.404 156.588C206.79 157.014 206.409 157.226 205.664 157.324C204.248 156.893 203.005 156.17 201.727 155.438C201.35 155.23 200.972 155.024 200.593 154.818C199.821 154.397 199.051 153.973 198.283 153.544C196.668 152.647 195.022 151.812 193.378 150.97C191.17 149.826 188.981 148.655 186.804 147.454C183.767 145.779 180.682 144.2 177.594 142.621C174.742 141.163 171.911 139.678 169.108 138.127C166.814 136.864 164.488 135.667 162.158 134.472C159.269 132.99 156.401 131.481 153.558 129.913C151.462 128.76 149.343 127.657 147.217 126.562C144.832 125.333 142.461 124.086 140.112 122.79C137.524 121.363 134.905 120.001 132.275 118.652C129.359 117.156 126.463 115.633 123.593 114.051C121.715 113.018 119.822 112.02 117.92 111.034C115.732 109.901 113.56 108.743 111.401 107.555C108.667 106.052 105.903 104.613 103.129 103.184C101.098 102.135 99.0838 101.062 97.0825 99.9566C94.1807 98.3555 91.2369 96.8418 88.2872 95.3317C85.1238 93.7114 81.989 92.0476 78.8784 90.3275C77.8901 89.7818 76.8935 89.2638 75.8789 88.7688C76.6555 87.8562 77.633 87.3852 78.685 86.8565C78.9778 86.7068 78.9778 86.7068 79.2765 86.554C79.9254 86.2226 80.5755 85.8935 81.2256 85.5645C81.6848 85.3305 82.144 85.0963 82.6031 84.862C83.574 84.3667 84.5454 83.8721 85.517 83.3781C86.9882 82.6293 88.4566 81.8752 89.9242 81.1196C92.0783 80.0107 94.2342 78.9052 96.3919 77.8033C97.7097 77.1301 99.0259 76.454 100.341 75.7748C101.127 75.3695 101.915 74.9674 102.704 74.5661C103.227 74.2984 103.749 74.0271 104.271 73.7557C107.801 71.9681 111.495 70.8797 115.375 70.1287C115.683 70.0685 115.991 70.0084 116.309 69.9464C137.609 65.9537 166.211 67.152 182.904 82.8545Z" fill="black"/>
<path d="M77.6373 93.75C78.8615 94.13 79.9664 94.5932 81.1014 95.1874C81.4239 95.3554 81.7464 95.5234 82.0787 95.6966C82.4197 95.876 82.7608 96.0554 83.1122 96.2402C83.4709 96.4279 83.8297 96.6154 84.1886 96.8028C84.9027 97.1761 85.6164 97.5501 86.3297 97.9249C87.1441 98.3528 87.9592 98.7795 88.7747 99.2054C91.6576 100.714 94.5244 102.252 97.3903 103.793C99.9135 105.149 102.448 106.48 104.993 107.794C107.217 108.943 109.403 110.128 111.566 111.388C112.557 111.946 113.567 112.457 114.588 112.958C116.783 114.035 118.936 115.185 121.088 116.345C123.865 117.842 126.652 119.313 129.456 120.758C132.078 122.11 134.677 123.496 137.26 124.919C139.667 126.24 142.106 127.496 144.547 128.751C146.858 129.939 149.154 131.148 151.429 132.404C154.005 133.825 156.611 135.181 159.229 136.523C162.131 138.012 165.012 139.528 167.869 141.102C170.784 142.705 173.742 144.226 176.697 145.755C179.807 147.366 182.9 149.009 185.985 150.668C186.332 150.854 186.678 151.041 187.025 151.227C187.196 151.319 187.367 151.411 187.544 151.506C190.669 153.185 193.813 154.823 196.969 156.442C198.812 157.389 200.638 158.356 202.442 159.375C202.471 161.032 202.492 162.689 202.506 164.346C202.512 164.909 202.52 165.471 202.53 166.034C202.644 172.469 202.644 172.469 200.739 175.031C200.098 175.488 200.098 175.488 199.261 175.838C197.591 176.539 196.005 177.412 194.404 178.253C192.403 179.301 190.404 180.346 188.379 181.348C187.961 181.557 187.543 181.766 187.125 181.975C185.981 182.547 184.836 183.119 183.692 183.691C184.852 184.368 186.012 185.045 187.208 185.742C187.111 186.032 187.014 186.322 186.915 186.621C186.329 186.328 186.329 186.328 185.816 185.925C185.05 185.372 184.25 184.977 183.399 184.57C183.216 185.597 183.14 186.483 183.399 187.5C184.124 188.105 184.829 188.473 185.688 188.862C185.899 188.993 186.111 189.123 186.329 189.258C186.329 189.645 186.329 190.031 186.329 190.43C185.152 190.062 184.083 189.63 182.993 189.056C182.697 188.902 182.401 188.747 182.096 188.587C181.783 188.422 181.469 188.256 181.147 188.086C180.819 187.914 180.491 187.742 180.154 187.565C179.491 187.217 178.827 186.868 178.165 186.519C177.383 186.107 176.6 185.696 175.816 185.287C173.836 184.25 171.861 183.204 169.894 182.143C165.447 179.745 160.972 177.412 156.474 175.111C156.017 174.877 155.56 174.643 155.104 174.409C154.884 174.297 154.665 174.185 154.439 174.069C152.624 173.139 150.816 172.196 149.013 171.241C147.15 170.254 145.28 169.282 143.409 168.311C141.035 167.078 138.665 165.84 136.3 164.591C135.014 163.913 133.726 163.24 132.435 162.572C129.558 161.084 126.689 159.587 123.853 158.02C120.695 156.277 117.483 154.642 114.27 153.001C111.339 151.504 108.427 149.984 105.548 148.389C103.135 147.06 100.687 145.801 98.2367 144.543C98.0249 144.435 97.8132 144.326 97.5951 144.214C96.7667 143.789 95.9384 143.364 95.11 142.939C92.1719 141.431 89.2538 139.886 86.3392 138.334C85.3552 137.809 84.371 137.285 83.3868 136.761C83.1861 136.655 82.9853 136.548 82.7784 136.437C80.0786 135.001 77.3706 133.581 74.6512 132.182C73.1058 131.386 71.5626 130.586 70.0201 129.785C69.7628 129.652 69.7628 129.652 69.5003 129.515C68.3338 128.909 67.1713 128.296 66.0101 127.679C65.7123 127.525 65.4146 127.37 65.1078 127.21C64.8364 127.065 64.5651 126.919 64.2855 126.77C63.9294 126.581 63.9294 126.581 63.566 126.389C62.9068 125.918 62.686 125.557 62.4029 124.805C62.0372 121.836 62.5303 118.577 64.2054 116.082C66.0967 113.803 69.0357 112.626 71.635 111.326C73.6765 110.293 75.4112 109.371 76.4105 107.208C76.5272 106.963 76.6439 106.718 76.7641 106.466C77.3535 105.021 77.4043 103.651 77.437 102.104C77.4431 101.865 77.4492 101.626 77.4555 101.38C77.4746 100.619 77.4919 99.8578 77.5091 99.0967C77.5218 98.5798 77.5346 98.0629 77.5475 97.546C77.5788 96.2807 77.6085 95.0154 77.6373 93.75ZM79.838 114.153C79.5191 114.32 79.2002 114.487 78.8716 114.659C78.5307 114.841 78.1899 115.023 77.8387 115.21C77.4858 115.396 77.1327 115.582 76.7796 115.768C76.2373 116.054 75.6953 116.34 75.1537 116.626C73.9554 117.261 72.7524 117.886 71.5456 118.505C71.2385 118.663 70.9314 118.821 70.615 118.983C70.0337 119.282 69.452 119.58 68.8696 119.877C68.4784 120.079 68.4784 120.079 68.0792 120.285C67.8519 120.402 67.6245 120.519 67.3903 120.639C66.802 120.993 66.3791 121.369 65.9186 121.875C66.8083 122.829 67.5623 123.361 68.8483 123.633C70.8326 123.124 72.6547 122.019 74.4147 120.996C74.2696 120.271 74.2696 120.271 74.1217 119.531C74.312 119.432 74.5023 119.334 74.6984 119.232C75.5745 118.777 76.4503 118.321 77.326 117.865C77.6253 117.71 77.9246 117.554 78.233 117.394C80.0028 116.472 81.7589 115.532 83.4967 114.551C83.4967 114.357 83.4967 114.164 83.4967 113.965C82.0672 113.012 81.2457 113.407 79.838 114.153ZM84.6033 116.643C84.4218 116.738 84.2403 116.832 84.0533 116.93C83.4705 117.234 82.8884 117.54 82.3065 117.847C76.4608 120.919 76.4608 120.919 73.6639 121.875C72.287 122.364 71.0184 122.951 69.7272 123.633C70.6644 124.628 71.6185 125.32 72.9498 125.684C75.0452 125.484 77.0271 124.076 78.8092 123.047C78.7125 122.37 78.6158 121.693 78.5162 120.996C78.722 121.018 78.9279 121.039 79.1399 121.061C80.2415 120.976 80.803 120.562 81.7206 119.952C83.7034 118.667 85.7616 117.623 87.8912 116.602C87.4884 116.15 87.4884 116.15 87.0123 115.723C86.0826 115.723 85.4201 116.213 84.6033 116.643ZM88.7804 118.774C88.4996 118.923 88.2188 119.073 87.9294 119.227C87.6328 119.388 87.3362 119.549 87.0306 119.714C86.4187 120.04 85.8064 120.364 85.1938 120.688C84.8998 120.844 84.6057 121 84.3028 121.16C81.8558 122.441 79.342 123.507 76.7504 124.46C75.8442 124.819 74.9869 125.236 74.1217 125.684C74.4729 126.737 74.7183 126.838 75.6598 127.368C75.9974 127.565 75.9974 127.565 76.3418 127.766C77.2461 128.099 77.6017 128.038 78.5162 127.734C79.2974 127.369 80.051 126.962 80.805 126.544C81.008 126.434 81.211 126.323 81.4202 126.209C81.918 125.938 82.4145 125.665 82.9108 125.391C82.7657 124.666 82.7657 124.666 82.6178 123.926C82.8497 123.797 83.0817 123.669 83.3207 123.536C84.1862 123.057 85.0516 122.577 85.9169 122.097C86.2905 121.889 86.6641 121.682 87.0378 121.475C87.5769 121.176 88.1157 120.877 88.6545 120.578C88.9783 120.399 89.302 120.219 89.6355 120.034C90.4298 119.587 91.2136 119.126 91.9928 118.652C91.7994 118.459 91.6061 118.266 91.4068 118.066C90.1903 118.066 89.8161 118.214 88.7804 118.774ZM93.0605 120.953C92.7411 121.129 92.4218 121.305 92.0927 121.486C91.9239 121.58 91.755 121.673 91.5811 121.77C88.9824 123.205 86.4104 124.561 83.6203 125.593C81.7751 126.299 80.0037 127.174 78.2233 128.027C79.1804 129.144 80.2827 130.055 81.7389 130.371C82.7714 130.137 83.613 129.657 84.5221 129.126C84.763 128.995 85.004 128.864 85.2522 128.729C85.8441 128.405 86.4297 128.074 87.0123 127.734C86.8673 127.009 86.8673 127.009 86.7193 126.27C89.8273 124.481 92.9566 122.732 96.0943 120.996C95.6916 120.544 95.6916 120.544 95.2154 120.117C94.3489 120.117 93.815 120.532 93.0605 120.953ZM65.3326 122.168C65.0512 123.012 65.0087 123.544 65.0214 124.42C65.024 124.657 65.0266 124.894 65.0294 125.138C65.0328 125.318 65.0362 125.498 65.0397 125.684C65.5637 125.978 66.0888 126.271 66.6144 126.562C66.9067 126.726 67.199 126.889 67.5001 127.057C68.2072 127.485 68.2072 127.485 68.8483 127.441C68.8483 126.281 68.8483 125.121 68.8483 123.926C67.6881 123.346 66.5279 122.766 65.3326 122.168ZM96.6379 123.46C96.4365 123.567 96.2351 123.674 96.0276 123.784C95.3824 124.126 94.7403 124.474 94.0985 124.823C91.4415 126.261 88.8315 127.624 85.9664 128.604C84.6436 129.063 83.5184 129.652 82.3248 130.371C82.87 131.012 83.4846 131.465 84.1925 131.909C84.3579 132.013 84.5233 132.118 84.6937 132.225C85.6537 132.562 86.3668 132.285 87.2755 131.883C87.9074 131.578 88.5315 131.261 89.1546 130.939C89.3716 130.828 89.5886 130.718 89.8121 130.604C90.3445 130.333 90.8758 130.059 91.4068 129.785C91.3102 129.604 91.2135 129.423 91.1139 129.236C90.8209 128.613 90.8209 128.613 90.8209 128.027C90.981 127.996 91.1412 127.965 91.3061 127.933C92.1464 127.69 92.8371 127.314 93.6041 126.893C93.9123 126.725 94.2204 126.557 94.5379 126.383C94.8582 126.207 95.1785 126.03 95.5084 125.848C96.1431 125.501 96.7779 125.153 97.4127 124.806C97.8342 124.574 97.8342 124.574 98.2641 124.337C98.9025 123.992 99.5442 123.659 100.196 123.34C100.196 123.146 100.196 122.953 100.196 122.754C98.7651 122.257 97.8843 122.769 96.6379 123.46ZM69.1412 124.219C68.9801 125.991 68.9801 125.991 69.1412 127.734C69.8083 128.499 70.5495 128.837 71.485 129.199C72.2101 129.489 72.2101 129.489 72.9498 129.785C72.9498 128.528 72.9498 127.271 72.9498 125.977C71.693 125.396 70.4361 124.816 69.1412 124.219ZM101.018 125.483C100.737 125.634 100.457 125.785 100.168 125.94C99.875 126.103 99.5821 126.266 99.2804 126.434C98.6728 126.762 98.0651 127.089 97.4573 127.416C97.1688 127.574 96.8802 127.731 96.5829 127.894C94.1586 129.217 91.7549 130.32 89.1295 131.199C88.1858 131.542 87.3152 131.956 86.4264 132.422C87.2048 133.338 88.2096 134.107 89.3561 134.473C90.9836 134.389 92.1794 133.888 93.5858 133.136C93.7722 133.039 93.9585 132.943 94.1506 132.844C94.6046 132.608 95.0567 132.369 95.5084 132.129C95.3634 131.404 95.3634 131.404 95.2154 130.664C98.2312 128.982 101.251 127.309 104.297 125.684C104.297 125.49 104.297 125.297 104.297 125.098C102.932 124.769 102.247 124.809 101.018 125.483ZM73.5358 126.562C73.3279 128.342 73.3279 128.342 73.5358 130.078C74.4656 130.998 75.7021 131.836 77.0514 131.836C77.0514 130.676 77.0514 129.516 77.0514 128.32C75.8912 127.74 74.7311 127.16 73.5358 126.562ZM105.006 127.89C104.684 128.061 104.684 128.061 104.356 128.235C103.669 128.6 102.985 128.972 102.302 129.346C101.411 129.829 100.518 130.308 99.6226 130.783C99.4027 130.9 99.1828 131.017 98.9562 131.137C97.2864 132.007 95.5895 132.712 93.8101 133.326C92.7261 133.701 91.7824 134.139 90.8209 134.766C91.5993 135.681 92.6041 136.451 93.7506 136.816C95.3454 136.735 96.4551 136.261 97.8338 135.48C98.1688 135.292 98.5038 135.104 98.8489 134.911C99.1001 134.766 99.3512 134.622 99.61 134.473C99.61 134.183 99.61 133.893 99.61 133.594C99.61 133.304 99.61 133.014 99.61 132.715C99.7992 132.622 99.9884 132.529 100.183 132.433C103.046 131.016 105.869 129.522 108.692 128.027C108.692 127.834 108.692 127.641 108.692 127.441C107.242 126.568 106.357 127.135 105.006 127.89ZM77.6373 128.613C77.6373 129.87 77.6373 131.127 77.6373 132.422C79.5226 133.292 79.5226 133.292 81.4459 134.18C81.7008 132.394 81.7008 132.394 81.4459 130.664C80.5135 129.831 78.9595 128.613 77.6373 128.613ZM109.453 130.322C109 130.558 108.547 130.795 108.094 131.031C107.38 131.404 106.666 131.777 105.954 132.153C101.279 134.616 101.279 134.616 99.018 135.192C98.1538 135.43 97.4169 135.839 96.6437 136.285C96.371 136.441 96.0983 136.596 95.8174 136.756C95.6188 136.872 95.4201 136.989 95.2154 137.109C96.1304 138.06 96.9007 138.678 98.1451 139.16C99.5821 139.046 100.787 138.328 102.045 137.677C102.262 137.567 102.479 137.456 102.703 137.342C103.235 137.071 103.766 136.797 104.297 136.523C104.201 136.342 104.104 136.161 104.005 135.974C103.712 135.352 103.712 135.352 103.712 134.766C103.954 134.695 104.197 134.624 104.447 134.552C105.635 134.12 106.668 133.548 107.758 132.916C108.172 132.68 108.586 132.443 109 132.207C109.198 132.093 109.396 131.979 109.6 131.862C110.319 131.45 111.043 131.047 111.768 130.646C111.971 130.534 112.173 130.421 112.382 130.306C112.518 130.231 112.653 130.156 112.794 130.078C112.507 129.779 112.214 129.486 111.915 129.199C111.124 129.199 110.161 129.949 109.453 130.322ZM81.7389 130.957C81.7389 132.117 81.7389 133.277 81.7389 134.473C82.2629 134.767 82.788 135.06 83.3136 135.352C83.6059 135.515 83.8982 135.678 84.1994 135.846C84.9064 136.274 84.9064 136.274 85.5475 136.23C85.5475 135.07 85.5475 133.91 85.5475 132.715C85.0234 132.42 84.4983 132.128 83.9728 131.836C83.6805 131.673 83.3882 131.51 83.087 131.342C82.3799 130.913 82.3799 130.913 81.7389 130.957ZM113.727 132.532C109.652 134.945 105.208 136.725 100.823 138.493C100.314 138.7 99.8081 138.915 99.317 139.16C99.317 139.354 99.317 139.547 99.317 139.746C99.813 140.059 100.315 140.362 100.818 140.662C101.237 140.917 101.237 140.917 101.663 141.177C102.524 141.586 102.524 141.586 103.401 141.328C104.384 140.878 105.342 140.406 106.293 139.893C106.628 139.714 106.962 139.536 107.306 139.352C108.13 138.95 108.13 138.95 108.399 138.281C108.206 138.281 108.012 138.281 107.813 138.281C107.813 137.798 107.813 137.314 107.813 136.816C108.024 136.784 108.234 136.751 108.451 136.718C109.336 136.51 109.994 136.194 110.79 135.757C111.07 135.603 111.351 135.449 111.641 135.291C112.075 135.049 112.075 135.049 112.519 134.802C112.81 134.643 113.101 134.484 113.401 134.32C114.623 133.647 115.794 132.991 116.895 132.129C116.702 131.936 116.508 131.742 116.309 131.543C115.17 131.543 114.699 131.937 113.727 132.532ZM86.1334 133.301C86.1334 134.461 86.1334 135.621 86.1334 136.816C86.6567 137.118 87.182 137.417 87.7081 137.714C88.1466 137.963 88.1466 137.963 88.5939 138.218C88.9712 138.394 88.9712 138.394 89.3561 138.574C89.5494 138.478 89.7428 138.381 89.942 138.281C89.942 137.218 89.942 136.154 89.942 135.059C89.4179 134.764 88.8928 134.472 88.3673 134.18C88.075 134.017 87.7827 133.853 87.4815 133.685C86.7744 133.257 86.7744 133.257 86.1334 133.301ZM118.191 134.291C117.925 134.439 117.66 134.587 117.386 134.74C116.962 134.979 116.962 134.979 116.529 135.223C113.957 136.65 111.383 137.973 108.692 139.16C108.481 139.254 108.27 139.347 108.052 139.443C106.705 140.038 105.356 140.627 104.005 141.211C104.005 141.501 104.005 141.791 104.005 142.09C104.41 142.345 104.82 142.594 105.231 142.841C105.573 143.05 105.573 143.05 105.921 143.263C106.837 143.634 107.171 143.577 108.106 143.262C108.887 142.896 109.641 142.489 110.395 142.072C110.598 141.961 110.801 141.851 111.01 141.737C111.508 141.466 112.004 141.192 112.501 140.918C112.356 140.193 112.356 140.193 112.208 139.453C113.753 138.599 115.304 137.758 116.873 136.947C117.124 136.817 117.375 136.687 117.633 136.552C118.14 136.29 118.647 136.029 119.155 135.77C119.389 135.649 119.623 135.527 119.864 135.402C120.075 135.293 120.286 135.185 120.504 135.073C121.046 134.794 121.046 134.794 121.29 134.18C119.994 133.316 119.461 133.573 118.191 134.291ZM90.235 135.352C90.0971 136.552 90.0309 137.672 90.235 138.867C90.902 139.632 91.6432 139.97 92.5787 140.332C93.3038 140.622 93.3038 140.622 94.0436 140.918C94.0436 139.661 94.0436 138.404 94.0436 137.109C93.2641 136.674 93.2641 136.674 92.4689 136.23C92.1766 136.067 91.8842 135.904 91.5831 135.736C90.876 135.308 90.876 135.308 90.235 135.352ZM122.507 136.616C122.241 136.767 121.974 136.918 121.699 137.073C121.419 137.236 121.139 137.399 120.85 137.567C120.269 137.895 119.687 138.222 119.105 138.548C118.685 138.784 118.685 138.784 118.256 139.025C115.987 140.278 113.63 141.25 111.188 142.108C109.204 142.764 109.204 142.764 107.813 144.141C108.933 145.021 109.928 145.602 111.329 145.898C113.128 145.496 114.74 144.488 116.309 143.555C116.309 142.787 116.218 142.234 116.016 141.504C116.239 141.443 116.462 141.383 116.691 141.321C118.223 140.751 119.608 139.955 121.033 139.16C121.608 138.843 122.182 138.525 122.757 138.208C123.009 138.068 123.262 137.927 123.523 137.782C124.139 137.446 124.761 137.126 125.391 136.816C125.391 136.623 125.391 136.43 125.391 136.23C124.162 135.87 123.608 135.98 122.507 136.616ZM94.6295 137.695C94.6295 138.855 94.6295 140.016 94.6295 141.211C95.1536 141.505 95.6787 141.798 96.2042 142.09C96.4965 142.253 96.7888 142.416 97.09 142.584C97.7971 143.013 97.7971 143.013 98.4381 142.969C98.5774 141.864 98.641 140.846 98.4381 139.746C97.432 138.635 95.9923 138.24 94.6295 137.695ZM126.307 139.127C125.97 139.305 125.632 139.484 125.285 139.668C124.93 139.858 124.574 140.049 124.219 140.24C121.724 141.579 119.23 142.793 116.602 143.848C115.745 144.214 114.892 144.589 114.039 144.965C113.831 145.056 113.623 145.147 113.409 145.241C112.911 145.46 112.413 145.679 111.915 145.898C112.49 146.503 113.053 146.998 113.764 147.437C113.926 147.541 114.088 147.645 114.255 147.752C115.497 148.167 116.521 147.692 117.671 147.179C118.036 146.993 118.4 146.804 118.763 146.613C118.95 146.516 119.138 146.42 119.332 146.32C119.79 146.084 120.247 145.845 120.704 145.605C120.607 145.025 120.51 144.445 120.411 143.848C120.742 143.685 121.074 143.522 121.416 143.354C122.776 142.674 124.102 141.938 125.428 141.193C126.866 140.385 128.302 139.59 129.786 138.867C129.592 138.674 129.399 138.48 129.2 138.281C127.905 138.281 127.43 138.524 126.307 139.127ZM98.7311 140.039C98.5917 141.144 98.5282 142.162 98.7311 143.262C99.7372 144.373 101.177 144.767 102.54 145.312C102.54 144.152 102.54 142.992 102.54 141.797C102.016 141.502 101.49 141.21 100.965 140.918C100.673 140.755 100.38 140.592 100.079 140.424C99.3721 139.995 99.3721 139.995 98.7311 140.039ZM130.227 141.434C129.78 141.668 129.333 141.901 128.886 142.135C128.187 142.503 127.488 142.872 126.789 143.242C124.277 144.566 121.81 145.826 119.13 146.78C118.111 147.164 117.23 147.664 116.309 148.242C116.854 148.884 117.469 149.336 118.177 149.78C118.342 149.885 118.508 149.989 118.678 150.096C119.63 150.43 120.337 150.17 121.232 149.754C121.825 149.45 122.41 149.133 122.993 148.81C123.196 148.699 123.399 148.589 123.608 148.475C124.105 148.204 124.602 147.93 125.098 147.656C124.905 147.173 124.712 146.689 124.512 146.191C127.62 144.403 130.75 142.654 133.887 140.918C133.694 140.725 133.501 140.531 133.301 140.332C132.1 140.332 131.263 140.882 130.227 141.434ZM103.126 142.09C103.126 143.347 103.126 144.604 103.126 145.898C105.011 146.769 105.011 146.769 106.934 147.656C107.189 145.87 107.189 145.87 106.934 144.141C106.002 143.308 104.448 142.09 103.126 142.09ZM134.508 143.299C134.316 143.401 134.124 143.502 133.926 143.607C133.312 143.932 132.703 144.265 132.093 144.598C131.293 145.028 130.493 145.454 129.692 145.881C129.498 145.985 129.303 146.09 129.103 146.197C127.506 147.05 125.878 147.81 124.219 148.535C123.836 148.71 123.454 148.886 123.072 149.063C122.425 149.362 121.778 149.661 121.131 149.96C120.893 150.07 120.655 150.18 120.411 150.293C120.986 150.898 121.549 151.393 122.26 151.831C122.422 151.935 122.584 152.04 122.751 152.147C123.993 152.562 125.017 152.087 126.167 151.574C126.532 151.387 126.896 151.198 127.259 151.007C127.447 150.911 127.634 150.814 127.828 150.715C128.286 150.479 128.743 150.24 129.2 150C129.055 149.275 129.055 149.275 128.907 148.535C129.87 147.978 130.835 147.423 131.8 146.869C132.069 146.713 132.338 146.558 132.615 146.398C134.377 145.386 136.161 144.442 137.989 143.555C137.989 143.361 137.989 143.168 137.989 142.969C136.597 142.165 135.811 142.572 134.508 143.299ZM107.227 144.434C107.227 145.594 107.227 146.754 107.227 147.949C107.751 148.244 108.276 148.536 108.802 148.828C109.094 148.991 109.386 149.154 109.688 149.323C110.395 149.751 110.395 149.751 111.036 149.707C111.036 148.547 111.036 147.387 111.036 146.191C110.512 145.897 109.987 145.604 109.461 145.312C109.169 145.149 108.876 144.986 108.575 144.818C107.868 144.39 107.868 144.39 107.227 144.434ZM139.441 145.459C139.009 145.703 139.009 145.703 138.568 145.951C138.262 146.127 137.956 146.303 137.641 146.484C134.79 148.079 131.955 149.423 128.907 150.586C128.234 150.851 127.563 151.12 126.893 151.392C126.622 151.499 126.35 151.606 126.071 151.717C125.401 152.046 124.998 152.37 124.512 152.93C125.008 153.242 125.51 153.546 126.014 153.845C126.432 154.1 126.432 154.1 126.858 154.36C128.001 154.787 128.395 154.601 129.493 154.102C130.221 153.762 130.939 153.407 131.653 153.04C131.935 152.897 131.935 152.897 132.222 152.751C132.68 152.519 133.137 152.285 133.594 152.051C133.401 151.567 133.208 151.084 133.008 150.586C133.19 150.487 133.371 150.388 133.558 150.286C134.394 149.831 135.23 149.375 136.066 148.92C136.352 148.764 136.637 148.609 136.931 148.449C138.655 147.509 140.376 146.562 142.09 145.605C142.09 145.412 142.09 145.219 142.09 145.02C140.968 144.582 140.456 144.874 139.441 145.459ZM111.622 146.777C111.418 147.871 111.314 148.889 111.329 150C111.853 150.294 112.378 150.587 112.903 150.879C113.196 151.042 113.488 151.205 113.789 151.373C114.496 151.802 114.496 151.802 115.137 151.758C115.137 150.598 115.137 149.437 115.137 148.242C114.666 148 114.195 147.759 113.709 147.51C113.444 147.374 113.179 147.238 112.906 147.098C112.247 146.737 112.247 146.737 111.622 146.777ZM142.943 148.119C142.521 148.34 142.1 148.562 141.678 148.783C141.018 149.133 140.359 149.483 139.7 149.834C137.362 151.078 135.104 152.228 132.56 153.001C131.672 153.273 130.844 153.631 130.005 154.028C129.738 154.154 129.471 154.279 129.195 154.408C129.003 154.5 128.812 154.593 128.614 154.688C129.456 155.57 130.369 156.364 131.544 156.738C133.138 156.657 134.248 156.183 135.627 155.402C135.962 155.214 136.297 155.026 136.642 154.833C136.893 154.688 137.144 154.544 137.403 154.395C137.403 153.627 137.311 153.073 137.11 152.344C137.408 152.27 137.705 152.196 138.012 152.119C139.158 151.791 140.111 151.27 141.138 150.659C141.494 150.45 141.851 150.241 142.207 150.032C142.471 149.877 142.471 149.877 142.74 149.718C143.972 149.001 145.231 148.332 146.485 147.656C146.292 147.463 146.098 147.27 145.899 147.07C144.733 147.07 143.945 147.58 142.943 148.119ZM115.723 148.828C115.723 149.988 115.723 151.148 115.723 152.344C116.247 152.638 116.772 152.931 117.298 153.223C117.59 153.386 117.883 153.549 118.184 153.717C118.891 154.146 118.891 154.146 119.532 154.102C119.532 152.941 119.532 151.781 119.532 150.586C119.008 150.291 118.483 149.999 117.957 149.707C117.665 149.544 117.373 149.381 117.071 149.213C116.364 148.784 116.364 148.784 115.723 148.828ZM148.522 149.457C148.172 149.643 147.824 149.833 147.478 150.027C147.195 150.179 147.195 150.179 146.906 150.333C146.299 150.657 145.696 150.987 145.093 151.318C142.338 152.823 139.627 154.147 136.661 155.187C135.361 155.673 134.182 156.295 133.008 157.031C133.584 157.636 134.146 158.131 134.858 158.569C135.02 158.674 135.182 158.778 135.349 158.885C136.387 159.232 137.266 158.98 138.249 158.543C138.842 158.241 139.423 157.924 140.003 157.599C140.205 157.488 140.406 157.378 140.614 157.264C141.107 156.993 141.599 156.72 142.09 156.445C141.897 156.252 141.704 156.059 141.504 155.859C141.504 155.292 141.504 155.292 141.797 154.688C142.184 154.483 142.572 154.282 142.968 154.094C144.286 153.454 145.564 152.732 146.851 152.032C147.293 151.794 147.293 151.794 147.744 151.551C148.025 151.398 148.306 151.246 148.595 151.088C148.979 150.88 148.979 150.88 149.37 150.668C150.033 150.309 150.033 150.309 150.587 149.707C149.758 149.084 149.513 149.084 148.522 149.457ZM119.825 151.172C119.645 152.293 119.57 153.282 119.825 154.395C120.916 155.44 122.215 155.973 123.633 156.445C123.81 155.23 123.89 154.137 123.633 152.93C122.776 152.068 121.843 151.581 120.704 151.172C120.414 151.172 120.124 151.172 119.825 151.172ZM151.154 152.6C149.35 153.671 147.525 154.607 145.606 155.457C145.238 155.62 145.238 155.62 144.863 155.786C143.676 156.308 142.485 156.821 141.293 157.329C141.078 157.421 140.863 157.513 140.641 157.608C140.24 157.78 139.838 157.95 139.435 158.117C138.5 158.515 137.76 158.872 137.11 159.668C138.232 160.515 139.251 161.1 140.626 161.426C142.549 161.1 144.94 160.003 146.192 158.496C145.999 158.109 145.805 157.723 145.606 157.324C146.356 156.878 147.107 156.432 147.858 155.988C148.195 155.788 148.195 155.788 148.538 155.585C150.236 154.586 151.956 153.649 153.708 152.747C154.43 152.407 154.43 152.407 154.688 151.758C153.222 151.229 152.382 151.832 151.154 152.6ZM124.219 153.223C124.123 154.286 124.026 155.35 123.926 156.445C124.337 156.729 124.748 157.013 125.171 157.306C125.403 157.466 125.634 157.625 125.872 157.79C126.606 158.274 126.606 158.274 127.735 158.496C127.735 157.336 127.735 156.176 127.735 154.98C126.575 154.4 125.415 153.82 124.219 153.223ZM155.036 154.797C150.58 157.318 145.916 159.416 141.212 161.426C142.935 162.948 142.935 162.948 145.078 163.426C146.201 163.094 147.167 162.559 148.188 161.993C148.391 161.883 148.594 161.772 148.803 161.659C149.301 161.387 149.797 161.114 150.294 160.84C150.197 160.26 150.1 159.68 150.001 159.082C150.267 158.977 150.533 158.873 150.807 158.765C152.457 158.058 153.993 157.135 155.549 156.244C155.861 156.066 156.173 155.889 156.495 155.705C157.26 155.269 158.025 154.832 158.79 154.395C158.387 153.943 158.387 153.943 157.911 153.516C156.849 153.516 155.94 154.276 155.036 154.797ZM128.321 155.566C128.321 156.727 128.321 157.887 128.321 159.082C128.786 159.324 129.251 159.565 129.731 159.814C129.993 159.95 130.254 160.086 130.524 160.226C131.252 160.606 131.252 160.606 132.13 160.547C132.13 159.483 132.13 158.42 132.13 157.324C131.605 157.03 131.08 156.737 130.555 156.445C130.262 156.282 129.97 156.119 129.669 155.951C128.962 155.522 128.962 155.522 128.321 155.566ZM159.97 156.577C159.682 156.729 159.394 156.881 159.097 157.038C158.796 157.199 158.495 157.36 158.185 157.526C152.127 160.74 152.127 160.74 148.937 161.967C147.793 162.413 146.697 162.911 145.606 163.477C145.606 163.67 145.606 163.863 145.606 164.062C146.726 164.943 147.721 165.524 149.122 165.82C150.92 165.417 152.533 164.41 154.102 163.477C154.164 162.336 154.164 162.336 153.809 161.426C154.064 161.347 154.32 161.268 154.583 161.187C155.535 160.851 156.369 160.451 157.256 159.97C157.72 159.719 157.72 159.719 158.192 159.463C158.669 159.202 158.669 159.202 159.156 158.936C159.478 158.761 159.801 158.587 160.133 158.408C161.763 157.571 161.763 157.571 163.184 156.445C161.856 155.56 161.29 155.874 159.97 156.577ZM132.422 157.617C132.422 158.777 132.422 159.938 132.422 161.133C132.947 161.427 133.472 161.72 133.997 162.012C134.289 162.175 134.582 162.338 134.883 162.506C135.59 162.935 135.59 162.935 136.231 162.891C136.231 161.73 136.231 160.57 136.231 159.375C134.974 158.795 133.717 158.215 132.422 157.617ZM164.19 159.028C163.863 159.203 163.536 159.378 163.198 159.558C163.026 159.65 162.853 159.743 162.675 159.839C159.757 161.404 156.843 162.81 153.728 163.946C152.332 164.47 151.016 165.107 149.708 165.82C150.763 166.62 151.726 167.31 152.93 167.871C154.302 167.544 155.473 166.901 156.702 166.223C157.04 166.038 157.377 165.853 157.725 165.662C157.98 165.521 158.234 165.38 158.497 165.234C158.352 164.509 158.352 164.509 158.204 163.77C158.491 163.615 158.491 163.615 158.785 163.457C160.293 162.642 161.783 161.806 163.257 160.931C164.478 160.213 165.672 159.592 166.993 159.082C166.848 158.647 166.848 158.647 166.7 158.203C165.623 158.203 165.135 158.517 164.19 159.028ZM136.524 159.961C136.344 161.082 136.269 162.071 136.524 163.184C137.615 164.229 138.914 164.762 140.333 165.234C140.429 164.074 140.526 162.914 140.626 161.719C140.053 161.424 139.479 161.132 138.904 160.84C138.585 160.677 138.265 160.514 137.936 160.345C137.173 159.92 137.173 159.92 136.524 159.961ZM167.884 161.292C167.463 161.512 167.042 161.733 166.62 161.953C165.96 162.3 165.3 162.647 164.64 162.996C162.214 164.276 159.825 165.474 157.24 166.403C156.145 166.811 155.134 167.325 154.102 167.871C154.102 168.064 154.102 168.258 154.102 168.457C155.217 169.389 156.176 169.964 157.618 170.215C159.543 169.64 161.253 168.421 162.891 167.285C162.698 166.898 162.504 166.512 162.305 166.113C165.257 164.281 168.258 162.642 171.387 161.133C170.985 160.681 170.985 160.681 170.508 160.254C169.531 160.254 168.732 160.842 167.884 161.292ZM140.919 162.012C140.919 163.172 140.919 164.332 140.919 165.527C142.174 166.28 143.313 166.871 144.727 167.285C144.95 166.146 145.034 165.19 144.727 164.062C143.793 163.251 142.224 162.012 140.919 162.012ZM172.445 163.14C172.124 163.316 171.803 163.492 171.472 163.674C171.303 163.767 171.133 163.861 170.959 163.957C168.427 165.352 165.909 166.7 163.223 167.781C161.506 168.498 159.859 169.365 158.204 170.215C158.784 170.826 159.35 171.316 160.071 171.753C160.237 171.857 160.402 171.961 160.573 172.069C161.525 172.403 162.232 172.143 163.127 171.727C163.72 171.422 164.304 171.105 164.887 170.782C165.09 170.672 165.293 170.562 165.502 170.448C166 170.177 166.497 169.903 166.993 169.629C166.848 168.904 166.848 168.904 166.7 168.164C166.904 168.055 167.107 167.946 167.317 167.833C168.247 167.334 169.176 166.833 170.106 166.333C170.426 166.161 170.747 165.989 171.077 165.812C172.594 164.994 174.082 164.181 175.489 163.184C175.086 162.732 175.086 162.732 174.61 162.305C173.742 162.305 173.202 162.721 172.445 163.14ZM145.02 164.355C144.881 165.461 144.817 166.479 145.02 167.578C146.026 168.69 147.466 169.084 148.829 169.629C148.829 168.469 148.829 167.309 148.829 166.113C148.305 165.819 147.78 165.526 147.254 165.234C146.962 165.071 146.669 164.908 146.368 164.74C145.661 164.311 145.661 164.311 145.02 164.355ZM176.431 165.538C176.087 165.728 175.743 165.917 175.399 166.107C175.219 166.207 175.039 166.307 174.854 166.41C172.079 167.948 169.326 169.428 166.314 170.459C164.84 170.97 163.599 171.689 162.305 172.559C163.32 173.424 164.27 174.147 165.528 174.609C166.896 174.261 168.068 173.64 169.3 172.961C169.638 172.776 169.975 172.591 170.323 172.401C170.578 172.259 170.832 172.118 171.094 171.973C170.949 171.248 170.949 171.248 170.801 170.508C173.806 168.802 176.828 167.139 179.883 165.527C179.499 165.07 179.499 165.07 179.004 164.648C177.899 164.648 177.394 164.998 176.431 165.538ZM149.122 166.406C148.877 168.536 148.877 168.536 149.744 170.361C150.022 170.506 150.3 170.651 150.587 170.801C151.049 171.055 151.049 171.055 151.52 171.313C152.283 171.719 152.283 171.719 152.93 171.68C152.93 170.52 152.93 169.359 152.93 168.164C152.406 167.87 151.881 167.577 151.356 167.285C151.063 167.122 150.771 166.959 150.47 166.791C149.763 166.362 149.763 166.362 149.122 166.406ZM179.755 168.311C179.285 168.584 178.814 168.857 178.343 169.129C178.109 169.264 177.875 169.399 177.634 169.539C175.073 170.98 172.349 172.08 169.6 173.106C168.493 173.538 167.457 174.054 166.407 174.609C167.024 175.276 167.615 175.727 168.421 176.147C168.614 176.252 168.806 176.356 169.005 176.463C170.54 176.947 171.897 176.02 173.237 175.323C173.426 175.227 173.615 175.131 173.809 175.031C174.272 174.794 174.734 174.556 175.196 174.316C175.196 174.026 175.196 173.736 175.196 173.438C175.196 173.147 175.196 172.857 175.196 172.559C178.102 170.952 181.044 169.413 183.985 167.871C183.985 167.678 183.985 167.484 183.985 167.285C182.193 166.719 181.253 167.396 179.755 168.311ZM153.516 168.457C153.516 169.714 153.516 170.971 153.516 172.266C153.981 172.513 154.447 172.761 154.926 173.016C155.188 173.156 155.45 173.295 155.719 173.439C156.465 173.829 156.465 173.829 157.325 173.438C157.325 172.471 157.325 171.504 157.325 170.508C156.068 169.831 154.811 169.154 153.516 168.457ZM184.736 170.166C184.281 170.402 183.827 170.638 183.373 170.875C182.656 171.248 181.94 171.622 181.225 171.997C180.534 172.359 179.843 172.718 179.151 173.077C178.941 173.188 178.731 173.299 178.515 173.413C177.242 174.071 175.978 174.579 174.607 175.001C173.765 175.282 173.018 175.691 172.248 176.129C171.973 176.284 171.697 176.44 171.414 176.6C171.212 176.716 171.01 176.833 170.801 176.953C171.857 177.753 172.819 178.443 174.024 179.004C175.422 178.666 176.67 178.009 177.942 177.356C178.224 177.213 178.224 177.213 178.511 177.068C178.969 176.835 179.426 176.601 179.883 176.367C179.883 176.174 179.883 175.98 179.883 175.781C179.69 175.685 179.497 175.588 179.297 175.488C179.59 174.609 179.59 174.609 180.203 174.242C180.478 174.116 180.753 173.989 181.037 173.859C182.715 173.057 184.34 172.185 185.962 171.277C186.2 171.144 186.438 171.011 186.682 170.875C187.248 170.558 187.814 170.24 188.379 169.922C186.822 168.716 186.405 169.29 184.736 170.166ZM157.618 170.801C157.618 171.961 157.618 173.121 157.618 174.316C158.142 174.611 158.667 174.903 159.192 175.195C159.485 175.358 159.777 175.522 160.078 175.69C160.785 176.118 160.785 176.118 161.426 176.074C161.629 174.943 161.705 173.973 161.426 172.852C160.436 171.899 159.05 170.801 157.618 170.801ZM188.957 172.435C188.533 172.657 188.109 172.878 187.685 173.1C187.02 173.45 186.355 173.8 185.69 174.151C183.424 175.346 181.208 176.498 178.773 177.317C177.965 177.594 177.216 177.95 176.459 178.345C176.216 178.47 175.974 178.595 175.723 178.725C175.549 178.817 175.375 178.909 175.196 179.004C175.196 179.197 175.196 179.391 175.196 179.59C175.651 179.845 176.109 180.094 176.569 180.341C176.824 180.48 177.079 180.619 177.342 180.763C178.288 181.115 178.638 181.079 179.59 180.762C180.318 180.428 181.024 180.087 181.733 179.718C181.922 179.622 182.111 179.525 182.306 179.426C182.769 179.189 183.23 178.95 183.692 178.711C183.692 178.421 183.692 178.131 183.692 177.832C183.692 177.542 183.692 177.252 183.692 176.953C184.827 176.336 185.962 175.72 187.098 175.104C187.418 174.929 187.739 174.755 188.069 174.576C188.381 174.407 188.692 174.238 189.013 174.063C189.299 173.909 189.584 173.754 189.878 173.594C190.739 173.136 191.607 172.698 192.481 172.266C192.078 171.814 192.078 171.814 191.602 171.387C190.619 171.387 189.81 171.982 188.957 172.435ZM162.012 173.145C161.916 174.208 161.819 175.271 161.719 176.367C162.189 176.655 162.659 176.942 163.129 177.228C163.391 177.388 163.653 177.547 163.922 177.712C164.651 178.157 164.651 178.157 165.528 178.418C165.528 177.258 165.528 176.098 165.528 174.902C164.368 174.322 163.208 173.742 162.012 173.145ZM194.286 174.06C190.134 176.404 185.914 178.376 181.489 180.145C180.716 180.489 180.014 180.899 179.297 181.348C179.843 181.989 180.457 182.442 181.165 182.886C181.331 182.99 181.496 183.094 181.666 183.202C182.626 183.539 183.339 183.261 184.248 182.86C184.88 182.555 185.504 182.238 186.127 181.915C186.344 181.805 186.561 181.694 186.785 181.581C187.317 181.309 187.848 181.036 188.379 180.762C188.379 180.568 188.379 180.375 188.379 180.176C188.186 180.079 187.993 179.982 187.794 179.883C187.794 179.593 187.794 179.303 187.794 179.004C188.819 178.442 189.844 177.88 190.87 177.319C191.157 177.161 191.445 177.004 191.742 176.841C193.341 175.967 194.946 175.119 196.583 174.316C196.296 174.017 196.003 173.724 195.704 173.438C195.173 173.438 194.736 173.803 194.286 174.06ZM166.114 175.195C165.937 176.411 165.857 177.504 166.114 178.711C166.971 179.573 167.905 180.06 169.044 180.469C169.334 180.469 169.624 180.469 169.922 180.469C170.145 179.33 170.229 178.374 169.922 177.246C168.988 176.435 167.42 175.195 166.114 175.195ZM170.215 177.539C170.215 178.699 170.215 179.859 170.215 181.055C172.101 181.925 172.101 181.925 174.024 182.812C174.024 181.652 174.024 180.492 174.024 179.297C173.5 179.002 172.975 178.71 172.449 178.418C172.157 178.255 171.865 178.092 171.564 177.924C170.856 177.495 170.856 177.495 170.215 177.539ZM174.61 179.59C174.403 181.369 174.403 181.369 174.61 183.105C175.467 183.967 176.401 184.454 177.54 184.863C177.83 184.863 178.12 184.863 178.419 184.863C178.419 183.8 178.419 182.736 178.419 181.641C177.162 180.964 175.905 180.287 174.61 179.59ZM178.712 181.934C178.712 183.094 178.712 184.254 178.712 185.449C179.236 185.744 179.761 186.036 180.286 186.328C180.579 186.491 180.871 186.654 181.172 186.823C181.879 187.251 181.879 187.251 182.52 187.207C182.52 186.047 182.52 184.887 182.52 183.691C181.996 183.397 181.471 183.104 180.945 182.812C180.653 182.649 180.361 182.486 180.06 182.318C179.353 181.89 179.353 181.89 178.712 181.934Z" fill="black"/>
<path d="M239.649 138.867C239.746 138.867 239.842 138.867 239.942 138.867C239.969 143.253 239.99 147.638 240.003 152.024C240.009 154.06 240.017 156.097 240.03 158.133C240.043 160.099 240.05 162.065 240.053 164.031C240.055 164.78 240.059 165.53 240.066 166.279C240.074 167.33 240.075 168.381 240.075 169.433C240.079 169.741 240.083 170.049 240.088 170.367C240.075 172.707 239.608 174.521 238.056 176.312C237.808 176.524 237.56 176.735 237.305 176.953C237.093 177.136 236.881 177.318 236.663 177.506C235.712 178.222 234.709 178.758 233.65 179.29C233.334 179.451 233.334 179.451 233.012 179.616C232.332 179.962 231.651 180.307 230.97 180.652C230.264 181.011 229.559 181.371 228.853 181.732C228.391 181.968 227.928 182.203 227.466 182.439C225.856 183.259 224.253 184.09 222.657 184.937C217.628 187.597 212.568 190.196 207.508 192.795C203.117 195.048 203.117 195.048 198.743 197.333C198.533 197.443 198.323 197.554 198.106 197.668C197.035 198.234 195.968 198.806 194.902 199.384C194.674 199.506 194.446 199.629 194.211 199.756C193.781 199.988 193.352 200.221 192.924 200.456C191.892 201.011 190.994 201.364 189.844 201.562C189.815 199.88 189.794 198.197 189.78 196.515C189.774 195.944 189.766 195.373 189.756 194.802C189.62 187.04 189.62 187.04 192.053 184.006C193.406 182.635 194.968 181.823 196.692 181C197.269 180.716 197.845 180.431 198.42 180.145C198.7 180.006 198.979 179.868 199.266 179.725C202.51 178.054 204.481 176.663 205.712 173.154C206.106 171.727 206.134 170.348 206.136 168.875C206.141 168.567 206.146 168.26 206.151 167.943C206.165 166.973 206.171 166.003 206.177 165.033C206.185 164.37 206.194 163.707 206.204 163.045C206.225 161.431 206.24 159.817 206.25 158.203C209.351 156.492 212.447 154.786 215.625 153.223C217.929 152.089 220.179 150.878 222.424 149.634C223.967 148.787 225.522 147.971 227.098 147.189C227.278 147.1 227.458 147.011 227.643 146.919C228.52 146.485 229.399 146.054 230.28 145.626C235.772 143.143 235.772 143.143 239.649 138.867Z" fill="black"/>
<path d="M62.6954 126.855C65.6905 128.336 68.6598 129.858 71.6085 131.429C72.6934 132.007 73.7792 132.583 74.865 133.159C75.079 133.272 75.293 133.386 75.5135 133.503C77.604 134.612 79.7015 135.708 81.8008 136.8C83.4914 137.68 85.1795 138.564 86.8653 139.453C88.9132 140.533 90.9646 141.606 93.0176 142.676C96.9663 144.735 100.91 146.801 104.832 148.91C105.179 149.096 105.525 149.283 105.872 149.469C106.045 149.562 106.218 149.655 106.396 149.751C109.242 151.28 112.105 152.772 114.978 154.25C117.463 155.528 119.932 156.833 122.388 158.167C126.304 160.29 130.265 162.323 134.228 164.356C138.171 166.379 142.093 168.44 146.011 170.51C147.421 171.252 148.834 171.986 150.251 172.715C156.675 176.023 156.675 176.023 159.741 177.722C162.853 179.444 166.021 181.052 169.19 182.666C173.158 184.688 177.101 186.739 180.995 188.903C181.656 189.266 182.322 189.619 182.99 189.968C183.199 190.078 183.409 190.188 183.625 190.301C184.008 190.501 184.392 190.7 184.777 190.896C186.003 191.537 186.003 191.537 186.328 192.188C186.353 192.783 186.36 193.379 186.357 193.975C186.356 194.33 186.355 194.685 186.354 195.051C186.351 195.423 186.349 195.796 186.346 196.179C186.345 196.554 186.344 196.928 186.342 197.314C186.339 198.242 186.334 199.17 186.328 200.098C184.923 199.673 183.649 199.081 182.351 198.404C182.036 198.242 182.036 198.242 181.715 198.076C181.037 197.726 180.359 197.374 179.681 197.021C179.212 196.778 178.742 196.535 178.271 196.292C176.952 195.609 175.634 194.924 174.316 194.238C174.022 194.085 173.728 193.932 173.424 193.774C171.273 192.653 169.131 191.515 166.996 190.362C162.445 187.908 157.863 185.521 153.257 183.173C150.208 181.617 147.173 180.037 144.147 178.438C142.89 177.774 141.629 177.116 140.369 176.459C139.957 176.244 139.957 176.244 139.538 176.025C137.936 175.19 136.332 174.359 134.726 173.532C131.535 171.89 128.349 170.247 125.208 168.512C122.195 166.847 119.134 165.282 116.069 163.715C113.232 162.264 110.415 160.786 107.626 159.242C105.223 157.919 102.783 156.67 100.342 155.42C97.3592 153.893 94.3957 152.341 91.462 150.721C88.3558 149.013 85.1972 147.405 82.0455 145.783C80.3648 144.917 78.6916 144.038 77.0202 143.155C75.8055 142.513 74.5888 141.875 73.3693 141.243C69.6839 139.331 66.0295 137.372 62.4024 135.352C62.3952 134.189 62.3898 133.026 62.3863 131.863C62.3848 131.467 62.3828 131.071 62.3803 130.675C62.3768 130.107 62.3752 129.539 62.3738 128.971C62.3723 128.629 62.3707 128.287 62.3691 127.935C62.4024 127.148 62.4024 127.148 62.6954 126.855Z" fill="black"/>
<path d="M75.0006 89.3555C78.0505 90.8737 81.0918 92.4072 84.1192 93.9697C84.3136 94.07 84.508 94.1702 84.7083 94.2735C88.0109 95.978 91.2814 97.7359 94.5365 99.5296C96.7495 100.745 98.973 101.939 101.24 103.052C102.864 103.855 104.449 104.723 106.037 105.597C108.61 107.012 111.207 108.375 113.819 109.717C116.599 111.145 119.359 112.606 122.096 114.115C124.203 115.271 126.331 116.38 128.467 117.48C130.864 118.715 133.247 119.969 135.609 121.271C138.271 122.738 140.964 124.139 143.668 125.528C146.25 126.856 148.809 128.219 151.352 129.622C153.749 130.938 156.179 132.189 158.611 133.439C160.897 134.614 163.168 135.81 165.418 137.054C168.431 138.719 171.492 140.284 174.556 141.851C177.144 143.175 179.721 144.509 182.264 145.917C185.946 147.954 189.699 149.855 193.443 151.776C195.043 152.597 196.639 153.427 198.231 154.266C198.422 154.367 198.613 154.468 198.81 154.572C200.903 155.679 202.99 156.796 205.079 157.91C205.101 159.912 205.116 161.913 205.127 163.915C205.131 164.595 205.137 165.275 205.145 165.955C205.156 166.936 205.161 167.916 205.165 168.896C205.169 169.198 205.174 169.5 205.178 169.811C205.179 172.33 204.673 174.376 203.028 176.367C200.905 178.002 198.481 179.147 196.1 180.348C192.944 181.891 192.944 181.891 190.65 184.46C190.516 184.682 190.381 184.903 190.243 185.131C188.759 188.498 188.807 191.849 188.764 195.465C188.754 196.029 188.744 196.593 188.734 197.157C188.709 198.528 188.689 199.899 188.672 201.27C188.189 201.076 187.706 200.883 187.208 200.684C187.186 199.037 187.17 197.391 187.159 195.745C187.155 195.186 187.149 194.628 187.141 194.069C187.082 189.623 187.031 185.481 190.277 182.064C192.228 180.196 194.645 179.15 197.05 177.994C200.53 176.4 200.53 176.4 202.694 173.383C203.25 171.599 203.457 169.979 203.471 168.116C203.479 167.713 203.479 167.713 203.487 167.301C203.502 166.453 203.512 165.606 203.522 164.758C203.532 164.179 203.542 163.599 203.553 163.02C203.577 161.61 203.597 160.199 203.614 158.789C203.422 158.717 203.23 158.646 203.032 158.572C201.902 158.1 200.823 157.547 199.733 156.988C199.499 156.868 199.265 156.748 199.024 156.625C198.265 156.236 197.506 155.847 196.747 155.457C196.488 155.323 196.228 155.19 195.96 155.053C192.841 153.451 189.736 151.832 186.67 150.131C184.287 148.816 181.866 147.578 179.444 146.338C176.488 144.824 173.551 143.287 170.645 141.679C168.231 140.352 165.782 139.097 163.331 137.842C160.321 136.301 157.33 134.735 154.368 133.102C151.463 131.503 148.515 129.988 145.57 128.464C141.868 126.546 138.192 124.581 134.519 122.61C132.432 121.491 130.344 120.375 128.248 119.275C125.748 117.963 123.252 116.643 120.759 115.32C120.452 115.157 120.452 115.157 120.14 114.991C117.652 113.67 115.171 112.337 112.702 110.98C110.023 109.508 107.313 108.101 104.596 106.701C102.552 105.646 100.525 104.566 98.5113 103.455C94.9515 101.493 91.3334 99.646 87.7183 97.7888C86.1481 96.9816 84.5826 96.1659 83.0206 95.343C82.8221 95.2385 82.6236 95.1341 82.419 95.0264C80.5258 94.0269 78.6426 93.0086 76.7584 91.9922C76.7557 92.36 76.7529 92.7278 76.7501 93.1068C76.7384 94.4812 76.7191 95.8554 76.6976 97.2296C76.6894 97.8226 76.6831 98.4156 76.679 99.0086C76.6727 99.8648 76.659 100.721 76.644 101.577C76.6434 101.97 76.6434 101.97 76.6429 102.37C76.5881 104.762 75.8167 106.955 74.1846 108.745C72.3228 110.272 70.0376 111.298 67.9087 112.4C65.1491 113.848 63.1911 115.184 62.1049 118.218C61.1149 121.728 61.4439 125.837 61.3592 129.474C61.3465 129.99 61.3338 130.507 61.3209 131.023C61.29 132.27 61.2602 133.518 61.2311 134.766C60.0958 134.253 60.0958 134.253 59.7662 133.594C59.7299 132.702 59.711 131.817 59.7067 130.925C59.705 130.656 59.7034 130.387 59.7016 130.11C59.6989 129.537 59.697 128.965 59.6958 128.393C59.693 127.53 59.684 126.668 59.6747 125.806C59.6264 117.335 59.6264 117.335 62.4029 113.965C64.3356 112.176 66.5807 111.058 68.9278 109.917C71.4325 108.66 73.3607 107.412 74.4721 104.767C74.9018 103.375 74.8845 101.989 74.8862 100.542C74.891 100.221 74.8958 99.8993 74.9008 99.5681C74.915 98.5504 74.9213 97.5327 74.9274 96.5149C74.9356 95.8212 74.9444 95.1275 74.9537 94.4338C74.9752 92.741 74.9904 91.0483 75.0006 89.3555Z" fill="black"/>
<path d="M75.293 121.289C74.2195 121.848 73.11 122.318 71.9971 122.791C71.8067 122.872 71.6164 122.953 71.4203 123.037C70.9535 123.236 70.4865 123.434 70.0195 123.633C71.5925 124.97 71.5925 124.97 73.5249 125.312C75.4789 124.708 77.2951 123.699 79.1016 122.754C79.1016 122.947 79.1016 123.141 79.1016 123.34C79.2949 123.437 79.4883 123.533 79.6875 123.633C79.0896 123.865 78.4914 124.097 77.8931 124.329C77.56 124.458 77.2269 124.587 76.8837 124.72C75.9689 125.064 75.0503 125.381 74.1211 125.684C74.6663 126.325 75.2809 126.778 75.9888 127.222C76.1542 127.326 76.3196 127.43 76.49 127.538C77.6317 127.938 78.4991 127.449 79.5559 126.964C79.9242 126.777 80.2915 126.588 80.658 126.398C80.847 126.301 81.036 126.205 81.2307 126.105C81.6937 125.869 82.1556 125.63 82.6172 125.391C82.6172 125.681 82.6172 125.971 82.6172 126.27C81.2637 126.946 79.9102 127.623 78.5156 128.32C80.0002 129.502 80.0002 129.502 81.7383 130.078C83.5318 129.668 85.1476 128.659 86.7188 127.734C87.0088 128.025 87.0088 128.025 87.3047 128.32C85.7578 128.997 84.2109 129.674 82.6172 130.371C84.0932 131.65 84.0932 131.65 85.8845 132.073C87.2344 131.69 88.4734 131.058 89.7343 130.448C90.2788 130.198 90.8421 129.988 91.4062 129.785C91.6963 129.979 91.9863 130.172 92.2852 130.371C92.0061 130.467 91.727 130.562 91.4394 130.661C91.0682 130.79 90.6971 130.919 90.3259 131.049C89.9622 131.174 89.5986 131.3 89.2239 131.43C88.3107 131.786 87.5373 132.181 86.7188 132.715C87.1111 132.972 87.509 133.221 87.9089 133.466C88.2403 133.675 88.2403 133.675 88.5784 133.888C90.1421 134.475 91.5885 133.876 93.0445 133.236C93.2229 133.155 93.4014 133.073 93.5852 132.99C93.8648 132.866 93.8648 132.866 94.15 132.74C94.6036 132.538 95.0559 132.334 95.5078 132.129C95.7012 132.322 95.8945 132.516 96.0938 132.715C94.4502 133.392 92.8066 134.068 91.1133 134.766C92.7281 136.218 92.7281 136.218 94.6873 136.446C95.8548 136.22 96.7654 135.851 97.8333 135.333C98.1682 135.173 98.5032 135.012 98.8483 134.847C99.2251 134.662 99.2251 134.662 99.6094 134.473C99.7061 134.666 99.8027 134.859 99.9023 135.059C98.4521 135.735 97.002 136.412 95.5078 137.109C96.976 138.459 96.976 138.459 98.7843 138.801C100.026 138.46 101.107 137.817 102.221 137.187C102.751 136.905 102.751 136.905 103.711 136.524C104.357 136.793 104.357 136.793 104.883 137.109C104.065 137.453 103.248 137.794 102.429 138.135C102.197 138.233 101.964 138.33 101.724 138.431C101.501 138.524 101.279 138.616 101.049 138.712C100.843 138.798 100.638 138.883 100.426 138.972C99.9023 139.16 99.9023 139.16 99.3164 139.16C99.3164 139.354 99.3164 139.547 99.3164 139.746C99.5219 139.825 99.7273 139.903 99.939 139.984C100.781 140.332 100.781 140.332 101.642 140.845C102.806 141.32 103.147 141.088 104.297 140.625C104.963 140.29 105.622 139.942 106.274 139.581C106.771 139.309 106.771 139.309 107.277 139.031C107.55 138.88 107.824 138.73 108.105 138.574C108.299 138.478 108.492 138.381 108.691 138.281C108.691 138.475 108.691 138.668 108.691 138.867C108.981 138.964 109.271 139.061 109.57 139.16C109.267 139.277 108.963 139.394 108.65 139.514C108.249 139.671 107.848 139.827 107.446 139.984C107.247 140.061 107.047 140.137 106.841 140.216C105.778 140.634 104.882 141.044 104.004 141.797C104.41 142.052 104.819 142.301 105.231 142.548C105.458 142.687 105.686 142.826 105.921 142.97C106.83 143.339 107.177 143.275 108.105 142.969C108.833 142.635 109.539 142.294 110.248 141.925C110.437 141.829 110.626 141.732 110.821 141.633C111.284 141.396 111.745 141.157 112.207 140.918C112.207 140.725 112.207 140.531 112.207 140.332C112.4 140.332 112.594 140.332 112.793 140.332C112.793 140.622 112.793 140.912 112.793 141.211C113.083 141.308 113.373 141.404 113.672 141.504C113.466 141.575 113.261 141.646 113.049 141.719C111.331 142.326 109.717 142.997 108.105 143.848C109.033 144.582 109.927 145.182 111.035 145.606C112.148 145.467 112.997 144.98 113.965 144.434C114.514 144.164 115.063 143.895 115.613 143.628C116.041 143.409 116.468 143.19 116.895 142.969C116.895 143.162 116.895 143.356 116.895 143.555C117.088 143.651 117.281 143.748 117.48 143.848C117.173 143.968 116.866 144.088 116.55 144.212C116.146 144.371 115.742 144.531 115.338 144.69C115.136 144.769 114.934 144.848 114.725 144.929C113.815 145.29 113.024 145.647 112.207 146.191C112.606 146.448 113.01 146.697 113.416 146.942C113.64 147.082 113.864 147.221 114.095 147.365C115.075 147.747 115.592 147.639 116.602 147.363C117.222 147.085 117.832 146.785 118.433 146.466C120.061 145.606 120.061 145.606 120.703 145.606C120.703 145.412 120.703 145.219 120.703 145.02C121.187 145.213 121.67 145.406 122.168 145.606C121.051 146.35 119.871 146.779 118.626 147.271C117.85 147.622 117.255 147.995 116.602 148.535C117.007 148.791 117.417 149.04 117.828 149.286C118.056 149.425 118.284 149.565 118.518 149.708C119.425 150.076 119.78 150.016 120.703 149.707C121.365 149.377 122.018 149.027 122.662 148.663C124.452 147.656 124.452 147.656 125.098 147.656C125.194 147.463 125.291 147.27 125.391 147.07C125.391 147.264 125.391 147.457 125.391 147.656C125.681 147.753 125.971 147.85 126.27 147.949C126.111 148.019 125.953 148.088 125.79 148.16C125.077 148.473 124.364 148.788 123.651 149.103C123.402 149.212 123.153 149.322 122.896 149.434C122.659 149.539 122.422 149.644 122.178 149.752C121.959 149.848 121.739 149.945 121.513 150.045C121.001 150.255 121.001 150.255 120.703 150.586C121.102 150.842 121.506 151.091 121.912 151.337C122.136 151.476 122.36 151.615 122.591 151.759C123.571 152.141 124.088 152.034 125.098 151.758C125.718 151.479 126.329 151.18 126.929 150.861C128.557 150 128.557 150 129.199 150C129.103 149.71 129.006 149.42 128.906 149.121C129.1 149.121 129.293 149.121 129.492 149.121C129.589 149.605 129.686 150.088 129.785 150.586C129.471 150.706 129.157 150.826 128.834 150.95C128.425 151.109 128.015 151.269 127.606 151.428C127.399 151.507 127.192 151.586 126.978 151.667C125.83 152.045 125.83 152.045 125.098 152.93C125.496 153.193 125.9 153.448 126.306 153.699C126.53 153.842 126.755 153.984 126.986 154.131C128.027 154.497 128.487 154.236 129.492 153.809C129.845 153.663 130.198 153.517 130.561 153.367C130.925 153.21 131.289 153.052 131.653 152.893C131.841 152.812 132.028 152.731 132.222 152.647C132.679 152.449 133.137 152.25 133.594 152.051C133.787 152.244 133.98 152.438 134.18 152.637C133.946 152.732 133.713 152.828 133.472 152.926C131.924 153.565 130.388 154.198 128.906 154.981C129.299 155.238 129.696 155.486 130.096 155.731C130.317 155.871 130.538 156.01 130.766 156.154C131.837 156.556 132.487 156.421 133.594 156.152C134.503 155.724 135.365 155.264 136.234 154.765C136.756 154.483 136.756 154.483 137.695 154.102C138.406 154.334 138.406 154.334 138.867 154.688C138.662 154.759 138.456 154.83 138.245 154.903C136.527 155.51 134.912 156.18 133.301 157.031C133.686 157.331 134.078 157.622 134.473 157.91C134.817 158.164 134.817 158.164 135.168 158.423C136.178 158.903 136.614 158.761 137.695 158.496C138.601 158.071 139.471 157.615 140.347 157.134C140.82 156.884 141.308 156.663 141.797 156.445C142.087 156.542 142.377 156.639 142.676 156.738C141.678 157.403 140.63 157.888 139.545 158.386C139.339 158.481 139.133 158.577 138.922 158.675C138.415 158.909 137.909 159.142 137.402 159.375C138.418 160.233 139.328 160.809 140.625 161.133C142.223 160.835 144.45 159.945 145.605 158.789C146.191 158.777 146.777 158.777 147.363 158.789C146.682 159.243 146.113 159.561 145.373 159.881C145.164 159.972 144.956 160.062 144.741 160.156C144.417 160.295 144.417 160.295 144.086 160.437C143.866 160.532 143.646 160.627 143.42 160.725C142.879 160.96 142.338 161.193 141.797 161.426C143.242 162.748 143.242 162.748 145.05 163.124C146.227 162.8 147.253 162.26 148.334 161.701C148.551 161.59 148.768 161.48 148.991 161.366C149.524 161.094 150.055 160.821 150.586 160.547C150.683 160.837 150.779 161.127 150.879 161.426C150.11 161.769 149.341 162.111 148.572 162.451C148.353 162.549 148.134 162.647 147.909 162.748C147.7 162.84 147.49 162.933 147.274 163.028C147.081 163.114 146.887 163.2 146.688 163.288C146.191 163.477 146.191 163.477 145.605 163.477C145.605 163.67 145.605 163.863 145.605 164.063C145.805 164.141 146.004 164.22 146.21 164.301C147.07 164.649 147.07 164.649 148.016 165.17C149.118 165.647 149.118 165.647 150.198 165.165C150.557 164.97 150.913 164.767 151.263 164.557C153.19 163.477 153.19 163.477 153.809 163.477C153.809 163.67 153.809 163.863 153.809 164.063C152.552 164.643 151.295 165.223 150 165.82C151.758 167.153 151.758 167.153 153.809 167.487C154.099 167.324 154.389 167.16 154.688 166.992C155.192 166.727 155.699 166.464 156.207 166.205C156.453 166.071 156.699 165.937 156.952 165.799C157.617 165.527 157.617 165.527 158.496 165.82C157.418 166.539 156.285 167.003 155.097 167.514C154.356 167.803 154.356 167.803 154.102 168.457C154.301 168.536 154.5 168.614 154.706 168.695C155.566 169.043 155.566 169.043 156.482 169.583C157.188 169.887 157.501 169.954 158.25 169.746C158.937 169.417 159.584 169.052 160.236 168.659C160.464 168.529 160.692 168.399 160.927 168.265C161.488 167.945 162.044 167.619 162.598 167.285C162.694 167.575 162.791 167.865 162.891 168.164C161.44 168.841 159.99 169.518 158.496 170.215C159.957 171.561 159.957 171.561 161.759 171.904C162.869 171.607 163.855 171.135 164.886 170.636C165.089 170.54 165.292 170.443 165.502 170.344C165.999 170.107 166.496 169.868 166.992 169.629C167.186 169.822 167.379 170.016 167.578 170.215C167.341 170.31 167.105 170.406 166.861 170.504C166.391 170.697 166.391 170.697 165.912 170.892C165.603 171.018 165.293 171.144 164.975 171.274C164.135 171.648 163.374 172.068 162.598 172.559C163.044 172.871 163.497 173.175 163.953 173.474C164.33 173.729 164.33 173.729 164.715 173.989C165.519 174.401 165.519 174.401 166.379 174.133C166.678 174 166.977 173.868 167.285 173.731C167.617 173.585 167.948 173.439 168.29 173.289C168.623 173.132 168.956 172.976 169.299 172.815C169.637 172.657 169.975 172.499 170.322 172.337C170.577 172.217 170.831 172.096 171.094 171.973C171.19 172.166 171.287 172.359 171.387 172.559C169.066 173.719 169.066 173.719 166.699 174.902C167.152 175.15 167.606 175.398 168.073 175.653C168.327 175.793 168.582 175.932 168.845 176.075C169.938 176.482 170.553 176.318 171.602 175.846C172.373 175.472 173.136 175.085 173.895 174.687C175.334 173.974 175.334 173.974 176.21 174.256C176.359 174.373 176.507 174.489 176.66 174.609C176.504 174.656 176.347 174.702 176.186 174.75C174.39 175.313 172.756 176.075 171.094 176.953C171.54 177.266 171.993 177.569 172.449 177.869C172.826 178.124 172.826 178.124 173.211 178.384C174.017 178.796 174.017 178.796 174.889 178.53C176.119 177.972 177.294 177.329 178.475 176.674C179.297 176.367 179.297 176.367 179.99 176.61C180.148 176.723 180.306 176.836 180.469 176.953C180.278 177.028 180.087 177.102 179.89 177.179C178.741 177.631 177.618 178.085 176.514 178.638C175.781 179.004 175.781 179.004 175.195 179.004C175.195 179.197 175.195 179.391 175.195 179.59C175.461 179.675 175.727 179.759 176.001 179.846C176.953 180.176 176.953 180.176 177.557 180.524C178.348 180.856 178.764 180.692 179.59 180.469C180.17 180.183 180.744 179.883 181.311 179.572C182.703 178.851 183.605 178.499 185.156 178.711C184.039 179.456 182.859 179.884 181.614 180.376C180.838 180.727 180.243 181.101 179.59 181.641C179.996 181.896 180.405 182.145 180.817 182.391C181.044 182.531 181.272 182.67 181.507 182.814C182.416 183.182 182.764 183.119 183.691 182.813C184.406 182.478 185.101 182.136 185.797 181.769C187.719 180.762 187.719 180.762 188.379 180.762C188.476 180.568 188.572 180.375 188.672 180.176C188.769 180.466 188.865 180.756 188.965 181.055C187.321 181.828 185.678 182.602 183.984 183.399C183.984 183.592 183.984 183.785 183.984 183.984C185.048 184.565 186.111 185.145 187.207 185.742C187.11 186.032 187.014 186.322 186.914 186.621C186.328 186.328 186.328 186.328 185.815 185.925C185.05 185.372 184.25 184.977 183.398 184.57C183.216 185.597 183.14 186.483 183.398 187.5C184.123 188.106 184.828 188.473 185.687 188.862C185.899 188.993 186.11 189.123 186.328 189.258C186.328 189.645 186.328 190.031 186.328 190.43C185.152 190.062 184.083 189.63 182.992 189.056C182.696 188.902 182.4 188.747 182.095 188.587C181.782 188.422 181.469 188.257 181.146 188.086C180.819 187.914 180.491 187.742 180.153 187.565C179.49 187.217 178.827 186.868 178.164 186.519C177.382 186.107 176.599 185.696 175.816 185.287C173.835 184.25 171.86 183.204 169.893 182.143C165.446 179.745 160.971 177.412 156.474 175.111C156.017 174.877 155.56 174.643 155.103 174.409C154.884 174.297 154.664 174.185 154.438 174.069C152.623 173.139 150.815 172.196 149.013 171.241C147.15 170.255 145.279 169.282 143.408 168.311C141.035 167.078 138.664 165.84 136.299 164.591C135.014 163.913 133.726 163.24 132.434 162.573C129.557 161.084 126.688 159.587 123.853 158.02C120.694 156.277 117.482 154.642 114.27 153.001C111.339 151.504 108.427 149.984 105.547 148.389C103.135 147.06 100.687 145.801 98.2361 144.544C98.0244 144.435 97.8126 144.326 97.5945 144.214C96.7661 143.789 95.9378 143.364 95.1094 142.939C92.1713 141.431 89.2532 139.886 86.3386 138.334C85.3546 137.809 84.3705 137.285 83.3862 136.762C83.1859 136.655 82.9857 136.548 82.7793 136.438C79.5228 134.706 76.2532 133 72.9743 131.31C70.1252 129.842 67.2861 128.355 64.4531 126.856C64.7432 126.566 65.0332 126.275 65.332 125.977C66.5725 126.361 67.6975 126.839 68.8477 127.441C68.8477 126.281 68.8477 125.121 68.8477 123.926C68.5878 123.853 68.328 123.781 68.0603 123.706C67.0593 123.328 66.4219 122.871 65.625 122.168C65.8184 122.071 66.0117 121.975 66.2109 121.875C66.6157 122.159 67.0182 122.447 67.4194 122.736C68.241 123.181 68.7909 123.44 69.7133 123.176C70.5714 122.798 71.377 122.361 72.1809 121.878C73.9954 120.797 73.9954 120.797 75.293 121.289ZM69.1406 124.219C68.9795 125.992 68.9795 125.992 69.1406 127.734C69.8077 128.499 70.5489 128.837 71.4844 129.199C72.2095 129.489 72.2095 129.489 72.9492 129.785C72.9492 128.528 72.9492 127.272 72.9492 125.977C71.6924 125.397 70.4355 124.816 69.1406 124.219ZM73.5352 126.563C73.3273 128.342 73.3273 128.342 73.5352 130.078C74.465 130.998 75.7015 131.836 77.0508 131.836C77.0508 130.676 77.0508 129.516 77.0508 128.32C75.8906 127.74 74.7305 127.16 73.5352 126.563ZM77.6367 128.613C77.6367 129.87 77.6367 131.127 77.6367 132.422C79.522 133.292 79.522 133.292 81.4453 134.18C81.7002 132.394 81.7002 132.394 81.4453 130.664C80.5129 129.831 78.9589 128.613 77.6367 128.613ZM81.7383 130.957C81.7383 132.117 81.7383 133.277 81.7383 134.473C82.2623 134.767 82.7874 135.06 83.313 135.352C83.6053 135.515 83.8976 135.678 84.1988 135.846C84.9058 136.275 84.9058 136.275 85.5469 136.231C85.5469 135.07 85.5469 133.91 85.5469 132.715C85.0228 132.42 84.4977 132.128 83.9722 131.836C83.6799 131.673 83.3876 131.51 83.0864 131.342C82.3793 130.913 82.3793 130.913 81.7383 130.957ZM86.1328 133.301C86.1328 134.461 86.1328 135.621 86.1328 136.816C86.6561 137.118 87.1814 137.417 87.7075 137.714C88.146 137.964 88.146 137.964 88.5933 138.218C88.9706 138.395 88.9706 138.395 89.3555 138.574C89.5488 138.478 89.7422 138.381 89.9414 138.281C89.9414 137.218 89.9414 136.154 89.9414 135.059C89.4173 134.764 88.8922 134.472 88.3667 134.18C88.0744 134.017 87.7821 133.853 87.4809 133.685C86.7738 133.257 86.7738 133.257 86.1328 133.301ZM90.2344 135.352C90.0965 136.552 90.0303 137.672 90.2344 138.867C90.9014 139.632 91.6426 139.97 92.5781 140.332C93.3032 140.622 93.3032 140.622 94.043 140.918C94.043 139.661 94.043 138.404 94.043 137.109C93.2635 136.674 93.2635 136.674 92.4683 136.231C92.176 136.067 91.8837 135.904 91.5825 135.736C90.8754 135.308 90.8754 135.308 90.2344 135.352ZM94.6289 137.695C94.6289 138.856 94.6289 140.016 94.6289 141.211C95.153 141.505 95.6781 141.798 96.2036 142.09C96.4959 142.253 96.7882 142.416 97.0894 142.584C97.7965 143.013 97.7965 143.013 98.4375 142.969C98.5768 141.864 98.6404 140.846 98.4375 139.746C97.4314 138.635 95.9917 138.241 94.6289 137.695ZM98.7305 140.039C98.5911 141.144 98.5276 142.162 98.7305 143.262C99.7366 144.373 101.176 144.767 102.539 145.313C102.539 144.152 102.539 142.992 102.539 141.797C102.015 141.503 101.49 141.21 100.964 140.918C100.672 140.755 100.38 140.592 100.079 140.424C99.3715 139.995 99.3715 139.995 98.7305 140.039ZM103.125 142.09C103.125 143.347 103.125 144.604 103.125 145.899C105.01 146.769 105.01 146.769 106.934 147.656C107.188 145.87 107.188 145.87 106.934 144.141C106.001 143.308 104.447 142.09 103.125 142.09ZM107.227 144.434C107.227 145.594 107.227 146.754 107.227 147.949C107.751 148.244 108.276 148.536 108.801 148.828C109.094 148.991 109.386 149.155 109.687 149.323C110.394 149.751 110.394 149.751 111.035 149.707C111.035 148.547 111.035 147.387 111.035 146.191C110.511 145.897 109.986 145.604 109.46 145.313C109.168 145.149 108.876 144.986 108.575 144.818C107.868 144.39 107.868 144.39 107.227 144.434ZM111.621 146.777C111.418 147.871 111.313 148.889 111.328 150C111.852 150.295 112.377 150.587 112.903 150.879C113.195 151.042 113.487 151.205 113.789 151.373C114.496 151.802 114.496 151.802 115.137 151.758C115.137 150.598 115.137 149.438 115.137 148.242C114.665 148.001 114.194 147.759 113.708 147.51C113.443 147.374 113.178 147.238 112.905 147.098C112.246 146.737 112.246 146.737 111.621 146.777ZM115.723 148.828C115.723 149.988 115.723 151.149 115.723 152.344C116.247 152.638 116.772 152.931 117.297 153.223C117.59 153.386 117.882 153.549 118.183 153.717C118.89 154.146 118.89 154.146 119.531 154.102C119.531 152.941 119.531 151.781 119.531 150.586C119.007 150.292 118.482 149.999 117.957 149.707C117.664 149.544 117.372 149.381 117.071 149.213C116.364 148.784 116.364 148.784 115.723 148.828ZM119.824 151.172C119.645 152.293 119.569 153.282 119.824 154.395C120.916 155.44 122.215 155.973 123.633 156.445C123.81 155.23 123.889 154.137 123.633 152.93C122.776 152.068 121.842 151.581 120.703 151.172C120.413 151.172 120.123 151.172 119.824 151.172ZM124.219 153.223C124.122 154.286 124.025 155.35 123.926 156.445C124.337 156.729 124.748 157.013 125.171 157.306C125.402 157.466 125.633 157.625 125.871 157.79C126.605 158.274 126.605 158.274 127.734 158.496C127.734 157.336 127.734 156.176 127.734 154.981C126.574 154.4 125.414 153.82 124.219 153.223ZM128.32 155.566C128.32 156.727 128.32 157.887 128.32 159.082C128.786 159.324 129.251 159.566 129.73 159.815C129.992 159.95 130.254 160.086 130.523 160.227C131.252 160.606 131.252 160.606 132.129 160.547C132.129 159.483 132.129 158.42 132.129 157.324C131.605 157.03 131.08 156.737 130.554 156.445C130.262 156.282 129.97 156.119 129.668 155.951C128.961 155.523 128.961 155.523 128.32 155.566ZM132.422 157.617C132.422 158.777 132.422 159.938 132.422 161.133C132.946 161.427 133.471 161.72 133.997 162.012C134.289 162.175 134.581 162.338 134.882 162.506C135.589 162.935 135.589 162.935 136.23 162.891C136.23 161.731 136.23 160.57 136.23 159.375C134.974 158.795 133.717 158.215 132.422 157.617ZM136.523 159.961C136.344 161.082 136.268 162.071 136.523 163.184C137.615 164.229 138.914 164.762 140.332 165.234C140.429 164.074 140.525 162.914 140.625 161.719C140.052 161.424 139.478 161.132 138.904 160.84C138.584 160.677 138.265 160.514 137.936 160.346C137.173 159.92 137.173 159.92 136.523 159.961ZM140.918 162.012C140.918 163.172 140.918 164.332 140.918 165.527C142.173 166.28 143.312 166.871 144.727 167.285C144.949 166.146 145.033 165.19 144.727 164.063C143.792 163.251 142.224 162.012 140.918 162.012ZM145.02 164.356C144.88 165.461 144.817 166.479 145.02 167.578C146.026 168.69 147.465 169.084 148.828 169.629C148.828 168.469 148.828 167.309 148.828 166.113C148.304 165.819 147.779 165.526 147.253 165.234C146.961 165.071 146.669 164.908 146.368 164.74C145.661 164.312 145.661 164.312 145.02 164.356ZM149.121 166.406C148.876 168.536 148.876 168.536 149.744 170.361C150.022 170.506 150.3 170.651 150.586 170.801C151.048 171.055 151.048 171.055 151.52 171.314C152.283 171.719 152.283 171.719 152.93 171.68C152.93 170.52 152.93 169.359 152.93 168.164C152.406 167.87 151.881 167.577 151.355 167.285C151.063 167.122 150.77 166.959 150.469 166.791C149.762 166.362 149.762 166.362 149.121 166.406ZM153.516 168.457C153.516 169.714 153.516 170.971 153.516 172.266C153.981 172.513 154.446 172.761 154.926 173.016C155.187 173.156 155.449 173.295 155.719 173.439C156.465 173.829 156.465 173.829 157.324 173.438C157.324 172.471 157.324 171.504 157.324 170.508C156.067 169.831 154.811 169.154 153.516 168.457ZM157.617 170.801C157.617 171.961 157.617 173.121 157.617 174.316C158.141 174.611 158.666 174.904 159.192 175.195C159.484 175.359 159.777 175.522 160.078 175.69C160.785 176.118 160.785 176.118 161.426 176.074C161.628 174.944 161.704 173.973 161.426 172.852C160.435 171.899 159.049 170.801 157.617 170.801ZM162.012 173.145C161.915 174.208 161.818 175.272 161.719 176.367C162.188 176.655 162.658 176.942 163.129 177.228C163.39 177.388 163.652 177.547 163.922 177.712C164.65 178.157 164.65 178.157 165.527 178.418C165.527 177.258 165.527 176.098 165.527 174.902C164.367 174.322 163.207 173.742 162.012 173.145ZM166.113 175.195C165.936 176.411 165.857 177.504 166.113 178.711C166.97 179.573 167.904 180.06 169.043 180.469C169.333 180.469 169.623 180.469 169.922 180.469C170.144 179.33 170.229 178.374 169.922 177.246C168.987 176.435 167.419 175.195 166.113 175.195ZM170.215 177.539C170.215 178.699 170.215 179.859 170.215 181.055C172.1 181.925 172.1 181.925 174.023 182.813C174.023 181.652 174.023 180.492 174.023 179.297C173.499 179.003 172.974 178.71 172.449 178.418C172.156 178.255 171.864 178.092 171.563 177.924C170.856 177.495 170.856 177.495 170.215 177.539ZM174.609 179.59C174.402 181.369 174.402 181.369 174.609 183.106C175.466 183.967 176.4 184.454 177.539 184.863C177.829 184.863 178.119 184.863 178.418 184.863C178.418 183.8 178.418 182.736 178.418 181.641C177.161 180.964 175.904 180.287 174.609 179.59ZM178.711 181.934C178.711 183.094 178.711 184.254 178.711 185.449C179.235 185.744 179.76 186.036 180.286 186.328C180.578 186.491 180.87 186.655 181.171 186.823C181.879 187.251 181.879 187.251 182.52 187.207C182.52 186.047 182.52 184.887 182.52 183.691C181.995 183.397 181.47 183.104 180.945 182.813C180.653 182.649 180.36 182.486 180.059 182.318C179.352 181.89 179.352 181.89 178.711 181.934Z" fill="black"/>
<path d="M215.332 189.551C215.429 189.551 215.525 189.551 215.625 189.551C215.329 195.123 214.75 200.671 214.184 206.221C214.006 207.973 213.832 209.725 213.669 211.479C213.51 213.187 213.34 214.894 213.161 216.601C213.095 217.248 213.033 217.896 212.976 218.544C212.895 219.449 212.799 220.35 212.7 221.253C212.68 221.519 212.66 221.784 212.639 222.058C212.498 223.202 212.366 223.876 211.515 224.689C209.802 225.879 209.802 225.879 208.594 225.879C208.594 215.051 208.594 204.223 208.594 193.066C210.721 192.003 212.848 190.939 215.039 189.844C215.136 189.747 215.232 189.65 215.332 189.551Z" fill="black"/>
<path d="M207.423 193.945C207.423 204.483 207.423 215.021 207.423 225.879C204.958 225.263 204.958 225.263 204.2 224.414C203.995 223.615 203.995 223.615 203.881 222.629C203.836 222.26 203.791 221.891 203.745 221.511C203.701 221.112 203.658 220.712 203.614 220.312C203.568 219.915 203.522 219.517 203.475 219.12C203.324 217.824 203.184 216.528 203.044 215.231C202.993 214.755 202.941 214.279 202.889 213.803C202.782 212.815 202.675 211.826 202.569 210.837C202.433 209.573 202.295 208.309 202.157 207.045C202.05 206.066 201.944 205.086 201.839 204.107C201.788 203.641 201.738 203.175 201.687 202.708C201.616 202.058 201.546 201.408 201.476 200.757C201.436 200.389 201.397 200.02 201.356 199.64C201.277 198.712 201.254 197.806 201.27 196.875C202.24 196.386 203.211 195.898 204.182 195.41C204.597 195.201 204.597 195.201 205.021 194.987C205.416 194.788 205.416 194.788 205.819 194.586C206.185 194.402 206.185 194.402 206.559 194.214C207.13 193.945 207.13 193.945 207.423 193.945Z" fill="black"/>
<path d="M80.2742 145.898C82.2274 146.875 84.1805 147.852 86.1336 148.828C86.1336 156.949 86.1336 165.07 86.1336 173.438C82.911 171.68 82.911 171.68 82.618 170.801C82.5244 170.058 82.4423 169.318 82.3696 168.573C82.3467 168.346 82.3238 168.12 82.3002 167.887C82.2247 167.138 82.1506 166.389 82.0767 165.639C82.0246 165.119 81.9725 164.598 81.9203 164.077C81.8111 162.985 81.7025 161.893 81.5945 160.801C81.4561 159.403 81.3162 158.004 81.1758 156.606C81.0679 155.53 80.9608 154.454 80.8539 153.379C80.8026 152.863 80.751 152.347 80.6993 151.832C80.6271 151.11 80.5558 150.389 80.4847 149.667C80.4633 149.455 80.4418 149.242 80.4197 149.023C80.3178 147.977 80.2507 146.949 80.2742 145.898Z" fill="black"/>
<path d="M87.3047 149.707C89.2822 150.366 89.2822 150.366 90.1314 150.863C90.3108 150.967 90.4902 151.071 90.675 151.178C90.8559 151.284 91.0368 151.391 91.2231 151.501C91.4108 151.611 91.5985 151.72 91.7919 151.832C92.2501 152.099 92.7072 152.368 93.1641 152.637C92.9182 155.091 92.6593 157.543 92.3839 159.994C92.2564 161.133 92.1334 162.271 92.0206 163.411C91.9115 164.512 91.7905 165.612 91.6615 166.711C91.6145 167.129 91.5716 167.548 91.5331 167.967C91.2291 171.235 91.2291 171.235 90.2152 172.338C89.2181 173.032 88.5316 173.438 87.3047 173.438C87.3047 165.606 87.3047 157.775 87.3047 149.707Z" fill="black"/>
<path d="M203.906 157.91C204.293 157.91 204.679 157.91 205.078 157.91C205.1 159.912 205.116 161.913 205.126 163.915C205.131 164.595 205.137 165.275 205.144 165.955C205.155 166.936 205.16 167.916 205.164 168.896C205.168 169.198 205.173 169.5 205.177 169.811C205.178 172.33 204.672 174.376 203.027 176.367C200.904 178.002 198.48 179.147 196.099 180.348C192.943 181.891 192.943 181.891 190.649 184.46C190.515 184.682 190.38 184.903 190.242 185.131C188.759 188.498 188.806 191.849 188.763 195.465C188.753 196.029 188.743 196.593 188.733 197.157C188.708 198.528 188.689 199.899 188.672 201.27C188.188 201.076 187.705 200.883 187.207 200.684C187.185 199.037 187.169 197.391 187.159 195.745C187.154 195.186 187.148 194.628 187.141 194.069C187.081 189.623 187.03 185.481 190.276 182.064C192.227 180.196 194.644 179.15 197.05 177.994C200.528 176.4 200.528 176.4 202.694 173.384C203.256 171.584 203.453 169.953 203.46 168.073C203.464 167.798 203.469 167.524 203.474 167.242C203.487 166.377 203.496 165.513 203.503 164.648C203.514 163.776 203.526 162.903 203.539 162.03C203.547 161.489 203.553 160.949 203.558 160.408C203.561 160.165 203.564 159.923 203.567 159.673C203.569 159.459 203.571 159.245 203.573 159.025C203.613 158.496 203.613 158.496 203.906 157.91Z" fill="black"/>
<path d="M108.398 138.281C108.543 138.571 108.543 138.571 108.691 138.867C108.981 138.964 109.271 139.061 109.57 139.16C109.267 139.277 108.963 139.394 108.65 139.514C108.249 139.67 107.848 139.827 107.446 139.984C107.247 140.061 107.047 140.137 106.841 140.216C105.778 140.634 104.882 141.044 104.004 141.797C104.41 142.052 104.819 142.301 105.231 142.548C105.572 142.757 105.572 142.757 105.921 142.97C106.83 143.339 107.177 143.275 108.105 142.969C108.833 142.635 109.539 142.294 110.248 141.925C110.437 141.829 110.626 141.732 110.821 141.633C111.284 141.396 111.745 141.157 112.207 140.918C112.207 140.725 112.207 140.531 112.207 140.332C112.4 140.332 112.594 140.332 112.793 140.332C112.793 140.622 112.793 140.912 112.793 141.211C113.083 141.308 113.373 141.404 113.672 141.504C113.364 141.61 113.364 141.61 113.049 141.719C111.331 142.326 109.717 142.996 108.105 143.848C109.033 144.582 109.927 145.182 111.035 145.605C112.148 145.467 112.997 144.98 113.965 144.434C114.514 144.164 115.063 143.895 115.613 143.628C116.041 143.409 116.468 143.19 116.895 142.969C116.895 143.162 116.895 143.355 116.895 143.555C117.088 143.651 117.281 143.748 117.48 143.848C117.173 143.968 116.866 144.088 116.55 144.212C116.146 144.371 115.742 144.53 115.338 144.69C115.136 144.769 114.934 144.848 114.725 144.929C113.815 145.29 113.024 145.646 112.207 146.191C112.606 146.448 113.01 146.696 113.416 146.942C113.64 147.081 113.864 147.221 114.095 147.364C115.075 147.746 115.592 147.639 116.602 147.363C117.222 147.085 117.832 146.785 118.433 146.466C120.061 145.605 120.061 145.605 120.703 145.605C120.703 145.412 120.703 145.219 120.703 145.02C121.187 145.213 121.67 145.406 122.168 145.605C121.051 146.35 119.871 146.778 118.626 147.271C117.85 147.622 117.255 147.995 116.602 148.535C117.007 148.791 117.417 149.04 117.828 149.286C118.056 149.425 118.284 149.565 118.518 149.708C119.425 150.076 119.78 150.016 120.703 149.707C121.365 149.376 122.018 149.027 122.662 148.663C124.452 147.656 124.452 147.656 125.098 147.656C125.194 147.463 125.291 147.27 125.391 147.07C125.391 147.264 125.391 147.457 125.391 147.656C125.826 147.801 125.826 147.801 126.27 147.949C126.111 148.019 125.953 148.088 125.79 148.16C125.077 148.473 124.364 148.788 123.651 149.103C123.402 149.212 123.153 149.321 122.896 149.434C122.659 149.539 122.422 149.644 122.178 149.752C121.959 149.848 121.739 149.945 121.513 150.045C121.001 150.255 121.001 150.255 120.703 150.586C121.102 150.842 121.506 151.091 121.912 151.337C122.248 151.546 122.248 151.546 122.591 151.759C123.571 152.141 124.088 152.034 125.098 151.758C125.718 151.479 126.329 151.18 126.929 150.861C128.557 150 128.557 150 129.199 150C129.103 149.71 129.006 149.42 128.906 149.121C129.1 149.121 129.293 149.121 129.492 149.121C129.637 149.846 129.637 149.846 129.785 150.586C129.471 150.706 129.157 150.826 128.834 150.95C128.425 151.109 128.015 151.269 127.606 151.428C127.399 151.507 127.192 151.586 126.978 151.667C125.83 152.045 125.83 152.045 125.098 152.93C125.496 153.193 125.9 153.448 126.306 153.699C126.53 153.841 126.755 153.984 126.986 154.131C128.027 154.497 128.487 154.236 129.492 153.809C129.845 153.663 130.198 153.517 130.561 153.367C130.925 153.21 131.289 153.052 131.653 152.893C131.841 152.812 132.028 152.731 132.222 152.647C132.679 152.449 133.137 152.25 133.594 152.051C133.787 152.244 133.98 152.437 134.18 152.637C133.946 152.732 133.713 152.828 133.472 152.926C131.924 153.565 130.388 154.198 128.906 154.98C129.299 155.238 129.696 155.486 130.096 155.731C130.428 155.94 130.428 155.94 130.766 156.153C131.837 156.556 132.487 156.421 133.594 156.152C134.503 155.724 135.365 155.264 136.234 154.765C136.756 154.483 136.756 154.483 137.695 154.102C138.406 154.334 138.406 154.334 138.867 154.688C138.569 154.789 138.569 154.789 138.265 154.892C136.548 155.494 134.967 156.172 133.385 157.074C132.271 157.49 131.52 157.151 130.466 156.682C129.751 156.31 129.036 155.938 128.32 155.566C128.32 156.727 128.32 157.887 128.32 159.082C127.885 158.792 127.885 158.792 127.441 158.496C127.538 157.336 127.635 156.176 127.734 154.98C127.475 154.902 127.215 154.823 126.947 154.742C126.044 154.419 125.314 154.035 124.512 153.516C124.415 154.386 124.318 155.256 124.219 156.152C124.122 156.152 124.025 156.152 123.926 156.152C123.924 155.834 123.924 155.834 123.921 155.509C123.844 154.543 123.729 153.821 123.34 152.93C122.247 152.125 121.096 151.633 119.824 151.172C119.858 151.697 119.895 152.222 119.934 152.747C119.965 153.185 119.965 153.185 119.996 153.632C120.048 154.44 120.048 154.44 120.703 154.98C120.413 155.125 120.413 155.125 120.117 155.273C119.972 155.563 119.972 155.563 119.824 155.859C118.444 155.152 117.064 154.444 115.685 153.735C115.217 153.495 114.75 153.255 114.283 153.016C111.232 151.452 108.195 149.866 105.176 148.242C105.176 147.952 105.176 147.662 105.176 147.363C105.659 147.363 106.143 147.363 106.641 147.363C106.641 146.3 106.641 145.236 106.641 144.141C105.577 143.561 104.514 142.98 103.418 142.383C103.321 143.446 103.225 144.51 103.125 145.605C102.932 145.509 102.738 145.412 102.539 145.312C102.539 144.152 102.539 142.992 102.539 141.797C101.814 141.507 101.814 141.507 101.074 141.211C100.651 141.008 100.229 140.801 99.8108 140.588C99.6065 140.485 99.4022 140.381 99.1917 140.275C99.0395 140.197 98.8873 140.119 98.7305 140.039C99.2363 139.846 99.2363 139.846 99.9023 139.746C100.592 140.088 101.196 140.505 101.832 140.937C102.847 141.33 103.313 141.056 104.297 140.625C104.969 140.29 105.634 139.942 106.293 139.581C106.794 139.309 106.794 139.309 107.306 139.031C108.057 138.649 108.057 138.649 108.398 138.281ZM107.227 144.434C107.227 145.594 107.227 146.754 107.227 147.949C107.751 148.244 108.276 148.536 108.801 148.828C109.094 148.991 109.386 149.154 109.687 149.323C110.394 149.751 110.394 149.751 111.035 149.707C111.035 148.547 111.035 147.387 111.035 146.191C110.511 145.897 109.986 145.604 109.46 145.312C109.168 145.149 108.876 144.986 108.575 144.818C107.868 144.39 107.868 144.39 107.227 144.434ZM111.621 146.777C111.418 147.871 111.313 148.889 111.328 150C111.852 150.294 112.377 150.587 112.903 150.879C113.195 151.042 113.487 151.205 113.789 151.373C114.496 151.802 114.496 151.802 115.137 151.758C115.137 150.598 115.137 149.437 115.137 148.242C114.665 148 114.194 147.759 113.708 147.51C113.443 147.374 113.178 147.238 112.905 147.098C112.246 146.737 112.246 146.737 111.621 146.777ZM115.723 148.828C115.723 149.988 115.723 151.148 115.723 152.344C116.247 152.638 116.772 152.931 117.297 153.223C117.59 153.386 117.882 153.549 118.183 153.717C118.89 154.146 118.89 154.146 119.531 154.102C119.531 152.941 119.531 151.781 119.531 150.586C119.007 150.291 118.482 149.999 117.957 149.707C117.664 149.544 117.372 149.381 117.071 149.213C116.364 148.784 116.364 148.784 115.723 148.828Z" fill="black"/>
<path d="M123.633 153.809C123.729 153.809 123.826 153.809 123.926 153.809C123.891 154.053 123.891 154.053 123.856 154.303C123.829 155.136 123.9 155.67 124.219 156.445C126.43 158.387 129.423 159.476 132.129 160.547C132.129 159.387 132.129 158.227 132.129 157.031C133.156 157.332 134.017 157.682 134.912 158.258C136.119 158.883 136.411 158.83 137.695 158.496C138.601 158.071 139.471 157.615 140.347 157.134C140.82 156.884 141.308 156.663 141.797 156.445C142.087 156.542 142.377 156.639 142.676 156.738C141.678 157.403 140.63 157.887 139.545 158.386C139.339 158.481 139.133 158.577 138.922 158.675C138.415 158.909 137.909 159.142 137.402 159.375C138.418 160.233 139.328 160.809 140.625 161.133C142.223 160.835 144.45 159.945 145.605 158.789C146.191 158.777 146.777 158.777 147.363 158.789C146.682 159.243 146.113 159.561 145.373 159.881C145.06 160.017 145.06 160.017 144.741 160.155C144.525 160.248 144.308 160.341 144.086 160.437C143.756 160.58 143.756 160.58 143.42 160.725C142.879 160.96 142.338 161.193 141.797 161.426C143.242 162.748 143.242 162.748 145.05 163.124C146.227 162.8 147.253 162.259 148.334 161.7C148.659 161.535 148.659 161.535 148.991 161.366C149.524 161.094 150.055 160.821 150.586 160.547C150.731 160.982 150.731 160.982 150.879 161.426C150.11 161.769 149.341 162.11 148.572 162.451C148.353 162.549 148.134 162.647 147.909 162.748C147.7 162.84 147.49 162.933 147.274 163.028C146.984 163.157 146.984 163.157 146.688 163.288C146.191 163.477 146.191 163.477 145.605 163.477C145.605 163.67 145.605 163.863 145.605 164.062C145.799 164.135 145.992 164.208 146.191 164.282C147.294 164.742 148.351 165.277 149.414 165.82C149.387 166.078 149.36 166.336 149.332 166.602C149.311 166.942 149.289 167.282 149.268 167.633C149.24 167.97 149.213 168.306 149.185 168.653C149.44 169.741 149.522 169.821 150.412 170.389C150.857 170.631 151.306 170.865 151.758 171.094C152.112 171.286 152.112 171.286 152.472 171.481C153.207 171.879 153.946 172.266 154.688 172.65C155.07 172.85 155.07 172.85 155.46 173.054C156.081 173.378 156.702 173.701 157.324 174.023C157.324 174.313 157.324 174.604 157.324 174.902C155.879 174.742 154.744 174.268 153.476 173.594C153.279 173.492 153.082 173.39 152.879 173.285C152.241 172.953 151.606 172.619 150.97 172.284C150.529 172.054 150.088 171.824 149.647 171.594C148.581 171.038 147.516 170.48 146.451 169.92C145.722 169.536 144.991 169.153 144.261 168.771C143.391 168.314 142.521 167.856 141.653 167.396C140.117 166.584 138.577 165.781 137.036 164.978C136.754 164.831 136.471 164.683 136.18 164.531C134.752 163.787 133.324 163.043 131.894 162.302C130.212 161.43 128.533 160.55 126.855 159.668C126.554 159.51 126.253 159.353 125.943 159.191C125.043 158.719 124.145 158.242 123.248 157.764C122.834 157.547 122.834 157.547 122.411 157.327C122.156 157.19 121.902 157.053 121.64 156.912C121.416 156.793 121.192 156.675 120.961 156.552C120.329 156.094 120.112 155.698 119.824 154.98C121.161 155.14 122.16 155.506 123.34 156.152C123.437 155.379 123.533 154.605 123.633 153.809ZM132.422 157.617C132.422 158.777 132.422 159.938 132.422 161.133C132.946 161.427 133.471 161.72 133.997 162.012C134.289 162.175 134.581 162.338 134.882 162.506C135.589 162.935 135.589 162.935 136.23 162.891C136.23 161.73 136.23 160.57 136.23 159.375C134.974 158.795 133.717 158.215 132.422 157.617ZM136.523 159.961C136.344 161.082 136.268 162.071 136.523 163.184C137.615 164.229 138.914 164.762 140.332 165.234C140.429 164.074 140.525 162.914 140.625 161.719C140.052 161.424 139.478 161.132 138.904 160.84C138.584 160.677 138.265 160.514 137.936 160.345C137.173 159.92 137.173 159.92 136.523 159.961ZM140.918 162.012C140.918 163.172 140.918 164.332 140.918 165.527C142.173 166.28 143.312 166.871 144.727 167.285C144.949 166.146 145.033 165.19 144.727 164.062C143.792 163.251 142.224 162.012 140.918 162.012ZM145.02 164.355C144.88 165.461 144.817 166.479 145.02 167.578C146.026 168.69 147.465 169.084 148.828 169.629C148.828 168.469 148.828 167.309 148.828 166.113C148.304 165.819 147.779 165.526 147.253 165.234C146.961 165.071 146.669 164.908 146.368 164.74C145.661 164.311 145.661 164.311 145.02 164.355Z" fill="black"/>
<path d="M153.809 163.477C153.809 163.67 153.809 163.863 153.809 164.062C151.923 164.933 151.923 164.933 150 165.82C151.758 167.153 151.758 167.153 153.809 167.487C154.099 167.323 154.389 167.16 154.688 166.992C155.192 166.727 155.699 166.464 156.207 166.205C156.453 166.071 156.699 165.937 156.952 165.799C157.617 165.527 157.617 165.527 158.496 165.82C157.418 166.539 156.285 167.003 155.097 167.514C154.356 167.803 154.356 167.803 154.102 168.457C154.301 168.536 154.5 168.614 154.706 168.695C155.566 169.043 155.566 169.043 156.482 169.583C157.188 169.887 157.501 169.954 158.25 169.746C158.937 169.417 159.584 169.052 160.236 168.658C160.464 168.529 160.692 168.399 160.927 168.265C161.488 167.945 162.044 167.619 162.598 167.285C162.743 167.72 162.743 167.72 162.891 168.164C161.44 168.841 159.99 169.518 158.496 170.215C159.957 171.561 159.957 171.561 161.759 171.904C162.869 171.607 163.855 171.135 164.886 170.636C165.089 170.539 165.292 170.443 165.502 170.344C165.999 170.107 166.496 169.868 166.992 169.629C167.186 169.822 167.379 170.016 167.578 170.215C167.223 170.358 167.223 170.358 166.861 170.504C166.548 170.632 166.234 170.76 165.912 170.892C165.603 171.018 165.293 171.144 164.975 171.273C164.135 171.648 163.374 172.068 162.598 172.559C163.044 172.871 163.497 173.175 163.953 173.474C164.204 173.644 164.456 173.814 164.715 173.989C165.519 174.401 165.519 174.401 166.379 174.133C166.678 174 166.977 173.867 167.285 173.73C167.617 173.585 167.948 173.439 168.29 173.289C168.623 173.132 168.956 172.976 169.299 172.815C169.637 172.657 169.975 172.499 170.322 172.337C170.577 172.216 170.831 172.096 171.094 171.973C171.239 172.263 171.239 172.263 171.387 172.559C169.066 173.719 169.066 173.719 166.699 174.902C167.859 175.482 169.02 176.063 170.215 176.66C169.925 176.95 169.925 176.95 169.629 177.246C168.565 176.666 167.502 176.086 166.406 175.488C166.31 176.552 166.213 177.615 166.113 178.711C165.92 178.711 165.727 178.711 165.527 178.711C165.527 177.454 165.527 176.197 165.527 174.902C165.044 174.709 164.561 174.516 164.062 174.316C163.474 174.028 162.888 173.736 162.305 173.438C162.208 173.921 162.111 174.404 162.012 174.902C161.915 174.902 161.818 174.902 161.719 174.902C161.695 174.606 161.67 174.31 161.646 174.005C161.398 173.073 161.113 172.837 160.311 172.259C159.424 171.747 158.532 171.261 157.617 170.801C157.617 171.961 157.617 173.121 157.617 174.316C158.101 174.51 158.584 174.703 159.082 174.902C159.275 175.096 159.469 175.289 159.668 175.488C158.862 175.69 158.862 175.69 157.91 175.781C157.214 175.36 157.214 175.36 156.738 174.902C156.932 174.902 157.125 174.902 157.324 174.902C157.324 174.612 157.324 174.322 157.324 174.023C157.131 173.927 156.938 173.83 156.738 173.73C156.787 173.579 156.835 173.428 156.885 173.273C157.075 172.344 157.049 171.453 157.031 170.508C155.968 169.928 154.904 169.348 153.809 168.75C153.712 169.813 153.615 170.877 153.516 171.973C153.226 171.876 152.936 171.779 152.637 171.68C152.637 170.52 152.637 169.359 152.637 168.164C151.477 167.584 150.316 167.004 149.121 166.406C149.121 166.116 149.121 165.826 149.121 165.527C149.792 165.184 150.463 164.843 151.135 164.502C151.326 164.404 151.517 164.306 151.713 164.206C153.156 163.477 153.156 163.477 153.809 163.477Z" fill="black"/>
</svg>
