<svg width="300" height="300" viewBox="0 0 300 300" fill="none" xmlns="http://www.w3.org/2000/svg">
<path d="M48.9265 95.5078C50.0646 95.7639 51.0161 96.2449 52.037 96.7953C52.3202 96.9461 52.3202 96.9461 52.6092 97.0999C53.2256 97.4285 53.841 97.759 54.4563 98.0896C54.8858 98.3191 55.3153 98.5486 55.7449 98.778C58.3163 100.153 60.8799 101.541 63.4355 102.945C65.0485 103.829 66.6689 104.698 68.2945 105.558C68.503 105.668 68.7115 105.779 68.9263 105.893C69.9606 106.44 70.9954 106.986 72.031 107.531C72.4152 107.734 72.7993 107.937 73.1834 108.14C73.5198 108.317 73.8562 108.494 74.2028 108.676C74.3724 108.771 74.542 108.866 74.7167 108.963C75.1493 109.199 75.5908 109.418 76.0361 109.628C77.4627 110.36 78.3371 110.934 78.9146 112.465C79.0829 113.044 79.2389 113.627 79.385 114.212C79.4764 114.538 79.5678 114.864 79.6619 115.199C79.9146 116.107 80.157 117.017 80.3958 117.928C80.6564 118.912 80.9303 119.892 81.2034 120.873C81.5645 122.172 81.9244 123.472 82.2792 124.774C83.3208 128.593 84.4064 132.398 85.5041 136.201C85.5911 136.502 85.678 136.803 85.7675 137.114C86.1206 138.337 86.4737 139.56 86.8271 140.783C88.2908 145.85 89.7447 150.919 91.1932 155.99C91.335 156.486 91.4769 156.983 91.6188 157.479C92.0098 158.846 92.3997 160.213 92.7874 161.581C92.9026 161.987 93.0182 162.393 93.1341 162.798C93.2906 163.346 93.4454 163.894 93.6002 164.441C93.7297 164.897 93.7297 164.897 93.8618 165.363C94.0437 166.113 94.0437 166.113 94.0437 166.992C94.2892 167.064 94.5347 167.136 94.7876 167.21C95.9226 167.622 96.9249 168.179 97.9622 168.787C99.527 169.686 101.101 170.539 102.723 171.332C104.87 172.386 106.97 173.516 109.064 174.673C110.544 175.491 112.031 176.29 113.535 177.064C113.852 177.229 114.168 177.394 114.494 177.564C115.102 177.881 115.713 178.193 116.326 178.501C118.457 179.62 119.719 180.843 120.795 182.996C121.211 184.433 121.327 185.828 121.332 187.32C121.334 187.684 121.336 188.049 121.338 188.425C121.338 188.819 121.339 189.213 121.339 189.607C121.34 190.015 121.341 190.422 121.342 190.83C121.344 191.683 121.344 192.535 121.344 193.387C121.344 194.477 121.348 195.567 121.353 196.658C121.356 197.499 121.357 198.34 121.357 199.181C121.357 199.583 121.358 199.985 121.361 200.387C121.364 200.949 121.362 201.511 121.361 202.074C121.361 202.393 121.362 202.712 121.362 203.041C121.256 204.314 120.945 205.109 120.081 206.049C119.007 206.679 118.103 206.69 116.895 206.543C116.147 206.257 115.519 205.973 114.826 205.591C114.531 205.435 114.531 205.435 114.23 205.277C113.792 205.047 113.356 204.814 112.921 204.58C112.161 204.174 111.397 203.779 110.632 203.384C107.553 201.796 104.496 200.171 101.463 198.497C99.6973 197.525 97.9176 196.582 96.1337 195.645C95.7471 195.442 95.7471 195.442 95.3526 195.234C94.7211 194.902 94.0895 194.57 93.4578 194.238C93.4589 194.589 93.4599 194.94 93.4611 195.302C93.4864 203.629 93.5057 211.955 93.5176 220.282C93.5191 221.306 93.5206 222.33 93.5222 223.355C93.5225 223.558 93.5228 223.762 93.5231 223.972C93.5282 227.277 93.5374 230.581 93.5482 233.886C93.5591 237.275 93.5656 240.664 93.568 244.053C93.5696 245.957 93.5732 247.861 93.5817 249.765C93.5896 251.556 93.5921 253.347 93.5903 255.137C93.5907 255.796 93.593 256.455 93.5975 257.113C93.6033 258.01 93.6019 258.906 93.5987 259.803C93.6021 260.066 93.6055 260.329 93.609 260.6C93.592 262.347 93.592 262.347 92.923 263.11C91.9311 263.529 91.2706 263.34 90.2351 263.086C89.4684 262.756 88.7524 262.417 88.0184 262.027C87.8113 261.92 87.6043 261.813 87.3909 261.703C86.72 261.355 86.0514 261.003 85.3828 260.651C84.9151 260.407 84.4472 260.163 83.9792 259.92C81.3112 258.529 78.6607 257.108 76.0284 255.65C73.5159 254.267 70.9624 252.966 68.409 251.66C64.7325 249.78 61.0861 247.858 57.4741 245.856C56.8812 245.532 56.2843 245.219 55.6831 244.91C53.2206 243.64 50.4377 242.161 49.5125 239.355C48.8427 235.968 48.8447 232.577 48.8561 229.138C48.8558 228.559 48.8553 227.98 48.8546 227.401C48.8533 225.821 48.8556 224.241 48.8585 222.661C48.8611 220.953 48.8602 219.245 48.8598 217.537C48.8594 214.581 48.8613 211.626 48.8646 208.67C48.8694 204.397 48.8709 200.124 48.8716 195.85C48.8728 188.916 48.8768 181.983 48.8823 175.049C48.8877 168.315 48.8919 161.581 48.8943 154.847C48.8944 154.639 48.8945 154.432 48.8946 154.218C48.8954 152.131 48.8961 150.044 48.8968 147.958C48.8983 143.707 48.9 139.457 48.9017 135.207C48.9018 135.011 48.9019 134.816 48.902 134.615C48.9074 121.579 48.9166 108.543 48.9265 95.5078Z" fill="black"/>
<path d="M212.988 58.3008C213.187 58.9753 213.385 59.6498 213.583 60.3243C213.762 60.9307 213.94 61.537 214.118 62.1434C214.614 63.8289 215.11 65.5146 215.605 67.2004C216.507 70.272 217.411 73.3433 218.327 76.4111C218.529 77.0908 218.731 77.7706 218.934 78.4504C219.059 78.8704 219.185 79.2902 219.311 79.7098C219.484 80.2845 219.655 80.8597 219.826 81.435C219.921 81.7511 220.016 82.0672 220.113 82.3928C220.312 83.2031 220.312 83.2031 220.312 84.375C220.119 84.4713 219.926 84.5675 219.727 84.6667C217.879 85.5878 216.031 86.5095 214.184 87.4319C213.234 87.9057 212.285 88.3793 211.336 88.8524C207.369 90.8287 203.413 92.8182 199.498 94.8963C197.955 95.7147 196.391 96.4926 194.824 97.2656C192.723 98.3089 190.633 99.368 188.562 100.47C186.077 101.792 183.563 103.053 181.039 104.299C179.168 105.227 177.316 106.185 175.47 107.162C172.327 108.825 169.146 110.408 165.961 111.987C163.323 113.296 160.695 114.617 158.093 115.997C154.761 117.764 151.382 119.435 148.004 121.112C144.918 122.645 141.844 124.197 138.799 125.812C136.408 127.077 133.986 128.28 131.561 129.48C129.281 130.609 127.016 131.761 124.768 132.953C121.411 134.731 118.008 136.415 114.606 138.104C111.699 139.548 108.799 141 105.927 142.511C105.703 142.628 105.48 142.746 105.249 142.867C104.637 143.191 104.027 143.518 103.418 143.848C103.22 143.954 103.021 144.06 102.817 144.169C101.751 144.706 101.751 144.706 101.074 145.642C101.033 146.219 101.033 146.219 101.367 146.777C102.818 146.626 103.919 146.323 105.217 145.662C105.725 145.405 105.725 145.405 106.242 145.144C106.595 144.962 106.947 144.78 107.3 144.598C107.635 144.429 107.971 144.259 108.316 144.084C110.089 143.183 111.852 142.262 113.61 141.332C116.975 139.552 120.375 137.849 123.785 136.157C126.38 134.869 128.967 133.571 131.525 132.211C133.845 130.98 136.187 129.795 138.538 128.622C138.717 128.533 138.896 128.444 139.081 128.352C140.563 127.612 142.047 126.875 143.53 126.137C144.82 125.495 146.11 124.853 147.4 124.21C147.668 124.076 147.668 124.076 147.941 123.94C150.361 122.732 152.765 121.499 155.153 120.23C157.132 119.18 159.131 118.176 161.138 117.182C163.813 115.857 166.484 114.53 169.116 113.123C172.231 111.458 175.4 109.9 178.564 108.331C180.794 107.223 183.011 106.096 185.211 104.929C188.672 103.094 192.182 101.361 195.691 99.6187C200.014 97.4707 204.298 95.2615 208.557 92.9878C211.416 91.461 214.309 90.0252 217.243 88.646C217.516 88.5176 217.789 88.3892 218.069 88.2568C218.312 88.1435 218.554 88.0302 218.804 87.9135C219.493 87.5839 219.493 87.5839 220.312 87.0117C220.603 87.0117 220.893 87.0117 221.191 87.0117C221.518 87.9567 221.841 88.903 222.162 89.8499C222.257 90.1294 222.353 90.409 222.451 90.6971C223.073 92.5568 223.545 94.3558 223.829 96.2986C224.065 97.0587 224.065 97.0587 224.923 97.3034C225.239 97.3876 225.554 97.4718 225.879 97.5586C226.436 97.8615 226.986 98.1797 227.527 98.5107C228.964 99.3671 230.418 100.135 231.918 100.873C233.818 101.82 235.69 102.821 237.566 103.815C238.231 104.167 238.895 104.518 239.56 104.87C241.779 106.043 243.997 107.219 246.211 108.403C247.313 108.991 248.418 109.575 249.524 110.156C253.172 112.094 256.155 113.973 257.52 118.066C257.54 118.768 257.544 119.47 257.538 120.172C257.535 120.545 257.533 120.918 257.53 121.302C257.525 121.73 257.525 121.73 257.52 122.168C255.665 123.146 253.809 124.122 251.953 125.098C251.709 125.226 251.464 125.355 251.212 125.487C246.823 127.792 242.413 130.055 237.999 132.31C235.359 133.66 232.728 135.023 230.108 136.411C228.756 137.127 227.396 137.822 226.025 138.501C223.064 139.971 220.135 141.503 217.201 143.028C215.986 143.66 214.769 144.291 213.552 144.921C213.212 145.097 212.872 145.273 212.522 145.455C211.886 145.784 211.251 146.113 210.615 146.442C208.997 147.28 207.382 148.124 205.77 148.975C202.323 150.795 198.855 152.572 195.383 154.343C192.437 155.846 189.499 157.361 186.575 158.905C184.547 159.975 182.511 161.028 180.471 162.076C179.431 162.61 178.391 163.145 177.351 163.68C177.143 163.787 176.935 163.895 176.72 164.005C174.769 165.009 172.821 166.018 170.874 167.029C168.177 168.428 165.48 169.826 162.781 171.222C162.427 171.405 162.072 171.588 161.718 171.772C160.087 172.615 158.456 173.458 156.825 174.3C152.013 176.784 152.013 176.784 147.217 179.297C144.941 180.5 142.656 181.685 140.369 182.867C140.19 182.96 140.012 183.052 139.828 183.147C137.946 184.12 136.064 185.091 134.181 186.062C133.413 186.458 132.645 186.854 131.877 187.251C131.339 187.528 130.801 187.806 130.263 188.083C128.59 188.946 126.93 189.821 125.302 190.766C124.805 191.016 124.805 191.016 124.219 191.016C124.219 189.179 124.219 187.342 124.219 185.449C129.141 182.7 134.153 180.157 139.202 177.653C140.982 176.77 142.76 175.886 144.538 175.001C144.825 174.858 144.825 174.858 145.119 174.712C147.27 173.64 149.414 172.557 151.535 171.426C154.077 170.07 156.651 168.782 159.229 167.496C159.447 167.387 159.665 167.278 159.89 167.166C161.705 166.26 163.522 165.356 165.338 164.452C166.915 163.667 168.492 162.881 170.068 162.094C170.286 161.986 170.503 161.877 170.727 161.765C173.354 160.454 175.969 159.125 178.561 157.745C181.587 156.136 184.668 154.631 187.738 153.107C190.548 151.711 193.352 150.308 196.124 148.837C199.56 147.014 203.047 145.294 206.53 143.564C209.357 142.16 212.18 140.754 214.966 139.27C217.556 137.893 220.178 136.579 222.803 135.269C223.021 135.16 223.239 135.052 223.463 134.94C225.279 134.034 227.096 133.129 228.912 132.225C230.489 131.44 232.066 130.654 233.643 129.868C233.859 129.76 234.075 129.652 234.297 129.541C237.2 128.091 240.09 126.62 242.952 125.09C244.663 124.176 246.404 123.318 248.145 122.461C247.056 121.529 245.924 120.846 244.648 120.209C244.453 120.109 244.259 120.01 244.058 119.908C243.641 119.696 243.224 119.484 242.807 119.274C241.704 118.717 240.605 118.154 239.505 117.591C239.288 117.48 239.07 117.369 238.845 117.254C237.132 116.376 235.437 115.466 233.752 114.532C231.201 113.122 228.619 111.779 226.025 110.449C222.769 108.779 219.536 107.074 216.33 105.309C216.109 105.187 215.887 105.066 215.659 104.942C215.258 104.714 214.862 104.475 214.474 104.224C213.656 103.702 213.153 103.406 212.17 103.478C211.12 103.738 210.265 104.127 209.301 104.618C209.12 104.71 208.938 104.802 208.751 104.896C208.173 105.188 207.596 105.484 207.019 105.78C206.643 105.971 206.268 106.161 205.892 106.352C205.148 106.728 204.405 107.106 203.663 107.485C202.549 108.052 201.432 108.613 200.314 109.171C200.114 109.271 199.914 109.371 199.708 109.473C199.057 109.799 198.405 110.124 197.754 110.449C197.533 110.559 197.312 110.67 197.085 110.783C195.898 111.376 194.711 111.968 193.524 112.56C191.617 113.512 189.709 114.465 187.802 115.418C186.363 116.136 184.925 116.854 183.486 117.572C182.076 118.275 180.667 118.979 179.258 119.683C178.729 119.948 178.199 120.212 177.67 120.476C174.749 121.932 171.844 123.414 168.96 124.94C166.963 125.996 164.95 127.014 162.927 128.018C162.568 128.197 162.208 128.377 161.848 128.556C160.544 129.206 159.239 129.855 157.935 130.504C156.644 131.146 155.354 131.788 154.065 132.431C153.797 132.565 153.797 132.565 153.524 132.701C151.104 133.909 148.7 135.142 146.312 136.411C143.956 137.661 141.568 138.845 139.178 140.027C136.941 141.135 134.718 142.264 132.513 143.436C130.169 144.679 127.802 145.877 125.427 147.061C125.159 147.195 125.159 147.195 124.885 147.332C123.402 148.071 121.918 148.809 120.435 149.547C119.144 150.188 117.854 150.831 116.565 151.474C116.387 151.563 116.209 151.652 116.025 151.743C113.588 152.96 111.168 154.201 108.762 155.478C106.851 156.494 104.919 157.465 102.979 158.423C100.866 159.466 98.7783 160.532 96.7272 161.692C96.0938 162.012 96.0938 162.012 95.5078 162.012C92.6314 152.532 89.9202 143.012 87.2818 133.464C86.3215 129.989 85.3496 126.518 84.375 123.047C85.0639 122.684 85.7527 122.322 86.4416 121.959C86.9619 121.685 87.4821 121.411 88.0022 121.137C90.1726 119.997 92.363 118.9 94.5573 117.808C95.7293 117.224 96.9002 116.638 98.0713 116.052C98.5687 115.804 99.0662 115.555 99.5636 115.306C99.8125 115.182 100.061 115.057 100.318 114.929C102.585 113.795 102.585 113.795 103.334 113.421C103.828 113.174 104.323 112.927 104.817 112.679C105.931 112.122 107.046 111.565 108.162 111.009C110.578 109.806 112.983 108.581 115.382 107.345C119.662 105.139 123.954 102.958 128.261 100.806C128.561 100.657 128.561 100.657 128.867 100.504C130.871 99.5027 132.876 98.5029 134.881 97.5049C138.39 95.7588 141.895 94.0102 145.355 92.1698C148.527 90.4877 151.752 88.9105 154.968 87.314C158.144 85.736 161.308 84.1416 164.441 82.4803C166.436 81.4245 168.449 80.4118 170.472 79.4103C171.633 78.8342 172.791 78.2533 173.95 77.6733C174.448 77.4246 174.945 77.1759 175.443 76.9272C175.691 76.8027 175.94 76.6783 176.197 76.5501C178.464 75.4166 178.464 75.4166 179.213 75.0421C179.707 74.7949 180.201 74.5477 180.696 74.3004C181.81 73.7429 182.925 73.1858 184.041 72.6306C186.695 71.309 189.333 69.9601 191.968 68.6016C196.443 66.2964 200.931 64.0173 205.43 61.7609C206.037 61.4564 206.644 61.1515 207.251 60.8462C208.099 60.4192 208.949 59.9937 209.799 59.5688C210.054 59.44 210.31 59.3112 210.573 59.1785C210.806 59.0623 211.04 58.9461 211.28 58.8264C211.484 58.7243 211.687 58.6223 211.897 58.5172C212.402 58.3008 212.402 58.3008 212.988 58.3008Z" fill="black"/>
<path d="M206.543 43.9462C205.65 44.9036 204.609 45.4101 203.447 45.9811C203.222 46.0936 202.996 46.2062 202.764 46.3222C202.016 46.695 201.268 47.0652 200.519 47.4355C199.995 47.6964 199.471 47.9574 198.947 48.2186C197.563 48.9082 196.177 49.5958 194.792 50.2829C192.591 51.3746 190.392 52.4691 188.193 53.564C187.433 53.942 186.672 54.3191 185.911 54.6961C183.266 56.0094 180.641 57.3533 178.031 58.7351C176.122 59.7448 174.2 60.7207 172.266 61.68C171.936 61.8445 171.605 62.009 171.265 62.1784C169.886 62.8656 168.507 63.5512 167.127 64.237C163.652 65.9655 160.183 67.6985 156.755 69.5202C153.452 71.2696 150.094 72.9111 146.747 74.5735C143.77 76.0531 140.796 77.5337 137.86 79.0933C134.204 81.035 130.49 82.8604 126.783 84.7022C122.222 86.9685 122.222 86.9685 117.704 89.3175C114.123 91.2206 110.487 93.016 106.858 94.8243C105.916 95.2938 104.974 95.7641 104.032 96.2343C101.487 97.5044 98.9426 98.7744 96.3966 100.042C94.2079 101.132 92.0315 102.242 89.8682 103.382C87.6434 104.548 85.4121 105.699 83.1665 106.825C82.9255 106.946 82.6844 107.067 82.4361 107.192C81.9991 107.41 81.5606 107.625 81.1202 107.836C80.6704 108.056 80.2313 108.297 79.7962 108.545C78.7029 108.777 78.0012 108.212 77.1057 107.649C76.6854 107.398 76.2646 107.149 75.8434 106.9C75.6146 106.764 75.3858 106.627 75.1501 106.486C73.8128 105.704 72.4459 104.976 71.0815 104.243C70.7846 104.082 70.4877 103.922 70.1818 103.756C68.6146 102.909 67.0456 102.066 65.4751 101.225C63.5689 100.204 61.6663 99.1766 59.7656 98.1455C59.4432 97.9713 59.1208 97.7972 58.7886 97.6177C57.8485 97.1081 56.9116 96.5931 55.9753 96.0764C55.6908 95.9228 55.4062 95.7693 55.113 95.6112C54.8511 95.4652 54.5892 95.3192 54.3194 95.1688C54.0902 95.0431 53.861 94.9173 53.6248 94.7877C52.8843 94.229 52.5327 93.7138 52.1484 92.872C52.6706 91.0117 53.5967 90.1606 55.2374 89.2239C55.501 89.0931 55.7647 88.9622 56.0364 88.8274C56.3378 88.6767 56.6393 88.526 56.95 88.3707C57.2738 88.2111 57.5975 88.0514 57.9311 87.887C58.4381 87.6344 58.4381 87.6344 58.9553 87.3768C59.8538 86.9292 60.7534 86.4837 61.6532 86.0387C62.5522 85.5936 63.4503 85.1466 64.3484 84.6998C65.724 84.0156 67.1002 83.3325 68.4768 82.6503C69.9842 81.9029 71.4891 81.1506 72.9927 80.3957C74.5599 79.6097 76.1374 78.8506 77.7283 78.1137C79.5356 77.2663 81.3143 76.3808 83.075 75.4404C88.5875 72.499 94.1968 69.71 99.8558 67.0616C101.627 66.2323 103.378 65.3653 105.124 64.4843C106.173 63.9557 107.223 63.4301 108.274 62.9057C110.562 61.7628 112.847 60.6149 115.132 59.4667C118.987 57.5294 122.844 55.5944 126.702 53.6608C129.025 52.4959 131.349 51.33 133.671 50.1621C135.713 49.1354 137.755 48.1104 139.799 47.0873C140.875 46.5488 141.95 46.0095 143.024 45.4681C162.55 35.6295 186.997 31.1524 206.543 43.9462Z" fill="black"/>
<path d="M235.253 150.293C235.281 156.308 235.301 162.323 235.314 168.338C235.32 171.131 235.328 173.924 235.342 176.717C235.353 179.151 235.361 181.585 235.364 184.018C235.365 185.308 235.369 186.597 235.377 187.886C235.385 189.099 235.388 190.311 235.386 191.524C235.386 191.97 235.388 192.415 235.393 192.861C235.399 193.469 235.397 194.076 235.394 194.684C235.395 195.024 235.396 195.364 235.397 195.715C235.221 196.774 234.941 197.127 234.081 197.754C231.988 197.802 230.425 196.89 228.625 195.905C228.331 195.748 228.038 195.591 227.735 195.429C226.821 194.939 225.91 194.443 224.999 193.945C224.72 193.793 224.44 193.64 224.152 193.482C223.074 192.892 221.996 192.302 220.919 191.709C218.913 190.611 216.886 189.566 214.823 188.58C213.594 187.985 212.449 187.357 211.321 186.584C209.253 185.081 209.253 185.081 206.832 184.627C205.546 185.027 204.469 185.761 203.362 186.511C202.248 187.226 201.05 187.769 199.859 188.342C197.832 189.35 195.82 190.384 193.816 191.437C193.586 191.558 193.356 191.679 193.118 191.803C192.214 192.281 191.327 192.762 190.455 193.296C189.843 193.652 189.843 193.652 189.257 193.652C189.259 193.819 189.261 193.986 189.263 194.157C189.283 195.902 189.296 197.646 189.305 199.39C189.31 200.04 189.316 200.69 189.323 201.34C189.334 202.277 189.339 203.215 189.343 204.152C189.348 204.44 189.352 204.727 189.357 205.024C189.357 207.333 189.034 209.64 187.405 211.409C186.316 212.312 185.041 212.909 183.782 213.538C183.5 213.683 183.218 213.829 182.928 213.979C180.854 215.039 180.854 215.039 180.175 215.039C179.911 214.136 179.846 213.331 179.847 212.392C179.847 212.094 179.846 211.797 179.846 211.49C179.847 211.004 179.847 211.004 179.849 210.507C179.849 210.164 179.849 209.821 179.849 209.467C179.849 208.332 179.851 207.197 179.854 206.062C179.854 205.276 179.855 204.489 179.855 203.703C179.856 201.843 179.858 199.984 179.861 198.125C179.864 196.008 179.866 193.891 179.867 191.774C179.87 187.419 179.876 183.065 179.882 178.711C180.91 178.148 181.939 177.585 182.967 177.023C183.256 176.865 183.545 176.706 183.843 176.543C186.015 175.357 188.206 174.231 190.429 173.145C192.814 171.969 195.175 170.761 197.497 169.464C201.18 167.413 204.967 165.563 208.744 163.692C211.937 162.109 215.103 160.483 218.25 158.812C219.068 158.379 219.889 157.951 220.71 157.523C220.974 157.386 221.237 157.249 221.509 157.108C221.766 156.974 222.024 156.84 222.289 156.702C224.169 155.723 226.044 154.739 227.911 153.735C229.452 152.911 231.001 152.106 232.562 151.318C232.763 151.216 232.965 151.113 233.173 151.007C234.598 150.293 234.598 150.293 235.253 150.293Z" fill="black"/>
<path d="M158.789 189.844C158.789 201.832 158.789 213.82 158.789 226.172C156.382 227.204 156.382 227.204 154.98 227.344C154.795 227.363 154.61 227.382 154.419 227.401C151.314 227.571 148.263 226.389 145.898 224.414C143.653 222.384 143.751 219.611 143.598 216.797C143.584 216.507 143.569 216.217 143.555 215.918C143.397 216.001 143.238 216.085 143.076 216.171C139.52 218.045 135.947 219.878 132.349 221.667C128.639 223.514 124.963 225.414 121.312 227.375C118.433 228.92 115.521 230.389 112.59 231.834C109.052 233.58 105.545 235.363 102.094 237.276C97.2837 239.941 97.2837 239.941 96.3867 239.941C96.3867 226.406 96.3867 212.871 96.3867 198.926C97.5575 199.394 98.6369 199.895 99.7547 200.471C99.9369 200.564 100.119 200.658 100.307 200.755C100.899 201.06 101.49 201.366 102.081 201.672C102.384 201.829 102.384 201.829 102.693 201.988C105.596 203.489 108.482 205.018 111.342 206.599C115.332 208.841 115.332 208.841 119.824 209.18C121.897 208.545 123.818 207.493 125.72 206.47C127.72 205.401 129.734 204.366 131.764 203.356C133.928 202.278 136.078 201.171 138.226 200.061C138.648 199.844 139.07 199.626 139.491 199.409C142.129 198.048 144.765 196.684 147.4 195.319C147.717 195.154 148.034 194.99 148.361 194.821C149.954 193.995 151.544 193.164 153.129 192.324C153.441 192.159 153.753 191.994 154.074 191.825C154.663 191.513 155.252 191.2 155.84 190.885C156.23 190.679 156.23 190.679 156.628 190.469C156.856 190.347 157.083 190.226 157.317 190.101C157.91 189.844 157.91 189.844 158.789 189.844Z" fill="black"/>
<path d="M209.473 46.2891C210.343 49.2861 211.213 52.2832 212.109 55.3711C207.933 57.6731 203.734 59.8913 199.462 62.011C198.894 62.2944 198.325 62.5779 197.757 62.8616C196.279 63.5983 194.801 64.3337 193.323 65.0688C190.956 66.246 188.589 67.4249 186.223 68.6046C185.41 69.0098 184.596 69.4142 183.782 69.8185C180.82 71.2928 177.879 72.8024 174.956 74.3542C173.42 75.1679 171.867 75.9467 170.308 76.7169C167.948 77.8853 165.593 79.0629 163.237 80.2385C162.654 80.5295 162.07 80.8203 161.487 81.1109C158.625 82.5358 155.767 83.9648 152.945 85.4668C150.5 86.7659 148.028 88.0097 145.55 89.2456C145.352 89.3447 145.153 89.4438 144.949 89.5459C143.299 90.3684 141.649 91.1894 139.999 92.0104C138.566 92.7239 137.132 93.4379 135.699 94.1528C135.5 94.2523 135.301 94.3517 135.095 94.4542C132.886 95.5575 130.683 96.6708 128.503 97.8333C126.017 99.159 123.499 100.42 120.978 101.678C120.766 101.784 120.554 101.89 120.336 101.999C118.576 102.877 116.815 103.753 115.054 104.629C113.525 105.391 111.996 106.153 110.467 106.915C110.15 107.074 110.15 107.074 109.826 107.235C107.282 108.506 104.749 109.794 102.239 111.131C99.2096 112.74 96.1337 114.26 93.0645 115.792C92.1582 116.244 91.2525 116.697 90.3469 117.151C89.4735 117.588 88.5996 118.025 87.7258 118.461C87.4017 118.624 87.0777 118.786 86.7438 118.953C86.4451 119.102 86.1464 119.251 85.8387 119.404C85.4452 119.601 85.4452 119.601 85.0438 119.801C84.375 120.117 84.375 120.117 83.496 120.41C83.1597 119.269 82.826 118.128 82.4947 116.986C82.3817 116.598 82.268 116.21 82.1537 115.822C81.9889 115.264 81.8269 114.704 81.665 114.145C81.5668 113.809 81.4686 113.473 81.3674 113.126C81.1716 112.289 81.1075 111.596 81.1523 110.742C81.3184 110.66 81.4845 110.578 81.6556 110.493C82.4464 110.101 83.2367 109.707 84.0271 109.314C84.2878 109.185 84.5486 109.056 84.8173 108.923C86.1125 108.277 87.4035 107.626 88.6805 106.945C91.8533 105.253 95.058 103.631 98.2749 102.025C98.5062 101.91 98.7374 101.794 98.9757 101.676C100.664 100.833 102.352 99.9924 104.04 99.1516C105.734 98.3083 107.428 97.4645 109.121 96.6197C109.786 96.2881 110.451 95.9572 111.117 95.6263C113.463 94.4574 115.792 93.2618 118.103 92.0262C120.024 91.0003 121.969 90.0279 123.921 89.0622C125.554 88.2534 127.184 87.4389 128.815 86.6258C129.228 86.42 129.641 86.2145 130.054 86.0092C132.133 84.9761 134.206 83.9359 136.255 82.8448C139.189 81.2825 142.155 79.7892 145.129 78.3051C145.36 78.1899 145.591 78.0748 145.828 77.9562C147.755 76.9948 149.683 76.0348 151.611 75.0749C153.284 74.2419 154.956 73.4083 156.628 72.5739C156.974 72.4013 156.974 72.4013 157.327 72.2253C160.009 70.8858 162.682 69.5323 165.327 68.1213C168.811 66.2684 172.363 64.5433 175.897 62.7872C180.53 60.4872 180.53 60.4872 185.12 58.1017C189.116 55.9765 193.172 53.9669 197.219 51.941C198.41 51.345 199.599 50.7468 200.788 50.1481C201.71 49.6845 202.633 49.2224 203.555 48.7608C203.995 48.5406 204.434 48.3199 204.873 48.0985C205.481 47.792 206.09 47.4876 206.7 47.1838C207.218 46.9239 207.218 46.9239 207.747 46.6586C208.594 46.2891 208.594 46.2891 209.473 46.2891Z" fill="black"/>
<path d="M257.52 125.684C257.85 132.923 257.85 132.923 256.055 135.352C254.065 137.518 251.616 138.739 249.023 140.021C248.592 140.238 248.16 140.456 247.729 140.674C246.838 141.124 245.946 141.573 245.054 142.02C243.277 142.912 241.512 143.826 239.746 144.741C236.706 146.314 233.658 147.874 230.608 149.43C230.305 149.584 230.003 149.739 229.691 149.898C228.196 150.66 226.702 151.422 225.206 152.183C222.362 153.632 219.525 155.094 216.703 156.585C214.569 157.713 212.425 158.821 210.278 159.924C209.871 160.134 209.463 160.344 209.055 160.554C206.741 161.745 204.426 162.932 202.11 164.119C201.859 164.247 201.609 164.375 201.352 164.507C200.139 165.128 198.927 165.749 197.714 166.369C195.185 167.663 192.665 168.973 190.153 170.299C187.957 171.457 185.751 172.598 183.543 173.732C182.901 174.062 182.259 174.392 181.617 174.723C179.348 175.89 177.073 177.043 174.789 178.181C173.126 179.01 171.476 179.862 169.83 180.725C169.544 180.875 169.258 181.024 168.963 181.178C167.635 181.873 166.309 182.57 164.985 183.273C162.447 184.618 159.896 185.928 157.324 187.207C155.061 188.332 152.812 189.478 150.58 190.663C148.151 191.95 145.706 193.203 143.262 194.458C140.086 196.089 136.91 197.722 133.74 199.365C133.423 199.53 133.105 199.694 132.778 199.864C130.55 201.02 128.328 202.186 126.113 203.367C124.543 204.199 124.543 204.199 124.219 204.199C124.219 200.912 124.219 197.625 124.219 194.238C124.881 193.898 125.543 193.559 126.225 193.208C130.403 191.063 134.58 188.916 138.741 186.739C140.941 185.589 143.144 184.447 145.349 183.307C145.527 183.215 145.705 183.123 145.889 183.028C146.979 182.464 148.069 181.901 149.16 181.338C158.328 176.613 158.328 176.613 167.464 171.828C170.917 170.001 174.395 168.222 177.873 166.443C180.137 165.284 182.395 164.116 184.644 162.927C188.056 161.124 191.497 159.377 194.937 157.626C198.036 156.048 201.13 154.46 204.205 152.834C207.016 151.35 209.849 149.908 212.68 148.462C215.515 147.013 218.342 145.552 221.158 144.065C223.482 142.839 225.82 141.64 228.16 140.444C233.021 137.96 237.881 135.474 242.698 132.906C245.637 131.342 248.6 129.831 251.575 128.337C252.033 128.107 252.492 127.876 252.951 127.645C253.598 127.318 254.245 126.994 254.893 126.67C255.09 126.57 255.287 126.471 255.491 126.368C256.866 125.684 256.866 125.684 257.52 125.684Z" fill="black"/>
<path d="M177.246 180.176C177.246 192.261 177.246 204.346 177.246 216.797C166.406 222.363 166.406 222.363 161.719 224.707C161.719 212.622 161.719 200.537 161.719 188.086C164.683 186.439 164.683 186.439 165.891 185.812C166.159 185.673 166.426 185.534 166.701 185.391C166.979 185.247 167.256 185.103 167.542 184.955C169.281 184.051 171.02 183.147 172.75 182.225C173.005 182.09 173.261 181.954 173.524 181.814C174.007 181.556 174.49 181.298 174.971 181.039C176.595 180.176 176.595 180.176 177.246 180.176Z" fill="black"/>
<path d="M208.595 108.806C209.029 109.039 209.029 109.039 209.473 109.277C209.677 109.383 209.882 109.489 210.093 109.598C210.851 109.998 211.599 110.414 212.347 110.833C215.126 112.372 217.931 113.851 220.759 115.296C222.42 116.151 224.017 117.049 225.586 118.066C222.149 120.734 222.149 120.734 220.02 120.996C218.279 120.708 216.754 119.7 215.255 118.819C214.088 118.149 212.888 117.549 211.688 116.94C209.218 115.681 206.77 114.377 204.346 113.03C204.153 112.924 203.96 112.818 203.761 112.709C202.477 111.984 202.477 111.984 202.148 111.328C203.035 110.866 203.927 110.418 204.822 109.973C205.073 109.842 205.323 109.711 205.582 109.577C207.451 108.656 207.451 108.656 208.595 108.806Z" fill="black"/>
<path d="M169.945 128.164C170.227 128.312 170.51 128.461 170.801 128.614C170.974 128.699 171.147 128.783 171.325 128.871C171.951 129.182 172.566 129.509 173.181 129.84C173.415 129.965 173.649 130.09 173.89 130.218C174.418 130.499 174.944 130.781 175.471 131.064C176.289 131.501 177.108 131.937 177.927 132.372C178.66 132.761 179.393 133.151 180.125 133.542C180.485 133.733 180.845 133.925 181.205 134.116C183.152 135.151 185.063 136.204 186.914 137.403C186.068 138.303 185.114 138.828 184.021 139.38C183.752 139.525 183.752 139.525 183.477 139.672C182.311 140.264 181.711 140.4 180.469 140.039C179.826 139.747 179.192 139.435 178.566 139.109C178.383 139.015 178.201 138.921 178.013 138.824C177.421 138.517 176.83 138.207 176.239 137.897C175.831 137.685 175.422 137.472 175.014 137.26C171.827 135.599 168.664 133.895 165.522 132.151C164.944 131.838 164.359 131.541 163.77 131.25C163.77 131.057 163.77 130.864 163.77 130.664C164.607 130.203 165.451 129.755 166.296 129.309C166.533 129.179 166.77 129.048 167.014 128.913C168.79 127.989 168.79 127.989 169.945 128.164Z" fill="black"/>
<path d="M144.141 142.089C144.401 142.217 144.662 142.344 144.931 142.476C145.213 142.622 145.496 142.769 145.787 142.92C146.267 143.168 146.267 143.168 146.755 143.421C147.095 143.597 147.435 143.774 147.784 143.957C147.958 144.047 148.132 144.137 148.311 144.23C152.43 146.371 156.524 148.562 160.547 150.878C159.585 151.638 158.575 152.253 157.507 152.855C157.185 153.041 156.862 153.227 156.53 153.419C155.391 153.879 154.987 153.808 153.809 153.515C153.079 153.182 152.387 152.839 151.685 152.456C151.483 152.349 151.282 152.242 151.074 152.131C150.422 151.783 149.771 151.431 149.121 151.079C148.673 150.839 148.225 150.599 147.777 150.359C146.884 149.88 145.992 149.4 145.101 148.918C143.992 148.318 142.88 147.724 141.768 147.13C141.186 146.817 140.603 146.504 140.021 146.19C139.755 146.048 139.489 145.906 139.215 145.76C138.976 145.63 138.737 145.5 138.491 145.366C138.286 145.256 138.08 145.145 137.869 145.031C137.402 144.726 137.402 144.726 137.109 144.14C138.002 143.679 138.901 143.231 139.801 142.785C140.054 142.654 140.307 142.523 140.568 142.389C140.815 142.268 141.061 142.147 141.315 142.022C141.541 141.909 141.766 141.795 141.999 141.678C142.916 141.441 143.302 141.667 144.141 142.089Z" fill="black"/>
<path d="M191.016 118.067C192 118.535 192.943 119.066 193.89 119.605C194.464 119.925 195.037 120.244 195.612 120.563C195.912 120.73 196.212 120.896 196.521 121.068C198.422 122.108 200.35 123.094 202.276 124.086C204.008 124.98 205.725 125.896 207.422 126.856C207.422 127.049 207.422 127.243 207.422 127.442C206.617 127.835 205.812 128.225 205.005 128.614C204.777 128.725 204.549 128.837 204.315 128.952C203.983 129.111 203.983 129.111 203.645 129.273C203.443 129.371 203.24 129.469 203.032 129.57C202.211 129.87 201.521 129.88 200.701 129.572C200.503 129.472 200.304 129.372 200.1 129.268C199.873 129.154 199.645 129.04 199.411 128.923C199.044 128.733 199.044 128.733 198.669 128.54C198.413 128.41 198.156 128.279 197.892 128.145C193.288 125.788 188.775 123.255 184.277 120.703C185.068 119.771 186.081 119.271 187.152 118.726C187.329 118.63 187.506 118.533 187.688 118.434C188.944 117.794 189.676 117.63 191.016 118.067Z" fill="black"/>
<path d="M126.416 152.881C126.721 153.046 127.026 153.211 127.341 153.382C127.664 153.559 127.987 153.735 128.32 153.918C128.655 154.099 128.989 154.281 129.334 154.468C130.364 155.027 131.393 155.589 132.422 156.152C133.339 156.652 134.256 157.153 135.173 157.653C135.718 157.951 136.263 158.249 136.807 158.548C138.069 159.239 139.333 159.915 140.625 160.546C140.238 161.709 139.759 161.814 138.712 162.35C138.497 162.455 138.283 162.561 138.062 162.67C137.852 162.78 137.642 162.891 137.425 163.004C137.22 163.107 137.014 163.21 136.803 163.316C136.522 163.457 136.522 163.457 136.236 163.601C134.858 163.992 133.722 163.289 132.531 162.64C132.207 162.465 131.883 162.29 131.55 162.11C131.199 161.918 130.849 161.727 130.499 161.535C130.138 161.339 129.777 161.143 129.416 160.948C128.659 160.538 127.903 160.127 127.147 159.716C125.406 158.77 123.659 157.837 121.912 156.903C121.034 156.434 120.157 155.964 119.279 155.493C118.988 155.337 118.697 155.181 118.396 155.02C118.191 154.91 117.985 154.8 117.773 154.687C117.773 154.493 117.773 154.3 117.773 154.101C118.611 153.639 119.455 153.192 120.3 152.746C120.537 152.615 120.774 152.484 121.018 152.35C121.25 152.229 121.482 152.108 121.722 151.984C121.933 151.87 122.145 151.757 122.363 151.64C123.814 151.267 125.167 152.201 126.416 152.881Z" fill="black"/>
<path d="M136.717 147.028C137.116 147.287 137.513 147.549 137.908 147.815C139.185 148.632 140.556 149.279 141.907 149.963C149.161 153.737 149.161 153.737 151.465 155.273C151.465 155.466 151.465 155.659 151.465 155.859C150.667 156.26 149.868 156.656 149.066 157.049C148.841 157.163 148.616 157.277 148.384 157.395C148.164 157.502 147.944 157.608 147.717 157.718C147.415 157.868 147.415 157.868 147.108 158.021C145.6 158.461 144.298 157.602 142.988 156.915C142.793 156.814 142.598 156.714 142.396 156.61C141.762 156.282 141.129 155.951 140.497 155.621C140.061 155.395 139.626 155.169 139.19 154.943C135.906 153.236 132.647 151.487 129.411 149.69C129.051 149.493 128.687 149.304 128.32 149.12C128.32 148.927 128.32 148.734 128.32 148.534C133.631 145.138 133.631 145.138 136.717 147.028Z" fill="black"/>
<path d="M115.723 156.446C116.548 156.851 116.548 156.851 117.352 157.361C118.582 158.112 119.811 158.799 121.106 159.431C122.995 160.359 124.844 161.351 126.691 162.36C126.965 162.51 127.239 162.66 127.521 162.814C128.968 163.607 130.407 164.411 131.836 165.235C131.043 166.173 130.02 166.668 128.943 167.213C128.674 167.357 128.674 167.357 128.399 167.504C127.236 168.094 126.631 168.216 125.391 167.872C124.941 167.684 124.499 167.48 124.064 167.262C123.811 167.135 123.558 167.009 123.297 166.879C123.027 166.741 122.757 166.604 122.479 166.462C122.056 166.248 122.056 166.248 121.624 166.03C118.786 164.587 115.995 163.062 113.209 161.524C112.207 160.972 111.201 160.429 110.193 159.888C109.898 159.73 109.602 159.571 109.298 159.408C109.098 159.3 108.898 159.193 108.691 159.083C109.48 158.157 110.483 157.651 111.548 157.105C111.722 157.009 111.897 156.912 112.077 156.813C113.413 156.128 114.281 156.064 115.723 156.446Z" fill="black"/>
<path d="M202.193 114.759C202.496 114.92 202.496 114.92 202.805 115.083C203.459 115.43 204.113 115.778 204.767 116.126C205.216 116.364 205.665 116.602 206.114 116.841C209.592 118.688 213.055 120.56 216.504 122.461C215.529 123.206 214.534 123.835 213.464 124.439C213.142 124.624 212.819 124.81 212.487 125.002C211.352 125.46 210.939 125.387 209.766 125.098C209.099 124.794 208.445 124.463 207.801 124.114C207.615 124.014 207.429 123.914 207.237 123.811C206.632 123.485 206.029 123.156 205.426 122.827C204.797 122.488 204.168 122.15 203.539 121.811C203.114 121.583 202.689 121.354 202.264 121.124C200.234 120.029 198.191 118.962 196.143 117.902C195.83 117.74 195.517 117.578 195.195 117.411C194.486 117.043 193.776 116.676 193.066 116.309C193.997 115.31 195.048 114.782 196.252 114.166C196.46 114.054 196.667 113.941 196.881 113.825C197.084 113.721 197.286 113.618 197.495 113.511C197.678 113.415 197.862 113.319 198.05 113.221C199.464 112.894 200.971 114.108 202.193 114.759Z" fill="black"/>
<path d="M179.297 123.926C179.813 124.165 180.32 124.424 180.818 124.697C181.264 124.94 181.264 124.94 181.718 125.188C182.037 125.364 182.356 125.539 182.684 125.721C183.19 125.996 183.696 126.272 184.202 126.548C184.555 126.74 184.908 126.933 185.261 127.126C187.137 128.152 189.021 129.161 190.907 130.17C191.45 130.46 191.992 130.751 192.535 131.042C194.111 131.893 194.111 131.893 195.703 132.715C195.703 132.909 195.703 133.102 195.703 133.301C194.859 133.761 194.009 134.21 193.158 134.656C192.919 134.787 192.679 134.917 192.433 135.052C192.2 135.173 191.967 135.294 191.726 135.418C191.513 135.532 191.3 135.645 191.08 135.762C190.185 136.004 189.783 135.761 188.965 135.352C188.74 135.242 188.514 135.132 188.282 135.018C188.049 134.897 187.815 134.775 187.574 134.649C187.308 134.511 187.042 134.372 186.767 134.229C186.341 134.005 186.341 134.005 185.907 133.777C185.611 133.623 185.316 133.468 185.011 133.308C182.171 131.817 179.354 130.284 176.543 128.739C175.216 128.011 173.887 127.287 172.559 126.563C173.572 125.782 174.627 125.167 175.763 124.585C175.941 124.489 176.119 124.393 176.303 124.293C177.461 123.701 178.06 123.572 179.297 123.926Z" fill="black"/>
<path d="M163.694 133.992C163.881 134.092 164.068 134.192 164.26 134.295C164.867 134.62 165.472 134.949 166.077 135.278C166.495 135.503 166.913 135.729 167.332 135.953C168.386 136.52 169.438 137.09 170.49 137.661C171.418 138.164 172.346 138.665 173.275 139.166C174.893 140.04 176.51 140.917 178.125 141.797C177.282 142.692 176.337 143.221 175.25 143.774C174.985 143.919 174.985 143.919 174.714 144.066C173.455 144.709 172.73 144.867 171.387 144.434C170.337 143.958 169.325 143.423 168.311 142.877C168.016 142.721 167.722 142.565 167.419 142.404C164.589 140.899 161.774 139.364 158.965 137.82C157.638 137.092 156.309 136.368 154.98 135.644C154.98 135.451 154.98 135.258 154.98 135.059C155.771 134.656 156.565 134.26 157.361 133.868C157.584 133.754 157.806 133.64 158.036 133.522C158.365 133.362 158.365 133.362 158.7 133.199C158.899 133.099 159.099 132.999 159.304 132.897C160.937 132.445 162.281 133.229 163.694 133.992Z" fill="black"/>
</svg>
