<svg width="300" height="300" viewBox="0 0 300 300" fill="none" xmlns="http://www.w3.org/2000/svg">
<path d="M223.243 80.8591C224.282 81.2972 225.228 81.8255 226.208 82.38C227.733 83.1671 229.408 83.4046 231.089 83.6661C232.807 83.9568 232.807 83.9568 233.362 84.6231C233.58 85.641 233.532 86.557 233.497 87.5974C233.681 87.6193 233.866 87.6412 234.056 87.6638C236 87.9624 237.414 88.4791 238.771 89.9412C241.644 94.1822 241.16 100.017 241.194 104.923C241.197 105.245 241.197 105.245 241.199 105.573C241.207 106.705 241.213 107.838 241.217 108.97C241.221 109.897 241.229 110.823 241.241 111.749C241.256 112.883 241.263 114.016 241.265 115.15C241.267 115.576 241.271 116.002 241.278 116.429C241.317 118.891 241.104 120.907 240.011 123.154C239.121 125.054 238.814 127.17 238.457 129.224C237.887 132.478 237.102 135.02 234.468 137.164C228.715 140.312 220.65 138.819 214.513 137.659C212.375 137.275 210.801 137.477 208.924 138.647C208.623 138.831 208.321 139.015 208.01 139.205C207.72 139.383 207.429 139.562 207.13 139.746C204.076 141.514 201.785 142.175 198.241 141.998C197.937 141.984 197.633 141.97 197.32 141.956C193.523 141.774 189.729 141.534 185.936 141.29C184.893 141.223 183.849 141.157 182.806 141.092C181.99 141.041 181.174 140.989 180.358 140.937C179.788 140.9 179.218 140.865 178.648 140.829C176.996 140.722 175.365 140.604 173.732 140.332C173.65 140.54 173.568 140.749 173.483 140.963C173.264 141.504 173.036 142.042 172.799 142.575C170.701 147.332 170.273 152.328 170.156 157.476C170.143 158.043 170.143 158.043 170.129 158.622C170.114 159.366 170.104 160.11 170.1 160.854C170.031 164.574 170.031 164.574 168.751 166.113C167.013 167.743 164.649 168.118 162.397 168.622C162.021 168.709 161.645 168.796 161.257 168.886C158.107 169.61 154.948 170.272 151.759 170.801C151.564 170.835 151.368 170.869 151.167 170.905C142.896 172.319 134.531 171.451 126.564 169.043C126.513 169.253 126.462 169.464 126.41 169.681C125.866 171.902 125.249 174.094 124.589 176.283C124.485 176.633 124.38 176.983 124.272 177.343C123.99 178.283 123.707 179.222 123.424 180.161C123.248 180.746 123.073 181.331 122.897 181.917C121.676 185.989 120.445 190.058 119.162 194.112C119.066 194.415 118.97 194.718 118.872 195.031C118.428 196.436 117.98 197.839 117.526 199.241C116.246 203.236 115.926 206.494 116.291 210.699C116.321 211.062 116.35 211.425 116.38 211.798C116.452 212.683 116.526 213.568 116.603 214.453C111.57 217.716 106.027 218.447 100.16 219.085C99.8021 219.125 99.4445 219.165 99.076 219.206C97.0414 219.41 95.1854 219.435 93.1651 219.14C92.6686 219.076 92.6686 219.076 92.1621 219.011C90.9633 218.854 89.7661 218.688 88.5692 218.518C88.3511 218.487 88.1329 218.456 87.9082 218.424C84.1792 217.891 80.4671 217.276 76.7589 216.614C76.5173 216.571 76.2757 216.528 76.0267 216.484C73.4027 216.018 70.8174 215.52 68.2628 214.746C68.2181 211.617 68.2181 211.617 68.5558 210.351C68.2249 210.32 67.8941 210.289 67.5533 210.257C66.14 210.08 64.8462 209.675 63.502 209.216C63.2709 209.141 63.0398 209.066 62.8017 208.988C60.5268 208.224 60.5268 208.224 59.7667 207.422C56.5048 199.374 60.4283 189.161 63.5753 181.64C64.4208 179.658 65.2885 177.685 66.1594 175.713C69.4632 168.232 72.7554 160.733 75.7701 153.131C75.8927 152.824 76.0154 152.518 76.1417 152.202C77.8569 147.795 78.2824 144.672 76.3927 140.277C75.065 137.337 73.8287 134.922 70.6615 133.722C69.1298 133.236 67.5424 133.007 65.953 132.792C64.1915 132.524 62.9965 131.936 61.8037 130.556C60.3546 128.422 59.5563 126.827 59.7667 124.218C60.078 123.59 60.078 123.59 60.6456 123.047C61.6309 122.771 61.6309 122.771 62.7879 122.589C65.1528 122.21 66.6413 121.608 68.2628 119.824C68.4082 119.67 68.5536 119.515 68.7034 119.356C71.1094 116.709 71.5256 114.175 71.7967 110.705C71.8234 110.386 71.85 110.066 71.8774 109.737C71.9951 108.258 72.0958 106.779 72.132 105.295C72.1376 105.068 72.1432 104.842 72.149 104.608C72.0095 103.521 71.3656 103.005 70.6065 102.246C69.9672 101.333 69.925 100.449 69.857 99.3448C70.114 98.3794 70.7562 97.9278 71.4854 97.2654C71.7483 97.0237 72.0111 96.782 72.282 96.533C72.8252 96.0447 73.3684 95.5564 73.9116 95.0681C74.6871 94.355 75.4299 93.6175 76.1729 92.8708C76.3723 92.6945 76.5718 92.5181 76.7772 92.3364C78.4567 90.7212 78.978 89.0708 79.4769 86.8568C79.8949 85.0344 80.5926 83.5756 82.0323 82.324C84.5081 81.1941 87.276 81.3098 89.9363 81.3305C90.6543 81.3352 91.3719 81.3305 92.09 81.3249C95.233 81.3204 98.3845 81.372 101.075 83.2029C101.533 83.6745 101.533 83.6745 101.913 84.1756C102.052 84.3565 102.192 84.5374 102.335 84.7238C102.475 84.9107 102.616 85.0977 102.76 85.2903C103.045 85.6634 103.33 86.0365 103.616 86.4095C103.954 86.8525 103.954 86.8525 104.298 87.3044C104.826 87.8323 105.629 87.6395 106.341 87.6436C106.912 87.6482 106.912 87.6482 107.495 87.6528C107.702 87.6538 107.909 87.6548 108.123 87.6559C108.786 87.6593 109.449 87.6646 110.113 87.6705C111.078 87.679 112.043 87.687 113.008 87.6946C120.035 87.7517 127.058 87.8497 134.081 88.1147C134.351 88.1248 134.621 88.135 134.899 88.1455C137.523 88.2452 140.146 88.3514 142.769 88.4652C149.234 88.7442 155.602 88.9866 162.013 87.8904C166.052 87.2196 170.068 86.9727 174.158 86.857C174.471 86.848 174.471 86.848 174.791 86.8388C182.093 86.6351 189.399 86.6187 196.704 86.5669C198.773 86.5522 200.842 86.5362 202.911 86.5201C207.149 86.4873 211.388 86.4559 215.626 86.4255C215.712 86.2673 215.797 86.1091 215.886 85.9461C216.274 85.2322 216.664 84.5196 217.054 83.8071C217.189 83.5581 217.324 83.309 217.463 83.0524C217.658 82.6969 217.658 82.6969 217.858 82.3343C218.037 82.0052 218.037 82.0052 218.22 81.6694C219.185 80.1823 221.726 80.6707 223.243 80.8591ZM218.852 85.811C218.21 86.62 218.21 86.62 218.263 87.3044C221.743 87.3044 225.224 87.3044 228.81 87.3044C229.003 86.6277 229.196 85.9509 229.396 85.2537C228.611 84.4691 226.42 84.8545 225.297 84.842C224.87 84.8357 224.444 84.8258 224.017 84.812C221.226 84.6061 221.226 84.6061 218.852 85.811ZM224.221 94.5852C222.552 96.1195 220.966 96.6026 218.775 96.8992C218.53 96.9339 218.285 96.9686 218.032 97.0044C217.328 97.0992 216.624 97.1847 215.919 97.2654C215.587 97.3035 215.254 97.3417 214.912 97.381C213.504 97.4651 212.643 97.375 211.525 96.478C210.777 95.7544 210.282 94.9434 209.767 94.0427C210.079 94.014 210.392 93.9853 210.714 93.9557C218.42 93.494 218.42 93.494 225.001 90.2341C211.278 90.2 197.555 90.2143 183.832 90.3274C182.463 90.3387 181.094 90.3487 179.725 90.3576C178.098 90.3684 176.472 90.3819 174.845 90.3976C174.248 90.4029 173.651 90.4074 173.054 90.4109C164.994 90.2463 164.994 90.2463 157.764 93.2828C155.778 95.3985 155.454 98.2638 155.152 101.021C155.13 101.215 155.107 101.409 155.084 101.608C155.021 102.164 154.966 102.72 154.911 103.277C154.657 104.442 154.259 105.128 153.517 106.054C150.931 107.47 148.158 107.273 145.291 107.276C144.888 107.276 144.484 107.277 144.081 107.278C143.238 107.28 142.395 107.281 141.552 107.281C140.48 107.281 139.408 107.285 138.336 107.29C137.504 107.293 136.671 107.293 135.839 107.293C135.254 107.294 134.669 107.297 134.085 107.3C131.294 107.293 128.476 107.23 125.996 105.816C125.611 105.605 125.611 105.605 125.219 105.39C124.513 104.883 124.513 104.883 124.058 104.131C123.133 103.21 122.597 103.237 121.332 103.207C121.069 103.208 120.806 103.209 120.535 103.211C120.128 103.204 120.128 103.204 119.712 103.197C118.847 103.185 117.981 103.182 117.115 103.18C116.528 103.173 115.94 103.165 115.353 103.157C113.914 103.139 112.475 103.129 111.036 103.125C111.004 107.24 111.029 111.324 111.329 115.429C116.307 115.68 121.28 115.773 126.263 115.82C133.91 115.892 141.556 116.027 149.201 116.215C149.811 116.229 150.42 116.244 151.03 116.259C154.701 116.348 158.371 116.438 162.042 116.535C173.267 116.831 184.476 116.953 195.704 116.894C195.899 116.479 196.091 116.063 196.282 115.646C196.443 115.298 196.443 115.298 196.607 114.943C196.985 113.98 197.003 113.107 197.004 112.079C197.109 109.697 197.667 107.747 199.44 106.073C200.256 105.555 200.865 105.28 201.77 104.991C202.006 104.915 202.242 104.839 202.485 104.761C202.664 104.704 202.844 104.648 203.028 104.59C203.415 108.396 203.73 112.193 203.907 116.015C203.688 116.118 203.469 116.222 203.244 116.328C201.391 117.256 200.324 117.893 199.513 119.824C199.689 119.771 199.865 119.718 200.047 119.663C210.31 116.579 210.31 116.579 215.095 116.51C215.339 116.505 215.583 116.499 215.834 116.494C217.701 116.496 219.658 116.705 221.15 117.925C223.375 120.187 223.322 123.177 223.438 126.151C223.556 129.111 223.789 131.717 225.587 134.179C226.35 134.914 226.35 134.914 227.052 135.351C226.788 134.668 226.527 133.999 226.177 133.354C225.166 131.397 225.145 129.657 225.19 127.486C225.192 127.131 225.195 126.776 225.197 126.41C225.205 125.283 225.222 124.156 225.239 123.028C225.252 121.9 225.262 120.771 225.272 119.643C225.278 118.943 225.286 118.243 225.297 117.543C225.322 115.568 225.322 115.568 225.151 113.603C224.981 112.35 224.954 111.136 224.952 109.874C224.951 109.631 224.95 109.388 224.949 109.137C224.947 108.625 224.947 108.114 224.947 107.602C224.946 106.828 224.941 106.053 224.935 105.279C224.921 101.193 225.046 97.0581 228.007 93.8985C229.868 92.2846 231.841 92.1202 234.24 92.1853C235.63 92.3217 236.885 92.6608 238.185 93.1638C236.968 91.6378 235.828 90.2409 233.79 89.9412C229.762 89.6189 226.821 91.7459 224.221 94.5852ZM112.66 90.8226C108.73 90.8275 104.801 90.8382 100.871 90.8592C99.0316 90.8689 97.1924 90.8761 95.3531 90.8773C93.5893 90.8785 91.8257 90.8868 90.062 90.9001C89.4033 90.9039 88.7445 90.9052 88.0857 90.9039C87.1725 90.9025 86.2597 90.9101 85.3465 90.9198C85.0824 90.9173 84.8182 90.9148 84.5461 90.9122C82.1667 90.9547 80.3231 91.8091 78.4995 93.3206C78.2695 93.5649 78.0395 93.8093 77.8026 94.061C77.5673 94.3061 77.332 94.5512 77.0896 94.8037C76.5525 95.4098 76.0591 96.0222 75.587 96.6794C75.6837 96.8728 75.7804 97.0662 75.88 97.2654C76.1672 97.1238 76.1672 97.1238 76.4602 96.9793C77.5701 96.6031 78.6217 96.5938 79.7801 96.5696C81.9618 96.4841 83.8823 96.1472 85.9928 95.5739C86.2051 95.5162 86.4174 95.4585 86.6362 95.3991C87.0757 95.278 87.5144 95.1541 87.9523 95.0272C92.8112 93.6383 97.586 93.541 102.595 93.5484C104.333 93.5482 106.071 93.5299 107.809 93.5149C108.454 93.5095 109.099 93.5048 109.744 93.5002C113.323 93.472 116.893 93.3456 120.466 93.1455C120.835 93.1251 120.835 93.1251 121.212 93.1042C122.508 93.0316 123.803 92.9541 125.099 92.8708C125.099 93.0642 125.099 93.2576 125.099 93.4568C124.846 93.574 124.846 93.574 124.588 93.6937C123.904 94.0546 123.33 94.467 122.718 94.9399C121.487 95.8898 120.919 96.1236 119.346 96.0729C115.982 95.8584 115.982 95.8584 112.821 96.7012C111.983 97.517 111.589 98.4883 111.329 99.6091C111.329 99.8992 111.329 100.189 111.329 100.488C114.843 100.993 118.331 101.229 121.876 101.367C121.932 101.192 121.989 101.017 122.046 100.837C123.733 95.6697 126.899 93.5752 131.544 91.113C131.544 91.0163 131.544 90.9197 131.544 90.8201C126.693 90.7985 121.842 90.8022 116.991 90.8145C115.547 90.8181 114.104 90.8208 112.66 90.8226ZM133.009 92.8708C133.979 93.1943 134.717 93.2089 135.739 93.2203C136.313 93.2274 136.313 93.2274 136.898 93.2346C137.316 93.2379 137.734 93.241 138.152 93.2439C138.468 93.2463 138.468 93.2463 138.79 93.2486C139.905 93.2565 141.02 93.2621 142.135 93.2664C143.057 93.2703 143.978 93.2785 144.9 93.2904C146.014 93.3049 147.129 93.3121 148.243 93.3142C148.667 93.3162 149.091 93.3206 149.515 93.3276C150.109 93.3369 150.703 93.336 151.296 93.3348C151.634 93.3371 151.972 93.3395 152.319 93.3419C153.489 93.1116 153.931 92.5924 154.689 91.699C152.516 91.684 150.343 91.6738 148.171 91.6668C147.434 91.6639 146.696 91.6599 145.959 91.6548C139.356 91.3824 139.356 91.3824 133.009 92.8708ZM128.321 95.2146C128.123 95.9524 127.928 96.6909 127.735 97.4302C127.68 97.6366 127.624 97.8429 127.566 98.0556C127.125 99.7658 126.871 101.468 127.461 103.18C127.519 103.365 127.576 103.551 127.636 103.742C128.252 104.613 129.117 105.056 130.079 105.468C131.173 105.629 131.173 105.629 132.333 105.584C132.548 105.582 132.763 105.58 132.985 105.579C133.689 105.571 134.394 105.556 135.099 105.539C135.591 105.532 136.084 105.525 136.577 105.519C137.607 105.504 138.637 105.486 139.666 105.464C140.985 105.436 142.303 105.416 143.622 105.399C144.638 105.385 145.654 105.368 146.671 105.351C147.157 105.342 147.643 105.335 148.129 105.328C148.809 105.317 149.488 105.303 150.167 105.288C150.553 105.28 150.939 105.273 151.337 105.265C152.294 105.18 152.962 105.033 153.81 104.59C154.205 103.734 154.092 103.067 153.885 102.168C153.833 101.931 153.78 101.694 153.726 101.45C153.669 101.205 153.612 100.96 153.553 100.708C153.443 100.224 153.334 99.7406 153.226 99.2566C153.177 99.0432 153.127 98.8297 153.076 98.6098C152.879 97.5803 152.761 96.5485 152.638 95.5076C144.531 95.3196 136.43 95.1597 128.321 95.2146ZM229.552 98.6719C227.44 101.825 227.235 106 227.858 109.662C228.293 111.559 229.223 112.913 230.844 113.989C232.401 114.684 233.907 114.432 235.456 113.855C237.508 112.473 238.691 110.144 239.231 107.791C239.728 104.404 239.535 101.218 237.488 98.4041C236.605 97.3762 235.835 97.0409 234.5 96.8831C232.435 96.7872 230.896 97.0196 229.552 98.6719ZM75.294 97.2654C75.587 97.8513 75.587 97.8513 75.587 97.8513L75.294 97.2654ZM75.0011 97.8513C74.3402 102.275 73.8117 106.593 73.756 111.072C73.7497 111.374 73.7434 111.677 73.7369 111.989C73.7356 112.273 73.7344 112.557 73.7331 112.85C73.7303 113.107 73.7276 113.364 73.7248 113.628C73.7592 113.836 73.7937 114.044 73.8292 114.258C74.9391 114.997 75.8171 114.918 77.1011 114.901C77.3339 114.9 77.5668 114.899 77.8067 114.898C78.55 114.895 79.2932 114.888 80.0365 114.88C80.5406 114.877 81.0447 114.875 81.5488 114.872C82.7842 114.866 84.0196 114.856 85.255 114.843C85.255 114.263 85.255 113.683 85.255 113.086C85.0558 113.087 84.8566 113.089 84.6514 113.09C83.7356 113.096 82.8199 113.1 81.9041 113.104C81.5909 113.106 81.2776 113.109 80.9549 113.111C79.1402 113.117 77.3836 113.058 75.587 112.793C74.7046 111.91 74.9736 109.71 74.9645 108.563C74.9755 106.834 75.0674 105.12 75.1891 103.397C75.3148 101.547 75.3226 99.7046 75.294 97.8513C75.1974 97.8513 75.1007 97.8513 75.0011 97.8513ZM86.7198 98.7302C86.7003 101.971 86.7495 105.207 86.8289 108.447C86.8483 109.254 86.8656 110.06 86.8829 110.867C86.8952 111.38 86.9076 111.893 86.9201 112.406C86.9274 112.767 86.9274 112.767 86.9349 113.136C86.8621 114.226 86.8621 114.226 87.3058 115.136C87.8858 115.136 88.4659 115.136 89.0636 115.136C89.0636 109.819 89.0636 104.502 89.0636 99.0232C88.27 98.6264 87.596 98.7112 86.7198 98.7302ZM100.196 98.7302C100.1 98.8269 100.003 98.9236 99.9034 99.0232C99.9159 99.9065 99.9474 100.782 99.9927 101.663C100.005 101.933 100.018 102.202 100.031 102.48C100.059 103.054 100.087 103.628 100.116 104.202C100.159 105.067 100.2 105.932 100.241 106.797C100.384 109.775 100.548 112.749 100.782 115.722C101.072 115.722 101.362 115.722 101.661 115.722C101.661 110.115 101.661 104.508 101.661 98.7302C101.178 98.7302 100.694 98.7302 100.196 98.7302ZM103.712 98.7302C103.628 104.338 103.835 109.841 104.298 115.429C104.588 115.429 104.878 115.429 105.177 115.429C105.222 113.295 105.265 111.161 105.307 109.027C105.326 108.036 105.346 107.046 105.367 106.055C105.391 104.917 105.413 103.779 105.434 102.641C105.446 102.105 105.446 102.105 105.458 101.558C105.464 101.229 105.47 100.901 105.476 100.562C105.485 100.126 105.485 100.126 105.494 99.6813C105.545 99.0318 105.545 99.0318 105.177 98.7302C104.689 98.7183 104.2 98.7177 103.712 98.7302ZM106.642 99.0232C106.805 104.505 107.11 109.961 107.521 115.429C108.101 115.429 108.681 115.429 109.278 115.429C109.314 109.951 109.264 104.496 108.985 99.0232C108.022 98.7889 107.605 98.7019 106.642 99.0232ZM90.8214 99.0232C90.8214 104.341 90.8214 109.658 90.8214 115.136C91.2081 115.136 91.5948 115.136 91.9933 115.136C92.0006 113.407 92.0058 111.677 92.0094 109.947C92.0108 109.36 92.0128 108.773 92.0154 108.186C92.0436 103.597 92.0436 103.597 91.7003 99.0232C91.4103 99.0232 91.1202 99.0232 90.8214 99.0232ZM93.7511 99.0232C93.5261 104.497 93.415 109.951 93.4581 115.429C94.1349 115.429 94.8116 115.429 95.5089 115.429C95.5089 110.015 95.5089 104.601 95.5089 99.0232C94.9288 99.0232 94.3487 99.0232 93.7511 99.0232ZM97.5597 99.0232C97.5597 104.534 97.5597 110.045 97.5597 115.722C97.6563 115.722 97.753 115.722 97.8526 115.722C98.0844 113.554 98.1861 111.417 98.1742 109.237C98.1738 108.942 98.1734 108.648 98.173 108.344C98.1713 107.416 98.1677 106.488 98.1639 105.56C98.1624 104.925 98.1611 104.291 98.1599 103.656C98.1567 102.112 98.1518 100.568 98.1456 99.0232C97.9522 99.0232 97.7589 99.0232 97.5597 99.0232ZM72.5028 117.606C72.1257 118.087 72.1257 118.087 71.7967 118.615C71.6022 118.878 71.6022 118.878 71.4037 119.145C71.0267 119.656 70.6688 120.176 70.3136 120.703C68.493 123.275 66.7299 124.905 63.5387 125.5C63.0634 125.567 62.5875 125.631 62.1104 125.683C62.2583 126.777 62.4197 127.328 63.2823 128.027C63.9079 128.26 63.9079 128.26 64.611 128.392C64.8725 128.45 65.134 128.508 65.4035 128.568C65.6763 128.625 65.9492 128.682 66.2303 128.741C70.3323 129.61 74.2684 131.019 76.9546 134.448C79.8071 138.907 81.2228 144.692 80.236 149.913C79.7109 151.906 78.7903 153.754 77.9308 155.621C77.7216 156.083 77.5128 156.545 77.3044 157.007C76.8641 157.981 76.4218 158.955 75.9777 159.927C71.7956 169.087 67.6581 178.243 64.1429 187.683C64.0631 187.897 63.9833 188.111 63.9011 188.331C61.693 194.27 60.2039 199.356 61.8175 205.664C62.105 205.738 62.3926 205.813 62.6888 205.889C65.4166 206.596 68.1443 207.303 70.872 208.01C72.2739 208.373 73.6758 208.736 75.0777 209.099C76.434 209.45 77.7903 209.802 79.1466 210.153C79.6606 210.287 80.1745 210.42 80.6885 210.553C81.4159 210.741 82.1433 210.93 82.8707 211.118C83.0998 211.178 83.3289 211.237 83.565 211.298C84.6438 211.578 85.7212 211.862 86.796 212.157C86.9927 212.21 87.1894 212.264 87.392 212.319C87.9155 212.463 88.4386 212.608 88.9616 212.753C90.7264 213.176 92.513 213.337 94.3187 213.501C94.6901 213.537 95.0615 213.574 95.4442 213.612C96.3444 213.7 97.2448 213.785 98.1456 213.867C98.4316 212.196 98.4828 210.579 98.4752 208.886C98.4763 208.633 98.4775 208.38 98.4786 208.12C98.4782 207.871 98.4779 207.623 98.4775 207.367C98.477 207.034 98.477 207.034 98.4765 206.695C98.4541 205.91 98.4541 205.91 98.2419 204.971C98.1265 203.694 98.391 203.033 98.9101 201.869C99.0769 201.48 99.2426 201.09 99.4073 200.7C99.5334 200.403 99.5334 200.403 99.662 200.101C100.357 198.405 100.883 196.642 101.442 194.897C101.512 194.679 101.582 194.461 101.655 194.236C103.242 189.316 104.749 184.37 106.257 179.425C106.347 179.132 106.347 179.132 106.438 178.833C106.837 177.522 107.236 176.212 107.634 174.901C107.737 174.563 107.839 174.226 107.945 173.878C108.039 173.566 108.134 173.255 108.231 172.934C108.313 172.662 108.396 172.391 108.481 172.111C108.665 171.481 108.832 170.852 108.985 170.215C109.4 170.341 109.4 170.341 109.823 170.471C113.376 171.517 116.402 171.988 119.825 170.215C120.315 169.923 120.803 169.63 121.29 169.336C121.139 169.777 121.139 169.777 120.985 170.227C119.653 174.149 118.455 178.108 117.28 182.08C117.179 182.422 117.078 182.764 116.973 183.117C115.643 187.618 114.342 192.127 113.135 196.663C112.994 197.191 112.852 197.719 112.71 198.246C112.514 198.972 112.323 199.699 112.134 200.427C112.077 200.637 112.019 200.847 111.961 201.063C111.647 202.302 111.582 203.254 111.915 204.492C112.336 205.036 112.336 205.036 112.794 205.371C113.4 204.024 113.867 202.73 114.235 201.294C114.341 200.888 114.447 200.481 114.554 200.074C114.61 199.859 114.666 199.643 114.723 199.42C116.023 194.43 117.47 189.487 118.965 184.552C119.066 184.218 119.167 183.883 119.271 183.539C120.55 179.323 121.848 175.113 123.228 170.928C123.322 170.64 123.417 170.352 123.515 170.056C123.595 169.814 123.676 169.572 123.759 169.323C123.954 168.756 123.954 168.756 123.927 168.164C123.546 168.188 123.166 168.212 122.773 168.237C122.559 168.251 122.345 168.264 122.124 168.278C121.32 168.45 120.79 168.704 120.064 169.077C118.513 169.792 117.326 169.623 115.687 169.299C115.437 169.257 115.186 169.214 114.928 169.171C113.503 168.921 112.127 168.587 110.743 168.164C112.04 166.504 113.521 164.714 115.622 164.145C116.911 164.036 118.123 164.166 119.404 164.319C119.772 164.359 119.772 164.359 120.147 164.4C121.322 164.532 122.479 164.681 123.634 164.941C123.552 164.736 123.469 164.53 123.384 164.319C123.273 164.041 123.162 163.763 123.048 163.476C122.937 163.204 122.826 162.932 122.711 162.652C121.972 160.731 121.507 158.997 121.227 156.962C120.962 154.552 120.962 154.552 119.755 152.555C118.903 152.169 118.102 151.959 117.189 151.758C116.526 151.51 115.867 151.253 115.211 150.989C114.894 150.869 114.577 150.749 114.251 150.626C113.264 150.248 112.296 149.841 111.329 149.414C110.488 151.442 109.756 153.487 109.085 155.578C108.877 156.217 108.67 156.857 108.462 157.497C108.354 157.832 108.245 158.167 108.134 158.513C107.549 160.32 106.96 162.125 106.37 163.931C106.31 164.117 106.249 164.303 106.186 164.496C104.831 168.64 103.434 172.77 102.027 176.898C101.794 177.585 101.56 178.272 101.326 178.958C100.984 179.965 100.641 180.971 100.299 181.978C99.289 184.944 98.2834 187.912 97.2878 190.884C97.1199 191.384 96.9515 191.885 96.7826 192.385C95.0974 197.376 93.4329 202.363 92.7623 207.605C92.7143 207.947 92.6664 208.289 92.617 208.642C92.3715 210.369 92.3715 210.369 92.2862 212.109C91.2677 211.322 91.1161 210.397 90.8214 209.179C90.5408 206.574 90.8145 204.154 91.4359 201.623C91.5007 201.356 91.5655 201.089 91.6322 200.814C92.3487 197.956 93.3042 195.196 94.3004 192.425C94.4955 191.875 94.6904 191.324 94.885 190.773C95.4793 189.095 96.0794 187.418 96.6808 185.742C96.8587 185.246 97.0367 184.749 97.2146 184.253C97.3861 183.774 97.5576 183.296 97.729 182.818C97.9881 182.095 98.2472 181.373 98.5061 180.65C98.6815 180.161 98.857 179.672 99.0325 179.182C103.014 168.077 106.861 156.912 110.522 145.697C110.767 144.947 111.014 144.197 111.261 143.448C111.719 142.059 112.171 140.67 112.621 139.279C112.796 138.742 112.971 138.205 113.148 137.668C113.393 136.925 113.632 136.181 113.871 135.436C113.945 135.216 114.018 134.996 114.094 134.769C114.599 133.164 114.611 132.044 113.93 130.509C113.803 130.276 113.676 130.043 113.545 129.803C112.633 128.045 112.11 126.515 112.208 124.511C113.173 125.777 114.103 127.055 114.991 128.375C116.452 130.455 117.879 131.542 120.411 132.129C122.04 132.328 123.672 132.421 125.31 132.514C125.788 132.544 126.266 132.574 126.743 132.605C127.997 132.684 129.251 132.76 130.505 132.834C132.504 132.953 134.502 133.077 136.501 133.203C137.191 133.245 137.88 133.286 138.57 133.326C151.031 134.077 151.031 134.077 155.238 138.501C157.919 141.807 158.213 145.623 157.911 149.707C157.277 154.49 155.731 160.212 151.83 163.34C147.47 166.189 140.648 166.077 135.664 165.179C131.288 164.168 127.488 162.184 124.806 158.496C123.843 156.84 123.385 155.096 123.048 153.222C122.758 153.367 122.758 153.367 122.462 153.515C122.231 156.837 122.966 159.431 125.127 161.994C128.419 165.556 132.785 167.417 137.621 167.625C138.017 167.631 138.414 167.635 138.81 167.637C139.027 167.639 139.245 167.641 139.469 167.643C140.178 167.648 140.887 167.65 141.597 167.651C141.839 167.652 142.081 167.652 142.331 167.653C147.46 167.659 152.523 167.256 157.618 166.699C157.76 166.297 157.9 165.894 158.039 165.49C158.157 165.154 158.157 165.154 158.276 164.811C158.743 163.229 158.835 161.682 158.852 160.042C158.859 159.598 158.867 159.155 158.875 158.711C158.879 158.482 158.883 158.252 158.887 158.015C159.142 144.134 159.142 144.134 162.582 140.524C164.084 139.315 165.974 138.774 167.872 138.574C167.872 138.477 167.872 138.381 167.872 138.281C167.598 138.301 167.598 138.301 167.318 138.322C166.477 138.381 165.637 138.432 164.796 138.482C164.508 138.504 164.22 138.525 163.924 138.547C161.689 138.674 160.268 138.314 158.277 137.274C157.208 136.056 156.88 134.547 156.446 133.008C156.64 133.008 156.833 133.008 157.032 133.008C157.129 133.298 157.226 133.588 157.325 133.886C157.7 133.885 158.075 133.884 158.461 133.883C162.127 133.874 165.79 133.914 169.456 133.994C169.724 134 169.991 134.006 170.267 134.011C171.677 134.042 173.087 134.073 174.497 134.105C175.939 134.137 177.382 134.166 178.824 134.195C179.948 134.218 181.073 134.243 182.197 134.269C182.729 134.281 183.261 134.292 183.792 134.302C192.572 134.471 192.572 134.471 194.825 136.23C195.328 136.805 195.806 137.398 196.29 137.988C196.008 137.979 195.726 137.97 195.436 137.961C186.348 137.68 177.247 137.428 168.165 137.988C168.165 138.085 168.165 138.181 168.165 138.281C172.013 138.512 175.862 138.741 179.71 138.969C181.498 139.074 183.285 139.18 185.073 139.288C186.801 139.392 188.53 139.494 190.259 139.596C190.914 139.634 191.57 139.673 192.226 139.713C195.223 139.895 198.216 140.072 201.219 140.081C201.422 140.082 201.625 140.083 201.834 140.084C202.706 140.079 203.366 140.024 204.2 139.746C204.2 139.552 204.2 139.359 204.2 139.16C204.016 139.113 203.832 139.067 203.642 139.019C200.907 138.274 199.115 137.356 197.551 134.945C197.169 134.179 197.169 134.179 196.952 133.258C196.672 132.158 196.461 131.521 195.704 130.664C194.028 130.018 192.18 129.941 190.402 129.839C189.611 129.789 188.825 129.719 188.036 129.641C186.423 129.492 184.813 129.41 183.194 129.351C182.899 129.34 182.605 129.328 182.301 129.316C181.338 129.279 180.374 129.243 179.411 129.207C178.737 129.181 178.063 129.155 177.388 129.129C175.981 129.075 174.573 129.022 173.165 128.969C171.362 128.901 169.559 128.832 167.756 128.763C166.366 128.71 164.976 128.657 163.585 128.604C162.92 128.579 162.255 128.554 161.59 128.528C160.662 128.493 159.734 128.458 158.806 128.423C158.532 128.412 158.259 128.402 157.977 128.391C155.339 128.125 155.339 128.125 153.004 129.052C151.619 129.886 150.386 129.921 148.811 129.913C148.589 129.912 148.368 129.912 148.14 129.911C146.318 129.863 144.648 129.655 143.038 128.737C142.129 127.751 141.74 126.712 141.285 125.464C141.197 125.237 141.108 125.01 141.016 124.777C140.464 123.313 140.175 121.968 140.04 120.41C141.565 120.591 142.918 120.925 144.018 122.058C144.577 122.992 144.722 123.947 144.892 125.006C145.011 125.73 145.149 126.432 145.314 127.148C145.507 127.245 145.7 127.342 145.9 127.441C147.295 126.848 148.555 126.022 149.836 125.215C151.296 124.416 152.591 124.144 154.248 124.143C154.622 124.142 154.996 124.141 155.381 124.14C155.79 124.143 156.198 124.145 156.607 124.149C156.923 124.15 156.923 124.15 157.245 124.151C162.248 124.173 167.237 124.426 172.23 124.711C173.154 124.762 174.078 124.811 175.003 124.86C180.513 125.152 186.011 125.526 191.508 126.015C191.729 126.034 191.95 126.053 192.178 126.073C192.776 126.125 193.374 126.178 193.972 126.232C194.254 126.244 194.535 126.257 194.825 126.269C195.289 125.805 195.183 125.309 195.211 124.666C195.223 124.403 195.236 124.139 195.248 123.868C195.265 123.452 195.265 123.452 195.283 123.028C195.296 122.75 195.308 122.472 195.321 122.185C195.353 121.496 195.382 120.807 195.411 120.117C193.459 119.774 191.512 119.74 189.534 119.688C189.151 119.677 188.768 119.666 188.374 119.654C187.325 119.624 186.277 119.596 185.229 119.567C184.12 119.537 183.011 119.505 181.902 119.474C180.034 119.421 178.165 119.369 176.297 119.317C173.722 119.246 171.146 119.173 168.571 119.1C165.715 119.018 162.859 118.937 160.003 118.856C159.802 118.851 159.601 118.845 159.394 118.839C158.379 118.811 157.363 118.782 156.347 118.755C155.936 118.744 155.525 118.733 155.113 118.721C154.807 118.713 154.807 118.713 154.494 118.704C153.267 118.671 152.04 118.633 150.814 118.594C144.824 118.4 138.837 118.327 132.844 118.297C132.65 118.296 132.456 118.295 132.256 118.294C130.65 118.286 129.043 118.279 127.436 118.271C114.311 118.209 101.193 118.118 88.0748 117.627C87.8142 117.617 87.5537 117.607 87.2852 117.597C85.5867 117.534 83.8884 117.468 82.1903 117.398C81.9825 117.389 81.7747 117.381 81.5606 117.372C79.1562 117.272 76.7687 117.127 74.3743 116.881C73.4689 116.895 73.1583 117.002 72.5028 117.606ZM229.048 121.513C227.732 123.97 227.053 126.927 227.86 129.657C228.36 130.855 228.88 131.98 229.982 132.715C231.331 133.068 232.178 133.191 233.424 132.531C235.073 131.431 235.674 130.226 236.134 128.32C236.344 125.775 236.505 122.936 234.888 120.805C234.113 120.042 233.385 119.724 232.325 119.659C230.895 119.766 229.866 120.297 229.048 121.513ZM199.678 124.273C198.374 126.025 198.122 127.952 198.341 130.078C198.714 132.095 199.455 133.926 200.978 135.351C201.593 135.571 201.593 135.571 202.15 135.644C201.968 135.421 201.787 135.197 201.6 134.967C200.995 134.077 200.82 133.264 200.646 132.208C200.573 131.774 200.573 131.774 200.498 131.331C200.463 131.111 200.428 130.891 200.392 130.664C200.589 130.665 200.786 130.666 200.989 130.668C203.057 130.681 205.124 130.69 207.192 130.696C207.962 130.699 208.731 130.703 209.501 130.708C210.613 130.715 211.725 130.718 212.837 130.721C213.176 130.724 213.516 130.727 213.865 130.73C216.162 130.731 218.348 130.489 220.607 130.078C220.031 127.959 219.314 126.307 217.448 125.034C213.509 122.895 203.092 120.621 199.678 124.273ZM119.239 137.109C117.92 138.965 117.255 141.185 116.639 143.353C116.576 143.573 116.513 143.794 116.448 144.021C116.093 145.351 115.887 146.561 116.017 147.949C117.839 149.634 120.094 149.791 122.462 149.707C122.908 148.442 123.221 147.189 123.506 145.88C124.173 143.011 125.385 140.372 126.6 137.699C126.884 137.069 126.884 137.069 127.15 136.23C126.106 136.205 125.062 136.189 124.018 136.175C123.723 136.168 123.428 136.161 123.124 136.153C121.016 136.091 121.016 136.091 119.239 137.109ZM135.517 137.237C133.695 137.765 131.972 138.116 130.079 138.281C130.124 138.991 130.124 138.991 130.372 139.746C130.949 140.2 130.949 140.2 131.691 140.497C131.953 140.618 132.215 140.74 132.486 140.865C133.01 141.087 133.539 141.3 134.072 141.501C134.733 141.758 135.338 142.004 135.939 142.383C136.385 143.498 136.212 144.375 136.016 145.537C135.571 149.287 135.847 153.241 137.989 156.445C138.985 157.525 140.182 158.439 141.505 159.082C141.698 158.985 141.892 158.888 142.091 158.789C141.999 158.611 141.907 158.432 141.812 158.249C138.431 151.325 138.508 143.788 140.626 136.523C138.784 136.441 137.28 136.721 135.517 137.237ZM147.657 137.402C147.374 138.219 147.094 139.037 146.815 139.856C146.736 140.083 146.657 140.31 146.576 140.543C145.569 143.515 145.213 146.258 145.222 149.395C145.217 149.719 145.213 150.042 145.208 150.375C145.206 152.858 145.531 155.122 146.65 157.361C146.843 158.63 146.188 159.294 145.454 160.296C144.794 161.124 144.794 161.124 143.904 161.242C141.432 161.197 139.033 159.822 137.29 158.148C134.763 155.309 134.657 152.068 134.767 148.443C134.79 147.657 134.808 146.871 134.822 146.085C134.832 145.739 134.842 145.394 134.853 145.038C134.759 144.059 134.552 143.676 133.888 142.968C133.598 143.065 133.308 143.162 133.009 143.261C131.226 147.805 131.146 152.24 133.094 156.73C134.529 159.58 136.459 162.138 139.541 163.249C142.952 163.964 147.177 164.023 150.294 162.304C151.74 161.271 152.488 160.292 153.242 158.697C153.341 158.495 153.439 158.292 153.541 158.083C155.602 153.709 157.307 148.276 155.641 143.518C154.297 140.408 152.293 139.107 149.364 137.597C148.74 137.335 148.74 137.335 147.657 137.402ZM163.983 142.684C162.992 143.816 162.013 144.939 162.013 146.484C163.115 146.363 164.211 146.216 165.309 146.063C165.776 146.012 165.776 146.012 166.253 145.961C167.945 145.753 167.945 145.753 169.21 144.724C169.513 144.046 169.728 143.392 169.923 142.676C170.09 142.229 170.261 141.783 170.436 141.339C170.556 141.007 170.677 140.674 170.802 140.332C168.205 140.121 165.848 140.877 163.983 142.684ZM166.993 154.687C166.945 155.176 166.945 155.176 166.896 155.674C166.204 162.317 166.204 162.317 164.357 164.062C163.259 164.808 162.087 165.367 160.841 165.82C162.243 166.287 163.538 165.9 164.942 165.527C165.948 165.015 166.519 164.709 167.034 163.704C167.33 162.748 167.353 161.953 167.343 160.953C167.342 160.588 167.34 160.222 167.338 159.846C167.333 159.467 167.328 159.088 167.323 158.697C167.32 158.313 167.318 157.928 167.315 157.532C167.308 156.583 167.298 155.635 167.286 154.687C167.19 154.687 167.093 154.687 166.993 154.687ZM70.0206 210.351C70.0206 211.125 70.0206 211.898 70.0206 212.695C74.9965 213.825 79.9852 214.899 84.9911 215.888C85.5129 215.992 86.0344 216.097 86.5554 216.205C91.4415 217.21 96.0827 217.446 101.02 216.595C101.497 216.517 101.497 216.517 101.984 216.438C106.039 215.755 110.082 214.943 113.966 213.574C113.386 212.704 113.386 212.704 112.794 211.816C112.601 212.01 112.407 212.203 112.208 212.402C111.499 212.611 111.499 212.611 110.606 212.803C110.114 212.91 110.114 212.91 109.611 213.019C109.26 213.094 108.908 213.168 108.546 213.244C107.823 213.4 107.1 213.556 106.377 213.711C106.022 213.787 105.667 213.863 105.302 213.941C104.433 214.13 103.568 214.329 102.704 214.535C102.355 214.617 102.355 214.617 102 214.701C101.585 214.8 101.17 214.901 100.756 215.004C97.7823 215.698 94.8301 215.239 91.8468 214.801C91.6414 214.771 91.436 214.742 91.2243 214.711C84.7995 213.77 78.4745 212.246 72.1507 210.792C71.4425 210.635 70.7324 210.491 70.0206 210.351Z" fill="black"/>
<path d="M86.1522 124.791C86.3566 124.797 86.5611 124.802 86.7718 124.808C87.4496 124.828 88.1272 124.853 88.8049 124.878C89.2812 124.894 89.7575 124.909 90.2338 124.924C91.5219 124.967 92.8097 125.016 94.0974 125.066C94.9419 125.099 95.7864 125.13 96.6309 125.162C98.0647 125.217 99.4984 125.275 100.932 125.337C101.487 125.36 102.042 125.383 102.597 125.406C103.38 125.437 104.161 125.472 104.943 125.509C105.289 125.522 105.289 125.522 105.642 125.535C108.984 125.701 108.984 125.701 110.228 126.91C111.573 129.072 112.224 131.253 111.77 133.814C111.211 135.989 110.512 138.081 109.734 140.186C109.468 140.919 109.202 141.652 108.938 142.386C108.87 142.577 108.801 142.768 108.73 142.965C107.461 146.509 106.296 150.091 105.118 153.667C104.741 154.812 104.363 155.957 103.983 157.101C101.634 164.198 99.306 171.3 97.1362 178.455C97.0528 178.73 96.9694 179.005 96.8835 179.288C96.0177 182.148 95.1676 185.012 94.337 187.882C94.0621 188.829 93.7865 189.776 93.5107 190.723C93.4455 190.948 93.3804 191.172 93.3132 191.404C92.4515 194.364 91.432 197.169 90.1725 199.987C89.2203 202.221 88.9944 204.373 88.8896 206.781C88.8236 207.937 88.4894 208.765 87.8894 209.766C85.7344 209.84 83.8002 209.674 81.705 209.176C81.4348 209.115 81.1647 209.054 80.8864 208.991C80.0217 208.795 79.1582 208.594 78.2946 208.392C77.7 208.256 77.1052 208.12 76.5104 207.985C75.6323 207.785 74.7543 207.584 73.8766 207.383C71.4748 206.83 69.0676 206.308 66.6517 205.821C65.2385 205.524 63.9851 205.149 62.6941 204.492C61.4351 202.562 61.2608 200.295 61.5222 198.047C61.9657 196.436 62.5605 194.895 63.1701 193.341C63.3432 192.889 63.516 192.437 63.6885 191.985C64.2262 190.584 64.7764 189.188 65.3308 187.793C65.4177 187.574 65.5046 187.355 65.5941 187.13C68.9587 178.674 72.6992 170.401 76.627 162.193C80.5193 154.524 80.5193 154.524 81.8652 146.155C81.8643 145.828 81.8633 145.501 81.8623 145.164C81.8188 142.493 81.4858 139.914 80.9822 137.292C80.2031 133.176 80.3257 129.028 82.6159 125.391C83.7999 124.738 84.8191 124.749 86.1522 124.791ZM93.3642 130.499C92.734 131.456 92.6849 132.132 92.7371 133.262C92.8364 133.968 92.8364 133.968 93.5107 134.656C94.297 135.115 94.297 135.115 95.1037 135.059C95.9861 134.687 96.257 134.459 96.6784 133.594C96.8813 132.389 96.8772 131.544 96.184 130.518C95.1025 129.816 94.4573 129.82 93.3642 130.499Z" fill="black"/>
<path d="M161.17 101.038C161.435 101.038 161.701 101.039 161.974 101.039C163.805 101.05 165.635 101.089 167.465 101.141C167.693 101.147 167.921 101.153 168.156 101.16C168.391 101.166 168.626 101.173 168.868 101.18C169.36 101.193 169.852 101.207 170.343 101.221C170.59 101.228 170.837 101.234 171.092 101.241C178.318 101.438 185.546 101.392 192.774 101.367C192.774 105.718 192.774 110.068 192.774 114.551C189.476 114.88 189.476 114.88 188.303 114.886C188.034 114.888 187.766 114.89 187.489 114.892C187.063 114.892 187.063 114.892 186.628 114.893C186.321 114.894 186.013 114.895 185.695 114.896C184.674 114.899 183.652 114.899 182.63 114.899C182.085 114.899 182.085 114.899 181.53 114.899C177.505 114.899 173.485 114.867 169.462 114.712C168.963 114.693 168.963 114.693 168.454 114.673C167.762 114.646 167.069 114.619 166.377 114.592C165.848 114.572 165.848 114.572 165.308 114.551C164.952 114.537 164.595 114.523 164.228 114.509C158.01 114.277 151.795 114.23 145.573 114.229C145.37 114.229 145.168 114.229 144.959 114.229C140.614 114.229 136.268 114.237 131.922 114.25C130.348 114.255 128.774 114.259 127.2 114.262C126.106 114.266 125.012 114.271 123.917 114.276C114.199 114.311 114.199 114.311 112.793 113.379C112.615 112.73 112.615 112.73 112.574 111.932C112.558 111.644 112.542 111.355 112.526 111.058C112.517 110.76 112.509 110.463 112.5 110.156C112.492 109.877 112.484 109.597 112.475 109.309C112.453 107.704 112.58 106.18 112.793 104.59C114.05 104.521 115.307 104.48 116.565 104.443C117.094 104.414 117.094 104.414 117.634 104.384C120.019 104.332 121.273 104.71 123.018 106.36C126.339 109.457 132.128 109.112 136.339 109.067C137.197 109.058 138.055 109.055 138.913 109.053C141.54 109.042 144.164 108.993 146.788 108.857C146.999 108.847 147.21 108.836 147.427 108.826C150.811 108.627 153.995 107.569 156.446 105.176C157.03 104.215 157.332 103.39 157.618 102.301C157.714 101.993 157.811 101.685 157.911 101.367C159.01 101.001 160.025 101.031 161.17 101.038Z" fill="black"/>
<path d="M84.3432 118.562C84.8094 118.598 85.275 118.641 85.7398 118.692C85.9932 118.713 86.2466 118.733 86.5077 118.755C87.323 118.824 88.1368 118.902 88.9511 118.982C90.0044 119.078 91.0581 119.169 92.1119 119.259C92.5223 119.295 92.5223 119.295 92.941 119.331C100.236 119.946 107.595 119.952 114.912 120.136C125.048 120.391 125.048 120.391 128.878 120.558C129.127 120.569 129.377 120.579 129.633 120.59C134.028 120.799 134.028 120.799 135.643 121.875C136.069 122.93 135.996 124.086 136.009 125.208C136.02 125.773 136.02 125.773 136.032 126.35C135.911 127.728 135.505 128.7 134.581 129.731C132.433 130.805 129.656 130.357 127.33 130.208C126.728 130.17 126.126 130.141 125.523 130.111C122.049 129.913 119.278 129.208 116.893 126.563C116.466 125.952 116.083 125.34 115.723 124.688C115.452 124.168 115.452 124.168 114.842 123.926C111.683 123.558 108.473 123.542 105.297 123.448C104.403 123.422 103.509 123.395 102.614 123.367C100.076 123.288 97.5372 123.212 94.9984 123.136C93.4379 123.089 91.8774 123.041 90.317 122.992C89.7243 122.974 89.1316 122.956 88.5389 122.939C87.7138 122.915 86.8887 122.89 86.0636 122.864C85.8195 122.857 85.5753 122.85 85.3238 122.843C84.2816 122.809 83.327 122.739 82.3226 122.461C82.2501 122.655 82.1776 122.848 82.1029 123.047C81.8184 123.73 81.5137 124.333 81.1599 124.978C80.4897 126.312 80.2515 127.602 80.0521 129.071C79.9972 129.428 79.9972 129.428 79.9411 129.792C79.7385 131.171 79.6485 132.493 79.6859 133.887C79.4926 133.887 79.2992 133.887 79.1 133.887C78.7726 133.434 78.4644 132.968 78.1661 132.496C76.7379 130.422 75.4043 129.892 73.0575 129.218C71.2599 128.692 70.3508 128.242 69.408 126.595C68.935 125.508 68.9226 124.498 69.139 123.34C69.9326 121.759 70.972 120.712 72.6547 120.118C75.5396 119.295 78.4611 119.188 81.4437 119.239C80.2587 120.893 79.0712 122.005 77.0492 122.461C75.4875 122.587 73.9249 122.53 72.3617 122.461C72.3073 122.818 72.2529 123.174 72.1969 123.542C72.1663 123.742 72.1357 123.943 72.1042 124.149C72.0338 124.946 72.0338 124.946 72.3617 126.27C74.682 126.27 77.0023 126.27 79.3929 126.27C79.5863 125.303 79.7797 124.336 79.9789 123.34C80.4435 122.401 80.4435 122.401 80.9677 121.637C81.2248 121.254 81.2248 121.254 81.4872 120.863C81.6662 120.617 81.8452 120.371 82.0297 120.118C82.1819 119.86 82.3341 119.602 82.4909 119.336C83.2015 118.653 83.2015 118.653 84.3432 118.562ZM131.834 122.461C131.123 123.128 130.704 123.658 130.554 124.635C130.517 126.093 130.555 126.895 131.541 128.028C132.255 127.949 132.255 127.949 133.006 127.735C133.705 126.686 133.822 126.06 133.885 124.805C133.693 123.996 133.434 123.492 133.006 122.754C132.4 122.449 132.4 122.449 131.834 122.461Z" fill="black"/>
<path d="M205.957 92.2852C206.054 92.4785 206.15 92.6719 206.25 92.8711C203.024 96.9586 198.798 98.5722 193.728 99.2077C186.419 100.023 179.016 99.5877 171.68 99.4214C166.796 99.3128 161.916 99.2808 157.031 99.3164C157.454 98.1778 157.752 97.6046 158.771 96.9177C158.973 96.7746 159.175 96.6315 159.383 96.484C162.021 95.3018 165.048 95.3996 167.886 95.343C168.311 95.3326 168.736 95.3219 169.161 95.311C170.057 95.2884 170.953 95.267 171.85 95.2468C174.172 95.1941 176.493 95.1301 178.815 95.0672C179.156 95.0581 179.156 95.0581 179.505 95.0487C188.469 94.8077 197.229 94.5123 205.957 92.2852Z" fill="black"/>
<path d="M211.892 103.309C212.237 103.301 212.581 103.294 212.937 103.287C215.42 103.278 217.546 103.566 219.543 105.135C221.119 107.111 222.408 109.017 222.365 111.622C221.783 112.417 221.783 112.417 220.901 113.086C220.03 113.205 219.346 113.24 218.484 113.196C218.252 113.19 218.021 113.183 217.782 113.177C217.063 113.154 216.346 113.12 215.627 113.086C215.194 113.073 214.761 113.059 214.328 113.046C207.117 112.779 207.117 112.779 205.666 111.329C205.281 109.248 204.881 106.652 205.707 104.667C207.149 102.914 209.832 103.311 211.892 103.309Z" fill="black"/>
<path d="M235.547 99.0232C236.622 99.5605 237.088 100.194 237.543 101.275C238.278 103.841 238.392 107.057 237.287 109.515C236.505 110.806 235.795 111.4 234.375 111.914C233.125 111.936 232.333 111.71 231.354 110.962C229.874 109.448 229.686 107.708 229.633 105.652C229.666 103.468 230.209 101.704 231.446 99.9021C232.654 98.8316 234.004 98.7819 235.547 99.0232Z" fill="black"/>
<path d="M233.498 122.754C234.612 123.944 234.711 125.578 234.67 127.148C234.441 128.275 234.047 129.188 233.297 130.078C232.219 130.544 231.449 130.501 230.276 130.371C229.612 129.727 229.415 129.313 229.27 128.398C229.267 126.095 229.545 124.465 231.118 122.735C232.035 122.33 232.558 122.434 233.498 122.754Z" fill="black"/>
<path d="M116.603 154.102C117.955 155.2 118.675 156.478 118.947 158.203C118.986 159.488 118.807 160.352 117.995 161.389C116.58 162.482 115.47 162.79 113.673 162.598C112.867 162.072 112.347 161.703 111.916 160.84C111.679 158.603 111.942 156.645 113.087 154.687C114.216 153.62 115.149 153.642 116.603 154.102ZM113.6 155.2C112.68 156.383 112.631 157.633 112.795 159.082C113.194 160.079 113.194 160.079 113.673 160.84C114.503 160.962 114.503 160.962 115.431 160.84C116.483 159.93 116.836 158.988 116.944 157.637C116.854 156.499 116.422 155.88 115.724 154.98C114.737 154.511 114.466 154.526 113.6 155.2Z" fill="black"/>
<path d="M115.137 154.102C115.759 153.974 115.759 153.974 116.602 154.102C117.941 155.203 118.675 156.489 118.945 158.204C118.94 159.585 118.759 160.691 117.773 161.719C117.206 161.481 117.206 161.481 116.602 161.133C116.279 160.165 116.351 159.694 116.492 158.698C116.638 157.298 116.564 156.458 115.723 155.274C115.529 155.177 115.336 155.081 115.137 154.981C115.137 154.691 115.137 154.401 115.137 154.102Z" fill="black"/>
<path d="M237.598 89.0625C238.558 89.9708 239.335 90.8118 239.941 91.9922C239.941 92.5781 239.941 92.5781 239.355 93.2007C239.162 93.382 238.969 93.5632 238.77 93.75C237.891 93.457 237.891 93.457 237.616 92.9443C237.513 92.7268 237.411 92.5093 237.305 92.2852C236.922 91.7904 236.533 91.3007 236.133 90.8203C236.32 90.6934 236.507 90.5665 236.7 90.4358C237.383 89.9671 237.383 89.9671 237.598 89.0625Z" fill="black"/>
<path d="M115.722 154.101C115.529 154.101 115.335 154.101 115.136 154.101C115.136 154.295 115.136 154.488 115.136 154.687C114.907 154.754 114.677 154.82 114.44 154.889C113.636 155.203 113.636 155.203 113.305 155.896C113.08 156.759 112.968 157.608 112.876 158.495C112.759 159.316 112.497 160.065 112.206 160.839C112.11 160.839 112.013 160.839 111.913 160.839C111.759 158.578 111.912 156.673 113.085 154.687C114.01 153.878 114.563 153.629 115.722 154.101Z" fill="black"/>
<path d="M81.4453 123.047C81.2323 124.666 80.7614 126.182 80.2734 127.734C80.1768 127.734 80.0801 127.734 79.9805 127.734C79.9382 127.511 79.8959 127.287 79.8523 127.057C79.6983 126.246 79.6983 126.246 79.3945 125.391C79.6143 124.329 79.6143 124.329 79.9805 123.34C80.8594 123.047 80.8594 123.047 81.4453 123.047Z" fill="black"/>
<path d="M111.915 124.219C112.784 125.041 113.511 125.737 113.966 126.855C113.417 127.167 113.417 127.167 112.794 127.441C112.208 127.148 112.208 127.148 111.915 126.27C111.904 125.586 111.903 124.902 111.915 124.219Z" fill="black"/>
<path d="M121.289 135.938C123.319 135.938 125.35 135.938 127.441 135.938C127.538 136.131 127.635 136.324 127.734 136.523C127.267 137.646 127.002 138.184 125.977 138.867C126.526 137.183 126.526 137.183 126.855 136.523C125.019 136.427 123.182 136.33 121.289 136.23C121.289 136.134 121.289 136.037 121.289 135.938Z" fill="black"/>
<path d="M115.723 154.102C115.529 154.102 115.336 154.102 115.137 154.102C115.137 154.295 115.137 154.489 115.137 154.688C114.907 154.754 114.677 154.821 114.441 154.889C113.608 155.21 113.608 155.21 113.287 156.043C113.221 156.273 113.154 156.502 113.086 156.739C112.893 156.642 112.699 156.545 112.5 156.446C112.759 155.388 112.925 154.819 113.782 154.12C114.609 153.785 114.911 153.771 115.723 154.102Z" fill="black"/>
<path d="M153.809 104.004C154.002 104.294 154.195 104.584 154.395 104.883C154.087 105.651 153.911 105.994 153.186 106.421C153.005 106.493 152.823 106.566 152.637 106.641C152.697 106.459 152.758 106.278 152.82 106.091C152.856 105.886 152.892 105.68 152.93 105.469C152.736 105.275 152.543 105.082 152.344 104.883C152.531 104.847 152.718 104.81 152.911 104.773C153.21 104.682 153.21 104.682 153.516 104.59C153.612 104.396 153.709 104.203 153.809 104.004Z" fill="black"/>
<path d="M228.516 93.1641C228.709 93.2607 228.902 93.3574 229.102 93.457C228.83 93.7924 228.83 93.7924 228.552 94.1345C227.913 94.9208 227.913 94.9208 227.344 95.8008C226.721 96.1487 226.721 96.1487 226.172 96.3867C226.604 94.9192 227.424 94.1842 228.516 93.1641Z" fill="black"/>
<path d="M71.7779 96.9727C71.7779 97.2627 71.7779 97.5527 71.7779 97.8516C71.4969 98.1053 71.4969 98.1053 71.2103 98.3643C70.4154 99.2313 70.4015 99.9243 70.313 101.074C70.2164 101.074 70.1197 101.074 70.0201 101.074C69.8399 98.9477 69.8399 98.9477 70.7342 97.8699C70.9819 97.6705 71.2297 97.4711 71.4849 97.2656C71.5816 97.1689 71.6783 97.0723 71.7779 96.9727Z" fill="black"/>
<path d="M156.738 104.59C156.932 104.88 157.125 105.17 157.324 105.469C156.551 106.049 155.777 106.629 154.98 107.227C154.98 106.937 154.98 106.646 154.98 106.348C155.458 105.944 155.947 105.553 156.445 105.176C156.542 104.982 156.639 104.789 156.738 104.59Z" fill="black"/>
<path d="M205.957 92.2852C206.054 92.4785 206.15 92.6719 206.25 92.8711C205.96 93.1611 205.67 93.4512 205.371 93.75C205.371 93.5566 205.371 93.3633 205.371 93.1641C204.791 93.1641 204.211 93.1641 203.613 93.1641C204.386 92.7499 205.099 92.469 205.957 92.2852Z" fill="black"/>
<path d="M86.7188 93.457C87.8906 93.75 87.8905 93.75 87.8905 93.75L86.7188 93.457Z" fill="black"/>
<path d="M130.664 97.8516C131.25 98.1445 131.25 98.1445 131.25 98.1445L130.664 97.8516Z" fill="black"/>
</svg>
