<svg width="300" height="300" viewBox="0 0 300 300" fill="none" xmlns="http://www.w3.org/2000/svg">
<path d="M155.493 81.0429C157.293 82.9429 158.252 84.9235 158.222 87.5248C158.219 87.8133 158.216 88.1018 158.214 88.3991C158.208 88.7277 158.208 88.7277 158.203 89.0629C158.459 89.098 158.714 89.1331 158.977 89.1693C163.864 90.0956 168.455 93.6035 171.68 97.266C171.957 97.6978 172.232 98.1311 172.504 98.5661C173.039 99.3178 173.27 99.5713 174.18 99.7803C174.737 99.8132 175.295 99.8356 175.852 99.8478C177.393 99.9525 178.558 100.587 179.59 101.715C180.012 102.904 180.15 103.934 179.883 105.176C179.204 106.325 178.521 107.095 177.246 107.52C176.593 107.54 175.94 107.545 175.287 107.538C174.941 107.536 174.596 107.533 174.24 107.53C173.843 107.525 173.843 107.525 173.438 107.52C173.359 107.894 173.281 108.269 173.201 108.655C172.865 110.163 172.422 111.624 171.954 113.095C171.865 113.378 171.777 113.661 171.685 113.953C171.391 114.885 171.096 115.817 170.801 116.748C170.377 118.087 169.954 119.425 169.531 120.763C169.42 121.111 169.31 121.459 169.196 121.818C168.487 124.063 167.789 126.312 167.099 128.564C166.689 129.903 166.275 131.242 165.861 132.58C165.574 133.505 165.291 134.431 165.01 135.358C164.695 136.396 164.374 137.433 164.051 138.469C163.96 138.777 163.868 139.084 163.774 139.4C163.207 141.196 162.55 142.575 161.133 143.848C160.384 144.223 159.853 144.174 159.016 144.17C158.714 144.169 158.411 144.168 158.1 144.167C157.784 144.164 157.467 144.162 157.141 144.159C156.663 144.157 156.663 144.157 156.175 144.155C155.386 144.152 154.598 144.147 153.809 144.141C153.809 145.688 153.809 147.235 153.809 148.829C154.22 148.847 154.63 148.865 155.054 148.883C157.656 149.146 160.175 150.168 162.012 152.051C162.925 153.268 163.014 154.308 162.996 155.783C162.997 156.009 162.998 156.235 162.999 156.468C163 157.225 162.995 157.982 162.99 158.738C162.99 159.281 162.99 159.824 162.991 160.367C162.991 161.84 162.986 163.313 162.98 164.786C162.974 166.326 162.974 167.866 162.973 169.406C162.97 172.321 162.963 175.237 162.954 178.152C162.944 181.472 162.939 184.791 162.935 188.11C162.926 194.938 162.91 201.766 162.891 208.594C163.133 208.59 163.374 208.586 163.624 208.582C163.941 208.579 164.258 208.576 164.584 208.572C164.899 208.568 165.213 208.564 165.537 208.56C167.045 208.619 167.837 209.119 168.842 210.205C169.787 211.606 169.692 212.899 169.702 214.527C169.711 214.893 169.711 214.893 169.721 215.267C169.731 216.882 169.602 218.042 168.75 219.434C167.012 220.719 165.574 220.773 163.455 220.753C162.975 220.755 162.975 220.755 162.485 220.758C161.429 220.761 160.374 220.756 159.319 220.751C158.584 220.751 157.849 220.752 157.114 220.752C155.575 220.753 154.036 220.749 152.497 220.743C150.721 220.735 148.945 220.734 147.168 220.738C145.455 220.741 143.742 220.739 142.029 220.735C141.302 220.734 140.575 220.733 139.848 220.735C138.832 220.735 137.816 220.731 136.8 220.724C136.5 220.726 136.2 220.727 135.891 220.728C134.32 220.712 133.187 220.621 131.836 219.727C130.378 218.191 130.487 216.6 130.518 214.6C130.513 214.301 130.509 214.003 130.504 213.695C130.513 211.959 130.606 210.804 131.836 209.473C133.014 208.6 133.844 208.495 135.297 208.539C135.637 208.547 135.977 208.555 136.328 208.563C136.715 208.579 136.715 208.579 137.109 208.594C137.108 208.313 137.107 208.033 137.106 207.743C137.08 200.914 137.061 194.085 137.049 187.256C137.043 183.953 137.034 180.651 137.021 177.348C137.009 174.47 137.002 171.592 136.999 168.713C136.998 167.189 136.994 165.665 136.986 164.141C136.978 162.706 136.975 161.272 136.977 159.837C136.977 159.311 136.974 158.784 136.97 158.258C136.964 157.538 136.965 156.819 136.969 156.1C136.963 155.788 136.963 155.788 136.958 155.47C136.979 153.759 137.605 152.716 138.805 151.536C141.213 149.743 143.499 148.999 146.484 148.829C146.484 147.282 146.484 145.735 146.484 144.141C146.015 144.151 145.546 144.161 145.062 144.172C144.444 144.18 143.825 144.188 143.207 144.196C142.898 144.203 142.589 144.211 142.27 144.218C141.971 144.221 141.672 144.224 141.363 144.227C141.089 144.231 140.814 144.236 140.531 144.241C139.31 144.086 138.543 143.515 137.671 142.674C136.853 141.398 136.47 140.055 136.029 138.611C135.921 138.267 135.813 137.923 135.702 137.569C135.37 136.506 135.042 135.442 134.714 134.378C134.347 133.186 133.978 131.996 133.609 130.805C132.745 128.017 131.883 125.228 131.023 122.439C130.194 119.749 129.364 117.061 128.52 114.376C128.449 114.151 128.378 113.925 128.305 113.693C127.988 112.686 127.67 111.679 127.351 110.672C127.245 110.334 127.138 109.996 127.028 109.647C126.892 109.217 126.892 109.217 126.752 108.777C126.563 108.106 126.563 108.106 126.563 107.52C126.329 107.53 126.096 107.54 125.855 107.551C122.613 107.634 122.613 107.634 121.289 106.641C120.285 105.505 119.92 104.6 120.005 103.113C120.262 101.8 120.972 101.026 122.003 100.232C123.605 99.7264 125.189 99.836 126.856 99.9027C126.969 99.6552 126.969 99.6552 127.084 99.4026C129.746 94.3947 134.992 91.1972 140.154 89.2906C140.918 89.0629 140.918 89.0629 141.797 89.0629C141.783 88.8854 141.77 88.7079 141.756 88.525C141.644 85.9341 142.285 83.9341 143.939 81.9218C147.186 78.4728 151.634 78.7626 155.493 81.0429ZM133.887 107.52C136.081 114.778 138.273 122.029 140.57 129.255C140.807 130.002 141.044 130.749 141.28 131.496C141.842 133.27 142.405 135.043 142.969 136.817C144.608 137.096 146.187 137.148 147.847 137.138C148.111 137.138 148.375 137.138 148.647 137.137C149.482 137.135 150.318 137.132 151.154 137.128C151.723 137.127 152.292 137.125 152.862 137.124C154.252 137.121 155.641 137.116 157.031 137.11C159.144 130.525 161.253 123.94 163.305 117.336C163.466 116.815 163.629 116.295 163.791 115.775C164.018 115.046 164.244 114.316 164.47 113.586C164.535 113.379 164.6 113.172 164.666 112.958C165.221 111.155 165.654 109.359 166.113 107.52C155.479 107.52 144.844 107.52 133.887 107.52Z" fill="black"/>
<path d="M200.647 107.739C201.33 108.463 201.63 108.894 201.855 109.863C201.799 111.433 201.479 112.255 200.39 113.379C199.596 113.686 199.596 113.686 198.685 113.859C198.179 113.96 198.179 113.96 197.662 114.063C197.305 114.127 196.949 114.191 196.582 114.258C196.228 114.327 195.873 114.395 195.509 114.466C194.415 114.676 193.32 114.871 192.224 115.063C191.853 115.132 191.482 115.2 191.1 115.27C190.741 115.334 190.381 115.397 190.011 115.462C189.69 115.519 189.369 115.576 189.038 115.635C187.767 115.752 186.525 115.769 185.45 115.024C184.674 114.087 184.303 113.547 184.112 112.317C184.323 111.052 184.698 110.304 185.62 109.416C186.617 108.807 187.661 108.643 188.795 108.439C189.155 108.372 189.155 108.372 189.522 108.303C190.029 108.209 190.536 108.117 191.044 108.026C191.815 107.887 192.585 107.741 193.355 107.594C193.849 107.503 194.343 107.412 194.838 107.323C195.065 107.279 195.293 107.235 195.528 107.19C197.332 106.875 199.026 106.752 200.647 107.739Z" fill="black"/>
<path d="M194.224 119.638C194.675 119.714 195.126 119.787 195.578 119.858C196.238 119.962 196.898 120.073 197.557 120.186C197.757 120.216 197.957 120.246 198.162 120.277C199.7 120.553 200.476 121.1 201.563 122.168C202.037 123.358 201.989 124.465 201.526 125.647C200.878 126.381 200.419 126.765 199.512 127.148C197.858 127.216 196.313 127.067 194.684 126.795C194.456 126.758 194.229 126.721 193.995 126.683C193.518 126.605 193.042 126.526 192.566 126.446C191.839 126.324 191.112 126.208 190.385 126.093C189.919 126.016 189.454 125.939 188.989 125.861C188.773 125.827 188.558 125.793 188.335 125.758C186.769 125.488 185.636 125.107 184.626 123.853C184.175 122.809 184.139 122.124 184.278 120.996C184.769 120.031 185.173 119.425 186.072 118.817C188.666 118.31 191.641 119.199 194.224 119.638Z" fill="black"/>
<path d="M108.243 107.903C108.678 107.977 109.113 108.049 109.548 108.117C114.108 108.836 114.108 108.836 115.723 110.742C116.115 111.962 116.107 112.545 115.668 113.745C115.014 114.738 114.499 115.26 113.36 115.622C112.142 115.765 111.046 115.548 109.845 115.334C109.591 115.29 109.336 115.246 109.074 115.201C108.537 115.108 108 115.013 107.464 114.917C106.645 114.771 105.825 114.632 105.005 114.493C104.482 114.401 103.959 114.309 103.437 114.217C103.193 114.176 102.948 114.134 102.697 114.092C101.13 113.806 99.9767 113.407 98.7859 112.299C98.2743 111.303 98.2825 110.361 98.438 109.278C98.8356 108.284 99.205 107.895 100.068 107.263C102.569 106.445 105.687 107.46 108.243 107.903Z" fill="black"/>
<path d="M113.965 118.946C115.161 119.96 115.676 120.533 115.832 122.095C115.815 123.125 115.691 123.391 115.118 124.329C113.211 126.033 109.987 126.114 107.517 126.527C107.017 126.612 106.517 126.699 106.018 126.789C105.292 126.92 104.565 127.042 103.838 127.164C103.505 127.225 103.505 127.225 103.166 127.288C101.694 127.522 100.86 127.37 99.6091 126.563C98.6479 125.703 98.3499 125.039 98.2725 123.78C98.328 122.824 98.4371 122.462 98.95 121.619C101.413 120.008 104.903 119.809 107.757 119.312C108.13 119.243 108.502 119.175 108.885 119.105C109.246 119.042 109.607 118.979 109.979 118.914C110.301 118.856 110.624 118.799 110.957 118.74C112.027 118.642 112.915 118.718 113.965 118.946Z" fill="black"/>
<path d="M135.059 91.6992C135.252 91.7959 135.445 91.8926 135.645 91.9922C135.258 92.2822 134.871 92.5723 134.473 92.8711C134.569 93.0645 134.666 93.2578 134.766 93.457C134.476 93.5537 134.186 93.6504 133.887 93.75C133.398 94.1894 133.398 94.1894 133.008 94.6289C132.718 94.3389 132.428 94.0488 132.129 93.75C133.096 93.0732 134.062 92.3965 135.059 91.6992Z" fill="black"/>
</svg>
