<svg width="300" height="300" viewBox="0 0 300 300" fill="none" xmlns="http://www.w3.org/2000/svg">
<path d="M117.921 37.4569C118.291 37.4548 118.662 37.4527 119.043 37.4506C119.449 37.4497 119.854 37.4489 120.259 37.4482C120.69 37.4463 121.121 37.4444 121.552 37.4423C122.96 37.4362 124.369 37.4332 125.777 37.4302C126.263 37.429 126.749 37.4278 127.235 37.4266C129.517 37.421 131.798 37.4169 134.08 37.4144C136.711 37.4116 139.343 37.4038 141.974 37.392C144.011 37.3832 146.047 37.3788 148.084 37.3779C149.299 37.3772 150.515 37.3745 151.73 37.3672C152.872 37.3604 154.015 37.3591 155.157 37.3621C155.576 37.3623 155.995 37.3604 156.414 37.3564C156.986 37.3512 157.558 37.354 158.13 37.3571C158.45 37.3564 158.77 37.3557 159.1 37.355C160.167 37.5347 160.655 37.9285 161.426 38.6719C162 39.8201 161.929 40.9409 161.719 42.1875C159.864 46.9285 156.25 50.8563 151.684 53.1006C147.278 55.0243 142.708 55.1155 137.977 55.1365C137.255 55.14 136.533 55.1458 135.81 55.1521C133.759 55.17 131.709 55.186 129.658 55.1958C128.396 55.2019 127.135 55.2123 125.873 55.2253C125.396 55.2294 124.92 55.232 124.443 55.2329C120.006 55.2425 116.472 55.872 113.161 59.079C112.119 60.2048 111.148 61.3499 110.261 62.6009C110.131 62.7838 110.001 62.9666 109.867 63.1549C109.72 63.3625 109.72 63.3625 109.57 63.5743C110.029 63.5651 110.029 63.5651 110.497 63.5557C111.641 63.5343 112.786 63.5209 113.931 63.5099C114.425 63.504 114.919 63.4961 115.412 63.4859C120.71 63.3791 120.71 63.3791 122.754 64.7461C122.991 64.9047 123.228 65.0634 123.472 65.2268C125.968 67.462 126.976 69.6085 127.24 72.9309C127.195 74.6414 126.6 76.3083 125.91 77.8592C125.612 79.1106 125.893 79.5468 126.502 80.6672C126.598 80.8494 126.695 81.0317 126.794 81.2195C127.007 81.6213 127.224 82.0218 127.442 82.421C128.053 83.5389 128.643 84.6674 129.238 85.7941C129.37 86.0428 129.502 86.2916 129.638 86.5478C131.375 89.8303 133.027 93.1556 134.684 96.4785C135.133 97.3772 135.582 98.2752 136.032 99.1731C136.453 100.014 136.873 100.855 137.294 101.697C137.448 102.006 137.603 102.315 137.763 102.633C137.904 102.917 138.046 103.201 138.191 103.494C138.315 103.742 138.439 103.99 138.567 104.246C139.154 105.493 139.209 106.58 139.22 107.932C139.223 108.152 139.226 108.373 139.229 108.599C139.238 109.327 139.245 110.055 139.253 110.782C139.259 111.287 139.265 111.791 139.271 112.296C139.287 113.624 139.302 114.952 139.316 116.279C139.331 117.634 139.347 118.989 139.363 120.344C139.395 123.003 139.424 125.662 139.453 128.32C139.722 128.048 139.991 127.776 140.268 127.495C143.653 124.08 143.653 124.08 145.365 122.627C146.407 121.73 147.393 120.771 148.389 119.824C149.82 118.464 151.262 117.13 152.769 115.853C153.69 114.993 153.621 114.05 153.736 112.839C153.755 112.638 153.775 112.438 153.794 112.232C153.834 111.806 153.874 111.381 153.913 110.955C153.972 110.313 154.034 109.672 154.096 109.03C154.209 107.844 154.303 106.657 154.394 105.469C154.422 105.19 154.45 104.91 154.479 104.623C154.608 102.537 153.82 101.172 152.746 99.4263C152.574 99.1344 152.402 98.8424 152.224 98.5416C151.862 97.9285 151.497 97.3169 151.129 96.7068C150.616 95.8519 150.114 94.9922 149.615 94.1288C148.101 91.5072 146.565 88.8999 145.008 86.3034C144.753 85.8765 144.497 85.4496 144.242 85.0227C143.743 84.189 143.242 83.3567 142.74 82.5252C142.51 82.1401 142.279 81.755 142.049 81.3698C141.943 81.1962 141.837 81.0225 141.728 80.8436C140.294 78.4343 140.074 76.3697 140.497 73.6451C141.408 71.5044 143.088 70.0731 145.019 68.8477C145.925 68.546 146.545 68.5171 147.493 68.5154C147.826 68.5141 148.16 68.5128 148.503 68.5114C149.055 68.5115 149.055 68.5115 149.618 68.5116C150.011 68.5106 150.405 68.5096 150.798 68.5083C151.882 68.5054 152.966 68.5043 154.049 68.5035C155.217 68.5024 156.384 68.4996 157.552 68.497C160.373 68.4912 163.194 68.4883 166.015 68.4857C167.343 68.4844 168.671 68.4828 169.999 68.4813C174.412 68.4763 178.824 68.4721 183.237 68.4699C184.383 68.4694 185.528 68.4688 186.673 68.4683C186.958 68.4681 187.243 68.468 187.536 68.4678C192.15 68.4654 196.764 68.458 201.377 68.4485C206.112 68.4388 210.847 68.4335 215.582 68.4326C218.241 68.4319 220.9 68.4293 223.559 68.4219C225.824 68.4155 228.088 68.4131 230.352 68.416C231.508 68.4173 232.663 68.4168 233.818 68.4111C234.876 68.4059 235.934 68.4062 236.992 68.4108C237.556 68.4118 238.12 68.407 238.684 68.4021C240.54 68.416 241.774 68.43 243.164 69.7266C243.499 70.3962 243.525 70.8307 243.548 71.576C243.559 71.7984 243.57 72.0208 243.582 72.25C243.402 73.2552 243.002 73.6905 242.285 74.4141C241.581 74.8374 240.892 75.2167 240.161 75.586C233.478 79.1549 227.769 85.0727 225.275 92.3092C224.648 94.5107 224.352 96.6971 224.341 98.9869C224.34 99.2 224.338 99.4131 224.337 99.6327C224.356 101.455 224.619 103.19 225.006 104.968C225.266 106.207 225.388 107.182 225 108.398C224.043 109.71 223.18 110.052 221.65 110.319C221.414 110.356 221.178 110.393 220.935 110.431C214.162 111.675 207.565 115.241 203.467 120.886C200.294 125.631 198.488 130.289 197.612 135.98C197.191 138.687 197.191 138.687 195.996 139.746C194.755 140.484 193.867 140.292 192.48 140.039C191.768 139.816 191.059 139.577 190.356 139.325C184.69 137.383 178.728 137.336 173.229 139.872C171.361 140.793 169.743 141.913 168.164 143.262C167.72 143.597 167.72 143.597 167.267 143.939C165.494 145.561 164.155 147.434 162.963 149.514C162.783 149.826 162.603 150.138 162.418 150.459C162.284 150.694 162.15 150.929 162.012 151.172C162.327 151.168 162.327 151.168 162.648 151.164C167.779 151.099 172.91 151.05 178.041 151.02C180.523 151.005 183.004 150.985 185.485 150.951C187.65 150.922 189.815 150.903 191.98 150.896C193.125 150.892 194.269 150.884 195.413 150.862C200.367 150.773 204.375 150.714 208.301 154.102C208.835 154.454 209.374 154.799 209.921 155.13C210.406 155.44 210.892 155.751 211.377 156.061C214.099 157.799 216.835 159.514 219.579 161.218C220.004 161.482 220.004 161.482 220.437 161.752C220.689 161.908 220.941 162.065 221.201 162.226C221.777 162.598 221.777 162.598 222.07 162.891C222.467 162.924 222.865 162.937 223.263 162.943C223.516 162.946 223.77 162.95 224.031 162.954C224.308 162.956 224.584 162.958 224.869 162.96C225.154 162.963 225.439 162.965 225.732 162.968C226.337 162.972 226.943 162.975 227.548 162.977C228.465 162.982 229.382 162.995 230.299 163.008C234.088 163.037 237.095 162.844 240.234 160.547C240.561 160.402 240.561 160.402 240.893 160.254C241.571 159.867 241.66 159.496 241.992 158.789C242.206 158.382 242.206 158.382 242.424 157.967C242.577 157.671 242.731 157.374 242.889 157.068C243.121 156.625 243.121 156.625 243.357 156.173C244.615 153.292 244.198 149.957 243.164 147.07C241.9 144.535 239.838 142.483 237.177 141.459C233.906 140.379 230.501 140.58 227.109 140.659C223.33 140.741 219.697 140.761 216.797 137.988C214.893 136.059 214.137 134.031 214.068 131.36C214.108 128.469 215.025 126.288 217.024 124.203C218.763 122.681 220.579 121.847 222.888 121.828C223.166 121.825 223.444 121.822 223.73 121.819C224.03 121.818 224.33 121.817 224.638 121.816C224.951 121.814 225.263 121.812 225.585 121.81C226.248 121.808 226.911 121.806 227.574 121.805C228.573 121.802 229.572 121.793 230.571 121.783C239.815 121.738 247.739 124.279 254.516 130.774C260.089 136.601 262.977 143.983 263.196 152.014C262.956 160.577 260.208 168.161 253.94 174.187C247.221 180.085 238.97 182.268 230.146 182.233C229.904 182.233 229.662 182.232 229.412 182.232C228.82 182.231 228.228 182.229 227.637 182.227C227.593 184.949 227.569 187.672 227.569 190.395C227.568 191.66 227.561 192.924 227.539 194.189C227.518 195.412 227.514 196.635 227.522 197.859C227.522 198.322 227.516 198.786 227.504 199.25C227.443 201.635 227.534 203.397 229.154 205.251C229.754 205.873 230.374 206.463 231.02 207.036C231.622 207.583 232.165 208.178 232.711 208.78C233.082 209.176 233.454 209.572 233.826 209.967C234.024 210.178 234.222 210.389 234.426 210.606C235.741 212 237.082 213.361 238.447 214.707C239.212 215.484 239.921 216.298 240.627 217.129C241.273 217.856 241.979 218.51 242.702 219.16C244.036 220.795 244.172 222.448 244.161 224.474C244.164 224.868 244.164 224.868 244.167 225.269C244.173 226.131 244.172 226.993 244.17 227.855C244.171 228.458 244.173 229.06 244.175 229.662C244.177 230.923 244.176 232.184 244.174 233.444C244.17 235.056 244.176 236.668 244.185 238.28C244.19 239.523 244.19 240.767 244.188 242.01C244.188 242.604 244.19 243.198 244.194 243.792C244.198 244.625 244.195 245.457 244.19 246.289C244.193 246.532 244.196 246.775 244.198 247.026C244.174 248.96 243.617 250.447 242.395 251.954C242.164 252.16 242.164 252.16 241.929 252.37C241.754 252.529 241.579 252.689 241.399 252.853C241.214 253.015 241.029 253.178 240.839 253.345C240.645 253.52 240.451 253.695 240.252 253.875C239.854 254.235 239.455 254.593 239.055 254.95C238.353 255.579 237.661 256.219 236.971 256.861C236.506 257.294 236.038 257.724 235.571 258.154C234.964 258.711 234.359 259.272 233.756 259.834C233.468 260.1 233.18 260.366 232.892 260.632C232.641 260.866 232.389 261.099 232.131 261.34C230.802 262.453 229.887 262.574 228.147 262.581C227.934 262.582 227.722 262.584 227.504 262.585C226.804 262.589 226.104 262.589 225.404 262.588C224.916 262.589 224.429 262.591 223.942 262.592C222.92 262.594 221.899 262.594 220.878 262.593C219.57 262.591 218.263 262.596 216.955 262.603C215.948 262.607 214.942 262.607 213.935 262.606C213.453 262.606 212.971 262.608 212.489 262.611C211.814 262.615 211.14 262.613 210.465 262.609C209.89 262.609 209.89 262.609 209.303 262.61C208.237 262.493 207.688 262.257 206.836 261.621C206.035 260.578 206.14 259.309 206.121 258.046C206.117 257.813 206.112 257.579 206.108 257.339C206.102 256.845 206.096 256.352 206.093 255.858C206.085 255.109 206.063 254.361 206.041 253.611C205.976 249.594 205.976 249.594 207.165 248.218C207.535 247.89 207.914 247.573 208.301 247.266C208.629 246.929 208.953 246.589 209.272 246.245C209.589 245.925 209.906 245.606 210.223 245.288C210.381 245.127 210.539 244.966 210.701 244.799C212.008 243.488 213.438 242.06 215.384 241.959C215.625 241.96 215.865 241.962 216.114 241.964C216.375 241.965 216.637 241.966 216.906 241.966C217.178 241.969 217.45 241.971 217.731 241.974C218.144 241.976 218.144 241.976 218.565 241.978C219.245 241.981 219.925 241.986 220.605 241.992C221.046 237.345 221.046 237.345 219.314 233.224C218.389 232.268 217.387 231.417 216.317 230.627C216.119 230.452 216.119 230.452 215.918 230.273C215.918 230.08 215.918 229.887 215.918 229.688C212.147 229.688 208.377 229.688 204.492 229.688C204.589 229.881 204.685 230.074 204.785 230.273C204.99 232.362 204.408 233.706 203.467 235.547C203.266 235.954 203.266 235.954 203.06 236.369C202.663 237.172 202.26 237.971 201.855 238.77C201.657 239.168 201.46 239.567 201.263 239.965C200.898 240.702 200.53 241.436 200.159 242.168C199.641 243.195 199.133 244.226 198.626 245.258C198.47 245.575 198.314 245.891 198.153 246.216C197.844 246.843 197.536 247.47 197.23 248.098C196.131 250.316 194.995 251.846 193.118 253.452C192.039 254.385 191.008 255.368 189.972 256.348C189.762 256.545 189.552 256.742 189.336 256.945C188.363 257.862 187.408 258.786 186.485 259.753C186.143 260.086 185.797 260.416 185.449 260.742C185.284 260.899 185.118 261.055 184.947 261.216C182.787 262.943 180.421 262.74 177.8 262.703C177.315 262.702 176.829 262.701 176.344 262.701C175.331 262.7 174.319 262.693 173.306 262.681C172.01 262.666 170.714 262.663 169.418 262.663C168.418 262.663 167.417 262.658 166.417 262.652C165.939 262.649 165.461 262.647 164.983 262.647C164.316 262.645 163.649 262.637 162.981 262.628C162.602 262.624 162.223 262.621 161.832 262.618C160.767 262.491 160.217 262.275 159.375 261.621C158.593 260.206 158.384 259.049 158.379 257.445C158.378 257.251 158.378 257.056 158.377 256.856C158.376 256.448 158.378 256.04 158.381 255.632C158.386 255.011 158.381 254.392 158.376 253.771C158.376 253.372 158.378 252.973 158.379 252.575C158.38 252.216 158.381 251.858 158.382 251.489C158.665 249.004 160.378 247.585 162.067 245.911C162.308 245.663 162.55 245.415 162.8 245.16C164.671 243.29 166.145 241.973 168.86 241.878C169.409 241.885 169.959 241.899 170.508 241.919C170.791 241.924 171.073 241.93 171.365 241.935C172.056 241.949 172.747 241.968 173.437 241.992C173.455 241.821 173.472 241.651 173.491 241.475C173.655 239.926 173.893 238.415 174.198 236.888C174.464 235.424 174.464 235.424 173.919 234.109C173.735 233.935 173.552 233.761 173.363 233.582C173.06 233.288 173.06 233.288 172.75 232.987C172.536 232.787 172.322 232.586 172.101 232.379C171.685 231.981 171.269 231.583 170.854 231.183C170.546 230.886 170.546 230.886 170.231 230.583C169.465 229.817 168.762 229.006 168.058 228.184C167.35 227.376 166.589 226.628 165.82 225.879C164.664 224.739 163.564 223.579 162.512 222.342C161.722 221.451 160.865 220.629 160.018 219.793C159.247 219.011 158.533 218.19 157.82 217.354C157.318 216.79 156.79 216.274 156.244 215.753C155.289 214.813 154.682 213.904 154.101 212.695C154.101 212.405 154.101 212.115 154.101 211.816C152.925 212.457 152.068 213.202 151.135 214.16C150.929 214.37 150.929 214.37 150.718 214.584C150.282 215.027 149.848 215.472 149.414 215.918C148.842 216.506 148.268 217.091 147.693 217.676C147.44 217.936 147.187 218.195 146.926 218.463C145.205 220.05 143.787 220.197 141.504 220.313C141.501 220.546 141.498 220.779 141.495 221.019C141.465 223.262 141.435 225.506 141.404 227.749C141.389 228.901 141.373 230.053 141.358 231.206C141.321 234.093 141.276 236.981 141.223 239.868C141.211 240.532 141.2 241.195 141.189 241.859C141.171 242.921 141.149 243.984 141.123 245.046C141.109 245.629 141.1 246.212 141.091 246.794C141.081 247.144 141.072 247.494 141.062 247.855C141.055 248.16 141.049 248.465 141.042 248.779C140.816 250.294 139.939 251.248 138.882 252.299C138.657 252.523 138.433 252.747 138.202 252.977C137.968 253.207 137.734 253.437 137.494 253.674C137.266 253.902 137.038 254.13 136.803 254.364C135.553 255.605 134.28 256.8 132.939 257.942C132.398 258.42 131.897 258.922 131.396 259.442C128.439 262.454 128.439 262.454 126.547 262.541C126.162 262.543 125.777 262.545 125.381 262.547C125.169 262.549 124.957 262.55 124.738 262.552C124.035 262.556 123.332 262.558 122.629 262.56C122.141 262.561 121.652 262.563 121.164 262.565C120.139 262.568 119.115 262.569 118.09 262.57C116.778 262.572 115.465 262.579 114.153 262.587C113.144 262.593 112.135 262.594 111.126 262.595C110.642 262.596 110.159 262.598 109.675 262.602C108.997 262.607 108.32 262.606 107.643 262.604C107.257 262.606 106.872 262.607 106.475 262.608C105.107 262.461 104.341 262.038 103.481 260.974C103.032 259.942 102.993 259.013 102.998 257.906C102.996 257.692 102.995 257.478 102.993 257.257C102.991 256.806 102.992 256.354 102.994 255.903C102.997 255.216 102.988 254.531 102.979 253.845C102.978 253.404 102.979 252.964 102.98 252.523C102.976 252.32 102.973 252.118 102.97 251.909C102.996 250.06 103.627 248.911 104.832 247.532C105.101 247.286 105.101 247.286 105.375 247.034C105.575 246.849 105.774 246.664 105.98 246.474C106.186 246.288 106.392 246.102 106.604 245.911C106.807 245.723 107.011 245.535 107.221 245.341C110.908 241.952 111.511 241.998 117.48 241.699C117.48 234.545 117.48 227.391 117.48 220.02C117.094 220.116 116.707 220.213 116.308 220.313C115.798 220.338 115.288 220.347 114.777 220.346C114.472 220.346 114.167 220.346 113.853 220.346C113.526 220.344 113.199 220.343 112.862 220.341C112.357 220.341 112.357 220.341 111.842 220.34C110.767 220.338 109.693 220.335 108.618 220.331C107.889 220.329 107.161 220.328 106.432 220.327C104.646 220.324 102.86 220.319 101.074 220.313C101.066 220.477 101.058 220.642 101.049 220.811C100.848 223.718 100.235 226.546 99.6608 229.397C99.5772 229.814 99.5772 229.814 99.4919 230.24C99.1974 231.71 98.9008 233.179 98.6025 234.648C98.2963 236.159 97.9971 237.67 97.6996 239.182C97.468 240.353 97.2312 241.521 96.9929 242.69C96.8804 243.247 96.7698 243.804 96.6612 244.362C95.9058 248.228 95.1306 250.928 91.9932 253.512C91.4209 253.992 90.902 254.495 90.3807 255.029C89.4904 255.936 88.5503 256.765 87.5872 257.593C87.0341 258.085 86.5191 258.598 86.0045 259.131C82.7447 262.451 82.7447 262.451 80.8565 262.543C80.2887 262.547 80.2887 262.547 79.7094 262.552C79.3963 262.555 79.3963 262.555 79.0769 262.558C78.3847 262.564 77.6925 262.567 77.0003 262.57C76.7639 262.571 76.5274 262.572 76.2838 262.573C75.0318 262.58 73.7799 262.584 72.528 262.587C71.2361 262.59 69.9444 262.6 68.6525 262.611C67.6582 262.619 66.664 262.622 65.6697 262.623C65.1936 262.624 64.7175 262.627 64.2414 262.633C63.5738 262.64 62.9065 262.64 62.2389 262.638C61.8594 262.639 61.4799 262.641 61.089 262.643C59.7239 262.454 58.7442 261.911 57.9027 260.805C57.6305 259.866 57.6312 258.948 57.6369 257.978C57.6361 257.664 57.6361 257.664 57.6352 257.344C57.6348 256.902 57.6359 256.46 57.6383 256.018C57.6415 255.344 57.6384 254.67 57.6346 253.997C57.635 253.566 57.6358 253.136 57.6369 252.705C57.6357 252.505 57.6345 252.305 57.6333 252.098C57.6522 250.159 58.1835 248.983 59.4725 247.559C60.0422 247.042 60.6229 246.541 61.2086 246.043C61.9435 245.396 62.6102 244.698 63.272 243.977C65.2753 242.228 66.7787 241.782 69.4335 241.901C69.7163 241.907 69.9992 241.914 70.2906 241.921C70.982 241.938 71.6723 241.962 72.3632 241.992C72.3865 235.664 72.3948 229.335 72.3852 223.007C72.3811 220.068 72.3819 217.129 72.3943 214.191C72.4051 211.629 72.4066 209.067 72.3971 206.505C72.3924 205.149 72.3922 203.793 72.4032 202.437C72.4134 201.159 72.4112 199.882 72.3996 198.604C72.3975 198.136 72.3999 197.669 72.4072 197.201C72.4407 194.896 72.3855 193.153 70.781 191.353C70.3401 190.939 69.8919 190.532 69.4335 190.137C68.9635 189.636 68.4935 189.136 68.0236 188.635C67.8162 188.417 67.6089 188.199 67.3953 187.974C65.4937 185.538 65.4502 183.351 65.4692 180.38C65.4685 179.943 65.4673 179.507 65.4658 179.071C65.4641 178.159 65.4666 177.248 65.4721 176.336C65.4788 175.175 65.4749 174.014 65.4679 172.853C65.4637 171.953 65.465 171.052 65.4681 170.152C65.4688 169.724 65.4679 169.297 65.4652 168.869C65.4526 166.362 65.6329 164.272 66.7968 162.012C66.9376 161.714 67.0785 161.416 67.2236 161.109C67.3547 160.859 67.4857 160.608 67.6207 160.35C67.7706 160.062 67.9205 159.775 68.0749 159.478C68.2332 159.178 68.3915 158.878 68.5546 158.569C68.7223 158.249 68.89 157.929 69.0628 157.599C70.2715 155.3 71.5054 153.016 72.7551 150.739C73.9579 148.548 75.1402 146.345 76.3182 144.141C77.7716 141.421 79.2361 138.709 80.7162 136.004C81.847 133.936 82.9659 131.861 84.0819 129.785C85.9234 126.359 87.7827 122.944 89.6483 119.531C85.2011 119.531 80.7538 119.531 76.1718 119.531C76.1718 120.595 76.1718 121.658 76.1718 122.754C75.5085 125.775 74.1046 128.331 71.4843 130.078C70.0755 130.847 68.7004 131.409 67.0897 131.543C66.8127 131.571 66.8127 131.571 66.5301 131.599C63.6093 131.763 60.7839 130.781 58.5742 128.883C56.5685 126.89 55.1794 124.601 55.0428 121.718C55.0434 121.455 55.0441 121.193 55.0447 120.923C55.0448 120.624 55.0448 120.325 55.0448 120.017C55.0463 119.698 55.0478 119.378 55.0494 119.049C55.0498 118.72 55.0502 118.39 55.0507 118.051C55.0523 117 55.056 115.949 55.0597 114.899C55.0612 114.186 55.0625 113.472 55.0637 112.759C55.0669 111.013 55.0718 109.266 55.078 107.52C54.6613 107.453 54.6613 107.453 54.2361 107.385C51.7098 106.948 49.9089 105.391 48.3397 103.418C46.3106 99.8514 46.0374 95.8124 46.9115 91.8274C47.6993 89.1747 49.2982 87.1173 51.5624 85.5469C53.5488 84.5543 55.6686 83.8685 57.7742 83.178C58.0127 83.0995 58.2512 83.021 58.4969 82.9402C59.4872 82.6152 60.4775 82.2908 61.4707 81.9749C65.4112 80.7815 65.4112 80.7815 68.5546 78.2227C68.7713 77.9874 68.9881 77.7521 69.2115 77.5097C69.3693 77.316 69.5272 77.1223 69.6898 76.9226C70.1819 76.3195 70.1819 76.3195 70.6054 75.8789C70.7987 75.8789 70.9921 75.8789 71.1913 75.8789C71.2712 75.7036 71.3511 75.5283 71.4334 75.3477C71.7685 74.7234 72.0895 74.3253 72.5911 73.8313C72.7546 73.6689 72.918 73.5064 73.0864 73.3391C73.2628 73.1666 73.4391 72.9942 73.6209 72.8165C73.8038 72.6351 73.9866 72.4538 74.1751 72.2669C74.7599 71.6873 75.3467 71.1097 75.9337 70.5323C76.7018 69.7749 77.469 69.0166 78.2351 68.2572C78.4189 68.0751 78.6026 67.893 78.7919 67.7054C79.8697 66.6312 80.9009 65.5353 81.8841 64.3731C82.7001 63.4349 83.5967 62.5757 84.4847 61.7066C84.8478 61.351 85.2102 60.9947 85.5719 60.6377C85.7292 60.4839 85.8864 60.33 86.0484 60.1715C86.4587 59.7683 86.4587 59.7683 86.7186 59.1797C86.912 59.1797 87.1054 59.1797 87.3046 59.1797C87.3712 59.0174 87.4377 58.8551 87.5063 58.6879C88.0026 57.8094 88.6294 57.2086 89.3496 56.5018C89.4935 56.3595 89.6374 56.2171 89.7856 56.0705C90.2451 55.6162 90.7064 55.1639 91.1681 54.712C93.7356 52.1924 93.7356 52.1924 96.1509 49.5281C97.1832 48.352 98.2796 47.2373 99.3788 46.124C99.7888 45.7068 100.194 45.285 100.599 44.8632C105.188 40.2169 111.344 37.4826 117.921 37.4569ZM105.762 48.6329C105.472 49.3579 105.472 49.3579 105.176 50.0977C106.432 51.3545 107.689 52.6114 108.984 53.9063C109.359 53.6525 109.734 53.3987 110.12 53.1372C110.62 52.807 111.12 52.4774 111.621 52.1485C111.85 51.9944 112.079 51.8403 112.314 51.6816C115.391 49.7044 118.793 48.8849 122.425 48.8796C122.762 48.8774 122.762 48.8774 123.106 48.8751C123.592 48.872 124.078 48.8694 124.563 48.8675C125.336 48.864 126.109 48.8583 126.882 48.8519C129.079 48.8339 131.277 48.8181 133.474 48.8082C134.821 48.802 136.168 48.7916 137.515 48.7787C138.024 48.7746 138.533 48.772 139.042 48.7711C144.017 48.7609 149.16 48.4971 152.93 44.8243C153.026 44.5342 153.123 44.2442 153.223 43.9454C151.633 43.615 150.091 43.6091 148.476 43.6098C148.179 43.6088 147.882 43.6079 147.576 43.6068C146.594 43.6041 145.613 43.6035 144.631 43.6032C143.944 43.6022 143.258 43.6012 142.571 43.6002C141.129 43.5985 139.687 43.5979 138.245 43.5981C136.411 43.5981 134.578 43.5941 132.745 43.5891C131.324 43.5858 129.903 43.5852 128.482 43.5854C127.807 43.585 127.132 43.5838 126.457 43.5815C115.286 43.4158 115.286 43.4158 105.762 48.6329ZM99.4124 55.1789C99.1094 55.4847 98.8089 55.7931 98.5106 56.1036C98.3526 56.2648 98.1946 56.426 98.0318 56.5921C97.0349 57.6166 96.0813 58.6698 95.1564 59.7599C94.242 60.7854 93.2507 61.7348 92.2679 62.6942C91.6651 63.1801 91.6651 63.1801 91.6991 63.5743C97.3677 64.3023 97.3677 64.3023 102.726 63.143C103.878 62.0181 104.437 60.7068 104.883 59.1797C104.438 58.118 103.804 57.4636 102.978 56.6712C102.238 55.9582 101.646 55.3506 101.074 54.4922C100.132 54.3956 100.132 54.3956 99.4124 55.1789ZM77.3436 76.1353C77.1544 76.3646 77.1544 76.3646 76.9614 76.5986C74.2919 79.6027 74.2919 79.6027 72.9491 83.2032C72.7557 83.2032 72.5624 83.2032 72.3632 83.2032C72.055 83.602 72.055 83.602 71.7406 84.0088C70.2902 85.8106 67.9068 86.4042 65.7805 87.1033C65.5228 87.1899 65.265 87.2765 64.9995 87.3657C63.9081 87.7324 62.8155 88.095 61.7229 88.458C60.9204 88.7253 60.1186 88.9946 59.3169 89.264C59.0736 89.3439 58.8303 89.4239 58.5796 89.5064C55.7199 90.4233 55.7199 90.4233 53.485 92.3035C52.5465 94.2515 52.5105 96.6574 53.0455 98.7271C53.6247 99.9699 54.7541 100.766 55.9569 101.367C56.8621 101.397 57.761 101.409 58.6663 101.409C59.088 101.41 59.088 101.41 59.5182 101.412C60.1305 101.414 60.7427 101.416 61.355 101.417C62.3256 101.419 63.2962 101.423 64.2668 101.429C67.0272 101.444 69.7876 101.458 72.548 101.463C74.2355 101.466 75.923 101.474 77.6105 101.487C78.2524 101.49 78.8944 101.492 79.5363 101.491C80.438 101.49 81.3394 101.497 82.2411 101.505C82.5036 101.503 82.7661 101.501 83.0366 101.499C85.7289 101.538 88.0474 102.419 90.0122 104.284C91.8348 106.403 92.417 108.769 92.2335 111.512C92.1681 112.136 92.0822 112.758 91.9921 113.379C93.6273 113.636 94.9597 113.745 96.3763 112.799C97.1929 112.042 97.964 111.257 98.7304 110.449C99.1647 110.053 99.6036 109.662 100.049 109.277C100.227 109.12 100.405 108.963 100.589 108.801C101.074 108.398 101.074 108.398 101.953 107.813C102.041 106.958 102.075 106.163 102.072 105.307C102.077 104.933 102.077 104.933 102.082 104.552C102.092 103.753 102.096 102.954 102.099 102.155C102.104 101.106 102.114 100.057 102.127 99.0086C102.126 98.7681 102.125 98.5275 102.124 98.2797C102.142 96.9219 102.241 96.021 103.125 94.9219C104.297 94.1403 105.262 94.1266 106.641 94.336C107.373 94.8856 107.701 95.2849 108.105 96.0938C108.137 96.5182 108.152 96.944 108.157 97.3695C108.163 97.7657 108.163 97.7657 108.169 98.1698C108.171 98.456 108.173 98.7423 108.175 99.0372C108.178 99.3313 108.18 99.6255 108.182 99.9285C108.186 100.552 108.19 101.176 108.192 101.799C108.197 102.751 108.21 103.702 108.223 104.654C108.226 105.26 108.228 105.866 108.23 106.471C108.235 106.755 108.24 107.039 108.246 107.332C108.239 109.335 107.81 110.374 106.434 111.872C106.271 112.021 106.108 112.171 105.94 112.325C105.666 112.578 105.666 112.578 105.387 112.837C105.196 113.01 105.006 113.183 104.809 113.361C104.612 113.542 104.415 113.722 104.213 113.909C103.657 114.418 103.098 114.924 102.539 115.43C102.303 115.644 102.066 115.859 101.823 116.08C98.18 119.324 98.18 119.324 96.6796 119.824C96.2006 120.56 96.2006 120.56 95.756 121.485C95.626 121.741 95.626 121.741 95.4933 122.002C95.3064 122.37 95.1208 122.739 94.9364 123.108C94.4472 124.088 93.9485 125.063 93.4512 126.038C93.3516 126.234 93.252 126.43 93.1494 126.632C92.2925 128.316 91.4015 129.979 90.4906 131.635C90.3493 131.892 90.208 132.149 90.0625 132.414C89.7767 132.934 89.4908 133.453 89.2047 133.973C88.4378 135.37 87.6788 136.77 86.92 138.171C86.7635 138.46 86.6069 138.749 86.4456 139.047C85.1105 141.514 83.7866 143.988 82.4637 146.462C81.1117 148.989 79.7478 151.51 78.3713 154.024C77.5595 155.509 76.7529 156.996 75.952 158.486C75.859 158.659 75.7659 158.832 75.67 159.011C75.2147 159.858 74.7599 160.706 74.3057 161.554C74.1417 161.859 73.9776 162.165 73.8086 162.48C73.5913 162.885 73.5913 162.885 73.3696 163.299C72.9491 164.063 72.9491 164.063 72.4919 164.733C72.0026 165.655 71.9506 166.249 71.9332 167.288C71.9257 167.636 71.9182 167.984 71.9105 168.343C71.9077 168.717 71.9049 169.091 71.902 169.477C71.8976 169.868 71.8933 170.26 71.8889 170.651C71.881 171.472 71.877 172.292 71.8751 173.112C71.872 174.156 71.8539 175.2 71.8322 176.243C71.8179 177.053 71.8143 177.862 71.8136 178.671C71.8105 179.24 71.7964 179.81 71.7821 180.379C71.8023 183.063 72.5218 184.448 74.4139 186.328C74.7771 186.715 74.7771 186.715 75.1475 187.109C75.446 187.393 75.446 187.393 75.7506 187.683C76.5279 188.442 77.2773 189.202 77.9845 190.027C78.9848 191.192 80.0292 192.312 81.079 193.433C82.3312 194.769 83.5791 196.109 84.8143 197.461C86.1931 198.969 87.5851 200.465 88.9812 201.957C90.1315 203.187 91.274 204.424 92.4132 205.664C93.4603 206.804 94.5265 207.916 95.6301 209.001C96.7537 210.144 97.8674 211.326 98.656 212.723C99.2311 213.406 99.5422 213.562 100.432 213.729C101.512 213.778 102.58 213.772 103.662 213.746C104.06 213.743 104.459 213.74 104.857 213.738C105.903 213.732 106.949 213.714 107.994 213.695C109.062 213.677 110.131 213.669 111.199 213.66C113.293 213.641 115.387 213.611 117.48 213.574C117.485 213.245 117.489 212.915 117.493 212.576C117.51 211.35 117.533 210.124 117.557 208.898C117.567 208.368 117.575 207.838 117.582 207.308C117.592 206.545 117.607 205.783 117.623 205.02C117.625 204.784 117.627 204.548 117.629 204.305C117.673 202.616 118.014 201.615 119.238 200.391C120.577 200.164 121.597 200.217 122.754 200.94C123.691 201.936 123.671 202.522 123.676 203.864C123.679 204.413 123.679 204.413 123.682 204.972C123.683 205.379 123.684 205.787 123.685 206.194C123.686 206.622 123.688 207.049 123.69 207.476C123.695 208.639 123.699 209.802 123.701 210.965C123.702 211.691 123.704 212.418 123.706 213.144C123.712 215.417 123.716 217.689 123.718 219.962C123.721 222.585 123.729 225.209 123.741 227.833C123.75 229.86 123.754 231.888 123.755 233.915C123.756 235.126 123.758 236.338 123.766 237.549C123.772 238.688 123.774 239.828 123.771 240.968C123.77 241.386 123.772 241.804 123.776 242.222C123.812 246.141 123.812 246.141 122.461 247.559C121.517 248.248 120.722 248.189 119.578 248.132C115.25 247.883 115.25 247.883 111.463 249.633C111.304 249.794 111.144 249.956 110.98 250.122C110.829 250.27 110.678 250.419 110.523 250.572C109.556 251.738 109.507 252.732 109.536 254.225C109.543 254.739 109.543 254.739 109.551 255.264C109.557 255.525 109.564 255.786 109.57 256.055C111.811 256.129 114.052 256.18 116.294 256.216C117.055 256.23 117.817 256.25 118.578 256.276C122.861 256.655 122.861 256.655 126.809 255.428C127.537 254.696 128.062 253.992 128.613 253.125C129.255 252.52 129.255 252.52 129.84 252.045C130.776 251.245 131.645 250.402 132.498 249.514C133.008 249.023 133.008 249.023 133.757 248.572C134.773 247.549 134.699 246.584 134.706 245.216C134.713 244.937 134.72 244.657 134.727 244.37C134.749 243.382 134.758 242.394 134.766 241.406C134.772 240.831 134.779 240.255 134.786 239.68C134.818 236.981 134.827 234.281 134.835 231.582C134.839 230.324 134.846 229.066 134.852 227.807C134.873 223.541 134.89 219.275 134.905 215.008C134.913 212.639 134.924 210.271 134.936 207.902C134.944 206.409 134.95 204.917 134.953 203.424C134.956 202.499 134.961 201.573 134.966 200.647C134.969 200.219 134.97 199.791 134.97 199.362C134.97 198.777 134.974 198.192 134.979 197.606C134.98 197.279 134.981 196.952 134.983 196.615C135.064 195.632 135.256 194.852 135.644 193.945C136.956 193.244 138.034 193.265 139.453 193.652C140.43 194.423 140.866 194.865 141.119 196.097C141.128 196.477 141.137 196.857 141.146 197.249C141.156 197.57 141.156 197.57 141.166 197.896C141.188 198.63 141.199 199.364 141.211 200.098C141.225 200.663 141.241 201.228 141.257 201.794C141.306 203.627 141.341 205.46 141.376 207.294C141.388 207.934 141.401 208.575 141.414 209.216C141.445 210.766 141.475 212.317 141.504 213.867C142.918 213.656 143.498 213.206 144.433 212.109C144.433 211.916 144.433 211.723 144.433 211.523C144.602 211.45 144.771 211.377 144.945 211.302C145.696 210.887 146.19 210.415 146.789 209.801C147.007 209.58 147.225 209.358 147.45 209.13C147.675 208.899 147.9 208.667 148.132 208.429C148.581 207.97 149.03 207.512 149.48 207.055C149.678 206.851 149.877 206.648 150.081 206.438C150.853 205.703 151.354 205.624 152.39 205.597C152.773 205.587 152.773 205.587 153.163 205.576C153.444 205.569 153.725 205.563 154.015 205.556C154.31 205.549 154.606 205.541 154.91 205.534C157.648 205.467 160.386 205.428 163.124 205.397C164.962 205.376 166.799 205.346 168.637 205.294C170.416 205.245 172.194 205.218 173.973 205.208C174.648 205.2 175.323 205.184 175.998 205.16C179.211 205.048 181.834 204.973 184.292 207.259C185.048 208.052 185.75 208.869 186.426 209.73C186.933 210.376 187.461 210.996 188.001 211.613C188.162 211.797 188.322 211.98 188.487 212.169C189.135 212.883 189.821 213.554 190.508 214.23C191.013 214.744 191.485 215.274 191.954 215.821C193.098 217.136 194.286 218.406 195.483 219.672C195.69 219.891 195.897 220.111 196.11 220.337C196.93 221.206 196.93 221.206 197.754 222.07C197.872 222.224 197.991 222.377 198.113 222.536C198.874 223.141 199.457 223.058 200.421 223.057C200.79 223.059 201.159 223.061 201.538 223.063C201.735 223.063 201.932 223.062 202.135 223.061C202.754 223.058 203.372 223.061 203.991 223.065C205.749 223.077 207.507 223.078 209.265 223.077C210.342 223.077 211.418 223.083 212.494 223.091C213.101 223.095 213.707 223.091 214.314 223.087C216.811 223.107 218.159 223.331 220.074 224.959C220.337 225.233 220.337 225.233 220.605 225.513C220.801 225.716 220.997 225.92 221.199 226.13C221.924 226.917 222.627 227.72 223.321 228.534C223.976 229.267 224.686 229.929 225.416 230.586C226.778 232.254 226.892 233.956 226.885 236.023C226.886 236.288 226.888 236.554 226.889 236.827C226.891 237.385 226.891 237.944 226.888 238.502C226.886 239.353 226.894 240.203 226.904 241.054C226.904 241.599 226.904 242.143 226.903 242.688C226.906 242.94 226.91 243.192 226.913 243.452C226.893 245.154 226.601 246.176 225.586 247.559C224.661 248.265 223.85 248.189 222.713 248.132C217.969 247.923 217.969 247.923 213.959 250.122C213.794 250.27 213.629 250.419 213.459 250.572C212.405 251.726 212.331 252.682 212.364 254.225C212.369 254.568 212.375 254.911 212.38 255.264C212.388 255.525 212.395 255.786 212.402 256.055C214.654 256.114 216.905 256.155 219.158 256.183C219.923 256.195 220.689 256.211 221.454 256.232C222.557 256.26 223.659 256.273 224.762 256.284C225.102 256.296 225.443 256.308 225.793 256.32C227.621 256.329 227.621 256.329 229.228 255.553C229.816 254.966 230.333 254.354 230.859 253.711C231.243 253.362 231.633 253.019 232.031 252.686C233.046 251.814 233.987 250.89 234.916 249.929C235.547 249.316 235.547 249.316 236.047 248.956C237.113 248.162 237.546 247.775 237.862 246.442C237.876 246.018 237.879 245.593 237.872 245.169C237.879 244.819 237.879 244.819 237.886 244.462C237.898 243.695 237.895 242.928 237.891 242.16C237.893 241.624 237.897 241.088 237.901 240.551C237.906 239.428 237.904 238.305 237.897 237.182C237.889 235.747 237.901 234.314 237.92 232.879C237.932 231.771 237.932 230.664 237.928 229.556C237.927 229.028 237.931 228.499 237.939 227.971C238.045 225.028 238.045 225.028 237.024 222.356C236.37 221.7 235.702 221.159 234.961 220.606C234.609 220.224 234.265 219.834 233.935 219.434C233.189 218.563 232.408 217.749 231.592 216.943C230.787 216.15 230.018 215.349 229.285 214.49C228.439 213.502 227.536 212.583 226.611 211.67C225.332 210.404 224.064 209.131 222.949 207.715C222.649 207.343 222.649 207.343 222.342 206.963C221.625 205.686 221.625 204.791 221.659 203.356C221.66 203.1 221.662 202.844 221.663 202.58C221.666 202.024 221.672 201.468 221.68 200.912C221.692 200.022 221.695 199.132 221.696 198.242C221.699 195.711 221.714 193.18 221.744 190.649C221.869 181.5 221.869 181.5 220.334 172.519C220.284 172.32 220.234 172.122 220.182 171.918C219.55 169.508 218.813 168.083 216.642 166.796C216.403 166.667 216.164 166.539 215.918 166.406C215.453 166.123 214.988 165.837 214.525 165.55C214.056 165.273 213.586 164.997 213.116 164.722C211.188 163.579 209.282 162.411 207.403 161.188C207.2 161.055 206.996 160.923 206.786 160.786C206.047 160.303 205.308 159.819 204.57 159.334C204.124 159.041 203.676 158.75 203.229 158.46C202.988 158.302 202.748 158.144 202.5 157.981C201.515 157.425 200.627 157.287 199.506 157.291C199.273 157.291 199.04 157.291 198.8 157.291C198.419 157.293 198.419 157.293 198.03 157.295C197.758 157.295 197.487 157.296 197.207 157.296C196.296 157.298 195.385 157.301 194.473 157.305C193.821 157.306 193.168 157.308 192.516 157.309C191.11 157.312 189.703 157.316 188.297 157.32C186.074 157.327 183.851 157.331 181.628 157.334C178.511 157.339 175.395 157.344 172.278 157.35C172.08 157.351 171.883 157.351 171.679 157.352C168.474 157.358 165.268 157.367 162.063 157.376C158.772 157.386 155.48 157.392 152.189 157.395C150.341 157.397 148.494 157.401 146.646 157.408C144.908 157.415 143.171 157.418 141.433 157.418C140.795 157.419 140.157 157.421 139.519 157.425C138.649 157.43 137.778 157.43 136.908 157.428C136.655 157.431 136.402 157.434 136.142 157.436C134.686 157.427 133.681 157.258 132.422 156.445C131.863 155.571 131.833 155.052 131.87 154.015C132.184 152.699 132.792 152.054 133.758 151.172C133.919 151.019 134.079 150.866 134.244 150.708C135.263 149.742 136.315 148.813 137.385 147.902C138.302 147.083 139.156 146.202 140.019 145.327C140.963 144.375 141.941 143.489 142.961 142.62C143.939 141.747 144.845 140.801 145.767 139.869C146.575 139.07 147.419 138.329 148.282 137.591C148.999 136.959 149.661 136.28 150.33 135.599C150.86 135.077 151.406 134.59 151.969 134.105C153.191 133.043 154.373 131.943 155.548 130.829C155.866 130.529 155.866 130.529 156.19 130.222C157.089 129.374 157.987 128.525 158.884 127.676C159.548 127.048 160.212 126.421 160.876 125.793C161.077 125.603 161.278 125.412 161.485 125.216C161.678 125.034 161.87 124.852 162.069 124.665C162.235 124.508 162.401 124.35 162.573 124.188C163.183 123.633 163.183 123.633 163.691 123.288C164.833 122.46 165.358 121.85 165.598 120.44C165.659 119.873 165.709 119.305 165.752 118.737C165.782 118.43 165.812 118.122 165.844 117.806C165.908 117.152 165.968 116.498 166.025 115.844C166.112 114.86 166.213 113.879 166.32 112.898C166.496 111.275 166.661 109.651 166.821 108.026C166.921 107.026 167.023 106.025 167.126 105.025C167.19 104.382 167.254 103.738 167.317 103.095C167.348 102.8 167.379 102.504 167.41 102.199C167.625 99.9595 167.553 98.4295 166.365 96.4589C166.174 96.1392 165.983 95.8196 165.786 95.4903C165.578 95.1482 165.37 94.8061 165.161 94.4641C164.947 94.1085 164.733 93.7527 164.519 93.3968C163.883 92.34 163.241 91.2866 162.598 90.2344C162.422 89.9468 162.246 89.6591 162.064 89.3628C161.136 87.85 160.2 86.3424 159.26 84.8369C158.422 83.4946 157.59 82.1495 156.756 80.8045C156.604 80.5592 156.452 80.314 156.295 80.0613C156.149 79.8251 156.002 79.5888 155.851 79.3454C155.633 79.0003 155.633 79.0003 155.41 78.6482C154.98 77.9297 154.98 77.9297 154.579 77.1077C153.877 75.629 153.877 75.629 152.577 74.7553C151.825 74.679 151.137 74.6992 150.384 74.762C150.134 74.7679 149.884 74.7737 149.626 74.7797C148.285 74.8015 148.285 74.8015 147.138 75.4113C146.711 75.8648 146.711 75.8648 146.786 76.5187C147.183 77.6706 147.766 78.6617 148.389 79.7058C148.529 79.9451 148.669 80.1843 148.814 80.4308C150.194 82.7705 151.614 85.0867 153.028 87.4055C154.62 90.0153 156.18 92.6411 157.709 95.2881C157.889 95.5999 158.069 95.9117 158.255 96.2329C158.587 96.8099 158.915 97.3889 159.239 97.97C159.499 98.4299 159.766 98.8853 160.049 99.3307C161.748 102.182 160.778 106.228 160.496 109.406C160.437 110.086 160.381 110.766 160.325 111.446C159.805 117.59 159.805 117.59 158.459 118.964C158.277 119.154 158.095 119.344 157.907 119.54C157.618 119.826 157.618 119.826 157.324 120.117C157.04 120.412 157.04 120.412 156.751 120.712C155.637 121.855 154.471 122.912 153.261 123.951C152.297 124.816 151.398 125.744 150.494 126.672C149.683 127.464 148.84 128.204 147.984 128.946C146.947 129.859 145.948 130.812 144.946 131.763C143.474 133.155 141.997 134.54 140.497 135.901C139.158 137.12 137.878 138.386 136.605 139.673C135.859 140.41 135.081 141.092 134.286 141.774C132.551 143.3 130.884 144.903 129.199 146.484C128.812 146.847 128.425 147.21 128.038 147.573C127.261 148.3 126.485 149.028 125.709 149.756C124.874 150.539 124.04 151.321 123.205 152.102C122.885 152.402 122.885 152.402 122.558 152.708C122.149 153.091 121.739 153.474 121.33 153.857C121.145 154.03 120.961 154.203 120.771 154.381C120.609 154.532 120.447 154.684 120.28 154.84C120.129 154.983 119.979 155.126 119.824 155.273C119.672 155.404 119.52 155.534 119.363 155.668C118.625 156.523 118.822 157.67 118.826 158.75C118.821 159.133 118.821 159.133 118.817 159.524C118.807 160.341 118.802 161.158 118.799 161.975C118.794 163.049 118.785 164.122 118.771 165.196C118.772 165.442 118.773 165.688 118.774 165.941C118.756 167.311 118.665 168.224 117.773 169.336C116.865 169.891 116.336 169.923 115.265 169.885C114.167 169.606 113.777 169.335 113.086 168.457C112.744 167.774 112.75 167.361 112.741 166.6C112.735 166.205 112.735 166.205 112.73 165.803C112.727 165.517 112.725 165.232 112.723 164.938C112.721 164.645 112.718 164.351 112.716 164.049C112.712 163.426 112.709 162.804 112.706 162.182C112.701 161.233 112.688 160.285 112.676 159.337C112.673 158.732 112.67 158.127 112.668 157.522C112.663 157.24 112.658 156.958 112.653 156.667C112.66 154.498 113.14 153.299 114.574 151.639C114.784 151.436 114.994 151.234 115.21 151.025C115.442 150.801 115.674 150.577 115.913 150.346C116.696 149.619 117.5 148.921 118.311 148.226C119.236 147.395 120.101 146.506 120.974 145.621C121.932 144.656 122.923 143.756 123.957 142.874C124.558 142.342 125.12 141.783 125.683 141.211C126.416 140.467 127.159 139.763 127.954 139.087C128.134 138.926 128.313 138.765 128.498 138.599C129.007 138.155 129.536 137.733 130.074 137.325C131.799 135.929 132.879 134.693 133.124 132.432C133.197 131.088 133.193 129.752 133.171 128.406C133.173 127.816 133.176 127.227 133.179 126.637C133.183 125.403 133.175 124.17 133.157 122.937C133.135 121.375 133.144 119.816 133.161 118.254C133.302 109.387 133.302 109.387 130 101.325C129.077 99.8039 128.331 98.1881 127.554 96.5884C127.077 95.6092 126.588 94.6357 126.099 93.6619C125.903 93.2699 125.706 92.8779 125.51 92.4859C125.412 92.2906 125.314 92.0954 125.214 91.8942C124.808 91.0833 124.403 90.2721 123.998 89.4608C123.606 88.6765 123.214 87.8925 122.822 87.1085C122.635 86.736 122.449 86.3633 122.263 85.9906C122.007 85.4768 121.749 84.9635 121.492 84.4501C121.346 84.1588 121.2 83.8675 121.05 83.5674C120.758 82.9367 120.758 82.9367 120.41 82.6172C119.643 82.5775 118.883 82.5555 118.115 82.5451C117.641 82.5355 117.167 82.5257 116.692 82.5159C115.942 82.5021 115.192 82.4891 114.442 82.4775C113.719 82.4659 112.997 82.4508 112.274 82.4353C112.051 82.4328 111.827 82.4303 111.596 82.4278C110.496 82.4023 109.613 82.376 108.691 81.7383C107.945 80.7314 107.999 79.7313 108.105 78.5157C108.492 77.6006 108.739 77.1758 109.628 76.7222C110.589 76.421 111.392 76.3947 112.399 76.3951C112.771 76.3903 113.143 76.3856 113.526 76.3808C114.307 76.3758 115.087 76.3743 115.868 76.3762C116.24 76.3703 116.612 76.3645 116.995 76.3584C117.504 76.3571 117.504 76.3571 118.022 76.3558C119.213 76.1185 119.646 75.6276 120.41 74.7071C120.859 73.8093 120.77 73.0616 120.703 72.0704C120.206 70.9779 119.653 70.3728 118.652 69.7266C118.027 69.5643 118.027 69.5643 117.352 69.5342C117.093 69.5143 116.834 69.4944 116.567 69.474C116.285 69.4569 116.003 69.4398 115.712 69.4223C115.412 69.4017 115.112 69.3812 114.803 69.36C110.866 69.1047 106.923 68.9619 102.978 68.866C102.601 68.8563 102.224 68.8466 101.836 68.8365C88.0566 68.4654 88.0566 68.4654 77.3436 76.1353ZM160.547 75C162.166 78.0319 162.166 78.0319 164.885 79.6246C165.237 79.7772 165.588 79.9298 165.95 80.0871C166.34 80.2531 166.73 80.4189 167.12 80.5848C167.531 80.7619 167.943 80.9392 168.354 81.1168C169.753 81.7195 171.156 82.3154 172.558 82.9102C172.949 83.0759 172.949 83.0759 173.348 83.245C176.163 84.4388 178.981 85.6282 181.799 86.8147C184.515 87.9579 187.228 89.1071 189.935 90.271C193.641 91.8642 197.353 93.444 201.067 95.0198C201.567 95.2321 202.067 95.4443 202.567 95.6566C202.818 95.7629 203.068 95.8692 203.326 95.9787C204.939 96.6638 206.551 97.3515 208.163 98.041C209.252 98.5071 210.342 98.9724 211.432 99.4377C211.955 99.6612 212.478 99.8851 213 100.109C213.724 100.42 214.449 100.73 215.174 101.039C215.39 101.132 215.606 101.225 215.829 101.321C216.862 101.791 216.862 101.791 217.969 101.953C217.973 101.688 217.973 101.688 217.977 101.418C218.147 92.6207 220.175 85.928 225.879 79.1016C226.033 78.9113 226.187 78.7209 226.346 78.5248C227.243 77.4365 228.204 76.5218 229.301 75.634C229.492 75.4652 229.492 75.4652 229.687 75.293C229.687 75.1963 229.687 75.0996 229.687 75C206.871 75 184.055 75 160.547 75ZM168.75 88.1836C169.24 89.6205 170.038 90.8169 170.856 92.0838C171.174 92.5822 171.492 93.0808 171.81 93.5795C171.979 93.844 172.148 94.1085 172.322 94.381C173.247 95.837 174.156 97.3028 175.067 98.7671C176.459 100.999 177.866 103.22 179.301 105.425C180.42 107.145 181.516 108.878 182.61 110.614C183.918 112.69 185.234 114.759 186.553 116.828C187.86 118.881 189.161 120.938 190.457 122.999C190.718 123.414 190.98 123.828 191.244 124.242C191.477 124.61 191.709 124.979 191.939 125.349C192.201 125.764 192.485 126.165 192.773 126.563C192.967 126.563 193.16 126.563 193.359 126.563C193.505 126.219 193.65 125.876 193.8 125.522C197.558 116.776 203.381 110.87 211.816 106.641C211.816 106.447 211.816 106.254 211.816 106.055C205.758 103.446 199.697 100.845 193.603 98.3211C190.194 96.9088 186.801 95.463 183.412 94.0035C179.71 92.409 176.007 90.8189 172.266 89.3189C171.968 89.1994 171.671 89.08 171.365 88.9569C170.094 88.3977 170.094 88.3977 168.75 88.1836ZM173.144 107.52C172.775 109.689 172.49 111.853 172.276 114.043C172.252 114.28 172.229 114.518 172.205 114.762C172.108 115.746 172.013 116.73 171.921 117.715C171.513 122.073 171.105 125.085 167.619 128.061C166.809 128.775 166.058 129.539 165.307 130.316C164.538 131.064 163.732 131.761 162.923 132.464C161.957 133.313 161.024 134.194 160.089 135.077C159.677 135.465 159.264 135.853 158.852 136.241C158.646 136.435 158.439 136.629 158.227 136.829C157.294 137.706 156.357 138.58 155.42 139.453C153.528 141.217 151.639 142.985 149.754 144.755C148.885 145.571 148.014 146.385 147.142 147.197C146.685 147.625 146.228 148.053 145.77 148.48C145.445 148.783 145.445 148.783 145.113 149.091C144.913 149.278 144.714 149.465 144.508 149.658C144.242 149.906 144.242 149.906 143.971 150.159C143.523 150.575 143.523 150.575 143.262 151.172C147.129 151.172 150.996 151.172 154.98 151.172C155.409 150.326 155.838 149.48 156.28 148.608C157.51 146.242 158.831 144.141 160.547 142.09C160.852 141.713 160.852 141.713 161.164 141.329C165.663 136.027 172.147 132.739 179.004 131.836C180.299 131.765 181.589 131.767 182.886 131.781C183.217 131.781 183.549 131.781 183.89 131.782C185.513 131.79 187.074 131.84 188.672 132.129C187.511 129.96 186.295 127.836 185.01 125.739C184.833 125.449 184.655 125.159 184.473 124.86C182.761 122.066 181.004 119.303 179.236 116.544C178.683 115.68 178.133 114.814 177.582 113.948C177.397 113.656 177.212 113.365 177.022 113.065C176.668 112.509 176.315 111.952 175.962 111.396C175.512 110.689 175.062 109.983 174.609 109.277C174.488 109.089 174.368 108.9 174.243 108.705C173.983 108.305 173.712 107.911 173.437 107.52C173.341 107.52 173.244 107.52 173.144 107.52ZM61.5233 107.813C61.4936 109.825 61.4731 111.837 61.4589 113.849C61.4531 114.534 61.4451 115.218 61.4349 115.902C61.4207 116.887 61.414 117.871 61.4089 118.856C61.4028 119.161 61.3968 119.466 61.3905 119.78C61.39 121.558 61.5085 122.574 62.6952 123.926C63.9066 124.996 64.8557 125.29 66.4317 125.21C67.8825 124.963 68.8358 124.348 69.7081 123.138C70.1018 121.911 70.3282 120.803 70.0194 119.531C69.2005 118.831 69.2005 118.831 68.2616 118.359C67.7652 117.755 67.667 117.4 67.6986 116.623C67.8 115.698 67.9673 114.848 68.2616 113.965C69.26 113.444 70.098 113.306 71.2142 113.304C71.5026 113.302 71.791 113.3 72.0882 113.298C72.5506 113.298 72.5506 113.298 73.0223 113.299C73.6785 113.293 74.3346 113.287 74.9907 113.281C76.0226 113.274 77.0544 113.269 78.0864 113.267C79.084 113.265 80.0814 113.255 81.079 113.244C81.3872 113.245 81.6955 113.247 82.0131 113.248C83.3222 113.231 84.1465 113.218 85.295 112.553C86.0573 111.659 86.1327 111.028 86.1327 109.863C85.6673 108.816 85.3369 108.454 84.3749 107.813C83.6314 107.759 82.9206 107.739 82.1774 107.746C81.9544 107.746 81.7314 107.746 81.5016 107.746C80.7645 107.746 80.0274 107.751 79.2903 107.755C78.7792 107.756 78.2681 107.757 77.757 107.758C76.4118 107.76 75.0666 107.766 73.7214 107.772C72.3488 107.778 70.9761 107.781 69.6034 107.784C66.91 107.79 64.2167 107.8 61.5233 107.813ZM220.898 129.785C220.444 130.694 220.52 131.42 220.605 132.422C221.231 133.415 221.536 133.806 222.656 134.18C223.056 134.209 223.456 134.222 223.857 134.226C224.097 134.229 224.338 134.232 224.586 134.235C224.976 134.238 224.976 134.238 225.374 134.242C225.929 134.25 226.485 134.258 227.04 134.267C227.911 134.279 228.783 134.29 229.655 134.297C235.855 134.357 241.078 135.259 245.618 139.799C248.948 143.377 250.701 147.797 250.559 152.711C250.132 157.557 248.423 161.823 244.798 165.143C241.33 168.031 236.993 169.295 232.545 169.429C232.257 169.438 232.257 169.438 231.963 169.447C231.357 169.466 230.751 169.483 230.145 169.501C229.731 169.513 229.317 169.526 228.903 169.539C227.895 169.57 226.887 169.6 225.879 169.629C226.075 171.087 226.359 172.446 226.776 173.859C226.882 174.221 226.988 174.583 227.098 174.956C227.219 175.365 227.219 175.365 227.344 175.781C235.862 176.02 243.717 175.055 250.14 168.988C254.878 163.985 256.648 157.956 256.641 151.172C256.443 144.413 253.572 138.522 248.73 133.887C243.354 129.208 237.034 128.11 230.144 128.151C229.183 128.156 228.223 128.145 227.262 128.134C226.647 128.134 226.032 128.135 225.418 128.136C224.99 128.13 224.99 128.13 224.553 128.124C222.827 128.148 221.984 128.316 220.898 129.785ZM78.8085 200.098C78.8078 200.33 78.8071 200.563 78.8064 200.802C78.789 206.458 78.7669 212.113 78.7394 217.769C78.7262 220.504 78.7147 223.239 78.707 225.974C78.7002 228.358 78.6905 230.742 78.677 233.126C78.67 234.388 78.6645 235.65 78.6627 236.912C78.6609 238.101 78.6551 239.289 78.6461 240.477C78.6435 240.913 78.6424 241.349 78.6429 241.785C78.6434 242.381 78.638 242.977 78.6323 243.573C78.6303 244.072 78.6303 244.072 78.6282 244.582C78.4623 245.945 78.0383 246.94 76.9658 247.81C76.0194 248.209 75.3317 248.239 74.3064 248.222C73.9502 248.224 73.5941 248.225 73.2272 248.226C72.4825 248.22 71.7379 248.211 70.9933 248.196C68.6363 248.181 68.6363 248.181 66.7372 249.424C66.4571 249.773 66.1834 250.128 65.9179 250.488C65.642 250.774 65.3616 251.055 65.0756 251.331C64.8701 251.536 64.6647 251.741 64.453 251.953C64.3563 252.05 64.2596 252.147 64.16 252.246C64.1387 252.936 64.1355 253.626 64.1417 254.315C64.1444 254.693 64.147 255.071 64.1497 255.461C64.1531 255.753 64.1565 256.046 64.16 256.348C65.6126 256.355 67.0652 256.36 68.5177 256.364C69.0095 256.365 69.5012 256.367 69.9929 256.37C71.4269 256.377 72.8602 256.373 74.2941 256.355C74.7627 256.35 75.2313 256.349 75.6999 256.351C78.7085 256.441 78.7085 256.441 81.3159 255.149C81.6595 254.774 81.9957 254.392 82.3241 254.004C82.7142 253.633 83.1083 253.267 83.5063 252.904C84.0982 252.346 84.6889 251.786 85.2795 251.226C85.4738 251.043 85.6681 250.859 85.8683 250.67C86.0587 250.487 86.2491 250.304 86.4453 250.115C87.0116 249.609 87.0116 249.609 87.5722 249.247C88.9438 248.328 89.2593 247.397 89.6314 245.805C89.68 245.6 89.7285 245.394 89.7786 245.182C89.9353 244.511 90.0858 243.838 90.2343 243.164C90.2835 242.941 90.3328 242.717 90.3836 242.487C90.755 240.785 91.1086 239.08 91.4588 237.375C91.5134 237.109 91.568 236.844 91.6242 236.57C91.9116 235.173 92.1977 233.775 92.4827 232.377C92.7767 230.936 93.0755 229.497 93.3755 228.058C93.6065 226.945 93.8337 225.831 94.06 224.717C94.1686 224.186 94.2786 223.655 94.3901 223.124C94.545 222.385 94.6944 221.646 94.8427 220.906C94.8895 220.688 94.9363 220.471 94.9846 220.247C95.2269 219.002 95.249 218.209 94.6288 217.09C94.1892 216.51 94.1892 216.51 93.6595 215.981C93.4664 215.779 93.2734 215.577 93.0745 215.369C92.7653 215.052 92.7653 215.052 92.4498 214.728C92.0209 214.28 91.5921 213.832 91.1635 213.384C90.9537 213.166 90.7439 212.948 90.5278 212.723C89.7648 211.925 89.0188 211.113 88.275 210.297C87.2705 209.195 86.2603 208.1 85.2438 207.009C83.5772 205.221 81.9321 203.422 80.3569 201.552C79.9435 201.063 79.5232 200.58 79.1014 200.098C79.0048 200.098 78.9081 200.098 78.8085 200.098ZM161.426 212.109C161.566 212.248 161.706 212.387 161.85 212.529C162.497 213.17 163.142 213.811 163.788 214.453C164.008 214.671 164.228 214.889 164.455 215.113C165.677 216.329 166.841 217.57 167.964 218.876C168.77 219.788 169.638 220.634 170.508 221.484C171.754 222.703 172.935 223.95 174.074 225.27C175.219 226.574 176.431 227.818 177.628 229.075C180.772 232.393 180.772 232.393 180.751 234.037C180.565 236.574 180.228 239.051 179.773 241.553C179.712 241.911 179.65 242.269 179.587 242.638C179.525 242.984 179.464 243.33 179.4 243.686C179.345 243.994 179.29 244.303 179.233 244.62C178.891 245.944 178.527 246.941 177.446 247.814C176.525 248.201 175.916 248.216 174.921 248.161C170.613 247.899 170.613 247.899 166.834 249.626C165.407 251.092 164.736 252.285 164.703 254.388C164.79 255.314 164.79 255.314 164.941 256.055C170.212 256.328 170.212 256.328 175.488 256.348C175.711 256.349 175.933 256.35 176.163 256.351C179.462 256.505 179.462 256.505 182.355 255.231C182.711 254.829 183.058 254.419 183.398 254.004C183.974 253.408 184.566 252.828 185.156 252.246C185.458 251.941 185.76 251.637 186.063 251.332C187.239 250.156 188.45 248.98 189.834 248.051C190.497 247.503 190.74 247.086 191.094 246.308C191.214 246.051 191.333 245.795 191.456 245.531C191.582 245.252 191.709 244.972 191.839 244.684C192.808 242.587 193.8 240.512 194.861 238.461C195.066 238.061 195.271 237.662 195.477 237.262C195.781 236.671 196.086 236.08 196.397 235.492C196.687 234.941 196.972 234.386 197.256 233.831C197.423 233.512 197.589 233.193 197.761 232.864C198.123 232.069 198.123 232.069 197.866 231.403C197.424 230.809 196.964 230.272 196.45 229.738C196.25 229.528 196.05 229.317 195.843 229.1C195.634 228.883 195.424 228.666 195.209 228.442C193.828 227.001 192.473 225.549 191.167 224.04C190.652 223.455 190.111 222.905 189.551 222.363C188.592 221.419 187.707 220.434 186.83 219.414C186.181 218.682 185.487 218.004 184.79 217.319C184.253 216.772 183.752 216.205 183.252 215.625C182.278 214.495 181.242 213.445 180.176 212.402C180.055 212.25 179.934 212.098 179.81 211.942C179.085 211.351 178.579 211.414 177.651 211.414C177.314 211.413 176.977 211.411 176.629 211.409C176.265 211.412 175.9 211.414 175.525 211.417C175.151 211.417 174.777 211.417 174.392 211.417C173.601 211.417 172.81 211.42 172.019 211.425C171.005 211.432 169.992 211.432 168.978 211.43C168.011 211.429 167.044 211.432 166.077 211.435C165.53 211.435 165.53 211.435 164.972 211.435C164.466 211.439 164.466 211.439 163.95 211.443C163.504 211.445 163.504 211.445 163.049 211.447C162.233 211.472 162.233 211.472 161.426 212.109Z" fill="black"/>
<path d="M90.4192 76.9479C90.929 76.943 91.4387 76.935 91.9484 76.9238C92.685 76.9077 93.4211 76.9014 94.1578 76.8971C94.384 76.8904 94.6102 76.8838 94.8433 76.877C96.0309 76.8816 96.7589 76.9946 97.7 77.7507C98.6377 78.7223 98.722 79.2264 98.7801 80.5226C98.7084 81.4397 98.4586 81.9293 97.852 82.6168C96.6169 83.5565 95.5009 83.6327 93.9988 83.6331C93.7709 83.6353 93.543 83.6375 93.3083 83.6398C92.8279 83.643 92.3475 83.6438 91.8671 83.6425C91.1351 83.6422 90.4041 83.6544 89.6723 83.6674C89.2041 83.6689 88.7358 83.6697 88.2676 83.6697C88.0505 83.6745 87.8335 83.6793 87.6099 83.6842C85.9121 83.6618 85.2273 83.1952 84.0824 82.0309C83.5738 81.0135 83.6131 79.918 83.7895 78.8082C85.5805 76.5459 87.7761 76.9663 90.4192 76.9479Z" fill="black"/>
<path d="M83.7888 166.992C84.7116 167.534 85.3984 168.271 86.1326 169.043C86.2719 169.188 86.4112 169.332 86.5547 169.481C91.1823 174.298 91.1823 174.298 91.2778 176.111C91.092 177.391 90.9113 177.865 89.9412 178.711C88.7451 179.253 88.1386 179.364 86.865 179.022C85.6103 178.384 84.7192 177.404 83.7888 176.367C83.623 176.185 83.4572 176.003 83.2864 175.816C82.7603 175.226 82.2493 174.626 81.738 174.024C81.5235 173.783 81.309 173.543 81.088 173.296C79.462 171.406 79.462 171.406 79.1562 169.995C79.4719 168.733 79.9413 168.203 80.8591 167.285C81.8303 166.8 82.7466 166.779 83.7888 166.992Z" fill="black"/>
<path d="M166.992 184.57C168.157 185.198 168.851 185.68 169.336 186.914C169.564 189.193 168.36 191.001 167.212 192.865C167.044 193.151 166.876 193.437 166.702 193.731C165.73 195.344 164.893 196.725 163.073 197.443C161.625 197.477 160.585 196.888 159.54 195.923C158.967 194.915 158.852 194.185 159.082 193.067C159.602 191.924 160.25 190.872 160.913 189.807C161.085 189.521 161.256 189.236 161.434 188.941C164.284 184.246 164.284 184.246 166.992 184.57Z" fill="black"/>
</svg>
