<svg width="300" height="300" viewBox="0 0 300 300" fill="none" xmlns="http://www.w3.org/2000/svg">
<path d="M152.93 55.3715C154.53 56.5182 155.762 57.9842 157.031 59.4731C158.795 61.474 160.615 63.4188 162.443 65.3605C163.694 66.6905 164.92 68.0378 166.134 69.4009C166.84 70.1739 167.581 70.9062 168.328 71.6393C168.816 72.1383 169.236 72.6654 169.629 73.2426C170.556 73.0687 171.087 72.7914 171.799 72.1783C171.99 72.0168 172.18 71.8554 172.377 71.689C172.582 71.5128 172.787 71.3367 172.998 71.1552C174.882 69.564 176.812 68.0687 178.803 66.6142C180.709 65.2162 182.411 63.7673 184.037 62.0532C185.83 60.1874 187.953 59.361 190.521 59.0703C192.7 59.2918 194.321 59.9894 195.831 61.5971C197.453 63.6026 197.984 65.3796 197.754 67.9692C197.524 69.1445 197.229 70.2985 196.92 71.4552C196.647 72.4783 196.386 73.5043 196.123 74.5301C196.066 74.7509 196.01 74.9717 195.951 75.1991C195.209 78.1072 194.533 81.0308 193.854 83.9543C193.792 84.2205 193.729 84.4867 193.665 84.7609C193.016 87.544 192.378 90.3256 191.846 93.1341C191.666 94.0559 191.451 94.9651 191.226 95.8768C190.112 100.532 189.96 104.947 190.045 109.717C190.053 110.447 190.059 111.178 190.065 111.908C190.081 113.668 190.105 115.428 190.137 117.188C190.364 117.231 190.592 117.274 190.827 117.318C193.99 117.982 196.659 120.313 198.45 122.919C198.713 123.348 198.97 123.781 199.219 124.219C199.333 124.419 199.447 124.618 199.564 124.823C201.45 128.348 201.669 133.185 200.537 137C199.121 140.523 196.039 144.089 192.548 145.684C192.038 145.879 191.524 146.067 191.007 146.243C190.376 146.434 190.376 146.434 190.137 147.071C190.112 147.498 190.105 147.926 190.108 148.354C190.109 148.62 190.11 148.887 190.111 149.161C190.115 149.596 190.115 149.596 190.118 150.039C190.12 150.34 190.121 150.64 190.122 150.949C190.127 152.234 190.135 153.519 190.143 154.804C190.164 158.49 190.15 162.145 189.844 165.821C190.025 165.549 190.206 165.278 190.393 164.999C192.681 161.594 195.074 158.736 199.219 157.618C202.787 157.294 205.995 157.661 208.887 159.961C210.221 161.134 211.214 162.328 212.068 163.887C212.401 164.451 212.401 164.451 213.281 164.649C213.903 164.687 214.526 164.716 215.149 164.74C218.91 164.989 222.968 166.179 225.586 169.043C227.968 172.294 228.918 175.571 228.516 179.59C228.254 180.919 227.834 182.138 227.344 183.399C227.221 183.716 227.221 183.716 227.096 184.04C225.858 187.209 224.438 190.165 222.656 193.067C222.424 193.454 222.192 193.84 221.961 194.227C220.396 196.81 218.684 199.209 216.797 201.563C216.499 201.946 216.499 201.946 216.195 202.337C214.939 203.941 213.604 205.454 212.223 206.951C211.609 207.622 211.014 208.305 210.425 208.997C209.591 209.958 208.706 210.727 207.715 211.524C207.497 211.741 207.28 211.959 207.056 212.183C201.688 217.551 195.349 221.744 188.672 225.293C188.48 225.397 188.288 225.5 188.09 225.607C171.329 234.585 151.279 236.785 132.715 233.204C132.487 233.16 132.259 233.117 132.025 233.073C120.974 230.901 110.001 225.979 101.074 219.141C100.782 218.923 100.489 218.705 100.187 218.48C95.1707 214.716 90.4566 210.479 86.4258 205.665C86.1974 205.407 85.9689 205.149 85.7335 204.884C82.3184 201.005 79.3185 196.676 76.7579 192.188C76.6432 191.988 76.5285 191.788 76.4104 191.581C73.4693 186.393 70.3322 180.197 71.7396 174.088C72.7852 170.934 74.4902 168.206 77.4914 166.6C80.2222 165.29 82.6503 164.855 85.669 164.826C86.6351 164.795 87.1977 164.732 87.9708 164.132C88.1377 163.916 88.3046 163.7 88.4766 163.477C88.6386 163.269 88.8006 163.062 88.9676 162.848C89.1258 162.632 89.284 162.417 89.4471 162.195C91.2703 159.849 93.1809 158.42 96.0938 157.618C99.718 157.193 102.48 157.887 105.402 160.015C106.059 160.551 106.66 161.089 107.227 161.719C107.227 161.913 107.227 162.106 107.227 162.305C107.42 162.305 107.613 162.305 107.813 162.305C108.241 162.884 108.635 163.457 109.021 164.063C109.185 164.314 109.185 164.314 109.352 164.571C109.622 164.986 109.889 165.403 110.156 165.821C110.175 163.777 110.141 161.745 110.037 159.703C109.816 155.283 109.936 150.903 110.156 146.485C109.983 146.452 109.81 146.419 109.632 146.384C106.394 145.723 103.524 143.911 101.611 141.185C99.1126 137.286 98.1774 133.75 98.8759 129.114C99.4781 126.484 100.606 124.024 102.246 121.875C102.44 121.875 102.633 121.875 102.832 121.875C102.908 121.7 102.983 121.524 103.061 121.343C104.255 119.204 107.343 117.931 109.57 117.188C109.91 116.508 109.909 116.093 109.924 115.335C109.933 114.939 109.933 114.939 109.941 114.534C109.945 114.246 109.95 113.957 109.954 113.66C109.958 113.36 109.963 113.061 109.967 112.752C110.049 106.11 109.891 99.9763 108.263 93.5143C107.951 92.242 107.667 90.9632 107.378 89.6855C106.044 83.8197 104.681 77.959 103.07 72.1623C102.919 71.6181 102.768 71.0737 102.618 70.5292C102.521 70.1805 102.521 70.1805 102.422 69.8246C101.719 67.0955 101.861 64.9493 103.125 62.4028C104.364 60.6188 106.036 59.7336 108.106 59.1801C110.129 58.9232 111.879 59.3798 113.672 60.352C114.762 61.2259 115.752 62.1783 116.75 63.1552C118.949 65.2625 121.432 67.079 123.856 68.9153C125.359 70.0556 126.822 71.2308 128.262 72.4496C128.85 72.9061 129.4 73.2332 130.078 73.5356C131.298 72.386 132.396 71.1804 133.447 69.8735C134.355 68.7457 135.287 67.7048 136.327 66.6989C137.029 66 137.669 65.2526 138.316 64.5028C139.152 63.5395 140.011 62.5961 140.867 61.6498C141.412 61.0411 141.944 60.4244 142.474 59.8027C143.398 58.7496 144.356 57.7318 145.331 56.7265C145.548 56.496 145.548 56.496 145.77 56.2609C147.875 54.1232 150.335 53.9814 152.93 55.3715ZM148.462 61.2309C147.685 62.0559 146.945 62.9137 146.205 63.7715C145.242 64.8676 144.241 65.9302 143.245 66.9965C142.613 67.6034 142.613 67.6034 142.676 68.2622C142.501 68.3407 142.325 68.4193 142.145 68.5002C141.504 68.8479 141.09 69.1692 140.625 69.727C140.625 69.9204 140.625 70.1137 140.625 70.313C140.432 70.313 140.238 70.313 140.039 70.313C139.6 70.7476 139.6 70.7476 139.142 71.32C138.354 72.2488 137.539 73.1213 136.67 73.9751C135.825 74.8076 135.023 75.6543 134.253 76.5568C133.139 77.8543 132.086 79.0365 130.316 79.1753C128.257 79.0402 126.833 78.0821 125.263 76.8132C124.927 76.5487 124.592 76.2844 124.257 76.0201C123.954 75.7803 123.652 75.5405 123.34 75.2934C122.951 74.9985 122.56 74.7052 122.168 74.4145C119.966 72.77 117.793 71.087 115.636 69.3842C115.123 68.9795 114.608 68.5766 114.093 68.1741C113.423 67.6498 112.759 67.1189 112.097 66.5833C111.786 66.3371 111.475 66.091 111.163 65.8452C110.891 65.6261 110.619 65.4071 110.338 65.1814C109.599 64.6722 109.599 64.6722 108.757 64.7877C108.056 64.9748 108.056 64.9748 107.813 65.6255C107.677 67.6528 108.095 69.4325 108.582 71.3933C109.363 74.6465 110.064 77.9085 110.715 81.1902C111.059 82.8947 111.453 84.5454 111.974 86.2035C112.497 88.0169 112.866 89.8746 113.269 91.718C113.449 92.5396 113.63 93.3608 113.812 94.1819C113.89 94.5422 113.969 94.9025 114.05 95.2737C114.175 96.0614 114.175 96.0614 114.551 96.3872C115.631 96.4152 116.712 96.3433 117.792 96.2956C118.087 96.2852 118.381 96.2748 118.685 96.2641C120.62 96.1828 122.518 95.9842 124.437 95.729C126.75 95.4311 129.068 95.3115 131.397 95.197C131.872 95.1726 132.347 95.1483 132.823 95.1239C148.386 94.3407 164.165 94.2574 179.658 96.2495C180.802 96.3922 181.916 96.4465 183.069 96.4604C183.449 96.468 183.829 96.4755 184.22 96.4833C184.529 96.4516 184.838 96.4199 185.156 96.3872C185.722 95.5384 185.903 95.0299 186.132 94.0572C186.237 93.6178 186.237 93.6178 186.344 93.1697C186.417 92.8538 186.491 92.5378 186.566 92.2124C186.644 91.8844 186.721 91.5564 186.801 91.2184C187.364 88.8148 187.894 86.4045 188.408 83.99C188.864 81.8694 189.366 79.7623 189.88 77.6555C190.468 75.2476 190.997 72.8456 191.414 70.4022C191.602 69.434 191.602 69.434 191.921 68.3423C192.216 67.2816 192.205 66.6758 191.895 65.6255C191.57 65.0323 191.57 65.0323 191.016 64.7465C189.859 64.8682 189.155 65.2344 188.231 65.9241C187.87 66.1924 187.87 66.1924 187.501 66.466C187.253 66.6539 187.005 66.8418 186.749 67.0354C186.5 67.2199 186.251 67.4043 185.995 67.5944C184.313 68.8504 184.313 68.8504 182.813 70.313C182.813 70.5063 182.813 70.6997 182.813 70.8989C182.605 70.9672 182.398 71.0356 182.184 71.106C181.188 71.5571 180.505 72.1399 179.681 72.8581C178.364 73.9883 177.018 75.0206 175.581 75.9984C174.919 76.4541 174.278 76.93 173.639 77.4174C173.279 77.6862 172.919 77.9547 172.559 78.2231C172.317 78.4044 172.075 78.5857 171.826 78.7724C170.758 79.2531 169.878 79.3702 168.75 79.102C167.093 78.2683 165.809 77.0941 164.602 75.702C162.927 73.8121 161.127 72.0591 159.321 70.2964C157.768 68.7626 156.344 67.1811 154.981 65.4768C154.247 64.5623 153.481 63.6914 152.692 62.8239C152.56 62.6757 152.428 62.5275 152.292 62.3748C151.593 61.6085 150.988 60.995 150 60.645C149.084 60.5477 149.084 60.5477 148.462 61.2309ZM136.231 100.782C135.909 100.793 135.587 100.804 135.255 100.815C133.43 100.88 131.608 100.965 129.785 101.075C129.477 101.093 129.169 101.112 128.851 101.131C122.63 101.195 122.63 101.195 116.895 103.125C116.808 103.88 116.78 104.565 116.789 105.32C116.788 105.549 116.787 105.778 116.787 106.014C116.785 106.786 116.79 107.557 116.795 108.329C116.795 108.88 116.795 109.431 116.794 109.983C116.794 111.483 116.799 112.984 116.805 114.484C116.811 116.051 116.811 117.618 116.813 119.184C116.815 122.153 116.822 125.121 116.831 128.09C116.841 131.469 116.846 134.848 116.85 138.226C116.86 145.178 116.875 152.13 116.895 159.082C120.421 159.593 124.137 159.621 127.182 157.47C127.455 157.253 127.455 157.253 127.734 157.032C127.944 156.866 128.154 156.7 128.37 156.529C129.602 155.492 130.636 154.395 131.635 153.132C133.838 150.368 136.334 148.171 139.453 146.485C139.943 146.194 140.431 145.901 140.918 145.606C140.773 145.271 140.773 145.271 140.625 144.928C139.638 141.29 140.692 137.445 142.383 134.18C142.839 133.583 143.258 133.19 143.848 132.715C143.944 132.619 144.041 132.522 144.141 132.422C144.823 132.315 145.506 132.217 146.191 132.129C146.188 132.45 146.185 132.771 146.182 133.101C146.172 134.294 146.165 135.487 146.159 136.68C146.156 137.196 146.152 137.712 146.147 138.227C146.14 138.97 146.137 139.712 146.134 140.455C146.131 140.684 146.128 140.914 146.125 141.151C146.125 142.372 146.196 143.347 146.777 144.434C147.73 145.183 148.819 145.549 150 145.771C151.25 145.536 152.304 145.03 153.223 144.141C153.756 142.841 153.881 141.739 153.876 140.34C153.876 139.956 153.875 139.572 153.874 139.176C153.873 138.978 153.871 138.78 153.869 138.576C153.864 137.971 153.863 137.366 153.863 136.761C153.868 134.428 153.868 134.428 153.516 132.129C154.957 132.447 156.113 132.71 157.324 133.594C158.88 136.083 159.644 139.167 159.668 142.09C159.496 142.78 159.303 143.465 159.082 144.141C159.07 144.727 159.068 145.313 159.082 145.899C159.382 146.051 159.683 146.203 159.992 146.36C160.391 146.566 160.789 146.773 161.188 146.979C161.484 147.128 161.484 147.128 161.786 147.281C163.052 147.942 163.96 148.65 164.941 149.707C165.354 150.058 165.769 150.406 166.187 150.751C167.243 151.671 168 152.616 168.787 153.772C169.843 155.238 170.946 156.217 172.449 157.215C172.631 157.336 172.813 157.457 173.001 157.582C175.587 159.211 178.632 159.568 181.641 159.375C182.032 159.282 182.423 159.185 182.813 159.082C182.99 145.38 183.138 131.678 183.157 117.975C183.159 116.755 183.162 115.535 183.166 114.315C183.171 112.878 183.173 111.441 183.173 110.004C183.173 109.476 183.174 108.949 183.176 108.421C183.179 107.701 183.178 106.981 183.177 106.262C183.179 105.948 183.179 105.948 183.182 105.628C183.174 104.479 183.098 103.547 182.52 102.54C180.001 101.657 177.149 101.698 174.5 101.514C173.974 101.477 173.449 101.439 172.924 101.402C171.59 101.307 170.256 101.216 168.922 101.126C168.211 101.078 167.5 101.028 166.789 100.978C156.598 100.265 146.434 100.43 136.231 100.782ZM108.741 124.179C106.506 125.815 105.265 127.741 104.7 130.463C104.43 132.82 104.924 134.963 106.237 136.95C107.203 138.112 108.252 139.011 109.57 139.747C109.764 139.747 109.957 139.747 110.156 139.747C110.156 134.623 110.156 129.498 110.156 124.219C109.323 123.829 109.323 123.829 108.741 124.179ZM189.844 123.926C189.844 129.05 189.844 134.174 189.844 139.454C191.522 139.118 192.268 138.689 193.359 137.403C194.938 134.602 195.572 131.906 194.813 128.743C194.097 126.923 192.721 124.936 191.016 123.926C190.629 123.926 190.242 123.926 189.844 123.926ZM149.414 157.325C149.054 157.722 148.696 158.12 148.351 158.53C146.905 160.241 145.826 161.344 143.555 161.719C143.159 161.795 142.764 161.872 142.369 161.949C141.533 162.111 140.696 162.263 139.857 162.408C138.91 162.544 138.91 162.544 138.281 162.891C137.844 164.642 137.727 166.501 138.3 168.219C139.202 169.529 140.274 170.587 141.797 171.094C142.907 171.242 143.97 171.334 144.986 170.808C145.665 170.272 146.132 169.771 146.466 168.97C146.472 168.801 146.478 168.632 146.484 168.457C146.339 168.312 146.339 168.312 146.191 168.165C145.877 168.177 145.563 168.189 145.239 168.201C144.002 168.16 143.262 167.872 142.383 166.993C142.27 165.974 142.247 165.43 142.841 164.576C144.816 163.157 147.177 163.389 149.506 163.404C149.849 163.402 150.193 163.399 150.547 163.397C155.622 163.408 155.622 163.408 156.957 164.47C157.535 165.213 157.436 165.789 157.324 166.7C156.973 167.328 156.973 167.328 156.445 167.872C155.719 168.05 155.719 168.05 154.926 168.091C154.662 168.108 154.398 168.125 154.126 168.142C153.924 168.149 153.723 168.157 153.516 168.165C153.307 168.709 153.307 168.709 153.223 169.336C154.206 170.48 154.795 171.043 156.299 171.204C157.918 171.172 159.264 170.604 160.547 169.629C161.678 168.103 161.928 166.499 161.719 164.649C161.314 163.376 161.314 163.376 160.547 162.305C160.033 162.208 159.519 162.113 159.003 162.027C155.451 161.433 152.845 160.596 150.293 157.911C150.148 157.621 150.148 157.621 150 157.325C149.807 157.325 149.613 157.325 149.414 157.325ZM94.9219 165.235C93.8979 166.561 93.5287 167.997 93.5979 169.657C94.221 173.143 96.117 176.486 98.2625 179.252C98.792 179.966 99.2647 180.705 99.7376 181.458C105.098 189.946 113.042 197.762 122.343 201.834C123.023 202.138 123.69 202.459 124.357 202.789C127.287 204.233 130.154 205.383 133.301 206.25C133.661 206.358 134.022 206.466 134.394 206.578C137.141 207.371 139.837 207.769 142.676 208.008C142.871 208.025 143.067 208.042 143.268 208.06C144.73 208.18 146.191 208.25 147.656 208.301C148.038 208.316 148.038 208.316 148.428 208.331C161.462 208.781 175.65 205.006 186.035 196.875C186.259 196.708 186.482 196.54 186.713 196.367C188.183 195.255 189.554 194.055 190.914 192.811C191.492 192.287 192.08 191.786 192.682 191.291C194.923 189.374 196.601 186.931 198.34 184.571C198.537 184.314 198.733 184.058 198.936 183.794C201.038 181.015 202.685 177.97 204.224 174.853C204.449 174.403 204.687 173.959 204.927 173.517C206.16 171.124 206.408 168.823 205.646 166.224C204.768 165.148 203.804 164.757 202.435 164.566C201.025 164.502 200.098 164.771 198.926 165.528C198.468 166.258 198.117 166.909 197.772 167.688C197.573 168.111 197.374 168.533 197.174 168.955C197.026 169.272 197.026 169.272 196.876 169.595C196.438 170.519 195.965 171.419 195.483 172.321C195.328 172.615 195.172 172.909 195.012 173.213C194.523 174.038 193.96 174.743 193.359 175.489C193.057 176.04 193.057 176.04 192.828 176.587C190.746 180.856 186.557 184.692 182.813 187.5C182.421 187.801 182.421 187.801 182.021 188.108C180.405 189.32 178.744 190.39 176.982 191.377C176.393 191.713 175.814 192.067 175.249 192.441C164.311 199.411 149.254 200.083 136.9 197.394C131.048 196.023 124.96 193.57 120.227 189.803C119.418 189.17 118.568 188.635 117.7 188.086C116.427 187.244 115.469 186.415 114.52 185.228C113.957 184.562 113.349 183.964 112.72 183.362C110.843 181.561 109.324 179.645 107.879 177.487C107.515 176.947 107.143 176.414 106.769 175.881C105.115 173.499 103.76 171.048 102.513 168.431C102.221 167.819 101.929 167.207 101.632 166.597C101.539 166.406 101.447 166.215 101.352 166.018C100.787 165.022 100.076 164.707 99.0235 164.356C97.4053 164.25 96.2809 164.246 94.9219 165.235ZM79.9805 173.438C79.6152 174.038 79.6152 174.038 79.3213 174.701C79.2171 174.918 79.1129 175.134 79.0055 175.357C78.5411 177.05 79.3637 178.584 80.0538 180.103C80.1469 180.311 80.24 180.519 80.336 180.734C82.1322 184.72 84.1321 188.716 86.7154 192.257C87.2015 192.925 87.6735 193.599 88.1413 194.28C88.2928 194.499 88.4443 194.718 88.6004 194.944C88.8998 195.377 89.1979 195.81 89.4944 196.245C90.3726 197.505 91.3135 198.584 92.4188 199.65C92.9421 200.168 93.3693 200.719 93.7867 201.325C94.4606 202.253 95.129 202.971 96.0938 203.614C96.2872 203.614 96.4805 203.614 96.6797 203.614C96.7466 203.776 96.8134 203.938 96.8823 204.105C98.8971 207.683 103.296 210.42 106.607 212.66C107.4 213.2 108.174 213.759 108.948 214.325C110.647 215.517 112.469 216.459 114.313 217.404C114.794 217.651 115.273 217.902 115.752 218.153C118.025 219.327 120.362 220.295 122.754 221.192C123.07 221.312 123.386 221.432 123.712 221.556C129.613 223.658 135.863 224.968 142.09 225.586C142.658 225.644 142.658 225.644 143.237 225.702C146.461 225.965 149.698 225.959 152.93 225.879C153.383 225.869 153.383 225.869 153.846 225.858C161.739 225.622 170.067 224.182 177.318 220.963C178.27 220.542 179.228 220.139 180.187 219.735C184.418 217.93 188.412 215.931 192.188 213.282C192.498 213.065 192.808 212.847 193.128 212.624C193.651 212.248 194.17 211.868 194.685 211.482C195.192 211.101 195.707 210.73 196.227 210.367C197.859 209.223 199.275 208.016 200.657 206.581C201.196 206.033 201.744 205.536 202.332 205.042C207.826 200.28 211.786 194.815 215.456 188.574C215.758 188.064 216.063 187.556 216.373 187.051C219.762 181.567 219.762 181.567 220.823 175.359C220.434 174.017 219.619 173.282 218.518 172.467C217.254 171.798 215.845 171.656 214.453 171.973C213.31 172.83 213.001 173.766 212.586 175.104C212.087 176.611 211.497 177.843 210.562 179.126C209.891 180.135 209.363 181.203 208.814 182.282C207.577 184.678 206.122 186.823 204.492 188.965C204.365 189.133 204.238 189.301 204.106 189.473C203.916 189.724 203.916 189.724 203.721 189.98C203.598 190.142 203.475 190.305 203.349 190.472C203.011 190.916 202.67 191.357 202.329 191.799C201.8 192.423 201.8 192.423 201.856 193.067C201.682 193.141 201.508 193.216 201.329 193.292C200.612 193.693 200.246 194.097 199.732 194.733C198.832 195.799 197.869 196.702 196.808 197.603C196.265 198.057 196.265 198.057 195.703 198.633C194.965 199.371 194.183 200.048 193.393 200.729C193.006 201.066 192.626 201.411 192.255 201.766C190.549 203.368 188.591 204.468 186.578 205.635C185.801 206.096 185.052 206.598 184.296 207.093C181.416 208.867 178.296 210.187 175.195 211.524C174.934 211.637 174.672 211.751 174.403 211.868C160.798 217.679 144.179 217.505 130.078 213.575C129.711 213.473 129.345 213.372 128.967 213.268C121.15 210.873 113.787 206.759 107.52 201.563C107.173 201.282 106.826 201 106.478 200.72C103.054 197.92 99.9683 194.814 97.2657 191.309C97.0531 191.036 96.8404 190.763 96.6214 190.482C92.7365 185.404 88.6365 179.592 86.847 173.383C86.5507 172.432 86.5507 172.432 85.7667 171.808C83.5569 171.457 81.5206 171.655 79.9805 173.438Z" fill="black"/>
<path d="M154.301 77.4379C155.438 78.6694 155.862 80.1189 155.858 81.7615C155.689 83.6468 155.093 84.9522 153.699 86.2064C152.585 87.0962 151.689 87.5136 150.275 87.7445C148.312 87.4952 146.523 86.6639 145.044 85.3355C143.938 83.8762 143.991 82.3689 144.206 80.6045C144.689 78.659 146.001 77.2615 147.656 76.1722C149.854 75.2932 152.491 76.0151 154.301 77.4379Z" fill="black"/>
<path d="M136.596 123.797C137.845 124.905 138.59 126.123 139.178 127.679C139.145 129.342 138.631 131.069 137.548 132.358C136.157 133.551 134.929 133.68 133.173 133.655C131.643 133.529 130.544 132.999 129.546 131.854C128.333 130.155 128.076 128.932 128.319 126.855C128.634 125.69 129.05 124.823 130.05 124.116C132.251 122.97 134.306 122.696 136.596 123.797Z" fill="black"/>
<path d="M169.266 123.868C170.467 124.512 170.931 125.309 171.46 126.527C171.945 128.548 171.688 129.788 170.635 131.538C169.875 132.609 169.107 133.183 167.871 133.595C165.882 133.81 164.225 133.649 162.598 132.423C161.5 131.344 160.897 130.19 160.805 128.645C160.913 126.762 161.485 125.485 162.891 124.22C164.947 122.537 166.948 122.866 169.266 123.868Z" fill="black"/>
<path d="M175.489 113.672C176.368 114.624 176.368 114.624 176.368 115.558C175.963 116.594 175.486 117.088 174.61 117.773C173.804 117.733 173.215 117.628 172.449 117.425C169.859 116.864 167.306 116.805 164.667 116.821C164.282 116.822 163.897 116.823 163.5 116.824C161.535 116.842 159.608 116.922 157.658 117.17C157.032 117.187 157.032 117.187 156.244 116.729C155.755 115.821 155.708 115.275 155.86 114.257C156.52 113.407 157.26 113.114 158.258 112.756C158.522 112.659 158.786 112.561 159.058 112.461C163.897 111.099 171.015 111.435 175.489 113.672Z" fill="black"/>
<path d="M143.847 113.673C144.219 114.495 144.14 115.087 144.14 116.016C143.554 116.895 143.554 116.895 142.584 117.115C141.601 117.182 140.986 117.09 140.039 116.895C138.674 116.759 137.306 116.68 135.937 116.602C135.684 116.583 135.43 116.563 135.169 116.543C132.962 116.444 130.861 116.918 128.715 117.383C128.458 117.437 128.202 117.491 127.938 117.546C127.708 117.597 127.478 117.648 127.242 117.7C126.112 117.823 125.337 117.656 124.42 116.987C123.925 116.309 123.925 116.309 123.742 115.43C123.925 114.551 123.925 114.551 124.603 113.911C125.937 113.156 127.423 112.839 128.906 112.501C129.146 112.44 129.387 112.379 129.635 112.316C133.933 111.361 139.998 111.279 143.847 113.673Z" fill="black"/>
</svg>
