<svg width="300" height="300" viewBox="0 0 300 300" fill="none" xmlns="http://www.w3.org/2000/svg">
<path d="M174.317 79.6871C179.045 84.3072 182 90.7201 182.252 97.3515C182.26 98.0798 182.26 98.8075 182.255 99.5358C182.255 99.9307 182.255 99.9307 182.254 100.334C182.253 101.166 182.249 101.999 182.245 102.832C182.244 103.4 182.242 103.968 182.241 104.536C182.238 105.921 182.233 107.306 182.227 108.691C182.617 108.688 182.617 108.688 183.016 108.685C185.473 108.667 187.93 108.654 190.387 108.645C191.65 108.641 192.913 108.635 194.176 108.625C195.395 108.615 196.615 108.61 197.834 108.608C198.299 108.606 198.764 108.603 199.228 108.598C199.88 108.592 200.532 108.591 201.185 108.591C201.555 108.589 201.926 108.587 202.308 108.585C203.661 108.727 204.659 109.136 205.609 110.119C206.272 111.305 206.303 112.626 206.397 113.96C206.423 114.314 206.448 114.667 206.474 115.032C206.501 115.423 206.528 115.814 206.555 116.206C206.584 116.622 206.614 117.038 206.644 117.454C206.725 118.597 206.804 119.74 206.884 120.882C206.97 122.112 207.057 123.341 207.143 124.57C207.313 126.973 207.481 129.375 207.649 131.778C207.786 133.729 207.923 135.68 208.06 137.631C208.079 137.909 208.099 138.186 208.119 138.472C208.138 138.75 208.158 139.029 208.178 139.315C209.025 151.352 209.863 163.39 210.695 175.427C210.714 175.695 210.732 175.962 210.751 176.238C211.108 181.397 211.464 186.556 211.818 191.714C211.949 193.621 212.081 195.527 212.212 197.433C212.287 198.525 212.362 199.617 212.437 200.708C212.729 204.98 213.027 209.25 213.387 213.516C213.537 215.317 213.642 217.115 213.703 218.921C213.718 219.236 213.718 219.236 213.734 219.557C213.742 220.628 213.632 221.121 212.949 221.961C211.994 222.751 211.443 222.913 210.228 223.101C209.861 223.158 209.495 223.215 209.117 223.274C208.234 223.411 207.351 223.546 206.467 223.678C204.194 224.024 201.931 224.385 199.68 224.856C188.758 227.135 177.937 227.085 166.838 227.028C164.11 227.014 161.383 227.014 158.655 227.014C153.791 227.013 148.928 227.001 144.065 226.983C139.356 226.965 134.647 226.954 129.938 226.953C129.5 226.952 129.5 226.952 129.053 226.952C128.762 226.952 128.47 226.952 128.17 226.952C127.582 226.952 126.995 226.951 126.408 226.951C126.118 226.951 125.829 226.951 125.53 226.951C121.017 226.949 116.504 226.94 111.991 226.93C110.361 226.927 108.731 226.925 107.102 226.923C104.526 226.92 101.951 226.914 99.3752 226.903C98.2 226.898 97.025 226.894 95.8499 226.894C94.7751 226.894 93.7005 226.889 92.6258 226.882C92.0523 226.879 91.4788 226.88 90.9054 226.882C90.3953 226.877 90.3953 226.877 89.875 226.872C89.5816 226.871 89.2883 226.87 88.986 226.869C88.0415 226.738 87.4862 226.436 86.719 225.879C86.2286 224.898 86.3805 223.797 86.3853 222.719C86.3861 222.457 86.3869 222.195 86.3877 221.924C86.4103 218.99 86.5908 216.07 86.7842 213.142C86.8249 212.505 86.8654 211.868 86.9057 211.231C87.0187 209.454 87.134 207.677 87.2496 205.901C87.3623 204.165 87.4732 202.429 87.5841 200.693C87.7683 197.811 87.953 194.93 88.1386 192.049C88.6538 184.052 89.1627 176.054 89.6704 168.057C89.844 165.321 90.0178 162.586 90.1917 159.85C90.2041 159.656 90.2164 159.462 90.2292 159.261C90.367 157.094 90.5048 154.926 90.6427 152.758C90.6804 152.165 90.7181 151.572 90.7558 150.979C90.781 150.583 90.8061 150.188 90.8312 149.793C90.9698 147.615 91.1082 145.437 91.2465 143.259C91.2652 142.964 91.2652 142.964 91.2843 142.664C91.2968 142.468 91.3092 142.271 91.322 142.069C91.5646 138.25 91.8075 134.431 92.0512 130.612C92.1647 128.833 92.2781 127.054 92.3908 125.274C92.4955 123.624 92.6007 121.973 92.7064 120.323C92.7448 119.721 92.7829 119.12 92.8209 118.519C92.8727 117.699 92.9252 116.879 92.978 116.059C92.9926 115.824 93.0073 115.589 93.0224 115.347C93.0957 114.219 93.181 113.092 93.2858 111.966C93.3045 111.759 93.3232 111.552 93.3425 111.339C93.4742 110.653 93.6765 110.164 94.0432 109.57C95.5786 108.546 97.3146 108.655 99.1151 108.658C99.3183 108.658 99.5215 108.658 99.7308 108.658C100.395 108.658 101.059 108.66 101.723 108.662C102.187 108.663 102.65 108.663 103.114 108.664C104.328 108.665 105.542 108.668 106.756 108.671C107.997 108.674 109.239 108.675 110.48 108.677C112.911 108.68 115.342 108.685 117.774 108.691C117.769 108.324 117.764 107.956 117.76 107.577C117.744 106.193 117.734 104.809 117.725 103.425C117.721 102.83 117.715 102.235 117.707 101.639C117.601 93.1722 119.659 86.5387 125.574 80.2548C130.101 75.8589 135.97 73.7045 142.237 73.7545C142.52 73.7522 142.804 73.75 143.096 73.7476C144.762 73.7521 146.294 73.91 147.916 74.2935C149.416 74.5847 150.846 74.0545 152.289 73.6813C160.227 71.6797 168.411 74.0681 174.317 79.6871ZM155.567 77.3434C155.567 77.5367 155.567 77.7301 155.567 77.9293C156.047 78.3075 156.545 78.664 157.05 79.0096C162.328 82.7936 165.261 88.4959 166.562 94.7943C166.744 96.128 166.768 97.4471 166.792 98.7919C166.798 99.0755 166.804 99.3592 166.811 99.6514C166.83 100.553 166.847 101.454 166.864 102.356C166.877 102.969 166.89 103.582 166.903 104.195C166.934 105.693 166.963 107.192 166.992 108.691C170.57 108.691 174.147 108.691 177.832 108.691C177.859 106.946 177.883 105.202 177.897 103.457C177.902 102.866 177.91 102.275 177.921 101.684C177.998 97.0895 177.873 92.575 175.543 88.4762C175.442 88.2976 175.341 88.1189 175.237 87.9349C174.374 86.443 173.409 85.0766 172.266 83.7887C172.111 83.6097 171.955 83.4307 171.795 83.2462C168.31 79.4874 163.065 77.541 158.021 77.2907C157.201 77.2888 156.386 77.3022 155.567 77.3434ZM127.323 84.5097C126.01 86.0066 125.01 87.5898 124.109 89.3551C124.015 89.539 123.921 89.723 123.823 89.9125C122.517 92.6156 122.035 95.2624 122.082 98.2483C122.084 98.5494 122.085 98.8504 122.086 99.1606C122.091 100.11 122.102 101.059 122.113 102.008C122.118 102.656 122.122 103.305 122.125 103.954C122.135 105.533 122.15 107.112 122.168 108.691C123.79 108.698 125.412 108.704 127.034 108.707C127.586 108.709 128.138 108.711 128.69 108.713C129.482 108.717 130.274 108.718 131.066 108.72C131.439 108.722 131.439 108.722 131.819 108.724C132.411 108.724 133.002 108.709 133.594 108.691C134.06 108.225 133.926 107.741 133.928 107.095C133.931 106.816 133.933 106.538 133.935 106.252C133.936 105.948 133.937 105.643 133.938 105.33C133.945 104.685 133.952 104.039 133.96 103.394C133.97 102.378 133.978 101.362 133.982 100.346C134.005 95.5245 134.107 90.9495 136.469 86.6085C136.62 86.3188 136.62 86.3188 136.775 86.0232C138.334 83.1027 140.32 80.5433 142.676 78.2223C136.621 77.8955 131.539 80.197 127.323 84.5097ZM145.606 81.152C141.285 84.8405 138.773 89.6163 137.988 95.2145C137.919 96.3035 137.919 97.3863 137.931 98.4772C137.932 98.7389 137.932 99.0005 137.933 99.2702C137.936 100.232 137.944 101.193 137.952 102.154C137.964 104.311 137.976 106.469 137.988 108.691C146.11 108.691 154.231 108.691 162.598 108.691C162.616 106.534 162.634 104.377 162.653 102.154C162.661 101.48 162.669 100.806 162.677 100.111C162.68 99.5664 162.682 99.0218 162.684 98.4772C162.688 98.2027 162.693 97.9282 162.697 97.6454C162.699 93.0801 160.835 89.1795 158.203 85.5465C158.065 85.3531 157.927 85.1598 157.784 84.9606C155.68 82.2713 152.547 80.4269 149.425 79.1607C148.003 79.0188 146.679 80.3411 145.606 81.152ZM97.5588 113.086C97.2029 117.713 96.8535 122.337 96.5567 126.967C96.5192 127.548 96.4816 128.129 96.4439 128.71C96.3436 130.259 96.2439 131.808 96.1444 133.358C96.0608 134.658 95.977 135.957 95.8931 137.257C95.6955 140.321 95.4983 143.385 95.3015 146.449C95.0988 149.604 94.8953 152.759 94.6913 155.913C94.5154 158.635 94.3401 161.356 94.1651 164.078C94.0609 165.698 93.9565 167.318 93.8517 168.939C93.7535 170.457 93.6559 171.975 93.5588 173.493C93.5231 174.049 93.4872 174.605 93.4511 175.161C93.4018 175.921 93.3532 176.681 93.3049 177.44C93.2905 177.659 93.2761 177.879 93.2612 178.104C93.1809 179.384 93.1514 180.652 93.1643 181.933C93.3891 182.039 93.3891 182.039 93.6185 182.146C98.5201 184.468 103.109 187.164 107.227 190.722C107.462 190.925 107.697 191.129 107.94 191.338C114.427 197.066 120.417 204.424 123.34 212.695C123.362 213.378 123.367 214.063 123.34 214.746C122.275 215.427 121.356 215.379 120.117 215.332C120.019 214.988 120.019 214.988 119.918 214.638C119.406 213.228 118.729 211.933 118.03 210.608C117.813 210.196 117.813 210.196 117.592 209.777C115.27 205.424 112.359 201.64 108.985 198.047C108.839 197.891 108.693 197.735 108.543 197.575C104.183 192.954 98.9325 188.738 92.8713 186.621C92.6787 188.746 92.5088 190.871 92.3583 192.999C92.2946 193.825 92.2121 194.645 92.1229 195.468C92.0164 196.693 91.9921 197.724 92.2854 198.925C93.051 199.696 93.7687 200.053 94.7596 200.494C95.9301 201.036 96.8506 201.694 97.8518 202.496C98.1095 202.702 98.1095 202.702 98.3723 202.912C101.784 205.694 105.469 209.181 107.227 213.281C107.172 214.251 107.172 214.251 106.934 215.039C106.015 215.498 105.309 215.439 104.297 215.332C103.644 214.697 103.644 214.697 103.07 213.812C102.847 213.487 102.622 213.163 102.395 212.84C102.277 212.671 102.159 212.503 102.037 212.329C99.4907 208.865 96.038 205.698 92.2854 203.613C92.092 203.613 91.8986 203.613 91.6994 203.613C91.5791 205.388 91.4593 207.164 91.34 208.94C91.2995 209.541 91.2589 210.143 91.2181 210.744C91.1588 211.619 91.1001 212.494 91.0414 213.369C91.0237 213.629 91.006 213.888 90.9877 214.156C90.8053 216.891 90.6717 219.625 90.5276 222.363C121.078 222.363 151.629 222.363 183.106 222.363C183.358 215.366 183.358 215.366 183.417 208.374C183.415 207.903 183.414 207.432 183.413 206.961C183.41 205.845 183.405 204.729 183.399 203.613C181.168 204.913 179.201 206.318 177.246 208.007C176.973 208.241 176.7 208.474 176.419 208.715C174.769 210.165 173.341 211.68 171.993 213.415C171.343 214.213 170.692 214.94 169.922 215.625C168.822 215.603 168.361 215.528 167.578 214.746C167.457 211.891 170.007 209.643 171.808 207.66C173.835 205.484 175.964 203.646 178.4 201.947C178.589 201.814 178.777 201.682 178.972 201.545C180.475 200.521 182.051 199.707 183.692 198.925C183.901 194.625 184.027 190.34 183.985 186.035C170.178 189.475 158.515 201.4 151.172 212.988C150.909 213.47 150.646 213.952 150.385 214.434C149.707 215.332 149.707 215.332 148.645 215.496C147.656 215.332 147.656 215.332 146.778 215.039C146.778 209.686 152.188 204.214 155.567 200.39C155.767 200.162 155.767 200.162 155.971 199.93C162.823 192.162 172.066 185.571 181.944 182.297C183.336 181.849 183.336 181.849 184.278 180.761C184.354 180.044 184.397 179.356 184.415 178.636C184.422 178.418 184.43 178.2 184.438 177.975C184.463 177.242 184.484 176.508 184.505 175.774C184.523 175.248 184.54 174.723 184.558 174.197C184.605 172.763 184.649 171.33 184.692 169.896C184.738 168.385 184.787 166.874 184.835 165.364C184.916 162.814 184.995 160.264 185.073 157.714C185.162 154.799 185.253 151.884 185.347 148.969C185.438 146.142 185.527 143.314 185.615 140.487C185.652 139.298 185.689 138.108 185.728 136.919C185.982 128.969 186.069 121.04 186.035 113.086C179.751 113.086 173.467 113.086 166.992 113.086C166.908 117.757 166.908 117.757 166.826 122.429C166.815 123.015 166.804 123.6 166.792 124.186C166.787 124.49 166.782 124.794 166.777 125.107C166.769 125.544 166.769 125.544 166.76 125.99C166.753 126.369 166.753 126.369 166.746 126.755C166.702 127.409 166.588 127.984 166.406 128.613C165.986 128.637 165.564 128.654 165.143 128.668C164.791 128.683 164.791 128.683 164.432 128.699C163.77 128.613 163.77 128.613 162.891 127.734C162.794 122.9 162.697 118.066 162.598 113.086C149.256 113.086 135.914 113.086 122.168 113.086C122.071 117.726 121.975 122.367 121.875 127.148C121.585 127.631 121.295 128.115 120.996 128.613C119.284 128.858 119.284 128.858 118.45 128.255C117.945 127.569 117.951 127.137 117.94 126.29C117.931 125.844 117.931 125.844 117.922 125.389C117.919 124.921 117.919 124.921 117.917 124.444C117.912 124.157 117.907 123.87 117.902 123.574C117.885 122.501 117.876 121.428 117.865 120.355C117.835 117.956 117.805 115.557 117.774 113.086C111.103 113.086 104.432 113.086 97.5588 113.086ZM190.43 113.379C190.39 113.771 190.369 114.166 190.356 114.561C190.347 114.817 190.338 115.073 190.329 115.337C190.32 115.621 190.312 115.905 190.303 116.197C190.293 116.496 190.283 116.795 190.272 117.103C190.239 118.108 190.207 119.114 190.176 120.119C190.153 120.83 190.129 121.541 190.106 122.252C190.049 123.978 189.993 125.703 189.938 127.429C189.874 129.446 189.808 131.462 189.743 133.479C189.623 137.159 189.504 140.838 189.387 144.518C189.284 147.741 189.179 150.964 189.073 154.187C188.65 167.093 188.267 180.001 187.915 192.91C187.885 193.984 187.855 195.058 187.825 196.132C187.522 206.756 187.522 206.756 187.5 217.382C188.536 216.136 189.436 214.82 190.337 213.475C190.495 213.242 190.652 213.008 190.814 212.767C191.315 212.023 191.816 211.279 192.316 210.534C192.815 209.792 193.315 209.05 193.814 208.308C194.124 207.847 194.434 207.386 194.744 206.925C194.886 206.713 195.029 206.501 195.176 206.282C195.3 206.099 195.423 205.915 195.55 205.726C195.996 205.078 195.996 205.078 196.37 204.637C197.501 203.238 197.658 202.215 197.572 200.445C197.565 200.202 197.559 199.959 197.553 199.708C197.531 198.958 197.498 198.21 197.461 197.461C197.452 197.241 197.442 197.021 197.432 196.795C197.373 195.493 197.295 194.193 197.207 192.893C197.156 192.143 197.108 191.393 197.06 190.643C196.989 189.53 196.917 188.417 196.844 187.304C196.64 184.184 196.444 181.065 196.249 177.945C196.228 177.606 196.207 177.267 196.185 176.918C195.6 167.544 195.078 158.167 194.558 148.79C194.467 147.148 194.375 145.505 194.283 143.863C194.158 141.617 194.033 139.372 193.909 137.126C193.863 136.297 193.817 135.468 193.771 134.639C193.626 132.045 193.489 129.45 193.36 126.855C193.34 126.479 193.321 126.102 193.301 125.714C193.246 124.607 193.196 123.5 193.147 122.392C193.129 122.057 193.112 121.722 193.095 121.376C193.082 121.069 193.07 120.761 193.057 120.445C193.044 120.175 193.032 119.906 193.019 119.628C193.067 118.945 193.067 118.945 193.653 118.066C194.549 117.813 195.179 117.717 196.088 117.938C196.916 118.643 196.835 119.648 196.924 120.694C196.971 121.371 197.01 122.049 197.047 122.727C197.062 122.987 197.077 123.247 197.093 123.515C197.142 124.385 197.191 125.255 197.239 126.125C197.275 126.75 197.311 127.375 197.346 128C197.423 129.348 197.5 130.697 197.576 132.045C197.697 134.196 197.819 136.347 197.942 138.498C198.248 143.856 198.551 149.213 198.855 154.571C199.089 158.71 199.324 162.849 199.561 166.988C199.662 168.766 199.763 170.544 199.864 172.323C199.902 173 199.94 173.676 199.978 174.353C199.997 174.685 200.015 175.018 200.035 175.36C200.128 177.009 200.224 178.657 200.325 180.305C200.365 180.96 200.406 181.614 200.446 182.269C200.466 182.594 200.486 182.92 200.507 183.255C200.638 185.426 200.743 187.597 200.837 189.77C200.905 191.318 200.988 192.865 201.071 194.413C201.108 195.15 201.139 195.888 201.165 196.625C201.324 201.037 201.735 204.175 204.701 207.563C205.248 208.208 205.698 208.907 206.152 209.619C206.372 209.953 206.372 209.953 206.597 210.294C206.89 210.741 207.183 211.188 207.476 211.635C207.619 211.852 207.762 212.069 207.91 212.292C208.035 212.483 208.16 212.674 208.289 212.871C208.39 213.006 208.49 213.142 208.594 213.281C208.691 213.281 208.787 213.281 208.887 213.281C208.691 208.264 208.369 203.257 208.019 198.249C207.941 197.116 207.863 195.982 207.784 194.849C207.632 192.64 207.479 190.431 207.325 188.222C207.201 186.427 207.076 184.632 206.952 182.838C206.926 182.453 206.926 182.453 206.898 182.06C206.862 181.539 206.826 181.017 206.79 180.496C206.453 175.627 206.115 170.758 205.777 165.889C205.467 161.433 205.159 156.977 204.851 152.522C204.534 147.938 204.217 143.354 203.898 138.77C203.72 136.2 203.542 133.63 203.364 131.06C203.214 128.876 203.062 126.693 202.91 124.51C202.832 123.396 202.755 122.282 202.678 121.168C202.596 119.963 202.511 118.758 202.427 117.553C202.403 117.198 202.379 116.844 202.354 116.479C202.331 116.157 202.308 115.836 202.285 115.505C202.256 115.088 202.256 115.088 202.226 114.662C202.169 113.922 202.169 113.922 201.856 113.086C200.276 113.078 198.695 113.073 197.115 113.069C196.577 113.068 196.039 113.066 195.501 113.063C194.73 113.06 193.958 113.058 193.187 113.057C192.945 113.055 192.703 113.054 192.453 113.052C191.352 112.945 191.352 112.945 190.43 113.379ZM199.219 207.422C198.79 207.976 198.379 208.534 197.974 209.106C197.845 209.287 197.717 209.467 197.585 209.653C195.807 212.178 194.149 214.784 192.481 217.382C192.205 217.811 191.928 218.24 191.652 218.669C191.048 219.606 190.446 220.545 189.844 221.484C190.807 221.805 191.236 221.752 192.225 221.6C192.531 221.554 192.837 221.508 193.152 221.46C193.483 221.408 193.813 221.357 194.154 221.303C194.664 221.226 194.664 221.226 195.184 221.146C196.273 220.98 197.361 220.811 198.45 220.642C199.182 220.53 199.913 220.418 200.645 220.306C201.988 220.101 203.33 219.895 204.672 219.686C204.942 219.644 205.212 219.603 205.49 219.559C206.236 219.436 206.975 219.293 207.715 219.14C206.872 217.612 205.945 216.184 204.932 214.764C204.781 214.551 204.63 214.339 204.474 214.12C203.356 212.552 202.219 210.998 201.068 209.454C200.841 209.148 200.841 209.148 200.609 208.835C200.251 208.358 199.883 207.889 199.512 207.422C199.415 207.422 199.319 207.422 199.219 207.422Z" fill="black"/>
<path d="M104.589 171.094C105.295 171.459 105.964 171.832 106.64 172.247C106.833 172.364 107.025 172.482 107.224 172.603C109.021 173.718 110.697 174.957 112.337 176.291C112.771 176.643 113.21 176.989 113.649 177.335C118.069 180.923 122.359 185.111 125.733 189.702C126.244 190.434 126.244 190.434 126.855 191.015C127.068 190.725 127.281 190.434 127.5 190.134C131.944 184.108 136.934 178.227 142.968 173.73C143.247 173.511 143.527 173.292 143.815 173.067C146.275 171.185 146.275 171.185 147.948 171.094C148.809 171.679 148.809 171.679 149.413 172.558C149.541 173.529 149.541 173.529 149.12 174.609C148.224 175.498 147.211 176.213 146.191 176.953C144.225 178.482 142.372 180.109 140.551 181.805C140.357 181.985 140.163 182.164 139.964 182.349C138.629 183.605 137.42 184.936 136.23 186.328C135.982 186.604 135.734 186.879 135.479 187.163C133.059 189.917 131.052 192.929 129.031 195.984C128.41 196.871 128.183 197.137 127.093 197.351C125.418 197.076 124.913 196.139 123.925 194.824C123.402 194.151 122.876 193.481 122.35 192.81C122.212 192.632 122.073 192.454 121.931 192.271C120.906 190.961 119.833 189.711 118.705 188.487C118.264 188.008 117.829 187.523 117.398 187.034C116.223 185.698 115.034 184.455 113.672 183.309C113.063 182.794 112.481 182.255 111.895 181.714C109.071 179.205 105.916 177.106 102.724 175.101C101.952 174.609 101.952 174.609 101.659 174.316C101.575 173.458 101.515 172.807 101.659 171.972C102.639 170.825 103.182 170.668 104.589 171.094Z" fill="black"/>
<path d="M173.731 171.094C174.46 172.188 174.476 172.73 174.317 174.024C173.226 175.073 171.955 175.695 170.618 176.367C166.437 178.529 162.482 181.065 158.789 183.985C158.552 184.169 158.314 184.354 158.07 184.544C157.325 185.13 156.591 185.726 155.86 186.328C155.711 186.45 155.562 186.572 155.409 186.697C151.377 190.018 147.653 193.634 144.434 197.754C144.007 198.261 143.58 198.768 143.152 199.274C140.083 203.033 137.422 207.192 135.185 211.496C135.057 211.738 134.929 211.98 134.798 212.229C134.549 212.702 134.307 213.177 134.07 213.655C133.224 215.261 133.224 215.261 132.082 215.638C131.183 215.624 130.774 215.611 130.078 215.039C129.547 213.946 129.447 213.443 129.781 212.26C129.946 211.883 130.119 211.51 130.298 211.139C130.392 210.936 130.486 210.733 130.583 210.524C133.897 203.543 138.656 197.149 143.957 191.555C144.732 190.742 144.732 190.742 145.378 189.882C145.55 189.676 145.722 189.47 145.899 189.258C146.092 189.258 146.285 189.258 146.485 189.258C146.546 189.098 146.608 188.939 146.671 188.774C147.217 187.834 147.973 187.175 148.774 186.457C149.029 186.225 149.029 186.225 149.29 185.988C149.817 185.513 150.348 185.041 150.879 184.571C151.108 184.367 151.108 184.367 151.341 184.159C156.327 179.743 161.798 176.143 167.578 172.852C167.807 172.721 168.035 172.59 168.27 172.456C168.829 172.14 169.392 171.834 169.959 171.533C170.25 171.379 170.54 171.225 170.84 171.067C171.919 170.726 172.642 170.812 173.731 171.094Z" fill="black"/>
</svg>
