<svg width="300" height="300" viewBox="0 0 300 300" fill="none" xmlns="http://www.w3.org/2000/svg">
<path d="M179.004 102.832C180.798 103.582 182.135 104.877 183.532 106.209C183.856 106.518 184.181 106.825 184.508 107.13C188.455 110.838 191.494 114.528 191.898 120.14C191.89 122.002 191.488 123.83 191.152 125.656C191.113 125.913 191.074 126.17 191.034 126.434C190.995 126.658 190.956 126.882 190.916 127.113C190.963 127.794 190.963 127.794 191.588 128.312C197.504 132.249 204.623 135.057 211.816 133.887C213.805 133.393 215.358 132.617 216.926 131.3C217.383 130.957 217.383 130.957 217.969 130.957C218.047 130.788 218.124 130.619 218.204 130.444C218.567 129.761 218.991 129.219 219.47 128.613C220.689 126.925 221.356 125.072 222.014 123.111C222.767 121.027 223.942 119.621 225.948 118.618C228.046 117.764 230.581 117.696 232.727 118.414C234.428 119.176 235.69 120.255 236.466 121.981C237.222 124.291 237.484 126.788 237.778 129.192C238.398 133.909 239.639 138.391 240.915 142.965C242.238 147.721 243.385 152.423 244.043 157.324C244.09 157.648 244.09 157.648 244.137 157.979C244.394 159.948 244.379 161.915 244.373 163.898C244.374 164.238 244.375 164.579 244.376 164.93C244.374 166.711 244.314 168.442 244.068 170.207C244.035 170.991 244.324 171.551 244.677 172.239C246.086 175.763 245.571 180.041 245.27 183.728C245.249 183.997 245.229 184.266 245.208 184.543C244.895 188.024 244.09 190.422 241.406 192.773C234.45 197.681 223.365 196.913 215.267 196.93C214.659 196.933 214.05 196.935 213.441 196.938C212.138 196.943 210.835 196.947 209.532 196.951C207.452 196.957 205.372 196.965 203.292 196.974C199.232 196.99 195.172 197.004 191.112 197.018C184.937 197.039 178.761 197.061 172.586 197.086C172.062 197.088 172.062 197.088 171.527 197.09C161.923 197.128 152.323 197.2 142.721 197.414C117.4 197.958 89.3962 197.606 58.5938 182.227C56.4951 180.15 54.7795 177.919 54.7119 174.866C54.7201 173.859 54.8748 173.067 55.2063 172.119C55.6704 170.742 55.7447 169.474 55.7922 168.036C55.9526 164.187 57.2997 161.203 60.0941 158.475C60.6592 157.982 61.2358 157.506 61.8164 157.031C62.7806 156.091 62.7806 156.091 63.6818 155.093C67.2688 151.077 72.8531 150.603 77.8942 150.149C78.5432 150.09 79.1918 150.029 79.8403 149.967C81.2235 149.835 82.607 149.707 83.9905 149.579C98.2701 148.366 98.2701 148.366 111.953 144.343C112.5 144.141 112.5 144.141 113.136 144.001C113.728 143.899 113.728 143.899 113.991 143.294C114.114 142.952 114.114 142.952 114.24 142.602C114.744 141.374 115.218 140.557 116.309 139.746C117.874 139.311 118.922 139.523 120.41 140.039C120.523 139.898 120.637 139.757 120.753 139.611C120.906 139.426 121.059 139.241 121.216 139.05C121.365 138.867 121.515 138.683 121.669 138.494C122.231 137.924 122.576 137.649 123.34 137.402C124.055 137.465 124.769 137.54 125.482 137.622C127.025 137.715 128.02 137.531 129.23 136.533C129.992 135.827 130.694 135.077 131.396 134.312C132.608 133.022 133.985 132.389 135.645 131.836C136.346 131.815 137.048 131.811 137.75 131.818C138.123 131.82 138.496 131.823 138.88 131.826C139.166 131.829 139.452 131.832 139.746 131.836C139.746 131.643 139.746 131.449 139.746 131.25C139.939 131.25 140.133 131.25 140.332 131.25C140.395 131.089 140.457 130.929 140.522 130.764C141.054 129.842 141.782 129.189 142.566 128.485C142.724 128.342 142.882 128.2 143.045 128.053C146.017 125.415 148.378 124.673 152.344 124.805C152.397 124.635 152.45 124.465 152.505 124.29C152.579 124.061 152.652 123.832 152.728 123.596C152.8 123.372 152.871 123.147 152.945 122.916C153.082 122.546 153.082 122.546 153.223 122.168C153.391 121.709 153.391 121.709 153.564 121.241C154.292 120.116 154.886 120.059 156.171 119.751C158.553 119.087 159.792 117.858 161.426 116.016C161.828 115.654 162.237 115.3 162.653 114.954C163.609 114.133 164.426 113.254 165.241 112.295C166.47 110.864 167.76 109.488 169.043 108.105C169.239 107.886 169.435 107.667 169.637 107.442C171.246 105.714 173.152 104.569 175.195 103.418C175.503 103.243 175.503 103.243 175.817 103.065C176.859 102.624 177.897 102.687 179.004 102.832ZM173.84 108.105C173.586 108.341 173.331 108.577 173.069 108.821C172.804 109.068 172.539 109.315 172.266 109.57C172.007 109.803 171.747 110.035 171.481 110.274C168.709 112.766 166.097 115.417 163.477 118.066C163.67 118.163 163.863 118.26 164.062 118.359C164.681 118.149 165.29 117.913 165.894 117.664C169.858 116.028 173.749 116.461 177.663 118.064C179.066 118.859 180.095 120.036 181.198 121.197C182.787 122.82 184.677 123.948 186.621 125.098C187.832 124.06 187.929 122.818 188.086 121.289C188.156 116.379 185.413 113 182.227 109.57C181.959 109.274 181.693 108.976 181.427 108.679C181.294 108.531 181.162 108.384 181.026 108.232C180.651 107.814 180.277 107.396 179.902 106.978C179.184 106.23 178.933 106.075 177.905 105.981C176.212 106.112 175.053 106.972 173.84 108.105ZM166.992 121.289C167.379 122.397 167.857 123.151 168.622 124.036C169.562 125.211 169.952 125.933 169.922 127.441C169.729 127.731 169.535 128.021 169.336 128.32C166.804 128.807 164.449 127.293 162.385 125.938C161.628 125.417 160.881 124.886 160.143 124.338C159.414 123.865 159.414 123.865 158.649 123.943C157.747 124.28 157.01 124.73 156.207 125.262C155.921 125.45 155.636 125.638 155.341 125.831C155.125 125.976 154.91 126.12 154.688 126.269C155.051 127.239 155.461 128.092 156.024 128.961C156.998 130.473 157.206 131.494 157.031 133.301C156.67 134.168 156.439 134.592 155.64 135.077C154.524 135.046 153.762 134.582 152.93 133.887C152.254 133.043 151.614 132.188 150.998 131.299C150.326 130.55 150.326 130.55 149.281 130.671C148.343 130.929 147.561 131.217 146.704 131.671C146.461 131.798 146.218 131.924 145.967 132.054C145.442 132.349 144.934 132.674 144.434 133.008C144.632 133.98 144.999 134.767 145.459 135.644C146.377 137.396 146.548 138.665 146.484 140.625C146.388 140.818 146.291 141.012 146.191 141.211C143.741 141.211 142.054 139.538 140.262 138.018C139.083 137.038 139.083 137.038 137.604 136.761C135.694 137.376 133.918 138.259 132.129 139.16C132.253 140.336 132.565 141.305 133.026 142.383C133.856 144.411 133.856 144.411 133.594 145.605C132.937 146.283 132.472 146.477 131.527 146.498C129.665 146.253 128.782 145.321 127.626 143.904C127.257 143.407 126.906 142.897 126.562 142.383C124.868 142.544 123.487 143.029 121.93 143.701C121.707 143.795 121.483 143.889 121.253 143.986C120.088 144.478 120.088 144.478 118.945 145.019C118.947 145.258 118.948 145.496 118.95 145.741C118.956 146.813 118.96 147.884 118.964 148.956C118.966 149.331 118.969 149.706 118.971 150.092C118.972 150.448 118.973 150.804 118.974 151.171C118.975 151.501 118.977 151.83 118.979 152.17C118.945 152.93 118.945 152.93 118.652 153.223C117.535 153.33 116.808 153.326 115.796 152.82C114.54 151.354 114.27 149.519 114.093 147.638C114.03 147.067 114.03 147.067 113.965 146.484C113.404 146.12 113.404 146.12 112.871 146.347C110.842 147.322 109.528 148.564 108.728 150.696C108.078 152.978 108.194 155.193 109.277 157.324C109.827 158.081 110.413 158.793 111.016 159.509C113.559 162.639 114.328 165.628 113.965 169.629C113.616 171.071 113.116 172.18 112.152 173.309C110.709 174.047 109.464 174.198 107.877 173.839C105.532 173.069 103.811 171.981 102.649 169.756C102.293 169.024 101.951 168.287 101.61 167.549C100.814 165.918 100.105 164.842 98.4375 164.062C95.9871 163.357 93.4953 162.992 90.9668 162.711C90.2748 162.63 89.5828 162.548 88.8908 162.466C88.5355 162.425 88.1802 162.384 87.8142 162.341C81.9767 161.659 76.2205 160.912 70.4978 159.557C69.3654 159.29 68.2289 159.045 67.0898 158.807C66.7756 158.738 66.4614 158.669 66.1377 158.598C64.9607 158.449 64.2144 158.56 63.2195 159.217C60.8587 161.305 58.8797 163.753 58.5938 166.992C58.5874 167.578 58.5862 168.164 58.5938 168.75C62.1873 170.785 65.8354 172.355 69.7266 173.73C69.9645 173.815 70.2024 173.901 70.4475 173.988C71.1275 174.23 71.8089 174.467 72.4915 174.701C72.6848 174.768 72.8781 174.836 73.0773 174.905C76.9976 176.212 81.1208 176.699 85.199 177.246C85.4804 177.284 85.7618 177.322 86.0518 177.362C93.2682 178.335 100.527 179.133 107.812 179.297C108.087 179.303 108.361 179.31 108.644 179.316C118.696 179.513 128.612 178.468 138.574 177.246C138.574 175.868 138.302 175.519 137.549 174.39C137.436 174.218 137.323 174.046 137.207 173.87C136.406 172.656 135.587 171.455 134.77 170.253C134.462 169.796 134.462 169.796 134.147 169.329C133.738 168.724 133.326 168.12 132.912 167.517C130.254 163.587 128.828 160.03 129.199 155.273C129.682 153.167 131.308 151.799 133.008 150.586C133.713 150.204 134.414 149.842 135.135 149.493C135.339 149.393 135.544 149.292 135.754 149.189C136.4 148.872 137.048 148.557 137.695 148.242C138.107 148.041 138.518 147.84 138.929 147.638C140.183 147.025 141.438 146.416 142.694 145.807C143.027 145.645 143.027 145.645 143.367 145.481C144.695 144.836 146.024 144.193 147.353 143.55C147.899 143.286 148.445 143.022 148.991 142.758C151.839 141.38 154.694 140.017 157.581 138.721C157.784 138.628 157.988 138.536 158.198 138.441C161.606 136.931 165.166 135.935 168.842 137.256C170.522 138.053 171.985 139.182 173.438 140.332C173.631 140.484 173.825 140.636 174.025 140.792C175.126 141.694 176.054 142.693 176.974 143.778C177.6 144.504 178.256 145.199 178.912 145.898C184.371 151.911 188.783 158.84 190.297 166.883C190.44 167.63 190.588 168.376 190.738 169.123C190.79 169.383 190.842 169.643 190.896 169.912C190.935 170.108 190.975 170.305 191.016 170.508C191.262 170.492 191.262 170.492 191.513 170.476C193.263 170.366 195.013 170.257 196.763 170.148C197.411 170.108 198.059 170.067 198.707 170.026C207.81 169.453 216.91 169.213 226.027 169.006C227.344 168.976 228.661 168.945 229.977 168.914C230.706 168.897 231.435 168.881 232.164 168.865C236.944 169.15 236.944 169.15 241.113 168.164C242.453 161.104 240.558 154.232 238.738 147.464C238.494 146.55 238.258 145.635 238.025 144.718C237.261 141.762 236.369 138.948 235.141 136.15C235.063 135.967 234.985 135.784 234.905 135.596C234.674 135.073 234.42 134.561 234.164 134.05C233.39 131.955 233.775 129.405 233.873 127.203C234.102 124.297 234.102 124.297 232.962 121.739C232.102 120.93 231.367 120.719 230.182 120.63C228.467 120.746 227.492 121.351 226.337 122.582C225.12 123.999 224.649 125.492 224.121 127.258C223.352 129.63 222.646 131.749 220.898 133.594C220.638 133.872 220.638 133.872 220.373 134.157C216.877 137.53 211.806 138.773 207.066 138.712C199.251 138.398 192.3 134.231 186.328 129.492C186.09 129.307 185.852 129.122 185.607 128.931C184.53 128.085 183.475 127.22 182.449 126.313C177.742 122.157 173.542 119.106 166.992 121.289ZM159.869 142.017C159.527 142.134 159.184 142.252 158.831 142.373C153.204 144.343 147.748 146.718 142.346 149.231C142.164 149.316 141.982 149.4 141.794 149.487C136.974 151.477 136.974 151.477 133.301 154.98C132.267 158.083 133.564 162.004 134.875 164.886C137.077 168.976 140.264 173.076 143.555 176.367C146.655 176.316 149.752 175.829 152.82 175.413C153.317 175.346 153.813 175.28 154.31 175.214C155.629 175.038 156.948 174.86 158.267 174.682C160.455 174.388 162.644 174.096 164.832 173.804C165.652 173.694 166.472 173.584 167.293 173.474C170.555 173.038 173.819 172.61 177.084 172.192C177.46 172.144 177.836 172.096 178.223 172.046C179.94 171.827 181.658 171.609 183.376 171.392C183.97 171.316 184.564 171.241 185.159 171.165C185.56 171.115 185.56 171.115 185.969 171.064C187.122 171.015 187.122 171.015 188.086 170.508C188.813 164.157 184.093 158.233 180.377 153.538C179.733 152.742 179.078 151.956 178.418 151.172C178.155 150.858 177.893 150.544 177.631 150.23C176.952 149.421 176.269 148.616 175.582 147.815C175.22 147.392 174.858 146.967 174.497 146.543C172.21 143.917 169.405 141.239 165.778 140.851C163.644 140.789 161.871 141.314 159.869 142.017ZM103.166 150.65C99.6387 151.36 96.1021 151.738 92.5232 152.069C92.1262 152.106 92.1262 152.106 91.7212 152.143C88.9172 152.401 86.1119 152.641 83.305 152.864C82.4287 152.934 81.5525 153.005 80.6763 153.076C80.4668 153.093 80.2573 153.11 80.0415 153.128C73.9788 153.374 73.9788 153.374 68.2617 154.98C68.6164 156.044 68.9004 156.179 69.8364 156.757C70.0683 156.905 70.3002 157.053 70.5391 157.206C73.0009 158.276 75.8197 158.329 78.4664 158.496C78.8163 158.52 79.1661 158.544 79.5266 158.568C80.636 158.643 81.7456 158.717 82.8552 158.789C98.484 159.815 98.484 159.815 102.393 163.916C103.284 164.966 103.933 166.117 104.59 167.322C105.804 169.585 105.804 169.585 107.812 171.094C108.978 171.133 109.567 171.022 110.501 170.325C111.584 168.915 111.201 166.925 111.035 165.234C110.514 162.853 109.064 161.196 107.52 159.375C105.821 157.225 105.376 155.506 105.432 152.82C105.435 152.576 105.437 152.333 105.44 152.082C105.447 151.485 105.458 150.889 105.469 150.293C104.676 150.293 103.939 150.489 103.166 150.65ZM238.97 172.085C234.223 172.387 229.479 172.628 224.725 172.787C224.463 172.796 224.2 172.805 223.93 172.814C221.769 172.886 219.608 172.955 217.447 173.024C213.519 173.149 209.591 173.283 205.664 173.437C205.334 173.45 205.334 173.45 204.996 173.463C197.798 173.742 190.706 174.572 183.568 175.518C182.055 175.718 180.541 175.913 179.028 176.109C173.414 176.838 167.803 177.585 162.193 178.34C161.96 178.371 161.728 178.403 161.489 178.435C160.797 178.528 160.105 178.621 159.413 178.714C159.188 178.745 158.964 178.775 158.733 178.806C157.619 178.956 156.504 179.106 155.39 179.257C148.572 180.176 141.747 181.018 134.912 181.805C134.694 181.831 134.476 181.856 134.251 181.882C132.814 182.047 131.378 182.211 129.941 182.374C129.407 182.435 129.407 182.435 128.863 182.497C127.901 182.605 126.939 182.71 125.977 182.812C125.707 182.842 125.438 182.872 125.161 182.902C122.977 183.126 120.805 183.157 118.611 183.165C118.213 183.167 117.815 183.169 117.418 183.171C116.145 183.177 114.872 183.178 113.599 183.179C113.382 183.179 113.165 183.179 112.942 183.179C105.924 183.183 98.9724 183.008 91.9922 182.227C91.5808 182.182 91.1694 182.138 90.7579 182.093C80.3833 180.961 70.9234 178.226 61.2451 174.435C60.9098 174.304 60.5746 174.174 60.2291 174.039C59.786 173.865 59.786 173.865 59.334 173.687C58.5851 173.391 58.5851 173.391 57.7148 173.437C58.6604 176.779 61.3263 178.96 64.1602 180.762C64.4574 180.954 64.7546 181.146 65.0608 181.344C80.8235 190.951 104.18 192.186 122.179 192.628C122.864 192.645 123.55 192.664 124.235 192.684C132.35 192.9 140.473 192.766 148.589 192.664C149.858 192.648 151.126 192.634 152.395 192.619C157.79 192.557 163.183 192.471 168.577 192.351C174.204 192.227 179.83 192.152 185.458 192.115C185.822 192.113 186.186 192.11 186.561 192.108C189.913 192.086 193.265 192.065 196.618 192.048C204.797 192.005 212.97 191.908 221.146 191.628C221.486 191.617 221.827 191.605 222.178 191.594C225.632 191.478 229.075 191.315 232.518 191.021C232.792 190.997 233.065 190.974 233.347 190.95C237.934 190.564 237.934 190.564 241.644 188.086C242.279 187.016 242.323 186.011 242.324 184.784C242.325 184.479 242.325 184.173 242.326 183.858C242.324 183.367 242.324 183.367 242.322 182.867C242.321 182.365 242.321 182.365 242.32 181.852C242.304 178.554 242.17 175.265 241.992 171.973C240.975 171.973 239.984 172.019 238.97 172.085Z" fill="black"/>
<path d="M170.508 106.641C170.508 107.72 170.258 108.116 169.629 108.984C168.761 109.614 168.365 109.863 167.285 109.863C168.349 108.8 169.412 107.736 170.508 106.641Z" fill="black"/>
<path d="M179.883 103.418C180.366 103.708 180.85 103.998 181.348 104.297C180.469 104.883 180.469 104.883 179.59 104.883C179.493 104.593 179.396 104.303 179.297 104.004C179.49 104.004 179.684 104.004 179.883 104.004C179.883 103.811 179.883 103.617 179.883 103.418Z" fill="black"/>
</svg>
