<svg width="300" height="300" viewBox="0 0 300 300" fill="none" xmlns="http://www.w3.org/2000/svg">
<path d="M168.164 58.8869C168.461 58.9866 168.757 59.0863 169.063 59.189C175.059 61.4585 179.547 65.9087 182.153 71.6859C183.671 75.6409 184.474 79.8187 185.167 83.9839C185.793 87.5188 186.932 90.8872 189.843 93.1642C191.292 94.0051 192.813 94.703 194.326 95.4187C195.846 96.145 197.113 96.9894 198.339 98.1447C198.563 98.3456 198.787 98.5465 199.017 98.7535C202.266 101.81 204.004 105.684 204.199 110.156C204.222 110.487 204.222 110.487 204.245 110.825C204.4 114.822 203.166 119.064 200.549 122.134C199.441 123.057 198.853 122.872 197.461 122.754C197.033 121.303 197.268 120.563 197.946 119.29C198.058 119.092 198.17 118.893 198.285 118.689C200.324 114.994 200.971 110.665 200.065 106.51C199.363 104.496 197.855 102.777 196.289 101.367C196.087 101.175 196.087 101.175 195.881 100.979C194.193 99.4362 192.241 98.4919 190.215 97.4637C186.339 95.432 183.897 92.7621 182.457 88.6301C181.865 86.4175 181.5 84.17 181.114 81.9138C180.235 76.806 179.102 72.7945 176.074 68.5548C175.923 68.3433 175.772 68.1319 175.616 67.914C173.901 65.7314 171.517 64.4454 169.024 63.3363C168.834 63.2514 168.644 63.1664 168.449 63.0788C165.92 62.0025 163.538 61.7209 160.803 61.7433C160.385 61.7399 160.385 61.7399 159.959 61.7364C158.38 61.7408 157.059 61.8814 155.566 62.4025C155.575 63.1103 155.575 63.1103 155.859 63.8673C157.039 64.5655 158.168 64.9244 159.503 65.2086C159.86 65.2877 160.217 65.3668 160.585 65.4483C160.959 65.5308 161.333 65.6133 161.718 65.6984C167.353 66.9912 171.486 68.8341 174.633 73.8507C175.765 75.7052 176.146 76.6543 176.074 78.8087C175.494 79.0988 175.494 79.0988 174.902 79.3947C173.803 78.4618 173.188 77.517 172.503 76.2453C170.603 72.9079 167.875 71.0447 164.214 70.03C162.4 69.5834 162.4 69.5834 160.547 69.4337C162.197 71.0745 164 72.3572 165.93 73.6452C171.044 77.0876 173.6 80.4996 175.68 86.3092C177.936 92.6066 180.921 96.7658 186.309 100.763C190.662 104.001 193.847 107.146 195.044 112.628C195.406 117.797 194.522 122.608 191.198 126.727C189.005 128.994 186.431 129.548 183.398 130.078C183.398 131.088 183.606 131.413 184.118 132.268C184.273 132.528 184.428 132.789 184.588 133.058C184.757 133.338 184.927 133.617 185.101 133.905C185.361 134.339 185.361 134.339 185.627 134.782C185.983 135.374 186.34 135.967 186.698 136.559C187.148 137.305 187.592 138.054 188.033 138.806C189.99 142.112 192.197 145.192 194.531 148.242C194.746 148.53 194.961 148.817 195.182 149.113C196.837 151.242 198.766 153.094 200.709 154.959C203.452 157.631 205.642 160.339 205.774 164.282C205.738 165.509 205.616 166.331 204.785 167.285C202.832 168.587 199.565 167.987 197.319 167.556C196.484 167.381 195.653 167.192 194.824 166.992C194.895 167.15 194.965 167.307 195.038 167.469C202.686 184.596 205.495 203.727 198.85 221.556C197.426 225.224 195.538 228.377 193.066 231.445C192.852 231.716 192.637 231.987 192.416 232.266C189.948 235.338 187.423 238.138 184.277 240.527C184.049 240.705 183.822 240.882 183.587 241.064C182.159 242.124 180.658 242.981 179.077 243.787C178.81 243.924 178.81 243.924 178.538 244.064C175.182 245.72 171.537 246.737 167.944 247.742C167.74 247.799 167.535 247.857 167.325 247.916C153.918 251.666 138.22 251.451 125.655 244.85C117.199 239.74 111.797 229.884 108.984 220.606C108.984 220.412 108.984 220.219 108.984 220.02C108.646 219.923 108.307 219.826 107.959 219.727C104.48 218.558 101.296 216.738 98.4371 214.453C98.2559 214.32 98.0746 214.187 97.8878 214.049C93.1563 210.38 90.1928 203.848 89.3551 198.047C89.1152 193.37 89.3328 188.624 89.542 183.948C89.5638 183.448 89.5839 182.948 89.6021 182.448C89.6285 181.744 89.6624 181.041 89.6984 180.337C89.7052 180.126 89.712 179.915 89.719 179.698C89.7756 178.75 89.8275 178.243 90.4979 177.546C91.1129 177.246 91.1129 177.246 91.8202 177.262C93.0543 177.713 93.9463 178.576 94.9467 179.409C95.787 179.99 95.787 179.99 96.7984 179.723C98.0003 179.571 98.4407 179.81 99.4008 180.516C99.5783 180.658 99.7558 180.799 99.9386 180.945C100.127 181.09 100.316 181.235 100.51 181.385C103.539 183.771 106.245 186.259 107.812 189.844C107.918 190.06 108.024 190.277 108.134 190.5C110.309 195.289 110.558 201.082 111.181 206.232C112.168 214.378 113.309 222.235 116.894 229.688C117.036 229.983 117.177 230.279 117.323 230.584C120.445 236.68 126.565 241.989 133.099 244.135C137.216 245.272 141.486 245.837 145.753 245.86C146.008 245.862 146.264 245.865 146.528 245.867C147.349 245.872 148.171 245.874 148.993 245.874C149.274 245.874 149.555 245.875 149.845 245.875C161.435 245.862 175.058 243.993 184.028 235.855C184.36 235.52 184.689 235.18 185.011 234.834C185.46 234.364 185.932 233.959 186.438 233.551C187.216 232.99 187.216 232.99 187.5 232.324C187.693 232.324 187.886 232.324 188.086 232.324C188.16 232.157 188.235 231.991 188.312 231.819C188.712 231.078 189.186 230.51 189.734 229.871C191.18 228.084 192.296 226.15 193.359 224.121C193.531 223.794 193.703 223.466 193.88 223.129C201.215 208.275 199.644 191.38 194.668 175.991C192.987 171.079 190.475 166.904 187.207 162.891C187.059 162.709 186.911 162.527 186.758 162.34C179.853 153.947 173.33 148.367 162.304 147.07C161.294 143.849 160.238 140.335 161.663 137.073C162.579 135.475 163.863 134.168 165.138 132.852C165.821 132.198 165.821 132.198 166.113 131.543C166.306 131.543 166.5 131.543 166.699 131.543C166.699 131.35 166.699 131.156 166.699 130.957C167.376 130.86 168.052 130.764 168.75 130.664C168.871 130.832 168.993 131 169.118 131.173C169.639 131.892 170.162 132.609 170.685 133.326C170.973 133.722 171.262 134.119 171.55 134.515C173.321 136.947 175.098 139.367 176.989 141.705C179.61 144.954 182.058 148.225 184.259 151.776C188.024 157.812 192.133 161.962 199.218 163.77C199.747 163.846 200.279 163.909 200.811 163.953C201.192 163.986 201.192 163.986 201.579 164.019C201.767 164.034 201.955 164.048 202.148 164.063C201.452 161.184 199.714 159.53 197.637 157.54C194.672 154.68 192.229 151.596 189.843 148.242C189.7 148.044 189.557 147.846 189.409 147.642C187.367 144.817 185.569 141.859 183.805 138.854C182.346 136.379 180.866 133.927 178.857 131.854C177.516 130.396 176.505 128.844 175.488 127.149C172.907 122.555 172.907 122.555 168.75 119.531C164.633 118.735 160.854 119.708 157.324 121.875C155.318 123.279 153.731 124.822 152.3 126.808C151.7 127.509 151.103 127.889 150.293 128.32C149.268 127.808 148.571 127.19 147.802 126.361C145.254 123.76 141.919 122.303 138.574 120.996C138.395 120.923 138.216 120.85 138.032 120.775C135.139 119.536 135.139 119.536 132.129 119.824C125.868 123.075 121.884 129.821 118.033 135.46C115.353 139.373 112.405 143.047 109.176 146.519C108.264 147.509 107.384 148.523 106.511 149.547C106.054 150 106.054 150 105.468 150C105.393 150.172 105.318 150.344 105.241 150.521C104.85 151.232 104.43 151.663 103.839 152.216C102.925 153.105 102.107 154.021 101.312 155.017C100.077 156.564 98.7466 157.999 97.3652 159.416C96.4945 160.328 95.8759 161.067 95.5075 162.305C100.404 162.166 104.83 161.361 108.545 157.892C109.926 156.418 111.136 154.785 112.368 153.186C114.948 149.845 117.579 146.55 120.337 143.353C122.731 140.575 125.04 137.727 127.3 134.839C127.7 134.328 128.103 133.818 128.505 133.308C128.92 132.778 129.33 132.244 129.728 131.701C130.39 130.832 130.759 130.408 131.854 130.206C134.008 131.352 134.776 135.02 135.571 137.201C135.688 137.505 135.804 137.809 135.925 138.123C136.938 140.896 137.633 143.856 136.596 146.723C136.487 147.038 136.378 147.352 136.266 147.677C135.998 148.375 135.723 149.069 135.443 149.762C133.495 154.897 134.599 162.687 136.759 167.52C138.769 171.745 141.599 175.337 144.642 178.857C145.427 179.772 146.184 180.71 146.944 181.645C147.471 182.292 148 182.935 148.533 183.577C156.675 193.428 164.021 203.96 163.253 217.293C162.848 221.22 160.852 225.355 158.203 228.223C157.579 228.726 156.925 229.156 156.244 229.578C156.063 229.691 155.882 229.805 155.696 229.922C154.245 230.812 152.795 231.511 151.172 232.031C150.94 232.111 150.709 232.192 150.471 232.274C143.651 234.408 133.713 234.537 127.225 231.344C119.824 227.132 116.305 218.616 114.121 210.789C111.811 202.168 111.167 194.317 115.722 186.328C116.611 184.895 117.612 183.553 118.652 182.227C118.834 181.992 118.834 181.992 119.02 181.752C121.432 178.661 121.432 178.661 122.461 178.125C124.814 178.168 126.105 179.5 127.734 181.055C131.297 184.891 132.686 189.93 132.534 195.088C131.943 202.773 127.954 211.085 122.168 216.211C121.785 216.515 121.4 216.815 120.996 217.09C121.49 220.755 124.819 224.863 127.661 227.033C132.61 230.252 140.99 230.216 146.691 229.049C147.617 228.819 148.514 228.538 149.414 228.223C149.738 228.11 150.063 227.997 150.398 227.881C153.276 226.775 156.032 225.315 157.413 222.449C159.784 216.761 160.144 210.602 157.873 204.804C155.147 198.767 151.212 193.226 147.07 188.086C146.852 187.813 146.852 187.813 146.629 187.535C145.115 185.648 143.589 183.772 142.011 181.938C134.62 173.338 130.386 164.499 130.957 152.93C131.174 150.825 131.824 148.853 132.476 146.851C133.46 143.684 132.904 141.438 131.863 138.382C131.543 137.402 131.543 137.402 131.543 136.817C130.099 137.22 129.445 138.07 128.595 139.234C128.311 139.608 128.026 139.982 127.741 140.355C127.595 140.546 127.449 140.738 127.299 140.935C126.599 141.832 125.86 142.694 125.116 143.555C124.897 143.809 124.897 143.809 124.673 144.067C124.229 144.581 123.785 145.093 123.339 145.606C120.511 148.865 117.764 152.177 115.155 155.615C111.411 160.543 107.645 164.539 101.367 165.82C100.228 165.939 99.1054 165.957 97.9611 165.949C97.6763 165.954 97.3916 165.96 97.0982 165.966C95.2407 165.965 93.5435 165.748 91.9918 164.649C91.4256 163.76 91.2914 163.097 91.4871 162.044C92.2909 159.698 94.0473 157.792 95.71 156.012C96.3901 155.269 97.0209 154.503 97.6498 153.717C98.9413 152.12 100.322 150.622 101.723 149.122C102.371 148.427 103 147.719 103.619 146.997C104.585 145.876 105.632 144.845 106.693 143.813C107.245 143.298 107.245 143.298 107.519 142.676C107.713 142.676 107.906 142.676 108.105 142.676C108.176 142.51 108.247 142.344 108.32 142.174C108.763 141.374 109.3 140.824 109.936 140.167C111.313 138.678 112.541 137.112 113.745 135.48C113.999 135.138 113.999 135.138 114.258 134.789C114.757 134.104 115.243 133.413 115.722 132.715C115.895 132.467 116.069 132.218 116.247 131.962C117.234 130.468 117.234 130.468 117.489 128.731C117.39 128.402 117.29 128.073 117.187 127.735C117.133 127.541 117.079 127.347 117.023 127.148C116.785 126.303 116.52 125.467 116.254 124.63C114.389 118.553 115.953 113.651 118.645 108.161C119.078 107.276 119.478 106.392 119.824 105.469C116.521 106.557 115 107.638 113.379 110.742C111.288 115.204 111.021 119.781 112.5 124.512C112.814 125.285 113.138 126.042 113.503 126.792C113.729 127.663 113.478 128.118 113.086 128.906C111.861 128.858 111.208 128.762 110.266 127.954C107.694 124.441 107.098 119.643 107.519 115.43C108.06 112.254 109.459 109.535 111.328 106.934C111.502 106.69 111.676 106.446 111.855 106.194C113.456 104.186 115.557 103.144 117.773 101.953C120.245 100.548 120.245 100.548 121.582 98.1447C121.738 96.5209 121.627 94.9263 121.435 93.3107C120.751 86.9581 121.496 80.6619 125.539 75.4819C129.266 71.0448 134.908 68.2469 140.46 66.8336C141.29 66.7931 141.693 66.932 142.382 67.383C142.382 68.0238 142.382 68.0238 142.089 68.8478C140.18 70.3831 137.728 71.3657 135.546 72.4441C132.905 73.7874 130.605 75.4466 128.631 77.6735C128.319 78.019 128.319 78.019 128.001 78.3716C127.396 79.1602 126.978 79.9594 126.562 80.8595C126.91 80.6998 127.259 80.54 127.617 80.3754C130.588 79.0217 133.57 77.7243 136.614 76.5446C139.013 75.5924 141.226 74.3738 143.225 72.7296C143.831 72.2328 144.342 71.8185 145.058 71.4983C145.763 71.1031 145.858 70.7497 146.191 70.0197C146.608 69.4549 147.03 68.8939 147.454 68.3351C149.105 66.1083 150.374 63.688 151.646 61.2309C151.8 60.9362 151.955 60.6416 152.113 60.338C152.25 60.0726 152.386 59.8072 152.526 59.5337C152.929 58.8869 152.929 58.8869 153.808 58.3009C158.204 57.3576 163.893 57.4516 168.164 58.8869ZM152.636 67.9689C152.343 68.3201 152.343 68.3201 152.045 68.6784C151.175 69.7175 150.296 70.7488 149.414 71.7775C149.278 71.9369 149.142 72.0962 149.001 72.2604C144.77 77.18 140.111 79.194 134.143 81.3539C130.632 82.6298 127.47 84.1645 125.335 87.3964C123.848 94.1469 126.52 106.434 130.151 112.207C132.459 115.053 136.199 116.234 139.516 117.463C144.893 119.459 144.893 119.459 147.07 120.996C147.341 121.182 147.613 121.369 147.893 121.56C148.6 122.05 149.302 122.545 150 123.047C151.285 122.503 152.031 121.596 152.958 120.581C155.223 118.566 157.921 117.301 160.656 116.052C164.867 114.078 169.616 111.838 171.386 107.227C173.373 100.288 173.869 90.0257 170.903 83.2914C169.074 80.1768 165.973 77.8521 162.982 75.934C159.874 73.8971 156.911 71.8214 154.366 69.0858C153.814 68.5608 153.332 68.2664 152.636 67.9689ZM175.781 98.4376C175.681 99.4629 175.584 100.488 175.488 101.514C175.46 101.802 175.432 102.089 175.403 102.386C175.076 105.785 175.076 105.785 175.726 109.113C175.832 109.442 175.938 109.772 176.048 110.112C176.233 110.649 176.427 111.184 176.64 111.712C177.779 114.595 177.541 117.604 176.367 120.41C176.407 122.147 177.309 123.267 178.289 124.622C178.518 124.945 178.518 124.945 178.751 125.275C179.126 125.804 179.503 126.331 179.882 126.856C180.713 126.788 181.543 126.714 182.373 126.636C182.605 126.618 182.836 126.6 183.075 126.581C185.844 126.309 187.555 125.278 189.328 123.153C191.589 120.114 191.887 116.763 191.601 113.086C190.714 108.782 187.443 106.131 184.021 103.729C183.769 103.553 183.769 103.553 183.513 103.372C182.656 102.736 182.656 102.736 181.64 102.539C182.19 104.591 182.926 106.446 183.874 108.344C185.358 111.329 185.979 113.977 185.101 117.298C184.678 118.539 184.206 119.349 183.105 120.117C182.135 120.209 182.135 120.209 181.347 120.117C180.989 118.876 181.143 118.208 181.622 117.023C182.392 114.801 182.725 112.895 181.847 110.653C181.413 109.776 180.96 108.921 180.481 108.068C179.954 107.122 179.458 106.16 178.967 105.194C178.869 105.001 178.771 104.808 178.669 104.61C177.683 102.621 177.002 100.563 176.367 98.4376C176.173 98.4376 175.98 98.4376 175.781 98.4376ZM123.632 104.59C123.533 104.871 123.433 105.151 123.33 105.44C122.441 107.899 121.45 110.272 120.301 112.621C118.558 116.205 118.843 120.413 120.068 124.139C120.362 124.903 120.362 124.903 121.289 125.098C123.337 123.068 123.337 123.068 124.228 120.487C123.974 119.752 123.665 119.065 123.339 118.36C122.781 116.082 123.198 114.294 124.218 112.207C124.448 111.917 124.678 111.627 124.914 111.328C125.675 109.924 125.216 108.713 124.804 107.227C124.537 106.338 124.248 105.461 123.925 104.59C123.829 104.59 123.732 104.59 123.632 104.59ZM170.929 112.94C170.658 113.17 170.658 113.17 170.382 113.405C169.935 113.787 169.489 114.169 169.043 114.551C169.479 115.424 170.18 115.439 171.054 115.743C171.699 116.024 172.127 116.338 172.65 116.803C173.375 117.576 173.375 117.576 174.316 117.481C174.693 115.37 174.563 113.83 173.565 111.914C173.426 111.721 173.287 111.527 173.144 111.328C172.408 111.328 171.5 112.45 170.929 112.94ZM126.855 113.379C125.991 114.728 125.914 115.639 126.088 117.173C126.3 117.876 126.595 118.182 127.148 118.652C127.825 118.266 128.502 117.879 129.199 117.481C128.682 116.024 127.912 114.717 127.148 113.379C127.051 113.379 126.955 113.379 126.855 113.379ZM165.82 136.817C164.747 138.541 164.491 140.102 164.923 142.072C165.023 142.469 165.126 142.866 165.234 143.262C165.507 143.329 165.78 143.397 166.061 143.467C169.678 144.392 173.06 145.609 176.367 147.363C175.965 146.52 175.51 145.755 174.983 144.983C174.748 144.639 174.748 144.639 174.509 144.287C174.259 143.925 174.259 143.925 174.005 143.555C173.834 143.307 173.664 143.058 173.488 142.803C170.94 139.007 170.94 139.007 167.871 135.645C166.918 135.645 166.502 136.185 165.82 136.817ZM96.9723 184.57C97.0047 184.782 97.0372 184.994 97.0706 185.213C97.222 186.207 97.372 187.201 97.5216 188.196C97.576 188.557 97.6304 188.917 97.6864 189.289C97.9871 191.315 98.2443 193.335 98.4371 195.374C98.9965 200.834 101.467 204.762 105.597 208.338C106.271 208.945 106.271 208.945 106.933 208.887C106.794 207.462 106.085 206.535 105.249 205.426C104.98 205.058 104.712 204.69 104.444 204.322C104.2 203.988 103.955 203.654 103.711 203.32C101.395 200.133 100.695 196.685 100.243 192.855C99.6923 188.394 99.6923 188.394 97.5582 184.57C97.3649 184.57 97.1715 184.57 96.9723 184.57ZM93.1637 185.449C92.301 194.177 92.1595 201.663 97.8512 208.887C100.367 211.897 103.8 214.107 107.519 215.332C107.883 215.025 107.883 215.025 107.929 214.348C107.896 213.515 107.896 213.515 107.146 213.075C106.696 212.851 106.696 212.851 106.237 212.622C104.349 211.599 102.901 210.376 101.367 208.887C101.184 208.725 101.001 208.564 100.812 208.397C96.6179 204.572 95.681 199.427 95.0497 194.074C94.5357 189.707 94.5357 189.707 93.4567 185.449C93.36 185.449 93.2633 185.449 93.1637 185.449ZM121.582 185.449C121.57 185.716 121.558 185.983 121.546 186.258C121.234 193.095 120.572 198.85 117.677 205.132C117.429 205.707 117.429 205.707 117.48 206.543C118.74 206.103 119.278 205.173 119.952 204.089C120.067 203.907 120.182 203.724 120.301 203.536C121.32 201.88 122.112 200.177 122.754 198.34C122.822 198.147 122.89 197.954 122.961 197.755C123.96 194.411 124.195 189.254 122.621 186.047C122.471 185.85 122.322 185.652 122.168 185.449C121.974 185.449 121.781 185.449 121.582 185.449ZM126.269 186.035C126.315 186.306 126.361 186.578 126.409 186.857C127.34 193.47 126.428 200.662 122.466 206.179C121.702 207.147 120.899 208.076 120.088 209.005C118.938 210.301 118.938 210.301 118.652 211.945C118.925 212.677 118.925 212.677 119.238 213.281C122.896 211.784 126.087 205.255 127.691 201.835C129.287 197.762 129.78 192.206 128.027 188.086C127.574 187.216 127.174 186.488 126.269 186.035ZM103.418 189.258C103.766 195.969 103.766 195.969 106.933 201.563C106.985 199.852 106.824 198.339 106.439 196.674C106.361 196.332 106.361 196.332 106.282 195.983C105.463 192.299 105.463 192.299 103.418 189.258ZM117.187 191.309C116.014 194.319 115.878 196.91 116.015 200.098C117.659 198.454 117.786 195.026 117.791 192.81C117.787 192.31 117.781 191.809 117.773 191.309C117.58 191.309 117.386 191.309 117.187 191.309Z" fill="black"/>
<path d="M154.834 50.024C155.066 50.0238 155.298 50.0236 155.538 50.0234C159.222 50.0284 162.793 50.1936 166.406 50.9762C166.643 51.0265 166.879 51.0767 167.122 51.1285C171.851 52.1709 176.095 53.7553 179.883 56.8356C180.053 56.9647 180.223 57.0939 180.398 57.2269C181.665 58.2151 182.668 59.4169 183.692 60.6442C183.879 60.8613 184.067 61.0785 184.26 61.3022C188.108 65.8879 189.97 71.265 191.608 76.9443C192.609 80.3392 193.66 83.148 196.868 84.953C197.902 85.4772 198.99 85.8495 200.079 86.2423C201.984 86.9548 203.572 87.6541 205.078 89.0621C205.078 89.2555 205.078 89.4488 205.078 89.6481C205.272 89.6481 205.465 89.6481 205.664 89.6481C206.149 90.3347 206.149 90.3347 206.69 91.2594C206.868 91.5585 207.046 91.8576 207.23 92.1658C208.233 94.2282 208.395 96.1101 208.374 98.3639C208.376 98.609 208.379 98.8541 208.381 99.1066C208.38 99.4618 208.38 99.4618 208.379 99.8241C208.378 100.036 208.377 100.248 208.377 100.467C208.29 101.161 208.058 101.641 207.715 102.246C206.873 102.301 206.873 102.301 205.957 102.246C205.252 101.188 205.277 100.375 205.243 99.1512C205.126 96.6665 204.84 94.1629 203.245 92.1429C201.96 91.025 200.225 90.5821 198.641 90.0342C194.54 88.6102 191.82 87.0925 189.778 83.0837C188.803 81.0059 188.146 78.9112 187.537 76.7025C185.298 68.9254 181.723 62.0332 174.355 57.9491C169.449 55.3466 164.035 54.1119 158.496 53.9059C158.179 53.8939 158.179 53.8939 157.855 53.8817C145.277 53.4805 130.651 54.6015 120.996 63.5738C120.714 63.8322 120.714 63.8322 120.426 64.0957C116.705 67.9003 115.319 73.878 114.037 78.8597C112.564 84.5782 110.86 89.9098 105.469 93.1637C102.292 94.8144 98.8408 96.0404 95.2527 94.9616C93.6873 94.2728 93.6873 94.2728 93.1642 93.7496C93.1276 92.8707 93.1276 92.8707 93.1642 91.9918C93.2609 91.8951 93.3575 91.7985 93.4572 91.6988C94.0015 91.7001 94.5459 91.7034 95.09 91.7182C99.2612 91.8252 103.204 90.9023 106.439 88.0734C109.07 85.1595 109.84 81.1585 110.685 77.4499C111.975 71.8044 113.776 66.1553 117.774 61.816C117.982 61.5879 118.19 61.3598 118.404 61.1248C119.906 59.5512 121.497 58.2808 123.34 57.1285C123.504 57.0258 123.668 56.9231 123.837 56.8172C133.145 51.0804 144.111 50.0323 154.834 50.024Z" fill="black"/>
<path d="M137.696 60.351C138.117 60.9553 138.117 60.9553 138.282 61.5229C137.806 62.3107 137.525 62.6499 136.649 62.9729C136.348 63.0442 136.047 63.1156 135.737 63.1892C129.907 64.8483 124.771 68.9764 121.803 74.2353C119.982 77.6712 119.29 81.3162 119.113 85.1733C119.091 85.6009 119.07 86.0285 119.048 86.4561C119.015 87.1154 118.983 87.7747 118.954 88.4341C118.741 93.1503 118.413 97.9835 114.849 101.451C113.875 102.278 112.791 102.838 111.658 103.417C108.581 105.065 105.788 106.639 104.481 110.028C104.055 112.075 104.449 114.261 104.698 116.314C104.729 116.572 104.76 116.83 104.792 117.095C104.823 117.32 104.855 117.545 104.887 117.776C104.883 118.359 104.883 118.359 104.298 119.238C104.017 119.292 104.017 119.292 103.73 119.348C103.04 119.488 103.04 119.488 102.613 120.281C102.492 120.517 102.371 120.753 102.247 120.996C101.093 120.967 100.375 120.716 99.5368 119.952C98.4976 118.836 97.6938 117.574 96.8818 116.29C96.755 116.089 96.6282 115.889 96.4975 115.682C94.7948 112.902 94.2697 109.804 94.8127 106.567C96.0242 101.752 99.5467 99.2413 103.521 96.7007C104.745 95.9041 105.898 95.0097 107.012 94.0665C108.776 92.6032 108.776 92.6032 110.029 92.4494C110.264 92.4917 110.5 92.534 110.743 92.5776C111.185 93.4617 111.182 93.932 111.036 94.9213C109.654 97.3519 106.878 98.7387 104.591 100.195C102.12 101.784 99.445 103.641 98.5572 106.597C98.0251 109.41 98.7049 111.419 99.903 113.964C99.9997 114.254 100.096 114.544 100.196 114.843C100.293 114.747 100.389 114.65 100.489 114.55C100.488 114.031 100.484 113.511 100.47 112.992C100.38 109.676 100.879 107.42 103.126 104.882C105.031 102.978 107.24 101.746 109.584 100.457C111.824 99.1841 113.503 97.8917 114.35 95.3791C114.44 95.1257 114.529 94.8723 114.621 94.6112C115.144 92.5927 115.202 90.5192 115.327 88.4463C115.852 79.8033 117.232 71.9665 123.835 65.716C127.04 63.0681 133.529 59.2072 137.696 60.351Z" fill="black"/>
<path d="M166.406 89.3556C167.737 90.2113 169.096 91.1666 170.215 92.2853C170.227 92.7734 170.227 93.262 170.215 93.7501C169.153 94.104 168.855 93.9093 167.871 93.4572C167.842 93.6739 167.812 93.8907 167.782 94.1141C167.439 95.4738 166.539 96.3308 165.527 97.2658C163.766 98.3095 162.094 98.4225 160.127 97.9867C158.817 97.5953 157.905 97.1955 157.031 96.0939C157.128 95.8038 157.224 95.5138 157.324 95.215C158.716 95.7643 158.716 95.7643 159.375 96.0939C159.085 95.4171 158.795 94.7404 158.496 94.0431C157.344 94.2114 157.344 94.2114 156.445 94.922C155.676 94.8121 155.676 94.8121 154.98 94.629C154.949 92.9129 155.325 92.0601 156.445 90.7472C159.4 87.708 162.683 87.4669 166.406 89.3556ZM164.355 91.4064C163.696 91.9417 163.696 91.9417 163.696 92.7247C163.696 93.5078 163.696 93.5078 164.355 94.0431C165.118 93.9492 165.118 93.9492 165.82 93.7501C166.022 93.0606 166.022 93.0606 166.113 92.2853C165.92 91.9953 165.726 91.7052 165.527 91.4064C165.141 91.4064 164.754 91.4064 164.355 91.4064Z" fill="black"/>
<path d="M139.68 89.4475C141.172 90.5785 142.455 91.7924 142.969 93.6223C142.969 93.858 142.969 94.0937 142.969 94.3364C142.669 94.409 142.669 94.409 142.364 94.4829C141.469 94.9403 141.139 95.3088 140.515 96.076C139.436 97.3576 138.476 97.9684 136.79 98.2458C134.886 98.3796 133.429 97.6738 131.836 96.6802C131.642 96.4868 131.449 96.2935 131.25 96.0943C131.25 95.8042 131.25 95.5142 131.25 95.2154C131.949 95.3841 132.617 95.5734 133.301 95.8013C132.866 94.3511 132.866 94.3511 132.422 92.8716C131.523 93.1798 130.947 93.4661 130.224 94.0984C129.492 94.6294 129.492 94.6294 128.668 94.5562C128.457 94.4837 128.245 94.4112 128.027 94.3364C127.743 93.4321 127.656 93.0275 128.089 92.1644C128.626 91.3887 129.174 90.8073 129.877 90.18C130.093 89.9824 130.309 89.7849 130.532 89.5814C133.068 87.7497 137.045 87.8969 139.68 89.4475ZM137.695 92.2857C137.789 93.0482 137.789 93.0482 137.988 93.7505C138.69 93.9496 138.69 93.9496 139.453 94.0435C140.118 93.5066 140.118 93.5066 140.094 92.7068C140.118 92.0083 140.118 92.0083 139.746 91.6997C138.585 91.5852 138.585 91.5852 137.695 92.2857Z" fill="black"/>
<path d="M154.688 108.398C155.457 109.002 155.457 109.002 155.859 109.57C155.537 110.538 155.411 110.636 154.597 111.165C154.402 111.293 154.208 111.421 154.007 111.553C153.803 111.684 153.598 111.815 153.387 111.95C153.184 112.084 152.981 112.217 152.771 112.354C150.909 113.569 149.64 113.984 147.363 113.671C145.594 112.919 144.1 111.723 142.676 110.449C143.066 109.099 143.066 109.099 143.855 108.634C145.259 108.254 146.608 108.476 148.042 108.61C150.402 108.795 152.31 107.816 154.688 108.398Z" fill="black"/>
<path d="M152.597 103.048C153.327 103.48 153.548 103.789 153.809 104.59C153.712 104.784 153.615 104.977 153.516 105.176C152.277 105.251 151.038 105.315 149.799 105.378C149.272 105.41 149.272 105.41 148.735 105.442C148.226 105.466 148.226 105.466 147.708 105.491C147.396 105.508 147.085 105.525 146.764 105.542C145.755 105.457 145.223 105.219 144.434 104.59C144.434 104.3 144.434 104.01 144.434 103.711C147.531 102.407 149.409 101.817 152.597 103.048Z" fill="black"/>
<path d="M176.074 63.5742C178.019 65.0636 179.349 66.8685 180.762 68.8477C180.469 69.4336 180.469 69.4336 179.901 69.6716C179.091 70.1379 178.994 70.6143 178.711 71.4844C178.614 71.6777 178.518 71.8711 178.418 72.0703C178.045 71.5152 177.673 70.9597 177.301 70.4041C177.094 70.0948 176.886 69.7855 176.673 69.4668C176.16 68.6848 175.669 67.896 175.195 67.0898C175.389 66.9932 175.582 66.8965 175.781 66.7969C175.685 66.4102 175.588 66.0234 175.488 65.625C175.875 65.4316 176.262 65.2383 176.66 65.0391C176.467 64.5557 176.273 64.0723 176.074 63.5742Z" fill="black"/>
<path d="M171.68 70.3125C173.46 71.9313 175.926 74.6182 176.125 77.092C176.129 77.6644 176.104 78.2369 176.074 78.8086C175.494 79.0986 175.494 79.0986 174.902 79.3945C173.377 78.0934 172.582 76.4769 171.68 74.707C172.163 74.6104 172.646 74.5137 173.145 74.4141C172.996 73.7787 172.852 73.2423 172.559 72.6562C172.269 72.8013 172.269 72.8013 171.973 72.9492C171.876 72.0791 171.779 71.209 171.68 70.3125Z" fill="black"/>
<path d="M162.891 84.3741C162.794 84.8575 162.697 85.3409 162.598 85.839C162.168 85.924 162.168 85.924 161.729 86.0107C161.341 86.0877 160.953 86.1647 160.565 86.2418C160.365 86.2814 160.165 86.3209 159.959 86.3617C158.849 86.5828 157.747 86.8207 156.647 87.0841C155.566 87.3038 155.566 87.3038 154.98 87.0109C155.041 86.3196 155.041 86.3196 155.273 85.546C157.374 84.2011 160.512 83.5814 162.891 84.3741Z" fill="black"/>
<path d="M142.383 85.2538C142.576 85.3505 142.77 85.4472 142.969 85.5468C142.969 86.0302 142.969 86.5136 142.969 87.0116C141.678 87.4126 140.635 87.0877 139.362 86.7553C137.831 86.3656 136.334 86.0345 134.766 85.8398C134.875 85.2721 134.875 85.2721 135.059 84.6679C137.166 83.6142 140.253 84.708 142.383 85.2538Z" fill="black"/>
</svg>
