<svg width="300" height="300" viewBox="0 0 300 300" fill="none" xmlns="http://www.w3.org/2000/svg">
<path d="M205.783 86.7735C208.937 89.1975 210.41 92.5151 210.938 96.3875C210.956 96.9122 210.963 97.4374 210.956 97.9623C210.953 98.2183 210.951 98.4744 210.948 98.7382C210.943 99.0248 210.943 99.0248 210.938 99.3172C210.164 99.1239 209.391 98.9305 208.594 98.7313C208.699 98.9148 208.805 99.0984 208.914 99.2875C209.05 99.5269 209.186 99.7663 209.326 100.013C209.462 100.251 209.598 100.489 209.738 100.734C210.059 101.368 210.059 101.368 210.059 101.954C208.898 101.761 207.738 101.567 206.543 101.368C206.785 101.743 207.026 102.117 207.275 102.503C208.008 103.639 208.008 103.639 208.008 104.298C207.532 104.256 207.056 104.213 206.58 104.17C206.182 104.134 206.182 104.134 205.776 104.097C205.078 104.005 205.078 104.005 204.492 103.712C204.976 104.679 205.459 105.645 205.957 106.641C204.217 106.351 204.217 106.351 202.441 106.056C202.925 107.022 203.408 107.989 203.906 108.985C202.843 108.792 201.779 108.598 200.684 108.399C200.974 108.961 200.974 108.961 201.27 109.535C201.855 110.67 201.855 110.67 201.855 111.329C200.792 111.039 199.729 110.749 198.633 110.45C199.213 111.9 199.213 111.9 199.805 113.38C198.645 113.186 197.484 112.993 196.289 112.794C196.488 113.114 196.688 113.434 196.893 113.764C197.233 114.31 197.233 114.31 197.461 114.845C197.364 115.135 197.268 115.425 197.168 115.723C196.201 115.433 195.234 115.143 194.238 114.845C194.486 115.268 194.734 115.691 194.989 116.126C195.411 116.847 195.411 116.847 195.703 117.481C195.606 117.675 195.51 117.868 195.41 118.067C194.347 117.777 193.283 117.487 192.188 117.188C192.478 117.75 192.478 117.75 192.773 118.324C193.359 119.459 193.359 119.459 193.359 120.118C192.296 119.925 191.232 119.731 190.137 119.532C190.336 119.901 190.536 120.269 190.741 120.649C191.081 121.277 191.081 121.277 191.309 121.876C191.212 122.166 191.115 122.456 191.016 122.755C189.952 122.465 188.889 122.175 187.793 121.876C188.041 122.299 188.288 122.722 188.544 123.158C188.966 123.879 188.966 123.879 189.258 124.513C189.161 124.706 189.064 124.899 188.965 125.098C187.901 124.905 186.838 124.712 185.742 124.513C186.467 125.963 186.467 125.963 187.207 127.442C186.047 127.249 184.887 127.056 183.691 126.856C183.981 127.418 183.981 127.418 184.277 127.992C184.863 129.127 184.863 129.127 184.863 129.786C183.8 129.689 182.736 129.593 181.641 129.493C182.221 130.798 182.221 130.798 182.812 132.13C181.652 132.033 180.492 131.936 179.297 131.837C179.49 132.163 179.684 132.489 179.883 132.826C180.469 133.814 180.469 133.814 180.469 134.473C179.405 134.377 178.342 134.28 177.246 134.181C177.536 134.742 177.536 134.742 177.832 135.316C178.418 136.451 178.418 136.451 178.418 137.11C177.354 136.917 176.291 136.723 175.195 136.524C175.525 137.561 175.878 138.476 176.367 139.454C175.207 139.261 174.047 139.067 172.852 138.868C173.142 139.502 173.142 139.502 173.438 140.15C174.023 141.431 174.023 141.431 174.023 142.091C172.863 141.897 171.703 141.704 170.508 141.505C170.701 141.825 170.895 142.145 171.094 142.475C171.558 143.244 171.68 143.504 171.68 144.434C170.52 144.338 169.359 144.241 168.164 144.141C168.889 145.592 168.889 145.592 169.629 147.071C168.372 146.878 167.115 146.684 165.82 146.485C166.304 147.452 166.787 148.419 167.285 149.415C165.911 149.249 164.547 149.068 163.184 148.829C164.054 150.279 164.054 150.279 164.941 151.759C164.004 152.071 163.51 152.037 162.543 151.923C162.077 151.869 161.612 151.815 161.133 151.759C161.616 152.725 162.1 153.692 162.598 154.688C161.244 154.495 159.891 154.302 158.496 154.102C158.786 154.525 159.076 154.948 159.375 155.384C160.254 156.666 160.254 156.666 160.254 157.325C158.997 157.132 157.74 156.938 156.445 156.739C156.929 157.706 157.412 158.673 157.91 159.669C157.085 160.081 156.571 159.864 155.676 159.687C155.157 159.584 154.637 159.482 154.102 159.376C154.585 160.343 155.068 161.309 155.566 162.306C154.31 162.112 153.053 161.919 151.758 161.72C152.241 162.686 152.725 163.653 153.223 164.649C151.966 164.553 150.709 164.456 149.414 164.356C149.897 165.323 150.381 166.29 150.879 167.286C149.622 167.189 148.365 167.093 147.07 166.993C147.795 168.443 147.795 168.443 148.535 169.923C146.505 169.488 146.505 169.488 144.434 169.044C145.304 170.639 145.304 170.639 146.191 172.266C145.421 172.266 144.703 172.208 143.939 172.12C143.702 172.093 143.466 172.066 143.222 172.038C143.042 172.016 142.861 171.995 142.676 171.973C142.764 172.136 142.852 172.298 142.942 172.466C143.054 172.678 143.165 172.89 143.28 173.109C143.392 173.319 143.504 173.53 143.62 173.747C143.695 173.935 143.77 174.123 143.848 174.317C143.751 174.511 143.654 174.704 143.555 174.903C141.766 174.945 140.407 174.867 139.043 173.628C138.647 173.218 138.259 172.801 137.878 172.376C137.583 172.069 137.583 172.069 137.282 171.755C136.128 170.533 135.124 169.262 134.18 167.872C134.583 167.286 134.583 167.286 135.059 166.7C135.252 166.7 135.445 166.7 135.645 166.7C135.711 166.538 135.777 166.376 135.846 166.209C136.344 165.326 136.976 164.717 137.698 164.004C137.911 163.792 137.911 163.792 138.129 163.575C138.581 163.126 139.035 162.679 139.49 162.232C139.798 161.927 140.106 161.622 140.413 161.317C141.166 160.571 141.92 159.826 142.676 159.083C142.135 157.903 141.35 157.115 140.424 156.226C139.432 155.269 138.48 154.301 137.58 153.256C136.505 152.011 135.353 150.859 134.18 149.708C130.861 146.453 130.861 146.453 129.785 145.02C129.785 144.827 129.785 144.634 129.785 144.434C130.221 144.005 130.221 144.005 130.82 143.509C132.05 142.462 133.192 141.354 134.326 140.205C134.525 140.004 134.725 139.804 134.93 139.598C135.559 138.965 136.188 138.33 136.816 137.696C137.646 136.859 138.476 136.023 139.307 135.188C139.585 134.906 139.585 134.906 139.869 134.618C140.984 133.497 142.137 132.44 143.334 131.407C143.899 130.913 144.432 130.399 144.953 129.86C145.128 129.682 145.303 129.503 145.483 129.32C145.841 128.952 146.198 128.583 146.554 128.214C146.727 128.038 146.899 127.863 147.077 127.681C147.231 127.523 147.385 127.364 147.543 127.2C147.949 126.856 147.949 126.856 148.535 126.856C148.535 126.663 148.535 126.47 148.535 126.27C148.914 125.898 148.914 125.898 149.469 125.446C151.821 123.446 154.054 121.235 156.01 118.845C156.482 118.319 156.986 117.875 157.525 117.418C158.756 116.352 159.907 115.224 161.05 114.066C161.256 113.86 161.462 113.653 161.674 113.44C162.324 112.786 162.974 112.131 163.623 111.475C164.48 110.611 165.337 109.747 166.196 108.884C166.484 108.593 166.484 108.593 166.778 108.295C167.891 107.176 169.039 106.123 170.234 105.092C171.13 104.3 171.967 103.455 172.806 102.604C172.985 102.423 173.165 102.242 173.35 102.056C173.917 101.486 174.483 100.914 175.049 100.343C179.38 95.9661 179.38 95.9661 181.176 94.4428C181.857 93.8578 182.48 93.2222 183.105 92.579C189.222 86.3725 197.329 80.7306 205.783 86.7735ZM196.454 92.7804C195.845 94.0713 195.852 95.0337 196.289 96.3875C197.094 97.3834 197.983 98.3421 199.298 98.5367C201.336 98.5681 202.338 98.1503 203.87 96.7721C204.4 95.6825 204.385 94.6437 204.199 93.4579C203.557 92.1739 202.905 91.3582 201.562 90.8211C199.29 90.4803 198.005 91.0706 196.454 92.7804Z" fill="black"/>
<path d="M117.774 156.8C118.418 157.055 118.753 157.319 119.236 157.811C119.393 157.97 119.551 158.129 119.713 158.292C119.959 158.547 119.959 158.547 120.21 158.808C120.381 158.982 120.553 159.157 120.729 159.337C121.731 160.364 122.686 161.419 123.613 162.513C124.696 163.711 125.86 164.83 127.007 165.965C128.131 167.083 129.211 168.216 130.235 169.428C130.855 170.141 131.532 170.792 132.206 171.455C132.724 171.982 133.206 172.529 133.686 173.09C134.738 174.313 135.879 175.435 137.028 176.568C137.543 177.091 138.012 177.606 138.465 178.18C139.379 179.262 140.426 180.143 141.505 181.055C140.323 182.726 139.037 184.175 137.568 185.596C136.236 186.905 134.938 188.215 133.732 189.643C133.112 190.355 132.436 191.006 131.762 191.667C131.232 192.207 130.737 192.767 130.244 193.341C129.535 194.164 128.802 194.942 128.028 195.704C127.266 196.454 126.545 197.218 125.849 198.029C125.096 198.905 124.309 199.726 123.487 200.538C122.707 201.307 121.96 202.081 121.253 202.918C116.599 208.306 110.528 214.038 103.095 214.811C99.0642 215.095 94.7384 214.685 91.4757 212.101C91.2597 211.91 91.0437 211.72 90.8211 211.524C90.4789 211.229 90.4789 211.229 90.1299 210.929C87.2118 208.226 85.4022 204.854 85.1631 200.874C84.8612 192.697 88.7023 187.116 93.7336 180.983C94.439 180.122 95.1262 179.249 95.8016 178.363C96.5208 177.427 97.3099 176.617 98.1453 175.782C98.4239 175.406 98.6983 175.027 98.9693 174.646C99.5629 173.837 100.157 173.181 100.929 172.54C102.381 171.293 103.725 169.942 105.072 168.584C105.531 168.121 105.991 167.66 106.451 167.198C107.424 166.221 108.397 165.243 109.37 164.264C110.503 163.124 111.636 161.985 112.771 160.847C113.223 160.393 113.675 159.938 114.126 159.482C114.403 159.205 114.679 158.927 114.956 158.649C115.197 158.407 115.437 158.165 115.686 157.915C116.954 156.714 116.954 156.714 117.774 156.8ZM114.442 163.349C113.778 164.344 113.777 164.942 113.966 166.114C114.722 166.981 115.193 167.247 116.328 167.432C117.204 167.342 117.204 167.342 117.884 166.828C118.536 165.85 118.507 165.215 118.36 164.063C117.908 163.447 117.575 163.231 116.895 162.891C115.858 162.778 115.324 162.768 114.442 163.349ZM109.571 176.075C109.571 176.268 109.571 176.461 109.571 176.661C109.403 176.73 109.234 176.8 109.061 176.872C108.26 177.325 107.793 177.852 107.191 178.547C106.247 179.624 105.292 180.684 104.316 181.733C103.124 183.039 102.044 184.397 100.983 185.809C100.211 186.83 99.3988 187.788 98.5298 188.727C96.1085 191.384 94.1031 194.202 93.8973 197.919C94.0475 200.515 95.1237 202.677 96.9151 204.528C98.7063 206.058 100.797 206.574 103.126 206.543C107.37 206.1 110.475 202.512 113.262 199.612C113.673 199.219 113.673 199.219 114.552 198.633C114.552 198.44 114.552 198.247 114.552 198.047C114.783 197.958 114.783 197.958 115.018 197.866C118.694 195.754 122.624 190.843 124.146 186.914C124.886 184.146 125.01 180.822 123.746 178.196C122.357 175.945 120.649 174.205 118.067 173.438C114.846 172.911 112.031 173.962 109.571 176.075ZM130.665 180.176C130.363 180.982 130.247 181.666 130.372 182.52C131.214 183.506 131.765 183.919 133.045 184.15C134.085 183.946 134.428 183.654 135.059 182.813C135.377 182.273 135.377 182.273 135.352 181.641C134.895 180.499 134.63 179.987 133.595 179.297C132.332 179.163 131.51 179.175 130.665 180.176Z" fill="black"/>
<path d="M126.562 147.949C127.478 148.355 128.098 148.827 128.802 149.535C129.001 149.734 129.199 149.933 129.403 150.138C129.608 150.347 129.812 150.555 130.023 150.769C130.224 150.97 130.425 151.172 130.633 151.379C131.802 152.558 132.915 153.772 134 155.029C134.659 155.778 135.355 156.477 136.066 157.178C136.319 157.428 136.572 157.679 136.834 157.938C137.021 158.122 137.209 158.306 137.402 158.496C136.161 159.98 134.861 161.367 133.484 162.726C133.202 163.005 133.202 163.005 132.915 163.291C132.458 163.744 132.001 164.196 131.543 164.648C130.368 164.107 129.563 163.332 128.668 162.415C128.512 162.256 128.355 162.098 128.194 161.935C127.192 160.913 126.235 159.862 125.308 158.771C124.709 158.095 124.074 157.464 123.431 156.83C122.555 155.963 121.704 155.117 120.996 154.102C120.996 153.516 120.996 153.516 121.595 152.88C121.883 152.603 122.172 152.327 122.461 152.051C122.808 151.705 123.155 151.358 123.501 151.011C124.522 149.99 125.542 148.97 126.562 147.949Z" fill="black"/>
<path d="M163.184 159.668C163.77 159.961 163.77 159.961 163.77 159.961L163.184 159.668Z" fill="black"/>
</svg>
