<svg width="300" height="300" viewBox="0 0 300 300" fill="none" xmlns="http://www.w3.org/2000/svg">
<path d="M178.619 93.9942C179.553 93.994 180.487 93.9933 181.421 93.9926C184.701 93.9899 187.981 93.9887 191.261 93.9889C194.287 93.9891 197.313 93.986 200.338 93.9814C202.969 93.9775 205.601 93.976 208.232 93.9762C209.789 93.9762 211.346 93.9754 212.904 93.9723C223.955 93.9516 223.955 93.9516 228.654 94.2855C229.106 94.3159 229.106 94.3159 229.567 94.3469C230.983 94.4687 232.055 94.592 233.203 95.508C235.706 98.8738 235.595 103.613 235.575 107.587C235.575 107.914 235.575 108.241 235.574 108.578C235.573 109.611 235.569 110.644 235.565 111.676C235.564 112.381 235.562 113.087 235.561 113.792C235.558 115.51 235.553 117.228 235.547 118.946C236.07 118.913 236.07 118.913 236.605 118.88C243.836 118.475 249.354 118.377 255.531 122.514C256.774 123.325 258.083 123.987 259.406 124.658C259.814 124.875 260.223 125.091 260.631 125.308C262.221 126.137 263.827 126.933 265.43 127.735C265.43 152.775 265.43 177.815 265.43 203.614C264.076 203.71 262.723 203.807 261.328 203.906C261.082 205.349 260.837 206.792 260.593 208.236C260.51 208.725 260.427 209.215 260.343 209.704C259.71 213.402 259.71 213.402 259.338 217.135C259.277 217.676 259.277 217.676 258.984 217.969C258.508 217.998 258.03 218.006 257.553 218.006C257.24 218.007 256.928 218.008 256.606 218.009C256.258 218.009 255.909 218.008 255.55 218.007C255.183 218.008 254.815 218.009 254.436 218.009C253.406 218.011 252.377 218.011 251.347 218.01C250.23 218.01 249.113 218.012 247.996 218.013C245.777 218.015 243.558 218.016 241.338 218.016C238.682 218.016 236.025 218.018 233.369 218.02C226.947 218.025 220.526 218.026 214.104 218.028C211.069 218.029 208.033 218.03 204.998 218.031C194.614 218.034 184.23 218.038 173.846 218.039C173.194 218.039 172.542 218.039 171.89 218.039C171.236 218.039 170.582 218.039 169.928 218.039C168.617 218.039 167.305 218.039 165.993 218.039C165.668 218.039 165.343 218.039 165.008 218.039C154.456 218.041 143.905 218.045 133.353 218.052C122.207 218.059 111.06 218.063 99.9138 218.064C98.6914 218.064 97.4691 218.064 96.2467 218.064C95.9457 218.064 95.6447 218.064 95.3346 218.064C90.4801 218.064 85.6255 218.067 80.771 218.072C75.8965 218.076 71.022 218.077 66.1475 218.074C63.2478 218.073 60.3481 218.074 57.4484 218.079C55.5148 218.082 53.5812 218.081 51.6476 218.078C50.5437 218.077 49.4398 218.077 48.3359 218.08C47.1504 218.084 45.9649 218.081 44.7794 218.078C44.4318 218.08 44.0842 218.082 43.7261 218.085C43.4128 218.083 43.0995 218.081 42.7768 218.078C42.5053 218.079 42.2338 218.079 41.9541 218.079C41.7411 218.042 41.5281 218.006 41.3086 217.969C40.5944 216.898 40.494 215.919 40.3198 214.673C40.246 214.174 40.1716 213.674 40.0967 213.175C40.0569 212.909 40.0171 212.644 39.9761 212.37C39.6955 210.576 39.3676 208.789 39.044 207.002C38.9956 206.73 38.9472 206.458 38.8973 206.178C38.8538 205.937 38.8103 205.697 38.7655 205.449C38.6719 204.785 38.6719 204.785 38.6719 203.614C37.3184 203.614 35.9648 203.614 34.5703 203.614C34.5703 178.477 34.5703 153.34 34.5703 127.442C36.1172 126.668 37.6641 125.895 39.2578 125.098C40.5374 124.426 41.8131 123.751 43.0847 123.065C43.5427 122.821 43.5427 122.821 44.01 122.572C44.3183 122.406 44.6267 122.24 44.9444 122.069C45.2599 121.901 45.5755 121.733 45.9006 121.56C46.5991 121.156 47.2079 120.763 47.8488 120.286C51.131 117.918 54.2009 118.046 58.136 118.195C58.7511 118.208 59.3662 118.22 59.9813 118.231C61.4726 118.26 62.9626 118.305 64.4531 118.36C64.4328 118.161 64.4125 117.963 64.3916 117.759C64.1701 115.396 64.0963 113.045 64.0898 110.673C64.0869 110.049 64.0778 109.426 64.0686 108.801C64.0415 105.277 64.5211 102.045 65.9489 98.7833C66.2577 98.0802 66.2577 98.0802 66.4673 97.0278C66.9146 95.7605 67.4578 95.3902 68.5547 94.6291C69.6355 94.2689 70.634 94.2936 71.759 94.2995C72.0652 94.2978 72.0652 94.2978 72.3776 94.2961C73.5697 94.2983 74.7378 94.363 75.9239 94.4827C78.3812 94.6914 80.835 94.6701 83.2991 94.667C83.8338 94.6674 84.3684 94.668 84.9031 94.6686C86.3477 94.6699 87.7923 94.6694 89.2369 94.6685C90.76 94.6677 92.2832 94.6684 93.8063 94.6689C96.369 94.6694 98.9317 94.6687 101.494 94.6673C104.434 94.6657 107.373 94.6662 110.313 94.6679C112.853 94.6692 115.394 94.6694 117.934 94.6686C119.444 94.6682 120.954 94.6681 122.463 94.6691C128.821 94.6727 135.166 94.6297 141.519 94.369C147.653 94.1361 147.653 94.1361 149.707 95.2151C149.982 95.8559 149.982 95.8559 150 96.3869C150.193 96.3869 150.387 96.3869 150.586 96.3869C150.671 96.2057 150.755 96.0244 150.842 95.8376C151.172 95.2151 151.172 95.2151 151.758 94.6291C153.027 94.2647 154.328 94.2729 155.639 94.2452C155.879 94.2392 156.119 94.2333 156.366 94.2271C157.163 94.208 157.959 94.191 158.756 94.1744C159.172 94.1653 159.172 94.1653 159.597 94.1559C165.938 94.0174 172.278 93.995 178.619 93.9942ZM162.623 96.385C161.238 96.3823 159.853 96.3891 158.468 96.4031C157.957 96.4065 157.445 96.4065 156.934 96.4028C156.235 96.3982 155.538 96.4062 154.839 96.4173C154.636 96.413 154.433 96.4086 154.224 96.4042C153.379 96.429 152.792 96.5265 152.181 97.1293C151.482 98.0787 150.984 98.8446 151.019 100.058C151.022 100.296 151.025 100.534 151.029 100.779C151.04 101.022 151.051 101.264 151.062 101.514C151.066 101.747 151.07 101.981 151.075 102.221C151.11 103.715 151.211 105.203 151.315 106.693C151.471 108.982 151.568 111.269 151.63 113.562C151.636 113.784 151.642 114.005 151.648 114.234C151.783 119.47 151.8 124.709 151.811 129.947C151.813 130.622 151.816 131.298 151.819 131.974C151.824 133.058 151.826 134.143 151.825 135.228C151.825 135.82 151.828 136.412 151.832 137.004C151.825 139.718 151.561 142.339 151.172 145.02C155.098 145.282 158.429 143.853 161.878 142.141C164.754 140.763 167.743 140.541 170.895 140.525C171.365 140.518 171.365 140.518 171.844 140.512C172.522 140.504 173.2 140.496 173.877 140.489C175.722 140.471 177.567 140.441 179.411 140.412C179.605 140.409 179.798 140.406 179.998 140.403C184.5 140.335 189.002 140.235 193.503 140.11C194.355 140.087 195.207 140.066 196.059 140.046C197.258 140.019 198.457 139.985 199.656 139.95C200.009 139.943 200.363 139.935 200.727 139.928C203.786 139.829 206.463 139.22 209.143 137.732C209.351 137.62 209.559 137.507 209.773 137.391C212.036 136.144 214.221 134.77 216.408 133.395C217.656 132.612 218.919 131.857 220.189 131.111C223.258 129.305 226.19 127.343 229.071 125.252C229.605 124.864 230.144 124.485 230.685 124.107C230.948 123.914 231.211 123.722 231.482 123.523C231.694 123.37 231.906 123.217 232.125 123.059C233.565 121.31 233.289 118.641 233.281 116.508C233.282 116.163 233.282 115.819 233.283 115.464C233.283 114.736 233.282 114.009 233.28 113.282C233.276 112.18 233.279 111.079 233.283 109.978C233.331 103.305 233.331 103.305 231.445 96.9729C227.444 96.5017 223.513 96.3029 219.486 96.3158C218.901 96.3155 218.316 96.3149 217.731 96.3141C216.158 96.3127 214.586 96.3149 213.014 96.3179C211.35 96.3205 209.686 96.3199 208.022 96.3198C205.224 96.3201 202.426 96.3226 199.627 96.3267C196.425 96.3312 193.222 96.3328 190.02 96.3326C186.573 96.3324 183.125 96.3344 179.678 96.3371C178.704 96.3377 177.729 96.3379 176.755 96.3381C173.465 96.3389 170.176 96.3463 166.886 96.3711C165.465 96.3816 164.044 96.3877 162.623 96.385ZM68.5547 97.2659C68.3144 97.9548 68.0768 98.6446 67.8406 99.3349C67.7732 99.5274 67.7058 99.7198 67.6363 99.918C66.9377 101.973 66.7464 104.028 66.6321 106.183C66.6199 106.413 66.6076 106.643 66.595 106.879C66.4832 109.146 66.4543 111.403 66.5039 113.672C66.5122 114.058 66.5205 114.444 66.5291 114.842C66.6014 116.921 66.844 118.915 67.3096 120.941C67.352 121.139 67.3944 121.338 67.438 121.542C67.6679 122.449 67.8285 122.95 68.6116 123.491C69.4842 123.953 70.3631 124.388 71.2566 124.808C71.5224 124.934 71.5224 124.934 71.7935 125.061C72.3797 125.337 72.9665 125.611 73.5535 125.885C73.758 125.981 73.9625 126.077 74.1732 126.175C77.8909 127.915 81.6343 129.593 85.3895 131.249C87.5919 132.221 89.7896 133.201 91.9762 134.209C97.0042 136.55 97.0042 136.55 102.136 138.648C102.328 138.721 102.52 138.795 102.717 138.871C103.336 139.092 103.956 139.277 104.59 139.453C104.868 139.533 105.145 139.612 105.431 139.694C108.928 140.546 112.447 140.427 116.026 140.423C122.18 140.427 128.253 140.646 134.363 141.449C134.646 141.486 134.929 141.522 135.221 141.56C139.529 142.128 143.777 142.915 147.949 144.141C148.482 143.608 148.285 142.874 148.289 142.164C148.289 141.926 148.288 141.687 148.287 141.441C148.286 141.193 148.286 140.944 148.285 140.688C148.261 137.772 148.044 134.872 147.821 131.964C147.741 130.896 147.663 129.827 147.584 128.759C147.565 128.5 147.546 128.241 147.526 127.974C146.918 119.658 147.185 111.71 148.034 103.42C148.175 102.033 148.317 100.645 148.445 99.256C148.47 98.9868 148.495 98.7176 148.521 98.4402C148.526 98.246 148.53 98.0519 148.535 97.8518C147.123 96.44 141.127 97.2321 139.196 97.2292C138.177 97.2294 137.157 97.231 136.138 97.2326C135.398 97.2327 134.659 97.2326 133.919 97.2325C132.336 97.2324 130.753 97.2332 129.169 97.2349C126.88 97.2373 124.591 97.238 122.303 97.2384C118.588 97.239 114.873 97.241 111.158 97.2438C107.552 97.2464 103.946 97.2485 100.341 97.2498C100.006 97.2499 100.006 97.2499 99.6655 97.25C98.5477 97.2504 97.4298 97.2507 96.312 97.2511C87.0595 97.2541 77.8071 97.2593 68.5547 97.2659ZM47.9838 122.995C47.1813 123.524 46.3362 123.964 45.4857 124.41C45.1862 124.571 44.8867 124.731 44.5782 124.897C43.9696 125.222 43.3607 125.547 42.7517 125.872C42.4575 126.03 42.1633 126.188 41.8602 126.351C41.5985 126.491 41.3369 126.63 41.0673 126.774C40.3977 127.131 40.3977 127.131 39.8438 127.735C41.7967 127.817 43.7492 127.873 45.7035 127.912C46.3659 127.928 47.0282 127.95 47.6902 127.978C52.2074 128.165 55.1387 127.78 58.6957 124.896C59.3237 124.398 59.9894 123.99 60.6812 123.587C60.8753 123.469 61.0694 123.352 61.2694 123.23C61.6515 123 62.0346 122.771 62.4184 122.544C63.5759 121.871 63.5759 121.871 64.1602 120.703C62.5354 120.637 60.9115 120.59 59.2857 120.559C58.735 120.545 58.1844 120.528 57.634 120.504C53.7543 120.346 51.208 120.806 47.9838 122.995ZM243.701 121.06C243.468 121.067 243.235 121.073 242.995 121.08C242.252 121.101 241.509 121.122 240.765 121.143C240.261 121.157 239.757 121.171 239.253 121.185C238.018 121.22 236.782 121.254 235.547 121.289C235.566 121.845 235.566 121.845 235.84 122.461C236.584 123.014 236.584 123.014 237.527 123.496C237.697 123.589 237.867 123.682 238.043 123.778C238.588 124.075 239.137 124.367 239.685 124.658C240.048 124.855 240.41 125.051 240.772 125.248C241.446 125.613 242.12 125.976 242.796 126.338C243.75 126.856 243.75 126.856 244.691 127.499C246.079 128.292 247.519 128.174 249.077 128.142C249.541 128.14 249.541 128.14 250.014 128.137C250.996 128.13 251.978 128.116 252.96 128.101C253.628 128.095 254.296 128.09 254.965 128.085C256.598 128.072 258.23 128.052 259.863 128.028C259.085 127.21 258.321 126.755 257.312 126.238C256.979 126.066 256.645 125.894 256.302 125.717C255.945 125.535 255.588 125.353 255.231 125.171C254.869 124.986 254.508 124.801 254.147 124.615C253.441 124.253 252.734 123.893 252.027 123.533C251.24 123.132 250.454 122.728 249.67 122.322C249.308 122.136 248.946 121.951 248.584 121.765C248.285 121.612 247.986 121.459 247.678 121.301C246.441 120.767 245.032 121.023 243.701 121.06ZM64.3353 123.808C64.0741 123.971 63.813 124.133 63.5439 124.301C63.2699 124.473 62.9959 124.646 62.7136 124.823C62.4498 124.988 62.186 125.152 61.9143 125.322C61.099 125.831 60.2851 126.342 59.4727 126.856C59.2146 126.97 58.9565 127.083 58.6906 127.201C57.7227 127.684 57.0138 128.136 56.25 128.906C55.7773 130.42 55.8413 131.903 55.8841 133.469C55.8851 133.934 55.8845 134.399 55.8827 134.864C55.8818 136.123 55.9007 137.381 55.9232 138.639C55.9434 139.955 55.9453 141.272 55.9491 142.589C55.9591 145.08 55.9855 147.571 56.0179 150.062C56.054 152.899 56.0717 155.736 56.0878 158.573C56.1215 164.407 56.1782 170.241 56.25 176.074C57.0234 176.074 57.7969 176.074 58.5938 176.074C58.4514 175.16 58.3012 174.318 58.0078 173.438C57.938 172.451 57.9521 171.461 57.9529 170.471C57.9531 170.177 57.9534 169.882 57.9536 169.578C57.9716 167.281 58.088 164.998 58.2642 162.708C58.2871 162.397 58.3101 162.087 58.3338 161.767C58.3584 161.475 58.383 161.184 58.4084 160.884C58.4298 160.627 58.4513 160.371 58.4734 160.107C58.9635 157.126 61.4438 154.691 63.4369 152.572C63.6756 152.303 63.9142 152.035 64.1602 151.758C64.3499 151.587 64.5396 151.417 64.7351 151.241C66.7342 149.209 66.7938 147.37 66.777 144.67C66.766 144.13 66.7547 143.591 66.7431 143.051C66.7395 142.492 66.7368 141.933 66.7351 141.373C66.7279 139.909 66.7063 138.446 66.6819 136.982C66.6643 135.783 66.6566 134.584 66.6494 133.385C66.6346 130.912 66.6134 128.439 66.5744 125.966C66.5717 125.737 66.5691 125.508 66.5664 125.272C66.5674 124.122 66.5674 124.122 66.2109 123.047C65.404 123.047 65.0185 123.381 64.3353 123.808ZM234.375 124.219C234.141 125.457 234.042 126.632 234.031 127.891C234.027 128.266 234.023 128.64 234.019 129.026C234.017 129.324 234.017 129.324 234.015 129.627C234.01 130.255 234.003 130.882 233.996 131.51C233.975 133.294 233.957 135.077 233.942 136.861C233.933 137.955 233.921 139.049 233.907 140.144C233.902 140.557 233.899 140.97 233.896 141.383C233.883 143.438 233.802 145.363 233.392 147.38C233.174 148.571 233.174 148.571 233.435 149.718C233.834 150.235 234.249 150.628 234.75 151.046C234.916 151.202 235.082 151.358 235.253 151.519C235.781 152.013 236.321 152.49 236.865 152.967C237.57 153.602 238.268 154.244 238.962 154.891C239.129 155.046 239.296 155.201 239.468 155.361C242.849 158.593 243.35 162.515 243.473 166.989C243.531 170.028 243.392 173.044 243.164 176.074C243.551 176.074 243.937 176.074 244.336 176.074C244.35 170.136 244.36 164.197 244.366 158.258C244.369 155.501 244.373 152.744 244.38 149.986C244.386 147.583 244.39 145.18 244.391 142.777C244.392 141.505 244.394 140.232 244.398 138.959C244.402 137.762 244.403 136.564 244.402 135.367C244.402 134.927 244.404 134.487 244.406 134.047C244.409 133.447 244.408 132.847 244.406 132.247C244.407 131.911 244.407 131.575 244.408 131.229C244.336 130.377 244.225 129.903 243.75 129.199C242.932 128.642 242.932 128.642 241.94 128.144C241.761 128.05 241.583 127.955 241.399 127.858C240.829 127.557 240.257 127.261 239.685 126.966C239.302 126.764 238.92 126.563 238.537 126.361C237.156 125.635 235.773 124.912 234.375 124.219ZM36.9141 130.078C36.9141 133.559 36.9141 137.039 36.9141 140.625C37.6754 141.006 38.4368 141.387 39.2212 141.779C41.8485 143.145 44.406 144.668 45.7453 147.431C46.3305 149.324 46.1596 151.407 46.1514 153.372C46.1535 153.894 46.1561 154.416 46.1591 154.938C46.166 156.352 46.1658 157.765 46.1644 159.178C46.1643 160.657 46.1709 162.136 46.1769 163.615C46.1873 166.414 46.192 169.213 46.1944 172.012C46.1982 176.127 46.2094 180.242 46.222 184.357C46.2229 184.658 46.2238 184.96 46.2248 185.27C46.2266 185.871 46.2285 186.471 46.2303 187.071C46.2356 188.834 46.2389 190.596 46.2404 192.359C46.2415 193.452 46.2437 194.545 46.2462 195.637C46.2471 196.146 46.2474 196.655 46.2472 197.163C46.2471 197.855 46.2486 198.546 46.2506 199.237C46.2498 199.543 46.2498 199.543 46.249 199.855C46.1753 200.79 46.1753 200.79 46.582 201.563C47.1002 201.592 47.6195 201.601 48.1384 201.602C48.4534 201.602 48.7684 201.602 49.0929 201.603C49.5902 201.601 49.5902 201.601 50.0977 201.599C50.4292 201.6 50.7608 201.602 51.1024 201.603C51.4174 201.602 51.7324 201.602 52.0569 201.602C52.3481 201.601 52.6392 201.601 52.9392 201.601C53.6027 201.638 53.6027 201.638 53.9062 201.27C53.9334 200.417 53.9415 199.571 53.9371 198.718C53.9368 198.317 53.9368 198.317 53.9364 197.909C53.9352 197.018 53.9319 196.127 53.9286 195.236C53.9272 194.609 53.926 193.981 53.9249 193.354C53.9208 191.403 53.9137 189.452 53.9062 187.5C53.9042 186.912 53.9021 186.325 53.9 185.737C53.8864 181.994 53.8675 178.252 53.8471 174.509C53.8386 172.936 53.8306 171.364 53.8225 169.791C53.8072 166.839 53.7915 163.886 53.7758 160.934C53.7578 157.562 53.7402 154.19 53.7226 150.818C53.6866 143.905 53.6501 136.991 53.6133 130.078C48.1025 130.078 42.5918 130.078 36.9141 130.078ZM246.68 130.371C246.68 153.864 246.68 177.358 246.68 201.563C249 201.563 251.32 201.563 253.711 201.563C253.711 200.863 253.71 200.164 253.71 199.443C253.709 192.856 253.717 186.269 253.734 179.682C253.743 176.295 253.748 172.909 253.746 169.522C253.744 166.57 253.748 163.618 253.76 160.666C253.766 159.103 253.768 157.541 253.764 155.978C253.76 154.506 253.764 153.035 253.774 151.563C253.776 151.023 253.776 150.484 253.772 149.944C253.739 145.014 253.739 145.014 255.321 143.351C255.539 143.162 255.539 143.162 255.762 142.969C255.979 142.766 256.196 142.563 256.42 142.353C258.525 140.89 260.692 140.053 263.086 139.16C263.086 136.26 263.086 133.36 263.086 130.371C257.672 130.371 252.258 130.371 246.68 130.371ZM256.641 145.02C255.927 146.091 255.974 146.88 255.984 148.118C255.984 148.346 255.983 148.574 255.983 148.809C255.982 149.575 255.985 150.342 255.988 151.108C255.988 151.657 255.988 152.205 255.988 152.754C255.988 154.245 255.991 155.737 255.995 157.228C255.999 158.786 255.999 160.343 256 161.901C256.002 164.852 256.007 167.803 256.012 170.754C256.019 174.113 256.022 177.472 256.025 180.831C256.031 187.741 256.042 194.652 256.055 201.563C258.375 201.563 260.695 201.563 263.086 201.563C263.086 181.84 263.086 162.117 263.086 141.797C260.839 141.797 258.237 143.522 256.641 145.02ZM36.9141 143.262C36.9141 162.501 36.9141 181.74 36.9141 201.563C40.2962 201.609 40.2962 201.609 43.6523 201.27C44.2102 200.712 43.9872 199.717 43.9904 198.978C43.9917 198.766 43.993 198.554 43.9943 198.337C43.9982 197.622 44 196.908 44.0018 196.194C44.0041 195.684 44.0066 195.174 44.0091 194.664C44.0168 192.983 44.0212 191.303 44.0254 189.623C44.027 189.045 44.0286 188.467 44.0302 187.889C44.0365 185.485 44.042 183.081 44.0453 180.676C44.05 177.229 44.0597 173.782 44.0764 170.335C44.0878 167.912 44.0935 165.489 44.0951 163.067C44.0961 161.619 44.0996 160.172 44.1092 158.725C44.118 157.362 44.1198 156 44.1164 154.637C44.1163 154.137 44.1187 153.638 44.1239 153.139C44.2207 149.533 44.2207 149.533 42.4805 146.485C41.1664 145.173 38.8522 143.262 36.9141 143.262ZM159.54 148.041C159.298 148.102 159.056 148.163 158.807 148.226C156.202 148.92 153.985 149.824 152.051 151.758C152.051 153.982 152.051 156.205 152.051 158.496C180.861 158.496 209.672 158.496 239.355 158.496C237.967 156.857 237.967 156.857 236.483 155.356C236.19 155.082 236.19 155.082 235.891 154.803C235.594 154.529 235.594 154.529 235.291 154.248C235.095 154.065 234.899 153.882 234.697 153.693C232.834 151.96 230.969 150.241 228.9 148.755C228.509 148.472 228.509 148.472 228.109 148.183C227.857 148.009 227.604 147.835 227.344 147.656C227.135 147.503 226.927 147.35 226.712 147.192C225.637 146.657 224.68 146.649 223.506 146.651C223.268 146.648 223.031 146.645 222.786 146.642C221.991 146.633 221.196 146.63 220.401 146.628C219.831 146.623 219.261 146.617 218.691 146.612C217.143 146.597 215.596 146.589 214.048 146.581C212.755 146.574 211.461 146.565 210.168 146.556C206.776 146.531 203.384 146.513 199.993 146.499C197.588 146.488 195.184 146.475 192.78 146.46C189.497 146.441 186.215 146.427 182.932 146.417C181.689 146.414 180.445 146.408 179.201 146.401C177.731 146.393 176.261 146.39 174.79 146.39C174.256 146.389 173.721 146.387 173.187 146.383C168.544 146.351 164.046 146.895 159.54 148.041ZM64.7461 154.395C64.5766 154.529 64.4071 154.664 64.2324 154.802C63.3596 155.506 62.6495 156.21 61.9995 157.123C61.8522 157.327 61.7049 157.532 61.5532 157.742C61.3934 157.97 61.3934 157.97 61.2305 158.203C61.3271 158.397 61.4238 158.59 61.5234 158.789C90.334 158.789 119.145 158.789 148.828 158.789C148.731 156.566 148.635 154.342 148.535 152.051C142.5 147.357 135.643 146.989 128.251 146.972C127.741 146.969 127.23 146.966 126.72 146.962C125.351 146.953 123.983 146.947 122.614 146.942C121.172 146.937 119.731 146.928 118.289 146.92C115.87 146.906 113.451 146.895 111.032 146.885C108.246 146.874 105.46 146.859 102.674 146.843C99.9792 146.827 97.284 146.814 94.5887 146.801C93.4484 146.795 92.3081 146.789 91.1677 146.783C89.8227 146.775 88.4778 146.77 87.1328 146.765C86.6428 146.763 86.1529 146.76 85.6629 146.757C76.8204 146.704 71.6446 148.825 64.7461 154.395ZM60.6445 159.961C60.552 160.675 60.4767 161.383 60.4134 162.099C60.3936 162.317 60.3738 162.535 60.3534 162.76C60.3118 163.225 60.271 163.69 60.2308 164.155C60.1698 164.854 60.104 165.552 60.038 166.25C59.4471 171.205 59.4471 171.205 60.9375 175.781C61.2317 176.14 61.2317 176.14 61.8248 176.111C62.2211 176.111 62.2211 176.111 62.6254 176.11C63.0809 176.111 63.0809 176.111 63.5457 176.112C64.0522 176.111 64.0522 176.111 64.569 176.11C64.9246 176.11 65.2801 176.11 65.6465 176.11C66.6379 176.111 67.6293 176.11 68.6207 176.108C69.6881 176.107 70.7556 176.108 71.823 176.108C73.6739 176.108 75.5248 176.107 77.3757 176.105C80.0518 176.103 82.7279 176.102 85.404 176.102C89.7453 176.101 94.0866 176.099 98.428 176.097C102.646 176.094 106.865 176.092 111.083 176.091C111.343 176.09 111.603 176.09 111.87 176.09C113.174 176.09 114.477 176.09 115.78 176.089C126.601 176.086 137.422 176.081 148.242 176.074C148.337 175.57 148.43 175.066 148.524 174.561C148.602 174.14 148.602 174.14 148.682 173.71C149.132 171.066 149.167 168.423 149.158 165.747C149.159 165.416 149.16 165.084 149.161 164.743C149.161 164.42 149.16 164.097 149.16 163.765C149.16 163.477 149.159 163.189 149.159 162.893C149.116 161.901 148.974 160.942 148.828 159.961C137.636 159.917 126.445 159.875 115.253 159.834C113.933 159.829 112.613 159.825 111.293 159.82C110.899 159.818 110.899 159.818 110.497 159.817C106.237 159.802 101.976 159.785 97.7155 159.768C93.3472 159.751 88.9789 159.735 84.6105 159.719C81.9128 159.71 79.2151 159.7 76.5174 159.688C74.67 159.681 72.8227 159.674 70.9754 159.668C69.9079 159.665 68.8405 159.661 67.773 159.656C66.6185 159.65 65.4639 159.647 64.3094 159.644C63.9683 159.642 63.6272 159.64 63.2757 159.638C62.9689 159.638 62.6622 159.637 62.3462 159.637C61.9458 159.635 61.9459 159.635 61.5374 159.634C60.9394 159.601 60.9394 159.601 60.6445 159.961ZM152.051 159.961C152.003 160.714 151.956 161.466 151.909 162.218C151.895 162.43 151.882 162.642 151.868 162.86C151.739 164.913 151.647 166.965 151.578 169.02C151.564 169.443 151.547 169.866 151.53 170.289C151.504 170.915 151.482 171.54 151.461 172.166C151.448 172.531 151.434 172.895 151.421 173.271C151.468 174.387 151.729 175.302 152.051 176.367C163.026 176.374 174.001 176.379 184.976 176.382C186.272 176.383 187.568 176.383 188.863 176.384C189.121 176.384 189.379 176.384 189.645 176.384C193.822 176.385 197.999 176.387 202.176 176.39C206.461 176.393 210.747 176.394 215.032 176.395C217.677 176.395 220.321 176.397 222.966 176.399C224.779 176.401 226.593 176.401 228.406 176.401C229.452 176.4 230.499 176.401 231.545 176.402C232.68 176.404 233.814 176.403 234.949 176.403C235.279 176.403 235.61 176.404 235.95 176.405C237.508 176.402 238.993 176.35 240.527 176.074C241.557 173.879 241.463 171.438 241.461 169.062C241.461 168.768 241.461 168.475 241.461 168.173C241.668 163.998 241.668 163.998 240.527 160.254C240.055 160.224 239.582 160.215 239.11 160.214C238.801 160.212 238.492 160.21 238.174 160.209C237.83 160.208 237.487 160.208 237.133 160.208C236.772 160.206 236.41 160.205 236.038 160.203C235.029 160.2 234.021 160.197 233.013 160.195C231.928 160.193 230.842 160.189 229.757 160.185C227.875 160.179 225.993 160.173 224.111 160.169C221.39 160.162 218.669 160.154 215.947 160.145C211.533 160.131 207.118 160.119 202.704 160.107C198.415 160.095 194.125 160.083 189.836 160.07C189.572 160.069 189.308 160.069 189.035 160.068C187.71 160.064 186.385 160.06 185.059 160.056C174.056 160.022 163.054 159.991 152.051 159.961ZM242.285 177.246C242.193 177.441 242.101 177.635 242.006 177.836C240.326 181.302 240.326 181.302 239.062 181.934C238.654 181.962 238.244 181.973 237.835 181.974C237.575 181.975 237.315 181.977 237.048 181.978C236.761 181.978 236.473 181.978 236.177 181.979C235.72 181.98 235.72 181.98 235.253 181.982C234.22 181.986 233.186 181.988 232.153 181.99C231.409 181.992 230.665 181.995 229.922 181.998C228.084 182.004 226.247 182.008 224.41 182.013C222.211 182.018 220.011 182.024 217.812 182.031C212.243 182.048 206.673 182.061 201.104 182.074C199.596 182.078 198.088 182.082 196.58 182.085C187.225 182.108 177.87 182.13 168.515 182.148C166.347 182.153 164.178 182.157 162.01 182.162C161.741 182.162 161.472 182.163 161.194 182.163C152.457 182.181 143.72 182.204 134.983 182.231C126.006 182.258 117.028 182.28 108.05 182.296C106.783 182.299 105.516 182.301 104.249 182.303C103.999 182.304 103.75 182.304 103.493 182.305C99.4741 182.312 95.4553 182.325 91.4365 182.339C87.3992 182.353 83.362 182.362 79.3246 182.365C76.9244 182.368 74.5242 182.374 72.124 182.386C70.3342 182.394 68.5444 182.395 66.7546 182.393C66.0286 182.394 65.3027 182.396 64.5768 182.402C63.5933 182.409 62.6103 182.407 61.6269 182.403C61.3421 182.408 61.0574 182.412 60.764 182.416C58.9154 182.395 58.1467 182.064 56.8359 180.762C56.6426 180.762 56.4492 180.762 56.25 180.762C56.25 182.696 56.25 184.629 56.25 186.621C74.1495 186.626 92.0489 186.631 109.948 186.634C110.213 186.634 110.478 186.634 110.751 186.634C116.502 186.635 122.254 186.636 128.006 186.636C130.827 186.637 133.647 186.637 136.468 186.637C136.748 186.637 137.029 186.637 137.318 186.638C146.425 186.639 155.531 186.641 164.637 186.644C173.991 186.646 183.345 186.648 192.698 186.649C194.018 186.649 195.338 186.649 196.657 186.649C196.917 186.649 197.177 186.649 197.444 186.649C201.634 186.65 205.823 186.651 210.013 186.653C214.22 186.654 218.427 186.655 222.633 186.655C225.136 186.654 227.639 186.655 230.141 186.657C231.81 186.658 233.479 186.658 235.147 186.657C236.1 186.657 237.053 186.657 238.005 186.658C239.028 186.659 240.051 186.658 241.074 186.657C241.525 186.659 241.525 186.659 241.985 186.66C242.255 186.659 242.524 186.658 242.802 186.658C243.154 186.658 243.154 186.658 243.512 186.658C244.049 186.679 244.049 186.679 244.336 186.328C244.435 184.976 244.431 183.619 244.446 182.263C244.462 181.69 244.462 181.69 244.479 181.104C244.484 180.555 244.484 180.555 244.489 179.995C244.495 179.658 244.501 179.321 244.507 178.973C244.42 178.068 244.42 178.068 243.631 177.569C242.919 177.208 242.919 177.208 242.285 177.246ZM56.25 189.258C56.25 193.319 56.25 197.379 56.25 201.563C118.318 201.563 180.387 201.563 244.336 201.563C244.336 197.502 244.336 193.442 244.336 189.258C182.268 189.258 120.199 189.258 56.25 189.258ZM45.4102 203.614C45.1999 205.041 44.9914 206.47 44.7843 207.898C44.7137 208.383 44.6427 208.869 44.5712 209.354C44.4682 210.053 44.3668 210.753 44.2657 211.453C44.2337 211.668 44.2017 211.883 44.1687 212.105C43.9995 213.289 43.9124 214.43 43.9453 215.625C45.1624 214.99 46.2168 214.3 47.2778 213.428C48.7893 212.192 50.3667 211.071 51.9704 209.959C53.0357 209.218 54.0823 208.466 55.101 207.662C55.387 207.44 55.387 207.44 55.6787 207.214C56.0344 206.936 56.3864 206.653 56.7337 206.364C59.3086 204.371 63.2364 205.029 66.3402 205.018C66.8639 205.015 67.3876 205.012 67.9113 205.009C69.3579 205.001 70.8046 204.995 72.2512 204.989C73.5131 204.984 74.775 204.978 76.0369 204.972C79.9155 204.953 83.7941 204.937 87.6728 204.922C89.5449 204.915 91.417 204.907 93.2891 204.9C119.014 204.794 144.739 204.76 182.02 204.75C184.978 204.749 187.936 204.749 190.894 204.748C191.187 204.748 191.48 204.747 191.782 204.747C192.373 204.747 192.963 204.747 193.554 204.747C198.945 204.745 204.335 204.744 209.726 204.746C210.263 204.746 210.8 204.746 211.337 204.746C211.6 204.746 211.863 204.746 212.135 204.746C213.966 204.747 215.798 204.746 217.629 204.746C219.835 204.745 222.041 204.745 224.247 204.746C225.361 204.747 226.476 204.747 227.591 204.747C240.172 204.737 240.172 204.737 242.542 206.781C242.986 207.132 243.43 207.481 243.876 207.83C244.097 208.007 244.318 208.184 244.546 208.367C245.608 209.193 246.726 209.927 247.852 210.663C248.285 210.949 248.718 211.234 249.15 211.52C249.367 211.663 249.584 211.805 249.807 211.952C250.534 212.433 251.258 212.918 251.982 213.404C252.347 213.649 252.347 213.649 252.719 213.899C253.19 214.214 253.66 214.531 254.129 214.847C254.339 214.988 254.549 215.128 254.765 215.273C254.951 215.398 255.137 215.523 255.328 215.651C255.718 215.944 255.718 215.944 256.055 215.918C255.858 213.407 255.535 210.922 255.176 208.429C255.124 208.057 255.072 207.686 255.018 207.303C254.967 206.949 254.917 206.595 254.865 206.231C254.796 205.751 254.796 205.751 254.726 205.261C254.629 204.501 254.629 204.501 254.297 203.906C241.978 203.684 229.664 203.57 217.344 203.579C215.054 203.581 212.764 203.58 210.474 203.58C206.254 203.58 202.033 203.581 197.813 203.583C193.65 203.584 189.488 203.585 185.325 203.586C185.064 203.586 184.802 203.586 184.533 203.586C183.204 203.586 181.876 203.586 180.547 203.586C171.204 203.587 161.861 203.589 152.517 203.591C143.456 203.594 134.394 203.596 125.333 203.597C125.052 203.597 124.772 203.597 124.482 203.598C121.663 203.598 118.844 203.598 116.025 203.599C110.285 203.599 104.545 203.6 98.805 203.601C98.5412 203.601 98.2775 203.601 98.0057 203.601C80.4739 203.604 62.942 203.609 45.4102 203.614Z" fill="black"/>
</svg>
