<svg width="300" height="300" viewBox="0 0 300 300" fill="none" xmlns="http://www.w3.org/2000/svg">
<path d="M143.994 67.0017C114.258 68.7595 90.7908 75.322 70.3416 87.6267C65.4783 90.5271 64.4822 91.4646 63.4861 93.9255C63.0174 95.0095 62.0506 96.8259 61.3182 97.9685C57.9783 103.154 55.9568 109.131 55.9568 113.935V115.312L54.4041 115.869C52.119 116.66 49.1307 119.795 47.5486 123.047C45.8787 126.504 45.5565 128.056 45.5857 132.715C45.6443 146.074 53.408 162.656 65.0389 174.345C68.8475 178.154 71.7186 180.527 76.0838 183.427C80.1854 186.123 86.1619 189.111 88.4178 189.58L90.2342 189.961V210.293C90.2342 224.267 90.3221 230.801 90.5564 231.211C90.7322 231.533 91.3475 232.002 91.9334 232.265C92.9295 232.734 97.5584 232.763 149.795 232.851C189.58 232.91 206.953 232.822 207.773 232.617C209.883 232.031 209.765 234.492 209.765 194.443V158.613L208.681 156.797C205.576 151.699 197.285 142.617 191.455 137.9C182.461 130.664 172.002 125.801 161.279 123.896C158.027 123.31 156.445 123.222 150.586 123.222C144.668 123.193 143.174 123.31 139.892 123.896C125.303 126.504 112.734 133.242 101.66 144.404C97.7928 148.301 93.867 152.929 91.5818 156.24L90.2342 158.232V170.273V182.314L89.033 182.109C87.5682 181.875 82.5877 179.297 78.8377 176.865C66.0643 168.486 56.2791 154.248 53.3201 139.746C52.6463 136.494 52.4119 131.015 52.8221 128.613C53.0857 126.943 54.5799 125.185 55.7811 125.039C56.5721 124.951 56.6307 125.039 57.1873 127.002C57.4803 128.115 57.8025 129.082 57.8318 129.111C57.9783 129.258 70.8982 124.16 76.7576 121.67C82.9393 119.062 95.4197 112.881 99.4041 110.508C103.652 107.959 104.678 107.021 105.146 105.234C105.879 102.334 108.633 100.195 114.14 98.2908C115.429 97.822 116.719 97.5291 116.982 97.6462C117.451 97.822 117.48 99.0818 117.48 112.646C117.48 120.791 117.539 127.441 117.597 127.441C117.685 127.441 119.326 126.65 121.26 125.713C123.193 124.746 125.83 123.603 127.119 123.135L129.492 122.314V109.687C129.492 98.0271 129.521 97.031 129.99 96.8552C130.254 96.738 139.424 96.738 150.322 96.8552L170.156 97.0603L170.332 98.115C170.42 98.7009 170.508 103.125 170.508 107.959C170.508 112.793 170.596 118.008 170.683 119.531L170.888 122.344L173.701 123.31C176.396 124.277 181.494 126.592 182.08 127.177C182.226 127.324 182.461 127.441 182.607 127.441C182.754 127.441 182.754 120.879 182.637 112.5C182.461 99.4626 182.49 97.5583 182.871 97.4119C183.486 97.1775 187.91 98.613 190.224 99.8435C192.832 101.191 194.472 103.008 195.234 105.469C195.82 107.256 195.967 107.431 197.9 108.779C200.83 110.83 211.289 115.869 218.115 118.594C228.047 122.519 244.57 127.939 244.775 127.324C244.863 127.148 245.039 125.888 245.215 124.511C246.357 115.136 244.072 104.883 239.297 97.8806C238.476 96.6501 237.363 94.658 236.865 93.4568C235.84 90.9373 235.078 90.2634 230.127 87.2751C215.683 78.6326 195.556 71.6892 176.982 68.9939C165.263 67.2654 152.344 66.5037 143.994 67.0017ZM152.988 143.847C160.459 144.551 167.021 147.685 172.148 152.988C178.535 159.58 181.377 167.109 180.967 176.338C180.674 182.373 179.179 187.06 175.928 192.07C171.943 198.222 165.439 202.939 158.144 204.961C154.775 205.898 148.857 206.22 145.371 205.664C133.154 203.701 123.603 194.97 120.234 182.666C119.502 180 119.414 179.297 119.443 174.756C119.443 170.273 119.502 169.482 120.234 166.875C122.666 157.91 128.408 150.967 136.787 146.748C140.332 144.99 143.965 144.082 149.414 143.584C149.648 143.584 151.26 143.701 152.988 143.847Z" fill="black"/>
<path d="M147.509 147.393C144.257 147.686 141.825 148.36 138.661 149.854C135.351 151.407 133.71 152.52 131.278 154.805C127.704 158.233 125.419 161.807 123.954 166.348C119.647 179.473 126.093 194.151 138.72 199.981C142.821 201.885 144.901 202.295 150.292 202.266C154.687 202.266 155.36 202.178 157.704 201.475C167.577 198.428 174.696 190.899 177.157 180.821C177.772 178.36 177.831 171.973 177.274 169.483C174.14 155.303 161.747 146.104 147.509 147.393ZM154.247 158.643C160.019 160.108 164.53 164.62 166.259 170.596C166.874 172.706 166.962 176.543 166.435 178.711C165.438 182.901 162.421 187.12 158.964 189.112C152.108 193.096 143.759 192.129 138.397 186.739C133.3 181.583 132.157 174.024 135.409 167.286C136.522 164.971 140.009 161.368 142.382 160.108C145.839 158.292 150.526 157.706 154.247 158.643Z" fill="black"/>
<path d="M102.831 113.261C90.2337 120.234 75.7317 126.884 60.5559 132.568C59.7942 132.861 59.0911 133.212 59.0032 133.359C58.7102 133.828 60.5852 137.197 62.0208 138.837C62.7239 139.658 63.8665 140.654 64.5403 141.064C69.0813 143.701 78.3684 141.884 89.7942 136.113C99.6673 131.132 106.406 125.595 108.105 121.054C108.515 119.97 108.691 118.798 108.691 117.158C108.691 114.96 108.046 111.474 107.548 110.976C107.46 110.859 105.322 111.884 102.831 113.261Z" fill="black"/>
<path d="M192.335 111.094C191.456 113.76 191.28 118.301 192.042 120.411C193.126 123.457 195.762 126.534 200.157 129.815C209.151 136.494 223.155 142.061 231.329 142.178C233.761 142.207 234.112 142.149 235.899 141.27C238.36 140.069 240.469 137.813 241.817 134.971C243.546 131.309 244.278 131.983 235.343 128.965C217.178 122.871 206.368 118.36 195.177 112.207C193.243 111.123 192.452 110.801 192.335 111.094Z" fill="black"/>
</svg>
