<svg width="300" height="300" viewBox="0 0 300 300" fill="none" xmlns="http://www.w3.org/2000/svg">
<path d="M138.282 159.668C139.058 160.633 139.633 161.673 140.202 162.768C140.407 163.157 140.611 163.546 140.816 163.935C140.922 164.138 141.028 164.341 141.138 164.55C143.069 168.236 145.052 171.883 147.12 175.494C147.254 175.731 147.388 175.968 147.527 176.212C147.831 176.746 148.142 177.275 148.456 177.803C148.62 178.085 148.784 178.368 148.953 178.659C149.104 178.915 149.256 179.17 149.411 179.433C149.772 180.338 149.716 180.723 149.414 181.641C149.187 182.138 148.939 182.626 148.676 183.105C148.523 183.387 148.37 183.668 148.213 183.958C148.047 184.256 147.882 184.555 147.712 184.863C147.543 185.172 147.374 185.481 147.2 185.8C146.346 187.358 145.476 188.905 144.582 190.441C144.421 190.717 144.261 190.993 144.096 191.278C143.791 191.8 143.483 192.32 143.173 192.839C141.911 194.992 141.682 196.397 142.218 198.853C143.593 205.985 142.236 213.075 138.355 219.214C133.671 225.866 127.2 229.957 119.257 231.537C111.653 232.606 104.312 230.713 98.1449 226.172C97.3933 225.534 96.7379 224.866 96.0942 224.121C95.7407 223.786 95.7407 223.786 95.3801 223.444C91.9816 219.879 89.7748 215.954 88.477 211.23C88.3955 210.944 88.3955 210.944 88.3123 210.652C86.4888 203.557 88.1116 196.059 91.6996 189.844C92.5664 188.476 93.559 187.248 94.6293 186.035C94.8544 185.778 95.0795 185.52 95.3114 185.255C99.9353 180.309 106.739 177.176 113.491 176.888C118.586 176.752 123.003 177.76 127.735 179.59C127.816 179.379 127.897 179.169 127.98 178.952C128.57 177.52 129.309 176.164 130.024 174.792C130.192 174.469 130.36 174.146 130.533 173.813C131.84 171.317 133.206 168.858 134.604 166.411C135.874 164.186 137.094 161.938 138.282 159.668ZM102.247 192.188C98.5278 196.585 97.213 201.187 97.559 206.836C98.1124 210.961 100.172 214.514 103.125 217.383C103.284 217.547 103.442 217.711 103.605 217.881C106.541 220.699 110.891 222.047 114.881 222.162C119.745 221.971 124.717 220.196 128.1 216.561C131.585 212.199 133.062 207.749 132.715 202.148C132.209 198.062 129.972 193.702 126.856 191.016C119.554 185.338 108.839 185.153 102.247 192.188Z" fill="black"/>
<path d="M161.718 159.668C162.497 160.364 162.922 161.08 163.393 162.008C163.619 162.45 163.619 162.45 163.85 162.901C164.011 163.218 164.171 163.535 164.337 163.861C165.607 166.338 166.897 168.801 168.237 171.24C169.319 173.214 170.399 175.188 171.46 177.173C171.572 177.381 171.684 177.589 171.8 177.803C172.558 179.229 172.558 179.229 172.558 179.883C172.835 179.766 173.111 179.649 173.396 179.529C180.326 176.651 187.579 175.895 194.732 178.491C197.905 179.807 200.758 181.394 203.32 183.691C203.585 183.929 203.851 184.167 204.125 184.412C206.228 186.402 207.735 188.522 209.179 191.016C209.324 191.262 209.468 191.509 209.617 191.763C212.691 197.444 213.486 204.941 211.825 211.169C211.726 211.479 211.626 211.79 211.523 212.109C211.438 212.384 211.438 212.384 211.351 212.664C209.875 217.342 207.347 220.963 203.906 224.414C203.699 224.627 203.493 224.841 203.28 225.061C198.484 229.692 191.349 231.898 184.797 231.842C177.277 231.623 170.102 228.473 164.91 223.019C160.45 217.75 157.866 211.424 157.837 204.51C157.835 204.152 157.835 204.152 157.833 203.785C157.851 201.884 158.093 200.08 158.502 198.225C159.039 195.708 158.302 194.338 156.994 192.261C156.678 191.743 156.361 191.225 156.046 190.707C155.875 190.429 155.705 190.151 155.53 189.865C154.625 188.384 153.727 186.9 152.845 185.406C152.549 184.907 152.247 184.41 151.944 183.914C151.763 183.605 151.582 183.297 151.395 182.98C151.231 182.707 151.068 182.434 150.9 182.153C150.507 181.145 150.589 180.624 150.879 179.59C151.206 178.847 151.206 178.847 151.617 178.107C151.77 177.828 151.922 177.55 152.08 177.263C152.245 176.967 152.411 176.672 152.581 176.367C152.753 176.057 152.924 175.746 153.1 175.427C153.455 174.783 153.81 174.14 154.167 173.497C154.94 172.102 155.701 170.701 156.463 169.299C156.749 168.776 157.035 168.253 157.32 167.729C158.274 165.982 159.227 164.235 160.18 162.488C160.478 161.942 160.775 161.397 161.073 160.851C161.198 160.622 161.323 160.393 161.451 160.157C161.54 159.996 161.628 159.834 161.718 159.668ZM171.679 193.066C168.333 197.459 167.445 202.004 167.871 207.422C168.454 211.64 170.863 215.552 174.124 218.242C177.055 220.399 180.341 221.782 183.984 222.07C184.271 222.094 184.271 222.094 184.564 222.118C189.028 222.303 193.379 220.756 196.728 217.822C197.173 217.389 197.614 216.95 198.047 216.504C198.211 216.346 198.375 216.187 198.544 216.024C201.674 212.763 202.892 208.103 202.878 203.713C202.715 198.545 200.311 194.231 196.582 190.723C188.813 184.739 178.213 185.863 171.679 193.066Z" fill="black"/>
<path d="M203.906 68.8468C203.715 70.1666 203.211 71.2946 202.652 72.4917C202.555 72.7014 202.459 72.911 202.359 73.127C202.046 73.8066 201.731 74.4853 201.416 75.1639C201.199 75.634 200.982 76.1041 200.765 76.5743C200.444 77.2722 200.122 77.97 199.8 78.6675C199.034 80.3269 198.279 81.991 197.534 83.66C196.447 86.0869 195.334 88.5011 194.217 90.9142C193.059 93.4187 191.911 95.9279 190.766 98.4385C189.128 102.028 187.478 105.612 185.804 109.185C184.353 112.285 182.921 115.394 181.494 118.505C179.317 123.251 177.122 127.988 174.902 132.714C174.757 133.022 174.757 133.022 174.61 133.337C171.876 139.156 169.112 144.96 166.309 150.746C165.471 152.479 164.638 154.215 163.806 155.95C163.654 156.267 163.502 156.584 163.345 156.91C162.998 157.634 162.651 158.357 162.304 159.081C162.014 159.081 161.724 159.081 161.425 159.081C161.314 158.878 161.202 158.676 161.087 158.467C159.052 154.774 157.003 151.092 154.87 147.454C154.702 147.166 154.534 146.878 154.36 146.582C153.429 144.989 153.429 144.989 152.491 143.4C152.103 142.745 151.719 142.088 151.336 141.43C151.224 141.243 151.111 141.056 150.995 140.864C150.271 139.605 150.271 139.605 150.374 138.887C150.602 138.234 150.882 137.664 151.216 137.059C151.345 136.824 151.475 136.59 151.608 136.348C151.748 136.097 151.888 135.847 152.032 135.589C152.177 135.327 152.323 135.065 152.472 134.796C153.853 132.319 155.287 129.877 156.738 127.441C158.944 123.726 161.128 119.999 163.283 116.255C165.022 113.235 166.776 110.225 168.535 107.216C169.388 105.755 170.241 104.293 171.093 102.831C171.435 102.245 171.777 101.659 172.119 101.073C172.288 100.783 172.457 100.493 172.632 100.194C173.144 99.3155 173.657 98.4366 174.17 97.5577C174.423 97.1229 174.423 97.1229 174.682 96.6792C175.025 96.092 175.367 95.5049 175.71 94.9178C176.553 93.4714 177.397 92.0248 178.24 90.578C179.572 88.293 180.905 86.0085 182.24 83.7258C182.446 83.3739 182.652 83.0217 182.857 82.6694C183.38 81.772 183.909 80.8799 184.453 79.9952C185.439 78.3778 186.345 76.808 187.016 75.032C190.112 66.8509 196.231 67.978 203.906 68.8468Z" fill="black"/>
<path d="M96.3867 68.8476C98.1903 68.7823 99.9932 68.7345 101.798 68.7027C102.411 68.6895 103.024 68.6715 103.637 68.6487C104.52 68.6166 105.402 68.6017 106.286 68.5901C106.559 68.5765 106.832 68.5629 107.113 68.5488C107.914 68.5482 108.521 68.5816 109.277 68.8476C110.054 69.6342 110.538 70.5032 111.035 71.4843C111.192 71.7458 111.349 72.0072 111.51 72.2766C111.63 72.4948 111.751 72.7129 111.875 72.9377C112.017 73.1923 112.159 73.447 112.305 73.7094C112.454 73.9781 112.603 74.2469 112.756 74.5238C114.185 77.0788 115.652 79.6079 117.151 82.1227C118.895 85.0516 120.614 87.994 122.313 90.9493C123.527 93.0593 124.748 95.1643 125.977 97.2655C128.327 101.288 130.652 105.325 132.977 109.363C134.932 112.757 136.891 116.149 138.867 119.531C140.468 122.27 142.062 125.013 143.639 127.765C144.501 129.266 145.367 130.762 146.258 132.245C146.675 132.94 147.089 133.638 147.503 134.336C147.796 134.828 148.095 135.317 148.394 135.806C148.659 136.254 148.659 136.254 148.929 136.711C149.087 136.972 149.244 137.234 149.407 137.503C149.879 138.726 149.604 139.605 149.092 140.777C148.958 141.02 148.824 141.262 148.686 141.512C148.459 141.927 148.459 141.927 148.228 142.351C148.063 142.646 147.899 142.94 147.729 143.243C147.56 143.552 147.39 143.861 147.215 144.179C145.732 146.867 144.222 149.539 142.702 152.206C142.102 153.262 141.514 154.324 140.937 155.392C140.737 155.762 140.737 155.762 140.533 156.139C140.283 156.599 140.037 157.061 139.792 157.524C138.965 159.049 138.965 159.049 137.988 159.375C135.258 153.784 132.57 148.179 129.965 142.528C129.141 140.744 128.31 138.963 127.478 137.183C127.307 136.816 127.136 136.449 126.965 136.083C125.797 133.582 124.626 131.083 123.453 128.584C120.497 122.283 117.568 115.969 114.654 109.648C114.023 108.28 113.391 106.912 112.759 105.544C110.367 100.373 107.983 95.1992 105.631 90.0101C104.689 87.932 103.744 85.8556 102.792 83.7821C99.2264 76.0136 99.2264 76.0136 97.5586 72.1984C97.4369 71.9213 97.3151 71.6443 97.1897 71.3588C97.0818 71.1098 96.974 70.8608 96.8628 70.6042C96.7234 70.2833 96.7234 70.2833 96.5813 69.9559C96.3867 69.4335 96.3867 69.4335 96.3867 68.8476Z" fill="black"/>
<path d="M152.837 154.442C154.274 155.362 155.174 156.252 155.768 157.873C156.036 159.696 155.907 161.287 154.98 162.89C153.819 164.188 152.549 165.133 150.785 165.296C148.764 165.372 147.548 165.018 145.99 163.677C144.684 162.16 144.261 160.922 144.333 158.943C144.528 157.507 145.033 156.382 146.109 155.398C148.063 153.949 150.535 153.443 152.837 154.442Z" fill="black"/>
<path d="M99.6094 181.641C99.8027 181.737 99.9961 181.834 100.195 181.934C99.9023 182.227 99.6094 182.52 99.3164 182.812C99.0928 183.048 98.8693 183.284 98.6389 183.527C97.8409 184.288 97.0152 184.848 96.0938 185.449C95.38 186.065 95.2298 186.283 94.9219 187.207C94.544 187.61 94.1523 188 93.75 188.379C93.5808 188.548 93.4116 188.717 93.2373 188.892C93.1165 189.012 92.9956 189.133 92.8711 189.258C92.6777 189.161 92.4844 189.064 92.2852 188.965C94.4663 186.206 96.6545 183.59 99.6094 181.641Z" fill="black"/>
<path d="M161.719 159.668C162.59 160.414 163.012 161.266 163.477 162.305C163.477 162.498 163.477 162.691 163.477 162.891C163.187 162.987 162.896 163.084 162.598 163.184C162.598 162.99 162.598 162.797 162.598 162.598C161.728 162.453 161.728 162.453 160.84 162.305C160.84 162.498 160.84 162.691 160.84 162.891C160.646 162.891 160.453 162.891 160.254 162.891C160.613 161.703 161.045 160.71 161.719 159.668Z" fill="black"/>
<path d="M96.3867 68.8477C100.641 68.8477 104.895 68.8477 109.277 68.8477C109.277 68.9443 109.277 69.041 109.277 69.1406C108.917 69.1449 108.556 69.1492 108.184 69.1536C106.848 69.1705 105.513 69.1932 104.178 69.2175C103.599 69.2273 103.02 69.2355 102.442 69.2421C101.611 69.2519 100.781 69.2672 99.9504 69.2837C99.6907 69.2855 99.431 69.2874 99.1634 69.2893C98.9229 69.2951 98.6825 69.3009 98.4348 69.3069C98.2227 69.3102 98.0106 69.3134 97.7921 69.3168C97.1436 69.3969 97.1436 69.3969 96.6797 70.3125C96.583 69.8291 96.4863 69.3457 96.3867 68.8477Z" fill="black"/>
<path d="M161.719 159.668C162.451 160.305 162.725 160.761 162.891 161.719C162.601 161.719 162.311 161.719 162.012 161.719C161.818 161.525 161.625 161.332 161.426 161.133C161.536 160.364 161.536 160.364 161.719 159.668Z" fill="black"/>
</svg>
