<svg width="300" height="300" viewBox="0 0 300 300" fill="none" xmlns="http://www.w3.org/2000/svg">
<path d="M162.971 77.7562C163.277 77.7561 163.583 77.7561 163.899 77.7561C164.542 77.7577 165.184 77.7628 165.827 77.7713C166.812 77.7837 167.798 77.7833 168.783 77.7813C169.409 77.7844 170.035 77.7882 170.661 77.7928C170.956 77.7928 171.251 77.7929 171.555 77.793C171.964 77.8 171.964 77.8 172.382 77.8071C172.622 77.8096 172.862 77.812 173.109 77.8146C173.879 77.9576 174.14 78.1915 174.609 78.809C174.814 79.9953 174.772 81.1958 174.774 82.3979C174.79 82.8902 174.79 82.8902 174.807 83.3924C174.821 86.1069 174.821 86.1069 173.947 87.2502C172.57 88.5751 170.866 89.4966 169.226 90.4545C168.866 90.6686 168.506 90.883 168.146 91.0977C167.382 91.5528 166.617 92.0056 165.85 92.4567C164.624 93.1784 163.4 93.9057 162.178 94.6339C160.792 95.4588 159.406 96.2829 158.017 97.1037C157.652 97.3199 157.288 97.5366 156.923 97.7538C155.964 98.3254 155 98.8882 154.029 99.4404C153.826 99.5577 153.623 99.6749 153.414 99.7957C153.025 100.021 152.634 100.243 152.241 100.461C151.25 100.998 151.25 100.998 150.684 101.92C150.521 102.954 150.521 103.994 150.504 105.038C150.496 105.401 150.496 105.401 150.487 105.771C150.47 106.543 150.455 107.315 150.44 108.088C150.42 109.103 150.398 110.119 150.375 111.135C150.371 111.367 150.368 111.6 150.363 111.839C150.338 112.97 150.271 114.037 150 115.137C150.302 115.175 150.302 115.175 150.61 115.214C150.874 115.255 151.138 115.296 151.41 115.339C151.672 115.376 151.933 115.413 152.203 115.452C152.93 115.723 152.93 115.723 153.409 116.295C153.972 117.552 153.918 118.662 153.895 120.023C153.893 120.294 153.892 120.565 153.891 120.844C153.886 121.707 153.875 122.569 153.864 123.432C153.859 124.018 153.855 124.604 153.852 125.19C153.842 126.624 153.827 128.058 153.809 129.493C153.998 129.492 154.187 129.492 154.381 129.491C158.999 129.478 163.616 129.468 168.234 129.462C170.467 129.459 172.7 129.455 174.933 129.448C176.882 129.443 178.83 129.439 180.779 129.437C181.809 129.437 182.838 129.435 183.868 129.431C194.089 129.39 194.089 129.39 198.578 130.683C198.794 130.745 199.009 130.807 199.231 130.87C207.478 133.378 214.405 138.906 218.566 146.451C221.247 151.513 221.823 156.625 221.847 162.283C221.848 162.519 221.85 162.754 221.851 162.996C221.857 164.238 221.861 165.48 221.864 166.722C221.867 168.003 221.877 169.284 221.889 170.565C221.897 171.553 221.899 172.541 221.9 173.529C221.901 174.001 221.905 174.474 221.91 174.946C221.917 175.605 221.917 176.264 221.915 176.923C221.918 177.485 221.918 177.485 221.92 178.058C221.752 179.173 221.496 179.508 220.606 180.176C219.437 180.566 218.314 180.515 217.095 180.516C216.691 180.519 216.691 180.519 216.279 180.521C215.388 180.525 214.496 180.527 213.604 180.529C212.985 180.53 212.366 180.532 211.746 180.534C210.447 180.537 209.149 180.539 207.85 180.54C206.185 180.541 204.521 180.548 202.856 180.557C201.577 180.562 200.297 180.564 199.018 180.564C198.404 180.565 197.791 180.567 197.177 180.571C196.319 180.576 195.46 180.576 194.602 180.574C194.348 180.576 194.095 180.579 193.833 180.582C192.46 180.572 191.543 180.489 190.43 179.59C190.085 178.901 190.091 178.469 190.077 177.701C190.071 177.431 190.065 177.161 190.059 176.883C190.054 176.591 190.049 176.3 190.044 175.999C190.038 175.701 190.032 175.403 190.026 175.095C190.006 174.14 189.989 173.185 189.972 172.229C189.959 171.583 189.947 170.936 189.934 170.29C189.902 168.702 189.872 167.115 189.844 165.528C189.163 165.187 188.769 165.197 188.01 165.194C187.746 165.193 187.483 165.191 187.212 165.189C186.92 165.189 186.629 165.189 186.329 165.188C186.021 165.187 185.713 165.186 185.396 165.184C184.357 165.18 183.318 165.177 182.28 165.175C181.538 165.172 180.796 165.169 180.054 165.166C178.453 165.16 176.853 165.154 175.252 165.15C172.938 165.143 170.623 165.135 168.309 165.126C164.554 165.112 160.8 165.099 157.045 165.088C153.397 165.076 149.749 165.064 146.101 165.051C145.764 165.05 145.764 165.05 145.42 165.048C144.293 165.044 143.165 165.04 142.038 165.036C132.68 165.003 123.323 164.972 113.965 164.942C113.966 165.234 113.967 165.526 113.967 165.827C113.987 172.927 114.001 180.027 114.01 187.128C114.015 190.561 114.021 193.995 114.031 197.429C114.04 200.42 114.046 203.412 114.048 206.404C114.049 207.989 114.051 209.574 114.058 211.159C114.064 212.65 114.066 214.14 114.064 215.631C114.065 216.179 114.066 216.727 114.07 217.275C114.074 218.022 114.073 218.768 114.071 219.514C114.073 219.733 114.076 219.952 114.078 220.177C114.071 221.015 114.057 221.631 113.606 222.352C112.93 222.748 112.479 222.766 111.696 222.766C111.41 222.768 111.124 222.77 110.83 222.773C110.517 222.77 110.203 222.768 109.881 222.766C109.385 222.767 109.385 222.767 108.88 222.769C107.786 222.771 106.691 222.767 105.597 222.763C104.838 222.763 104.08 222.763 103.321 222.764C101.73 222.764 100.139 222.761 98.5483 222.755C96.7086 222.749 94.8689 222.748 93.0291 222.75C91.2597 222.751 89.4904 222.75 87.7211 222.746C86.9679 222.745 86.2147 222.745 85.4615 222.745C84.41 222.746 83.3586 222.742 82.3072 222.737C81.9939 222.738 81.6807 222.739 81.3579 222.739C81.0721 222.737 80.7862 222.735 80.4916 222.733C80.243 222.732 79.9943 222.732 79.7381 222.731C79.1017 222.657 79.1017 222.657 78.2228 222.071C78.1126 221.409 78.1126 221.409 78.1122 220.564C78.1099 220.242 78.1076 219.921 78.1052 219.59C78.1072 219.234 78.1091 218.878 78.1112 218.512C78.1098 218.136 78.1084 217.76 78.107 217.373C78.1033 216.327 78.1051 215.28 78.1079 214.234C78.1098 213.107 78.1068 211.98 78.1044 210.853C78.1004 208.643 78.1013 206.434 78.1038 204.224C78.1058 202.429 78.1061 200.634 78.1051 198.839C78.105 198.584 78.1049 198.329 78.1047 198.066C78.1045 197.548 78.1042 197.03 78.1039 196.512C78.1014 191.649 78.1043 186.786 78.109 181.923C78.1129 177.747 78.1122 173.57 78.1082 169.394C78.1035 164.549 78.1016 159.704 78.1043 154.859C78.1046 154.343 78.1049 153.826 78.1051 153.31C78.1053 153.056 78.1054 152.802 78.1056 152.54C78.1063 150.747 78.105 148.953 78.103 147.159C78.1005 144.974 78.1012 142.79 78.1058 140.605C78.1082 139.49 78.1091 138.374 78.1062 137.258C78.1031 136.051 78.1067 134.844 78.1112 133.637C78.1092 133.282 78.1072 132.926 78.1052 132.559C78.1075 132.238 78.1098 131.917 78.1122 131.586C78.1123 131.307 78.1124 131.028 78.1126 130.741C78.1671 130.413 78.1671 130.413 78.2228 130.079C79.2128 129.419 79.5393 129.42 80.6977 129.422C81.0293 129.421 81.3608 129.421 81.7024 129.42C82.0663 129.422 82.4302 129.424 82.8052 129.426C83.1882 129.426 83.5713 129.426 83.9659 129.426C85.0166 129.426 86.0673 129.429 87.1181 129.433C88.216 129.437 89.3139 129.437 90.4119 129.438C92.4912 129.44 94.5704 129.445 96.6497 129.45C99.0168 129.457 101.384 129.46 103.751 129.463C108.621 129.469 113.49 129.48 118.359 129.493C118.353 128.945 118.353 128.945 118.346 128.386C118.33 127.03 118.32 125.673 118.311 124.316C118.307 123.729 118.301 123.142 118.293 122.556C118.282 121.711 118.278 120.867 118.274 120.023C118.269 119.761 118.265 119.499 118.26 119.23C118.26 117.828 118.298 116.848 119.238 115.723C120.059 115.527 120.729 115.653 121.582 115.723C121.471 115.494 121.361 115.265 121.246 115.029C120.832 114.172 120.417 113.314 120.003 112.456C119.825 112.086 119.646 111.717 119.467 111.347C119.208 110.813 118.95 110.278 118.692 109.744C118.538 109.423 118.383 109.102 118.223 108.772C116.644 105.403 116.644 105.403 116.895 103.711C118.172 102.095 119.994 101.241 121.765 100.251C122.454 99.8593 123.143 99.4676 123.832 99.0754C124.097 98.9247 124.097 98.9247 124.368 98.7711C126.261 97.6948 128.134 96.5851 130.005 95.4716C130.336 95.2751 130.666 95.0786 131.007 94.8762C131.659 94.4887 132.311 94.1012 132.963 93.7135C134.343 92.8932 135.726 92.0766 137.109 91.2602C138.184 90.6255 139.258 89.9907 140.332 89.3559C140.78 89.0911 140.78 89.0911 141.237 88.821C144.365 86.9721 147.492 85.1214 150.607 83.2493C150.903 83.0714 150.903 83.0714 151.205 82.8899C152.162 82.3141 153.12 81.7378 154.076 81.1606C154.427 80.9493 154.778 80.738 155.129 80.5268C155.585 80.2516 155.585 80.2516 156.051 79.971C156.536 79.6858 156.536 79.6858 157.031 79.395C157.226 79.2662 157.42 79.1375 157.62 79.0048C159.417 77.8792 160.876 77.7216 162.971 77.7562ZM154.933 86.7579C153.953 87.4029 152.951 88.002 151.94 88.5976C151.23 89.0167 150.525 89.4431 149.82 89.8709C147.944 91.005 146.051 92.1121 144.159 93.2194C143.98 93.3243 143.801 93.4291 143.616 93.5371C142.698 94.0749 141.779 94.6125 140.86 95.1499C137.655 97.0243 134.452 98.9021 131.25 100.782C130.93 100.969 130.61 101.157 130.281 101.351C129.389 101.874 128.498 102.399 127.606 102.924C127.346 103.077 127.086 103.229 126.818 103.387C125.535 104.144 124.277 104.92 123.047 105.762C123.228 106.885 123.562 107.799 124.053 108.823C124.266 109.268 124.266 109.268 124.483 109.722C124.631 110.029 124.78 110.335 124.933 110.651C125.08 110.961 125.228 111.271 125.38 111.59C126.098 113.185 126.098 113.185 127.149 114.551C127.891 114.641 127.891 114.641 128.766 114.627C129.104 114.629 129.442 114.631 129.791 114.633C130.341 114.631 130.341 114.631 130.902 114.629C131.465 114.63 131.465 114.63 132.038 114.631C132.832 114.632 133.626 114.63 134.42 114.628C135.439 114.624 136.458 114.626 137.476 114.63C138.447 114.632 139.417 114.63 140.387 114.629C140.754 114.63 141.121 114.631 141.499 114.633C142.006 114.63 142.006 114.63 142.524 114.627C142.822 114.627 143.121 114.626 143.429 114.626C144.194 114.621 144.194 114.621 144.727 113.965C145.106 112.076 145.058 110.093 145.061 108.173C145.066 107.642 145.072 107.111 145.078 106.58C145.087 105.755 145.093 104.93 145.093 104.105C145.094 103.301 145.104 102.496 145.116 101.691C145.114 101.445 145.112 101.199 145.109 100.946C145.135 99.7046 145.19 99.1805 145.978 98.1748C146.655 97.6537 147.302 97.1812 148.042 96.7579C148.286 96.6165 148.53 96.475 148.781 96.3293C149.176 96.1041 149.176 96.1041 149.579 95.8744C150.159 95.5381 150.738 95.2013 151.317 94.8639C151.625 94.6848 151.934 94.5056 152.251 94.3211C153.966 93.314 155.663 92.2773 157.361 91.2419C158.055 90.8187 158.75 90.3956 159.445 89.9727C159.697 89.8191 159.697 89.8191 159.955 89.6624C161.026 89.0109 162.101 88.3649 163.178 87.7228C163.577 87.4849 163.577 87.4849 163.984 87.2422C164.469 86.954 164.953 86.6664 165.439 86.3798C166.788 85.5768 168.095 84.7535 169.336 83.7895C169.336 83.5961 169.336 83.4028 169.336 83.2035C163.504 82.5811 159.802 83.5375 154.933 86.7579ZM123.926 120.411C123.829 125.051 123.733 129.692 123.633 134.473C122.878 134.851 122.332 134.807 121.486 134.812C121.155 134.815 120.824 134.818 120.483 134.821C120.118 134.823 119.753 134.824 119.377 134.826C118.994 134.829 118.611 134.832 118.216 134.835C117.164 134.843 116.112 134.849 115.06 134.855C113.962 134.861 112.863 134.869 111.764 134.877C109.683 134.892 107.601 134.905 105.52 134.918C103.151 134.932 100.782 134.948 98.4124 134.964C93.538 134.998 88.6636 135.029 83.7892 135.059C83.5063 135.908 83.4611 136.432 83.4647 137.313C83.4652 137.598 83.4656 137.882 83.466 138.175C83.468 138.489 83.47 138.802 83.4721 139.124C83.473 139.457 83.474 139.789 83.475 140.131C83.4785 141.25 83.4842 142.368 83.4898 143.487C83.493 144.287 83.4957 145.087 83.4984 145.886C83.5044 147.611 83.5116 149.335 83.5195 151.06C83.5309 153.553 83.5407 156.047 83.55 158.54C83.5653 162.586 83.5819 166.631 83.5993 170.676C83.6162 174.606 83.6325 178.536 83.6479 182.467C83.6489 182.709 83.6498 182.951 83.6508 183.2C83.6556 184.415 83.6603 185.63 83.6651 186.845C83.7045 196.927 83.7464 207.009 83.7892 217.09C91.9103 217.09 100.031 217.09 108.399 217.09C108.495 198.238 108.592 179.385 108.692 159.961C129.33 159.914 129.33 159.914 137.945 159.904C139.917 159.902 141.889 159.899 143.861 159.897C144.108 159.897 144.355 159.896 144.61 159.896C148.599 159.891 152.588 159.882 156.578 159.871C160.672 159.86 164.767 159.853 168.861 159.851C171.388 159.85 173.914 159.844 176.44 159.835C178.173 159.829 179.906 159.827 181.638 159.828C182.638 159.829 183.637 159.828 184.637 159.822C185.721 159.816 186.806 159.817 187.89 159.82C188.205 159.817 188.52 159.814 188.844 159.81C190.771 159.825 192.008 160.107 193.652 161.133C194.191 161.806 194.191 161.806 194.513 162.525C194.624 162.759 194.736 162.993 194.851 163.234C195.958 166.675 195.601 171.945 195.703 174.903C202.471 174.903 209.238 174.903 216.211 174.903C216.235 171.9 216.259 168.897 216.284 165.802C216.295 164.864 216.306 163.925 216.317 162.957C216.32 162.199 216.323 161.441 216.325 160.683C216.331 160.301 216.337 159.919 216.344 159.525C216.345 155.918 215.631 152.511 213.922 149.305C213.822 149.11 213.721 148.915 213.618 148.715C212.788 147.149 211.805 145.774 210.645 144.434C210.37 144.076 210.37 144.076 210.09 143.711C205.982 138.773 199.046 135.816 192.774 135.059C189.669 134.86 186.553 134.9 183.443 134.91C182.236 134.912 181.028 134.907 179.821 134.903C177.025 134.894 174.229 134.894 171.433 134.894C167.857 134.895 164.282 134.892 160.706 134.88C159.271 134.876 157.836 134.876 156.401 134.879C155.512 134.881 154.624 134.878 153.736 134.875C153.323 134.874 152.91 134.875 152.498 134.878C151.936 134.881 151.375 134.878 150.813 134.875C150.499 134.875 150.184 134.875 149.86 134.875C149.616 134.839 149.372 134.803 149.121 134.766C148.506 133.844 148.459 133.606 148.442 132.55C148.436 132.277 148.43 132.003 148.424 131.721C148.421 131.435 148.417 131.148 148.414 130.853C148.409 130.589 148.404 130.325 148.398 130.053C148.38 129.067 148.366 128.08 148.352 127.094C148.316 124.888 148.28 122.683 148.242 120.411C140.218 120.411 132.193 120.411 123.926 120.411Z" fill="black"/>
<path d="M118.36 102.246C118.553 102.343 118.746 102.439 118.946 102.539C117.847 103.967 117.847 103.967 117.188 104.297C117.188 104.78 117.188 105.264 117.188 105.762C117.091 105.762 116.994 105.762 116.895 105.762C116.803 104.828 116.803 104.828 116.895 103.711C117.627 102.85 117.627 102.85 118.36 102.246Z" fill="black"/>
</svg>
