<svg width="300" height="300" viewBox="0 0 300 300" fill="none" xmlns="http://www.w3.org/2000/svg">
<path d="M113.087 120.703C113.206 121.065 113.326 121.426 113.449 121.799C116.261 130.391 116.261 130.391 121.546 137.599C122.169 138.282 122.169 138.282 122.169 138.867C122.338 138.941 122.506 139.014 122.68 139.089C123.431 139.503 123.922 139.986 124.531 140.589C127.773 143.549 131.682 145.947 135.938 147.071C136.256 147.156 136.573 147.241 136.9 147.329C146.669 149.595 160.687 150.06 169.602 144.812C170.513 144.224 171.391 143.608 172.266 142.969C172.424 142.855 172.582 142.741 172.744 142.624C180.547 136.935 184.977 130.214 186.622 120.703C191.35 119.69 196.498 122.32 200.392 124.785C205.001 127.803 209.43 131.877 212.403 136.524C212.601 136.822 212.799 137.121 213.003 137.429C216.061 142.355 216.828 147.606 216.873 153.315C216.877 153.733 216.881 154.152 216.886 154.57C216.924 158.367 216.943 162.165 216.958 165.963C216.97 168.766 216.99 171.569 217.021 174.373C217.043 176.349 217.054 178.325 217.058 180.302C217.06 181.48 217.067 182.659 217.085 183.837C217.102 184.945 217.106 186.052 217.101 187.16C217.101 187.565 217.106 187.971 217.116 188.376C217.185 191.427 217.185 191.427 216.231 192.58C215.563 193.111 214.909 193.538 214.161 193.946C213.955 194.067 213.748 194.189 213.536 194.314C212.997 194.626 212.451 194.902 211.89 195.172C211.691 195.27 211.491 195.368 211.285 195.469C208.072 197.004 204.858 197.801 201.307 197.846C201.083 197.854 200.859 197.863 200.628 197.871C198.693 197.893 197.132 197.372 195.704 196.033C195.274 195.119 195.214 194.655 195.411 193.653C196.021 192.884 196.727 192.248 197.462 191.602C199.06 190.09 199.47 188.846 199.54 186.636C199.584 184.843 199.584 184.843 199.22 183.106C199.039 183.215 198.858 183.324 198.671 183.436C197.149 184.287 196.001 184.812 194.252 184.487C193.059 184.07 192.227 183.353 191.56 182.266C191.269 181.541 191.235 181 191.234 180.22C191.232 179.934 191.23 179.649 191.228 179.355C191.228 179.043 191.229 178.732 191.23 178.411C191.228 177.918 191.228 177.918 191.225 177.414C191.222 176.698 191.221 175.983 191.22 175.268C191.219 174.137 191.214 173.005 191.208 171.874C191.194 169.063 191.185 166.253 191.178 163.443C191.173 161.068 191.165 158.694 191.151 156.32C191.147 155.57 191.146 154.82 191.146 154.069C191.146 153.021 191.14 151.972 191.134 150.924C191.135 150.613 191.136 150.303 191.138 149.982C191.127 148.84 191.084 147.867 190.734 146.775C189.819 145.88 188.721 145.627 187.501 145.313C187.506 145.687 187.511 146.061 187.517 146.447C187.564 149.994 187.599 153.54 187.622 157.087C187.634 158.91 187.651 160.733 187.678 162.556C187.703 164.319 187.717 166.081 187.723 167.844C187.727 168.513 187.736 169.182 187.749 169.851C187.886 177.388 184.929 182.523 179.797 187.87C171.881 195.888 161.183 199.828 150.001 199.915C144.964 199.88 140.104 199.141 135.352 197.461C135.147 197.389 134.942 197.316 134.73 197.242C124.808 193.645 117.575 186.177 112.794 176.953C112.634 176.65 112.634 176.65 112.472 176.341C112.081 175.079 112.131 173.865 112.141 172.552C112.141 172.258 112.141 171.963 112.141 171.66C112.141 170.688 112.146 169.716 112.151 168.745C112.152 168.07 112.153 167.396 112.153 166.721C112.155 164.947 112.161 163.174 112.168 161.4C112.174 159.589 112.176 157.778 112.179 155.968C112.185 152.416 112.195 148.864 112.208 145.313C110.38 145.959 110.38 145.959 108.974 147.234C108.575 148.662 108.571 150.004 108.579 151.48C108.578 151.803 108.576 152.126 108.575 152.459C108.572 153.16 108.571 153.86 108.572 154.56C108.573 155.668 108.569 156.776 108.564 157.884C108.553 160.237 108.549 162.589 108.546 164.942C108.542 167.668 108.536 170.394 108.522 173.12C108.518 174.212 108.52 175.303 108.521 176.395C108.518 177.064 108.515 177.734 108.512 178.403C108.514 178.707 108.516 179.01 108.517 179.322C108.504 180.902 108.418 182.038 107.52 183.399C106.393 184.456 105.156 184.391 103.687 184.423C102.527 184.226 101.777 183.729 100.782 183.106C100.748 184.088 100.727 185.071 100.709 186.054C100.699 186.33 100.689 186.606 100.679 186.891C100.647 189.157 101.048 190.372 102.655 192.034C103.131 192.457 103.607 192.878 104.084 193.298C104.591 193.946 104.591 193.946 104.552 194.71C104.107 195.936 103.464 196.666 102.358 197.35C101.187 197.828 100.159 197.899 98.9143 197.882C98.6833 197.88 98.4522 197.878 98.2141 197.875C93.1881 197.734 87.6136 195.796 83.7898 192.481C83.0921 191.434 83.1312 190.986 83.1327 189.744C83.1322 189.555 83.1316 189.366 83.1311 189.171C83.13 188.537 83.1332 187.903 83.1364 187.269C83.1366 186.816 83.1365 186.363 83.1363 185.911C83.1365 184.682 83.1407 183.454 83.1459 182.226C83.149 181.459 83.1512 180.692 83.1531 179.925C83.1607 177.003 83.1735 174.082 83.1904 171.16C83.1996 169.578 83.2072 167.996 83.2134 166.414C83.2238 163.713 83.2411 161.011 83.2656 158.31C83.2738 157.392 83.2795 156.473 83.283 155.555C83.3295 144.741 83.3295 144.741 85.7491 140.277C85.85 140.085 85.951 139.893 86.055 139.694C90.689 131.072 98.9859 124.142 108.242 120.938C109.969 120.457 111.331 120.332 113.087 120.703Z" fill="black"/>
<path d="M171.27 67.9142C173.652 70.0836 175.673 72.1702 177.247 75.0003C177.449 75.3567 177.449 75.3567 177.655 75.7202C179.52 79.2078 180.109 82.8072 180.621 86.6859C180.848 88.3285 181.052 89.6958 181.934 91.1136C182.843 91.0097 183.328 90.8796 184.042 90.2908C185.014 89.5318 186.001 89.044 187.116 88.5318C187.332 88.4311 187.548 88.3303 187.77 88.2264C189.359 87.4966 190.973 86.8581 192.609 86.243C195.773 85.0454 199.35 83.4505 201.087 80.3653C201.76 78.8551 201.943 77.2143 202.149 75.5863C203.025 75.6838 203.5 75.773 204.154 76.3816C208.373 82.0431 208.906 88.6948 208.005 95.5258C206.861 103.243 203.33 109.22 197.169 113.947C194.546 115.822 191.045 117.933 187.794 118.36C187.304 118.27 186.815 118.173 186.329 118.067C186.13 116.95 185.936 115.833 185.743 114.716C185.659 114.246 185.659 114.246 185.574 113.767C184.888 109.764 184.963 106.139 187.276 102.63C189.513 99.7058 192.44 98.6266 195.746 97.3086C199.484 95.8321 199.484 95.8321 202.442 93.1644C202.442 92.8744 202.442 92.5843 202.442 92.2855C202.302 92.3886 202.162 92.4917 202.018 92.5979C199.117 94.5369 195.581 95.5424 192.218 96.3916C189.779 97.0289 188.344 98.0735 186.622 99.9027C186.45 100.069 186.279 100.235 186.102 100.406C183.548 103.051 183.045 106.576 183.033 110.083C183.032 110.384 183.031 110.684 183.029 110.994C183.043 112.811 183.189 114.514 183.564 116.291C184.581 121.164 183.549 125.803 181.055 130.078C177.12 135.933 169.492 143.285 162.347 144.868C154.792 146.117 146.441 146.212 138.868 145.02C138.38 144.945 138.38 144.945 137.883 144.868C132.514 143.788 128.06 139.598 124.219 135.938C124.002 135.736 123.784 135.534 123.56 135.326C119.424 131.375 116.385 125.936 116.223 120.15C116.205 118.102 116.443 116.13 116.761 114.109C117.318 109.853 117.005 105.02 114.551 101.368C112.256 98.3828 109.977 96.9848 106.403 95.9476C103.142 94.9546 100.217 93.7045 97.2663 91.9925C99.1129 95.2842 102.41 96.4651 105.716 97.8724C109.657 99.5704 112.334 101.244 113.977 105.351C115.1 108.914 115.096 114.927 113.38 118.36C111.671 118.212 110.319 117.866 108.765 117.151C108.562 117.059 108.359 116.967 108.15 116.872C104.709 115.284 101.985 113.407 99.3171 110.743C98.9908 110.421 98.9908 110.421 98.6579 110.094C93.2801 104.453 91.5708 96.2401 91.6553 88.7012C91.7664 84.0635 92.9973 78.9136 96.3691 75.513C96.5685 75.3439 96.7679 75.1747 96.9734 75.0003C97.4084 75.1454 97.4084 75.1454 97.8523 75.2933C98.1118 76.0719 98.1783 76.5795 98.2185 77.3807C98.4934 79.8753 99.8395 81.6417 101.735 83.2138C104.486 85.1819 107.563 86.4205 110.698 87.6366C113.226 88.6247 115.552 89.845 117.774 91.4066C119.315 89.8661 119.411 88.086 119.645 86.0096C120.3 80.3181 122.181 75.2742 125.977 70.8988C126.164 70.6563 126.351 70.4139 126.544 70.1641C131.05 64.729 138.659 62.2951 145.434 61.5819C154.433 60.8915 164.14 61.84 171.27 67.9142ZM128.614 96.3871C127.696 97.7347 127.455 99.1678 127.442 100.782C127.539 100.975 127.635 101.168 127.735 101.368C128.931 100.825 129.856 100.045 130.865 99.216C132.497 98.049 134.259 97.7866 136.231 97.8519C137.346 98.0423 138.439 98.3194 139.537 98.5874C141.591 99.0767 143.849 99.6135 145.813 98.6244C146.732 97.9685 147.007 97.4591 147.364 96.3871C147.388 95.4791 147.346 94.6191 147.071 93.7503C146.781 93.557 146.491 93.3636 146.192 93.1644C145.999 93.3517 145.805 93.539 145.606 93.732C144.355 94.5919 143.159 94.7569 141.682 94.5137C140.933 94.332 140.194 94.1299 139.454 93.9151C135.162 92.6894 131.758 92.9173 128.614 96.3871ZM153.223 93.1644C152.434 94.3489 152.443 95.2888 152.637 96.68C153.247 97.8776 153.738 98.5321 154.981 99.0238C157.299 99.3459 159.479 98.8698 161.704 98.2689C164.365 97.5646 166.778 97.7701 169.19 99.1497C170.247 99.8483 171.255 100.606 172.266 101.368C172.744 100.89 172.621 100.358 172.633 99.7013C172.595 97.6425 171.951 96.5828 170.49 95.1603C168.399 93.388 166.162 92.9505 163.477 93.1644C162.224 93.4126 161.004 93.7767 159.778 94.1343C158.142 94.5821 156.941 94.7022 155.274 94.3363C154.432 93.732 154.432 93.732 153.809 93.1644C153.616 93.1644 153.423 93.1644 153.223 93.1644ZM140.076 105.909C138.783 107.524 138.503 109.232 138.623 111.266C138.804 112.47 139.003 113.194 139.802 114.13C141.716 115.108 143.527 114.784 145.551 114.423C149.034 113.81 152.06 113.98 155.531 114.609C157.321 114.892 158.95 114.946 160.548 113.965C161.514 112.399 161.61 110.391 161.225 108.619C160.454 106.415 159.354 105.343 157.325 104.297C156.35 103.972 155.605 103.965 154.578 103.968C154.25 103.967 153.921 103.966 153.583 103.965C152.738 104 151.996 104.123 151.173 104.297C150.734 104.323 150.294 104.335 149.854 104.334C149.64 104.335 149.425 104.335 149.204 104.336C148.536 104.297 148.536 104.297 147.827 104.153C144.952 103.587 142.199 103.782 140.076 105.909ZM130.958 116.016C128.44 119.528 128.463 125.364 129.021 129.451C129.48 131.39 130.478 132.505 132.13 133.594C134.438 134.363 136.879 133.935 139.179 133.338C146.231 131.518 153.6 131.829 160.676 133.338C164.86 134.259 164.86 134.259 168.862 133.089C169.889 132.28 170.396 131.295 170.801 130.078C171.386 122.558 171.386 122.558 168.649 115.853C167.593 114.857 166.667 114.551 165.235 114.551C163.712 115.022 162.643 115.789 161.424 116.806C159.707 117.93 157.096 117.671 155.176 117.284C154.84 117.204 154.504 117.124 154.157 117.041C150.761 116.265 147.701 116.557 144.344 117.289C141.992 117.707 139.923 117.498 137.913 116.162C137.697 116.005 137.48 115.848 137.257 115.686C135.038 114.147 132.963 114.097 130.958 116.016Z" fill="black"/>
<path d="M114.844 189.258C115.882 189.777 116.236 190.022 116.968 190.833C125.253 199.287 137.2 203.28 148.811 203.424C152.963 203.453 157.072 203.395 161.133 202.441C161.381 202.383 161.628 202.325 161.884 202.265C170.75 200.1 178.427 195.719 184.863 189.258C184.864 189.619 184.865 189.981 184.866 190.353C184.877 193.754 184.894 197.156 184.917 200.557C184.929 202.306 184.938 204.055 184.942 205.804C184.947 207.49 184.957 209.177 184.971 210.864C184.975 211.508 184.978 212.153 184.978 212.797C184.979 213.698 184.986 214.599 184.996 215.499C184.995 215.768 184.993 216.036 184.992 216.312C184.977 217.716 184.977 217.716 185.697 218.856C186.359 219.168 186.359 219.168 187.207 219.434C187.207 218.66 187.207 217.887 187.207 217.09C187.303 217.09 187.4 217.09 187.5 217.09C187.596 217.96 187.693 218.83 187.793 219.727C188.179 219.823 188.566 219.92 188.965 220.02C189.061 220.406 189.158 220.793 189.258 221.191C189.451 221.191 189.644 221.191 189.844 221.191C190.037 221.771 190.23 222.352 190.429 222.949C190.623 222.949 190.816 222.949 191.015 222.949C191.491 223.352 191.491 223.352 191.894 223.828C191.894 224.021 191.894 224.215 191.894 224.414C192.088 224.414 192.281 224.414 192.48 224.414C192.48 224.607 192.48 224.801 192.48 225C192.716 225.06 192.952 225.121 193.194 225.183C195.579 226.104 197.586 227.558 198.724 229.889C198.926 230.566 198.926 230.566 198.926 231.445C199.119 231.445 199.312 231.445 199.511 231.445C199.577 232.19 199.637 232.934 199.695 233.679C199.713 233.888 199.732 234.097 199.752 234.312C199.849 235.637 199.784 236.652 199.219 237.891C198.596 238.147 198.596 238.147 198.047 238.184C198.047 238.377 198.047 238.57 198.047 238.77C197.309 239.138 196.804 239.101 195.978 239.104C195.665 239.105 195.351 239.107 195.028 239.109C194.682 239.109 194.336 239.109 193.98 239.11C193.617 239.111 193.254 239.113 192.88 239.114C191.882 239.118 190.884 239.12 189.887 239.121C189.263 239.122 188.64 239.123 188.017 239.125C186.066 239.129 184.115 239.131 182.165 239.132C179.914 239.134 177.663 239.139 175.412 239.147C173.671 239.154 171.931 239.157 170.191 239.157C169.152 239.157 168.113 239.159 167.073 239.164C165.913 239.17 164.753 239.169 163.593 239.167C163.25 239.17 162.907 239.172 162.553 239.175C160.862 239.166 159.63 239.131 158.203 238.184C158.203 237.99 158.203 237.797 158.203 237.598C157.816 237.501 157.429 237.404 157.031 237.305C156.655 236.157 156.694 235.001 156.701 233.807C156.702 233.584 156.703 233.36 156.703 233.13C156.713 231.859 156.767 230.606 156.885 229.34C157.447 222.816 156.716 216.472 155.566 210.059C155.309 210.09 155.309 210.09 155.047 210.123C151.547 210.501 147.921 210.575 144.433 210.059C144.394 210.429 144.356 210.799 144.315 211.18C144.204 212.188 144.071 213.19 143.92 214.192C143.232 218.889 143.183 223.484 143.261 228.223C143.285 229.669 143.302 231.116 143.316 232.562C143.327 233.049 143.327 233.049 143.339 233.546C143.356 235.404 143.217 236.802 142.383 238.477C141.394 239.136 141.068 239.136 139.912 239.135C139.416 239.137 139.416 239.137 138.909 239.139C138.546 239.137 138.183 239.135 137.809 239.134C137.427 239.134 137.045 239.135 136.652 239.135C135.603 239.137 134.555 239.135 133.507 239.132C132.41 239.129 131.314 239.13 130.218 239.13C128.378 239.129 126.537 239.127 124.697 239.123C122.567 239.118 120.438 239.117 118.308 239.117C116.261 239.117 114.214 239.116 112.167 239.113C111.295 239.112 110.423 239.112 109.551 239.111C108.335 239.111 107.119 239.108 105.902 239.105C105.539 239.105 105.175 239.105 104.8 239.105C104.471 239.104 104.141 239.103 103.801 239.102C103.513 239.101 103.225 239.101 102.929 239.1C102.246 239.062 102.246 239.062 101.66 238.77C101.66 238.576 101.66 238.383 101.66 238.184C101.467 238.184 101.273 238.184 101.074 238.184C101.031 237.073 101.005 235.962 100.982 234.851C100.97 234.54 100.958 234.229 100.945 233.909C100.906 231.322 101.486 229.457 103.176 227.475C103.383 227.305 103.589 227.135 103.802 226.959C104.028 226.772 104.254 226.584 104.487 226.39C105.305 225.783 106.146 225.252 107.042 224.767C107.627 224.335 107.828 223.906 108.105 223.242C108.299 223.242 108.492 223.242 108.691 223.242C108.691 223.049 108.691 222.855 108.691 222.656C108.885 222.656 109.078 222.656 109.277 222.656C109.289 222.475 109.301 222.294 109.314 222.107C109.398 221.901 109.483 221.696 109.57 221.484C110.155 221.285 110.741 221.09 111.328 220.898C111.837 220.171 112.022 219.417 112.207 218.555C112.4 218.555 112.594 218.555 112.793 218.555C112.793 218.845 112.793 219.135 112.793 219.434C113.022 219.289 113.252 219.144 113.489 218.994C114.258 218.555 114.258 218.555 114.844 218.555C114.844 208.887 114.844 199.219 114.844 189.258ZM108.398 229.98C107.379 230.999 107.066 231.774 106.933 233.203C109.087 233.218 109.087 233.218 110.925 232.269C111.362 231.376 111.577 230.682 111.621 229.688C111.428 229.494 111.234 229.301 111.035 229.102C109.917 229.102 109.357 229.413 108.398 229.98ZM188.672 229.395C188.584 230.506 188.59 231.265 189.056 232.288C190.267 233.245 191.561 233.175 193.066 233.203C192.927 231.74 192.494 230.851 191.601 229.688C190.931 229.352 190.549 229.364 189.807 229.376C189.245 229.385 189.245 229.385 188.672 229.395ZM117.81 230.292C117.087 231.29 116.966 231.986 116.894 233.203C118.351 233.289 119.251 233.251 120.41 232.324C120.961 231.573 121.013 231.279 120.886 230.347C120.826 230.129 120.765 229.912 120.703 229.688C119.452 229.565 118.848 229.547 117.81 230.292ZM179.297 229.98C179.21 230.957 179.192 231.553 179.681 232.416C180.293 233.027 180.793 233.191 181.653 233.232C181.86 233.228 182.068 233.225 182.281 233.221C182.65 233.215 183.018 233.209 183.398 233.203C183.266 231.777 182.916 231.023 181.933 229.98C181.183 229.605 179.947 229.33 179.297 229.98ZM126.269 231.445C125.602 232.27 125.602 232.27 125.683 233.203C128.004 233.203 130.324 233.203 132.715 233.203C132.35 231.263 132.35 231.263 131.524 230.585C129.516 229.858 127.923 230.034 126.269 231.445ZM167.981 230.75C167.451 231.57 167.451 231.57 167.285 233.203C169.605 233.203 171.926 233.203 174.316 233.203C173.756 231.802 173.331 230.927 171.972 230.273C170.531 230.032 169.245 229.967 167.981 230.75Z" fill="black"/>
<path d="M133.594 117.188C133.884 117.188 134.174 117.188 134.473 117.188C134.466 117.456 134.46 117.724 134.453 118C134.447 118.348 134.442 118.696 134.437 119.055C134.43 119.402 134.423 119.749 134.416 120.106C134.377 121.029 134.377 121.029 135.059 121.582C136.109 121.631 136.109 121.631 137.11 121.582C137.176 121.419 137.243 121.256 137.311 121.088C137.801 120.225 138.444 119.625 139.161 118.945C139.217 119.108 139.274 119.27 139.332 119.437C139.447 119.756 139.447 119.756 139.563 120.081C139.638 120.291 139.713 120.502 139.79 120.719C140.022 121.342 140.022 121.342 140.625 121.875C141.479 122.046 141.479 122.046 142.383 121.875C143.145 121.113 143.507 120.553 143.848 119.531C144.727 119.824 144.727 119.824 145.295 120.703C145.807 121.587 145.807 121.587 146.485 121.912C147.122 121.928 147.122 121.928 147.675 121.399C148.266 120.714 148.266 120.714 148.7 119.897C148.839 119.68 148.978 119.462 149.122 119.238C149.412 119.238 149.702 119.238 150 119.238C150.471 119.815 150.471 119.815 150.934 120.557C151.09 120.801 151.245 121.046 151.405 121.298C151.521 121.489 151.638 121.679 151.758 121.875C153.018 121.611 153.63 121.26 154.358 120.227C154.667 119.738 154.667 119.738 154.981 119.238C155.102 119.401 155.223 119.565 155.347 119.733C155.516 119.956 155.686 120.18 155.86 120.41C156.035 120.676 156.21 120.942 156.391 121.216C156.986 121.951 156.986 121.951 157.911 122.058C158.836 121.949 158.836 121.949 159.449 121.216C159.862 120.566 160.235 119.941 160.547 119.238C161.491 119.575 161.741 119.858 162.305 120.721C162.795 121.598 162.795 121.598 163.477 121.857C164.117 121.877 164.62 121.747 165.235 121.582C165.285 121.124 165.333 120.667 165.381 120.209C165.409 119.954 165.436 119.699 165.464 119.436C165.525 118.682 165.539 117.943 165.528 117.188C166.075 117.277 166.075 117.277 166.7 117.48C168.766 120.519 168.824 125.318 168.458 128.906C167.992 130.075 167.754 130.547 166.7 131.25C164.731 131.668 163.087 131.396 161.133 130.994C160.578 130.884 160.023 130.775 159.467 130.666C159.224 130.617 158.981 130.568 158.731 130.517C156.844 130.182 155.011 130.03 153.098 130.019C152.869 130.017 152.641 130.015 152.405 130.013C151.67 130.008 150.936 130.006 150.202 130.005C149.952 130.004 149.702 130.004 149.445 130.003C145.844 130.003 142.391 130.152 138.868 130.957C135.088 131.807 135.088 131.807 133.301 131.25C132.509 130.606 131.998 130.109 131.543 129.199C131.263 125.678 130.945 120.859 132.985 117.811C133.186 117.605 133.387 117.4 133.594 117.188Z" fill="black"/>
<path d="M146.211 106.183C149.312 106.528 149.312 106.528 152.345 106.054C156.073 105.775 156.073 105.775 157.618 106.933C158.769 108.239 159.177 109.605 159.083 111.328C158.792 111.994 158.792 111.994 158.497 112.5C156.732 112.565 155.076 112.489 153.333 112.188C149.922 111.662 146.524 112.064 143.156 112.732C142.282 112.801 141.907 112.739 141.212 112.207C140.783 111.131 140.784 110.006 141.124 108.906C141.641 107.802 142.157 106.935 143.263 106.347C144.283 106 145.146 106.078 146.211 106.183Z" fill="black"/>
</svg>
