<svg width="300" height="300" viewBox="0 0 300 300" fill="none" xmlns="http://www.w3.org/2000/svg">
<path d="M77.6368 55.0781C78.7979 55.2845 79.9569 55.5009 81.1158 55.719C81.4406 55.7766 81.7654 55.8342 82.1 55.8935C85.5519 56.5534 87.8293 57.7057 90.2162 60.2783C91.7521 61.8747 93.282 63.3339 95.0238 64.7038C96.2348 65.6829 97.3634 66.748 98.5051 67.8062C99.1581 68.4085 99.8168 68.9989 100.488 69.5801C101.468 70.4299 102.427 71.3023 103.381 72.1802C105.72 74.3277 108.061 76.4441 110.531 78.4412C111.559 79.2924 112.54 80.1897 113.524 81.0905C114.529 81.9776 115.584 82.7931 116.65 83.6048C116.916 83.841 116.916 83.841 117.188 84.082C117.188 84.2754 117.188 84.4687 117.188 84.668C117.404 84.7469 117.62 84.8258 117.842 84.9072C120.224 85.9267 121.748 87.817 123.322 89.8029C124.071 90.7013 124.615 91.2244 125.684 91.6992C127.121 91.5987 128.038 91.1218 129.236 90.3442C129.569 90.1314 129.903 89.9189 130.236 89.7068C130.404 89.5993 130.572 89.4918 130.745 89.3811C131.807 88.7114 132.9 88.0925 133.988 87.4638C134.518 87.1559 135.042 86.8388 135.562 86.5139C136.231 86.1328 136.231 86.1328 136.816 86.1328C137.028 84.9245 137.236 83.7157 137.442 82.5065C137.513 82.0961 137.584 81.6858 137.655 81.2757C138.207 78.1574 138.207 78.1574 138.281 75C138.475 75 138.668 75 138.867 75C138.95 74.6399 139.033 74.2797 139.118 73.9087C139.429 72.5532 139.742 71.1981 140.055 69.843C140.189 69.2601 140.323 68.6771 140.457 68.0941C142.772 58.0023 142.772 58.0023 144.434 56.543C145.445 55.9145 146.389 55.8268 147.568 56.02C152.554 57.7213 155.972 63.7991 158.203 68.2617C158.302 68.7498 158.399 69.2381 158.496 69.7266C158.642 70.2366 158.794 70.7447 158.953 71.2509C159.086 71.682 159.086 71.682 159.222 72.1218C159.408 72.7177 159.594 73.3136 159.781 73.9094C160.313 75.6299 160.769 77.3376 161.133 79.1016C161.574 78.6621 162.012 78.2221 162.442 77.7718C162.906 77.3296 163.381 76.9979 163.916 76.6479C164.836 76.0087 165.258 75.3862 165.82 74.4141C166.038 74.2872 166.255 74.1603 166.48 74.0295C167.247 73.5585 167.619 73.1893 168.187 72.5109C169.437 71.0571 170.768 69.6945 172.119 68.335C172.358 68.0899 172.597 67.8448 172.844 67.5922C175.722 64.6959 175.722 64.6959 177.743 64.2975C178.866 64.3119 179.694 64.3671 180.725 64.8376C181.692 66.0603 182.056 67.3698 182.52 68.8477C182.692 69.3788 182.865 69.9098 183.038 70.4407C183.406 71.5774 183.773 72.7144 184.134 73.8533C184.25 74.2161 184.25 74.2161 184.367 74.5862C184.866 76.3232 184.902 77.9228 184.892 79.7207C184.891 80.1468 184.891 80.1468 184.891 80.5814C184.889 81.4859 184.885 82.3903 184.882 83.2947C184.88 83.909 184.879 84.5234 184.878 85.1377C184.874 86.6413 184.869 88.1449 184.863 89.6484C185.127 89.7317 185.127 89.7317 185.396 89.8167C194.973 92.8472 203.116 97.2908 210.352 104.297C210.571 104.504 210.79 104.712 211.015 104.925C212.598 106.455 213.978 108.129 215.332 109.863C215.456 110.02 215.579 110.176 215.706 110.338C225.747 123.16 229.625 140.297 229.757 156.369C229.76 156.659 229.763 156.949 229.766 157.249C229.911 175.732 225.748 192.107 214.16 206.836C213.941 207.118 213.722 207.399 213.496 207.69C209.321 212.933 204.464 217.663 199.118 221.7C198.643 222.063 198.174 222.433 197.706 222.806C193.522 226.128 188.935 228.848 184.277 231.445C184.044 231.577 183.81 231.708 183.569 231.843C174.832 236.714 165.247 240.03 155.688 242.884C155.352 242.985 155.017 243.086 154.672 243.19C154.377 243.278 154.083 243.365 153.779 243.455C152.9 243.738 152.9 243.738 152.007 244.226C150.898 244.761 150.298 244.657 149.121 244.336C148.004 243.74 147.714 243.336 147.311 242.131C146.855 239.866 147.137 237.516 147.273 235.226C147.302 234.689 147.331 234.151 147.359 233.614C147.437 232.161 147.519 230.709 147.603 229.256C147.689 227.736 147.771 226.216 147.854 224.696C148.011 221.82 148.171 218.944 148.333 216.068C148.517 212.792 148.697 209.517 148.877 206.241C149.247 199.506 149.622 192.77 150 186.035C149.584 186.009 149.584 186.009 149.16 185.982C148.793 185.958 148.427 185.933 148.05 185.908C147.688 185.885 147.326 185.861 146.953 185.837C145.819 185.735 144.743 185.541 143.637 185.274C142.779 185.123 142.084 185.07 141.211 185.156C140.42 185.715 140.42 185.715 139.714 186.502C139.581 186.639 139.449 186.775 139.312 186.916C138.891 187.351 138.476 187.791 138.062 188.232C137.51 188.811 136.955 189.387 136.4 189.963C136.156 190.221 135.913 190.478 135.662 190.744C135.059 191.309 135.059 191.309 134.473 191.309C134.376 191.599 134.279 191.889 134.18 192.188C133.772 192.588 133.772 192.588 133.228 193.03C132.105 193.982 131.06 194.989 130.023 196.033C129.862 196.195 129.7 196.357 129.534 196.525C129.031 197.032 128.529 197.539 128.027 198.047C124.176 201.944 124.176 201.944 122.34 203.506C121.744 204.019 121.194 204.568 120.648 205.133C120.052 205.749 119.522 206.256 118.805 206.732C117.744 207.723 117.384 208.873 116.858 210.205C115.704 212.935 114.412 214.811 112.207 216.797C111.892 217.091 111.892 217.091 111.571 217.392C106.841 221.446 100.646 222.508 94.629 222.07C91.8544 221.771 89.2651 220.833 86.7188 219.727C86.2702 219.532 86.2702 219.532 85.8125 219.334C80.1177 216.685 75.9812 211.669 73.8465 205.829C73.6327 205.192 73.4313 204.551 73.2423 203.906C73.1354 203.561 73.0285 203.217 72.9184 202.861C71.7696 198.123 72.1069 191.598 74.524 187.28C75.4738 185.956 76.641 185.214 78.2227 184.863C78.1812 184.685 78.1397 184.507 78.0969 184.323C77.7952 182.524 78.0008 181.153 78.6759 179.474C78.7552 179.271 78.8344 179.067 78.916 178.857C79.8011 176.612 80.7829 174.41 81.775 172.211C81.9784 171.757 82.1816 171.303 82.3846 170.849C82.8193 169.877 83.2546 168.906 83.6903 167.935C84.8834 165.274 86.0659 162.608 87.2498 159.943C87.499 159.382 87.7481 158.821 87.9973 158.261C92.1952 148.813 96.3672 139.355 100.479 129.869C101.326 127.917 102.176 125.966 103.027 124.015C103.648 122.593 104.267 121.171 104.887 119.748C105.187 119.06 105.487 118.373 105.788 117.685C106.208 116.724 106.626 115.763 107.045 114.801C107.169 114.518 107.293 114.235 107.421 113.943C107.756 113.172 108.078 112.398 108.399 111.621C108.505 111.385 108.611 111.149 108.721 110.907C108.989 110.251 109.191 109.687 109.277 108.984C108.899 108.148 108.626 107.706 108.047 107.038C107.767 106.683 107.488 106.328 107.21 105.972C107.066 105.792 106.921 105.612 106.772 105.427C106.103 104.569 105.51 103.665 104.914 102.755C104.676 102.397 104.438 102.038 104.2 101.68C104.081 101.5 103.963 101.32 103.84 101.135C103.205 100.175 102.567 99.2157 101.929 98.2567C101.804 98.0686 101.679 97.8805 101.55 97.6867C100.522 96.142 99.4853 94.6038 98.4376 93.0725C98.3081 92.8829 98.1787 92.6932 98.0453 92.4978C97.3473 91.4811 96.6407 90.4711 95.9254 89.4665C93.6406 86.2545 91.4404 82.992 89.264 79.7058C85.9014 74.3578 85.9014 74.3578 81.9215 69.4885C81.6446 69.1847 81.3688 68.8799 81.0941 68.5741C80.5722 67.9936 80.0456 67.457 79.4805 66.9147C76.6188 63.7106 77.4114 59.0989 77.6368 55.0781ZM88.1837 67.0898C88.1837 67.2832 88.1837 67.4766 88.1837 67.6758C88.377 67.6758 88.5704 67.6758 88.7696 67.6758C88.6982 67.8344 88.6269 67.993 88.5533 68.1564C88.4353 69.22 88.9632 69.6975 89.5936 70.5322C89.807 70.8208 90.0203 71.1093 90.2402 71.4066C90.5274 71.7351 90.5274 71.7351 90.8204 72.0703C91.0138 72.0703 91.2071 72.0703 91.4063 72.0703C91.503 72.457 91.5997 72.8437 91.6993 73.2422C92.1827 73.3389 92.6661 73.4355 93.1642 73.5352C93.8062 72.7408 93.8062 72.7408 93.7684 71.9971C92.9966 69.9994 90.8148 68.5179 89.0626 67.3828C88.7725 67.2861 88.4825 67.1895 88.1837 67.0898ZM147.949 67.0898C147.881 67.4341 147.813 67.7784 147.743 68.133C147.49 69.4169 147.235 70.7005 146.98 71.984C146.87 72.5383 146.76 73.0927 146.651 73.6471C146.493 74.4465 146.335 75.2457 146.175 76.0448C146.127 76.2906 146.079 76.5363 146.029 76.7895C145.753 78.1701 145.419 79.5095 145.02 80.8594C144.901 81.4375 144.791 82.0173 144.69 82.5989C144.641 82.8795 144.592 83.1601 144.541 83.4492C144.488 83.7624 144.488 83.7624 144.434 84.082C146.486 83.9067 148.537 83.7054 150.586 83.4961C150.954 83.4596 150.954 83.4596 151.329 83.4224C151.561 83.3984 151.793 83.3744 152.033 83.3496C152.345 83.3179 152.345 83.3179 152.663 83.2855C153.286 83.2104 153.286 83.2104 154.102 82.9102C153.642 78.9064 152.485 75.2866 150.879 71.6125C150.785 71.3965 150.692 71.1804 150.595 70.9577C149.953 69.5366 149.201 68.3219 148.242 67.0898C148.146 67.0898 148.049 67.0898 147.949 67.0898ZM95.2149 73.2422C94.4898 74.2573 94.4898 74.2573 93.7501 75.293C94.1575 75.9914 94.5633 76.6703 95.049 77.3174C95.3486 77.7171 95.6352 78.1269 95.9062 78.5465C96.6692 79.7504 96.6692 79.7504 97.8356 80.4897C98.4571 80.5869 98.4571 80.5869 99.3165 80.5664C99.8802 79.9322 100.178 79.5442 100.278 78.6907C100.065 76.7217 97.7182 75.1543 96.2987 73.93C95.81 73.5147 95.81 73.5147 95.2149 73.2422ZM176.367 73.8281C174.635 75.7004 173.068 77.6762 171.526 79.7052C167.247 85.3281 167.247 85.3281 164.987 87.7647C163.38 89.576 161.932 91.546 160.547 93.5303C159.961 94.3359 159.961 94.3359 159.375 94.6289C158.161 94.7098 157.164 94.7537 156.152 94.043C155.749 93.0912 155.505 92.1189 155.274 91.1133C155.176 90.7225 155.079 90.3319 154.981 89.9414C146.213 89.6816 139.181 92.1319 131.543 96.3867C131.722 97.3489 131.921 98.0979 132.404 98.9502C133.931 101.91 133.879 104.95 133.019 108.108C131.841 111.5 129.625 113.762 126.468 115.364C122.647 117.11 118.67 116.457 114.844 115.137C114.019 116.749 113.274 118.374 112.573 120.044C111.352 122.92 110.091 125.777 108.82 128.632C108.669 128.969 108.669 128.969 108.516 129.314C107.896 130.707 107.275 132.101 106.653 133.494C105.782 135.449 104.911 137.405 104.041 139.362C103.945 139.577 103.849 139.792 103.75 140.014C102.071 143.79 100.408 147.573 98.7482 151.358C96.448 156.604 94.1332 161.844 91.8164 167.083C90.9693 168.999 90.1231 170.915 89.2786 172.831C88.8115 173.892 88.3434 174.951 87.8725 176.009C87.1388 177.66 86.411 179.31 85.7472 180.991C84.7517 183.476 83.822 185.015 81.5713 186.598C79.9688 187.969 79.6565 190.18 79.3946 192.188C79.1967 195.685 79.2554 199.07 80.2735 202.441C80.3698 202.762 80.4661 203.083 80.5653 203.414C81.3981 205.852 82.6355 207.869 84.3751 209.766C84.5684 209.766 84.7618 209.766 84.961 209.766C85.0248 209.932 85.0887 210.099 85.1544 210.27C86.8284 213.116 90.9517 214.682 93.9515 215.588C97.5865 216.412 101.775 215.82 105.047 214.047C105.704 213.625 106.319 213.177 106.934 212.695C107.113 212.563 107.293 212.431 107.478 212.295C111.261 209.333 113.485 203.854 114.258 199.219C114.46 197.034 114.292 195.231 113.086 193.359C111.439 191.552 109.184 191.037 106.896 190.366C106.687 190.303 106.479 190.241 106.263 190.177C105.852 190.055 105.439 189.936 105.024 189.822C103.812 189.466 103.014 189.106 102.246 188.086C102.121 187.07 102.077 186.374 102.539 185.449C104.017 184.71 106.269 185.624 107.776 186.108C107.98 186.174 108.185 186.24 108.395 186.307C111.857 187.45 115.431 189.296 117.483 192.45C118.147 193.859 118.541 195.374 118.945 196.875C120.008 196.328 120.008 196.328 120.703 195.41C120.872 195.332 121.042 195.253 121.216 195.172C122.079 194.717 122.665 194.05 123.34 193.359C123.663 193.036 123.988 192.714 124.312 192.392C125.287 191.422 126.261 190.452 127.234 189.481C127.652 189.065 128.071 188.648 128.49 188.232C129.099 187.626 129.707 187.02 130.315 186.413C130.5 186.229 130.685 186.046 130.876 185.857C132.039 184.693 133.123 183.488 134.18 182.227C133.802 181.824 133.41 181.433 133.008 181.055C132.815 181.055 132.621 181.055 132.422 181.055C132.422 180.861 132.422 180.668 132.422 180.469C131.9 180.008 131.9 180.008 131.232 179.535C128.239 177.248 125.349 174.1 124.653 170.254C124.339 167.039 124.339 167.039 125.391 165.527C126.514 164.976 127.137 164.874 128.357 165.143C129.443 166.016 129.765 166.903 130.293 168.172C132.113 172.446 135.545 175.744 139.837 177.527C144.765 179.37 150.244 180.399 155.233 178.175C161.907 175.102 166.493 170.827 169.255 163.949C172.483 154.818 171.705 145.124 169.004 135.964C168.709 134.914 168.627 134.093 168.75 133.008C169.4 132.156 169.781 131.883 170.801 131.543C173.275 131.406 173.275 131.406 174.316 132.129C174.756 133.209 174.756 133.209 174.959 133.931C175.23 134.888 175.572 135.808 175.91 136.743C177.332 140.907 178.006 145.318 178.125 149.707C178.137 149.989 178.148 150.271 178.161 150.562C178.399 160.751 174.874 170.266 167.871 177.667C166.6 178.912 165.268 179.97 163.806 180.981C163.627 181.105 163.448 181.23 163.264 181.357C162.354 181.965 161.521 182.483 160.492 182.877C159.381 183.339 158.535 183.789 157.617 184.57C156.988 186.134 156.965 187.69 156.916 189.352C156.888 189.84 156.859 190.329 156.828 190.818C156.748 192.14 156.692 193.463 156.64 194.787C156.581 196.174 156.501 197.559 156.424 198.944C156.28 201.568 156.156 204.192 156.038 206.817C155.903 209.8 155.747 212.782 155.589 215.764C155.345 220.399 155.112 225.033 154.896 229.669C154.885 229.902 154.874 230.135 154.863 230.374C154.833 231.023 154.803 231.673 154.773 232.322C154.757 232.685 154.74 233.048 154.723 233.423C154.693 234.23 154.68 235.032 154.688 235.84C157.419 235.441 159.963 234.492 162.543 233.551C162.774 233.467 163.005 233.383 163.243 233.297C178.823 227.622 192.281 219.181 204.108 207.587C204.377 207.327 204.377 207.327 204.652 207.062C204.818 206.897 204.984 206.732 205.155 206.562C205.377 206.345 205.377 206.345 205.603 206.122C206.001 205.677 206.001 205.677 206.08 205.059C206.25 204.492 206.25 204.492 206.803 204.184C207.008 204.092 207.212 204.001 207.422 203.906C207.858 203.484 207.858 203.484 208.236 202.976C208.384 202.785 208.533 202.594 208.686 202.397C208.843 202.188 209 201.979 209.161 201.764C209.327 201.544 209.493 201.325 209.664 201.099C213.963 195.3 218.375 188.341 219.434 181.055C218.33 181.422 218.071 181.88 217.365 182.794C216.177 184.291 214.92 185.599 213.537 186.915C212.922 187.438 212.922 187.438 212.988 188.086C212.776 188.16 212.564 188.235 212.345 188.311C211.469 188.696 210.844 189.159 210.095 189.752C205.058 193.483 198.94 194.938 192.755 194.901C192.131 194.897 191.506 194.901 190.881 194.904C188.891 194.906 187.059 194.86 185.156 194.238C184.973 193.396 184.973 193.396 184.863 192.48C185.557 191.786 185.878 191.759 186.828 191.589C187.112 191.535 187.396 191.482 187.688 191.427C187.995 191.37 188.301 191.312 188.617 191.254C195.118 189.962 201.519 187.908 206.543 183.398C206.543 183.205 206.543 183.012 206.543 182.812C206.705 182.745 206.868 182.677 207.035 182.607C209.308 181.336 211.088 178.912 212.586 176.825C212.773 176.565 212.773 176.565 212.963 176.301C213.543 175.468 214.015 174.747 214.16 173.73C214.354 173.73 214.547 173.73 214.746 173.73C221.977 161.061 223.094 147.088 219.434 133.008C216.941 124.559 212.503 116.666 206.25 110.449C205.905 110.104 205.905 110.104 205.553 109.752C201.228 105.661 195.917 102.586 190.503 100.177C190.315 100.093 190.126 100.009 189.932 99.922C188.834 99.4528 187.805 99.1705 186.621 99.0234C187.075 100.04 187.687 100.829 188.379 101.697C194.835 110.103 197.24 120.864 195.922 131.295C195.294 135.664 193.809 139.599 191.895 143.555C191.792 143.783 191.688 144.011 191.582 144.246C191.093 145.105 190.41 145.452 189.551 145.898C187.998 145.811 187.998 145.811 187.5 145.312C187.349 143.358 187.808 141.522 188.214 139.618C188.349 138.978 188.483 138.337 188.616 137.696C188.706 137.274 188.706 137.274 188.797 136.843C190.489 127.707 189.605 117.237 184.57 109.277C183.833 108.26 183.049 107.298 182.227 106.348C182.049 106.138 181.871 105.928 181.688 105.711C181.285 105.237 180.877 104.767 180.469 104.297C179.557 104.492 179.557 104.492 179.249 105.192C179.142 105.451 179.035 105.71 178.925 105.977C178.743 106.402 178.743 106.402 178.557 106.835C178.308 107.433 178.06 108.031 177.813 108.63C177.078 110.337 176.52 111.526 174.902 112.5C174.067 112.664 174.067 112.664 173.254 112.628C172.985 112.622 172.715 112.615 172.437 112.609C171.666 112.498 171.163 112.331 170.508 111.914C170.015 110.929 170.045 110.045 170.215 108.984C170.732 107.517 171.378 106.112 172.028 104.7C173.817 100.758 175.371 96.8225 176.441 92.6147C176.515 92.3315 176.59 92.0483 176.667 91.7564C177.418 88.847 177.594 86.1492 177.593 83.1478C177.594 82.5493 177.599 81.951 177.605 81.3526C177.615 79.0213 177.578 76.6762 176.953 74.4141C176.76 74.2207 176.566 74.0273 176.367 73.8281ZM101.66 79.9805C101.545 80.2584 101.431 80.5364 101.312 80.8228C100.723 81.8383 100.422 82.0255 99.3165 82.3242C99.5454 83.0553 99.5454 83.0553 99.9024 83.7891C100.192 83.8857 100.483 83.9824 100.781 84.082C100.866 84.2996 100.951 84.5171 101.038 84.7412C101.447 85.7429 102.044 86.2838 102.832 87.0117C102.929 87.1084 103.025 87.2051 103.125 87.3047C104.031 87.4271 104.46 87.3902 105.231 86.8835C105.987 85.814 106.426 84.8255 106.348 83.4961C105.807 82.6322 105.094 82.0681 104.297 81.4453C104.132 81.2961 103.968 81.147 103.798 80.9933C102.875 80.1436 102.875 80.1436 101.66 79.9805ZM107.813 85.2539C107.755 85.4272 107.698 85.6006 107.639 85.7792C106.927 87.6594 106.099 88.485 104.297 89.3555C104.69 90.4632 105.185 91.3056 105.908 92.2302C106.087 92.4617 106.265 92.6932 106.448 92.9317C106.609 93.1051 106.769 93.2784 106.934 93.457C107.127 93.457 107.32 93.457 107.52 93.457C107.713 93.8438 107.906 94.2305 108.106 94.6289C109.49 94.7255 110.212 94.5786 111.328 93.75C111.89 92.9393 111.89 92.9393 112.317 92.0105C112.47 91.7057 112.624 91.401 112.782 91.087C113.109 90.1703 113.118 89.9435 112.793 89.0625C112.435 88.5964 112.435 88.5964 111.973 88.1893C111.807 88.0358 111.641 87.8823 111.471 87.7241C111.21 87.4893 111.21 87.4893 110.944 87.2498C110.773 87.0898 110.603 86.9299 110.427 86.7651C109.562 85.9745 108.989 85.4752 107.813 85.2539ZM114.844 90.8203C114.647 91.2123 114.647 91.2123 114.447 91.6122C114.27 91.9552 114.092 92.2981 113.91 92.6514C113.737 92.9913 113.563 93.3311 113.385 93.6813C112.34 95.3549 111.047 95.9856 109.277 96.6797C109.996 98.0535 110.826 99.3457 111.713 100.616C111.923 100.924 112.133 101.232 112.35 101.549C113.043 102.341 113.043 102.341 114.105 102.385C116.167 102.108 117.819 101.256 119.092 99.5911C119.348 99.2146 119.593 98.8301 119.824 98.4375C119.942 98.2445 120.06 98.0515 120.181 97.8527C120.47 97.1131 120.418 96.8231 120.117 96.0938C119.108 94.6847 117.848 93.4974 116.507 92.4088C115.919 91.9101 115.383 91.3703 114.844 90.8203ZM122.461 97.5586C122.348 97.7742 122.234 97.9899 122.118 98.2121C120.615 101.028 119.352 102.923 116.202 103.933C115.656 104.071 115.104 104.186 114.551 104.297C115.281 106.338 116.637 108.542 118.451 109.79C120.368 110.44 122.221 110.185 124.054 109.351C125.279 108.657 125.956 107.791 126.636 106.567C127.138 104.727 127.054 103.08 126.117 101.404C124.568 99.1772 124.568 99.1772 122.461 97.5586Z" fill="black"/>
<path d="M205.957 117.188C210.391 120.136 212.239 128.554 213.353 133.466C214.015 137.094 214.271 140.678 214.252 144.36C214.251 144.686 214.251 144.686 214.25 145.017C214.216 152.348 212.876 159.279 209.473 165.82C209.335 166.101 209.197 166.382 209.055 166.672C206.391 171.895 201.016 178.575 195.41 180.762C194.403 180.89 194.403 180.89 193.652 180.762C193.459 180.568 193.266 180.375 193.066 180.176C193.116 178.516 193.55 177.718 194.659 176.514C204.039 165.85 206.407 152.664 205.664 138.867C205.252 132.718 204.118 126.548 202.148 120.703C201.998 119.503 202.094 119.042 202.698 117.975C203.736 116.662 204.369 116.838 205.957 117.188Z" fill="black"/>
<path d="M144.981 127.468C145.879 128.275 145.833 128.892 145.897 130.079C145.921 130.443 145.944 130.806 145.967 131.181C146.049 135.507 144.957 138.802 141.997 142.036C140.604 143.367 138.741 144.247 136.815 144.435C136.612 144.46 136.409 144.485 136.2 144.511C133.952 144.672 132.244 143.875 130.37 142.677C130.176 142.464 129.982 142.251 129.782 142.031C129.232 141.43 129.232 141.43 128.42 141.432C128.145 141.456 127.87 141.48 127.587 141.505C126.065 141.552 126.065 141.552 125.17 141.084C124.588 139.89 124.731 138.952 125.097 137.696C126.153 135.333 127.961 133.077 129.784 131.251C130.459 131.005 130.459 131.005 130.956 130.958C130.956 130.765 130.956 130.571 130.956 130.372C134.984 128.17 140.335 125.71 144.981 127.468ZM132.714 137.989C132.714 138.279 132.714 138.569 132.714 138.868C134.329 139.915 135.833 139.947 137.694 139.747C139.456 139.16 140.421 137.99 141.32 136.396C141.563 135.4 141.406 134.592 141.21 133.595C138.371 133.595 134.731 136.096 132.714 137.989Z" fill="black"/>
</svg>
