<svg width="300" height="300" viewBox="0 0 300 300" fill="none" xmlns="http://www.w3.org/2000/svg">
<path d="M70.0189 55.0781C71.5573 55.4022 72.7455 56.23 74.0289 57.0923C74.4697 57.3837 74.9107 57.6748 75.3519 57.9655C75.5809 58.1167 75.81 58.2679 76.046 58.4237C77.0037 59.0472 77.9746 59.6483 78.9459 60.2504C81.1673 61.6308 83.2568 63.0514 85.2533 64.7461C86.0748 65.4205 86.9002 66.0901 87.7252 66.7603C87.9302 66.9279 88.1351 67.0956 88.3463 67.2683C88.5398 67.4262 88.7332 67.5841 88.9326 67.7467C89.1923 67.9591 89.1923 67.9591 89.4572 68.1757C89.8953 68.519 90.3567 68.8319 90.8197 69.1406C90.7714 68.772 90.723 68.4034 90.6732 68.0237C90.389 65.3565 90.2958 62.8545 91.4056 60.3516C92.0465 59.5825 92.0465 59.5825 92.5775 59.1797C94.6831 59.8231 95.6007 61.7701 96.7523 63.5193C96.954 63.8238 96.954 63.8238 97.1597 64.1344C97.4884 64.6309 97.8163 65.1279 98.1439 65.625C98.4831 65.5816 98.8222 65.5381 99.1716 65.4934C99.9994 65.3892 100.827 65.2966 101.657 65.2164C102.033 65.176 102.408 65.1356 102.795 65.094C103.175 65.0559 103.555 65.0177 103.946 64.9784C104.896 64.852 104.896 64.852 105.253 64.2128C105.359 63.8967 105.359 63.8967 105.468 63.5742C105.739 63.1708 106.02 62.774 106.31 62.384C106.455 62.1873 106.599 61.9905 106.748 61.7878C107.452 60.9666 108.058 60.4195 109.13 60.2051C109.863 60.3516 109.863 60.3516 110.467 60.9009C111.934 63.2674 112.526 65.8511 113.085 68.5547C113.454 68.6155 113.823 68.6763 114.202 68.7389C120.492 69.8433 125.471 72.2272 130.078 76.7578C130.3 76.9769 130.523 77.1959 130.753 77.4216C134.231 81.0563 136.545 85.6839 137.572 90.5894C138.156 93.3807 139.035 95.8114 140.276 98.3826C144.052 106.213 145.425 113.253 145.605 121.875C146.251 122.065 146.899 122.254 147.546 122.443C147.906 122.548 148.266 122.653 148.638 122.762C154.81 124.407 161.699 123.265 167.87 122.168C168.634 122.036 169.398 121.905 170.162 121.774C171.28 121.583 172.399 121.389 173.516 121.19C180.579 119.938 188.41 119.463 194.822 123.276C195.686 123.722 195.686 123.722 196.578 123.446C196.869 123.314 197.16 123.183 197.46 123.047C197.748 122.918 198.037 122.789 198.334 122.657C198.644 122.514 198.954 122.37 199.273 122.223C202.609 120.746 206.395 119.627 210.058 119.531C210.358 119.514 210.358 119.514 210.663 119.497C216.195 119.314 220.869 121.064 225.292 124.219C225.494 124.36 225.695 124.5 225.902 124.646C230.802 128.443 233.022 134.702 233.788 140.625C233.885 142.046 233.904 143.468 233.917 144.891C233.919 145.112 233.921 145.333 233.923 145.56C233.953 151.726 233.304 157.871 232.719 164.003C231.756 174.101 230.789 184.563 237.322 193.103C237.89 193.945 237.89 193.945 237.779 194.584C237.689 194.848 237.689 194.848 237.597 195.117C233.578 195.504 230 192.79 226.977 190.43C221.888 186.233 219.046 180.71 218.334 174.152C218.141 170.679 218.285 167.298 218.664 163.843C218.704 163.454 218.745 163.065 218.784 162.675C218.951 161.078 219.122 159.481 219.329 157.888C219.674 155.171 219.792 152.467 219.813 149.73C219.817 149.138 219.825 148.547 219.833 147.956C219.831 144.14 219.062 140.271 216.492 137.297C213.054 134.066 208.781 133.279 204.199 133.008C204.294 133.31 204.39 133.611 204.488 133.922C205.172 136.132 205.779 138.326 206.176 140.607C206.21 140.8 206.244 140.993 206.278 141.193C206.74 144.003 206.879 146.781 206.894 149.627C206.897 150.242 206.903 150.856 206.909 151.47C206.927 153.213 206.943 154.957 206.953 156.701C206.959 157.774 206.969 158.847 206.982 159.92C206.987 160.324 206.989 160.728 206.99 161.133C207.005 166.891 208.782 170.92 212.524 175.202C216.037 179.252 216.88 184.41 218.005 189.514C218.073 189.823 218.142 190.132 218.213 190.45C221.142 203.669 223.475 216.988 225.694 230.34C226.169 233.196 226.644 236.051 227.134 238.905C227.181 239.184 227.228 239.463 227.277 239.75C227.32 240.001 227.364 240.253 227.408 240.512C227.446 240.729 227.483 240.946 227.521 241.169C227.619 241.725 227.619 241.725 227.929 242.285C227.929 243.155 227.929 244.025 227.929 244.922C223.772 244.922 219.615 244.922 215.331 244.922C215.428 243.677 215.525 242.432 215.624 241.15C216.879 223.711 212.55 200.988 200.958 187.245C198.618 184.674 195.607 182.84 192.48 181.348C192.602 181.639 192.602 181.639 192.726 181.937C192.832 182.196 192.938 182.454 193.047 182.721C193.153 182.976 193.258 183.231 193.367 183.493C193.868 184.873 194.004 186.164 194.036 187.628C194.047 187.948 194.058 188.268 194.069 188.597C193.765 193.252 191.136 197.472 189.092 201.544C188.591 202.55 188.091 203.557 187.592 204.564C187.261 205.229 186.929 205.895 186.598 206.56C185.536 208.693 184.501 210.836 183.481 212.989C182.428 215.21 181.328 217.396 180.172 219.564C178.517 222.674 176.95 225.83 175.374 228.981C174.918 229.894 174.46 230.806 174.001 231.718C173.554 232.608 173.109 233.499 172.663 234.39C172.502 234.71 172.341 235.03 172.175 235.36C171.041 237.635 170.021 239.941 169.042 242.285C170.009 242.285 170.976 242.285 171.972 242.285C171.972 242.382 171.972 242.479 171.972 242.578C171.005 242.578 170.038 242.578 169.042 242.578C168.849 243.352 168.656 244.125 168.456 244.922C164.106 244.922 159.755 244.922 155.273 244.922C155.273 244.148 155.273 243.375 155.273 242.578C155.909 241.965 155.909 241.965 156.738 241.406C157.271 240.779 157.778 240.155 158.276 239.502C158.416 239.32 158.556 239.139 158.7 238.951C158.986 238.58 159.271 238.207 159.556 237.834C159.918 237.36 160.285 236.889 160.653 236.419C169.285 225.226 179.751 203.88 178.417 189.258C177.717 185.028 174.33 182.548 171.343 179.798C166.935 175.731 164.759 171.712 163.769 165.82C161.281 165.994 158.86 166.383 156.408 166.827C150.361 167.893 144.421 168.473 138.281 168.494C138.004 168.495 137.728 168.496 137.443 168.498C135.655 168.494 133.904 168.375 132.128 168.164C132.134 168.533 132.14 168.902 132.145 169.282C132.145 170.867 132.006 172.428 131.854 174.005C131.321 179.549 131.201 185.046 131.213 190.613C131.213 191.005 131.214 191.397 131.214 191.789C131.218 195.145 131.232 198.5 131.249 201.855C131.251 202.164 131.253 202.472 131.254 202.789C131.278 207.4 131.308 212.011 131.343 216.622C131.354 218.067 131.364 219.511 131.373 220.956C131.424 228.968 131.584 236.927 132.128 244.922C127.294 244.922 122.46 244.922 117.48 244.922C117.673 244.729 117.867 244.535 118.066 244.336C118.183 243.655 118.283 242.971 118.359 242.285C118.745 242.285 119.132 242.285 119.531 242.285C119.561 242.099 119.592 241.912 119.623 241.72C119.948 240.263 120.446 238.859 120.919 237.444C122.204 233.491 122.297 229.692 122.296 225.568C122.296 225.258 122.296 224.948 122.296 224.629C122.285 218.493 121.71 212.532 120.819 206.468C120.698 205.633 120.581 204.797 120.465 203.962C118.712 191.34 116.137 179.07 113.085 166.699C109.422 166.855 105.769 167.044 102.117 167.377C101.914 167.395 101.71 167.414 101.501 167.433C98.8221 167.68 96.1614 167.988 93.5114 168.457C93.2512 168.502 92.991 168.547 92.7229 168.594C91.4987 168.829 90.5753 169.027 89.6478 169.922C90.2052 175.693 95.5923 181.272 99.3158 185.449C99.4463 185.596 99.5769 185.743 99.7113 185.895C103.317 189.939 107.099 193.533 111.474 196.747C111.66 196.884 111.845 197.021 112.036 197.162C112.899 197.794 113.766 198.408 114.668 198.983C115.108 199.272 115.108 199.272 115.557 199.567C115.946 199.809 115.946 199.809 116.343 200.055C117.021 200.829 117.042 201.374 116.982 202.385C116.832 203.481 116.558 204.516 116.235 205.573C116.175 205.787 116.115 206.002 116.053 206.223C115.669 207.514 115.27 208.534 114.257 209.473C113.254 209.809 112.747 209.869 111.767 209.459C110.928 208.888 110.097 208.313 109.277 207.715C109.121 207.601 108.965 207.488 108.805 207.371C105.825 205.174 103.142 202.672 100.488 200.098C100.336 199.951 100.185 199.805 100.029 199.654C98.6451 198.308 97.319 196.931 96.0645 195.464C95.5052 194.822 94.9301 194.196 94.3509 193.572C92.9631 192.076 91.6426 190.548 90.3631 188.957C89.6757 188.12 88.9702 187.303 88.2562 186.489C86.531 184.522 84.8804 182.527 83.3158 180.428C83.0239 180.036 82.7308 179.646 82.4369 179.256C80.5565 176.76 78.7169 174.246 77.0136 171.625C76.8216 171.33 76.8216 171.33 76.6257 171.03C75.026 168.527 73.7596 166.236 74.1205 163.184C74.633 161.599 75.351 160.588 76.7572 159.668C77.7163 159.316 78.6959 159.072 79.6869 158.826C80.2714 158.672 80.8558 158.518 81.4401 158.364C82.2872 158.145 83.1346 157.927 83.9824 157.711C93.9279 155.226 93.9279 155.226 102.245 149.707C102.171 149.511 102.097 149.315 102.02 149.113C98.1777 138.392 100.229 126.234 103.472 115.631C104.823 111.03 105.088 106.125 105.468 101.367C105.167 101.438 105.167 101.438 104.859 101.51C103.904 101.678 103 101.707 102.03 101.722C101.65 101.73 101.271 101.739 100.879 101.747C100.282 101.759 99.6849 101.77 99.0878 101.778C95.1088 101.74 95.1088 101.74 91.7902 103.619C91.5573 103.938 91.3319 104.262 91.1127 104.59C89.6315 106.773 87.9411 108.457 85.2533 108.984C83.032 109.043 81.1287 108.665 79.3939 107.227C77.4682 105.092 75.3154 102.058 75.0543 99.115C75.1903 97.2806 76.5683 96.0532 77.7574 94.7666C78.9006 93.4913 79.7041 92.1703 80.4926 90.6555C82.4035 87.1061 84.7397 83.9681 87.3041 80.8594C87.1156 80.8552 86.9272 80.8511 86.733 80.8468C83.4471 80.6733 80.5686 79.6903 78.2221 77.3438C78.8609 76.0464 79.4394 75.6017 80.7672 75.0549C81.204 74.8708 81.204 74.8708 81.6496 74.683C81.872 74.5942 82.0944 74.5055 82.3236 74.4141C82.1809 74.2426 82.0381 74.0712 81.891 73.8945C78.423 69.695 75.1387 65.3597 71.9312 60.9591C71.529 60.413 71.12 59.8734 70.7056 59.3365C70.4911 59.0551 70.2766 58.7738 70.0555 58.4839C69.875 58.252 69.6945 58.0201 69.5085 57.7812C69.0669 56.9995 68.9952 56.548 69.14 55.6641C69.4301 55.4707 69.7201 55.2773 70.0189 55.0781ZM76.7572 62.1094C77.0472 62.7861 77.3373 63.4629 77.6361 64.1602C78.1195 63.9668 78.6029 63.7734 79.101 63.5742C78.4235 62.8235 78.4235 62.8235 77.6361 62.1094C77.3461 62.1094 77.056 62.1094 76.7572 62.1094ZM93.1635 63.2812C93.1351 64.877 93.1258 66.3982 93.4564 67.9688C94.1332 67.7754 94.8099 67.582 95.5072 67.3828C95.313 66.3436 94.8823 65.5722 94.3353 64.6729C94.1782 64.4115 94.0211 64.1502 93.8593 63.8809C93.7263 63.683 93.5934 63.4851 93.4564 63.2812C93.3597 63.2812 93.2631 63.2812 93.1635 63.2812ZM108.216 63.9942C106.136 66.289 105.653 68.2087 105.702 71.2795C105.754 71.9725 105.858 72.5776 106.054 73.2422C105.894 73.2641 105.733 73.286 105.568 73.3086C97.4502 74.6549 90.5044 80.1068 85.8136 86.621C84.4398 88.5905 83.2809 90.661 82.1282 92.7651C81.101 94.6025 80.0021 96.0515 78.475 97.5128C77.8268 98.2629 77.6493 98.618 77.6361 99.6094C77.9099 100.336 78.1892 100.963 78.5516 101.642C78.6385 101.816 78.7254 101.99 78.8149 102.17C79.7651 104.012 80.8724 105.656 82.9096 106.348C84.362 106.54 85.4176 106.578 86.7262 105.864C87.6611 105.125 88.2528 104.392 88.9337 103.418C90.004 101.892 91.0384 100.638 92.8339 99.9939C93.1046 99.8925 93.1046 99.8925 93.3809 99.789C95.9176 99.1 98.5897 99.2371 101.197 99.2163C104.459 99.1407 107.194 98.5257 109.587 96.2059C111.531 93.8193 111.911 90.8664 112.206 87.8906C112.69 87.7939 113.173 87.6973 113.671 87.5977C114.28 91.1873 113.647 94.3103 111.584 97.2839C111.086 97.8872 110.728 98.1508 110.007 98.4821C109.029 98.9629 108.484 99.3264 107.812 100.195C107.384 101.997 107.533 103.916 107.537 105.756C107.459 109.586 106.653 113.427 105.648 117.109C104.459 121.496 103.407 125.859 102.831 130.371C102.793 130.66 102.754 130.948 102.715 131.245C101.624 140.973 103.867 150.652 109.768 158.522C110.471 159.403 111.187 160.27 111.913 161.133C112.343 159.844 112.077 158.669 111.931 157.333C111.913 156.445 111.913 156.445 112.499 155.566C113.122 155.365 113.122 155.365 113.671 155.273C113.703 155.486 113.735 155.699 113.769 155.918C114.458 160.416 115.265 164.865 116.29 169.299C116.366 169.628 116.366 169.628 116.443 169.963C116.981 172.281 117.545 174.59 118.151 176.892C121.268 188.807 123.045 201.283 124.328 213.519C124.351 213.742 124.375 213.964 124.399 214.193C125.177 221.717 125.07 228.909 124.218 236.426C125.765 236.426 127.312 236.426 128.906 236.426C128.902 236.055 128.898 235.683 128.895 235.301C128.583 203.724 128.583 203.724 128.561 193.198C128.559 192.432 128.556 191.666 128.552 190.899C128.516 183.717 128.84 176.538 129.711 169.405C129.787 168.781 129.859 168.157 129.931 167.533C130.193 165.286 130.513 163.059 130.956 160.84C131.537 160.743 132.117 160.646 132.714 160.547C132.69 160.903 132.665 161.259 132.64 161.626C132.61 162.09 132.58 162.555 132.549 163.019C132.533 163.254 132.517 163.489 132.5 163.731C132.462 164.329 132.44 164.928 132.421 165.527C133.012 166.118 134.208 165.875 135.018 165.88C135.255 165.882 135.492 165.884 135.737 165.886C142.5 165.932 149.029 165.563 155.703 164.426C155.974 164.38 156.245 164.334 156.524 164.287C156.798 164.24 157.072 164.194 157.354 164.146C157.63 164.099 157.906 164.052 158.191 164.003C158.745 163.909 159.299 163.814 159.853 163.719C163.933 163.024 167.824 162.601 171.972 162.891C171.622 161.985 171.241 161.127 170.782 160.272C170.283 159.295 170.031 158.425 169.921 157.324C170.603 157.256 170.603 157.256 171.386 157.324C171.829 157.775 171.829 157.775 172.195 158.408C172.334 158.64 172.473 158.871 172.616 159.11C172.76 159.361 172.904 159.611 173.052 159.869C173.363 160.384 173.675 160.899 173.988 161.412C174.143 161.665 174.297 161.918 174.456 162.179C179.18 169.713 185.913 174.44 193.527 178.697C198.753 181.622 198.753 181.622 200.833 183.618C201.249 184.047 201.249 184.047 201.855 183.984C201.972 184.244 201.972 184.244 202.092 184.51C202.447 185.167 202.819 185.593 203.338 186.127C214.528 198.75 218.109 220.768 218.847 237.012C220.491 236.818 222.134 236.625 223.828 236.426C223.639 234.028 223.316 231.681 222.914 229.31C222.852 228.937 222.79 228.564 222.725 228.18C222.556 227.171 222.385 226.162 222.213 225.153C222.106 224.519 221.998 223.885 221.89 223.251C220.042 212.371 218.012 201.525 215.661 190.741C215.61 190.504 215.558 190.267 215.505 190.023C214.959 187.52 214.362 185.036 213.686 182.564C213.596 182.234 213.596 182.234 213.505 181.897C212.853 179.567 211.879 178.206 210.259 176.459C205.87 171.704 204.363 166.316 204.362 159.964C204.359 159.555 204.355 159.146 204.351 158.737C204.34 157.67 204.334 156.603 204.33 155.537C204.321 153.631 204.308 151.726 204.289 149.82C204.287 149.618 204.285 149.416 204.283 149.208C204.201 141.962 203.47 134.08 198.125 128.644C193.273 124.143 187.427 122.759 180.951 122.954C177.212 123.133 173.535 123.764 169.846 124.365C169.607 124.404 169.368 124.443 169.122 124.483C167.927 124.678 166.733 124.875 165.539 125.077C158.298 126.292 151.881 126.118 144.726 124.512C144.658 124.719 144.59 124.925 144.52 125.139C144.211 126.077 143.901 127.016 143.591 127.954C143.484 128.28 143.377 128.605 143.267 128.941C143.163 129.254 143.059 129.567 142.952 129.89C142.809 130.323 142.809 130.323 142.664 130.764C142.417 131.448 142.138 132.075 141.796 132.715C137.739 132.573 134.712 131.56 131.854 128.614C128.845 125.08 128.332 120.801 128.679 116.334C128.745 115.738 128.824 115.144 128.906 114.551C128.122 114.671 127.345 114.792 126.578 114.994C124.56 115.519 121.97 115.969 120.003 115.132C119.847 115.037 119.691 114.942 119.531 114.844C119.92 113.715 120.469 112.795 121.121 111.807C125.619 104.974 127.112 96.726 125.628 88.6597C124.455 83.8714 122.161 80.1623 118.066 77.3438C117.111 76.7992 116.145 76.3146 115.136 75.8789C115.136 75.3955 115.136 74.9121 115.136 74.4141C117.754 74.3109 119.972 74.4704 122.46 75.293C122.869 75.4108 123.278 75.527 123.687 75.6409C123.959 75.7194 124.231 75.798 124.511 75.8789C122.337 73.2384 118.664 72.1658 115.429 71.4844C114.615 71.4104 113.902 71.419 113.085 71.4844C112.795 72.6445 112.505 73.8047 112.206 75C111.723 75.0967 111.24 75.1934 110.742 75.293C110.731 74.9278 110.72 74.5626 110.708 74.1863C110.579 70.6341 110.41 66.9744 109.277 63.5742C108.658 63.5095 108.658 63.5095 108.216 63.9942ZM79.3939 66.2109C80.2381 67.8133 80.2381 67.8133 81.4447 69.1406C82.6321 68.7817 83.6255 68.35 84.6674 67.6758C84.4438 67.4522 84.2202 67.2286 83.9899 66.9983C83.5625 66.5709 83.1394 66.1378 82.7448 65.6799C81.6355 64.7636 80.4514 65.6341 79.3939 66.2109ZM99.1327 68.2983C98.9268 68.3647 98.7208 68.4311 98.5086 68.4995C95.6084 69.4661 93.2208 70.7907 90.8428 72.7063C88.4566 74.592 85.7038 75.8823 82.9096 77.0508C84.3886 78.0368 85.9242 77.8325 87.6401 77.5234C90.8981 76.8348 93.7821 75.761 96.6791 74.1211C95.8543 73.4539 95.8543 73.4539 94.9213 73.5352C95.018 73.0518 95.1146 72.5684 95.2142 72.0703C97.7302 71.2591 100.247 70.5778 102.831 70.0195C102.928 69.2461 103.025 68.4727 103.124 67.6758C101.693 67.6005 100.483 67.8612 99.1327 68.2983ZM85.0519 70.3125C84.6151 70.5572 84.6151 70.5572 84.1695 70.8069C83.9471 70.9338 83.7247 71.0607 83.4955 71.1914C83.9414 71.9616 84.3286 72.6104 84.9603 73.2422C86.1968 73.1611 86.8938 72.6782 87.8351 71.9055C88.0666 71.7178 88.2981 71.5301 88.5366 71.3367C88.71 71.1921 88.8833 71.0475 89.0619 70.8984C88.3845 70.1477 88.3845 70.1477 87.5971 69.4336C86.5066 69.4336 85.9963 69.7792 85.0519 70.3125ZM123.046 77.9297C123.149 78.0724 123.252 78.2152 123.359 78.3623C128.163 85.2612 129.215 92.9973 127.817 101.199C127.482 103.033 127.067 104.845 126.562 106.641C129.806 103.809 130.941 97.7686 131.231 93.6768C131.384 89.0528 130.621 84.5434 127.537 80.9475C125.555 78.8999 125.555 78.8999 123.046 77.9297ZM133.3 87.0117C133.306 87.2503 133.312 87.489 133.319 87.7348C133.465 94.2969 133.084 99.8158 130.078 105.762C129.917 106.079 129.757 106.395 129.592 106.722C128.243 109.194 126.492 111.106 124.511 113.086C127.762 112.829 130.674 110.592 132.792 108.251C134.848 105.636 135.796 102.623 135.937 99.3164C135.952 99.0879 135.967 98.8594 135.983 98.624C136.129 94.605 135.226 90.6637 133.593 87.0117C133.496 87.0117 133.4 87.0117 133.3 87.0117ZM138.281 101.074C138.216 101.379 138.152 101.683 138.086 101.997C137.352 105.299 136.353 107.657 133.996 110.156C132.727 111.519 132.063 112.773 131.542 114.551C131.477 114.754 131.412 114.957 131.344 115.166C130.465 118.359 130.598 121.853 132.128 124.805C133.579 127.23 135.607 129.131 138.281 130.078C138.152 128.852 138.015 127.632 137.838 126.411C137.758 125.861 137.758 125.861 137.676 125.299C137.625 124.956 137.573 124.612 137.52 124.259C137.175 121.199 137.554 118.371 138.153 115.376C139.592 108.209 139.592 108.209 138.574 101.074C138.477 101.074 138.38 101.074 138.281 101.074ZM141.796 112.793C140.158 120.505 140.158 120.505 140.624 128.32C141.37 127.665 141.683 127.121 141.979 126.178C142.085 125.853 142.085 125.853 142.192 125.522C142.579 124.062 142.713 122.661 142.714 121.153C142.714 120.798 142.715 120.443 142.715 120.077C142.714 119.709 142.713 119.342 142.712 118.964C142.713 118.597 142.714 118.231 142.715 117.854C142.713 116.139 142.699 114.481 142.382 112.793C142.189 112.793 141.995 112.793 141.796 112.793ZM198.339 125.684C198.955 126.471 198.955 126.471 199.804 127.148C201.036 127.038 202.212 126.695 203.411 126.398C209.038 125.194 214.553 126.12 219.433 129.199C220.503 130.002 221.44 130.869 222.363 131.836C222.635 132.105 222.635 132.105 222.913 132.38C227.882 137.592 229.035 144.61 228.93 151.513C228.824 155.837 227.945 160.097 227.161 164.339C226.938 165.551 226.731 166.766 226.522 167.98C226.427 168.53 226.33 169.08 226.232 169.629C225.101 175.959 225.056 181.872 228.848 187.4C230.289 189.411 230.289 189.411 232.324 190.723C232.202 190.314 232.08 189.905 231.957 189.496C231.878 189.228 231.798 188.961 231.716 188.686C231.531 188.077 231.341 187.47 231.146 186.864C229.265 180.973 229.19 175.18 229.719 169.066C229.78 168.36 229.839 167.654 229.897 166.948C230.086 164.663 230.29 162.38 230.527 160.098C230.997 155.495 231.243 150.93 231.262 146.301C231.264 146.051 231.266 145.8 231.268 145.542C231.317 138.871 230.141 132.71 225.402 127.679C222.944 125.333 220.059 123.687 216.796 122.754C216.456 122.655 216.456 122.655 216.11 122.555C210.89 121.285 202.599 122.079 198.339 125.684ZM202.148 129.199C202.148 129.489 202.148 129.779 202.148 130.078C202.728 130.658 203.876 130.451 204.675 130.481C209.404 130.715 213.922 131.647 217.565 134.857C221.153 138.917 222.536 143.428 222.509 148.828C222.509 149.378 222.509 149.378 222.509 149.938C222.466 154.044 221.947 158.116 221.419 162.183C220.541 169.101 220.391 175.748 223.242 182.227C223.647 181.101 223.426 180.166 223.242 179.004C222.697 172.477 224.517 165.655 225.68 159.267C227.198 150.818 227.501 142.799 222.388 135.421C219.411 131.549 215.953 129.361 211.115 128.458C207.984 128.051 205.159 128.257 202.148 129.199ZM101.741 153.084C95.4781 156.466 89.0325 159.104 82.0501 160.561C81.6914 160.636 81.6914 160.636 81.3255 160.713C80.8703 160.807 80.4142 160.896 79.9571 160.981C78.6102 161.252 77.7162 161.6 76.7572 162.598C76.183 163.958 76.4118 165.298 76.9506 166.631C77.5679 168.098 78.3443 169.384 79.2474 170.691C79.3999 170.915 79.5524 171.14 79.7095 171.371C81.8149 174.444 84.0624 177.414 86.4092 180.306C86.8712 180.881 87.3265 181.458 87.7779 182.041C89.2066 183.883 90.6595 185.667 92.2399 187.383C92.876 188.092 93.4684 188.823 94.0607 189.569C96.8641 193.021 100.044 196.163 103.179 199.31C103.532 199.665 103.532 199.665 103.891 200.026C105.605 202.031 105.605 202.031 107.812 203.027C108.163 202.413 108.511 201.796 108.856 201.178C108.956 201.004 109.056 200.829 109.159 200.65C109.417 200.185 109.642 199.702 109.863 199.219C109.528 198.215 109.32 198.083 108.489 197.479C104.476 194.448 100.809 191.048 97.558 187.207C97.3246 186.941 97.0912 186.675 96.8507 186.401C87.2672 175.413 87.2672 175.413 87.3098 170.424C87.4053 169.533 87.6068 168.721 87.89 167.871C94.6412 164.526 103.69 164.782 111.035 164.062C110.584 163.125 110.077 162.405 109.405 161.609C107.233 158.934 105.491 155.964 103.802 152.969C103.675 152.762 103.548 152.556 103.417 152.344C102.825 152.344 102.242 152.81 101.741 153.084ZM166.406 165.234C166.686 171.688 170.726 175.912 175.195 180.084C175.353 180.232 175.511 180.38 175.674 180.533C176.292 181.098 176.853 181.593 177.612 181.958C178.295 182.316 178.41 182.699 178.71 183.398C179.072 183.961 179.443 184.516 179.818 185.07C182.291 189.724 180.591 196.208 179.296 200.977C179.207 201.307 179.117 201.638 179.025 201.979C175.95 213.112 171.886 225.189 165.066 234.607C164.57 235.299 164.57 235.299 164.355 236.426C165.612 236.813 166.869 237.199 168.163 237.598C168.341 237.218 168.518 236.839 168.701 236.448C168.949 235.921 169.197 235.395 169.445 234.869C169.618 234.499 169.618 234.499 169.794 234.122C170.752 232.096 171.785 230.116 172.833 228.136C174.363 225.244 175.85 222.33 177.337 219.415C177.484 219.127 177.631 218.839 177.783 218.542C181.063 212.116 184.312 205.681 187.401 199.161C187.805 198.314 188.213 197.469 188.623 196.624C188.757 196.347 188.892 196.069 189.03 195.782C189.283 195.258 189.537 194.735 189.793 194.212C191.532 190.599 191.953 186.929 190.667 183.105C189.5 179.985 188.198 178.339 185.401 176.559C182.59 174.76 180.225 172.66 177.912 170.257C175.356 167.614 173.127 165.32 169.238 165.206C168.902 165.209 168.565 165.213 168.218 165.216C167.708 165.22 167.708 165.22 167.187 165.224C166.929 165.227 166.671 165.231 166.406 165.234ZM111.62 200.391C111.324 200.902 111.032 201.415 110.742 201.929C110.578 202.214 110.415 202.5 110.247 202.794C109.78 203.639 109.78 203.639 109.863 204.785C110.418 205.377 110.418 205.377 111.144 205.884C111.382 206.064 111.62 206.243 111.865 206.429C112.456 206.889 112.456 206.889 113.085 206.836C113.569 205.289 114.052 203.742 114.55 202.148C113.29 200.854 113.29 200.854 111.62 200.391ZM160.766 239.886C160.565 240.148 160.364 240.41 160.157 240.68C159.627 241.396 159.627 241.396 159.374 242.285C161.501 242.285 163.628 242.285 165.82 242.285C166.737 240.516 166.737 240.516 166.699 239.648C166.193 239.45 165.686 239.256 165.179 239.062C164.897 238.954 164.615 238.845 164.324 238.733C162.515 238.186 161.914 238.356 160.766 239.886ZM123.339 238.77C123.143 239.251 122.948 239.734 122.753 240.216C122.645 240.485 122.536 240.753 122.424 241.03C122.15 241.625 122.15 241.625 122.167 241.992C124.488 241.992 126.808 241.992 129.199 241.992C129.199 241.025 129.199 240.059 129.199 239.062C128.91 238.709 128.91 238.709 128.361 238.736C128.014 238.739 128.014 238.739 127.659 238.741C127.284 238.742 127.284 238.742 126.901 238.744C126.638 238.746 126.375 238.749 126.104 238.751C125.84 238.753 125.576 238.754 125.304 238.755C124.649 238.759 123.994 238.764 123.339 238.77ZM220.495 239.209C219.948 239.331 219.948 239.331 219.389 239.456C219.114 239.52 218.838 239.583 218.554 239.648C218.554 240.422 218.554 241.195 218.554 241.992C219.25 242 219.946 242.006 220.641 242.01C220.836 242.013 221.031 242.015 221.232 242.018C222.423 242.024 223.538 241.93 224.706 241.699C224.561 240.249 224.561 240.249 224.413 238.77C223.039 238.719 221.834 238.906 220.495 239.209Z" fill="black"/>
<path d="M101.074 84.0822C101.074 85.7862 100.47 87.2503 99.3347 88.5317C98.7305 88.7697 98.7305 88.7697 97.9431 88.6416C97.2656 88.1838 97.2656 88.1838 97.0276 87.2683C97.0095 86.9903 96.9913 86.7124 96.9727 86.426C96.2959 86.426 95.6191 86.426 94.9219 86.426C94.9219 86.1359 94.9219 85.8459 94.9219 85.5471C97.0199 84.5447 98.7223 84.0262 101.074 84.0822Z" fill="black"/>
</svg>
