<svg width="300" height="300" viewBox="0 0 300 300" fill="none" xmlns="http://www.w3.org/2000/svg">
<path d="M148.205 57.9594C161.365 57.6003 176.054 60.0347 185.927 69.3382C192.122 75.421 196.724 82.3314 198.925 90.8199C199.017 91.1674 199.109 91.5148 199.204 91.8728C200.339 96.6357 200.598 101.582 200.24 106.45C200.2 106.999 200.2 106.999 200.159 107.559C200.128 107.974 200.128 107.974 200.097 108.398C208.51 106.232 216.471 103.66 224.325 99.9008C224.999 99.609 224.999 99.609 225.585 99.609C224.362 105.676 222.385 111.638 219.7 117.216C219.45 117.737 219.212 118.263 218.975 118.789C216.49 124.108 212.856 128.894 208.912 133.209C208.393 133.784 207.895 134.369 207.403 134.967C205.864 136.76 204.019 138.15 202.111 139.526C201.94 139.65 201.768 139.775 201.591 139.903C198.922 141.797 198.922 141.797 197.167 141.797C197.341 140.671 197.673 139.837 198.229 138.846C198.465 138.421 198.465 138.421 198.706 137.986C198.875 137.685 199.044 137.383 199.218 137.072C201.628 132.677 203.749 128.392 205.352 123.632C205.463 123.304 205.574 122.975 205.688 122.636C206.486 120.182 207.184 117.736 207.128 115.136C206.975 115.195 206.822 115.254 206.664 115.315C201.26 117.385 201.26 117.385 198.632 117.773C198.599 118.091 198.565 118.409 198.53 118.737C196.295 136.439 188.499 155.61 176.074 168.457C175.864 168.674 175.655 168.891 175.44 169.115C172.736 171.908 170.034 174.623 166.877 176.905C166.407 177.244 165.945 177.594 165.482 177.943C159.874 182.04 153.485 184.222 146.511 183.171C142.618 182.502 139.157 181.005 135.937 178.711C135.523 178.417 135.523 178.417 135.101 178.118C131.521 175.501 128.295 172.587 125.152 169.464C124.897 169.211 124.641 168.959 124.378 168.698C118.858 163.151 114.379 156.54 111.046 149.469C110.835 149.024 110.621 148.581 110.404 148.138C106.266 139.668 104.061 130.717 101.953 121.582C101.86 121.181 101.767 120.781 101.674 120.38C101.473 119.511 101.273 118.642 101.074 117.773C100.901 117.726 100.728 117.679 100.551 117.63C99.7539 117.411 98.9581 117.189 98.1622 116.967C97.7552 116.856 97.7552 116.856 97.34 116.743C95.5777 116.248 93.9339 115.638 92.2845 114.843C92.4111 115.424 92.539 116.004 92.6702 116.583C92.8184 117.247 92.9601 117.912 93.0982 118.579C94.6145 125.685 97.9622 132.199 101.6 138.438C101.756 138.707 101.912 138.976 102.073 139.252C102.212 139.489 102.351 139.726 102.495 139.971C102.811 140.585 102.991 141.122 103.124 141.797C93.1486 138.73 85.7441 128.088 81.0499 119.385C78.1331 113.835 74.4259 106.024 74.7064 99.609C76.0707 100.022 77.2943 100.597 78.5516 101.257C85.1976 104.642 92.2776 106.812 99.6088 108.105C99.6042 107.824 99.5996 107.542 99.5948 107.252C99.4358 96.5745 99.4358 96.5745 100.488 92.2848C100.546 92.0414 100.604 91.7981 100.664 91.5474C102.043 85.94 104.245 80.9264 107.519 76.1715C107.633 76.0059 107.747 75.8403 107.864 75.6697C110.992 71.2067 114.89 67.5819 119.531 64.7457C119.788 64.5846 119.788 64.5846 120.051 64.4201C126.694 60.3306 134.722 58.9519 142.382 58.3004C142.579 58.2835 142.777 58.2665 142.98 58.2491C144.721 58.106 146.461 58.0332 148.205 57.9594ZM120.41 82.0309C114.86 90.3185 112.679 100.912 111.957 110.743C111.916 111.298 111.866 111.853 111.816 112.407C110.838 124.729 112.085 136.7 118.066 147.656C118.174 147.856 118.282 148.056 118.394 148.262C121.815 154.511 126.448 159.991 131.542 164.941C132.223 165.616 132.899 166.29 133.552 166.992C136.493 170.103 140.135 173.03 144.14 174.609C144.509 174.756 144.509 174.756 144.886 174.907C149.244 176.359 153.838 175.599 157.891 173.693C161.032 172.097 163.636 169.846 166.187 167.448C166.851 166.83 167.525 166.239 168.218 165.655C169.596 164.456 170.777 163.096 171.972 161.718C172.343 161.303 172.343 161.303 172.722 160.88C175.075 158.212 177.05 155.311 179.003 152.343C179.176 152.085 179.176 152.085 179.352 151.822C185.728 142.264 187.926 131.551 187.884 120.227C187.883 119.925 187.883 119.624 187.882 119.313C187.867 114.162 187.652 109.107 186.913 104.004C186.866 103.677 186.819 103.35 186.771 103.014C185.647 95.6387 183.466 88.2848 179.296 82.0309C170.462 82.3023 161.692 84.6259 155.053 90.6401C151.331 94.0032 151.331 94.0032 149.458 94.0586C146.83 93.8454 145.094 92.5523 142.986 91.058C136.537 86.5167 128.324 82.7717 120.41 82.0309Z" fill="black"/>
<path d="M96.6637 145.044C97.4763 145.407 97.9644 145.908 98.5897 146.541C98.841 146.794 99.0924 147.046 99.3513 147.307C99.6117 147.573 99.8721 147.84 100.14 148.114C100.397 148.373 100.654 148.631 100.919 148.898C102.241 150.236 103.523 151.595 104.749 153.022C105.278 153.635 105.832 154.224 106.384 154.816C111.458 160.471 115.752 166.993 119.238 173.731C119.341 173.928 119.443 174.126 119.549 174.329C120.149 175.494 120.731 176.666 121.302 177.845C121.576 178.405 121.855 178.962 122.135 179.519C128.684 192.753 131.948 207.473 135.297 221.759C135.344 221.961 135.391 222.162 135.44 222.37C136.02 224.848 136.595 227.327 137.162 229.808C137.321 230.502 137.48 231.197 137.641 231.891C137.858 232.835 138.072 233.779 138.285 234.724C138.349 235.001 138.413 235.277 138.479 235.562C138.535 235.816 138.592 236.069 138.649 236.329C138.699 236.548 138.748 236.766 138.799 236.991C138.867 237.598 138.867 237.598 138.574 238.77C113.631 238.77 88.6875 238.77 62.9883 238.77C62.9883 234.365 62.9883 234.365 63.1393 232.347C63.1556 232.119 63.1719 231.89 63.1887 231.655C63.2417 230.926 63.2976 230.197 63.3545 229.468C63.3739 229.217 63.3933 228.966 63.4133 228.707C64.5108 214.733 67.9354 201.755 78.8086 192.188C82.2372 189.383 86.3567 187.066 90.8569 186.786C94.7362 187.224 97.2073 189.823 99.6265 192.697C100.379 193.574 101.166 194.417 101.953 195.264C102.883 196.266 103.808 197.267 104.7 198.303C106.728 200.646 108.891 202.873 111.013 205.13C112.76 206.988 114.5 208.85 116.198 210.753C117.114 211.766 118.048 212.761 118.982 213.758C120.512 215.393 122.014 217.042 123.462 218.751C123.778 219.124 124.094 219.497 124.411 219.87C124.73 220.245 125.048 220.622 125.366 220.999C126.145 221.961 126.145 221.961 127.148 222.656C122.507 213.809 117.295 205.267 111.035 197.461C110.824 197.197 110.613 196.933 110.395 196.661C109.737 195.848 109.068 195.043 108.398 194.238C108.174 193.96 107.951 193.681 107.72 193.394C105.637 190.845 103.326 188.525 101.001 186.2C100.835 186.034 100.669 185.867 100.497 185.696C98.6924 183.891 96.8798 182.109 94.9219 180.469C94.7487 180.322 94.5756 180.174 94.3972 180.022C89.7071 176.061 85.961 173.903 79.6875 174.317C73.5773 175.014 67.6933 178.437 62.4284 181.424C62.098 181.609 61.7677 181.793 61.4273 181.983C61.1345 182.15 60.8418 182.317 60.5401 182.489C59.7656 182.813 59.7656 182.813 59.0758 182.718C58.9167 182.653 58.7577 182.587 58.5938 182.52C61.1309 179.015 63.7337 175.589 66.5039 172.266C66.7151 172.011 66.7151 172.011 66.9306 171.751C69.8806 168.197 73.0045 164.832 76.2697 161.567C76.759 161.077 77.246 160.585 77.7328 160.092C79.6615 158.154 81.6479 156.392 83.7891 154.688C84.1267 154.4 84.4623 154.109 84.795 153.816C87.4405 151.481 90.2307 149.361 93.0779 147.279C93.5274 146.944 93.9702 146.599 94.406 146.246C94.6102 146.082 94.8145 145.919 95.0249 145.75C95.2034 145.602 95.3819 145.454 95.5657 145.302C96.0938 145.02 96.0938 145.02 96.6637 145.044ZM127.441 223.242C127.734 223.828 127.734 223.828 127.734 223.828L127.441 223.242Z" fill="black"/>
<path d="M203.288 145.016C204.16 145.434 204.925 145.969 205.701 146.539C205.877 146.667 206.054 146.795 206.236 146.927C209.789 149.525 213.239 152.252 216.57 155.13C216.959 155.457 217.356 155.775 217.756 156.089C220.095 157.939 222.191 159.992 224.291 162.105C224.889 162.706 225.49 163.304 226.092 163.902C228.005 165.813 229.835 167.732 231.514 169.854C232.128 170.63 232.78 171.344 233.459 172.064C235.147 173.903 236.669 175.85 238.184 177.832C238.424 178.144 238.424 178.144 238.668 178.462C239.162 179.105 239.653 179.75 240.143 180.395C240.298 180.598 240.453 180.8 240.613 181.009C241.699 182.451 241.699 182.451 241.699 183.105C240.42 182.713 239.286 182.212 238.107 181.583C237.754 181.396 237.401 181.21 237.048 181.024C236.866 180.927 236.684 180.83 236.496 180.73C233.03 178.896 229.558 177.155 225.879 175.781C225.546 175.656 225.213 175.531 224.87 175.402C220.709 173.986 216.548 173.477 212.476 175.323C210.289 176.478 208.43 178.007 206.543 179.589C206.362 179.74 206.181 179.891 205.995 180.046C204.215 181.533 202.457 183.025 200.848 184.698C200.341 185.206 199.804 185.663 199.255 186.126C198.109 187.116 197.115 188.202 196.116 189.339C195.502 190.032 194.875 190.711 194.241 191.386C192.515 193.235 190.946 195.177 189.407 197.182C188.937 197.789 188.461 198.39 187.984 198.991C185.685 201.893 183.542 204.871 181.486 207.95C181.09 208.54 180.691 209.128 180.289 209.715C177.26 214.163 174.576 218.828 171.973 223.535C173.114 222.408 174.215 221.25 175.305 220.074C175.475 219.891 175.644 219.708 175.819 219.52C176.815 218.443 177.793 217.354 178.751 216.244C179.644 215.231 180.566 214.245 181.484 213.255C182.356 212.313 183.221 211.364 184.076 210.406C185.435 208.889 186.832 207.408 188.228 205.924C189.443 204.631 190.641 203.325 191.822 202C192.631 201.101 193.453 200.215 194.275 199.328C195.384 198.131 196.479 196.924 197.547 195.69C198.366 194.751 199.205 193.829 200.042 192.905C200.614 192.265 201.172 191.615 201.727 190.96C203.41 189.04 205.194 187.163 207.84 186.822C213.381 186.565 218.427 189.968 222.4 193.487C222.878 193.931 223.354 194.376 223.828 194.824C224.041 195.014 224.254 195.205 224.474 195.402C235.148 205.365 235.819 220.42 236.568 234.006C236.583 234.287 236.599 234.569 236.615 234.859C236.629 235.121 236.642 235.383 236.657 235.653C236.675 235.995 236.675 235.995 236.693 236.343C236.72 237.055 236.723 237.764 236.719 238.476C235.727 238.699 234.813 238.805 233.798 238.805C233.509 238.805 233.219 238.806 232.922 238.806C232.604 238.805 232.287 238.804 231.96 238.803C231.619 238.803 231.278 238.803 230.926 238.803C229.97 238.802 229.013 238.801 228.057 238.798C227.228 238.796 226.399 238.795 225.569 238.794C213.772 238.78 201.975 238.705 190.178 238.639C186.968 238.62 183.758 238.603 180.548 238.585C173.979 238.55 167.409 238.513 160.84 238.476C161.198 236.799 161.556 235.121 161.915 233.444C162.036 232.875 162.157 232.306 162.279 231.738C163.214 227.353 164.191 222.983 165.253 218.627C165.364 218.168 165.364 218.168 165.478 217.7C165.915 215.897 166.356 214.095 166.802 212.294C166.972 211.604 167.142 210.914 167.311 210.224C171.108 194.823 176.633 179.558 185.156 166.113C185.284 165.91 185.411 165.708 185.542 165.499C189.472 159.292 194.274 153.756 199.33 148.449C199.781 147.973 200.228 147.493 200.673 147.011C200.93 146.741 201.188 146.47 201.453 146.191C201.674 145.955 201.895 145.72 202.123 145.477C202.734 145.019 202.734 145.019 203.288 145.016Z" fill="black"/>
<path d="M131.836 184.57C132.999 185.007 134.101 185.54 135.215 186.086C143.315 190.034 152.02 190.805 160.644 187.971C162.763 187.236 164.752 186.326 166.688 185.186C167.285 184.863 167.285 184.863 167.871 184.863C167.365 188.095 166.549 191.263 165.784 194.44C165.645 195.018 165.507 195.596 165.368 196.174C165.032 197.58 164.694 198.985 164.355 200.391C163.297 200.056 162.314 199.697 161.337 199.171C161.139 199.065 160.941 198.959 160.737 198.851C160.493 198.718 160.249 198.586 159.998 198.45C159.573 198.221 159.148 197.992 158.724 197.764C158.355 197.565 157.986 197.367 157.617 197.168C157.602 197.499 157.587 197.83 157.571 198.171C157.4 201.739 157.137 205.293 156.812 208.85C156.786 209.127 156.761 209.403 156.735 209.688C155.813 219.689 154.414 229.482 151.849 239.209C151.766 239.527 151.682 239.846 151.596 240.174C151.515 240.469 151.435 240.764 151.352 241.068C151.281 241.325 151.211 241.582 151.139 241.847C150.849 242.663 150.496 243.334 150 244.043C149.807 244.043 149.613 244.043 149.414 244.043C144.611 232.234 143.711 218.692 142.584 206.122C142.559 205.838 142.533 205.554 142.507 205.261C142.434 204.45 142.364 203.638 142.295 202.827C142.274 202.59 142.253 202.352 142.231 202.107C142.102 200.553 142.072 199.02 142.09 197.461C141.834 197.607 141.834 197.607 141.573 197.756C140.886 198.148 140.197 198.537 139.508 198.926C139.142 199.135 139.142 199.135 138.768 199.349C138.416 199.547 138.416 199.547 138.056 199.75C137.839 199.872 137.623 199.995 137.4 200.122C136.816 200.391 136.816 200.391 135.938 200.391C135.4 198.373 134.863 196.356 134.326 194.338C134.144 193.651 133.961 192.965 133.778 192.279C133.515 191.292 133.253 190.305 132.991 189.318C132.909 189.012 132.827 188.706 132.743 188.39C132.628 187.959 132.628 187.959 132.512 187.519C132.411 187.142 132.411 187.142 132.309 186.756C132.128 186.031 131.977 185.304 131.836 184.57Z" fill="black"/>
<path d="M130.169 140.594C130.471 140.596 130.773 140.599 131.085 140.601C131.603 140.604 131.603 140.604 132.132 140.607C132.514 140.611 132.896 140.615 133.291 140.619C133.695 140.622 134.099 140.625 134.503 140.627C135.603 140.635 136.704 140.645 137.804 140.655C138.953 140.665 140.102 140.673 141.25 140.682C143.427 140.698 145.604 140.716 147.781 140.735C150.259 140.756 152.736 140.775 155.214 140.794C160.312 140.834 165.41 140.875 170.508 140.918C170.369 141.296 170.369 141.296 170.227 141.682C169.878 142.629 169.53 143.577 169.182 144.525C169.032 144.932 168.882 145.34 168.732 145.748C167.917 147.962 167.105 150.175 166.36 152.414C166.243 152.767 166.125 153.121 166.003 153.486C165.773 154.185 165.544 154.886 165.317 155.587C165.202 155.929 165.087 156.272 164.969 156.625C164.822 157.073 164.822 157.073 164.673 157.53C164.568 157.752 164.463 157.974 164.355 158.203C163.92 158.348 163.92 158.348 163.477 158.496C163.327 158.196 163.178 157.896 163.024 157.587C162.472 156.476 161.918 155.366 161.365 154.257C161.125 153.776 160.885 153.294 160.646 152.813C160.303 152.123 159.958 151.433 159.614 150.743C159.507 150.527 159.399 150.31 159.289 150.087C158.842 149.1 158.842 149.1 158.203 148.242C158.078 148.454 157.953 148.666 157.824 148.885C155.344 153.084 152.854 157.275 150.293 161.426C149.292 161.016 148.885 160.609 148.351 159.676C148.212 159.439 148.074 159.202 147.931 158.958C147.786 158.703 147.641 158.448 147.491 158.185C147.18 157.653 146.869 157.121 146.556 156.59C146.399 156.321 146.241 156.053 146.079 155.776C145.362 154.572 144.61 153.392 143.848 152.216C143.718 152.014 143.587 151.811 143.453 151.603C142.756 150.531 142.018 149.529 141.211 148.535C140.655 149.689 140.1 150.842 139.545 151.996C139.389 152.318 139.234 152.641 139.074 152.973C138.1 154.998 137.151 157.032 136.23 159.082C135.45 158.692 135.434 158.37 135.144 157.557C135.002 157.163 135.002 157.163 134.856 156.762C134.755 156.475 134.654 156.188 134.549 155.893C134.443 155.597 134.337 155.302 134.227 154.997C133.886 154.046 133.548 153.095 133.209 152.143C132.985 151.515 132.76 150.888 132.535 150.261C132.003 148.776 131.473 147.291 130.944 145.806C130.554 144.712 130.163 143.618 129.773 142.524C129.581 141.989 129.39 141.453 129.199 140.918C129.492 140.625 129.492 140.625 130.169 140.594Z" fill="black"/>
<path d="M132.129 110.449C134.085 111.979 135.432 113.859 135.937 116.308C136.208 119.032 135.502 121.274 133.79 123.401C132.335 124.958 130.741 125.807 128.611 126.095C125.866 126.178 123.72 125.53 121.599 123.738C121.134 123.239 120.771 122.746 120.41 122.167C120.29 121.979 120.17 121.79 120.046 121.595C118.892 119.446 118.811 116.923 119.476 114.597C120.459 112.383 122.234 110.565 124.457 109.57C127.048 108.782 129.809 109.059 132.129 110.449Z" fill="black"/>
<path d="M177.246 111.035C179.063 112.667 180.264 114.619 180.485 117.101C180.428 119.48 179.698 121.541 178.155 123.347C176.033 125.342 173.916 126.095 171.057 126.057C168.706 125.833 166.779 124.488 165.234 122.754C163.813 120.519 163.475 118.35 163.77 115.723C164.549 113.227 165.873 111.428 168.164 110.157C171.259 108.719 174.454 109.109 177.246 111.035Z" fill="black"/>
</svg>
