<svg width="300" height="300" viewBox="0 0 300 300" fill="none" xmlns="http://www.w3.org/2000/svg">
<path d="M210.352 61.2303C211.034 61.9117 211.036 62.1722 211.176 63.098C211.387 64.1649 211.478 64.4076 212.293 65.2037C212.638 65.4122 212.638 65.4122 212.989 65.6249C213.882 65.294 214.35 64.8531 214.93 64.1234C215.159 63.8454 215.389 63.5675 215.626 63.2811C215.819 63.2811 216.012 63.2811 216.212 63.2811C216.302 63.0001 216.302 63.0001 216.395 62.7135C216.797 62.1092 216.797 62.1092 217.609 61.8403C218.555 61.8163 218.555 61.8163 219.316 62.377C219.555 62.6391 219.793 62.9012 220.038 63.1712C220.278 63.4288 220.517 63.6864 220.763 63.9517C221.001 64.2138 221.239 64.4759 221.485 64.7459C221.972 65.2356 222.46 65.7237 222.95 66.2108C223.357 66.6207 223.765 67.0307 224.172 67.4408C224.801 68.0738 225.431 68.7058 226.061 69.3379C226.39 69.6688 226.72 70 227.048 70.3315C227.53 70.8164 228.012 71.3005 228.495 71.7841C228.649 71.9394 228.804 72.0947 228.963 72.2547C229.993 73.2799 231.058 74.2331 232.207 75.1242C232.771 75.7576 232.874 76.2086 232.911 77.0506C232.568 77.5934 232.568 77.5934 232.042 78.0909C231.856 78.2712 231.67 78.4516 231.479 78.6374C231.28 78.8207 231.082 79.0041 230.878 79.193C230.583 79.4765 230.583 79.4765 230.281 79.7657C229.794 80.2321 229.304 80.6938 228.809 81.1522C229.834 82.6554 229.834 82.6554 231.413 83.3518C231.684 83.3147 231.954 83.2777 232.233 83.2396C233.076 83.1778 233.076 83.1778 233.79 83.203C234.431 83.9354 234.431 83.9354 234.669 84.6678C234.469 84.9851 234.469 84.9851 234.266 85.3087C233.774 86.093 233.774 86.093 233.552 86.8651C233.051 87.9198 232.407 88.4153 231.446 89.0624C230.494 89.2088 230.494 89.2088 229.688 89.0624C229.102 88.1835 229.102 88.1835 229.139 87.0482C229.161 86.1016 229.112 85.8564 228.608 84.9974C227.879 84.2539 227.879 84.2539 226.465 83.7889C225.305 84.9491 224.145 86.1092 222.95 87.3045C223.623 88.6654 223.623 88.6654 224.708 89.6483C225.094 89.6483 225.481 89.6483 225.88 89.6483C227.051 89.6483 227.051 89.6483 227.802 90.161C228.223 90.8202 228.223 90.8202 228.142 91.3752C227.535 93.1441 226.48 94.5506 224.917 95.5763C224.415 95.8006 224.415 95.8006 223.554 95.7457C223.355 95.6672 223.155 95.5886 222.95 95.5077C222.615 93.8702 222.615 93.8702 222.855 93.1822C223.023 92.5431 223.023 92.5431 222.561 91.9508C222.375 91.7469 222.189 91.543 221.998 91.3329C221.815 91.1259 221.632 90.919 221.444 90.7057C220.908 90.1384 220.908 90.1384 220.02 90.2342C219.526 90.7164 219.037 91.2047 218.555 91.6991C218.362 91.6991 218.169 91.6991 217.969 91.6991C217.969 91.8924 217.969 92.0858 217.969 92.285C217.493 92.7851 217.005 93.2743 216.505 93.7499C217.109 94.9271 217.628 95.5543 218.848 96.0936C219.15 96.0936 219.453 96.0936 219.764 96.0936C220.606 96.0936 220.606 96.0936 221.174 96.4415C221.485 96.9725 221.485 96.9725 221.467 97.6134C220.942 99.1883 220.444 100.42 219.16 101.514C217.776 102.191 217.776 102.191 216.797 101.953C216.248 101.349 216.248 101.349 215.919 100.488C216.018 99.9987 216.018 99.9987 216.12 99.4994C216.316 98.4727 216.316 98.4727 215.843 97.8503C215.398 97.3384 214.944 96.8544 214.454 96.3866C213.436 96.557 212.956 96.8982 212.237 97.6283C211.951 97.9163 211.951 97.9163 211.66 98.2102C211.464 98.412 211.268 98.6139 211.066 98.8219C210.771 99.1196 210.771 99.1196 210.469 99.4233C209.383 100.521 209.383 100.521 208.422 101.727C208.285 101.898 208.149 102.069 208.008 102.246C207.815 102.246 207.622 102.246 207.422 102.246C207.326 102.536 207.229 102.826 207.13 103.125C206.653 103.632 206.168 104.11 205.665 104.59C205.277 104.972 204.89 105.356 204.504 105.74C204.294 105.949 204.083 106.159 203.866 106.374C203.65 106.589 203.434 106.804 203.211 107.025C202.997 107.236 202.784 107.448 202.563 107.665C201.572 108.652 200.606 109.643 199.697 110.705C198.381 112.233 196.937 113.63 195.502 115.045C194.957 115.583 194.413 116.121 193.869 116.66C193.511 117.013 193.511 117.013 193.146 117.372C192.473 118.053 192.473 118.053 191.9 118.795C191.262 119.59 190.574 120.285 189.844 120.996C189.596 121.243 189.348 121.489 189.092 121.744C188.7 122.133 188.7 122.133 188.299 122.531C187.855 122.972 187.411 123.415 186.968 123.857C186.665 124.158 186.362 124.458 186.059 124.759C184.49 126.315 182.948 127.877 181.511 129.557C180.766 130.408 179.959 131.193 179.151 131.982C177.927 133.191 176.749 134.414 175.635 135.726C174.943 136.521 174.193 137.252 173.438 137.988C173.809 139.067 174.186 139.7 175.031 140.46C181.201 146.418 185.625 154.628 185.834 163.275C185.723 170.03 183.152 176.174 178.459 181.034C175.704 183.594 172.366 185.35 168.944 186.835C167.544 187.459 166.468 188.152 165.355 189.211C164.942 189.551 164.942 189.551 164.356 189.551C164.28 189.716 164.204 189.882 164.125 190.053C163.738 190.783 163.279 191.4 162.781 192.059C160.27 195.638 159.796 199.999 159.412 204.254C158.706 211.767 156.07 218.988 151.465 225C151.271 225.258 151.076 225.516 150.875 225.781C144.778 233.556 135.699 238.363 125.934 239.546C112.85 240.727 100.275 234.872 90.4138 226.686C90.0446 226.375 89.6762 226.063 89.3086 225.75C88.7768 225.298 88.2407 224.852 87.7036 224.407C84.7294 221.923 81.7788 219.281 79.3951 216.211C79.3951 216.017 79.3951 215.824 79.3951 215.625C79.2018 215.625 79.0084 215.625 78.8092 215.625C78.3422 215.092 77.9147 214.561 77.4909 213.995C77.2962 213.737 77.2962 213.737 77.0977 213.474C73.1181 208.142 69.7092 202.464 67.9694 195.996C67.8704 195.642 67.7715 195.289 67.6695 194.925C65.4758 185.506 67.6654 175.459 72.7028 167.324C74.3878 164.738 76.3781 162.469 78.5162 160.254C78.7474 160.004 78.9785 159.755 79.2166 159.497C85.265 153.138 94.3278 148.857 102.889 147.18C107.723 146.231 112.29 143.706 115.119 139.599C116.37 137.567 117.308 135.344 118.304 133.18C121.537 126.157 125.706 120.581 133.085 117.565C139.106 115.489 145.45 115.914 151.172 118.652C151.418 118.76 151.663 118.868 151.916 118.98C154.144 120.005 156.42 121.474 158.104 123.273C158.516 123.732 158.516 123.732 159.376 123.633C159.825 123.225 159.825 123.225 160.255 122.662C161.134 121.61 162.061 120.64 163.038 119.678C163.939 118.789 164.819 117.896 165.638 116.931C166.714 115.668 167.892 114.514 169.078 113.355C169.925 112.521 170.731 111.67 171.506 110.77C172.762 109.316 174.13 107.985 175.5 106.64C176.446 105.706 177.363 104.765 178.229 103.754C179.518 102.257 180.93 100.886 182.337 99.4994C182.865 98.979 183.392 98.4579 183.919 97.9361C184.15 97.7086 184.38 97.4811 184.618 97.2467C185.174 96.717 185.174 96.717 185.45 96.0936C185.643 96.0936 185.837 96.0936 186.036 96.0936C186.102 95.9314 186.168 95.7691 186.235 95.6019C186.739 94.7151 187.379 94.1203 188.114 93.4134C188.418 93.1179 188.722 92.8222 189.025 92.5264C189.183 92.3732 189.341 92.22 189.504 92.0622C191.922 89.7124 194.211 87.4226 196.062 84.5866C196.539 83.856 197.042 83.2264 197.626 82.5804C198.292 81.7951 198.451 81.5189 198.633 80.5663C198.41 80.4817 198.186 80.3971 197.956 80.3099C197.169 79.9803 197.169 79.9803 196.29 79.3944C195.957 79.4488 195.625 79.5032 195.283 79.5592C194.239 79.6874 194.239 79.6874 193.525 79.3761C193.067 78.8085 193.067 78.8085 192.866 78.0211C193.225 76.2903 194.51 75.1814 195.869 74.121C196.733 73.7664 197.415 73.7634 198.34 73.828C198.694 74.536 198.61 74.8789 198.542 75.659C198.524 76.5014 198.54 76.9156 199.024 77.6148C199.558 78.1546 199.558 78.1546 200.391 78.8085C201.564 78.3376 202.359 77.5141 203.229 76.6295C203.375 76.4858 203.521 76.3421 203.672 76.194C204.354 75.5076 204.768 75.0521 205.079 74.121C204.904 74.0364 204.728 73.9518 204.548 73.8646C203.907 73.535 203.907 73.535 203.028 72.9491C202.396 72.9331 202.396 72.9331 201.728 73.004C200.66 73.0284 200.484 73.0266 199.622 72.3082C199.219 71.4842 199.219 71.4842 199.201 70.7518C199.616 69.7752 200.186 69.2561 200.977 68.5545C201.331 68.2192 201.331 68.2192 201.691 67.8771C202.619 67.266 203.11 67.1931 204.2 67.3827C204.749 67.8404 204.749 67.8404 205.079 68.5545C205.052 69.053 205.052 69.053 205.024 69.5616C204.971 70.5723 204.971 70.5723 205.467 71.0631C205.905 71.4226 206.37 71.7491 206.837 72.0702C207.885 71.624 208.578 71.0026 209.382 70.2025C209.612 69.9767 209.843 69.7508 210.081 69.5181C210.629 68.867 210.826 68.5053 210.938 67.6756C210.128 66.8437 210.128 66.8437 209.18 66.2108C208.577 66.2025 208.577 66.2025 207.972 66.339C206.837 66.5038 206.837 66.5038 206.086 66.0643C205.665 65.3319 205.665 65.3319 205.61 64.3431C206.067 62.9469 206.822 62.3402 208.008 61.5233C208.818 61.1186 209.458 61.1744 210.352 61.2303ZM196.29 88.7694C196.097 88.9831 195.904 89.1969 195.706 89.4171C193.662 91.6667 191.545 93.8314 189.378 95.963C188.406 96.9236 187.457 97.8841 186.573 98.926C184.775 101.016 182.752 102.908 180.794 104.845C178.155 107.449 178.155 107.449 175.673 110.2C174.483 111.552 173.161 112.787 171.877 114.049C170.653 115.261 169.486 116.496 168.364 117.802C167.558 118.714 166.69 119.559 165.821 120.41C164.574 121.642 163.371 122.883 162.238 124.222C161.426 125.134 160.55 125.98 159.681 126.837C158.918 127.594 158.186 128.362 157.49 129.181C156.606 130.218 155.657 131.172 154.688 132.129C153.732 133.073 152.793 134.014 151.923 135.04C150.843 136.312 149.652 137.466 148.466 138.638C147.445 139.652 146.48 140.691 145.55 141.79C144.863 142.558 144.127 143.273 143.391 143.994C142.136 145.233 141.03 146.491 140.04 147.949C140.98 148.238 140.98 148.238 142.09 148.242C142.8 147.722 143.278 147.294 143.848 146.649C144.002 146.486 144.155 146.323 144.313 146.155C145.263 145.136 146.177 144.086 147.079 143.025C148.033 141.965 149.057 140.977 150.07 139.975C151.092 138.961 152.056 137.921 152.988 136.823C153.67 136.057 154.398 135.339 155.128 134.619C156.022 133.736 156.897 132.851 157.709 131.891C158.693 130.736 159.763 129.679 160.84 128.613C162.08 127.386 163.277 126.153 164.404 124.821C165.27 123.851 166.201 122.947 167.132 122.04C167.941 121.244 168.706 120.428 169.446 119.568C170.706 118.112 172.076 116.777 173.45 115.43C174.386 114.504 175.294 113.575 176.148 112.573C177.735 110.731 179.503 109.056 181.232 107.349C183.319 105.304 183.319 105.304 185.285 103.143C186.948 101.194 188.829 99.4376 190.649 97.6383C193.204 95.1202 193.204 95.1202 195.596 92.4495C195.997 91.9917 196.425 91.5939 196.876 91.1864C197.533 90.5944 197.533 90.5944 197.462 89.8863C197.168 89.2572 197.168 89.2572 196.29 88.7694ZM199.219 91.992C198.675 92.5282 198.132 93.0655 197.59 93.6034C197.439 93.7514 197.289 93.8995 197.134 94.052C196.298 94.8824 195.502 95.7306 194.734 96.6246C193.296 98.2881 191.712 99.8058 190.145 101.348C188.897 102.584 187.704 103.84 186.559 105.173C185.347 106.536 184.017 107.791 182.717 109.069C181.502 110.272 180.345 111.497 179.231 112.794C178.08 114.09 176.818 115.283 175.582 116.497C174.397 117.669 173.274 118.868 172.187 120.131C171.33 121.099 170.405 121.996 169.483 122.9C168.197 124.172 166.948 125.446 165.782 126.83C164.841 127.881 163.824 128.858 162.821 129.85C161.806 130.857 160.849 131.89 159.924 132.981C159.187 133.804 158.403 134.575 157.618 135.351C156.668 136.29 155.734 137.224 154.871 138.244C153.729 139.59 152.461 140.808 151.208 142.049C150.15 143.099 149.143 144.168 148.183 145.309C147.328 146.266 146.402 147.155 145.475 148.043C145.118 148.392 144.775 148.755 144.434 149.121C144.434 149.314 144.434 149.508 144.434 149.707C145.217 150.359 145.217 150.359 145.884 150.248C146.635 149.938 147.04 149.541 147.602 148.956C147.912 148.635 147.912 148.635 148.228 148.307C148.746 147.745 149.248 147.176 149.744 146.594C150.749 145.423 151.835 144.346 152.93 143.262C154.176 142.028 155.381 140.789 156.513 139.45C157.192 138.687 157.917 137.973 158.643 137.256C159.532 136.379 160.401 135.5 161.207 134.546C162.408 133.135 163.739 131.852 165.061 130.555C165.98 129.649 166.865 128.731 167.707 127.753C169.016 126.234 170.451 124.848 171.881 123.444C173.063 122.275 174.182 121.079 175.266 119.819C176.357 118.59 177.55 117.459 178.723 116.308C179.662 115.38 180.573 114.447 181.431 113.443C182.963 111.663 184.667 110.044 186.337 108.396C187.884 106.868 189.402 105.338 190.815 103.684C191.955 102.394 193.212 101.212 194.439 100.006C195.642 98.8168 196.786 97.6008 197.889 96.3185C198.447 95.6786 199.035 95.077 199.641 94.4823C199.84 94.2859 200.039 94.0895 200.244 93.8872C200.389 93.7452 200.534 93.6032 200.684 93.4569C200.452 92.871 200.452 92.871 200.098 92.285C199.808 92.1883 199.518 92.0917 199.219 91.992ZM202.442 94.9217C201.702 95.6529 200.964 96.3858 200.226 97.119C200.02 97.3229 199.814 97.5269 199.601 97.737C198.608 98.7252 197.643 99.7209 196.729 100.783C195.434 102.288 194.006 103.655 192.582 105.037C192.38 105.236 192.178 105.435 191.97 105.64C191.786 105.819 191.603 105.997 191.414 106.181C190.952 106.613 190.952 106.613 191.016 107.226C190.823 107.226 190.63 107.226 190.43 107.226C190.001 107.651 190.001 107.651 189.551 108.215C188.034 110 186.351 111.613 184.683 113.255C183.606 114.322 182.541 115.382 181.559 116.537C179.826 118.558 177.873 120.385 175.981 122.256C173.401 124.805 173.401 124.805 170.972 127.498C169.906 128.715 168.722 129.824 167.567 130.957C166.404 132.107 165.304 133.288 164.236 134.527C163.623 135.226 162.971 135.875 162.305 136.523C161.459 137.36 160.64 138.198 159.87 139.105C158.775 140.387 157.575 141.555 156.377 142.739C155.349 143.76 154.377 144.806 153.44 145.911C152.809 146.62 152.14 147.282 151.465 147.949C149.592 149.752 149.592 149.752 147.95 151.758C147.95 152.048 147.95 152.338 147.95 152.637C148.518 153.136 148.518 153.136 149.122 153.515C149.484 153.126 149.484 153.126 149.854 152.729C150.774 151.743 151.694 150.757 152.615 149.771C153.016 149.343 153.416 148.914 153.816 148.485C155.995 146.151 158.189 143.841 160.46 141.597C161.418 140.647 162.312 139.668 163.183 138.639C164.188 137.525 165.266 136.481 166.338 135.432C167.219 134.563 168.062 133.68 168.87 132.742C170.183 131.221 171.62 129.831 173.052 128.424C174.041 127.446 175.004 126.464 175.91 125.409C177.333 123.755 178.907 122.252 180.461 120.722C181.507 119.687 182.536 118.655 183.491 117.535C185.119 115.638 186.946 113.918 188.724 112.162C190.374 110.529 192.01 108.902 193.517 107.134C194.161 106.393 194.854 105.715 195.557 105.029C196.653 103.95 197.69 102.841 198.687 101.67C199.571 100.68 200.528 99.7634 201.472 98.831C202.241 98.0511 202.935 97.2459 203.614 96.3866C203.23 95.4719 203.23 95.4719 202.442 94.9217ZM205.665 97.8514C204.827 98.6802 203.992 99.5108 203.156 100.342C202.922 100.574 202.687 100.805 202.446 101.044C201.388 102.098 200.349 103.153 199.376 104.288C197.899 106.006 196.257 107.565 194.644 109.154C193.546 110.242 192.462 111.326 191.456 112.5C189.984 114.217 188.344 115.771 186.734 117.357C185.449 118.63 184.216 119.918 183.039 121.291C181.829 122.653 180.5 123.906 179.201 125.182C177.974 126.397 176.804 127.634 175.679 128.944C174.923 129.802 174.109 130.597 173.292 131.396C172.103 132.57 170.965 133.757 169.885 135.032C169.002 136.018 168.051 136.935 167.11 137.865C166.312 138.657 165.542 139.455 164.814 140.314C163.733 141.585 162.542 142.739 161.357 143.911C160.335 144.926 159.371 145.965 158.439 147.063C157.625 147.977 156.747 148.826 155.876 149.686C154.912 150.641 154.009 151.627 153.137 152.666C152.57 153.298 151.949 153.845 151.319 154.413C150.721 154.963 150.721 154.963 150.294 155.566C150.232 156.707 150.232 156.707 150.587 157.617C151.856 157.129 152.677 156.189 153.608 155.237C153.778 155.064 153.949 154.892 154.125 154.714C155.155 153.666 156.139 152.592 157.089 151.472C157.904 150.557 158.783 149.707 159.655 148.847C160.425 148.084 161.163 147.309 161.866 146.484C162.827 145.357 163.873 144.323 164.926 143.283C165.891 142.326 166.792 141.334 167.674 140.301C168.206 139.7 168.765 139.137 169.337 138.574C170.068 137.854 170.761 137.124 171.424 136.34C172.428 135.169 173.514 134.092 174.61 133.008C175.85 131.781 177.047 130.548 178.174 129.215C179.04 128.246 179.971 127.341 180.902 126.434C181.702 125.648 182.457 124.841 183.188 123.99C184.63 122.323 186.216 120.802 187.786 119.258C188.843 118.21 189.883 117.165 190.851 116.034C192.388 114.244 194.102 112.624 195.78 110.97C197.101 109.661 198.373 108.34 199.582 106.927C200.804 105.554 202.152 104.295 203.469 103.014C204.745 101.756 205.847 100.519 206.837 99.0233C206.256 98.4432 206.256 98.4432 205.665 97.8514ZM125.479 127.771C123.59 130.131 122.478 132.736 121.308 135.498C120.247 137.999 119.17 140.236 117.481 142.383C117.309 142.611 117.137 142.839 116.959 143.074C113.231 147.656 107.52 150.028 101.954 151.465C94.1507 153.559 87.4472 156.855 81.4459 162.305C81.2556 162.471 81.0653 162.637 80.8691 162.808C74.8637 168.36 71.1752 177.117 70.8155 185.2C70.4936 197.694 76.7005 206.94 84.8883 215.753C85.0646 215.944 85.2408 216.134 85.4224 216.33C86.506 217.483 87.6384 218.544 88.8394 219.574C89.4083 220.064 89.9477 220.581 90.4913 221.1C98.6148 228.302 108.998 232.029 119.795 231.511C128.767 230.865 136.683 226.208 142.505 219.484C144.57 217 146.197 214.299 147.602 211.395C147.704 211.186 147.806 210.977 147.912 210.762C149.892 206.495 150.63 202.185 151.191 197.552C151.954 191.306 152.865 185.402 157.961 181.104C160.111 179.506 162.544 178.413 164.942 177.246C169.585 174.973 172.926 171.925 175.287 167.303C175.383 167.118 175.478 166.933 175.577 166.742C176.909 164.01 177.406 161.321 177.375 158.295C177.371 157.834 177.371 157.834 177.367 157.364C177.237 151.493 174.96 146.204 171.094 141.797C170.804 141.603 170.514 141.41 170.215 141.211C168.961 142.44 167.714 143.665 166.572 145.001C165.775 145.931 164.934 146.796 164.063 147.656C163.034 148.673 162.071 149.714 161.135 150.815C160.195 151.855 159.187 152.827 158.178 153.798C157.785 154.182 157.407 154.58 157.032 154.98C157.032 155.174 157.032 155.367 157.032 155.566C156.839 155.566 156.645 155.566 156.446 155.566C156.446 155.76 156.446 155.953 156.446 156.152C156.253 156.152 156.059 156.152 155.86 156.152C155.331 156.677 154.872 157.247 154.396 157.82C153.809 158.496 153.809 158.496 153.195 159.053C151.481 160.67 151.126 162.195 150.715 164.43C150.341 166.398 149.656 167.958 148.536 169.629C148.367 169.895 148.197 170.161 148.023 170.434C145.752 172.706 143.088 173.927 139.942 174.491C138.402 175.08 137.5 176.101 136.378 177.283C136.061 177.605 136.061 177.605 135.738 177.935C134.747 178.952 133.787 179.988 132.861 181.064C131.564 182.564 130.137 183.93 128.715 185.311C128.513 185.51 128.311 185.709 128.102 185.914C127.919 186.092 127.736 186.27 127.547 186.454C127.085 186.886 127.085 186.886 127.149 187.5C126.956 187.5 126.762 187.5 126.563 187.5C126.114 187.944 126.114 187.944 125.648 188.525C124.698 189.65 123.684 190.666 122.609 191.671C122.073 192.186 122.073 192.186 122.169 193.066C122.613 193.485 122.613 193.485 123.176 193.872C124.045 194.576 124.199 194.747 124.494 195.886C124.507 196.606 124.512 197.326 124.512 198.047C125.017 198.509 125.017 198.509 125.666 198.889C126.51 199.487 126.816 199.713 127.241 200.683C127.109 201.945 126.542 202.4 125.684 203.32C125.684 203.514 125.684 203.707 125.684 203.906C125.509 203.991 125.334 204.075 125.153 204.162C124.456 204.506 124.456 204.506 123.633 205.078C122.426 205.27 121.757 205.079 120.777 204.4C120.068 203.869 119.747 203.497 119.239 202.734C118.655 202.734 118.071 202.736 117.487 202.753C116.56 202.724 116.137 202.45 115.43 201.855C115.156 201.487 114.888 201.114 114.625 200.738C113.783 199.545 112.84 198.912 111.61 198.152C110.874 197.642 110.592 197.065 110.157 196.289C109.219 195.376 108.203 194.549 107.18 193.733C105.92 192.699 105.22 191.839 104.569 190.347C104.163 189.594 103.582 189.339 102.833 188.965C102.009 188.301 101.703 187.971 101.459 186.932C101.404 186.39 101.358 185.847 101.331 185.303C101.032 184.449 100.753 184.27 100.049 183.728C99.245 183.075 99.0313 182.831 98.6395 181.824C98.7998 179.965 100.049 178.777 101.368 177.539C102.382 176.863 102.813 176.725 104.005 176.953C105.014 177.595 105.616 178.179 106.055 179.297C107.379 179.154 107.95 178.716 108.873 177.776C109.123 177.523 109.374 177.27 109.632 177.01C109.89 176.743 110.147 176.477 110.413 176.202C110.797 175.814 110.797 175.814 111.188 175.419C112.497 174.087 113.759 172.73 114.977 171.316C115.633 170.57 116.331 169.883 117.042 169.189C118.15 168.098 119.2 166.977 120.209 165.793C120.942 164.965 121.734 164.201 122.522 163.426C123.139 162.797 123.675 162.117 124.219 161.426C124.413 161.329 124.606 161.232 124.805 161.133C124.998 160.412 125.163 159.7 125.318 158.972C126.197 155.219 127.884 152.248 131.154 150.063C132.44 149.324 133.588 148.808 135.041 148.517C137.083 147.971 138.28 146.185 139.598 144.642C140.278 143.869 141.007 143.158 141.743 142.438C142.815 141.378 143.825 140.295 144.803 139.149C145.388 138.49 146.005 137.874 146.631 137.256C147.43 136.468 148.194 135.674 148.92 134.82C149.818 133.773 150.778 132.804 151.758 131.836C153.443 130.17 155.036 128.47 156.446 126.562C151.515 122.049 145.851 120.112 139.196 120.317C133.533 120.604 129.131 123.591 125.479 127.771ZM133.301 152.93C133.073 153.079 132.844 153.228 132.609 153.382C130.403 154.959 129.022 156.951 128.431 159.613C128.11 162.34 128.376 164.765 129.987 167.065C131.652 169.111 133.905 170.653 136.524 171.094C139.441 171.371 142.221 170.734 144.564 168.909C146.458 167.033 147.748 164.535 147.809 161.863C147.807 161.64 147.805 161.417 147.803 161.188C147.801 160.955 147.8 160.722 147.798 160.483C147.716 157.864 146.843 156.196 145.075 154.285C142.718 152.075 140.252 151.618 137.116 151.678C135.641 151.746 134.537 152.12 133.301 152.93ZM124.208 164.914C122.501 166.624 122.501 166.624 120.887 168.42C119.996 169.463 119.042 170.424 118.067 171.387C116.952 172.488 115.892 173.602 114.884 174.803C114.324 175.417 113.746 175.991 113.147 176.567C112.945 176.763 112.744 176.958 112.536 177.16C112.126 177.555 111.713 177.947 111.296 178.336C111.108 178.519 110.919 178.701 110.724 178.889C110.552 179.052 110.379 179.215 110.201 179.383C109.789 179.874 109.789 179.874 109.957 180.531C110.023 180.704 110.089 180.876 110.157 181.055C110.544 181.151 110.93 181.248 111.329 181.348C111.557 181.098 111.785 180.849 112.02 180.592C114.362 178.05 116.771 175.587 119.233 173.161C120.504 171.904 121.726 170.633 122.876 169.264C123.385 168.7 123.934 168.217 124.512 167.724C125.115 167.143 125.373 166.891 125.454 166.05C125.378 165.326 125.378 165.326 125.098 164.355C124.705 164.322 124.705 164.322 124.208 164.914ZM126.065 169.18C125.873 169.377 125.681 169.573 125.483 169.775C125.2 170.061 125.2 170.061 124.912 170.352C124.357 170.946 123.827 171.548 123.298 172.165C121.782 173.907 120.117 175.502 118.472 177.122C117.159 178.424 115.886 179.737 114.688 181.145C114.09 181.835 113.449 182.47 112.794 183.105C112.987 183.492 113.18 183.879 113.38 184.277C114.451 184.277 114.689 183.949 115.422 183.221C115.571 183.068 115.721 182.915 115.874 182.757C116.109 182.522 116.109 182.522 116.348 182.282C116.68 181.948 117.011 181.613 117.341 181.277C117.839 180.77 118.34 180.266 118.842 179.763C120.331 178.262 121.788 176.752 123.162 175.145C124.047 174.139 125.006 173.206 125.959 172.265C126.159 172.066 126.36 171.867 126.566 171.662C127.053 171.179 127.54 170.697 128.028 170.215C127.631 169.472 127.631 169.472 127.149 168.75C126.527 168.686 126.527 168.686 126.065 169.18ZM129.493 171.68C129.241 171.963 129.241 171.963 128.984 172.253C126.909 174.554 124.738 176.744 122.52 178.909C122.285 179.14 122.05 179.372 121.808 179.61C121.595 179.818 121.383 180.026 121.164 180.24C120.639 180.719 120.639 180.719 120.704 181.348C120.269 181.493 120.269 181.493 119.825 181.64C119.342 182.116 119.342 182.116 118.873 182.702C117.879 183.876 116.825 184.963 115.723 186.035C115.917 186.422 116.11 186.808 116.309 187.207C117.477 187.329 117.477 187.329 118.179 186.651C118.431 186.397 118.682 186.143 118.941 185.882C119.076 185.746 119.211 185.611 119.35 185.472C119.634 185.186 119.917 184.899 120.198 184.611C120.63 184.168 121.066 183.73 121.504 183.293C122.967 182.065 122.967 182.065 123.633 180.469C123.827 180.469 124.02 180.469 124.219 180.469C124.66 180.034 124.66 180.034 125.118 179.462C126.306 178.064 127.585 176.777 128.889 175.488C129.117 175.261 129.345 175.034 129.58 174.8C130.136 174.248 130.693 173.696 131.251 173.144C131.001 172.559 131.001 172.559 130.665 171.973C130.064 171.737 130.064 171.737 129.493 171.68ZM131.159 176.219C130.933 176.448 130.706 176.677 130.473 176.913C129.75 177.647 129.036 178.39 128.321 179.132C127.84 179.622 127.359 180.112 126.877 180.601C125.013 182.5 123.166 184.401 121.429 186.418C120.878 187.05 120.295 187.645 119.697 188.232C119.498 188.429 119.299 188.625 119.094 188.827C118.875 189.04 118.875 189.04 118.653 189.258C118.846 189.644 119.04 190.031 119.239 190.43C120.407 190.553 120.407 190.553 121.094 189.871C121.334 189.62 121.574 189.37 121.821 189.111C122.177 188.744 122.177 188.744 122.541 188.37C123.123 187.747 123.678 187.105 124.232 186.456C125.897 184.542 127.74 182.791 129.544 181.009C131.701 178.877 133.838 176.761 135.645 174.316C133.444 173.601 132.646 174.655 131.159 176.219ZM107.05 182.337C106.869 182.521 106.688 182.705 106.502 182.895C106.305 183.093 106.109 183.291 105.907 183.496C105.599 183.81 105.599 183.81 105.286 184.131C105.079 184.34 104.872 184.55 104.659 184.766C104.147 185.285 103.636 185.806 103.126 186.328C103.416 186.715 103.706 187.101 104.005 187.5C104.864 187.113 105.465 186.695 106.124 186.024C106.292 185.854 106.46 185.684 106.633 185.509C106.891 185.243 106.891 185.243 107.154 184.973C107.33 184.794 107.507 184.615 107.688 184.431C108.122 183.99 108.554 183.548 108.985 183.105C108.586 182.508 108.586 182.508 108.106 181.933C107.491 181.87 107.491 181.87 107.05 182.337ZM110.743 185.156C110.428 185.471 110.428 185.471 110.108 185.791C108.855 187.044 107.601 188.298 106.348 189.551C106.638 189.937 106.928 190.324 107.227 190.723C108.74 190.296 109.529 189.366 110.541 188.232C110.702 188.058 110.864 187.884 111.029 187.705C111.909 186.857 111.909 186.857 112.208 185.742C111.724 185.549 111.241 185.355 110.743 185.156ZM113.965 188.086C113.221 188.788 112.485 189.498 111.75 190.21C111.432 190.509 111.432 190.509 111.107 190.815C110.808 191.107 110.808 191.107 110.504 191.405C110.318 191.583 110.132 191.761 109.941 191.944C109.51 192.456 109.51 192.456 109.586 193.097C109.869 193.801 109.869 193.801 111.036 194.238C112.486 192.788 113.936 191.338 115.43 189.844C114.947 188.635 114.947 188.635 113.965 188.086ZM117.188 191.308C117.05 191.446 116.912 191.584 116.77 191.726C115.137 193.359 115.137 193.359 114.63 193.83C114.193 194.218 114.193 194.218 114.258 194.824C114.071 194.897 113.884 194.969 113.691 195.044C113.032 195.356 113.032 195.356 112.867 196.033C112.843 196.214 112.818 196.395 112.794 196.582C113.519 196.872 113.519 196.872 114.258 197.168C115.979 195.825 117.439 194.301 118.653 192.48C118.17 192.094 117.686 191.707 117.188 191.308ZM120.704 194.531C119.959 195.233 119.223 195.943 118.488 196.655C118.17 196.955 118.17 196.955 117.846 197.261C117.547 197.552 117.547 197.552 117.242 197.85C117.056 198.028 116.871 198.206 116.679 198.389C116.232 198.908 116.232 198.908 116.397 199.579C116.499 199.836 116.499 199.836 116.602 200.098C117.131 200.33 117.131 200.33 117.774 200.39C118.342 200.025 118.342 200.025 118.85 199.458C119.044 199.259 119.239 199.059 119.439 198.854C119.639 198.642 119.839 198.43 120.045 198.212C120.249 198.001 120.453 197.79 120.664 197.572C121.169 197.05 121.67 196.525 122.169 195.996C121.937 195.41 121.937 195.41 121.583 194.824C121.293 194.727 121.003 194.631 120.704 194.531Z" fill="black"/>
<path d="M197.168 90.5273C197.264 90.7207 197.361 90.9141 197.461 91.1133C198.052 91.4454 198.052 91.4454 198.633 91.6992C198.633 92.8711 198.633 92.8711 198.128 93.4799C197.902 93.6899 197.675 93.8999 197.442 94.1162C196.597 94.908 195.807 95.7143 195.054 96.5927C193.606 98.2673 192.014 99.7958 190.437 101.348C189.189 102.584 187.996 103.84 186.851 105.173C185.639 106.536 184.309 107.791 183.009 109.069C181.794 110.272 180.638 111.497 179.523 112.794C178.372 114.09 177.11 115.283 175.874 116.497C174.689 117.67 173.566 118.868 172.479 120.131C171.622 121.099 170.697 121.996 169.775 122.9C168.489 124.173 167.24 125.446 166.074 126.83C165.133 127.882 164.116 128.858 163.113 129.85C162.098 130.858 161.141 131.89 160.216 132.981C159.479 133.804 158.696 134.576 157.91 135.352C156.96 136.29 156.026 137.224 155.163 138.245C154.021 139.59 152.753 140.808 151.5 142.049C150.442 143.1 149.436 144.169 148.474 145.309C147.624 146.263 146.708 147.151 145.793 148.043C145.013 148.799 145.013 148.799 144.433 149.707C145.193 150.063 145.193 150.063 146.191 150C147.652 148.917 148.768 147.389 149.947 146.015C150.811 145.064 151.723 144.165 152.636 143.262C153.883 142.029 155.087 140.789 156.22 139.45C156.899 138.687 157.623 137.973 158.349 137.256C159.238 136.379 160.108 135.501 160.913 134.546C162.114 133.135 163.446 131.852 164.767 130.556C165.686 129.649 166.571 128.731 167.413 127.753C168.722 126.234 170.157 124.848 171.587 123.444C172.769 122.275 173.888 121.079 174.972 119.819C176.063 118.59 177.257 117.459 178.429 116.309C179.368 115.38 180.279 114.447 181.137 113.443C182.669 111.664 184.373 110.044 186.044 108.396C187.59 106.868 189.109 105.338 190.522 103.684C191.661 102.394 192.918 101.212 194.145 100.006C195.348 98.8169 196.492 97.6009 197.595 96.3186C198.153 95.6788 198.741 95.0771 199.347 94.4824C199.645 94.1879 199.645 94.1879 199.95 93.8873C200.168 93.6743 200.168 93.6743 200.39 93.457C200.683 94.3359 200.683 94.3359 200.683 95.5078C201.167 95.4111 201.65 95.3145 202.148 95.2148C201.055 96.5264 199.926 97.7536 198.698 98.9399C198.141 99.5126 197.621 100.097 197.1 100.702C195.974 102 194.768 103.204 193.542 104.407C193.124 104.817 192.707 105.228 192.29 105.64C192.108 105.819 191.927 105.997 191.739 106.181C191.281 106.626 191.281 106.626 191.015 107.227C190.822 107.227 190.629 107.227 190.429 107.227C190.364 107.388 190.299 107.549 190.232 107.714C189.726 108.605 189.048 109.261 188.32 109.969C188.095 110.192 188.095 110.192 187.865 110.42C187.384 110.895 186.902 111.368 186.419 111.841C185.789 112.461 185.159 113.082 184.53 113.704C184.376 113.856 184.223 114.008 184.065 114.164C183.281 114.945 182.525 115.736 181.809 116.579C180.095 118.59 178.15 120.4 176.273 122.256C173.693 124.805 173.693 124.805 171.265 127.498C170.198 128.715 169.014 129.825 167.859 130.957C166.696 132.107 165.596 133.288 164.528 134.528C163.915 135.226 163.263 135.876 162.597 136.523C161.751 137.36 160.932 138.198 160.162 139.105C159.067 140.387 157.867 141.555 156.669 142.739C155.641 143.76 154.669 144.806 153.732 145.911C153.102 146.62 152.433 147.282 151.758 147.949C149.884 149.752 149.884 149.752 148.242 151.758C148.242 152.048 148.242 152.338 148.242 152.637C148.532 152.83 148.822 153.023 149.121 153.223C149.351 152.972 149.581 152.72 149.818 152.462C151.25 150.902 152.679 149.348 154.193 147.867C154.695 147.356 155.159 146.825 155.625 146.28C156.904 144.809 158.288 143.454 159.679 142.09C160.831 140.952 161.917 139.783 162.974 138.556C163.942 137.463 164.996 136.456 166.04 135.436C166.922 134.566 167.767 133.682 168.576 132.742C169.889 131.221 171.326 129.832 172.759 128.424C173.747 127.446 174.71 126.464 175.616 125.409C177.039 123.755 178.614 122.252 180.168 120.723C181.213 119.687 182.242 118.656 183.197 117.535C184.826 115.638 186.652 113.918 188.43 112.162C190.08 110.53 191.717 108.903 193.224 107.134C193.867 106.393 194.561 105.716 195.263 105.029C196.36 103.949 197.397 102.84 198.395 101.668C199.037 100.95 199.72 100.283 200.409 99.6094C201.613 98.4215 202.656 97.1941 203.613 95.8008C203.691 95.9866 203.769 96.1724 203.849 96.3638C204.172 97.0716 204.172 97.0716 205.115 97.3389C205.392 97.4114 205.67 97.4839 205.957 97.5586C204.731 99.0568 203.409 100.423 202.025 101.773C201.222 102.562 200.463 103.37 199.73 104.225C198.228 105.961 196.571 107.544 194.936 109.154C193.838 110.242 192.754 111.326 191.748 112.5C190.276 114.217 188.636 115.771 187.026 117.357C185.741 118.63 184.508 119.918 183.331 121.291C182.121 122.653 180.792 123.906 179.493 125.182C178.266 126.397 177.096 127.635 175.971 128.944C175.215 129.802 174.401 130.598 173.584 131.396C172.395 132.57 171.258 133.757 170.177 135.032C169.294 136.018 168.343 136.936 167.402 137.865C166.604 138.658 165.834 139.455 165.106 140.314C164.026 141.585 162.834 142.739 161.649 143.912C160.628 144.926 159.663 145.965 158.732 147.063C157.917 147.977 157.039 148.827 156.168 149.686C155.204 150.641 154.301 151.628 153.428 152.666C152.865 153.294 152.252 153.844 151.629 154.413C150.833 155.174 150.833 155.174 150.438 156.17C150.424 156.793 150.424 156.793 150.586 157.617C152.602 155.901 154.519 154.118 156.244 152.106C157.096 151.113 158.004 150.186 158.935 149.268C159.848 148.367 160.74 147.461 161.572 146.484C162.533 145.358 163.577 144.324 164.631 143.286C165.617 142.308 166.53 141.289 167.43 140.232C168.006 139.597 168.644 139.078 169.336 138.574C169.034 139.224 168.726 139.778 168.292 140.35C167.816 140.93 167.816 140.93 167.578 141.797C167.288 141.894 166.998 141.99 166.699 142.09C165.828 143.153 165.828 143.153 165.527 144.434C165.72 144.53 165.914 144.627 166.113 144.727C166.113 144.533 166.113 144.34 166.113 144.141C166.5 144.237 166.886 144.334 167.285 144.434C166.082 145.883 164.813 147.217 163.463 148.531C162.844 149.133 162.844 149.133 162.304 150C162.111 150 161.918 150 161.719 150C161.64 150.174 161.561 150.348 161.481 150.528C161.13 151.177 160.78 151.588 160.253 152.099C160 152.347 160 152.347 159.742 152.6C159.566 152.769 159.391 152.938 159.21 153.113C158.861 153.452 158.513 153.791 158.165 154.131C158.011 154.28 157.857 154.429 157.698 154.583C157.29 154.979 157.29 154.979 157.031 155.566C156.838 155.566 156.644 155.566 156.445 155.566C156.445 155.76 156.445 155.953 156.445 156.152C156.252 156.152 156.058 156.152 155.859 156.152C155.789 156.319 155.719 156.485 155.647 156.656C155.194 157.465 154.642 158.001 153.973 158.643C152.254 160.297 151.649 161.324 151.227 163.641C150.422 167.62 148.671 170.661 145.26 172.967C143.612 173.905 141.798 174.449 139.938 174.788C138.419 175.365 137.536 176.357 136.432 177.521C136.222 177.734 136.013 177.948 135.797 178.168C134.981 179.007 134.244 179.786 133.594 180.762C133.4 180.762 133.207 180.762 133.008 180.762C132.934 180.931 132.861 181.1 132.786 181.274C132.371 182.025 131.899 182.518 131.285 183.117C131.064 183.335 130.842 183.553 130.614 183.778C130.383 184.003 130.151 184.229 129.913 184.46C129.454 184.909 128.996 185.359 128.539 185.809C128.335 186.007 128.132 186.205 127.922 186.409C127.418 186.889 127.418 186.889 127.148 187.5C126.955 187.5 126.761 187.5 126.562 187.5C126.502 187.657 126.442 187.813 126.38 187.975C125.808 188.962 125.022 189.665 124.2 190.448C122.945 191.588 122.945 191.588 122.168 193.066C122.422 193.175 122.422 193.175 122.68 193.286C123.471 193.725 123.951 194.109 124.511 194.824C124.779 195.977 124.917 196.919 124.511 198.047C124.829 198.138 124.829 198.138 125.152 198.23C126.253 198.768 126.773 199.369 127.441 200.391C127.496 201.718 127.019 202.507 126.129 203.479C125.102 204.464 124.177 205.244 122.772 205.573C121.449 205.276 120.519 204.523 119.531 203.613C119.434 203.42 119.338 203.227 119.238 203.027C118.888 203.052 118.537 203.076 118.176 203.101C116.839 203.091 116.162 202.747 115.136 201.855C114.855 201.482 114.58 201.103 114.312 200.72C113.486 199.538 112.562 198.902 111.314 198.199C110.742 197.754 110.742 197.754 110.444 197.007C110.09 196.125 109.831 196.066 108.984 195.703C108.483 195.249 108.483 195.249 107.995 194.733C107.354 194.065 106.721 193.474 105.981 192.92C105.044 192.068 104.787 191.288 104.297 190.137C103.606 189.644 103.606 189.644 102.832 189.258C101.93 188.5 101.436 188.067 101.147 186.914C101.103 186.378 101.064 185.84 101.037 185.303C100.738 184.449 100.459 184.271 99.7556 183.728C98.9512 183.075 98.7375 182.831 98.3457 181.824C98.5124 179.89 99.8602 178.683 101.22 177.393C101.917 176.834 102.247 176.66 103.143 176.459C104.369 176.746 104.879 177.222 105.761 178.125C106.018 178.802 106.018 178.802 106.054 179.297C107.235 178.901 107.936 178.402 108.808 177.518C109.164 177.16 109.164 177.16 109.527 176.795C109.771 176.545 110.015 176.295 110.266 176.038C110.508 175.794 110.749 175.551 110.998 175.301C112.272 174.011 113.496 172.695 114.678 171.322C115.336 170.574 116.036 169.885 116.748 169.189C117.856 168.097 118.907 166.976 119.917 165.792C120.643 164.971 121.427 164.214 122.209 163.447C122.706 162.94 123.153 162.42 123.596 161.865C123.801 161.624 124.007 161.382 124.219 161.133C124.412 161.133 124.605 161.133 124.804 161.133C124.812 160.955 124.82 160.778 124.827 160.595C125.09 156.708 126.914 153.507 129.708 150.835C131.308 149.526 133.036 148.626 135.058 148.206C137.006 147.683 138.087 146.092 139.333 144.614C139.995 143.855 140.711 143.161 141.43 142.456C142.509 141.39 143.525 140.302 144.509 139.149C145.094 138.49 145.711 137.874 146.338 137.256C147.136 136.468 147.9 135.674 148.626 134.821C149.664 133.608 150.791 132.497 151.929 131.38C152.789 130.531 153.58 129.666 154.339 128.723C155.238 127.657 155.958 127.371 157.324 127.148C157.421 127.438 157.517 127.729 157.617 128.027C158.004 127.931 158.39 127.834 158.789 127.734C158.021 129.256 156.847 130.317 155.639 131.488C154.253 132.839 152.925 134.206 151.662 135.674C150.903 136.535 150.088 137.333 149.267 138.135C148.073 139.314 146.928 140.508 145.842 141.789C145.153 142.561 144.419 143.286 143.683 144.012C142.499 145.183 141.388 146.371 140.332 147.656C140.635 148.016 140.635 148.016 141.277 148.059C142.448 147.901 142.86 147.332 143.664 146.484C143.807 146.336 143.949 146.188 144.095 146.036C145.022 145.063 145.904 144.057 146.775 143.035C147.733 141.973 148.76 140.981 149.776 139.975C150.798 138.961 151.762 137.921 152.694 136.823C153.377 136.058 154.104 135.339 154.834 134.619C155.728 133.737 156.603 132.851 157.416 131.891C158.399 130.736 159.469 129.679 160.547 128.613C161.786 127.386 162.984 126.153 164.11 124.821C164.976 123.851 165.908 122.947 166.838 122.04C167.648 121.244 168.412 120.428 169.153 119.568C170.412 118.112 171.782 116.777 173.156 115.43C174.092 114.504 175 113.575 175.854 112.573C177.441 110.731 179.209 109.056 180.938 107.349C183.026 105.304 183.026 105.304 184.991 103.143C186.654 101.195 188.535 99.4378 190.356 97.6384C192.908 95.1214 192.908 95.1214 195.304 92.4568C195.889 91.7748 196.523 91.1527 197.168 90.5273ZM197.168 91.1133C197.461 91.6992 197.461 91.6992 197.461 91.6992L197.168 91.1133ZM133.301 152.93C133.072 153.079 132.844 153.228 132.608 153.382C130.402 154.959 129.021 156.951 128.43 159.613C128.109 162.341 128.375 164.765 129.986 167.065C131.652 169.111 133.904 170.653 136.523 171.094C139.44 171.371 142.22 170.735 144.563 168.909C146.458 167.033 147.748 164.535 147.808 161.863C147.806 161.64 147.804 161.417 147.802 161.188C147.801 160.955 147.799 160.723 147.797 160.483C147.715 157.864 146.842 156.196 145.074 154.285C142.717 152.075 140.251 151.618 137.115 151.678C135.64 151.747 134.536 152.12 133.301 152.93ZM124.207 164.914C122.5 166.624 122.5 166.624 120.886 168.42C119.996 169.463 119.041 170.424 118.066 171.387C116.951 172.488 115.891 173.602 114.884 174.803C114.323 175.417 113.745 175.991 113.146 176.567C112.945 176.763 112.743 176.958 112.535 177.16C112.125 177.555 111.712 177.948 111.295 178.337C111.107 178.519 110.918 178.701 110.724 178.889C110.551 179.053 110.378 179.216 110.201 179.384C109.788 179.874 109.788 179.874 109.956 180.531C110.022 180.704 110.088 180.877 110.156 181.055C110.543 181.151 110.929 181.248 111.328 181.348C111.556 181.098 111.784 180.849 112.019 180.592C114.361 178.051 116.771 175.587 119.233 173.161C120.503 171.904 121.725 170.633 122.875 169.264C123.384 168.701 123.934 168.217 124.511 167.725C125.114 167.144 125.372 166.891 125.453 166.05C125.378 165.326 125.378 165.326 125.097 164.355C124.704 164.322 124.704 164.322 124.207 164.914ZM126.064 169.18C125.872 169.377 125.68 169.573 125.482 169.775C125.199 170.061 125.199 170.061 124.911 170.352C124.356 170.946 123.826 171.549 123.297 172.165C121.781 173.908 120.116 175.502 118.471 177.122C117.158 178.424 115.886 179.737 114.687 181.145C114.089 181.835 113.448 182.47 112.793 183.105C112.986 183.492 113.179 183.879 113.379 184.277C114.45 184.277 114.688 183.949 115.421 183.221C115.57 183.068 115.72 182.915 115.873 182.758C116.108 182.522 116.108 182.522 116.348 182.282C116.68 181.948 117.011 181.613 117.34 181.277C117.838 180.77 118.339 180.266 118.841 179.763C120.33 178.263 121.787 176.752 123.161 175.145C124.046 174.14 125.005 173.206 125.958 172.266C126.158 172.067 126.359 171.868 126.565 171.663C127.052 171.179 127.539 170.697 128.027 170.215C127.63 169.472 127.63 169.472 127.148 168.75C126.526 168.686 126.526 168.686 126.064 169.18ZM129.492 171.68C129.24 171.963 129.24 171.963 128.983 172.253C126.908 174.555 124.737 176.744 122.519 178.909C122.284 179.14 122.049 179.372 121.807 179.61C121.595 179.818 121.382 180.026 121.163 180.24C120.638 180.719 120.638 180.719 120.703 181.348C120.268 181.493 120.268 181.493 119.824 181.641C119.342 182.116 119.342 182.116 118.872 182.703C117.878 183.876 116.824 184.964 115.722 186.035C115.916 186.422 116.109 186.809 116.308 187.207C117.476 187.329 117.476 187.329 118.178 186.652C118.43 186.398 118.681 186.144 118.94 185.882C119.075 185.747 119.21 185.611 119.349 185.472C119.633 185.186 119.916 184.899 120.197 184.611C120.629 184.168 121.065 183.73 121.503 183.293C122.966 182.065 122.966 182.065 123.633 180.469C123.826 180.469 124.019 180.469 124.219 180.469C124.659 180.034 124.659 180.034 125.117 179.462C126.305 178.064 127.584 176.777 128.888 175.488C129.116 175.261 129.344 175.034 129.579 174.8C130.136 174.248 130.692 173.696 131.25 173.145C131 172.559 131 172.559 130.664 171.973C130.063 171.737 130.063 171.737 129.492 171.68ZM131.158 176.22C130.932 176.449 130.706 176.677 130.472 176.913C129.749 177.648 129.035 178.39 128.32 179.132C127.839 179.622 127.358 180.112 126.876 180.601C125.012 182.5 123.165 184.401 121.428 186.418C120.877 187.05 120.294 187.645 119.696 188.232C119.497 188.429 119.298 188.625 119.093 188.828C118.875 189.041 118.875 189.041 118.652 189.258C118.845 189.645 119.039 190.031 119.238 190.43C120.406 190.553 120.406 190.553 121.093 189.871C121.333 189.62 121.573 189.37 121.82 189.111C122.176 188.744 122.176 188.744 122.54 188.37C123.122 187.747 123.678 187.105 124.231 186.456C125.896 184.542 127.739 182.791 129.543 181.009C131.7 178.877 133.837 176.761 135.644 174.316C133.443 173.601 132.645 174.655 131.158 176.22ZM107.049 182.337C106.868 182.521 106.687 182.705 106.501 182.895C106.304 183.093 106.108 183.291 105.906 183.496C105.599 183.81 105.599 183.81 105.285 184.131C105.078 184.34 104.871 184.55 104.658 184.766C104.146 185.285 103.635 185.806 103.125 186.328C103.415 186.715 103.705 187.102 104.004 187.5C104.863 187.113 105.465 186.695 106.123 186.024C106.291 185.854 106.459 185.684 106.632 185.509C106.89 185.244 106.89 185.244 107.153 184.973C107.329 184.794 107.506 184.615 107.688 184.431C108.121 183.99 108.553 183.548 108.984 183.105C108.585 182.508 108.585 182.508 108.105 181.934C107.49 181.87 107.49 181.87 107.049 182.337ZM110.742 185.156C110.428 185.471 110.428 185.471 110.107 185.791C108.854 187.045 107.601 188.298 106.347 189.551C106.637 189.938 106.927 190.324 107.226 190.723C108.74 190.296 109.528 189.367 110.541 188.232C110.702 188.058 110.863 187.884 111.029 187.705C111.909 186.857 111.909 186.857 112.207 185.742C111.723 185.549 111.24 185.355 110.742 185.156ZM113.965 188.086C113.22 188.788 112.484 189.498 111.749 190.21C111.431 190.51 111.431 190.51 111.106 190.815C110.808 191.107 110.808 191.107 110.503 191.405C110.317 191.583 110.131 191.761 109.94 191.944C109.509 192.456 109.509 192.456 109.585 193.097C109.868 193.801 109.868 193.801 111.035 194.238C112.485 192.788 113.935 191.338 115.429 189.844C114.946 188.636 114.946 188.636 113.965 188.086ZM117.187 191.309C117.049 191.446 116.912 191.584 116.77 191.726C115.136 193.359 115.136 193.359 114.63 193.83C114.192 194.218 114.192 194.218 114.258 194.824C114.07 194.897 113.883 194.969 113.69 195.044C113.031 195.356 113.031 195.356 112.866 196.033C112.842 196.214 112.818 196.395 112.793 196.582C113.518 196.872 113.518 196.872 114.258 197.168C115.979 195.825 117.439 194.301 118.652 192.48C118.169 192.094 117.685 191.707 117.187 191.309ZM120.703 194.531C119.958 195.233 119.222 195.943 118.487 196.655C118.169 196.955 118.169 196.955 117.845 197.261C117.546 197.552 117.546 197.552 117.241 197.85C117.055 198.028 116.87 198.206 116.678 198.389C116.231 198.909 116.231 198.909 116.397 199.579C116.498 199.836 116.498 199.836 116.601 200.098C117.13 200.33 117.13 200.33 117.773 200.391C118.341 200.025 118.341 200.025 118.849 199.458C119.043 199.259 119.238 199.06 119.438 198.854C119.638 198.642 119.838 198.43 120.044 198.212C120.248 198.001 120.452 197.79 120.663 197.573C121.168 197.05 121.669 196.525 122.168 195.996C121.936 195.41 121.936 195.41 121.582 194.824C121.292 194.728 121.002 194.631 120.703 194.531Z" fill="black"/>
<path d="M203.613 95.8008C203.691 95.9866 203.769 96.1724 203.849 96.3638C204.172 97.0716 204.172 97.0716 205.115 97.3389C205.393 97.4114 205.671 97.4839 205.957 97.5586C204.731 99.0568 203.41 100.423 202.025 101.773C201.222 102.562 200.463 103.37 199.73 104.225C198.228 105.961 196.571 107.544 194.936 109.154C193.838 110.242 192.755 111.326 191.748 112.5C190.276 114.217 188.636 115.771 187.026 117.357C185.741 118.63 184.508 119.918 183.331 121.291C182.121 122.653 180.792 123.906 179.494 125.182C178.266 126.397 177.097 127.635 175.971 128.944C175.215 129.802 174.402 130.598 173.584 131.396C172.395 132.57 171.258 133.757 170.177 135.032C169.294 136.018 168.344 136.936 167.402 137.865C166.604 138.658 165.834 139.455 165.106 140.314C164.026 141.585 162.835 142.739 161.649 143.912C160.628 144.926 159.663 145.965 158.732 147.063C157.917 147.977 157.04 148.826 156.169 149.685C155.369 150.476 154.61 151.285 153.882 152.142C152.969 153.214 151.969 154.091 150.879 154.98C150.879 154.787 150.879 154.594 150.879 154.395C150.655 154.407 150.432 154.419 150.201 154.431C149.414 154.395 149.414 154.395 148.535 153.809C148.954 152.97 149.629 152.405 150.293 151.758C151.014 151.045 151.734 150.33 152.454 149.615C152.639 149.432 152.825 149.249 153.017 149.06C153.949 148.133 154.848 147.193 155.706 146.197C156.954 144.75 158.316 143.427 159.679 142.09C160.831 140.952 161.918 139.783 162.974 138.556C163.942 137.463 164.997 136.456 166.04 135.436C166.922 134.566 167.768 133.682 168.576 132.742C169.889 131.221 171.326 129.832 172.759 128.424C173.748 127.446 174.71 126.464 175.616 125.409C177.039 123.755 178.614 122.252 180.168 120.723C181.213 119.687 182.242 118.656 183.197 117.535C184.826 115.638 186.652 113.918 188.43 112.162C190.081 110.53 191.717 108.903 193.224 107.134C193.868 106.393 194.561 105.716 195.264 105.029C196.36 103.949 197.398 102.84 198.395 101.668C199.037 100.95 199.72 100.283 200.409 99.6094C201.613 98.4215 202.656 97.1941 203.613 95.8008Z" fill="black"/>
<path d="M197.168 90.5273C197.265 90.7207 197.361 90.9141 197.461 91.1133C198.052 91.4454 198.052 91.4454 198.633 91.6992C198.633 92.8711 198.633 92.8711 198.128 93.4799C197.902 93.6899 197.676 93.8999 197.443 94.1162C196.597 94.908 195.808 95.7143 195.054 96.5927C193.606 98.2673 192.015 99.7958 190.438 101.348C189.189 102.584 187.996 103.84 186.852 105.173C185.639 106.536 184.31 107.791 183.009 109.069C181.794 110.272 180.638 111.497 179.523 112.794C178.372 114.09 177.11 115.283 175.874 116.497C174.689 117.67 173.566 118.868 172.479 120.131C171.622 121.099 170.698 121.996 169.775 122.9C168.49 124.173 167.241 125.446 166.074 126.83C165.133 127.882 164.116 128.858 163.113 129.85C162.098 130.858 161.141 131.89 160.216 132.981C159.479 133.804 158.696 134.576 157.91 135.352C156.96 136.29 156.027 137.224 155.164 138.245C154.022 139.588 152.757 140.806 151.505 142.044C150.405 143.135 149.352 144.245 148.368 145.444C147.885 145.968 147.357 146.366 146.777 146.777C146.681 146.391 146.584 146.004 146.484 145.605C145.614 145.896 144.744 146.186 143.848 146.484C145.193 144.582 146.704 142.981 148.37 141.357C149.893 139.867 151.376 138.373 152.764 136.755C153.42 136.005 154.121 135.316 154.834 134.619C155.729 133.737 156.604 132.851 157.416 131.891C158.399 130.736 159.47 129.679 160.547 128.613C161.787 127.386 162.984 126.153 164.111 124.821C164.977 123.851 165.908 122.947 166.838 122.04C167.648 121.244 168.412 120.428 169.153 119.568C170.412 118.112 171.782 116.777 173.156 115.43C174.092 114.504 175 113.575 175.854 112.573C177.441 110.731 179.209 109.056 180.938 107.349C183.026 105.304 183.026 105.304 184.991 103.143C186.654 101.195 188.535 99.4378 190.356 97.6384C192.908 95.1214 192.908 95.1214 195.304 92.4568C195.89 91.7748 196.523 91.1527 197.168 90.5273ZM197.168 91.1133C197.461 91.6992 197.461 91.6992 197.461 91.6992L197.168 91.1133Z" fill="black"/>
<path d="M200.391 93.457C200.684 94.3359 200.684 94.3359 200.684 95.5078C201.167 95.4111 201.65 95.3145 202.148 95.2148C201.055 96.5264 199.926 97.7536 198.698 98.9399C198.141 99.5126 197.621 100.097 197.1 100.702C195.974 102 194.768 103.204 193.542 104.407C193.124 104.817 192.707 105.228 192.29 105.64C192.109 105.819 191.927 105.997 191.74 106.181C191.281 106.626 191.281 106.626 191.016 107.227C190.822 107.227 190.629 107.227 190.43 107.227C190.364 107.388 190.299 107.549 190.232 107.714C189.727 108.605 189.048 109.261 188.321 109.969C188.17 110.117 188.02 110.266 187.865 110.42C187.385 110.895 186.902 111.368 186.42 111.841C185.789 112.461 185.159 113.082 184.53 113.704C184.377 113.856 184.223 114.008 184.065 114.164C183.281 114.945 182.525 115.736 181.809 116.579C180.096 118.59 178.15 120.4 176.273 122.256C173.693 124.805 173.693 124.805 171.265 127.498C170.198 128.715 169.014 129.825 167.86 130.957C166.696 132.107 165.596 133.288 164.528 134.528C163.916 135.226 163.263 135.876 162.598 136.523C161.751 137.36 160.932 138.198 160.162 139.105C159.068 140.387 157.867 141.555 156.669 142.739C155.642 143.759 154.67 144.805 153.733 145.91C152.865 146.887 151.92 147.789 150.99 148.708C150.12 149.59 149.324 150.51 148.535 151.465C148.438 151.271 148.342 151.078 148.242 150.879C148.049 150.782 147.855 150.686 147.656 150.586C147.656 150.393 147.656 150.199 147.656 150C148.043 150.097 148.43 150.193 148.828 150.293C148.828 150.003 148.828 149.713 148.828 149.414C149.268 148.92 149.268 148.92 149.707 148.535C149.514 148.438 149.32 148.342 149.121 148.242C149.218 147.952 149.314 147.662 149.414 147.363C149.221 147.267 149.027 147.17 148.828 147.07C148.995 146.905 149.162 146.74 149.333 146.57C150.1 145.81 150.865 145.048 151.63 144.287C151.892 144.027 152.154 143.767 152.424 143.5C153.764 142.166 155.058 140.817 156.288 139.382C156.942 138.635 157.64 137.949 158.35 137.256C159.239 136.38 160.108 135.5 160.913 134.546C162.114 133.135 163.446 131.852 164.768 130.556C165.687 129.649 166.571 128.731 167.413 127.753C168.723 126.234 170.157 124.848 171.587 123.444C172.769 122.275 173.889 121.079 174.973 119.819C176.064 118.59 177.257 117.459 178.429 116.309C179.369 115.38 180.279 114.447 181.137 113.443C182.67 111.664 184.373 110.044 186.044 108.396C187.59 106.868 189.109 105.338 190.522 103.684C191.661 102.394 192.918 101.212 194.146 100.006C195.348 98.8169 196.492 97.6009 197.596 96.3186C198.153 95.6788 198.742 95.0771 199.347 94.4824C199.546 94.286 199.745 94.0897 199.95 93.8873C200.095 93.7453 200.241 93.6033 200.391 93.457Z" fill="black"/>
<path d="M195.41 88.1836C195.99 88.4736 195.99 88.4736 196.582 88.7695C194.352 91.2443 192.045 93.6269 189.671 95.9631C188.699 96.9238 187.75 97.8843 186.865 98.9262C185.067 101.016 183.044 102.908 181.086 104.846C178.448 107.449 178.448 107.449 175.965 110.2C174.776 111.552 173.453 112.787 172.169 114.05C170.945 115.261 169.779 116.496 168.656 117.802C167.851 118.714 166.982 119.559 166.113 120.41C164.994 121.515 163.893 122.618 162.872 123.816C162.163 124.646 161.476 125.383 160.547 125.977C160.257 125.88 159.967 125.783 159.668 125.684C159.821 124.874 159.993 124.123 160.254 123.34C160.061 123.63 159.867 123.92 159.668 124.219C157.757 124.038 157.757 124.038 157.05 123.468C156.947 123.329 156.844 123.19 156.738 123.047C156.835 122.757 156.932 122.467 157.031 122.168C157.367 122.531 157.367 122.531 157.709 122.9C158.424 123.733 158.424 123.733 159.375 123.633C159.824 123.225 159.824 123.225 160.254 122.662C161.133 121.61 162.06 120.64 163.037 119.678C163.938 118.789 164.818 117.897 165.637 116.931C166.713 115.668 167.892 114.514 169.078 113.355C169.925 112.521 170.73 111.67 171.506 110.77C172.762 109.316 174.129 107.985 175.5 106.641C176.446 105.706 177.362 104.765 178.228 103.754C179.517 102.257 180.93 100.886 182.336 99.4995C182.864 98.9791 183.392 98.458 183.918 97.9362C184.149 97.7088 184.38 97.4813 184.618 97.2469C185.173 96.7171 185.173 96.7171 185.449 96.0938C185.643 96.0938 185.836 96.0938 186.035 96.0938C186.112 95.9213 186.189 95.7488 186.268 95.571C186.638 94.8916 187.025 94.4503 187.576 93.9102C187.85 93.6383 187.85 93.6383 188.131 93.3609C188.321 93.1751 188.512 92.9893 188.708 92.7979C188.901 92.6075 189.094 92.4172 189.293 92.2211C189.768 91.7528 190.245 91.286 190.723 90.8203C190.723 91.6992 190.723 91.6992 190.43 92.2852C190.72 92.4302 190.72 92.4302 191.016 92.5781C191.112 91.998 191.209 91.418 191.309 90.8203C191.889 90.8203 192.469 90.8203 193.066 90.8203C193.163 90.627 193.26 90.4336 193.359 90.2344C193.649 90.3794 193.649 90.3794 193.945 90.5273C194.024 90.2494 194.102 89.9714 194.183 89.6851C194.531 88.7695 194.531 88.7695 195.41 88.1836Z" fill="black"/>
<path d="M127.734 170.215C128.024 170.312 128.314 170.408 128.613 170.508C128.378 170.689 128.142 170.87 127.899 171.057C127.137 171.604 127.137 171.604 126.855 172.266C127.532 172.362 128.209 172.459 128.906 172.559C127.168 174.668 125.222 176.552 123.277 178.469C121.931 179.804 120.627 181.15 119.394 182.591C118.745 183.335 118.055 184.024 117.352 184.717C117.099 184.968 116.845 185.218 116.584 185.477C116.397 185.661 116.209 185.845 116.016 186.035C116.353 186.758 116.616 187.221 117.188 187.793C116.897 187.89 116.607 187.986 116.309 188.086C115.954 188.672 115.954 188.672 115.723 189.258C115.547 189.161 115.372 189.064 115.192 188.965C114.535 188.611 114.535 188.611 113.672 188.672C113.2 189.022 113.2 189.022 112.753 189.505C112.584 189.677 112.415 189.849 112.241 190.026C111.979 190.298 111.979 190.298 111.713 190.576C111.535 190.758 111.357 190.939 111.174 191.127C110.735 191.576 110.299 192.028 109.863 192.48C109.767 192.287 109.67 192.094 109.57 191.895C109.347 191.913 109.123 191.931 108.893 191.949C108.105 191.895 108.105 191.895 107.574 191.455C107.46 191.31 107.345 191.165 107.227 191.016C107.13 191.209 107.033 191.402 106.934 191.602C106.644 191.602 106.354 191.602 106.055 191.602C105.958 191.698 105.861 191.795 105.762 191.895C106.197 192.04 106.197 192.04 106.641 192.188C107.033 192.378 107.425 192.573 107.812 192.773C107.812 193.257 107.812 193.74 107.812 194.238C106.226 193.222 105.315 192.382 104.567 190.649C104.165 189.887 103.585 189.643 102.832 189.258C101.93 188.5 101.436 188.067 101.147 186.914C101.103 186.378 101.064 185.84 101.038 185.303C100.631 184.14 99.6902 183.542 98.7305 182.812C99.6094 182.52 99.6094 182.52 100.507 182.904C101.701 183.997 101.78 185.058 101.953 186.621C102.34 186.428 102.727 186.234 103.125 186.035C102.932 185.938 102.738 185.842 102.539 185.742C102.539 185.549 102.539 185.355 102.539 185.156C103.022 184.963 103.506 184.77 104.004 184.57C103.956 184.794 103.907 185.017 103.857 185.248C103.684 186.046 103.684 186.046 103.711 186.914C104.831 187.03 104.831 187.03 105.392 186.538C105.558 186.366 105.724 186.194 105.894 186.017C106.076 185.832 106.257 185.647 106.444 185.456C106.63 185.26 106.815 185.065 107.007 184.863C107.197 184.668 107.388 184.472 107.584 184.27C108.053 183.787 108.52 183.301 108.984 182.812C109.863 183.105 109.863 183.105 110.156 183.691C110.446 183.691 110.736 183.691 111.035 183.691C110.842 183.981 110.648 184.271 110.449 184.57C112.08 184.929 112.831 184.833 114.258 183.984C114.834 183.482 115.364 182.988 115.895 182.443C116.044 182.294 116.193 182.144 116.346 181.991C116.659 181.676 116.971 181.36 117.282 181.043C117.751 180.565 118.223 180.09 118.695 179.616C120.132 178.168 121.534 176.702 122.861 175.152C123.75 174.145 124.71 173.209 125.665 172.266C125.866 172.067 126.066 171.868 126.272 171.663C126.759 171.179 127.246 170.697 127.734 170.215ZM110.742 185.156C110.428 185.471 110.428 185.471 110.107 185.791C108.854 187.045 107.601 188.298 106.348 189.551C106.638 189.938 106.928 190.324 107.227 190.723C108.74 190.296 109.528 189.367 110.541 188.232C110.702 188.058 110.863 187.884 111.029 187.705C111.909 186.857 111.909 186.857 112.207 185.742C111.724 185.549 111.24 185.355 110.742 185.156Z" fill="black"/>
</svg>
