<svg width="300" height="300" viewBox="0 0 300 300" fill="none" xmlns="http://www.w3.org/2000/svg">
<path d="M230.389 22.6616C230.643 22.8263 230.898 22.991 231.16 23.1607C231.441 23.3408 231.721 23.521 232.01 23.7066C232.301 23.8958 232.592 24.085 232.892 24.2799C233.468 24.6516 234.044 25.0232 234.621 25.3946C234.876 25.56 235.131 25.7253 235.393 25.8957C236.12 26.3595 236.856 26.806 237.598 27.2462C237.012 33.2615 237.012 33.2615 236.426 36.0353C237.102 36.2287 237.779 36.422 238.476 36.6212C238.463 39.8055 237.35 42.7023 235.929 45.5144C235.504 46.2328 235.504 46.2328 235.547 46.8752C236.564 47.7504 237.486 48.3556 238.843 48.3034C239.108 48.2188 239.374 48.1342 239.648 48.047C241.765 47.4483 243.856 47.5668 245.801 48.633C247.309 49.901 248.618 51.4904 248.8 53.507C248.856 55.7876 248.662 57.3964 247.086 59.1066C245.388 60.673 243.802 61.0384 241.527 60.9972C240.642 60.9227 239.879 60.6956 239.062 60.3517C239.159 60.6478 239.256 60.9439 239.355 61.2489C239.918 63.2661 239.703 64.948 238.769 66.797C237.765 68.2892 236.69 69.2378 234.961 69.7267C232.972 69.9431 231.09 70.0345 229.394 68.8478C229.141 68.6786 228.887 68.5094 228.625 68.3351C227.593 67.3568 226.955 66.2618 226.53 64.8904C226.057 63.927 225.534 63.6571 224.597 63.1532C224.317 62.9965 224.037 62.8398 223.748 62.6783C222.983 62.3282 222.983 62.3282 222.33 62.5822C221.717 63.0328 221.193 63.5062 220.66 64.0504C220.456 64.2593 220.252 64.4681 220.041 64.6833C219.479 65.2834 218.941 65.8966 218.408 66.5224C218.069 66.9089 217.727 67.2935 217.383 67.6759C217.138 67.949 217.138 67.949 216.888 68.2275C215.242 69.8672 212.433 71.1916 210.058 71.1916C209.984 71.4024 209.909 71.6133 209.833 71.8305C209.447 72.7157 208.98 73.3839 208.397 74.1521C207.184 75.7859 206.087 77.4715 205.005 79.1933C203.181 82.0697 201.315 84.9143 199.42 87.7443C197.517 90.5876 195.631 93.4397 193.782 96.3181C192.883 97.7114 191.976 99.0996 191.07 100.488C190.888 100.769 190.705 101.049 190.517 101.338C190.341 101.607 190.166 101.877 189.984 102.155C189.815 102.416 189.646 102.677 189.471 102.947C189.134 103.456 188.787 103.96 188.432 104.457C188.268 104.688 188.105 104.919 187.936 105.158C187.788 105.36 187.641 105.562 187.489 105.77C187.148 106.337 187.148 106.337 187.28 106.983C187.564 107.676 187.887 107.892 188.507 108.307C195.002 112.946 199.188 119.785 200.647 127.606C200.875 128.709 201.302 129.62 201.8 130.628C202.579 132.247 203.105 133.852 203.558 135.59C203.619 135.821 203.679 136.052 203.742 136.289C205.597 143.696 204.398 151.711 200.591 158.307C198.21 162.048 195.388 164.945 191.823 167.557C188.074 170.376 186.406 174.136 185.258 178.57C185.127 179.333 185.127 179.333 185.208 180.255C185.252 181.416 185.215 182.287 184.863 183.399C183.776 184.571 182.266 185.275 180.762 185.742C179.66 185.434 178.914 184.585 178.089 183.82C176.423 182.545 174.563 182.621 172.558 182.813C168.783 183.623 166.232 186.155 164.132 189.278C162.476 191.866 161.123 194.524 159.924 197.351C159.849 197.529 159.773 197.706 159.695 197.889C158.754 200.102 157.88 202.32 157.233 204.639C157.174 204.849 157.115 205.058 157.054 205.275C156.686 206.669 156.686 206.669 157.031 208.008C157.664 208.273 158.308 208.511 158.956 208.735C160.668 209.467 161.443 210.32 162.155 212.037C162.628 213.349 163.041 214.674 163.44 216.01C163.617 216.56 163.796 217.111 163.977 217.66C165.234 221.544 165.234 221.544 165.234 222.363C164.614 222.83 163.991 223.267 163.348 223.7C159.355 226.474 156.742 229.509 155.741 234.364C155.512 235.642 155.325 236.926 155.137 238.211C153.962 246.13 151.725 253.092 146.484 259.277C146.241 259.569 145.998 259.86 145.747 260.16C140.533 266.131 133.901 269.803 126.379 272.095C126.191 272.153 126.002 272.211 125.808 272.271C122.366 273.269 118.88 273.459 115.32 273.45C115.103 273.45 114.885 273.45 114.662 273.45C110.819 273.439 107.161 273.078 103.418 272.168C103.096 272.093 103.096 272.093 102.767 272.016C91.2255 269.241 79.9664 262.132 71.1913 254.297C70.9409 254.079 70.6905 253.86 70.4325 253.636C63.505 247.529 58.3425 240.497 55.2474 231.76C54.7054 230.236 54.1003 228.761 53.43 227.289C50.0504 219.776 49.0108 210.964 51.5624 203.027C51.6251 202.827 51.6879 202.627 51.7526 202.421C54.8351 192.853 62.016 186.064 70.3307 180.835C73.2156 179.005 75.131 177.077 76.1717 173.731C76.2305 173.321 76.2804 172.911 76.3228 172.499C76.6971 168.918 76.6971 168.918 77.9101 167.9C80.1708 166.351 80.1708 166.351 81.4555 166.454C81.6454 166.535 81.8354 166.616 82.0311 166.699C82.3091 166.811 82.587 166.923 82.8734 167.038C83.4837 167.301 84.0941 167.563 84.7044 167.825C87.4384 168.925 90.4074 168.733 93.1456 167.717C95.0985 166.778 96.988 165.524 98.5106 163.98C99.0233 163.477 99.0233 163.477 99.6092 163.477C99.6092 163.283 99.6092 163.09 99.6092 162.891C99.8026 162.891 99.996 162.891 100.195 162.891C100.314 162.626 100.314 162.626 100.434 162.356C100.784 161.713 101.099 161.376 101.642 160.895C105.495 157.146 110.306 150.595 110.473 145.15C110.465 144.914 110.457 144.677 110.449 144.434C110.444 144.228 110.439 144.021 110.434 143.809C110.379 143.176 110.379 143.176 109.863 142.383C108.915 141.933 107.958 141.711 106.933 141.504C106.543 141.408 106.152 141.31 105.762 141.211C105.565 140.107 105.37 139.002 105.176 137.897C105.12 137.583 105.064 137.269 105.006 136.945C104.953 136.644 104.901 136.343 104.846 136.033C104.797 135.755 104.748 135.477 104.697 135.191C104.59 134.473 104.59 134.473 104.59 133.594C104.973 133.396 104.973 133.396 105.363 133.194C110.888 130.251 113.744 126.513 115.639 120.524C118.554 111.363 123.527 103.535 132.129 98.7306C132.549 98.491 132.549 98.491 132.977 98.2465C140.448 94.23 149.968 93.8064 158.032 96.1649C158.807 96.4024 159.571 96.6565 160.338 96.919C161.567 97.311 162.8 97.5919 164.062 97.8517C166.64 94.5593 169.182 91.2442 171.68 87.8908C173.499 85.4482 175.332 83.0196 177.209 80.6215C178.799 78.5905 180.338 76.5275 181.86 74.4453C183.029 72.8505 184.228 71.2826 185.449 69.7267C187.212 67.4786 188.914 65.1904 190.601 62.8854C191.729 61.3459 192.875 59.8201 194.024 58.2968C194.604 57.5276 195.169 56.7587 195.703 55.9572C195.613 55.3265 195.613 55.3265 195.41 54.7853C194.389 54.4599 193.507 54.5092 192.444 54.5656C190.491 54.5722 189.051 54.2457 187.5 53.0275C185.906 51.1701 185.341 49.5537 185.367 47.1258C185.56 45.1623 186.589 43.7277 188.086 42.4806C189.668 41.4506 191.553 41.0919 193.418 41.4232C193.893 41.5583 194.36 41.7233 194.824 41.8947C194.727 41.6711 194.631 41.4475 194.531 41.2172C194.031 39.3748 193.894 37.4521 194.678 35.6691C195.645 34.0081 197.024 32.8143 198.797 32.0985C201.309 31.6875 203.075 32.0344 205.151 33.4718C206.394 34.7147 207.141 35.773 207.22 37.5551C207.305 38.6357 207.305 38.6357 207.842 39.0909C208.675 39.6108 209.18 39.8743 210.179 39.7707C211.004 39.5317 211.699 39.2029 212.457 38.8002C213.806 38.0861 213.806 38.0861 214.453 38.0861C214.308 37.7538 214.163 37.4214 214.014 37.079C213.521 35.7168 213.252 34.5396 213.574 33.1056C214.144 31.9436 214.86 30.9241 215.625 29.883C215.803 29.6254 215.982 29.3678 216.166 29.1025C217.13 27.7685 217.512 27.2637 219.14 26.9533C219.841 26.4661 219.841 26.4661 220.514 25.8546C222.905 23.8764 227.327 20.9336 230.389 22.6616ZM209.709 47.5149C207.348 49.8826 205.275 52.3727 203.32 55.0783C203.417 55.2716 203.514 55.465 203.613 55.6642C204.338 55.0841 204.338 55.0841 205.078 54.4923C202.915 57.6794 200.638 60.7771 198.34 63.8673C198.187 64.0726 198.035 64.2779 197.878 64.4893C196.216 66.727 194.528 68.9415 192.81 71.1366C191.236 73.1484 189.708 75.1895 188.2 77.251C186.913 79.0071 185.601 80.7421 184.277 82.4709C182.595 84.6691 180.938 86.8839 179.3 89.1157C177.797 91.1645 176.274 93.1985 174.746 95.2292C174.163 96.0044 173.581 96.7804 172.999 97.5565C172.558 98.1452 172.117 98.7337 171.675 99.3223C171.104 100.084 170.533 100.846 169.963 101.609C168.101 104.098 166.223 106.573 164.337 109.044C162.357 111.64 160.398 114.253 158.444 116.87C157.026 118.766 155.593 120.651 154.156 122.534C152.314 124.949 150.485 127.371 148.666 129.804C147.922 130.799 147.175 131.794 146.429 132.788C146.134 133.182 145.84 133.575 145.545 133.968C145.052 134.625 144.558 135.282 144.064 135.939C142.566 137.929 141.082 139.93 139.61 141.939C138.686 143.2 137.753 144.453 136.803 145.695C136.612 145.947 136.421 146.199 136.224 146.458C135.856 146.944 135.485 147.427 135.111 147.908C134.946 148.126 134.781 148.345 134.611 148.571C134.464 148.762 134.316 148.954 134.165 149.151C133.831 149.697 133.831 149.697 133.943 150.329C134.317 151.199 134.978 151.494 135.773 151.978C136.207 152.247 136.207 152.247 136.65 152.522C137.346 152.976 137.346 152.976 137.988 152.93C138.459 152.315 138.459 152.315 138.959 151.502C139.984 149.924 141.055 148.391 142.163 146.869C143.439 145.114 144.704 143.352 145.953 141.577C147.941 138.755 149.944 135.944 151.968 133.148C153.821 130.587 155.654 128.012 157.473 125.427C160.366 121.314 163.275 117.214 166.223 113.141C167.467 111.422 168.701 109.695 169.922 107.959C171.597 105.578 173.299 103.217 175.007 100.859C175.804 99.76 176.598 98.6593 177.392 97.5587C177.71 97.1193 178.027 96.6798 178.345 96.2404C178.502 96.0229 178.659 95.8053 178.821 95.5812C180.249 93.6037 180.249 93.6037 180.725 92.9444C181.042 92.5052 181.359 92.066 181.676 91.6268C182.473 90.5239 183.27 89.4215 184.068 88.3199C185.615 86.1835 187.154 84.0423 188.672 81.8849C194.028 74.2741 199.582 66.8031 205.252 59.4237C205.616 58.9495 205.978 58.4737 206.339 57.9977C206.521 57.7594 206.703 57.5211 206.891 57.2755C207.04 57.0792 207.189 56.8828 207.343 56.6804C207.715 56.2502 207.715 56.2502 208.301 55.9572C206.169 59.0923 203.984 62.183 201.755 65.2495C200.956 66.3496 200.161 67.4523 199.365 68.5548C198.41 69.8773 197.455 71.1994 196.498 72.5202C194.804 74.8597 193.124 77.2076 191.462 79.5702C190.225 81.3265 188.969 83.0689 187.709 84.8089C186.637 86.2896 185.572 87.7746 184.511 89.2636C183.849 90.1918 183.184 91.1175 182.515 92.0404C180.824 94.3727 179.149 96.7147 177.502 99.0785C176.055 101.155 174.582 103.207 173.079 105.243C170.818 108.307 168.597 111.396 166.452 114.542C165.299 116.228 164.105 117.882 162.904 119.534C161.71 121.181 160.538 122.843 159.375 124.512C157.593 127.068 155.776 129.597 153.946 132.119C151.33 135.734 148.766 139.386 146.199 143.035C141.356 149.918 141.356 149.918 138.867 153.223C139.315 154.42 140.071 154.922 141.101 155.64C141.395 155.847 141.689 156.054 141.991 156.267C142.217 156.423 142.443 156.578 142.676 156.738C143.895 155.655 144.704 154.34 145.584 152.982C145.837 152.596 145.837 152.596 146.095 152.202C146.458 151.647 146.821 151.092 147.183 150.537C148.137 149.074 149.096 147.613 150.055 146.153C150.248 145.859 150.441 145.564 150.64 145.261C153.07 141.563 155.557 137.902 158.046 134.243C159.581 131.984 161.089 129.708 162.598 127.431C162.988 126.843 163.379 126.254 163.769 125.665C163.963 125.373 164.156 125.08 164.355 124.779C165.51 123.041 166.703 121.341 167.937 119.659C168.57 118.789 169.167 117.904 169.757 117.005C171.926 113.722 174.151 110.478 176.367 107.227C176.755 106.657 177.143 106.088 177.531 105.518C179.395 102.782 181.262 100.048 183.133 97.3166C183.964 96.1031 184.793 94.8885 185.62 93.6723C187.742 90.5513 189.883 87.444 192.043 84.3488C193.176 82.7228 194.288 81.087 195.379 79.4324C196.408 77.9031 197.473 76.3985 198.532 74.8901C199.599 73.3699 200.659 71.8452 201.709 70.3127C204.621 66.0652 207.574 61.8503 210.644 57.715C210.644 58.8767 210.109 59.5025 209.473 60.425C209.344 60.6139 209.216 60.8028 209.084 60.9974C207.673 63.07 206.232 65.1223 204.796 67.1779C203.422 69.1492 202.075 71.1369 200.748 73.1406C199.702 74.7186 198.637 76.2823 197.562 77.8404C195.846 80.3269 194.148 82.8253 192.447 85.3222C191.937 86.0705 191.426 86.8182 190.915 87.5658C188.444 91.1802 185.993 94.8079 183.545 98.4376C180.936 102.306 178.322 106.17 175.688 110.022C174.79 111.335 173.894 112.65 172.998 113.965C171.883 115.601 170.767 117.236 169.651 118.871C169.364 119.29 169.364 119.29 169.073 119.717C168.716 120.239 168.359 120.761 168.003 121.283C166.476 123.519 164.976 125.773 163.476 128.027C163.214 128.421 162.953 128.815 162.691 129.209C162.56 129.406 162.429 129.603 162.294 129.806C161.755 130.615 161.217 131.423 160.679 132.232C160.408 132.639 160.137 133.046 159.867 133.453C158.233 135.911 156.585 138.359 154.907 140.788C153.842 142.33 152.797 143.885 151.762 145.448C151.035 146.543 150.305 147.637 149.574 148.73C149.218 149.262 148.862 149.795 148.507 150.328C148.272 150.679 148.037 151.03 147.802 151.381C147.066 152.481 146.335 153.584 145.605 154.688C145.442 154.928 145.279 155.169 145.111 155.417C144.764 155.94 144.448 156.484 144.14 157.031C144.481 158.054 144.694 158.16 145.587 158.698C145.795 158.826 146.003 158.954 146.218 159.086C146.759 159.42 146.759 159.42 147.363 159.375C147.751 158.879 147.751 158.879 148.13 158.225C148.282 157.976 148.434 157.727 148.59 157.471C148.835 157.063 148.835 157.063 149.084 156.647C149.431 156.078 149.778 155.509 150.125 154.941C150.3 154.652 150.476 154.363 150.656 154.066C151.408 152.837 152.176 151.619 152.948 150.403C153.092 150.175 153.236 149.947 153.385 149.712C153.819 149.027 154.253 148.342 154.687 147.656C156.601 144.635 158.506 141.608 160.4 138.574C162.156 135.763 163.92 132.957 165.693 130.157C166.112 129.494 166.53 128.831 166.947 128.168C168.612 125.527 170.288 122.893 171.973 120.264C174.672 116.05 177.343 111.82 179.993 107.575C183.175 102.477 186.41 97.4159 189.692 92.382C191.801 89.1452 193.886 85.894 195.946 82.6254C198.268 78.9415 200.605 75.2667 202.979 71.6158C203.698 70.5068 204.411 69.3937 205.115 68.2745C206.965 65.3349 208.847 62.4173 210.781 59.5322C211.015 59.1825 211.248 58.8321 211.479 58.4809C213.627 55.2333 216.049 52.3088 219.067 49.8231C219.226 49.6914 219.385 49.5597 219.549 49.424C220.648 48.5212 221.77 47.6702 222.949 46.8752C221.82 45.6636 220.615 44.7591 219.232 43.8539C219.034 43.7208 218.836 43.5877 218.632 43.4505C215.558 41.4169 212.012 45.2879 209.709 47.5149ZM197.461 44.2384C197.909 46.6775 197.909 46.6775 199.298 48.6261C199.946 48.9752 200.575 49.2699 201.269 49.5119C201.642 49.0482 202.014 48.5843 202.386 48.1203C202.594 47.862 202.801 47.6036 203.015 47.3375C203.518 46.7023 204.01 46.0615 204.492 45.4103C203.37 44.884 202.539 44.7731 201.306 44.8244C199.884 44.8525 198.793 44.723 197.461 44.2384ZM231.152 52.7345C230.6 53.3138 230.059 53.8981 229.523 54.4923C229.294 54.7439 229.294 54.7439 229.061 55.0005C228.683 55.4164 228.306 55.8332 227.93 56.2502C228.129 57.1719 228.129 57.1719 228.882 57.5136C229.676 57.7972 229.676 57.7972 230.351 57.4392C231.299 57.0722 232.042 57.0511 233.056 57.0558C233.38 57.0543 233.703 57.0528 234.036 57.0512C234.95 57.1282 235.6 57.327 236.426 57.715C236.327 56.7023 236.09 55.9427 235.547 55.0783C234.537 54.2631 232.468 52.7345 231.152 52.7345ZM202.734 55.9572C202.541 56.3439 202.348 56.7306 202.148 57.1291C202.438 56.9357 202.728 56.7423 203.027 56.5431C202.931 56.3498 202.834 56.1564 202.734 55.9572ZM201.855 57.1291C201.565 57.4191 201.275 57.7091 200.976 58.008C201.073 58.2013 201.17 58.3947 201.269 58.5939C201.559 58.3039 201.849 58.0138 202.148 57.715C202.052 57.5216 201.955 57.3283 201.855 57.1291ZM200.683 58.5939C200.49 58.9806 200.297 59.3673 200.098 59.7658C200.388 59.5724 200.678 59.3791 200.976 59.1798C200.88 58.9865 200.783 58.7931 200.683 58.5939ZM199.512 60.0587C199.512 60.9377 199.512 60.9377 199.512 60.9377V60.0587ZM198.926 60.9377C198.636 61.2277 198.346 61.5177 198.047 61.8166C198.143 62.0099 198.24 62.2033 198.34 62.4025C198.63 62.1125 198.92 61.8224 199.219 61.5236C199.122 61.3302 199.025 61.1369 198.926 60.9377ZM197.754 62.4025C197.56 62.7892 197.367 63.1759 197.168 63.5744C197.458 63.381 197.748 63.1877 198.047 62.9884C197.95 62.7951 197.853 62.6017 197.754 62.4025ZM196.875 63.5744C196.585 63.8644 196.295 64.1544 195.996 64.4533C196.093 64.6466 196.189 64.84 196.289 65.0392C196.579 64.7492 196.869 64.4591 197.168 64.1603C197.071 63.9669 196.974 63.7736 196.875 63.5744ZM195.703 65.0392C195.51 65.4259 195.316 65.8127 195.117 66.2111C195.407 66.0177 195.697 65.8244 195.996 65.6252C195.899 65.4318 195.803 65.2384 195.703 65.0392ZM194.824 66.2111C192.739 68.7285 190.712 71.2768 188.763 73.9015C187.363 75.7881 185.93 77.6158 184.407 79.405C183.57 80.4203 182.788 81.4682 182.007 82.5258C180.405 84.6913 178.709 86.7672 176.987 88.8383C176.15 89.8467 175.335 90.8699 174.537 91.9099C173.86 92.791 173.172 93.6641 172.485 94.5375C172.347 94.7133 172.209 94.8891 172.066 95.0702C171.385 95.937 170.703 96.8035 170.021 97.6697C168.34 99.8062 166.668 101.95 165 104.097C163.935 105.467 162.866 106.834 161.792 108.197C160.287 110.108 158.804 112.035 157.324 113.965C156.86 114.569 156.397 115.174 155.932 115.778C155.814 115.932 155.696 116.086 155.574 116.244C154.86 117.173 154.142 118.098 153.422 119.021C151.742 121.173 150.073 123.329 148.443 125.519C147.283 127.078 146.086 128.595 144.843 130.091C143.969 131.168 143.13 132.27 142.291 133.374C141.073 134.978 139.839 136.567 138.574 138.135C137.137 139.917 135.742 141.727 134.356 143.548C133.15 145.133 131.921 146.697 130.664 148.242C131.301 148.975 131.757 149.249 132.715 149.414C134.334 147.345 135.91 145.252 137.439 143.115C139.044 140.875 140.701 138.68 142.378 136.493C143.681 134.79 144.962 133.073 146.228 131.342C147.717 129.307 149.247 127.309 150.804 125.325C152.045 123.739 153.244 122.128 154.431 120.502C155.813 118.609 157.237 116.764 158.715 114.945C159.78 113.626 160.769 112.267 161.742 110.88C162.742 109.463 163.797 108.096 164.868 106.732C166.498 104.655 168.078 102.547 169.638 100.417C170.821 98.8016 172.032 97.2125 173.259 95.6304C174.194 94.415 175.095 93.1748 176.001 91.9374C177.527 89.8541 179.092 87.8069 180.686 85.7754C182.111 83.9528 183.483 82.0941 184.848 80.2266C186.011 78.6406 187.205 77.0843 188.428 75.5441C189.483 74.2134 190.504 72.8593 191.519 71.4971C192.703 69.9184 193.911 68.3584 195.117 66.797C195.02 66.6037 194.924 66.4103 194.824 66.2111ZM128.342 108.843C124.855 113.019 122.766 117.379 120.978 122.498C119.058 127.981 117.07 131.933 112.5 135.645C112.89 136.062 112.89 136.062 113.287 136.487C115.293 138.839 116.49 141.803 116.379 144.922C115.459 153.78 109.333 161.051 103.418 167.285C103.136 167.6 103.136 167.6 102.849 167.922C99.8901 171.117 95.2528 174.115 90.8079 174.348C90.0976 174.367 89.3884 174.371 88.6778 174.371C88.4386 174.375 88.1993 174.379 87.9529 174.382C86.3619 174.386 85.0292 174.146 83.496 173.731C83.1092 173.731 82.7225 173.731 82.3241 173.731C82.221 174.032 82.1179 174.333 82.0117 174.643C80.0971 180.081 77.4144 183.405 72.4947 186.407C65.341 190.819 59.0227 197.298 56.75 205.59C54.9481 213.882 56.5529 221.406 61.0183 228.526C62.4411 230.697 64.0568 232.65 65.8354 234.541C66.3935 235.136 66.9173 235.743 67.4376 236.371C70.1383 239.465 73.3419 242.094 76.5995 244.574C77.2444 245.072 77.8693 245.593 78.4972 246.112C87.975 253.631 100.197 258.837 112.39 258.801C112.595 258.801 112.8 258.801 113.011 258.801C121.757 258.77 129.372 255.779 135.644 249.61C141.224 243.694 142.853 236.926 143.978 229.142C144.969 222.338 146.7 216.221 152.344 211.817C152.144 211.623 151.945 211.43 151.739 211.231C151.451 210.939 151.164 210.646 150.879 210.352C150.713 210.181 150.547 210.011 150.376 209.836C147.407 206.632 146.592 203.113 146.686 198.866C146.954 193.33 149.504 188.212 152.051 183.399C152.145 183.219 152.239 183.04 152.337 182.855C153.756 180.184 155.417 177.827 157.324 175.488C157.495 175.269 157.666 175.049 157.842 174.822C160.461 171.599 164.141 169.407 168.164 168.457C169.045 168.386 169.917 168.388 170.801 168.402C171.026 168.402 171.251 168.403 171.483 168.403C172.845 168.413 174.144 168.527 175.488 168.75C175.524 168.463 175.561 168.175 175.598 167.879C176.418 162.221 179.075 158.638 183.611 155.2C189.539 150.637 193.7 143.887 194.741 136.409C195.323 129.031 194.273 122.783 189.456 116.906C188.245 115.495 186.876 114.274 185.449 113.086C185.199 112.876 184.948 112.666 184.69 112.45C183.465 111.353 183.465 111.353 181.933 111.035C181.463 111.686 181.056 112.322 180.652 113.013C180.389 113.448 180.125 113.882 179.861 114.316C179.652 114.662 179.652 114.662 179.438 115.015C178.711 116.199 177.951 117.361 177.191 118.524C177.032 118.768 176.874 119.011 176.71 119.262C176.205 120.036 175.7 120.809 175.195 121.582C174.833 122.137 174.471 122.692 174.109 123.247C173.926 123.528 173.744 123.808 173.555 124.096C173.371 124.379 173.187 124.661 172.998 124.951C172.626 125.522 172.254 126.092 171.882 126.662C171.701 126.94 171.52 127.218 171.333 127.504C170.989 128.031 170.645 128.558 170.302 129.085C168.168 132.354 166.059 135.637 163.966 138.933C161.28 143.161 158.579 147.38 155.844 151.577C153.083 155.817 150.37 160.087 147.656 164.356C146.774 164.178 146.166 163.906 145.429 163.393C145.237 163.262 145.045 163.131 144.848 162.995C144.651 162.858 144.453 162.721 144.25 162.579C142.982 161.562 142.982 161.562 141.504 161.133C141.087 161.741 140.707 162.349 140.332 162.982C138.945 165.262 137.479 167.486 135.992 169.702C135.534 170.386 135.076 171.071 134.618 171.755C134.506 171.923 134.394 172.091 134.278 172.263C133.08 174.057 131.903 175.865 130.733 177.677C130.524 178 130.524 178 130.311 178.329C130.113 178.639 130.113 178.639 129.91 178.955C129.612 179.408 129.303 179.855 128.987 180.296C128.823 180.527 128.659 180.759 128.49 180.998C128.338 181.205 128.187 181.413 128.031 181.627C127.677 182.209 127.677 182.209 127.796 182.848C128.11 183.596 128.603 184.032 129.199 184.57C129.072 184.754 128.945 184.938 128.815 185.127C128.651 185.366 128.488 185.606 128.32 185.852C128.157 186.09 127.994 186.328 127.826 186.573C127.391 187.167 127.391 187.167 127.441 187.793C127.163 187.648 126.885 187.503 126.599 187.354C125.765 186.872 125.765 186.872 125.098 186.914C125.006 187.075 124.915 187.235 124.821 187.4C123.167 190.306 121.508 193.209 119.807 196.088C118.703 197.959 117.605 199.833 116.51 201.709C116.252 202.15 116.252 202.15 115.989 202.6C115.661 203.161 115.335 203.723 115.01 204.285C114.708 204.807 114.402 205.327 114.092 205.844C113.955 206.078 113.819 206.311 113.677 206.552C113.556 206.756 113.434 206.961 113.309 207.171C112.996 207.765 112.996 207.765 113.379 208.594C113.675 208.817 113.971 209.041 114.276 209.271C115.137 210.059 115.137 210.059 115.32 210.919C115.087 212.061 114.683 212.653 113.965 213.574C113.836 213.745 113.707 213.917 113.574 214.093C112.079 215.952 110.202 217.314 108.319 218.752C99.9905 225.15 94.702 233.247 89.2958 242.132C88.4736 243.478 87.6029 244.788 86.7186 246.094C85.3619 245.863 84.3233 245.341 83.1481 244.647C82.8719 244.489 82.8719 244.489 82.5902 244.328C81.8377 243.891 81.1841 243.489 80.5663 242.871C80.4216 241.508 80.6622 240.731 81.3719 239.575C81.6518 239.118 81.6518 239.118 81.9373 238.651C82.7159 237.431 83.5291 236.234 84.3382 235.034C89.5399 227.31 92.7938 219.424 94.4464 210.282C95.1086 206.686 96.1025 203.337 97.8514 200.098C99.076 200.074 100.172 200.129 101.367 200.391C101.585 199.954 101.803 199.518 102.022 199.082C102.225 198.675 102.428 198.269 102.632 197.862C103.272 196.583 103.91 195.303 104.546 194.022C105.938 191.224 107.339 188.432 108.801 185.669C108.921 185.442 109.041 185.215 109.164 184.982C110.094 183.222 110.094 183.222 110.442 182.566C111.536 180.521 111.536 180.521 112.244 178.327C112.545 177.056 112.928 176.267 113.672 175.195C113.955 175.128 113.955 175.128 114.243 175.06C115.046 174.849 115.232 174.513 115.696 173.836C115.847 173.619 115.998 173.402 116.153 173.178C116.307 172.949 116.461 172.721 116.62 172.485C116.775 172.262 116.93 172.038 117.09 171.807C117.844 170.711 118.572 169.609 119.238 168.457C119.087 168.354 118.936 168.252 118.78 168.146C118.359 167.578 118.359 167.578 118.414 166.535C118.652 165.527 118.652 165.527 119.238 164.942C119.919 164.824 120.603 164.725 121.289 164.649C121.289 163.972 121.289 163.295 121.289 162.598C120.482 162.367 120.001 162.235 119.207 162.547C115.661 164.969 113.345 168.432 111.035 171.973C110.899 172.173 110.763 172.374 110.623 172.581C109.882 173.703 109.39 174.549 109.332 175.928C109.311 176.304 109.311 176.304 109.29 176.688C109.286 176.872 109.281 177.056 109.277 177.246C108.889 177.261 108.889 177.261 108.493 177.276C107.205 177.624 106.725 178.357 106 179.407C104.637 181.301 104.637 181.301 104.062 181.872C103.642 182.213 103.642 182.213 103.711 182.813C103.539 182.889 103.366 182.966 103.189 183.045C102.506 183.417 102.065 183.824 101.514 184.369C99.1894 186.458 96.1349 187.323 93.0563 187.291C91.4567 187.117 90.1455 186.446 88.9159 185.431C87.9744 184.215 88.0409 182.817 88.1835 181.348C88.6955 180.135 89.4199 179.416 90.5272 178.711C91.7039 178.396 92.3037 178.293 93.4203 178.803C94.0428 179.297 94.0428 179.297 94.3358 179.883C94.4048 181.125 94.432 182.04 93.7499 183.106C93.4236 183.087 93.0973 183.069 92.7611 183.051C92.2354 183.078 92.2354 183.078 91.6991 183.106C91.0153 183.92 91.0153 183.92 91.223 184.772C91.3136 185.107 91.3136 185.107 91.4061 185.449C92.3031 185.78 92.9273 185.839 93.8197 185.473C98.2099 182.974 101.985 178.658 104.004 174.024C104.076 173.076 104.076 173.076 104.004 172.266C104.333 172.304 104.333 172.304 104.669 172.342C105.494 172.344 105.494 172.344 106.021 171.759C106.195 171.521 106.37 171.284 106.549 171.039C106.749 170.773 106.95 170.506 107.157 170.232C107.373 169.936 107.589 169.641 107.812 169.336C112.954 162.446 112.954 162.446 116.894 161.133C119.209 160.942 120.833 160.969 122.754 162.305C123.044 162.305 123.334 162.305 123.633 162.305C124.107 161.802 124.107 161.802 124.544 161.126C124.717 160.875 124.89 160.624 125.068 160.365C125.247 160.099 125.426 159.833 125.61 159.558C125.963 159.043 126.315 158.528 126.668 158.013C126.842 157.757 127.015 157.501 127.195 157.237C128.046 155.988 128.915 154.752 129.785 153.516C129.304 152.467 128.858 152.02 127.881 151.392C127.532 151.163 127.532 151.163 127.176 150.929C126.594 150.538 126.594 150.538 125.976 150.586C126.119 150.397 126.262 150.208 126.409 150.013C127.655 148.357 128.891 146.695 130.117 145.026C131.692 142.88 133.282 140.751 134.912 138.646C136.936 136.028 138.907 133.367 140.849 130.687C143.228 127.41 145.632 124.159 148.127 120.97C151.343 116.858 154.485 112.692 157.572 108.483C158.746 106.883 159.937 105.295 161.133 103.711C158.328 100.906 151.463 100.742 147.748 100.672C140.467 100.684 133.349 103.464 128.342 108.843ZM198.34 144.727C198.1 145.2 198.1 145.2 197.856 145.682C195.672 149.937 193.166 153.587 189.844 157.031C189.583 157.315 189.583 157.315 189.317 157.604C188.412 158.563 187.446 159.35 186.382 160.133C184.618 161.435 183.229 162.662 182.226 164.649C182.128 164.834 182.03 165.019 181.929 165.21C181.154 166.919 181.265 168.666 181.348 170.508C182.168 169.749 182.783 168.886 183.435 167.981C185.363 165.377 187.581 163.38 190.128 161.41C194.519 158.004 197.358 153.472 198.34 147.949C198.474 146.876 198.571 145.806 198.633 144.727C198.536 144.727 198.439 144.727 198.34 144.727ZM130.957 153.809C130.468 154.436 129.995 155.069 129.529 155.713C129.386 155.909 129.244 156.105 129.097 156.306C128.045 157.76 127.004 159.222 125.976 160.694C125.843 160.883 125.709 161.072 125.571 161.266C124.756 162.447 124.198 163.618 123.633 164.942C123.237 165.535 122.822 166.115 122.388 166.681C122.153 166.987 121.919 167.292 121.677 167.607C121.131 168.289 120.575 168.945 119.989 169.592C119.035 170.654 118.201 171.786 117.37 172.943C117.241 173.122 117.112 173.302 116.979 173.486C116.439 174.247 116.019 174.891 115.723 175.781C116.386 176.182 117.051 176.578 117.718 176.972C118.001 177.143 118.001 177.143 118.289 177.318C118.788 177.61 119.305 177.87 119.824 178.125C120.919 177.76 121.006 177.453 121.582 176.477C122.427 175.101 123.328 173.797 124.292 172.504C125.41 170.998 126.496 169.477 127.551 167.926C128.733 166.191 129.944 164.481 131.177 162.781C131.418 162.447 131.418 162.447 131.664 162.106C132.341 161.169 133.02 160.235 133.715 159.311C133.999 158.926 133.999 158.926 134.289 158.533C134.449 158.322 134.608 158.111 134.772 157.894C135.1 157.344 135.1 157.344 135.07 156.741C134.596 155.826 133.867 155.454 133.008 154.907C132.687 154.7 132.367 154.493 132.037 154.28C131.361 153.784 131.361 153.784 130.957 153.809ZM135.937 157.617C135.52 158.053 135.52 158.053 135.152 158.65C135.003 158.874 134.854 159.097 134.7 159.328C134.54 159.573 134.381 159.818 134.216 160.071C133.873 160.586 133.529 161.101 133.184 161.616C133.008 161.879 132.833 162.141 132.652 162.412C131.869 163.567 131.049 164.694 130.224 165.82C128.424 168.293 126.695 170.81 124.977 173.34C124.209 174.468 123.436 175.592 122.662 176.715C122.523 176.917 122.384 177.119 122.241 177.328C121.924 177.789 121.606 178.25 121.289 178.711C122.218 179.732 123.261 180.429 124.438 181.128C124.615 181.235 124.791 181.341 124.973 181.451C125.404 181.711 125.837 181.969 126.269 182.227C127.25 181.046 128.1 179.808 128.943 178.528C129.256 178.055 129.569 177.583 129.882 177.11C130.139 176.723 130.139 176.723 130.4 176.327C131.109 175.26 131.821 174.194 132.534 173.129C133.769 171.281 135.001 169.431 136.23 167.578C136.341 167.412 136.451 167.246 136.564 167.075C137.298 165.969 138.028 164.861 138.757 163.751C138.946 163.466 139.135 163.18 139.33 162.885C139.501 162.624 139.673 162.362 139.849 162.093C139.999 161.864 140.15 161.635 140.305 161.4C140.673 160.863 140.673 160.863 140.625 160.254C140.018 159.774 139.414 159.333 138.775 158.899C138.601 158.776 138.427 158.653 138.247 158.526C137.192 157.786 137.192 157.786 135.937 157.617ZM161.706 178.613C156.749 184.53 152.198 192.836 152.051 200.684C152.823 200.298 152.837 199.994 153.124 199.191C153.216 198.94 153.308 198.689 153.402 198.431C153.5 198.159 153.598 197.887 153.699 197.608C156.476 190.144 160.045 182.094 167.578 178.418C171.612 176.791 175.344 176.586 179.59 177.539C179.686 176.959 179.783 176.379 179.883 175.781C179.556 175.914 179.23 176.047 178.894 176.184C178.009 176.413 177.639 176.412 176.793 176.035C176.056 175.573 175.332 175.094 174.609 174.61C170.015 172.412 164.86 175.26 161.706 178.613ZM113.086 179.297C112.974 179.521 112.974 179.521 112.861 179.749C112.072 181.333 111.283 182.916 110.493 184.499C110.2 185.086 109.908 185.673 109.615 186.26C107.788 189.93 105.929 193.579 104.005 197.199C102.757 199.276 102.757 199.276 102.246 201.563C103.012 202.13 103.012 202.13 103.967 202.643C104.287 202.825 104.606 203.008 104.935 203.196C105.694 203.657 105.694 203.657 106.348 203.613C106.488 203.349 106.488 203.349 106.632 203.08C108.44 199.696 110.278 196.336 112.225 193.03C113.601 190.692 114.949 188.341 116.254 185.962C116.478 185.556 116.478 185.556 116.706 185.143C116.843 184.892 116.979 184.641 117.12 184.383C117.239 184.164 117.359 183.945 117.482 183.719C117.764 183.125 117.932 182.576 118.066 181.934C117.347 181.493 116.627 181.054 115.906 180.615C115.701 180.49 115.496 180.364 115.285 180.234C114.26 179.543 114.26 179.543 113.086 179.297ZM119.238 182.813C117.93 184.943 116.71 187.117 115.512 189.31C114.106 191.881 112.697 194.448 111.2 196.967C111.087 197.156 110.975 197.346 110.859 197.541C110.64 197.91 110.421 198.28 110.201 198.649C109.576 199.702 108.956 200.758 108.343 201.819C108.168 202.115 108.168 202.115 107.989 202.417C107.711 202.901 107.466 203.403 107.226 203.906C107.638 205.14 108.53 205.51 109.588 206.159C109.88 206.341 109.88 206.341 110.177 206.528C110.657 206.828 111.139 207.125 111.621 207.422C112.65 206.499 113.282 205.477 113.928 204.273C114.161 203.85 114.394 203.427 114.627 203.005C114.755 202.774 114.882 202.543 115.013 202.306C115.787 200.924 116.589 199.56 117.389 198.194C117.561 197.899 117.733 197.604 117.91 197.301C118.833 195.722 119.758 194.145 120.686 192.569C120.873 192.25 121.06 191.932 121.252 191.604C121.611 190.993 121.971 190.382 122.331 189.772C122.493 189.495 122.655 189.219 122.822 188.934C122.965 188.692 123.108 188.45 123.255 188.2C123.636 187.495 123.936 186.785 124.219 186.035C122.599 184.875 120.99 183.765 119.238 182.813ZM156.445 215.625C152.909 218.046 150.81 221.396 149.98 225.593C149.666 227.32 149.392 229.053 149.121 230.786C148.359 235.631 147.56 240.358 145.404 244.812C145.306 245.017 145.207 245.222 145.106 245.433C141.02 253.653 133.685 259.544 125.098 262.5C115.6 265.529 105.958 264.447 96.5266 261.82C95.5075 261.541 94.4832 261.287 93.4569 261.035C93.4569 261.325 93.4569 261.615 93.4569 261.914C103.959 267.28 115.417 269.607 126.894 265.933C135.225 263.089 142.254 257.218 146.283 249.371C148.347 245.116 149.103 240.734 149.718 236.084C150.621 229.502 153.266 224.248 158.496 220.02C158.267 219.341 158.034 218.664 157.8 217.987C157.735 217.794 157.67 217.601 157.603 217.402C157.286 216.306 157.286 216.306 156.445 215.625ZM91.992 260.449C91.992 260.643 91.992 260.836 91.992 261.035C92.2821 261.132 92.5721 261.229 92.871 261.328C92.9676 261.135 93.0643 260.942 93.1639 260.742C92.7772 260.646 92.3905 260.549 91.992 260.449Z" fill="black"/>
<path d="M135.059 156.445C135.204 156.88 135.204 156.88 135.352 157.324C135.942 157.539 135.942 157.539 136.523 157.617C136.33 157.617 136.137 157.617 135.938 157.617C135.867 157.771 135.796 157.924 135.723 158.082C135.238 159.005 134.668 159.864 134.088 160.73C133.96 160.922 133.832 161.113 133.701 161.31C132.536 163.04 131.316 164.727 130.088 166.412C128.434 168.689 126.851 171.012 125.27 173.34C124.502 174.468 123.729 175.591 122.955 176.715C122.816 176.917 122.677 177.119 122.534 177.327C122.217 177.789 121.899 178.25 121.582 178.711C122.597 179.549 123.635 180.283 124.75 180.981C125.036 181.161 125.322 181.341 125.616 181.526C125.832 181.661 126.047 181.795 126.27 181.934C127.514 180.272 128.703 178.596 129.815 176.843C130.797 175.303 131.798 173.777 132.814 172.259C132.948 172.059 133.082 171.859 133.22 171.652C133.768 170.835 134.316 170.017 134.865 169.2C136.845 166.254 138.761 163.275 140.625 160.254C140.142 160.061 139.658 159.867 139.16 159.668C139.45 159.475 139.74 159.281 140.039 159.082C140.918 159.668 140.918 159.668 141.362 160.566C141.567 162.231 140.899 163.009 139.965 164.341C139.714 164.715 139.714 164.715 139.457 165.098C138.919 165.898 138.372 166.692 137.823 167.487C137.471 168.006 137.12 168.526 136.769 169.046C136.242 169.826 135.715 170.605 135.185 171.383C133.489 173.871 131.847 176.394 130.219 178.927C129.914 179.393 129.602 179.855 129.286 180.313C129.124 180.547 128.963 180.781 128.797 181.022C128.576 181.337 128.576 181.337 128.35 181.659C127.955 182.245 127.955 182.245 128.027 183.105C128.741 183.893 128.741 183.893 129.492 184.57C128.815 185.634 128.139 186.697 127.441 187.793C125.684 187.207 125.684 187.207 125.098 186.914C125.025 187.112 124.953 187.31 124.878 187.514C124.438 188.554 123.899 189.523 123.34 190.503C123.223 190.709 123.107 190.915 122.986 191.127C121.934 192.977 120.856 194.811 119.773 196.644C118.77 198.341 117.778 200.043 116.785 201.746C116.523 202.194 116.523 202.194 116.256 202.651C115.388 204.14 114.524 205.631 113.672 207.129C113.575 206.936 113.479 206.742 113.379 206.543C112.799 206.833 112.799 206.833 112.207 207.129C112.615 206.038 113.113 205.057 113.698 204.05C113.878 203.74 114.058 203.43 114.243 203.11C114.435 202.781 114.627 202.451 114.825 202.112C115.026 201.767 115.226 201.423 115.425 201.078C115.826 200.388 116.227 199.698 116.628 199.009C117.111 198.178 117.592 197.346 118.071 196.513C118.332 196.06 118.593 195.607 118.854 195.154C118.979 194.937 119.104 194.719 119.232 194.496C119.938 193.275 120.66 192.067 121.4 190.867C121.565 190.598 121.729 190.33 121.899 190.053C122.218 189.533 122.541 189.015 122.866 188.498C123.009 188.265 123.151 188.033 123.299 187.793C123.427 187.588 123.555 187.382 123.687 187.17C124.019 186.574 124.019 186.574 123.633 185.742C122.951 185.254 122.277 184.806 121.564 184.369C121.369 184.247 121.175 184.125 120.975 184C120.495 183.699 120.013 183.402 119.531 183.105C118.709 184.086 118.056 185.052 117.461 186.184C117.296 186.494 117.132 186.805 116.962 187.124C116.702 187.618 116.702 187.618 116.437 188.123C115.085 190.667 113.704 193.189 112.248 195.675C111.123 197.596 110.023 199.532 108.929 201.471C108.76 201.771 108.591 202.071 108.417 202.38C108.02 203.084 107.623 203.788 107.227 204.492C106.743 204.299 106.26 204.105 105.762 203.906C105.955 203.81 106.148 203.713 106.348 203.613C106.55 203.03 106.744 202.443 106.934 201.855C107.197 201.329 107.474 200.81 107.764 200.298C108.012 199.858 108.012 199.858 108.265 199.409C108.442 199.099 108.619 198.788 108.801 198.468C108.985 198.144 109.168 197.819 109.357 197.485C109.914 196.5 110.475 195.515 111.035 194.531C111.195 194.25 111.355 193.968 111.52 193.678C112.828 191.376 114.142 189.078 115.475 186.79C115.625 186.534 115.774 186.278 115.927 186.014C116.211 185.528 116.496 185.041 116.781 184.556C116.907 184.339 117.033 184.123 117.163 183.9C117.275 183.71 117.386 183.521 117.5 183.326C117.815 182.768 117.815 182.768 118.066 181.934C117.863 181.859 117.659 181.784 117.45 181.707C116.498 181.304 115.641 180.813 114.752 180.286C114.283 180.008 114.283 180.008 113.803 179.725C113.567 179.584 113.33 179.442 113.086 179.297C113.013 179.537 112.941 179.777 112.866 180.025C112.439 181.225 111.901 182.331 111.328 183.466C111.213 183.696 111.098 183.925 110.98 184.162C110.609 184.903 110.236 185.643 109.863 186.383C109.608 186.892 109.353 187.4 109.098 187.908C107.725 190.641 106.335 193.363 104.893 196.06C103.934 197.86 103.07 199.696 102.246 201.562C101.66 200.684 101.66 200.684 101.367 199.805C101.658 199.111 101.967 198.471 102.319 197.809C102.538 197.385 102.757 196.961 102.976 196.536C103.095 196.308 103.214 196.079 103.336 195.844C103.862 194.823 104.371 193.795 104.881 192.766C106.055 190.397 107.253 188.043 108.49 185.706C108.611 185.476 108.732 185.247 108.857 185.011C108.973 184.791 109.09 184.57 109.21 184.343C109.321 184.132 109.432 183.921 109.547 183.704C109.748 183.324 109.949 182.943 110.151 182.563C111.241 180.531 111.241 180.531 111.932 178.345C112.254 177.058 112.739 175.871 113.672 174.902C114.059 174.902 114.445 174.902 114.844 174.902C114.903 174.711 114.963 174.519 115.025 174.322C115.591 173.084 116.396 172.077 117.224 171.002C117.389 170.785 117.554 170.568 117.724 170.345C118.13 169.812 118.537 169.28 118.945 168.75C118.752 168.46 118.559 168.17 118.359 167.871C118.843 168.064 119.326 168.258 119.824 168.457C119.824 169.867 119.503 170.642 118.67 171.776C118.499 172.01 118.328 172.244 118.152 172.485C117.972 172.727 117.793 172.969 117.609 173.218C117.428 173.464 117.248 173.71 117.062 173.964C116.617 174.571 116.171 175.177 115.723 175.781C115.95 175.87 116.177 175.959 116.411 176.051C117.41 176.458 118.311 176.991 119.242 177.532C119.802 177.877 119.802 177.877 120.41 177.832C120.834 177.254 120.834 177.254 121.271 176.495C122.123 175.115 123.03 173.804 123.999 172.504C125.117 170.998 126.203 169.477 127.258 167.926C128.44 166.191 129.651 164.48 130.884 162.781C131.045 162.558 131.206 162.336 131.373 162.106C131.681 161.681 131.989 161.256 132.297 160.831C132.855 160.061 133.409 159.289 133.96 158.514C134.113 158.3 134.265 158.086 134.422 157.866C134.815 157.295 134.815 157.295 135.059 156.445Z" fill="black"/>
<path d="M144.148 174.374C145.473 175.4 146.172 176.48 146.483 178.126C147.053 183.022 144.693 188.057 142.159 192.141C141.719 192.802 141.719 192.802 141.723 193.8C141.452 195.062 141.017 195.172 139.995 195.861C139.074 196.589 138.539 197.522 137.951 198.524C137.825 198.731 137.7 198.938 137.571 199.152C135.819 202.1 133.817 205.638 134.179 209.18C134.372 209.47 134.565 209.761 134.765 210.059C135.485 210.23 135.485 210.23 136.23 210.059C136.77 209.503 136.77 209.503 137.108 208.887C136.722 208.694 136.335 208.501 135.937 208.302C136.077 206.44 136.077 206.44 136.687 205.683C137.711 205.237 138.66 205.174 139.745 205.372C140.754 205.994 141.127 206.294 141.503 207.423C141.604 208.991 141.646 209.963 140.624 211.231C139.323 212.402 138.349 212.807 136.577 212.777C135.031 212.581 133.912 211.808 132.769 210.792C131.173 208.627 131.09 205.783 131.358 203.212C131.888 200.152 133.072 197.414 134.566 194.716C135.109 193.705 135.39 192.967 135.438 191.812C135.54 191.273 135.54 191.273 135.644 190.723C136.597 190.262 136.597 190.262 137.158 190.081C138.151 189.643 138.594 188.748 139.141 187.849C139.264 187.655 139.386 187.462 139.513 187.263C139.89 186.663 140.259 186.058 140.624 185.45C140.74 185.259 140.855 185.068 140.974 184.871C142.898 181.673 142.898 181.673 143.755 178.071C143.78 177.825 143.806 177.579 143.832 177.326C143.885 176.612 143.885 176.612 143.554 175.782C143.07 175.879 142.587 175.975 142.089 176.075C142.018 177.166 142.018 177.166 142.309 177.814C142.382 178.419 142.382 178.419 141.887 179.188C140.871 180.231 140.871 180.231 140.038 180.469C138.243 180.406 138.243 180.406 137.438 179.682C136.808 178.387 136.714 177.574 137.145 176.185C137.882 174.858 138.624 174.292 139.965 173.621C141.499 173.326 142.798 173.578 144.148 174.374Z" fill="black"/>
<path d="M207.715 55.957C207.908 55.957 208.102 55.957 208.301 55.957C207.825 57.4373 206.943 58.5668 206.03 59.8022C205.862 60.0326 205.694 60.2629 205.521 60.5003C204.984 61.2334 204.446 61.9646 203.906 62.6953C203.647 63.0465 203.647 63.0465 203.383 63.4047C201.967 65.3218 201.967 65.3218 201.318 66.199C200.055 67.9113 198.82 69.6419 197.598 71.3837C196.54 72.8915 195.466 74.3874 194.385 75.8789C193.152 77.5798 191.931 79.2877 190.723 81.0059C188.733 83.8345 186.704 86.6344 184.674 89.4347C182.651 92.2266 180.645 95.0292 178.661 97.8481C176.964 100.256 175.247 102.65 173.52 105.036C171.518 107.802 169.542 110.585 167.578 113.379C165.798 115.911 164.012 118.436 162.195 120.941C160.845 122.802 159.518 124.677 158.203 126.562C156.127 129.54 154.006 132.483 151.869 135.418C150.093 137.856 148.342 140.306 146.649 142.804C145.004 145.232 143.283 147.597 141.531 149.95C141.379 150.156 141.226 150.362 141.069 150.574C140.775 150.97 140.479 151.364 140.181 151.756C139.358 152.811 139.358 152.811 139.16 154.102C138.967 154.102 138.773 154.102 138.574 154.102C138.574 153.812 138.574 153.521 138.574 153.223C138.284 153.319 137.994 153.416 137.695 153.516C137.599 153.322 137.502 153.129 137.402 152.93C137.596 152.93 137.789 152.93 137.988 152.93C138.049 152.738 138.111 152.546 138.174 152.348C138.727 151.128 139.5 150.121 140.295 149.048C140.642 148.574 140.989 148.1 141.336 147.625C141.511 147.386 141.687 147.146 141.867 146.899C142.642 145.835 143.402 144.76 144.159 143.683C144.303 143.478 144.447 143.274 144.596 143.063C145.317 142.039 146.037 141.014 146.756 139.988C148.292 137.798 149.852 135.631 151.447 133.484C153.001 131.391 154.49 129.262 155.951 127.104C157.05 125.486 158.185 123.902 159.349 122.331C160.341 120.99 161.309 119.633 162.268 118.268C163.488 116.531 164.721 114.805 165.967 113.086C167.199 111.385 168.421 109.677 169.629 107.959C171.304 105.578 173.006 103.217 174.715 100.859C175.511 99.7598 176.305 98.6592 177.1 97.5586C177.417 97.1191 177.734 96.6797 178.052 96.2402C178.209 96.0227 178.366 95.8052 178.528 95.5811C179.956 93.6035 179.956 93.6035 180.432 92.9443C180.749 92.5051 181.067 92.0659 181.384 91.6266C182.18 90.5237 182.977 89.4213 183.775 88.3198C185.322 86.1834 186.861 84.0421 188.379 81.8848C193.865 74.0901 199.552 66.4353 205.371 58.8867C205.498 58.7208 205.626 58.5549 205.757 58.3839C206.084 57.9579 206.414 57.5342 206.744 57.1106C207.009 56.7701 207.009 56.7701 207.279 56.4228C207.423 56.2691 207.567 56.1154 207.715 55.957Z" fill="black"/>
<path d="M204.785 54.1992C205.075 54.3442 205.075 54.3442 205.371 54.4922C203.208 57.6793 200.931 60.7769 198.633 63.8672C198.48 64.0724 198.328 64.2777 198.171 64.4892C196.509 66.7269 194.821 68.9413 193.103 71.1365C191.529 73.1482 190.001 75.1893 188.493 77.2508C187.206 79.007 185.894 80.742 184.57 82.4707C182.888 84.669 181.231 86.8837 179.593 89.1155C178.09 91.1644 176.567 93.1984 175.039 95.229C174.456 96.0042 173.874 96.7802 173.293 97.5563C172.851 98.145 172.41 98.7336 171.968 99.3221C171.397 100.084 170.826 100.846 170.256 101.609C168.394 104.097 166.516 106.573 164.63 109.043C162.65 111.64 160.691 114.253 158.738 116.869C157.319 118.766 155.886 120.651 154.449 122.534C152.608 124.949 150.778 127.371 148.96 129.804C148.215 130.799 147.469 131.794 146.722 132.788C146.428 133.181 146.133 133.575 145.838 133.968C145.345 134.625 144.851 135.282 144.357 135.939C142.499 138.408 140.667 140.898 138.836 143.387C137.882 144.683 136.928 145.977 135.974 147.272C135.627 147.743 135.28 148.214 134.933 148.685C134.682 149.026 134.431 149.366 134.18 149.707C134.083 149.514 133.986 149.32 133.887 149.121C133.597 149.024 133.307 148.928 133.008 148.828C136.064 144.512 139.188 140.249 142.414 136.058C143.591 134.526 144.739 132.974 145.88 131.415C147.388 129.355 148.936 127.333 150.511 125.325C151.752 123.739 152.951 122.128 154.138 120.502C155.52 118.609 156.945 116.764 158.422 114.945C159.487 113.626 160.477 112.267 161.449 110.879C162.449 109.463 163.505 108.096 164.575 106.732C166.205 104.655 167.785 102.547 169.345 100.417C170.528 98.8015 171.739 97.2124 172.966 95.6303C173.901 94.4148 174.802 93.1746 175.708 91.9373C177.234 89.8539 178.799 87.8067 180.393 85.7753C181.818 83.9527 183.19 82.094 184.556 80.2264C185.718 78.6405 186.912 77.0842 188.135 75.544C189.195 74.2073 190.221 72.8469 191.24 71.4787C191.92 70.5711 192.611 69.6718 193.304 68.7744C194.405 67.3503 195.487 65.9138 196.564 64.4714C198.077 62.4461 199.623 60.4494 201.196 58.4697C201.549 58.0246 201.901 57.5785 202.254 57.1323C203.924 55.0264 203.924 55.0264 204.785 54.1992Z" fill="black"/>
<path d="M210.645 57.4219C210.935 57.5669 210.935 57.5669 211.23 57.7148C210.853 58.743 210.412 59.5859 209.778 60.4774C209.6 60.7301 209.422 60.9827 209.239 61.243C209.044 61.5168 208.849 61.7906 208.649 62.0728C208.224 62.6762 207.8 63.2801 207.376 63.8844C207.264 64.0447 207.151 64.2051 207.035 64.3704C205.596 66.4264 204.194 68.5074 202.789 70.5872C202.262 71.3677 201.734 72.1482 201.207 72.9286C201.082 73.1129 200.957 73.2972 200.829 73.4871C199.801 75.0078 198.764 76.5225 197.721 78.0336C196.05 80.4559 194.397 82.89 192.74 85.322C192.23 86.0703 191.719 86.8181 191.208 87.5656C188.737 91.18 186.286 94.8077 183.838 98.4375C181.229 102.306 178.615 106.17 175.981 110.021C175.083 111.335 174.187 112.65 173.291 113.965C172.176 115.601 171.061 117.236 169.944 118.871C169.753 119.15 169.562 119.429 169.366 119.717C169.009 120.239 168.653 120.761 168.296 121.283C166.769 123.519 165.269 125.773 163.77 128.027C163.508 128.421 163.246 128.815 162.984 129.209C162.853 129.406 162.722 129.603 162.587 129.806C162.049 130.614 161.51 131.423 160.972 132.232C160.701 132.639 160.431 133.046 160.16 133.452C158.526 135.911 156.878 138.359 155.2 140.788C154.136 142.328 153.094 143.881 152.059 145.441C151.859 145.742 151.859 145.742 151.655 146.049C151.283 146.61 150.911 147.171 150.539 147.732C149.944 148.63 149.348 149.527 148.752 150.424C148.51 150.787 148.27 151.15 148.029 151.514C147.689 152.028 147.348 152.541 147.006 153.054C146.807 153.355 146.608 153.655 146.403 153.965C145.898 154.688 145.898 154.688 145.312 155.273C145.119 155.273 144.926 155.273 144.727 155.273C144.25 155.701 144.25 155.701 143.848 156.152C143.654 156.056 143.461 155.959 143.262 155.859C143.353 155.725 143.443 155.591 143.537 155.452C148.409 148.242 153.264 141.023 158.083 133.777C158.724 132.812 159.367 131.848 160.01 130.884C160.777 129.734 161.542 128.583 162.305 127.431C162.695 126.842 163.086 126.254 163.477 125.665C163.67 125.373 163.863 125.08 164.062 124.779C165.217 123.041 166.41 121.341 167.645 119.659C168.278 118.789 168.874 117.904 169.464 117.004C171.633 113.722 173.859 110.478 176.074 107.227C176.462 106.657 176.85 106.087 177.238 105.518C179.102 102.782 180.969 100.048 182.84 97.3164C183.671 96.1029 184.5 94.8884 185.327 93.6722C187.449 90.5511 189.59 87.4439 191.75 84.3486C192.883 82.7226 193.995 81.0868 195.086 79.4323C196.115 77.903 197.18 76.3983 198.239 74.8899C199.307 73.3698 200.367 71.845 201.416 70.3125C204.408 65.951 207.437 61.6284 210.645 57.4219Z" fill="black"/>
</svg>
