<svg width="300" height="300" viewBox="0 0 300 300" fill="none" xmlns="http://www.w3.org/2000/svg">
<path d="M224.395 56.0951C225.004 56.6773 225.582 57.279 226.154 57.898C226.546 58.3115 226.94 58.7243 227.334 59.1363C227.529 59.3409 227.724 59.5455 227.925 59.7563C228.676 60.5128 229.474 61.2013 230.283 61.8947C231.254 62.7501 232.151 63.6763 233.057 64.5997C234.36 65.9174 235.667 67.2013 237.084 68.398C237.88 69.0946 238.608 69.8556 239.35 70.609C240.126 71.3729 240.941 72.0833 241.769 72.7902C241.94 72.9394 242.11 73.0886 242.285 73.2423C242.453 73.3642 242.62 73.4862 242.792 73.6119C243.409 74.456 243.268 75.1574 243.164 76.1719C242.573 76.9964 242.573 76.9964 241.754 77.7821C241.54 77.9924 241.54 77.9924 241.321 78.2069C240.866 78.6506 240.404 79.0866 239.942 79.5228C239.631 79.8235 239.32 80.1246 239.01 80.4263C238.252 81.1622 237.487 81.8914 236.719 82.6173C237.275 83.7965 237.985 84.4617 238.956 85.3181C239.356 85.8399 239.356 85.8399 239.332 86.4247C239.011 87.1249 238.634 87.5278 238.074 88.0555C237.896 88.2251 237.719 88.3946 237.536 88.5693C237.363 88.7321 237.19 88.8949 237.012 89.0626C236.718 89.3545 236.425 89.6472 236.133 89.9415C235.184 89.5184 234.487 88.9871 233.716 88.2935C233.406 88.016 233.406 88.016 233.089 87.7328C232.933 87.5915 232.778 87.4503 232.617 87.3048C231.748 87.6942 231.151 88.1188 230.493 88.8062C230.095 89.2232 230.095 89.2232 229.688 89.6485C230.12 90.6598 230.695 91.3037 231.482 92.0655C231.694 92.2725 231.907 92.4794 232.125 92.6926C232.369 92.926 232.369 92.926 232.617 93.1641C232.223 94.3482 231.724 95.0353 230.823 95.8924C230.611 96.0967 230.398 96.301 230.18 96.5115C229.936 96.7398 229.936 96.7398 229.688 96.9727C228.575 96.5869 227.826 96.1183 226.959 95.3248C226.755 95.1397 226.551 94.9547 226.34 94.764C226.188 94.6228 226.036 94.4815 225.879 94.336C224.941 94.7451 224.359 95.2182 223.673 95.9737C223.483 96.1793 223.294 96.3849 223.099 96.5968C222.905 96.8115 222.71 97.0262 222.51 97.2474C222.123 97.672 221.736 98.0958 221.347 98.5188C221.177 98.7069 221.006 98.8949 220.831 99.0887C220.297 99.6253 219.775 100.074 219.141 100.488C218.414 100.471 218.414 100.471 217.621 100.36C216.604 100.34 216.102 100.348 215.286 100.972C214.738 101.607 214.219 102.259 213.701 102.919C212.839 103.945 211.858 104.862 210.901 105.798C209.779 106.899 208.673 107.996 207.653 109.193C206.012 111.098 204.178 112.83 202.39 114.596C200.242 116.697 200.242 116.697 198.221 118.918C196.455 120.99 194.446 122.854 192.512 124.768C189.903 127.343 189.903 127.343 187.449 130.064C186.158 131.513 184.743 132.853 183.362 134.216C182.738 134.833 182.115 135.45 181.492 136.068C181.081 136.474 181.081 136.474 180.662 136.888C179.858 137.722 179.112 138.524 178.418 139.453C178.828 141.934 180.821 144.145 182.322 146.095C186.976 152.148 190.097 158.784 189.122 166.621C188.409 170.69 186.868 174.044 184.278 177.246C184.122 177.453 183.966 177.66 183.806 177.873C180.607 181.895 175.861 183.469 171.035 184.607C167.678 185.426 164.982 187.103 163.092 190.064C161.583 192.857 160.935 195.802 160.483 198.92C160.429 199.275 160.375 199.63 160.319 199.995C160.148 201.122 159.981 202.248 159.815 203.375C159.703 204.116 159.591 204.857 159.479 205.597C159.313 206.696 159.147 207.795 158.982 208.894C158.618 211.319 158.246 213.743 157.863 216.165C157.817 216.46 157.771 216.756 157.724 217.06C156.688 223.558 154.381 229.116 150 234.082C149.768 234.356 149.768 234.356 149.531 234.636C144.024 240.68 134.667 243.213 126.856 244.043C126.628 244.07 126.401 244.097 126.166 244.125C123.709 244.391 121.25 244.401 118.782 244.406C118.038 244.409 117.293 244.418 116.549 244.428C106.256 244.495 97.3487 240.194 89.8295 233.312C89.2068 232.748 88.5778 232.194 87.9435 231.643C86.7521 230.603 85.5974 229.529 84.4484 228.442C82.7674 226.86 81.0766 225.289 79.3718 223.732C78.2957 222.748 77.2241 221.759 76.1533 220.769C75.3378 220.015 74.5213 219.263 73.7024 218.512C73.4534 218.284 73.4534 218.284 73.1994 218.051C72.8884 217.765 72.577 217.48 72.2651 217.195C71.806 216.773 71.3513 216.347 70.8986 215.918C70.7146 215.744 70.5305 215.57 70.3408 215.39C68.8638 213.956 67.5993 212.426 66.3759 210.773C66.185 210.515 65.994 210.258 65.7973 209.993C60.7525 203.112 56.695 195.121 56.7446 186.42C56.7462 186.113 56.7479 185.806 56.7496 185.489C56.879 177.146 60.4184 169.971 66.2948 164.128C70.9749 159.65 76.5559 156.896 82.5833 154.724C83.5599 154.372 84.5339 154.013 85.5082 153.654C89.5483 152.182 93.6068 150.846 97.7279 149.619C105.371 147.337 113.174 144.727 117.372 137.377C118.529 134.918 119.142 132.23 119.788 129.602C121.172 124.398 124.157 120.341 128.799 117.613C133.92 114.855 139.405 114.341 144.975 115.904C149.894 117.449 154.277 120.685 158.508 123.542C158.991 123.867 159.476 124.19 159.961 124.512C160.22 124.696 160.479 124.881 160.745 125.071C160.97 125.177 161.194 125.282 161.426 125.391C162.36 125.041 162.97 124.505 163.666 123.805C163.864 123.606 164.063 123.406 164.267 123.201C164.471 122.993 164.676 122.785 164.887 122.571C165.088 122.37 165.289 122.168 165.496 121.961C166.445 121.004 167.36 120.034 168.241 119.014C169.323 117.77 170.471 116.606 171.643 115.448C171.963 115.13 171.963 115.13 172.29 114.805C173.192 113.908 174.096 113.012 174.999 112.116C175.663 111.458 176.327 110.798 176.99 110.138C177.191 109.94 177.392 109.741 177.599 109.537C178.531 108.609 179.433 107.671 180.29 106.673C181.513 105.255 182.838 103.947 184.168 102.631C184.433 102.366 184.698 102.102 184.972 101.83C185.956 100.85 186.942 99.8711 187.927 98.8924C188.897 97.9299 189.865 96.9662 190.833 96.0023C191.085 95.7526 191.337 95.5029 191.597 95.2456C192.874 93.9736 194.098 92.6796 195.273 91.3124C195.776 90.7379 196.31 90.2148 196.875 89.7023C197.068 89.5208 197.261 89.3394 197.46 89.1524C197.857 88.7822 198.258 88.4161 198.662 88.0538C199.841 86.9601 199.841 86.9601 200.138 85.4314C199.667 83.9392 199.162 82.4673 198.606 81.0048C198.486 80.6689 198.486 80.6689 198.364 80.3262C198.289 80.1259 198.214 79.9257 198.137 79.7195C198.011 78.8561 198.23 78.4045 198.633 77.6368C199.157 77.0133 199.157 77.0133 199.78 76.4043C200.114 76.0743 200.114 76.0743 200.455 75.7376C200.688 75.5124 200.92 75.2871 201.16 75.055C201.395 74.8241 201.63 74.5931 201.872 74.3552C202.45 73.7869 203.031 73.2207 203.613 72.6563C203.179 71.7329 202.791 71.219 201.984 70.5872C201.213 69.9829 201.005 69.8107 200.684 68.8477C201.747 67.6876 202.811 66.5274 203.906 65.3321C205.186 66.1848 206.272 66.983 207.422 67.9688C208.433 67.536 209.077 66.9616 209.839 66.1744C210.15 65.856 210.15 65.856 210.466 65.5312C210.622 65.3688 210.777 65.2064 210.938 65.0391C210.505 64.0278 209.93 63.384 209.143 62.6221C208.931 62.4152 208.719 62.2082 208.5 61.995C208.257 61.7616 208.257 61.7616 208.008 61.5235C208.452 60.5046 209.056 59.7786 209.802 58.96C210.015 58.7259 210.227 58.4917 210.446 58.2505C210.608 58.0738 210.77 57.897 210.938 57.7149C212.083 57.8804 212.666 58.4243 213.501 59.1981C213.735 59.413 213.969 59.6278 214.211 59.8492C214.387 60.015 214.564 60.1808 214.746 60.3516C215.946 59.3562 217.035 58.3439 218.097 57.2022C219.753 55.5323 222.253 54.4654 224.395 56.0951ZM219.972 61.2046C219.808 61.3702 219.645 61.5359 219.476 61.7066C219.221 61.9616 219.221 61.9616 218.961 62.2218C218.6 62.5837 218.24 62.9463 217.88 63.3095C217.337 63.8583 216.791 64.4049 216.245 64.951C214.204 66.9839 214.204 66.9839 212.277 69.1224C210.595 71.0967 208.693 72.8807 206.854 74.7071C206.454 75.1057 206.054 75.5043 205.655 75.903C204.682 76.8723 203.709 77.8408 202.735 78.8087C203.058 79.9685 203.381 81.1281 203.705 82.2877C203.795 82.6125 203.886 82.9372 203.979 83.2719C204.52 85.2086 205.077 87.1392 205.664 89.0626C206.652 88.7332 206.88 88.4551 207.532 87.671C208.331 86.715 209.174 85.839 210.059 84.961C210.39 84.6311 210.722 84.3012 211.053 83.9713C211.234 83.7913 211.415 83.6113 211.602 83.4258C212.422 82.609 213.242 81.7914 214.062 80.9738C214.492 80.5449 214.923 80.1162 215.354 79.6878C215.982 79.064 216.608 78.4392 217.234 77.8142C217.424 77.6258 217.614 77.4374 217.81 77.2433C218.922 76.1308 219.973 74.9824 221.001 73.7918C221.691 73.0078 222.418 72.2757 223.159 71.5394C223.306 71.3931 223.452 71.2469 223.603 71.0962C224.062 70.639 224.522 70.1828 224.982 69.7266C225.297 69.4128 225.613 69.0988 225.928 68.7848C226.692 68.0237 227.457 67.2636 228.223 66.504C226.923 64.9327 225.538 63.5182 224.048 62.1278C223.732 61.8272 223.732 61.8272 223.409 61.5206C223.208 61.3316 223.006 61.1426 222.798 60.9479C222.616 60.7768 222.434 60.6058 222.246 60.4295C221.215 59.6134 220.759 60.4221 219.972 61.2046ZM230.143 69.492C229.979 69.6566 229.814 69.8213 229.645 69.991C229.458 70.177 229.271 70.363 229.079 70.5546C228.877 70.7587 228.675 70.9629 228.467 71.1732C228.258 71.3822 228.049 71.5912 227.834 71.8066C227.39 72.2512 226.947 72.6966 226.504 73.1426C225.834 73.8187 225.16 74.4925 224.487 75.166C224.056 75.5988 223.624 76.0318 223.193 76.4649C222.994 76.6643 222.795 76.8637 222.59 77.0691C221.457 78.2134 220.38 79.3898 219.327 80.6082C218.642 81.3856 217.919 82.109 217.182 82.837C217.033 82.9842 216.885 83.1314 216.732 83.283C216.11 83.9003 215.486 84.5159 214.863 85.1315C211.804 88.082 211.804 88.082 209.18 91.4063C210.217 91.9745 211.255 92.5419 212.293 93.1092C212.585 93.2695 212.878 93.4298 213.18 93.595C213.746 93.9045 214.313 94.2125 214.882 94.5187C215.466 94.8355 216.044 95.1624 216.621 95.493C217.551 95.8688 217.922 95.8938 218.848 95.5079C219.597 94.8366 219.597 94.8366 220.313 93.9698C220.594 93.6486 220.876 93.3282 221.16 93.0085C221.307 92.8416 221.455 92.6746 221.606 92.5027C222.533 91.4838 223.523 90.5272 224.508 89.5658C225.314 88.7729 226.078 87.9628 226.813 87.1036C227.927 85.8254 229.106 84.626 230.309 83.4321C230.527 83.2143 230.745 82.9965 230.97 82.7721C231.659 82.0851 232.349 81.399 233.039 80.713C233.509 80.2438 233.98 79.7746 234.45 79.3053C235.596 78.1624 236.743 77.0204 237.891 75.879C236.834 73.6764 234.741 72.1689 232.91 70.6055C232.739 70.4556 232.568 70.3057 232.392 70.1512C231.349 69.0933 231.349 69.0933 230.143 69.492ZM199.512 92.5782C198.676 93.4001 197.841 94.2238 197.009 95.0494C196.725 95.3301 196.441 95.6103 196.156 95.89C195.747 96.2915 195.341 96.695 194.934 97.0986C194.689 97.341 194.443 97.5834 194.19 97.8332C193.588 98.3757 193.588 98.3757 193.653 99.0235C193.392 99.1355 193.392 99.1355 193.126 99.2498C192.413 99.6472 192.039 100.048 191.523 100.677C190.468 101.922 189.342 103.069 188.179 104.212C187.758 104.629 187.338 105.046 186.917 105.463C186.261 106.112 185.605 106.76 184.948 107.407C184.308 108.038 183.671 108.67 183.034 109.303C182.835 109.497 182.636 109.692 182.432 109.893C182.251 110.073 182.07 110.253 181.883 110.438C181.723 110.596 181.562 110.755 181.397 110.918C180.992 111.314 180.992 111.314 181.055 111.914C180.862 111.914 180.668 111.914 180.469 111.914C180.014 112.363 180.014 112.363 179.543 112.949C178.496 114.179 177.388 115.321 176.239 116.455C176.039 116.654 175.839 116.854 175.632 117.059C174.786 117.9 173.938 118.74 173.091 119.579C172.467 120.198 171.845 120.817 171.222 121.436C171.034 121.621 170.846 121.807 170.652 121.998C169.536 123.108 168.485 124.256 167.456 125.447C166.879 126.106 166.271 126.726 165.647 127.341C165.411 127.574 165.176 127.807 164.934 128.047C164.451 128.522 163.968 128.997 163.485 129.473C162.455 130.493 161.438 131.507 160.501 132.614C158.603 134.826 156.453 136.823 154.383 138.873C151.581 141.63 151.581 141.63 148.947 144.545C148.146 145.468 147.248 146.297 146.358 147.134C145.993 147.487 145.651 147.864 145.313 148.242C145.313 148.532 145.313 148.822 145.313 149.121C145.893 149.315 146.473 149.508 147.071 149.707C147.23 149.548 147.389 149.389 147.552 149.225C149.414 147.363 149.414 147.363 149.93 146.884C150.359 146.502 150.359 146.502 150.293 145.899C150.487 145.899 150.68 145.899 150.879 145.899C151.284 145.498 151.284 145.498 151.712 144.956C152.649 143.854 153.635 142.824 154.66 141.806C154.816 141.651 154.972 141.496 155.133 141.337C155.782 140.693 156.432 140.05 157.083 139.408C159.244 137.291 159.244 137.291 161.281 135.056C162.152 134.034 163.089 133.085 164.043 132.14C164.198 131.988 164.352 131.835 164.511 131.677C165.155 131.042 165.799 130.408 166.445 129.775C166.921 129.307 167.396 128.838 167.87 128.368C168.018 128.225 168.165 128.082 168.317 127.934C168.668 127.585 169.004 127.222 169.336 126.856C169.336 126.662 169.336 126.469 169.336 126.27C169.529 126.27 169.723 126.27 169.922 126.27C170.332 125.863 170.332 125.863 170.766 125.315C171.679 124.241 172.643 123.233 173.647 122.244C173.795 122.097 173.943 121.951 174.095 121.801C174.71 121.193 175.327 120.587 175.945 119.982C176.401 119.535 176.855 119.086 177.309 118.636C177.578 118.372 177.848 118.108 178.125 117.835C178.777 117.261 178.777 117.261 178.711 116.602C178.885 116.527 179.058 116.452 179.237 116.376C179.952 115.977 180.327 115.574 180.845 114.945C181.879 113.725 182.976 112.597 184.113 111.475C184.313 111.275 184.513 111.076 184.72 110.871C185.566 110.03 186.414 109.19 187.261 108.35C187.885 107.732 188.507 107.113 189.13 106.494C189.318 106.309 189.506 106.123 189.7 105.932C190.809 104.828 191.852 103.688 192.874 102.504C193.568 101.716 194.306 100.981 195.057 100.248C195.365 99.9433 195.674 99.6385 195.982 99.3336C196.458 98.8651 196.934 98.3971 197.411 97.9299C197.879 97.471 198.345 97.0103 198.81 96.5493C199.086 96.2788 199.361 96.0084 199.645 95.7298C200.403 94.9087 200.971 94.1078 201.563 93.1641C200.886 92.9708 200.209 92.7774 199.512 92.5782ZM203.736 96.1572C203.561 96.3357 203.386 96.5142 203.206 96.6981C203.024 96.8811 202.841 97.0641 202.653 97.2527C202.266 97.6418 201.88 98.032 201.495 98.4231C200.912 99.015 200.326 99.6037 199.74 100.192C197.592 102.336 197.592 102.336 195.561 104.59C193.704 106.774 191.575 108.733 189.54 110.748C186.813 113.433 186.813 113.433 184.25 116.271C182.603 118.111 180.79 119.809 179.035 121.545C176.416 124.131 176.416 124.131 173.951 126.864C172.646 128.331 171.205 129.678 169.801 131.05C169.386 131.456 168.972 131.865 168.559 132.273C168.314 132.513 168.07 132.753 167.818 133C167.22 133.534 167.22 133.534 167.285 134.18C166.995 134.276 166.705 134.373 166.406 134.473C165.954 134.919 165.954 134.919 165.509 135.48C163.999 137.259 162.321 138.865 160.659 140.501C159.566 141.585 158.488 142.662 157.489 143.834C156.669 144.792 155.794 145.674 154.889 146.553C154.617 146.818 154.345 147.083 154.064 147.355C153.639 147.766 153.215 148.177 152.787 148.584C152.367 148.984 151.953 149.389 151.538 149.794C151.169 150.149 151.169 150.149 150.792 150.511C150.23 151.118 150.23 151.118 150.289 151.807C150.667 152.489 151.042 152.653 151.758 152.93C152.693 152.003 153.626 151.075 154.56 150.147C154.822 149.887 155.084 149.627 155.354 149.359C156.485 148.233 157.603 147.111 158.642 145.899C160.171 144.115 161.881 142.501 163.553 140.853C164.677 139.739 165.791 138.634 166.818 137.43C168.385 135.6 170.143 133.943 171.856 132.251C173.953 130.196 173.953 130.196 175.929 128.025C176.781 127.026 177.694 126.096 178.628 125.173C178.776 125.027 178.924 124.881 179.076 124.73C179.691 124.123 180.308 123.516 180.925 122.912C181.381 122.464 181.836 122.015 182.29 121.566C182.559 121.302 182.828 121.037 183.106 120.765C183.757 120.19 183.757 120.19 183.692 119.531C183.885 119.531 184.078 119.531 184.278 119.531C184.735 119.08 184.735 119.08 185.207 118.493C186.233 117.287 187.317 116.166 188.443 115.054C188.637 114.862 188.831 114.669 189.031 114.47C189.849 113.657 190.668 112.846 191.488 112.034C192.091 111.436 192.693 110.837 193.295 110.239C193.568 109.97 193.568 109.97 193.846 109.696C194.933 108.615 195.952 107.494 196.954 106.334C197.757 105.428 198.615 104.583 199.479 103.736C199.854 103.365 200.229 102.993 200.604 102.622C201.186 102.047 201.768 101.473 202.352 100.899C202.921 100.339 203.489 99.7763 204.056 99.2135C204.23 99.0441 204.403 98.8746 204.582 98.7001C205.585 97.703 206.386 96.7124 207.129 95.5079C205.551 94.6373 205.003 94.8966 203.736 96.1572ZM209.57 97.9415C209.409 98.1203 209.249 98.2991 209.084 98.4833C208.9 98.6841 208.716 98.8848 208.527 99.0917C208.332 99.3109 208.136 99.5301 207.935 99.7559C207.516 100.214 207.097 100.671 206.677 101.128C206.462 101.363 206.247 101.597 206.025 101.839C204.818 103.131 203.556 104.368 202.293 105.606C201.399 106.489 200.539 107.38 199.722 108.336C198.248 110.046 196.611 111.601 194.997 113.179C194.581 113.585 194.168 113.994 193.754 114.402C193.51 114.642 193.265 114.882 193.013 115.129C192.416 115.663 192.416 115.663 192.481 116.309C192.287 116.309 192.094 116.309 191.895 116.309C191.495 116.704 191.495 116.704 191.071 117.243C190.112 118.371 189.099 119.423 188.05 120.465C187.887 120.627 187.725 120.788 187.557 120.954C186.88 121.626 186.202 122.297 185.523 122.967C183.297 125.144 183.297 125.144 181.2 127.444C180.309 128.491 179.35 129.457 178.374 130.424C178.213 130.583 178.052 130.743 177.886 130.907C177.214 131.57 176.542 132.232 175.868 132.893C175.372 133.381 174.877 133.871 174.382 134.361C174.228 134.51 174.074 134.66 173.916 134.815C173.55 135.178 173.199 135.557 172.852 135.938C172.852 136.131 172.852 136.324 172.852 136.524C172.658 136.524 172.465 136.524 172.266 136.524C171.846 136.938 171.846 136.938 171.405 137.494C169.896 139.268 168.222 140.877 166.566 142.511C165.065 143.992 163.598 145.48 162.227 147.083C161.022 148.443 159.695 149.691 158.4 150.964C155.717 153.42 155.717 153.42 153.809 156.445C154.039 157.242 154.039 157.242 154.395 157.91C155.294 157.513 155.87 157.078 156.531 156.353C156.714 156.155 156.896 155.958 157.084 155.755C157.278 155.541 157.472 155.328 157.672 155.109C159.574 153.051 161.522 151.051 163.521 149.088C164.452 148.168 165.353 147.242 166.204 146.248C167.683 144.53 169.322 142.966 170.935 141.376C172.876 139.472 172.876 139.472 174.701 137.457C176.48 135.378 178.494 133.503 180.438 131.58C183.034 129.017 183.034 129.017 185.476 126.309C187.071 124.527 188.824 122.882 190.524 121.201C193.071 118.683 193.071 118.683 195.468 116.023C196.838 114.484 198.347 113.065 199.814 111.618C201.357 110.094 202.872 108.567 204.282 106.916C205.485 105.557 206.811 104.312 208.104 103.04C210.523 100.803 210.523 100.803 212.403 98.1446C211.438 97.5932 210.553 97.1715 209.57 97.9415ZM127.149 124.805C125.058 127.497 124.344 130.423 123.528 133.683C122.5 137.697 120.893 141.06 118.067 144.141C117.876 144.359 117.684 144.577 117.488 144.801C116.238 146.147 114.869 147.243 113.361 148.279C113.201 148.391 113.041 148.504 112.876 148.619C109.177 151.06 104.803 152.323 100.611 153.623C99.3916 154.002 98.1739 154.387 96.9561 154.772C96.0521 155.058 95.1478 155.342 94.2434 155.627C80.4048 159.816 80.4048 159.816 68.8479 168.164C68.6043 168.408 68.3607 168.653 68.1097 168.905C63.2143 174.05 61.3055 180.332 61.4321 187.301C61.8513 197.672 68.327 207.341 75.7143 214.197C76.2723 214.709 76.8324 215.218 77.3942 215.726C78.2132 216.467 79.0233 217.219 79.8342 217.969C80.1451 218.255 80.456 218.542 80.7669 218.828C81.8335 219.813 82.8938 220.804 83.9541 221.796C85.8414 223.56 87.7389 225.311 89.6486 227.051C89.8945 227.276 90.1403 227.501 90.3937 227.733C100.409 236.841 109.294 240.144 122.888 239.609C131.969 239.15 140.946 237.076 147.418 230.2C150.32 226.775 152.063 222.952 152.889 218.579C152.938 218.317 152.988 218.055 153.039 217.785C153.856 213.323 154.402 208.811 155.002 204.316C156.567 192.613 156.567 192.613 158.368 189.185C158.467 188.993 158.565 188.802 158.667 188.605C160.323 185.556 162.674 183.149 165.821 181.641C166.064 181.519 166.308 181.398 166.559 181.273C168.238 180.507 169.936 180.006 171.72 179.552C176.492 178.335 179.588 176.541 182.3 172.321C184.622 168.271 185.324 163.394 184.136 158.875C183.04 155.165 181.104 152.181 178.826 149.09C178.396 148.505 177.97 147.917 177.544 147.328C177.256 146.931 176.967 146.534 176.679 146.137C176.476 145.857 176.476 145.857 176.27 145.572C175.663 144.743 175.055 143.975 174.317 143.262C173.675 143.896 173.034 144.531 172.394 145.166C172.216 145.342 172.037 145.518 171.853 145.699C170.945 146.602 170.07 147.517 169.237 148.489C167.745 150.218 166.093 151.791 164.468 153.392C163.164 154.684 161.908 155.992 160.714 157.386C160.034 158.161 159.307 158.874 158.57 159.595C158.051 160.102 157.538 160.614 157.031 161.133C156.857 161.31 156.683 161.487 156.504 161.67C155.979 162.619 156.035 163.573 156.024 164.63C155.854 169.318 154.21 173.353 150.773 176.595C148.258 178.715 145.108 180.236 141.797 180.469C141.454 180.389 141.454 180.389 141.104 180.307C139.817 180.096 138.812 180.112 137.698 180.861C136.083 182.2 134.663 183.741 133.228 185.266C132.779 185.728 132.329 186.189 131.878 186.649C131.063 187.489 130.248 188.33 129.445 189.183C129.284 189.353 129.123 189.524 128.957 189.699C128.553 190.121 128.553 190.121 128.613 190.723C128.42 190.723 128.227 190.723 128.028 190.723C127.597 191.147 127.597 191.147 127.148 191.711C125.865 193.22 124.472 194.604 123.065 195.996C122.809 196.251 122.553 196.506 122.289 196.769C121.663 197.391 121.037 198.012 120.41 198.633C122.641 201.289 125.077 203.726 127.735 205.957C127.171 207.215 126.38 207.941 125.391 208.887C124.439 208.463 123.758 207.941 122.992 207.239C122.735 207.004 122.479 206.768 122.214 206.526C120.665 205.086 119.127 203.635 117.589 202.184C116.421 201.082 115.249 199.984 114.075 198.889C113.896 198.722 113.717 198.556 113.533 198.384C113.173 198.049 112.814 197.713 112.454 197.378C111.725 196.699 110.996 196.018 110.267 195.338C109.901 194.996 109.535 194.655 109.169 194.313C108.243 193.448 107.316 192.583 106.39 191.717C106.016 191.367 105.642 191.018 105.268 190.668C104.995 190.413 104.995 190.413 104.717 190.153C103.558 189.072 102.392 188 101.221 186.932C100.105 185.914 99.0165 184.881 97.9696 183.791C97.5103 183.329 97.5103 183.329 96.6799 182.813C96.8468 181.75 97.2435 181.273 98.0166 180.542C98.2043 180.362 98.392 180.183 98.5853 179.997C98.73 179.863 98.8746 179.728 99.0236 179.59C99.9848 180.008 100.593 180.518 101.312 181.274C102.356 182.347 103.441 183.32 104.59 184.277C105.436 183.894 106.041 183.485 106.696 182.828C106.871 182.654 107.046 182.48 107.227 182.301C107.413 182.112 107.599 181.924 107.791 181.73C107.986 181.535 108.181 181.34 108.382 181.138C108.795 180.725 109.207 180.311 109.618 179.896C110.241 179.267 110.867 178.641 111.493 178.015C111.895 177.612 112.296 177.208 112.698 176.804C112.883 176.62 113.067 176.435 113.257 176.245C114.174 175.318 115.057 174.375 115.908 173.387C116.693 172.479 117.513 171.666 118.42 170.876C121.903 167.976 121.903 167.976 123.625 163.978C123.659 163.12 123.658 162.269 123.628 161.411C123.655 158.231 125.883 155.063 127.973 152.838C129.229 151.654 130.599 150.79 132.129 150C132.341 149.889 132.553 149.777 132.771 149.662C134.208 149 135.559 148.751 137.116 148.57C139.499 148.284 141.087 148.045 142.681 146.087C142.872 145.832 143.064 145.576 143.262 145.313C145.302 142.805 147.674 140.588 149.969 138.319C152.645 135.68 152.645 135.68 155.163 132.892C155.746 132.213 156.375 131.585 157.013 130.957C157.239 130.734 157.466 130.51 157.699 130.28C157.948 130.035 157.948 130.035 158.203 129.785C157.775 128.717 157.239 128.26 156.294 127.62C156.026 127.437 155.758 127.255 155.482 127.067C155.196 126.876 154.91 126.686 154.614 126.489C154.322 126.293 154.03 126.097 153.729 125.895C145.53 120.434 134.97 116.071 127.149 124.805ZM130.371 156.738C128.314 159.539 127.451 162.365 127.794 165.836C128.151 167.954 129.146 169.933 130.371 171.68C130.946 172.086 131.531 172.479 132.129 172.852C132.322 173.142 132.516 173.432 132.715 173.731C133.934 174.598 133.934 174.598 135.352 174.902C135.352 175.096 135.352 175.289 135.352 175.488C139.133 176.48 142.815 176.355 146.283 174.39C149.097 172.546 150.405 170.466 151.465 167.285C151.714 163.271 151.521 159.957 148.819 156.758C146.361 154.177 143.708 152.943 140.14 152.777C136.256 152.709 133.124 153.917 130.371 156.738ZM124.219 170.215C122.458 171.969 120.698 173.724 118.939 175.479C118.122 176.295 117.305 177.11 116.487 177.925C115.696 178.712 114.906 179.501 114.116 180.29C113.817 180.589 113.517 180.888 113.216 181.187C110.126 184.05 110.126 184.05 107.813 187.5C108.172 187.982 108.172 187.982 108.692 188.379C109.641 188.264 110.088 187.96 110.715 187.256C110.881 187.075 111.046 186.893 111.217 186.706C111.399 186.503 111.58 186.299 111.768 186.09C114.22 183.413 116.781 180.855 119.361 178.302C123.1 175.166 123.1 175.166 125.098 171.094C124.676 170.608 124.676 170.608 124.219 170.215ZM127.149 175.195C126.187 176.142 125.228 177.091 124.27 178.042C123.943 178.365 123.617 178.688 123.289 179.011C122.82 179.473 122.352 179.938 121.884 180.402C121.663 180.619 121.663 180.619 121.438 180.84C121.084 181.194 120.746 181.562 120.41 181.934C120.41 182.127 120.41 182.32 120.41 182.52C120.236 182.595 120.062 182.67 119.883 182.747C119.176 183.141 118.814 183.529 118.305 184.154C117.538 185.061 116.744 185.904 115.888 186.726C115.668 186.938 115.449 187.15 115.223 187.368C114.768 187.805 114.311 188.239 113.852 188.671C113.635 188.881 113.419 189.092 113.196 189.308C112.9 189.59 112.9 189.59 112.599 189.877C112.146 190.401 112.146 190.401 112.219 191.049C112.579 191.756 112.946 191.906 113.672 192.188C114.407 191.47 115.138 190.749 115.869 190.027C116.079 189.822 116.289 189.618 116.504 189.407C116.703 189.21 116.901 189.014 117.105 188.812C117.289 188.631 117.474 188.449 117.663 188.263C118.13 187.822 118.13 187.822 118.067 187.207C118.26 187.207 118.453 187.207 118.653 187.207C119.087 186.777 119.087 186.777 119.541 186.209C120.998 184.495 122.609 182.944 124.211 181.367C125.317 180.272 126.415 179.17 127.469 178.024C127.634 177.846 127.8 177.667 127.97 177.482C128.428 176.896 128.428 176.896 128.321 175.781C127.934 175.588 127.547 175.395 127.149 175.195ZM131.06 178.879C130.893 179.084 130.726 179.288 130.554 179.498C129.757 180.465 128.917 181.344 128.028 182.227C127.714 182.539 127.4 182.851 127.087 183.163C126.918 183.331 126.749 183.499 126.574 183.673C125.807 184.436 125.041 185.2 124.275 185.963C123.873 186.364 123.47 186.764 123.068 187.164C122.481 187.747 121.895 188.331 121.31 188.916C121.133 189.091 120.956 189.267 120.773 189.448C119.678 190.543 118.643 191.675 117.633 192.849C117.12 193.437 116.579 193.991 116.016 194.531C116.424 195.551 116.787 195.844 117.774 196.289C118.513 195.558 119.251 194.825 119.989 194.092C120.196 193.888 120.402 193.684 120.615 193.474C121.592 192.501 122.543 191.523 123.44 190.476C124.915 188.762 126.552 187.201 128.161 185.614C130.195 183.607 132.186 181.6 133.887 179.297C132.483 178.282 132.483 178.282 131.06 178.879Z" fill="black"/>
<path d="M219.727 65.625C220.898 66.2109 220.898 66.2109 222.656 68.2617C218.596 72.3223 214.535 76.3828 210.352 80.5664C209.169 79.975 208.412 79.3708 207.422 78.5156C208.639 77.0349 209.948 75.6733 211.32 74.3359C212.108 73.5732 212.108 73.5732 212.695 72.6562C212.889 72.6562 213.082 72.6562 213.281 72.6562C213.281 72.4629 213.281 72.2695 213.281 72.0703C213.475 72.0703 213.668 72.0703 213.867 72.0703C213.939 71.9031 214.011 71.7359 214.084 71.5636C214.518 70.782 215.028 70.2577 215.664 69.6304C216.018 69.2792 216.018 69.2792 216.379 68.9209C216.749 68.5583 216.749 68.5583 217.126 68.1885C217.375 67.9422 217.624 67.696 217.881 67.4423C218.495 66.8352 219.11 66.2295 219.727 65.625Z" fill="black"/>
<path d="M229.688 74.707C230.819 75.1318 231.575 75.4856 232.324 76.4648C232.324 77.5775 231.583 78.3123 230.859 79.1016C230.666 79.1016 230.473 79.1016 230.273 79.1016C230.195 79.2749 230.116 79.4482 230.036 79.6268C229.684 80.2801 229.323 80.717 228.806 81.2448C228.628 81.4275 228.45 81.6102 228.266 81.7984C228.075 81.9919 227.883 82.1855 227.685 82.3849C227.487 82.5855 227.289 82.7861 227.085 82.9928C226.667 83.4154 226.247 83.8372 225.827 84.2582C225.184 84.9052 224.546 85.5575 223.908 86.2101C223.501 86.6199 223.094 87.0294 222.686 87.4386C222.495 87.6351 222.304 87.8316 222.108 88.034C221.928 88.2121 221.748 88.3902 221.563 88.5736C221.406 88.7321 221.249 88.8905 221.087 89.0538C220.605 89.3555 220.605 89.3555 219.991 89.2877C219.275 88.9984 218.961 88.6186 218.481 88.0188C218.329 87.8311 218.176 87.6434 218.019 87.45C217.906 87.3054 217.793 87.1607 217.676 87.0117C221.549 82.7805 225.617 78.7471 229.688 74.707Z" fill="black"/>
</svg>
