<svg width="300" height="300" viewBox="0 0 300 300" fill="none" xmlns="http://www.w3.org/2000/svg">
<path d="M147.07 38.0859C147.36 38.231 147.36 38.231 147.656 38.3789C147.559 41.666 147.463 44.9531 147.363 48.3398C148.192 45.8534 148.768 43.7792 149.048 41.2354C149.084 40.9298 149.121 40.6243 149.159 40.3095C149.247 39.5686 149.332 38.8276 149.414 38.0859C149.801 38.0859 150.187 38.0859 150.586 38.0859C150.809 38.8995 150.933 39.6691 150.994 40.5098C151.025 40.8729 151.025 40.8729 151.056 41.2434C151.095 41.7391 151.133 42.235 151.168 42.7311C151.372 45.081 151.954 46.8296 152.637 49.2188C152.54 45.5449 152.443 41.8711 152.344 38.0859C154.501 38.805 154.501 38.805 155.273 39.8438C155.765 41.009 156.152 42.0883 156.152 43.3594C156.375 43.3669 156.597 43.3745 156.826 43.3823C157.117 43.3989 157.409 43.4155 157.709 43.4326C158.142 43.453 158.142 43.453 158.584 43.4738C159.375 43.6523 159.375 43.6523 159.91 44.1616C160.512 45.3233 160.445 46.4808 160.254 47.7539C159.727 48.6135 159.391 49.0641 158.496 49.5117C158.316 50.1134 158.316 50.1134 158.203 50.8118C157.974 52.0842 157.974 52.0842 157.324 52.7344C156.409 52.771 156.409 52.771 155.566 52.7344C155.566 53.2178 155.566 53.7012 155.566 54.1992C157.79 54.1992 160.014 54.1992 162.305 54.1992C162.305 53.6191 162.305 53.0391 162.305 52.4414C164.94 51.9373 167.703 52.1497 170.098 53.437C171.115 54.1657 171.791 54.7797 172.265 55.957C172.286 56.8945 172.186 57.4663 171.566 58.1875C169.407 60.1428 167.137 60.6897 164.264 60.6628C163.896 60.6602 163.529 60.6576 163.15 60.6548C162.871 60.6514 162.592 60.648 162.305 60.6445C162.305 60.0645 162.305 59.4844 162.305 58.8867C160.274 58.8867 158.244 58.8867 156.152 58.8867C156.249 59.5635 156.346 60.2402 156.445 60.9375C156.48 62.1113 156.458 63.2784 156.445 64.4531C158.379 64.4531 160.312 64.4531 162.305 64.4531C162.305 63.7764 162.305 63.0996 162.305 62.4023C165.389 62.2381 168.412 62.3505 170.984 64.27C171.762 65.1305 172.101 65.6462 172.265 66.7969C171.775 68.3292 171.039 68.9962 169.629 69.7266C167.324 70.6084 165.052 70.8006 162.598 70.6055C162.501 70.5088 162.404 70.4121 162.305 70.3125C162.305 69.8291 162.305 69.3457 162.305 68.8477C160.468 68.8477 158.631 68.8477 156.738 68.8477C156.717 69.5212 156.717 69.5212 156.695 70.2084C156.673 70.8107 156.651 71.413 156.628 72.0154C156.619 72.3098 156.61 72.6041 156.601 72.9074C156.584 73.3479 156.584 73.3479 156.566 73.7972C156.557 74.0626 156.548 74.3281 156.539 74.6015C156.457 75.4604 156.317 76.2642 156.15 77.109C155.842 78.7579 155.765 80.3349 155.777 82.0095C155.779 82.5014 155.779 82.5014 155.781 83.0033C155.846 88.9991 156.226 94.9919 156.538 100.979C156.628 102.711 156.716 104.444 156.803 106.177C156.975 109.554 157.149 112.931 157.324 116.309C157.667 116.368 158.009 116.427 158.362 116.488C158.816 116.568 159.27 116.647 159.724 116.726C159.949 116.765 160.174 116.804 160.407 116.844C161.927 117.11 163.412 117.422 164.886 117.883C165.091 117.946 165.297 118.009 165.508 118.073C170.029 119.489 173.967 121.675 177.539 124.805C177.761 124.999 177.984 125.194 178.213 125.394C182.273 129.188 184.797 134.617 185.742 140.039C185.809 140.408 185.875 140.776 185.943 141.156C186.487 146.557 185.586 151.664 184.072 156.836C183.302 159.586 183.137 161.819 184.503 164.389C184.964 165.096 185.507 165.747 186.035 166.406C185.358 167.663 184.681 168.92 183.984 170.215C183.501 170.118 183.017 170.021 182.519 169.922C179.735 169.714 179.735 169.714 177.246 170.801C175.318 172.674 175.035 175.282 174.902 177.85C174.902 183.703 176.127 190.09 180.176 194.531C181.996 195.913 183.823 196.147 186.035 195.996C186.926 195.841 187.798 195.642 188.672 195.41C188.967 195.977 189.259 196.545 189.551 197.113C189.714 197.429 189.877 197.745 190.045 198.071C190.43 198.926 190.43 198.926 190.43 199.805C189.941 200.293 189.453 200.781 188.965 201.27C187.754 202.939 187.901 204.86 188.086 206.836C188.433 208.108 188.933 209.29 189.459 210.498C190.455 212.923 191.327 215.301 191.913 217.859C191.969 218.103 192.025 218.347 192.082 218.599C193.623 225.69 193.152 233.303 190.137 239.941C190.007 240.235 189.878 240.528 189.745 240.831C185.811 249.252 177.663 255.557 169.086 258.77C163.954 260.59 158.579 261.94 153.108 261.974C152.88 261.976 152.652 261.978 152.417 261.98C142.795 262.047 142.795 262.047 138.574 261.035C138.327 260.977 138.081 260.919 137.827 260.859C134.082 259.945 130.603 258.632 127.148 256.934C126.953 256.839 126.757 256.745 126.556 256.647C123.761 255.287 121.319 253.664 118.945 251.66C118.72 251.473 118.72 251.473 118.491 251.281C112.138 245.928 108.124 238.564 107.226 230.273C106.858 223.034 107.884 216.541 110.725 209.877C110.866 209.544 110.866 209.544 111.011 209.206C111.191 208.788 111.377 208.372 111.567 207.958C112.278 206.342 112.44 204.973 112.056 203.216C111.513 201.861 110.941 200.49 109.57 199.805C109.747 198.677 110.088 197.795 110.614 196.783C110.747 196.525 110.88 196.266 111.018 196C111.12 195.805 111.223 195.611 111.328 195.41C111.484 195.452 111.641 195.495 111.802 195.538C114.165 196.127 116.496 196.499 118.69 195.227C122.673 192.3 123.851 187.011 124.694 182.404C124.842 180.988 124.87 179.585 124.878 178.162C124.884 177.886 124.89 177.609 124.896 177.325C124.908 175.136 124.573 173.292 123.395 171.423C121.757 169.833 120.265 169.832 118.073 169.862C117.34 169.912 116.716 170.003 116.015 170.215C115.672 169.593 115.331 168.97 114.99 168.347C114.843 168.082 114.843 168.082 114.694 167.812C113.965 166.473 113.965 166.473 113.965 165.82C114.188 165.603 114.412 165.385 114.642 165.161C115.921 163.853 116.369 162.802 116.473 160.986C116.425 158.517 115.658 156.232 114.981 153.874C112.848 146.404 113.746 138.534 117.261 131.635C118.311 129.764 119.561 128.153 120.996 126.562C121.201 126.334 121.405 126.105 121.616 125.869C127.102 120.062 134.952 117.395 142.676 116.309C142.868 112.361 143.059 108.413 143.249 104.465C143.337 102.631 143.425 100.798 143.515 98.9639C143.601 97.1898 143.687 95.4155 143.771 93.6413C143.803 92.969 143.836 92.2968 143.869 91.6246C144.028 88.406 144.169 85.191 144.179 81.968C144.18 81.7308 144.181 81.4936 144.183 81.2491C144.178 79.8119 144.039 78.4845 143.685 77.0863C143.457 75.9997 143.519 74.9338 143.555 73.8281C143.205 73.8315 142.856 73.8349 142.496 73.8384C142.037 73.8412 141.578 73.8438 141.119 73.8464C140.889 73.8489 140.659 73.8513 140.422 73.8539C140.2 73.8548 139.978 73.8558 139.749 73.8567C139.443 73.859 139.443 73.859 139.131 73.8614C138.574 73.8281 138.574 73.8281 137.695 73.5352C137.695 74.1152 137.695 74.6953 137.695 75.293C134.468 75.4371 131.976 75.3862 129.199 73.5352C128.605 72.941 128.264 72.5822 128.027 71.7773C128.052 70.6263 128.23 70.1308 128.961 69.2322C131.332 67.2831 134.397 66.9501 137.402 67.0898C137.402 67.6699 137.402 68.25 137.402 68.8477C139.336 68.8477 141.269 68.8477 143.262 68.8477C143.256 68.3703 143.249 67.8929 143.243 67.4011C143.224 65.8817 143.383 64.5336 143.555 62.9883C141.621 62.9883 139.687 62.9883 137.695 62.9883C137.598 63.665 137.502 64.3418 137.402 65.0391C134.675 65.1974 131.869 65.142 129.554 63.4941C128.641 62.6132 128.033 61.8368 128.009 60.553C128.43 59.0911 129.103 58.5086 130.371 57.7148C132.626 56.4829 135.209 56.7536 137.695 56.8359C137.695 57.3193 137.695 57.8027 137.695 58.3008C139.822 58.3008 141.949 58.3008 144.14 58.3008C144.237 56.4639 144.334 54.627 144.433 52.7344C143.757 52.6377 143.08 52.541 142.383 52.4414C142.336 52.2435 142.29 52.0456 142.242 51.8417C141.816 50.2118 141.524 49.2777 140.039 48.3398C139.682 47.6251 139.687 47.1231 139.673 46.3257C139.665 46.0727 139.658 45.8196 139.65 45.5589C139.768 44.6527 139.958 44.2779 140.625 43.6523C141.416 43.4738 141.416 43.4738 142.291 43.4326C142.582 43.416 142.873 43.3994 143.173 43.3823C143.396 43.3747 143.618 43.3672 143.848 43.3594C143.869 43.1717 143.891 42.984 143.914 42.7906C144.2 40.9086 144.702 39.6179 146.191 38.3789C146.481 38.2822 146.771 38.1855 147.07 38.0859ZM148.535 57.1289C148.105 59.4987 147.802 61.8505 147.619 64.2517C147.595 64.5685 147.57 64.8854 147.544 65.2118C147.366 67.6061 147.313 69.9635 147.363 72.3633C148.91 72.3633 150.457 72.3633 152.051 72.3633C152.186 67.2178 151.784 62.2332 151.172 57.1289C150.302 57.1289 149.431 57.1289 148.535 57.1289ZM147.363 74.4141C147.32 74.8832 147.297 75.3541 147.282 75.825C147.272 76.1406 147.261 76.4561 147.25 76.7812C147.235 77.3184 147.235 77.3184 147.22 77.8664C147.208 78.2517 147.196 78.6371 147.184 79.0341C146.999 85.1825 146.883 91.333 146.754 97.4827C146.715 99.3347 146.676 101.187 146.636 103.039C146.57 106.149 146.504 109.26 146.438 112.371C146.371 115.54 146.304 118.708 146.237 121.877C146.231 122.169 146.231 122.169 146.225 122.467C146.155 125.754 146.085 129.041 146.015 132.327C145.969 134.511 145.922 136.695 145.876 138.878C145.841 140.577 145.804 142.276 145.768 143.974C145.762 144.298 145.755 144.622 145.748 144.956C145.677 148.274 145.604 151.592 145.52 154.909C145.513 155.182 145.506 155.455 145.499 155.736C145.467 156.989 145.435 158.241 145.401 159.494C145.276 164.239 145.286 168.984 145.312 173.73C143.572 173.73 141.832 173.73 140.039 173.73C140.061 173.371 140.082 173.012 140.105 172.642C140.582 164.72 141.014 156.797 141.388 148.869C141.398 148.667 141.407 148.464 141.417 148.255C141.534 145.779 141.649 143.303 141.764 140.827C141.863 138.688 141.963 136.549 142.064 134.41C142.269 130.036 142.473 125.663 142.676 121.289C141.098 120.5 137.96 121.713 136.324 122.189C132.565 123.476 129.278 125.124 126.269 127.734C125.973 127.952 125.677 128.169 125.372 128.394C120.836 132.235 118.875 138.444 118.359 144.141C118.289 145.033 118.295 145.884 118.359 146.777C118.389 147.234 118.389 147.234 118.42 147.701C118.711 150.746 119.463 153.628 120.296 156.568C121.001 159.119 121.337 161.219 120.556 163.788C120.475 164.063 120.393 164.338 120.309 164.622C120.246 164.824 120.182 165.026 120.117 165.234C120.365 165.302 120.613 165.37 120.868 165.439C124.147 166.382 125.988 167.199 127.868 170.097C129.09 172.791 129.354 175.508 129.327 178.436C129.325 178.781 129.323 179.126 129.321 179.481C129.199 186.013 127.335 192.89 122.789 197.762C120.843 199.572 118.568 200.152 116.015 200.684C116.058 200.861 116.1 201.039 116.144 201.221C117.055 205.333 116.247 208.344 114.688 212.202C113.821 214.353 113.096 216.485 112.536 218.738C112.447 219.097 112.447 219.097 112.356 219.463C111.046 224.978 111.206 231.135 113.379 236.426C113.572 236.522 113.765 236.619 113.965 236.719C114.651 236.47 115.31 236.203 115.979 235.913C122.582 233.159 130.371 232.704 137.092 235.293C140.467 236.812 141.73 239.323 143.25 242.531C143.751 243.572 144.281 244.596 144.818 245.618C144.913 245.804 145.009 245.99 145.107 246.182C145.594 247.107 145.889 247.552 146.777 248.145C146.916 240.073 146.393 232.797 144.14 225C144.073 224.768 144.006 224.536 143.937 224.296C142.847 220.523 141.737 216.756 140.625 212.988C146.716 212.988 152.806 212.988 159.082 212.988C157.031 220.312 157.031 220.312 156.221 223.183C153.648 232.387 152.407 241.207 153.515 250.781C153.716 250.784 153.917 250.787 154.124 250.79C155.044 250.805 155.964 250.83 156.885 250.854C157.358 250.861 157.358 250.861 157.841 250.867C159.955 250.932 161.753 251.162 163.335 252.67C164.012 253.445 164.5 254.253 164.941 255.176C173.116 252.922 180.565 247.727 184.907 240.358C189.148 232.52 189.166 224.174 186.679 215.806C186.053 213.809 185.285 211.862 184.476 209.932C183.47 207.436 183.186 205.048 183.673 202.386C183.758 201.9 183.758 201.9 183.846 201.403C183.891 201.166 183.937 200.928 183.984 200.684C183.758 200.634 183.531 200.584 183.298 200.533C179.367 199.618 177.022 198.263 174.767 194.823C170.848 188.524 169.47 180.32 171.082 173.088C171.789 170.496 172.852 168.153 175.195 166.699C176.621 165.973 178.04 165.588 179.59 165.234C179.526 164.978 179.526 164.978 179.462 164.717C178.651 161.136 179.049 158.111 180.011 154.596C180.201 153.883 180.389 153.17 180.577 152.457C180.662 152.146 180.746 151.836 180.833 151.516C182.38 145.021 181.562 138.139 178.125 132.422C177.407 131.38 176.63 130.43 175.781 129.492C175.583 129.267 175.385 129.041 175.18 128.809C170.693 123.993 164 121.723 157.617 120.996C157.287 121.987 157.322 122.646 157.376 123.687C157.395 124.067 157.414 124.447 157.433 124.838C157.456 125.26 157.479 125.682 157.501 126.104C157.524 126.548 157.547 126.992 157.569 127.435C157.631 128.643 157.694 129.851 157.758 131.059C157.825 132.327 157.89 133.596 157.955 134.864C158.079 137.274 158.204 139.683 158.33 142.093C158.473 144.811 158.613 147.53 158.753 150.248C158.925 153.571 159.097 156.894 159.27 160.217C159.282 160.452 159.294 160.687 159.307 160.93C159.331 161.393 159.355 161.857 159.379 162.32C159.578 166.124 159.773 169.927 159.961 173.73C158.027 173.73 156.094 173.73 154.101 173.73C154.104 172.791 154.106 171.852 154.108 170.884C154.11 167.678 154.064 164.476 153.998 161.271C153.987 160.702 153.976 160.132 153.965 159.563C153.942 158.348 153.918 157.133 153.893 155.918C153.854 153.974 153.816 152.03 153.779 150.086C153.705 146.286 153.63 142.487 153.554 138.687C153.447 133.246 153.34 127.806 153.234 122.365C153.221 121.7 153.208 121.036 153.195 120.371C153.008 110.805 152.839 101.239 152.708 91.6724C152.703 91.3288 152.699 90.9852 152.694 90.6313C152.687 90.1353 152.687 90.1353 152.68 89.6292C152.618 85.2338 152.524 80.839 152.426 76.4442C152.42 76.1379 152.42 76.1379 152.414 75.8254C152.464 74.8913 152.464 74.8913 152.051 74.1211C151.563 74.1092 151.074 74.1086 150.586 74.1211C150.55 80.8591 150.647 87.5946 150.744 94.3317C150.762 95.6181 150.78 96.9045 150.798 98.1908C150.841 101.26 150.885 104.328 150.929 107.397C150.968 110.137 151.007 112.877 151.045 115.617C151.313 134.99 151.649 154.36 152.051 173.73C150.407 173.73 148.764 173.73 147.07 173.73C147.115 173.054 147.16 172.377 147.206 171.68C147.41 168.362 147.463 165.041 147.526 161.719C147.54 161.023 147.554 160.327 147.568 159.632C147.598 158.142 147.628 156.652 147.656 155.162C147.698 152.996 147.742 150.83 147.785 148.664C147.856 145.132 147.926 141.601 147.995 138.069C148.062 134.669 148.129 131.27 148.196 127.87C148.202 127.557 148.202 127.557 148.209 127.238C148.254 124.946 148.3 122.655 148.345 120.363C148.349 120.16 148.353 119.957 148.358 119.747C148.374 118.933 148.39 118.119 148.406 117.305C148.457 114.762 148.507 112.219 148.557 109.676C148.694 102.673 148.832 95.6702 149.032 88.6686C149.123 85.4423 149.158 82.2191 149.139 78.9917C149.138 78.5061 149.136 78.0205 149.135 77.5349C149.132 76.3969 149.127 75.259 149.121 74.1211C148.157 74.0136 148.157 74.0136 147.363 74.4141Z" fill="black"/>
<path d="M163.769 180.762C166.116 182.327 167.4 184.458 167.994 187.188C168.685 190.739 168.918 194.336 169.094 197.944C169.269 201.086 169.596 204.327 171.679 206.836C172.554 207.273 173.351 207.163 174.316 207.129C174.509 207.032 174.702 206.936 174.902 206.836C175.093 206.243 175.093 206.243 175.195 205.664C174.932 205.637 174.932 205.637 174.664 205.609C174.023 205.371 174.023 205.371 173.473 204.712C173.144 203.906 173.144 203.906 173.29 203.137C173.845 202.259 174.219 201.931 175.195 201.563C176.376 201.726 177.014 201.888 177.813 202.789C178.309 204.103 178.348 205.158 177.776 206.451C176.836 207.652 175.789 208.466 174.316 208.887C172.393 209.065 171.089 208.542 169.463 207.55C166.67 204.756 165.283 200.241 165.214 196.37C165.221 195.985 165.229 195.601 165.236 195.205C165.241 194.774 165.246 194.343 165.251 193.912C165.26 193.244 165.27 192.576 165.284 191.908C165.348 188.602 165.16 185.59 163.769 182.52C163.247 182.209 163.247 182.209 162.634 182.117C162.336 182.05 162.336 182.05 162.032 181.982C161.371 181.929 160.883 182.032 160.253 182.227C160.156 182.807 160.06 183.387 159.96 183.984C160.148 184.075 160.335 184.166 160.528 184.259C161.132 184.57 161.132 184.57 161.425 184.863C161.56 186.415 161.56 186.415 161.077 187.152C160.389 187.603 159.903 187.734 159.081 187.793C158.233 187.576 157.773 187.408 157.232 186.713C156.825 185.345 156.845 184.341 157.507 183.069C159.226 180.988 161.006 179.841 163.769 180.762Z" fill="black"/>
<path d="M139.745 180.762C141.379 181.595 142.293 182.698 142.95 184.406C142.977 185.515 142.616 186.244 142.089 187.207C141.353 187.817 140.98 187.795 140.02 187.775C139.159 187.5 139.159 187.5 138.592 186.841C138.229 185.902 138.173 185.496 138.573 184.571C139.324 184.186 139.324 184.186 140.038 183.985C139.55 182.682 139.55 182.682 138.464 181.916C137.423 181.941 137.029 182.137 136.23 182.813C134.991 184.769 134.724 186.441 134.767 188.734C134.772 189.219 134.777 189.704 134.782 190.189C134.791 190.946 134.801 191.703 134.815 192.46C134.9 197.402 134.533 202.611 131.383 206.7C130.124 207.966 128.565 208.823 126.781 208.96C125.375 208.867 124.228 208.584 123.188 207.579C122.01 206.194 121.781 205.425 121.874 203.614C122.125 202.841 122.314 202.546 122.973 202.076C123.844 201.785 124.477 201.742 125.39 201.856C126.292 202.473 126.522 202.835 126.745 203.907C126.562 204.786 126.562 204.786 125.683 205.481C125.393 205.639 125.103 205.796 124.804 205.957C124.991 206.553 124.991 206.553 125.39 207.129C126.304 207.485 126.827 207.428 127.789 207.221C128.744 206.775 128.795 206.592 129.198 205.665C129.295 205.473 129.392 205.282 129.491 205.084C131.046 201.653 130.975 197.723 131.135 194.02C131.329 189.837 131.635 184.531 134.946 181.5C136.559 180.389 137.896 180.357 139.745 180.762Z" fill="black"/>
<path d="M140.039 193.066C146.42 193.066 152.801 193.066 159.375 193.066C158.181 196.05 158.181 196.05 157.031 197.168C155.927 197.553 154.878 197.538 153.717 197.518C153.399 197.521 153.08 197.523 152.752 197.526C152.08 197.528 151.408 197.523 150.737 197.512C149.71 197.498 148.686 197.512 147.659 197.528C147.005 197.527 146.351 197.523 145.697 197.518C145.391 197.523 145.085 197.529 144.77 197.534C142.698 197.474 142.698 197.474 141.808 196.609C141.027 195.474 140.553 194.351 140.039 193.066Z" fill="black"/>
</svg>
