<svg width="300" height="300" viewBox="0 0 300 300" fill="none" xmlns="http://www.w3.org/2000/svg">
<path d="M87.5977 60.0582C88.2334 60.3918 88.8146 60.7655 89.4047 61.174C89.9696 61.5735 89.9696 61.5735 90.8203 61.816C91.0922 61.665 91.3641 61.5139 91.6443 61.3583C92.5781 60.9371 92.5781 60.9371 93.4204 61.047C95.476 62.1159 97.2306 63.7583 98.1445 65.9176C98.309 67.3277 98.2014 67.8547 97.5586 69.1403C98.1387 69.817 98.7188 70.4938 99.3164 71.191C100.187 70.5143 101.057 69.8375 101.953 69.1403C101.663 68.5602 101.663 68.5602 101.367 67.9684C101.426 67.1957 101.591 66.8735 102.109 66.2952C105.917 63.0765 105.917 63.0765 107.538 62.878C109.188 63.6503 110.316 64.9985 111.328 66.4852C111.724 67.6991 111.859 68.7555 111.621 70.0192C111.104 70.8705 110.446 71.4744 109.698 72.1249C109.52 72.2995 109.342 72.4742 109.158 72.6542C108.626 73.1366 108.169 73.5188 107.52 73.8278C106.834 73.6405 106.15 73.4454 105.469 73.2418C104.704 73.7526 104.2 74.1658 103.583 74.8165C103.424 74.9729 103.266 75.1292 103.103 75.2903C102.714 75.6759 102.333 76.0695 101.953 76.4645C102.358 77.405 102.81 77.9438 103.601 78.5885C103.786 78.7411 103.971 78.8936 104.162 79.0508C104.303 79.1641 104.444 79.2774 104.59 79.3942C104.816 79.1861 105.042 78.978 105.274 78.7636C105.571 78.4916 105.868 78.2196 106.165 77.9476C106.388 77.7417 106.388 77.7417 106.615 77.5316C107.746 76.4977 107.746 76.4977 108.398 76.1715C108.309 75.8713 108.22 75.571 108.128 75.2617C108.105 74.1207 108.105 74.1207 108.452 73.6313C108.974 73.143 109.514 72.7047 110.083 72.2714C110.273 72.1178 110.462 71.9643 110.658 71.8062C112.887 70.0147 112.887 70.0147 113.91 70.0375C116.149 70.6962 117.211 72.5089 118.359 74.4137C118.801 75.2972 118.804 75.7708 118.652 76.7574C118.044 77.5879 117.311 78.2507 116.547 78.9364C116.349 79.1265 116.152 79.3167 115.949 79.5126C114.829 80.543 114.829 80.543 114.258 80.859C113.472 80.7791 112.912 80.6254 112.207 80.2731C111.687 80.6864 111.168 81.1018 110.651 81.5182C110.217 81.8649 110.217 81.8649 109.775 82.2186C109.101 82.8078 108.602 83.3432 108.105 84.0817C108.277 84.1629 108.448 84.244 108.624 84.3277C111.252 85.6946 113.307 87.9626 115.226 90.1711C116.295 91.3997 117.404 92.5863 118.524 93.7679C118.938 94.2062 119.352 94.6445 119.766 95.0829C119.972 95.301 120.178 95.5191 120.39 95.7439C122.704 98.197 124.998 100.668 127.282 103.148C128.422 104.385 129.57 105.614 130.719 106.842C132.284 108.514 133.829 110.202 135.352 111.914C136.557 111.549 137.646 111.08 138.767 110.517C145.31 107.247 152.852 105.962 159.926 108.286C162.43 109.146 164.629 110.241 166.699 111.914C166.921 112.084 167.143 112.255 167.371 112.431C170.568 115.05 172.211 118.42 173.763 122.138C174.217 123.209 174.697 124.266 175.195 125.317C175.282 125.513 175.369 125.708 175.458 125.91C176.191 127.429 176.937 127.927 178.418 128.613C179.036 128.828 179.036 128.828 179.59 128.961C181.816 129.75 182.894 132.235 183.984 134.179C183.726 134.367 183.468 134.555 183.203 134.748C180.214 136.895 180.214 136.895 178.418 140.039C178.212 143.075 179.251 144.891 181.193 147.164C183.848 149.978 187.258 152.277 191.162 152.765C193.788 152.436 195.947 150.948 197.582 148.893C198.047 148.535 198.047 148.535 198.692 148.557C200.545 149.17 202.502 150.081 203.906 151.464C204.247 152.426 204.258 153.127 204.221 154.141C204.187 155.437 204.567 156.32 205.371 157.324C207.069 158.923 209.404 159.741 211.495 160.704C213.443 161.618 215.135 162.688 216.797 164.062C217.104 164.299 217.104 164.299 217.418 164.54C222.537 168.671 225.064 175.164 225.786 181.511C226.547 189.789 223.155 197.608 217.969 203.906C217.302 204.675 216.624 205.431 215.934 206.179C215.415 206.745 214.923 207.323 214.435 207.916C213.67 208.811 212.838 209.575 211.94 210.335C211.411 210.784 210.891 211.241 210.374 211.704C206.264 215.364 201.689 218.524 196.875 221.191C196.696 221.291 196.516 221.392 196.332 221.495C189.653 225.178 181.732 227.337 174.133 225.439C170.593 224.382 167.25 222.602 164.355 220.312C164.138 220.142 163.92 219.972 163.695 219.797C158.285 215.3 156.077 209.064 154.391 202.456C153.843 200.426 153.325 199.135 151.465 198.046C150.553 197.568 150.032 197.461 148.993 197.442C147.598 197.075 147.303 196.444 146.59 195.24C146.458 195.006 146.327 194.772 146.191 194.531C146.066 194.333 145.941 194.135 145.811 193.931C145.477 193.396 145.477 193.396 145.02 192.48C145.372 191.422 145.677 191.276 146.594 190.686C146.942 190.458 146.942 190.458 147.297 190.226C147.949 189.843 147.949 189.843 148.828 189.55C149.146 189.015 149.146 189.015 149.414 188.379C149.601 188.081 149.601 188.081 149.792 187.778C151.218 185.363 151.26 182.884 150.695 180.17C149.594 176.719 146.717 173.077 143.811 170.929C142.241 170.143 141.078 170.09 139.417 170.599C137.606 171.309 136.184 172.441 134.692 173.659C133.887 174.316 133.887 174.316 133.008 174.902C129.285 171.421 129.285 171.421 129.199 169.244C129.204 168.813 129.204 168.813 129.21 168.374C129.19 166.88 128.563 165.831 127.583 164.738C126.345 163.578 124.939 162.679 123.523 161.755C118.462 158.435 115.242 154.327 113.727 148.407C112.323 141.095 114.135 133.696 118.066 127.441C118.7 126.519 119.351 125.61 120.018 124.711C120.571 123.961 120.992 123.351 121.289 122.461C120.896 121.851 120.501 121.316 120.044 120.758C119.845 120.508 119.845 120.508 119.643 120.253C119.361 119.899 119.078 119.545 118.794 119.193C118.229 118.49 117.674 117.779 117.119 117.068C115.891 115.497 114.649 113.938 113.401 112.383C112.822 111.657 112.248 110.926 111.676 110.195C110.337 108.483 108.983 106.787 107.611 105.102C107.448 104.902 107.285 104.702 107.118 104.496C106.453 103.68 105.788 102.864 105.123 102.049C103.32 99.8189 101.615 97.5147 99.9023 95.2145C99.7645 95.3346 99.6267 95.4547 99.4846 95.5784C99.3022 95.7363 99.1198 95.8941 98.9319 96.0568C98.7517 96.2131 98.5716 96.3695 98.386 96.5305C97.8516 96.9723 97.8516 96.9723 96.9727 97.5582C97.0106 98.0171 97.0106 98.0171 97.0493 98.4852C96.9368 100.134 96.0675 100.722 94.8669 101.77C94.571 102.046 94.571 102.046 94.269 102.327C93.235 103.261 92.5454 103.872 91.1133 104.004C88.9997 103.103 87.6814 101.493 86.4258 99.609C86.2429 98.5725 86.209 97.8789 86.8126 96.986C87.3488 96.3753 87.908 95.7951 88.4766 95.2145C88.8637 94.7773 89.2483 94.3379 89.6301 93.8961C89.9292 93.5543 90.2283 93.2125 90.5273 92.8707C90.7449 92.9191 90.9624 92.9674 91.1865 93.0172C92.0479 93.1986 92.0479 93.1986 93.1641 93.1637C93.8796 92.6538 93.8796 92.6538 94.5557 91.9918C94.7898 91.7743 95.024 91.5568 95.2652 91.3326C95.4419 91.1634 95.6187 90.9943 95.8008 90.8199C95.3674 89.6584 94.8526 88.8348 94.043 87.8903C93.011 88.3484 92.2057 88.9728 91.333 89.6847C91.0717 89.8969 90.8103 90.1092 90.5411 90.3278C90.3432 90.4902 90.1453 90.6526 89.9414 90.8199C90.0169 91.0344 90.0925 91.249 90.1703 91.47C90.2344 92.2848 90.2344 92.2848 89.6942 92.9531C88.9019 93.615 88.1102 94.2757 87.3047 94.9215C87.0175 95.1719 87.0175 95.1719 86.7245 95.4273C85.9102 96.0944 85.3111 96.3789 84.2651 96.5145C82.2692 95.723 80.5811 93.6409 79.6875 91.6988C79.6935 90.5547 79.8807 90.0656 80.5984 89.1697C80.8537 88.9288 81.109 88.6878 81.3721 88.4396C81.6243 88.1971 81.8766 87.9547 82.1365 87.7049C82.8655 87.0514 83.5838 86.4165 84.375 85.8395C85.0873 85.9005 85.4966 86.1073 86.1328 86.4254C86.6733 86.0148 87.2097 85.5987 87.7441 85.1803C88.0432 84.9492 88.3423 84.718 88.6505 84.4799C88.8831 84.2518 89.1158 84.0237 89.3555 83.7887C89.4852 82.6158 89.4852 82.6158 88.7695 81.9576C88.5762 81.7884 88.3828 81.6193 88.1836 81.4449C87.8664 81.59 87.8664 81.59 87.5427 81.7379C86.6802 82.0446 86.1573 82.1699 85.2539 82.0309C84.982 81.7408 84.982 81.7408 84.7046 81.4449C84.1045 80.7461 84.1045 80.7461 83.0933 80.859C82.0693 80.859 81.5461 80.7706 80.7278 80.1552C79.2592 78.6423 78.107 76.8286 77.9297 74.7067C78.0324 74.465 78.1351 74.2233 78.241 73.9742C78.6187 73.2201 78.6187 73.2201 78.1677 72.3995C77.9297 71.484 77.9297 71.484 78.2146 70.9164C78.5851 70.4046 78.9882 69.9169 79.3945 69.4332C78.9111 68.4664 78.4277 67.4996 77.9297 66.5035C83.7087 59.618 83.7087 59.618 87.5977 60.0582ZM86.4258 65.3317C85.5557 66.1051 84.6855 66.8785 83.7891 67.6754C84.0808 68.8424 84.2136 69.0772 84.9976 69.891C87.0697 72.1839 88.4584 74.8011 89.6484 77.6363C90.726 77.1639 91.5616 76.4945 92.4683 75.7504C92.75 75.5211 93.0317 75.2919 93.322 75.0557C94.0852 74.4305 94.0852 74.4305 94.6289 73.5348C94.3921 73.3191 94.1553 73.1035 93.9114 72.8813C93.5951 72.5926 93.2789 72.3038 92.9626 72.015C92.8072 71.8736 92.6518 71.7321 92.4917 71.5864C91.1263 70.3383 89.8097 69.0634 88.6047 67.6571C87.9038 66.8396 87.1919 66.0978 86.4258 65.3317ZM94.3359 76.7574C93.8735 77.2136 93.8735 77.2136 93.4204 77.7828C93.2626 77.9732 93.1047 78.1635 92.942 78.3596C92.822 78.5077 92.7019 78.6557 92.5781 78.8082C92.8925 79.1708 92.8925 79.1708 93.2133 79.5406C96.7233 83.6032 100.071 87.7947 103.418 91.9918C104.201 91.4087 104.982 90.822 105.762 90.234C106.052 90.0165 106.342 89.7989 106.641 89.5748C106.834 89.4056 107.027 89.2364 107.227 89.0621C107.227 88.8688 107.227 88.6754 107.227 88.4762C106.776 88.0144 106.776 88.0144 106.19 87.5389C105.005 86.5308 103.857 85.4931 102.722 84.4296C102.526 84.246 102.329 84.0624 102.127 83.8733C100.241 82.0986 98.4174 80.2641 96.6106 78.4096C96.3985 78.1941 96.1864 77.9786 95.9679 77.7565C95.7798 77.5635 95.5918 77.3706 95.3981 77.1718C94.9534 76.6933 94.9534 76.6933 94.3359 76.7574ZM106.641 91.9918C106.641 93.1632 107.039 93.4015 107.831 94.244C108.194 94.636 108.194 94.636 108.564 95.0359C108.8 95.2882 109.035 95.5405 109.277 95.8004C110.42 97.0713 111.517 98.3719 112.592 99.7006C113.752 101.128 114.969 102.491 116.212 103.846C118.651 106.505 120.981 109.271 123.301 112.033C124.571 113.544 125.849 115.038 127.185 116.491C128.376 117.788 129.493 119.13 130.599 120.499C131.458 121.541 132.361 122.54 133.27 123.54C135.225 125.691 137.1 127.914 138.99 130.123C139.73 130.987 140.47 131.851 141.211 132.714C142.087 133.736 142.963 134.758 143.837 135.78C145.507 137.732 147.184 139.677 148.868 141.616C149.805 142.695 150.735 143.778 151.662 144.865C153.094 146.544 154.554 148.188 156.048 149.812C156.734 150.581 157.378 151.372 158.02 152.179C159.142 153.571 160.355 154.821 161.629 156.072C162.615 157.041 163.547 158.035 164.444 159.087C165.024 159.763 165.623 160.419 166.223 161.078C167.134 162.086 168.007 163.114 168.86 164.172C169.939 165.507 171.073 166.769 172.242 168.024C173.106 168.958 173.924 169.917 174.719 170.91C175.925 172.409 177.214 173.814 178.534 175.211C179.514 176.25 180.444 177.312 181.348 178.418C181.722 178.151 182.093 177.882 182.465 177.612C182.672 177.462 182.879 177.313 183.093 177.159C183.7 176.653 184.123 176.137 184.57 175.488C184.384 175.307 184.384 175.307 184.194 175.122C183.096 174.041 182.061 172.929 181.055 171.763C180.358 170.967 179.646 170.187 178.931 169.409C178.725 169.185 178.725 169.185 178.516 168.957C178.234 168.651 177.952 168.345 177.67 168.039C175.35 165.518 173.046 162.985 170.761 160.433C170.092 159.688 169.422 158.945 168.75 158.203C168.605 158.043 168.46 157.882 168.311 157.717C167.842 157.2 167.371 156.685 166.901 156.17C166.753 156.007 166.605 155.845 166.453 155.677C165.708 154.865 164.975 154.137 164.062 153.515C163.579 153.999 163.096 154.482 162.598 154.98C161.322 154.518 160.612 153.523 159.778 152.508C159.464 152.134 159.15 151.76 158.836 151.387C158.602 151.108 158.602 151.108 158.363 150.824C157.724 150.074 157.059 149.351 156.39 148.626C155.211 147.341 154.107 146.01 153.012 144.653C152.324 143.824 151.609 143.029 150.879 142.236C149.674 140.926 148.544 139.573 147.426 138.188C146.79 137.417 146.132 136.676 145.459 135.937C144.552 134.942 143.686 133.927 142.841 132.879C141.709 131.481 140.515 130.156 139.297 128.833C138.591 128.045 137.92 127.239 137.256 126.416C136.116 125.004 134.917 123.661 133.69 122.326C132.481 121.007 131.313 119.656 130.153 118.295C129.853 117.944 129.554 117.593 129.254 117.242C129.103 117.065 128.951 116.887 128.795 116.704C127.856 115.608 126.899 114.533 125.922 113.47C124.743 112.186 123.64 110.856 122.546 109.5C121.609 108.37 120.62 107.293 119.627 106.212C118.415 104.89 117.244 103.535 116.08 102.171C115.778 101.818 115.475 101.464 115.173 101.11C115.021 100.932 114.869 100.754 114.712 100.57C113.824 99.5339 112.924 98.5121 112.006 97.5033C110.846 96.2272 109.755 94.903 108.675 93.5585C107.994 92.7331 107.994 92.7331 107.227 91.9918C107.033 91.9918 106.84 91.9918 106.641 91.9918ZM105.176 93.1637C105.176 94.5951 105.679 95.0555 106.586 96.0568C106.885 96.3988 107.184 96.7413 107.483 97.0844C107.636 97.2601 107.79 97.4358 107.948 97.6169C108.644 98.431 109.3 99.2746 109.955 100.122C111.168 101.682 112.411 103.214 113.672 104.736C115.047 106.396 116.396 108.072 117.72 109.773C118.789 111.141 119.889 112.481 120.996 113.818C122.377 115.485 123.734 117.168 125.064 118.875C126.085 120.182 127.126 121.47 128.174 122.754C129.36 124.207 130.535 125.669 131.689 127.148C133.465 129.42 135.286 131.653 137.109 133.886C137.757 134.679 138.404 135.473 139.05 136.267C139.208 136.461 139.367 136.655 139.53 136.855C140.556 138.119 141.565 139.395 142.566 140.68C143.599 142.006 144.659 143.302 145.752 144.58C146.985 146.021 148.17 147.493 149.335 148.99C150.538 150.534 151.774 152.048 153.015 153.561C153.988 154.755 154.917 155.969 155.823 157.214C156.653 158.338 157.46 159.217 158.553 160.076C159.502 160.92 160.249 161.941 161.039 162.931C161.682 163.724 162.349 164.481 163.037 165.234C163.944 166.229 164.81 167.244 165.656 168.292C166.557 169.406 167.487 170.478 168.457 171.533C169.638 172.817 170.75 174.14 171.847 175.496C172.682 176.518 173.533 177.524 174.39 178.527C174.535 178.698 174.68 178.869 174.83 179.045C175.694 180.053 176.588 181.006 177.539 181.933C178.506 181.16 179.473 180.386 180.469 179.589C180.005 178.662 179.707 178.161 179.041 177.429C178.047 176.319 177.077 175.193 176.111 174.06C174.85 172.584 173.569 171.129 172.266 169.69C171.093 168.394 169.948 167.074 168.813 165.744C167.254 163.919 165.688 162.105 164.073 160.329C163.322 159.496 162.593 158.646 161.868 157.791C161.394 157.255 161.394 157.255 160.547 156.738C160.269 156.98 159.991 157.221 159.705 157.47C158.862 158.203 158.862 158.203 158.203 158.203C157.716 157.633 157.262 157.061 156.812 156.463C156.52 156.084 156.228 155.705 155.935 155.327C155.78 155.126 155.625 154.926 155.465 154.719C154.65 153.68 153.809 152.664 152.966 151.648C151.598 149.993 150.235 148.335 148.883 146.667C147.842 145.383 146.8 144.1 145.752 142.822C144.37 141.135 142.995 139.442 141.621 137.749C140.964 136.94 140.306 136.132 139.648 135.325C137.996 133.299 136.36 131.262 134.752 129.201C133.897 128.109 133.021 127.038 132.129 125.976C130.957 124.582 129.826 123.162 128.706 121.726C127.508 120.193 126.282 118.685 125.051 117.178C124.014 115.905 122.994 114.62 121.985 113.324C120.798 111.8 119.569 110.319 118.315 108.851C117.391 107.768 116.507 106.661 115.64 105.531C114.866 104.533 114.061 103.561 113.259 102.584C106.807 94.731 106.807 94.731 105.762 93.1637C105.568 93.1637 105.375 93.1637 105.176 93.1637ZM108.398 90.527C108.274 91.6803 108.274 91.6803 108.903 92.3077C109.129 92.5176 109.356 92.7276 109.589 92.944C110.419 93.738 111.224 94.5229 111.969 95.3976C112.98 96.5761 114.038 97.7075 115.1 98.84C116.475 100.307 117.836 101.782 119.175 103.281C119.935 104.126 120.703 104.962 121.472 105.798C122.333 106.734 123.188 107.673 124.017 108.636C125.206 110.009 126.458 111.324 127.7 112.648C128.727 113.746 129.735 114.855 130.717 115.995C131.888 117.327 133.107 118.619 134.313 119.92C135.984 121.726 137.646 123.54 139.288 125.372C140.594 126.826 141.92 128.262 143.247 129.697C145.053 131.649 146.854 133.607 148.627 135.589C149.914 137.024 151.23 138.432 152.547 139.84C154.571 142.003 156.578 144.182 158.551 146.392C162.57 150.871 162.57 150.871 166.937 155.001C167.981 155.921 168.949 156.915 169.922 157.91C170.115 158.103 170.309 158.296 170.508 158.496C170.519 158.204 170.519 158.204 170.531 157.906C170.634 156.299 170.726 155.241 171.973 154.101C172.84 153.451 173.752 153.37 174.827 153.41C179.274 154.118 182.71 158.99 185.587 162.112C188.037 164.882 188.037 164.882 191.364 166.278C192.24 166.175 192.24 166.175 192.902 165.472C193.44 164.684 193.44 164.684 193.286 163.824C193.214 163.613 193.141 163.401 193.066 163.183C192.568 163.192 192.568 163.192 192.059 163.202C191.016 163.183 191.016 163.183 190.723 162.89C190.934 160.921 190.934 160.921 191.309 160.546C192.133 160.455 192.133 160.455 193.066 160.546C193.741 161.093 194.144 161.53 194.531 162.304C194.649 163.838 194.482 164.81 193.652 166.113C192.786 167.079 191.783 167.204 190.538 167.304C187.44 167.217 184.861 164.68 182.812 162.597C181.657 161.338 180.556 160.03 179.45 158.726C178.816 157.982 178.171 157.249 177.521 156.518C177.226 156.185 177.226 156.185 176.925 155.845C175.92 154.802 175.92 154.802 174.609 154.267C173.561 154.265 173.009 154.288 172.119 154.889C171.608 155.677 171.577 156.108 171.68 157.031C172.26 157.128 172.84 157.224 173.438 157.324C173.534 157.807 173.631 158.291 173.73 158.789C173.054 159.079 172.377 159.369 171.68 159.668C172.827 161.337 174.13 162.75 175.588 164.154C176.389 164.963 177.131 165.807 177.876 166.668C178.764 167.679 179.69 168.652 180.615 169.629C181.915 171 183.186 172.385 184.406 173.829C184.891 174.383 184.891 174.383 185.742 174.902C186.005 174.621 186.005 174.621 186.273 174.334C186.914 173.73 186.914 173.73 187.793 173.437C187.953 173.966 187.953 173.966 188.116 174.506C188.76 176.433 189.651 178.242 190.54 180.066C190.629 180.251 190.719 180.437 190.812 180.628C194.245 187.693 198.199 194.502 202.944 200.77C203.314 201.261 203.681 201.755 204.046 202.25C205.217 203.83 206.41 205.364 207.715 206.836C213.96 202.496 219.062 195.301 220.551 187.811C221.565 182.098 220.573 176.551 217.273 171.734C214.544 167.915 211.087 165.798 206.873 163.879C203.41 162.289 201.224 160.489 199.794 156.843C199.586 156.225 199.392 155.609 199.219 154.98C198.167 155.179 197.361 155.623 196.436 156.152C193.737 157.694 190.356 157.836 187.354 157.058C186.487 156.706 185.681 156.311 184.863 155.859C184.625 155.739 184.387 155.618 184.142 155.494C179.905 153.183 175.721 149.308 174.023 144.726C173.137 141.606 173.356 138.807 174.884 135.937C175.423 135.011 176.003 134.147 176.66 133.3C176.451 133.204 176.242 133.108 176.027 133.009C172.37 131.192 171.18 128.613 169.639 125.015C167.354 119.681 164.842 115.588 159.259 113.256C153.27 111.21 147.233 112.073 141.614 114.77C140.791 115.176 139.975 115.593 139.16 116.015C140.067 117.259 140.95 118.469 142.072 119.531C142.831 120.254 143.533 121.005 144.22 121.797C145.308 123.051 146.44 124.259 147.583 125.463C149.201 127.175 150.804 128.898 152.392 130.639C153.386 131.724 154.394 132.796 155.402 133.868C157.464 136.064 159.511 138.274 161.55 140.492C164.123 143.291 166.726 146.063 169.336 148.828C168.395 149.807 167.399 150.577 166.292 151.357C166.136 151.489 165.981 151.621 165.82 151.757C165.82 151.951 165.82 152.144 165.82 152.343C165.627 152.343 165.434 152.343 165.234 152.343C165.163 152.176 165.092 152.008 165.018 151.835C164.582 151.053 164.068 150.545 163.422 149.926C162.376 148.906 161.404 147.855 160.453 146.747C159.817 146.028 159.136 145.362 158.45 144.69C157.929 144.159 157.441 143.613 156.956 143.048C155.899 141.833 154.805 140.659 153.699 139.489C152.275 137.978 150.866 136.457 149.484 134.908C148.687 134.023 147.879 133.149 147.07 132.275C146.054 131.178 145.045 130.076 144.049 128.961C142.689 127.442 141.291 125.958 139.89 124.477C138.812 123.334 137.765 122.169 136.734 120.983C135.927 120.065 135.09 119.176 134.253 118.286C133.894 117.902 133.535 117.519 133.176 117.136C133 116.947 132.824 116.759 132.642 116.565C131.038 114.847 129.439 113.123 127.899 111.346C126.566 109.809 125.173 108.327 123.79 106.834C122.695 105.65 121.607 104.459 120.518 103.269C120.11 102.823 119.701 102.378 119.292 101.933C118.071 100.603 116.852 99.2713 115.649 97.9244C114.251 96.3631 112.812 94.8403 111.369 93.3196C111.187 93.1269 111.005 92.9342 110.818 92.7357C110.655 92.5641 110.492 92.3925 110.325 92.2157C109.863 91.6988 109.863 91.6988 109.401 91.0481C109.263 90.8761 109.126 90.7042 108.984 90.527C108.791 90.527 108.598 90.527 108.398 90.527ZM124.327 127.321C121.614 130.615 119.65 134.419 118.652 138.574C118.596 138.789 118.541 139.004 118.483 139.226C117.987 142.487 117.96 146.348 119.238 149.414C119.353 149.697 119.467 149.981 119.585 150.273C121.367 154.236 124.26 156.505 127.819 158.758C131.032 160.833 133.238 163.109 134.064 166.935C134.102 167.147 134.14 167.359 134.18 167.578C134.635 167.361 134.635 167.361 135.1 167.139C135.501 166.95 135.902 166.76 136.304 166.571C136.503 166.475 136.703 166.38 136.909 166.282C137.104 166.19 137.298 166.099 137.498 166.004C137.765 165.878 137.765 165.878 138.038 165.748C140.092 164.9 142.177 165.091 144.247 165.773C148.871 167.808 152.689 172.474 154.669 177.026C156.134 180.89 156.375 184.72 154.98 188.671C154.554 189.595 154.066 190.453 153.516 191.308C153.399 191.491 153.281 191.673 153.161 191.861C152.894 192.267 152.62 192.667 152.344 193.066C152.528 193.141 152.712 193.216 152.902 193.294C155.866 194.619 157.57 196.564 158.731 199.583C159.091 200.712 159.394 201.846 159.689 202.993C161.342 209.402 164.114 214.747 170.016 218.253C175.098 220.931 180.448 221.82 186.072 220.404C186.748 220.191 187.42 219.966 188.086 219.726C188.381 219.62 188.677 219.514 188.981 219.405C194.01 217.437 198.416 214.426 202.734 211.23C201.835 209.676 200.645 208.525 199.365 207.274C198.766 206.675 198.209 206.072 197.662 205.426C195.646 203.075 193.397 200.866 191.035 198.864C190.417 198.329 189.821 197.774 189.224 197.215C187.184 195.309 185.033 193.584 182.812 191.894C182.622 191.749 182.431 191.603 182.235 191.453C178.237 187.853 178.237 187.853 173.73 185.742C173.872 185.583 174.013 185.424 174.158 185.26C174.344 185.05 174.529 184.841 174.719 184.625C174.903 184.418 175.086 184.21 175.275 183.997C175.822 183.372 175.822 183.372 176.367 182.519C176.172 182.288 175.977 182.058 175.776 181.82C175.647 181.668 175.518 181.516 175.385 181.359C175.096 181.016 174.806 180.674 174.516 180.332C173.789 179.473 173.062 178.614 172.337 177.754C170.518 175.6 168.687 173.457 166.85 171.318C165.97 170.293 165.091 169.267 164.212 168.24C163.463 167.366 162.713 166.493 161.96 165.622C160.363 163.772 158.793 161.915 157.324 159.961C156.033 160.811 154.771 161.694 153.516 162.597C153.436 162.427 153.357 162.257 153.275 162.082C152.929 161.424 152.545 160.878 152.089 160.291C151.839 159.969 151.839 159.969 151.584 159.641C151.405 159.414 151.227 159.187 151.044 158.953C150.86 158.718 150.676 158.483 150.487 158.24C149.273 156.695 148.028 155.185 146.747 153.695C145.734 152.511 144.782 151.287 143.841 150.044C142.808 148.689 141.731 147.374 140.643 146.063C138.841 143.888 137.086 141.682 135.352 139.453C133.808 137.471 132.262 135.497 130.646 133.575C128.952 131.559 127.293 129.491 125.783 127.331C125.654 127.174 125.524 127.017 125.391 126.855C124.763 126.787 124.763 126.787 124.327 127.321Z" fill="black"/>
<path d="M108.691 92.8711C109.814 92.907 110.349 93.2757 111.104 94.051C111.45 94.4298 111.794 94.8119 112.134 95.1965C112.316 95.3968 112.497 95.5971 112.685 95.8035C113.212 96.3858 113.735 96.9717 114.258 97.5586C114.709 98.0591 115.161 98.5596 115.613 99.0601C115.816 99.2874 116.019 99.5148 116.228 99.749C117.029 100.637 117.84 101.515 118.652 102.393C120.344 104.22 122.011 106.069 123.672 107.925C125.067 109.48 126.478 111.02 127.897 112.553C128.999 113.745 130.087 114.948 131.171 116.156C132.457 117.584 133.759 118.996 135.059 120.41C138.094 123.714 138.094 123.714 139.581 125.372C140.887 126.827 142.213 128.262 143.54 129.697C145.346 131.65 147.147 133.607 148.92 135.59C150.207 137.025 151.523 138.432 152.84 139.84C154.864 142.004 156.871 144.182 158.844 146.393C160.086 147.774 161.348 149.137 162.616 150.494C162.81 150.703 163.003 150.912 163.203 151.127C164.329 152.328 165.493 153.438 166.743 154.509C167.497 155.165 168.195 155.862 168.896 156.573C169.147 156.827 169.398 157.08 169.656 157.341C169.841 157.529 170.025 157.717 170.215 157.91C170.248 157.618 170.248 157.618 170.281 157.321C170.635 154.944 170.635 154.944 171.68 154.083C172.99 153.237 173.936 153.006 175.488 153.223C179.527 154.49 182.518 158.476 185.29 161.485C187.868 164.466 187.868 164.466 191.382 165.967C192.211 165.891 192.211 165.891 192.737 165.308C193.154 164.597 193.154 164.597 193.066 163.477C192.74 163.489 192.414 163.501 192.078 163.513C191.016 163.477 191.016 163.477 190.43 162.891C190.565 160.998 190.565 160.998 191.309 160.254C192.133 160.126 192.133 160.126 193.066 160.254C193.82 160.89 194.382 161.42 194.824 162.305C194.942 163.841 194.783 164.813 193.945 166.113C192.924 167.225 191.989 167.506 190.528 167.608C187.111 167.459 184.348 164.488 182.13 162.181C180.984 160.922 179.902 159.625 178.839 158.295C177.056 155.932 177.056 155.932 174.559 154.533C173.694 154.494 173.027 154.58 172.284 155.035C171.9 155.691 171.781 156.282 171.68 157.031C171.958 157.013 172.236 156.995 172.522 156.976C172.824 156.994 173.126 157.013 173.438 157.031C174.023 157.91 174.023 157.91 174.023 158.496C173.582 159.379 172.842 159.554 171.973 159.961C172.152 160.151 172.152 160.151 172.334 160.345C174.346 162.481 176.354 164.618 178.307 166.808C179.223 167.82 180.158 168.816 181.091 169.812C181.763 170.532 182.435 171.252 183.105 171.973C183.343 172.227 183.58 172.482 183.824 172.744C184.01 172.949 184.196 173.153 184.387 173.364C184.541 173.532 184.694 173.7 184.852 173.872C185.156 174.316 185.156 174.316 185.156 175.195C185.06 175.485 184.963 175.775 184.863 176.074C184.063 175.674 183.623 175.035 183.055 174.36C182.246 173.409 181.406 172.487 180.569 171.561C179.917 170.839 179.268 170.115 178.619 169.391C177.585 168.241 176.539 167.102 175.488 165.967C173.797 164.139 172.13 162.29 170.469 160.435C169.183 159.001 167.89 157.573 166.589 156.152C166.439 155.987 166.289 155.822 166.135 155.651C165.474 154.932 164.879 154.353 164.062 153.809C163.579 154.292 163.096 154.775 162.598 155.273C161.544 154.835 160.948 154.24 160.199 153.387C159.967 153.124 159.735 152.86 159.496 152.589C158.827 151.802 158.174 151.005 157.526 150.201C156.526 148.965 155.481 147.791 154.395 146.631C153.076 145.223 151.837 143.774 150.628 142.27C150 141.504 149.348 140.77 148.682 140.039C147.534 138.779 146.458 137.473 145.386 136.148C144.538 135.123 143.644 134.145 142.748 133.162C142.072 132.401 141.429 131.621 140.79 130.829C139.658 129.429 138.463 128.104 137.244 126.78C136.55 126.006 135.893 125.213 135.242 124.402C134.109 122.997 132.905 121.679 131.672 120.362C130.529 119.135 129.471 117.855 128.421 116.547C127.637 115.606 126.813 114.712 125.977 113.818C124.665 112.418 123.434 110.976 122.232 109.48C121.305 108.355 120.32 107.286 119.334 106.213C118.122 104.891 116.951 103.535 115.787 102.172C115.485 101.818 115.183 101.464 114.88 101.111C114.653 100.845 114.653 100.845 114.421 100.573C113.513 99.5133 112.594 98.4658 111.658 97.4304C111.45 97.2004 111.243 96.9704 111.029 96.7335C110.654 96.3199 110.277 95.9085 109.896 95.4998C108.691 94.1711 108.691 94.1711 108.691 92.8711Z" fill="black"/>
<path d="M108.691 92.8711C109.814 92.907 110.349 93.2757 111.104 94.051C111.45 94.4298 111.794 94.8119 112.134 95.1965C112.316 95.3968 112.497 95.5971 112.685 95.8035C113.212 96.3858 113.735 96.9717 114.258 97.5586C114.709 98.0591 115.161 98.5596 115.613 99.0601C115.816 99.2874 116.019 99.5148 116.228 99.749C117.029 100.637 117.84 101.515 118.652 102.393C120.344 104.22 122.011 106.069 123.672 107.925C125.067 109.48 126.478 111.02 127.897 112.553C128.999 113.745 130.087 114.948 131.171 116.156C132.457 117.584 133.759 118.996 135.059 120.41C137.023 122.548 138.98 124.693 140.918 126.855C140.435 127.242 139.951 127.629 139.453 128.027C139.356 127.931 139.26 127.834 139.16 127.734C138.967 127.928 138.773 128.121 138.574 128.32C138.365 128.075 138.155 127.83 137.939 127.578C133.881 122.81 133.881 122.81 129.712 118.14C128.778 117.122 127.887 116.084 127.02 115.009C125.948 113.68 124.82 112.424 123.657 111.175C122.787 110.235 121.963 109.27 121.161 108.27C120.175 107.044 119.141 105.884 118.066 104.736C116.761 103.343 115.538 101.908 114.342 100.418C113.591 99.5113 112.805 98.6432 112.006 97.7783C111.869 97.6301 111.732 97.4818 111.591 97.3291C111.014 96.7035 110.436 96.0792 109.854 95.4575C108.691 94.1741 108.691 94.1741 108.691 92.8711Z" fill="black"/>
<path d="M160.254 164.941C161.108 165.313 161.563 165.614 162.122 166.351C162.377 167.245 162.263 167.862 162.012 168.75C161.133 169.336 161.133 169.336 160.383 169.263C159.668 169.043 159.668 169.043 159.082 168.457C159.192 167.542 159.192 167.542 159.375 166.699C158.854 166.446 158.854 166.446 158.204 166.406C157.466 166.777 157.466 166.777 157.032 167.578C156.764 169.737 157.845 171.474 159.082 173.145C159.787 173.994 160.518 174.818 161.246 175.646C163.74 178.517 166.084 181.803 166.535 185.669C166.318 187.283 165.841 188.33 164.74 189.533C163.562 190.266 162.778 190.433 161.426 190.137C160.327 189.546 159.775 189.125 159.082 188.086C159.137 187.042 159.137 187.042 159.375 186.035C160.254 185.449 160.254 185.449 161.005 185.523C161.719 185.742 161.719 185.742 162.305 186.328C162.342 187.39 162.342 187.39 162.305 188.379C163.16 188.452 163.16 188.452 164.063 188.379C164.803 187.269 164.779 186.77 164.649 185.449C163.961 183.266 162.282 181.599 160.84 179.883C158.236 176.751 155.558 173.295 155.494 169.061C155.486 168.763 155.478 168.464 155.471 168.156C155.612 166.872 156.101 166.106 157.087 165.289C158.178 164.829 159.086 164.767 160.254 164.941Z" fill="black"/>
</svg>
