<svg width="300" height="300" viewBox="0 0 300 300" fill="none" xmlns="http://www.w3.org/2000/svg">
<path d="M243.456 17.8719C242.756 18.4042 242.063 18.889 241.314 19.3551C237.53 22.09 235.707 27.7925 234.96 32.2274C234.618 34.9439 234.618 34.9439 235.565 37.4093C237.022 38.5567 238.336 39.1355 240.222 39.0481C242.251 38.7682 243.857 37.8544 245.214 36.329C247.118 33.6294 247.118 33.6294 247.558 30.4696C246.834 29.0602 245.932 27.8471 244.647 26.9173C243.444 26.5739 242.657 26.4995 241.406 26.661C240.15 27.8845 239.887 28.7948 239.849 30.5062C239.865 32.5484 240.223 33.9747 241.68 35.4317C242.367 35.7856 242.986 35.93 243.749 36.036C243.421 37.0219 243.323 37.0969 242.449 37.5558C241.034 38.2137 239.72 38.3416 238.183 38.0868C236.854 37.4344 236.195 36.7665 235.546 35.45C235.145 31.0011 237.333 25.7038 240.031 22.2893C242.408 19.5886 242.408 19.5886 243.987 19.0621C245.23 19.0377 246.025 19.4604 246.972 20.2157C249.258 22.756 249.24 26.5748 249.071 29.8108C248.65 35.5778 246.87 42.308 243.163 46.8758C241.482 46.384 240.173 45.5545 238.712 44.6099C237.93 44.151 237.93 44.151 237.228 44.4268C236.55 44.9559 236.222 45.5252 235.839 46.2899C235.839 46.4832 235.839 46.6766 235.839 46.8758C236.341 47.2644 236.341 47.2644 236.993 47.638C237.231 47.7815 237.469 47.925 237.714 48.0729C238.091 48.2961 238.091 48.2961 238.476 48.5238C238.853 48.7504 238.853 48.7504 239.238 48.9815C239.862 49.3558 240.487 49.728 241.113 50.0985C241.016 50.9686 240.919 51.8387 240.82 52.7352C239.637 52.2695 238.471 51.7736 237.304 51.2704C237.225 51.5362 237.147 51.8021 237.066 52.076C236.734 52.9841 236.492 53.5014 235.839 54.2C235.09 54.4655 235.09 54.4656 234.246 54.6395C232.947 54.9082 232.319 55.2424 231.445 56.2508C229.935 55.6995 228.634 54.877 227.268 54.0421C226.487 53.5452 226.487 53.5452 225.585 53.6141C225.199 54.4842 224.812 55.3543 224.413 56.2508C226.734 57.846 226.734 57.846 229.101 59.4735C229.004 60.2469 228.908 61.0204 228.808 61.8172C228.034 61.6239 227.261 61.4305 226.464 61.2313C226.293 61.6091 226.293 61.6091 226.119 61.9946C224.403 65.6192 222.276 69.3312 218.554 71.1922C216.466 71.3976 216.466 71.3976 215.368 70.5147C214.159 68.9864 214.159 68.9864 214.159 67.9696C213.966 67.9696 213.773 67.9696 213.574 67.9696C213.505 68.1671 213.437 68.3646 213.366 68.5681C212.894 69.6494 212.266 70.5978 211.614 71.5768C208.579 76.2056 205.681 80.9204 202.812 85.6533C201.593 87.6606 200.356 89.6555 199.108 91.6451C195.883 96.7912 192.691 101.957 189.58 107.174C188.989 108.163 188.394 109.15 187.796 110.135C187.489 110.639 187.183 111.145 186.877 111.65C186.481 112.303 186.084 112.956 185.686 113.608C185.417 114.052 185.417 114.052 185.143 114.506C184.983 114.769 184.823 115.033 184.658 115.304C184.31 115.954 184.069 116.457 183.984 117.188C184.48 117.886 184.48 117.886 185.211 118.58C191.871 125.515 195.579 133.408 195.513 143.044C195.353 150.186 192.545 156.26 188.085 161.72C187.901 161.949 187.717 162.178 187.528 162.414C187.144 162.88 186.739 163.328 186.327 163.77C186.134 163.77 185.941 163.77 185.742 163.77C185.742 163.964 185.742 164.157 185.742 164.356C185.332 164.759 185.332 164.759 184.753 165.235C183.765 166.073 182.842 166.949 181.933 167.872C181.073 168.743 180.207 169.584 179.278 170.38C175.451 173.642 175.451 173.642 173.437 178.126C173.298 180.174 173.503 182.005 174.023 183.985C173.539 184.372 173.056 184.759 172.558 185.157C172.416 185.023 172.274 184.888 172.128 184.75C169.583 182.42 167.419 181.528 163.957 181.56C162.44 181.676 161.288 182.093 159.96 182.813C159.752 182.924 159.543 183.035 159.329 183.149C151.994 187.547 147.227 196.822 145.019 204.786C143.875 209.381 143.443 214.268 145.815 218.573C147.36 220.913 149.032 222.507 151.828 223.086C152.137 223.146 152.137 223.146 152.453 223.206C153.515 223.536 153.515 223.536 154.101 224.415C154.394 225.294 154.394 225.294 154.394 225.88C154.064 225.949 154.064 225.949 153.728 226.021C150.191 226.827 147.249 228.067 145.147 231.117C143.158 234.441 142.393 238.302 141.555 242.044C139.861 249.561 138.021 257.211 132.714 263.087C132.524 263.322 132.334 263.557 132.137 263.799C128.695 267.922 123.813 270.725 118.816 272.553C118.545 272.655 118.545 272.655 118.267 272.758C114.527 274.044 110.693 274.383 106.768 274.348C106.445 274.346 106.445 274.346 106.115 274.345C93.1506 274.259 81.2002 268.926 70.5499 261.86C70.3029 261.697 70.3029 261.697 70.0509 261.53C66.9508 259.47 64.1127 257.17 61.366 254.662C60.8859 254.225 60.4014 253.793 59.9126 253.366C52.3111 246.702 46.003 237.024 45.1165 226.759C44.6126 217.75 47.2839 208.968 53.3197 202.149C55.7235 199.534 58.314 197.211 61.1244 195.04C67.1446 190.811 67.1446 190.811 70.3118 184.571C70.4482 182.765 70.083 181.061 69.7259 179.298C70.1309 178.993 70.5408 178.695 70.9527 178.4C71.1804 178.234 71.4082 178.067 71.6428 177.896C72.3626 177.54 72.3626 177.54 73.142 177.583C73.9923 177.893 74.3128 178.394 74.8529 179.096C76.2897 180.713 78.4431 181.86 80.5658 182.227C85.156 182.459 88.8613 179.898 92.1319 176.975C92.8775 176.296 93.6079 175.602 94.3353 174.903C94.6144 174.636 94.8935 174.369 95.181 174.094C96.9971 172.319 98.6306 170.457 100.195 168.458C100.433 168.159 100.671 167.86 100.917 167.553C103.272 164.576 105.337 161.479 107.061 158.094C107.158 157.906 107.255 157.718 107.354 157.524C108.704 154.788 109.073 152.187 108.116 149.249C107.457 147.704 106.549 146.756 105.084 145.954C103.856 145.559 102.632 145.264 101.367 145.02C101.879 143.336 101.879 143.336 102.538 142.677C102.987 142.587 103.44 142.516 103.893 142.457C106.194 142.035 107.625 140.716 108.984 138.868C109.355 138.225 109.699 137.591 110.027 136.927C110.126 136.729 110.225 136.532 110.326 136.328C111.281 134.364 112.09 132.344 112.902 130.317C116.779 120.658 116.779 120.658 119.824 116.602C120.112 116.212 120.112 116.212 120.407 115.813C121.473 114.424 122.584 113.217 123.933 112.101C124.307 111.791 124.672 111.468 125.025 111.133C129.716 106.706 136.835 103.958 143.261 103.712C143.775 103.689 143.775 103.689 144.299 103.666C151.04 103.468 157.567 104.941 163.769 107.52C163.328 108.694 162.859 109.427 161.993 110.34C160.811 111.616 159.702 112.931 158.608 114.283C157.849 115.212 157.075 116.128 156.298 117.042C155.315 118.198 154.343 119.361 153.387 120.539C151.952 122.301 150.472 124.021 148.989 125.742C148.245 126.607 147.501 127.473 146.758 128.339C146.613 128.509 146.467 128.679 146.317 128.854C144.937 130.465 143.566 132.085 142.197 133.707C141.789 134.189 141.38 134.671 140.971 135.152C139.731 136.612 138.498 138.076 137.292 139.564C136.071 141.064 134.806 142.522 133.535 143.98C132.38 145.308 131.256 146.658 130.148 148.026C129.403 148.937 128.643 149.836 127.88 150.733C125.579 153.446 123.349 156.18 121.288 159.083C122.27 159.882 123.27 160.632 124.31 161.353C124.568 161.533 124.827 161.713 125.094 161.898C125.288 162.033 125.483 162.167 125.683 162.306C125.202 163.393 124.526 164.263 123.797 165.199C123.67 165.362 123.542 165.526 123.411 165.695C122.998 166.226 122.583 166.756 122.167 167.286C122.023 167.47 121.878 167.655 121.729 167.845C121.16 168.57 120.59 169.295 120.019 170.019C119.481 170.701 118.949 171.381 118.449 172.091C118.323 172.246 118.196 172.4 118.066 172.559C117.872 172.559 117.679 172.559 117.48 172.559C117.359 172.197 117.238 171.834 117.114 171.461C116.643 170.201 116.073 169.366 114.843 168.751C112.225 168.38 110.277 169.061 108.105 170.509C106.027 172.128 104.203 174.04 102.538 176.075C102.263 176.402 101.988 176.729 101.712 177.056C98.181 181.284 95.091 185.814 92.1455 190.464C88.679 195.895 88.679 195.895 86.1322 197.169C84.7339 197.285 84.0565 197.308 82.7996 196.656C81.6655 195.684 81.6655 195.684 81.4447 194.825C81.4971 193.829 81.5748 193.064 82.0672 192.188C82.9347 191.726 83.7197 192.039 84.6673 192.188C85.3721 192.056 85.3721 192.056 85.8392 191.602C86.2106 190.686 86.1704 190.252 85.8575 189.314C85.2667 188.557 85.2667 188.557 84.118 188.49C83.1686 188.556 82.8974 188.681 82.0855 189.259C80.7991 191.023 80.3557 192.654 80.5658 194.825C80.9757 195.792 80.9757 195.792 81.4447 196.583C81.4447 196.776 81.4447 196.97 81.4447 197.169C83.1931 197.905 84.9933 198.086 86.8245 197.553C89.349 196.507 91.3533 194.693 93.255 192.774C93.4457 192.582 93.6364 192.39 93.8329 192.192C95.4574 190.529 96.9054 188.777 98.2929 186.914C98.781 186.26 99.2759 185.613 99.7712 184.965C101.614 182.544 103.4 180.098 105.102 177.577C106.249 175.882 107.411 174.204 108.654 172.578C108.776 172.413 108.898 172.249 109.023 172.079C110.163 170.621 111.412 169.739 113.268 169.483C114.425 169.655 114.903 169.982 115.722 170.802C116.13 171.619 116.09 172.243 116.015 173.145C115.101 173.755 114.964 173.792 113.946 173.731C113.565 173.731 113.185 173.731 112.792 173.731C112.109 174.296 112.109 174.296 112.078 175.288C112.236 176.618 112.658 176.997 113.671 177.833C112.205 179.694 110.702 181.517 109.158 183.314C108.406 184.181 108.406 184.181 107.812 185.157C106.127 184.608 106.127 184.608 105.468 184.278C105.32 184.741 105.174 185.205 105.029 185.67C104.947 185.928 104.865 186.186 104.781 186.453C104.541 187.267 104.541 187.267 104.589 188.38C104.427 189.55 104.04 190.466 103.511 191.52C103.347 191.849 103.182 192.179 103.013 192.519C102.832 192.876 102.652 193.234 102.471 193.591C102.285 193.962 102.099 194.334 101.913 194.705C101.524 195.483 101.133 196.261 100.741 197.038C100.243 198.025 99.7475 199.013 99.2526 200.001C98.7758 200.954 98.2979 201.905 97.82 202.857C97.7311 203.034 97.6421 203.211 97.5505 203.394C96.423 205.64 95.2616 207.862 94.0423 210.059C92.8467 209.607 91.8697 209.034 90.8197 208.302C89.8209 211.607 88.8551 214.911 88.055 218.27C86.981 222.775 85.6055 227.131 84.0842 231.5C83.6736 232.68 83.2795 233.864 82.8981 235.053C81.0534 240.663 78.2908 245.834 75.5963 251.07C75.1494 251.939 74.7036 252.808 74.2612 253.679C74.0585 254.076 74.0585 254.076 73.8517 254.48C73.3108 255.668 73.1147 256.625 73.388 257.923C73.8376 258.485 73.8376 258.485 74.7613 258.729C76.3032 258.678 76.8812 258.009 77.929 256.934C78.5727 256.146 79.1487 255.32 79.7235 254.481C81.5539 251.881 83.5034 249.409 85.5462 246.973C85.7032 246.786 85.8601 246.598 86.0219 246.405C87.5059 244.638 88.989 242.883 90.6526 241.28C91.1698 240.764 91.6436 240.222 92.1197 239.668C92.8283 238.845 93.5616 238.067 94.3353 237.306C95.0729 236.579 95.7711 235.842 96.441 235.053C97.5383 233.774 98.7318 232.599 99.9362 231.422C100.776 230.596 101.573 229.753 102.34 228.859C103.75 227.226 105.313 225.748 106.865 224.253C107.092 224.03 107.318 223.808 107.552 223.578C107.757 223.38 107.962 223.182 108.173 222.977C108.811 222.287 108.811 222.287 109.277 220.899C108.213 220.126 107.15 219.352 106.054 218.556C106.478 217.496 106.817 216.751 107.426 215.829C107.584 215.589 107.741 215.349 107.904 215.102C108.075 214.845 108.246 214.588 108.422 214.323C108.601 214.053 108.779 213.782 108.963 213.503C109.343 212.928 109.724 212.353 110.105 211.778C110.675 210.92 111.242 210.06 111.81 209.2C113.619 206.462 115.44 203.732 117.282 201.016C117.521 200.661 117.521 200.661 117.765 200.298C117.912 200.082 118.059 199.866 118.211 199.644C118.339 199.455 118.467 199.266 118.599 199.072C118.945 198.634 118.945 198.634 119.531 198.341C120.25 198.754 120.931 199.179 121.618 199.641C121.811 199.768 122.004 199.895 122.203 200.026C122.681 200.341 123.157 200.659 123.632 200.977C123.675 200.798 123.717 200.619 123.761 200.435C123.948 199.719 124.223 199.087 124.529 198.414C124.635 198.18 124.742 197.946 124.851 197.704C124.932 197.528 125.013 197.351 125.097 197.169C124.898 197.108 124.698 197.048 124.493 196.986C123.348 196.45 122.508 195.674 121.581 194.825C121.983 193.396 122.627 192.277 123.467 191.071C123.735 190.679 124.002 190.287 124.268 189.894C124.406 189.692 124.544 189.49 124.686 189.282C125.344 188.307 125.98 187.318 126.617 186.329C133.872 175.081 133.872 175.081 137.109 170.509C138.269 170.928 139.244 171.485 140.276 172.157C140.562 172.342 140.848 172.527 141.143 172.717C141.358 172.859 141.574 173 141.796 173.145C141.91 172.834 141.91 172.834 142.026 172.516C142.407 171.622 142.867 170.856 143.393 170.038C143.593 169.726 143.793 169.413 144 169.091C144.209 168.767 144.419 168.444 144.634 168.11C144.94 167.633 144.94 167.633 145.252 167.146C146.157 165.739 147.07 164.342 148.037 162.976C149.578 160.796 151.025 158.551 152.49 156.318C152.816 155.82 153.143 155.323 153.47 154.825C154.139 153.806 154.808 152.787 155.477 151.768C156.763 149.808 158.05 147.849 159.337 145.89C159.607 145.481 159.876 145.071 160.145 144.661C162.463 141.133 164.784 137.606 167.107 134.081C167.476 133.522 167.844 132.962 168.213 132.403C170.023 129.655 171.836 126.91 173.663 124.174C174.488 122.938 175.305 121.697 176.11 120.448C176.304 120.147 176.304 120.147 176.503 119.841C177.31 118.589 178.113 117.334 178.913 116.077C181.069 112.693 183.254 109.333 185.489 106.001C186.777 104.076 188.037 102.135 189.275 100.178C195.332 90.6113 201.613 81.1794 207.912 71.7713C208.581 70.7718 209.245 69.7691 209.906 68.7638C210.068 68.5178 210.23 68.2718 210.397 68.0184C210.695 67.5658 210.992 67.1126 211.288 66.6585C213.126 63.8757 213.126 63.8757 214.837 63.5201C217.646 62.631 218.953 59.2653 220.423 56.9055C224.34 50.6615 229.341 45.9199 235.253 41.6024C232.75 41.6024 230.067 44.4561 228.222 45.9969C228.035 46.1476 227.848 46.2983 227.656 46.4535C225.267 48.4162 223.421 50.9313 221.484 53.3211C220.824 52.9498 220.165 52.5773 219.506 52.2042C219.32 52.0998 219.135 51.9954 218.943 51.8878C217.983 51.3429 217.075 50.7904 216.21 50.0985C215.775 50.9686 215.775 50.9686 215.331 51.8563C215.637 51.9685 215.637 51.9685 215.948 52.0829C216.9 52.4861 217.757 52.977 218.646 53.5042C218.959 53.6893 219.272 53.8743 219.594 54.065C219.831 54.2062 220.068 54.3475 220.312 54.493C219.763 55.8846 219.763 55.8846 219.433 56.5438C218.493 56.3593 217.834 56.0289 217.034 55.507C216.805 55.3612 216.577 55.2154 216.341 55.0652C215.862 54.7563 215.384 54.4458 214.908 54.1337C214.679 53.9887 214.45 53.8436 214.214 53.6942C214.007 53.5595 213.8 53.4249 213.586 53.2861C213.001 52.9761 213.001 52.9761 212.374 53.093C211.661 53.3842 211.156 53.8504 210.581 54.3534C207.933 56.5438 207.933 56.5438 206.835 56.5438C208.066 53.2468 210.41 50.6556 212.695 48.0477C212.876 47.8336 213.057 47.6194 213.244 47.3988C216.609 43.4436 220.36 40.3505 224.853 37.7572C225.042 37.6463 225.231 37.5354 225.426 37.4211C226.64 36.7467 227.685 36.3583 229.101 36.329C229.965 36.6952 229.965 36.6952 230.767 37.2079C231.8 37.9134 231.8 37.9134 232.988 38.0318C233.553 37.8309 233.553 37.8309 233.788 37.2079C233.55 37.1376 233.313 37.0674 233.067 36.995C231.816 36.5446 230.677 35.9633 229.504 35.3402C229.174 35.1702 229.174 35.1702 228.838 34.9969C226.631 33.8309 226.631 33.8309 225.878 32.8133C225.434 29.6974 227.286 26.5109 229.043 24.1064C232.602 19.4366 237.376 14.8318 243.456 17.8719ZM133.172 184.736C132.282 185.863 132.021 186.614 132.048 188.094C132.096 188.733 132.096 188.733 132.586 189.405C133.567 190.009 134.22 189.989 135.351 189.845C135.992 189.417 136.173 189.102 136.468 188.398C136.538 187.627 136.357 187.263 135.937 186.622C135.743 186.525 135.55 186.429 135.351 186.329C135.516 185.633 135.516 185.633 135.937 184.864C137.181 184.279 137.779 184.217 139.105 184.608C140.038 185.157 140.038 185.157 140.46 185.67C140.903 187.444 140.565 188.821 139.727 190.394C139.626 190.59 139.525 190.786 139.421 190.987C138.051 193.588 136.489 196.083 134.968 198.596C130.917 205.297 126.565 212.52 127.148 220.606C127.569 222.179 128.411 223.242 129.785 224.122C131.376 224.652 132.743 224.62 134.252 223.921C135.454 223.257 136.201 222.422 136.816 221.192C136.924 219.867 136.974 219.153 136.358 217.97C135.661 217.294 135.661 217.294 134.6 217.237C133.629 217.308 133.629 217.308 133.044 217.732C132.605 218.439 132.441 218.889 132.421 219.727C132.958 220.551 132.958 220.551 133.593 221.192C133.08 222.62 133.08 222.62 132.421 222.95C131.506 222.991 130.667 222.903 129.785 222.657C128.716 221.667 128.532 220.766 128.466 219.361C128.43 216.397 130.289 213.791 131.801 211.372C132.363 210.47 132.918 209.563 133.473 208.656C133.584 208.476 133.695 208.295 133.809 208.109C140.286 197.967 140.286 197.967 141.796 186.329C141.113 184.683 140.316 183.831 138.72 183.033C136.589 182.394 134.61 183.077 133.172 184.736Z" fill="black"/>
<path d="M155.273 227.051C155.859 228.08 156.436 229.113 157.013 230.146C157.178 230.436 157.343 230.726 157.514 231.025C159.118 233.918 159.118 233.918 159.082 235.548C158.656 236.236 158.329 236.383 157.569 236.643C157.331 236.698 157.093 236.754 156.848 236.811C153.885 237.648 151.659 239.544 150.13 242.198C148.23 246.044 147.217 250.245 146.356 254.426C144.389 263.881 140.103 272.575 131.878 278.147C123.124 283.88 113.312 284.862 103.165 282.842C98.4853 281.821 94.0729 280.129 89.6484 278.321C89.4201 278.23 89.1917 278.139 88.9564 278.045C80.1379 274.531 72.1282 268.732 65.0391 262.501C64.769 262.264 64.499 262.027 64.2208 261.783C61.5092 259.374 59.0815 256.855 56.8359 254.005C56.6562 253.78 56.6562 253.78 56.4729 253.551C54.669 251.297 52.8659 248.975 51.5625 246.387C51.7075 246.097 51.7075 246.097 51.8555 245.801C51.9873 245.972 52.1191 246.143 52.2549 246.319C55.7428 250.764 59.6856 254.939 64.1602 258.399C64.3276 258.53 64.4951 258.662 64.6677 258.797C67.7808 261.231 71.0259 263.399 74.4141 265.43C74.6292 265.56 74.8444 265.689 75.0661 265.822C87.4003 273.139 102.508 277.667 116.759 274.126C122.666 272.49 127.736 269.387 132.129 265.137C132.454 264.824 132.454 264.824 132.785 264.505C138.285 258.808 140.366 251.255 142.09 243.751C144.967 231.257 144.967 231.257 149.707 228.223C151.498 227.333 153.292 227.035 155.273 227.051Z" fill="black"/>
<path d="M243.457 17.8719C242.757 18.4042 242.063 18.889 241.315 19.3551C237.531 22.09 235.708 27.7925 234.961 32.2274C234.619 34.9439 234.619 34.9439 235.565 37.4093C237.023 38.5567 238.336 39.1355 240.223 39.0481C242.252 38.7682 243.858 37.8544 245.215 36.329C247.119 33.6294 247.119 33.6294 247.559 30.4696C246.835 29.0602 245.932 27.8471 244.647 26.9173C243.445 26.5739 242.658 26.4995 241.406 26.661C240.151 27.8845 239.888 28.7948 239.85 30.5062C239.866 32.5484 240.224 33.9747 241.681 35.4317C242.368 35.7856 242.987 35.93 243.75 36.036C243.421 37.0219 243.324 37.0969 242.45 37.5558C241.035 38.2137 239.72 38.3416 238.184 38.0868C236.855 37.4344 236.196 36.7665 235.547 35.45C235.145 31.0011 237.334 25.7038 240.032 22.2893C242.409 19.5886 242.409 19.5886 243.988 19.0621C245.231 19.0377 246.026 19.4604 246.973 20.2157C249.259 22.756 249.241 26.5748 249.072 29.8108C248.651 35.5778 246.871 42.308 243.164 46.8758C241.483 46.384 240.174 45.5545 238.712 44.6099C237.931 44.151 237.931 44.151 237.229 44.4268C236.551 44.9559 236.222 45.5252 235.84 46.2899C235.84 46.4832 235.84 46.6766 235.84 46.8758C236.341 47.2644 236.341 47.2644 236.993 47.638C237.231 47.7815 237.469 47.925 237.714 48.0729C238.092 48.2961 238.092 48.2961 238.477 48.5238C238.854 48.7504 238.854 48.7504 239.239 48.9815C239.862 49.3558 240.487 49.728 241.113 50.0985C241.017 50.9686 240.92 51.8387 240.82 52.7352C239.638 52.2695 238.471 51.7736 237.305 51.2704C237.226 51.5362 237.148 51.8021 237.067 52.076C236.735 52.9841 236.492 53.5014 235.84 54.2C235.09 54.4655 235.09 54.4656 234.247 54.6395C232.948 54.9082 232.319 55.2424 231.445 56.2508C229.936 55.6995 228.635 54.877 227.268 54.0421C226.487 53.5452 226.487 53.5452 225.586 53.6141C225.199 54.4842 224.813 55.3543 224.414 56.2508C225.961 57.3143 227.508 58.3778 229.102 59.4735C228.957 60.6336 228.957 60.6336 228.809 61.8172C228.035 61.6239 227.262 61.4305 226.465 61.2313C226.351 61.4832 226.237 61.7351 226.119 61.9946C224.404 65.6192 222.277 69.3312 218.555 71.1922C216.466 71.3976 216.466 71.3976 215.369 70.5147C214.16 68.9864 214.16 68.9864 214.16 67.9696C213.967 67.9696 213.773 67.9696 213.574 67.9696C213.506 68.1671 213.438 68.3646 213.367 68.5681C212.894 69.6494 212.266 70.5979 211.615 71.5768C210.196 73.739 208.811 75.9205 207.44 78.1136C207.16 78.5613 207.16 78.5613 206.873 79.0181C205.951 80.4952 205.049 81.9768 204.199 83.4969C203.936 83.2703 203.936 83.2703 203.668 83.0392C203.457 82.9002 203.245 82.7612 203.027 82.618C202.737 82.7147 202.447 82.8114 202.148 82.911C201.66 82.9223 201.172 82.9242 200.684 82.911C202.333 80.2975 204.022 77.7113 205.719 75.129C205.854 74.9232 205.99 74.7174 206.129 74.5053C206.804 73.4787 207.479 72.4523 208.155 71.4261C208.781 70.475 209.405 69.5228 210.029 68.5704C210.338 68.1015 210.647 67.6327 210.956 67.1639C211.09 66.9586 211.224 66.7534 211.362 66.5419C213.129 63.8753 213.129 63.8753 214.838 63.5201C217.646 62.631 218.954 59.2653 220.424 56.9055C224.34 50.6615 229.341 45.9199 235.254 41.6024C232.751 41.6024 230.067 44.4561 228.223 45.9969C228.036 46.1476 227.849 46.2983 227.656 46.4535C225.268 48.4162 223.422 50.9313 221.484 53.3211C220.825 52.9498 220.166 52.5773 219.507 52.2042C219.321 52.0998 219.135 51.9954 218.944 51.8878C217.984 51.3429 217.075 50.7904 216.211 50.0985C215.921 50.6786 215.631 51.2586 215.332 51.8563C215.536 51.9311 215.739 52.0058 215.949 52.0829C216.9 52.4861 217.758 52.977 218.646 53.5042C219.116 53.7818 219.116 53.7818 219.595 54.065C219.832 54.2062 220.069 54.3475 220.312 54.493C219.763 55.8846 219.763 55.8846 219.434 56.5438C218.494 56.3593 217.834 56.0289 217.035 55.507C216.806 55.3612 216.577 55.2154 216.341 55.0652C215.863 54.7563 215.385 54.4458 214.909 54.1337C214.68 53.9887 214.451 53.8436 214.215 53.6942C214.008 53.5595 213.8 53.4249 213.587 53.2861C213.002 52.9761 213.002 52.9761 212.375 53.093C211.662 53.3842 211.157 53.8504 210.582 54.3534C207.933 56.5438 207.933 56.5438 206.836 56.5438C208.066 53.2468 210.41 50.6556 212.695 48.0477C212.877 47.8336 213.058 47.6194 213.245 47.3988C216.609 43.4436 220.361 40.3505 224.854 37.7572C225.043 37.6463 225.232 37.5354 225.427 37.4211C226.64 36.7467 227.686 36.3583 229.102 36.329C229.966 36.6952 229.966 36.6952 230.768 37.2079C231.801 37.9134 231.801 37.9134 232.989 38.0318C233.553 37.8309 233.553 37.8309 233.789 37.2079C233.551 37.1376 233.313 37.0674 233.068 36.995C231.816 36.5446 230.677 35.9633 229.504 35.3402C229.285 35.2269 229.065 35.1136 228.838 34.9969C226.632 33.8309 226.632 33.8309 225.879 32.8133C225.435 29.6974 227.286 26.5109 229.044 24.1064C232.602 19.4366 237.377 14.8318 243.457 17.8719Z" fill="black"/>
<path d="M195.995 136.816C196.189 136.816 196.382 136.816 196.581 136.816C200.098 145.673 202.189 154.362 198.302 163.513C195.463 169.776 190.937 174.97 185.726 179.394C184.821 180.169 183.948 180.98 183.07 181.786C182.519 182.227 182.519 182.227 181.933 182.227C181.933 182.42 181.933 182.613 181.933 182.812C181.739 182.812 181.546 182.812 181.347 182.812C181.274 182.976 181.202 183.139 181.127 183.307C180.761 183.984 180.761 183.984 180.175 184.68C178.537 186.83 178.894 189.322 179.223 191.858C179.359 193.254 179.359 193.254 178.838 194.128C177.943 194.633 177.402 194.824 176.366 194.824C175.621 194.466 175 194.103 174.316 193.652C173.798 193.339 173.279 193.028 172.759 192.719C172.513 192.569 172.266 192.42 172.012 192.266C170.481 191.357 169.038 191.423 167.284 191.602C161.476 193.316 157.458 199.811 154.687 204.785C153.085 207.796 151.836 210.889 150.878 214.16C150.809 214.393 150.741 214.625 150.67 214.865C150.139 216.925 150.105 219.076 149.999 221.191C147.983 220.3 146.829 218.554 145.934 216.595C143.692 210.682 145.837 204.123 148.282 198.614C149.96 194.984 152.162 191.76 154.687 188.672C154.882 188.428 155.078 188.183 155.279 187.931C157.503 185.277 160.461 182.895 163.979 182.41C166.891 182.279 168.869 183.239 171.056 185.101C171.315 185.339 171.574 185.576 171.841 185.821C172.497 186.396 172.497 186.396 173.185 186.295C174.122 185.848 174.591 185.422 175.194 184.57C175.152 183.651 174.864 182.813 174.609 181.934C174.134 179.48 174.426 177.532 175.738 175.393C176.29 174.585 176.872 173.864 177.538 173.145C177.732 173.145 177.925 173.145 178.124 173.145C178.124 172.951 178.124 172.758 178.124 172.559C178.482 172.197 178.482 172.197 179.021 171.753C181.032 170.04 182.947 168.224 184.862 166.406C185.043 166.236 185.224 166.065 185.411 165.889C190.291 161.265 194.087 156.038 195.702 149.414C195.768 149.153 195.834 148.892 195.901 148.623C196.693 144.821 196.485 140.65 195.995 136.816Z" fill="black"/>
<path d="M213.867 55.3711C214.447 55.5161 214.447 55.5161 215.039 55.6641C214.967 56.6405 214.686 56.8935 213.959 57.5867C213.334 58.0831 212.861 58.3539 212.109 58.667C211.194 59.2011 210.966 59.4989 210.42 60.371C209.519 61.7659 208.527 63.0617 207.495 64.3616C206.275 65.913 205.076 67.4698 203.943 69.0857C202.728 70.8159 201.456 72.498 200.171 74.176C198.484 76.3777 196.822 78.5942 195.182 80.8309C193.946 82.516 192.694 84.1889 191.437 85.8582C189.875 87.9335 188.341 90.0272 186.826 92.1371C185.663 93.7549 184.475 95.3532 183.275 96.9441C182.157 98.4281 181.055 99.9236 179.956 101.422C178.088 103.966 176.179 106.477 174.263 108.984C171.905 112.071 169.589 115.183 167.326 118.341C166.068 120.087 164.769 121.798 163.458 123.505C161.904 125.529 160.398 127.576 158.94 129.67C157.103 132.298 155.156 134.845 153.223 137.402C151.834 139.243 150.457 141.092 149.092 142.95C147.751 144.776 146.408 146.598 145.02 148.389C143.117 150.844 141.29 153.355 139.453 155.859C138.727 156.849 138.001 157.837 137.274 158.826C137.112 159.047 136.949 159.269 136.782 159.498C135.648 161.04 134.483 162.557 133.301 164.062C132.037 163.589 131.046 162.946 129.987 162.122C129.826 161.998 129.664 161.875 129.498 161.749C129.105 161.447 128.712 161.144 128.32 160.84C129.161 159.269 130.127 157.938 131.268 156.573C131.611 156.158 131.953 155.743 132.295 155.327C132.55 155.018 132.55 155.018 132.81 154.702C133.524 153.829 134.219 152.941 134.912 152.051C136.224 150.37 137.565 148.713 138.914 147.061C139.951 145.788 140.971 144.503 141.98 143.207C143.141 141.717 144.342 140.269 145.57 138.834C146.666 137.548 147.712 136.228 148.75 134.895C149.785 133.568 150.84 132.26 151.904 130.957C153.086 129.51 154.253 128.054 155.402 126.581C156.608 125.033 157.848 123.514 159.1 122.003C160.665 120.114 162.179 118.198 163.664 116.245C166.241 112.869 168.88 109.546 171.568 106.258C172.895 104.631 174.197 102.986 175.491 101.333C176.797 99.666 178.116 98.0122 179.462 96.3764C181.687 93.6695 183.893 90.9489 186.049 88.1861C187.136 86.7976 188.264 85.4462 189.399 84.0958C190.319 82.9828 191.208 81.8476 192.096 80.7087C193.122 79.3953 194.171 78.1021 195.227 76.8127C196.56 75.183 197.855 73.5288 199.127 71.8506C200.437 70.1218 201.785 68.4421 203.184 66.7843C203.984 65.8242 204.763 64.8496 205.536 63.8672C205.672 63.6959 205.807 63.5245 205.947 63.348C206.592 62.5267 207.217 61.7002 207.805 60.8368C209.103 58.9675 210.194 57.8501 212.29 56.9183C213.059 56.505 213.401 56.0993 213.867 55.3711Z" fill="black"/>
<path d="M215.625 56.25C216.005 56.424 216.383 56.6017 216.76 56.781C217.076 56.9289 217.076 56.9289 217.399 57.0797C217.969 57.4219 217.969 57.4219 218.555 58.3008C217.676 58.8867 217.676 58.8867 216.732 59.0355C214.288 59.4251 214.288 59.4251 212.474 60.9924C211.838 61.9901 211.29 63.0368 210.732 64.0796C210.078 65.226 209.289 66.2699 208.502 67.3279C207.179 69.1303 205.893 70.9519 204.639 72.8027C203.398 74.6313 202.131 76.4365 200.83 78.2227C199.372 80.2256 197.959 82.2549 196.565 84.3035C194.912 86.7334 193.225 89.139 191.536 91.5442C190.838 92.5379 190.143 93.5328 189.447 94.5277C188.021 96.5666 186.592 98.6031 185.156 100.635C182.634 104.204 180.119 107.778 177.649 111.383C175.597 114.378 173.516 117.354 171.368 120.282C170.317 121.719 169.309 123.183 168.304 124.653C167.393 125.984 166.471 127.306 165.542 128.624C163.84 131.038 162.179 133.475 160.547 135.938C158.6 138.875 156.597 141.769 154.567 144.649C153.85 145.671 153.142 146.7 152.435 147.729C152.305 147.919 152.175 148.109 152.04 148.305C151.653 148.87 151.266 149.435 150.879 150C150.36 150.757 149.842 151.514 149.323 152.271C149.125 152.559 149.125 152.559 148.923 152.853C148.19 153.919 147.452 154.98 146.706 156.038C146.37 156.515 146.033 156.993 145.697 157.471C145.529 157.71 145.36 157.949 145.187 158.195C144.196 159.609 143.225 161.034 142.272 162.473C142.059 162.795 141.845 163.117 141.625 163.449C141.208 164.082 140.792 164.715 140.377 165.35C140.094 165.779 140.094 165.779 139.806 166.217C139.638 166.473 139.471 166.729 139.299 166.992C138.867 167.578 138.867 167.578 138.281 167.871C137.643 167.461 137.009 167.045 136.377 166.626C136.195 166.51 136.014 166.394 135.826 166.275C135.306 165.926 135.306 165.926 134.473 165.234C134.473 164.036 134.492 163.889 135.151 163C135.3 162.797 135.45 162.593 135.603 162.382C135.85 162.054 135.85 162.054 136.102 161.719C136.272 161.488 136.443 161.257 136.618 161.02C137.169 160.274 137.725 159.531 138.281 158.789C138.651 158.294 139.02 157.799 139.389 157.304C140.481 155.843 141.578 154.386 142.676 152.93C143.268 152.143 143.86 151.355 144.452 150.568C144.592 150.381 144.733 150.194 144.878 150.001C145.823 148.741 146.757 147.473 147.688 146.202C149.211 144.124 150.754 142.067 152.344 140.039C155.286 136.284 158.08 132.42 160.868 128.55C163.323 125.145 165.818 121.77 168.343 118.418C169.065 117.451 169.779 116.48 170.493 115.508C172.144 113.258 173.815 111.027 175.516 108.816C177.079 106.78 178.598 104.712 180.116 102.643C180.862 101.627 181.615 100.616 182.373 99.6094C184.717 96.4933 187.039 93.3604 189.294 90.1794C190.458 88.5384 191.659 86.9284 192.871 85.3234C193.971 83.8628 195.042 82.3832 196.106 80.896C197.58 78.8386 199.113 76.8359 200.676 74.8458C201.825 73.379 202.927 71.8886 203.999 70.3652C205.048 68.8771 206.141 67.4243 207.243 65.9753C208.029 64.9364 208.787 63.8869 209.516 62.8075C209.668 62.5838 209.821 62.3602 209.977 62.1298C210.266 61.7028 210.551 61.2734 210.832 60.841C211.807 59.4051 212.871 58.4581 214.453 57.7148C214.646 57.7148 214.84 57.7148 215.039 57.7148C215.232 57.2314 215.426 56.748 215.625 56.25Z" fill="black"/>
<path d="M212.82 54.2719C212.972 54.3444 213.124 54.4169 213.281 54.4916C213.177 55.2966 213.065 55.5988 212.434 56.1316C212.206 56.2732 211.978 56.4148 211.743 56.5607C211.518 56.7031 211.293 56.8455 211.061 56.9922C210.588 57.2782 210.106 57.5501 209.617 57.807C208.7 58.4265 208.184 59.1286 207.532 60.0214C206.517 61.3854 205.473 62.7063 204.364 63.9948C202.684 65.9553 201.095 67.9806 199.512 70.019C197.587 72.4937 195.628 74.9344 193.629 77.3494C192.601 78.5937 191.592 79.8493 190.609 81.13C189.726 82.2652 188.806 83.3701 187.893 84.4813C185.826 87.0003 183.77 89.5243 181.793 92.1159C180.837 93.3669 179.849 94.5878 178.847 95.8025C177.991 96.8415 177.142 97.8861 176.294 98.9313C175.31 100.143 174.326 101.355 173.339 102.565C171.428 104.909 169.54 107.269 167.679 109.652C166.878 110.677 166.073 111.698 165.27 112.721C164.604 113.567 163.94 114.414 163.277 115.262C161.69 117.293 160.078 119.302 158.448 121.3C157.425 122.555 156.417 123.821 155.42 125.097C154.107 126.778 152.767 128.435 151.418 130.087C150.381 131.36 149.361 132.645 148.352 133.941C147.17 135.458 145.948 136.934 144.7 138.396C143.73 139.534 142.788 140.69 141.86 141.862C141.035 142.896 140.198 143.92 139.362 144.946C137.996 146.622 136.65 148.312 135.319 150.015C134.286 151.335 133.23 152.634 132.166 153.928C130.544 155.904 128.959 157.903 127.441 159.96C126.551 159.547 125.803 159.055 125.024 158.459C124.714 158.222 124.714 158.222 124.397 157.981C124.164 157.8 124.164 157.8 123.926 157.617C124.373 156.613 124.964 155.842 125.665 154.998C125.901 154.715 126.136 154.431 126.378 154.139C127.306 153.032 128.239 151.931 129.174 150.83C130.018 149.836 130.849 148.833 131.671 147.82C132.831 146.396 134.023 145.002 135.222 143.61C136.11 142.578 136.983 141.535 137.842 140.478C138.994 139.058 140.181 137.67 141.375 136.285C142.258 135.259 143.124 134.224 143.976 133.172C145.189 131.677 146.45 130.225 147.715 128.774C148.864 127.453 149.98 126.109 151.081 124.748C151.879 123.778 152.696 122.826 153.516 121.874C154.557 120.666 155.586 119.451 156.592 118.212C157.597 116.974 158.627 115.759 159.668 114.55C161.698 112.191 163.666 109.789 165.582 107.336C168.496 103.608 171.544 99.9889 174.609 96.3862C176.356 94.332 178.089 92.2701 179.791 90.1789C180.681 89.0968 181.588 88.0298 182.495 86.9625C183.339 85.9683 184.17 84.9655 184.991 83.9533C186.009 82.7023 187.051 81.4755 188.104 80.2546C189.296 78.872 190.455 77.4706 191.588 76.0386C192.829 74.4936 194.125 72.9927 195.41 71.4838C197.186 69.3984 198.945 67.3015 200.684 65.185C204.17 60.9442 204.17 60.9442 205.957 58.8862C206.125 58.689 206.294 58.4919 206.467 58.2888C207.543 57.1173 208.796 56.2469 210.114 55.3705C210.291 55.2502 210.469 55.1298 210.652 55.0058C211.941 54.1813 211.941 54.1813 212.82 54.2719Z" fill="black"/>
<path d="M126.27 163.184C127.568 163.629 128.622 164.334 129.73 165.125C129.905 165.248 130.08 165.371 130.261 165.498C130.689 165.799 131.116 166.103 131.543 166.406C131.076 167.934 130.11 169.027 129.126 170.251C127.644 172.125 126.196 174.017 124.786 175.946C123.158 178.171 121.497 180.368 119.817 182.554C118.634 184.095 117.471 185.65 116.309 187.207C115.961 187.671 115.613 188.135 115.265 188.599C115.056 188.877 115.056 188.877 114.843 189.162C114.746 189.29 114.65 189.418 114.551 189.551C113.452 189.389 112.75 189.111 111.853 188.46C111.633 188.302 111.413 188.145 111.187 187.982C110.962 187.817 110.736 187.652 110.504 187.482C110.273 187.315 110.042 187.149 109.804 186.978C109.236 186.568 108.67 186.156 108.105 185.742C109.002 184.325 110.018 183.08 111.127 181.824C111.381 181.533 111.381 181.533 111.64 181.237C112.121 180.687 112.603 180.138 113.086 179.59C115.227 177.219 115.227 177.219 117.143 174.671C117.782 173.718 118.461 172.805 119.165 171.899C119.293 171.734 119.421 171.568 119.553 171.397C124.721 164.732 124.721 164.732 126.27 163.184Z" fill="black"/>
<path d="M132.129 167.285C133.231 167.468 133.942 167.973 134.839 168.622C135.1 168.81 135.362 168.997 135.631 169.191C135.829 169.335 136.027 169.48 136.23 169.629C135.775 170.912 135.108 172.02 134.381 173.163C134.253 173.366 134.124 173.57 133.992 173.78C132.82 175.631 131.621 177.465 130.422 179.299C129.152 181.248 127.918 183.217 126.691 185.193C125.322 187.389 123.948 189.581 122.534 191.748C122.391 191.972 122.247 192.197 122.1 192.428C121.755 192.95 121.379 193.45 120.996 193.945C119.646 193.945 118.823 193.157 117.737 192.407C117.52 192.263 117.303 192.119 117.079 191.971C116.872 191.83 116.666 191.688 116.453 191.542C116.264 191.413 116.074 191.284 115.879 191.152C115.333 190.63 115.21 190.297 115.137 189.551C115.551 188.917 115.551 188.917 116.199 188.196C117.435 186.758 118.559 185.273 119.659 183.728C120.978 181.884 122.323 180.071 123.714 178.282C124.723 176.979 125.705 175.655 126.691 174.335C128.468 171.956 130.279 169.608 132.129 167.285Z" fill="black"/>
<path d="M105.469 188.965C107.102 189.842 108.664 190.765 110.175 191.84C110.344 191.959 110.514 192.078 110.689 192.201C111.098 192.488 111.506 192.777 111.914 193.066C111.472 194.656 110.721 195.924 109.863 197.314C109.547 197.834 109.231 198.354 108.915 198.874C108.653 199.303 108.653 199.303 108.386 199.74C107.404 201.355 106.434 202.978 105.463 204.599C104.918 205.509 104.372 206.418 103.827 207.327C103.616 207.678 103.405 208.029 103.194 208.38C101.548 211.124 101.548 211.124 99.9023 213.867C98.7385 213.615 97.9321 213.117 96.936 212.457C96.6271 212.256 96.3182 212.055 95.9999 211.847C95.2267 211.24 94.9408 210.966 94.6289 210.059C94.7848 209.476 94.7848 209.476 95.1096 208.858C95.2284 208.627 95.3472 208.395 95.4695 208.156C95.603 207.908 95.7365 207.66 95.874 207.404C96.0103 207.141 96.1466 206.878 96.2871 206.608C96.7064 205.803 97.1319 205.001 97.5586 204.199C97.7836 203.771 98.0083 203.343 98.2327 202.915C98.5667 202.279 98.9015 201.642 99.2382 201.007C100.566 198.499 101.863 195.975 103.162 193.451C103.333 193.118 103.333 193.118 103.508 192.778C104.162 191.507 104.815 190.236 105.469 188.965Z" fill="black"/>
<path d="M112.5 193.945C113.889 194.22 114.806 194.983 115.924 195.813C116.126 195.958 116.328 196.103 116.536 196.252C116.728 196.394 116.92 196.535 117.118 196.68C117.293 196.809 117.468 196.938 117.648 197.07C118.066 197.461 118.066 197.461 118.359 198.34C118.093 198.917 118.093 198.917 117.651 199.595C117.48 199.86 117.31 200.125 117.134 200.398C116.94 200.691 116.746 200.985 116.547 201.288C116.346 201.596 116.146 201.905 115.94 202.222C115.19 203.373 114.431 204.519 113.672 205.664C113.507 205.912 113.343 206.16 113.174 206.415C110.615 210.273 108.045 214.123 105.469 217.969C104.556 217.63 103.793 217.287 103.028 216.685C102.861 216.554 102.694 216.424 102.521 216.29C102.352 216.155 102.183 216.02 102.008 215.881C101.745 215.676 101.745 215.676 101.478 215.466C101.049 215.13 100.622 214.792 100.195 214.453C101.403 212.099 102.785 209.866 104.184 207.623C105.495 205.518 106.778 203.398 108.051 201.27C109.517 198.817 110.991 196.371 112.5 193.945Z" fill="black"/>
</svg>
