<svg width="300" height="300" viewBox="0 0 300 300" fill="none" xmlns="http://www.w3.org/2000/svg">
<path d="M135.197 95.8616C135.938 96.6797 135.938 96.6797 136.487 97.4121C138.397 99.6593 141.033 100.254 143.848 100.488C144.872 100.535 145.894 100.55 146.919 100.558C147.206 100.56 147.492 100.563 147.787 100.565C148.39 100.569 148.992 100.572 149.595 100.575C150.205 100.578 150.814 100.584 151.424 100.593C157.953 100.728 157.953 100.728 163.477 97.5586C163.954 97.0265 164.41 96.4896 164.846 95.9232C165.234 95.5078 165.234 95.5078 166.113 95.2148C166.943 95.4117 167.741 95.6314 168.554 95.8832C168.797 95.9568 169.04 96.0303 169.29 96.1062C169.805 96.2635 170.321 96.4222 170.836 96.5821C171.609 96.8214 172.384 97.0541 173.16 97.2862C182.239 100.051 186.705 105.374 191.503 113.324C191.941 114.04 192.389 114.75 192.839 115.459C194.76 118.498 196.554 121.533 198.047 124.805C198.213 125.165 198.213 125.165 198.381 125.534C203.245 136.213 206.408 147.373 209.302 158.71C209.469 159.36 209.637 160.01 209.806 160.66C210.109 161.829 210.405 163.001 210.699 164.172C210.788 164.515 210.877 164.857 210.969 165.21C211.41 167.003 211.65 168.404 211.23 170.215C210.694 171.097 210.265 171.557 209.381 172.083C207.919 172.423 206.903 172.177 205.609 171.442C204.356 170.313 204.04 168.564 203.613 166.992C202.163 167.282 202.163 167.282 200.684 167.578C200.78 168.007 200.877 168.436 200.977 168.878C201.658 172.395 201.658 172.395 200.993 173.679C200.253 174.639 199.522 175.241 198.34 175.488C197.071 175.53 196.237 175.365 195.19 174.628C193.616 172.485 193.043 169.795 192.363 167.262C190.741 161.252 188.85 155.328 186.914 149.414C186.822 149.133 186.73 148.853 186.636 148.564C186.066 146.824 185.49 145.087 184.907 143.351C184.722 142.801 184.539 142.25 184.357 141.699C182.93 137.394 181.276 133.247 178.711 129.474C178.547 129.217 178.547 129.217 178.379 128.955C177.699 127.939 176.954 127.151 176.025 126.354C175.709 126.082 175.709 126.082 175.387 125.804C175.147 125.599 175.147 125.599 174.902 125.391C174.908 125.683 174.908 125.683 174.913 125.981C175.228 142.747 175.228 142.747 175.232 149.176C175.232 149.404 175.233 149.631 175.233 149.865C175.235 152.523 175.168 155.164 175.032 157.819C174.836 161.934 174.983 165.932 175.34 170.032C175.391 170.645 175.443 171.258 175.495 171.871C176.304 181.364 177.236 190.846 178.147 200.33C178.406 203.026 178.664 205.722 178.922 208.418C179.023 209.484 179.126 210.551 179.228 211.617C179.428 213.717 179.629 215.816 179.83 217.916C179.952 219.194 180.074 220.472 180.196 221.75C180.22 221.999 180.244 222.248 180.268 222.504C180.565 225.602 180.865 228.7 181.171 231.798C181.32 233.301 181.466 234.805 181.613 236.309C181.709 237.291 181.806 238.273 181.905 239.255C183.049 250.635 183.049 250.635 181.641 252.539C179.003 254.643 174.847 254.391 171.68 254.37C171.334 254.372 170.988 254.375 170.631 254.377C167.699 254.371 164.756 254.306 162.194 252.746C160.792 251.27 160.648 249.26 160.459 247.332C160.413 246.9 160.413 246.9 160.366 246.461C160.262 245.488 160.164 244.515 160.065 243.542C159.991 242.833 159.916 242.125 159.841 241.416C159.676 239.84 159.512 238.264 159.35 236.687C159.092 234.168 158.828 231.65 158.565 229.131C157.968 223.422 157.377 217.712 156.787 212.003C156.507 209.296 156.227 206.589 155.947 203.881C155.204 196.704 155.204 196.704 154.843 193.208C154.727 192.084 154.61 190.96 154.494 189.836C154.296 187.929 154.099 186.023 153.91 184.115C153.849 183.504 153.788 182.893 153.726 182.281C153.651 181.533 153.577 180.785 153.504 180.037C153.471 179.71 153.438 179.384 153.404 179.047C153.376 178.762 153.348 178.476 153.319 178.181C153.289 177.547 153.289 177.547 152.93 177.246C152.472 177.221 152.014 177.215 151.555 177.217C151.14 177.219 151.14 177.219 150.717 177.22C150.426 177.223 150.135 177.225 149.835 177.228C149.543 177.229 149.251 177.23 148.95 177.232C148.226 177.235 147.502 177.24 146.777 177.246C146.767 177.5 146.756 177.754 146.745 178.016C146.535 182.238 146.08 186.435 145.641 190.638C145.517 191.822 145.394 193.006 145.272 194.19C145.102 195.826 144.932 197.461 144.762 199.097C144.328 203.261 143.899 207.426 143.473 211.592C143.083 215.402 142.691 219.213 142.299 223.023C142.05 225.432 141.803 227.84 141.557 230.249C141.345 232.333 141.131 234.418 140.914 236.501C140.802 237.583 140.691 238.664 140.582 239.746C140.461 240.939 140.337 242.131 140.212 243.323C140.178 243.668 140.144 244.013 140.108 244.368C139.469 250.382 139.469 250.382 138.318 252.118C135.333 254.446 131.125 254.35 127.515 254.352C127.191 254.355 126.868 254.359 126.535 254.363C120.347 254.374 120.347 254.374 118.359 252.539C117.255 250.749 117.133 249.155 117.264 247.099C117.278 246.871 117.292 246.644 117.306 246.41C117.537 242.889 117.933 239.381 118.303 235.873C118.387 235.069 118.471 234.265 118.554 233.461C118.732 231.752 118.91 230.044 119.089 228.336C119.534 224.076 119.975 219.816 120.415 215.556C120.462 215.102 120.509 214.647 120.556 214.193C121.498 205.078 122.404 195.961 123.285 186.841C123.347 186.198 123.409 185.555 123.472 184.912C123.644 183.13 123.815 181.349 123.986 179.567C124.012 179.304 124.037 179.041 124.063 178.771C124.328 176.018 124.586 173.265 124.805 170.508C125.044 170.413 125.284 170.319 125.531 170.222C128.893 168.923 128.893 168.923 131.74 166.776C132.859 165.643 133.612 165.1 135.233 165.034C135.81 165.048 136.387 165.072 136.963 165.106C137.26 165.115 137.557 165.125 137.862 165.134C138.589 165.158 139.314 165.192 140.039 165.234C139.511 164.278 139.209 163.802 138.281 163.184C137.188 163.026 136.089 163.035 134.985 163.019C134.535 162.997 134.535 162.997 134.076 162.975C132.405 162.935 132.405 162.935 130.93 163.616C130.585 163.973 130.253 164.341 129.934 164.72C129.325 165.429 128.631 165.812 127.808 166.241C127.537 166.386 127.267 166.531 126.988 166.68C126.27 166.992 126.27 166.992 125.391 166.992C125.105 162.798 125.015 158.605 124.95 154.403C124.933 153.291 124.914 152.179 124.895 151.067C124.777 144.088 124.725 137.111 124.951 130.133C124.965 129.664 124.98 129.194 124.994 128.725C125.027 127.613 125.062 126.502 125.098 125.391C119.864 129.808 117.208 136.382 115.09 142.75C114.974 143.097 114.859 143.443 114.74 143.8C113.608 147.226 112.55 150.673 111.511 154.128C111.191 155.192 110.87 156.255 110.547 157.318C109.681 160.179 108.817 163.041 107.974 165.909C107.706 166.818 107.437 167.726 107.168 168.634C106.994 169.226 106.824 169.819 106.653 170.412C106.551 170.759 106.448 171.106 106.342 171.463C106.257 171.756 106.172 172.049 106.085 172.351C105.639 173.447 105.021 174.298 104.059 174.994C102.936 175.347 101.911 175.408 100.8 174.973C99.7434 174.414 99.1466 173.964 98.7305 172.852C98.5137 170.827 98.8036 168.947 99.3164 166.992C98.3496 166.896 97.3828 166.799 96.3867 166.699C96.3191 166.936 96.2515 167.173 96.1819 167.417C95.1578 170.772 95.1578 170.772 93.75 171.68C92.3588 172.107 91.4379 172.135 90.1245 171.478C88.5077 170.054 88.5077 170.054 88.4297 168.988C88.6836 167.11 89.0463 165.277 89.4848 163.433C89.556 163.128 89.6273 162.822 89.7007 162.508C89.9312 161.524 90.1648 160.541 90.3992 159.558C90.5187 159.054 90.5187 159.054 90.6407 158.54C94.8608 140.775 101.05 124.565 111.163 109.277C111.347 109 111.53 108.722 111.719 108.436C115.21 103.244 118.803 99.9317 124.791 97.9958C125.056 97.9098 125.321 97.8239 125.593 97.7353C126.147 97.5572 126.702 97.3805 127.257 97.2053C128.105 96.9345 128.95 96.6515 129.794 96.3684C130.336 96.196 130.877 96.0243 131.419 95.8534C131.67 95.7672 131.921 95.6809 132.18 95.592C133.422 95.216 134.142 95.0069 135.197 95.8616ZM156.613 112.568C154.484 114.963 154.137 117.069 154.182 120.213C154.182 120.612 154.182 121.011 154.181 121.41C154.181 122.24 154.187 123.07 154.198 123.901C154.211 124.961 154.211 126.021 154.207 127.082C154.205 127.904 154.209 128.725 154.215 129.546C154.218 130.126 154.218 130.706 154.217 131.286C154.238 133.853 154.238 133.853 155.566 135.938C156.17 136.335 156.17 136.335 156.793 136.633C157.412 137.058 157.412 137.058 157.91 137.695C158.125 138.928 158.169 140.087 158.164 141.333C158.113 142.413 158.113 142.413 158.789 143.262C159.659 142.972 159.659 142.972 160.547 142.676C160.644 141.322 160.74 139.969 160.84 138.574C161.42 138.768 162 138.961 162.598 139.16C162.609 139.496 162.62 139.832 162.631 140.178C162.65 140.626 162.67 141.074 162.689 141.522C162.696 141.743 162.702 141.963 162.709 142.19C162.782 143.715 163.091 144.822 163.77 146.191C164.73 145.971 164.73 145.971 165.234 145.02C165.372 143.712 165.343 142.397 165.344 141.083C165.355 140.538 165.355 140.538 165.366 139.981C165.367 139.632 165.368 139.283 165.369 138.923C165.373 138.444 165.373 138.444 165.377 137.955C165.2 136.903 164.9 136.58 164.063 135.938C163.47 135.647 163.47 135.647 162.836 135.48C162.607 135.409 162.378 135.339 162.142 135.267C161.906 135.198 161.669 135.129 161.426 135.059C158.522 134.214 158.522 134.214 157.617 133.008C157.335 132.163 157.287 131.63 157.286 130.752C157.285 130.474 157.284 130.195 157.284 129.908C157.284 129.608 157.285 129.307 157.285 128.998C157.285 128.689 157.285 128.38 157.284 128.062C157.284 127.409 157.285 126.756 157.286 126.103C157.288 125.102 157.286 124.101 157.284 123.1C157.284 122.466 157.285 121.832 157.285 121.198C157.285 120.897 157.284 120.597 157.284 120.287C157.284 120.009 157.285 119.73 157.286 119.443C157.287 119.075 157.287 119.075 157.287 118.7C157.324 118.066 157.324 118.066 157.617 117.188C157.641 116.796 157.649 116.404 157.646 116.012C157.645 115.79 157.644 115.568 157.643 115.34C157.639 114.995 157.639 114.995 157.636 114.642C157.634 114.409 157.633 114.175 157.632 113.935C157.628 113.359 157.623 112.783 157.617 112.207C157.013 112.143 157.013 112.143 156.613 112.568Z" fill="black"/>
<path d="M146.703 45.6337C146.975 45.6313 147.247 45.629 147.528 45.6265C148.102 45.6225 148.677 45.6194 149.252 45.617C149.832 45.6137 150.411 45.6077 150.99 45.599C155.546 45.5307 160.419 45.4793 164.063 48.6332C164.266 48.8084 164.47 48.9837 164.679 49.1642C167.931 52.1901 169.563 56.2629 169.722 60.6609C169.74 61.1481 169.74 61.1481 169.759 61.6451C169.77 61.9797 169.782 62.3143 169.794 62.6591C169.806 63.0005 169.819 63.3419 169.832 63.6936C169.863 64.5328 169.893 65.3721 169.922 66.2113C170.291 66.2517 170.661 66.2921 171.041 66.3338C172.131 66.453 172.854 66.6874 173.73 67.3832C174.557 68.7332 174.484 70.1629 174.554 71.7045C174.583 72.1282 174.583 72.1282 174.611 72.5605C174.699 74.3926 174.532 75.6856 173.73 77.3441C172.1 78.9329 169.659 79.0853 167.468 79.1157C167.088 79.1089 167.088 79.1089 166.699 79.102C166.692 79.2651 166.684 79.4282 166.676 79.5963C166.533 81.5198 166.057 83.1458 164.764 84.618C164.212 85.4785 164.247 86.1233 164.227 87.1403C164.058 90.209 163.375 92.7947 161.476 95.2438C159.36 97.0974 157.333 97.1469 154.633 97.1287C154.08 97.1304 154.08 97.1304 153.517 97.1321C152.74 97.1329 151.964 97.1313 151.188 97.1258C150.199 97.1191 149.211 97.123 148.222 97.13C147.27 97.1353 146.319 97.1316 145.367 97.1287C145.015 97.1311 144.663 97.1334 144.3 97.1359C141.946 97.1097 140.369 96.8005 138.514 95.2667C136.838 93.3225 136.298 91.6748 136.068 89.127C135.859 86.885 135.421 85.5003 134.069 83.6338C133.139 82.2177 133.008 80.7614 133.008 79.102C132.757 79.091 132.506 79.08 132.247 79.0688C129.996 78.9393 128.267 78.8369 126.471 77.3808C125.27 75.8678 125.3 74.3797 125.317 72.5285C125.315 72.2843 125.313 72.0402 125.311 71.7886C125.316 70.1316 125.442 68.7181 126.434 67.3283C127.537 66.5086 128.979 65.9184 130.371 65.9184C130.367 65.6941 130.362 65.4698 130.357 65.2387C130.339 64.208 130.327 63.1772 130.316 62.1464C130.309 61.7937 130.301 61.4409 130.294 61.0775C130.257 56.53 131.776 52.9127 134.917 49.5979C138.337 46.4408 142.183 45.6718 146.703 45.6337ZM137.892 63.7234C137.002 65.0707 136.873 66.3901 137.109 67.9691C137.605 69.3516 138.24 70.0802 139.453 70.8988C140.733 71.3256 141.976 71.4466 143.254 70.9812C144.42 70.3671 145.127 69.7789 145.605 68.5551C146.019 66.8091 146.072 65.3559 145.145 63.7783C144.127 62.5707 142.863 62.1771 141.339 61.9633C139.902 62.1724 138.863 62.6207 137.892 63.7234ZM155.566 63.2816C155.397 63.4146 155.228 63.5475 155.054 63.6845C154.209 64.7826 154.043 65.8882 154.138 67.2367C154.366 68.8092 154.998 69.8258 156.207 70.8622C157.56 71.4031 158.856 71.4444 160.253 71.0098C161.522 70.3955 162.148 69.5696 162.697 68.2839C163.149 66.8641 163.007 65.7425 162.433 64.3986C161.762 63.1868 160.986 62.5376 159.668 62.1098C157.982 61.7966 156.888 62.206 155.566 63.2816ZM140.918 78.223C140.29 79.4793 140.534 81.1338 140.522 82.5278C140.518 82.9401 140.51 83.3524 140.498 83.7646C140.482 84.3609 140.476 84.9565 140.472 85.553C140.466 85.9098 140.46 86.2666 140.454 86.6342C140.673 87.8689 141.124 88.2896 142.09 89.0629C142.912 89.3371 143.426 89.3957 144.278 89.4031C144.674 89.4073 144.674 89.4073 145.078 89.4116C145.363 89.4128 145.647 89.4141 145.941 89.4154C146.235 89.417 146.528 89.4187 146.831 89.4204C147.453 89.4232 148.075 89.4251 148.696 89.4262C149.645 89.4291 150.594 89.4382 151.543 89.4474C152.148 89.4493 152.752 89.4509 153.357 89.452C153.64 89.4556 153.922 89.4592 154.214 89.4629C155.768 89.4578 156.861 89.3521 158.203 88.477C159.609 86.9739 159.429 85.2182 159.43 83.2768C159.434 83.0222 159.437 82.7677 159.441 82.5054C159.469 79.7111 159.469 79.7111 158.243 77.2884C156.852 76.4855 155.544 76.585 153.964 76.5923C153.638 76.5904 153.312 76.5886 152.976 76.5868C152.288 76.5847 151.599 76.5856 150.911 76.5893C149.857 76.5934 148.805 76.5834 147.751 76.5722C147.082 76.572 146.412 76.5725 145.743 76.574C145.428 76.5701 145.113 76.5662 144.789 76.5622C142.996 76.5846 142.03 76.6654 140.918 78.223Z" fill="black"/>
<path d="M145.605 78.8079C146.581 79.7837 146.367 81.0855 146.429 82.4151C146.447 82.6936 146.466 82.9721 146.485 83.2591C146.545 84.4667 146.569 85.3345 146.112 86.4663C145.605 87.011 145.605 87.011 144.579 87.1392C143.554 87.011 143.554 87.011 142.675 86.4251C142.269 85.2067 142.316 84.0575 142.309 82.7813C142.303 82.5296 142.297 82.2779 142.291 82.0185C142.284 80.9557 142.279 80.1896 142.752 79.2256C143.675 78.4685 144.448 78.6978 145.605 78.8079Z" fill="black"/>
<path d="M156.446 78.8079C157.115 79.2859 157.302 79.548 157.439 80.3643C157.44 80.6241 157.441 80.884 157.442 81.1517C157.443 81.4357 157.444 81.7197 157.445 82.0123C157.442 82.3083 157.438 82.6044 157.435 82.9095C157.438 83.2056 157.442 83.5016 157.445 83.8067C157.444 84.0907 157.443 84.3747 157.442 84.6673C157.44 85.057 157.44 85.057 157.439 85.4546C157.303 86.2633 157.085 86.5143 156.446 87.011C155.649 87.3563 155.329 87.3206 154.487 87.066C153.81 86.7181 153.81 86.7181 153.517 86.1321C153.438 85.0657 153.449 83.9967 153.443 82.9278C153.437 82.6304 153.431 82.333 153.425 82.0266C153.423 81.7412 153.422 81.4559 153.42 81.162C153.418 80.9003 153.415 80.6386 153.412 80.369C153.517 79.6868 153.517 79.6868 153.898 79.162C154.728 78.571 155.465 78.7028 156.446 78.8079Z" fill="black"/>
<path d="M149.834 78.7528C150.187 78.7466 150.187 78.7466 150.547 78.7402C151.171 78.8078 151.171 78.8078 151.757 79.3937C151.833 80.0964 151.833 80.0964 151.835 80.9684C151.835 81.2811 151.836 81.5938 151.837 81.916C151.835 82.2438 151.832 82.5716 151.83 82.9093C151.832 83.2371 151.835 83.5649 151.837 83.9027C151.836 84.2154 151.835 84.5281 151.835 84.8502C151.834 85.138 151.833 85.4258 151.833 85.7223C151.757 86.4249 151.757 86.4249 151.171 87.0109C150.622 87.0784 150.622 87.0784 149.999 87.0658C149.794 87.0639 149.588 87.062 149.377 87.0601C148.827 87.0109 148.827 87.0109 148.241 86.7179C147.831 85.6515 147.909 84.531 147.912 83.4037C147.911 83.0302 147.91 82.6567 147.909 82.2719C148.031 78.7672 148.031 78.7672 149.834 78.7528Z" fill="black"/>
</svg>
