<svg width="300" height="300" viewBox="0 0 300 300" fill="none" xmlns="http://www.w3.org/2000/svg">
<path d="M25.1953 50.0977C25.6032 50.4511 25.6032 50.4511 26.0193 50.8118C27.2015 51.8255 28.407 52.8093 29.6162 53.7907C30.1571 54.2358 30.6927 54.6875 31.2206 55.1479C43.4531 65.7423 59.0805 72.7358 73.8124 79.1675C74.8354 79.6146 75.8556 80.0678 76.8745 80.5241C83.6562 83.5549 90.5437 86.3476 97.4224 89.1495C112.495 95.2901 112.495 95.2901 115.43 97.8516C115.622 98.009 115.815 98.1665 116.013 98.3288C118.86 100.863 119.859 104.722 120.166 108.402C120.245 109.878 120.231 111.354 120.214 112.832C120.213 113.072 120.212 113.312 120.21 113.56C120.172 120.273 119.818 126.978 119.49 133.683C119.352 136.542 119.22 139.402 119.087 142.262C119.054 142.982 119.02 143.702 118.986 144.422C118.656 151.498 118.376 158.576 118.121 165.656C118.103 166.172 118.084 166.688 118.066 167.204C117.966 169.965 117.869 172.727 117.773 175.488C110.573 177.092 110.573 177.092 107.135 177.612C106.693 177.683 106.693 177.683 106.243 177.754C97.3222 179.145 89.6403 178.294 82.1663 172.901C81.4186 172.318 80.6978 171.714 79.9805 171.094C79.6999 170.856 79.4193 170.618 79.1302 170.373C77.0187 168.54 75.2641 166.52 73.6097 164.268C73.3495 163.915 73.0837 163.566 72.814 163.221C72.4455 162.737 72.1087 162.229 71.7773 161.719C71.874 161.429 71.9707 161.139 72.0703 160.84C72.2484 160.881 72.4264 160.922 72.6098 160.965C79.5492 162.561 86.3425 163.245 93.457 163.239C93.6831 163.239 93.9091 163.239 94.1421 163.239C99.7819 163.239 105.407 162.933 111.035 162.598C111.033 162.378 111.031 162.159 111.028 161.932C110.953 153.32 111.204 144.716 111.443 136.108C111.527 133.036 111.61 129.964 111.692 126.892C111.721 125.831 111.751 124.77 111.78 123.709C112.525 114.284 112.525 114.284 108.856 106.018C105.912 103.336 101.952 101.814 98.3459 100.232C97.8593 100.016 97.3727 99.8006 96.8862 99.5847C94.3575 98.4641 91.8234 97.3559 89.2891 96.2482C88.2919 95.8123 87.2947 95.3763 86.2976 94.9402C85.9255 94.7775 85.9255 94.7775 85.5459 94.6116C80.5907 92.4437 75.6775 90.1895 70.7745 87.9063C69.3976 87.2656 68.0179 86.6313 66.6355 86.0023C63.1298 84.4058 59.6862 82.7418 56.2991 80.9067C55.6732 80.5713 55.0432 80.2453 54.4109 79.9221C48.4003 76.8371 42.7349 73.1153 37.6558 68.6554C37.2213 68.2743 36.7834 67.8971 36.3453 67.5201C34.4612 65.864 32.876 64.0952 31.3477 62.1094C31.1309 61.8386 30.9141 61.5678 30.6908 61.2888C28.3009 58.2332 25.1953 54.1205 25.1953 50.0977Z" fill="black"/>
<path d="M29.5898 73.2422C30.8683 73.7206 32.0666 74.3308 33.2748 74.9611C33.7283 75.1959 34.1818 75.4306 34.6354 75.6653C34.9946 75.8514 34.9946 75.8514 35.3611 76.0414C44.2664 80.6511 53.2632 85.0593 62.4155 89.1577C63.782 89.7699 65.145 90.3897 66.5062 91.0137C70.7726 92.968 75.0539 94.883 79.3579 96.7529C79.5924 96.8548 79.8269 96.9567 80.0685 97.0617C80.5468 97.2695 81.0251 97.4773 81.5034 97.6851C84.7226 99.0839 87.9392 100.488 91.1516 101.903C91.69 102.14 92.2287 102.376 92.7676 102.612C95.3519 103.744 97.9249 104.891 100.453 106.145C100.732 106.283 100.732 106.283 101.017 106.424C102.681 107.262 104.191 108.209 105.524 109.515C105.811 109.79 105.811 109.79 106.104 110.07C107.849 112.254 107.626 114.484 107.574 117.169C107.57 117.569 107.566 117.969 107.562 118.369C107.552 119.343 107.538 120.316 107.52 121.289C105.746 121.097 104.118 120.63 102.417 120.102C102.109 120.008 101.802 119.914 101.485 119.816C100.45 119.498 99.4163 119.176 98.3826 118.854C98.0229 118.742 97.6632 118.63 97.2926 118.515C90.2783 116.333 83.2994 114.042 76.3281 111.727C75.52 111.459 74.7116 111.191 73.9031 110.924C59.6383 106.205 59.6383 106.205 53.9062 103.143C53.6266 102.995 53.347 102.847 53.059 102.695C50.7555 101.452 48.6208 100.077 46.582 98.4375C46.4168 98.3049 46.2516 98.1723 46.0814 98.0357C38.6422 92.0064 32.5295 83.6035 29.5898 74.4141C29.5898 74.0273 29.5898 73.6406 29.5898 73.2422Z" fill="black"/>
<path d="M176.953 125.684C176.702 125.932 176.451 126.18 176.192 126.435C173.818 128.784 173.818 128.784 171.583 131.266C171.001 131.946 170.398 132.604 169.794 133.265C165.478 138.065 161.671 143.391 158.203 148.829C158.088 149.009 157.973 149.19 157.854 149.376C152.925 157.163 149.218 165.635 146.192 174.317C146.079 174.641 145.966 174.965 145.85 175.299C142.98 183.637 140.812 192.264 139.453 200.977C139.4 201.322 139.346 201.667 139.29 202.022C138.368 208.098 137.981 214.158 137.722 220.291C137.682 221.222 137.639 222.153 137.596 223.084C137.527 224.602 137.463 226.119 137.403 227.637C137.209 227.637 137.016 227.637 136.817 227.637C136.492 227.232 136.492 227.232 136.137 226.659C136.005 226.447 135.874 226.234 135.738 226.016C135.599 225.784 135.459 225.551 135.315 225.312C135.171 225.073 135.027 224.835 134.879 224.589C127.808 212.669 126.017 198.876 129.273 185.432C131.299 177.565 134.77 170.457 138.868 163.477C139.161 162.97 139.454 162.463 139.748 161.956C142.685 156.927 146.01 152.157 149.707 147.657C149.839 147.497 149.971 147.336 150.106 147.171C153.75 142.76 157.589 138.386 162.084 134.825C162.916 134.161 163.716 133.467 164.521 132.771C167.492 130.295 170.759 128.177 174.152 126.325C174.334 126.224 174.515 126.124 174.703 126.02C175.967 125.355 175.967 125.355 176.953 125.684Z" fill="black"/>
<path d="M172.559 147.949C172.104 149.348 171.63 150.737 171.12 152.116C167.585 161.683 164.782 171.394 162.795 181.399C162.73 181.725 162.73 181.725 162.664 182.057C161.618 187.31 160.694 192.584 159.796 197.864C159.713 198.352 159.63 198.841 159.546 199.329C158.242 206.985 157.011 214.643 156.153 222.363C156.128 222.583 156.103 222.802 156.078 223.028C155.443 228.711 155.156 234.374 155.066 240.092C155.062 240.327 155.058 240.563 155.053 240.806C155.046 241.247 155.041 241.688 155.036 242.129C155.021 243.1 154.986 243.993 154.688 244.922C154.494 244.922 154.301 244.922 154.102 244.922C147.128 230.369 143.067 216.318 145.313 200.098C145.355 199.788 145.398 199.478 145.442 199.16C147.394 185.535 152.051 170.856 160.254 159.668C160.464 159.375 160.674 159.083 160.89 158.781C162.326 156.819 163.858 154.989 165.528 153.223C165.871 152.851 165.871 152.851 166.221 152.472C170.537 147.949 170.537 147.949 172.559 147.949Z" fill="black"/>
<path d="M43.0664 104.297C44.402 104.688 45.5866 105.247 46.8226 105.872C51.8513 108.394 57.117 110.301 62.4023 112.207C62.6079 112.281 62.8135 112.355 63.0253 112.432C73.3124 116.135 83.7918 119.315 94.2524 122.486C94.6563 122.609 95.0602 122.731 95.4641 122.854C97.2195 123.386 98.9752 123.917 100.732 124.443C101.618 124.709 102.504 124.977 103.389 125.244C103.872 125.388 103.872 125.388 104.365 125.534C104.804 125.667 104.804 125.667 105.252 125.803C105.635 125.917 105.635 125.917 106.026 126.034C106.641 126.27 106.641 126.27 107.227 126.855C107.286 127.393 107.286 127.393 107.266 128.052C107.257 128.421 107.257 128.421 107.248 128.798C107.239 129.064 107.229 129.33 107.22 129.604C107.212 129.877 107.205 130.149 107.197 130.429C107.173 131.301 107.145 132.173 107.117 133.044C107.1 133.635 107.083 134.225 107.066 134.815C107.025 136.263 106.98 137.712 106.934 139.16C106.177 139.539 105.836 139.412 105.008 139.264C104.726 139.215 104.444 139.165 104.154 139.114C103.845 139.058 103.535 139.002 103.217 138.944C102.893 138.886 102.569 138.829 102.236 138.77C101.165 138.579 100.094 138.384 99.0234 138.19C98.6574 138.124 98.2914 138.057 97.9143 137.989C58.4423 130.849 58.4423 130.849 48.5874 117.115C45.9744 113.343 43.1807 108.991 43.0664 104.297Z" fill="black"/>
<path d="M162.305 125.39C161.785 129.807 155.698 134.071 152.747 136.999C151.778 137.96 150.81 138.922 149.842 139.885C149.515 140.209 149.515 140.209 149.181 140.539C147.829 141.885 146.549 143.273 145.312 144.726C145.143 144.925 144.973 145.124 144.798 145.329C142.247 148.329 139.912 151.435 137.695 154.687C137.443 155.052 137.191 155.416 136.939 155.781C134.117 159.9 131.619 164.239 129.478 168.749C129.291 169.143 129.101 169.536 128.91 169.928C125.562 176.815 123.686 184.274 122.928 191.876C122.782 193.331 122.782 193.331 122.461 193.652C112.077 194.324 101.524 191.968 93.1641 185.449C93.1641 185.255 93.1641 185.062 93.1641 184.863C93.4654 184.829 93.7667 184.796 94.0771 184.761C102.605 183.798 111.032 182.53 119.332 180.299C120.327 180.032 121.128 179.882 122.168 179.882C122.165 179.665 122.162 179.447 122.159 179.223C122.134 175.813 122.279 172.412 122.424 169.006C122.437 168.696 122.451 168.385 122.464 168.065C122.623 164.342 122.791 160.621 123.047 156.903C123.068 156.588 123.088 156.274 123.11 155.95C123.334 152.94 123.694 150.85 125.684 148.535C125.935 148.233 126.186 147.932 126.437 147.631C130.639 142.619 135.104 138.119 140.332 134.179C140.528 134.031 140.725 133.883 140.927 133.731C145.108 130.609 149.058 128.428 154.147 127.217C155.845 126.805 157.482 126.228 159.119 125.622C160.292 125.205 161.104 124.99 162.305 125.39Z" fill="black"/>
<path d="M209.73 92.4666C211.194 94.1079 212.054 95.6268 212.421 97.7961C212.579 98.6179 212.579 98.6179 212.988 99.3159C213.893 99.8415 214.776 100.131 215.775 100.44C217.37 100.972 218.664 101.853 220.02 102.831C220.331 103.056 220.331 103.056 220.648 103.285C224.205 106.119 226.106 110.28 226.682 114.713C227.048 119.6 225.806 124.26 222.709 128.102C220.782 130.206 218.355 131.575 215.918 133.007C214.467 131.684 214.467 131.684 214.343 130.407C214.388 129.548 214.473 128.696 214.555 127.84C214.932 124.854 214.932 124.854 213.867 122.167C210.111 118.584 202.955 118.795 198.086 118.885C196.243 118.945 194.403 119.077 192.563 119.197C176.601 120.234 176.601 120.234 172.852 118.359C172.852 118.165 172.852 117.972 172.852 117.773C178.842 116.699 184.835 115.656 190.851 114.733C191.092 114.696 191.333 114.659 191.582 114.621C204.496 112.637 204.496 112.637 210.352 114.55C210.659 114.65 210.967 114.75 211.284 114.852C213.872 115.809 215.954 117.23 217.346 119.659C218.285 121.729 218.529 124.037 218.848 126.269C221.267 121.849 222.348 117.967 221.204 112.95C220.101 109.209 217.763 106.549 214.453 104.589C212.018 103.341 209.517 102.733 206.836 102.246C207.152 101.581 207.421 101.075 207.916 100.524C208.369 99.9095 208.369 99.9095 208.319 99.0961C207.57 96.8056 205.89 95.312 203.906 94.0424C203.739 93.9344 203.572 93.8264 203.4 93.7151C194.423 88.6136 179.137 90.1415 169.336 91.6987C169.023 91.7474 168.71 91.7961 168.388 91.8463C161.019 93.0326 154.103 95.2449 147.363 98.437C146.962 98.6267 146.962 98.6267 146.554 98.8203C142.615 100.705 138.82 102.818 135.031 104.984C133.593 105.802 132.149 106.609 130.701 107.409C130.312 107.627 130.312 107.627 129.915 107.85C128.351 108.711 126.813 109.366 125.098 109.863C125.346 108.614 125.985 107.95 126.874 107.08C127.029 106.926 127.184 106.773 127.344 106.616C136.204 98.1046 148.774 91.8186 160.547 88.769C160.995 88.6525 160.995 88.6525 161.451 88.5337C175.053 85.0628 198.443 81.5126 209.73 92.4666Z" fill="black"/>
<path d="M186.328 143.848C186.914 144.141 186.914 144.141 187.213 145.024C187.321 145.423 187.427 145.823 187.53 146.223C187.588 146.441 187.646 146.658 187.705 146.881C187.896 147.603 188.083 148.325 188.269 149.048C188.366 149.421 188.366 149.421 188.465 149.801C195.015 175.041 198.747 202.553 184.623 230.856C183.859 232.15 183.053 233.413 182.227 234.668C182.033 234.966 182.033 234.966 181.835 235.27C173.068 248.659 173.068 248.659 168.103 250.089C167.93 250.124 167.757 250.159 167.578 250.195C167.285 249.609 167.285 249.609 167.464 249.01C168.188 247.293 168.978 245.632 169.828 243.975C177.992 228.018 181.959 210.438 184.699 192.828C184.734 192.606 184.769 192.383 184.805 192.154C185.817 185.671 186.122 179.251 186.085 172.693C186.08 171.686 186.079 170.678 186.078 169.671C186.074 167.775 186.068 165.879 186.061 163.983C186.048 160.571 186.038 157.158 186.032 153.746C186.03 152.747 186.027 151.747 186.022 150.748C186.018 149.641 186.014 148.535 186.012 147.429C186.01 147.098 186.008 146.767 186.006 146.426C186.005 146.127 186.005 145.829 186.004 145.521C186.003 145.26 186.002 144.999 186.001 144.73C186.035 144.141 186.035 144.141 186.328 143.848Z" fill="black"/>
<path d="M203.468 121.747C203.758 121.744 204.048 121.741 204.347 121.738C206.221 121.761 208.051 121.945 209.766 122.754C210.056 123.189 210.056 123.189 210.352 123.633C210.062 123.775 209.772 123.917 209.473 124.064C204.937 126.34 202.242 129.373 200.616 134.218C198.807 140.012 198.633 145.784 199.512 151.758C199.565 152.13 199.565 152.13 199.619 152.508C200.404 157.709 202.001 162.702 203.566 167.709C208.806 184.626 208.669 202.446 200.487 218.411C199.688 219.911 198.782 221.301 197.755 222.657C197.559 222.92 197.363 223.183 197.162 223.454C196.016 224.945 194.834 226.178 193.36 227.344C193.731 225.534 194.211 223.787 194.757 222.021C196.516 216.314 197.661 210.589 198.56 204.694C198.592 204.488 198.623 204.283 198.655 204.071C198.746 203.474 198.834 202.877 198.922 202.281C198.972 201.937 199.023 201.594 199.075 201.24C199.397 198.695 199.562 196.176 199.582 193.612C199.585 193.309 199.588 193.007 199.591 192.695C199.665 182.906 198.687 173.928 196.583 164.356C194.142 153.127 191.495 140.815 197.883 130.335C198.889 128.874 200.049 127.555 201.27 126.27C197.708 127.13 193.642 128.241 191.602 131.543C191.388 131.995 191.175 132.447 190.961 132.898C190.058 134.59 188.676 135.07 186.915 135.645C184.981 136.225 183.064 136.624 181.055 136.817C180.762 136.231 180.762 136.231 180.908 135.582C182.837 130.002 187.373 126.451 192.5 123.871C196.066 122.31 199.59 121.775 203.468 121.747Z" fill="black"/>
<path d="M54.7852 132.715C56.2408 132.919 57.5062 133.505 58.8501 134.07C73.8327 140.177 90.783 141.628 106.641 144.141C106.701 153.666 106.701 153.666 106.348 157.617C93.2734 158.481 77.274 158.563 66.6731 149.528C61.6901 145.138 56.6888 139.214 54.7852 132.715Z" fill="black"/>
<path d="M175.488 160.254C176.046 161.09 176.163 161.367 176.283 162.309C176.33 162.671 176.33 162.671 176.379 163.041C176.411 163.305 176.444 163.57 176.477 163.843C176.513 164.12 176.549 164.398 176.586 164.684C176.665 165.303 176.744 165.923 176.822 166.542C176.965 167.669 177.112 168.796 177.26 169.922C177.465 171.486 177.669 173.05 177.871 174.614C177.913 174.938 177.955 175.262 177.998 175.596C178.04 175.947 178.082 176.298 178.125 176.66C178.151 176.876 178.177 177.092 178.204 177.315C178.42 179.256 178.47 181.18 178.478 183.133C178.479 183.468 178.481 183.804 178.483 184.149C178.485 184.859 178.487 185.568 178.488 186.277C178.491 187.334 178.5 188.392 178.51 189.449C178.537 195.462 178.131 201.461 176.752 207.33C176.677 207.655 176.602 207.98 176.525 208.315C174.002 218.852 168.841 228.895 162.891 237.891C162.012 237.598 162.012 237.598 161.67 236.967C161.571 236.698 161.472 236.429 161.371 236.151C161.27 235.889 161.169 235.626 161.065 235.356C160.55 233.114 160.858 230.944 161.365 228.731C161.478 228.211 161.591 227.691 161.703 227.171C161.762 226.901 161.822 226.631 161.883 226.353C162.858 221.895 163.716 217.443 164.282 212.915C164.311 212.689 164.339 212.463 164.368 212.23C164.538 210.858 164.701 209.484 164.861 208.111C165.107 206 165.361 203.891 165.619 201.782C165.648 201.544 165.677 201.306 165.707 201.061C166.533 194.364 167.623 187.707 168.75 181.055C168.797 180.777 168.844 180.499 168.893 180.212C169.157 178.658 169.427 177.105 169.704 175.553C169.786 175.093 169.868 174.633 169.948 174.173C170.613 170.378 171.461 166.61 173.474 163.275C173.668 162.948 173.862 162.62 174.062 162.283C174.512 161.579 174.974 160.911 175.488 160.254Z" fill="black"/>
<path d="M270.41 71.7773C270.507 71.7773 270.604 71.7773 270.703 71.7773C270.448 79.6826 265.413 87.3368 260.449 93.1641C260.162 93.524 259.875 93.8841 259.589 94.2444C259.389 94.468 259.19 94.6915 258.984 94.9219C258.791 94.9219 258.598 94.9219 258.398 94.9219C258.398 95.1152 258.398 95.3086 258.398 95.5078C257.676 96.2542 256.853 96.8958 256.055 97.5586C255.731 97.8322 255.731 97.8322 255.401 98.1113C249.938 102.623 243.618 106.175 237.012 108.691C236.728 108.8 236.444 108.909 236.152 109.022C235.262 109.361 234.371 109.696 233.478 110.028C233.197 110.133 232.916 110.239 232.626 110.347C232.366 110.442 232.106 110.536 231.838 110.633C231.606 110.718 231.375 110.803 231.136 110.89C230.566 111.035 230.566 111.035 229.98 110.742C229.742 110.176 229.526 109.6 229.321 109.021C228.298 106.289 227.126 103.94 225.094 101.824C224.707 101.367 224.707 101.367 224.707 100.781C224.538 100.715 224.369 100.648 224.194 100.58C223.37 100.099 222.941 99.4811 222.363 98.7305C222.607 98.613 222.851 98.4956 223.102 98.3746C234.757 92.7604 234.757 92.7604 246.245 86.8153C247.087 86.3645 247.931 85.9175 248.775 85.4702C260.269 79.6364 260.269 79.6364 270.41 71.7773Z" fill="black"/>
<path d="M249.023 129.199C249.379 130.265 249.221 130.562 248.851 131.601C248.743 131.905 248.635 132.209 248.524 132.522C248.405 132.845 248.286 133.169 248.163 133.502C248.042 133.833 247.921 134.163 247.796 134.504C244.352 143.731 238.605 150.258 229.662 154.399C227.756 155.251 225.862 155.958 223.828 156.445C223.495 156.532 223.161 156.619 222.818 156.709C219.917 157.348 217.044 157.402 214.087 157.397C213.887 157.397 213.688 157.397 213.482 157.397C210.864 157.388 208.271 157.27 205.664 157.031C204.472 153.39 203.582 149.734 203.32 145.898C204.312 145.327 205.245 145.136 206.369 144.943C206.746 144.876 207.123 144.809 207.511 144.741C207.811 144.688 207.811 144.688 208.117 144.635C218.483 142.809 229.036 140.12 238.477 135.352C238.707 135.238 238.937 135.124 239.174 135.007C242.613 133.297 245.84 131.343 249.023 129.199Z" fill="black"/>
<path d="M275.098 51.2695C274.462 56.6675 271.217 61.3167 267.773 65.332C267.473 65.6866 267.473 65.6866 267.167 66.0484C265.903 67.5108 264.573 68.7883 263.086 70.0195C262.768 70.2926 262.45 70.5657 262.133 70.8389C252.198 79.2633 239.769 85.272 228.159 91.0026C227.238 91.4587 226.319 91.9208 225.402 92.3843C224.677 92.7491 223.951 93.1099 223.224 93.469C222.815 93.6715 222.406 93.8749 221.998 94.079C221.316 94.4186 220.631 94.7531 219.946 95.0867C219.736 95.192 219.527 95.2973 219.31 95.4057C217.837 96.1142 217.837 96.1142 217.052 96.0144C216.202 95.6831 216.046 95.0865 215.662 94.281C214.927 92.8383 214.165 91.9134 212.988 90.8203C212.988 90.627 212.988 90.4336 212.988 90.2344C212.807 90.1558 212.626 90.0773 212.439 89.9963C211.816 89.6484 211.816 89.6484 211.23 88.7695C211.508 88.6463 211.785 88.523 212.071 88.396C219.339 85.1645 226.579 81.8748 233.789 78.5156C234.121 78.3611 234.453 78.2066 234.795 78.0474C238.175 76.4711 241.501 74.8131 244.785 73.0451C245.539 72.6393 246.295 72.237 247.052 71.8346C252.576 68.8767 257.992 65.7722 262.921 61.8841C263.312 61.5758 263.709 61.2737 264.107 60.973C264.753 60.4838 265.386 59.9824 266.016 59.4727C266.16 59.3568 266.303 59.2409 266.452 59.1215C268.862 57.1645 271.029 55.0673 273.106 52.7579C273.369 52.4675 273.369 52.4675 273.637 52.1713C273.792 51.9973 273.947 51.8233 274.107 51.644C274.512 51.2695 274.512 51.2695 275.098 51.2695Z" fill="black"/>
<path d="M261.328 102.539C258.551 109.615 255.792 115.984 250.488 121.582C250.248 121.841 250.007 122.101 249.759 122.368C243.519 128.886 235.312 132.239 226.904 135.077C226.574 135.189 226.244 135.301 225.904 135.416C224.225 135.967 222.661 136.384 220.898 136.523C221.374 135.599 221.897 134.927 222.656 134.235C226.625 130.358 229.219 124.925 230.273 119.531C230.272 119.209 230.27 118.888 230.268 118.556C230.274 117.511 230.336 116.926 230.859 116.016C232.292 115.002 234.097 114.556 235.744 114.009C237.615 113.362 239.445 112.606 241.278 111.859C241.478 111.778 241.678 111.697 241.885 111.613C247.633 109.28 253.22 106.686 258.483 103.381C258.73 103.228 258.977 103.074 259.232 102.917C259.447 102.78 259.662 102.643 259.883 102.502C260.449 102.246 260.449 102.246 261.328 102.539Z" fill="black"/>
<path d="M236.132 158.496C235.688 159.741 235.055 160.817 234.338 161.92C234.221 162.101 234.104 162.281 233.984 162.467C232.939 164.057 231.798 165.543 230.566 166.992C230.383 167.214 230.2 167.436 230.012 167.665C226.299 172.042 220.6 176.072 214.787 176.802C214.41 176.828 214.034 176.853 213.647 176.88C213.268 176.909 212.888 176.937 212.498 176.967C211.523 176.953 211.523 176.953 210.644 176.367C210.406 175.676 210.406 175.676 210.225 174.809C210.156 174.49 210.087 174.172 210.016 173.845C209.945 173.505 209.874 173.165 209.802 172.815C209.22 170.142 208.569 167.55 207.68 164.963C207.435 164.11 207.4 163.475 207.421 162.598C207.704 162.585 207.987 162.571 208.278 162.558C221.685 161.988 221.685 161.988 234.635 158.701C235.253 158.496 235.253 158.496 236.132 158.496Z" fill="black"/>
<path d="M158.789 113.086C158.39 114.282 157.633 114.497 156.573 115.045C151.899 117.568 147.426 120.631 143.261 123.926C143.016 124.119 142.77 124.312 142.516 124.512C141.784 125.093 141.058 125.68 140.332 126.27C140.076 126.474 139.82 126.678 139.557 126.889C137.801 128.303 136.127 129.781 134.478 131.316C133.822 131.926 133.15 132.514 132.472 133.098C131.174 134.23 129.955 135.431 128.741 136.652C128.531 136.86 128.322 137.069 128.105 137.284C126.885 138.507 125.724 139.759 124.609 141.079C124.416 141.29 124.416 141.29 124.218 141.504C124.122 141.504 124.025 141.504 123.926 141.504C123.894 139.805 123.89 138.11 123.918 136.411C123.923 135.94 123.921 135.468 123.907 134.997C123.865 133.457 123.9 132.003 124.91 130.76C126.006 129.677 127.244 128.797 128.509 127.923C129.204 127.438 129.879 126.932 130.552 126.416C138.163 120.612 148.724 113.086 158.789 113.086Z" fill="black"/>
<path d="M191.778 100.183C193.819 101.072 196.031 101.134 198.159 100.475C199.018 100.117 199.852 99.736 200.684 99.3173C200.91 99.2048 201.136 99.0922 201.369 98.9763C201.61 98.855 201.61 98.855 201.855 98.7314C201.816 100.293 201.204 101.17 200.188 102.282C199.157 103.121 197.996 103.486 196.759 103.942C195.911 104.254 195.911 104.254 195.428 105.195C195.326 105.479 195.223 105.763 195.117 106.056C193.407 107.719 191.28 108.376 188.947 108.473C185.721 108.419 182.975 107.393 180.693 105.107C180.025 104.061 180.057 103.385 180.103 102.155C180.113 101.788 180.124 101.421 180.135 101.042C180.155 100.623 180.155 100.623 180.176 100.196C177.451 99.7112 174.719 99.352 171.973 99.0243C171.973 98.1454 171.973 98.1454 172.504 97.5778C178.945 93.4098 185.639 97.4042 191.778 100.183ZM183.984 101.954C184.139 103.136 184.451 103.764 185.248 104.646C185.509 104.942 185.509 104.942 185.775 105.244C186.534 105.956 187.2 106.287 188.214 106.495C189.402 106.263 189.747 105.567 190.43 104.591C190.43 104.397 190.43 104.204 190.43 104.005C189.575 103.717 188.721 103.431 187.866 103.144C187.504 103.022 187.504 103.022 187.134 102.898C186.9 102.819 186.665 102.741 186.424 102.66C186.209 102.588 185.995 102.516 185.773 102.442C185.181 102.255 184.588 102.098 183.984 101.954Z" fill="black"/>
<path d="M162.012 100.781C161.642 101.521 161.399 101.553 160.643 101.857C160.41 101.953 160.178 102.049 159.938 102.147C159.55 102.305 159.55 102.305 159.155 102.466C149.814 106.381 141.015 111.206 132.568 116.786C131.987 117.17 131.405 117.554 130.823 117.938C130.055 118.444 129.289 118.953 128.524 119.463C128.17 119.698 127.815 119.932 127.461 120.167C127.146 120.376 126.832 120.585 126.508 120.801C125.808 121.215 125.305 121.455 124.512 121.582C125.173 117.575 128.885 114.341 131.984 111.984C138.557 107.285 153.642 98.3264 162.012 100.781Z" fill="black"/>
<path d="M207.423 130.078C210.173 131.231 211.478 134.476 212.623 137.044C212.989 137.988 212.989 137.988 212.989 138.867C209.883 139.681 206.777 140.363 203.614 140.918C203.367 137.338 204.573 133.926 206.544 130.957C207.037 130.429 207.037 130.429 207.423 130.078Z" fill="black"/>
<path d="M211.523 180.762C211.954 180.774 212.384 180.808 212.813 180.851C213.074 180.877 213.335 180.903 213.603 180.93C214.015 180.974 214.015 180.974 214.435 181.018C214.708 181.045 214.981 181.072 215.263 181.099C217.306 181.309 217.306 181.309 217.969 181.641C217.969 181.834 217.969 182.027 217.969 182.227C217.44 182.616 217.44 182.616 216.708 183.053C216.446 183.21 216.184 183.366 215.915 183.528C215.638 183.691 215.361 183.853 215.076 184.021C214.801 184.186 214.527 184.351 214.244 184.521C212.189 185.742 212.189 185.742 211.523 185.742C211.467 184.967 211.412 184.192 211.359 183.417C211.342 183.196 211.326 182.975 211.309 182.747C211.271 182.183 211.249 181.619 211.23 181.055C211.327 180.958 211.424 180.861 211.523 180.762Z" fill="black"/>
<path d="M204.492 105.762C205.371 105.798 205.371 105.798 206.25 106.055C206.653 106.659 206.653 106.659 206.836 107.227C205.844 108.277 204.863 109.13 203.613 109.863C203.323 109.863 203.033 109.863 202.734 109.863C202.586 108.308 202.961 107.571 203.906 106.348C204.1 106.154 204.293 105.961 204.492 105.762Z" fill="black"/>
</svg>
