<svg width="300" height="300" viewBox="0 0 300 300" fill="none" xmlns="http://www.w3.org/2000/svg">
<path d="M144.301 76.6588C144.718 76.6569 145.135 76.6549 145.552 76.6529C146.424 76.6494 147.296 76.6483 148.168 76.6486C149.278 76.6487 150.388 76.6407 151.498 76.6306C152.359 76.624 153.22 76.6229 154.081 76.6232C154.49 76.6225 154.899 76.62 155.307 76.6154C158.106 76.587 160.398 76.8273 162.748 78.4326C166.443 82.2278 166.94 87.1826 167.633 92.2147C167.69 92.615 167.746 93.0152 167.803 93.4154C167.95 94.4567 168.095 95.4982 168.24 96.5398C168.472 98.2089 168.707 99.8777 168.942 101.546C169.023 102.122 169.102 102.697 169.182 103.273C169.412 104.91 169.648 106.546 169.918 108.176C169.98 108.555 169.98 108.555 170.044 108.942C170.184 109.645 170.184 109.645 170.862 110.291C171.131 110.439 171.401 110.588 171.679 110.742C171.985 110.921 172.291 111.1 172.606 111.284C176.535 113.297 180.151 113.976 184.478 112.646C186.856 111.686 188.877 109.913 189.925 107.553C190.03 107.246 190.03 107.246 190.136 106.933C190.285 106.516 190.285 106.516 190.437 106.091C190.878 104.528 190.803 102.936 190.802 101.324C190.808 100.623 190.814 99.9223 190.82 99.2214C190.827 98.124 190.832 97.0268 190.833 95.9294C190.836 94.865 190.846 93.8009 190.857 92.7366C190.855 92.4121 190.854 92.0876 190.852 91.7533C190.889 88.8707 191.595 86.4637 193.592 84.3229C196.929 81.5601 200.669 81.447 204.784 81.7377C208.946 82.506 212.547 85.1329 214.947 88.5492C217.817 92.8027 218.69 97.0716 218.671 102.164C218.673 102.582 218.675 103.001 218.677 103.419C218.683 104.557 218.683 105.695 218.682 106.833C218.681 108.065 218.686 109.297 218.69 110.529C218.698 112.938 218.7 115.346 218.701 117.754C218.701 119.712 218.703 121.669 218.706 123.627C218.713 129.182 218.717 134.738 218.717 140.293C218.717 140.592 218.717 140.891 218.717 141.199C218.717 141.498 218.717 141.798 218.717 142.106C218.716 146.962 218.725 151.819 218.737 156.675C218.75 161.667 218.756 166.659 218.755 171.652C218.755 174.452 218.757 177.253 218.767 180.053C218.775 182.436 218.776 184.818 218.771 187.201C218.768 188.416 218.768 189.63 218.775 190.845C218.782 191.958 218.781 193.071 218.773 194.184C218.771 194.776 218.778 195.367 218.785 195.959C218.758 198.272 218.419 199.852 216.796 201.562C215.503 202.632 214.353 202.773 212.694 202.734C211.144 202.236 210.416 201.365 209.472 200.097C209.123 199.399 209.141 198.974 209.139 198.195C209.138 197.917 209.136 197.638 209.135 197.351C209.135 197.042 209.135 196.734 209.134 196.416C209.133 195.927 209.133 195.927 209.131 195.427C209.127 194.326 209.125 193.224 209.123 192.123C209.121 191.335 209.119 190.548 209.116 189.76C209.111 188.057 209.106 186.353 209.103 184.649C209.097 182.164 209.09 179.679 209.082 177.194C209.07 173.134 209.058 169.073 209.048 165.013C209.047 164.77 209.046 164.526 209.046 164.276C209.043 163.292 209.041 162.308 209.038 161.324C209.031 158.659 209.024 155.993 209.017 153.327C209.016 153.09 209.016 152.853 209.015 152.608C209.004 148.587 208.993 144.565 208.98 140.543C208.974 138.297 208.967 136.051 208.962 133.805C208.95 128.612 208.931 123.419 208.898 118.226C208.889 116.9 208.882 115.574 208.876 114.248C208.865 111.925 208.849 109.602 208.826 107.279C208.815 106.176 208.806 105.072 208.802 103.968C208.797 102.753 208.783 101.538 208.769 100.323C208.768 99.9659 208.768 99.6092 208.768 99.2417C208.727 96.7296 208.358 94.5911 206.725 92.6141C206.471 92.4087 206.218 92.2032 205.956 91.9916C205.696 91.768 205.437 91.5444 205.169 91.3141C203.846 90.64 202.726 90.5822 201.269 90.8197C200.463 91.1859 200.463 91.1859 200.097 91.9916C199.923 92.8696 199.842 93.7347 199.804 94.6283C199.997 94.725 200.191 94.8217 200.39 94.9213C200.78 95.5072 201.171 96.0931 201.562 96.6791C201.941 97.0807 202.33 97.474 202.734 97.8509C203.319 98.4369 203.319 98.4369 203.612 99.4806C203.709 99.8129 203.806 100.145 203.905 100.488C204.099 100.584 204.292 100.681 204.491 100.781C204.648 101.483 204.731 102.116 204.784 102.831C204.804 103.083 204.823 103.335 204.843 103.595C204.926 105.713 204.543 107.489 203.897 109.503C202.829 113.554 203.269 118.178 203.259 122.328C203.257 123.082 203.254 123.836 203.251 124.59C203.244 126.206 203.239 127.822 203.234 129.438C203.228 131.774 203.219 134.11 203.211 136.447C203.197 140.239 203.184 144.03 203.172 147.822C203.161 151.503 203.149 155.183 203.136 158.864C203.134 159.205 203.134 159.205 203.133 159.553C203.129 160.693 203.125 161.834 203.121 162.974C203.088 172.419 203.056 181.863 203.027 191.308C201.669 191.06 201.032 190.238 200.152 189.239C199.934 188.998 199.934 188.998 199.712 188.752C199.419 188.427 199.129 188.099 198.842 187.768C198.51 187.397 198.165 187.036 197.808 186.688C196.596 185.453 196.054 184.599 196.024 182.858C196.032 182.489 196.032 182.489 196.042 182.112C196.04 181.844 196.038 181.577 196.036 181.301C196.033 180.409 196.044 179.518 196.055 178.626C196.056 177.985 196.056 177.344 196.055 176.703C196.054 174.966 196.066 173.229 196.08 171.492C196.093 169.675 196.094 167.859 196.097 166.042C196.103 162.603 196.12 159.165 196.141 155.727C196.157 152.979 196.168 150.231 196.176 147.483C196.176 147.289 196.177 147.095 196.177 146.896C196.18 145.924 196.182 144.953 196.185 143.981C196.206 135.928 196.243 127.876 196.288 119.824C195.156 120.258 194.242 120.743 193.359 121.581C192.918 122.926 192.973 124.264 193.004 125.663C193.002 126.081 192.999 126.499 192.995 126.918C192.988 128.055 192.998 129.191 193.012 130.329C193.023 131.534 193.018 132.74 193.014 133.945C193.009 136.245 193.018 138.544 193.034 140.844C193.052 143.653 193.052 146.461 193.052 149.27C193.053 150.27 193.053 151.27 193.053 152.269C193.053 152.637 193.053 152.637 193.053 153.013C193.054 154.73 193.058 156.447 193.063 158.163C193.084 165.797 192.985 173.423 192.773 181.054C191.541 180.497 190.769 179.649 189.88 178.655C189.732 178.494 189.584 178.332 189.432 178.165C188.979 177.666 188.53 177.166 188.085 176.66C187.944 176.522 187.803 176.384 187.658 176.242C186.584 175.127 186.127 174.361 186.112 172.805C186.119 172.584 186.125 172.363 186.132 172.135C186.133 171.896 186.133 171.657 186.133 171.41C186.136 170.622 186.151 169.835 186.166 169.047C186.17 168.491 186.173 167.935 186.176 167.379C186.184 165.911 186.203 164.445 186.224 162.978C186.255 160.656 186.27 158.335 186.287 156.013C186.294 155.173 186.302 154.332 186.31 153.492C186.346 149.293 186.265 145.111 186.034 140.917C182.832 144.058 182.747 148.1 182.701 152.372C182.697 152.852 182.694 153.332 182.69 153.813C182.685 154.313 182.679 154.814 182.673 155.315C182.658 156.621 182.647 157.927 182.636 159.233C182.624 160.571 182.609 161.908 182.594 163.246C182.566 165.862 182.541 168.477 182.519 171.093C181.471 170.604 180.883 170.067 180.12 169.189C179.916 168.956 179.713 168.724 179.503 168.484C179.388 168.345 179.273 168.206 179.155 168.062C178.697 167.541 178.697 167.541 178.043 167.022C176.607 165.717 175.931 164.655 175.786 162.736C175.748 161.491 175.775 160.253 175.817 159.008C175.826 158.478 175.835 157.948 175.843 157.418C175.924 153.864 176.403 150.593 177.367 147.169C179.354 139.227 178.218 130.423 174.093 123.383C172.687 121.072 171.096 118.88 169.417 116.761C169.287 116.596 169.157 116.43 169.023 116.26C168.664 115.808 168.3 115.359 167.937 114.911C165.989 112.085 165.705 109.145 165.27 105.816C165.196 105.275 165.122 104.735 165.047 104.194C164.688 101.58 164.346 98.9636 164.007 96.3465C163.856 95.1818 163.703 94.0174 163.549 92.8529C163.441 92.0274 163.338 91.2014 163.236 90.3753C162.826 85.7804 162.826 85.7804 160.528 81.994C159.33 81.2297 158.494 81.1124 157.102 81.0916C156.756 81.0857 156.41 81.0799 156.053 81.0739C155.68 81.069 155.306 81.0641 154.921 81.059C154.539 81.0529 154.156 81.0469 153.762 81.0406C152.747 81.0244 151.731 81.0099 150.715 80.9958C149.678 80.9811 148.641 80.9648 147.604 80.9486C145.571 80.9171 143.537 80.8874 141.503 80.8588C141.609 81.0212 141.715 81.1835 141.824 81.3509C141.959 81.5631 142.095 81.7753 142.235 81.994C142.371 82.2047 142.507 82.4155 142.647 82.6326C142.968 83.2025 142.968 83.2025 142.968 83.7884C143.539 83.7314 143.539 83.7314 144.14 83.4955C144.333 83.1088 144.527 82.722 144.726 82.3236C146.273 82.517 147.819 82.7103 149.413 82.9095C148.557 84.8614 147.578 86.6752 145.554 87.5925C144.161 87.9865 143.089 87.9328 141.77 87.3373C140.089 86.3579 138.908 84.9861 137.694 83.4955C136.447 82.8719 134.83 83.0158 133.516 83.3925C131.693 84.2053 130.785 85.4719 130.004 87.2675C129.722 88.4444 129.593 89.6151 129.491 90.8197C129.796 90.8061 130.1 90.7925 130.414 90.7785C133.298 90.6881 135.67 90.7671 137.969 92.724C138.169 92.9657 138.368 93.2074 138.573 93.4564C138.737 93.6377 138.9 93.819 139.068 94.0057C140.688 96.6292 140.089 99.7014 139.484 102.544C138.977 104.521 138.058 106.309 137.109 108.105C136.976 108.356 136.844 108.608 136.708 108.867C135.102 111.708 132.999 114.329 130.918 116.836C128.838 119.345 127.161 121.897 125.683 124.804C125.535 125.09 125.388 125.377 125.236 125.672C121.978 132.405 121.586 140.765 123.33 147.987C124.12 151.289 124.445 154.465 124.451 157.859C124.456 158.67 124.481 159.478 124.507 160.288C124.573 164.603 124.573 164.603 122.956 166.396C122.501 166.795 122.043 167.189 121.581 167.578C121.192 168.051 120.811 168.532 120.446 169.024C119.295 170.556 119.295 170.556 118.652 171.093C118.361 171.093 118.071 171.093 117.773 171.093C117.77 170.798 117.768 170.503 117.765 170.199C117.743 167.41 117.717 164.622 117.688 161.833C117.674 160.399 117.66 158.966 117.649 157.533C117.638 156.148 117.625 154.763 117.609 153.378C117.604 152.851 117.599 152.324 117.596 151.798C117.591 151.056 117.582 150.315 117.573 149.574C117.572 149.359 117.572 149.144 117.571 148.922C117.539 146.877 117.241 144.822 116.216 143.023C116.103 142.816 115.989 142.608 115.872 142.395C115.329 141.662 114.681 141.182 113.964 140.624C113.966 140.795 113.968 140.966 113.971 141.142C114.022 145.312 114.061 149.481 114.085 153.651C114.098 155.668 114.114 157.684 114.141 159.7C114.167 161.647 114.18 163.594 114.186 165.541C114.191 166.283 114.199 167.025 114.212 167.767C114.229 168.808 114.231 169.849 114.23 170.89C114.243 171.347 114.243 171.347 114.256 171.813C114.228 174.256 113.273 175.513 111.62 177.245C111.287 177.618 110.954 177.991 110.622 178.365C110.321 178.688 110.019 179.011 109.716 179.333C109.559 179.501 109.402 179.67 109.24 179.843C108.862 180.248 108.484 180.651 108.105 181.054C107.815 180.957 107.525 180.861 107.226 180.761C107.226 180.534 107.226 180.308 107.227 180.074C107.233 174.49 107.238 168.907 107.241 163.323C107.242 160.622 107.244 157.922 107.248 155.221C107.255 149.629 107.254 144.037 107.235 138.445C107.226 136.014 107.228 133.584 107.246 131.153C107.253 129.921 107.25 128.689 107.244 127.457C107.243 126.921 107.247 126.386 107.256 125.851C107.267 125.143 107.263 124.438 107.254 123.731C107.255 123.352 107.257 122.974 107.259 122.584C106.766 121.07 105.649 120.563 104.296 119.824C104.297 120.317 104.297 120.317 104.299 120.821C104.321 128.837 104.327 136.852 104.318 144.868C104.314 148.744 104.315 152.62 104.327 156.496C104.338 159.875 104.339 163.254 104.33 166.633C104.325 168.422 104.325 170.211 104.336 172C104.346 173.685 104.344 175.369 104.332 177.054C104.33 177.671 104.333 178.288 104.34 178.905C104.398 184.141 104.398 184.141 102.723 186.213C102.281 186.652 101.83 187.083 101.366 187.499C101.051 187.856 100.739 188.217 100.435 188.583C100.172 188.876 99.9093 189.168 99.6452 189.459C99.5107 189.612 99.3763 189.765 99.2378 189.923C98.8916 190.304 98.5193 190.662 98.1437 191.015C97.8537 191.015 97.5636 191.015 97.2648 191.015C97.2646 190.848 97.2644 190.68 97.2643 190.507C97.2537 180.575 97.2371 170.642 97.2127 160.709C97.2097 159.516 97.2069 158.323 97.204 157.13C97.2034 156.892 97.2029 156.655 97.2023 156.41C97.1932 152.566 97.1882 148.722 97.1848 144.878C97.1811 140.933 97.1731 136.987 97.1609 133.042C97.1536 130.608 97.1496 128.174 97.1501 125.741C97.1501 124.071 97.1458 122.401 97.1382 120.731C97.1339 119.768 97.1321 118.805 97.1342 117.843C97.1361 116.797 97.1309 115.751 97.1239 114.705C97.1261 114.404 97.1284 114.102 97.1308 113.791C97.1098 112.017 96.8182 110.653 96.0796 109.034C94.973 106.515 95.0986 102.942 96.0563 100.396C96.8732 98.6891 98.0361 97.323 99.2835 95.9169C100.104 94.9843 100.235 94.5401 100.231 93.3282C100.232 93.099 100.233 92.8698 100.233 92.6336C100.219 91.9391 100.219 91.9391 99.9015 91.1127C98.4538 90.2611 97.213 90.6336 95.6535 90.9845C93.8081 92.0456 92.6623 93.8247 91.9914 95.8002C91.729 96.889 91.6613 97.8984 91.6602 99.0172C91.6592 99.3708 91.6581 99.7243 91.657 100.089C91.6573 100.48 91.6576 100.871 91.658 101.263C91.6572 101.679 91.6564 102.096 91.6554 102.512C91.6532 103.657 91.6527 104.801 91.6525 105.946C91.652 107.18 91.6497 108.415 91.6477 109.649C91.6443 111.788 91.6419 113.928 91.64 116.067C91.637 119.448 91.631 122.829 91.6245 126.211C91.6223 127.368 91.6201 128.525 91.6179 129.682C91.6174 129.971 91.6168 130.26 91.6163 130.558C91.6102 133.849 91.6046 137.139 91.5994 140.43C91.5989 140.731 91.5984 141.032 91.5979 141.342C91.5902 146.218 91.5848 151.093 91.5799 155.969C91.5748 160.975 91.5663 165.98 91.555 170.986C91.5482 174.074 91.5441 177.161 91.5435 180.249C91.5429 182.365 91.5391 184.481 91.5328 186.596C91.5293 187.817 91.5272 189.038 91.5289 190.259C91.5305 191.377 91.528 192.495 91.5223 193.613C91.5203 194.208 91.5227 194.803 91.5252 195.398C91.5087 197.659 91.4552 199.971 89.7392 201.672C88.7523 202.559 87.7651 203.029 86.425 203.027C84.6101 202.559 83.347 201.331 82.3234 199.804C81.3779 196.968 81.6942 193.366 81.6963 190.41C81.6956 190.016 81.6947 189.621 81.6937 189.227C81.6913 188.158 81.6908 187.088 81.6906 186.019C81.69 184.86 81.6878 183.702 81.6858 182.543C81.6819 180.016 81.6801 177.49 81.6788 174.963C81.678 173.383 81.6768 171.803 81.6754 170.222C81.6719 165.838 81.6689 161.454 81.6679 157.07C81.6678 156.79 81.6677 156.51 81.6677 156.222C81.6676 155.941 81.6675 155.661 81.6675 155.372C81.6673 154.804 81.6672 154.236 81.6671 153.667C81.667 153.245 81.667 153.245 81.6669 152.813C81.6657 148.246 81.6606 143.678 81.6538 139.11C81.6468 134.409 81.6432 129.708 81.6428 125.007C81.6426 122.373 81.6409 119.738 81.6356 117.103C81.631 114.86 81.6296 112.617 81.632 110.374C81.6331 109.232 81.6329 108.09 81.6287 106.947C81.6017 99.0339 81.8074 92.1284 87.5236 86.059C90.7036 82.9896 95.069 81.3263 99.4758 81.4012C102.355 81.5754 104.615 82.2913 106.841 84.1547C108.617 86.2659 109.592 87.8782 109.62 90.6748C109.624 90.9907 109.628 91.3065 109.632 91.632C109.637 92.1397 109.637 92.1397 109.642 92.6576C109.651 93.3778 109.661 94.098 109.671 94.8183C109.685 95.951 109.698 97.0838 109.709 98.2166C109.721 99.3116 109.736 100.407 109.751 101.502C109.754 101.839 109.756 102.176 109.759 102.524C109.795 104.881 109.991 106.686 111.327 108.691C111.617 109.126 111.617 109.126 111.913 109.57C112.291 109.997 112.291 109.997 112.792 110.449C113.034 110.684 113.276 110.92 113.525 111.163C115.858 113.099 119.232 113.594 122.167 113.378C125.616 112.874 128.909 111.564 131.257 108.894C133.618 105.717 135.311 102.174 135.351 98.1439C135.151 97.184 135.151 97.184 134.765 96.3861C133.165 95.5677 131.596 95.7255 129.858 95.9283C128.88 96.2806 128.88 96.2806 128.582 97.0121C128.359 97.6788 128.175 98.336 128.027 99.0228C126.741 98.1541 126.059 97.2965 125.683 95.8002C125.562 94.3947 125.574 92.9984 125.591 91.5887C125.59 91.2149 125.589 90.841 125.588 90.4558C125.607 87.0918 125.933 84.4609 128.027 81.7377C129.971 79.825 131.991 79.1089 134.673 78.9911C136.16 78.9324 136.16 78.9324 137.365 78.0939C137.57 77.8461 137.776 77.5984 137.987 77.3431C139.997 76.5024 142.157 76.6611 144.301 76.6588Z" fill="black"/>
<path d="M159.667 113.672C161.445 115.138 163.085 116.732 164.716 118.357C165.173 118.811 165.633 119.262 166.093 119.713C168.747 122.338 171.524 125.178 172.833 128.741C172.913 128.952 172.994 129.163 173.077 129.38C176.107 137.536 174.612 146.255 171.295 154.069C166.498 165.37 166.951 177.354 171.368 188.745C172.597 191.649 174.277 194.365 177.172 195.813C178.984 196.161 180.798 196.173 182.592 195.721C186.385 194.775 190.088 194.861 193.555 196.715C195.315 197.884 196.573 199.534 197.167 201.562C197.473 203.921 196.979 205.202 195.593 207.092C194.892 207.577 194.193 207.622 193.359 207.715C193.165 207.328 192.972 206.941 192.773 206.543C192.938 206.412 193.104 206.281 193.275 206.146C193.49 205.969 193.705 205.792 193.926 205.609C194.14 205.436 194.355 205.262 194.575 205.084C195.215 204.384 195.342 203.965 195.409 203.027C194.905 201.655 194.254 200.933 193.066 200.098C193.071 200.373 193.071 200.373 193.076 200.654C193.08 201.013 193.08 201.013 193.084 201.379C193.087 201.617 193.091 201.855 193.094 202.1C193.066 202.734 193.066 202.734 192.773 203.32C192.44 203.236 192.107 203.151 191.763 203.064C188.194 202.192 184.933 201.607 181.347 202.734C181.552 202.934 181.758 203.133 181.969 203.339C184.322 205.706 186.632 208.531 187.032 211.956C186.947 213.67 186.583 214.887 185.448 216.211C185.249 216.537 185.05 216.864 184.844 217.2C183.702 218.22 182.954 218.125 181.472 218.059C180.761 217.969 180.761 217.969 180.175 217.676C180.175 217.289 180.175 216.902 180.175 216.504C180.467 216.434 180.467 216.434 180.764 216.363C182.385 215.935 183.553 215.583 184.57 214.16C184.765 213.39 184.765 213.39 184.57 212.695C183.767 212.034 183.767 212.034 182.977 212.146C182.085 212.45 181.701 212.906 181.054 213.574C180.764 213.574 180.474 213.574 180.175 213.574C180.111 213.354 180.047 213.135 179.98 212.908C178.856 209.28 177.361 206.52 174.022 204.562C172.573 203.799 171.564 203.296 169.921 203.32C169.527 203.132 169.136 202.937 168.749 202.734C166.596 202.277 164.604 202.377 162.597 203.32C161.69 204.07 161.456 204.835 161.132 205.957C160.321 205.873 160.01 205.717 159.448 205.115C158.779 203.445 158.858 201.715 159.374 200.006C160.583 198.383 162.105 197.381 164.062 196.875C165.025 196.769 165.987 196.727 166.955 196.692C167.212 196.681 167.47 196.669 167.735 196.658C168.366 196.63 168.997 196.606 169.628 196.582C169.459 196.356 169.29 196.13 169.115 195.898C168.898 195.604 168.68 195.31 168.456 195.007C168.239 194.715 168.021 194.423 167.797 194.122C167.284 193.359 167.284 193.359 167.284 192.773C166.994 192.677 166.704 192.58 166.406 192.48C165.691 191.644 165.136 190.703 164.556 189.771C163.532 188.15 162.493 186.517 161.132 185.156C160.546 184.57 160.546 184.57 160.278 184.032C159.912 183.302 159.466 182.695 158.973 182.043C158.78 181.788 158.588 181.533 158.39 181.27C158.189 181.005 157.988 180.741 157.781 180.469C157.482 180.072 157.482 180.072 157.176 179.668C156.805 179.175 156.432 178.683 156.06 178.191C155.897 177.976 155.734 177.761 155.566 177.539C155.399 177.33 155.233 177.121 155.062 176.905C154.687 176.367 154.687 176.367 154.687 175.781C154.493 175.781 154.3 175.781 154.101 175.781C154.101 175.588 154.101 175.395 154.101 175.195C153.907 175.099 153.714 175.002 153.515 174.902C152.695 173.891 152.017 172.783 151.318 171.687C150.876 171.021 150.876 171.021 149.999 170.508C148.18 172.913 146.377 175.329 144.616 177.777C141.641 181.913 138.608 186.004 135.545 190.075C134.576 191.364 133.608 192.655 132.641 193.945C132.261 194.452 131.881 194.959 131.501 195.465C131.339 195.681 131.178 195.896 131.011 196.119C130.896 196.271 130.782 196.424 130.663 196.582C130.922 196.586 130.922 196.586 131.186 196.59C131.983 196.606 132.779 196.631 133.575 196.655C133.846 196.659 134.117 196.664 134.397 196.668C136.426 196.739 138.377 197.066 139.928 198.481C141.266 200.018 141.309 201.374 141.295 203.331C141.176 204.552 140.888 205.083 140.038 205.957C139.748 205.957 139.458 205.957 139.159 205.957C139.092 205.798 139.024 205.639 138.955 205.475C138.352 204.153 137.93 203.304 136.523 202.734C132.75 201.791 129.233 202.909 125.857 204.61C125.092 205.081 124.552 205.613 123.925 206.25C123.732 206.25 123.538 206.25 123.339 206.25C123.261 206.409 123.182 206.568 123.101 206.732C122.851 207.228 122.593 207.722 122.332 208.213C121.397 210 120.741 211.583 120.409 213.574C119.358 213.574 119.206 213.38 118.45 212.695C118.177 212.451 118.177 212.451 117.897 212.201C117.76 212.074 117.622 211.947 117.48 211.816C116.528 212.135 116.528 212.135 115.722 212.695C115.763 214.106 115.763 214.106 116.51 215.23C117.305 215.694 117.964 215.833 118.871 215.973C119.16 216.019 119.448 216.066 119.746 216.114C120.074 216.162 120.074 216.162 120.409 216.211C120.593 216.76 120.593 216.76 120.702 217.383C120.018 218.068 119.843 218.069 118.908 218.097C117.347 218.054 116.285 217.551 115.136 216.504C113.783 214.778 113.139 213.156 113.378 210.938C114.028 207.535 116.566 205.092 118.945 202.734C116.206 201.454 113.028 202.123 110.201 202.806C109.308 203.02 108.43 203.204 107.519 203.32C107.226 203.027 107.226 203.027 107.197 202.358C107.201 202.089 107.204 201.821 107.208 201.544C107.21 201.275 107.213 201.006 107.216 200.728C107.219 200.52 107.222 200.312 107.226 200.098C105.736 201.177 105.736 201.177 104.882 202.734C104.978 203.675 105.169 204.474 105.468 205.371C106.005 205.701 106.005 205.701 106.64 205.957C107.031 206.152 107.421 206.348 107.812 206.543C107.667 207.123 107.667 207.123 107.519 207.715C106.32 207.858 105.849 207.773 104.827 207.092C103.588 205.925 103.078 204.78 102.996 203.082C103.061 201.112 103.728 199.598 104.992 198.102C108.369 195.287 111.782 195.14 116.015 195.41C116.959 195.528 117.883 195.682 118.818 195.862C120.796 196.234 122.398 195.9 124.218 195.117C124.903 194.659 124.903 194.659 125.39 194.238C125.583 194.238 125.777 194.238 125.976 194.238C126.053 194.074 126.13 193.909 126.209 193.739C126.593 193.007 127.044 192.356 127.514 191.675C132.79 183.366 133.566 171.197 131.597 161.749C130.818 158.652 129.801 155.5 128.314 152.663C127.683 151.425 127.302 150.168 126.946 148.828C126.884 148.607 126.822 148.386 126.758 148.158C124.848 141.145 125.314 132.885 128.843 126.474C129.797 124.833 130.924 123.343 132.128 121.875C132.363 121.578 132.363 121.578 132.603 121.275C133.479 120.203 134.444 119.303 135.501 118.411C136.102 117.885 136.683 117.348 137.261 116.797C137.444 116.624 137.626 116.45 137.815 116.272C138.183 115.921 138.55 115.569 138.915 115.215C139.085 115.054 139.255 114.892 139.431 114.726C139.583 114.579 139.735 114.433 139.892 114.282C140.331 113.965 140.331 113.965 141.21 113.965C141.21 118.315 141.21 122.666 141.21 127.148C142.622 126.301 143.224 125.623 144.067 124.292C144.192 124.099 144.317 123.907 144.446 123.708C145.443 122.162 146.398 120.59 147.324 119.001C148.053 117.757 148.856 116.594 149.706 115.43C150.923 115.877 151.38 116.635 152.074 117.7C152.24 117.952 152.24 117.952 152.409 118.209C152.762 118.746 153.111 119.285 153.46 119.824C153.691 120.178 153.922 120.532 154.154 120.885C154.268 121.058 154.381 121.231 154.498 121.41C155.048 122.249 155.6 123.087 156.152 123.926C156.344 124.223 156.537 124.519 156.736 124.825C156.913 125.09 157.09 125.356 157.272 125.629C157.424 125.86 157.577 126.092 157.734 126.33C158.279 126.941 158.593 126.989 159.374 127.148C159.374 126.984 159.373 126.819 159.372 126.65C159.366 124.944 159.361 123.238 159.358 121.532C159.357 120.894 159.355 120.257 159.352 119.62C159.349 118.706 159.347 117.791 159.346 116.877C159.344 116.591 159.343 116.304 159.341 116.008C159.341 115.744 159.341 115.48 159.341 115.208C159.34 114.975 159.34 114.741 159.339 114.501C159.374 113.965 159.374 113.965 159.667 113.672Z" fill="black"/>
<path d="M152.637 181.348C153.024 181.541 153.411 181.734 153.809 181.934C153.809 182.127 153.809 182.32 153.809 182.52C154.002 182.52 154.196 182.52 154.395 182.52C154.622 182.946 154.622 182.946 154.853 183.38C155.472 184.46 156.197 185.41 156.969 186.384C157.824 187.469 158.667 188.562 159.504 189.661C159.743 189.969 159.743 189.969 159.987 190.284C160.135 190.48 160.284 190.675 160.436 190.876C160.571 191.051 160.705 191.226 160.843 191.406C161.133 191.895 161.133 191.895 161.133 192.773C161.327 192.773 161.52 192.773 161.719 192.773C161.719 192.967 161.719 193.16 161.719 193.359C161.913 193.359 162.106 193.359 162.305 193.359C162.305 193.553 162.305 193.746 162.305 193.945C162.499 193.945 162.692 193.945 162.891 193.945C162.891 194.235 162.891 194.525 162.891 194.824C162.578 194.969 162.578 194.969 162.258 195.116C159.854 196.31 158.419 197.652 157.197 200.043C156.759 202.52 156.749 204.452 158.204 206.543C158.204 206.736 158.204 206.93 158.204 207.129C159.618 207.86 160.696 208.121 162.305 208.008C162.958 207.592 162.958 207.592 163.477 207.129C163.767 207.129 164.057 207.129 164.356 207.129C164.356 207.516 164.356 207.902 164.356 208.301C164.646 208.446 164.646 208.446 164.942 208.594C165.181 209.158 165.181 209.158 165.4 209.857C165.473 210.086 165.545 210.314 165.621 210.55C165.687 210.774 165.753 210.999 165.821 211.23C165.884 211.434 165.947 211.638 166.012 211.847C166.114 212.402 166.114 212.402 165.821 213.281C166.014 213.281 166.208 213.281 166.407 213.281C166.537 214.08 166.658 214.879 166.773 215.68C166.811 215.905 166.849 216.13 166.887 216.363C167.049 217.54 167.105 218.071 166.485 219.123C165.517 220.003 164.452 220.436 163.189 220.75C161.775 221.106 160.417 221.712 159.062 222.248C158.666 222.402 158.27 222.557 157.874 222.711C157.577 222.831 157.577 222.831 157.273 222.953C156.073 223.417 155.095 223.625 153.809 223.535C153.229 222.561 153.141 221.804 153.117 220.678C153.109 220.335 153.1 219.991 153.091 219.636C153.085 219.26 153.078 218.884 153.071 218.497C153.062 218.096 153.053 217.695 153.044 217.294C153.019 216.206 152.997 215.119 152.977 214.031C152.954 212.894 152.929 211.756 152.905 210.619C152.864 208.71 152.825 206.801 152.787 204.892C152.744 202.683 152.698 200.473 152.65 198.263C152.603 196.14 152.559 194.016 152.515 191.892C152.497 190.987 152.478 190.082 152.458 189.177C152.435 188.113 152.414 187.049 152.394 185.985C152.383 185.406 152.37 184.827 152.357 184.248C152.351 183.907 152.345 183.566 152.338 183.214C152.332 182.915 152.326 182.617 152.32 182.309C152.344 181.641 152.344 181.641 152.637 181.348Z" fill="black"/>
<path d="M147.07 181.348C147.36 181.348 147.65 181.348 147.949 181.348C148.018 188.89 147.833 196.412 147.559 203.949C147.517 205.098 147.478 206.248 147.438 207.397C147.39 208.794 147.341 210.191 147.291 211.589C147.282 211.845 147.273 212.1 147.264 212.364C147.213 213.802 147.159 215.24 147.099 216.678C147.079 217.162 147.06 217.646 147.042 218.131C147.013 218.863 146.98 219.595 146.947 220.327C146.934 220.66 146.934 220.66 146.922 220.999C146.868 222.083 146.807 222.612 146.191 223.535C144.328 223.365 142.715 222.769 140.973 222.107C139.119 221.408 137.277 220.749 135.366 220.219C134.502 219.932 134.07 219.627 133.594 218.848C133.51 217.372 133.701 216.077 134.032 214.641C134.077 214.444 134.122 214.248 134.168 214.045C134.31 213.424 134.455 212.803 134.601 212.183C134.697 211.762 134.794 211.341 134.89 210.92C135.587 207.888 135.587 207.888 135.937 206.836C136.131 206.836 136.324 206.836 136.523 206.836C136.668 206.546 136.668 206.546 136.816 206.25C136.901 206.486 136.986 206.721 137.073 206.964C137.324 207.754 137.324 207.754 137.988 208.008C139.666 208.169 140.484 207.881 141.797 206.836C142.981 205.815 143.269 204.526 143.555 203.027C143.636 201.198 143.161 199.534 142.09 198.047C140.794 196.677 139.445 195.542 137.695 194.824C137.695 193.652 137.695 193.652 138.344 192.952C138.613 192.7 138.883 192.447 139.16 192.188C141.173 189.746 142.984 187.146 144.796 184.554C144.931 184.363 145.066 184.171 145.206 183.973C145.477 183.583 145.743 183.19 146.004 182.794C146.338 182.297 146.702 181.82 147.07 181.348Z" fill="black"/>
</svg>
