<svg width="300" height="300" viewBox="0 0 300 300" fill="none" xmlns="http://www.w3.org/2000/svg">
<path d="M119.239 15.5264C119.461 15.5831 119.683 15.6397 119.912 15.6981C126.139 17.3206 131.643 20.0592 137.188 23.2698C140.54 25.196 143.91 26.8929 147.537 28.2418C147.77 28.3294 148.003 28.4171 148.242 28.5075C148.448 28.5824 148.653 28.6574 148.865 28.7346C149.493 29.0414 149.865 29.3292 150.293 29.8819C150.293 30.9073 150.293 30.9073 150 31.9327C148.854 32.842 147.681 33.0021 146.265 33.1412C144.949 33.1724 144.949 33.1724 143.848 33.6905C144.018 33.7642 144.188 33.838 144.363 33.914C145.138 34.2522 145.912 34.5939 146.686 34.9356C146.953 35.0516 147.22 35.1675 147.496 35.287C150.12 36.4511 150.12 36.4511 151.172 37.4991C151.502 38.5062 151.502 38.5062 151.465 39.5499C150.898 40.4471 150.898 40.4471 150 41.0147C149.183 40.9157 148.45 40.6624 147.657 40.4288C147.81 40.7456 147.962 41.0625 148.12 41.3889C151.899 49.2605 155.439 57.3317 158.203 65.6241C158.702 65.9379 158.702 65.9379 159.328 66.1734C159.683 66.3227 159.683 66.3227 160.045 66.475C160.301 66.5809 160.558 66.6869 160.822 66.796C164.971 68.5868 168.865 70.8295 172.266 73.8272C172.649 74.1631 172.649 74.1631 173.041 74.5059C174.285 75.6117 175.499 76.7363 176.66 77.9288C176.824 78.0821 176.987 78.2354 177.155 78.3934C179.062 80.2157 180.649 82.2693 182.227 84.3741C182.435 84.651 182.435 84.651 182.648 84.9336C189.837 94.5629 194.458 105.552 198.643 116.725C198.916 117.453 199.191 118.181 199.466 118.909C205.889 135.943 211.47 153.304 216.614 170.763C216.675 170.971 216.737 171.179 216.8 171.393C218.203 176.151 219.572 180.916 220.882 185.7C220.937 185.901 220.992 186.102 221.049 186.308C223.854 196.54 223.854 196.54 223.242 199.218C222.364 199.804 222.364 199.804 221.671 199.744C216.639 198.223 211.91 193.566 207.937 190.269C207.197 189.656 206.448 189.055 205.701 188.451C204.4 187.388 203.149 186.277 201.912 185.139C201.327 184.62 200.726 184.155 200.098 183.691C200.289 186.761 200.83 189.777 201.332 192.808C201.428 193.392 201.523 193.976 201.619 194.56C201.822 195.802 202.027 197.043 202.232 198.284C202.556 200.249 202.878 202.213 203.201 204.178C203.309 204.839 203.417 205.5 203.526 206.162C203.606 206.651 203.606 206.651 203.688 207.151C203.851 208.14 204.013 209.129 204.175 210.118C204.765 213.709 205.352 217.3 205.931 220.893C205.963 221.089 205.994 221.284 206.027 221.486C206.242 222.822 206.457 224.158 206.671 225.493C207.557 230.998 208.457 236.5 209.369 242C209.534 242.997 209.7 243.993 209.865 244.99C210.522 248.959 210.522 248.959 211.183 252.928C212.263 259.403 213.33 265.879 214.32 272.368C214.411 272.959 214.502 273.549 214.594 274.139C215.731 281.415 215.731 281.415 215.332 283.593C214.659 284.446 214.354 284.724 213.282 284.948C210.83 284.79 208.427 283.14 206.814 281.377C204.674 278.669 203.087 275.671 201.605 272.569C201.242 271.815 200.869 271.067 200.496 270.319C196.524 262.282 193.211 253.923 190.137 245.507C190.033 245.223 190.033 245.223 189.926 244.932C187.517 238.356 185.356 231.723 183.399 224.999C183.3 224.66 183.3 224.66 183.198 224.313C179.753 212.512 177.006 200.541 175.196 188.378C174.829 188.301 174.463 188.223 174.086 188.143C172.569 187.762 171.907 187.057 171.094 185.741C170.487 184.224 170.492 182.948 170.508 181.347C169.75 181.356 168.995 181.376 168.238 181.402C168.024 181.403 167.81 181.405 167.59 181.407C166.482 181.452 165.951 181.502 165.175 182.322C164.915 182.709 164.915 182.709 164.649 183.105C161.316 185.741 157.294 186.986 153.063 186.501C150.198 185.976 147.681 185.049 145.752 182.812C144.925 182.077 144.532 181.933 143.41 181.933C142.987 181.981 142.564 182.036 142.142 182.095C141.903 182.124 141.665 182.154 141.42 182.184C140.568 182.29 139.718 182.404 138.867 182.519C138.167 182.609 137.467 182.7 136.766 182.79C133.996 183.15 131.227 183.521 128.459 183.893C127.651 184.002 126.844 184.11 126.036 184.217C125.283 184.317 124.53 184.418 123.778 184.52C123.268 184.588 123.268 184.588 122.748 184.657C122.303 184.716 122.303 184.716 121.849 184.777C120.973 184.865 120.118 184.877 119.239 184.862C120.118 185.94 120.979 186.929 122.045 187.824C123.551 189.126 124.943 190.535 126.343 191.949C126.602 192.209 126.861 192.469 127.128 192.738C127.608 193.22 128.087 193.702 128.566 194.185C128.987 194.609 129.415 195.027 129.849 195.437C130.75 196.4 130.703 197.309 130.712 198.569C130.714 198.917 130.717 199.265 130.72 199.624C130.721 200 130.723 200.376 130.724 200.764C130.726 201.15 130.727 201.536 130.729 201.934C130.732 202.751 130.734 203.569 130.735 204.386C130.736 205.433 130.743 206.479 130.752 207.526C130.759 208.525 130.759 209.524 130.76 210.523C130.764 210.899 130.768 211.275 130.771 211.662C130.771 212.011 130.77 212.36 130.769 212.72C130.77 213.18 130.77 213.18 130.772 213.65C130.649 214.569 130.437 214.972 129.785 215.624C128.938 215.772 128.938 215.772 128.028 215.624C127.323 215.123 127.323 215.123 126.646 214.425C126.397 214.171 126.147 213.917 125.89 213.656C125.635 213.387 125.379 213.118 125.116 212.841C124.862 212.581 124.608 212.321 124.346 212.054C123.051 210.722 121.804 209.361 120.591 207.955C119.83 207.097 119.015 206.299 118.195 205.498C117.876 205.187 117.559 204.876 117.242 204.563C117.018 204.347 117.018 204.347 116.79 204.125C116.309 203.612 116.309 203.612 115.956 203.08C115.349 202.19 114.885 201.647 113.82 201.374C112.895 201.303 111.99 201.299 111.062 201.316C110.712 201.314 110.363 201.312 110.002 201.311C109.046 201.308 108.091 201.314 107.135 201.323C106.133 201.331 105.132 201.327 104.13 201.324C102.234 201.319 100.338 201.324 98.4413 201.333C95.044 201.349 91.6467 201.352 88.2493 201.347C87.2527 201.346 86.2562 201.347 85.2597 201.353C84.1494 201.36 83.0393 201.362 81.929 201.363C81.599 201.366 81.269 201.37 80.929 201.374C80.6268 201.373 80.3245 201.372 80.0131 201.372C79.6195 201.374 79.6195 201.374 79.218 201.376C78.3617 201.245 77.9666 200.985 77.3441 200.39C77.0688 199.564 77.0131 199.057 77.0099 198.203C77.0074 197.801 77.0074 197.801 77.0049 197.391C77.0045 197.098 77.0042 196.805 77.0039 196.503C77.0024 196.194 77.001 195.884 76.9995 195.566C76.9952 194.541 76.9932 193.516 76.9916 192.491C76.9899 191.78 76.9882 191.069 76.9865 190.357C76.9834 188.865 76.9817 187.373 76.9807 185.881C76.9791 183.969 76.9721 182.056 76.9637 180.143C76.9583 178.674 76.9567 177.204 76.9563 175.735C76.9554 175.03 76.953 174.324 76.9492 173.619C76.9442 172.633 76.9448 171.647 76.9467 170.661C76.944 170.369 76.9413 170.077 76.9385 169.776C76.9544 167.146 76.9544 167.146 77.93 166.112C79.838 164.923 82.0564 164.991 84.2466 164.853C84.6799 164.823 85.1132 164.792 85.5465 164.761C86.4764 164.696 87.4065 164.632 88.3366 164.57C89.8083 164.471 91.2794 164.365 92.7504 164.258C96.9325 163.952 101.115 163.652 105.298 163.371C107.612 163.215 109.924 163.05 112.236 162.876C113.458 162.784 114.68 162.697 115.903 162.621C117.053 162.549 118.202 162.466 119.351 162.374C119.772 162.342 120.193 162.315 120.614 162.292C122.917 162.225 122.917 162.225 124.837 161.13C125.281 160.465 125.624 159.798 125.977 159.081C128.567 155.789 132.291 154.962 136.231 154.394C136.526 154.351 136.526 154.351 136.827 154.307C137.312 154.238 137.797 154.169 138.282 154.101C137.961 152.867 137.637 151.634 137.311 150.402C137.221 150.053 137.13 149.705 137.037 149.346C136.947 149.008 136.858 148.67 136.765 148.321C136.684 148.011 136.603 147.702 136.519 147.382C135.918 145.508 135.299 144.553 133.631 143.499C131.517 142.114 129.621 140.545 127.735 138.866C127.528 138.685 127.322 138.503 127.109 138.316C121.499 133.059 117.768 125.664 114.258 118.944C114.107 118.657 113.956 118.369 113.8 118.073C105.431 102.075 101.332 84.6416 105.762 66.796C105.541 66.7884 105.321 66.7809 105.094 66.7731C102.371 66.6277 99.8806 66.0528 97.2659 65.3311C97.5067 67.9619 97.9069 70.0605 99.0077 72.4803C99.4314 73.5237 99.5051 74.185 99.3167 75.2921C98.9871 75.8597 98.9871 75.8597 98.4378 76.171C95.9526 76.3848 94.0265 74.8597 92.1928 73.3351C85.4525 67.4668 82.0231 59.1075 81.3963 50.2807C81.1106 44.5168 82.0211 38.4646 84.3936 33.1778C85.0302 31.7017 85.2411 30.1744 85.5106 28.6002C86.1069 25.2377 86.9732 22.3954 89.7277 20.1762C97.9683 14.5292 109.625 12.9861 119.239 15.5264ZM91.1136 24.6085C90.6749 25.1902 90.6749 25.1902 90.5276 25.7803C90.6243 26.0704 90.721 26.3604 90.8206 26.6593C91.165 26.5203 91.5095 26.3813 91.8643 26.2381C94.0063 25.45 95.1643 25.4281 97.2659 26.3663C99.0398 26.5384 100.257 26.0672 101.844 25.3775C104.014 24.4847 106.042 23.904 108.399 23.7296C108.615 23.7126 108.831 23.6956 109.053 23.6781C118.9 23.3264 126.925 29.3742 133.795 35.7413C134.515 36.4194 135.228 37.1035 135.938 37.7921C136.202 38.0485 136.467 38.3049 136.739 38.5691C137.706 39.5724 138.222 40.1696 138.538 41.5457C138.282 42.4796 138.282 42.4796 137.403 43.1937C137.113 43.3447 136.823 43.4958 136.524 43.6514C136.651 43.9556 136.651 43.9556 136.78 44.266C137.982 47.433 138.308 50.3544 136.945 53.4822C136.753 53.8921 136.554 54.2991 136.349 54.7027C135.798 55.7582 135.798 55.7582 135.68 56.9197C135.956 57.517 135.956 57.517 136.707 58.2083C137.37 58.9731 137.509 59.4501 137.439 60.4605C136.887 63.4015 134.56 65.4347 132.567 67.5121C132.171 67.9247 131.778 68.3409 131.386 68.7575C128.517 71.7404 128.517 71.7404 126.76 71.7993C125.58 71.7004 124.929 71.5659 123.926 70.8975C123.096 70.9453 122.811 71.1318 122.232 71.7341C122.066 71.9596 121.9 72.185 121.729 72.4173C121.553 72.6545 121.378 72.8916 121.197 73.136C121.034 73.3641 120.871 73.5922 120.703 73.8272C120.574 74.007 120.444 74.1868 120.311 74.372C119.706 75.1945 119.706 75.1945 119.532 76.171C117.83 77.0478 116.339 76.5293 114.551 76.171C114.349 76.4678 114.349 76.4678 114.144 76.7706C113.964 77.032 113.784 77.2933 113.599 77.5626C113.422 77.8209 113.245 78.0792 113.063 78.3454C112.343 79.3115 111.74 80.1182 110.596 80.5472C109.668 80.5704 109.38 80.2798 108.692 79.6866C108.498 79.6866 108.305 79.6866 108.106 79.6866C107.729 90.4834 110.223 100.922 114.816 110.644C115.117 111.285 115.411 111.929 115.702 112.575C121.804 125.995 130.159 138.669 143.866 145.183C144.072 145.281 144.278 145.38 144.49 145.481C145.641 146.006 146.679 146.339 147.95 146.483C147.901 146.151 147.853 145.819 147.803 145.476C147.634 144.148 147.629 142.84 147.657 141.503C148.605 141.106 149.199 140.873 150.22 141.082C151.185 141.698 151.35 142.451 151.595 143.549C151.729 144.254 151.852 144.959 151.971 145.666C152.038 146.056 152.038 146.056 152.106 146.453C152.2 147.001 152.293 147.549 152.386 148.098C152.526 148.933 152.671 149.767 152.816 150.601C152.907 151.135 152.997 151.669 153.088 152.203C153.131 152.451 153.174 152.698 153.218 152.953C153.499 154.64 153.723 156.249 153.278 157.928C152.436 159.058 151.469 159.459 150.23 160.094C147.693 161.5 146.301 163.94 145.431 166.66C144.417 170.351 144.782 174.003 146.568 177.369C147.86 179.514 149.68 181.095 152.051 181.933C153.612 182.279 155.372 182.538 156.885 181.933C157.03 181.836 157.175 181.739 157.325 181.64C157.071 181.537 156.817 181.434 156.555 181.328C154.35 180.062 153.382 178.156 152.637 175.78C151.718 172.14 152.169 167.685 153.919 164.373C155.739 161.425 158.186 159.795 161.217 158.186C161.712 157.944 161.712 157.944 162.012 157.616C162.113 156.061 161.855 154.668 161.557 153.144C161.383 152.077 161.385 151.078 161.426 149.999C162.249 149.588 162.858 149.633 163.77 149.706C164.535 150.141 164.881 150.377 165.13 151.235C165.154 151.483 165.177 151.732 165.201 151.988C165.496 155.019 165.496 155.019 166.945 157.581C168.152 158.422 169.465 158.988 170.853 159.461C171.387 159.667 171.387 159.667 172.266 160.253C173.07 160.324 173.07 160.324 173.932 160.29C174.223 160.284 174.515 160.279 174.815 160.274C175.037 160.267 175.259 160.26 175.489 160.253C174.457 159.032 173.403 157.841 172.321 156.664C170.873 155.076 169.504 153.437 168.164 151.757C167.98 151.526 167.98 151.526 167.793 151.291C163.578 146.002 159.456 140.603 156.024 134.765C155.904 134.559 155.783 134.354 155.658 134.142C155.148 133.261 154.673 132.389 154.24 131.467C153.286 129.436 152.259 128.652 150.28 127.611C145.78 125.201 143.295 119.719 140.918 115.429C140.73 115.093 140.73 115.093 140.538 114.75C134.408 103.75 128.641 88.9736 131.745 76.2076C133.075 71.7555 135.479 68.1414 139.453 65.6241C143.643 63.4822 148.367 63.5126 152.93 64.1593C152.753 62.7288 152.319 61.4881 151.76 60.1698C151.672 59.9573 151.584 59.7447 151.493 59.5256C151.205 58.8354 150.914 58.1464 150.623 57.4576C150.524 57.2216 150.424 56.9855 150.322 56.7423C145.58 45.3509 145.58 45.3509 139.16 34.8624C138.701 33.9428 138.764 33.2398 138.867 32.2257C139.563 31.4017 139.563 31.4017 140.332 30.7608C140.622 30.4708 140.622 30.4708 140.918 30.1749C140.736 30.0718 140.553 29.9687 140.365 29.8625C139.82 29.555 139.276 29.2475 138.731 28.9398C138.109 28.5884 137.486 28.2374 136.864 27.8868C134.192 26.381 134.192 26.381 133.056 25.6945C121.81 18.9608 101.856 13.8665 91.1136 24.6085ZM105.469 28.4171C104.501 30.3178 104.172 32.4412 104.297 34.5694C104.821 35.6373 105.338 36.2817 106.348 36.9132C108.547 37.6462 110.977 37.1249 113.214 36.7667C123.063 35.3156 123.063 35.3156 126.661 37.5838C129.334 40.3321 129.901 44.4676 129.877 48.1192C129.875 48.5195 129.875 48.5195 129.873 48.928C129.808 52.7016 129.25 56.0268 126.453 58.7393C122.483 61.9896 117.594 63.2634 112.658 64.2256C111.818 64.4814 111.536 64.6152 111.035 65.3311C110.749 66.0586 110.498 66.7659 110.266 67.5101C110.203 67.7059 110.14 67.9017 110.074 68.1035C109.199 70.8288 108.814 72.9564 110.157 75.585C110.844 74.9226 111.469 74.2452 112.061 73.4976C112.872 72.5649 113.29 72.1202 114.528 72.0271C115.489 72.0078 116.273 72.0574 117.188 72.3624C117.372 72.1078 117.556 71.8533 117.746 71.591C121.055 67.0997 121.055 67.0997 123.076 66.6632C124.412 66.5933 125.168 67.0016 126.27 67.6749C128.385 66.8648 130.004 64.8574 131.525 63.2437C131.667 63.0965 131.809 62.9493 131.955 62.7976C132.77 61.9147 133.197 61.2651 133.301 60.0577C133.017 59.8583 132.733 59.6589 132.44 59.4534C131.684 58.9226 131.542 58.5874 131.259 57.6865C131.247 56.1264 131.821 55.1287 132.55 53.7772C133.706 51.6264 134.316 50.1639 133.631 47.7164C133.468 47.2995 133.468 47.2995 133.301 46.8741C132.541 44.7336 132.436 43.1764 133.301 41.0147C127.244 34.9116 119.87 27.8321 110.724 27.7768C110.434 27.7766 110.144 27.7764 109.845 27.7762C109.554 27.7726 109.263 27.769 108.964 27.7653C108.683 27.7648 108.403 27.7642 108.114 27.7636C107.732 27.7618 107.732 27.7618 107.342 27.76C106.571 27.8382 106.113 27.988 105.469 28.4171ZM93.1644 29.8819C93.8132 30.3145 94.4117 30.6709 95.103 31.0172C95.4061 31.169 95.4061 31.169 95.7153 31.3239C95.9249 31.4281 96.1345 31.5323 96.3504 31.6397C96.5577 31.744 96.7651 31.8482 96.9787 31.9556C97.2829 32.1074 97.2829 32.1074 97.5932 32.2623C97.7763 32.3537 97.9595 32.4451 98.1481 32.5392C98.8185 32.8526 99.5085 33.1227 100.196 33.3975C100.292 32.3341 100.389 31.2706 100.489 30.1749C100.102 30.2716 99.7151 30.3682 99.3167 30.4678C98.872 30.501 98.426 30.519 97.98 30.5228C97.6441 30.529 97.6441 30.529 97.3014 30.5354C96.68 30.4678 96.68 30.4678 95.8011 29.8819C95.1312 29.8113 95.1312 29.8113 94.4278 29.8453C94.191 29.8506 93.9542 29.8559 93.7102 29.8613C93.5301 29.8681 93.35 29.8749 93.1644 29.8819ZM87.8909 35.1553C85.333 40.308 85.0324 47.0471 85.9134 52.6602C85.9533 52.9151 85.9933 53.1699 86.0345 53.4324C86.8579 58.448 88.7736 64.8568 92.9401 68.2002C93.1108 68.3169 93.2815 68.4336 93.4573 68.5538C93.4527 68.3904 93.4481 68.2271 93.4434 68.0588C93.3019 62.2484 93.7398 56.5683 97.5589 51.8546C97.9922 51.4151 98.432 50.9819 98.8773 50.5545C100.475 49.0028 101.746 47.4182 102.155 45.1895C101.845 41.862 100.319 39.1009 97.8519 36.9132C95.8598 35.2933 92.9557 33.9552 90.3812 33.8187C89.126 34.0204 88.7106 34.1763 87.8909 35.1553ZM111.774 40.8831C109.468 41.1775 107.167 41.1505 104.883 40.7218C105.023 41.2957 105.163 41.8694 105.304 42.4429C105.382 42.7624 105.461 43.0819 105.541 43.4111C105.726 44.2154 105.726 44.2154 106.055 44.8233C107.25 44.442 107.25 44.442 108.399 43.9444C108.981 43.8746 108.981 43.8746 109.662 43.8529C109.885 43.8419 110.107 43.831 110.336 43.8197C111.954 44.1083 112.829 45.4688 113.716 46.7376C113.921 47.0408 113.921 47.0408 114.13 47.3502C114.272 47.5586 114.414 47.767 114.56 47.9817C116.426 50.7825 117.245 53.2629 117.206 56.6336C117.205 56.8506 117.203 57.0675 117.202 57.2911C117.199 57.8227 117.193 58.3542 117.188 58.8858C120.042 58.5216 122.938 57.0026 124.805 54.7843C126.575 51.7085 126.365 47.0826 125.611 43.7613C125.261 42.5294 124.882 41.6158 123.926 40.7218C122.678 40.0975 121.012 40.3731 119.641 40.3739C119.282 40.3737 118.922 40.3735 118.551 40.3733C116.247 40.3866 114.052 40.541 111.774 40.8831ZM106.641 48.9249C105.844 49.9131 105.292 51.0234 104.753 52.1681C103.772 54.2489 102.68 56.0915 101.294 57.9337C101.142 58.1363 100.99 58.3389 100.833 58.5476C100.159 59.4223 99.6627 60.0223 98.7308 60.6436C98.7308 60.837 98.7308 61.0303 98.7308 61.2296C99.3836 61.4195 100.037 61.6085 100.69 61.7972C101.054 61.9026 101.417 62.0079 101.792 62.1165C104.144 62.7607 106.818 63.2822 109.113 62.2C110.959 61.1106 112.405 59.4655 113.086 57.421C113.375 54.2499 112.968 52.1427 111.033 49.6241C110.471 48.9572 109.937 48.3241 109.278 47.753C108.125 47.753 107.477 48.1805 106.641 48.9249ZM138.391 71.6483C134.854 75.8896 134.664 81.3353 135.124 86.583C135.762 92.3264 137.348 97.7611 139.453 103.124C139.668 103.078 139.882 103.032 140.102 102.984C143.14 102.414 145.604 103.096 148.156 104.836C151.131 107.282 152.613 110.893 154.236 114.297C154.626 115.022 154.947 115.488 155.567 116.015C157.727 115.316 159.003 113.828 160.218 112.005C160.335 111.835 160.453 111.664 160.575 111.489C161.222 110.608 161.222 110.608 161.426 109.569C162.341 109.282 162.774 109.23 163.678 109.588C165.226 110.885 165.219 113.377 165.535 115.265C165.84 116.378 166.183 116.959 166.992 117.773C167.845 118.115 167.845 118.115 168.75 117.773C169.973 116.474 170.645 114.837 171.369 113.232C172.125 111.682 172.125 111.682 173.31 111.162C174.612 111.375 174.927 111.802 175.782 112.792C176.175 113.494 176.528 114.17 176.862 114.898C177.486 116.288 177.486 116.288 178.418 117.48C179.167 117.501 179.167 117.501 179.883 117.187C180.466 116.07 180.566 115.045 180.634 113.799C180.694 112.742 180.754 111.759 181.055 110.741C182.064 110.6 182.98 110.55 183.985 110.741C184.709 111.383 185.032 112.224 185.45 113.085C185.834 113.75 186.223 114.407 186.621 115.063C186.809 115.381 186.996 115.7 187.189 116.028C187.805 116.91 188.362 117.476 189.258 118.066C190.064 118.027 190.064 118.027 190.723 117.773C192.007 114.829 192.201 111.652 191.094 108.63C190.453 107.054 189.719 105.527 188.965 104.003C188.763 103.584 188.562 103.165 188.361 102.745C187.895 101.785 187.411 100.836 186.918 99.8891C186.612 99.2967 186.312 98.7009 186.013 98.1047C179.697 85.6796 169.527 73.7134 155.923 69.2439C149.755 67.3472 143.182 66.6797 138.391 71.6483ZM142.09 106.64C141.993 106.736 141.897 106.833 141.797 106.933C141.917 108.553 142.374 109.819 143.079 111.272C143.181 111.485 143.283 111.699 143.388 111.918C145.735 116.697 148.883 122.851 153.97 125.16C157.03 126.141 160.348 126.293 163.359 125.084C164.398 124.67 165.325 124.54 166.407 124.804C167.041 125.247 167.568 125.745 168.124 126.284C170.402 128.362 173.048 129.385 176.121 129.305C177.915 129.075 179.327 128.413 180.48 127.004C180.826 126.496 181.159 125.978 181.474 125.45C181.983 124.735 182.268 124.47 183.106 124.218C184.43 124.282 185.112 124.867 186.09 125.719C189.832 128.992 189.832 128.992 194.532 129.784C195.142 129.516 195.142 129.516 195.41 128.905C196.237 125.98 195.086 122.641 194.239 119.823C193.579 120.146 192.958 120.477 192.334 120.867C191.019 121.624 189.895 121.684 188.379 121.581C186.84 121.077 185.942 120.432 184.864 119.237C184.528 118.902 184.528 118.902 184.186 118.56C184.023 118.397 183.86 118.234 183.692 118.066C183.582 118.228 183.472 118.39 183.359 118.558C183.209 118.77 183.059 118.982 182.904 119.201C182.685 119.517 182.685 119.517 182.461 119.839C181.659 120.706 180.865 120.938 179.714 121.104C177.69 121.154 176.217 120.803 174.61 119.53C174.097 118.894 174.097 118.894 173.731 118.358C172.925 118.699 172.405 119.078 171.735 119.659C170.246 120.917 168.72 121.464 166.78 121.391C165.281 121.159 164.155 120.501 163.092 119.439C162.514 118.517 162.116 117.614 161.719 116.601C161.479 116.771 161.479 116.771 161.235 116.944C159.065 118.443 157.133 119.662 154.436 119.657C153.181 119.403 152.501 118.875 151.771 117.833C151.591 117.505 151.412 117.177 151.227 116.839C151.079 116.572 151.079 116.572 150.927 116.299C150.278 115.115 149.687 113.908 149.104 112.69C147.935 110.257 146.719 108.093 144.141 106.933C143.072 106.696 143.072 106.696 142.09 106.64ZM183.399 129.198C183.205 129.458 183.012 129.718 182.813 129.986C181.611 131.5 179.693 132.312 177.832 132.714C174.044 133.073 170.812 132.587 167.285 131.249C164.185 130.117 161.23 129.079 157.91 129.784C159.077 132.269 160.415 134.541 161.975 136.797C162.191 137.112 162.407 137.426 162.629 137.751C164.759 140.839 167.014 143.83 169.336 146.776C169.467 146.943 169.599 147.11 169.734 147.281C170.464 148.202 171.212 149.104 171.973 149.999C172.109 150.16 172.245 150.32 172.385 150.485C175.536 154.193 178.74 157.873 182.402 161.088C183.514 162.083 184.551 163.132 185.523 164.263C185.788 164.568 185.788 164.568 186.059 164.879C186.433 165.309 186.804 165.741 187.174 166.174C190.298 169.756 193.911 172.879 197.539 175.937C198.42 176.681 199.296 177.43 200.171 178.179C200.343 178.326 200.514 178.472 200.691 178.624C201.697 179.486 202.688 180.363 203.669 181.255C204.895 182.367 206.162 183.418 207.448 184.458C208.204 185.076 208.949 185.704 209.69 186.339C212.419 188.673 215.187 190.904 218.262 192.773C218.089 191.881 217.911 190.99 217.731 190.099C217.682 189.848 217.634 189.598 217.584 189.339C217.144 187.18 216.767 185.752 214.86 184.482C214.305 184.141 213.749 183.804 213.19 183.471C212.602 183.108 212.015 182.744 211.428 182.38C211.142 182.204 210.856 182.027 210.562 181.846C207.443 179.891 204.624 177.611 201.856 175.194C201.643 175.011 201.43 174.827 201.21 174.638C200.64 174.144 200.075 173.645 199.512 173.144C199.253 172.915 198.993 172.686 198.726 172.45C197.106 171.004 195.629 169.535 194.239 167.87C194.015 167.621 193.792 167.372 193.562 167.115C189.725 162.758 186.596 157.847 183.564 152.91C183.454 152.733 183.344 152.556 183.231 152.374C182.918 151.868 182.609 151.359 182.301 150.849C182.124 150.558 181.947 150.266 181.764 149.966C181.323 149.07 181.126 148.356 181.055 147.362C181.513 146.667 181.513 146.667 182.227 146.191C183.076 146.057 183.076 146.057 183.985 146.191C184.599 146.871 184.599 146.871 185.175 147.857C185.283 148.037 185.391 148.216 185.503 148.402C185.746 148.805 185.986 149.21 186.223 149.616C186.966 150.878 187.738 152.122 188.507 153.368C188.671 153.633 188.834 153.898 189.002 154.171C190.364 156.369 191.805 158.481 193.36 160.546C193.479 160.708 193.599 160.869 193.722 161.035C195.353 163.228 197.112 165.272 198.981 167.266C199.268 167.573 199.268 167.573 199.561 167.885C200.845 169.235 202.19 170.478 203.614 171.679C203.793 171.831 203.972 171.983 204.157 172.139C206.371 173.997 208.637 175.772 210.993 177.447C211.2 177.595 211.407 177.742 211.62 177.895C212.63 178.602 213.565 179.197 214.746 179.589C214.255 177.774 213.747 175.965 213.23 174.158C212.905 173.02 212.591 171.881 212.286 170.738C211.914 169.345 211.528 167.957 211.136 166.569C210.981 166.014 210.831 165.457 210.685 164.9C209.781 161.441 208.84 159.084 205.969 156.854C204.551 155.735 203.522 154.366 202.442 152.929C202.3 152.742 202.158 152.556 202.012 152.364C200.129 149.879 198.373 147.336 196.784 144.652C196.645 144.422 196.506 144.192 196.363 143.955C195.649 142.715 195.177 141.803 195.41 140.331C195.996 139.452 195.996 139.452 196.93 139.214C198.199 139.485 198.301 139.614 199.018 140.624C199.385 141.205 199.744 141.792 200.098 142.382C200.453 142.956 200.81 143.529 201.167 144.102C201.419 144.505 201.669 144.909 201.919 145.314C202.988 147.037 204.145 148.675 205.371 150.292C205.768 149.5 205.511 149.072 205.244 148.264C205.176 148.065 205.107 147.866 205.037 147.661C204.967 147.452 204.898 147.243 204.826 147.028C204.595 146.339 204.361 145.651 204.126 144.964C203.966 144.49 203.807 144.016 203.647 143.541C202.125 139.035 200.538 134.552 198.926 130.077C198.407 130.735 198.058 131.215 197.798 132.019C197.461 132.714 197.461 132.714 196.759 133.07C192.733 134.047 189.772 132.939 186.268 130.994C185.724 130.651 185.248 130.273 184.761 129.854C184.079 129.135 184.079 129.135 183.399 129.198ZM141.504 148.827C141.778 150.342 142.091 151.811 142.566 153.277C142.932 154.471 143.145 155.48 142.969 156.737C142.149 157.762 141.547 158.07 140.259 158.239C139.95 158.283 139.641 158.326 139.323 158.372C138.586 158.459 137.85 158.541 137.112 158.619C133.744 158.941 133.744 158.941 130.664 160.253C130.568 160.543 130.471 160.833 130.371 161.132C133.058 161.179 135.726 161.078 138.404 160.885C138.861 160.854 139.319 160.828 139.776 160.805C142.93 160.718 142.93 160.718 145.528 159.109C145.849 158.71 146.168 158.311 146.485 157.909C147.354 157.314 147.354 157.314 148.096 156.884C149.074 156.256 149.074 156.256 149.62 155.282C149.635 154.637 149.571 154.142 149.414 153.515C149.372 153.175 149.331 152.836 149.287 152.486C148.771 151.337 148.651 151.272 147.541 150.836C147.015 150.664 146.485 150.502 145.954 150.347C145.427 150.18 144.9 150.014 144.373 149.847C144.128 149.772 143.883 149.698 143.63 149.621C142.905 149.393 142.203 149.127 141.504 148.827ZM157.617 165.526C155.925 167.919 155.868 171.304 156.243 174.113C156.52 175.411 156.943 176.333 157.91 177.245C159.109 177.59 160.265 177.564 161.505 177.545C161.714 177.542 161.922 177.539 162.138 177.536C162.824 177.526 163.51 177.515 164.197 177.503C164.674 177.496 165.151 177.489 165.629 177.482C166.883 177.463 168.136 177.443 169.39 177.422C170.896 177.398 172.401 177.376 173.907 177.354C176.192 177.319 178.477 177.282 180.762 177.245C180.762 173.088 180.762 168.931 180.762 164.648C177.004 164.622 177.004 164.622 173.246 164.605C171.712 164.599 170.179 164.593 168.645 164.581C167.409 164.572 166.172 164.566 164.935 164.564C164.464 164.563 163.993 164.559 163.522 164.555C162.861 164.548 162.199 164.547 161.538 164.548C161.162 164.546 160.786 164.544 160.399 164.542C159.279 164.658 158.574 164.942 157.617 165.526ZM139.525 164.773C138.985 164.815 138.985 164.815 138.435 164.858C138.033 164.889 137.632 164.92 137.231 164.952C136.81 164.984 136.388 165.017 135.967 165.05C134.816 165.139 133.665 165.229 132.514 165.319C131.543 165.395 130.573 165.47 129.602 165.546C127.294 165.725 124.987 165.905 122.679 166.085C120.593 166.248 118.507 166.41 116.421 166.573C109.858 167.083 103.295 167.596 96.7327 168.113C96.1094 168.162 95.4861 168.211 94.8628 168.26C92.7158 168.429 90.569 168.598 88.4223 168.771C87.8069 168.82 87.1916 168.869 86.5762 168.917C85.7549 168.982 84.9338 169.048 84.1127 169.114C83.8762 169.133 83.6397 169.151 83.396 169.17C82.2366 169.248 82.2366 169.248 81.1526 169.628C81.1458 172.829 81.1406 176.031 81.1375 179.232C81.1359 180.719 81.1339 182.205 81.1305 183.692C81.1274 185.128 81.1256 186.564 81.1249 188C81.1243 188.547 81.1233 189.093 81.1217 189.64C81.1195 190.408 81.1193 191.177 81.1194 191.945C81.1183 192.168 81.1173 192.392 81.1162 192.622C81.1191 194.157 81.2555 195.644 81.4456 197.167C81.6216 197.167 81.7976 197.166 81.979 197.166C86.2682 197.157 90.5572 197.16 94.8464 197.175C96.9207 197.183 98.9948 197.186 101.069 197.18C103.071 197.175 105.073 197.18 107.076 197.192C107.839 197.194 108.602 197.193 109.366 197.189C110.436 197.183 111.506 197.19 112.576 197.2C112.891 197.196 113.206 197.191 113.53 197.186C115.476 197.221 116.493 197.585 117.871 198.978C118.032 199.154 118.194 199.33 118.36 199.511C118.688 199.829 119.018 200.147 119.35 200.462C119.661 200.773 119.972 201.084 120.282 201.397C120.447 201.562 120.611 201.727 120.78 201.896C121.823 202.95 122.819 204.031 123.782 205.158C124.476 205.96 125.2 206.699 125.977 207.421C126.17 207.421 126.364 207.421 126.563 207.421C126.571 206.689 126.577 205.956 126.581 205.224C126.584 205.025 126.586 204.827 126.589 204.623C126.591 204.174 126.584 203.725 126.571 203.277C126.563 202.441 126.563 202.441 126.642 201.376C126.74 199.19 126.465 197.724 124.99 196.05C124.071 195.102 123.109 194.21 122.132 193.322C121.74 192.95 121.349 192.577 120.96 192.203C119.405 190.72 117.826 189.279 116.166 187.915C115.704 187.482 115.397 187.034 115.045 186.51C114.369 185.701 114.369 185.701 113.679 185.65C111.564 185.695 109.493 185.926 107.397 186.2C106.642 186.295 105.886 186.39 105.131 186.485C103.95 186.634 102.77 186.786 101.59 186.938C100.444 187.085 99.2972 187.229 98.1506 187.372C97.7986 187.418 97.4467 187.465 97.0842 187.513C93.8073 187.92 93.8073 187.92 92.2855 187.499C91.6112 186.488 91.5985 186.05 91.6995 184.862C92.546 184.016 93.5046 184.033 94.6471 183.877C94.9031 183.841 95.1591 183.804 95.4228 183.767C99.323 183.219 103.233 182.741 107.141 182.253C108.294 182.109 109.447 181.964 110.6 181.82C112.775 181.547 114.951 181.274 117.127 181.002C121.032 180.514 124.936 180.025 128.841 179.535C130.209 179.363 131.576 179.192 132.944 179.021C133.793 178.915 134.641 178.809 135.49 178.702C136.069 178.63 136.648 178.558 137.227 178.485C137.574 178.442 137.92 178.398 138.277 178.354C138.577 178.316 138.876 178.279 139.185 178.24C140.059 178.121 140.928 177.981 141.797 177.831C141.761 177.565 141.725 177.299 141.687 177.025C141.662 176.837 141.636 176.648 141.609 176.453C141.534 175.972 141.444 175.493 141.344 175.016C140.645 171.521 141.056 168.107 141.797 164.648C141.035 164.648 140.285 164.714 139.525 164.773ZM185.157 170.507C185.151 170.786 185.145 171.066 185.139 171.354C185.117 172.39 185.091 173.427 185.064 174.464C185.052 174.913 185.042 175.361 185.033 175.81C185.02 176.455 185.003 177.1 184.985 177.745C184.98 178.046 184.98 178.046 184.975 178.353C184.942 179.409 184.88 179.857 184.278 180.761C183.273 181.154 182.2 181.114 181.133 181.146C180.753 181.159 180.374 181.171 179.983 181.184C179.583 181.195 179.184 181.207 178.784 181.219C178.381 181.231 177.977 181.244 177.573 181.257C176.585 181.288 175.597 181.318 174.61 181.347C174.548 182.56 174.548 182.56 174.903 183.691C175.707 183.991 176.523 184.235 177.345 184.484C178.348 184.971 178.519 185.322 179.004 186.327C179.253 187.25 179.413 188.183 179.574 189.124C179.624 189.402 179.674 189.679 179.726 189.965C179.834 190.563 179.941 191.162 180.046 191.761C180.33 193.36 180.625 194.957 180.921 196.555C180.981 196.879 181.041 197.203 181.103 197.537C185.948 223.556 194.364 249.661 206.488 273.211C206.611 273.453 206.734 273.695 206.861 273.944C207.946 276.011 209.275 277.85 210.938 279.491C210.763 276.751 210.372 274.063 209.925 271.357C209.85 270.894 209.774 270.431 209.699 269.968C209.492 268.699 209.283 267.43 209.074 266.16C208.895 265.07 208.717 263.979 208.538 262.888C206.79 252.199 205.001 241.518 203.215 230.836C201.71 221.833 200.219 212.828 198.779 203.815C198.584 202.596 198.389 201.378 198.193 200.16C196.957 192.472 196.957 192.472 196.404 188.754C196.226 187.565 196.043 186.377 195.859 185.189C195.746 184.446 195.643 183.703 195.539 182.958C195.174 180.509 194.691 178.882 192.774 177.245C192.47 176.951 192.167 176.656 191.864 176.361C191.564 176.087 191.263 175.814 190.961 175.542C190.632 175.243 190.303 174.943 189.973 174.644C189.808 174.494 189.642 174.344 189.471 174.189C188.96 173.725 188.454 173.257 187.948 172.788C187.786 172.638 187.625 172.489 187.459 172.335C187.149 172.048 186.84 171.761 186.532 171.474C185.934 170.8 185.934 170.8 185.157 170.507Z" fill="black"/>
<path d="M187.793 183.563C187.992 183.551 188.191 183.539 188.397 183.527C188.965 183.691 188.965 183.691 189.41 184.314C189.887 185.24 190.099 186.053 190.308 187.073C190.348 187.261 190.387 187.449 190.428 187.643C190.558 188.268 190.684 188.895 190.81 189.521C190.903 189.967 190.995 190.414 191.088 190.861C191.287 191.817 191.483 192.773 191.679 193.729C192.144 196.003 192.618 198.275 193.092 200.547C193.199 201.063 193.307 201.579 193.414 202.095C194.451 207.074 195.529 212.043 196.636 217.007C196.763 217.574 196.889 218.141 197.014 218.708C197.252 219.775 197.49 220.842 197.728 221.909C197.803 222.242 197.878 222.575 197.955 222.919C198.333 224.596 198.725 226.269 199.139 227.938C199.221 228.27 199.303 228.602 199.388 228.945C199.543 229.569 199.7 230.192 199.86 230.815C200.823 234.682 200.823 234.682 200.097 236.132C199.172 236.595 198.172 236.682 197.168 236.425C196.254 235.464 196.002 234.389 195.719 233.131C195.669 232.918 195.619 232.706 195.568 232.487C195.403 231.783 195.242 231.078 195.081 230.373C194.965 229.872 194.849 229.372 194.733 228.872C193.492 223.509 192.323 218.131 191.163 212.75C190.942 211.725 190.719 210.701 190.497 209.676C189.324 204.27 188.174 198.859 187.061 193.44C187.011 193.195 186.961 192.95 186.909 192.697C186.767 192.005 186.625 191.313 186.484 190.621C186.443 190.419 186.401 190.217 186.359 190.009C185.965 188.071 185.61 186.255 185.742 184.277C186.595 183.708 186.828 183.594 187.793 183.563Z" fill="black"/>
<path d="M113.324 29.4987C114.314 30.2168 114.628 30.4559 114.844 31.641C114.859 32.8846 114.689 33.7569 114.038 34.827C112.861 35.9387 111.777 36.1723 110.155 36.1294C108.967 35.9387 108.138 35.278 107.41 34.3509C107.072 33.1371 106.901 31.9612 107.503 30.8262C108.992 28.9167 111.144 28.3792 113.324 29.4987Z" fill="black"/>
</svg>
