<svg width="300" height="300" viewBox="0 0 300 300" fill="none" xmlns="http://www.w3.org/2000/svg">
<path d="M202.148 37.793C202.341 37.8896 202.535 37.9863 202.734 38.0859C202.855 38.8195 202.855 38.8195 202.917 39.7156C202.95 40.1603 202.95 40.1603 202.983 40.6139C202.998 40.8432 203.012 41.0724 203.027 41.3086C203.22 41.3086 203.414 41.3086 203.613 41.3086C203.691 41.085 203.77 40.8615 203.851 40.6311C204.185 39.876 204.437 39.4718 205.078 38.9648C205.271 38.9648 205.464 38.9648 205.664 38.9648C205.857 40.5117 206.05 42.0586 206.25 43.6523C207.41 43.3623 208.57 43.0723 209.765 42.7734C209.214 44.536 208.576 46.1207 207.714 47.7539C207.908 47.6572 208.101 47.5605 208.3 47.4609C210.941 47.2096 212.986 47.5004 215.105 49.1364C216.002 49.9063 216.843 50.723 217.675 51.5625C217.591 51.7679 217.506 51.9734 217.419 52.1851C217.31 52.463 217.201 52.741 217.089 53.0273C216.987 53.2811 216.884 53.5349 216.778 53.7964C215.823 57.2363 216.462 59.8918 217.704 63.1405C218.403 65.0621 218.538 66.6489 217.675 68.5547C215.948 71.722 212.47 73.5613 209.217 74.8856C208.275 75.1878 208.275 75.1878 208.007 75.8789C206.649 90.3325 208.241 105.38 211.23 119.531C211.32 119.959 211.41 120.386 211.5 120.814C211.546 121.031 211.591 121.248 211.639 121.472C211.824 122.357 212.009 123.241 212.193 124.125C212.323 124.742 212.456 125.359 212.589 125.975C213.447 129.994 213.982 134.018 213.958 138.135C213.957 138.447 213.955 138.759 213.953 139.081C213.87 144.572 212.53 149.696 209.795 154.479C209.101 156.186 209.548 157.872 209.889 159.618C211.485 167.885 211.095 175.646 206.538 182.87C205.98 183.658 205.398 184.41 204.785 185.156C204.612 185.377 204.439 185.597 204.261 185.825C200.325 190.581 194.466 193.707 188.964 196.289C188.788 196.374 188.612 196.459 188.43 196.546C185.17 198.107 181.765 199.234 178.333 200.357C178.013 200.464 177.692 200.571 177.362 200.681C176.367 200.977 176.367 200.977 175.29 201.174C173.725 201.488 172.631 201.722 171.568 202.961C170.954 204.011 170.446 205.065 169.958 206.177C169.774 206.567 169.589 206.956 169.403 207.345C169.041 208.104 168.687 208.865 168.339 209.631C167.865 210.656 167.355 211.652 166.821 212.647C164.283 217.435 163.211 222.63 162.304 227.93C162.266 228.15 162.229 228.369 162.19 228.596C161.734 231.39 161.652 234.201 161.564 237.026C161.558 237.222 161.551 237.419 161.545 237.622C161.407 242.008 161.362 246.394 161.336 250.781C161.33 251.849 161.322 252.917 161.314 253.985C161.3 255.99 161.287 257.995 161.274 260.001C161.259 262.291 161.243 264.581 161.227 266.871C161.194 271.566 161.163 276.262 161.132 280.957C160.359 280.957 159.585 280.957 158.789 280.957C158.775 275.613 158.765 270.27 158.758 264.926C158.755 262.444 158.751 259.961 158.744 257.479C158.738 255.311 158.735 253.142 158.733 250.974C158.733 249.83 158.731 248.686 158.727 247.543C158.705 241.566 158.906 235.647 159.375 229.688C159.171 229.743 158.968 229.798 158.758 229.855C158.358 229.964 158.358 229.964 157.949 230.075C157.685 230.147 157.42 230.219 157.147 230.293C156.593 230.443 156.038 230.591 155.483 230.739C153.549 231.279 152.034 231.763 150.878 233.496C150.694 235.486 151.196 237.045 151.831 238.916C153.649 244.594 154.297 250.419 154.687 256.348C154.713 256.686 154.739 257.025 154.766 257.373C155.088 261.89 155.014 266.421 155 270.947C154.997 272.078 154.996 273.21 154.994 274.341C154.991 276.546 154.986 278.752 154.98 280.957C154.303 280.957 153.626 280.957 152.929 280.957C152.92 280.583 152.92 280.583 152.911 280.202C152.853 277.812 152.792 275.422 152.73 273.032C152.699 271.804 152.667 270.576 152.638 269.349C152.255 253.398 152.255 253.398 149.016 237.826C148.196 235.069 147.923 233.016 148.773 230.237C148.834 230.035 148.895 229.832 148.959 229.624C149.426 228.127 149.949 226.651 150.48 225.176C150.55 224.982 150.619 224.789 150.691 224.589C151.041 223.616 151.394 222.645 151.754 221.676C153.471 217.009 154.277 212.672 154.321 207.697C154.329 207.211 154.338 206.726 154.347 206.24C154.368 205.072 154.383 203.903 154.394 202.734C153.137 202.734 151.88 202.734 150.585 202.734C149.902 204.184 149.902 204.184 149.22 205.635C148.715 206.712 148.208 207.788 147.691 208.859C144.255 216.022 142.708 222.496 143.888 230.414C144.782 236.492 144.861 241.869 144.068 247.974C143.55 252.244 143.499 256.521 143.462 260.815C143.455 261.4 143.449 261.984 143.443 262.569C143.427 264.091 143.413 265.613 143.398 267.135C143.383 268.694 143.367 270.254 143.351 271.813C143.32 274.861 143.29 277.909 143.261 280.957C142.488 280.957 141.714 280.957 140.918 280.957C140.897 277.424 140.881 273.891 140.872 270.357C140.867 268.716 140.861 267.074 140.851 265.432C140.809 258.45 140.843 251.547 141.597 244.6C142.028 240.588 142.053 236.521 141.339 232.542C141.216 231.77 141.188 231.053 141.21 230.273C138.844 230.965 136.806 231.814 134.765 233.203C134.576 233.324 134.388 233.445 134.193 233.569C133.632 233.943 133.632 233.943 133.007 234.668C132.754 236.721 133.445 238.697 133.941 240.674C135.571 247.364 136.68 254.158 137.109 261.035C137.135 261.418 137.16 261.801 137.187 262.196C137.436 266.173 137.436 270.143 137.42 274.127C137.419 274.793 137.417 275.46 137.416 276.126C137.413 277.736 137.408 279.347 137.402 280.957C136.532 280.957 135.662 280.957 134.765 280.957C134.762 280.615 134.762 280.615 134.758 280.267C134.735 278.079 134.709 275.892 134.681 273.704C134.667 272.581 134.653 271.457 134.642 270.333C134.595 265.809 134.52 261.296 134.207 256.781C134.185 256.457 134.163 256.132 134.14 255.798C133.844 251.938 132.903 248.288 131.805 244.588C130.533 240.266 129.624 236.484 130.152 231.985C130.422 229.616 130.442 227.252 130.444 224.872C130.444 224.643 130.444 224.415 130.445 224.18C130.439 217.576 129.857 211.024 128.906 204.492C128.861 204.176 128.816 203.859 128.769 203.533C128.724 203.245 128.678 202.958 128.631 202.661C128.592 202.412 128.553 202.163 128.513 201.906C128.172 200.785 127.579 200.467 126.568 199.908C126.212 199.728 125.856 199.549 125.499 199.37C123.122 198.139 120.922 196.696 118.717 195.184C118.087 194.753 117.456 194.326 116.824 193.898C108.833 188.475 108.833 188.475 106.054 185.522C105.793 185.253 105.793 185.253 105.526 184.978C105.113 184.552 104.704 184.122 104.296 183.691C102.805 184.182 102.284 184.827 101.469 186.126C100.784 187.493 100.507 188.941 100.195 190.43C99.7924 192.3 99.4019 193.648 97.8202 194.827C96.9097 195.303 96.2159 195.263 95.2144 195.117C94.6263 194.929 94.0399 194.734 93.4566 194.531C93.3712 194.782 93.2859 195.034 93.1979 195.292C91.8012 199.188 91.8012 199.188 90.2339 200.391C89.6274 200.605 89.6274 200.605 89.062 200.684C88.8868 200.593 88.7116 200.502 88.531 200.409C87.5931 199.953 86.8705 200.009 85.8394 200.098C85.5493 200.243 85.2593 200.388 84.9605 200.537C83.8762 201.079 83.2288 201.151 82.0308 200.977C80.7642 199.947 80.2176 198.913 79.7969 197.369C79.737 197.154 79.677 196.939 79.6153 196.717C75.4994 180.954 79.7159 165.288 87.7037 151.57C91.1136 145.828 95.0387 140.251 99.9019 135.645C100.139 135.407 100.377 135.169 100.622 134.925C104.737 130.809 109.376 127.464 114.55 124.805C114.839 124.654 114.839 124.654 115.134 124.5C118.61 122.701 122.216 121.473 125.976 120.41C126.228 120.339 126.481 120.267 126.741 120.194C142.389 115.877 160.36 117.51 174.617 125.417C179.067 127.975 182.83 131.171 186.387 134.853C186.605 135.077 186.605 135.077 186.828 135.306C187.215 135.707 187.597 136.113 187.978 136.52C188.731 137.16 189.156 137.353 190.136 137.402C190.778 137 190.778 137 191.308 136.523C191.501 136.523 191.695 136.523 191.894 136.523C192.018 136.263 192.018 136.263 192.144 135.997C192.449 135.411 192.787 134.93 193.176 134.399C193.916 133.232 194.274 132.013 194.604 130.682C194.676 130.394 194.676 130.394 194.749 130.1C195.394 127.323 195.456 124.59 195.446 121.747C195.447 121.417 195.449 121.088 195.45 120.748C195.448 119.053 195.422 117.363 195.341 115.67C195.146 111.542 195.096 107.427 195.109 103.296C195.109 103.015 195.11 102.735 195.111 102.446C195.119 99.817 195.13 97.1876 195.145 94.5583C195.206 84.4577 195.206 84.4577 194.238 74.4141C193.887 74.3113 193.537 74.2086 193.176 74.1028C189.781 72.9497 186.522 71.5001 184.803 68.1633C184.177 66.0693 184.807 64.4342 185.577 62.4939C185.766 62.0047 185.955 61.5152 186.143 61.0256C186.27 60.7046 186.27 60.7046 186.399 60.3771C187.32 57.8339 186.908 55.6139 186.133 53.0945C185.583 51.2459 185.583 51.2459 186.035 50.3906C188.548 48.337 191.071 47.2799 194.301 47.3534C195.58 47.522 196.26 48.0186 197.168 48.9258C197.179 49.5116 197.18 50.0978 197.168 50.6836C196.908 50.5869 196.648 50.4902 196.38 50.3906C193.357 49.5538 190.778 50.0517 188.085 51.5625C188.246 52.5512 188.395 53.0515 188.964 53.9062C189.887 54.0341 189.887 54.0341 190.942 54.0344C192.64 54.1231 193.599 54.1793 194.824 55.3711C195.724 56.488 196.127 57.7482 195.996 59.1797C195.447 60.1529 195.03 60.7371 193.972 61.1618C192.756 61.4144 192.285 61.2906 191.198 60.6262C190.033 59.3217 189.814 58.3388 189.88 56.6345C189.915 55.9699 189.915 55.9699 189.843 55.3711C189.309 54.749 189.309 54.749 188.671 54.4922C188.742 54.7301 188.742 54.7301 188.813 54.9728C189.505 58.1381 188.628 60.5829 187.168 63.3224C186.904 63.8887 186.753 64.4297 186.621 65.0391C186.923 64.9484 187.225 64.8578 187.536 64.7644C188.374 64.5375 189.046 64.4548 189.92 64.4726C192.155 64.5128 192.155 64.5128 193.995 63.3911C194.563 62.7843 195.076 62.146 195.585 61.4891C196.48 60.4146 197.207 59.8472 198.609 59.638C199.624 59.6163 200.638 59.6025 201.654 59.6008C202.005 59.5901 202.356 59.5793 202.717 59.5682C204.716 59.5583 206.036 59.6917 207.555 61.049C208.13 61.652 208.659 62.2539 209.143 62.9333C209.912 64.0012 210.203 64.3808 211.537 64.5996C211.895 64.6479 212.253 64.6963 212.622 64.7461C213.919 64.9228 215.212 65.1103 216.503 65.332C216.408 65.1122 216.312 64.8924 216.214 64.666C214.802 61.3597 213.936 58.9911 214.453 55.3711C214.018 55.5161 214.018 55.5161 213.574 55.6641C213.563 55.9009 213.552 56.1376 213.541 56.3816C213.512 56.8512 213.512 56.8512 213.482 57.3303C213.465 57.6396 213.448 57.9489 213.431 58.2676C213.268 59.2548 212.966 59.8275 212.402 60.6445C212.287 60.8198 212.172 60.995 212.054 61.1755C211.32 61.6565 210.629 61.6793 209.766 61.6459C208.749 61.4337 208.311 60.8718 207.714 60.0586C207.196 58.7787 207.487 57.4937 208.007 56.25C208.758 55.3894 208.758 55.3894 209.472 54.7852C209.569 54.6885 209.666 54.5918 209.765 54.4922C210.234 54.4631 210.705 54.4542 211.175 54.4556C211.431 54.4548 211.686 54.4541 211.95 54.4533C212.695 54.4922 212.695 54.4922 213.336 54.6719C213.511 54.7092 213.686 54.7466 213.867 54.7852C214.539 54.2664 214.942 53.7887 215.35 53.0457C215.389 52.3622 215.389 52.3622 214.746 51.6907C213.377 50.5784 212.236 49.9904 210.461 50.1526C209.476 50.3033 208.628 50.5734 207.714 50.9766C207.424 50.9766 207.134 50.9766 206.835 50.9766C206.835 50.4932 206.835 50.0098 206.835 49.5117C206.5 49.6114 206.5 49.6114 206.158 49.7131C205.371 49.8047 205.371 49.8047 204.84 49.53C204.293 48.5804 204.471 47.6678 204.492 46.582C204.169 46.605 204.169 46.605 203.839 46.6285C197.29 47.035 197.29 47.035 195.747 45.9812C195.017 45.2372 194.471 44.5506 193.945 43.6523C193.686 43.2598 193.686 43.2598 193.422 42.8593C193.304 42.6376 193.187 42.4159 193.066 42.1875C193.163 41.9941 193.259 41.8008 193.359 41.6016C195.002 42.2783 196.646 42.9551 198.339 43.6523C198.194 43.2596 198.049 42.8668 197.9 42.4622C197.485 41.2303 197.378 40.2561 197.46 38.9648C198.013 39.6453 198.558 40.3269 199.071 41.0385C199.222 41.2485 199.374 41.4585 199.53 41.6748C199.672 41.8757 199.814 42.0766 199.961 42.2836C200.389 42.8553 200.389 42.8553 201.269 43.0664C201.242 42.6585 201.242 42.6585 201.214 42.2424C201.205 40.6981 201.703 39.2579 202.148 37.793ZM192.48 55.6641C192.28 56.2183 192.28 56.2183 192.187 56.8359C192.38 57.0293 192.574 57.2227 192.773 57.4219C193.391 57.3286 193.391 57.3286 193.945 57.1289C193.945 56.7422 193.945 56.3555 193.945 55.957C193.461 55.8604 192.978 55.7637 192.48 55.6641ZM210.058 55.6641C209.865 55.8574 209.671 56.0508 209.472 56.25C209.566 57.0125 209.566 57.0125 209.765 57.7148C210.249 57.6182 210.732 57.5215 211.23 57.4219C211.327 57.1318 211.423 56.8418 211.523 56.543C211.12 56.0913 211.12 56.0913 210.644 55.6641C210.451 55.6641 210.257 55.6641 210.058 55.6641ZM196.537 62.9906C196.014 63.5544 195.708 64.0422 195.41 64.7461C199.654 65.4291 203.72 65.4938 208.007 65.0391C208.007 64.749 208.007 64.459 208.007 64.1602C207.511 63.6753 207.511 63.6753 206.872 63.2446C206.661 63.0928 206.451 62.941 206.234 62.7846C205.183 62.0798 204.565 62.0937 203.302 62.1277C202.05 62.1497 201.06 62.0901 199.877 61.6882C198.401 61.2925 197.633 62.0588 196.537 62.9906ZM186.328 67.0898C186.986 68.39 187.844 69.1474 189.019 69.9646C189.198 70.0902 189.377 70.2158 189.562 70.3452C193.819 73.2519 198.321 75.3211 203.573 74.5903C208.173 73.6316 212.777 70.8039 216.21 67.6758C216.065 67.3857 216.065 67.3857 215.918 67.0898C214.316 66.5901 212.864 66.4088 211.193 66.4307C210.868 66.4324 210.868 66.4324 210.536 66.4341C209.199 66.4548 207.919 66.5779 206.597 66.7969C202.768 67.4124 198.964 67.1801 195.144 66.6367C193.763 66.4634 192.387 66.4371 190.997 66.4307C190.652 66.4267 190.652 66.4267 190.299 66.4227C188.869 66.43 187.685 66.6355 186.328 67.0898ZM204.785 75.8789C204.139 75.9023 203.493 75.9105 202.847 75.9075C202.482 75.9066 202.116 75.9056 201.74 75.9047C201.361 75.9022 200.982 75.8997 200.592 75.8972C200.015 75.8952 200.015 75.8952 199.426 75.8932C198.478 75.8898 197.53 75.8849 196.582 75.8789C196.122 76.7987 196.414 77.7272 196.545 78.717C196.788 80.7124 196.95 82.6986 197.032 84.7069C197.044 84.9926 197.056 85.2784 197.069 85.5728C197.212 89.2627 197.252 92.955 197.298 96.6471C197.325 98.7877 197.355 100.928 197.386 103.069C197.389 103.278 197.392 103.487 197.395 103.703C197.444 107.1 197.52 110.496 197.625 113.892C198.138 130.903 198.138 130.903 194.581 136.185C194.145 136.868 194.145 136.868 194.238 137.988C194.763 138.648 195.282 139.237 195.867 139.838C196.03 140.008 196.194 140.178 196.361 140.353C196.683 140.689 197.006 141.023 197.331 141.356C197.659 141.699 197.977 142.052 198.289 142.409C201.042 145.488 205.288 147.16 209.179 148.242C209.566 148.242 209.953 148.242 210.351 148.242C210.493 147.663 210.633 147.083 210.772 146.503C210.85 146.18 210.929 145.857 211.009 145.524C212.948 135.95 210.497 125.935 208.481 116.579C207.319 111.143 206.52 105.692 206.195 100.14C206.183 99.9501 206.172 99.7598 206.16 99.5638C205.74 92.4625 205.652 85.2897 206.543 78.2227C206.584 77.8825 206.584 77.8825 206.627 77.5354C206.696 76.9832 206.766 76.431 206.835 75.8789C206.043 75.4826 205.648 75.7029 204.785 75.8789Z" fill="black"/>
</svg>
