<svg width="300" height="300" viewBox="0 0 300 300" fill="none" xmlns="http://www.w3.org/2000/svg">
<path d="M115.723 89.6484C116.043 90.6091 115.975 90.7737 115.723 91.6992C115.525 93.7898 115.57 95.5707 116.895 97.2656C118.938 98.9977 121.306 100.069 123.725 101.166C126.631 102.521 129.182 103.855 131.543 106.055C131.71 106.206 131.877 106.357 132.049 106.513C137.783 111.749 140.653 118.242 141.211 125.977C141.25 127.144 141.252 128.311 141.249 129.48C141.25 129.82 141.25 130.16 141.251 130.51C141.252 131.639 141.251 132.767 141.25 133.895C141.25 134.494 141.251 135.093 141.251 135.692C141.253 138.055 141.251 140.417 141.249 142.779C141.248 144.123 141.247 145.468 141.247 146.812C141.241 162.245 141.151 177.676 140.938 193.108C140.919 194.454 140.902 195.8 140.885 197.147C140.862 199.006 140.835 200.866 140.805 202.725C140.796 203.343 140.787 203.962 140.778 204.58C140.698 210.261 140.302 215.874 139.27 221.466C138.351 226.089 138.351 226.089 139.454 230.566C141.238 232.86 143.978 233.592 146.753 234.011C150.663 234.467 155.581 234.519 158.903 232.143C160.448 230.819 161.312 229.424 161.509 227.359C161.506 224.964 161.194 222.729 160.712 220.386C160.577 219.71 160.443 219.034 160.31 218.358C160.251 218.065 160.191 217.771 160.129 217.469C158.803 209.839 159.295 201.758 159.227 194.042C159.213 192.359 159.196 190.675 159.181 188.992C159.154 186.156 159.128 183.321 159.103 180.485C159.078 177.612 159.051 174.739 159.024 171.867C158.936 162.625 158.854 153.383 158.79 144.141C158.788 143.879 158.786 143.618 158.784 143.349C158.764 140.497 158.747 137.645 158.739 134.793C158.737 134.082 158.734 133.371 158.73 132.66C158.683 124.346 158.978 116.443 164.649 109.863C164.79 109.684 164.931 109.504 165.076 109.319C168.334 105.225 173.139 102.563 177.831 100.461C178.694 100.071 179.546 99.6604 180.396 99.2432C180.66 99.1148 180.925 98.9864 181.197 98.8541C182.933 97.8731 183.971 96.8224 184.571 94.9219C184.76 93.2452 184.566 91.5959 184.278 89.9414C185.603 90.5863 186.124 91.1889 186.622 92.5781C186.789 94.3376 186.528 95.402 185.743 96.9727C185.936 96.9727 186.129 96.9727 186.329 96.9727C186.329 97.166 186.329 97.3594 186.329 97.5586C185.845 97.6553 185.362 97.752 184.864 97.8516C185.057 98.335 185.25 98.8184 185.45 99.3164C184.676 99.3164 183.903 99.3164 183.106 99.3164C183.106 99.7031 183.106 100.09 183.106 100.488C182.74 100.551 182.373 100.614 181.996 100.678C180.229 101.073 178.723 101.871 177.137 102.722C176.838 102.881 176.54 103.039 176.232 103.202C174.19 104.303 172.285 105.432 170.508 106.934C170.262 107.14 170.015 107.347 169.761 107.56C165.088 111.622 161.891 116.199 161.133 122.461C161.094 123.29 161.093 124.117 161.095 124.946C161.095 125.186 161.094 125.426 161.094 125.673C161.093 126.462 161.093 127.25 161.094 128.039C161.094 128.592 161.094 129.144 161.094 129.697C161.093 130.855 161.094 132.013 161.095 133.171C161.097 134.646 161.096 136.12 161.094 137.595C161.093 138.737 161.093 139.879 161.094 141.021C161.094 141.564 161.094 142.107 161.093 142.65C161.09 145.604 161.133 148.523 161.426 151.465C161.464 151.164 161.503 150.863 161.542 150.553C161.688 149.41 161.838 148.266 161.988 147.123C162.052 146.634 162.115 146.144 162.177 145.654C162.62 142.168 163.244 138.769 164.063 135.352C164.353 135.352 164.643 135.352 164.942 135.352C165.593 141.39 165.837 147.451 166.114 153.516C166.174 153.343 166.234 153.17 166.295 152.992C167.61 149.223 168.995 145.485 170.479 141.78C170.644 141.366 170.808 140.953 170.971 140.539C171.202 139.951 171.438 139.366 171.676 138.781C171.811 138.444 171.946 138.107 172.085 137.76C172.621 136.693 173.23 135.945 174.024 135.059C174.314 135.155 174.604 135.252 174.903 135.352C177.423 140.764 175.007 148.362 173.726 153.842C173.651 154.164 173.576 154.485 173.499 154.817C173.431 155.103 173.363 155.389 173.292 155.684C173.108 156.508 173.108 156.508 173.145 157.617C173.212 157.472 173.28 157.327 173.349 157.177C175.846 151.845 178.883 146.791 182.813 142.383C182.94 142.238 183.067 142.094 183.198 141.945C184.816 140.113 186.455 138.333 188.379 136.816C188.615 136.629 188.85 136.441 189.092 136.248C190.599 135.113 191.729 134.34 193.653 134.473C194.665 135.225 194.909 136.036 195.099 137.238C195.389 142.274 192.858 147.042 189.844 150.879C189.748 151.072 189.651 151.266 189.551 151.465C189.765 151.33 189.979 151.194 190.199 151.055C191.247 150.401 192.301 149.758 193.36 149.121C193.562 148.999 193.764 148.877 193.973 148.751C198.193 146.228 203.217 143.613 208.301 144.141C209.284 144.534 209.9 144.861 210.645 145.605C210.506 148.719 207.186 151.188 205.079 153.223C204.687 153.613 204.296 154.003 203.907 154.395C204.047 154.302 204.187 154.208 204.331 154.113C204.976 153.686 205.622 153.262 206.269 152.838C206.489 152.692 206.71 152.545 206.937 152.395C210.609 149.994 210.609 149.994 212.403 150.293C212.934 150.604 212.934 150.604 213.282 151.172C213.436 152.747 213.117 154.065 212.696 155.566C212.903 155.503 213.11 155.44 213.323 155.374C217.816 154.155 222.668 154.219 227.051 155.859C228.025 156.461 228.025 156.461 228.809 157.031C228.996 157.164 229.184 157.297 229.377 157.434C229.688 157.91 229.688 157.91 229.688 158.752C229.329 159.874 228.796 160.352 227.93 161.133C227.737 161.423 227.543 161.713 227.344 162.012C227.661 162.055 227.661 162.055 227.984 162.099C229.745 162.538 231.214 163.856 232.508 165.088C233.072 166.113 233.065 166.71 232.911 167.871C232.575 168.779 232.177 169.645 231.739 170.508C231.93 170.512 232.121 170.516 232.318 170.52C233.603 170.591 234.677 170.652 235.73 171.442C236.426 172.266 236.426 172.266 236.646 173.053C236.136 175.306 234.706 177.065 233.033 178.601C232.582 178.994 232.582 178.994 232.325 179.59C232.534 179.583 232.742 179.576 232.958 179.569C236.077 179.51 236.077 179.51 237.598 180.176C238.166 180.945 238.166 180.945 238.477 181.641C237.631 182.813 236.759 183.501 235.547 184.277C235.831 184.402 236.114 184.526 236.406 184.654C239.747 186.147 243.49 187.857 245.215 191.309C245.307 192.316 245.307 192.316 245.215 193.359C244.694 193.965 244.277 194.21 243.48 194.307C242.811 194.325 242.149 194.315 241.48 194.293C241.248 194.289 241.015 194.285 240.776 194.281C240.205 194.271 239.634 194.255 239.063 194.238C239.063 194.432 239.063 194.625 239.063 194.824C239.299 194.885 239.534 194.945 239.777 195.007C241.365 195.62 242.836 196.546 244.043 197.754C244.098 198.505 244.098 198.505 244.043 199.219C243.947 199.315 243.85 199.412 243.75 199.512C243.065 199.428 242.381 199.33 241.7 199.219C241.834 199.488 241.969 199.758 242.107 200.036C243.879 203.66 245.066 207.157 245.215 211.23C244.925 211.375 244.925 211.375 244.629 211.523C243.904 211.197 243.259 210.767 242.579 210.352C242.675 210.648 242.772 210.944 242.872 211.249C243.317 213.001 243.695 216.029 242.872 217.676C242.678 217.676 242.485 217.676 242.286 217.676C241.706 216.129 241.125 214.582 240.528 212.988C240.591 213.434 240.655 213.88 240.72 214.339C241.794 222.079 241.794 222.079 241.114 224.121C240.235 223.828 240.235 223.828 239.7 222.838C239.515 222.431 239.334 222.022 239.155 221.613C238.834 220.893 238.514 220.174 238.184 219.434C238.184 222.237 238.184 225.041 238.184 227.93C237.012 228.223 237.012 228.223 236.207 227.802C235.989 227.65 235.771 227.499 235.547 227.344C235.569 227.521 235.59 227.699 235.611 227.882C235.809 229.664 235.875 231.411 235.84 233.203C235.55 233.3 235.26 233.396 234.961 233.496C234.254 232.647 233.676 231.856 233.204 230.859C233.156 231.089 233.109 231.32 233.061 231.557C232.842 232.619 232.62 233.68 232.398 234.741C232.324 235.103 232.25 235.465 232.174 235.838C230.58 243.407 230.58 243.407 227.935 245.724C227.344 246.094 227.344 246.094 226.392 246.13C224.329 245.511 223.069 243.945 221.778 242.285C221.749 242.586 221.72 242.887 221.691 243.197C221.347 246.504 220.961 249.958 218.262 252.246C217.972 252.343 217.682 252.439 217.383 252.539C217.573 251.31 217.837 250.12 218.134 248.914C218.784 245.907 218.925 242.893 217.969 239.941C217.887 240.197 217.805 240.452 217.721 240.715C216.411 244.607 214.482 248.853 211.059 251.329C210.352 251.66 210.352 251.66 209.473 251.367C209.882 250.039 210.41 248.802 210.995 247.545C211.268 246.986 211.268 246.986 211.231 246.387C211.054 246.484 210.876 246.581 210.693 246.681C204.372 250.111 197.882 252.938 191.058 255.231C188.913 255.954 186.817 256.774 184.733 257.659C183.394 258.216 182.209 258.555 180.762 258.691C180.596 259.244 180.596 259.244 180.427 259.807C179.865 261.49 179.055 263.01 178.217 264.569C177.901 265.168 177.585 265.768 177.269 266.367C176.848 267.164 176.425 267.96 175.999 268.754C173.079 274.203 172.218 279.137 172.166 285.289C172.109 287.65 171.667 289.604 170.801 291.797C169.97 293.943 169.589 295.744 169.611 298.059C169.615 298.606 169.615 298.606 169.619 299.165C169.622 299.44 169.626 299.716 169.629 300C168.953 300 168.276 300 167.579 300C167.579 298.066 167.579 296.133 167.579 294.141C166.582 294.177 166.582 294.177 165.564 294.214C163.605 294.245 161.982 293.965 160.254 292.969C160.061 292.775 159.868 292.582 159.668 292.383C159.69 292.638 159.711 292.893 159.733 293.156C159.911 295.444 159.999 297.706 159.961 300C159.091 300 158.221 300 157.325 300C156.911 299.172 157.009 298.491 157.024 297.566C157.028 297.186 157.032 296.806 157.036 296.415C157.038 296.214 157.041 296.013 157.043 295.806C157.08 292.472 157.018 289.202 156.574 285.893C156.057 281.342 157.483 277.322 159.108 273.149C159.45 272.269 159.785 271.387 160.118 270.503C160.332 269.936 160.547 269.37 160.764 268.803C161.129 267.786 161.427 266.763 161.719 265.723C161.308 265.753 161.308 265.753 160.889 265.785C157.374 266.029 153.868 266.07 150.346 266.07C149.377 266.071 148.409 266.076 147.44 266.081C144.142 266.09 140.949 266.012 137.696 265.43C138.146 266.523 138.598 267.615 139.051 268.707C139.185 269.03 139.319 269.354 139.457 269.687C140.142 271.332 140.843 272.96 141.614 274.567C143.548 278.707 144.116 282.519 143.487 287.033C142.965 291.308 143.217 295.701 143.262 300C142.295 300 141.329 300 140.333 300C140.333 297.583 140.333 295.166 140.333 292.676C139.656 293.063 138.979 293.449 138.282 293.848C137.119 294.235 135.909 294.24 134.693 294.305C134.475 294.318 134.256 294.331 134.031 294.344C133.495 294.375 132.959 294.404 132.422 294.434C132.47 294.631 132.518 294.829 132.568 295.032C132.741 296.049 132.743 297.01 132.734 298.041C132.731 298.408 132.728 298.776 132.726 299.154C132.721 299.573 132.721 299.573 132.715 300C132.039 300 131.362 300 130.665 300C130.669 299.536 130.669 299.536 130.673 299.063C130.627 295.506 129.792 292.503 128.538 289.188C128.058 287.83 128.006 286.715 128.04 285.263C128.047 284.833 128.053 284.403 128.059 283.973C128.07 283.303 128.082 282.634 128.1 281.964C128.2 277.992 127.779 274.377 125.776 270.85C125.676 270.671 125.577 270.492 125.474 270.308C124.847 269.194 124.18 268.107 123.51 267.018C123.4 266.839 123.289 266.659 123.176 266.473C123.011 266.207 123.011 266.207 122.844 265.935C119.825 260.923 119.825 260.923 119.825 258.984C119.462 258.918 119.1 258.851 118.726 258.783C116.753 258.343 114.863 257.573 113.083 256.617C110.958 255.488 108.752 254.754 106.474 254.007C102.662 252.751 98.9439 251.416 95.3306 249.657C94.5267 249.266 93.7188 248.884 92.9105 248.503C91.4301 247.803 89.9526 247.097 88.477 246.387C88.6251 246.669 88.7731 246.952 88.9257 247.243C89.118 247.617 89.3103 247.99 89.5024 248.364C89.6002 248.55 89.6981 248.736 89.7988 248.927C90.3145 249.938 90.5278 250.502 90.5278 251.66C87.7202 250.871 85.8475 248.145 84.3755 245.801C83.3768 243.922 82.6632 241.969 82.0317 239.941C81.5646 241.597 81.3329 243.093 81.3359 244.812C81.3356 245.039 81.3352 245.266 81.3348 245.5C81.3693 247.414 81.7493 249.045 82.3613 250.863C82.6177 251.66 82.6177 251.66 82.6177 252.539C80.8516 251.964 80.239 250.909 79.395 249.316C78.5557 247.258 78.2497 245.059 77.9302 242.871C77.7234 243.115 77.7234 243.115 77.5125 243.363C77.3301 243.575 77.1476 243.788 76.9597 244.006C76.7796 244.217 76.5994 244.428 76.4138 244.645C75.7994 245.3 75.2906 245.749 74.3894 245.91C73.1505 245.945 72.5566 245.946 71.5398 245.178C68.4638 241.136 67.7949 236.033 66.7974 231.152C66.4106 231.829 66.0239 232.506 65.6255 233.203C65.2388 233.203 64.852 233.203 64.4536 233.203C64.0326 232.361 64.1923 231.7 64.2705 230.768C64.2969 230.437 64.3234 230.105 64.3506 229.764C64.4394 228.941 64.5677 228.152 64.7466 227.344C64.529 227.495 64.3115 227.646 64.0874 227.802C63.2817 228.223 63.2817 228.223 62.6042 228.131C62.3595 228.031 62.3595 228.031 62.1099 227.93C61.8221 226.97 61.783 226.105 61.7883 225.105C61.7892 224.792 61.7902 224.478 61.7911 224.155C61.7936 223.83 61.796 223.504 61.7986 223.169C61.7999 222.839 61.8012 222.509 61.8026 222.169C61.806 221.355 61.8109 220.541 61.8169 219.727C61.6319 220.093 61.4473 220.459 61.263 220.825C61.1088 221.131 61.1088 221.131 60.9514 221.443C60.5218 222.323 60.1425 223.218 59.7661 224.121C59.4761 224.024 59.186 223.928 58.8872 223.828C58.7674 220.113 59.0857 216.641 59.7661 212.988C58.896 215.164 58.896 215.164 58.0083 217.383C57.7183 217.383 57.4282 217.383 57.1294 217.383C56.3952 215.18 56.9588 212.859 57.4224 210.645C57.1444 210.79 56.8664 210.935 56.5801 211.084C55.6645 211.523 55.6645 211.523 55.0786 211.523C54.7494 207.125 56.3654 203.345 58.3013 199.512C57.7212 199.512 57.1411 199.512 56.5435 199.512C56.3501 199.028 56.1567 198.545 55.9575 198.047C56.8458 196.774 57.731 196.167 59.1069 195.465C59.4498 195.288 59.7927 195.111 60.1461 194.928C60.4074 194.797 60.6687 194.666 60.938 194.531C60.6132 194.517 60.2884 194.503 59.9538 194.488C59.525 194.466 59.0962 194.444 58.6675 194.421C58.4537 194.412 58.24 194.403 58.0197 194.394C55.9425 194.281 55.9425 194.281 55.0786 193.652C54.7486 192.786 54.6849 192.197 54.9802 191.31C56.5445 187.946 59.9376 186.135 63.2817 184.863C63.7675 184.754 64.2554 184.652 64.7466 184.57C63.9772 183.715 63.0654 183.15 62.1099 182.52C61.9165 182.326 61.7231 182.133 61.5239 181.934C61.5422 181.055 61.5422 181.055 61.8169 180.176C62.964 179.566 64.1473 179.427 65.4241 179.26C65.7915 179.211 66.159 179.162 66.5376 179.111C66.8167 179.076 67.0957 179.04 67.3833 179.004C67.2556 178.886 67.128 178.769 66.9965 178.648C65.3345 177.062 63.9045 175.434 63.2451 173.199C63.2817 172.266 63.2817 172.266 63.7944 171.57C64.8674 170.795 65.7125 170.767 66.9988 170.782C67.2899 170.785 67.5811 170.788 67.8811 170.79C68.2148 170.796 68.2148 170.796 68.5552 170.801C68.446 170.592 68.3369 170.383 68.2244 170.168C67.6048 168.913 67.1109 167.886 67.0171 166.479C67.766 164.532 69.1698 163.552 71.0088 162.671C71.2588 162.564 71.5088 162.456 71.7664 162.346C72.4624 162.045 72.4624 162.045 72.6567 161.133C72.4029 161.033 72.4029 161.033 72.144 160.931C71.2688 160.421 70.8356 159.953 70.313 159.082C70.2764 158.038 70.2764 158.038 70.606 157.031C73.0027 154.874 76.4473 154.63 79.5232 154.633C79.7791 154.632 80.0351 154.632 80.2988 154.632C82.5745 154.65 84.7695 154.893 87.0122 155.273C86.9601 154.918 86.9601 154.918 86.9069 154.556C86.602 152.028 86.602 152.028 87.1404 150.787C88.034 150.199 88.5366 150.254 89.5735 150.41C90.795 150.735 91.8103 151.4 92.8716 152.069C93.0985 152.208 93.3255 152.346 93.5594 152.489C94.1137 152.827 94.6655 153.17 95.2153 153.516C95.2487 153.171 95.2487 153.171 94.8574 152.841C94.6108 152.602 94.6108 152.602 94.3593 152.359C94.1795 152.182 93.9998 152.006 93.8146 151.825C93.4353 151.456 93.0553 151.087 92.6747 150.719C91.4023 149.469 90.2938 148.287 89.6489 146.594C89.6489 145.898 89.6489 145.898 90.1616 145.239C91.7868 143.975 94.1297 144.226 96.0942 144.434C101.47 145.628 106.202 148.788 110.743 151.758C110.549 151.468 110.356 151.178 110.157 150.879C108.485 148.33 107.14 145.828 106.055 142.969C105.937 142.665 105.937 142.665 105.817 142.354C105.39 141.005 105.412 139.612 105.396 138.208C105.393 138.003 105.39 137.799 105.388 137.588C105.401 135.525 105.401 135.525 106.055 134.766C107.047 134.442 107.611 134.402 108.599 134.748C111.319 136.349 113.505 138.397 115.723 140.625C115.986 140.888 116.249 141.151 116.52 141.422C120.993 146.127 124.235 151.719 126.856 157.617C126.816 157.413 126.776 157.208 126.735 156.997C125.068 148.402 125.068 148.402 124.512 145.02C124.473 144.784 124.434 144.549 124.394 144.307C124.19 142.826 124.172 141.331 124.146 139.838C124.137 139.519 124.137 139.519 124.127 139.193C124.118 137.812 124.275 136.81 125.098 135.645C125.885 135.388 125.885 135.388 126.563 135.352C129.706 141.059 131.809 147.358 133.887 153.516C133.909 153.096 133.909 153.096 133.932 152.668C134.181 147.95 134.432 143.232 134.766 138.519C134.787 138.2 134.808 137.88 134.829 137.551C134.85 137.262 134.872 136.973 134.894 136.676C134.912 136.425 134.93 136.175 134.948 135.917C134.985 135.73 135.021 135.544 135.059 135.352C135.252 135.255 135.446 135.158 135.645 135.059C136.493 137.298 136.91 139.574 137.309 141.925C137.42 142.578 137.534 143.231 137.648 143.884C138.103 146.503 138.498 149.125 138.868 151.758C138.881 147.96 138.892 144.163 138.898 140.366C138.901 138.602 138.905 136.839 138.912 135.075C138.918 133.371 138.922 131.667 138.923 129.964C138.924 129.316 138.926 128.668 138.93 128.02C138.965 120.442 137.728 114.937 132.331 109.351C131.782 108.831 131.227 108.318 130.665 107.812C130.41 107.579 130.155 107.346 129.892 107.106C127.722 105.286 125.292 103.977 122.791 102.667C122.617 102.575 122.443 102.483 122.264 102.389C121.759 102.123 121.251 101.864 120.743 101.604C120.446 101.452 120.15 101.301 119.844 101.145C118.856 100.745 117.952 100.598 116.895 100.488C116.895 100.102 116.895 99.7148 116.895 99.3164C116.218 99.3164 115.541 99.3164 114.844 99.3164C114.844 99.0264 114.844 98.7363 114.844 98.4375C115.038 98.4375 115.231 98.4375 115.43 98.4375C115.43 98.2441 115.43 98.0508 115.43 97.8516C114.85 97.7549 114.27 97.6582 113.672 97.5586C113.672 97.3652 113.672 97.1719 113.672 96.9727C113.866 96.9727 114.059 96.9727 114.258 96.9727C114.162 96.6282 114.065 96.2838 113.965 95.929C113.482 93.9356 113.569 92.5522 114.502 90.7322C114.844 90.2344 114.844 90.2344 115.723 89.6484ZM186.915 140.625C186.734 140.794 186.553 140.963 186.366 141.137C181.612 145.715 177.693 151.818 175.196 157.91C179.22 157.91 182.855 155.587 185.743 152.93C186.112 152.601 186.112 152.601 186.489 152.265C190.149 148.832 193.017 143.743 193.423 138.666C193.452 137.408 193.452 137.408 193.067 136.23C190.873 136.23 188.393 139.225 186.915 140.625ZM107.227 136.523C106.597 139.928 107.824 143.138 109.278 146.191C109.401 146.459 109.523 146.727 109.65 147.003C112.193 152.126 116.947 155.718 122.23 157.672C123.124 157.932 123.879 157.954 124.805 157.91C123.054 152.006 118.964 146.591 114.702 142.249C114.246 141.784 113.797 141.314 113.348 140.842C110.975 138.366 110.975 138.366 108.106 136.523C107.816 136.523 107.526 136.523 107.227 136.523ZM96.3872 154.395C96.4839 154.588 96.5806 154.781 96.6802 154.98C96.8735 154.884 97.0669 154.787 97.2661 154.688C96.9761 154.591 96.686 154.494 96.3872 154.395ZM202.442 154.98C202.345 155.174 202.249 155.367 202.149 155.566C202.439 155.47 202.729 155.373 203.028 155.273C202.834 155.177 202.641 155.08 202.442 154.98ZM72.3638 158.203C72.8778 159.395 73.4867 159.943 74.5965 160.59C75.9449 161.073 77.1722 160.599 78.5161 160.254C79.2541 160.101 79.9913 159.954 80.7317 159.814C80.9256 159.777 81.1195 159.74 81.3193 159.701C83.6881 159.26 86.0806 159.025 88.477 158.789C88.332 158.354 88.332 158.354 88.1841 157.91C83.8525 156.096 76.4273 155.494 72.3638 158.203ZM211.817 158.203C211.817 158.3 211.817 158.396 211.817 158.496C212.06 158.537 212.304 158.579 212.555 158.621C213.471 158.777 214.386 158.933 215.302 159.09C215.696 159.157 216.09 159.224 216.484 159.291C220.176 159.917 220.176 159.917 221.833 160.294C223.629 160.701 224.963 160.832 226.612 159.869C227.204 159.516 227.204 159.516 227.637 159.082C227.637 158.792 227.637 158.502 227.637 158.203C227.137 158.012 226.637 157.823 226.136 157.635C225.857 157.53 225.578 157.425 225.291 157.316C221.232 155.997 215.62 156.302 211.817 158.203ZM64.7466 181.348C64.7466 181.638 64.7466 181.928 64.7466 182.227C66.5388 183.376 67.5585 183.484 69.6332 183.039C70.3596 182.853 70.3596 182.853 70.8989 182.227C69.5981 181.595 68.4162 181.518 66.9988 181.458C66.6733 181.441 66.6733 181.441 66.3413 181.423C65.8098 181.396 65.2782 181.371 64.7466 181.348ZM229.102 182.227C230.385 183.082 231.663 183.376 233.204 183.398C234.187 183.042 235 182.552 235.84 181.934C235.84 181.837 235.84 181.74 235.84 181.641C234.992 181.625 234.144 181.613 233.295 181.604C233.056 181.599 232.817 181.594 232.57 181.589C231.279 181.579 230.278 181.618 229.102 182.227ZM123.633 260.449C125.536 262.53 127.693 263.557 130.353 264.404C132.355 265.044 134.134 265.81 135.938 266.895C135.46 265.416 134.716 264.14 133.343 263.364C131.58 262.587 129.799 262.05 127.936 261.566C127.651 261.49 127.365 261.414 127.071 261.336C125.927 261.032 124.782 260.734 123.633 260.449ZM171.497 261.786C171.156 261.884 170.815 261.983 170.464 262.084C167.407 263.014 165.495 264.2 163.77 266.895C164.785 266.895 164.983 266.719 165.802 266.162C167.534 265.078 169.384 264.386 171.297 263.692C173.017 263.044 174.371 262.214 175.782 261.035C174.548 260.418 172.754 261.402 171.497 261.786ZM123.633 263.672C124.08 264.981 124.805 266.029 125.593 267.151C128.74 271.785 130.421 276.209 129.885 281.891C129.778 283.096 129.728 284.289 129.712 285.498C129.705 285.87 129.697 286.241 129.69 286.624C129.818 288.058 130.136 289.262 131.222 290.257C131.517 290.421 131.517 290.421 131.818 290.588C132.014 290.702 132.21 290.816 132.412 290.934C134.023 291.682 135.575 291.699 137.275 291.193C139.649 289.854 140.453 287.891 141.211 285.352C141.268 285.162 141.325 284.972 141.383 284.777C142.22 280.654 140.694 276.539 138.575 273.047C136.075 269.404 132.967 267.502 128.88 266.063C127.046 265.416 125.35 264.589 123.633 263.672ZM174.262 264.587C172.884 265.409 171.531 266.052 170.032 266.62C165.219 268.477 162.355 271.346 160.204 276.002C158.669 279.543 158.098 283.372 159.402 287.076C160.136 288.78 161.14 289.832 162.598 290.918C164.365 291.507 166.322 291.501 168.018 290.698C169.239 289.983 169.735 289.308 170.289 288.007C170.829 285.908 170.355 283.55 169.904 281.47C168.948 276.922 170.833 272.757 173.293 268.972C173.796 268.21 174.308 267.456 174.824 266.703C175.912 265.3 175.912 265.3 176.368 263.672C175.494 263.672 175 264.127 174.262 264.587Z" fill="black"/>
<path d="M149.414 35.7422C150.042 36.3705 150.131 36.6262 150.33 37.4634C150.379 37.662 150.428 37.8607 150.478 38.0653C150.586 38.6719 150.586 38.6719 150.586 39.8438C150.779 39.8438 150.973 39.8438 151.172 39.8438C151.207 39.6391 151.243 39.4344 151.279 39.2235C151.353 38.8235 151.353 38.8235 151.428 38.4155C151.5 38.0179 151.5 38.0179 151.572 37.6122C151.758 36.9141 151.758 36.9141 152.344 36.3281C152.634 38.2134 152.634 38.2134 152.93 40.1367C153.123 40.1367 153.316 40.1367 153.516 40.1367C153.97 39.6622 154.407 39.171 154.834 38.6719C155.261 38.1727 155.698 37.6816 156.152 37.207C156.346 37.207 156.539 37.207 156.738 37.207C156.53 38.462 156.132 39.6243 155.695 40.8142C155.626 41.0032 155.557 41.1922 155.487 41.387C155.319 41.8495 155.15 42.3115 154.98 42.7734C155.217 42.5653 155.454 42.3573 155.698 42.1429C156.014 41.8707 156.33 41.5988 156.647 41.3269C156.802 41.1896 156.958 41.0523 157.118 40.9109C158.044 40.1209 158.736 39.6576 159.961 39.5508C159.826 39.7596 159.692 39.9685 159.554 40.1836C158.575 41.7107 157.619 43.2388 156.738 44.8242C157.024 44.8445 157.024 44.8445 157.315 44.8651C165.036 45.4812 170.825 47.5504 176.872 52.3718C178 53.2633 178.636 53.6194 180.103 53.595C181.314 53.5793 182.261 53.7814 183.398 54.1992C183.495 54.3926 183.592 54.5859 183.691 54.7852C181.951 54.9302 181.951 54.9302 180.176 55.0781C180.359 55.3395 180.543 55.6008 180.732 55.8701C180.974 56.2164 181.216 56.5628 181.458 56.9092C181.578 57.081 181.699 57.2528 181.824 57.4299C182.416 58.2803 182.972 59.1122 183.398 60.0586C183.688 59.7686 183.979 59.4785 184.277 59.1797C184.483 61.111 183.837 62.254 182.812 63.8672C183.374 63.6852 183.936 63.5018 184.497 63.3179C184.81 63.2159 185.122 63.1139 185.445 63.0089C186.169 62.7519 186.825 62.4729 187.5 62.1094C187.405 63.6772 186.475 64.536 185.449 65.625C185.812 65.5344 186.174 65.4437 186.548 65.3503C187.354 65.1489 188.159 64.9475 188.965 64.7461C188.799 65.7443 188.513 66.1734 187.738 66.8152C187.487 67.0287 187.487 67.0287 187.231 67.2466C186.621 67.6758 186.621 67.6758 184.863 68.5547C186.41 68.3613 187.957 68.168 189.551 67.9688C188.877 69.3172 188.228 69.6194 186.932 70.2209C186.747 70.311 186.561 70.4011 186.37 70.4939C185.584 70.8717 184.813 71.2083 183.984 71.4844C183.968 71.9359 183.968 71.9359 183.951 72.3965C183.853 74.5931 183.688 76.6056 182.994 78.7113C182.786 79.4958 182.703 80.0514 182.812 80.8594C183.589 82.1262 184.343 82.5691 185.724 83.0566C187.144 83.6029 188.017 84.0694 188.965 85.2539C188.385 85.2539 187.805 85.2539 187.207 85.2539C187.207 85.4473 187.207 85.6406 187.207 85.8398C187.461 85.9395 187.461 85.9395 187.72 86.0413C188.545 86.5226 188.989 87.1275 189.551 87.8906C188.777 87.8906 188.004 87.8906 187.207 87.8906C187.387 88.0872 187.387 88.0872 187.571 88.2877C188.454 89.2785 189.158 90.1112 189.551 91.4062C187.117 90.5069 184.907 89.1441 183.398 87.0117C183.688 86.8184 183.979 86.625 184.277 86.4258C183.858 85.4867 183.339 84.8041 182.648 84.0454C181.669 82.9671 181.669 82.9671 181.348 82.3242C180.567 82.4804 179.997 82.7082 179.279 83.075C177.652 83.7784 175.888 83.7628 174.192 83.3038C171.832 82.3584 170.007 80.807 168.953 78.4847C167.952 75.7441 168.115 72.3713 169.336 69.7266C170.694 67.3663 172.737 65.8524 175.195 64.7461C171.701 65.9862 169.093 67.5796 167.257 70.8927C166.191 73.4544 166.291 77.0278 167.139 79.6509C168.66 83.1749 171.194 85.5579 174.353 87.5977C177.483 89.6593 177.483 89.6593 178.031 91.4829C178.207 92.5657 178.198 93.2705 177.795 94.2993C176.549 95.7122 175.029 96.0345 173.273 96.46C169.976 97.3188 167.477 98.814 164.941 101.074C164.748 101.074 164.555 101.074 164.355 101.074C164.721 99.2446 165.884 98.1225 167.285 96.9727C167.479 96.9727 167.672 96.9727 167.871 96.9727C167.871 96.7793 167.871 96.5859 167.871 96.3867C167.671 96.4381 167.47 96.4896 167.264 96.5426C162.014 97.8576 157.068 98.445 151.643 98.4828C150.665 98.4909 149.689 98.5096 148.712 98.5341C144.178 98.6411 140.108 98.3416 135.736 97.1333C134.639 96.8731 133.544 96.7778 132.422 96.6797C132.609 96.8496 132.796 97.0196 132.988 97.1947C133.23 97.4235 133.473 97.6524 133.722 97.8882C133.963 98.1125 134.205 98.3368 134.453 98.568C135.146 99.424 135.265 99.9904 135.352 101.074C135.062 100.833 134.771 100.591 134.473 100.342C131.642 98.2372 128.425 96.8414 125.002 96.0382C123.58 95.6808 122.771 95.2096 121.875 94.043C121.691 93.3208 121.691 93.3208 121.71 92.5964C121.71 92.3581 121.709 92.1198 121.709 91.8743C122.13 89.946 123.458 88.9415 125.006 87.9089C125.374 87.6541 125.742 87.3989 126.109 87.1433C126.287 87.0207 126.465 86.8981 126.649 86.7718C130.034 84.4266 132.705 81.8002 133.704 77.6733C134.226 74.4672 133.595 71.4861 131.799 68.7927C130.385 67.2509 128.519 66.0446 126.562 65.332C126.732 65.4461 126.902 65.5601 127.077 65.6776C129.872 67.6792 131.236 70.1663 131.836 73.5352C132.177 76.0208 131.361 78.3715 130.042 80.4749C129.86 80.6984 129.679 80.922 129.492 81.1523C129.299 81.1523 129.105 81.1523 128.906 81.1523C128.906 81.3457 128.906 81.5391 128.906 81.7383C128.492 81.978 128.077 82.2157 127.661 82.4524C127.43 82.5849 127.199 82.7175 126.961 82.8541C125.291 83.6972 123.44 83.8035 121.659 83.2443C120.735 82.8752 119.835 82.4762 118.945 82.0312C118.835 82.18 118.726 82.3288 118.612 82.4821C117.683 83.7316 116.731 84.9465 115.723 86.1328C116.158 86.4229 116.158 86.4229 116.602 86.7188C115.713 88.917 113.084 90.3819 111.035 91.4062C110.842 91.4062 110.648 91.4062 110.449 91.4062C110.86 90.0101 111.666 89.0746 112.793 88.1836C112.986 88.1836 113.18 88.1836 113.379 88.1836C113.379 87.9902 113.379 87.7969 113.379 87.5977C112.509 87.5977 111.639 87.5977 110.742 87.5977C111.392 86.7457 111.893 86.1465 112.793 85.5469C112.406 85.4502 112.02 85.3535 111.621 85.2539C111.929 84.325 112.173 84.1 113.056 83.6346C113.734 83.3598 114.411 83.0851 115.089 82.8106C116.286 82.1824 116.943 81.4457 117.462 80.2002C117.481 79.3862 117.364 79.0216 117.078 78.2776C116.59 76.9557 116.465 75.6989 116.382 74.3042C116.369 74.0984 116.356 73.8927 116.342 73.6807C116.297 72.7544 116.306 72.0795 116.602 71.1914C116.349 71.1601 116.096 71.1287 115.836 71.0964C114.788 70.8873 113.985 70.5519 113.031 70.0745C112.731 69.9276 112.431 69.7806 112.121 69.6293C111.328 69.1406 111.328 69.1406 110.449 67.9688C111.899 68.0654 113.35 68.1621 114.844 68.2617C114.33 67.9536 113.817 67.6454 113.287 67.3279C111.944 66.5218 111.592 66.1626 110.742 64.7461C111.999 65.0361 113.256 65.3262 114.551 65.625C114.125 65.0812 114.125 65.0812 113.69 64.5264C113.063 63.7253 112.679 63.117 112.5 62.1094C112.755 62.2312 112.755 62.2312 113.015 62.3554C114.31 62.956 115.458 63.4268 116.895 63.5742C116.789 63.3797 116.683 63.1852 116.574 62.9848C116.438 62.7262 116.302 62.4675 116.162 62.2009C116.026 61.946 115.89 61.6911 115.75 61.4285C115.416 60.61 115.367 60.0538 115.43 59.1797C115.865 59.4697 115.865 59.4697 116.309 59.7656C116.309 59.959 116.309 60.1523 116.309 60.3516C116.502 60.3516 116.695 60.3516 116.895 60.3516C116.918 60.145 116.942 59.9384 116.967 59.7256C117.242 58.6815 117.727 58.0415 118.378 57.1838C118.593 56.898 118.807 56.6121 119.029 56.3175C119.195 56.1019 119.36 55.8862 119.531 55.6641C118.468 55.374 117.404 55.084 116.309 54.7852C116.895 54.1992 116.895 54.1992 117.773 53.9062C118.036 53.9096 118.298 53.913 118.569 53.9165C121.124 53.9382 122.359 53.1866 124.19 51.495C129.431 46.6648 136.209 45.6559 142.969 44.5312C142.041 43.276 141.116 42.0344 140.076 40.8691C139.901 40.6728 139.727 40.4764 139.547 40.274C139.419 40.132 139.292 39.9901 139.16 39.8438C140.039 39.5508 140.039 39.5508 140.714 39.8655C141.087 40.0995 141.087 40.0995 141.467 40.3381C141.714 40.4903 141.961 40.6425 142.216 40.7993C142.99 41.3228 143.712 41.8871 144.434 42.4805C144.361 42.3327 144.289 42.1849 144.214 42.0326C143.888 41.3651 143.566 40.6961 143.243 40.0269C143.129 39.7942 143.015 39.5616 142.897 39.3219C142.791 39.0991 142.684 38.8763 142.574 38.6467C142.474 38.4411 142.374 38.2355 142.272 38.0237C142.212 37.8509 142.152 37.6781 142.09 37.5C142.187 37.3066 142.283 37.1133 142.383 36.9141C143.792 38.0963 145.058 39.2709 146.191 40.7227C146.288 39.2725 146.385 37.8223 146.484 36.3281C147.321 37.4431 147.731 38.284 148.242 39.5508C148.787 38.3055 149.101 37.0607 149.414 35.7422ZM132.715 48.6328C132.384 48.7922 132.053 48.9516 131.712 49.1158C128.844 50.5519 126.238 52.3367 123.633 54.1992C124.541 54.9337 125.471 55.4237 126.526 55.9204C128.981 57.1393 130.501 58.5062 131.836 60.9375C132.032 61.6047 132.032 61.6047 132.129 62.1094C132.007 61.9674 131.886 61.8254 131.76 61.6791C129.433 59.1473 126.072 57.1944 122.754 56.25C122.367 56.25 121.98 56.25 121.582 56.25C121.582 56.4434 121.582 56.6367 121.582 56.8359C121.389 56.8359 121.195 56.8359 120.996 56.8359C120.537 57.3249 120.101 57.8355 119.678 58.3557C119.445 58.6378 119.212 58.9199 118.973 59.2106C118.418 59.9778 118.073 60.6315 117.773 61.5234C118.203 62.1608 118.203 62.1608 118.945 62.6953C119.804 62.7508 120.566 62.7486 121.417 62.6953C125.019 62.5874 128.015 63.4952 130.957 65.625C131.116 65.7878 131.276 65.9505 131.44 66.1182C131.814 66.572 131.814 66.572 132.422 66.5039C132.54 66.7441 132.54 66.7441 132.661 66.9891C132.906 67.475 133.16 67.9569 133.419 68.4357C135.313 72.0221 135.792 75.1095 135.645 79.1016C136.423 78.5003 137.06 77.9972 137.64 77.1973C138.712 75.9725 139.835 75.3703 141.466 75.2106C142.77 75.1973 144.037 75.2787 145.33 75.4429C147.092 75.6452 148.851 75.6291 150.623 75.6226C151.148 75.6227 151.148 75.6227 151.683 75.6228C153.546 75.6163 155.378 75.5548 157.233 75.3845C158.828 75.2643 160.078 75.2425 161.426 76.1719C162.265 76.9055 163.02 77.6918 163.77 78.5156C164.061 78.8102 164.353 79.1038 164.648 79.3945C164.635 79.1071 164.621 78.8197 164.607 78.5236C164.471 74.3496 165.226 70.9117 167.578 67.3828C167.668 67.1755 167.758 66.9681 167.85 66.7545C168.25 66.0613 168.609 65.939 169.336 65.625C169.77 65.3453 170.203 65.0644 170.636 64.7827C173.46 63.1029 176.125 62.498 179.374 62.7899C180.063 62.8487 180.063 62.8487 181.055 62.6953C181.805 61.8588 181.805 61.8588 182.227 60.9375C181.819 60.4301 181.409 59.9237 181 59.4177C180.772 59.1356 180.544 58.8535 180.31 58.5629C179.162 56.9996 179.162 56.9996 177.539 56.163C174.27 57.057 169.822 59.1421 168.076 62.1883C168.008 62.3556 167.941 62.5229 167.871 62.6953C167.678 62.6953 167.484 62.6953 167.285 62.6953C169.478 58.7751 171.963 56.3809 176.074 54.4922C175.738 53.4823 175.556 53.3819 174.689 52.8305C174.462 52.6851 174.234 52.5397 174 52.3899C173.754 52.2377 173.508 52.0855 173.254 51.9287C173.002 51.772 172.749 51.6153 172.488 51.4538C165.416 47.1364 158.639 46.5268 150.504 46.5117C149.59 46.5088 148.676 46.4997 147.762 46.4905C140.036 46.4445 140.036 46.4445 132.715 48.6328ZM119.751 69.0857C118.326 71.6811 118.181 75.0427 118.854 77.9091C119.571 79.6846 120.659 80.669 122.351 81.5552C123.119 81.7574 123.472 81.6627 124.219 81.4453C124.116 81.2652 124.014 81.085 123.909 80.8994C123.775 80.6626 123.642 80.4258 123.505 80.1819C123.306 79.8301 123.306 79.8301 123.103 79.4712C122.59 78.4975 122.415 77.7161 122.406 76.6296C122.402 76.4064 122.398 76.1833 122.393 75.9533C122.468 75.2246 122.684 74.7515 123.047 74.1211C123.403 74.1936 123.76 74.2661 124.127 74.3408C125.147 74.4728 125.327 74.4533 126.251 73.8831C127.282 72.7903 127.247 71.9462 127.232 70.4922C127.101 69.2877 126.703 68.644 125.977 67.6758C123.666 66.2351 121.362 67.0723 119.751 69.0857ZM173.346 68.7195C172.695 70.0447 172.645 71.2021 172.852 72.6562C173.222 73.6219 173.417 73.8148 174.316 74.4141C174.989 74.4218 174.989 74.4218 175.69 74.3042C175.926 74.2717 176.163 74.2392 176.407 74.2058C176.587 74.1778 176.768 74.1499 176.953 74.1211C177.723 75.4745 177.761 76.6976 177.539 78.2227C177.139 79.2559 176.634 80.1979 176.074 81.1523C175.978 81.3457 175.881 81.5391 175.781 81.7383C177.032 81.6838 178.103 81.6099 179.224 81.0242C181.209 78.7631 181.823 76.1792 181.641 73.2422C181.363 70.9103 180.532 69.0992 178.766 67.5293C176.626 66.5225 174.914 66.9815 173.346 68.7195ZM134.967 81.665C134.806 81.8542 134.645 82.0434 134.48 82.2384C132.093 84.9433 129.521 87.2922 126.562 89.3555C127.657 90.0444 128.787 90.0792 130.042 90.1794C132.481 90.403 134.806 90.8951 137.171 91.5268C139.338 92.0722 141.127 91.9199 143.307 91.5367C144.326 91.3772 145.307 91.3675 146.338 91.3696C146.71 91.3689 147.081 91.3681 147.464 91.3673C148.535 91.4062 148.535 91.4062 149.478 91.5733C150.295 91.6995 150.69 91.6349 151.465 91.4062C153.291 91.2775 155.067 91.406 156.874 91.6614C160.092 92.107 162.786 91.8017 165.902 90.8066C167.59 90.3743 169.298 90.2981 171.032 90.1726C171.299 90.1507 171.567 90.1288 171.842 90.1062C172.085 90.0885 172.329 90.0707 172.579 90.0524C172.766 90.0158 172.952 89.9791 173.145 89.9414C173.241 89.748 173.338 89.5547 173.438 89.3555C173.2 89.1814 172.962 89.0073 172.718 88.8279C169.821 86.6732 167.299 84.3502 165.033 81.5186C163.329 79.3967 161.503 77.465 158.789 76.7578C157.223 76.613 155.724 76.6967 154.168 76.9077C152.82 77.0834 151.486 77.0939 150.128 77.0874C149.89 77.0885 149.653 77.0897 149.408 77.0908C148.013 77.0886 146.694 76.9693 145.312 76.7578C140.477 76.4252 138.086 78.0208 134.967 81.665ZM123.926 91.1133C123.659 91.8332 123.631 92.2729 123.761 93.0359C124.437 94.0904 125.396 94.3308 126.562 94.6289C127.6 94.7419 128.632 94.7492 129.675 94.7571C133.228 94.8426 136.841 95.2457 140.266 96.2455C141.054 96.4162 141.787 96.4307 142.594 96.4386C142.932 96.4423 143.27 96.4461 143.618 96.45C143.983 96.4521 144.349 96.4543 144.725 96.4565C145.296 96.4601 145.296 96.4601 145.878 96.4637C146.687 96.4681 147.495 96.471 148.304 96.4732C149.121 96.4758 149.937 96.4818 150.754 96.4912C155.386 96.5435 159.798 96.4139 164.326 95.3471C165.799 95.0304 167.293 94.8948 168.798 94.8498C169.06 94.8401 169.322 94.8305 169.592 94.8206C170.132 94.8026 170.671 94.7858 171.21 94.7702C173.061 94.6994 174.499 94.5074 176.074 93.457C176.148 92.4072 176.148 92.4072 176.074 91.4062C173.858 91.5227 171.677 91.7164 169.484 92.0483C169.27 92.0805 169.056 92.1127 168.836 92.1459C167.959 92.2796 167.082 92.4153 166.206 92.5543C162.324 93.1657 158.664 93.3113 154.735 92.9389C153.048 92.8154 151.358 92.8278 149.667 92.8329C149.045 92.8345 148.423 92.8329 147.8 92.831C145.481 92.8147 145.481 92.8147 143.175 93.0199C140.405 93.388 137.782 93.0605 135.04 92.6147C132.468 92.2136 129.902 91.8438 127.311 91.5809C126.174 91.4652 125.052 91.314 123.926 91.1133Z" fill="black"/>
<path d="M137.402 106.348C139.019 106.467 140.608 106.62 142.2 106.934C148.014 108.036 154.18 107.736 159.944 106.458C160.841 106.294 161.688 106.308 162.598 106.348C161.73 107.243 160.835 108.097 159.906 108.93C159.61 109.195 159.61 109.195 159.307 109.467C158.789 109.864 158.789 109.864 158.203 109.864C158.086 110.123 158.086 110.123 157.967 110.388C157.608 111.052 157.227 111.485 156.702 112.024C153.74 115.349 152.016 119.876 150.293 123.926C149.414 123.633 149.414 123.633 149.078 123.032C148.973 122.772 148.868 122.512 148.759 122.244C148.641 121.957 148.522 121.67 148.399 121.375C148.275 121.069 148.151 120.763 148.022 120.447C147.004 118.028 146.016 115.78 144.434 113.672C144.247 113.422 144.061 113.172 143.869 112.915C142.103 110.63 140.196 108.64 137.833 106.972C137.691 106.863 137.549 106.753 137.402 106.641C137.402 106.544 137.402 106.448 137.402 106.348Z" fill="black"/>
<path d="M134.766 71.1914C136.27 73.4481 136.004 76.2047 135.938 78.8086C136.08 78.6319 136.222 78.4551 136.368 78.273C137.849 76.5076 139.085 75.1432 141.462 74.9222C142.768 74.9023 144.035 74.9855 145.33 75.1499C147.092 75.3522 148.851 75.3362 150.623 75.3296C151.148 75.3297 151.148 75.3297 151.683 75.3298C153.546 75.3234 155.378 75.2618 157.233 75.0916C159.218 74.9395 160.449 75.1295 162.031 76.3435C163.097 77.2983 163.097 77.2983 163.477 77.9297C163.384 78.7285 163.384 78.7285 163.184 79.3945C163.014 79.2744 162.844 79.1543 162.669 79.0306C159.843 77.0816 157.568 76.7453 154.165 77.1984C152.817 77.3766 151.486 77.3869 150.128 77.3804C149.891 77.3815 149.653 77.3826 149.408 77.3838C148.013 77.3816 146.694 77.2622 145.313 77.0508C142.828 76.8799 141.005 76.8919 138.867 78.2227C137.988 78.5156 137.988 78.5156 137.439 78.6255C136.655 78.8562 136.038 79.2491 135.352 79.6875C135.158 79.1074 134.965 78.5273 134.766 77.9297C134.476 77.9297 134.186 77.9297 133.887 77.9297C133.89 77.7276 133.894 77.5256 133.897 77.3174C133.91 75.9302 133.891 74.6132 133.667 73.2422C133.581 72.6025 133.581 72.6025 133.594 72.0703C134.162 71.4661 134.162 71.4661 134.766 71.1914Z" fill="black"/>
<path d="M158.203 80.8594C158.909 81.2735 159.541 81.7533 160.193 82.2476C161.394 83.0943 162.655 83.8008 163.934 84.5215C168.923 87.3582 168.923 87.3582 169.629 88.7696C167.261 88.2327 165.252 87.3908 163.129 86.2244C162.85 86.0747 162.571 85.9249 162.284 85.7706C161.605 85.406 160.929 85.0385 160.254 84.668C160.385 84.8429 160.517 85.0177 160.652 85.1979C161.24 85.9834 161.802 86.7539 162.305 87.5977C162.208 87.8877 162.111 88.1778 162.012 88.4766C161.345 88.0149 160.68 87.5508 160.016 87.085C159.828 86.9551 159.639 86.8252 159.445 86.6913C157.584 85.3794 157.584 85.3794 157.031 84.375C157.123 83.4229 157.123 83.4229 157.324 82.6172C156.654 82.4696 156.654 82.4696 155.859 82.6172C155.276 83.1562 154.866 83.7281 154.395 84.375C154.175 83.899 154.175 83.899 154.102 83.2032C155.147 81.3358 156.018 80.5473 158.203 80.8594Z" fill="black"/>
<path d="M143.024 80.3828C144.267 80.6592 144.988 81.2581 145.697 82.3054C145.936 83.0222 145.94 83.6238 145.898 84.3745C145.397 83.8726 144.916 83.3751 144.452 82.8364C144.153 82.5826 144.153 82.5826 143.848 82.3237C143.198 82.3637 143.198 82.3637 142.676 82.6167C142.821 82.7617 142.821 82.7617 142.969 82.9097C142.969 83.91 142.93 84.6634 142.26 85.4457C141.202 86.3618 140.048 87.139 138.867 87.8901C138.577 88.0835 138.287 88.2769 137.988 88.4761C138.144 87.2383 138.538 86.5598 139.325 85.6013C139.606 85.2541 139.606 85.2541 139.894 84.8998C140.038 84.7265 140.183 84.5531 140.332 84.3745C140.14 84.481 139.948 84.5875 139.751 84.6972C133.776 87.9882 133.776 87.9882 131.25 88.769C130.96 88.6724 130.67 88.5757 130.371 88.4761C132.498 86.5309 134.904 85.1372 137.396 83.714C138.88 82.8611 140.267 81.9812 141.598 80.9027C142.09 80.5659 142.09 80.5659 143.024 80.3828Z" fill="black"/>
</svg>
