<svg width="300" height="300" viewBox="0 0 300 300" fill="none" xmlns="http://www.w3.org/2000/svg">
<path d="M225.879 53.9428C228.03 55.2868 230.937 55.2252 233.405 55.4626C240.18 56.1698 249.426 57.1723 254.057 62.7914C255.679 65.1721 256.978 67.6681 256.971 70.5871C256.971 70.8858 256.972 71.1845 256.973 71.4923C256.934 72.3632 256.934 72.3632 256.792 73.0594C256.645 73.806 256.574 74.5193 256.525 75.278C256.505 75.5509 256.485 75.8237 256.464 76.1049C256.424 76.6685 256.386 77.2323 256.352 77.7963C256.178 80.0352 255.739 82.1226 254.318 83.9172C252.02 85.763 250.182 86.0241 247.266 85.8398C246.551 85.7284 245.837 85.6123 245.124 85.4919C241.073 84.9137 237.019 86.3989 233.297 87.918C231.905 89.062 231.528 90.4816 231.3 92.2337C231.188 93.5248 231.133 94.8175 231.079 96.112C231.057 96.5658 231.034 97.0195 231.011 97.4733C230.955 98.5757 230.906 99.6783 230.86 100.781C231.141 100.82 231.422 100.859 231.712 100.899C232.618 101.074 232.618 101.074 233.039 101.532C233.286 102.605 233.091 103.505 232.911 104.59C232.234 104.783 231.557 104.976 230.86 105.176C230.861 105.427 230.862 105.678 230.864 105.936C230.876 108.34 230.884 110.743 230.89 113.146C230.893 114.381 230.897 115.616 230.904 116.85C230.984 131.875 230.362 146.948 219.214 158.276C212.518 164.886 205.339 167.624 195.946 167.634C194.662 167.622 193.451 167.541 192.188 167.285C192.118 167.519 192.049 167.753 191.977 167.995C191.602 169.042 191.151 170.002 190.658 170.997C185.099 182.227 181.203 194.643 182.674 207.254C183.05 210.615 182.424 213.015 180.558 215.823C179.424 217.843 179.812 220.494 179.81 222.748C179.81 222.978 179.81 223.208 179.809 223.445C179.817 228.737 180.411 233.789 181.495 238.971C181.554 239.253 181.613 239.535 181.673 239.826C182.034 241.437 182.364 242.778 183.622 243.93C184.473 244.457 185.363 244.854 186.274 245.27C188.03 246.116 189.436 247.01 190.43 248.73C190.705 249.719 190.705 249.719 190.723 250.781C190.737 251.025 190.751 251.268 190.765 251.519C190.842 253.465 190.842 253.465 190.423 254.332C189.554 255.159 188.66 255.034 187.524 255.007C187.291 255.007 187.057 255.006 186.816 255.005C186.049 255 185.283 254.988 184.516 254.974C183.988 254.969 183.461 254.965 182.933 254.961C178.204 254.915 173.476 254.778 168.75 254.59C167.597 252.6 167.839 250.747 168.018 248.511C168.047 247.978 168.047 247.978 168.077 247.435C168.232 245.332 168.637 243.756 169.575 241.875C170.905 238.959 170.764 235.261 170.984 232.104C171.003 231.835 171.022 231.566 171.042 231.289C171.296 227.649 171.479 224.016 171.497 220.367C171.501 219.995 171.505 219.622 171.509 219.238C171.507 218.895 171.506 218.553 171.504 218.201C171.503 217.907 171.502 217.612 171.501 217.309C171.273 215.697 170.189 214.633 169.133 213.471C168.159 212.241 168.359 210.661 168.457 209.18C168.64 208.072 168.899 206.99 169.172 205.902C169.306 205.349 169.44 204.795 169.573 204.241C169.663 203.881 169.663 203.881 169.755 203.512C170.198 201.457 170.24 199.54 170.152 197.451C170.139 197.133 170.126 196.815 170.113 196.488C169.915 192.45 169.391 188.45 168.879 184.442C168.781 183.662 168.683 182.882 168.586 182.101C168.451 181.013 168.315 179.924 168.177 178.836C168.137 178.52 168.096 178.203 168.055 177.877C168.02 177.599 167.984 177.32 167.947 177.033C167.871 176.367 167.871 176.367 167.871 175.781C167.683 175.795 167.495 175.808 167.3 175.822C164.962 175.916 163.033 175.39 160.84 174.609C160.719 174.974 160.598 175.339 160.473 175.715C160.215 176.492 159.954 177.267 159.688 178.042C158.184 182.421 157.063 186.717 156.446 191.309C156.416 191.515 156.386 191.722 156.355 191.936C156.082 194.021 156.099 196.111 156.098 198.212C156.094 198.585 156.091 198.959 156.087 199.344C156.084 201.283 156.211 202.926 156.739 204.785C157.069 208.442 156.614 212.17 154.944 215.478C152.873 219.75 153.454 225.956 153.461 230.621C153.461 230.831 153.461 231.04 153.461 231.255C153.466 233.822 153.508 236.378 153.754 238.934C153.775 239.157 153.795 239.379 153.816 239.608C154.003 241.244 154.28 243.086 155.518 244.258C155.709 244.356 155.901 244.454 156.098 244.556C156.407 244.728 156.407 244.728 156.722 244.904C156.921 245.006 157.12 245.109 157.325 245.215C158.749 245.982 159.458 246.689 160.053 248.17C160.479 249.975 160.432 251.873 160.254 253.711C160.061 254.001 159.868 254.291 159.668 254.59C158.891 254.716 158.891 254.716 157.888 254.74C157.51 254.75 157.132 254.761 156.743 254.771C156.327 254.778 155.91 254.785 155.494 254.791C155.067 254.801 154.639 254.811 154.212 254.821C149.099 254.932 143.982 254.91 138.868 254.883C138.863 254.241 138.859 253.599 138.856 252.958C138.853 252.422 138.853 252.422 138.85 251.875C138.892 249.277 139.263 247.045 140.314 244.665C142.729 238.759 142.169 231.373 142.182 225.11C142.183 224.8 142.184 224.491 142.185 224.171C142.346 218.297 142.346 218.297 140.882 212.695C139.398 209.216 140.602 205.815 141.677 202.407C143.825 195.385 141.669 187.127 140.327 180.107C140.289 179.906 140.251 179.705 140.211 179.497C140.107 178.949 140 178.401 139.894 177.853C139.746 176.953 139.746 176.953 139.746 175.781C139.587 175.784 139.427 175.787 139.262 175.79C130.946 175.927 122.869 175.238 115.137 171.973C114.653 173.367 114.206 174.765 113.816 176.189C111.994 182.831 109.143 188.796 106.005 194.906C99.3296 207.918 98.5537 221.972 102.783 235.986C103.717 238.87 104.957 241.433 107.52 243.164C108.479 243.595 109.462 243.905 110.468 244.208C112.757 244.903 114.445 245.445 115.674 247.637C116.063 248.88 116.178 249.982 116.217 251.276C116.227 251.494 116.237 251.713 116.248 251.938C116.291 252.92 116.309 253.899 116.309 254.883C113.464 254.896 110.62 254.907 107.775 254.913C106.454 254.916 105.133 254.92 103.812 254.927C102.538 254.933 101.263 254.937 99.9886 254.938C99.5022 254.939 99.0159 254.942 98.5295 254.945C97.8484 254.949 97.1675 254.95 96.4864 254.949C96.2851 254.951 96.0839 254.953 95.8765 254.956C94.8407 254.951 94.0036 254.943 93.1645 254.297C92.7504 253.336 92.8419 252.306 92.8522 251.275C92.8565 250.711 92.8565 250.711 92.8608 250.135C92.863 249.934 92.8652 249.733 92.8674 249.527C92.8739 248.889 92.878 248.252 92.8813 247.615C92.8911 245.804 92.903 243.992 92.9217 242.181C92.9898 235.352 92.7281 228.752 91.1503 222.07C91.074 221.739 90.9977 221.408 90.9191 221.067C90.0535 217.383 88.9941 213.883 87.3996 210.443C86.2572 207.965 86.0173 205.522 86.9583 202.938C87.4141 201.9 87.9379 200.903 88.4586 199.896C90.5647 195.806 91.1725 191.791 91.1686 187.225C91.1683 186.789 91.1683 186.789 91.1679 186.344C91.1397 182.887 90.8881 179.453 90.0584 176.091C89.9418 175.488 89.9418 175.488 89.9418 174.316C89.7484 174.316 89.5551 174.316 89.3559 174.316C89.3179 174.53 89.2799 174.743 89.2408 174.963C89.073 175.735 88.8489 176.415 88.5605 177.149C88.4575 177.413 88.3545 177.677 88.2484 177.949C88.1365 178.232 88.0246 178.515 87.9093 178.807C87.6701 179.419 87.4308 180.031 87.1915 180.643C87.0663 180.962 86.9412 181.28 86.8122 181.609C86.1689 183.248 85.5306 184.89 84.8927 186.532C84.7066 187.01 84.7066 187.01 84.5168 187.499C81.9521 194.109 79.5218 200.763 77.985 207.696C77.8993 208.081 77.8993 208.081 77.8119 208.473C76.8714 212.937 76.6492 217.304 76.6667 221.851C76.6671 222.132 76.6675 222.414 76.668 222.704C76.685 228.829 76.7037 235.285 78.809 241.113C78.8857 241.333 78.9623 241.552 79.0413 241.778C79.7881 243.444 81.3367 243.952 82.9105 244.629C86.1521 246.06 86.1521 246.06 87.0121 247.851C87.598 249.902 87.598 249.902 87.598 254.883C76.5766 254.738 76.5766 254.738 65.3324 254.59C64.094 250.875 64.9349 245.733 66.0756 242.074C66.2625 241.155 66.255 240.273 66.2605 239.335C66.2618 239.129 66.263 238.924 66.2643 238.712C66.2671 238.035 66.2671 237.359 66.2663 236.682C66.2662 236.45 66.2661 236.218 66.266 235.978C66.2605 232.479 66.1676 228.989 65.9733 225.494C65.9631 225.293 65.9528 225.093 65.9423 224.886C65.7499 221.219 65.3399 217.568 63.8493 214.178C62.8199 211.813 62.2999 209.777 62.3112 207.202C62.3065 206.991 62.3017 206.779 62.2969 206.561C62.2939 203.198 63.5261 200.214 64.8747 197.186C66.5437 193.422 67.7378 189.808 68.317 185.724C68.3652 185.407 68.4133 185.09 68.463 184.764C69.0282 180.945 69.2092 177.165 69.2143 173.309C69.2149 173.072 69.2156 172.835 69.2163 172.59C69.2221 167.182 68.7924 161.824 68.2621 156.445C67.6703 160.199 67.4963 163.934 67.3526 167.727C67.3224 168.506 67.2889 169.285 67.255 170.064C67.2471 170.302 67.2391 170.54 67.2309 170.785C67.1812 171.904 67.1385 172.486 66.5043 173.437C65.9733 173.694 65.9733 173.694 65.3324 173.73C63.9758 173.068 63.9758 173.068 63.5746 172.266C63.0038 163.336 63.1538 152.682 68.2621 145.019C68.4475 144.362 68.4475 144.362 68.578 143.624C68.633 143.347 68.6881 143.07 68.7448 142.784C68.8321 142.341 68.8321 142.341 68.9213 141.888C70.9784 132.058 76.4396 125.541 84.1351 119.338C87.7636 116.327 91.0985 113.105 93.4574 108.984C93.6157 108.715 93.7739 108.445 93.9369 108.167C95.2274 105.791 96.0635 103.322 96.9181 100.763C99.4113 93.3096 102.733 84.7932 109.938 80.7849C112.787 79.4036 115.843 79.0923 118.946 79.6874C121.158 80.4574 122.423 81.4398 123.523 83.5143C124.685 86.4366 124.613 89.7255 124.652 92.8184C124.714 95.2652 124.964 97.7634 126.526 99.7558C126.734 100.032 126.734 100.032 126.945 100.314C127.803 101.12 128.59 101.358 129.757 101.391C131.922 101.199 133.396 100.998 134.967 99.3896C136.385 97.3976 136.721 95.5016 137.073 93.1274C138.016 87.3359 140.331 82.4667 145.045 78.8062C147.773 76.9413 151.007 75.2228 154.395 75.5859C157.795 76.7126 159.833 79.8781 161.426 82.9101C163.529 87.3387 164.706 92.3993 165.103 97.2713C165.184 100.033 165.184 100.033 166.512 102.264C167.38 102.614 167.38 102.614 168.327 102.835C173.343 104.274 177.746 109.888 180.176 114.258C180.886 115.634 181.571 117.023 182.222 118.428C183.492 121.107 184.907 123.082 187.757 124.127C190.91 124.591 194.437 123.915 197.096 122.143C200.564 119.187 202.026 114.56 202.442 110.156C202.518 108.96 202.554 107.766 202.57 106.567C202.577 106.274 202.583 105.981 202.59 105.679C202.624 104.06 202.624 104.06 201.855 102.7C201.662 102.55 201.469 102.4 201.27 102.246C201.134 100.956 201.129 100.406 201.856 99.3163C202.243 99.3163 202.629 99.3163 203.028 99.3163C202.996 96.2268 202.963 93.1373 202.928 90.0478C202.912 88.6128 202.897 87.1777 202.882 85.7426C202.868 84.354 202.853 82.9654 202.836 81.5768C202.831 81.0508 202.825 80.5248 202.82 79.9988C202.806 78.5577 202.785 77.117 202.751 75.6762C202.74 75.2224 202.731 74.7686 202.724 74.3148C202.712 73.6659 202.692 73.018 202.668 72.3695C202.653 71.8158 202.653 71.8158 202.637 71.251C202.396 70.0917 202.031 69.7802 201.069 69.1222C200.804 68.9768 200.54 68.8315 200.267 68.6816C198.497 67.697 197.496 66.0533 196.875 64.1601C196.239 61.2765 196.898 59.0535 198.46 56.5933C199.161 55.6363 199.924 55.0185 200.977 54.4921C203.225 54.1837 204.646 54.5547 206.487 55.8654C207.172 56.3503 207.172 56.3503 208.301 56.2499C208.917 55.8602 208.917 55.8602 209.546 55.3344C210.853 54.378 212.141 53.7672 213.648 53.2104C213.845 53.1371 214.042 53.0638 214.246 52.9882C218.136 51.6045 222.429 51.4987 225.879 53.9428ZM216.834 56.1767C216.627 56.2291 216.42 56.2816 216.207 56.3356C214.354 56.8255 212.834 57.5246 211.231 58.5937C211.021 59.1573 211.021 59.1573 210.92 59.7839C210.799 60.4167 210.799 60.4167 210.645 60.9374C209.786 61.3668 209.262 61.3359 208.301 61.2304C207.463 60.8235 206.707 60.3096 205.939 59.7839C204.19 58.55 204.19 58.55 202.149 58.0077C201.913 58.2857 201.678 58.5637 201.435 58.85C201.236 59.0846 201.236 59.0846 201.033 59.3238C200.195 60.385 200.276 61.4365 200.291 62.7456C200.444 64.0158 200.925 64.7669 201.856 65.6249C203.107 66.5697 204.463 66.9941 205.957 67.3827C206.47 67.8949 206.3 68.6095 206.311 69.3063C206.316 69.6581 206.322 70.0098 206.328 70.3723C206.333 70.7632 206.338 71.1541 206.343 71.545C206.349 71.9499 206.355 72.3549 206.362 72.7598C206.378 73.8488 206.392 74.9378 206.406 76.0268C206.415 76.6999 206.424 77.3729 206.434 78.046C206.538 85.4292 206.583 92.8113 206.543 100.195C213.324 101.629 220.157 101.435 227.051 101.367C227.335 99.1031 227.38 96.872 227.362 94.5922C227.361 94.2561 227.36 93.92 227.358 93.5737C227.355 92.7535 227.35 91.9334 227.344 91.1132C227.118 91.1752 226.892 91.2371 226.659 91.301C223.456 92.1459 220.016 92.7091 216.904 91.2288C210.991 87.74 210.991 87.74 210.059 85.2538C210.169 84.1552 210.169 84.1552 210.352 83.2031C211.153 82.9742 211.153 82.9742 212.11 82.9101C212.755 83.4502 212.755 83.4502 213.355 84.2284C215.176 86.4191 217.45 88.324 220.368 88.6962C222.956 88.9284 224.976 88.2377 227.051 86.7187C226.644 85.6426 226.151 84.6543 225.605 83.6425C223.728 79.9121 223.327 76.0885 224.414 72.0702C225.157 70.0921 226.297 68.5432 227.638 66.9284C229.812 64.3189 229.812 64.3189 230.534 61.1228C230.466 60.4706 230.38 59.8265 230.274 59.1796C229.976 59.1154 229.679 59.0512 229.372 58.9851C226.512 58.3374 224.027 57.4317 221.498 55.9043C219.967 55.2904 218.371 55.7814 216.834 56.1767ZM234.082 59.4726C234.061 59.7279 234.039 59.9832 234.016 60.2462C233.583 64.1688 232.082 66.741 229.662 69.7464C227.695 72.1943 226.958 74.1246 227.051 77.3437C227.389 79.7565 228.169 82.5632 229.935 84.3292C230.552 84.7347 230.552 84.7347 231.273 84.6027C231.529 84.5215 231.786 84.4403 232.05 84.3566C232.33 84.2698 232.61 84.1829 232.899 84.0934C234.278 83.6219 235.65 83.1361 237.012 82.6171C236.659 81.8866 236.293 81.2456 235.84 80.5663C235.744 79.6442 235.699 79.0522 236.17 78.2409C237.027 77.7554 237.528 77.9821 238.477 78.2226C239.373 78.6497 240.223 79.1473 241.077 79.6508C243.422 81.0229 245.463 82.0902 248.218 82.2692C248.737 82.3083 248.737 82.3083 249.266 82.3482C250.192 82.3243 250.633 82.2874 251.368 81.7382C252.657 79.741 252.682 77.5938 252.539 75.2929C250.877 75.1267 249.743 75.4201 248.182 76.0253C246.48 76.6697 244.981 77.0809 243.164 76.7577C242.498 76.4568 242.498 76.4568 241.993 76.1718C241.993 75.5917 241.993 75.0117 241.993 74.414C243.078 73.7979 244.096 73.4236 245.307 73.1139C246.825 72.7229 248.202 72.1691 249.61 71.4843C249.541 70.9111 249.541 70.9111 249.317 70.3124C247.791 69.5497 246.609 69.343 244.917 69.4598C244.336 69.4335 244.336 69.4335 243.457 68.8476C243.402 67.9321 243.402 67.9321 243.457 67.0898C245.418 66.1502 247.104 65.6093 249.225 66.3024C249.648 66.462 250.07 66.6264 250.489 66.7968C250.785 66.9116 251.081 67.0264 251.386 67.1447C251.573 67.2233 251.761 67.3018 251.954 67.3827C251.508 65.404 250.349 63.9376 248.651 62.8577C244.434 60.795 238.765 59.3584 234.082 59.4726ZM143.848 84.9609C141.821 87.9387 141.016 90.6655 140.497 94.1711C139.991 97.5737 139.262 100.775 136.483 103.053C133.763 104.973 130.956 105.137 127.735 104.883C125.645 104.403 124.249 102.769 123.047 101.074C121.959 99.0815 121.272 97.2942 121.217 95.0225C121.208 94.6985 121.198 94.3745 121.188 94.0406C121.17 93.3677 121.154 92.6948 121.138 92.0219C121.089 87.8474 121.089 87.8474 119.532 84.082C117.866 82.774 115.98 83.0167 113.965 83.2031C110.409 83.8958 108.041 86.414 106.053 89.305C103.128 93.9624 101.097 99.045 99.445 104.278C97.716 109.608 94.6875 114.065 90.8207 118.066C90.6398 118.259 90.4589 118.452 90.2725 118.65C89.3536 119.606 88.3778 120.443 87.3417 121.271C85.1547 123.032 83.1404 124.975 81.1157 126.918C80.6704 127.343 80.2185 127.76 79.7646 128.175C74.2186 133.366 72.1869 140.667 71.8006 148.051C71.7931 148.404 71.7855 148.757 71.7777 149.121C71.7713 149.333 71.7649 149.545 71.7583 149.763C71.7286 151.507 71.8305 153.227 71.97 154.963C73.7449 177.077 73.7449 177.077 71.7777 187.207C71.729 187.468 71.6803 187.73 71.6301 187.999C70.8072 192.266 69.4397 196.401 67.4381 200.267C65.7156 203.629 65.4107 207.287 66.5043 210.937C66.8511 211.886 67.1991 212.83 67.5893 213.762C68.8243 216.809 69.2777 220.09 69.4889 223.352C69.5118 223.699 69.5348 224.046 69.5584 224.404C69.7517 227.801 69.797 231.201 69.8138 234.604C69.8169 235.227 69.8213 235.85 69.827 236.472C69.8713 242.061 69.8713 242.061 69.2818 244.318C68.6627 246.548 68.6627 246.548 68.8481 250.781C73.682 250.781 78.516 250.781 83.4965 250.781C83.413 249.122 83.413 249.122 82.7652 248.647C82.5775 248.572 82.3898 248.497 82.1964 248.419C81.9861 248.327 81.7757 248.234 81.559 248.139C81.3283 248.044 81.0975 247.949 80.8598 247.851C78.0267 246.655 76.7217 245.31 75.4032 242.541C67.5386 222.311 75.9551 199.332 83.3635 180.41C87.8302 168.999 90.5811 157.628 90.8207 145.312C90.8297 144.97 90.8297 144.97 90.8389 144.62C90.9209 141.219 90.7358 137.881 90.3916 134.498C90.3671 134.253 90.3426 134.008 90.3173 133.756C90.2599 133.235 90.1931 132.716 90.119 132.198C90.0843 131.937 90.0496 131.676 90.0139 131.408C89.9793 131.174 89.9447 130.939 89.9091 130.698C89.9418 130.078 89.9418 130.078 90.3184 129.559C91.0588 129.029 91.6941 129.14 92.5785 129.199C93.319 131.293 93.8722 133.411 94.4079 135.565C96.6215 144.419 99.3744 152.976 105.469 159.961C105.64 160.171 105.811 160.381 105.988 160.597C111.857 167.69 120.682 170.826 129.548 171.753C132.771 172.056 135.95 172.158 139.161 171.68C139.143 171.396 139.125 171.113 139.107 170.821C139.04 169.753 138.975 168.685 138.91 167.617C138.882 167.158 138.854 166.699 138.825 166.24C138.142 155.345 138.686 144.434 145.539 135.456C146.124 134.81 146.488 134.765 147.364 134.692C147.654 134.716 147.944 134.741 148.243 134.766C148.829 135.644 148.829 135.644 148.804 136.302C148.441 137.391 147.82 138.251 147.162 139.178C138.74 151.509 142.072 168.331 144.328 182.161C144.54 183.466 144.751 184.771 144.961 186.076C145.057 186.669 145.154 187.263 145.253 187.856C146.335 194.468 146.289 200.755 144.074 207.129C143.595 208.996 143.9 210.486 144.562 212.256C147.693 220.763 147.358 237.56 143.665 245.947C143.54 246.186 143.416 246.425 143.287 246.67C142.801 247.91 142.801 247.91 142.676 250.781C147.22 250.781 151.764 250.781 156.446 250.781C156.341 249.129 156.341 249.129 155.695 248.547C155.015 248.152 155.015 248.152 154.424 247.884C152.651 247.052 151.694 246.228 150.989 244.354C149.057 237.949 149.515 230.538 149.909 223.931C149.946 223.312 149.977 222.692 150.008 222.071C150.181 218.945 150.651 216.015 151.941 213.135C152.804 211.19 152.987 209.68 152.985 207.568C152.985 207.304 152.985 207.041 152.986 206.769C152.972 205.065 152.802 203.473 152.477 201.799C150.847 191.695 154.453 180.091 158.789 171.094C158.948 170.761 159.107 170.427 159.27 170.084C161.591 165.499 165.842 159.201 170.508 156.738C171.28 156.659 171.28 156.659 171.973 156.738C172.541 157.214 172.541 157.214 172.852 157.91C172.537 159.506 171.752 160.225 170.508 161.169C167.873 163.291 165.873 165.799 164.026 168.622C163.912 168.796 163.797 168.971 163.679 169.151C163.165 169.964 162.891 170.406 162.891 171.387C166.04 172.794 169.352 172.16 172.504 171.057C176.174 169.504 179.289 166.787 181.119 163.219C181.49 162.212 181.368 161.561 181.055 160.547C180.762 159.946 180.451 159.357 180.136 158.767C179.775 157.962 179.76 157.311 179.883 156.445C180.469 155.859 180.469 155.859 181.385 155.768C182.253 155.913 182.51 156.14 183.093 156.819C183.49 157.389 183.882 157.962 184.27 158.537C186.39 161.528 189.534 162.949 193.058 163.623C200.252 164.651 207.289 163.253 213.159 158.902C221.107 152.86 225.168 144.485 226.589 134.715C227.516 127.558 227.374 120.251 227.381 113.049C227.382 112.695 227.382 112.34 227.383 111.974C227.385 110.959 227.384 109.943 227.383 108.927C227.384 108.616 227.384 108.306 227.385 107.986C227.383 107.559 227.383 107.559 227.382 107.123C227.382 106.874 227.382 106.624 227.381 106.366C227.383 105.743 227.383 105.743 227.051 105.176C226.709 105.17 226.367 105.164 226.015 105.158C224.715 105.135 223.415 105.109 222.116 105.083C221.559 105.072 221.002 105.061 220.446 105.052C217.235 104.998 214.062 104.87 210.871 104.496C209.32 104.318 207.812 104.273 206.25 104.297C206.228 104.513 206.206 104.73 206.184 104.953C204.573 120.605 204.573 120.605 199.265 124.943C195.651 127.503 191.544 128.177 187.207 127.734C184.075 127.071 182.159 124.945 180.409 122.404C179.552 121.064 178.852 119.654 178.144 118.231C175.289 112.646 171.555 107.846 165.528 105.469C164.963 105.342 164.395 105.231 163.824 105.136C163.538 105.087 163.252 105.038 162.958 104.988C162.742 104.954 162.527 104.919 162.305 104.883C162.277 104.539 162.277 104.539 162.248 104.188C161.434 92.0675 161.434 92.0675 156.153 81.4452C155.898 81.132 155.898 81.132 155.639 80.8124C154.824 79.8951 154.352 79.4464 153.132 79.193C149.511 79.868 146.145 82.0847 143.848 84.9609Z" fill="black"/>
<path d="M216.778 64.6912C217.005 64.6913 217.231 64.6915 217.465 64.6917C220.961 64.7183 220.961 64.7183 222.052 65.387C222.532 66.2058 222.492 66.7409 222.363 67.6758C221.736 68.796 221.04 69.8182 220.019 70.6055C218.884 70.9152 218.26 71.0337 217.181 70.5322C216.776 70.2256 216.377 69.9107 215.991 69.5801C215.141 69.0132 214.271 68.7972 213.288 68.5375C212.695 68.2617 212.695 68.2617 212.315 67.7067C212.029 66.8496 212.205 66.1995 212.402 65.332C213.903 64.7245 215.189 64.6661 216.778 64.6912Z" fill="black"/>
</svg>
