<svg width="300" height="300" viewBox="0 0 300 300" fill="none" xmlns="http://www.w3.org/2000/svg">
<path d="M222.363 65.0391C223.802 65.1721 224.479 65.5047 225.513 66.5039C225.764 66.7418 226.015 66.9798 226.274 67.2249C226.53 67.4704 226.787 67.7158 227.051 67.9688C227.556 68.422 228.063 68.8737 228.571 69.3237C229.041 69.7507 229.511 70.1779 229.98 70.6055C230.161 70.763 230.342 70.9204 230.527 71.0827C234.492 74.7271 236.754 80.2864 237.047 85.5988C237.081 86.8526 237.06 88.102 237.012 89.3555C237.688 89.2588 238.365 89.1621 239.062 89.0625C238.865 82.2852 237.029 75.1314 231.976 70.2942C231.47 69.7495 231.47 69.7495 231.152 69.1406C231.242 67.5871 231.761 66.3234 232.617 65.0391C234.117 65.2409 234.645 65.7305 235.58 66.8747C239.616 72.7245 241.549 80.2803 242.645 87.2108C242.929 88.4323 243.203 89.2557 244.25 90.0075C244.874 90.3894 245.507 90.7446 246.149 91.095C246.601 91.3511 247.052 91.6082 247.503 91.8663C247.717 91.9888 247.931 92.1112 248.151 92.2374C251.571 94.2493 253.988 97.3331 256.355 100.449C257.507 101.957 258.727 103.401 259.961 104.843C260.917 105.962 261.843 107.106 262.771 108.25C263.496 109.126 264.249 109.974 265.017 110.814C265.717 111.685 266.007 112.291 266.052 113.416C265.659 115.543 263.745 117.304 262.079 118.542C260.699 119.361 259.678 119.585 258.105 119.238C257.179 118.918 256.268 118.572 255.357 118.21C251.596 116.737 247.651 115.987 243.677 115.338C243.217 115.263 243.217 115.263 242.747 115.186C241.911 115.056 241.075 114.943 240.234 114.844C240.01 114.816 239.786 114.789 239.554 114.761C238.445 114.685 237.956 114.795 237.06 115.469C236.692 115.903 236.692 115.903 236.316 116.345C236.113 116.582 236.113 116.582 235.906 116.824C235.483 117.328 235.074 117.841 234.668 118.359C234.54 118.522 234.412 118.685 234.281 118.853C232.518 121.135 231.081 123.556 229.697 126.081C228.987 127.369 228.206 128.593 227.344 129.785C227.138 130.075 226.933 130.365 226.721 130.664C224.097 133.694 220.406 135.429 216.641 136.526C215.827 136.774 215.827 136.774 215.332 137.695C214.906 141.035 216.958 144.298 218.446 147.166C219.994 150.16 221.502 153.17 222.803 156.281C222.91 156.529 223.018 156.778 223.129 157.035C223.889 158.911 224.122 160.577 223.613 162.555C221.837 166.634 218.741 168.941 215.332 171.68C215.077 171.891 214.821 172.102 214.558 172.319C212.63 173.804 210.04 173.643 207.715 173.438C207.129 172.852 207.129 172.852 206.982 171.973C207.106 169.122 209.687 166.868 211.617 165.014C212.878 163.858 214.272 162.878 215.72 161.972C216.34 161.581 216.34 161.581 217.09 160.84C217.421 159.16 216.805 157.999 215.955 156.592C215.837 156.39 215.719 156.189 215.598 155.981C212.856 151.29 212.856 151.29 209.473 147.07C209.279 147.07 209.086 147.07 208.887 147.07C208.661 150.39 209.124 153.402 209.83 156.646C210.842 161.39 210.842 161.39 209.885 163.175C209.07 164.201 208.237 164.828 207.151 165.539C206.956 165.67 206.761 165.801 206.56 165.937C205.94 166.353 205.317 166.764 204.694 167.175C204.279 167.453 203.864 167.732 203.449 168.011C198.157 171.552 198.157 171.552 196.252 171.515C195.816 171.514 195.816 171.514 195.371 171.514C194.423 171.37 193.85 171.049 193.066 170.508C193.043 169.388 193.137 168.751 193.822 167.847C196.361 165.237 199.337 163.02 202.441 161.133C202.965 160.085 202.684 159.012 202.441 157.91C201.98 156.579 201.45 155.281 200.908 153.98C195.001 139.751 195.001 139.751 195.996 135.059C197.334 132.358 199.297 129.994 201.27 127.734C201.635 127.31 201.635 127.31 202.008 126.877C204.883 123.6 208.139 120.544 212.109 118.652C212.303 118.652 212.496 118.652 212.695 118.652C212.986 117.121 212.986 117.121 212.787 115.613C212.297 115.006 211.981 114.78 211.23 114.551C209.521 114.628 208.536 115.403 207.239 116.418C206.931 116.655 206.931 116.655 206.617 116.895C204.736 118.359 202.983 119.926 201.27 121.582C200.918 121.916 200.918 121.916 200.56 122.256C194.909 127.634 194.909 127.634 191.549 134.218C191.526 136.455 191.846 138.544 192.279 140.735C192.342 141.066 192.404 141.397 192.468 141.737C192.85 143.73 193.287 145.702 193.781 147.671C193.951 148.565 193.974 149.385 193.945 150.293C193.626 150.378 193.306 150.464 192.977 150.552C182.554 153.07 182.554 153.07 174.706 159.785C173.892 161.378 173.444 163.117 172.941 164.827C172.814 165.249 172.687 165.67 172.559 166.092C172.291 166.982 172.025 167.872 171.76 168.763C171.349 170.145 170.934 171.526 170.518 172.907C169.787 175.333 169.06 177.761 168.335 180.188C167.699 182.318 167.062 184.447 166.419 186.574C166.228 187.209 166.04 187.845 165.852 188.481C165.741 188.85 165.63 189.218 165.516 189.598C165.379 190.058 165.379 190.058 165.239 190.528C164.937 191.321 164.648 191.866 164.062 192.48C162.871 192.657 162.212 192.581 161.133 192.041C160.547 191.309 160.547 191.309 160.585 190.36C160.885 188.425 161.465 186.547 161.993 184.664C162.112 184.238 162.23 183.812 162.348 183.386C162.659 182.262 162.973 181.138 163.287 180.014C163.84 178.031 164.391 176.046 164.941 174.062C165.002 173.844 165.063 173.626 165.125 173.401C166.046 170.078 166.949 166.751 167.834 163.419C167.888 163.22 167.941 163.021 167.995 162.816C168.586 160.601 169.151 158.38 169.683 156.15C169.755 155.849 169.755 155.849 169.829 155.542C172.059 146.056 171.689 135.645 167.285 126.855C167.196 126.677 167.107 126.498 167.015 126.314C163.45 119.321 157.135 113.877 149.707 111.328C142.962 109.23 135.878 109.438 129.547 112.738C129.035 113.04 128.529 113.352 128.027 113.672C127.729 113.86 127.431 114.049 127.124 114.243C125.447 115.269 125.447 115.269 124.531 116.915C124.424 117.83 124.424 117.83 125.116 118.616C126.133 119.352 126.507 119.381 127.734 119.238C128.468 118.788 128.468 118.788 129.126 118.158C131.989 115.736 135.412 114.485 139.16 114.258C139.532 114.235 139.532 114.235 139.911 114.211C147.021 113.989 152.763 116.793 158.133 121.249C158.35 121.456 158.566 121.662 158.789 121.875C158.789 122.068 158.789 122.262 158.789 122.461C158.982 122.461 159.176 122.461 159.375 122.461C165.63 129.251 166.997 137.983 166.673 146.912C166.446 151.924 165.397 156.519 164.044 161.334C163.836 162.093 163.628 162.852 163.421 163.611C162.931 165.398 162.435 167.184 161.937 168.969C161.535 170.405 161.137 171.843 160.741 173.281C160.656 173.588 160.656 173.588 160.57 173.901C160.486 174.208 160.486 174.208 160.399 174.521C156.298 189.407 156.298 189.407 154.688 194.238C154.597 194.915 154.597 194.915 154.578 195.648C154.563 195.892 154.549 196.135 154.534 196.386C154.852 198.006 156.135 198.963 157.432 199.859C157.94 200.193 158.449 200.524 158.961 200.853C159.234 201.032 159.508 201.211 159.79 201.396C160.663 201.967 161.539 202.534 162.415 203.101C162.992 203.477 163.569 203.853 164.146 204.23C165.27 204.964 166.394 205.696 167.519 206.428C168.948 207.358 170.368 208.3 171.785 209.249C173.307 210.267 174.837 211.274 176.367 212.28C186.498 218.937 186.498 218.937 190.937 221.923C191.313 222.176 191.689 222.428 192.066 222.679C198.282 226.827 198.282 226.827 198.926 229.102C199.26 232.927 199.26 232.927 198.047 234.375C196.318 235.403 194.606 235.444 192.627 235.474C192.193 235.501 192.193 235.501 191.75 235.529C188.83 235.574 186.886 234.193 184.57 232.617C184.111 232.312 183.652 232.007 183.192 231.703C181.919 230.856 180.654 229.999 179.39 229.138C178.004 228.195 176.614 227.255 175.225 226.315C174.948 226.128 174.671 225.94 174.386 225.747C171.881 224.054 169.359 222.388 166.827 220.734C166.634 220.607 166.441 220.481 166.242 220.351C165.508 219.871 164.774 219.391 164.039 218.912C162.015 217.59 160.005 216.248 157.997 214.903C156.922 214.184 155.846 213.467 154.77 212.75C154.17 212.35 153.57 211.95 152.969 211.549C151.488 210.561 150.005 209.575 148.518 208.596C148.237 208.411 147.956 208.225 147.667 208.034C147.137 207.684 146.606 207.335 146.074 206.987C145.422 206.556 144.779 206.115 144.141 205.664C143.776 205.408 143.776 205.408 143.404 205.147C142.254 203.416 142.61 200.468 142.54 198.437C142.517 197.836 142.493 197.236 142.47 196.635C142.436 195.709 142.402 194.782 142.368 193.856C142.162 188.184 141.947 182.482 140.863 176.898C140.771 176.404 140.771 176.404 140.677 175.899C140.505 174.988 140.331 174.077 140.156 173.167C139.985 172.279 139.819 171.39 139.653 170.501C139.474 169.547 139.293 168.594 139.111 167.641C139.023 167.177 138.935 166.713 138.847 166.249C138.229 162.741 138.229 162.741 137.109 159.375C136.543 159.03 136.543 159.03 135.938 158.789C133.512 157.257 131.35 155.402 129.199 153.516C128.94 153.292 128.94 153.292 128.676 153.064C123.006 148.149 119.188 141.756 118.359 134.18C118.288 132.986 118.245 131.79 118.208 130.595C118.198 130.357 118.188 130.119 118.177 129.873C118.17 129.659 118.163 129.445 118.155 129.225C118.018 128.282 117.734 127.632 116.968 127.057C116.063 126.78 115.455 126.893 114.551 127.148C112.875 129.662 114.07 134.243 114.595 137.032C115.269 140.327 116.266 143.478 117.773 146.484C117.773 146.678 117.773 146.871 117.773 147.07C117.232 146.943 117.232 146.943 116.679 146.814C111.937 145.569 111.937 145.569 107.281 146.484C105.096 147.899 103.938 149.681 102.937 152.039C101.73 154.74 100.101 157.203 98.4369 159.637C97.3633 161.23 96.4131 162.883 95.4712 164.557C93.4735 168.1 91.2625 171.39 88.7695 174.609C88.5686 174.871 88.3677 175.133 88.1607 175.402C83.8912 180.803 78.7684 184.95 72.6562 188.086C72.4469 188.195 72.2375 188.304 72.0218 188.416C61.1985 193.998 46.4601 197.652 34.2773 195.703C34.5565 193.624 35.2116 192.271 36.6211 190.723C36.7552 190.573 36.8892 190.423 37.0274 190.268C38.7771 188.565 41.1758 187.645 43.3594 186.621C43.5898 186.511 43.8203 186.401 44.0578 186.287C46.6242 185.064 49.1592 183.954 51.8921 183.16C60.2079 180.719 67.5886 176.152 73.8281 170.215C74.0355 170.026 74.2428 169.838 74.4564 169.644C77.6077 166.685 79.939 162.832 82.0312 159.082C82.1581 158.855 82.285 158.627 82.4158 158.393C83.9369 155.64 85.3171 152.876 86.4624 149.945C90.0198 140.913 94.8942 132.143 100.488 124.219C100.637 124.008 100.785 123.797 100.938 123.58C102.844 120.881 104.793 118.242 106.934 115.723C107.186 115.416 107.439 115.109 107.691 114.801C111.054 110.747 114.762 106.921 118.945 103.711C119.263 103.455 119.581 103.199 119.897 102.942C122.315 100.991 124.82 99.2243 127.441 97.5586C127.612 97.4492 127.783 97.3398 127.959 97.2271C138.965 90.2305 150.596 86.8649 163.586 86.9202C163.98 86.921 163.98 86.921 164.381 86.9218C168.231 86.935 172.015 87.012 175.781 87.8906C175.993 87.9393 176.205 87.9881 176.424 88.0383C183.256 89.6805 189.798 93.2598 195.507 97.2782C197.715 98.8263 199.906 100.345 202.313 101.569C202.491 101.661 202.668 101.753 202.851 101.848C205.43 103.101 208.205 103.234 211.029 103.326C211.352 103.338 211.675 103.349 212.008 103.36C217.273 103.662 217.273 103.662 221.925 101.621C222.767 100.654 223.272 99.7019 223.81 98.5474C224.011 98.1294 224.212 97.7117 224.414 97.2942C224.512 97.0903 224.61 96.8865 224.712 96.6764C225.239 95.6111 225.833 94.5831 226.427 93.5543C227.06 92.2471 227.139 91.347 226.666 89.978C226.011 88.1237 225.208 86.338 224.414 84.5398C222.102 79.2712 221 74.4835 221.246 68.7195C221.255 68.4855 221.264 68.2515 221.273 68.0104C221.35 66.768 221.471 65.9412 222.363 65.0391ZM241.763 97.7029C241.645 97.8486 241.528 97.9944 241.406 98.1445C242.122 99.5018 243.069 100.471 244.153 101.532C244.318 101.697 244.484 101.862 244.654 102.033C246.025 103.41 246.025 103.41 247.559 104.59C248.191 104.632 248.191 104.632 248.73 104.297C250.12 102.874 251.074 101.325 251.074 99.3164C250.16 99.0249 249.244 98.7398 248.328 98.4558C248.073 98.3744 247.818 98.293 247.555 98.2092C244.573 97.126 244.573 97.126 241.763 97.7029Z" fill="black"/>
</svg>
