<svg width="300" height="300" viewBox="0 0 300 300" fill="none" xmlns="http://www.w3.org/2000/svg">
<path d="M138.624 98.1251C140.174 99.4532 141.414 99.7384 143.424 99.6758C143.787 99.67 143.787 99.67 144.158 99.6641C144.933 99.6505 145.709 99.6302 146.484 99.6094C146.992 99.5987 147.5 99.5884 148.008 99.5783C149.52 99.5466 151.032 99.5053 152.545 99.4629C153.07 99.4487 153.595 99.4346 154.12 99.4205C155.383 99.3866 156.646 99.3518 157.91 99.3164C157.91 99.2197 157.91 99.123 157.91 99.0234C162.26 99.0234 166.611 99.0234 171.093 99.0234C171.093 98.9268 171.093 98.8301 171.093 98.7305C173.182 98.6294 175.524 98.6316 177.194 100.069C177.344 100.232 177.494 100.394 177.648 100.562C177.902 100.827 178.156 101.093 178.417 101.367C179.398 101.297 179.833 100.91 180.468 100.195C183.329 97.2312 187.036 94.8844 191.015 93.75C191.402 93.75 191.788 93.75 192.187 93.75C192.284 93.5566 192.38 93.3633 192.48 93.1641C193.157 93.2607 193.833 93.3574 194.531 93.457C194.627 93.2637 194.724 93.0703 194.824 92.8711C200.906 93.6063 206.161 94.7724 210.313 99.67C214.712 105.577 215.997 113.171 215.048 120.371C214.001 127.31 210.945 134.242 206.402 139.605C205.894 140.289 205.894 140.289 205.966 141.026C206.339 142.042 206.824 142.985 207.33 143.939C209.02 147.244 210.258 150.571 211.157 154.175C211.215 154.401 211.273 154.627 211.333 154.86C212.405 159.426 212.489 164.166 212.445 168.831C212.442 169.371 212.44 169.91 212.438 170.45C212.432 171.611 212.425 172.772 212.416 173.933C212.401 175.855 212.391 177.778 212.381 179.7C212.365 182.777 212.343 185.854 212.317 188.931C212.303 190.693 212.289 192.454 212.278 194.216C212.267 195.957 212.254 197.698 212.238 199.439C212.233 200.096 212.228 200.752 212.225 201.408C212.22 202.311 212.212 203.215 212.202 204.119C212.201 204.521 212.201 204.521 212.2 204.932C212.176 206.769 212.176 206.769 211.523 207.422C208.519 207.738 205.328 207.302 202.323 207.104C201.39 207.043 200.458 206.984 199.525 206.924C198.166 206.838 196.807 206.75 195.447 206.663C191.749 206.424 188.051 206.191 184.352 205.958C183.967 205.934 183.582 205.91 183.186 205.885C174.67 205.349 166.152 204.857 157.633 204.373C155.75 204.266 153.866 204.159 151.982 204.052C151.614 204.031 151.245 204.01 150.866 203.988C150.128 203.946 149.39 203.904 148.653 203.862C147.925 203.821 147.197 203.779 146.47 203.738C139.872 203.362 133.274 202.982 126.676 202.589C125.654 202.528 124.631 202.468 123.608 202.408C114.966 201.903 114.966 201.903 111.455 201.577C111.122 201.55 111.122 201.55 110.783 201.522C110.19 201.461 110.19 201.461 109.277 201.27C108.698 200.401 108.614 200.191 108.569 199.215C108.558 198.993 108.547 198.772 108.535 198.543C108.526 198.313 108.517 198.083 108.508 197.845C108.496 197.612 108.485 197.378 108.473 197.138C108.446 196.562 108.421 195.986 108.398 195.41C108.135 195.332 107.872 195.253 107.601 195.172C99.2412 192.547 92.8747 187.553 88.4623 179.94C88.1429 179.205 88.104 178.677 88.0942 177.878C88.0869 177.457 88.0869 177.457 88.0794 177.028C88.077 176.727 88.0745 176.426 88.072 176.117C88.0645 175.652 88.0645 175.652 88.0569 175.178C88.0413 174.189 88.0295 173.2 88.0182 172.211C88.0053 171.218 87.9917 170.226 87.9764 169.234C87.967 168.617 87.9591 167.999 87.9528 167.382C87.9489 167.104 87.9449 166.826 87.9409 166.54C87.9367 166.171 87.9367 166.171 87.9324 165.796C87.9511 165.232 87.9511 165.232 87.597 164.941C87.5739 164.549 87.571 164.155 87.5767 163.762C87.5798 163.512 87.5828 163.261 87.586 163.003C87.5911 162.73 87.5963 162.457 87.6016 162.175C87.6065 161.895 87.6113 161.615 87.6163 161.326C87.6273 160.731 87.6392 160.136 87.6518 159.541C87.6701 158.635 87.6823 157.73 87.6943 156.825C87.7058 156.246 87.7176 155.668 87.7298 155.089C87.734 154.686 87.734 154.686 87.7383 154.274C87.7831 152.566 88.0833 151.275 88.7689 149.707C88.9623 149.707 89.1556 149.707 89.3549 149.707C89.4697 149.338 89.5845 148.97 89.7028 148.59C90.1622 147.201 90.7518 145.895 91.3805 144.574C91.7071 143.891 91.7071 143.891 91.8209 143.302C92.0214 142.566 92.3308 141.975 92.6965 141.306C92.8406 141.041 92.9847 140.777 93.1332 140.504C93.2882 140.224 93.4432 139.943 93.6029 139.655C93.7623 139.365 93.9216 139.076 94.0858 138.778C94.557 137.928 95.0313 137.079 95.5072 136.23C95.63 136.011 95.7528 135.791 95.8793 135.565C97.8863 132.006 100.302 128.812 103.082 125.816C103.478 125.404 103.478 125.404 103.417 124.805C103.817 124.412 103.817 124.412 104.388 123.944C104.598 123.761 104.809 123.577 105.025 123.388C105.554 122.932 106.092 122.486 106.634 122.047C107.807 121.047 108.84 120.154 109.199 118.597C109.204 117.523 109.11 116.497 108.984 115.43C108.911 114.527 108.855 113.624 108.801 112.72C108.786 112.493 108.771 112.267 108.756 112.034C108.674 110.587 108.75 109.316 109.119 107.906C109.369 106.828 109.407 105.737 109.469 104.634C109.519 104.322 109.519 104.322 109.57 104.004C109.763 103.907 109.956 103.811 110.156 103.711C110.254 103.32 110.351 102.93 110.449 102.539C112.764 98.2254 116.066 94.8331 120.82 93.3735C127.124 92.121 133.734 93.7716 138.624 98.1251ZM122.167 97.8516C122.167 98.0449 122.167 98.2383 122.167 98.4375C121.997 98.4711 121.827 98.5047 121.651 98.5394C119.293 99.2268 117.761 101.383 116.601 103.418C115.168 106.235 114.881 108.805 114.843 111.914C114.836 112.183 114.829 112.452 114.821 112.729C114.814 113.43 114.814 113.43 115.136 114.258C116.16 113.803 116.999 113.317 117.773 112.5C117.844 111.482 117.844 111.482 117.79 110.787C117.752 109.392 118.145 108.197 118.817 106.989C120.085 105.85 121.539 105.524 123.211 105.377C124.218 105.469 124.218 105.469 125.309 105.85C126.313 106.106 126.812 106.045 127.713 105.533C128.103 105.275 128.489 105.009 128.869 104.736C129.277 104.462 129.685 104.188 130.094 103.915C130.29 103.78 130.486 103.644 130.688 103.505C131.443 102.994 132.222 102.526 133.007 102.063C133.237 101.926 133.466 101.79 133.703 101.649C133.86 101.556 134.017 101.463 134.179 101.367C133.535 99.674 131.923 99.1621 130.37 98.4375C127.866 97.3665 124.801 97.0471 122.167 97.8516ZM184.57 103.125C183.799 104.281 183.287 105.223 183.398 106.641C184.471 108.442 186.019 109.861 187.499 111.328C187.698 111.134 187.897 110.939 188.101 110.739C191.251 107.75 194.313 106.176 198.716 106.274C200.327 106.423 201.646 106.776 202.862 107.867C204.7 111.176 204.225 115.734 203.297 119.263C202.816 120.915 202.141 122.482 201.379 124.024C200.716 125.407 200.22 126.768 200.39 128.32C200.83 129.352 201.433 130.218 202.093 131.122C202.257 131.361 202.421 131.601 202.59 131.848C203.214 132.748 203.214 132.748 203.906 133.594C204.099 133.594 204.292 133.594 204.492 133.594C208.937 127.744 211.185 120.022 210.195 112.696C209.442 107.801 207.589 103.374 203.613 100.195C197.174 96.091 189.71 97.7494 184.57 103.125ZM134.179 106.055C133.766 106.326 133.353 106.597 132.94 106.867C131.769 107.646 130.607 108.421 129.492 109.277C129.492 109.471 129.492 109.664 129.492 109.863C129.279 109.937 129.067 110.01 128.848 110.085C127.956 110.481 127.342 110.955 126.599 111.584C125.73 112.301 124.896 112.95 123.907 113.489C123.024 113.871 123.024 113.871 122.753 114.551C122.26 114.834 121.766 115.117 121.268 115.392C120.377 115.913 119.584 116.543 118.78 117.188C118.605 117.326 118.43 117.465 118.25 117.608C116.29 119.176 114.386 120.807 112.499 122.461C112.23 122.697 111.961 122.933 111.683 123.176C106.301 127.96 102.002 133.509 98.4369 139.746C98.2086 140.135 98.2086 140.135 97.9757 140.532C94.7553 146.011 94.7553 146.011 93.4564 152.051C96.6029 152.266 99.75 152.462 102.904 152.527C103.369 152.539 103.835 152.557 104.301 152.581C108.156 152.772 110.198 151.944 113.085 149.414C113.501 149.087 113.918 148.762 114.336 148.439C114.683 148.155 115.029 147.87 115.374 147.583C115.565 147.426 115.756 147.269 115.953 147.107C116.561 146.608 117.167 146.107 117.773 145.605C118.203 145.251 118.633 144.897 119.064 144.543C119.912 143.846 120.76 143.147 121.608 142.448C123.06 141.25 124.518 140.058 125.976 138.867C126.513 138.428 127.05 137.988 127.587 137.549C127.855 137.33 128.123 137.111 128.399 136.885C128.917 136.461 129.435 136.037 129.953 135.612C132.846 133.242 135.741 130.873 138.665 128.54C141.012 126.668 143.324 124.754 145.641 122.845C145.959 122.584 145.959 122.584 146.282 122.318C147.364 121.427 148.445 120.535 149.524 119.641C151.465 118.036 153.411 116.443 155.401 114.899C156.839 113.782 158.204 112.611 159.546 111.378C160.538 110.486 161.573 109.652 162.611 108.813C163.769 107.866 164.907 106.895 166.043 105.92C167.222 104.914 167.222 104.914 167.87 104.59C167.87 104.396 167.87 104.203 167.87 104.004C164.59 103.997 161.309 103.992 158.029 103.989C156.505 103.987 154.982 103.985 153.458 103.982C151.984 103.979 150.51 103.977 149.036 103.976C148.477 103.976 147.918 103.975 147.359 103.973C140.441 103.675 140.441 103.675 134.179 106.055ZM174.312 106.803C174.09 106.959 173.869 107.115 173.64 107.276C173.41 107.441 173.18 107.606 172.943 107.776C172.709 107.939 172.475 108.101 172.235 108.269C171.348 108.89 171.348 108.89 170.507 109.57C170.507 109.764 170.507 109.957 170.507 110.156C170.172 110.283 170.172 110.283 169.83 110.413C168.998 110.731 168.998 110.731 168.163 111.328C168.163 111.521 168.163 111.715 168.163 111.914C167.919 111.941 167.919 111.941 167.669 111.969C166.904 112.238 166.562 112.625 166.017 113.207C164.892 114.274 163.563 115.117 162.304 116.016C161.518 116.595 160.738 117.182 159.96 117.773C159.67 117.991 159.38 118.208 159.081 118.433C158.888 118.602 158.695 118.771 158.495 118.945C158.495 119.139 158.495 119.332 158.495 119.531C158.332 119.549 158.169 119.568 158.001 119.586C157.033 119.926 156.567 120.548 155.859 121.289C154.853 122.203 153.84 123.1 152.746 123.907C151.924 124.621 151.361 125.419 150.728 126.299C150.18 126.998 149.538 127.5 148.828 128.027C148.682 128.317 148.682 128.317 148.535 128.613C148.099 128.903 148.099 128.903 147.656 129.199C147.752 129.296 147.849 129.393 147.949 129.492C147.369 129.782 146.788 130.072 146.191 130.371C146.384 130.468 146.578 130.564 146.777 130.664C147.049 130.573 147.321 130.483 147.601 130.389C150.418 129.54 153.26 129.97 155.859 131.25C158.091 132.488 159.627 133.806 160.546 136.23C160.65 136.489 160.753 136.748 160.86 137.014C161.146 137.73 161.432 138.445 161.718 139.16C171.499 139.193 181.278 139.183 191.057 139.041C191.712 139.032 192.366 139.023 193.02 139.015C194.24 138.998 195.46 138.979 196.68 138.96C197.226 138.953 197.226 138.953 197.784 138.945C198.116 138.939 198.448 138.933 198.791 138.927C199.08 138.923 199.369 138.918 199.667 138.914C200.43 138.895 200.43 138.895 201.269 138.574C200.832 136.9 199.978 135.667 198.998 134.271C198.831 134.03 198.663 133.788 198.491 133.539C196.782 131.089 195.014 128.685 193.227 126.293C192.824 125.752 192.422 125.209 192.021 124.666C190.789 123.006 189.516 121.393 188.199 119.8C187.409 118.835 186.638 117.858 185.87 116.876C185.733 116.702 185.596 116.527 185.455 116.347C184.851 115.576 184.247 114.806 183.644 114.035C182.459 112.534 181.223 111.099 179.934 109.687C179.167 108.842 178.425 107.977 177.687 107.108C177.214 106.572 177.214 106.572 176.367 106.055C175.354 106.055 175.121 106.234 174.312 106.803ZM192.328 113.031C191.523 114.22 191.451 115.489 191.601 116.895C192.112 117.964 192.814 118.794 193.597 119.678C193.789 119.907 193.981 120.137 194.179 120.374C194.533 120.798 194.892 121.219 195.255 121.635C195.703 122.168 195.703 122.168 196.288 123.047C197.267 122.833 197.267 122.833 197.681 121.793C197.862 121.382 198.038 120.97 198.211 120.557C198.302 120.342 198.393 120.128 198.486 119.907C199.582 117.263 200.499 114.224 199.525 111.397C199.274 110.765 199.274 110.765 198.925 110.449C196.272 110.095 194.112 111.058 192.328 113.031ZM142.675 132.715C142.675 132.908 142.675 133.102 142.675 133.301C142.385 133.204 142.095 133.107 141.796 133.008C141.603 133.201 141.41 133.395 141.21 133.594C140.908 133.787 140.606 133.98 140.295 134.18C140.017 134.373 139.739 134.566 139.453 134.766C139.453 134.959 139.453 135.152 139.453 135.352C139.196 135.402 139.196 135.402 138.935 135.453C138.232 135.659 137.774 135.932 137.182 136.359C137.002 136.485 136.822 136.612 136.637 136.742C136.436 136.924 136.436 136.924 136.23 137.109C136.23 137.303 136.23 137.496 136.23 137.695C135.494 137.99 134.764 138.282 134.014 138.538C133.264 138.834 133.264 138.834 132.696 139.471C132.085 140.082 131.776 140.163 130.956 140.332C130.86 140.525 130.763 140.719 130.663 140.918C130.808 141.208 130.808 141.208 130.956 141.504C130.723 141.605 130.723 141.605 130.485 141.709C129.563 142.21 128.77 142.847 127.953 143.5C127.686 143.711 127.686 143.711 127.414 143.927C125.842 145.176 124.286 146.445 122.732 147.717C121.284 148.899 119.81 150.044 118.303 151.151C117.92 151.438 117.552 151.743 117.187 152.051C117.187 152.244 117.187 152.437 117.187 152.637C116.752 152.782 116.752 152.782 116.308 152.93C115.231 153.801 114.889 154.294 114.725 155.689C114.694 156.457 114.664 157.225 114.637 157.993C114.527 159.373 114.22 160.599 113.378 161.719C112.992 161.922 112.601 162.117 112.206 162.305C111.801 162.88 111.412 163.468 111.035 164.062C110.663 164.461 110.663 164.461 110.284 164.868C109.33 165.997 108.905 167.3 108.691 168.75C108.87 169.868 108.87 169.868 109.277 170.801C109.377 171.191 109.476 171.581 109.57 171.973C109.763 171.973 109.956 171.973 110.156 171.973C110.234 172.208 110.313 172.444 110.394 172.687C110.508 172.935 110.623 173.182 110.742 173.438C111.032 173.534 111.322 173.631 111.62 173.73C111.62 173.924 111.62 174.117 111.62 174.316C111.427 174.413 111.234 174.51 111.035 174.609C115.896 178.418 123.717 180.085 129.785 179.883C130.075 179.786 130.365 179.689 130.663 179.59C130.663 179.783 130.663 179.977 130.663 180.176C131.007 180.205 131.007 180.205 131.357 180.234C135.157 180.763 138.281 182.593 141.65 184.341C144.503 185.794 147.432 187.097 150.344 188.427C150.881 188.673 151.418 188.92 151.955 189.167C166.516 196.737 166.516 196.737 181.992 200.878C182.359 200.904 182.359 200.904 182.734 200.93C183.545 200.987 184.357 201.042 185.168 201.097C185.733 201.136 186.297 201.175 186.862 201.214C188.047 201.295 189.232 201.376 190.417 201.457C191.931 201.559 193.446 201.664 194.961 201.769C196.128 201.85 197.295 201.93 198.462 202.01C199.02 202.048 199.578 202.086 200.136 202.125C200.919 202.179 201.702 202.232 202.486 202.285C202.714 202.301 202.943 202.317 203.178 202.333C204.596 202.427 206 202.455 207.421 202.441C207.435 197.338 207.445 192.234 207.452 187.13C207.455 184.759 207.459 182.389 207.465 180.019C207.471 177.95 207.475 175.882 207.476 173.813C207.477 172.72 207.479 171.627 207.483 170.534C207.551 162.395 207.551 162.395 206.194 154.395C206.132 154.155 206.07 153.915 206.006 153.668C205.544 151.956 204.992 150.285 204.363 148.627C204.286 148.42 204.209 148.213 204.129 148C203.883 147.383 203.608 146.79 203.32 146.191C203.163 145.852 203.163 145.852 203.003 145.506C202.434 144.464 202.003 143.696 200.836 143.322C199.894 143.242 198.986 143.252 198.041 143.287C197.671 143.29 197.301 143.293 196.92 143.296C196.095 143.303 195.27 143.318 194.445 143.339C193.095 143.374 191.744 143.39 190.393 143.404C188.564 143.424 186.735 143.45 184.907 143.481C177.915 143.599 170.923 143.648 163.931 143.704C161.548 143.724 159.165 143.746 156.781 143.773C155.122 143.792 153.463 143.808 151.804 143.824C150.831 143.833 149.858 143.843 148.885 143.855C147.816 143.869 146.747 143.878 145.678 143.887C145.207 143.895 145.207 143.895 144.725 143.902C144.436 143.904 144.147 143.905 143.849 143.907C143.6 143.91 143.35 143.912 143.093 143.915C142.271 143.837 141.656 143.627 140.917 143.262C140.106 141.639 140.597 139.615 141.119 137.97C141.605 136.624 142.194 135.39 142.925 134.161C143.261 133.593 143.558 133.015 143.847 132.422C143.239 132.378 143.239 132.378 142.675 132.715ZM146.942 136.487C146.445 137.48 146.356 138.066 146.484 139.16C146.797 139.54 146.797 139.54 147.536 139.486C147.866 139.485 148.196 139.483 148.536 139.482C149.07 139.48 149.07 139.48 149.614 139.479C149.989 139.476 150.364 139.474 150.75 139.471C151.314 139.469 151.314 139.469 151.889 139.467C152.822 139.464 153.754 139.459 154.687 139.453C154.741 137.757 154.61 136.977 153.515 135.645C152.63 134.71 152.206 134.493 150.915 134.326C149.163 134.425 148.056 135.172 146.942 136.487ZM97.851 156.445C97.993 157.806 97.993 157.806 98.4369 159.082C98.6302 159.082 98.8236 159.082 99.0228 159.082C99.0228 159.372 99.0228 159.662 99.0228 159.961C98.8295 159.864 98.6361 159.768 98.4369 159.668C98.8646 160.712 99.4099 161.227 100.305 161.902C100.53 162.075 100.756 162.248 100.989 162.426C102.218 163.278 103.071 163.706 104.589 163.477C106.815 162.389 108.289 160.764 109.387 158.569C109.622 157.836 109.622 157.836 109.57 156.738C106.952 156.469 104.363 156.409 101.733 156.427C101.357 156.428 100.982 156.43 100.595 156.431C99.6805 156.434 98.7657 156.439 97.851 156.445ZM97.558 158.496C97.6547 158.786 97.7513 159.076 97.851 159.375C97.851 159.085 97.851 158.795 97.851 158.496C97.7543 158.496 97.6576 158.496 97.558 158.496ZM93.4564 161.719C93.4491 162.937 93.4438 164.155 93.4403 165.374C93.4389 165.786 93.4369 166.199 93.4343 166.611C93.2908 171.124 93.2908 171.124 93.9244 175.547C94.0424 176.074 94.0424 176.074 93.7494 176.953C96.505 177.157 98.4887 176.335 100.579 174.536C102.584 172.617 102.584 172.617 103.538 170.086C103.501 169.133 103.367 168.667 102.831 167.871C101.711 167.161 100.568 166.631 99.357 166.096C97.4669 165.25 95.8627 164.013 94.5871 162.381C94.4073 162.163 94.2276 161.944 94.0424 161.719C93.849 161.719 93.6556 161.719 93.4564 161.719ZM108.398 170.801C108.691 171.387 108.691 171.387 108.691 171.387L108.398 170.801ZM108.691 171.387C108.984 171.973 108.984 171.973 108.984 171.973L108.691 171.387ZM108.984 171.973C109.277 172.559 109.277 172.559 109.277 172.559L108.984 171.973ZM109.57 172.852C109.763 173.238 109.956 173.625 110.156 174.023C110.446 174.023 110.736 174.023 111.035 174.023C110.551 173.637 110.068 173.25 109.57 172.852ZM105.761 176.367C105.761 176.561 105.761 176.754 105.761 176.953C105.598 177.026 105.435 177.098 105.267 177.173C104.564 177.52 104.564 177.52 103.964 178.085C102.773 178.973 101.466 179.438 100.083 179.961C99.0835 180.368 98.5287 180.594 98.0009 181.559C97.9514 181.78 97.9019 182 97.851 182.227C98.0443 182.227 98.2377 182.227 98.4369 182.227C98.3678 182.394 98.2987 182.562 98.2275 182.735C98.0662 183.431 98.0662 183.431 98.5639 184.026C98.8545 184.331 98.8545 184.331 99.151 184.644C99.344 184.851 99.537 185.057 99.7358 185.271C99.8872 185.426 100.039 185.582 100.195 185.742C99.7596 185.887 99.7596 185.887 99.3158 186.035C103.787 189.497 108.829 191.477 114.55 191.016C118.622 190.473 123.839 187.999 126.562 184.863C126.562 184.67 126.562 184.477 126.562 184.277C126.322 184.233 126.082 184.189 125.834 184.144C116.774 182.462 116.774 182.462 112.792 180.762C112.474 180.627 112.155 180.492 111.826 180.353C109.869 179.451 108.29 178.292 106.664 176.882C106.15 176.336 106.15 176.336 105.761 176.367ZM132.433 185.997C132.199 186.246 131.966 186.494 131.725 186.749C126.898 191.646 120.813 194.713 113.964 195.41C113.964 195.894 113.964 196.377 113.964 196.875C114.254 196.875 114.544 196.875 114.843 196.875C115.363 196.969 115.881 197.067 116.4 197.168C117.692 197.389 118.903 197.486 120.213 197.46C122.441 197.444 124.645 197.57 126.866 197.723C127.584 197.773 128.302 197.82 129.019 197.867C130.805 197.985 132.589 198.106 134.374 198.227C142.219 198.759 142.219 198.759 150.071 199.137C150.402 199.151 150.733 199.165 151.074 199.179C152.923 199.239 154.723 199.178 156.565 198.996C157.58 198.902 158.574 198.897 159.594 198.907C159.943 198.91 160.292 198.913 160.652 198.915C161.034 198.921 161.034 198.921 161.425 198.926C160.093 197.719 158.588 197.04 156.976 196.289C156.679 196.149 156.383 196.009 156.077 195.865C153.586 194.691 151.082 193.543 148.578 192.395C146.83 191.591 145.089 190.772 143.357 189.933C143.169 189.842 142.98 189.75 142.786 189.656C141.873 189.213 140.962 188.769 140.051 188.322C136.194 185.983 136.194 185.983 132.433 185.997Z" fill="black"/>
<path d="M175.245 104.911C175.781 105.176 175.781 105.176 176.367 106.055C176.115 106.172 175.863 106.288 175.603 106.409C174.567 106.956 173.701 107.587 172.778 108.307C171.158 109.571 171.158 109.571 170.508 109.571C170.508 109.764 170.508 109.957 170.508 110.156C169.983 110.443 169.459 110.729 168.934 111.015C168.408 111.303 168.408 111.303 168.164 111.914C167.729 112.059 167.729 112.059 167.285 112.207C166.794 112.692 166.306 113.181 165.82 113.672C165.236 114.128 164.644 114.573 164.044 115.009C162.988 115.777 162.046 116.548 161.133 117.481C160.283 118.033 159.409 118.506 158.496 118.946C158.496 119.139 158.496 119.332 158.496 119.531C158.215 119.577 158.215 119.577 157.928 119.623C157.729 119.689 157.53 119.756 157.324 119.824C157.228 120.114 157.131 120.405 157.031 120.703C156.531 121.207 156.531 121.207 155.914 121.729C155.713 121.901 155.512 122.073 155.304 122.251C153.611 123.633 153.611 123.633 152.93 123.633C152.785 124.068 152.785 124.068 152.637 124.512C152.443 124.512 152.25 124.512 152.051 124.512C151.978 124.729 151.906 124.947 151.831 125.171C151.434 126.044 151.022 126.533 150.293 127.149C150.1 127.149 149.906 127.149 149.707 127.149C149.562 127.584 149.562 127.584 149.414 128.028C149.221 128.028 149.027 128.028 148.828 128.028C148.808 128.255 148.789 128.482 148.769 128.715C148.535 129.492 148.535 129.492 147.917 129.894C147.662 129.997 147.407 130.1 147.144 130.207C146.117 130.665 145.447 131.016 144.781 131.928C144.141 132.715 144.141 132.715 143.317 132.825C143.105 132.789 142.894 132.752 142.676 132.715C142.676 132.908 142.676 133.102 142.676 133.301C142.359 133.419 142.359 133.419 142.035 133.539C140.489 134.148 140.489 134.148 139.453 135.352C138.97 135.652 138.481 135.944 137.988 136.231C137.777 136.394 137.565 136.557 137.347 136.725C136.816 137.11 136.816 137.11 136.23 137.11C136.23 137.303 136.23 137.496 136.23 137.696C135.631 138.137 135.631 138.137 134.839 138.611C134.581 138.769 134.322 138.927 134.056 139.089C133.301 139.453 133.301 139.453 132.129 139.453C134.697 136.829 137.584 134.583 140.539 132.414C140.728 132.275 140.918 132.135 141.113 131.992C141.28 131.87 141.448 131.747 141.62 131.622C142.109 131.235 142.531 130.813 142.969 130.371C143.539 129.926 144.112 129.487 144.69 129.053C146.242 127.874 147.74 126.646 149.221 125.379C150.355 124.411 151.509 123.473 152.678 122.547C153.796 121.65 154.901 120.737 156.006 119.824C157.8 118.344 159.603 116.876 161.426 115.43C163.199 114.018 164.961 112.595 166.718 111.164C168.154 109.994 169.593 108.829 171.067 107.706C171.536 107.339 171.994 106.959 172.448 106.573C172.708 106.354 172.968 106.134 173.236 105.908C173.588 105.605 173.588 105.605 173.947 105.295C174.609 104.883 174.609 104.883 175.245 104.911Z" fill="black"/>
</svg>
