<svg width="300" height="300" viewBox="0 0 300 300" fill="none" xmlns="http://www.w3.org/2000/svg">
<path d="M226.172 24.6094C226.365 24.6094 226.559 24.6094 226.758 24.6094C228.327 27.7481 226.541 33.1048 225.879 36.3281C225.768 36.8812 225.657 37.4343 225.547 37.9875C225.462 38.4109 225.378 38.8344 225.293 39.2578C225.805 39.6373 226.318 40.0155 226.831 40.3931C227.117 40.6038 227.402 40.8145 227.696 41.0316C228.355 41.4897 228.97 41.842 229.688 42.1875C232.979 37.9803 236.048 33.7726 238.477 29.0039C238.67 29.0039 238.863 29.0039 239.063 29.0039C239.306 35.3551 237.542 41.082 234.43 46.5878C233.933 47.8352 234.194 48.7467 234.667 49.9811C234.786 50.2318 234.904 50.4825 235.026 50.7408C235.225 51.1616 235.225 51.1616 235.428 51.591C235.57 51.8837 235.712 52.1764 235.858 52.478C236.004 52.7794 236.15 53.0809 236.3 53.3914C237.962 56.7728 239.951 60.553 243.164 62.6953C243.164 62.9854 243.164 63.2754 243.164 63.5742C241.986 63.7781 241.089 63.917 239.942 63.5742C239.628 67.2722 239.578 70.9607 239.575 74.6704C239.575 74.9751 239.575 75.2798 239.574 75.5937C239.577 80.1333 239.668 84.5898 240.527 89.0625C240.586 89.3804 240.586 89.3804 240.646 89.7047C241.209 92.5851 242.404 95.0424 243.763 97.6104C244.166 98.3788 244.549 99.1552 244.922 99.939C245.037 100.175 245.152 100.412 245.27 100.655C245.562 101.53 245.596 102.208 245.508 103.125C245.198 103.632 245.198 103.632 244.794 104.059C244.068 104.973 243.946 105.608 243.897 106.769C243.816 108.449 243.313 109.436 242.285 110.742C242.128 110.972 241.971 111.201 241.809 111.438C241.012 111.984 240.506 112.036 239.557 112.17C238.08 112.39 237.383 112.786 236.329 113.81C234.995 115.032 233.324 115.641 231.535 115.771C229.944 115.657 228.656 114.972 227.527 113.873C226.284 111.818 225.883 109.982 225.823 107.606C225.775 105.974 225.717 104.587 224.835 103.162C224.001 101.767 224.07 100.632 224.14 99.0601C224.239 96.1543 223.561 94.2825 221.653 92.0334C219.833 90.1272 217.806 88.4885 215.625 87.0117C215.528 87.0117 215.432 87.0117 215.332 87.0117C215.066 94.821 216.739 102.317 218.375 109.905C218.561 110.771 218.746 111.636 218.931 112.501C220.264 118.725 221.626 124.944 223.134 131.127C223.252 131.613 223.369 132.099 223.485 132.586C224.169 135.459 225.068 138.075 226.298 140.759C226.862 142.03 227.259 143.286 227.582 144.635C227.638 144.847 227.693 145.06 227.751 145.279C229.235 151.159 229.764 158.209 227.93 164.062C227.845 164.336 227.76 164.61 227.672 164.892C226.75 167.811 225.756 170.704 224.709 173.581C223.052 178.138 221.501 182.723 220.001 187.335C219.821 187.889 219.64 188.443 219.46 188.996C218.785 191.064 218.114 193.132 217.443 195.2C217.103 196.25 216.762 197.299 216.42 198.348C213.213 208.217 210.082 218.042 208.008 228.223C207.908 228.7 207.908 228.7 207.807 229.186C204.199 246.098 204.199 246.098 207.715 262.5C208.266 263.232 208.846 263.88 209.473 264.551C209.473 264.744 209.473 264.937 209.473 265.137C209.64 265.21 209.807 265.283 209.98 265.359C213.155 267.097 215.192 270.863 216.211 274.219C216.211 274.605 216.211 274.992 216.211 275.391C214.622 275.837 213.177 276.064 211.521 276.054C211.201 276.055 211.201 276.055 210.874 276.056C210.426 276.056 209.979 276.055 209.531 276.053C208.85 276.05 208.169 276.053 207.487 276.057C207.05 276.056 206.612 276.056 206.175 276.054C205.973 276.056 205.772 276.057 205.564 276.058C204.319 276.046 203.307 275.843 202.149 275.391C202.134 275.193 202.12 274.995 202.105 274.791C202.033 273.891 201.945 272.993 201.856 272.095C201.833 271.783 201.811 271.472 201.788 271.151C201.666 269.488 201.666 269.488 200.736 268.201C200.119 267.886 200.119 267.886 199.49 267.686C198.926 267.48 198.926 267.48 198.193 266.766C197.338 264.735 197.639 262.626 197.954 260.494C198.747 255.117 198.739 249.828 198.644 244.407C198.633 243.783 198.626 243.158 198.619 242.534C198.606 241.462 198.585 240.391 198.56 239.319C198.554 238.862 198.554 238.862 198.547 238.396C198.484 236.484 198.103 234.887 197.431 233.096C196.654 230.814 197.35 228.82 198.055 226.591C198.627 224.573 198.685 222.604 198.679 220.523C198.678 220.083 198.678 220.083 198.677 219.635C198.655 216.431 198.46 213.24 198.257 210.044C197.875 203.986 197.609 197.964 197.754 191.895C197.532 191.958 197.309 192.021 197.08 192.087C196.789 192.168 196.498 192.25 196.198 192.334C195.764 192.456 195.764 192.456 195.322 192.581C194.531 192.773 194.531 192.773 193.652 192.773C193.631 192.938 193.609 193.103 193.586 193.272C192.912 197.583 191.392 201.678 189.86 205.743C188.443 209.516 187.336 213.006 187.103 217.054C187.065 217.719 187.026 218.384 186.987 219.049C186.968 219.394 186.948 219.74 186.928 220.095C186.723 223.105 186.206 226.001 185.614 228.955C184.312 235.532 183.62 241.948 183.582 248.657C183.579 248.904 183.577 249.151 183.574 249.405C183.521 256.745 185.621 262.262 189.53 268.426C192.698 273.424 192.698 273.424 192.481 275.977C191.393 276.52 190.089 276.325 188.892 276.324C188.444 276.324 188.444 276.324 187.988 276.324C185.851 276.307 183.733 276.201 181.604 276.013C181.336 275.99 181.067 275.967 180.79 275.944C177.8 275.651 177.8 275.651 176.953 274.805C176.935 274.328 176.936 273.851 176.945 273.374C176.949 273.08 176.952 272.787 176.956 272.484C176.966 271.865 176.978 271.246 176.99 270.628C177.058 267.837 177.058 267.837 175.872 265.387C175.691 265.226 175.51 265.065 175.324 264.899C174.072 263.761 174.072 263.761 173.954 262.823C173.898 260.97 174.179 259.298 174.575 257.501C175.238 254.337 175.57 251.18 175.836 247.961C175.86 247.682 175.884 247.402 175.908 247.114C176.049 245.457 176.182 243.799 176.31 242.141C176.362 241.472 176.418 240.804 176.475 240.135C176.966 235.235 176.966 235.235 175.326 230.717C174.118 228.614 174.328 225.369 174.902 223.077C175.742 219.316 175.205 215.332 174.672 211.567C174.224 208.235 174.079 204.89 173.92 201.535C173.899 201.087 173.878 200.64 173.856 200.193C173.841 199.873 173.841 199.873 173.826 199.547C173.744 197.87 173.614 196.201 173.438 194.531C173.265 194.527 173.091 194.523 172.913 194.518C166.311 194.339 159.908 193.652 153.443 192.316C153.116 192.248 153.116 192.248 152.782 192.179C148.929 191.376 148.929 191.376 147.07 190.723C147.098 191.185 147.098 191.185 147.125 191.656C147.102 194.958 146.027 197.458 144.141 200.098C143.533 200.968 142.93 201.842 142.328 202.716C142.165 202.953 142.001 203.19 141.833 203.434C139.102 207.428 136.675 211.611 134.473 215.918C134.367 216.124 134.261 216.33 134.152 216.542C133.824 217.181 133.498 217.822 133.173 218.463C133.072 218.66 132.972 218.857 132.869 219.06C128.336 228.11 132.257 243.81 135.267 252.873C137.719 259.87 142.069 265.403 147.034 270.795C148.172 272.045 149.115 273.367 150 274.805C149.799 275.372 149.799 275.372 149.414 275.977C148.046 276.404 146.597 276.307 145.179 276.298C144.914 276.298 144.65 276.297 144.377 276.297C143.535 276.295 142.694 276.292 141.852 276.288C141.28 276.286 140.708 276.285 140.136 276.284C138.736 276.281 137.337 276.276 135.938 276.27C134.799 273.199 134.799 273.199 134.393 271.843C133.539 269.022 132.698 267.22 130.078 265.723C129.78 264.828 129.695 264.084 129.616 263.147C128.504 250.822 125.602 237.043 118.893 226.458C117.003 223.368 118.279 219.102 119.052 215.801C120.124 211.424 121.681 207.266 123.386 203.1C126.125 195.807 122.098 186.133 120.117 179.004C119.443 179.678 119.255 180.197 118.916 181.084C118.797 181.389 118.679 181.694 118.557 182.008C118.432 182.334 118.306 182.66 118.176 182.996C117.089 185.764 115.936 188.447 114.539 191.072C114.253 191.612 113.973 192.154 113.695 192.698C110.57 198.749 106.61 204.008 102.158 209.144C99.3001 212.385 99.3001 212.385 97.9089 216.407C97.6085 217.939 97.0347 219.176 96.3136 220.551C94.0669 225.074 92.8788 229.96 92.2853 234.961C92.2377 235.357 92.2377 235.357 92.1892 235.761C90.8653 247.481 91.1841 258.995 98.401 268.762C99.6061 270.439 100.706 272.443 100.415 274.567C100.343 274.839 100.27 275.11 100.195 275.391C98.8396 276.075 97.6222 276.062 96.1397 276.054C95.7676 276.055 95.7676 276.055 95.388 276.056C94.865 276.056 94.3419 276.055 93.8189 276.053C93.0204 276.05 92.2221 276.053 91.4236 276.057C90.9143 276.056 90.405 276.056 89.8958 276.054C89.658 276.056 89.4202 276.057 89.1753 276.058C87.9473 276.048 86.9367 276.01 85.84 275.391C84.9387 274.039 84.9715 272.596 84.9611 270.996C85.1391 270.308 85.3335 269.623 85.547 268.945C85.7377 267.649 85.8279 266.518 85.1739 265.348C84.8727 264.954 84.559 264.568 84.2309 264.196C83.2907 263.08 83.0778 262.112 83.112 260.645C83.2959 259.07 83.838 257.589 84.3385 256.091C85.5545 252.4 86.2528 249.238 86.0597 245.343C86.0363 244.778 86.0129 244.213 85.9896 243.648C85.9625 243.004 85.9336 242.36 85.9046 241.716C85.8287 240.006 85.7636 238.297 85.6981 236.587C85.4295 229.314 85.4295 229.314 85.0568 222.046C84.6054 214.45 84.6054 214.45 87.0119 211.23C87.8748 210.548 88.7705 209.948 89.6852 209.338C90.9216 208.246 91.57 207.163 91.8034 205.516C91.8472 204.683 91.8465 203.862 91.8275 203.027C91.823 202.718 91.8185 202.408 91.8139 202.089C91.6355 194.6 89.9514 187.224 88.5468 179.891C85.7242 165.14 84.056 149.392 91.4064 135.645C88.6052 136.206 86.8892 137.434 85.206 139.734C79.2066 149.025 81.1517 158.94 83.1506 169.137C83.1959 169.368 83.2412 169.6 83.2879 169.838C83.5086 170.964 83.7319 172.088 83.9615 173.212C87.2212 189.34 85.8772 207.714 76.6578 221.792C74.053 225.588 71.1091 229.749 66.504 231.152C64.2404 231.543 62.1742 230.822 60.3036 229.549C57.1177 226.947 55.299 223.197 54.7853 219.141C54.7523 218.494 54.7342 217.847 54.7304 217.2C54.7262 216.876 54.7221 216.552 54.7178 216.218C54.7831 215.361 54.9255 214.882 55.3712 214.16C55.4702 214.443 55.5691 214.725 55.6711 215.016C55.803 215.39 55.935 215.764 56.067 216.138C56.132 216.324 56.1969 216.509 56.2639 216.701C56.5987 217.646 56.963 218.543 57.422 219.434C57.4011 219.261 57.3801 219.089 57.3586 218.911C57.077 216.282 57.0961 213.669 57.1107 211.029C57.1122 210.564 57.1135 210.099 57.1147 209.633C57.1179 208.506 57.123 207.378 57.129 206.25C57.3224 206.25 57.5158 206.25 57.715 206.25C57.7826 206.412 57.8502 206.575 57.9198 206.742C58.5252 208.1 58.5252 208.1 59.601 209.088C60.6203 209.212 60.9778 208.872 61.8165 208.301C65.2796 205.218 66.6183 200.719 67.035 196.234C67.416 188.465 64.2784 181.697 61.1212 174.779C57.9383 167.775 56.5873 160.73 59.1798 153.223C61.0867 148.275 64.1361 144.271 67.9689 140.625C68.2533 140.343 68.2533 140.343 68.5434 140.055C74.761 134.127 83.7492 130.516 92.2853 130.078C92.8594 130.129 93.4332 130.184 94.0065 130.243C95.0696 130.265 95.4199 130.148 96.2655 129.476C96.8057 128.917 97.33 128.354 97.8506 127.778C100.396 125.003 103.925 123.023 107.227 121.289C107.493 121.148 107.76 121.007 108.035 120.861C115.701 117.085 124.78 118.594 132.965 119.586C134.401 119.759 135.838 119.924 137.275 120.089C138.032 120.177 138.788 120.266 139.545 120.357C149.994 121.913 149.994 121.913 159.668 118.945C161.396 117.298 162.663 115.81 162.726 113.342C162.7 111.453 161.983 110.048 161.133 108.398C160.74 107.218 160.641 106.076 161.033 104.877C161.579 104.071 162.213 103.785 163.074 103.345C163.368 103.192 163.661 103.04 163.964 102.882C164.19 102.769 164.416 102.656 164.649 102.539C164.595 102.326 164.542 102.113 164.487 101.894C164.332 101.271 164.177 100.649 164.024 100.026C163.863 99.392 163.695 98.7598 163.516 98.1308C162.756 95.397 162.275 92.6981 163.72 90.1234C164.063 89.6484 164.063 89.6484 164.521 89.3058C165.169 88.4797 165.02 87.7797 164.986 86.7462C164.978 86.3365 164.97 85.9268 164.962 85.5171C164.944 84.8763 164.923 84.2355 164.901 83.5948C164.78 79.7928 165.302 76.5159 167.871 73.5352C170.419 71.1914 170.419 71.1914 171.387 71.1914C171.377 70.9395 171.366 70.6876 171.356 70.4281C171.25 65.7836 172.242 61.7189 175.342 58.1543C177.242 56.1787 179.359 54.8405 182.171 54.7623C182.382 54.7698 182.594 54.7774 182.813 54.7852C182.847 54.5261 182.881 54.267 182.916 54.0001C183.566 50.6706 186.224 47.7599 188.822 45.7077C191.726 43.8182 194.669 43.4482 198.047 43.9453C198.118 43.7784 198.188 43.6115 198.261 43.4395C199.801 40.6825 203.041 39.0736 205.956 38.2045C207.778 37.7421 209.542 37.7149 211.414 37.738C211.852 37.7383 211.852 37.7383 212.299 37.7386C213.55 37.7461 214.656 37.7732 215.883 38.0436C216.85 38.1899 216.85 38.1899 217.599 37.4359C217.858 37.1217 218.109 36.8007 218.353 36.4746C218.557 36.2171 218.557 36.2171 218.766 35.9545C220.981 33.1094 222.911 30.1125 224.54 26.8959C225.015 26.0479 225.52 25.33 226.172 24.6094ZM224.121 32.5195C223.965 32.7223 223.965 32.7223 223.805 32.9292C223.307 33.5744 222.808 34.2189 222.308 34.8633C222.123 35.1023 221.938 35.3413 221.747 35.5875C220.694 36.9419 219.626 38.2807 218.532 39.6023C215.739 42.9826 213.223 46.413 211.365 50.4015C210.698 51.8287 210.698 51.8287 210.059 52.1484C209.96 50.1084 210.263 48.5058 210.938 46.582C205.998 47.0882 201.476 48.8559 197.168 51.2695C196.974 51.3782 196.78 51.487 196.58 51.599C193.436 53.3934 190.734 55.5478 188.086 58.0078C187.839 58.2337 187.593 58.4595 187.339 58.6922C175.954 69.5717 172.163 85.1938 171.094 100.342C170.582 107.452 169.181 114.459 163.77 119.531C155.053 126.391 143.073 123.936 132.677 122.733C130.55 122.464 128.45 122.067 126.343 121.674C121.58 120.798 116.269 120.13 111.621 121.875C111.343 121.971 111.064 122.068 110.777 122.167C102.382 125.334 95.8435 132.777 92.1871 140.783C85.2727 156.702 89.143 173.054 92.8908 189.229C92.9458 189.468 93.0008 189.707 93.0575 189.953C93.1597 190.397 93.2629 190.84 93.3673 191.283C94.6088 196.677 95.253 204.293 92.3162 209.235C91.7651 209.971 91.248 210.534 90.5458 211.121C90.3426 211.294 90.1394 211.467 89.9301 211.646C89.4793 212.01 89.0086 212.348 88.5316 212.677C86.844 214.268 86.8265 216.669 86.7189 218.848C86.7118 220.375 86.7589 221.899 86.8104 223.425C86.8242 223.878 86.8379 224.331 86.8516 224.783C86.9376 227.547 87.0471 230.31 87.1629 233.073C87.176 233.387 87.1891 233.701 87.2027 234.024C87.2676 235.571 87.3343 237.118 87.4042 238.665C87.526 241.423 87.625 244.178 87.6378 246.938C87.6399 247.168 87.6419 247.398 87.644 247.635C87.6402 250.869 87.0139 253.996 86.078 257.08C85.4936 259.054 85.0033 260.786 85.9327 262.714C86.2384 263.225 86.5574 263.728 86.8917 264.22C87.6557 265.374 87.6295 266.332 87.6161 267.682C87.6135 268.027 87.6108 268.373 87.6081 268.729C87.6047 268.994 87.6013 269.258 87.5978 269.531C87.9445 269.471 88.2912 269.411 88.6484 269.349C91.0292 268.942 93.3912 268.554 95.8009 268.359C95.6801 268.181 95.5592 268.003 95.4347 267.819C94.3788 266.217 93.4019 264.581 92.505 262.885C92.4087 262.713 92.3124 262.542 92.2132 262.365C90.293 258.626 90.3572 254.078 90.2894 249.976C90.2841 249.713 90.2789 249.451 90.2734 249.181C90.0813 239.294 90.3607 228.428 94.8552 219.459C95.8875 217.345 96.3768 215.318 96.6798 212.988C96.3898 212.892 96.0997 212.795 95.8009 212.695C98.2312 209.899 98.2312 209.899 99.6461 208.704C100.629 207.872 101.464 206.983 102.293 205.999C102.669 205.562 103.057 205.134 103.454 204.715C111.564 196.127 116.047 181.9 116.016 170.215C115.892 166.375 115.209 162.585 114.599 158.8C113.203 150.104 112.742 141.391 114.551 132.715C114.531 133.017 114.511 133.319 114.49 133.63C114.016 141.011 113.899 148.292 115.43 155.566C115.486 155.835 115.543 156.104 115.601 156.382C116.537 160.704 117.664 165.203 120.41 168.75C120.702 169.134 120.994 169.518 121.286 169.902C121.95 170.776 122.619 171.645 123.29 172.514C124.026 173.471 124.733 174.445 125.427 175.433C132.317 184.938 143.498 188.047 154.597 189.856C160.669 190.819 166.989 191.674 173.145 191.602C173.367 187.745 172.017 185.155 169.739 182.177C164.336 174.993 162.187 167.479 162.212 158.516C162.213 157.822 162.206 157.129 162.199 156.434C162.182 152.51 162.492 148.558 164.099 144.928C164.78 143.4 164.78 143.4 165.235 141.797C165.428 141.797 165.621 141.797 165.82 141.797C165.73 142.1 165.73 142.1 165.638 142.409C165.135 144.165 164.74 145.831 164.649 147.656C164.633 147.956 164.618 148.255 164.602 148.564C164.442 155.041 165.42 161.601 166.992 167.871C167.06 168.145 167.128 168.419 167.198 168.701C168.772 174.861 171.547 180.605 174.919 185.98C175.794 187.415 176.525 188.912 177.246 190.43C176.666 189.946 176.086 189.463 175.488 188.965C175.503 191.705 175.528 194.446 175.562 197.186C175.565 197.489 175.565 197.489 175.569 197.798C175.638 203.209 175.868 208.494 176.7 213.848C177.257 217.461 177.145 221.074 176.495 224.666C176.211 226.708 176.398 228.399 176.935 230.365C176.988 230.571 177.042 230.776 177.097 230.988C177.319 231.834 177.556 232.667 177.832 233.496C177.901 234.534 177.885 235.575 177.884 236.615C177.883 237.084 177.883 237.084 177.882 237.563C177.86 240.672 177.649 243.756 177.38 246.853C177.301 247.763 177.227 248.672 177.154 249.582C176.892 252.752 176.564 255.893 176.036 259.03C175.742 260.874 175.591 262.415 176.734 264.001C177.262 264.554 177.799 265.097 178.345 265.631C179.316 266.629 179.351 267.514 179.462 268.854C179.499 269.291 179.499 269.291 179.536 269.736C179.554 269.959 179.572 270.181 179.59 270.41C179.946 270.313 180.303 270.217 180.67 270.117C183.022 269.593 185.435 269.675 187.793 270.117C186.87 268.372 185.905 266.674 184.845 265.009C181.949 260.334 181.528 256.158 181.549 250.8C181.55 250.389 181.55 250.389 181.551 249.97C181.576 242.423 182.447 235.096 184.319 227.771C185.086 224.722 185.363 221.743 185.491 218.6C185.78 212.705 187.495 206.95 188.904 201.247C190.924 193.053 192.162 185.091 192.481 176.66C192.574 177.179 192.665 177.698 192.755 178.217C192.806 178.505 192.857 178.794 192.91 179.092C193.295 181.755 193.424 184.429 193.524 187.115C193.537 187.436 193.55 187.757 193.563 188.088C193.593 188.868 193.623 189.649 193.652 190.43C197.856 188.908 200.866 181.742 202.673 177.928C204.294 174.377 206.044 170.266 205.975 166.296C205.969 165.946 205.963 165.595 205.957 165.234C206.151 165.234 206.344 165.234 206.543 165.234C206.795 172.782 204.835 181.032 199.805 186.914C199.902 187.107 199.998 187.301 200.098 187.5C208.668 182.286 213.586 175.493 217.969 166.699C217.785 167.876 217.598 169.053 217.407 170.229C217.343 170.627 217.28 171.025 217.218 171.424C215.7 181.143 215.7 181.143 211.981 183.875C211.445 184.215 210.901 184.544 210.352 184.863C210.085 185.018 210.085 185.018 209.814 185.177C208.123 186.156 206.423 187.118 204.678 187.997C204.393 188.141 204.108 188.285 203.815 188.434C203.568 188.553 203.322 188.672 203.068 188.794C201.863 189.686 201.55 190.906 201.295 192.325C201.222 192.816 201.153 193.307 201.087 193.799C201.051 194.036 201.016 194.273 200.979 194.518C200.446 198.25 200.355 201.954 200.396 205.716C200.404 206.488 200.409 207.26 200.413 208.032C200.425 210.224 200.439 212.416 200.463 214.608C200.477 215.957 200.486 217.307 200.491 218.657C200.493 219.165 200.498 219.673 200.506 220.181C200.548 223.179 200.321 225.818 199.482 228.706C198.982 230.57 199.121 232.207 199.498 234.075C199.841 235.935 200.013 237.781 200.134 239.667C200.154 239.952 200.154 239.952 200.173 240.243C200.393 243.625 200.4 247.003 200.376 250.391C200.373 250.828 200.371 251.265 200.368 251.702C200.355 253.694 200.337 255.686 200.302 257.678C200.289 258.522 200.281 259.365 200.275 260.209C200.268 260.798 200.254 261.388 200.24 261.977C200.137 264.057 200.137 264.057 201.09 265.794C201.343 265.964 201.595 266.134 201.856 266.309C203.034 267.303 203.26 268.093 203.54 269.604C203.611 269.975 203.682 270.345 203.755 270.726C203.83 271.15 203.83 271.15 203.906 271.582C204.098 271.462 204.29 271.342 204.488 271.218C206.519 270.019 208.302 269.475 210.645 269.238C210.241 268.344 209.768 267.689 209.107 266.968C204.976 262.314 204.366 257.717 204.382 251.66C204.383 251.411 204.383 251.161 204.384 250.904C204.422 240.694 206.216 230.631 208.008 220.605C208.063 220.295 208.063 220.295 208.12 219.979C209.369 213.055 211.571 206.324 213.581 199.593C213.973 198.28 214.362 196.967 214.752 195.654C215.82 192.056 216.893 188.459 217.969 184.863C217.596 184.91 217.223 184.956 216.839 185.004C216.63 185.03 216.42 185.056 216.204 185.083C215.62 185.157 215.036 185.236 214.453 185.321C214.163 185.363 213.873 185.406 213.574 185.449C213.773 185.321 213.972 185.192 214.176 185.06C222.075 179.678 224.913 168.914 226.628 159.989C226.861 158.363 226.812 156.73 226.813 155.09C226.816 154.736 226.82 154.383 226.824 154.018C226.827 151.785 226.783 149.527 226.172 147.363C225.979 147.267 225.785 147.17 225.586 147.07C225.545 147.228 225.504 147.385 225.462 147.547C224.666 150.559 223.794 153.498 222.583 156.372C222.433 156.73 222.433 156.73 222.28 157.096C221.563 158.75 221.563 158.75 220.899 159.082C220.967 158.82 221.034 158.557 221.104 158.287C221.361 157.292 221.615 156.297 221.868 155.302C221.977 154.875 222.086 154.448 222.197 154.022C224.067 146.795 223.995 141.231 221.485 134.18C221.291 134.18 221.098 134.18 220.899 134.18C220.859 134.51 220.819 134.841 220.778 135.181C220.271 139.012 219.564 143.506 217.383 146.777C214.269 141.854 211.566 136.712 208.887 131.543C210.367 133.448 211.698 135.443 213.025 137.457C213.434 138.078 213.844 138.699 214.254 139.319C214.433 139.591 214.612 139.863 214.797 140.143C215.336 140.923 215.878 141.67 216.504 142.383C216.697 142.383 216.891 142.383 217.09 142.383C217.232 141.565 217.372 140.747 217.511 139.929C217.57 139.589 217.57 139.589 217.631 139.241C219.73 126.848 217.303 114.131 213.921 102.197C212.94 98.7338 212.037 95.2669 211.524 91.6992C207.284 99.1621 212.358 114.261 214.465 121.985C214.752 123.023 215.042 124.06 215.332 125.098C215.491 125.673 215.65 126.249 215.808 126.825C216.134 128.008 216.464 129.19 216.797 130.371C216.604 130.371 216.41 130.371 216.211 130.371C216.181 130.174 216.15 129.978 216.119 129.775C215.872 128.709 215.472 127.733 215.049 126.727C214.96 126.512 214.871 126.296 214.779 126.074C214.585 125.605 214.39 125.136 214.194 124.667C213.659 123.382 213.13 122.094 212.599 120.807C212.488 120.537 212.376 120.266 212.261 119.987C209.333 112.879 206.439 105.756 203.815 98.5291C203.739 98.3216 203.663 98.1142 203.585 97.9005C200.285 88.8521 197.567 78.5898 201.748 69.3744C203.633 65.4804 206.369 62.4366 209.473 59.4727C209.766 59.1803 210.059 58.8874 210.352 58.5938C209.943 59.3266 209.534 60.0589 209.125 60.791C208.943 61.117 208.943 61.117 208.758 61.4496C208.177 62.4862 207.589 63.4951 206.909 64.4714C204.59 68.0792 204.001 72.7836 204.822 76.9226C205.474 79.4918 206.716 81.4088 208.863 82.9811C211.226 84.3291 213.863 85.1886 216.409 86.1296C220.708 87.7676 222.799 91.188 224.689 95.2332C225.514 97.0941 225.642 98.6658 225.711 100.697C226.318 104.175 230.816 106.918 233.523 108.934C234.022 109.306 234.516 109.685 234.999 110.078C235.831 110.741 236.388 111.03 237.451 111.182C239.169 110.936 240.607 110.42 241.704 109.006C242.227 107.904 242.284 106.708 242.387 105.504C242.578 104.59 242.578 104.59 243.181 103.868C243.818 103.154 243.818 103.154 243.916 102.196C243.685 100.634 243.014 99.4488 242.267 98.0713C238.136 90.1094 236.554 82.0528 236.754 73.0968C236.761 72.7625 236.768 72.4281 236.775 72.0835C236.804 70.708 236.835 69.333 236.886 67.9581C236.921 66.9365 236.94 65.9158 236.956 64.8937C236.971 64.5849 236.987 64.276 237.003 63.9579C237.018 62.2718 237.018 62.2718 236.145 60.8887C235.478 60.3712 234.795 59.9241 234.082 59.4727C233.615 59.0362 233.615 59.0362 233.24 58.6304C232.647 57.945 232.647 57.945 231.738 57.7148C231.531 57.3304 231.338 56.9385 231.152 56.543C230.823 56.1177 230.481 55.7027 230.127 55.2979C229.949 55.0909 229.771 54.8839 229.587 54.6707C229.144 54.1312 229.144 54.1312 228.516 54.1992C228.419 54.5436 228.322 54.8881 228.223 55.2429C227.659 56.7675 226.607 57.6795 225.293 58.5938C224.276 58.9329 223.43 58.9068 222.363 58.8867C222.587 58.6813 222.811 58.4758 223.041 58.2642C224.712 56.4766 224.868 54.9136 224.808 52.5433C224.617 50.6804 223.828 49.7264 222.437 48.5046C222.122 48.2513 221.805 47.9999 221.485 47.7539C221.329 47.874 221.173 47.9941 221.013 48.1178C220.806 48.2757 220.599 48.4335 220.386 48.5962C220.182 48.7525 219.978 48.9089 219.768 49.07C219.184 49.481 218.609 49.7869 217.969 50.0977C218.056 49.9196 218.143 49.7416 218.232 49.5581C221.568 42.8602 221.568 42.8602 223.975 35.7971C224.025 35.6025 224.076 35.4078 224.128 35.2072C224.368 34.195 224.415 33.5097 224.121 32.5195ZM227.637 105.762C227.724 108.226 227.845 111.536 229.688 113.379C231.066 113.567 232.274 113.544 233.533 112.939C233.714 112.794 233.895 112.649 234.082 112.5C233.889 112.307 233.695 112.113 233.496 111.914C233.362 111.779 233.228 111.644 233.09 111.506C232.756 111.174 232.42 110.845 232.081 110.519C230.727 109.203 229.54 107.816 228.389 106.32C228.237 106.136 228.086 105.952 227.93 105.762C227.833 105.762 227.736 105.762 227.637 105.762Z" fill="black"/>
<path d="M209.765 58.5938C209.959 58.5938 210.152 58.5938 210.351 58.5938C209.914 60.212 209.111 61.4369 208.209 62.8235C205.476 67.1523 204.099 71.803 205.114 76.9226C205.833 79.74 207.099 81.3597 209.478 82.9838C211.363 84.0897 213.466 84.7293 215.524 85.4416C218.775 86.6361 221.075 88.4132 222.894 91.3696C223.001 91.5429 223.108 91.7162 223.218 91.8948C224.993 94.8268 225.887 97.2831 226.003 100.697C226.603 104.129 230.855 106.645 233.512 108.631C234.014 109.007 234.513 109.39 234.999 109.787C235.832 110.449 236.389 110.737 237.451 110.889C238.948 110.675 240.085 110.318 241.155 109.217C241.788 108.264 241.886 107.625 241.992 106.494C242.155 104.745 242.155 104.745 242.889 103.867C243.522 103.155 243.522 103.155 243.631 102.213C243.378 100.56 242.633 99.2575 241.845 97.7966C241.541 97.2259 241.239 96.6541 240.939 96.0812C240.736 95.7049 240.736 95.7049 240.53 95.3211C240.234 94.6289 240.234 94.6289 240.234 93.457C240.427 93.457 240.621 93.457 240.82 93.457C240.82 92.7803 240.82 92.1035 240.82 91.4062C241.329 92.3856 241.751 93.3907 242.175 94.4092C242.676 95.6058 243.203 96.7772 243.8 97.9294C243.961 98.2397 243.961 98.2397 244.124 98.5562C244.334 98.9571 244.547 99.3564 244.763 99.7539C245.377 100.926 245.691 101.801 245.507 103.125C245.197 103.632 245.197 103.632 244.793 104.059C244.068 104.973 243.946 105.608 243.896 106.769C243.815 108.449 243.313 109.436 242.285 110.742C242.128 110.972 241.971 111.201 241.809 111.438C241.011 111.984 240.506 112.036 239.557 112.17C238.08 112.39 237.383 112.786 236.328 113.81C234.994 115.032 233.324 115.641 231.534 115.771C229.943 115.657 228.655 114.972 227.526 113.873C226.284 111.818 225.882 109.982 225.823 107.606C225.775 105.974 225.717 104.587 224.835 103.162C224.001 101.767 224.07 100.632 224.139 99.0601C224.238 96.1543 223.56 94.2825 221.652 92.0334C219.833 90.1272 217.805 88.4885 215.625 87.0117C215.528 87.0117 215.431 87.0117 215.332 87.0117C215.065 94.821 216.738 102.317 218.374 109.905C218.56 110.771 218.746 111.636 218.931 112.501C220.263 118.725 221.626 124.944 223.134 131.127C223.252 131.613 223.369 132.099 223.484 132.586C224.169 135.459 225.067 138.075 226.298 140.759C226.861 142.03 227.259 143.286 227.581 144.635C227.637 144.847 227.693 145.06 227.75 145.279C229.234 151.159 229.763 158.209 227.929 164.062C227.844 164.336 227.759 164.61 227.671 164.892C226.749 167.811 225.756 170.704 224.709 173.581C223.051 178.138 221.5 182.723 220.001 187.335C219.82 187.889 219.64 188.443 219.459 188.996C218.785 191.064 218.113 193.132 217.443 195.2C217.102 196.25 216.761 197.299 216.42 198.348C213.213 208.217 210.081 218.042 208.007 228.223C207.941 228.541 207.875 228.859 207.806 229.186C204.198 246.098 204.198 246.098 207.714 262.5C208.265 263.232 208.845 263.88 209.472 264.551C209.472 264.744 209.472 264.937 209.472 265.137C209.64 265.21 209.807 265.283 209.979 265.359C213.154 267.097 215.192 270.863 216.211 274.219C216.211 274.605 216.211 274.992 216.211 275.391C214.621 275.837 213.176 276.064 211.521 276.054C211.2 276.055 211.2 276.055 210.873 276.056C210.426 276.056 209.978 276.055 209.531 276.053C208.849 276.05 208.168 276.053 207.487 276.057C207.049 276.056 206.612 276.056 206.174 276.054C205.973 276.056 205.771 276.057 205.564 276.058C204.318 276.046 203.307 275.843 202.148 275.391C202.134 275.193 202.119 274.995 202.105 274.791C202.033 273.891 201.944 272.993 201.855 272.095C201.833 271.783 201.811 271.472 201.788 271.151C201.665 269.488 201.665 269.488 200.735 268.201C200.119 267.886 200.119 267.886 199.489 267.686C198.925 267.48 198.925 267.48 198.193 266.766C197.338 264.735 197.639 262.626 197.954 260.494C198.747 255.117 198.739 249.828 198.643 244.407C198.633 243.783 198.625 243.158 198.619 242.534C198.606 241.462 198.585 240.391 198.559 239.319C198.553 238.862 198.553 238.862 198.547 238.396C198.484 236.484 198.103 234.887 197.431 233.096C196.653 230.814 197.349 228.82 198.055 226.591C198.627 224.573 198.684 222.604 198.678 220.523C198.678 220.23 198.677 219.937 198.677 219.635C198.654 216.431 198.46 213.24 198.257 210.044C197.875 203.986 197.608 197.964 197.754 191.895C197.531 191.958 197.309 192.021 197.079 192.087C196.643 192.209 196.643 192.209 196.197 192.334C195.764 192.456 195.764 192.456 195.322 192.581C194.531 192.773 194.531 192.773 193.652 192.773C193.63 192.938 193.608 193.103 193.586 193.272C192.911 197.583 191.392 201.678 189.86 205.743C188.443 209.516 187.335 213.006 187.103 217.054C187.064 217.719 187.026 218.384 186.987 219.049C186.967 219.394 186.948 219.74 186.927 220.095C186.722 223.105 186.205 226.001 185.614 228.955C184.311 235.532 183.619 241.948 183.581 248.657C183.578 249.027 183.578 249.027 183.574 249.405C183.521 256.745 185.62 262.262 189.529 268.426C192.697 273.424 192.697 273.424 192.48 275.977C191.392 276.52 190.088 276.325 188.891 276.324C188.444 276.324 188.444 276.324 187.987 276.324C185.851 276.307 183.732 276.201 181.604 276.013C181.335 275.99 181.066 275.967 180.79 275.944C177.799 275.651 177.799 275.651 176.953 274.805C176.934 274.328 176.935 273.851 176.945 273.374C176.948 273.08 176.952 272.787 176.956 272.484C176.966 271.865 176.977 271.246 176.99 270.628C177.057 267.837 177.057 267.837 175.871 265.387C175.6 265.145 175.6 265.145 175.323 264.899C174.071 263.761 174.071 263.761 173.953 262.823C173.898 260.973 174.178 259.306 174.575 257.513C175.252 254.285 175.566 251.061 175.836 247.778C175.884 247.224 175.933 246.669 175.982 246.114C176.254 242.985 176.482 239.855 176.66 236.719C176.756 236.719 176.853 236.719 176.953 236.719C176.967 237.033 176.981 237.346 176.996 237.67C177.018 238.079 177.04 238.488 177.063 238.898C177.076 239.208 177.076 239.208 177.09 239.525C177.121 240.056 177.181 240.585 177.246 241.113C177.439 241.21 177.632 241.307 177.832 241.406C177.862 243.389 177.78 245.334 177.596 247.308C177.571 247.581 177.547 247.854 177.521 248.135C177.469 248.709 177.417 249.282 177.363 249.855C177.283 250.721 177.205 251.587 177.128 252.453C176.888 255.09 176.633 257.706 176.177 260.316C175.978 261.709 176.094 262.668 176.88 263.873C177.526 264.571 177.526 264.571 178.308 265.137C179.106 265.809 179.28 266.202 179.589 267.188C179.647 268.036 179.647 268.036 179.626 268.89C179.621 269.176 179.616 269.462 179.61 269.757C179.603 269.972 179.596 270.188 179.589 270.41C180.124 270.193 180.124 270.193 180.67 269.971C182.89 269.225 185.232 269.346 187.5 269.824C187.402 269.665 187.305 269.506 187.205 269.342C183.349 263.021 181.171 258.251 181.237 250.745C181.239 250.473 181.24 250.202 181.241 249.922C181.282 242.396 182.158 235.075 184.025 227.771C184.792 224.722 185.069 221.743 185.197 218.6C185.486 212.705 187.201 206.95 188.61 201.247C190.682 192.845 191.9 184.72 192.187 176.074C192.923 176.81 192.927 177.234 193.084 178.253C193.13 178.537 193.176 178.82 193.223 179.113C193.566 181.79 193.692 184.417 193.67 187.115C193.669 187.436 193.668 187.757 193.666 188.088C193.663 188.868 193.658 189.649 193.652 190.43C198.59 188.169 202.07 179.086 203.906 174.316C204.981 171.342 205.623 168.381 205.957 165.234C206.15 165.234 206.343 165.234 206.543 165.234C208.066 172.278 204.668 180.14 200.93 185.98C200.656 186.391 200.377 186.8 200.097 187.207C202.277 185.881 204.302 184.461 206.25 182.812C206.491 182.611 206.732 182.409 206.981 182.201C210.986 178.74 213.714 174.52 215.98 169.792C216.559 168.59 217.204 167.501 217.968 166.406C218.492 167.977 217.907 169.67 217.613 171.273C217.495 171.923 217.383 172.574 217.271 173.225C216.554 177.273 215.591 181.412 212.171 184.022C210.57 185.09 208.938 186.018 207.218 186.88C206.928 187.028 206.639 187.176 206.34 187.329C205.765 187.621 205.186 187.904 204.602 188.177C203.087 188.936 203.087 188.936 202.07 190.24C201.835 190.988 201.681 191.706 201.562 192.48C201.495 192.845 201.428 193.209 201.358 193.584C201.317 193.921 201.275 194.257 201.233 194.604C201.19 194.938 201.146 195.272 201.102 195.616C200.745 198.993 200.651 202.324 200.688 205.716C200.696 206.488 200.701 207.26 200.706 208.032C200.718 210.224 200.732 212.416 200.756 214.608C200.77 215.957 200.778 217.307 200.783 218.657C200.786 219.165 200.791 219.673 200.798 220.181C200.84 223.179 200.614 225.818 199.775 228.706C199.275 230.57 199.414 232.207 199.791 234.075C200.133 235.935 200.306 237.781 200.427 239.667C200.44 239.857 200.452 240.047 200.466 240.243C200.684 243.628 200.696 247.01 200.679 250.401C200.678 250.618 200.677 250.834 200.676 251.056C200.666 253.272 200.651 255.487 200.619 257.702C200.608 258.547 200.601 259.392 200.595 260.237C200.59 260.828 200.578 261.419 200.565 262.01C200.563 262.366 200.562 262.722 200.559 263.089C200.555 263.401 200.551 263.713 200.546 264.034C200.767 265.339 201.593 265.817 202.606 266.583C203.71 267.971 203.889 269.571 204.199 271.289C204.397 271.166 204.595 271.042 204.799 270.915C205.191 270.674 205.191 270.674 205.59 270.428C205.849 270.269 206.107 270.109 206.373 269.944C207.46 269.35 208.317 269.2 209.546 269.22C210.089 269.229 210.089 269.229 210.644 269.238C209.613 267.875 208.572 266.57 207.385 265.338C204.015 261.576 204.076 256.425 204.089 251.66C204.09 251.286 204.09 251.286 204.09 250.904C204.129 240.694 205.923 230.631 207.714 220.605C207.751 220.399 207.788 220.192 207.826 219.979C209.957 208.169 214.158 196.608 217.675 185.156C216.225 185.35 214.775 185.543 213.281 185.742C214.104 184.919 214.777 184.314 215.698 183.655C222.364 178.472 225.323 167.076 226.464 159.082C226.528 157.752 226.519 156.422 226.519 155.09C226.523 154.736 226.527 154.383 226.53 154.018C226.534 151.741 226.332 149.595 225.879 147.363C225.779 147.722 225.679 148.08 225.576 148.449C224.81 151.139 223.966 153.769 222.894 156.354C222.748 156.714 222.748 156.714 222.599 157.081C222.351 157.662 222.067 158.228 221.777 158.789C221.487 158.886 221.197 158.982 220.898 159.082C221.195 156.9 221.664 154.802 222.216 152.673C222.819 150.324 223.311 148.026 223.535 145.605C223.559 145.341 223.584 145.076 223.609 144.803C223.745 141.843 222.796 138.914 221.85 136.139C221.484 135.059 221.484 135.059 221.484 134.18C221.291 134.18 221.097 134.18 220.898 134.18C220.922 134.512 220.946 134.844 220.971 135.187C220.961 138.495 219.805 144.648 217.382 147.07C215.906 145.058 214.649 142.995 213.482 140.79C213.32 140.487 213.159 140.184 212.992 139.871C212.662 139.252 212.332 138.633 212.004 138.013C211.545 137.151 211.081 136.293 210.616 135.435C210.344 134.931 210.073 134.427 209.802 133.923C209.675 133.69 209.547 133.457 209.416 133.217C209.124 132.668 208.856 132.107 208.593 131.543C208.69 131.35 208.787 131.156 208.886 130.957C210.134 132.736 211.366 134.522 212.56 136.337C212.829 136.746 212.829 136.746 213.104 137.162C213.461 137.705 213.817 138.249 214.171 138.794C215.05 140.129 215.901 141.31 217.089 142.383C217.104 142.208 217.118 142.033 217.133 141.853C217.24 140.605 217.353 139.365 217.532 138.126C219.267 125.822 216.817 113.436 213.466 101.628C212.868 99.5024 212.342 97.3595 211.816 95.2148C211.621 94.4334 211.426 93.6522 211.23 92.8711C210.051 103.375 212.535 113.977 215.332 124.042C215.651 125.194 215.969 126.347 216.283 127.501C216.381 127.861 216.479 128.221 216.581 128.592C216.797 129.492 216.797 129.492 216.797 130.371C216.603 130.371 216.41 130.371 216.211 130.371C214.446 126.077 212.688 121.78 210.937 117.48C210.819 117.191 210.701 116.902 210.58 116.603C208.142 110.611 205.731 104.611 203.521 98.5291C203.445 98.3215 203.369 98.114 203.291 97.9001C199.991 88.8518 197.274 78.5897 201.455 69.3744C203.196 65.776 205.65 62.8771 208.52 60.1295C209.218 59.4774 209.218 59.4774 209.765 58.5938ZM227.636 105.762C227.724 108.226 227.844 111.536 229.687 113.379C231.066 113.567 232.273 113.544 233.532 112.939C233.714 112.794 233.895 112.649 234.082 112.5C233.888 112.307 233.695 112.113 233.496 111.914C233.362 111.779 233.228 111.644 233.089 111.506C232.756 111.174 232.419 110.845 232.08 110.519C230.727 109.203 229.54 107.816 228.388 106.32C228.237 106.136 228.085 105.952 227.929 105.762C227.833 105.762 227.736 105.762 227.636 105.762Z" fill="black"/>
<path d="M217.09 86.0961C220.789 87.4299 222.898 91.0636 224.601 94.3954C225.624 96.5878 225.922 98.2775 226.004 100.696C226.603 104.129 230.855 106.645 233.512 108.631C234.015 109.007 234.513 109.39 235 109.787C235.832 110.449 236.389 110.737 237.451 110.889C238.949 110.675 240.086 110.318 241.156 109.217C241.788 108.264 241.886 107.625 241.992 106.494C242.156 104.745 242.156 104.745 242.889 103.866C243.522 103.155 243.522 103.155 243.631 102.213C243.378 100.56 242.634 99.2574 241.846 97.7965C241.541 97.2258 241.239 96.654 240.939 96.0811C240.804 95.8302 240.669 95.5794 240.53 95.321C240.234 94.6288 240.234 94.6288 240.234 93.4569C240.428 93.4569 240.621 93.4569 240.82 93.4569C240.82 92.7802 240.82 92.1034 240.82 91.4062C241.329 92.3855 241.751 93.3906 242.175 94.4091C242.676 95.6057 243.204 96.7771 243.8 97.9293C243.907 98.1361 244.014 98.343 244.125 98.5561C244.334 98.957 244.547 99.3563 244.764 99.7538C245.377 100.926 245.691 101.801 245.508 103.125C245.198 103.632 245.198 103.632 244.794 104.059C244.068 104.973 243.946 105.608 243.896 106.769C243.816 108.449 243.313 109.436 242.285 110.742C242.128 110.972 241.971 111.201 241.809 111.438C241.012 111.983 240.506 112.036 239.557 112.17C238.08 112.39 237.383 112.786 236.329 113.81C234.995 115.032 233.324 115.641 231.535 115.771C229.943 115.657 228.656 114.972 227.527 113.873C226.284 111.818 225.882 109.982 225.823 107.605C225.775 105.974 225.717 104.587 224.835 103.162C224.001 101.767 224.07 100.631 224.139 99.06C224.239 96.1543 223.561 94.2824 221.653 92.0333C219.846 90.1399 217.821 88.4394 215.625 87.0116C215.432 87.0116 215.238 87.0116 215.039 87.0116C215.136 86.7216 215.232 86.4315 215.332 86.1327C216.076 85.7609 216.302 85.8681 217.09 86.0961ZM227.637 105.762C227.724 108.226 227.845 111.536 229.688 113.379C231.066 113.567 232.274 113.544 233.533 112.939C233.714 112.794 233.895 112.649 234.082 112.5C233.889 112.307 233.695 112.113 233.496 111.914C233.362 111.779 233.228 111.644 233.09 111.505C232.756 111.174 232.42 110.845 232.08 110.519C230.727 109.203 229.54 107.816 228.389 106.32C228.237 106.136 228.086 105.952 227.93 105.762C227.833 105.762 227.736 105.762 227.637 105.762Z" fill="black"/>
<path d="M203.32 56.25C203.32 56.4434 203.32 56.6367 203.32 56.8359C202.591 57.3759 201.857 57.8869 201.105 58.3923C198.556 60.1478 196.223 62.0686 193.945 64.1602C193.674 64.4068 193.403 64.6534 193.124 64.9075C183.422 74.1411 179.691 89.049 176.817 101.659C176.266 104.074 175.695 106.479 175.017 108.862C174.96 109.069 174.903 109.276 174.844 109.49C174.545 110.507 174.295 111.256 173.438 111.914C173.473 111.686 173.509 111.457 173.546 111.222C173.862 109.196 174.157 107.169 174.432 105.137C174.632 103.661 174.838 102.187 175.043 100.712C175.141 100.005 175.237 99.2971 175.33 98.5894C176.891 86.7957 180.891 74.935 189.258 66.2109C189.509 65.9379 189.76 65.6648 190.019 65.3835C192.778 62.4449 199.052 56.25 203.32 56.25Z" fill="black"/>
<path d="M173.73 121.875C182.355 123.091 193.51 125.891 200.098 131.836C200.273 131.991 200.449 132.146 200.63 132.306C206.992 138.284 210.513 147.195 213.272 155.269C213.484 155.889 213.701 156.507 213.921 157.124C214.032 157.438 214.142 157.752 214.255 158.076C214.407 158.502 214.407 158.502 214.561 158.937C214.746 159.668 214.746 159.668 214.453 160.547C213.208 158.089 211.991 155.62 210.806 153.133C207.949 147.138 205.069 141.459 200.436 136.61C199.805 135.938 199.805 135.938 199.23 135.198C198.14 133.874 196.757 132.886 195.41 131.836C195.197 131.663 194.984 131.491 194.765 131.313C189.93 127.635 183.778 125.878 178.113 123.926C177.846 123.834 177.579 123.741 177.304 123.646C176.795 123.469 176.286 123.295 175.775 123.123C174.056 122.526 174.056 122.526 173.73 121.875Z" fill="black"/>
<path d="M224.424 65.9708C227.738 68.4321 228.247 73.1697 228.992 76.9228C229.1 77.4525 229.209 77.9822 229.319 78.5118C229.535 79.5585 229.748 80.6059 229.958 81.6539C230.168 82.6961 230.387 83.7358 230.614 84.7744C230.696 85.1517 230.696 85.1517 230.78 85.5367C230.883 86.01 230.988 86.483 231.094 86.9555C231.357 88.17 231.5 89.2758 231.445 90.5275C230.788 89.8701 230.675 89.497 230.413 88.6177C230.288 88.2051 230.288 88.2051 230.161 87.7841C230.072 87.4851 229.984 87.1861 229.892 86.878C229.799 86.5692 229.706 86.2604 229.61 85.9423C229.31 84.9505 229.014 83.9579 228.717 82.9652C227.128 76.6933 227.128 76.6933 224.414 70.8986C223.641 70.5988 223.641 70.5988 222.748 70.3676C220.926 69.7968 219.494 69.0646 218.502 67.383C218.262 66.797 218.262 66.797 218.262 65.9181C218.078 65.9038 217.895 65.8894 217.706 65.8746C217.466 65.8527 217.227 65.8308 216.98 65.8083C216.623 65.7777 216.623 65.7777 216.259 65.7465C215.625 65.6251 215.625 65.6251 215.039 65.0392C218.38 64.0305 221.364 64.1966 224.424 65.9708ZM219.727 66.2111C219.954 67.0875 219.954 67.0875 220.312 67.9689C220.603 68.0656 220.893 68.1623 221.191 68.2619C221.288 67.6818 221.385 67.1017 221.484 66.5041C220.614 66.359 220.614 66.359 219.727 66.2111Z" fill="black"/>
<path d="M171.387 126.855C172.878 127.334 174.023 128.227 175.269 129.144C175.5 129.313 175.731 129.482 175.969 129.656C178.376 131.42 180.747 133.23 183.105 135.059C183.287 135.198 183.468 135.338 183.655 135.482C191.854 141.805 198.002 148.645 202.972 157.782C203.073 157.965 203.174 158.148 203.278 158.337C203.507 158.771 203.709 159.219 203.906 159.668C203.81 159.861 203.713 160.055 203.613 160.254C202.288 158.648 201.026 157.009 199.823 155.31C195.842 149.695 191.568 144.247 186.328 139.746C186.176 139.615 186.024 139.484 185.867 139.348C184.836 138.458 183.8 137.573 182.763 136.689C182.226 136.23 181.69 135.769 181.155 135.307C179.2 133.62 177.221 131.975 175.195 130.371C174.608 129.903 174.022 129.433 173.438 128.961C173.039 128.641 173.039 128.641 172.632 128.315C171.973 127.734 171.973 127.734 171.387 126.855Z" fill="black"/>
<path d="M207.129 227.051C207.419 227.147 207.709 227.244 208.008 227.344C207.935 227.826 207.862 228.308 207.788 228.79C207.735 229.138 207.682 229.486 207.628 229.844C207.475 230.831 207.31 231.815 207.143 232.799C204.352 247.972 204.352 247.972 207.715 262.5C208.266 263.232 208.846 263.88 209.473 264.551C209.473 264.744 209.473 264.937 209.473 265.137C209.727 265.236 209.727 265.236 209.985 265.338C210.811 265.819 211.254 266.424 211.817 267.188C211.623 267.188 211.43 267.188 211.231 267.188C211.134 267.381 211.037 267.574 210.938 267.773C210.503 268.063 210.503 268.063 210.059 268.359C206.147 264.195 204.192 260.441 204.13 254.605C204.125 254.272 204.125 254.272 204.121 253.932C204.114 253.205 204.11 252.478 204.108 251.752C204.107 251.375 204.107 251.375 204.105 250.991C204.104 245.794 204.574 240.707 205.288 235.563C205.371 234.965 205.452 234.367 205.532 233.769C205.681 232.682 205.835 231.597 205.994 230.511C206.04 230.191 206.086 229.871 206.134 229.541C206.179 229.253 206.224 228.965 206.271 228.668C206.329 228.292 206.329 228.292 206.388 227.909C206.439 227.722 206.49 227.536 206.543 227.344C206.736 227.247 206.93 227.15 207.129 227.051Z" fill="black"/>
<path d="M238.477 29.0039C238.67 29.0039 238.863 29.0039 239.062 29.0039C239.204 32.7075 238.832 36.0262 237.598 39.5508C237.308 39.3574 237.018 39.1641 236.719 38.9648C236.525 39.1582 236.332 39.3516 236.133 39.5508C235.939 39.4541 235.746 39.3574 235.547 39.2578C235.513 39.467 235.478 39.6763 235.443 39.8918C234.949 42.0645 233.757 44.0972 232.617 45.9961C231.639 45.5915 231.087 45.1699 230.566 44.2383C230.658 43.5791 230.658 43.5791 230.859 43.0664C230.183 42.9697 229.506 42.873 228.809 42.7734C228.905 42.5801 229.002 42.3867 229.102 42.1875C229.295 42.1875 229.488 42.1875 229.688 42.1875C230.082 41.788 230.082 41.788 230.475 41.2525C230.63 41.0504 230.785 40.8482 230.944 40.64C231.11 40.4195 231.275 40.1991 231.445 39.9719C231.615 39.7466 231.786 39.5212 231.961 39.289C234.418 36.0066 236.615 32.6595 238.477 29.0039Z" fill="black"/>
<path d="M235.84 99.6095C236.685 100.203 237.219 100.615 237.414 101.661C237.447 102.779 237.344 103.359 236.719 104.297C235.544 104.551 234.308 104.549 233.215 104.019C232.502 103.469 232.071 102.927 231.72 102.1C231.744 101.126 232.02 100.665 232.617 99.9025C233.66 99.0829 234.605 99.2847 235.84 99.6095Z" fill="black"/>
</svg>
