<svg width="300" height="300" viewBox="0 0 300 300" fill="none" xmlns="http://www.w3.org/2000/svg">
<path d="M127.845 77.5042C129.165 78.7403 130.362 80.0754 131.542 81.4455C131.908 81.3288 132.274 81.2121 132.651 81.0919C143.689 77.6802 156.872 77.4238 167.87 81.1525C168.16 81.2492 168.45 81.3459 168.749 81.4455C168.941 81.2223 169.133 80.9991 169.331 80.7692C173.313 76.2242 178.362 72.9063 184.277 71.4846C184.516 71.4192 184.755 71.3539 185.001 71.2866C191.872 69.6859 199.044 71.2234 205.004 74.7805C211.124 78.906 214.906 85.0297 216.381 92.1991C217.552 98.6309 216.183 105.237 212.694 110.742C211.972 111.779 211.194 112.732 210.351 113.672C210.116 113.934 209.882 114.196 209.64 114.466C204.795 119.591 197.812 123.051 190.722 123.34C190.684 123.793 190.684 123.793 190.645 124.254C190.041 130.666 187.919 137.885 182.854 142.267C182.462 142.655 182.462 142.655 182.528 143.194C182.942 144.147 183.536 144.962 184.13 145.807C191.187 156.175 193.131 167.793 193.104 180.13C193.102 180.965 193.104 181.8 193.106 182.635C193.109 190.051 193.109 190.051 192.48 191.309C192.715 191.363 192.951 191.418 193.194 191.474C195.982 192.599 198.187 194.864 199.367 197.611C201.807 204.282 200.958 211.279 198.046 217.676C197.001 219.807 195.873 221.87 194.53 223.828C194.82 223.925 195.111 224.022 195.409 224.121C195.313 224.508 195.216 224.895 195.116 225.293C195.02 225.003 194.923 224.713 194.823 224.414C194.533 224.414 194.243 224.414 193.944 224.414C193.872 224.632 193.799 224.849 193.725 225.073C193.328 225.947 192.916 226.436 192.187 227.051C191.993 227.051 191.8 227.051 191.601 227.051C191.601 227.244 191.601 227.438 191.601 227.637C189.97 229.102 188.802 229.311 186.655 229.268C186.371 229.268 186.088 229.268 185.797 229.269C184.866 229.268 183.936 229.256 183.005 229.245C182.358 229.242 181.71 229.24 181.063 229.239C179.363 229.233 177.664 229.219 175.964 229.202C174.228 229.187 172.492 229.181 170.756 229.173C167.353 229.158 163.949 229.133 160.546 229.102C160.404 228.679 160.262 228.256 160.12 227.834C160.001 227.48 160.001 227.48 159.88 227.12C159.465 225.842 159.335 224.829 159.497 223.494C159.531 223.207 159.566 222.92 159.601 222.624C159.661 222.169 159.661 222.169 159.722 221.704C159.763 221.39 159.804 221.075 159.846 220.752C161.186 210.904 164.998 201.718 172.685 195.1C177.142 191.729 182.212 189.992 187.792 190.137C187.889 188.107 187.986 186.076 188.085 183.985C187.71 184.335 187.336 184.685 186.95 185.047C182.059 189.36 175.991 190.495 169.628 190.137C163.133 189.674 156.699 188.696 150.34 187.298C149.967 187.216 149.594 187.134 149.209 187.049C148.496 186.89 147.783 186.727 147.072 186.56C146.751 186.488 146.43 186.415 146.1 186.34C145.68 186.241 145.68 186.241 145.251 186.14C143.89 185.966 142.703 186.269 141.44 186.764C141.217 186.85 140.994 186.936 140.765 187.024C140.414 187.16 140.414 187.16 140.057 187.299C132.96 189.969 125.57 191.425 118.359 188.379C115.88 187.192 113.851 185.629 111.913 183.692C112.203 186.737 112.203 186.737 112.499 189.844C113.587 189.944 113.587 189.944 114.696 190.045C120.965 190.74 125.69 193.291 130.077 197.754C130.297 197.974 130.517 198.194 130.743 198.421C137.194 205.267 140.337 215.798 140.137 225.045C140.011 226.482 139.613 227.741 139.159 229.102C135.467 229.163 131.774 229.21 128.081 229.238C126.366 229.252 124.651 229.271 122.936 229.301C121.28 229.329 119.623 229.345 117.967 229.352C117.336 229.357 116.706 229.366 116.075 229.381C110.518 229.501 110.518 229.501 108.573 227.804C107.519 226.636 107.519 226.636 107.519 225.879C107.343 225.807 107.168 225.734 106.988 225.659C106.027 225.11 105.597 224.455 105.2 223.431C104.887 222.669 104.518 222.032 104.076 221.338C101.125 216.487 99.4851 211.362 99.517 205.683C99.5195 205.219 99.5195 205.219 99.522 204.746C99.5876 200.55 100.657 196.706 103.71 193.653C104.829 192.799 105.964 191.94 107.226 191.309C107.258 189.738 107.221 188.192 107.082 186.627C105.853 171.159 108.115 155.787 117.773 143.262C117.543 143.008 117.313 142.754 117.077 142.493C112.21 136.763 109.922 130.833 109.277 123.34C109.031 123.322 108.785 123.303 108.532 123.284C101.024 122.52 94.0228 119.127 89.0617 113.379C84.5705 107.746 82.5303 100.897 83.2662 93.7119C84.2127 86.6524 87.8731 80.2935 93.4562 75.8791C103.782 68.4217 118.197 69.3048 127.845 77.5042ZM94.0421 82.0314C93.7374 82.3226 93.7374 82.3226 93.4264 82.6197C89.8144 86.2875 88.0975 91.6512 88.0546 96.7165C88.1439 101.975 89.8965 106.824 93.4562 110.742C93.6477 110.961 93.8391 111.179 94.0364 111.404C97.8589 115.512 103.02 117.34 108.398 118.36C108.784 118.36 109.171 118.36 109.569 118.36C109.596 118.17 109.622 117.98 109.649 117.785C111.521 104.566 116.598 92.9406 127.148 84.3752C124.743 80.1929 119.921 77.7289 115.429 76.465C107.806 74.5983 99.5626 76.2718 94.0421 82.0314ZM174.023 82.9103C173.491 83.6889 173.491 83.6889 173.144 84.3752C173.265 84.4856 173.385 84.5961 173.51 84.7099C183.494 93.8592 188.702 104.934 190.429 118.36C196.145 118.334 201.576 115.45 205.663 111.621C209.61 107.599 211.744 102.462 211.889 96.8264C211.833 91.5418 210.129 87.0114 206.835 82.9103C206.645 82.6622 206.454 82.4141 206.258 82.1585C203.202 78.4973 198.304 76.427 193.652 75.8791C186.093 75.4273 179.517 77.6336 174.023 82.9103ZM124.804 92.8713C119.588 98.9452 116.461 106.175 114.843 113.965C114.771 114.306 114.699 114.646 114.624 114.997C113.315 122.455 114.193 130.25 118.586 136.54C122.54 141.779 127.906 145.491 134.472 146.485C137.003 146.837 139.534 146.854 142.084 146.891C142.572 146.898 143.059 146.906 143.546 146.913C144.567 146.929 145.587 146.943 146.608 146.957C147.642 146.971 148.676 146.987 149.71 147.006C165.171 147.378 165.171 147.378 178.417 140.039C183.072 135.484 185.705 129.278 185.827 122.771C185.907 110.637 181.32 99.3587 172.961 90.6008C172.616 90.2745 172.616 90.2745 172.265 89.9416C172.126 89.8079 171.988 89.6742 171.845 89.5365C165.837 84.0329 157.771 83.7142 150.072 83.6977C149.833 83.6966 149.593 83.6955 149.346 83.6944C139.693 83.6718 131.543 85.4255 124.804 92.8713ZM176.44 147.107C171.836 150.07 166.588 151.396 161.158 151.628C160.876 151.64 160.594 151.652 160.303 151.665C157.408 151.781 154.515 151.802 151.617 151.796C150.751 151.795 149.885 151.796 149.019 151.798C146.091 151.799 143.168 151.754 140.242 151.633C139.973 151.623 139.705 151.612 139.428 151.601C133.835 151.345 129.058 150.179 124.091 147.599C123.262 147.18 122.45 146.809 121.581 146.485C115.618 154.718 111.843 163.703 112.499 174.024C113.042 177.379 115.133 180.244 117.733 182.374C121.792 185.217 126.575 185.542 131.343 184.779C143.175 182.493 161.339 175.22 169.263 165.795C169.726 165.084 169.697 164.602 169.628 163.77C168.021 162.759 166.644 162.751 164.806 162.775C164.509 162.777 164.213 162.78 163.907 162.782C161.011 162.837 158.202 163.23 155.351 163.717C153.882 163.967 152.409 164.197 150.938 164.429C150.506 164.498 150.506 164.498 150.066 164.568C144.362 165.469 138.641 165.884 132.879 166.187C132.62 166.201 132.361 166.215 132.094 166.229C131.355 166.268 130.616 166.303 129.877 166.338C129.657 166.349 129.437 166.361 129.21 166.373C127.991 166.425 126.878 166.361 125.683 166.113C125.617 165.699 125.557 165.284 125.5 164.868C125.466 164.637 125.432 164.406 125.397 164.168C125.388 163.324 125.445 162.969 125.976 162.305C127.713 161.666 129.411 161.584 131.248 161.5C131.716 161.475 131.716 161.475 132.194 161.45C133.518 161.38 134.842 161.315 136.166 161.25C142.542 160.931 148.805 160.181 155.108 159.192C161.779 158.151 161.779 158.151 165.087 158.148C165.319 158.145 165.55 158.141 165.789 158.138C168.42 158.131 170.781 158.54 172.851 160.254C174.192 161.974 174.543 163.397 174.316 165.528C173.301 169.659 169.824 172.147 166.405 174.317C164.003 175.753 161.544 177.089 159.081 178.418C158.846 178.546 158.611 178.673 158.37 178.805C156.187 179.989 153.987 181.135 151.757 182.227C151.757 182.323 151.757 182.42 151.757 182.52C167.488 186.242 167.488 186.242 182.519 182.52C185.415 180.245 187.08 177.012 187.792 173.438C188.687 164.345 184.542 155.304 179.589 147.949C179.484 147.782 179.379 147.615 179.271 147.443C179.001 147.016 178.711 146.602 178.417 146.192C177.561 146.192 177.143 146.626 176.44 147.107ZM106.759 197.661C104.846 199.991 104.427 202.609 104.461 205.554C104.463 205.836 104.466 206.117 104.469 206.407C104.608 212.195 106.967 217.777 110.448 222.363C110.655 222.665 110.861 222.966 111.073 223.277C111.735 224.061 111.888 224.116 112.968 224.333C113.38 224.338 113.792 224.333 114.204 224.321C114.43 224.321 114.656 224.321 114.889 224.322C115.633 224.32 116.376 224.307 117.119 224.293C117.636 224.29 118.153 224.287 118.67 224.285C120.027 224.279 121.385 224.261 122.743 224.242C124.129 224.224 125.516 224.216 126.902 224.207C129.621 224.188 132.339 224.158 135.058 224.121C135.063 223.518 135.067 222.914 135.07 222.31C135.072 221.974 135.074 221.638 135.077 221.291C135.051 219.969 134.858 218.728 134.582 217.438C134.529 217.188 134.477 216.939 134.423 216.682C133.194 211.133 130.723 205.759 126.855 201.563C126.676 201.357 126.497 201.151 126.312 200.939C123.306 197.671 119.005 195.358 114.545 195.058C111.559 195.015 108.911 195.388 106.759 197.661ZM172.949 201.647C168.09 207.287 164.587 215.489 164.64 223.015C164.642 223.38 164.645 223.745 164.648 224.121C167.663 224.189 170.678 224.241 173.694 224.273C175.094 224.288 176.494 224.309 177.895 224.342C179.247 224.374 180.599 224.392 181.952 224.399C182.467 224.405 182.982 224.415 183.497 224.431C186.367 224.592 186.367 224.592 188.911 223.49C189.514 222.749 189.98 222.033 190.429 221.192C190.675 220.805 190.923 220.419 191.173 220.035C191.38 219.672 191.584 219.306 191.784 218.939C191.893 218.741 192.003 218.543 192.115 218.339C194.983 213.023 196.942 207.007 195.409 200.977C194.666 198.833 193.53 197.219 191.601 195.996C185.014 192.838 177.491 196.871 172.949 201.647Z" fill="black"/>
<path d="M154.102 103.125C159.777 107.85 160.004 117.799 160.84 124.512C160.872 124.745 160.903 124.978 160.935 125.218C161.44 129.026 161.29 132.854 159.25 136.22C157.767 138.142 155.842 139.189 153.516 139.746C153.244 139.812 152.972 139.879 152.692 139.947C149.038 140.306 145.509 140.072 142.383 137.988C139.921 135.916 138.962 133.213 138.575 130.078C138.497 128.12 138.647 126.254 138.962 124.323C139.002 124.064 139.043 123.805 139.085 123.538C139.217 122.708 139.353 121.879 139.49 121.051C139.537 120.769 139.583 120.486 139.631 120.196C141.929 106.289 141.929 106.289 145.922 103.204C148.152 101.731 151.819 101.644 154.102 103.125ZM153.382 130.901C151.562 131.754 149.636 131.756 147.657 131.543C146.808 131.227 146.07 130.857 145.291 130.398C144.75 130.03 144.75 130.03 144.141 130.078C144.175 131.47 144.226 132.435 145.075 133.575C146.594 134.689 148.117 134.88 149.964 134.875C150.171 134.875 150.378 134.874 150.591 134.874C152.572 134.827 153.757 134.405 155.256 133.099C155.743 132.039 155.788 130.94 155.86 129.785C155.046 129.785 154.092 130.533 153.382 130.901Z" fill="black"/>
<path d="M167.579 107.812C168.35 108.449 168.89 108.968 169.337 109.863C169.629 113.935 169.629 113.935 168.458 115.429C167.606 115.959 167.098 116.017 166.096 115.997C165.009 115.65 164.673 115.206 164.063 114.258C163.551 112.719 163.54 111.121 164.155 109.607C165.067 107.918 165.576 107.536 167.579 107.812Z" fill="black"/>
<path d="M134.18 107.812C134.951 108.449 135.491 108.969 135.938 109.863C136.243 113.481 136.243 113.481 135.37 114.77C134.5 115.72 134.5 115.72 133.375 115.832C132.321 115.823 132.153 115.741 131.269 115.045C130.18 113.626 130.181 112.176 130.372 110.449C131.112 108.294 131.798 107.57 134.18 107.812Z" fill="black"/>
</svg>
