<svg width="300" height="300" viewBox="0 0 300 300" fill="none" xmlns="http://www.w3.org/2000/svg">
<path d="M100.195 42.1871C100.536 42.1949 100.536 42.1949 100.883 42.2029C109.999 42.4381 116.876 44.4614 124.64 49.2332C124.996 49.4519 124.996 49.4519 125.36 49.6749C125.571 49.8058 125.782 49.9366 125.999 50.0714C127.778 51.0781 129.994 50.7536 131.982 50.7564C132.206 50.7571 132.43 50.7578 132.66 50.7585C135.621 50.7619 138.509 50.6272 141.449 50.2437C147.51 49.4687 153.439 49.699 159.502 50.3465C162.138 50.6247 164.765 50.8164 167.413 50.9212C167.918 50.9444 167.918 50.9444 168.433 50.968C171.572 51.0734 173.534 50.4443 176.239 48.8887C176.758 48.5975 177.278 48.3065 177.798 48.0155C178.51 47.613 179.222 47.2099 179.934 46.8063C187.828 42.3556 199.389 40.7051 208.301 42.773C209.245 43.1308 210.211 43.5111 210.937 44.2379C211.047 44.897 211.047 44.897 210.937 45.7027C210.3 46.4407 209.763 47.0225 208.887 47.4605C209.265 47.6633 209.265 47.6633 209.65 47.8702C212.228 49.282 214.518 50.8764 216.797 52.7339C217.032 52.9241 217.032 52.9241 217.272 53.1182C218.326 53.9806 219.111 54.7256 219.727 55.9566C219.708 57.0552 219.708 57.0552 219.434 58.0074C218.503 58.6275 218.359 58.6605 217.315 58.5865C217.08 58.5713 216.845 58.5562 216.603 58.5407C216.359 58.5218 216.115 58.5029 215.863 58.4835C215.492 58.4585 215.492 58.4585 215.113 58.4331C214.502 58.3917 213.892 58.3464 213.281 58.3004C213.401 58.4093 213.52 58.5182 213.643 58.6304C220.834 65.2137 220.834 65.2137 221.759 68.2979C221.777 69.1402 221.777 69.1402 221.503 69.9825C220.898 70.605 220.898 70.605 219.745 70.7332C218.819 70.7029 218.19 70.469 217.383 70.0191C217.671 71.7109 217.999 73.3738 218.427 75.0362C219.148 78.1192 219.603 81.6275 218.555 84.6675C218.202 85.1734 218.202 85.1734 217.676 85.5464C215.987 85.8435 214.858 85.0672 213.464 84.2281C213.249 84.1023 213.033 83.9766 212.811 83.847C212.282 83.538 211.756 83.2243 211.23 82.9097C211.447 83.3703 211.447 83.3703 211.669 83.8401C211.858 84.2441 212.048 84.6481 212.238 85.0521C212.381 85.3554 212.381 85.3554 212.527 85.6649C213.194 87.0886 213.625 88.2033 213.666 89.7762C213.677 90.0538 213.688 90.3313 213.699 90.6173C213.574 91.4058 213.574 91.4058 213.143 92.089C212.055 92.807 211.111 92.7058 209.839 92.6509C209.607 92.6456 209.374 92.6404 209.135 92.6349C208.564 92.6212 207.993 92.6001 207.422 92.5777C207.411 92.8534 207.4 93.1291 207.389 93.4131C207.36 93.9603 207.36 93.9603 207.33 94.5186C207.313 94.8789 207.296 95.2392 207.279 95.6104C207.116 96.7744 206.814 97.8734 205.957 98.73C204.774 98.8438 204.117 98.8642 203.101 98.2173C202.518 97.6352 202.024 97.0665 201.562 96.3863C201.485 96.5487 201.407 96.7111 201.327 96.8784C201.223 97.0906 201.12 97.3029 201.013 97.5215C200.911 97.7323 200.809 97.943 200.704 98.1601C200.391 98.73 200.391 98.73 199.805 99.316C198.02 99.5259 197.162 99.0593 195.703 98.1441C195.51 98.1441 195.316 98.1441 195.117 98.1441C194.924 98.3375 194.73 98.5308 194.531 98.73C193.449 98.7891 192.633 98.7809 191.602 98.4371C191.612 98.8234 191.622 99.2098 191.632 99.6078C191.719 104.26 191.374 108.41 189.52 112.716C189.042 113.856 188.788 114.559 189.258 115.722C189.775 116.544 190.356 117.311 190.942 118.084C196.627 125.778 202.045 134.255 205.371 143.261C205.475 143.538 205.58 143.815 205.687 144.1C208.543 151.686 209.761 158.532 208.96 166.644C208.938 166.871 208.916 167.098 208.893 167.333C208.761 168.475 208.558 169.516 208.181 170.604C207.404 172.757 207.404 172.757 207.647 174.969C208.36 176.387 209.28 177.66 210.203 178.946C210.879 179.932 211.419 180.971 211.945 182.043C212.039 182.235 212.134 182.427 212.231 182.624C213.146 184.53 213.942 186.513 214.299 188.604C214.35 188.82 214.401 189.035 214.453 189.257C215.188 189.625 215.835 189.665 216.65 189.77C219.774 190.282 222.345 191.769 224.312 194.266C224.769 194.926 225.184 195.595 225.586 196.289C225.715 196.511 225.845 196.734 225.978 196.964C229.189 202.917 229.894 211.032 228.044 217.528C227.91 217.968 227.774 218.408 227.637 218.847C227.555 219.117 227.473 219.386 227.389 219.663C225.284 226.526 222.661 232.63 217.676 237.89C217.326 238.298 216.978 238.707 216.632 239.117C215.796 240.075 214.903 240.906 213.931 241.724C213.456 242.134 212.994 242.559 212.54 242.992C208.047 247.265 208.047 247.265 205.957 247.265C205.957 247.459 205.957 247.652 205.957 247.851C206.408 247.907 206.408 247.907 206.868 247.964C207.904 248.128 208.834 248.362 209.832 248.677C210.352 248.839 210.352 248.839 210.882 249.003C211.251 249.119 211.62 249.234 212 249.353C215.466 250.424 218.944 251.344 222.486 252.133C227.436 253.262 227.436 253.262 228.516 254.882C228.461 255.487 228.461 255.487 228.223 256.054C227.114 256.793 226.108 256.832 224.817 256.951C224.487 256.986 224.487 256.986 224.151 257.021C219.606 257.47 215.06 257.572 210.496 257.612C209.893 257.618 209.29 257.624 208.688 257.63C207.428 257.643 206.167 257.655 204.907 257.666C203.329 257.681 201.752 257.696 200.174 257.713C193.958 257.777 187.743 257.82 181.527 257.81C177.725 257.804 173.927 257.852 170.125 257.937C144.071 258.502 117.956 258.077 83.498 256.968C82.5675 256.931 81.637 256.896 80.7064 256.861C80.0811 256.837 79.4557 256.812 78.8303 256.788C78.5509 256.777 78.2714 256.767 77.9835 256.756C72.7569 256.544 72.7569 256.544 71.7773 256.054C71.7773 255.413 71.7773 255.413 72.0703 254.589C74.0656 253.058 76.2344 252.547 78.6438 251.953C79.239 251.801 79.8339 251.648 80.4288 251.494C80.819 251.394 81.2093 251.294 81.5998 251.194C83.053 250.823 84.4951 250.425 85.9314 249.993C86.2124 249.909 86.2124 249.909 86.499 249.823C86.8671 249.712 87.2351 249.601 87.6031 249.49C88.2572 249.294 88.9126 249.103 89.5683 248.912C89.7989 248.845 90.0296 248.778 90.2672 248.709C90.71 248.58 91.153 248.451 91.596 248.323C92.6975 248.006 92.6975 248.006 93.75 247.558C93.5615 247.426 93.3731 247.295 93.1789 247.159C88.8888 244.105 84.4253 240.576 81.1523 236.425C81.0335 236.276 80.9146 236.127 80.7921 235.973C74.5207 228.017 70.1344 216.595 71.3379 206.382C72.0774 200.826 73.9097 195.718 78.2226 191.894C80.5747 190.359 83.0346 189.55 85.8398 189.55C85.867 189.097 85.867 189.097 85.8948 188.635C86.2919 185.641 87.6294 182.942 89.0259 180.304C89.1517 180.066 89.2775 179.828 89.4071 179.583C89.9774 178.519 90.5594 177.472 91.2037 176.45C92.2673 174.8 92.2673 174.8 92.5278 172.915C92.3178 172.118 92.3178 172.118 92.0077 171.371C90.9508 168.413 91.0156 165.185 91.04 162.085C91.0409 161.879 91.0418 161.673 91.0428 161.461C91.067 156.785 91.4601 152.443 92.8711 147.949C92.9363 147.736 93.0015 147.524 93.0686 147.305C95.0007 141.114 97.9133 135.264 101.367 129.785C101.487 129.594 101.607 129.402 101.731 129.206C103.823 125.895 106.017 122.649 108.194 119.393C108.374 119.118 108.555 118.843 108.741 118.559C109.277 117.773 109.277 117.773 109.84 117.069C110.788 115.909 110.788 115.909 110.974 114.489C110.743 113.802 110.455 113.16 110.156 112.5C110.014 112.027 109.882 111.552 109.76 111.074C109.698 110.834 109.637 110.595 109.573 110.348C108.563 106.313 108.355 102.581 108.398 98.4371C107.528 98.5337 106.658 98.6304 105.762 98.73C105.665 98.3433 105.568 97.9566 105.469 97.5582C105.262 97.7117 105.262 97.7117 105.051 97.8683C104.869 98.0016 104.686 98.1349 104.498 98.2723C104.318 98.4048 104.138 98.5374 103.952 98.674C102.953 99.3265 101.945 99.4503 100.763 99.4373C100.195 99.316 100.195 99.316 99.4812 98.5286C99.0793 97.6767 98.8911 97.0086 98.7305 96.0933C98.5892 96.2591 98.448 96.4249 98.3025 96.5957C98.1174 96.8106 97.9323 97.0255 97.7417 97.2469C97.5582 97.461 97.3746 97.6751 97.1855 97.8958C96.525 98.6025 96.2167 98.714 95.2515 98.8399C94.3359 98.73 94.3359 98.73 93.7168 98.1109C93.091 97.1535 92.9299 96.4708 92.7795 95.3426C92.7323 95.0159 92.6851 94.6892 92.6365 94.3527C92.5837 93.542 92.6544 93.0494 92.8711 92.2847C92.504 92.3195 92.1369 92.3542 91.7587 92.39C91.275 92.4285 90.7913 92.4666 90.3076 92.5045C90.0659 92.5282 89.8242 92.552 89.5752 92.5766C87.7895 92.7062 87.7895 92.7062 86.8526 92.0787C86.0997 90.8917 86.2101 89.8336 86.4258 88.4761C87.0941 86.3452 88.1132 84.4624 89.3555 82.6168C89.073 82.7791 88.7905 82.9415 88.4994 83.1089C88.1256 83.3233 87.7518 83.5376 87.3779 83.752C87.1921 83.8589 87.0063 83.9658 86.8149 84.0759C83.8975 85.7473 83.8975 85.7473 82.3242 85.5464C80.9954 84.2177 81.0419 82.6145 81.0144 80.8304C81.0703 77.27 82.0854 73.7571 82.9101 70.3121C82.6869 70.3588 82.4636 70.4056 82.2335 70.4538C81.9417 70.5116 81.6498 70.5695 81.3492 70.6291C81.0594 70.6879 80.7697 70.7468 80.4711 70.8074C79.6875 70.898 79.6875 70.898 78.8818 70.5135C78.3168 69.2986 78.4284 68.3588 78.8086 67.0894C79.8327 64.9794 81.5239 63.4107 83.2031 61.816C83.4569 61.5622 83.7107 61.3084 83.9722 61.0469C84.8877 60.1314 85.8032 59.2159 86.7187 58.3004C86.5532 58.305 86.3876 58.3096 86.2171 58.3143C85.4688 58.3325 84.7206 58.344 83.9722 58.3553C83.5813 58.3663 83.5813 58.3663 83.1825 58.3776C82.9333 58.3804 82.684 58.3833 82.4272 58.3862C82.082 58.3931 82.082 58.3931 81.7298 58.4001C81.444 58.3507 81.444 58.3507 81.1523 58.3004C80.4468 57.242 80.3544 56.912 80.5664 55.6636C82.8069 51.9485 87.6517 49.3378 91.4062 47.4605C91.1283 47.2853 90.8503 47.11 90.564 46.9295C89.6484 46.2886 89.6484 46.2886 89.0625 45.4097C89.0259 44.6956 89.0259 44.6956 89.3555 43.9449C92.4554 41.8194 96.6003 42.0973 100.195 42.1871ZM95.8008 45.9957C96.0727 46.1316 96.0727 46.1316 96.3501 46.2703C96.7529 46.4717 97.1558 46.6732 97.5586 46.8746C97.6501 47.6802 97.6501 47.6802 97.5586 48.6324C96.4739 49.7088 95.2615 50.1688 93.8415 50.6465C91.3506 51.5327 89.1536 52.5512 87.3047 54.4918C87.5449 54.4993 87.7851 54.5069 88.0325 54.5146C88.3482 54.5313 88.664 54.5479 88.9892 54.565C89.3019 54.5786 89.6146 54.5922 89.9368 54.6062C90.9914 54.8193 91.3566 55.099 91.9922 55.9566C92.0519 57.1508 92.0118 57.8668 91.3087 58.8419C89.9256 60.3663 88.4935 61.8336 87.03 63.2808C86.6876 63.6213 86.6876 63.6213 86.3382 63.9686C85.7821 64.5213 85.2254 65.0733 84.668 65.6246C85.4616 66.0214 86.1355 65.9366 87.0117 65.9175C87.1809 68.5373 86.6796 70.799 85.9863 73.315C85.7918 74.03 85.5995 74.7456 85.4095 75.4619C85.2807 75.9305 85.2807 75.9305 85.1492 76.4086C84.9445 77.4251 84.929 78.3599 84.9609 79.3941C85.9332 78.4532 86.8226 77.4702 87.7075 76.4461C88.772 75.2613 89.6318 74.426 91.1133 73.8277C91.9739 73.9009 91.9739 73.9009 92.5781 74.1207C92.8935 75.2559 92.8552 75.7392 92.2851 76.7574C92.4687 76.7793 92.6522 76.8012 92.8413 76.8238C93.5724 76.9414 94.2287 77.0817 94.9219 77.3433C95.4529 78.1124 95.4529 78.1124 95.5078 79.1011C95.0856 80.5066 94.1945 81.6588 93.3472 82.8365C91.3382 85.5811 91.3382 85.5811 90.5273 88.7691C92.1709 88.7691 93.8144 88.7691 95.5078 88.7691C96.167 91.0762 96.167 91.0762 96.2768 92.2664C96.2988 92.4926 96.3207 92.7188 96.3432 92.9519C96.3576 93.1185 96.3719 93.285 96.3867 93.4566C96.5922 93.2451 96.7976 93.0336 97.0093 92.8157C97.2897 92.5408 97.5705 92.2661 97.8516 91.9918C97.989 91.8486 98.1265 91.7055 98.2681 91.558C98.6938 91.1495 98.6938 91.1495 99.6094 90.5269C100.745 90.5818 100.745 90.5818 101.66 90.8199C102.178 92.1997 102.388 93.4656 102.539 94.9214C103.148 94.3331 103.664 93.8348 104.077 93.0904C104.697 92.4703 104.908 92.4896 105.762 92.4678C106.734 92.4862 106.951 92.5893 107.812 93.1636C107.926 92.9023 108.039 92.641 108.156 92.3717C108.308 92.0288 108.461 91.6859 108.618 91.3326C108.768 90.9927 108.917 90.6528 109.071 90.3026C109.546 89.4015 109.956 88.822 110.742 88.1832C111.383 88.2198 111.383 88.2198 111.914 88.4761C112.315 89.2789 112.18 89.8378 112.097 90.7283C112.068 91.0471 112.039 91.3658 112.009 91.6942C111.941 92.3267 111.852 92.957 111.749 93.5848C111.047 99.2999 111.372 106.294 113.672 111.621C113.757 111.821 113.843 112.021 113.931 112.228C116.231 117.511 119.954 120.347 125.231 122.559C127.887 123.574 130.665 124.263 133.406 125.008C134.471 125.298 135.535 125.592 136.599 125.887C145.78 128.421 153.022 129.065 162.288 126.323C163.514 125.962 164.747 125.627 165.982 125.295C166.606 125.126 167.23 124.956 167.854 124.786C168.247 124.678 168.64 124.572 169.033 124.465C175.382 122.737 181.657 120.483 185.156 114.55C187.531 110.108 188.103 105.744 188.265 100.784C188.287 100.146 188.314 99.509 188.341 98.8714C188.423 96.5977 188.354 94.4805 187.928 92.2321C187.723 90.9791 187.742 89.7414 187.793 88.4761C188.452 88.2564 188.452 88.2564 189.258 88.1832C190.354 89.0529 190.826 90.0683 191.382 91.3326C191.534 91.6755 191.687 92.0184 191.844 92.3717C192.014 92.7637 192.014 92.7637 192.187 93.1636C192.381 93.1636 192.574 93.1636 192.773 93.1636C192.773 92.9703 192.773 92.7769 192.773 92.5777C193.683 92.4503 194.505 92.4022 195.41 92.5777C196.137 93.1742 196.625 93.8685 197.168 94.6285C197.265 94.6285 197.361 94.6285 197.461 94.6285C197.472 94.406 197.483 94.1836 197.494 93.9544C197.523 93.5177 197.523 93.5177 197.552 93.0721C197.569 92.7832 197.586 92.4943 197.604 92.1966C197.769 91.3256 197.907 91.0244 198.633 90.5269C201.061 90.5727 202.246 91.7959 203.906 93.4566C204.003 92.0064 204.1 90.5562 204.199 89.0621C205.647 88.4831 206.173 88.4358 207.66 88.586C208 88.6185 208.34 88.651 208.691 88.6844C208.949 88.7124 209.207 88.7403 209.473 88.7691C209.316 87.2892 208.809 86.1375 208.099 84.8506C207.943 84.5598 207.943 84.5598 207.783 84.263C207.202 83.2058 206.589 82.2394 205.829 81.2984C205.039 80.3033 204.735 79.5266 204.785 78.2222C205.225 77.5264 205.225 77.5264 205.957 77.0504C207.056 76.8306 207.056 76.8306 208.008 76.7574C207.911 76.6003 207.814 76.4432 207.715 76.2813C207.355 75.4276 207.38 74.7451 207.422 73.8277C209.019 73.5819 209.906 74.1506 211.16 75.0453C212.748 76.3517 213.955 77.9519 215.039 79.6871C215.483 78.799 215.185 77.9889 215.002 77.0504C214.964 76.8445 214.925 76.6387 214.885 76.4266C214.522 74.589 214.027 72.796 213.465 71.0096C213.001 69.4625 212.929 68.1191 212.988 66.5035C214.673 65.9175 214.673 65.9175 215.332 65.9175C214.257 63.4382 211.666 61.7001 209.585 60.0994C208.52 59.1424 208.048 58.3908 207.898 56.9637C208.017 55.868 208.086 55.5213 208.887 54.7847C209.681 54.6979 210.351 54.6732 211.139 54.7115C211.447 54.7194 211.447 54.7194 211.762 54.7275C212.269 54.7413 212.775 54.7623 213.281 54.7847C212.169 53.5502 211.075 52.843 209.583 52.1297C209.376 52.0282 209.17 51.9267 208.957 51.8221C207.765 51.2457 206.574 50.7562 205.316 50.3353C204.008 49.8855 203.23 49.4946 202.441 48.3394C202.496 47.5154 202.496 47.5154 202.734 46.8746C203.314 46.6812 203.895 46.4879 204.492 46.2886C204.492 46.192 204.492 46.0953 204.492 45.9957C198.829 44.9423 192.418 45.9561 186.914 47.4605C186.57 47.5523 186.226 47.644 185.871 47.7386C183.147 48.5857 180.912 50.0423 178.548 51.609C176.8 52.751 175.102 53.6569 173.053 54.1255C172.758 54.1965 172.463 54.2675 172.159 54.3407C169.405 54.7312 166.605 54.4339 163.843 54.2354C163.266 54.1956 162.688 54.1558 162.111 54.1162C161.51 54.0748 160.909 54.033 160.307 53.9911C158.471 53.8631 156.634 53.7373 154.797 53.6154C154.229 53.5774 153.661 53.538 153.092 53.4986C149.512 53.261 146.066 53.3131 142.497 53.6789C141.462 53.7846 140.427 53.8841 139.391 53.9836C139.09 54.0127 139.09 54.0127 138.783 54.0424C136.567 54.2543 134.354 54.4088 132.129 54.4918C131.679 54.5099 131.679 54.5099 131.22 54.5284C126.513 54.6321 122.762 52.6998 119.021 49.9771C117.108 48.6304 115.08 47.8926 112.848 47.2591C112.64 47.1998 112.432 47.1404 112.217 47.0793C108.864 46.1785 105.506 45.9005 102.045 45.8126C101.676 45.8012 101.306 45.7899 100.926 45.7782C99.1548 45.7249 97.5479 45.6918 95.8008 45.9957ZM113.086 118.359C112.671 118.825 112.671 118.825 112.255 119.445C112.007 119.798 112.007 119.798 111.755 120.159C111.578 120.417 111.401 120.675 111.218 120.941C111.035 121.206 110.851 121.472 110.662 121.745C108.853 124.378 107.132 127.059 105.469 129.785C105.315 130.036 105.161 130.288 105.003 130.547C97.3401 143.147 91.8252 156.18 95.3625 171.131C96.891 176.846 100.233 182.232 103.912 186.804C104.142 187.09 104.142 187.09 104.376 187.382C109.193 193.206 116.383 193.776 123.413 194.86C124.068 194.963 124.722 195.065 125.377 195.168C126.302 195.314 127.227 195.459 128.153 195.602C130.164 195.914 132.172 196.243 134.18 196.582C134.329 196.354 134.479 196.127 134.633 195.893C136.921 192.493 139.583 189.49 142.334 186.459C143.466 185.18 144.542 183.856 145.605 182.519C145.787 182.325 145.97 182.131 146.157 181.931C146.567 181.352 146.567 181.352 146.326 180.65C143.357 175.323 138.251 170.119 133.683 166.128C132.828 165.367 132.032 164.556 131.231 163.739C130.665 163.184 130.078 162.67 129.474 162.158C127.553 160.496 125.637 158.452 124.512 156.152C124.608 155.862 124.705 155.572 124.805 155.273C125.889 154.963 126.395 154.898 127.423 155.401C128.113 155.978 128.615 156.473 129.183 157.15C130.517 158.692 131.957 160.126 133.401 161.564C133.868 162.029 134.332 162.495 134.797 162.962C136.242 164.408 137.695 165.831 139.256 167.154C140.941 168.611 142.405 170.281 143.848 171.972C143.972 172.117 144.096 172.261 144.224 172.41C145.822 174.272 147.386 176.137 148.828 178.125C149.731 177.723 150.344 177.265 151.037 176.563C151.235 176.365 151.432 176.166 151.636 175.961C151.952 175.639 151.952 175.639 152.275 175.31C152.495 175.089 152.716 174.867 152.943 174.638C153.648 173.928 154.351 173.216 155.054 172.503C155.753 171.796 156.452 171.09 157.152 170.384C157.587 169.945 158.022 169.506 158.455 169.065C159.627 167.882 160.828 166.755 162.094 165.672C162.785 165.071 163.424 164.425 164.062 163.769C165.105 162.714 166.176 161.723 167.301 160.757C168.568 159.638 169.789 158.464 170.819 157.122C171.837 155.907 172.837 155.035 174.445 154.888C174.692 154.919 174.94 154.949 175.195 154.98C175.584 156.261 175.584 156.261 175.165 157.066C173.749 158.764 172.248 160.35 170.673 161.901C170.436 162.138 170.199 162.374 169.956 162.618C168.733 163.832 167.487 164.999 166.184 166.125C163.095 168.825 160.184 171.703 157.288 174.607C156.624 175.272 155.959 175.936 155.293 176.6C154.863 177.03 154.433 177.461 154.003 177.891C153.71 178.183 153.71 178.183 153.411 178.481C152.119 179.78 150.898 181.127 149.707 182.519C149.558 182.692 149.409 182.865 149.256 183.044C148.856 183.509 148.457 183.975 148.059 184.442C146.961 185.726 145.858 187.007 144.75 188.282C144.111 189.017 143.474 189.754 142.837 190.49C142.545 190.828 142.252 191.166 141.958 191.504C138.26 195.764 134.262 200.394 132.129 205.664C132.806 205.857 133.482 206.05 134.18 206.25C134.022 208.21 133.627 209.951 133.008 211.816C133.139 211.703 133.27 211.589 133.405 211.473C133.772 211.156 134.141 210.841 134.51 210.527C134.956 210.146 135.393 209.756 135.828 209.362C136.629 208.814 137.037 208.754 137.988 208.886C138.085 208.983 138.182 209.08 138.281 209.179C138.264 211.181 137.782 213.115 137.291 215.044C137.122 215.855 137.074 216.558 137.109 217.382C137.924 216.397 138.635 215.394 139.307 214.306C139.977 213.221 140.642 212.175 141.504 211.23C142.456 211.138 142.456 211.138 143.262 211.23C143.742 212.137 143.878 212.561 143.649 213.578C143.533 213.891 143.417 214.204 143.298 214.526C142.743 216.164 142.559 217.422 142.676 219.14C143.995 218.193 144.863 217.104 145.807 215.808C145.96 215.601 146.113 215.395 146.27 215.183C147.137 214.008 147.981 212.82 148.814 211.621C152.409 206.473 157.464 203.007 162.837 199.886C163.461 199.52 164.079 199.144 164.696 198.766C165.089 198.532 165.482 198.298 165.875 198.065C166.125 197.909 166.125 197.909 166.379 197.751C170.396 195.426 175.693 195.127 180.187 194.406C187.534 193.222 192.922 191.629 197.425 185.417C200.275 181.413 202.708 177.178 204.309 172.522C204.379 172.323 204.449 172.124 204.521 171.919C205.675 168.37 205.785 164.648 205.774 160.949C205.773 160.622 205.773 160.622 205.773 160.288C205.757 156.746 205.526 153.404 204.492 150C204.42 149.756 204.347 149.512 204.273 149.261C200.873 138.194 193.915 127.274 186.621 118.359C185.595 119.306 185.595 119.306 184.845 120.465C184.483 121.164 184.1 121.242 183.398 121.582C183.03 121.841 182.664 122.103 182.3 122.369C176.811 126.037 169.761 127.702 163.44 129.276C162.292 129.57 161.152 129.89 160.012 130.21C151.997 132.451 145.554 131.766 137.677 129.51C137.004 129.319 136.331 129.129 135.658 128.939C135.217 128.814 134.775 128.689 134.334 128.563C133.307 128.272 132.28 127.987 131.246 127.723C128.861 127.112 126.589 126.376 124.31 125.445C123.994 125.317 123.677 125.189 123.351 125.057C119.707 123.554 116.536 121.888 114.052 118.756C113.926 118.625 113.801 118.494 113.672 118.359C113.479 118.359 113.285 118.359 113.086 118.359ZM94.3359 178.418C91.8952 181.348 89.3555 185.935 89.3555 189.843C89.6251 189.925 89.8948 190.007 90.1726 190.092C95.9116 191.886 100.399 194.865 104.901 198.766C105.491 199.277 106.083 199.775 106.688 200.268C107.377 200.855 107.95 201.419 108.527 202.111C109.176 202.875 109.837 203.595 110.559 204.29C111.647 205.361 112.591 206.529 113.546 207.718C114.141 208.45 114.75 209.167 115.368 209.879C122.126 217.71 128.12 226.645 132.43 236.053C132.527 236.26 132.623 236.467 132.723 236.68C132.918 237.107 133.103 237.539 133.279 237.974C133.541 238.58 133.79 239.114 134.18 239.648C135.024 240.001 135.024 240.001 135.974 239.996C139.667 240.367 142.211 242.338 144.532 245.171C145.913 247.021 146.888 248.41 146.777 250.781C146.294 250.781 145.811 250.781 145.312 250.781C146.686 252.2 147.407 252.304 149.341 252.343C149.637 252.347 149.933 252.351 150.238 252.356C150.531 252.366 150.823 252.377 151.124 252.389C152.656 252.446 152.656 252.446 154.047 251.912C154.502 251.478 154.502 251.478 154.98 250.781C154.497 250.587 154.014 250.394 153.516 250.195C153.648 247.08 156.05 244.645 158.203 242.578C159.561 241.432 160.838 240.545 162.635 240.378C164.621 240.186 164.621 240.186 166.406 239.355C167.686 237.63 168.297 235.481 169.01 233.477C169.47 232.262 170.049 231.144 170.691 230.017C170.808 229.81 170.925 229.604 171.046 229.392C174.895 222.751 179.247 216.473 184.147 210.57C184.747 209.844 185.335 209.108 185.925 208.374C187.499 206.45 189.154 204.524 190.963 202.816C191.375 202.454 191.375 202.454 191.309 201.855C191.482 201.779 191.655 201.703 191.833 201.625C192.529 201.242 192.933 200.846 193.469 200.262C197.862 195.764 203.453 191.938 209.549 190.359C210.32 190.216 210.32 190.216 210.645 189.843C210.519 186.074 208.732 182.005 206.224 179.197C205.714 178.646 205.714 178.646 205.078 178.711C204.996 178.867 204.914 179.023 204.829 179.183C201.049 186.309 196.95 193.169 188.868 195.771C184.94 196.901 180.947 197.553 176.911 198.15C171.802 198.625 171.802 198.625 167.578 200.976C167.668 201.119 167.758 201.262 167.851 201.409C173.001 209.621 173.001 209.621 172.852 213.867C172.004 214.109 171.42 214.16 170.508 214.16C170.411 215.9 170.314 217.64 170.215 219.433C168.958 218.853 167.701 218.273 166.406 217.675C166.279 218.28 166.152 218.884 166.022 219.506C165.758 220.762 165.548 221.713 164.648 222.656C163.971 222.821 163.971 222.821 163.184 222.656C162.555 222.208 162.004 221.705 161.426 221.191C161.232 221.191 161.039 221.191 160.84 221.191C160.64 221.439 160.441 221.686 160.236 221.942C159.339 222.685 159.218 222.78 158.13 222.729C154.444 222.026 152.338 218.154 150.293 215.332C149.354 216.244 148.508 217.168 147.711 218.206C144.5 222.258 144.5 222.258 142.383 222.949C141.284 222.927 140.802 222.808 139.966 222.088C139.797 221.889 139.627 221.689 139.453 221.484C139.26 221.291 139.066 221.097 138.867 220.898C138.736 221.025 138.605 221.152 138.47 221.283C137.005 222.632 137.005 222.632 135.956 222.766C135.756 222.729 135.557 222.693 135.352 222.656C134.384 220.915 133.9 219.348 133.594 217.382C133.417 217.509 133.24 217.636 133.058 217.767C132.824 217.93 132.59 218.093 132.349 218.261C132.117 218.424 131.886 218.588 131.648 218.756C130.957 219.14 130.957 219.14 129.785 219.14C129.447 218.124 129.396 217.224 129.327 216.156C129.303 215.783 129.278 215.41 129.253 215.026C129.235 214.74 129.217 214.454 129.199 214.16C128.426 214.063 127.652 213.966 126.855 213.867C125.948 209.57 128.938 204.607 131.195 201.08C131.31 200.853 131.425 200.625 131.543 200.39C131.446 200.1 131.35 199.81 131.25 199.511C128.514 198.916 125.775 198.384 123.003 197.977C122.691 197.931 122.691 197.931 122.372 197.884C121.332 197.731 120.291 197.583 119.25 197.439C112.359 196.464 105.89 194.666 101.447 188.992C99.3427 186.128 97.4722 183.12 95.6516 180.069C95.5222 179.854 95.3928 179.639 95.2595 179.417C95.0872 179.127 95.0872 179.127 94.9115 178.832C94.8182 178.695 94.725 178.558 94.6289 178.418C94.5322 178.418 94.4355 178.418 94.3359 178.418ZM79.6875 195.117C75.5034 200.096 74.3216 205.73 74.707 212.109C75.5856 221.469 79.8382 229.83 86.1328 236.718C86.2758 236.876 86.4188 237.034 86.5661 237.197C89.0607 239.915 91.8412 242.026 94.9219 244.043C95.0926 244.155 95.2634 244.268 95.4393 244.385C105.855 251.218 118.119 253.53 130.408 253.875C130.832 253.888 131.256 253.901 131.68 253.914C132.709 253.945 133.737 253.974 134.766 254.003C134.239 252.814 133.696 252.475 132.532 251.879C132.238 251.727 131.944 251.574 131.641 251.417C131.416 251.304 131.19 251.191 130.957 251.074C130.957 250.687 130.957 250.3 130.957 249.902C133.601 249.021 136.762 249.788 139.453 250.195C137.109 247.739 134.551 246.929 131.25 246.386C131.448 245.826 131.448 245.826 131.836 245.214C134.384 244.216 137.143 244.752 139.746 245.214C137.808 243.608 136.298 242.993 133.827 242.657C132.923 242.514 132.226 242.35 131.463 241.835C130.731 240.79 130.347 239.67 129.913 238.476C125.886 227.949 118.498 218.627 111.328 210.058C111.144 209.835 111.144 209.835 110.956 209.606C105.188 202.601 97.3862 194.326 87.8906 193.066C84.9107 192.893 81.922 192.907 79.6875 195.117ZM195.117 203.027C194.951 203.188 194.784 203.349 194.612 203.515C192.372 205.681 190.309 207.901 188.379 210.351C188.092 210.7 187.804 211.049 187.516 211.397C180.437 219.957 173.516 229.445 169.745 239.981C169.136 241.637 169.136 241.637 168.164 242.285C167.555 242.36 166.944 242.419 166.333 242.468C163.787 242.787 161.841 243.906 159.668 245.214C160.555 245.602 160.555 245.602 161.499 245.233C163.58 244.658 166.391 244.562 168.457 245.214C168.457 245.601 168.457 245.988 168.457 246.386C168.237 246.433 168.017 246.479 167.791 246.527C164.967 247.171 162.611 248.227 160.254 249.902C161.298 250.25 161.833 250.116 162.909 249.92C167.301 249.2 167.301 249.2 169.043 250.195C169.043 250.678 169.043 251.162 169.043 251.66C168.866 251.685 168.689 251.71 168.507 251.736C168.156 251.798 168.156 251.798 167.798 251.861C167.451 251.917 167.451 251.917 167.097 251.974C166.174 252.337 165.825 252.932 165.234 253.711C171.325 253.86 177.091 253.628 183.105 252.539C183.384 252.49 183.664 252.442 183.951 252.392C194.063 250.621 204.392 246.319 211.816 239.062C211.975 238.911 212.133 238.76 212.296 238.604C219.411 231.805 225.101 221.882 225.586 211.816C225.601 210.145 225.476 208.495 225.293 206.836C225.268 206.612 225.244 206.388 225.219 206.158C224.745 202.155 223.633 199.132 221.063 195.977C220.934 195.817 220.804 195.656 220.671 195.49C219.048 193.607 217.182 193.221 214.771 193.019C207.063 192.687 200.331 197.903 195.117 203.027ZM161.371 204.254C161.165 204.411 160.96 204.567 160.748 204.729C160.093 205.232 159.44 205.74 158.789 206.25C158.575 206.417 158.36 206.584 158.139 206.757C157.511 207.25 156.886 207.747 156.262 208.245C156.072 208.396 155.881 208.547 155.685 208.702C154.42 209.727 153.362 210.839 152.344 212.109C152.856 213.175 153.482 214.073 154.193 215.02C154.416 215.319 154.638 215.618 154.867 215.926C156.144 217.571 156.144 217.571 157.91 218.554C157.999 217.221 157.848 216.178 157.471 214.892C157.095 213.605 156.915 212.565 157.031 211.23C157.324 210.937 157.324 210.937 158.013 210.85C158.789 210.937 158.789 210.937 159.309 211.39C160.637 213.217 161.792 215.116 162.891 217.089C163.294 215.796 162.956 214.756 162.616 213.482C162.196 211.904 161.94 210.524 162.012 208.886C162.506 208.685 162.506 208.685 163.184 208.593C164.571 209.249 165.777 210.298 166.992 211.23C166.872 210.222 166.706 209.485 166.241 208.575C165.809 207.691 165.659 207.215 165.82 206.25C166.11 206.056 166.4 205.863 166.699 205.664C166.238 204.465 165.369 203.508 164.355 202.734C163.071 202.734 162.348 203.499 161.371 204.254ZM166.992 211.23C167.285 211.816 167.285 211.816 167.285 211.816L166.992 211.23Z" fill="black"/>
<path d="M156.426 80.8979C159.838 83.9814 160.509 89.7077 161.133 94.0426C161.163 94.25 161.194 94.4574 161.225 94.6711C161.94 99.6329 162.658 105.651 159.527 109.984C158.081 111.494 156.593 112.004 154.522 112.078C153.285 112.037 152.401 111.891 151.318 111.291C150.36 110.634 150.36 110.634 149.487 110.925C149.161 111.124 149.161 111.124 148.828 111.328C147.15 112.321 145.193 112.04 143.335 111.731C141.505 110.957 140.214 109.77 139.407 107.944C137.891 103.542 138.187 99.3081 138.826 94.7801C138.921 94.102 139.009 93.4233 139.096 92.7442C139.645 88.6768 140.343 83.7727 143.564 80.9173C147.152 78.2704 152.826 78.2808 156.426 80.8979Z" fill="black"/>
<path d="M138.281 111.035C139.16 111.328 139.16 111.328 139.691 112.042C140.86 113.411 142.429 113.467 144.141 113.672C145.049 113.714 145.956 113.72 146.865 113.721C147.122 113.722 147.379 113.723 147.644 113.724C148.184 113.726 148.725 113.726 149.266 113.726C150.086 113.727 150.906 113.732 151.725 113.738C152.254 113.739 152.782 113.739 153.311 113.739C153.552 113.742 153.793 113.744 154.042 113.746C156.115 113.738 158.455 113.709 160.126 112.354C160.84 111.695 160.84 111.695 161.133 111.035C161.326 111.035 161.52 111.035 161.719 111.035C161.379 112.829 160.056 114.032 158.615 115.068C158.237 115.316 157.855 115.559 157.471 115.796C157.267 115.922 157.064 116.048 156.854 116.178C153.773 117.996 150.14 118.605 146.645 117.737C143.398 116.621 140.198 114.521 138.281 111.621C138.281 111.428 138.281 111.234 138.281 111.035Z" fill="black"/>
<path d="M172.266 85.5471C173.328 85.9866 173.328 85.9866 174.024 86.426C174.132 87.7708 174.149 88.7871 173.585 90.0332C172.122 91.6053 170.297 92.2397 168.183 92.3403C167.184 92.331 166.432 92.1514 165.528 91.6995C165.252 90.6799 165.08 90.0234 165.49 89.0319C167.128 86.3131 169.128 85.2066 172.266 85.5471Z" fill="black"/>
<path d="M131.91 86.0048C134.691 88.4699 134.691 88.4699 134.839 90.2163C134.766 91.1135 134.766 91.1135 134.382 91.6445C133.245 92.4443 131.996 92.4079 130.665 92.2854C128.819 91.9456 127.739 91.3143 126.59 89.8306C125.88 88.7781 125.866 87.9841 125.977 86.719C127.492 85.1518 130.036 85.104 131.91 86.0048Z" fill="black"/>
</svg>
