<svg width="300" height="300" viewBox="0 0 300 300" fill="none" xmlns="http://www.w3.org/2000/svg">
<path d="M107.72 85.3817C109.753 87.0219 111.65 88.7826 113.47 90.6551C117.755 95.0312 117.755 95.0312 123.044 97.2789C124.805 97.1236 126.479 96.6286 128.173 96.1483C130.671 95.4683 133.161 94.9392 135.717 94.537C136.013 94.4904 136.309 94.4438 136.614 94.3959C148.992 92.5357 162.776 92.9379 174.711 96.899C176.191 97.3443 177.302 97.3938 178.72 96.667C179.389 96.2675 180.029 95.8411 180.67 95.3976C180.902 95.2397 181.134 95.0819 181.373 94.9193C183.395 93.5143 185.152 91.9515 186.914 90.234C195.836 81.8269 205.934 76.6947 218.389 76.6842C218.704 76.6839 218.704 76.6839 219.025 76.6836C222.182 76.6883 225.152 76.8421 228.222 77.6363C228.412 77.6804 228.602 77.7244 228.797 77.7698C234.17 79.0217 239.411 81.5654 243.75 84.9606C244.017 85.1637 244.284 85.3669 244.56 85.5763C255.142 93.8905 261.458 106.677 263.262 119.873C263.474 121.918 263.494 123.959 263.488 126.013C263.488 126.35 263.488 126.35 263.488 126.694C263.476 130.281 263.226 133.651 262.207 137.109C262.144 137.33 262.081 137.551 262.016 137.779C259.439 146.674 254.37 154.807 246.093 159.375C238.429 163.385 229.626 164.03 221.191 162.597C221.242 162.958 221.242 162.958 221.294 163.326C221.422 164.234 221.549 165.142 221.676 166.05C221.757 166.63 221.839 167.21 221.921 167.79C223.504 179.163 223.312 190.757 216.362 200.418C205.497 214.796 186.14 219.394 169.171 221.869C167.86 222.046 166.548 222.207 165.234 222.363C164.961 222.397 164.688 222.432 164.406 222.467C154.105 223.716 143.292 223.339 133.007 222.07C132.808 222.046 132.609 222.022 132.405 221.997C115.888 219.972 95.7637 215.664 84.9605 201.855C80.2543 195.493 77.6606 188.381 77.3433 180.468C77.3201 179.907 77.3201 179.907 77.2964 179.334C77.2165 176.277 77.4523 173.255 77.7461 170.214C77.783 169.83 77.8199 169.446 77.858 169.05C78.0797 166.877 78.3746 164.739 78.8081 162.597C78.5513 162.64 78.2945 162.682 78.0299 162.725C68.7706 164.08 59.1751 163.187 51.3423 157.653C49.7725 156.456 48.2932 155.181 46.8745 153.808C46.6581 153.599 46.4417 153.391 46.2188 153.175C41.7056 148.502 39.0323 142.168 37.4995 135.937C37.4055 135.562 37.3115 135.187 37.2146 134.801C34.3608 121.819 38.2279 107.878 45.1812 96.8719C46.3063 95.1369 47.5545 93.5408 48.9253 91.9918C49.114 91.7767 49.114 91.7767 49.3064 91.5572C64.2232 74.6093 89.574 71.6132 107.72 85.3817ZM54.4185 95.3243C49.691 100.739 46.4837 106.963 44.4575 113.836C44.3492 114.199 44.3492 114.199 44.2387 114.57C43.2238 118.164 42.9582 121.76 42.9744 125.482C42.975 125.68 42.9756 125.879 42.9763 126.083C43.019 134.474 45.4741 142.403 50.9761 148.828C51.1619 149.047 51.3477 149.266 51.5391 149.492C55.465 153.753 61.6044 156.223 67.32 156.482C74.1902 156.951 74.1902 156.951 80.5659 154.98C80.8471 154.246 81.0488 153.579 81.2285 152.819C81.2847 152.6 81.3409 152.381 81.3988 152.155C81.5196 151.684 81.6384 151.211 81.7555 150.738C82.0649 149.494 82.3921 148.255 82.7197 147.015C82.785 146.767 82.8502 146.52 82.9175 146.265C84.8222 139.114 87.6533 132.219 91.1128 125.683C91.2621 125.399 91.2621 125.399 91.4144 125.108C94.1889 119.862 97.6583 114.859 101.953 110.742C102.185 110.51 102.416 110.277 102.655 110.038C106.398 106.301 110.525 103.617 115.136 101.074C114.72 100.075 114.25 99.5984 113.378 98.9681C111.486 97.5447 109.751 95.9607 108.051 94.3127C101.494 87.9974 92.7665 83.2313 83.4956 82.9098C83.198 82.8947 82.9004 82.8796 82.5938 82.864C71.7729 82.562 61.7408 87.5314 54.4185 95.3243ZM190.964 95.3813C189.181 97.0394 187.339 98.6879 185.349 100.093C185.189 100.223 185.028 100.354 184.863 100.488C184.863 100.681 184.863 100.875 184.863 101.074C185.132 101.209 185.402 101.344 185.68 101.484C190.068 103.727 193.802 106.575 197.46 109.863C197.757 110.127 197.757 110.127 198.06 110.397C199.831 112.071 201.267 114.079 202.734 116.015C202.857 116.177 202.981 116.338 203.108 116.504C210.598 126.331 215.329 138.644 218.093 150.594C218.188 151.002 218.188 151.002 218.285 151.418C218.4 151.92 218.508 152.424 218.61 152.929C218.833 153.927 218.999 154.562 219.775 155.251C226.39 157.76 235.41 157.181 241.818 154.33C248.786 151.003 252.996 144.587 255.5 137.51C259.033 126.847 257.018 114.973 252.194 105.052C250.655 102.019 248.867 99.2795 246.679 96.6793C246.466 96.4248 246.252 96.1702 246.033 95.908C239.641 88.5602 230.831 83.7077 221.014 82.9464C208.993 82.3189 199.498 87.4107 190.964 95.3813ZM134.472 101.367C134 101.461 134 101.461 133.519 101.557C119.494 104.453 107.755 111.012 99.7407 123.148C96.0408 128.922 93.1479 135.063 90.8198 141.504C90.7183 141.784 90.6168 142.064 90.5121 142.352C85.3056 156.896 79.7572 177.71 86.6453 192.6C89.2714 197.927 93.2586 201.834 98.1441 205.078C98.3839 205.24 98.6237 205.402 98.8708 205.569C111.737 213.785 130.621 216.467 145.676 216.573C146.013 216.576 146.35 216.579 146.697 216.582C154.422 216.634 161.986 216.495 169.628 215.332C169.991 215.278 170.354 215.225 170.727 215.17C184.838 213.045 201.526 208.96 210.768 197.224C217.507 188.061 216.736 176.643 215.184 165.978C212.763 150.272 207.983 134.018 198.632 120.996C198.503 120.814 198.373 120.633 198.239 120.446C189.857 108.884 177.823 103.559 164.062 101.074C163.631 100.996 163.631 100.996 163.192 100.916C153.931 99.338 143.672 99.5153 134.472 101.367Z" fill="black"/>
<path d="M158.173 144.795C165.331 150.817 166.647 164.321 167.395 172.815C167.731 177.244 167.88 181.846 164.905 185.476C161.986 188.443 157.775 190.377 153.58 190.442C153.365 190.438 153.151 190.434 152.93 190.429C153.053 193.004 153.053 193.004 154.23 195.172C155.857 196.323 156.815 196.548 158.789 196.289C160.747 195.74 161.571 194.235 162.524 192.572C162.685 192.274 162.685 192.274 162.848 191.97C163.637 190.523 163.637 190.523 164.377 190.001C165.256 189.756 165.836 189.861 166.699 190.136C167.547 191.013 167.645 191.836 167.688 193.011C167.59 195.658 166.503 197.636 164.648 199.511C161.617 201.856 158.783 202.477 154.98 202.148C153.526 201.763 152.418 201.05 151.227 200.152C150.403 199.441 150.403 199.441 149.73 199.564C149.013 199.847 148.45 200.219 147.821 200.665C145.515 202.298 143.376 202.38 140.625 202.148C137.796 201.432 135.045 199.652 133.507 197.131C132.563 195.27 132.228 193.693 132.422 191.601C133.016 190.279 133.016 190.279 133.887 189.844C134.711 189.715 134.711 189.715 135.645 189.844C136.47 190.627 136.995 191.413 137.584 192.384C138.971 194.788 138.971 194.788 141.211 196.289C142.69 196.548 143.787 196.456 145.148 195.813C146.815 194.268 146.946 192.591 147.07 190.429C146.903 190.422 146.736 190.414 146.563 190.407C142.466 190.12 138.416 188.684 135.516 185.687C131.941 181.338 132.392 175.4 132.86 170.118C133.815 160.929 135.659 149.906 143.243 143.738C148.221 140.231 153.61 141.277 158.173 144.795Z" fill="black"/>
<path d="M93.3152 104.284C94.3347 105.122 94.7825 105.681 95.2149 106.933C95.2149 108.492 94.8302 109.336 93.7501 110.449C92.8832 110.882 92.3827 110.843 91.4063 110.742C90.3838 110.338 89.4174 109.834 88.44 109.332C84.8935 107.6 82.1254 106.872 78.1678 106.823C77.7184 106.817 77.7184 106.817 77.2599 106.811C75.4719 106.823 73.6621 106.91 72.0704 107.812C71.7205 108.862 71.8769 109.164 72.2169 110.193C72.6493 111.713 72.8999 113.028 72.3634 114.551C71.7619 115.236 71.366 115.551 70.6056 116.015C70.1343 116.303 69.6631 116.591 69.1919 116.879C68.7013 117.176 68.2064 117.466 67.7113 117.755C66.7922 118.362 66.0815 119.02 65.3321 119.824C65.8669 119.797 65.8669 119.797 66.4124 119.769C68.5601 119.776 71.0858 120.067 72.8761 121.344C73.7218 122.401 73.9368 123.169 73.8282 124.511C73.5797 125.286 73.335 125.861 72.9493 126.562C72.7618 126.909 72.7618 126.909 72.5705 127.263C72.2777 127.8 71.9831 128.335 71.687 128.871C71.1299 129.898 70.5982 130.937 70.0745 131.982C69.9035 132.324 69.7324 132.665 69.5561 133.017C68.9081 134.373 68.808 135.356 68.8111 136.853C68.8104 137.222 68.8096 137.591 68.8088 137.972C68.7452 138.83 68.7452 138.83 69.1407 139.16C71.0587 139.086 72.6334 138.468 74.3993 137.741C75.7517 137.228 76.4397 137.007 77.8382 137.457C78.8087 137.988 78.8087 137.988 79.2298 138.482C79.4786 139.505 79.6547 140.481 79.3946 141.504C78.3929 142.964 77.4141 143.666 75.8057 144.36C75.6113 144.447 75.4168 144.534 75.2164 144.623C72.3266 145.879 69.6856 146.333 66.6276 145.318C64.3777 144.371 63.4819 142.739 62.4505 140.596C61.279 137.675 61.6555 134.448 62.6954 131.543C63.4034 129.943 64.2178 128.398 65.0391 126.855C65.1358 126.662 65.2325 126.468 65.3321 126.269C64.9756 126.251 64.6191 126.233 64.2518 126.214C62.082 125.963 59.3937 125.336 57.9163 123.614C57.0981 122.161 57.1757 120.55 57.422 118.945C58.4997 115.248 61.8988 113.185 65.0391 111.328C65.0078 111.062 64.9765 110.797 64.9442 110.523C64.7338 108.385 64.5545 106.517 65.6251 104.59C66.3209 103.766 66.3209 103.766 67.0899 103.125C67.3131 102.934 67.5363 102.743 67.7663 102.547C68.5667 101.944 69.2971 101.566 70.221 101.184C70.5001 101.065 70.7792 100.947 71.0667 100.824C78.2658 98.4111 87.1596 99.9441 93.3152 104.284Z" fill="black"/>
<path d="M232.374 102.354C234.057 103.854 235.125 105.164 235.297 107.512C235.324 108.809 235.154 110.045 234.961 111.329C235.191 111.477 235.421 111.626 235.658 111.779C241.456 115.578 241.456 115.578 242.578 118.946C242.723 120.592 242.804 122.003 242.066 123.505C240.855 124.816 239.757 125.31 238.037 125.739C237.746 125.817 237.746 125.817 237.448 125.896C236.479 126.147 235.678 126.27 234.668 126.27C234.827 126.574 234.986 126.879 235.15 127.192C237.376 131.502 238.749 135.476 237.688 140.392C236.923 142.479 235.717 144.145 233.698 145.13C230.551 146.337 227.598 145.875 224.517 144.566C222.742 143.666 221.593 142.991 220.606 141.211C220.466 140.077 220.509 139.389 220.954 138.337C221.613 137.54 221.929 137.309 222.95 137.11C224.915 137.274 226.719 138.121 228.511 138.889C229.456 139.179 229.93 139.17 230.86 138.868C231.365 138.363 231.239 137.727 231.263 137.037C231.2 132.969 228.808 129.578 226.771 126.201C226.1 125.067 225.964 124.056 226.172 122.754C227.139 121.153 228.194 120.577 229.981 120.118C231.549 119.804 233.077 119.792 234.668 119.825C233.359 118.39 231.881 117.502 230.214 116.529C229.018 115.81 228.113 115.166 227.344 113.965C227.139 112.444 227.515 111.296 228.027 109.89C228.255 109.177 228.295 108.557 228.223 107.813C226.197 106.982 224.378 106.783 222.199 106.806C221.889 106.809 221.579 106.812 221.259 106.815C217.195 106.906 213.927 107.905 210.385 109.864C209.157 110.532 208.275 110.95 206.836 110.743C206.045 110.215 205.506 109.839 205.078 108.985C204.988 108.423 204.988 108.423 204.95 107.758C204.933 107.542 204.915 107.327 204.896 107.105C205.233 105.707 206.235 104.726 207.386 103.905C207.98 103.552 208.58 103.233 209.198 102.924C209.526 102.756 209.526 102.756 209.861 102.585C211.725 101.656 213.595 100.966 215.625 100.489C215.886 100.423 216.146 100.358 216.415 100.291C221.38 99.251 228.157 99.1454 232.374 102.354Z" fill="black"/>
<path d="M123.907 147.736C126.023 149.504 127.497 151.658 128.028 154.395C128.322 157.882 127.867 160.782 125.63 163.586C123.403 165.909 120.426 167.285 117.225 167.413C114.072 167.321 111.607 166.037 109.371 163.879C107.17 161.508 106.54 158.83 106.582 155.676C106.754 152.813 107.911 150.626 109.864 148.535C114.127 145.208 119.364 144.437 123.907 147.736ZM113.728 153.534C112.597 155.052 112.599 156.341 112.794 158.203C113.273 159.228 113.273 159.228 113.966 159.961C114.099 160.13 114.232 160.299 114.369 160.474C115.423 161.285 116.494 161.491 117.793 161.371C119.39 161.109 120.569 160.341 121.583 159.082C122.196 157.564 122.345 156.249 121.876 154.688C121.275 153.438 120.629 152.762 119.422 152.069C117.117 151.393 115.32 151.668 113.728 153.534Z" fill="black"/>
<path d="M189.844 148.242C192.463 150.67 193.499 153.158 193.661 156.709C193.635 159.617 192.485 161.865 190.559 164.026C190.323 164.232 190.087 164.437 189.844 164.649C189.627 164.848 189.409 165.047 189.185 165.253C186.667 167.027 184.095 167.546 181.055 167.285C177.844 166.541 175.338 164.681 173.438 162.012C171.848 159.447 171.809 156.099 172.47 153.213C173.563 150.242 175.712 147.737 178.583 146.393C182.533 144.788 186.583 145.551 189.844 148.242ZM178.876 153.717C178.103 155.357 177.932 156.678 178.455 158.423C179.168 159.659 179.909 160.497 181.129 161.243C182.741 161.609 184.112 161.38 185.56 160.602C186.697 159.654 187.41 158.83 187.56 157.31C187.591 155.817 187.482 154.792 186.622 153.516C185.487 152.468 184.573 151.826 183.033 151.648C181.271 151.824 180.068 152.403 178.876 153.717Z" fill="black"/>
</svg>
