<svg width="300" height="300" viewBox="0 0 300 300" fill="none" xmlns="http://www.w3.org/2000/svg">
<path d="M158.876 50.3877C161.56 51.6885 163.756 51.8013 166.7 51.5627C167.213 51.5303 167.725 51.4978 168.238 51.4654C172.643 51.1491 176.89 50.5119 180.433 47.6626C181.055 47.1682 181.055 47.1682 181.934 47.1682C182.864 49.9829 180.482 53.7186 179.297 56.2502C179.152 56.572 179.006 56.8937 178.856 57.2252C178.113 58.7425 177.514 59.7842 175.909 60.4193C175.674 60.4937 175.438 60.5681 175.196 60.6447C174.867 60.7524 174.538 60.86 174.199 60.9709C173.265 61.266 172.329 61.5468 171.387 61.8166C171.575 62.104 171.763 62.3914 171.956 62.6875C178.559 72.9283 181.118 85.2223 181.11 97.3208C181.11 97.6374 181.111 97.9539 181.111 98.2801C181.096 100.569 180.925 102.788 180.598 105.051C180.555 105.382 180.513 105.714 180.469 106.055C180.424 106.353 180.378 106.651 180.331 106.958C180.545 108.278 181.374 108.772 182.392 109.571C182.797 109.905 183.202 110.24 183.606 110.576C183.815 110.748 184.024 110.92 184.239 111.097C188.854 114.967 192.74 119.369 196.29 124.219C196.416 124.389 196.542 124.559 196.673 124.734C207.441 139.345 210.837 158.317 212.311 175.983C212.329 176.194 212.347 176.405 212.366 176.622C212.983 184.038 213.031 191.464 213.009 198.9C213.006 200.032 213.005 201.164 213.003 202.296C213 204.493 212.995 206.69 212.989 208.887C213.193 208.871 213.398 208.856 213.608 208.84C219.295 208.414 224.981 208.088 230.677 207.81C234.688 207.612 238.689 207.386 242.689 207.022C244.025 206.902 245.337 206.804 246.68 206.836C245.562 209.673 241.543 211.291 238.921 212.446C235.738 213.785 232.433 214.735 229.102 215.625C229.259 215.678 229.416 215.73 229.578 215.785C247.866 221.991 247.866 221.991 250.878 227.129C250.943 227.296 251.008 227.464 251.075 227.637C245.838 227.988 240.832 226.981 235.714 226.02C233.285 225.565 230.855 225.118 228.425 224.671C228.152 224.62 227.88 224.57 227.6 224.518C222.844 223.642 218.085 222.925 213.282 222.363C213.292 222.681 213.302 222.999 213.313 223.326C213.465 230.48 212.477 237.6 211.231 244.629C210.209 244.469 209.504 244.245 208.657 243.652C208.455 243.511 208.253 243.37 208.045 243.224C207.834 243.072 207.622 242.919 207.404 242.761C207.184 242.604 206.964 242.446 206.737 242.283C199.675 237.136 195.388 230.114 192.078 222.162C188.624 213.868 184.273 206.406 178.126 199.805C177.782 199.409 177.441 199.013 177.1 198.615C175.44 196.713 173.64 194.964 171.725 193.322C170.983 192.677 170.261 192.011 169.538 191.345C168.483 190.382 167.411 189.457 166.297 188.562C164.704 187.277 163.212 185.901 161.717 184.504C161.042 183.874 160.354 183.265 159.65 182.666C148.615 173.048 141.989 157.824 140.735 143.372C140.068 133.217 143.434 124.755 149.639 116.85C150.159 116.187 150.668 115.519 151.172 114.844C150.985 114.837 150.798 114.829 150.605 114.822C149.738 114.787 148.872 114.752 148.005 114.716C147.71 114.704 147.416 114.693 147.113 114.681C145.664 114.62 144.225 114.539 142.782 114.398C141.285 114.254 139.803 114.202 138.3 114.203C138.034 114.203 137.767 114.203 137.492 114.203C135.764 114.216 134.082 114.342 132.368 114.551C124.439 115.485 115.726 115.333 108.106 112.793C107.888 123.671 107.888 123.671 108.985 134.473C109.035 134.768 109.086 135.064 109.137 135.369C113.316 158.979 127.861 181.006 147.347 194.797C148.22 195.413 148.22 195.413 149.093 195.896C149.296 196.025 149.499 196.155 149.708 196.289C149.708 196.483 149.708 196.676 149.708 196.875C149.479 196.971 149.479 196.971 149.246 197.07C146.735 198.212 145.754 199.79 144.766 202.307C143.661 205.683 143.398 209.168 143.262 212.696C143.466 212.648 143.669 212.6 143.879 212.55C144.796 212.391 145.647 212.374 146.577 212.384C146.89 212.387 147.203 212.39 147.525 212.392C147.88 212.397 147.88 212.397 148.243 212.403C148.197 212.08 148.151 211.758 148.104 211.426C147.328 205.661 147.328 205.661 148.316 203.339C149.325 202.149 150.459 201.425 151.832 200.702C152.087 200.567 152.342 200.431 152.605 200.291C153.968 200.002 154.883 200.474 156.153 200.977C156.811 201.217 157.469 201.457 158.127 201.695C159.261 202.112 160.392 202.532 161.52 202.962C163.242 203.614 164.927 204.234 166.738 204.599C169.701 205.24 169.701 205.24 170.801 206.25C172.495 209.113 173.386 212.889 173.145 216.211C172.637 217.628 172.137 218.189 170.801 218.848C170.017 219.028 169.271 219.162 168.476 219.269C168.228 219.305 167.98 219.34 167.725 219.377C165.974 219.617 164.219 219.805 162.461 219.981C162.235 220.004 162.01 220.026 161.777 220.05C160.66 220.162 159.543 220.271 158.424 220.372C148.97 221.267 139.623 223.258 130.327 225.132C128.753 225.449 127.178 225.762 125.604 226.075C119.315 227.325 113.04 228.623 106.795 230.075C106.415 230.162 106.415 230.162 106.028 230.252C93.6179 233.137 81.7473 237.199 70.2765 242.761C70.0547 242.868 69.8328 242.975 69.6043 243.085C66.6331 244.504 66.6331 244.504 63.806 246.184C59.5353 248.968 54.4487 248.589 49.5123 248.145C49.0085 247.641 49.1843 247 49.1829 246.328C49.184 246.11 49.185 245.892 49.1861 245.667C49.1861 245.438 49.186 245.21 49.186 244.974C49.1862 244.215 49.1885 243.456 49.1908 242.696C49.1913 242.171 49.1917 241.646 49.192 241.121C49.1931 239.736 49.196 238.352 49.1992 236.967C49.2022 235.555 49.2036 234.143 49.2051 232.731C49.2082 229.959 49.2132 227.187 49.2194 224.414C49.4168 224.377 49.6142 224.339 49.8176 224.301C53.6692 223.564 57.4675 222.801 61.2128 221.631C61.4097 221.57 61.6066 221.51 61.8094 221.447C72.6757 218.091 84.7105 213.853 93.7506 206.836C93.9097 206.716 94.0688 206.596 94.2327 206.472C99.0349 202.814 101.021 198.213 103.121 192.72C103.261 192.355 103.261 192.355 103.404 191.984C103.581 191.518 103.757 191.051 103.929 190.583C104.527 188.997 104.527 188.997 105.176 188.672C105.818 190.483 105.841 192.146 105.817 194.055C105.817 194.49 105.817 194.49 105.817 194.934C105.806 196.677 105.693 198.369 105.469 200.098C105.697 200.046 105.924 199.994 106.158 199.941C107.198 199.705 108.238 199.471 109.278 199.237C109.636 199.156 109.993 199.074 110.362 198.991C112.873 198.427 115.246 198.006 117.829 197.992C118.343 197.986 118.343 197.986 118.867 197.98C119.804 198.046 120.448 198.232 121.29 198.633C118.841 202.062 114.668 202.996 110.857 204.25C106.519 205.685 102.671 207.468 98.9325 210.132C98.4631 210.46 97.9935 210.787 97.5237 211.114C97.2893 211.278 97.0548 211.442 96.8132 211.611C95.6193 212.439 94.4109 213.245 93.2013 214.05C92.8748 214.269 92.8748 214.269 92.5418 214.491C92.3372 214.628 92.1326 214.764 91.9218 214.904C91.6551 215.082 91.6551 215.082 91.383 215.263C90.7164 215.693 90.0366 216.097 89.3561 216.504C93.1202 216.329 96.8474 215.967 100.591 215.542C101.175 215.476 101.759 215.411 102.343 215.346C103.862 215.176 105.382 215.005 106.901 214.833C108.459 214.657 110.017 214.483 111.574 214.309C114.618 213.968 117.661 213.625 120.704 213.281C120.69 212.928 120.677 212.574 120.663 212.21C120.652 211.737 120.641 211.264 120.63 210.791C120.621 210.559 120.611 210.327 120.601 210.089C120.568 208.099 121.078 206.588 122.387 205.071C122.632 204.875 122.632 204.875 122.883 204.675C123.045 204.54 123.208 204.405 123.376 204.266C124.75 203.369 125.663 203.264 127.277 203.54C127.813 203.627 127.813 203.627 128.359 203.716C128.733 203.779 129.107 203.842 129.493 203.906C130.261 204.021 131.031 204.128 131.8 204.236C132.398 204.321 132.996 204.407 133.594 204.492C133.709 204.13 133.824 203.767 133.942 203.394C134.514 201.67 135.224 200.008 135.938 198.34C135.585 198.245 135.585 198.245 135.225 198.148C133.875 197.639 132.736 196.92 131.525 196.143C131.279 195.985 131.032 195.828 130.778 195.666C128.695 194.32 126.72 192.886 124.805 191.309C124.644 191.178 124.483 191.046 124.318 190.911C120.394 187.696 116.794 184.178 113.672 180.176C113.496 179.967 113.319 179.758 113.137 179.543C109.351 175.034 106.391 169.869 103.712 164.649C103.601 164.434 103.49 164.22 103.376 164C100.37 158.131 98.2809 151.766 96.9733 145.313C96.9212 145.056 96.869 144.799 96.8153 144.534C95.2372 136.196 95.6329 126.951 96.7524 118.569C96.8069 118.156 96.8069 118.156 96.8625 117.734C96.9403 117.144 97.0215 116.555 97.1052 115.966C97.3288 114.094 97.3482 113.02 96.1859 111.438C93.0502 106.817 92.7075 101.67 92.7618 96.2221C92.7631 95.9799 92.7644 95.7376 92.7657 95.488C92.7904 91.437 93.0482 87.4915 93.7506 83.4963C93.8237 83.0559 93.8237 83.0559 93.8982 82.6067C95.1765 75.0167 97.5276 68.0365 101.661 61.5236C101.462 61.4949 101.263 61.4662 101.059 61.4367C100.179 61.2953 99.3105 61.1195 98.4381 60.9377C98.1862 60.8999 97.9343 60.8622 97.6748 60.8233C96.2704 60.475 95.5214 59.8731 94.7359 58.6809C92.7362 55.337 90.6549 51.4199 90.8209 47.4611C92.1342 47.3644 92.1342 47.3644 92.8076 47.7942C92.9738 47.9441 93.14 48.094 93.3112 48.2485C97.5359 51.614 103.511 51.5618 108.655 51.6176C108.854 51.6215 109.052 51.6253 109.256 51.6292C111.798 51.6336 113.929 50.9255 116.218 49.8781C120.923 47.8201 125.881 46.68 130.958 45.9963C131.234 45.9578 131.51 45.9193 131.794 45.8796C140.799 44.8465 150.727 46.4047 158.876 50.3877ZM164.126 61.8296C163.059 61.8464 161.992 61.8691 160.925 61.8935C160.469 61.9032 160.014 61.9114 159.559 61.9181C153.407 62.0104 148.334 63.1607 143.665 67.4196C140.081 71.2101 138.295 76.1746 137.11 81.1525C137.02 80.863 137.02 80.863 136.927 80.5675C134.819 73.8729 132.31 67.2282 125.703 63.7575C122.95 62.4032 120.167 61.9663 117.129 61.9207C116.8 61.915 116.471 61.9093 116.132 61.9035C115.443 61.8939 114.754 61.8869 114.064 61.8823C113.011 61.8715 111.96 61.8404 110.908 61.8092C110.235 61.8024 109.562 61.7968 108.889 61.7926C108.576 61.7802 108.264 61.7678 107.942 61.7551C106.613 61.7669 105.801 61.7848 104.825 62.7407C104.294 63.4869 103.844 64.2291 103.419 65.0393C103.298 65.2585 103.177 65.4776 103.052 65.7035C102.748 66.2669 102.476 66.8372 102.21 67.4196C102.113 67.6306 102.015 67.8416 101.915 68.0589C99.9551 72.4161 98.9078 76.8253 98.9325 81.6103C98.9339 81.9436 98.9354 82.2768 98.9369 82.6202C98.9755 85.4274 99.2527 88.0908 99.903 90.8205C99.9517 91.0283 100 91.236 100.051 91.4501C101.602 97.8263 104.89 103.967 110.523 107.593C114.551 109.95 118.49 110.857 123.121 110.834C123.448 110.833 123.775 110.833 124.112 110.832C127.685 110.79 131.249 110.397 134.753 109.688C137.368 109.343 139.808 109.687 142.383 110.156C150.078 111.441 157.776 111.405 164.457 106.932C170.286 102.56 173.169 95.3483 174.206 88.3108C175.194 79.3563 173.822 71.123 168.732 63.5561C168.562 63.2915 168.562 63.2915 168.389 63.0215C168.015 62.4647 168.015 62.4647 167.286 61.8166C166.229 61.7629 165.184 61.8172 164.126 61.8296Z" fill="black"/>
<path d="M176.367 207.422C182.644 212.674 186.041 219.594 189.295 226.98C190.749 230.21 192.478 233.682 194.726 236.438C195.268 237.233 195.19 237.877 195.047 238.804C194.19 242.049 192.593 245.005 190.43 247.559C190.235 247.79 190.04 248.021 189.839 248.259C187.18 251.155 183.553 253.125 179.608 253.363C179.281 253.383 179.281 253.383 178.948 253.404C177.097 253.481 175.442 253.169 173.64 252.74C172.494 252.527 171.47 252.52 170.306 252.557C165.981 252.643 162.875 250.567 159.808 247.713C157.881 245.747 156.423 243.563 155.164 241.132C155.069 240.954 154.975 240.776 154.878 240.593C153.224 237.234 153.05 233.557 152.875 229.889C152.851 229.44 152.827 228.992 152.802 228.544C152.743 227.46 152.689 226.377 152.637 225.293C154.777 224.444 156.645 224.1 158.957 223.995C159.391 223.974 159.824 223.953 160.257 223.932C160.481 223.921 160.705 223.91 160.936 223.899C165.637 223.674 165.637 223.674 170.306 223.114C170.623 223.066 170.623 223.066 170.945 223.016C173.319 222.6 174.526 221.7 175.915 219.808C177.322 217.731 177.801 215.781 177.539 213.281C177.326 212.254 177.062 211.241 176.784 210.23C176.515 209.243 176.367 208.455 176.367 207.422Z" fill="black"/>
<path d="M124.805 74.4139C128.861 77.7666 131.572 83.251 132.351 88.4569C132.447 89.6784 132.483 90.8952 132.495 92.1202C132.498 92.3494 132.501 92.5786 132.504 92.8147C132.497 93.9461 132.479 94.8434 131.836 95.8006C131.395 94.5311 131.044 93.2589 130.719 91.9554C129.908 88.8457 128.768 86.0989 126.855 83.4959C125.847 83.8322 125.564 84.2814 124.918 85.0901C123.772 86.3782 122.175 87.1854 120.48 87.4132C118.291 87.4629 116.629 87.1608 114.844 85.8397C113.291 84.2415 112.417 82.5799 112.408 80.3282C112.431 78.8325 112.543 77.0078 113.672 75.8787C112.008 75.8339 110.518 75.9774 108.893 76.3182C106.737 76.7576 106.737 76.7576 105.762 76.7576C106.538 74.8593 108.466 73.9061 110.256 73.0875C115.243 71.1166 120.384 71.1247 124.805 74.4139Z" fill="black"/>
<path d="M166.992 74.9999C167.538 75.5626 167.99 76.1249 168.457 76.7577C168.279 76.7222 168.101 76.6867 167.917 76.6502C165.986 76.2809 164.055 76.0102 162.102 75.7903C160.608 75.6162 160.608 75.6162 159.961 75.2929C160.042 75.4696 160.123 75.6464 160.207 75.8285C160.366 76.1797 160.366 76.1797 160.529 76.538C160.687 76.8847 160.687 76.8847 160.848 77.2384C161.613 79.0953 161.728 81.0507 161.078 82.965C160.194 85.008 158.98 86.1169 156.975 87.0345C154.957 87.6971 153.032 87.5903 151.099 86.7187C149.616 85.8864 148.486 84.7595 147.363 83.496C145.052 86.1969 144.084 89.3258 143.231 92.7119C142.969 93.749 142.681 94.7737 142.383 95.8007C142.286 95.8007 142.189 95.8007 142.09 95.8007C140.616 89.7864 142.61 83.3084 145.651 78.1505C147.609 75.2259 150.595 72.8042 154.102 72.0702C154.446 71.9977 154.79 71.9252 155.145 71.8505C159.462 71.4448 163.578 72.2084 166.992 74.9999Z" fill="black"/>
<path d="M136.816 88.4766C138.084 89.1102 138.426 91.2236 138.904 92.4866C139.11 92.999 139.11 92.999 139.319 93.5217C140.477 96.5809 140.937 99.4913 139.691 102.594C139.423 103.164 139.148 103.732 138.867 104.297C138.591 104.907 138.316 105.517 138.043 106.128C137.83 106.592 137.617 107.056 137.402 107.52C136.425 106.718 135.991 105.64 135.48 104.517C135.346 104.234 135.346 104.234 135.21 103.946C133.73 100.74 133.393 97.9292 134.528 94.5419C134.797 93.8113 135.071 93.0845 135.352 92.3584C135.493 91.9794 135.634 91.6002 135.775 91.2209C136.117 90.3041 136.464 89.3895 136.816 88.4766Z" fill="black"/>
</svg>
