<svg width="300" height="300" viewBox="0 0 300 300" fill="none" xmlns="http://www.w3.org/2000/svg">
<path d="M115.723 105.468C116.291 105.926 116.291 105.926 116.602 106.64C116.602 108.012 116.228 108.91 115.595 110.119C113.807 113.576 113.757 117.685 114.734 121.417C116.284 126.142 119.409 129.299 123.728 131.615C127.475 133.351 132.16 133.403 136.023 132.095C137.322 131.575 138.54 130.999 139.728 130.261C140.626 129.785 140.626 129.785 141.449 129.821C142.09 130.078 142.09 130.078 142.676 130.664C142.876 132.462 142.876 132.462 142.212 133.301C138.011 136.775 132.344 137.151 127.149 136.816C122.365 136.239 118 133.317 114.844 129.785C114.651 129.495 114.458 129.205 114.258 128.906C114.238 131.445 114.222 133.985 114.213 136.524C114.208 137.704 114.202 138.884 114.192 140.064C114.102 147.421 114.102 147.421 115.137 154.687C115.197 154.974 115.257 155.261 115.319 155.557C115.467 156.225 115.632 156.883 115.815 157.543C115.877 157.772 115.939 158.001 116.003 158.236C116.622 160.446 117.432 162.548 118.36 164.648C118.481 164.932 118.481 164.932 118.605 165.221C121.726 172.477 126.352 178.922 131.836 184.57C131.997 184.738 132.157 184.906 132.323 185.079C134.729 187.596 137.241 189.824 140.04 191.894C140.279 192.075 140.279 192.075 140.524 192.26C147.785 197.732 156.587 203.194 165.821 203.906C165.551 203.749 165.282 203.593 165.004 203.432C159.602 200.266 154.831 196.496 150.293 192.187C149.93 191.842 149.93 191.842 149.559 191.49C139.699 181.888 134.331 168.953 133.887 155.273C133.865 150.287 134.237 145.295 134.62 140.327C134.651 139.913 134.651 139.913 134.684 139.491C134.766 138.867 134.766 138.867 135.059 138.574C135.718 138.541 136.379 138.53 137.039 138.527C137.246 138.525 137.453 138.524 137.667 138.522C138.359 138.518 139.05 138.516 139.742 138.514C140.226 138.513 140.71 138.511 141.194 138.509C142.215 138.506 143.235 138.504 144.256 138.503C145.292 138.502 146.328 138.498 147.364 138.491C159.285 138.415 170.023 139.213 179.004 147.949C181.265 150.203 182.999 152.49 184.571 155.273C185.151 156.288 185.151 156.288 185.743 157.324C185.743 147.946 185.743 138.568 185.743 128.906C184.147 130.646 184.147 130.646 182.52 132.421C178.347 135.816 172.946 137.527 167.579 137.109C163.982 136.614 159.796 135.539 157.325 132.714C157.142 131.781 157.142 131.781 157.325 130.957C157.741 130.353 158.057 130.139 158.729 129.86C159.649 129.753 160.074 130.095 160.859 130.572C165.367 133.133 169.859 133.543 174.874 132.193C176.895 131.535 178.525 130.526 180.176 129.199C180.36 129.052 180.543 128.906 180.732 128.755C183.745 126.056 185.564 121.677 185.853 117.713C185.989 114.525 185.427 111.687 183.893 108.856C183.352 107.712 183.296 107.241 183.692 106.054C184.278 105.468 184.278 105.468 185.23 105.285C186.401 105.48 186.54 105.536 187.244 106.402C189.738 110.17 190.227 114.331 190.208 118.729C190.208 119.147 190.208 119.565 190.209 119.983C190.211 121.126 190.208 122.268 190.205 123.411C190.203 124.645 190.204 125.88 190.204 127.114C190.204 129.251 190.202 131.388 190.199 133.524C190.194 136.614 190.193 139.703 190.192 142.792C190.191 147.805 190.187 152.817 190.181 157.83C190.176 162.698 190.172 167.566 190.169 172.434C190.169 172.734 190.169 173.035 190.169 173.344C190.168 174.85 190.167 176.357 190.167 177.863C190.161 190.353 190.15 202.842 190.137 215.332C188.99 215.332 188.562 214.923 187.61 214.288C173.581 205.359 152.11 206.421 136.524 209.472C135.74 209.657 134.961 209.858 134.18 210.058C132.661 210.201 132.661 210.201 131.873 209.729C131.381 208.908 131.409 208.359 131.543 207.421C132.547 205.944 134.113 205.823 135.755 205.499C136.053 205.437 136.351 205.375 136.659 205.312C139.72 204.697 142.8 204.274 145.899 203.906C146.151 203.875 146.404 203.845 146.663 203.813C148.068 203.643 149.473 203.478 150.879 203.32C150.627 203.192 150.627 203.192 150.37 203.061C147.203 201.445 144.09 199.853 141.211 197.753C141.034 197.625 140.856 197.496 140.673 197.363C137.92 195.361 135.283 193.25 132.715 191.015C132.444 190.784 132.173 190.552 131.894 190.314C131.651 190.104 131.409 189.894 131.159 189.678C130.949 189.497 130.738 189.315 130.522 189.128C130.079 188.671 130.079 188.671 130.079 188.085C129.904 188.009 129.729 187.932 129.549 187.853C128.865 187.476 128.508 187.125 128.01 186.529C127.832 186.318 127.655 186.108 127.472 185.89C127.269 185.648 127.065 185.406 126.856 185.156C126.617 184.883 126.377 184.61 126.13 184.329C118.996 176.172 113.681 166.487 111.091 155.95C111.033 155.721 110.976 155.492 110.918 155.256C109.774 150.314 109.772 145.344 109.776 140.301C109.775 139.569 109.773 138.837 109.772 138.105C109.77 136.58 109.77 135.054 109.771 133.529C109.773 131.584 109.768 129.638 109.761 127.693C109.757 126.185 109.757 124.676 109.758 123.168C109.757 122.451 109.756 121.734 109.753 121.017C109.721 112.088 109.721 112.088 111.75 108.197C111.919 107.863 112.087 107.53 112.261 107.186C113.181 105.736 113.984 105.209 115.723 105.468ZM138.575 142.968C136.549 156.733 138.435 171.034 146.847 182.423C155.379 193.812 166.891 200.876 179.792 206.451C180.035 206.556 180.277 206.661 180.528 206.769C181.223 207.068 181.919 207.366 182.615 207.663C182.825 207.753 183.034 207.843 183.25 207.935C184.172 208.325 185.062 208.661 186.036 208.886C186.056 204.289 186.072 199.692 186.081 195.095C186.086 192.959 186.092 190.824 186.102 188.689C186.111 186.825 186.116 184.961 186.118 183.097C186.12 182.113 186.123 181.128 186.129 180.144C186.194 168.955 184.318 158.827 176.292 150.502C169.298 143.577 160.654 142.542 151.259 142.584C150.576 142.588 149.893 142.593 149.21 142.598C148.277 142.604 147.344 142.605 146.411 142.606C145.512 142.607 144.613 142.61 143.714 142.613C143.285 142.615 142.856 142.616 142.427 142.617C141.833 142.619 141.24 142.624 140.646 142.628C140.14 142.631 140.14 142.631 139.624 142.634C138.888 142.59 138.888 142.59 138.575 142.968Z" fill="black"/>
<path d="M109.278 84.375C109.471 84.375 109.664 84.375 109.863 84.375C110.287 84.8156 110.287 84.8156 110.779 85.4187C114.079 89.2605 117.908 91.0119 122.953 91.5134C124.073 91.5764 125.185 91.6029 126.306 91.6077C126.507 91.609 126.707 91.6102 126.913 91.6116C131.04 91.6146 134.659 90.6102 138.573 89.3329C147.833 86.4899 158.606 87.7457 167.524 91.1335C169.146 91.6076 170.818 91.5037 172.495 91.4987C173.135 91.4978 173.774 91.5047 174.414 91.5121C180.058 91.5383 184.749 90.2127 188.876 86.2301C189.099 86.0046 189.321 85.7792 189.551 85.5469C189.774 85.3244 189.997 85.102 190.226 84.8728C190.472 84.6264 190.472 84.6264 190.723 84.375C191.966 88.1043 191.567 92.6534 190.128 96.2666C188.552 99.3815 185.818 101.455 182.52 102.539C179.113 103.446 175.824 103.548 172.32 103.546C168.108 103.553 164.35 104.086 160.84 106.641C160.618 106.802 160.396 106.964 160.167 107.13C154.439 111.753 153.459 119.289 152.552 126.125C152.52 126.37 152.487 126.614 152.454 126.866C152.29 128.105 152.131 129.345 151.978 130.586C151.919 131.046 151.86 131.507 151.802 131.968C151.776 132.182 151.751 132.397 151.725 132.618C151.531 134.114 151.531 134.114 150.879 134.766C150 134.839 150 134.839 149.121 134.766C148.259 133.903 148.288 132.89 148.133 131.726C148.096 131.471 148.06 131.216 148.022 130.954C147.849 129.742 147.685 128.529 147.521 127.316C146.231 116.929 146.231 116.929 140.918 108.105C140.748 107.923 140.578 107.741 140.403 107.554C136.448 103.731 131.395 103.618 126.253 103.577C121.219 103.53 116.267 103.058 112.354 99.5361C111.991 99.1373 111.991 99.1373 111.621 98.7305C111.403 98.4925 111.403 98.4925 111.181 98.2498C108.475 95.0218 108.453 91.1195 108.624 87.1104C108.719 86.1426 108.964 85.2942 109.278 84.375ZM133.989 94.7909C132.633 95.2995 131.385 95.347 129.949 95.3419C129.56 95.3442 129.56 95.3442 129.163 95.3465C128.616 95.3484 128.069 95.348 127.523 95.3455C126.7 95.343 125.878 95.3514 125.056 95.3608C120.919 95.3768 117.353 94.8921 113.672 92.8711C113.479 92.8711 113.285 92.8711 113.086 92.8711C113.337 95 114.671 96.3475 116.246 97.673C118.583 99.3714 121.027 99.645 123.837 99.6712C124.336 99.6794 124.835 99.6878 125.334 99.6964C126.111 99.7084 126.888 99.7192 127.665 99.727C131.566 99.7692 135.079 100.02 138.611 101.843C138.809 101.944 139.008 102.045 139.212 102.149C141.006 103.103 142.444 104.293 143.848 105.762C144.03 105.938 144.211 106.114 144.398 106.295C147.373 109.37 148.677 113.434 149.707 117.48C150.427 117.205 150.427 117.205 150.683 116.108C150.829 115.644 150.974 115.18 151.117 114.716C152.205 111.347 153.508 108.737 155.86 106.055C156.034 105.849 156.208 105.644 156.387 105.432C159.219 102.327 163.464 100.475 167.578 99.9023C168.405 99.8728 169.225 99.8554 170.051 99.8508C170.536 99.844 171.02 99.837 171.504 99.8297C172.257 99.8195 173.011 99.8108 173.764 99.8069C177.733 99.7819 181.791 99.6837 184.815 96.7426C185.98 95.5094 186.601 94.5405 186.914 92.8711C185.603 93.2852 184.351 93.7876 183.092 94.3359C180.175 95.3238 177.252 95.3425 174.202 95.3556C173.409 95.3613 172.617 95.3795 171.824 95.3979C168.795 95.4344 166.386 95.0914 163.602 93.8863C162.359 93.3547 161.136 93.0406 159.815 92.7795C159.499 92.7113 159.499 92.7113 159.176 92.6416C156.226 92.0212 153.336 91.9214 150.33 91.9189C150.114 91.9187 149.897 91.9185 149.675 91.9183C144.246 91.9262 139.022 92.6504 133.989 94.7909Z" fill="black"/>
<path d="M132.129 112.793C133.342 113.445 134.514 114.172 135.01 115.499C135.379 117.221 135.425 118.257 134.472 119.825C132.953 121.529 132.953 121.529 131.721 121.652C130.394 121.687 129.422 121.68 128.192 121.143C127.07 120.049 126.379 118.99 126.191 117.411C126.25 115.71 126.951 114.755 128.089 113.535C129.23 112.559 130.705 112.613 132.129 112.793Z" fill="black"/>
<path d="M170.508 112.793C171.783 113.443 172.688 114.209 173.438 115.43C173.866 117.201 173.773 118.196 172.852 119.825C171.914 120.902 171.294 121.5 169.843 121.652C168.149 121.702 167.133 121.595 165.82 120.41C164.948 119.298 164.696 118.302 164.648 116.895C165.006 115.074 165.79 114.136 167.285 113.086C168.303 112.577 169.395 112.658 170.508 112.793Z" fill="black"/>
</svg>
