<svg width="300" height="300" viewBox="0 0 300 300" fill="none" xmlns="http://www.w3.org/2000/svg">
<path d="M133.099 84.5215C134.487 85.3081 135.343 86.6048 135.803 88.1201C136.362 90.8198 135.767 93.3771 135.003 95.9656C134.816 96.6327 134.628 97.2999 134.44 97.9671C134.347 98.2933 134.253 98.6194 134.157 98.9555C133.768 100.318 133.393 101.684 133.026 103.052C132.933 103.383 132.933 103.383 132.838 103.722C132.513 104.927 132.398 105.983 132.422 107.227C134.872 107.277 137.249 107.135 139.682 106.852C140.198 106.795 140.198 106.795 140.725 106.736C141.815 106.615 142.904 106.49 143.994 106.366C145.083 106.243 146.173 106.121 147.262 105.999C147.937 105.923 148.611 105.847 149.286 105.77C152.317 105.427 155.335 105.135 158.387 105.106C158.767 105.102 158.767 105.102 159.155 105.097C164.898 105.046 170.431 105.148 176.074 106.348C176.338 106.403 176.602 106.457 176.874 106.514C186.884 108.654 196.564 113.167 204.785 119.238C204.95 119.36 205.116 119.481 205.286 119.606C206.409 120.436 207.506 121.293 208.593 122.168C208.894 122.408 209.195 122.648 209.504 122.896C211.851 124.818 214.007 126.934 216.156 129.071C216.299 129.212 216.442 129.354 216.589 129.5C218.551 131.445 220.359 133.473 222.07 135.645C222.284 135.911 222.284 135.911 222.502 136.184C230.42 146.089 236.712 158.147 238.476 170.801C238.518 171.09 238.518 171.09 238.56 171.386C239.877 181.618 237.946 191.978 231.648 200.28C225.48 208.135 216.626 213.125 206.697 214.379C196.991 215.442 187.338 213.993 177.756 212.525C175.867 212.236 173.978 211.951 172.088 211.666C171.086 211.514 170.085 211.361 169.084 211.206C159.826 209.784 150.75 209.82 142.199 214.106C140.802 214.779 139.799 214.902 138.281 214.746C137.702 214.415 137.702 214.415 137.402 213.867C136.82 209.901 138.068 206.239 140.332 203.027C144.74 197.575 152.762 195.258 159.447 194.452C165.908 193.772 172.411 194.504 178.86 195.024C195.526 196.697 195.526 196.697 210.589 190.503C213.095 188.205 214.875 184.502 215.119 181.113C215.294 175.653 213.494 171.354 209.948 167.157C206.47 163.495 201.437 162.523 196.582 162.012C196.093 162.006 195.605 162.005 195.117 162.012C195.208 162.184 195.299 162.356 195.393 162.533C197.062 165.687 198.712 168.849 200.262 172.064C200.381 172.307 200.499 172.549 200.621 172.799C201.998 175.688 203.155 178.816 202.249 182.03C201.607 183.48 200.586 184.64 199.218 185.449C197.578 186.021 196.119 186.121 194.39 186.116C193.984 186.118 193.984 186.118 193.569 186.12C192.679 186.124 191.788 186.124 190.897 186.123C190.275 186.124 189.653 186.126 189.031 186.127C187.729 186.129 186.427 186.129 185.125 186.128C183.46 186.126 181.795 186.131 180.13 186.138C178.846 186.142 177.562 186.142 176.278 186.141C175.664 186.142 175.05 186.143 174.436 186.146C173.577 186.15 172.717 186.148 171.858 186.144C171.607 186.146 171.355 186.149 171.096 186.151C169.256 186.135 167.557 185.872 166.096 184.653C165.962 184.48 165.829 184.308 165.692 184.131C165.553 183.959 165.415 183.786 165.272 183.609C164.516 182.458 164.48 181.212 164.648 179.883C165.587 176.96 167.327 175.283 169.922 173.73C171.651 172.883 173.281 172.239 175.195 171.973C174.983 171.662 174.772 171.352 174.554 171.032C174.279 170.625 174.005 170.219 173.73 169.812C173.59 169.607 173.451 169.403 173.307 169.192C173.175 168.995 173.042 168.799 172.906 168.597C172.783 168.416 172.661 168.235 172.534 168.048C172.265 167.578 172.265 167.578 172.265 166.992C171.983 166.999 171.701 167.006 171.41 167.013C168.487 167.059 165.587 166.934 162.671 166.736C162.321 166.713 161.971 166.69 161.611 166.666C159.184 166.492 156.798 166.194 154.394 165.82C154.35 165.988 154.306 166.155 154.26 166.328C153.653 168.491 152.794 170.497 151.867 172.54C151.712 172.886 151.556 173.231 151.396 173.587C151.081 174.284 150.765 174.98 150.448 175.676C150.166 176.295 149.885 176.915 149.607 177.535C149.265 178.295 148.919 179.053 148.571 179.81C148.425 180.136 148.425 180.136 148.277 180.469C147.371 182.407 146.197 184.122 144.25 185.12C143.927 185.291 143.927 185.291 143.598 185.465C142.303 186.035 141.155 186.075 139.742 186.082C139.538 186.084 139.333 186.085 139.122 186.087C138.447 186.091 137.772 186.093 137.096 186.095C136.625 186.096 136.153 186.098 135.682 186.1C134.693 186.103 133.704 186.105 132.716 186.106C131.454 186.107 130.193 186.114 128.931 186.123C127.957 186.128 126.982 186.13 126.008 186.13C125.543 186.131 125.078 186.133 124.613 186.137C119.051 186.18 119.051 186.18 117.077 184.599C116.92 184.402 116.763 184.205 116.601 184.003C116.438 183.807 116.275 183.611 116.107 183.409C115.309 182.172 115.217 180.734 115.429 179.297C116.262 176.845 117.768 174.873 120.016 173.574C121.335 172.966 122.352 172.536 123.822 172.618C125.596 172.701 125.596 172.701 127.148 171.973C128.665 169.892 129.589 167.391 130.557 165.021C131.053 163.832 131.619 162.693 132.22 161.554C132.812 160.512 132.812 160.512 133.007 159.375C132.526 158.992 132.028 158.629 131.524 158.276C127.376 155.261 123.413 151.454 120.559 147.173C120.389 146.924 120.389 146.924 120.216 146.67C119.919 146.224 119.635 145.769 119.352 145.312C118.666 144.604 118.666 144.604 117.571 144.773C115.528 145.054 113.526 145.559 111.521 146.032C111.084 146.134 110.648 146.236 110.211 146.338C109.064 146.605 107.917 146.875 106.771 147.144C105.621 147.414 104.471 147.683 103.321 147.952C102.986 148.03 102.986 148.03 102.643 148.11C100.725 148.559 98.8065 149.007 96.8877 149.454C96.2178 149.61 95.548 149.766 94.8784 149.923C94.1428 150.095 93.4068 150.265 92.6705 150.434C92.3013 150.519 91.9322 150.605 91.5519 150.693C89.1801 151.124 86.4251 151.431 84.2877 150.116C82.6691 148.79 81.4965 147.173 80.5661 145.312C80.5661 145.119 80.5661 144.926 80.5661 144.727C77.3042 146.241 74.8756 148.87 73.5294 152.204C72.7458 154.367 72.505 156.208 72.5724 158.497C72.578 158.974 72.578 158.974 72.5837 159.461C72.5959 160.464 72.616 161.467 72.6376 162.469C72.6575 163.482 72.6756 164.494 72.6883 165.506C72.6963 166.133 72.7085 166.76 72.7254 167.386C72.7293 167.668 72.7331 167.95 72.7371 168.24C72.7453 168.612 72.7453 168.612 72.7537 168.991C72.6322 169.783 72.4145 170.035 71.777 170.508C70.6994 170.675 70.1461 170.574 69.1769 170.068C64.6872 166.687 61.9067 161.402 61.0665 155.903C60.4094 150.604 61.9929 145.332 65.1886 141.087C69.4012 135.75 75.5685 132.984 82.2346 132.188C83.5319 132.075 84.831 132.083 86.1325 132.077C86.755 132.071 87.3776 132.064 88.0001 132.056C88.9721 132.046 89.944 132.037 90.9161 132.033C91.8607 132.029 92.8051 132.017 93.7497 132.004C94.0378 132.005 94.326 132.005 94.6228 132.006C96.667 131.97 98.2421 131.587 99.8162 130.234C100.349 129.602 100.26 129.121 100.195 128.32C99.2685 127.857 98.2736 127.989 97.2565 127.994C97.0136 127.994 96.7706 127.994 96.5203 127.994C95.715 127.994 94.9097 127.996 94.1044 127.999C93.5469 127.999 92.9895 128 92.432 128C90.963 128.001 89.494 128.004 88.025 128.007C86.5267 128.01 85.0284 128.012 83.5301 128.013C80.5889 128.016 77.6478 128.021 74.7067 128.027C74.6225 128.306 74.5382 128.585 74.4515 128.872C74.1207 129.785 74.1207 129.785 73.5165 130.334C71.5194 131.099 69.7167 130.73 67.8002 129.88C65.7674 128.77 64.3384 127.3 63.5739 125.098C62.4096 120.751 63.0596 114.414 65.0387 110.449C67.3101 106.627 71.1692 105.566 75.1644 104.297C76.0685 104.005 76.972 103.712 77.8755 103.418C78.0976 103.346 78.3197 103.274 78.5484 103.2C80.1305 102.685 81.7102 102.163 83.284 101.624C83.5869 101.523 83.5869 101.523 83.896 101.42C85.6314 100.816 87.0453 99.978 88.2931 98.6263C88.4646 98.4452 88.6362 98.264 88.8129 98.0774C88.9918 97.888 89.1708 97.6987 89.3551 97.5037C92.6948 94.0812 96.7334 91.246 101.708 91.0939C102.46 91.094 103.211 91.1034 103.962 91.1156C104.531 91.1207 105.099 91.1257 105.668 91.1304C106.556 91.1395 107.444 91.1499 108.333 91.1635C109.195 91.176 110.058 91.1828 110.92 91.1888C111.312 91.197 111.312 91.197 111.712 91.2053C114.284 91.2157 116.474 90.5601 118.723 89.3131C119.041 89.1388 119.36 88.9645 119.688 88.785C120.011 88.6046 120.333 88.4243 120.666 88.2385C129.902 83.1419 129.902 83.1419 133.099 84.5215ZM129.829 88.5963C129.643 88.6874 129.457 88.7786 129.265 88.8725C129.051 88.9754 128.837 89.0782 128.616 89.1842C128.385 89.3011 128.155 89.4181 127.917 89.5386C127.675 89.6568 127.434 89.7751 127.185 89.897C124.963 90.9991 122.786 92.1895 120.626 93.4091C120.247 93.6215 120.247 93.6215 119.859 93.8381C119.64 93.9625 119.421 94.0868 119.195 94.215C116.729 95.4363 114.82 95.9669 112.052 95.8843C111.582 95.8787 111.582 95.8787 111.103 95.873C110.109 95.8607 109.117 95.8407 108.123 95.8191C107.131 95.799 106.14 95.7809 105.147 95.7683C104.533 95.7605 103.919 95.7484 103.304 95.7313C98.2669 95.6629 95.2074 97.994 91.6989 101.367C90.766 102.364 90.766 102.364 89.8506 103.377C87.3815 105.341 84.0426 106.116 81.0788 107.08C80.6648 107.216 80.2509 107.352 79.8371 107.489C79.0196 107.758 78.2018 108.026 77.3839 108.294C76.1696 108.692 74.9559 109.091 73.7431 109.494C73.3935 109.609 73.044 109.725 72.6838 109.844C70.9352 110.446 69.8422 110.958 68.9022 112.628C67.5414 115.699 66.8439 120.594 67.9524 123.864C68.5144 124.836 68.9684 125.299 69.9642 125.83C70.1757 125.878 70.3872 125.927 70.6051 125.977C70.7864 125.644 70.9677 125.312 71.1544 124.969C71.7038 123.962 71.7038 123.962 72.3629 123.633C72.7973 123.598 73.2332 123.581 73.6688 123.573C73.9423 123.567 74.2157 123.561 74.4974 123.555C74.7968 123.55 75.0962 123.545 75.4048 123.54C75.7171 123.534 76.0295 123.528 76.3513 123.521C77.3778 123.502 78.4043 123.485 79.4308 123.468C79.779 123.462 80.1271 123.456 80.4858 123.45C82.6173 123.414 84.7488 123.382 86.8804 123.354C87.5312 123.345 88.1819 123.336 88.8326 123.326C90.4916 123.302 92.1505 123.283 93.8097 123.272C94.3023 123.268 94.7948 123.263 95.2873 123.257C100.612 123.189 100.612 123.189 103.088 124.75C104.396 126.097 104.875 127.631 104.882 129.492C104.748 131.016 104.247 132.261 103.186 133.372C100.101 135.825 95.8993 137.089 92.299 138.631C89.6068 139.786 86.9651 141.013 84.3747 142.383C84.7509 143.433 85.18 144.236 85.8944 145.093C86.0557 145.294 86.2169 145.495 86.3831 145.702C87.2595 146.385 87.9614 146.392 89.0622 146.484C90.0313 146.372 90.0313 146.372 91.0237 146.124C91.2128 146.081 91.4018 146.038 91.5967 145.994C92.2297 145.849 92.8614 145.7 93.4933 145.551C93.946 145.446 94.3987 145.343 94.8516 145.239C95.8629 145.008 96.8738 144.774 97.8844 144.539C100.856 143.851 103.831 143.182 106.806 142.509C107.835 142.276 108.863 142.042 109.892 141.808C110.38 141.697 110.38 141.697 110.878 141.584C111.488 141.445 112.097 141.307 112.707 141.168C114.045 140.864 115.386 140.566 116.729 140.284C116.957 140.237 117.184 140.189 117.418 140.139C118.525 139.968 119.317 140.054 120.41 140.332C121.671 141.452 122.693 142.772 123.742 144.086C125.041 145.698 126.353 147.286 127.734 148.828C127.919 149.043 128.104 149.259 128.295 149.48C130.799 152.371 133.882 155.09 137.207 157.01C137.988 157.617 137.988 157.617 138.304 158.441C138.275 159.616 137.884 160.421 137.329 161.426C137.111 161.841 136.893 162.256 136.675 162.671C136.557 162.894 136.438 163.117 136.316 163.346C135.627 164.649 134.968 165.967 134.308 167.285C134.17 167.558 134.033 167.831 133.891 168.112C132.961 169.973 132.092 171.852 131.306 173.779C130.921 174.705 130.596 175.46 129.785 176.074C129.017 176.33 128.478 176.422 127.685 176.472C127.447 176.491 127.209 176.51 126.964 176.53C126.47 176.567 125.976 176.601 125.481 176.63C123.395 176.808 121.895 177.519 120.41 179.004C120.044 179.735 120.03 180.248 120.117 181.055C120.675 181.613 121.67 181.397 122.41 181.404C122.619 181.407 122.828 181.409 123.044 181.411C123.739 181.419 124.434 181.424 125.129 181.428C125.366 181.429 125.604 181.431 125.848 181.432C127.103 181.44 128.359 181.446 129.614 181.45C130.911 181.455 132.208 181.468 133.504 181.483C134.501 181.493 135.498 181.496 136.495 181.498C136.973 181.5 137.451 181.504 137.929 181.511C138.598 181.521 139.268 181.521 139.938 181.519C140.509 181.522 140.509 181.522 141.092 181.526C142.35 181.301 142.761 180.861 143.554 179.883C143.939 179.224 144.276 178.592 144.598 177.905C144.694 177.708 144.789 177.511 144.888 177.308C145.228 176.605 145.563 175.9 145.898 175.195C146.188 174.591 146.478 173.987 146.769 173.383C147.223 172.438 147.677 171.493 148.128 170.547C149.003 168.714 149.899 166.894 150.819 165.084C152.096 162.444 151.652 158.915 150.879 156.152C150.02 153.988 148.291 152.859 146.484 151.465C144.95 150.274 143.773 148.949 142.562 147.429C141.503 146.106 140.377 144.839 139.26 143.566C139.103 143.387 138.947 143.208 138.786 143.024C138.646 142.865 138.506 142.706 138.362 142.542C137.737 141.787 137.413 141.318 137.31 140.332C137.402 139.453 137.402 139.453 137.713 138.885C138.646 138.374 139.321 138.624 140.332 138.867C140.99 139.381 141.497 139.837 142.053 140.442C142.28 140.679 142.28 140.679 142.512 140.921C143.679 142.153 144.74 143.461 145.799 144.787C147.529 146.853 149.448 148.735 151.593 150.366C153.699 151.999 154.676 153.873 155.081 156.518C155.166 157.22 155.241 157.921 155.31 158.624C155.335 158.867 155.36 159.109 155.386 159.358C155.448 159.95 155.507 160.541 155.566 161.133C158.073 161.615 160.568 161.865 163.115 162.013C163.719 162.049 164.323 162.087 164.927 162.125C166.692 162.234 168.445 162.318 170.214 162.305C170.606 161.523 170.425 161.174 170.233 160.327C169.22 154.999 170.253 149.859 173.144 145.312C173.946 144.241 174.813 143.305 175.781 142.383C175.985 142.18 176.19 141.976 176.4 141.767C178.381 139.891 180.958 137.762 183.728 137.347C184.863 137.402 184.863 137.402 185.374 137.791C185.742 138.281 185.742 138.281 185.724 139.142C185.172 140.942 183.522 141.746 182.025 142.731C178.06 145.427 175.162 148.626 174.17 153.461C174.107 153.966 174.058 154.473 174.023 154.98C174.003 155.234 173.983 155.488 173.962 155.75C173.74 161.407 176.418 166.761 180.182 170.86C180.46 171.157 180.46 171.157 180.743 171.46C181.689 172.5 181.904 173.213 181.933 174.609C180.608 175.58 179.36 175.712 177.777 175.909C174.474 176.387 171.49 177.088 169.336 179.883C169.296 180.641 169.296 180.641 169.336 181.348C172.949 181.368 176.563 181.384 180.177 181.393C181.854 181.398 183.532 181.404 185.21 181.414C186.829 181.423 188.447 181.429 190.065 181.431C190.684 181.433 191.302 181.436 191.92 181.441C192.785 181.447 193.649 181.448 194.513 181.447C194.77 181.451 195.027 181.454 195.292 181.457C196.566 181.492 196.566 181.492 197.671 180.954C198.151 180.334 198.205 179.843 198.161 179.068C197.252 173.903 193.815 168.703 191.454 164.072C190.399 161.993 189.534 160.287 189.843 157.91C190.58 155.7 192.504 154.455 194.502 153.436C194.705 153.335 194.908 153.235 195.117 153.131C197.235 152.048 199.276 150.874 201.305 149.634C202.484 148.917 203.097 148.714 204.492 148.828C205.059 149.139 205.059 149.139 205.371 149.707C205.481 150.648 205.495 150.942 205.078 151.758C203.283 153.51 200.912 154.68 198.723 155.868C197.576 156.49 197.576 156.49 196.582 157.324C196.779 157.359 196.976 157.395 197.18 157.431C204.053 158.676 210.345 160.036 214.718 165.995C218.315 171.477 220.437 177.591 219.122 184.167C217.702 189.542 214.273 193.777 209.573 196.661C204.323 199.378 198.697 200.45 192.829 200.444C192.471 200.444 192.113 200.444 191.744 200.444C187.867 200.418 184.019 200.135 180.157 199.823C176.015 199.495 171.877 199.187 167.725 199.023C167.409 199.01 167.093 198.997 166.767 198.983C159.13 198.714 150.389 199.839 144.433 205.078C142.948 206.778 142.948 206.778 142.382 208.887C143.29 208.588 144.191 208.282 145.088 207.954C153.583 204.924 162.751 205.527 171.529 206.921C174.298 207.36 177.072 207.764 179.846 208.173C180.15 208.217 180.454 208.262 180.768 208.309C194.549 210.333 209.652 212.512 221.704 203.851C222.322 203.39 222.929 202.918 223.535 202.441C223.738 202.289 223.94 202.136 224.149 201.979C229.772 197.522 233.46 189.593 234.292 182.579C234.679 177.642 234.508 172.72 233.496 167.871C233.45 167.649 233.405 167.427 233.358 167.199C229.974 151.41 218.963 135.743 206.25 125.977C205.938 125.724 205.628 125.471 205.318 125.218C196.796 118.292 186.821 113.466 176.11 111.09C175.853 111.033 175.596 110.976 175.331 110.917C171.065 110.024 166.869 109.745 162.524 109.753C162.262 109.753 162.001 109.753 161.731 109.753C155.439 109.762 149.218 110.356 142.968 111.035C142.529 111.082 142.089 111.13 141.649 111.177C139.453 111.412 139.453 111.412 137.257 111.661C131.891 112.274 131.891 112.274 129.785 111.035C128.747 110.092 128.123 109.124 127.937 107.714C127.786 104.298 128.852 101.159 129.785 97.9065C130.038 97.0164 130.289 96.126 130.537 95.2345C130.691 94.6835 130.847 94.1333 131.007 93.5841C131.444 92.0222 131.622 90.6847 131.543 89.0625C130.741 88.5543 130.741 88.5543 129.829 88.5963ZM70.0192 142.09C70.0192 142.283 70.0192 142.477 70.0192 142.676C69.8258 142.676 69.6325 142.676 69.4332 142.676C66.5375 146.156 65.1274 149.927 65.2287 154.46C65.4933 157.303 66.6032 159.826 67.9684 162.305C68.0651 162.305 68.1618 162.305 68.2614 162.305C68.2568 162.143 68.2522 161.981 68.2474 161.814C68.0927 155.509 68.6246 149.719 73.0587 144.873C73.595 144.319 74.1452 143.791 74.7067 143.262C75.0341 142.948 75.0341 142.948 75.3681 142.628C78.1755 140.173 81.8264 138.527 85.2536 137.109C85.2536 137.013 85.2536 136.916 85.2536 136.816C79.8239 136.394 74.1011 138.518 70.0192 142.09Z" fill="black"/>
<path d="M184.278 119.531C184.639 119.658 185 119.786 185.373 119.917C187.946 120.9 187.946 120.9 188.672 122.461C188.652 123.456 188.551 123.997 187.94 124.786C185.872 125.665 183.321 124.423 181.348 123.706C176.341 121.966 171.137 120.791 165.821 120.703C165.514 120.692 165.207 120.68 164.891 120.669C158.998 120.542 153.169 121.473 147.374 122.425C142.986 123.137 142.986 123.137 141.797 122.79C141.013 121.958 140.952 121.274 140.816 120.163C140.918 119.531 140.918 119.531 141.399 119.08C142.226 118.568 142.926 118.404 143.88 118.213C144.237 118.141 144.593 118.069 144.961 117.994C145.347 117.92 145.733 117.847 146.118 117.773C146.314 117.735 146.51 117.697 146.712 117.658C159.582 115.161 171.806 115.13 184.278 119.531Z" fill="black"/>
<path d="M103.784 103.748C105.211 104.712 105.807 105.896 106.348 107.52C106.498 109.468 106.003 110.771 104.974 112.409C103.801 113.582 102.459 114.309 100.781 114.404C99.0461 114.302 97.5782 113.531 96.4235 112.244C95.29 110.577 95.0944 109.311 95.3511 107.342C95.7531 105.544 96.991 104.46 98.4376 103.418C100.314 102.521 102.022 102.755 103.784 103.748Z" fill="black"/>
<path d="M78.2043 114.551C78.6978 115.48 78.7142 116.466 78.5156 117.48C78.1883 118.124 78.1883 118.124 77.6367 118.652C76.7487 118.862 76.7487 118.862 75.7324 118.927C75.3971 118.954 75.0617 118.981 74.7162 119.008C73.8281 118.945 73.8281 118.945 73.288 118.569C72.7131 117.716 72.6562 117.032 72.6562 116.016C73.3033 115.14 73.7818 114.667 74.8169 114.313C77.3874 114.129 77.3874 114.129 78.2043 114.551Z" fill="black"/>
</svg>
