<svg width="300" height="300" viewBox="0 0 300 300" fill="none" xmlns="http://www.w3.org/2000/svg">
<path d="M148.936 61.4251C150.075 61.4321 151.214 61.4312 152.353 61.4292C153.09 61.4309 153.827 61.4329 154.564 61.4355C154.898 61.4352 155.232 61.435 155.576 61.4347C163.498 61.5032 170.326 64.0476 176.056 69.6169C177.065 70.6605 177.912 71.7387 178.711 72.9494C179.967 72.7766 181.053 72.4746 182.229 72.0053C182.564 71.8727 182.898 71.7402 183.243 71.6036C183.596 71.4616 183.95 71.3196 184.314 71.1733C184.683 71.027 185.051 70.8809 185.42 70.735C187.078 70.0777 188.732 69.4115 190.381 68.73C195.784 66.5004 201.701 64.8664 207.422 67.09C214.389 70.1986 217.649 75.5705 221.037 82.0585C221.675 83.2737 222.336 84.4759 223.004 85.6752C223.182 85.9946 223.182 85.9946 223.363 86.3203C224.157 87.7413 224.975 89.146 225.806 90.5458C227.059 92.661 228.279 94.7943 229.486 96.9362C229.658 97.2391 229.83 97.542 230.007 97.8541C233.131 103.419 234.951 109.026 233.228 115.38C231.652 119.985 228.813 123.501 224.996 126.463C223.936 127.294 222.921 128.169 221.906 129.053C221.718 129.216 221.53 129.38 221.336 129.548C220.025 130.69 218.728 131.846 217.441 133.014C216.831 133.564 216.211 134.102 215.589 134.638C214.801 135.321 214.063 136.032 213.336 136.78C211.949 138.184 210.435 139.404 208.887 140.625C208.602 140.857 208.317 141.088 208.023 141.327C205.875 143.019 203.512 144.727 200.684 144.727C200.779 145.012 200.779 145.012 200.876 145.302C202.732 151.841 201.28 159.011 200.358 165.61C200.183 166.87 200.013 168.131 199.843 169.392C199.519 171.793 199.189 174.194 198.858 176.594C198.492 179.244 198.132 181.895 197.772 184.547C196.624 193.009 195.457 201.468 194.282 209.926C194.248 210.168 194.214 210.41 194.18 210.659C193.861 212.952 193.542 215.245 193.221 217.538C192.396 223.447 191.601 229.358 190.877 235.279C190.672 236.413 190.486 237.278 189.619 238.072C188.849 238.548 188.421 238.588 187.521 238.59C187.086 238.595 187.086 238.595 186.642 238.599C186.325 238.598 186.008 238.596 185.682 238.595C185.179 238.598 185.179 238.598 184.667 238.601C183.558 238.607 182.449 238.605 181.34 238.604C180.57 238.605 179.8 238.607 179.03 238.608C177.416 238.611 175.801 238.61 174.187 238.607C172.322 238.604 170.457 238.608 168.592 238.616C166.797 238.623 165.002 238.624 163.206 238.622C162.443 238.622 161.679 238.624 160.916 238.628C159.849 238.632 158.783 238.629 157.716 238.624C157.4 238.627 157.084 238.629 156.758 238.632C155.481 238.62 154.613 238.587 153.462 238.005C152.745 237.061 152.771 236.503 152.818 235.326C152.824 235.133 152.83 234.94 152.837 234.741C152.859 234.13 152.893 233.521 152.93 232.91C152.95 232.535 152.971 232.159 152.992 231.772C153.067 230.597 153.156 229.425 153.25 228.251C153.283 227.824 153.316 227.397 153.349 226.97C153.434 225.861 153.521 224.753 153.609 223.645C153.698 222.508 153.786 221.371 153.874 220.233C154.046 218.013 154.219 215.794 154.395 213.574C154.103 213.73 154.103 213.73 153.806 213.889C153.547 214.024 153.289 214.158 153.023 214.297C152.768 214.431 152.513 214.565 152.251 214.703C151.012 215.233 149.848 215.313 148.535 215.039C148.076 214.848 147.62 214.648 147.167 214.443C146.93 214.336 146.692 214.228 146.447 214.118C146.266 214.035 146.085 213.953 145.899 213.867C146.08 218.532 146.444 223.164 146.879 227.811C147.684 236.473 147.684 236.473 146.973 237.668C146.356 238.319 145.853 238.462 144.966 238.515C144.716 238.516 144.466 238.517 144.208 238.518C143.777 238.52 143.777 238.52 143.337 238.523C143.022 238.523 142.707 238.524 142.383 238.524C142.05 238.525 141.718 238.527 141.376 238.528C140.275 238.533 139.174 238.535 138.073 238.536C137.309 238.538 136.546 238.54 135.782 238.541C134.384 238.544 132.987 238.546 131.59 238.547C129.534 238.548 127.478 238.553 125.422 238.562C123.64 238.569 121.859 238.571 120.077 238.572C119.32 238.572 118.562 238.575 117.804 238.579C116.745 238.584 115.686 238.583 114.627 238.581C114.156 238.585 114.156 238.585 113.676 238.589C113.387 238.588 113.098 238.586 112.8 238.584C112.424 238.585 112.424 238.585 112.041 238.586C111.122 238.445 110.594 238.172 109.863 237.598C108.388 234.343 108.397 229.854 107.921 226.348C107.818 225.595 107.714 224.842 107.611 224.089C107.359 222.264 107.11 220.439 106.862 218.613C106.572 216.485 106.28 214.357 105.987 212.229C105.466 208.432 104.947 204.634 104.428 200.836C103.926 197.155 103.422 193.474 102.918 189.794C102.886 189.567 102.855 189.34 102.823 189.106C102.698 188.193 102.573 187.281 102.448 186.369C101.49 179.377 100.532 172.386 99.5769 165.394C99.4769 164.662 99.3769 163.93 99.2768 163.199C99.1402 162.2 99.0037 161.201 98.8673 160.202C98.8278 159.912 98.7882 159.623 98.7474 159.325C98.0692 154.353 97.6607 149.626 99.0236 144.727C98.661 144.672 98.2985 144.618 97.9249 144.562C92.2228 143.275 87.3453 137.493 83.3828 133.474C82.4847 132.589 81.5257 131.775 80.5665 130.957C80.2754 130.709 79.9842 130.46 79.6842 130.204C78.1879 128.932 76.685 127.675 75.1466 126.453C70.6708 122.774 67.0077 118.805 66.2111 112.793C65.7473 107.519 66.9145 103.329 69.4337 98.7307C69.5785 98.4647 69.7234 98.1986 69.8726 97.9246C71.9195 94.18 74.0637 90.5029 76.2832 86.8584C77.633 84.6241 78.8738 82.3446 80.0905 80.0356C81.4373 77.4967 82.7475 75.1067 84.6681 72.9494C84.9098 72.6726 85.1515 72.3958 85.4005 72.1106C88.6316 68.64 92.8269 66.3498 97.6217 66.1413C98.0828 66.1324 98.544 66.1252 99.0052 66.1196C99.226 66.1111 99.4467 66.1026 99.6742 66.0938C104.343 66.0438 108.737 68.296 112.94 70.0747C113.808 70.4415 114.676 70.8074 115.546 71.1705C116.083 71.3945 116.619 71.6206 117.153 71.8493C118.538 72.4273 119.78 72.8966 121.289 72.9494C121.922 72.3811 122.326 71.9249 122.809 71.2465C127.051 65.7993 133.12 62.7012 139.88 61.6974C142.88 61.3277 145.919 61.4055 148.936 61.4251ZM127.706 74.3113C123.732 79.224 122.247 84.5439 121.369 90.6923C120.909 93.8597 120.424 97.0227 119.927 100.185C119.689 101.706 119.453 103.228 119.217 104.75C119.014 106.054 118.81 107.359 118.603 108.663C118.399 109.95 118.199 111.237 118.001 112.525C117.926 113.008 117.85 113.492 117.772 113.974C116.841 119.769 117.574 124.576 120.996 129.492C125.053 134.979 130.424 138.346 136.736 140.748C137.736 141.231 138.018 141.457 138.574 142.383C138.774 143.188 138.774 143.188 138.896 144.107C138.942 144.446 138.988 144.785 139.035 145.135C139.237 146.838 139.417 148.542 139.58 150.25C139.618 150.641 139.656 151.032 139.694 151.423C139.797 152.477 139.899 153.531 140 154.585C140.108 155.709 140.217 156.832 140.326 157.956C140.51 159.854 140.694 161.752 140.876 163.65C141.106 166.034 141.337 168.418 141.568 170.801C141.726 172.432 141.884 174.063 142.041 175.694C142.153 176.845 142.264 177.995 142.376 179.146C142.792 183.424 143.208 187.701 143.58 191.982C143.706 193.438 143.835 194.894 143.965 196.35C144.05 197.33 144.13 198.31 144.21 199.291C144.262 199.876 144.314 200.462 144.366 201.048C144.395 201.436 144.395 201.436 144.424 201.831C144.651 204.255 145.473 206.125 147.363 207.715C148.813 208.888 148.813 208.888 150.586 209.088C152.63 207.938 154.389 206.738 155.274 204.492C155.395 203.799 155.491 203.102 155.571 202.402C155.595 202.197 155.618 201.992 155.643 201.781C155.718 201.123 155.789 200.464 155.859 199.805C155.882 199.594 155.905 199.382 155.928 199.165C156.097 197.574 156.255 195.982 156.411 194.391C156.463 193.867 156.515 193.344 156.567 192.821C156.706 191.418 156.844 190.015 156.982 188.612C157.068 187.734 157.155 186.855 157.242 185.977C158.196 176.314 159.119 166.648 160.017 156.98C160.11 155.977 160.204 154.975 160.297 153.972C160.36 153.3 160.422 152.628 160.484 151.956C160.578 150.93 160.677 149.905 160.778 148.879C160.821 148.434 160.863 147.988 160.903 147.542C160.968 146.828 161.038 146.115 161.108 145.401C161.127 145.184 161.145 144.967 161.165 144.743C161.303 143.395 161.598 142.369 162.305 141.211C162.931 140.811 162.931 140.811 163.656 140.555C163.923 140.456 164.19 140.356 164.466 140.253C164.75 140.153 165.033 140.052 165.326 139.948C172.561 137.176 178.19 132.426 181.456 125.35C183.449 120.78 182.737 116.535 181.957 111.784C181.867 111.228 181.778 110.672 181.689 110.116C181.455 108.655 181.218 107.195 180.98 105.735C180.742 104.274 180.507 102.812 180.272 101.35C180 99.6572 179.727 97.9643 179.451 96.2718C179.075 93.9608 178.701 91.65 178.346 89.3357C178.293 88.997 178.241 88.6582 178.187 88.3092C178.096 87.7187 178.007 87.1278 177.92 86.5367C177.126 81.3958 174.759 76.9268 171.094 73.2424C170.834 72.9676 170.834 72.9676 170.57 72.6873C169.369 71.5157 168.013 70.7307 166.535 69.9648C166.357 69.8707 166.18 69.7766 165.997 69.6797C162.57 67.9917 159.058 67.4975 155.282 67.5306C154.877 67.5306 154.473 67.5301 154.069 67.5293C153.229 67.5289 152.39 67.5325 151.551 67.5393C150.488 67.5476 149.425 67.5468 148.361 67.5431C147.529 67.541 146.697 67.5433 145.865 67.547C145.286 67.5489 144.707 67.5477 144.129 67.5463C137.883 67.6107 132.046 69.7045 127.706 74.3113ZM90.8204 75.0002C90.5727 75.2238 90.3249 75.4473 90.0697 75.6777C88.2912 77.6386 86.9018 79.6902 85.6752 82.0314C85.3711 82.5997 85.0667 83.1677 84.7619 83.7355C84.5253 84.178 84.5253 84.178 84.2839 84.6294C82.3717 88.1767 80.4122 91.7079 78.3326 95.1601C78.2326 95.3264 78.1325 95.4928 78.0294 95.6641C77.417 96.676 76.7912 97.6786 76.1606 98.6792C73.2029 103.414 71.1641 107.825 72.265 113.504C72.8645 115.555 73.8596 117.085 75.2931 118.653C75.4498 118.826 75.6065 118.999 75.768 119.178C76.9751 120.443 78.3231 121.527 79.6819 122.624C83.1824 125.458 86.502 128.473 89.7775 131.563C90.6264 132.364 91.4764 133.163 92.327 133.961C92.7764 134.384 93.2245 134.808 93.6723 135.232C96.6317 137.965 99.4177 139.326 103.484 139.274C105.074 139.111 106.204 138.573 107.52 137.696C107.786 137.532 108.051 137.369 108.325 137.201C111.811 133.619 111.691 129.105 111.645 124.452C111.595 116.083 112.875 108.015 114.273 99.7947C114.691 97.3328 115.081 94.8684 115.442 92.3975C115.487 92.0927 115.532 91.7879 115.579 91.4739C115.83 89.777 115.83 89.777 116.075 88.0793C116.538 84.8452 117.203 81.8722 118.359 78.8088C118.159 78.7253 117.958 78.6419 117.751 78.5559C116.041 77.8448 114.333 77.1293 112.627 76.409C112.043 76.1628 111.459 75.9167 110.875 75.6706C110.481 75.5042 110.086 75.3375 109.692 75.1705C103.512 72.5547 96.5562 69.7458 90.8204 75.0002ZM190.119 75.1284C189.2 75.5198 188.281 75.9098 187.362 76.2991C187.144 76.3916 186.926 76.4841 186.701 76.5794C185.034 77.2828 183.352 77.9287 181.641 78.5158C181.822 79.0596 181.822 79.0596 182.007 79.6145C182.447 81.0888 182.771 82.5721 183.071 84.0798C183.122 84.3353 183.173 84.5908 183.225 84.8541C183.81 87.8449 184.286 90.8519 184.757 93.8623C184.853 94.471 184.949 95.0796 185.045 95.6882C185.245 96.951 185.443 98.214 185.641 99.4771C185.894 101.089 186.149 102.701 186.404 104.313C186.602 105.565 186.799 106.817 186.996 108.068C187.089 108.663 187.183 109.257 187.277 109.852C187.408 110.682 187.538 111.512 187.668 112.342C187.706 112.583 187.744 112.823 187.784 113.071C188.188 115.673 188.424 118.224 188.377 120.857C188.372 121.379 188.367 121.9 188.362 122.422C188.353 123.229 188.342 124.035 188.329 124.842C188.258 129.267 188.316 133.254 191.309 136.817C193.527 138.712 195.712 139.407 198.618 139.307C202.867 138.942 206.334 135.34 209.152 132.452C209.877 131.724 210.641 131.06 211.421 130.392C212.152 129.748 212.862 129.085 213.572 128.418C215.208 126.882 216.866 125.405 218.617 123.998C220.185 122.735 221.72 121.436 223.242 120.117C223.47 119.926 223.698 119.734 223.932 119.536C226.259 117.43 227.775 114.363 228 111.237C228.114 105.562 225.484 101.22 222.615 96.5081C221.456 94.5999 220.342 92.6662 219.232 90.729C219.082 90.4667 219.082 90.4667 218.928 90.1991C217.812 88.2496 216.715 86.2918 215.665 84.3054C215.485 83.9662 215.306 83.627 215.121 83.2775C214.785 82.6393 214.452 81.9996 214.122 81.3582C212.07 77.451 209.416 74.1298 205.173 72.566C203.805 72.159 202.533 72.0168 201.105 71.9973C200.615 71.9859 200.615 71.9859 200.115 71.9744C196.577 72.1479 193.321 73.7534 190.119 75.1284ZM116.602 133.301C116.447 133.731 116.447 133.731 116.289 134.17C115.417 136.517 114.515 138.47 112.793 140.332C112.634 140.515 112.474 140.697 112.31 140.885C110.658 142.673 108.667 143.846 106.384 144.654C105.259 145.127 104.909 145.618 104.443 146.741C103.163 150.522 103.936 154.633 104.517 158.493C104.611 159.123 104.704 159.754 104.795 160.384C104.933 161.329 105.072 162.273 105.211 163.217C105.607 165.907 105.995 168.598 106.382 171.29C106.425 171.588 106.468 171.886 106.512 172.193C107.353 178.047 108.155 183.907 108.95 189.767C108.981 189.995 109.012 190.222 109.044 190.456C109.668 195.059 110.29 199.662 110.91 204.266C111.148 206.028 111.386 207.789 111.624 209.551C111.762 210.577 111.901 211.603 112.038 212.63C112.737 217.834 113.474 223.031 114.258 228.223C114.46 227.954 114.46 227.954 114.666 227.679C115.163 227.016 115.66 226.354 116.162 225.696C116.334 225.469 116.507 225.241 116.684 225.007C117.188 224.414 117.188 224.414 118.067 223.828C118.104 223.095 118.085 222.448 118.019 221.722C118.002 221.502 117.986 221.282 117.969 221.055C117.732 218.073 117.398 215.099 117.069 212.126C116.997 211.473 116.926 210.82 116.855 210.168C116.704 208.784 116.552 207.401 116.399 206.018C116.2 204.216 116.003 202.414 115.806 200.612C115.068 193.865 114.323 187.119 113.535 180.377C113.44 179.564 113.345 178.751 113.25 177.938C112.903 174.954 112.903 174.954 112.548 171.971C111.076 159.799 112.686 152.93 118.849 142.288C119.661 140.881 120.398 139.5 120.996 137.988C120.484 137.427 119.971 136.865 119.458 136.304C119.242 136.067 119.242 136.067 119.022 135.826C118.234 134.964 117.436 134.119 116.602 133.301ZM183.106 133.594C182.676 134.05 182.257 134.516 181.842 134.986C180.517 136.484 180.517 136.484 179.779 137.096C179.213 137.673 179.213 137.673 179.295 138.508C179.655 139.661 180.191 140.651 180.798 141.687C181.063 142.153 181.328 142.62 181.592 143.087C181.738 143.345 181.884 143.603 182.035 143.868C182.875 145.356 183.702 146.851 184.518 148.352C184.8 148.867 185.085 149.381 185.371 149.894C187.16 153.19 188.499 156.248 188.472 160.022C188.47 160.286 188.469 160.551 188.468 160.823C188.408 164.523 187.933 168.189 187.5 171.86C187.407 172.668 187.315 173.476 187.223 174.284C187.029 175.988 186.832 177.691 186.634 179.394C186.352 181.816 186.075 184.24 185.8 186.663C184.959 194.062 184.108 201.46 183.215 208.854C183.035 210.347 182.86 211.842 182.684 213.336C182.53 214.647 182.368 215.957 182.2 217.267C182.125 217.863 182.054 218.459 181.984 219.056C181.902 219.754 181.815 220.452 181.72 221.148C181.489 222.922 181.489 222.922 182.329 224.441C182.585 224.626 182.841 224.81 183.106 225C183.42 225.389 183.727 225.786 184.021 226.19C184.161 226.381 184.301 226.572 184.445 226.768C184.583 226.958 184.721 227.148 184.863 227.344C185.156 227.735 185.449 228.125 185.742 228.516C187.271 217.319 188.798 206.123 190.316 194.925C190.418 194.171 190.52 193.417 190.622 192.662C190.692 192.151 190.761 191.64 190.83 191.128C191.298 187.684 191.767 184.239 192.238 180.795C192.588 178.234 192.937 175.673 193.286 173.111C193.497 171.558 193.71 170.005 193.923 168.452C194.123 166.99 194.323 165.528 194.521 164.065C194.594 163.531 194.667 162.996 194.741 162.461C195.129 159.65 195.48 156.837 195.763 154.012C195.79 153.76 195.816 153.507 195.844 153.247C196.116 150.401 195.971 147.421 194.238 145.02C193.532 144.489 192.782 144.165 191.968 143.83C187.29 141.687 185.234 138.259 183.399 133.594C183.302 133.594 183.205 133.594 183.106 133.594ZM125.391 142.09C125.252 142.346 125.252 142.346 125.11 142.607C124.673 143.412 124.235 144.216 123.798 145.02C123.638 145.313 123.479 145.606 123.315 145.908C122.476 147.447 121.628 148.98 120.759 150.502C119.047 153.503 117.636 156.205 117.188 159.668C121.594 158.805 125.005 156.614 127.68 152.967C129.184 150.69 130.554 148.092 130.516 145.3C130.327 144.552 130.061 144.355 129.431 143.921C129.029 143.692 128.622 143.473 128.211 143.262C128.006 143.147 127.801 143.032 127.59 142.913C126.552 142.299 126.552 142.299 125.391 142.09ZM172.138 143.225C171.966 143.332 171.794 143.439 171.617 143.549C170.849 144.029 170.09 144.517 169.336 145.02C169.721 149.557 172.158 153.457 175.488 156.446C177.467 158.007 180.206 159.668 182.813 159.668C182.42 154.479 179.035 149.906 176.515 145.501C175.871 144.369 175.239 143.23 174.609 142.09C173.648 142.09 172.93 142.725 172.138 143.225ZM133.594 154.688C133.093 155.301 132.618 155.919 132.147 156.555C128.292 161.577 123.788 164.107 117.774 165.821C117.944 168.686 118.186 171.53 118.511 174.383C118.556 174.778 118.6 175.174 118.644 175.569C118.739 176.412 118.834 177.255 118.93 178.098C119.083 179.444 119.234 180.79 119.385 182.136C119.626 184.278 119.867 186.42 120.109 188.561C122.729 211.753 122.729 211.753 123.415 218.152C123.464 218.605 123.513 219.057 123.563 219.51C124.179 225.154 124.179 225.154 123.651 226.666C123.046 227.345 122.516 227.695 121.747 228.168C120.401 229.016 119.683 229.91 119.238 231.445C119.238 231.832 119.238 232.219 119.238 232.617C122.042 232.617 124.846 232.617 127.734 232.617C128.025 232.037 128.315 231.457 128.613 230.86C129.17 230.052 129.487 229.982 130.463 229.724C131.72 229.682 132.261 229.873 133.301 230.567C133.899 231.229 134.368 231.821 134.766 232.617C136.796 232.617 138.826 232.617 140.918 232.617C140.951 230.239 140.828 227.914 140.615 225.546C140.566 224.986 140.566 224.986 140.516 224.414C140.427 223.39 140.336 222.366 140.245 221.342C140.148 220.244 140.052 219.146 139.956 218.048C139.769 215.924 139.581 213.8 139.392 211.676C139.24 209.964 139.089 208.251 138.938 206.539C137.413 189.25 135.826 171.966 134.18 154.688C133.986 154.688 133.793 154.688 133.594 154.688ZM166.113 154.688C163.321 183.156 163.321 183.156 160.691 211.639C160.621 212.427 160.551 213.216 160.48 214.005C159.925 220.204 159.451 226.404 159.082 232.617C161.209 232.617 163.336 232.617 165.527 232.617C165.818 232.037 166.108 231.457 166.406 230.86C167.187 230.135 167.746 229.724 168.823 229.63C170.028 229.698 170.623 229.812 171.515 230.658C171.887 231.298 172.228 231.956 172.559 232.617C175.169 232.617 177.779 232.617 180.469 232.617C180.183 230.448 180.183 230.448 179.004 228.809C178.339 228.334 177.664 227.902 176.96 227.488C176.267 226.977 176.081 226.683 175.781 225.879C175.771 225.027 175.771 225.027 175.86 224.039C175.892 223.672 175.924 223.306 175.958 222.929C176.15 221.031 176.356 219.136 176.578 217.242C176.628 216.804 176.679 216.366 176.729 215.928C176.866 214.75 177.003 213.571 177.14 212.393C177.285 211.148 177.429 209.903 177.573 208.658C177.846 206.297 178.12 203.935 178.394 201.574C178.794 198.134 179.193 194.694 179.591 191.254C179.651 190.74 179.71 190.225 179.77 189.711C179.814 189.333 179.814 189.333 179.858 188.948C180.029 187.477 180.199 186.007 180.37 184.537C180.627 182.323 180.884 180.109 181.138 177.895C181.253 176.893 181.369 175.89 181.486 174.887C181.613 173.792 181.739 172.697 181.864 171.602C181.92 171.126 181.92 171.126 181.977 170.641C182.16 169.022 182.265 167.45 182.227 165.821C181.883 165.714 181.54 165.608 181.186 165.498C175.099 163.569 170.56 160.605 166.876 155.321C166.721 155.112 166.566 154.903 166.406 154.688C166.31 154.688 166.213 154.688 166.113 154.688Z" fill="black"/>
<path d="M132.77 108.142C134.01 108.969 134.871 109.886 135.352 111.328C135.518 113.006 135.423 114.281 134.473 115.723C133.502 116.877 132.741 117.487 131.25 117.773C129.569 117.826 128.299 117.507 126.985 116.438C125.963 115.416 125.633 114.385 125.556 112.976C125.611 111.553 126.008 110.423 126.856 109.277C128.688 107.818 130.544 107.356 132.77 108.142Z" fill="black"/>
<path d="M171.136 108.016C172.55 108.641 173.283 109.351 174.023 110.742C174.498 112.167 174.43 113.303 173.986 114.734C173.208 116.136 172.066 117.254 170.507 117.773C168.765 117.974 167.54 117.563 166.113 116.602C164.774 115.194 164.524 113.991 164.548 112.101C164.74 110.616 165.46 109.545 166.584 108.579C168.049 107.618 169.512 107.49 171.136 108.016Z" fill="black"/>
</svg>
