<svg width="300" height="300" viewBox="0 0 300 300" fill="none" xmlns="http://www.w3.org/2000/svg">
<path d="M200.391 38.6719C200.391 39.879 199.765 40.5235 199.073 41.4551C198.941 41.6355 198.81 41.8158 198.674 42.0017C198.404 42.3722 198.132 42.7421 197.86 43.1113C197.486 43.6189 197.115 44.1283 196.745 44.6388C196.204 45.3853 195.662 46.1306 195.118 46.875C197.072 46.1242 198.956 45.2908 200.825 44.3481C201.202 44.1597 201.202 44.1597 201.586 43.9675C202.112 43.7041 202.637 43.4402 203.163 43.1757C203.962 42.7732 204.763 42.3726 205.563 41.9724C206.078 41.7146 206.592 41.4567 207.106 41.1987C207.342 41.0803 207.579 40.9618 207.822 40.8398C208.877 40.308 209.909 39.7642 210.921 39.1548C211.217 38.9954 211.513 38.8361 211.817 38.6719C212.01 38.7686 212.204 38.8652 212.403 38.9648C211.243 41.5752 210.083 44.1855 208.887 46.875C211.749 46.4055 211.749 46.4055 214.553 45.7832C214.919 45.6926 215.284 45.602 215.661 45.5086C216.224 45.3667 216.788 45.2248 217.352 45.0823C217.908 44.9422 218.465 44.8042 219.021 44.6663C219.51 44.543 219.51 44.543 220.009 44.4172C220.899 44.2383 220.899 44.2383 222.364 44.2383C221.494 46.7036 221.494 46.7036 220.606 49.2188C221.306 49.093 222.007 48.9672 222.728 48.8377C225.39 48.3651 228.059 47.9355 230.731 47.5225C231.492 47.4045 232.253 47.2842 233.014 47.164C233.505 47.0877 233.996 47.0116 234.488 46.9357C234.712 46.9 234.935 46.8643 235.166 46.8275C236.482 46.6271 237.732 46.5481 239.063 46.582C237.878 47.8072 236.617 48.9387 235.344 50.0725C234.809 50.5566 234.297 51.0502 233.79 51.5625C234.002 51.5732 234.215 51.584 234.434 51.595C237.319 51.7756 240.121 52.2465 242.963 52.7527C243.44 52.8362 243.917 52.9196 244.393 53.0027C245.547 53.2044 246.7 53.4082 247.852 53.6133C246.473 54.5326 244.877 54.8396 243.291 55.2734C242.701 55.436 242.112 55.6041 241.523 55.7728C233.324 58.0632 224.746 59.1427 216.35 60.4698C215.269 60.6407 214.189 60.814 213.109 60.9888C212.705 61.0536 212.302 61.1175 211.898 61.1804C207.898 61.7691 207.898 61.7691 204.53 63.8672C203.083 65.106 201.56 66.1177 199.934 67.1082C199.7 67.2515 199.466 67.3948 199.225 67.5425C197.54 68.5547 197.54 68.5547 196.876 68.5547C196.792 68.7658 196.709 68.9769 196.623 69.1944C194.897 73.4643 193.019 77.2196 189.844 80.5664C189.333 81.1503 188.838 81.7446 188.343 82.3425C188.131 82.5937 187.919 82.8448 187.7 83.1036C187.034 84.031 186.869 84.5994 187.012 85.7389C187.075 86.0352 187.138 86.3316 187.203 86.6369C187.274 86.9747 187.344 87.3125 187.417 87.6606C187.536 88.209 187.536 88.209 187.657 88.7684C187.739 89.1526 187.821 89.5369 187.902 89.9212C188.074 90.7301 188.248 91.5385 188.423 92.3467C188.643 93.3631 188.86 94.3803 189.074 95.3978C190.789 104.422 190.789 104.422 194.514 112.72C194.799 113.194 194.799 113.194 195.09 113.677C195.484 114.332 195.882 114.985 196.283 115.636C196.861 116.578 197.43 117.526 197.995 118.477C200.61 122.874 203.282 127.238 205.946 131.605C207.909 134.824 209.868 138.045 211.793 141.288C211.913 141.49 212.034 141.693 212.158 141.902C212.758 142.914 213.357 143.927 213.954 144.942C214.936 146.609 215.92 148.268 216.986 149.883C217.14 150.119 217.294 150.355 217.452 150.598C217.721 151.006 217.996 151.411 218.279 151.809C220.185 154.72 218.966 159.226 218.616 162.515C218.56 163.05 218.505 163.584 218.449 164.119C218.332 165.24 218.214 166.361 218.095 167.482C217.946 168.884 217.801 170.286 217.656 171.688C217.089 177.178 216.482 182.66 215.741 188.128C215.713 188.346 215.684 188.563 215.654 188.787C215.2 192.199 214.427 195.216 212.989 198.34C212.754 198.872 212.519 199.405 212.285 199.939C211.891 200.835 211.496 201.73 211.097 202.624C208.011 209.566 205.319 216.687 202.735 223.828C204.71 220.397 206.639 216.95 208.448 213.428C209.84 210.718 211.298 208.055 212.81 205.41C214.083 203.178 215.31 200.924 216.478 198.635C216.798 198.047 216.798 198.047 217.146 197.533C218.536 195.385 218.754 193.025 219.092 190.549C219.162 190.065 219.233 189.582 219.303 189.099C219.491 187.808 219.673 186.517 219.853 185.225C220.041 183.885 220.234 182.547 220.427 181.208C220.736 179.055 221.041 176.902 221.344 174.748C221.705 172.189 222.075 169.631 222.449 167.073C222.646 165.731 222.839 164.388 223.033 163.044C223.136 162.336 223.239 161.627 223.343 160.918C223.485 159.946 223.624 158.973 223.761 157.999C223.824 157.58 223.824 157.58 223.887 157.153C224.18 155.036 224.213 153.319 223.004 151.469C222.831 151.2 222.657 150.93 222.479 150.652C222.29 150.364 222.101 150.077 221.906 149.78C221.501 149.149 221.097 148.517 220.694 147.884C220.538 147.64 220.538 147.64 220.378 147.39C219.255 145.629 218.188 143.835 217.127 142.035C216.934 141.708 216.742 141.382 216.543 141.045C215.943 140.027 215.345 139.008 214.747 137.988C214.537 137.63 214.327 137.272 214.117 136.915C213.267 135.466 212.418 134.018 211.569 132.569C209.859 129.647 208.138 126.731 206.414 123.818C205.948 123.031 205.484 122.242 205.02 121.454C203.182 118.33 201.321 115.221 199.415 112.137C198.952 111.383 198.497 110.626 198.048 109.863C197.934 109.672 197.82 109.48 197.703 109.282C196.745 107.536 196.367 105.662 195.942 103.729C195.858 103.357 195.774 102.984 195.687 102.6C195.501 101.773 195.317 100.945 195.133 100.116C194.856 98.8642 194.57 97.6138 194.284 96.3636C194.034 95.2739 193.788 94.1836 193.543 93.0931C193.421 92.5565 193.299 92.02 193.176 91.4839C193.002 90.7262 192.833 89.9678 192.664 89.209C192.612 88.9832 192.559 88.7574 192.505 88.5248C192.175 87.01 192.043 85.7508 192.827 84.3377C192.97 84.1503 193.113 83.9628 193.261 83.7696C193.419 83.557 193.578 83.3444 193.742 83.1253C193.912 82.9032 194.082 82.6812 194.257 82.4524C194.609 81.9797 194.959 81.5063 195.309 81.0322C195.479 80.8018 195.649 80.5713 195.824 80.3339C196.732 79.0739 197.525 77.7497 198.316 76.4136C198.982 75.2912 199.66 74.1753 200.336 73.0591C200.542 72.7149 200.542 72.7149 200.753 72.3639C200.948 72.0407 200.948 72.0407 201.148 71.711C201.321 71.4228 201.321 71.4228 201.498 71.1289C202.385 69.8331 203.177 69.5175 204.694 69.0674C204.9 69.0057 205.105 68.944 205.317 68.8805C206.018 68.6712 206.72 68.4664 207.423 68.2617C207.927 68.1127 208.431 67.9635 208.935 67.8143C215.666 65.83 222.423 63.9285 229.177 62.0211C229.748 61.8596 230.32 61.6979 230.892 61.5362C231.955 61.2365 233.019 60.9405 234.083 60.6445C234.28 60.5882 234.478 60.5319 234.682 60.4738C235.285 60.3019 235.89 60.1331 236.495 59.9648C237.033 59.8129 237.033 59.8129 237.582 59.6579C238.477 59.4727 238.477 59.4727 239.356 59.7656C239.259 59.959 239.163 60.1523 239.063 60.3516C239.267 60.3627 239.47 60.3739 239.679 60.3854C242.551 60.5727 245.381 60.9664 248.227 61.3855C249.05 61.5062 249.873 61.6233 250.697 61.7403C251.223 61.817 251.749 61.8938 252.275 61.9709C252.52 62.0054 252.765 62.0399 253.017 62.0755C253.245 62.1097 253.473 62.1439 253.708 62.1791C253.908 62.2082 254.107 62.2372 254.312 62.2671C254.884 62.4023 254.884 62.4023 256.055 62.9883C254.025 64.1484 251.995 65.3086 249.903 66.5039C251.676 67.213 253.44 67.9119 255.234 68.5593C255.444 68.6356 255.655 68.712 255.871 68.7907C256.531 69.0299 257.19 69.2684 257.85 69.5068C258.302 69.6708 258.755 69.8349 259.207 69.9989C260.305 70.3969 261.403 70.7943 262.501 71.1914C262.501 71.2881 262.501 71.3848 262.501 71.4844C262.031 71.4999 262.031 71.4999 261.552 71.5158C258.575 71.6144 255.598 71.7135 252.62 71.813C251.091 71.8641 249.561 71.9151 248.031 71.9657C246.549 72.0147 245.067 72.0641 243.586 72.1138C243.026 72.1326 242.466 72.1511 241.906 72.1695C238.959 72.2665 236.012 72.3739 233.066 72.5053C232.812 72.5159 232.557 72.5266 232.295 72.5376C231.014 72.5972 229.779 72.7036 228.516 72.9492C228.869 73.0084 229.222 73.0675 229.585 73.1284C232.91 73.6866 236.234 74.251 239.556 74.8214C241.264 75.1145 242.973 75.4054 244.682 75.6913C246.332 75.9673 247.981 76.249 249.629 76.5347C250.258 76.6427 250.887 76.7486 251.517 76.8524C252.398 76.9982 253.279 77.1513 254.159 77.3062C254.55 77.3682 254.55 77.3682 254.949 77.4314C256.801 77.7687 257.623 78.4095 258.798 79.9004C258.899 80.0515 258.999 80.2026 259.103 80.3583C259.221 80.5323 259.338 80.7063 259.458 80.8855C259.639 81.1598 259.639 81.1598 259.824 81.4396C260.016 81.727 260.016 81.727 260.212 82.0203C260.48 82.4223 260.747 82.8248 261.013 83.2279C261.422 83.8467 261.834 84.4631 262.247 85.0794C262.508 85.4712 262.768 85.8632 263.028 86.2553C263.152 86.4399 263.275 86.6245 263.403 86.8148C264.259 88.1161 264.259 88.1161 264.259 88.7695C261.459 87.8881 258.752 86.7701 256.028 85.6831C255.382 85.4257 254.736 85.1693 254.09 84.9129C253.893 84.8338 253.696 84.7548 253.493 84.6734C252.599 84.3186 251.725 83.9862 250.782 83.7891C250.882 83.9273 250.982 84.0656 251.085 84.2081C252.09 85.5977 253.094 86.988 254.097 88.379C254.511 88.9528 254.926 89.5262 255.341 90.0993C256.889 92.2488 258.4 94.4234 259.901 96.6064C260.099 96.893 260.297 97.1795 260.501 97.4748C260.776 97.8765 260.776 97.8765 261.056 98.2864C261.222 98.5273 261.387 98.7681 261.558 99.0163C261.915 99.6094 261.915 99.6094 261.915 100.195C261.115 99.8112 260.377 99.3893 259.64 98.8964C259.324 98.6859 259.324 98.6859 259.002 98.471C258.779 98.321 258.556 98.171 258.326 98.0164C258.095 97.862 257.864 97.7076 257.627 97.5485C255.818 96.3356 254.021 95.1062 252.233 93.8645C251.244 93.1721 251.244 93.1721 250.196 92.5781C252.608 96.6698 255.033 100.752 257.502 104.81C257.713 105.156 257.923 105.503 258.134 105.849C258.868 107.056 259.602 108.262 260.338 109.467C260.724 110.099 261.109 110.732 261.494 111.365C261.693 111.692 261.893 112.019 262.099 112.356C262.501 113.086 262.501 113.086 262.501 113.672C261.656 113.274 260.922 112.82 260.172 112.265C259.95 112.102 259.728 111.938 259.499 111.769C259.263 111.593 259.027 111.418 258.784 111.237C258.539 111.055 258.294 110.874 258.042 110.687C256.164 109.293 254.302 107.88 252.451 106.451C252.166 106.232 252.166 106.232 251.876 106.008C251.714 105.882 251.551 105.756 251.384 105.627C250.511 104.972 249.621 104.342 248.731 103.711C249.783 106.316 250.862 108.904 252.018 111.464C252.172 111.807 252.172 111.807 252.33 112.157C252.752 113.092 253.175 114.027 253.601 114.962C253.918 115.656 254.232 116.353 254.545 117.049C254.642 117.261 254.74 117.473 254.841 117.692C255.068 118.2 255.271 118.718 255.469 119.238C255.373 119.432 255.276 119.625 255.176 119.824C254.896 119.637 254.615 119.449 254.326 119.256C253.276 118.554 252.225 117.852 251.175 117.151C250.722 116.848 250.269 116.546 249.816 116.243C249.162 115.806 248.507 115.369 247.852 114.932C247.653 114.798 247.454 114.665 247.248 114.528C245.901 113.63 244.539 112.773 243.165 111.914C243.89 115.975 243.89 115.975 244.63 120.117C243.636 119.62 243.225 119.361 242.506 118.597C241.809 117.88 241.103 117.199 240.345 116.547C239.274 115.623 238.233 114.67 237.196 113.708C236.867 113.405 236.539 113.102 236.211 112.799C235.744 112.367 235.277 111.935 234.811 111.503C234.411 111.132 234.009 110.763 233.607 110.394C233.379 110.185 233.152 109.975 232.918 109.759C232.326 109.22 232.326 109.22 231.446 108.984C230.876 109.248 230.876 109.248 230.302 109.671C229.975 109.893 229.975 109.893 229.641 110.118C229.415 110.276 229.189 110.433 228.956 110.596C228.509 110.907 228.061 111.215 227.61 111.52C227.411 111.659 227.213 111.797 227.009 111.94C226.466 112.207 226.466 112.207 225.587 111.914C225.299 111.316 225.299 111.316 225.052 110.54C224.963 110.263 224.873 109.986 224.78 109.701C224.69 109.41 224.6 109.119 224.506 108.82C224.412 108.527 224.319 108.235 224.222 107.934C223.99 107.211 223.762 106.487 223.536 105.762C223.369 105.949 223.203 106.137 223.031 106.33C221.832 107.674 220.632 108.993 219.319 110.225C218.681 110.927 218.189 111.704 217.676 112.5C218.621 113.034 219.567 113.564 220.515 114.093C220.782 114.244 221.049 114.396 221.324 114.551C221.584 114.696 221.844 114.84 222.111 114.989C222.349 115.123 222.587 115.256 222.832 115.394C223.867 115.877 224.603 116.131 225.722 115.807C225.969 115.695 226.215 115.583 226.469 115.467C226.739 115.348 227.009 115.228 227.288 115.104C227.566 114.976 227.845 114.848 228.132 114.716C228.688 114.465 229.245 114.215 229.801 113.966C230.17 113.797 230.17 113.797 230.545 113.626C231.153 113.379 231.153 113.379 231.739 113.379C231.037 115.775 229.955 117.91 228.809 120.117C228.971 120.186 229.133 120.254 229.299 120.324C230.161 120.803 230.799 121.404 231.519 122.076C231.807 122.342 232.094 122.608 232.382 122.874C232.653 123.124 232.924 123.375 233.204 123.633C233.605 123.989 234.008 124.343 234.412 124.695C234.594 124.854 234.776 125.013 234.964 125.177C235.401 125.556 235.839 125.933 236.278 126.31C236.52 126.52 236.763 126.73 237.012 126.947C237.236 127.139 237.46 127.331 237.69 127.53C238.184 128.027 238.184 128.027 238.184 128.613C234.22 129.097 230.257 129.58 226.173 130.078C227.213 130.425 228.212 130.754 229.266 131.03C229.514 131.096 229.763 131.161 230.019 131.229C230.284 131.298 230.549 131.367 230.821 131.439C231.395 131.59 231.969 131.742 232.542 131.894C233.436 132.129 234.33 132.365 235.224 132.599C238.778 133.533 242.307 134.505 245.801 135.645C245.428 136.451 245.027 137.093 244.438 137.758C244.285 137.933 244.132 138.108 243.973 138.289C243.809 138.474 243.645 138.658 243.476 138.849C243.131 139.242 242.786 139.636 242.441 140.03C242.181 140.326 242.181 140.326 241.916 140.628C240.007 142.812 238.131 145.014 236.426 147.363C241.313 147.127 246.194 146.806 251.075 146.484C250.048 148.082 248.9 149.576 247.742 151.08C246.107 153.216 244.486 155.361 242.89 157.526C242.715 157.762 242.54 157.999 242.36 158.242C242.2 158.46 242.04 158.678 241.875 158.902C241.664 159.189 241.664 159.189 241.449 159.481C241.095 159.963 241.095 159.963 240.821 160.547C243.818 160.547 246.815 160.547 249.903 160.547C248.831 161.619 248.259 162.136 247.057 162.855C246.153 163.546 245.843 163.915 245.535 165.023C245.411 166.164 245.36 167.292 245.344 168.439C245.329 168.839 245.312 169.239 245.295 169.639C245.257 170.612 245.231 171.585 245.216 172.559C245.441 172.573 245.667 172.587 245.9 172.602C246.341 172.635 246.341 172.635 246.79 172.668C247.083 172.689 247.375 172.709 247.676 172.73C248.438 172.852 248.438 172.852 249.024 173.438C248.64 173.907 248.255 174.377 247.871 174.847C247.513 175.285 247.513 175.285 247.147 175.732C246.648 176.343 246.147 176.952 245.646 177.561C245.297 177.985 245.297 177.985 244.941 178.418C244.727 178.678 244.513 178.938 244.292 179.205C243.721 179.9 243.721 179.9 243.165 180.762C245.137 180.284 247.082 179.781 249.007 179.137C249.61 179.004 249.61 179.004 250.489 179.297C250.377 180.444 250.263 181.591 250.146 182.737C250.087 183.318 250.03 183.9 249.974 184.481C249.936 184.847 249.898 185.214 249.86 185.591C249.826 185.929 249.792 186.266 249.757 186.614C249.557 187.821 249.34 188.408 248.395 189.198C248.138 189.373 247.881 189.549 247.617 189.729C247.332 189.925 247.047 190.121 246.754 190.323C246.452 190.528 246.15 190.732 245.838 190.942C245.533 191.151 245.229 191.36 244.914 191.575C244.04 192.173 243.164 192.767 242.286 193.359C242.068 193.507 241.849 193.654 241.624 193.806C240.677 194.445 239.725 195.076 238.77 195.703C241.077 195.109 243.319 194.393 245.563 193.597C246.024 193.436 246.024 193.436 246.493 193.271C247.24 193.008 247.986 192.745 248.731 192.48C249.383 193.785 249.01 195.677 248.928 197.112C248.907 197.561 248.894 198.01 248.89 198.459C248.875 200.007 248.747 201.295 248.145 202.734C246.917 203.757 245.643 204.281 244.151 204.82C243.203 205.173 242.289 205.589 241.368 206.004C240.424 206.428 239.473 206.835 238.521 207.242C237.787 207.556 237.053 207.872 236.319 208.188C235.85 208.39 235.38 208.592 234.91 208.794C234.692 208.888 234.474 208.981 234.25 209.078C233.419 209.433 232.597 209.773 231.739 210.059C236.476 210.445 241.214 210.832 246.094 211.23C246.094 211.424 246.094 211.617 246.094 211.816C245.838 211.94 245.581 212.063 245.316 212.19C240.222 214.636 235.152 217.121 230.128 219.708C229.793 219.88 229.793 219.88 229.451 220.056C228.819 220.382 228.187 220.708 227.555 221.035C227.368 221.131 227.181 221.228 226.988 221.327C226.196 221.738 225.451 222.161 224.708 222.656C227.995 222.656 231.282 222.656 234.669 222.656C234.964 223.839 234.995 224.894 234.98 226.099C234.979 226.303 234.977 226.507 234.976 226.718C234.973 227.219 234.967 227.721 234.962 228.223C233.099 228.72 231.236 229.062 229.333 229.368C229.026 229.419 228.719 229.469 228.402 229.521C227.427 229.681 226.452 229.84 225.477 229.999C224.186 230.209 222.896 230.42 221.606 230.632C221.309 230.68 221.012 230.727 220.706 230.777C220.432 230.822 220.158 230.867 219.876 230.913C219.634 230.952 219.393 230.992 219.144 231.032C218.538 231.129 218.538 231.129 217.969 231.445C218.144 231.504 218.318 231.563 218.498 231.624C219.287 231.892 220.075 232.163 220.863 232.434C221.137 232.527 221.412 232.62 221.695 232.716C221.957 232.806 222.219 232.897 222.49 232.99C222.732 233.073 222.975 233.156 223.224 233.241C223.829 233.496 223.829 233.496 224.415 234.082C223.981 234.109 223.981 234.109 223.538 234.136C220.797 234.303 218.056 234.471 215.315 234.64C213.906 234.726 212.497 234.813 211.088 234.899C209.726 234.982 208.364 235.066 207.002 235.15C206.485 235.181 205.968 235.213 205.451 235.245C204.272 235.316 203.094 235.39 201.916 235.469C201.141 235.521 200.37 235.558 199.593 235.587C199.121 235.609 199.121 235.609 198.64 235.632C198.375 235.64 198.109 235.649 197.836 235.657C196.911 235.91 196.685 236.363 196.217 237.177C196.032 237.604 195.857 238.037 195.704 238.477C198.461 238.334 201.216 238.173 203.97 237.973C204.354 237.945 204.354 237.945 204.747 237.917C205.793 237.841 206.839 237.764 207.886 237.686C214.644 237.183 221.412 236.983 228.187 236.865C228.504 236.86 228.821 236.854 229.148 236.848C236.696 236.714 244.245 236.64 251.793 236.564C252.765 236.554 253.737 236.544 254.709 236.534C260.604 236.474 266.499 236.415 272.394 236.401C272.828 236.4 273.262 236.398 273.696 236.396C274.28 236.394 274.864 236.393 275.448 236.393C275.772 236.392 276.096 236.391 276.43 236.39C277.149 236.426 277.149 236.426 277.442 236.719C277.47 237.384 277.477 238.05 277.475 238.715C277.475 238.924 277.475 239.133 277.475 239.347C277.475 240.04 277.473 240.733 277.471 241.426C277.47 241.905 277.47 242.384 277.469 242.863C277.468 244.126 277.465 245.39 277.462 246.653C277.459 247.941 277.458 249.229 277.456 250.517C277.453 253.047 277.448 255.576 277.442 258.105C273.538 257.924 269.646 257.656 265.75 257.347C264.011 257.209 262.272 257.074 260.533 256.938C260.167 256.909 259.801 256.881 259.424 256.851C246.643 255.852 233.861 254.913 221.064 254.132C220.604 254.104 220.604 254.104 220.135 254.075C218.12 253.952 216.104 253.83 214.089 253.71C213.706 253.687 213.706 253.687 213.315 253.663C212.603 253.621 211.892 253.579 211.18 253.537C210.976 253.525 210.772 253.513 210.562 253.5C209.318 253.429 208.082 253.407 206.837 253.418C211.539 258.388 216.802 258.412 223.267 258.603C224.125 258.624 224.982 258.641 225.84 258.656C227.522 258.688 229.187 258.802 230.86 258.984C230.86 259.178 230.86 259.371 230.86 259.57C228.604 260.069 226.348 260.566 224.091 261.06C223.042 261.289 221.994 261.52 220.947 261.752C219.935 261.976 218.922 262.198 217.909 262.418C217.337 262.544 216.766 262.671 216.194 262.798C215.667 262.913 215.667 262.913 215.128 263.029C214.821 263.097 214.513 263.165 214.196 263.234C212.788 263.457 211.432 263.575 210.1 263.003C209.903 262.921 209.706 262.839 209.504 262.754C209.297 262.663 209.091 262.573 208.878 262.479C208.657 262.386 208.437 262.293 208.209 262.196C207.506 261.898 206.805 261.595 206.104 261.292C205.411 260.995 204.718 260.7 204.024 260.405C203.595 260.222 203.166 260.039 202.738 259.854C202.055 259.56 201.37 259.272 200.684 258.984C200.194 258.775 200.194 258.775 199.693 258.561C197.147 257.493 194.613 256.731 191.916 256.114C191.515 256.02 191.113 255.925 190.712 255.83C189.671 255.585 188.628 255.343 187.586 255.103C186.527 254.858 185.469 254.609 184.411 254.36C182.219 253.845 180.027 253.333 177.833 252.832C177.631 252.78 177.429 252.729 177.22 252.676C175.627 252.285 174.162 252.172 172.526 252.203C172.265 252.205 172.003 252.208 171.734 252.21C171.152 252.216 170.571 252.224 169.989 252.232C168.993 252.247 167.997 252.257 167.001 252.267C164.85 252.289 162.699 252.317 160.547 252.345C159.893 252.354 159.239 252.362 158.585 252.371C156.505 252.398 154.425 252.426 152.344 252.455C150.237 252.483 148.13 252.511 146.023 252.537C121.262 252.688 121.262 252.688 96.5705 254.279C95.7722 254.354 94.9737 254.428 94.1753 254.502C92.2547 254.681 90.3353 254.871 88.4162 255.065C87.3024 255.176 86.1882 255.281 85.0737 255.385C80.7166 255.8 76.4523 256.398 72.1626 257.263C71.5681 257.38 70.9735 257.497 70.3789 257.614C68.5978 257.966 66.8185 258.327 65.0398 258.691C64.7777 258.745 64.5157 258.798 64.2458 258.854C53.9325 260.963 43.6914 263.404 33.4453 265.815C32.2654 266.092 31.0853 266.369 29.9051 266.645C29.0962 266.835 28.2877 267.027 27.4792 267.218C26.9943 267.332 26.5095 267.446 26.0246 267.559C25.6985 267.637 25.6985 267.637 25.3658 267.717C24.3919 267.944 23.567 268.066 22.5593 268.066C22.5593 265.166 22.5593 262.266 22.5593 259.277C26.2091 258.109 29.8825 257.071 33.5822 256.073C34.1274 255.925 34.6725 255.777 35.2176 255.63C36.3025 255.335 37.3875 255.041 38.4726 254.748C41.1771 254.016 43.8799 253.277 46.5827 252.539C44.8795 252.787 43.1767 253.038 41.4741 253.29C41.2159 253.328 40.9577 253.366 40.6917 253.406C35.9665 254.108 31.2586 254.895 26.5556 255.733C26.3088 255.777 26.062 255.82 25.8077 255.865C25.344 255.946 24.8806 256.029 24.4175 256.113C23.8978 256.204 23.3752 256.278 22.8523 256.348C22.3416 255.837 22.5242 255.174 22.5228 254.494C22.5244 254.158 22.5244 254.158 22.526 253.816C22.526 253.582 22.526 253.347 22.5259 253.106C22.5261 252.328 22.5284 251.549 22.5307 250.771C22.5312 250.233 22.5316 249.695 22.5319 249.156C22.5331 247.737 22.5359 246.318 22.5392 244.898C22.5422 243.451 22.5435 242.004 22.545 240.557C22.5481 237.715 22.5533 234.873 22.5593 232.031C26.0329 232.199 29.4846 232.456 32.9439 232.81C33.4291 232.859 33.9144 232.907 34.3996 232.956C35.6991 233.086 36.9984 233.218 38.2977 233.35C39.6648 233.489 41.032 233.626 42.3991 233.764C44.69 233.994 46.9808 234.226 49.2716 234.458C51.9163 234.726 54.5611 234.993 57.2059 235.259C60.0327 235.544 62.8594 235.829 65.6861 236.115C66.4972 236.197 67.3083 236.279 68.1194 236.36C69.3933 236.489 70.6671 236.618 71.9408 236.747C72.4072 236.794 72.8736 236.841 73.34 236.888C73.9779 236.953 74.6158 237.017 75.2537 237.082C75.61 237.118 75.9664 237.155 76.3336 237.192C77.3578 237.306 78.3758 237.447 79.3952 237.598C79.1052 238.323 79.1052 238.323 78.8093 239.062C78.9853 239.061 79.1612 239.059 79.3425 239.058C80.1352 239.052 80.9279 239.048 81.7207 239.044C81.9977 239.042 82.2747 239.039 82.5601 239.037C82.8235 239.036 83.0869 239.035 83.3583 239.034C83.6023 239.032 83.8462 239.031 84.0975 239.029C84.6687 239.062 84.6687 239.062 84.9616 239.355C85.3993 239.34 85.8362 239.303 86.2718 239.258C86.5542 239.231 86.8366 239.204 87.1275 239.176C87.5951 239.13 87.5951 239.13 88.0721 239.084C92.3226 238.71 96.5528 238.69 100.817 238.712C101.607 238.715 102.396 238.715 103.186 238.715C106.986 238.715 110.764 238.734 114.551 239.062C114.358 240.223 114.165 241.383 113.966 242.578C114.368 242.319 114.368 242.319 114.778 242.055C115.13 241.833 115.481 241.61 115.833 241.388C116.01 241.274 116.187 241.159 116.369 241.042C116.826 240.755 117.3 240.492 117.774 240.234C117.967 240.331 118.161 240.428 118.36 240.527C118.233 240.774 118.106 241.021 117.976 241.276C117.812 241.597 117.649 241.918 117.481 242.249C117.236 242.728 117.236 242.728 116.987 243.217C116.561 243.98 116.561 243.98 116.602 244.629C117.538 244.2 118.471 243.765 119.404 243.329C119.66 243.211 119.917 243.094 120.181 242.972C120.445 242.849 120.708 242.725 120.98 242.598C121.254 242.47 121.527 242.342 121.81 242.21C122.768 241.73 122.768 241.73 123.557 241.046C127.203 238.25 131.545 238.7 135.916 238.747C137.093 238.756 138.27 238.751 139.448 238.747C141.451 238.742 143.454 238.746 145.457 238.757C148.243 238.771 151.029 238.767 153.815 238.758C159.354 238.74 164.893 238.741 170.432 238.748C173.04 238.752 175.648 238.753 178.257 238.755C183.584 238.758 188.912 238.763 194.239 238.77C194.255 238.523 194.271 238.277 194.287 238.024C194.46 235.46 194.703 232.91 194.985 230.356C195.031 229.94 195.076 229.525 195.121 229.11C195.218 228.221 195.316 227.331 195.414 226.442C195.571 225.009 195.728 223.577 195.885 222.144C196.135 219.849 196.387 217.554 196.639 215.26C196.943 212.487 197.247 209.714 197.55 206.942C197.577 206.695 197.604 206.449 197.632 206.195C198.205 200.96 198.777 195.726 199.346 190.491C199.459 189.459 199.571 188.427 199.683 187.396C199.994 184.547 200.303 181.698 200.61 178.848C200.741 177.635 200.872 176.422 201.004 175.21C201.127 174.086 201.248 172.962 201.368 171.838C201.412 171.429 201.457 171.02 201.502 170.611C202.157 167.108 202.157 167.108 201.487 163.845C201.016 163.376 200.523 162.99 199.988 162.598C199.609 162.297 199.229 161.996 198.85 161.695C198.662 161.55 198.475 161.405 198.282 161.256C197.568 160.693 196.902 160.084 196.235 159.467C195.022 158.366 193.765 157.331 192.493 156.3C190.889 154.979 189.331 153.605 187.763 152.24C186.892 151.483 186.016 150.732 185.139 149.982C184.971 149.838 184.803 149.694 184.63 149.546C184.291 149.256 183.953 148.967 183.614 148.677C182.761 147.947 181.908 147.215 181.055 146.484C180.886 146.34 180.717 146.195 180.543 146.045C179.685 145.31 178.827 144.574 177.969 143.837C175.843 142.012 173.709 140.196 171.568 138.389C171.086 137.981 170.604 137.572 170.123 137.163C168.663 135.923 167.199 134.69 165.711 133.484C164.211 132.263 162.753 130.998 161.295 129.727C159.967 128.572 158.617 127.448 157.249 126.34C156.338 125.595 155.439 124.835 154.542 124.072C153.379 123.084 152.21 122.106 151.026 121.143C148.426 119.023 145.861 116.866 143.383 114.605C142.896 114.163 142.403 113.728 141.906 113.298C140.391 111.976 139.11 110.657 137.989 108.984C139.591 109.497 141.141 110.056 142.676 110.742C142.612 110.556 142.548 110.369 142.482 110.177C141.707 107.801 141.108 105.392 140.534 102.96C140.453 102.622 140.371 102.284 140.287 101.936C140.175 101.454 140.175 101.454 140.062 100.963C139.994 100.674 139.926 100.386 139.856 100.088C139.747 99.3164 139.747 99.3164 140.04 98.1445C141.007 98.918 141.973 99.6914 142.969 100.488C142.814 97.3299 142.566 94.1975 142.203 91.0563C142.122 90.3629 142.044 89.6693 141.966 88.9756C141.745 87.0079 141.521 85.0405 141.296 83.0733C141.157 81.8596 141.02 80.6457 140.885 79.4317C140.833 78.9722 140.78 78.5128 140.727 78.0535C140.653 77.4153 140.581 76.7769 140.51 76.1383C140.469 75.776 140.427 75.4137 140.385 75.0404C140.339 74.2399 140.369 73.6991 140.626 72.9492C142.562 75.0395 144.41 77.1696 146.192 79.3945C146.409 78.599 146.537 77.8484 146.594 77.0262C146.611 76.793 146.628 76.5597 146.645 76.3195C146.662 76.0683 146.678 75.8172 146.696 75.5585C146.714 75.2944 146.732 75.0303 146.751 74.7583C146.79 74.1968 146.829 73.6353 146.867 73.0738C146.923 72.2361 146.982 71.3984 147.04 70.5608C147.289 66.9642 147.49 63.3669 147.657 59.7656C148.419 60.4871 149.008 61.146 149.502 62.0716C149.618 62.2865 149.735 62.5014 149.855 62.7228C149.976 62.9494 150.096 63.176 150.22 63.4094C151.313 65.4247 152.459 67.3832 153.693 69.3146C154.102 70.0195 154.102 70.0195 154.102 70.6055C154.296 70.6055 154.489 70.6055 154.688 70.6055C154.726 70.374 154.726 70.374 154.765 70.1378C155.178 67.8532 155.852 65.6563 156.529 63.4398C157.814 59.2254 159.022 54.9942 160.163 50.7385C160.227 50.4982 160.292 50.2579 160.358 50.0103C160.716 48.6727 161.072 47.3347 161.426 45.9961C161.62 46.0928 161.813 46.1895 162.012 46.2891C162.145 46.9924 162.241 47.671 162.316 48.381C162.34 48.5917 162.365 48.8024 162.39 49.0195C162.468 49.696 162.542 50.3729 162.617 51.0498C162.693 51.7225 162.769 52.395 162.847 53.0675C162.894 53.4864 162.941 53.9054 162.987 54.3245C163.104 55.3698 163.252 56.3944 163.477 57.4219C167.249 49.7097 167.249 49.7097 170.801 41.8945C170.995 41.8945 171.188 41.8945 171.387 41.8945C171.731 43.1453 172.072 44.3967 172.413 45.6482C172.511 46.0041 172.608 46.3601 172.709 46.7268C172.802 47.0676 172.894 47.4085 172.99 47.7596C173.076 48.0741 173.161 48.3887 173.25 48.7127C173.438 49.5117 173.438 49.5117 173.438 50.3906C175.066 48.9854 176.654 47.5451 178.217 46.0693C178.54 45.7654 178.54 45.7654 178.87 45.4554C180.42 43.9902 181.936 42.4961 183.427 40.9698C183.985 40.4297 183.985 40.4297 184.278 40.4297C184.568 41.9766 184.858 43.5234 185.157 45.1172C185.717 44.8728 186.276 44.6285 186.853 44.3768C191.344 42.4195 195.845 40.4977 200.391 38.6719Z" fill="black"/>
<path d="M128.028 51.8555C128.124 51.8555 128.221 51.8555 128.32 51.8555C128.417 55.626 128.514 59.3965 128.613 63.2812C129.629 61.251 129.629 61.251 130.664 59.1797C130.761 59.1797 130.858 59.1797 130.957 59.1797C130.973 59.4267 130.99 59.6736 131.006 59.9281C131.067 60.8416 131.129 61.755 131.191 62.6683C131.218 63.0642 131.245 63.4601 131.271 63.856C131.308 64.424 131.347 64.9919 131.386 65.5598C131.409 65.9019 131.432 66.244 131.456 66.5965C131.458 67.3582 131.458 67.3582 131.836 67.6758C132.32 66.709 132.803 65.7422 133.301 64.7461C133.494 64.8428 133.688 64.9395 133.887 65.0391C134.207 66.798 134.213 68.529 134.18 70.3125C134.567 70.3125 134.953 70.3125 135.352 70.3125C137.597 74.8027 135.902 83.6104 135.352 88.4766C136.367 88.3315 136.367 88.3315 137.403 88.1836C136.822 91.7607 136.242 95.3379 135.645 99.0234C135.451 98.9268 135.258 98.8301 135.059 98.7305C134.873 97.9843 134.873 97.9843 134.729 97.0459C134.68 96.7392 134.631 96.4326 134.58 96.1166C134.485 95.3156 134.452 94.5554 134.473 93.75C134.279 93.75 134.086 93.75 133.887 93.75C133.817 93.9554 133.747 94.1609 133.675 94.3726C132.579 96.8402 130.397 99.0226 128.668 101.093C128.539 101.249 128.409 101.406 128.275 101.568C127.487 102.499 126.681 103.298 125.684 104.004C125.49 104.004 125.297 104.004 125.098 104.004C124.614 101.587 124.131 99.1699 123.633 96.6797C123.246 96.9697 122.86 97.2598 122.461 97.5586C122.268 97.5586 122.074 97.5586 121.875 97.5586C121.77 95.2635 122.163 93.2021 122.663 90.9668C122.742 90.6058 122.821 90.2448 122.903 89.8729C123.362 87.8176 123.851 85.775 124.439 83.7524C124.497 83.5517 124.555 83.351 124.615 83.1442C124.873 82.2986 125.049 81.7874 125.684 81.1523C126.302 83.2706 126.544 85.4256 126.798 87.6104C126.873 88.2514 126.95 88.8921 127.028 89.5329C127.285 91.6848 127.513 93.8346 127.662 95.9973C127.715 96.7247 127.715 96.7247 128.028 97.5586C132.733 90.9875 133.108 83.1258 133.008 75.293C132.673 75.583 132.673 75.583 132.331 75.8789C131.543 76.4648 131.543 76.4648 130.664 76.4648C130.471 75.208 130.278 73.9512 130.078 72.6562C128.296 74.8245 126.52 76.9972 124.781 79.2C124.268 79.8492 123.748 80.4808 123.208 81.1089C121.444 83.2464 120.488 85.5164 119.507 88.0955C119.404 88.3674 119.3 88.6393 119.194 88.9194C119.058 89.2886 119.058 89.2886 118.919 89.6652C118.653 90.2344 118.653 90.2344 118.067 90.5273C117.931 90.0089 117.797 89.49 117.664 88.9709C117.589 88.682 117.514 88.3931 117.437 88.0955C117.109 86.6685 116.854 85.2311 116.602 83.7891C116.481 84.0632 116.36 84.3373 116.236 84.6198C116.115 84.8936 116.115 84.8936 115.992 85.173C115.81 85.5853 115.628 85.9976 115.447 86.41C114.945 87.5486 114.442 88.686 113.933 89.8217C112.673 92.6324 112.673 92.6324 111.558 95.5032C110.792 97.6075 110.225 99.0119 108.175 100.082C107.592 100.344 107.005 100.563 106.405 100.782C105.361 101.21 104.646 101.786 103.817 102.548C103.56 102.785 103.302 103.021 103.037 103.265C100.635 105.51 98.2709 107.793 95.9291 110.101C95.7116 110.316 95.7116 110.316 95.4896 110.534C91.2282 114.74 87.4044 118.864 84.7793 124.308C84.369 125.11 83.8919 125.824 83.3864 126.568C82.3961 128.188 82.49 129.567 82.5807 131.415C82.6109 134.958 81.4965 136.948 79.2062 139.565C78.7006 140.168 78.3071 140.814 77.9299 141.504C74.8101 141.383 74.8101 141.383 73.5353 140.039C73.0009 139.456 72.4771 138.868 71.9675 138.263C71.4633 137.655 71.4633 137.655 70.7704 136.981C69.9475 135.632 70.1948 134.159 70.5059 132.668C70.7774 131.609 71.0709 130.56 71.3747 129.51C71.4817 129.132 71.5885 128.754 71.6952 128.376C72.4206 125.824 73.2104 123.298 74.0835 120.794C74.722 118.922 74.8389 117.154 74.9625 115.184C75.0006 114.581 75.0412 113.977 75.0818 113.374C75.218 111.281 75.3107 109.195 75.324 107.097C75.3287 106.7 75.3335 106.303 75.3383 105.905C75.3447 105.154 75.3428 104.403 75.3315 103.652C75.3492 101.962 75.387 100.786 76.5165 99.4709C76.8825 99.1185 77.2558 98.7735 77.6369 98.4375C77.9375 98.1338 78.2366 97.8287 78.5341 97.522C78.8204 97.2406 79.1073 96.9599 79.3947 96.6797C80.5632 95.5272 81.6774 94.3537 82.7421 93.1034C83.3724 92.3855 84.0531 91.7251 84.7345 91.0561C85.4918 90.2854 86.195 89.4713 86.8997 88.6528C87.1249 88.392 87.3542 88.1342 87.5978 87.8906C87.6786 87.2979 87.7409 86.7027 87.7961 86.107C87.8325 85.7222 87.8688 85.3373 87.9063 84.9408C87.9253 84.7327 87.9444 84.5246 87.964 84.3101C88.0243 83.6521 88.0861 82.9942 88.1484 82.3364C88.2371 81.3977 88.3253 80.4588 88.413 79.52C89.1767 71.3543 89.9957 63.2044 91.1135 55.0781C91.2101 55.0781 91.3068 55.0781 91.4064 55.0781C91.7931 57.7852 92.1799 60.4922 92.5783 63.2812C93.0642 61.3689 93.0642 61.3689 93.3931 59.4578C93.4282 59.2049 93.4634 58.9521 93.4995 58.6916C93.5697 58.1691 93.6391 57.6465 93.7078 57.1238C93.743 56.8728 93.7781 56.6219 93.8143 56.3633C93.8593 56.0244 93.8593 56.0244 93.9052 55.6786C94.0431 55.0781 94.0431 55.0781 94.6291 54.1992C95.1125 57.9697 95.5959 61.7402 96.0939 65.625C96.964 64.6099 96.964 64.6099 97.8517 63.5742C97.9484 63.5742 98.0451 63.5742 98.1447 63.5742C98.3971 65.1636 98.6473 66.7532 98.8957 68.3432C98.9804 68.8834 99.0657 69.4236 99.1515 69.9637C99.2751 70.7423 99.3968 71.5213 99.518 72.3003C99.5757 72.6593 99.5757 72.6593 99.6345 73.0256C99.6697 73.2542 99.7049 73.4828 99.7412 73.7183C99.7724 73.9168 99.8036 74.1152 99.8358 74.3196C100.161 77.631 99.3841 78.6062 98.1447 82.3242C104.332 82.2275 110.52 82.1309 116.895 82.0312C117.771 80.2789 118.647 78.5266 119.55 76.7212C120.374 75.0731 120.374 75.0731 120.714 74.3934C120.947 73.9273 121.178 73.4606 121.409 72.9935C121.93 71.9409 122.457 70.9054 123.04 69.8851C124.9 66.5676 125.481 62.9271 126.233 59.2346C126.445 58.22 126.658 57.2058 126.872 56.1917C127.004 55.5648 127.134 54.9375 127.263 54.3098C127.32 54.0298 127.378 53.7498 127.438 53.4613C127.488 53.2141 127.539 52.9669 127.591 52.7122C127.735 52.1484 127.735 52.1484 128.028 51.8555Z" fill="black"/>
<path d="M156.153 141.797C156.754 142.825 156.927 143.809 157.119 144.978C157.153 145.177 157.186 145.377 157.22 145.583C157.33 146.243 157.438 146.903 157.545 147.564C157.621 148.026 157.698 148.488 157.775 148.95C157.976 150.168 158.176 151.387 158.375 152.605C158.576 153.833 158.779 155.06 158.982 156.287C159.211 157.673 159.44 159.059 159.667 160.445C159.702 160.657 159.737 160.868 159.773 161.086C159.84 161.498 159.906 161.91 159.971 162.322C160.122 163.275 160.286 164.221 160.476 165.167C160.54 165.504 160.604 165.841 160.67 166.188C160.731 166.48 160.791 166.773 160.854 167.074C160.836 168.154 160.434 168.529 159.687 169.281C159.461 169.464 159.235 169.647 159.002 169.836C158.336 170.396 157.821 170.926 157.26 171.582C155.818 173.266 154.224 174.794 152.646 176.348C151.369 177.612 150.137 178.892 148.973 180.261C148.553 180.743 148.114 181.194 147.657 181.641C150.123 179.964 152.569 178.266 154.981 176.514C155.423 176.195 155.865 175.877 156.307 175.559C157.182 174.929 158.048 174.288 158.911 173.641C159.322 173.341 159.734 173.041 160.145 172.742C160.328 172.6 160.512 172.459 160.701 172.313C160.878 172.186 161.055 172.06 161.237 171.929C161.387 171.817 161.538 171.705 161.693 171.589C163.372 171.035 165.284 171.833 166.863 172.43C167.073 172.508 167.284 172.585 167.5 172.664C167.958 172.832 168.415 173.001 168.872 173.17C170.134 173.638 171.399 174.097 172.665 174.556C172.935 174.654 173.205 174.752 173.484 174.853C176.883 176.081 180.306 177.24 183.729 178.4C184.033 178.503 184.337 178.606 184.65 178.712C188.721 180.092 192.797 181.457 196.876 182.812C196.876 182.909 196.876 183.006 196.876 183.105C194.812 182.918 192.842 182.539 190.823 182.074C190.494 182 190.165 181.925 189.826 181.848C188.751 181.604 187.677 181.357 186.604 181.11C186.237 181.026 185.871 180.942 185.493 180.856C181.436 179.93 177.386 178.979 173.351 177.959C173.025 177.877 172.699 177.794 172.364 177.71C170.819 177.318 169.276 176.922 167.734 176.52C167.183 176.378 166.632 176.236 166.081 176.095C165.832 176.028 165.584 175.962 165.328 175.894C165.1 175.836 164.871 175.777 164.636 175.717C164.44 175.666 164.243 175.614 164.04 175.561C163.38 175.476 162.932 175.568 162.306 175.781C161.862 176.148 161.862 176.148 161.482 176.627C161.332 176.803 161.182 176.98 161.027 177.161C160.869 177.352 160.711 177.544 160.548 177.74C160.381 177.937 160.215 178.134 160.043 178.336C159.697 178.746 159.351 179.156 159.007 179.568C158.233 180.49 157.45 181.404 156.666 182.318C156.521 182.488 156.375 182.658 156.226 182.834C155.368 183.836 154.496 184.822 153.608 185.797C152.737 186.755 151.91 187.735 151.1 188.745C150.051 190.043 148.946 191.267 147.804 192.48C146.427 193.943 145.118 195.436 143.874 197.016C143.263 197.754 143.263 197.754 142.56 198.446C142.339 198.665 142.117 198.884 141.889 199.109C141.689 199.294 141.488 199.479 141.282 199.67C140.444 201.334 141.762 203.96 142.294 205.666C142.455 206.189 142.616 206.712 142.777 207.234C142.905 207.646 142.905 207.646 143.035 208.067C144.691 213.431 146.3 218.808 147.874 224.197C148.083 224.913 148.292 225.629 148.502 226.344C148.798 227.351 149.091 228.358 149.384 229.366C149.472 229.665 149.56 229.964 149.651 230.272C150.074 231.738 150.421 233.15 150.587 234.668C150.303 234.484 150.303 234.484 150.014 234.295C147.61 232.747 145.144 231.326 142.658 229.916C142.033 229.559 141.412 229.196 140.795 228.826C140.105 228.417 139.439 228.08 138.706 227.742C137.069 226.941 135.738 226.138 135.121 224.349C134.718 222.805 134.518 221.234 134.317 219.653C134.23 219.072 134.142 218.491 134.052 217.91C133.869 216.697 133.697 215.483 133.535 214.267C133.328 212.712 133.1 211.162 132.864 209.612C132.682 208.414 132.507 207.215 132.335 206.016C132.253 205.444 132.17 204.872 132.085 204.3C131.969 203.5 131.861 202.699 131.756 201.897C131.703 201.547 131.703 201.547 131.649 201.191C131.363 198.874 132.158 197.02 133.164 194.959C133.304 194.671 133.443 194.384 133.587 194.087C133.735 193.787 133.882 193.486 134.034 193.176C134.347 192.532 134.66 191.888 134.973 191.243C135.132 190.917 135.291 190.59 135.455 190.253C136.234 188.649 137.002 187.04 137.769 185.431C138.04 184.866 138.31 184.301 138.58 183.736C138.773 183.331 138.967 182.925 139.161 182.52C138.566 182.926 137.97 183.333 137.375 183.74C136.867 184.088 136.357 184.434 135.848 184.78C134.704 185.558 133.568 186.337 132.47 187.178C132.305 187.302 132.14 187.426 131.97 187.553C131.536 187.881 131.108 188.215 130.681 188.551C128.308 189.649 124.783 188.186 122.297 187.628C121.857 187.531 121.418 187.433 120.978 187.336C119.91 187.099 118.842 186.861 117.774 186.621C117.791 186.787 117.807 186.954 117.824 187.125C117.966 188.57 118.108 190.014 118.25 191.459C118.385 192.829 118.521 194.2 118.657 195.57C118.951 198.534 119.244 201.497 119.47 204.467C119.504 204.886 119.537 205.304 119.571 205.723C119.628 206.456 119.68 207.19 119.725 207.924C120.12 212.843 122.457 217.451 124.344 221.954C124.623 222.622 124.897 223.291 125.171 223.961C125.256 224.162 125.342 224.363 125.43 224.57C125.884 225.693 126.156 226.489 125.685 227.637C125.221 228.045 125.221 228.045 124.631 228.357C124.315 228.528 124.315 228.528 123.992 228.703C123.771 228.816 123.55 228.93 123.322 229.047C123.1 229.166 122.878 229.285 122.649 229.408C122.101 229.701 121.549 229.988 120.997 230.273C118.541 227.844 116.231 225.302 114.071 222.606C113.128 221.475 112.126 220.404 111.109 219.339C108.9 217 108.032 215.015 107.252 211.891C107.15 211.499 107.049 211.106 106.947 210.714C106.681 209.687 106.42 208.658 106.16 207.629C105.896 206.587 105.627 205.546 105.358 204.505C104.879 202.647 104.401 200.788 103.938 198.925C103.804 198.405 103.661 197.887 103.5 197.376C102.991 195.726 103.251 194.448 103.635 192.813C103.723 192.412 103.723 192.412 103.813 192.002C104 191.153 104.195 190.306 104.389 189.459C104.517 188.885 104.644 188.31 104.771 187.735C105.004 186.686 105.238 185.638 105.478 184.591C105.526 184.381 105.574 184.171 105.623 183.955C105.745 183.471 105.898 182.994 106.056 182.52C108.18 182.683 110.258 182.948 112.353 183.333C112.633 183.383 112.913 183.434 113.201 183.485C114.085 183.644 114.968 183.805 115.852 183.966C116.442 184.073 117.033 184.179 117.624 184.286C118.054 184.364 118.054 184.364 118.493 184.443C119.059 184.545 119.626 184.645 120.192 184.744C121.312 184.941 122.415 185.145 123.519 185.417C126.013 186.01 127.689 185.24 129.933 184.149C130.502 183.885 131.072 183.625 131.643 183.364C132.045 183.18 132.447 182.995 132.848 182.809C135.125 181.755 137.441 180.799 139.759 179.843C140.669 179.468 141.578 179.09 142.486 178.713C142.89 178.546 143.294 178.378 143.697 178.211C144.237 177.988 144.775 177.764 145.313 177.539C145.5 177.467 145.686 177.395 145.879 177.32C146.866 176.927 147.568 176.634 148.133 175.716C148.25 175.534 148.366 175.352 148.486 175.164C148.599 174.975 148.712 174.786 148.829 174.591C149.06 174.221 149.292 173.851 149.525 173.482C149.638 173.298 149.75 173.113 149.867 172.923C150.294 172.266 150.294 172.266 150.796 171.618C152.174 169.822 152.71 168.382 152.972 166.151C153.036 165.685 153.036 165.685 153.102 165.21C153.248 164.145 153.382 163.078 153.517 162.012C153.627 161.182 153.74 160.353 153.852 159.524C154.185 157.063 154.503 154.601 154.819 152.138C154.97 150.967 155.122 149.796 155.273 148.625C155.568 146.349 155.861 144.073 156.153 141.797Z" fill="black"/>
<path d="M114.844 136.523C115.655 137.318 116.299 138.065 116.898 139.031C117.153 139.438 117.153 139.438 117.414 139.852C117.599 140.15 117.784 140.447 117.975 140.753C120.097 144.116 122.3 147.421 124.53 150.714C124.688 150.948 124.846 151.182 125.009 151.423C125.32 151.881 125.63 152.339 125.941 152.797C126.236 153.233 126.531 153.669 126.826 154.106C127.765 155.493 128.742 156.843 129.781 158.157C130.287 159.234 129.901 160.157 129.575 161.252C129.3 161.994 129.005 162.726 128.705 163.458C128.57 163.84 128.57 163.84 128.432 164.229C127.47 166.531 125.806 167.298 123.606 168.221C122.713 168.598 121.835 169.009 120.954 169.413C120.589 169.576 120.223 169.74 119.858 169.903C110.204 174.194 110.204 174.194 100.813 179.017C100.081 179.349 99.4041 179.485 98.613 179.625C98.2958 179.681 97.9786 179.738 97.6517 179.796C96.1898 180.041 94.7267 180.276 93.2619 180.503C92.4936 180.624 91.7299 180.755 90.9642 180.892C83.3788 182.248 83.3788 182.248 79.8397 179.905C79.4717 179.641 79.1073 179.372 78.7476 179.098C77.9319 178.497 77.0594 178.026 76.1719 177.539C76.1719 177.442 76.1719 177.346 76.1719 177.246C78.8094 177.432 81.446 177.626 84.082 177.832C83.7912 177.655 83.5004 177.477 83.2008 177.294C81.122 176.016 79.0654 174.714 77.0691 173.309C76.807 173.128 76.807 173.128 76.5397 172.943C75.328 172.078 75.328 172.078 75 171.094C77.923 171.408 80.8385 171.742 83.749 172.158C84.5572 172.253 85.321 172.274 86.1328 172.266C85.9703 172.183 85.8078 172.1 85.6404 172.015C84.9 171.637 84.1614 171.256 83.4229 170.874C83.0393 170.679 83.0393 170.679 82.6481 170.48C81.3981 169.831 80.3112 169.266 79.3945 168.164C79.4912 167.874 79.5879 167.584 79.6875 167.285C80.8099 167.128 81.9331 166.977 83.0566 166.827C83.3724 166.783 83.6881 166.739 84.0134 166.693C86.9695 166.305 89.1927 166.652 91.9664 167.683C94.4737 168.54 96.6914 167.86 99.099 166.964C99.4762 166.827 99.4762 166.827 99.8611 166.688C100.669 166.395 101.476 166.099 102.283 165.802C103.114 165.5 103.945 165.198 104.776 164.897C105.323 164.698 105.869 164.5 106.415 164.301C108.801 163.432 111.198 162.599 113.607 161.795C113.846 161.713 114.085 161.632 114.331 161.548C114.532 161.481 114.733 161.414 114.94 161.345C115.494 161.141 115.494 161.141 116.016 160.547C115.983 159.86 115.983 159.86 115.804 159.071C115.743 158.764 115.683 158.458 115.62 158.143C115.551 157.812 115.482 157.482 115.411 157.141C115.31 156.636 115.31 156.636 115.206 156.12C114.992 155.056 114.772 153.993 114.551 152.93C114.409 152.24 114.267 151.55 114.125 150.861C113.783 149.206 113.436 147.552 113.086 145.898C108.674 146.802 104.287 147.803 99.9023 148.828C99.9201 149.12 99.9378 149.412 99.9561 149.713C100.023 150.823 100.088 151.934 100.153 153.045C100.181 153.52 100.209 153.996 100.238 154.471C100.445 157.868 100.525 161.246 100.488 164.648C99.3281 165.035 98.168 165.422 96.9727 165.82C95.6816 164.556 94.4554 163.265 93.2762 161.895C93.0511 161.634 92.8217 161.376 92.5781 161.133C92.5893 160.442 92.6205 159.764 92.6685 159.075C92.6825 158.866 92.6964 158.656 92.7108 158.44C92.8753 156.14 93.1693 153.859 93.4753 151.575C93.5577 150.956 93.6397 150.337 93.7202 149.717C93.7923 149.163 93.8661 148.61 93.94 148.056C94.0365 147.132 94.062 146.24 94.043 145.312C93.8088 145.439 93.5747 145.566 93.3334 145.697C91.0136 146.873 89.3009 147.345 86.7188 147.07C86.369 147.035 86.0193 147 85.659 146.964C81.2551 146.429 81.2551 146.429 80.1851 145.15C79.8467 144.612 79.5517 144.068 79.2664 143.5C79.1638 143.308 79.0613 143.116 78.9557 142.919C78.7058 142.45 78.4635 141.977 78.2227 141.504C79.1016 141.211 79.1016 141.211 79.6499 141.433C79.8659 141.544 80.0818 141.654 80.3043 141.768C82.2992 142.606 84.2956 142.569 86.4204 142.552C87.0912 142.548 87.7607 142.558 88.4314 142.569C92.028 142.589 95.2753 141.86 98.7305 140.918C99.3961 140.74 100.062 140.563 100.727 140.386C102.878 139.81 105.025 139.22 107.172 138.629C107.92 138.424 108.668 138.219 109.416 138.014C111.226 137.518 113.035 137.021 114.844 136.523Z" fill="black"/>
<path d="M128.027 51.8555C128.124 51.8555 128.221 51.8555 128.32 51.8555C128.417 55.626 128.514 59.3965 128.613 63.2812C129.628 61.251 129.628 61.251 130.664 59.1797C130.761 59.1797 130.857 59.1797 130.957 59.1797C130.973 59.4267 130.989 59.6736 131.006 59.9281C131.067 60.8416 131.129 61.755 131.191 62.6683C131.218 63.0642 131.245 63.4601 131.271 63.856C131.308 64.424 131.347 64.9919 131.386 65.5598C131.409 65.9019 131.432 66.244 131.456 66.5965C131.457 67.3582 131.457 67.3582 131.836 67.6758C132.319 66.709 132.803 65.7422 133.301 64.7461C133.494 64.8428 133.687 64.9395 133.887 65.0391C134.207 66.798 134.213 68.529 134.18 70.3125C134.566 70.3125 134.953 70.3125 135.352 70.3125C137.597 74.8027 135.901 83.6104 135.352 88.4766C136.367 88.3315 136.367 88.3315 137.402 88.1836C136.822 91.7607 136.242 95.3379 135.645 99.0234C135.451 98.9268 135.258 98.8301 135.059 98.7305C134.873 97.9843 134.873 97.9843 134.729 97.0459C134.68 96.7392 134.631 96.4326 134.58 96.1166C134.485 95.3156 134.452 94.5554 134.473 93.75C134.279 93.75 134.086 93.75 133.887 93.75C133.817 93.9554 133.747 94.1609 133.675 94.3726C132.579 96.8402 130.396 99.0226 128.668 101.093C128.538 101.249 128.408 101.406 128.275 101.568C127.486 102.499 126.681 103.298 125.684 104.004C125.49 104.004 125.297 104.004 125.098 104.004C124.614 101.587 124.131 99.1699 123.633 96.6797C123.246 96.9697 122.859 97.2598 122.461 97.5586C122.268 97.5586 122.074 97.5586 121.875 97.5586C121.77 95.2635 122.163 93.2021 122.662 90.9668C122.742 90.6058 122.821 90.2448 122.902 89.8729C123.362 87.8176 123.851 85.775 124.438 83.7524C124.497 83.5517 124.555 83.351 124.614 83.1442C124.873 82.2986 125.049 81.7874 125.684 81.1523C126.302 83.2706 126.543 85.4256 126.798 87.6104C126.873 88.2514 126.95 88.8921 127.028 89.5329C127.285 91.6848 127.513 93.8346 127.662 95.9973C127.715 96.7247 127.715 96.7247 128.027 97.5586C132.733 90.9875 133.108 83.1258 133.008 75.293C132.672 75.583 132.672 75.583 132.33 75.8789C131.543 76.4648 131.543 76.4648 130.664 76.4648C130.471 75.208 130.277 73.9512 130.078 72.6562C128.296 74.8245 126.52 76.9972 124.781 79.2C124.268 79.8492 123.748 80.4808 123.208 81.1089C121.443 83.2464 120.488 85.5164 119.507 88.0955C119.404 88.3674 119.3 88.6393 119.194 88.9194C119.058 89.2886 119.058 89.2886 118.919 89.6652C118.652 90.2344 118.652 90.2344 118.066 90.5273C117.339 87.8653 116.895 85.3779 116.895 82.6172C111.287 82.6172 105.68 82.6172 99.9023 82.6172C99.9023 82.5205 99.9023 82.4238 99.9023 82.3242C108.313 82.1792 108.313 82.1792 116.895 82.0312C117.771 80.2789 118.647 78.5266 119.55 76.7212C120.374 75.0731 120.374 75.0731 120.714 74.3934C120.947 73.9273 121.178 73.4606 121.409 72.9935C121.93 71.9409 122.457 70.9054 123.04 69.8851C124.9 66.5676 125.481 62.9271 126.233 59.2346C126.445 58.22 126.658 57.2058 126.872 56.1917C127.004 55.5648 127.134 54.9375 127.262 54.3098C127.32 54.0298 127.378 53.7498 127.438 53.4613C127.488 53.2141 127.539 52.9669 127.591 52.7122C127.734 52.1484 127.734 52.1484 128.027 51.8555Z" fill="black"/>
<path d="M71.1914 171.973C72.6824 172.439 73.7914 173.363 75 174.316C74.8731 174.454 74.7462 174.592 74.6155 174.734C74.4523 174.917 74.2892 175.099 74.1211 175.287C73.9579 175.467 73.7948 175.647 73.6267 175.833C73.1566 176.376 73.1566 176.376 73.2422 177.246C73.7405 177.794 73.7405 177.794 74.4038 178.33C75.3286 179.114 76.2083 179.915 77.0702 180.767C79.2615 182.71 81.2293 183.845 84.2085 183.686C86.8223 183.461 89.4168 183.041 91.9877 182.521C93.0735 182.307 93.8631 182.198 94.9219 182.52C94.5932 183.045 94.2634 183.57 93.9331 184.094C93.7496 184.387 93.566 184.679 93.3769 184.98C92.5201 186.271 92.5201 186.271 91.7336 186.462C91.5168 186.496 91.3 186.531 91.0767 186.566C89.4122 186.908 88.0867 187.674 86.8263 188.81C86.013 189.516 85.541 189.845 84.4368 189.839C83.8284 189.768 83.2206 189.691 82.6138 189.608C81.708 189.549 81.1996 189.66 80.365 189.99C77.9884 190.911 75.6705 189.979 73.3269 189.259C72.4186 188.965 72.4186 188.965 71.6927 188.826C69.5052 188.291 68.0512 186.026 66.7969 184.277C66.6469 184.002 66.497 183.726 66.3425 183.442C65.9765 182.766 65.9765 182.766 65.3069 182.593C65.0855 182.569 64.8642 182.544 64.6362 182.52C63.2391 182.287 62.7024 181.848 61.8164 180.762C62.2571 179.466 63.2604 178.931 64.3616 178.235C64.7576 177.978 65.1535 177.721 65.5495 177.464C65.7541 177.332 65.9587 177.2 66.1695 177.065C67.1966 176.402 68.2144 175.726 69.2322 175.049C69.4196 174.925 69.607 174.802 69.8 174.675C70.5154 174.201 71.1687 173.753 71.7773 173.145C71.584 172.758 71.3906 172.371 71.1914 171.973Z" fill="black"/>
<path d="M100.539 227.826C100.786 227.876 101.033 227.926 101.288 227.977C102.072 228.136 102.855 228.298 103.638 228.461C104.158 228.567 104.678 228.672 105.199 228.777C107.353 229.216 109.497 229.664 111.629 230.2C113.383 230.613 115.044 230.669 116.84 230.621C117.13 230.617 117.42 230.614 117.719 230.609C118.421 230.599 119.122 230.585 119.824 230.567C119.324 231.626 118.711 232.389 117.92 233.258C117.687 233.516 117.455 233.774 117.215 234.04C116.197 235.083 115.453 235.026 114.022 235.108C113.817 235.119 113.612 235.131 113.401 235.143C112.722 235.182 112.044 235.218 111.365 235.254C111.017 235.273 111.017 235.273 110.663 235.292C106.974 235.491 103.284 235.639 99.5911 235.748C99.2463 235.759 99.2463 235.759 98.8945 235.77C98.2444 235.79 97.5942 235.808 96.944 235.825C96.5739 235.835 96.2038 235.845 95.8225 235.856C94.9219 235.84 94.9219 235.84 94.043 235.547C93.4622 235.618 93.4622 235.618 92.8448 235.785C92.615 235.84 92.3852 235.895 92.1484 235.952C91.6669 236.072 91.1855 236.193 90.7042 236.314C90.474 236.369 90.2438 236.424 90.0066 236.481C89.6928 236.56 89.6928 236.56 89.3727 236.64C88.7012 236.728 88.2387 236.629 87.5977 236.426C87.8877 235.943 88.1777 235.459 88.4766 234.961C88.2915 235.014 88.1065 235.068 87.9158 235.122C85.6799 235.751 83.4267 236.251 81.1523 236.719C81.7926 235.282 82.8523 234.336 83.9539 233.24C84.1527 233.036 84.3515 232.833 84.5564 232.623C86.8376 230.34 89.0138 228.945 92.1387 228.113C92.3981 228.037 92.6576 227.961 92.9249 227.883C95.5688 227.149 97.8717 227.265 100.539 227.826Z" fill="black"/>
<path d="M77.3438 153.223C77.7063 153.313 78.0688 153.404 78.4424 153.497C79.9713 153.869 81.4263 153.831 82.9914 153.772C83.7891 153.809 83.7891 153.809 84.375 154.395C84.2934 155.183 84.0486 155.617 83.606 156.281C83.1369 156.997 83.1369 156.997 83.2466 157.764C83.4315 158.524 83.4315 158.524 84.0317 158.918C84.2658 159.027 84.5 159.135 84.7412 159.247C85.0052 159.37 85.2692 159.493 85.5412 159.62C86.4671 159.977 87.3866 160.213 88.3484 160.455C90.9181 161.201 92.3059 163.027 93.6218 165.271C93.7608 165.549 93.8998 165.827 94.043 166.113C93.8689 166.06 93.6948 166.007 93.5154 165.952C93.2726 165.878 93.0297 165.805 92.7795 165.729C92.545 165.657 92.3105 165.586 92.0689 165.512C91.7535 165.421 91.4382 165.329 91.1133 165.234C90.8875 165.155 90.6617 165.076 90.4291 164.994C88.1582 164.261 86.276 164.387 83.9355 164.722C83.2611 164.809 82.5867 164.896 81.9122 164.983C81.5901 165.026 81.268 165.069 80.9361 165.114C79.5459 165.289 78.154 165.41 76.7578 165.527C76.9512 166.494 77.1445 167.461 77.3438 168.457C75.9098 168.893 74.4986 169.199 73.0179 169.436C72.2808 169.653 71.9727 169.926 71.4844 170.508C71.0989 170.179 70.7146 169.85 70.3308 169.519C70.1167 169.336 69.9025 169.152 69.6819 168.963C69.1406 168.457 69.1406 168.457 68.8477 167.871C69.6211 167.871 70.3945 167.871 71.1914 167.871C71.029 167.571 70.8666 167.271 70.6993 166.961C70.4849 166.563 70.2705 166.164 70.0562 165.765C69.9493 165.568 69.8424 165.371 69.7323 165.167C69.2833 164.331 68.8646 163.52 68.5181 162.634C68.1992 161.86 67.7873 161.575 67.0898 161.133C67.571 160.046 68.1428 159.441 69.175 158.817C70.5344 158.301 71.938 158.216 73.3818 158.121C74.7985 158.018 75.8 157.771 77.0508 157.031C77.0474 156.781 77.044 156.53 77.0405 156.273C77.0378 155.949 77.0352 155.625 77.0325 155.292C77.0291 154.969 77.0257 154.646 77.0222 154.313C77.0508 153.516 77.0508 153.516 77.3438 153.223Z" fill="black"/>
<path d="M111.328 105.762C111.776 105.758 111.776 105.758 112.232 105.755C113.273 105.784 113.907 105.879 114.844 106.348C115.964 107.555 116.77 109.027 117.502 110.494C117.783 111.077 117.783 111.077 118.229 111.755C118.457 113.059 117.712 114.015 117.041 115.1C116.896 115.336 116.75 115.572 116.601 115.815C115.137 118.023 113.595 119.104 111.035 119.824C109.83 120.017 108.835 119.908 107.645 119.679C106.252 119.474 104.861 119.424 103.455 119.366C103.169 119.354 102.884 119.341 102.589 119.328C101.889 119.297 101.189 119.267 100.488 119.238C100.764 118.158 101.059 117.087 101.367 116.016C101.425 115.811 101.484 115.607 101.544 115.397C102.415 112.402 103.345 109.882 105.469 107.519C105.649 107.302 105.83 107.084 106.016 106.859C107.677 105.098 109.076 105.376 111.328 105.762ZM113.379 108.984C113.476 109.274 113.572 109.564 113.672 109.863C113.672 109.573 113.672 109.283 113.672 108.984C113.575 108.984 113.479 108.984 113.379 108.984ZM107.812 109.863C107.16 110.65 107.16 110.65 107.263 111.346C107.48 111.956 107.48 111.956 108.069 112.298C108.735 112.582 108.735 112.582 109.57 112.207C109.769 111.357 109.769 111.357 109.863 110.449C109.327 109.793 109.327 109.793 108.545 109.772C108.303 109.802 108.062 109.832 107.812 109.863ZM113.965 109.863C113.989 110.047 114.014 110.232 114.039 110.422C114.235 112.07 114.238 113.5 113.965 115.137C114.74 114.381 115.413 113.696 116.016 112.793C115.973 111.547 115.053 110.738 114.258 109.863C114.161 109.863 114.064 109.863 113.965 109.863Z" fill="black"/>
<path d="M144.337 232.03C146.297 232.971 148.286 233.831 150.293 234.668C150.293 234.862 150.293 235.055 150.293 235.254C150.098 235.257 149.903 235.26 149.702 235.263C147.639 235.295 145.576 235.329 143.512 235.363C142.746 235.376 141.981 235.388 141.215 235.4C139.016 235.434 136.817 235.475 134.619 235.526C133.645 235.546 132.672 235.559 131.699 235.571C131.127 235.584 130.556 235.597 129.984 235.611C129.606 235.613 129.606 235.613 129.22 235.614C126.896 235.688 125.321 236.712 123.546 238.139C122.754 238.77 122.754 238.77 122.168 238.77C122.361 237.803 122.555 236.836 122.754 235.84C122.399 235.904 122.399 235.904 122.036 235.968C121.723 236.023 121.41 236.077 121.088 236.133C120.778 236.187 120.469 236.242 120.15 236.298C119.341 236.412 118.589 236.45 117.773 236.426C120.11 233.284 123.595 231.179 126.855 229.102C127.116 228.935 127.377 228.768 127.645 228.596C132.904 225.69 139.617 229.761 144.337 232.03Z" fill="black"/>
<path d="M66.5394 169.527C67.174 169.982 67.5917 170.451 68.0603 171.075C68.2943 171.378 68.2943 171.378 68.5329 171.688C68.6368 171.878 68.7407 172.069 68.8477 172.266C68.751 172.556 68.6543 172.846 68.5547 173.144C67.9039 173.459 67.9039 173.459 67.0498 173.743C66.7414 173.846 66.4331 173.949 66.1154 174.055C65.6279 174.211 65.6279 174.211 65.1306 174.371C64.8113 174.479 64.492 174.587 64.163 174.698C62.635 175.199 61.3875 175.551 59.7656 175.488C59.8341 174.911 59.9039 174.335 59.9831 173.759C60.0726 173.114 60.0726 173.114 60.0769 172.339C60.4604 171.418 61.0902 171.185 61.9743 170.797C62.2123 170.702 62.4502 170.606 62.6953 170.508C63.1066 170.333 63.1066 170.333 63.5262 170.154C65.7198 169.275 65.7198 169.275 66.5394 169.527Z" fill="black"/>
<path d="M104.858 129.52C105.179 129.552 105.5 129.585 105.83 129.618C106.845 129.721 107.86 129.826 108.875 129.931C109.567 130.002 110.259 130.073 110.952 130.143C112.64 130.315 114.328 130.489 116.016 130.664C114.865 131.444 113.624 131.328 112.29 131.316C111.904 131.316 111.904 131.316 111.51 131.317C110.661 131.316 109.811 131.312 108.961 131.307C108.372 131.306 107.783 131.305 107.193 131.305C105.642 131.302 104.091 131.297 102.54 131.29C100.958 131.284 99.3749 131.281 97.7921 131.278C94.6869 131.272 91.5817 131.262 88.4766 131.25C90.0097 130.439 91.6313 130.272 93.331 129.994C93.9256 129.896 94.5193 129.794 95.113 129.691C95.4986 129.627 95.8843 129.563 96.27 129.499C96.7881 129.412 96.7881 129.412 97.3167 129.324C99.8534 129.041 102.328 129.254 104.858 129.52Z" fill="black"/>
<path d="M72.9499 104.883C73.1432 104.979 73.3366 105.076 73.5358 105.176C73.5079 106.316 73.4767 107.456 73.4428 108.596C73.4264 109.17 73.4124 109.744 73.3985 110.317C73.3243 112.745 73.0879 115.089 72.6569 117.48C72.4635 117.48 72.2702 117.48 72.071 117.48C70.4228 115.761 70.3452 113.78 70.3681 111.511C70.3686 111.185 70.3692 110.859 70.3698 110.524C70.4392 108.22 70.7287 106.883 72.4372 105.266C72.6064 105.14 72.7755 105.013 72.9499 104.883Z" fill="black"/>
<path d="M135.938 123.633C135.938 123.73 135.938 123.826 135.938 123.926C129.081 124.679 122.219 125.274 115.338 125.757C114.973 125.783 114.608 125.809 114.232 125.836C113.18 125.91 112.128 125.983 111.075 126.055C110.764 126.077 110.452 126.098 110.131 126.121C108.183 126.251 106.249 126.295 104.297 126.27C104.297 126.173 104.297 126.076 104.297 125.977C114.819 124.519 125.306 123.544 135.938 123.633Z" fill="black"/>
<path d="M64.5081 162.689C66.1176 163.655 66.8762 164.738 67.6758 166.406C67.3502 166.46 67.0247 166.513 66.6893 166.568C64.3311 166.963 62.0322 167.379 59.7656 168.164C59.9168 166.274 60.4015 165.16 61.7672 163.835C63.2697 162.568 63.2697 162.568 64.5081 162.689Z" fill="black"/>
<path d="M120.41 127.148C120.41 127.245 120.41 127.342 120.41 127.441C113.175 128.052 105.939 128.643 98.6938 129.126C98.4127 129.145 98.1316 129.164 97.842 129.183C97.0449 129.237 96.2478 129.289 95.4506 129.341C95.1022 129.364 95.1022 129.364 94.7468 129.388C93.4348 129.471 92.135 129.506 90.8203 129.492C94.8211 127.045 101.763 127.756 106.265 127.559C107.061 127.524 107.856 127.485 108.651 127.447C112.571 127.257 116.485 127.074 120.41 127.148Z" fill="black"/>
<path d="M44.5312 127.441C47.7719 127.39 50.9543 127.529 54.1809 127.826C54.6278 127.866 55.0747 127.905 55.5217 127.945C58.2518 128.192 60.9791 128.464 63.7024 128.778C64.002 128.811 64.3017 128.845 64.6104 128.879C64.8844 128.913 65.1584 128.946 65.4408 128.98C65.6762 129.009 65.9116 129.037 66.1542 129.066C66.8368 129.207 67.3619 129.447 67.9688 129.785C63.0819 129.63 58.2421 129.17 53.3812 128.657C52.3793 128.552 51.3772 128.448 50.3752 128.345C48.427 128.143 46.4791 127.939 44.5312 127.734C44.5312 127.637 44.5312 127.541 44.5312 127.441Z" fill="black"/>
<path d="M67.3828 132.129C56.2531 134.953 56.2531 134.953 51.0494 136.15C50.6606 136.24 50.2721 136.331 49.8837 136.422C49.3468 136.548 48.809 136.67 48.2712 136.792C47.8215 136.896 47.8215 136.896 47.3628 137.001C46.5971 137.107 46.1334 137.067 45.4102 136.816C49.9995 135.507 54.6145 134.377 59.2712 133.337C59.662 133.25 59.662 133.25 60.0607 133.161C61.6217 132.813 63.1831 132.467 64.7461 132.129C65.1478 132.031 65.1478 132.031 65.5577 131.931C66.2581 131.829 66.7161 131.907 67.3828 132.129Z" fill="black"/>
<path d="M93.6936 130.218C94.5046 130.411 95.2467 130.404 96.0806 130.4C96.4328 130.399 96.785 130.398 97.1479 130.397C97.7183 130.393 97.7183 130.393 98.3002 130.39C98.6973 130.388 99.0945 130.387 99.4916 130.386C100.963 130.382 102.435 130.375 103.907 130.368C105.148 130.362 106.39 130.358 107.631 130.355C108.208 130.353 108.785 130.349 109.362 130.346C111.596 130.34 113.793 130.436 116.016 130.664C114.865 131.444 113.624 131.328 112.29 131.317C111.904 131.317 111.904 131.317 111.51 131.317C110.661 131.317 109.811 131.312 108.961 131.307C108.372 131.306 107.783 131.305 107.193 131.305C105.642 131.303 104.091 131.297 102.54 131.29C100.958 131.284 99.3749 131.282 97.7921 131.279C94.6869 131.272 91.5817 131.262 88.4766 131.25C89.4554 130.735 90.3106 130.498 91.4062 130.316C91.8594 130.238 91.8594 130.238 92.3218 130.157C93.1641 130.078 93.1641 130.078 93.6936 130.218Z" fill="black"/>
<path d="M65.625 135.352C65.8184 135.448 66.0117 135.545 66.2109 135.645C62.6747 137.671 59.1221 139.668 55.5378 141.608C55.17 141.807 54.8027 142.008 54.4358 142.209C53.9199 142.491 53.4021 142.77 52.8843 143.049C52.5866 143.21 52.2889 143.372 51.9821 143.538C51.747 143.64 51.5118 143.742 51.2695 143.848C51.0762 143.751 50.8828 143.654 50.6836 143.555C54.532 141.121 58.5123 138.937 62.5305 136.798C62.7402 136.686 62.9499 136.574 63.166 136.459C63.9782 136.03 64.7517 135.643 65.625 135.352Z" fill="black"/>
</svg>
