<svg width="300" height="300" viewBox="0 0 300 300" fill="none" xmlns="http://www.w3.org/2000/svg">
<path d="M154.395 66.5041C157.618 69.2028 157.654 72.941 158.002 76.8495C158.799 85.1947 159.969 93.4584 161.719 101.66C161.799 102.039 161.799 102.039 161.882 102.425C162.309 104.43 162.745 106.433 163.184 108.435C163.273 108.846 163.273 108.846 163.364 109.265C164.911 118.867 164.911 118.867 169.629 126.856C172.13 128.371 174.924 128.21 177.741 128.174C177.989 128.172 178.237 128.171 178.492 128.169C184.176 128.129 189.778 127.577 195.41 126.856C195.853 126.8 196.295 126.745 196.737 126.689C201.812 126.046 206.753 125.136 211.725 123.919C214.761 123.178 217.821 122.55 220.88 121.912C221.158 121.853 221.436 121.795 221.722 121.735C222.518 121.568 223.315 121.402 224.111 121.237C224.348 121.187 224.585 121.137 224.829 121.086C228.198 120.391 231.587 119.709 234.662 121.657C236.475 123.075 237.283 124.717 237.561 126.984C237.65 128.666 237.678 130.348 236.639 131.756C235.151 133.287 233.493 134.188 231.592 135.132C231.254 135.304 230.917 135.475 230.569 135.652C227.235 137.342 223.862 138.956 220.498 140.585C213.613 143.921 206.967 147.548 200.673 151.911C199.178 152.946 197.673 153.964 196.158 154.968C195.965 155.096 195.773 155.223 195.575 155.354C194.802 155.867 194.029 156.379 193.254 156.89C186.445 160.878 186.445 160.878 182.282 167.029C182.09 170.993 183.851 174.312 185.449 177.832C185.687 178.363 185.925 178.894 186.163 179.426C188.739 185.176 191.426 190.873 194.133 196.562C197.099 202.797 200.036 209.047 202.913 215.324C203.191 215.93 203.47 216.536 203.749 217.142C204.163 218.04 204.575 218.938 204.987 219.837C205.172 220.239 205.172 220.239 205.362 220.65C205.475 220.897 205.588 221.145 205.704 221.4C205.852 221.723 205.852 221.723 206.004 222.053C206.909 224.272 206.898 226.952 206.085 229.193C205.333 230.828 204.271 232.425 202.637 233.259C200.706 233.845 198.472 233.856 196.655 232.929C194.313 231.402 192.563 229.194 190.833 227.034C190.091 226.116 189.329 225.219 188.562 224.323C187.443 223.01 186.362 221.674 185.303 220.313C183.878 218.482 182.4 216.705 180.889 214.945C180.446 214.427 180.007 213.906 179.567 213.386C178.143 211.702 176.714 210.063 175.129 208.526C174.615 208.013 174.145 207.481 173.676 206.928C171.614 204.535 169.326 202.296 166.918 200.253C166.396 199.796 165.918 199.315 165.436 198.816C164.367 197.73 163.2 196.787 162.013 195.833C161.26 195.221 160.521 194.595 159.786 193.962C158.172 192.573 156.517 191.252 154.816 189.972C154.617 189.822 154.418 189.672 154.213 189.517C154.025 189.377 153.837 189.236 153.643 189.092C153.477 188.968 153.311 188.845 153.14 188.717C151.829 187.836 150.698 187.511 149.121 187.793C145.026 189.247 141.715 192.524 138.574 195.41C138.197 195.741 137.819 196.071 137.439 196.399C134.009 199.401 130.775 202.578 127.556 205.805C126.762 206.6 125.966 207.394 125.17 208.188C124.659 208.7 124.148 209.212 123.636 209.723C123.402 209.958 123.167 210.192 122.925 210.433C121.699 211.664 120.518 212.916 119.387 214.235C118.689 215.043 117.955 215.817 117.224 216.596C115.9 218.018 114.652 219.482 113.436 220.999C112.784 221.788 112.101 222.532 111.401 223.279C110.152 224.633 109.032 226.057 107.922 227.527C104.25 232.372 104.25 232.372 102.704 233.075C99.8298 233.428 97.2719 233.212 94.8121 231.537C93.5132 230.469 92.7868 229.307 92.4684 227.652C92.2455 223.995 93.8928 220.276 95.5657 217.124C96.0685 216.177 96.5554 215.221 97.0448 214.267C97.1414 214.08 97.238 213.892 97.3375 213.699C98.1281 212.161 98.8471 210.6 99.5362 209.015C100.4 207.042 101.344 205.13 102.356 203.229C103.894 200.337 105.318 197.402 106.715 194.441C107.318 193.164 107.926 191.89 108.534 190.615C109.734 188.097 110.93 185.576 112.123 183.054C112.547 182.159 112.972 181.265 113.397 180.372C113.925 179.264 114.449 178.155 114.972 177.045C115.122 176.731 115.273 176.417 115.427 176.094C116.968 172.806 118.266 169.502 117.774 165.82C117.381 164.817 117.381 164.817 116.602 164.063C116.465 163.901 116.328 163.739 116.187 163.573C114.322 161.511 111.949 160.003 109.69 158.411C109.01 157.928 108.336 157.437 107.665 156.942C100.644 151.771 93.0611 147.5 85.3639 143.427C85.056 143.264 85.056 143.264 84.7419 143.097C81.1795 141.215 77.5825 139.407 73.9635 137.636C73.1024 137.214 72.2422 136.79 71.3823 136.366C70.9457 136.152 70.5086 135.938 70.0711 135.726C69.4234 135.411 68.7779 135.092 68.1325 134.773C67.9399 134.68 67.7473 134.588 67.5489 134.492C65.5721 133.504 63.7986 132.225 62.8888 130.154C62.1637 127.674 62.7661 125.315 63.8673 123.047C64.6223 121.709 65.6956 120.873 67.1249 120.343C71.1596 119.264 75.5133 120.62 79.451 121.519C81.2878 121.938 83.1287 122.339 84.969 122.741C85.3294 122.821 85.6898 122.9 86.0611 122.982C92.8065 124.461 99.6074 125.501 106.439 126.489C106.74 126.533 107.041 126.577 107.351 126.622C113.045 127.445 118.697 128.135 124.457 128.101C124.861 128.103 125.264 128.105 125.668 128.108C128.52 128.142 128.52 128.142 131.25 127.442C131.675 126.775 131.675 126.775 131.836 125.977C131.961 125.746 132.087 125.516 132.216 125.279C133.358 123.123 133.923 120.978 134.432 118.604C134.507 118.259 134.582 117.913 134.66 117.557C135.507 113.616 136.244 109.655 136.963 105.689C137.033 105.303 137.103 104.918 137.174 104.533C138.469 97.4264 139.636 90.3082 140.624 83.1525C140.72 82.4518 140.818 81.7513 140.915 81.0507C141.035 80.1926 141.15 79.3341 141.263 78.4751C142.456 69.6154 142.456 69.6154 145.268 67.2136C147.916 65.3815 151.552 64.9188 154.395 66.5041ZM146.777 71.1916C146.606 71.9561 146.606 71.9561 146.504 72.8807C146.455 73.2529 146.407 73.6251 146.356 74.0085C146.33 74.2147 146.304 74.4209 146.277 74.6333C146.121 75.8358 145.949 77.036 145.778 78.2365C145.722 78.6397 145.722 78.6397 145.664 79.0511C141.771 106.699 141.771 106.699 139.685 114.544C139.448 115.45 139.231 116.36 139.018 117.272C137.749 122.611 135.986 127.408 131.855 131.194C119.252 138.461 88.5065 127.937 75.4761 124.924C72.1314 124.128 72.1314 124.128 68.8478 124.805C68.0274 125.51 67.4986 126.305 67.0533 127.295C67.109 128.41 67.7808 129.044 68.5548 129.785C69.2775 130.286 70.0382 130.677 70.8253 131.067C71.0438 131.179 71.2623 131.291 71.4875 131.406C73.1767 132.265 74.8915 133.067 76.6105 133.864C78.8851 134.924 81.0979 136.094 83.3088 137.281C83.8452 137.568 84.3822 137.855 84.9195 138.141C89.0114 140.319 93.0295 142.583 96.9728 145.02C97.2632 145.199 97.5536 145.378 97.8528 145.563C104.695 149.796 111.308 154.201 117.481 159.375C117.735 159.587 117.99 159.8 118.252 160.018C120.125 161.615 121.566 163.104 121.802 165.637C122.473 176.825 113.602 190.3 108.726 200.031C108.14 201.2 107.555 202.37 106.97 203.54C106.722 204.038 106.473 204.535 106.224 205.032C106.1 205.281 105.975 205.53 105.847 205.787C104.714 208.054 104.714 208.054 104.339 208.803C104.092 209.296 103.846 209.789 103.6 210.282C103.03 211.421 102.461 212.56 101.89 213.698C100.782 215.906 99.6845 218.119 98.6207 220.349C98.4343 220.736 98.4343 220.736 98.2442 221.13C97.0156 223.641 97.0156 223.641 96.5882 226.373C96.5809 226.701 96.5809 226.701 96.5734 227.036C96.7097 227.806 96.9447 228.043 97.5587 228.516C98.0808 228.787 98.0808 228.787 98.6573 228.937C98.936 229.027 98.936 229.027 99.2204 229.119C100.766 229.08 101.928 228.012 102.958 226.957C103.297 226.588 103.634 226.216 103.967 225.842C104.146 225.646 104.325 225.449 104.51 225.247C104.866 224.855 105.221 224.462 105.575 224.068C105.977 223.622 106.384 223.18 106.793 222.74C108.158 221.262 109.403 219.715 110.633 218.125C111.812 216.61 113.055 215.159 114.326 213.721C115.194 212.736 116.022 211.731 116.831 210.696C118.099 209.101 119.494 207.664 120.941 206.232C121.201 205.974 121.46 205.715 121.728 205.449C123.213 203.985 124.706 202.608 126.354 201.329C127.621 200.3 128.793 199.17 129.98 198.05C131.048 197.044 132.127 196.061 133.24 195.106C133.991 194.439 134.72 193.752 135.45 193.063C137.407 191.219 139.379 189.444 141.504 187.793C141.765 187.585 142.026 187.378 142.295 187.164C144.987 185.098 148.256 183.291 151.758 183.692C156.758 184.844 161.196 189.195 164.67 192.795C165.212 193.337 165.77 193.84 166.35 194.34C169.724 197.273 172.905 200.409 176.073 203.56C176.448 203.933 176.823 204.305 177.199 204.677C179.41 206.867 181.464 209.084 183.399 211.524C184.031 212.27 184.676 213.004 185.321 213.739C186.777 215.408 188.178 217.11 189.551 218.848C194.16 225.492 194.16 225.492 200.684 229.395C201.503 228.885 202.008 228.503 202.441 227.637C202.818 224.312 200.869 221.205 199.467 218.292C198.46 216.193 197.509 214.072 196.564 211.945C195.154 208.778 193.704 205.631 192.224 202.496C192.126 202.288 192.028 202.08 191.927 201.866C191.041 199.989 190.154 198.114 189.264 196.239C176.937 170.253 176.937 170.253 178.748 164.118C180.793 160.64 183.741 158.298 186.974 155.949C187.558 155.524 188.14 155.096 188.721 154.667C195.498 149.696 202.703 145.535 210.115 141.581C212.365 140.381 214.592 139.146 216.815 137.897C220.264 135.962 223.768 134.145 227.299 132.366C229.351 131.328 231.335 130.258 233.203 128.906C233.108 127.197 233.034 126.061 231.738 124.805C230.352 124.112 228.659 124.554 227.208 124.878C226.843 124.959 226.478 125.039 226.102 125.122C225.705 125.212 225.309 125.301 224.912 125.391C224.495 125.483 224.078 125.575 223.661 125.667C222.777 125.863 221.893 126.059 221.009 126.257C218.712 126.769 216.413 127.272 214.114 127.775C213.887 127.824 213.66 127.874 213.426 127.925C209.548 128.772 205.664 129.577 201.764 130.316C201.525 130.362 201.287 130.408 201.041 130.455C193.773 131.843 186.635 132.187 179.245 132.199C178.226 132.202 177.207 132.211 176.188 132.221C175.53 132.223 174.872 132.224 174.214 132.225C173.914 132.229 173.614 132.232 173.305 132.236C170.816 132.228 168.708 131.893 166.699 130.371C166.506 130.371 166.313 130.371 166.113 130.371C166.039 130.22 165.965 130.068 165.888 129.912C165.61 129.363 165.322 128.818 165.03 128.276C160.151 119.095 158.798 108.388 156.958 98.2729C156.92 98.0655 156.883 97.8581 156.844 97.6445C156.053 93.3015 155.283 88.9555 154.602 84.5937C154.532 84.1492 154.532 84.1492 154.46 83.6957C154.147 81.6447 153.947 79.5953 153.79 77.527C153.652 73.7581 153.652 73.7581 152.237 70.3882C150.51 69.0608 148.183 69.7861 146.777 71.1916Z" fill="black"/>
<path d="M149.872 91.9189C150.844 92.4175 150.965 92.9763 151.295 93.9835C151.647 95.3227 151.794 96.5419 151.789 97.9296C151.788 98.4847 151.788 98.4847 151.788 99.0509C151.786 99.4588 151.784 99.8666 151.782 100.274C151.781 100.706 151.78 101.137 151.779 101.568C151.777 102.496 151.774 103.424 151.771 104.352C151.766 105.821 151.763 107.29 151.76 108.759C151.753 112.936 151.743 117.114 151.73 121.291C151.722 123.599 151.717 125.907 151.715 128.214C151.713 129.673 151.708 131.131 151.702 132.589C151.698 133.499 151.697 134.41 151.697 135.32C151.696 135.74 151.695 136.16 151.692 136.58C151.634 141.209 151.634 141.209 153.516 145.312C156.312 147.2 159.679 147.094 162.897 146.506C163.519 146.375 164.139 146.24 164.758 146.1C165.285 145.985 165.285 145.985 165.823 145.868C166.628 145.692 167.433 145.512 168.238 145.331C169.237 145.106 170.237 144.887 171.238 144.672C181.519 142.457 191.128 139.578 200.851 135.589C206.139 133.421 206.139 133.421 208.594 133.594C209.18 133.887 209.18 133.887 209.418 134.399C209.501 135.394 209.227 135.756 208.594 136.523C207.081 137.447 205.402 138.045 203.736 138.625C203.501 138.708 203.265 138.791 203.023 138.876C202.262 139.144 201.5 139.409 200.739 139.673C200.345 139.81 200.345 139.81 199.943 139.95C195.537 141.482 191.115 142.885 186.621 144.141C186.234 144.25 185.848 144.36 185.461 144.469C181.262 145.66 177.057 146.823 172.83 147.911C172.557 147.982 172.284 148.053 172.002 148.125C170.676 148.467 169.349 148.807 168.021 149.141C161.874 150.402 161.874 150.402 157.031 153.809C156.102 159.358 160.742 164.983 163.76 169.26C164.23 169.913 164.705 170.562 165.183 171.209C165.642 171.836 166.088 172.473 166.535 173.109C167.699 174.761 168.906 176.375 170.139 177.977C172.296 180.781 174.354 183.624 176.323 186.563C177.111 187.735 177.903 188.904 178.695 190.074C180.559 192.827 182.421 195.581 184.277 198.34C184.436 198.576 184.595 198.812 184.759 199.055C185.236 199.763 185.711 200.471 186.186 201.18C186.33 201.393 186.473 201.606 186.621 201.825C189.888 206.71 189.888 206.71 190.137 208.887C189.862 209.711 189.862 209.711 189.551 210.352C188.8 210.48 188.8 210.48 187.793 210.352C185.852 208.958 184.703 206.757 183.508 204.749C183.302 204.407 183.096 204.066 182.889 203.725C182.473 203.037 182.057 202.348 181.643 201.659C180.817 200.289 179.976 198.929 179.132 197.571C178.823 197.074 178.515 196.577 178.206 196.08C178.051 195.83 177.896 195.58 177.736 195.322C177.21 194.474 176.689 193.623 176.167 192.772C174.07 189.367 171.894 186.067 169.51 182.857C168.709 181.775 167.925 180.682 167.139 179.59C166.821 179.15 166.504 178.711 166.187 178.271C164.282 175.635 164.282 175.635 163.806 174.976C163.489 174.536 163.171 174.097 162.854 173.658C162.058 172.557 161.264 171.455 160.474 170.351C158.872 168.117 157.255 165.894 155.603 163.696C155.453 163.494 155.304 163.291 155.149 163.083C153.947 161.499 152.625 159.758 150.586 159.357C149.068 159.275 147.933 159.885 146.681 160.696C145.567 161.735 144.892 162.958 144.122 164.264C141.275 168.97 138.019 173.337 134.704 177.722C134.217 178.368 133.734 179.016 133.253 179.667C131.964 181.404 130.666 183.116 129.273 184.771C126.027 188.645 123.495 192.978 120.923 197.314C118.662 201.125 116.119 205.332 112.793 208.301C111.847 208.436 111.3 208.455 110.468 207.971C109.996 207.14 110.24 206.578 110.449 205.664C111.58 203.135 113.367 200.923 115.017 198.717C116.148 197.204 117.244 195.674 118.304 194.11C120.085 191.493 121.984 188.979 123.944 186.493C124.368 185.953 124.792 185.413 125.216 184.872C125.537 184.464 125.858 184.057 126.181 183.65C129.604 179.324 132.655 174.785 135.681 170.178C136.471 168.977 137.269 167.782 138.078 166.593C141.546 161.87 141.546 161.87 143.06 156.372C143.071 156.105 143.082 155.837 143.093 155.562C142.931 154.42 142.5 153.538 141.797 152.637C140.898 152.065 140.898 152.065 139.835 151.717C139.642 151.647 139.45 151.576 139.251 151.503C137.242 150.782 135.189 150.203 133.128 149.652C132.437 149.468 131.747 149.28 131.058 149.092C129.585 148.69 128.11 148.292 126.636 147.894C117.357 145.39 108.172 142.679 99.0739 139.573C98.315 139.314 97.5549 139.06 96.7947 138.806C96.2997 138.638 95.8047 138.469 95.3098 138.301C95.0883 138.227 94.8668 138.154 94.6386 138.078C93.3263 137.624 92.2141 137.104 91.1133 136.23C90.8569 135.278 90.8569 135.278 90.8203 134.473C91.3513 133.85 91.3513 133.85 92.2852 133.301C95.5083 133.143 99.1324 135.282 102.031 136.512C112.635 141.008 123.924 143.884 135.077 146.649C135.555 146.769 135.555 146.769 136.043 146.891C136.957 147.118 137.871 147.343 138.786 147.566C139.06 147.634 139.333 147.703 139.615 147.773C141.982 148.344 143.975 148.544 146.191 147.363C147.8 146.016 148.096 143.672 148.322 141.679C148.609 138.413 148.583 135.146 148.584 131.869C148.585 131.216 148.586 130.563 148.587 129.911C148.589 128.545 148.59 127.179 148.589 125.813C148.589 124.085 148.593 122.358 148.598 120.63C148.602 119.281 148.602 117.932 148.602 116.583C148.602 115.947 148.604 115.311 148.606 114.676C148.62 110.57 148.438 106.517 148.085 102.425C147.917 100.472 147.842 98.5303 147.839 96.5698C147.832 96.2507 147.825 95.9316 147.818 95.6028C147.816 95.2973 147.815 94.9918 147.814 94.677C147.812 94.4125 147.809 94.148 147.807 93.8755C148.041 92.7046 148.679 92.0353 149.872 91.9189Z" fill="black"/>
</svg>
