<svg width="300" height="300" viewBox="0 0 300 300" fill="none" xmlns="http://www.w3.org/2000/svg">
<path d="M156.5 62.622C160.316 65.6751 161.4 69.4821 162.799 73.9929C162.963 74.5157 163.127 75.0384 163.291 75.5612C163.746 77.0123 164.197 78.4643 164.648 79.9165C164.949 80.8852 165.251 81.8537 165.553 82.8221C167.574 89.3131 169.586 95.8072 171.587 102.304C171.811 103.031 172.034 103.757 172.258 104.483C172.677 105.841 173.095 107.199 173.512 108.558C174.429 111.537 175.361 114.508 176.345 117.466C176.475 117.856 176.475 117.856 176.608 118.254C177.016 119.502 177.016 119.502 177.539 120.703C180.084 120.731 182.603 120.657 185.142 120.488C185.678 120.454 185.678 120.454 186.226 120.419C187.193 120.357 188.161 120.293 189.129 120.23C190.145 120.163 191.161 120.098 192.177 120.033C194.096 119.909 196.014 119.784 197.932 119.659C200.119 119.517 202.305 119.375 204.492 119.234C208.984 118.944 213.476 118.652 217.969 118.359C217.969 118.263 217.969 118.166 217.969 118.066C219.515 118.066 221.062 118.066 222.656 118.066C222.656 117.97 222.656 117.873 222.656 117.773C225.239 117.741 227.82 117.76 230.401 117.847C230.76 117.853 230.76 117.853 231.125 117.859C234.299 117.989 236.979 119.604 239.158 121.861C241.02 124.14 241.85 127.03 241.773 129.945C241.322 134.305 239.461 137.447 236.103 140.222C235.24 140.913 234.362 141.582 233.479 142.247C232.902 142.682 232.328 143.121 231.755 143.562C230.483 144.539 229.206 145.512 227.93 146.484C227.413 146.878 226.896 147.272 226.379 147.665C226.115 147.866 225.852 148.067 225.581 148.273C225.317 148.474 225.052 148.676 224.78 148.883C224.518 149.083 224.255 149.283 223.985 149.489C221.974 151.02 219.97 152.558 217.969 154.102C217.358 154.572 216.748 155.042 216.138 155.511C215.982 155.631 215.827 155.751 215.667 155.874C214.779 156.557 213.889 157.238 212.998 157.918C210.582 159.763 208.175 161.619 205.778 163.489C204.552 164.444 203.321 165.387 202.075 166.315C200.766 167.292 199.466 168.28 198.175 169.281C198 169.415 197.825 169.548 197.645 169.686C196.331 170.665 196.331 170.665 195.41 171.973C195.536 173.524 195.829 174.87 196.336 176.348C196.401 176.539 196.465 176.73 196.532 176.928C196.673 177.345 196.816 177.762 196.959 178.178C197.362 179.351 197.757 180.526 198.153 181.701C198.281 182.08 198.281 182.08 198.412 182.467C199.459 185.566 200.475 188.675 201.489 191.785C201.587 192.085 201.685 192.385 201.786 192.694C203.514 197.99 205.222 203.293 206.908 208.603C207.804 211.425 208.713 214.241 209.669 217.043C209.917 217.775 210.164 218.508 210.41 219.241C210.635 219.9 210.866 220.556 211.098 221.212C212.422 225.075 212.743 228.816 210.937 232.617C209.225 235.566 206.603 237.574 203.32 238.477C199.34 239.018 196.227 237.541 193.066 235.254C192.166 234.561 191.281 233.849 190.4 233.132C189.067 232.047 187.709 231.004 186.328 229.98C184.574 228.678 182.859 227.334 181.159 225.962C179.807 224.874 178.428 223.827 177.034 222.792C175.846 221.905 174.68 220.988 173.511 220.074C171.839 218.769 170.158 217.478 168.457 216.211C166.812 214.985 165.185 213.738 163.568 212.476C160.859 210.362 158.137 208.267 155.393 206.199C154.74 205.704 154.093 205.201 153.448 204.696C153.086 204.42 152.724 204.145 152.362 203.87C151.905 203.515 151.905 203.515 151.438 203.153C150.615 202.651 150.615 202.651 149.742 202.848C148.547 203.465 147.536 204.225 146.484 205.06C146.265 205.231 146.046 205.402 145.82 205.578C145.161 206.092 144.504 206.61 143.848 207.129C143.497 207.404 143.147 207.678 142.796 207.953C142.137 208.469 141.478 208.987 140.821 209.506C137.868 211.832 134.904 214.141 131.89 216.386C130.234 217.636 128.602 218.917 126.966 220.192C125.907 221.018 124.845 221.839 123.779 222.656C120.657 225.054 117.552 227.472 114.459 229.907C112.547 231.411 110.633 232.909 108.691 234.375C108.52 234.505 108.35 234.635 108.174 234.768C105.166 237.04 102.355 238.903 98.4374 238.769C96.2035 238.45 94.3804 237.777 92.578 236.426C92.2819 236.22 91.9858 236.015 91.6808 235.803C90.0411 234.393 88.9357 232.27 88.1835 230.273C88.0868 230.08 87.9901 229.887 87.8905 229.687C87.6181 225.248 89.0595 221.359 90.5828 217.246C90.8648 216.494 90.8648 216.494 90.8202 215.625C91.0135 215.625 91.2069 215.625 91.4061 215.625C91.5043 215.115 91.5043 215.115 91.6044 214.595C92.0781 212.472 92.8121 210.426 93.5072 208.367C93.6597 207.912 93.8121 207.457 93.9643 207.002C94.2865 206.04 94.6095 205.078 94.933 204.116C95.6874 201.873 96.4373 199.629 97.1876 197.384C97.4355 196.643 97.6836 195.902 97.9316 195.16C99.143 191.54 100.348 187.917 101.534 184.288C101.701 183.774 101.87 183.26 102.039 182.747C103.172 179.305 103.172 179.305 104.004 175.781C104.197 175.781 104.39 175.781 104.59 175.781C104.686 174.911 104.783 174.041 104.883 173.145C104.979 173.145 105.076 173.145 105.176 173.145C105.177 172.076 105.165 171.411 104.44 170.597C103.818 170.08 103.179 169.604 102.521 169.134C102.284 168.958 102.047 168.782 101.802 168.6C101.312 168.236 100.821 167.874 100.327 167.515C99.4632 166.886 98.6094 166.243 97.7559 165.6C97.1768 165.163 96.5959 164.729 96.0146 164.296C95.0084 163.544 94.0113 162.78 93.0174 162.012C91.4133 160.773 89.7947 159.555 88.1708 158.342C86.9016 157.393 85.6445 156.429 84.3932 155.457C83.1695 154.51 81.9365 153.616 80.6235 152.797C80.0541 152.396 79.544 151.976 79.019 151.52C77.9499 150.591 76.8341 149.743 75.6957 148.901C75.2778 148.59 74.8601 148.279 74.4425 147.968C74.2379 147.815 74.0333 147.662 73.8224 147.505C72.7111 146.672 71.614 145.822 70.5161 144.971C69.6536 144.306 68.7832 143.652 67.9114 142.998C67.5048 142.692 67.5048 142.692 67.0899 142.38C66.5547 141.978 66.0185 141.576 65.481 141.177C63.1321 139.405 61.0551 137.699 59.7838 135.004C59.618 134.661 59.4522 134.319 59.2814 133.966C58.5821 132.269 58.5556 130.769 58.5753 128.961C58.5773 128.615 58.5773 128.615 58.5793 128.261C58.5827 127.695 58.588 127.129 58.5936 126.562C58.787 126.562 58.9803 126.562 59.1796 126.562C59.1916 126.327 59.2037 126.091 59.2162 125.848C59.7692 123.597 61.4548 121.521 63.2811 120.117C66.1282 118.46 68.2769 118.012 71.5209 117.883C71.846 117.868 72.1712 117.853 72.5062 117.837C72.8163 117.825 73.1263 117.812 73.4458 117.799C73.8718 117.781 73.8718 117.781 74.3065 117.762C74.9999 117.773 74.9999 117.773 75.5858 118.066C76.431 118.141 77.2717 118.2 78.1185 118.247C78.5134 118.271 78.5134 118.271 78.9162 118.295C79.7965 118.347 80.6769 118.398 81.5573 118.449C82.1797 118.485 82.802 118.522 83.4243 118.559C85.0785 118.657 86.7329 118.754 88.3873 118.85C90.9767 119.001 93.5661 119.154 96.1554 119.307C97.1234 119.364 98.0913 119.421 99.0592 119.478C102.325 119.669 105.59 119.867 108.855 120.077C109.176 120.098 109.497 120.119 109.828 120.14C111.351 120.237 112.875 120.336 114.398 120.437C118.998 121.12 118.998 121.12 123.254 120.367C123.76 119.642 123.976 118.943 124.233 118.097C124.343 117.741 124.452 117.384 124.565 117.017C124.683 116.625 124.8 116.233 124.918 115.841C125.042 115.433 125.167 115.026 125.291 114.618C125.621 113.54 125.947 112.46 126.273 111.38C126.595 110.312 126.921 109.244 127.246 108.177C127.629 106.922 128.011 105.666 128.39 104.41C128.985 102.441 129.586 100.474 130.203 98.512C130.313 98.1613 130.423 97.8106 130.537 97.4492C130.741 96.7973 130.948 96.146 131.156 95.4952C131.246 95.2076 131.336 94.9201 131.429 94.6238C131.508 94.3756 131.587 94.1275 131.669 93.8718C131.868 93.1576 131.868 93.1576 131.825 92.377C131.836 91.6992 131.836 91.6992 132.422 91.1133C132.676 90.207 132.871 89.2941 133.072 88.3747C133.147 88.1183 133.223 87.8618 133.301 87.5976C133.494 87.5009 133.687 87.4043 133.887 87.3047C134.05 86.7415 134.05 86.7415 134.148 86.0532C134.484 84.2124 135.016 82.4534 135.568 80.6671C135.727 80.1472 135.727 80.1472 135.89 79.6169C136.114 78.8879 136.339 78.1591 136.564 77.4306C136.907 76.3225 137.245 75.2133 137.582 74.1039C137.802 73.3924 138.021 72.6809 138.241 71.9696C138.39 71.4774 138.39 71.4774 138.543 70.9752C139.853 66.7796 141.471 64.1009 145.312 61.8164C149.025 60.0791 153.018 60.7105 156.5 62.622ZM146.807 69.4175C145.942 70.6741 145.55 71.997 145.093 73.4436C144.994 73.7484 144.895 74.0533 144.793 74.3674C142.947 79.8858 142.947 79.8858 141.377 85.4835C141.171 86.2867 140.928 87.0747 140.683 87.8668C140.573 88.2197 140.464 88.5726 140.352 88.9362C140.232 89.3243 140.111 89.7124 139.991 90.1004C139.865 90.5066 139.74 90.9127 139.614 91.3188C139.346 92.185 139.078 93.0512 138.81 93.9174C138.179 95.9554 137.549 97.994 136.919 100.032C136.707 100.719 136.495 101.405 136.283 102.092C135.875 103.413 135.467 104.734 135.058 106.055C134.967 106.352 134.967 106.352 134.873 106.656C134.179 108.903 133.485 111.151 132.794 113.399C132.608 114.003 132.422 114.608 132.235 115.212C131.978 116.046 131.722 116.879 131.466 117.713C131.356 118.069 131.356 118.069 131.243 118.431C130.834 119.772 130.494 121.109 130.214 122.482C129.793 124.23 128.678 125.816 127.24 126.874C125.836 127.695 124.773 127.775 123.19 127.763C122.976 127.763 122.763 127.762 122.543 127.762C121.863 127.76 121.182 127.756 120.502 127.753C120.04 127.751 119.578 127.75 119.116 127.749C117.985 127.745 116.854 127.74 115.723 127.734C115.723 127.638 115.723 127.541 115.723 127.441C110.881 127.134 106.039 126.828 101.198 126.525C98.9492 126.384 96.7006 126.242 94.4522 126.099C92.4901 125.974 90.5279 125.851 88.5657 125.728C87.5288 125.663 86.492 125.598 85.4552 125.532C81.2835 125.264 77.131 125.001 72.9491 125.098C72.9491 125.001 72.9491 124.904 72.9491 124.805C70.2961 124.619 70.2961 124.619 67.7855 125.299C66.3679 126.679 65.5925 127.704 65.5333 129.712C65.5224 129.952 65.5114 130.192 65.5001 130.44C65.8301 132.583 67.1869 133.769 68.8292 135.004C69.1229 135.231 69.1229 135.231 69.4224 135.463C70.0097 135.918 70.6003 136.367 71.1913 136.816C71.4945 137.052 71.7978 137.287 72.1102 137.529C73.5399 138.638 74.9803 139.731 76.4201 140.826C76.9416 141.223 77.463 141.62 77.9845 142.017C78.249 142.218 78.5136 142.419 78.7861 142.626C80.4755 143.912 82.1537 145.212 83.8255 146.521C85.8262 148.086 87.8599 149.6 89.9105 151.099C91.5053 152.268 93.073 153.467 94.6288 154.687C96.3956 156.073 98.1818 157.426 99.9938 158.752C102.06 160.265 104.109 161.797 106.146 163.348C106.403 163.544 106.66 163.739 106.925 163.94C110.804 166.901 110.804 166.901 111.566 168.182C111.683 168.373 111.799 168.564 111.92 168.76C112.906 170.736 112.603 172.835 111.928 174.86C111.831 175.155 111.831 175.155 111.732 175.456C111.585 175.902 111.436 176.348 111.286 176.793C111.013 177.603 110.745 178.415 110.477 179.227C109.934 180.873 109.385 182.517 108.835 184.16C108.463 185.273 108.092 186.386 107.72 187.498C106.861 190.071 106.002 192.644 105.142 195.216C104.17 198.124 103.199 201.031 102.229 203.939C102.134 204.222 102.134 204.222 102.038 204.511C99.8376 211.105 97.6673 217.709 95.5289 224.324C95.3289 224.94 95.1268 225.557 94.9217 226.172C94.7651 228.051 94.9581 229.042 96.0936 230.566C97.3679 231.444 98.3739 231.649 99.9022 231.445C102.496 230.653 104.485 228.673 106.512 226.96C107.707 225.956 108.937 225.011 110.193 224.084C111.738 222.942 113.256 221.775 114.752 220.569C116.713 218.988 118.7 217.445 120.703 215.918C121.503 215.308 122.302 214.697 123.102 214.087C123.414 213.848 123.414 213.848 123.733 213.605C125.518 212.24 127.292 210.862 129.064 209.481C130.661 208.237 132.262 207 133.868 205.767C134.473 205.303 135.077 204.837 135.681 204.371C137.815 202.723 139.965 201.097 142.125 199.484C142.846 198.945 143.565 198.403 144.279 197.855C144.584 197.622 144.888 197.389 145.203 197.15C145.466 196.947 145.73 196.744 146.001 196.535C147.339 195.606 148.46 194.991 150.11 194.989C150.366 194.983 150.622 194.978 150.886 194.972C153.127 195.345 154.846 196.785 156.573 198.175C157.04 198.544 157.506 198.913 157.973 199.282C158.207 199.467 158.441 199.653 158.682 199.845C159.734 200.674 160.799 201.484 161.865 202.295C163.831 203.794 165.786 205.308 167.736 206.828C169.63 208.303 171.532 209.768 173.437 211.23C174.072 211.719 174.707 212.207 175.342 212.695C175.659 212.939 175.976 213.184 176.294 213.428C178.198 214.893 180.102 216.357 182.007 217.822C182.164 217.943 182.321 218.064 182.482 218.188C182.801 218.433 183.12 218.678 183.438 218.923C184.213 219.52 184.988 220.115 185.764 220.711C187.374 221.947 188.98 223.188 190.58 224.438C191.478 225.138 192.377 225.836 193.277 226.533C193.719 226.875 194.16 227.219 194.6 227.563C195.222 228.048 195.847 228.53 196.472 229.01C196.656 229.154 196.839 229.299 197.028 229.448C198.489 230.56 200.004 231.445 201.892 231.445C203.15 231.008 204.126 230.287 204.827 229.139C205.966 226.311 204.491 223.163 203.54 220.477C203.379 220.01 203.218 219.543 203.058 219.075C202.726 218.107 202.392 217.14 202.056 216.173C201.372 214.202 200.713 212.223 200.055 210.243C199.838 209.591 199.62 208.938 199.403 208.286C198.124 204.451 196.873 200.608 195.624 196.763C194.133 192.174 192.633 187.589 191.131 183.004C190.943 182.431 190.755 181.857 190.567 181.284C190.215 180.208 189.862 179.131 189.509 178.055C189.404 177.733 189.298 177.41 189.189 177.078C189.091 176.778 188.992 176.478 188.891 176.169C188.801 175.894 188.711 175.619 188.619 175.336C188.424 174.748 188.224 174.161 188.022 173.576C187.473 171.841 187.783 170.446 188.567 168.861C189.76 166.77 191.589 165.269 193.487 163.843C193.718 163.667 193.948 163.491 194.185 163.309C194.884 162.776 195.586 162.247 196.289 161.719C196.594 161.49 196.594 161.49 196.905 161.256C197.671 160.68 198.439 160.106 199.207 159.533C200.91 158.26 202.588 156.957 204.263 155.649C205.749 154.489 207.241 153.34 208.74 152.197C210.488 150.865 212.226 149.521 213.959 148.169C215.655 146.845 217.364 145.541 219.09 144.256C220.264 143.37 221.423 142.465 222.583 141.559C224.303 140.215 226.034 138.89 227.783 137.585C228.347 137.163 228.91 136.741 229.473 136.318C229.939 135.969 230.405 135.619 230.872 135.27C232.793 133.792 234.303 132.568 234.668 130.078C234.76 128.348 234.341 127.243 233.24 125.885C232.15 125.02 231.143 124.724 229.764 124.783C229.484 124.793 229.203 124.804 228.914 124.815C228.602 124.831 228.29 124.847 227.968 124.863C227.628 124.878 227.288 124.893 226.938 124.908C221.417 125.165 215.9 125.52 210.385 125.863C209.428 125.922 208.472 125.981 207.515 126.04C199.171 126.553 190.83 127.086 182.492 127.7C182.183 127.722 181.873 127.745 181.553 127.768C180.995 127.809 180.436 127.851 179.877 127.894C175.959 128.182 175.959 128.182 174.444 127.716C174.239 127.658 174.033 127.6 173.821 127.541C171.618 126.262 170.913 124.12 170.196 121.802C170.088 121.466 169.98 121.13 169.869 120.784C169.488 119.587 169.117 118.388 168.75 117.187C168.677 116.951 168.605 116.715 168.53 116.471C167.635 113.542 166.75 110.611 165.871 107.677C165.062 104.984 164.239 102.295 163.403 99.6093C163.24 99.0857 163.24 99.0857 163.074 98.5515C162.554 96.8797 162.554 96.8797 162.012 95.2148C161.404 93.2676 160.814 91.3168 160.254 89.3554C160.06 88.7018 159.865 88.0488 159.668 87.3962C159.571 87.0748 159.474 86.7534 159.375 86.4223C159.115 85.577 159.115 85.577 158.776 84.9415C158.435 84.2517 158.282 83.5873 158.111 82.8369C157.699 81.1193 157.192 79.4447 156.654 77.7634C156.176 76.2661 156.176 76.2661 156.008 75.5944C155.747 74.5537 155.397 73.5439 155.054 72.528C154.983 72.3081 154.913 72.0881 154.841 71.8614C154.223 70.0521 153.367 69.0417 151.758 67.9687C149.704 67.7007 148.281 67.9071 146.807 69.4175Z" fill="black"/>
<path d="M151.465 97.5586C152.582 97.9472 152.85 98.2868 153.402 99.3335C154.125 101.379 153.923 103.639 153.908 105.781C153.908 106.289 153.908 106.797 153.909 107.306C153.909 108.681 153.904 110.056 153.898 111.431C153.892 112.87 153.892 114.309 153.891 115.747C153.888 118.47 153.881 121.193 153.872 123.915C153.862 127.015 153.857 130.116 153.853 133.216C153.844 139.592 153.828 145.968 153.808 152.344C153.979 152.287 154.15 152.23 154.326 152.171C156.144 151.563 157.964 150.955 159.783 150.348C160.457 150.123 161.13 149.897 161.804 149.672C168.683 147.372 175.588 145.155 182.502 142.96C184.599 142.295 186.695 141.628 188.791 140.962C189.882 140.615 190.974 140.268 192.065 139.923C192.562 139.765 193.058 139.607 193.555 139.45C193.79 139.375 194.025 139.301 194.267 139.224C195.372 138.872 196.475 138.514 197.572 138.14C197.773 138.072 197.973 138.004 198.18 137.934C198.714 137.752 199.247 137.567 199.78 137.383C201.078 136.99 201.976 136.893 203.32 137.109C204.128 137.748 204.62 138.244 205.078 139.16C205.127 139.753 205.127 139.753 205.133 140.442C205.137 140.668 205.141 140.894 205.146 141.126C205.065 141.928 204.969 142.313 204.492 142.969C202.833 144.049 201.12 144.634 199.239 145.223C198.923 145.324 198.607 145.425 198.282 145.529C197.24 145.862 196.197 146.192 195.154 146.521C194.422 146.754 193.69 146.987 192.958 147.221C190.651 147.956 188.343 148.685 186.035 149.414C185.752 149.503 185.752 149.503 185.463 149.595C182.357 150.575 179.25 151.555 176.143 152.533C171.47 154.004 166.808 155.501 162.168 157.076C157.953 158.496 157.953 158.496 156.738 158.496C158.6 161.488 160.609 164.349 162.689 167.193C163.493 168.295 164.29 169.401 165.088 170.508C165.404 170.946 165.72 171.384 166.036 171.822C166.272 172.148 166.272 172.148 166.512 172.48C167 173.155 167.487 173.83 167.975 174.504C170.33 177.761 172.678 181.023 174.992 184.31C177.405 187.736 179.847 191.14 182.334 194.512C182.858 195.223 183.379 195.936 183.899 196.65C184.154 196.999 184.41 197.347 184.667 197.694C185.041 198.199 185.411 198.708 185.779 199.219C185.991 199.509 186.203 199.799 186.422 200.098C186.987 201.106 187.142 201.878 187.207 203.027C186.727 204.387 186.124 205.244 184.863 205.957C183.941 206.139 183.138 206.198 182.226 205.957C180.732 204.916 179.796 203.663 178.784 202.167C178.474 201.718 178.164 201.269 177.854 200.821C177.701 200.599 177.549 200.377 177.392 200.148C176.773 199.251 176.141 198.364 175.506 197.479C175.39 197.317 175.274 197.154 175.154 196.987C173.984 195.351 172.804 193.721 171.625 192.091C170.667 190.766 169.715 189.437 168.768 188.104C167.626 186.498 166.46 184.91 165.289 183.325C162.454 179.485 159.655 175.629 156.979 171.676C155.783 169.92 154.533 168.213 153.236 166.531C152.268 165.267 151.408 163.961 150.586 162.598C149.278 163.82 148.248 165.179 147.198 166.626C147.019 166.871 146.839 167.117 146.654 167.37C145.347 169.163 144.066 170.974 142.792 172.792C141.669 174.391 140.505 175.955 139.326 177.514C137.573 179.839 135.879 182.206 134.18 184.57C132.071 187.502 129.95 190.423 127.803 193.326C126.634 194.91 125.478 196.503 124.328 198.102C123.862 198.747 123.396 199.393 122.929 200.038C122.611 200.476 122.294 200.915 121.977 201.355C121.506 202.006 121.032 202.654 120.557 203.302C120.416 203.498 120.275 203.694 120.13 203.896C119.358 204.939 118.699 205.711 117.48 206.25C116.083 206.2 115.073 205.94 113.965 205.078C113.15 204.095 112.895 203.185 112.945 201.9C113.115 201.141 113.412 200.674 113.856 200.036C114.016 199.805 114.176 199.575 114.34 199.337C115.133 198.228 115.934 197.127 116.748 196.033C117.111 195.542 117.473 195.052 117.836 194.562C118.112 194.19 118.112 194.19 118.393 193.811C119.269 192.63 120.142 191.448 121.014 190.265C121.183 190.036 121.352 189.807 121.526 189.571C122.703 187.973 123.866 186.365 125.024 184.753C126.117 183.232 127.225 181.727 128.375 180.249C129.465 178.846 130.509 177.421 131.535 175.971C132.588 174.485 133.665 173.017 134.747 171.551C134.923 171.314 135.098 171.076 135.279 170.831C135.938 169.938 136.598 169.046 137.257 168.153C139.397 165.256 141.486 162.324 143.555 159.375C142.73 158.708 142.73 158.708 141.797 158.789C141.797 158.596 141.797 158.402 141.797 158.203C141.607 158.154 141.418 158.104 141.222 158.053C139.077 157.482 136.972 156.82 134.865 156.121C134.325 155.943 133.784 155.765 133.243 155.587C132.672 155.399 132.101 155.21 131.53 155.021C129.524 154.358 127.517 153.699 125.51 153.04C125.307 152.973 125.104 152.906 124.895 152.838C119.406 151.034 113.902 149.277 108.397 147.525C106.715 146.989 105.035 146.448 103.356 145.902C102.962 145.774 102.567 145.646 102.173 145.518C101.481 145.292 100.79 145.066 100.098 144.839C99.662 144.697 99.662 144.697 99.2167 144.553C98.848 144.432 98.848 144.432 98.4718 144.308C97.8171 144.102 97.8171 144.102 96.9725 144.141C96.9725 143.947 96.9725 143.754 96.9725 143.555C96.7097 143.455 96.7097 143.455 96.4415 143.353C95.5935 142.844 95.323 142.407 94.9218 141.504C94.7469 140.455 94.7056 139.786 95.296 138.876C96.4245 137.53 96.4245 137.53 97.2655 137.109C97.8646 137.135 98.463 137.18 99.0599 137.238C99.3809 137.267 99.702 137.297 100.033 137.328C100.28 137.352 100.527 137.377 100.781 137.402C100.781 137.596 100.781 137.789 100.781 137.988C102.339 138.352 103.881 138.665 105.469 138.867C105.469 139.061 105.469 139.254 105.469 139.453C105.844 139.531 106.22 139.609 106.607 139.689C108.35 140.076 110.026 140.637 111.719 141.201C111.954 141.277 112.19 141.354 112.432 141.433C112.643 141.503 112.853 141.573 113.07 141.645C113.758 141.845 113.758 141.845 114.844 141.797C114.844 141.99 114.844 142.184 114.844 142.383C115.003 142.415 115.163 142.447 115.328 142.48C116.541 142.735 117.703 143.03 118.872 143.445C119.826 143.778 120.567 143.877 121.582 143.848C122.673 144.272 122.673 144.272 123.047 145.019C123.632 145.153 124.218 145.282 124.806 145.401C125.875 145.65 126.916 145.971 127.961 146.304C128.164 146.368 128.368 146.433 128.578 146.499C129.43 146.77 130.281 147.043 131.132 147.316C131.759 147.516 132.387 147.716 133.015 147.915C133.207 147.977 133.399 148.039 133.597 148.103C134.416 148.363 135.072 148.535 135.937 148.535C135.937 148.728 135.937 148.922 135.937 149.121C136.517 149.121 137.098 149.121 137.695 149.121C137.695 149.314 137.695 149.508 137.695 149.707C138.565 149.9 139.435 150.094 140.332 150.293C142.459 150.97 144.586 151.646 146.777 152.344C146.681 136.102 146.584 119.859 146.484 103.125C146.388 103.125 146.291 103.125 146.191 103.125C146.008 100.507 146.008 100.507 146.686 99.353C147.021 99.0448 147.021 99.0448 147.363 98.7304C147.575 98.5069 147.786 98.2833 148.004 98.0529C149.17 97.3537 150.138 97.368 151.465 97.5586Z" fill="black"/>
</svg>
