<svg width="300" height="300" viewBox="0 0 300 300" fill="none" xmlns="http://www.w3.org/2000/svg">
<path d="M128.905 33.3982C134.45 37.8063 137.513 43.7242 138.481 50.6952C139.526 60.5538 137.229 69.6141 131.005 77.358C129.887 78.7153 128.718 80.0214 127.522 81.31C126.925 81.9547 126.347 82.6103 125.774 83.2761C124.977 84.1953 124.134 85.0512 123.266 85.9037C122.729 86.4501 122.228 87.0171 121.728 87.5974C120.44 89.0856 119.082 90.4619 117.586 91.7413C111.745 96.8342 105.111 103.18 104.543 111.401C104.361 115.146 104.524 118.523 106.933 121.582C108.371 122.887 109.263 123.159 111.172 123.123C112.32 123.005 112.836 122.672 113.671 121.875C115.141 119.978 115.96 117.723 116.864 115.524C118.862 110.7 121.509 106.644 125.097 102.832C125.269 102.637 125.442 102.442 125.62 102.241C131.787 95.5728 142.068 91.9624 150.933 91.588C157.802 91.4216 164.316 92.3615 170.8 94.6287C171.09 94.7294 171.09 94.7294 171.387 94.8321C179.192 97.5979 185.774 102.435 191.767 108.05C192.553 108.786 193.355 109.503 194.16 110.219C195.771 111.666 197.306 113.181 198.833 114.715C199.096 114.977 199.359 115.239 199.63 115.509C200.961 116.841 202.252 118.19 203.478 119.619C204.02 120.251 204.585 120.86 205.15 121.472C206.642 123.126 208.006 124.869 209.365 126.632C209.746 127.124 210.131 127.614 210.518 128.103C212.353 130.435 214.025 132.852 215.624 135.351C215.815 135.649 215.815 135.649 216.01 135.952C219.359 141.202 222.449 146.707 224.413 152.636C224.518 152.952 224.623 153.267 224.731 153.592C226.323 159.294 225.146 165.338 223.241 170.801C222.691 170.714 222.691 170.714 222.069 170.508C221.632 169.773 221.261 169.062 220.898 168.292C219.532 165.56 217.83 163.211 215.917 160.84C215.715 160.584 215.514 160.328 215.306 160.064C211.097 155.002 204.516 151.897 198.046 151.172C196.434 151.077 194.82 151.075 193.205 151.079C192.47 151.08 191.735 151.073 190.999 151.066C185.928 151.046 181.136 151.785 176.366 153.515C176.027 153.638 175.688 153.761 175.339 153.887C172.339 155.073 169 156.78 166.698 159.082C166.886 159.287 167.074 159.493 167.267 159.704C168.578 161.142 169.881 162.585 171.158 164.054C171.966 164.975 172.788 165.883 173.611 166.791C174.172 167.417 174.725 168.049 175.277 168.685C176.392 169.961 177.546 171.198 178.71 172.43C178.907 172.64 179.104 172.85 179.307 173.066C181.68 175.6 181.68 175.6 184.24 177.942C185.122 178.701 185.95 179.494 186.767 180.322C187.56 181.126 188.361 181.896 189.22 182.629C190.515 183.737 191.696 184.949 192.886 186.167C193.633 186.921 193.633 186.921 194.448 187.547C195.427 188.336 195.899 189.172 196.079 190.426C196.137 191.782 195.918 192.579 195.116 193.652C194.366 194.139 194.366 194.139 193.463 194.569C193.129 194.731 192.795 194.893 192.451 195.06C192.185 195.186 192.185 195.186 191.914 195.314C190.972 195.76 190.037 196.219 189.101 196.677C188.913 196.768 188.724 196.86 188.53 196.955C186.909 197.747 185.323 198.597 183.745 199.475C181.366 200.795 178.96 202.053 176.537 203.292C173.404 204.895 170.306 206.535 167.254 208.292C164.315 209.976 161.315 211.546 158.314 213.117C158.117 213.221 157.919 213.325 157.716 213.432C157.343 213.628 156.97 213.823 156.596 214.017C155.862 214.404 155.278 214.741 154.687 215.332C154.58 216.042 154.58 216.042 154.571 216.88C154.56 217.206 154.549 217.532 154.538 217.868C154.53 218.226 154.521 218.583 154.512 218.95C154.5 219.321 154.489 219.691 154.477 220.072C154.446 221.078 154.419 222.084 154.392 223.09C154.364 224.143 154.333 225.197 154.302 226.25C154.253 227.92 154.206 229.59 154.161 231.26C154.12 232.803 154.076 234.345 154.03 235.887C153.882 240.79 153.798 245.693 153.736 250.598C153.729 251.082 153.723 251.566 153.717 252.05C153.688 254.248 153.661 256.445 153.637 258.642C153.627 259.56 153.616 260.478 153.605 261.395C153.6 261.829 153.595 262.263 153.591 262.697C153.585 263.295 153.578 263.893 153.57 264.491C153.567 264.83 153.563 265.168 153.559 265.516C153.515 266.308 153.515 266.308 153.222 266.894C152.266 267.213 151.437 267.291 150.433 267.377C150.042 267.412 149.651 267.446 149.26 267.481C149.055 267.499 148.85 267.517 148.639 267.535C145.598 267.799 142.58 268.096 139.562 268.561C137.392 268.882 135.256 269.037 133.062 269.055C132.801 269.059 132.541 269.063 132.272 269.067C130.52 269.055 129.066 268.715 127.441 268.066C127.625 266.431 128.392 265.848 129.603 264.824C131.523 263.406 133.502 262.464 135.903 262.461C136.179 262.46 136.454 262.46 136.737 262.46C137.023 262.461 137.309 262.462 137.603 262.463C137.883 262.462 138.163 262.461 138.451 262.46C139.975 262.462 141.455 262.537 142.967 262.726C143.78 262.818 144.585 262.832 145.403 262.829C145.837 262.83 145.837 262.83 146.279 262.832C146.984 262.797 147.563 262.682 148.241 262.5C148.429 261.555 148.61 260.608 148.791 259.662C148.842 259.406 148.893 259.15 148.945 258.886C149.858 254.033 150.115 249.042 150.347 244.116C150.36 243.85 150.373 243.584 150.386 243.31C150.78 234.773 150.495 226.215 150.292 217.676C149.644 218.033 148.997 218.394 148.351 218.756C148.17 218.855 147.989 218.955 147.803 219.057C143.993 221.203 142.846 224.161 141.704 228.222C141.076 230.502 140.508 232.794 139.959 235.093C139.844 235.573 139.728 236.052 139.612 236.532C139.385 237.474 139.165 238.418 138.949 239.363C138.845 239.802 138.74 240.24 138.635 240.678C138.592 240.878 138.548 241.078 138.503 241.284C138.162 242.672 137.632 243.441 136.523 244.336C135.601 244.35 135.209 244.164 134.495 243.592C132.085 240.842 129.343 237.047 128.741 233.368C129.398 229.203 133.11 225.705 135.955 222.821C136.141 222.63 136.328 222.44 136.519 222.244C139.133 219.656 142.209 217.955 145.44 216.266C145.996 215.972 146.553 215.679 147.109 215.385C147.608 215.121 148.107 214.859 148.607 214.597C149.441 214.161 149.441 214.161 150.292 213.574C150.451 212.654 150.348 211.72 150.292 210.791C150.277 210.524 150.262 210.257 150.247 209.983C150.096 207.974 149.692 206.457 148.534 204.785C148.264 204.371 147.996 203.956 147.729 203.54C147.55 203.284 147.55 203.284 147.367 203.023C146.655 201.631 146.758 200.394 147.155 198.926C147.243 198.593 147.332 198.26 147.422 197.917C147.517 197.573 147.612 197.229 147.71 196.875C147.8 196.54 147.889 196.205 147.981 195.86C148.153 195.218 148.326 194.577 148.501 193.937C148.571 193.676 148.571 193.676 148.642 193.409C148.784 192.922 148.946 192.44 149.117 191.962C150.209 188.687 150.201 185.506 150.204 182.083C150.205 181.774 150.206 181.464 150.208 181.145C150.213 179.51 150.211 177.875 150.204 176.24C150.197 174.558 150.217 172.877 150.242 171.195C150.257 169.894 150.253 168.593 150.243 167.292C150.241 166.671 150.247 166.051 150.261 165.431C150.45 162.261 150.45 162.261 149.276 159.454C148.232 158.601 147.09 158.072 145.848 157.57C145.022 157.191 144.36 156.637 143.664 156.061C140.245 153.544 135.697 153.355 131.615 152.783C121.506 151.357 121.506 151.357 117.022 149.634C116.677 149.503 116.677 149.503 116.325 149.37C106.914 145.725 98.4011 139.382 94.1886 130.005C90.8511 122.265 91.4237 113.868 94.3677 106.112C95.1114 104.273 96.0216 102.521 96.9718 100.781C97.2205 100.321 97.2205 100.321 97.4742 99.8517C101.086 93.4269 106.213 87.6402 111.808 82.8687C113.491 81.4139 115.05 79.828 116.622 78.2556C117.165 77.7134 117.71 77.1737 118.255 76.634C124.033 70.8831 129.556 64.2278 129.619 55.6821C129.595 53.798 129.558 51.6262 128.142 50.2141C127.733 49.8044 127.733 49.8044 127.733 49.2185C127.25 49.1218 126.767 49.0251 126.269 48.9255C126.193 49.0819 126.118 49.2382 126.041 49.3993C124.289 52.8089 121.873 55.2539 118.267 56.561C116.951 56.9786 115.635 57.2739 114.282 57.5374C110.429 58.2886 107.197 59.2526 104.321 62.0943C102.816 63.574 102.816 63.574 101.952 63.574C101.809 64.0126 101.67 64.4523 101.531 64.8923C101.453 65.1371 101.375 65.3818 101.294 65.6339C100.155 70.1214 100.809 75.1146 101.073 79.6873C98.006 79.4897 96.2937 78.222 94.1519 76.0435C90.6798 71.9947 88.6421 66.0912 88.6863 60.8137C88.864 58.5527 89.8709 56.4566 91.4054 54.7849C91.6255 54.6203 91.8457 54.4556 92.0726 54.286C93.1134 53.4079 93.8571 52.3961 94.6646 51.3059C95.0009 50.8594 95.3374 50.4131 95.674 49.967C95.9257 49.632 95.9257 49.632 96.1824 49.2903C96.9246 48.3069 97.6781 47.3328 98.4366 46.3621C98.6265 46.1163 98.6265 46.1163 98.8201 45.8655C99.6065 44.8605 100.423 43.9268 101.366 43.0662C101.56 43.0662 101.753 43.0662 101.952 43.0662C101.999 42.8532 102.045 42.6402 102.093 42.4207C103.007 38.4827 104.292 34.7358 107.71 32.319C113.719 28.9493 123.291 29.4782 128.905 33.3982ZM112.499 41.3084C112.074 42.1588 112.097 42.7066 112.206 43.6521C112.794 44.625 113.166 45.214 114.228 45.6262C115.416 45.8518 115.926 45.7498 117.022 45.1719C118.018 44.3217 118.048 44.153 118.157 42.8281C118.148 41.8555 118.067 41.6041 117.516 40.7407C116.57 39.8227 115.883 39.7286 114.561 39.7382C113.56 39.9148 113.105 40.5372 112.499 41.3084ZM161.132 97.5584C161.547 98.3881 162.069 98.4883 162.908 98.8767C167.39 101.067 171.394 103.981 175.213 107.171C175.374 107.305 175.534 107.439 175.7 107.576C176.524 108.276 177.226 108.965 177.831 109.863C177.141 109.522 176.451 109.18 175.762 108.838C175.549 108.732 175.335 108.626 175.116 108.517C174.089 108.005 173.07 107.486 172.07 106.924C166.043 103.54 158.949 101.026 151.977 101.019C151.77 101.015 151.563 101.012 151.35 101.008C150.248 101.005 149.767 101.034 148.827 101.66C149.098 101.724 149.368 101.788 149.647 101.854C165.425 105.66 165.425 105.66 170.8 111.035C169.081 110.868 167.552 110.515 165.916 109.975C165.68 109.9 165.445 109.824 165.202 109.746C164.455 109.506 163.709 109.264 162.963 109.021C157.758 107.083 157.758 107.083 152.343 106.347C153.294 107.133 154.254 107.815 155.309 108.453C158.465 110.444 163.035 113.397 164.062 117.187C163.965 117.381 163.868 117.574 163.769 117.773C161.412 117.345 159.619 115.847 157.703 114.49C154.706 112.373 151.599 110.754 148.241 109.277C147.97 109.15 147.699 109.023 147.42 108.893C146.675 108.659 146.338 108.77 145.605 108.984C145.906 109.147 146.207 109.31 146.517 109.479C148.974 110.826 151.307 112.226 153.515 113.965C153.716 114.121 153.918 114.278 154.126 114.44C155.239 115.344 156.027 116.23 156.737 117.48C156.737 117.674 156.737 117.867 156.737 118.066C156.507 117.917 156.276 117.769 156.038 117.615C150.124 113.878 143.711 111.583 136.63 113.007C134.569 113.695 133.051 114.673 132.036 116.638C131.062 118.751 130.89 120.972 131.439 123.249C133.635 129.096 138.449 133.436 144.032 135.984C151.303 139.121 158.961 140.147 166.77 140.949C166.979 140.97 167.188 140.992 167.403 141.014C168.517 141.129 169.632 141.239 170.747 141.343C171.214 141.389 171.68 141.436 172.147 141.482C172.359 141.5 172.571 141.519 172.789 141.538C174.298 141.692 175.55 142.097 176.952 142.676C176.325 144.175 175.177 144.735 173.839 145.569C173.59 145.725 173.34 145.881 173.083 146.042C170.846 147.403 168.603 148.339 166.112 149.121C165.58 149.291 165.58 149.291 165.037 149.464C164.407 149.661 163.776 149.854 163.144 150.041C162.271 150.302 161.409 150.587 160.546 150.879C161.809 152.27 163.653 152.768 165.498 152.925C169.831 152.957 173.947 150.076 177.538 147.949C185.001 143.531 192.931 140.124 201.758 142.372C207.685 144.216 212.3 147.539 216.21 152.344C216.904 150.955 215.549 148.568 215.085 147.173C213.762 143.348 211.993 139.782 210.058 136.23C209.932 135.999 209.806 135.767 209.677 135.529C205.592 128.102 200.591 121.085 194.681 115.008C194.296 114.611 193.916 114.209 193.538 113.806C185.424 105.331 172.756 99.0076 161.132 97.5584ZM159.966 159.767C159.625 159.795 159.284 159.822 158.933 159.85C158.577 159.881 158.221 159.911 157.854 159.942C157.495 159.972 157.136 160.001 156.765 160.031C155.877 160.104 154.989 160.178 154.101 160.254C154.039 164.069 153.992 167.885 153.964 171.701C153.95 173.474 153.932 175.247 153.902 177.02C153.571 187.19 153.571 187.19 155.885 196.994C156.915 199.661 156.597 201.509 155.858 204.199C155.741 204.73 155.626 205.262 155.516 205.794C155.366 206.487 155.214 207.18 155.06 207.873C154.814 209.012 154.618 210.057 154.687 211.23C162.564 206.781 170.247 202.053 177.776 197.04C178.003 196.889 178.229 196.738 178.463 196.583C181.026 194.876 183.565 193.15 186.034 191.308C185.287 186.86 184.133 183.587 181.054 180.176C180.835 179.932 180.616 179.688 180.39 179.436C179.954 178.953 179.516 178.471 179.077 177.99C178.386 177.211 177.732 176.41 177.08 175.598C176.133 174.426 175.15 173.345 174.057 172.308C173.509 171.752 172.998 171.184 172.487 170.595C171.37 169.308 170.212 168.065 169.042 166.827C168.845 166.617 168.648 166.408 168.445 166.191C167.508 165.198 166.565 164.216 165.595 163.255C164.691 162.358 163.87 161.412 163.059 160.43C162.134 159.491 161.192 159.666 159.966 159.767Z" fill="black"/>
<path d="M142.09 116.309C142.917 116.979 143.28 117.783 143.715 118.738C146.583 125.013 151.931 129.407 158.203 132.129C162.114 133.557 165.998 133.991 170.123 134.216C170.56 134.242 170.997 134.267 171.434 134.293C172.492 134.355 173.551 134.414 174.609 134.473C173.905 133.262 173.094 132.227 172.174 131.177C169.368 127.909 169.368 127.909 168.75 126.562C168.847 126.272 168.943 125.982 169.043 125.684C169.228 125.882 169.413 126.081 169.604 126.286C172.716 129.524 176.169 131.877 180.176 133.887C178.378 130.488 176.481 127.199 174.336 124.006C174.102 123.657 174.102 123.657 173.864 123.301C173.725 123.096 173.586 122.891 173.443 122.679C173.145 122.168 173.145 122.168 173.145 121.582C174.477 121.995 175.282 122.734 176.221 123.724C176.49 124.001 176.758 124.278 177.035 124.563C177.298 124.836 177.561 125.109 177.832 125.391C178.557 126.12 179.286 126.845 180.019 127.567C181.409 128.942 182.739 130.329 183.984 131.836C182.748 128.623 181.326 125.641 179.584 122.672C179.164 121.934 178.789 121.174 178.418 120.41C179.813 121.051 180.806 122.021 181.934 123.047C182.081 123.179 182.228 123.312 182.38 123.449C185.165 125.956 187.57 128.558 189.844 131.543C189.648 130.066 189.027 128.802 188.415 127.46C188.312 127.23 188.209 126.999 188.103 126.762C187.654 125.765 187.197 124.785 186.692 123.815C186.328 123.047 186.328 123.047 186.328 122.168C189.142 123.266 191.037 127.478 192.499 129.932C192.75 130.352 192.75 130.352 193.007 130.78C193.163 131.047 193.319 131.314 193.48 131.589C193.689 131.946 193.689 131.946 193.902 132.31C194.251 133.034 194.409 133.681 194.531 134.473C194.973 134.526 194.973 134.526 195.423 134.58C197.965 134.891 200.498 135.237 203.027 135.645C202.973 135.491 202.918 135.337 202.861 135.179C202.614 134.481 202.372 133.781 202.13 133.081C202.044 132.839 201.958 132.598 201.869 132.349C201.748 131.997 201.748 131.997 201.625 131.639C201.55 131.424 201.475 131.21 201.398 130.988C201.253 130.291 201.34 129.868 201.562 129.199C204.227 132.284 206.907 136.18 208.301 140.039C208.198 140.722 208.198 140.722 208.008 141.211C207.714 141.076 207.419 140.942 207.116 140.804C202.123 138.551 197.481 137.292 191.967 137.342C191.367 137.347 190.768 137.348 190.168 137.348C188.267 137.353 186.377 137.407 184.48 137.547C172.312 138.428 158.464 138.101 148.535 130.078C148.227 129.849 147.919 129.619 147.601 129.382C144.59 126.572 142.017 122.775 141.756 118.577C141.723 117.043 141.723 117.043 142.09 116.309Z" fill="black"/>
<path d="M188.965 116.016C191.961 117.244 193.65 121.157 194.888 123.957C195.602 125.685 196.049 127.328 195.996 129.199C195.706 129.199 195.416 129.199 195.117 129.199C194.564 128.143 194.012 127.086 193.461 126.029C193.275 125.671 193.088 125.313 192.901 124.956C189.288 118.059 189.288 118.059 188.965 116.016Z" fill="black"/>
</svg>
