<svg width="300" height="300" viewBox="0 0 300 300" fill="none" xmlns="http://www.w3.org/2000/svg">
<path d="M137.146 68.9578C141.765 73.2405 144.772 78.3964 146.558 84.4119C146.661 84.749 146.661 84.749 146.765 85.0928C148.345 90.7365 148.46 96.6805 148.705 102.495C149.092 111.42 150.195 120.561 156.445 127.442C156.676 127.7 156.907 127.958 157.145 128.223C164.293 135.799 174.516 138.601 184.669 138.942C191.605 139.147 191.605 139.147 198.34 137.696C198.637 137.593 198.934 137.49 199.24 137.384C201.115 136.596 202.21 135.454 203.027 133.594C203.717 131.405 203.661 129.075 203.741 126.801C204.019 118.979 206.27 111.913 211.23 105.762C211.505 105.411 211.505 105.411 211.784 105.052C213.416 103.076 215.946 100.864 218.555 100.38C218.748 100.373 218.941 100.367 219.141 100.36C219.334 100.349 219.527 100.337 219.727 100.325C220.896 100.651 221.392 101.8 221.986 102.788C226.246 111.018 226.865 120.183 225.293 129.2C225.481 128.996 225.481 128.996 225.672 128.789C231.905 122.055 239.002 114.875 248.427 113.259C249.442 113.464 249.856 114.055 250.488 114.844C253.127 122.355 251.54 132.378 248.233 139.482C244.454 147.221 238.175 152.938 230.548 156.794C230.348 156.895 230.147 156.997 229.94 157.102C228.808 157.665 227.723 158.065 226.501 158.405C225.847 158.628 225.847 158.628 225.293 159.082C225.04 159.853 225.04 159.853 224.966 160.765C224.901 161.279 224.901 161.279 224.836 161.804C224.793 162.162 224.751 162.521 224.707 162.891C224.605 163.581 224.5 164.27 224.391 164.959C224.336 165.31 224.281 165.661 224.224 166.023C223.563 170.14 222.717 174.139 221.484 178.125C221.416 178.351 221.348 178.577 221.278 178.81C218.634 187.497 214.391 195.255 208.887 202.442C209.35 202.905 209.875 202.86 210.515 202.945C210.792 202.983 211.068 203.02 211.353 203.059C211.645 203.097 211.937 203.135 212.238 203.174C212.519 203.212 212.801 203.25 213.091 203.29C216.437 203.736 219.735 203.973 223.109 204.058C229.436 204.265 229.436 204.265 231.738 206.25C232.588 207.233 232.777 208.102 232.718 209.404C232.343 211.842 231.046 213.84 229.395 215.625C229.201 215.722 229.008 215.819 228.809 215.918C228.549 216.418 228.549 216.418 228.314 217.035C225.859 222.697 221.65 227.325 215.861 229.675C201.522 235.016 181.72 231.629 168.164 225.586C162.715 222.963 162.715 222.963 160.736 221.593C159.744 221.079 158.987 221.061 157.871 221.029C157.448 221.013 157.026 220.997 156.603 220.981C156.269 220.97 156.269 220.97 155.929 220.959C139.365 220.394 121.412 216.833 108.246 206.156C107.466 205.628 106.993 205.42 106.055 205.371C105.369 205.591 105.369 205.591 104.681 205.976C93.7054 211.272 81.1078 210.6 69.7266 207.019C65.893 205.658 61.7374 203.895 59.7656 200.098C59.6039 199.127 59.576 198.445 60.006 197.542C61.613 195.324 64.6193 194.276 67.0235 193.12C69.0943 192.121 70.9323 191.084 72.6562 189.551C72.8538 189.384 73.0513 189.217 73.2548 189.045C76.621 185.985 78.3907 181.285 79.4323 176.96C79.7608 176.197 80.1519 175.908 80.8594 175.489C81.5002 175.544 81.5002 175.544 82.0312 175.782C82.976 177.671 82.3206 180.164 81.72 182.062C79.1382 189.379 74.2807 193.653 67.5064 196.989C64.0183 198.633 64.0183 198.633 62.9883 198.633C65.9109 202.82 71.5075 203.626 76.1719 204.785C76.3987 204.843 76.6254 204.901 76.8591 204.961C85.0603 206.975 95.5344 206.237 103.125 202.442C102.712 201.5 102.216 200.883 101.477 200.171C101.292 199.991 101.107 199.812 100.916 199.626C100.775 199.492 100.634 199.358 100.488 199.219C99.6288 199.624 98.8809 200.097 98.1079 200.647C95.0621 202.703 92.1834 203.089 88.5864 203.119C88.2567 203.128 87.927 203.136 87.5874 203.145C85.3319 203.162 83.4927 202.824 81.4453 201.856C81.1523 201.563 81.1523 201.563 81.0791 200.721C81.1523 199.805 81.1523 199.805 81.4453 199.237C82.2337 198.819 82.8033 199.016 83.6605 199.136C88.6286 199.711 93.3788 199.533 97.5586 196.582C97.381 195.653 97.0816 195.075 96.5069 194.328C96.351 194.121 96.1951 193.914 96.0345 193.701C95.8667 193.479 95.699 193.258 95.5261 193.03C86.4985 180.8 82.8624 164.953 82.0312 150C82.0084 149.595 82.0084 149.595 81.985 149.182C81.8122 145.629 82.0267 142.738 83.4961 139.453C83.5935 139.232 83.6909 139.011 83.7912 138.783C85.0838 135.877 86.5056 133.075 88.1836 130.371C87.5185 130.348 86.8531 130.331 86.1877 130.316C85.8173 130.306 85.4468 130.296 85.0651 130.286C84.092 130.281 84.092 130.281 83.511 130.814C83.4094 130.958 83.3078 131.102 83.2031 131.25C83.0383 130.683 83.0383 130.683 82.9102 130.078C83.0068 129.982 83.1035 129.885 83.2031 129.785C82.9433 129.671 82.6835 129.556 82.4158 129.438C81.3822 128.872 80.7927 128.292 79.9805 127.442C79.3103 126.846 78.6339 126.259 77.9549 125.674C76.946 124.723 76.3778 123.83 75.8972 122.534C75.7956 122.28 75.694 122.025 75.5894 121.762C75.4017 121.277 75.2241 120.788 75.0607 120.295C74.8105 119.643 74.5873 119.173 74.1211 118.653C73.1621 118.274 72.2113 118.344 71.1914 118.36C70.7493 118.351 70.3071 118.34 69.865 118.329C67.1088 118.274 64.6147 118.414 61.948 119.153C61.2305 119.239 61.2305 119.239 60.7029 118.978C60.2763 118.594 59.8737 118.184 59.4727 117.774C59.4727 116.895 59.4727 116.895 60.0403 116.309C62.7354 114.549 65.7634 114.503 68.8843 114.514C69.2019 114.513 69.5195 114.512 69.8467 114.511C70.1522 114.511 70.4578 114.512 70.7726 114.512C71.0498 114.512 71.327 114.513 71.6127 114.513C72.2977 114.548 72.8797 114.65 73.5352 114.844C73.4872 114.679 73.4392 114.515 73.3898 114.345C73.2338 113.634 73.2132 113.007 73.2239 112.281C73.2265 112.046 73.2292 111.812 73.2319 111.571C73.2353 111.394 73.2387 111.218 73.2422 111.035C69.1249 110.575 64.9817 110.343 60.9604 111.458C59.8859 111.653 59.0694 111.573 58.0078 111.328C57.2937 110.578 57.2937 110.578 56.8359 109.864C57.7102 108.576 58.3827 108.15 59.8755 107.74C60.198 107.647 60.5205 107.555 60.8528 107.46C62.8751 106.97 64.7606 106.888 66.8335 106.897C67.133 106.898 67.4325 106.898 67.7411 106.899C69.7837 106.911 71.7985 106.982 73.8281 107.227C73.9059 106.98 73.9837 106.733 74.0639 106.478C74.1674 106.157 74.2708 105.836 74.3774 105.506C74.5304 105.026 74.5304 105.026 74.6864 104.537C75 103.711 75 103.711 75.5859 103.125C75.6398 102.048 75.6494 101.105 75.4417 100.047C74.7396 95.2183 75.1965 90.2342 76.4648 85.5472C76.5425 85.2526 76.5425 85.2526 76.6216 84.9521C79.1168 75.7846 85.9009 68.2707 94.0202 63.6138C107.93 56.0201 125.345 58.6429 137.146 68.9578ZM102.832 63.5745C102.635 63.6327 102.438 63.6909 102.235 63.7509C93.6214 66.3642 86.2264 72.4108 81.9775 80.3515C78.5733 87.0985 77.9051 94.574 79.1016 101.953C79.1982 102.243 79.2949 102.533 79.3945 102.832C79.1233 103.328 79.1233 103.328 78.717 103.876C77.8191 105.215 77.5606 106.526 77.3438 108.106C78.9764 108.722 80.6145 109.319 82.259 109.902C82.9102 110.157 82.9102 110.157 83.2031 110.45C83.2397 111.328 83.2397 111.328 83.2031 112.207C83.1064 112.304 83.0098 112.401 82.9102 112.5C81.1355 112.366 79.4806 111.95 77.766 111.482C77.412 111.406 77.412 111.406 77.0508 111.328C76.5106 111.869 76.7216 112.603 76.7189 113.32C76.7625 114.043 76.9033 114.721 77.0508 115.43C77.2534 115.473 77.456 115.516 77.6647 115.56C78.5772 115.753 79.4894 115.949 80.4016 116.144C80.7205 116.211 81.0395 116.279 81.3681 116.348C81.6711 116.414 81.9742 116.479 82.2865 116.546C82.5672 116.606 82.848 116.665 83.1372 116.727C83.7891 116.895 83.7891 116.895 84.082 117.188C84.137 118.048 84.137 118.048 84.082 118.946C83.4961 119.532 83.4961 119.532 82.8804 119.535C82.6364 119.504 82.3925 119.472 82.1411 119.44C81.7514 119.392 81.7514 119.392 81.3538 119.344C80.964 119.292 80.964 119.292 80.5664 119.239C80.1148 119.184 79.6631 119.129 79.2114 119.074C78.8851 119.031 78.5588 118.989 78.2227 118.946C79.4167 122.329 81.8964 124.682 85.017 126.312C87.5785 127.345 90.5624 126.815 93.116 125.962C94.2234 125.476 95.2121 124.851 95.7424 123.718C95.8301 122.711 95.4462 121.872 95.105 120.941C94.4968 119.192 94.2589 117.68 94.2627 115.833C94.2457 113.447 93.4047 111.969 92.0013 110.086C91.1165 108.884 91.0793 108.041 91.095 106.586C91.0976 106.268 91.1003 105.949 91.103 105.621C91.1064 105.378 91.1098 105.134 91.1133 104.883C91.4698 104.744 91.8263 104.605 92.1936 104.462C92.3941 104.384 92.5947 104.306 92.8013 104.225C95.2255 103.409 98.581 103.272 101.038 104.041C101.953 104.59 101.953 104.59 102.502 105.341C102.598 107.956 100.158 110.066 98.4879 111.87C97.8516 112.5 97.8516 112.5 97.2656 112.793C97.0156 116.85 97.6433 121.354 100.414 124.509C102.18 126.225 104.153 126.858 106.586 126.984C109.39 126.874 111.942 126.03 113.961 124.052C115.795 121.863 115.795 121.863 116.602 119.239C116.438 119.225 116.274 119.212 116.105 119.199C115.36 119.137 114.617 119.069 113.873 119.001C113.486 118.97 113.486 118.97 113.091 118.938C112.843 118.915 112.594 118.891 112.339 118.867C112.11 118.847 111.881 118.827 111.646 118.806C110.905 118.62 110.611 118.382 110.156 117.774C110.211 117.005 110.211 117.005 110.449 116.309C111.198 115.934 111.729 115.983 112.566 115.987C112.868 115.988 113.171 115.989 113.482 115.99C113.798 115.993 114.115 115.995 114.441 115.998C114.919 116 114.919 116 115.407 116.002C116.196 116.005 116.985 116.01 117.773 116.016C117.83 115.387 117.885 114.759 117.938 114.13C117.969 113.78 117.999 113.43 118.031 113.069C118.043 112.785 118.054 112.5 118.066 112.207C117.779 111.856 117.779 111.856 117.238 111.875C115.424 111.881 113.653 112.016 111.851 112.229C111.035 112.207 111.035 112.207 110.479 111.823C110.156 111.328 110.156 111.328 110.248 110.541C110.314 110.317 110.381 110.094 110.449 109.864C112.66 109.232 114.911 108.97 117.188 108.692C117.092 108.374 116.996 108.056 116.897 107.729C116.622 106.716 116.551 105.924 116.602 104.883C117.182 104.786 117.762 104.69 118.359 104.59C118.634 104.999 118.909 105.408 119.183 105.817C119.336 106.045 119.489 106.272 119.647 106.507C120.117 107.227 120.117 107.227 120.466 107.997C120.942 108.783 120.942 108.783 121.864 108.849C122.389 108.832 122.389 108.832 122.924 108.814C123.21 108.809 123.21 108.809 123.502 108.804C124.114 108.792 124.724 108.77 125.336 108.747C126.131 108.722 126.926 108.702 127.722 108.686C127.918 108.682 128.113 108.678 128.315 108.674C130.578 108.652 132.904 108.852 135.059 109.571C135.095 111.255 135.095 111.255 134.766 111.914C134.574 111.905 134.383 111.897 134.186 111.887C130.816 111.734 127.447 111.592 124.072 111.585C123.824 111.583 123.576 111.582 123.32 111.581C122.215 111.477 122.215 111.477 121.289 111.914C121.22 112.752 121.165 113.584 121.124 114.423C121.105 114.777 121.105 114.777 121.086 115.139C121.055 115.724 121.025 116.309 120.996 116.895C121.173 116.93 121.349 116.965 121.531 117.001C125.45 117.792 129.267 118.693 133.008 120.117C133.3 120.228 133.3 120.228 133.598 120.34C134.094 120.537 134.578 120.765 135.059 120.996C135.37 121.729 135.37 121.729 135.352 122.461C135.158 122.751 134.965 123.041 134.766 123.34C132.758 123.163 130.938 122.648 129.016 122.058C124.502 120.597 124.502 120.597 119.824 120.117C119.631 120.432 119.438 120.746 119.238 121.07C119.13 121.246 119.021 121.423 118.909 121.605C118.571 122.243 118.571 122.243 118.652 123.34C117.941 124.941 117.139 125.739 115.715 126.734C114.933 127.295 114.31 127.895 113.672 128.614C113.672 128.807 113.672 129 113.672 129.2C113.025 129.262 112.377 129.325 111.73 129.386C110.986 129.466 110.248 129.559 109.507 129.663C105.307 130.232 102.181 129.968 98.465 127.841C97.4615 127.399 97.1042 127.347 96.0938 127.735C91.189 131.024 87.6621 137.385 86.5219 143.086C86.0449 145.663 85.9834 148.21 86.0046 150.824C86.0055 151.059 86.0064 151.293 86.0073 151.535C86.0937 167.027 91.2932 183.066 101.501 194.843C101.889 195.291 102.276 195.741 102.646 196.204C102.989 196.632 103.349 197.048 103.711 197.461C103.904 197.461 104.098 197.461 104.297 197.461C104.297 197.655 104.297 197.848 104.297 198.047C104.49 198.047 104.684 198.047 104.883 198.047C105.028 198.482 105.028 198.482 105.176 198.926C105.591 199.37 105.591 199.37 106.128 199.805C106.341 199.984 106.553 200.164 106.772 200.349C107.019 200.556 107.265 200.763 107.52 200.977C107.799 201.223 108.079 201.47 108.368 201.724C114.649 207.237 122.056 211.002 130.078 213.282C130.494 213.402 130.494 213.402 130.918 213.525C138.471 215.674 147.104 217.348 154.98 217.09C154.706 216.766 154.432 216.443 154.156 216.12C154.004 215.94 153.851 215.759 153.693 215.574C153.047 214.839 153.047 214.839 152.344 214.16C152.15 214.16 151.957 214.16 151.758 214.16C151.687 213.995 151.617 213.83 151.544 213.659C151.097 212.853 150.551 212.296 149.908 211.634C142.597 203.803 135.527 191.725 135.896 180.723C135.91 180.446 135.923 180.169 135.938 179.883C136.597 179.663 136.597 179.663 137.402 179.59C138.063 180.016 138.063 180.016 138.574 180.762C138.718 181.543 138.802 182.247 138.849 183.033C139.082 185.649 139.733 187.967 140.625 190.43C140.73 190.72 140.835 191.01 140.943 191.309C144.21 199.649 149.824 208.118 156.738 213.867C156.994 214.09 157.249 214.312 157.512 214.542C171.395 226.476 190.568 229.018 208.273 227.755C214.427 227.212 219.04 224.632 223.064 220.058C223.587 219.434 223.587 219.434 223.828 218.555C222.04 218.889 220.285 219.291 218.528 219.758C211.708 221.56 204.854 222.429 197.809 222.418C197.584 222.418 197.359 222.418 197.127 222.418C183.985 222.39 171.218 219.582 161.133 210.645C160.918 210.454 160.703 210.264 160.482 210.068C155.444 205.314 150.787 198.352 149.706 191.413C149.707 190.723 149.707 190.723 150.293 189.844C150.861 189.606 150.861 189.606 151.465 189.551C152.575 190.291 152.659 191.004 152.985 192.224C154.616 197.832 157.848 202.528 161.719 206.836C161.936 207.078 162.153 207.32 162.377 207.57C169.106 214.67 179.746 218.051 189.258 218.848C189.545 218.873 189.831 218.898 190.127 218.923C197.605 219.518 205.024 219.372 212.402 217.969C212.7 217.914 212.998 217.859 213.305 217.803C216.423 217.218 219.47 216.464 222.491 215.497C222.739 215.42 222.987 215.342 223.243 215.263C225.671 214.443 227.636 213.05 229.102 210.938C229.366 210.253 229.529 209.608 229.688 208.887C227.524 207.611 225.334 207.687 222.889 207.749C210.626 208.034 198.427 204.971 188.529 197.679C183.048 193.644 177.434 190.659 170.508 190.686C170.081 190.685 170.081 190.685 169.645 190.683C168.483 190.684 167.406 190.701 166.26 190.908C165.527 191.016 165.527 191.016 164.648 190.43C164.447 189.368 164.447 189.368 164.355 188.379C170.225 186.894 175.698 187.606 181.348 189.551C181.348 189.358 181.348 189.164 181.348 188.965C180.491 188.289 179.621 187.643 178.73 187.014C177.779 186.306 177.314 185.949 176.934 184.795C176.953 183.985 176.953 183.985 177.539 183.399C178.494 183.254 178.927 183.354 179.77 183.839C182.046 185.575 184.183 187.282 186.044 189.464C191.144 195.414 196.937 200.239 204.785 201.856C206.55 199.978 208.038 198.001 209.454 195.85C209.659 195.538 209.865 195.227 210.076 194.906C214.523 188.078 217.664 180.526 219.434 172.559C219.478 172.361 219.522 172.162 219.567 171.958C220.426 168.048 220.955 164.142 221.375 160.163C221.464 159.324 221.554 158.486 221.646 157.648C221.703 157.134 221.758 156.619 221.811 156.105C222.205 152.503 222.205 152.503 222.949 151.758C223.81 151.703 223.81 151.703 224.707 151.758C225.293 152.344 225.293 152.344 225.35 152.978C225.343 153.216 225.337 153.454 225.33 153.699C225.324 153.938 225.319 154.178 225.314 154.425C225.303 154.7 225.303 154.7 225.293 154.981C226.949 154.825 228.206 154.193 229.651 153.424C229.894 153.295 230.138 153.166 230.389 153.033C232.883 151.672 235.109 150.038 237.305 148.242C237.578 148.023 237.852 147.804 238.133 147.578C244.205 142.432 247.489 134.992 248.145 127.149C248.306 123.833 248.241 120.487 247.852 117.188C246.122 116.611 244.326 117.78 242.77 118.554C236.278 122.107 230.446 127.651 225.887 133.435C222.545 137.626 222.545 137.626 220.312 137.989C219.931 136.044 220.18 134.785 220.825 132.935C223.655 124.108 223.759 113.846 219.489 105.451C219.181 104.869 218.872 104.288 218.555 103.711C213.413 106.655 209.788 112.52 208.216 118.178C207.417 121.33 207.067 124.393 207.162 127.647C207.171 128.175 207.18 128.704 207.189 129.232C207.203 130.052 207.221 130.871 207.245 131.691C207.269 132.491 207.28 133.291 207.29 134.092C207.305 134.456 207.305 134.456 207.321 134.828C207.328 136.454 206.959 137.279 205.836 138.456C200.19 143.448 190.842 142.941 183.922 142.526C174.757 141.89 165.901 139.875 158.496 134.18C158.339 134.061 158.182 133.942 158.02 133.82C153.825 130.61 150.923 126.706 148.828 121.875C148.687 121.556 148.546 121.237 148.401 120.908C145.602 114.118 145.469 106.796 145.158 99.5663C144.759 90.4496 143.556 81.7813 137.695 74.4143C137.543 74.2142 137.392 74.014 137.235 73.8078C131.999 67.3089 122.902 63.7616 114.844 62.6956C113.597 62.6125 112.357 62.5976 111.108 62.604C110.773 62.6057 110.437 62.6073 110.092 62.6091C107.564 62.6452 105.267 62.8542 102.832 63.5745Z" fill="black"/>
<path d="M121.344 89.9783C122.584 90.805 123.445 91.7221 123.926 93.1643C124.083 94.913 124.082 96.3682 123.047 97.8518C121.884 98.9932 120.972 99.6534 119.33 99.7012C117.771 99.6832 116.974 99.3632 115.723 98.4377C114.437 97.0501 114.168 95.9635 114.195 94.1245C114.356 92.4209 115.346 91.3113 116.602 90.2346C118.125 89.3703 119.736 89.4107 121.344 89.9783Z" fill="black"/>
<path d="M91.2232 89.5569C92.411 90.6033 93.3547 91.5444 93.5166 93.179C93.5475 94.6726 93.4457 95.7003 92.5782 96.9727C91.4091 98.1231 90.4933 98.7745 88.8428 98.822C87.4125 98.8056 86.643 98.5242 85.5469 97.5586C84.1981 96.0275 83.9757 95.1248 84.002 93.1137C84.1261 91.8303 84.4463 91.2492 85.254 90.2344C87.0883 88.8036 89.1051 88.4979 91.2232 89.5569Z" fill="black"/>
<path d="M97.0905 130.37C98.1495 130.779 98.4946 131.383 99.1333 132.312C101.088 135.055 103.504 137.788 106.934 138.574C107.612 138.653 108.288 138.72 108.969 138.767C109.57 138.867 109.57 138.867 110.449 139.453C110.607 140.489 110.573 141.016 110.01 141.907C108.971 142.582 108.117 142.577 106.934 142.383C102.209 141.126 98.2848 138.082 95.8008 133.887C95.4616 133.209 95.1852 132.549 94.9219 131.836C96.1721 130.372 96.1721 130.372 97.0905 130.37Z" fill="black"/>
<path d="M233.533 136.103C233.811 136.145 234.089 136.187 234.375 136.231C234.961 137.11 234.961 137.11 234.906 137.82C234.002 140.685 230.441 144.287 227.93 145.899C227.142 146.082 227.142 146.082 226.465 145.899C225.787 145.313 225.787 145.313 225.293 144.727C225.692 143.475 226.208 142.882 227.216 142.053C228.601 140.857 229.731 139.569 230.857 138.129C232.365 136.266 232.365 136.266 233.533 136.103Z" fill="black"/>
<path d="M213.867 123.34C214.821 123.462 215.225 123.526 215.918 124.219C216.54 127.094 216.833 130.064 215.845 132.88C215.332 133.594 215.332 133.594 214.655 134.07C213.867 134.18 213.867 134.18 212.897 133.63C212.507 133.322 212.507 133.322 212.109 133.008C212.176 132.854 212.243 132.7 212.312 132.542C213.043 130.573 213.004 128.9 212.767 126.849C212.63 125.481 212.724 124.727 213.574 123.633C213.671 123.536 213.768 123.439 213.867 123.34Z" fill="black"/>
</svg>
