<svg width="300" height="300" viewBox="0 0 300 300" fill="none" xmlns="http://www.w3.org/2000/svg">
<path d="M158.809 53.7739C159.167 53.7641 159.167 53.7641 159.533 53.7541C159.79 53.7522 160.047 53.7503 160.312 53.7483C160.712 53.7429 160.712 53.7429 161.119 53.7374C161.683 53.7316 162.248 53.7283 162.812 53.7273C163.67 53.7232 164.527 53.7035 165.385 53.6831C165.934 53.6795 166.483 53.6768 167.032 53.6751C167.287 53.6673 167.541 53.6594 167.803 53.6514C169.603 53.6712 170.484 54.1681 171.76 55.4254C172.01 55.6886 172.01 55.6886 172.266 55.957C172.634 56.3068 172.634 56.3068 173.01 56.6636C173.322 56.975 173.322 56.975 173.64 57.2926C173.992 57.6435 173.992 57.6435 174.35 58.0015C174.587 58.2393 174.823 58.477 175.067 58.7219C175.305 58.9585 175.543 59.1951 175.788 59.4389C177.214 60.8672 178.578 62.3277 179.883 63.8672C180.042 64.0534 180.201 64.2397 180.364 64.4316C184.51 69.3219 188.12 74.4181 191.309 79.9805C191.473 80.2615 191.473 80.2615 191.641 80.5481C193.568 83.8463 194.911 87.3756 196.284 90.9303C196.573 91.677 196.869 92.421 197.168 93.1641C197.425 81.1004 194.185 70.5398 185.822 61.6493C185.222 61.0076 184.657 60.3488 184.094 59.6741C183.112 58.5373 181.984 57.6977 180.762 56.8359C180.469 56.543 180.469 56.543 180.396 55.7007C180.469 54.7852 180.469 54.7852 180.774 54.2964C181.647 53.7022 182.541 53.775 183.561 53.7792C183.886 53.7769 183.886 53.7769 184.217 53.7746C184.674 53.7727 185.132 53.7731 185.589 53.7756C186.287 53.7781 186.984 53.7697 187.682 53.7603C188.127 53.7599 188.572 53.76 189.017 53.7609C189.225 53.7576 189.433 53.7543 189.646 53.7509C191.069 53.7708 191.767 54.0848 192.773 55.0781C193.704 56.1105 194.552 57.2076 195.41 58.3008C195.629 58.5772 195.848 58.8537 196.074 59.1385C200.616 65.0141 203.782 71.7125 205.609 78.9002C205.666 79.1236 205.723 79.347 205.782 79.5772C205.955 80.2951 206.107 81.0139 206.25 81.7383C206.307 82.0253 206.364 82.3123 206.422 82.608C206.781 84.7049 206.86 86.6916 206.813 88.813C206.687 95.1842 206.69 99.817 210.707 105.054C211.509 106.138 212.135 107.302 212.769 108.49C212.999 108.908 213.229 109.326 213.46 109.744C214.24 111.177 215.009 112.615 215.771 114.056C215.957 114.406 215.957 114.406 216.146 114.762C217.887 118.077 217.887 118.077 217.676 120.117C217.133 121.517 216.335 122.562 215.039 123.34C212.46 124.213 209.984 123.746 207.349 123.395C206.893 123.338 206.438 123.281 205.982 123.225C202.501 122.788 202.501 122.788 200.977 122.461C200.994 122.659 201.012 122.857 201.03 123.061C202.38 138.57 202.519 156.111 192.229 168.9C192.022 169.14 191.815 169.381 191.602 169.629C191.389 169.879 191.176 170.128 190.956 170.385C190.307 171.125 189.641 171.844 188.965 172.559C188.627 172.92 188.627 172.92 188.282 173.289C186.638 174.993 184.879 176.441 182.985 177.851C182.283 178.348 182.283 178.348 181.934 178.711C181.886 179.107 181.858 179.505 181.838 179.904C181.824 180.161 181.81 180.419 181.795 180.685C181.781 180.97 181.767 181.256 181.753 181.55C181.737 181.849 181.721 182.149 181.705 182.457C181.653 183.461 181.602 184.465 181.551 185.469C181.515 186.178 181.478 186.887 181.441 187.596C181.343 189.483 181.246 191.37 181.15 193.257C181.055 195.108 180.959 196.959 180.864 198.81C180.749 201.014 180.635 203.219 180.522 205.423C180.329 209.2 180.13 212.977 179.923 216.753C179.902 217.129 179.881 217.506 179.86 217.893C179.762 219.687 179.663 221.48 179.563 223.274C179.527 223.918 179.492 224.562 179.457 225.206C179.432 225.633 179.432 225.633 179.408 226.068C179.33 227.506 179.277 228.944 179.255 230.384C179.251 230.663 179.247 230.942 179.242 231.229C179.338 232.63 179.889 233.799 180.487 235.052C180.665 235.446 180.665 235.446 180.846 235.847C181.202 236.629 181.566 237.407 181.934 238.184C182.144 238.634 182.355 239.085 182.565 239.536C182.915 240.285 183.27 241.031 183.628 241.776C183.984 242.578 183.984 242.578 183.984 243.164C184.232 243.162 184.48 243.159 184.735 243.157C190.762 243.101 196.789 243.05 202.817 243.004C205.731 242.982 208.646 242.958 211.561 242.93C214.101 242.906 216.641 242.885 219.181 242.867C220.527 242.858 221.872 242.847 223.217 242.832C224.483 242.819 225.749 242.809 227.015 242.803C227.48 242.8 227.945 242.795 228.409 242.789C229.044 242.781 229.678 242.778 230.313 242.777C230.846 242.772 230.846 242.772 231.389 242.768C232.504 242.891 233.283 243.244 234.082 244.043C234.191 245.027 234.216 245.596 233.666 246.436C232.521 247.249 231.474 247.134 230.101 247.119C229.667 247.122 229.667 247.122 229.224 247.124C228.246 247.128 227.269 247.124 226.291 247.119C225.586 247.121 224.881 247.122 224.176 247.124C222.64 247.128 221.103 247.128 219.567 247.124C217.282 247.119 214.997 247.121 212.712 247.124C208.632 247.129 204.552 247.127 200.471 247.123C196.901 247.119 193.331 247.117 189.76 247.118C189.524 247.118 189.287 247.118 189.043 247.118C188.083 247.118 187.123 247.119 186.163 247.119C177.15 247.121 168.137 247.116 159.124 247.109C151.111 247.102 143.098 247.1 135.085 247.103C133.033 247.104 130.982 247.105 128.93 247.106C128.551 247.106 128.551 247.106 128.164 247.106C121.475 247.108 114.785 247.106 108.095 247.103C107.376 247.103 106.656 247.102 105.937 247.102C105.46 247.102 104.982 247.102 104.505 247.101C100.936 247.1 97.367 247.1 93.7981 247.101C89.7416 247.103 85.6851 247.101 81.6286 247.095C79.3564 247.092 77.0842 247.091 74.8121 247.094C73.1191 247.096 71.4262 247.093 69.7333 247.088C69.0457 247.087 68.358 247.087 67.6704 247.089C66.7408 247.091 65.8113 247.088 64.8817 247.084C64.4746 247.087 64.4746 247.087 64.0593 247.09C63.6896 247.087 63.6896 247.087 63.3124 247.083C63.0996 247.083 62.8869 247.083 62.6677 247.083C61.9423 246.94 61.6882 246.663 61.2305 246.094C60.9375 245.398 60.9375 245.398 60.9375 244.629C61.5247 243.805 62.0007 243.25 63.0195 243.032C63.7963 242.983 64.5606 242.983 65.3387 242.998C65.6332 242.998 65.9278 242.997 66.2312 242.997C67.2031 242.998 68.1745 243.01 69.1463 243.021C69.8208 243.024 70.4953 243.026 71.1697 243.027C72.9437 243.033 74.7174 243.047 76.4913 243.063C78.3019 243.078 80.1125 243.085 81.9231 243.093C85.4749 243.108 89.0265 243.133 92.5781 243.164C92.4977 242.964 92.4173 242.764 92.3345 242.557C92.1762 242.163 92.1762 242.163 92.0147 241.76C91.8578 241.369 91.8578 241.369 91.6978 240.97C91.3662 240.133 91.0561 239.292 90.7654 238.44C90.6706 238.167 90.5758 237.895 90.4781 237.614C89.9019 235.498 89.8671 233.304 89.7869 231.125C89.7748 230.808 89.7627 230.491 89.7502 230.165C89.6189 226.532 89.5562 222.899 89.5012 219.265C89.4837 218.116 89.4646 216.967 89.4453 215.818C89.1703 198.854 89.1703 198.854 90.2344 197.058C91.1446 196.262 92.0851 195.527 93.0473 194.794C96.1919 192.305 98.6346 189.157 99.1425 185.08C99.2999 179.325 96.5988 173.862 94.611 168.567C93.7615 166.301 92.9359 164.052 92.2852 161.719C92.123 161.723 91.9608 161.728 91.7938 161.733C85.6858 161.883 85.6858 161.883 83.4961 160.84C83.2031 160.547 83.2031 160.547 83.0429 159.89C83.2031 159.082 83.2031 159.082 83.6145 158.712C84.2227 158.312 84.8429 157.944 85.4736 157.581C88.8799 155.497 91.5025 152.907 94.1689 149.954C100.644 142.79 109.285 138.563 118.945 137.988C120.419 137.958 121.892 137.959 123.367 137.966C124.108 137.97 124.849 137.972 125.59 137.973C127.434 137.977 129.278 137.984 131.123 137.991C139.163 138.027 139.163 138.027 147.201 137.878C147.535 137.869 147.869 137.86 148.214 137.851C151.823 137.761 151.823 137.761 155.017 136.285C158.607 133.728 163.39 133.503 167.633 133.063C168.206 132.999 168.779 132.935 169.353 132.871C170.395 132.756 171.438 132.641 172.482 132.533C172.689 132.512 172.895 132.49 173.108 132.468C173.805 132.416 174.496 132.414 175.195 132.422C175.222 132.256 175.249 132.09 175.277 131.92C175.767 129.064 176.448 126.254 177.11 123.435C177.24 122.879 177.37 122.323 177.499 121.767C177.839 120.311 178.18 118.856 178.521 117.401C179.067 115.067 179.613 112.733 180.158 110.399C180.348 109.587 180.538 108.774 180.729 107.962C180.846 107.463 180.962 106.964 181.079 106.465C181.132 106.241 181.184 106.017 181.239 105.786C181.656 104.028 181.656 104.028 181.934 102.246C181.524 101.632 181.524 101.632 180.89 101.147C177.677 98.1981 176.368 94.0555 175.983 89.8132C176.098 88.8704 176.209 88.4951 176.953 87.8906C179.734 87.4356 182.277 88.9255 184.497 90.4724C184.915 90.7803 185.331 91.0903 185.742 91.4063C185.742 85.7261 179.193 78.1249 175.781 73.8281C175.627 73.6318 175.472 73.4355 175.313 73.2332C168.333 63.6238 168.333 63.6238 158.954 57.6233C158.601 57.5887 158.601 57.5887 158.241 57.5535C157.476 57.3921 157.205 57.1625 156.738 56.543C156.549 55.0321 156.549 55.0321 157.11 54.299C157.725 53.8229 158.038 53.7895 158.809 53.7739ZM166.406 57.7149C167.52 59.0493 168.649 60.3377 169.922 61.5234C170.115 61.5234 170.309 61.5234 170.508 61.5234C170.577 61.6892 170.646 61.855 170.717 62.0258C171.18 62.8485 171.746 63.382 172.43 64.032C173.973 65.5456 175.322 67.1534 176.66 68.8477C176.909 69.1546 177.158 69.4613 177.407 69.7678C183.025 76.7227 187.771 84.404 190.607 92.9078C191.047 94.2239 191.527 95.4526 192.188 96.6797C192.768 96.6797 193.348 96.6797 193.945 96.6797C191.794 85.9185 185.222 76.2108 178.291 67.9324C177.859 67.4155 177.432 66.8949 177.006 66.3735C175.248 64.2473 173.372 62.2294 171.46 60.2417C171.228 59.9921 170.996 59.7426 170.757 59.4855C169.586 58.2309 169.586 58.2309 168.059 57.5589C167.347 57.5395 167.347 57.5395 166.406 57.7149ZM187.793 57.7149C188.623 58.8447 189.463 59.9586 190.358 61.0382C192.403 63.5162 194.16 66.0288 195.703 68.8477C195.857 69.1245 195.857 69.1245 196.014 69.4069C199.919 76.4988 201.041 84.0402 200.995 92.0471C200.993 92.4982 200.992 92.9493 200.991 93.4004C200.988 94.4935 200.983 95.5866 200.977 96.6797C201.653 96.6797 202.33 96.6797 203.027 96.6797C204.667 84.9943 201.206 72.4931 194.338 62.9917C192.925 61.1735 191.473 59.3444 189.844 57.7149C188.794 57.666 188.794 57.666 187.793 57.7149ZM180.469 92.5781C181.293 95.9753 182.582 98.2774 185.513 100.257C186.501 101.803 185.604 103.88 185.231 105.592C184.981 106.686 184.722 107.776 184.459 108.867C184.362 109.274 184.265 109.682 184.168 110.089C183.911 111.166 183.652 112.243 183.393 113.32C183.233 113.985 183.074 114.65 182.914 115.316C178.836 132.339 178.836 132.339 177.832 135.352C174.787 135.932 174.787 135.932 171.68 136.523C172.405 137.249 172.405 137.249 173.145 137.988C173.308 138.164 173.471 138.339 173.639 138.519C174.009 138.933 174.009 138.933 174.609 138.867C174.685 139.038 174.76 139.209 174.837 139.384C175.228 140.098 175.668 140.56 176.239 141.138C181.255 146.674 183.632 154.987 183.453 162.347C183.187 166.41 182.368 170.166 181.055 174.023C187.736 170.916 192.411 162.888 194.886 156.247C196.315 152.164 197.077 147.855 197.461 143.555C197.493 143.191 197.526 142.827 197.559 142.451C197.93 137.497 197.801 132.56 197.479 127.606C197.467 127.409 197.454 127.211 197.441 127.008C197.273 124.135 197.273 124.135 196.875 121.289C196.241 120.748 196.241 120.748 195.41 120.428C191.896 118.692 189.734 116.032 188.276 112.39C187.007 108.521 187.007 108.521 187.207 106.641C187.587 106.115 187.587 106.115 188.086 105.762C189.02 105.853 189.02 105.853 189.844 106.055C189.973 106.433 190.101 106.811 190.228 107.19C190.31 107.431 190.391 107.673 190.475 107.921C190.634 108.416 190.782 108.914 190.915 109.416C191.832 112.86 193.655 115.531 196.769 117.344C199.894 118.874 203.323 119.077 206.744 119.421C207.115 119.461 207.486 119.5 207.869 119.54C210.57 119.818 210.57 119.818 213.281 119.824C213.378 119.728 213.475 119.631 213.574 119.531C213.464 117.943 212.992 116.719 212.243 115.338C212.085 115.038 212.085 115.038 211.923 114.731C211.58 114.083 211.231 113.438 210.883 112.793C210.644 112.347 210.405 111.901 210.167 111.455C207.23 105.467 207.23 105.467 203.32 100.195C202.706 100.101 202.706 100.101 201.991 100.107C201.715 100.102 201.439 100.097 201.155 100.092C200.856 100.089 200.557 100.087 200.249 100.084C199.942 100.079 199.634 100.074 199.318 100.069C198.333 100.054 197.348 100.042 196.362 100.031C195.381 100.018 194.4 100.004 193.419 99.9887C192.808 99.9794 192.197 99.9715 191.586 99.9652C188.743 99.925 188.743 99.925 187.5 99.6094C186.995 99.0017 186.995 99.0017 186.603 98.2361C185.204 95.7042 183.298 93.5213 180.469 92.5781ZM155.341 140.389C153.465 141.437 151.355 141.597 149.237 141.683C149 141.694 148.762 141.705 148.517 141.716C145.771 141.832 143.023 141.846 140.275 141.855C139.323 141.859 138.371 141.864 137.42 141.871C134.718 141.889 132.016 141.905 129.314 141.914C127.649 141.921 125.984 141.931 124.319 141.944C123.692 141.948 123.065 141.951 122.438 141.952C113.366 141.967 106.234 144.002 99.3164 150C98.9995 150.251 98.6822 150.501 98.3643 150.751C97.5165 151.502 96.808 152.304 96.0766 153.167C95.235 154.117 94.3206 154.988 93.4044 155.865C92.8081 156.434 92.8081 156.434 92.5781 157.324C93.5912 157.153 94.4268 156.895 95.3487 156.444C95.7235 156.265 95.7235 156.265 96.1058 156.083C96.3738 155.955 96.6417 155.827 96.9177 155.695C104.343 152.248 112.037 150.165 120.249 150.307C120.98 150.317 121.711 150.326 122.442 150.335C122.825 150.341 123.209 150.346 123.604 150.351C125.86 150.379 128.116 150.385 130.372 150.395C132.754 150.404 135.135 150.422 137.516 150.463C139.416 150.495 141.314 150.511 143.214 150.508C144.217 150.507 145.218 150.514 146.22 150.541C150.224 150.83 150.224 150.83 153.844 149.52C154.949 148.259 155.541 146.857 156.152 145.313C156.962 144.908 157.602 144.964 158.496 145.02C159.082 145.605 159.082 145.605 159.082 146.503C158.869 147.735 158.215 148.572 157.506 149.579C154.263 154.455 154.095 160.42 155.205 165.999C155.623 167.895 156.103 169.774 156.626 171.644C156.737 172.044 156.845 172.445 156.949 172.846C157.099 173.415 157.264 173.98 157.428 174.544C157.521 174.874 157.614 175.204 157.709 175.544C158.262 176.466 158.435 176.528 159.406 176.858C159.619 176.932 159.832 177.006 160.052 177.083C160.215 177.137 160.378 177.191 160.547 177.246C160.548 177.55 160.55 177.855 160.551 178.169C160.586 185.596 160.63 193.023 160.685 200.45C160.711 204.041 160.734 207.633 160.75 211.225C160.763 214.358 160.783 217.49 160.81 220.623C160.824 222.28 160.835 223.937 160.838 225.594C160.842 227.157 160.854 228.721 160.872 230.285C160.877 230.855 160.879 231.424 160.878 231.994C160.873 235.917 161.512 239.195 162.891 242.871C164.288 243.172 165.291 243.086 166.699 242.871C166.412 242.261 166.124 241.651 165.836 241.041C165.592 240.525 165.35 240.008 165.109 239.49C164.513 238.217 163.892 237.015 163.147 235.822C162.516 234.545 162.569 233.401 162.674 232.016C162.697 231.67 162.697 231.67 162.721 231.316C162.909 228.607 163.18 225.906 163.457 223.204C163.514 222.639 163.572 222.074 163.629 221.508C163.782 219.999 163.938 218.491 164.094 216.982C164.191 216.042 164.288 215.102 164.385 214.162C165.316 205.129 166.331 196.109 167.45 187.097C167.482 186.839 167.514 186.581 167.547 186.315C167.729 184.844 167.913 183.372 168.099 181.901C168.155 181.459 168.21 181.018 168.266 180.576C168.341 179.977 168.417 179.379 168.494 178.78C168.537 178.446 168.579 178.113 168.623 177.768C168.75 176.953 168.75 176.953 169.043 176.074C170.581 175.69 170.581 175.69 171.46 176.056C172.228 176.961 172.331 177.845 172.559 179.004C174.833 178.292 175.828 176.164 176.933 174.18C180.265 167.659 180.814 159.869 178.647 152.89C176.722 147.206 173.452 141.953 168.164 138.867C163.447 136.608 159.542 137.448 155.341 140.389ZM98.5657 158.679C98.3231 158.788 98.0805 158.897 97.8305 159.01C97.6075 159.116 97.3844 159.222 97.1546 159.332C96.9565 159.425 96.7584 159.518 96.5543 159.614C96.0543 159.927 96.0543 159.927 95.8918 160.481C95.7778 161.298 95.9431 161.764 96.2284 162.536C96.3292 162.814 96.4301 163.092 96.534 163.379C96.6463 163.678 96.7586 163.978 96.8742 164.287C96.9882 164.599 97.1022 164.912 97.2197 165.233C97.586 166.236 97.9566 167.237 98.3276 168.237C98.8091 169.544 99.2888 170.852 99.7673 172.16C99.9404 172.633 99.9404 172.633 100.117 173.116C102.334 179.21 104.092 184.516 101.184 190.759C99.5288 193.854 96.989 196.885 93.9754 198.743C93.2161 199.44 93.2763 199.945 93.1641 200.977C93.1262 202.124 93.1306 203.269 93.1377 204.417C93.1389 204.752 93.14 205.088 93.1411 205.434C93.1576 209.039 93.2192 212.643 93.2922 216.248C93.2989 216.582 93.3056 216.917 93.3124 217.262C93.3522 219.252 93.394 221.242 93.4376 223.232C93.45 223.798 93.4622 224.363 93.4742 224.929C93.5028 226.274 93.5337 227.62 93.5701 228.965C93.5845 229.516 93.5969 230.066 93.6092 230.617C93.7148 234.166 94.1234 237.261 95.6909 240.472C95.814 240.735 95.9371 240.997 96.064 241.267C96.3625 241.902 96.6669 242.533 96.9727 243.164C98.1328 243.164 99.293 243.164 100.488 243.164C100.294 242.729 100.099 242.293 99.8989 241.845C99.6375 241.253 99.3762 240.661 99.115 240.07C98.9875 239.785 98.8601 239.5 98.7288 239.207C96.9355 235.129 95.8603 231.798 96.0148 227.33C96.0241 226.889 96.0328 226.448 96.0408 226.007C96.0634 224.854 96.0951 223.701 96.129 222.548C96.1614 221.401 96.1861 220.253 96.2111 219.105C96.2405 217.76 96.2704 216.415 96.304 215.07C96.4001 211.153 96.4133 207.238 96.3867 203.32C96.5629 203.235 96.739 203.149 96.9205 203.061C100.596 201.179 103.834 198.191 106.849 195.423C107.52 194.824 107.52 194.824 108.337 194.198C108.55 194.018 108.764 193.838 108.984 193.652C108.984 193.459 108.984 193.266 108.984 193.066C109.178 193.066 109.371 193.066 109.57 193.066C110.001 192.652 110.001 192.652 110.449 192.096C111.27 191.125 112.119 190.198 112.994 189.276C118.719 182.993 123.673 174.51 123.458 165.775C123.306 164.323 122.944 163.022 122.453 161.651C122.185 160.887 121.984 160.177 121.875 159.375C121.972 159.182 122.068 158.988 122.168 158.789C124.039 158.645 124.039 158.645 124.833 159.28C125.442 160.024 125.723 160.647 126.031 161.554C126.126 161.825 126.221 162.097 126.319 162.377C127.567 166.508 126.666 170.535 125.684 174.609C133.486 176.654 141.924 176.496 149.762 174.774C150.175 174.684 150.175 174.684 150.596 174.592C150.85 174.532 151.105 174.471 151.368 174.409C151.592 174.356 151.816 174.303 152.048 174.248C152.751 173.98 153.093 173.771 153.516 173.145C153.484 172.431 153.484 172.431 153.238 171.655C153.158 171.36 153.079 171.065 152.997 170.761C152.909 170.448 152.82 170.135 152.728 169.812C152.557 169.168 152.388 168.524 152.219 167.88C152.138 167.572 152.056 167.264 151.972 166.946C150.991 163.133 150.955 159.24 151.321 155.337C151.362 154.906 151.362 154.906 151.402 154.467C151.423 154.249 151.444 154.032 151.465 153.809C147.13 153.795 142.795 153.785 138.46 153.778C136.447 153.775 134.433 153.771 132.42 153.764C130.473 153.758 128.526 153.755 126.579 153.753C125.84 153.752 125.101 153.75 124.363 153.747C115.188 153.709 106.962 154.823 98.5657 158.679ZM152.95 177.546C152.719 177.609 152.488 177.672 152.249 177.737C152.003 177.805 151.756 177.872 151.501 177.942C149.353 178.517 147.23 179.019 145.02 179.297C144.771 179.329 144.522 179.362 144.265 179.395C137.587 180.134 130.807 179.207 124.219 178.125C124.025 178.705 123.832 179.285 123.633 179.883C133.129 182.399 146.236 183.165 155.566 179.59C155.276 178.816 154.986 178.043 154.688 177.246C154.048 177.246 153.566 177.375 152.95 177.546ZM175.214 181.915C173.24 182.781 173.24 182.781 172.266 183.105C172.273 183.323 172.28 183.54 172.287 183.763C172.476 189.822 172.597 195.881 172.695 201.941C172.72 203.531 172.748 205.121 172.776 206.711C172.78 206.939 172.784 207.168 172.788 207.404C172.809 208.572 172.83 209.741 172.851 210.91C172.893 213.3 172.933 215.69 172.968 218.081C172.998 220.2 173.034 222.319 173.075 224.437C173.097 225.548 173.116 226.66 173.129 227.771C173.141 228.81 173.16 229.849 173.184 230.888C173.195 231.443 173.199 231.998 173.203 232.553C173.269 235.066 173.868 237.072 174.902 239.355C174.994 239.56 175.086 239.765 175.181 239.975C175.395 240.433 175.624 240.884 175.854 241.333C176.001 241.622 176.148 241.91 176.299 242.207C176.604 242.843 176.604 242.843 176.953 243.164C177.966 243.237 177.966 243.237 179.004 243.164C179.294 242.874 179.294 242.874 179.59 242.578C179.486 242.328 179.383 242.079 179.276 241.821C178.891 240.891 178.505 239.96 178.12 239.029C177.954 238.627 177.787 238.225 177.62 237.822C177.38 237.243 177.14 236.663 176.9 236.084C176.684 235.561 176.684 235.561 176.463 235.028C176.335 234.716 176.207 234.404 176.074 234.082C175.971 233.873 175.868 233.664 175.761 233.448C175.393 232.327 175.405 231.261 175.42 230.094C175.421 229.829 175.423 229.565 175.425 229.292C175.478 225.15 175.735 221.013 175.962 216.878C176.028 215.649 176.093 214.42 176.159 213.191C176.282 210.873 176.407 208.556 176.532 206.238C176.717 202.827 176.899 199.415 177.081 196.003C177.108 195.499 177.135 194.995 177.162 194.492C177.175 194.246 177.188 194 177.201 193.746C177.279 192.287 177.358 190.828 177.437 189.369C177.485 188.465 177.534 187.562 177.583 186.659C177.605 186.239 177.628 185.82 177.651 185.401C177.682 184.83 177.712 184.259 177.743 183.688C177.76 183.369 177.778 183.049 177.795 182.72C177.821 182.165 177.832 181.61 177.832 181.055C176.882 181.055 176.07 181.537 175.214 181.915ZM121.029 183.97C120.855 184.234 120.681 184.499 120.502 184.772C120.3 185.066 120.099 185.36 119.892 185.663C119.568 186.137 119.568 186.137 119.238 186.621C118.772 187.263 118.293 187.896 117.81 188.525C117.627 188.765 117.627 188.765 117.439 189.009C116.376 190.376 115.231 191.658 114.051 192.926C113.478 193.545 112.932 194.177 112.39 194.824C111.222 196.174 109.892 197.348 108.567 198.539C108.11 198.95 107.661 199.37 107.227 199.805C107.329 201.4 107.673 202.796 108.173 204.318C108.311 204.745 108.449 205.172 108.587 205.599C108.697 205.936 108.697 205.936 108.81 206.28C110.264 210.735 111.632 215.215 112.948 219.713C113.122 220.311 113.298 220.907 113.474 221.504C114.439 224.782 115.345 228.061 116.101 231.393C116.63 233.708 117.165 236.011 118.304 238.111C118.456 238.392 118.608 238.672 118.764 238.96C118.921 239.242 119.077 239.523 119.238 239.813C119.395 240.105 119.551 240.397 119.712 240.697C119.864 240.974 120.016 241.251 120.172 241.536C120.309 241.785 120.446 242.035 120.588 242.293C120.973 242.96 120.973 242.96 121.875 243.164C122.381 243.184 122.888 243.189 123.395 243.182C123.659 243.18 123.923 243.177 124.195 243.174C124.396 243.171 124.597 243.168 124.805 243.164C124 241.454 123.156 239.805 122.154 238.203C119.716 234.248 118.428 230.544 117.471 226.018C116.952 223.585 116.361 221.168 115.789 218.746C115.577 217.845 115.367 216.943 115.158 216.04C114.554 213.434 113.946 210.83 113.292 208.236C113.242 208.036 113.192 207.836 113.14 207.63C112.916 206.733 112.688 205.837 112.454 204.943C111.694 201.923 111.694 201.923 112.207 200.391C112.734 199.678 113.347 199.099 114.001 198.505C114.354 198.169 114.705 197.832 115.057 197.495C115.225 197.336 115.393 197.177 115.566 197.013C116.47 196.146 117.269 195.203 118.066 194.238C118.198 194.082 118.329 193.925 118.464 193.764C120.354 191.506 122.166 189.206 123.871 186.804C124.024 186.59 124.177 186.376 124.334 186.155C125.114 185.164 125.114 185.164 125.391 183.984C125.034 183.888 124.678 183.791 124.31 183.691C124.11 183.637 123.909 183.583 123.703 183.527C122.225 183.192 122.225 183.192 121.029 183.97ZM154.127 183.937C153.855 183.989 153.584 184.041 153.304 184.094C152.744 184.203 152.184 184.312 151.624 184.421C148.135 185.083 144.729 185.204 141.189 185.194C140.469 185.193 139.749 185.194 139.029 185.196C138.554 185.196 138.078 185.196 137.603 185.195C137.369 185.195 137.135 185.195 136.895 185.195C135.684 185.187 134.488 185.143 133.281 185.041C133.041 185.022 132.802 185.003 132.555 184.984C132.101 184.945 131.647 184.9 131.193 184.848C130.086 184.754 129.606 184.774 128.717 185.472C128.096 186.305 127.632 187.167 127.148 188.086C126.7 188.773 126.22 189.436 125.739 190.1C125.616 190.272 125.494 190.445 125.368 190.622C124.134 192.348 122.765 193.945 121.378 195.547C120.565 196.502 119.792 197.491 119.011 198.473C118.153 199.456 117.176 200.274 116.15 201.077C114.919 203.321 117.036 208.336 117.606 210.801C117.669 211.073 117.732 211.344 117.796 211.624C118.127 213.058 118.459 214.491 118.792 215.925C119.133 217.398 119.472 218.871 119.81 220.345C120.073 221.486 120.337 222.627 120.602 223.767C120.728 224.31 120.853 224.853 120.977 225.396C121.769 228.857 122.619 232.029 124.374 235.147C124.467 235.314 124.561 235.481 124.657 235.652C124.948 236.173 125.243 236.693 125.537 237.213C125.734 237.563 125.93 237.914 126.126 238.264C127.046 239.902 127.975 241.534 128.906 243.164C138.768 243.164 148.629 243.164 158.789 243.164C158.577 241.678 158.432 240.859 157.902 239.562C157.076 237.148 157.156 234.771 157.164 232.25C157.162 231.719 157.159 231.187 157.155 230.655C157.147 229.222 157.146 227.789 157.146 226.356C157.145 224.854 157.138 223.353 157.131 221.852C157.119 219.013 157.113 216.174 157.109 213.336C157.105 210.102 157.093 206.868 157.082 203.635C157.058 196.987 157.042 190.339 157.031 183.691C156.024 183.682 155.116 183.744 154.127 183.937ZM100.952 204.097C99.8315 205.289 99.9585 206.633 99.9584 208.192C99.9523 208.509 99.9462 208.826 99.94 209.153C99.9276 209.856 99.9188 210.559 99.913 211.262C99.9018 212.456 99.8778 213.649 99.8513 214.843C99.8094 216.817 99.7849 218.792 99.7721 220.767C99.7645 221.903 99.7529 223.039 99.7315 224.175C99.5466 231.292 99.5466 231.292 101.953 237.891C102.192 238.41 102.427 238.932 102.656 239.456C102.848 239.863 103.041 240.269 103.235 240.674C103.335 240.886 103.435 241.099 103.538 241.318C103.961 242.309 103.961 242.309 104.59 243.164C105.456 243.19 106.316 243.198 107.182 243.193C107.442 243.192 107.701 243.192 107.969 243.191C108.802 243.19 109.635 243.186 110.468 243.182C111.031 243.181 111.594 243.18 112.157 243.178C113.541 243.175 114.925 243.17 116.309 243.164C116.69 242.343 116.69 242.343 116.394 241.795C116.281 241.615 116.168 241.435 116.051 241.249C114.54 238.711 113.458 236.344 112.866 233.441C112.096 229.688 111.073 226.037 109.991 222.363C109.904 222.064 109.816 221.766 109.726 221.458C107.884 215.197 105.959 208.961 104.004 202.734C102.777 202.734 101.895 203.366 100.952 204.097ZM168.75 206.836C168.405 210.052 168.061 213.269 167.719 216.485C167.56 217.979 167.4 219.473 167.24 220.966C167.085 222.408 166.931 223.85 166.778 225.292C166.72 225.841 166.661 226.391 166.602 226.941C166.519 227.711 166.437 228.482 166.355 229.253C166.318 229.593 166.318 229.593 166.281 229.939C165.979 232.41 165.979 232.41 166.618 234.752C166.727 234.978 166.835 235.204 166.947 235.437C167.065 235.673 167.182 235.908 167.303 236.151C167.422 236.395 167.541 236.639 167.663 236.89C168.655 238.913 169.702 240.904 170.801 242.871C171.284 242.871 171.768 242.871 172.266 242.871C171.884 241.687 171.507 240.519 171.022 239.372C170.091 237.159 169.706 235.318 169.702 232.928C169.696 232.584 169.689 232.239 169.682 231.883C169.667 231.065 169.655 230.247 169.647 229.428C169.623 227.284 169.581 225.141 169.541 222.997C169.508 221.254 169.477 219.511 169.451 217.768C169.393 214.117 169.286 210.479 169.043 206.836C168.946 206.836 168.85 206.836 168.75 206.836Z" fill="black"/>
<path d="M198.339 103.418C199.2 103.839 199.2 103.839 199.804 104.59C200.176 105.684 200.328 106.696 199.857 107.778C199.219 108.652 198.648 108.979 197.625 109.296C196.428 109.274 195.813 109.066 194.824 108.398C194.053 107.418 194.111 106.382 194.238 105.176C195.341 103.484 196.354 103.159 198.339 103.418Z" fill="black"/>
</svg>
