<svg width="300" height="300" viewBox="0 0 300 300" fill="none" xmlns="http://www.w3.org/2000/svg">
<path d="M138.025 71.6493C138.266 71.6517 138.508 71.6541 138.757 71.6566C142.803 71.7664 146.405 73.2563 150 75.0001C150.24 75.1161 150.479 75.2322 150.726 75.3517C154.44 77.1726 157.843 79.2345 161.133 81.7384C161.308 81.8712 161.483 82.0041 161.664 82.1409C163.284 83.3766 164.87 84.6523 166.431 85.9613C168.478 87.675 170.532 89.3485 172.723 90.8754C172.908 91.0058 173.093 91.1363 173.283 91.2707C173.461 91.3922 173.639 91.5136 173.823 91.6387C174.052 91.7951 174.052 91.7951 174.285 91.9547C176.21 92.9855 178.111 93.3619 180.25 93.6471C180.536 93.6879 180.823 93.7287 181.118 93.7708C182.03 93.9007 182.943 94.0272 183.856 94.1529C190.518 95.071 196.975 96.3205 203.394 98.3461C203.637 98.4221 203.88 98.4981 204.131 98.5764C219.571 103.402 234.221 110.32 246.161 121.422C246.81 122.019 247.468 122.591 248.144 123.157C252.785 127.213 256.488 132.395 259.57 137.695C259.674 137.873 259.778 138.05 259.885 138.232C264.822 146.773 267.985 157.066 265.495 166.857C265.189 167.996 264.859 169.128 264.53 170.26C262.998 175.563 264.21 179.151 266.785 183.93C266.995 184.307 266.995 184.307 267.21 184.692C268.563 187.15 269.73 189.651 268.945 192.481C267.941 194.53 266.136 195.819 264.02 196.582C261.028 197.332 258.505 196.082 255.949 194.61C253.457 193.101 251.378 191.064 249.241 189.102C247.939 187.931 246.585 186.832 245.215 185.742C244.919 185.504 244.624 185.265 244.32 185.019C240.376 181.872 236.208 179.647 231.481 177.882C230.962 177.689 230.444 177.495 229.926 177.301C229.662 177.202 229.398 177.104 229.126 177.002C227.39 176.343 225.715 175.608 224.048 174.793C221.836 173.714 219.591 172.748 217.31 171.826C216.844 171.636 216.844 171.636 216.369 171.441C214.159 170.517 214.159 170.517 211.816 170.215C211.097 170.623 210.556 170.996 209.93 171.515C205.661 174.802 200.669 177.074 195.169 176.587C194.458 176.459 194.458 176.459 193.359 176.074C192.998 175.464 192.998 175.464 192.773 174.902C194.438 172.991 196.18 171.2 197.999 169.438C199.38 168.072 200.427 166.65 201.43 164.98C202.399 164.138 203.042 164.201 204.293 164.269C205.536 164.406 206.736 164.632 207.953 164.923C208.227 164.988 208.5 165.052 208.782 165.118C223.553 168.712 240.226 174.616 251.063 185.729C251.808 186.477 252.593 187.165 253.396 187.85C253.825 188.224 254.245 188.608 254.657 188.999C256.041 190.304 257.465 191.43 259.058 192.462C259.227 192.573 259.396 192.683 259.571 192.797C260.611 193.452 261.614 193.897 262.793 194.238C261.781 193.21 260.738 192.235 259.662 191.272C256.463 188.363 253.848 185.064 251.276 181.61C241.972 169.124 232.116 165.901 217.129 163.692C215.593 163.47 214.055 163.263 212.517 163.06C212.266 163.027 212.015 162.994 211.756 162.96C210.547 162.8 209.337 162.645 208.126 162.495C207.691 162.439 207.257 162.383 206.822 162.328C206.442 162.281 206.062 162.233 205.67 162.185C204.785 162.012 204.785 162.012 204.199 161.426C205.356 159.525 205.356 159.525 206.543 159.082C207.132 159.064 207.132 159.064 207.771 159.145C208.018 159.176 208.265 159.207 208.52 159.239C208.792 159.278 209.064 159.317 209.344 159.357C209.781 159.417 209.781 159.417 210.227 159.479C217.701 160.572 225.075 162.244 232.324 164.356C232.727 164.473 232.727 164.473 233.137 164.592C240.539 166.792 244.971 170.175 249.47 176.457C255.5 185.504 255.5 185.504 264.459 190.851C264.879 190.913 265.3 190.971 265.723 191.016C266.031 188.112 265.24 185.926 263.457 183.621C263.047 183.15 262.628 182.688 262.207 182.227C262.207 182.033 262.207 181.84 262.207 181.641C262.033 181.561 261.858 181.481 261.678 181.398C261.056 181.066 260.63 180.726 260.117 180.247C258.672 178.977 257.008 178.094 255.339 177.151C252.248 175.357 250.221 173.264 248.291 170.27C247.909 169.696 247.527 169.123 247.143 168.551C246.962 168.28 246.781 168.01 246.595 167.731C244.429 164.537 242.123 162.523 238.694 160.772C236.362 159.582 234.444 158.361 232.617 156.445C232.383 156.219 232.383 156.219 232.143 155.989C231.19 154.997 230.566 153.886 229.919 152.683C228.804 150.617 227.866 148.988 225.879 147.656C225.722 147.547 225.565 147.438 225.404 147.325C205.948 133.795 180.444 128.868 157.086 130.298C156.879 130.311 156.671 130.323 156.458 130.336C132.19 131.864 108.405 141.629 91.8793 159.736C91.4508 160.205 91.02 160.672 90.588 161.137C86.9424 165.094 83.5606 169.337 80.6945 173.895C80.5758 174.084 80.457 174.272 80.3347 174.465C79.6069 175.649 79.0346 176.837 78.5156 178.125C80.4636 177.692 81.5776 176.976 82.925 175.517C83.4563 174.945 84.0022 174.439 84.5947 173.932C85.4437 173.203 86.2725 172.456 87.0929 171.694C88.8643 170.052 90.6811 168.49 92.5781 166.992C92.7613 166.846 92.9445 166.701 93.1333 166.55C95.9534 164.312 98.7964 162.28 101.953 160.547C102.195 160.413 102.438 160.279 102.687 160.141C110.409 155.906 118.467 152.691 127.112 150.916C127.383 150.86 127.653 150.804 127.932 150.746C133.336 149.714 138.757 149.604 144.243 149.615C145.41 149.617 146.577 149.609 147.744 149.601C154.364 149.585 160.833 150.094 167.358 151.227C170.751 151.804 174.137 152.167 177.539 151.465C178.058 151.446 178.577 151.44 179.095 151.447C179.354 151.449 179.613 151.452 179.879 151.455C180.171 151.46 180.171 151.46 180.469 151.465C180.565 151.852 180.662 152.238 180.762 152.637C180.613 152.73 180.464 152.823 180.311 152.918C176.81 155.291 175.838 159.257 174.916 163.177C173.674 168.347 170.322 171.979 166.351 175.397C165.764 175.903 165.197 176.405 164.648 176.953C171.624 178.311 180.199 176.607 186.167 172.792C191.621 168.95 195.394 164.503 197.838 158.268C198.877 155.696 200.18 153.711 202.753 152.49C203.184 152.277 203.184 152.277 203.624 152.06C204.554 151.736 205.272 151.7 206.25 151.758C206.17 155.746 203.299 159.257 200.977 162.305C200.784 162.561 200.784 162.561 200.587 162.822C198.621 165.428 196.507 167.868 194.238 170.215C194.08 170.38 193.922 170.546 193.759 170.716C192.535 171.972 191.241 173.074 189.844 174.133C189.627 174.298 189.41 174.462 189.186 174.632C181.458 180.404 173.275 183.296 163.564 181.971C158.709 181.213 158.709 181.213 157.031 180.176C156.537 179.224 156.537 179.224 156.445 178.418C157.495 177.307 158.606 176.424 159.869 175.562C164.785 172.115 168.804 167.703 170.215 161.719C170.294 161.043 170.356 160.365 170.398 159.686C170.42 159.351 170.442 159.016 170.464 158.671C170.479 158.42 170.493 158.169 170.508 157.91C166.903 157.401 163.295 156.927 159.681 156.486C159.262 156.435 158.843 156.384 158.425 156.332C157.082 156.167 155.739 156.01 154.394 155.859C154.111 155.828 153.828 155.796 153.536 155.763C131.207 153.587 108.312 159.204 90.8351 173.557C87.6429 176.185 87.6429 176.185 84.9609 179.297C84.9501 180.218 85.099 180.585 85.7025 181.273C85.8928 181.437 86.0831 181.6 86.2793 181.769C87.9503 183.356 89.0672 185.238 90.2343 187.207C90.3797 187.451 90.5251 187.696 90.6749 187.948C94.3561 194.698 94.6146 203.03 92.5586 210.282C90.4182 217.155 90.4182 217.155 88.4765 218.555C88.0898 218.555 87.7031 218.555 87.3046 218.555C87.234 218.354 87.1633 218.153 87.0905 217.947C86.7632 217.025 86.4298 216.105 86.0961 215.186C85.9851 214.87 85.8741 214.554 85.7597 214.229C84.4583 210.672 82.7079 208.383 79.248 206.726C79.0717 206.64 78.8955 206.554 78.7138 206.465C77.9815 206.108 77.2466 205.756 76.5089 205.41C73.2395 203.876 70.6576 202.121 68.2857 199.385C67.3735 198.698 66.7682 198.647 65.625 198.633C64.589 198.909 63.6136 199.309 62.622 199.713C58.9174 201.132 55.3177 201.898 51.4011 202.482C44.6333 203.494 39.5064 204.893 34.3517 209.743C32.4204 211.524 32.4204 211.524 31.0546 211.524C29.3952 206.545 31.7728 200.132 33.9858 195.7C38.8342 186.336 45.9986 180.372 55.9777 177.138C59.6471 176.001 63.3668 175.214 67.1882 174.811C68.2542 174.536 68.6898 174.266 69.4335 173.438C69.8738 172.378 70.1541 171.288 70.4406 170.178C70.6177 169.537 70.7955 168.896 70.9739 168.255C71.0605 167.939 71.1471 167.623 71.2363 167.298C74.8988 154.137 82.1868 141.61 90.9539 131.202C91.3899 130.684 91.8206 130.161 92.2508 129.638C95.2877 125.978 98.6191 122.47 102.371 119.537C103.182 118.9 103.956 118.229 104.736 117.554C108.398 114.5 112.47 111.939 116.602 109.57C116.797 109.457 116.993 109.344 117.194 109.227C119.853 107.689 122.552 106.307 125.336 105.011C130.391 102.681 130.391 102.681 134.18 98.7306C134.321 98.5055 134.462 98.2804 134.608 98.0485C136.535 94.3217 136.077 89.3312 134.865 85.4268C134.136 83.4745 133.292 81.5804 132.422 79.6876C131.598 77.8743 130.948 76.4244 131.25 74.4142C132.142 72.8892 132.982 72.4696 134.63 71.9545C135.767 71.6755 136.858 71.6338 138.025 71.6493ZM137.695 76.7579C137.178 77.9691 137.692 78.9568 138.135 80.1088C138.298 80.5526 138.461 80.9966 138.623 81.4408C138.71 81.6771 138.797 81.9133 138.887 82.1567C139.371 83.4933 139.825 84.8401 140.277 86.1879C140.365 86.4469 140.454 86.7059 140.545 86.9728C142.212 91.9439 141.784 96.8237 139.49 101.514C139.394 101.71 139.298 101.907 139.199 102.109C137.524 105.352 134.794 106.264 131.543 107.446C128.8 108.471 126.211 109.653 123.633 111.035C123.427 111.143 123.222 111.251 123.01 111.362C119.424 113.248 116.087 115.418 112.793 117.774C112.622 117.896 112.45 118.018 112.274 118.143C106.866 122.016 101.617 126.674 97.2805 131.723C96.8322 132.244 96.379 132.762 95.9232 133.277C90.6079 139.319 86.2049 145.897 82.3242 152.93C82.1973 153.159 82.0704 153.389 81.9397 153.625C76.6609 163.245 72.1058 173.681 70.3125 184.57C70.2128 185.141 70.2128 185.141 70.111 185.724C69.67 190.012 69.9325 193.941 72.6562 197.461C74.7497 199.593 77.2778 200.677 79.9937 201.813C80.4118 201.989 80.8294 202.165 81.2466 202.343C81.6478 202.513 82.0503 202.681 82.4542 202.845C84.6807 203.786 86.0046 205.11 87.1215 207.221C87.2254 207.41 87.3292 207.599 87.4363 207.793C87.6886 208.254 87.9366 208.717 88.1835 209.18C89.7499 207.613 89.804 204.041 89.9414 201.856C89.9568 201.66 89.9723 201.465 89.9883 201.264C90.2401 195.363 87.2942 189.533 83.5144 185.193C81.6048 183.086 81.6048 183.086 79.018 182.176C76.8194 182.338 75.4718 183.142 74.0112 184.772C73.6545 185.191 73.2995 185.611 72.9492 186.035C72.9492 184.866 73.4387 184.034 73.9563 183.014C74.0621 182.804 74.1679 182.595 74.277 182.379C75.2546 180.48 76.381 178.705 77.5627 176.927C78.0977 176.111 78.6127 175.283 79.1294 174.455C85.4128 164.403 85.4128 164.403 89.0625 159.961C89.1888 159.805 89.3152 159.65 89.4454 159.489C92.8186 155.352 96.5726 151.529 100.781 148.242C101.126 147.957 101.47 147.67 101.813 147.383C110.486 140.148 120.293 134.143 130.957 130.371C131.246 130.269 131.535 130.166 131.833 130.06C140.725 126.951 149.963 125.318 159.375 125.098C159.623 125.091 159.871 125.085 160.127 125.078C183.805 124.548 206.738 132.056 226.485 144.807C229.685 146.865 232.769 148.534 236.353 149.854C241.306 151.72 243.963 155.543 246.332 160.089C246.691 160.766 247.05 161.443 247.41 162.119C247.584 162.449 247.759 162.779 247.938 163.119C250.915 169.389 250.915 169.389 256.055 173.731C256.983 173.96 257.418 173.91 258.398 173.731C261.102 171.887 261.497 167.689 262.092 164.693C263.792 155.363 260.985 146.014 255.677 138.32C254.273 136.371 252.721 134.552 251.091 132.787C250.566 132.214 250.069 131.628 249.573 131.03C242.724 123.201 233.22 117.327 224.121 112.5C223.836 112.349 223.836 112.349 223.544 112.194C217.622 109.081 211.44 106.641 205.078 104.59C204.792 104.497 204.507 104.405 204.213 104.31C195.717 101.599 186.872 99.99 178.011 99.0922C177.655 99.0557 177.3 99.0191 176.934 98.9815C176.262 98.9142 175.59 98.8512 174.918 98.7932C172.242 98.5323 169.953 97.8425 167.761 96.2403C167.529 96.0742 167.297 95.908 167.059 95.7368C166.406 95.215 166.406 95.215 165.772 94.5649C165.289 93.9751 165.289 93.9751 164.648 94.0431C164.588 93.8879 164.527 93.7326 164.465 93.5727C163.896 92.5811 163.112 91.8259 162.312 91.0218C162.135 90.8433 161.958 90.6647 161.776 90.4807C161.4 90.1017 161.023 89.7235 160.646 89.346C160.084 88.7828 159.527 88.2151 158.97 87.647C153.95 82.5805 147.306 76.9932 139.812 76.7293C139.435 76.7344 139.435 76.7344 139.05 76.7396C138.794 76.7423 138.538 76.7449 138.274 76.7476C138.083 76.751 137.892 76.7544 137.695 76.7579ZM236.133 153.516C236.35 153.733 236.568 153.951 236.792 154.175C237.277 154.66 237.756 155.153 238.22 155.658C238.755 156.25 238.755 156.25 239.648 156.152C239.54 155.383 239.446 155.058 238.845 154.546C238.639 154.423 238.433 154.301 238.22 154.175C238.015 154.05 237.811 153.924 237.6 153.795C236.988 153.453 236.988 153.453 236.133 153.516ZM40.7226 192.774C39.1281 194.683 37.9079 196.816 36.7675 199.017C36.6186 199.301 36.6186 199.301 36.4666 199.591C35.8006 200.939 35.569 202.114 35.4492 203.613C36.3505 203.211 36.9603 202.743 37.6648 202.057C40.7013 199.367 44.6448 198.736 48.5637 198.454C54.6377 198.013 61.5333 196.461 65.9179 191.895C66.514 191.057 66.8072 190.243 67.0898 189.258C67.1418 189.077 67.1938 188.897 67.2474 188.711C68.3864 184.782 68.3864 184.782 68.2617 180.762C67.5321 179.896 66.9796 179.346 65.8321 179.227C56.246 178.981 46.8131 185.929 40.7226 192.774Z" fill="black"/>
</svg>
