<svg width="300" height="300" viewBox="0 0 300 300" fill="none" xmlns="http://www.w3.org/2000/svg">
<path d="M205.371 112.793C206.363 113.159 207.186 113.573 208.044 114.189C208.273 114.351 208.501 114.514 208.736 114.681C209.101 114.943 209.101 114.943 209.472 115.21C211.104 116.372 212.739 117.519 214.417 118.612C214.696 118.794 214.974 118.976 215.261 119.163C215.799 119.512 216.339 119.859 216.88 120.203C218.548 121.289 219.445 122.039 219.994 124.007C220.063 124.361 220.132 124.715 220.202 125.079C220.273 125.426 220.343 125.773 220.415 126.131C221.426 132.451 221.007 139.083 221.031 145.459C221.038 147.432 221.054 149.406 221.076 151.379C221.094 153.106 221.101 154.834 221.104 156.561C221.107 157.287 221.114 158.013 221.124 158.739C221.18 162.892 220.915 166.331 219.289 170.181C218.547 172.022 218.835 173.613 219.289 175.504C221.108 183.566 221.185 191.461 221.107 199.696C221.097 201.128 221.099 202.56 221.101 203.992C221.102 205.384 221.096 206.776 221.089 208.168C221.086 208.826 221.085 209.485 221.085 210.143C221.084 211.057 221.075 211.971 221.064 212.884C221.065 213.282 221.065 213.282 221.067 213.688C221.036 215.375 220.691 216.674 219.996 218.212C219.636 219.061 219.536 219.874 219.452 220.789C219.113 223.275 218.109 224.833 216.16 226.392C214.249 227.698 212.279 227.967 210.007 227.963C209.801 227.963 209.595 227.963 209.382 227.963C208.706 227.963 208.029 227.961 207.352 227.958C206.881 227.958 206.41 227.957 205.939 227.957C204.703 227.956 203.467 227.953 202.23 227.95C200.968 227.947 199.705 227.945 198.442 227.944C195.966 227.941 193.491 227.936 191.015 227.93C191.015 225.811 192.839 223.583 194.173 222.03C195.699 220.751 197.648 220.94 199.536 221.06C199.914 221.103 200.293 221.147 200.683 221.191C198.654 215.271 196.376 209.474 193.987 203.691C193.263 201.932 193.01 200.519 192.973 198.625C192.967 198.355 192.961 198.086 192.955 197.808C192.935 196.917 192.918 196.026 192.901 195.135C192.892 194.678 192.892 194.678 192.883 194.211C192.8 189.933 192.737 185.654 192.722 181.374C192.719 180.841 192.716 180.309 192.712 179.776C192.677 174.821 192.877 169.916 194.238 165.125C194.759 163.203 195.198 161.377 195.373 159.393C195.581 157.64 196.201 156.862 197.429 155.636C199.433 153.509 200.038 151.167 199.996 148.33C199.838 145.221 199.227 141.636 197.754 138.867C196.899 139.842 196.281 140.694 196.301 142.026C196.461 142.936 196.66 143.828 196.875 144.727C197.831 149.834 197.831 149.834 196.582 152.051C196.16 152.566 195.72 153.067 195.263 153.552C193.774 155.146 193.019 156.085 192.572 158.258C192.152 160.11 191.549 161.795 190.741 163.513C190.646 163.718 190.551 163.922 190.453 164.133C189.031 167.052 187.243 168.194 184.215 169.274C181.944 169.947 180.422 169.524 178.418 168.439C177.927 168.156 177.438 167.87 176.953 167.578C177.339 166.383 177.777 165.225 178.253 164.062C180.037 159.457 181.526 151.924 179.59 147.07C178.656 146.37 178.656 146.37 177.539 146.191C177.58 146.379 177.621 146.567 177.663 146.76C178.763 152.201 178.921 158.843 175.944 163.734C175.197 164.753 174.357 165.676 173.491 166.594C172.833 167.287 172.833 167.287 172.221 168.086C171.679 168.75 171.679 168.75 171.094 169.043C170.648 169.067 170.201 169.074 169.755 169.072C169.492 169.071 169.23 169.07 168.959 169.069C168.685 169.066 168.41 169.064 168.127 169.061C167.85 169.06 167.574 169.059 167.288 169.057C166.604 169.054 165.919 169.049 165.234 169.043C165.214 168.822 165.193 168.602 165.172 168.375C165.073 167.328 164.971 166.281 164.868 165.234C164.83 164.85 164.792 164.465 164.753 164.069C164.504 161.625 164.135 159.225 163.678 156.812C162.882 152.377 163.603 148.896 164.887 144.629C165.992 140.919 166.214 137.148 166.406 133.301C167.588 134.241 168.557 135.169 169.5 136.359C169.729 136.64 169.957 136.922 170.192 137.212C170.529 137.642 170.861 138.076 171.171 138.526C173.067 141.2 177.554 142.384 180.584 143.145C183.468 143.605 186.474 142.772 189.239 141.998C189.444 141.943 189.648 141.888 189.858 141.831C192.221 141.13 193.762 139.804 195.227 137.86C195.365 137.68 195.503 137.5 195.645 137.315C202.645 128.241 202.645 128.241 205.628 117.714C205.614 117.427 205.6 117.14 205.585 116.844C205.569 116.547 205.553 116.249 205.536 115.942C205.52 115.64 205.505 115.338 205.489 115.027C205.451 114.282 205.412 113.538 205.371 112.793Z" fill="black"/>
<path d="M159.083 114.258C159.072 114.562 159.062 114.867 159.052 115.18C159.043 115.593 159.035 116.006 159.028 116.419C159.02 116.618 159.013 116.817 159.005 117.022C158.969 119.614 159.826 121.718 161.081 123.948C163.184 127.778 163.21 131.078 162.891 135.352C162.86 135.948 162.83 136.543 162.801 137.139C162.607 140.432 162.044 143.392 161.019 146.519C159.693 150.615 160.15 154.029 160.83 158.17C160.932 158.804 161.033 159.437 161.133 160.071C161.187 160.4 161.24 160.729 161.295 161.068C161.591 163.034 161.768 164.967 161.822 166.951C161.976 172.335 162.566 176.454 164.879 181.413C167.56 187.536 168.352 194.423 168.279 201.028C168.277 201.624 168.275 202.219 168.274 202.815C168.27 204.359 168.258 205.904 168.245 207.448C168.233 209.033 168.228 210.619 168.222 212.204C168.209 215.297 168.189 218.391 168.165 221.484C168.343 221.478 168.521 221.471 168.705 221.464C169.517 221.438 170.33 221.422 171.143 221.406C171.564 221.39 171.564 221.39 171.993 221.374C173.338 221.354 174.096 221.348 175.263 222.07C175.928 222.799 176.41 223.521 176.899 224.378C177.081 224.652 177.262 224.927 177.45 225.21C178.711 227.152 178.711 227.152 178.711 227.93C175.788 227.943 172.864 227.954 169.94 227.96C168.582 227.963 167.224 227.967 165.866 227.974C164.554 227.98 163.241 227.984 161.928 227.985C161.43 227.986 160.931 227.989 160.433 227.992C152.76 228.039 152.76 228.039 150.293 225.879C148.869 224.432 147.927 222.848 147.016 221.045C146.878 220.776 146.739 220.508 146.597 220.231C145.485 218.055 144.426 215.855 143.385 213.645C142.602 211.987 141.795 210.345 140.962 208.712C140.864 208.52 140.767 208.328 140.667 208.131C140.086 206.989 140.086 206.989 139.5 205.851C135.167 197.498 135.139 189.184 136.211 179.986C136.955 173.537 137.038 164.756 133.4 159.12C132.519 157.717 131.746 156.253 130.958 154.797C130.785 154.5 130.613 154.203 130.435 153.897C128.207 149.818 129.306 144.65 129.574 140.154C129.613 139.491 129.651 138.828 129.69 138.165C129.771 136.786 129.852 135.406 129.935 134.026C130.04 132.255 130.143 130.483 130.246 128.712C130.325 127.348 130.406 125.984 130.486 124.619C130.525 123.966 130.563 123.312 130.601 122.658C130.654 121.75 130.708 120.841 130.763 119.932C130.778 119.661 130.794 119.39 130.809 119.111C130.825 118.865 130.84 118.619 130.856 118.365C130.868 118.15 130.881 117.936 130.894 117.715C130.958 117.188 130.958 117.188 131.25 116.602C131.961 116.375 132.657 116.184 133.38 116.009C133.598 115.954 133.816 115.9 134.041 115.843C134.752 115.666 135.464 115.493 136.176 115.32C136.662 115.2 137.147 115.081 137.633 114.961C154.113 110.925 154.113 110.925 159.083 114.258Z" fill="black"/>
<path d="M173.974 71.0064C179.462 70.1671 185.648 69.4266 190.43 72.7544C196.549 77.53 200.72 83.3035 201.753 91.0365C201.808 91.4929 201.861 91.9497 201.91 92.4068C202.139 94.5355 202.692 96.4858 203.338 98.5286C204.264 101.471 204.419 103.805 203.778 106.842C203.211 109.754 203.202 112.691 203.215 115.648C203.173 119.598 201.728 122.655 199.859 126.068C199.698 126.364 199.537 126.661 199.371 126.966C197.615 130.129 195.628 133.14 193.556 136.104C193.255 136.542 192.963 136.987 192.687 137.441C191.756 138.935 190.855 139.304 189.221 139.691C189 139.749 188.779 139.806 188.551 139.866C187.91 140.03 187.266 140.183 186.621 140.332C186.151 140.445 186.151 140.445 185.671 140.562C182.036 141.339 178.158 140.347 175.011 138.387C173.842 137.406 172.906 136.223 171.999 135.001C171.524 134.364 171.04 133.741 170.545 133.12C168.731 130.827 167.066 128.481 165.527 125.994C165.372 125.745 165.218 125.496 165.059 125.239C161.928 120.091 161.928 120.091 162.034 117.337C162.134 113.613 161.975 110.25 161.093 106.625C159.735 101.034 160.707 96.3563 162.266 90.932C162.839 88.8595 163.153 86.8334 163.306 84.6901C163.453 82.6585 163.804 81.58 165.289 80.1815C166.105 79.3928 166.896 78.609 167.633 77.7462C168.856 76.3171 170.153 74.9567 171.446 73.5907C171.618 73.4072 171.791 73.2237 171.969 73.0346C172.125 72.87 172.28 72.7055 172.441 72.5359C173.707 71.0981 173.707 71.0981 173.974 71.0064ZM165.82 93.4566C165.447 94.1948 165.075 94.9334 164.703 95.6722C164.599 95.8786 164.494 96.085 164.387 96.2976C164.079 96.9109 163.777 97.5272 163.476 98.1441C163.383 98.3257 163.289 98.5073 163.193 98.6944C162.602 99.9159 162.513 100.654 162.89 101.953C163.174 102.687 163.465 103.397 163.788 104.113C163.911 104.395 163.911 104.395 164.038 104.682C164.239 105.14 164.443 105.597 164.648 106.054C164.745 106.054 164.841 106.054 164.941 106.054C164.952 105.789 164.963 105.523 164.974 105.25C165.104 102.842 165.236 100.601 166.626 98.5653C167.422 97.0125 166.607 95.0383 166.113 93.4566C166.016 93.4566 165.92 93.4566 165.82 93.4566ZM170.8 99.023C170.566 99.2447 170.331 99.4664 170.09 99.6948C169.907 99.878 169.725 100.061 169.537 100.25C169.351 100.435 169.165 100.621 168.973 100.812C167.861 101.943 167.861 101.943 167.578 103.436C167.882 104.992 168.646 106.398 169.336 107.812C169.44 108.042 169.544 108.272 169.651 108.509C169.747 108.714 169.842 108.919 169.94 109.13C170.022 109.309 170.104 109.487 170.188 109.671C171.117 111.081 172.591 111.384 174.144 111.744C176.148 112.068 178.153 112.017 180.175 111.987C180.641 111.983 181.106 111.979 181.571 111.976C182.961 111.963 184.352 111.94 185.742 111.914C185.951 111.91 186.159 111.906 186.374 111.902C187.69 111.877 189.005 111.843 190.319 111.804C190.645 111.795 190.971 111.786 191.306 111.777C195.062 111.71 195.062 111.71 198.34 110.156C198.798 109.372 199.154 108.641 199.511 107.812C199.664 107.477 199.817 107.143 199.975 106.798C201.094 104.612 201.094 104.612 201.269 102.246C200.78 101.439 200.78 101.439 200.097 100.671C199.88 100.409 199.662 100.147 199.438 99.8768C199.31 99.7414 199.182 99.6061 199.05 99.4666C198.632 99.023 198.632 99.023 198.224 98.5006C197.142 97.3056 196.206 96.8545 194.586 96.7316C193.416 96.6871 192.25 96.6887 191.079 96.6999C190.569 96.6985 190.059 96.6965 189.55 96.6939C188.484 96.6909 187.418 96.6953 186.352 96.7049C184.991 96.7166 183.63 96.7098 182.268 96.6976C181.216 96.6901 180.164 96.6925 179.112 96.6978C178.61 96.6992 178.108 96.6975 177.607 96.6927C174.798 96.6718 172.672 96.6562 170.8 99.023ZM175.698 115.006C175.271 115.81 174.921 116.625 174.609 117.48C174.512 117.673 174.416 117.867 174.316 118.066C174.262 118.836 174.22 119.602 174.188 120.373C174.112 121.927 173.991 123.435 173.712 124.969C173.283 127.371 173.217 129.151 174.609 131.25C174.787 131.547 174.964 131.845 175.147 132.152C175.683 132.784 175.983 132.986 176.799 133.175C177.732 133.242 178.649 133.251 179.585 133.239C179.928 133.238 180.271 133.237 180.624 133.237C181.349 133.232 182.074 133.222 182.799 133.208C183.903 133.191 185.006 133.201 186.11 133.213C189.773 133.368 189.773 133.368 192.971 131.93C194.46 130.187 194.99 128.229 194.824 125.976C194.733 125.535 194.635 125.096 194.531 124.658C194.27 123.528 194.253 122.546 194.331 121.391C194.458 119.228 194.138 117.757 193.011 115.887C192.898 115.698 192.784 115.509 192.668 115.315C192.164 114.551 191.782 114.034 190.917 113.7C190.659 113.691 190.402 113.681 190.136 113.671C189.792 113.659 189.448 113.646 189.094 113.633C188.531 113.634 188.531 113.634 187.957 113.635C187.583 113.634 187.209 113.633 186.823 113.633C185.757 113.646 185.757 113.646 184.779 113.839C183.984 113.964 183.984 113.964 183.105 113.671C178.949 112.974 178.949 112.974 175.698 115.006Z" fill="black"/>
<path d="M126.855 122.168C126.952 122.168 127.049 122.168 127.148 122.168C127.126 122.573 127.126 122.573 127.104 122.986C127.083 123.37 127.062 123.753 127.041 124.148C127.029 124.358 127.018 124.568 127.006 124.785C126.941 125.978 126.877 127.171 126.813 128.365C126.691 130.649 126.568 132.934 126.435 135.218C126.179 139.63 125.924 144.043 125.867 148.462C125.855 148.906 125.855 148.906 125.844 149.359C125.835 152.723 127.399 155.251 129.053 158.093C129.547 158.949 130.039 159.805 130.525 160.666C130.779 161.114 131.04 161.558 131.314 161.994C132.45 163.932 132.53 166.176 132.77 168.365C132.842 168.983 132.915 169.6 132.988 170.216C133.053 170.774 133.116 171.331 133.179 171.889C133.283 172.71 133.425 173.506 133.594 174.316C133.818 176.863 133.42 179.368 133.071 181.884C132.653 184.919 132.38 187.963 132.129 191.016C130.198 191.064 128.388 191.035 126.508 190.576C126.194 190.501 126.194 190.501 125.874 190.424C122.612 189.57 119.446 187.954 116.895 185.742C116.691 185.57 116.487 185.397 116.277 185.219C115.693 184.718 115.117 184.212 114.551 183.691C114.349 183.521 114.148 183.35 113.94 183.174C113.247 182.365 113.233 181.979 113.231 180.927C113.226 180.616 113.22 180.305 113.215 179.985C113.215 179.661 113.214 179.337 113.214 179.004C113.2 175.551 112.776 172.454 111.145 169.373C111.043 169.175 110.94 168.977 110.835 168.773C108.443 164.236 105.299 160.173 102.197 156.105C99.4816 152.521 97.4708 149.068 97.9889 144.429C98.6354 140.797 100.803 138.225 103.65 135.997C107.165 133.582 111.006 132.207 115.223 131.609C118.64 131.208 118.64 131.208 121.381 129.309C121.753 128.793 122.113 128.268 122.461 127.734C122.86 127.237 123.263 126.742 123.669 126.251C124.251 125.516 124.826 124.777 125.396 124.035C125.582 123.793 125.767 123.552 125.958 123.303C126.124 123.085 126.29 122.867 126.461 122.642C126.591 122.485 126.721 122.329 126.855 122.168Z" fill="black"/>
<path d="M98.4371 135.937C98.2637 136.126 98.0904 136.314 97.9118 136.508C94.9544 139.89 93.8277 143.474 94.0426 147.949C94.3745 152.774 98.5033 157.322 101.129 161.169C101.495 161.708 101.862 162.246 102.228 162.785C102.409 163.05 102.589 163.316 102.776 163.589C103.14 164.127 103.501 164.667 103.86 165.209C104.716 166.5 105.585 167.741 106.576 168.932C109.983 173.204 109.796 177.564 109.641 182.767C109.619 183.657 109.619 184.547 109.618 185.438C109.612 189.812 109.557 194.008 107.761 198.075C107.427 198.846 107.144 199.632 106.857 200.421C106.515 201.355 106.155 202.282 105.798 203.21C105.651 203.595 105.503 203.981 105.356 204.366C105.004 205.287 104.651 206.208 104.296 207.129C103.418 207.129 103.418 207.129 102.848 206.601C102.637 206.358 102.426 206.115 102.209 205.865C101.976 205.597 101.742 205.33 101.502 205.054C100.589 203.971 99.6942 202.874 98.8033 201.773C98.1632 200.999 97.502 200.253 96.8258 199.511C95.9402 198.539 95.0899 197.549 94.2623 196.527C92.8929 194.836 91.4694 193.196 90.0406 191.556C89.0971 190.472 88.1636 189.38 87.231 188.287C86.008 186.856 84.7641 185.446 83.5003 184.05C82.0719 182.473 82.0719 182.473 81.4065 181.676C80.8731 181.046 80.8731 181.046 80.2603 180.517C78.2119 178.47 78.1955 176.424 78.1595 173.684C78.1598 173.102 78.1609 172.52 78.1627 171.938C78.1582 171.333 78.1531 170.728 78.1475 170.124C78.1388 168.859 78.1391 167.595 78.1453 166.331C78.1521 164.718 78.1322 163.107 78.105 161.495C78.0877 160.246 78.0868 158.998 78.0904 157.75C78.0898 157.156 78.0837 156.562 78.0719 155.968C77.9824 150.862 77.9824 150.862 79.7464 148.954C80.473 148.267 81.2295 147.668 82.0308 147.07C82.4177 146.737 82.803 146.402 83.1844 146.063C83.3672 145.908 83.55 145.753 83.7383 145.594C84.4213 144.977 85.0589 144.328 85.7004 143.669C87.8753 141.44 94.995 134.216 98.4371 135.937Z" fill="black"/>
<path d="M78.5156 184.863C80.7994 186.821 80.7994 186.821 81.7932 188.104C82.802 189.371 83.8539 190.569 84.9609 191.748C86.2794 193.156 87.5189 194.605 88.7272 196.109C89.3551 196.875 90.007 197.608 90.6738 198.34C91.7904 199.566 92.8406 200.834 93.8828 202.123C94.953 203.434 96.0745 204.701 97.1915 205.972C97.3489 206.151 97.5063 206.331 97.6685 206.517C97.8097 206.677 97.9509 206.838 98.0965 207.003C98.7344 207.786 98.7664 208.325 98.7637 209.311C98.7637 209.716 98.7637 209.716 98.7637 210.129C98.7621 210.421 98.7606 210.712 98.7591 211.013C98.7587 211.311 98.7582 211.61 98.7578 211.917C98.7562 212.872 98.7525 213.827 98.7488 214.783C98.7473 215.429 98.746 216.076 98.7448 216.722C98.7415 218.31 98.7366 219.897 98.7305 221.484C98.9156 221.474 99.1008 221.464 99.2916 221.454C100.139 221.414 100.985 221.389 101.833 221.364C102.124 221.348 102.416 221.332 102.716 221.315C104.844 221.269 104.844 221.269 105.79 221.883C106.744 222.816 107.433 223.87 108.079 225.032C108.607 225.949 109.239 226.784 109.863 227.637C109.57 227.93 109.57 227.93 109.049 227.961C108.821 227.959 108.592 227.956 108.356 227.954C108.095 227.952 107.834 227.95 107.565 227.948C107.275 227.944 106.985 227.94 106.686 227.936C106.378 227.933 106.071 227.93 105.753 227.927C104.752 227.918 103.75 227.906 102.748 227.894C102.132 227.888 101.516 227.882 100.899 227.876C98.6078 227.853 96.3162 227.827 94.0247 227.802C88.9067 227.747 83.7887 227.693 78.5156 227.637C78.5156 213.521 78.5156 199.406 78.5156 184.863Z" fill="black"/>
<path d="M114.551 188.965C115.764 189.406 116.814 190.005 117.92 190.668C122.5 193.337 127.184 194.336 132.422 194.531C132.486 194.858 132.55 195.184 132.616 195.52C133.72 200.92 135.598 206.881 138.827 211.41C139.46 212.738 139.024 213.969 138.592 215.3C138.253 216.245 137.896 217.18 137.531 218.115C137.344 218.602 137.344 218.602 137.153 219.099C136.848 219.895 136.54 220.69 136.23 221.484C136.592 221.43 136.953 221.376 137.325 221.32C141.052 220.932 141.052 220.932 142.391 221.926C143.44 223.042 144.241 224.312 145 225.638C145.324 226.216 145.324 226.216 145.844 226.872C146.191 227.344 146.191 227.344 146.191 227.93C136.031 227.974 125.88 227.856 115.723 227.637C115.765 227.358 115.808 227.079 115.852 226.792C116.258 224.142 116.663 221.492 117.067 218.842C117.275 217.48 117.483 216.118 117.692 214.756C117.894 213.438 118.095 212.12 118.296 210.801C118.372 210.303 118.449 209.804 118.525 209.305C118.772 207.702 119.01 206.098 119.238 204.492C119.271 204.262 119.305 204.032 119.339 203.794C119.435 203.115 119.525 202.435 119.614 201.755C119.643 201.553 119.672 201.35 119.702 201.141C119.931 199.301 119.495 198.107 118.542 196.564C118.269 196.074 117.996 195.583 117.723 195.093C117.584 194.854 117.446 194.615 117.303 194.369C116.666 193.251 116.105 192.098 115.54 190.942C115.347 190.556 115.154 190.17 114.96 189.784C114.825 189.514 114.69 189.243 114.551 188.965Z" fill="black"/>
<path d="M159.668 87.0117C159.535 88.8589 159.246 90.6132 158.828 92.4163C157.595 97.8302 157.352 103.291 158.597 108.727C158.789 109.57 158.789 109.57 158.789 110.449C158.613 110.386 158.438 110.322 158.257 110.257C151.003 108.028 142.804 110.352 135.645 111.914C136.044 111.081 136.392 110.461 137.109 109.863C137.303 109.863 137.496 109.863 137.695 109.863C137.756 109.7 137.816 109.537 137.878 109.369C138.326 108.616 138.866 108.193 139.546 107.654C140.073 107.197 140.502 106.712 140.951 106.178C142.409 104.49 144.009 102.95 145.597 101.387C146.655 100.339 147.695 99.2937 148.663 98.1628C150.199 96.3734 151.914 94.7533 153.592 93.0988C154.942 91.7609 156.256 90.4147 157.487 88.9669C159.173 87.0117 159.173 87.0117 159.668 87.0117Z" fill="black"/>
<path d="M187.079 99.6645C187.398 99.6708 187.398 99.6708 187.723 99.6773C194.07 99.8161 194.07 99.8161 196.33 101.444C196.534 101.679 196.738 101.913 196.948 102.155C197.161 102.392 197.374 102.628 197.594 102.872C197.743 103.052 197.893 103.233 198.047 103.418C197.871 103.818 197.668 104.205 197.461 104.59C197.376 104.764 197.292 104.938 197.205 105.117C196.851 105.735 196.537 106.174 195.996 106.641C194.964 106.917 193.965 106.886 192.902 106.861C192.319 106.865 191.737 106.872 191.155 106.882C190.877 106.887 190.599 106.892 190.312 106.896C189.081 106.957 187.966 107.283 186.789 107.624C184.408 108.22 182.225 107.709 179.892 107.139C178.737 106.899 177.613 106.904 176.437 106.901C173.188 106.885 173.188 106.885 172.022 106.038C171.515 105.377 171.128 104.768 170.801 104.004C171.226 102.977 171.757 102.446 172.632 101.77C172.851 101.597 173.07 101.424 173.296 101.246C177.04 98.856 182.813 99.5569 187.079 99.6645Z" fill="black"/>
<path d="M178.033 171.387C180.021 171.751 181.97 171.733 183.984 171.68C181.93 177.555 175.27 183.152 170.215 186.328C170.021 186.328 169.828 186.328 169.629 186.328C169.569 186.135 169.508 185.943 169.446 185.744C168.328 182.18 167.204 178.629 165.845 175.149C165.447 174.112 165.234 173.391 165.234 172.266C165.45 172.24 165.666 172.215 165.888 172.19C166.867 172.075 167.845 171.96 168.823 171.844C169.163 171.805 169.502 171.765 169.852 171.725C170.179 171.686 170.505 171.647 170.842 171.608C171.293 171.555 171.293 171.555 171.753 171.501C173.998 171.183 175.748 170.956 178.033 171.387Z" fill="black"/>
<path d="M191.895 129.199C192.088 129.489 192.281 129.779 192.48 130.078C192.287 130.271 192.094 130.465 191.895 130.664C191.072 130.657 191.072 130.657 190.009 130.554C188.255 130.407 186.514 130.334 184.753 130.334C184.521 130.334 184.289 130.334 184.05 130.334C182.209 130.346 180.378 130.444 178.544 130.611C177.451 130.697 176.708 130.699 175.781 130.078C179.608 126.965 187.635 126.896 191.895 129.199Z" fill="black"/>
<path d="M180.597 117.022C181.815 117.215 182.309 117.418 183.106 118.359C183.21 119.368 183.271 120.079 182.813 120.996C182.619 120.996 182.426 120.996 182.227 120.996C182.033 120.416 181.84 119.836 181.641 119.238C181.157 119.238 180.674 119.238 180.176 119.238C179.886 119.915 179.596 120.592 179.297 121.289C178.575 120.747 178.428 120.476 178.29 119.568C178.507 118.018 179.026 117.28 180.597 117.022Z" fill="black"/>
<path d="M188.964 117.188C189.697 117.774 189.697 117.774 190.136 118.653C190.172 119.513 190.043 120.141 189.843 120.996C189.553 121.141 189.553 121.141 189.257 121.289C189.064 120.709 188.871 120.129 188.671 119.531C188.188 119.435 187.705 119.338 187.207 119.239C186.917 119.819 186.627 120.399 186.328 120.996C186.134 120.9 185.941 120.803 185.742 120.703C185.429 119.645 185.361 119.133 185.833 118.122C186.717 116.976 187.571 117.044 188.964 117.188Z" fill="black"/>
<path d="M178.711 107.227C179.26 107.575 179.26 107.575 179.59 108.106C179.718 108.838 179.718 108.838 179.59 109.571C179.114 110.12 179.114 110.12 178.418 110.45C177.342 110.385 176.845 110.341 176.074 109.571C176.147 108.527 176.147 108.527 176.367 107.52C177.187 107.11 177.804 107.153 178.711 107.227Z" fill="black"/>
<path d="M190.851 107.117C191.895 107.227 191.895 107.227 192.499 107.721C192.774 108.399 192.774 108.399 192.554 109.186C192.188 109.864 192.188 109.864 191.895 110.157C190.714 110.234 190.266 110.243 189.258 109.571C189.167 108.692 189.167 108.692 189.258 107.813C189.844 107.227 189.844 107.227 190.851 107.117Z" fill="black"/>
</svg>
