<svg width="300" height="300" viewBox="0 0 300 300" fill="none" xmlns="http://www.w3.org/2000/svg">
<path d="M107.239 63.7031C108.9 65.0258 109.592 66.8332 110.204 68.7911C110.37 69.2959 110.535 69.8007 110.701 70.3054C110.828 70.6975 110.828 70.6975 110.957 71.0976C112.537 75.9734 114.241 80.6923 116.602 85.2534C116.711 85.4663 116.821 85.6792 116.933 85.8985C118.461 88.8255 120.013 91.3845 123.047 92.8706C123.657 90.2575 123.703 87.7243 123.67 85.052C123.667 84.6433 123.664 84.2345 123.662 83.8258C123.655 82.8368 123.645 81.8479 123.633 80.8589C124.771 81.2856 125.459 81.7 126.306 82.5801C126.5 82.7788 126.695 82.9774 126.895 83.1821C127.403 83.7463 127.865 84.3526 128.32 84.9605C128.514 83.897 128.707 82.8335 128.906 81.7378C130.078 82.1284 131.25 82.5191 132.422 82.9097C132.905 80.2993 133.389 77.689 133.887 74.9995C135.144 75.3139 135.332 75.4798 136.121 76.4278C136.294 76.6325 136.467 76.8371 136.645 77.048C137.11 77.6363 137.11 77.6363 137.695 78.5152C139.647 73.7878 139.592 69.4245 138.867 64.4527C142.119 65.9331 143.86 69.5756 145.313 72.6558C145.476 72.4326 145.639 72.2094 145.807 71.9794C149.845 66.5164 149.845 66.5164 152.637 65.0386C153.481 65.8829 153.321 66.7623 153.351 67.895C153.445 70.248 153.818 72.4186 154.395 74.7066C154.523 74.2817 154.523 74.2817 154.653 73.8483C155.679 70.5467 157.006 67.3843 159.668 65.0386C160.463 64.6815 160.463 64.6815 161.133 64.4527C161.102 64.6977 161.102 64.6977 161.07 64.9477C160.495 69.6154 160.297 73.8231 162.305 78.2222C162.402 78.3189 162.498 78.4156 162.598 78.5152C162.687 78.3596 162.775 78.204 162.867 78.0437C163.613 76.7856 164.274 75.8125 165.527 74.9995C165.721 74.9995 165.914 74.9995 166.113 74.9995C166.146 75.196 166.178 75.3924 166.212 75.5948C166.36 76.4892 166.512 77.3832 166.663 78.2771C166.714 78.5862 166.765 78.8953 166.817 79.2138C166.868 79.5131 166.919 79.8124 166.972 80.1208C167.018 80.3954 167.064 80.67 167.111 80.953C167.288 81.7493 167.548 82.4552 167.871 83.2027C168.185 83.0093 168.5 82.8159 168.823 82.6167C169.72 82.0651 169.961 82.0308 171.094 82.0308C171.287 82.9976 171.481 83.9644 171.68 84.9605C171.857 84.738 172.033 84.5156 172.215 84.2864C172.45 83.9952 172.684 83.7041 172.925 83.4041C173.156 83.1152 173.387 82.8263 173.625 82.5286C174.22 81.848 174.719 81.3249 175.488 80.8589C175.778 80.8589 176.069 80.8589 176.367 80.8589C176.364 81.1098 176.361 81.3607 176.358 81.6192C176.348 82.5638 176.341 83.5084 176.335 84.4531C176.332 84.8593 176.328 85.2656 176.323 85.6719C176.294 88.0338 176.346 90.28 176.953 92.5777C178.054 92.5777 178.491 92.186 179.291 91.4653C184.794 85.4627 187.401 76.2084 189.82 68.6825C190.464 66.7375 191.108 65.0194 192.761 63.7031C194.377 62.9376 195.792 62.649 197.526 63.1915C199.159 63.8579 200.496 64.8094 201.856 65.9175C202.152 66.1471 202.448 66.3767 202.753 66.6133C203.829 67.5749 204.737 68.6231 205.664 69.7261C205.985 70.096 205.985 70.096 206.312 70.4734C211.26 76.2617 215.378 82.7258 218.555 89.648C218.654 89.8626 218.753 90.0772 218.856 90.2983C222.649 98.6012 224.485 107.776 221.272 116.594C219.812 120.061 218.023 122.763 215.332 125.39C215.097 125.628 214.862 125.866 214.619 126.111C210.669 129.912 205.11 132.435 199.603 132.458C199.182 132.447 198.761 132.435 198.34 132.421C198.381 132.686 198.422 132.951 198.464 133.224C198.858 135.932 199.039 138.579 199.036 141.32C199.036 141.521 199.036 141.722 199.036 141.929C199.012 149.65 197.729 157.946 192.865 164.212C192.114 165.241 191.899 166.255 191.748 167.504C189.412 182.986 180.841 198.483 170.508 210.058C170.303 210.288 170.303 210.288 170.094 210.523C168.111 212.734 166.103 214.928 163.852 216.871C158.833 221.243 154.656 225.723 151.142 231.379C150.874 231.801 150.585 232.21 150.293 232.617C150.1 232.617 149.906 232.617 149.707 232.617C149.287 231.959 148.899 231.301 148.517 230.621C147.33 228.578 145.999 226.775 144.434 225C144.123 224.64 144.123 224.64 143.805 224.274C142.588 222.892 141.319 221.564 140.021 220.257C139.883 220.118 139.745 219.979 139.603 219.835C138.83 219.066 138.036 218.336 137.208 217.625C135.613 216.241 134.117 214.754 132.623 213.262C132.474 213.113 132.325 212.964 132.171 212.81C129.918 210.555 127.829 208.262 125.977 205.664C125.735 205.335 125.493 205.007 125.25 204.679C122.259 200.604 119.594 196.337 117.188 191.894C117.069 191.677 116.95 191.461 116.827 191.237C112.584 183.493 108.826 174.788 108.006 165.914C107.775 164.749 107.346 164.155 106.622 163.22C102.125 157.071 100.952 149.71 100.998 142.241C101.001 141.631 100.998 141.02 100.994 140.41C100.992 137.701 101.236 135.098 101.66 132.421C101.292 132.452 100.923 132.482 100.543 132.513C95.0101 132.489 89.6383 129.819 85.547 126.269C85.112 125.979 85.112 125.979 84.6681 125.683C84.6681 125.49 84.6681 125.296 84.6681 125.097C84.4748 125.097 84.2814 125.097 84.0822 125.097C80.0372 120.8 77.2835 114.934 77.0509 108.984C77.0283 108.518 77.0283 108.518 77.0052 108.043C76.7223 96.9894 81.9272 86.4558 88.1837 77.6363C88.4105 77.3076 88.6371 76.9787 88.8635 76.6498C90.4327 74.3897 92.1113 72.2555 93.9285 70.19C94.2007 69.8802 94.4712 69.569 94.7402 69.2565C97.9001 65.587 102.12 61.278 107.239 63.7031ZM99.5557 71.1429C98.9639 71.7266 98.4039 72.3275 97.8517 72.9488C97.6976 73.1161 97.5435 73.2834 97.3848 73.4557C96.8431 74.0572 96.3216 74.6727 95.8009 75.2925C95.6676 75.4495 95.5343 75.6065 95.3969 75.7683C87.7867 84.7653 81.6436 95.465 82.3873 107.635C82.89 113.607 85.3162 118.618 89.6486 122.753C92.7455 125.342 96.7511 126.558 100.726 126.8C100.946 126.819 101.166 126.837 101.392 126.857C102.602 126.951 102.602 126.951 103.682 126.482C104.293 125.522 104.914 124.508 104.852 123.343C104.469 122.481 103.886 122.173 103.107 121.655C97.3701 117.632 93.9929 111.002 92.6933 104.216C92.4855 102.774 92.4788 101.338 92.4867 99.8836C92.4892 99.4003 92.4892 99.4003 92.4917 98.9072C92.6002 91.5642 94.9234 81.8729 100.122 76.4095C100.781 75.8784 100.781 75.8784 101.66 75.5855C101.719 75.8327 101.778 76.0798 101.838 76.3345C104.371 86.9207 107.403 98.9133 114.35 107.592C115.727 109.382 115.786 111.234 115.858 113.435C115.557 115.265 114.297 116.68 113.159 118.084C106.185 126.967 104.554 139.304 105.762 150.293C106.707 157.141 109.827 162.942 114.45 168.023C114.846 168.459 115.236 168.901 115.626 169.345C117.12 171.034 117.12 171.034 118.836 172.485C120.008 173.436 120.568 174.75 121.235 176.069C125.512 184.428 133.691 192.673 142.676 195.703C148.574 197.552 155.231 196.933 160.837 194.409C164.446 192.509 167.51 189.947 170.508 187.207C170.727 187.012 170.945 186.818 171.171 186.618C174.576 183.434 177.253 179.309 179.315 175.155C180.206 173.428 181.289 172.212 182.703 170.892C184.81 168.85 186.677 166.744 188.379 164.355C188.497 164.19 188.615 164.025 188.737 163.854C192.121 159.041 194.259 153.675 194.298 147.729C194.3 147.516 194.302 147.303 194.304 147.084C194.309 146.395 194.311 145.707 194.312 145.019C194.312 144.783 194.312 144.548 194.312 144.305C194.299 134.009 192.39 124.729 185.673 116.675C184.129 114.701 184.067 113.207 184.277 110.742C184.61 108.875 185.753 107.561 186.866 106.074C192.413 98.2141 195.344 88.0863 197.416 78.797C197.491 78.4608 197.566 78.1246 197.644 77.7782C197.708 77.4812 197.773 77.1843 197.839 76.8784C198.047 76.1714 198.047 76.1714 198.633 75.5855C202.328 77.546 204.334 83.6932 205.551 87.4802C205.914 88.6833 206.239 89.8934 206.543 91.1128C206.595 91.3187 206.647 91.5246 206.701 91.7367C208.653 99.789 207.484 108.031 203.211 115.1C201.019 118.365 198.228 121.082 194.824 123.046C195.062 123.627 195.3 124.206 195.538 124.786C195.671 125.109 195.804 125.432 195.94 125.764C196.214 126.523 196.214 126.523 196.582 126.855C201.466 127.366 206.156 125.798 210.087 122.982C214.563 119.205 217.08 113.712 217.629 107.937C218.399 96.2731 212.744 85.4107 205.371 76.7574C204.456 75.7281 203.516 74.7229 202.569 73.7235C201.856 72.9488 201.856 72.9488 201.27 72.0699C201.076 72.0699 200.883 72.0699 200.684 72.0699C200.684 71.8765 200.684 71.6831 200.684 71.4839C200.078 70.9593 200.078 70.9593 199.31 70.4402C199.056 70.2586 198.801 70.0769 198.538 69.8898C197.479 69.2719 197.479 69.2719 196.289 69.1402C194.599 70.2899 194.12 72.1617 193.433 74.0108C193.175 74.6754 192.917 75.3395 192.657 76.0032C192.529 76.3308 192.4 76.6585 192.268 76.9961C189.879 82.9668 186.678 88.5462 182.52 93.4566C182.375 93.6294 182.229 93.8023 182.08 93.9804C180.221 96.1905 178.314 98.3547 176.367 100.488C175.296 100.089 174.352 99.6032 173.376 99.0092C173.086 98.8349 172.795 98.6605 172.496 98.4808C172.191 98.2972 171.885 98.1135 171.57 97.9243C168.937 96.3634 166.38 95.0179 163.477 94.0425C163.172 93.9322 162.868 93.822 162.554 93.7083C161.677 93.4002 161.677 93.4002 160.547 93.4566C160.503 93.7687 160.503 93.7687 160.458 94.0871C160.321 95.0433 160.178 95.9985 160.034 96.9539C159.988 97.2811 159.942 97.6084 159.895 97.9455C159.332 101.637 157.969 104.664 155.041 107.076C153.882 107.87 152.628 108.493 151.376 109.126C150.558 109.488 150.558 109.488 150.293 110.156C150.1 110.156 149.906 110.156 149.707 110.156C149.514 109.866 149.32 109.576 149.121 109.277C148.504 108.925 148.504 108.925 147.785 108.618C144.66 107.1 142.237 104.953 141.037 101.62C140.556 100.1 140.344 98.5686 140.149 96.9905C140.079 96.4445 140.008 95.8986 139.936 95.3529C139.907 95.115 139.877 94.8771 139.846 94.632C139.773 94.024 139.773 94.024 139.453 93.4566C134.128 94.1436 128.788 97.3535 124.512 100.488C121.976 99.4142 120.108 96.6752 118.438 94.5758C117.997 94.0278 117.545 93.4888 117.081 92.9599C112.098 87.2531 108.83 80.3226 106.131 73.3034C106.018 73.0107 105.905 72.7181 105.789 72.4166C105.692 72.1585 105.594 71.9003 105.494 71.6343C104.898 70.1533 104.898 70.1533 103.743 69.1596C102.193 69.1108 100.7 70.1804 99.5557 71.1429Z" fill="black"/>
<path d="M138.867 111.621C139.931 112.331 140.167 113.032 140.588 114.185C140.663 114.389 140.739 114.593 140.816 114.803C141.434 116.553 141.894 118.328 142.309 120.135C142.367 120.387 142.426 120.639 142.485 120.899C143.28 124.539 143.659 128.159 143.647 131.878C143.646 132.48 143.653 133.081 143.66 133.682C143.676 136.95 143.423 140.386 141.211 142.969C140.754 143.392 140.289 143.806 139.819 144.214C136.699 146.956 135.082 150.072 133.451 153.839C132.011 157.044 129.931 158.476 127.013 160.256C125.944 161.095 125.786 161.847 125.497 163.137C124.908 168.258 126.539 172.983 129.602 177.063C131.812 179.273 134.538 180.793 137.696 180.855C139.467 180.85 141.22 180.76 142.968 180.469C141.822 178.554 140.574 177.199 138.867 175.781C136.243 173.422 133.628 170.263 133.429 166.608C133.559 163.684 134.891 161.248 136.903 159.176C140.138 156.399 144.281 154.871 148.535 154.688C148.766 154.672 148.998 154.657 149.236 154.642C152.621 154.52 156.402 155.056 159.375 156.738C159.618 156.868 159.86 156.998 160.111 157.132C163.132 158.83 165.505 161.254 166.534 164.648C167.032 167.229 166.386 169.529 164.941 171.68C163.251 173.871 161.421 175.935 159.274 177.687C158.468 178.415 157.916 179.269 157.324 180.176C160.243 181.132 163.82 181.346 166.641 179.977C170.837 177.457 173.137 173.693 174.396 169.025C174.672 167.718 174.726 166.42 174.737 165.088C174.74 164.867 174.743 164.646 174.746 164.419C174.724 163.025 174.511 162.036 173.73 160.84C173.164 160.329 173.164 160.329 172.503 159.961C172.271 159.816 172.039 159.67 171.8 159.52C171.567 159.376 171.334 159.231 171.093 159.082C170.674 158.802 170.259 158.515 169.848 158.221C169.672 158.098 169.495 157.974 169.313 157.847C167.771 156.415 166.968 154.666 166.186 152.747C164.614 149.093 162.58 146.257 159.63 143.586C157.196 141.311 156.552 138.37 156.39 135.134C156.23 128.274 157.273 121.25 159.411 114.734C159.482 114.518 159.553 114.302 159.626 114.08C159.987 113.046 160.328 112.357 161.133 111.621C161.079 111.993 161.026 112.366 160.971 112.749C159.64 122.1 159.64 122.1 159.21 131.525C159.209 131.734 159.209 131.943 159.208 132.158C159.209 134.46 159.322 136.452 160.254 138.574C160.447 138.671 160.64 138.768 160.84 138.867C160.889 138.48 160.889 138.48 160.94 138.084C161.612 134.677 164.272 131.733 167.065 129.822C170.594 127.754 174.358 127.204 178.37 127.873C180.148 128.38 181.619 129.396 182.603 130.975C184.249 134.186 183.968 137.476 182.889 140.861C182.355 142.214 181.686 143.315 180.761 144.434C180.615 144.616 180.468 144.799 180.316 144.987C178.429 147.1 175.624 148.388 172.851 148.828C171.775 148.868 170.705 148.864 169.629 148.828C170.713 152.533 170.713 152.533 173.163 155.402C175.534 156.663 178.183 156.283 180.693 155.601C182.943 154.823 185.304 153.847 186.914 152.051C187.204 152.147 187.494 152.244 187.793 152.344C188.727 154.705 188.162 157.707 187.297 159.992C185.614 163.714 182.706 166.89 179.536 169.436C178.064 170.781 177.272 172.106 176.55 173.932C174.796 178.129 172.428 181.63 168.457 183.984C167.395 184.406 167.395 184.406 166.699 184.57C166.671 184.78 166.644 184.989 166.615 185.204C166.008 187.614 163.977 189.574 161.937 190.871C156.036 194.078 149.092 194.439 142.676 192.773C138.729 191.568 135.702 189.531 133.593 185.907C133.301 185.156 133.301 185.156 133.301 184.57C133.065 184.516 132.829 184.462 132.586 184.406C128.474 182.746 125.834 178.72 123.926 174.902C123.675 174.282 123.43 173.66 123.193 173.035C122.501 171.293 121.529 170.246 120.117 169.043C119.825 168.787 119.825 168.787 119.528 168.527C119.138 168.186 118.748 167.846 118.358 167.506C118.165 167.336 117.972 167.167 117.773 166.992C117.583 166.826 117.393 166.659 117.198 166.488C114.442 163.918 112.117 160.475 111.845 156.652C111.807 154.971 111.904 153.637 112.5 152.051C113.344 152.447 114.058 152.908 114.807 153.461C117.874 155.512 121.833 156.69 125.519 155.969C127.4 155.243 128.415 154.199 129.234 152.403C129.664 151.325 130.032 150.231 130.371 149.121C130.154 149.114 129.938 149.106 129.715 149.098C125.947 148.888 122.256 147.64 119.604 144.836C117.343 142.036 116.139 138.722 116.234 135.125C116.499 132.804 117.5 130.917 119.165 129.291C121.056 127.945 122.794 127.582 125.061 127.625C125.293 127.628 125.525 127.631 125.764 127.634C129.592 127.738 132.821 129.282 135.608 131.927C137.552 134.006 138.706 136.056 139.16 138.867C140.135 138.184 140.454 137.501 140.698 136.377C141.873 128.292 140.153 119.616 138.867 111.621ZM175.781 134.18C175.752 134.371 175.724 134.562 175.694 134.759C175.384 136.572 175.079 138.095 173.508 139.244C172.011 140.11 171.004 140.156 169.336 139.746C168.493 139.288 168.493 139.288 167.871 138.867C167.677 138.867 167.484 138.867 167.285 138.867C167.285 138.674 167.285 138.48 167.285 138.281C166.995 138.378 166.705 138.475 166.406 138.574C165.761 139.933 165.557 141.484 165.82 142.969C166.485 143.924 167.361 144.15 168.457 144.434C171.426 144.736 174.03 144.416 176.458 142.603C178.073 140.951 179.122 139.159 179.297 136.816C179.094 135.886 178.864 135.505 178.198 134.839C177.398 134.394 176.685 134.282 175.781 134.18ZM120.996 135.645C120.752 137.696 121.058 139.191 122.168 140.918C122.403 141.299 122.403 141.299 122.644 141.687C124.34 143.383 126.499 144.543 128.906 144.727C130.752 144.721 132.789 144.653 134.179 143.262C134.367 141.377 134.174 139.955 133.301 138.281C132.66 138.578 132.155 138.843 131.634 139.325C130.577 139.982 129.554 140.104 128.32 140.039C127.012 139.671 126.177 139.094 125.28 138.08C124.702 136.9 124.436 135.762 124.218 134.473C122.887 134.359 121.955 134.686 120.996 135.645ZM138.281 163.477C138.184 163.67 138.088 163.863 137.988 164.062C138.345 163.942 138.701 163.821 139.068 163.696C145.692 161.492 152.305 160.717 159.082 162.891C159.374 162.981 159.666 163.071 159.968 163.164C160.555 163.353 161.138 163.558 161.718 163.77C159.152 160.861 155.289 159.329 151.465 159.082C146.655 158.828 141.828 160.062 138.281 163.477ZM137.109 184.863C137.339 185.147 137.568 185.431 137.805 185.724C137.934 185.884 138.063 186.043 138.196 186.208C138.707 186.767 139.033 186.906 139.788 186.953C141.252 186.949 142.697 186.897 144.155 186.768C146.143 186.61 148.116 186.578 150.11 186.584C150.462 186.584 150.814 186.583 151.176 186.582C152.912 186.584 154.632 186.624 156.363 186.76C156.668 186.782 156.973 186.804 157.287 186.827C157.858 186.872 158.429 186.926 158.999 186.99C160.458 187.121 160.458 187.121 161.706 186.458C162.149 185.946 162.533 185.437 162.89 184.863C154.183 183.701 145.817 183.701 137.109 184.863Z" fill="black"/>
<path d="M97.5579 145.02C97.6546 145.02 97.7513 145.02 97.8509 145.02C97.8706 145.581 97.8706 145.581 97.8907 146.153C98.7668 170.617 103.531 192.414 119.824 211.523C120.104 211.855 120.384 212.186 120.664 212.517C122.036 214.133 123.424 215.73 124.859 217.291C126.04 218.58 127.161 219.906 128.257 221.268C128.686 221.799 129.122 222.325 129.564 222.845C131.927 225.643 133.839 228.627 135.497 231.885C135.646 232.174 135.646 232.174 135.798 232.469C136.351 233.59 136.678 234.598 136.816 235.84C129.938 233.843 123.576 228.751 117.773 224.707C117.586 224.578 117.399 224.449 117.207 224.316C114.349 222.34 111.654 220.19 108.984 217.969C108.813 217.828 108.643 217.687 108.467 217.542C99.2231 209.886 90.5325 200.691 89.1148 188.195C88.1646 175.727 91.0735 163.491 94.9761 151.74C95.0377 151.553 95.0993 151.367 95.1627 151.176C95.8614 149.074 96.6032 147.02 97.5579 145.02Z" fill="black"/>
<path d="M202.148 145.02C202.983 146.001 203.366 146.988 203.79 148.199C203.859 148.397 203.929 148.596 204.001 148.801C204.229 149.456 204.452 150.112 204.675 150.769C204.753 150.996 204.83 151.222 204.909 151.456C208.336 161.553 211.002 171.961 211.011 182.684C211.011 182.892 211.011 183.1 211.011 183.315C210.993 195.357 205.429 204.311 197.168 212.695C194.843 214.985 192.397 217.108 189.844 219.141C189.52 219.406 189.196 219.673 188.873 219.939C184.195 223.777 179.173 227.106 174.023 230.273C173.737 230.452 173.737 230.452 173.444 230.633C171.209 232.021 168.932 233.308 166.608 234.54C166.242 234.734 166.242 234.734 165.87 234.932C165.643 235.051 165.416 235.17 165.183 235.292C164.981 235.398 164.779 235.504 164.57 235.613C164.062 235.84 164.062 235.84 163.477 235.84C163.649 234.324 164.128 233.117 164.777 231.757C164.932 231.43 164.932 231.43 165.09 231.098C167.391 226.404 170.713 222.591 174.204 218.749C175.201 217.635 176.169 216.498 177.138 215.36C177.934 214.426 178.741 213.508 179.572 212.604C183.89 207.758 187.523 202.218 190.723 196.582C190.838 196.38 190.953 196.177 191.072 195.969C193.294 192.03 195 187.923 196.582 183.691C196.662 183.479 196.741 183.266 196.823 183.046C197.278 181.81 197.677 180.561 198.047 179.297C198.116 179.063 198.186 178.828 198.257 178.587C200.823 169.776 201.546 160.669 201.892 151.538C201.917 150.901 201.943 150.265 201.969 149.628C202.03 148.092 202.09 146.556 202.148 145.02Z" fill="black"/>
</svg>
