<svg width="300" height="300" viewBox="0 0 300 300" fill="none" xmlns="http://www.w3.org/2000/svg">
<path d="M185.189 106.571C185.509 106.566 185.509 106.566 185.836 106.562C190.502 106.512 194.988 106.526 199.512 107.812C199.762 107.882 200.013 107.951 200.271 108.022C205.766 109.58 210.68 112.021 215.039 115.723C215.285 115.928 215.531 116.133 215.785 116.345C217.238 117.593 218.521 118.924 219.726 120.41C219.924 120.645 220.122 120.881 220.326 121.123C221.81 122.978 222.96 124.922 224.066 127.02C224.2 127.273 224.333 127.525 224.471 127.785C226.758 132.236 226.758 132.236 226.758 134.18C226.997 134.234 226.997 134.234 227.242 134.289C229.448 134.893 231.149 136.092 232.436 138.004C232.737 138.576 232.979 139.141 233.203 139.746C233.324 140.054 233.445 140.362 233.569 140.68C234.026 142.999 234.257 145.612 232.91 147.656C232.123 147.931 232.123 147.931 231.445 147.949C230.714 146.843 230.335 145.823 229.999 144.543C229.513 142.706 228.888 140.94 228.223 139.16C228.227 139.533 228.232 139.906 228.237 140.29C228.395 154.376 228.395 154.376 227.344 159.375C227.293 159.621 227.243 159.867 227.191 160.12C226.618 162.838 225.847 165.477 224.908 168.091C224.836 168.294 224.764 168.498 224.689 168.708C224.28 169.794 223.841 170.779 223.248 171.782C221.263 175.178 221.159 178.189 221.21 182.062C221.21 182.923 221.207 183.783 221.203 184.644C221.202 185.175 221.204 185.705 221.209 186.235C221.24 190.56 221.24 190.56 220.349 191.748C219.21 192.552 218.233 192.52 216.876 192.528C216.676 192.529 216.477 192.531 216.272 192.532C215.612 192.536 214.953 192.538 214.294 192.54C213.834 192.542 213.375 192.543 212.916 192.545C211.951 192.548 210.987 192.55 210.023 192.551C208.792 192.552 207.561 192.559 206.33 192.568C205.38 192.573 204.43 192.575 203.481 192.575C203.027 192.576 202.573 192.578 202.12 192.582C199.798 192.601 197.85 192.553 195.703 191.602C194.802 191.497 194.802 191.497 193.934 191.547C193.619 191.553 193.304 191.56 192.979 191.567C192.658 191.579 192.336 191.59 192.004 191.602C187.748 191.75 187.748 191.75 186.021 190.176C185.857 189.981 185.692 189.787 185.522 189.587C185.355 189.395 185.187 189.202 185.014 189.004C183.843 187.355 183.912 185.848 183.948 183.893C183.95 183.62 183.953 183.347 183.956 183.066C183.963 182.395 183.972 181.725 183.984 181.055C183.68 181.115 183.376 181.175 183.062 181.237C182.649 181.316 182.236 181.396 181.824 181.476C181.525 181.535 181.525 181.535 181.221 181.595C174.227 182.935 167.068 182.421 160.254 180.469C160.258 180.754 160.263 181.039 160.268 181.333C160.284 182.395 160.294 183.457 160.302 184.519C160.307 184.978 160.313 185.437 160.32 185.896C160.331 186.557 160.336 187.218 160.34 187.879C160.344 188.083 160.349 188.287 160.353 188.497C160.354 189.784 160.211 190.608 159.375 191.602C158.14 192.332 157.233 192.59 155.805 192.589C155.453 192.591 155.101 192.593 154.738 192.595C154.174 192.591 154.174 192.591 153.598 192.587C153.204 192.587 152.81 192.587 152.416 192.587C151.593 192.587 150.769 192.584 149.946 192.579C148.894 192.572 147.842 192.572 146.79 192.574C145.977 192.575 145.164 192.573 144.351 192.57C143.776 192.569 143.2 192.569 142.625 192.569C142.273 192.567 141.921 192.564 141.558 192.561C141.096 192.559 141.096 192.559 140.624 192.557C139.746 192.48 139.746 192.48 138.845 192.146C137.799 191.839 137.488 192.033 136.523 192.48C135.756 192.557 135.756 192.557 134.928 192.561C134.616 192.564 134.304 192.566 133.983 192.569C133.649 192.569 133.315 192.569 132.971 192.569C132.626 192.57 132.28 192.571 131.924 192.572C131.194 192.574 130.464 192.574 129.734 192.573C128.617 192.572 127.501 192.579 126.384 192.586C125.674 192.587 124.965 192.587 124.255 192.587C123.921 192.59 123.588 192.592 123.243 192.595C122.932 192.593 122.62 192.591 122.298 192.589C122.025 192.59 121.752 192.59 121.47 192.59C120.538 192.457 119.996 192.153 119.238 191.602C118.538 190.551 118.581 190.095 118.586 188.848C118.586 188.659 118.586 188.47 118.585 188.276C118.586 187.653 118.59 187.03 118.595 186.407C118.596 185.975 118.597 185.543 118.598 185.11C118.6 183.973 118.606 182.836 118.612 181.699C118.618 180.538 118.621 179.378 118.624 178.217C118.63 175.94 118.64 173.663 118.652 171.387C118.21 171.395 118.21 171.395 117.759 171.403C117.365 171.407 116.971 171.411 116.576 171.415C116.191 171.421 115.806 171.426 115.409 171.431C114.023 171.378 112.816 171.086 111.5 170.671C110.612 170.48 110.134 170.5 109.277 170.801C108.555 171.371 108.555 171.371 107.849 172.101C105.068 174.734 102.166 177.041 98.26 177.021C96.527 176.958 94.8199 176.685 93.1093 176.413C90.1057 175.938 87.1886 175.761 84.1495 175.814C83.7223 175.821 83.7223 175.821 83.2866 175.828C82.0959 175.846 80.9056 175.865 79.7152 175.898C78.8373 175.921 77.9598 175.933 77.0816 175.943C76.6815 175.958 76.6814 175.958 76.2732 175.973C74.5854 175.98 73.7028 175.677 72.4846 174.494C67.7186 169.086 66.1687 162.252 66.4374 155.237C66.814 150.459 69.4897 146.449 72.9674 143.301C74.8477 141.843 77.0256 141.005 79.2259 140.148C81.0686 139.409 82.7858 138.569 83.8504 136.82C84.208 135.909 83.9457 135.135 83.789 134.18C83.6528 132.481 83.7088 131.258 84.6679 129.785C85.2721 129.089 85.2721 129.089 85.8398 128.613C86.0331 128.613 86.2265 128.613 86.4257 128.613C86.5073 128.078 86.5073 128.078 86.5905 127.533C87.0231 125.563 88.0641 123.9 89.0624 122.168C89.1927 121.937 89.323 121.706 89.4572 121.469C89.7132 121.016 89.9731 120.566 90.2343 120.117C90.0409 120.117 89.8476 120.117 89.6484 120.117C87.8059 117.91 86.8713 115.527 87.0597 112.643C87.3295 111.085 87.9524 109.823 89.0624 108.691C90.7107 107.593 92.5023 107.353 94.4274 107.666C97.5052 108.471 99.7441 110.649 101.66 113.086C101.805 113.376 101.805 113.376 101.953 113.672C102.454 113.63 102.954 113.587 103.455 113.544C103.733 113.52 104.012 113.496 104.299 113.472C105.17 113.391 105.17 113.391 106 113.223C107.185 113.049 108.338 113.054 109.534 113.068C109.763 113.069 109.993 113.07 110.229 113.072C110.791 113.075 111.352 113.08 111.914 113.086C112.002 112.859 112.089 112.631 112.179 112.397C113.139 110.073 115.479 108.541 117.718 107.538C119.411 106.978 121.791 106.789 123.429 107.533C124.39 107.873 125.016 107.806 126.025 107.677C126.374 107.636 126.724 107.594 127.085 107.551C127.456 107.504 127.828 107.458 128.21 107.41C135.421 106.582 142.298 107.161 149.476 108.132C159.174 109.438 167.949 108.822 177.587 107.279C180.116 106.879 182.627 106.6 185.189 106.571ZM91.6076 111.182C90.7043 112.52 90.7472 113.787 90.985 115.32C91.4697 116.458 92.0594 117.448 93.164 118.066C94.4044 117.996 95.2526 117.453 96.2768 116.785C96.5525 116.607 96.8281 116.43 97.1122 116.247C97.7241 115.813 98.2266 115.395 98.7304 114.844C97.6458 113.022 96.1763 111.289 94.0429 110.742C92.9994 110.614 92.4959 110.605 91.6076 111.182ZM116.016 112.793C115.038 114 114.373 115.08 113.965 116.601C113.625 116.531 113.625 116.531 113.278 116.46C107.252 115.61 100.91 116.418 95.9323 120.114C93.758 121.9 92.0161 123.708 90.8202 126.269C90.7122 126.471 90.6042 126.673 90.4929 126.881C90.1686 127.584 90.1918 128.141 90.2343 128.906C90.5002 129.015 90.766 129.124 91.04 129.236C92.1607 129.882 92.5705 130.4 93.164 131.543C93.5544 133.077 93.4927 134.185 92.871 135.644C92.1073 136.491 91.3252 137.039 90.2343 137.402C89.6664 137.364 89.0988 137.32 88.5314 137.274C87.2491 137.233 87.2491 137.233 86.19 137.851C85.911 138.261 85.6421 138.677 85.382 139.099C84.0411 141.158 81.6804 142.151 79.5592 143.225C75.6799 145.193 72.7741 147.736 71.2154 151.888C69.6624 157.006 70.3604 162.964 72.6195 167.761C73.6835 169.801 73.6835 169.801 75.2929 171.387C76.2106 171.402 76.7716 171.322 77.6366 171.094C83.6677 169.743 90.1747 170.383 96.0765 172.08C98.2265 172.76 98.2265 172.76 100.431 172.647C101.228 172.202 101.853 171.696 102.539 171.094C102.994 170.745 102.994 170.745 103.459 170.389C107.013 167.624 110.07 164.107 110.929 159.559C111.244 156.411 110.771 153.306 109.863 150.293C112.728 153.362 114.116 156.502 114.062 160.685C113.894 162.47 113.344 164.123 112.793 165.82C112.691 166.21 112.591 166.6 112.5 166.992C114.732 167.985 116.791 167.805 119.073 167.01C124.02 164.925 127.655 160.741 129.716 155.848C131.534 151.283 131.899 146.898 131.891 142.017C131.891 141.81 131.89 141.604 131.89 141.391C131.87 134.36 131.011 127.723 128.906 120.996C135.052 131.798 137.425 142.461 134.217 154.724C132.32 161.485 127.934 165.929 122.168 169.629C123.034 171.781 125.752 173.018 127.755 173.984C129.599 174.697 131.901 175.488 133.887 175.488C133.887 176.455 133.887 177.422 133.887 178.418C127.246 176.351 127.246 176.351 124.296 175.151C123.659 174.868 123.659 174.868 123.047 174.902C123.047 179.35 123.047 183.797 123.047 188.379C124.911 188.565 126.681 188.719 128.54 188.708C128.744 188.71 128.948 188.711 129.158 188.712C131.241 188.708 133.258 188.528 135.351 188.379C135.351 181.031 135.351 173.684 135.351 166.113C135.835 168.337 136.318 170.56 136.816 172.851C138.085 176.621 138.085 176.621 139.856 180.139C140.869 182.01 140.827 183.944 140.826 186.026C140.828 186.412 140.828 186.412 140.83 186.806C140.826 187.039 140.823 187.271 140.819 187.51C140.868 187.795 140.868 187.795 140.918 188.086C141.856 188.711 142.086 188.744 143.161 188.738C143.574 188.738 143.574 188.738 143.996 188.738C144.292 188.735 144.589 188.732 144.895 188.729C145.199 188.728 145.503 188.727 145.817 188.727C146.79 188.723 147.763 188.716 148.736 188.708C149.396 188.705 150.055 188.703 150.715 188.7C152.332 188.694 153.949 188.684 155.566 188.672C155.934 185.329 155.892 181.997 155.878 178.638C155.876 178.047 155.875 177.456 155.874 176.865C155.87 175.429 155.865 173.994 155.859 172.559C156.032 172.718 156.206 172.878 156.384 173.043C156.615 173.253 156.847 173.463 157.085 173.68C157.312 173.888 157.54 174.096 157.774 174.311C163.082 178.661 171.903 178.241 178.355 177.773C179.771 177.615 181.142 177.318 182.519 176.953C182.744 176.896 182.969 176.84 183.201 176.781C189.585 175.144 194.824 172.559 199.512 167.871C199.608 174.639 199.705 181.406 199.805 188.379C200.533 188.743 201.022 188.709 201.837 188.71C202.138 188.711 202.439 188.712 202.75 188.713C203.076 188.712 203.403 188.711 203.739 188.711C204.074 188.711 204.408 188.711 204.753 188.712C205.462 188.712 206.17 188.711 206.879 188.71C207.965 188.708 209.05 188.71 210.135 188.712C210.823 188.712 211.511 188.711 212.199 188.711C212.524 188.711 212.849 188.712 213.184 188.713C213.639 188.711 213.639 188.711 214.103 188.71C214.502 188.709 214.502 188.709 214.91 188.709C215.71 188.69 215.71 188.69 216.797 188.379C216.797 185.672 216.797 182.965 216.797 180.176C216.313 180.369 215.83 180.562 215.332 180.762C214.844 180.957 214.355 181.152 213.867 181.348C214.035 181.032 214.035 181.032 214.206 180.71C222.057 165.902 226.766 149.82 222 133.134C219.573 125.361 214.045 118.863 206.878 115.072C201.783 112.477 196.177 111.029 190.449 110.965C190.232 110.962 190.014 110.96 189.79 110.957C189.082 110.949 188.373 110.946 187.665 110.944C187.42 110.943 187.175 110.942 186.923 110.941C182.244 110.937 177.709 111.394 173.083 112.05C163.293 113.431 154.454 112.98 144.697 111.629C142.072 111.27 139.464 110.999 136.813 110.996C136.608 110.996 136.404 110.996 136.193 110.995C135.767 110.995 135.341 110.996 134.915 110.997C134.269 110.998 133.623 110.997 132.977 110.995C132.559 110.995 132.141 110.996 131.723 110.996C131.164 110.997 131.164 110.997 130.595 110.997C129.425 111.037 128.306 111.167 127.148 111.328C127.159 111.597 127.169 111.866 127.179 112.143C127.235 114.685 127.096 116.351 125.812 118.561C124.182 120.107 122.472 120.795 120.227 120.868C118.538 120.804 116.97 120.485 115.723 119.238C116.083 119.188 116.443 119.139 116.814 119.087C117.293 119.016 117.771 118.944 118.249 118.872C118.486 118.84 118.723 118.808 118.967 118.775C120.49 118.539 121.527 118.183 122.754 117.187C123.66 115.919 123.801 114.728 123.757 113.206C123.55 112.032 123.043 111.536 122.168 110.742C119.561 109.873 117.751 110.835 116.016 112.793ZM88.2568 130.994C87.7115 131.812 87.7308 132.342 87.8905 133.301C88.5909 133.868 88.5909 133.868 89.3554 134.18C90.1199 133.868 90.1199 133.868 90.8202 133.301C90.98 132.342 90.9993 131.812 90.454 130.994C89.6782 130.495 89.0325 130.495 88.2568 130.994ZM193.407 177.152C193.192 177.255 192.977 177.358 192.755 177.465C192.42 177.628 192.42 177.628 192.078 177.795C191.636 178.009 191.194 178.221 190.752 178.434C190.557 178.529 190.362 178.624 190.16 178.722C189.478 179.037 188.785 179.316 188.086 179.59C188.06 180.743 188.045 181.897 188.031 183.05C188.024 183.378 188.016 183.706 188.009 184.044C188.006 184.359 188.003 184.673 188 184.997C187.995 185.287 187.991 185.577 187.986 185.876C188.025 186.628 188.025 186.628 188.476 187.144C189.315 187.755 190.07 187.83 191.073 187.832C191.307 187.832 191.54 187.833 191.781 187.833C192.024 187.832 192.267 187.831 192.517 187.83C192.762 187.831 193.007 187.832 193.26 187.833C194.428 187.949 194.428 187.949 195.41 187.5C195.436 186.698 195.444 185.903 195.439 185.1C195.438 184.74 195.438 184.74 195.437 184.372C195.436 183.602 195.432 182.832 195.428 182.062C195.427 181.541 195.426 181.02 195.424 180.499C195.421 179.219 195.416 177.94 195.41 176.66C194.517 176.66 194.188 176.774 193.407 177.152Z" fill="black"/>
<path d="M95.3792 147.84C95.8602 147.827 95.8602 147.827 96.3508 147.814C97.4629 147.979 97.9327 148.345 98.7301 149.121C99.5094 150.494 99.521 151.831 99.1352 153.348C98.318 155.731 96.9324 156.959 94.7933 158.203C93.0747 158.686 91.7492 158.504 90.1424 157.746C88.9821 156.693 88.2647 155.622 88.126 154.032C88.226 152.329 88.8463 151.005 89.941 149.707C91.6041 148.363 93.2561 147.865 95.3792 147.84ZM92.596 152.271C91.9147 153.134 91.9147 153.134 92.0467 153.919C92.2416 154.437 92.2416 154.437 92.7608 154.596C93.8189 154.735 94.35 154.404 95.2144 153.809C95.5005 152.874 95.658 152.352 95.2144 151.465C94.0044 151.296 93.4045 151.367 92.596 152.271Z" fill="black"/>
<path d="M112.246 129.286C113.505 130.307 114.154 131.158 114.33 132.799C114.42 134.608 114.164 135.652 113.086 137.109C111.888 138.307 110.624 138.85 108.915 138.877C107.384 138.772 106.353 138.442 105.176 137.402C104.035 135.931 103.815 134.758 103.893 132.905C104.127 131.271 104.877 130.239 106.183 129.236C108.02 127.948 110.369 128.145 112.246 129.286ZM106.641 132.129C106.543 133.154 106.543 133.154 106.641 134.179C106.834 134.373 107.028 134.566 107.227 134.765C108.499 134.737 108.499 134.737 109.571 134.179C109.685 132.964 109.685 132.964 109.223 131.872C108.224 131.252 107.462 131.308 106.641 132.129Z" fill="black"/>
<path d="M79.7941 149.617C80.9307 150.526 81.8623 151.544 82.3244 152.93C82.4255 154.498 82.4674 155.47 81.4455 156.739C80.4552 157.608 79.7969 158.155 78.4792 158.313C76.6561 158.137 75.3575 157.222 74.1579 155.86C72.9645 154.175 72.6247 152.639 72.9494 150.586C73.4079 149.677 73.9785 148.981 74.9715 148.634C76.6785 148.361 78.3398 148.691 79.7941 149.617ZM76.758 151.758C76.3713 152.082 76.3713 152.082 76.3918 152.893C76.3926 153.783 76.3926 153.783 76.7946 154.34C77.551 154.819 78.2166 154.905 79.1017 154.981C79.2951 154.884 79.4884 154.787 79.6877 154.688C79.8353 154.018 79.8353 154.018 79.6877 153.223C78.9076 152.369 78.9076 152.369 77.9298 151.758C77.5431 151.758 77.1564 151.758 76.758 151.758Z" fill="black"/>
<path d="M124.805 143.848C126.455 145.498 126.562 148.376 126.562 150.586C126.265 154.257 124.977 157.067 122.754 159.961C122.619 160.145 122.484 160.329 122.344 160.518C120.729 162.576 118.405 164.201 116.016 165.234C115.822 165.138 115.629 165.041 115.43 164.941C115.632 164.782 115.834 164.622 116.042 164.457C120.093 161.206 124.732 156.96 125.391 151.465C125.541 148.861 125.328 146.399 124.805 143.848Z" fill="black"/>
</svg>
