<svg width="300" height="300" viewBox="0 0 300 300" fill="none" xmlns="http://www.w3.org/2000/svg">
<path d="M144.433 109.864C144.185 111.163 143.446 111.871 142.547 112.793C141.378 114.003 140.573 114.998 140.039 116.602C139.846 116.602 139.652 116.602 139.453 116.602C139.55 116.795 139.646 116.989 139.746 117.188C142.066 117.284 144.387 117.381 146.777 117.481C146.443 118.818 146.15 119.048 145.129 119.916C143.998 120.895 142.933 121.896 141.907 122.984C141.504 123.34 141.504 123.34 140.918 123.34C140.918 123.533 140.918 123.727 140.918 123.926C140.724 123.926 140.531 123.926 140.332 123.926C140.241 124.107 140.151 124.289 140.057 124.475C139.856 124.878 139.654 125.281 139.453 125.684C139.919 125.679 139.919 125.679 140.395 125.675C154.368 125.549 166.205 126.815 178.125 134.766C178.285 134.873 178.446 134.98 178.611 135.09C181.276 136.885 183.71 138.901 186.103 141.041C186.604 141.489 187.109 141.934 187.614 142.377C187.912 142.641 188.21 142.906 188.507 143.17C188.766 143.401 189.026 143.632 189.293 143.87C189.844 144.434 189.844 144.434 189.844 145.02C190.134 145.116 190.424 145.213 190.722 145.313C191.139 145.737 191.139 145.737 191.593 146.295C192.478 147.337 193.41 148.316 194.383 149.275C194.525 149.414 194.666 149.554 194.812 149.698C195.399 150.277 195.988 150.856 196.577 151.433C197.013 151.86 197.447 152.288 197.881 152.717C198.266 153.095 198.266 153.095 198.659 153.481C199.219 154.102 199.219 154.102 199.219 154.688C199.605 154.881 199.992 155.074 200.39 155.274C200.39 155.467 200.39 155.66 200.39 155.86C200.584 155.86 200.777 155.86 200.976 155.86C201.348 156.238 201.348 156.238 201.8 156.793C202.789 157.96 203.844 159.035 204.931 160.108C206.126 161.288 207.271 162.481 208.358 163.763C209.041 164.529 209.768 165.247 210.498 165.967C211.619 167.075 212.701 168.201 213.721 169.404C214.006 169.741 214.299 170.071 214.599 170.395C216.282 172.244 215.972 174.535 215.988 176.901C215.99 177.234 215.992 177.566 215.995 177.909C215.999 178.611 216.002 179.313 216.004 180.015C216.008 180.734 216.014 181.453 216.022 182.171C216.035 183.21 216.04 184.248 216.043 185.287C216.048 185.609 216.053 185.93 216.058 186.262C216.057 186.711 216.057 186.711 216.055 187.169C216.058 187.563 216.058 187.563 216.061 187.965C215.864 188.937 215.527 189.237 214.746 189.844C213.794 189.991 213.794 189.991 212.638 189.991C212.424 189.993 212.21 189.995 211.99 189.997C211.27 190.001 210.55 189.997 209.83 189.993C209.31 189.994 208.791 189.996 208.271 189.998C206.839 190.003 205.408 190.001 203.977 189.997C202.434 189.995 200.892 189.999 199.349 190.002C196.326 190.007 193.303 190.006 190.28 190.003C187.824 190 185.368 190 182.911 190.001C182.562 190.001 182.213 190.001 181.853 190.001C181.144 190.002 180.435 190.002 179.726 190.002C173.071 190.006 166.415 190.002 159.76 189.996C154.046 189.99 148.331 189.991 142.616 189.997C135.985 190.003 129.355 190.006 122.724 190.002C122.017 190.002 121.311 190.001 120.604 190.001C120.256 190.001 119.909 190 119.55 190C117.096 189.999 114.642 190.001 112.188 190.004C109.198 190.007 106.209 190.006 103.219 190C101.693 189.997 100.167 189.996 98.6407 189.999C97.2449 190.003 95.8492 190.001 94.4534 189.995C93.9471 189.993 93.4409 189.994 92.9346 189.997C92.2488 190.001 91.5634 189.997 90.8777 189.991C90.4961 189.991 90.1145 189.991 89.7213 189.991C88.7693 189.844 88.7693 189.844 88.0608 189.312C87.3803 188.372 87.4386 187.753 87.5975 186.621C88.0884 185.834 88.0884 185.834 88.7693 185.156C89.5442 184.98 89.5442 184.98 90.4353 184.99C90.9367 184.99 90.9367 184.99 91.4482 184.991C91.8074 184.998 92.1666 185.006 92.5367 185.013C92.9057 185.016 93.2747 185.018 93.6549 185.02C94.6338 185.027 95.6122 185.04 96.5909 185.056C97.5905 185.071 98.5901 185.078 99.5897 185.085C101.549 185.101 103.509 185.126 105.469 185.156C105.519 184.963 105.57 184.77 105.622 184.57C106.165 182.541 106.779 180.545 107.438 178.551C107.539 178.242 107.641 177.933 107.745 177.614C108.066 176.637 108.388 175.66 108.71 174.683C109.032 173.702 109.355 172.721 109.677 171.739C109.876 171.132 110.076 170.524 110.276 169.917C110.455 169.374 110.632 168.83 110.807 168.286C110.996 167.698 111.192 167.112 111.389 166.526C111.687 165.243 111.699 164.039 111.688 162.726C111.688 162.46 111.688 162.193 111.688 161.919C111.687 161.357 111.685 160.794 111.681 160.232C111.676 159.386 111.675 158.54 111.675 157.694C111.669 154.629 111.586 151.59 111.328 148.535C111.166 148.82 111.004 149.105 110.837 149.399C110.433 150.11 110.027 150.82 109.619 151.529C109.231 152.204 108.848 152.881 108.468 153.562C108.318 153.824 108.168 154.087 108.014 154.358C107.882 154.593 107.75 154.828 107.614 155.07C107.486 155.234 107.358 155.398 107.226 155.567C106.347 155.567 106.347 155.567 105.573 154.983C104.716 153.889 104.668 153.051 104.675 151.716C104.671 151.49 104.667 151.265 104.662 151.032C104.65 150.316 104.647 149.6 104.645 148.883C104.638 148.396 104.63 147.909 104.622 147.421C104.604 146.23 104.594 145.039 104.59 143.848C103.452 144.941 102.727 146.108 101.953 147.48C101.389 148.441 100.977 149.045 99.9021 149.414C98.9001 148.596 98.4754 148.163 98.2441 146.869C98.2322 146.455 98.2279 146.041 98.2302 145.627C98.2257 145.408 98.2213 145.189 98.2167 144.964C98.2042 144.268 98.2016 143.573 98.1993 142.877C98.1925 142.404 98.1851 141.931 98.177 141.458C98.1586 140.301 98.1491 139.145 98.1443 137.989C97.8191 138.262 97.4946 138.537 97.1704 138.811C96.8993 139.04 96.8993 139.04 96.6226 139.274C96.0937 139.728 96.0937 139.728 95.6726 140.218C95.2696 140.644 95.2696 140.644 94.3357 141.211C93.0775 141.05 91.9497 140.604 90.8201 140.039C91.3314 138.852 92.1159 137.899 92.9075 136.89C93.0446 136.714 93.1817 136.537 93.3229 136.355C93.6596 135.923 93.9976 135.491 94.3357 135.059C94.1413 134.985 93.9468 134.912 93.7464 134.836C92.6668 134.388 91.6267 133.879 90.5821 133.356C90.3741 133.252 90.1662 133.148 89.9519 133.041C86.4387 131.263 86.4387 131.263 85.2537 130.078C85.1682 129.395 85.1682 129.395 85.151 128.529C85.1394 128.044 85.1394 128.044 85.1276 127.548C85.1224 127.197 85.1172 126.846 85.1118 126.484C85.1047 126.124 85.0977 125.764 85.0904 125.393C85.0726 124.435 85.0576 123.477 85.0435 122.518C85.0278 121.547 85.0056 120.575 84.9848 119.604C84.9718 118.864 84.9592 118.124 84.947 117.383C84.9394 117.034 84.9318 116.685 84.924 116.324C84.92 115.998 84.916 115.672 84.9118 115.335C84.9071 115.049 84.9023 114.762 84.8975 114.467C84.967 113.593 85.1437 112.985 85.5467 112.207C86.4722 111.59 86.8006 111.53 87.8728 111.458C88.1649 111.436 88.457 111.415 88.7579 111.393C89.0736 111.373 89.3893 111.352 89.7146 111.331C90.388 111.282 91.0614 111.234 91.7348 111.184C92.0749 111.16 92.415 111.136 92.7654 111.111C93.9102 111.023 95.0519 110.914 96.1944 110.801C112.206 109.231 128.367 109.755 144.433 109.864ZM100.982 115.119C100.769 115.132 100.555 115.145 100.335 115.159C98.8917 115.25 97.4485 115.343 96.0054 115.438C95.4503 115.474 95.4503 115.474 94.8839 115.511C94.5375 115.534 94.1911 115.558 93.8341 115.582C93.5337 115.602 93.2333 115.622 92.9238 115.643C91.8289 115.737 90.7387 115.88 89.6482 116.016C89.6482 117.756 89.6482 119.496 89.6482 121.289C92.4097 122.895 95.1934 124.394 98.0562 125.81C98.4575 126.009 98.8586 126.209 99.2598 126.409C100.306 126.93 101.352 127.45 102.399 127.969C104.266 128.896 106.133 129.824 107.999 130.754C108.198 130.853 108.397 130.952 108.602 131.054C111.599 132.547 114.576 134.075 117.529 135.653C119.755 137.039 119.755 137.039 122.168 137.696C122.209 129.975 122.107 122.268 121.875 114.551C114.89 114.364 107.951 114.678 100.982 115.119ZM126.269 114.551C126.271 115.367 126.272 116.183 126.274 117.024C126.279 119.722 126.282 122.42 126.285 125.117C126.286 126.753 126.288 128.388 126.291 130.024C126.295 131.602 126.296 133.181 126.297 134.759C126.298 135.361 126.299 135.963 126.3 136.565C126.302 137.409 126.303 138.253 126.303 139.096C126.304 139.345 126.305 139.593 126.306 139.849C126.304 141.118 126.231 142.305 125.976 143.555C124.563 143.646 123.703 143.404 122.448 142.761C122.112 142.591 121.776 142.421 121.43 142.246C121.072 142.06 120.713 141.873 120.355 141.687C119.983 141.497 119.611 141.308 119.24 141.119C116.983 139.967 114.739 138.79 112.501 137.603C107.766 135.097 102.952 132.761 98.0832 130.529C97.7605 130.381 97.4377 130.233 97.1052 130.081C96.7927 129.937 96.4802 129.794 96.1582 129.646C94.8839 129.043 93.6352 128.393 92.3888 127.734C92.1612 127.638 91.9336 127.541 91.699 127.442C91.409 127.587 91.409 127.587 91.1131 127.735C93.6251 129.677 96.1479 131.599 98.7303 133.448C101.127 135.164 103.469 136.945 105.804 138.744C106.542 139.31 107.287 139.867 108.032 140.424C110.978 142.626 113.896 144.867 116.82 147.098C117.607 147.7 118.395 148.301 119.183 148.902C119.436 149.095 119.69 149.288 119.951 149.487C121.776 150.878 123.608 152.257 125.45 153.625C126.152 154.147 126.822 154.654 127.441 155.274C128.369 155.172 128.892 154.825 129.576 154.212C129.843 153.975 129.843 153.975 130.115 153.734C130.302 153.566 130.489 153.397 130.682 153.223C131.075 152.875 131.468 152.528 131.862 152.181C132.056 152.01 132.249 151.839 132.449 151.662C133.222 150.984 134.008 150.325 134.802 149.671C135.045 149.47 135.287 149.27 135.537 149.064C137.364 147.671 137.364 147.671 138.519 147.62C141.452 148.655 143.926 152.116 146.076 154.308C146.564 154.805 147.054 155.3 147.544 155.794C147.694 155.948 147.844 156.102 147.998 156.26C148.361 156.626 148.74 156.977 149.121 157.324C149.314 157.324 149.508 157.324 149.707 157.324C149.767 157.484 149.828 157.643 149.89 157.807C150.448 158.762 151.232 159.419 152.051 160.144C152.394 160.456 152.738 160.768 153.081 161.08C153.252 161.236 153.423 161.392 153.6 161.552C154.34 162.231 155.066 162.922 155.786 163.623C156.137 163.963 156.137 163.963 156.495 164.31C157.306 165.265 157.306 165.265 157.324 166.114C156.744 167.827 155.783 169.252 154.779 170.746C154.484 171.187 154.189 171.628 153.897 172.07C153.767 172.263 153.638 172.455 153.504 172.654C153.174 173.135 153.174 173.135 153.222 173.731C157.672 175.188 161.847 175.805 166.517 175.788C166.789 175.788 167.06 175.787 167.34 175.787C168.005 175.786 168.67 175.784 169.336 175.781C169.337 175.6 169.339 175.419 169.341 175.232C169.36 173.335 169.385 171.439 169.413 169.543C169.422 168.836 169.431 168.129 169.437 167.423C169.447 166.404 169.462 165.385 169.479 164.366C169.481 164.053 169.483 163.74 169.484 163.417C169.547 160.171 170.34 157.679 172.723 155.384C175.077 153.432 177.585 153.016 180.591 153.113C183.365 153.403 185.363 154.669 187.207 156.739C188.697 158.905 189.227 160.858 188.965 163.477C188.625 164.846 188.235 166.258 187.503 167.474C186.485 169.208 186.48 170.732 186.548 172.705C186.553 173.002 186.558 173.299 186.564 173.605C186.577 174.331 186.597 175.056 186.621 175.781C194.83 175.815 203.027 175.812 211.23 175.489C211.326 174.248 211.326 174.248 210.859 173.129C210.688 172.954 210.518 172.778 210.342 172.597C210.155 172.398 209.967 172.199 209.773 171.995C209.577 171.794 209.381 171.594 209.179 171.387C208.816 170.993 208.453 170.599 208.09 170.205C207.721 169.811 207.352 169.418 206.982 169.025C206.707 168.731 206.707 168.731 206.427 168.432C205.371 167.306 204.298 166.203 203.197 165.121C202.707 164.621 202.253 164.101 201.8 163.568C200.89 162.51 199.918 161.528 198.926 160.547C197.982 159.615 197.053 158.688 196.197 157.672C195.171 156.464 194.045 155.363 192.92 154.248C190.597 151.948 190.597 151.948 189.697 150.879C187.377 148.137 184.712 145.537 181.933 143.262C181.79 143.141 181.647 143.02 181.5 142.896C170.055 133.233 158.251 130.46 143.572 130.21C142.7 130.194 141.829 130.178 140.957 130.161C140.562 130.155 140.562 130.155 140.158 130.149C138.632 130.119 137.156 130.002 135.644 129.785C135.637 129.438 135.63 129.091 135.622 128.734C135.594 127.433 135.565 126.132 135.535 124.83C135.523 124.27 135.51 123.709 135.499 123.149C135.481 122.338 135.463 121.527 135.444 120.716C135.437 120.347 135.437 120.347 135.429 119.97C135.385 118.144 135.225 116.381 135.058 114.551C132.158 114.551 129.258 114.551 126.269 114.551ZM139.453 115.723C139.746 116.309 139.746 116.309 139.746 116.309L139.453 115.723ZM116.308 152.344C116.33 152.873 116.33 152.873 116.351 153.412C116.668 162.636 115.295 170.334 112.149 178.99C111.413 181.025 110.786 183.087 110.156 185.156C112.283 185.156 114.41 185.156 116.601 185.156C117.783 181.656 118.907 178.143 119.986 174.61C121.126 170.884 122.267 167.16 123.541 163.477C123.633 163.208 123.725 162.939 123.82 162.662C123.904 162.424 123.989 162.185 124.076 161.939C124.146 161.738 124.217 161.537 124.29 161.33C124.512 160.84 124.512 160.84 125.097 160.254C125.968 160.931 126.838 161.608 127.734 162.305C127.267 165.521 126.273 168.565 125.317 171.662C125.151 172.204 124.985 172.747 124.819 173.29C124.49 174.365 124.162 175.441 123.832 176.517C123.752 176.781 123.671 177.045 123.587 177.317C123.419 177.865 123.251 178.413 123.082 178.961C122.832 179.769 122.584 180.577 122.337 181.386C122.261 181.63 122.185 181.875 122.106 182.127C122.037 182.354 121.968 182.582 121.897 182.816C121.836 183.014 121.775 183.212 121.712 183.416C121.538 184.078 121.538 184.078 121.582 185.156C122.619 185.233 123.655 185.28 124.695 185.321C125.134 185.354 125.134 185.354 125.582 185.388C127.198 185.456 127.198 185.456 128.552 184.688C129.028 183.989 129.405 183.276 129.785 182.52C130.13 181.929 130.476 181.339 130.825 180.751C131.193 180.108 131.561 179.465 131.927 178.821C133.37 176.302 134.827 173.795 136.337 171.316C136.574 170.916 136.574 170.916 136.816 170.508C136.941 170.302 137.066 170.096 137.195 169.883C137.462 169.178 137.355 168.87 137.109 168.164C136.512 167.576 135.924 167.046 135.278 166.516C135.094 166.362 134.91 166.208 134.72 166.048C133.072 164.678 131.381 163.367 129.67 162.076C128.875 161.474 128.085 160.863 127.295 160.254C126.976 160.009 126.658 159.764 126.339 159.519C125.715 159.04 125.092 158.559 124.469 158.077C123.509 157.336 122.546 156.597 121.582 155.86C121.379 155.704 121.176 155.549 120.968 155.389C120.325 154.897 119.681 154.408 119.037 153.919C118.833 153.762 118.629 153.606 118.419 153.445C117.469 152.631 117.469 152.631 116.308 152.344ZM137.988 152.637C137.259 153.099 137.259 153.099 136.505 153.772C136.222 154.013 135.938 154.253 135.647 154.501C134.365 155.625 133.092 156.758 131.836 157.91C133.714 159.852 135.744 161.631 137.842 163.33C138.379 163.77 138.916 164.209 139.453 164.649C139.735 164.876 140.017 165.104 140.308 165.339C140.576 165.564 140.843 165.79 141.119 166.022C141.362 166.223 141.605 166.423 141.855 166.63C142.554 167.498 142.476 167.946 142.383 169.043C142.076 169.794 142.076 169.794 141.64 170.549C141.477 170.835 141.314 171.121 141.147 171.416C140.969 171.721 140.79 172.025 140.606 172.339C140.425 172.656 140.243 172.974 140.056 173.301C139.469 174.325 138.876 175.347 138.281 176.367C138.074 176.723 137.867 177.079 137.66 177.435C137.506 177.7 137.506 177.7 137.349 177.97C137.044 178.495 136.74 179.02 136.435 179.546C136.048 180.213 135.658 180.879 135.267 181.544C135.091 181.847 134.914 182.15 134.732 182.461C134.498 182.861 134.498 182.861 134.258 183.269C133.925 183.91 133.728 184.451 133.594 185.156C137.373 185.642 137.373 185.642 140.875 184.624C141.493 183.762 141.93 182.893 142.383 181.934C142.865 181.099 143.377 180.282 143.884 179.462C144.018 179.239 144.151 179.017 144.289 178.788C145.357 177.018 146.515 175.325 147.711 173.639C149.474 171.15 149.474 171.15 151.153 168.604C151.429 168.173 151.429 168.173 151.711 167.734C152.101 167.044 152.101 167.044 152.001 166.442C151.674 165.605 151.19 165.144 150.555 164.509C150.3 164.252 150.045 163.995 149.782 163.73C149.501 163.452 149.221 163.174 148.94 162.897C148.653 162.61 148.367 162.323 148.081 162.037C147.481 161.437 146.879 160.838 146.276 160.241C145.504 159.475 144.734 158.706 143.966 157.935C143.375 157.343 142.783 156.753 142.19 156.163C141.906 155.88 141.622 155.596 141.338 155.312C140.942 154.916 140.544 154.522 140.145 154.128C139.919 153.903 139.693 153.678 139.46 153.447C138.875 152.87 138.875 152.87 137.988 152.637ZM174.792 159.229C173.339 161.465 173.393 163.618 173.398 166.222C173.398 166.548 173.398 166.875 173.398 167.211C173.397 167.903 173.398 168.595 173.399 169.287C173.401 170.322 173.399 171.357 173.397 172.392C173.396 176.656 173.516 180.898 173.73 185.156C176.534 185.156 179.338 185.156 182.226 185.156C182.224 183.928 182.221 182.7 182.218 181.435C182.222 180.446 182.228 179.458 182.235 178.469C182.242 177.431 182.245 176.392 182.239 175.354C182.233 174.158 182.244 172.963 182.255 171.767C182.251 171.401 182.247 171.034 182.242 170.657C182.281 168.277 182.784 166.758 184.102 164.77C184.91 163.549 184.981 162.574 184.863 161.133C184.254 159.358 183.347 158.178 181.64 157.324C178.909 157.088 176.741 157.178 174.792 159.229ZM150 177.539C149.9 177.707 149.8 177.874 149.698 178.046C149.008 179.2 148.317 180.352 147.603 181.491C147.497 181.662 147.39 181.833 147.28 182.009C146.971 182.503 146.66 182.997 146.349 183.49C145.85 184.211 145.85 184.211 145.898 184.864C148.717 185.101 151.504 185.2 154.333 185.195C154.731 185.196 155.13 185.196 155.528 185.196C156.354 185.197 157.18 185.196 158.005 185.195C159.062 185.193 160.119 185.194 161.175 185.196C161.994 185.197 162.813 185.196 163.632 185.196C164.21 185.195 164.789 185.196 165.367 185.197C165.717 185.196 166.068 185.195 166.429 185.194C166.89 185.194 166.89 185.194 167.361 185.194C168.235 185.18 168.235 185.18 169.336 184.864C169.336 183.413 169.336 181.963 169.336 180.469C168.374 180.399 168.374 180.399 167.394 180.328C162.614 179.965 157.986 179.476 153.325 178.297C152.222 178.022 151.111 177.782 150 177.539ZM194.806 180.304C194.563 180.31 194.321 180.316 194.071 180.322C191.576 180.382 189.101 180.465 186.621 180.762C186.621 182.115 186.621 183.469 186.621 184.864C188.024 185.097 189.295 185.197 190.703 185.19C190.929 185.19 191.155 185.19 191.388 185.19C192.13 185.19 192.871 185.187 193.613 185.185C194.13 185.185 194.646 185.184 195.162 185.184C196.518 185.183 197.873 185.18 199.228 185.177C200.613 185.174 201.997 185.172 203.382 185.171C206.096 185.168 208.809 185.163 211.523 185.156C211.531 184.491 211.537 183.826 211.542 183.161C211.545 182.79 211.548 182.42 211.552 182.038C211.571 181.056 211.571 181.056 211.23 180.176C205.753 180.143 200.281 180.166 194.806 180.304Z" fill="black"/>
<path d="M115.77 115.119C117.502 116.153 118.565 117.19 119.073 119.183C119.32 120.676 119.168 121.76 118.359 123.047C117.095 124.431 115.802 124.966 113.965 125.097C112.22 124.857 111.027 124.038 109.863 122.754C109.003 121.39 109.099 119.917 109.277 118.359C109.762 116.93 110.667 115.968 111.914 115.137C113.249 114.691 114.468 114.552 115.77 115.119ZM113.379 118.652C112.974 119.461 113.03 120.102 113.086 120.996C113.279 121.189 113.473 121.383 113.672 121.582C114.532 121.474 114.804 121.329 115.43 120.703C115.503 119.812 115.503 119.812 115.43 118.945C115.1 118.548 115.1 118.548 114.239 118.634C113.955 118.64 113.671 118.646 113.379 118.652Z" fill="black"/>
</svg>
