<svg width="300" height="300" viewBox="0 0 300 300" fill="none" xmlns="http://www.w3.org/2000/svg">
<path d="M150.585 71.3054C151.667 71.8852 152.53 72.5729 153.443 73.3882C153.711 73.6238 153.711 73.6238 153.985 73.8642C156.515 76.1063 158.789 78.4597 160.84 81.1519C160.924 80.9782 161.008 80.8045 161.094 80.6255C161.53 79.7781 162.062 79.0088 162.598 78.2222C163.553 78.1983 164.168 78.356 164.902 78.9775C166.125 80.3015 167.144 81.7522 168.128 83.2576C168.239 83.428 168.351 83.5984 168.466 83.774C169.127 84.8193 169.58 85.8237 169.922 87.0113C170.906 86.4363 171.833 85.8211 172.753 85.1493C174.224 84.1148 175.732 83.2918 177.356 82.5252C177.643 82.3891 177.929 82.2531 178.224 82.1129C181.496 80.5986 184.882 79.4232 188.292 78.262C189.205 77.9476 190.112 77.6221 191.019 77.2907C191.287 77.1937 191.554 77.0967 191.83 76.9968C192.32 76.8191 192.809 76.6398 193.297 76.4584C194.536 76.0155 195.538 75.7808 196.875 75.8785C197.188 77.0634 197.124 77.9422 196.897 79.1412C196.833 79.4938 196.769 79.8464 196.703 80.2096C196.633 80.587 196.563 80.9645 196.491 81.3533C195.696 85.8226 195.317 90.265 195.058 94.7965C194.638 102.022 194.17 108.55 188.591 113.821C186.988 115.206 185.182 116.343 183.399 117.48C186.215 124.202 189.553 130.784 193.653 136.816C193.776 136.999 193.899 137.181 194.026 137.369C196.217 140.593 198.673 143.63 201.226 146.573C205.932 152 212.097 159.9 212.989 167.285C212.859 168.104 212.859 168.104 212.696 168.75C210.609 168.944 208.797 168.238 206.836 167.578C206.857 167.763 206.878 167.948 206.9 168.138C207.993 178.669 204.361 188.422 197.754 196.582C197.018 197.424 196.269 198.249 195.507 199.067C194.93 199.69 194.381 200.325 193.836 200.976C192.573 202.429 191.13 203.695 189.699 204.976C189.285 205.346 188.874 205.718 188.463 206.09C187.368 207.08 186.269 208.063 185.157 209.033C184.766 209.374 184.375 209.716 183.985 210.058C183.766 210.249 183.547 210.44 183.322 210.637C181.673 212.097 180.108 213.62 178.581 215.206C177.716 216.09 176.913 216.842 175.782 217.382C174.829 217.327 174.829 217.327 174.024 217.089C173.671 216.385 173.701 215.932 173.712 215.148C173.715 214.909 173.718 214.67 173.72 214.423C173.726 214.148 173.726 214.148 173.731 213.867C167.303 217.121 161.307 220.91 155.547 225.232C155.297 225.419 155.047 225.605 154.79 225.798C154.307 226.16 153.825 226.524 153.345 226.891C150.911 228.719 150.911 228.719 149.707 228.808C148.645 228.343 147.723 227.717 146.778 227.05C146.443 226.815 146.443 226.815 146.101 226.575C145.435 226.095 144.778 225.604 144.123 225.109C143.633 224.746 143.144 224.383 142.654 224.02C142.29 223.75 142.29 223.75 141.919 223.474C138.119 220.654 134.231 218.192 130.078 215.918C129.866 215.801 129.654 215.685 129.435 215.565C128.384 214.992 127.329 214.425 126.27 213.867C126.277 214.047 126.283 214.227 126.29 214.413C126.296 214.649 126.301 214.886 126.306 215.13C126.313 215.365 126.32 215.599 126.327 215.841C126.27 216.503 126.27 216.503 125.684 217.382C123.701 217.425 122.768 216.469 121.372 215.138C120.864 214.617 120.388 214.103 119.934 213.537C119.024 212.435 117.983 211.568 116.895 210.644C116.179 210.029 115.466 209.412 114.752 208.795C114.562 208.63 114.371 208.465 114.175 208.296C112.757 207.066 111.363 205.815 109.981 204.544C109.379 203.998 108.766 203.475 108.142 202.954C100.032 195.855 93.9751 185.419 92.8713 174.609C92.7304 172.341 92.8063 170.117 93.1643 167.871C92.0955 168.002 91.1034 168.167 90.0698 168.475C89.0944 168.741 88.3092 168.799 87.3049 168.75C86.2567 164.882 89.6379 159.736 91.4065 156.445C92.2882 154.911 93.278 153.467 94.3362 152.05C94.463 151.88 94.5898 151.71 94.7204 151.535C96.1696 149.613 97.7021 147.77 99.28 145.953C105.335 138.969 109.888 131.255 114.038 123.028C114.208 122.694 114.208 122.694 114.381 122.353C114.704 121.715 115.024 121.076 115.343 120.436C115.49 120.148 115.49 120.148 115.639 119.853C116.126 118.864 116.309 118.316 116.309 117.187C115.76 116.748 115.76 116.748 115.027 116.4C113.273 115.415 111.88 114.199 110.449 112.793C110.259 112.606 110.068 112.419 109.872 112.226C105.799 107.921 105.342 101.947 105.055 96.3269C104.98 94.8702 104.89 93.4144 104.8 91.9586C104.782 91.677 104.765 91.3954 104.747 91.1053C104.474 86.7755 103.88 82.5157 102.965 78.2749C102.836 77.3669 102.881 76.7548 103.125 75.8785C104.997 76.0418 106.612 76.4983 108.376 77.1327C108.651 77.2301 108.927 77.3275 109.21 77.4278C109.793 77.6345 110.375 77.8424 110.957 78.0514C111.825 78.363 112.695 78.6694 113.566 78.9752C119.244 80.9895 124.852 83.0792 129.492 87.0113C129.609 86.7924 129.609 86.7924 129.729 86.569C133.788 79.0143 133.788 79.0143 135.938 78.2222C136.688 78.1673 136.688 78.1673 137.403 78.5152C137.998 79.4008 138.574 80.3596 138.574 81.4449C138.768 81.4449 138.961 81.4449 139.16 81.4449C139.233 81.2825 139.306 81.1201 139.381 80.9528C141.26 77.4543 144.634 74.7944 147.748 72.4361C147.916 72.3027 148.085 72.1694 148.258 72.032C149.095 71.4212 149.543 71.1696 150.585 71.3054ZM145.935 80.3279C145.637 80.5879 145.637 80.5879 145.333 80.8532C143.991 82.1631 143.16 83.5685 142.346 85.2352C142.245 85.4374 142.143 85.6396 142.039 85.848C141.471 86.9955 140.998 88.1262 140.625 89.355C139.537 89.0629 138.714 88.6939 137.824 88.0184C137.012 87.4048 136.387 87.1054 135.352 87.0113C134.391 89.3707 134.282 91.6754 134.18 94.189C134.078 96.7026 133.969 99.0073 133.008 101.367C132.337 101.382 132.337 101.382 131.543 101.074C131.079 100.262 130.832 99.3816 130.554 98.492C128.819 93.3902 126.456 90.1065 121.582 87.5972C119.567 86.6339 117.504 85.7875 115.43 84.9605C115.165 84.8547 114.901 84.7489 114.628 84.6399C113.866 84.3386 113.101 84.0436 112.335 83.752C112.104 83.6619 111.872 83.5718 111.633 83.479C110.521 83.0675 109.825 82.8362 108.692 83.2027C108.717 83.3722 108.742 83.5417 108.768 83.7163C108.884 84.5032 108.998 85.2903 109.113 86.0774C109.152 86.3439 109.192 86.6103 109.232 86.8848C109.689 90.0343 109.899 93.1516 109.992 96.3313C110.202 103.495 110.202 103.495 113.816 109.474C114.949 110.526 116.171 111.389 117.481 112.207C117.868 112.456 117.868 112.456 118.262 112.71C118.909 113.162 118.909 113.162 119.55 112.957C120.355 112.308 120.806 111.655 121.289 110.742C121.332 109.914 121.182 109.494 120.643 108.864C120.5 108.71 120.356 108.556 120.209 108.398C116.586 104.323 116.047 98.0816 116.309 92.8707C117.188 92.5777 117.188 92.5777 117.811 92.7871C122.124 94.9538 125.058 98.0451 126.856 102.539C127.124 103.356 127.355 104.178 127.57 105.011C127.621 105.208 127.673 105.406 127.726 105.609C128.091 107.152 128.062 108.118 127.272 109.501C127.076 109.79 126.88 110.079 126.678 110.377C126.572 110.535 126.466 110.694 126.357 110.857C126.019 111.364 125.678 111.868 125.336 112.371C120.87 118.958 119.943 123.516 120.977 131.37C121.368 134.433 121.445 137.374 120.923 140.423C120.884 140.66 120.844 140.897 120.804 141.141C118.881 152.26 118.881 152.26 115.155 155.035C114.044 155.33 113.318 155.268 112.207 154.98C111.493 154.522 111.493 154.522 111.035 154.101C111.195 153.014 111.562 152.661 112.427 152.014C115.984 148.99 116.403 143.332 116.803 138.935C117.021 136.189 116.987 133.637 116.309 130.957C116.115 130.957 115.922 130.957 115.723 130.957C115.629 131.125 115.534 131.293 115.437 131.466C111.895 137.764 107.977 143.508 103.228 148.957C100.731 151.841 98.4159 154.885 96.094 157.91C95.9306 158.115 95.7672 158.32 95.5989 158.531C95.1592 159.05 95.1592 159.05 95.2151 159.668C95.3884 159.629 95.5618 159.59 95.7404 159.55C95.9719 159.498 96.2034 159.446 96.4419 159.393C96.6696 159.342 96.8974 159.291 97.132 159.238C97.8587 159.08 98.5872 158.934 99.3167 158.789C99.2738 158.983 99.231 159.177 99.1868 159.377C96.9825 169.501 97.0577 178.539 102.246 187.793C102.419 188.112 102.592 188.431 102.769 188.76C104.524 191.904 106.828 194.546 109.278 197.168C109.522 197.431 109.766 197.694 110.017 197.965C115.453 203.633 122.855 207.089 129.816 210.495C133.668 212.383 137.419 214.298 140.918 216.796C141.081 216.912 141.244 217.028 141.411 217.147C143.986 218.997 146.478 220.984 148.81 223.132C149.592 223.893 149.592 223.893 150.263 223.803C151.096 223.44 151.601 222.923 152.252 222.29C158.981 215.966 167.186 211.992 175.377 207.918C186.379 202.435 196.361 194.256 200.421 182.254C202.685 175.267 202.92 167.942 200.977 160.839C200.865 160.399 200.754 159.958 200.645 159.518C200.561 159.18 200.477 158.843 200.391 158.496C200.659 158.584 200.927 158.672 201.203 158.762C201.552 158.874 201.9 158.985 202.259 159.1C202.605 159.212 202.952 159.324 203.309 159.44C204.168 159.763 204.168 159.763 204.785 159.375C201.895 155.265 198.769 151.396 195.48 147.6C190.989 142.395 187.315 136.669 183.985 130.664C181.626 134.202 183.307 141.244 184.094 145.184C184.905 148.644 186.059 151.085 188.965 153.222C188.564 154.148 188.382 154.392 187.5 154.98C186.889 155.078 186.889 155.078 186.219 155.09C185.999 155.098 185.779 155.107 185.552 155.115C184.331 154.876 183.622 154.133 182.933 153.131C179.335 145.955 178.257 138.141 179.259 130.256C180.236 122.443 178.336 117.553 173.882 111.209C173.758 111.03 173.634 110.851 173.506 110.666C173.17 110.191 172.817 109.729 172.463 109.268C171.668 107.856 171.874 106.774 172.232 105.235C172.349 104.848 172.47 104.461 172.595 104.077C172.661 103.872 172.727 103.668 172.795 103.458C174.427 98.5837 177.546 95.0811 182.133 92.7677C182.882 92.5584 183.264 92.6036 183.985 92.8707C184.366 99.29 182.435 105.194 178.418 110.156C178.998 111.123 179.578 112.089 180.176 113.085C183.349 112.202 186.4 109.748 188.086 106.933C189.848 103.768 189.944 100.361 190.088 96.8214C190.286 92.054 190.663 87.347 191.309 82.6167C188.738 83.2332 186.328 84.1419 183.893 85.1619C183.706 85.2401 183.518 85.3182 183.325 85.3987C177.416 87.8705 172.508 90.5352 169.954 96.7266C169.626 97.5698 169.31 98.4155 169.014 99.2708C168.51 100.728 168.51 100.728 167.871 101.367C167.285 101.367 167.285 101.367 166.699 101.074C166.141 99.7486 166.019 98.5402 165.959 97.1118C165.938 96.6876 165.918 96.2634 165.897 95.8392C165.867 95.1792 165.839 94.5191 165.812 93.8588C165.694 90.4868 165.694 90.4868 164.649 87.3042C163.185 87.414 162.289 87.9105 161.112 88.7233C160.531 89.0715 160.037 89.2257 159.375 89.355C159.301 89.1602 159.226 88.9653 159.15 88.7645C157.61 85.0311 156.014 81.3663 152.344 79.3941C152.322 79.9458 152.322 79.9458 152.301 80.5087C151.996 87.6072 151.996 87.6072 150.586 89.355C150.296 89.4517 150.006 89.5484 149.707 89.648C148.348 88.46 148.052 86.7347 147.853 84.9968C147.799 84.142 147.768 83.2899 147.748 82.4336C147.738 82.1394 147.728 81.8453 147.718 81.5421C147.694 80.8262 147.674 80.1103 147.657 79.3941C146.821 79.3941 146.554 79.7801 145.935 80.3279Z" fill="black"/>
<path d="M126.562 147.363C127.942 148.864 128.526 150.936 129.126 152.838C129.259 153.244 129.259 153.244 129.395 153.658C129.789 154.876 130.137 156.064 130.371 157.324C131.458 156.017 132.148 154.469 132.915 152.962C133.027 152.746 133.139 152.529 133.255 152.306C133.355 152.109 133.455 151.913 133.559 151.71C133.908 151.137 134.251 150.724 134.765 150.293C135.516 150.201 135.516 150.201 136.23 150.293C137.077 151.14 137.048 152.077 137.109 153.223C136.796 160.243 133.753 166.243 130.229 172.166C128.004 175.944 127.446 178.768 128.32 183.105C128.62 184.042 128.946 184.921 129.492 185.742C129.685 185.839 129.879 185.936 130.078 186.035C130.121 185.843 130.164 185.651 130.208 185.454C131.327 180.904 133.57 177.358 137.52 174.764C143.206 171.421 150.414 170.64 156.789 172.293C161.478 173.662 165.341 176.271 167.869 180.511C168.721 182.082 169.328 183.767 169.922 185.449C170.605 185.175 171.008 185.007 171.39 184.363C172.692 180.306 172.401 176.799 170.47 173.031C169.632 171.448 168.747 169.895 167.816 168.365C165.951 165.3 164.733 162.226 163.769 158.789C163.665 158.428 163.665 158.428 163.559 158.059C163.012 155.929 162.412 152.96 163.235 150.893C163.769 150.293 163.769 150.293 164.505 150.136C165.234 150.293 165.234 150.293 165.679 150.715C165.804 150.92 165.929 151.125 166.058 151.337C166.275 151.69 166.275 151.69 166.496 152.051C167.477 153.791 168.416 155.552 169.336 157.324C169.442 156.899 169.442 156.899 169.551 156.466C171.314 149.556 171.314 149.556 173.437 147.363C174.147 147.079 174.147 147.079 174.902 147.07C179.395 149.918 180.657 155.905 181.805 160.689C182.482 163.968 182.482 163.968 184.57 166.406C185.749 166.557 186.793 166.405 187.773 165.714C189.658 163.753 190.52 161.09 191.399 158.567C191.52 158.223 191.641 157.88 191.766 157.526C191.869 157.213 191.972 156.899 192.079 156.577C192.48 155.859 192.48 155.859 193.257 155.609C193.598 155.588 193.598 155.588 193.945 155.566C195.275 158.287 195.519 161.139 195.501 164.136C195.5 164.429 195.499 164.723 195.497 165.025C195.409 170.655 193.829 175.758 189.935 179.919C186.685 183.002 182.773 184.849 178.363 185.468C177.434 185.621 177.434 185.621 176.66 186.035C176.109 186.941 175.832 187.806 175.53 188.821C174.383 192.323 171.727 193.99 168.64 195.648C167.667 196.459 167.341 197.304 166.816 198.438C165.598 200.758 163.791 202.274 161.426 203.32C161.202 203.425 160.978 203.53 160.748 203.637C154.296 206.329 145.957 206.127 139.453 203.815C136.808 202.718 134.187 200.887 132.971 198.197C132.868 197.948 132.766 197.699 132.66 197.443C131.9 195.797 130.76 195.248 129.199 194.421C126.637 193.033 125.13 191.013 123.926 188.379C123.696 187.601 123.516 186.827 123.34 186.035C123.056 185.974 122.772 185.914 122.479 185.851C116.607 184.529 111.2 182.085 107.647 177.008C104.367 171.586 103.555 164.553 104.786 158.39C105.317 156.304 105.317 156.304 106.054 155.566C106.642 155.608 106.642 155.608 107.226 155.859C107.546 156.331 107.546 156.331 107.794 156.958C107.891 157.196 107.988 157.433 108.088 157.678C108.307 158.256 108.523 158.835 108.736 159.415C110.019 163.169 110.019 163.169 112.628 166.022C113.856 166.474 114.478 166.512 115.722 166.113C116.77 165.032 117.184 163.992 117.608 162.561C117.67 162.359 117.731 162.157 117.794 161.948C118.128 160.826 118.429 159.698 118.706 158.56C119.714 154.434 121.013 149.747 124.801 147.276C125.536 147.02 125.838 147.094 126.562 147.363ZM175.195 157.031C174.734 158.514 174.451 159.939 174.28 161.481C174.255 161.699 174.231 161.918 174.206 162.143C173.689 167.087 174.272 171.519 176.953 175.781C177.573 176.506 178.195 177.037 179.004 177.539C179.288 177.72 179.572 177.902 179.864 178.088C181.317 178.622 182.426 178.679 183.855 178.13C185.891 177.15 187.39 176.116 188.598 174.17C188.772 173.895 188.946 173.62 189.125 173.337C189.493 172.664 189.709 172.135 189.844 171.387C189.539 171.418 189.235 171.449 188.921 171.482C185.954 171.752 183.58 171.738 180.981 170.087C178.153 167.707 177.681 163.953 177.005 160.518C176.939 160.195 176.873 159.872 176.804 159.539C176.748 159.247 176.691 158.954 176.633 158.653C176.32 157.779 175.978 157.505 175.195 157.031ZM124.511 157.031C123.57 157.787 123.41 158.531 123.15 159.687C123.025 160.219 123.025 160.219 122.898 160.76C122.73 161.501 122.563 162.242 122.397 162.983C121.662 166.108 120.859 168.961 118.066 170.801C115.885 172.109 113.221 171.986 110.797 171.387C110.489 171.29 110.181 171.193 109.863 171.094C111.11 174.039 112.974 176.751 115.922 178.189C117.373 178.678 118.729 178.734 120.165 178.168C122.966 176.579 124.415 174.085 125.39 171.094C126.346 167.626 126.084 164.151 125.574 160.638C125.537 160.382 125.5 160.126 125.462 159.863C125.405 159.502 125.405 159.502 125.347 159.134C125.296 158.811 125.296 158.811 125.245 158.483C125.108 157.822 125.108 157.822 124.511 157.031ZM136.705 181.606C134.739 184.174 134.511 186.989 134.911 190.096C135.456 193.55 136.349 196.075 138.992 198.459C141.028 199.72 143.371 199.602 145.686 199.6C146.199 199.602 146.199 199.602 146.722 199.604C147.441 199.605 148.161 199.605 148.881 199.604C149.977 199.603 151.073 199.61 152.169 199.618C152.871 199.618 153.572 199.618 154.274 199.618C154.599 199.621 154.924 199.624 155.259 199.626C158.041 199.61 160.304 199.162 162.366 197.21C164.962 194.099 165.289 189.67 165.022 185.783C164.7 183.296 163.196 181.341 161.291 179.808C154.154 174.901 142.831 175.06 136.705 181.606Z" fill="black"/>
<path d="M125.922 120.008C129.178 120.068 132.324 122.424 134.637 124.531C139.151 129.321 141.561 136.832 141.541 143.354C141.542 143.715 141.542 143.715 141.543 144.083C141.504 144.727 141.504 144.727 141.211 145.606C140.702 145.584 140.702 145.584 140.039 145.313C139.593 144.653 139.201 144.009 138.812 143.317C137.705 141.482 136.864 140.639 134.766 140.04C131.351 138.819 129.088 137.279 127.233 134.117C125.899 131.235 125.911 128.797 126.037 125.643C126.085 123.537 125.938 122.205 124.805 120.411C125.098 120.118 125.098 120.118 125.922 120.008Z" fill="black"/>
<path d="M174.902 120.118C174.778 120.988 174.654 121.521 174.133 122.242C173.624 123.26 173.762 123.81 173.924 124.909C174.421 128.777 173.82 132.632 171.68 135.938C170.032 138.031 168.018 139.284 165.466 140.016C162.737 140.843 161.818 142.033 160.518 144.438C159.961 145.313 159.961 145.313 159.303 145.583C159.133 145.59 158.964 145.598 158.789 145.606C157.383 140.47 159.935 133.473 162.231 128.907C164.765 124.675 169.488 119.502 174.902 120.118Z" fill="black"/>
<path d="M142.383 184.571C142.932 184.864 142.932 184.864 143.262 185.449C143.523 186.481 143.682 187.381 143.364 188.411C142.817 189.179 142.277 189.336 141.394 189.643C141.114 189.744 140.834 189.846 140.545 189.95C139.734 190.14 139.334 190.168 138.575 189.844C138.031 188.758 138.334 187.486 138.575 186.328C139.638 184.647 140.424 184.433 142.383 184.571Z" fill="black"/>
<path d="M158.606 184.405C159.928 184.61 160.31 185.001 161.133 186.035C161.926 187.131 161.783 188.246 161.718 189.551C161.426 189.844 161.426 189.844 160.51 189.917C159.01 189.82 157.83 189.471 156.738 188.379C156.563 187.2 156.592 186.094 157.049 184.991C157.617 184.57 157.617 184.57 158.606 184.405Z" fill="black"/>
</svg>
