<svg width="300" height="300" viewBox="0 0 300 300" fill="none" xmlns="http://www.w3.org/2000/svg">
<path d="M165.796 83.1035C167.372 83.1527 168.827 83.7056 170.306 84.2102C170.614 84.3134 170.921 84.4167 171.238 84.5232C174.056 85.5009 176.681 86.757 179.297 88.1835C179.286 87.8977 179.276 87.6118 179.266 87.3172C179.258 86.9445 179.25 86.5717 179.242 86.1877C179.232 85.8172 179.221 85.4467 179.211 85.065C179.297 84.082 179.297 84.082 179.63 83.4926C180.475 83.0443 181.028 83.2516 181.933 83.496C183.059 83.9885 184.101 84.6264 185.156 85.2539C185.485 85.4484 185.814 85.6428 186.153 85.8432C189.591 87.9332 192.499 90.434 194.824 93.75C195.693 93.3476 196.394 92.8701 197.149 92.2851C201.519 89.2111 206.98 86.787 212.402 87.0117C212.695 87.3046 212.695 87.3046 212.787 88.3667C212.764 90.4309 212.098 92.3708 211.523 94.3359C210.678 97.2331 209.89 100.141 209.136 103.063C208.957 103.757 208.776 104.45 208.595 105.144C208.48 105.588 208.365 106.033 208.25 106.478C208.169 106.786 208.169 106.786 208.087 107.1C207.84 108.066 207.715 108.857 207.715 109.863C208.174 110.334 208.174 110.334 208.813 110.742C214.946 115.276 218.411 121.813 221.432 128.643C223.635 133.615 226.195 137.851 229.98 141.797C230.194 142.026 230.408 142.255 230.628 142.49C236.123 148.216 243.019 150.222 250.744 150.403C251.075 150.408 251.405 150.413 251.745 150.419C252.06 150.428 252.376 150.437 252.701 150.446C252.987 150.452 253.272 150.458 253.566 150.464C254.407 150.604 254.672 150.79 255.176 151.465C256.094 155.29 253.26 160.26 251.367 163.477C249.102 167.024 246.124 170.38 241.992 171.68C241.084 171.788 240.177 171.828 239.264 171.863C239.019 171.874 238.774 171.885 238.522 171.897C237.921 171.925 237.32 171.949 236.719 171.973C236.686 172.147 236.653 172.321 236.619 172.5C235.724 176.26 232.869 178.774 229.687 180.762C228.541 181.369 227.409 181.84 226.172 182.227C225.938 182.301 225.705 182.375 225.464 182.451C222.974 182.967 220.717 181.553 218.555 180.469C218.352 180.368 218.15 180.268 217.942 180.164C217.141 179.764 216.34 179.363 215.541 178.96C210.559 176.455 205.519 175.263 200.043 174.371C199.845 174.339 199.647 174.306 199.444 174.273C190.544 172.821 181.584 177.382 174.332 182.374C173.762 182.765 173.762 182.765 173.437 183.105C173.405 183.72 173.394 184.337 173.39 184.952C173.389 185.145 173.387 185.338 173.386 185.537C173.381 186.179 173.379 186.821 173.378 187.463C173.376 187.91 173.374 188.356 173.373 188.803C173.37 189.742 173.368 190.681 173.367 191.619C173.365 192.817 173.358 194.014 173.35 195.212C173.344 196.136 173.343 197.06 173.343 197.984C173.342 198.425 173.339 198.866 173.335 199.307C173.31 202.373 173.41 204.981 175.36 207.477C175.563 207.743 175.766 208.01 175.976 208.285C176.314 208.728 176.314 208.728 176.66 209.18C177.196 209.914 177.725 210.654 178.253 211.395C178.445 211.662 178.445 211.662 178.641 211.935C179.675 213.379 180.039 214.105 179.883 215.918C179.268 216.738 178.92 217.052 177.902 217.235C177.436 217.233 177.436 217.233 176.961 217.232C176.608 217.234 176.255 217.236 175.891 217.238C175.51 217.233 175.129 217.229 174.736 217.225C174.338 217.224 173.941 217.224 173.543 217.224C172.708 217.223 171.873 217.218 171.039 217.21C169.978 217.201 168.917 217.198 167.856 217.199C167.033 217.198 166.21 217.195 165.387 217.191C164.809 217.188 164.23 217.187 163.651 217.186C157.707 217.124 157.707 217.124 155.514 215.598C153.49 213.479 152.504 209.939 151.615 207.224C151.283 206.211 150.941 205.202 150.601 204.192C150.53 203.981 150.458 203.769 150.385 203.552C149.446 200.769 148.436 198.012 147.43 195.253C144.726 187.836 144.726 187.836 144.726 186.914C141.222 186.946 137.717 186.979 134.212 187.013C132.585 187.03 130.957 187.045 129.329 187.06C127.754 187.074 126.179 187.089 124.605 187.105C124.008 187.111 123.411 187.117 122.814 187.122C120.003 187.146 117.191 187.179 114.382 187.303C114.181 187.309 113.981 187.315 113.775 187.322C111.86 187.423 110.868 188.232 109.57 189.551C109.342 189.734 109.114 189.916 108.879 190.105C106.994 191.62 105.743 193.211 105.33 195.638C105.02 201.566 109.23 207.243 112.44 211.872C113.335 213.195 114.028 214.259 113.965 215.918C113.389 216.652 113.029 217.038 112.108 217.24C111.854 217.242 111.6 217.244 111.338 217.246C111.044 217.251 110.751 217.256 110.449 217.261C110.129 217.26 109.81 217.26 109.48 217.259C109.142 217.263 108.803 217.267 108.455 217.271C107.333 217.283 106.211 217.286 105.089 217.289C104.307 217.295 103.525 217.301 102.743 217.308C101.101 217.321 99.4586 217.33 97.8163 217.336C95.9292 217.342 94.0421 217.355 92.155 217.372C90.3308 217.387 88.5066 217.4 86.6823 217.41C85.911 217.415 85.1397 217.42 84.3684 217.426C72.8897 217.511 72.8897 217.511 70.9862 215.816C69.422 213.827 68.7885 211.405 68.2615 208.978C68.152 208.493 68.152 208.493 68.0402 207.997C67.3791 204.971 66.8889 201.921 66.4522 198.855C66.1461 196.788 65.7148 194.887 64.9903 192.924C64.2102 190.573 64.9806 188.253 66.0162 186.1C67.1355 184.066 68.5028 182.287 69.9935 180.517C71.5683 178.628 71.9117 177.218 71.8699 174.75C71.6141 171.937 70.371 169.349 68.7731 167.049C67.0053 164.467 66.2982 161.295 65.5333 158.295C65.483 158.098 65.4328 157.901 65.381 157.699C65.1492 156.751 65.0389 155.965 65.0389 154.98C64.8251 155.083 64.6114 155.185 64.3911 155.291C62.3083 156.198 60.7848 156.506 58.5386 156.482C57.0788 156.486 56.2294 156.535 55.031 157.428C54.2685 158.271 54.2685 158.271 53.6543 159.152C52.542 160.587 51.2517 161.24 49.5115 161.664C49.2215 161.738 48.9315 161.813 48.6326 161.889C47.6551 162.025 46.9477 161.976 45.9959 161.719C45.3964 161.255 45.1477 161 45.0034 160.248C45.0018 160.022 45.0003 159.796 44.9986 159.563C44.9931 159.177 44.9931 159.177 44.9874 158.783C44.9882 158.505 44.9891 158.227 44.99 157.94C44.9884 157.651 44.9869 157.362 44.9853 157.065C44.9834 156.451 44.9838 155.838 44.9863 155.225C44.9888 154.298 44.9804 153.372 44.9711 152.446C44.9537 147.492 45.5139 143.601 48.9988 139.838C51.3986 137.574 54.723 135.936 58.0626 135.828C61.1836 136.135 63.6929 136.949 66.2108 138.867C66.3342 138.62 66.3342 138.62 66.4601 138.367C68.6955 133.918 71.0127 129.94 74.4402 126.295C75.0116 125.695 75.0116 125.695 75.477 125.018C75.6096 124.851 75.7421 124.684 75.8787 124.512C76.0721 124.512 76.2654 124.512 76.4647 124.512C76.4647 124.318 76.4647 124.125 76.4647 123.926C85.0536 115.784 97.1119 111.935 108.737 111.227C111.837 111.026 113.664 110.574 116.015 108.398C116.383 108.085 116.751 107.773 117.121 107.462C118.129 106.613 119.125 105.751 120.117 104.883C120.024 104.706 119.931 104.529 119.835 104.347C119.502 103.65 119.365 103.006 119.238 102.246C120.648 100.931 122.08 99.9807 123.797 99.1149C124.011 99.0045 124.225 98.894 124.445 98.7802C124.86 98.5661 125.276 98.3536 125.693 98.1429C126.219 97.8769 126.743 97.6053 127.266 97.3331C128.027 96.9726 128.027 96.9726 128.613 96.9726C128.462 96.817 128.31 96.6614 128.154 96.5011C127.961 96.2942 127.768 96.0872 127.569 95.874C127.376 95.67 127.182 95.4661 126.982 95.256C126.562 94.6289 126.562 94.6289 126.536 94.02C127.032 93.145 127.697 92.9676 128.613 92.5781C129.426 92.4112 130.208 92.2766 131.028 92.1718C131.253 92.1405 131.478 92.1093 131.71 92.0771C132.423 91.9787 133.136 91.8846 133.85 91.7907C134.336 91.7244 134.822 91.6579 135.308 91.591C136.494 91.4285 137.68 91.2698 138.867 91.1132C138.948 90.1802 138.948 90.1802 138.281 89.3554C138.244 88.5681 138.244 88.5681 138.281 87.8906C140.024 87.3861 141.562 87.2211 143.371 87.2497C143.622 87.2516 143.873 87.2535 144.132 87.2554C146.678 87.2853 149.217 87.4258 151.758 87.5976C151.662 87.3786 151.567 87.1595 151.468 86.9339C151.102 85.9439 151.111 85.1295 151.172 84.082C151.465 83.789 151.465 83.789 152.6 83.6975C156.698 83.7502 160.653 85.0584 164.355 86.7187C164.348 86.514 164.342 86.3093 164.335 86.0984C164.329 85.8318 164.324 85.5652 164.319 85.2905C164.312 85.0254 164.305 84.7603 164.298 84.4871C164.387 83.3965 164.74 83.2265 165.796 83.1035ZM128.697 104.451C128.056 105.144 127.597 105.813 127.148 106.641C130.026 105.954 132.782 104.928 135.563 103.934C140.518 102.169 145.453 100.495 150.586 99.3164C150.804 99.2653 151.022 99.2143 151.247 99.1617C158.792 97.4427 167.097 97.219 174.736 98.3093C175.779 98.4372 176.782 98.4591 177.832 98.4375C178.025 97.374 178.219 96.3105 178.418 95.2148C164.926 85.5008 139.556 94.3251 128.697 104.451ZM202.862 95.3613C202.59 95.5183 202.59 95.5183 202.313 95.6785C199.344 97.3089 199.344 97.3089 197.461 99.9023C197.796 101.872 198.177 103.932 199.721 105.289C201.151 106.082 201.151 106.082 202.734 106.348C203.152 104.731 203.57 103.115 203.986 101.498C204.128 100.948 204.27 100.398 204.412 99.8477C204.616 99.0581 204.82 98.2683 205.023 97.4784C205.087 97.2315 205.151 96.9846 205.217 96.7303C205.543 95.5485 205.543 95.5485 205.664 94.3359C204.53 94.3359 203.815 94.8079 202.862 95.3613ZM184.57 91.6992C184.55 91.8683 184.529 92.0375 184.508 92.2118C184.123 95.3375 183.709 98.4226 182.917 101.475C181.784 105.875 181.732 110.226 183.984 114.258C185.251 116.157 186.676 117.806 188.672 118.945C189.09 119.781 189.056 120.362 188.965 121.289C188.397 122.272 188.063 122.673 186.968 123.001C185.215 123.087 184.081 121.797 182.812 120.703C179.034 117.278 177.37 112.535 177.084 107.53C177.027 106.355 176.987 105.18 176.953 104.004C167.577 102.235 155.359 102.209 146.484 106.055C146.451 115.328 146.425 124.601 146.409 133.875C146.408 134.969 146.406 136.063 146.404 137.158C146.403 137.375 146.403 137.593 146.403 137.818C146.396 141.347 146.385 144.877 146.371 148.406C146.357 152.027 146.349 155.647 146.346 159.268C146.344 161.503 146.338 163.738 146.326 165.972C146.317 167.685 146.317 169.397 146.319 171.109C146.318 171.813 146.315 172.516 146.31 173.22C146.302 174.178 146.304 175.135 146.308 176.094C146.302 176.514 146.302 176.514 146.295 176.943C146.285 178.505 146.285 178.505 147.2 179.717C147.447 179.868 147.694 180.02 147.949 180.176C148.388 181.056 148.388 181.056 148.763 182.13C148.834 182.332 148.906 182.534 148.979 182.742C149.227 183.447 149.467 184.155 149.707 184.863C149.898 185.419 150.088 185.975 150.279 186.531C150.816 188.103 151.347 189.678 151.876 191.252C153.602 196.382 155.347 201.504 157.178 206.598C157.257 206.821 157.336 207.043 157.418 207.273C157.638 207.889 157.861 208.504 158.084 209.119C158.207 209.459 158.33 209.799 158.456 210.149C158.742 210.964 158.742 210.964 159.375 211.523C159.931 211.609 159.931 211.609 160.571 211.59C160.817 211.59 161.063 211.59 161.317 211.59C161.583 211.587 161.849 211.584 162.124 211.581C162.396 211.58 162.668 211.579 162.949 211.578C163.82 211.575 164.692 211.567 165.564 211.56C166.154 211.557 166.744 211.554 167.334 211.552C168.783 211.546 170.231 211.535 171.679 211.523C171.562 211.347 171.444 211.171 171.323 210.989C168.89 207.338 167.778 205.127 167.793 200.653C167.793 200.279 167.792 199.906 167.791 199.521C167.791 198.73 167.792 197.94 167.795 197.149C167.798 196.154 167.796 195.159 167.793 194.164C167.782 190.622 167.783 187.08 168.095 183.548C168.113 183.321 168.131 183.093 168.149 182.859C168.333 181.123 168.861 179.755 170.139 178.504C170.397 178.333 170.397 178.333 170.66 178.158C170.859 178.024 171.059 177.89 171.264 177.752C171.48 177.615 171.695 177.479 171.918 177.338C172.147 177.189 172.376 177.041 172.612 176.888C176.7 174.293 181.041 172.109 185.545 170.335C186.734 169.947 186.734 169.947 187.5 169.043C187.266 168.893 187.032 168.744 186.79 168.59C181.756 165.257 177.64 160.916 176.344 154.806C175.583 150.841 175.604 146.403 177.246 142.676C177.362 142.403 177.479 142.13 177.598 141.848C178.331 140.26 179.115 138.763 180.78 138.007C181.536 137.982 181.9 138.141 182.519 138.574C183.019 139.264 183.125 139.593 183.016 140.442C182.808 141.226 182.521 141.75 182.098 142.438C180.341 145.876 180.438 150.429 181.347 154.102C183.693 160.415 188.825 164.272 194.635 167.194C199.657 169.334 205.809 170.141 211.23 170.508C211.089 170.021 211.089 170.021 210.944 169.524C209.875 165.219 210.491 160.761 212.659 156.94C214.314 154.367 216.577 151.636 219.575 150.636C220.406 150.521 221.018 150.499 221.777 150.879C222.057 152.059 222.067 153.118 221.997 154.321C221.976 157.93 223.004 162.02 225.586 164.648C228.365 167.025 231.351 167.576 234.917 167.35C239.116 166.919 242.64 165.45 245.508 162.305C247.698 159.423 247.698 159.423 248.73 156.152C248.561 156.133 248.392 156.114 248.218 156.095C240.915 155.252 234.667 153.592 229.101 148.535C228.816 148.288 228.531 148.041 228.237 147.787C224.698 144.688 221.898 141.105 219.433 137.109C219.272 136.851 219.112 136.593 218.946 136.328C217.651 134.191 216.698 132.023 215.808 129.694C212.651 121.733 207.948 116.193 200.683 111.621C200.417 111.448 200.15 111.276 199.875 111.098C199.214 110.672 199.214 110.672 198.34 110.742C198.244 111.07 198.149 111.399 198.05 111.737C197.921 112.168 197.792 112.6 197.662 113.031C197.6 113.247 197.537 113.463 197.473 113.686C197.378 113.999 197.378 113.999 197.281 114.318C197.196 114.606 197.196 114.606 197.109 114.9C196.834 115.523 196.516 115.872 195.996 116.309C194.982 116.517 193.995 116.48 193.066 116.016C192.268 114.418 192.86 112.595 193.213 110.944C194.216 106.161 193.391 101.74 190.782 97.6146C189.158 95.2627 187.237 93.2997 184.863 91.6992C184.766 91.6992 184.67 91.6992 184.57 91.6992ZM138.114 108.771C137.713 108.917 137.312 109.062 136.911 109.207C136.699 109.284 136.486 109.361 136.268 109.441C132.53 110.796 128.773 112.072 124.969 113.232C124.779 113.291 124.59 113.35 124.394 113.411C118.438 115.25 112.347 116.142 106.188 117.019C95.8376 118.501 87.1014 121.658 79.3943 128.906C79.218 129.064 79.0416 129.221 78.8599 129.383C73.468 134.398 70.5637 141.612 70.0193 148.828C69.9914 149.141 69.9635 149.454 69.9347 149.777C69.8251 152.137 70.228 154.354 70.6785 156.665C70.7384 156.974 70.7983 157.282 70.86 157.6C71.4475 160.422 72.3099 162.822 73.9744 165.179C75.24 167.054 75.9457 168.883 76.4647 171.094C76.5627 171.462 76.5627 171.462 76.6626 171.839C77.6317 175.88 77.1215 179.375 74.9815 182.904C73.8419 184.622 72.558 186.226 71.2668 187.831C70.1179 189.292 70.118 190.364 70.3123 192.187C70.5051 192.94 70.7102 193.678 70.9349 194.421C71.8238 197.363 72.3524 200.362 72.8811 203.383C73.3713 207.729 73.3713 207.729 74.9998 211.523C75.8661 211.549 76.7256 211.557 77.5919 211.552C77.8516 211.552 78.1113 211.551 78.3789 211.551C79.2118 211.549 80.0446 211.545 80.8775 211.542C81.4407 211.54 82.004 211.539 82.5672 211.538C83.951 211.534 85.3348 211.529 86.7186 211.523C86.2976 209.435 86.2976 209.435 85.5089 207.463C85.3932 207.227 85.2774 206.991 85.1582 206.748C84.9789 206.393 84.9789 206.393 84.796 206.03C84.556 205.55 84.3175 205.07 84.0807 204.588C83.9229 204.275 83.9229 204.275 83.7619 203.956C83.0233 202.191 83.1286 200.311 83.1114 198.431C83.1029 198.127 83.0944 197.823 83.0856 197.51C83.0648 194.954 83.5943 193.075 85.0042 190.942C86.1142 189.872 87.3318 189.152 88.6595 188.379C93.1507 185.678 97.3181 182.665 101.074 179.004C101.451 178.659 101.451 178.659 101.835 178.308C106.434 173.986 109.904 167.565 110.193 161.195C110.367 156.201 110.367 156.201 109.469 151.323C109.238 150.437 109.168 149.739 109.277 148.828C109.982 148.077 110.415 147.953 111.446 147.834C111.848 147.827 112.251 147.825 112.654 147.827C112.874 147.825 113.095 147.822 113.323 147.82C114.054 147.812 114.786 147.811 115.518 147.81C116.032 147.805 116.546 147.801 117.06 147.796C118.419 147.783 119.778 147.776 121.137 147.77C123.292 147.76 125.447 147.741 127.601 147.724C128.344 147.718 129.086 147.715 129.828 147.712C133.537 147.688 137.204 147.525 140.918 147.363C140.918 134.408 140.918 121.453 140.918 108.105C139.848 108.105 139.12 108.403 138.114 108.771ZM51.2144 144.635C49.8118 147.198 49.687 149.648 49.7496 152.527C49.7535 152.877 49.7575 153.227 49.7616 153.588C49.7718 154.443 49.7862 155.297 49.8045 156.152C50.8267 155.674 51.4207 155.158 52.1666 154.303C52.3633 154.08 52.5601 153.858 52.7628 153.629C53.3423 152.939 53.3423 152.939 53.7767 152.127C54.199 151.465 54.199 151.465 55.0779 151.208C55.9568 151.172 55.9568 151.172 56.8358 151.465C59.0871 151.699 61.2251 150.979 63.0064 149.597C64.065 148.163 64.3732 146.786 64.16 145.019C63.4025 143.217 62.4016 142.303 60.6443 141.504C57.053 140.445 53.5272 141.794 51.2144 144.635ZM114.844 152.93C114.94 153.993 115.037 155.057 115.137 156.152C115.576 165.168 113.471 172.682 107.682 179.724C106.898 180.572 106.898 180.572 106.64 181.641C109.222 181.65 111.804 181.656 114.386 181.659C114.678 181.659 114.678 181.659 114.975 181.66C123.626 181.669 132.268 181.522 140.918 181.348C140.918 171.97 140.918 162.592 140.918 152.93C132.313 152.93 123.709 152.93 114.844 152.93ZM217.09 159.375C215.774 162.373 214.997 165.737 216.152 168.915C217.765 172.193 220.254 174.655 223.705 175.901C225.491 176.337 226.946 175.805 228.515 174.902C227.29 173.89 226.006 173.06 224.653 172.23C221.288 169.985 219.19 166.798 218.262 162.891C218.095 162.021 217.943 161.155 217.82 160.278C217.748 159.976 217.748 159.976 217.676 159.668C217.482 159.571 217.289 159.475 217.09 159.375ZM97.2918 188.782C95.8547 189.898 94.3254 190.894 92.8239 191.92C90.4942 193.433 90.4942 193.433 89.0623 195.703C88.5312 200.96 90.3466 206.226 92.5779 210.937C93.0908 211.569 93.0908 211.569 93.7015 211.594C93.9188 211.593 94.1361 211.591 94.3599 211.59C94.6062 211.59 94.8525 211.59 95.1063 211.59C95.3724 211.587 95.6386 211.584 95.9127 211.581C96.185 211.58 96.4573 211.579 96.7379 211.578C97.6096 211.575 98.4812 211.567 99.3528 211.56C99.943 211.557 100.533 211.554 101.123 211.552C102.572 211.546 104.02 211.535 105.469 211.523C105.024 210.113 104.424 208.941 103.638 207.696C100.883 203.179 99.1057 198.744 100.195 193.359C100.995 190.906 102.467 188.992 104.182 187.101C104.621 186.689 104.621 186.689 104.59 186.328C101.368 185.846 99.6835 186.855 97.2918 188.782Z" fill="black"/>
<path d="M206.778 129.018C208.378 130.194 209.117 131.973 209.473 133.886C209.703 136.801 209.703 136.801 209.082 137.634C208.462 138.084 207.95 138.164 207.191 138.125C203.598 137.363 200.794 134.62 198.622 131.813C198.259 131.086 198.247 130.587 198.341 129.785C200.663 127.394 204.02 127.485 206.778 129.018Z" fill="black"/>
</svg>
