<svg width="300" height="300" viewBox="0 0 300 300" fill="none" xmlns="http://www.w3.org/2000/svg">
<path d="M164.941 137.402C171.194 137.382 177.446 137.366 183.698 137.357C186.601 137.352 189.504 137.346 192.407 137.336C194.938 137.327 197.469 137.321 200.001 137.32C201.34 137.318 202.68 137.316 204.019 137.309C205.282 137.303 206.544 137.301 207.806 137.303C208.268 137.303 208.73 137.301 209.192 137.297C212.997 137.271 216.04 137.563 218.848 140.332C222.645 144.897 221.524 152.228 221.513 157.734C221.512 158.51 221.512 159.285 221.512 160.061C221.511 161.884 221.508 163.707 221.505 165.53C221.502 167.608 221.501 169.686 221.499 171.764C221.496 176.033 221.491 180.301 221.484 184.57C221.713 184.659 221.942 184.748 222.178 184.84C222.918 185.143 223.521 185.488 224.184 185.931C224.409 186.081 224.635 186.231 224.867 186.386C225.214 186.62 225.214 186.62 225.568 186.859C225.798 187.012 226.028 187.165 226.265 187.322C226.924 187.763 227.575 188.214 228.223 188.672C228.478 188.849 228.478 188.849 228.739 189.029C230.151 190.089 230.998 191.453 231.261 193.2C231.304 194.022 231.311 194.836 231.304 195.659C231.307 196.124 231.307 196.124 231.31 196.598C231.315 197.617 231.312 198.635 231.308 199.653C231.309 200.363 231.31 201.073 231.311 201.783C231.313 203.267 231.311 204.752 231.305 206.236C231.298 208.14 231.302 210.044 231.309 211.948C231.314 213.412 231.312 214.877 231.309 216.341C231.308 217.043 231.309 217.745 231.312 218.448C231.315 219.427 231.311 220.407 231.304 221.387C231.306 221.677 231.309 221.968 231.311 222.268C231.287 224.216 231.287 224.216 230.648 225.152C229.188 226.1 227.97 226.256 226.252 226.238C225.917 226.238 225.917 226.238 225.576 226.239C224.842 226.238 224.108 226.234 223.374 226.229C222.864 226.228 222.353 226.227 221.843 226.226C220.503 226.224 219.162 226.218 217.822 226.212C216.453 226.206 215.084 226.203 213.716 226.2C211.032 226.194 208.348 226.184 205.664 226.172C205.598 225.482 205.538 224.793 205.481 224.103C205.447 223.719 205.413 223.334 205.378 222.939C205.368 221.261 205.573 220.128 206.744 218.902C209.021 217.399 211.466 217.566 214.106 217.51C214.542 217.497 214.542 217.497 214.988 217.483C215.251 217.478 215.514 217.472 215.785 217.467C216.6 217.371 217.02 217.295 217.676 216.797C218.544 215.247 218.682 213.956 218.661 212.203C218.661 211.965 218.661 211.727 218.662 211.482C218.661 210.981 218.658 210.48 218.653 209.98C218.646 209.22 218.647 208.461 218.649 207.702C218.647 207.213 218.645 206.723 218.643 206.234C218.643 205.899 218.643 205.899 218.644 205.557C218.608 202.792 218.098 200.43 216.211 198.34C215.24 197.506 214.24 196.731 213.217 195.963C212.124 195.139 211.089 194.259 210.059 193.359C208.691 192.17 207.298 191.027 205.865 189.917C204.501 188.858 203.19 187.767 201.91 186.605C201.206 185.979 200.482 185.384 199.75 184.79C199.182 184.327 198.614 183.863 198.047 183.398C197.792 183.189 197.792 183.189 197.532 182.976C193.221 179.427 190.885 176.356 190.248 170.607C190.055 168.602 190.064 166.597 190.079 164.584C190.081 164.151 190.081 163.717 190.082 163.284C190.084 162.161 190.09 161.038 190.096 159.915C190.103 158.762 190.105 157.609 190.108 156.455C190.114 154.206 190.124 151.956 190.137 149.707C189.768 149.689 189.4 149.671 189.02 149.652C188.709 149.637 188.709 149.637 188.391 149.621C187.779 149.667 187.779 149.667 187.284 150.027C186.73 150.863 186.8 151.551 186.796 152.548C186.793 152.845 186.793 152.845 186.79 153.149C186.784 153.806 186.785 154.463 186.787 155.121C186.786 155.582 186.784 156.042 186.782 156.502C186.78 157.471 186.78 158.439 186.783 159.407C186.787 160.634 186.781 161.862 186.772 163.089C186.767 164.043 186.767 164.996 186.769 165.95C186.769 166.401 186.767 166.853 186.763 167.304C186.734 171.45 187.567 175.091 188.965 179.004C188.523 179.01 188.523 179.01 188.072 179.017C179.835 179.111 179.835 179.111 171.68 180.176C171.43 180.224 171.18 180.272 170.922 180.322C165.912 181.326 160.963 182.933 156.395 185.24C156.13 185.343 156.13 185.343 155.859 185.449C155.666 185.352 155.473 185.256 155.273 185.156C155.373 184.659 155.373 184.659 155.474 184.152C155.519 183.929 155.563 183.706 155.609 183.476C155.712 182.962 155.815 182.448 155.918 181.934C156.215 180.447 156.513 178.96 156.81 177.473C157.41 174.474 158.01 171.476 158.609 168.477C158.945 166.799 159.281 165.121 159.616 163.443C159.683 163.112 159.749 162.78 159.817 162.439C160.579 158.629 161.341 154.819 162.099 151.008C162.358 149.71 162.617 148.412 162.876 147.113C163.069 146.141 163.262 145.168 163.455 144.196C163.57 143.62 163.685 143.045 163.799 142.47C163.848 142.222 163.897 141.975 163.947 141.72C164.016 141.377 164.016 141.377 164.086 141.026C164.124 140.834 164.163 140.641 164.202 140.442C164.427 139.423 164.686 138.414 164.941 137.402Z" fill="black"/>
<path d="M159.961 142.676C160.337 143.803 160.099 144.651 159.866 145.781C159.798 146.126 159.798 146.126 159.728 146.477C159.574 147.253 159.416 148.028 159.259 148.803C159.147 149.361 159.035 149.92 158.924 150.478C158.617 152.011 158.307 153.543 157.996 155.075C157.734 156.37 157.474 157.665 157.213 158.96C155.026 169.829 152.792 180.689 150.55 191.547C150.435 192.103 150.435 192.103 150.318 192.67C149.446 196.888 148.572 201.106 147.691 205.322C147.273 207.324 146.859 209.327 146.448 211.331C146.184 212.614 145.917 213.897 145.65 215.179C145.526 215.775 145.403 216.372 145.282 216.969C145.116 217.786 144.945 218.602 144.774 219.418C144.704 219.772 144.704 219.772 144.632 220.133C144.108 222.581 143.299 224.43 141.211 225.879C139.992 226.492 138.88 226.547 137.541 226.536C137.324 226.537 137.107 226.537 136.884 226.538C136.17 226.539 135.457 226.536 134.743 226.532C134.247 226.532 133.75 226.532 133.254 226.532C132.216 226.531 131.177 226.529 130.139 226.525C128.805 226.52 127.472 226.519 126.138 226.519C125.114 226.519 124.09 226.518 123.067 226.515C122.575 226.515 122.083 226.514 121.591 226.514C120.905 226.513 120.22 226.511 119.535 226.507C119.227 226.508 119.227 226.508 118.914 226.508C117.514 226.498 117.514 226.498 117.188 226.172C116.503 221.198 116.503 221.198 117.774 219.141C118.935 217.85 119.939 217.137 121.712 217.028C121.906 217.02 122.099 217.013 122.299 217.005C126.018 216.943 126.018 216.943 129.071 215.112C130.001 213.011 129.822 210.754 129.808 208.498C129.807 207.754 129.805 207.009 129.803 206.264C129.802 205.867 129.801 205.471 129.799 205.074C129.795 203.841 129.796 202.608 129.797 201.376C129.798 201.167 129.798 200.958 129.798 200.743C129.799 200.101 129.8 199.46 129.801 198.818C129.805 196.166 129.805 193.515 129.793 190.863C129.783 188.925 129.782 186.987 129.791 185.049C129.795 184.025 129.795 183.002 129.785 181.978C129.774 180.836 129.781 179.694 129.79 178.551C129.784 178.215 129.778 177.879 129.772 177.532C129.801 175.796 129.956 174.826 131.208 173.571C131.611 173.231 132.015 172.894 132.422 172.559C132.753 172.199 133.078 171.833 133.393 171.46C135.671 168.818 138.076 166.289 140.465 163.747C141.551 162.59 142.631 161.426 143.702 160.254C145.141 158.677 146.6 157.12 148.062 155.564C149.344 154.199 150.617 152.826 151.885 151.448C153.079 150.151 154.286 148.867 155.494 147.583C157.01 145.97 158.509 144.347 159.961 142.676Z" fill="black"/>
<path d="M86.7181 163.184C88.3271 164.789 88.3271 164.789 89.087 165.606C89.2436 165.775 89.4001 165.943 89.5614 166.116C89.8036 166.378 89.8036 166.378 90.0506 166.644C90.3049 166.919 90.3049 166.919 90.5644 167.199C91.7467 168.478 92.9097 169.77 94.0423 171.094C94.3024 171.397 94.5626 171.7 94.8228 172.002C95.581 172.886 96.3381 173.77 97.0949 174.654C97.8347 175.519 98.5752 176.382 99.3157 177.246C99.6087 177.588 99.9017 177.93 100.195 178.271C100.34 178.441 100.485 178.61 100.634 178.784C101.952 180.322 101.952 180.322 102.392 180.835C102.684 181.176 102.976 181.517 103.268 181.857C104.016 182.729 104.763 183.602 105.509 184.475C105.661 184.652 105.812 184.829 105.968 185.011C106.266 185.36 106.564 185.71 106.86 186.06C107.888 187.266 108.961 188.417 110.088 189.532C110.614 190.414 110.389 190.906 110.156 191.895C109.856 192.597 109.547 193.264 109.201 193.942C109.102 194.139 109.004 194.336 108.903 194.539C108.579 195.189 108.251 195.837 107.923 196.485C107.694 196.942 107.465 197.399 107.236 197.856C106.755 198.816 106.272 199.775 105.788 200.734C105.177 201.945 104.567 203.158 103.959 204.372C101.767 208.745 99.5674 213.113 97.2707 217.433C96.3496 219.169 95.4803 220.931 94.6099 222.693C94.2835 223.353 93.9566 224.013 93.6292 224.673C93.4898 224.955 93.3504 225.237 93.2068 225.528C92.8704 226.172 92.8704 226.172 92.5774 226.465C91.6818 226.495 90.793 226.506 89.8972 226.504C89.6194 226.504 89.3416 226.505 89.0554 226.505C88.142 226.505 87.2286 226.504 86.3152 226.501C86.0065 226.501 85.6977 226.501 85.3796 226.501C79.7672 226.495 74.1623 226.381 68.554 226.172C68.5221 225.335 68.499 224.5 68.4808 223.663C68.4709 223.429 68.4611 223.195 68.451 222.953C68.4229 221.232 68.7202 220.255 69.7259 218.848C71.4105 217.749 73.1566 217.644 75.1252 217.624C75.4791 217.617 75.8329 217.61 76.1975 217.603C76.9345 217.591 77.6715 217.581 78.4085 217.576C80.9734 217.517 82.6811 217.268 84.594 215.442C86.5447 212.781 86.5964 209.928 86.585 206.753C86.5876 206.277 86.5907 205.8 86.5942 205.323C86.6023 204.037 86.6034 202.751 86.6031 201.465C86.604 200.118 86.6115 198.771 86.6183 197.424C86.6302 194.877 86.6361 192.33 86.64 189.783C86.6446 186.881 86.6559 183.98 86.6677 181.079C86.6918 175.114 86.7077 169.149 86.7181 163.184Z" fill="black"/>
<path d="M185.157 182.52C185.4 182.525 185.643 182.53 185.893 182.535C186.716 182.555 187.539 182.582 188.361 182.611C188.625 182.618 188.889 182.624 189.161 182.631C191.441 182.725 192.768 183.424 194.532 184.863C194.919 185.065 195.309 185.262 195.704 185.449C195.717 188.116 195.728 190.782 195.734 193.449C195.737 194.687 195.741 195.926 195.748 197.164C195.754 198.361 195.758 199.558 195.759 200.754C195.76 201.209 195.763 201.664 195.766 202.119C195.808 208.362 195.808 208.362 193.946 210.645C193.307 211.268 192.633 211.848 191.958 212.432C190.423 213.8 189.161 215.206 187.98 216.89C185.196 220.84 181.782 225.476 176.776 226.486C169.569 227.636 161.912 226.855 154.688 226.172C154.664 225.329 154.647 224.488 154.633 223.645C154.626 223.408 154.618 223.171 154.611 222.927C154.593 221.44 154.73 220.425 155.567 219.141C157.123 217.889 158.429 217.651 160.378 217.614C160.679 217.606 160.979 217.597 161.289 217.589C161.913 217.574 162.537 217.561 163.161 217.55C166.309 217.477 166.309 217.477 169.005 216.019C169.544 215.422 170.029 214.806 170.508 214.16C170.672 213.946 170.836 213.731 171.005 213.51C171.512 212.835 172.009 212.153 172.504 211.469C173.957 209.475 175.434 207.506 176.957 205.566C177.499 204.839 177.959 204.1 178.419 203.32C178.316 203.137 178.213 202.953 178.107 202.764C177.961 202.504 177.816 202.244 177.666 201.976C177.501 201.683 177.337 201.39 177.168 201.088C176.802 200.433 176.435 199.778 176.069 199.124C175.111 197.413 174.152 195.702 173.193 193.992C172.923 193.51 172.923 193.51 172.647 193.019C172.305 192.409 171.963 191.799 171.621 191.189C171.306 190.627 170.992 190.065 170.679 189.503C170.357 188.926 170.032 188.349 169.706 187.774C169.545 187.487 169.384 187.199 169.218 186.903C169.072 186.644 168.926 186.386 168.775 186.12C168.458 185.449 168.458 185.449 168.458 184.57C173.991 183.107 179.415 182.382 185.157 182.52Z" fill="black"/>
<path d="M97.5591 90.5273C109.064 90.5273 120.569 90.5273 132.422 90.5273C132.712 92.9927 132.712 92.9927 133.008 95.5078C133.565 96.9576 133.565 96.9576 134.202 98.3723C134.849 100.625 134.022 103.119 133.442 105.327C133.33 105.764 133.33 105.764 133.216 106.21C132.972 107.16 132.725 108.109 132.477 109.058C132.307 109.718 132.137 110.378 131.967 111.039C131.526 112.747 131.083 114.454 130.639 116.161C130.375 117.176 130.111 118.19 129.847 119.205C128.855 123.026 127.858 126.845 126.856 130.664C125.718 130.425 125.197 130.005 124.347 129.199C123.312 128.238 122.263 127.319 121.161 126.434C120.897 126.217 120.633 126 120.36 125.776C119.782 125.303 119.199 124.836 118.612 124.373C118.317 124.129 118.023 123.885 117.719 123.633C117.449 123.415 117.179 123.198 116.901 122.974C116.069 121.84 116.181 120.892 116.309 119.531C117.175 119.286 118.042 119.042 118.909 118.799C119.156 118.729 119.402 118.659 119.656 118.587C119.893 118.521 120.129 118.455 120.372 118.387C120.59 118.325 120.807 118.264 121.032 118.201C121.583 118.066 121.583 118.066 122.168 118.066C122.168 114.779 122.168 111.492 122.168 108.105C122.942 108.202 123.715 108.299 124.512 108.398C126.193 108.267 127.633 107.766 128.907 106.641C129.955 105.23 130.274 103.829 130.188 102.087C129.93 100.391 129.266 99.1742 127.881 98.1445C126.342 97.2914 124.757 97.3437 123.047 97.5586C121.217 98.1349 120.057 99.5387 119.147 101.184C118.413 103.987 118.628 106.954 118.653 109.827C118.661 110.754 118.666 111.681 118.671 112.608C118.675 112.925 118.675 112.925 118.679 113.248C118.683 114.157 118.65 114.853 118.36 115.723C115.75 115.723 113.139 115.723 110.45 115.723C110.433 114.41 110.433 114.41 110.417 113.07C110.403 112.214 110.388 111.357 110.373 110.501C110.363 109.91 110.355 109.319 110.348 108.728C110.338 107.874 110.323 107.021 110.307 106.167C110.305 105.906 110.303 105.646 110.301 105.378C110.243 102.847 109.809 100.438 108.008 98.5565C106.736 97.4822 105.378 97.1064 103.725 97.1832C102.209 97.3916 100.967 97.8178 99.9395 98.9868C98.8163 100.639 98.4303 102.018 98.731 104.004C99.2029 105.441 99.8194 106.819 101.093 107.703C102.743 108.478 104.945 108.378 106.641 107.812C106.738 111.1 106.834 114.387 106.934 117.773C109.834 118.644 109.834 118.644 112.793 119.531C112.793 122.168 112.793 122.168 112.03 123.071C111.686 123.345 111.336 123.612 110.981 123.871C110.603 124.169 110.226 124.467 109.85 124.767C109.657 124.917 109.464 125.067 109.266 125.222C108.355 125.954 107.509 126.75 106.659 127.551C103 130.957 103 130.957 102.247 130.957C101.517 128.305 100.789 125.653 100.061 123.001C99.7227 121.769 99.3843 120.537 99.0453 119.304C98.2124 116.276 97.3843 113.246 96.5622 110.214C96.3917 109.587 96.2203 108.96 96.0487 108.333C95.746 107.225 95.4488 106.117 95.1524 105.008C95.0639 104.686 94.9754 104.364 94.8842 104.032C94.8066 103.738 94.7289 103.443 94.6489 103.14C94.5809 102.888 94.513 102.635 94.4429 102.375C94.219 100.871 94.8084 99.7574 95.4717 98.4375C96.6872 95.8665 97.1589 93.3287 97.5591 90.5273Z" fill="black"/>
<path d="M180.469 91.4062C183.122 93.7765 185.001 97.3002 185.311 100.804C185.573 102.425 186.542 103.586 187.5 104.883C187.783 105.275 188.066 105.668 188.348 106.06C188.824 106.723 189.302 107.384 189.783 108.043C191.199 109.987 192.56 111.966 193.905 113.96C194.055 114.182 194.205 114.404 194.361 114.633C194.493 114.83 194.625 115.026 194.761 115.229C195.126 115.763 195.126 115.763 195.703 116.309C196.616 116.369 197.503 116.394 198.417 116.393C198.839 116.396 198.839 116.396 199.27 116.399C199.883 116.403 200.497 116.405 201.11 116.407C202.082 116.409 203.053 116.415 204.025 116.422C206.091 116.436 208.157 116.446 210.223 116.455C212.61 116.466 214.997 116.478 217.384 116.495C218.339 116.501 219.294 116.503 220.249 116.506C220.84 116.509 221.43 116.513 222.02 116.517C222.416 116.517 222.416 116.517 222.819 116.517C224.903 116.537 227.188 116.644 228.9 117.957C229.08 118.087 229.26 118.218 229.446 118.353C231.479 120.607 231.325 123.106 231.308 125.965C231.309 126.421 231.31 126.877 231.311 127.333C231.313 128.286 231.31 129.239 231.305 130.192C231.298 131.406 231.302 132.62 231.309 133.834C231.313 134.775 231.312 135.716 231.309 136.658C231.308 137.105 231.309 137.552 231.312 138C231.328 141.28 231.049 144.143 228.724 146.639C227.489 147.701 226.333 148.242 224.707 148.242C224.388 147.604 224.332 147.152 224.257 146.445C224.232 146.209 224.206 145.973 224.18 145.73C224.154 145.484 224.129 145.237 224.103 144.983C224.063 144.61 224.063 144.61 224.022 144.229C223.956 143.614 223.892 142.998 223.828 142.383C224.118 142.189 224.408 141.996 224.707 141.797C224.847 140.969 224.847 140.969 224.833 139.982C224.842 139.41 224.842 139.41 224.851 138.827C224.853 138.409 224.855 137.992 224.857 137.574C224.862 137.148 224.867 136.722 224.873 136.296C224.887 135.173 224.895 134.051 224.903 132.929C224.912 131.784 224.925 130.639 224.939 129.494C224.964 127.248 224.983 125.001 225 122.754C224.623 122.756 224.245 122.758 223.857 122.76C220.301 122.778 216.744 122.791 213.188 122.799C211.36 122.804 209.532 122.81 207.703 122.82C205.939 122.83 204.174 122.835 202.409 122.837C201.736 122.839 201.063 122.842 200.391 122.847C199.447 122.853 198.504 122.854 197.561 122.854C197.283 122.857 197.006 122.86 196.72 122.863C194.198 122.852 192.585 122.188 190.722 120.41C190.222 119.761 189.765 119.128 189.318 118.445C189.193 118.258 189.067 118.071 188.938 117.879C188.535 117.277 188.137 116.674 187.738 116.071C187.462 115.657 187.185 115.243 186.908 114.829C186.368 114.023 185.83 113.215 185.292 112.408C184.315 110.944 183.316 109.496 182.31 108.052C179.654 104.221 178.022 100.53 178.877 95.7516C179.245 94.1996 179.663 92.7864 180.469 91.4062Z" fill="black"/>
<path d="M116.309 73.828C119.304 73.7393 122.298 73.6719 125.294 73.6306C126.686 73.6108 128.076 73.584 129.467 73.5406C130.812 73.499 132.157 73.4764 133.502 73.4666C134.013 73.4596 134.524 73.446 135.034 73.4253C139.226 73.2621 139.226 73.2621 140.821 74.6458C141.596 75.4281 142.272 76.2661 142.916 77.1586C143.431 77.8702 143.998 78.5373 144.562 79.2113C144.874 79.5993 144.874 79.5993 145.191 79.9952C146.047 81.0406 146.933 82.0575 147.821 83.0748C149.064 84.4998 150.271 85.9426 151.442 87.4281C152.485 88.7214 153.576 89.9729 154.66 91.231C155.537 92.2481 156.404 93.2727 157.269 94.2991C158.445 95.6918 159.632 97.0728 160.84 98.4373C160.743 98.6307 160.647 98.824 160.547 99.0233C153.199 99.0233 145.852 99.0233 138.281 99.0233C138.281 98.6365 138.281 98.2498 138.281 97.8514C138.878 97.4059 139.429 97.0544 140.076 96.6978C142.723 95.1477 144.788 93.6237 145.716 90.5638C146.138 88.5217 145.87 86.4228 144.727 84.6678C143.604 83.2484 142.396 82.5854 140.625 82.324C138.247 82.3679 136.443 82.9711 134.766 84.6678C134.526 85.0723 134.289 85.4786 134.055 85.8865C133.473 86.6704 133.173 86.968 132.22 87.2192C131.225 87.2879 130.255 87.2827 129.258 87.2507C128.897 87.2481 128.536 87.2455 128.164 87.2428C127.013 87.2316 125.864 87.204 124.713 87.1763C123.933 87.1657 123.154 87.1589 122.374 87.1517C120.953 87.1346 119.533 87.1152 118.113 87.082C117.828 87.0756 117.542 87.0692 117.248 87.0626C116.602 87.0115 116.602 87.0115 116.309 86.7186C116.282 86.3138 116.274 85.9077 116.276 85.502C116.276 85.1149 116.276 85.1149 116.276 84.72C116.278 84.2993 116.278 84.2993 116.28 83.8701C116.281 83.5844 116.281 83.2987 116.281 83.0044C116.283 82.0879 116.287 81.1714 116.29 80.255C116.292 79.6353 116.293 79.0156 116.294 78.3959C116.298 76.8732 116.303 75.3506 116.309 73.828Z" fill="black"/>
<path d="M95.2663 73.6178C95.7623 73.6209 96.2583 73.6231 96.7543 73.6245C98.0562 73.6306 99.3577 73.6493 100.659 73.6705C101.726 73.6857 102.792 73.6921 103.858 73.698C106.055 73.7104 108.253 73.7284 110.451 73.7626C110.757 73.7658 110.757 73.7658 111.07 73.7691C112.466 73.7945 112.466 73.7945 112.793 74.1213C112.822 74.5155 112.83 74.9112 112.831 75.3064C112.832 75.5576 112.833 75.8089 112.834 76.0677C112.833 76.4774 112.833 76.4774 112.832 76.8954C112.832 77.1739 112.832 77.4524 112.833 77.7393C112.833 78.3294 112.832 78.9195 112.831 79.5096C112.83 80.4163 112.831 81.3228 112.833 82.2295C112.833 82.8013 112.832 83.3731 112.832 83.9449C112.832 84.2181 112.833 84.4912 112.834 84.7726C112.832 85.1495 112.832 85.1495 112.831 85.534C112.831 85.7562 112.83 85.9785 112.83 86.2075C112.793 86.719 112.793 86.719 112.5 87.012C112.017 87.0531 111.532 87.0741 111.047 87.0871C110.737 87.0955 110.427 87.104 110.107 87.1128C108.682 87.1413 107.257 87.163 105.831 87.1789C105.08 87.1896 104.329 87.2056 103.577 87.227C102.495 87.2573 101.413 87.2703 100.33 87.2797C99.9958 87.2924 99.6613 87.3051 99.3166 87.3182C97.019 87.3128 97.019 87.3128 96.0254 86.4319C95.5111 85.7676 95.0728 85.0873 94.6289 84.3752C93.0126 82.9093 91.5326 82.3075 89.3555 82.3245C87.4464 82.5914 86.2016 83.172 85.0067 84.6934C83.9221 86.4889 83.8774 88.1829 84.082 90.2346C84.8248 93.214 86.3905 94.9088 88.9709 96.4602C89.2984 96.649 89.6258 96.8379 89.9632 97.0324C90.6614 97.4613 91.1658 97.8271 91.6992 98.4377C90.984 99.153 90.6032 99.0924 89.6274 99.0966C89.3182 99.0934 89.3182 99.0934 89.0028 99.0902C88.7856 99.0903 88.5683 99.0904 88.3445 99.0905C87.6248 99.09 86.9052 99.0855 86.1855 99.0809C85.6871 99.0798 85.1887 99.079 84.6904 99.0784C83.3774 99.0761 82.0645 99.0704 80.7516 99.0639C79.4123 99.0579 78.073 99.0552 76.7338 99.0523C74.1051 99.046 71.4764 99.036 68.8477 99.0237C69.3217 98.0251 69.8665 97.3258 70.6238 96.5151C71.5811 95.472 72.4995 94.4125 73.3887 93.3108C74.4471 92.0025 75.5534 90.7523 76.6869 89.5091C77.357 88.7549 77.9928 87.9808 78.6255 87.1951C79.7036 85.8615 80.8375 84.6001 82.0046 83.3456C83.1236 82.1358 84.1641 80.8728 85.1978 79.5893C86.0402 78.5653 86.9256 77.5848 87.8208 76.607C88.4648 75.9516 88.4648 75.9516 88.7482 75.3669C90.1635 73.0538 92.8826 73.5682 95.2663 73.6178Z" fill="black"/>
<path d="M130.664 137.988C140.139 137.988 149.613 137.988 159.375 137.988C158.83 139.079 158.421 139.583 157.562 140.405C156.529 141.397 155.586 142.437 154.65 143.517C153.737 144.555 152.783 145.555 151.831 146.558C150.193 148.29 148.569 150.033 146.962 151.793C143.82 155.234 140.64 158.641 137.45 162.037C137.264 162.236 137.077 162.435 136.884 162.64C136.513 163.035 136.141 163.431 135.769 163.827C134.341 165.349 132.934 166.889 131.536 168.439C131.345 168.638 131.154 168.838 130.957 169.043C130.86 169.043 130.764 169.043 130.664 169.043C130.664 158.795 130.664 148.547 130.664 137.988Z" fill="black"/>
<path d="M69.7266 138.281C79.0078 138.281 88.2891 138.281 97.8516 138.281C97.8516 148.723 97.8516 159.164 97.8516 169.922C96.6563 169.324 96.3018 168.953 95.5078 167.926C94.468 166.619 93.3886 165.375 92.2485 164.154C91.1369 162.963 90.0399 161.764 88.9744 160.531C88.3904 159.862 87.7925 159.207 87.1948 158.551C86.2892 157.549 85.4225 156.527 84.5764 155.475C83.2836 153.876 81.901 152.377 80.5 150.874C79.2389 149.521 78.0342 148.123 76.8345 146.716C76.5343 146.364 76.2341 146.012 75.9338 145.66C75.7831 145.484 75.6324 145.307 75.4771 145.125C74.3003 143.75 73.0889 142.414 71.8517 141.093C71.0818 140.206 70.4094 139.237 69.7266 138.281Z" fill="black"/>
<path d="M101.367 137.695C101.56 137.695 101.753 137.695 101.952 137.695C102.164 137.913 102.375 138.13 102.593 138.354C105.298 140.999 108.466 141.064 112.206 141.504C112.303 156.393 112.4 171.281 112.499 186.621C112.209 186.621 111.919 186.621 111.62 186.621C111.005 185.989 110.443 185.358 109.881 184.68C109.713 184.482 109.545 184.284 109.373 184.08C109.023 183.667 108.674 183.253 108.326 182.838C107.698 182.091 107.06 181.352 106.422 180.613C104.967 178.928 103.543 177.221 102.141 175.492C101.706 174.939 101.706 174.939 101.367 174.609C101.338 174.131 101.331 173.652 101.331 173.173C101.331 172.862 101.33 172.551 101.33 172.23C101.331 171.886 101.332 171.542 101.333 171.188C101.333 170.827 101.333 170.467 101.333 170.096C101.333 169.106 101.335 168.116 101.337 167.126C101.339 166.092 101.339 165.058 101.339 164.024C101.34 162.065 101.342 160.106 101.345 158.147C101.349 155.918 101.35 153.688 101.352 151.458C101.355 146.871 101.36 142.283 101.367 137.695Z" fill="black"/>
<path d="M126.855 137.988C127.261 143.695 127.275 149.41 127.309 155.129C127.32 156.903 127.335 158.676 127.363 160.45C127.391 162.181 127.405 163.911 127.41 165.642C127.414 166.297 127.423 166.952 127.436 167.606C127.548 173.335 127.548 173.335 125.889 175.392C125.442 175.827 124.983 176.251 124.512 176.66C124.104 177.097 123.7 177.537 123.301 177.982C122.912 178.391 122.522 178.799 122.131 179.205C120.384 181.032 118.641 182.859 117.096 184.863C116.851 185.153 116.851 185.153 116.602 185.449C116.408 185.449 116.215 185.449 116.016 185.449C116.016 170.947 116.016 156.445 116.016 141.504C118.626 141.214 118.626 141.214 121.289 140.918C122.504 140.574 125.995 137.988 126.855 137.988Z" fill="black"/>
<path d="M70.5946 120.374C70.8456 120.375 71.0965 120.376 71.3551 120.377C71.6181 120.377 71.881 120.377 72.1519 120.377C73.0254 120.377 73.8988 120.38 74.7723 120.382C75.3761 120.382 75.98 120.383 76.5839 120.383C78.1767 120.384 79.7694 120.387 81.3622 120.39C82.9862 120.393 84.6101 120.395 86.2341 120.396C89.423 120.399 92.6119 120.404 95.8008 120.41C96.7533 122.586 96.7533 122.586 97.0438 123.639C97.1302 123.948 97.1302 123.948 97.2184 124.264C97.2771 124.48 97.3357 124.695 97.3961 124.917C97.4592 125.145 97.5223 125.373 97.5873 125.607C97.7194 126.085 97.8508 126.563 97.9816 127.042C98.1812 127.772 98.383 128.501 98.5851 129.23C98.7138 129.697 98.8424 130.163 98.9708 130.63C99.0306 130.847 99.0904 131.063 99.152 131.287C99.4414 132.347 99.6865 133.394 99.9023 134.473C89.5576 134.473 79.2129 134.473 68.5547 134.473C68.5547 120.378 68.5547 120.378 70.5946 120.374Z" fill="black"/>
<path d="M160.84 120.41C160.84 125.051 160.84 129.692 160.84 134.473C150.398 134.473 139.957 134.473 129.199 134.473C130.518 129.2 130.518 129.2 130.998 127.341C131.049 127.146 131.099 126.951 131.151 126.75C131.306 126.151 131.461 125.551 131.616 124.951C131.724 124.535 131.831 124.119 131.939 123.703C132.197 122.703 132.456 121.703 132.715 120.703C135.82 120.665 138.924 120.627 142.029 120.589C143.471 120.571 144.913 120.554 146.355 120.536C147.749 120.518 149.143 120.501 150.538 120.484C151.067 120.478 151.596 120.471 152.125 120.465C152.872 120.455 153.62 120.446 154.367 120.437C154.687 120.433 154.687 120.433 155.014 120.429C156.956 120.406 158.897 120.41 160.84 120.41Z" fill="black"/>
<path d="M139.201 102.503C139.416 102.504 139.631 102.505 139.853 102.506C140.079 102.506 140.305 102.506 140.537 102.506C141.287 102.506 142.037 102.509 142.787 102.511C143.305 102.511 143.824 102.512 144.342 102.512C145.71 102.513 147.077 102.516 148.444 102.519C150.084 102.523 151.723 102.524 153.362 102.526C155.855 102.529 158.347 102.534 160.84 102.54C160.84 107.277 160.84 112.014 160.84 116.895C151.945 116.895 143.051 116.895 133.887 116.895C134.612 113.813 135.341 110.739 136.132 107.675C136.29 107.065 136.445 106.454 136.601 105.843C136.701 105.453 136.802 105.063 136.902 104.673C137.036 104.152 137.036 104.152 137.173 103.62C137.55 102.327 137.922 102.506 139.201 102.503Z" fill="black"/>
<path d="M72.4215 102.506C72.7262 102.506 72.7262 102.506 73.0371 102.506C73.7028 102.506 74.3686 102.508 75.0343 102.511C75.4982 102.511 75.962 102.512 76.4259 102.512C77.6425 102.513 78.8591 102.516 80.0757 102.519C81.3188 102.522 82.5619 102.523 83.8051 102.525C86.2412 102.528 88.6772 102.533 91.1133 102.539C91.7189 104.293 92.2502 106.053 92.7189 107.848C92.8146 108.211 92.8146 108.211 92.9122 108.581C93.0453 109.087 93.1779 109.593 93.3102 110.099C93.5134 110.876 93.7183 111.652 93.9234 112.429C94.053 112.922 94.1825 113.415 94.3119 113.909C94.3732 114.141 94.4346 114.373 94.4977 114.613C94.9219 116.241 94.9219 116.241 94.9219 116.895C86.2207 116.895 77.5195 116.895 68.5547 116.895C68.5547 112.254 68.5547 107.613 68.5547 102.832C69.9207 102.605 71.0545 102.504 72.4215 102.506Z" fill="black"/>
<path d="M187.141 85.8062C187.489 85.8061 187.489 85.8061 187.843 85.8061C188.609 85.8063 189.375 85.8085 190.14 85.8108C190.671 85.8114 191.202 85.8118 191.733 85.8121C193.13 85.8132 194.527 85.8161 195.924 85.8193C197.35 85.8223 198.776 85.8237 200.201 85.8251C202.999 85.8283 205.796 85.8333 208.594 85.8394C208.111 86.8496 207.537 87.6326 206.818 88.4945C206.465 88.9193 206.465 88.9193 206.105 89.3528C205.863 89.6436 205.621 89.9344 205.371 90.234C204.919 90.7891 204.467 91.3445 204.016 91.9002C203.589 92.4195 203.162 92.9383 202.734 93.4566C202.553 93.6783 202.372 93.9 202.185 94.1284C200.175 96.5203 198.134 97.8682 194.967 98.2277C192.187 98.3281 189.71 97.5471 187.627 95.6825C186.293 94.3171 185.388 92.7117 184.46 91.058C184.331 90.8281 184.202 90.5983 184.069 90.3614C183.466 89.2556 182.95 88.2845 182.812 87.0113C184.238 85.8808 185.37 85.7977 187.141 85.8062Z" fill="black"/>
<path d="M114.546 125.343C115.45 125.865 116.21 126.53 116.986 127.222C117.163 127.377 117.34 127.532 117.523 127.691C117.9 128.021 118.277 128.352 118.653 128.684C119.44 129.377 120.232 130.064 121.024 130.751C121.4 131.076 121.775 131.402 122.149 131.729C123.115 132.569 124.091 133.388 125.098 134.18C124.704 135.076 124.287 135.636 123.541 136.267C123.373 136.413 123.205 136.559 123.032 136.709C121.461 137.811 119.968 137.785 118.116 137.784C117.698 137.786 117.698 137.786 117.272 137.787C116.683 137.789 116.095 137.789 115.507 137.788C114.612 137.787 113.717 137.794 112.822 137.801C112.249 137.802 111.676 137.802 111.103 137.802C110.705 137.806 110.705 137.806 110.299 137.81C107.754 137.792 105.848 137.151 104.004 135.352C103.859 134.917 103.859 134.917 103.711 134.473C105.529 132.789 107.368 131.174 109.304 129.625C109.948 129.082 110.558 128.533 111.164 127.95C111.335 127.787 111.505 127.624 111.681 127.456C112.014 127.134 112.345 126.809 112.672 126.481C113.787 125.406 113.787 125.406 114.546 125.343Z" fill="black"/>
<path d="M125.977 179.883C126.073 179.883 126.17 179.883 126.27 179.883C126.27 183.46 126.27 187.037 126.27 190.723C123.079 190.723 119.889 190.723 116.602 190.723C117.098 189.729 117.358 189.318 118.121 188.599C118.826 187.914 119.496 187.221 120.135 186.475C121.373 185.035 122.68 183.661 123.985 182.283C124.244 182.007 124.244 182.007 124.508 181.726C124.664 181.562 124.82 181.397 124.98 181.228C125.45 180.716 125.45 180.716 125.977 179.883Z" fill="black"/>
<path d="M140.919 85.8398C141.779 86.2792 141.779 86.2792 142.384 87.0116C142.768 88.3687 142.819 89.2488 142.255 90.5456C140.955 92.8122 138.915 94.0308 136.524 94.9218C135.497 93.2942 135.781 91.2008 135.938 89.3554C136.292 88.0708 136.886 87.2604 137.769 86.2792C138.855 85.687 139.709 85.6051 140.919 85.8398Z" fill="black"/>
<path d="M90.5292 85.7007C91.5638 85.9482 92.2295 86.4942 92.8707 87.3052C94.0393 89.4087 93.8945 91.6948 93.7496 94.0434C93.6529 94.3335 93.5562 94.6235 93.4566 94.9224C91.0876 94.3149 88.9966 92.9036 87.6087 90.8837C87.0501 89.693 87.0182 88.5784 87.3043 87.3052C88.1439 85.9933 88.9479 85.5873 90.5292 85.7007Z" fill="black"/>
<path d="M105.469 100.781C106.018 101.111 106.018 101.111 106.348 101.66C106.496 102.826 106.543 103.446 105.835 104.407C104.803 105.152 104.803 105.152 104.004 105.176C102.344 104.492 102.344 104.492 101.953 103.711C101.862 102.869 101.862 102.869 101.953 101.953C103.071 100.575 103.756 100.362 105.469 100.781Z" fill="black"/>
<path d="M124.659 100.616C125.684 100.781 125.684 100.781 126.398 101.257C126.994 102.163 127.033 102.645 126.856 103.711C126.336 104.398 125.902 104.773 125.135 105.157C124.119 105.187 123.574 104.879 122.754 104.297C122.425 103.308 122.425 103.308 122.461 102.246C123.054 101.084 123.363 100.824 124.659 100.616Z" fill="black"/>
</svg>
