<svg width="300" height="300" viewBox="0 0 300 300" fill="none" xmlns="http://www.w3.org/2000/svg">
<path d="M188.488 75.7737C188.717 75.8853 188.945 75.9969 189.18 76.112C189.844 76.4649 189.844 76.4649 190.451 76.8761C192.338 78.1244 194.032 78.0791 196.251 77.9897C197.293 77.9496 198.334 77.938 199.376 77.9274C199.586 77.9251 199.796 77.9228 200.012 77.9204C205.451 77.8895 212.554 78.3791 217.384 81.1524C217.608 81.2785 217.832 81.4047 218.063 81.5346C220.025 82.7325 221.406 84.0832 222.111 86.3022C222.45 87.7907 222.476 89.2623 222.474 90.7837C222.474 91.0861 222.474 91.3885 222.474 91.7C222.433 94.6864 221.991 97.5759 221.477 100.512C221.429 100.803 221.382 101.093 221.333 101.392C221.24 101.954 221.139 102.515 221.03 103.074C220.666 105.389 221.35 106.687 222.584 108.618C222.94 109.213 223.294 109.81 223.647 110.407C223.915 110.857 223.915 110.857 224.189 111.317C228.272 118.328 230.816 126.236 232.325 134.18C232.369 134.406 232.413 134.632 232.458 134.865C232.75 136.389 232.994 137.916 233.204 139.453C233.234 139.676 233.265 139.898 233.297 140.127C235.491 156.903 231.994 173.791 224.122 188.672C224.011 188.882 223.901 189.092 223.787 189.309C221.234 194.13 218.203 198.519 214.747 202.734C214.611 202.901 214.474 203.068 214.334 203.24C212.6 205.35 210.773 207.35 208.851 209.29C208.66 209.483 208.469 209.677 208.272 209.877C208.094 210.054 207.915 210.231 207.732 210.413C207.573 210.571 207.414 210.729 207.251 210.892C206.837 211.231 206.837 211.231 206.251 211.231C206.251 211.424 206.251 211.617 206.251 211.816C205.384 212.621 204.441 213.336 203.513 214.068C203.04 214.444 202.573 214.826 202.107 215.21C197.699 218.804 192.835 221.794 187.794 224.414C187.583 224.524 187.373 224.634 187.156 224.748C180.814 228.019 173.963 230.263 166.993 231.738C166.719 231.796 166.445 231.854 166.162 231.914C160.126 233.154 153.821 233.779 147.657 233.496C147.384 233.484 147.111 233.472 146.83 233.46C135.02 232.882 123.734 230.133 113.087 225C112.861 224.892 112.635 224.784 112.402 224.672C106.468 221.794 100.959 218.017 95.948 213.739C95.7878 213.603 95.6276 213.466 95.4625 213.325C94.9889 212.921 94.5163 212.515 94.0437 212.109C93.633 211.759 93.633 211.759 93.214 211.402C92.8543 211.091 92.8543 211.091 92.4873 210.773C92.2769 210.591 92.0666 210.409 91.8498 210.222C91.407 209.766 91.407 209.766 91.407 209.18C91.2136 209.18 91.0202 209.18 90.821 209.18C90.821 208.986 90.821 208.793 90.821 208.594C90.6277 208.594 90.4343 208.594 90.2351 208.594C89.8323 208.194 89.8323 208.194 89.3562 207.623C88.5187 206.635 87.6572 205.678 86.7744 204.73C83.9844 201.662 81.6217 198.316 79.3952 194.824C79.2329 194.57 79.2329 194.57 79.0672 194.31C73.4983 185.493 69.7335 175.945 67.7314 165.71C67.6457 165.273 67.6457 165.273 67.5583 164.826C66.6743 160.029 66.3934 155.292 66.4131 150.421C66.4137 150.138 66.4143 149.855 66.415 149.564C66.4307 145.161 66.5809 140.864 67.3835 136.523C67.4386 136.218 67.4937 135.913 67.5505 135.599C69.4166 125.601 72.9784 115.029 78.767 106.583C79.4578 105.489 79.5071 104.825 79.2671 103.528C79.2006 103.122 79.1346 102.717 79.0691 102.311C79.0284 102.078 78.9878 101.844 78.9459 101.603C78.6868 100.045 78.4782 98.4787 78.2665 96.9131C78.1888 96.3466 78.1069 95.7806 78.0249 95.2147C77.5131 91.5281 76.9268 87.2829 79.0336 83.9699C82.1789 79.8492 88.2404 79.063 93.0423 78.3383C93.3728 78.3001 93.7032 78.262 94.0437 78.2227C94.2839 78.1941 94.5242 78.1654 94.7717 78.1359C96.4737 77.9604 98.1271 77.9315 99.8344 78.0247C105.307 78.2983 108.858 77.7461 113.666 74.9028C136.05 62.5558 166.253 64.8884 188.488 75.7737ZM91.4985 81.0791C91.2142 81.1251 90.9299 81.171 90.6369 81.2184C87.9336 81.7062 85.1905 82.4144 82.8742 83.9356C82.6137 84.1017 82.3531 84.2679 82.0846 84.4391C81.4228 84.9799 81.2086 85.3708 80.8601 86.1328C81.0204 86.168 81.1807 86.2032 81.3458 86.2394C88.3169 87.7869 95.5591 89.6869 100.489 95.2149C100.814 96.189 100.741 96.4454 100.507 97.4121C99.4497 102.881 100.574 107.974 102.54 113.086C103.821 112.646 104.161 111.831 104.774 110.669C109.108 102.749 115.289 97.1583 123.634 93.75C124.318 93.4595 125.001 93.1655 125.684 92.8711C120.446 86.2862 112.983 81.6097 104.591 80.5664C103.188 80.4899 101.784 80.4801 100.379 80.4749C100.18 80.4741 99.9806 80.4734 99.7753 80.4726C96.9805 80.4714 94.2634 80.6318 91.4985 81.0791ZM174.61 92.5782C174.984 93.3251 175.237 93.3486 176.005 93.6413C176.234 93.7315 176.464 93.8218 176.7 93.9148C176.947 94.0115 177.194 94.1082 177.448 94.2078C181.334 95.7912 184.482 97.8399 187.501 100.781C187.829 101.087 187.829 101.087 188.163 101.399C191.023 104.135 193.176 107.27 195.144 110.679C195.589 111.428 196.042 112.113 196.583 112.793C196.873 112.696 197.163 112.6 197.462 112.5C199.574 107.936 200.468 102.561 199.384 97.6319C199.12 96.0233 199.12 96.0233 199.524 95.1222C200.058 94.4759 200.614 93.9789 201.27 93.4571C201.495 93.2656 201.72 93.0741 201.951 92.8768C206.868 88.9844 213.116 87.3682 219.141 86.1328C217.958 83.9064 215.882 83.0337 213.557 82.2693C198.282 77.931 185.507 81.2813 174.61 92.5782ZM80.2741 88.7696C80.1647 91.603 80.499 94.3121 80.9333 97.1009C81.0013 97.5455 81.0692 97.9901 81.1372 98.4347C81.3034 99.5146 81.4742 100.594 81.6473 101.672C81.7295 102.187 81.81 102.702 81.8903 103.217C83.3049 112.155 87.2415 120.142 94.5804 125.729C95.1737 126.126 95.7667 126.504 96.3874 126.856C97.045 126.248 97.4667 125.686 97.8649 124.886C97.9678 124.68 98.0707 124.474 98.1767 124.262C98.2811 124.048 98.3856 123.835 98.4931 123.615C98.6549 123.292 98.6549 123.292 98.8199 122.964C99.4025 121.886 99.4025 121.886 99.6101 120.703C99.3623 120.579 99.1146 120.455 98.8594 120.327C94.6628 118.157 92.1833 115.729 90.5567 111.221C89.6103 108.088 89.3098 104.949 89.1823 101.693C88.963 96.3158 88.963 96.3158 86.4952 91.7439C84.6619 90.1449 82.5635 89.4762 80.2741 88.7696ZM213.396 91.808C210.868 94.7698 210.911 99.3164 210.645 103.015C210.29 107.932 209.619 112.757 206.251 116.602C206.036 116.862 206.036 116.862 205.817 117.128C204.314 118.805 202.383 119.718 200.391 120.703C200.897 122.052 201.537 123.32 202.186 124.603C202.349 124.929 202.349 124.929 202.517 125.261C202.784 125.793 203.053 126.324 203.321 126.856C204.927 126.013 206.199 125.041 207.514 123.798C207.705 123.617 207.897 123.437 208.094 123.251C214.058 117.503 216.743 110.522 218.262 102.539C218.33 102.191 218.398 101.844 218.468 101.486C219.271 97.328 220.004 93.3082 219.727 89.0625C217.439 89.0625 215.041 90.2156 213.396 91.808ZM130.079 91.4063C130.079 91.503 130.079 91.5996 130.079 91.6993C131.679 91.5779 133.277 91.4446 134.872 91.2667C135.213 91.2289 135.213 91.2289 135.561 91.1904C135.997 91.1415 136.434 91.0914 136.87 91.0396C142.274 90.4371 147.703 90.4904 153.132 90.5091C153.883 90.5105 154.634 90.5119 155.385 90.5131C157.203 90.5163 159.022 90.5211 160.841 90.5274C160.841 90.4307 160.841 90.334 160.841 90.2344C157.139 89.8845 153.441 89.8712 149.726 89.8682C149.403 89.8677 149.08 89.8672 148.748 89.8667C142.477 89.8661 136.227 90.0549 130.079 91.4063ZM160.841 90.5274C160.841 90.6241 160.841 90.7207 160.841 90.8203C161.904 90.8203 162.968 90.8203 164.063 90.8203C164.063 90.7237 164.063 90.627 164.063 90.5274C163 90.5274 161.936 90.5274 160.841 90.5274ZM164.063 90.8203C164.063 90.917 164.063 91.0137 164.063 91.1133C164.74 91.1133 165.417 91.1133 166.114 91.1133C166.114 91.0166 166.114 90.92 166.114 90.8203C165.437 90.8203 164.76 90.8203 164.063 90.8203ZM166.114 91.1133C166.114 91.21 166.114 91.3067 166.114 91.4063C166.694 91.4063 167.274 91.4063 167.872 91.4063C167.872 91.3096 167.872 91.2129 167.872 91.1133C167.292 91.1133 166.712 91.1133 166.114 91.1133ZM127.442 92.2852C128.747 92.1402 128.747 92.1402 130.079 91.9922C130.079 91.8955 130.079 91.7989 130.079 91.6993C128.916 91.6346 128.546 91.7334 127.442 92.2852ZM126.27 92.2852C127.442 92.5782 127.442 92.5782 127.442 92.5782L126.27 92.2852ZM156.446 105.176C156.291 105.313 156.136 105.45 155.977 105.591C152.424 109.135 151.874 115.82 150.995 120.502C150.765 121.704 150.515 122.806 150.001 123.926C149.474 123.135 149.311 122.786 149.129 121.9C149.081 121.671 149.033 121.442 148.984 121.206C148.909 120.835 148.909 120.835 148.832 120.457C148.721 119.929 148.609 119.4 148.498 118.872C148.325 118.043 148.153 117.214 147.983 116.384C147.027 111.744 146.122 107.532 142.527 104.184C140.431 102.825 138.25 102.688 135.81 102.722C135.347 102.727 135.347 102.727 134.875 102.731C125.988 102.905 117.832 106.122 111.518 112.459C109.459 114.623 107.764 117.09 106.055 119.531C105.916 119.729 105.776 119.927 105.632 120.131C98.2897 130.556 93.0738 144.148 95.2705 157.031C96.5117 163.38 99.2688 168.823 104.517 172.723C108.761 175.496 113.569 177.398 118.287 179.195C119.821 179.786 121.124 180.396 122.462 181.348C122.655 181.348 122.848 181.348 123.048 181.348C122.84 174.699 120.704 168.305 115.826 163.595C114.174 162.085 112.418 160.71 110.651 159.338C106.791 156.257 104.631 152.472 103.857 147.607C103.027 140.018 106.284 132.067 110.871 126.16C115.672 120.208 121.852 115.826 129.493 114.551C132.26 114.267 134.852 114.588 137.165 116.217C142.377 120.52 144.257 127.238 144.954 133.718C145.982 145.397 140.604 154.081 134.287 163.468C129.466 170.64 126.187 177.715 127.531 186.492C128.183 189.719 129.718 192.325 132.423 194.238C135.292 195.731 138.185 196.088 141.376 196.033C141.672 196.03 141.967 196.027 142.272 196.025C142.993 196.018 143.714 196.008 144.434 195.996C144.306 193.385 144.058 190.562 142.325 188.487C141.272 187.596 140.14 187.078 138.893 186.528C137.424 185.846 136.659 185.026 135.865 183.637C135.297 181.508 135.467 179.194 136.524 177.246C137.379 176.196 138.355 175.309 139.415 174.469C141.281 172.988 142.275 171.08 143.281 168.951C144.121 167.236 145.307 166.247 147.071 165.527C149.741 164.86 152.566 165.019 154.981 166.406C156.14 167.613 156.891 168.891 157.636 170.38C158.63 172.353 159.625 173.834 161.426 175.177C162.922 176.347 163.989 177.374 164.356 179.297C164.627 183.33 164.627 183.33 163.477 184.863C162.237 186.135 160.878 186.769 159.254 187.467C159.004 187.574 158.754 187.682 158.497 187.793C158.284 187.879 158.071 187.965 157.851 188.054C156.531 188.869 156.14 190.921 155.787 192.352C155.512 193.569 155.551 194.754 155.567 195.996C160.155 196.177 165.33 196.201 169.044 193.066C172.246 189.834 172.961 185.608 172.941 181.216C172.74 172.79 167.789 166.05 163.263 159.336C159.748 154.116 156.532 149.203 155.274 142.969C155.223 142.743 155.172 142.518 155.119 142.286C153.735 134.453 155.533 125.811 159.962 119.238C161.63 116.893 163.752 115.356 166.579 114.656C172.079 113.837 177.868 116.304 182.227 119.531C183.537 120.56 184.793 121.645 186.036 122.754C186.235 122.932 186.435 123.11 186.64 123.293C192.408 128.754 195.719 136.893 196.29 144.727C196.41 149.585 194.661 153.725 191.384 157.224C191.057 157.563 191.057 157.563 190.723 157.91C190.551 158.094 190.378 158.279 190.2 158.469C189.279 159.427 188.305 160.271 187.263 161.096C181.781 165.44 178.251 170.512 177.247 177.539C177.114 178.808 177.015 180.074 176.954 181.348C178.051 180.931 179.066 180.43 180.103 179.883C182.069 178.869 184.105 178.067 186.164 177.264C190.191 175.682 193.918 174.027 197.169 171.094C197.376 170.911 197.583 170.727 197.796 170.539C202.837 165.815 204.767 158.619 205.134 151.927C205.339 140.798 201.078 129.315 194.532 120.41C194.218 119.97 193.905 119.53 193.591 119.09C191.619 116.341 189.603 113.723 187.208 111.328C186.993 111.113 186.778 110.898 186.557 110.677C180.454 104.929 171.996 102.809 163.835 102.497C161.013 102.623 158.494 103.162 156.446 105.176ZM116.364 131.525C114.253 134.075 113.232 137.179 113.398 140.497C113.832 144.289 115.486 147.492 118.433 149.963C122.199 152.666 126.662 153.419 131.167 152.689C133.007 152.359 134.824 151.924 136.616 151.392C136.971 151.287 137.326 151.183 137.693 151.076C138.638 150.551 138.95 150.164 139.302 149.145C139.593 147.975 139.733 146.806 139.838 145.606C139.862 145.334 139.886 145.063 139.911 144.784C140.273 139.987 139.294 135.547 136.299 131.692C133.867 128.958 130.945 127.324 127.276 127.079C122.702 126.994 119.528 128.113 116.364 131.525ZM165.528 130.078C165.23 130.341 165.23 130.341 164.926 130.609C161.872 133.467 160.205 137.28 159.902 141.444C159.871 143.416 160.039 145.31 160.346 147.253C160.398 147.597 160.398 147.597 160.451 147.948C160.651 149.116 160.789 149.837 161.719 150.586C162.272 150.852 162.272 150.852 162.889 151.036C163.232 151.146 163.232 151.146 163.583 151.259C163.826 151.333 164.069 151.407 164.32 151.483C164.569 151.56 164.819 151.637 165.076 151.717C167.063 152.313 169.024 152.746 171.094 152.93C171.32 152.95 171.546 152.971 171.779 152.993C175.507 153.161 179.149 151.738 182.046 149.448C184.727 146.931 186.291 143.771 186.447 140.099C186.511 136.264 185.412 133.222 182.813 130.371C179.875 127.71 176.467 126.876 172.597 127.036C169.834 127.239 167.572 128.231 165.528 130.078ZM135.645 198.34C136.344 200.496 138.158 201.584 140.067 202.659C145.105 205.117 150.84 205.64 156.226 204C159.343 202.903 162.135 201.438 164.356 198.926C164.356 198.732 164.356 198.539 164.356 198.34C162.144 198.511 159.94 198.726 157.734 198.971C151.08 199.701 151.08 199.701 147.95 199.512C147.661 199.495 147.372 199.477 147.074 199.46C143.247 199.222 139.434 198.936 135.645 198.34Z" fill="black"/>
<path d="M177.538 132.715C179.584 134.179 180.945 135.836 181.64 138.281C181.963 141.486 181.543 143.769 179.516 146.265C177.664 148.256 175.51 149.405 172.778 149.524C170.143 149.467 167.675 148.364 165.82 146.484C164 143.943 163.577 141.972 163.769 138.867C164.168 136.487 165.503 134.471 167.442 133.048C170.594 131.1 174.247 130.796 177.538 132.715Z" fill="black"/>
<path d="M133.081 133.337C135.045 135.39 136.182 137.677 136.249 140.524C136.128 143.218 135.203 145.3 133.264 147.18C131.286 148.8 128.995 149.654 126.426 149.524C123.712 149.122 121.614 147.979 119.824 145.898C118.239 143.611 117.766 141.106 118.249 138.372C119.001 135.613 120.904 133.579 123.301 132.079C126.546 130.596 130.235 131.476 133.081 133.337Z" fill="black"/>
</svg>
