<svg width="300" height="300" viewBox="0 0 300 300" fill="none" xmlns="http://www.w3.org/2000/svg">
<path d="M198.45 30.0843C198.724 30.0733 198.998 30.0624 199.281 30.0511C200.405 30.2228 200.797 30.497 201.563 31.3477C201.774 32.3578 201.74 33.3511 201.716 34.3792C201.715 34.6746 201.713 34.97 201.712 35.2743C201.706 36.2178 201.689 37.1609 201.672 38.1043C201.668 38.7408 201.663 39.3772 201.66 40.0137C201.65 41.1779 201.64 42.342 201.619 43.506C201.613 43.8568 201.613 43.8568 201.608 44.2148C201.563 44.8242 201.563 44.8242 201.27 45.7032C203.397 45.7032 205.524 45.7032 207.715 45.7032C208.57 43.7792 208.57 43.7792 209.421 41.8534C211.527 37.1639 214.057 32.7846 218.848 30.4688C219.041 30.3721 219.234 30.2754 219.434 30.1758C220.006 30.1175 220.58 30.0842 221.155 30.0659C221.462 30.0516 221.77 30.0372 222.086 30.0225C222.949 30.1758 222.949 30.1758 223.579 30.7524C224.315 31.958 224.29 32.9014 224.277 34.2877C224.278 34.5439 224.279 34.8001 224.28 35.064C224.281 35.606 224.279 36.148 224.274 36.69C224.268 37.5086 224.274 38.3265 224.281 39.1451C224.289 43.6119 223.513 46.8741 220.698 50.4273C220.256 50.9447 220.256 50.9447 220.313 51.5625C220.741 51.9126 221.183 52.2452 221.631 52.5696C223.307 53.8841 225.275 55.6295 225.727 57.8076C225.747 58.0187 225.767 58.2298 225.787 58.4473C226.039 60.2603 227.696 61.1887 229.054 62.233C231.039 63.8275 231.039 63.8275 231.285 65.183C231.373 66.1128 231.417 67.0353 231.445 67.9688C231.458 68.2977 231.471 68.6267 231.484 68.9656C231.516 70.0007 231.528 71.0347 231.537 72.0703C231.545 72.4163 231.554 72.7622 231.563 73.1186C231.587 76.5103 230.806 79.9657 228.376 82.4787C226.835 83.8418 225.461 84.152 223.444 84.2652C222.893 84.298 222.893 84.298 222.33 84.3315C222.051 84.3459 221.772 84.3602 221.484 84.375C221.333 84.978 221.188 85.5826 221.045 86.1878C220.963 86.5243 220.882 86.8608 220.798 87.2074C220.269 90.0702 220.626 92.9364 221.195 95.7596C221.321 96.4199 221.447 97.0802 221.573 97.7405C221.639 98.0815 221.706 98.4225 221.774 98.7738C222.92 104.677 223.911 110.562 224.525 116.545C225.08 121.853 226.634 126.544 228.534 131.506C228.852 132.343 229.17 133.18 229.486 134.017C229.681 134.533 229.878 135.048 230.075 135.563C232.395 141.668 232.395 141.668 231.445 144.397C230.854 145.026 230.418 145.275 229.651 145.644C229.439 145.748 229.226 145.851 229.008 145.957C228.845 146.034 228.683 146.112 228.516 146.191C228.755 147.801 228.994 149.411 229.235 151.021C229.316 151.568 229.397 152.114 229.478 152.66C229.998 156.221 229.998 156.221 230.617 159.765C230.839 160.946 230.956 162.089 230.969 163.293C230.978 163.628 230.986 163.963 230.995 164.307C230.827 165.457 230.508 165.885 229.688 166.699C229.381 166.842 229.074 166.985 228.757 167.132C227.75 168.032 227.778 168.343 227.661 169.654C227.626 170.366 227.6 171.078 227.582 171.79C227.557 172.5 227.528 173.21 227.496 173.92C227.487 174.235 227.479 174.55 227.47 174.874C227.324 175.924 227.014 176.636 226.465 177.539C224.759 178.555 222.842 178.733 220.899 179.004C220.658 180.068 220.556 181.075 220.523 182.165C220.507 182.651 220.507 182.651 220.49 183.148C220.475 183.653 220.475 183.653 220.459 184.168C220.233 191.487 220.233 191.487 219.141 193.359C217.99 194.223 216.993 194.4 215.577 194.55C215.281 194.584 215.281 194.584 214.979 194.618C214.14 194.715 213.3 194.803 212.46 194.891C211.845 194.958 211.23 195.028 210.615 195.099C210.248 195.138 209.882 195.177 209.504 195.217C208.575 195.414 208.236 195.51 207.715 196.289C207.57 197.078 207.471 197.82 207.404 198.615C207.358 199.065 207.311 199.515 207.264 199.965C207.242 200.186 207.219 200.408 207.196 200.636C206.655 205.732 206.655 205.732 204.858 207.202C203.843 207.749 202.971 208.033 201.856 208.301C201.511 210.336 201.475 212.365 201.437 214.426C201.369 216.467 201.183 217.977 199.759 219.542C199.532 219.742 199.306 219.942 199.072 220.148C197.303 221.852 196.952 223.196 196.655 225.586C196.379 227.439 195.63 228.469 194.238 229.688C194.037 229.788 193.836 229.888 193.629 229.992C192.732 230.909 192.899 231.988 192.906 233.202C192.903 233.471 192.9 233.741 192.896 234.019C192.888 234.913 192.889 235.807 192.89 236.702C192.888 237.324 192.885 237.946 192.883 238.569C192.878 239.875 192.878 241.182 192.882 242.488C192.885 244.157 192.875 245.826 192.861 247.495C192.853 248.782 192.852 250.068 192.854 251.355C192.854 251.97 192.851 252.585 192.845 253.2C192.728 257.733 192.728 257.733 194.824 261.621C195.136 262.05 195.447 262.48 195.755 262.912C196.06 263.313 196.366 263.713 196.674 264.111C196.984 264.517 197.294 264.923 197.604 265.329C197.739 265.504 197.873 265.678 198.012 265.858C198.756 266.88 198.764 267.695 198.633 268.945C197.477 269.907 196.361 269.95 194.918 269.931C194.597 269.931 194.597 269.931 194.269 269.931C193.818 269.93 193.366 269.928 192.914 269.923C192.228 269.916 191.543 269.917 190.857 269.919C190.416 269.917 189.975 269.915 189.535 269.912C189.332 269.913 189.129 269.913 188.921 269.913C187.324 269.89 185.79 269.735 184.505 268.728C182.648 266.575 180.745 263.853 180.712 260.914C180.709 260.649 180.705 260.385 180.701 260.113C180.699 259.823 180.696 259.534 180.693 259.235C180.689 258.93 180.686 258.624 180.682 258.31C180.673 257.646 180.665 256.981 180.658 256.317C180.646 255.265 180.632 254.214 180.616 253.162C180.573 250.172 180.531 247.182 180.499 244.191C180.478 242.363 180.453 240.534 180.423 238.706C180.413 238.009 180.405 237.313 180.399 236.616C180.391 235.641 180.375 234.665 180.358 233.69C180.357 233.259 180.357 233.259 180.356 232.82C180.305 230.616 179.764 229.251 178.198 227.655C177.981 227.456 177.763 227.256 177.539 227.051C177.485 227.244 177.43 227.438 177.374 227.637C176.957 228.507 176.592 228.89 175.916 229.554C174.679 230.953 174.62 232.06 174.669 233.875C174.668 234.168 174.668 234.461 174.668 234.762C174.67 235.726 174.687 236.689 174.704 237.653C174.71 238.328 174.716 239.003 174.72 239.678C174.732 241.093 174.752 242.507 174.776 243.922C174.807 245.723 174.821 247.524 174.83 249.325C174.839 250.72 174.856 252.115 174.875 253.51C174.883 254.173 174.889 254.837 174.893 255.5C174.916 259.055 175.075 262.115 176.565 265.379C177.103 266.667 177.142 267.573 176.953 268.945C175.454 270.445 171.724 269.889 169.721 269.897C169.37 269.904 169.019 269.91 168.658 269.916C165.311 269.931 165.311 269.931 164.063 268.945C161.756 264.877 162.167 259.893 162.155 255.378C162.15 254.669 162.145 253.959 162.139 253.249C162.125 251.396 162.116 249.542 162.109 247.688C162.1 245.791 162.086 243.893 162.073 241.996C162.048 238.284 162.028 234.572 162.012 230.859C161.832 230.803 161.652 230.747 161.466 230.688C161.229 230.612 160.992 230.536 160.748 230.458C160.514 230.383 160.279 230.309 160.038 230.232C158.967 229.826 158.134 229.255 157.617 228.223C157.571 227.497 157.542 226.777 157.525 226.051C157.518 225.837 157.512 225.623 157.506 225.403C157.487 224.719 157.47 224.036 157.452 223.352C157.44 222.889 157.427 222.426 157.414 221.963C157.383 220.827 157.353 219.691 157.324 218.555C157.047 218.465 156.77 218.376 156.484 218.284C155.218 217.849 154.326 217.287 153.516 216.211C153.144 213.871 153.887 211.471 154.395 209.18C154.05 209.197 153.705 209.214 153.35 209.231C148.143 209.405 143.276 208.296 138.347 206.671C136.985 206.215 136.985 206.215 135.645 206.543C134.31 208.177 133.864 209.842 133.453 211.871C132.976 214.102 131.739 215.51 130.206 217.126C129.892 217.463 129.577 217.8 129.262 218.137C129.104 218.305 128.946 218.473 128.784 218.647C127.542 219.971 126.314 221.308 125.098 222.656C124.946 222.823 124.795 222.99 124.639 223.161C122.806 225.191 121.113 227.099 120.117 229.688C119.984 230.014 119.851 230.34 119.714 230.676C119.549 231.637 119.547 232.301 119.634 233.258C119.663 233.572 119.692 233.885 119.721 234.208C120.056 237.603 120.428 240.995 120.799 244.387C120.907 245.367 121.012 246.348 121.116 247.33C121.243 248.525 121.373 249.72 121.505 250.915C121.554 251.366 121.603 251.818 121.65 252.27C121.964 256.488 121.964 256.488 123.894 260.131C124.054 260.312 124.213 260.492 124.378 260.678C124.543 260.856 124.708 261.035 124.878 261.218C125.039 261.399 125.199 261.579 125.364 261.765C126.358 262.873 127.394 263.93 128.458 264.969C129.408 265.944 130.013 266.769 130.225 268.121C130.078 268.945 130.078 268.945 129.651 269.43C128.526 270.026 127.471 269.944 126.216 269.931C125.954 269.931 125.693 269.931 125.423 269.931C124.871 269.93 124.319 269.928 123.766 269.923C122.923 269.916 122.08 269.917 121.236 269.919C120.699 269.917 120.161 269.915 119.624 269.912C119.373 269.913 119.121 269.913 118.862 269.913C116.801 269.889 115.593 269.527 114.111 268.03C110.426 264.173 110.189 259.155 109.265 254.087C109.073 253.034 108.878 251.982 108.683 250.93C108.13 247.952 107.578 244.975 107.054 241.992C106.014 236.099 104.804 230.741 102.246 225.293C101.367 223.381 101.367 223.381 101.367 222.363C99.9569 223.108 98.9011 224.127 97.7601 225.22C97.3678 225.591 96.9753 225.962 96.5825 226.333C96.3961 226.509 96.2097 226.686 96.0176 226.867C95.4205 227.425 94.8096 227.965 94.1895 228.497C93.1116 229.428 92.0806 230.4 91.1134 231.445C90.9137 231.644 90.714 231.843 90.5083 232.048C89.7363 233.222 89.7662 234.131 89.7666 235.508C89.7622 235.767 89.7578 236.026 89.7533 236.292C89.7406 237.148 89.7369 238.003 89.7344 238.859C89.7298 239.457 89.7252 240.055 89.7204 240.654C89.7121 241.909 89.7087 243.165 89.7082 244.42C89.7067 246.018 89.6878 247.616 89.6642 249.214C89.6489 250.451 89.6457 251.688 89.6457 252.925C89.6438 253.514 89.6376 254.102 89.6269 254.691C89.5589 258.769 90.1722 261.257 92.5782 264.551C94.0572 267.076 94.0572 267.076 94.0064 268.524C93.7501 269.238 93.7501 269.238 93.4571 269.531C91.4177 269.95 89.3416 269.878 87.2681 269.879C86.8984 269.883 86.5287 269.886 86.1478 269.89C85.7916 269.891 85.4355 269.891 85.0686 269.892C84.7457 269.893 84.4227 269.894 84.09 269.895C82.4218 269.762 81.3653 269.107 80.2472 267.913C78.4187 265.542 77.2019 263.039 77.1328 260.019C77.1239 259.782 77.115 259.545 77.1058 259.301C76.9982 256.046 77.0146 252.789 77.0223 249.533C77.0228 248.838 77.0232 248.143 77.0235 247.448C77.0246 245.639 77.0275 243.829 77.0307 242.02C77.0338 240.166 77.0351 238.311 77.0366 236.457C77.0397 232.834 77.0447 229.21 77.0509 225.586C76.7921 225.568 76.5333 225.55 76.2667 225.532C75.9257 225.508 75.5848 225.483 75.2335 225.458C74.8962 225.434 74.5589 225.41 74.2113 225.386C71.2985 225.107 71.2985 225.107 70.6056 224.414C70.7633 221.91 71.3625 219.479 71.901 217.035C72.0023 216.57 72.1035 216.105 72.2045 215.641C72.4706 214.418 72.7382 213.196 73.0062 211.973C73.2732 210.755 73.5393 209.537 73.8053 208.319C73.8572 208.082 73.9092 207.844 73.9627 207.599C74.2204 206.418 74.4767 205.237 74.7301 204.056C74.8283 203.598 74.9265 203.141 75.0247 202.683C75.0721 202.462 75.1194 202.241 75.1683 202.013C75.468 200.622 75.7866 199.236 76.1153 197.851C76.264 197.196 76.4125 196.541 76.5611 195.886C76.6703 195.456 76.6703 195.456 76.7818 195.017C77.0992 193.573 77.1794 192.755 76.3674 191.48C76.2304 191.304 76.0934 191.129 75.9523 190.947C73.8307 187.949 75.5253 180.854 75.7615 177.485C75.8417 176.339 75.9195 175.194 75.9969 174.049C76.2254 170.706 76.4665 167.365 76.7785 164.028C76.8016 163.778 76.8247 163.528 76.8484 163.271C76.949 162.24 77.0752 161.254 77.3438 160.254C76.7819 160.154 76.7819 160.154 76.2086 160.053C74.0846 159.579 72.0388 158.711 70.6056 157.031C67.8563 151.407 67.9902 144.202 69.9725 138.4C71.0993 135.345 73.035 132.966 75.2931 130.664C75.4592 130.491 75.6254 130.317 75.7966 130.139C83.7343 122.544 95.2295 121.053 105.662 121.274C105.888 121.279 106.115 121.284 106.348 121.289C106.577 121.294 106.806 121.299 107.042 121.304C117.992 121.558 128.923 122.289 139.852 122.976C141.117 123.056 142.381 123.134 143.646 123.213C144.521 123.267 145.395 123.323 146.27 123.38C149.376 123.575 152.455 123.686 155.566 123.633C155.933 123.627 156.3 123.621 156.678 123.615C159.079 123.568 161.479 123.499 163.879 123.431C164.749 123.406 165.618 123.384 166.488 123.364C167.553 123.339 168.619 123.31 169.684 123.278C170.276 123.261 170.869 123.249 171.461 123.236C174.731 123.132 174.732 123.132 177.832 122.168C180.04 119.727 179.337 114.685 179.312 111.6C179.309 111.007 179.306 110.415 179.303 109.822C179.3 109.195 179.296 108.568 179.292 107.941C179.284 106.626 179.279 105.31 179.275 103.994C179.273 103.541 179.272 103.087 179.27 102.634C179.269 102.407 179.269 102.18 179.268 101.947C179.257 98.8912 179.244 95.8356 179.225 92.7801C179.212 90.708 179.203 88.6359 179.199 86.5637C179.196 85.4716 179.192 84.3796 179.182 83.2875C179.171 82.0693 179.17 80.8513 179.169 79.633C179.164 79.2783 179.159 78.9236 179.154 78.5581C179.165 75.4953 179.811 72.595 181.439 69.9646C181.615 69.6776 181.791 69.3906 181.971 69.0949C182.646 68.0697 183.359 67.0786 184.108 66.1068C185.262 64.173 185.577 62.2262 185.568 60.006C185.573 59.6315 185.573 59.6315 185.578 59.2494C185.588 58.4571 185.593 57.6649 185.596 56.8726C185.62 51.1518 186.142 45.8382 188.086 40.4297C188.201 40.1098 188.316 39.79 188.434 39.4604C189.224 37.4201 190.264 35.7112 191.602 33.9844C191.782 33.7378 191.963 33.4912 192.149 33.2371C192.836 32.4476 193.513 31.9682 194.403 31.4209C194.681 31.2472 194.96 31.0735 195.247 30.8945C196.342 30.2726 197.207 30.1166 198.45 30.0843ZM195.465 35.9688C191.35 40.1579 190.115 46.8205 189.844 52.4414C194.817 48.9298 194.817 48.9298 197.461 43.6524C197.485 42.9523 197.493 42.2517 197.49 41.5512C197.489 41.3513 197.489 41.1514 197.488 40.9454C197.487 40.3096 197.483 39.6739 197.479 39.0381C197.478 38.6059 197.477 38.1737 197.475 37.7415C197.472 36.6844 197.467 35.6274 197.461 34.5703C196.723 34.5703 195.979 35.5082 195.465 35.9688ZM217.882 36.1164C215.337 38.69 213.424 42.5467 212.402 45.9961C212.379 46.6197 212.379 46.6197 212.695 47.168C213.275 47.3803 213.862 47.5768 214.453 47.7539C215.065 46.5459 215.674 45.3371 216.282 44.1276C216.489 43.7171 216.696 43.3068 216.904 42.8968C217.204 42.3039 217.502 41.7102 217.801 41.1164C217.892 40.9362 217.984 40.7561 218.078 40.5704C219.415 37.9849 219.415 37.9849 219.727 35.1563C218.893 35.1563 218.49 35.5866 217.882 36.1164ZM191.583 57.3487C190.868 58.2572 190.631 58.9275 190.43 60.0586C195.107 60.4224 199.786 60.7496 204.467 61.0604C205.066 61.1003 205.665 61.1406 206.264 61.1812C207.12 61.2391 207.976 61.2956 208.832 61.3518C209.085 61.3692 209.338 61.3865 209.599 61.4044C210.921 61.4896 212.243 61.5447 213.568 61.5664C213.831 61.5708 214.095 61.5752 214.366 61.5798C215.097 61.5749 215.097 61.5749 215.784 61.0085C216.023 60.6652 216.023 60.6652 216.266 60.315C217.281 58.9842 218.346 58.0652 219.727 57.1289C217.692 54.9583 215.422 53.2944 212.805 51.8921C212.496 51.7246 212.496 51.7246 212.18 51.5537C204.834 47.7383 196.508 51.3206 191.583 57.3487ZM221.191 61.2305C220.824 61.5401 220.458 61.8518 220.093 62.1643C219.889 62.3377 219.685 62.511 219.475 62.6896C219.268 62.8849 219.061 63.0801 218.848 63.2813C218.645 63.4721 218.442 63.6629 218.232 63.8594C217.419 65.1556 217.508 66.3047 217.52 67.8063C217.519 68.1012 217.518 68.3962 217.517 68.7001C217.516 69.3221 217.518 69.9442 217.523 70.5662C217.529 71.5198 217.523 72.4728 217.516 73.4265C217.516 74.0311 217.518 74.6357 217.52 75.2404C217.518 75.526 217.515 75.8117 217.513 76.106C217.517 76.371 217.52 76.636 217.524 76.909C217.525 77.1421 217.526 77.3751 217.527 77.6152C217.628 78.2713 217.628 78.2713 218.217 78.7225C220.167 79.8952 222.491 79.9484 224.707 79.6875C225.548 79.3762 225.548 79.3762 226.172 78.8086C226.432 78.0495 226.432 78.0495 226.465 77.3438C226.093 77.2424 226.093 77.2424 225.714 77.1389C221.493 75.9254 221.493 75.9254 220.313 74.7071C219.973 74.0351 219.706 73.3605 219.434 72.6563C219.741 72.7375 220.049 72.8187 220.366 72.9023C222.496 73.455 224.556 73.9638 226.758 74.1211C226.758 72.7676 226.758 71.4141 226.758 70.0196C226.469 69.8606 226.179 69.7016 225.881 69.5378C225.502 69.3262 225.123 69.1144 224.744 68.9026C224.553 68.7982 224.362 68.6938 224.166 68.5862C223.223 68.0564 222.68 67.7111 222.07 66.7969C221.958 66.3119 221.857 65.8236 221.777 65.3321C221.993 65.3744 222.209 65.4167 222.431 65.4602C222.717 65.5146 223.003 65.569 223.297 65.625C223.72 65.7066 223.72 65.7066 224.152 65.7898C224.94 65.9089 225.67 65.9412 226.465 65.918C224.841 64.2397 223.137 62.5275 221.191 61.2305ZM189.551 64.4532C189.286 69.5777 191.161 73.8626 194.531 77.6367C194.733 77.8664 194.935 78.096 195.144 78.3326C197.071 80.3956 199.713 82.5505 202.641 82.6561C203.877 82.6386 205.069 82.4994 206.287 82.2876C206.606 82.2322 206.606 82.2322 206.932 82.1756C208.9 81.7981 211.831 81.1379 213.281 79.6875C213.309 79.2558 213.316 78.8228 213.315 78.3903C213.315 78.1146 213.315 77.839 213.315 77.555C213.313 77.2553 213.312 76.9556 213.31 76.6468C213.31 76.3416 213.309 76.0364 213.309 75.7219C213.307 74.7428 213.303 73.7636 213.3 72.7845C213.298 72.1224 213.297 71.4604 213.296 70.7983C213.292 69.1715 213.287 67.5448 213.281 65.918C212.808 65.9017 212.335 65.89 211.861 65.8802C211.597 65.8732 211.334 65.8662 211.062 65.859C209.958 65.9506 209.601 66.5644 208.887 67.3828C205.495 69.9283 201.434 71.5519 197.168 71.4844C197.238 71.2544 197.307 71.0244 197.379 70.7875C197.618 69.8112 197.778 68.9755 197.754 67.9688C197.253 67.2495 196.751 66.8493 196.029 66.3575C195.41 65.918 195.41 65.918 194.965 65.2954C194.581 64.7181 194.581 64.7181 194.014 64.5275C193.132 64.4274 192.269 64.426 191.382 64.4348C190.868 64.4388 190.868 64.4388 190.343 64.4429C190.081 64.4463 189.82 64.4497 189.551 64.4532ZM185.742 70.8985C185.508 71.3002 185.277 71.7033 185.046 72.107C184.917 72.3313 184.788 72.5556 184.655 72.7867C183.937 74.2102 183.618 75.4589 183.625 77.0524C183.625 77.3924 183.625 77.7325 183.625 78.0829C183.628 78.4455 183.631 78.8081 183.634 79.1817C183.635 79.5564 183.636 79.931 183.637 80.3171C183.64 81.3083 183.645 82.2994 183.651 83.2906C183.657 84.304 183.66 85.3174 183.663 86.3308C183.669 88.3156 183.679 90.3004 183.691 92.2852C186.785 93.7342 189.886 95.1679 192.993 96.5882C193.216 96.69 193.439 96.7919 193.668 96.8968C197.142 98.4841 200.624 100.049 204.117 101.593C205.798 102.337 207.476 103.089 209.152 103.843C209.661 104.071 210.171 104.3 210.68 104.529C211.435 104.868 212.191 105.208 212.945 105.548C213.648 105.865 214.351 106.181 215.054 106.496C215.368 106.639 215.368 106.639 215.688 106.784C216.823 107.292 217.952 107.734 219.141 108.105C218.976 105.672 218.591 103.318 218.115 100.928C218.049 100.586 217.983 100.245 217.915 99.8932C217.578 98.1206 217.578 98.1206 217.09 96.3867C216.326 95.9072 216.326 95.9072 215.365 95.4632C215.099 95.3331 215.099 95.3331 214.828 95.2003C214.446 95.0134 214.063 94.8278 213.68 94.6433C212.669 94.1565 211.664 93.6594 210.658 93.1629C210.457 93.0636 210.255 92.9643 210.047 92.8619C196.935 86.3833 196.935 86.3833 192.188 80.8594C192.006 80.6596 191.825 80.4598 191.638 80.254C189.168 77.5247 187.068 74.4664 186.035 70.8985C185.939 70.8985 185.842 70.8985 185.742 70.8985ZM183.691 96.9727C183.623 99.1907 183.571 101.409 183.54 103.628C183.524 104.658 183.504 105.688 183.47 106.718C183.432 107.904 183.418 109.09 183.405 110.276C183.39 110.644 183.375 111.011 183.36 111.39C183.333 113.326 183.333 113.326 184.3 114.921C185.051 115.454 185.802 115.889 186.621 116.309C186.936 116.51 187.252 116.712 187.577 116.92C187.991 117.169 187.991 117.169 188.413 117.423C188.732 117.616 189.05 117.808 189.378 118.007C189.717 118.21 190.055 118.413 190.393 118.616C190.753 118.833 191.112 119.05 191.471 119.267C192.217 119.717 192.962 120.166 193.708 120.615C195.308 121.58 196.905 122.551 198.502 123.521C199.019 123.835 199.536 124.149 200.053 124.463C202.168 125.747 204.283 127.033 206.397 128.32C208.785 129.775 211.174 131.227 213.564 132.679C213.918 132.894 214.273 133.11 214.628 133.325C215.441 133.819 216.255 134.313 217.069 134.806C217.661 135.165 218.251 135.525 218.84 135.888C219.104 136.05 219.367 136.211 219.639 136.377C219.984 136.59 219.984 136.59 220.336 136.807C220.878 137.156 220.878 137.156 221.484 137.109C221.217 131.343 220.922 125.577 220.531 119.818C220.495 119.286 220.461 118.753 220.428 118.221C220.382 117.475 220.33 116.729 220.277 115.984C220.258 115.651 220.258 115.651 220.238 115.311C220.172 114.174 220.172 114.174 219.637 113.202C219.126 112.781 218.668 112.521 218.065 112.252C217.742 112.106 217.742 112.106 217.412 111.957C217.178 111.854 216.944 111.75 216.703 111.644C216.458 111.534 216.212 111.423 215.959 111.31C215.153 110.948 214.345 110.589 213.538 110.23C212.975 109.978 212.413 109.726 211.851 109.473C210.715 108.963 209.579 108.455 208.442 107.946C206.442 107.051 204.446 106.146 202.451 105.237C201.874 104.974 201.296 104.712 200.718 104.449C198.606 103.488 196.494 102.525 194.384 101.559C194.151 101.453 193.918 101.346 193.678 101.237C192.551 100.721 191.425 100.206 190.299 99.6904C189.172 99.1739 188.043 98.6591 186.914 98.1446C186.632 98.0148 186.349 97.885 186.058 97.7513C184.921 97.182 184.921 97.182 183.691 96.9727ZM183.399 119.531C183.334 119.782 183.27 120.034 183.204 120.292C182.624 122.384 182.064 123.902 180.469 125.391C180.176 125.683 179.882 125.976 179.59 126.27C179.947 126.686 180.304 127.103 180.661 127.519C180.976 127.887 181.292 128.255 181.607 128.623C182.413 129.564 183.22 130.505 184.029 131.443C185.568 133.231 187.085 135.031 188.571 136.862C189.373 137.835 190.193 138.791 191.016 139.746C192.281 141.215 193.521 142.701 194.743 144.206C195.493 145.12 196.256 146.023 197.022 146.924C198.004 148.08 198.976 149.243 199.933 150.421C201.368 152.183 202.848 153.904 204.332 155.626C205.07 156.483 205.807 157.343 206.543 158.203C207.446 159.256 208.348 160.309 209.252 161.362C209.408 161.544 209.565 161.727 209.726 161.914C210.023 162.26 210.32 162.606 210.617 162.951C210.752 163.11 210.888 163.268 211.028 163.431C211.159 163.583 211.29 163.735 211.425 163.892C211.696 164.212 211.961 164.537 212.223 164.865C212.564 165.291 212.921 165.703 213.281 166.113C213.475 166.113 213.668 166.113 213.867 166.113C213.964 160.699 214.061 155.285 214.16 149.707C215.49 150.04 216.173 150.652 217.163 151.538C218.538 152.738 219.892 153.782 221.484 154.688C222.246 153.926 222.151 153.384 222.167 152.346C222.166 151.327 222.164 150.308 222.15 149.288C222.146 148.752 222.148 148.216 222.156 147.68C222.305 144.644 222.305 144.644 221.222 141.929C220.457 141.383 219.705 141.008 218.848 140.625C218.287 140.288 217.73 139.945 217.176 139.597C216.58 139.243 215.984 138.89 215.387 138.538C213.03 137.136 210.683 135.721 208.356 134.271C206.202 132.931 204.036 131.614 201.859 130.313C199.703 129.024 197.556 127.721 195.41 126.416C192.275 124.51 189.137 122.61 185.985 120.732C185.519 120.452 185.058 120.165 184.597 119.877C184.017 119.483 184.017 119.483 183.399 119.531ZM94.629 133.301C94.4288 133.462 94.2287 133.624 94.0225 133.791C85.2498 141.015 82.1753 153.255 81.0815 164.033C81.0061 164.824 80.9321 165.615 80.8595 166.406C80.8356 166.665 80.8118 166.923 80.7872 167.189C80.5908 169.326 80.4033 171.464 80.2186 173.602C80.192 173.905 80.1654 174.207 80.138 174.518C79.819 178.171 79.6069 181.782 79.6876 185.449C79.9655 185.57 80.2435 185.691 80.5299 185.815C81.4968 186.357 81.6489 186.516 82.0313 187.5C82.2559 190.035 81.6088 192.453 81.0677 194.912C80.9666 195.382 80.8657 195.851 80.7651 196.32C80.4994 197.556 80.2305 198.791 79.9608 200.025C79.6935 201.252 79.4292 202.479 79.1646 203.707C77.513 211.358 77.513 211.358 76.9223 214.003C76.7918 214.589 76.6623 215.174 76.5332 215.76C76.3778 216.464 76.2203 217.167 76.0604 217.87C75.9591 218.331 75.9591 218.331 75.8557 218.802C75.7961 219.068 75.7366 219.333 75.6752 219.606C75.5839 220.33 75.6509 220.798 75.879 221.484C78.8608 221.92 78.8608 221.92 81.661 221.168C82.5565 220.33 83.1973 219.328 83.7891 218.262C84.4621 218.588 85.058 218.915 85.6751 219.342C86.3966 219.784 86.3966 219.784 87.1766 219.727C88.3614 219.241 88.9082 218.286 89.4563 217.16C89.6239 216.735 89.6239 216.735 89.795 216.303C89.978 215.845 89.978 215.845 90.1646 215.379C90.3442 214.921 90.3442 214.921 90.5274 214.453C90.7531 213.892 90.9789 213.33 91.2049 212.769C91.37 212.354 91.5349 211.939 91.6993 211.523C91.876 211.616 92.0528 211.709 92.2349 211.805C92.9321 212.139 93.5764 212.276 94.336 212.402C96.7001 209.657 96.5325 204.158 96.9727 200.684C97.2333 200.752 97.2333 200.752 97.4992 200.822C98.6782 201.104 99.6726 201.228 100.797 200.687C103.187 199.087 103.986 196.627 104.714 193.954C105.152 191.656 105.238 189.308 105.327 186.975C105.346 186.521 105.346 186.521 105.364 186.059C105.497 182.6 105.577 179.139 105.654 175.678C105.68 174.486 105.708 173.294 105.735 172.102C105.804 169.147 105.871 166.191 105.937 163.236C105.989 160.925 106.042 158.615 106.096 156.305C106.127 154.938 106.158 153.571 106.188 152.203C106.272 148.534 106.38 144.873 106.641 141.211C107.52 141.504 107.52 141.504 107.893 142.233C108.735 144.497 109.391 146.74 109.909 149.098C109.988 149.445 110.067 149.792 110.148 150.15C110.398 151.247 110.644 152.344 110.889 153.442C112.13 159.086 112.13 159.086 113.608 164.671C113.665 164.87 113.723 165.068 113.782 165.273C114.051 166.158 114.325 166.8 114.844 167.578C115.902 167.49 116.234 167.371 116.95 166.553C117.125 166.311 117.3 166.069 117.481 165.82C117.674 165.724 117.867 165.627 118.066 165.527C118.092 165.771 118.117 166.014 118.143 166.264C118.456 169.006 118.881 171.725 119.348 174.445C119.406 174.795 119.464 175.145 119.523 175.506C120.234 179.555 121.644 181.964 124.746 184.606C125.455 185.211 126.146 185.832 126.837 186.456C127.205 186.787 127.205 186.787 127.581 187.125C128.071 187.567 128.557 188.013 129.041 188.461C129.269 188.67 129.496 188.878 129.73 189.093C129.932 189.28 130.133 189.467 130.34 189.66C131.25 190.363 132.034 190.741 133.191 190.686C134.064 190.365 134.263 190.032 134.766 189.258C134.977 188.761 135.168 188.255 135.344 187.744C135.444 187.458 135.544 187.172 135.647 186.878C135.854 186.276 136.061 185.674 136.268 185.072C136.368 184.788 136.468 184.503 136.57 184.21C136.66 183.949 136.749 183.688 136.842 183.419C137.109 182.813 137.109 182.813 137.695 182.52C137.768 182.883 137.841 183.247 137.916 183.622C138.297 185.331 138.857 186.966 139.435 188.617C139.537 188.917 139.638 189.216 139.743 189.525C139.844 189.813 139.944 190.102 140.047 190.399C140.137 190.658 140.227 190.918 140.319 191.185C140.743 192.169 141.135 192.907 142.138 193.34C143.999 193.721 145.381 193.695 147.07 192.773C147.931 192.163 148.737 191.535 149.414 190.723C149.414 189.453 148.709 188.939 147.898 188.01C146.555 185.993 146.355 183.887 146.371 181.517C146.368 181.077 146.368 181.077 146.366 180.628C146.362 179.665 146.365 178.702 146.368 177.738C146.367 177.063 146.366 176.387 146.365 175.712C146.364 174.298 146.366 172.884 146.37 171.47C146.375 169.668 146.372 167.867 146.367 166.065C146.364 164.67 146.365 163.275 146.367 161.88C146.367 161.217 146.367 160.553 146.365 159.89C146.353 154.957 146.825 150.683 148.425 145.99C148.532 145.671 148.639 145.352 148.75 145.024C150.158 140.92 151.757 136.885 153.343 132.847C153.451 132.572 153.559 132.296 153.67 132.012C153.875 131.489 154.081 130.966 154.289 130.443C154.426 130.094 154.426 130.094 154.565 129.738C154.686 129.432 154.686 129.432 154.809 129.12C155.012 128.61 155.012 128.61 154.981 128.027C154.727 128.015 154.474 128.002 154.214 127.989C151.235 127.839 148.257 127.688 145.279 127.537C144.753 127.51 144.228 127.483 143.703 127.456C132.687 126.897 132.687 126.897 127.47 126.582C127.128 126.561 126.786 126.541 126.433 126.519C124.89 126.426 123.348 126.329 121.805 126.23C119.306 126.072 116.814 125.943 114.309 125.933C114 125.931 114 125.931 113.685 125.929C106.777 125.959 99.7938 128.779 94.629 133.301ZM77.0509 134.766C74.0054 138.275 72.6818 142.153 72.6563 146.777C72.7914 148.157 72.9949 149.515 73.2423 150.879C74.2218 150.661 74.2218 150.661 74.6808 149.612C74.8926 149.187 75.1027 148.761 75.3114 148.334C77.3163 144.407 79.8528 141.147 82.9102 137.988C83.2773 137.604 83.2773 137.604 83.6518 137.211C85.348 135.469 87.1582 133.93 89.0626 132.422C89.3107 132.219 89.5588 132.017 89.8145 131.809C91.0215 130.826 92.2379 129.902 93.5304 129.034C94.8184 128.153 95.725 127.208 96.6798 125.977C89.5674 125.605 81.9049 129.846 77.0509 134.766ZM172.751 127.464C171.75 127.492 170.748 127.521 169.747 127.551C169.111 127.569 168.475 127.587 167.84 127.605C165.013 127.686 162.196 127.834 159.375 128.027C157.08 133.981 154.792 139.935 152.673 145.953C152.564 146.265 152.564 146.265 152.451 146.583C152.017 147.817 151.583 149.051 151.172 150.293C151.071 150.586 150.97 150.879 150.866 151.181C150.465 152.605 150.493 154.028 150.487 155.498C150.484 155.809 150.48 156.119 150.477 156.44C150.467 157.464 150.461 158.487 150.457 159.511C150.455 159.862 150.453 160.213 150.451 160.574C150.44 162.429 150.433 164.284 150.429 166.138C150.424 168.052 150.407 169.965 150.387 171.879C150.374 173.353 150.37 174.827 150.369 176.301C150.366 177.006 150.361 177.712 150.351 178.417C150.339 179.404 150.34 180.391 150.344 181.379C150.337 181.668 150.331 181.958 150.324 182.256C150.35 184.151 150.788 185.101 152.127 186.447C152.295 186.601 152.463 186.755 152.637 186.914C152.99 187.249 152.99 187.249 153.35 187.592C153.544 187.755 153.737 187.918 153.937 188.086C154.136 188.255 154.335 188.424 154.54 188.599C154.685 188.72 154.831 188.84 154.981 188.965C155.751 188.194 155.954 187.45 156.331 186.425C156.404 186.229 156.477 186.032 156.552 185.829C156.787 185.196 157.019 184.563 157.251 183.929C157.554 183.107 157.858 182.285 158.162 181.463C158.274 181.16 158.274 181.16 158.389 180.85C159.168 178.754 159.999 176.68 160.84 174.609C161.328 174.597 161.817 174.597 162.305 174.609C162.814 175.118 162.663 175.781 162.674 176.476C162.664 178.158 162.459 179.74 162.164 181.395C162.083 181.874 162.001 182.352 161.92 182.831C161.794 183.567 161.663 184.3 161.516 185.031C160.891 187.752 160.891 187.752 161.406 190.405C162.227 191.576 163.258 192.453 164.356 193.359C164.824 193.819 165.288 194.282 165.747 194.751C165.962 194.963 166.178 195.175 166.399 195.394C166.929 195.932 167.421 196.482 167.908 197.058C169.161 198.526 170.551 199.862 171.928 201.214C172.114 201.397 172.3 201.581 172.491 201.77C172.659 201.934 172.827 202.099 173 202.268C173.438 202.734 173.438 202.734 174.024 203.613C174.217 203.613 174.41 203.613 174.609 203.613C174.713 203.86 174.713 203.86 174.819 204.112C175.283 204.942 175.85 205.511 176.524 206.181C176.785 206.442 177.046 206.703 177.315 206.971C177.589 207.241 177.862 207.51 178.143 207.788C178.421 208.065 178.698 208.342 178.975 208.619C180.028 209.897 180.028 209.897 181.348 210.645C181.437 210.125 181.526 209.606 181.616 209.086C181.675 208.743 181.733 208.401 181.794 208.048C181.927 207.274 182.06 206.499 182.193 205.725C182.523 203.805 182.853 201.886 183.184 199.967C183.37 198.893 183.555 197.82 183.74 196.747C183.776 196.535 183.813 196.323 183.85 196.104C184.292 193.537 184.726 190.969 185.145 188.397C185.224 187.915 185.303 187.434 185.383 186.952C185.522 186.106 185.657 185.26 185.789 184.413C185.849 184.049 185.909 183.685 185.971 183.31C186.02 183.005 186.068 182.699 186.118 182.384C186.342 181.591 186.573 181.272 187.207 180.762C188.339 181.139 188.419 181.507 188.976 182.541C189.145 182.85 189.314 183.159 189.488 183.477C189.755 183.973 189.755 183.973 190.027 184.479C192.211 188.869 192.211 188.869 195.117 192.773C195.812 192.92 195.812 192.92 196.582 192.773C198.117 191.453 198.116 189.592 198.358 187.701C198.454 187.017 198.551 186.332 198.648 185.647C198.694 185.314 198.74 184.981 198.788 184.637C198.972 183.375 199.196 182.123 199.439 180.872C199.545 180.322 199.545 180.322 199.654 179.762C199.704 179.512 199.753 179.262 199.805 179.004C200.318 178.792 200.318 178.792 200.977 178.711C201.548 179.126 201.548 179.126 202.139 179.751C202.355 179.974 202.571 180.197 202.793 180.427C203.015 180.664 203.238 180.902 203.467 181.146C203.908 181.61 204.351 182.073 204.794 182.534C204.989 182.742 205.185 182.949 205.385 183.163C206.278 183.988 206.934 184.249 208.136 184.424C209.222 184.369 209.222 184.369 209.967 183.582C211.579 181.319 212.072 178.637 212.476 175.946C212.552 175.474 212.552 175.474 212.629 174.992C212.897 173.344 212.897 173.344 212.988 171.68C212.516 171.162 212.036 170.692 211.524 170.215C209.877 168.635 208.375 167.001 206.948 165.221C206.193 164.285 205.419 163.367 204.639 162.451C203.65 161.289 202.672 160.119 201.709 158.936C200.22 157.108 198.695 155.312 197.168 153.516C195.647 151.726 194.127 149.937 192.645 148.114C191.064 146.173 189.428 144.279 187.793 142.383C185.945 140.239 184.111 138.089 182.327 135.892C181.38 134.742 180.406 133.615 179.433 132.486C178.256 131.117 177.107 129.727 175.97 128.324C175.534 127.771 175.534 127.771 175.195 127.441C174.379 127.413 173.567 127.445 172.751 127.464ZM159.668 194.824C159.267 198.059 158.929 201.293 158.662 204.542C158.605 205.233 158.546 205.923 158.487 206.614C158.308 208.742 158.149 210.851 158.203 212.988C158.572 212.922 158.94 212.855 159.32 212.787C159.948 212.674 159.948 212.674 160.547 212.695C161.137 213.151 161.395 213.42 161.543 214.158C161.546 214.38 161.549 214.602 161.553 214.83C161.558 215.083 161.564 215.335 161.57 215.595C161.573 216.001 161.573 216.001 161.576 216.416C161.581 216.694 161.586 216.973 161.592 217.259C161.608 218.149 161.618 219.038 161.627 219.928C161.637 220.531 161.647 221.134 161.658 221.737C161.683 223.215 161.702 224.693 161.719 226.172C162.469 226.181 163.219 226.188 163.969 226.194C164.18 226.197 164.391 226.199 164.608 226.202C166.724 226.214 168.393 225.864 170.087 224.542C170.322 224.307 170.558 224.071 170.801 223.828C170.801 223.635 170.801 223.441 170.801 223.242C171.006 223.339 171.212 223.436 171.423 223.535C172.373 223.865 173.026 223.958 174.024 223.828C174.989 222.87 175.132 221.842 175.36 220.532C175.396 220.328 175.432 220.125 175.469 219.914C176.261 215.878 176.261 215.878 176.367 211.816C175.95 211.203 175.95 211.203 175.35 210.666C175.134 210.457 174.919 210.247 174.697 210.032C174.469 209.817 174.24 209.602 174.005 209.381C173.562 208.956 173.119 208.53 172.677 208.103C172.458 207.892 172.24 207.682 172.016 207.465C171.242 206.691 170.531 205.874 169.82 205.044C169.065 204.183 168.25 203.388 167.432 202.588C166.246 201.417 165.111 200.232 164.032 198.961C163.253 198.09 162.434 197.263 161.609 196.436C161.452 196.277 161.294 196.118 161.132 195.955C160.505 195.177 160.505 195.177 159.668 194.824ZM81.4454 227.93C81.4454 237.694 81.4454 247.459 81.4454 257.52C82.2447 257.919 82.7958 257.777 83.6793 257.684C84.12 257.64 84.12 257.64 84.5696 257.594C84.7955 257.569 85.0213 257.545 85.254 257.52C85.3356 254.051 85.398 250.583 85.4361 247.113C85.4545 245.502 85.4793 243.892 85.5192 242.281C85.5575 240.725 85.5784 239.17 85.5875 237.614C85.594 237.021 85.6067 236.429 85.6257 235.837C85.8424 232.817 85.8424 232.817 84.8969 230.049C83.9771 229.107 82.9359 228.479 81.7384 227.93C81.6417 227.93 81.545 227.93 81.4454 227.93ZM166.699 233.203C166.699 241.228 166.699 249.252 166.699 257.52C167.956 257.52 169.213 257.52 170.508 257.52C170.508 249.495 170.508 241.471 170.508 233.203C169.251 233.203 167.994 233.203 166.699 233.203ZM184.863 238.77C184.96 244.957 185.057 251.145 185.156 257.52C186.316 257.52 187.477 257.52 188.672 257.52C188.672 251.332 188.672 245.145 188.672 238.77C187.415 238.77 186.158 238.77 184.863 238.77ZM82.3243 261.914C82.7132 263.275 83.0842 264.407 84.0821 265.43C85.1708 265.581 86.2129 265.531 87.3048 265.43C86.9158 264.068 86.5449 262.936 85.547 261.914C84.4583 261.763 83.4162 261.812 82.3243 261.914ZM166.992 261.914C167.035 262.385 167.077 262.857 167.12 263.342C167.144 263.607 167.168 263.873 167.193 264.146C167.247 264.847 167.247 264.847 167.578 265.43C168.738 265.43 169.899 265.43 171.094 265.43C170.939 264.115 170.714 263.163 170.215 261.914C169.151 261.914 168.088 261.914 166.992 261.914ZM185.742 261.914C186.134 263.285 186.471 264.424 187.5 265.43C188.782 265.582 190.024 265.53 191.309 265.43C191.114 265.039 190.918 264.648 190.723 264.258C190.597 263.984 190.597 263.984 190.469 263.705C190.115 263.072 189.826 262.665 189.258 262.207C188.083 261.944 186.944 261.901 185.742 261.914Z" fill="black"/>
</svg>
