<svg width="300" height="300" viewBox="0 0 300 300" fill="none" xmlns="http://www.w3.org/2000/svg">
<path d="M197.754 74.121C198.099 74.1295 198.099 74.1295 198.452 74.1382C204.979 74.3286 210.755 76.0957 215.387 80.8959C219.608 85.7841 221.504 92.1883 222.656 98.4374C222.713 98.7192 222.771 99.0009 222.83 99.2912C222.991 100.512 222.98 101.712 222.967 102.942C222.966 103.185 222.964 103.429 222.963 103.68C222.96 104.276 222.954 104.872 222.949 105.469C218.171 106.026 213.382 106.478 208.593 106.934C208.799 106.917 209.005 106.901 209.217 106.884C213.793 106.527 218.363 106.231 222.949 106.055C223.001 107.742 222.895 109.252 222.509 110.907C222.387 111.442 222.387 111.442 222.262 111.988C222.199 112.254 222.135 112.519 222.07 112.793C222.553 112.89 223.037 112.986 223.535 113.086C223.724 112.189 223.913 111.291 224.102 110.394C224.183 110.014 224.183 110.014 224.264 109.627C224.515 108.437 224.765 107.248 225 106.055C225.87 106.055 226.74 106.055 227.636 106.055C227.507 108.925 227.318 111.725 226.757 114.551C225.984 114.357 225.211 114.164 224.414 113.965C224.576 114.022 224.738 114.08 224.906 114.139C225.118 114.226 225.33 114.314 225.549 114.404C225.76 114.486 225.97 114.567 226.188 114.651C226.932 115.285 226.971 115.907 227.185 116.832C227.432 117.844 227.776 118.817 228.118 119.8C228.269 120.241 228.42 120.683 228.571 121.124C228.688 121.465 228.688 121.465 228.807 121.813C231.594 129.99 233.391 137.894 233.331 146.576C233.33 146.986 233.33 146.986 233.328 147.405C233.308 151.683 233.066 155.793 232.031 159.961C231.971 160.213 231.912 160.465 231.85 160.724C230.707 165.451 229.078 170.404 226.668 174.64C225.472 176.999 226.299 179.838 226.794 182.3C226.86 182.63 226.925 182.961 226.993 183.301C228.744 192.552 228.744 192.552 234.375 199.805C236.12 200.762 237.879 201.228 239.829 201.552C240.223 201.622 240.223 201.622 240.625 201.694C241.458 201.843 242.293 201.987 243.127 202.13C246.338 202.686 249.532 203.253 252.687 204.072C252.913 204.13 253.139 204.188 253.371 204.247C254.903 204.66 256.372 205.103 257.519 206.25C257.702 207.402 257.583 207.904 256.97 208.905C255.167 210.845 252.278 211.579 249.81 212.274C249.503 212.361 249.196 212.449 248.879 212.539C235.42 216.273 220.663 217.111 208.161 210.101C205.97 208.811 203.916 207.163 202.441 205.078C202.441 204.885 202.441 204.691 202.441 204.492C202.254 204.604 202.067 204.716 201.875 204.831C195.557 208.603 195.557 208.603 192.517 210.022C192.209 210.165 192.209 210.165 191.895 210.312C190.516 210.937 190.516 210.937 189.843 210.937C189.753 211.481 189.753 211.481 189.66 212.036C188.689 216.33 185.683 220.299 182.015 222.692C167.02 231.964 141.721 231.949 124.694 229.321C124.49 229.293 124.286 229.264 124.076 229.235C122.636 228.982 121.897 228.484 120.996 227.344C120.803 226.168 120.904 225.503 121.38 224.414C122.394 223.074 123.974 222.33 125.39 221.484C125.654 221.307 125.918 221.129 126.19 220.946C131.434 217.479 137.636 215.427 143.491 213.239C144.138 213.001 144.138 213.001 144.726 212.695C144.413 212.676 144.1 212.657 143.778 212.638C126.326 211.563 108.005 210.081 92.3019 201.859C91.1138 201.275 90.1359 201.213 88.8241 201.196C88.4717 201.189 88.1194 201.181 87.7563 201.173C86.6297 201.278 85.941 201.604 84.9605 202.148C84.7672 202.148 84.5738 202.148 84.3746 202.148C84.3746 202.342 84.3746 202.535 84.3746 202.734C83.7635 203.273 83.1507 203.775 82.5069 204.272C82.3358 204.409 82.1648 204.545 81.9885 204.686C79.0637 206.969 75.9921 208.301 72.5094 209.491C72.0625 209.646 71.6157 209.801 71.169 209.956C57.5326 214.665 57.5326 214.665 52.148 212.109C50.8494 211.325 50.4631 210.643 50.0973 209.18C49.5806 209.207 49.5806 209.207 49.0536 209.235C47.7317 209.237 46.8712 208.908 45.7027 208.301C44.9693 207.567 45.0537 207.297 45.0252 206.287C44.9524 205.05 44.9524 205.05 44.128 204.144C43.8742 203.969 43.6205 203.794 43.359 203.613C42.6363 202.361 42.2858 201.312 42.5556 199.861C42.9769 198.617 43.7192 197.588 44.4662 196.518C44.873 195.924 45.2625 195.321 45.6524 194.717C49.097 189.441 53.4751 183.424 59.9415 181.993C61.7949 181.633 63.6567 181.367 65.5319 181.15C72.7309 180.31 78.212 178.154 83.1112 172.538C84.0765 171.315 84.9434 170.033 85.813 168.741C90.439 161.891 96.8903 154.905 104.004 150.586C104.189 150.471 104.375 150.356 104.566 150.237C110.161 146.807 116.287 144.526 122.461 142.383C138.567 136.815 138.567 136.815 152.636 127.441C152.881 127.231 153.127 127.021 153.379 126.805C156.857 123.773 160.55 119.923 162.436 115.637C163.846 113.175 168.468 112.386 171.049 111.683C171.577 111.541 172.104 111.399 172.632 111.258C174.239 110.813 175.831 110.312 177.423 109.813C177.652 109.743 177.881 109.672 178.117 109.6C178.417 109.506 178.417 109.506 178.723 109.411C179.296 109.277 179.296 109.277 180.468 109.277C180.372 109.181 180.275 109.084 180.175 108.984C179.678 109.058 179.184 109.153 178.692 109.259C178.423 109.316 178.154 109.373 177.876 109.432C177.564 109.5 177.564 109.5 177.246 109.57C177.439 108.797 177.632 108.023 177.832 107.226C177.397 107.517 177.397 107.517 176.953 107.812C176.737 108.858 176.737 108.858 176.66 109.863C176.487 109.912 176.315 109.96 176.137 110.011C175.341 110.236 174.544 110.461 173.748 110.687C173.477 110.764 173.206 110.84 172.926 110.919C171.225 111.402 169.543 111.924 167.871 112.5C167.142 110.214 166.532 108.183 166.699 105.762C169.67 105.637 172.58 106.02 175.525 106.366C176.273 106.454 177.021 106.541 177.77 106.626C178.233 106.678 178.696 106.732 179.158 106.788C179.691 106.849 180.226 106.893 180.761 106.934C180.858 106.837 180.955 106.74 181.054 106.641C179.894 106.496 179.894 106.496 178.711 106.348C178.807 105.961 178.904 105.574 179.004 105.176C178.852 105.395 178.852 105.395 178.698 105.619C177.835 106.275 177.009 106.095 175.982 106C175.769 105.983 175.556 105.967 175.336 105.951C174.605 105.893 173.874 105.828 173.144 105.762C172.557 105.711 171.969 105.659 171.382 105.608C169.82 105.47 168.259 105.325 166.699 105.176C166.728 96.8528 168.917 87.4509 174.902 81.4452C175.172 81.1654 175.172 81.1654 175.447 80.8799C176.885 79.4972 178.55 78.6865 180.332 77.8415C181.229 77.4014 182.06 76.9247 182.904 76.3915C187.316 73.7115 192.761 73.9911 197.754 74.121ZM177.539 89.9413C177.321 90.1286 177.104 90.316 176.879 90.509C175.771 91.816 175.65 93.0888 175.689 94.757C175.89 96.3993 176.612 97.6313 177.85 98.7121C179.272 99.7105 180.539 99.8007 182.226 99.6093C183.865 99.1243 184.839 98.2941 185.768 96.8799C186.512 95.5046 186.454 94.098 186.328 92.578C185.799 90.9606 184.732 90.0493 183.398 89.0624C181.516 88.1216 179.045 88.5857 177.539 89.9413ZM204.977 90.7058C204.068 92.1217 203.707 93.6576 204.045 95.312C204.586 97.1019 205.23 98.3252 206.909 99.2614C208.581 99.7909 209.755 99.7912 211.431 99.2797C212.878 98.4608 213.815 97.3529 214.453 95.8007C214.723 93.8084 214.668 92.0619 213.438 90.4174C212.218 89.1267 211.12 88.7005 209.344 88.6047C207.493 88.6809 206.171 89.2757 204.977 90.7058ZM188.379 99.9023C188.038 100.584 188.037 101.012 188.031 101.77C188.026 101.996 188.022 102.222 188.018 102.454C188.097 103.238 188.214 103.652 188.671 104.297C189.445 104.79 189.445 104.79 190.356 105.194C190.657 105.336 190.957 105.479 191.267 105.625C191.722 105.838 191.722 105.838 192.187 106.055C192.774 106.346 193.36 106.638 193.945 106.934C194.11 109.734 193.703 112.717 191.837 114.908C189.881 116.838 188.168 118.047 185.376 118.176C182.882 118.122 180.946 117.227 179.113 115.566C178.711 115.137 178.711 115.137 178.125 114.258C177.545 114.403 177.545 114.403 176.953 114.551C177.167 116.48 178.469 117.446 179.882 118.652C181.675 120.001 183.558 120.095 185.742 119.824C188.725 119.109 191.146 117.555 193.153 115.259C193.813 114.71 194.261 114.588 195.117 114.551C195.7 114.909 195.7 114.909 196.252 115.448C196.456 115.638 196.659 115.828 196.869 116.024C197.226 116.373 197.582 116.724 197.933 117.079C199.712 118.769 202.213 119.861 204.675 119.989C207.205 119.817 209.528 118.771 211.23 116.894C211.825 116.159 211.825 116.159 212.109 115.43C212.012 115.14 211.916 114.85 211.816 114.551C211.647 114.635 211.478 114.72 211.303 114.807C210.388 115.265 210.388 115.265 209.472 115.723C208.457 114.707 208.457 114.707 207.421 113.672C207.131 113.817 207.131 113.817 206.836 113.965C207.706 114.835 208.576 115.705 209.472 116.601C206.755 117.783 204.269 118.801 201.339 117.786C198.781 116.581 197.104 114.937 195.703 112.5C195.433 111.69 195.375 111.216 195.381 110.382C195.382 110.147 195.383 109.911 195.384 109.669C195.388 109.303 195.388 109.303 195.391 108.929C195.393 108.682 195.394 108.434 195.395 108.179C195.399 107.569 195.404 106.958 195.41 106.348C195.601 106.298 195.792 106.248 195.989 106.197C198.165 105.593 200.067 104.867 201.269 102.832C201.444 101.454 201.399 100.787 200.848 99.5177C199.334 97.9301 197.618 97.8069 195.506 97.7506C195.275 97.7477 195.044 97.7447 194.806 97.7416C194.473 97.7355 194.473 97.7355 194.135 97.7292C191.903 97.7481 190.041 98.3408 188.379 99.9023ZM210.351 105.176C210.448 105.466 210.545 105.756 210.644 106.055C210.838 106.055 211.031 106.055 211.23 106.055C211.133 105.765 211.037 105.475 210.937 105.176C210.744 105.176 210.55 105.176 210.351 105.176ZM182.519 106.641C182.519 106.834 182.519 107.027 182.519 107.226C182.712 107.226 182.906 107.226 183.105 107.226C183.105 107.033 183.105 106.84 183.105 106.641C182.912 106.641 182.718 106.641 182.519 106.641ZM205.957 106.641C205.86 106.834 205.763 107.027 205.664 107.226C205.857 107.226 206.05 107.226 206.25 107.226C206.153 107.033 206.056 106.84 205.957 106.641ZM211.816 107.519C211.913 108.1 212.009 108.68 212.109 109.277C210.949 109.181 209.789 109.084 208.593 108.984C209.423 109.538 209.921 109.727 210.867 109.96C211.145 110.031 211.422 110.101 211.708 110.173C212.004 110.246 212.299 110.319 212.603 110.394C215.113 111.027 217.573 111.732 220.024 112.563C220.904 112.88 220.904 112.88 221.777 112.5C220.899 112.168 220.02 111.839 219.14 111.511C218.894 111.418 218.649 111.325 218.395 111.23C216.518 110.531 214.719 109.863 212.695 109.863C212.722 109.446 212.722 109.446 212.75 109.021C212.732 108.719 212.714 108.417 212.695 108.105C212.405 107.912 212.115 107.719 211.816 107.519ZM212.402 111.035C212.005 111.365 212.005 111.365 212.091 112.225C212.097 112.509 212.103 112.793 212.109 113.086C212.399 113.231 212.399 113.231 212.695 113.379C212.792 112.605 212.888 111.832 212.988 111.035C212.795 111.035 212.601 111.035 212.402 111.035ZM183.984 111.328C183.984 111.618 183.984 111.908 183.984 112.207C184.274 112.11 184.564 112.014 184.863 111.914C184.766 111.721 184.67 111.527 184.57 111.328C184.377 111.328 184.183 111.328 183.984 111.328ZM205.078 111.621C205.078 111.814 205.078 112.008 205.078 112.207C205.271 112.207 205.464 112.207 205.664 112.207C205.664 112.014 205.664 111.82 205.664 111.621C205.47 111.621 205.277 111.621 205.078 111.621ZM176.66 110.742C176.563 110.839 176.466 110.935 176.367 111.035C176.393 111.531 176.439 112.025 176.495 112.518C176.54 112.922 176.54 112.922 176.585 113.334C176.61 113.542 176.634 113.75 176.66 113.965C176.494 114.041 176.328 114.117 176.157 114.196C175.425 114.584 174.806 115.032 174.151 115.539C173.815 115.797 173.815 115.797 173.473 116.059C172.868 116.587 172.426 117.115 171.972 117.773C170.854 117.337 170.396 116.727 169.738 115.741C169.565 115.484 169.392 115.228 169.214 114.964C169.061 114.731 168.908 114.498 168.75 114.258C168.556 113.968 168.363 113.678 168.164 113.379C167.68 113.476 167.197 113.572 166.699 113.672C167.103 116.144 168.424 117.86 170.214 119.531C170.408 119.821 170.601 120.111 170.8 120.41C170.914 120.25 171.028 120.091 171.146 119.926C173.801 116.347 177.418 113.45 181.64 111.914C180.84 111.602 180.529 111.598 179.713 111.913C179.455 112.052 179.196 112.192 178.93 112.335C178.669 112.474 178.408 112.612 178.138 112.755C177.94 112.864 177.743 112.973 177.539 113.086C177.394 111.926 177.394 111.926 177.246 110.742C177.052 110.742 176.859 110.742 176.66 110.742ZM181.64 113.379C181.35 113.814 181.35 113.814 181.054 114.258C181.441 114.064 181.828 113.871 182.226 113.672C182.033 113.575 181.839 113.478 181.64 113.379ZM207.714 111.621C208.169 112.531 208.946 112.683 209.857 113.104C212.867 114.552 215.39 116.504 217.675 118.945C216.999 119.525 216.322 120.105 215.625 120.703C215.721 120.896 215.818 121.09 215.918 121.289C216.303 121.207 216.687 121.12 217.071 121.033C217.285 120.985 217.499 120.937 217.72 120.888C218.322 120.753 218.322 120.753 218.554 120.117C218.748 120.214 218.941 120.31 219.14 120.41C219.14 120.12 219.14 119.83 219.14 119.531C219.315 119.456 219.491 119.381 219.671 119.303C221.568 118.243 222.481 115.898 223.242 113.965C222.714 113.302 222.714 113.302 221.975 113.362C220.828 113.815 220.387 114.687 219.781 115.704C219.662 115.894 219.543 116.083 219.42 116.278C218.771 117.247 218.771 117.247 218.554 118.359C218.367 118.166 218.18 117.973 217.987 117.773C217.688 117.48 217.389 117.187 217.089 116.894C216.915 116.717 216.74 116.54 216.56 116.358C215.232 115.085 213.847 114.137 212.237 113.269C212.058 113.171 211.878 113.073 211.693 112.973C210.396 112.301 209.141 111.933 207.714 111.621ZM183.984 115.43C184.081 115.72 184.177 116.01 184.277 116.309C184.374 116.018 184.47 115.728 184.57 115.43C184.377 115.43 184.183 115.43 183.984 115.43ZM204.785 115.43C204.785 115.72 204.785 116.01 204.785 116.309C204.978 116.115 205.171 115.922 205.371 115.723C205.177 115.626 204.984 115.529 204.785 115.43ZM171.679 119.238C171.583 119.528 171.486 119.818 171.386 120.117C172.394 120.789 172.77 120.996 174.023 120.996C173.689 119.993 173.437 119.781 172.558 119.238C172.268 119.238 171.978 119.238 171.679 119.238ZM163.183 119.238C162.262 120.084 161.698 120.902 161.114 122.003C154.718 133.189 141.736 138.351 130.2 142.417C129.897 142.524 129.594 142.631 129.281 142.741C127.763 143.275 126.244 143.804 124.722 144.327C111.692 148.831 99.7499 154.951 91.1037 165.975C90.4996 166.733 89.8628 167.448 89.2086 168.164C88.3073 169.153 87.4475 170.161 86.6085 171.204C85.1559 172.996 83.6074 174.684 82.0309 176.367C81.8639 176.557 81.697 176.746 81.525 176.942C80.4234 178.145 79.1447 179.044 77.8011 179.956C77.6192 180.08 77.4372 180.205 77.2498 180.333C74.0664 182.43 70.3816 182.904 66.6703 183.405C58.752 184.491 53.634 187.992 48.8388 194.244C48.4742 194.729 48.1132 195.215 47.7535 195.703C47.5545 195.969 47.3555 196.235 47.1504 196.509C45.987 198.11 45.0672 199.766 44.2379 201.562C44.5132 201.605 44.5132 201.605 44.7941 201.649C45.0335 201.693 45.2729 201.737 45.5196 201.782C45.7575 201.823 45.9955 201.864 46.2406 201.906C46.8746 202.148 46.8746 202.148 47.25 202.652C47.5068 203.467 47.5175 204.151 47.4972 205.005C47.4892 205.438 47.4892 205.438 47.4811 205.879C47.4743 206.098 47.4675 206.317 47.4605 206.543C47.743 206.529 48.0255 206.516 48.3166 206.502C48.6867 206.491 49.0568 206.481 49.4381 206.47C49.8052 206.456 50.1722 206.442 50.5504 206.428C51.5621 206.543 51.5621 206.543 52.2545 207.076C52.734 207.715 52.734 207.715 53.1551 208.63C53.5359 209.508 53.5359 209.508 54.2904 209.857C56.1381 210.33 57.8675 210.385 59.7652 210.351C58.7393 209.786 57.6763 209.473 56.5609 209.125C54.6703 208.465 54.0057 207.955 53.0269 206.25C51.8662 205.34 50.635 205.097 49.2184 204.785C49.2807 204.535 49.2807 204.535 49.3442 204.28C49.6378 202.863 49.6378 202.863 49.1291 201.568C48.6432 201.047 48.6432 201.047 48.1197 200.597C47.7535 200.098 47.7535 200.098 47.7867 199.395C49.3801 194.72 54.9796 190.015 59.2411 187.915C61.897 186.8 64.5762 186.479 67.4225 186.216C74.9949 185.484 80.9789 181.701 85.8795 175.922C86.3129 175.391 86.7439 174.857 87.1727 174.322C87.9797 173.327 88.811 172.356 89.648 171.387C90.6895 170.178 91.7187 168.963 92.7242 167.725C93.163 167.187 93.6025 166.65 94.0426 166.113C94.1739 165.953 94.3051 165.793 94.4404 165.628C98.818 160.319 103.682 156.53 109.754 153.306C110.434 152.937 111.103 152.553 111.772 152.163C116.041 149.73 120.588 148.243 125.219 146.665C132.341 144.229 139.445 141.636 146.191 138.281C146.573 138.094 146.573 138.094 146.962 137.903C149.956 136.425 152.712 134.877 155.273 132.715C155.564 132.472 155.855 132.228 156.154 131.978C159.431 129.152 162.383 125.739 163.769 121.582C163.781 120.898 163.782 120.215 163.769 119.531C163.576 119.434 163.382 119.338 163.183 119.238ZM182.226 120.41C182.637 121.961 183.565 122.777 184.863 123.633C187.836 125.136 190.685 125.797 194 125.775C194.269 125.773 194.538 125.772 194.815 125.77C199.329 125.69 203.56 124.565 206.836 121.289C206.836 121.096 206.836 120.902 206.836 120.703C204.915 121.013 203.631 121.579 201.997 122.619C198.647 124.589 193.901 124.804 190.173 123.889C188.765 123.44 187.523 122.757 186.246 122.02C184.332 120.912 184.332 120.912 182.226 120.41ZM169.921 120.703C170.214 121.289 170.214 121.289 170.214 121.289L169.921 120.703ZM169.629 121.582C169.921 122.168 169.921 122.168 169.921 122.168L169.629 121.582ZM169.336 122.168C169.629 122.754 169.629 122.754 169.629 122.754L169.336 122.168ZM225.293 122.168C223.576 125.6 225.901 132.241 226.603 135.852C226.672 136.207 226.672 136.207 226.742 136.569C226.828 137.013 226.916 137.456 227.005 137.9C227.471 140.27 227.688 142.604 227.673 145.019C227.672 145.248 227.672 145.477 227.671 145.713C227.66 147.259 227.57 148.762 227.343 150.293C227.827 150.39 228.31 150.486 228.808 150.586C230.745 148.472 230.419 145.188 230.313 142.515C230.067 138.055 229.008 133.696 228.057 129.346C227.998 129.075 227.939 128.804 227.879 128.526C227.708 127.746 227.535 126.966 227.361 126.187C227.309 125.951 227.257 125.716 227.203 125.473C226.943 124.323 226.654 123.25 226.171 122.168C225.881 122.168 225.591 122.168 225.293 122.168ZM169.043 123.047C169.336 123.633 169.336 123.633 169.336 123.633L169.043 123.047ZM224.121 167.285C222.38 169.117 221.402 171.821 220.32 174.077C218.403 178.05 216.406 181.747 213.574 185.156C213.429 185.334 213.285 185.511 213.136 185.694C212.142 186.911 211.113 188.092 210.058 189.258C209.888 189.446 209.719 189.633 209.544 189.827C207.663 191.898 205.792 193.941 203.613 195.703C203.295 195.976 202.977 196.249 202.66 196.522C199.403 199.279 195.929 201.607 191.601 202.148C191.504 203.599 191.408 205.049 191.308 206.543C195.358 205.193 198.875 202.795 202.148 200.098C202.411 199.891 202.673 199.684 202.943 199.472C205.34 197.568 207.557 195.475 209.765 193.359C209.997 193.138 209.997 193.138 210.233 192.912C212.191 191.031 213.966 189.063 215.625 186.914C215.745 186.759 215.866 186.603 215.99 186.443C222.841 177.946 222.841 177.946 225.586 167.871C225.296 167.581 225.296 167.581 225 167.285C224.71 167.285 224.42 167.285 224.121 167.285ZM186.621 177.832C186.236 178.15 186.236 178.15 186.298 178.927C186.302 179.286 186.305 179.645 186.308 180.014C186.31 180.212 186.311 180.41 186.313 180.614C186.316 181.046 186.319 181.478 186.324 181.911C186.33 182.602 186.334 183.293 186.338 183.984C186.347 185.95 186.359 187.916 186.378 189.882C186.57 210.77 186.57 210.77 181.672 216.244C177.116 220.589 171.261 222.909 165.067 223.522C164.817 223.547 164.566 223.572 164.308 223.598C160.935 223.919 157.553 224.114 154.172 224.323C147.594 224.732 141.026 225.174 134.472 225.879C134.472 225.976 134.472 226.072 134.472 226.172C136.793 226.193 139.114 226.208 141.435 226.217C142.514 226.222 143.593 226.228 144.672 226.238C152.368 226.309 160 225.934 167.596 224.597C167.958 224.534 168.32 224.472 168.694 224.407C174.43 223.371 180.527 221.198 184.185 216.357C190.715 206.263 190.532 192.569 188.818 181.146C188.783 180.913 188.749 180.68 188.713 180.439C188.543 179.391 188.39 178.728 187.793 177.832C187.406 177.832 187.019 177.832 186.621 177.832ZM156.738 190.43C156.641 190.913 156.545 191.396 156.445 191.894C156.747 192.123 156.747 192.123 157.055 192.356C157.319 192.56 157.583 192.764 157.855 192.975C158.117 193.175 158.378 193.376 158.648 193.582C159.947 194.755 160.445 195.921 160.627 197.625C160.751 201.164 159.562 203.971 157.236 206.616C155.058 208.834 152.684 210.772 150.109 212.512C149.863 212.679 149.863 212.679 149.612 212.85C146.885 214.631 143.991 215.832 140.899 216.815C131.802 219.639 131.802 219.639 124.511 225.293C124.705 225.486 124.898 225.68 125.097 225.879C126.196 225.779 127.018 225.151 127.935 224.579C132.223 222.046 137.011 220.459 141.778 219.104C147.815 217.386 153.459 214.835 158.203 210.644C158.392 210.48 158.58 210.315 158.775 210.145C161.809 207.323 163.009 203.837 163.2 199.782C163.162 197.207 162.786 194.678 161.057 192.682C159.468 191.055 159.468 191.055 157.398 190.384C157.18 190.399 156.962 190.414 156.738 190.43ZM225 191.309C225.135 195.088 226.745 198.655 229.101 201.562C229.236 201.747 229.37 201.933 229.509 202.123C231.042 204.123 233.397 205.647 235.839 206.25C236.806 206.315 237.765 206.305 238.733 206.287C239.119 206.283 239.119 206.283 239.513 206.279C240.144 206.272 240.775 206.261 241.406 206.25C240.412 205.588 239.617 205.41 238.458 205.133C233.798 203.945 230.884 201.532 228.304 197.508C227.134 195.531 226.214 193.409 225.293 191.309C225.196 191.309 225.099 191.309 225 191.309ZM150.879 191.894C150.572 193.147 150.511 193.777 151.043 194.971C151.658 195.923 152.384 196.773 153.143 197.613C153.88 198.472 153.913 199.247 153.883 200.365C153.748 201.467 153.406 201.929 152.636 202.734C149.672 204.606 146.721 205.169 143.266 205.166C142.859 205.169 142.859 205.169 142.444 205.171C141.569 205.175 140.694 205.173 139.819 205.17C139.368 205.169 139.368 205.169 138.907 205.168C133.861 205.153 128.93 204.885 123.925 204.199C123.375 204.128 123.375 204.128 122.813 204.056C117.206 203.33 111.713 202.239 106.206 200.961C105.957 200.904 105.709 200.847 105.453 200.788C104.989 200.682 104.526 200.573 104.063 200.462C102.754 200.162 101.548 199.994 100.195 200.098C100.002 200.291 99.8082 200.484 99.609 200.684C99.609 200.974 99.609 201.264 99.609 201.562C101.477 202.58 103.329 203.199 105.377 203.76C105.808 203.884 105.808 203.884 106.247 204.01C111.567 205.49 117.057 206.237 122.515 207.001C122.829 207.045 123.143 207.089 123.466 207.135C128.103 207.79 132.74 208.436 137.402 208.887C137.607 208.907 137.811 208.927 138.022 208.948C140.442 209.178 142.865 209.214 145.294 209.235C145.579 209.238 145.863 209.242 146.157 209.246C149.524 209.25 151.815 208.381 154.321 206.103C154.647 205.741 154.647 205.741 154.98 205.371C155.228 205.105 155.476 204.839 155.731 204.565C157.351 202.54 157.747 200.649 157.772 198.08C157.437 196.115 156.034 194.93 154.577 193.707C154.416 193.564 154.254 193.421 154.087 193.273C153.043 192.387 152.289 191.99 150.879 191.894Z" fill="black"/>
<path d="M160.254 119.238C160.435 119.383 160.616 119.528 160.803 119.678C161.378 120.174 161.378 120.174 162.011 120.117C161.469 124.578 155.902 129.119 152.553 131.745C145.876 136.845 138.06 139.94 130.198 142.711C129.895 142.818 129.592 142.925 129.279 143.035C127.762 143.568 126.243 144.097 124.722 144.62C111.848 149.07 99.9658 155.083 91.407 165.965C90.7986 166.726 90.1589 167.445 89.5016 168.164C88.6002 169.153 87.7405 170.162 86.9015 171.204C85.4484 172.996 83.9018 174.685 82.3238 176.367C82.1354 176.578 81.9469 176.789 81.7528 177.007C80.5592 178.294 79.2298 179.287 77.7828 180.267C77.602 180.391 77.4212 180.514 77.2349 180.641C74.0558 182.726 70.3716 183.199 66.6703 183.698C58.8967 184.765 53.8607 188.103 49.1466 194.229C48.7768 194.718 48.4106 195.21 48.0465 195.703C47.8471 195.973 47.6477 196.242 47.4422 196.52C46.3494 198.042 45.4004 199.611 44.5309 201.27C44.7144 201.319 44.8979 201.369 45.087 201.421C45.3265 201.492 45.5659 201.563 45.8126 201.636C46.0505 201.704 46.2884 201.772 46.5336 201.842C47.1676 202.148 47.1676 202.148 47.5418 202.702C47.9819 203.987 47.8123 205.26 47.4605 206.543C47.7396 206.505 48.0187 206.467 48.3063 206.427C51.3256 206.095 51.3256 206.095 52.5143 206.873C53.0269 207.715 53.0269 207.715 53.3199 208.502C53.5597 209.256 53.5597 209.256 54.3819 209.564C54.6115 209.631 54.8412 209.697 55.0777 209.766C54.7877 209.862 54.4976 209.959 54.1988 210.059C54.1988 210.252 54.1988 210.445 54.1988 210.645C54.3922 210.741 54.5855 210.838 54.7848 210.938C54.5914 210.938 54.398 210.938 54.1988 210.938C54.3471 211.573 54.4917 212.109 54.7848 212.695C53.2989 212.55 52.1572 212.131 50.9762 211.23C50.0973 210.04 50.0973 210.04 50.0973 209.18C49.5806 209.207 49.5806 209.207 49.0536 209.235C47.7317 209.237 46.8712 208.908 45.7027 208.301C44.9693 207.567 45.0537 207.297 45.0252 206.287C44.9524 205.05 44.9524 205.05 44.128 204.144C43.8742 203.969 43.6205 203.794 43.359 203.613C42.6363 202.361 42.2858 201.312 42.5556 199.861C42.9769 198.617 43.7192 197.588 44.4662 196.518C44.873 195.924 45.2625 195.321 45.6524 194.717C49.097 189.442 53.4751 183.424 59.9415 181.993C61.7949 181.633 63.6567 181.367 65.5319 181.15C72.7309 180.311 78.212 178.155 83.1112 172.538C84.0765 171.315 84.9434 170.033 85.813 168.741C90.439 161.891 96.8903 154.905 104.004 150.586C104.189 150.471 104.375 150.356 104.566 150.237C110.161 146.807 116.287 144.526 122.461 142.383C138.567 136.815 138.567 136.815 152.636 127.441C153.004 127.126 153.004 127.126 153.379 126.805C155.965 124.551 158.276 122.044 160.254 119.238Z" fill="black"/>
<path d="M194.425 70.0057C194.945 70.0158 195.466 70.0236 195.986 70.0303C201.585 70.1117 206.711 70.4548 211.817 72.9488C212.079 73.0712 212.342 73.1935 212.613 73.3196C219.171 76.5984 223.493 82.8956 225.817 89.6904C227.461 94.7835 227.759 100.154 227.637 105.468C226.767 105.468 225.897 105.468 225 105.468C224.984 104.841 224.984 104.841 224.967 104.2C224.671 94.7792 223.342 85.4931 216.213 78.6823C211.096 74.3094 204.934 72.9535 198.356 72.6322C197.716 72.6008 197.075 72.5649 196.435 72.5282C187.433 72.0312 180.03 73.3244 173.145 79.3941C166.405 86.1959 165.832 95.8869 164.942 104.882C164.071 104.882 163.201 104.882 162.305 104.882C162.066 95.1555 164.192 85.2737 171.02 77.9636C172.416 76.6522 173.931 75.5233 175.488 74.4137C175.84 74.1593 175.84 74.1593 176.199 73.8998C179.367 71.8045 183.463 70.7075 187.207 70.3121C187.51 70.28 187.812 70.2479 188.124 70.2148C190.225 70.0252 192.316 69.9639 194.425 70.0057Z" fill="black"/>
<path d="M195.703 114.551C196.363 115.159 196.363 115.159 197.04 115.924C198.849 117.817 201.259 119.404 203.95 119.57C205.237 119.566 206.447 119.498 207.715 119.238C207.521 119.818 207.328 120.399 207.129 120.996C206.851 121.014 206.573 121.032 206.287 121.051C204.758 121.267 203.499 122.045 202.148 122.754C198.217 124.697 193.661 125.295 189.417 123.941C188.31 123.483 187.283 122.911 186.246 122.315C185.062 121.661 183.823 121.073 182.52 120.703C182.326 120.8 182.133 120.897 181.934 120.996C181.837 120.513 181.74 120.029 181.641 119.531C181.899 119.545 182.158 119.559 182.425 119.573C186.286 119.689 189.347 118.705 192.2 116.043C192.552 115.689 192.899 115.331 193.239 114.966C194.072 114.129 194.615 114.201 195.703 114.551Z" fill="black"/>
<path d="M222.949 106.055C223.071 108.404 222.615 110.514 222.07 112.793C222.554 112.89 223.037 112.987 223.535 113.086C223.724 112.189 223.914 111.292 224.103 110.394C224.183 110.015 224.183 110.015 224.265 109.627C224.515 108.437 224.765 107.248 225 106.055C225.87 106.055 226.74 106.055 227.637 106.055C227.507 108.926 227.319 111.725 226.758 114.551C226.186 114.389 225.613 114.227 225.041 114.065C224.41 113.921 224.41 113.921 223.787 114.131C223.607 114.173 223.427 114.215 223.242 114.258C223.049 114.065 222.855 113.871 222.656 113.672C222.27 113.672 221.883 113.672 221.484 113.672C221.054 114.102 221.054 114.102 220.729 114.697C220.601 114.909 220.472 115.12 220.34 115.338C220.145 115.674 220.145 115.674 219.946 116.016C219.812 116.239 219.677 116.463 219.539 116.693C219.207 117.247 218.879 117.802 218.555 118.36C217.679 117.945 217.204 117.624 216.632 116.84C215.481 115.424 213.96 114.584 212.402 113.672C212.596 112.802 212.789 111.932 212.988 111.035C212.698 111.132 212.408 111.229 212.109 111.328C212.206 110.942 212.303 110.555 212.402 110.156C215.105 110.628 217.692 111.411 220.312 112.207C219.483 111.925 218.653 111.645 217.822 111.365C217.59 111.286 217.359 111.207 217.12 111.126C215.657 110.634 214.197 110.218 212.695 109.863C212.502 109.187 212.309 108.51 212.109 107.813C211.819 107.958 211.819 107.958 211.523 108.106C211.523 107.816 211.523 107.526 211.523 107.227C211.04 107.227 210.557 107.227 210.059 107.227C210.059 107.13 210.059 107.033 210.059 106.934C211.518 106.807 212.977 106.682 214.436 106.558C214.932 106.516 215.427 106.473 215.923 106.43C216.638 106.368 217.354 106.308 218.069 106.247C218.288 106.228 218.507 106.209 218.732 106.189C220.143 106.071 221.533 106.038 222.949 106.055Z" fill="black"/>
<path d="M190.137 208.301C190.137 208.688 190.137 209.074 190.137 209.473C190.33 209.473 190.523 209.473 190.723 209.473C190.723 209.279 190.723 209.086 190.723 208.887C191.073 208.893 191.424 208.899 191.785 208.905C192.826 208.907 193.8 208.799 194.824 208.594C193.937 209.311 193.044 209.793 192.004 210.26C191.723 210.388 191.441 210.516 191.151 210.648C190.43 210.938 190.43 210.938 189.844 210.938C189.783 211.3 189.723 211.663 189.661 212.036C188.644 216.532 185.494 220.366 181.722 222.899C179.737 224.121 179.737 224.121 179.004 224.121C179.004 223.831 179.004 223.541 179.004 223.242C179.855 222.874 180.409 222.656 181.348 222.656C181.348 222.27 181.348 221.883 181.348 221.484C181.831 221.484 182.314 221.484 182.812 221.484C182.441 220.338 182.077 219.788 181.055 219.141C181.426 218.869 181.426 218.869 181.805 218.591C184.167 216.59 185.326 213.86 186.48 211.067C186.914 210.059 186.914 210.059 187.5 209.18C187.79 209.18 188.08 209.18 188.379 209.18C188.379 208.986 188.379 208.793 188.379 208.594C189.258 208.301 189.258 208.301 190.137 208.301Z" fill="black"/>
<path d="M166.7 105.762C169.329 105.687 171.908 105.922 174.518 106.202C174.927 106.244 175.336 106.286 175.744 106.329C176.734 106.431 177.723 106.535 178.711 106.641C178.125 107.032 177.539 107.422 176.954 107.813C176.738 108.858 176.738 108.858 176.661 109.864C176.488 109.912 176.315 109.961 176.138 110.011C175.341 110.236 174.545 110.462 173.749 110.688C173.342 110.802 173.342 110.802 172.927 110.919C171.226 111.403 169.544 111.924 167.872 112.5C167.143 110.215 166.533 108.183 166.7 105.762Z" fill="black"/>
<path d="M199.219 100.195C199.878 100.891 199.878 100.891 200.098 101.66C199.854 102.66 199.658 103.033 198.778 103.588C195.895 104.748 194.025 104.877 191.064 103.989C190.376 103.687 190 103.433 189.551 102.832C189.57 101.764 189.592 101.062 190.32 100.25C193.079 98.8705 196.424 98.8564 199.219 100.195Z" fill="black"/>
<path d="M210.645 90.5271C211.725 91.3315 212.389 92.1386 212.695 93.4567C212.674 94.7811 212.573 95.7191 211.798 96.8076C210.859 97.6265 210.371 97.8365 209.158 97.9028C207.927 97.7904 207.019 97.0157 206.25 96.0935C205.786 94.7022 205.795 93.5843 206.323 92.2116C207.422 90.4854 208.654 90.1468 210.645 90.5271Z" fill="black"/>
<path d="M177.539 110.449C177.539 110.932 177.539 111.416 177.539 111.914C177.394 111.334 177.394 111.334 177.246 110.742C177.053 110.839 176.859 110.935 176.66 111.035C176.701 111.216 176.742 111.397 176.784 111.583C176.898 112.48 176.904 113.088 176.66 113.965C175.843 114.77 174.992 115.364 174.028 115.984C173.148 116.599 172.595 117.2 171.973 118.066C171.003 117.658 170.514 117.215 169.904 116.363C169.68 116.052 169.68 116.052 169.452 115.735C168.993 115.063 168.563 114.381 168.164 113.672C167.584 113.768 167.004 113.865 166.406 113.965C166.31 113.771 166.213 113.578 166.113 113.379C168.285 112.648 170.464 111.943 172.65 111.255C172.992 111.144 173.333 111.034 173.685 110.92C174.013 110.818 174.341 110.715 174.679 110.609C174.975 110.515 175.272 110.421 175.577 110.324C176.372 110.155 176.785 110.175 177.539 110.449Z" fill="black"/>
<path d="M181.586 90.3602C182.673 90.6437 183.214 91.1829 183.984 91.9921C184.528 93.0798 184.408 94.3207 184.277 95.5078C183.775 96.5492 183.406 97.0789 182.428 97.6867C181.365 97.9091 180.64 97.8398 179.59 97.5585C178.65 96.7621 177.922 96.1289 177.741 94.8818C177.672 93.5037 177.706 92.5043 178.546 91.3696C179.482 90.4354 180.285 90.2591 181.586 90.3602Z" fill="black"/>
<path d="M160.84 119.824C161.227 119.921 161.613 120.018 162.012 120.117C161.845 121.26 161.516 122.033 160.876 122.992C160.726 123.223 160.576 123.455 160.421 123.693C160.193 123.953 160.193 123.953 159.961 124.219C159.671 124.219 159.381 124.219 159.082 124.219C158.985 124.412 158.889 124.605 158.789 124.805C158.306 124.708 157.822 124.611 157.324 124.512C157.416 123.944 157.416 123.944 157.617 123.34C157.907 123.243 158.197 123.146 158.496 123.047C158.799 122.565 159.09 122.075 159.375 121.582C159.846 120.979 160.341 120.404 160.84 119.824Z" fill="black"/>
<path d="M175.195 75C175.679 75.0967 176.162 75.1934 176.66 75.293C176.66 75.4863 176.66 75.6797 176.66 75.8789C176.307 76.1599 176.307 76.1599 175.946 76.4465C175.126 76.9952 175.126 76.9952 174.902 77.9297C174.382 78.1025 174.382 78.1025 173.749 78.2043C172.762 78.3857 172.762 78.3857 172.119 79.1382C172.071 79.3195 172.022 79.5007 171.973 79.6875C171.683 79.6875 171.393 79.6875 171.094 79.6875C171.387 79.1016 171.68 78.5156 171.973 77.9297C171.779 77.833 171.586 77.7363 171.387 77.6367C172.901 76.1944 172.901 76.1944 174.133 76.0803C174.387 76.1105 174.641 76.1407 174.902 76.1719C174.999 75.7852 175.096 75.3984 175.195 75Z" fill="black"/>
<path d="M219.547 79.5752C220.571 79.7252 220.813 80.0814 221.429 80.8958C222.096 81.8092 222.351 82.2268 222.491 83.3678C222.449 83.6034 222.407 83.8391 222.363 84.0819C222.557 84.0819 222.75 84.0819 222.949 84.0819C222.949 84.2752 222.949 84.4686 222.949 84.6678C222.659 84.7645 222.369 84.8612 222.07 84.9608C222.07 84.7674 222.07 84.5741 222.07 84.3748C221.78 84.3748 221.49 84.3748 221.191 84.3748C221.155 84.0486 221.155 84.0486 221.118 83.7157C220.857 82.7566 220.441 82.4062 219.727 81.7381C219.727 81.5448 219.727 81.3514 219.727 81.1522C219.437 81.2489 219.146 81.3456 218.848 81.4452C218.654 81.0584 218.461 80.6717 218.262 80.2733C218.848 79.6873 218.848 79.6873 219.547 79.5752Z" fill="black"/>
<path d="M125.684 141.504C125.684 141.697 125.684 141.891 125.684 142.09C125.297 142.09 124.91 142.09 124.512 142.09C124.512 142.283 124.512 142.477 124.512 142.676C124.104 142.794 124.104 142.794 123.688 142.914C122.824 143.236 122.444 143.445 121.875 144.141C122.056 144.177 122.238 144.213 122.424 144.25C123.047 144.434 123.047 144.434 123.633 145.02C123.261 145.168 122.889 145.314 122.516 145.459C122.309 145.541 122.101 145.622 121.888 145.706C121.289 145.898 121.289 145.898 120.41 145.898C120.41 145.415 120.41 144.932 120.41 144.434C120.156 144.37 120.156 144.37 119.897 144.305C119.287 144.153 118.677 144 118.066 143.848C119.226 143.456 120.385 143.066 121.545 142.676C121.876 142.564 122.206 142.452 122.547 142.337C122.862 142.231 123.177 142.126 123.502 142.017C123.794 141.918 124.085 141.82 124.386 141.719C125.098 141.504 125.098 141.504 125.684 141.504Z" fill="black"/>
<path d="M193.359 70.6055C195.583 70.6055 197.807 70.6055 200.098 70.6055C199.808 70.7021 199.518 70.7988 199.219 70.8984C199.412 71.3818 199.605 71.8652 199.805 72.3633C198.064 72.2666 196.324 72.1699 194.531 72.0703C194.531 71.6836 194.531 71.2969 194.531 70.8984C194.145 70.8018 193.758 70.7051 193.359 70.6055Z" fill="black"/>
<path d="M228.516 121.582C229.104 122.465 229.314 123.11 229.578 124.127C229.654 124.418 229.73 124.71 229.809 125.01C229.865 125.232 229.922 125.454 229.98 125.684C229.69 125.587 229.4 125.49 229.102 125.391C229.005 125.971 228.908 126.551 228.809 127.148C228.422 126.955 228.035 126.762 227.637 126.562C227.54 126.853 227.443 127.143 227.344 127.441C227.196 126.825 227.05 126.209 226.904 125.592C226.782 125.077 226.782 125.077 226.657 124.552C226.465 123.633 226.465 123.633 226.465 122.754C227.198 123.121 227.656 123.633 228.223 124.219C228.319 123.349 228.416 122.479 228.516 121.582Z" fill="black"/>
<path d="M201.562 203.906C202.954 204.163 202.954 204.163 203.613 204.492C203.517 204.976 203.42 205.459 203.32 205.957C202.881 205.554 202.881 205.554 202.441 205.078C202.441 204.885 202.441 204.691 202.441 204.492C198.961 206.522 198.961 206.522 195.41 208.594C195.217 208.304 195.023 208.014 194.824 207.715C195.693 206.759 196.42 206.3 197.717 206.158C198.642 205.955 198.876 205.81 199.548 205.206C200.391 204.492 200.391 204.492 201.562 204.492C201.562 204.299 201.562 204.105 201.562 203.906Z" fill="black"/>
<path d="M171.973 77.6367C172.166 77.7334 172.359 77.8301 172.559 77.9297C172.211 78.3466 171.864 78.7634 171.515 79.1794C171.237 79.5151 170.962 79.8539 170.691 80.1956C170.349 80.6225 169.99 81.0351 169.629 81.4453C169.436 81.4453 169.242 81.4453 169.043 81.4453C168.97 81.6508 168.898 81.8562 168.823 82.0679C168.407 83.0259 167.908 83.8304 167.285 84.668C167.092 84.668 166.898 84.668 166.699 84.668C166.699 84.958 166.699 85.248 166.699 85.5469C166.506 85.5469 166.313 85.5469 166.113 85.5469C166.562 84.2806 167.215 83.1884 167.944 82.0679C168.062 81.8869 168.179 81.7059 168.3 81.5195C170.537 78.1153 170.537 78.1153 171.973 77.6367Z" fill="black"/>
<path d="M117.188 209.473C118.158 209.505 119.128 209.543 120.099 209.583C120.506 209.596 120.506 209.596 120.921 209.61C122.462 209.675 123.885 209.851 125.382 210.218C126.224 210.407 127.057 210.455 127.917 210.498C129.314 210.588 130.517 210.77 131.836 211.23C131.836 211.327 131.836 211.424 131.836 211.523C128.477 211.373 125.196 210.994 121.875 210.48C121.417 210.41 120.958 210.341 120.499 210.272C119.395 210.105 118.291 209.936 117.188 209.766C117.188 209.669 117.188 209.572 117.188 209.473Z" fill="black"/>
<path d="M58.5938 182.813C58.1104 183.006 57.627 183.2 57.1289 183.399C57.1289 183.592 57.1289 183.786 57.1289 183.985C56.3965 184.424 56.3965 184.424 55.6641 184.864C55.4224 185.117 55.1807 185.371 54.9316 185.633C54.1586 186.367 53.7766 186.532 52.7344 186.622C52.7162 186.797 52.6981 186.972 52.6794 187.153C52.342 188.061 51.8357 188.274 50.9766 188.672C50.7832 188.576 50.5898 188.479 50.3906 188.379C56.6544 181.843 56.6544 181.843 58.5938 182.813Z" fill="black"/>
<path d="M76.1719 178.418C76.3652 178.515 76.5586 178.611 76.7578 178.711C76.7578 179.001 76.7578 179.291 76.7578 179.59C77.2412 179.396 77.7246 179.203 78.2227 179.004C78.416 179.197 78.6094 179.391 78.8086 179.59C78.206 179.977 77.6016 180.361 76.9958 180.743C76.8265 180.853 76.6571 180.962 76.4826 181.075C75.5062 181.687 74.6843 182.09 73.5352 182.227C73.5352 181.937 73.5352 181.646 73.5352 181.348C73.3418 181.251 73.1484 181.154 72.9492 181.055C73.5293 180.958 74.1094 180.861 74.707 180.762C74.8037 180.472 74.9004 180.182 75 179.883C75.1934 179.786 75.3867 179.689 75.5859 179.59C75.3926 179.396 75.1992 179.203 75 179.004C75.5493 178.693 75.5493 178.693 76.1719 178.418ZM76.1719 179.883C76.4648 180.469 76.4648 180.469 76.4648 180.469L76.1719 179.883Z" fill="black"/>
<path d="M179.297 72.3633C179.49 72.46 179.684 72.5566 179.883 72.6562C179.883 72.7529 179.883 72.8496 179.883 72.9492C181.039 73.0018 181.816 72.9766 182.812 72.3633C182.812 72.5566 182.812 72.75 182.812 72.9492C183.103 73.0459 183.393 73.1426 183.691 73.2422C183.493 73.3098 183.294 73.3774 183.089 73.447C181.158 74.1238 179.347 74.9219 177.539 75.8789C177.346 75.3955 177.152 74.9121 176.953 74.4141C177.823 74.5591 177.823 74.5591 178.711 74.707C178.711 74.2236 178.711 73.7402 178.711 73.2422C178.518 73.1455 178.324 73.0488 178.125 72.9492C178.674 72.6379 178.674 72.6379 179.297 72.3633Z" fill="black"/>
<path d="M133.594 225.586C134.754 225.586 135.914 225.586 137.109 225.586C137.109 225.683 137.109 225.779 137.109 225.879C141.75 225.976 146.391 226.072 151.172 226.172C151.172 226.269 151.172 226.365 151.172 226.465C145.274 226.465 139.377 226.465 133.301 226.465C133.397 226.175 133.494 225.885 133.594 225.586Z" fill="black"/>
<path d="M111.914 146.484C112.688 146.484 113.461 146.484 114.258 146.484C114.258 146.678 114.258 146.871 114.258 147.07C113.678 147.264 113.098 147.457 112.5 147.656C112.79 148.091 112.79 148.091 113.086 148.535C112.899 148.62 112.711 148.704 112.518 148.792C111.87 149.071 111.87 149.071 111.621 149.707C110.925 149.615 110.925 149.615 110.156 149.414C109.963 149.124 109.77 148.834 109.57 148.535C109.715 148.436 109.86 148.337 110.009 148.235C110.196 148.105 110.384 147.974 110.577 147.839C110.764 147.71 110.951 147.581 111.144 147.448C111.661 147.093 111.661 147.093 111.914 146.484Z" fill="black"/>
<path d="M207.422 71.1914C207.605 71.7225 207.605 71.7225 207.715 72.3633C207.425 72.7984 207.425 72.7984 207.129 73.2422C206.495 73.3281 206.495 73.3281 205.774 73.2972C205.534 73.2892 205.295 73.2813 205.048 73.2731C204.773 73.2578 204.773 73.2578 204.492 73.2422C204.299 72.7588 204.105 72.2754 203.906 71.7774C205.049 71.0156 206.096 71.1473 207.422 71.1914Z" fill="black"/>
<path d="M86.4258 169.043C87.1509 169.333 87.1509 169.333 87.8906 169.629C87.4007 170.789 86.6124 171.684 85.8032 172.632C85.6661 172.794 85.529 172.957 85.3878 173.124C85.0512 173.522 84.7133 173.919 84.375 174.316C84.1816 174.123 83.9883 173.93 83.7891 173.73C83.8876 172.746 84.3073 172.113 84.9609 171.387C85.1664 171.302 85.3718 171.218 85.5835 171.13C85.7648 171.022 85.946 170.913 86.1328 170.801C86.3718 169.905 86.3718 169.905 86.4258 169.043Z" fill="black"/>
<path d="M97.2656 156.445C97.7051 156.848 97.7051 156.848 98.1445 157.324C98.1445 157.518 98.1445 157.711 98.1445 157.91C97.9512 157.91 97.7578 157.91 97.5586 157.91C97.5586 158.104 97.5586 158.297 97.5586 158.496C97.0752 158.496 96.5918 158.496 96.0938 158.496C96.1904 158.883 96.2871 159.27 96.3867 159.668C96.1934 159.668 96 159.668 95.8008 159.668C95.7041 159.861 95.6074 160.055 95.5078 160.254C94.9277 160.061 94.3477 159.867 93.75 159.668C94.7212 158.45 95.5634 157.463 96.9727 156.738C97.0693 156.642 97.166 156.545 97.2656 156.445Z" fill="black"/>
<path d="M214.746 76.1719C214.939 76.1719 215.133 76.1719 215.332 76.1719C215.429 76.3652 215.525 76.5586 215.625 76.7578C215.915 76.7578 216.205 76.7578 216.504 76.7578C216.504 77.1445 216.504 77.5312 216.504 77.9297C216.697 77.9297 216.891 77.9297 217.09 77.9297C217.38 78.3647 217.38 78.3647 217.676 78.8086C218.427 79.0224 218.427 79.0224 219.141 79.1016C218.947 79.4883 218.754 79.875 218.555 80.2734C217.676 80.2734 217.676 80.2734 217.118 79.8019C216.922 79.595 216.725 79.388 216.522 79.1748C216.326 78.9709 216.13 78.7669 215.928 78.5568C215.732 78.3499 215.535 78.1429 215.332 77.9297C214.942 77.5381 214.552 77.1471 214.16 76.7578C214.354 76.5645 214.547 76.3711 214.746 76.1719Z" fill="black"/>
<path d="M82.3242 173.438C82.9043 173.728 83.4844 174.018 84.082 174.316C82.7905 175.866 81.4232 177.301 79.9805 178.711C79.8838 178.324 79.7871 177.938 79.6875 177.539C79.9775 177.442 80.2676 177.346 80.5664 177.246C80.5664 177.053 80.5664 176.859 80.5664 176.66C81.0547 176.27 81.543 175.879 82.0312 175.488C82.0312 175.295 82.0312 175.102 82.0312 174.902C81.8379 174.709 81.6445 174.516 81.4453 174.316C81.7354 174.026 82.0254 173.736 82.3242 173.438Z" fill="black"/>
<path d="M130.371 218.848C130.758 218.848 131.145 218.848 131.543 218.848C131.222 220.774 131.222 220.774 130.664 221.484C129.602 221.704 129.602 221.704 128.613 221.777C128.517 221.391 128.42 221.004 128.32 220.605C129.382 219.727 129.382 219.727 130.371 219.727C130.371 219.437 130.371 219.146 130.371 218.848Z" fill="black"/>
<path d="M243.457 202.441C245.939 202.585 248.277 203.048 250.69 203.632C251.213 203.755 251.213 203.755 251.747 203.882C252.597 204.083 253.447 204.287 254.297 204.492C254.297 204.589 254.297 204.686 254.297 204.785C253.827 204.801 253.357 204.812 252.887 204.822C252.625 204.829 252.364 204.835 252.094 204.842C251.367 204.785 251.367 204.785 250.488 204.199C249.73 204.025 248.984 203.874 248.218 203.741C248.015 203.705 247.813 203.668 247.604 203.63C246.617 203.453 245.64 203.301 244.643 203.184C244.348 203.132 244.053 203.081 243.75 203.027C243.653 202.834 243.557 202.641 243.457 202.441Z" fill="black"/>
<path d="M155.566 124.805C155.663 124.998 155.76 125.191 155.859 125.391C155.763 125.681 155.666 125.971 155.566 126.27C155.373 126.27 155.18 126.27 154.98 126.27C154.926 126.831 154.926 126.831 154.871 127.405C154.761 128.54 154.761 128.54 154.102 129.199C153.333 129.382 153.333 129.382 152.637 129.492C153.023 127.433 154.111 126.261 155.566 124.805Z" fill="black"/>
<path d="M180.176 112.5C180.115 112.669 180.055 112.838 179.993 113.013C179.857 113.824 180.05 114.154 180.469 114.844C180.179 115.134 179.889 115.424 179.59 115.723C178.455 115.21 178.455 115.21 178.125 114.551C177.835 114.357 177.545 114.164 177.246 113.965C177.623 113.719 178.002 113.475 178.381 113.232C178.592 113.096 178.803 112.961 179.02 112.82C179.59 112.5 179.59 112.5 180.176 112.5Z" fill="black"/>
<path d="M53.3203 209.473C54.1904 209.618 54.1904 209.618 55.0781 209.766C54.7881 209.862 54.498 209.959 54.1992 210.059C54.1992 210.252 54.1992 210.445 54.1992 210.645C54.3926 210.741 54.5859 210.838 54.7852 210.938C54.5918 210.938 54.3984 210.938 54.1992 210.938C54.3475 211.573 54.4921 212.109 54.7852 212.695C53.4993 212.546 52.6356 212.249 51.5625 211.523C51.947 211.084 51.947 211.084 52.4414 210.645C52.7314 210.645 53.0215 210.645 53.3203 210.645C53.3203 210.354 53.3203 210.064 53.3203 209.766C53.3203 209.669 53.3203 209.572 53.3203 209.473Z" fill="black"/>
<path d="M46.875 203.32C47.0684 203.417 47.2617 203.514 47.4609 203.613C47.4609 204.29 47.4609 204.967 47.4609 205.664C47.2676 205.664 47.0742 205.664 46.875 205.664C46.7783 206.341 46.6816 207.018 46.582 207.715C46.1953 207.425 45.8086 207.135 45.4102 206.836C45.5496 205.371 46.0054 204.499 46.875 203.32Z" fill="black"/>
<path d="M137.402 137.402C137.112 137.499 136.822 137.596 136.523 137.695C136.427 138.565 136.33 139.436 136.23 140.332C135.248 140.005 134.674 139.527 133.887 138.867C134.273 138.674 134.66 138.48 135.059 138.281C134.962 138.088 134.865 137.895 134.766 137.695C135.632 137.262 136.448 137.385 137.402 137.402ZM133.887 139.746C134.177 139.843 134.467 139.939 134.766 140.039C134.572 140.232 134.379 140.426 134.18 140.625C134.083 140.335 133.986 140.045 133.887 139.746Z" fill="black"/>
<path d="M65.332 211.523C62.443 213.449 58.4037 213.09 55.0781 212.988C55.0781 212.891 55.0781 212.795 55.0781 212.695C55.5245 212.684 55.5245 212.684 55.9799 212.672C58.3418 212.584 60.2957 212.308 62.5271 211.461C63.5851 211.137 64.277 211.235 65.332 211.523Z" fill="black"/>
<path d="M93.457 161.133C93.6504 161.229 93.8437 161.326 94.043 161.426C93.9463 161.909 93.8496 162.393 93.75 162.891C93.3633 162.891 92.9766 162.891 92.5781 162.891C91.9334 163.164 91.9334 163.164 91.4062 163.477C91.5029 163.96 91.5996 164.443 91.6992 164.941C91.0225 164.941 90.3457 164.941 89.6484 164.941C89.5518 165.135 89.4551 165.328 89.3555 165.527C89.3555 165.141 89.3555 164.754 89.3555 164.355C89.6455 164.355 89.9355 164.355 90.2344 164.355C90.3311 164.065 90.4277 163.775 90.5273 163.477C90.7207 163.38 90.9141 163.283 91.1133 163.184C91.3066 162.894 91.5 162.604 91.6992 162.305C92.2761 161.901 92.8613 161.508 93.457 161.133Z" fill="black"/>
<path d="M142.969 214.453C142.485 214.55 142.002 214.647 141.504 214.746C141.504 214.94 141.504 215.133 141.504 215.332C141.117 215.332 140.73 215.332 140.332 215.332C140.332 215.526 140.332 215.719 140.332 215.918C139.888 215.973 139.888 215.973 139.435 216.028C138.282 216.184 138.282 216.184 137.201 216.541C136.244 216.794 135.956 216.782 135.059 216.504C135.949 216.166 136.84 215.831 137.732 215.497C137.983 215.402 138.233 215.306 138.492 215.208C141.92 213.929 141.92 213.929 142.969 214.453Z" fill="black"/>
<path d="M70.6055 180.762C70.7988 180.858 70.9922 180.955 71.1914 181.055C71.0947 181.248 70.998 181.441 70.8984 181.641C71.1885 181.834 71.4785 182.027 71.7773 182.227C70.3213 182.94 69.3322 183.207 67.6758 183.105C67.5791 182.912 67.4824 182.719 67.3828 182.52C67.5762 182.52 67.7695 182.52 67.9688 182.52C67.9688 182.326 67.9688 182.133 67.9688 181.934C68.3947 181.729 68.8222 181.529 69.2505 181.329C69.6074 181.161 69.6074 181.161 69.9715 180.989C70.2853 180.877 70.2853 180.877 70.6055 180.762Z" fill="black"/>
<path d="M92.5781 162.305C92.9648 162.498 93.3516 162.691 93.75 162.891C92.8784 164.265 91.9002 165.483 90.8203 166.699C90.5303 166.506 90.2402 166.313 89.9414 166.113C90.2314 165.92 90.5215 165.727 90.8203 165.527C90.8203 165.237 90.8203 164.947 90.8203 164.648C91.0137 164.648 91.207 164.648 91.4062 164.648C91.4062 164.262 91.4062 163.875 91.4062 163.477C91.9922 162.817 91.9922 162.817 92.5781 162.305Z" fill="black"/>
<path d="M205.078 115.43C205.368 115.526 205.658 115.623 205.957 115.723C205.86 116.013 205.764 116.303 205.664 116.602C206.079 116.61 206.494 116.615 206.909 116.62C207.14 116.623 207.371 116.627 207.61 116.63C208.274 116.603 208.837 116.494 209.473 116.309C209.569 116.502 209.666 116.695 209.766 116.895C209.247 117.092 208.729 117.286 208.209 117.48C207.92 117.589 207.631 117.698 207.334 117.81C206.543 118.066 206.543 118.066 205.664 118.066C205.023 117.334 205.023 117.334 204.492 116.602C204.688 116.211 204.883 115.82 205.078 115.43Z" fill="black"/>
<path d="M228.223 189.844C228.851 190.787 229.132 191.626 229.486 192.7C230.052 194.326 230.64 195.557 231.738 196.875C231.642 197.068 231.545 197.262 231.445 197.461C231.059 197.268 230.672 197.074 230.273 196.875C230.273 196.585 230.273 196.295 230.273 195.996C230.08 195.996 229.887 195.996 229.688 195.996C229.651 195.76 229.615 195.525 229.578 195.282C229.517 195.034 229.457 194.786 229.395 194.531C229.201 194.435 229.008 194.338 228.809 194.238C228.623 193.546 228.623 193.546 228.479 192.682C228.43 192.399 228.381 192.116 228.33 191.825C228.223 191.016 228.223 191.016 228.223 189.844Z" fill="black"/>
<path d="M160.254 119.238C160.351 119.238 160.447 119.238 160.547 119.238C160.602 119.916 160.602 119.916 160.547 120.703C160.162 121.124 160.162 121.124 159.668 121.582C159.46 122.035 159.46 122.035 159.247 122.498C158.789 123.34 158.789 123.34 158.221 123.56C157.922 123.596 157.922 123.596 157.617 123.633C157.222 123.819 156.83 124.013 156.445 124.219C157.552 122.439 158.873 120.813 160.254 119.238Z" fill="black"/>
<path d="M44.8242 205.664C45.4102 205.957 45.4102 205.957 45.8313 206.708C45.9824 206.943 46.1334 207.179 46.2891 207.422C46.5791 207.422 46.8691 207.422 47.168 207.422C47.168 207.712 47.168 208.002 47.168 208.301C48.1348 208.494 49.1016 208.687 50.0977 208.887C50.0977 208.983 50.0977 209.08 50.0977 209.18C48.3446 209.272 47.2642 209.113 45.7031 208.301C44.8939 207.492 44.9477 206.775 44.8242 205.664Z" fill="black"/>
<path d="M194.824 208.887C194.105 209.23 193.384 209.572 192.664 209.912C192.459 210.01 192.254 210.108 192.043 210.209C190.496 210.938 190.496 210.938 189.844 210.938C189.747 211.131 189.65 211.324 189.551 211.524C189.551 211.234 189.551 210.944 189.551 210.645C189.744 210.645 189.937 210.645 190.137 210.645C190.137 210.258 190.137 209.871 190.137 209.473C190.33 209.473 190.523 209.473 190.723 209.473C190.723 209.28 190.723 209.086 190.723 208.887C191.595 208.901 191.595 208.901 192.468 208.916C194.604 208.813 194.604 208.813 194.824 208.887Z" fill="black"/>
<path d="M88.4766 199.512C89.7334 199.608 90.9902 199.705 92.2852 199.805C92.1885 200.095 92.0918 200.385 91.9922 200.684C91.0263 201.079 90.0189 201.006 88.9893 200.995C88.6735 200.992 88.3578 200.99 88.0325 200.987C87.7923 200.983 87.5522 200.98 87.3047 200.977C87.6914 200.88 88.0781 200.783 88.4766 200.684C88.4766 200.297 88.4766 199.91 88.4766 199.512Z" fill="black"/>
<path d="M44.2383 201.562C46.6445 201.618 46.6445 201.618 47.4792 202.478C47.8063 203.481 47.8156 204.323 47.7539 205.371C47.6572 205.371 47.5605 205.371 47.4609 205.371C47.2676 204.694 47.0742 204.018 46.875 203.32C46.1982 203.417 45.5215 203.514 44.8242 203.613C44.9209 203.13 45.0176 202.646 45.1172 202.148C44.8271 201.955 44.5371 201.762 44.2383 201.562Z" fill="black"/>
<path d="M162.597 98.4375C162.694 98.4375 162.791 98.4375 162.89 98.4375C163.205 100.561 163.495 102.79 162.89 104.883C162.697 104.883 162.504 104.883 162.304 104.883C162.296 104.138 162.291 103.394 162.286 102.649C162.284 102.44 162.281 102.231 162.279 102.016C162.273 100.789 162.355 99.6466 162.597 98.4375Z" fill="black"/>
<path d="M184.863 214.746C185.057 214.939 185.25 215.133 185.449 215.332C185.31 215.556 185.171 215.779 185.028 216.01C184.541 216.786 184.541 216.786 184.277 217.676C183.794 217.976 183.305 218.268 182.812 218.555C182.411 218.934 182.017 219.322 181.641 219.727C181.447 219.533 181.254 219.34 181.055 219.141C181.302 218.959 181.55 218.778 181.805 218.591C183.097 217.528 183.953 216.133 184.863 214.746Z" fill="black"/>
<path d="M49.5117 189.551C49.6084 189.938 49.7051 190.324 49.8047 190.723C49.5146 190.868 49.5146 190.868 49.2188 191.016C49.1221 191.306 49.0254 191.596 48.9258 191.895C49.3125 191.991 49.6992 192.088 50.0977 192.188C49.5176 192.478 49.5176 192.478 48.9258 192.773C48.9258 192.967 48.9258 193.16 48.9258 193.359C48.5391 193.456 48.1523 193.553 47.7539 193.652C48.1437 190.965 48.1437 190.965 48.9624 189.954C49.1437 189.821 49.325 189.688 49.5117 189.551Z" fill="black"/>
<path d="M70.6055 180.469C71.3044 180.637 71.9727 180.827 72.6562 181.055C72.8496 181.538 73.043 182.021 73.2422 182.52C72.082 182.713 70.9219 182.906 69.7266 183.105C70.1133 182.719 70.5 182.332 70.8984 181.934C70.8573 181.141 70.8573 181.141 70.6055 180.469Z" fill="black"/>
<path d="M227.93 169.336C228.22 169.336 228.51 169.336 228.809 169.336C228.35 170.981 227.882 172.52 227.051 174.023C226.758 173.145 226.758 173.145 227.051 172.266C226.857 172.266 226.664 172.266 226.465 172.266C226.562 171.686 226.658 171.105 226.758 170.508C226.854 170.701 226.951 170.895 227.051 171.094C227.244 170.997 227.437 170.9 227.637 170.801C227.829 170.06 227.829 170.06 227.93 169.336Z" fill="black"/>
<path d="M151.831 128.705C152 128.771 152.169 128.838 152.344 128.906C152.15 129.486 151.957 130.066 151.758 130.664C151.081 130.664 150.404 130.664 149.707 130.664C149.61 130.954 149.514 131.244 149.414 131.543C149.221 131.35 149.027 131.156 148.828 130.957C150.656 128.542 150.656 128.542 151.831 128.705Z" fill="black"/>
<path d="M159.375 123.633C159.472 123.923 159.568 124.213 159.668 124.512C159.184 125.238 159.184 125.238 158.514 126.031C158.294 126.295 158.074 126.559 157.847 126.831C157.675 127.033 157.502 127.234 157.324 127.441C157.034 127.151 156.744 126.861 156.445 126.562C156.847 125.636 157.028 125.393 157.91 124.805C158.2 124.805 158.49 124.805 158.789 124.805C158.982 124.418 159.176 124.031 159.375 123.633Z" fill="black"/>
<path d="M186.328 213.867C186.712 214.636 186.591 215.107 186.493 215.955C186.463 216.221 186.433 216.488 186.403 216.763C186.378 216.967 186.353 217.172 186.328 217.383C186.038 217.479 185.748 217.576 185.449 217.676C185.449 217.386 185.449 217.096 185.449 216.797C185.159 216.7 184.869 216.604 184.57 216.504C185.339 214.526 185.339 214.526 186.328 213.867Z" fill="black"/>
<path d="M82.6172 201.855C83.1973 202.049 83.7773 202.242 84.375 202.441C83.3519 203.495 82.3124 204.469 81.1523 205.371C80.959 205.371 80.7656 205.371 80.5664 205.371C80.7598 204.984 80.9531 204.598 81.1523 204.199C81.3457 204.199 81.5391 204.199 81.7383 204.199C81.8289 203.867 81.9196 203.535 82.0129 203.192C82.3242 202.148 82.3242 202.148 82.6172 201.855Z" fill="black"/>
<path d="M162.305 105.469C162.692 105.565 163.078 105.662 163.477 105.762C163.283 105.762 163.09 105.762 162.891 105.762C162.945 106.022 163 106.281 163.056 106.549C163.306 108.235 163.055 109.936 162.891 111.621C162.305 111.035 162.305 111.035 162.238 110.458C162.241 110.228 162.244 109.997 162.248 109.76C162.249 109.511 162.251 109.262 162.253 109.005C162.258 108.744 162.263 108.484 162.268 108.215C162.271 107.952 162.273 107.69 162.276 107.419C162.283 106.769 162.293 106.119 162.305 105.469Z" fill="black"/>
<path d="M229.688 199.512C230.815 199.673 231.256 200.177 232.031 200.977C232.243 201.073 232.454 201.17 232.672 201.27C233.203 201.562 233.203 201.562 233.423 202.185C233.459 202.457 233.459 202.457 233.496 202.734C232.299 202.734 231.917 202.236 231.05 201.465C230.465 200.874 230.059 200.255 229.688 199.512Z" fill="black"/>
<path d="M122.461 223.242C122.655 223.242 122.848 223.242 123.047 223.242C123.047 223.532 123.047 223.822 123.047 224.121C122.757 224.266 122.757 224.266 122.461 224.414C122.197 224.966 122.197 224.966 121.985 225.604C121.909 225.819 121.833 226.034 121.754 226.255C121.697 226.421 121.641 226.587 121.582 226.758C121.776 226.854 121.969 226.951 122.168 227.051C121.975 227.438 121.782 227.824 121.582 228.223C120.849 227.123 120.864 226.597 120.996 225.293C121.435 224.529 121.837 223.866 122.461 223.242Z" fill="black"/>
<path d="M130.371 218.848C130.371 219.138 130.371 219.428 130.371 219.727C129.791 220.017 129.211 220.307 128.613 220.605C128.613 220.992 128.613 221.379 128.613 221.777C128.227 221.681 127.84 221.584 127.441 221.484C127.441 221.678 127.441 221.871 127.441 222.07C127.248 222.07 127.055 222.07 126.855 222.07C126.952 221.684 127.049 221.297 127.148 220.898C127.342 220.898 127.535 220.898 127.734 220.898C127.746 220.723 127.759 220.548 127.771 220.367C128.027 219.727 128.027 219.727 128.888 219.214C129.785 218.848 129.785 218.848 130.371 218.848Z" fill="black"/>
<path d="M138.281 215.918C138.867 216.504 138.867 216.504 139.16 217.383C138.773 217.286 138.387 217.189 137.988 217.09C137.892 217.283 137.795 217.477 137.695 217.676C137.309 217.482 136.922 217.289 136.523 217.09C136.427 217.38 136.33 217.67 136.23 217.969C135.626 218.17 135.626 218.17 135.059 218.262C135.059 217.778 135.059 217.295 135.059 216.797C135.267 216.758 135.475 216.719 135.689 216.679C135.958 216.627 136.228 216.576 136.505 216.522C136.908 216.446 136.908 216.446 137.319 216.368C137.974 216.276 137.974 216.276 138.281 215.918Z" fill="black"/>
<path d="M97.2656 159.082C96.8018 160.334 95.9456 160.918 94.9219 161.719C94.3418 160.704 94.3418 160.704 93.75 159.668C94.4336 159.668 95.1172 159.668 95.8008 159.668C96.6797 159.082 96.6797 159.082 97.2656 159.082Z" fill="black"/>
<path d="M207.715 119.532C207.521 120.015 207.328 120.498 207.129 120.996C204.953 121.08 204.953 121.08 203.906 120.41C203.906 120.217 203.906 120.024 203.906 119.825C204.431 119.718 204.956 119.615 205.481 119.513C205.919 119.427 205.919 119.427 206.367 119.338C207.129 119.239 207.129 119.239 207.715 119.532Z" fill="black"/>
<path d="M43.3589 201.27C43.9002 201.369 43.9002 201.369 44.5491 201.544C44.8714 201.63 44.8714 201.63 45.2002 201.717C45.4489 201.786 45.4489 201.786 45.7026 201.855C45.4126 202 45.4126 202 45.1167 202.148C44.9256 202.742 44.9256 202.742 44.8237 203.32C44.3356 203.333 43.847 203.332 43.3589 203.32C43.0659 203.027 43.0659 203.027 43.0293 202.295C43.0659 201.562 43.0659 201.562 43.3589 201.27Z" fill="black"/>
<path d="M181.641 119.531C182.801 119.628 183.961 119.725 185.156 119.824C185.06 120.308 184.963 120.791 184.863 121.289C184.701 121.243 184.538 121.198 184.371 121.151C184.159 121.094 183.947 121.037 183.728 120.978C183.517 120.92 183.307 120.862 183.089 120.803C182.498 120.641 182.498 120.641 181.934 120.996C181.837 120.513 181.74 120.029 181.641 119.531Z" fill="black"/>
<path d="M136.523 216.797C136.786 216.951 136.786 216.951 137.054 217.108C137.727 217.48 137.727 217.48 138.574 217.09C138.768 217.283 138.961 217.477 139.16 217.676C138.685 217.872 138.208 218.067 137.732 218.262C137.334 218.425 137.334 218.425 136.929 218.591C136.23 218.848 136.23 218.848 135.645 218.848C135.645 218.558 135.645 218.268 135.645 217.969C135.838 217.969 136.031 217.969 136.23 217.969C136.327 217.582 136.424 217.195 136.523 216.797Z" fill="black"/>
<path d="M184.57 206.836C184.86 206.836 185.15 206.836 185.449 206.836C185.366 207.398 185.28 207.959 185.193 208.521C185.121 208.99 185.121 208.99 185.049 209.468C184.883 210.257 184.677 210.831 184.277 211.523C183.843 208.833 183.843 208.833 184.57 207.422C184.57 207.229 184.57 207.035 184.57 206.836Z" fill="black"/>
<path d="M123.926 142.676C124.219 143.555 124.219 143.555 123.944 144.196C123.841 144.371 123.739 144.546 123.633 144.727C122.859 144.727 122.086 144.727 121.289 144.727C121.78 143.69 122.019 143.323 123.102 142.877C123.374 142.811 123.646 142.744 123.926 142.676Z" fill="black"/>
<path d="M120.996 143.848C121.286 143.944 121.576 144.041 121.875 144.141C122.074 144.183 122.274 144.225 122.479 144.269C123.047 144.434 123.047 144.434 123.633 145.02C123.261 145.168 122.889 145.314 122.516 145.459C122.205 145.581 122.205 145.581 121.888 145.706C121.289 145.898 121.289 145.898 120.41 145.898C120.41 145.415 120.41 144.932 120.41 144.434C120.604 144.434 120.797 144.434 120.996 144.434C120.996 144.24 120.996 144.047 120.996 143.848Z" fill="black"/>
<path d="M168.75 80.8594C168.93 81.3995 168.93 81.3995 169.043 82.0312C168.512 82.7637 168.512 82.7637 167.871 83.4961C167.663 83.8803 167.463 84.2689 167.285 84.668C167.092 84.668 166.898 84.668 166.699 84.668C166.699 84.958 166.699 85.248 166.699 85.5469C166.506 85.5469 166.313 85.5469 166.113 85.5469C166.533 84.387 167.089 83.412 167.761 82.3792C167.946 82.0933 168.131 81.8074 168.322 81.5128C168.534 81.1894 168.534 81.1894 168.75 80.8594Z" fill="black"/>
<path d="M181.348 221.484C181.831 221.484 182.314 221.484 182.812 221.484C182.443 222.593 182.066 222.72 181.073 223.297C180.811 223.452 180.548 223.608 180.278 223.767C179.59 224.121 179.59 224.121 179.004 224.121C179.004 223.831 179.004 223.541 179.004 223.242C179.855 222.874 180.409 222.656 181.348 222.656C181.348 222.27 181.348 221.883 181.348 221.484Z" fill="black"/>
<path d="M180.469 219.434C180.855 219.434 181.242 219.434 181.641 219.434C181.737 219.82 181.834 220.207 181.934 220.605C181.229 220.958 180.776 220.928 179.993 220.917C179.634 220.913 179.634 220.913 179.267 220.909C178.992 220.904 178.992 220.904 178.711 220.898C178.947 220.711 179.182 220.524 179.425 220.331C179.963 219.901 179.963 219.901 180.469 219.434Z" fill="black"/>
<path d="M228.809 195.117C229.12 195.648 229.12 195.648 229.395 196.289C229.298 196.579 229.201 196.869 229.102 197.168C228.908 197.168 228.715 197.168 228.516 197.168C228.419 197.361 228.322 197.555 228.223 197.754C227.765 197.076 227.765 197.076 227.344 196.289C227.44 195.999 227.537 195.709 227.637 195.41C228.241 195.209 228.241 195.209 228.809 195.117Z" fill="black"/>
<path d="M116.602 145.019C115.201 146.466 115.201 146.466 114.274 146.513C113.683 146.503 113.091 146.494 112.5 146.484C113.487 145.621 115.311 144.374 116.602 145.019Z" fill="black"/>
<path d="M86.4258 169.043C87.1509 169.333 87.1509 169.333 87.8906 169.629C87.4351 170.747 86.7082 171.443 85.8398 172.266C85.8821 172.06 85.9244 171.855 85.968 171.643C86.1371 170.779 86.2843 169.912 86.4258 169.043Z" fill="black"/>
<path d="M196.582 206.25C196.969 206.443 197.355 206.637 197.754 206.836C197.561 206.836 197.367 206.836 197.168 206.836C197.102 207.017 197.035 207.198 196.967 207.385C196.471 208.188 195.998 208.316 195.117 208.594C195.021 208.304 194.924 208.014 194.824 207.715C195.39 207.122 195.888 206.713 196.582 206.25Z" fill="black"/>
<path d="M70.6055 180.762C70.2297 181.513 69.9528 181.543 69.1772 181.824C68.9726 181.9 68.7679 181.977 68.557 182.055C67.9688 182.227 67.9688 182.227 67.0898 182.227C66.9932 181.84 66.8965 181.453 66.7969 181.055C68.0818 180.849 69.3041 180.73 70.6055 180.762Z" fill="black"/>
<path d="M229.98 163.77C230.174 163.866 230.367 163.963 230.566 164.062C230.203 165.871 229.718 167.598 229.102 169.336C229.005 169.336 228.908 169.336 228.809 169.336C228.607 168.53 228.607 168.53 228.516 167.578C228.802 167.183 229.096 166.793 229.395 166.406C229.645 165.537 229.819 164.659 229.98 163.77Z" fill="black"/>
<path d="M160.84 119.824C161.227 119.921 161.613 120.018 162.012 120.117C161.866 121.198 161.689 121.759 160.84 122.461C160.55 121.978 160.26 121.494 159.961 120.996C160.251 120.609 160.541 120.223 160.84 119.824Z" fill="black"/>
<path d="M206.25 70.8982C206.075 70.9828 205.9 71.0674 205.719 71.1545C205.022 71.498 205.022 71.498 204.199 72.07C204.296 72.3601 204.393 72.6501 204.492 72.9489C203.912 72.9489 203.332 72.9489 202.734 72.9489C202.928 72.8523 203.121 72.7556 203.32 72.656C203.32 72.0759 203.32 71.4958 203.32 70.8982C204.282 70.4173 205.203 70.7461 206.25 70.8982Z" fill="black"/>
<path d="M149.414 211.23C150.293 211.23 150.293 211.23 150.879 211.523C150.546 212.488 150.295 212.694 149.377 213.208C148.961 213.389 148.961 213.389 148.535 213.574C148.535 213.187 148.535 212.801 148.535 212.402C148.729 212.306 148.922 212.209 149.121 212.109C149.218 211.819 149.314 211.529 149.414 211.23Z" fill="black"/>
<path d="M103.125 151.758C103.318 151.758 103.512 151.758 103.711 151.758C103.281 153.121 103.281 153.121 102.539 153.607C101.953 153.809 101.953 153.809 101.367 153.809C101.271 154.002 101.174 154.195 101.074 154.395C100.881 154.201 100.688 154.008 100.488 153.809C101.156 152.807 101.188 152.893 102.246 152.637C102.545 152.35 102.839 152.057 103.125 151.758Z" fill="black"/>
<path d="M178.125 116.895C178.415 117.185 178.705 117.475 179.004 117.773C178.774 118.117 178.542 118.458 178.308 118.799C178.179 118.989 178.05 119.18 177.917 119.376C177.73 119.598 177.73 119.598 177.539 119.824C177.346 119.824 177.152 119.824 176.953 119.824C176.76 120.211 176.566 120.598 176.367 120.996C176.537 119.894 176.851 119.083 177.411 118.121C177.544 117.89 177.678 117.658 177.815 117.42C177.968 117.16 177.968 117.16 178.125 116.895Z" fill="black"/>
<path d="M162.891 105.762C163.567 105.762 164.244 105.762 164.941 105.762C164.941 106.245 164.941 106.729 164.941 107.227C164.651 107.372 164.651 107.372 164.355 107.52C164.355 107.326 164.355 107.133 164.355 106.934C163.872 107.03 163.389 107.127 162.891 107.227C162.891 106.743 162.891 106.26 162.891 105.762Z" fill="black"/>
<path d="M189.551 101.367C189.647 101.657 189.744 101.947 189.844 102.246C190.424 102.149 191.004 102.053 191.602 101.953C191.698 102.146 191.795 102.34 191.895 102.539C191.62 103.162 191.62 103.162 191.309 103.711C190.825 103.614 190.342 103.518 189.844 103.418C189.747 102.741 189.65 102.064 189.551 101.367Z" fill="black"/>
<path d="M210.352 73.5352C211.222 73.6802 211.222 73.6802 212.109 73.8281C212.206 74.4082 212.303 74.9883 212.402 75.5859C211.532 75.2959 210.662 75.0059 209.766 74.707C209.959 74.6104 210.152 74.5137 210.352 74.4141C210.352 74.124 210.352 73.834 210.352 73.5352Z" fill="black"/>
<path d="M47.7539 191.602C48.0786 192.576 48.0013 193.249 47.7539 194.238C47.1738 194.432 46.5937 194.625 45.9961 194.824C46.421 193.62 47.0247 192.647 47.7539 191.602Z" fill="black"/>
<path d="M78.2227 176.953C78.416 177.05 78.6094 177.146 78.8086 177.246C78.6152 177.633 78.4219 178.02 78.2227 178.418C77.9326 178.321 77.6426 178.225 77.3438 178.125C77.4404 178.415 77.5371 178.705 77.6367 179.004C77.3467 179.294 77.0566 179.584 76.7578 179.883C76.5645 179.689 76.3711 179.496 76.1719 179.297C76.7318 178.261 77.2343 177.601 78.2227 176.953Z" fill="black"/>
<path d="M188.086 70.8988C186.824 72.3412 186.824 72.3412 185.797 72.4552C185.48 72.4099 185.48 72.4099 185.156 72.3637C185.253 71.977 185.35 71.5903 185.449 71.1918C187.427 70.5693 187.427 70.5693 188.086 70.8988Z" fill="black"/>
<path d="M107.227 207.422C110.602 207.259 110.602 207.259 112.207 208.3C111.073 208.724 110.208 208.46 109.058 208.172C108.715 208.088 108.372 208.004 108.018 207.917C107.757 207.85 107.496 207.783 107.227 207.715C107.227 207.618 107.227 207.521 107.227 207.422Z" fill="black"/>
<path d="M153.223 127.441C153.513 127.441 153.803 127.441 154.102 127.441C154.295 127.828 154.488 128.215 154.688 128.613C153.996 129.305 153.58 129.343 152.637 129.492C152.83 128.815 153.023 128.139 153.223 127.441Z" fill="black"/>
<path d="M158.661 123.028C159.014 123.037 159.014 123.037 159.375 123.047C159.182 123.627 158.988 124.207 158.789 124.804C158.306 124.708 157.822 124.611 157.324 124.511C157.654 123.053 157.654 123.053 158.661 123.028Z" fill="black"/>
<path d="M219.141 81.1523C219.334 81.1523 219.527 81.1523 219.727 81.1523C220.168 81.665 220.168 81.665 220.642 82.3242C220.8 82.5417 220.958 82.7593 221.12 82.9834C221.241 83.1526 221.361 83.3218 221.484 83.4961C221.291 83.8828 221.098 84.2695 220.898 84.668C220.603 84.2486 220.311 83.827 220.02 83.4045C219.775 83.0528 219.775 83.0528 219.525 82.6939C219.141 82.0312 219.141 82.0312 219.141 81.1523Z" fill="black"/>
<path d="M174.092 78.0228C174.263 78.0889 174.434 78.1549 174.609 78.223C174.472 78.3397 174.334 78.4564 174.192 78.5767C174.009 78.7319 173.827 78.8871 173.639 79.047C173.459 79.2 173.279 79.3529 173.093 79.5105C172.601 79.9433 172.137 80.3911 171.68 80.8598C171.583 80.473 171.486 80.0863 171.387 79.6879C171.7 79.3844 172.018 79.0863 172.339 78.7907C172.516 78.6241 172.692 78.4576 172.874 78.286C173.438 77.9301 173.438 77.9301 174.092 78.0228Z" fill="black"/>
<path d="M45.7031 194.824C45.9961 195.41 45.9961 195.41 45.813 196.234C45.353 197.3 44.8257 197.885 43.9453 198.633C43.752 198.633 43.5586 198.633 43.3594 198.633C43.8253 197.142 44.7494 196.033 45.7031 194.824Z" fill="black"/>
<path d="M50.6836 191.309C50.877 191.405 51.0703 191.502 51.2695 191.602C50.4961 192.568 49.7227 193.535 48.9258 194.531C48.6328 193.652 48.6328 193.652 48.9258 192.773C49.4754 192.233 50.0764 191.787 50.6836 191.309Z" fill="black"/>
<path d="M53.6133 185.742C53.5166 186.032 53.4199 186.322 53.3203 186.621C53.127 186.621 52.9336 186.621 52.7344 186.621C52.7162 186.796 52.6981 186.972 52.6794 187.152C52.342 188.061 51.8357 188.274 50.9766 188.672C50.7832 188.575 50.5898 188.479 50.3906 188.379C50.8161 187.938 51.2437 187.499 51.6724 187.061C52.0292 186.693 52.0292 186.693 52.3933 186.319C53.0273 185.742 53.0273 185.742 53.6133 185.742Z" fill="black"/>
<path d="M191.016 114.551C191.306 114.647 191.596 114.744 191.895 114.844C191.421 115.442 190.932 116.028 190.43 116.602C190.236 116.602 190.043 116.602 189.844 116.602C189.747 116.215 189.65 115.828 189.551 115.43C190.228 114.972 190.228 114.972 191.016 114.551Z" fill="black"/>
<path d="M223.242 85.8398C223.532 85.9365 223.822 86.0332 224.121 86.1328C224.218 87.0996 224.314 88.0664 224.414 89.0625C224.124 89.2075 224.124 89.2075 223.828 89.3555C223.635 89.1621 223.441 88.9688 223.242 88.7695C223.34 88.3789 223.437 87.9883 223.535 87.5977C223.456 87.0089 223.361 86.4218 223.242 85.8398Z" fill="black"/>
<path d="M127.734 224.414C127.734 224.704 127.734 224.994 127.734 225.293C127.039 225.751 127.039 225.751 126.27 226.172C126.076 226.365 125.883 226.559 125.684 226.758C125.684 226.564 125.684 226.371 125.684 226.172C125.2 226.269 124.717 226.365 124.219 226.465C124.412 226.078 124.605 225.691 124.805 225.293C125.04 225.402 125.04 225.402 125.281 225.513C126.354 225.626 126.902 225.039 127.734 224.414Z" fill="black"/>
<path d="M50.0977 209.18C50.4844 209.276 50.8711 209.373 51.2695 209.473C51.2695 209.666 51.2695 209.859 51.2695 210.059C51.5596 209.962 51.8496 209.865 52.1484 209.766C52.1484 210.056 52.1484 210.346 52.1484 210.645C51.5684 210.935 51.5684 210.935 50.9766 211.23C50.0977 209.839 50.0977 209.839 50.0977 209.18Z" fill="black"/>
<path d="M97.8516 202.148C98.0449 202.148 98.2383 202.148 98.4375 202.148C98.3469 202.324 98.2562 202.499 98.1628 202.679C97.8217 203.347 97.8217 203.347 97.5586 204.199C95.874 203.687 95.874 203.687 95.2148 203.027C95.5411 202.991 95.8674 202.955 96.2036 202.917C97.2747 202.838 97.2747 202.838 97.8516 202.148Z" fill="black"/>
<path d="M89.0625 164.355C89.2559 164.549 89.4492 164.742 89.6484 164.941C89.9385 164.845 90.2285 164.748 90.5273 164.648C90.5273 164.842 90.5273 165.035 90.5273 165.234C90.7207 165.331 90.9141 165.428 91.1133 165.527C90.1948 166.072 89.5387 166.172 88.4766 166.113C88.7329 164.685 88.7329 164.685 89.0625 164.355Z" fill="black"/>
<path d="M100.488 152.93C100.682 153.026 100.875 153.123 101.074 153.223C100.194 154.355 99.4773 155.247 98.1445 155.859C97.9512 155.763 97.7578 155.666 97.5586 155.566C98.5254 154.696 99.4922 153.826 100.488 152.93Z" fill="black"/>
<path d="M145.605 212.988C145.702 213.278 145.799 213.568 145.898 213.867C146.188 213.771 146.479 213.674 146.777 213.574C146.874 213.961 146.971 214.348 147.07 214.746C146.49 214.939 145.91 215.133 145.312 215.332C145.373 215.151 145.433 214.969 145.496 214.783C145.532 214.577 145.568 214.372 145.605 214.16C145.412 213.967 145.219 213.773 145.02 213.574C145.213 213.381 145.406 213.188 145.605 212.988Z" fill="black"/>
<path d="M98.1445 204.492C98.8213 204.492 99.498 204.492 100.195 204.492C100.195 204.686 100.195 204.879 100.195 205.078C100.679 205.078 101.162 205.078 101.66 205.078C101.757 205.368 101.854 205.658 101.953 205.957C100.533 205.784 99.4314 205.377 98.1445 204.785C98.1445 204.688 98.1445 204.592 98.1445 204.492Z" fill="black"/>
<path d="M191.364 100.891C191.539 100.952 191.714 101.012 191.895 101.074C191.656 101.642 191.656 101.642 191.309 102.246C191.019 102.343 190.729 102.44 190.43 102.539C190.236 102.443 190.043 102.346 189.844 102.246C189.844 101.956 189.844 101.666 189.844 101.367C190.723 100.781 190.723 100.781 191.364 100.891Z" fill="black"/>
<path d="M142.969 214.16C143.839 214.305 143.839 214.305 144.727 214.453C144.727 214.646 144.727 214.84 144.727 215.039C144.92 215.136 145.113 215.232 145.312 215.332C144.346 215.429 143.379 215.525 142.383 215.625C142.576 215.142 142.77 214.658 142.969 214.16Z" fill="black"/>
<path d="M43.0669 198.633C43.1636 198.633 43.2602 198.633 43.3598 198.633C43.6881 200.241 43.5919 201.221 43.0669 202.734C42.4834 201.911 42.4562 201.323 42.5725 200.354C42.7739 199.219 42.7739 199.219 43.0669 198.633Z" fill="black"/>
<path d="M78.8086 176.953C79.0986 177.05 79.3887 177.146 79.6875 177.246C79.47 177.509 79.47 177.509 79.248 177.777C78.7258 178.409 78.7258 178.409 78.8086 179.297C78.3252 179.297 77.8418 179.297 77.3438 179.297C77.3438 178.91 77.3438 178.523 77.3438 178.125C77.6338 178.125 77.9238 178.125 78.2227 178.125C78.416 177.738 78.6094 177.352 78.8086 176.953Z" fill="black"/>
<path d="M165.82 85.5469C165.917 85.5469 166.014 85.5469 166.113 85.5469C166.033 87.3647 165.789 88.5063 164.649 89.9414C164.356 89.3555 164.356 89.3555 164.647 88.4651C164.787 88.1184 164.926 87.7717 165.07 87.4146C165.208 87.0664 165.347 86.7182 165.49 86.3594C165.599 86.0913 165.708 85.8231 165.82 85.5469Z" fill="black"/>
<path d="M172.559 77.6367C172.849 77.7334 173.139 77.8301 173.438 77.9297C173.341 78.123 173.244 78.3164 173.145 78.5156C172.951 78.5156 172.758 78.5156 172.559 78.5156C172.365 78.9023 172.172 79.2891 171.973 79.6875C171.683 79.6875 171.393 79.6875 171.094 79.6875C171.473 78.8425 171.873 78.2601 172.559 77.6367Z" fill="black"/>
<path d="M234.082 199.805C235.436 200.288 236.789 200.771 238.184 201.27C238.184 201.366 238.184 201.463 238.184 201.562C235.09 201.334 235.09 201.334 233.789 200.684C233.886 200.394 233.982 200.104 234.082 199.805Z" fill="black"/>
<path d="M91.4062 161.719C91.6963 161.912 91.9863 162.105 92.2852 162.305C91.8369 162.667 91.3887 163.029 90.9405 163.392C90.4885 163.76 90.4885 163.76 90.2344 164.355C89.9443 164.259 89.6543 164.162 89.3555 164.062C90.0322 163.289 90.709 162.516 91.4062 161.719Z" fill="black"/>
<path d="M200.391 122.168C200.681 122.458 200.971 122.748 201.27 123.047C200.415 123.617 199.914 123.765 198.926 123.926C199.164 123.212 199.164 123.212 199.512 122.461C199.802 122.364 200.092 122.268 200.391 122.168Z" fill="black"/>
<path d="M169.336 112.5C169.143 113.08 168.949 113.66 168.75 114.258C168.557 114.064 168.363 113.871 168.164 113.672C167.256 113.766 167.256 113.766 166.406 113.965C166.31 113.771 166.213 113.578 166.113 113.379C166.54 113.231 166.967 113.085 167.395 112.939C167.633 112.858 167.871 112.776 168.116 112.692C168.75 112.5 168.75 112.5 169.336 112.5Z" fill="black"/>
<path d="M219.141 79.1012C218.947 79.4879 218.754 79.8746 218.555 80.2731C218.265 80.2731 217.975 80.2731 217.676 80.2731C217.181 79.6871 217.181 79.6871 216.797 79.1012C217.761 78.7799 218.178 78.8669 219.141 79.1012Z" fill="black"/>
<path d="M133.594 225.586C134.754 225.586 135.914 225.586 137.109 225.586C135.791 226.575 135.791 226.575 134.546 226.52C134.312 226.512 134.078 226.504 133.836 226.496C133.66 226.486 133.483 226.475 133.301 226.465C133.397 226.175 133.494 225.885 133.594 225.586Z" fill="black"/>
<path d="M107.52 148.535C107.713 148.632 107.906 148.729 108.105 148.828C107.368 149.743 107.014 149.984 105.835 150.22C105.364 150.256 105.364 150.256 104.883 150.293C106.552 148.902 106.552 148.902 107.52 148.535Z" fill="black"/>
<path d="M178.711 72.9492C178.904 73.3359 179.098 73.7227 179.297 74.1211C179.104 74.1211 178.91 74.1211 178.711 74.1211C178.711 74.3145 178.711 74.5078 178.711 74.707C178.228 74.6104 177.744 74.5137 177.246 74.4141C177.484 73.8464 177.484 73.8464 177.832 73.2422C178.122 73.1455 178.412 73.0488 178.711 72.9492Z" fill="black"/>
<path d="M138.867 215.625C138.352 216.264 138.078 216.486 137.262 216.654C136.869 216.68 136.869 216.68 136.469 216.706C136.205 216.725 135.941 216.744 135.669 216.764C135.467 216.775 135.266 216.786 135.059 216.797C135.773 216.321 136.34 216.019 137.128 215.717C137.33 215.637 137.533 215.557 137.742 215.475C138.281 215.332 138.281 215.332 138.867 215.625Z" fill="black"/>
<path d="M79.3945 206.25C78.4312 207.103 77.7542 207.567 76.4648 207.715C76.7578 206.836 76.7578 206.836 77.2705 206.488C78.0175 206.218 78.6062 206.206 79.3945 206.25Z" fill="black"/>
<path d="M92.5781 162.305C92.9648 162.498 93.3516 162.691 93.75 162.891C93.3472 163.477 93.3472 163.477 92.8711 164.062C92.3828 164.062 91.8945 164.062 91.4062 164.062C91.4062 163.477 91.4062 163.477 91.9922 162.854C92.1855 162.673 92.3789 162.491 92.5781 162.305Z" fill="black"/>
<path d="M103.418 150.879C103.611 150.976 103.805 151.072 104.004 151.172C102.649 152.893 102.649 152.893 101.66 153.223C101.467 153.029 101.273 152.836 101.074 152.637C101.848 152.057 102.621 151.477 103.418 150.879Z" fill="black"/>
<path d="M222.363 82.9102C223.27 83.9381 223.753 84.8121 224.121 86.1328C223.734 86.0361 223.348 85.9395 222.949 85.8398C222.949 85.2598 222.949 84.6797 222.949 84.082C222.756 84.082 222.563 84.082 222.363 84.082C222.363 83.6953 222.363 83.3086 222.363 82.9102Z" fill="black"/>
<path d="M221.484 82.3242C221.919 82.6143 221.919 82.6143 222.363 82.9102C222.363 83.2969 222.363 83.6836 222.363 84.082C222.557 84.082 222.75 84.082 222.949 84.082C222.949 84.2754 222.949 84.4687 222.949 84.668C222.659 84.7646 222.369 84.8613 222.07 84.9609C222.07 84.7676 222.07 84.5742 222.07 84.375C221.78 84.375 221.49 84.375 221.191 84.375C221.191 84.1816 221.191 83.9883 221.191 83.7891C221.385 83.7891 221.578 83.7891 221.777 83.7891C221.681 83.3057 221.584 82.8223 221.484 82.3242Z" fill="black"/>
<path d="M171.094 77.9297C171.19 78.123 171.287 78.3164 171.387 78.5156C171.126 79.0855 171.126 79.0855 170.728 79.7241C170.599 79.9364 170.471 80.1486 170.338 80.3673C170.201 80.5297 170.064 80.6921 169.922 80.8594C169.632 80.8594 169.342 80.8594 169.043 80.8594C169.531 79.7047 170.281 78.8703 171.094 77.9297Z" fill="black"/>
<path d="M176.66 75.293C176.95 75.583 177.24 75.873 177.539 76.1719C176.715 76.7761 176.715 76.7761 175.781 77.3438C175.491 77.2471 175.201 77.1504 174.902 77.0508C175.28 76.6478 175.672 76.2575 176.074 75.8789C176.268 75.8789 176.461 75.8789 176.66 75.8789C176.66 75.6855 176.66 75.4922 176.66 75.293Z" fill="black"/>
<path d="M183.691 71.4844C184.175 71.4844 184.658 71.4844 185.156 71.4844C185.156 71.7744 185.156 72.0645 185.156 72.3633C185.543 72.46 185.93 72.5566 186.328 72.6562C185.555 72.7529 184.781 72.8496 183.984 72.9492C183.888 72.4658 183.791 71.9824 183.691 71.4844Z" fill="black"/>
<path d="M252.246 211.231C251.366 211.818 250.866 211.961 249.847 212.146C249.451 212.22 249.451 212.22 249.047 212.295C248.846 212.331 248.645 212.366 248.438 212.403C248.438 212.209 248.438 212.016 248.438 211.817C249.755 211.158 250.804 211.182 252.246 211.231Z" fill="black"/>
<path d="M226.465 182.227C226.561 182.227 226.658 182.227 226.758 182.227C226.865 182.69 226.968 183.154 227.069 183.618C227.127 183.876 227.184 184.135 227.244 184.401C227.343 185.152 227.288 185.616 227.051 186.328C226.382 185.326 226.4 184.956 226.428 183.783C226.433 183.492 226.439 183.201 226.444 182.901C226.451 182.678 226.458 182.456 226.465 182.227Z" fill="black"/>
<path d="M87.0117 167.285C87.2051 167.382 87.3984 167.479 87.5977 167.578C87.8877 167.578 88.1777 167.578 88.4766 167.578C88.2832 168.255 88.0898 168.932 87.8906 169.629C87.5039 169.339 87.1172 169.049 86.7188 168.75C86.8154 168.267 86.9121 167.783 87.0117 167.285Z" fill="black"/>
<path d="M221.777 111.914C221.874 112.204 221.971 112.494 222.07 112.793C222.554 112.89 223.037 112.986 223.535 113.086C223.535 113.279 223.535 113.473 223.535 113.672C223.825 113.865 224.115 114.059 224.414 114.258C223.372 114.079 222.456 113.795 221.484 113.379C221.581 112.896 221.678 112.412 221.777 111.914Z" fill="black"/>
<path d="M192.773 106.641C193.499 106.786 193.499 106.786 194.238 106.934C194.238 107.707 194.238 108.48 194.238 109.277C193.557 108.441 193.139 107.654 192.773 106.641Z" fill="black"/>
<path d="M175.488 74.4141C176.111 74.6887 176.111 74.6887 176.66 75C176.177 75.0967 175.693 75.1934 175.195 75.293C175.099 75.583 175.002 75.873 174.902 76.1719C174.419 76.1719 173.936 76.1719 173.438 76.1719C174.829 74.7437 174.829 74.7437 175.488 74.4141Z" fill="black"/>
<path d="M181.934 72.3631C181.837 72.6531 181.74 72.9431 181.641 73.242C181.061 73.242 180.48 73.242 179.883 73.242C179.883 72.9519 179.883 72.6619 179.883 72.3631C180.765 72.0894 181.016 72.0571 181.934 72.3631Z" fill="black"/>
<path d="M227.344 186.328C227.998 187.51 228.089 188.511 228.222 189.844C228.029 189.844 227.836 189.844 227.636 189.844C227.355 188.999 227.313 188.467 227.325 187.592C227.328 187.355 227.33 187.118 227.333 186.874C227.337 186.694 227.34 186.514 227.344 186.328Z" fill="black"/>
<path d="M60.0586 184.863C59.1837 185.446 58.4189 185.725 57.4219 186.035C58.0856 184.565 58.5129 184.497 60.0586 184.863Z" fill="black"/>
<path d="M77.9297 179.004C78.2197 179.197 78.5098 179.391 78.8086 179.59C77.124 180.762 77.124 180.762 76.4648 180.762C76.5381 180.212 76.5381 180.212 76.7578 179.59C77.3621 179.224 77.3621 179.224 77.9297 179.004Z" fill="black"/>
<path d="M107.812 149.414C107.71 149.595 107.607 149.777 107.501 149.963C107.411 150.169 107.32 150.374 107.227 150.586C107.323 150.779 107.42 150.973 107.52 151.172C107.229 151.607 107.229 151.607 106.934 152.051C106.74 151.374 106.547 150.697 106.348 150C107.227 149.414 107.227 149.414 107.812 149.414Z" fill="black"/>
<path d="M175.195 75C175.686 75.0838 176.175 75.181 176.66 75.293C176.66 75.4863 176.66 75.6797 176.66 75.8789C176.177 76.0723 175.693 76.2656 175.195 76.4648C175.031 75.8972 175.031 75.8972 174.902 75.293C174.999 75.1963 175.096 75.0996 175.195 75Z" fill="black"/>
<path d="M182.812 71.4844C183.103 71.4844 183.393 71.4844 183.691 71.4844C183.885 71.8711 184.078 72.2578 184.277 72.6562C183.794 72.7529 183.311 72.8496 182.812 72.9492C182.648 72.3816 182.648 72.3816 182.52 71.7773C182.616 71.6807 182.713 71.584 182.812 71.4844Z" fill="black"/>
<path d="M256.934 205.957C257.127 206.054 257.32 206.15 257.52 206.25C257.574 207.074 257.574 207.074 257.52 208.008C257.229 208.298 256.939 208.588 256.641 208.887C256.737 207.92 256.834 206.953 256.934 205.957Z" fill="black"/>
<path d="M120.117 206.543C121.181 206.64 122.244 206.736 123.34 206.836C123.34 206.933 123.34 207.029 123.34 207.129C122.276 207.226 121.213 207.322 120.117 207.422C120.117 207.132 120.117 206.842 120.117 206.543Z" fill="black"/>
<path d="M52.4414 205.371C53.8696 206.177 53.8696 206.177 54.1992 206.836C53.9092 207.271 53.9092 207.271 53.6133 207.715C53.5347 207.479 53.4562 207.244 53.3752 207.001C53.2604 206.753 53.1456 206.505 53.0273 206.25C52.7373 206.153 52.4473 206.057 52.1484 205.957C52.2451 205.764 52.3418 205.57 52.4414 205.371Z" fill="black"/>
<path d="M226.172 174.023C226.365 174.217 226.559 174.41 226.758 174.609C226.622 174.827 226.622 174.827 226.483 175.049C226.05 176.068 225.989 177.024 225.879 178.125C225.782 178.125 225.686 178.125 225.586 178.125C225.489 177.255 225.393 176.385 225.293 175.488C225.486 175.488 225.68 175.488 225.879 175.488C225.976 175.005 226.072 174.521 226.172 174.023Z" fill="black"/>
<path d="M100.781 155.859C100.474 156.628 100.298 156.971 99.5728 157.397C99.3915 157.47 99.2102 157.542 99.0234 157.617C98.9268 157.23 98.8301 156.844 98.7305 156.445C100.122 155.859 100.122 155.859 100.781 155.859Z" fill="black"/>
<path d="M103.125 152.93C103.512 153.123 103.898 153.316 104.297 153.516C104.297 153.709 104.297 153.902 104.297 154.102C103.717 154.392 103.717 154.392 103.125 154.688C102.932 154.301 102.738 153.914 102.539 153.516C102.732 153.322 102.926 153.129 103.125 152.93Z" fill="black"/>
<path d="M206.543 89.355C205.963 90.0318 205.383 90.7085 204.785 91.4058C204.492 90.2339 204.492 90.2339 204.492 89.648C205.214 89.2872 205.746 89.334 206.543 89.355Z" fill="black"/>
<path d="M145.02 215.625C144.168 215.993 143.614 216.211 142.676 216.211C142.676 215.921 142.676 215.631 142.676 215.332C143.673 214.976 144.121 215.079 145.02 215.625Z" fill="black"/>
<path d="M58.5938 182.813C58.1104 183.006 57.627 183.199 57.1289 183.398C57.1289 183.592 57.1289 183.785 57.1289 183.984C56.6455 183.984 56.1621 183.984 55.6641 183.984C56.426 183.102 57.4393 182.235 58.5938 182.813Z" fill="black"/>
<path d="M79.3945 176.953C79.7813 177.05 80.168 177.146 80.5664 177.246C80.2764 177.343 79.9863 177.439 79.6875 177.539C79.5908 177.346 79.4941 177.152 79.3945 176.953ZM79.3945 177.539C79.4912 177.926 79.5879 178.312 79.6875 178.711C79.3975 178.904 79.1074 179.098 78.8086 179.297C78.8086 178.125 78.8086 178.125 79.3945 177.539Z" fill="black"/>
<path d="M177.539 110.449C177.539 110.932 177.539 111.416 177.539 111.914C177.442 111.527 177.346 111.14 177.246 110.742C176.563 111.023 176.563 111.023 176.074 111.914C176.074 111.527 176.074 111.14 176.074 110.742C175.784 110.645 175.494 110.549 175.195 110.449C176.09 110.162 176.645 110.162 177.539 110.449Z" fill="black"/>
<path d="M172.266 84.375C172.574 85.3003 172.646 85.5559 172.266 86.4258C171.515 86.9385 171.515 86.9385 170.801 87.3047C171.192 86.2518 171.668 85.3257 172.266 84.375Z" fill="black"/>
<path d="M177.246 223.828C178.116 223.973 178.116 223.973 179.004 224.121C178.236 224.752 177.643 225.117 176.66 225.293C176.66 224.707 176.66 224.707 177.246 224.121C177.246 224.024 177.246 223.928 177.246 223.828Z" fill="black"/>
<path d="M254.297 204.785C255.919 204.965 255.919 204.965 256.604 205.536C256.767 205.744 256.767 205.744 256.934 205.957C256.019 205.815 255.177 205.664 254.297 205.371C254.297 205.178 254.297 204.984 254.297 204.785Z" fill="black"/>
<path d="M81.7383 203.613C82.0283 203.613 82.3184 203.613 82.6172 203.613C82.284 204.613 82.0185 204.82 81.1523 205.371C80.959 205.371 80.7656 205.371 80.5664 205.371C80.7598 204.984 80.9531 204.598 81.1523 204.199C81.3457 204.199 81.5391 204.199 81.7383 204.199C81.7383 204.006 81.7383 203.813 81.7383 203.613Z" fill="black"/>
<path d="M228.809 197.461C229.389 197.606 229.389 197.606 229.98 197.754C229.884 198.334 229.787 198.914 229.688 199.512C229.301 199.028 228.914 198.545 228.516 198.047C228.612 197.854 228.709 197.66 228.809 197.461Z" fill="black"/>
<path d="M81.1523 174.609C81.249 174.803 81.3457 174.996 81.4453 175.195C80.8241 176.127 80.3817 176.46 79.3945 176.953C79.2012 176.856 79.0078 176.76 78.8086 176.66C79.582 175.983 80.3555 175.307 81.1523 174.609Z" fill="black"/>
<path d="M96.3867 162.891C96.5801 163.084 96.7734 163.277 96.9727 163.477C96.2959 164.153 95.6191 164.83 94.9219 165.527C94.7285 165.431 94.5352 165.334 94.3359 165.234C95.0127 164.461 95.6895 163.688 96.3867 162.891Z" fill="black"/>
<path d="M104.297 156.152C104.49 156.249 104.684 156.346 104.883 156.445C104.224 157.196 104.224 157.196 103.418 157.91C103.031 157.813 102.645 157.717 102.246 157.617C102.923 157.134 103.6 156.65 104.297 156.152Z" fill="black"/>
<path d="M171.387 119.238C171.483 119.528 171.58 119.818 171.68 120.117C171.873 120.311 172.066 120.504 172.266 120.703C171.589 120.896 170.912 121.09 170.215 121.289C170.529 120.435 170.736 119.889 171.387 119.238Z" fill="black"/>
<path d="M162.012 116.602C162.305 117.188 162.305 117.188 162.103 117.92C161.673 118.739 161.399 118.926 160.547 119.238C160.913 118.225 161.331 117.437 162.012 116.602Z" fill="black"/>
<path d="M210.938 113.672C211.792 113.987 212.337 114.193 212.988 114.844C212.795 114.844 212.602 114.844 212.402 114.844C212.306 115.037 212.209 115.23 212.109 115.43C212.013 115.236 211.916 115.043 211.816 114.844C211.526 114.844 211.236 114.844 210.938 114.844C210.938 114.457 210.938 114.07 210.938 113.672Z" fill="black"/>
<path d="M220.605 80.2734C221.508 81.0858 221.979 81.7568 222.363 82.9102C221.437 82.5088 221.194 82.3274 220.605 81.4453C220.605 81.0586 220.605 80.6719 220.605 80.2734Z" fill="black"/>
<path d="M213.281 73.8281C214.296 74.4082 214.296 74.4082 215.332 75C215.235 75.1934 215.139 75.3867 215.039 75.5859C214.49 75.531 214.49 75.531 213.867 75.293C213.501 74.5422 213.501 74.5422 213.281 73.8281Z" fill="black"/>
<path d="M186.328 217.09C186.618 217.187 186.908 217.283 187.207 217.383C186.825 217.974 186.434 218.56 186.035 219.141C185.939 219.141 185.842 219.141 185.742 219.141C185.706 218.445 185.706 218.445 185.742 217.676C185.936 217.482 186.129 217.289 186.328 217.09Z" fill="black"/>
<path d="M80.5664 176.66C80.7598 176.757 80.9531 176.854 81.1523 176.953C80.751 177.879 80.5696 178.123 79.6875 178.711C79.7842 178.228 79.8809 177.744 79.9805 177.246C80.1738 177.246 80.3672 177.246 80.5664 177.246C80.5664 177.053 80.5664 176.859 80.5664 176.66Z" fill="black"/>
<path d="M207.715 114.844C208.215 115.219 208.703 115.611 209.18 116.016C209.18 116.209 209.18 116.402 209.18 116.602C208.793 116.602 208.406 116.602 208.008 116.602C207.911 116.021 207.814 115.441 207.715 114.844Z" fill="black"/>
<path d="M227.93 115.43C228.644 115.54 228.644 115.54 229.395 115.723C229.491 115.916 229.588 116.109 229.688 116.309C229.107 116.115 228.527 115.922 227.93 115.723C227.93 115.626 227.93 115.529 227.93 115.43Z" fill="black"/>
</svg>
