<svg width="300" height="300" viewBox="0 0 300 300" fill="none" xmlns="http://www.w3.org/2000/svg">
<path d="M172.265 104.297C172.558 104.59 172.558 104.59 172.692 105.335C172.494 106.833 171.663 107.65 170.709 108.783C168.689 111.283 166.893 113.849 165.234 116.602C165.106 116.815 164.977 117.028 164.845 117.247C163.05 120.263 161.639 123.321 160.446 126.62C159.752 128.529 159.752 128.529 159.375 128.906C158.79 128.892 158.79 128.892 158.075 128.815C157.839 128.792 157.604 128.769 157.362 128.745C156.738 128.613 156.738 128.613 156.152 128.028C155.146 122.406 159.614 116.047 162.597 111.621C162.791 111.331 162.984 111.041 163.183 110.742C160.955 110.937 158.827 111.388 156.646 111.878C149.081 113.523 141.607 114.078 133.886 114.393C122.207 114.871 111.215 115.327 101.953 123.34C101.735 123.529 101.517 123.717 101.293 123.911C95.5634 129.259 91.9908 137.925 91.4312 145.666C91.3419 148.569 91.3455 151.461 91.5525 154.358C92.037 161.352 92.0982 168.786 87.5219 174.566C85.1045 177.317 82.6077 179.292 79.2831 180.798C77.8222 181.475 76.661 182.235 75.8466 183.684C75.3646 185.256 75.2031 186.817 75.1256 188.454C75.1077 188.827 75.1077 188.827 75.0893 189.207C74.931 192.968 74.9558 196.734 74.9616 200.498C74.9632 201.603 74.9623 202.708 74.9605 203.812C74.9594 204.679 74.9598 205.546 74.9606 206.413C74.9607 206.82 74.9605 207.227 74.9598 207.634C74.9567 210.007 75.0316 212.353 75.2282 214.718C75.3192 215.998 75.3193 217.272 75.2927 218.555C78.6168 218.742 81.9232 218.897 85.2537 218.848C84.6685 218.48 84.0827 218.114 83.4958 217.749C83.2353 217.587 83.2353 217.587 82.9695 217.422C82.0359 216.847 81.1053 216.319 80.1084 215.863C79.0169 215.288 78.5888 214.898 77.9294 213.867C76.9508 207.737 79.1327 200.655 80.8591 194.824C80.9594 194.483 81.0597 194.141 81.163 193.789C81.4854 192.709 81.82 191.633 82.1592 190.558C82.2608 190.222 82.3625 189.885 82.4672 189.539C83.1007 187.6 83.7133 186.179 85.5466 185.156C86.4301 184.854 86.4301 184.854 87.3777 184.717C87.7587 184.652 88.1398 184.587 88.5324 184.52C88.7507 184.484 88.9691 184.447 89.194 184.41C98.3716 182.786 107.117 180.57 112.784 172.625C117.077 165.806 117.903 157.881 116.738 150.045C116.568 148.895 116.449 147.932 116.601 146.778C117.187 146.027 117.187 146.027 118.066 145.606C118.895 145.601 119.589 145.732 120.41 145.899C120.601 146.447 120.79 146.997 120.978 147.547C121.083 147.853 121.188 148.158 121.297 148.474C121.751 149.972 121.911 151.383 121.903 152.946C121.902 153.271 121.901 153.595 121.901 153.93C121.898 154.265 121.896 154.599 121.893 154.944C121.892 155.285 121.89 155.627 121.889 155.979C121.886 156.818 121.881 157.657 121.875 158.496C122.162 158.564 122.45 158.632 122.746 158.701C129.154 160.235 135.006 162.705 140.79 165.857C144.103 167.66 147.775 169.364 151.465 170.215C151.37 169.935 151.275 169.655 151.177 169.367C149.868 164.759 151.075 159.729 153.233 155.615C153.987 154.4 154.834 153.26 156.152 152.637C157.099 152.721 157.531 152.865 158.294 153.443C158.903 154.255 158.905 154.57 158.789 155.567C158.381 156.248 158.381 156.248 157.837 156.94C155.411 160.229 154.896 163.686 155.398 167.695C156.936 175.941 162.513 182.826 168.709 188.191C177.851 196.144 177.851 196.144 178.516 200.785C178.579 202.227 178.392 203.292 177.539 204.492C175.081 207.067 170.98 207.711 167.559 207.801C163.525 207.836 161.37 206.671 158.404 204.013C157.691 203.327 157.691 203.327 157.031 203.028C156.453 204.76 156.527 206.293 157.306 207.953C157.594 208.466 157.895 208.972 158.203 209.473C158.391 209.795 158.58 210.118 158.774 210.45C159.089 210.936 159.089 210.936 159.411 211.432C159.605 211.735 159.8 212.039 160 212.351C161.142 213.218 161.771 212.987 163.148 212.83C164.687 212.604 166.198 212.281 167.714 211.939C168.221 211.827 168.221 211.827 168.739 211.712C169.45 211.554 170.161 211.396 170.871 211.236C171.949 210.994 173.028 210.756 174.107 210.518C174.802 210.363 175.497 210.208 176.192 210.053C176.51 209.983 176.827 209.913 177.155 209.841C181.796 208.961 181.796 208.961 185.449 206.25C186.535 204.163 186.402 202.3 185.742 200.098C184.645 196.872 182.889 193.965 181.059 191.11C175.252 182.012 170.602 172.124 172.895 161.147C173.144 160.254 173.144 160.254 173.73 159.375C175.234 159.205 176.001 159.444 177.246 160.254C177.225 160.43 177.204 160.605 177.182 160.786C176.962 162.93 176.92 165.058 176.916 167.212C176.915 167.5 176.914 167.787 176.912 168.084C176.916 169.7 177.007 171.252 177.246 172.852C184.171 170.531 190.812 167.62 195.813 162.106C196.289 161.719 196.289 161.719 197.387 161.682C198.796 162.17 198.796 162.17 199.219 162.891C199.43 163.8 199.392 164.363 198.903 165.171C196.283 168.399 192.465 170.697 188.965 172.852C189.534 176.326 191.25 179.351 193.945 181.641C198.782 184.765 204.819 186.572 210.181 188.631C223.801 193.865 231.992 199.784 238.083 213.281C240.03 217.681 240.03 217.681 240.527 220.02C240.74 220.034 240.953 220.048 241.173 220.063C243.328 220.223 245.433 220.51 247.558 220.899C243.175 212.505 238.601 203.778 232.031 196.875C231.681 196.474 231.333 196.072 230.987 195.667C229.335 193.77 227.539 192.029 225.63 190.392C224.888 189.747 224.167 189.082 223.443 188.416C222.115 187.203 220.744 186.059 219.344 184.929C218.303 184.07 217.304 183.168 216.307 182.259C215.703 181.712 215.09 181.181 214.471 180.652C210.524 177.185 207.038 173.291 206.25 167.871C206.215 167.104 206.194 166.349 206.195 165.582C206.195 165.375 206.195 165.167 206.196 164.952C206.237 161.439 206.237 161.439 207.422 160.254C208.588 160.069 209.092 160.202 210.116 160.809C210.701 161.322 210.913 161.593 211.06 162.364C211.068 163.144 211.029 163.908 210.974 164.685C210.825 169.137 212.206 171.83 215.196 175.139C215.993 175.963 216.803 176.772 217.621 177.576C217.89 177.847 218.16 178.117 218.438 178.396C220.243 180.187 222.135 181.813 224.121 183.399C224.923 184.066 225.715 184.745 226.509 185.423C227.479 186.248 228.466 187.044 229.468 187.83C239.758 196.261 246.98 208.853 252.722 220.679C252.823 220.882 252.923 221.084 253.027 221.293C253.581 222.468 253.907 223.407 253.711 224.707C252.244 225.685 250.545 225.392 248.822 225.385C248.437 225.384 248.053 225.382 247.657 225.381C240.466 225.297 240.466 225.297 237.89 223.242C236.737 221.819 236.162 220.19 235.51 218.5C231.195 207.674 225.744 200.012 214.905 195.309C211.789 194.011 208.594 192.9 205.414 191.772C196.249 188.502 188.472 184.681 183.398 176.074C181.851 176.171 180.304 176.268 178.711 176.367C180.139 179.729 181.715 182.979 183.398 186.218C183.501 186.417 183.605 186.616 183.711 186.821C184.524 188.387 185.339 189.951 186.155 191.514C191.364 201.519 191.364 201.519 190.136 206.543C188.798 209.748 186.427 211.194 183.354 212.549C177.063 215.087 166.129 219.079 159.329 217.455C156.387 216.166 154.007 211.643 152.783 208.795C151.99 206.569 151.763 204.388 152.636 202.149C153.657 200.415 154.902 199.102 156.72 198.212C157.92 197.991 158.328 198.314 159.375 198.926C160.207 199.565 160.98 200.269 161.761 200.969C163.816 202.769 165.414 203.184 168.148 203.135C169.808 203.025 172.542 202.751 173.73 201.563C173.908 200.673 173.872 200.053 173.417 199.257C172.869 198.529 172.285 197.85 171.679 197.168C171.552 197.025 171.424 196.881 171.293 196.733C169.546 194.783 167.725 192.91 165.861 191.071C156.509 181.841 156.509 181.841 154.022 176.438C153.253 175.441 152.303 175.273 151.117 174.957C150.787 174.863 150.787 174.863 150.451 174.766C149.912 174.611 149.37 174.463 148.828 174.317C148.758 174.552 148.758 174.552 148.686 174.793C146.57 181.787 143.445 187.176 138.48 192.506C135.73 195.423 135.73 195.423 133.886 198.926C134.639 201.434 138.052 203.54 140.039 205.078C140.437 205.39 140.835 205.702 141.234 206.014C144.777 208.788 148.347 211.521 152.011 214.133C158.818 218.992 158.818 218.992 160.254 221.485C160.381 222.536 160.377 223.231 159.979 224.213C157.998 225.834 154.629 225.402 152.194 225.402C151.485 225.403 150.777 225.414 150.069 225.425C146.947 225.448 144.338 225.199 141.852 223.096C141.492 222.793 141.492 222.793 141.125 222.484C139.712 221.226 138.326 219.942 136.943 218.652C132.772 214.773 128.157 211.53 123.313 208.552C116.96 204.642 116.96 204.642 116.133 201.85C115.226 197.383 118.126 192.868 120.486 189.284C120.72 188.94 120.955 188.596 121.19 188.252C124.582 183.267 125.317 176.737 124.301 170.851C123.85 168.674 123.162 166.638 122.154 164.65C121.875 164.063 121.875 164.063 121.875 163.477C121.298 163.525 121.298 163.525 120.703 163.77C120.389 164.332 120.389 164.332 120.222 165.043C120.107 165.442 120.107 165.442 119.99 165.849C119.911 166.136 119.832 166.422 119.751 166.718C117.537 174.167 113.494 180.082 106.64 183.985C101.161 186.929 94.9454 188.047 88.8847 189.118C88.145 189.251 88.145 189.251 87.3044 189.551C86.9844 190.183 86.7357 190.773 86.4988 191.437C86.3875 191.744 86.3875 191.744 86.274 192.057C84.0534 198.39 82.836 204.878 82.031 211.524C82.2414 211.605 82.4517 211.686 82.6684 211.77C86.0225 213.148 89.727 215.49 91.406 218.848C91.5114 220.134 91.5631 220.877 90.9849 222.034C88.8698 223.788 85.5183 223.347 82.9099 223.334C82.6951 223.333 82.4804 223.333 82.2591 223.332C74.0928 223.298 74.0928 223.298 72.1835 221.738C71.3398 220.725 71.244 220.154 71.1202 218.851C71.1 218.649 71.0797 218.446 71.0588 218.237C70.9956 217.562 70.945 216.887 70.8982 216.211C70.8818 215.976 70.8655 215.741 70.8487 215.499C70.7282 213.668 70.6447 211.837 70.5686 210.004C70.5563 209.719 70.544 209.435 70.5313 209.142C70.3594 205.12 70.257 201.102 70.2573 197.077C70.2571 196.86 70.2568 196.644 70.2565 196.421C70.2575 189.24 70.2575 189.24 70.8982 185.742C70.6758 185.749 70.4534 185.755 70.2242 185.761C62.7869 185.939 56.1376 185.401 50.3904 180.176C50.0477 179.873 50.0477 179.873 49.698 179.565C47.8894 177.878 46.5381 176.105 46.124 173.621C46.346 172.585 46.6026 172.311 47.4607 171.68C48.4123 171.482 49.3663 171.451 50.3354 171.405C56.2423 170.976 60.7532 168.648 64.771 164.277C68.3314 160.034 70.5415 154.845 72.9015 149.887C75.4036 144.643 78.0717 139.593 81.738 135.059C81.8666 134.899 81.9952 134.739 82.1277 134.574C86.5994 129.056 92.1444 124.371 98.3262 120.852C99.0202 120.412 99.4687 119.978 100.012 119.367C109.611 109.588 124.676 109.966 137.295 109.508C142.404 109.315 147.557 109.069 152.6 108.179C153.028 108.105 153.028 108.105 153.464 108.03C158.45 107.139 163.337 105.866 168.168 104.355C170.78 103.554 170.78 103.554 172.265 104.297ZM90.5271 132.129C83.9158 137.974 79.9582 144.815 76.1808 152.711C76.0811 152.92 75.9813 153.128 75.8786 153.343C75.728 153.658 75.728 153.658 75.5745 153.979C73.1824 158.977 70.8164 163.699 67.0896 167.871C66.8962 168.099 66.7029 168.327 66.5037 168.561C62.7993 172.638 57.1431 174.6 51.8552 175.488C52.7811 177.776 55.6282 178.942 57.7718 179.865C61.8332 181.403 67.5742 182.384 71.7771 180.762C72.5123 180.238 73.1734 179.663 73.8496 179.066C74.8982 178.274 75.9815 177.775 77.1787 177.246C81.5735 175.275 84.5486 172.664 86.4255 168.164C87.4345 165.356 87.6451 162.689 87.634 159.723C87.6352 159.422 87.6363 159.12 87.6375 158.809C87.6354 157.174 87.5542 155.581 87.3735 153.957C86.7383 147.211 87.4898 139.961 90.344 133.759C90.5011 133.414 90.6582 133.07 90.8201 132.715C90.7234 132.522 90.6267 132.328 90.5271 132.129ZM127.148 164.942C127.212 165.192 127.212 165.192 127.278 165.447C127.474 166.212 127.668 166.978 127.862 167.743C127.93 168.005 127.997 168.268 128.067 168.538C130.224 177.075 128.269 184.436 123.883 191.827C123.276 192.83 122.65 193.816 121.99 194.786C120.319 197.108 120.319 197.108 119.714 199.84C120.001 201.276 120.895 201.884 122.04 202.653C122.854 203.159 123.675 203.65 124.5 204.137C129.452 207.084 133.933 210.386 138.281 214.16C138.527 214.373 138.773 214.586 139.027 214.806C139.258 215.01 139.489 215.214 139.728 215.424C139.967 215.631 140.206 215.838 140.452 216.051C141.059 216.648 141.517 217.193 142.015 217.873C143.231 219.433 144.275 220.707 146.299 221.081C148.711 221.255 151.111 221.126 153.515 220.899C153.12 219.714 152.346 219.374 151.336 218.738C147.189 216.044 143.258 213.108 139.451 209.954C138.849 209.458 138.243 208.968 137.636 208.48C130.25 202.538 130.25 202.538 129.922 200.679C129.965 196.29 131.956 193.911 134.857 190.796C139.144 186.184 144.433 179.191 144.433 172.559C144.135 172.417 144.135 172.417 143.831 172.273C142.902 171.832 141.974 171.39 141.046 170.947C140.71 170.787 140.373 170.627 140.027 170.462C138.245 169.606 136.49 168.727 134.765 167.761C132.677 166.621 129.593 164.942 127.148 164.942Z" fill="black"/>
<path d="M230.731 75.4026C233.512 77.2267 234.742 80.8162 235.409 83.9251C235.819 86.1593 235.926 88.3309 235.929 90.6001C235.93 91.2292 235.935 91.8581 235.941 92.4872C235.957 94.273 235.966 96.0589 235.974 97.8448C235.978 98.9449 235.987 100.045 235.998 101.145C236.002 101.559 236.003 101.972 236.004 102.386C236.004 109.236 238.324 114.599 242.12 120.135C243.138 121.64 243.617 122.966 243.457 124.804C243.047 125.888 243.047 125.888 242.285 126.269C240.545 126.411 239.198 126 237.598 125.39C237.714 125.663 237.831 125.937 237.951 126.218C239.44 129.769 240.797 133.481 240.234 137.402C239.788 138.097 239.788 138.097 239.355 138.574C238.044 138.42 237.313 137.93 236.279 137.127C235.27 136.347 234.393 135.801 233.203 135.351C233.199 135.683 233.199 135.683 233.195 136.021C233.024 147.023 233.024 147.023 230.859 150.586C229.926 150.842 229.926 150.842 229.102 150.879C228.337 150.001 227.765 149.125 227.234 148.095C226.375 146.517 225.476 145.658 223.81 144.909C222.901 144.716 222.376 144.812 221.484 145.019C221.452 145.242 221.42 145.464 221.387 145.693C221.341 145.985 221.294 146.276 221.246 146.576C221.202 146.865 221.158 147.154 221.112 147.451C220.886 148.29 220.714 148.614 220.02 149.121C218.935 149.286 218.394 149.19 217.419 148.681C216.716 147.854 216.618 147.37 216.693 146.294C217.019 144.134 217.334 142.318 219.141 140.918C220.618 139.933 222.106 139.941 223.81 140.222C225.359 140.57 227.078 141.238 228.223 142.383C228.929 139.647 228.389 136.697 228.061 133.938C227.839 131.758 227.839 131.758 228.318 130.623C228.809 130.078 228.809 130.078 229.395 129.785C230 129.8 230 129.8 230.731 129.876C230.967 129.9 231.203 129.923 231.446 129.946C232.632 130.124 233.793 130.392 234.961 130.664C234.602 129.888 234.242 129.113 233.881 128.338C233.721 127.995 233.721 127.995 233.559 127.646C232.999 126.451 232.415 125.306 231.72 124.182C231.188 123.262 231.153 123.031 231.171 121.893C231.445 120.996 231.445 120.996 232.031 120.41C233.869 120.203 235.57 120.379 237.305 120.996C237.205 120.85 237.105 120.704 237.003 120.553C236.511 119.825 236.029 119.093 235.547 118.359C235.35 118.062 235.153 117.765 234.949 117.46C231.979 112.842 231.339 108.163 231.401 102.755C231.409 102.087 231.413 101.418 231.415 100.75C231.422 99.3321 231.433 97.9143 231.445 96.4964C231.459 94.8483 231.471 93.2002 231.478 91.552C231.482 90.9003 231.489 90.2488 231.497 89.5971C231.518 86.6969 231.531 83.5863 230.164 80.9507C230.046 80.7139 229.929 80.4771 229.809 80.2332C229.443 79.651 229.443 79.651 228.852 79.4793C227.692 79.3227 226.83 79.9528 225.879 80.5662C225.086 81.206 224.373 81.9044 223.663 82.6353C223.472 82.8311 223.28 83.0269 223.083 83.2286C220.461 85.9657 219.154 88.7027 217.969 92.2849C217.262 94.2211 217.262 94.2211 216.211 94.9217C215.217 94.8962 214.814 94.6859 214.05 94.0428C213.387 92.8176 213.562 91.8563 213.867 90.5271C213.964 90.3338 214.061 90.1404 214.16 89.9412C209.931 88.9069 205.841 88.6132 201.562 89.6482C201.578 90.1088 201.578 90.1088 201.593 90.5786C201.602 90.9826 201.61 91.3866 201.617 91.7906C201.625 91.9928 201.632 92.195 201.64 92.4034C201.661 93.8934 201.661 93.8934 201.184 94.615C200.325 95.1415 199.606 95.0433 198.633 94.9217C197.623 93.9399 197.36 92.6237 196.967 91.3145C195.581 86.9684 193.663 82.6394 189.496 80.3648C188.291 79.7407 188.291 79.7407 186.993 79.8944C185.765 80.5939 185.319 81.5277 184.899 82.8253C184.1 85.8275 183.935 88.7692 183.948 91.8638C183.948 92.1868 183.948 92.5099 183.948 92.8427C183.956 94.7555 183.998 96.6646 184.071 98.5758C184.079 98.7863 184.087 98.9969 184.095 99.2139C184.133 100.242 184.175 101.27 184.225 102.298C184.484 108.855 183.064 112.686 178.711 117.48C178.565 117.641 178.419 117.802 178.268 117.968C177.624 118.677 176.978 119.383 176.327 120.085C175.77 120.662 175.77 120.662 175.488 121.289C175.778 121.192 176.068 121.095 176.367 120.996C177.627 120.854 178.656 120.797 179.773 121.435C180.356 122.495 180.183 123.384 179.883 124.512C179.418 125.51 178.853 126.434 178.271 127.368C177.974 127.854 177.678 128.341 177.383 128.828C177.252 129.04 177.12 129.253 176.985 129.471C176.666 130.067 176.499 130.59 176.367 131.25C176.597 131.165 176.827 131.081 177.064 130.993C180.385 129.82 180.385 129.82 181.934 130.078C182.588 130.537 182.588 130.537 183.105 131.25C183.095 132.032 183.026 132.669 182.886 133.429C182.425 136.416 182.466 139.367 182.52 142.383C182.697 142.23 182.875 142.078 183.057 141.921C185.63 139.78 188.177 138.176 191.602 137.988C192.447 138.101 193.319 138.241 193.945 138.867C193.998 139.336 194.033 139.808 194.061 140.279C194.293 143.782 194.694 146.925 195.703 150.293C195.908 151.132 195.996 151.764 195.996 152.637C195.52 153.387 195.52 153.387 194.824 153.808C193.66 153.711 193.088 153.41 192.316 152.545C190.497 150.346 189.783 147.289 189.825 144.47C189.828 144.241 189.831 144.012 189.833 143.776C189.837 143.607 189.84 143.437 189.844 143.262C187.062 144.247 184.957 146.241 183.655 148.883C183.563 149.08 183.472 149.278 183.378 149.481C183.105 150 183.105 150 182.52 150.586C181.696 150.659 181.696 150.659 180.762 150.293C180.074 149.398 179.694 148.414 179.297 147.363C179.181 147.061 179.065 146.76 178.946 146.449C177.803 142.916 178.012 139.315 178.125 135.644C177.974 135.706 177.824 135.769 177.669 135.833C176.98 136.115 176.289 136.392 175.598 136.67C175.361 136.768 175.125 136.865 174.881 136.966C172.49 137.918 172.49 137.918 171.094 137.695C170.294 136.496 170.296 135.563 170.508 134.179C171.379 131.312 172.613 128.617 174.023 125.976C173.843 125.944 173.663 125.912 173.478 125.879C173.241 125.833 173.004 125.786 172.76 125.738C172.408 125.672 172.408 125.672 172.049 125.604C171.302 125.363 170.992 125.123 170.508 124.512C170.105 123.398 170.087 122.817 170.487 121.7C171.4 119.784 172.548 118.054 173.74 116.307C177.11 111.324 179.664 106.498 179.598 100.382C179.594 99.7158 179.591 99.0499 179.587 98.3841C179.58 97.3441 179.572 96.3042 179.562 95.2643C179.44 81.6195 179.44 81.6195 183.105 77.0506C184.76 75.6643 186.393 75.1753 188.529 75.2138C192.174 75.6087 194.831 78.3654 197.144 80.9736C197.76 81.7461 198.262 82.5447 198.779 83.386C199.419 84.3639 199.419 84.3639 200.425 84.8612C201.124 84.8696 201.754 84.7931 202.441 84.6678C202.838 84.6162 203.235 84.5674 203.632 84.5213C203.849 84.4956 204.067 84.4699 204.292 84.4435C208.262 84.0967 212.072 84.5256 215.918 85.5467C216.029 85.3582 216.139 85.1698 216.253 84.9756C219.051 80.3833 224.497 72.9966 230.731 75.4026Z" fill="black"/>
<path d="M207.056 130.005C207.282 129.999 207.509 129.993 207.742 129.987C209.39 129.976 210.61 130.264 212.109 130.957C212.525 131.788 212.478 132.378 212.402 133.301C211.995 134.126 211.995 134.126 211.45 134.93C211.273 135.197 211.097 135.463 210.915 135.737C210.361 136.51 209.781 137.252 209.18 137.988C210.499 138.755 211.536 138.622 212.988 138.281C213.619 138.007 214.205 137.705 214.798 137.355C215.332 137.109 215.332 137.109 216.504 137.109C216.376 139.156 214.752 140.696 213.336 142.035C210.874 144.062 208.176 144.09 205.078 143.848C202.409 143.381 200.517 141.881 198.944 139.728C198.269 138.755 197.919 137.992 197.754 136.816C198.633 136.523 198.633 136.523 199.554 136.943C200.094 137.233 200.63 137.531 201.165 137.831C202.332 138.455 203.171 138.69 204.492 138.574C204.589 138.188 204.686 137.801 204.785 137.402C204.647 137.296 204.509 137.189 204.367 137.08C202.997 135.973 202.032 135.041 201.754 133.221C201.71 132.524 201.71 131.933 201.855 131.25C203.33 129.94 205.186 130.017 207.056 130.005Z" fill="black"/>
<path d="M220.971 108.874C222.1 109.516 222.711 110.111 223.242 111.328C223.527 112.8 223.511 114.012 222.832 115.369C221.677 117.077 220.438 118.65 218.348 119.163C216.766 119.338 215.129 119.275 213.574 118.945C212.896 118.392 212.498 117.966 212.109 117.187C211.776 113.023 211.776 113.023 212.85 111.234C214.873 108.921 218.059 107.573 220.971 108.874ZM216.796 111.914C216.128 112.721 216.128 112.721 216.265 113.543C216.455 114.355 216.455 114.355 217.382 114.843C218.356 114.748 218.732 114.665 219.433 113.964C219.337 112.998 219.251 112.61 218.554 111.914C217.675 111.792 217.675 111.792 216.796 111.914Z" fill="black"/>
<path d="M198.395 108.124C200.389 109.498 201.554 111.328 202.148 113.672C202.373 115.354 202.504 116.68 201.507 118.103C199.944 119.146 198.92 119.363 197.058 119.119C194.918 118.635 193.446 117.52 192.233 115.714C191.247 114.034 191.146 112.61 191.601 110.742C192.988 107.916 195.539 107.172 198.395 108.124ZM195.703 111.621C195.035 112.429 195.035 112.429 195.172 113.251C195.361 114.062 195.361 114.062 196.289 114.551C197.21 114.459 197.21 114.459 198.047 114.258C198.245 113.261 198.245 113.261 198.34 112.207C197.77 111.512 197.77 111.512 196.728 111.53C196.39 111.56 196.052 111.59 195.703 111.621Z" fill="black"/>
<path d="M190.269 85.0094C191.672 85.4699 192.323 86.6727 193.066 87.891C194.562 91.0785 195.893 94.9694 194.94 98.5112C194.613 99.3075 194.262 99.8788 193.652 100.489C192.931 100.458 192.931 100.458 192.187 100.196C190.76 98.3936 190.312 95.9263 189.825 93.7321C189.383 91.7646 188.918 89.9459 188.021 88.1324C187.793 87.5981 187.793 87.5981 187.774 86.7741C188.306 85.6799 189.001 84.9246 190.269 85.0094Z" fill="black"/>
<path d="M226.612 85.1807C227.344 85.5469 227.344 85.5469 227.93 86.4258C227.902 87.59 227.563 88.3334 226.955 89.2903C225.911 91.1345 225.538 93.1437 225.092 95.1966C224.923 95.9628 224.75 96.7281 224.576 97.4934C224.502 97.8295 224.429 98.1656 224.353 98.5118C224.122 99.3164 224.122 99.3164 223.536 99.9024C222.693 100.031 222.693 100.031 221.778 99.9024C220.42 98.5811 220.262 97.3572 220.203 95.5261C220.237 92.1569 221.763 89.0475 223.829 86.4258C225.613 84.8809 225.613 84.8809 226.612 85.1807Z" fill="black"/>
</svg>
