<svg width="300" height="300" viewBox="0 0 300 300" fill="none" xmlns="http://www.w3.org/2000/svg">
<path d="M161.297 74.3638C175.896 73.9083 189.74 80.6129 202.442 87.0118C202.769 87.1762 203.097 87.3405 203.434 87.5099C207.565 89.5929 211.567 91.8731 215.54 94.2417C216.145 94.5906 216.755 94.9105 217.383 95.2149C217.389 94.9691 217.389 94.9691 217.396 94.7182C217.601 91.2646 218.835 87.8253 221.192 85.254C223.227 83.556 225.481 83.0593 228.093 83.1116C232.13 83.4779 236.05 84.7948 238.853 87.8392C241.195 90.8098 241.772 94.7409 241.993 98.4376C242.008 98.6857 242.024 98.9338 242.04 99.1894C242.132 102.032 241.724 104.803 239.841 107.028C237.575 109.326 234.88 109.903 231.739 110.156C231.86 110.35 231.98 110.545 232.105 110.745C233.588 113.386 234.348 116.123 235.09 119.047C235.75 121.65 236.48 124.206 237.36 126.746C239.114 131.848 240.941 137.503 240.528 142.969C240.508 143.251 240.488 143.533 240.467 143.824C239.732 150.719 236.739 157.234 231.739 162.012C231.487 162.255 231.236 162.499 230.977 162.75C229.497 164.129 227.939 165.296 226.246 166.401C225.085 167.442 224.938 168.886 224.769 170.383C224.73 170.71 224.691 171.037 224.651 171.374C224.609 171.735 224.568 172.095 224.524 172.467C223.97 177.052 223.249 181.608 222.519 186.167C221.89 190.099 221.302 194.03 220.801 197.98C218.466 216.323 218.466 216.323 213.042 220.752C208.417 223.93 201.562 223.331 196.289 222.363C193.211 221.658 190.545 220.59 188.636 217.987C182.555 208.081 181.479 195.403 180.763 184.123C180.736 183.718 180.736 183.718 180.71 183.304C180.677 182.791 180.645 182.277 180.614 181.764C180.599 181.534 180.584 181.303 180.569 181.065C180.551 180.764 180.551 180.764 180.532 180.457C180.466 179.855 180.336 179.295 180.176 178.711C179.379 178.772 178.621 178.879 177.832 179.004C177.54 179.025 177.247 179.046 176.946 179.068C175.812 179.259 175.216 179.445 174.317 180.176C170.942 187.157 171.901 198.857 173.931 206.049C174.956 208.921 176.46 211.516 178.052 214.105C180.738 218.498 180.738 218.498 180.341 220.862C180.048 222.076 179.361 222.739 178.418 223.535C171.416 226.454 161.831 226.052 154.688 224.121C154.356 224.033 154.023 223.945 153.681 223.855C143.718 220.858 137.393 211.131 132.715 202.441C124.799 187.389 120.826 170.662 119.239 153.809C119.207 153.491 119.207 153.491 119.175 153.168C116.701 127.878 124.166 101.459 140.039 81.7383C139.486 81.1847 138.544 81.2633 137.801 81.1707C137.602 81.1458 137.404 81.1209 137.199 81.0953C136.776 81.0425 136.352 80.9903 135.928 80.9387C135.293 80.8612 134.659 80.7816 134.024 80.7015C129.955 80.194 125.923 79.9193 121.82 79.9256C121.608 79.9258 121.395 79.926 121.176 79.9261C108.636 79.9544 97.3876 83.8679 88.184 92.5782C87.807 92.9033 87.4286 93.2268 87.0487 93.5487C84.3365 95.9212 81.8795 98.5069 79.6879 101.367C79.5694 101.519 79.4508 101.671 79.3287 101.827C76.6371 105.291 73.5948 109.891 73.7404 114.443C74.0131 116.589 75.122 118.296 76.3005 120.062C78.1227 122.821 79.0681 125.543 79.6753 128.774C79.726 129.041 79.7766 129.309 79.8288 129.585C80.3292 132.308 80.677 135.045 81.0128 137.793C82.7741 152.049 86.8695 164.744 96.3871 175.781C96.602 176.034 96.8169 176.287 97.0383 176.548C97.4393 177.007 97.8498 177.458 98.2685 177.901C98.8836 178.561 99.4585 179.232 100.035 179.924C103.32 183.704 106.492 184.828 111.329 185.742C112.02 185.883 112.711 186.024 113.402 186.165C116.798 186.835 120.2 187.355 123.633 187.793C123.719 188.026 123.804 188.259 123.892 188.499C126.113 194.595 126.113 194.595 128.912 200.441C129.22 201.015 129.514 201.596 129.806 202.178C131.966 206.443 134.572 210.398 137.607 214.091C138.575 215.275 138.575 215.275 138.575 215.918C122.676 217.036 122.676 217.036 118.872 213.812C113.086 208.242 111.045 197.542 110.715 189.78C110.714 189.313 110.726 188.846 110.743 188.379C110.48 188.336 110.48 188.336 110.213 188.293C108.254 187.941 106.488 187.344 104.645 186.603C104.113 186.391 103.58 186.18 103.046 185.97C102.815 185.877 102.584 185.784 102.345 185.688C101.634 185.44 100.937 185.287 100.196 185.156C99.0994 187.212 98.248 189.279 97.5224 191.492C97.4212 191.8 97.32 192.108 97.2157 192.425C95.9323 196.425 94.5993 201.068 95.8012 205.243C96.5722 206.568 97.4006 207.019 98.7309 207.715C101.713 209.433 104.041 211.085 105.762 214.16C105.864 215.443 105.734 215.882 104.938 216.87C97.8888 220.74 81.5124 219.249 73.9384 217.163C71.2169 216.161 69.2203 214.377 67.9503 211.76C67.1777 209.886 66.7566 208.063 66.4311 206.067C66.3727 205.723 66.3144 205.38 66.2543 205.025C66.1202 204.232 65.9875 203.439 65.8561 202.646C65.6453 201.379 65.4246 200.114 65.203 198.849C63.4914 189.065 62.3054 179.358 61.5977 169.454C61.2143 164.109 60.4939 158.941 59.3891 153.694C59.3284 153.404 59.2678 153.114 59.2053 152.815C59.151 152.561 59.0968 152.308 59.0409 152.046C58.6782 149.984 58.5424 147.934 58.514 145.844C58.5104 145.594 58.5067 145.344 58.5029 145.087C58.437 139.546 58.4484 134.261 60.059 128.906C60.1343 128.656 60.2096 128.405 60.2872 128.147C62.005 122.665 64.832 117.994 68.2896 113.452C69.4081 111.961 70.3612 110.455 71.2467 108.82C73.5422 104.61 76.5222 100.851 79.6879 97.2657C79.8998 97.0214 80.1116 96.777 80.3299 96.5253C83.4402 92.9911 86.7435 89.8112 90.5277 87.0118C90.6938 86.8865 90.8599 86.7612 91.031 86.6321C103.341 77.3554 117.766 75.1316 132.807 77.2224C134.594 77.478 136.38 77.7411 138.163 78.0244C143.759 78.8949 148.15 78.2066 153.388 76.1353C156.062 75.0816 158.421 74.557 161.297 74.3638ZM154.443 78.7995C150.469 85.3361 148.453 92.6686 147.364 100.195C147.312 100.546 147.312 100.546 147.26 100.903C145.623 112.604 146.648 126.382 151.172 137.402C151.755 136.529 151.906 135.899 152.092 134.884C153.022 129.876 155.251 125.308 157.911 120.996C157.205 124.33 156.283 127.564 155.221 130.802C152.831 138.273 153.467 146.774 157.032 153.809C160.438 159.59 165.916 166.169 172.559 168.164C173.636 168.412 174.718 168.634 175.8 168.86C178.784 169.492 180.743 170.467 183.109 172.401C187.064 175.599 191.403 177.273 196.558 176.862C200.48 176.211 203.699 174.254 206.912 172.035C209.377 170.482 212.23 169.668 214.988 168.796C220.931 166.917 226.124 164.695 230.86 160.547C231.094 160.342 231.329 160.137 231.57 159.926C235.858 155.912 238.023 149.016 238.244 143.255C238.332 138.382 237.3 133.98 236.038 129.297C235.684 127.975 235.351 126.65 235.029 125.321C234.941 124.961 234.854 124.601 234.764 124.231C234.596 123.537 234.429 122.842 234.265 122.148C232.273 113.975 227.551 108.033 221.082 102.862C219.22 101.372 217.55 99.9236 216.175 97.9615C213.797 94.5984 210.814 93.3184 207.129 91.6993C206.808 91.5579 206.486 91.4166 206.155 91.271C203.178 89.9671 200.192 88.6822 197.204 87.4047C196.087 86.9272 194.97 86.4481 193.854 85.9681C193.672 85.8898 193.489 85.8114 193.301 85.7307C190.743 84.6313 188.237 83.4501 185.743 82.2144C179.034 78.9255 171.651 76.9885 164.154 76.9959C163.903 76.9962 163.651 76.9964 163.391 76.9966C158.547 76.8868 158.547 76.8868 154.443 78.7995Z" fill="black"/>
<path d="M177.852 83.0323C180.848 85.484 182.236 90.24 182.641 93.9969C182.672 94.5271 182.672 94.5271 182.703 95.0681C182.736 95.6074 182.736 95.6074 182.769 96.1575C182.784 96.4264 182.798 96.6953 182.813 96.9724C181.188 98.0263 179.524 98.9492 177.807 99.8456C171.903 102.937 167.063 106.435 162.43 111.221C162.012 111.621 162.012 111.621 161.719 111.621C161.525 109.534 162.231 107.722 162.891 105.761C162.631 105.686 162.371 105.611 162.104 105.534C159.559 104.595 157.703 102.548 156.446 100.195C155.385 97.013 156.415 93.4808 157.711 90.5236C159.702 86.6235 162.482 84.4745 166.49 82.8687C169.918 81.7835 174.649 81.0177 177.852 83.0323Z" fill="black"/>
<path d="M185.028 129.346C186.686 130.404 187.921 132.187 188.533 134.046C189.057 136.769 189.029 139.713 187.5 142.09C186.827 142.931 186.107 143.731 185.385 144.529C184.209 145.853 183.298 147.234 182.428 148.774C179.382 154.146 179.382 154.146 176.66 155.274C174.578 155.621 172.675 154.744 170.947 153.629C169.248 152.369 167.896 151.027 167.38 148.899C167.038 146.531 166.887 144.18 168.237 142.115C169.402 140.727 170.782 139.55 172.222 138.456C173.636 137.356 174.562 136.003 175.577 134.548C177.758 131.422 180.744 127.542 185.028 129.346ZM181.934 136.231C183.106 136.524 183.106 136.524 183.106 136.524L181.934 136.231ZM180.882 136.883C180.237 137.694 180.292 138.382 180.331 139.387C180.515 140.258 180.934 140.748 181.665 141.248C182.708 141.724 183.723 141.869 184.863 141.797C185.642 141.55 185.642 141.55 186.035 140.918C186.24 139.765 186.08 139.244 185.522 138.208C184.918 137.469 184.574 137.132 183.691 136.817C183.933 137.113 184.175 137.409 184.424 137.714C185.207 138.795 185.293 139.577 185.156 140.918C184.264 141.199 183.664 141.216 182.758 140.992C182.554 140.945 182.35 140.898 182.141 140.85C181.976 140.776 181.811 140.702 181.641 140.625C181.382 139.851 181.3 139.371 181.293 138.575C181.289 138.375 181.284 138.176 181.28 137.97C181.348 137.403 181.348 137.403 181.934 136.524C181.327 136.464 181.327 136.464 180.882 136.883ZM182.227 137.989C182.227 138.868 182.227 138.868 182.227 138.868V137.989Z" fill="black"/>
<path d="M213.318 129.84C215.128 130.981 216.254 132.173 217.383 133.96C217.511 134.156 217.638 134.352 217.77 134.553C218.291 135.355 218.804 136.161 219.314 136.97C220.07 138.149 220.887 139.198 221.817 140.242C223.646 142.306 224.784 144.14 225.129 146.942C224.751 149.908 223.798 151.855 221.433 153.728C219.458 155.116 217.51 156.134 215.04 155.86C213.08 155.207 211.788 153.619 210.791 151.861C210.377 151.016 209.985 150.164 209.601 149.304C208.713 147.344 207.796 145.464 206.647 143.64C205.008 140.864 204.54 137.869 205.303 134.719C206.084 132.416 207.066 131.045 209.18 129.785C210.636 129.3 211.901 129.302 213.318 129.84ZM211.231 137.11C211.37 137.224 211.509 137.339 211.652 137.458C212.236 138.135 212.339 138.564 212.403 139.453C212.091 140.57 211.927 140.845 210.938 141.504C210.275 141.561 210.275 141.561 209.565 141.541C209.328 141.535 209.091 141.53 208.847 141.525C208.577 141.515 208.577 141.515 208.301 141.504C208.275 140.381 208.337 139.376 208.594 138.282C207.785 139.056 207.447 139.458 207.349 140.607C207.36 141.475 207.36 141.475 207.715 142.053C208.659 142.584 209.604 142.531 210.645 142.383C211.823 141.925 212.283 141.684 212.989 140.625C213.13 139.019 213.13 139.019 212.604 137.549C212.111 137.012 212.111 137.012 211.231 137.11ZM210.645 138.867C210.645 139.061 210.645 139.254 210.645 139.453C210.838 139.453 211.032 139.453 211.231 139.453C211.231 139.26 211.231 139.067 211.231 138.867C211.038 138.867 210.844 138.867 210.645 138.867Z" fill="black"/>
<path d="M186.914 160.253C188.915 160.098 190.635 160.342 192.554 160.858C195.326 161.586 197.739 161.4 200.573 160.972C201.403 160.861 202.174 160.808 203.009 160.821C203.235 160.824 203.461 160.826 203.695 160.829C203.861 160.833 204.028 160.836 204.199 160.839C204.344 161.274 204.344 161.274 204.492 161.718C198.309 166.248 198.309 166.248 195.41 166.406C195.641 167.499 195.832 168.272 196.582 169.116C198.414 170.185 200.605 170.869 202.734 170.507C204.617 169.962 205.976 169.172 207.422 167.871C207.615 167.871 207.809 167.871 208.008 167.871C207.586 168.833 207.063 169.489 206.323 170.233C206.131 170.429 205.94 170.626 205.742 170.829C204.341 172.005 203.179 172.38 201.361 172.338C201.034 172.334 200.706 172.329 200.369 172.325C199.498 172.28 198.646 172.209 197.779 172.12C196.402 171.988 195.031 171.94 193.649 171.921C193.443 171.917 193.236 171.914 193.024 171.91C192.169 171.896 191.314 171.882 190.459 171.877C187.697 171.857 185.609 171.787 183.348 170.006C182.357 168.961 181.512 167.93 180.762 166.699C180.858 166.505 180.955 166.312 181.055 166.113C181.232 166.268 181.41 166.424 181.593 166.584C184.434 168.98 186.517 169.766 190.25 169.727C191.361 169.624 192.311 169.425 193.359 169.043C194.085 167.966 194.238 167.42 194.238 166.113C193.976 165.995 193.714 165.878 193.444 165.757C191.071 164.656 188.932 163.458 187.207 161.425C186.984 160.76 186.984 160.76 186.914 160.253Z" fill="black"/>
<path d="M210.059 136.816C211.081 137.066 211.684 137.257 212.402 138.043C212.813 139.198 212.583 139.806 212.109 140.918C211.652 141.486 211.652 141.486 210.938 141.797C210.052 141.879 209.186 141.89 208.301 141.797C208.008 141.504 208.008 141.504 207.935 140.717C208.063 139.017 208.811 137.935 210.059 136.816ZM210.645 138.867C210.645 139.061 210.645 139.254 210.645 139.453C210.838 139.453 211.031 139.453 211.23 139.453C211.23 139.26 211.23 139.066 211.23 138.867C211.037 138.867 210.844 138.867 210.645 138.867Z" fill="black"/>
<path d="M183.857 136.871C184.092 137.143 184.328 137.415 184.571 137.695C184.746 137.876 184.921 138.057 185.102 138.244C185.602 139.139 185.508 139.913 185.45 140.918C184.542 141.398 184.109 141.529 183.088 141.32C182.145 140.879 181.645 140.607 181.055 139.746C180.868 138.705 180.83 137.751 181.421 136.834C182.819 135.985 182.819 135.985 183.857 136.871ZM182.227 137.988C182.227 138.867 182.227 138.867 182.227 138.867V137.988Z" fill="black"/>
</svg>
