<svg width="300" height="300" viewBox="0 0 300 300" fill="none" xmlns="http://www.w3.org/2000/svg">
<path d="M130.665 50.3904C134.179 50.3699 137.694 50.3543 141.209 50.3448C142.841 50.3403 144.474 50.3341 146.106 50.3241C147.685 50.3144 149.263 50.3092 150.842 50.307C151.441 50.3054 152.04 50.3022 152.639 50.2974C160.877 50.2343 167.414 52.0957 173.467 57.9938C178.797 63.4439 181.229 70.497 183.501 77.5927C184.467 80.5943 185.508 83.57 186.544 86.548C189.305 94.488 192.005 102.448 194.696 110.413C195.904 113.989 197.12 117.562 198.337 121.135C199.874 125.645 201.4 130.158 202.901 134.679C204.224 138.668 205.574 142.647 206.926 146.626C207.291 147.702 207.656 148.778 208.02 149.854C209.438 154.046 209.438 154.046 210.884 158.227C211.196 159.117 211.504 160.009 211.811 160.901C211.946 161.291 212.083 161.68 212.223 162.069C213.028 164.31 213.795 166.645 213.282 169.043C212.754 169.725 212.754 169.725 212.11 170.215C210.053 170.284 208.654 169.507 207.129 168.164C202.141 163.003 199.845 155.038 197.213 148.505C193.63 139.614 189.632 131.009 184.779 122.731C184.321 121.949 183.868 121.165 183.415 120.381C179.019 112.772 174.348 106.705 167.497 101.146C160.59 95.4474 154.129 88.0719 153.223 78.8083C159.506 78.9606 165.853 81.7876 170.801 85.5466C171.183 85.8276 171.183 85.8276 171.573 86.1142C178.143 91.4184 180.871 103.341 183.916 110.917C187.606 120.094 191.337 129.266 195.411 138.281C195.537 138.562 195.663 138.844 195.792 139.133C199.175 146.68 202.86 154.046 207.129 161.133C206.379 158.065 205.316 155.101 204.273 152.124C204.177 151.848 204.08 151.572 203.981 151.288C200.676 141.854 196.973 132.599 193.112 123.382C191.335 119.139 189.578 114.887 187.82 110.636C187.606 110.117 187.391 109.598 187.176 109.08C183.324 99.7716 179.547 90.4315 176.106 80.9621C176.014 80.7107 175.922 80.4592 175.828 80.2002C175.4 79.0227 174.974 77.8443 174.556 76.6633C173.201 72.8837 171.676 69.0015 169.043 65.9177C168.913 65.7455 168.782 65.5733 168.647 65.3959C166.206 62.2856 162.36 60.3693 158.497 59.7654C157.235 59.6901 155.978 59.6969 154.714 59.7081C154.36 59.709 154.006 59.7098 153.642 59.7107C152.52 59.7139 151.397 59.7213 150.275 59.7287C149.511 59.7317 148.747 59.7344 147.982 59.7368C146.116 59.7432 144.25 59.753 142.383 59.7654C142.509 59.943 142.635 60.1206 142.765 60.3035C143.009 60.6557 143.009 60.6557 143.258 61.0151C143.42 61.247 143.582 61.479 143.749 61.718C144.218 62.5369 144.291 63.1522 144.087 64.0786C143.658 65.2765 143.094 66.4113 142.547 67.5588C138.95 75.4023 140.364 83.6985 143.24 91.4987C146.335 99.6097 150.922 105.139 158.79 108.984C160.564 109.758 162.383 110.41 164.205 111.062C168.785 112.716 172.213 114.694 175.782 118.066C176.01 118.272 176.238 118.478 176.473 118.69C180.592 122.56 183.559 127.544 186.329 132.422C186.474 132.676 186.62 132.931 186.77 133.194C195.338 148.257 201.267 166.222 196.756 183.531C194.892 190.238 191.919 196.814 187.793 202.441C187.583 202.734 187.374 203.027 187.157 203.328C185.915 205.027 184.606 206.627 183.178 208.173C182.736 208.652 182.301 209.137 181.871 209.627C176.783 215.43 170.261 219.677 163.477 223.242C163.286 223.344 163.096 223.446 162.899 223.551C160.054 225.053 157.073 226.123 154.029 227.142C153.843 227.205 153.658 227.267 153.466 227.331C150.949 228.173 148.506 228.793 145.899 229.394C145.802 233.358 145.706 237.322 145.606 241.406C146.662 241.399 147.717 241.392 148.805 241.385C149.838 241.381 150.872 241.377 151.906 241.374C152.618 241.371 153.331 241.367 154.044 241.362C155.075 241.355 156.105 241.351 157.136 241.349C157.449 241.346 157.763 241.343 158.086 241.34C164.117 241.339 169.746 242.971 174.224 247.146C175.075 248.03 175.863 248.971 176.661 249.902C163.222 249.902 149.784 249.902 135.938 249.902C135.938 243.425 135.938 236.947 135.938 230.273C134.391 230.37 132.844 230.467 131.25 230.566C129.789 230.513 128.349 230.44 126.893 230.328C126.499 230.301 126.106 230.273 125.713 230.247C123.827 230.115 121.945 229.963 120.063 229.789C113.672 229.208 109.048 229.689 103.4 232.91C103.107 233.077 102.813 233.243 102.511 233.415C100.066 234.825 97.7611 236.381 95.4917 238.056C94.7247 238.622 93.9517 239.179 93.1772 239.734C92.8267 239.986 92.477 240.238 92.1282 240.492C90.3861 241.749 89.4394 242.13 87.3052 241.992C86.7192 241.406 86.7192 241.406 86.6094 240.362C86.7438 235.707 91.5726 231.138 94.6488 228.13C96.1265 226.778 97.6962 225.585 99.3169 224.414C99.494 224.284 99.671 224.154 99.8535 224.02C102.061 222.409 104.325 220.949 106.733 219.653C107.034 219.488 107.034 219.488 107.34 219.319C111.964 216.911 117.129 215.57 122.1 214.095C140.91 208.502 159.03 202.02 168.933 183.863C173.327 175.559 175.687 165.388 173.145 156.152C172.642 154.649 172.096 153.324 170.801 152.343C166.466 150.318 160.039 151.885 155.567 152.929C155.264 152.999 154.962 153.068 154.65 153.139C146.908 154.938 139.552 157.632 132.422 161.133C132.158 161.261 131.893 161.39 131.621 161.523C126.071 164.245 120.896 167.523 116.309 171.679C116.01 171.94 115.711 172.201 115.411 172.461C103.975 182.498 100.704 196.02 98.3288 210.437C98.2798 210.733 98.2309 211.03 98.1805 211.336C98.0878 211.899 97.9958 212.463 97.9047 213.027C97.8634 213.279 97.8221 213.531 97.7796 213.791C97.7439 214.012 97.7082 214.232 97.6715 214.46C97.5591 215.039 97.5591 215.039 97.2661 215.918C101.296 214.547 104.083 213.065 106.055 209.179C107.768 205.54 108.754 201.736 109.278 197.754C109.471 197.85 109.665 197.947 109.864 198.047C109.871 199.865 109.876 201.684 109.88 203.502C109.881 204.12 109.883 204.737 109.886 205.354C109.889 206.247 109.891 207.139 109.892 208.032C109.894 208.303 109.895 208.575 109.897 208.855C109.897 210.735 109.77 212.583 109.571 214.453C109.305 214.568 109.039 214.682 108.765 214.801C108.576 214.883 108.386 214.965 108.191 215.05C107.723 215.247 107.251 215.434 106.776 215.613C102.182 217.398 98.1639 220.179 94.3364 223.242C94.1516 223.389 93.9667 223.537 93.7762 223.689C91.6277 225.419 89.7642 227.168 88.088 229.37C87.5981 229.98 87.5981 229.98 87.0122 230.273C86.274 226.414 86.7096 222.457 87.177 218.59C87.2018 218.383 87.2266 218.177 87.2522 217.964C87.8642 212.954 88.8515 208.031 89.8892 203.096C90.0827 202.168 90.2709 201.24 90.4592 200.312C93.4653 185.527 98.7527 173.91 110.413 163.934C111.01 163.421 111.603 162.908 112.181 162.374C114.404 160.332 116.824 158.543 119.239 156.738C119.416 156.604 119.593 156.47 119.776 156.332C129.687 148.87 141.417 145.507 153.32 142.664C153.528 142.613 153.736 142.563 153.951 142.511C154.524 142.373 155.098 142.238 155.672 142.102C159.91 140.888 163.649 138.347 165.821 134.472C167.391 131.298 167.758 127.614 166.7 124.218C166.032 122.502 165.126 121.634 163.444 120.88C163.107 120.757 162.77 120.635 162.422 120.508C162.041 120.367 161.661 120.226 161.28 120.085C161.082 120.012 160.885 119.94 160.682 119.865C155.698 118.032 150.771 116.105 146.778 112.5C146.55 112.316 146.322 112.133 146.087 111.944C137.692 104.966 131.842 91.529 130.372 80.8591C130.322 80.0043 130.31 79.1506 130.302 78.2945C130.299 78.0468 130.296 77.7991 130.293 77.544C130.286 76.7386 130.282 75.9333 130.28 75.1279C130.279 74.8526 130.278 74.5773 130.277 74.2937C130.269 70.4187 130.507 66.7253 131.122 62.8988C131.454 60.8124 131.664 58.7848 131.672 56.6709C131.674 56.4393 131.677 56.2076 131.68 55.969C131.661 54.6073 131.437 53.3806 131.096 52.0613C130.975 51.5907 130.975 51.5907 130.852 51.1105C130.79 50.8729 130.728 50.6352 130.665 50.3904ZM207.422 161.426C207.715 162.011 207.715 162.011 207.715 162.011L207.422 161.426Z" fill="black"/>
<path d="M140.039 182.812C141.615 184.389 141.292 187.664 141.307 189.748C141.306 190.118 141.304 190.488 141.302 190.869C141.302 191.255 141.301 191.64 141.3 192.037C141.268 195.083 141.001 198.005 140.332 200.977C140.302 201.331 140.272 201.686 140.24 202.051C139.396 203.719 137.743 204.014 136.047 204.602C135.667 204.74 135.286 204.879 134.906 205.018C131.921 206.09 128.883 206.946 125.82 207.764C122.496 208.654 119.375 209.8 116.272 211.29C115.704 211.531 115.152 211.683 114.551 211.816C115.025 210.134 115.844 208.691 116.675 207.166C119.917 201.078 120.875 196.142 120.41 189.258C121.284 190.357 121.731 191.487 122.168 192.81C122.244 193.04 122.321 193.27 122.399 193.507C123.299 196.336 124.031 199.456 123.926 202.441C128.444 202.343 131.679 201.927 135.059 198.633C138.898 194.128 139.897 188.541 140.039 182.812Z" fill="black"/>
<path d="M168.164 167.285C168.261 167.285 168.357 167.285 168.457 167.285C168.421 175.718 164.153 184.875 158.352 190.875C158.109 191.115 157.867 191.354 157.617 191.602C157.248 191.973 157.248 191.973 156.871 192.352C148.781 200.391 148.781 200.391 145.02 200.391C145.447 199.474 145.967 198.632 146.505 197.777C150.128 191.962 151.637 185.504 151.923 178.711C151.935 178.428 151.948 178.145 151.961 177.854C151.992 177.163 152.022 176.472 152.051 175.781C155.224 179.897 154.389 185.031 153.809 189.844C161.406 185.97 164.616 178.222 167.207 170.45C167.546 169.401 167.865 168.347 168.164 167.285Z" fill="black"/>
<path d="M166.113 70.0192C167.211 70.5475 167.737 70.9939 168.42 71.9967C168.852 73.2429 168.917 73.9746 168.75 75.2926C168.047 76.2639 167.557 76.6648 166.425 77.0504C165.267 77.0504 164.728 76.8242 163.77 76.1715C162.465 74.8419 162.042 73.6244 162.012 71.777C162.636 69.8007 164.331 69.7755 166.113 70.0192Z" fill="black"/>
</svg>
