<svg width="300" height="300" viewBox="0 0 300 300" fill="none" xmlns="http://www.w3.org/2000/svg">
<path d="M173.413 82.1463C174.121 82.7768 174.809 83.4199 175.488 84.0815C175.736 84.3172 175.983 84.5529 176.239 84.7957C176.592 85.1673 176.592 85.1673 176.953 85.5464C177.137 85.7292 177.322 85.912 177.512 86.1003C184.053 92.8833 186.835 102.479 186.701 111.724C186.468 118.453 183.724 124.411 180.568 130.227C179.969 131.34 179.391 132.464 178.82 133.593C178.724 133.781 178.627 133.968 178.527 134.162C177.225 136.745 177.067 140.111 177.813 142.913C179.026 145.894 181.741 147.822 184.57 149.121C185.824 149.582 187.082 149.969 188.379 150.292C188.707 150.377 188.707 150.377 189.042 150.463C194.634 151.318 200.266 150.347 204.913 147.07C205.961 146.3 206.7 145.469 206.94 144.152C207.036 143.256 207.097 142.36 207.153 141.462C207.358 139.013 208.271 137.196 210.058 135.509C212.662 133.506 215.691 133.371 218.847 133.593C221.115 134.074 222.928 135.351 224.414 137.109C226.488 140.509 226.995 143.901 226.275 147.807C224.191 155.037 219.254 160.766 212.745 164.414C202.25 170.02 190.588 170.17 179.389 166.788C179.173 166.721 178.957 166.655 178.734 166.586C178.144 166.411 177.551 166.258 176.953 166.113C181.744 173.219 188.309 176.738 196.61 178.45C198.605 178.797 200.585 178.823 202.606 178.82C202.895 178.82 202.895 178.82 203.189 178.82C207.448 178.809 211.469 178.264 215.332 176.367C215.652 176.222 215.972 176.077 216.302 175.927C217.355 174.948 217.703 173.89 218.181 172.55C219.124 170.35 220.901 169.175 222.987 168.15C225.646 167.112 228.64 167.235 231.258 168.325C233.956 169.808 235.684 171.956 236.602 174.877C237.159 177.794 236.767 180.699 235.105 183.178C233.493 185.157 231.36 186.781 228.808 187.207C225.558 187.48 222.897 186.93 220.312 184.863C219.243 183.769 218.342 182.728 217.675 181.347C217.516 181.402 217.356 181.457 217.191 181.513C206.506 185.128 195.463 185.292 185.138 180.267C177.269 176.256 172.088 169.957 169.308 161.638C168.879 160.186 168.529 158.834 168.75 157.324C169.379 156.544 169.862 156.458 170.837 156.243C172.298 156.503 172.92 157.168 174.028 158.117C180.821 163.337 190.766 164.614 199.046 163.544C205.158 162.614 210.73 160.326 215.332 156.152C215.517 155.994 215.702 155.836 215.892 155.673C219.048 152.806 221.279 148.445 221.557 144.195C221.529 142.697 221.213 141.295 220.186 140.162C218.758 138.926 217.587 138.781 215.773 138.803C214.514 138.912 213.651 139.348 212.796 140.267C212.308 141.072 212.329 141.524 212.384 142.456C212.461 145.682 211.371 147.79 209.198 150.146C204.683 154.495 198.285 156.014 192.185 155.983C188.293 155.879 184.542 154.963 181.054 153.222C180.806 153.1 180.558 152.977 180.303 152.851C176.378 150.714 174.067 147.553 172.597 143.427C171.225 138.304 172.991 132.862 175.523 128.415C175.846 127.864 176.17 127.313 176.495 126.763C180.748 119.369 182.794 111.382 180.733 102.889C180.646 102.58 180.558 102.271 180.468 101.953C180.351 101.516 180.351 101.516 180.232 101.071C179.022 97.0384 176.976 93.4736 174.316 90.2339C174.158 90.0281 174 89.8222 173.838 89.6102C169.233 83.8834 161.416 80.2843 154.221 79.4558C144.733 78.6251 136.504 81.0499 129.047 87.0158C123.513 91.7218 119.655 98.7905 118.945 106.054C118.722 110.567 118.763 114.904 120.117 119.238C120.256 119.698 120.256 119.698 120.397 120.168C121.373 122.985 122.868 125.592 124.265 128.216C126.316 132.075 126.316 132.075 126.91 134.069C127.005 134.381 127.1 134.693 127.197 135.015C128.31 139.225 127.903 143.387 125.845 147.225C123.118 151.567 118.611 153.998 113.759 155.263C106.862 156.833 99.7873 155.772 93.6421 152.261C91.002 150.537 88.9011 148.344 87.8903 145.312C87.822 144.282 87.7786 143.252 87.737 142.22C87.5903 141.16 87.3543 140.596 86.7184 139.746C85.247 138.705 83.7702 138.66 82.0309 138.867C80.6465 139.354 79.8882 139.974 79.1013 141.21C78.0695 143.618 78.4971 146.18 79.4308 148.553C82.4328 155.083 87.7032 159.273 94.3236 161.8C96.0515 162.411 97.8145 162.821 99.6091 163.183C99.9357 163.249 100.262 163.315 100.599 163.383C109.066 164.833 118.829 163.461 125.976 158.496C126.411 158.114 126.839 157.724 127.258 157.324C128.024 156.605 128.506 156.3 129.565 156.243C130.664 156.445 130.664 156.445 131.414 156.866C132.22 158.303 131.686 159.702 131.295 161.207C129.935 165.712 127.739 169.991 124.511 173.437C124.333 173.639 124.154 173.84 123.97 174.048C118.612 179.805 110.442 182.824 102.832 183.984C102.458 184.041 102.458 184.041 102.076 184.099C95.9085 184.865 89.5843 184.017 83.8712 181.596C83.1843 181.296 83.1843 181.296 82.3239 181.347C81.9854 181.789 81.9854 181.789 81.7014 182.373C80.3257 184.682 78.4131 186.221 75.8454 187.023C72.6903 187.707 70.078 187.029 67.291 185.504C65.1908 183.794 63.8246 181.68 63.2809 179.003C62.9841 175.749 63.8602 173.035 65.9177 170.507C67.5611 168.699 69.5206 167.725 71.9498 167.465C75.3479 167.362 78.0402 167.99 80.5581 170.348C81.264 171.234 81.6425 172.122 82.0859 173.162C82.9828 175.203 84.1645 175.997 86.1977 176.857C95.1281 180.095 104.827 179.349 113.383 175.37C117.766 173.11 121.144 170.051 123.633 165.82C123.374 165.906 123.374 165.906 123.111 165.994C111.585 169.819 99.6875 170.524 88.5285 164.982C81.8939 161.505 76.4821 155.788 74.0304 148.653C73.0808 145.353 73.092 141.648 74.7067 138.574C76.0729 136.258 78.0677 134.484 80.6805 133.732C83.829 133.161 86.8399 133.45 89.5131 135.272C91.9106 137.228 92.5629 139.125 92.8708 142.144C92.8845 142.343 92.8983 142.541 92.9125 142.746C93.0569 144.434 93.6411 145.495 94.8289 146.685C99.4436 150.139 105.148 151.284 110.805 150.495C114.831 149.773 118.88 148.139 121.397 144.775C122.993 141.999 122.964 138.653 122.168 135.644C121.638 133.832 120.759 132.296 119.769 130.7C115.933 124.493 113.541 117.582 113.58 110.247C113.582 109.914 113.583 109.582 113.585 109.239C113.624 106.534 113.858 103.983 114.55 101.367C114.606 101.159 114.661 100.951 114.717 100.736C117.306 91.3905 123.445 83.5807 131.842 78.7613C144.898 71.5321 161.782 72.6019 173.413 82.1463ZM69.764 173.619C68.4792 175.052 68.1635 176.171 68.1996 178.119C68.345 179.511 69.0069 180.41 70.0375 181.292C71.5644 182.429 72.837 182.407 74.7067 182.226C75.9492 181.85 76.6627 181.173 77.4716 180.157C78.2382 178.614 78.2584 176.784 77.7257 175.159C77.0821 173.902 76.24 173.19 74.9997 172.558C73.111 172.024 71.2668 172.317 69.764 173.619ZM223.169 174.06C222.264 175.545 221.889 177.062 222.253 178.784C222.781 180.224 223.329 180.995 224.579 181.878C226.368 182.496 228.09 182.566 229.815 181.75C231.246 180.424 231.926 179.253 232.06 177.315C231.995 175.846 231.378 174.87 230.438 173.785C229.07 172.617 228.078 172.443 226.309 172.485C224.956 172.622 224.14 173.142 223.169 174.06Z" fill="black"/>
<path d="M142.365 156.043C142.621 156.034 142.878 156.026 143.142 156.018C143.848 156.153 143.848 156.153 144.318 156.626C144.848 157.531 144.877 158.211 144.934 159.257C144.946 159.449 144.957 159.641 144.969 159.838C145.006 160.471 145.038 161.104 145.069 161.737C145.094 162.18 145.119 162.624 145.144 163.067C145.196 163.997 145.246 164.926 145.294 165.856C145.354 167.039 145.419 168.222 145.486 169.404C145.55 170.541 145.612 171.678 145.673 172.815C145.685 173.028 145.696 173.241 145.708 173.46C146.259 183.631 145.449 194.645 138.355 202.625C137.943 203.055 137.529 203.483 137.11 203.907C136.868 204.166 136.626 204.426 136.377 204.694C133.428 207.422 133.428 207.422 132.422 207.422C132.602 207.652 132.782 207.882 132.968 208.119C135.166 210.962 136.548 213.391 136.231 217.09C135.714 219.88 134.338 222.273 132.102 224.039C129.744 225.624 127.277 226.154 124.475 225.678C121.685 225.022 119.524 223.668 117.993 221.228C116.529 218.618 116.129 215.931 116.803 212.987C117.758 210.128 119.348 208.158 121.875 206.543C122.812 206.09 123.773 205.728 124.75 205.371C128.319 203.997 131.151 202.536 133.887 199.805C134.13 199.567 134.13 199.567 134.378 199.324C139.458 193.902 140.501 186.1 140.387 179.004C140.383 178.517 140.379 178.031 140.375 177.544C140.366 176.37 140.351 175.197 140.332 174.024C140.165 174.329 139.998 174.634 139.825 174.948C133.626 186.007 123.259 194.194 111.046 197.711C107.574 198.647 104.112 199.392 100.527 199.71C99.6019 199.772 99.6019 199.772 98.7307 200.098C98.8364 200.301 98.9421 200.504 99.0511 200.712C100.413 203.585 100.817 206.547 99.7377 209.601C98.4273 212.364 96.174 214.262 93.384 215.442C89.9507 216.014 87.2409 215.606 84.2825 213.73C82.3335 212.221 81.333 210.014 80.5666 207.715C80.2907 204.278 80.7555 201.286 82.9847 198.568C85.8553 195.646 89.81 194.897 93.7548 194.699C94.1466 194.678 94.5385 194.657 94.9303 194.635C95.1323 194.625 95.3343 194.614 95.5424 194.603C106.792 193.982 117.624 191.33 126.27 183.692C126.578 183.441 126.578 183.441 126.893 183.185C128.586 181.79 129.916 180.151 131.25 178.418C131.418 178.206 131.586 177.995 131.759 177.776C136.168 171.894 138.555 164.65 140.111 157.543C140.49 156.165 141.035 156.062 142.365 156.043ZM86.1513 202.497C85.2821 203.876 85.0843 205.281 85.364 206.877C85.8553 208.486 86.8249 209.406 88.1838 210.352C89.4102 210.965 90.9498 210.769 92.2853 210.645C93.7343 209.972 94.4262 209.088 95.215 207.715C95.6917 206.285 95.6285 205.153 95.1601 203.723C94.1861 201.91 93.063 201.041 91.1135 200.391C89.1439 200.098 87.3825 200.966 86.1513 202.497ZM122.534 212.366C121.372 213.98 121.171 215.006 121.427 216.963C121.752 218.456 122.47 219.213 123.651 220.13C125.042 220.843 126.507 220.833 128.028 220.606C129.493 219.886 130.517 218.849 131.25 217.383C131.476 215.47 131.415 213.89 130.258 212.303C129.134 211.146 127.839 210.593 126.233 210.517C124.555 210.706 123.7 211.147 122.534 212.366Z" fill="black"/>
<path d="M158.203 156.061C158.463 156.056 158.723 156.051 158.99 156.046C159.326 156.099 159.326 156.099 159.668 156.152C160.222 156.983 160.377 157.396 160.57 158.342C160.625 158.602 160.68 158.863 160.736 159.132C160.795 159.412 160.853 159.691 160.913 159.979C162.577 167.566 165.445 175.29 171.162 180.807C171.68 181.348 171.68 181.348 171.68 181.934C171.93 182.042 171.93 182.042 172.187 182.153C172.955 182.577 173.484 183.081 174.115 183.691C182.861 191.669 194.587 194.126 206.058 194.629C210.504 194.831 214.302 195.544 217.464 198.895C219.116 200.915 219.9 203.49 219.815 206.09C219.442 209.246 218.294 211.472 215.918 213.574C213.456 215.5 210.797 215.967 207.715 215.625C204.709 214.786 202.606 213.33 200.989 210.681C200.235 209.146 199.984 207.73 199.988 206.03C199.988 205.825 199.988 205.62 199.988 205.408C200.035 203.26 200.668 201.586 201.855 199.805C201.318 199.762 201.318 199.762 200.769 199.718C191.708 198.937 182.667 196.408 175.195 191.016C174.781 190.725 174.781 190.725 174.359 190.429C172.032 188.746 169.933 186.857 167.871 184.863C167.705 184.705 167.54 184.548 167.369 184.385C166.085 183.137 164.975 181.806 163.898 180.377C163.732 180.16 163.567 179.943 163.397 179.719C162.237 178.176 161.17 176.604 160.254 174.902C159.548 175.608 159.89 177.402 159.888 178.345C159.89 186.236 161.329 194.473 166.992 200.391C169.794 203.125 173.022 204.508 176.642 205.829C179.561 206.927 181.853 208.808 183.215 211.652C184.103 214.095 184.112 217.138 183.215 219.58C181.907 222.298 180.129 224.183 177.305 225.334C174.838 225.996 171.743 225.952 169.426 224.839C166.669 223.108 165.083 221.032 164.062 217.969C163.749 213.724 164.551 211.266 167.335 208.024C167.6 207.726 167.6 207.726 167.871 207.422C167.667 207.358 167.463 207.293 167.253 207.227C166.195 206.738 165.416 206.05 164.575 205.261C164.408 205.105 164.241 204.948 164.068 204.787C157.947 198.913 154.987 190.365 154.655 181.999C154.637 181.073 154.632 180.149 154.632 179.224C154.632 178.88 154.632 178.536 154.632 178.182C154.649 175.315 154.835 172.475 155.065 169.618C155.29 166.68 155.308 163.762 155.226 160.816C155.22 160.495 155.214 160.173 155.208 159.842C155.2 159.56 155.191 159.278 155.183 158.988C155.397 157.131 156.369 156.069 158.203 156.061ZM206.03 202.112C204.934 203.635 204.503 204.946 204.785 206.836C205.306 208.386 206.025 209.456 207.422 210.352C209.004 210.879 210.625 210.85 212.201 210.315C213.41 209.472 214.271 208.555 214.746 207.129C214.961 205.148 214.799 203.478 213.574 201.855C211.06 199.854 208.299 199.74 206.03 202.112ZM169.501 212.933C168.732 214.501 168.537 215.793 169.079 217.438C169.725 218.939 170.749 219.987 172.265 220.605C174.071 220.815 175.722 220.805 177.246 219.727C178.384 218.525 178.928 217.468 179.114 215.826C178.934 214.065 178.282 212.708 176.935 211.542C174.248 209.656 171.51 210.615 169.501 212.933Z" fill="black"/>
<path d="M138.556 123.541C139.826 124.2 140.571 124.966 141.211 126.27C141.682 128.051 141.563 129.332 140.625 130.957C139.754 131.989 139.026 132.713 137.695 133.008C136.094 133.079 134.852 132.932 133.593 131.891C132.686 131.043 132.192 130.272 132.03 129.028C132.005 127.268 132.069 126.17 133.3 124.805C134.833 123.422 136.539 122.829 138.556 123.541Z" fill="black"/>
<path d="M165.216 123.54C166.767 124.345 167.61 125.484 168.164 127.148C168.336 128.897 167.984 130.121 166.992 131.543C165.853 132.576 164.781 132.949 163.274 133.056C161.708 132.944 160.599 132.198 159.54 131.085C158.623 129.655 158.604 128.213 158.789 126.562C160.039 124.062 162.427 122.556 165.216 123.54Z" fill="black"/>
</svg>
