<svg width="300" height="300" viewBox="0 0 300 300" fill="none" xmlns="http://www.w3.org/2000/svg">
<path d="M90.3972 64.1396C92.7994 64.349 95.1277 64.7191 97.4854 65.2218C97.8537 65.2999 98.222 65.378 98.6014 65.4584C111.956 68.3539 123.521 73.7265 133.476 83.1753C134.472 84.0624 134.472 84.0624 135.645 84.6676C136.541 84.571 137.369 84.2994 138.226 84.0268C146.171 81.7504 155.444 81.8084 163.377 84.2419C164.234 84.4079 164.701 84.3754 165.527 84.0817C166.127 83.5846 166.664 83.0924 167.212 82.5436C169.432 80.4125 171.831 78.5667 174.316 76.7575C174.58 76.5639 174.58 76.5639 174.849 76.3664C184.29 69.5063 198.515 63.8602 210.352 64.1598C210.545 64.2565 210.738 64.3532 210.938 64.4528C213.992 79.5529 206.175 99.4726 198.633 112.207C198.462 112.395 198.291 112.583 198.114 112.776C197.995 112.975 197.876 113.174 197.754 113.379C198.021 114.391 198.544 115.242 199.084 116.134C199.23 116.377 199.376 116.619 199.527 116.869C199.679 117.119 199.831 117.369 199.988 117.627C200.133 117.868 200.279 118.109 200.428 118.357C201.27 119.749 202.121 121.134 202.976 122.518C204.302 124.671 205.6 126.841 206.891 129.016C207.012 129.219 207.133 129.423 207.257 129.633C209.26 133.006 211.211 136.406 213.126 139.829C213.602 140.674 214.084 141.514 214.568 142.354C214.811 142.776 214.811 142.776 215.059 143.207C215.366 143.74 215.674 144.272 215.983 144.804C216.119 145.042 216.256 145.28 216.397 145.525C216.517 145.732 216.637 145.939 216.761 146.153C217.119 146.833 217.402 147.524 217.676 148.242C217.414 148.221 217.152 148.2 216.883 148.178C205.074 147.328 193.892 148.112 182.787 152.444C182.227 152.636 182.227 152.636 181.641 152.636C181.724 152.872 181.808 153.108 181.894 153.351C184.468 160.625 187.024 167.905 189.551 175.195C189.697 175.618 189.697 175.618 189.847 176.049C190.433 177.742 191.018 179.435 191.6 181.13C191.783 181.662 191.967 182.195 192.151 182.728C192.405 183.463 192.658 184.2 192.91 184.936C192.985 185.154 193.061 185.373 193.139 185.597C193.434 186.464 193.652 187.163 193.652 188.086C193.865 188.17 194.078 188.255 194.298 188.342C194.803 188.545 195.307 188.752 195.808 188.965C201.047 191.156 206.059 190.688 211.247 188.576C214.927 186.998 218.252 184.927 221.341 182.389C222.07 181.933 222.07 181.933 222.702 182.051C222.88 182.109 223.058 182.167 223.242 182.226C223.493 184.163 223.559 185.979 223.352 187.921C223.325 188.172 223.299 188.424 223.272 188.683C221.892 200.371 215.633 211.763 207.703 220.279C207.174 220.85 206.675 221.436 206.177 222.033C205.212 223.142 204.156 224.145 203.082 225.146C202.914 225.305 202.745 225.463 202.571 225.627C201.341 226.757 201.341 226.757 200.684 226.757C200.684 226.951 200.684 227.144 200.684 227.343C200.866 227.374 201.049 227.404 201.237 227.435C203.593 227.841 205.902 228.397 208.22 228.981C208.628 229.083 209.037 229.185 209.446 229.288C210.297 229.5 211.148 229.714 211.999 229.928C213.082 230.2 214.165 230.471 215.249 230.742C216.091 230.952 216.933 231.163 217.775 231.374C218.174 231.474 218.573 231.574 218.973 231.674C221.194 232.229 223.401 232.81 225.586 233.496C225.698 233.981 225.795 234.47 225.879 234.961C225.352 235.488 224.632 235.292 223.93 235.296C223.69 235.296 223.449 235.296 223.201 235.296C222.947 235.297 222.693 235.298 222.431 235.299C221.568 235.302 220.705 235.303 219.842 235.304C219.221 235.306 218.601 235.308 217.98 235.31C216.266 235.315 214.552 235.318 212.838 235.321C210.993 235.324 209.148 235.33 207.303 235.335C203.684 235.344 200.066 235.352 196.448 235.359C193.508 235.365 190.568 235.371 187.629 235.378C186.784 235.38 185.939 235.382 185.093 235.384C184.883 235.384 184.673 235.385 184.457 235.385C178.545 235.399 172.633 235.411 166.721 235.423C166.498 235.423 166.275 235.423 166.045 235.424C164.914 235.426 163.783 235.428 162.653 235.43C162.316 235.431 162.316 235.431 161.972 235.432C161.518 235.433 161.064 235.433 160.61 235.434C153.543 235.448 146.476 235.464 139.41 235.482C131.477 235.502 123.544 235.52 115.611 235.535C114.766 235.536 113.92 235.538 113.075 235.54C112.763 235.54 112.763 235.54 112.444 235.541C109.089 235.547 105.734 235.556 102.379 235.565C99.0088 235.574 95.6387 235.581 92.2685 235.585C90.4415 235.588 88.6144 235.592 86.7874 235.598C85.1167 235.603 83.4461 235.606 81.7754 235.607C81.1691 235.607 80.5629 235.609 79.9566 235.612C79.1361 235.616 78.3157 235.616 77.4951 235.615C77.2567 235.617 77.0183 235.619 76.7726 235.621C75.6525 235.616 74.7766 235.597 73.8281 234.961C73.9108 234.402 73.9108 234.402 74.1211 233.789C75.0098 233.413 75.8282 233.155 76.7578 232.91C77.1154 232.815 77.4729 232.72 77.8413 232.622C79.1588 232.277 80.48 231.947 81.8012 231.617C82.2887 231.494 82.7762 231.371 83.2636 231.248C84.539 230.927 85.8146 230.606 87.0904 230.286C89.1393 229.772 91.188 229.257 93.2364 228.741C93.9514 228.561 94.6665 228.382 95.3816 228.203C95.8174 228.093 96.2531 227.983 96.6888 227.874C96.888 227.824 97.0872 227.774 97.2924 227.723C98.3308 227.461 98.3308 227.461 99.3164 227.05C99.0789 226.834 98.8413 226.618 98.5966 226.395C95.289 223.371 92.1649 220.335 89.4653 216.745C89.0666 216.216 88.6621 215.692 88.2568 215.168C81.8159 206.735 75.3221 194.087 76.593 183.142C76.6474 182.84 76.7018 182.538 76.7578 182.226C77.2722 182.034 77.2722 182.034 77.9297 181.933C78.491 182.217 78.491 182.217 79.0741 182.666C79.2901 182.828 79.5061 182.99 79.7287 183.158C79.9568 183.334 80.1849 183.51 80.4199 183.691C80.8983 184.047 81.3774 184.402 81.8573 184.755C82.0896 184.927 82.3218 185.098 82.5611 185.275C87.3452 188.752 93.6443 191.267 99.6271 190.335C101.972 189.889 104.185 189.349 106.055 187.793C106.539 187.068 106.785 186.321 107.039 185.491C107.117 185.26 107.196 185.028 107.276 184.79C107.536 184.017 107.784 183.241 108.032 182.464C108.215 181.914 108.399 181.363 108.584 180.813C108.988 179.607 109.388 178.399 109.786 177.191C110.497 175.039 111.234 172.897 111.975 170.756C112.04 170.568 112.105 170.38 112.172 170.186C112.434 169.428 112.697 168.669 112.96 167.91C113.406 166.622 113.85 165.334 114.294 164.045C114.413 163.697 114.533 163.349 114.656 162.991C114.889 162.315 115.121 161.64 115.353 160.965C115.853 159.513 116.356 158.063 116.872 156.617C116.955 156.382 117.039 156.148 117.125 155.906C117.276 155.482 117.429 155.059 117.582 154.636C117.947 153.661 117.947 153.661 118.066 152.636C112.34 150.262 106.349 148.915 100.195 148.242C99.8243 148.2 99.8243 148.2 99.4458 148.157C97.2587 147.931 95.0868 147.904 92.8894 147.912C92.52 147.913 92.1506 147.913 91.77 147.914C88.7124 147.928 85.6679 148.043 82.6172 148.242C82.9775 147.08 83.3975 146.048 83.9928 144.988C84.1518 144.704 84.3108 144.42 84.4746 144.128C84.6472 143.824 84.8197 143.52 84.9976 143.206C85.1785 142.886 85.3594 142.565 85.5457 142.234C87.2674 139.196 89.0477 136.193 90.8363 133.194C91.931 131.357 93.0069 129.51 94.0796 127.661C95.4537 125.296 96.851 122.947 98.2727 120.611C98.4353 120.344 98.598 120.077 98.7655 119.801C98.9228 119.544 99.08 119.287 99.242 119.022C99.4719 118.644 99.4719 118.644 99.7065 118.259C100.054 117.706 100.414 117.16 100.781 116.62C100.972 116.338 101.163 116.056 101.359 115.765C101.536 115.511 101.712 115.257 101.894 114.995C102.324 114.095 102.266 113.726 101.953 112.793C101.573 112.062 101.181 111.358 100.763 110.65C93.3857 97.8181 89.0349 83.4282 88.9709 68.5727C88.9693 68.2007 88.9676 67.8287 88.9659 67.4454C88.9924 64.1775 88.9924 64.1775 90.3972 64.1396ZM93.457 68.2614C92.8055 82.1851 98.1473 97.4395 104.59 109.57C104.88 109.57 105.17 109.57 105.469 109.57C106.089 108.925 106.53 108.145 107.007 107.391C107.145 107.19 107.283 106.988 107.426 106.78C108.274 105.446 108.564 104.525 108.281 102.961C107.93 101.531 107.525 100.122 107.098 98.7118C106.037 95.1078 105.093 91.4814 104.187 87.8354C104.124 87.5806 104.06 87.3259 103.995 87.0634C103.812 86.3279 103.63 85.5923 103.448 84.8565C103.394 84.6398 103.34 84.423 103.285 84.1998C102.917 82.7002 102.576 81.1957 102.246 79.6872C107.732 82.0664 111.956 86.7394 116.125 90.8932C116.266 91.0332 116.407 91.1732 116.552 91.3174C118.1 92.8592 119.604 94.4083 120.996 96.0934C120.5 97.1639 119.94 97.7416 119.037 98.5104C117.93 99.4845 116.922 100.464 115.977 101.595C115.586 102.059 115.183 102.514 114.773 102.961C108.02 110.504 103.169 119.98 98.05 128.661C97.4401 129.692 96.823 130.719 96.2036 131.744C95.0489 133.665 93.9123 135.596 92.7795 137.53C92.5161 137.978 92.5161 137.978 92.2472 138.436C91.3217 140.02 90.4461 141.609 89.6484 143.261C89.8497 143.266 90.051 143.27 90.2583 143.274C104.737 143.614 119.611 146.188 130.957 155.859C131.194 156.053 131.431 156.247 131.675 156.447C135.507 159.708 138.049 163.653 139.73 168.382C140.514 170.058 141.672 170.892 143.28 171.716C143.572 171.868 143.572 171.868 143.869 172.023C146.822 173.513 149.563 174.265 152.783 173.264C154.551 172.682 156.329 172.09 157.91 171.093C158.196 170.929 158.196 170.929 158.488 170.76C160.338 169.46 160.907 167.632 161.699 165.605C162.574 163.409 163.683 161.758 165.234 159.961C165.435 159.713 165.636 159.465 165.843 159.21C174.029 149.508 188.443 144.752 200.677 143.653C203.895 143.413 207.127 143.346 210.352 143.261C209.977 142.281 209.556 141.371 209.04 140.458C208.894 140.199 208.749 139.941 208.598 139.674C208.44 139.396 208.281 139.117 208.118 138.83C207.951 138.536 207.784 138.242 207.612 137.939C205.728 134.633 203.781 131.365 201.833 128.097C201.302 127.203 200.774 126.307 200.249 125.41C193.101 113.109 193.101 113.109 184.281 102.001C183.723 101.401 183.194 100.784 182.666 100.158C181.554 98.8767 180.293 97.7785 179.004 96.6793C183.324 89.8941 190.797 83.0191 198.047 79.3942C197.98 79.639 197.913 79.8838 197.845 80.136C197.249 82.3412 196.681 84.5513 196.138 86.7699C195.871 87.8575 195.604 88.9451 195.337 90.0326C195.233 90.4563 195.233 90.4563 195.127 90.8885C194.192 94.6776 193.204 98.4235 191.927 102.114C191.79 102.523 191.79 102.523 191.651 102.94C191.57 103.17 191.489 103.399 191.406 103.636C191.199 105.038 192.106 106.146 192.883 107.245C193.055 107.49 193.226 107.735 193.403 107.987C193.931 108.672 194.492 109.267 195.117 109.863C203.056 99.0618 206.469 81.559 206.836 68.5543C203.232 68.5543 198.302 73.3806 195.361 75.4432C189.266 79.7173 183.053 83.7583 176.697 87.6339C176.522 87.7411 176.346 87.8483 176.166 87.9588C175.347 88.4586 174.527 88.9531 173.701 89.4402C173.187 89.7431 172.677 90.0529 172.176 90.375C171.437 90.8159 170.809 91.1555 169.934 91.032C169.298 90.8152 168.713 90.5481 168.109 90.2523C166.136 89.3885 164.202 88.7279 162.103 88.2382C161.749 88.153 161.749 88.153 161.388 88.066C157.588 87.2009 153.812 86.8987 149.927 86.9198C149.716 86.9205 149.505 86.9211 149.288 86.9217C143.053 86.9516 136.57 87.8056 131.042 90.9115C129.84 91.2726 128.994 90.7292 127.928 90.1627C127.087 89.6913 126.257 89.2053 125.427 88.7143C125.119 88.5326 124.81 88.351 124.492 88.1638C117.858 84.2387 111.412 80.0487 105.103 75.6222C102.647 73.9005 100.157 72.2414 97.6318 70.6234C97.316 70.4205 97.0002 70.2176 96.6748 70.0085C95.1337 68.9966 95.1337 68.9966 93.457 68.2614ZM123.047 155.273C122.033 157.653 121.222 160.092 120.426 162.551C120.208 163.221 119.987 163.891 119.766 164.56C119.626 164.993 119.485 165.426 119.345 165.859C119.279 166.055 119.214 166.252 119.147 166.455C118.285 169.148 118.265 170.742 119.427 173.316C119.543 173.584 119.659 173.853 119.779 174.13C120.161 175.012 120.551 175.891 120.941 176.77C121.212 177.391 121.483 178.013 121.753 178.635C122.306 179.908 122.861 181.179 123.419 182.449C124.137 184.087 124.845 185.73 125.546 187.376C125.65 187.62 125.754 187.864 125.861 188.116C126.07 188.605 126.278 189.094 126.487 189.584C128.691 194.753 130.933 199.907 133.174 205.061C134.843 208.9 136.505 212.742 138.151 216.591C138.27 216.869 138.27 216.869 138.392 217.153C139.237 219.13 140.081 221.107 140.924 223.085C142.333 226.387 143.767 229.668 145.312 232.91C148.503 232.91 151.693 232.91 154.98 232.91C159.348 222.927 159.348 222.927 163.605 212.896C168.123 202.034 172.813 191.241 177.539 180.468C177.623 180.277 177.707 180.086 177.793 179.889C178.566 178.126 179.341 176.364 180.117 174.602C180.224 174.354 180.33 174.106 180.44 173.851C180.762 173.144 180.762 173.144 181.138 172.49C181.836 171.217 182.023 170.392 181.69 168.965C181.488 168.304 181.275 167.647 181.055 166.992C180.909 166.533 180.765 166.073 180.621 165.613C180.125 164.042 179.611 162.478 179.095 160.913C178.916 160.364 178.736 159.816 178.557 159.267C178.121 157.935 177.684 156.604 177.246 155.273C171.359 157.531 166.819 162.868 164.298 168.451C162.333 172.78 159.061 174.996 154.688 176.66C150.251 178.119 146.497 177.251 142.347 175.365C139.038 173.653 137.456 171.84 135.938 168.457C134.724 165.848 133.478 163.567 131.543 161.425C131.37 161.228 131.196 161.031 131.018 160.828C128.955 158.621 126.276 156.724 123.633 155.273C123.439 155.273 123.246 155.273 123.047 155.273Z" fill="black"/>
<path d="M186.319 124.935C189.701 127.598 189.701 127.598 190.137 128.906C189.789 128.97 189.442 129.034 189.084 129.1C178.239 131.187 170.191 137.026 164.001 146.126C161.121 150.479 158.897 155.392 157.031 160.253C156.838 160.253 156.645 160.253 156.445 160.253C156.834 148.888 158.321 135.017 166.406 126.269C166.578 126.064 166.751 125.858 166.928 125.647C172.045 119.923 180.513 120.665 186.319 124.935Z" fill="black"/>
<path d="M131.853 124.374C140.187 131.278 142.446 143.946 143.555 154.102C143.723 156.151 143.804 158.2 143.848 160.254C143.119 159.603 142.762 159.023 142.399 158.119C142.296 157.87 142.194 157.62 142.088 157.364C141.98 157.097 141.872 156.83 141.76 156.556C137.343 145.983 130.43 136.072 119.531 131.543C116.381 130.306 113.198 129.467 109.863 128.907C115.296 122.252 124.321 118.786 131.853 124.374Z" fill="black"/>
<path d="M156.445 160.84C156.817 161.954 156.815 163.011 156.83 164.172C156.838 164.394 156.847 164.615 156.856 164.843C156.869 165.978 156.824 166.56 156.216 167.549C154.295 169.366 151.612 170.071 149.011 170.016C147.087 169.781 145.223 168.953 143.848 167.578C142.868 166.022 143.078 163.981 143.374 162.226C143.599 161.375 143.805 160.882 144.434 160.254C147.743 159.209 153.457 158.848 156.445 160.84Z" fill="black"/>
</svg>
