<svg width="300" height="300" viewBox="0 0 300 300" fill="none" xmlns="http://www.w3.org/2000/svg">
<path d="M102.832 52.7344C104.766 53.0107 105.348 53.2316 106.659 54.4556C106.993 54.7523 107.327 55.0483 107.661 55.3436C107.832 55.4951 108.002 55.6465 108.177 55.8025C108.989 56.5088 109.836 57.1665 110.687 57.8247C112.193 58.9955 113.679 60.188 115.155 61.3953C116.852 62.7811 118.572 64.1264 120.314 65.4545C121.414 66.3007 122.486 67.1806 123.56 68.0603C125.844 69.9319 128.184 71.7268 130.541 73.5057C130.957 73.8281 130.957 73.8281 131.25 74.1211C133.424 74.062 135.547 73.5777 137.662 73.11C141.812 72.2332 145.952 71.9585 150.183 71.9788C150.525 71.9794 150.525 71.9794 150.874 71.9801C155.92 71.9973 160.814 72.4496 165.704 73.7489C166.858 74.053 167.857 74.3092 169.043 74.1211C169.848 73.636 170.535 73.0366 171.24 72.4182C171.658 72.065 172.076 71.7122 172.495 71.3596C172.807 71.0936 172.807 71.0936 173.125 70.8222C173.993 70.0918 174.885 69.3956 175.781 68.7012C177.88 67.0636 179.941 65.3814 182.005 63.7C183.45 62.524 184.906 61.3615 186.374 60.2131C188.674 58.4131 190.951 56.587 193.214 54.7405C193.391 54.5978 193.568 54.4551 193.75 54.3081C194.181 53.9532 194.599 53.5823 195.015 53.2093C195.703 52.7344 195.703 52.7344 197.168 52.7344C197.168 68.5898 197.168 84.4453 197.168 100.781C194.268 100.781 191.367 100.781 188.379 100.781C182.039 101.513 175.379 103.503 170.508 107.812C170.158 108.105 170.158 108.105 169.802 108.403C161.139 115.847 157.795 126.854 155.435 137.616C154.817 140.418 154.103 143.168 153.223 145.898C153.926 146.231 154.482 146.49 155.268 146.467C156.163 146.05 156.729 145.414 157.416 144.708C157.558 144.563 157.701 144.417 157.848 144.267C158.816 143.269 159.738 142.237 160.643 141.181C162.062 139.57 163.628 138.13 165.254 136.733C165.807 136.242 166.328 135.733 166.846 135.205C167.721 134.316 168.638 133.493 169.583 132.678C170.273 132.078 170.949 131.463 171.625 130.847C173.163 129.461 174.755 128.154 176.367 126.855C176.703 126.581 177.038 126.306 177.373 126.031C180.074 123.829 182.866 121.791 185.742 119.824C186.057 119.609 186.057 119.609 186.377 119.389C189.907 116.983 193.52 114.722 197.168 112.5C197.431 112.339 197.693 112.179 197.964 112.014C198.741 111.539 199.52 111.067 200.299 110.596C200.53 110.455 200.761 110.314 200.999 110.169C202.612 109.2 204.263 108.339 205.957 107.52C206.561 108.032 206.561 108.032 207.129 108.691C207.1 109.265 207.1 109.265 206.836 109.863C206.269 110.303 206.269 110.303 205.516 110.72C205.236 110.879 204.956 111.038 204.668 111.201C204.209 111.454 204.209 111.454 203.741 111.713C203.094 112.081 202.446 112.45 201.799 112.819C201.301 113.104 201.301 113.104 200.792 113.394C189.272 120.058 178.583 127.903 168.899 137.025C167.767 138.089 166.615 139.129 165.456 140.164C165.182 140.41 164.909 140.657 164.648 140.918C164.787 142.864 165.179 144.669 165.684 146.548C165.762 146.844 165.84 147.139 165.92 147.444C166.184 148.443 166.451 149.441 166.718 150.439C166.91 151.166 167.103 151.892 167.296 152.619C167.972 155.165 168.653 157.71 169.336 160.254C169.401 160.496 169.466 160.738 169.533 160.988C172.845 173.336 176.182 185.677 179.552 198.009C181.488 205.095 183.408 212.185 185.322 219.277C185.382 219.5 185.443 219.723 185.505 219.953C185.747 220.85 185.989 221.748 186.231 222.646C187.083 225.804 187.938 228.961 188.796 232.118C189.149 233.417 189.501 234.717 189.853 236.016C190.184 237.238 190.516 238.46 190.849 239.682C191.099 240.601 191.348 241.52 191.597 242.44C191.687 242.77 191.778 243.1 191.871 243.441C191.952 243.741 192.033 244.041 192.116 244.351C192.187 244.611 192.258 244.872 192.331 245.14C192.48 245.801 192.48 245.801 192.48 246.68C179.042 246.68 165.604 246.68 151.758 246.68C151.661 215.839 151.564 184.998 151.465 153.223C150.595 153.223 149.725 153.223 148.828 153.223C148.731 183.967 148.635 214.711 148.535 246.387C147.401 246.614 146.537 246.716 145.404 246.715C145.071 246.715 144.739 246.716 144.397 246.716C144.035 246.715 143.673 246.714 143.3 246.713C142.917 246.713 142.534 246.713 142.139 246.713C141.091 246.713 140.043 246.711 138.994 246.709C137.898 246.708 136.802 246.707 135.705 246.707C133.63 246.706 131.555 246.704 129.48 246.701C127.117 246.698 124.754 246.696 122.391 246.694C117.532 246.691 112.672 246.686 107.812 246.68C107.961 245.583 108.108 244.502 108.39 243.431C108.447 243.213 108.503 242.994 108.562 242.77C108.625 242.533 108.688 242.296 108.753 242.052C108.822 241.789 108.891 241.527 108.962 241.257C109.2 240.354 109.44 239.452 109.68 238.55C109.765 238.228 109.851 237.906 109.939 237.574C112.295 228.685 114.731 219.818 117.155 210.947C117.5 209.686 117.844 208.424 118.189 207.163C118.315 206.7 118.315 206.7 118.444 206.228C120.391 199.103 122.317 191.972 124.236 184.84C124.94 182.225 125.646 179.61 126.352 176.995C128.597 168.685 130.835 160.373 133.061 152.058C133.147 151.737 133.232 151.416 133.321 151.085C133.485 150.47 133.649 149.856 133.813 149.241C134.155 147.959 134.499 146.678 134.854 145.399C134.91 145.196 134.966 144.992 135.024 144.782C135.167 144.264 135.312 143.747 135.457 143.23C135.637 142.418 135.715 141.745 135.645 140.918C135.223 140.308 135.223 140.308 134.619 139.783C134.403 139.58 134.187 139.377 133.965 139.168C133.187 138.473 132.408 137.781 131.617 137.101C130.969 136.534 130.335 135.952 129.704 135.366C128.2 133.971 126.664 132.641 125.064 131.356C124.462 130.864 123.874 130.367 123.291 129.853C119.021 126.095 114.333 122.92 109.57 119.824C109.365 119.691 109.16 119.557 108.948 119.419C105.307 117.057 101.574 114.848 97.8343 112.646C97.5367 112.47 97.5367 112.47 97.2331 112.291C96.8608 112.072 96.4882 111.852 96.1153 111.634C95.0074 110.981 93.9348 110.292 92.8711 109.57C93.2372 108.5 93.3606 108.17 94.3359 107.52C103.638 112.664 112.936 118.193 121.289 124.805C121.574 125.03 121.574 125.03 121.866 125.26C125.8 128.386 129.597 131.658 133.252 135.107C134.389 136.179 135.544 137.219 136.751 138.213C137.109 138.574 137.109 138.574 137.109 139.16C137.285 139.238 137.461 139.315 137.643 139.395C138.315 139.765 138.641 140.09 139.124 140.68C140.213 141.97 141.357 143.202 142.511 144.434C142.698 144.634 142.886 144.834 143.079 145.04C143.53 145.522 143.982 146.003 144.434 146.484C145.207 146.291 145.98 146.098 146.777 145.898C142.102 123.291 142.102 123.291 127.643 106.146C119.367 101.157 112.762 100.781 102.832 100.781C102.832 84.9258 102.832 69.0703 102.832 52.7344Z" fill="black"/>
<path d="M229.395 108.691C229.415 118.36 229.43 128.029 229.439 137.698C229.441 138.842 229.442 139.987 229.443 141.132C229.443 141.36 229.443 141.588 229.444 141.822C229.447 145.499 229.454 149.176 229.462 152.852C229.471 156.632 229.475 160.412 229.477 164.192C229.478 166.52 229.482 168.847 229.489 171.175C229.495 172.968 229.495 174.76 229.494 176.553C229.494 177.283 229.496 178.012 229.499 178.742C229.57 194.773 224.185 208.769 213.025 220.367C208.905 224.382 200.919 231.152 194.824 231.152C194.824 196.444 194.824 161.736 194.824 125.977C195.41 126.27 195.41 126.27 195.605 126.786C195.663 127.013 195.721 127.241 195.78 127.476C195.847 127.74 195.914 128.004 195.983 128.276C196.054 128.568 196.125 128.861 196.198 129.163C196.272 129.465 196.347 129.768 196.424 130.079C197.498 134.54 198.348 139.051 199.219 143.555C199.475 143.081 199.475 143.081 199.736 142.597C204.351 134.126 209.904 126.591 216.797 119.824C217.522 119.101 218.245 118.377 218.963 117.648C220.248 116.349 221.544 115.088 222.931 113.9C223.63 113.297 224.315 112.68 225 112.061C225.245 111.84 225.489 111.62 225.742 111.393C226.212 110.969 226.682 110.545 227.151 110.118C227.464 109.838 227.464 109.838 227.783 109.552C228.06 109.302 228.06 109.302 228.342 109.047C228.809 108.691 228.809 108.691 229.395 108.691Z" fill="black"/>
<path d="M177.209 112.17C178.205 113.165 178.506 113.992 178.528 115.393C178.497 116.796 178.207 117.588 177.246 118.652C176.122 119.644 175.01 119.681 173.566 119.634C172.2 119.437 171.43 118.74 170.544 117.737C170.049 116.471 170.022 115.304 170.215 113.965C170.859 112.652 171.534 111.954 172.852 111.328C174.445 110.813 175.855 111.287 177.209 112.17Z" fill="black"/>
<path d="M128.083 111.841C129.106 112.659 129.691 113.252 129.868 114.583C129.927 116.051 129.767 117.126 128.907 118.36C127.892 119.3 127.057 119.624 125.702 119.715C124.301 119.657 123.54 119.24 122.561 118.254C121.775 117.291 121.609 116.544 121.473 115.32C121.615 113.945 121.952 113.335 122.754 112.207C124.543 110.866 126.103 110.754 128.083 111.841Z" fill="black"/>
</svg>
