<svg width="300" height="300" viewBox="0 0 300 300" fill="none" xmlns="http://www.w3.org/2000/svg">
<path d="M125.098 91.1141C125.359 91.2285 125.619 91.3429 125.888 91.4608C128.693 92.8398 131.107 94.9821 132.423 97.8523C132.423 98.0457 132.423 98.2391 132.423 98.4383C132.67 98.4662 132.917 98.4942 133.171 98.523C137.23 99.3606 140.812 102.504 143.244 105.726C145.827 109.714 146.615 114.288 145.899 118.946C144.785 123.951 142.163 127.43 138.282 130.665C138.185 130.858 138.089 131.052 137.989 131.251C138.198 131.285 138.408 131.32 138.624 131.355C148.813 133.671 159.027 143.263 164.472 151.816C171.407 162.919 174.099 175.898 171.235 188.771C170.598 191.491 169.728 194.035 168.501 196.546C167.999 197.588 167.999 197.588 167.926 198.721C169.095 201.161 172.254 202.389 174.628 203.23C178.225 204.382 181.848 204.815 185.601 205.089C186.121 205.127 186.121 205.127 186.652 205.166C190.154 205.411 193.654 205.515 197.163 205.59C197.843 205.607 198.524 205.623 199.205 205.64C200.638 205.675 202.071 205.708 203.504 205.741C207.264 205.828 211.024 205.924 214.783 206.02C215.158 206.029 215.533 206.039 215.918 206.048C222.677 206.221 229.434 206.428 236.191 206.681C236.91 206.708 237.63 206.734 238.35 206.76C251.633 207.24 251.633 207.24 255.762 208.009C255.666 208.202 255.569 208.395 255.469 208.595C250.548 208.799 245.629 208.961 240.704 209.049C240.367 209.055 240.029 209.061 239.681 209.067C229.575 209.244 219.467 209.235 209.36 209.235C207.195 209.235 205.029 209.238 202.864 209.242C200.736 209.246 198.607 209.248 196.479 209.248C195.224 209.247 193.97 209.248 192.716 209.251C179.212 209.283 179.212 209.283 174.061 207.954C173.811 207.892 173.561 207.829 173.303 207.765C170.038 206.909 166.912 205.632 164.211 203.576C163.381 203.288 163.103 203.356 162.267 203.557C161.914 203.641 161.914 203.641 161.554 203.727C160.493 203.995 159.434 204.273 158.379 204.564C158.155 204.625 157.932 204.687 157.702 204.75C157.233 204.879 156.765 205.009 156.296 205.139C155.589 205.334 154.88 205.528 154.171 205.721C149.706 206.791 149.706 206.791 145.899 209.18C145.802 209.374 145.706 209.567 145.606 209.766C131.298 209.766 116.989 209.766 102.247 209.766C102.802 208.1 103.15 207.408 104.591 206.544C106.396 205.742 108.033 205.55 109.989 205.61C110.243 205.613 110.498 205.617 110.76 205.62C111.836 205.634 112.911 205.659 113.987 205.683C117.045 205.745 119.828 205.798 122.755 204.786C122.821 203.173 122.452 202.403 121.473 201.16C121.203 200.799 120.934 200.437 120.666 200.074C120.527 199.887 120.388 199.699 120.245 199.506C118.2 196.684 116.455 193.782 115.43 190.43C115.359 190.199 115.288 189.967 115.214 189.729C113.848 184.276 115.257 178.777 117.402 173.753C118.244 171.715 118.54 169.457 117.767 167.345C116.519 165.069 114.737 163.841 112.354 162.91C109.918 162.213 107.737 163.062 105.41 163.789C103.888 164.253 102.391 164.545 100.819 164.777C97.4666 165.306 95.1913 166.612 93.1647 169.337C92.9714 169.24 92.778 169.143 92.5788 169.044C92.6755 167.787 92.7722 166.53 92.8718 165.235C92.5938 165.386 92.3159 165.537 92.0295 165.693C91.7274 165.832 91.4252 165.971 91.114 166.114C90.9206 166.017 90.7272 165.921 90.528 165.821C90.6731 165.415 90.8277 165.013 90.9858 164.613C91.0708 164.388 91.1557 164.164 91.2433 163.933C92.4641 161.932 94.3932 161.052 96.4789 160.163C99.2381 158.918 102.022 157.412 103.256 154.462C103.782 152.35 103.659 150.225 102.65 148.288C99.309 143.058 93.5462 141.871 87.8913 140.498C84.9345 139.775 82.1482 139.018 79.3952 137.696C79.0844 137.548 79.0844 137.548 78.7674 137.396C73.5355 134.864 73.5355 134.864 71.9245 132.313C71.5732 130.469 71.9225 128.974 72.8862 127.366C73.4604 126.545 74.1746 125.895 74.9274 125.245C75.0842 125.106 75.241 124.966 75.4025 124.823C75.8523 124.424 76.3053 124.029 76.7585 123.634C76.9586 123.456 77.1588 123.278 77.365 123.095C77.9399 122.586 78.5211 122.085 79.1022 121.583C79.4025 121.319 79.7027 121.054 80.0029 120.79C87.6766 114.068 95.9695 109.95 106.348 109.571C106.285 109.355 106.221 109.138 106.156 108.915C105.016 104.761 105.287 100.947 107.354 97.1027C109.451 93.8345 112.367 91.4575 116.124 90.4274C119.099 89.89 122.3 89.8749 125.098 91.1141ZM117.094 107.113C114.475 110.535 113.554 114.071 113.966 118.36C114.236 119.677 114.55 120.955 115.137 122.169C115.427 122.265 115.717 122.362 116.016 122.462C116.156 122.244 116.156 122.244 116.298 122.021C117.894 119.697 120.093 118.112 122.755 117.188C123.045 117.188 123.335 117.188 123.633 117.188C122.177 119.417 120.677 121.468 118.787 123.352C117.934 124.226 117.774 124.399 117.774 125.684C120.38 128.165 123.934 129.464 127.491 129.503C131.749 129.295 135.147 127.817 138.081 124.714C140.484 121.835 141.728 118.297 141.443 114.529C141.008 110.623 139.231 107.614 136.315 105.023C130.586 100.575 121.781 101.842 117.094 107.113ZM93.2197 120.411C92.2724 121.71 92.1784 122.634 92.2858 124.22C92.8405 125.76 93.6328 126.502 94.9225 127.442C96.4956 127.967 97.9101 127.994 99.4086 127.259C100.781 126.046 101.549 124.882 101.688 123.052C101.631 121.83 101.202 120.854 100.362 119.968C99.0856 118.857 98.0876 118.56 96.4034 118.591C95.0169 118.734 94.108 119.391 93.2197 120.411Z" fill="black"/>
<path d="M98.4373 119.825C99.4635 120.423 100.129 121.025 100.488 122.169C100.623 123.384 100.563 124.064 100.03 125.171C99.1517 126.163 98.5462 126.514 97.2655 126.856C95.8858 126.817 95.0898 126.414 94.0428 125.519C93.305 124.251 93.129 123.31 93.4569 121.876C94.6496 119.771 96.1858 119.566 98.4373 119.825Z" fill="black"/>
</svg>
