<svg width="300" height="300" viewBox="0 0 300 300" fill="none" xmlns="http://www.w3.org/2000/svg">
<path d="M159.001 50.9978C159.433 51.0155 159.433 51.0155 159.872 51.0335C160.183 51.0478 160.494 51.0621 160.815 51.0769C161.132 51.0903 161.45 51.1037 161.778 51.1176C162.796 51.1609 163.814 51.2064 164.832 51.252C165.52 51.2817 166.209 51.3113 166.898 51.3407C168.59 51.4132 170.281 51.4876 171.973 51.5633C172.332 52.4239 172.691 53.2847 173.049 54.1458C173.274 54.6863 173.5 55.2266 173.728 55.766C173.967 56.3342 174.197 56.9052 174.426 57.4776C174.506 57.6632 174.586 57.8488 174.668 58.04C175.264 59.5547 175.212 60.8136 174.902 62.4031C174.837 62.7449 174.771 63.0866 174.704 63.4387C173.039 71.631 173.039 71.631 170.702 73.3758C169.905 73.8486 169.092 74.2633 168.253 74.6554C166.962 75.316 165.821 76.2047 164.648 77.0515C164.148 77.3984 163.646 77.7448 163.145 78.0907C162.245 78.7178 161.38 79.3654 160.531 80.059C157.592 82.3951 154.997 82.8349 151.27 82.875C150.531 82.9138 149.842 83.0433 149.121 83.2039C149.286 83.2348 149.452 83.2657 149.622 83.2975C150.383 83.4411 151.144 83.588 151.904 83.7349C152.164 83.7834 152.424 83.8319 152.692 83.8819C157.098 84.7405 157.098 84.7405 158.643 86.5913C158.863 86.8519 159.084 87.1125 159.311 87.381C159.525 87.6461 159.74 87.9112 159.961 88.1844C160.157 88.4253 160.354 88.6662 160.556 88.9145C160.945 89.3974 161.331 89.8823 161.715 90.369C162.313 91.1245 162.92 91.8709 163.531 92.6155C164.779 94.1369 166.021 95.6628 167.261 97.1903C168.082 98.2019 168.904 99.2129 169.727 100.222C171.358 102.222 172.975 104.231 174.563 106.266C175.574 107.559 176.609 108.832 177.649 110.102C178.977 111.725 180.265 113.373 181.531 115.046C182.789 116.707 184.083 118.321 185.442 119.901C186.405 121.023 187.325 122.173 188.232 123.341C189.426 124.876 190.658 126.371 191.92 127.85C192.889 128.985 193.84 130.13 194.745 131.316C195.402 132.151 195.402 132.151 196.21 132.903C199.592 136.321 200.237 140.848 201.214 145.371C201.463 146.511 201.725 147.648 201.988 148.785C202.067 149.128 202.067 149.128 202.148 149.477C202.255 149.94 202.362 150.403 202.47 150.866C202.63 151.562 202.79 152.259 202.949 152.956C204.048 157.748 205.347 162.478 206.685 167.208C206.869 167.856 207.051 168.504 207.233 169.152C207.394 169.729 207.558 170.305 207.725 170.88C208.638 174.136 208.665 177.417 208.77 180.777C208.795 181.582 208.821 182.387 208.848 183.192C208.935 185.842 209.017 188.491 209.095 191.141C209.139 192.643 209.185 194.146 209.231 195.648C209.24 195.944 209.249 196.241 209.259 196.547C209.371 200.164 209.537 203.769 209.815 207.378C210.376 214.983 210.084 220.673 206.68 227.56C205.343 230.279 204.288 233.108 203.206 235.936C202.873 236.802 202.537 237.665 202.198 238.528C202.092 238.799 201.985 239.07 201.876 239.349C201.772 239.613 201.668 239.878 201.561 240.15C200.985 241.619 200.415 243.088 199.877 244.57C199.758 244.896 199.758 244.896 199.637 245.228C199.492 245.628 199.349 246.029 199.209 246.431C198.758 247.676 198.342 248.4 197.181 249.054C196.961 249.155 196.742 249.257 196.516 249.361C196.262 249.48 196.008 249.599 195.747 249.721C195.468 249.85 195.189 249.979 194.902 250.111C192.096 251.43 189.314 252.79 186.543 254.181C186.157 254.374 185.771 254.568 185.385 254.762C184.21 255.351 183.035 255.941 181.86 256.532C180.471 257.23 179.081 257.927 177.691 258.624C177.142 258.9 176.593 259.176 176.044 259.452C175.714 259.618 175.384 259.783 175.044 259.954C174.754 260.1 174.464 260.246 174.165 260.396C172.851 261.023 171.745 261.077 170.317 261.071C170.087 261.071 169.857 261.072 169.619 261.072C168.844 261.072 168.07 261.071 167.295 261.069C166.741 261.069 166.187 261.069 165.632 261.069C164.125 261.069 162.618 261.068 161.111 261.066C159.537 261.064 157.963 261.064 156.388 261.063C153.406 261.062 150.424 261.06 147.443 261.057C144.048 261.054 140.654 261.052 137.259 261.051C130.276 261.048 123.292 261.042 116.309 261.036C116.309 260.45 116.309 260.45 116.739 260.016C116.935 259.851 117.132 259.686 117.334 259.516C117.545 259.336 117.757 259.157 117.975 258.971C118.31 258.688 118.31 258.688 118.652 258.399C119.093 258.016 119.532 257.631 119.971 257.246C120.312 256.947 120.654 256.647 120.996 256.348C118.746 257.019 116.501 257.706 114.258 258.399C113.965 258.106 113.965 258.106 113.936 257.309C113.941 256.824 113.941 256.824 113.947 256.33C113.949 256.006 113.952 255.683 113.955 255.349C113.96 254.974 113.96 254.974 113.965 254.591C114.856 254.12 115.747 253.65 116.638 253.181C116.889 253.048 117.14 252.916 117.398 252.78C117.891 252.52 118.384 252.262 118.879 252.007C119.382 251.74 119.871 251.448 120.353 251.145C123.855 249.788 128.569 250.452 132.263 250.46C132.954 250.461 133.644 250.461 134.335 250.462C136.142 250.463 137.948 250.466 139.755 250.469C141.603 250.472 143.451 250.473 145.299 250.475C148.917 250.478 152.535 250.483 156.152 250.489C156.019 250.182 155.887 249.875 155.75 249.558C155.248 248.399 154.747 247.24 154.245 246.081C154.03 245.583 153.814 245.085 153.599 244.587C152.301 241.589 151.008 238.589 149.725 235.584C146.84 228.842 143.919 222.115 140.918 215.424C140.766 215.083 140.613 214.742 140.456 214.391C139.761 212.839 139.055 211.295 138.319 209.762C138.191 209.491 138.063 209.221 137.932 208.942C137.698 208.449 137.459 207.958 137.215 207.469C137.114 207.255 137.013 207.04 136.909 206.82C136.82 206.637 136.731 206.455 136.639 206.267C136.324 204.62 137.65 202.73 138.366 201.283C138.49 201.031 138.613 200.778 138.741 200.518C139.136 199.713 139.532 198.908 139.929 198.103C140.446 197.051 140.963 195.999 141.479 194.947C141.605 194.691 141.731 194.435 141.861 194.171C142.795 192.266 143.702 190.351 144.582 188.421C144.958 187.609 145.26 186.967 145.898 186.329C146.629 186.173 147.341 186.049 148.079 185.944C148.417 185.893 148.417 185.893 148.761 185.842C149.507 185.73 150.254 185.621 151 185.513C151.519 185.436 152.038 185.359 152.557 185.281C153.927 185.077 155.297 184.876 156.667 184.676C158.054 184.473 159.441 184.266 160.827 184.06C162.861 183.759 164.894 183.458 166.928 183.16C167.137 183.129 167.347 183.098 167.563 183.066C167.959 183.009 168.354 182.952 168.75 182.896C169.16 182.838 169.569 182.778 169.979 182.716C171.373 182.516 172.018 182.516 173.181 183.344C173.454 183.533 173.726 183.723 174.007 183.918C174.303 184.133 174.598 184.349 174.902 184.571C175.237 184.811 175.572 185.05 175.907 185.289C176.415 185.651 176.923 186.014 177.426 186.382C178.978 187.513 180.6 188.531 182.227 189.552C180.968 188.143 179.686 186.759 178.386 185.389C177.947 184.921 177.514 184.448 177.087 183.97C174.692 181.085 174.692 181.085 171.397 179.662C170.277 179.716 169.216 179.989 168.135 180.27C166.555 180.641 164.943 180.841 163.338 181.076C162.3 181.23 161.264 181.396 160.228 181.562C160.019 181.596 159.81 181.629 159.594 181.664C158.954 181.766 158.313 181.868 157.672 181.971C156.181 182.21 154.689 182.447 153.197 182.683C152.606 182.777 152.015 182.872 151.425 182.968C151.066 183.024 150.708 183.081 150.339 183.14C150.025 183.19 149.711 183.24 149.388 183.292C148.603 183.391 147.859 183.42 147.07 183.399C146.124 181.1 145.258 178.772 144.417 176.433C144.268 176.02 144.118 175.607 143.966 175.195C143.745 174.593 143.527 173.99 143.311 173.386C143.182 173.03 143.053 172.674 142.92 172.308C142.578 171.018 142.578 171.018 142.969 170.216C143.684 169.741 144.37 169.344 145.129 168.952C145.605 168.698 146.081 168.443 146.556 168.188C146.821 168.047 147.086 167.906 147.359 167.761C148.352 167.227 149.337 166.679 150.322 166.128C150.588 165.979 150.588 165.979 150.86 165.827C151.575 165.426 152.291 165.026 153.006 164.625C153.511 164.342 154.016 164.06 154.522 163.778C154.815 163.614 155.108 163.45 155.41 163.282C156.152 162.891 156.152 162.891 157.031 162.598C157.257 157.424 157.445 152.248 157.617 147.071C157.558 147.438 157.499 147.804 157.438 148.182C157.218 149.543 156.996 150.903 156.773 152.264C156.677 152.853 156.582 153.441 156.487 154.03C156.35 154.877 156.212 155.723 156.072 156.57C156.009 156.964 156.009 156.964 155.945 157.367C155.904 157.613 155.863 157.859 155.821 158.113C155.786 158.329 155.751 158.545 155.715 158.768C155.479 159.732 155.217 160.38 154.399 160.961C154.04 161.149 154.04 161.149 153.674 161.341C153.4 161.486 153.127 161.632 152.846 161.781C152.547 161.936 152.249 162.091 151.941 162.251C151.63 162.415 151.319 162.58 150.999 162.75C150.158 163.196 149.315 163.639 148.472 164.082C147.078 164.814 145.687 165.553 144.297 166.294C143.773 166.572 143.249 166.848 142.724 167.124C141.147 167.962 139.612 168.813 138.13 169.81C137.881 169.975 137.632 170.139 137.375 170.309C136.931 170.607 136.494 170.917 136.068 171.24C133.868 172.712 131.4 172.393 128.866 172.297C127.727 172.256 126.588 172.238 125.449 172.218C124.524 172.202 123.6 172.182 122.675 172.161C120.225 172.108 117.774 172.073 115.324 172.036C113.21 172.002 111.098 171.952 108.986 171.884C107.232 171.828 105.479 171.792 103.725 171.761C102.984 171.744 102.244 171.721 101.503 171.691C96.8326 171.508 93.5814 172.074 89.4171 174.237C86.4955 175.719 84.1763 175.883 80.9692 175.562C80.496 175.53 80.0225 175.5 79.549 175.472C78.4207 175.401 77.297 175.306 76.1719 175.196C76.2686 174.423 76.3652 173.649 76.4648 172.852C77.2986 172.574 77.9689 172.478 78.8395 172.403C79.099 172.38 79.3585 172.356 79.6259 172.333C79.9544 172.305 80.2829 172.277 80.6213 172.248C82.1894 172.112 82.1894 172.112 83.7891 171.973C80.3086 171.538 80.3086 171.538 76.7578 171.095C76.7578 168.165 76.7578 168.165 77.0508 167.579C79.1341 166.997 81.3602 166.85 83.5075 166.646C84.1126 166.585 84.7176 166.525 85.3226 166.464C86.261 166.371 87.1994 166.278 88.1381 166.188C89.0546 166.099 89.9706 166.007 90.8867 165.914C91.1642 165.888 91.4416 165.862 91.7275 165.836C94.5722 165.542 96.9127 164.597 99.456 163.331C99.8427 163.141 99.8427 163.141 100.237 162.947C101.066 162.539 101.894 162.129 102.722 161.72C103.58 161.297 104.437 160.875 105.295 160.453C105.857 160.177 106.418 159.901 106.98 159.624C108.732 158.762 110.49 157.911 112.256 157.078C113.027 156.713 113.794 156.343 114.561 155.971C115.593 155.471 116.634 154.998 117.681 154.531C121.16 152.928 122.981 151.471 124.714 148.072C125.484 146.652 126.403 145.322 127.295 143.977C127.673 143.399 128.05 142.822 128.428 142.244C129.442 140.699 130.465 139.161 131.494 137.626C132.318 136.395 133.113 135.15 133.887 133.887C133.541 134.039 133.195 134.19 132.838 134.346C132.382 134.541 131.926 134.736 131.47 134.931C131.242 135.031 131.014 135.132 130.78 135.235C130.448 135.375 130.448 135.375 130.11 135.518C129.908 135.606 129.705 135.693 129.496 135.783C128.793 135.968 128.412 135.893 127.734 135.645C127.243 135.25 127.243 135.25 126.764 134.748C126.586 134.563 126.409 134.378 126.226 134.187C125.524 133.42 124.844 132.635 124.165 131.847C123.617 131.234 123.047 130.656 122.461 130.079C121.699 129.329 120.978 128.565 120.282 127.753C119.529 126.877 118.742 126.056 117.92 125.245C117.104 124.44 116.322 123.625 115.576 122.755C115.408 122.566 115.239 122.377 115.066 122.182C114.551 121.583 114.551 121.583 114.054 120.892C112.622 119.117 111.267 118.693 109.104 118.342C108.832 118.295 108.56 118.247 108.281 118.198C107.442 118.052 106.602 117.912 105.762 117.774C105.272 117.691 104.782 117.608 104.292 117.525C103.092 117.323 101.89 117.128 100.689 116.935C99.3605 116.722 98.0333 116.503 96.706 116.285C95.0362 116.011 93.3662 115.738 91.6954 115.471C90.3255 115.252 88.9566 115.028 87.5881 114.8C87.0721 114.716 86.5559 114.632 86.0393 114.551C80.9371 113.748 80.9371 113.748 78.8086 112.208C78.5685 112.05 78.3284 111.892 78.081 111.729C77.8962 111.592 77.7115 111.455 77.5211 111.314C77.3094 111.159 77.0977 111.003 76.8795 110.843C76.6641 110.683 76.4487 110.523 76.2268 110.358C74.192 108.867 72.1364 107.429 70.0195 106.055C70.4485 105.156 70.9495 104.332 71.4844 103.492C72.5601 101.708 73.178 99.9689 72.9492 97.8523C72.4939 97.145 72.0595 96.5464 71.521 95.9114C69.8736 93.9087 69.8736 93.9087 69.4336 92.8719C72.8453 89.9409 76.2571 87.0127 79.7447 84.1721C81.1396 83.0259 82.5137 81.8554 83.8895 80.6865C84.8431 79.8767 85.7987 79.0693 86.7539 78.2615C87.5554 77.5835 88.3564 76.905 89.1563 76.2253C89.479 75.9513 89.8018 75.6774 90.1245 75.4036C90.3621 75.2019 90.3621 75.2019 90.6045 74.9962C91.8438 73.9474 93.1032 72.9252 94.3713 71.9113C95.2245 71.208 95.2245 71.208 95.9669 70.4094C98.3016 68.0107 100.417 67.2301 103.639 66.5218C104.106 66.4106 104.573 66.2983 105.039 66.1852C106.257 65.8927 107.477 65.6138 108.698 65.3378C109.935 65.0555 111.169 64.7593 112.403 64.4648C122.506 62.0682 122.506 62.0682 125.641 61.9888C125.838 61.9832 126.035 61.9775 126.238 61.9716C126.853 61.9545 127.468 61.9407 128.082 61.927C128.505 61.9158 128.928 61.9044 129.351 61.8927C130.374 61.8649 131.398 61.8402 132.422 61.8172C132.75 63.7988 133.033 65.7733 133.218 67.7738C133.275 68.3145 133.275 68.3145 133.333 68.8662C133.41 69.6037 133.477 70.3424 133.534 71.0817C133.762 73.0804 134.046 74.2436 135.617 75.5718C136.581 76.3065 136.581 76.3065 137.733 76.4136C138.639 76.0151 139.38 75.3938 140.149 74.781C140.311 74.6549 140.472 74.5288 140.639 74.3988C141.46 73.7548 142.263 73.0954 143.053 72.4144C143.848 71.7781 143.848 71.7781 144.434 71.7781C144.482 71.455 144.531 71.1319 144.581 70.799C144.765 69.5785 144.951 68.3581 145.136 67.1379C145.216 66.6138 145.295 66.0897 145.374 65.5655C145.412 65.3129 145.45 65.0603 145.489 64.8001C145.546 64.423 145.546 64.423 145.604 64.0383C145.721 63.283 145.847 62.5297 145.974 61.776C146.122 60.8771 146.222 59.9984 146.27 59.0889C146.515 56.4575 146.515 56.4575 147.518 55.5544C148.929 54.5956 150.492 53.985 152.069 53.3577C152.541 53.1559 153.012 52.9526 153.482 52.7477C154.339 52.3769 155.199 52.0148 156.064 51.6641C157.826 50.9466 157.826 50.9466 159.001 50.9978ZM101.367 74.9779C100.542 76.1432 100.542 76.1432 99.7333 77.3195C99.261 78.0117 98.7744 78.6929 98.2887 79.3758C97.9347 79.8884 97.5815 80.4014 97.229 80.9151C97.0553 81.1584 96.8816 81.4017 96.7026 81.6523C95.7585 83.0635 95.3017 84.0217 95.5904 85.7219C95.9002 86.7594 96.2907 87.7598 96.6797 88.7703C98.6192 88.8074 100.559 88.8331 102.498 88.8508C103.158 88.8581 103.818 88.8681 104.478 88.8808C105.426 88.8986 106.374 88.9069 107.323 88.9133C107.618 88.9209 107.913 88.9285 108.217 88.9363C109.852 88.9691 109.852 88.9691 111.179 88.113C111.325 87.8465 111.471 87.58 111.621 87.3054C111.763 87.0857 111.904 86.8659 112.05 86.6395C114.451 82.5271 114.451 82.5271 115.157 77.9041C114.673 76.5879 114.058 75.9158 112.793 75.2937C111.227 74.9562 109.665 74.8465 108.069 74.7444C107.639 74.7108 107.209 74.6765 106.779 74.6414C103.877 74.1448 103.877 74.1448 101.367 74.9779Z" fill="black"/>
<path d="M261.328 89.3561C261.52 89.4173 261.712 89.4785 261.91 89.5416C265.411 90.7082 268.739 92.5186 271.289 95.2155C271.192 95.4088 271.096 95.6022 270.996 95.8014C270.81 95.6949 270.624 95.5884 270.433 95.4787C263.414 91.6974 254.395 90.3186 246.68 92.5787C238.624 95.0856 232.106 100.619 228.16 108.062C220.415 123.229 225.46 141.338 230.341 156.631C231.485 160.146 232.74 163.624 233.982 167.105C234.62 168.897 235.23 170.696 235.822 172.504C236.334 174.07 236.87 175.621 237.454 177.162C243.228 192.418 248.37 212.692 241.479 228.413C237.786 236.416 231.057 242.544 222.82 245.646C215.977 248.043 208.756 248.517 201.562 248.438C202.254 245.855 203.25 243.403 204.254 240.931C204.42 240.521 204.585 240.111 204.75 239.701C205.151 238.706 205.554 237.713 205.957 236.719C206.304 236.713 206.304 236.713 206.658 236.706C214.527 236.544 222.369 236.286 228.442 230.53C233.714 224.97 234.849 218.083 234.796 210.737C234.795 210.475 234.795 210.214 234.794 209.945C234.772 205.211 234.348 200.659 233.496 195.997C233.399 195.412 233.302 194.828 233.205 194.243C231.887 186.786 228.906 179.749 226.081 172.763C220.712 159.482 217.176 145.048 216.797 130.665C216.779 130.243 216.779 130.243 216.761 129.813C216.487 118.313 219.974 106.81 227.98 98.4106C228.256 98.1263 228.532 97.8425 228.809 97.5592C229.173 97.1831 229.173 97.1831 229.546 96.7993C237.638 88.9551 250.605 85.9339 261.328 89.3561Z" fill="black"/>
<path d="M93.75 145.313C93.6734 147.445 93.5952 149.577 93.5158 151.709C93.4889 152.434 93.4625 153.159 93.4365 153.884C93.399 154.928 93.36 155.971 93.3208 157.015C93.3095 157.338 93.2982 157.66 93.2866 157.993C93.1629 161.213 93.1629 161.213 92.8711 162.598C91.9678 163.05 90.9889 163.065 89.9958 163.171C89.7594 163.198 89.5231 163.224 89.2797 163.251C88.4963 163.337 87.7128 163.422 86.9293 163.507C86.3864 163.566 85.8434 163.626 85.3005 163.685C84.1618 163.81 83.0229 163.933 81.8841 164.056C80.4218 164.214 78.9598 164.375 77.4979 164.536C76.3766 164.659 75.2552 164.781 74.1337 164.902C73.5944 164.961 73.0552 165.02 72.5161 165.08C71.7636 165.163 71.0109 165.244 70.2581 165.324C70.0338 165.349 69.8094 165.375 69.5783 165.401C68.0357 165.562 68.0357 165.562 67.3828 165.235C67.529 164.985 67.529 164.985 67.6781 164.73C68.1639 163.615 67.9596 162.585 67.6758 161.427C66.933 160.161 66.1101 159.598 64.7461 159.083C62.8537 158.619 61.2011 158.733 59.4727 159.669C58.4428 160.434 57.8169 161.175 57.5775 162.453C57.5258 163.9 57.6616 164.949 58.5938 166.114C58.0131 166.695 56.9144 166.579 56.117 166.655C55.8884 166.678 55.6597 166.701 55.4241 166.725C54.6638 166.801 53.9034 166.875 53.1429 166.948C52.6155 167 52.0881 167.053 51.5607 167.105C50.4527 167.214 49.3446 167.323 48.2365 167.431C46.8181 167.569 45.3999 167.709 43.9817 167.849C42.8912 167.957 41.8007 168.064 40.7101 168.171C40.1874 168.222 39.6647 168.274 39.142 168.326C38.4093 168.398 37.6765 168.469 36.9436 168.54C36.7285 168.562 36.5134 168.583 36.2917 168.605C35.1273 168.717 33.9821 168.772 32.8125 168.751C31.4806 164.622 30.4501 160.478 29.6082 156.226C29.5627 155.999 29.5173 155.771 29.4705 155.536C28.7109 151.705 28.7109 151.705 28.7109 150.294C41.5938 149.204 54.4807 148.169 67.37 147.158C69.4143 146.997 71.4586 146.835 73.5029 146.674C75.5089 146.515 77.5149 146.357 79.5209 146.2C80.7042 146.107 81.8874 146.014 83.0705 145.92C84.1694 145.832 85.2683 145.746 86.3673 145.661C86.9568 145.614 87.5464 145.567 88.1359 145.52C90.0142 145.375 91.8661 145.28 93.75 145.313ZM81.1707 152.491C80.1123 153.774 80.1191 154.827 80.2734 156.446C80.6503 157.358 81.0209 157.795 81.7566 158.442C83.0304 158.957 84.1922 158.983 85.5469 158.79C86.995 158.105 87.6424 157.364 88.1836 155.86C88.3541 154.691 88.2441 154.213 87.6709 153.169C86.9037 152.21 86.3367 151.645 85.1807 151.228C83.5729 151.118 82.4013 151.444 81.1707 152.491ZM44.696 154.157C44.0635 155.296 43.8466 156.316 43.9453 157.618C44.5282 158.784 45.1769 159.573 46.2891 160.255C47.9405 160.805 49.7339 160.767 51.3794 160.218C52.4992 159.418 53.4694 158.68 53.7346 157.262C53.7848 155.889 53.6541 154.882 52.7344 153.809C49.9501 151.721 47.2542 151.862 44.696 154.157Z" fill="black"/>
<path d="M121.289 183.691C121.782 184.58 122.018 185.384 122.205 186.381C122.291 186.833 122.291 186.833 122.378 187.293C122.438 187.618 122.498 187.943 122.559 188.277C122.655 188.786 122.655 188.786 122.753 189.305C123.069 190.987 123.375 192.671 123.671 194.356C125.367 204.02 127.933 212.791 131.773 221.816C132.354 223.187 132.917 224.566 133.482 225.944C134.31 227.963 135.145 229.979 135.989 231.991C136.978 234.35 137.956 236.713 138.922 239.081C139.102 239.519 139.102 239.519 139.285 239.966C140.27 242.381 141.183 244.821 142.09 247.266C141.844 247.266 141.597 247.266 141.344 247.266C138.991 247.271 136.64 247.291 134.288 247.328C133.079 247.346 131.871 247.359 130.662 247.358C123.544 247.341 123.544 247.341 117.012 249.946C114.495 251.4 112.435 251.354 109.595 251.132C107.991 251.029 106.385 251.032 104.778 251.017C103.785 251.006 102.791 250.988 101.798 250.97C101.396 250.963 100.994 250.956 100.592 250.949C100.291 250.944 100.291 250.944 99.9846 250.938C98.9472 250.92 97.9099 250.903 96.8725 250.885C94.8551 250.851 92.8377 250.816 90.8203 250.781C91.2017 250.004 91.5974 249.3 92.1043 248.598C92.2346 248.416 92.3649 248.235 92.4992 248.048C92.7014 247.77 92.7014 247.77 92.9077 247.485C93.0448 247.295 93.1819 247.105 93.3231 246.909C93.66 246.441 93.9979 245.974 94.3359 245.508C94.0146 245.631 93.6932 245.755 93.362 245.882C92.936 246.044 92.5099 246.206 92.0837 246.368C91.8724 246.45 91.6611 246.531 91.4434 246.615C90.3625 247.025 89.3317 247.38 88.1836 247.559C87.9902 246.688 87.7969 245.818 87.5977 244.922C91.8595 241.756 95.741 241.585 100.919 241.695C101.948 241.714 102.976 241.715 104.005 241.719C105.944 241.728 107.883 241.752 109.822 241.781C112.034 241.814 114.245 241.83 116.456 241.845C120.997 241.875 125.538 241.927 130.078 241.992C129.952 241.742 129.827 241.491 129.697 241.233C128.499 238.842 127.302 236.451 126.104 234.06C125.489 232.832 124.874 231.603 124.258 230.375C119.267 220.419 119.267 220.419 117.504 216.643C116.514 214.528 115.425 212.468 114.324 210.41C114.216 210.205 114.108 209.999 113.997 209.788C113.778 209.378 113.551 208.973 113.317 208.573C112.534 207.175 112.344 206.386 112.793 204.785C113.255 203.493 113.771 202.226 114.294 200.958C114.53 200.381 114.764 199.803 114.999 199.226C115.166 198.814 115.333 198.402 115.501 197.991C116.178 196.326 116.841 194.656 117.499 192.983C117.598 192.731 117.697 192.479 117.799 192.219C118.194 191.215 118.588 190.212 118.981 189.209C119.256 188.507 119.532 187.805 119.808 187.104C119.89 186.894 119.972 186.685 120.057 186.469C120.43 185.521 120.811 184.591 121.289 183.691Z" fill="black"/>
<path d="M53.9062 118.945C55.0904 119.38 56.1308 119.948 57.2136 120.593C57.4707 120.746 57.4707 120.746 57.733 120.902C58.2769 121.225 58.8198 121.55 59.3628 121.875C59.7297 122.093 60.0967 122.311 60.4637 122.53C63.1166 124.109 63.1166 124.109 64.1602 124.805C64.1602 124.998 64.1602 125.191 64.1602 125.391C63.8459 125.505 63.5317 125.62 63.208 125.739C62.1245 126.212 61.542 126.688 60.9375 127.734C60.497 129.414 60.5892 130.404 61.4594 131.909C62.5816 133.521 64.354 134.294 66.2109 134.766C68.6781 135.028 71.1507 135.084 73.2422 133.594C73.818 133.036 74.242 132.496 74.707 131.836C75.7476 132.225 76.6702 132.688 77.6184 133.265C77.9009 133.436 78.1834 133.607 78.4744 133.784C78.9299 134.061 78.9299 134.061 79.3945 134.344C80.0473 134.74 80.7004 135.135 81.3538 135.53C81.5244 135.633 81.6951 135.736 81.8709 135.843C83.1928 136.639 84.5235 137.419 85.8582 138.194C86.0527 138.307 86.2473 138.421 86.4478 138.537C87.2168 138.984 87.9859 139.431 88.7567 139.875C89.2927 140.183 89.8277 140.494 90.3625 140.805C90.6703 140.982 90.9781 141.16 91.2952 141.343C91.9922 141.797 91.9922 141.797 92.2852 142.383C90.2784 142.551 88.2715 142.718 86.2645 142.883C85.5822 142.94 84.8999 142.997 84.2177 143.054C83.2353 143.136 82.2528 143.217 81.2702 143.298C80.9668 143.324 80.6634 143.35 80.3508 143.376C79.544 143.442 78.7374 143.501 77.9297 143.555C77.7194 143.569 77.5091 143.584 77.2925 143.599C76.7413 143.622 76.7413 143.622 75.8789 143.555C75.1465 142.731 75.1465 142.731 74.7929 142.247C73.9769 141.278 72.892 140.989 71.6732 140.825C69.6733 140.729 67.8918 141.2 66.3197 142.478C65.8246 143.083 65.6094 143.707 65.332 144.434C61.3397 144.946 57.341 145.281 53.3283 145.589C52.6655 145.641 52.0026 145.693 51.3397 145.745C49.6122 145.879 47.8847 146.013 46.157 146.146C44.3873 146.283 42.6176 146.421 40.848 146.559C37.3883 146.828 33.9286 147.096 30.4688 147.363C30.9348 146.107 31.4803 145.353 32.4097 144.379C33.3545 143.371 34.266 142.353 35.1196 141.266C36.0617 140.068 37.0367 138.905 38.031 137.75C38.1806 137.576 38.3303 137.403 38.4844 137.224C38.7881 136.871 39.0917 136.519 39.3954 136.166C40.1037 135.342 40.8077 134.514 41.51 133.685C41.6428 133.529 41.7756 133.372 41.9125 133.21C42.7606 132.206 43.5938 131.191 44.4214 130.17C45.262 129.136 46.1247 128.134 47.0215 127.148C48.1552 125.903 49.2278 124.618 50.2876 123.309C51.053 122.367 51.8282 121.433 52.6062 120.502C52.7357 120.347 52.8652 120.191 52.9987 120.031C53.3011 119.669 53.6036 119.307 53.9062 118.945ZM43.9453 133.887C43.4658 134.846 43.4604 135.784 43.6523 136.816C44.3774 138.17 45.4906 139.158 46.9734 139.619C49.8988 140.095 53.3379 140.193 55.8975 138.524C56.7591 137.859 57.3162 137.235 57.7148 136.23C57.7941 135.307 57.6914 134.48 57.4219 133.594C55.8824 131.908 53.8329 131.097 51.5854 130.91C48.5134 130.785 46.0274 131.576 43.9453 133.887Z" fill="black"/>
<path d="M156.7 39.4511C159.119 39.2272 160.93 40.6535 162.872 41.9132C163.226 42.1364 163.58 42.359 163.935 42.581C164.63 43.0166 165.32 43.4584 166.008 43.9052C166.639 44.3071 167.279 44.6955 167.929 45.066C169.794 46.1455 170.718 46.9615 171.295 49.0544C171.364 49.2687 171.433 49.483 171.505 49.7038C171.671 50.2227 171.823 50.7459 171.972 51.2699C169.921 50.9746 167.911 50.5706 165.899 50.0832C165.441 49.9742 164.984 49.8653 164.527 49.7564C163.824 49.5888 163.122 49.4191 162.421 49.2431C158.788 48.2601 158.788 48.2601 155.273 49.2191C154.977 49.3561 154.681 49.493 154.377 49.6341C153.349 50.11 152.333 50.6051 151.318 51.1051C150.631 51.4408 149.945 51.7761 149.258 52.1111C148.934 52.275 148.609 52.4389 148.275 52.6077C147.363 53.0277 147.363 53.0277 146.563 53.2326C145.751 53.4491 145.327 53.6054 144.726 54.1996C144.144 55.8368 143.947 57.4986 143.737 59.2167C143.673 59.675 143.608 60.1332 143.541 60.5911C143.192 63.0291 143.192 63.0291 142.883 65.4723C142.342 70.0479 142.342 70.0479 141.147 71.2502C140.611 71.6433 140.611 71.6433 140.057 71.9792C139.784 72.1777 139.784 72.1777 139.506 72.3803C138.209 73.2768 138.209 73.2768 137.359 73.1451C136.816 72.9496 136.816 72.9496 136.523 72.6566C136.435 72.1253 136.365 71.5911 136.301 71.0563C136.26 70.7138 136.219 70.3714 136.177 70.0185C136.134 69.6447 136.09 69.2709 136.046 68.8858C135.978 68.3116 135.978 68.3116 135.909 67.7258C135.813 66.9124 135.719 66.0989 135.625 65.2853C135.505 64.2498 135.382 63.2147 135.259 62.1797C135.164 61.3792 135.071 60.5786 134.978 59.778C134.912 59.2129 134.845 58.6479 134.777 58.083C134.13 52.4201 134.13 52.4201 135.148 51.1326C135.447 50.8294 135.753 50.5335 136.065 50.2445C136.39 49.9197 136.715 49.5947 137.04 49.2695C137.202 49.1126 137.363 48.9557 137.529 48.794C138.172 48.1578 138.765 47.4823 139.361 46.8022C140.411 45.6286 141.511 44.5178 142.632 43.4124C143.434 42.5984 144.184 41.7463 144.927 40.8787C145.559 40.1414 145.559 40.1414 146.533 40.0501C146.946 40.0253 147.36 40.0022 147.774 39.9803C147.994 39.9677 148.214 39.9552 148.441 39.9422C148.91 39.9157 149.378 39.8899 149.847 39.8647C150.555 39.8265 151.263 39.786 151.971 39.7452C152.872 39.6935 153.774 39.6493 154.676 39.6106C155.359 39.5808 156.02 39.532 156.7 39.4511Z" fill="black"/>
<path d="M110.156 128.613C110.35 128.71 110.543 128.807 110.742 128.906C110.758 129.216 110.758 129.216 110.774 129.533C110.872 131.502 110.971 133.471 111.071 135.44C111.122 136.451 111.173 137.463 111.223 138.475C111.282 139.644 111.341 140.812 111.4 141.981C111.418 142.337 111.436 142.692 111.454 143.058C111.564 145.232 111.699 147.403 111.856 149.574C111.943 151.084 111.939 152.59 111.914 154.102C111.269 154.448 110.622 154.789 109.973 155.127C109.792 155.225 109.611 155.323 109.425 155.423C107.948 156.185 106.858 156.38 105.252 155.924C104.983 155.819 104.714 155.715 104.438 155.606C103.988 155.434 103.988 155.434 103.53 155.258C103.221 155.136 102.912 155.014 102.594 154.889C101.982 154.652 101.37 154.415 100.757 154.178C100.465 154.065 100.173 153.952 99.8719 153.835C98.7203 153.401 97.5578 153.015 96.3867 152.637C96.4097 152.304 96.4327 151.972 96.4565 151.63C96.5365 150.387 96.5866 149.144 96.6281 147.9C96.6501 147.363 96.68 146.827 96.7182 146.291C96.9261 143.709 96.9261 143.709 96.3867 141.211C95.2178 139.878 93.594 139.245 91.9922 138.574C91.9922 138.478 91.9922 138.381 91.9922 138.281C94.8349 137.911 97.6641 137.956 100.525 137.97C101.034 137.971 101.543 137.973 102.052 137.974C103.288 137.977 104.525 137.982 105.762 137.988C105.879 137.61 105.879 137.61 105.999 137.224C106.347 136.232 106.764 135.331 107.238 134.393C107.408 134.055 107.578 133.717 107.753 133.368C107.931 133.016 108.11 132.664 108.289 132.312C108.469 131.953 108.65 131.594 108.831 131.235C109.272 130.361 109.713 129.487 110.156 128.613Z" fill="black"/>
<path d="M131.417 39.2188C134.882 39.2264 138.337 39.3811 141.797 39.5506C141.444 40.2812 141.078 40.9221 140.625 41.6014C140.432 41.6014 140.238 41.6014 140.039 41.6014C139.973 41.7585 139.906 41.9156 139.838 42.0775C139.079 43.4503 137.982 44.6578 136.816 45.703C136.623 45.703 136.43 45.703 136.23 45.703C136.17 45.9688 136.11 46.2347 136.047 46.5086C135.541 47.7046 134.963 47.9361 133.887 48.6327C133.474 49.1326 133.119 49.6466 132.766 50.1902C132.422 50.6834 132.422 50.6834 131.958 51.0489C131.352 51.7984 131.498 52.2964 131.596 53.2401C131.626 53.5663 131.657 53.8926 131.688 54.2288C131.725 54.5695 131.762 54.9101 131.799 55.2611C131.867 55.9362 131.933 56.6113 131.998 57.2867C132.03 57.5864 132.062 57.8861 132.094 58.1949C132.111 58.5373 132.111 58.5373 132.129 58.8866C131.541 59.474 130.371 59.2545 129.564 59.2722C129.224 59.2814 129.224 59.2814 128.876 59.2907C128.147 59.3099 127.419 59.3271 126.691 59.3443C126.198 59.357 125.705 59.3698 125.213 59.3827C124.002 59.4141 122.792 59.4438 121.582 59.4725C121.615 58.215 121.653 56.9578 121.692 55.7005C121.705 55.1714 121.705 55.1714 121.719 54.6317C121.787 52.5702 121.978 50.6379 122.461 48.6327C122.553 48.2055 122.553 48.2055 122.646 47.7698C122.78 47.1785 122.913 46.5872 123.047 45.9959C123.24 45.9959 123.434 45.9959 123.633 45.9959C123.699 45.7803 123.766 45.5647 123.834 45.3425C124.302 44.3562 124.824 43.9352 125.684 43.2677C125.97 43.0422 126.256 42.8167 126.551 42.5845C126.845 42.3567 127.139 42.129 127.441 41.8944C127.991 41.4557 128.541 41.0163 129.089 40.576C129.329 40.3857 129.568 40.1953 129.815 39.9992C130.739 39.2538 130.739 39.2538 131.417 39.2188Z" fill="black"/>
<path d="M103.776 77.5586C106.421 77.5731 109.004 77.875 111.621 78.2224C112.113 80.3872 111.732 81.636 110.614 83.5141C110.487 83.7397 110.36 83.9654 110.229 84.1979C109.918 84.7485 109.598 85.2945 109.277 85.8395C107.781 85.8885 106.284 85.9356 104.787 85.9808C104.278 85.9965 103.768 86.0127 103.259 86.0294C102.528 86.0534 101.797 86.0754 101.066 86.097C100.837 86.105 100.608 86.1129 100.372 86.121C99.8248 86.1363 99.2775 86.136 98.7305 86.1325C98.6338 86.0358 98.5371 85.9391 98.4375 85.8395C98.4618 83.8032 99.4575 82.5266 100.616 80.914C100.792 80.6627 100.967 80.4113 101.148 80.1524C102.897 77.6637 102.897 77.6637 103.776 77.5586Z" fill="black"/>
<path d="M67.0902 95.2148C70.1465 97.6719 70.1465 97.6719 70.6058 99.0234C70.4773 100.301 70.1226 101.454 69.3195 102.467C68.6402 102.993 67.9721 103.04 67.1302 103.016C65.8777 102.648 65.1709 101.524 64.4535 100.488C63.8893 99.3599 64.1462 97.91 64.1605 96.6797C65.1273 96.1963 66.0941 95.7129 67.0902 95.2148Z" fill="black"/>
</svg>
