<svg width="300" height="300" viewBox="0 0 300 300" fill="none" xmlns="http://www.w3.org/2000/svg">
<path d="M96.386 58.8863C97.3331 59.715 97.4734 60.5848 97.5579 61.816C97.3209 62.7157 96.9625 63.558 96.6057 64.4161C93.6371 72.0497 94.0781 79.7396 97.2588 87.2327C99.3993 91.9375 102.812 95.899 106.347 99.6089C106.617 99.8973 106.617 99.8973 106.893 100.191C108.348 101.702 109.98 102.994 111.62 104.296C111.904 104.526 112.187 104.756 112.479 104.992C115.618 107.484 119.019 109.574 122.46 111.621C122.396 110.13 122.165 108.738 121.122 107.607C119.96 106.57 118.704 105.652 117.454 104.724C115.005 102.854 113.063 100.38 111.5 97.739C110.447 95.9768 109.147 94.9703 107.487 93.7782C102.935 90.4754 100.463 84.8517 99.4553 79.4516C98.5924 73.6638 99.3177 67.7388 101.659 62.4019C101.799 62.0581 101.799 62.0581 101.942 61.7073C102.584 60.2494 103.444 59.0529 104.882 58.3004C106.159 58.0979 107.201 58.4763 108.251 59.1976C109.002 60.08 109.245 60.552 109.158 61.713C108.86 62.8916 108.262 63.9112 107.693 64.9791C105.148 70.0941 104.879 75.993 106.347 81.4449C106.971 83.4901 106.971 83.4901 108.105 85.2535C108.133 85.0107 108.133 85.0107 108.162 84.7631C108.748 79.909 109.529 75.3826 112.206 71.191C112.32 71.0006 112.434 70.8103 112.551 70.6142C113.029 69.9168 113.488 69.4919 114.297 69.2329C115.425 69.0521 116.115 69.0538 117.168 69.5247C118.005 70.2089 118.323 70.4713 118.608 71.5412C118.66 72.8672 118.268 73.5861 117.59 74.67C114.756 79.6029 113.812 85.2388 115.136 90.8199C116.331 94.5711 118.407 97.5488 121.288 100.195C121.963 99.0742 122.138 97.8516 122.387 96.5877C123.264 92.4391 124.784 87.3189 128.32 84.6675C129.466 84.34 130.075 84.2472 131.176 84.7225C132.117 85.4805 132.649 85.9651 132.822 87.191C132.673 88.5659 132.054 89.4726 131.341 90.6368C128.076 96.2451 126.812 102.77 128.325 109.151C128.776 110.728 129.355 112.2 130.077 113.671C130.172 113.877 130.266 114.082 130.364 114.294C131.408 116.144 133.43 116.577 135.351 117.187C135.255 116.974 135.16 116.761 135.061 116.542C132.83 111.409 131.858 105.308 133.886 99.9019C134.444 98.7848 135.054 97.8547 135.937 96.9722C137.275 96.7461 138.295 96.7983 139.452 97.5215C140.038 98.1441 140.038 98.1441 140.331 98.73C140.24 100.172 140.036 101.408 139.581 102.777C138.08 108.052 139.543 112.73 142.089 117.35C142.283 117.683 142.476 118.016 142.675 118.359C142.856 118.686 143.038 119.013 143.224 119.35C144.023 120.334 144.363 120.28 145.605 120.41C146.452 120.461 147.299 120.484 148.148 120.502C148.386 120.509 148.624 120.515 148.869 120.521C149.624 120.54 150.379 120.557 151.135 120.575C151.649 120.587 152.163 120.6 152.677 120.613C153.933 120.644 155.189 120.674 156.445 120.703C156.867 120.006 157.289 119.308 157.71 118.611C157.829 118.415 157.948 118.22 158.07 118.018C159.03 116.426 159.876 114.823 160.546 113.086C160.639 112.845 160.733 112.604 160.829 112.357C162.003 108.792 161.895 104.966 160.252 101.6C159.896 100.602 159.968 100.036 160.253 99.023C160.924 98.185 161.437 97.6736 162.432 97.2652C163.507 97.2652 164.046 97.5477 164.941 98.1441C167.718 101.12 167.808 105.318 167.693 109.168C167.576 111.269 167.103 113.154 166.406 115.136C166.315 115.396 166.225 115.657 166.132 115.925C165.942 116.448 165.737 116.965 165.527 117.48C166.906 117.271 168.508 117.022 169.386 115.849C169.676 115.279 169.914 114.709 170.141 114.111C170.226 113.902 170.311 113.692 170.399 113.476C172.736 107.585 173.329 100.596 170.855 94.6418C170.177 93.1149 169.463 91.6346 168.409 90.3289C167.685 89.4134 167.598 88.7552 167.577 87.5972C167.957 86.6698 168.349 86.2221 169.116 85.5831C170.216 85.133 170.834 85.2214 171.972 85.5464C176.427 89.0233 177.929 95.7807 178.71 101.074C182.558 98.0557 184.489 94.1648 185.357 89.4283C185.904 83.7122 184.656 79.2076 182.253 74.1473C181.821 73.1995 181.623 72.7553 181.805 71.7037C182.271 70.8114 182.489 70.4496 183.398 70.0191C185.402 69.7964 185.402 69.7964 186.475 70.4998C190.635 74.4321 191.262 81.0848 191.894 86.4254C194.738 81.1506 195.826 75.1039 194.384 69.1951C193.811 67.3171 192.986 65.5626 192.056 63.8361C191.349 62.4652 191.187 61.6079 191.601 60.0582C192.164 59.2933 192.574 58.967 193.45 58.6116C194.57 58.5856 195.385 58.8321 196.288 59.4722C200.362 63.9205 201.238 70.8674 201.069 76.6143C200.741 83.4342 198.012 90.3574 192.894 95.0267C190.946 96.6378 190.946 96.6378 190.086 96.7971C189.909 96.8549 189.732 96.9127 189.55 96.9722C189.24 97.6299 189.24 97.6299 188.964 98.4371C186.637 102.201 183.67 105.528 179.974 107.977C178.579 108.957 178.143 109.684 177.758 111.346C177.671 111.924 177.592 112.504 177.538 113.086C182.413 110.481 187.151 107.675 191.308 104.003C191.46 103.871 191.612 103.738 191.769 103.601C193.989 101.652 195.979 99.6401 197.753 97.2652C197.969 96.977 198.185 96.6889 198.408 96.392C203.976 88.6638 206.743 79.6476 205.563 70.0875C205.215 67.9727 204.676 65.9623 203.814 63.9949C203.229 62.6463 203.075 61.4557 203.613 60.0582C204.496 59.2158 205.064 58.9301 206.268 58.7581C207.261 58.9061 207.776 59.1859 208.593 59.7652C212.736 65.749 212.705 75.201 211.512 82.0583C209.816 91.0242 204.955 99.7435 198.339 106.054C198.146 106.054 197.952 106.054 197.753 106.054C197.753 106.248 197.753 106.441 197.753 106.64C197.299 107.055 196.825 107.448 196.343 107.83C195.055 108.855 195.055 108.855 193.795 109.913C191.306 112.054 188.55 113.742 185.741 115.429C185.43 115.618 185.43 115.618 185.111 115.81C178.978 119.481 172.313 122.254 165.485 124.323C164.943 124.466 164.943 124.466 164.648 124.804C164.825 124.922 165.003 125.039 165.186 125.16C167.685 126.856 169.849 128.815 171.972 130.957C172.139 130.727 172.305 130.497 172.477 130.26C176.215 125.174 180.637 122.201 186.721 120.485C186.989 120.409 187.256 120.334 187.532 120.255C190.474 119.427 193.427 118.643 196.387 117.88C197.001 117.721 197.615 117.561 198.228 117.399C199.13 117.16 200.034 116.927 200.938 116.694C201.211 116.621 201.484 116.548 201.765 116.473C203.145 116.123 204.267 115.853 205.663 116.308C206.286 116.753 206.494 117.026 206.713 117.756C206.895 119.459 206.708 120.841 206.231 122.479C206.164 122.719 206.097 122.959 206.028 123.206C203.917 130.568 200.381 136.782 193.549 140.688C188.35 143.522 182.8 144.479 176.952 144.726C176.988 144.924 177.023 145.122 177.059 145.326C177.468 147.685 177.783 150.052 178.067 152.428C178.142 153.056 178.219 153.683 178.297 154.31C178.783 158.308 179.07 162.266 179.076 166.296C179.077 166.5 179.078 166.704 179.079 166.915C179.082 169.854 178.901 172.685 178.317 175.571C177.897 177.946 178.327 179.482 179.223 181.659C180.177 184.073 181.025 186.439 181.64 188.964C181.69 189.169 181.739 189.373 181.791 189.584C184.412 200.563 184.055 212.114 179.003 222.363C178.837 222.701 178.67 223.039 178.499 223.387C177.385 225.541 176.102 227.487 174.609 229.394C174.382 229.688 174.155 229.981 173.922 230.283C168.883 236.59 160.885 240.973 152.895 242.201C145.157 242.967 137.9 240.185 131.89 235.374C123.347 228.319 118.519 218.723 117.307 207.744C116.414 197.929 118.371 188.462 121.947 179.357C122.48 177.793 122.406 176.626 122.057 175.03C120.059 165.091 121.811 154.393 123.046 144.433C122.706 144.41 122.706 144.41 122.359 144.387C114.247 143.788 107.249 140.303 101.366 134.765C101.101 134.528 101.101 134.528 100.831 134.287C96.3576 130.127 93.2796 123.829 93.0352 117.7C93.1774 116.48 93.4653 115.713 94.3352 114.843C96.2669 114.722 97.9433 115.075 99.8089 115.551C100.254 115.661 100.254 115.661 100.709 115.774C101.336 115.931 101.964 116.089 102.59 116.249C103.532 116.488 104.476 116.722 105.419 116.955C111.653 118.512 117.821 120.193 122.753 124.511C122.963 124.682 123.172 124.853 123.388 125.03C123.873 125.427 124.341 125.846 124.804 126.269C124.804 126.462 124.804 126.656 124.804 126.855C124.997 126.855 125.191 126.855 125.39 126.855C125.867 127.481 126.31 128.105 126.745 128.759C126.868 128.941 126.991 129.123 127.118 129.31C127.423 129.76 127.725 130.212 128.027 130.664C128.724 129.971 129.417 129.279 130.088 128.561C131.772 126.786 133.568 125.507 135.644 124.218C135.335 124.115 135.027 124.012 134.709 123.906C131.802 122.919 129.014 121.787 126.269 120.41C126 120.276 125.731 120.141 125.453 120.003C119.344 116.94 113.742 113.538 108.398 109.277C108.103 109.045 107.809 108.813 107.505 108.574C105.979 107.353 104.515 106.069 103.069 104.754C102.9 104.602 102.731 104.449 102.556 104.292C102.148 103.915 101.756 103.521 101.366 103.125C101.366 102.931 101.366 102.738 101.366 102.539C101.173 102.539 100.98 102.539 100.781 102.539C100.024 101.827 99.3873 100.997 98.7298 100.195C98.5077 99.9249 98.2856 99.6548 98.0569 99.3766C91.3958 91.0079 87.543 81.2952 88.5411 70.4844C89.0255 66.5435 90.0179 61.3829 92.9436 58.5384C94.1782 58.1736 95.2016 58.4221 96.386 58.8863ZM100.488 122.753C101.194 127.19 104.976 130.876 108.463 133.434C112.905 136.521 118.477 138.534 123.925 138.281C123.745 135.168 122.452 132.409 120.409 130.078C120.27 129.907 120.13 129.737 119.986 129.562C115.931 125.028 108.61 123.441 102.831 122.753C102.045 122.721 101.275 122.73 100.488 122.753ZM193.945 124.841C193.541 124.901 193.541 124.901 193.13 124.962C187.449 125.87 181.973 127.858 178.423 132.613C177.269 134.463 176.298 136.355 176.366 138.574C182.684 138.913 188.669 137.51 193.581 133.307C193.797 133.112 194.014 132.916 194.238 132.714C194.448 132.531 194.659 132.347 194.876 132.158C197.067 130.133 198.27 127.597 199.218 124.804C197.376 124.493 195.787 124.561 193.945 124.841ZM134.179 133.3C131.375 136.609 129.017 141.166 129.199 145.605C129.5 145.643 129.5 145.643 129.808 145.682C131.965 146.018 131.965 146.018 132.732 146.832C133.332 148.63 133.429 149.971 132.714 151.757C131.833 152.051 131.092 152.139 130.169 152.215C129.878 152.24 129.587 152.264 129.287 152.29C129.064 152.307 128.842 152.325 128.613 152.343C128.137 153.405 127.928 154.311 127.841 155.47C127.817 155.799 127.792 156.128 127.767 156.467C127.744 156.822 127.721 157.177 127.697 157.544C127.673 157.915 127.649 158.286 127.624 158.668C126.703 171.794 126.703 171.794 131.542 183.691C132.022 184.188 132.509 184.678 133.007 185.156C133.003 184.989 132.998 184.823 132.993 184.651C132.876 179.771 132.911 175.166 136.255 171.258C139.899 167.674 144.871 166.356 149.871 166.296C154.969 166.346 159.529 167.866 163.229 171.405C166.213 174.523 167.108 178.187 167.028 182.391C167.025 182.658 167.023 182.926 167.02 183.202C167.013 183.853 167.004 184.504 166.991 185.156C171.766 180.656 172.924 174.166 173.144 167.871C173.156 167.585 173.168 167.3 173.18 167.005C173.228 164.784 173.057 162.577 172.887 160.363C172.865 160.056 172.842 159.749 172.818 159.432C172.776 156.118 172.776 156.118 171.679 153.222C170.701 153.173 169.725 153.135 168.746 153.122C167.718 153.082 167.104 153.015 166.274 152.386C165.417 151.201 165.366 149.952 165.527 148.535C166.153 147.196 166.153 147.196 166.991 146.777C167.737 146.709 168.478 146.654 169.225 146.612C169.432 146.599 169.639 146.587 169.853 146.574C170.364 146.543 170.875 146.513 171.386 146.484C171.088 140.924 168.521 135.63 164.568 131.771C155.963 124.339 141.826 124.97 134.179 133.3ZM140.624 175.195C138.603 177.794 138.268 180.456 138.574 183.691C139.273 186.555 140.95 188.952 143.383 190.623C146.53 192.338 150.092 192.58 153.532 191.653C156.366 190.68 158.477 189.185 160.037 186.592C161.453 183.692 161.729 180.637 160.839 177.539C159.527 174.914 157.399 173.832 154.741 172.845C150.357 171.495 143.967 171.666 140.624 175.195ZM174.023 186.328C173.522 186.832 173.038 187.342 172.558 187.866C172.422 188.01 172.286 188.154 172.146 188.302C170.923 189.634 170.754 190.497 170.813 192.264C171.09 204.005 165.504 212.472 158.518 221.408C155.219 225.685 153.011 230.048 153.222 235.546C159.573 235.165 165.334 230.948 169.483 226.391C175.893 218.89 177.694 208.789 177.245 199.218C176.922 195.136 176.389 189.93 174.316 186.328C174.219 186.328 174.122 186.328 174.023 186.328ZM125.976 186.621C125.17 188.319 124.735 190.004 124.346 191.839C124.283 192.136 124.22 192.434 124.154 192.74C122.066 202.854 122.626 213.628 128.155 222.619C132.094 228.471 137.65 233.847 144.726 235.546C145.607 235.684 146.472 235.769 147.363 235.839C147.982 227.32 141.751 220.252 136.977 213.887C134.028 209.951 131.428 205.742 130.077 200.976C130.025 200.793 129.972 200.609 129.917 200.421C129.565 199.053 129.445 197.748 129.399 196.337C129.386 195.976 129.373 195.616 129.36 195.245C129.338 194.503 129.323 193.76 129.317 193.018C129.197 190.181 128.343 188.568 126.269 186.621C126.172 186.621 126.075 186.621 125.976 186.621ZM134.765 193.945C134.318 201.247 138.674 207.234 142.824 212.782C145.408 216.243 147.743 219.854 149.999 223.535C150.997 222.616 151.711 221.594 152.435 220.459C153.649 218.593 154.951 216.81 156.298 215.039C162.932 206.343 162.932 206.343 165.252 195.886C165.249 195.575 165.247 195.265 165.244 194.945C165.241 194.712 165.237 194.478 165.234 194.238C164.195 194.618 163.259 195.1 162.3 195.649C156.798 198.771 150.225 199.528 144.105 197.879C141.413 197.106 138.996 196.177 136.635 194.653C135.993 194.271 135.495 194.076 134.765 193.945Z" fill="black"/>
<path d="M149.359 176.88C149.699 176.874 150.04 176.868 150.391 176.862C152.476 176.852 154.224 176.853 155.822 178.345C156.374 179.449 156.578 180.456 156.306 181.678C155.909 182.86 155.552 183.698 154.394 184.278C152.852 184.797 151.498 184.968 149.89 184.955C149.671 184.953 149.452 184.952 149.226 184.95C147.083 184.903 145.496 184.659 143.847 183.216C143.122 181.992 142.874 181.008 142.968 179.59C143.349 178.592 143.682 177.997 144.433 177.246C145.987 176.706 147.736 176.887 149.359 176.88Z" fill="black"/>
</svg>
