<svg width="300" height="300" viewBox="0 0 300 300" fill="none" xmlns="http://www.w3.org/2000/svg">
<path d="M94.2205 55.3633C95.9537 55.8878 97.3004 57.08 98.734 58.1591C100.07 59.164 100.07 59.164 101.655 59.5175C103.178 58.9361 104.679 58.3152 106.17 57.655C107.81 56.964 109.248 56.5744 111.035 56.8361C111.914 57.2573 111.914 57.2573 112.5 58.008C113.071 60.0578 112.581 61.8189 111.969 63.7941C111.803 64.369 111.639 64.9443 111.476 65.5199C111.398 65.7931 111.32 66.0664 111.24 66.3479C110.106 70.4535 110.019 75.1954 110.742 79.3947C111.489 78.5048 112.136 77.5904 112.756 76.6115C113.65 75.2584 114.542 74.2724 116.016 73.5354C116.954 73.5354 117.571 73.9343 118.36 74.4143C119.153 75.6051 119.18 76.5568 118.945 77.9299C118.416 79.3224 117.744 80.637 117.059 81.9582C116.703 82.6574 116.351 83.3582 115.999 84.0593C115.841 84.3663 115.683 84.6732 115.52 84.9895C115.16 85.7889 114.928 86.4342 114.844 87.3049C115.752 89.4372 117.424 91.0279 119.531 91.9924C119.595 91.7896 119.658 91.5868 119.724 91.3778C120.222 90.3011 120.928 89.5005 121.729 88.6416C121.885 88.4734 122.041 88.3052 122.203 88.1319C124.377 85.8653 126.807 84.4094 130.005 84.2836C132.622 84.3552 134.684 84.9748 136.682 86.6869C137.31 87.5945 137.383 88.2549 137.402 89.3557C137.089 90.1516 136.776 90.8175 136.359 91.5529C136.14 91.9634 135.923 92.3747 135.706 92.7866C135.597 92.9942 135.488 93.2018 135.375 93.4157C134.88 94.3971 134.459 95.4031 134.052 96.4235C133.913 96.7687 133.774 97.1139 133.632 97.4695C132.994 99.1998 132.994 99.1998 133.325 100.938C133.492 101.183 133.66 101.427 133.832 101.679C134.018 101.953 134.205 102.227 134.397 102.51C135.561 104.108 136.762 105.675 137.988 107.227C138.137 106.948 138.286 106.669 138.439 106.381C138.643 106.01 138.847 105.639 139.05 105.268C139.147 105.084 139.245 104.901 139.345 104.712C140.169 103.226 141.125 102.143 142.676 101.367C143.81 101.241 144.295 101.275 145.258 101.917C146.021 102.658 146.164 102.925 146.308 103.975C146.283 105.656 145.363 107.101 144.617 108.563C144.321 109.155 144.025 109.748 143.731 110.341C143.599 110.601 143.467 110.861 143.331 111.129C142.011 113.99 142.574 115.902 143.602 118.759C143.848 119.531 143.848 119.531 143.848 120.41C144.156 120.363 144.464 120.315 144.782 120.266C146.518 120.05 148.253 120.075 150 120.081C150.333 120.08 150.666 120.078 151.01 120.077C152.752 120.079 154.43 120.144 156.152 120.41C156.209 120.177 156.266 119.944 156.324 119.703C156.4 119.393 156.477 119.082 156.555 118.762C156.635 118.44 156.714 118.117 156.796 117.784C157.031 116.895 157.031 116.895 157.398 115.961C158.186 113.003 156.406 110.271 155.06 107.738C153.456 104.695 153.456 104.695 153.809 103.125C154.553 102.087 155.06 101.726 156.281 101.349C157.633 101.373 158.074 101.638 159.082 102.539C161.719 105.935 161.719 105.935 161.719 107.52C161.912 107.52 162.106 107.52 162.305 107.52C162.372 107.368 162.439 107.216 162.509 107.06C163.029 106.091 163.673 105.221 164.319 104.334C164.701 103.806 165.082 103.279 165.457 102.747C165.793 102.284 166.155 101.842 166.519 101.402C167.184 100.119 167.06 99.225 166.699 97.8518C166.347 96.8893 165.915 95.9831 165.454 95.0686C165.342 94.8371 165.23 94.6056 165.114 94.367C164.423 92.9535 163.678 91.5786 162.889 90.217C162.445 89.35 162.371 88.8408 162.598 87.8908C163.664 85.9998 165.266 85.2634 167.285 84.6682C169.985 84.0444 172.432 84.2337 174.902 85.5471C176.99 87.0862 179.59 89.3551 180.762 91.6994C181.677 91.286 182.372 90.7881 183.124 90.1247C183.321 89.9533 183.517 89.7818 183.72 89.6051C183.904 89.4261 184.088 89.2471 184.277 89.0627C184.452 88.9018 184.627 88.7409 184.807 88.5752C185.386 87.4412 185.192 86.433 184.863 85.2541C184.147 83.6491 183.261 82.1379 182.394 80.6107C181.423 78.839 180.782 77.6186 181.055 75.5861C181.398 74.5841 181.604 74.439 182.52 73.8283C183.475 73.6813 184.198 73.6373 185.077 74.0881C186.633 75.2734 187.534 76.9589 188.496 78.6234C188.651 78.8779 188.805 79.1325 188.965 79.3947C189.062 79.3947 189.158 79.3947 189.258 79.3947C190.188 73.7907 189.421 68.1352 187.658 62.776C187.183 61.2432 187.101 59.8704 187.5 58.301C188.057 57.5825 188.455 57.2377 189.258 56.8361C191.041 56.7188 192.322 56.9866 193.964 57.6601C194.16 57.7366 194.355 57.8131 194.557 57.8919C195.326 58.1943 196.087 58.495 196.829 58.8587C198.06 59.4526 198.795 59.6202 200.098 59.1799C200.887 58.7032 201.607 58.1551 202.332 57.5869C202.713 57.2935 203.096 57.0009 203.478 56.7091C203.729 56.514 203.729 56.514 203.984 56.3149C204.873 55.6895 205.44 55.3666 206.543 55.3896C207.664 55.7398 207.939 56.1678 208.594 57.1291C209.025 58.3676 209.238 59.649 209.473 60.9377C209.534 61.2572 209.594 61.5767 209.657 61.9059C211.499 73.2652 208.304 83.8219 201.856 93.1643C198.774 97.3276 194.981 101.271 191.054 104.636C190.297 105.291 189.558 105.965 188.819 106.641C187.905 107.474 186.988 108.303 186.054 109.113C180.974 113.551 176.761 118.128 173.273 123.926C173.084 124.236 173.084 124.236 172.891 124.553C172.211 125.713 171.802 126.661 171.68 128.028C172.163 128.414 172.647 128.801 173.145 129.199C173.351 129.019 173.557 128.838 173.77 128.651C175.982 126.754 178.263 125.129 180.762 123.633C181.036 123.468 181.036 123.468 181.316 123.3C187.454 119.645 193.986 117.164 200.977 115.723C201.314 115.653 201.65 115.583 201.998 115.511C203.594 115.211 204.963 114.993 206.543 115.43C207.3 115.985 207.411 116.276 207.715 117.188C208.399 124.793 206.3 132.776 201.366 138.689C195.71 145.028 189.243 148.349 180.762 149.121C180.777 149.458 180.777 149.458 180.793 149.802C180.838 151.666 180.761 153.37 180.423 155.199C179.908 158.096 179.892 160.792 180.114 163.725C180.143 164.139 180.171 164.552 180.199 164.966C180.258 165.815 180.318 166.664 180.38 167.512C180.489 169.02 180.588 170.529 180.688 172.038C180.785 173.496 180.884 174.954 180.983 176.411C181.065 177.612 181.147 178.813 181.228 180.013C181.387 182.362 181.547 184.711 181.707 187.06C181.822 188.747 181.937 190.435 182.051 192.123C182.094 192.752 182.137 193.381 182.18 194.011C182.321 196.095 182.462 198.179 182.602 200.264C182.657 201.091 182.712 201.918 182.768 202.745C182.788 203.051 182.788 203.051 182.809 203.363C182.993 206.11 183.187 208.856 183.388 211.602C183.496 213.067 183.6 214.532 183.703 215.997C183.773 216.985 183.845 217.974 183.921 218.962C184.003 220.044 184.08 221.126 184.155 222.209C184.18 222.527 184.206 222.845 184.233 223.173C184.34 224.805 184.376 225.947 183.399 227.344C182.729 227.837 182.729 227.837 181.937 228.225C181.643 228.373 181.349 228.521 181.046 228.673C180.57 228.904 180.57 228.904 180.084 229.138C179.41 229.476 178.736 229.815 178.062 230.153C177.725 230.322 177.387 230.49 177.039 230.664C175.686 231.349 174.361 232.081 173.035 232.819C170 234.494 166.917 236.07 163.832 237.648C160.577 239.312 157.35 241.017 154.151 242.788C153.938 242.904 153.724 243.02 153.505 243.14C153.008 243.414 152.518 243.701 152.029 243.989C150.532 244.595 149.479 244.598 148.004 244.005C147.03 243.531 146.08 243.025 145.13 242.505C144.777 242.317 144.424 242.129 144.071 241.941C143.017 241.379 141.967 240.807 140.918 240.235C140.625 240.075 140.332 239.916 140.03 239.752C138.964 239.173 137.9 238.593 136.837 238.008C134.939 236.966 133.026 235.957 131.104 234.961C128.057 233.381 125.038 231.754 122.033 230.095C121.313 229.701 120.59 229.316 119.864 228.932C119.436 228.702 119.008 228.472 118.579 228.241C118.385 228.141 118.191 228.041 117.992 227.938C117.241 227.529 116.69 227.2 116.249 226.455C115.916 225.215 116.02 224.086 116.11 222.814C116.127 222.534 116.144 222.254 116.162 221.966C116.22 221.029 116.283 220.093 116.345 219.157C116.388 218.489 116.43 217.821 116.471 217.153C116.562 215.72 116.654 214.288 116.748 212.855C116.896 210.601 117.039 208.347 117.181 206.093C117.328 203.776 117.475 201.458 117.624 199.141C117.955 193.979 118.275 188.816 118.586 183.652C118.606 183.316 118.626 182.981 118.647 182.636C118.765 180.683 118.882 178.731 118.999 176.778C119.143 174.367 119.288 171.955 119.434 169.544C119.481 168.757 119.529 167.971 119.576 167.184C119.604 166.706 119.633 166.227 119.662 165.749C119.683 165.412 119.683 165.412 119.703 165.069C119.804 163.43 119.933 161.795 120.081 160.16C120.139 158.9 119.934 157.715 119.696 156.482C119.267 153.994 119.135 151.644 119.238 149.121C119.078 149.114 118.917 149.106 118.752 149.098C111.857 148.605 105.35 145.478 100.488 140.625C100.241 140.382 99.9944 140.138 99.74 139.887C95.2397 135.216 92.8323 128.906 92.1937 122.516C92.1678 122.261 92.1419 122.006 92.1151 121.743C91.75 117.482 91.75 117.482 92.8895 115.851C93.9823 114.944 94.7463 115.021 96.0939 115.137C107.713 116.709 117.926 121.904 127.149 128.906C127.874 128.326 127.874 128.326 128.613 127.735C127.406 122.906 123.728 118.826 120.451 115.243C119.904 114.639 119.378 114.022 118.854 113.397C117.455 111.792 115.842 110.402 114.258 108.985C113.764 108.539 113.269 108.093 112.775 107.648C112.422 107.331 112.422 107.331 112.062 107.008C110.99 106.044 109.926 105.071 108.861 104.099C108.239 103.538 107.608 102.991 106.97 102.448C103.871 99.7346 101.175 96.7682 98.7306 93.4572C98.5051 93.157 98.2797 92.8568 98.0474 92.5474C91.7214 83.8063 88.8105 73.3751 90.3261 62.6589C90.3605 62.413 90.395 62.167 90.4305 61.9137C91.1634 57.184 91.1634 57.184 92.5233 55.9023C93.4572 55.3713 93.4572 55.3713 94.2205 55.3633ZM96.0939 63.8674C94.2444 71.2207 97.0468 80.1069 100.781 86.426C102.208 88.6957 103.841 90.7747 105.674 92.7317C106.235 93.3353 106.771 93.9498 107.307 94.5753C108.377 95.8021 109.529 96.9135 110.724 98.0166C111.016 98.2893 111.016 98.2893 111.314 98.5676C112.487 99.659 113.681 100.724 114.89 101.776C122.478 108.391 128.837 115.301 133.594 124.219C135.237 123.446 136.881 122.672 138.574 121.875C136.683 115.899 133.456 110.884 129.722 105.903C127.853 103.408 126.925 101.705 127.253 98.519C127.705 96.2192 128.642 93.9752 129.696 91.8882C130.121 91.1699 130.121 91.1699 130.078 90.5275C126.865 91.2584 124.923 93.7954 122.984 96.3274C121.964 97.5857 120.863 98.6241 119.22 98.8588C116.721 98.5811 114.794 96.5003 113.086 94.7756C112.883 94.5709 112.681 94.3663 112.472 94.1555C107.197 88.6929 104.824 81.5321 104.828 74.0297C104.828 73.6652 104.828 73.3007 104.827 72.9251C104.843 70.1615 105.032 67.4737 105.469 64.7463C105.267 64.8309 105.065 64.9155 104.857 65.0026C101.359 66.3842 101.359 66.3842 99.6095 65.9182C98.7804 65.4367 98.0378 64.9096 97.2852 64.316C96.7269 63.8092 96.7269 63.8092 96.0939 63.8674ZM202.112 64.8928C200.591 65.869 199.831 66.2346 198.047 65.9182C197.339 65.646 196.666 65.3469 195.991 65.0026C195.382 64.6871 195.382 64.6871 194.531 64.7463C194.595 65.1746 194.595 65.1746 194.66 65.6115C195.461 71.5106 195.803 77.7711 193.945 83.4963C193.884 83.6873 193.823 83.8784 193.76 84.0752C191.76 90.0798 187.769 94.643 182.813 98.4377C181.86 98.9142 180.913 98.8883 179.883 98.7307C177.942 97.6911 176.81 96.0591 175.488 94.3361C174.156 92.6196 172.849 91.353 170.801 90.5275C170.511 90.5275 170.221 90.5275 169.922 90.5275C170.333 91.8267 170.833 93.0553 171.387 94.2995C172.525 96.9277 173.471 99.6607 172.691 102.546C172.033 104.019 170.971 105.243 169.981 106.502C164.253 113.563 164.253 113.563 161.426 121.875C163.069 122.649 164.713 123.422 166.406 124.219C167.14 123.485 167.432 122.744 167.871 121.802C168.991 119.487 170.416 117.468 171.973 115.43C172.166 115.174 172.359 114.919 172.558 114.655C175.303 111.122 178.465 107.794 181.856 104.877C182.676 104.161 183.477 103.424 184.277 102.686C185.244 101.795 186.214 100.91 187.207 100.049C194.599 93.6021 200.578 86.6327 203.32 77.051C203.421 76.7202 203.521 76.3893 203.624 76.0485C204.615 72.1209 204.275 67.8878 204.199 63.8674C203.308 63.8674 202.833 64.3864 202.112 64.8928ZM98.1447 121.582C97.7649 126.235 100.192 131.531 103.157 135.037C103.34 135.238 103.523 135.438 103.711 135.645C103.924 135.885 104.137 136.124 104.357 136.371C108.299 140.575 113.362 142.418 118.945 143.262C119.332 143.262 119.719 143.262 120.117 143.262C120.172 143.109 120.226 142.955 120.282 142.797C120.537 142.085 120.793 141.373 121.051 140.662C121.143 140.407 121.235 140.152 121.33 139.89C121.918 138.292 122.567 136.791 123.442 135.325C123.697 134.761 123.697 134.761 123.443 134.172C118.756 127.331 107.509 123.648 99.9025 121.875C99.3181 121.769 98.7327 121.666 98.1447 121.582ZM197.479 122.498C197.233 122.564 196.987 122.631 196.733 122.699C189.402 124.737 181.993 128.675 176.66 134.18C176.564 134.373 176.467 134.567 176.367 134.766C176.657 135.393 176.973 136.007 177.301 136.615C178.211 138.341 178.83 140.034 179.32 141.93C179.54 142.768 179.54 142.768 180.469 143.262C186.599 143.062 191.928 140.456 196.161 136.084C199.549 132.162 201.734 127.08 201.856 121.875C200.298 121.79 198.968 122.095 197.479 122.498ZM132.715 132.129C132.54 132.277 132.365 132.425 132.184 132.578C127.486 136.841 125.072 143.462 124.672 149.66C124.48 154.53 125.334 159.113 126.384 163.84C126.668 165.127 126.945 166.415 127.223 167.703C128.163 172.058 129.117 176.411 130.078 180.762C130.272 180.762 130.465 180.762 130.664 180.762C130.829 180.444 130.829 180.444 130.997 180.119C133.599 175.204 137.642 172.391 142.932 170.709C149.41 168.785 156.281 169.672 162.171 172.84C163.327 173.496 164.273 174.279 165.235 175.196C165.428 175.196 165.621 175.196 165.82 175.196C165.9 175.369 165.979 175.542 166.061 175.721C166.401 176.358 166.761 176.809 167.249 177.338C168.113 178.317 168.725 179.316 169.336 180.469C169.529 180.469 169.723 180.469 169.922 180.469C170.524 177.632 171.125 174.795 171.725 171.957C172.004 170.639 172.283 169.321 172.563 168.004C172.833 166.729 173.103 165.454 173.372 164.18C173.474 163.696 173.577 163.213 173.679 162.73C174.896 157.103 174.896 157.103 175.287 151.373C175.285 150.979 175.285 150.979 175.282 150.577C175.153 143.406 172.297 136.92 167.133 131.938C162.858 128.045 157.188 125.994 151.465 125.684C151.266 125.672 151.068 125.66 150.863 125.647C144.14 125.444 137.72 127.639 132.715 132.129ZM137.243 180.233C134.761 183.308 134.092 186.499 134.473 190.43C135.171 193.287 136.789 195.071 139.179 196.678C144.248 199.564 150.418 199.907 156.014 198.626C159.507 197.644 162.535 196.099 164.649 193.067C166.052 190.506 166.142 187.706 165.432 184.916C164.403 181.596 162.005 179.141 159.055 177.384C152.376 174.008 142.515 174.462 137.243 180.233ZM124.512 186.328C124.281 187.163 124.162 187.949 124.106 188.813C124.088 189.074 124.07 189.336 124.052 189.605C124.034 189.89 124.016 190.175 123.997 190.468C123.977 190.77 123.957 191.071 123.937 191.382C123.871 192.382 123.806 193.382 123.742 194.382C123.696 195.079 123.651 195.776 123.605 196.473C123.509 197.937 123.415 199.401 123.321 200.866C123.2 202.732 123.078 204.598 122.955 206.464C122.86 207.906 122.767 209.348 122.674 210.79C122.629 211.478 122.584 212.165 122.539 212.852C122.304 216.417 122.09 219.961 122.168 223.535C122.455 223.687 122.741 223.838 123.036 223.994C127.604 226.408 132.17 228.824 136.725 231.262C137.06 231.441 137.395 231.62 137.74 231.805C138.053 231.973 138.365 232.14 138.688 232.313C139.118 232.543 139.118 232.543 139.557 232.778C140.23 233.147 140.889 233.533 141.546 233.929C141.822 234.076 142.099 234.223 142.383 234.375C142.576 234.279 142.77 234.182 142.969 234.082C142.438 231.399 141.905 228.716 141.371 226.034C141.123 224.787 140.875 223.54 140.629 222.293C140.005 219.142 139.372 215.994 138.726 212.848C138.572 212.096 138.419 211.344 138.266 210.592C138.015 209.36 137.757 208.129 137.495 206.899C137.398 206.438 137.302 205.976 137.209 205.514C137.079 204.876 136.942 204.24 136.804 203.603C136.728 203.243 136.653 202.883 136.575 202.512C136.169 201.394 135.655 200.874 134.766 200.098C134.489 199.842 134.211 199.586 133.926 199.322C133.632 199.056 133.338 198.789 133.045 198.523C132.732 198.236 132.42 197.949 132.107 197.661C131.628 197.222 131.147 196.784 130.658 196.354C128.083 193.984 126.44 190.68 125.098 187.5C124.906 187.108 124.711 186.717 124.512 186.328ZM175.195 186.914C175.096 187.17 174.996 187.425 174.893 187.688C173.221 191.797 170.789 196.137 166.985 198.627C164.694 200.133 163.624 201.334 163.013 204.105C162.941 204.503 162.869 204.9 162.798 205.298C162.71 205.722 162.621 206.146 162.53 206.57C162.341 207.465 162.161 208.362 161.989 209.261C161.722 210.643 161.43 212.018 161.133 213.394C160.584 215.949 160.058 218.508 159.538 221.069C159.342 222.03 159.144 222.99 158.946 223.95C158.753 224.888 158.561 225.826 158.369 226.764C158.279 227.205 158.188 227.646 158.098 228.087C157.648 230.274 157.225 232.441 157.031 234.668C159.6 233.417 162.129 232.112 164.63 230.731C167.949 228.899 171.32 227.17 174.696 225.447C174.901 225.341 175.107 225.236 175.319 225.128C175.709 224.928 176.099 224.729 176.49 224.531C177.365 224.117 177.365 224.117 178.125 223.535C178.256 221.321 178.071 219.09 177.91 216.881C177.887 216.555 177.864 216.229 177.841 215.892C177.766 214.826 177.689 213.759 177.612 212.692C177.56 211.948 177.507 211.204 177.455 210.459C177.331 208.708 177.206 206.957 177.081 205.206C176.939 203.21 176.797 201.214 176.656 199.218C176.366 195.117 176.074 191.015 175.781 186.914C175.588 186.914 175.395 186.914 175.195 186.914ZM142.969 204.199C143.151 206.038 143.426 207.825 143.792 209.635C143.872 210.034 143.872 210.034 143.953 210.441C144.126 211.314 144.302 212.186 144.477 213.058C144.6 213.67 144.722 214.282 144.844 214.894C145.1 216.174 145.357 217.453 145.614 218.733C145.942 220.365 146.268 221.997 146.594 223.63C146.846 224.893 147.099 226.156 147.353 227.419C147.473 228.02 147.593 228.621 147.713 229.223C148.613 233.725 148.613 233.725 149.707 238.184C149.997 238.039 149.997 238.039 150.293 237.891C150.487 237.215 150.643 236.558 150.783 235.871C150.83 235.652 150.876 235.433 150.924 235.208C151.083 234.461 151.237 233.713 151.392 232.965C151.503 232.434 151.615 231.902 151.727 231.371C152.054 229.813 152.377 228.254 152.7 226.695C152.951 225.486 153.203 224.277 153.455 223.068C153.973 220.582 154.489 218.096 155.004 215.61C155.146 214.929 155.287 214.248 155.429 213.567C155.654 212.483 155.878 211.399 156.101 210.315C156.184 209.911 156.268 209.507 156.352 209.103C156.468 208.546 156.582 207.988 156.697 207.431C156.794 206.96 156.794 206.959 156.893 206.479C157.064 205.609 157.064 205.609 157.031 204.492C156.831 204.514 156.631 204.535 156.425 204.556C151.963 204.967 147.372 205.13 142.969 204.199Z" fill="black"/>
<path d="M156.28 183.051C157.513 184.102 158.096 185.005 158.478 186.584C158.579 187.911 158.288 188.991 157.617 190.137C155.853 192.027 153.353 192.672 150.82 192.833C148.629 192.862 146.761 192.735 144.726 191.894C144.53 191.816 144.334 191.738 144.133 191.658C142.847 191.046 142.241 190.275 141.697 189.007C141.258 187.581 141.283 186.311 141.962 184.955C143.261 182.981 145.037 182.281 147.291 181.788C150.444 181.299 153.436 181.551 156.28 183.051Z" fill="black"/>
<path d="M166.443 149.919C167.877 150.68 168.825 151.69 169.336 153.222C169.601 155.456 169.459 157.052 168.055 158.854C166.853 160.165 165.67 160.459 163.934 160.583C162.497 160.513 161.432 159.926 160.39 158.956C159.332 157.765 158.843 156.735 158.697 155.163C158.854 153.341 159.568 151.893 160.84 150.585C162.459 149.44 164.571 149.28 166.443 149.919Z" fill="black"/>
<path d="M138.721 150.201C140.192 151.562 141.111 152.751 141.303 154.779C141.152 156.558 140.741 157.926 139.435 159.192C138.185 160.148 136.924 160.544 135.352 160.547C133.646 160.248 132.425 159.576 131.36 158.203C130.429 156.593 130.339 155.034 130.664 153.223C131.209 151.755 132.114 150.595 133.548 149.89C135.306 149.38 137.076 149.408 138.721 150.201Z" fill="black"/>
</svg>
