<svg width="300" height="300" viewBox="0 0 300 300" fill="none" xmlns="http://www.w3.org/2000/svg">
<path d="M149.414 103.418C155.47 105.526 161.502 107.376 167.853 108.362C168.193 108.415 168.193 108.415 168.54 108.469C171.457 108.878 174.302 108.654 177.219 108.331C177.576 108.292 177.933 108.253 178.301 108.213C181.775 107.82 185.222 107.291 188.67 106.72C189.729 106.544 190.788 106.372 191.848 106.2C194.998 105.687 198.145 105.163 201.288 104.613C201.767 104.53 202.246 104.447 202.726 104.364C203.573 104.217 204.419 104.065 205.265 103.91C210.892 102.926 214.511 103.625 219.745 105.707C220.313 105.926 220.881 106.145 221.449 106.362C225.849 108.056 229.604 109.624 232.939 113.102C234.158 114.349 235.506 115.456 236.865 116.547C237.107 116.759 237.349 116.97 237.598 117.188C237.598 117.381 237.598 117.575 237.598 117.774C237.764 117.845 237.931 117.917 238.103 117.99C238.89 118.427 239.418 118.943 240.05 119.583C240.291 119.826 240.532 120.068 240.78 120.318C241.029 120.572 241.278 120.826 241.534 121.088C241.782 121.339 242.03 121.589 242.286 121.847C242.763 122.33 243.239 122.813 243.715 123.297C244.204 123.793 244.696 124.285 245.192 124.775C250.406 130.048 251.42 137.176 251.396 144.261C251.395 144.724 251.395 145.186 251.394 145.649C251.393 146.858 251.39 148.068 251.387 149.277C251.384 150.514 251.383 151.752 251.381 152.989C251.378 155.411 251.373 157.833 251.367 160.254C252.237 160.738 253.107 161.221 254.004 161.719C253.558 163.842 252.998 165.917 252.392 168C252.302 168.318 252.212 168.637 252.119 168.965C252.031 169.268 251.943 169.572 251.852 169.885C251.773 170.159 251.694 170.434 251.613 170.717C251.367 171.387 251.367 171.387 250.781 171.973C250.604 171.658 250.428 171.344 250.246 171.02C250.009 170.599 249.773 170.178 249.536 169.757C249.362 169.448 249.362 169.448 249.185 169.132C249.012 168.825 249.012 168.825 248.836 168.511C248.664 168.203 248.664 168.203 248.488 167.889C248.264 167.495 248.033 167.104 247.795 166.717C246.807 165.095 246.807 165.095 246.991 163.99C247.028 163.737 247.066 163.484 247.104 163.223C247.157 162.92 247.211 162.617 247.266 162.305C248.384 155.57 249.376 148.924 248.73 142.09C248.71 141.868 248.69 141.646 248.669 141.418C248.541 140.071 248.361 138.739 248.144 137.403C248.07 136.909 248.07 136.909 247.993 136.406C247.61 134.417 247.028 133.391 245.404 132.161C245.245 132.054 245.086 131.947 244.922 131.836C245 132.187 245.077 132.538 245.158 132.9C247.221 142.344 246.635 150.073 243.147 159.08C243.028 159.389 243.028 159.389 242.906 159.705C242.508 160.738 242.104 161.768 241.688 162.795C240.813 165.001 240.23 166.933 240.527 169.336C240.557 169.584 240.587 169.832 240.618 170.088C240.913 171.899 241.58 173.408 242.413 175.031C244.927 180.161 244.927 180.161 244.3 182.04C243.754 183.2 243.004 184.154 242.193 185.138C241.905 185.498 241.617 185.858 241.328 186.218C241.061 186.548 240.794 186.878 240.527 187.207C240.176 187.645 239.828 188.084 239.484 188.526C239.356 188.686 239.229 188.846 239.098 189.011C238.212 190.467 238.091 191.969 238.037 193.634C237.987 195.172 237.933 196.625 237.305 198.047C235.745 199.035 234.364 199.017 232.562 198.945C230.187 198.893 227.886 199.025 225.527 199.304C224.069 199.474 222.66 199.539 221.191 199.512C220.929 199.058 220.674 198.599 220.422 198.139C220.279 197.884 220.137 197.629 219.99 197.366C219.726 196.582 219.726 196.582 219.921 195.799C220.78 194.304 222.38 193.631 223.883 192.92C225.052 192.354 225.769 191.854 226.465 190.723C226.58 190.542 226.694 190.361 226.813 190.174C227.759 187.699 227.878 183.803 226.849 181.33C226.744 181.11 226.639 180.889 226.53 180.663C226.058 179.635 225.716 178.578 225.366 177.503C225.268 177.205 225.268 177.205 225.168 176.902C225.014 176.431 224.86 175.96 224.707 175.489C223.051 177.973 223.12 181.073 223.112 183.957C223.072 186.066 222.719 188.161 221.304 189.81C220.413 190.656 219.482 191.151 218.353 191.62C217.198 192.103 216.518 192.504 215.918 193.653C215.844 194.491 215.846 195.168 215.918 195.997C215.941 196.304 215.964 196.612 215.988 196.929C216.056 197.791 216.13 198.652 216.211 199.512C215.262 200.073 214.554 200.173 213.459 200.176C213.154 200.177 212.85 200.177 212.537 200.178C212.22 200.176 211.904 200.174 211.578 200.171C211.109 200.175 211.109 200.175 210.63 200.178C208.062 200.172 208.062 200.172 206.832 199.764C205.993 199.424 205.993 199.424 205.358 199.76C205.169 199.872 204.98 199.983 204.785 200.098C201.759 200.482 199.035 199.86 196.289 198.633C196.192 198.44 196.096 198.247 195.996 198.047C197.254 194.952 199.747 192.719 202.131 190.476C206.611 186.201 205.969 180.681 206.122 174.903C206.134 174.444 206.147 173.986 206.16 173.527C206.191 172.423 206.221 171.319 206.25 170.215C203.956 171.351 201.672 172.494 199.42 173.713C193.224 177.046 186.748 177.874 179.763 177.882C179.25 177.883 179.25 177.883 178.728 177.885C178.006 177.886 177.285 177.887 176.564 177.887C175.488 177.887 174.412 177.893 173.336 177.898C158.163 177.935 158.163 177.935 151.758 175.489C151.768 175.831 151.768 175.831 151.778 176.18C151.835 179.711 151.471 183.191 151.009 186.689C150.58 190.321 150.978 193.175 152.658 196.413C152.983 197.316 152.998 197.744 152.637 198.633C152.019 199.022 152.019 199.022 151.245 199.292C150.993 199.385 150.74 199.477 150.481 199.572C148.508 200.167 146.468 200.393 144.452 199.878C143.759 199.459 143.399 199.02 142.969 198.34C142.213 198.676 141.778 198.947 141.211 199.567C139.783 200.43 138.407 200.121 136.816 199.805C135.593 199.414 134.448 198.914 133.301 198.34C133.038 198.477 132.775 198.614 132.505 198.755C131.448 199.265 130.793 199.329 129.628 199.326C129.27 199.325 128.913 199.325 128.544 199.325C128.174 199.32 127.804 199.316 127.423 199.311C127.052 199.312 126.681 199.313 126.299 199.314C123.169 199.295 123.169 199.295 121.875 198.633C121.419 197.721 121.493 197.004 121.582 195.997C122.117 195.174 122.117 195.174 122.827 194.403C124.398 192.603 125.797 190.732 125.635 188.22C125.243 185.967 124.494 184.098 123.218 182.195C121.77 180.011 121.055 177.624 120.268 175.145C120.189 174.9 120.109 174.655 120.027 174.402C119.824 173.731 119.824 173.731 119.622 172.725C119.107 171.717 118.577 171.581 117.535 171.223C117.305 171.151 117.076 171.078 116.839 171.003C113.454 169.811 110.415 168.128 107.67 165.791C107.451 165.661 107.451 165.661 107.226 165.528C106.255 165.851 106.063 166.077 105.432 166.846C100.688 172.391 95.2253 174.876 88.4581 177.118C87.4898 177.441 86.5221 177.765 85.5548 178.09C85.2058 178.206 85.2058 178.206 84.8498 178.325C83.5452 178.765 82.3015 179.265 81.0504 179.844C79.1967 180.64 77.4721 180.682 75.476 180.634C75.1292 180.629 74.7823 180.624 74.425 180.619C71.0563 180.528 68.0356 180.227 65.4933 177.797C64.4943 176.587 64.0533 175.613 63.9231 174.044C63.8916 173.715 63.8601 173.385 63.8276 173.045C63.7687 172.357 63.7107 171.669 63.6536 170.981C63.3715 168.059 62.4421 166.437 60.6261 164.191C60.3392 163.831 60.0523 163.472 59.7655 163.112C59.6197 162.93 59.474 162.748 59.3238 162.56C58.9 162.029 58.4805 161.494 58.0626 160.958C56.5093 158.956 56.5093 158.956 54.8926 157.005C52.0271 153.671 50.0352 149.977 47.9682 146.12C46.9932 144.302 45.9956 142.512 44.9031 140.762C44.019 139.045 43.8081 137.225 43.6156 135.334C43.5777 134.992 43.5777 134.992 43.5389 134.644C43.4072 133.409 43.3314 132.201 43.3593 130.957C44.4277 131.543 45.168 132.14 45.9594 133.063C47.7163 135.067 49.5396 137.006 51.3723 138.941C51.7596 139.352 52.1429 139.767 52.5248 140.183C57.1426 145.075 64.0303 147.978 70.3124 150C70.2193 153.75 68.8442 156.996 66.2108 159.668C65.4601 160.307 64.6914 160.887 63.8671 161.426C65.2222 162.598 66.2226 162.741 67.9972 162.678C69.2814 162.557 70.5249 162.316 71.7772 162.012C70.8599 164.028 69.9377 165.759 68.4218 167.382C67.6061 168.263 67.1153 168.953 67.0348 170.16C67.0529 170.372 67.071 170.583 67.0897 170.801C67.3979 170.777 67.7061 170.753 68.0236 170.728C69.3012 170.812 69.7266 171.068 70.6054 171.973C70.6054 172.166 70.6054 172.36 70.6054 172.559C68.8651 172.849 68.8651 172.849 67.0897 173.145C68.228 173.524 69.2617 173.419 70.4406 173.346C70.6786 173.332 70.9167 173.318 71.162 173.304C72.7503 173.201 74.2958 173.011 75.8605 172.713C76.7455 172.561 77.6291 172.461 78.522 172.368C80.4168 172.167 82.0825 171.851 83.813 171.008C84.3749 170.801 84.3749 170.801 85.2538 171.094C85.0604 171.771 84.8671 172.448 84.6678 173.145C88.2734 172.583 90.0763 171.332 92.5917 168.749C95.3799 165.899 95.3799 165.899 96.7391 165.75C97.1748 165.773 97.6102 165.803 98.0448 165.84C99.3816 165.802 100.596 165.134 101.66 164.356C102.736 162.836 103.374 161.046 104.075 159.329C104.275 158.844 104.479 158.36 104.685 157.877C106.868 152.347 107.398 146.136 108.325 140.296C108.37 140.014 108.416 139.731 108.462 139.441C109.009 136.023 109.423 132.659 109.57 129.2C109.729 126.684 110.394 124.304 111.035 121.875C111.325 121.972 111.615 122.069 111.914 122.168C112.993 124.397 113.339 126.853 113.58 129.291C113.615 129.623 113.651 129.956 113.687 130.298C114.092 134.413 114.182 138.544 114.258 142.676C114.353 142.373 114.353 142.373 114.45 142.064C114.744 141.126 115.041 140.189 115.338 139.252C115.438 138.935 115.537 138.617 115.64 138.29C116.84 134.509 118.302 130.914 120.035 127.351C120.335 126.731 120.631 126.109 120.927 125.487C122.508 122.198 124.175 118.84 126.855 116.309C127.145 116.406 127.435 116.502 127.734 116.602C126.808 120.119 125.799 123.604 124.686 127.066C124.597 127.343 124.508 127.62 124.416 127.905C123.97 129.292 123.52 130.678 123.065 132.063C121.951 135.488 121.025 138.92 120.253 142.439C120.117 142.969 120.117 142.969 119.824 143.555C119.695 148.185 121.718 153.06 123.926 157.032C124.678 157.408 125.059 157.296 125.888 157.182C126.168 157.144 126.447 157.106 126.736 157.067C127.035 157.025 127.334 156.983 127.643 156.94C127.949 156.899 128.255 156.858 128.571 156.816C129.879 156.641 131.186 156.461 132.488 156.245C137.147 155.51 141.389 156.11 145.898 157.325C146.401 157.456 146.904 157.587 147.407 157.717C148.572 158.021 149.736 158.328 150.9 158.64C151.477 158.793 152.057 158.939 152.637 159.082C156.581 148.564 150.566 133.226 147.921 122.922C147.509 121.309 147.13 119.693 146.777 118.067C148.671 118.903 149.359 120.999 150.293 122.754C150.478 123.093 150.662 123.431 150.852 123.78C154.998 131.573 157.655 140.291 160.382 148.664C160.443 148.851 160.505 149.038 160.568 149.231C161.726 152.771 162.674 156.23 162.891 159.961C164.265 159.976 165.639 159.987 167.014 159.994C167.479 159.996 167.945 160 168.41 160.006C172.838 160.053 177.039 159.831 181.256 158.332C181.552 158.229 181.847 158.127 182.152 158.022C188.595 155.781 188.595 155.781 194.238 152.051C194.465 151.86 194.692 151.67 194.926 151.473C198.01 148.79 201.017 145.837 203.613 142.676C203.746 142.521 203.88 142.365 204.017 142.205C204.491 141.652 204.959 141.093 205.426 140.534C205.576 140.36 205.726 140.187 205.88 140.008C207.13 138.485 207.702 136.92 208.301 135.059C208.434 134.662 208.567 134.266 208.701 133.87C209.159 132.516 209.609 131.16 210.058 129.804C210.289 129.111 210.519 128.419 210.749 127.726C210.898 127.278 211.046 126.83 211.194 126.382C211.517 125.405 211.845 124.431 212.187 123.46C212.348 123.001 212.348 123.001 212.512 122.533C212.605 122.275 212.698 122.017 212.794 121.751C213.156 120.344 213.143 119.044 212.402 117.774C211.7 117.386 211.7 117.386 210.937 117.188C210.647 117.091 210.357 116.995 210.058 116.895C209.462 116.867 208.865 116.857 208.269 116.856C207.728 116.855 207.728 116.855 207.176 116.855C206.798 116.856 206.42 116.857 206.03 116.858C205.666 116.857 205.301 116.856 204.926 116.855C203.121 116.857 201.334 116.9 199.534 117.039C187.027 117.944 172.208 118.526 160.254 114.258C159.7 114.07 159.147 113.881 158.593 113.693C157.081 113.167 155.581 112.613 154.082 112.052C151.879 111.227 149.669 110.421 147.461 109.612C146.665 109.32 145.869 109.027 145.074 108.733C138.102 106.164 133.016 105.422 125.976 108.399C124.705 109.004 123.452 109.641 122.2 110.287C119.034 111.919 115.897 113.455 112.5 114.551C112.166 114.67 111.832 114.789 111.488 114.912C109.084 115.731 106.811 116.269 104.388 115.284C104.165 115.139 103.941 114.994 103.711 114.844C103.335 115.152 103.335 115.152 103.4 115.852C103.409 116.305 103.409 116.305 103.418 116.767C103.437 117.864 103.404 118.816 103.143 119.88C103.119 121.375 103.703 121.915 104.649 123.019C105.569 124.093 106.073 124.917 106.018 126.343C105.762 127.149 105.762 127.149 104.883 127.735C102.803 127.665 100.922 126.668 99.4479 125.246C98.9855 124.726 98.5648 124.188 98.1444 123.633C97.9503 123.391 97.7562 123.148 97.5562 122.899C95.224 119.878 94.2811 117.214 94.6288 113.379C94.8851 112.317 94.8851 112.317 95.2147 111.329C95.4309 110.258 95.6176 109.183 95.8007 108.106C96.9153 108.526 97.9466 109.026 98.9867 109.607C99.276 109.765 99.5653 109.923 99.8633 110.086C101.05 110.935 101.914 111.961 102.832 113.086C109.932 110.314 116.566 107.137 123.138 103.262C132.07 98.0049 140.199 100.194 149.414 103.418ZM219.433 123.34C219.049 124.631 218.738 125.895 218.5 127.222C218.161 129.033 217.704 130.799 217.219 132.576C215.445 139.125 214.908 145.598 214.479 152.345C214.313 154.915 214.107 157.445 213.698 159.989C213.33 162.512 213.39 164.765 214.746 166.993C215.878 168.293 217.114 169.321 218.848 169.629C219.768 169.554 220.201 169.439 220.888 168.809C224.333 164.422 227.494 159.818 230.273 154.981C230.377 154.805 230.48 154.629 230.586 154.448C232.207 151.642 233.271 148.617 234.338 145.569C234.409 145.37 234.48 145.171 234.553 144.967C235.986 140.909 236.527 137.059 236.462 132.752C236.46 132.407 236.457 132.062 236.454 131.707C236.447 130.871 236.438 130.035 236.426 129.2C233.493 127.841 230.534 126.586 227.508 125.446C227.221 125.337 226.934 125.228 226.638 125.115C223.129 123.753 223.129 123.753 219.433 123.34ZM129.785 162.891C129.229 164.348 129.737 165.747 130.115 167.194C130.217 167.59 130.217 167.59 130.322 167.993C131.168 171.133 132.539 173.401 134.546 175.93C135.388 176.993 136.198 178.077 136.999 179.169C137.202 179.444 137.202 179.444 137.408 179.725C138.456 181.16 139.431 182.63 140.375 184.135C141.158 185.187 141.849 185.937 143.169 186.181C144.768 186.147 146.003 186.098 147.363 185.157C148.086 184.072 148.026 183.261 148.004 182.007C148.001 181.662 148.001 181.662 147.998 181.31C147.971 179.123 147.87 176.939 147.759 174.754C147.683 173.216 147.655 171.695 147.696 170.156C147.762 167.444 147.4 165.597 145.569 163.532C143.132 161.287 139.422 160.697 136.212 160.766C133.966 160.96 131.475 161.295 129.785 162.891ZM135.937 186.329C135.494 188.71 135.179 191.417 136.23 193.653C137.573 192.414 137.573 192.414 138.098 190.741C138.091 189.135 137.233 187.729 136.523 186.329C136.33 186.329 136.137 186.329 135.937 186.329Z" fill="black"/>
<path d="M84.3747 110.742C86.039 110.857 87.0355 111.325 88.2932 112.372C88.4586 112.506 88.6239 112.64 88.7943 112.778C89.1257 113.048 89.4556 113.32 89.7839 113.594C90.1615 113.905 90.5508 114.202 90.9425 114.495C93.8876 116.818 96.2973 120.487 97.0548 124.147C97.8097 126.506 101.109 127.798 103.125 128.959C103.415 129.135 103.705 129.311 104.004 129.492C104.004 129.589 104.004 129.686 104.004 129.785C102.085 129.704 100.305 129.395 98.4555 128.888C96.4694 128.349 94.6432 128.179 92.5778 128.32C92.2031 129.07 92.2382 129.624 92.2231 130.463C92.2148 130.778 92.2064 131.093 92.1979 131.418C92.1828 132.078 92.1698 132.738 92.159 133.398C92.0681 136.589 91.4859 139.332 89.3552 141.797C88.3267 142.754 87.1789 143.224 85.8464 143.616C83.0411 144.456 81.6215 145.139 79.971 147.701C78.6282 149.643 76.399 150.703 74.1208 151.172C73.3222 151.232 72.5795 151.216 71.7771 151.172C71.1569 149.771 70.6205 148.364 70.1474 146.906C70.0864 146.72 70.0254 146.534 69.9626 146.343C69.7856 145.804 69.6095 145.265 69.4333 144.727C69.2793 144.314 69.2793 144.314 69.1222 143.892C68.8384 142.939 68.7799 142.186 68.7901 141.195C68.792 140.87 68.7939 140.545 68.7959 140.211C68.8008 139.876 68.8057 139.542 68.8107 139.197C68.8134 138.855 68.816 138.514 68.8188 138.162C68.8256 137.323 68.8353 136.484 68.8474 135.645C70.3645 135.802 71.6299 136.165 73.0222 136.798C73.219 136.886 73.4157 136.973 73.6185 137.064C80.3597 140.126 80.3597 140.126 81.445 141.211C82.9854 141.332 83.9592 141.186 85.2536 140.332C88.1295 137.87 88.1433 133.655 88.6113 130.146C88.9742 127.599 89.4642 126.003 91.406 124.219C91.1159 124.137 91.1159 124.137 90.82 124.054C88.7768 123.075 86.9918 121.353 86.1325 119.238C85.8496 117.978 85.6987 116.712 85.5466 115.43C85.4543 114.843 85.357 114.257 85.2536 113.672C85.2113 113.424 85.169 113.176 85.1254 112.921C84.9485 112.154 84.6843 111.465 84.3747 110.742Z" fill="black"/>
<path d="M79.3945 166.406C79.7446 167.234 79.6889 167.574 79.3945 168.439C78.343 170.049 76.8729 170.948 75 171.387C74.1028 171.57 74.1028 171.57 73.2422 171.387C72.5801 170.686 72.0729 169.963 71.7773 169.043C71.994 168.301 72.2197 167.974 72.8474 167.524C73.7973 167.194 74.7565 167.084 75.7507 166.974C76.9594 166.834 78.2095 166.406 79.3945 166.406Z" fill="black"/>
<path d="M89.8136 150.549C90.0436 150.603 90.2736 150.657 90.5105 150.712C91.1136 150.879 91.1136 150.879 91.6996 151.172C91.6029 151.365 91.5062 151.559 91.4066 151.758C90.8537 151.731 90.8537 151.731 90.2897 151.703C89.3062 151.689 89.3062 151.689 88.4769 152.197C88.3319 152.415 88.3319 152.415 88.184 152.637C88.335 152.588 88.4861 152.54 88.6417 152.49C89.5708 152.3 90.461 152.326 91.4066 152.344C90.8447 153.608 90.2833 154.686 88.9828 155.289C87.7642 155.703 86.9542 155.905 85.6754 155.658C84.9613 155.273 84.9613 155.273 84.6683 154.687C84.5585 153.864 84.5585 153.864 84.6683 152.93C86.008 151.284 87.657 150.031 89.8136 150.549Z" fill="black"/>
<path d="M93.457 150.586C93.6504 150.586 93.8437 150.586 94.043 150.586C94.2217 152.999 93.5997 155.045 92.0837 156.958C90.4949 158.668 88.5535 159.976 86.1877 160.071C85.0737 160.068 84.4624 159.952 83.606 159.229C83.3763 158.987 83.1467 158.745 82.9102 158.496C83.7891 158.496 83.7891 158.496 84.359 158.601C86.2255 158.936 87.4701 158.64 89.0625 157.617C91.8161 155.522 91.8161 155.522 93.2957 152.529C93.3735 151.88 93.428 151.239 93.457 150.586Z" fill="black"/>
</svg>
