<svg width="300" height="300" viewBox="0 0 300 300" fill="none" xmlns="http://www.w3.org/2000/svg">
<path d="M93.4567 105.176C93.6361 105.342 93.8155 105.509 94.0003 105.68C95.3358 106.476 97.1774 105.659 98.63 105.334C105.223 103.892 111.811 103.965 118.304 105.848C119.447 106.101 119.957 106.031 120.944 105.444C121.214 105.257 121.214 105.257 121.49 105.066C124.403 103.186 127.983 102.644 131.364 103.325C134.664 104.25 137.116 106.038 138.931 108.976C139.46 109.984 139.811 110.965 140.112 112.061C140.541 113.428 141.303 114.129 142.342 115.082C143.584 116.353 144.519 117.945 145.312 119.531C145.584 119.531 145.584 119.531 145.861 119.53C150.283 119.524 154.704 119.519 159.126 119.516C161.264 119.515 163.402 119.513 165.541 119.509C167.405 119.506 169.27 119.504 171.135 119.504C172.122 119.503 173.108 119.502 174.094 119.5C175.199 119.498 176.303 119.498 177.407 119.498C177.891 119.496 177.891 119.496 178.385 119.495C182.383 119.5 185.554 119.606 188.562 122.516C189.859 123.893 191.025 125.364 192.187 126.855C193.698 128.741 195.247 130.576 196.878 132.359C197.346 132.88 197.782 133.407 198.211 133.96C200.829 136.913 204.698 138.543 208.593 138.867C215.19 139.222 221.028 137.424 226.054 133.044C232.505 127.229 235.927 119.701 237.727 111.32C237.912 110.667 238.106 110.141 238.476 109.57C239.538 109.351 239.538 109.351 240.527 109.277C241.612 110.707 242.063 112.049 242.486 113.782C242.548 114.02 242.611 114.258 242.675 114.503C245.506 125.649 242.46 137.911 236.714 147.609C232.795 153.85 227.174 160.137 220.312 163.184C220.119 163.184 219.925 163.184 219.726 163.184C219.817 163.54 219.908 163.897 220.001 164.264C220.555 166.777 220.613 169.352 220.657 171.918C220.66 172.114 220.664 172.309 220.667 172.511C220.681 173.314 220.695 174.117 220.701 174.92C220.705 175.519 220.717 176.117 220.73 176.715C220.736 177.238 220.736 177.238 220.743 177.771C220.872 179.51 221.523 181.169 222.07 182.813C222.347 182.814 222.624 182.815 222.909 182.816C225.518 182.827 228.126 182.843 230.734 182.866C232.075 182.878 233.415 182.887 234.756 182.892C236.05 182.896 237.344 182.906 238.637 182.92C239.131 182.925 239.625 182.927 240.119 182.927C240.81 182.928 241.501 182.936 242.192 182.946C242.397 182.944 242.602 182.943 242.813 182.941C243.744 182.961 244.219 182.996 244.91 183.645C245.349 184.558 245.225 185.084 244.922 186.035C244.04 186.882 243.43 187.021 242.225 187C241.938 186.997 241.651 186.994 241.356 186.991C241.058 186.984 240.76 186.977 240.454 186.969C240.152 186.965 239.85 186.961 239.538 186.957C238.793 186.947 238.049 186.932 237.304 186.914C237.498 187.397 237.691 187.881 237.89 188.379C238.112 188.38 238.333 188.381 238.561 188.382C240.647 188.393 242.734 188.41 244.82 188.433C245.892 188.444 246.965 188.454 248.038 188.458C249.073 188.463 250.108 188.473 251.143 188.487C251.73 188.493 252.317 188.494 252.904 188.494C253.262 188.5 253.619 188.506 253.988 188.512C254.303 188.515 254.618 188.517 254.942 188.52C255.955 188.708 256.302 189.047 256.933 189.844C257.099 190.43 257.099 190.43 257.098 191.016C257.104 191.209 257.111 191.402 257.118 191.602C256.819 192.551 256.302 192.836 255.468 193.359C254.585 193.517 253.721 193.496 252.826 193.474C252.574 193.472 252.323 193.471 252.064 193.469C251.264 193.462 250.464 193.448 249.664 193.433C249.12 193.427 248.576 193.421 248.033 193.417C246.702 193.404 245.373 193.384 244.043 193.359C244.051 193.591 244.059 193.822 244.067 194.06C244.043 194.824 244.043 194.824 243.658 195.337C242.81 195.965 242.052 196.033 241.034 196.031C240.651 196.032 240.651 196.032 240.26 196.033C239.981 196.032 239.702 196.03 239.415 196.029C239.121 196.029 238.826 196.029 238.523 196.03C237.548 196.029 236.573 196.027 235.598 196.025C234.923 196.024 234.247 196.024 233.572 196.023C231.793 196.022 230.015 196.019 228.236 196.016C226.422 196.013 224.607 196.012 222.793 196.01C219.231 196.007 215.67 196.002 212.109 195.996C212.024 196.183 211.94 196.371 211.853 196.564C211.523 197.168 211.523 197.168 210.937 197.461C210.174 197.49 209.418 197.502 208.654 197.5C208.294 197.501 208.294 197.501 207.927 197.502C207.115 197.504 206.303 197.504 205.491 197.504C204.907 197.505 204.322 197.506 203.738 197.507C202.125 197.51 200.512 197.511 198.898 197.512C197.161 197.513 195.424 197.516 193.687 197.519C189.688 197.524 185.688 197.527 181.688 197.53C179.713 197.531 177.738 197.532 175.762 197.534C169.003 197.539 162.245 197.544 155.486 197.546C155.061 197.546 154.637 197.546 154.212 197.546C154.002 197.546 153.791 197.546 153.575 197.546C152.508 197.547 151.442 197.547 150.375 197.547C150.058 197.548 150.058 197.548 149.734 197.548C142.869 197.55 136.003 197.557 129.138 197.566C121.884 197.576 114.629 197.582 107.375 197.583C106.579 197.583 105.783 197.583 104.987 197.584C104.791 197.584 104.595 197.584 104.393 197.584C101.235 197.584 98.0773 197.589 94.9192 197.595C91.747 197.601 88.5749 197.602 85.4026 197.6C83.683 197.598 81.9634 197.599 80.2437 197.605C78.6711 197.61 77.0987 197.61 75.5261 197.605C74.9555 197.604 74.385 197.606 73.8144 197.609C73.0419 197.613 72.2698 197.611 71.4974 197.606C71.2731 197.609 71.0489 197.612 70.8178 197.615C69.794 197.602 69.2404 197.537 68.4142 196.909C67.8815 196.168 67.8422 195.799 67.8952 194.897C67.9058 194.663 67.9163 194.429 67.9272 194.188C67.9408 194.011 67.9544 193.834 67.9684 193.652C67.6817 193.655 67.395 193.658 67.0996 193.66C64.3969 193.684 61.6941 193.702 58.9913 193.713C57.6018 193.719 56.2123 193.727 54.8228 193.741C53.4817 193.754 52.1407 193.761 50.7995 193.764C50.288 193.766 49.7765 193.77 49.2651 193.776C48.5482 193.785 47.8317 193.786 47.1148 193.785C46.9036 193.79 46.6925 193.794 46.4749 193.798C45.4187 193.79 44.8563 193.673 43.9598 193.095C43.3591 192.48 43.3591 192.48 43.1748 191.895C43.1812 191.701 43.1876 191.508 43.1943 191.309C43.1939 191.115 43.1935 190.922 43.1931 190.723C43.4441 189.836 43.7946 189.524 44.5309 188.965C45.4257 188.847 46.2162 188.8 47.1113 188.805C47.3715 188.802 47.6317 188.799 47.8998 188.796C48.759 188.787 49.618 188.787 50.4773 188.786C51.0733 188.782 51.6694 188.777 52.2654 188.772C53.8336 188.759 55.4018 188.753 56.97 188.749C58.5705 188.743 60.171 188.731 61.7715 188.719C64.9113 188.697 68.0512 188.682 71.1911 188.672C71.2878 188.188 71.3844 187.705 71.4841 187.207C71.2227 187.199 70.9614 187.192 70.6921 187.184C70.3492 187.168 70.0063 187.151 69.653 187.134C69.3131 187.12 68.9732 187.107 68.623 187.093C67.5258 186.886 67.1496 186.643 66.5036 185.742C66.5978 183.89 66.5978 183.89 67.0895 183.398C68.8771 183.111 70.6815 183.093 72.4877 183.105C73.055 183.105 73.055 183.105 73.6338 183.104C74.2194 183.105 74.8052 183.106 75.3906 183.121C77.7322 183.257 77.7322 183.257 79.7068 182.238C80.1624 181.542 80.1624 181.542 80.5222 180.808C80.9756 179.957 81.5534 179.692 82.3971 179.26C83.2345 178.639 83.7061 178.175 83.9537 177.147C84.1381 175.704 84.1901 174.257 84.2591 172.805C84.6007 166.255 88.7229 159.872 93.2473 155.356C93.9597 154.408 94.0426 153.508 94.0426 152.344C93.7511 152.286 93.4595 152.229 93.1592 152.17C84.5966 150.38 75.5242 145.997 70.517 138.539C67.7035 133.772 66.5357 128.82 67.5736 123.293C68.4996 119.768 70.1672 116.956 72.7003 114.391C73.8704 113.158 74.3043 112.01 74.7445 110.397C75.5243 107.872 77.4743 105.809 79.7444 104.517C84.3053 102.355 89.1319 102.659 93.4567 105.176ZM79.3942 109.277C77.8923 111.133 77.2345 113.05 77.3801 115.43C77.6704 117.627 78.5705 119.271 80.2731 120.703C81.715 121.777 82.8652 122.348 84.6676 122.461C84.5891 122.268 84.5105 122.074 84.4296 121.875C84.3148 121.585 84.2 121.295 84.0817 120.996C83.9246 120.664 83.7675 120.331 83.6056 119.989C82.8638 118.002 82.7911 115.523 83.6171 113.572C84.0817 112.793 84.0817 112.793 84.5944 112.372C85.7732 112.077 86.8532 112.342 87.9819 112.738C88.5994 113.173 88.7417 113.579 89.0622 114.258C89.2072 114.527 89.2072 114.527 89.3551 114.803C90.0761 116.166 90.4969 117.438 90.82 118.945C91.0496 118.891 91.2792 118.837 91.5158 118.781C92.2848 118.652 92.2848 118.652 92.8708 118.945C92.7731 120.899 91.705 122.143 90.3851 123.491C88.334 125.321 86.1702 125.684 83.4958 125.684C81.0017 125.409 78.3879 124.084 76.7575 122.168C75.8895 120.851 75.1488 119.46 74.4137 118.066C73.3926 119.014 72.7133 119.827 72.1615 121.106C72.0456 121.368 71.9297 121.63 71.8102 121.9C71.065 123.851 70.7847 125.554 70.7883 127.625C70.7883 127.881 70.7883 128.138 70.7884 128.402C70.8273 130.633 70.9998 133.402 72.6559 135.059C73.5706 135.112 74.4588 135.128 75.3735 135.118C75.6587 135.117 75.9439 135.117 76.2378 135.116C77.1996 135.113 78.1613 135.105 79.1231 135.098C79.8102 135.095 80.4972 135.092 81.1842 135.09C83.0546 135.082 84.9249 135.071 86.7952 135.059C88.5502 135.048 90.3052 135.04 92.0602 135.032C95.537 135.016 99.0138 134.998 102.491 134.978C105.868 134.958 109.246 134.94 112.624 134.923C112.832 134.922 113.041 134.921 113.255 134.92C114.299 134.915 115.343 134.91 116.387 134.904C125.052 134.862 133.717 134.815 142.382 134.766C142.574 134.202 142.765 133.638 142.955 133.074C143.061 132.76 143.167 132.446 143.277 132.123C144.628 127.876 143.63 123.869 141.679 119.998C141.203 119.225 140.727 118.656 140.039 118.066C139.845 118.066 139.652 118.066 139.453 118.066C139.332 118.339 139.211 118.611 139.087 118.892C137.677 121.955 136.235 123.852 133.03 125.178C130.605 126.026 128.318 125.827 125.976 124.805C124.172 123.722 122.696 122.377 121.875 120.41C121.693 119.61 121.626 118.89 121.582 118.066C122.258 118.163 122.935 118.26 123.632 118.359C123.739 118.036 123.739 118.036 123.848 117.706C124.383 116.148 124.856 114.912 125.976 113.672C125.976 113.479 125.976 113.285 125.976 113.086C127.187 112.499 128.152 112.333 129.492 112.5C130.262 113.137 130.802 113.656 131.25 114.551C131.508 117.467 131.282 119.595 129.785 122.168C132.118 122.064 133.496 121.487 135.113 119.751C136.492 118.046 136.995 116.323 136.918 114.135C136.62 111.922 135.614 109.837 133.886 108.398C131.464 106.922 129.24 106.254 126.418 106.776C124.553 107.27 123.126 108.143 121.582 109.277C120.216 110.188 118.955 109.746 117.4 109.439C116.521 109.246 115.646 109.036 114.77 108.826C109.046 107.495 102.598 107.652 97.0456 109.644C95.7054 110.121 94.8458 110.361 93.4567 109.863C92.7659 109.376 92.116 108.856 91.4654 108.316C87.9866 105.602 82.4336 106.153 79.3942 109.277ZM239.355 118.652C239.277 118.873 239.198 119.093 239.117 119.321C235.768 128.397 230.019 136.1 221.181 140.48C215.152 143.141 208.483 143.338 202.306 141.125C199.538 139.79 197.356 138.064 195.227 135.864C194.863 135.494 194.863 135.494 194.491 135.116C192.831 133.412 191.307 131.66 189.843 129.785C187.841 127.289 186.018 125.089 183.105 123.633C182.623 123.606 182.139 123.597 181.656 123.598C181.196 123.597 181.196 123.597 180.727 123.596C180.22 123.598 180.22 123.598 179.704 123.6C179.349 123.6 178.995 123.599 178.63 123.599C177.657 123.6 176.683 123.601 175.71 123.603C174.693 123.605 173.677 123.605 172.66 123.605C170.734 123.606 168.809 123.609 166.883 123.612C164.691 123.615 162.499 123.617 160.307 123.618C155.797 123.621 151.287 123.626 146.777 123.633C146.78 123.851 146.782 124.07 146.785 124.295C146.795 125.295 146.801 126.296 146.807 127.296C146.811 127.64 146.815 127.984 146.819 128.338C146.846 134.363 144.216 138.665 140.167 142.969C131.91 150.987 118.737 153.903 107.589 153.834C105.828 153.787 104.075 153.651 102.319 153.516C101.944 153.488 101.568 153.46 101.181 153.431C100.267 153.363 99.3519 153.293 98.4372 153.223C99.5814 156.746 101.642 159.301 104.195 161.899C104.523 162.236 104.842 162.581 105.158 162.928C106.523 164.398 108.13 165.412 109.863 166.406C110.07 166.528 110.278 166.649 110.491 166.775C114.209 168.694 119.151 168.249 123.211 168.224C124.12 168.219 125.03 168.218 125.939 168.218C129.767 168.211 133.58 168.088 137.402 167.871C137.335 167.715 137.267 167.559 137.198 167.397C137.012 166.967 136.827 166.536 136.641 166.105C136.447 165.653 136.25 165.202 136.052 164.751C135.524 163.497 135.227 162.521 135.351 161.133C136.293 161.167 136.293 161.167 137.402 161.426C137.971 162.04 138.33 162.512 138.739 163.22C138.849 163.403 138.96 163.585 139.074 163.773C141.79 168.396 143.488 173.913 142.968 179.297C142.474 180.605 142.061 181.224 140.789 181.805C139.32 182.554 138.58 183.297 137.915 184.827C137.671 185.844 137.653 186.751 137.695 187.793C137.985 187.89 138.275 187.986 138.574 188.086C139.284 187.625 139.94 187.157 140.606 186.639C140.967 186.36 141.33 186.082 141.695 185.807C141.855 185.683 142.015 185.558 142.18 185.43C142.675 185.156 142.675 185.156 143.847 185.156C144.331 186.51 144.814 187.863 145.312 189.258C145.699 189.258 146.086 189.258 146.484 189.258C147.104 188.486 147.104 188.486 147.656 187.518C148.684 185.802 148.684 185.802 149.45 185.485C149.828 185.46 150.207 185.449 150.586 185.449C150.655 185.617 150.725 185.785 150.797 185.957C151.25 186.76 151.783 187.256 152.472 187.866C152.701 188.073 152.93 188.28 153.166 188.493C153.794 189.052 153.794 189.052 154.687 188.965C155.256 187.827 155.043 186.4 154.831 185.175C154.613 183.67 154.668 182.166 154.689 180.65C154.695 179.993 154.7 179.336 154.704 178.679C154.713 177.653 154.724 176.627 154.737 175.601C154.883 170.342 154.883 170.342 153.808 165.234C153.738 165.032 153.668 164.83 153.596 164.622C152.334 161.395 150.118 158.974 147.536 156.744C147.373 156.602 147.209 156.459 147.041 156.312C146.726 156.041 146.405 155.775 146.08 155.516C145.646 155.148 145.646 155.148 145.019 154.395C145.035 153.291 145.114 152.835 145.898 152.051C146.545 151.918 146.545 151.918 147.363 152.051C148.075 152.541 148.683 153.017 149.322 153.589C149.501 153.746 149.68 153.902 149.865 154.064C151.333 155.379 152.591 156.806 153.812 158.351C154.276 158.933 154.735 159.45 155.273 159.961C156.569 161.257 157.097 162.816 157.242 164.624C157.337 165.332 157.538 165.953 157.771 166.627C157.852 166.861 157.932 167.095 158.015 167.336C158.077 167.513 158.139 167.689 158.203 167.871C162.16 168.101 166.104 168.223 170.068 168.219C170.34 168.219 170.613 168.219 170.893 168.219C177.219 168.213 183.529 167.949 189.843 167.578C190.061 167.565 190.279 167.553 190.504 167.54C191.81 167.463 193.116 167.377 194.421 167.285C194.885 167.254 194.885 167.254 195.357 167.222C195.77 167.19 195.77 167.19 196.19 167.157C196.424 167.139 196.658 167.121 196.899 167.103C197.529 167.033 197.529 167.033 198.047 166.406C197.847 166.201 197.648 165.995 197.442 165.784C196.875 164.941 196.875 164.941 196.948 163.971C197.057 163.581 197.057 163.581 197.168 163.184C199.491 163.3 200.976 164.865 202.496 166.48C204.537 168.886 205.57 171.433 205.664 174.609C205.483 176.125 205.077 177.183 204.107 178.363C202.872 179.258 201.321 179.607 199.875 180.028C198.708 180.57 198.314 181.079 197.754 182.227C197.787 182.903 197.787 182.903 198.047 183.398C198.504 183.307 198.962 183.215 199.42 183.124C200.427 182.922 201.434 182.721 202.441 182.52C202.441 183.97 202.441 185.42 202.441 186.914C203.59 186.627 203.783 186.557 204.53 185.759C204.694 185.588 204.858 185.418 205.027 185.242C205.195 185.062 205.363 184.883 205.536 184.699C205.87 184.342 206.206 183.988 206.544 183.635C206.691 183.478 206.839 183.32 206.991 183.157C207.422 182.813 207.422 182.813 208.3 182.813C208.393 183.126 208.485 183.44 208.58 183.764C208.706 184.173 208.833 184.582 208.96 184.991C209.02 185.199 209.08 185.406 209.142 185.619C209.343 186.293 209.343 186.293 209.765 187.207C210.367 187.527 210.367 187.527 210.937 187.5C212.326 186.074 212.814 184.733 213.281 182.813C213.571 182.813 213.861 182.813 214.16 182.813C214.568 183.274 214.568 183.274 214.984 183.893C216.324 185.794 216.324 185.794 218.372 186.774C219.021 186.85 219.659 186.898 220.312 186.914C220.134 185.621 219.621 184.589 219.012 183.453C217.837 181.242 217.318 179.265 217.282 176.751C217.278 176.543 217.273 176.336 217.269 176.122C217.255 175.465 217.245 174.809 217.236 174.152C217.206 166.218 217.206 166.218 213.519 159.375C211.084 157.236 207.957 156.393 204.9 155.561C203.906 155.273 203.906 155.273 203.613 154.98C203.576 154.102 203.576 154.102 203.613 153.223C203.906 152.93 203.906 152.93 204.95 152.838C208.99 152.896 212.995 154.372 215.899 157.178C216.812 158.144 217.587 159.11 218.261 160.254C227.391 155.753 234.219 147.256 237.567 137.74C239.239 132.786 239.993 127.98 239.996 122.754C240 122.423 240.003 122.092 240.007 121.75C240.007 121.435 240.008 121.12 240.009 120.795C240.01 120.51 240.011 120.224 240.012 119.931C240.009 119.183 240.009 119.183 239.355 118.652ZM75.2926 138.574C80.67 145.027 88.9714 147.848 96.9723 149.414C97.3428 149.487 97.3428 149.487 97.7208 149.561C109.919 151.829 124.108 150.28 134.557 143.194C136.368 141.863 138.147 140.45 139.746 138.867C139.746 138.771 139.746 138.674 139.746 138.574C118.476 138.574 97.2067 138.574 75.2926 138.574ZM95.8005 157.324C95.3961 157.728 95.3961 157.728 94.9925 158.27C94.8344 158.473 94.6764 158.677 94.5135 158.887C94.2623 159.219 94.2623 159.219 94.006 159.558C93.835 159.784 93.6639 160.009 93.4877 160.241C89.665 165.365 87.4481 170.653 87.4924 177.104C87.471 178.341 87.4283 178.848 86.6337 179.847C85.9871 180.353 85.346 180.849 84.6676 181.311C82.7187 182.753 81.8723 184.252 81.445 186.621C81.445 187.008 81.445 187.395 81.445 187.793C83.217 187.325 84.4755 186.686 85.899 185.536C86.5423 185.072 87.1007 184.913 87.8903 184.863C87.9402 185.033 87.99 185.203 88.0414 185.378C88.4969 186.847 88.9604 188.063 89.9411 189.258C90.2311 189.258 90.5212 189.258 90.82 189.258C90.9582 188.76 90.9582 188.76 91.0992 188.253C91.2256 187.819 91.3523 187.385 91.4792 186.951C91.5392 186.732 91.5993 186.513 91.6611 186.288C92.1401 184.677 92.1401 184.677 92.8845 184.129C93.4567 183.984 93.4567 183.984 94.0426 183.984C94.097 184.19 94.1514 184.395 94.2074 184.607C95.1672 186.526 96.8159 187.284 98.7301 188.086C98.7344 187.773 98.7387 187.46 98.7431 187.137C98.7602 185.963 98.7828 184.79 98.807 183.616C98.8167 183.11 98.8249 182.604 98.8316 182.098C98.8995 177.112 99.5613 173.446 103.198 169.757C104.48 168.512 104.48 168.512 105.175 168.164C104.724 167.032 104.024 166.439 103.106 165.656C100.492 163.356 97.9522 160.456 96.3864 157.324C96.193 157.324 95.9997 157.324 95.8005 157.324ZM105.175 172.559C102.74 175.243 102.104 177.487 102.191 181.055C102.209 182.118 102.227 183.182 102.246 184.277C106.596 184.277 110.947 184.277 115.429 184.277C115.429 183.891 115.429 183.504 115.429 183.105C114.931 182.979 114.931 182.979 114.422 182.849C114.078 182.74 113.733 182.632 113.379 182.52C112.974 181.71 113.03 181.07 113.086 180.176C113.824 179.437 114.282 179.518 115.29 179.508C115.516 179.509 115.741 179.51 115.974 179.51C116.331 179.508 116.331 179.508 116.694 179.506C117.212 179.503 117.729 179.501 118.246 179.501C119.065 179.499 119.884 179.495 120.703 179.489C123.031 179.472 125.36 179.463 127.688 179.456C129.112 179.452 130.535 179.443 131.959 179.431C132.501 179.428 133.044 179.426 133.586 179.426C134.346 179.426 135.105 179.421 135.865 179.414C136.089 179.416 136.313 179.417 136.543 179.418C137.85 179.401 138.715 179.243 139.746 178.418C140.178 176.76 139.721 174.948 139.297 173.327C139.217 173.016 139.137 172.706 139.054 172.386C138.992 172.153 138.93 171.92 138.867 171.68C138.496 171.681 138.496 171.681 138.118 171.682C135.77 171.688 133.421 171.692 131.073 171.695C129.866 171.696 128.659 171.698 127.452 171.702C126.284 171.705 125.116 171.707 123.948 171.707C123.506 171.708 123.064 171.709 122.622 171.711C113.428 171.743 113.428 171.743 109.673 170.186C107.667 169.417 106.499 171.237 105.175 172.559ZM197.308 170.387C184.29 171.636 171.272 171.775 158.203 171.68C158.203 173.42 158.203 175.16 158.203 176.953C163.375 176.98 168.548 177.001 173.72 177.014C176.122 177.02 178.524 177.028 180.926 177.042C183.021 177.053 185.116 177.061 187.211 177.063C188.319 177.065 189.427 177.068 190.535 177.077C191.58 177.085 192.626 177.087 193.671 177.086C194.233 177.086 194.794 177.092 195.355 177.099C197.671 177.088 199.741 176.78 201.855 175.781C202.398 174.695 202.284 173.451 202.148 172.266C201.833 171.486 201.461 170.911 200.976 170.215C199.739 170.197 198.539 170.263 197.308 170.387Z" fill="black"/>
<path d="M102.539 125.684C102.882 126.158 102.882 126.158 103.125 126.856C102.818 127.719 102.818 127.719 102.319 128.65C102.158 128.959 101.996 129.268 101.83 129.587C101.367 130.372 101.367 130.372 100.781 130.958C99.7772 130.931 99.3914 130.735 98.6572 130.042C98.0601 129.061 97.9407 128.285 97.8516 127.149C99.5494 125.953 100.483 125.637 102.539 125.684Z" fill="black"/>
<path d="M112.207 125.977C113.992 126.069 115.141 126.398 116.602 127.441C116.843 127.991 116.843 127.991 116.895 128.613C116.55 129.497 116.05 130.242 115.43 130.957C114.606 131.25 114.606 131.25 113.965 131.25C112.859 129.954 111.972 128.794 111.841 127.057C111.914 126.27 111.914 126.27 112.207 125.977Z" fill="black"/>
</svg>
