<svg width="300" height="300" viewBox="0 0 300 300" fill="none" xmlns="http://www.w3.org/2000/svg">
<path d="M180.176 100.488C180.45 100.534 180.724 100.579 181.006 100.626C193.788 102.854 205.658 108.525 215.039 117.48C215.289 117.715 215.539 117.949 215.797 118.191C217.816 120.136 219.514 122.274 221.192 124.511C221.315 124.675 221.439 124.838 221.567 125.006C227.287 132.569 231.139 141.33 234.082 150.293C234.25 150.796 234.25 150.796 234.421 151.31C237.816 161.595 240.003 172.139 242.099 182.75C242.353 184.031 242.609 185.311 242.865 186.592C243.114 187.84 243.362 189.09 243.609 190.339C243.727 190.932 243.845 191.525 243.963 192.119C244.126 192.939 244.287 193.76 244.448 194.581C244.497 194.823 244.545 195.065 244.595 195.314C245.036 197.587 245.036 197.587 244.922 198.633C243.744 199.811 241.876 199.555 240.296 199.567C228.858 199.556 220.383 195.761 212.296 187.701C211.646 187.05 210.998 186.396 210.352 185.742C210.345 186.152 210.345 186.152 210.339 186.57C210.321 187.592 210.299 188.613 210.275 189.635C210.265 190.075 210.257 190.516 210.25 190.957C210.24 191.593 210.225 192.229 210.209 192.866C210.201 193.248 210.193 193.63 210.185 194.023C209.993 195.682 209.502 197.087 208.154 198.156C207.982 198.298 207.81 198.439 207.633 198.584C206.497 199.354 205.319 199.264 204.005 199.266C203.776 199.267 203.548 199.269 203.313 199.27C202.557 199.274 201.801 199.276 201.045 199.278C200.52 199.28 199.994 199.281 199.468 199.283C198.364 199.286 197.261 199.288 196.158 199.289C194.747 199.29 193.336 199.297 191.925 199.306C190.838 199.311 189.751 199.313 188.664 199.313C188.144 199.314 187.624 199.316 187.104 199.32C186.375 199.325 185.646 199.325 184.917 199.323C184.704 199.326 184.491 199.328 184.271 199.331C182.586 199.317 181.235 198.953 179.905 197.888C179.704 197.649 179.704 197.649 179.498 197.406C179.361 197.25 179.223 197.095 179.081 196.935C178 195.045 178.029 192.883 178.004 190.768C177.998 190.472 177.993 190.177 177.987 189.872C177.969 188.935 177.956 187.997 177.942 187.06C177.931 186.422 177.919 185.783 177.908 185.145C177.88 183.586 177.855 182.027 177.832 180.468C177.623 180.362 177.415 180.255 177.199 180.146C176.919 179.998 176.638 179.851 176.349 179.699C176.074 179.557 175.798 179.414 175.515 179.267C174.426 178.598 173.505 177.807 172.559 176.953C172.557 177.168 172.555 177.383 172.554 177.604C172.537 179.639 172.515 181.673 172.49 183.707C172.477 184.753 172.465 185.798 172.457 186.844C172.45 187.855 172.438 188.865 172.423 189.876C172.416 190.446 172.413 191.015 172.41 191.585C172.373 193.806 172.321 195.777 170.819 197.542C170.62 197.702 170.42 197.863 170.215 198.028C170.016 198.194 169.816 198.36 169.611 198.531C168.532 199.281 167.589 199.256 166.313 199.26C166.03 199.261 166.03 199.261 165.742 199.262C165.109 199.265 164.476 199.265 163.843 199.266C163.39 199.267 162.937 199.268 162.483 199.27C161.251 199.274 160.018 199.276 158.786 199.277C158.016 199.278 157.246 199.279 156.476 199.28C154.067 199.284 151.658 199.287 149.249 199.288C146.468 199.29 143.687 199.295 140.906 199.303C138.757 199.31 136.608 199.313 134.458 199.313C133.174 199.313 131.891 199.315 130.607 199.32C129.399 199.325 128.191 199.326 126.983 199.323C126.54 199.323 126.097 199.324 125.655 199.327C125.049 199.331 124.444 199.329 123.838 199.326C123.499 199.327 123.161 199.327 122.812 199.327C121.558 199.182 120.572 198.754 119.636 197.9C117.27 194.862 117.996 189.533 117.91 185.797C117.897 185.274 117.884 184.751 117.872 184.229C117.845 183.138 117.819 182.048 117.794 180.958C117.762 179.581 117.729 178.205 117.695 176.828C117.559 171.303 117.429 165.781 117.481 160.254C117.159 160.454 116.836 160.655 116.505 160.862C111.523 163.952 106.226 166.002 100.446 167.022C96.6819 167.688 93.3261 168.409 89.9416 170.215C89.6312 170.378 89.3207 170.541 89.0009 170.709C84.1893 173.381 80.1023 177 76.758 181.347C76.5145 181.656 76.2707 181.965 76.0267 182.273C74.8145 183.816 73.6763 185.368 72.6198 187.024C71.401 188.88 69.8804 190.684 67.7252 191.473C64.4908 192.126 61.911 191.462 59.1066 189.898C56.9976 188.221 55.5969 186.069 55.0783 183.398C54.7891 180.11 55.3566 177.378 56.5431 174.316C56.6612 174.011 56.7793 173.707 56.9009 173.393C60.5467 164.108 65.0141 155.154 70.8986 147.07C71.0366 146.879 71.1747 146.687 71.3169 146.49C74.4527 142.153 77.9058 138.204 81.7385 134.472C82.4269 133.789 83.1112 133.105 83.7789 132.401C85.5271 130.58 87.4409 129.043 89.4482 127.523C89.8904 127.187 90.3288 126.846 90.7667 126.505C93.597 124.354 96.6252 122.75 99.9758 121.582C101.728 120.965 103.091 120.184 104.552 119.039C118.825 108.455 137.245 102.464 154.688 100.195C154.944 100.16 155.2 100.126 155.463 100.09C163.526 99.0333 172.166 99.1332 180.176 100.488ZM122.168 114.55C121.929 114.658 121.691 114.765 121.445 114.875C117.952 116.443 114.63 118.257 111.313 120.17C110.259 120.776 109.202 121.349 108.106 121.875C108.735 122.547 109.374 123.04 110.156 123.523C110.356 123.647 110.555 123.772 110.761 123.9C111.36 124.26 111.36 124.26 112.207 124.511C112.508 125.023 112.508 125.023 112.793 125.683C112.914 125.922 113.036 126.161 113.161 126.408C113.287 126.658 113.414 126.908 113.544 127.166C113.735 127.543 113.735 127.543 113.93 127.927C115.043 130.252 114.901 133.502 114.075 135.919C113.313 137.715 112.389 139.527 110.742 140.625C109.559 140.719 108.755 140.776 107.666 140.313C107.227 139.746 107.227 139.746 107.025 138.83C107.275 137.421 107.862 136.76 108.763 135.68C109.908 134.297 110.327 133.111 110.258 131.339C110.021 129.768 109.31 128.526 108.124 127.478C106.184 126.131 103.967 125.723 101.624 126.104C98.0869 127.048 94.9393 129.124 92.1649 131.446C91.7034 131.832 91.2362 132.21 90.7678 132.588C82.0938 139.697 75.044 148.534 69.4338 158.203C69.2933 158.445 69.1529 158.687 69.0082 158.936C61.898 170.441 61.898 170.441 59.9111 183.135C60.5496 184.773 61.5774 185.734 63.08 186.584C64.3596 186.975 65.2369 187.06 66.5041 186.621C68.1807 185.673 69.0632 184.139 70.0403 182.534C71.9154 179.57 74.2405 176.961 76.6589 174.434C76.9959 174.081 77.3288 173.724 77.6609 173.366C83.4841 167.261 91.3844 163.584 99.6279 162.304C109.874 160.702 117.956 154.474 125.009 147.141C125.391 146.777 125.391 146.777 125.977 146.484C125.977 146.291 125.977 146.097 125.977 145.898C126.151 145.819 126.325 145.741 126.505 145.659C127.151 145.311 127.565 144.965 128.078 144.445C128.339 144.182 128.339 144.182 128.606 143.914C128.884 143.63 128.884 143.63 129.167 143.34C129.362 143.145 129.556 142.949 129.756 142.747C130.378 142.12 130.997 141.492 131.616 140.863C132.232 140.239 132.847 139.616 133.464 138.994C133.847 138.608 134.229 138.22 134.61 137.832C135.709 136.722 136.846 135.68 138.028 134.659C138.784 133.996 139.486 133.295 140.193 132.58C140.331 132.44 140.469 132.301 140.612 132.157C141.044 131.721 141.476 131.284 141.907 130.847C142.482 130.264 143.058 129.682 143.635 129.101C143.887 128.845 144.139 128.59 144.399 128.326C145.128 127.631 145.413 127.463 146.411 127.35C148.328 127.534 149.875 129.197 151.319 130.389C152.661 131.49 154.006 132.583 155.379 133.646C162.831 139.42 170.385 145.955 171.837 155.747C172.004 157.123 172.007 158.485 172.004 159.869C172.008 160.412 172.012 160.954 172.017 161.496C172.024 162.341 172.028 163.186 172.024 164.03C172.022 164.853 172.03 165.675 172.04 166.498C172.035 166.872 172.035 166.872 172.029 167.254C172.068 169.179 172.706 170.294 174.024 171.679C174.662 172.261 175.321 172.784 176.019 173.291C176.276 173.484 176.276 173.484 176.538 173.682C177.26 174.327 177.26 174.327 178.125 174.609C178.131 174.332 178.137 174.055 178.143 173.769C178.165 172.716 178.191 171.664 178.218 170.611C178.229 170.16 178.239 169.709 178.249 169.258C178.409 161.595 179.595 154.784 184.863 148.828C185.091 148.559 185.091 148.559 185.324 148.284C189.315 143.901 195.862 141.483 201.658 141.174C204.428 141.085 207.16 141.116 209.894 141.595C210.093 141.63 210.292 141.664 210.496 141.7C211.734 141.943 212.792 142.305 213.867 142.968C214.215 143.957 214.215 143.957 214.16 145.019C213.611 145.898 213.611 145.898 212.695 146.484C211.782 146.534 210.951 146.376 210.059 146.191C203.753 145.021 196.787 145.625 191.309 149.121C187.212 152.072 184.193 156.773 183.284 161.759C183.194 162.433 183.123 163.106 183.062 163.783C183.026 164.174 183.026 164.174 182.99 164.573C182.682 168.359 182.737 172.16 182.755 175.955C182.759 176.768 182.758 177.582 182.758 178.395C182.758 182.39 182.793 186.386 182.908 190.38C182.917 190.859 182.917 190.859 182.927 191.348C182.942 191.786 182.942 191.786 182.958 192.233C182.969 192.614 182.969 192.614 182.98 193.003C183.067 193.659 183.067 193.659 183.431 194.173C184.268 194.714 184.968 194.643 185.958 194.645C186.157 194.646 186.356 194.648 186.561 194.649C187.22 194.653 187.878 194.651 188.536 194.648C188.993 194.648 189.45 194.649 189.907 194.65C190.865 194.652 191.823 194.65 192.781 194.646C194.01 194.641 195.239 194.643 196.468 194.649C197.412 194.652 198.356 194.651 199.299 194.649C199.753 194.648 200.206 194.649 200.659 194.651C201.292 194.653 201.925 194.65 202.557 194.645C202.918 194.644 203.278 194.643 203.649 194.643C203.927 194.606 204.206 194.569 204.492 194.531C205.145 193.552 205.156 193.217 205.172 192.073C205.178 191.751 205.183 191.428 205.189 191.096C205.193 190.748 205.196 190.4 205.2 190.041C205.205 189.685 205.211 189.329 205.217 188.961C205.234 187.821 205.248 186.681 205.261 185.54C205.273 184.768 205.284 183.996 205.296 183.224C205.324 181.329 205.349 179.434 205.371 177.539C205.788 177.477 206.205 177.42 206.623 177.364C206.855 177.332 207.087 177.299 207.327 177.266C208.878 177.22 209.965 178.295 211.03 179.293C211.35 179.615 211.667 179.94 211.981 180.267C212.148 180.437 212.315 180.607 212.487 180.782C213.445 181.764 214.35 182.773 215.226 183.83C216.054 184.757 217.02 185.529 217.969 186.328C218.215 186.548 218.461 186.768 218.715 186.995C223.86 191.493 229.607 194.614 236.554 194.549C236.959 194.547 236.959 194.547 237.373 194.545C238.034 194.542 238.695 194.537 239.356 194.531C239 191.897 238.58 189.286 238.067 186.678C237.999 186.332 237.932 185.985 237.862 185.629C237.642 184.506 237.419 183.385 237.195 182.263C237.138 181.974 237.138 181.974 237.079 181.68C234.966 171.09 232.576 160.53 229.102 150.293C228.974 149.91 228.974 149.91 228.843 149.519C225.65 140.069 220.833 130.705 213.92 123.428C213.36 122.836 212.845 122.23 212.329 121.6C208.448 117.166 203.203 114.05 198.047 111.328C197.719 111.154 197.391 110.98 197.053 110.8C173.761 99.2213 144.871 104.172 122.168 114.55ZM145.441 133.596C145.157 133.882 144.877 134.172 144.601 134.466C144.451 134.619 144.3 134.772 144.146 134.929C143.664 135.421 143.188 135.917 142.713 136.413C142.238 136.903 141.762 137.391 141.286 137.879C140.99 138.182 140.695 138.487 140.401 138.793C139.455 139.772 138.449 140.636 137.403 141.504C136.907 141.985 136.42 142.474 135.938 142.968C135.595 143.315 135.252 143.661 134.908 144.007C134.719 144.198 134.53 144.389 134.336 144.585C133.474 145.455 132.611 146.322 131.748 147.19C131.297 147.644 130.846 148.1 130.395 148.555C125.858 153.142 125.858 153.142 123.337 155.11C122.733 155.564 122.733 155.564 122.168 156.152C122.092 156.759 122.092 156.759 122.124 157.465C122.129 157.741 122.134 158.017 122.139 158.301C122.147 158.604 122.156 158.907 122.165 159.219C122.171 159.536 122.178 159.853 122.185 160.18C122.207 161.23 122.233 162.28 122.26 163.33C122.276 164.058 122.292 164.787 122.308 165.516C122.341 167.02 122.375 168.525 122.41 170.029C122.459 172.139 122.5 174.248 122.538 176.358C122.55 177.008 122.562 177.657 122.573 178.307C122.59 179.226 122.607 180.145 122.623 181.064C122.653 182.731 122.689 184.398 122.733 186.065C122.748 186.658 122.76 187.252 122.77 187.845C122.787 188.78 122.811 189.715 122.836 190.649C122.84 190.937 122.844 191.225 122.847 191.522C122.856 191.788 122.865 192.055 122.874 192.329C122.879 192.564 122.884 192.799 122.889 193.041C123.004 193.69 123.004 193.69 123.533 194.168C124.405 194.63 125.007 194.637 125.992 194.631C126.355 194.631 126.718 194.631 127.092 194.63C127.471 194.626 127.851 194.621 128.243 194.617C128.593 194.616 128.943 194.615 129.304 194.614C130.612 194.61 131.92 194.597 133.228 194.586C136.152 194.568 139.077 194.55 142.09 194.531C142.187 186.507 142.283 178.482 142.383 170.215C143.072 169.87 143.502 169.882 144.269 169.885C144.613 169.884 144.613 169.884 144.964 169.883C145.606 169.922 145.606 169.922 146.485 170.215C146.581 178.239 146.678 186.263 146.778 194.531C149.998 194.555 153.219 194.579 156.537 194.604C158.062 194.62 158.062 194.62 159.618 194.637C160.421 194.64 161.224 194.643 162.027 194.645C162.34 194.65 162.34 194.65 162.66 194.655C163.275 194.663 163.89 194.664 164.505 194.664C164.852 194.667 165.198 194.669 165.556 194.672C166.421 194.615 166.421 194.615 166.892 194.031C167.36 193.232 167.396 192.762 167.397 191.84C167.401 191.38 167.401 191.38 167.404 190.91C167.403 190.574 167.401 190.239 167.399 189.893C167.401 189.539 167.402 189.184 167.404 188.819C167.407 187.846 167.406 186.874 167.403 185.902C167.401 184.882 167.403 183.861 167.405 182.841C167.406 181.125 167.404 179.409 167.4 177.692C167.395 175.716 167.397 173.74 167.402 171.763C167.406 170.062 167.406 168.361 167.404 166.659C167.402 165.645 167.402 164.631 167.405 163.617C167.408 162.483 167.404 161.349 167.399 160.214C167.402 159.718 167.402 159.718 167.404 159.212C167.349 152.137 163.456 147.197 158.649 142.431C156.927 140.76 155.126 139.262 153.204 137.831C152.545 137.332 151.898 136.819 151.251 136.305C151.013 136.116 150.776 135.928 150.531 135.734C150.064 135.364 149.598 134.993 149.133 134.62C148.92 134.453 148.707 134.286 148.487 134.113C148.299 133.963 148.11 133.813 147.915 133.659C146.848 132.966 146.508 132.76 145.441 133.596Z" fill="black"/>
<path d="M98.1809 138.977C99.6764 139.823 100.477 141.092 101.074 142.676C101.385 144.415 101.339 145.954 100.451 147.51C99.5339 148.764 98.4454 149.509 96.9724 150C95.1511 150.149 93.5248 150.226 91.9919 149.121C90.5943 147.727 89.9037 146.69 89.8496 144.672C89.8748 143.08 90.084 141.872 91.113 140.625C93.2264 138.878 95.5029 137.882 98.1809 138.977Z" fill="black"/>
</svg>
