<svg width="300" height="300" viewBox="0 0 300 300" fill="none" xmlns="http://www.w3.org/2000/svg">
<path d="M142.09 92.5781C144.848 92.5644 147.607 92.554 150.366 92.5477C151.647 92.5447 152.929 92.5406 154.21 92.5339C165.194 92.4778 165.194 92.4778 170.215 93.164C170.543 93.2053 170.871 93.2465 171.21 93.289C172.017 93.3976 172.818 93.5218 173.62 93.6584C173.905 93.7064 174.189 93.7543 174.482 93.8037C180.434 94.8613 186.394 96.2978 191.656 99.3347C191.949 99.5021 192.242 99.6695 192.543 99.842C196.453 102.107 200.078 104.713 203.613 107.519C203.883 107.732 204.153 107.945 204.431 108.165C208.127 111.13 211.462 114.455 214.785 117.823C216.133 119.184 217.493 120.502 218.948 121.748C219.53 122.252 220.071 122.786 220.605 123.34C221.343 124.089 222.094 124.799 222.894 125.482C224.163 126.571 225.325 127.757 226.492 128.952C227.117 129.579 227.77 130.161 228.442 130.737C230.111 132.183 231.636 133.771 233.184 135.344C233.417 135.579 233.65 135.814 233.89 136.056C234.096 136.266 234.302 136.475 234.514 136.691C235.109 137.263 235.712 137.802 236.337 138.34C237.748 139.565 239.058 140.882 240.372 142.209C240.629 142.468 240.887 142.727 241.153 142.993C242.108 143.953 243.063 144.914 244.017 145.875C244.955 146.821 245.895 147.765 246.835 148.709C247.078 148.955 247.322 149.201 247.572 149.454C248.824 150.711 250.098 151.916 251.444 153.072C252.097 153.641 252.709 154.244 253.317 154.861C253.55 155.097 253.783 155.332 254.023 155.574C254.499 156.057 254.974 156.54 255.449 157.023C256.706 158.293 257.983 159.51 259.338 160.673C260.088 161.33 260.778 162.031 261.474 162.744C262.383 163.665 263.299 164.568 264.276 165.417C264.462 165.58 264.648 165.742 264.839 165.91C265.254 166.258 265.679 166.595 266.112 166.921C268.036 168.465 269.121 170.192 270.289 172.321C271.522 174.561 272.925 176.659 274.389 178.754C274.557 178.999 274.726 179.244 274.9 179.497C275.126 179.821 275.126 179.821 275.358 180.152C275.683 180.762 275.683 180.762 275.683 181.934C273.947 181.592 272.347 181.126 270.703 180.469C270.834 180.646 270.965 180.824 271.1 181.007C274.551 185.79 274.893 189.778 274.823 195.52C274.812 196.572 274.803 197.624 274.797 198.676C274.795 198.927 274.793 199.178 274.792 199.436C274.787 201.427 274.891 203.389 275.097 205.371C274.558 205.547 274.558 205.547 273.926 205.664C273.181 205.19 273.181 205.19 272.406 204.529C272.148 204.312 271.89 204.095 271.624 203.872C270.996 203.32 270.996 203.32 270.703 203.027C270.703 203.801 270.703 204.574 270.703 205.371C269.058 205.248 267.804 204.733 266.601 203.613C265.985 202.679 265.53 201.697 265.089 200.669C264.805 200.008 264.51 199.352 264.214 198.696C263.636 197.408 263.066 196.117 262.5 194.824C262.454 197.164 262.634 199.442 262.877 201.768C263.065 203.659 263.119 205.522 263.086 207.422C262.889 207.366 262.693 207.311 262.49 207.254C259.973 206.546 257.43 205.959 254.883 205.371C254.979 205.564 255.076 205.758 255.176 205.957C255.187 206.64 255.188 207.324 255.176 208.008C252.635 207.506 250.217 206.693 247.762 205.879C247.216 205.699 246.67 205.52 246.123 205.341C245.801 205.235 245.479 205.128 245.147 205.018C244.336 204.745 244.336 204.745 243.457 204.785C243.36 204.978 243.264 205.172 243.164 205.371C241.522 204.798 240.098 203.851 238.623 202.945C237.242 202.114 235.901 201.499 234.375 200.977C234.387 201.254 234.399 201.532 234.411 201.819C234.417 203.235 234.099 204.582 233.789 205.957C233.402 205.957 233.015 205.957 232.617 205.957C231.008 202.305 229.499 198.626 228.088 194.894C227.383 193.034 226.644 191.196 225.857 189.37C225.586 188.672 225.586 188.672 225.586 188.086C225.392 188.086 225.199 188.086 225 188.086C224.987 188.287 224.974 188.488 224.961 188.695C224.792 191.01 224.476 193.284 224.091 195.574C223.991 196.169 223.896 196.765 223.8 197.361C223.737 197.739 223.674 198.116 223.609 198.506C223.553 198.847 223.497 199.188 223.438 199.54C223.242 200.391 223.242 200.391 222.656 201.269C222.269 201.173 221.883 201.076 221.484 200.977C220.474 197.176 219.502 193.368 218.555 189.551C217.829 192.306 217.829 192.306 217.09 195.117C215.832 194.614 215.387 194.41 214.508 193.506C214.331 193.328 214.154 193.149 213.971 192.966C213.574 192.48 213.574 192.48 213.574 191.894C213.381 191.894 213.187 191.894 212.988 191.894C212.986 192.058 212.985 192.221 212.983 192.389C212.964 194.086 212.939 195.782 212.911 197.479C212.901 198.112 212.893 198.746 212.887 199.379C212.877 200.289 212.861 201.199 212.845 202.108C212.843 202.392 212.841 202.676 212.839 202.968C212.834 203.232 212.828 203.496 212.822 203.768C212.819 204 212.815 204.233 212.812 204.472C212.666 205.231 212.416 205.483 211.816 205.957C206.11 208.462 197.07 207.177 190.976 207.213C190.209 207.218 189.442 207.225 188.675 207.234C187.584 207.246 186.493 207.251 185.402 207.254C185.07 207.259 184.738 207.264 184.395 207.269C183.935 207.268 183.935 207.268 183.465 207.267C183.062 207.269 183.062 207.269 182.651 207.272C181.699 207.082 181.346 206.719 180.762 205.957C180.739 204.724 180.895 204.11 181.659 203.137C183.383 201.743 184.929 200.928 187.06 200.281C190.693 199.133 192.267 196.732 194.195 193.61C194.423 193.241 194.658 192.875 194.899 192.514C195.29 191.922 195.29 191.922 195.703 191.016C195.371 189.988 194.791 189.518 193.927 188.906C193.693 188.74 193.46 188.573 193.22 188.401C192.854 188.145 192.854 188.145 192.48 187.884C192.114 187.624 192.114 187.624 191.741 187.357C190.539 186.485 190.539 186.485 189.258 185.742C189.354 186.419 189.451 187.096 189.551 187.793C189.226 187.642 189.226 187.642 188.895 187.487C187.883 187.111 187.118 186.908 186.035 186.914C184.692 187.758 183.775 188.901 182.812 190.137C182.475 190.543 182.475 190.543 182.131 190.958C179.796 193.937 179.085 197.244 178.424 200.902C178.019 202.947 177.505 204.501 175.783 205.817C175.601 205.9 175.419 205.982 175.232 206.067C175.051 206.154 174.871 206.241 174.685 206.33C172.811 206.933 170.793 206.926 168.841 207.001C168.518 207.013 168.195 207.026 167.863 207.038C161.522 207.243 155.171 207.153 148.828 207.129C148.385 205.799 148.862 204.864 149.414 203.613C151.143 200.474 154.241 199.361 157.468 198.255C159.501 197.525 160.924 196.607 161.989 194.689C162.548 192.876 162.408 190.951 162.378 189.075C162.374 188.656 162.371 188.237 162.368 187.818C162.323 182.73 162.169 177.643 162.012 172.559C161.732 172.623 161.732 172.623 161.448 172.688C160.598 172.884 159.748 173.078 158.899 173.273C158.46 173.374 158.46 173.374 158.012 173.477C156.615 173.796 155.227 174.106 153.808 174.316C153.959 174.582 154.111 174.848 154.266 175.122C154.687 176.074 154.687 176.074 154.394 177.246C153.331 176.859 152.267 176.473 151.172 176.074C151.268 176.527 151.365 176.981 151.465 177.447C151.684 178.477 151.788 179.415 151.758 180.469C150.086 180.343 149.001 179.636 147.656 178.711C147.704 179.043 147.753 179.376 147.803 179.718C148.053 181.911 147.972 184.125 147.949 186.328C145.396 186.017 145.396 186.017 144.14 185.742C144.186 185.915 144.232 186.089 144.279 186.267C144.845 188.567 144.845 188.567 144.433 189.844C143.853 189.747 143.273 189.65 142.676 189.551C142.76 189.766 142.845 189.982 142.932 190.204C143.041 190.49 143.149 190.776 143.262 191.071C143.37 191.353 143.479 191.635 143.591 191.925C143.841 192.75 143.897 193.383 143.847 194.238C142.548 193.423 141.761 192.738 140.625 191.602C140.625 194.115 140.625 196.629 140.625 199.219C139.121 198.843 138.542 198.198 137.402 197.168C137.402 198.231 137.402 199.295 137.402 200.391C136.239 199.754 135.419 199.286 134.472 198.34C134.472 199.693 134.472 201.047 134.472 202.441C133.008 202.148 133.008 202.148 132.129 201.855C132.225 203.306 132.322 204.756 132.422 206.25C131.371 206.95 130.874 206.92 129.624 206.943C129.43 206.948 129.237 206.952 129.037 206.956C128.398 206.97 127.759 206.979 127.12 206.988C126.676 206.996 126.232 207.004 125.788 207.012C124.858 207.028 123.927 207.041 122.997 207.054C121.803 207.07 120.61 207.092 119.416 207.117C118.499 207.135 117.583 207.149 116.666 207.161C116.226 207.168 115.786 207.176 115.345 207.185C114.731 207.198 114.117 207.205 113.502 207.211C113.152 207.216 112.802 207.222 112.442 207.227C112.035 207.179 112.035 207.179 111.621 207.129C110.964 206.143 110.944 205.645 111.143 204.491C111.387 203.719 111.766 203.218 112.419 202.738C113.684 202.176 115.075 202.033 116.438 201.846C117.701 201.502 118.195 201.17 118.945 200.098C119.005 199.253 118.999 198.628 118.89 197.809C118.87 197.606 118.849 197.403 118.828 197.194C118.776 196.696 118.715 196.199 118.652 195.703C118.534 195.81 118.416 195.918 118.294 196.028C117.298 196.916 116.295 197.772 115.226 198.57C113.03 200.224 111.386 201.528 110.449 204.199C110.246 204.689 110.038 205.178 109.826 205.664C109.698 205.981 109.698 205.981 109.568 206.305C109.277 206.836 109.277 206.836 108.398 207.422C107.038 207.819 105.647 207.757 104.243 207.754C103.982 207.754 103.72 207.754 103.451 207.755C102.898 207.755 102.344 207.754 101.791 207.753C100.958 207.751 100.125 207.753 99.2916 207.755C97.737 207.756 96.1831 207.743 94.6287 207.715C94.4105 207.711 94.1923 207.707 93.9675 207.703C93.3908 207.689 92.8144 207.665 92.2381 207.639C91.9246 207.626 91.6111 207.613 91.2881 207.599C90.5272 207.422 90.5272 207.422 89.9796 206.859C89.6483 206.25 89.6483 206.25 89.6666 205.664C90.1368 204.661 90.7079 204.071 91.7486 203.647C92.5212 203.397 93.2969 203.171 94.0794 202.954C94.4833 202.836 94.4833 202.836 94.8954 202.716C96.8676 202.148 96.8676 202.148 97.5584 202.148C97.6769 197.557 97.3046 193.048 96.8741 188.48C96.803 187.706 96.7321 186.933 96.6615 186.159C96.5139 184.547 96.3645 182.934 96.2137 181.322C96.0029 179.068 95.7954 176.813 95.5885 174.558C94.7221 165.057 94.7221 165.057 93.7498 155.566C93.537 155.514 93.3242 155.461 93.105 155.407C91.6762 155.055 90.2519 154.695 88.8334 154.303C88.5902 154.237 88.3469 154.17 88.0962 154.102C87.6134 153.97 87.1312 153.835 86.6496 153.699C84.3031 153.047 84.3031 153.047 81.9739 153.514C81.7873 153.654 81.6007 153.793 81.4085 153.937C81.1834 154.098 80.9584 154.259 80.7264 154.425C80.4802 154.609 80.234 154.792 79.9803 154.98C75.3545 158.372 70.596 160.686 65.131 162.429C62.2381 163.365 59.5911 164.508 57.2569 166.498C56.9029 166.795 56.9029 166.795 56.5417 167.099C56.1072 167.481 56.1072 167.481 55.6639 167.871C55.4606 168.049 55.2574 168.227 55.048 168.41C53.085 170.148 51.2214 171.975 49.3714 173.832C48.8693 174.336 48.3657 174.838 47.8619 175.34C46.201 177 44.5782 178.67 43.0662 180.469C42.8024 180.775 42.5384 181.081 42.2743 181.387C40.7394 183.19 39.2468 185.018 37.7898 186.885C36.5461 188.478 35.2797 190.05 33.9842 191.602C33.6692 191.997 33.6692 191.997 33.3479 192.4C31.5751 194.531 29.7657 195.758 26.9896 196.161C25.7918 195.945 25.3498 195.812 24.6092 194.824C24.3241 192.485 24.7198 190.377 25.4881 188.177C25.6402 187.734 25.6402 187.734 25.7954 187.281C31.2726 172.036 40.5432 156.381 50.6834 143.848C50.913 143.561 51.1426 143.274 51.3792 142.979C53.3754 140.508 55.4375 138.135 57.7513 135.956C57.9086 135.807 58.0658 135.658 58.2279 135.504C59.1004 134.703 59.9718 134.028 60.9865 133.415C63.074 132.265 63.074 132.265 64.3325 130.369C64.441 129.273 64.3511 128.214 64.247 127.121C64.1513 125.862 64.2351 125.149 64.9038 124.094C66.2726 122.619 68.0324 121.608 70.0194 121.289C71.1386 121.331 72.2349 121.496 73.3313 121.72C76.1725 122.2 79.0532 121.016 81.3959 119.422C82.8193 118.353 84.2144 117.249 85.6068 116.14C87.8017 114.398 90.0368 112.707 92.285 111.035C92.4676 110.898 92.6501 110.76 92.8382 110.619C93.7927 109.914 94.6623 109.364 95.8006 108.984C95.8006 109.661 95.8006 110.338 95.8006 111.035C97.6384 109.523 99.221 107.849 100.781 106.055C101.66 106.348 101.66 106.348 102.246 107.227C102.906 106.66 103.565 106.092 104.223 105.524C104.422 105.353 104.62 105.182 104.825 105.005C105.785 104.174 106.737 103.337 107.664 102.468C107.819 102.322 107.975 102.176 108.135 102.026C108.558 101.627 108.978 101.225 109.398 100.824C110.13 100.217 110.723 99.8995 111.621 99.6093C111.718 99.706 111.814 99.8027 111.914 99.9023C111.888 100.398 111.842 100.892 111.786 101.385C111.756 101.655 111.726 101.924 111.695 102.201C111.671 102.41 111.646 102.618 111.621 102.832C113.198 101.846 114.479 100.673 115.816 99.3885C116.618 98.6303 117.316 97.9709 118.359 97.5586C118.99 98.5042 119.004 98.8136 118.945 99.9023C119.113 99.7989 119.282 99.6954 119.455 99.5889C120.224 99.1178 120.994 98.6494 121.765 98.1811C122.03 98.0183 122.294 97.8556 122.567 97.6879C123.871 96.8983 125.074 96.1913 126.562 95.8007C126.466 96.4775 126.369 97.1543 126.269 97.8515C128.512 97.1923 130.189 96.2763 132.009 94.8074C132.715 94.3359 132.715 94.3359 133.887 94.3359C133.693 95.1093 133.5 95.8828 133.301 96.6796C133.501 96.6206 133.702 96.5615 133.909 96.5007C134.829 96.2303 135.749 95.9606 136.67 95.6909C136.985 95.598 137.301 95.5051 137.626 95.4094C139.302 94.9188 140.978 94.451 142.676 94.0429C142.482 93.5595 142.289 93.0761 142.09 92.5781ZM137.983 99.0874C136.344 99.5108 134.7 99.8965 133.047 100.262C119.043 103.399 105.262 109.431 92.7965 116.446C91.2688 117.298 89.7248 118.119 88.1834 118.945C84.9955 120.659 81.8118 122.381 78.6395 124.123C77.9822 124.483 77.3228 124.838 76.6627 125.193C73.7003 126.799 70.969 128.661 68.2615 130.664C68.0827 130.796 67.9039 130.928 67.7197 131.064C65.82 132.475 63.9973 133.949 62.2591 135.556C61.6492 136.115 61.0294 136.654 60.4017 137.193C59.1936 138.248 58.09 139.376 57.0006 140.552C56.809 140.758 56.6174 140.963 56.42 141.175C54.9243 142.794 53.5169 144.464 52.1483 146.191C51.88 146.515 51.611 146.837 51.3415 147.16C46.9556 152.446 43.5839 158.436 40.1365 164.355C39.9421 164.689 39.7476 165.023 39.5472 165.367C38.4298 167.288 37.3219 169.214 36.2198 171.144C35.8041 171.865 35.38 172.58 34.9501 173.292C31.8003 178.596 27.2812 187.078 27.5389 193.359C29.0593 193.235 29.9661 192.708 31.0911 191.73C31.3384 191.517 31.3384 191.517 31.5907 191.299C33.3928 189.681 34.7671 187.78 36.1584 185.81C39.3346 181.32 42.7021 177.124 46.4354 173.09C46.6076 172.903 46.7798 172.717 46.9572 172.525C47.6275 171.809 48.2579 171.155 49.0446 170.566C49.1987 170.45 49.3528 170.334 49.5115 170.215C49.5115 170.021 49.5115 169.828 49.5115 169.629C49.7529 169.529 49.7529 169.529 49.9991 169.427C50.8876 168.928 51.5245 168.286 52.2581 167.578C56.9694 163.169 62.264 160.565 68.2986 158.395C71.5253 157.227 74.4641 155.802 77.4294 154.084C80.6142 152.259 83.3149 150.904 87.0115 150.586C88.2261 144.308 88.8621 138.228 89.0623 131.836C92.8065 129.964 99.2375 130.852 103.326 130.865C103.83 130.866 103.83 130.866 104.345 130.867C111.39 130.889 118.036 131.617 124.928 133.039C125.306 133.115 125.684 133.191 126.073 133.269C126.408 133.338 126.743 133.408 127.088 133.48C129.047 133.718 130.259 133.114 131.849 132.035C132.048 131.904 132.246 131.773 132.45 131.638C133.102 131.207 133.751 130.771 134.399 130.334C134.854 130.032 135.309 129.729 135.764 129.427C136.953 128.636 138.138 127.841 139.323 127.044C140.029 126.569 140.736 126.095 141.443 125.621C142.783 124.722 144.121 123.821 145.459 122.919C145.769 122.71 145.769 122.71 146.084 122.497C148.258 121.029 150.414 119.548 152.516 117.979C153.555 117.245 154.655 116.633 155.76 116.004C156.895 115.337 157.998 114.629 159.1 113.91C165.267 109.891 171.528 106.047 177.894 102.351C178.168 102.191 178.443 102.031 178.725 101.867C179.343 101.51 179.963 101.157 180.584 100.808C181.068 100.534 181.068 100.534 181.56 100.255C181.856 100.089 182.151 99.9234 182.456 99.7527C182.67 99.6087 182.885 99.4647 183.105 99.3164C183.105 99.123 183.105 98.9296 183.105 98.7304C178.153 97.6267 173.195 96.7527 168.164 96.0937C167.765 96.041 167.765 96.041 167.358 95.9871C157.108 94.6748 147.859 96.5248 137.983 99.0874ZM188.672 101.66C186.25 105.959 184.262 110.457 182.247 114.956C181.737 116.094 181.223 117.231 180.708 118.366C178.499 123.241 176.338 128.132 174.298 133.081C174.163 133.406 174.163 133.406 174.026 133.738C173.776 134.344 173.528 134.951 173.281 135.558C173.14 135.901 173 136.244 172.856 136.598C172.525 137.351 172.525 137.351 172.558 137.988C172.862 138.1 173.165 138.211 173.478 138.326C180.797 141.015 188.075 143.799 195.329 146.659C195.641 146.782 195.953 146.905 196.274 147.031C196.586 147.154 196.898 147.277 197.219 147.404C201.405 149.053 205.602 150.672 209.799 152.291C210.364 152.51 210.93 152.728 211.495 152.947C211.759 153.049 212.024 153.151 212.297 153.257C213.994 153.915 215.674 154.601 217.341 155.334C217.994 155.617 217.994 155.617 218.847 155.566C218.94 151.677 219.017 147.787 219.077 143.897C219.113 141.72 219.175 139.546 219.256 137.37C219.305 135.968 219.339 134.565 219.369 133.162C219.388 132.49 219.412 131.819 219.445 131.148C219.761 127.323 219.761 127.323 218.332 123.927C217.563 123.149 216.731 122.508 215.818 121.907C215.062 121.401 214.379 120.812 213.684 120.227C213.295 119.914 213.295 119.914 212.898 119.595C211.773 118.668 210.704 117.684 209.632 116.698C209.012 116.131 208.387 115.576 207.751 115.027C206.879 114.27 206.03 113.491 205.186 112.703C201.394 109.167 197.423 106.191 192.938 103.583C192.623 103.396 192.309 103.21 191.984 103.018C191.532 102.754 191.532 102.754 191.072 102.485C190.8 102.326 190.529 102.168 190.249 102.004C189.549 101.595 189.549 101.595 188.672 101.66ZM68.2615 124.823C67.8142 125.69 67.9145 126.485 67.9686 127.441C69.4796 127.026 70.8396 126.365 72.0701 125.391C72.0701 125.197 72.0701 125.004 72.0701 124.805C70.8262 124.39 69.4567 124.188 68.2615 124.823ZM222.363 129.492C222.37 129.779 222.377 130.066 222.383 130.361C222.469 134.057 222.554 137.753 222.638 141.449C222.644 141.745 222.651 142.042 222.658 142.347C222.846 150.672 223.014 158.996 223.132 167.322C223.135 167.534 223.138 167.746 223.141 167.965C223.177 170.472 223.21 172.98 223.242 175.488C223.968 174.762 224.081 174.212 224.367 173.228C224.467 172.888 224.567 172.547 224.67 172.196C224.773 171.839 224.875 171.481 224.982 171.112C225.134 170.591 225.134 170.591 225.29 170.059C225.899 167.968 226.486 165.872 227.051 163.769C227.147 163.769 227.244 163.769 227.344 163.769C227.369 163.989 227.394 164.209 227.419 164.436C227.656 166.514 227.893 168.591 228.131 170.669C228.253 171.737 228.375 172.805 228.496 173.873C228.613 174.904 228.731 175.936 228.849 176.967C228.916 177.55 228.982 178.133 229.049 178.717C229.09 179.074 229.131 179.432 229.173 179.801C229.209 180.114 229.244 180.428 229.281 180.751C229.394 181.638 229.534 182.517 229.687 183.398C230.318 182.344 230.477 181.257 230.651 180.061C230.683 179.855 230.714 179.648 230.747 179.436C230.847 178.779 230.945 178.123 231.042 177.466C231.11 177.019 231.178 176.573 231.246 176.127C231.412 175.035 231.576 173.944 231.738 172.852C231.835 172.852 231.931 172.852 232.031 172.852C232.901 177.879 233.771 182.906 234.668 188.086C235.369 187.035 235.445 186.129 235.58 184.907C235.608 184.673 235.635 184.439 235.664 184.198C235.724 183.69 235.783 183.182 235.84 182.674C235.932 181.871 236.026 181.069 236.122 180.266C236.358 178.274 236.589 176.282 236.819 174.289C237.014 172.604 237.212 170.92 237.412 169.235C237.505 168.443 237.595 167.65 237.685 166.857C237.743 166.374 237.8 165.891 237.857 165.408C237.882 165.186 237.906 164.964 237.931 164.735C237.995 164.215 238.086 163.698 238.183 163.184C238.377 163.087 238.57 162.99 238.769 162.891C238.767 163.082 238.765 163.274 238.763 163.471C238.75 165.536 238.829 167.583 238.951 169.644C238.99 170.323 239.029 171.002 239.067 171.682C239.087 172.032 239.108 172.382 239.128 172.743C239.479 178.832 239.798 184.917 239.941 191.016C240.135 191.016 240.328 191.016 240.527 191.016C242.765 188.093 244.196 184.542 245.735 181.226C246.135 180.381 246.552 179.546 246.972 178.711C247.074 179.084 247.176 179.456 247.28 179.84C249.213 186.922 251.158 193.99 253.418 200.977C253.514 200.977 253.611 200.977 253.711 200.977C253.788 198.234 253.49 195.548 253.198 192.826C253.145 192.324 253.093 191.823 253.04 191.321C252.903 190.01 252.764 188.699 252.624 187.388C252.482 186.047 252.341 184.706 252.2 183.364C251.924 180.739 251.646 178.113 251.367 175.488C252.101 177.46 252.785 179.435 253.383 181.452C253.458 181.702 253.533 181.952 253.611 182.209C253.77 182.741 253.929 183.272 254.088 183.804C254.506 185.202 254.927 186.599 255.348 187.997C255.433 188.276 255.517 188.556 255.604 188.844C256.337 191.277 257.074 193.709 257.825 196.137C257.95 196.542 258.075 196.947 258.198 197.352C258.368 197.908 258.54 198.463 258.713 199.018C258.808 199.328 258.904 199.637 259.002 199.956C259.234 200.721 259.234 200.721 259.863 201.269C259.747 196.816 259.434 192.401 258.989 187.97C258.951 187.587 258.913 187.204 258.873 186.81C258.838 186.47 258.803 186.129 258.767 185.779C258.701 184.979 258.676 184.2 258.691 183.398C260.321 185.309 261.615 187.216 262.738 189.459C262.884 189.745 263.03 190.031 263.181 190.326C264.771 193.456 266.282 196.626 267.773 199.805C267.87 199.805 267.967 199.805 268.066 199.805C268.099 197.51 268.063 195.23 267.938 192.938C267.927 192.72 267.915 192.502 267.903 192.277C267.827 190.964 267.684 189.679 267.48 188.379C267.674 188.476 267.867 188.572 268.066 188.672C268.275 189.339 268.448 189.989 268.605 190.669C268.654 190.871 268.703 191.073 268.754 191.281C268.912 191.931 269.066 192.581 269.22 193.231C270.06 196.87 270.06 196.87 271.289 200.391C271.482 200.294 271.676 200.197 271.875 200.098C271.905 198.221 271.925 196.345 271.939 194.469C271.945 193.831 271.953 193.193 271.963 192.556C271.978 191.636 271.984 190.717 271.989 189.798C271.998 189.374 271.998 189.374 272.008 188.941C272.008 187.099 271.689 185.835 270.703 184.277C270.56 184.051 270.417 183.824 270.27 183.591C270.139 183.41 270.007 183.228 269.871 183.041C269.649 182.731 269.649 182.731 269.422 182.415C269.271 182.208 269.119 182.001 268.963 181.787C265.943 177.616 265.943 177.616 265.43 176.074C268.185 176.799 268.185 176.799 270.996 177.539C270.47 176.206 270.47 176.206 269.71 175.106C269.575 174.936 269.441 174.766 269.302 174.591C269.16 174.416 269.018 174.241 268.872 174.06C268.726 173.878 268.58 173.696 268.43 173.508C268.018 172.994 267.603 172.483 267.187 171.973C267.016 171.758 266.844 171.543 266.667 171.321C265.79 170.255 264.823 169.362 263.775 168.465C260.819 165.917 258.065 163.17 255.325 160.393C254.243 159.3 253.167 158.218 251.995 157.22C250.101 155.597 248.386 153.773 246.634 151.999C244.999 150.346 243.369 148.706 241.598 147.197C240.912 146.603 240.281 145.962 239.648 145.312C238.61 144.262 237.546 143.277 236.424 142.318C235.551 141.54 234.74 140.704 233.926 139.865C233.33 139.284 232.725 138.741 232.095 138.199C230.631 136.929 229.286 135.551 227.93 134.168C226.775 133 225.593 131.89 224.344 130.823C223.828 130.371 223.828 130.371 223.358 129.873C222.971 129.426 222.971 129.426 222.363 129.492ZM127.423 136.414C126.312 137.292 125.216 138.119 123.999 138.849C122.641 139.726 121.759 140.886 120.775 142.153C120.161 142.914 119.523 143.576 118.817 144.25C114.813 148.191 113.043 152.494 111.433 157.8C111.352 158.067 111.27 158.334 111.186 158.609C111.079 158.968 111.079 158.968 110.969 159.335C110.742 159.961 110.742 159.961 110.156 160.84C110.049 161.491 110.049 161.491 110.035 162.207C110.023 162.469 110.012 162.73 110 163C109.987 163.408 109.987 163.408 109.973 163.824C109.962 164.1 109.95 164.375 109.939 164.659C109.911 165.339 109.886 166.019 109.863 166.699C108.986 165.855 108.232 164.966 107.483 164.008C104.601 160.49 101.187 158.113 96.9725 156.445C97.1761 160.577 97.5431 164.689 97.9246 168.807C97.9893 169.512 98.0538 170.217 98.1183 170.922C98.2871 172.765 98.4567 174.608 98.6266 176.451C98.8986 179.401 99.1697 182.352 99.4399 185.302C99.5337 186.325 99.6282 187.347 99.7228 188.369C100.019 191.593 100.3 194.814 100.488 198.047C101.127 198.332 101.765 198.616 102.405 198.898C102.847 199.095 103.288 199.296 103.726 199.503C104.85 200.049 104.85 200.049 106.055 199.805C105.184 198.644 104.314 197.484 103.418 196.289C105.395 197.003 105.395 197.003 106.012 197.227C106.897 197.545 107.772 197.845 108.691 198.047C108.286 196.797 107.718 196.106 106.769 195.209C105.493 193.994 105.493 193.994 105.176 193.359C106.239 193.553 107.303 193.746 108.398 193.945C108.237 192.237 107.74 190.845 107.062 189.276C106.965 189.048 106.869 188.819 106.769 188.584C106.533 188.027 106.294 187.47 106.055 186.914C107.058 187.248 107.221 187.486 107.832 188.315C107.998 188.537 108.164 188.76 108.336 188.989C108.508 189.223 108.679 189.456 108.856 189.697C109.197 190.159 109.539 190.62 109.883 191.08C110.033 191.285 110.184 191.49 110.34 191.702C110.718 192.225 110.718 192.225 111.328 192.48C111.328 189.483 111.328 186.486 111.328 183.398C111.521 183.398 111.715 183.398 111.914 183.398C111.986 183.592 112.059 183.785 112.134 183.984C112.593 185.087 113.128 186.144 113.672 187.207C113.768 187.207 113.865 187.207 113.965 187.207C113.985 187.008 114.006 186.809 114.027 186.604C114.244 184.522 114.463 182.44 114.684 180.358C114.765 179.583 114.847 178.807 114.927 178.031C115.044 176.913 115.162 175.794 115.281 174.676C115.316 174.332 115.352 173.988 115.388 173.634C115.597 171.687 115.882 169.783 116.308 167.871C116.611 169.659 116.91 171.447 117.206 173.236C117.251 173.511 117.297 173.786 117.343 174.069C118.247 179.559 119.012 185.064 119.733 190.58C119.774 190.89 119.815 191.199 119.858 191.518C119.934 192.097 120.01 192.676 120.083 193.255C120.324 195.693 120.324 195.693 121.554 197.711C121.778 197.861 122.001 198.011 122.232 198.165C122.606 198.42 122.606 198.42 122.987 198.68C123.379 198.938 123.379 198.938 123.779 199.2C124.289 199.545 124.798 199.889 125.308 200.234C125.688 200.486 125.688 200.486 126.075 200.744C127.137 201.459 128.181 202.201 129.224 202.944C129.713 203.347 129.713 203.347 130.078 203.32C129.927 200.581 129.769 197.847 129.492 195.117C129.658 195.265 129.824 195.413 129.994 195.566C130.209 195.756 130.424 195.946 130.646 196.143C130.86 196.333 131.074 196.523 131.294 196.719C131.756 197.199 131.756 197.199 132.129 197.168C132.129 196.201 132.129 195.234 132.129 194.238C132.322 194.238 132.515 194.238 132.715 194.238C132.799 194.462 132.884 194.685 132.971 194.916C133.29 195.747 133.29 195.747 133.887 196.582C134.08 196.485 134.273 196.389 134.472 196.289C134.382 195.386 134.29 194.482 134.198 193.579C134.172 193.323 134.147 193.068 134.121 192.804C134.095 192.557 134.07 192.31 134.043 192.055C134.02 191.828 133.997 191.601 133.974 191.367C133.889 190.744 133.758 190.156 133.594 189.551C134.772 190.625 135.602 191.78 136.455 193.127C136.634 193.387 136.634 193.387 136.816 193.652C136.913 193.652 137.01 193.652 137.109 193.652C137.255 191.295 136.712 189.06 136.23 186.768C136.145 186.355 136.061 185.942 135.976 185.529C135.771 184.525 135.561 183.523 135.351 182.519C136.222 183.97 137.092 185.42 137.988 186.914C138.472 185.946 138.087 184.939 137.897 183.911C137.858 183.691 137.82 183.471 137.78 183.244C137.553 181.983 137.257 180.797 136.816 179.59C138.105 180.799 139.027 182.097 139.975 183.581C140.268 184.023 140.591 184.445 140.918 184.863C141.208 184.863 141.498 184.863 141.797 184.863C141.16 182.163 140.482 179.537 139.453 176.953C140.566 178.036 141.586 179.169 142.584 180.359C142.726 180.527 142.868 180.694 143.015 180.867C143.628 181.594 144.198 182.313 144.726 183.105C144.92 183.105 145.113 183.105 145.312 183.105C144.774 177.33 142.399 172.228 140.039 166.992C141.165 168.09 142.205 169.237 143.225 170.435C143.378 170.614 143.531 170.793 143.689 170.978C144.858 172.352 145.986 173.753 147.07 175.195C147.452 174.131 147.269 173.483 146.917 172.425C146.812 172.105 146.708 171.786 146.6 171.456C146.426 170.941 146.426 170.941 146.248 170.415C146.132 170.061 146.015 169.707 145.895 169.343C145.584 168.403 145.27 167.463 144.956 166.525C144.636 165.57 144.32 164.614 144.004 163.658C143.369 161.741 142.73 159.825 142.09 157.91C141.993 157.62 141.896 157.33 141.797 157.031C141.94 157.124 142.083 157.217 142.231 157.313C142.885 157.738 143.54 158.163 144.195 158.588C144.421 158.734 144.646 158.88 144.878 159.031C145.315 159.314 145.753 159.597 146.192 159.878C146.674 160.188 147.155 160.501 147.634 160.816C147.835 160.92 148.035 161.025 148.242 161.133C148.435 161.036 148.629 160.939 148.828 160.84C147.571 158.906 146.314 156.973 145.019 154.98C146.464 155.462 147.332 155.879 148.535 156.738C148.728 156.642 148.922 156.545 149.121 156.445C148.461 155.369 147.8 154.295 147.137 153.221C146.77 152.626 146.406 152.029 146.041 151.433C143.559 147.391 140.969 144.065 137.151 141.191C135.946 140.281 134.78 139.334 133.63 138.354C133.471 138.219 133.312 138.084 133.148 137.944C132.482 137.375 131.819 136.802 131.162 136.222C129.442 134.709 129.095 135.078 127.423 136.414ZM253.711 200.977C254.004 201.562 254.004 201.562 254.004 201.562L253.711 200.977Z" fill="black"/>
<path d="M81.5369 129.401C82.8606 130.133 83.3179 131.009 83.7891 132.423C84.084 135.367 84.2342 138.488 82.3243 140.919C81.5553 141.688 81.5553 141.688 80.8595 142.091C80.5694 142.091 80.2794 142.091 79.9805 142.091C80.0389 141.83 80.0389 141.83 80.0984 141.565C80.1502 141.334 80.2019 141.102 80.2552 140.864C80.3062 140.636 80.3572 140.408 80.4097 140.174C80.4614 139.936 80.5132 139.699 80.5665 139.454C80.6175 139.227 80.6685 138.999 80.721 138.765C80.8555 138.011 80.893 137.329 80.8881 136.564C80.8871 136.305 80.8862 136.045 80.8852 135.777C80.8828 135.51 80.8803 135.243 80.8778 134.968C80.8764 134.695 80.8751 134.422 80.8738 134.141C80.8703 133.47 80.8655 132.8 80.8595 132.13C78.3894 132.306 76.8342 132.884 75.0813 134.704C73.8597 136.223 73.1069 137.957 72.3634 139.747C71.2281 139.234 71.2281 139.234 70.8985 138.575C70.645 136.209 71.4609 134.564 72.8246 132.656C74.9913 130.009 78.0965 127.827 81.5369 129.401Z" fill="black"/>
<path d="M62.1094 151.465C62.918 152.324 62.9883 152.794 62.9883 153.973C62.6953 154.98 62.6953 154.98 62.0911 155.695C60.7681 156.398 59.6526 156.354 58.1909 155.969C57.4424 155.336 57.2969 154.761 57.1289 153.809C57.5855 152.718 58.1834 152.087 59.1797 151.465C60.2993 151.092 60.9687 151.18 62.1094 151.465Z" fill="black"/>
</svg>
