<svg width="300" height="300" viewBox="0 0 300 300" fill="none" xmlns="http://www.w3.org/2000/svg">
<path d="M140.332 89.9414C149.167 92.3219 157.229 96.0362 163.769 102.539C163.976 102.744 163.976 102.744 164.187 102.953C168.461 107.252 171.419 112.49 173.415 118.19C173.906 119.583 174.518 120.859 175.195 122.168C175.964 122.132 176.733 122.095 177.502 122.058C177.751 122.046 178 122.034 178.256 122.022C179.9 121.941 181.542 121.844 183.184 121.732C189.313 121.32 195.416 121.193 201.558 121.214C202.309 121.216 203.059 121.217 203.81 121.218C211.276 121.231 218.722 121.335 226.172 121.875C226.627 121.907 227.083 121.938 227.538 121.97C232.332 122.308 237.111 122.764 241.882 123.34C242.264 123.385 242.646 123.43 243.04 123.476C248.372 124.153 248.372 124.153 249.316 125.098C249.461 126.745 249.097 127.867 248.328 129.291C248.222 129.492 248.117 129.693 248.008 129.901C247.668 130.548 247.32 131.192 246.973 131.836C246.748 132.263 246.523 132.69 246.299 133.118C243.826 137.752 240.818 142.048 237.598 146.191C237.413 146.429 237.229 146.666 237.039 146.911C233.147 151.848 228.958 156.806 224.121 160.84C223.977 160.963 223.833 161.086 223.685 161.212C212.762 170.508 212.762 170.508 209.473 170.508C209.849 172.057 210.435 173.285 211.267 174.646C216.053 182.846 219.633 195.245 218.848 204.785C218.751 204.979 218.654 205.172 218.555 205.371C216.972 205.246 216.012 204.618 214.783 203.687C196.266 189.123 196.266 189.123 175.479 181.288C175.185 181.282 174.891 181.276 174.589 181.27C174.112 181.262 174.112 181.262 173.625 181.255C173.292 181.249 172.959 181.243 172.617 181.237C171.908 181.224 171.2 181.212 170.492 181.2C169.433 181.183 168.375 181.164 167.317 181.145C165.593 181.114 163.869 181.089 162.145 181.068C161.143 181.055 160.141 181.035 159.14 181.016C158.515 181.008 157.89 181 157.265 180.992C156.843 180.981 156.843 180.981 156.412 180.971C154.088 180.952 152.108 181.439 150.121 182.675C149.894 182.814 149.667 182.954 149.433 183.097C149.197 183.245 148.961 183.393 148.718 183.545C148.2 183.863 147.681 184.18 147.162 184.497C146.771 184.737 146.771 184.737 146.373 184.981C144.286 186.253 142.164 187.466 140.039 188.672C139.803 188.806 139.567 188.94 139.324 189.079C132.272 193.069 124.93 196.474 117.517 199.731C117.132 199.901 117.132 199.901 116.738 200.074C108.921 203.508 108.921 203.508 107.519 203.027C107.602 199.302 111.31 195.762 113.43 192.908C117.798 187.016 122.268 180.984 125.391 174.316C124.228 173.542 123.164 173.446 121.802 173.236C121.557 173.194 121.313 173.153 121.061 173.11C117.939 172.617 116.083 173.475 113.397 175.031C113.074 175.215 112.75 175.398 112.417 175.588C110.338 176.778 108.285 178.005 106.281 179.316C105.44 179.861 104.712 180.318 103.711 180.469C102.814 179.467 102.547 178.42 102.264 177.14C102.216 176.932 102.167 176.724 102.117 176.509C101.962 175.846 101.811 175.182 101.66 174.518C101.509 173.857 101.357 173.196 101.203 172.536C101.108 172.126 101.014 171.716 100.923 171.305C100.36 168.749 100.36 168.749 98.6205 166.956C98.1724 166.764 97.7201 166.582 97.2656 166.406C96.9559 166.279 96.6462 166.152 96.3271 166.021C94.7817 165.401 93.3554 164.875 91.6991 164.648C91.4063 165.148 91.4063 165.148 91.1075 165.658C89.347 168.623 87.4925 171.399 85.2538 174.023C85.1176 174.185 84.9815 174.346 84.8411 174.512C77.9054 182.628 67.9919 187.216 58.0077 190.43C57.733 190.518 57.4582 190.607 57.175 190.699C56.7896 190.819 56.7896 190.819 56.3964 190.942C56.1698 191.013 55.9432 191.084 55.7098 191.158C55.0781 191.309 55.0781 191.309 53.9062 191.309C53.6764 190.646 53.5709 190.266 53.7917 189.59C54.59 188.185 55.5112 186.925 56.5246 185.669C64.7114 175.507 70.1056 163.609 68.7114 150.328C68.0332 144.827 66.295 139.729 63.8671 134.766C63.771 134.568 63.6749 134.37 63.5759 134.166C62.0845 131.136 60.3212 128.292 58.5169 125.44C56.6904 122.546 54.966 119.602 53.3202 116.602C53.2052 116.392 53.0903 116.183 52.9718 115.967C52.6674 115.406 52.3695 114.842 52.0751 114.276C51.9165 113.971 51.7579 113.667 51.5945 113.353C51.2379 112.417 51.1828 111.735 51.2695 110.742C51.5624 110.449 51.5624 110.449 52.4287 110.377C53.8527 110.401 55.116 110.848 56.4513 111.31C56.854 111.447 56.854 111.447 57.2648 111.588C63.6282 113.816 69.6422 116.897 74.9999 120.996C75.2722 121.203 75.5445 121.409 75.8251 121.622C79.8628 124.802 83.1655 128.537 86.1327 132.715C86.253 132.884 86.3733 133.053 86.4972 133.227C92.2851 141.484 92.2851 141.484 92.2851 144.141C94.2281 143.58 96.1586 142.982 98.0529 142.273C98.338 142.168 98.6232 142.063 98.9169 141.955C99.8663 141.337 99.914 140.834 100.195 139.746C100.258 138.978 100.297 138.238 100.306 137.47C100.311 137.258 100.316 137.047 100.321 136.829C100.337 136.16 100.349 135.49 100.36 134.821C100.373 134.146 100.387 133.471 100.402 132.796C100.411 132.378 100.419 131.959 100.425 131.54C100.455 130.111 100.455 130.111 100.781 129.785C102.444 129.703 103.914 129.882 105.524 130.316C105.753 130.377 105.983 130.438 106.22 130.5C109.681 131.467 113.024 132.848 116.363 134.167C118.763 135.057 120.606 134.786 122.955 133.923C125.965 132.866 129.018 132.002 132.092 131.158C132.325 131.095 132.558 131.031 132.798 130.965C133.674 130.724 134.55 130.484 135.426 130.246C136.674 129.906 137.918 129.557 139.16 129.199C139.429 128.284 139.487 127.471 139.482 126.519C139.481 126.062 139.481 126.062 139.48 125.596C139.477 125.263 139.475 124.93 139.472 124.587C139.471 124.236 139.47 123.884 139.468 123.522C139.464 122.558 139.459 121.594 139.454 120.631C139.449 119.621 139.446 118.612 139.443 117.602C139.433 114.164 139.421 110.726 139.403 107.289C139.393 105.389 139.386 103.49 139.382 101.59C139.38 100.586 139.377 99.5815 139.369 98.5771C139.361 97.4563 139.359 96.3357 139.358 95.215C139.354 94.8835 139.351 94.5519 139.347 94.2103C139.351 92.5414 139.404 91.3523 140.332 89.9414ZM144.141 96.0938C143.536 97.001 143.484 97.1498 143.515 98.1661C143.521 98.4088 143.527 98.6515 143.533 98.9015C143.542 99.1672 143.552 99.4329 143.561 99.7066C143.569 99.9879 143.576 100.269 143.584 100.559C143.6 101.172 143.617 101.785 143.636 102.398C143.685 104.046 143.724 105.694 143.763 107.342C143.771 107.687 143.779 108.032 143.787 108.388C143.89 113.093 143.862 117.8 143.837 122.506C143.835 122.833 143.834 123.16 143.833 123.496C143.831 124.11 143.827 124.724 143.822 125.337C143.821 125.607 143.82 125.877 143.819 126.155C143.817 126.391 143.816 126.626 143.814 126.869C143.811 127.465 143.811 127.465 144.141 128.027C144.399 127.967 144.657 127.906 144.923 127.843C148.079 127.115 151.253 126.473 154.431 125.848C154.768 125.782 154.768 125.782 155.112 125.714C157.633 125.221 160.156 124.76 162.697 124.378C162.914 124.345 163.132 124.312 163.356 124.279C164.39 124.124 165.425 123.975 166.461 123.834C166.827 123.781 167.193 123.728 167.57 123.674C167.891 123.63 168.212 123.587 168.543 123.542C169.386 123.327 169.707 123.156 170.215 122.461C170.934 118.999 169.159 115.848 167.34 113.031C161.736 105.024 153.906 99.397 144.726 96.0938C144.533 96.0938 144.34 96.0938 144.141 96.0938ZM59.1796 117.773C59.6256 119.067 60.3277 120.12 61.1022 121.234C67.9753 131.366 72.5198 143.283 72.4548 155.621C72.4542 155.833 72.4537 156.044 72.4531 156.262C72.439 159.606 72.2753 162.852 71.4843 166.113C71.434 166.321 71.3838 166.529 71.332 166.743C69.7899 172.87 67.1263 178.388 63.2812 183.398C63.4745 183.592 63.6679 183.785 63.8671 183.984C74.4411 179.026 83.2564 171.777 88.8825 161.449C89.0084 161.222 89.1342 160.994 89.2638 160.76C89.3737 160.556 89.4836 160.352 89.5969 160.142C89.9413 159.668 89.9413 159.668 90.8202 159.375C91.5131 159.542 91.5131 159.542 92.344 159.833C92.6573 159.941 92.9706 160.049 93.2933 160.16C93.6343 160.281 93.9754 160.401 94.3267 160.525C94.87 160.713 95.4133 160.901 95.9567 161.088C96.5341 161.288 97.1111 161.489 97.6879 161.69C99.6701 162.38 101.656 163.058 103.643 163.734C103.839 163.801 104.035 163.867 104.237 163.936C108.705 165.454 113.2 166.814 117.764 168.008C118.4 168.175 119.035 168.343 119.67 168.512C120.983 168.86 122.299 169.2 123.614 169.537C123.817 169.59 124.02 169.643 124.228 169.697C124.795 169.843 125.362 169.985 125.93 170.127C126.251 170.208 126.572 170.289 126.903 170.372C127.724 170.506 128.16 170.574 128.906 170.215C129.313 169.661 129.313 169.661 129.61 168.954C129.731 168.693 129.852 168.433 129.977 168.164C130.101 167.886 130.225 167.608 130.353 167.322C130.481 167.042 130.61 166.763 130.742 166.475C131.111 165.673 131.474 164.868 131.836 164.062C132.007 163.687 132.179 163.312 132.352 162.938C132.672 162.24 132.989 161.541 133.301 160.84C135.242 160.803 135.242 160.803 136.23 161.133C136.874 162.42 136.591 163.834 136.198 165.154C136.044 165.537 135.883 165.918 135.718 166.296C135.582 166.614 135.582 166.614 135.444 166.938C133.056 172.361 129.865 177.326 126.562 182.227C126.415 182.448 126.267 182.669 126.115 182.897C124.183 185.791 122.114 188.562 119.981 191.31C119.236 192.279 118.504 193.258 117.773 194.238C117.87 194.432 117.967 194.625 118.066 194.824C125.189 191.775 132.019 188.423 138.673 184.448C139.36 184.04 140.051 183.637 140.744 183.238C153.077 176.623 153.077 176.623 162.744 166.864C163.036 165.369 162.74 163.941 162.298 162.5C161.629 159.988 161.634 157.095 162.789 154.728C165.197 150.909 170.66 150.032 174.756 149.066C181.684 147.501 188.61 146.71 195.703 146.704C196.089 146.704 196.089 146.704 196.483 146.703C218.497 146.72 218.497 146.72 225 153.223C226.918 153.154 227.68 152.162 228.937 150.838C229.858 149.809 230.742 148.76 231.603 147.68C232.126 147.026 232.654 146.379 233.192 145.737C235.727 142.694 238.007 139.505 240.234 136.23C240.383 136.013 240.532 135.795 240.685 135.571C241.092 134.974 241.497 134.376 241.901 133.777C242.075 133.519 242.075 133.519 242.254 133.255C243.626 131.24 243.626 131.24 244.043 128.906C242.184 128.462 240.364 128.166 238.464 127.974C238.186 127.944 237.908 127.915 237.622 127.885C236.717 127.79 235.811 127.698 234.906 127.606C234.593 127.574 234.28 127.542 233.958 127.509C225.693 126.666 217.443 125.998 209.143 125.629C208.864 125.616 208.585 125.603 208.298 125.591C202.84 125.349 197.405 125.293 191.949 125.61C191.729 125.623 191.508 125.635 191.28 125.648C169.753 126.897 148.656 130.923 128.027 137.109C127.792 137.18 127.557 137.25 127.315 137.323C120.423 139.394 113.639 141.751 106.851 144.138C106.293 144.334 105.734 144.53 105.176 144.727C104.883 144.829 104.59 144.932 104.288 145.038C102.493 145.669 100.696 146.296 98.8972 146.917C98.3257 147.116 97.7547 147.315 97.1841 147.516C96.3922 147.795 95.5989 148.07 94.8051 148.343C94.4535 148.468 94.4535 148.468 94.0948 148.596C91.9963 149.309 91.9963 149.309 90.8202 148.828C90.3846 148.143 90.0635 147.531 89.7399 146.796C89.536 146.364 89.3311 145.933 89.1254 145.502C89.0192 145.278 88.913 145.053 88.8036 144.821C83.1899 133.142 73.9378 124.3 62.2924 118.762C62.0816 118.662 61.8707 118.561 61.6535 118.458C60.7796 118.054 60.1534 117.773 59.1796 117.773ZM104.883 135.059C104.337 136.694 104.549 138.373 104.883 140.039C107.496 139.868 110.098 139.422 111.914 137.402C108.527 135.724 108.527 135.724 104.883 135.059ZM178.143 152.582C177.84 152.657 177.537 152.732 177.224 152.81C171.262 154.197 171.262 154.197 166.846 158.093C165.909 160.288 166.298 162.608 166.864 164.85C167.254 166.409 167.518 167.781 166.992 169.336C166.406 170.087 166.406 170.087 165.527 170.801C165.136 171.161 164.746 171.521 164.355 171.881C163.061 173.031 161.698 174.076 160.302 175.1C159.885 175.411 159.482 175.741 159.082 176.074C159.082 176.268 159.082 176.461 159.082 176.66C168.209 177.003 177.382 175.756 186.328 174.023C186.645 173.962 186.961 173.901 187.287 173.839C199.465 171.422 215.262 166.523 223.242 156.445C222.682 154.958 221.585 154.607 220.212 153.96C213.075 151.001 205.407 150.821 197.794 150.809C196.758 150.806 195.723 150.797 194.687 150.787C189.079 150.761 183.595 151.197 178.143 152.582ZM105.469 169.336C105.046 170.181 105.148 170.923 105.157 171.863C105.16 172.211 105.163 172.559 105.165 172.918C105.169 173.186 105.172 173.454 105.176 173.73C107.118 173.646 108.628 172.872 110.156 171.68C110.537 171.07 110.537 171.07 110.742 170.508C109 169.617 107.411 169.438 105.469 169.336ZM201.672 173.254C196.656 175.943 190.559 177.873 184.895 178.555C184.595 178.607 184.294 178.658 183.984 178.711C183.888 178.904 183.791 179.098 183.691 179.297C183.958 179.44 183.958 179.44 184.23 179.586C192.51 184.038 200.588 188.654 208.388 193.903C210.824 195.843 210.824 195.843 213.574 196.875C213.412 189.629 210.175 177.948 205.078 172.559C203.718 171.976 202.858 172.572 201.672 173.254Z" fill="black"/>
<path d="M191.73 132.183C192.85 132.976 193.511 133.754 193.946 135.058C194.276 139.676 194.276 139.676 192.774 141.503C191.575 142.702 190.312 143.245 188.602 143.272C187.068 143.166 186.055 142.822 184.864 141.796C183.404 139.903 183.206 138.274 183.399 135.937C183.672 134.676 184.051 133.826 184.955 132.897C187.041 131.637 189.418 131.385 191.73 132.183Z" fill="black"/>
</svg>
