<svg width="300" height="300" viewBox="0 0 300 300" fill="none" xmlns="http://www.w3.org/2000/svg">
<path d="M140.918 68.5543C140.918 68.8443 140.918 69.1344 140.918 69.4332C140.685 69.483 140.451 69.5329 140.211 69.5842C137.467 70.2118 135.709 70.9901 134.165 73.4363C133.078 74.9642 131.702 75.4831 130.001 76.1162C125.828 77.6705 122.295 80.6166 119.531 84.0816C119.346 84.2999 119.161 84.5182 118.97 84.7431C114.738 89.8257 113.038 94.6521 113.013 101.22C113.007 101.597 113.001 101.974 112.994 102.362C112.975 107.222 113.866 112.066 117.351 115.649C120.627 118.668 124.551 119.818 128.778 120.961C129.52 121.166 130.262 121.371 131.004 121.576C131.964 121.839 132.924 122.101 133.884 122.363C135.204 122.724 136.523 123.087 137.842 123.452C138.188 123.545 138.533 123.638 138.89 123.735C139.212 123.824 139.533 123.913 139.865 124.004C140.288 124.12 140.288 124.12 140.719 124.238C141.91 124.653 142.762 125.05 143.425 126.141C143.552 126.439 143.678 126.737 143.809 127.044C144.024 127.545 144.024 127.545 144.244 128.057C144.393 128.419 144.542 128.781 144.69 129.144C144.845 129.516 145.001 129.888 145.156 130.259C151.383 145.309 149.513 157.144 144.68 172.21C143.458 176.019 142.297 179.84 141.211 183.691C141.44 183.703 141.669 183.716 141.905 183.729C144.986 183.92 148.025 184.306 151.08 184.735C151.486 184.791 151.486 184.791 151.899 184.849C168.602 187.197 185.201 190.907 200.684 197.753C200.472 199.139 199.977 200.373 199.465 201.669C199.329 202.017 199.329 202.017 199.19 202.372C198.902 203.109 198.612 203.846 198.322 204.583C198.125 205.085 197.929 205.586 197.733 206.088C197.253 207.314 196.771 208.54 196.289 209.765C193.961 209.126 191.75 208.27 189.514 207.367C175.355 201.726 160.558 198.8 145.5 196.768C143.678 196.521 141.859 196.257 140.039 195.996C140.086 196.282 140.133 196.567 140.182 196.862C140.627 199.568 141.071 202.274 141.514 204.981C141.741 206.372 141.969 207.763 142.198 209.154C142.42 210.499 142.64 211.844 142.859 213.189C142.943 213.7 143.027 214.21 143.111 214.721C144.376 222.369 144.376 222.369 143.77 223.863C143.578 224.087 143.386 224.311 143.188 224.542C142.974 224.802 142.759 225.062 142.538 225.33C142.294 225.608 142.049 225.885 141.797 226.171C141.518 226.503 141.241 226.835 140.964 227.168C140.418 227.822 139.868 228.472 139.311 229.117C138.578 229.938 138.578 229.938 138.072 230.753C137.161 231.694 136.621 231.64 135.326 231.662C135.119 231.668 134.912 231.673 134.699 231.679C134.015 231.694 133.332 231.698 132.648 231.701C132.171 231.707 131.694 231.712 131.216 231.718C130.215 231.728 129.214 231.732 128.212 231.732C126.935 231.734 125.659 231.757 124.383 231.785C123.396 231.804 122.409 231.808 121.422 231.808C120.952 231.81 120.482 231.817 120.012 231.83C116.351 231.923 116.351 231.923 114.802 230.745C114.064 229.937 113.427 229.113 112.793 228.222C112.426 227.82 112.054 227.423 111.674 227.034C109.557 224.663 108.564 222.799 108.732 219.588C108.801 218.753 108.892 217.922 108.984 217.089C109.035 216.492 109.085 215.894 109.133 215.296C109.682 209.126 110.693 202.996 111.621 196.875C103.239 199.1 95.0651 201.475 87.2842 205.388C86.6205 205.712 85.946 205.992 85.2539 206.25C85.1221 205.986 84.9903 205.722 84.8545 205.451C84.7652 205.272 84.6759 205.094 84.5839 204.91C84.3806 204.503 84.1774 204.096 83.9744 203.689C83.3357 202.41 82.6933 201.133 82.0473 199.857C81.902 199.569 81.7567 199.281 81.607 198.984C81.3191 198.414 81.0303 197.844 80.7406 197.274C80.6079 197.011 80.4753 196.748 80.3387 196.476C80.1608 196.125 80.1608 196.125 79.9794 195.767C79.7069 195.16 79.5317 194.594 79.3945 193.945C98.2077 184.877 98.2077 184.877 107.227 185.156C105.551 180.817 103.36 176.713 101.111 172.65C98.4147 167.747 96.0165 162.754 94.0247 157.525C93.8255 157.004 93.8255 157.004 93.6223 156.473C90.1223 147.066 91.5411 138.537 94.2078 129.144C95.365 125.064 96.3358 121.133 96.6797 116.894C96.8114 115.344 96.9451 113.793 97.0825 112.243C97.1003 112.042 97.1181 111.84 97.1364 111.633C97.83 103.912 99.7042 96.7628 103.418 89.941C103.514 89.7621 103.609 89.5832 103.708 89.3988C107.891 81.5937 115.435 72.2013 124.292 69.4698C124.851 69.3458 125.413 69.2371 125.977 69.1402C126.317 69.0809 126.658 69.0216 127.009 68.9605C131.595 68.2772 136.295 68.5008 140.918 68.5543ZM112.207 184.277C111.851 184.323 111.494 184.369 111.127 184.417C110.782 184.465 110.438 184.513 110.083 184.563C109.773 184.606 109.464 184.65 109.145 184.694C108.354 184.803 108.354 184.803 107.812 185.449C107.94 185.786 108.068 186.123 108.199 186.471C109.452 189.809 110.579 193.172 111.621 196.582C111.798 196.557 111.975 196.531 112.157 196.506C112.979 196.39 113.802 196.275 114.624 196.16C114.902 196.121 115.18 196.082 115.466 196.041C119.466 195.487 123.392 195.362 127.423 195.373C127.689 195.373 127.954 195.374 128.228 195.374C132.074 195.378 135.908 195.436 139.746 195.703C140.119 194.956 140.125 194.351 140.186 193.517C140.21 193.191 140.234 192.865 140.259 192.529C140.283 192.187 140.307 191.844 140.332 191.491C140.381 190.824 140.43 190.156 140.479 189.489C140.514 188.996 140.514 188.996 140.551 188.494C140.663 186.99 140.789 185.487 140.918 183.984C131.309 183.17 121.785 183.033 112.207 184.277Z" fill="black"/>
<path d="M144.24 68.2124C144.525 68.2112 144.81 68.21 145.104 68.2087C146.046 68.2057 146.989 68.2058 147.931 68.2067C148.253 68.2069 148.575 68.2071 148.907 68.2073C170.323 68.2391 197.347 69.695 213.574 85.5468C213.802 85.7564 214.03 85.966 214.265 86.1819C217.231 88.9809 221.77 94.1497 222.141 98.3575C222.14 98.6457 222.138 98.9339 222.137 99.2309C222.137 99.5592 222.137 99.8876 222.137 100.226C222.134 100.577 222.131 100.928 222.128 101.29C222.127 101.834 222.127 101.834 222.125 102.388C222.123 103.347 222.117 104.305 222.111 105.264C222.105 106.244 222.102 107.224 222.099 108.204C222.093 110.125 222.083 112.045 222.071 113.965C221.261 113.164 220.463 112.364 219.722 111.499C219.569 111.32 219.415 111.141 219.257 110.957C219.098 110.772 218.939 110.586 218.775 110.394C218.435 110.002 218.095 109.609 217.755 109.217C217.194 108.568 216.638 107.916 216.086 107.26C204.96 94.3021 179.999 92.4615 164.026 91.2231C158.575 90.8121 153.116 90.513 147.656 90.2343C147.656 92.2646 147.656 94.2948 147.656 96.3866C148.153 96.3976 148.65 96.4085 149.161 96.4198C165.963 96.842 182.374 98.0898 198.725 102.118C198.939 102.17 199.152 102.222 199.373 102.276C205.437 103.762 209.652 105.481 213.574 110.449C212.361 110.854 211.683 110.347 210.59 109.827C202.636 106.24 193.781 105.478 185.156 104.883C184.955 104.869 184.753 104.854 184.546 104.84C180.002 104.534 175.453 104.535 170.901 104.535C170.049 104.536 169.196 104.534 168.343 104.529C159.39 104.487 150.45 104.833 141.504 105.176C141.459 100.406 141.416 95.6363 141.374 90.8665C141.355 88.652 141.335 86.4374 141.314 84.2229C141.296 82.2935 141.279 80.364 141.262 78.4345C141.254 77.4122 141.245 76.3899 141.234 75.3677C141.223 74.2283 141.214 73.089 141.205 71.9496C141.201 71.6082 141.197 71.2668 141.193 70.9151C141.191 70.6065 141.189 70.298 141.187 69.9801C141.185 69.7103 141.182 69.4406 141.18 69.1626C141.258 67.655 143.095 68.2139 144.24 68.2124ZM147.656 73.5351C147.656 77.2089 147.656 80.8827 147.656 84.6679C148.778 84.7389 149.9 84.8099 151.057 84.883C164.737 85.7614 178.292 86.7106 191.602 90.2343C191.902 90.3136 192.202 90.3929 192.512 90.4746C199.107 92.2435 204.896 94.9038 210.906 98.125C211.452 98.4595 211.452 98.4595 211.817 98.4374C212.155 94.8047 210.274 91.5755 208.228 88.7328C197.142 77.1433 175.547 75.1168 160.547 73.8281C160.301 73.8065 160.055 73.785 159.802 73.7628C155.761 73.4235 151.707 73.5147 147.656 73.5351Z" fill="black"/>
<path d="M133.886 79.1011C135.17 79.7431 135.986 80.3951 136.523 81.7378C136.746 82.9341 136.795 83.9273 136.149 84.9902C134.766 86.6336 134.766 86.6336 133.553 86.8087C132.1 86.8821 131.195 86.844 130.06 85.876C129.098 84.9397 128.853 84.3239 128.814 82.9829C128.829 81.563 129.106 80.7669 130.078 79.687C131.314 78.9372 132.476 78.9028 133.886 79.1011Z" fill="black"/>
</svg>
