<svg width="300" height="300" viewBox="0 0 300 300" fill="none" xmlns="http://www.w3.org/2000/svg">
<path d="M173.145 78.8076C173.388 78.8658 173.631 78.924 173.882 78.984C180.455 80.6283 185.857 83.7872 190.723 88.4756C190.912 88.6463 191.101 88.817 191.296 88.9929C198.044 95.2509 200.66 105.263 201.007 114.16C201.022 114.961 201.03 115.762 201.033 116.564C201.036 116.864 201.038 117.165 201.041 117.475C201.048 118.46 201.053 119.446 201.057 120.431C201.058 120.772 201.06 121.112 201.062 121.463C201.069 123.268 201.075 125.073 201.079 126.878C201.083 128.357 201.091 129.836 201.103 131.315C201.118 133.115 201.125 134.916 201.127 136.717C201.129 137.395 201.133 138.074 201.141 138.753C201.278 152.699 195.7 165.031 186.328 175.194C186.108 175.445 185.887 175.696 185.66 175.954C184.308 177.491 182.93 178.879 181.348 180.175C181.199 180.299 181.051 180.424 180.897 180.552C175.667 184.928 169.78 188.67 163.477 191.308C165.164 193.523 166.872 195.715 168.648 197.861C169.993 199.487 171.334 201.116 172.674 202.746C172.968 203.104 173.262 203.462 173.557 203.819C173.897 204.231 174.235 204.645 174.573 205.059C174.753 205.279 174.934 205.499 175.12 205.726C175.488 206.249 175.488 206.249 175.488 206.835C175.825 206.832 176.162 206.829 176.509 206.826C177.764 206.815 179.019 206.808 180.274 206.803C180.816 206.8 181.358 206.796 181.9 206.791C182.681 206.784 183.462 206.78 184.243 206.778C184.484 206.775 184.725 206.772 184.973 206.769C186.621 206.768 187.957 206.951 189.368 207.879C189.988 208.809 190.026 209.485 189.98 210.587C189.763 211.61 189.188 212.078 188.379 212.694C187.548 213.11 186.849 213.026 185.92 213.028C185.628 213.03 185.628 213.03 185.33 213.031C184.676 213.034 184.021 213.034 183.366 213.035C182.898 213.036 182.43 213.037 181.962 213.039C180.687 213.043 179.413 213.045 178.139 213.046C177.343 213.047 176.548 213.048 175.752 213.049C173.263 213.053 170.775 213.056 168.286 213.057C165.412 213.059 162.537 213.064 159.662 213.072C157.442 213.079 155.221 213.082 153.001 213.082C151.674 213.082 150.347 213.084 149.02 213.089C147.772 213.094 146.524 213.095 145.275 213.092C144.817 213.092 144.359 213.093 143.901 213.096C143.275 213.1 142.65 213.098 142.024 213.095C141.499 213.096 141.499 213.096 140.964 213.096C139.658 212.942 138.905 212.439 137.988 211.522C137.78 210.424 137.749 209.332 138.286 208.332C138.914 207.553 139.378 207.153 140.332 206.835C141.046 206.79 141.754 206.76 142.469 206.742C142.676 206.736 142.883 206.73 143.096 206.724C143.755 206.705 144.415 206.687 145.075 206.67C145.522 206.658 145.97 206.645 146.418 206.632C147.514 206.601 148.611 206.571 149.707 206.542C149.597 206.401 149.486 206.259 149.373 206.114C148.289 204.727 147.209 203.337 146.132 201.946C145.675 201.358 145.216 200.772 144.757 200.187C144.523 199.885 144.29 199.584 144.049 199.273C143.743 198.88 143.743 198.88 143.43 198.48C142.924 197.682 142.706 197.233 142.676 196.288C143.176 194.802 143.865 193.742 144.855 192.516C146.006 191.063 147.105 189.584 148.169 188.067C148.315 187.859 148.461 187.65 148.612 187.436C148.917 187 149.222 186.564 149.526 186.127C150.014 185.429 150.502 184.731 150.991 184.034C152.39 182.037 153.789 180.04 155.181 178.038C159.68 171.576 159.68 171.576 161.83 169.039C166.754 163.219 169.729 157.147 170.087 149.431C170.1 149.175 170.112 148.919 170.125 148.655C170.156 148.029 170.186 147.403 170.215 146.776C171.287 146.419 171.506 146.588 172.522 147.014C176.931 148.683 181.684 148.641 186.035 146.776C189.573 144.811 191.851 142.47 193.653 138.866C193.685 137.981 193.699 137.102 193.7 136.216C193.701 135.941 193.703 135.666 193.704 135.383C193.708 134.469 193.71 133.554 193.712 132.639C193.714 132.002 193.715 131.364 193.717 130.727C193.72 129.386 193.722 128.045 193.723 126.704C193.725 124.998 193.732 123.292 193.74 121.586C193.745 120.266 193.747 118.946 193.747 117.626C193.748 116.998 193.751 116.37 193.754 115.742C193.807 106.544 191.722 98.7077 185.156 91.9912C180.864 87.7433 175.597 85.634 169.839 84.204C169.525 84.1258 169.21 84.0476 168.886 83.9671C168.648 83.908 168.41 83.849 168.164 83.7881C168.166 84.0923 168.167 84.3964 168.168 84.7098C168.18 87.5887 168.189 90.4676 168.195 93.3465C168.198 94.8263 168.202 96.3061 168.208 97.7858C168.215 99.2162 168.218 100.647 168.22 102.077C168.221 102.62 168.223 103.164 168.226 103.707C168.268 111.171 168.268 111.171 166.992 113.085C166.415 113.185 166.415 113.185 165.718 113.171C165.468 113.168 165.219 113.165 164.962 113.162C164.702 113.155 164.441 113.148 164.173 113.14C163.778 113.134 163.778 113.134 163.376 113.128C162.726 113.118 162.076 113.103 161.426 113.085C161.427 113.377 161.429 113.668 161.43 113.969C161.442 116.715 161.451 119.461 161.456 122.207C161.459 123.619 161.464 125.031 161.47 126.443C161.477 127.805 161.48 129.167 161.482 130.529C161.483 131.049 161.485 131.569 161.488 132.089C161.492 132.816 161.493 133.544 161.493 134.271C161.495 134.487 161.497 134.703 161.499 134.926C161.494 136.013 161.46 136.472 160.84 137.401C160.657 139.078 161.005 139.94 161.939 141.32C164.393 145.105 165.517 148.967 164.649 153.515C163.242 158.984 160.063 163.089 156.391 167.248C154.202 169.769 152.457 172.62 150.631 175.407C142.095 188.376 142.095 188.376 138.574 189.55C137.692 189.581 136.816 189.596 135.934 189.597C135.664 189.598 135.393 189.6 135.115 189.601C134.22 189.606 133.326 189.608 132.431 189.609C131.811 189.611 131.19 189.613 130.569 189.614C129.268 189.617 127.967 189.619 126.665 189.62C124.995 189.622 123.325 189.629 121.656 189.637C120.374 189.643 119.092 189.644 117.81 189.645C117.194 189.646 116.579 189.648 115.963 189.652C115.103 189.657 114.243 189.656 113.383 189.654C113.127 189.657 112.872 189.66 112.608 189.662C110.871 189.65 110.871 189.65 110.228 189.148C109.863 188.671 109.863 188.671 109.906 187.966C110.167 187.175 110.483 186.577 110.938 185.88C111.101 185.627 111.264 185.374 111.432 185.114C111.609 184.843 111.786 184.573 111.969 184.295C112.346 183.711 112.723 183.128 113.1 182.545C113.293 182.248 113.486 181.95 113.685 181.644C114.562 180.293 115.426 178.934 116.29 177.575C116.458 177.312 116.625 177.049 116.798 176.778C118.081 174.762 119.348 172.736 120.612 170.708C121.991 168.495 123.385 166.293 124.808 164.107C125.789 162.598 126.756 161.08 127.716 159.557C127.863 159.325 128.009 159.093 128.16 158.853C128.75 157.917 129.339 156.981 129.928 156.044C132.191 152.444 134.478 148.862 136.817 145.312C137.034 144.98 137.034 144.98 137.255 144.641C140.293 140.014 143.482 136.558 148.92 134.911C151.172 134.472 151.172 134.472 156.153 134.472C156.056 127.511 155.959 120.55 155.86 113.378C123.52 113.233 123.52 113.233 90.5275 113.085C88.9832 109.996 89.9074 105.682 90.9268 102.505C93.7583 94.123 99.9439 88.7972 107.668 84.9413C124.439 76.9372 155.028 74.4535 173.145 78.8076ZM102.539 93.4561C102.332 93.6147 102.125 93.7733 101.912 93.9367C98.0296 97.0856 95.5622 101.788 94.6291 106.64C94.7677 106.533 94.9063 106.427 95.0491 106.317C108.726 95.9196 127.033 96.713 143.408 96.5322C145.224 96.5121 147.04 96.491 148.856 96.4682C149.076 96.4654 149.296 96.4627 149.523 96.4598C153.981 96.4024 158.435 96.2646 162.891 96.0928C162.898 94.3929 162.903 92.693 162.907 90.993C162.908 90.4144 162.91 89.8358 162.913 89.2572C162.916 88.4268 162.918 87.5963 162.919 86.7659C162.921 86.5061 162.922 86.2464 162.924 85.9788C162.965 84.697 162.965 84.697 162.598 83.4951C130.983 82.3299 130.983 82.3299 102.539 93.4561ZM99.9025 107.519C120.689 107.519 141.475 107.519 162.891 107.519C162.891 105.488 162.891 103.458 162.891 101.366C130.243 98.8491 130.243 98.8491 99.9025 107.519ZM152.912 194.347C152.553 194.44 152.195 194.533 151.826 194.629C151.486 194.719 151.146 194.81 150.796 194.903C150.325 195.028 150.325 195.028 149.844 195.154C149.075 195.331 149.075 195.331 148.828 195.995C150.344 197.975 151.866 199.949 153.406 201.909C153.528 202.065 153.651 202.221 153.777 202.382C154.031 202.705 154.29 203.025 154.554 203.341C154.981 203.905 154.981 203.905 155.41 204.675C156.346 206.182 156.346 206.182 157.878 206.986C159.497 207.202 161.118 207.102 162.744 207.018C163.242 207.003 163.739 206.99 164.237 206.978C165.449 206.946 166.66 206.895 167.871 206.835C167.011 205.257 167.011 205.257 165.929 203.831C165.791 203.674 165.653 203.516 165.51 203.354C165.365 203.192 165.22 203.029 165.07 202.862C163.845 201.463 162.659 200.045 161.518 198.577C161.386 198.409 161.255 198.24 161.12 198.067C160.861 197.735 160.602 197.402 160.343 197.07C159.726 196.28 159.105 195.495 158.478 194.713C158.165 194.32 158.165 194.32 157.845 193.919C157.673 193.734 157.501 193.549 157.324 193.358C155.849 193.358 154.329 193.969 152.912 194.347Z" fill="black"/>
<path d="M108.76 195.234C109.072 195.233 109.072 195.233 109.39 195.231C110.074 195.229 110.757 195.237 111.441 195.246C111.917 195.247 112.393 195.248 112.869 195.248C113.865 195.25 114.86 195.257 115.856 195.267C117.134 195.28 118.411 195.285 119.689 195.286C120.671 195.287 121.653 195.292 122.635 195.297C123.106 195.3 123.578 195.302 124.049 195.303C124.706 195.306 125.363 195.312 126.02 195.32C126.395 195.323 126.769 195.326 127.154 195.33C128.027 195.41 128.027 195.41 128.613 195.996C128.5 197.157 128.201 198.22 127.83 199.323C127.731 199.622 127.631 199.922 127.528 200.23C127.419 200.55 127.311 200.869 127.2 201.198C127.087 201.532 126.975 201.866 126.859 202.21C126.62 202.916 126.381 203.622 126.141 204.327C125.778 205.397 125.42 206.467 125.061 207.538C124.828 208.227 124.595 208.915 124.361 209.603C124.256 209.919 124.151 210.235 124.042 210.56C122.584 214.814 120.954 218.139 116.839 220.294C113.552 221.77 110.317 222.008 106.909 220.716C103.785 219.24 101.746 217.161 100.462 213.947C99.2908 210.203 99.8793 206.734 101.531 203.229C102.037 202.27 102.565 201.329 103.106 200.39C103.284 200.07 103.462 199.751 103.646 199.421C106.027 195.223 106.027 195.223 108.76 195.234Z" fill="black"/>
<path d="M183.765 92.9257C185.353 94.55 186.251 96.2823 186.365 98.5711C186.254 100.817 185.503 102.473 183.957 104.094C182.04 105.795 180.15 106.162 177.644 106.134C175.438 105.955 173.876 104.986 172.394 103.374C171.133 101.75 170.688 99.8177 170.854 97.7951C171.212 95.6943 172.153 93.9101 173.87 92.6178C177.343 90.4717 180.395 90.6578 183.765 92.9257ZM176.66 97.2653C176.241 97.6215 176.241 97.6215 176.276 98.6752C176.29 99.5724 176.338 99.8573 176.843 100.634C177.763 101.215 178.227 101.27 179.297 101.074C180.282 100.346 180.703 99.9271 180.927 98.7118C180.723 97.6507 180.457 97.3124 179.59 96.6793C178.321 96.1911 177.735 96.4892 176.66 97.2653Z" fill="black"/>
</svg>
