<svg width="300" height="300" viewBox="0 0 300 300" fill="none" xmlns="http://www.w3.org/2000/svg">
<path d="M202.049 93.5869C202.236 93.6646 202.423 93.7424 202.616 93.8225C203.025 93.993 203.432 94.1671 203.838 94.3446C204.542 94.6512 205.251 94.9444 205.961 95.2359C207.569 95.897 209.171 96.5718 210.772 97.2479C211.852 97.7025 212.932 98.1567 214.012 98.6109C214.272 98.7201 214.531 98.8293 214.798 98.9418C217.217 99.959 219.642 100.959 222.07 101.954C221.683 103.197 221.208 104.328 220.62 105.489C220.444 105.84 220.269 106.192 220.093 106.544C220.001 106.729 219.908 106.914 219.813 107.105C210.664 125.518 205.403 145.256 202.441 165.528C200.777 166.194 199.163 166.667 197.406 167.011C197.153 167.061 196.9 167.11 196.64 167.161C190.41 168.329 181.923 169.431 175.781 167.286C175.39 166.884 175.39 166.884 175.042 166.363C174.908 166.168 174.774 165.973 174.637 165.772C174.495 165.559 174.353 165.345 174.206 165.125C173.893 164.668 173.579 164.211 173.264 163.755C173.101 163.517 172.937 163.278 172.769 163.032C169.524 158.347 165.965 153.92 162.27 149.585C161.436 148.606 160.621 147.614 159.814 146.613C158.607 145.129 157.327 143.724 156.026 142.322C155.396 141.638 154.781 140.946 154.174 140.241C153.349 139.283 152.467 138.402 151.548 137.533C151.172 137.11 151.172 137.11 151.172 136.524C150.881 136.427 150.591 136.331 150.293 136.231C149.913 135.844 149.913 135.844 149.487 135.315C148.389 134.019 147.208 132.818 146.008 131.617C145.724 131.331 145.724 131.331 145.435 131.04C143.663 129.116 143.663 129.116 141.339 128.174C140.335 128.25 140.335 128.25 139.618 128.779C138.974 129.782 139.014 130.364 139.16 131.544C139.632 132.289 140.24 132.856 140.882 133.456C141.059 133.629 141.237 133.803 141.419 133.982C141.986 134.535 142.559 135.081 143.133 135.627C143.697 136.172 144.26 136.718 144.822 137.264C145.184 137.617 145.547 137.969 145.911 138.32C146.988 139.365 148.012 140.432 148.98 141.58C149.76 142.498 150.6 143.359 151.428 144.233C152.874 145.769 154.246 147.333 155.564 148.982C156.132 149.683 156.72 150.356 157.324 151.026C160.636 154.717 163.637 158.698 166.626 162.653C166.895 163.008 166.895 163.008 167.171 163.369C167.525 163.841 167.873 164.318 168.213 164.8C168.742 165.547 168.742 165.547 169.406 166.23C170.117 167.078 170.504 167.679 170.8 168.751C170.61 170.699 169.652 172.526 168.878 174.299C168.654 174.839 168.433 175.381 168.213 175.923C167.869 176.77 167.523 177.616 167.173 178.461C166.012 181.26 164.975 184.1 163.954 186.953C163.565 188.038 163.172 189.121 162.779 190.204C162.169 191.886 161.562 193.568 160.955 195.25C160.553 196.367 160.147 197.482 159.741 198.597C159.629 198.91 159.517 199.223 159.402 199.545C158.274 202.627 156.826 204.543 153.818 206.003C151.325 206.963 148.559 206.687 145.932 206.658C145.339 206.656 144.745 206.654 144.152 206.653C142.598 206.648 141.044 206.637 139.491 206.624C137.902 206.612 136.313 206.607 134.724 206.601C131.613 206.588 128.502 206.568 125.39 206.544C125.565 206.081 125.742 205.619 125.92 205.158C126.018 204.9 126.117 204.643 126.218 204.378C127.171 202.261 128.67 201.034 130.787 200.165C133.614 199.196 136.516 198.317 139.453 197.754C139.602 197.163 139.748 196.571 139.892 195.978C139.974 195.649 140.055 195.319 140.139 194.979C140.512 192.977 140.264 191.31 139.732 189.382C139.667 189.141 139.602 188.901 139.535 188.653C138.802 185.999 137.92 183.397 137.029 180.793C130.392 161.367 127.791 142.422 126.515 122.049C126.244 117.742 125.962 113.436 125.601 109.136C125.565 108.707 125.531 108.279 125.498 107.85C125.453 107.262 125.402 106.675 125.35 106.087C125.323 105.754 125.295 105.422 125.266 105.079C125.171 104.199 125.171 104.199 124.218 103.711C123.414 103.641 123.414 103.641 122.552 103.675C122.261 103.68 121.97 103.685 121.67 103.691C121.447 103.698 121.225 103.704 120.996 103.711C120.682 105.395 120.736 106.913 120.889 108.613C120.913 108.894 120.936 109.175 120.96 109.464C121.01 110.075 121.062 110.686 121.114 111.297C121.258 112.975 121.395 114.653 121.531 116.332C121.56 116.686 121.589 117.04 121.619 117.405C121.825 119.985 122.002 122.566 122.163 125.149C122.186 125.517 122.209 125.886 122.233 126.267C122.279 127.012 122.326 127.758 122.372 128.503C122.82 135.645 123.451 142.737 124.345 149.836C124.52 151.229 124.685 152.622 124.848 154.016C124.873 154.232 124.898 154.448 124.924 154.67C124.982 155.165 125.04 155.659 125.097 156.153C123.563 155.83 122.053 155.464 120.548 155.024C109.472 151.796 97.9226 153.367 87.0451 156.67C83.9863 157.556 81.385 157.583 78.3139 156.74C74.9164 155.831 71.4558 156.059 67.9684 156.135C66.9632 156.155 65.9582 156.173 64.9529 156.185C64.3329 156.193 63.713 156.205 63.0932 156.222C60.8062 156.254 58.955 155.932 57.0553 154.613C56.1718 153.731 55.4795 152.826 54.7848 151.795C53.7786 150.341 52.7365 148.982 51.5622 147.657C51.1264 146.785 51.1428 146.288 51.2692 145.313C52.3537 143.477 53.9231 142.036 55.4806 140.607C55.6906 140.411 55.9006 140.216 56.1169 140.014C57.3439 138.874 58.5923 137.766 59.8701 136.684C60.6117 135.986 60.9203 135.487 61.047 134.473C61.022 133.167 60.4984 132.042 59.993 130.855C59.7221 129.932 59.7011 129.509 60.0582 128.614C60.7838 127.966 60.7838 127.966 61.7062 127.332C63.723 125.891 65.2682 124.408 66.7645 122.44C69.5896 118.738 73.0834 116.6 77.0504 114.258C77.2583 114.134 77.4662 114.009 77.6804 113.881C78.2501 113.54 78.8216 113.203 79.3942 112.867C79.7205 112.675 80.0468 112.483 80.383 112.285C80.6367 112.163 80.8905 112.041 81.152 111.915C81.3454 112.011 81.5387 112.108 81.7379 112.208C81.8346 112.691 81.9313 113.174 82.0309 113.672C82.9977 113.866 83.9645 114.059 84.9606 114.258C85.0694 113.817 85.1781 113.376 85.2902 112.922C85.7429 111.397 86.4238 110.347 87.5973 109.278C88.6176 108.768 89.7044 108.853 90.82 108.985C92.2302 109.49 93.249 110.358 94.0426 111.622C95.056 114.358 94.5561 116.35 93.4567 118.946C93.2815 119.272 93.1062 119.598 92.9257 119.935C92.5155 120.841 92.5362 121.242 92.8707 122.169C93.6321 122.93 94.1594 122.94 95.2145 123.047C96.1964 122.827 96.1964 122.827 96.6793 121.766C98.3141 118.194 98.916 113.926 97.6864 110.12C97.0396 108.619 96.0786 107.486 94.9215 106.348C94.6284 106.055 94.3354 105.762 94.0426 105.469C95.0492 105.193 96.0565 104.919 97.0639 104.645C97.3915 104.556 97.7191 104.467 98.0567 104.375C100.317 103.764 102.584 103.186 104.857 102.627C105.702 102.417 106.546 102.207 107.391 101.997C107.948 101.859 108.506 101.723 109.064 101.589C112.086 100.861 114.848 100.165 117.48 98.4381C117.815 98.2339 118.149 98.0298 118.484 97.8258C118.763 97.6472 119.042 97.4685 119.329 97.2845C128.131 91.8031 137.131 93.9852 146.833 96.1883C147.311 96.3038 147.787 96.4274 148.256 96.5714C152.599 97.8981 157.926 96.6855 162.341 96.2408C162.927 96.1831 163.513 96.1254 164.099 96.0679C168.68 95.6184 173.258 95.1443 177.836 94.6585C178.603 94.577 179.371 94.4959 180.139 94.4148C180.648 94.3611 181.156 94.3073 181.665 94.2535C181.916 94.227 182.167 94.2006 182.425 94.1733C183.912 94.0159 185.399 93.8559 186.885 93.694C187.823 93.5924 188.761 93.4927 189.699 93.3935C190.131 93.3473 190.564 93.3002 190.996 93.2522C199.167 92.3459 199.167 92.3459 202.049 93.5869ZM70.8981 132.129C71.1881 132.903 71.4782 133.676 71.777 134.473C73.7346 134.167 75.5114 133.769 77.3434 133.008C77.2676 132.436 77.2676 132.436 77.0504 131.836C74.6783 130.534 73.2041 130.857 70.8981 132.129ZM60.8799 139.033C60.6953 139.193 60.5106 139.353 60.3204 139.518C60.0275 139.776 60.0275 139.776 59.7287 140.04C59.5309 140.212 59.3332 140.385 59.1295 140.563C57.7241 141.801 56.3649 143.073 55.0778 144.434C55.8727 145.267 56.7465 145.861 57.7145 146.485C57.2553 148.349 56.7938 150.21 56.2497 152.051C58.8404 152.805 60.9684 152.729 63.6288 152.289C63.8273 152.26 64.0257 152.23 64.2302 152.2C65.7927 151.915 66.5701 151.374 67.6754 150.294C68.4341 149.105 68.7689 148.188 68.5543 146.778C68.0415 146.069 68.0415 146.069 67.3825 145.606C67.1891 145.606 66.9957 145.606 66.7965 145.606C66.7229 145.45 66.6492 145.295 66.5734 145.135C66.0309 144.087 65.4003 143.097 64.7782 142.095C64.3162 141.352 63.8561 140.608 63.4079 139.855C63.0879 139.321 62.7473 138.8 62.402 138.282C61.6307 138.282 61.4562 138.531 60.8799 139.033Z" fill="black"/>
<path d="M226.172 105.469C226.991 106.467 227.73 107.486 228.434 108.568C228.639 108.881 228.843 109.195 229.054 109.518C229.271 109.853 229.488 110.188 229.705 110.522C229.93 110.868 230.155 111.213 230.38 111.559C231.029 112.555 231.677 113.553 232.324 114.551C232.487 114.803 232.651 115.054 232.819 115.314C233.607 116.529 234.393 117.745 235.178 118.961C235.55 119.536 235.922 120.11 236.294 120.684C238.512 124.104 240.719 127.531 242.902 130.974C243.272 131.548 243.649 132.118 244.034 132.682C244.217 132.953 244.399 133.225 244.587 133.504C244.75 133.741 244.913 133.977 245.081 134.221C246.346 136.707 246.198 139.482 246.237 142.203C246.248 142.977 246.262 143.751 246.277 144.525C246.299 145.63 246.319 146.736 246.338 147.841C246.388 150.723 246.45 153.606 246.516 156.488C246.522 156.771 246.529 157.055 246.535 157.347C246.637 161.758 246.789 166.16 247.082 170.563C247.109 170.965 247.109 170.965 247.136 171.376C247.248 173.023 247.368 174.67 247.49 176.316C247.694 179.1 247.886 181.884 248.078 184.669C248.169 185.972 248.263 187.274 248.358 188.577C248.583 191.721 248.778 194.856 248.792 198.008C248.794 198.256 248.796 198.504 248.798 198.759C248.784 201.206 248.249 202.954 246.57 204.767C244.868 206.408 243.232 206.671 240.968 206.643C240.694 206.643 240.419 206.643 240.136 206.643C239.233 206.643 238.329 206.636 237.426 206.629C236.798 206.627 236.17 206.626 235.542 206.625C233.891 206.622 232.241 206.613 230.591 206.603C228.906 206.594 227.221 206.59 225.536 206.586C222.232 206.576 218.929 206.561 215.625 206.543C215.754 205.984 215.887 205.426 216.021 204.868C216.094 204.557 216.168 204.246 216.243 203.925C216.802 201.998 217.781 200.648 219.433 199.512C220.414 199.172 220.414 199.172 221.502 198.907C221.694 198.86 221.885 198.812 222.082 198.763C222.663 198.618 223.245 198.479 223.828 198.34C224.493 198.176 225.159 198.011 225.824 197.845C226.103 197.778 226.383 197.71 226.672 197.641C227.345 197.485 227.345 197.485 227.929 197.168C227.771 195.679 227.262 194.512 226.556 193.213C226.442 193 226.327 192.787 226.209 192.567C223.614 187.835 220.555 183.364 217.382 179.004C217.215 178.772 217.047 178.541 216.874 178.302C213.502 173.64 213.502 173.64 209.768 169.267C209.544 169.02 209.544 169.02 209.315 168.767C209.027 168.449 208.733 168.135 208.433 167.828C207.4 166.679 207.343 165.928 207.378 164.476C207.444 163.396 207.596 162.342 207.777 161.276C207.816 161.043 207.854 160.811 207.893 160.571C208.02 159.812 208.15 159.053 208.282 158.295C208.328 158.031 208.373 157.768 208.42 157.497C215.617 116.023 215.617 116.023 226.172 105.469Z" fill="black"/>
<path d="M118.945 159.375C119.181 159.445 119.417 159.516 119.66 159.589C121.002 159.999 122.337 160.429 123.652 160.921C124.031 161.063 124.413 161.196 124.798 161.32C125.749 161.658 126.202 161.894 126.708 162.781C126.844 163.27 126.844 163.27 126.984 163.769C127.037 163.953 127.09 164.136 127.145 164.326C127.27 164.757 127.392 165.19 127.511 165.623C127.775 166.549 128.065 167.466 128.356 168.384C128.576 169.092 128.796 169.8 129.016 170.508C129.125 170.85 129.233 171.193 129.345 171.546C130.135 174.16 130.179 175.793 128.912 178.229C128.728 178.567 128.728 178.567 128.54 178.912C128.347 179.273 128.347 179.273 128.149 179.641C124.867 185.644 120.804 191.146 116.309 196.289C115.98 196.667 115.98 196.667 115.645 197.052C108.125 205.56 108.125 205.56 104.297 206.836C103.615 206.87 102.933 206.888 102.251 206.896C102.043 206.899 101.836 206.902 101.622 206.905C100.934 206.914 100.245 206.921 99.5567 206.928C99.0735 206.934 98.5903 206.941 98.1071 206.947C97.09 206.96 96.0728 206.972 95.0556 206.983C93.7703 206.997 92.485 207.013 91.1997 207.029C86.0927 207.094 80.9863 207.153 75.8789 207.129C76.0777 205.789 76.3744 204.83 77.0508 203.65C77.2079 203.366 77.365 203.083 77.5269 202.791C79.3147 200.386 81.4868 199.072 84.1919 197.882C84.7911 197.606 85.3896 197.329 85.9875 197.05C86.2685 196.919 86.5495 196.788 86.8391 196.653C88.2599 195.971 89.5589 195.187 90.8203 194.238C91.0805 194.048 91.3407 193.857 91.6088 193.661C93.6814 191.996 94.5028 190.308 95.2148 187.793C95.2842 187.559 95.3535 187.326 95.425 187.085C97.9009 178.67 99.4382 169.619 97.229 160.986C96.9727 159.961 96.9727 159.961 96.9727 159.082C97.3567 158.988 97.7414 158.897 98.1262 158.807C98.3404 158.756 98.5545 158.705 98.7751 158.653C105.071 157.469 112.803 157.513 118.945 159.375Z" fill="black"/>
<path d="M205.014 170.817C205.229 171.102 205.443 171.387 205.664 171.681C205.879 171.92 206.093 172.16 206.314 172.407C209.304 175.955 212.049 179.723 214.453 183.692C213.574 183.985 213.574 183.985 210.645 183.106C209.098 190.841 207.551 198.575 205.957 206.544C195.129 206.544 184.301 206.544 173.145 206.544C175.608 201.207 175.608 201.207 177.205 200.538C177.484 200.417 177.762 200.296 178.049 200.172C178.34 200.051 178.631 199.93 178.931 199.806C180.886 198.98 182.577 198.149 184.277 196.876C184.471 196.876 184.664 196.876 184.863 196.876C185.756 194.198 184.911 191.462 184.204 188.834C182.828 183.677 181.899 178.501 181.934 173.145C182.351 173.126 182.351 173.126 182.777 173.106C191.454 172.806 191.454 172.806 199.961 171.247C200.364 171.137 200.364 171.137 200.774 171.025C201.286 170.88 201.795 170.727 202.301 170.563C203.999 170.068 203.999 170.068 205.014 170.817Z" fill="black"/>
<path d="M76.0986 105.598C77.4668 105.834 78.5188 106.5 79.6875 107.227C79.6875 107.421 79.6875 107.614 79.6875 107.813C79.5431 107.891 79.3987 107.969 79.2499 108.05C75.5112 110.069 75.5112 110.069 71.9971 112.448C71.4844 112.794 71.4844 112.794 70.8984 112.794C71.2524 110.095 72.5477 108.066 74.5869 106.264C75.293 105.762 75.293 105.762 76.0986 105.598Z" fill="black"/>
</svg>
