<svg width="300" height="300" viewBox="0 0 300 300" fill="none" xmlns="http://www.w3.org/2000/svg">
<path d="M150.165 50.4913C151.155 50.7573 151.451 51.1901 152.071 52.002C152.413 52.4444 152.413 52.4444 152.762 52.8957C153.014 53.2323 153.266 53.5692 153.517 53.9062C153.793 54.2707 154.069 54.635 154.346 54.9992C155.248 56.1926 156.141 57.393 157.033 58.5938C159.028 61.2743 161.046 63.934 163.103 66.5679C164.262 68.0535 165.412 69.5461 166.554 71.0449C168.538 73.6469 170.547 76.229 172.56 78.8086C173.804 77.9014 175.014 77.0183 176.076 75.8972C177.003 74.945 177.961 74.0604 178.971 73.1976C179.412 72.813 179.843 72.4172 180.267 72.0142C183.668 68.8031 186.408 67.6209 191.017 67.6025C191.397 67.5965 191.777 67.5905 192.169 67.5842C192.532 67.5827 192.895 67.5812 193.269 67.5797C193.603 67.5769 193.936 67.5742 194.28 67.5714C195.119 67.6758 195.119 67.6758 195.603 68.0316C196.123 68.7206 196.11 69.1388 196.115 69.9976C196.119 70.2953 196.123 70.593 196.127 70.8997C196.126 71.2262 196.126 71.5526 196.125 71.889C196.128 72.233 196.131 72.5771 196.134 72.9315C196.141 73.876 196.144 74.8203 196.145 75.7647C196.145 76.3557 196.147 76.9466 196.15 77.5375C196.158 79.602 196.161 81.6663 196.161 83.7308C196.16 85.6501 196.169 87.5692 196.183 89.4885C196.195 91.1394 196.199 92.7902 196.199 94.4411C196.199 95.4258 196.202 96.4101 196.21 97.3947C196.219 98.4957 196.217 99.5962 196.211 100.697C196.219 101.181 196.219 101.181 196.226 101.674C196.192 104.457 195.157 106.319 193.251 108.307C192.333 109.171 191.377 109.993 190.422 110.815C189.866 111.31 189.341 111.823 188.82 112.354C187.93 113.26 186.99 114.088 186.028 114.917C185.303 115.561 184.629 116.248 183.95 116.94C183.417 117.464 182.869 117.953 182.303 118.441C181.122 119.467 179.978 120.526 178.841 121.6C178.434 121.983 178.027 122.366 177.62 122.749C177.311 123.04 177.311 123.04 176.997 123.336C175.785 124.475 174.567 125.607 173.35 126.741C172.688 127.357 172.028 127.973 171.388 128.613C171.644 128.766 171.899 128.919 172.162 129.077C172.515 129.294 172.867 129.512 173.219 129.73C173.469 129.878 173.469 129.878 173.723 130.029C177.079 132.127 179.83 135.26 182.594 138.062C185.144 140.645 185.144 140.645 187.836 143.08C193.856 148.323 198.477 154.222 199.286 162.383C199.386 163.964 199.377 165.545 199.367 167.128C199.368 167.646 199.37 168.163 199.372 168.681C199.376 170.07 199.373 171.458 199.368 172.847C199.364 174.31 199.366 175.774 199.367 177.238C199.368 179.695 199.364 182.151 199.357 184.608C199.349 187.435 199.349 190.261 199.352 193.088C199.355 195.825 199.354 198.561 199.349 201.298C199.348 202.454 199.348 203.611 199.349 204.768C199.351 206.134 199.347 207.5 199.341 208.866C199.34 209.362 199.339 209.859 199.341 210.356C199.367 220.303 196.418 228.128 189.388 235.254C179.83 244.747 168.252 249.938 154.761 249.952C154.415 249.953 154.069 249.953 153.713 249.955C152.985 249.956 152.257 249.957 151.529 249.957C150.433 249.957 149.337 249.963 148.241 249.968C143.233 249.98 138.259 249.895 133.376 248.657C133.12 248.594 132.864 248.531 132.6 248.465C130.298 247.873 128.142 247.085 125.978 246.094C125.696 245.965 125.696 245.965 125.408 245.834C116.319 241.648 106.541 233.972 102.87 224.396C100.553 217.586 100.606 210.812 100.625 203.704C100.628 202.233 100.626 200.761 100.624 199.289C100.622 196.822 100.624 194.355 100.63 191.888C100.636 189.047 100.634 186.206 100.628 183.365C100.623 180.91 100.622 178.456 100.625 176.001C100.627 174.541 100.627 173.082 100.623 171.622C100.62 170.251 100.622 168.88 100.629 167.509C100.63 167.01 100.63 166.511 100.627 166.011C100.59 158.174 103.563 152.076 108.984 146.475C109.738 145.735 110.519 145.026 111.3 144.315C112.794 142.95 114.238 141.543 115.659 140.102C115.854 139.904 116.049 139.707 116.251 139.503C117.052 138.692 117.852 137.879 118.65 137.063C120.68 134.99 122.709 132.959 124.991 131.16C125.153 131.031 125.316 130.903 125.484 130.77C126.475 130.014 127.485 129.43 128.615 128.906C128.185 127.884 127.639 127.319 126.802 126.599C125.512 125.466 124.246 124.313 122.994 123.138C122.807 122.964 122.62 122.789 122.427 122.609C122.044 122.25 121.66 121.89 121.276 121.531C120.541 120.843 119.805 120.156 119.068 119.469C117.749 118.239 116.43 117.008 115.115 115.773C114.817 115.493 114.817 115.493 114.512 115.207C114.114 114.833 113.716 114.458 113.318 114.084C112.278 113.109 111.233 112.14 110.179 111.181C109.485 110.55 108.796 109.913 108.107 109.277C107.735 108.94 107.735 108.94 107.356 108.596C107.127 108.38 106.897 108.164 106.661 107.941C106.465 107.759 106.269 107.577 106.067 107.39C104.266 105.126 103.79 103.043 103.825 100.197C103.824 99.858 103.822 99.5194 103.82 99.1706C103.817 98.0602 103.824 96.9501 103.832 95.8397C103.832 95.065 103.832 94.2904 103.832 93.5157C103.832 91.8968 103.837 90.278 103.847 88.6591C103.858 86.7888 103.86 84.9187 103.858 83.0484C103.856 81.2445 103.859 79.4406 103.865 77.6367C103.867 76.8706 103.868 76.1046 103.868 75.3386C103.868 74.2705 103.875 73.2026 103.883 72.1345C103.882 71.8174 103.881 71.5002 103.88 71.1734C103.883 70.8827 103.887 70.5919 103.89 70.2924C103.891 70.0402 103.892 69.788 103.893 69.5281C104.032 68.6901 104.299 68.2853 104.884 67.6758C106.087 67.4483 107.291 67.4829 108.513 67.4908C109.103 67.4926 109.693 67.4785 110.283 67.4641C113.817 67.4606 116.397 68.486 118.942 70.9422C119.112 71.1151 119.283 71.288 119.46 71.4661C119.835 71.8306 120.21 72.1949 120.586 72.559C120.759 72.7298 120.933 72.9007 121.112 73.0767C121.831 73.7761 122.588 74.4275 123.349 75.0801C124.402 76.0015 125.419 76.9636 126.442 77.9182C127.122 78.5663 127.122 78.5663 128.029 78.8086C128.111 78.6358 128.193 78.4629 128.277 78.2849C128.589 77.6862 128.922 77.179 129.328 76.6411C129.468 76.4546 129.608 76.2681 129.752 76.0759C129.903 75.8779 130.053 75.68 130.208 75.4761C130.444 75.1639 130.444 75.1639 130.684 74.8454C131.938 73.1902 133.215 71.5545 134.503 69.9257C135.634 68.4937 136.753 67.0516 137.873 65.6101C138.738 64.4961 139.604 63.3827 140.473 62.2719C142.503 59.6749 144.503 57.0575 146.468 54.4111C146.807 53.9563 147.147 53.5027 147.49 53.0508C147.782 52.6649 148.069 52.2758 148.351 51.8824C148.908 51.1416 149.253 50.7254 150.165 50.4913ZM149.709 64.1602C149.555 64.3584 149.555 64.3584 149.397 64.5606C144.566 70.7726 144.566 70.7726 144.06 71.4229C143.722 71.8575 143.384 72.2922 143.046 72.7269C142.185 73.8342 141.323 74.9408 140.46 76.046C138.235 78.895 136.046 81.7677 133.888 84.668C134.998 85.9924 136.14 87.2606 137.367 88.4766C137.521 88.6301 137.676 88.7837 137.834 88.9419C138.633 89.7315 139.441 90.4959 140.297 91.2231C141.641 92.3648 142.859 93.6309 144.098 94.8834C145.181 95.9737 146.282 97.0197 147.461 98.0072C147.98 98.4632 148.436 98.9542 148.903 99.4629C149.594 100.258 149.594 100.258 150.249 100.188C151.171 99.7709 151.722 99.131 152.419 98.4009C153.341 97.4479 154.262 96.5124 155.275 95.6543C156.403 94.6931 157.437 93.6476 158.476 92.5938C159.433 91.6292 160.424 90.7287 161.457 89.8476C162.27 89.1284 163.02 88.3513 163.781 87.5782C164.619 86.7545 165.506 86.0056 166.408 85.2539C165.883 84.0388 165.079 83.0414 164.284 81.9946C164.129 81.7895 163.974 81.5844 163.815 81.3731C162.141 79.1639 160.437 76.9785 158.731 74.7949C158.026 73.8916 157.323 72.9867 156.62 72.0816C156.108 71.4227 155.595 70.7645 155.082 70.1065C154.44 69.283 153.803 68.4559 153.17 67.6254C153.025 67.4356 152.879 67.2457 152.728 67.0501C152.457 66.6973 152.188 66.3431 151.921 65.9875C151.247 65.1161 150.706 64.6095 149.709 64.1602ZM112.795 77.3438C112.747 80.5169 112.711 83.69 112.688 86.8635C112.678 88.3372 112.663 89.8106 112.64 91.2842C112.618 92.707 112.605 94.1295 112.6 95.5525C112.596 96.0946 112.589 96.6367 112.578 97.1787C112.421 100.058 112.421 100.058 113.243 102.734C113.752 103.251 114.229 103.627 114.845 104.004C115.053 104.191 115.262 104.378 115.476 104.57C115.649 104.716 115.821 104.861 115.999 105.011C117.009 105.881 117.948 106.799 118.874 107.758C119.445 108.313 120.029 108.836 120.63 109.359C121.863 110.43 123.054 111.541 124.239 112.665C124.678 113.08 125.117 113.494 125.556 113.909C125.774 114.115 125.992 114.321 126.217 114.533C127.707 115.938 129.207 117.333 130.705 118.729C131.271 119.256 131.835 119.784 132.399 120.313C132.591 120.492 132.782 120.67 132.978 120.855C133.336 121.189 133.693 121.524 134.05 121.859C134.382 122.169 134.717 122.476 135.055 122.779C135.646 123.34 135.646 123.34 136.213 124.002C137.639 125.54 138.85 126.215 140.946 126.332C141.873 126.365 142.799 126.364 143.727 126.358C144.226 126.362 144.725 126.366 145.224 126.372C146.266 126.379 147.308 126.377 148.351 126.369C149.677 126.359 151.002 126.376 152.328 126.402C153.358 126.418 154.387 126.418 155.417 126.413C155.906 126.413 156.394 126.418 156.882 126.429C159.3 126.476 161.173 126.412 163.058 124.77C163.672 124.175 164.251 123.558 164.818 122.918C165.514 122.157 166.282 121.484 167.049 120.795C167.342 120.527 167.634 120.259 167.927 119.99C168.662 119.32 169.401 118.656 170.143 117.993C171.645 116.646 173.114 115.265 174.583 113.883C175.958 112.591 177.34 111.307 178.729 110.03C180.225 108.652 181.707 107.258 183.186 105.861C184.347 104.767 185.531 103.71 186.747 102.678C187.478 101.994 187.5 101.693 187.537 100.667C187.538 100.232 187.537 99.7965 187.535 99.3615C187.535 99.0056 187.535 99.0056 187.535 98.6425C187.535 97.8562 187.533 97.07 187.53 96.2837C187.53 95.7394 187.529 95.195 187.529 94.6507C187.528 93.2164 187.525 91.7821 187.522 90.3478C187.519 88.8848 187.517 87.4218 187.516 85.9589C187.513 83.0872 187.508 80.2155 187.502 77.3438C186.559 77.7908 185.952 78.2514 185.231 79.01C184.291 79.9957 183.292 80.8857 182.264 81.7773C181.265 82.6558 180.301 83.5706 179.335 84.4849C178.017 85.7269 176.696 86.9613 175.343 88.1653C174.271 89.1215 173.254 90.119 172.247 91.143C171.505 91.8727 170.72 92.5442 169.93 93.2213C169.075 93.9843 168.279 94.8016 167.481 95.6245C166.994 96.0938 166.994 96.0938 166.408 96.3867C166.408 96.5801 166.408 96.7734 166.408 96.9727C166.243 97.041 166.079 97.1094 165.909 97.1798C165.07 97.6522 164.512 98.2381 163.844 98.9319C162.96 99.8352 162.077 100.711 161.116 101.532C160.251 102.272 159.444 103.047 158.644 103.857C157.845 104.668 157.037 105.443 156.172 106.183C154.956 107.224 153.843 108.356 152.725 109.502C151.202 110.984 151.202 110.984 150.018 111.174C148.844 110.992 148.487 110.57 147.695 109.698C146.837 108.786 145.997 107.905 145.039 107.098C143.906 106.13 142.865 105.079 141.819 104.018C140.875 103.066 139.896 102.18 138.877 101.311C137.897 100.437 136.989 99.4896 136.066 98.5554C135.461 97.9579 134.846 97.396 134.2 96.8445C133.067 95.8763 132.026 94.8256 130.98 93.7657C130.023 92.8007 129.031 91.9 127.998 91.0183C127.213 90.324 126.486 89.5781 125.758 88.8245C124.989 88.0767 124.183 87.3799 123.374 86.6765C122.408 85.8275 121.475 84.9462 120.54 84.0637C120.341 83.8769 120.142 83.6901 119.937 83.4977C118.895 82.5186 117.855 81.5365 116.818 80.5515C116.423 80.1781 116.028 79.8046 115.633 79.4312C115.449 79.2551 115.265 79.0791 115.075 78.8978C114.818 78.6554 114.818 78.6554 114.556 78.4081C114.331 78.1946 114.331 78.1946 114.102 77.9768C113.639 77.5696 113.639 77.5696 112.795 77.3438ZM138.283 134.473C138.722 135.402 139.123 135.933 139.922 136.588C141.484 137.91 142.898 139.366 144.331 140.825C146.221 142.736 148.223 144.482 150.295 146.191C150.476 146.005 150.476 146.005 150.661 145.815C151.584 144.877 152.52 143.974 153.517 143.115C154.281 142.457 155.008 141.784 155.715 141.064C156.403 140.363 157.11 139.707 157.857 139.069C159.311 137.811 160.733 136.494 162.013 135.059C162.013 134.865 162.013 134.672 162.013 134.473C158.366 134.102 154.715 134.135 151.052 134.141C149.985 134.143 148.917 134.142 147.85 134.14C147.16 134.14 146.47 134.14 145.78 134.141C145.466 134.14 145.153 134.14 144.83 134.139C142.636 134.146 140.468 134.278 138.283 134.473ZM129.494 138.574C129.267 138.804 129.041 139.034 128.807 139.271C128.499 139.582 128.191 139.893 127.882 140.204C127.734 140.354 127.586 140.505 127.434 140.66C126.617 141.482 125.784 142.265 124.902 143.018C123.246 144.45 121.729 146.026 120.192 147.583C119.596 148.187 119 148.789 118.402 149.391C118.141 149.656 117.88 149.92 117.611 150.193C117.007 150.773 116.407 151.277 115.724 151.758C115.846 153.063 116.753 153.774 117.647 154.633C117.807 154.79 117.968 154.947 118.133 155.109C119.139 156.088 120.175 157.022 121.247 157.93C122.281 158.86 123.246 159.864 124.21 160.866C124.594 161.259 124.992 161.637 125.392 162.012C125.586 162.012 125.779 162.012 125.978 162.012C125.978 162.205 125.978 162.398 125.978 162.598C126.472 163.097 126.472 163.097 127.095 163.605C128.295 164.617 128.295 164.617 128.765 165.171C128.909 165.289 129.053 165.406 129.201 165.527C130.576 165.343 131.291 164.4 132.204 163.44C132.545 163.089 132.888 162.738 133.23 162.388C133.395 162.22 133.559 162.052 133.728 161.879C134.435 161.172 135.19 160.53 135.952 159.884C136.925 159.02 137.823 158.079 138.737 157.154C139.543 156.358 140.384 155.62 141.243 154.884C142.155 154.08 143 153.212 143.849 152.344C142.665 150.899 141.404 149.608 140.022 148.352C138.536 146.985 137.083 145.596 135.664 144.159C134.34 142.82 132.989 141.543 131.545 140.332C131.154 139.997 130.763 139.661 130.373 139.325C130.083 139.077 129.793 138.829 129.494 138.574ZM169.154 140.057C168.987 140.213 168.819 140.368 168.646 140.528C167.104 141.965 165.619 143.456 164.136 144.954C163.078 146.018 162.002 147.032 160.856 148.002C159.993 148.768 159.172 149.573 158.351 150.385C158.193 150.539 158.034 150.694 157.87 150.854C157.482 151.241 157.109 151.645 156.74 152.051C156.74 152.244 156.74 152.437 156.74 152.637C156.933 152.637 157.127 152.637 157.326 152.637C157.326 152.83 157.326 153.023 157.326 153.223C157.756 153.657 157.756 153.657 158.324 154.111C160.038 155.568 161.589 157.179 163.166 158.781C164.423 160.05 165.698 161.268 167.054 162.431C167.801 163.084 168.494 163.777 169.191 164.484C169.442 164.737 169.693 164.99 169.951 165.252C170.135 165.439 170.32 165.627 170.509 165.82C173.182 163.583 175.739 161.208 178.183 158.724C178.708 158.208 179.251 157.729 179.811 157.251C181.49 155.81 183.02 154.212 184.572 152.637C184.481 152.455 184.391 152.274 184.297 152.087C184.096 151.685 183.894 151.282 183.693 150.879C183.5 150.879 183.306 150.879 183.107 150.879C183.01 150.589 182.914 150.299 182.814 150C182.346 149.524 182.346 149.524 181.766 149.06C180.513 147.997 179.355 146.867 178.201 145.698C177.997 145.493 177.793 145.288 177.583 145.076C176.939 144.429 176.297 143.782 175.655 143.134C174.801 142.273 173.947 141.412 173.092 140.553C172.798 140.255 172.798 140.255 172.498 139.951C172.318 139.77 172.138 139.589 171.952 139.402C171.793 139.242 171.634 139.082 171.471 138.916C170.582 138.106 169.837 139.423 169.154 140.057ZM150.002 158.203C149.693 158.516 149.693 158.516 149.379 158.836C146.86 161.383 146.86 161.383 145.644 162.415C144.368 163.502 143.207 164.697 142.03 165.888C140.999 166.926 139.942 167.911 138.826 168.858C137.815 169.748 136.88 170.716 135.939 171.68C136.398 172.864 137.242 173.573 138.173 174.39C138.493 174.676 138.813 174.963 139.132 175.25C139.366 175.46 139.366 175.46 139.604 175.675C140.184 176.205 140.736 176.759 141.286 177.319C141.993 178.039 142.715 178.716 143.483 179.37C144.716 180.427 145.85 181.574 146.984 182.736C148.263 184.045 148.263 184.045 149.709 185.156C150.776 185.056 151.274 184.57 152.002 183.817C152.212 183.603 152.423 183.388 152.639 183.167C152.857 182.941 153.074 182.716 153.298 182.483C154.717 181.021 156.144 179.607 157.691 178.28C158.333 177.72 158.93 177.125 159.523 176.514C160.523 175.498 161.555 174.553 162.651 173.643C163.295 173.042 163.82 172.377 164.357 171.68C163.577 170.891 162.795 170.104 162.013 169.318C161.686 168.987 161.686 168.987 161.353 168.65C160.328 167.621 159.299 166.615 158.197 165.668C156.672 164.357 155.289 162.909 153.889 161.467C152.666 160.225 151.454 159.169 150.002 158.203ZM109.865 159.082C109.219 160.378 109.199 161.582 109.212 162.999C109.212 163.242 109.212 163.485 109.212 163.736C109.213 164.536 109.217 165.337 109.222 166.137C109.223 166.694 109.224 167.25 109.224 167.806C109.226 169.268 109.232 170.729 109.239 172.191C109.245 173.684 109.247 175.176 109.25 176.669C109.257 179.596 109.267 182.522 109.279 185.449C110.427 184.482 111.548 183.51 112.601 182.438C112.822 182.215 113.043 181.992 113.27 181.763C113.721 181.304 114.172 180.845 114.623 180.387C115.847 179.15 117.093 177.97 118.413 176.836C119.191 176.153 119.908 175.423 120.632 174.683C121.495 173.799 122.328 172.976 123.341 172.266C122.874 171.12 122.129 170.399 121.254 169.537C120.854 169.14 120.854 169.14 120.446 168.735C119.786 168.099 119.104 167.496 118.409 166.898C116.879 165.571 115.481 164.117 114.071 162.665C112.755 161.328 111.402 160.158 109.865 159.082ZM189.44 159.719C189.209 159.957 189.209 159.957 188.973 160.2C188.802 160.375 188.631 160.549 188.455 160.729C188.182 161.01 188.182 161.01 187.904 161.298C186.636 162.589 185.365 163.839 183.983 165.009C183.22 165.688 182.506 166.412 181.789 167.139C180.67 168.27 179.533 169.351 178.319 170.38C177.842 170.794 177.396 171.228 176.955 171.68C177.397 172.717 178.001 173.384 178.797 174.176C179.049 174.427 179.301 174.678 179.561 174.937C179.825 175.198 180.089 175.458 180.361 175.726C180.618 175.983 180.875 176.24 181.14 176.505C182.447 177.804 183.776 179.054 185.173 180.255C186.235 181.199 187.221 182.22 188.216 183.234C188.63 183.655 189.044 184.076 189.46 184.496C189.64 184.679 189.82 184.863 190.005 185.051C190.37 185.483 190.37 185.483 190.724 185.449C190.731 182.223 190.736 178.996 190.739 175.769C190.741 174.271 190.743 172.773 190.746 171.275C190.75 169.829 190.751 168.384 190.752 166.938C190.753 166.386 190.754 165.834 190.755 165.283C190.757 164.51 190.758 163.738 190.758 162.966C190.759 162.623 190.759 162.623 190.761 162.273C190.759 161.256 190.704 160.354 190.431 159.375C189.831 159.312 189.831 159.312 189.44 159.719ZM128.779 178.529C128.324 178.99 127.872 179.454 127.42 179.918C126.589 180.761 125.742 181.563 124.844 182.335C123.546 183.457 122.346 184.665 121.144 185.889C119.75 187.308 118.349 188.679 116.821 189.954C116.278 190.46 115.859 190.996 115.431 191.602C116.949 193.147 118.474 194.654 120.12 196.061C120.781 196.65 121.401 197.27 122.023 197.9C122.987 198.878 123.98 199.784 125.027 200.671C125.567 201.162 126.069 201.661 126.572 202.188C126.806 202.432 126.806 202.432 127.044 202.68C127.355 203.005 127.663 203.334 127.967 203.665C128.737 204.51 128.737 204.51 129.787 204.842C130.676 204.311 131.351 203.591 132.057 202.844C132.371 202.521 132.686 202.197 133.001 201.875C133.154 201.719 133.306 201.563 133.463 201.402C134.163 200.702 134.914 200.067 135.668 199.426C136.56 198.635 137.382 197.778 138.219 196.93C138.985 196.174 139.791 195.477 140.608 194.777C141.738 193.77 142.79 192.682 143.849 191.602C142.643 190.146 141.382 188.844 139.986 187.573C138.614 186.311 137.267 185.036 135.957 183.71C134.906 182.646 133.832 181.643 132.694 180.675C131.836 179.915 131.043 179.095 130.246 178.273C129.502 177.558 129.577 177.751 128.779 178.529ZM170.216 178.125C168.285 179.858 166.402 181.626 164.577 183.472C163.364 184.698 162.143 185.882 160.824 186.995C159.825 187.882 158.903 188.848 157.97 189.804C157.326 190.43 157.326 190.43 156.447 191.016C156.613 192.01 156.869 192.394 157.655 193.011C158.941 194.081 160.107 195.246 161.281 196.436C162.552 197.719 163.82 198.97 165.206 200.13C165.749 200.618 166.257 201.119 166.767 201.64C167.022 201.901 167.022 201.901 167.282 202.166C167.621 202.514 167.958 202.865 168.293 203.217C169.367 204.346 169.367 204.346 170.802 204.785C171.515 204.24 171.515 204.24 172.194 203.467C173.076 202.539 173.945 201.64 174.922 200.812C175.787 200.072 176.595 199.297 177.394 198.486C178.182 197.688 178.976 196.924 179.83 196.198C181.504 194.765 183.027 193.17 184.572 191.602C183.055 189.789 181.48 188.102 179.681 186.566C178.143 185.227 176.729 183.773 175.301 182.319C173.035 179.813 173.035 179.813 170.216 178.125ZM148.372 198.926C148.205 199.08 148.038 199.235 147.865 199.394C146.264 200.887 144.719 202.433 143.185 203.995C142.066 205.129 140.913 206.197 139.706 207.237C138.954 207.897 138.254 208.595 137.55 209.308C137.3 209.561 137.049 209.815 136.791 210.076C136.606 210.263 136.422 210.451 136.232 210.645C136.638 211.558 137.112 212.185 137.816 212.892C138.01 213.087 138.203 213.281 138.403 213.482C138.605 213.681 138.807 213.881 139.015 214.087C139.217 214.291 139.419 214.496 139.628 214.706C139.821 214.899 140.015 215.092 140.215 215.291C140.481 215.556 140.481 215.556 140.752 215.826C141.187 216.274 141.187 216.274 141.799 216.211C141.799 216.404 141.799 216.598 141.799 216.797C142.233 217.236 142.233 217.236 142.806 217.694C143.734 218.482 144.607 219.297 145.461 220.166C147.651 222.447 147.651 222.447 150.295 224.121C150.542 223.87 150.79 223.619 151.045 223.36C152.62 221.771 154.186 220.2 155.893 218.752C156.782 217.965 157.601 217.11 158.434 216.266C159.2 215.51 160.006 214.813 160.823 214.113C161.953 213.106 163.005 212.018 164.064 210.938C162.801 209.408 161.459 208.048 159.999 206.708C157.473 204.368 157.473 204.368 156.3 203.174C155.422 202.28 154.496 201.462 153.545 200.647C152.593 199.795 151.708 198.88 150.818 197.966C149.782 196.966 149.226 198.133 148.372 198.926ZM109.279 197.754C109.252 200.074 109.231 202.395 109.218 204.715C109.212 205.793 109.204 206.871 109.191 207.95C109.064 214.659 109.064 214.659 110.451 221.191C110.548 221.481 110.644 221.771 110.744 222.07C112.054 221.952 112.749 221.031 113.6 220.129C114.738 218.941 115.908 217.829 117.154 216.754C118.253 215.794 119.313 214.793 120.375 213.794C120.597 213.587 120.819 213.38 121.048 213.167C121.26 212.967 121.473 212.768 121.691 212.563C121.882 212.384 122.073 212.205 122.269 212.021C122.814 211.494 122.814 211.494 123.341 210.645C123.079 210.399 122.816 210.154 122.545 209.902C120.568 208.058 118.593 206.213 116.622 204.364C116.431 204.185 116.24 204.006 116.043 203.822C115.004 202.848 113.967 201.872 112.932 200.894C112.608 200.589 112.608 200.589 112.277 200.277C111.86 199.883 111.442 199.488 111.026 199.093C110.84 198.917 110.653 198.742 110.461 198.561C110.296 198.405 110.131 198.248 109.961 198.088C109.62 197.722 109.62 197.722 109.279 197.754ZM189.972 198.195C189.779 198.394 189.586 198.593 189.388 198.798C188.589 199.608 187.779 200.382 186.916 201.123C186.099 201.825 185.328 202.553 184.572 203.32C183.828 204.076 183.071 204.792 182.265 205.481C180.808 206.734 179.474 208.105 178.127 209.473C177.639 209.961 177.15 210.45 176.662 210.938C179.373 213.696 179.373 213.696 182.241 216.288C182.95 216.918 183.612 217.587 184.279 218.262C186.547 220.608 186.547 220.608 189.259 222.363C191.026 217.515 190.902 212.666 190.825 207.587C190.81 206.475 190.803 205.363 190.796 204.251C190.78 202.085 190.755 199.92 190.724 197.754C190.361 197.72 190.361 197.72 189.972 198.195ZM128.542 217.584C128.371 217.73 128.2 217.877 128.024 218.027C127.318 218.668 126.648 219.341 125.978 220.02C125.118 220.887 124.258 221.753 123.396 222.62C123.171 222.847 122.946 223.075 122.714 223.31C121.475 224.554 120.216 225.752 118.879 226.891C118.08 227.589 117.344 228.342 116.603 229.102C118.359 233.198 124.616 236.077 128.34 238.055C128.563 238.174 128.786 238.293 129.015 238.415C130.5 239.181 131.997 239.751 133.595 240.234C133.864 239.962 134.133 239.69 134.41 239.409C137.708 236.082 137.708 236.082 139.43 234.628C140.868 233.343 142.203 231.94 143.556 230.566C142.74 228.708 141.064 227.412 139.546 226.117C138.254 225.009 137.073 223.798 135.877 222.589C134.846 221.55 133.79 220.565 132.673 219.619C131.821 218.868 131.036 218.053 130.246 217.237C129.468 216.491 129.282 216.945 128.542 217.584ZM166.535 220.167C165.793 220.909 165.056 221.653 164.32 222.4C162.789 223.955 161.254 225.476 159.596 226.897C158.906 227.498 158.261 228.138 157.619 228.79C157.395 229.016 157.172 229.243 156.941 229.476C156.778 229.642 156.615 229.809 156.447 229.98C156.854 230.91 157.32 231.495 158.066 232.179C158.273 232.37 158.479 232.562 158.692 232.759C158.912 232.96 159.132 233.161 159.358 233.368C161.131 235.007 162.862 236.668 164.534 238.408C165.659 239.47 165.659 239.47 166.994 240.234C167.949 240.057 168.742 239.628 169.594 239.172C169.838 239.049 170.082 238.925 170.333 238.798C175.096 236.341 179.467 233.333 183.4 229.688C182.578 227.814 180.88 226.51 179.353 225.201C178.21 224.22 177.156 223.159 176.098 222.087C175.137 221.118 174.142 220.211 173.104 219.327C172.332 218.646 171.618 217.914 170.904 217.173C169.801 216.121 167.372 219.35 166.535 220.167ZM149.185 236.878C148.979 237.085 148.774 237.292 148.562 237.505C148.339 237.728 148.116 237.952 147.887 238.182C147.654 238.418 147.421 238.654 147.182 238.898C146.947 239.133 146.712 239.368 146.47 239.61C145.353 240.531 145.353 240.531 144.728 241.699C148.305 241.699 151.882 241.699 155.568 241.699C154.151 240.019 154.151 240.019 152.602 238.568C151.958 238.023 151.36 237.489 150.771 236.884C150.098 236.236 149.885 236.273 149.185 236.878Z" fill="black"/>
</svg>
