<svg width="300" height="300" viewBox="0 0 300 300" fill="none" xmlns="http://www.w3.org/2000/svg">
<path d="M150.146 40.7409C151.301 41.0503 151.452 41.205 152.051 42.1875C152.27 42.8387 152.27 42.8387 152.426 43.5632C152.487 43.84 152.548 44.1169 152.611 44.4021C152.675 44.7053 152.739 45.0085 152.805 45.3209C152.876 45.6439 152.946 45.967 153.019 46.2998C153.254 47.3821 153.486 48.4652 153.717 49.5483C153.883 50.314 154.049 51.0795 154.215 51.8451C154.574 53.5003 154.931 55.156 155.287 56.812C155.829 59.3354 156.377 61.8575 156.925 64.3794C157.338 66.2782 157.75 68.1772 158.162 70.0762C158.262 70.5341 158.361 70.9919 158.461 71.4498C159.881 77.9959 161.26 84.5497 162.598 91.1133C163.207 90.3356 163.702 89.567 164.148 88.6865C164.274 88.4406 164.399 88.1947 164.528 87.9413C164.662 87.6765 164.796 87.4116 164.933 87.1387C165.075 86.861 165.216 86.5832 165.362 86.297C165.815 85.4066 166.266 84.5155 166.718 83.6242C167.306 82.4639 167.896 81.3039 168.486 80.1441C168.63 79.8591 168.775 79.5742 168.924 79.2806C169.991 77.186 171.077 75.1021 172.178 73.0256C173.44 70.6452 174.637 68.2333 175.827 65.8162C177.169 63.0903 178.532 60.3795 179.993 57.7148C180.111 57.4958 180.23 57.2768 180.352 57.0512C180.959 55.9579 181.524 54.9891 182.52 54.1992C183.664 54.0357 184.292 54.0281 185.284 54.6386C185.94 55.6879 185.965 56.529 185.742 57.7148C185.169 59.1169 184.451 60.4335 183.728 61.7614C183.523 62.1464 183.319 62.5316 183.114 62.9171C182.711 63.6778 182.305 64.4371 181.896 65.195C181.231 66.4276 180.573 67.664 179.919 68.9026C179.81 69.1093 179.7 69.3159 179.587 69.5289C178.213 72.137 176.911 74.7824 175.597 77.4215C174.269 80.0894 172.926 82.7462 171.524 85.3767C170.189 87.8883 168.93 90.4376 167.665 92.9851C167.083 94.1567 166.497 95.3266 165.912 96.4966C165.721 96.8773 165.531 97.258 165.341 97.6387C165.143 98.0341 165.143 98.0341 164.941 98.4375C165.191 98.2524 165.44 98.0674 165.697 97.8767C168.59 95.7376 171.529 93.6696 174.481 91.6124C175.552 90.8641 176.619 90.11 177.686 89.3554C179.489 88.0807 181.296 86.8122 183.105 85.5468C184.933 84.2688 186.759 82.9881 188.58 81.7016C188.78 81.5606 188.98 81.4195 189.186 81.2742C190.246 80.5259 191.304 79.7751 192.36 79.0214C192.583 78.8632 192.805 78.705 193.034 78.5421C193.456 78.2418 193.878 77.9408 194.299 77.6388C197.612 75.2846 197.612 75.2846 198.999 75.3113C199.841 75.5983 200.199 75.7255 200.684 76.4648C200.958 77.2888 200.958 77.2888 200.977 78.2226C200.152 79.7505 199.172 80.5317 197.754 81.4453C197.332 81.7261 196.911 82.0072 196.489 82.2887C196.266 82.4364 196.044 82.5841 195.814 82.7363C194.598 83.5507 193.403 84.3941 192.206 85.2356C191.834 85.4961 191.834 85.4961 191.455 85.7619C190.722 86.2758 189.99 86.7902 189.258 87.3047C188.931 87.5342 188.931 87.5342 188.597 87.7684C186.043 89.5621 183.503 91.3751 180.976 93.2065C179.496 94.2774 178.008 95.336 176.514 96.3867C174.576 97.7497 172.65 99.1293 170.732 100.52C170.533 100.665 170.334 100.809 170.129 100.957C169.922 101.116 169.715 101.274 169.502 101.437C168.896 101.853 168.34 102.163 167.685 102.484C166.49 103.116 165.421 103.747 164.648 104.883C163.982 107.055 164.263 109.422 164.392 111.658C164.413 112.279 164.431 112.901 164.448 113.523C164.493 115.039 164.564 116.552 164.648 118.066C168.828 115.144 168.828 115.144 172.998 112.207C175.528 110.419 178.066 108.642 180.605 106.867C181.332 106.359 182.059 105.85 182.785 105.341C185.716 103.287 188.651 101.239 191.59 99.1969C191.854 99.0132 192.119 98.8294 192.391 98.64C192.648 98.4615 192.906 98.2829 193.171 98.0989C193.7 97.7297 194.228 97.3583 194.754 96.9851C195.141 96.711 195.141 96.711 195.536 96.4313C195.766 96.2678 195.995 96.1042 196.232 95.9357C197.287 95.2339 197.796 94.9087 199.091 94.9768C200.098 95.2148 200.098 95.2148 200.665 95.5261C201.201 96.5025 201.27 97.3867 200.977 98.4375C199.754 100.04 197.791 101.079 196.125 102.165C194.989 102.91 193.881 103.694 192.773 104.48C192.352 104.779 191.93 105.078 191.508 105.377C191.178 105.611 191.178 105.611 190.843 105.849C189.548 106.764 188.249 107.673 186.951 108.582C186.698 108.758 186.445 108.935 186.185 109.118C185.949 109.283 185.713 109.448 185.47 109.618C185.261 109.765 185.051 109.911 184.836 110.062C184.36 110.392 183.88 110.714 183.398 111.035C185.765 111.263 188.101 111.349 190.477 111.326C190.736 111.324 190.996 111.321 191.263 111.319C192.34 111.308 193.417 111.296 194.495 111.278C195.291 111.265 196.088 111.259 196.885 111.253C197.249 111.244 197.249 111.244 197.62 111.236C198.983 111.23 199.874 111.314 200.977 112.207C201.573 113.101 201.733 113.518 201.529 114.57C200.992 115.742 199.876 116.393 198.849 117.12C198.281 117.522 197.719 117.932 197.158 118.342C196.031 119.163 194.898 119.976 193.765 120.788C192.864 121.434 191.966 122.085 191.069 122.735C189.156 124.121 187.235 125.496 185.303 126.855C179.616 130.858 174.008 134.972 168.457 139.16C168.819 139.239 169.181 139.317 169.553 139.398C179.645 141.691 188.366 147.643 193.945 156.445C198.318 163.737 199.903 171.36 199.881 179.773C199.881 180.272 199.882 180.77 199.884 181.268C199.886 182.606 199.885 183.945 199.883 185.283C199.882 186.693 199.883 188.102 199.884 189.512C199.885 191.878 199.884 194.244 199.881 196.61C199.878 199.334 199.879 202.058 199.882 204.782C199.885 207.133 199.885 209.484 199.884 211.835C199.883 213.234 199.883 214.633 199.885 216.032C199.886 217.348 199.885 218.663 199.882 219.979C199.881 220.458 199.881 220.937 199.882 221.416C199.893 225.562 199.636 229.642 198.45 233.643C198.374 233.901 198.299 234.159 198.221 234.425C195.589 243.008 189.202 250.912 181.341 255.262C176.636 257.742 172.089 259.073 166.755 259.069C166.356 259.071 165.957 259.073 165.557 259.075C164.48 259.081 163.403 259.082 162.326 259.082C161.651 259.083 160.975 259.084 160.299 259.086C157.934 259.091 155.569 259.093 153.204 259.093C151.013 259.093 148.822 259.099 146.63 259.108C144.739 259.116 142.847 259.119 140.955 259.118C139.83 259.118 138.705 259.12 137.579 259.126C126.396 259.184 118.269 256.39 110.212 248.512C102.637 240.558 100.155 230.538 100.148 219.834C100.147 219.352 100.145 218.871 100.144 218.39C100.14 217.092 100.138 215.794 100.137 214.496C100.136 213.682 100.135 212.867 100.133 212.053C100.129 209.495 100.126 206.938 100.125 204.38C100.124 201.446 100.119 198.512 100.11 195.578C100.104 193.298 100.101 191.018 100.101 188.737C100.1 187.381 100.099 186.025 100.093 184.669C100.05 172.878 101.187 161.633 109.277 152.344C109.482 152.104 109.687 151.863 109.898 151.616C115.533 145.158 123.27 140.426 131.836 139.16C130.235 137.865 128.578 136.66 126.892 135.48C125.061 134.197 123.251 132.891 121.454 131.561C118.994 129.741 116.518 127.944 114.035 126.156C113.373 125.679 112.712 125.201 112.051 124.722C109.89 123.157 107.723 121.6 105.542 120.062C105.339 119.918 105.135 119.774 104.926 119.626C103.93 118.922 102.931 118.225 101.922 117.54C101.733 117.409 101.543 117.279 101.348 117.144C100.994 116.9 100.638 116.659 100.28 116.421C99.267 115.718 98.7459 115.169 98.4375 113.965C98.496 113.145 98.5944 112.676 99.0988 112.025C99.7615 111.501 100.146 111.507 100.985 111.499C101.264 111.494 101.543 111.489 101.83 111.484C102.282 111.483 102.282 111.483 102.743 111.481C103.209 111.475 103.209 111.475 103.686 111.468C104.683 111.454 105.68 111.446 106.677 111.438C107.668 111.427 108.659 111.415 109.65 111.402C110.267 111.394 110.883 111.388 111.5 111.383C113.222 111.365 114.893 111.255 116.602 111.035C116.367 110.868 116.132 110.701 115.89 110.528C115.553 110.288 115.217 110.048 114.88 109.808C114.697 109.678 114.514 109.547 114.326 109.413C113.297 108.678 112.271 107.94 111.249 107.197C108.723 105.36 106.18 103.558 103.577 101.829C99.5247 99.1028 99.5247 99.1028 99.0828 97.6915C99.0015 96.7073 99.3154 96.2834 99.9023 95.5078C100.781 94.9218 100.781 94.9218 101.727 94.9436C103.06 95.2708 103.9 95.8208 104.993 96.6247C105.195 96.7687 105.397 96.9126 105.606 97.061C106.032 97.3649 106.458 97.6704 106.882 97.9774C107.693 98.5626 108.51 99.1375 109.328 99.7124C109.95 100.15 110.57 100.588 111.19 101.027C112.581 102.012 113.978 102.99 115.375 103.967C115.619 104.138 115.863 104.309 116.115 104.485C116.863 105.009 117.611 105.532 118.359 106.055C121.77 108.439 125.176 110.828 128.574 113.23C129.241 113.701 129.908 114.171 130.575 114.641C130.914 114.88 130.914 114.88 131.261 115.125C131.693 115.43 132.126 115.734 132.559 116.039C132.755 116.177 132.95 116.314 133.151 116.456C133.422 116.647 133.422 116.647 133.699 116.842C134.096 117.127 134.484 117.425 134.87 117.726C135.333 118.123 135.333 118.123 135.938 118.066C135.945 116.471 135.95 114.876 135.954 113.281C135.955 112.739 135.957 112.197 135.96 111.655C135.963 110.874 135.965 110.093 135.966 109.312C135.968 108.95 135.968 108.95 135.971 108.582C136.087 106.313 136.087 106.313 135.165 104.38C134.96 104.248 134.754 104.117 134.542 103.981C134.313 103.83 134.084 103.679 133.848 103.523C133.601 103.368 133.354 103.212 133.099 103.052C132.586 102.715 132.072 102.378 131.559 102.04C131.305 101.876 131.052 101.711 130.791 101.542C129.846 100.922 128.925 100.272 128.009 99.6093C127.848 99.4936 127.687 99.3779 127.52 99.2587C126.594 98.5927 125.67 97.9221 124.747 97.2507C122.481 95.6042 120.203 93.9842 117.883 92.4133C115.963 91.1114 114.091 89.7623 112.245 88.3569C110.691 87.1791 109.102 86.0557 107.501 84.9426C105.682 83.6774 103.87 82.4047 102.081 81.0974C101.902 80.9669 101.722 80.8364 101.537 80.7019C99.825 79.4439 99.825 79.4439 99.3164 78.8086C99.1257 77.5214 99.1774 76.9599 99.9207 75.8789C100.781 75.2929 100.781 75.2929 101.717 75.3067C103.109 75.6553 103.987 76.271 105.121 77.124C105.335 77.2803 105.55 77.4366 105.771 77.5977C106.224 77.9285 106.676 78.261 107.128 78.595C108.234 79.4136 109.351 80.2182 110.468 81.0241C110.687 81.1834 110.907 81.3426 111.133 81.5067C112.748 82.6745 114.381 83.8108 116.026 84.9348C119.164 87.08 122.258 89.2853 125.336 91.5161C127.278 92.9234 129.232 94.3135 131.195 95.6909C131.565 95.9511 131.565 95.9511 131.943 96.2166C133.058 96.9968 134.169 97.7609 135.352 98.4375C134.975 97.6249 134.596 96.8133 134.216 96.0022C134.115 95.7833 134.014 95.5645 133.91 95.339C133.105 93.6248 132.235 91.9495 131.348 90.2767C129.614 87.0038 127.968 83.6891 126.321 80.3713C124.845 77.3969 123.349 74.4358 121.795 71.501C120.431 68.9256 119.102 66.3325 117.773 63.739C117.524 63.252 117.274 62.7651 117.024 62.2781C116.394 61.0504 115.764 59.8226 115.137 58.5937C115.019 58.3709 114.9 58.148 114.779 57.9184C114.409 57.1123 114.426 56.5365 114.551 55.664C115.27 54.6906 115.701 54.2648 116.895 54.0161C118.081 54.2634 118.442 54.7562 119.238 55.664C119.668 56.3874 120.054 57.0918 120.426 57.843C120.591 58.1664 120.591 58.1664 120.758 58.4964C121.121 59.2111 121.48 59.9278 121.838 60.6445C122.095 61.152 122.352 61.6593 122.609 62.1664C123.156 63.2453 123.702 64.3249 124.246 65.405C125.53 67.9489 126.829 70.485 128.127 73.0218C128.557 73.8621 128.986 74.7026 129.416 75.5432C131.236 79.1057 133.065 82.6632 134.908 86.2136C135.068 86.5212 135.227 86.8287 135.392 87.1456C135.527 87.4053 135.662 87.6651 135.801 87.9327C136.153 88.6178 136.499 89.3048 136.843 89.9937C136.948 90.2037 137.053 90.4136 137.161 90.63C137.241 90.7895 137.32 90.9489 137.402 91.1133C138.222 87.4589 139.012 83.799 139.783 80.1338C139.896 79.5943 140.01 79.0549 140.124 78.5154C140.363 77.3794 140.602 76.2433 140.841 75.1071C141.464 72.1518 142.087 69.1968 142.711 66.2418C142.773 65.9496 142.835 65.6574 142.898 65.3564C143.312 63.3951 143.726 61.4339 144.141 59.4726C144.192 59.228 144.244 58.9834 144.297 58.7313C144.859 56.0724 145.422 53.4137 145.988 50.7557C146.135 50.0649 146.281 49.3741 146.427 48.6831C146.626 47.7456 146.825 46.8084 147.026 45.8713C147.11 45.4699 147.11 45.4699 147.196 45.0605C147.502 43.6385 147.802 42.2964 148.59 41.0522C149.121 40.7226 149.121 40.7226 150.146 40.7409ZM150 58.0078C149.335 59.8766 148.834 61.7462 148.41 63.6829C148.345 63.9781 148.279 64.2733 148.211 64.5774C147.994 65.5549 147.779 66.5329 147.565 67.511C147.412 68.2005 147.26 68.89 147.108 69.5795C145.829 75.3843 144.587 81.1972 143.353 87.0117C143.308 87.226 143.262 87.4402 143.215 87.661C142.952 88.9008 142.689 90.1407 142.428 91.3807C142.309 91.9398 142.191 92.4987 142.073 93.0576C142.002 93.3941 141.931 93.7306 141.858 94.0773C141.796 94.3692 141.735 94.661 141.671 94.9618C141.379 96.4296 141.174 97.8163 141.176 99.3159C141.175 99.661 141.175 100.006 141.174 100.362C141.176 100.736 141.177 101.111 141.178 101.496C141.178 101.898 141.178 102.299 141.178 102.701C141.177 103.787 141.179 104.873 141.181 105.96C141.183 107.097 141.183 108.233 141.184 109.37C141.184 111.521 141.187 113.671 141.19 115.822C141.194 118.73 141.195 121.637 141.197 124.545C141.2 129.124 141.206 133.702 141.211 138.281C147.205 138.281 153.199 138.281 159.375 138.281C159.444 131.71 159.444 131.71 159.48 125.139C159.481 124.812 159.481 124.812 159.482 124.479C159.572 102.159 159.572 102.159 155.54 80.2794C154.938 78.117 154.445 75.9361 153.968 73.7434C153.888 73.3803 153.809 73.0171 153.728 72.6429C153.573 71.9315 153.418 71.22 153.263 70.5085C152.346 66.3245 151.353 62.1577 150.293 58.0078C150.196 58.0078 150.1 58.0078 150 58.0078ZM109.277 116.602C110.199 117.545 111.164 118.322 112.244 119.073C112.612 119.333 112.981 119.594 113.349 119.854C113.544 119.992 113.739 120.129 113.941 120.271C115.004 121.024 116.059 121.789 117.114 122.552C117.564 122.878 118.015 123.203 118.465 123.529C118.69 123.691 118.914 123.854 119.146 124.021C120.47 124.979 121.795 125.935 123.119 126.891C124.222 127.688 125.325 128.485 126.426 129.283C127.74 130.234 129.054 131.183 130.371 132.129C130.603 132.295 130.834 132.461 131.072 132.633C131.759 133.125 132.447 133.616 133.136 134.106C133.451 134.332 133.451 134.332 133.772 134.563C133.966 134.701 134.161 134.839 134.362 134.981C134.532 135.102 134.703 135.224 134.878 135.349C135.394 135.697 135.394 135.697 136.23 135.937C136.303 134.395 136.356 132.854 136.391 131.31C136.406 130.786 136.426 130.262 136.451 129.738C136.69 126.713 136.69 126.713 135.652 123.986C134.899 123.378 134.152 122.919 133.301 122.461C132.876 122.161 132.455 121.856 132.038 121.545C131.636 121.264 131.233 120.983 130.829 120.703C130.426 120.423 130.024 120.142 129.622 119.861C129.424 119.726 129.227 119.591 129.024 119.452C128.32 118.945 128.32 118.945 127.621 118.351C125.514 116.625 124.007 116.274 121.322 116.373C120.802 116.378 120.802 116.378 120.272 116.383C119.176 116.396 118.082 116.425 116.986 116.455C116.239 116.467 115.491 116.478 114.744 116.487C112.921 116.513 111.099 116.552 109.277 116.602ZM169.938 120.161C168.908 121.088 167.782 121.885 166.663 122.699C165.463 123.552 165.463 123.552 164.355 124.512C164.329 125.357 164.322 126.195 164.327 127.04C164.327 127.293 164.328 127.546 164.328 127.807C164.33 128.619 164.333 129.431 164.337 130.243C164.339 130.792 164.34 131.341 164.341 131.89C164.344 133.239 164.349 134.588 164.355 135.937C166.088 134.798 167.788 133.624 169.464 132.404C169.928 132.067 170.391 131.731 170.855 131.395C171.089 131.225 171.323 131.055 171.564 130.88C172.675 130.074 173.789 129.27 174.902 128.467C175.342 128.149 175.781 127.832 176.221 127.515C177.1 126.88 177.979 126.245 178.857 125.61C179.075 125.453 179.293 125.296 179.517 125.134C179.955 124.818 180.392 124.502 180.83 124.186C181.958 123.371 183.086 122.556 184.213 121.74C184.674 121.407 185.135 121.073 185.596 120.74C185.925 120.501 185.925 120.501 186.262 120.258C187.682 119.232 189.111 118.223 190.56 117.238C190.786 117.068 190.786 117.068 191.016 116.895C191.016 116.798 191.016 116.701 191.016 116.602C188.823 116.496 186.631 116.425 184.437 116.376C183.693 116.356 182.95 116.328 182.207 116.292C177.005 116.048 173.805 116.557 169.938 120.161ZM129.785 144.434C129.423 144.53 129.06 144.626 128.687 144.725C120.464 147.201 113.349 153.042 109.193 160.553C106.335 165.967 103.898 172.808 105.176 179.004C105.375 178.804 105.575 178.605 105.78 178.4C105.984 178.198 105.984 178.198 106.192 177.992C106.491 177.69 106.784 177.382 107.071 177.068C108.123 175.944 109.143 175.222 110.486 174.463C112.383 173.251 112.832 171.869 113.382 169.81C114.419 166.016 117.5 162.974 120.703 160.84C124.72 158.609 128.807 158.042 133.301 157.617C133.424 157.139 133.424 157.139 133.549 156.651C134.855 151.779 136.921 147.793 141.415 145.155C142.218 144.703 143.029 144.27 143.848 143.848C143.848 143.751 143.848 143.654 143.848 143.555C136.757 143.338 136.757 143.338 129.785 144.434ZM156.445 143.555C157.551 144.39 158.688 145.172 159.833 145.952C160.547 146.484 160.547 146.484 161.188 147.136C161.665 147.725 161.665 147.725 162.305 147.656C162.384 147.828 162.464 148 162.546 148.177C162.884 148.815 163.258 149.314 163.715 149.872C165.469 152.183 166.327 154.822 166.992 157.617C167.34 157.642 167.687 157.668 168.045 157.694C172.972 158.1 176.986 159.106 181.055 162.012C181.274 162.168 181.493 162.324 181.718 162.484C184.704 164.853 186.828 168.627 187.72 172.29C188.208 173.429 188.814 173.747 189.862 174.39C191.751 175.598 193.116 176.96 194.531 178.711C194.725 178.614 194.918 178.518 195.117 178.418C195.442 170.063 192.764 162.062 187.5 155.566C187.272 155.284 187.043 155.002 186.808 154.712C181.529 148.586 173.989 144.534 165.957 143.604C164.207 143.485 162.448 143.525 160.693 143.536C160.281 143.538 159.868 143.539 159.455 143.54C158.452 143.544 157.449 143.549 156.445 143.555ZM140.973 151.373C138.323 154.643 137.765 157.932 137.988 162.012C138.449 165.058 140.244 167.86 142.629 169.777C145.863 172.017 149.063 172.607 152.93 171.973C156.375 171.135 158.967 169.11 160.84 166.113C162.389 162.911 163.003 159.34 161.829 155.896C161.19 154.385 160.384 153.049 159.375 151.758C159.235 151.577 159.095 151.397 158.95 151.211C156.933 148.924 153.828 147.588 150.84 147.304C147.017 147.214 143.615 148.592 140.973 151.373ZM119.531 167.871C118.844 168.806 118.287 169.761 117.773 170.801C117.63 171.084 117.63 171.084 117.483 171.373C116.199 174.282 116.399 177.626 117.427 180.567C118.088 182.188 118.989 183.531 120.117 184.863C120.264 185.042 120.411 185.22 120.562 185.403C122.482 187.534 125.567 189.12 128.446 189.303C129.229 189.315 130.009 189.309 130.792 189.294C131.062 189.292 131.333 189.289 131.611 189.286C132.272 189.28 132.933 189.27 133.594 189.258C133.72 188.913 133.846 188.567 133.976 188.212C136.113 182.53 139.216 179.259 144.727 176.66C144.727 176.467 144.727 176.273 144.727 176.074C144.507 175.974 144.287 175.875 144.061 175.772C139.544 173.633 136.413 170.748 134.473 166.113C134.223 165.322 133.999 164.537 133.81 163.729C133.739 163.549 133.667 163.369 133.594 163.184C128.613 161.523 122.866 164.242 119.531 167.871ZM166.699 163.184C166.442 163.858 166.234 164.506 166.04 165.198C164.55 170.039 161.579 172.941 157.182 175.291C156.648 175.561 156.108 175.819 155.566 176.074C155.566 176.268 155.566 176.461 155.566 176.66C155.822 176.771 156.077 176.881 156.34 176.995C160.574 178.952 163.956 181.779 165.673 186.261C165.938 186.985 166.182 187.712 166.422 188.445C166.62 189.222 166.62 189.222 166.992 189.551C171.543 189.575 175.843 188.904 179.352 185.752C182.103 182.871 183.566 179.302 183.489 175.334C183.163 171.661 181.557 168.819 178.912 166.315C175.848 163.756 172.129 162.751 168.161 162.831C167.517 162.875 167.517 162.875 166.699 163.184ZM110.479 180.131C106.251 184.461 105.077 189.656 105.119 195.53C105.12 195.993 105.12 196.455 105.121 196.918C105.123 198.127 105.129 199.337 105.136 200.546C105.142 201.783 105.144 203.021 105.147 204.258C105.153 206.68 105.163 209.102 105.176 211.523C106.157 210.55 106.157 210.55 107.109 209.549C108.143 208.437 109.162 207.731 110.486 206.982C112.383 205.77 112.811 204.404 113.363 202.349C114.676 197.763 118.54 194.81 122.461 192.48C121.606 191.829 120.731 191.218 119.843 190.613C118.747 189.846 117.792 189.084 116.895 188.086C116.694 187.887 116.694 187.887 116.489 187.684C114.274 185.359 112.953 182.085 112.207 179.004C111.511 179.004 110.976 179.696 110.479 180.131ZM187.793 179.297C187.708 179.58 187.622 179.863 187.534 180.155C185.772 185.828 182.816 189.079 177.832 192.187C178.476 192.878 179.14 193.37 179.938 193.872C183.416 196.172 186.481 199.485 187.348 203.714C187.753 205.68 189.006 206.444 190.6 207.494C192.003 208.424 193.069 209.444 194.134 210.757C194.265 210.913 194.396 211.069 194.531 211.23C194.628 211.23 194.725 211.23 194.824 211.23C194.852 208.589 194.872 205.948 194.885 203.307C194.891 202.08 194.899 200.853 194.913 199.626C194.925 198.439 194.932 197.252 194.935 196.064C194.938 195.615 194.942 195.165 194.948 194.716C195.028 188.883 193.298 184.19 189.326 179.868C188.706 179.201 188.706 179.201 187.793 179.297ZM141.199 184.317C138.443 187.677 137.943 191.179 138.281 195.41C138.934 198.745 141.17 201.336 143.848 203.32C146.564 205.109 149.786 205.362 152.93 204.785C156.332 203.822 158.919 201.886 160.84 198.926C162.42 195.779 162.875 192.341 161.865 188.928C160.551 185.439 158.121 182.794 154.742 181.238C149.99 179.247 144.708 180.64 141.199 184.317ZM121.156 198.867C119.15 200.599 117.993 202.57 117.188 205.078C117.131 205.251 117.075 205.424 117.017 205.602C116.325 209.262 116.916 212.678 118.872 215.826C121.123 218.961 123.922 220.934 127.734 221.777C128.804 221.843 129.868 221.833 130.939 221.814C131.223 221.811 131.507 221.809 131.8 221.806C132.496 221.799 133.191 221.789 133.887 221.777C133.951 221.558 134.015 221.338 134.081 221.111C135.55 216.372 138.064 213.103 142.383 210.644C142.644 210.495 142.905 210.346 143.175 210.192C143.787 209.849 144.401 209.511 145.02 209.18C144.245 208.663 143.483 208.25 142.657 207.825C138.14 205.363 135.411 201.88 133.923 196.948C133.81 196.534 133.699 196.119 133.594 195.703C128.987 194.99 124.844 196.049 121.156 198.867ZM166.699 195.703C166.628 195.951 166.557 196.199 166.484 196.454C165.043 201.331 162.697 205.129 158.114 207.664C157.271 208.089 156.425 208.497 155.566 208.887C155.566 209.08 155.566 209.273 155.566 209.473C155.828 209.59 156.091 209.708 156.361 209.829C160.478 211.738 163.788 214.555 165.527 218.848C165.78 219.624 166.011 220.402 166.227 221.19C166.354 221.771 166.354 221.771 166.699 222.07C171.215 222.448 175.507 221.565 179.055 218.61C181.575 216.256 183.183 213.345 183.491 209.899C183.614 206.009 182.632 203.103 180.176 200.098C179.946 199.813 179.946 199.813 179.711 199.522C177.813 197.407 174.691 195.839 171.847 195.658C171.064 195.646 170.284 195.652 169.501 195.666C169.231 195.669 168.96 195.672 168.682 195.674C168.021 195.681 167.36 195.691 166.699 195.703ZM110.251 212.861C106.705 216.574 105.061 221.436 105.114 226.512C105.435 232.355 107.979 238.779 111.914 243.164C112.011 243.164 112.107 243.164 112.207 243.164C112.236 242.828 112.264 242.491 112.294 242.144C112.688 237.901 113.437 234.361 116.016 230.859C116.166 230.652 116.315 230.445 116.47 230.231C117.745 228.627 119.333 227.571 121.028 226.459C121.691 226.005 122.222 225.594 122.754 225C122.506 224.855 122.258 224.709 122.003 224.559C116.703 221.406 113.814 217.544 112.207 211.523C111.472 211.523 110.762 212.405 110.251 212.861ZM187.793 211.816C187.736 212.068 187.678 212.32 187.619 212.58C186.369 217.522 183.64 221.346 179.26 224.011C178.689 224.345 178.116 224.676 177.539 225C178.262 225.78 179.066 226.353 179.938 226.959C184.17 230.033 186.723 233.869 187.603 239.085C187.796 240.344 187.951 241.605 188.086 242.871C192.358 238.829 194.749 232.121 194.948 226.294C194.984 221.191 193.382 216.747 189.906 212.956C189.226 212.375 188.638 212.095 187.793 211.816ZM140.808 217.584C138.466 220.768 137.618 224.197 138.153 228.113C138.908 231.608 141.064 234.306 143.977 236.267C146.774 237.953 149.79 238.252 152.93 237.524C156.116 236.66 158.581 235.191 160.345 232.324C162.113 229.159 162.899 226.102 162.06 222.478C160.886 218.869 158.882 216.316 155.566 214.453C150.467 211.861 144.483 213.287 140.808 217.584ZM119.824 233.203C119.128 234.137 118.573 235.086 118.066 236.133C117.967 236.333 117.868 236.533 117.765 236.739C116.717 239.281 116.797 242.619 117.664 245.196C119.412 249.266 122.226 251.697 126.27 253.418C128.815 254.34 131.5 254.348 134.18 254.297C134.262 254.059 134.344 253.822 134.428 253.577C136.271 248.486 138.88 245.6 143.572 243.066C144.437 242.627 144.437 242.627 145.02 241.992C144.743 241.86 144.467 241.729 144.182 241.593C139.728 239.395 136.29 236.541 134.555 231.742C134.177 230.582 133.868 229.411 133.594 228.223C128.14 228.002 123.608 229.092 119.824 233.203ZM166.699 228.223C166.614 228.527 166.529 228.831 166.441 229.145C165.052 233.935 162.888 237.627 158.496 240.234C157.438 240.765 156.367 241.248 155.273 241.699C155.273 241.893 155.273 242.086 155.273 242.285C155.557 242.424 155.84 242.562 156.132 242.705C160.926 245.113 164.025 248.105 165.836 253.245C166.042 253.974 166.042 253.974 166.406 254.297C170.851 254.702 175.303 253.527 178.802 250.726C181.425 248.257 183.024 244.842 183.197 241.26C183.144 237.721 181.655 234.816 179.288 232.27C175.86 228.985 172.027 228.127 167.419 228.202C167.182 228.209 166.944 228.216 166.699 228.223ZM141.833 249.701C140.714 250.887 139.16 252.57 139.16 254.297C146.411 254.297 153.662 254.297 161.133 254.297C160.135 251.302 158.102 248.902 155.294 247.389C150.438 245.239 145.737 246.01 141.833 249.701Z" fill="black"/>
</svg>
