<svg width="300" height="300" viewBox="0 0 300 300" fill="none" xmlns="http://www.w3.org/2000/svg">
<path d="M170.874 79.3579C171.338 79.7602 171.802 80.163 172.265 80.5664C172.487 80.7243 172.709 80.8821 172.938 81.0448C173.103 81.177 173.267 81.3092 173.437 81.4453C173.437 81.6387 173.437 81.8321 173.437 82.0313C173.727 82.128 174.017 82.2246 174.316 82.3242C180.057 87.6082 182.971 95.5904 184.506 103.021C187.004 115.024 191.508 125.982 197.066 136.868C199.303 141.26 201.335 145.661 203.027 150.293C203.116 150.535 203.205 150.778 203.297 151.027C208.464 165.391 207.651 181.316 201.269 195.117C198.58 200.791 195.012 205.775 190.722 210.352C190.588 210.496 190.453 210.641 190.314 210.79C181.001 220.713 167.102 227.127 153.474 227.674C136.942 228.052 122.564 222.809 110.449 211.523C110.232 211.323 110.016 211.122 109.793 210.916C106.579 207.827 104.031 204.146 101.66 200.391C101.461 200.08 101.263 199.769 101.059 199.449C97.1543 192.993 94.797 185.57 93.7495 178.125C93.7219 177.935 93.6943 177.744 93.6659 177.548C91.5717 161.42 97.6212 146.904 104.974 132.99C109.719 123.988 113.237 114.823 115.201 104.829C116.899 96.2179 119.891 89.0701 125.976 82.6172C126.152 82.4223 126.328 82.2275 126.509 82.0267C130.81 77.4465 136.85 74.2549 142.968 72.9492C143.389 72.8518 143.389 72.8518 143.817 72.7524C153.23 70.9242 163.431 73.2933 170.874 79.3579ZM130.279 88.5681C125.827 93.7074 123.567 99.8028 122.369 106.421C120.151 118.585 115.063 129.707 109.343 140.575C105.255 148.354 102.207 156.194 101.074 164.941C101.035 165.232 100.996 165.523 100.956 165.823C99.5766 178.179 103.365 191.38 111.074 201.121C112.183 202.489 113.328 203.808 114.55 205.078C114.69 205.225 114.829 205.372 114.972 205.523C118.442 209.168 122.17 212.003 126.562 214.453C126.883 214.634 127.205 214.815 127.536 215.001C138.837 221.006 152.778 221.838 164.923 218.126C172.342 215.727 178.526 211.744 184.277 206.543C184.474 206.367 184.67 206.192 184.873 206.011C186.645 204.34 188.085 202.328 189.55 200.391C189.738 200.143 189.926 199.894 190.12 199.639C197.868 188.99 200.689 175.528 198.773 162.582C197.401 154.372 194.099 146.755 190.21 139.453C184.186 128.134 179.815 116.551 177.233 103.986C175.608 96.1636 171.989 88.9607 165.217 84.351C153.644 77.0041 139.767 78.579 130.279 88.5681Z" fill="black"/>
<path d="M158.788 141.797C159.204 142.16 159.614 142.533 160.014 142.914C161.157 143.993 162.357 144.704 163.731 145.441C165.803 146.557 167.585 147.827 169.334 149.414C169.606 149.65 169.606 149.65 169.884 149.891C175.183 154.785 178.179 162.361 178.481 169.463C178.708 177.83 175.923 184.957 170.386 191.23C165.598 196.251 158.744 199.639 151.772 199.903C143.668 200.022 136.798 197.936 130.771 192.286C125.277 186.873 121.918 179.993 121.751 172.248C121.708 163.767 124.23 156.388 130.153 150.213C132.435 147.947 135.004 146.278 137.827 144.766C138.887 144.193 139.785 143.627 140.66 142.786C145.632 138.056 153.282 138.087 158.788 141.797Z" fill="black"/>
</svg>
