<svg width="300" height="300" viewBox="0 0 300 300" fill="none" xmlns="http://www.w3.org/2000/svg">
<path d="M157.619 45.9961C158.525 46.8281 158.863 47.4801 158.943 48.6826C158.951 49.1734 158.954 49.6644 158.951 50.1552C158.954 50.4241 158.957 50.6929 158.96 50.9698C158.968 51.856 158.969 52.742 158.969 53.6282C158.974 54.2435 158.979 54.8588 158.984 55.4742C158.997 57.092 159.003 58.7097 159.007 60.3276C159.013 61.9792 159.025 63.6307 159.037 65.2822C159.059 68.5215 159.074 71.7607 159.084 75C159.297 74.7266 159.511 74.4533 159.731 74.1717C160.018 73.805 160.305 73.4383 160.592 73.0717C160.732 72.8925 160.872 72.7133 161.016 72.5286C162.227 70.9835 163.488 69.4853 164.762 67.9928C165.469 67.164 166.16 66.3235 166.847 65.4785C167.811 64.295 168.789 63.1257 169.777 61.9629C171.459 59.9828 173.111 57.9792 174.734 55.9502C174.965 55.6624 175.197 55.3746 175.435 55.0781C175.642 54.8183 175.85 54.5585 176.063 54.2908C176.895 53.3491 177.454 52.7898 178.713 52.6062C179.821 52.7679 180.089 53.0227 180.763 53.9062C180.91 54.8473 180.91 54.8473 180.91 55.9746C180.913 56.2835 180.913 56.2835 180.915 56.5987C180.919 57.2783 180.914 57.9576 180.909 58.6372C180.909 59.1108 180.909 59.5845 180.91 60.0581C180.91 61.0506 180.907 62.043 180.9 63.0355C180.892 64.305 180.893 65.5743 180.896 66.8439C180.898 67.8221 180.896 68.8003 180.892 69.7785C180.891 70.2464 180.891 70.7143 180.892 71.1822C180.893 71.8378 180.888 72.4932 180.882 73.1488C180.88 73.5213 180.879 73.8938 180.877 74.2775C180.682 76.0222 179.833 77.196 178.731 78.5156C177.87 79.5512 177.11 80.6139 176.369 81.7383C178.452 81.0332 180.536 80.3277 182.619 79.6217C183.587 79.2938 184.555 78.966 185.523 78.6385C186.639 78.2607 187.755 77.8824 188.872 77.504C189.214 77.3883 189.556 77.2725 189.909 77.1533C191.724 76.5373 193.527 75.9009 195.316 75.2095C196.326 74.8992 197.054 74.9614 198.049 75.293C198.635 75.7874 198.635 75.7874 198.927 76.4648C198.906 77.5083 198.776 78.0454 198.122 78.8635C197.463 79.3945 197.463 79.3945 196.765 79.7779C195.908 80.3318 195.416 80.8987 194.789 81.7017C194.448 82.1311 194.448 82.1311 194.1 82.5691C193.981 82.7205 193.861 82.8718 193.737 83.0277C193.091 83.8323 192.419 84.6153 191.75 85.4004C190.761 86.563 189.783 87.7325 188.82 88.916C187.857 90.0996 186.878 91.2688 185.89 92.4316C184.675 93.8626 183.476 95.3054 182.291 96.7621C181.827 97.3317 181.361 97.8992 180.893 98.465C180.651 98.758 180.409 99.0511 180.159 99.353C179.828 99.753 179.828 99.753 179.49 100.161C178.976 100.689 178.976 100.689 179.006 101.074C179.199 101.067 179.392 101.06 179.59 101.052C181.606 100.975 183.621 100.899 185.636 100.824C186.387 100.796 187.139 100.767 187.89 100.739C188.972 100.697 190.054 100.657 191.136 100.616C191.47 100.604 191.804 100.591 192.148 100.578C193.041 100.545 193.933 100.515 194.826 100.488C195.182 100.476 195.182 100.476 195.545 100.464C196.578 100.442 197.121 100.462 198.049 100.964C198.635 101.66 198.635 101.66 198.818 102.521C198.57 103.734 198.147 104.134 197.17 104.883C196.487 105.08 195.803 105.275 195.119 105.469C194.913 105.854 194.719 106.245 194.533 106.641C194.186 107.02 193.825 107.385 193.453 107.739C192.469 108.678 191.581 109.675 190.691 110.701C189.781 111.734 188.833 112.729 187.886 113.727C186.333 115.37 184.789 117.019 183.259 118.684C182.07 119.976 180.868 121.255 179.665 122.534C178.148 124.147 176.65 125.771 175.197 127.441C175.579 128.28 175.879 128.709 176.552 129.382C177.248 130.078 177.248 130.078 177.248 130.664C177.441 130.664 177.635 130.664 177.834 130.664C177.834 130.857 177.834 131.051 177.834 131.25C178.088 131.356 178.088 131.356 178.348 131.464C179.133 131.908 179.571 132.411 180.156 133.098C181.685 134.839 183.317 136.456 184.969 138.078C185.704 138.801 186.435 139.526 187.167 140.25C188.523 141.593 189.88 142.934 191.241 144.27C192.195 145.207 193.146 146.147 194.094 147.09C194.453 147.445 194.813 147.799 195.175 148.152C195.681 148.647 196.183 149.146 196.684 149.646C196.831 149.787 196.978 149.928 197.129 150.073C198.93 151.895 199.964 154.041 200.001 156.61C199.997 156.874 199.994 157.139 199.99 157.412C199.993 157.701 199.995 157.99 199.997 158.288C200.002 159.249 199.997 160.21 199.991 161.171C199.993 161.864 199.995 162.556 199.998 163.248C200.003 165.123 199.999 166.997 199.994 168.872C199.991 170.043 199.99 171.215 199.991 172.387C199.991 172.582 199.991 172.776 199.991 172.977C199.992 173.373 199.992 173.769 199.992 174.165C199.995 177.661 199.99 181.157 199.981 184.653C199.973 188.041 199.971 191.43 199.975 194.818C199.98 198.513 199.981 202.208 199.976 205.903C199.976 206.298 199.975 206.692 199.975 207.086C199.974 207.28 199.974 207.474 199.974 207.674C199.972 209.038 199.973 210.402 199.975 211.766C199.977 213.603 199.974 215.439 199.966 217.276C199.964 217.95 199.964 218.623 199.966 219.297C199.968 220.217 199.964 221.137 199.957 222.057C199.96 222.323 199.962 222.589 199.964 222.863C199.937 224.965 199.362 226.463 198.023 228.084C197.809 228.29 197.595 228.496 197.375 228.708C197.136 228.941 196.898 229.174 196.653 229.414C196.283 229.767 196.283 229.767 195.906 230.127C195.418 230.599 194.931 231.072 194.445 231.546C194.23 231.752 194.015 231.958 193.793 232.17C193.205 232.771 192.655 233.38 192.106 234.016C191 235.292 189.824 236.485 188.626 237.674C188.404 237.895 188.183 238.116 187.955 238.343C187.255 239.042 186.555 239.739 185.854 240.436C185.381 240.907 184.909 241.378 184.437 241.849C183.571 242.712 182.705 243.575 181.838 244.437C181.653 244.622 181.467 244.807 181.276 244.998C180.956 245.316 180.636 245.635 180.315 245.953C179.55 246.715 178.821 247.497 178.108 248.309C177.048 249.489 175.972 250.65 174.867 251.788C174.657 252.012 174.657 252.012 174.443 252.239C172.833 253.875 171.458 254.339 169.219 254.41C168.452 254.417 167.686 254.418 166.92 254.415C166.496 254.417 166.072 254.419 165.649 254.421C164.502 254.427 163.356 254.426 162.209 254.425C161.25 254.424 160.292 254.425 159.333 254.427C157.07 254.431 154.807 254.431 152.544 254.428C150.214 254.424 147.883 254.428 145.552 254.436C143.548 254.443 141.543 254.445 139.538 254.443C138.343 254.442 137.147 254.443 135.951 254.448C134.826 254.452 133.702 254.451 132.577 254.445C132.166 254.444 131.754 254.445 131.343 254.448C127.889 254.472 126.083 253.933 123.63 251.521C123.421 251.31 123.213 251.099 122.998 250.882C122.771 250.658 122.545 250.433 122.311 250.202C121.567 249.463 120.828 248.72 120.088 247.976C119.57 247.459 119.051 246.941 118.532 246.424C117.308 245.202 116.087 243.977 114.868 242.751C113.898 241.777 112.925 240.805 111.95 239.836C110.602 238.494 109.256 237.149 107.913 235.803C107.402 235.291 106.891 234.781 106.379 234.271C105.661 233.557 104.948 232.839 104.235 232.12C104.025 231.912 103.815 231.704 103.598 231.49C101.836 229.697 100.166 227.576 100.156 224.959C100.154 224.711 100.153 224.463 100.151 224.207C100.151 223.935 100.15 223.662 100.15 223.381C100.148 223.092 100.147 222.802 100.145 222.504C100.141 221.529 100.138 220.554 100.136 219.579C100.133 218.882 100.13 218.184 100.127 217.487C100.119 215.391 100.113 213.296 100.108 211.2C100.107 210.608 100.105 210.016 100.104 209.424C100.095 205.746 100.087 202.068 100.082 198.39C100.081 197.538 100.08 196.686 100.078 195.834C100.078 195.622 100.078 195.411 100.077 195.193C100.072 191.764 100.06 188.336 100.046 184.908C100.03 181.387 100.022 177.867 100.02 174.346C100.018 172.369 100.014 170.393 100.002 168.417C99.9914 166.557 99.9889 164.697 99.9928 162.837C99.9928 162.155 99.9898 161.473 99.9835 160.791C99.9754 159.859 99.9782 158.927 99.9837 157.994C99.9787 157.726 99.9738 157.457 99.9688 157.18C100.006 154.653 101.268 152.905 103.036 151.167C103.229 150.976 103.422 150.784 103.62 150.586C103.924 150.291 103.924 150.291 104.233 149.99C104.447 149.778 104.661 149.566 104.881 149.348C105.558 148.678 106.237 148.011 106.917 147.345C107.595 146.677 108.273 146.008 108.95 145.339C109.369 144.925 109.789 144.512 110.21 144.099C111.147 143.176 112.051 142.243 112.909 141.245C114.136 139.822 115.463 138.506 116.794 137.183C117.058 136.919 117.322 136.656 117.594 136.385C118.287 135.693 118.981 135.001 119.676 134.31C120.387 133.601 121.098 132.892 121.809 132.183C123.198 130.797 124.588 129.412 125.978 128.027C125.67 127.375 125.43 126.893 124.916 126.379C124.717 126.18 124.717 126.18 124.513 125.977C124.513 125.783 124.513 125.59 124.513 125.391C124.32 125.391 124.127 125.391 123.927 125.391C123.514 124.971 123.514 124.971 123.03 124.384C121.839 122.982 120.551 121.699 119.24 120.41C117.781 118.976 116.369 117.53 115.035 115.978C114.279 115.12 113.466 114.324 112.648 113.525C111.44 112.332 110.28 111.125 109.182 109.829C108.613 109.187 108.007 108.594 107.393 107.996C103.536 104.191 103.536 104.191 103.328 102.283C103.42 101.367 103.42 101.367 103.879 100.73C104.86 99.9944 105.495 100.069 106.711 100.104C106.917 100.109 107.123 100.113 107.335 100.118C107.984 100.136 108.631 100.164 109.279 100.195C109.581 100.21 109.581 100.21 109.889 100.224C111.274 100.295 112.657 100.389 114.04 100.488C116.753 100.681 119.448 100.827 122.17 100.781C121.971 100.551 121.772 100.32 121.568 100.082C120.055 98.3153 118.589 96.5299 117.184 94.6756C116.146 93.3128 115.061 91.992 113.967 90.6738C112.51 88.9179 111.096 87.1391 109.715 85.3237C108.766 84.0805 107.783 82.8635 106.803 81.6445C106.053 80.7115 105.308 79.7756 104.572 78.8315C104.428 78.6462 104.283 78.461 104.134 78.2701C103.861 77.9195 103.589 77.5684 103.318 77.2168C102.77 76.5134 102.23 75.8626 101.579 75.2518C101 74.6247 100.916 74.3578 100.929 73.5168C101.076 72.3633 101.076 72.3633 101.552 71.7773C102.711 71.2893 103.678 71.3677 104.854 71.7865C105.15 71.9285 105.445 72.0705 105.75 72.2168C106.09 72.378 106.43 72.5392 106.781 72.7053C107.15 72.8842 107.518 73.0632 107.887 73.2422C108.271 73.4249 108.654 73.6073 109.038 73.7894C109.856 74.1784 110.674 74.5692 111.491 74.9614C113.53 75.9393 115.574 76.9051 117.619 77.8697C118.282 78.1834 118.945 78.4988 119.608 78.8143C120.015 79.007 120.421 79.1997 120.828 79.3922C121.015 79.4818 121.202 79.5713 121.395 79.6635C122.328 80.1262 122.328 80.1262 123.342 80.2734C123.158 80.0332 122.974 79.7931 122.785 79.5456C122.543 79.2267 122.302 78.9078 122.06 78.5889C121.939 78.431 121.818 78.2731 121.694 78.1105C120.487 76.5146 120.047 75.615 120.029 73.5936C120.027 73.3957 120.024 73.1979 120.022 72.9941C120.015 72.3417 120.012 71.6893 120.01 71.0369C120.008 70.5823 120.005 70.1277 120.002 69.6731C119.997 68.7208 119.995 67.7685 119.994 66.8161C119.993 65.5971 119.982 64.3783 119.968 63.1594C119.959 62.2206 119.957 61.282 119.957 60.3432C119.956 59.8938 119.952 59.4445 119.946 58.9951C119.938 58.366 119.94 57.7375 119.943 57.1084C119.942 56.7508 119.94 56.3933 119.939 56.0249C120.17 54.8089 120.629 54.3757 121.584 53.6133C122.426 53.4119 122.426 53.4119 123.342 53.6133C125.192 54.8469 126.429 56.6394 127.768 58.3843C128.558 59.4088 129.384 60.3961 130.226 61.377C131.489 62.8518 132.7 64.3607 133.894 65.8923C134.895 67.176 135.918 68.4391 136.953 69.6952C137.824 70.7574 138.681 71.8311 139.538 72.9046C139.7 73.1068 139.862 73.3091 140.028 73.5175C140.423 74.0116 140.818 74.5058 141.213 75C141.214 74.6539 141.215 74.3078 141.216 73.9513C141.227 70.6922 141.244 67.4332 141.267 64.1742C141.278 62.4986 141.288 60.8231 141.292 59.1475C141.296 57.5309 141.307 55.9144 141.321 54.2979C141.325 53.6807 141.327 53.0635 141.327 52.4462C141.328 51.5827 141.336 50.7194 141.346 49.8559C141.343 49.4718 141.343 49.4718 141.341 49.08C141.371 47.3468 141.371 47.3468 142.065 46.4238C142.916 45.8296 143.455 45.8305 144.464 45.8794C145.314 46.0573 145.69 46.4839 146.193 47.168C146.66 48.101 146.531 49.1105 146.532 50.1354C146.534 50.3847 146.535 50.6341 146.537 50.891C146.541 51.7322 146.544 52.5734 146.546 53.4146C146.549 54.0163 146.552 54.618 146.555 55.2197C146.563 56.8628 146.569 58.506 146.575 60.1491C146.581 61.8816 146.589 63.614 146.597 65.3465C146.61 68.272 146.622 71.1975 146.633 74.1231C146.649 78.1923 146.666 82.2615 146.684 86.3307C146.697 89.1941 146.709 92.0576 146.721 94.9211C146.724 95.6025 146.727 96.2839 146.73 96.9653C146.771 106.831 146.786 116.697 146.779 126.563C149.003 126.563 151.226 126.563 153.517 126.563C153.516 125.594 153.515 124.626 153.513 123.629C153.502 114.751 153.493 105.874 153.487 96.9958C153.487 95.8323 153.486 94.6687 153.485 93.5052C153.485 93.2735 153.485 93.0419 153.485 92.8032C153.482 89.0526 153.478 85.3019 153.472 81.5513C153.467 77.7027 153.463 73.8541 153.462 70.0056C153.461 67.6308 153.459 65.2561 153.454 62.8814C153.451 61.0604 153.45 59.2394 153.451 57.4184C153.451 56.6714 153.45 55.9244 153.447 55.1774C153.445 54.1582 153.445 53.139 153.447 52.1198C153.445 51.8237 153.443 51.5276 153.442 51.2225C153.457 47.7185 153.457 47.7185 154.524 46.3257C155.58 45.5657 156.418 45.6531 157.619 45.9961ZM175.197 62.9883C173.212 65.0241 171.413 67.2211 169.631 69.4336C169.192 69.9711 168.752 70.5082 168.312 71.0449C168.093 71.3127 167.874 71.5804 167.648 71.8563C167.224 72.3745 166.8 72.8925 166.376 73.4104C165.702 74.2327 165.03 75.0557 164.357 75.8789C164.206 76.064 164.054 76.249 163.898 76.4397C163.398 77.0519 162.898 77.6647 162.398 78.2776C162.241 78.4689 162.085 78.6603 161.923 78.8574C161.624 79.2247 161.327 79.5939 161.034 79.9654C160.726 80.3468 160.409 80.7214 160.081 81.0856C158.734 82.6671 158.549 83.8564 158.619 85.8948C158.622 86.1711 158.624 86.4474 158.627 86.7321C158.636 87.6069 158.658 88.4809 158.681 89.3555C158.69 89.9517 158.698 90.5479 158.705 91.1442C158.724 92.599 158.755 94.0533 158.791 95.5078C159.836 94.4715 160.828 93.4114 161.775 92.2852C161.915 92.1193 162.055 91.9534 162.2 91.7825C163.257 90.5201 164.267 89.2283 165.262 87.9164C166.252 86.6158 167.277 85.3469 168.312 84.082C169.828 82.2291 171.336 80.3681 172.74 78.4288C173.146 77.9297 173.146 77.9297 173.748 77.3837C175.405 75.7329 175.698 74.3415 175.719 72.0863C175.712 70.9935 175.676 69.9031 175.636 68.811C175.625 68.2457 175.614 67.6804 175.604 67.115C175.579 65.7388 175.538 64.3638 175.49 62.9883C175.393 62.9883 175.297 62.9883 175.197 62.9883ZM125.392 63.5742C124.517 71.0502 124.517 71.0502 126.894 77.7283C127.374 78.234 127.866 78.7118 128.383 79.1798C129.372 80.1357 130.154 81.2635 130.977 82.3608C131.323 82.8065 131.67 83.2513 132.018 83.6952C132.186 83.9089 132.353 84.1225 132.525 84.3427C133.499 85.5862 134.474 86.8293 135.452 88.0703C135.998 88.7641 136.543 89.4593 137.086 90.1554C139.089 92.7353 139.089 92.7353 141.213 95.2148C141.309 95.2148 141.406 95.2148 141.506 95.2148C141.564 93.605 141.606 91.9958 141.634 90.3851C141.646 89.8386 141.662 89.2922 141.682 88.746C141.863 84.5161 141.863 84.5161 139.803 80.9297C139.591 80.7131 139.38 80.4966 139.162 80.2734C138.821 79.8561 138.483 79.4363 138.149 79.0134C137.822 78.621 137.495 78.2292 137.166 77.8381C135.598 75.9528 134.065 74.0446 132.556 72.1115C131.547 70.8191 130.524 69.5381 129.494 68.2617C129.158 67.8437 129.158 67.8437 128.815 67.4171C128.471 66.9923 128.471 66.9923 128.121 66.5588C127.914 66.3032 127.707 66.0475 127.495 65.7841C126.829 65.0064 126.119 64.2941 125.392 63.5742ZM113.088 81.4453C113.988 82.8519 114.99 84.1325 116.054 85.4187C117.237 86.861 118.403 88.3109 119.533 89.7949C120.781 91.4315 122.071 93.0302 123.373 94.6235C124.417 95.9011 125.441 97.1909 126.454 98.4924C127.616 99.9825 128.817 101.431 130.045 102.866C130.995 103.981 131.909 105.118 132.808 106.274C134.529 108.487 136.314 110.645 138.102 112.804C138.542 113.337 138.978 113.873 139.412 114.411C139.65 114.705 139.888 114.999 140.132 115.302C140.337 115.556 140.541 115.81 140.751 116.072C140.904 116.247 141.056 116.421 141.213 116.602C141.309 116.602 141.406 116.602 141.506 116.602C141.588 114.711 141.644 112.82 141.683 110.928C141.699 110.286 141.721 109.644 141.749 109.002C142.046 104.819 142.046 104.819 140.435 101.109C139.754 100.369 139.028 99.6992 138.283 99.0234C137.926 98.5938 137.58 98.1557 137.248 97.7062C137.031 97.419 137.031 97.419 136.81 97.1259C136.667 96.9364 136.525 96.7468 136.379 96.5515C136.219 96.3436 136.06 96.1358 135.896 95.9216C135.134 94.9277 134.39 93.9288 133.681 92.8963C131.928 90.3967 130.12 89.121 127.325 87.9317C126.088 87.3886 124.878 86.7893 123.664 86.1978C121.998 85.3868 120.325 84.5889 118.654 83.7891C118.379 83.657 118.104 83.525 117.821 83.3889C117.116 83.0511 116.411 82.7148 115.706 82.3791C115.504 82.2821 115.302 82.185 115.094 82.085C114.133 81.6028 114.133 81.6028 113.088 81.4453ZM185.476 83.9219C185.248 84.0014 185.02 84.0809 184.784 84.1629C184.395 84.2966 184.395 84.2966 183.998 84.433C183.717 84.5324 183.435 84.6319 183.145 84.7343C182.709 84.8858 182.709 84.8858 182.264 85.0404C181.646 85.2556 181.029 85.4719 180.412 85.6892C179.477 86.018 178.542 86.3429 177.605 86.6673C177.004 86.8772 176.403 87.0874 175.802 87.2978C175.526 87.3937 175.25 87.4896 174.965 87.5884C170.698 89.0451 170.698 89.0451 167.488 92.0471C167.333 92.2494 167.177 92.4517 167.016 92.6602C166.686 93.0903 166.359 93.5226 166.034 93.9569C165.344 94.8752 164.637 95.7792 163.93 96.6841C163.593 97.1156 163.258 97.5481 162.924 97.9817C162.767 98.1853 162.61 98.389 162.448 98.5989C162.29 98.8127 162.131 99.0266 161.968 99.247C161.427 99.9023 161.427 99.9023 160.723 100.514C159.011 102.135 158.639 103.365 158.542 105.678C158.527 107.337 158.571 108.992 158.626 110.651C158.639 111.342 158.651 112.033 158.662 112.724C158.691 114.408 158.735 116.09 158.791 117.773C159.627 116.95 160.437 116.127 161.183 115.22C161.346 115.021 161.51 114.823 161.679 114.618C161.85 114.408 162.02 114.199 162.197 113.983C162.377 113.763 162.558 113.542 162.744 113.315C163.966 111.82 165.166 110.308 166.352 108.784C167.935 106.76 169.579 104.786 171.217 102.807C171.845 102.049 172.468 101.287 173.091 100.525C173.399 100.149 173.399 100.149 173.713 99.765C174.126 99.2588 174.539 98.7522 174.951 98.2452C176.147 96.7766 177.357 95.3212 178.584 93.8782C179.693 92.5736 180.777 91.2537 181.84 89.9117C183.413 87.9508 185.022 86.0196 186.623 84.082C186.057 83.7209 186.057 83.7209 185.476 83.9219ZM112.209 105.469C113.429 107.247 114.835 108.717 116.367 110.222C117.2 111.042 118.011 111.86 118.764 112.756C119.95 114.157 121.273 115.426 122.582 116.71C124.096 118.203 125.543 119.738 126.825 121.437C129.468 125.004 129.468 125.004 133.348 126.83C136.153 127.137 139.006 126.889 141.799 126.563C141.865 124.993 141.792 124.277 140.713 123.082C140.557 122.919 140.402 122.757 140.242 122.589C139.916 122.229 139.59 121.867 139.265 121.505C139.1 121.323 138.934 121.141 138.764 120.953C138.035 120.13 137.361 119.267 136.69 118.396C135.531 116.903 134.352 115.429 133.156 113.965C131.768 112.266 130.401 110.552 129.058 108.817C128.03 107.328 128.03 107.328 126.53 106.49C126.29 106.472 126.051 106.453 125.805 106.433C125.397 106.398 125.397 106.398 124.981 106.362C124.688 106.341 124.395 106.32 124.093 106.298C123.641 106.261 123.641 106.261 123.179 106.223C122.214 106.145 121.249 106.072 120.284 106C119.634 105.948 118.985 105.895 118.335 105.842C117.145 105.747 115.955 105.652 114.764 105.562C114.524 105.544 114.285 105.526 114.038 105.507C113.429 105.472 112.819 105.469 112.209 105.469ZM177.608 106.269C175.319 106.147 175.319 106.147 173.251 106.982C172.292 107.915 171.601 109.011 170.9 110.143C170.227 111.176 169.43 112.104 168.642 113.049C168.319 113.444 167.997 113.839 167.676 114.235C167.188 114.833 166.701 115.43 166.213 116.028C164.237 118.449 162.279 120.881 160.355 123.343C159.913 123.909 159.459 124.466 158.993 125.012C158.411 125.662 158.411 125.662 158.498 126.563C164.914 127.398 164.914 127.398 170.827 125.739C171.715 124.862 172.383 123.858 173.029 122.795C173.745 121.702 174.671 120.81 175.582 119.879C175.927 119.511 176.272 119.142 176.615 118.773C176.775 118.6 176.935 118.428 177.1 118.251C177.681 117.622 178.253 116.984 178.823 116.345C180.046 114.976 181.3 113.636 182.558 112.299C182.754 112.09 182.95 111.881 183.152 111.665C184.23 110.521 185.323 109.402 186.462 108.319C187.007 107.71 187.393 107.056 187.795 106.348C185.258 106.33 185.258 106.33 182.722 106.336C182.431 106.338 182.431 106.338 182.134 106.34C181.844 106.342 181.844 106.342 181.547 106.344C180.23 106.353 178.924 106.338 177.608 106.269ZM131.252 131.836C132.766 133.603 134.323 135.284 135.957 136.936C136.265 137.25 136.572 137.565 136.877 137.881C137.322 138.341 137.771 138.797 138.221 139.252C138.486 139.522 138.751 139.793 139.024 140.072C139.679 140.688 139.679 140.688 140.372 140.627C141.026 140.275 141.364 139.913 141.827 139.333C143.134 137.769 144.578 136.36 146.028 134.93C146.56 134.407 147.09 133.882 147.62 133.357C147.853 133.128 148.085 132.899 148.324 132.663C148.863 132.216 148.863 132.216 148.83 131.836C143.029 131.836 137.228 131.836 131.252 131.836ZM157.912 131.836C159.504 133.771 161.267 135.525 163.038 137.293C163.378 137.634 163.719 137.975 164.059 138.316C164.978 139.236 165.899 140.156 166.819 141.075C167.783 142.038 168.746 143.002 169.709 143.966C171.324 145.581 172.94 147.197 174.556 148.811C176.427 150.681 178.297 152.551 180.166 154.422C181.771 156.028 183.377 157.634 184.983 159.24C185.943 160.199 186.902 161.158 187.86 162.117C188.76 163.018 189.66 163.917 190.561 164.816C190.892 165.147 191.223 165.478 191.554 165.81C192.003 166.26 192.454 166.709 192.904 167.158C193.157 167.411 193.409 167.663 193.669 167.923C194.145 168.49 194.145 168.49 194.533 168.457C195.694 160.051 195.694 160.051 193.17 152.42C191.93 151.037 190.462 149.898 188.912 148.881C187.791 148.012 186.942 146.986 186.037 145.898C183.997 143.453 181.925 141.052 179.756 138.721C179.604 138.557 179.452 138.393 179.295 138.224C175.676 134.361 172.486 131.156 166.931 130.858C163.891 130.839 160.884 131.215 157.912 131.836ZM125.632 135.315C125.444 135.499 125.255 135.682 125.061 135.872C124.858 136.073 124.655 136.275 124.446 136.482C124.238 136.688 124.03 136.893 123.816 137.104C123.376 137.54 122.937 137.976 122.498 138.414C121.825 139.084 121.146 139.748 120.467 140.412C120.041 140.835 119.616 141.259 119.191 141.682C118.986 141.881 118.781 142.08 118.57 142.286C118.385 142.473 118.199 142.661 118.007 142.854C117.842 143.018 117.676 143.182 117.506 143.351C117.125 143.835 117.125 143.835 117.248 144.453C117.597 145.298 118.165 145.796 118.819 146.429C119.087 146.69 119.354 146.95 119.63 147.218C120.247 147.795 120.868 148.354 121.51 148.901C123.401 150.515 125.112 152.334 126.857 154.102C127.772 153.704 128.292 153.289 128.918 152.518C130.328 150.853 131.883 149.337 133.431 147.803C133.732 147.503 134.033 147.203 134.334 146.903C135.064 146.177 135.794 145.451 136.525 144.727C136.089 143.182 135.09 142.29 133.98 141.196C133.691 140.907 133.691 140.907 133.396 140.611C132.989 140.205 132.581 139.8 132.172 139.396C131.544 138.775 130.921 138.151 130.297 137.525C129.902 137.131 129.506 136.737 129.109 136.344C128.922 136.156 128.735 135.968 128.542 135.775C127.115 134.296 127.115 134.296 125.632 135.315ZM152.386 134.946C152.169 135.165 151.952 135.383 151.729 135.608C151.369 135.969 151.369 135.969 151.001 136.337C150.75 136.592 150.499 136.847 150.24 137.109C149.994 137.355 149.748 137.601 149.495 137.854C148.197 139.162 146.94 140.489 145.748 141.894C145.334 142.361 144.898 142.771 144.435 143.188C143.78 143.77 143.78 143.77 143.88 144.401C144.233 145.234 144.724 145.617 145.416 146.199C146.569 147.2 147.67 148.232 148.737 149.324C148.876 149.465 149.014 149.605 149.157 149.75C149.726 150.33 150.293 150.91 150.858 151.493C151.278 151.925 151.701 152.355 152.125 152.784C152.371 153.038 152.618 153.291 152.872 153.552C153.488 154.197 153.488 154.197 154.396 154.102C154.861 153.678 154.861 153.678 155.304 153.101C156.74 151.387 158.346 149.855 159.946 148.296C160.175 148.071 160.403 147.845 160.639 147.613C160.847 147.41 161.055 147.207 161.269 146.998C161.785 146.525 161.785 146.525 161.72 145.898C161.914 145.898 162.107 145.898 162.306 145.898C162.786 145.324 162.786 145.324 163.185 144.727C162.797 143.866 162.374 143.255 161.708 142.588C161.529 142.406 161.349 142.224 161.163 142.037C160.97 141.845 160.776 141.652 160.576 141.454C160.377 141.254 160.177 141.054 159.972 140.848C159.551 140.426 159.129 140.006 158.707 139.586C158.059 138.941 157.414 138.292 156.769 137.644C156.359 137.235 155.95 136.827 155.541 136.418C155.25 136.126 155.25 136.126 154.953 135.827C154.773 135.649 154.594 135.471 154.408 135.288C154.25 135.13 154.092 134.972 153.929 134.81C153.257 134.259 153.024 134.392 152.386 134.946ZM112.604 148.36C112.344 148.645 112.344 148.645 112.079 148.936C111.886 149.146 111.692 149.355 111.492 149.572C111.287 149.798 111.083 150.024 110.872 150.256C110.451 150.716 110.029 151.175 109.606 151.634C109.401 151.858 109.195 152.081 108.984 152.311C108.029 153.324 107.01 154.263 105.975 155.193C105.285 156.105 105.216 156.775 105.177 157.91C105.467 159.265 105.891 159.919 106.954 160.785C108.5 162.106 109.934 163.517 111.366 164.96C111.592 165.187 111.818 165.414 112.051 165.648C112.592 166.193 113.133 166.739 113.674 167.285C114.488 166.913 115.092 166.527 115.727 165.898C115.89 165.738 116.053 165.577 116.221 165.412C116.394 165.239 116.566 165.067 116.744 164.889C116.924 164.71 117.103 164.532 117.289 164.348C117.667 163.971 118.045 163.593 118.423 163.215C119 162.636 119.582 162.061 120.164 161.486C120.532 161.119 120.899 160.752 121.267 160.384C121.441 160.213 121.615 160.041 121.795 159.865C122.919 158.77 122.919 158.77 123.342 157.324C123.033 156.797 123.033 156.797 122.528 156.331C122.251 156.049 122.251 156.049 121.968 155.762C121.764 155.563 121.56 155.364 121.35 155.159C121.041 154.849 121.041 154.849 120.725 154.533C120.287 154.097 119.848 153.663 119.406 153.23C118.73 152.566 118.06 151.896 117.391 151.225C116.965 150.802 116.54 150.38 116.113 149.959C115.912 149.757 115.711 149.556 115.503 149.349C115.314 149.165 115.126 148.981 114.932 148.791C114.766 148.628 114.601 148.465 114.43 148.297C113.723 147.766 113.272 147.793 112.604 148.36ZM139.17 148.423C138.954 148.641 138.738 148.86 138.516 149.084C138.277 149.325 138.038 149.566 137.792 149.813C137.543 150.068 137.294 150.323 137.038 150.586C136.671 150.955 136.671 150.955 136.297 151.331C135.007 152.638 133.756 153.967 132.563 155.364C131.962 156.052 131.322 156.688 130.666 157.324C131.101 158.374 131.682 158.942 132.54 159.676C134.298 161.219 135.941 162.86 137.587 164.52C137.884 164.819 138.181 165.117 138.479 165.416C139.195 166.136 139.911 166.857 140.627 167.578C142.006 166.426 143.316 165.229 144.582 163.953C144.747 163.786 144.913 163.62 145.084 163.448C146.287 162.231 147.436 160.979 148.537 159.668C148.84 159.314 149.143 158.96 149.446 158.606C149.605 158.421 149.764 158.236 149.927 158.045C150.048 157.904 150.17 157.763 150.295 157.617C148.937 156.237 147.576 154.861 146.212 153.487C145.749 153.018 145.286 152.55 144.824 152.08C144.16 151.406 143.494 150.735 142.827 150.064C142.62 149.853 142.414 149.641 142.2 149.423C142.007 149.23 141.813 149.036 141.614 148.837C141.444 148.665 141.274 148.493 141.099 148.316C140.331 147.72 139.897 147.827 139.17 148.423ZM165.839 148.769C165.658 148.948 165.477 149.127 165.291 149.311C164.996 149.605 164.996 149.605 164.696 149.905C164.495 150.105 164.295 150.304 164.088 150.51C163.663 150.933 163.239 151.357 162.815 151.781C162.164 152.431 161.512 153.078 160.859 153.726C160.447 154.137 160.035 154.548 159.624 154.959C159.428 155.153 159.231 155.347 159.029 155.547C158.848 155.729 158.668 155.91 158.481 156.098C158.321 156.257 158.162 156.417 157.997 156.581C157.551 157.057 157.551 157.057 157.326 157.91C157.519 157.91 157.713 157.91 157.912 157.91C158.016 158.163 158.016 158.163 158.123 158.421C158.578 159.223 159.108 159.681 159.808 160.28C161.728 161.965 163.494 163.789 165.27 165.624C165.518 165.877 165.766 166.129 166.022 166.389C166.245 166.618 166.467 166.846 166.696 167.082C167.27 167.672 167.27 167.672 168.166 167.578C168.605 167.177 168.605 167.177 169.026 166.621C169.929 165.543 170.891 164.549 171.901 163.573C172.203 163.279 172.505 162.984 172.806 162.69C173.273 162.237 173.74 161.784 174.211 161.335C174.671 160.894 175.127 160.448 175.582 160.002C175.988 159.61 175.988 159.61 176.402 159.21C177.024 158.563 177.024 158.563 176.935 157.861C176.229 156.474 174.783 155.476 173.641 154.449C171.868 152.845 170.184 151.157 168.508 149.453C168.315 149.257 168.123 149.062 167.924 148.861C167.666 148.598 167.666 148.598 167.402 148.328C166.665 147.643 166.47 148.142 165.839 148.769ZM126.205 161.714C125.805 162.115 125.805 162.115 125.398 162.524C125.254 162.668 125.11 162.812 124.962 162.961C124.656 163.267 124.351 163.575 124.047 163.883C123.588 164.347 123.127 164.809 122.666 165.27C121.383 166.557 120.108 167.853 118.877 169.189C118.718 169.362 118.559 169.534 118.395 169.711C117.962 170.279 117.962 170.279 118.068 171.387C118.42 171.908 118.42 171.908 118.929 172.38C119.116 172.568 119.304 172.756 119.497 172.949C119.703 173.148 119.908 173.347 120.119 173.552C120.431 173.862 120.431 173.862 120.749 174.177C121.415 174.837 122.085 175.492 122.756 176.147C123.208 176.594 123.659 177.04 124.111 177.486C125.218 178.581 126.329 179.673 127.443 180.762C128.353 180.328 128.937 179.91 129.621 179.163C129.809 178.959 129.998 178.756 130.192 178.546C130.391 178.329 130.589 178.111 130.794 177.887C132.85 175.667 134.955 173.509 137.111 171.387C136.722 170.526 136.3 169.916 135.634 169.248C135.454 169.066 135.274 168.885 135.089 168.697C134.895 168.505 134.701 168.312 134.502 168.114C134.302 167.914 134.103 167.714 133.898 167.508C133.477 167.087 133.055 166.666 132.633 166.246C131.984 165.601 131.339 164.953 130.694 164.304C130.285 163.895 129.876 163.487 129.466 163.078C129.176 162.786 129.176 162.786 128.879 162.487C128.699 162.309 128.519 162.131 128.334 161.948C128.176 161.79 128.017 161.632 127.854 161.47C127.115 160.864 126.895 161.099 126.205 161.714ZM153.067 161.771C152.907 161.932 152.748 162.093 152.584 162.259C152.402 162.441 152.22 162.623 152.033 162.81C151.839 163.009 151.645 163.208 151.445 163.412C151.244 163.614 151.044 163.816 150.838 164.023C150.197 164.669 149.559 165.318 148.921 165.967C148.488 166.405 148.055 166.842 147.621 167.279C146.557 168.353 145.495 169.43 144.435 170.508C144.83 171.387 145.266 171.996 145.948 172.673C146.136 172.861 146.324 173.049 146.517 173.242C146.719 173.441 146.921 173.64 147.129 173.845C147.44 174.155 147.44 174.155 147.757 174.47C148.419 175.129 149.082 175.784 149.745 176.44C150.194 176.887 150.643 177.333 151.092 177.779C152.192 178.873 153.294 179.964 154.396 181.055C155.301 180.625 155.824 180.251 156.457 179.471C157.867 177.806 159.422 176.29 160.97 174.756C161.271 174.456 161.572 174.156 161.873 173.856C162.603 173.13 163.333 172.405 164.064 171.68C163.676 170.821 163.254 170.209 162.592 169.541C162.413 169.359 162.234 169.178 162.05 168.99C161.76 168.701 161.76 168.701 161.465 168.407C161.267 168.207 161.068 168.007 160.863 167.801C160.444 167.38 160.023 166.959 159.602 166.539C158.956 165.894 158.315 165.246 157.673 164.597C157.265 164.188 156.857 163.78 156.448 163.371C156.16 163.079 156.16 163.079 155.865 162.78C155.686 162.602 155.506 162.424 155.32 162.241C155.163 162.083 155.005 161.925 154.843 161.763C154.185 161.266 153.72 161.27 153.067 161.771ZM179.599 162.193C179.384 162.411 179.168 162.629 178.946 162.854C178.707 163.095 178.468 163.335 178.222 163.583C177.973 163.838 177.724 164.093 177.468 164.355C177.101 164.724 177.101 164.724 176.727 165.1C175.432 166.412 174.177 167.747 172.978 169.148C172.475 169.727 171.942 170.269 171.388 170.801C171.776 171.657 172.199 172.274 172.856 172.944C173.034 173.127 173.212 173.309 173.395 173.498C173.587 173.691 173.779 173.885 173.977 174.084C174.274 174.385 174.274 174.385 174.577 174.692C174.995 175.115 175.415 175.536 175.834 175.957C176.478 176.604 177.116 177.257 177.754 177.909C178.161 178.319 178.568 178.729 178.976 179.138C179.167 179.334 179.357 179.531 179.554 179.733C179.734 179.911 179.914 180.089 180.099 180.273C180.334 180.511 180.334 180.511 180.575 180.753C181.045 181.115 181.045 181.115 181.645 181.007C182.286 180.738 182.651 180.454 183.146 179.967C183.317 179.801 183.488 179.635 183.664 179.463C183.845 179.283 184.025 179.102 184.212 178.916C184.399 178.73 184.587 178.545 184.78 178.354C185.175 177.962 185.57 177.568 185.963 177.174C186.567 176.57 187.177 175.972 187.787 175.374C188.17 174.993 188.553 174.611 188.936 174.228C189.119 174.049 189.303 173.871 189.492 173.686C190.057 173.129 190.057 173.129 190.724 172.266C190.646 171.28 190.233 170.785 189.551 170.1C189.367 169.913 189.182 169.725 188.991 169.532C188.791 169.333 188.59 169.134 188.383 168.929C188.075 168.619 188.075 168.619 187.76 168.303C187.325 167.868 186.889 167.433 186.452 167C185.782 166.335 185.117 165.665 184.452 164.994C184.029 164.572 183.606 164.15 183.183 163.728C182.983 163.527 182.783 163.326 182.578 163.118C182.391 162.934 182.204 162.75 182.012 162.561C181.767 162.316 181.767 162.316 181.516 162.067C180.75 161.487 180.314 161.607 179.599 162.193ZM105.47 165.82C105.47 169.301 105.47 172.781 105.47 176.367C106.196 175.642 106.196 175.642 106.935 174.902C108.107 173.73 109.279 172.559 110.451 171.387C110.098 170.656 109.732 170.015 109.279 169.336C109.086 169.336 108.892 169.336 108.693 169.336C108.5 168.949 108.306 168.563 108.107 168.164C107.914 168.164 107.72 168.164 107.521 168.164C107.422 167.91 107.422 167.91 107.32 167.651C106.877 166.802 106.877 166.802 105.47 165.82ZM112.164 176.07C111.984 176.249 111.804 176.428 111.618 176.613C111.235 176.994 110.853 177.375 110.472 177.757C109.888 178.34 109.303 178.92 108.717 179.501C108.346 179.87 107.975 180.24 107.605 180.611C107.429 180.784 107.254 180.957 107.073 181.136C106.828 181.382 106.828 181.382 106.578 181.633C106.435 181.777 106.291 181.92 106.143 182.067C105.717 182.575 105.452 183.09 105.177 183.691C106.528 185.079 107.884 186.46 109.244 187.838C109.706 188.308 110.167 188.779 110.626 189.251C111.286 189.928 111.951 190.601 112.616 191.273C112.822 191.486 113.027 191.699 113.239 191.919C113.432 192.112 113.626 192.306 113.825 192.505C113.994 192.678 114.163 192.85 114.337 193.028C114.83 193.424 114.83 193.424 115.455 193.305C116.324 192.936 116.776 192.312 117.391 191.602C118.845 189.953 120.373 188.39 121.932 186.841C122.156 186.617 122.381 186.394 122.613 186.163C123.148 185.632 123.684 185.101 124.22 184.57C123.795 183.594 123.258 182.947 122.508 182.195C122.288 181.974 122.068 181.753 121.841 181.525C121.611 181.297 121.381 181.07 121.144 180.835C120.914 180.603 120.684 180.37 120.447 180.131C120.117 179.802 120.117 179.802 119.78 179.466C119.578 179.265 119.376 179.064 119.168 178.857C118.692 178.355 118.692 178.355 118.068 178.418C118.005 178.256 117.942 178.095 117.877 177.928C117.352 177.021 116.63 176.393 115.853 175.708C115.63 175.506 115.63 175.506 115.402 175.301C113.767 173.838 113.564 174.673 112.164 176.07ZM140.233 174.704C140.066 174.885 139.899 175.065 139.727 175.251C139.445 175.555 139.445 175.555 139.157 175.865C138.953 176.085 138.749 176.305 138.539 176.532C137.266 177.905 135.988 179.264 134.64 180.565C134.437 180.762 134.234 180.959 134.024 181.162C133.634 181.537 133.24 181.909 132.844 182.278C132.669 182.447 132.493 182.616 132.313 182.791C132.157 182.937 132.001 183.083 131.84 183.234C131.483 183.684 131.483 183.684 131.599 184.283C131.967 185.176 132.586 185.699 133.302 186.328C133.496 186.328 133.689 186.328 133.888 186.328C133.888 186.521 133.888 186.715 133.888 186.914C134.318 187.349 134.318 187.349 134.886 187.803C136.339 189.039 137.675 190.375 139.015 191.73C139.256 191.972 139.497 192.214 139.746 192.464C140.333 193.055 140.92 193.646 141.506 194.238C143.277 192.771 144.9 191.18 146.523 189.551C146.781 189.294 147.039 189.037 147.304 188.773C148.561 187.514 149.775 186.257 150.881 184.863C150.487 183.987 150.051 183.375 149.372 182.698C149.092 182.416 149.092 182.416 148.806 182.129C148.605 181.93 148.404 181.731 148.197 181.526C147.99 181.32 147.784 181.113 147.571 180.901C147.135 180.466 146.698 180.031 146.261 179.598C145.589 178.931 144.919 178.261 144.249 177.592C143.826 177.17 143.402 176.748 142.978 176.326C142.777 176.125 142.575 175.923 142.367 175.716C142.181 175.532 141.996 175.348 141.804 175.158C141.64 174.995 141.476 174.832 141.307 174.664C140.771 174.182 140.75 174.195 140.233 174.704ZM167.189 174.965C167.023 175.132 166.857 175.298 166.686 175.47C166.498 175.658 166.311 175.845 166.117 176.039C165.914 176.244 165.71 176.449 165.5 176.66C165.189 176.972 165.189 176.972 164.871 177.291C164.205 177.959 163.539 178.628 162.874 179.297C162.424 179.749 161.973 180.2 161.523 180.652C160.416 181.762 159.31 182.873 158.205 183.984C158.63 184.874 159.052 185.487 159.758 186.18C159.948 186.368 160.137 186.556 160.333 186.75C160.531 186.943 160.729 187.136 160.933 187.335C161.128 187.527 161.322 187.719 161.523 187.917C161.904 188.293 162.286 188.669 162.669 189.043C163.098 189.465 163.522 189.889 163.946 190.315C164.766 191.131 165.599 191.929 166.445 192.719C166.598 192.866 166.752 193.013 166.91 193.164C167.82 194.057 167.82 194.057 169.045 194.238C169.696 193.674 170.299 193.106 170.904 192.495C171.174 192.227 171.174 192.227 171.448 191.954C171.828 191.575 172.206 191.195 172.584 190.814C173.16 190.233 173.741 189.656 174.323 189.08C174.691 188.711 175.059 188.342 175.427 187.973C175.601 187.801 175.774 187.629 175.953 187.452C176.842 186.547 177.468 185.818 177.834 184.57C176.422 183.151 175.008 181.732 173.594 180.315C173.113 179.832 172.632 179.349 172.151 178.865C171.461 178.172 170.771 177.48 170.08 176.788C169.864 176.57 169.648 176.353 169.425 176.128C169.225 175.929 169.026 175.729 168.82 175.524C168.556 175.258 168.556 175.258 168.286 174.988C167.737 174.483 167.737 174.483 167.189 174.965ZM193.86 175.54C193.699 175.701 193.539 175.863 193.373 176.029C193.191 176.211 193.009 176.393 192.822 176.58C192.625 176.779 192.428 176.977 192.225 177.182C192.024 177.384 191.822 177.585 191.615 177.793C190.97 178.44 190.325 179.088 189.681 179.736C189.245 180.174 188.808 180.611 188.372 181.049C187.3 182.124 186.229 183.201 185.158 184.277C185.537 185.112 185.937 185.716 186.586 186.362C186.839 186.617 186.839 186.617 187.098 186.877C187.371 187.147 187.371 187.147 187.649 187.422C187.836 187.609 188.023 187.796 188.216 187.989C188.611 188.382 189.006 188.775 189.402 189.168C190.011 189.771 190.617 190.376 191.223 190.982C191.606 191.364 191.99 191.746 192.373 192.128C192.556 192.31 192.738 192.492 192.926 192.68C193.621 193.539 193.621 193.539 194.533 193.945C194.533 187.758 194.533 181.57 194.533 175.195C194.191 175.163 194.191 175.163 193.86 175.54ZM126.724 188.416C126.449 188.694 126.176 188.975 125.905 189.258C125.761 189.405 125.616 189.553 125.467 189.705C124.516 190.685 123.613 191.698 122.727 192.737C121.528 194.076 120.228 195.322 118.947 196.582C119.341 197.461 119.778 198.071 120.46 198.748C120.648 198.935 120.835 199.123 121.029 199.316C121.231 199.515 121.433 199.714 121.641 199.919C121.952 200.229 121.952 200.229 122.269 200.545C122.93 201.203 123.594 201.859 124.257 202.515C124.706 202.961 125.155 203.407 125.604 203.854C126.704 204.947 127.805 206.039 128.908 207.129C130.054 206.597 130.85 205.857 131.732 204.968C131.887 204.814 132.041 204.661 132.2 204.502C132.525 204.178 132.849 203.853 133.172 203.527C133.669 203.027 134.169 202.53 134.669 202.034C134.984 201.718 135.299 201.402 135.614 201.086C135.764 200.937 135.914 200.789 136.069 200.635C136.873 199.915 136.873 199.915 137.111 198.926C137.304 198.926 137.498 198.926 137.697 198.926C137.89 198.539 138.084 198.152 138.283 197.754C136.884 196.332 135.481 194.914 134.075 193.498C133.598 193.016 133.12 192.533 132.644 192.049C131.96 191.354 131.274 190.663 130.587 189.972C130.373 189.754 130.16 189.536 129.94 189.312C129.741 189.112 129.542 188.913 129.336 188.707C129.161 188.53 128.986 188.353 128.806 188.171C127.927 187.484 127.52 187.726 126.724 188.416ZM153.68 188.488C153.529 188.677 153.377 188.866 153.221 189.061C151.749 190.819 150.099 192.393 148.46 193.994C148.049 194.396 147.64 194.8 147.231 195.204C146.989 195.441 146.748 195.678 146.499 195.921C145.957 196.52 145.624 197.015 145.314 197.754C146.241 198.689 147.169 199.622 148.097 200.555C148.357 200.818 148.617 201.08 148.885 201.35C150.228 202.698 151.585 204.004 153.029 205.242C153.608 205.743 154.153 206.271 154.689 206.818C154.858 206.989 155.028 207.161 155.202 207.338C155.323 207.463 155.444 207.587 155.568 207.715C156.489 207.315 157.008 206.894 157.637 206.117C158.493 205.105 159.395 204.174 160.347 203.252C160.619 202.987 160.892 202.722 161.172 202.449C161.597 202.039 162.021 201.628 162.449 201.221C162.869 200.821 163.283 200.416 163.698 200.011C163.944 199.774 164.19 199.537 164.444 199.293C165.008 198.689 165.008 198.689 164.927 198.019C164.62 197.4 164.3 197.006 163.807 196.521C163.549 196.265 163.549 196.265 163.285 196.004C163.101 195.826 162.917 195.648 162.728 195.465C162.54 195.281 162.352 195.096 162.159 194.906C161.069 193.842 159.96 192.815 158.793 191.835C158.3 191.394 157.84 190.944 157.379 190.471C157.234 190.322 157.089 190.174 156.939 190.021C156.653 189.725 156.368 189.427 156.086 189.127C155.734 188.764 155.359 188.423 154.982 188.086C154.112 187.985 154.112 187.985 153.68 188.488ZM180.444 189.194C180.262 189.372 180.079 189.55 179.891 189.734C179.694 189.929 179.498 190.124 179.295 190.324C178.993 190.623 178.993 190.623 178.685 190.927C178.259 191.349 177.833 191.771 177.409 192.195C176.757 192.844 176.099 193.487 175.441 194.13C175.029 194.539 174.617 194.949 174.205 195.36C174.006 195.552 173.808 195.745 173.604 195.943C173.424 196.125 173.244 196.307 173.058 196.494C172.898 196.653 172.738 196.812 172.573 196.975C172.201 197.454 172.201 197.454 172.341 198.077C172.599 198.731 172.903 199.081 173.404 199.572C173.576 199.743 173.748 199.914 173.925 200.09C174.109 200.268 174.293 200.445 174.483 200.629C174.671 200.813 174.858 200.997 175.051 201.187C176.14 202.251 177.251 203.276 178.414 204.259C179.746 205.444 180.979 206.738 182.228 208.008C183.143 207.61 183.663 207.195 184.289 206.424C185.699 204.759 187.254 203.243 188.802 201.709C189.103 201.409 189.404 201.109 189.705 200.809C190.435 200.083 191.165 199.358 191.896 198.633C191.501 197.726 191.095 197.209 190.328 196.59C189.236 195.666 188.224 194.689 187.22 193.672C187.068 193.518 186.915 193.363 186.758 193.204C186.122 192.561 185.488 191.916 184.855 191.27C184.387 190.794 183.918 190.319 183.448 189.845C183.305 189.698 183.161 189.55 183.014 189.398C182.665 189.047 182.301 188.711 181.935 188.379C181.146 188.379 181.002 188.647 180.444 189.194ZM105.47 190.723C105.47 194.88 105.47 199.037 105.47 203.32C106.88 202.112 108.223 200.922 109.535 199.622C109.705 199.458 109.875 199.294 110.05 199.125C110.212 198.965 110.374 198.805 110.54 198.64C110.685 198.497 110.83 198.355 110.979 198.209C111.423 197.633 111.6 197.316 111.623 196.582C111.119 195.87 111.119 195.87 110.38 195.186C110.116 194.925 109.852 194.665 109.58 194.396C109.297 194.124 109.013 193.851 108.73 193.579C108.448 193.302 108.167 193.026 107.886 192.748C106.812 191.468 106.812 191.468 105.47 190.723ZM114.758 200.735C114.598 200.897 114.437 201.058 114.271 201.224C114.09 201.406 113.908 201.588 113.721 201.775C113.523 201.974 113.326 202.173 113.123 202.377C112.922 202.579 112.721 202.78 112.514 202.988C111.868 203.635 111.224 204.283 110.579 204.932C110.143 205.369 109.707 205.807 109.27 206.244C108.198 207.32 107.127 208.396 106.056 209.473C106.563 210.563 107.139 211.149 108.052 211.945C109.924 213.607 111.689 215.372 113.454 217.145C113.665 217.357 113.665 217.357 113.881 217.574C114.692 218.388 115.501 219.203 116.31 220.02C117.377 219.57 118.058 218.93 118.87 218.113C119.135 217.848 119.399 217.583 119.672 217.31C119.809 217.171 119.946 217.032 120.086 216.89C120.498 216.473 120.911 216.059 121.325 215.646C124.102 213.302 124.102 213.302 125.685 210.352C125.299 209.961 125.299 209.961 124.769 209.545C123.586 208.539 122.486 207.471 121.393 206.37C121.22 206.196 121.047 206.023 120.869 205.844C120.332 205.302 119.795 204.76 119.258 204.218C118.542 203.494 117.825 202.771 117.108 202.049C116.944 201.882 116.78 201.716 116.61 201.544C116.223 201.154 115.828 200.771 115.431 200.391C115.089 200.358 115.089 200.358 114.758 200.735ZM141.011 201.672C140.565 202.122 140.565 202.122 140.627 202.734C140.433 202.734 140.24 202.734 140.041 202.734C140.041 202.928 140.041 203.121 140.041 203.32C139.847 203.32 139.654 203.32 139.455 203.32C139.01 203.76 139.01 203.76 138.547 204.337C137.406 205.678 136.184 206.917 134.932 208.154C134.718 208.367 134.503 208.58 134.283 208.8C133.761 209.318 133.239 209.835 132.717 210.352C133.209 211.402 133.794 212.094 134.621 212.915C134.97 213.266 134.97 213.266 135.326 213.625C135.877 214.224 135.877 214.224 136.525 214.16C136.622 214.45 136.718 214.74 136.818 215.039C137.235 215.462 137.235 215.462 137.77 215.881C139.613 217.439 141.277 219.182 142.97 220.898C144.547 219.599 145.944 218.206 147.328 216.705C148.969 214.943 150.621 213.204 152.345 211.523C151.169 210.117 149.944 208.779 148.652 207.478C148.386 207.209 148.386 207.209 148.115 206.935C147.743 206.561 147.371 206.187 146.999 205.813C146.428 205.239 145.86 204.662 145.292 204.085C144.929 203.721 144.566 203.356 144.203 202.992C144.034 202.819 143.864 202.646 143.69 202.468C142.492 201.161 142.492 201.161 141.011 201.672ZM167.554 202.378C167.371 202.556 167.188 202.734 167 202.917C166.804 203.112 166.607 203.307 166.405 203.508C166.102 203.806 166.102 203.806 165.794 204.11C165.368 204.532 164.943 204.955 164.518 205.378C163.866 206.027 163.209 206.67 162.551 207.313C162.138 207.723 161.726 208.133 161.314 208.543C161.116 208.736 160.918 208.929 160.713 209.127C160.533 209.309 160.353 209.491 160.168 209.678C160.008 209.837 159.847 209.995 159.682 210.159C159.314 210.634 159.314 210.634 159.433 211.244C159.807 212.148 160.456 212.696 161.153 213.373C161.3 213.517 161.447 213.66 161.598 213.808C162.553 214.736 163.542 215.612 164.555 216.474C166.215 217.975 167.765 219.599 169.338 221.191C170.175 220.811 170.776 220.411 171.422 219.759C171.677 219.504 171.677 219.504 171.938 219.244C172.117 219.061 172.297 218.878 172.482 218.69C172.763 218.408 172.763 218.408 173.049 218.121C173.644 217.522 174.238 216.922 174.831 216.321C175.235 215.914 175.639 215.507 176.043 215.101C177.032 214.105 178.019 213.108 179.006 212.109C178.612 211.235 178.178 210.621 177.502 209.944C177.316 209.756 177.13 209.569 176.939 209.375C176.739 209.176 176.539 208.977 176.332 208.772C176.126 208.566 175.921 208.359 175.708 208.147C175.274 207.712 174.838 207.277 174.402 206.844C173.733 206.177 173.066 205.508 172.4 204.838C171.978 204.416 171.555 203.994 171.132 203.572C170.832 203.27 170.832 203.27 170.525 202.962C170.34 202.778 170.154 202.594 169.962 202.404C169.799 202.241 169.636 202.078 169.467 201.911C168.618 201.211 168.226 201.719 167.554 202.378ZM190.865 206.007C190.454 206.413 190.042 206.817 189.629 207.219C189.034 207.797 188.445 208.38 187.856 208.965C187.67 209.144 187.484 209.324 187.292 209.509C187.122 209.679 186.953 209.849 186.779 210.025C186.628 210.173 186.477 210.321 186.322 210.474C185.977 210.931 185.977 210.931 186.088 211.525C186.352 212.163 186.623 212.511 187.111 212.995C187.275 213.16 187.438 213.324 187.606 213.493C187.783 213.666 187.96 213.84 188.143 214.018C188.324 214.199 188.505 214.379 188.691 214.565C189.073 214.945 189.456 215.324 189.841 215.703C190.431 216.284 191.019 216.869 191.606 217.454C191.977 217.822 192.348 218.191 192.72 218.559C192.897 218.735 193.074 218.911 193.257 219.092C193.935 219.924 193.935 219.924 194.826 220.312C194.826 214.415 194.826 208.518 194.826 202.441C193.746 202.441 191.652 205.227 190.865 206.007ZM127.992 215.329C127.824 215.497 127.656 215.665 127.483 215.839C127.311 216.011 127.138 216.183 126.961 216.361C126.595 216.726 126.229 217.093 125.864 217.459C125.307 218.017 124.749 218.574 124.191 219.13C123.836 219.485 123.48 219.841 123.125 220.197C122.959 220.362 122.793 220.528 122.622 220.698C122.465 220.857 122.307 221.015 122.145 221.178C122.008 221.315 121.871 221.452 121.73 221.594C121.16 222.212 120.644 222.878 120.119 223.535C123.503 226.919 126.886 230.303 130.373 233.789C131.572 233.189 132.048 232.713 132.918 231.72C135.09 229.281 137.426 227.002 139.748 224.707C138.544 223.273 137.296 221.919 135.97 220.597C135.785 220.412 135.599 220.226 135.408 220.035C135.02 219.647 134.632 219.259 134.244 218.872C133.646 218.276 133.05 217.678 132.454 217.08C132.076 216.702 131.698 216.324 131.319 215.947C131.14 215.767 130.962 215.588 130.777 215.403C129.387 213.957 129.387 213.957 127.992 215.329ZM154.996 215.247C154.652 215.593 154.652 215.593 154.301 215.945C154.048 216.199 153.795 216.453 153.534 216.714C153.269 216.983 153.003 217.252 152.73 217.529C152.47 217.789 152.211 218.049 151.943 218.317C150.012 220.261 148.174 222.254 146.486 224.414C146.746 224.626 147.006 224.837 147.273 225.055C148.589 226.126 149.742 227.376 150.932 228.582C151.55 229.208 152.171 229.833 152.791 230.458C153.119 230.789 153.446 231.12 153.772 231.451C154.245 231.932 154.721 232.41 155.196 232.888C155.342 233.038 155.489 233.187 155.639 233.341C155.995 233.697 156.366 234.037 156.74 234.375C156.933 234.375 157.127 234.375 157.326 234.375C157.742 233.963 157.742 233.963 158.18 233.41C159.067 232.366 160.001 231.385 160.977 230.423C161.187 230.215 161.187 230.215 161.403 230.002C161.987 229.426 162.572 228.851 163.159 228.277C163.592 227.853 164.024 227.426 164.456 226.999C164.711 226.749 164.966 226.498 165.23 226.24C165.879 225.611 165.879 225.611 166.115 224.707C164.709 223.286 163.301 221.868 161.891 220.451C161.412 219.969 160.933 219.486 160.454 219.002C159.767 218.308 159.079 217.616 158.39 216.925C158.175 216.707 157.961 216.489 157.739 216.265C157.54 216.065 157.34 215.866 157.135 215.66C156.959 215.484 156.784 215.307 156.603 215.124C155.894 214.527 155.68 214.648 154.996 215.247ZM181.813 215.677C181.653 215.838 181.493 215.999 181.328 216.166C181.146 216.348 180.964 216.529 180.777 216.717C180.582 216.915 180.386 217.114 180.184 217.319C179.984 217.52 179.783 217.722 179.576 217.93C178.933 218.576 178.292 219.225 177.651 219.873C177.216 220.311 176.781 220.748 176.346 221.186C175.278 222.26 174.211 223.337 173.146 224.414C174.37 225.875 175.646 227.246 176.998 228.588C177.191 228.78 177.384 228.972 177.582 229.17C178.19 229.777 178.799 230.382 179.408 230.988C179.824 231.402 180.239 231.816 180.655 232.23C181.667 233.239 182.68 234.247 183.693 235.254C184.736 234.768 185.31 234.24 186.063 233.361C187.509 231.714 189.039 230.168 190.596 228.625C190.998 228.226 190.998 228.226 191.407 227.819C192.058 227.171 192.709 226.525 193.361 225.879C192.229 224.526 191.056 223.237 189.807 221.992C189.643 221.828 189.479 221.664 189.31 221.495C188.967 221.152 188.624 220.81 188.281 220.467C187.756 219.945 187.234 219.42 186.711 218.896C186.376 218.561 186.04 218.226 185.705 217.891C185.55 217.735 185.395 217.58 185.235 217.419C183.722 215.615 183.722 215.615 181.813 215.677ZM105.47 216.211C104.612 219.648 104.061 223.7 105.893 226.912C108.654 230.9 112.48 234.167 116.029 237.432C117.421 238.722 118.782 240.043 120.148 241.361C122.136 243.273 124.135 245.174 126.158 247.051C126.369 247.248 126.581 247.444 126.799 247.647C126.992 247.826 127.185 248.004 127.384 248.188C127.552 248.343 127.72 248.498 127.893 248.658C128.801 249.431 129.533 249.354 130.698 249.355C131.058 249.356 131.418 249.356 131.79 249.356C132.168 249.355 132.546 249.354 132.936 249.353C133.497 249.355 133.497 249.355 134.069 249.356C134.431 249.356 134.793 249.356 135.166 249.355C135.662 249.355 135.662 249.355 136.168 249.354C137.092 249.317 137.961 249.196 138.869 249.023C137.882 247.758 136.824 246.741 135.603 245.702C134.946 245.112 134.433 244.444 133.888 243.75C133.403 243.355 132.916 242.964 132.424 242.578C132.327 242.385 132.23 242.191 132.131 241.992C131.937 241.992 131.744 241.992 131.545 241.992C131.545 241.799 131.545 241.605 131.545 241.406C131.096 240.952 131.096 240.952 130.512 240.481C129.274 239.428 128.124 238.314 126.981 237.159C126.773 236.951 126.565 236.742 126.351 236.526C125.904 236.077 125.457 235.628 125.01 235.178C124.304 234.467 123.597 233.757 122.89 233.047C120.881 231.031 118.873 229.013 116.867 226.993C115.637 225.755 114.405 224.518 113.172 223.282C112.702 222.811 112.234 222.339 111.765 221.867C111.114 221.21 110.46 220.554 109.807 219.899C109.613 219.703 109.418 219.506 109.218 219.303C108.952 219.038 108.952 219.038 108.681 218.767C108.527 218.612 108.373 218.457 108.214 218.297C107.825 217.907 107.825 217.907 107.228 217.969C107.132 217.679 107.035 217.389 106.935 217.09C106.204 216.592 106.204 216.592 105.47 216.211ZM142.425 228.403C142.208 228.622 141.991 228.84 141.768 229.065C141.408 229.426 141.408 229.426 141.04 229.794C140.789 230.049 140.538 230.304 140.279 230.566C140.033 230.812 139.787 231.058 139.534 231.311C138.232 232.623 136.971 233.954 135.771 235.359C135.268 235.938 134.735 236.48 134.181 237.012C134.576 237.89 135.012 238.5 135.694 239.177C135.882 239.365 136.07 239.552 136.263 239.746C136.465 239.945 136.667 240.144 136.875 240.349C137.186 240.658 137.186 240.658 137.503 240.974C138.165 241.632 138.828 242.288 139.491 242.944C139.941 243.391 140.39 243.837 140.838 244.283C141.938 245.377 143.04 246.468 144.142 247.559C145.75 246.22 145.75 246.22 147.174 244.693C148.379 243.278 149.689 241.98 151.009 240.674C151.251 240.433 151.493 240.192 151.743 239.944C152.334 239.356 152.925 238.77 153.517 238.184C153.397 238.044 153.276 237.904 153.152 237.761C152.994 237.577 152.836 237.393 152.673 237.204C152.516 237.022 152.359 236.84 152.198 236.653C151.855 236.246 151.529 235.826 151.21 235.4C150.674 234.77 150.158 234.284 149.53 233.751C147.989 232.415 146.58 230.958 145.16 229.496C144.961 229.294 144.762 229.091 144.557 228.883C144.378 228.7 144.2 228.516 144.016 228.327C143.323 227.728 143.107 227.811 142.425 228.403ZM169.251 228.567C169.09 228.729 168.929 228.89 168.764 229.056C168.582 229.238 168.4 229.42 168.213 229.607C168.016 229.806 167.818 230.005 167.615 230.209C167.414 230.411 167.213 230.613 167.006 230.82C166.36 231.467 165.716 232.115 165.071 232.764C164.635 233.201 164.199 233.639 163.763 234.076C162.691 235.152 161.619 236.228 160.549 237.305C160.952 238.21 161.413 238.827 162.115 239.524C162.315 239.723 162.514 239.923 162.72 240.128C162.934 240.34 163.149 240.552 163.371 240.77C163.591 240.989 163.811 241.209 164.038 241.435C164.741 242.135 165.446 242.833 166.152 243.53C166.629 244.005 167.106 244.479 167.583 244.954C168.752 246.117 169.923 247.278 171.095 248.437C171.425 248.156 171.755 247.874 172.084 247.592C172.268 247.435 172.451 247.278 172.641 247.117C173.445 246.422 174.179 245.7 174.904 244.922C174.904 244.729 174.904 244.535 174.904 244.336C175.061 244.278 175.217 244.22 175.379 244.16C176.387 243.567 177.076 242.747 177.852 241.882C178.085 241.629 178.085 241.629 178.322 241.37C179.085 240.53 179.793 239.68 180.47 238.77C178.975 237.266 177.478 235.765 175.98 234.263C175.471 233.752 174.961 233.241 174.452 232.729C173.722 231.995 172.991 231.262 172.259 230.53C172.03 230.299 171.801 230.068 171.565 229.831C171.354 229.62 171.143 229.408 170.925 229.191C170.738 229.003 170.552 228.816 170.359 228.623C169.803 228.095 169.803 228.095 169.251 228.567ZM155.557 242.508C155.4 242.666 155.243 242.825 155.081 242.988C154.838 243.23 154.838 243.23 154.59 243.476C154.248 243.818 153.907 244.16 153.567 244.503C153.043 245.03 152.517 245.553 151.991 246.075C151.659 246.407 151.328 246.739 150.997 247.071C150.839 247.228 150.681 247.385 150.517 247.547C149.677 248.293 149.677 248.293 149.416 249.316C154.54 249.316 159.664 249.316 164.943 249.316C163.413 247.531 161.841 245.868 160.182 244.208C159.782 243.802 159.782 243.802 159.374 243.389C159.12 243.134 158.865 242.879 158.603 242.616C158.372 242.383 158.141 242.151 157.902 241.912C156.823 240.966 156.452 241.624 155.557 242.508Z" fill="black"/>
</svg>
