<svg width="300" height="300" viewBox="0 0 300 300" fill="none" xmlns="http://www.w3.org/2000/svg">
<path d="M110.742 102.832C113.123 104.091 115.03 106.479 116.895 108.38C117.559 109.055 118.224 109.729 118.891 110.402C119.131 110.645 119.131 110.645 119.375 110.892C120.378 111.899 121.411 112.85 122.494 113.771C123.85 114.965 125.089 116.289 126.355 117.577C127.575 118.81 128.814 119.995 130.133 121.122C132.994 123.599 132.994 123.599 133.301 125.098C133.193 126.561 132.806 127.249 131.8 128.302C131.561 128.554 131.321 128.807 131.075 129.066C130.843 129.304 130.611 129.541 130.371 129.785C130.19 129.974 130.01 130.163 129.823 130.357C129.008 131.193 128.166 131.976 127.277 132.733C125.372 134.371 123.639 136.202 121.875 137.988C122.349 138.99 122.875 139.644 123.67 140.424C123.882 140.634 124.094 140.844 124.313 141.061C124.931 141.64 125.557 142.195 126.199 142.747C127.773 144.115 129.211 145.612 130.663 147.106C130.874 147.32 131.084 147.533 131.301 147.754C131.488 147.946 131.676 148.139 131.869 148.337C132.419 148.825 132.924 149.121 133.594 149.414C133.821 149.184 134.047 148.954 134.281 148.717C134.589 148.406 134.897 148.095 135.205 147.784C135.353 147.634 135.501 147.483 135.654 147.328C136.479 146.498 137.321 145.707 138.211 144.946C140 143.399 141.624 141.68 143.276 139.988C148.046 135.158 148.046 135.158 150.527 134.954C154.183 135.544 157.503 140.19 159.998 142.712C163.424 146.315 163.424 146.315 167.285 149.414C168.191 149.226 168.191 149.226 168.45 148.573C168.549 148.367 168.648 148.161 168.75 147.949C169.204 147.501 169.204 147.501 169.753 147.055C171.389 145.67 172.882 144.142 174.39 142.621C174.68 142.33 174.97 142.038 175.26 141.747C175.791 141.214 176.322 140.68 176.852 140.145C177.47 139.523 178.09 138.901 178.711 138.281C178.593 138.163 178.475 138.046 178.354 137.924C170.097 129.667 170.097 129.667 169.548 129.117C169.23 128.8 168.911 128.483 168.592 128.167C167.52 127.106 167.004 126.569 166.974 125.024C167.631 122.706 169.668 121.258 171.422 119.714C172.433 118.793 173.393 117.83 174.353 116.858C176.444 114.745 176.444 114.745 177.521 113.837C178.929 112.647 180.198 111.313 181.494 110.005C182.597 108.895 183.715 107.829 184.913 106.821C185.808 106.032 186.624 105.164 187.449 104.301C188.435 103.388 189.221 102.88 190.558 102.686C191.944 102.88 192.38 103.317 193.36 104.297C193.817 105.211 193.736 105.922 193.653 106.934C192.844 108.632 191.809 109.724 190.412 110.962C190.017 111.32 189.622 111.679 189.228 112.039C189.035 112.215 188.841 112.391 188.641 112.573C187.853 113.302 187.1 114.06 186.347 114.825C185.498 115.684 184.648 116.515 183.728 117.297C182.453 118.384 181.293 119.577 180.117 120.768C179.064 121.83 177.988 122.838 176.832 123.79C176.305 124.277 175.913 124.813 175.489 125.391C176.269 126.179 177.05 126.966 177.832 127.753C178.05 127.973 178.268 128.193 178.493 128.42C179.485 129.417 180.477 130.394 181.549 131.304C183.637 133.1 185.528 135.122 187.463 137.078C190.058 139.707 190.058 139.707 192.799 142.18C194.288 143.496 195.651 144.957 197.045 146.372C198.345 147.684 199.655 148.953 201.071 150.14C202.66 151.58 203.514 153.276 203.665 155.422C203.682 156.315 203.681 157.206 203.673 158.098C203.672 158.614 203.672 158.614 203.671 159.14C203.668 160.094 203.663 161.047 203.657 162.001C203.651 163.034 203.648 164.068 203.646 165.101C203.641 166.675 203.635 168.249 203.628 169.823C203.613 173.048 203.609 176.273 203.607 179.498C203.604 184.291 203.593 189.084 203.575 193.877C203.565 196.633 203.557 199.389 203.556 202.145C203.555 204.606 203.549 207.067 203.537 209.529C203.531 210.815 203.527 212.102 203.53 213.389C203.532 214.584 203.527 215.779 203.517 216.974C203.515 217.409 203.515 217.845 203.518 218.28C203.532 220.699 203.496 222.542 201.856 224.414C201.636 224.669 201.416 224.923 201.189 225.185C200.966 225.406 200.743 225.626 200.513 225.853C200.264 226.1 200.015 226.348 199.759 226.603C199.502 226.853 199.245 227.104 198.981 227.362C198.728 227.614 198.475 227.865 198.214 228.125C196.915 229.408 195.591 230.642 194.207 231.833C193.246 232.685 192.354 233.604 191.455 234.521C190.387 235.612 189.319 236.68 188.157 237.672C187.159 238.532 186.222 239.443 185.296 240.38C185.086 240.592 185.086 240.592 184.873 240.808C184.293 241.396 183.715 241.984 183.138 242.574C182.711 243.009 182.283 243.443 181.854 243.877C181.476 244.262 181.476 244.262 181.09 244.656C180.469 245.215 180.469 245.215 179.883 245.215C179.883 245.408 179.883 245.602 179.883 245.801C179.468 246.209 179.468 246.209 178.884 246.689C177.175 248.142 175.633 249.753 174.069 251.359C169.816 255.671 169.816 255.671 167.464 255.8C167.202 255.801 166.941 255.802 166.671 255.803C166.219 255.805 166.219 255.805 165.758 255.808C165.429 255.808 165.1 255.809 164.761 255.809C164.413 255.81 164.065 255.812 163.706 255.813C162.753 255.817 161.8 255.819 160.846 255.82C160.25 255.821 159.653 255.822 159.057 255.824C157.189 255.828 155.321 255.831 153.453 255.832C151.3 255.833 149.148 255.838 146.996 255.847C145.329 255.853 143.663 255.856 141.997 255.856C141.003 255.857 140.009 255.858 139.015 255.864C137.905 255.869 136.795 255.868 135.685 255.866C135.195 255.87 135.195 255.87 134.695 255.874C131.981 255.86 130.137 255.395 128.124 253.459C127.977 253.319 127.829 253.179 127.678 253.035C127.204 252.581 126.736 252.121 126.27 251.66C126.112 251.505 125.955 251.35 125.793 251.191C124.649 250.062 123.517 248.921 122.388 247.778C119.733 245.083 119.733 245.083 116.928 242.546C115.266 241.059 113.729 239.426 112.162 237.839C110.566 236.226 108.976 234.631 107.247 233.158C105.848 231.91 104.552 230.546 103.235 229.211C102.646 228.615 102.056 228.019 101.466 227.424C101.079 227.031 101.079 227.031 100.684 226.631C100.117 226.086 99.5576 225.582 98.9521 225.085C97.7414 224.079 97.1791 222.982 96.68 221.484C96.6498 220.591 96.6367 219.705 96.6369 218.812C96.6358 218.535 96.6347 218.258 96.6336 217.973C96.6304 217.041 96.6292 216.11 96.6281 215.178C96.6263 214.511 96.6243 213.845 96.6223 213.179C96.6172 211.365 96.6141 209.551 96.6117 207.738C96.6102 206.605 96.6084 205.473 96.6066 204.34C96.6016 201.204 96.5973 198.068 96.5952 194.932C96.5946 194.119 96.5941 193.305 96.5935 192.491C96.5934 192.289 96.5932 192.087 96.5931 191.879C96.5906 188.602 96.5832 185.326 96.5737 182.05C96.564 178.687 96.5588 175.323 96.5578 171.959C96.5571 170.07 96.5545 168.182 96.5471 166.293C96.5403 164.517 96.5391 162.74 96.5421 160.963C96.5422 160.311 96.5404 159.659 96.5363 159.007C96.5312 158.117 96.5332 157.227 96.5371 156.337C96.5339 156.079 96.5307 155.821 96.5273 155.555C96.5484 153.547 97.0946 152.371 98.3943 150.816C98.6515 150.566 98.6515 150.566 98.9139 150.311C99.0868 150.139 99.2598 149.968 99.438 149.791C99.9026 149.414 99.9026 149.414 100.489 149.414C100.585 149.124 100.682 148.834 100.782 148.535C101.194 148.129 101.194 148.129 101.743 147.684C102.839 146.754 103.862 145.774 104.874 144.754C105.029 144.598 105.184 144.442 105.343 144.282C105.825 143.796 106.306 143.309 106.787 142.822C110.417 139.148 110.417 139.148 112.263 137.575C113.22 136.736 114.1 135.82 114.991 134.912C116.268 133.621 117.548 132.365 118.938 131.194C119.923 130.315 120.84 129.367 121.762 128.423C122.728 127.44 123.734 126.551 124.805 125.684C123.682 124.312 122.485 123.038 121.234 121.783C121.081 121.629 120.928 121.474 120.77 121.315C120.091 120.639 119.452 120.064 118.653 119.531C118.653 119.338 118.653 119.145 118.653 118.945C118.407 118.843 118.407 118.843 118.157 118.74C117.304 118.26 116.724 117.663 116.039 116.964C115.903 116.827 115.767 116.69 115.627 116.548C115.194 116.11 114.762 115.669 114.331 115.228C112.657 113.522 110.988 111.831 109.171 110.275C107.886 109.17 106.621 108.033 106.293 106.311C106.358 104.975 106.657 104.425 107.52 103.418C108.616 102.687 109.474 102.583 110.742 102.832ZM116.309 142.969C116.17 143.109 116.032 143.249 115.889 143.393C115.248 144.04 114.607 144.685 113.965 145.331C113.638 145.661 113.638 145.661 113.305 145.999C112.088 147.221 110.846 148.386 109.539 149.51C108.648 150.298 107.82 151.145 106.989 151.996C105.293 153.73 105.293 153.73 104.297 154.395C104.75 155.522 105.441 156.128 106.348 156.921C108.258 158.62 110.054 160.426 111.846 162.248C112.9 163.313 113.939 164.327 115.137 165.234C115.435 165.522 115.731 165.813 116.016 166.113C116.871 165.728 117.466 165.317 118.117 164.645C118.286 164.472 118.456 164.3 118.63 164.122C118.807 163.939 118.983 163.756 119.165 163.568C120.42 162.29 121.678 161.054 123.047 159.897C124.111 158.949 125.095 157.918 126.09 156.9C126.801 156.205 127.533 155.586 128.321 154.98C128.264 154.409 128.264 154.409 128.028 153.809C127.446 153.432 127.446 153.432 126.856 153.223C126.856 153.029 126.856 152.836 126.856 152.637C126.447 152.225 126.447 152.225 125.898 151.79C124.836 150.887 123.839 149.935 122.861 148.943C122.645 148.724 122.645 148.724 122.424 148.501C121.826 147.895 121.23 147.288 120.634 146.68C120.194 146.231 119.751 145.783 119.308 145.335C119.049 145.071 118.789 144.806 118.521 144.533C117.819 143.889 117.144 143.423 116.309 142.969ZM149.449 143.473C149.232 143.7 149.015 143.926 148.792 144.159C147.986 144.997 147.163 145.786 146.281 146.543C144.836 147.794 143.504 149.151 142.163 150.513C141.677 151.006 141.191 151.499 140.703 151.991C140.385 152.315 140.385 152.315 140.06 152.644C139.495 153.183 138.917 153.648 138.282 154.102C138.684 155.003 139.143 155.623 139.839 156.321C140.037 156.52 140.234 156.72 140.438 156.925C140.651 157.137 140.864 157.349 141.083 157.567C141.302 157.786 141.521 158.006 141.746 158.232C142.209 158.694 142.672 159.156 143.135 159.618C143.847 160.327 144.556 161.038 145.265 161.751C145.714 162.2 146.163 162.648 146.613 163.097C146.826 163.311 147.039 163.525 147.258 163.746C147.456 163.941 147.653 164.137 147.857 164.339C148.031 164.512 148.205 164.685 148.384 164.864C148.807 165.297 148.807 165.297 149.414 165.234C149.414 165.428 149.414 165.621 149.414 165.82C149.944 166.052 149.944 166.052 150.586 166.113C151.145 165.753 151.145 165.753 151.644 165.189C151.841 164.985 152.038 164.782 152.241 164.573C152.444 164.356 152.647 164.139 152.857 163.916C153.257 163.497 153.659 163.079 154.061 162.662C154.262 162.453 154.462 162.244 154.669 162.03C155.421 161.278 156.217 160.591 157.024 159.9C158.099 158.949 159.099 157.923 160.108 156.903C160.321 156.689 160.534 156.474 160.753 156.254C161.271 155.732 161.788 155.21 162.305 154.688C161.141 153.294 159.929 151.975 158.643 150.694C158.467 150.518 158.292 150.342 158.111 150.161C157.743 149.793 157.375 149.425 157.006 149.058C156.446 148.499 155.887 147.939 155.329 147.378C154.969 147.018 154.609 146.659 154.248 146.299C154.001 146.051 154.001 146.051 153.749 145.798C151.784 143.457 151.784 143.457 149.449 143.473ZM183.14 143.766C182.923 143.993 182.707 144.219 182.483 144.452C181.672 145.283 180.863 146.084 179.975 146.832C178.616 147.995 177.377 149.273 176.123 150.545C175.01 151.668 173.875 152.728 172.634 153.711C172.165 154.119 172.165 154.119 172.266 154.98C172.82 155.615 173.377 156.201 173.978 156.789C174.154 156.965 174.331 157.141 174.513 157.322C174.888 157.695 175.265 158.068 175.642 158.439C176.213 159 176.78 159.565 177.347 160.13C178.978 161.751 180.605 163.364 182.364 164.847C182.829 165.249 183.262 165.673 183.692 166.113C184.779 165.662 185.444 164.998 186.255 164.154C187.323 163.063 188.413 162.04 189.572 161.048C190.382 160.33 191.131 159.556 191.89 158.784C192.666 158.021 193.483 157.314 194.307 156.604C194.898 156.088 195.453 155.546 195.996 154.98C195.155 153.018 193.29 151.597 191.693 150.238C190.284 149.037 189.006 147.703 187.719 146.374C187.548 146.199 187.377 146.025 187.2 145.845C186.97 145.606 186.97 145.606 186.734 145.363C186.343 144.956 186.343 144.956 185.742 145.02C185.742 144.826 185.742 144.633 185.742 144.434C184.511 143.18 184.511 143.18 183.14 143.766ZM132.441 159.88C132.213 160.113 131.986 160.345 131.752 160.585C131.5 160.84 131.248 161.095 130.988 161.358C130.724 161.628 130.46 161.898 130.188 162.177C128.616 163.78 127.047 165.356 125.34 166.817C124.488 167.563 123.695 168.364 122.901 169.171C122.744 169.33 122.586 169.488 122.425 169.651C122.045 170.034 121.667 170.417 121.289 170.801C121.763 171.997 122.621 172.794 123.523 173.676C123.669 173.821 123.814 173.966 123.964 174.116C124.785 174.928 125.63 175.701 126.506 176.454C127.91 177.671 129.211 178.984 130.518 180.304C130.759 180.546 131 180.788 131.248 181.038C131.835 181.629 132.422 182.22 133.008 182.812C133.916 182.41 134.524 181.95 135.215 181.239C135.404 181.047 135.593 180.854 135.788 180.656C135.982 180.455 136.177 180.254 136.377 180.048C136.764 179.651 137.152 179.254 137.54 178.859C137.71 178.683 137.881 178.507 138.057 178.326C138.575 177.832 138.575 177.832 139.225 177.365C139.397 177.229 139.569 177.093 139.746 176.953C139.746 176.76 139.746 176.566 139.746 176.367C139.918 176.292 140.089 176.216 140.265 176.138C140.97 175.753 141.432 175.335 141.994 174.763C142.286 174.468 142.286 174.468 142.583 174.168C142.783 173.963 142.983 173.758 143.189 173.547C143.393 173.34 143.597 173.133 143.808 172.92C144.311 172.41 144.812 171.899 145.313 171.387C144.879 170.379 144.31 169.726 143.534 168.955C143.296 168.717 143.057 168.479 142.811 168.233C142.436 167.864 142.436 167.864 142.054 167.487C141.81 167.244 141.567 167.001 141.317 166.75C140.03 165.473 138.72 164.246 137.345 163.064C136.404 162.234 135.544 161.327 134.677 160.42C134.326 160.061 133.961 159.717 133.594 159.375C132.954 159.31 132.954 159.31 132.441 159.88ZM166.405 159.944C165.911 160.45 165.417 160.957 164.922 161.464C164.293 162.095 163.636 162.681 162.96 163.261C161.58 164.456 160.306 165.747 159.027 167.047C156.299 169.821 156.299 169.821 154.981 170.801C155.423 171.837 156.028 172.51 156.821 173.305C157.068 173.552 157.314 173.799 157.568 174.054C157.955 174.438 157.955 174.438 158.35 174.829C158.608 175.089 158.866 175.35 159.132 175.618C159.378 175.863 159.625 176.109 159.879 176.363C160.105 176.588 160.332 176.814 160.565 177.047C161.082 177.603 161.082 177.603 161.719 177.539C161.719 177.732 161.719 177.926 161.719 178.125C162.154 178.565 162.154 178.565 162.726 179.022C164.128 180.211 165.414 181.5 166.7 182.812C167.184 182.399 167.668 181.984 168.152 181.569C168.529 181.245 168.906 180.922 169.285 180.6C170.843 179.261 172.291 177.832 173.731 176.367C175.191 174.882 176.652 173.445 178.263 172.121C178.788 171.671 178.788 171.671 179.004 170.801C178.404 169.862 177.66 169.176 176.817 168.464C175.208 167.066 173.725 165.543 172.229 164.026C169.864 161.583 169.864 161.583 167.285 159.375C166.891 159.341 166.891 159.341 166.405 159.944ZM103.125 162.891C103.125 168.208 103.125 173.525 103.125 179.004C104.299 178.417 105.049 177.742 105.95 176.823C106.104 176.667 106.259 176.512 106.418 176.352C106.908 175.858 107.397 175.362 107.886 174.866C108.219 174.53 108.553 174.193 108.886 173.857C109.702 173.035 110.516 172.212 111.328 171.387C110.853 170.189 109.993 169.386 109.093 168.498C108.932 168.337 108.771 168.176 108.605 168.011C108.266 167.672 107.926 167.334 107.585 166.997C107.061 166.479 106.54 165.958 106.019 165.437C105.689 165.108 105.359 164.78 105.028 164.452C104.872 164.295 104.715 164.139 104.553 163.977C103.941 163.227 103.941 163.227 103.125 162.891ZM195.944 163.788C195.666 164.067 195.388 164.347 195.111 164.627C194.964 164.774 194.816 164.922 194.665 165.074C194.193 165.548 193.721 166.023 193.25 166.498C192.934 166.815 192.618 167.132 192.302 167.449C191.72 168.034 191.139 168.618 190.558 169.204C190.028 169.737 189.497 170.27 188.965 170.801C189.428 171.92 190.137 172.635 190.987 173.487C191.127 173.627 191.268 173.768 191.412 173.913C191.708 174.209 192.004 174.504 192.301 174.799C192.755 175.25 193.206 175.704 193.657 176.158C193.945 176.446 194.233 176.733 194.521 177.021C194.783 177.282 195.045 177.543 195.314 177.812C195.967 178.472 195.967 178.472 196.875 178.711C196.875 173.587 196.875 168.463 196.875 163.184C196.471 163.15 196.471 163.15 195.944 163.788ZM115.43 176.367C115.43 176.561 115.43 176.754 115.43 176.953C115.237 176.953 115.043 176.953 114.844 176.953C114.336 177.428 113.86 177.916 113.379 178.418C112.933 178.87 112.485 179.32 112.037 179.771C111.663 180.146 111.663 180.146 111.282 180.529C111.025 180.787 110.769 181.045 110.504 181.311C110.251 181.567 109.998 181.822 109.737 182.086C108.417 183.411 107.085 184.694 105.655 185.9C105.019 186.468 104.505 187.104 104.004 187.793C104.214 188.003 104.424 188.213 104.641 188.429C105.43 189.218 106.217 190.01 107.004 190.803C107.446 191.247 107.888 191.691 108.33 192.135C108.631 192.437 108.932 192.74 109.232 193.043C110.951 194.776 112.679 196.477 114.551 198.047C114.726 198.194 114.901 198.342 115.082 198.494C115.489 198.835 115.899 199.173 116.309 199.512C116.599 199.318 116.889 199.125 117.188 198.926C117.188 198.732 117.188 198.539 117.188 198.34C117.351 198.272 117.515 198.204 117.684 198.134C118.537 197.654 119.116 197.058 119.802 196.359C119.937 196.222 120.073 196.084 120.213 195.943C120.647 195.504 121.078 195.064 121.509 194.623C123.173 192.927 124.834 191.255 126.645 189.715C127.39 189.039 127.995 188.292 128.614 187.5C127.687 186.565 126.759 185.632 125.83 184.698C125.441 184.305 125.441 184.305 125.043 183.904C123.718 182.573 122.378 181.289 120.952 180.067C120.051 179.273 119.217 178.416 118.378 177.557C117.792 176.958 117.202 176.367 116.602 175.781C116.173 175.754 116.173 175.754 115.43 176.367ZM150 176.074C147.108 178.758 144.266 181.482 141.498 184.294C140.47 185.335 139.456 186.328 138.282 187.207C138.536 188.566 139.357 189.278 140.315 190.216C140.491 190.391 140.667 190.567 140.849 190.748C141.222 191.119 141.597 191.49 141.973 191.859C142.541 192.418 143.106 192.98 143.67 193.543C145.305 195.168 146.939 196.783 148.7 198.273C149.05 198.572 149.382 198.893 149.707 199.219C150.945 199.18 151.644 198.267 152.449 197.431C152.598 197.28 152.747 197.13 152.9 196.974C153.376 196.492 153.849 196.006 154.322 195.52C154.941 194.886 155.563 194.254 156.185 193.623C156.334 193.47 156.484 193.318 156.639 193.161C157.795 191.993 158.999 190.903 160.254 189.844C160.903 189.281 161.445 188.74 162.012 188.086C162 187.461 162 187.461 161.719 186.914C161.284 186.769 161.284 186.769 160.84 186.621C160.84 186.428 160.84 186.234 160.84 186.035C160.448 185.639 160.448 185.639 159.912 185.218C158.761 184.24 157.693 183.202 156.632 182.128C156.467 181.962 156.302 181.795 156.133 181.624C155.444 180.927 154.757 180.23 154.071 179.531C153.565 179.016 153.057 178.503 152.549 177.99C152.394 177.831 152.239 177.673 152.08 177.509C151.39 176.814 150.944 176.389 150 176.074ZM180.398 179.055C179.638 179.818 178.881 180.582 178.125 181.348C177.516 181.965 176.906 182.582 176.294 183.197C176.148 183.344 176.003 183.491 175.852 183.642C174.846 184.647 173.807 185.596 172.712 186.503C172.192 186.949 172.192 186.949 171.68 187.793C172.752 188.88 173.826 189.964 174.902 191.047C175.268 191.416 175.634 191.786 175.999 192.156C176.522 192.687 177.048 193.215 177.574 193.744C177.737 193.911 177.901 194.077 178.069 194.249C178.468 194.647 178.881 195.03 179.297 195.41C179.491 195.41 179.684 195.41 179.883 195.41C179.883 195.604 179.883 195.797 179.883 195.996C180.357 196.476 180.357 196.476 180.963 196.967C181.92 197.779 182.818 198.611 183.692 199.512C184.861 199.043 185.636 198.224 186.498 197.338C186.653 197.182 186.808 197.025 186.969 196.863C187.465 196.362 187.959 195.859 188.452 195.355C189.1 194.697 189.748 194.04 190.398 193.383C190.554 193.226 190.71 193.068 190.871 192.905C191.891 191.881 192.938 190.905 194.05 189.98C194.89 189.231 195.579 188.37 196.289 187.5C195.704 186.907 195.118 186.315 194.532 185.724C194.289 185.477 194.289 185.477 194.041 185.225C193.178 184.358 192.301 183.526 191.372 182.73C189.863 181.427 188.478 180.002 187.079 178.583C186.555 178.051 186.031 177.521 185.506 176.991C185.277 176.758 185.048 176.526 184.812 176.287C183.491 175.037 181.373 178.084 180.398 179.055ZM131.947 193.413C131.655 193.707 131.367 194.004 131.081 194.304C130.926 194.461 130.77 194.619 130.61 194.781C130.113 195.287 129.619 195.797 129.126 196.307C128.479 196.971 127.83 197.633 127.181 198.295C127.025 198.455 126.869 198.614 126.708 198.778C125.539 199.966 124.322 201.076 123.047 202.148C122.398 202.711 121.856 203.252 121.289 203.906C121.411 205.151 122.133 205.741 123.047 206.543C123.241 206.543 123.434 206.543 123.633 206.543C123.633 206.736 123.633 206.93 123.633 207.129C124.067 207.567 124.067 207.567 124.638 208.024C126.053 209.227 127.348 210.529 128.65 211.853C130.053 213.28 131.441 214.671 133.008 215.918C134.078 215.469 134.748 214.828 135.556 214.003C135.813 213.742 136.071 213.481 136.337 213.212C136.604 212.939 136.871 212.666 137.146 212.384C137.677 211.843 138.209 211.302 138.742 210.762C139.094 210.402 139.094 210.402 139.454 210.034C140.039 209.473 140.039 209.473 140.625 209.18C140.625 208.986 140.625 208.793 140.625 208.594C140.781 208.534 140.936 208.474 141.097 208.413C142.099 207.833 142.826 207.04 143.628 206.213C143.791 206.048 143.953 205.883 144.12 205.713C144.519 205.308 144.916 204.9 145.313 204.492C144.924 203.606 144.542 203.097 143.788 202.495C142.568 201.463 141.454 200.351 140.337 199.211C140.153 199.024 139.97 198.837 139.78 198.645C139.01 197.862 138.242 197.078 137.477 196.291C136.913 195.711 136.346 195.135 135.778 194.56C135.605 194.38 135.433 194.201 135.255 194.016C134.821 193.579 134.356 193.173 133.887 192.773C132.699 192.648 132.699 192.648 131.947 193.413ZM165.981 193.285C165.71 193.545 165.44 193.805 165.161 194.073C164.937 194.287 164.937 194.287 164.709 194.504C163.175 195.974 161.679 197.484 160.191 199C159.055 200.152 157.886 201.243 156.657 202.296C156.07 202.806 155.519 203.345 154.981 203.906C155.431 204.973 156.071 205.654 156.887 206.466C157.152 206.731 157.418 206.995 157.691 207.268C157.899 207.473 157.899 207.473 158.111 207.682C158.527 208.093 158.941 208.507 159.355 208.92C160.719 210.276 162.101 211.591 163.56 212.843C164.247 213.442 164.889 214.079 165.528 214.728C165.751 214.954 165.975 215.18 166.205 215.413C166.368 215.58 166.531 215.746 166.7 215.918C167.619 215.511 168.23 215.04 168.929 214.322C169.126 214.121 169.323 213.921 169.526 213.714C169.729 213.505 169.933 213.296 170.142 213.08C171.493 211.694 172.859 210.364 174.327 209.102C175.294 208.248 176.195 207.332 177.1 206.415C177.377 206.135 177.377 206.135 177.661 205.85C178.109 205.398 178.557 204.945 179.004 204.492C178.908 204.202 178.811 203.912 178.711 203.613C178.518 203.613 178.325 203.613 178.125 203.613C178.125 203.42 178.125 203.227 178.125 203.027C177.932 203.027 177.739 203.027 177.539 203.027C177.443 202.737 177.346 202.447 177.246 202.148C176.822 201.72 176.822 201.72 176.281 201.295C175.191 200.371 174.176 199.389 173.177 198.37C173.026 198.216 172.874 198.062 172.719 197.904C172.089 197.264 171.461 196.623 170.835 195.98C170.373 195.505 169.907 195.033 169.442 194.561C169.301 194.415 169.161 194.269 169.016 194.119C167.636 192.714 167.636 192.714 165.981 193.285ZM103.125 196.289C103.125 201.606 103.125 206.924 103.125 212.402C104.858 210.917 104.858 210.917 106.476 209.344C107.317 208.492 108.171 207.675 109.076 206.891C109.265 206.727 109.454 206.563 109.648 206.394C110.067 206.034 110.487 205.675 110.907 205.316C111.397 204.825 111.397 204.825 111.273 204.236C110.977 203.461 110.589 203.07 109.992 202.496C109.779 202.291 109.567 202.086 109.347 201.875C108.574 201.161 107.78 200.473 106.981 199.788C105.944 198.856 104.979 197.855 104.005 196.858C103.519 196.255 103.519 196.255 103.125 196.289ZM191.666 201.185C190.666 202.188 189.668 203.192 188.672 204.199C190.069 205.877 191.56 207.434 193.103 208.978C193.337 209.216 193.571 209.453 193.812 209.698C194.038 209.924 194.264 210.151 194.497 210.385C194.803 210.692 194.803 210.692 195.114 211.005C195.75 211.609 195.75 211.609 196.875 212.109C196.875 206.985 196.875 201.861 196.875 196.582C195.422 196.582 192.681 200.173 191.666 201.185ZM115.503 209.631C115.3 209.839 115.097 210.047 114.888 210.261C114.549 210.604 114.549 210.604 114.204 210.954C113.85 211.317 113.85 211.317 113.489 211.688C112.024 213.186 110.554 214.643 108.962 216.007C107.999 216.856 107.102 217.769 106.201 218.683C105.924 218.962 105.924 218.962 105.641 219.248C105.192 219.7 104.745 220.152 104.297 220.605C104.812 221.718 105.42 222.32 106.348 223.132C108.231 224.807 110.002 226.585 111.769 228.381C113.133 229.761 114.536 231.069 116.016 232.324C117.025 231.849 117.659 231.321 118.433 230.511C119.232 229.693 120.03 228.905 120.905 228.168C122.262 227.007 123.502 225.733 124.75 224.458C125.89 223.301 127.075 222.234 128.321 221.191C127.878 220.155 127.273 219.482 126.48 218.687C126.234 218.44 125.987 218.193 125.733 217.938C125.346 217.554 125.346 217.554 124.951 217.163C124.565 216.773 124.565 216.773 124.17 216.375C123.923 216.129 123.677 215.883 123.423 215.63C123.196 215.404 122.97 215.178 122.736 214.946C122.22 214.389 122.22 214.389 121.582 214.453C121.582 214.26 121.582 214.066 121.582 213.867C121.148 213.428 121.148 213.428 120.575 212.97C119.359 211.942 118.255 210.834 117.153 209.684C116.433 209.025 116.239 208.983 115.503 209.631ZM150 209.18C148.943 209.995 148.008 210.867 147.071 211.816C146.841 212.047 146.612 212.278 146.376 212.516C146.025 212.87 146.025 212.87 145.666 213.231C145.14 213.76 144.613 214.29 144.086 214.819C143.818 215.09 143.55 215.36 143.274 215.639C143.018 215.896 142.762 216.152 142.499 216.417C142.149 216.769 142.149 216.769 141.792 217.128C141.211 217.676 141.211 217.676 140.625 217.969C140.625 218.162 140.625 218.355 140.625 218.555C140.456 218.627 140.287 218.7 140.113 218.774C139.341 219.203 138.831 219.621 138.282 220.312C138.344 221.542 139.159 222.173 139.995 223.001C140.21 223.215 140.21 223.215 140.43 223.434C140.734 223.737 141.04 224.038 141.347 224.339C141.809 224.792 142.268 225.248 142.726 225.704C144.171 227.139 145.636 228.538 147.183 229.864C147.758 230.361 148.297 230.885 148.828 231.427C148.998 231.599 149.167 231.771 149.341 231.948C149.462 232.072 149.583 232.196 149.707 232.324C150.959 231.917 151.665 231.346 152.579 230.407C152.841 230.141 153.103 229.874 153.373 229.6C153.647 229.318 153.92 229.036 154.193 228.754C155.809 227.099 157.414 225.463 159.173 223.959C159.799 223.423 160.397 222.865 160.987 222.29C161.183 222.101 161.379 221.912 161.582 221.718C162.105 221.191 162.105 221.191 162.012 220.312C161.609 219.868 161.609 219.868 161.051 219.443C159.999 218.561 159.013 217.634 158.048 216.66C157.906 216.517 157.764 216.374 157.618 216.226C157.03 215.633 156.443 215.039 155.857 214.444C153.179 211.483 153.179 211.483 150 209.18ZM183.125 209.685C182.897 209.917 182.67 210.15 182.435 210.389C182.183 210.644 181.931 210.9 181.672 211.162C181.408 211.433 181.144 211.703 180.872 211.981C179.299 213.585 177.731 215.161 176.024 216.622C175.171 217.367 174.378 218.169 173.584 218.976C173.427 219.134 173.27 219.293 173.108 219.456C172.729 219.838 172.351 220.222 171.973 220.605C172.436 221.743 173.212 222.51 174.072 223.358C174.221 223.507 174.371 223.657 174.525 223.811C174.842 224.127 175.16 224.442 175.478 224.757C175.958 225.232 176.436 225.709 176.913 226.186C178.389 227.656 179.874 229.104 181.463 230.452C182.145 231.042 182.771 231.677 183.399 232.324C184.306 231.918 184.952 231.442 185.672 230.759C185.878 230.564 186.084 230.369 186.296 230.169C186.512 229.962 186.728 229.754 186.951 229.541C187.174 229.33 187.397 229.118 187.626 228.9C189.059 227.536 190.464 226.149 191.852 224.739C192.634 223.97 193.456 223.258 194.3 222.559C194.942 221.961 195.462 221.299 195.996 220.605C195.327 219.92 194.655 219.237 193.982 218.555C193.792 218.359 193.601 218.163 193.404 217.962C193.13 217.684 193.13 217.684 192.849 217.401C192.68 217.229 192.512 217.057 192.338 216.88C191.917 216.441 191.917 216.441 191.309 216.504C191.309 216.311 191.309 216.117 191.309 215.918C190.868 215.473 190.868 215.473 190.29 215.01C188.725 213.68 187.311 212.218 185.881 210.746C185.682 210.544 185.483 210.341 185.278 210.133C185.099 209.95 184.921 209.766 184.737 209.577C184.026 208.962 183.815 209.069 183.125 209.685ZM131.994 226.405C131.747 226.663 131.5 226.922 131.245 227.188C131.109 227.327 130.974 227.465 130.834 227.608C130.401 228.053 129.974 228.504 129.547 228.955C128.986 229.539 128.421 230.122 127.857 230.704C127.721 230.846 127.584 230.987 127.443 231.133C126.481 232.127 125.479 233.05 124.425 233.945C123.737 234.538 123.098 235.174 122.461 235.822C122.238 236.048 122.014 236.274 121.784 236.507C121.621 236.674 121.457 236.84 121.289 237.012C121.747 237.985 122.231 238.641 123.047 239.355C123.241 239.355 123.434 239.355 123.633 239.355C123.709 239.53 123.785 239.705 123.863 239.885C124.249 240.581 124.615 240.928 125.23 241.427C126.977 242.905 128.55 244.556 130.149 246.192C130.553 246.606 130.96 247.017 131.366 247.428C131.604 247.671 131.842 247.914 132.088 248.165C132.696 248.789 132.696 248.789 133.594 249.023C133.719 248.898 133.844 248.772 133.973 248.642C135.28 247.329 136.587 246.018 137.895 244.707C138.382 244.218 138.869 243.728 139.356 243.239C140.058 242.534 140.76 241.831 141.462 241.127C141.679 240.909 141.895 240.691 142.119 240.466C143.141 239.443 144.155 238.469 145.313 237.598C144.857 236.435 144.05 235.747 143.134 234.943C141.069 233.092 139.126 231.129 137.19 229.145C136.96 228.912 136.73 228.678 136.493 228.438C136.287 228.227 136.081 228.016 135.869 227.799C135.393 227.279 135.393 227.279 134.766 227.344C134.699 227.156 134.633 226.969 134.565 226.776C134.227 226.116 134.227 226.116 133.515 225.906C132.674 225.795 132.674 225.795 131.994 226.405ZM164.722 227.673C164.528 227.856 164.335 228.038 164.135 228.226C162.556 229.721 161.013 231.252 159.491 232.806C158.263 234.052 158.263 234.052 157.617 234.375C157.617 234.568 157.617 234.762 157.617 234.961C157.454 235.027 157.291 235.094 157.123 235.162C156.236 235.666 155.633 236.229 154.981 237.012C155.035 237.784 155.204 238.11 155.739 238.672C155.934 238.83 156.129 238.987 156.329 239.15C157.54 240.163 158.658 241.237 159.769 242.357C159.961 242.549 160.153 242.742 160.35 242.94C160.954 243.545 161.556 244.151 162.158 244.757C162.571 245.171 162.984 245.585 163.397 245.999C164.401 247.007 165.404 248.015 166.407 249.023C167.832 248.145 168.955 247.135 170.122 245.94C170.304 245.758 170.485 245.575 170.672 245.387C171.247 244.806 171.821 244.223 172.394 243.64C172.967 243.059 173.54 242.479 174.113 241.9C174.469 241.541 174.824 241.181 175.178 240.82C176.18 239.806 177.21 238.878 178.333 237.998C178.812 237.583 178.812 237.583 178.711 236.719C178.292 236.259 178.292 236.259 177.72 235.82C175.935 234.325 174.342 232.645 172.717 230.98C172.478 230.738 172.239 230.496 171.994 230.247C171.671 229.917 171.671 229.917 171.341 229.58C170.848 229.037 170.848 229.037 170.215 229.102C170.215 228.908 170.215 228.715 170.215 228.516C170.022 228.516 169.828 228.516 169.629 228.516C169.629 228.322 169.629 228.129 169.629 227.93C169.127 227.399 169.127 227.399 168.494 226.868C168.283 226.683 168.072 226.498 167.855 226.307C166.515 225.301 165.699 226.743 164.722 227.673ZM149.707 242.285C149.479 242.513 149.479 242.513 149.246 242.746C147.154 244.838 145.062 246.931 142.969 249.023C143.643 249.361 144.025 249.354 144.775 249.355C145.028 249.356 145.281 249.356 145.542 249.357C145.817 249.356 146.092 249.354 146.375 249.353C146.657 249.352 146.939 249.352 147.229 249.351C150.5 249.332 153.765 249.185 157.032 249.023C153.856 244.996 153.856 244.996 149.707 242.285Z" fill="black"/>
<path d="M151.171 43.6524C152.875 44.9256 153.363 46.7417 154.064 48.6878C154.2 49.0555 154.336 49.4231 154.472 49.7906C154.854 50.8286 155.231 51.8688 155.605 52.9098C155.874 53.6555 156.143 54.4008 156.413 55.1461C158.737 61.5826 158.737 61.5826 159.773 64.5672C160.061 65.3911 160.364 66.2011 160.701 67.0061C162.059 70.4694 161.947 73.9442 161.956 77.6184C161.963 78.2759 161.97 78.9334 161.978 79.5908C161.997 81.1856 162.007 82.7802 162.011 84.375C162.185 84.1994 162.359 84.0238 162.539 83.8428C163.195 83.181 163.853 82.5198 164.511 81.8591C164.793 81.575 165.076 81.2906 165.358 81.006C168 78.3401 168 78.3401 169.337 77.1973C171.03 75.7489 172.56 74.1274 174.115 72.5355C174.522 72.1202 174.93 71.7067 175.339 71.2933C175.698 70.9262 175.698 70.9262 176.065 70.5518C176.659 70.0196 176.659 70.0196 177.245 70.0196C177.245 69.8262 177.245 69.6328 177.245 69.4336C177.672 69.0147 177.672 69.0147 178.264 68.5261C179.829 67.1959 181.244 65.734 182.673 64.2615C182.972 63.9581 182.972 63.9581 183.276 63.6486C183.455 63.4653 183.633 63.282 183.817 63.0931C184.277 62.6953 184.277 62.6953 184.863 62.6953C184.936 62.5231 185.01 62.3509 185.086 62.1735C185.617 61.2221 186.375 60.6574 187.203 59.9659C187.831 59.4527 187.831 59.4527 188.525 58.7586C189.546 58.1204 190.449 58.0466 191.601 58.3008C192.55 58.8533 193.163 59.2659 193.573 60.3127C193.819 61.5687 193.657 62.5071 192.936 63.5994C191.61 65.2281 190.066 66.6504 188.474 68.0146C186.951 69.3395 185.547 70.7798 184.13 72.2168C181.195 75.1936 181.195 75.1936 179.891 76.3092C178.338 77.6395 176.922 79.1113 175.488 80.5664C171.323 84.7904 171.323 84.7904 168.999 86.5304C164.149 90.1202 164.149 90.1202 161.647 95.3808C161.232 99.1182 161.569 102.92 162.011 106.641C162.203 106.447 162.395 106.254 162.592 106.055C163.315 105.327 164.038 104.601 164.761 103.874C165.072 103.562 165.383 103.249 165.694 102.936C167.266 101.351 168.841 99.7917 170.539 98.3409C171.604 97.4 172.588 96.3749 173.583 95.3614C174.767 94.1558 175.946 92.9636 177.229 91.8629C178.875 90.4476 180.365 88.875 181.879 87.3213C182.105 87.0926 182.33 86.864 182.562 86.6284C182.765 86.4205 182.968 86.2126 183.177 85.9984C183.691 85.5469 183.691 85.5469 184.277 85.5469C184.277 85.3535 184.277 85.1602 184.277 84.961C184.798 84.435 185.366 83.977 185.934 83.5018C186.631 82.917 186.631 82.917 187.27 82.2544C189.127 80.4142 189.127 80.4142 190.649 80.3284C191.676 80.4236 191.918 80.5858 192.773 81.2622C193.69 82.4656 193.778 83.1454 193.652 84.668C192.76 86.2524 191.532 87.4616 190.246 88.7329C190.046 88.9346 189.847 89.1363 189.642 89.3441C189.451 89.5344 189.259 89.7247 189.063 89.9208C188.889 90.0938 188.715 90.2667 188.537 90.4448C188.085 90.8203 188.085 90.8203 187.499 90.8203C187.403 91.1104 187.306 91.4004 187.206 91.6993C186.777 92.121 186.777 92.121 186.215 92.5793C184.455 94.0722 182.866 95.7372 181.254 97.3865C180.848 97.8018 180.439 98.2152 180.031 98.6286C179.671 98.9957 179.671 98.9957 179.304 99.3702C178.71 99.9024 178.71 99.9024 178.124 99.9024C178.124 100.096 178.124 100.289 178.124 100.488C177.725 100.881 177.725 100.881 177.154 101.349C175.531 102.729 174.052 104.246 172.558 105.762C167.9 110.486 167.9 110.486 165.683 111.851C163.854 113.113 162.308 114.48 161.871 116.737C161.551 119.421 161.598 122.126 161.672 124.823C161.679 125.118 161.687 125.412 161.695 125.716C161.712 126.277 161.736 126.838 161.768 127.399C161.818 128.642 161.834 129.296 161.187 130.389C160.125 131.331 159.21 131.289 157.843 131.297C157.466 131.3 157.09 131.303 156.702 131.306C156.29 131.307 155.879 131.308 155.467 131.31C155.045 131.311 154.623 131.313 154.201 131.315C153.316 131.318 152.43 131.319 151.545 131.32C150.413 131.322 149.28 131.329 148.148 131.337C147.276 131.343 146.403 131.344 145.531 131.345C145.114 131.346 144.696 131.348 144.279 131.352C143.694 131.357 143.109 131.356 142.525 131.354C142.192 131.356 141.86 131.357 141.517 131.358C140.5 131.235 139.965 130.998 139.159 130.371C138.6 129.55 138.508 128.955 138.573 127.976C138.586 127.737 138.599 127.497 138.612 127.251C138.627 126.993 138.642 126.736 138.658 126.471C139.175 120.043 139.175 120.043 137.041 114.225C135.658 112.743 134.087 111.591 132.421 110.449C130.054 108.592 127.996 106.34 125.884 104.205C125.148 103.461 124.41 102.718 123.672 101.975C123.421 101.72 123.421 101.72 123.164 101.46C122.469 100.76 121.819 100.159 120.995 99.6094C120.995 99.416 120.995 99.2227 120.995 99.0235C120.74 98.9107 120.74 98.9107 120.478 98.7957C119.762 98.4039 119.292 97.9746 118.719 97.3945C118.506 97.1814 118.294 96.9682 118.076 96.7485C117.849 96.5181 117.623 96.2877 117.389 96.0503C117.154 95.8133 116.918 95.5763 116.676 95.3321C115.923 94.5742 115.172 93.8144 114.422 93.0542C113.672 92.2964 112.922 91.5391 112.171 90.7826C111.704 90.3119 111.238 89.8405 110.772 89.3681C109.73 88.3166 108.695 87.3296 107.519 86.4258C106.798 85.5208 106.381 84.6153 106.219 83.4595C106.371 82.4604 106.588 81.9386 107.226 81.1524C108.191 80.4941 108.803 80.2801 109.972 80.2368C113.158 81.2254 115.89 85.1103 118.196 87.4413C120.549 89.857 120.549 89.857 123.037 92.1295C125.226 93.9855 127.187 96.1181 129.204 98.156C131.917 100.916 131.917 100.916 134.789 103.507C136.011 104.587 137.138 105.77 138.281 106.934C138.368 105.121 138.432 103.309 138.474 101.494C138.491 100.878 138.515 100.263 138.546 99.6479C138.849 95.9497 138.849 95.9497 137.565 92.6119C136.723 91.69 135.773 90.9665 134.765 90.2344C134.374 89.9 133.985 89.5618 133.602 89.2182C133.419 89.0622 133.237 88.9062 133.048 88.7455C131.384 87.2545 129.844 85.62 128.274 84.0307C126.171 81.8811 126.171 81.8811 123.949 79.858C122.094 78.2774 120.419 76.4936 118.707 74.762C117.997 74.0451 117.287 73.3292 116.577 72.6139C116.416 72.4504 116.255 72.2868 116.089 72.1183C115.407 71.4327 114.771 70.8507 113.964 70.3125C113.964 70.1192 113.964 69.9258 113.964 69.7266C113.798 69.6547 113.631 69.5828 113.459 69.5088C112.104 68.7608 111.079 67.5353 109.991 66.449C109.611 66.0805 109.611 66.0805 109.225 65.7046C107.91 64.3964 106.856 63.329 106.347 61.5235C106.514 60.2925 106.737 59.6795 107.592 58.7769C108.51 58.2342 109.088 58.0296 110.156 58.0078C111.552 58.5316 112.59 59.3473 113.671 60.3516C113.671 60.545 113.671 60.7383 113.671 60.9375C113.838 61.0091 114.005 61.0807 114.177 61.1544C114.963 61.59 115.49 62.1021 116.122 62.7408C116.498 63.1179 116.498 63.1179 116.881 63.5026C117.15 63.7751 117.418 64.0476 117.695 64.3284C117.976 64.6118 118.258 64.8951 118.54 65.1782C119.282 65.9242 120.023 66.6717 120.762 67.4198C121.942 68.612 123.124 69.8023 124.306 70.9916C124.716 71.4041 125.124 71.8177 125.533 72.2314C126.841 73.5497 128.166 74.8208 129.576 76.0299C130.228 76.5954 130.837 77.1958 131.442 77.8107C131.675 78.046 131.908 78.2813 132.148 78.5237C132.623 79.0066 133.098 79.4895 133.574 79.9725C134.995 81.4079 136.453 82.769 137.988 84.0821C138.084 84.1787 138.181 84.2754 138.281 84.375C138.274 83.9951 138.268 83.6151 138.261 83.2236C138.161 75.8905 138.19 69.3767 141.081 62.5423C141.524 61.4742 141.924 60.3948 142.311 59.3056C142.966 57.4671 143.641 55.6372 144.326 53.8097C144.73 52.7224 145.125 51.6319 145.519 50.5406C145.773 49.8496 146.028 49.1588 146.282 48.468C146.395 48.1509 146.507 47.8338 146.623 47.507C147.42 45.38 148.475 43.0787 151.171 43.6524ZM149.999 57.4219C149.524 58.5967 149.063 59.7747 148.617 60.9608C148.175 62.1296 147.698 63.276 147.2 64.4217C144.668 70.557 144.625 76.3242 144.722 82.879C144.74 84.3588 144.742 85.8387 144.745 87.3187C144.754 90.1065 144.778 92.894 144.808 95.6817C144.841 98.8616 144.857 102.042 144.871 105.222C144.902 111.749 144.955 118.277 145.019 124.805C148.403 124.805 151.786 124.805 155.273 124.805C155.359 118.002 155.429 111.199 155.47 104.395C155.49 101.235 155.516 98.0753 155.56 94.9153C155.598 92.1552 155.623 89.3954 155.631 86.6351C155.636 85.1785 155.647 83.7228 155.675 82.2665C155.826 74.205 154.622 67.7714 151.464 60.3516C151.226 59.7639 150.99 59.1757 150.756 58.5865C150.665 58.3579 150.574 58.1294 150.48 57.8939C150.418 57.7381 150.356 57.5824 150.292 57.4219C150.196 57.4219 150.099 57.4219 149.999 57.4219Z" fill="black"/>
</svg>
