<svg width="300" height="300" viewBox="0 0 300 300" fill="none" xmlns="http://www.w3.org/2000/svg">
<path d="M164.1 77.4212C164.648 77.9297 164.648 77.9297 164.726 78.5414C164.693 78.7736 164.659 79.0058 164.625 79.245C164.568 79.6364 164.568 79.6364 164.511 80.0356C164.25 81.4172 163.917 82.7723 163.557 84.1313C163.398 84.7559 163.239 85.3805 163.08 86.0052C162.83 86.9744 162.58 87.9431 162.325 88.911C161.058 93.7553 160.634 97.7035 161.142 102.671C161.169 102.941 161.196 103.211 161.224 103.489C161.291 104.149 161.358 104.809 161.425 105.469C161.604 105.468 161.782 105.467 161.966 105.466C166.34 105.447 170.714 105.432 175.087 105.423C177.202 105.419 179.318 105.413 181.433 105.402C183.279 105.394 185.126 105.388 186.973 105.386C187.948 105.385 188.923 105.382 189.898 105.376C201.933 105.305 212.736 107.636 221.777 116.016C221.928 116.155 222.079 116.295 222.235 116.439C231.981 125.571 237.182 138.93 238.476 152.051C238.509 152.362 238.541 152.673 238.575 152.994C239.916 168.215 236.353 183.766 229.101 197.168C228.986 197.383 228.87 197.597 228.752 197.818C225.891 203.085 222.45 207.824 218.261 212.109C217.945 212.453 217.945 212.453 217.622 212.804C211.534 219.26 202.81 223.26 193.937 223.566C192.893 223.581 191.849 223.588 190.805 223.592C190.405 223.594 190.006 223.596 189.606 223.599C188.304 223.607 187.002 223.611 185.699 223.615C185.25 223.617 184.8 223.618 184.35 223.62C182.48 223.626 180.609 223.632 178.739 223.635C176.064 223.64 173.39 223.65 170.715 223.666C168.83 223.678 166.945 223.683 165.06 223.685C163.935 223.686 162.811 223.69 161.686 223.699C160.63 223.708 159.574 223.71 158.518 223.706C157.946 223.706 157.374 223.713 156.802 223.721C156.462 223.718 156.121 223.716 155.77 223.713C155.327 223.715 155.327 223.715 154.874 223.716C153.81 223.467 153.499 222.978 152.929 222.07C152.911 221.32 152.911 221.32 153.222 220.606C154.049 219.773 154.514 219.456 155.691 219.307C156.067 219.306 156.442 219.306 156.829 219.305C162.933 219.12 168.051 215.933 172.23 211.631C183.105 199.495 184.351 180.419 184.332 164.96C184.332 164.697 184.332 164.435 184.331 164.165C184.323 159.811 184.191 155.5 183.691 151.172C183.653 150.842 183.616 150.512 183.577 150.172C182.161 138.275 178.836 125.674 168.99 117.903C166.541 116.045 163.92 114.655 161.132 113.379C160.881 113.259 160.629 113.139 160.37 113.015C153.665 110.042 146.305 110.46 139.563 112.994C135.542 114.713 132.118 116.858 128.906 119.824C128.61 120.09 128.61 120.09 128.307 120.361C118.022 130.034 116.228 146.409 115.722 159.668C115.255 176.298 116.118 196.867 127.148 210.352C127.383 210.639 127.617 210.926 127.859 211.223C131.377 215.302 136.319 218.621 141.797 219.203C142.748 219.271 143.692 219.308 144.645 219.325C145.695 219.444 146.245 219.66 147.07 220.313C147.381 221.32 147.381 221.32 147.363 222.363C146.763 223.16 146.41 223.493 145.422 223.682C144.981 223.682 144.981 223.682 144.53 223.682C144.192 223.685 143.853 223.688 143.504 223.691C143.134 223.688 142.763 223.685 142.381 223.682C141.986 223.683 141.591 223.685 141.196 223.687C140.121 223.691 139.047 223.688 137.973 223.683C136.844 223.679 135.715 223.681 134.586 223.682C132.686 223.683 130.785 223.679 128.885 223.672C126.701 223.664 124.517 223.664 122.334 223.667C120.223 223.67 118.112 223.668 116.001 223.664C115.109 223.663 114.216 223.663 113.324 223.664C101.045 223.678 91.7057 221.278 82.6168 212.695C82.2713 212.378 82.2713 212.378 81.9187 212.054C70.3769 201.069 63.743 183.937 61.816 168.457C61.7908 168.262 61.7655 168.066 61.7395 167.865C61.5408 166.229 61.4721 164.617 61.4636 162.97C61.4615 162.705 61.4594 162.439 61.4573 162.166C61.4522 161.315 61.4503 160.464 61.4498 159.613C61.4496 159.323 61.4494 159.033 61.4492 158.733C61.4537 154.59 61.5382 150.552 62.402 146.484C62.4523 146.234 62.5025 145.984 62.5543 145.726C64.2012 137.666 67.2854 130.053 72.0699 123.34C72.1971 123.161 72.3242 122.983 72.4552 122.799C78.6582 114.24 87.6026 107.829 98.1442 106.055C98.4293 106.005 98.7143 105.956 99.0081 105.905C102.875 105.33 106.741 105.392 110.643 105.409C111.648 105.413 112.654 105.413 113.66 105.414C115.556 105.416 117.453 105.421 119.349 105.427C121.512 105.433 123.674 105.436 125.836 105.439C130.278 105.445 134.719 105.456 139.16 105.469C139.303 104.906 139.445 104.342 139.587 103.779C139.666 103.465 139.746 103.152 139.827 102.829C140.21 101.243 140.357 99.6935 140.416 98.0706C140.633 92.3689 141.958 87.1109 145.605 82.6172C145.903 82.2428 145.903 82.2428 146.207 81.8608C147.741 80.0399 149.362 78.7501 151.464 77.6367C151.697 77.5095 151.93 77.3822 152.169 77.2511C155.283 75.8373 161.065 75.6195 164.1 77.4212ZM149.707 84.375C146.488 88.2492 145.001 92.6379 144.891 97.6319C144.819 99.8096 144.607 101.781 144.029 103.887C143.811 104.611 143.811 104.611 143.847 105.469C148.198 105.469 152.548 105.469 157.031 105.469C156.838 103.825 156.644 102.182 156.445 100.488C156.063 95.8838 157.033 91.7433 158.203 87.3047C158.278 87.0181 158.353 86.7315 158.43 86.4362C158.975 84.3562 158.975 84.3562 159.236 83.4074C159.475 82.5309 159.668 81.7729 159.668 80.8594C155.504 80.6434 152.702 81.3796 149.707 84.375ZM189.843 109.863C190.879 110.729 191.939 111.433 193.103 112.116C194.994 113.254 196.675 114.564 198.339 116.016C198.611 116.248 198.883 116.481 199.163 116.721C208.84 125.214 213.581 138.151 215.332 150.586C215.366 150.815 215.4 151.044 215.436 151.279C218.234 170.478 213.866 191.965 202.282 207.646C199.718 211.051 199.718 211.051 198.264 212.455C197.686 212.936 197.686 212.936 197.754 213.574C197.585 213.646 197.417 213.717 197.243 213.791C196.466 214.225 195.98 214.736 195.373 215.387C194.201 216.595 192.967 217.54 191.563 218.463C191.383 218.59 191.202 218.717 191.015 218.848C191.015 218.944 191.015 219.041 191.015 219.141C199.388 219.64 207.043 216.365 213.281 210.938C226.212 199.281 233.391 180.561 234.375 163.477C234.955 147.732 231.213 132.71 220.453 120.874C213.467 113.407 204.251 110.212 194.236 109.878C192.772 109.841 191.308 109.84 189.843 109.863ZM79.0817 121.502C69.4499 132.038 65.0422 146.964 65.5926 161.078C66.357 176.368 71.0762 192.173 80.859 204.199C80.9808 204.35 81.1026 204.501 81.2281 204.657C87.1776 212.006 94.3686 217.644 103.973 219.062C105.74 219.215 107.505 219.184 109.277 219.141C108.387 218.226 107.493 217.401 106.475 216.632C93.3589 206.248 86.6858 188.68 84.6676 172.559C84.4241 170.348 84.3245 168.159 84.3151 165.936C84.3135 165.619 84.3118 165.302 84.3101 164.976C84.3073 164.307 84.3054 163.639 84.3042 162.97C84.3014 161.973 84.2923 160.975 84.2831 159.978C84.2557 154.358 84.6642 148.78 86.0592 143.317C86.1346 143.014 86.2101 142.712 86.2878 142.4C89.5433 129.765 96.7973 118.062 108.178 111.328C108.374 111.215 108.57 111.102 108.772 110.985C109.237 110.716 109.697 110.437 110.156 110.156C110.156 110.06 110.156 109.963 110.156 109.863C98.0911 109.481 87.5494 112.588 79.0817 121.502ZM102.832 120.703C102.641 120.875 102.449 121.048 102.253 121.225C91.9608 130.882 88.8093 145.893 88.1832 159.375C88.1674 159.716 88.1674 159.716 88.1512 160.063C87.5079 176.555 92.2607 195.181 103.418 207.715C103.641 207.97 103.864 208.225 104.094 208.487C104.739 209.215 105.394 209.931 106.054 210.645C106.291 210.91 106.291 210.91 106.532 211.18C110.482 215.418 116.737 218.917 122.559 219.186C124.871 219.236 127.181 219.207 129.492 219.141C128.73 218.372 127.963 217.616 127.174 216.875C115.709 206.007 112.89 189.667 111.621 174.609C111.6 174.371 111.579 174.132 111.557 173.886C110.006 155.693 111.278 133.69 123.516 119.156C126.585 115.676 129.948 113.045 133.976 110.759C134.221 110.606 134.221 110.606 134.472 110.449C134.472 110.353 134.472 110.256 134.472 110.156C122.055 109.933 112.18 111.897 102.832 120.703ZM165.82 110.156C166.543 110.907 167.268 111.412 168.164 111.951C172.927 114.951 176.833 118.925 179.882 123.633C180.065 123.912 180.248 124.19 180.436 124.477C187.676 136.185 188.736 151.292 188.745 164.703C188.745 164.99 188.745 165.278 188.745 165.573C188.726 183.584 186.402 203.496 173.279 216.972C172.825 217.408 172.353 217.808 171.867 218.206C171.612 218.418 171.356 218.629 171.093 218.848C171.093 218.944 171.093 219.041 171.093 219.141C177.374 219.446 177.374 219.446 183.398 217.969C183.821 217.799 183.821 217.799 184.253 217.627C195.262 212.935 202.344 201.813 206.738 191.147C209.017 185.402 210.402 179.555 211.23 173.438C211.282 173.058 211.282 173.058 211.335 172.67C212.797 161.436 212.146 149.274 208.3 138.574C208.178 138.229 208.056 137.885 207.931 137.529C206.18 132.878 203.889 128.327 200.683 124.512C200.545 124.344 200.407 124.176 200.265 124.003C198.591 121.965 196.93 119.966 194.824 118.359C194.53 118.132 194.236 117.904 193.933 117.669C185.472 111.276 176.121 109.958 165.82 110.156Z" fill="black"/>
</svg>
