<svg width="300" height="300" viewBox="0 0 300 300" fill="none" xmlns="http://www.w3.org/2000/svg">
<path d="M213.282 91.1134C213.554 91.1632 213.825 91.2131 214.105 91.2644C215.118 91.4973 215.719 91.6766 216.289 92.5759C216.517 93.0774 216.739 93.5816 216.957 94.0877C218.077 96.2773 220.145 98.0314 221.958 99.6587C226.555 103.857 226.555 103.857 226.744 107.363C226.75 107.806 226.755 108.249 226.759 108.691C226.784 109.205 226.811 109.718 226.838 110.231C227.215 119.945 223.468 127.447 217.094 134.535C213.082 138.745 208.429 141.036 203.12 143.207C194.023 146.943 186.134 152.394 178.712 158.789C178.512 158.959 178.313 159.129 178.107 159.304C177.52 159.808 176.943 160.322 176.368 160.84C175.962 161.205 175.962 161.205 175.548 161.578C172.424 164.429 169.457 167.439 166.482 170.444C164.944 171.995 163.415 173.524 161.749 174.939C160.207 176.317 158.779 177.826 157.325 179.297C153.531 183.136 153.531 183.136 151.698 184.696C150.743 185.533 149.865 186.447 148.976 187.354C147.672 188.671 146.366 189.955 144.949 191.152C144.359 191.668 143.813 192.215 143.263 192.774C142.34 193.709 141.384 194.582 140.388 195.438C139.643 196.087 138.918 196.755 138.191 197.424C136.882 198.618 135.538 199.749 134.159 200.86C133.383 201.496 132.625 202.147 131.868 202.806C121.261 212.034 108.14 220.289 93.512 219.362C86.8299 218.81 80.7633 216.782 75.5871 212.402C75.3575 212.22 75.1279 212.038 74.8913 211.85C70.1925 207.958 66.8537 201.788 66.2121 195.703C65.5598 186.625 67.8756 178.504 73.8476 171.552C74.4201 170.904 75.002 170.265 75.5871 169.629C75.7752 169.417 75.9632 169.205 76.157 168.986C79.2804 165.638 83.3227 163.044 87.3058 160.84C87.5164 160.722 87.727 160.604 87.944 160.482C92.1493 158.137 96.478 156.321 101.035 154.778C119.542 148.512 138.586 139.457 154.238 127.706C154.953 127.17 155.678 126.653 156.408 126.138C160.145 123.5 163.789 120.721 167.286 117.774C167.445 117.641 167.604 117.508 167.768 117.372C172.899 113.082 177.322 108.423 181.313 103.062C182.154 101.959 183.041 100.918 183.986 99.9024C184.158 99.714 184.331 99.5255 184.51 99.3314C192.027 91.4584 202.801 88.5623 213.282 91.1134Z" fill="black"/>
<path d="M229.393 73.2423C232.011 75.1619 234.454 77.3628 236.718 79.6876C236.873 79.833 237.028 79.9784 237.188 80.1282C239.591 82.4146 242.413 85.9279 242.634 89.367C242.455 93 241.6 97.2659 238.837 99.789C238.641 99.965 238.446 100.141 238.244 100.322C235.998 102.167 235.998 102.167 234.795 104.662C234.964 105.564 235.23 106.366 235.546 107.227C235.706 108.297 235.774 109.37 235.839 110.449C235.854 110.699 235.87 110.949 235.887 111.206C236.226 121.993 231.402 132.155 224.19 139.927C219.867 144.485 214.868 148.429 208.868 150.464C200.057 153.545 192.227 158.955 185.155 164.941C184.858 165.188 184.562 165.434 184.256 165.688C181.59 167.92 179.131 170.317 176.696 172.797C176.142 173.359 175.588 173.92 175.032 174.481C174.692 174.825 174.352 175.17 174.013 175.516C173.169 176.37 172.306 177.182 171.397 177.967C170.239 178.969 169.156 180.029 168.08 181.119C167.888 181.313 167.695 181.506 167.496 181.706C166.888 182.318 166.28 182.932 165.673 183.545C164.871 184.355 164.068 185.163 163.265 185.971C162.996 186.244 162.996 186.244 162.722 186.522C161.629 187.621 160.497 188.654 159.324 189.667C158.64 190.266 157.997 190.899 157.36 191.547C156.99 191.919 156.99 191.919 156.613 192.3C156.364 192.553 156.115 192.806 155.858 193.066C154.307 194.641 152.754 196.182 151.075 197.62C150.321 198.276 149.643 198.996 148.957 199.721C148.534 200.098 148.534 200.098 147.948 200.098C147.948 200.291 147.948 200.484 147.948 200.684C147.559 201.076 147.559 201.076 146.996 201.544C145.959 202.424 144.953 203.329 143.956 204.254C142.011 206.047 140.01 207.769 137.987 209.473C137.796 209.634 137.606 209.795 137.409 209.962C124.435 220.908 109.425 229.888 91.818 228.454C81.6586 227.422 72.0655 222.759 65.3731 214.961C59.1136 206.98 56.1314 197.348 57.2753 187.221C58.417 178.612 62.1214 170.784 68.1403 164.517C68.8525 163.784 68.8525 163.784 69.461 162.998C70.3109 161.941 71.3287 161.127 72.3621 160.254C72.7376 159.923 72.7376 159.923 73.1208 159.584C80.1325 153.515 88.785 149.513 97.4752 146.504C110.473 141.996 123.183 136.128 135.057 129.199C135.351 129.029 135.644 128.859 135.946 128.683C144.036 123.972 151.788 118.665 159.081 112.793C159.367 112.564 159.653 112.335 159.947 112.1C161.524 110.825 163.05 109.506 164.549 108.14C165.166 107.581 165.792 107.036 166.423 106.494C169.291 103.977 171.572 101.16 173.822 98.1011C175.888 95.3058 178.051 92.7193 180.76 90.5274C181.037 90.3016 181.314 90.0757 181.599 89.8431C189.343 83.6426 198.806 80.1702 208.795 81.2365C209.993 81.397 211.182 81.5936 212.371 81.8104C212.575 81.846 212.778 81.8815 212.987 81.9181C213.549 82.0267 214.105 82.1692 214.659 82.3128C215.677 82.4306 215.677 82.4306 216.426 81.6411C216.686 81.3075 216.937 80.967 217.18 80.6214C217.315 80.4404 217.451 80.2594 217.59 80.0729C218.822 78.3716 219.844 76.5513 220.821 74.6942C220.934 74.4798 221.046 74.2654 221.163 74.0445C221.26 73.8543 221.358 73.664 221.459 73.4681C222.053 72.4966 222.534 72.1168 223.607 71.7042C225.922 71.2412 227.499 71.9908 229.393 73.2423ZM224.706 76.4649C224.535 76.811 224.535 76.811 224.36 77.1641C223.151 79.518 221.776 81.589 220.093 83.6296C219.733 84.0724 219.389 84.5276 219.044 84.9827C217.506 86.9084 217.506 86.9084 216.503 87.1571C215.783 87.093 215.148 86.9169 214.452 86.7188C213.69 86.5668 212.927 86.4204 212.163 86.2794C211.859 86.2207 211.859 86.2207 211.548 86.1609C209.787 85.826 208.041 85.6325 206.249 85.5469C206.027 85.5315 205.805 85.516 205.577 85.5C197.601 85.1843 189.66 88.6621 183.69 93.7501C183.535 93.8794 183.379 94.0088 183.219 94.142C180.568 96.3671 178.523 98.9083 176.481 101.692C172.543 107.041 167.795 111.578 162.537 115.607C161.805 116.175 161.087 116.759 160.368 117.342C158.145 119.143 155.867 120.834 153.514 122.461C153.278 122.625 153.041 122.79 152.797 122.959C135.622 134.849 117.116 144.23 97.4189 151.155C89.2838 154.019 81.0417 158.114 74.723 164.081C74.1914 164.581 73.6462 165.036 73.0762 165.491C71.6656 166.693 70.5685 168.174 69.4324 169.629C69.2107 169.905 68.989 170.18 68.7606 170.464C63.0613 177.743 60.5757 187.046 61.614 196.222C62.8021 204.534 67.2163 211.912 73.8269 217.09C82.1254 223.058 92.1602 225.166 102.219 223.676C114.745 221.613 125.323 214.548 134.775 206.406C135.571 205.726 136.381 205.071 137.2 204.419C138.82 203.102 140.333 201.68 141.845 200.242C142.994 199.149 144.162 198.088 145.365 197.055C145.906 196.574 146.416 196.073 146.923 195.557C147.599 194.868 148.293 194.224 149.028 193.597C150.239 192.556 151.356 191.434 152.47 190.291C153.233 189.515 154.012 188.782 154.842 188.077C156.694 186.475 158.385 184.7 160.106 182.959C160.798 182.259 161.491 181.561 162.184 180.862C162.415 180.628 162.415 180.628 162.65 180.39C163.467 179.568 164.302 178.786 165.181 178.031C166.558 176.839 167.834 175.555 169.115 174.262C169.366 174.009 169.617 173.757 169.876 173.497C170.673 172.697 171.469 171.895 172.264 171.094C173.313 170.037 174.363 168.981 175.414 167.926C175.651 167.687 175.888 167.447 176.132 167.201C177.528 165.799 178.964 164.469 180.468 163.184C180.778 162.909 181.088 162.634 181.398 162.359C188.791 155.852 197.34 150.289 206.536 146.716C215.866 143.065 223.899 135.992 228.221 126.856C231.576 119.168 232.73 110.595 229.979 102.539C230.252 102.269 230.252 102.269 230.53 101.993C231.207 101.321 231.884 100.648 232.56 99.9749C232.852 99.6843 233.144 99.3939 233.437 99.1038C233.858 98.6856 234.279 98.2664 234.7 97.8471C235.08 97.4696 235.08 97.4696 235.467 97.0846C236.752 95.7355 237.208 94.7039 237.523 92.8712C237.564 92.6627 237.604 92.4542 237.646 92.2394C237.832 91.2071 237.98 90.3518 237.596 89.3555C234.363 91.6134 229.708 94.878 227.928 98.4376C226.775 98.2761 226.25 97.744 225.445 96.9292C225.078 96.5599 225.078 96.5599 224.704 96.1831C224.324 95.7945 224.324 95.7945 223.937 95.398C223.681 95.1412 223.426 94.8844 223.163 94.6198C220.679 92.1053 220.679 92.1053 220.477 91.0126C220.656 89.9176 221.289 89.3706 222.051 88.6231C224.275 86.3225 227.398 83.0628 227.507 79.6876C227.463 78.4312 226.875 77.7385 226.055 76.8311C225.568 76.3749 225.568 76.3749 224.706 76.4649Z" fill="black"/>
</svg>
