<svg width="300" height="300" viewBox="0 0 300 300" fill="none" xmlns="http://www.w3.org/2000/svg">
<path d="M182.081 87.8173C182.281 87.8211 182.482 87.825 182.689 87.829C183.316 87.8437 183.943 87.8664 184.571 87.8905C184.776 87.8966 184.98 87.9027 185.191 87.909C189.125 88.0336 189.125 88.0336 190.43 89.0624C191.653 90.5059 191.941 91.9602 192.28 93.7682C192.368 94.2117 192.368 94.2117 192.459 94.6642C192.805 96.4165 193.126 98.173 193.443 99.931C193.62 100.911 193.799 101.89 193.978 102.869C194.109 103.592 194.234 104.315 194.36 105.038C194.442 105.491 194.524 105.943 194.606 106.396C194.64 106.601 194.674 106.807 194.71 107.019C195.081 109.009 196.05 110.298 197.485 111.671C197.71 111.89 197.935 112.109 198.167 112.335C198.632 112.783 199.099 113.23 199.565 113.676C201.14 115.212 202.418 116.808 203.614 118.652C203.807 118.946 204.001 119.24 204.201 119.543C207.223 124.557 208.909 130.625 208.947 136.481C208.949 136.696 208.951 136.912 208.953 137.134C208.958 137.828 208.96 138.521 208.96 139.215C208.961 139.452 208.961 139.689 208.961 139.933C208.956 143.552 208.812 147.044 208.008 150.586C207.96 150.808 207.911 151.03 207.861 151.259C204.973 164.102 198.167 175.98 189.15 185.496C188.384 186.303 188.384 186.303 187.756 187.112C187.262 187.725 186.783 188.205 186.182 188.708C185.176 189.565 184.213 190.456 183.252 191.363C178.426 195.841 172.784 199.363 166.993 202.441C166.801 202.545 166.609 202.648 166.411 202.755C156.397 208.119 145.704 210.567 134.473 211.523C134.228 211.545 133.982 211.566 133.73 211.589C126.876 212.159 118.894 212.743 112.207 210.937C111.997 210.881 111.787 210.824 111.57 210.766C107.057 209.485 103.57 207.146 100.196 203.906C99.5697 203.311 98.9409 202.72 98.3098 202.13C98.1495 201.98 97.9891 201.83 97.8239 201.676C96.5685 200.519 95.2364 199.519 93.842 198.534C92.3149 197.435 91.374 196.337 90.8208 194.531C90.7085 193.666 90.7087 192.82 90.7292 191.949C90.733 191.717 90.7367 191.484 90.7405 191.244C90.8126 188.331 91.0975 185.898 93.1645 183.691C96.6914 180.574 100.967 178.416 105.176 176.385C105.518 176.219 105.518 176.219 105.866 176.05C108.45 174.832 110.928 174.492 113.746 174.206C127.189 172.73 139.335 167.244 149.271 157.998C149.904 157.413 150.55 156.854 151.209 156.299C159.401 149.137 165.177 138.565 167.031 127.979C168.054 122.27 170.618 117.5 174.848 113.489C177.05 111.313 177.144 109.064 177.247 106.055C177.208 104.637 177.12 103.225 177.018 101.811C176.94 100.714 176.873 99.617 176.806 98.5198C176.793 98.3071 176.78 98.0944 176.766 97.8752C176.666 96.2379 176.578 94.6028 176.551 92.9626C176.542 92.5868 176.534 92.211 176.526 91.8239C176.692 90.5881 177.007 89.7122 177.832 88.7694C179.265 87.9302 180.438 87.7839 182.081 87.8173ZM182.227 93.4569C182.173 96.8078 182.364 100.132 182.563 103.475C182.713 106.032 182.846 108.589 182.886 111.15C182.896 111.455 182.896 111.455 182.905 111.766C182.914 113.046 182.704 113.821 181.934 114.844C181.354 115.363 181.354 115.363 180.707 115.832C180.473 116.009 180.24 116.186 179.999 116.368C179.767 116.542 179.536 116.715 179.297 116.894C175.006 120.131 173.048 124.609 172.303 129.803C171.568 134.915 169.726 139.328 167.286 143.848C167.192 144.024 167.098 144.2 167.001 144.382C164.743 148.586 161.931 152.282 158.79 155.859C158.46 156.238 158.46 156.238 158.123 156.625C155.439 159.663 152.611 162.443 149.415 164.941C149.14 165.166 148.865 165.39 148.583 165.621C138.198 173.934 125.782 178.332 112.662 179.705C108.932 180.136 106.045 181.527 102.906 183.527C102.648 183.687 102.39 183.847 102.124 184.012C98.4383 186.111 98.4383 186.111 96.1675 189.459C96.1312 189.94 96.1312 189.94 96.0942 190.43C96.0451 190.644 95.996 190.859 95.9454 191.08C95.814 191.963 95.8224 192.502 96.0942 193.359C97.0956 194.45 98.2174 195.314 99.4006 196.198C100.12 196.748 100.789 197.347 101.459 197.955C101.695 198.168 101.931 198.38 102.174 198.6C102.787 199.176 103.357 199.776 103.931 200.391C108.438 204.934 114.799 206.62 121.041 206.652C121.655 206.65 122.269 206.643 122.883 206.634C123.325 206.631 123.767 206.628 124.21 206.625C144.059 206.429 162.742 201.895 178.125 188.672C178.476 188.373 178.476 188.373 178.834 188.069C179.385 187.592 179.927 187.107 180.469 186.621C180.682 186.438 180.895 186.255 181.115 186.067C192.522 176.132 201.387 160.971 203.321 145.898C203.361 145.607 203.361 145.607 203.402 145.311C204.533 136.428 203.348 126.959 197.773 119.696C195.992 117.603 194.086 115.983 191.65 114.703C190.345 113.786 190.011 112.517 189.746 111.005C189.683 110.651 189.619 110.297 189.554 109.932C189.489 109.553 189.424 109.173 189.357 108.782C189.287 108.386 189.216 107.99 189.146 107.594C188.961 106.555 188.78 105.516 188.6 104.476C188.38 103.213 188.157 101.951 187.934 100.689C187.76 99.7065 187.588 98.7243 187.417 97.7417C187.324 97.2122 187.324 97.2122 187.23 96.6721C187.176 96.3616 187.122 96.0512 187.066 95.7313C186.888 94.7292 186.888 94.7292 186.622 93.7499C185.777 93.3274 185.034 93.4294 184.095 93.4386C183.161 93.4478 183.161 93.4478 182.227 93.4569Z" fill="black"/>
<path d="M181.054 124.219C181.794 124.78 181.924 125.073 182.226 125.976C182.789 133.429 180.273 141.239 176.676 147.683C176.341 148.287 176.022 148.898 175.703 149.511C171.407 157.64 165.061 165.317 157.835 171.036C157.298 171.466 156.771 171.907 156.253 172.359C144.267 182.816 127.748 188.795 112.133 190.613C111.382 190.702 110.631 190.793 109.881 190.884C109.394 190.942 108.908 190.999 108.421 191.056C107.296 191.187 106.177 191.33 105.059 191.513C104.859 191.544 104.659 191.576 104.453 191.608C103.919 191.694 103.386 191.785 102.853 191.877C101.782 191.898 101.331 191.657 100.487 191.016C99.9224 190.271 99.8988 189.907 99.9381 188.965C100.238 187.938 100.558 187.599 101.366 186.914C103.519 186.02 105.958 185.784 108.251 185.467C108.593 185.418 108.935 185.368 109.287 185.317C111.028 185.066 112.771 184.827 114.516 184.6C133.273 182.102 152.343 171.974 164.098 156.921C164.585 156.281 165.058 155.633 165.526 154.98C165.753 154.669 165.98 154.357 166.213 154.036C171.683 146.328 175.847 137.88 176.667 128.367C176.914 125.609 176.914 125.609 177.831 124.512C178.968 123.836 179.795 123.863 181.054 124.219Z" fill="black"/>
</svg>
