<svg width="300" height="300" viewBox="0 0 300 300" fill="none" xmlns="http://www.w3.org/2000/svg">
<path d="M196.565 68.4631C196.811 68.4579 197.056 68.4528 197.309 68.4475C198.747 68.4489 199.748 68.6116 200.978 69.4335C201.96 70.4825 202.315 71.2177 202.482 72.6389C202.525 73.0026 202.568 73.3664 202.613 73.7412C202.812 75.713 202.982 77.6873 203.144 79.6625C203.321 81.8282 203.519 83.9919 203.718 86.1558C203.867 87.7928 204.009 89.4299 204.137 91.0687C204.262 92.6671 204.405 94.2628 204.561 95.8585C204.616 96.4617 204.665 97.0656 204.707 97.6699C204.956 101.614 204.956 101.614 207.142 104.75C207.838 105.309 208.555 105.819 209.299 106.312C215.26 110.496 218.327 119.84 219.56 126.62C219.736 127.672 219.887 128.727 220.021 129.785C220.06 130.087 220.098 130.389 220.138 130.699C220.227 131.568 220.279 132.429 220.314 133.301C220.322 133.488 220.33 133.675 220.338 133.868C221.212 157.603 208.376 181.012 192.666 198.007C190.266 200.583 187.836 203.083 185.158 205.371C184.86 205.632 184.562 205.894 184.264 206.156C176.894 212.606 168.678 217.661 159.963 222.07C159.725 222.191 159.488 222.312 159.244 222.437C150.593 226.817 141.128 229.726 131.545 231.152C131.329 231.185 131.114 231.217 130.892 231.25C118.043 233.129 102.967 232.336 91.8656 224.872C89.8435 223.36 88.0233 221.64 86.2809 219.818C85.1842 218.698 84.0439 217.972 82.6875 217.203C81.3826 216.393 80.616 215.416 80.2018 213.922C79.6223 211.041 78.9639 207.429 80.568 204.785C81.5186 203.744 82.5286 202.936 83.6808 202.13C85.009 201.153 86.1096 200.143 87.1964 198.907C92.4289 192.993 100.208 189.872 107.542 187.388C117.109 184.131 126.088 179.171 134.181 173.144C134.337 173.029 134.493 172.914 134.654 172.795C136.597 171.353 138.465 169.836 140.297 168.256C140.564 168.026 140.564 168.026 140.835 167.792C142.089 166.697 143.269 165.543 144.435 164.355C145.192 163.596 145.952 162.84 146.719 162.092C148.64 160.214 150.408 158.282 152.052 156.152C152.187 155.979 152.321 155.805 152.46 155.626C160.76 144.854 167.303 132.541 169.426 118.972C169.457 118.771 169.488 118.57 169.521 118.364C169.673 117.378 169.816 116.392 169.95 115.403C170.586 110.968 172.192 107.64 175.49 104.59C175.762 104.318 176.034 104.046 176.314 103.766C177.4 102.843 178.618 102.224 179.884 101.587C180.083 101.487 180.281 101.387 180.485 101.284C181.729 100.677 182.938 100.245 184.279 99.9023C184.328 97.3162 184.197 94.7567 184.008 92.1796C183.957 91.4915 183.908 90.8034 183.86 90.1152C183.739 88.4069 183.616 86.6988 183.493 84.9907C183.389 83.5424 183.285 82.094 183.184 80.6455C183.136 79.9753 183.087 79.3053 183.037 78.6352C182.896 76.6692 182.779 74.7013 182.721 72.731C182.71 72.412 182.699 72.0931 182.688 71.7644C182.845 70.6832 183.234 70.2094 183.986 69.4335C187.208 67.8225 192.971 68.5 196.565 68.4631ZM189.552 75.2929C189.513 77.8036 189.636 80.2907 189.798 82.7956C189.824 83.1999 189.85 83.6042 189.875 84.0085C189.928 84.8496 189.982 85.6907 190.037 86.5317C190.107 87.6049 190.174 88.6783 190.242 89.7516C190.294 90.5841 190.347 91.4165 190.401 92.249C190.439 92.8356 190.475 93.4222 190.512 94.0088C190.454 96.8178 190.454 96.8178 191.31 99.3163C192.236 99.3865 193.16 99.4316 194.088 99.468C195.267 99.5267 196.387 99.6701 197.544 99.9092C197.934 99.9893 197.934 99.9893 198.332 100.071C198.627 100.132 198.627 100.132 198.927 100.195C198.67 97.6888 198.413 95.1824 198.156 92.676C198.036 91.5116 197.916 90.3472 197.797 89.1827C197.072 82.0883 197.072 82.0883 196.291 74.9999C194.026 74.9678 191.807 75.0788 189.552 75.2929ZM187.502 106.055C187.534 106.223 187.566 106.391 187.599 106.564C187.702 107.119 187.802 107.674 187.899 108.23C188.028 108.946 188.17 109.659 188.322 110.37C191.904 128.165 184.861 146.708 175.288 161.461C173.538 164.087 171.583 166.566 169.631 169.043C169.433 169.297 169.433 169.297 169.231 169.555C166.69 172.813 163.788 175.783 160.878 178.711C160.732 178.858 160.586 179.006 160.435 179.158C147.351 192.186 130.348 200.694 113.033 206.506C112.833 206.574 112.633 206.641 112.427 206.71C103.293 209.772 103.293 209.772 100.783 209.18C99.7581 208.155 99.3488 207.112 99.318 205.664C99.7427 204.684 100.019 204.281 100.999 203.828C101.517 203.686 101.517 203.686 102.046 203.54C102.246 203.482 102.445 203.425 102.651 203.365C103.119 203.23 103.589 203.096 104.058 202.965C110.155 201.261 116.035 199.331 121.877 196.875C122.146 196.762 122.415 196.648 122.693 196.532C134.37 191.565 144.879 184.721 154.396 176.367C154.559 176.225 154.721 176.083 154.889 175.937C155.349 175.533 155.807 175.127 156.264 174.719C156.526 174.486 156.788 174.252 157.058 174.012C157.687 173.501 157.687 173.501 157.619 172.851C157.909 172.755 158.199 172.658 158.498 172.559C158.941 172.133 158.941 172.133 159.377 171.588C160.238 170.568 161.133 169.592 162.05 168.622C164.063 166.452 165.824 164.098 167.58 161.719C167.73 161.517 167.88 161.316 168.034 161.109C177.68 148.111 184.824 131.001 182.814 114.551C182.377 111.385 182.377 111.385 181.349 108.398C180.351 108.569 179.859 108.89 179.152 109.607C178.903 109.853 178.903 109.853 178.648 110.104C177.322 111.727 176.768 113.2 176.464 115.235C176.385 115.711 176.306 116.188 176.227 116.664C176.187 116.911 176.148 117.158 176.107 117.412C173.392 134.262 166.129 150.425 154.474 163.044C153.927 163.642 153.396 164.249 152.867 164.862C151.695 166.205 150.456 167.473 149.196 168.732C148.963 168.964 148.731 169.197 148.491 169.436C146.824 171.086 145.112 172.58 143.263 174.023C142.719 174.486 142.176 174.95 141.634 175.415C137.473 178.875 132.974 181.816 128.322 184.57C127.996 184.763 127.996 184.763 127.664 184.96C120.87 188.941 113.672 192.108 106.239 194.686C101.797 196.243 94.6499 198.78 91.9389 202.808C91.2394 206.036 91.5541 208.86 92.2318 212.054C92.3133 212.458 92.3944 212.863 92.475 213.267C92.918 216.485 92.918 216.485 94.3925 219.199C99.661 222.572 105.777 224.34 111.916 225.293C112.108 225.323 112.301 225.353 112.5 225.384C114.787 225.69 117.102 225.657 119.405 225.659C119.632 225.659 119.859 225.66 120.093 225.66C124.063 225.654 127.922 225.401 131.838 224.707C132.123 224.657 132.408 224.606 132.702 224.555C145.673 222.197 158.086 217.089 169.045 209.766C169.374 209.545 169.374 209.545 169.711 209.321C172.634 207.35 175.398 205.205 178.102 202.945C178.542 202.582 178.986 202.225 179.434 201.872C181.518 200.212 183.414 198.417 185.288 196.528C185.78 196.033 186.275 195.541 186.77 195.05C188.707 193.115 190.493 191.117 192.189 188.965C192.486 188.604 192.783 188.244 193.082 187.884C205.901 172.257 215.394 151.545 213.802 130.976C213.462 127.617 212.657 124.462 211.525 121.289C211.442 121.033 211.359 120.777 211.273 120.513C209.57 115.678 205.988 110.976 201.564 108.398C201.644 108.662 201.644 108.662 201.725 108.932C203.569 115.049 205.124 121.024 205.373 127.441C205.391 127.868 205.391 127.868 205.409 128.303C205.657 140.161 202.119 151.783 196.877 162.305C196.679 162.705 196.679 162.705 196.477 163.113C193.709 168.677 190.45 173.819 186.623 178.711C186.415 178.977 186.208 179.244 185.994 179.519C185.431 180.233 184.858 180.938 184.279 181.641C184.046 181.924 183.814 182.208 183.574 182.5C182.028 184.366 180.419 186.167 178.767 187.939C178.585 188.136 178.403 188.332 178.215 188.535C177.397 189.404 176.583 190.222 175.651 190.97C175.405 191.178 175.158 191.387 174.904 191.601C174.904 191.795 174.904 191.988 174.904 192.187C174.743 192.254 174.583 192.32 174.418 192.389C173.526 192.889 172.879 193.532 172.139 194.238C170.326 195.934 168.405 197.454 166.408 198.926C166.209 199.073 166.01 199.22 165.806 199.372C151.932 209.629 129.661 223.063 111.623 220.898C110.693 220.526 110.489 220.271 109.865 219.434C109.513 218.273 109.447 217.679 109.92 216.559C111.059 215.184 112.541 215.181 114.223 214.984C138.227 211.788 163.244 198.383 178.359 179.229C178.956 178.48 179.573 177.755 180.201 177.032C181.91 175.054 183.424 172.984 184.865 170.801C185.053 170.52 185.053 170.52 185.245 170.233C194.877 155.828 201.968 137.822 198.501 120.262C197.641 116.317 196.293 112.564 194.507 108.946C194.272 108.465 194.057 107.975 193.844 107.484C193.449 106.707 193.198 106.261 192.482 105.762C190.789 105.48 189.136 105.51 187.502 106.055Z" fill="black"/>
</svg>
