<svg width="300" height="300" viewBox="0 0 300 300" fill="none" xmlns="http://www.w3.org/2000/svg">
<path d="M221.847 102.664C225.911 106.5 229.281 110.91 232.023 115.772C232.222 116.125 232.424 116.477 232.627 116.828C240.995 131.263 242.532 149.23 238.398 165.192C236.076 173.702 232.095 181.861 226.466 188.672C226.103 189.124 226.103 189.124 225.733 189.585C222.563 193.482 219.003 197.046 214.953 200.024C214.456 200.39 213.964 200.762 213.473 201.136C210.304 203.505 206.856 205.365 203.322 207.129C203.585 207.129 203.585 207.129 203.853 207.129C208.12 207.134 212.387 207.146 216.654 207.168C218.717 207.178 220.78 207.185 222.844 207.186C224.835 207.187 226.825 207.196 228.816 207.209C229.576 207.213 230.336 207.214 231.096 207.213C232.16 207.211 233.223 207.219 234.286 207.229C234.759 207.225 234.759 207.225 235.242 207.221C237.375 207.254 237.375 207.254 238.528 208.117C239.427 209.407 239.263 210.6 239.064 212.109C238.734 213.153 238.734 213.153 238.185 213.867C236.648 214.566 235.18 214.536 233.526 214.528C233.234 214.529 232.942 214.53 232.641 214.531C231.657 214.533 230.674 214.531 229.69 214.53C228.979 214.53 228.269 214.532 227.558 214.533C226.011 214.535 224.464 214.536 222.916 214.535C220.615 214.533 218.315 214.535 216.014 214.538C211.666 214.542 207.318 214.543 202.97 214.542C199.612 214.541 196.255 214.542 192.898 214.543C192.416 214.543 191.934 214.543 191.452 214.544C190.725 214.544 189.999 214.544 189.273 214.544C182.517 214.547 175.762 214.548 169.007 214.547C168.625 214.547 168.625 214.547 168.235 214.547C166.944 214.547 165.653 214.546 164.362 214.546C164.106 214.546 163.849 214.546 163.585 214.546C163.067 214.546 162.548 214.546 162.03 214.546C153.96 214.544 145.89 214.546 137.82 214.552C128.756 214.558 119.692 214.561 110.628 214.56C109.662 214.56 108.696 214.56 107.73 214.559C107.492 214.559 107.254 214.559 107.009 214.559C103.415 214.559 99.8216 214.561 96.2277 214.564C92.1416 214.568 88.0554 214.568 83.9692 214.564C81.6817 214.562 79.3942 214.563 77.1066 214.567C75.4002 214.57 73.6938 214.568 71.9874 214.564C71.2958 214.563 70.6042 214.564 69.9126 214.566C68.9748 214.569 68.0373 214.567 67.0995 214.563C66.829 214.565 66.5586 214.567 66.2799 214.569C64.6706 214.556 63.5298 214.355 62.111 213.574C61.2245 212.316 61.0694 211.284 61.2321 209.766C61.6941 208.6 61.9381 208.123 62.9899 207.422C63.8826 207.361 64.7493 207.334 65.6425 207.333C65.9142 207.331 66.1859 207.328 66.4657 207.326C67.3667 207.318 68.2676 207.315 69.1685 207.311C69.796 207.306 70.4235 207.301 71.0509 207.296C72.7069 207.282 74.3628 207.272 76.0188 207.263C78.6599 207.248 81.301 207.229 83.942 207.208C84.8611 207.201 85.7802 207.196 86.6993 207.192C89.4539 207.175 92.1834 207.149 94.9235 206.836C94.6633 206.729 94.4031 206.622 94.135 206.511C89.2194 204.444 84.2943 202.086 79.9821 198.926C79.6928 198.719 79.4035 198.513 79.1054 198.3C77.2853 196.973 75.6107 195.561 73.9682 194.022C73.4872 193.582 72.9904 193.159 72.4793 192.754C71.4216 191.899 70.5977 190.885 69.7282 189.844C69.4511 189.518 69.4511 189.518 69.1685 189.185C61.6392 180.084 58.9414 169.033 59.8312 157.365C60 155.862 60.2917 154.399 60.6461 152.93C60.6948 152.717 60.7436 152.505 60.7938 152.286C62.3386 145.678 65.5073 139.2 69.7282 133.887C69.9389 133.62 70.1496 133.354 70.3667 133.079C74.0985 128.443 78.1285 124.247 82.9117 120.703C83.0751 120.581 83.2385 120.458 83.4068 120.332C90.5272 115.007 98.4289 111.142 106.642 107.813C106.939 107.691 107.236 107.57 107.541 107.445C110.38 106.282 113.228 105.148 116.109 104.093C120.535 102.472 124.885 100.739 129.201 98.8404C129.447 98.7324 129.692 98.6243 129.945 98.513C131.134 97.9899 132.322 97.4656 133.51 96.941C143.767 92.4148 154.422 88.2321 165.529 86.4259C165.908 86.3632 166.288 86.3005 166.679 86.2359C186.808 83.146 206.911 88.7913 221.847 102.664ZM132.698 104.901C129.777 106.215 126.802 107.389 123.823 108.563C122.867 108.94 121.912 109.319 120.957 109.698C119.909 110.114 118.86 110.529 117.812 110.944C117.603 111.026 117.395 111.109 117.18 111.193C114.815 112.128 112.444 113.038 110.048 113.892C107.508 114.804 105.1 115.944 102.678 117.132C101.934 117.49 101.185 117.835 100.433 118.176C91.1229 122.431 82.5384 128.764 76.1735 136.816C75.9378 137.102 75.7022 137.388 75.4594 137.683C69.0443 145.651 65.6053 156.127 66.6558 166.363C67.818 176.287 72.9687 184.723 80.7244 190.946C91.7952 199.554 105.285 204.284 118.947 206.836C119.336 206.912 119.336 206.912 119.733 206.989C120.831 207.147 121.907 207.173 123.015 207.174C123.242 207.175 123.469 207.177 123.704 207.178C124.463 207.182 125.223 207.184 125.982 207.186C126.528 207.188 127.074 207.19 127.62 207.193C129.413 207.2 131.207 207.205 133 207.209C133.621 207.211 134.242 207.212 134.862 207.214C137.45 207.22 140.038 207.226 142.625 207.229C146.312 207.234 149.999 207.243 153.686 207.26C156.289 207.272 158.892 207.277 161.494 207.279C163.043 207.28 164.591 207.283 166.139 207.293C179.117 207.37 191.141 205.695 202.736 199.512C203.072 199.335 203.408 199.158 203.754 198.976C208.311 196.483 212.339 193.356 216.035 189.72C216.457 189.306 216.886 188.898 217.316 188.492C219.316 186.57 221.018 184.458 222.658 182.227C222.78 182.06 222.902 181.894 223.028 181.723C230.413 171.517 234.496 158.52 233.791 145.899C233.778 145.675 233.766 145.451 233.753 145.221C232.983 132.713 228.664 120.491 220.314 111.035C220.184 110.886 220.055 110.737 219.921 110.584C210.471 99.7829 196.98 93.8098 182.787 92.6312C164.948 91.5211 148.703 97.692 132.698 104.901Z" fill="black"/>
<path d="M184.845 105.707C186.188 105.981 187.283 106.702 188.086 107.812C188.739 109.591 187.918 111.148 187.299 112.83C186.186 115.999 185.367 119.14 184.864 122.461C184.834 122.649 184.805 122.838 184.774 123.032C183.888 129.623 184.294 136.803 185.743 143.262C185.804 143.541 185.865 143.821 185.928 144.109C188.659 156.261 194.577 167.522 203.173 176.549C204.102 177.531 204.713 178.204 205.152 179.498C205.034 181.057 204.274 181.84 203.229 182.941C202.442 183.398 202.442 183.398 201.471 183.453C199.975 182.971 199.152 182.146 198.047 181.055C197.806 180.831 197.565 180.608 197.316 180.377C184.623 168.292 177.812 149.266 177.181 132.043C177.001 124.355 178.24 116.73 180.909 109.515C180.985 109.303 181.061 109.091 181.139 108.872C181.846 107.087 182.797 105.804 184.845 105.707Z" fill="black"/>
<path d="M139.746 162.012C140.616 162.537 141.335 163.14 141.797 164.063C141.877 164.709 141.877 164.709 141.907 165.472C141.921 165.722 141.935 165.972 141.95 166.229C141.724 167.354 141.221 167.748 140.332 168.457C139.568 168.803 138.874 169.073 138.08 169.318C137.737 169.426 137.737 169.426 137.388 169.537C132.509 171.037 127.516 172.012 122.479 172.797C122.282 172.828 122.084 172.858 121.881 172.89C117.66 173.542 113.56 173.8 109.296 173.804C109.039 173.804 108.782 173.805 108.517 173.805C105.138 173.804 101.799 173.706 98.4374 173.346C98.1115 173.312 97.7856 173.277 97.4498 173.242C93.4785 172.757 93.4785 172.757 92.0104 171.478C91.3623 170.068 91.2454 168.93 91.7357 167.487C92.3679 166.581 92.7199 166.223 93.7499 165.82C95.715 165.662 97.5964 165.958 99.5406 166.25C111.915 167.931 125.18 166.22 136.964 162.252C137.962 161.924 138.701 161.881 139.746 162.012Z" fill="black"/>
<path d="M136.817 113.086C143.54 117.453 147.579 126.665 150.293 133.887C150.393 134.137 150.493 134.387 150.596 134.644C151.191 136.22 151.48 137.776 151.172 139.453C150.451 140.501 149.875 140.844 148.719 141.357C147.688 141.5 147.014 141.503 146.079 141.015C144.303 139.552 143.707 136.576 142.908 134.481C140.789 128.996 137.825 123.995 133.797 119.687C132.207 117.987 132.207 117.987 131.781 116.821C131.863 115.623 132.277 114.964 133.145 114.144C134.489 112.995 135.081 112.572 136.817 113.086Z" fill="black"/>
<path d="M77.0371 160.154C77.6412 160.422 78.2244 160.713 78.8084 161.023C79.0142 161.13 79.2201 161.238 79.4322 161.349C82.8975 163.201 82.8975 163.201 83.4272 164.695C83.6549 165.958 83.565 166.566 82.9649 167.725C82.1209 168.689 81.9332 168.73 80.6394 168.86C77.9116 168.829 74.7582 167.572 72.656 165.82C71.8652 164.634 71.9133 163.696 72.0701 162.305C72.9488 160.177 74.841 159.414 77.0371 160.154Z" fill="black"/>
<path d="M100.767 136.152C101.934 136.754 102.628 137.364 103.123 138.574C103.528 140.338 103.492 141.685 102.537 143.262C101.393 144.325 100.302 144.652 98.779 144.754C97.3528 144.693 96.5707 144.021 95.5609 143.079C94.7129 141.966 94.5127 140.833 94.6271 139.453C94.9876 138.117 95.5841 137.14 96.7511 136.377C98.0888 135.737 99.3699 135.63 100.767 136.152Z" fill="black"/>
<path d="M173.146 172.266C174.522 172.769 175.258 173.398 176.075 174.609C176.472 175.801 176.524 176.879 176.368 178.125C175.591 179.624 174.748 180.521 173.146 181.055C171.524 181.246 170.567 180.929 169.259 180.024C168.343 179.242 167.958 178.447 167.792 177.261C167.723 175.877 167.975 174.907 168.751 173.731C170.189 172.432 171.209 172.067 173.146 172.266Z" fill="black"/>
<path d="M218.226 148.535C219.414 149.653 220.075 151.018 220.167 152.655C219.96 154.289 219.485 155.357 218.153 156.409C216.466 157.132 215.294 157.102 213.575 156.445C212.561 155.769 211.981 155.226 211.525 154.102C211.358 152.774 211.354 151.563 211.891 150.33C213.617 148.233 215.585 147.616 218.226 148.535Z" fill="black"/>
</svg>
