<svg width="300" height="300" viewBox="0 0 300 300" fill="none" xmlns="http://www.w3.org/2000/svg">
<path d="M200.991 66.0447C201.22 66.0557 201.449 66.0668 201.685 66.0782C201.969 66.0916 202.253 66.105 202.546 66.1188C204.713 66.3056 206.874 66.5186 209.034 66.7724C209.88 66.8705 210.727 66.9613 211.574 67.052C212.115 67.1145 212.656 67.1775 213.198 67.2409C213.449 67.2669 213.701 67.2929 213.96 67.3196C215.385 67.4963 216.443 67.6679 217.384 68.8476C217.73 71.0191 216.924 73.0698 216.302 75.1362C216.189 75.5224 216.075 75.9088 215.962 76.2952C215.664 77.3128 215.362 78.3293 215.059 79.3456C214.759 80.3529 214.462 81.3611 214.165 82.3694C214.048 82.7674 213.931 83.1655 213.814 83.5636C213.756 83.7595 213.698 83.9555 213.639 84.1575C213.465 84.747 213.291 85.3364 213.116 85.9257C212.274 88.7766 211.462 91.6354 210.674 94.502C210.597 94.782 210.519 95.062 210.44 95.3505C210.373 95.5945 210.306 95.8385 210.237 96.0899C210.06 96.6797 210.06 96.6797 209.767 97.2656C210.009 97.292 210.252 97.3185 210.503 97.3457C211.724 97.6001 212.708 98.0559 213.813 98.6206C214.02 98.7257 214.228 98.8309 214.441 98.9393C216.06 99.7824 217.493 100.723 218.849 101.953C219.049 102.13 219.249 102.307 219.455 102.489C222.48 105.318 225.077 109.674 225.345 113.88C225.362 114.77 225.36 115.657 225.349 116.547C225.349 116.844 225.349 117.142 225.348 117.449C225.338 119.17 225.238 120.858 225.067 122.57C224.963 123.779 224.958 124.983 224.964 126.196C224.965 126.577 224.965 126.577 224.966 126.965C224.976 128.442 225.034 129.905 225.148 131.378C225.283 133.209 225.355 135.036 225.386 136.871C225.399 137.271 225.399 137.271 225.412 137.679C225.429 139.542 225.429 139.542 224.786 140.517C223.735 141.151 223.103 140.897 221.945 140.64C219.699 139.979 217.515 139.13 215.333 138.281C215.321 138.471 215.309 138.661 215.296 138.857C215.132 141.016 214.754 143.075 214.271 145.184C214.193 145.528 214.115 145.872 214.034 146.226C208.152 171.748 196.286 196.614 176.368 214.16C176.22 214.292 176.071 214.425 175.918 214.561C164.532 224.665 150.368 231.385 135.353 233.789C135.155 233.823 134.958 233.858 134.754 233.893C121.245 236.206 105.79 233.282 94.5279 225.346C94.3682 225.232 94.2085 225.118 94.044 225C93.8832 224.886 93.7223 224.773 93.5566 224.655C83.9887 217.791 77.416 207.807 75.001 196.289C74.9467 196.032 74.8924 195.775 74.8364 195.511C74.3588 192.996 74.2979 190.508 74.3052 187.958C74.3055 187.739 74.3057 187.52 74.306 187.294C74.3201 183.645 74.5808 180.186 75.587 176.66C75.6546 176.421 75.7222 176.183 75.7918 175.937C79.558 163.149 88.8686 152.931 100.387 146.543C107.217 142.872 114.539 140.733 122.132 139.307C127.164 138.353 131.753 136.65 136.232 134.18C136.414 134.081 136.596 133.982 136.784 133.88C144.197 129.818 150.539 123.546 155.274 116.602C153.561 115.712 151.855 114.914 150.039 114.255C149.344 113.932 148.959 113.731 148.536 113.086C148.557 112.037 148.708 111.484 149.352 110.652C149.682 110.343 149.682 110.343 150.019 110.028C150.26 109.801 150.5 109.574 150.748 109.34C151.104 109.019 151.104 109.019 151.466 108.691C151.651 108.523 151.837 108.354 152.028 108.18C152.615 107.658 153.211 107.149 153.81 106.641C154.103 106.389 154.397 106.138 154.7 105.88C156.164 104.632 157.631 103.401 159.156 102.228C160.893 100.852 162.288 99.2069 163.712 97.5196C166.82 93.8765 170.571 91.2852 175.196 89.9414C175.419 89.8757 175.642 89.8099 175.872 89.7422C180.847 88.5193 185.688 89.78 190.517 90.9881C190.831 91.0666 191.145 91.1451 191.468 91.226C191.706 91.2855 191.944 91.3449 192.189 91.4062C192.255 91.1737 192.321 90.9412 192.39 90.7017C193.022 88.4911 193.656 86.2807 194.29 84.0706C194.616 82.9349 194.941 81.7991 195.266 80.663C195.581 79.5629 195.896 78.4631 196.212 77.3634C196.332 76.9476 196.451 76.5318 196.569 76.1158C196.955 74.7644 197.348 73.4156 197.755 72.0703C197.845 71.7707 197.845 71.7707 197.938 71.4651C198.121 70.8665 198.309 70.2698 198.499 69.6734C198.609 69.3246 198.719 68.9757 198.833 68.6163C199.283 67.5209 199.781 66.3803 200.991 66.0447ZM204.493 73.2422C203.226 77.2107 202.007 81.1909 200.834 85.1884C200.647 85.8267 200.458 86.4647 200.268 87.1024C199.989 88.0358 199.715 88.9701 199.441 89.9048C199.355 90.1904 199.269 90.476 199.181 90.7702C199.066 91.1655 199.066 91.1655 198.949 91.5687C198.881 91.7998 198.813 92.0309 198.742 92.269C198.574 92.9263 198.574 92.9263 198.927 93.75C199.722 94.008 200.476 94.2125 201.289 94.3908C201.511 94.4428 201.733 94.4947 201.962 94.5482C202.512 94.6761 203.063 94.7994 203.614 94.9218C204.276 93.2277 204.815 91.532 205.297 89.7789C205.37 89.5151 205.443 89.2513 205.519 88.9795C205.752 88.1407 205.983 87.3016 206.214 86.4624C206.367 85.9107 206.52 85.3591 206.673 84.8076C206.974 83.7238 207.274 82.6397 207.573 81.5554C207.86 80.5127 208.152 79.4713 208.447 78.4306C208.516 78.1878 208.585 77.945 208.655 77.6949C208.784 77.2395 208.914 76.7843 209.044 76.3294C209.287 75.4668 209.474 74.7293 209.474 73.8281C207.83 73.6347 206.187 73.4414 204.493 73.2422ZM169.923 100.195C169.275 100.961 168.647 101.74 168.02 102.522C165.794 105.241 163.399 107.636 160.672 109.85C160.437 110.047 160.203 110.245 159.962 110.449C159.962 110.546 159.962 110.643 159.962 110.742C166.15 112.068 172.828 110.864 178.664 108.678C180.003 108.274 180.94 108.185 182.191 108.838C182.918 109.693 182.91 110.157 182.88 111.252C182.765 112.399 182.438 113.47 182.099 114.569C180.465 119.995 181.179 124.891 182.795 130.243C182.866 130.485 182.936 130.728 183.009 130.977C183.235 131.73 183.235 131.73 183.692 132.715C184.388 133.031 184.73 133.052 185.457 132.814C185.664 132.706 185.87 132.599 186.083 132.488C186.314 132.369 186.545 132.249 186.783 132.126C187.026 131.994 187.269 131.862 187.519 131.726C187.77 131.591 188.02 131.457 188.278 131.318C190.266 130.222 191.999 129.002 193.653 127.441C193.938 127.18 194.222 126.919 194.515 126.649C197.648 123.696 200.121 120.32 202.021 116.458C202.442 115.723 202.442 115.723 203.321 115.137C204.771 115.2 205.519 115.593 206.544 116.602C207.056 117.497 207.448 118.434 207.844 119.385C208.075 119.915 208.306 120.445 208.538 120.975C208.648 121.231 208.759 121.487 208.873 121.751C210.781 126.148 213.482 130.315 217.97 132.422C218.163 132.325 218.357 132.228 218.556 132.129C218.554 131.802 218.553 131.476 218.551 131.139C218.546 129.921 218.542 128.703 218.54 127.485C218.538 126.959 218.536 126.433 218.534 125.907C218.53 125.149 218.528 124.39 218.527 123.632C218.526 123.399 218.524 123.166 218.523 122.926C218.522 121.57 218.635 120.288 218.849 118.945C219.187 114.827 218.814 111.356 216.108 108.047C211.212 102.686 202.898 101.394 196.199 99.4079C195.926 99.3271 195.654 99.2462 195.373 99.1629C192.522 98.3187 189.666 97.4949 186.793 96.7289C186.569 96.6686 186.345 96.6083 186.114 96.5461C180.361 95.0359 174.211 95.7026 169.923 100.195ZM171.305 116.966C170.068 117.145 168.893 117.191 167.643 117.147C164.748 116.941 164.748 116.941 162.092 117.828C161.247 118.76 160.759 119.871 160.247 121.009C159.768 121.972 159.116 122.781 158.442 123.614C158.31 123.781 158.177 123.948 158.04 124.119C155.716 126.996 153.181 129.809 150.294 132.129C149.973 132.395 149.652 132.661 149.33 132.928C141.298 139.536 132.261 143.976 122.037 145.909C115.731 147.121 109.639 148.926 104.005 152.051C103.582 152.265 103.582 152.265 103.151 152.484C99.9184 154.147 97.0206 156.327 94.3679 158.803C93.8645 159.27 93.3559 159.702 92.8172 160.126C85.9013 166.119 81.5805 175.854 80.8604 184.863C80.1995 195.47 83.6527 205.509 90.6176 213.531C94.6261 218.034 99.3835 221.383 104.884 223.828C105.085 223.919 105.287 224.009 105.494 224.103C118.875 230.01 135.015 228.841 148.464 223.794C155.47 221.037 161.957 217.354 167.872 212.695C168.139 212.485 168.405 212.275 168.68 212.059C173.712 208.016 178.565 203.448 182.521 198.34C182.777 198.031 183.035 197.723 183.293 197.415C186.05 194.107 188.395 190.531 190.724 186.914C190.921 186.608 190.921 186.608 191.123 186.296C199.891 172.609 210.447 150.158 209.474 133.594C209.106 133.081 209.106 133.081 208.576 132.66C206.554 130.776 205.182 128.408 203.907 125.977C202.948 126.905 202.049 127.873 201.161 128.87C200.709 129.37 200.258 129.871 199.806 130.371C199.647 130.55 199.488 130.729 199.324 130.914C196.007 134.457 191.392 136.899 187.007 138.812C186.688 138.956 186.369 139.099 186.04 139.247C182.76 140.688 182.76 140.688 181.349 140.625C179.975 139.638 179.377 138.31 178.73 136.798C178.631 136.57 178.532 136.341 178.429 136.106C177.702 134.383 177.094 132.636 176.551 130.847C176.481 130.618 176.412 130.389 176.34 130.152C175.394 126.879 175.112 123.737 175.16 120.337C175.162 119.975 175.165 119.614 175.168 119.242C175.175 118.362 175.184 117.482 175.196 116.602C173.865 116.587 172.619 116.754 171.305 116.966Z" fill="black"/>
</svg>
