<svg width="300" height="300" viewBox="0 0 300 300" fill="none" xmlns="http://www.w3.org/2000/svg">
<path d="M155.163 115.618C156.447 115.753 157.38 116.213 158.515 116.803C158.718 116.902 158.921 117.002 159.131 117.104C160.396 117.747 161.392 118.416 162.305 119.531C162.651 123.822 158.67 128.065 156.09 131.146C147.426 141.094 134.164 146.367 121.326 148.187C117.807 148.722 114.432 149.53 111.035 150.586C110.665 150.701 110.665 150.701 110.286 150.818C103.001 153.122 95.9618 156.598 90.2346 161.719C90.0214 161.906 90.0214 161.906 89.8039 162.097C82.2267 168.765 76.2902 177.772 75.5862 188.086C75.0309 198.315 78.4766 207.662 85.2542 215.332C94.0575 224.901 106.801 229.024 119.532 229.687C141.882 230.512 162.594 221.632 179.297 207.129C179.547 206.912 179.796 206.696 180.054 206.473C181.476 205.216 182.84 203.907 184.186 202.569C184.339 202.418 184.492 202.266 184.65 202.11C185.853 200.902 186.977 199.634 188.086 198.34C188.246 198.154 188.406 197.968 188.571 197.776C191.287 194.601 193.722 191.296 195.996 187.793C196.155 187.55 196.313 187.306 196.476 187.056C206.099 172.152 211.414 155.521 212.684 137.875C212.701 137.66 212.717 137.446 212.733 137.224C212.778 136.638 212.819 136.051 212.86 135.464C213.007 134.332 213.288 133.453 213.904 132.495C214.837 131.873 215.706 131.684 216.797 131.836C219.267 133.144 221.592 135.711 222.656 138.281C224.433 151.136 217.831 167.312 212.403 178.711C212.306 178.914 212.209 179.117 212.11 179.326C211.451 180.697 210.763 182.05 210.059 183.398C209.947 183.615 209.834 183.833 209.719 184.056C203.418 196.163 194.211 208.066 183.399 216.504C182.855 216.967 182.312 217.431 181.769 217.895C177.701 221.277 173.339 224.137 168.75 226.758C168.493 226.905 168.237 227.053 167.972 227.205C156.968 233.497 144.978 237.432 132.422 239.062C132.13 239.101 132.13 239.101 131.833 239.14C130.157 239.345 128.504 239.406 126.817 239.415C126.54 239.417 126.262 239.419 125.977 239.421C114.401 239.488 114.401 239.488 109.571 238.476C109.13 238.387 109.13 238.387 108.682 238.295C98.3701 236.141 89.0497 231.908 81.2579 224.74C80.786 224.317 80.3001 223.91 79.8033 223.517C78.742 222.658 77.924 221.651 77.051 220.605C76.9259 220.461 76.8008 220.316 76.6719 220.167C68.524 210.736 65.0408 199.246 65.6253 186.914C66.247 178.762 69.5837 170.89 74.4143 164.355C74.5318 164.192 74.6492 164.028 74.7702 163.859C78.1368 159.186 82.3621 155.138 87.012 151.758C87.2593 151.574 87.5067 151.39 87.7616 151.2C89.6881 149.805 91.7234 148.584 93.78 147.393C94.2907 147.097 94.7988 146.796 95.3067 146.495C103.129 142.067 112.01 139.725 120.821 138.256C131.431 136.479 143.348 132.201 149.914 123.159C151.285 121.186 152.458 119.161 153.47 116.98C153.923 116.081 154.145 115.756 155.163 115.618Z" fill="black"/>
<path d="M204.545 61.2557C204.95 61.3795 205.354 61.5054 205.757 61.6333C205.963 61.6945 206.168 61.7557 206.38 61.8187C208.328 62.4277 208.328 62.4277 208.888 63.2813C209.287 64.5779 209.065 65.6624 208.769 66.9514C208.722 67.1664 208.675 67.3814 208.627 67.6029C208.473 68.3053 208.314 69.0068 208.156 69.7083C208.048 70.193 207.941 70.6777 207.834 71.1625C206.856 75.5752 205.833 79.978 204.787 84.375C205.012 84.4082 205.237 84.4413 205.469 84.4755C207.299 84.7599 209.02 85.1061 210.756 85.7483C210.966 85.8246 211.176 85.901 211.392 85.9796C220.155 89.2539 226.763 95.7377 230.642 104.186C232.475 108.314 233.414 112.446 234.084 116.895C234.115 117.097 234.146 117.299 234.178 117.507C234.479 119.761 234.434 122.041 234.431 124.31C234.431 124.531 234.431 124.751 234.431 124.978C234.428 127.651 234.387 130.309 234.12 132.971C234.097 133.202 234.074 133.433 234.051 133.671C233.927 134.718 233.808 135.642 233.205 136.523C232.454 137 232.454 137 231.447 137.109C229.172 136.036 227.427 134.081 225.697 132.312C225.433 132.046 225.169 131.78 224.896 131.506C223.574 130.169 222.29 128.812 221.064 127.386C217.32 123.043 213.363 118.815 208.302 116.016C208.243 116.261 208.243 116.261 208.182 116.512C206.169 124.012 200.653 129.771 194.094 133.614C190.996 135.352 190.996 135.352 189.552 135.352C187.911 134.229 187.277 132.358 186.494 130.591C186.354 130.277 186.213 129.964 186.068 129.641C183.837 124.612 181.851 119.409 181.917 113.837C181.918 113.622 181.919 113.408 181.921 113.187C181.924 112.665 181.929 112.143 181.935 111.621C181.505 111.711 181.505 111.711 181.066 111.803C180.679 111.883 180.291 111.963 179.903 112.042C179.525 112.12 179.148 112.199 178.759 112.279C170.452 113.856 161.004 112.818 153.517 108.691C152.993 107.643 153.231 106.575 153.517 105.469C154.033 104.489 154.682 103.644 155.366 102.777C155.551 102.536 155.736 102.294 155.926 102.045C157.457 100.061 159.051 98.1342 160.721 96.266C161.127 95.8085 161.527 95.3453 161.925 94.8807C167.435 88.5476 175.023 84.3731 183.4 83.4961C186.062 83.3259 188.552 83.6009 191.168 84.0623C191.394 84.1021 191.619 84.1418 191.851 84.1828C192.051 84.2196 192.25 84.2564 192.456 84.2943C193.153 84.3863 193.83 84.3801 194.533 84.375C194.586 84.1406 194.639 83.9061 194.694 83.6646C195.197 81.4409 195.702 79.2174 196.206 76.9939C196.465 75.8511 196.725 74.7084 196.983 73.5655C197.234 72.4599 197.485 71.3543 197.736 70.2488C197.831 69.8298 197.926 69.4108 198.021 68.9917C198.239 68.0274 198.459 67.0636 198.683 66.1005C198.843 65.4031 198.998 64.7044 199.147 64.0043C199.217 63.6895 199.287 63.3747 199.359 63.0504C199.417 62.7756 199.476 62.5007 199.536 62.2176C200.431 59.9165 202.668 60.74 204.545 61.2557ZM169.63 100.488C168.381 101.627 168.381 101.627 167.873 103.125C176.671 103.348 176.671 103.348 184.572 99.9024C185.085 99.2329 185.442 98.5218 185.799 97.76C185.986 97.3826 186.173 97.0053 186.361 96.6282C186.45 96.4441 186.54 96.2599 186.632 96.0702C187.082 95.178 187.584 94.3198 188.087 93.4571C180.558 92.6329 175.061 95.5173 169.63 100.488ZM205.666 94.6289C205.797 94.8816 205.928 95.1342 206.063 95.3945C206.243 95.7552 206.422 96.1165 206.599 96.4783C206.696 96.6729 206.793 96.8675 206.892 97.068C207.417 98.1845 207.785 99.2107 207.983 100.431C208.456 103.406 208.456 103.406 210.376 105.612C211.564 106.38 212.807 107.041 214.055 107.707C215.085 108.3 215.965 109.023 216.853 109.808C217.083 110.011 217.083 110.011 217.318 110.217C217.732 110.585 218.144 110.957 218.556 111.328C218.965 111.676 219.374 112.024 219.783 112.372C220.996 113.434 222.117 114.587 223.243 115.74C223.728 116.343 223.728 116.343 224.123 116.309C223.967 114.49 223.667 112.871 223.079 111.145C223.002 110.918 222.925 110.692 222.846 110.458C221.611 106.961 219.878 103.841 217.384 101.074C217.219 100.889 217.054 100.703 216.884 100.512C214.349 97.823 210.088 94.7575 206.288 94.5923C205.98 94.6104 205.98 94.6104 205.666 94.6289ZM196.291 99.3164C192.955 102.862 191.685 107.702 191.493 112.463C191.545 113.908 191.774 115.339 191.988 116.766C192.022 116.998 192.056 117.23 192.092 117.469C192.357 119.1 192.795 120.617 193.361 122.168C196.57 120.48 198.274 116.432 199.344 113.117C200.481 108.975 200.02 104.474 197.993 100.708C197.723 100.242 197.45 99.777 197.169 99.3164C196.879 99.3164 196.589 99.3164 196.291 99.3164Z" fill="black"/>
</svg>
