<svg width="300" height="300" viewBox="0 0 300 300" fill="none" xmlns="http://www.w3.org/2000/svg">
<path d="M152.052 65.0391C153.135 66.0951 153.501 66.9179 153.553 68.4336C153.555 68.8823 153.554 69.331 153.552 69.7797C153.553 70.1505 153.553 70.1505 153.553 70.5288C153.554 71.3601 153.552 72.1914 153.55 73.0227C153.55 73.6175 153.55 74.2122 153.551 74.8069C153.551 76.4242 153.549 78.0414 153.547 79.6587C153.545 81.3479 153.545 83.037 153.545 84.7261C153.544 87.926 153.541 91.1259 153.538 94.3257C153.535 97.9681 153.533 101.611 153.532 105.253C153.529 112.747 153.524 120.241 153.517 127.734C154.097 127.638 154.677 127.541 155.275 127.441C155.36 127.141 155.445 126.84 155.533 126.53C157.831 118.41 160.194 110.311 162.632 102.231C162.895 101.357 163.158 100.483 163.421 99.6087C163.85 98.186 164.281 96.7642 164.716 95.3432C164.877 94.8138 165.038 94.2841 165.197 93.7541C167.376 86.5331 167.376 86.5331 169.905 84.5399C170.07 84.4077 170.234 84.2755 170.404 84.1393C170.923 83.724 171.448 83.3167 171.974 82.9102C172.317 82.6416 172.659 82.3727 173.001 82.1034C173.514 81.6999 174.028 81.297 174.543 80.8961C175.713 79.9836 176.853 79.0416 177.98 78.0762C179.44 76.8256 180.936 75.6303 182.454 74.4507C183.623 73.5377 184.763 72.596 185.89 71.6309C187.847 69.9597 189.849 68.3553 191.896 66.7969C192.284 66.4984 192.284 66.4984 192.679 66.1938C194.254 65.0497 194.254 65.0497 195.503 65.0025C196.396 65.3764 196.862 65.7478 197.463 66.504C197.817 67.5667 197.803 68.5441 197.807 69.6507C197.809 69.8814 197.811 70.1121 197.813 70.3498C197.819 71.1137 197.822 71.8775 197.825 72.6414C197.827 72.9027 197.828 73.1641 197.829 73.4333C197.835 74.817 197.839 76.2007 197.842 77.5844C197.845 79.0105 197.855 80.4365 197.867 81.8626C197.875 82.9617 197.877 84.0608 197.878 85.1599C197.88 85.6854 197.883 86.2109 197.888 86.7363C197.896 87.474 197.895 88.2113 197.893 88.9489C197.899 89.2712 197.899 89.2712 197.905 89.5999C197.886 91.4598 197.264 92.9511 196.057 94.368C195.868 94.5267 195.68 94.6853 195.485 94.8487C195.256 95.0413 195.027 95.2339 194.79 95.4323C193.556 96.4001 192.301 97.3387 191.041 98.2718C189.52 99.4013 188.065 100.585 186.618 101.809C184.992 103.167 183.313 104.459 181.642 105.762C179.47 107.456 177.312 109.165 175.179 110.907C173.923 111.932 172.665 112.951 171.378 113.937C170.913 114.294 170.453 114.656 169.992 115.018C169.341 115.519 168.675 115.953 167.969 116.373C164.81 118.362 164.091 120.798 163.254 124.352C163.161 124.772 163.161 124.772 163.067 125.2C162.852 126.156 162.587 127.089 162.306 128.027C162.64 128.018 162.973 128.009 163.317 127.999C172.066 128.012 180.944 133.141 187.007 139.105C194.777 147.015 198.212 157.329 198.152 168.276C197.983 177.411 194.592 185.844 188.673 192.773C188.476 193.01 188.278 193.247 188.075 193.491C183.4 198.915 177.402 202.064 170.964 204.944C168.949 205.887 167.535 206.881 166.115 208.594C165.991 208.741 165.868 208.888 165.74 209.039C160.321 215.576 156.746 223.562 154.226 231.616C153.689 233.262 153.045 234.691 151.469 235.585C149.947 235.935 149.031 235.816 147.658 234.961C146.216 233.266 145.635 231.477 144.966 229.376C142.555 222.159 139.331 214.883 134.181 209.18C133.971 208.908 133.761 208.636 133.544 208.356C131.656 206.021 129.613 205.027 126.915 203.89C122.507 202 118.378 199.609 114.889 196.291C114.26 195.686 114.26 195.686 113.526 195.134C112.201 194.042 111.212 192.656 110.158 191.309C109.964 191.067 109.77 190.826 109.57 190.577C103.025 182.086 100.81 171.268 102.167 160.752C103.46 152.612 107.373 145.54 112.795 139.453C112.969 139.258 113.143 139.062 113.322 138.86C118.88 132.985 127.342 128.9 135.353 128.027C136.037 128.021 136.72 128.02 137.404 128.027C136.563 121.976 136.563 121.976 133.322 117.123C132.469 116.552 131.601 116.021 130.707 115.517C129.697 114.905 128.848 114.131 127.974 113.342C126.504 112.056 124.998 110.832 123.456 109.634C122.127 108.6 120.818 107.542 119.515 106.476C117.82 105.092 116.102 103.748 114.361 102.421C113.228 101.55 112.124 100.643 111.018 99.7376C109.35 98.3721 107.661 97.0514 105.925 95.7722C104.25 94.5231 102.931 93.4557 102.248 91.4063C102.215 90.6358 102.199 89.8729 102.196 89.1023C102.194 88.8678 102.192 88.6333 102.19 88.3917C102.184 87.6155 102.181 86.8393 102.178 86.0631C102.177 85.7978 102.176 85.5325 102.174 85.2592C102.168 83.8553 102.164 82.4514 102.161 81.0475C102.158 79.5983 102.148 78.1493 102.136 76.7001C102.129 75.585 102.126 74.4698 102.125 73.3546C102.124 72.8205 102.12 72.2863 102.115 71.7522C102.108 71.0039 102.108 70.256 102.11 69.5077C102.106 69.288 102.103 69.0683 102.099 68.842C102.113 67.3416 102.47 66.4859 103.42 65.3321C104.251 64.9166 104.841 64.9592 105.763 65.0391C106.527 65.4591 106.527 65.4591 107.283 66.0462C107.564 66.2622 107.845 66.4782 108.135 66.7008C109.343 67.6686 110.545 68.6412 111.736 69.6298C112.67 70.4006 113.612 71.1613 114.552 71.9239C116.411 73.4332 118.267 74.9472 120.119 76.4649C120.656 76.9044 121.193 77.3439 121.73 77.7833C122.13 78.1107 122.13 78.1107 122.538 78.4447C123.067 78.8772 123.596 79.3091 124.127 79.7402C125.785 81.0908 127.426 82.4594 129.054 83.8462C129.729 84.4211 130.393 84.9751 131.126 85.4771C132.968 87.1746 133.683 89.6854 134.395 92.0186C134.494 92.334 134.592 92.6493 134.694 92.9743C135.905 96.8783 137.054 100.801 138.196 104.726C138.377 105.349 138.559 105.972 138.74 106.595C140.248 111.765 141.74 116.94 143.172 122.131C143.239 122.375 143.307 122.618 143.376 122.869C143.561 123.538 143.744 124.207 143.926 124.876C144.026 125.241 144.125 125.606 144.228 125.982C144.435 126.856 144.435 126.856 144.435 127.734C145.112 127.734 145.789 127.734 146.486 127.734C146.484 127.266 146.484 127.266 146.482 126.788C146.449 119.188 146.425 111.589 146.41 103.99C146.403 100.315 146.392 96.6398 146.375 92.9649C146.361 89.7621 146.351 86.5593 146.348 83.3565C146.346 81.6604 146.342 79.9643 146.331 78.2682C146.321 76.6719 146.318 75.0759 146.32 73.4796C146.32 72.8936 146.317 72.3075 146.311 71.7215C146.304 70.9214 146.306 70.1219 146.31 69.3217C146.303 68.9738 146.303 68.9738 146.297 68.6188C146.32 66.9398 146.752 66.2161 147.951 65.0391C149.272 64.1582 150.645 64.476 152.052 65.0391ZM109.279 76.7579C109.184 78.5345 109.115 80.3097 109.07 82.0883C109.051 82.6918 109.025 83.2951 108.992 83.8979C108.664 87.5371 108.664 87.5371 110.074 90.7277C110.996 91.5811 112.014 92.2228 113.088 92.8712C113.461 93.1596 113.831 93.4533 114.192 93.7569C114.633 94.098 114.633 94.098 115.083 94.4459C116.589 95.6163 118.075 96.8092 119.551 98.0164C121.243 99.3985 122.958 100.741 124.696 102.064C126.081 103.129 127.426 104.244 128.771 105.358C129.755 106.168 130.717 106.901 131.838 107.52C131.459 105.442 130.952 103.43 130.349 101.407C130.262 101.116 130.175 100.824 130.086 100.524C129.903 99.9129 129.72 99.3021 129.536 98.6916C129.255 97.7588 128.982 96.8242 128.708 95.8895C128.529 95.2934 128.35 94.6973 128.17 94.1014C128.089 93.8234 128.009 93.5453 127.926 93.2589C127.444 91.6933 126.988 90.7183 125.685 89.6485C125.411 89.406 125.136 89.1636 124.853 88.9138C124.551 88.6573 124.249 88.4018 123.946 88.147C123.781 88.0078 123.615 87.8686 123.445 87.7252C122.11 86.6061 120.746 85.5254 119.372 84.4546C118.027 83.4059 116.699 82.3386 115.376 81.2623C115.18 81.1027 114.984 80.9431 114.781 80.7787C113.882 80.0464 112.985 79.3111 112.095 78.5672C111.662 78.2063 111.662 78.2063 111.22 77.8382C110.97 77.6278 110.72 77.4175 110.462 77.2008C109.91 76.6997 109.91 76.6997 109.279 76.7579ZM189.493 77.4777C189.304 77.633 189.116 77.7883 188.921 77.9483C188.719 78.1174 188.516 78.2865 188.307 78.4608C187.881 78.8124 187.454 79.1637 187.027 79.5148C186.811 79.6919 186.596 79.8691 186.375 80.0516C185.46 80.7979 184.532 81.5256 183.601 82.251C181.853 83.6174 180.132 85.0149 178.42 86.4258C177.61 87.0864 176.799 87.7468 175.989 88.4068C175.728 88.6232 175.466 88.8396 175.197 89.0626C174.943 89.2394 174.943 89.2394 174.685 89.4198C173.008 90.6668 172.565 92.0573 172.011 94.0247C171.917 94.3374 171.823 94.6501 171.726 94.9722C171.411 96.0277 171.106 97.0859 170.802 98.1446C170.621 98.7663 170.438 99.3876 170.255 100.009C169.548 102.412 168.853 104.818 168.166 107.227C169.214 106.723 170.066 106.113 170.986 105.396C171.148 105.269 171.311 105.142 171.479 105.012C171.84 104.731 172.2 104.45 172.559 104.169C173.18 103.684 173.802 103.201 174.424 102.719C176.608 101.024 178.787 99.3243 180.958 97.6138C181.914 96.8616 182.872 96.1133 183.834 95.3683C184.062 95.1909 184.291 95.0136 184.527 94.831C184.966 94.4907 185.405 94.1508 185.845 93.8113C186.268 93.4833 186.687 93.1491 187.101 92.8096C187.795 92.2852 187.795 92.2852 188.666 91.8049C189.861 91.0644 190.828 90.4137 191.182 88.9849C191.422 87.0054 191.31 85.0247 191.219 83.0384C191.202 82.4294 191.188 81.8204 191.175 81.2113C191.139 79.7258 191.084 78.2423 191.017 76.7579C190.255 76.7579 190.074 76.9944 189.493 77.4777ZM115.79 145.963C110.356 152.762 107.64 161.391 108.526 170.073C109.577 178.926 113.486 187.055 120.509 192.689C123.419 194.949 126.526 196.54 129.884 198.023C139.991 202.528 145.346 212.51 149.416 222.363C149.512 222.653 149.609 222.943 149.709 223.242C149.902 223.242 150.095 223.242 150.295 223.242C150.368 223.066 150.441 222.889 150.517 222.707C153.226 216.234 156.294 210.178 160.841 204.785C161.05 204.534 161.258 204.283 161.472 204.024C164.131 200.926 167.332 199.128 171.066 197.564C174.943 195.937 178.175 193.791 181.349 191.016C181.572 190.822 181.794 190.627 182.023 190.427C188.263 184.598 191.09 176.211 191.686 167.892C191.919 158.861 188.501 150.336 182.323 143.824C178.434 139.853 173.734 137.165 168.44 135.535C168.216 135.465 167.992 135.395 167.76 135.323C163.911 134.212 159.994 134.088 156.02 134.092C155.54 134.09 155.059 134.089 154.579 134.088C153.579 134.086 152.58 134.086 151.58 134.087C150.314 134.089 149.049 134.084 147.783 134.077C146.793 134.073 145.803 134.073 144.813 134.074C144.347 134.073 143.881 134.072 143.416 134.069C132.552 134.008 123.045 137.67 115.79 145.963Z" fill="black"/>
</svg>
