<svg width="300" height="300" viewBox="0 0 300 300" fill="none" xmlns="http://www.w3.org/2000/svg">
<path d="M159.799 77.5608C160.117 77.5589 160.436 77.5571 160.764 77.5552C161.279 77.557 161.279 77.557 161.803 77.5588C162.333 77.5579 162.333 77.5579 162.873 77.5571C163.62 77.5567 164.367 77.5578 165.113 77.5602C166.257 77.5633 167.401 77.5602 168.545 77.5565C169.27 77.5569 169.995 77.5576 170.72 77.5588C171.063 77.5576 171.406 77.5564 171.759 77.5552C172.078 77.557 172.396 77.5589 172.725 77.5608C173.005 77.5612 173.285 77.5617 173.574 77.5622C174.356 77.6404 174.831 77.7985 175.49 78.2225C176.52 80.2813 175.638 83.5971 175.345 85.7859C175.3 86.1311 175.255 86.4763 175.209 86.832C175.115 87.5552 175.019 88.2783 174.923 89.0012C174.775 90.1117 174.631 91.2226 174.487 92.3337C174.395 93.0381 174.302 93.7425 174.21 94.4468C174.145 94.9462 174.145 94.9462 174.078 95.4557C174.017 95.9151 174.017 95.9151 173.954 96.3838C173.918 96.6538 173.882 96.9238 173.845 97.2021C173.732 97.8514 173.732 97.8514 173.439 98.4374C173.625 98.4593 173.811 98.4812 174.002 98.5037C187.556 100.413 201.059 108.927 209.493 119.568C219.078 132.314 222.955 147.578 220.893 163.327C218.484 180.199 209.119 195.417 195.603 205.702C188.435 211.056 180.332 214.837 171.682 217.09C176.297 217.427 180.908 217.41 185.533 217.387C186.909 217.38 188.286 217.376 189.663 217.373C193.574 217.363 197.484 217.351 201.394 217.332C203.564 217.322 205.735 217.315 207.905 217.312C209.272 217.31 210.64 217.303 212.007 217.294C212.856 217.29 213.705 217.289 214.555 217.289C215.133 217.288 215.712 217.282 216.29 217.277C218.127 217.281 219.604 217.284 221.193 218.262C221.549 219.327 221.602 220.071 221.486 221.191C220.695 222.243 220.258 222.616 218.947 222.839C218.52 222.846 218.094 222.846 217.667 222.839C217.312 222.842 217.312 222.842 216.95 222.845C216.154 222.85 215.357 222.844 214.561 222.838C213.985 222.839 213.41 222.841 212.835 222.844C211.251 222.849 209.667 222.845 208.083 222.839C206.376 222.835 204.669 222.838 202.962 222.841C199.616 222.846 196.271 222.842 192.926 222.836C189.23 222.829 185.533 222.829 181.837 222.83C174.485 222.831 167.133 222.825 159.781 222.814C153.247 222.805 146.713 222.801 140.179 222.803C139.76 222.803 139.34 222.803 138.921 222.803C138.713 222.803 138.506 222.803 138.292 222.803C137.248 222.804 136.204 222.804 135.16 222.804C134.851 222.804 134.851 222.804 134.536 222.804C129.079 222.806 123.621 222.803 118.164 222.798C117.97 222.798 117.776 222.798 117.576 222.798C116.601 222.797 115.626 222.796 114.652 222.796C111.936 222.794 109.22 222.793 106.505 222.794C103.196 222.794 99.8881 222.791 96.5799 222.784C94.8911 222.781 93.2023 222.779 91.5134 222.781C89.9687 222.782 88.424 222.78 86.8793 222.774C86.3193 222.772 85.7592 222.772 85.1991 222.774C84.4401 222.776 83.6813 222.773 82.9223 222.768C82.7029 222.77 82.4834 222.772 82.2573 222.774C80.9636 222.759 80.1319 222.577 79.1034 221.777C78.769 221.009 78.7488 220.265 78.8105 219.433C79.1438 218.721 79.431 218.227 79.9823 217.676C82.5275 217.317 85.1053 217.344 87.6695 217.354C88.0751 217.355 88.4807 217.355 88.8863 217.355C89.7524 217.356 90.6185 217.358 91.4846 217.361C92.8566 217.365 94.2286 217.366 95.6006 217.368C98.5122 217.371 101.424 217.377 104.335 217.383C107.482 217.389 110.628 217.395 113.775 217.398C115.136 217.4 116.498 217.403 117.859 217.407C118.708 217.409 119.557 217.41 120.406 217.41C120.982 217.411 121.558 217.414 122.134 217.416C124.118 217.416 126.06 217.34 128.029 217.09C127.837 217.028 127.644 216.967 127.446 216.903C113.802 212.493 101.041 204.971 92.287 193.359C92.1713 193.206 92.0556 193.052 91.9364 192.894C90.0134 190.323 88.3138 187.649 86.7206 184.863C86.6218 184.694 86.5229 184.525 86.4211 184.35C78.3083 170.392 76.472 152.604 80.5683 137.109C82.7921 128.876 86.9297 121.161 92.287 114.551C92.581 114.167 92.581 114.167 92.881 113.776C96.0412 109.73 99.8254 106.101 104.006 103.125C104.199 102.987 104.393 102.848 104.592 102.706C109.871 98.9716 115.489 95.9199 121.584 93.7499C121.807 93.6692 122.031 93.5885 122.261 93.5054C128.026 91.4585 134.156 90.1932 140.281 90.185C140.546 90.1841 140.81 90.1831 141.082 90.1821C141.638 90.1806 142.194 90.1799 142.75 90.18C143.585 90.1793 144.42 90.174 145.255 90.1684C148.45 90.159 151.531 90.3218 154.689 90.8202C154.704 90.6121 154.719 90.404 154.734 90.1895C154.909 87.8994 155.188 85.6384 155.532 83.3678C155.579 83.0326 155.626 82.6975 155.675 82.3521C155.723 82.029 155.772 81.706 155.822 81.3731C155.865 81.084 155.908 80.7949 155.952 80.4971C156.225 79.4033 156.573 78.5157 157.55 77.8928C158.339 77.5841 158.952 77.5622 159.799 77.5608ZM161.135 82.91C160.713 84.387 160.384 85.783 160.148 87.2885C160.076 87.7292 160.003 88.1698 159.93 88.6103C159.817 89.296 159.706 89.9817 159.598 90.6681C159.493 91.3368 159.381 92.0043 159.269 92.6718C159.239 92.8757 159.208 93.0796 159.177 93.2897C158.949 94.6115 158.585 95.4476 157.619 96.3866C155.788 96.6284 153.948 96.2278 152.132 95.9574C136.064 93.7898 119.631 97.6758 106.679 107.538C105.275 108.633 103.937 109.795 102.629 111.003C101.781 111.781 100.904 112.521 100.021 113.259C99.5425 113.644 99.5425 113.644 99.6112 114.258C99.4179 114.258 99.2245 114.258 99.0253 114.258C98.2171 115.127 97.4985 116.07 96.7651 117.003C96.3989 117.467 96.0276 117.928 95.6562 118.388C93.9609 120.51 92.4964 122.715 91.1622 125.081C90.9307 125.491 90.6966 125.9 90.4604 126.308C87.3834 131.644 85.4166 137.486 84.3769 143.555C84.326 143.844 84.326 143.844 84.2741 144.14C82.8205 152.914 83.6345 162.313 86.1347 170.801C86.1945 171.005 86.2544 171.209 86.3161 171.419C89.3112 181.315 95.3011 190.415 102.834 197.461C103.027 197.461 103.221 197.461 103.42 197.461C103.42 197.654 103.42 197.848 103.42 198.047C104.025 198.572 104.633 199.063 105.269 199.548C105.457 199.693 105.644 199.837 105.837 199.986C106.397 200.416 106.959 200.843 107.521 201.269C107.935 201.587 107.935 201.587 108.357 201.91C115.96 207.607 125.932 212.145 135.353 213.574C135.547 213.477 135.74 213.381 135.939 213.281C135.744 213.075 135.549 212.869 135.348 212.656C133.415 210.594 131.625 208.457 129.911 206.21C129.629 205.841 129.346 205.473 129.062 205.105C126.794 202.169 124.711 199.149 122.756 195.996C122.633 195.799 122.51 195.603 122.383 195.4C115.584 184.475 112.055 172.455 112.117 159.595C112.118 159.242 112.118 159.242 112.119 158.881C112.161 149.146 114.416 140.15 118.947 131.543C119.098 131.25 119.249 130.957 119.405 130.656C123.179 123.507 128.734 116.918 135.06 111.914C135.357 111.675 135.653 111.435 135.959 111.188C139.013 108.75 142.296 106.806 145.772 105.029C145.964 104.93 146.156 104.831 146.353 104.729C147.469 104.173 148.47 103.848 149.709 103.711C150.941 105.222 151.21 105.844 151.174 107.812C150.999 107.899 150.824 107.985 150.644 108.075C136.265 115.241 124.845 126.408 119.539 141.853C118.042 146.451 117.022 151.308 116.896 156.152C116.889 156.39 116.881 156.627 116.874 156.872C116.612 166.081 117.986 175.176 121.584 183.691C121.677 183.912 121.77 184.133 121.866 184.36C125.613 193.07 131.347 201.008 137.697 208.008C137.94 208.277 138.183 208.547 138.433 208.825C140.418 211.018 142.467 213.139 144.612 215.177C145.314 215.918 145.314 215.918 145.695 216.736C145.86 216.949 146.024 217.163 146.193 217.383C147.055 217.494 147.739 217.523 148.592 217.474C148.812 217.468 149.031 217.461 149.257 217.454C149.799 217.437 150.34 217.411 150.881 217.383C150.971 217.008 151.062 216.633 151.155 216.247C151.31 215.609 151.31 215.609 151.76 215.039C153.402 214.404 155.257 214.342 156.993 214.179C170.272 212.923 183.142 209.145 193.654 200.683C193.953 200.444 194.252 200.205 194.561 199.958C199.966 195.55 204.296 190.452 208.01 184.57C208.307 184.104 208.307 184.104 208.61 183.628C212.621 176.998 214.762 169.614 215.92 162.012C215.966 161.707 215.966 161.707 216.014 161.396C216.305 159.19 216.284 156.964 216.286 154.742C216.286 154.528 216.286 154.313 216.287 154.092C216.282 150.611 216.087 147.254 215.334 143.848C215.285 143.621 215.236 143.394 215.186 143.161C212.295 130.102 204.226 118.741 193.012 111.499C187.243 107.889 181.063 105.482 174.458 103.905C174.192 103.842 173.927 103.778 173.653 103.712C173.147 103.593 172.639 103.477 172.131 103.366C170.739 103.044 169.797 102.695 168.752 101.66C167.867 99.8911 168.585 97.1247 168.843 95.2296C168.882 94.9319 168.921 94.6341 168.962 94.3274C169.085 93.3839 169.211 92.4408 169.338 91.4977C169.464 90.5514 169.59 89.6051 169.714 88.6586C169.791 88.0718 169.869 87.4852 169.949 86.8987C170.001 86.4982 170.001 86.4982 170.055 86.0896C170.087 85.8568 170.118 85.624 170.15 85.3842C170.226 84.5627 170.217 83.7351 170.217 82.91C167.22 82.91 164.223 82.91 161.135 82.91Z" fill="black"/>
<path d="M144.433 99.0236C144.614 99.6061 144.614 99.6061 144.689 100.287C144.719 100.509 144.748 100.732 144.779 100.961C144.707 101.907 144.436 102.384 143.847 103.125C143.124 103.463 143.124 103.463 142.236 103.693C141.897 103.787 141.557 103.881 141.208 103.978C141.021 104.028 140.835 104.078 140.642 104.13C137.041 105.126 133.505 106.322 130.077 107.813C129.787 107.938 129.787 107.938 129.49 108.066C116.324 113.818 104.422 124.293 98.7751 137.697C97.199 141.741 96.8579 145.823 96.8804 150.128C96.881 150.346 96.8817 150.564 96.8823 150.788C96.9361 162.378 101.115 171.46 107.165 181.213C107.288 181.411 107.411 181.61 107.537 181.815C107.858 182.33 108.185 182.842 108.512 183.353C109.036 184.379 109.227 185.179 109.277 186.328C108.691 187.061 108.691 187.061 107.812 187.5C106.68 187.456 105.993 187.398 105.108 186.669C95.5728 174.299 89.7805 160.13 91.6858 144.349C92.9657 135.104 97.8094 126.962 104.003 120.117C104.238 119.85 104.474 119.583 104.716 119.308C106.951 116.787 109.274 114.597 111.913 112.5C112.19 112.274 112.466 112.048 112.751 111.815C120.244 105.826 129.174 101.522 138.409 99.0053C138.625 98.9455 138.841 98.8857 139.064 98.8241C140.878 98.3637 142.815 97.9447 144.433 99.0236Z" fill="black"/>
<path d="M163.541 105.056C163.761 105.089 163.982 105.123 164.209 105.158C164.43 105.184 164.65 105.211 164.877 105.239C165.746 105.546 166.117 105.926 166.699 106.641C166.894 107.511 166.894 107.511 166.965 108.523C166.994 108.893 167.024 109.264 167.055 109.645C167.075 109.936 167.075 109.936 167.096 110.233C167.168 111.242 167.264 112.248 167.358 113.254C167.39 113.617 167.422 113.98 167.455 114.354C167.879 118.052 169.328 121.347 170.698 124.779C176.711 139.899 180.083 156.629 176.953 172.852C176.901 173.121 176.849 173.39 176.796 173.667C175.092 182.218 171.69 198.439 164.355 203.906C162.691 203.851 161.453 203.449 159.961 202.734C160.099 201.242 160.385 200.309 161.224 199.072C166.21 191.376 169.505 182.749 171.332 173.785C171.389 173.506 171.446 173.228 171.505 172.94C172.362 168.475 172.671 164.024 172.65 159.485C172.649 159.123 172.649 159.123 172.649 158.753C172.634 154.707 172.395 150.767 171.68 146.777C171.631 146.496 171.582 146.215 171.532 145.926C170.068 137.686 167.238 129.699 164.093 121.959C162.446 117.884 161.633 113.673 161.572 109.277C161.567 109.034 161.561 108.791 161.556 108.54C161.568 107.39 161.649 106.762 162.231 105.745C162.891 105.176 162.891 105.176 163.541 105.056Z" fill="black"/>
<path d="M179.006 111.914C179.681 112.347 180.275 112.767 180.892 113.269C181.058 113.401 181.225 113.533 181.397 113.669C182.639 114.666 183.78 115.728 184.865 116.895C185.107 117.136 185.348 117.378 185.597 117.627C185.839 117.869 186.081 118.11 186.33 118.359C186.48 118.503 186.63 118.646 186.785 118.793C188.088 120.053 189.18 121.388 190.23 122.864C190.476 123.208 190.476 123.208 190.726 123.558C192.338 125.846 193.793 128.201 195.119 130.664C195.221 130.853 195.323 131.043 195.428 131.238C198.302 136.682 200.177 142.784 201.271 148.828C201.333 149.143 201.395 149.458 201.459 149.783C203.56 161.996 201.143 174.649 196.694 186.053C196.56 186.397 196.427 186.74 196.29 187.093C194.644 191.197 194.644 191.197 193.068 192.773C191.896 192.906 191.219 192.883 190.175 192.316C189.334 191.351 189.289 190.833 189.26 189.551C189.593 188.531 190.076 187.596 190.56 186.639C193.202 181.11 194.927 175.365 195.998 169.336C196.036 169.125 196.075 168.913 196.114 168.695C197.263 162.014 197.13 154.276 195.705 147.656C195.632 147.313 195.632 147.313 195.557 146.963C192.949 135.179 186.488 123.751 176.442 116.803C175.704 116.253 175.502 116.041 175.105 115.173C175.237 113.861 175.84 112.93 176.662 111.914C177.543 111.474 178.061 111.669 179.006 111.914Z" fill="black"/>
<path d="M154.083 112.188C155.332 112.622 156.144 113.363 156.738 114.551C156.976 115.853 156.644 116.567 155.943 117.63C155.588 118.138 155.23 118.643 154.87 119.146C148.796 127.974 145.547 137.897 144.433 148.535C144.405 148.789 144.377 149.044 144.349 149.306C144.03 152.714 144.082 156.139 144.085 159.558C144.085 159.891 144.085 160.224 144.085 160.567C144.09 166.664 144.335 172.638 145.197 178.68C145.657 182.33 145.657 182.33 144.763 183.581C143.707 184.264 143.066 184.404 141.796 184.277C140.606 183.451 140.339 182.408 140.038 181.054C139.855 179.972 139.723 178.886 139.599 177.795C139.562 177.471 139.525 177.146 139.486 176.811C138.787 170.292 138.31 163.586 138.574 157.031C138.587 156.686 138.601 156.34 138.615 155.984C139.238 141.048 142.552 124.324 152.674 112.66C153.222 112.207 153.222 112.207 154.083 112.188Z" fill="black"/>
</svg>
