<svg width="300" height="300" viewBox="0 0 300 300" fill="none" xmlns="http://www.w3.org/2000/svg">
<path d="M185.045 79.8285C187.299 81.9431 189.263 84.259 191.162 86.6969C192.335 88.1465 193.737 89.2554 195.193 90.4118C196.202 91.2203 197.196 92.0473 198.193 92.8709C199.872 94.2576 199.872 94.2576 201.565 95.6267C205.353 98.6574 208.799 101.961 211.816 105.762C211.988 105.978 212.161 106.195 212.338 106.418C215.106 109.936 217.548 113.571 219.726 117.48C219.875 117.746 220.023 118.011 220.176 118.285C230.152 136.312 232.48 156.963 226.957 176.774C223.89 187.27 218.399 196.871 211.23 205.078C211.036 205.301 210.843 205.524 210.643 205.754C210.313 206.133 209.982 206.51 209.65 206.886C209.323 207.258 209.001 207.634 208.682 208.012C207.482 209.425 206.198 210.622 204.785 211.816C204.496 212.072 204.207 212.328 203.909 212.592C199.927 216.109 195.641 219.166 191.015 221.777C190.685 221.968 190.354 222.159 190.013 222.356C180.655 227.641 170.002 230.542 159.375 231.738C159.148 231.766 158.921 231.793 158.688 231.822C151.564 232.593 143.855 232.432 136.816 231.152C136.51 231.097 136.203 231.042 135.887 230.985C121.518 228.302 107.896 222.015 97.0685 212.141C96.4651 211.595 95.8521 211.063 95.2329 210.535C92.9074 208.506 90.745 206.275 88.7693 203.906C88.6403 203.755 88.5114 203.604 88.3786 203.448C79.1858 192.657 72.7148 179.534 70.3122 165.527C70.2647 165.254 70.2171 164.98 70.1682 164.699C68.8379 156.659 68.9235 148.061 70.3122 140.039C70.3578 139.769 70.4034 139.498 70.4504 139.22C71.6539 132.365 73.9558 125.47 77.0505 119.238C77.2064 118.919 77.2064 118.919 77.3654 118.594C80.1455 112.952 83.4244 107.491 87.5093 102.697C88.0792 102.022 88.6227 101.326 89.1721 100.635C93.1264 95.8309 97.5765 91.6296 102.539 87.8905C102.731 87.7437 102.923 87.5969 103.121 87.4456C123.007 72.2938 161.924 60.3988 185.045 79.8285ZM106.218 93.9603C105.771 94.3282 105.318 94.6897 104.865 95.051C103.457 96.1802 102.122 97.3274 100.881 98.6388C100.488 99.0233 100.488 99.0233 99.9021 99.3163C99.9021 99.5096 99.9021 99.703 99.9021 99.9022C99.7087 99.9022 99.5153 99.9022 99.3161 99.9022C98.8958 100.306 98.8958 100.306 98.4555 100.854C97.6974 101.749 96.9218 102.619 96.1186 103.474C82.505 118.024 75.9293 137.289 76.4646 157.031C77.0217 169.933 81.9359 182.838 89.3552 193.359C89.4747 193.529 89.5942 193.699 89.7174 193.873C90.4473 194.897 91.2096 195.891 91.9919 196.875C92.2015 197.141 92.4111 197.407 92.6271 197.681C101.146 208.295 112.092 215.948 124.859 220.605C125.167 220.718 125.475 220.832 125.793 220.948C127.441 221.533 128.93 221.885 130.664 222.07C131.289 222.352 131.289 222.352 131.836 222.656C132.405 222.829 132.98 222.987 133.557 223.132C133.852 223.208 134.148 223.285 134.452 223.363C135.36 223.537 136.187 223.565 137.109 223.535C137.109 223.632 137.109 223.728 137.109 223.828C139.188 224.222 141.144 224.485 143.261 224.414C143.261 224.511 143.261 224.607 143.261 224.707C161.643 226.717 181.533 221.463 196.042 209.907C196.22 209.763 196.398 209.62 196.582 209.473C196.754 209.334 196.927 209.195 197.105 209.052C201.415 205.551 205.306 201.645 208.593 197.168C208.842 196.837 209.09 196.506 209.338 196.176C218.877 183.314 223.388 167.376 222.528 151.446C222.516 151.226 222.505 151.006 222.493 150.779C222.442 149.619 222.442 149.619 222.07 148.535C222.076 148.209 222.082 147.882 222.088 147.546C222.113 145.9 221.836 144.281 221.484 142.676C221.387 142.579 221.291 142.482 221.191 142.383C221.136 141.816 221.136 141.816 221.079 141.238C220.918 139.656 220.51 138.19 220.056 136.67C219.943 136.281 219.943 136.281 219.828 135.884C219.051 133.225 218.171 130.65 217.09 128.1C216.989 127.859 216.889 127.618 216.785 127.369C216.276 126.162 215.742 125.036 215.039 123.926C214.842 123.536 214.647 123.145 214.453 122.754C212.723 119.449 210.845 116.351 208.593 113.379C208.346 113.047 208.098 112.714 207.851 112.382C206.523 110.615 205.133 108.927 203.634 107.302C203.09 106.709 202.573 106.103 202.057 105.487C199.606 102.696 196.712 100.467 193.763 98.2382C189.767 95.2155 186.195 92.1292 183.105 88.1651C177.839 81.4878 171.13 78.8683 162.885 77.7625C161.602 77.6115 160.317 77.5368 159.027 77.4718C158.804 77.4591 158.581 77.4465 158.351 77.4334C139.766 76.465 120.652 82.0464 106.218 93.9603Z" fill="black"/>
<path d="M150.147 83.4962C152.553 85.4213 153.834 86.9478 154.229 90.0652C154.35 91.4164 154.455 92.7681 154.543 94.1219C154.812 98.1294 156.007 101.38 157.965 104.865C158.104 105.114 158.243 105.364 158.387 105.622C160.336 109.06 162.697 112.111 165.234 115.137C166.12 116.206 166.999 117.28 167.871 118.359C168.086 118.624 168.302 118.889 168.523 119.162C179.853 133.466 187.368 151.416 185.465 169.931C184.044 182.102 178.424 194.115 168.915 202.075C159.217 209.675 148.253 213.549 135.853 212.267C130.776 211.607 125.878 209.95 121.289 207.715C121.09 207.619 120.89 207.523 120.684 207.423C115.448 204.868 111.071 201.542 106.934 197.461C106.664 197.199 106.394 196.937 106.115 196.667C105.043 195.613 104.035 194.56 103.125 193.359C102.932 193.166 102.738 192.973 102.539 192.774C102.277 192.393 102.021 192.008 101.77 191.62C101.114 190.619 100.425 189.661 99.701 188.709C93.9292 180.789 90.4842 171.373 89.0626 161.719C89.0328 161.528 89.003 161.336 88.9723 161.139C88.6552 158.786 88.6982 156.399 88.6964 154.028C88.6962 153.793 88.696 153.558 88.6958 153.316C88.7007 149.607 88.8706 146.02 89.6485 142.383C89.6988 142.143 89.7491 141.904 89.8009 141.657C93.2181 125.854 102.565 110.964 114.844 100.488C115.121 100.244 115.399 99.9989 115.685 99.7468C119.41 96.4905 123.449 93.5866 127.734 91.1134C127.931 90.9998 128.127 90.8863 128.329 90.7693C144.728 81.3286 144.728 81.3286 150.147 83.4962ZM143.024 90.5274C142.779 90.6201 142.535 90.7127 142.283 90.8081C138.047 92.4418 134.183 94.4729 130.353 96.9068C129.876 97.2081 129.395 97.5016 128.912 97.7933C125.325 99.9805 121.995 102.634 118.947 105.519C118.359 106.055 118.359 106.055 117.774 106.348C117.774 106.541 117.774 106.734 117.774 106.934C117.613 106.999 117.452 107.064 117.286 107.132C115.108 108.366 113.159 110.839 111.621 112.793C111.621 112.986 111.621 113.18 111.621 113.379C111.428 113.379 111.234 113.379 111.035 113.379C110.542 113.922 110.092 114.466 109.644 115.045C109.503 115.226 109.363 115.407 109.218 115.594C102.862 123.922 98.1429 133.012 95.8009 143.262C95.7492 143.475 95.6975 143.687 95.6442 143.907C94.1016 150.458 94.168 158.711 95.8009 165.234C95.8701 165.516 95.9394 165.798 96.0107 166.089C97.9789 173.93 101.042 181.384 106.055 187.793C106.275 188.074 106.494 188.356 106.721 188.646C108.923 191.392 111.219 194.073 113.965 196.289C114.235 196.511 114.504 196.733 114.782 196.962C120.328 201.439 126.646 204.433 133.594 205.957C133.904 206.029 134.214 206.101 134.533 206.176C143.913 207.996 153.778 205.57 161.627 200.299C171.597 193.102 177.257 183.174 179.498 171.189C182.013 154.651 175.74 138.366 166.132 125.171C164.725 123.27 163.237 121.465 161.669 119.696C154.369 111.418 149.673 102.889 147.95 91.9377C147.777 90.7577 147.777 90.7577 147.363 89.6485C145.738 89.5241 144.514 89.9555 143.024 90.5274Z" fill="black"/>
<path d="M174.904 100.488C175.987 101.151 176.898 101.978 177.834 102.832C178.083 103.053 178.332 103.274 178.589 103.502C179.084 103.944 179.576 104.389 180.066 104.836C180.7 105.411 181.342 105.972 181.99 106.531C182.922 107.341 183.791 108.196 184.656 109.078C185.146 109.558 185.654 109.994 186.183 110.431C187.12 111.22 187.904 112.084 188.695 113.017C189.316 113.737 189.964 114.425 190.614 115.118C200.962 126.516 207.914 141.815 208.302 157.324C208.308 157.544 208.314 157.765 208.321 157.992C208.766 176.776 201.654 194.135 188.769 207.686C184.129 212.476 184.129 212.476 181.935 213.574C180.423 213.519 179.605 213.016 178.526 212.015C178.127 211.523 178.127 211.523 177.925 210.626C178.309 208.985 179.533 208.057 180.818 207.055C183.492 204.903 185.661 202.484 187.795 199.804C187.987 199.573 188.18 199.341 188.378 199.103C193.234 193.223 196.623 186.524 199.074 179.333C199.149 179.116 199.224 178.898 199.301 178.674C199.664 177.567 199.823 176.645 199.806 175.488C200 175.198 200.193 174.908 200.392 174.609C200.392 174.319 200.392 174.029 200.392 173.73C200.392 172.851 200.392 172.851 200.978 171.972C201.102 171.249 201.102 171.249 201.143 170.453C201.215 169.47 201.297 168.499 201.436 167.523C201.571 166.35 201.585 165.241 201.564 164.062C201.661 164.062 201.758 164.062 201.857 164.062C201.857 161.259 201.857 158.455 201.857 155.566C201.76 155.566 201.664 155.566 201.564 155.566C201.568 155.344 201.571 155.121 201.574 154.892C201.577 154.601 201.58 154.31 201.582 154.01C201.586 153.721 201.589 153.432 201.593 153.134C201.6 152.314 201.6 152.314 201.271 151.465C201.183 150.711 201.123 149.958 201.061 149.202C201.015 148.527 201.015 148.527 200.685 147.949C200.649 147.611 200.613 147.272 200.575 146.924C200.435 145.68 200.103 144.538 199.724 143.348C199.469 142.535 199.268 141.719 199.084 140.887C198.953 140.307 198.794 139.733 198.634 139.16C198.441 139.063 198.248 138.967 198.049 138.867C197.756 137.988 197.756 137.988 197.619 137.413C197.359 136.421 196.904 135.51 196.474 134.582C196.385 134.383 196.296 134.184 196.204 133.978C195.737 132.969 195.477 132.465 194.533 131.836C194.493 131.627 194.454 131.419 194.413 131.204C194.17 130.031 193.581 129.174 192.94 128.174C192.809 127.968 192.679 127.761 192.544 127.549C191.267 125.565 189.858 123.711 188.381 121.875C188.177 121.615 187.974 121.355 187.765 121.087C186.425 119.401 184.995 117.811 183.528 116.235C183.349 116.041 183.169 115.847 182.984 115.648C181.889 114.484 180.748 113.408 179.535 112.368C178.892 111.817 178.272 111.243 177.651 110.669C176.296 109.44 174.876 108.316 173.413 107.221C172.27 106.348 171.354 105.467 170.509 104.297C170.488 103.051 170.675 102.436 171.37 101.404C172.399 100.343 173.478 100.164 174.904 100.488Z" fill="black"/>
</svg>
