<svg width="300" height="300" viewBox="0 0 300 300" fill="none" xmlns="http://www.w3.org/2000/svg">
<path d="M164.062 66.797C164.552 67.0452 164.552 67.0452 165.052 67.2983C167.645 68.6683 169.813 70.3891 171.972 72.3635C172.17 72.5443 172.368 72.7252 172.573 72.9116C174.081 74.3573 175.355 76.01 176.659 77.6369C177.532 78.716 178.412 79.7896 179.296 80.8595C179.495 81.1016 179.495 81.1016 179.698 81.3486C184.176 86.7805 189.091 90.2639 195.219 93.6996C197.194 94.8242 198.952 96.0858 200.683 97.5588C200.875 97.7223 201.068 97.8859 201.266 98.0544C202.44 99.0835 203.219 100.319 203.997 101.66C204.096 101.831 204.195 102.001 204.297 102.177C206.012 105.267 206.205 109.01 205.407 112.425C205.062 113.372 204.668 114.245 204.198 115.137C203.985 115.545 203.985 115.545 203.768 115.962C200.556 121.497 194.742 125.161 188.671 126.856C182.815 128.404 176.808 128.663 170.782 128.668C170.581 128.669 170.381 128.669 170.174 128.669C167.343 128.669 164.539 128.54 161.718 128.32C161.62 135.881 161.657 143.339 162.516 150.858C162.596 151.749 162.611 152.621 162.597 153.516C162.933 153.223 163.268 152.93 163.604 152.637C163.929 152.355 163.929 152.355 164.26 152.067C164.692 151.685 165.119 151.296 165.539 150.9C173.964 143.028 186.599 140.362 197.808 140.571C207.546 141.04 216.522 143.478 223.425 150.788C230.502 158.975 233.263 170.116 233.276 180.725C233.276 180.925 233.276 181.126 233.277 181.332C233.273 189.652 233.273 189.652 231.445 193.067C230.218 194.175 228.859 194.092 227.288 194.074C227.019 194.071 226.75 194.069 226.473 194.066C218.798 193.886 210.893 191.886 203.613 189.551C201.266 200.41 201.08 209.906 204.087 220.67C205.007 223.997 204.996 228.086 203.32 231.153C202.027 233.428 200.328 234.416 197.936 235.346C192.686 236.341 186.753 234.253 182.409 231.317C182.213 231.173 182.018 231.028 181.816 230.879C181.36 230.512 181.36 230.512 180.761 230.567C180.442 230.914 180.139 231.277 179.845 231.647C177.588 234.282 174.758 235.14 171.386 235.547C168.913 235.71 166.857 235.653 164.483 234.906C162.51 234.313 160.884 234.418 158.862 234.741C150.873 236.018 143.135 235.753 136.269 231.179C134.615 229.924 133.238 228.434 131.873 226.88C131.388 226.329 130.898 225.803 130.37 225.293C130.352 225.523 130.334 225.752 130.315 225.989C129.696 228.75 128.208 230.895 125.976 232.617C122.519 234.762 119.194 235.527 115.173 234.65C109.417 233.027 105.184 229.311 102.209 224.195C99.2893 218.965 97.5026 213.256 97.5189 207.236C97.5186 207.001 97.5183 206.766 97.5181 206.524C97.5179 206.03 97.5184 205.536 97.5196 205.042C97.5212 204.298 97.5196 203.554 97.5178 202.811C97.5168 200.449 97.5736 198.121 97.7817 195.766C97.9044 194.093 97.9164 192.418 97.9212 190.741C97.924 190.137 97.9332 189.534 97.9423 188.931C97.9823 183.946 96.8304 179.524 93.3304 175.84C90.7488 173.631 87.7903 172.884 84.4596 173.077C80.4144 173.485 76.3539 174.564 72.4448 175.653C70.1857 176.26 70.1857 176.26 69.1398 175.781C66.6466 172.754 66.477 168.393 66.7961 164.649C67.5165 157.784 70.7038 152.102 75.2922 147.07C75.5528 146.779 75.5528 146.779 75.8186 146.481C83.1891 138.655 95.4061 134.509 105.92 134.144C118.327 133.884 129.001 136.276 138.28 145.02C138.474 145.213 138.667 145.406 138.866 145.606C139.191 140.975 139.252 136.449 138.863 131.818C138.821 131.312 138.821 131.312 138.779 130.795C138.711 129.97 138.643 129.145 138.573 128.32C138.254 128.323 138.254 128.323 137.927 128.326C135.886 128.344 133.844 128.358 131.802 128.366C130.754 128.371 129.705 128.377 128.656 128.387C118.08 128.486 107.466 127.704 99.3706 120.044C97.1614 117.741 95.3763 115.049 94.6281 111.914C94.5617 111.642 94.4952 111.37 94.4267 111.09C94.0029 106.768 94.7064 103.181 97.2648 99.6095C99.9558 96.3371 103.563 94.4278 107.226 92.4501C112.183 89.7645 116.54 86.4303 120.116 82.0314C120.421 81.6621 120.421 81.6621 120.732 81.2853C121.626 80.1984 122.514 79.1074 123.394 78.01C129.415 70.5486 135.964 65.3776 145.79 64.2191C151.963 63.696 158.454 63.9201 164.062 66.797ZM133.3 74.4142C133.084 74.5925 132.867 74.7707 132.644 74.9544C129.842 77.3498 127.533 80.2333 125.225 83.0934C123.829 84.8147 122.338 86.4381 120.815 88.0467C120.465 88.4181 120.119 88.7938 119.774 89.1702C116.344 92.7928 112.283 95.3295 107.863 97.5784C104.435 99.3365 100.968 101.576 99.4621 105.286C98.653 107.857 98.7975 110.062 99.9016 112.5C104.979 112.879 109.813 111.305 114.566 109.724C124.975 106.266 135.521 104.459 146.484 104.48C146.94 104.48 146.94 104.48 147.405 104.48C153.124 104.492 158.702 104.916 164.355 105.762C164.703 105.812 165.05 105.862 165.409 105.914C172.607 106.98 179.648 108.922 186.671 110.792C187.028 110.886 187.386 110.981 187.754 111.078C188.399 111.25 189.043 111.424 189.687 111.601C192.434 112.336 195.119 112.554 197.955 112.518C198.164 112.517 198.373 112.516 198.588 112.514C199.091 112.511 199.594 112.506 200.097 112.5C201.313 110.371 201.291 108.213 200.814 105.836C199.653 102.395 196.7 100.148 193.652 98.4377C189.315 96.004 185.364 93.623 181.691 90.2311C181.18 89.7637 180.663 89.3265 180.12 88.8979C179.045 87.9659 178.166 86.9226 177.245 85.84C176.951 85.5013 176.656 85.163 176.361 84.8249C174.904 83.1558 173.456 81.4845 172.063 79.7609C167.534 74.2101 162.309 69.8992 154.98 69.1408C147.223 68.6337 139.416 69.0937 133.3 74.4142ZM139.159 109.863C139.212 110.023 139.265 110.183 139.32 110.347C140.621 114.322 141.622 118.292 142.421 122.392C142.489 122.74 142.557 123.089 142.627 123.448C142.686 123.759 142.745 124.071 142.806 124.392C142.898 125.08 142.898 125.08 143.261 125.391C143.95 125.412 144.64 125.415 145.33 125.409C145.708 125.406 146.086 125.404 146.476 125.401C146.915 125.396 146.915 125.396 147.363 125.391C147.412 123.237 147.459 121.084 147.504 118.93C147.519 118.197 147.536 117.464 147.552 116.732C147.576 115.679 147.598 114.627 147.62 113.575C147.628 113.246 147.636 112.917 147.644 112.579C147.65 112.274 147.656 111.969 147.662 111.655C147.668 111.386 147.674 111.117 147.68 110.84C147.686 110.11 147.686 110.11 147.363 109.278C146.105 109.261 144.848 109.25 143.591 109.241C143.232 109.236 142.874 109.231 142.504 109.226C142.163 109.224 141.821 109.222 141.469 109.22C141.153 109.217 140.837 109.214 140.511 109.211C139.698 109.199 139.698 109.199 139.159 109.863ZM152.343 109.278C151.852 109.768 151.998 110.373 151.985 111.047C151.978 111.362 151.972 111.676 151.965 112.001C151.959 112.343 151.953 112.686 151.947 113.039C151.94 113.389 151.933 113.738 151.926 114.098C151.912 114.838 151.899 115.579 151.887 116.32C151.867 117.456 151.844 118.593 151.821 119.73C151.808 120.448 151.795 121.165 151.782 121.883C151.775 122.225 151.768 122.567 151.761 122.92C151.756 123.236 151.751 123.551 151.746 123.877C151.741 124.156 151.736 124.434 151.731 124.722C151.711 125.4 151.711 125.4 152.05 125.977C153.694 126.073 155.337 126.17 157.03 126.27C157.116 125.731 157.201 125.193 157.289 124.638C157.915 120.798 158.598 117.031 159.702 113.293C159.774 113.049 159.846 112.805 159.92 112.554C159.984 112.344 160.049 112.134 160.115 111.918C160.298 111.239 160.298 111.239 160.253 110.156C157.634 109.654 155.011 109.323 152.343 109.278ZM128.027 110.871C127.655 110.948 127.284 111.025 126.902 111.105C121.146 112.332 115.534 114.118 109.944 115.94C107.889 116.601 105.835 117.1 103.71 117.481C104.454 118.072 105.125 118.509 106.017 118.836C106.297 118.941 106.297 118.941 106.583 119.048C111.298 120.441 117.072 119.713 121.32 117.409C121.799 117.141 122.276 116.872 122.753 116.602C123.071 116.422 123.388 116.242 123.715 116.057C125.153 115.24 126.59 114.422 128.02 113.591C129.944 112.476 131.88 111.411 133.886 110.449C133.886 110.353 133.886 110.256 133.886 110.156C131.873 110.042 129.991 110.46 128.027 110.871ZM165.527 111.035C166.655 112.008 167.849 112.693 169.17 113.361C171.559 114.593 173.869 115.943 176.172 117.329C181.256 120.378 185.475 121.329 191.318 119.976C193.108 119.504 195.041 118.906 196.288 117.481C195.984 117.448 195.68 117.415 195.367 117.381C191.573 116.915 187.929 116 184.241 115.028C183.795 114.91 183.349 114.792 182.902 114.675C182.679 114.616 182.456 114.557 182.226 114.496C179.739 113.845 177.24 113.251 174.737 112.665C174.529 112.616 174.321 112.567 174.106 112.517C169.865 111.373 169.865 111.373 165.527 111.035ZM132.037 116.51C131.71 116.68 131.383 116.85 131.047 117.025C125.485 119.951 125.485 119.951 120.409 123.633C124.068 123.491 127.712 123.211 131.359 122.901C131.588 122.881 131.817 122.862 132.053 122.842C132.715 122.786 133.377 122.729 134.039 122.672C134.238 122.655 134.437 122.638 134.643 122.621C135.677 122.529 136.681 122.395 137.695 122.168C137.513 121.277 137.329 120.386 137.145 119.495C137.094 119.244 137.043 118.993 136.991 118.735C136.714 117.404 136.403 116.125 135.937 114.844C134.59 114.844 133.207 115.901 132.037 116.51ZM163.476 116.016C163.279 117.023 163.084 118.03 162.89 119.037C162.834 119.323 162.778 119.609 162.72 119.904C162.668 120.179 162.615 120.453 162.56 120.736C162.511 120.99 162.462 121.243 162.411 121.504C162.281 122.201 162.281 122.201 162.304 123.047C167.296 123.534 172.23 123.713 177.245 123.633C176.42 122.784 175.699 122.2 174.645 121.655C173.372 120.984 172.119 120.288 170.873 119.568C169.375 118.708 167.869 117.865 166.351 117.041C166.164 116.939 165.978 116.836 165.786 116.73C164.953 116.282 164.437 116.016 163.476 116.016ZM143.847 130.371C143.851 130.833 143.851 130.833 143.856 131.304C143.91 137.268 143.943 143.187 143.261 149.121C143.207 149.611 143.207 149.611 143.151 150.111C141.621 163.577 138.135 176.647 134.623 189.709C133.874 192.499 133.194 195.296 132.586 198.12C132.517 198.439 132.448 198.758 132.377 199.087C130.72 207.027 130.119 215.201 134.472 222.363C137.303 226.493 141.069 229.076 145.979 230.131C149.447 230.753 152.952 230.724 156.445 230.274C156.445 229.338 156.271 228.927 155.877 228.095C154.162 224.461 154.94 220.742 156.216 217.103C156.696 215.843 157.282 214.638 157.898 213.439C158.303 212.68 158.303 212.68 157.909 211.817C157.409 211.551 157.409 211.551 156.789 211.387C156.445 211.281 156.445 211.281 156.095 211.172C155.733 211.065 155.733 211.065 155.364 210.956C153.336 210.353 151.715 209.724 150.182 208.191C149.151 205.891 149.467 203.409 150.311 201.087C153.083 194.688 157.552 189.555 164.062 186.914C164.839 186.608 165.619 186.317 166.405 186.035C165.843 183.937 165.248 181.852 164.616 179.774C164.442 179.2 164.268 178.625 164.095 178.051C164.006 177.755 163.916 177.459 163.824 177.154C159.239 161.917 156.723 147.166 156.445 131.25C154.518 130.904 152.591 130.782 150.64 130.646C150.098 130.606 150.098 130.606 149.545 130.565C147.64 130.43 145.757 130.34 143.847 130.371ZM77.4528 151.685C73.4301 156.283 71.3116 162.068 71.4836 168.164C71.5207 168.556 71.5654 168.948 71.6301 169.336C71.6784 169.626 71.7268 169.916 71.7766 170.215C72.9715 170.537 73.7885 170.455 74.9841 170.159C75.3348 170.074 75.6856 169.989 76.047 169.902C76.4348 169.804 76.8225 169.707 77.2102 169.61C77.6224 169.508 78.0347 169.408 78.4471 169.307C79.5758 169.03 80.7036 168.75 81.8313 168.469C83.0328 168.171 84.2351 167.876 85.4374 167.58C87.7779 167.005 90.1176 166.426 92.457 165.846C94.3926 165.365 96.3285 164.886 98.2645 164.408C98.5427 164.339 98.8209 164.27 99.1076 164.199C99.9536 163.99 100.8 163.781 101.646 163.572C102.774 163.293 103.902 163.014 105.03 162.735C105.308 162.666 105.587 162.597 105.874 162.526C107.553 162.111 109.232 161.695 110.91 161.279C115.877 160.048 120.844 158.817 125.821 157.63C126.173 157.546 126.525 157.462 126.888 157.375C128.443 157.005 130 156.637 131.556 156.273C131.825 156.209 132.093 156.146 132.369 156.081C132.849 155.968 133.33 155.855 133.81 155.745C135.255 155.402 136.606 154.94 137.987 154.395C137.567 150.992 134.31 147.696 131.835 145.606C116.116 133.616 90.5673 137.833 77.4528 151.685ZM167.637 155.459C167.22 155.844 167.22 155.844 167.284 156.445C167.491 156.491 167.698 156.536 167.911 156.583C180.763 159.438 193.588 164.092 205.278 170.158C206.062 170.563 206.85 170.96 207.637 171.357C214.812 175.002 221.738 179.106 227.929 184.278C228.122 184.181 228.316 184.084 228.515 183.985C228.708 173.182 227.116 161.487 219.28 153.357C212.975 147.151 204.342 145.484 195.788 145.538C185.326 145.719 175.488 148.325 167.637 155.459ZM136.816 159.668C135.669 159.922 134.523 160.182 133.379 160.448C132.803 160.58 132.226 160.708 131.649 160.835C128.371 161.601 124.798 162.654 122.753 165.528C120.081 170.377 120.469 176.341 121.963 181.543C123.494 186.663 125.44 191.321 128.027 195.996C128.22 195.996 128.413 195.996 128.612 195.996C128.669 195.76 128.726 195.524 128.785 195.28C129.075 194.078 129.365 192.877 129.656 191.675C129.712 191.444 129.768 191.214 129.825 190.976C130.652 187.567 131.496 184.162 132.351 180.76C132.448 180.374 132.545 179.988 132.642 179.602C133.122 177.692 133.603 175.782 134.086 173.873C134.934 170.506 135.768 167.137 136.527 163.749C136.623 163.331 136.623 163.331 136.722 162.904C136.778 162.648 136.834 162.392 136.891 162.128C136.966 161.796 136.966 161.796 137.041 161.456C137.115 160.783 137.019 160.309 136.816 159.668ZM166.113 161.133C166.602 162.463 167.29 163.37 168.255 164.392C168.411 164.559 168.567 164.725 168.728 164.896C173.227 169.599 178.835 173.058 184.57 176.074C184.666 176.074 184.763 176.074 184.863 176.074C185.194 172.84 185.377 169.628 184.863 166.406C181.006 165.009 177.143 163.684 173.18 162.616C172.877 162.534 172.573 162.451 172.26 162.366C170.227 161.832 168.191 161.445 166.113 161.133ZM115.289 164.867C115.063 164.921 114.837 164.975 114.604 165.031C113.856 165.211 113.108 165.392 112.36 165.573C111.842 165.698 111.323 165.823 110.805 165.948C109.44 166.277 108.075 166.606 106.711 166.936C105.318 167.272 103.926 167.608 102.534 167.943C99.8007 168.602 97.0679 169.262 94.3352 169.922C94.6618 170.902 94.8663 171.048 95.6535 171.662C99.9884 175.367 102.085 180.798 102.758 186.347C102.791 186.828 102.814 187.311 102.831 187.793C102.843 188.093 102.855 188.392 102.867 188.701C102.904 190.659 102.808 192.567 102.621 194.515C102.017 200.806 101.48 207.707 103.124 213.867C103.173 214.06 103.222 214.252 103.272 214.45C104.678 219.908 107.412 225.039 112.206 228.223C115.016 229.783 117.795 230.684 120.995 229.981C123.078 229.3 124.453 228.018 125.445 226.077C126.643 223.27 126.948 220.522 126.91 217.493C126.909 217.204 126.909 216.916 126.909 216.619C126.899 214.99 126.78 213.43 126.562 211.817C126.536 211.237 126.524 210.657 126.525 210.077C126.524 209.75 126.523 209.424 126.522 209.087C126.551 208.302 126.611 207.582 126.721 206.81C127.146 203.538 126.459 201.852 124.593 199.188C118.903 190.781 115.079 178.794 116.777 168.638C116.975 167.776 117.196 166.95 117.48 166.113C117.586 165.792 117.693 165.47 117.802 165.138C117.889 164.88 117.976 164.622 118.066 164.356C117.114 164.356 116.209 164.643 115.289 164.867ZM189.843 168.457C189.583 173.582 189.583 173.582 189.55 178.711C190.012 178.966 190.476 179.215 190.942 179.462C191.329 179.671 191.329 179.671 191.724 179.884C192.537 180.281 192.537 180.281 193.652 179.883C194.232 176.886 194.812 173.889 195.409 170.801C193.572 170.028 191.736 169.254 189.843 168.457ZM166.698 169.629C166.978 172.503 167.825 175.218 168.621 177.984C168.805 178.629 168.983 179.275 169.158 179.922C169.411 180.86 169.678 181.793 169.949 182.727C170.024 183.016 170.099 183.305 170.176 183.604C170.601 185.101 170.601 185.101 171.71 186.105C172.381 186.328 173.039 186.476 173.73 186.621C174.53 186.95 175.301 187.33 176.073 187.72C176.275 187.821 176.476 187.922 176.684 188.025C178.286 188.85 179.704 189.816 181.054 191.016C182.19 189.879 182.406 188.043 182.848 186.53C182.957 186.167 183.067 185.805 183.179 185.432C183.282 185.082 183.385 184.733 183.492 184.372C183.633 183.893 183.633 183.893 183.778 183.403C183.969 182.581 184.025 181.894 183.984 181.055C183.812 180.961 183.64 180.867 183.463 180.77C177.978 177.76 172.627 174.597 167.87 170.508C167.482 170.212 167.092 169.918 166.698 169.629ZM199.218 172.852C198.922 174.09 198.63 175.329 198.339 176.569C198.255 176.92 198.171 177.271 198.085 177.633C198.006 177.971 197.926 178.31 197.845 178.66C197.771 178.971 197.697 179.283 197.622 179.603C197.472 180.405 197.429 181.121 197.46 181.934C197.88 182.131 198.302 182.326 198.724 182.52C198.958 182.628 199.193 182.737 199.434 182.849C200.115 183.158 200.115 183.158 200.976 183.106C201.436 182.032 201.895 180.958 202.353 179.883C202.509 179.518 202.665 179.152 202.822 178.787C203.047 178.262 203.27 177.737 203.493 177.212C203.628 176.896 203.764 176.58 203.903 176.254C204.234 175.534 204.234 175.534 204.198 174.903C203.534 174.559 202.869 174.217 202.203 173.877C202.014 173.779 201.826 173.681 201.632 173.581C200.772 173.144 200.196 172.852 199.218 172.852ZM208.3 177.246C206.301 180.908 206.301 180.908 205.37 184.863C212.061 187.216 219.125 188.581 226.171 189.258C224.89 187.654 223.547 186.448 221.886 185.248C221.645 185.072 221.404 184.896 221.155 184.715C218.747 182.986 216.232 181.458 213.665 179.98C213.017 179.607 212.372 179.229 211.728 178.851C210.106 177.741 210.106 177.741 208.3 177.246ZM188.378 183.692C188.303 183.937 188.228 184.182 188.15 184.434C187.867 185.354 187.584 186.273 187.3 187.193C187.178 187.589 187.056 187.985 186.934 188.381C185.788 192.114 185.788 192.114 185.198 193.524C184.687 195.058 184.995 196.01 185.676 197.414C185.885 197.816 186.096 198.216 186.309 198.615C187.446 200.752 188.169 202.628 188.177 205.097C188.184 205.609 188.184 205.609 188.192 206.132C188.035 207.6 187.594 208.513 186.531 209.537C185.694 210.09 184.88 210.426 183.947 210.791C182.911 211.296 182.355 211.578 181.802 212.598C181.557 213.518 181.426 214.383 181.347 215.332C181.319 215.603 181.29 215.874 181.261 216.153C181.162 217.995 181.582 219.461 182.228 221.174C182.531 222.109 182.64 222.963 182.738 223.938C182.925 225.113 183.083 225.781 184.02 226.538C184.487 226.823 184.965 227.089 185.448 227.344C185.692 227.482 185.692 227.482 185.941 227.623C189.373 229.562 193.16 231.312 197.167 230.567C198.605 229.834 199.213 229.131 199.804 227.637C200.655 224.693 199.757 221.885 198.962 219.031C196.266 209.219 196.476 200.096 198.773 190.233C198.953 189.424 199.096 188.613 199.218 187.793C198.924 187.685 198.924 187.685 198.624 187.574C197.717 187.24 196.81 186.903 195.904 186.566C195.441 186.396 195.441 186.396 194.969 186.222C193.139 185.541 191.359 184.802 189.596 183.962C188.989 183.653 188.989 183.653 188.378 183.692ZM158.202 196.582C156.303 199.036 154.142 201.906 153.808 205.078C155.085 206.994 158.343 207.194 160.508 207.629C166.773 208.785 173.666 208.928 179.882 207.422C180.187 207.348 180.492 207.275 180.807 207.199C182.072 206.855 182.955 206.494 183.984 205.664C183.565 201.954 181.68 198.792 179.296 195.996C179.116 195.758 178.936 195.52 178.75 195.275C176.53 192.637 173.548 191.002 170.139 190.614C165.332 190.427 161.248 193.005 158.202 196.582ZM163.476 212.695C160.156 218.677 160.156 218.677 159.374 225.293C160.011 227.014 161.347 228.429 162.89 229.395C164.588 230.21 164.588 230.21 166.405 230.567C166.502 229.89 166.599 229.213 166.698 228.516C166.795 229.096 166.892 229.676 166.991 230.274C171.059 230.775 171.059 230.775 174.902 229.688C175.09 229.588 175.278 229.488 175.471 229.384C176.875 228.518 177.659 227.461 178.124 225.879C178.931 221.571 175.951 216.961 174.023 213.281C173.802 213.283 173.582 213.284 173.355 213.286C172.363 213.292 171.371 213.296 170.379 213.3C170.032 213.302 169.685 213.305 169.328 213.307C168.998 213.308 168.669 213.309 168.329 213.31C167.871 213.312 167.871 213.312 167.404 213.315C166.698 213.281 166.698 213.281 166.405 212.988C165.913 212.92 165.418 212.868 164.922 212.824C164.653 212.799 164.384 212.775 164.106 212.749C163.794 212.723 163.794 212.723 163.476 212.695Z" fill="black"/>
</svg>
