<svg width="300" height="300" viewBox="0 0 300 300" fill="none" xmlns="http://www.w3.org/2000/svg">
<path d="M151.758 64.7463C153.208 65.6691 154.157 66.6148 154.688 68.262C154.747 69.009 154.779 69.7252 154.781 70.4722C154.784 70.6895 154.787 70.9069 154.79 71.1309C154.799 71.8458 154.804 72.5607 154.809 73.2756C154.815 73.7727 154.82 74.2698 154.826 74.7669C154.841 76.0726 154.853 77.3783 154.864 78.684C154.876 80.0175 154.891 81.3509 154.905 82.6844C154.934 85.2987 154.958 87.9131 154.981 90.5276C155.136 90.2914 155.292 90.0553 155.452 89.812C155.659 89.4994 155.866 89.1868 156.079 88.8647C156.385 88.4018 156.385 88.4018 156.697 87.9294C162.984 78.7323 172.899 72.3527 183.83 70.2072C184.758 70.0342 185.688 69.8757 186.621 69.7268C186.933 69.676 187.245 69.6252 187.567 69.5728C188.721 69.4277 189.854 69.3865 191.015 69.3846C191.235 69.3836 191.455 69.3827 191.682 69.3817C192.146 69.3802 192.611 69.3795 193.075 69.3795C193.77 69.3789 194.464 69.3736 195.158 69.368C203.002 69.3368 203.002 69.3368 204.613 70.5533C205.12 71.2481 205.226 71.5458 205.224 72.3921C205.225 72.624 205.226 72.8559 205.226 73.0948C205.22 73.3429 205.213 73.591 205.207 73.8467C205.2 74.2364 205.2 74.2364 205.194 74.634C204.952 83.3054 201.981 91.4612 196.875 98.4377C196.686 98.6979 196.498 98.9581 196.303 99.2262C193.983 102.263 191.179 104.987 188.086 107.227C188.459 107.32 188.832 107.413 189.216 107.508C198.665 109.969 206.735 115.032 212.403 123.047C212.53 123.227 212.657 123.406 212.788 123.592C218.506 131.823 220.498 141.941 218.848 151.758C218.771 152.087 218.694 152.415 218.614 152.754C218.535 154.155 218.986 154.959 219.635 156.171C223.529 163.947 223.631 173.199 220.99 181.403C218.309 189.243 212.538 196.348 205.078 200.098C201.152 201.856 201.152 201.856 199.219 201.856C199.158 202.214 199.097 202.572 199.035 202.942C197.654 210.661 194.56 217.485 189.551 223.535C189.416 223.699 189.281 223.862 189.142 224.031C183.697 230.529 175.695 234.676 167.267 235.51C161.419 235.778 155.822 234.057 151.392 230.146C151.023 229.801 150.655 229.454 150.293 229.102C149.418 229.494 148.842 229.927 148.169 230.603C143.623 234.68 137.692 235.485 131.843 235.308C129.806 235.184 127.915 234.697 125.977 234.082C125.651 233.98 125.326 233.877 124.99 233.771C121.15 232.419 117.606 230.317 114.551 227.637C114.219 227.363 114.219 227.363 113.88 227.083C109.599 223.464 106.603 218.624 104.297 213.574C104.14 213.235 103.984 212.896 103.822 212.547C103.079 210.821 102.531 209.238 102.195 207.392C101.739 204.035 101.739 204.035 99.8477 201.455C98.8836 201.164 97.9706 200.968 96.9801 200.811C95.9573 200.592 95.083 200.122 94.1714 199.622C93.9902 199.523 93.8091 199.423 93.6224 199.321C86.3642 195.19 81.0831 188.162 78.7412 180.177C76.5961 172.252 76.6754 163.107 80.6582 155.734C80.8214 155.452 80.8214 155.452 80.9878 155.164C81.7132 153.481 81.308 152.045 80.9958 150.291C79.5866 140.206 82.4329 130.085 88.4711 121.975C94.4834 114.364 102.656 109.091 112.207 107.227C111.973 107.035 111.739 106.843 111.498 106.645C102.151 98.9126 96.2861 89.1057 94.9912 76.9113C94.5294 71.9708 94.5294 71.9708 95.5427 70.7164C96.5331 69.8992 97.0849 69.7755 98.3508 69.641C98.5411 69.6204 98.7313 69.5997 98.9274 69.5785C101.273 69.3478 103.627 69.331 105.982 69.3423C106.213 69.3428 106.445 69.3433 106.683 69.3439C110.149 69.3573 113.515 69.4752 116.895 70.3127C117.097 70.3614 117.299 70.4102 117.506 70.4604C125.461 72.4435 132.311 76.1038 138.282 81.7385C138.501 81.939 138.72 82.1396 138.946 82.3462C141.279 84.5565 143.091 87.1867 144.727 89.9416C144.729 89.6826 144.73 89.4235 144.732 89.1566C144.749 86.7084 144.77 84.2603 144.796 81.8122C144.809 80.5538 144.82 79.2954 144.828 78.0369C144.836 76.8211 144.848 75.6054 144.863 74.3897C144.867 73.9272 144.871 73.4647 144.873 73.0022C144.896 67.6231 144.896 67.6231 146.293 66.0643C147.966 64.5615 149.604 64.0702 151.758 64.7463ZM105.176 78.5159C105.113 80.2173 105.281 81.616 105.78 83.24C105.846 83.4557 105.912 83.6715 105.979 83.8938C108.41 91.5446 113.858 97.6638 120.915 101.366C124.514 103.168 128.415 104.446 132.422 104.883C132.625 104.906 132.829 104.929 133.038 104.952C133.711 105.023 134.384 105.083 135.059 105.139C135.273 105.161 135.487 105.183 135.708 105.205C136.698 105.273 137.281 105.254 138.125 104.709C139.052 103.256 138.766 101.553 138.574 99.9026C137.642 96.1659 135.709 93.1778 133.301 90.2346C133.167 90.0605 133.032 89.8864 132.894 89.707C127.897 83.4614 119.276 79.9032 111.515 78.9852C109.405 78.7767 107.293 78.6283 105.176 78.5159ZM167.296 89.548C163.947 93.4041 161.472 97.676 161.262 102.871C161.495 104.063 161.91 104.473 162.891 105.176C163.764 105.271 164.415 105.28 165.271 105.194C165.618 105.166 165.618 105.166 165.971 105.137C171.909 104.577 177.975 102.927 182.813 99.3166C183.057 99.1365 183.301 98.9564 183.553 98.7708C189.411 94.2665 193.691 87.9162 194.979 80.5632C195.046 79.9804 195.086 79.3946 195.117 78.8088C184.579 78.4725 174.75 81.8331 167.296 89.548ZM138.282 115.43C138.933 116.172 139.677 116.651 140.517 117.159C143.926 119.23 146.576 121.688 148.875 124.942C149.316 125.549 149.744 126.057 150.293 126.563C150.443 126.329 150.592 126.094 150.746 125.853C153.168 122.195 155.854 119.426 159.63 117.169C160.483 116.642 161.244 116.073 162.012 115.43C154.431 111.659 145.864 111.865 138.282 115.43ZM104.59 120.117C104.301 120.277 104.012 120.436 103.715 120.6C96.9541 124.612 92.5127 131.366 90.5276 138.867C90.0639 140.848 89.875 142.695 89.9417 144.727C90.0878 144.627 90.234 144.527 90.3846 144.425C91.7288 143.517 93.0887 142.638 94.4644 141.779C94.7869 141.576 95.1094 141.372 95.4417 141.163C96.2981 140.676 97.0907 140.377 98.0166 140.058C99.0866 139.546 99.2822 139.255 99.6955 138.118C99.904 137.256 100.064 136.387 100.223 135.514C101.398 129.132 105.897 122.992 111.164 119.33C112.633 118.329 114.141 117.415 115.723 116.602C115.723 116.505 115.723 116.408 115.723 116.309C111.895 116.071 107.834 118.305 104.59 120.117ZM184.571 116.309C185.448 117.07 186.346 117.665 187.354 118.231C193.772 122.042 197.973 128.292 200.098 135.352C200.18 136.029 200.26 136.706 200.336 137.384C200.527 138.317 200.687 138.927 201.443 139.536C202.47 140.172 203.55 140.67 204.648 141.169C206.221 141.887 207.481 142.871 208.822 143.95C209.416 144.492 209.416 144.492 210.059 144.434C210.109 142.739 209.961 141.232 209.583 139.582C209.505 139.239 209.505 139.239 209.425 138.89C207.627 131.391 203.099 124.825 196.527 120.727C192.913 118.573 188.821 116.529 184.571 116.309ZM113.351 129.686C109.265 134.711 108.086 139.812 108.399 146.192C108.919 150.618 111.316 154.383 114.551 157.324C115.577 158.126 116.617 158.778 117.774 159.375C118.009 159.502 118.244 159.628 118.487 159.759C121.886 161.291 126.409 160.98 129.84 159.724C130.112 159.609 130.384 159.494 130.664 159.375C130.918 159.269 131.172 159.163 131.433 159.054C137.074 156.454 140.987 151.845 143.27 146.166C144.799 141.587 144.663 136.601 142.593 132.209C140.096 127.717 136.429 125.034 131.543 123.633C124.847 122.247 117.98 124.743 113.351 129.686ZM159.957 128.773C156.867 132.598 155.65 137.005 155.896 141.889C156.527 147.306 159.461 152.49 163.648 155.95C167.299 158.787 171.497 160.728 176.166 160.694C176.434 160.692 176.702 160.69 176.978 160.689C180.946 160.584 183.666 158.963 186.53 156.299C186.753 156.057 186.977 155.816 187.207 155.567C187.341 155.434 187.475 155.302 187.614 155.165C191.117 151.477 191.91 146.674 191.895 141.797C191.564 136.157 188.813 131.471 184.763 127.677C181.009 124.472 176.393 123.135 171.5 123.255C167.109 123.63 163.004 125.585 159.957 128.773ZM93.1037 154.428C88.803 158.764 86.8238 164.475 86.6458 170.49C86.7102 176.665 88.8266 182.996 93.1643 187.5C93.3577 187.5 93.5511 187.5 93.7503 187.5C93.7503 187.694 93.7503 187.887 93.7503 188.086C96.9957 191.274 101.199 193.055 105.725 193.177C111.365 193.034 116.167 190.82 120.41 187.207C120.359 187.007 120.307 186.806 120.254 186.599C120.018 185.679 119.784 184.759 119.55 183.838C119.468 183.522 119.387 183.207 119.303 182.881C118.501 179.71 118.32 176.85 118.341 173.584C118.343 173.204 118.344 172.823 118.345 172.431C118.349 171.497 118.354 170.563 118.36 169.629C118.192 169.555 118.025 169.482 117.853 169.406C109.889 165.881 104.269 161.283 100.891 153.122C100.502 152.086 100.189 151.068 99.9026 150C97.391 150 94.849 152.741 93.1037 154.428ZM200.391 150C200.312 150.245 200.234 150.49 200.153 150.743C198.82 154.701 197.069 158.31 194.239 161.426C194.001 161.691 193.763 161.955 193.519 162.228C190.295 165.641 186.397 167.89 181.934 169.336C181.941 169.719 181.947 170.102 181.954 170.497C182.015 175.337 181.747 179.833 180.349 184.489C179.829 186.145 179.829 186.145 180.176 187.793C184.221 191.405 189.717 193.378 195.106 193.158C200.438 192.809 204.244 189.955 207.787 186.221C212.251 181.053 213.675 174.246 213.282 167.578C212.656 161.557 209.71 156.378 205.078 152.545C202.937 150.787 202.937 150.787 200.391 150ZM150 154.102C149.774 154.41 149.547 154.717 149.314 155.034C144.676 161.303 139.121 166.841 131.247 168.755C131.047 168.804 130.847 168.852 130.641 168.903C130.07 169.037 129.496 169.159 128.923 169.281C128.004 169.541 128.004 169.541 127.616 170.232C126.265 176.925 128.435 184.477 132.05 190.097C133.215 191.707 134.537 193.126 135.938 194.531C136.127 194.727 136.315 194.923 136.51 195.124C140.376 198.839 145.602 200.292 150.826 200.235C157.009 200.031 161.75 197.343 165.959 192.964C170.583 187.972 172.682 180.864 172.632 174.188C172.634 173.877 172.637 173.566 172.639 173.246C172.638 172.947 172.637 172.648 172.637 172.34C172.636 171.938 172.636 171.938 172.635 171.528C172.553 170.74 172.428 170.278 171.973 169.629C171.439 169.347 171.439 169.347 170.799 169.213C170.56 169.149 170.322 169.086 170.076 169.021C169.82 168.956 169.564 168.891 169.3 168.823C161.77 166.727 155.847 162.289 151.482 155.84C151.013 155.171 150.582 154.66 150 154.102ZM122.406 197.187C118.775 199.595 114.985 200.947 110.742 201.856C110.929 208.912 115.065 215.634 120.047 220.363C124.268 224.174 129.641 226.389 135.352 226.172C138.899 225.657 141.635 224.342 144.141 221.778C145.238 220.256 145.35 219.006 145.352 217.155C145.352 216.769 145.352 216.383 145.353 215.985C145.352 215.785 145.352 215.584 145.351 215.378C145.349 214.768 145.351 214.158 145.353 213.548C145.352 213.161 145.352 212.775 145.352 212.376C145.351 211.847 145.351 211.847 145.351 211.306C145.317 210.462 145.215 209.707 145.02 208.887C144.746 208.833 144.472 208.779 144.19 208.723C136.815 207.146 129.65 202.778 125.455 196.396C125.337 196.264 125.219 196.132 125.098 195.996C123.937 195.996 123.326 196.551 122.406 197.187ZM175.196 195.996C174.782 196.464 174.389 196.95 174.005 197.443C168.979 203.67 162.562 207.004 154.981 209.18C154.944 210.587 154.918 211.993 154.9 213.4C154.893 213.877 154.883 214.355 154.87 214.832C154.739 218.826 154.739 218.826 156.446 222.364C158.933 224.855 162.285 226.157 165.784 226.264C170.991 226.186 176.096 223.805 179.883 220.313C180.144 220.079 180.405 219.844 180.674 219.603C185.471 215.081 188.762 208.715 189.551 202.149C188.626 201.833 187.701 201.536 186.761 201.267C182.977 200.183 179.449 198.62 176.251 196.298C175.792 195.943 175.792 195.943 175.196 195.996Z" fill="black"/>
</svg>
