<svg width="300" height="300" viewBox="0 0 300 300" fill="none" xmlns="http://www.w3.org/2000/svg">
<path d="M143.572 90.5088C145.141 90.796 146.196 91.8461 147.362 92.8708C147.642 93.1148 147.921 93.3588 148.209 93.6101C151.025 96.1096 153.512 98.8433 155.768 101.857C156.342 102.625 156.912 103.351 157.616 104.004C157.814 103.716 157.814 103.716 158.016 103.422C162.184 97.5078 162.184 97.5078 164.94 96.0935C165.708 96.1839 165.708 96.1839 166.405 96.6794C166.877 97.3756 167.238 97.9974 167.595 98.7485C167.696 98.9547 167.797 99.1609 167.901 99.3733C169.589 103.002 170.268 107.052 170.242 111.034C170.242 111.4 170.242 111.4 170.241 111.774C170.24 112.547 170.236 113.32 170.232 114.093C170.231 114.62 170.229 115.147 170.228 115.674C170.225 116.96 170.22 118.245 170.214 119.531C170.297 119.386 170.38 119.24 170.466 119.091C175.786 109.803 182.27 102.787 191.015 96.6794C191.193 96.5549 191.371 96.4304 191.555 96.3021C196.104 93.1471 196.104 93.1471 197.716 93.1821C198.339 93.4568 198.339 93.4568 198.925 94.3357C198.957 95.3096 198.957 95.3096 198.632 96.3865C197.959 97.0843 197.178 97.5736 196.361 98.0894C195.904 98.3942 195.448 98.6998 194.991 99.006C194.764 99.1564 194.537 99.3067 194.303 99.4616C193.38 100.086 192.497 100.755 191.619 101.44C191.315 101.678 191.01 101.915 190.697 102.16C190.415 102.382 190.133 102.603 189.843 102.832C189.591 103.026 189.34 103.221 189.081 103.421C185.734 106.04 182.944 108.746 180.468 112.207C180.326 112.403 180.184 112.599 180.037 112.8C177.323 116.546 174.843 120.323 172.851 124.511C173.148 124.352 173.446 124.193 173.752 124.03C178.603 121.486 182.997 120.427 188.418 122.037C192.098 123.336 195.056 125.553 197.753 128.32C198.005 128.573 198.257 128.826 198.517 129.087C199.929 130.564 201.158 132.132 202.312 133.813C202.438 133.993 202.564 134.173 202.694 134.358C203.503 135.579 203.798 136.525 203.905 137.988C202.032 138.884 200.155 139.539 198.156 140.094C197.891 140.17 197.627 140.246 197.355 140.324C195.926 140.727 194.541 141.043 193.065 141.211C193.307 141.495 193.549 141.779 193.798 142.071C194.04 142.356 194.04 142.356 194.287 142.646C194.64 143.051 195 143.449 195.369 143.841C199.085 147.817 202.233 153.209 202.478 158.765C202.382 159.972 202.167 160.634 201.269 161.426C199.825 161.025 198.723 160.36 197.515 159.503C195.887 158.383 194.229 157.382 192.479 156.463C192.175 156.303 192.175 156.303 191.864 156.139C190.626 155.499 189.372 154.929 188.085 154.394C188.087 154.662 188.087 154.662 188.09 154.935C188.096 155.762 188.1 156.589 188.103 157.416C188.105 157.712 188.106 158.008 188.108 158.313C188.11 159.798 188.073 161.234 187.865 162.707C187.715 164.006 188.005 164.705 188.653 165.819C190.155 168.652 189.658 172.345 188.762 175.287C188.169 176.897 187.37 178.234 186.327 179.59C186.198 179.766 186.07 179.943 185.937 180.125C184.466 182.007 182.435 183.259 180.468 184.57C180.304 185.298 180.184 185.994 180.083 186.731C179.38 190.999 177.263 194.213 173.803 196.82C170.522 198.98 166.847 199.754 162.992 200.025C162.259 200.077 162.259 200.077 161.425 200.39C161.012 201.138 161.012 201.138 160.637 202.038C159.41 204.59 157.609 206.11 154.979 207.129C151.705 208.209 148.052 208.282 144.667 207.804C141.384 207.36 139.303 207.31 136.4 208.936C133.374 210.598 129.451 210.705 126.198 209.792C121.692 208.228 118.721 205.428 116.665 201.221C116.305 200.464 115.987 199.722 115.722 198.926C115.551 198.936 115.38 198.946 115.204 198.956C111.411 199.082 108.335 197.987 105.469 195.485C102.7 192.612 101.12 188.399 101.057 184.448C101.176 182.249 101.614 180.148 102.501 178.127C102.61 177.474 102.61 177.474 101.998 176.897C101.613 176.553 101.613 176.553 101.22 176.202C98.1228 173.244 96.0344 169.398 95.7266 165.088C95.8231 160.028 98.1463 156.199 101.396 152.527C102.562 151.198 102.562 151.198 102.849 149.505C102.66 148.913 102.455 148.326 102.227 147.748C101.589 145.493 101.724 143.182 102.698 141.048C104.712 137.659 107.699 135.76 111.327 134.472C111.338 133.978 111.338 133.978 111.35 133.473C111.517 128.357 112.451 123.799 116.033 119.897C119.478 116.69 123.676 115.203 128.338 115.027C129.905 114.949 130.562 114.628 131.644 113.523C134.409 111.025 140.054 111.476 143.554 111.328C143.441 111.1 143.441 111.1 143.326 110.868C140.612 105.364 138.557 99.6427 140.646 93.4762C141.96 90.5417 141.96 90.5417 143.572 90.5088ZM145.019 96.6794C144.829 103.219 149.469 109.478 153.662 114.118C154.033 114.585 154.033 114.585 154.394 114.551C155.203 111.002 155.203 111.002 154.514 107.557C153.836 106.592 153.138 105.753 152.343 104.883C151.968 104.402 151.596 103.92 151.226 103.436C150.82 102.939 150.41 102.445 149.999 101.953C149.86 101.786 149.721 101.619 149.578 101.447C149.116 100.894 148.652 100.343 148.186 99.7922C148.04 99.6178 147.894 99.4433 147.743 99.2636C146.906 98.2828 146.06 97.4527 145.019 96.6794ZM163.26 103.632C159.902 107.725 158.669 111.976 159.081 117.187C159.518 119.243 160.351 121.118 162.011 122.461C162.96 123.019 163.929 123.492 164.94 123.926C165.901 117.101 166.78 109.759 164.354 103.125C163.718 103.056 163.718 103.056 163.26 103.632ZM133.886 117.48C132.917 118.883 132.752 120.222 133.007 121.875C133.325 122.796 133.725 123.65 134.179 124.511C134.275 124.705 134.372 124.898 134.472 125.097C135.63 124.544 136.691 123.863 137.773 123.175C139.814 122.101 141.727 122.093 143.975 122.131C144.273 122.134 144.571 122.136 144.878 122.139C145.609 122.146 146.339 122.156 147.069 122.168C146.78 120.893 146.27 119.776 145.714 118.597C145.621 118.381 145.528 118.166 145.432 117.943C145.141 117.333 144.87 116.823 144.433 116.308C143.437 115.975 143.437 115.975 142.382 116.015C142.103 115.999 141.824 115.983 141.536 115.966C137.508 115.936 137.508 115.936 133.886 117.48ZM118.413 123.962C116.396 126.777 115.958 129.914 116.308 133.301C116.574 133.988 116.574 133.988 116.894 134.472C117.832 134.669 117.832 134.669 118.944 134.472C119.519 133.969 119.958 133.412 120.434 132.815C122.802 129.916 125.904 128.209 129.198 126.562C128.933 125.065 128.453 123.656 127.979 122.214C127.753 121.364 127.683 120.696 127.733 119.824C124.138 119.553 120.731 121.241 118.413 123.962ZM151.464 120.117C152.836 122.113 152.836 122.113 154.687 123.633C155.627 123.731 155.627 123.731 156.444 123.633C155.094 122.106 153.293 120.99 151.464 120.117ZM173.144 130.371C173.144 130.564 173.144 130.758 173.144 130.957C173.382 130.996 173.62 131.036 173.866 131.077C176.627 131.596 179.025 132.513 181.594 133.619C185.232 135.161 188.556 136.263 192.534 136.303C192.757 136.306 192.98 136.309 193.21 136.312C194.635 136.304 195.814 136.096 197.167 135.644C194.843 131.113 191.947 128.242 187.2 126.323C181.975 124.695 176.911 126.767 173.144 130.371ZM136.522 129.492C135.183 131.566 134.832 133.513 135.058 135.937C135.576 137.983 136.542 139.407 137.987 140.918C139.083 140.502 140.101 140.001 141.137 139.453C143.478 138.275 145.655 137.941 148.241 137.695C148.252 137.355 148.263 137.015 148.274 136.665C148.37 134.254 148.521 131.992 149.203 129.661C149.434 128.829 149.576 128.002 149.706 127.148C144.715 126.003 140.246 125.298 136.522 129.492ZM156.957 127.954C156.652 128.023 156.652 128.023 156.341 128.093C155.082 128.407 154.276 128.719 153.515 129.785C152.873 131.42 152.826 132.98 152.837 134.71C152.838 134.969 152.84 135.228 152.841 135.494C152.852 138.177 152.852 138.177 153.808 140.625C154.723 140.961 155.309 140.897 156.234 140.626C156.6 140.525 156.6 140.525 156.973 140.422C157.233 140.35 157.494 140.278 157.763 140.204C159.95 139.642 162.021 139.306 164.281 139.306C164.514 139.305 164.748 139.303 164.988 139.301C166.657 139.336 168.076 139.729 169.628 140.332C169.805 136.463 169.596 133.145 166.967 130.05C165.154 128.248 163.146 127.499 160.624 127.397C159.351 127.409 158.186 127.641 156.957 127.954ZM124.381 134.543C122.083 137.135 121.228 139.623 121.21 143.036C121.288 143.845 121.459 144.329 121.874 145.019C122.013 144.913 122.151 144.806 122.294 144.697C122.931 144.212 123.573 143.736 124.218 143.261C124.425 143.107 124.633 142.953 124.847 142.795C126.894 141.346 129.076 140.487 131.542 140.039C131.402 139.247 131.234 138.534 130.948 137.781C130.622 136.677 130.595 135.749 130.608 134.601C130.61 134.226 130.612 133.851 130.614 133.464C130.655 132.589 130.752 131.806 130.956 130.957C128.677 130.957 126.054 133.017 124.381 134.543ZM174.608 136.523C175.533 137.293 176.491 137.987 177.483 138.666C179.654 140.19 181.357 141.75 182.976 143.847C186.495 148.396 190.814 150.602 195.995 152.929C196.14 152.639 196.14 152.639 196.288 152.344C194.531 149.968 192.684 147.743 190.652 145.597C190.108 145.022 189.597 144.433 189.099 143.818C185.886 140.033 180.782 137.09 175.817 136.578C175.414 136.554 175.012 136.533 174.608 136.523ZM107.812 141.504C106.552 143.222 106.345 144.988 106.64 147.07C107.052 148.462 107.593 149.672 108.397 150.879C109.235 150.489 109.905 150.035 110.631 149.469C112.657 148.078 115.125 147.644 117.479 147.07C117.336 146.581 117.336 146.581 117.189 146.081C116.829 144.644 116.827 143.271 116.857 141.797C116.86 141.542 116.862 141.287 116.865 141.024C116.872 140.403 116.882 139.781 116.894 139.16C111.925 138.919 111.925 138.919 107.812 141.504ZM140.331 145.312C138.607 147.931 138.57 150.973 138.97 154.014C139.311 155.358 139.8 156.006 140.954 156.775C141.185 156.91 141.416 157.045 141.654 157.184C142.656 157.78 143.538 158.499 144.449 159.224C145.449 160.051 145.449 160.051 146.691 160.224C148.896 159.852 150.383 159.481 151.83 157.672C153.495 154.639 153.376 150.612 152.453 147.345C151.838 145.622 151.037 143.672 149.473 142.611C146.042 141.395 142.639 142.739 140.331 145.312ZM156.444 145.019C156.508 145.283 156.571 145.546 156.637 145.818C157.386 149.28 157.418 152.62 157.323 156.152C157.604 156.213 157.884 156.274 158.174 156.336C160.646 156.9 162.94 157.628 165.252 158.679C166.63 159.29 167.824 159.574 169.335 159.668C170.622 159.159 171.555 158.21 172.265 157.031C173.209 154.644 172.935 152.044 172.082 149.67C170.861 146.905 168.881 144.751 166.149 143.445C163.053 142.825 159.208 143.446 156.444 145.019ZM125.097 148.242C123.552 150.235 122.886 152.194 122.934 154.722C123.217 156.856 124.367 158.582 125.976 159.961C126.819 159.572 127.48 159.126 128.191 158.532C130.11 157.069 132.378 156.364 134.765 156.152C134.733 155.838 134.733 155.838 134.701 155.517C134.419 152.492 134.196 149.522 134.929 146.548C135.071 145.83 135.078 145.164 135.058 144.433C130.683 144.206 128.113 144.99 125.097 148.242ZM174.022 144.433C174.164 144.723 174.305 145.013 174.45 145.312C174.638 145.703 174.824 146.093 175.011 146.484C175.104 146.674 175.197 146.864 175.293 147.06C176.185 148.936 176.643 150.676 176.736 152.746C176.882 154.592 177.628 155.818 178.655 157.324C178.89 157.689 178.89 157.689 179.129 158.062C179.867 159.185 180.484 160.114 181.64 160.84C182.414 160.865 182.414 160.865 183.104 160.547C184.25 158.956 183.859 156.267 183.69 154.394C183.053 151.003 181.456 147.772 178.71 145.605C177.18 144.755 175.74 144.546 174.022 144.433ZM111.823 153.869C110.242 155.544 110.258 157.444 110.32 159.624C110.445 161.351 111.109 162.839 111.913 164.355C112.827 164.192 113.539 163.993 114.403 163.623C116.169 162.866 117.872 162.812 119.768 162.726C120.027 162.713 120.286 162.7 120.553 162.687C121.188 162.656 121.824 162.627 122.46 162.597C122.344 162.467 122.229 162.337 122.11 162.202C121.222 161.187 120.419 160.192 119.732 159.027C119.588 158.787 119.444 158.547 119.296 158.3C118.579 156.907 118.615 155.568 118.633 154.028C118.634 153.81 118.636 153.592 118.637 153.367C118.641 152.83 118.646 152.294 118.651 151.758C115.977 151.699 113.972 152.267 111.823 153.869ZM104.058 156.225C101.662 158.74 100.546 161.775 100.487 165.234C100.82 168.334 102.259 170.805 104.589 172.851C105.9 173.976 105.9 173.976 107.519 174.316C107.53 174.068 107.54 173.821 107.552 173.565C107.667 171.571 107.922 170.001 108.69 168.164C108.69 166.805 108.363 166.312 107.702 165.143C106.059 162.053 105.925 158.723 106.054 155.273C104.967 155.273 104.82 155.485 104.058 156.225ZM175.194 160.254C175.018 160.482 175.018 160.482 174.838 160.715C173.888 161.881 173.184 162.633 171.77 163.183C170.708 163.703 170.528 164.007 170.099 165.143C169.882 165.967 169.713 166.795 169.556 167.633C169.335 168.75 169.335 168.75 168.995 169.537C168.548 170.769 168.989 171.563 169.519 172.72C169.706 173.088 169.895 173.455 170.086 173.822C170.182 174.011 170.279 174.2 170.378 174.395C170.615 174.858 170.854 175.319 171.093 175.781C172.676 175.503 173.756 175.018 174.787 173.725C177.051 170.435 177.633 167.134 177.245 163.183C176.87 161.843 176.374 161.04 175.194 160.254ZM129.217 163.458C127.746 165.309 126.981 167.091 127.221 169.479C127.748 172.582 129.324 174.5 131.835 176.367C132.92 177.092 133.953 176.995 135.204 176.898C135.412 176.883 135.619 176.868 135.833 176.853C138.93 176.594 142.323 176.025 144.524 173.657C145.515 172.378 146.2 171.168 146.184 169.518C145.785 166.684 143.967 164.51 141.811 162.735C137.917 159.946 132.583 159.812 129.217 163.458ZM153.279 162.336C152.151 163.308 150.784 163.808 149.413 164.355C149.477 164.561 149.54 164.768 149.605 164.98C150.433 167.914 150.561 170.73 149.999 173.73C152.969 174.99 156.065 175.552 159.2 174.599C161.829 173.407 163.669 171.624 164.776 168.951C165.637 166.554 165.637 166.554 165.526 164.062C163.772 161.802 160.283 161.235 157.616 160.84C157.396 160.806 157.177 160.773 156.95 160.739C155.187 160.608 154.503 161.117 153.279 162.336ZM181.933 165.82C181.886 166.047 181.84 166.275 181.792 166.509C181.01 170.129 179.964 173.374 177.907 176.478C177.467 177.394 177.509 177.762 177.831 178.711C178.265 179.515 178.265 179.515 178.71 180.176C180.575 179.803 181.67 178.694 182.812 177.246C184.693 174.069 185.363 171.109 184.738 167.43C184.557 166.809 184.557 166.809 183.983 166.113C182.932 165.802 182.932 165.802 181.933 165.82ZM113.269 169.389C112.186 170.598 112.055 171.681 112.1 173.263C112.324 174.865 113.067 175.886 114.317 176.882C116.733 178.457 119.13 178.934 121.983 178.597C123.167 178.321 124.226 177.816 125.097 176.953C125.097 175.889 124.794 175.518 124.254 174.609C122.996 172.199 122.915 169.667 122.753 166.992C117.596 166.814 117.596 166.814 113.269 169.389ZM164.281 176.111C162.369 177.815 159.971 178.659 157.616 179.59C157.588 179.954 157.559 180.318 157.529 180.694C157.207 184.418 156.713 187.401 154.394 190.429C154.394 190.623 154.394 190.816 154.394 191.015C158.563 191.165 161.994 190.733 165.236 187.857C167.063 185.927 168.227 183.677 168.328 181C168.214 178.558 167.149 176.949 165.526 175.195C164.995 175.195 164.644 175.759 164.281 176.111ZM144.799 178.656C142.518 180.056 140.288 180.747 137.694 181.347C137.791 181.674 137.888 182 137.987 182.336C138.504 184.594 138.325 186.957 138.28 189.258C141.294 190.661 144.436 190.997 147.637 189.972C149.974 188.984 151.574 187.444 152.636 185.156C153.369 183.139 153.38 181.385 152.929 179.297C151.971 179.051 151.012 178.807 150.054 178.564C149.646 178.459 149.646 178.459 149.229 178.352C148.968 178.286 148.706 178.22 148.437 178.152C148.076 178.06 148.076 178.06 147.707 177.966C146.421 177.695 145.874 177.969 144.799 178.656ZM108.983 178.125C107.52 178.897 106.645 179.649 106.069 181.232C105.252 184.087 105.318 186.668 106.513 189.406C107.669 191.416 109.363 193.356 111.596 194.143C113.764 194.481 116.006 194.418 118.065 193.652C117.928 193.45 117.79 193.248 117.648 193.04C115.994 190.544 115.069 188.806 115.198 185.802C115.384 183.759 115.384 183.759 114.71 181.925C114.088 181.562 113.462 181.319 112.792 181.054C112.318 180.715 111.854 180.36 111.4 179.992C110.603 179.358 109.801 178.733 108.983 178.125ZM127.294 180.688C125.132 182.337 122.895 182.921 120.225 183.254C119.881 183.325 119.881 183.325 119.53 183.398C118.915 184.628 119.3 186.189 119.53 187.5C120.328 189.781 121.819 191.057 123.887 192.196C125.832 193.07 128.32 193.181 130.333 192.462C132.109 191.361 133.171 189.959 133.748 187.947C134.164 185.708 134.159 183.651 133.007 181.64C132.28 181.199 131.719 180.914 130.938 180.633C130.751 180.559 130.564 180.484 130.372 180.407C128.916 179.838 128.486 179.702 127.294 180.688ZM173.437 181.054C173.243 181.151 173.05 181.248 172.851 181.347C172.61 182.072 172.396 182.791 172.191 183.526C170.918 187.822 168.526 191.056 164.647 193.359C163.589 193.89 162.519 194.373 161.425 194.824C161.425 194.921 161.425 195.017 161.425 195.117C165.889 195.307 169.547 194.819 173.052 191.803C174.784 189.79 175.591 188.179 175.572 185.525C175.447 184.115 175.041 182.858 174.315 181.64C174.025 181.447 173.735 181.254 173.437 181.054ZM146.996 194.531C144.59 194.962 142.18 194.873 139.745 194.824C139.855 194.98 139.965 195.137 140.078 195.298C141.791 197.791 143.112 199.957 143.261 203.027C146.658 204.06 150.947 203.839 154.247 202.661C155.731 201.622 156.648 200.405 157.03 198.633C157.044 198.174 157.047 197.715 157.043 197.256C157.041 197.02 157.039 196.783 157.037 196.54C157.035 196.36 157.033 196.181 157.03 195.996C156.755 195.932 156.755 195.932 156.475 195.866C155.647 195.672 154.819 195.477 153.991 195.282C153.702 195.214 153.414 195.147 153.116 195.077C152.841 195.012 152.565 194.947 152.281 194.88C152.026 194.82 151.772 194.76 151.509 194.699C150.878 194.531 150.878 194.531 150.292 194.238C149.141 194.187 148.12 194.294 146.996 194.531ZM132.073 196.435C129.806 196.988 127.589 196.925 125.266 196.842C123.414 196.795 122.099 196.978 120.409 197.754C120.46 200.09 121.745 201.753 123.382 203.346C125.866 205.408 128.127 205.837 131.328 205.767C133.719 205.541 135.719 204.752 137.401 203.027C138.152 202.004 138.153 201.044 137.987 199.804C137.129 198.247 135.911 197.02 134.472 195.996C133.558 195.996 132.947 196.181 132.073 196.435Z" fill="black"/>
</svg>
