<svg width="300" height="300" viewBox="0 0 300 300" fill="none" xmlns="http://www.w3.org/2000/svg">
<path d="M163.768 74.1211C164.647 74.7071 164.647 74.7071 164.94 75.586C164.975 76.1923 164.992 76.7997 165 77.407C165.006 77.7823 165.012 78.1576 165.018 78.5443C165.023 78.954 165.028 79.3637 165.033 79.7734C165.039 80.1925 165.045 80.6116 165.051 81.0307C165.068 82.1332 165.082 83.2357 165.096 84.3381C165.111 85.4634 165.127 86.5886 165.143 87.7139C165.175 89.9212 165.205 92.1286 165.233 94.336C165.462 93.8077 165.462 93.8077 165.696 93.2687C165.902 92.7966 166.109 92.3246 166.316 91.8526C166.416 91.6217 166.515 91.3907 166.618 91.1527C169.718 84.1036 174.693 78.4565 181.932 75.586C185.264 74.4354 188.568 74.0561 192.076 74.0113C192.404 74.0003 192.732 73.9894 193.07 73.9781C193.386 73.9747 193.703 73.9713 194.029 73.9678C194.315 73.962 194.601 73.9562 194.896 73.9502C196.041 74.193 196.466 74.6632 197.167 75.586C197.352 76.4847 197.352 76.4847 197.351 77.4868C197.353 77.8549 197.354 78.2229 197.356 78.6021C197.348 78.9944 197.34 79.3868 197.332 79.7791C197.329 79.9773 197.327 80.1756 197.324 80.3798C197.242 86.2999 195.879 91.0978 191.698 95.4575C186.721 100.093 179.887 102.019 173.217 101.99C172.788 101.991 172.788 101.991 172.35 101.991C170.871 101.987 169.446 101.924 167.98 101.715C167.284 101.61 167.284 101.61 166.698 101.66C166.301 102.144 165.911 102.632 165.526 103.125C163.902 103.46 162.175 103.11 160.55 102.912C143.823 100.954 126.534 104.291 113.085 114.844C108.672 118.332 104.664 122.293 101.366 126.856C101.246 127.02 101.126 127.184 101.002 127.353C93.8624 137.214 90.0835 149.029 90.1417 161.169C90.1423 161.407 90.1429 161.645 90.1436 161.891C90.1594 165.604 90.309 169.213 91.1121 172.852C91.1704 173.118 91.2286 173.384 91.2885 173.658C92.6205 179.546 94.6872 185.121 97.5575 190.43C97.651 190.605 97.7446 190.78 97.841 190.961C100.102 195.173 102.923 198.847 106.054 202.441C106.339 202.781 106.339 202.781 106.63 203.128C107.798 204.508 109.054 205.687 110.448 206.836C110.672 207.024 110.672 207.024 110.901 207.216C123.992 218.167 140.722 223.295 157.73 221.934C172.83 220.517 186.607 213.628 196.522 202.123C203.186 194.05 207.624 184.319 209.472 174.023C209.57 173.51 209.57 173.51 209.671 172.987C212.118 157.599 207.573 141.137 198.508 128.624C197.732 127.584 196.925 126.572 196.096 125.573C195.703 125.099 195.316 124.622 194.928 124.143C192.017 120.587 188.793 117.364 185.155 114.551C184.848 114.308 184.54 114.065 184.233 113.822C182.338 112.328 182.338 112.328 180.334 110.987C180.015 110.792 179.697 110.596 179.369 110.394C179.08 110.227 178.792 110.06 178.495 109.887C177.831 109.277 177.831 109.277 177.57 108.227C177.538 107.227 177.538 107.227 177.831 106.512C178.724 105.815 179.356 105.948 180.468 106.055C181.227 106.448 181.852 106.824 182.537 107.318C182.726 107.45 182.915 107.581 183.11 107.717C186.434 110.058 189.551 112.609 192.479 115.43C192.673 115.615 192.866 115.8 193.065 115.991C195.841 118.667 198.429 121.379 200.682 124.512C200.88 124.785 200.88 124.785 201.082 125.064C211.324 139.311 216.565 156.774 213.728 174.293C211.357 188.162 204.453 202.218 193.358 211.231C193.132 211.418 193.132 211.418 192.901 211.61C179.108 223.05 162.383 227.741 144.62 226.099C127.822 224.337 111.74 216.227 100.872 203.192C100.446 202.652 100.025 202.109 99.6082 201.563C99.4857 201.405 99.3632 201.248 99.237 201.086C91.9785 191.746 86.9853 179.973 85.8387 168.164C85.8066 167.843 85.7745 167.523 85.7414 167.193C84.3132 150.453 89.5938 134.301 100.22 121.361C103.5 117.505 106.949 114.03 111.034 111.035C111.217 110.901 111.4 110.767 111.588 110.629C122.927 102.401 136.492 97.9825 150.501 98.0843C151.267 98.0897 152.033 98.0903 152.799 98.0902C153.299 98.0917 153.798 98.0934 154.298 98.0954C154.632 98.0959 154.632 98.0959 154.973 98.0964C156.839 98.1123 158.688 98.2654 160.546 98.4375C160.547 98.1502 160.548 97.8628 160.549 97.5668C160.56 94.8595 160.577 92.1524 160.6 89.4452C160.611 88.0534 160.621 86.6617 160.625 85.2698C160.63 83.9268 160.64 82.5838 160.654 81.2408C160.658 80.7283 160.66 80.2157 160.661 79.7032C160.661 78.9855 160.669 78.2683 160.679 77.5506C160.677 77.3384 160.676 77.1262 160.674 76.9076C160.695 75.9141 160.776 75.3773 161.379 74.5728C162.226 73.9671 162.748 73.9909 163.768 74.1211ZM177.831 82.3243C177.535 82.5486 177.535 82.5486 177.232 82.7775C172.911 86.2623 170.056 91.8506 168.163 96.9727C168.163 97.1661 168.163 97.3594 168.163 97.5586C174.693 98.6405 181.333 98.2768 186.913 94.3543C190.448 91.5842 192.781 88.3313 193.358 83.7891C193.392 82.7755 193.386 81.7635 193.377 80.7496C193.375 80.478 193.374 80.2065 193.373 79.9267C193.369 79.261 193.364 78.5954 193.358 77.9297C187.701 77.7131 182.353 78.7317 177.831 82.3243Z" fill="black"/>
<path d="M173.436 115.43C174.302 115.914 174.302 115.914 175.139 116.583C175.439 116.822 175.739 117.06 176.049 117.306C177.164 118.235 178.245 119.201 179.307 120.191C179.848 120.719 179.848 120.719 180.467 120.996C180.467 121.19 180.467 121.383 180.467 121.582C180.633 121.651 180.8 121.72 180.971 121.791C185.556 124.381 188.898 131.208 191.307 135.645C191.406 135.825 191.506 136.005 191.608 136.191C198.408 148.654 200.305 163.952 196.519 177.635C194.645 183.983 191.67 189.973 187.498 195.117C187.358 195.293 187.217 195.468 187.072 195.649C179.362 205.177 167.859 212.069 155.59 213.45C153.234 213.67 150.896 213.658 148.534 213.574C148.277 213.567 148.02 213.559 147.755 213.551C146.965 213.527 146.174 213.497 145.384 213.465C145.143 213.456 144.903 213.447 144.655 213.437C143.226 213.366 141.967 213.202 140.623 212.696C140.038 211.817 140.038 211.817 140.056 210.791C140.331 209.766 140.331 209.766 140.984 209.257C141.907 208.836 142.339 208.835 143.333 208.973C149.228 209.631 155.713 209.725 161.424 208.008C161.637 207.945 161.85 207.882 162.07 207.818C168.917 205.739 174.957 202.016 180.174 197.168C180.549 196.824 180.549 196.824 180.932 196.474C189.458 188.321 193.792 176.248 194.286 164.668C194.369 149.782 188.683 135.32 178.251 124.628C176.357 122.743 174.374 121.092 172.09 119.695C171.112 119.058 170.821 118.734 170.52 117.586C170.506 116.602 170.506 116.602 170.799 115.888C171.685 115.195 172.336 115.329 173.436 115.43Z" fill="black"/>
<path d="M151.716 111.281C152.659 111.246 153.383 111.268 154.25 111.658C154.861 112.422 154.943 112.994 154.982 113.965C154.763 114.643 154.763 114.643 154.396 115.137C153.457 115.45 152.703 115.498 151.715 115.545C151.169 115.575 151.169 115.575 150.612 115.604C150.42 115.614 150.228 115.625 150.03 115.635C136.667 116.371 125.347 121.709 116.313 131.635C107.65 141.436 103.932 153.757 104.592 166.699C105.499 178.291 110.668 190.125 119.459 197.878C120.255 198.533 121.063 199.17 121.877 199.805C122.714 200.485 123.547 201.169 124.377 201.858C124.808 202.206 125.248 202.545 125.703 202.86C126.198 203.211 126.198 203.211 126.857 203.906C126.897 205.063 126.82 205.665 126.052 206.543C125.168 206.936 124.853 206.834 123.928 206.543C123.165 206.091 122.469 205.563 121.767 205.023C121.46 204.79 121.46 204.79 121.147 204.551C116.321 200.81 112.046 196.418 108.693 191.309C108.573 191.126 108.452 190.943 108.328 190.754C101.057 179.519 98.4913 165.549 101.233 152.474C102.891 145.174 105.967 138.419 110.451 132.422C110.649 132.156 110.848 131.89 111.052 131.615C119.439 120.797 131.231 113.624 144.869 111.775C147.149 111.496 149.425 111.41 151.716 111.281Z" fill="black"/>
<path d="M166.7 189.551C167.557 190.298 167.838 190.748 167.982 191.876C167.016 194.029 164.086 194.84 162.018 195.649C154.297 198.553 144.485 200.526 136.544 197.32C135.646 196.875 135.646 196.875 135.353 196.289C135.223 194.761 135.223 194.761 135.664 193.982C137.142 193.124 139.063 193.784 140.638 194.089C148.075 195.374 157.72 194.406 164.119 190.093C165.093 189.452 165.557 189.327 166.7 189.551Z" fill="black"/>
<path d="M182.52 154.98C183.051 155.273 183.051 155.273 183.398 155.859C184.701 164.359 182.819 173.971 177.815 181.026C177.246 181.64 177.246 181.64 176.239 181.97C175.195 181.933 175.195 181.933 174.335 181.219C174.135 180.972 173.936 180.724 173.73 180.469C174.022 179.332 174.448 178.482 175.122 177.539C178.926 171.968 179.697 165.286 179.501 158.738C179.496 158.381 179.491 158.025 179.486 157.657C179.478 157.333 179.47 157.009 179.461 156.675C179.59 155.859 179.59 155.859 180.126 155.314C180.983 154.864 181.565 154.858 182.52 154.98Z" fill="black"/>
<path d="M126.27 142.676C126.984 143.152 126.984 143.152 127.441 143.848C127.368 145.377 126.791 146.232 125.885 147.437C124.871 148.818 124.136 150.101 123.618 151.751C123.263 152.509 122.89 152.809 122.168 153.223C120.314 153.127 120.314 153.127 119.531 152.344C119.644 149.186 121.147 146.32 123.047 143.848C124.152 142.848 124.753 142.418 126.27 142.676Z" fill="black"/>
<path d="M146.043 132.605C146.424 132.641 146.805 132.677 147.198 132.715C147.768 132.76 147.768 132.76 148.35 132.806C149.401 133.005 150.026 133.254 150.878 133.887C151.171 134.418 151.171 134.418 151.171 135.059C150.86 135.992 150.86 135.992 150.292 136.816C148.981 137.171 147.886 137.077 146.557 136.853C146.061 136.773 146.061 136.773 145.554 136.691C144.726 136.523 144.726 136.523 144.14 136.23C143.826 135.066 143.696 134.45 144.294 133.379C145.019 132.715 145.019 132.715 146.043 132.605Z" fill="black"/>
</svg>
