<svg width="300" height="300" viewBox="0 0 300 300" fill="none" xmlns="http://www.w3.org/2000/svg">
<path d="M191.378 87.9731C195.468 89.838 199.335 90.7781 203.832 90.9485C208.937 91.1816 213.656 91.9121 217.347 95.795C220.312 99.5271 220.417 103.818 220.018 108.398C219.749 109.928 219.345 111.413 218.932 112.909C217.457 118.259 217.412 123.131 218.81 128.503C223.246 145.608 219.469 163.284 210.643 178.4C207.797 183.155 204.546 187.69 200.772 191.751C200.184 192.386 199.615 193.032 199.053 193.689C197.205 195.804 195.213 197.677 193.017 199.427C192.485 199.857 191.96 200.297 191.447 200.75C180.261 210.559 165.034 216.942 150.292 218.555C150.019 218.587 149.747 218.62 149.466 218.653C133.864 220.192 119.327 216.219 106.075 208.125C101.338 205.233 96.9354 203.891 91.4389 203.237C87.6659 202.733 84.2729 201.476 81.736 198.539C79.7698 195.92 79.009 193.178 79.2973 189.898C79.6108 187.81 80.3111 185.776 80.9566 183.771C82.2993 179.177 81.531 173.798 80.6919 169.164C80.5169 168.187 80.3592 167.208 80.2035 166.228C80.1307 165.77 80.0564 165.312 79.9802 164.855C77.1833 147.673 83.0662 130.718 92.9982 116.821C94.4888 114.766 96.0896 112.826 97.7727 110.925C98.432 110.225 98.432 110.225 98.7294 109.57C98.9227 109.57 99.1161 109.57 99.3153 109.57C99.4284 109.315 99.4284 109.315 99.5437 109.054C99.933 108.34 100.362 107.862 100.935 107.287C101.141 107.08 101.347 106.872 101.56 106.658C101.89 106.332 101.89 106.332 102.227 106C102.453 105.776 102.679 105.551 102.911 105.32C104.568 103.692 106.264 102.2 108.104 100.781C108.412 100.532 108.72 100.282 109.027 100.032C130.206 82.8586 161.078 75.3216 191.378 87.9731ZM147.069 88.4765C146.808 88.5314 146.546 88.5863 146.277 88.6428C132.89 91.5248 119.56 98.0851 109.569 107.52C109.204 107.832 108.838 108.143 108.471 108.453C105.543 111.013 102.867 113.821 100.487 116.895C100.257 117.182 100.026 117.469 99.7891 117.765C91.225 128.531 85.4392 141.597 85.3993 155.493C85.398 155.706 85.3968 155.918 85.3954 156.137C85.3857 161.406 86.1889 166.56 87.0058 171.754C87.8913 177.441 87.6495 182.6 85.9303 188.104C85.0304 190.877 85.0304 190.877 85.5023 193.692C86.448 195.433 87.8004 196.47 89.6782 197.073C90.8445 197.336 92.0182 197.466 93.2065 197.583C99.8154 198.234 105.161 200.655 110.78 204.049C125.422 212.875 142.208 214.978 158.788 210.937C168.661 208.461 178.055 203.764 186.034 197.461C186.278 197.273 186.523 197.085 186.775 196.891C188.773 195.331 190.645 193.642 192.479 191.895C192.743 191.643 192.743 191.643 193.012 191.387C195.456 189.043 197.696 186.635 199.713 183.914C200.102 183.391 200.499 182.876 200.898 182.36C210.738 169.489 216.56 152.459 214.449 136.227C214.038 133.442 213.399 130.679 212.651 127.966C210.916 121.531 211.826 114.944 213.918 108.686C214.568 106.333 214.899 103.365 213.866 101.074C212.649 99.1945 211.103 98.0494 208.967 97.4067C208.124 97.2285 207.308 97.1908 206.448 97.15C199.862 96.8017 194.395 95.8174 188.339 93.0679C181.014 89.7675 173.394 87.3068 165.3 87.2349C165.032 87.232 164.764 87.2292 164.489 87.2262C158.583 87.1762 152.869 87.2276 147.069 88.4765Z" fill="black"/>
<path d="M178.252 107.465C178.455 107.506 178.658 107.547 178.867 107.59C180.268 107.924 181.014 108.476 181.933 109.57C184.009 113.722 181.289 121.426 179.955 125.464C178.93 128.451 177.754 131.344 176.366 134.18C176.202 134.517 176.202 134.517 176.035 134.86C173.12 140.768 169.43 146.246 164.964 151.095C164.411 151.696 163.878 152.309 163.348 152.93C161.158 155.432 158.762 157.615 156.152 159.668C155.869 159.897 155.587 160.125 155.297 160.36C148.694 165.608 141.253 169.252 133.3 171.973C132.961 172.089 132.961 172.089 132.615 172.208C131.198 172.686 129.773 173.088 128.32 173.438C128.085 173.495 127.851 173.552 127.609 173.61C123.935 174.465 120.322 174.723 116.564 174.738C116.361 174.739 116.157 174.741 115.948 174.743C112.78 174.761 109.331 174.72 106.64 172.852C104.789 170.041 105.056 166.361 105.065 163.129C105.066 162.895 105.066 162.661 105.066 162.42C105.1 154.145 107.009 146.425 111.034 139.16C111.22 138.813 111.405 138.465 111.589 138.118C113.848 133.992 116.754 130.399 119.823 126.856C120.135 126.477 120.446 126.099 120.757 125.72C121.523 124.831 122.374 124.078 123.268 123.321C124.002 122.688 124.702 122.026 125.408 121.362C139.389 108.655 159.863 103.506 178.252 107.465ZM145.898 116.309C145.889 116.72 145.902 117.132 145.923 117.544C145.936 117.808 145.948 118.072 145.961 118.345C145.977 118.633 145.992 118.922 146.008 119.22C146.037 119.83 146.067 120.441 146.096 121.051C146.111 121.374 146.127 121.697 146.143 122.03C146.225 123.778 146.29 125.527 146.355 127.277C146.368 127.613 146.381 127.95 146.394 128.297C146.424 129.086 146.454 129.875 146.484 130.664C147.812 129.694 149.072 128.716 150.256 127.57C155.862 122.433 162.735 118.414 169.941 115.999C170.249 115.895 170.557 115.791 170.875 115.684C171.488 115.481 172.102 115.282 172.718 115.09C172.997 114.998 173.276 114.907 173.564 114.813C173.815 114.734 174.066 114.655 174.324 114.574C174.96 114.308 174.96 114.308 175.132 113.637C175.163 113.364 175.163 113.364 175.195 113.086C171.941 112.607 168.759 112.392 165.472 112.409C165.137 112.41 165.137 112.41 164.795 112.41C154.725 112.38 154.725 112.38 145.898 116.309ZM136.687 120.52C136.377 120.717 136.377 120.717 136.061 120.919C134.074 122.202 132.205 123.607 130.37 125.098C130.006 125.389 130.006 125.389 129.634 125.686C128.522 126.609 127.921 127.22 127.441 128.613C127.778 128.788 128.115 128.962 128.463 129.141C131.282 130.606 134.058 132.117 136.773 133.768C136.992 133.899 137.211 134.029 137.437 134.164C137.629 134.28 137.82 134.397 138.018 134.516C138.65 134.846 138.65 134.846 139.745 134.766C140.62 132.142 140.376 129.128 140.368 126.398C140.369 126.032 140.37 125.666 140.371 125.288C140.369 123.253 140.296 121.258 140.038 119.238C138.609 119.238 137.846 119.772 136.687 120.52ZM173.233 120.913C170.638 121.838 168.199 122.955 165.76 124.236C165.304 124.475 164.845 124.708 164.386 124.94C160.923 126.736 157.73 129.067 154.755 131.58C154.101 132.129 154.101 132.129 153.428 132.605C153.263 132.738 153.099 132.871 152.929 133.008C152.929 133.201 152.929 133.395 152.929 133.594C152.736 133.594 152.542 133.594 152.343 133.594C152.15 133.981 151.956 134.367 151.757 134.766C157.558 134.766 163.359 134.766 169.335 134.766C170.82 131.982 172.113 129.493 173.125 126.563C173.238 126.25 173.351 125.938 173.467 125.616C174.013 124.073 174.463 122.629 174.609 120.996C174.006 120.614 174.006 120.614 173.233 120.913ZM122.753 133.008C122.173 133.475 121.763 133.906 121.288 134.473C121.116 134.67 120.944 134.866 120.766 135.069C114.9 142.041 110.841 151.948 111.327 161.133C112.261 160.257 113.065 159.34 113.854 158.331C115.268 156.546 116.791 154.873 118.359 153.223C118.507 153.066 118.656 152.909 118.809 152.747C123.563 147.759 129.191 143.716 135.351 140.625C135.018 139.627 134.861 139.534 134.007 138.994C133.785 138.853 133.564 138.712 133.335 138.567C132.973 138.344 132.973 138.344 132.604 138.117C132.358 137.963 132.111 137.809 131.857 137.65C130.082 136.558 128.276 135.538 126.434 134.564C126.2 134.441 125.966 134.317 125.725 134.19C124.301 133.426 124.301 133.426 122.753 133.008ZM148.241 142.09C149.114 143.71 150.129 145.13 151.263 146.576C152.652 148.368 154.003 150.171 155.273 152.051C156.653 151.428 157.565 150.457 158.624 149.396C158.829 149.191 159.034 148.985 159.246 148.774C162.813 145.23 162.813 145.23 165.234 140.918C164.422 140.107 161.8 140.553 160.619 140.552C160.408 140.551 160.196 140.551 159.978 140.55C153.886 140.348 153.886 140.348 148.241 142.09ZM142.675 146.192C140.535 151.391 138.773 157.219 138.866 162.891C140.286 162.711 141.396 162.112 142.638 161.444C142.855 161.328 143.071 161.213 143.294 161.093C144.83 160.256 146.321 159.363 147.784 158.405C147.969 158.285 148.154 158.166 148.345 158.043C149.031 157.581 149.639 157.106 150.195 156.492C150.363 155.396 149.67 154.61 149.084 153.735C148.952 153.532 148.82 153.329 148.684 153.12C147.661 151.57 146.591 150.052 145.495 148.554C145.349 148.351 145.202 148.148 145.052 147.939C144.912 147.753 144.772 147.566 144.627 147.374C144.444 147.126 144.444 147.126 144.256 146.874C143.754 146.396 143.35 146.306 142.675 146.192ZM132.806 148.883C132.513 149.082 132.513 149.082 132.215 149.284C125.826 153.692 120.173 159.161 115.722 165.527C115.517 165.816 115.313 166.104 115.102 166.401C114.265 167.483 114.265 167.483 113.964 168.75C119.415 168.987 124.82 168.321 130.077 166.846C130.281 166.79 130.484 166.735 130.693 166.678C131.739 166.367 131.739 166.367 132.464 165.598C132.747 164.855 132.839 164.211 132.912 163.418C132.942 163.116 132.973 162.813 133.004 162.502C133.035 162.177 133.066 161.852 133.099 161.517C133.592 156.828 134.467 152.222 135.644 147.656C134.451 147.656 133.759 148.235 132.806 148.883Z" fill="black"/>
</svg>
