<svg width="300" height="300" viewBox="0 0 300 300" fill="none" xmlns="http://www.w3.org/2000/svg">
<path d="M182.225 88.7696C182.413 88.8388 182.602 88.908 182.796 88.9792C187.084 90.5983 191.102 93.051 194.53 96.0939C194.755 96.2789 194.98 96.464 195.212 96.6546C195.702 97.2657 195.702 97.2657 195.726 97.9844C195.295 98.9974 194.713 99.4393 193.852 100.122C193.697 100.247 193.542 100.372 193.383 100.5C192.565 101.154 191.731 101.784 190.888 102.405C190.728 102.523 190.568 102.641 190.403 102.763C189.955 103.091 189.503 103.414 189.052 103.737C188.305 104.257 188.305 104.257 188.084 105.176C188.347 105.304 188.61 105.433 188.881 105.565C197.377 109.831 203.668 116.727 208.006 125.098C208.098 125.273 208.19 125.448 208.285 125.628C214.841 138.242 215.02 153.601 210.936 166.992C210.237 169.173 209.443 171.312 208.592 173.438C208.503 173.663 208.413 173.889 208.32 174.121C206.209 179.34 203.386 184.398 200.096 188.965C199.975 189.137 199.853 189.309 199.728 189.486C197.461 192.681 194.948 195.565 192.186 198.34C192.037 198.491 191.887 198.641 191.733 198.796C184.731 205.758 173.659 212.428 163.533 212.443C163.124 212.441 163.124 212.441 162.706 212.439C162.44 212.44 162.174 212.441 161.899 212.443C160.431 212.44 158.984 212.381 157.521 212.257C155.482 212.089 153.454 212.053 151.408 212.055C151.036 212.054 150.664 212.054 150.281 212.054C148.245 212.065 146.25 212.139 144.231 212.402C134.146 213.718 124.168 211.255 116.087 205.045C111.165 201.109 106.895 196.641 103.124 191.602C102.976 191.405 102.828 191.209 102.675 191.007C93.4242 178.679 86.5425 164.594 86.6257 148.92C86.6264 148.704 86.627 148.487 86.6277 148.264C86.6892 135.067 91.4739 122.8 100.78 113.379C100.941 113.213 101.102 113.046 101.268 112.875C108.013 105.982 118.051 101.542 127.717 101.318C134.259 101.26 139.97 102.403 145.897 105.176C146.738 103.184 147.412 101.191 147.986 99.1071C148.151 98.5198 148.317 97.9325 148.483 97.3453C148.739 96.4307 148.994 95.5158 149.248 94.6006C149.496 93.7095 149.748 92.8194 150 91.9294C150.112 91.5174 150.112 91.5174 150.227 91.0971C150.3 90.8427 150.372 90.5882 150.447 90.3261C150.509 90.1027 150.571 89.8793 150.635 89.6491C150.912 88.9793 151.183 88.6254 151.756 88.1837C152.772 88.2053 153.377 88.3943 154.247 88.9161C154.763 89.7762 154.708 89.948 154.503 90.8937C154.372 91.3586 154.237 91.8223 154.1 92.2853C153.9 93.0653 153.707 93.8471 153.514 94.629C153.756 94.4447 153.998 94.2604 154.247 94.0705C162.104 88.1966 172.682 85.2586 182.225 88.7696ZM152.562 100.415C151.296 102.06 150.498 103.854 149.706 105.762C149.562 106.1 149.419 106.438 149.272 106.786C148.923 107.615 148.58 108.445 148.241 109.277C146.477 109.376 145.475 109.19 143.883 108.344C141.423 107.106 138.9 106.395 136.229 105.762C135.794 105.653 135.794 105.653 135.35 105.542C126.665 103.724 116.886 106.202 109.481 110.875C108.079 111.828 106.763 112.873 105.467 113.965C105.306 114.098 105.145 114.231 104.979 114.369C102.541 116.406 100.576 118.716 98.729 121.289C98.5564 121.529 98.5564 121.529 98.3803 121.773C91.1392 131.983 88.9966 144.794 90.8189 157.031C93.0401 169.977 99.4388 181.579 107.811 191.602C107.944 191.763 108.076 191.925 108.213 192.092C115.121 200.523 123.559 207.618 134.764 208.887C138.704 209.153 142.627 208.882 146.55 208.512C148.527 208.331 150.485 208.245 152.47 208.246C152.837 208.246 152.837 208.246 153.211 208.245C154.565 208.257 155.885 208.355 157.229 208.518C166.847 209.597 176.003 207.688 183.768 201.722C188.035 198.301 191.905 194.265 195.116 189.844C195.254 189.659 195.392 189.474 195.534 189.283C204.097 177.787 209.929 163.823 209.856 149.359C209.855 149.135 209.854 148.91 209.854 148.679C209.797 136.122 205.433 124.435 196.582 115.394C191.47 110.504 185.299 107.307 178.417 105.762C178.117 105.69 177.817 105.618 177.508 105.544C169.779 104.024 160.448 105.143 153.807 109.57C153.038 109.625 153.038 109.625 152.342 109.57C151.801 109.029 151.948 108.274 151.896 107.551C152.135 106.588 152.708 106.307 153.514 105.762C158.214 103.116 163.407 102.001 168.749 101.66C169.077 101.639 169.405 101.618 169.743 101.596C172.281 101.523 174.738 101.887 177.249 102.223C181.936 102.951 181.936 102.951 186.327 101.66C186.848 101.239 187.355 100.799 187.846 100.342C188.215 100.002 188.215 100.002 188.591 99.6553C188.811 99.4468 189.03 99.2383 189.256 99.0235C189.436 98.8755 189.617 98.7275 189.802 98.5749C190.201 98.1572 190.201 98.1572 190.1 97.5541C188.962 94.9846 184.307 93.4767 181.85 92.4821C171.563 88.8548 159.631 92.1571 152.562 100.415Z" fill="black"/>
<path d="M145.56 113.951C146.42 114.769 146.417 115.446 146.484 116.601C145.352 117.778 143.967 117.662 142.437 117.755C136.735 118.215 131.646 120.031 127.148 123.633C126.89 123.839 126.633 124.045 126.367 124.258C118.807 130.711 115.784 140.418 114.94 150.006C114.303 158.605 116.727 167.181 120.609 174.784C121.037 175.889 121.136 176.658 120.996 177.832C120.117 178.418 120.117 178.418 119.256 178.418C118.082 178.035 117.742 177.413 117.187 176.367C116.673 175.217 116.222 174.047 115.777 172.87C115.649 172.534 115.522 172.198 115.39 171.851C110.675 159.255 109.248 146.32 114.91 133.724C118.409 126.264 124.266 119.128 132.149 116.073C133.123 115.733 134.101 115.43 135.091 115.139C135.973 114.941 135.973 114.941 136.23 114.258C127.908 113.231 119.385 114.436 112.499 119.531C111.256 120.533 110.119 121.633 108.984 122.754C108.796 122.921 108.608 123.088 108.414 123.26C102.61 128.524 99.6627 137.653 99.2557 145.266C99.2201 146.472 99.218 147.677 99.2243 148.883C99.2248 149.096 99.2254 149.308 99.2259 149.527C99.2396 152.778 99.3845 155.921 100.195 159.082C100.247 159.287 100.298 159.492 100.352 159.703C100.735 161.174 101.18 162.62 101.66 164.062C101.721 164.25 101.782 164.438 101.846 164.631C106.156 177.581 115.719 191.435 128.052 197.77C132.972 200.2 138.034 200.768 143.436 200.621C143.74 200.616 144.043 200.612 144.356 200.608C144.631 200.602 144.906 200.595 145.19 200.588C145.898 200.684 145.898 200.684 146.434 201.064C146.777 201.562 146.777 201.562 146.777 202.588C146.484 203.613 146.484 203.613 145.831 204.109C144.958 204.521 144.408 204.605 143.449 204.609C143.149 204.611 142.848 204.612 142.539 204.614C142.221 204.61 141.904 204.606 141.577 204.602C141.249 204.599 140.921 204.596 140.583 204.594C130.896 204.419 122.857 200.277 116.015 193.652C115.869 193.514 115.724 193.376 115.573 193.234C113.228 191.009 111.197 188.633 109.277 186.035C109.135 185.844 108.993 185.654 108.846 185.457C99.6126 172.977 93.485 158.034 95.5793 142.298C97.0777 132.347 101.598 123.256 109.57 116.894C119.558 109.784 134.686 106.493 145.56 113.951Z" fill="black"/>
<path d="M170.163 109.818C178.897 109.555 186.613 113.041 193.001 118.799C201.034 126.511 204.65 137.475 204.884 148.402C205.055 164.806 198.003 179.832 187.035 191.77C185.505 193.31 185.505 193.31 184.26 193.488C183.399 193.359 183.399 193.359 182.831 192.865C182.432 191.995 182.537 191.63 182.813 190.723C183.262 190.18 183.262 190.18 183.839 189.661C185.302 188.267 186.54 186.738 187.794 185.156C188.023 184.877 188.252 184.597 188.488 184.309C197.463 173.109 202.174 158.456 200.684 144.141C199.444 134.351 195.36 125.449 187.501 119.238C183.202 116.187 178.142 114.257 172.852 113.965C172.45 113.942 172.45 113.942 172.04 113.918C169.337 113.84 166.758 114.274 164.107 114.737C163.216 114.888 162.322 115.014 161.426 115.137C161.426 115.33 161.426 115.524 161.426 115.723C161.741 115.741 162.055 115.759 162.379 115.778C168.413 116.544 174.655 121.663 178.278 126.321C187.025 137.983 189.134 152.737 187.197 166.916C185.556 177.93 181.546 191.111 173.438 199.219C172.431 199.146 172.431 199.146 171.387 198.926C170.801 198.047 170.801 198.047 170.83 197.083C171.125 195.869 171.636 195.088 172.394 194.128C181.798 181.572 185.719 164.536 183.532 149.051C182.822 144.734 181.73 140.496 179.883 136.524C179.73 136.183 179.578 135.842 179.42 135.491C176.259 128.785 171.069 123.104 164.055 120.406C161.398 119.526 158.648 119.088 155.887 118.679C153.756 118.349 153.756 118.349 152.93 117.774C152.609 116.808 152.605 116.407 152.93 115.43C153.529 115.018 154.109 114.662 154.743 114.313C154.928 114.21 155.112 114.108 155.302 114.002C160.031 111.425 164.797 110.115 170.163 109.818Z" fill="black"/>
</svg>
