<svg width="300" height="300" viewBox="0 0 300 300" fill="none" xmlns="http://www.w3.org/2000/svg">
<path d="M147.068 60.9375C148.519 60.9375 149.969 60.9375 151.463 60.9375C151.463 62.0977 151.463 63.2578 151.463 64.4531C151.753 64.4531 152.043 64.4531 152.342 64.4531C152.342 64.6465 152.342 64.8398 152.342 65.0391C151.955 65.0391 151.568 65.0391 151.17 65.0391C151.152 65.3038 151.135 65.5685 151.116 65.8413C151.092 66.1868 151.067 66.5324 151.042 66.8884C151.018 67.2317 150.994 67.575 150.97 67.9287C150.877 68.8477 150.877 68.8477 150.584 69.7266C150.94 69.7341 151.296 69.7417 151.662 69.7495C158.304 69.9462 164.725 71.065 171.092 72.9492C171.324 73.0179 171.557 73.0866 171.796 73.1574C179.521 75.4893 187.107 79.0581 193.65 83.7891C193.952 84.0051 194.254 84.2211 194.565 84.4437C196.79 86.0753 198.899 87.833 200.975 89.6484C201.123 89.7775 201.271 89.9067 201.423 90.0397C205.299 93.4419 208.615 97.2153 211.672 101.363C212.069 101.9 212.471 102.433 212.874 102.965C225.464 119.789 230.595 142.41 227.756 163.102C227.277 166.188 226.632 169.237 225.877 172.266C225.814 172.521 225.751 172.776 225.686 173.038C222.746 184.687 216.967 195.724 209.471 205.078C209.248 205.361 209.026 205.644 208.797 205.935C205.002 210.601 200.59 215.045 195.701 218.555C195.379 218.797 195.058 219.039 194.737 219.283C190.13 222.725 184.879 225.686 179.588 227.93C179.813 227.93 180.038 227.931 180.269 227.932C185.742 227.949 191.214 227.971 196.686 227.999C199.333 228.012 201.979 228.023 204.625 228.031C206.932 228.038 209.239 228.048 211.545 228.061C212.766 228.068 213.988 228.074 215.209 228.075C216.359 228.077 217.509 228.083 218.659 228.092C219.08 228.095 219.502 228.096 219.923 228.095C220.5 228.095 221.077 228.1 221.654 228.106C221.976 228.107 222.298 228.109 222.631 228.11C224.405 228.332 225.607 229.201 226.696 230.56C227.316 231.601 227.433 232.592 227.342 233.789C226.83 235.497 225.992 236.624 224.519 237.633C223.484 238.018 222.459 237.972 221.369 237.966C220.992 237.968 220.992 237.968 220.607 237.969C219.759 237.972 218.91 237.97 218.062 237.969C217.45 237.97 216.838 237.971 216.226 237.973C214.54 237.977 212.853 237.977 211.167 237.976C209.35 237.976 207.533 237.979 205.716 237.982C202.155 237.987 198.593 237.988 195.031 237.989C192.137 237.989 189.243 237.99 186.348 237.992C185.516 237.992 184.683 237.993 183.85 237.993C183.643 237.994 183.436 237.994 183.223 237.994C177.399 237.997 171.576 238 165.752 237.999C165.532 237.999 165.312 237.999 165.086 237.999C163.973 237.999 162.859 237.999 161.746 237.999C161.525 237.999 161.304 237.999 161.076 237.999C160.629 237.999 160.182 237.999 159.735 237.999C152.778 237.999 145.821 238.003 138.865 238.011C131.051 238.02 123.238 238.025 115.425 238.025C114.592 238.025 113.759 238.025 112.926 238.025C112.721 238.025 112.516 238.025 112.304 238.025C109.002 238.025 105.7 238.028 102.398 238.033C99.0791 238.038 95.7606 238.039 92.4421 238.035C90.6439 238.033 88.8458 238.033 87.0477 238.038C85.4021 238.043 83.7566 238.042 82.111 238.037C81.5152 238.036 80.9194 238.037 80.3236 238.04C79.5143 238.044 78.7053 238.041 77.896 238.036C77.6642 238.039 77.4324 238.042 77.1935 238.045C75.5624 238.024 74.312 237.626 72.9474 236.719C71.7005 235.376 71.3788 234.503 71.399 232.711C71.5561 231.432 72.2847 230.657 73.1488 229.761C75.4856 228.498 78.2685 228.727 80.8409 228.737C81.279 228.737 81.7172 228.737 82.1554 228.736C83.338 228.734 84.5206 228.737 85.7032 228.74C86.9424 228.742 88.1816 228.742 89.4208 228.741C91.499 228.742 93.5773 228.744 95.6555 228.748C98.0598 228.753 100.464 228.754 102.868 228.754C105.183 228.754 107.497 228.756 109.811 228.758C110.796 228.759 111.781 228.76 112.766 228.76C113.923 228.76 115.081 228.762 116.238 228.765C116.663 228.766 117.089 228.766 117.514 228.766C118.093 228.766 118.672 228.767 119.251 228.769C119.575 228.77 119.9 228.77 120.234 228.771C120.994 228.809 120.994 228.809 121.58 229.102C121.58 228.908 121.58 228.715 121.58 228.516C121.223 228.41 120.866 228.303 120.499 228.194C118.624 227.567 116.902 226.664 115.153 225.751C114.98 225.661 114.806 225.57 114.628 225.477C111.528 223.86 108.588 222.077 105.76 220.02C105.503 219.834 105.503 219.834 105.242 219.645C104.119 218.825 103.027 217.97 101.951 217.09C101.788 216.957 101.625 216.824 101.457 216.687C96.9548 212.983 92.5814 208.858 89.0607 204.199C88.8325 203.914 88.6044 203.629 88.3694 203.335C82.0671 195.427 77.5652 186.227 74.4122 176.66C74.3261 176.399 74.24 176.138 74.1513 175.869C67.4499 155.089 70.2784 131.93 80.0589 112.643C82.5731 107.805 85.6208 103.251 89.0607 99.0234C89.1872 98.8668 89.3137 98.7101 89.444 98.5487C92.8737 94.3323 96.7196 90.281 101.072 87.0117C101.225 86.894 101.377 86.7763 101.534 86.6551C104.738 84.1806 108.137 82.0405 111.619 79.9805C111.811 79.8668 112.002 79.7532 112.2 79.6361C122.09 73.8593 133.783 70.4786 145.189 69.7987C145.882 69.8033 145.882 69.8033 146.19 69.4336C146.253 68.8804 146.298 68.3252 146.336 67.7696C146.36 67.4309 146.384 67.0921 146.409 66.7431C146.433 66.3862 146.458 66.0293 146.483 65.6616C146.53 64.9604 146.579 64.2593 146.629 63.5582C146.65 63.2455 146.671 62.9329 146.693 62.6108C146.775 61.8164 146.775 61.8164 147.068 60.9375ZM149.998 74.707C149.976 76.0064 149.96 77.3057 149.95 78.6052C149.946 79.0425 149.94 79.4797 149.932 79.917C149.87 83.4356 150.163 86.8747 150.535 90.3727C150.924 94.0703 151.146 97.7637 151.317 101.477C151.334 101.84 151.351 102.202 151.369 102.576C152.52 127.04 153.094 151.451 151.874 181.713C151.772 184.17 151.673 186.627 151.575 189.084C151.567 189.28 151.56 189.476 151.552 189.679C151.519 190.485 151.487 191.292 151.455 192.099C151.191 198.724 150.925 205.35 150.654 211.976C150.625 212.689 150.596 213.402 150.567 214.115C150.429 217.493 150.29 220.872 150.089 224.247C150.001 225.733 149.961 227.211 149.98 228.699C149.981 228.912 149.982 229.126 149.984 229.346C149.987 229.851 149.992 230.355 149.998 230.859C153.131 230.85 154.801 230.296 157.098 228.216C170.719 214.454 170.572 181.993 171.385 164.062C171.401 163.703 171.418 163.344 171.435 162.975C173.443 122.07 173.443 122.07 158.475 78.6701C156.61 76.7172 154.426 75.2713 151.756 74.707C151.17 74.7014 150.584 74.7009 149.998 74.707ZM137.279 79.2744C125.782 93.6757 124.58 119.531 123.379 137.1C123.339 137.675 123.296 138.25 123.252 138.824C122.956 143.05 122.99 147.287 122.991 151.52C122.991 152.405 122.989 153.289 122.985 154.174C122.958 160.134 123.125 166.029 123.631 171.973C123.653 172.234 123.675 172.495 123.698 172.764C123.826 174.224 123.977 175.68 124.144 177.136C124.168 177.35 124.192 177.563 124.216 177.783C126.712 205.088 126.712 205.088 139.284 227.947C141.332 229.494 143.382 230.182 145.897 230.566C145.751 228.189 145.541 225.835 145.236 223.473C143.138 207.123 142.284 190.515 141.447 174.06C141.436 173.85 141.425 173.641 141.414 173.425C141.004 165.351 140.855 157.278 140.861 149.194C140.861 148.967 140.861 148.74 140.861 148.506C140.871 125.95 142.347 103.406 145.346 81.0473C145.383 80.7712 145.42 80.495 145.457 80.2106C145.526 79.6986 145.595 79.1867 145.666 78.675C145.831 77.4392 145.933 76.2506 145.897 75C142.594 74.6523 139.419 76.9788 137.279 79.2744ZM157.908 75.293C158.815 76.2255 159.732 77.0667 160.765 77.8564C169.671 84.9502 174.655 96.4996 178.416 106.934C178.501 107.163 178.586 107.393 178.674 107.63C187.694 132.018 187.896 162.051 179.881 192.48C179.793 192.769 179.704 193.058 179.613 193.356C175.713 205.968 169.62 220.141 159.315 228.923C159.141 229.079 158.967 229.234 158.787 229.395C158.787 229.491 158.787 229.588 158.787 229.688C161.07 229.545 163.195 229.082 165.397 228.479C165.898 228.343 165.898 228.343 166.409 228.203C176.572 225.355 182.307 219.458 187.467 210.465C194.677 197.585 198.619 183.306 200.682 168.75C200.73 168.423 200.779 168.096 200.828 167.76C202.401 156.697 202.385 144.634 200.682 133.594C200.631 133.25 200.581 132.906 200.529 132.552C198.366 117.987 193.771 103.764 185.154 91.6992C185.013 91.4981 184.871 91.297 184.724 91.0898C180.843 85.6196 176.471 80.411 169.92 78.2227C169.561 78.1021 169.561 78.1021 169.195 77.979C165.47 76.7432 161.8 75.8032 157.908 75.293ZM134.05 76.4648C133.638 76.564 133.638 76.564 133.218 76.6652C122.364 79.383 116.301 85.5458 110.594 94.9585C110.143 95.7215 109.707 96.4917 109.275 97.2656C109.141 97.5064 109.007 97.7471 108.868 97.9952C102.32 109.853 98.7829 122.826 97.2638 136.23C97.2295 136.528 97.1951 136.826 97.1598 137.132C94.4031 162.43 98.4941 191.716 116.808 218.605C117.029 218.878 117.251 219.152 117.479 219.434C117.67 219.677 117.861 219.92 118.058 220.171C122.267 225.264 130.65 228.352 137.108 229.102C136.27 228.21 135.416 227.453 134.434 226.721C131.027 224.085 128.61 220.953 126.268 217.383C126.152 217.208 126.037 217.033 125.918 216.853C116.056 201.692 110.723 182.601 109.275 164.648C109.25 164.355 109.225 164.062 109.2 163.759C108.94 160.377 108.911 156.998 108.909 153.607C108.909 153.299 108.909 152.991 108.909 152.673C108.933 128.313 114.077 99.1003 131.431 80.8594C133.247 79.0725 135.32 77.6308 137.4 76.1719C136.346 75.6446 135.156 76.1977 134.05 76.4648ZM184.861 84.375C185.893 85.6298 186.972 86.7784 188.139 87.9089C189.811 89.5502 191.24 91.3351 192.649 93.2031C193.069 93.7558 193.496 94.3019 193.925 94.8475C206.492 110.988 212.459 131.91 212.474 152.179C212.474 152.428 212.474 152.678 212.474 152.935C212.446 175.814 204.343 199.376 188.561 216.22C187.946 216.879 187.414 217.508 186.912 218.262C199.812 213.663 209.961 197.71 215.623 186.035C224.776 166.718 225.794 144.437 218.654 124.298C214.19 112.154 206.418 100.161 196.209 92.0437C195.681 91.6234 195.159 91.1955 194.644 90.7597C192.476 88.9289 190.172 87.3742 187.791 85.8398C187.405 85.5872 187.405 85.5872 187.011 85.3294C186.016 84.6209 186.016 84.6209 184.861 84.375ZM109.349 87.1033C109.055 87.3007 109.055 87.3007 108.756 87.5022C105.663 89.6084 102.809 91.9449 100.081 94.503C99.4667 95.0736 98.8449 95.6165 98.1976 96.1487C97.2885 96.9176 96.5261 97.7746 95.7577 98.6824C95.3923 99.1077 95.0166 99.5244 94.6316 99.9321C91.4246 103.338 88.7631 107.287 86.4239 111.328C86.3135 111.515 86.2031 111.702 86.0893 111.894C79.4246 123.207 76.0002 136.026 75.5841 149.121C75.572 149.474 75.5599 149.827 75.5475 150.191C75.3204 163.715 78.5314 177.065 84.9591 188.965C85.0597 189.154 85.1604 189.344 85.2641 189.539C88.2001 195.048 91.8523 200.125 96.0782 204.718C96.6329 205.322 97.1695 205.938 97.7032 206.561C99.5617 208.684 101.561 210.567 103.764 212.329C104.574 212.977 105.368 213.641 106.163 214.307C107.906 215.737 109.749 217.004 111.619 218.262C111.813 218.165 112.006 218.068 112.205 217.969C111.953 217.709 111.701 217.45 111.442 217.183C108.838 214.468 106.515 211.627 104.295 208.594C104.146 208.394 103.998 208.194 103.844 207.987C100.446 203.409 97.6538 198.472 95.1915 193.334C94.9206 192.775 94.6408 192.22 94.3593 191.666C83.478 169.873 82.9468 143.368 90.4619 120.472C93.1516 112.58 96.7973 104.935 101.658 98.1445C101.874 97.8424 102.09 97.5403 102.313 97.229C104.682 94.0034 107.307 91.0071 110.034 88.0829C110.693 87.3569 111.309 86.6123 111.912 85.8398C110.912 85.8398 110.156 86.5588 109.349 87.1033Z" fill="black"/>
</svg>
