<svg width="300" height="300" viewBox="0 0 300 300" fill="none" xmlns="http://www.w3.org/2000/svg">
<path d="M148.971 52.6988C156.159 52.5217 162.726 55.1702 168.162 59.7655C168.455 60.0125 168.455 60.0125 168.753 60.2645C173.225 64.4027 176.051 70.753 176.658 76.7577C176.634 77.1304 176.609 77.5032 176.583 77.8872C176.512 79.1226 176.445 80.2914 176.951 81.4452C178.143 82.7141 179.783 83.4581 181.292 84.286C182.88 85.2332 184.156 86.5816 185.448 87.8905C185.663 88.1065 185.879 88.3225 186.101 88.5451C191.414 94.1771 193.417 101.903 193.386 109.45C193.386 110.021 193.386 110.021 193.385 110.604C193.384 111.61 193.381 112.616 193.378 113.622C193.375 114.651 193.373 115.68 193.372 116.71C193.369 118.724 193.364 120.739 193.358 122.754C193.636 122.64 193.913 122.526 194.2 122.409C195.232 121.986 196.265 121.564 197.299 121.143C197.746 120.96 198.192 120.778 198.639 120.595C199.281 120.331 199.924 120.069 200.567 119.807C200.866 119.684 200.866 119.684 201.171 119.559C203.61 118.568 203.61 118.568 204.674 118.872C205.369 119.238 205.369 119.238 205.955 120.117C206.048 120.8 206.048 120.8 206.075 121.631C206.092 122.112 206.092 122.112 206.109 122.602C206.122 123.139 206.122 123.139 206.135 123.687C206.146 124.072 206.157 124.457 206.169 124.853C206.32 130.563 206.297 136.277 206.297 141.989C206.298 142.987 206.298 143.984 206.299 144.981C206.302 148.477 206.303 151.973 206.303 155.469C206.302 158.703 206.306 161.937 206.31 165.171C206.314 167.972 206.316 170.773 206.315 173.574C206.315 175.236 206.316 176.898 206.319 178.561C206.348 194.975 206.348 194.975 205.04 201.123C204.947 201.571 204.947 201.571 204.852 202.027C202.065 214.771 195.287 226.93 184.862 234.961C184.642 235.148 184.423 235.335 184.197 235.527C176.893 241.711 167.286 245.318 157.908 246.68C157.62 246.724 157.62 246.724 157.326 246.77C151.312 247.581 144.491 247.377 138.573 246.094C138.311 246.039 138.049 245.983 137.779 245.927C128.393 243.887 119.781 239.513 112.791 232.91C112.402 232.579 112.011 232.249 111.619 231.921C107.022 227.885 103.671 222.716 100.78 217.383C100.669 217.182 100.559 216.981 100.445 216.774C95.3314 207.378 93.9329 197.092 93.8456 186.541C93.8389 185.943 93.8316 185.345 93.8243 184.747C93.7883 181.759 93.7671 178.77 93.7483 175.781C93.7466 175.521 93.7449 175.261 93.7432 174.993C93.6957 167.592 93.6703 160.191 93.6636 152.79C93.6604 149.319 93.653 145.848 93.6403 142.377C93.6315 139.893 93.6271 137.408 93.6261 134.924C93.6254 133.454 93.6229 131.985 93.6154 130.516C93.6086 129.15 93.6074 127.785 93.6104 126.419C93.6105 125.92 93.6087 125.421 93.6047 124.922C93.5995 124.241 93.6015 123.56 93.6054 122.879C93.6047 122.499 93.604 122.119 93.6033 121.727C93.774 120.521 94.1599 119.885 94.9202 118.945C95.9185 118.452 96.6485 118.694 97.6656 119.01C98.1617 119.186 98.6564 119.366 99.1499 119.549C99.3884 119.634 99.6269 119.718 99.8726 119.805C102.07 120.598 104.206 121.527 106.346 122.461C106.344 122.28 106.342 122.099 106.34 121.913C106.32 119.997 106.307 118.081 106.298 116.165C106.293 115.454 106.287 114.743 106.28 114.032C106.179 104.527 107.245 96.1797 113.67 88.7694C113.8 88.598 113.929 88.4265 114.063 88.2499C115.012 87.0204 116.161 86.0715 117.369 85.1073C117.546 84.9651 117.723 84.823 117.905 84.6765C119.059 83.7789 120.176 83.1976 121.525 82.6171C122.418 82.182 122.418 82.182 123.045 81.4452C123.428 80.1173 123.342 78.7279 123.327 77.3585C123.267 71.0385 126.72 64.8346 131.01 60.4247C135.817 55.6782 142.252 53.0252 148.971 52.6988ZM137.694 67.9686C137.529 68.1272 137.364 68.2859 137.194 68.4493C134.393 71.3756 133.737 74.9116 133.006 78.8085C144.124 78.8085 155.242 78.8085 166.698 78.8085C165.857 73.3447 164.363 69.392 160.014 65.9179C152.895 60.9499 143.708 61.8791 137.694 67.9686ZM121.507 94.575C118.192 98.712 116.611 103.003 116.534 108.337C116.531 108.551 116.527 108.766 116.524 108.987C116.492 111.207 116.478 113.428 116.465 115.648C116.459 116.7 116.446 117.752 116.429 118.803C116.408 120.079 116.397 121.354 116.394 122.63C116.391 123.114 116.384 123.598 116.374 124.082C116.229 126.645 116.229 126.645 117.033 128.988C117.551 129.441 118.041 129.762 118.651 130.078C118.947 130.309 118.947 130.309 119.249 130.544C119.408 130.66 119.568 130.776 119.732 130.895C120.008 131.097 120.008 131.097 120.289 131.303C120.479 131.443 120.67 131.582 120.866 131.726C126.214 135.706 131.337 140.255 135.35 145.605C135.472 145.765 135.595 145.926 135.721 146.091C141.791 154.044 146.197 162.926 149.705 172.266C149.899 172.266 150.092 172.266 150.291 172.266C150.37 172.063 150.45 171.86 150.531 171.651C155.44 159.16 161.872 148.34 171.092 138.574C171.278 138.375 171.464 138.177 171.656 137.972C172.964 136.617 174.414 135.446 175.884 134.272C176.415 133.847 176.941 133.418 177.468 132.988C177.851 132.677 178.234 132.366 178.618 132.056C178.795 131.91 178.972 131.765 179.155 131.616C180.267 130.72 181.405 129.946 182.638 129.225C183.152 128.929 183.152 128.929 183.397 128.32C183.425 127.856 183.434 127.392 183.435 126.927C183.436 126.636 183.436 126.344 183.437 126.044C183.437 125.726 183.436 125.408 183.436 125.08C183.436 124.751 183.437 124.422 183.437 124.083C183.438 123.011 183.436 121.939 183.433 120.868C183.433 120.506 183.432 120.144 183.431 119.771C183.426 117.347 183.415 114.924 183.397 112.5C183.395 112.246 183.393 111.992 183.391 111.73C183.336 104.982 182.796 99.5458 177.921 94.4079C172.485 89.1191 166.4 88.9258 159.235 88.956C158.515 88.9561 157.796 88.956 157.076 88.9555C155.575 88.9555 154.074 88.9586 152.572 88.9639C150.658 88.9705 148.743 88.9707 146.829 88.9687C145.345 88.9677 143.861 88.9697 142.378 88.9726C141.672 88.9737 140.967 88.974 140.261 88.9736C133.43 88.9728 126.52 89.164 121.507 94.575ZM104.295 132.715C104.275 140.755 104.259 148.795 104.25 156.835C104.245 160.569 104.239 164.302 104.229 168.036C104.22 171.292 104.214 174.549 104.212 177.805C104.211 179.527 104.209 181.25 104.202 182.972C104.196 184.597 104.194 186.222 104.196 187.848C104.196 188.44 104.194 189.033 104.19 189.625C104.164 194.455 104.578 199.151 105.98 203.796C106.055 204.05 106.13 204.304 106.207 204.566C109.692 216.033 117.469 226.206 128.081 231.94C133.22 234.61 138.893 236.388 144.678 236.882C144.963 236.907 145.247 236.932 145.541 236.957C145.755 236.975 145.969 236.993 146.19 237.012C146.204 232.822 146.214 228.632 146.22 224.442C146.223 222.496 146.227 220.549 146.234 218.603C146.24 216.718 146.244 214.834 146.245 212.95C146.246 212.237 146.248 211.524 146.252 210.812C146.32 194.979 143.112 179.815 136.229 165.527C136.118 165.297 136.007 165.066 135.893 164.828C131.454 155.737 124.877 147.157 116.893 140.918C116.528 140.626 116.163 140.333 115.799 140.041C112.294 137.266 108.482 134.353 104.295 132.715ZM178.709 145.019C178.455 145.261 178.455 145.261 178.196 145.508C171.67 151.751 166.7 159.415 162.889 167.578C162.774 167.823 162.659 168.069 162.541 168.321C159.858 174.117 157.944 180.055 156.444 186.255C156.355 186.614 156.266 186.972 156.174 187.342C155.49 190.293 155.45 193.005 155.712 196.011C155.87 198.019 155.908 200.016 155.918 202.029C155.921 202.407 155.924 202.785 155.927 203.174C155.934 204.196 155.941 205.219 155.947 206.242C155.953 207.316 155.961 208.389 155.969 209.463C155.983 211.49 155.997 213.518 156.009 215.545C156.024 217.855 156.04 220.166 156.056 222.476C156.089 227.224 156.121 231.971 156.151 236.719C156.668 236.674 157.186 236.629 157.704 236.584C157.992 236.559 158.281 236.534 158.578 236.508C159.428 236.42 160.219 236.265 161.041 236.031C161.46 235.912 161.46 235.912 161.889 235.79C162.32 235.661 162.32 235.661 162.761 235.528C163.219 235.392 163.219 235.392 163.687 235.252C169.472 233.474 174.709 230.733 179.295 226.758C179.535 226.554 179.774 226.35 180.021 226.14C188.576 218.67 193.618 208.271 195.408 197.168C195.485 196.709 195.485 196.709 195.563 196.24C195.718 194.983 195.741 193.766 195.737 192.501C195.737 192.245 195.737 191.988 195.737 191.724C195.738 190.868 195.736 190.012 195.735 189.156C195.735 188.541 195.735 187.926 195.735 187.311C195.735 185.643 195.733 183.976 195.731 182.308C195.729 180.565 195.729 178.821 195.729 177.078C195.728 173.777 195.725 170.477 195.723 167.176C195.719 163.419 195.718 159.661 195.716 155.903C195.713 148.173 195.708 140.444 195.701 132.715C190.571 132.715 182.222 141.639 178.709 145.019Z" fill="black"/>
</svg>
