<svg width="300" height="300" viewBox="0 0 300 300" fill="none" xmlns="http://www.w3.org/2000/svg">
<path d="M159.998 70.3857C160.548 71.1914 160.548 71.1914 160.603 71.9787C159.819 74.1659 158.467 75.9419 157.032 77.7466C154.743 80.639 153.126 83.7248 153.169 87.4878C153.17 87.8601 153.172 88.2325 153.174 88.6162C153.216 89.4874 153.314 90.2676 153.516 91.1133C153.811 91.0389 154.105 90.9645 154.408 90.8878C154.6 90.8396 154.792 90.7913 154.99 90.7416C155.415 90.6345 155.84 90.5263 156.264 90.4172C157.272 90.1608 158.266 89.9305 159.291 89.7503C161.311 89.3901 162.325 89.006 163.562 87.3562C167.602 82.2186 174.9 80.419 181.006 79.5227C183.008 79.3126 185.025 79.3291 187.036 79.3241C187.742 79.3213 188.449 79.3121 189.155 79.303C189.607 79.301 190.058 79.2995 190.509 79.2984C190.719 79.2948 190.929 79.2911 191.146 79.2874C192.054 79.2915 192.685 79.3459 193.489 79.785C193.946 80.2734 193.946 80.2734 194.148 81.1523C193.91 84.9234 189.264 88.8142 186.75 91.3513C186.439 91.6666 186.439 91.6666 186.121 91.9883C184.809 93.2929 183.447 94.4414 181.934 95.5078C182.16 95.5723 182.385 95.6369 182.617 95.7033C191.079 98.156 198.409 101.292 204.786 107.52C205.017 107.732 205.247 107.945 205.485 108.164C207.411 109.982 208.895 112.059 210.352 114.258C210.537 114.535 210.721 114.811 210.911 115.097C216.976 124.843 218.119 137.196 215.661 148.226C212.343 162.38 205.059 174.48 197.486 186.732C195.596 189.792 193.735 192.868 191.874 195.945C191.365 196.784 190.852 197.621 190.338 198.458C188.777 201.009 187.328 203.589 185.963 206.25C184.75 208.612 183.516 210.849 181.934 212.988C181.71 213.296 181.485 213.603 181.254 213.92C174.791 222.616 165.753 228.97 154.905 230.648C145.852 231.833 136.969 229.398 129.53 224.139C129.024 223.749 128.524 223.352 128.028 222.949C127.88 222.831 127.731 222.713 127.578 222.591C121.998 218.141 117.951 212.631 114.625 206.354C112.823 202.959 110.964 199.617 108.901 196.375C107.96 194.895 107.055 193.394 106.147 191.895C104.737 189.57 103.308 187.258 101.862 184.955C98.1112 178.967 94.3618 172.979 91.1141 166.699C90.976 166.434 90.838 166.169 90.6957 165.896C83.923 152.766 80.9305 137.646 85.3648 123.282C88.9283 112.372 96.4224 103.367 106.641 98.1445C109.031 96.9507 111.467 95.8685 113.966 94.9219C113.817 94.7546 113.668 94.5873 113.515 94.4149C109.892 90.1478 108.581 85.2042 108.985 79.6875C109.278 77.6591 109.541 75.9064 111.036 74.414C111.842 74.176 111.842 74.176 112.501 74.1211C113.414 75.1463 114.323 76.1678 115.162 77.2556C120.12 83.6613 127.634 85.3592 135.17 86.9205C138.603 87.6411 141.985 88.5388 145.313 89.6484C145.303 89.4203 145.293 89.1922 145.282 88.9572C145.225 86.5878 145.462 84.4164 145.859 82.0881C146.247 79.6648 146.324 77.2503 146.348 74.7988C146.404 72.0136 146.404 72.0136 147.364 70.8984C150.406 68.5837 156.809 68.0896 159.998 70.3857ZM102.54 108.398C102.262 108.635 101.983 108.872 101.696 109.116C94.2215 115.58 90.1671 125.056 89.4032 134.819C88.4782 151.086 96.695 165.443 105.119 178.699C108.066 183.339 110.966 188.009 113.846 192.69C114.215 193.289 114.586 193.885 114.958 194.482C116.296 196.651 117.488 198.875 118.653 201.141C123.554 210.653 130.447 219.382 140.919 222.949C149.213 225.411 157.257 224.621 164.884 220.499C170.179 217.518 174.572 213.11 177.833 208.008C177.939 207.844 178.045 207.679 178.154 207.51C179.626 205.211 180.891 202.818 182.136 200.391C183.79 197.171 185.625 194.091 187.538 191.019C188.107 190.104 188.671 189.186 189.235 188.267C190.776 185.752 192.319 183.237 193.894 180.742C196.562 176.514 199.114 172.231 201.563 167.871C201.705 167.621 201.847 167.371 201.992 167.113C206.787 158.588 210.334 148.724 210.645 138.867C210.657 138.595 210.669 138.323 210.681 138.042C210.893 128.857 207.951 119.84 201.59 113.126C201.194 112.719 200.793 112.316 200.391 111.914C200.171 111.686 199.95 111.459 199.722 111.224C195.558 107.189 187.38 102.246 181.348 102.246C181.745 103.374 182.257 104.186 182.996 105.121C186.022 109.203 188.115 114.09 188.178 119.202C188.187 119.429 188.195 119.657 188.204 119.892C188.223 121.579 187.891 122.542 186.915 123.926C185.546 124.89 184.433 124.964 182.813 124.805C181.89 124.139 181.705 123.345 181.403 122.278C180.324 118.892 178.448 116.753 175.324 115.118C172.012 113.471 172.012 113.471 168.458 112.793C168.986 116.221 171.907 119.088 174.152 121.564C175.109 122.618 176.052 123.682 176.972 124.768C177.304 125.157 177.304 125.157 177.642 125.553C178.126 126.27 178.126 126.27 178.126 127.441C174.623 128.35 170.251 125.841 167.251 124.133C164.598 122.56 162.222 120.745 159.962 118.652C159.804 118.508 159.647 118.363 159.485 118.214C156.857 115.773 154.716 113.073 152.638 110.156C152.015 110.949 151.521 111.733 151.071 112.634C150.943 112.885 150.816 113.137 150.684 113.396C150.55 113.662 150.415 113.928 150.275 114.203C148.888 116.894 147.373 119.417 145.606 121.875C145.39 122.177 145.174 122.48 144.951 122.792C143.784 124.381 142.56 125.923 141.303 127.441C141.175 127.6 141.046 127.758 140.913 127.921C139.883 129.145 138.772 130.042 137.293 130.664C136.043 130.664 135.164 130.255 134.181 129.492C130.772 125.35 130.281 119.283 130.725 114.148C130.871 112.716 131.053 111.289 131.251 109.863C130.162 110.486 129.154 111.186 128.14 111.921C115.042 121.387 115.042 121.387 108.399 120.996C107.85 120.703 107.85 120.703 107.52 120.117C106.544 116.419 108.348 112.681 110.135 109.518C111.937 106.467 114.358 103.823 116.895 101.367C111.917 101.367 106.1 105.206 102.54 108.398Z" fill="black"/>
<path d="M190.722 124.219C192.892 124.549 194.251 125.855 195.703 127.441C196.86 129.171 197.211 130.795 197.222 132.843C197.227 133.169 197.231 133.495 197.235 133.831C197.168 134.756 196.975 135.398 196.582 136.23C194.701 136.182 193.472 135.163 192.187 133.887C190.328 131.361 189.963 129.367 190.136 126.27C190.276 125.543 190.469 124.916 190.722 124.219Z" fill="black"/>
<path d="M120.116 173.145C122.193 173.015 123.66 173.497 125.426 174.591C126.893 175.901 127.993 178.246 128.319 180.176C128.338 180.737 128.344 181.299 128.337 181.861C128.334 182.149 128.332 182.438 128.329 182.735C128.326 182.954 128.322 183.173 128.319 183.399C125.827 183.283 123.998 182.716 122.24 180.89C120.357 178.563 119.912 176.072 120.116 173.145Z" fill="black"/>
<path d="M191.896 149.121C192.918 151.43 193.078 153.945 192.229 156.333C191.228 158.431 189.688 160.235 187.501 161.133C187.115 161.133 186.728 161.133 186.33 161.133C185.569 158.45 185.479 155.948 186.714 153.387C187.871 151.324 189.345 149.121 191.896 149.121Z" fill="black"/>
<path d="M180.468 175.781C180.761 176.074 180.761 176.074 180.766 176.715C180.54 179.787 179.612 182.214 177.245 184.278C175.605 185.325 174.186 185.589 172.265 185.449C172.129 182.643 172.585 180.278 174.39 178.054C176.18 176.252 177.965 175.687 180.468 175.781Z" fill="black"/>
<path d="M109.277 154.395C111.153 154.57 112.596 155.663 113.891 156.958C115.858 159.799 115.861 162.164 115.722 165.527C113.744 165.639 112.561 164.982 111.034 163.77C109.22 161.684 108.586 159.659 108.631 156.925C108.701 156.012 108.914 155.234 109.277 154.395Z" fill="black"/>
<path d="M135.936 138.281C136.595 138.263 136.595 138.263 137.401 138.574C138.92 141.043 139.089 143.647 138.865 146.484C138.433 148.185 137.727 149.588 136.522 150.879C135.863 150.842 135.863 150.842 135.057 150.586C133.122 148.209 133.047 145.625 133.299 142.675C133.761 140.907 134.71 139.609 135.936 138.281Z" fill="black"/>
<path d="M151.464 178.711C152.492 178.89 152.637 179.006 153.386 179.846C154.712 181.838 155.204 184.263 154.979 186.621C154.59 188.558 154.016 189.891 152.636 191.309C151.845 191.202 151.527 191.086 150.985 190.482C149.653 188.424 148.782 186.495 149.12 183.984C149.596 181.96 150.069 180.291 151.464 178.711Z" fill="black"/>
<path d="M109.278 132.715C110.094 134.827 110.014 136.938 109.306 139.087C108.35 141.205 106.78 142.96 104.591 143.847C104.204 143.847 103.818 143.847 103.419 143.847C102.556 141.257 102.649 139.046 103.712 136.523C104.82 134.546 106.789 132.326 109.278 132.715Z" fill="black"/>
<path d="M159.375 130.957C160.086 130.827 160.086 130.827 160.84 130.957C161.347 131.472 161.347 131.472 161.774 132.166C161.917 132.39 162.06 132.614 162.208 132.845C163.442 135.212 163.664 138.008 162.951 140.587C162.51 141.618 162.062 142.595 161.133 143.262C160.405 143.258 160.405 143.258 159.668 142.969C159.151 142.341 159.151 142.341 158.716 141.559C158.569 141.303 158.423 141.048 158.272 140.784C157.265 138.709 157.261 136.078 157.859 133.877C158.279 132.815 158.741 131.909 159.375 130.957Z" fill="black"/>
<path d="M164.941 197.168C165.793 198.872 165.779 200.955 165.391 202.795C164.632 205.071 163.18 206.881 161.104 208.076C160.343 208.383 159.834 208.313 159.082 208.008C158.402 205.726 158.465 203.115 159.572 200.995C160.666 199.296 162.66 196.408 164.941 197.168Z" fill="black"/>
<path d="M135.644 197.754C137.611 197.983 138.872 198.791 140.332 200.098C141.92 202.191 142.548 204.531 142.383 207.129C142.09 208.154 142.09 208.154 141.797 208.887C140.012 208.795 138.709 208.001 137.402 206.836C135.914 204.867 135.309 203.282 135.315 200.83C135.314 200.501 135.313 200.171 135.312 199.832C135.345 199.08 135.424 198.468 135.644 197.754Z" fill="black"/>
<path d="M164.062 154.395C164.79 154.505 165.147 154.591 165.648 155.146C167.08 157.507 167.752 159.95 167.128 162.703C166.704 164.083 166.178 165.295 165.234 166.406C164.462 166.599 164.462 166.599 163.769 166.699C161.94 164.215 161.194 162.4 161.559 159.301C161.935 157.399 162.763 155.833 164.062 154.395Z" fill="black"/>
</svg>
