<svg width="300" height="300" viewBox="0 0 300 300" fill="none" xmlns="http://www.w3.org/2000/svg">
<path d="M177.483 65.6981C177.948 66.3836 178.084 66.8453 178.124 67.6756C177.743 68.5863 177.484 69.0265 176.585 69.4552C175.75 69.7365 174.943 69.8981 174.077 70.056C167.156 71.6097 161.164 76.8616 157.432 82.7137C156.038 84.972 154.648 87.4191 153.808 89.9412C153.968 89.9488 154.129 89.9563 154.294 89.9641C161.095 90.4507 167.83 93.618 172.85 98.1444C173.094 98.36 173.337 98.5756 173.587 98.7978C179.546 104.391 182.049 111.923 184.256 119.556C187.011 129.06 191.222 136.563 197.237 144.35C206.253 156.041 213.672 168.823 214.159 183.984C214.171 184.243 214.182 184.501 214.195 184.767C214.513 198.045 209.676 211.382 200.528 221.04C192.448 229.261 181.79 234.901 170.037 235.032C165.622 235.042 161.585 234.735 157.312 233.632C157.004 233.553 156.696 233.473 156.379 233.391C155.785 233.235 155.192 233.073 154.601 232.905C150.917 231.905 147.777 232.301 144.14 233.313C132.927 236.357 121.226 235.407 110.99 229.706C105.692 226.662 100.991 222.823 97.2645 217.969C97.0515 217.705 96.8385 217.441 96.6191 217.17C88.2979 206.608 84.8699 192.376 86.3571 179.133C88.0468 166.346 94.4213 155.594 102.245 145.605C105.204 141.824 108.012 138.029 110.448 133.887C110.627 133.586 110.627 133.586 110.81 133.279C113.737 128.31 115.415 122.851 116.857 117.297C118.31 111.776 120.579 106.676 124.218 102.246C124.341 102.095 124.465 101.944 124.592 101.788C130.665 94.4827 139.485 90.5611 148.827 89.6483C149.235 83.0365 146.553 77.6389 142.558 72.5405C142.023 71.6707 141.857 71.035 141.796 70.0194C142.325 69.1032 142.699 68.6645 143.682 68.2615C144.922 68.2615 145.678 68.9326 146.555 69.7642C149.614 73.1607 151.236 76.8477 152.636 81.1522C153.425 80.1811 154.167 79.1905 154.888 78.1676C157.944 73.9689 171.037 61.2528 177.483 65.6981ZM128.665 103.705C124.933 108.025 122.438 113.02 121.02 118.52C120.754 119.547 120.47 120.569 120.187 121.591C120.131 121.793 120.075 121.995 120.018 122.203C118.028 129.348 114.839 135.826 110.448 141.797C110.121 142.25 109.795 142.703 109.469 143.156C107.843 145.401 106.177 147.594 104.406 149.725C94.7968 161.345 89.2243 175.752 90.6613 190.927C92.0474 202.714 97.7356 214.53 107.135 221.991C115.579 228.485 126.131 231.603 136.772 230.431C139.045 230.125 141.229 229.616 143.436 228.996C149.289 227.362 153.36 227.925 159.222 229.485C169.14 232.108 179.84 230.181 188.718 225.21C199.293 219.024 205.525 208.48 208.618 196.886C211.788 183.422 208.532 169.262 201.488 157.58C199.271 154.002 196.702 150.66 194.091 147.363C190.909 143.345 187.874 139.292 185.448 134.765C185.348 134.581 185.248 134.397 185.145 134.207C182.374 129.017 180.708 123.127 179.204 117.462C177.084 109.634 172.746 102.316 165.617 98.1479C153.592 91.3024 138.061 93.533 128.665 103.705Z" fill="black"/>
</svg>
