<svg width="300" height="300" viewBox="0 0 300 300" fill="none" xmlns="http://www.w3.org/2000/svg">
<path d="M171.679 56.836C172.674 57.5825 173.093 58.1822 173.583 59.3262C173.73 60.3516 173.73 60.3516 173.4 61.1573C172.408 62.3482 171.557 62.775 170.043 63.144C164.381 64.5316 159.85 68.1744 156.765 73.0727C154.062 77.6312 152.85 82.3216 152.929 87.5977C153.413 87.6357 153.413 87.6357 153.907 87.6744C161.22 88.3212 167.003 90.7833 171.972 96.3868C172.899 97.5266 173.763 98.7015 174.608 99.9024C174.823 100.206 175.037 100.51 175.259 100.824C180.139 108.067 182.578 116.165 183.837 124.732C185.42 135.341 190.363 143.256 197.103 151.36C198.865 153.486 200.525 155.677 202.148 157.91C202.352 158.188 202.352 158.188 202.56 158.471C211.049 170.061 214.013 183.919 211.975 198.049C210.325 208.552 205.965 218.118 198.632 225.879C198.295 226.274 197.959 226.671 197.625 227.069C195.523 229.47 193.042 231.394 190.429 233.203C190.27 233.315 190.111 233.427 189.947 233.543C185.361 236.773 180.6 239.282 175.194 240.82C174.711 240.959 174.711 240.959 174.217 241.101C167.205 242.969 158.424 243.478 151.589 240.491C149.887 239.877 148.446 240.296 146.813 240.912C136.999 244.367 127.068 242.238 117.882 237.897C114.041 235.994 110.446 233.692 107.226 230.859C106.872 230.554 106.872 230.554 106.512 230.243C96.8458 221.739 90.114 210.604 88.1827 197.754C88.1325 197.437 88.1325 197.437 88.0813 197.114C87.5548 193.714 87.5116 190.349 87.5968 186.914C87.6009 186.681 87.605 186.447 87.6092 186.207C87.6825 182.535 88.2042 179.057 89.0616 175.488C89.1114 175.276 89.1611 175.064 89.2124 174.846C90.9194 167.777 94.7344 161.424 99.3155 155.859C99.5459 155.576 99.7763 155.292 100.014 155C100.657 154.21 101.304 153.423 101.952 152.637C102.833 151.564 103.712 150.49 104.589 149.414C104.782 149.18 104.974 148.946 105.173 148.705C108.799 144.248 111.928 139.592 113.964 134.18C114.06 133.938 114.156 133.697 114.255 133.448C115.124 131.102 115.408 128.797 115.624 126.327C116.224 119.642 117.286 113.235 120.409 107.227C120.531 106.987 120.652 106.748 120.777 106.501C124.716 98.7781 129.77 93.3165 137.694 89.6485C137.955 89.5239 138.216 89.3992 138.485 89.2708C141.261 88.0999 144.395 87.9385 147.362 87.5977C147.352 87.3383 147.342 87.0788 147.331 86.8115C147.146 78.335 150.457 70.4861 156.264 64.2975C159.956 60.8147 166.379 56.4205 171.679 56.836ZM133.3 98.7305C133.048 98.9363 132.797 99.1422 132.538 99.3542C125.816 105.474 122.021 115.349 121.403 124.233C120.727 133.829 117.434 142.566 111.327 150C110.985 150.42 110.644 150.841 110.302 151.261C108.774 153.132 107.23 154.984 105.635 156.798C98.9803 164.419 94.4594 173.304 93.4012 183.435C93.3643 183.786 93.3643 183.786 93.3266 184.144C92.7198 190.592 93.5033 197.098 95.214 203.32C95.2773 203.552 95.3407 203.784 95.4061 204.023C97.2151 210.424 100.826 216.965 105.468 221.777C105.661 221.777 105.855 221.777 106.054 221.777C106.054 221.971 106.054 222.164 106.054 222.363C106.247 222.363 106.441 222.363 106.64 222.363C106.705 222.526 106.77 222.689 106.838 222.857C109.071 226.764 114.809 229.977 118.651 232.031C118.828 232.127 119.006 232.222 119.188 232.321C125.873 235.898 133.643 238.093 141.21 236.499C141.467 236.447 141.724 236.395 141.989 236.341C143.303 236.063 144.507 235.744 145.733 235.181C147.525 234.384 149.689 234.213 151.539 234.921C151.899 235.075 151.899 235.075 152.266 235.231C153.81 235.88 155.281 236.157 156.939 236.353C157.229 236.388 157.518 236.423 157.817 236.46C165.442 237.312 172.642 236.585 179.589 233.203C179.862 233.074 180.135 232.945 180.416 232.812C191.752 227.325 200.099 217.529 204.292 205.731C207.946 195.007 208.136 182.542 203.905 171.973C203.832 171.788 203.758 171.603 203.683 171.412C201.678 166.5 198.595 162.132 195.21 158.081C192.538 154.876 190.018 151.548 187.572 148.169C187.417 147.954 187.261 147.74 187.101 147.519C181.867 140.249 179.357 132.383 178.042 123.586C177.376 119.167 176.335 114.94 174.535 110.834C174.366 110.445 174.366 110.445 174.193 110.048C173.173 107.771 171.97 105.732 170.507 103.711C170.367 103.515 170.226 103.319 170.082 103.117C169.629 102.488 169.172 101.863 168.712 101.239C168.572 101.048 168.432 100.858 168.288 100.661C164.852 96.1062 160.224 93.8945 154.605 93.0657C153.851 92.9752 153.101 92.9173 152.343 92.8711C152.052 92.8519 151.761 92.8326 151.462 92.8128C144.862 92.5866 138.381 94.5211 133.3 98.7305Z" fill="black"/>
<path d="M110.743 206.543C112.035 207.613 112.648 208.754 113.325 210.242C115.55 214.867 118.895 218.48 123.323 221.118C123.927 221.485 123.927 221.485 124.22 222.071C124.33 223.24 124.31 223.942 123.781 225C123.048 225.586 123.048 225.586 121.931 225.586C119.473 225.088 117.722 223.813 115.724 222.364C115.434 222.17 115.144 221.977 114.845 221.778C114.845 221.584 114.845 221.391 114.845 221.192C114.68 221.13 114.516 221.068 114.346 221.004C113.446 220.472 112.899 219.744 112.281 218.921C112.155 218.754 112.028 218.586 111.897 218.413C109.635 215.36 107.051 211.677 107.521 207.715C108.351 206.387 109.248 206.307 110.743 206.543Z" fill="black"/>
<path d="M158.314 225.364C159.492 225.704 160.611 225.911 161.836 225.951C162.073 225.961 162.31 225.97 162.555 225.98C163.045 225.998 163.536 226.015 164.026 226.031C165.497 226.092 166.783 226.231 168.165 226.758C168.807 227.722 168.814 227.885 168.677 228.973C168.652 229.203 168.626 229.433 168.6 229.67C168.458 230.273 168.458 230.273 167.872 230.859C166.422 231.167 164.951 231.305 163.477 231.445C163.004 231.494 163.004 231.494 162.522 231.544C159.289 231.711 156.26 230.759 153.169 229.913C152.439 229.713 151.709 229.52 150.977 229.33C146.435 228.149 146.435 228.149 145.624 227.417C145.174 226.462 145.261 225.993 145.606 225C148.317 221.332 154.859 224.29 158.314 225.364Z" fill="black"/>
<path d="M184.243 161.261C184.555 161.502 184.859 161.754 185.158 162.012C185.382 162.197 185.605 162.382 185.836 162.573C190.053 166.206 193.26 171.076 193.734 176.738C193.807 179.035 193.807 179.035 193.261 179.974C192.775 180.469 192.775 180.469 191.933 180.615C190.776 180.43 190.38 180.127 189.553 179.297C189.183 178.511 188.961 177.696 188.729 176.861C187.113 171.582 184.765 168.135 180.13 165.114C178.763 164.194 178.763 164.194 178.493 163.482C178.42 162.89 178.42 162.89 178.731 162.121C180.037 160.52 182.47 160.375 184.243 161.261Z" fill="black"/>
<path d="M164.647 123.34C165.654 123.358 165.654 123.358 166.698 123.633C167.247 124.347 167.247 124.347 167.577 125.098C167.674 125.291 167.77 125.484 167.87 125.684C167.922 126.315 167.958 126.948 167.986 127.581C168.006 127.965 168.026 128.349 168.047 128.745C168.078 129.354 168.108 129.963 168.133 130.573C168.268 133.868 168.268 133.868 169.628 136.816C169.736 136.981 169.845 137.146 169.957 137.316C170.489 138.11 171.036 138.893 171.586 139.674C171.972 140.625 171.972 140.625 171.657 141.747C171.093 142.676 171.093 142.676 170.141 143.024C168.81 142.957 167.978 142.665 166.991 141.797C163.884 138.197 162.786 134.115 162.78 129.456C162.773 129.181 162.765 128.906 162.758 128.624C162.75 126.802 163.031 125.449 164.061 123.926C164.255 123.732 164.448 123.539 164.647 123.34Z" fill="black"/>
</svg>
