<svg width="300" height="300" viewBox="0 0 300 300" fill="none" xmlns="http://www.w3.org/2000/svg">
<path d="M141.315 86.6493C145.41 90.1155 148.236 94.066 150.292 99.0238C150.371 98.8108 150.45 98.5978 150.53 98.3784C153.011 92.0142 157.849 86.548 164.077 83.6693C166.382 82.6848 168.556 81.9552 171.075 81.8119C171.281 81.8001 171.487 81.7883 171.7 81.7762C174.031 81.6732 175.674 82.0049 177.539 83.4965C179.217 85.1843 179.749 86.8733 179.91 89.2036C179.781 94.0552 177.459 98.3706 173.983 101.669C173.518 102.069 173.04 102.453 172.558 102.832C173.271 103.189 173.883 103.17 174.668 103.195C181.522 103.427 187.952 105.427 193.945 108.692C194.255 108.858 194.565 109.023 194.884 109.194C200.15 112.127 204.689 116.276 208.247 121.118C208.552 121.527 208.87 121.924 209.189 122.321C217.557 132.957 219.942 147.687 218.518 160.822C217.063 172.87 212.275 184.487 205.078 194.239C204.949 194.413 204.821 194.587 204.689 194.767C196.597 205.647 184.755 215.224 171.079 217.565C166.598 218.141 161.892 218.015 157.617 216.504C157.31 216.402 157.003 216.299 156.687 216.193C154.769 215.477 153.186 214.488 151.596 213.214C151.099 212.818 151.099 212.818 150.292 212.403C149.158 212.642 148.281 213.316 147.326 213.959C141.43 217.738 134.607 218.576 127.752 217.347C127.059 217.179 126.369 216.995 125.683 216.797C125.38 216.71 125.38 216.71 125.07 216.621C117.379 214.358 110.556 210.249 104.674 204.815C104.085 204.274 103.482 203.76 102.868 203.247C98.1183 199.078 94.4524 193.796 91.2016 188.424C90.8657 187.869 90.5246 187.318 90.1824 186.767C85.3671 178.748 82.3708 169.254 81.4448 159.961C81.4123 159.644 81.3798 159.328 81.3464 159.001C80.5477 150.097 81.7475 140.956 85.2534 132.715C85.3436 132.502 85.4339 132.289 85.5269 132.069C88.7246 124.645 93.7107 117.682 100.195 112.793C100.352 112.675 100.508 112.556 100.67 112.434C108.364 106.657 116.651 103.735 126.23 103.189C126.909 103.143 126.909 103.143 127.734 102.832C127.55 102.679 127.365 102.526 127.175 102.369C123.377 99.1022 120.831 95.2032 120.346 90.1546C120.248 87.845 120.767 85.7619 122.241 83.9542C127.303 78.6573 136.563 82.9805 141.315 86.6493ZM126.562 87.598C125.867 88.9888 126.391 91.0277 126.761 92.4801C129.32 99.6135 137.765 102.956 143.935 106.211C144.726 106.641 144.726 106.641 145.525 107.154C145.744 107.275 145.964 107.395 146.191 107.52C146.384 107.423 146.578 107.327 146.777 107.227C145.713 102.25 143.689 97.6126 140.332 93.7504C140.128 93.5139 139.924 93.2775 139.714 93.034C136.845 89.9457 133.057 87.8285 128.81 87.5294C128.056 87.5255 127.314 87.5428 126.562 87.598ZM158.881 95.1786C156.105 98.9232 154.318 103.17 153.808 107.813C156.462 106.379 159.099 104.915 161.718 103.418C161.909 103.31 162.1 103.201 162.296 103.09C167.338 100.204 171.523 97.2707 173.73 91.6996C173.975 90.6153 174.135 89.5869 174.023 88.4769C173.555 87.5565 173.555 87.5565 172.873 87.471C167.068 87.4615 162.38 90.7979 158.881 95.1786ZM97.851 122.754C88.9662 132.946 86.3704 145.898 87.0112 159.082C88.3512 175.304 97.3996 191.251 109.675 201.748C117.665 208.408 126.575 212.436 137.109 211.817C141.339 211.331 144.93 209.426 147.97 206.491C148.665 205.834 148.973 205.681 149.926 205.573C151.314 205.706 152.123 206.349 153.124 207.299C156.919 210.884 161.883 212.11 166.992 212.11C176.264 211.528 184.774 207.067 191.472 200.769C192.08 200.198 192.701 199.661 193.341 199.128C198.081 194.976 201.678 189.711 204.785 184.278C204.976 183.943 204.976 183.943 205.172 183.601C212.492 170.637 215.547 154.759 211.534 140.248C209.335 132.698 205.654 126 200.097 120.411C199.892 120.204 199.892 120.204 199.683 119.993C194.56 114.899 188.049 111.562 181.054 109.864C180.775 109.796 180.496 109.728 180.208 109.658C171.6 107.766 162.51 109.146 154.98 113.672C154.398 114.054 153.818 114.438 153.24 114.826C151.874 115.702 151.052 116.12 149.414 116.016C147.812 115.47 146.448 114.533 145.054 113.593C129.839 103.41 109.261 110.243 97.851 122.754Z" fill="black"/>
<path d="M151.757 121.875C152.927 123.118 153.633 124.363 154.339 125.904C155.305 127.915 156.411 129.584 157.91 131.25C158.118 131.49 158.326 131.729 158.54 131.976C159.649 133.234 160.794 134.418 162.011 135.572C168.293 141.844 170.852 152.175 170.892 160.822C170.806 167.001 169.109 173.843 164.648 178.418C164.455 178.418 164.261 178.418 164.062 178.418C164.062 178.612 164.062 178.805 164.062 179.004C160.41 182.242 156.068 184.277 151.171 184.571C150.978 184.586 150.785 184.602 150.587 184.617C145.172 184.853 140.356 182.701 136.339 179.215C131.46 174.627 129.416 168.196 129.199 161.627C129.095 153.024 131.352 143.018 137.384 136.579C137.786 136.168 137.786 136.168 138.197 135.749C138.9 135.066 138.9 135.066 139.453 134.18C139.646 134.18 139.839 134.18 140.039 134.18C140.117 134.004 140.196 133.827 140.277 133.645C140.631 132.996 140.951 132.666 141.503 132.184C144.033 129.718 145.748 126.476 147.196 123.29C147.759 122.275 148.324 121.801 149.377 121.344C150.323 121.261 150.898 121.472 151.757 121.875ZM149.707 130.664C149.421 131.099 149.157 131.548 148.901 132.001C147.151 134.84 144.715 137.203 142.291 139.472C136.943 144.785 135.036 153.24 134.948 160.492C134.96 165.943 136.306 171.121 140.2 175.141C143.759 178.32 147.337 179.033 151.968 178.773C155.848 178.413 158.954 176.354 161.425 173.438C165.229 168.369 165.505 161.663 164.848 155.588C164.602 153.987 164.218 152.434 163.769 150.879C163.716 150.685 163.662 150.491 163.607 150.291C162.372 145.865 160.433 142.3 157.2 139.041C156.332 138.165 155.48 137.273 154.632 136.377C154.458 136.193 154.283 136.01 154.103 135.82C152.784 134.403 151.723 132.937 150.718 131.279C150.507 130.975 150.507 130.975 150.292 130.664C150.099 130.664 149.906 130.664 149.707 130.664Z" fill="black"/>
</svg>
