<svg width="300" height="300" viewBox="0 0 300 300" fill="none" xmlns="http://www.w3.org/2000/svg">
<path d="M212.324 73.3357C213.916 73.8133 215.295 74.7985 216.21 76.1715C216.664 78.759 215.808 80.4609 214.452 82.5985C210.197 89.738 208.574 97.2092 207.311 105.34C207.272 105.591 207.233 105.842 207.192 106.1C207.081 106.824 206.972 107.547 206.865 108.271C206.832 108.486 206.799 108.7 206.765 108.921C206.376 111.599 206.376 111.599 206.852 114.224C206.917 114.408 206.982 114.592 207.048 114.782C207.117 114.966 207.186 115.149 207.256 115.338C209.002 120.175 208.704 125.16 206.587 129.849C204.212 134.787 200.645 138.453 196.081 141.436C195.129 142.362 194.858 143.353 194.457 144.598C190.856 154.964 184.35 163.967 176.952 171.972C176.7 172.251 176.448 172.53 176.188 172.818C173.655 175.618 171.048 178.32 168.163 180.761C167.901 180.991 167.638 181.221 167.368 181.458C157.597 189.967 146.188 196.386 134.131 201.015C131.514 202.025 129.022 203.148 126.562 204.492C126.38 204.589 126.197 204.686 126.01 204.786C122.799 206.501 119.762 208.464 116.726 210.469C115.046 211.576 113.355 212.666 111.663 213.755C111.237 214.029 110.811 214.304 110.386 214.579C106.585 217.038 102.696 219.302 98.7295 221.484C98.3371 221.702 97.9448 221.92 97.5525 222.138C96.5028 222.72 95.4499 223.297 94.395 223.87C93.98 224.096 93.566 224.324 93.1529 224.554C92.5701 224.877 91.9843 225.194 91.3973 225.509C90.8909 225.786 90.8909 225.786 90.3743 226.068C88.8548 226.659 87.6076 226.694 86.0586 226.098C84.9264 225.378 84.2175 224.823 83.7881 223.535C83.4939 221.091 83.9504 219.629 85.3628 217.657C85.6897 217.17 86.0155 216.682 86.3401 216.193C86.5036 215.951 86.667 215.708 86.8354 215.458C90.8767 209.314 93.93 202.317 96.3858 195.41C96.4884 195.123 96.5911 194.836 96.6969 194.54C98.4357 189.581 99.3471 184.598 100.178 179.431C103.564 158.466 114.11 140.628 128.319 125.097C128.577 124.813 128.834 124.528 129.1 124.234C130.775 122.392 132.495 120.599 134.252 118.835C134.442 118.644 134.632 118.452 134.828 118.255C135.962 117.125 137.129 116.051 138.34 115.006C138.98 114.452 139.6 113.879 140.221 113.305C141.869 111.821 143.595 110.452 145.356 109.106C145.715 108.831 146.073 108.554 146.43 108.276C148.3 106.821 150.092 105.529 152.255 104.544C155.22 103.176 156.134 101.67 157.354 98.7167C159.371 94.3078 163.484 91.3675 167.87 89.6481C169.595 89.0637 171.258 88.9595 173.07 88.9706C173.329 88.971 173.587 88.9713 173.853 88.9717C175.59 88.9972 177.109 89.2533 178.779 89.7408C183.906 91.008 190.175 88.5627 194.568 86.0695C196.278 85.0062 197.897 83.8201 199.511 82.6168C199.672 82.4974 199.833 82.378 199.999 82.2549C203.273 79.8154 206.492 77.2363 209.31 74.2741C210.306 73.2957 210.953 73.1276 212.324 73.3357ZM211.23 77.0504C210.872 77.3777 210.515 77.705 210.158 78.0323C209.842 78.322 209.526 78.6115 209.21 78.9009C208.415 79.6289 207.621 80.3579 206.832 81.0913C204.736 83.0303 202.608 84.9196 200.39 86.7184C200.208 86.8655 200.027 87.0126 199.84 87.1641C195.47 90.6694 191.096 93.1079 185.448 93.7496C185.877 96.0598 185.877 96.0598 186.913 98.1442C188.611 99.2506 190.345 99.8024 192.283 100.352C194.186 100.938 195.673 101.815 196.724 103.552C196.804 103.779 196.884 104.007 196.966 104.242C197.057 104.492 197.148 104.742 197.241 105C197.452 105.732 197.569 106.437 197.68 107.19C197.834 107.963 197.919 108.292 198.53 108.802C199.764 109.444 201.096 109.82 202.44 110.156C202.752 108.348 203.046 106.539 203.299 104.721C204.281 97.6514 204.281 97.6514 205.37 94.3356C205.469 94.0307 205.469 94.0307 205.57 93.7197C207.15 88.9262 209.324 84.3237 212.044 80.0706C212.423 79.3524 212.575 78.729 212.694 77.9293C212.211 77.6393 211.728 77.3493 211.23 77.0504ZM162.304 98.7301C161.455 99.9586 160.702 101.244 159.96 102.539C160.902 103.167 161.332 103.222 162.432 103.344C165.406 103.809 168.057 105.121 169.921 107.519C172.521 111.135 173.93 114.994 174.89 119.318C174.938 119.527 174.986 119.737 175.035 119.952C175.127 120.356 175.213 120.761 175.295 121.166C175.613 122.572 176.137 123.31 177.245 124.218C178.109 124.506 178.892 124.592 179.794 124.671C185.22 125.171 189.652 127.814 193.305 131.836C194.451 133.261 195.103 134.804 195.702 136.523C199.407 134.671 201.902 130.309 203.339 126.56C204.331 123.379 204.763 119.353 203.394 116.203C202.262 114.722 200.1 114.253 198.412 113.672C196.779 113.084 195.585 112.6 194.792 110.944C194.348 109.771 193.996 108.58 193.654 107.373C193.508 106.865 193.508 106.865 193.358 106.347C193.274 106.033 193.189 105.719 193.102 105.395C192.713 104.444 192.517 104.17 191.601 103.711C190.735 103.506 189.864 103.386 188.982 103.271C187.395 103.064 186.213 102.876 184.862 101.953C184.669 101.953 184.476 101.953 184.276 101.953C183.886 101.189 183.532 100.421 183.203 99.6285C182.036 96.5778 182.036 96.5778 179.656 94.545C179.441 94.4759 179.225 94.4068 179.003 94.3356C178.754 94.2453 178.505 94.1551 178.249 94.0621C172.235 92.216 166.325 93.828 162.304 98.7301ZM157.616 117.48C157.268 117.771 156.919 118.062 156.57 118.353C152.359 121.891 148.452 125.739 144.561 129.62C144.381 129.799 144.202 129.977 144.017 130.162C141.44 132.728 141.44 132.728 139.008 135.431C138.269 136.291 137.484 137.108 136.706 137.933C135.344 139.388 134.048 140.875 132.802 142.432C132.023 143.391 131.216 144.323 130.407 145.257C128.667 147.276 127.006 149.346 125.39 151.464C125.153 151.773 125.153 151.773 124.911 152.088C118.065 161.048 110.727 172.351 110.155 183.984C110.818 183.375 111.219 182.83 111.596 182.016C111.701 181.795 111.806 181.574 111.915 181.347C112.029 181.105 112.143 180.864 112.261 180.615C115.042 174.913 118.355 169.426 122.167 164.355C122.296 164.183 122.425 164.01 122.558 163.832C124.019 161.884 125.537 159.983 127.088 158.107C127.516 157.588 127.94 157.066 128.361 156.541C129.976 154.531 131.693 152.639 133.454 150.758C134.107 150.055 134.745 149.339 135.387 148.626C136.82 147.062 138.303 145.551 139.8 144.049C140.129 143.718 140.129 143.718 140.465 143.38C141.672 142.176 142.906 141.022 144.198 139.909C144.907 139.296 145.594 138.66 146.282 138.025C147.325 137.072 148.383 136.16 149.486 135.278C151.047 134.019 152.506 132.668 153.961 131.289C154.858 130.44 155.763 129.608 156.7 128.801C163.886 122.731 163.886 122.731 167.815 114.495C167.866 113.471 167.802 112.618 167.577 111.621C163.787 111.382 160.335 115.181 157.616 117.48ZM169.536 130.609C168.262 132.224 167.14 133.93 166.013 135.649C162.835 140.474 159.141 144.889 155.369 149.254C155.037 149.639 154.709 150.027 154.382 150.416C153.578 151.364 152.774 152.196 151.812 152.984C150.635 153.983 149.742 155.145 148.823 156.373C146.416 159.579 143.701 162.51 140.955 165.425C140.253 166.171 139.57 166.929 138.903 167.706C138.077 168.666 137.195 169.555 136.284 170.434C135.744 170.991 135.241 171.558 134.736 172.146C133.409 173.675 131.972 175.089 130.535 176.513C130.13 176.917 130.13 176.917 129.716 177.328C129.056 177.985 128.395 178.641 127.733 179.297C130.468 179.297 133.723 175.927 135.937 174.316C136.259 174.083 136.259 174.083 136.587 173.845C140.941 170.693 145.181 167.432 149.12 163.769C149.486 163.434 149.851 163.099 150.216 162.764C152.71 160.466 155.061 158.091 157.323 155.566C157.544 155.331 157.764 155.095 157.992 154.853C160.095 152.594 161.927 150.129 163.769 147.656C163.926 147.446 164.083 147.236 164.245 147.019C166.912 143.443 169.327 139.727 171.679 135.937C171.84 135.678 172.002 135.419 172.168 135.152C172.623 134.42 173.076 133.686 173.528 132.953C173.664 132.733 173.799 132.514 173.939 132.288C175.015 130.525 175.259 129.46 175.194 127.441C174.89 127.075 174.89 127.075 174.228 127.078C172.262 127.252 170.747 129.185 169.536 130.609ZM151.464 109.863C151.024 110.169 150.582 110.473 150.14 110.775C146.571 113.248 143.301 116.022 140.102 118.953C139.452 119.531 139.452 119.531 138.637 120.155C138.423 120.335 138.208 120.516 137.987 120.703C137.987 120.896 137.987 121.089 137.987 121.289C137.794 121.289 137.601 121.289 137.401 121.289C137.401 121.482 137.401 121.675 137.401 121.875C137.238 121.94 137.074 122.005 136.906 122.071C136.016 122.583 135.465 123.231 134.783 123.999C134.497 124.317 134.212 124.636 133.926 124.954C133.776 125.121 133.627 125.288 133.473 125.461C132.843 126.158 132.199 126.841 131.554 127.525C129.805 129.387 128.153 131.301 126.562 133.3C126.285 133.638 126.009 133.975 125.732 134.312C123.61 136.907 121.667 139.584 119.823 142.382C119.665 142.621 119.508 142.859 119.345 143.104C111.924 154.357 106.261 166.432 104.335 179.858C102.317 193.87 96.6701 206.497 88.9711 218.295C88.8298 218.513 88.6884 218.731 88.5428 218.955C88.2873 219.346 88.0274 219.733 87.7624 220.117C87.3858 220.665 87.3858 220.665 87.0108 221.484C87.1039 222.191 87.1039 222.191 87.5967 222.656C88.0929 222.991 88.0929 222.991 88.7686 222.949C89.5026 222.656 90.162 222.348 90.856 221.978C91.1665 221.817 91.1665 221.817 91.4833 221.652C91.9232 221.422 92.362 221.189 92.7999 220.955C93.4172 220.626 94.0377 220.303 94.6589 219.981C100.699 216.79 106.277 212.69 111.849 208.759C117.966 204.445 124.133 200.997 131.014 198.039C141.823 193.391 152.266 188.249 161.425 180.761C161.698 180.544 161.97 180.327 162.251 180.103C163.959 178.731 165.588 177.291 167.193 175.8C167.87 175.195 167.87 175.195 168.749 174.609C168.749 174.416 168.749 174.222 168.749 174.023C168.913 173.954 169.078 173.886 169.247 173.815C171.249 172.693 172.848 170.571 174.329 168.834C174.772 168.315 175.222 167.802 175.675 167.292C182.203 159.893 191.195 148.234 191.82 137.951C191.694 136.028 190.626 134.909 189.269 133.645C188.786 133.223 188.297 132.816 187.792 132.422C186.297 134.485 184.822 136.558 183.416 138.684C175.952 149.953 167.863 161.619 157.03 169.922C156.698 170.191 156.367 170.462 156.036 170.733C153.334 172.943 150.536 174.982 147.655 176.953C147.428 177.109 147.201 177.265 146.967 177.426C141.541 181.145 135.926 184.579 130.187 187.793C126.782 189.7 123.543 191.864 120.298 194.03C118.184 195.41 118.184 195.41 117.48 195.41C118.582 192.983 121.463 191.541 123.632 190.155C123.882 189.993 124.133 189.831 124.391 189.665C125.782 188.768 127.178 187.88 128.576 186.993C137.997 181.008 147.289 174.748 155.858 167.578C156.136 167.355 156.413 167.132 156.698 166.903C159.25 164.819 161.57 162.507 163.897 160.18C164.063 160.014 164.23 159.848 164.401 159.677C166.206 157.871 167.979 156.052 169.628 154.101C169.913 153.774 170.198 153.446 170.484 153.119C179.304 143.475 179.304 143.475 183.855 131.707C183.663 130.487 183.502 129.961 182.519 129.199C180.492 129.096 179.049 129.946 177.538 131.25C176.039 132.772 174.99 134.526 173.913 136.358C169.543 143.653 164.791 150.714 159.081 157.031C158.929 157.201 158.777 157.371 158.621 157.546C156.732 159.658 154.785 161.625 152.636 163.476C152.308 163.764 151.979 164.052 151.652 164.34C147.327 168.13 142.879 171.743 138.28 175.195C138.061 175.361 137.841 175.527 137.614 175.698C133.052 179.144 128.378 182.39 123.313 185.058C121.037 186.272 119.577 187.715 118.157 189.843C116.816 191.799 115.397 193.627 113.841 195.416C113.131 196.236 112.446 197.072 111.767 197.918C110.558 199.404 109.278 200.81 107.976 202.212C107.358 202.883 106.757 203.562 106.164 204.254C103.189 207.682 103.189 207.682 101.952 208.3C103.209 202.408 106.076 198.453 110.104 194.067C111.007 193.064 111.853 192.018 112.702 190.968C113.395 190.116 114.099 189.274 114.806 188.433C115.713 187.351 116.593 186.257 117.452 185.136C119.234 182.819 121.186 180.703 123.2 178.585C123.714 178.037 124.207 177.471 124.694 176.898C125.739 175.675 126.895 174.562 128.053 173.447C128.445 173.064 128.823 172.666 129.198 172.265C129.198 172.072 129.198 171.879 129.198 171.679C129.392 171.679 129.585 171.679 129.784 171.679C130.214 171.255 130.214 171.255 130.663 170.691C132.181 168.906 133.864 167.293 135.531 165.651C136.846 164.348 138.113 163.03 139.318 161.625C139.825 161.041 140.361 160.497 140.917 159.961C141.833 159.057 142.685 158.12 143.523 157.144C144.171 156.41 144.837 155.696 145.507 154.982C147.039 153.35 148.511 151.698 149.911 149.95C150.69 148.991 151.497 148.059 152.306 147.125C153.633 145.589 154.905 144.019 156.149 142.416C157.018 141.298 157.911 140.206 158.825 139.123C160.395 137.252 161.847 135.302 163.295 133.337C164.865 131.21 166.446 129.1 168.145 127.075C168.273 126.921 168.4 126.767 168.532 126.609C169.312 125.693 170.149 124.96 171.093 124.218C171.453 123.498 171.425 123.008 171.422 122.204C171.424 121.825 171.424 121.825 171.425 121.437C171.389 120.759 171.283 120.18 171.093 119.531C167.528 119.87 164.889 123.318 162.63 125.822C160.973 127.659 159.256 129.427 157.382 131.043C156.131 132.129 154.968 133.29 153.808 134.472C152.481 135.825 151.133 137.118 149.697 138.355C148.728 139.214 147.828 140.14 146.923 141.064C145.84 142.169 144.755 143.251 143.582 144.26C142.235 145.423 140.981 146.67 139.727 147.931C139.503 148.153 139.279 148.376 139.049 148.605C137.821 149.835 136.641 151.087 135.514 152.41C135.041 152.948 134.544 153.453 134.032 153.955C132.945 155.028 131.95 156.164 130.956 157.324C130.69 157.63 130.424 157.935 130.158 158.241C122.226 167.38 115.836 177.373 110.718 188.343C110.58 188.636 110.442 188.93 110.301 189.232C110.18 189.492 110.06 189.752 109.936 190.019C109.016 191.782 109.016 191.782 108.05 192.114C107.874 192.138 107.699 192.162 107.519 192.187C107.637 191.649 107.76 191.112 107.885 190.576C107.953 190.277 108.021 189.978 108.091 189.669C108.343 188.848 108.591 188.318 109.013 187.593C109.803 186.071 109.673 184.599 109.606 182.922C109.596 182.29 109.587 181.657 109.581 181.025C109.578 180.723 109.574 180.422 109.571 180.112C109.551 169.093 117.282 158.164 123.632 149.707C123.759 149.536 123.886 149.366 124.017 149.19C127.051 145.134 130.284 141.24 133.76 137.556C134.32 136.958 134.87 136.351 135.421 135.743C137.497 133.457 139.625 131.24 141.973 129.231C142.959 128.362 143.914 127.461 144.872 126.562C146.362 125.166 147.86 123.787 149.413 122.461C149.726 122.191 150.039 121.921 150.352 121.65C151.922 120.296 153.497 118.951 155.108 117.645C156.991 116.115 158.817 114.52 160.644 112.924C161.065 112.558 161.488 112.194 161.912 111.831C162.12 111.653 162.328 111.475 162.542 111.291C162.713 111.145 162.884 111 163.06 110.849C163.742 110.192 164.054 109.734 164.098 108.783C164.08 108.447 164.08 108.447 164.062 108.105C159.337 106.53 155.374 106.933 151.464 109.863Z" fill="black"/>
<path d="M180.176 139.746C180.659 140.229 181.143 140.713 181.641 141.211C181.172 142.623 180.378 143.716 179.517 144.91C179.362 145.126 179.207 145.342 179.048 145.565C178.547 146.264 178.043 146.96 177.539 147.656C177.372 147.887 177.206 148.118 177.034 148.356C172.848 154.149 168.361 159.479 163.33 164.557C163.076 164.815 162.823 165.072 162.561 165.338C160.81 167.091 158.971 168.674 157.031 170.215C156.664 170.515 156.297 170.816 155.93 171.118C153.26 173.292 150.497 175.302 147.656 177.246C147.429 177.402 147.202 177.559 146.968 177.719C141.542 181.439 135.927 184.872 130.188 188.086C126.782 189.994 123.544 192.158 120.299 194.323C120.046 194.488 119.792 194.654 119.531 194.824C119.275 194.997 119.018 195.17 118.754 195.348C118.527 195.465 118.3 195.582 118.066 195.703C117.776 195.606 117.486 195.51 117.188 195.41C118.413 192.959 120.924 191.604 123.157 190.173C123.451 189.983 123.745 189.792 124.049 189.596C125.574 188.611 127.104 187.634 128.637 186.66C138.037 180.686 147.31 174.441 155.859 167.285C156.14 167.059 156.421 166.833 156.71 166.6C159.202 164.56 161.476 162.309 163.751 160.034C163.911 159.875 164.07 159.716 164.234 159.552C165.998 157.788 167.723 156.006 169.336 154.102C169.621 153.774 169.906 153.447 170.192 153.12C173.835 148.915 177.365 144.564 180.176 139.746Z" fill="black"/>
<path d="M167.871 167.285C167.812 169.999 166.033 171.828 164.17 173.636C161.746 175.912 159.125 177.919 156.445 179.883C156.242 180.034 156.038 180.184 155.828 180.34C152.852 182.536 149.773 184.47 146.539 186.265C145.969 186.582 145.403 186.905 144.838 187.23C139.616 190.146 133.945 192.201 128.357 194.293C128.13 194.379 127.903 194.464 127.669 194.553C127.021 194.796 126.372 195.037 125.723 195.276C125.431 195.386 125.431 195.386 125.134 195.498C124.167 195.85 123.509 195.996 122.461 195.996C122.461 195.803 122.461 195.609 122.461 195.41C126.232 191.924 131.79 189.999 136.414 187.921C145.112 184.009 153.234 179.318 160.547 173.145C161.071 172.717 161.596 172.289 162.122 171.863C163.025 171.125 163.921 170.381 164.809 169.625C165.07 169.403 165.07 169.403 165.337 169.176C165.679 168.883 166.021 168.591 166.362 168.297C167.546 167.285 167.546 167.285 167.871 167.285Z" fill="black"/>
</svg>
