<svg width="300" height="300" viewBox="0 0 300 300" fill="none" xmlns="http://www.w3.org/2000/svg">
<path d="M192.552 64.7648C194.747 66.3112 195.483 68.0064 195.994 70.6058C196.107 71.7387 196.12 72.8555 196.104 73.9933C196.101 74.2988 196.099 74.6043 196.096 74.9191C195.999 79.9682 194.759 84.461 193.09 89.1864C192.995 89.4603 192.9 89.7342 192.802 90.0164C192.615 90.5527 192.424 91.0877 192.229 91.621C191.707 93.118 191.419 94.2292 191.893 95.8011C192.415 96.5105 192.415 96.5105 193.101 97.1195C196.631 100.834 197.628 105.936 197.581 110.931C197.462 114.308 196.071 116.335 193.651 118.653C193.216 118.943 193.216 118.943 192.772 119.239C192.899 120.173 193.029 121.102 193.207 122.029C193.652 124.397 193.764 126.701 193.76 129.108C193.76 129.305 193.76 129.502 193.76 129.706C193.743 133.623 193.306 137.381 192.479 141.211C192.41 141.532 192.34 141.852 192.269 142.182C188.01 161.338 178.932 179.703 166.404 194.825C166.258 195.002 166.112 195.18 165.962 195.363C164.248 197.436 162.449 199.428 160.618 201.398C160.442 201.589 160.266 201.779 160.084 201.976C159.003 203.126 157.874 204.184 156.676 205.211C156.056 205.746 155.464 206.31 154.869 206.873C149.98 211.268 144.249 214.715 138.279 217.411C134.711 219.026 131.902 220.908 129.033 223.59C122.681 229.498 113.817 235.612 104.834 235.703C103.787 235.507 103.291 235.117 102.537 234.375C101.072 229.979 103.84 225.186 105.716 221.333C108.339 215.922 109.157 210.891 108.397 204.974C108.063 202.162 107.999 199.376 108.012 196.546C108.013 196.296 108.014 196.047 108.014 195.79C108.033 191.699 108.24 187.723 108.983 183.692C109.052 183.313 109.121 182.935 109.192 182.545C110.19 177.175 111.393 171.898 113.084 166.7C113.191 166.368 113.298 166.036 113.408 165.694C115.059 160.614 116.98 155.72 119.237 150.879C119.373 150.584 119.51 150.288 119.651 149.983C122.916 142.938 126.561 136.087 130.662 129.493C130.808 129.257 130.953 129.022 131.103 128.78C134.928 122.603 138.921 116.426 143.996 111.193C144.429 110.746 144.854 110.293 145.28 109.838C148.101 106.873 151.324 104.399 154.979 102.539C154.937 102.247 154.937 102.247 154.894 101.948C154.501 98.6781 154.948 95.8675 156.862 93.1575C159.965 89.2835 164.458 88.1881 169.169 87.6163C171.949 87.2442 174.425 86.8167 176.951 85.5472C177.163 85.4604 177.375 85.3735 177.593 85.284C178.265 84.8747 178.397 84.5033 178.709 83.7894C179.136 83.1677 179.574 82.5561 180.017 81.9458C181.225 79.8156 181.514 77.5859 181.767 75.1835C182.192 71.6484 182.673 68.6785 185.447 66.2113C187.658 64.5818 189.852 63.8819 192.552 64.7648ZM188.479 68.2954C186.752 70.7122 185.943 73.4442 185.283 76.3004C184.126 81.2114 182.738 86.0244 178.416 89.0629C176.415 90.2252 174.833 90.867 172.509 90.8287C172.156 90.8251 171.803 90.8215 171.439 90.8178C170.702 90.8076 169.965 90.7962 169.228 90.7835C165.897 90.7534 162.893 90.8843 160.388 93.3063C158.348 95.6143 158.339 98.4275 158.494 101.368C158.782 101.721 158.782 101.721 159.329 101.689C160.23 101.675 160.23 101.675 161.131 101.661C161.211 101.184 161.211 101.184 161.292 100.697C161.367 100.273 161.441 99.85 161.516 99.4266C161.55 99.2178 161.585 99.0089 161.62 98.7938C161.898 97.2413 162.243 95.8403 163.415 94.7059C164.216 94.2474 165.012 93.9727 165.892 93.6954C166.208 93.5946 166.523 93.4938 166.849 93.3899C167.089 93.3155 167.329 93.2411 167.576 93.1644C167.576 93.3578 167.576 93.5511 167.576 93.7504C167.365 93.8168 167.153 93.8833 166.935 93.9518C164.953 94.8771 164.192 96.4788 163.475 98.4379C163.058 99.8955 162.993 101.388 163.475 102.832C163.889 103.098 164.303 103.364 164.72 103.624C165.963 104.545 166.941 105.852 167.814 107.117C169.293 108.723 171.281 109.799 173.464 109.91C173.813 109.915 174.162 109.92 174.522 109.925C174.905 109.934 175.289 109.942 175.684 109.951C176.289 109.963 176.895 109.973 177.5 109.981C182.295 110.048 182.295 110.048 183.984 111.562C184.134 111.751 184.285 111.94 184.44 112.134C184.609 112.339 184.778 112.544 184.952 112.754C185.197 113.064 185.197 113.064 185.447 113.379C186.75 115.141 186.75 115.141 188.67 116.016C190.243 116.116 191.346 115.831 192.589 114.844C194.283 113.177 194.569 111.468 194.621 109.15C194.531 105.907 194.01 102.786 191.567 100.463C191.062 100 190.552 99.5483 190.028 99.1075C188.968 98.2041 188.273 97.4394 187.791 96.0941C187.693 94.5735 187.917 93.4605 188.455 92.0417C188.596 91.6615 188.737 91.2812 188.878 90.9008C188.952 90.7051 189.026 90.5094 189.102 90.3078C191.434 84.1113 194.552 75.364 191.634 68.8572C191.233 68.1882 190.818 67.7359 190.153 67.3282C189.367 67.3997 188.998 67.7159 188.479 68.2954ZM149.559 110.175C147.68 112.091 146.025 114.153 144.432 116.309C144.279 116.515 144.127 116.721 143.969 116.933C128.064 138.493 115.987 164.408 113.076 198.978C113.08 199.705 113.083 200.432 113.087 201.159C113.094 202.286 113.102 203.412 113.112 204.538C113.196 214.785 113.196 214.785 111.729 219.397C111.655 219.639 111.581 219.881 111.504 220.13C110.801 222.334 109.887 224.426 108.905 226.518C108.466 227.457 108.116 228.403 107.811 229.395C114.896 228.349 120.774 224.451 126.268 220.093C130.272 216.964 134.735 214.454 139.122 211.908C142.156 210.147 145.124 208.34 147.947 206.25C148.11 206.131 148.272 206.012 148.44 205.889C153.929 201.833 159.014 197.277 163.107 191.795C163.46 191.328 163.825 190.87 164.19 190.412C167.898 185.746 170.8 180.699 173.478 175.386C174.176 174 174.886 172.619 175.599 171.241C175.763 170.923 175.763 170.923 175.93 170.599C176.151 170.173 176.371 169.747 176.591 169.321C183.598 155.771 189.889 142.404 189.897 126.838C189.9 126.457 189.904 126.077 189.908 125.686C189.911 123.561 189.79 121.592 189.256 119.532C189.084 119.482 188.911 119.433 188.734 119.382C185.839 118.531 183.731 117.157 181.841 114.802C181.238 114.14 180.758 113.988 179.872 113.919C179.647 113.914 179.422 113.909 179.19 113.903C172.14 113.689 168.22 112.558 163.182 107.52C158.749 103.333 153.173 106.61 149.559 110.175Z" fill="black"/>
<path d="M157.322 111.328C157.612 111.473 157.612 111.473 157.908 111.621C157.65 111.87 157.391 112.118 157.124 112.374C154.874 114.563 152.845 116.813 150.962 119.324C150.588 119.819 150.209 120.307 149.827 120.795C148.138 122.952 146.541 125.164 145.018 127.441C144.898 127.619 144.779 127.797 144.656 127.981C129.662 150.408 120.298 175.08 118.283 201.979C118.069 204.813 117.806 207.589 117.204 210.37C117.135 210.692 117.135 210.692 117.064 211.021C116.786 212.199 116.449 213.185 115.721 214.16C115.528 214.16 115.334 214.16 115.135 214.16C114.809 193.62 118.133 174.481 127.147 155.859C127.251 155.642 127.356 155.425 127.464 155.201C128.009 154.077 128.57 152.962 129.142 151.852C129.562 151.032 129.976 150.209 130.391 149.387C132.731 144.779 135.252 140.323 137.987 135.938C138.181 135.625 138.375 135.313 138.575 134.992C141.735 129.937 145.031 125.013 148.826 120.41C149.026 120.16 149.225 119.91 149.431 119.653C151.822 116.671 154.342 113.739 157.322 111.328Z" fill="black"/>
<path d="M184.863 124.512C185.153 124.657 185.153 124.657 185.449 124.805C185.605 130.498 185.359 135.89 184.277 141.504C184.221 141.805 184.164 142.107 184.106 142.418C180.52 160.994 171.784 180.194 158.867 194.107C158.289 194.732 157.731 195.367 157.178 196.014C155.231 198.243 153.126 200.242 150.813 202.085C150.277 202.513 149.747 202.949 149.224 203.392C147.155 205.143 144.974 206.584 142.676 208.008C142.443 208.164 142.21 208.321 141.97 208.482C138.257 210.905 132.817 213.295 128.32 212.988C128.32 212.795 128.32 212.602 128.32 212.402C129.982 211.068 132.041 210.28 133.978 209.436C138.944 207.256 143.584 204.481 147.949 201.27C148.123 201.142 148.297 201.014 148.476 200.882C152.441 197.933 156.068 194.649 159.082 190.723C159.454 190.271 159.827 189.819 160.199 189.368C163.125 185.683 165.654 181.771 168.018 177.708C168.454 176.958 168.895 176.209 169.336 175.461C178.429 159.908 184.571 142.647 184.863 124.512Z" fill="black"/>
<path d="M152.637 126.27C152.782 126.56 152.782 126.56 152.93 126.855C152.621 127.448 152.621 127.448 152.132 128.181C151.952 128.453 151.772 128.725 151.587 129.005C151.39 129.298 151.193 129.592 150.989 129.895C150.58 130.514 150.172 131.133 149.763 131.751C149.354 132.366 148.945 132.98 148.536 133.594C144.966 138.951 141.668 144.443 138.879 150.251C138.543 150.945 138.197 151.635 137.85 152.324C130.724 166.671 126.078 182.326 122.637 197.927C122.462 198.633 122.462 198.633 122.169 199.219C121.975 199.219 121.782 199.219 121.583 199.219C120.789 185.892 126.436 170.388 132.13 158.496C132.331 158.069 132.331 158.069 132.536 157.633C134.842 152.762 137.52 148.145 140.333 143.555C140.493 143.292 140.653 143.03 140.818 142.759C144.341 137.008 148.164 131.331 152.637 126.27Z" fill="black"/>
<path d="M179.297 138.867C179.394 138.867 179.49 138.867 179.59 138.867C179.461 141.117 179.078 143.156 178.436 145.312C178.25 145.955 178.063 146.598 177.877 147.241C177.725 147.76 177.725 147.76 177.57 148.29C177.22 149.505 176.885 150.724 176.551 151.944C175.216 156.809 173.773 161.51 171.68 166.113C171.477 166.573 171.275 167.033 171.073 167.493C166.883 176.836 160.898 185.171 154.102 192.773C153.923 192.974 153.745 193.175 153.561 193.381C146.313 201.476 146.313 201.476 141.504 201.855C142.356 200.941 143.228 200.299 144.287 199.64C146.479 198.209 148.416 196.49 150.209 194.583C150.586 194.238 150.586 194.238 151.172 194.238C151.25 194.063 151.328 193.889 151.409 193.708C151.765 193.053 152.11 192.673 152.655 192.169C158.127 186.833 162.219 179.825 165.82 173.145C165.955 172.897 166.089 172.649 166.228 172.394C170.261 164.932 173.168 157.285 175.834 149.256C176.232 148.06 176.633 146.865 177.033 145.67C177.791 143.403 178.546 141.136 179.297 138.867Z" fill="black"/>
<path d="M184.863 124.512C185.057 124.608 185.25 124.705 185.449 124.805C185.605 130.498 185.359 135.89 184.277 141.504C184.221 141.805 184.164 142.107 184.106 142.418C182.001 153.319 178.021 168.332 170.801 176.953C170.801 176.663 170.801 176.373 170.801 176.074C170.414 176.074 170.027 176.074 169.629 176.074C169.807 174.782 170.314 173.752 170.927 172.619C171.136 172.223 171.346 171.827 171.555 171.43C171.665 171.223 171.775 171.016 171.888 170.803C174.22 166.403 176.316 161.968 178.125 157.324C178.241 157.029 178.357 156.733 178.477 156.429C181.267 149.247 183.264 141.821 184.277 134.18C184.306 133.965 184.335 133.75 184.364 133.529C184.596 131.646 184.665 129.758 184.735 127.863C184.754 127.377 184.754 127.377 184.773 126.882C184.804 126.092 184.834 125.302 184.863 124.512Z" fill="black"/>
<path d="M157.324 111.328C157.614 111.473 157.614 111.473 157.91 111.621C157.651 111.87 157.393 112.118 157.126 112.374C154.876 114.563 152.846 116.813 150.963 119.324C150.59 119.819 150.211 120.307 149.828 120.795C148.139 122.952 146.543 125.164 145.02 127.441C144.9 127.619 144.78 127.797 144.657 127.981C140.213 134.628 136.249 141.657 132.715 148.828C132.328 148.441 131.941 148.055 131.543 147.656C131.907 146.47 132.341 145.443 132.97 144.374C133.137 144.09 133.303 143.805 133.475 143.512C133.742 143.062 133.742 143.062 134.015 142.603C134.2 142.289 134.384 141.976 134.575 141.653C135.124 140.723 135.677 139.795 136.23 138.867C136.376 138.622 136.522 138.376 136.672 138.123C140.332 131.979 144.289 125.944 148.828 120.41C149.129 120.033 149.129 120.033 149.436 119.648C151.827 116.669 154.345 113.738 157.324 111.328Z" fill="black"/>
<path d="M184.863 124.512C185.057 124.608 185.25 124.705 185.449 124.805C185.75 135.811 183.714 146.024 180.176 156.445C179.789 156.155 179.402 155.865 179.004 155.566C179.475 153.992 179.949 152.418 180.43 150.847C183.092 142.082 184.643 133.683 184.863 124.512Z" fill="black"/>
<path d="M152.637 126.27C152.782 126.56 152.782 126.56 152.93 126.855C152.62 127.448 152.62 127.448 152.131 128.181C151.951 128.453 151.771 128.725 151.586 129.006C151.389 129.299 151.192 129.593 150.989 129.895C150.583 130.508 150.178 131.12 149.772 131.733C149.462 132.198 149.462 132.198 149.146 132.673C148.233 134.049 147.33 135.432 146.429 136.816C146.275 137.052 146.12 137.288 145.961 137.531C145.112 138.832 144.311 140.146 143.555 141.504C143.361 141.311 143.168 141.117 142.969 140.918C142.534 141.063 142.534 141.063 142.09 141.211C142.556 139.832 143.311 138.746 144.141 137.567C144.284 137.361 144.428 137.155 144.576 136.943C145.015 136.314 145.457 135.686 145.898 135.059C146.149 134.7 146.399 134.342 146.649 133.984C150.732 128.174 150.732 128.174 152.637 126.27Z" fill="black"/>
<path d="M157.324 111.328C157.518 111.425 157.711 111.521 157.91 111.621C157.651 111.87 157.393 112.118 157.126 112.374C154.876 114.563 152.846 116.813 150.963 119.324C150.59 119.819 150.211 120.307 149.828 120.795C147.57 123.679 145.458 126.653 143.555 129.785C143.41 129.35 143.41 129.35 143.262 128.906C143.068 128.81 142.875 128.713 142.676 128.613C144.665 125.827 146.649 123.052 148.828 120.41C149.028 120.16 149.227 119.91 149.432 119.653C151.824 116.671 154.344 113.739 157.324 111.328Z" fill="black"/>
<path d="M167.578 93.1641C167.578 93.3574 167.578 93.5508 167.578 93.75C167.276 93.8708 166.974 93.9917 166.663 94.1162C165.028 95.0546 164.407 96.7365 163.77 98.4375C163.499 99.5069 163.309 100.565 163.184 101.66C163.087 101.37 162.99 101.08 162.891 100.781C162.504 101.071 162.117 101.361 161.719 101.66C161.525 101.563 161.332 101.467 161.133 101.367C161.395 96.5283 161.395 96.5283 163.055 94.6655C164.297 93.7619 166.04 93.1641 167.578 93.1641Z" fill="black"/>
<path d="M142.969 140.332C143.366 141.524 143.144 142.029 142.595 143.138C142.441 143.417 142.287 143.696 142.128 143.984C141.959 144.291 141.791 144.598 141.618 144.914C141.441 145.233 141.265 145.552 141.083 145.88C140.735 146.511 140.387 147.142 140.04 147.774C139.886 148.054 139.731 148.333 139.572 148.621C139.188 149.361 138.869 150.1 138.574 150.879C138.381 150.686 138.188 150.492 137.988 150.293C137.988 150.003 137.988 149.713 137.988 149.414C137.408 149.704 137.408 149.704 136.816 150C137.446 148.328 138.347 146.848 139.252 145.312C139.418 145.024 139.585 144.735 139.757 144.438C140.611 142.987 141.405 141.736 142.676 140.625C142.772 140.528 142.869 140.432 142.969 140.332Z" fill="black"/>
<path d="M190.723 105.176C191.775 106.126 192.109 106.725 192.247 108.118C192.288 110 192.096 111.953 190.759 113.379C189.825 113.819 189.146 114.12 188.123 113.785C187.615 113.569 187.117 113.329 186.621 113.086C186.995 112.338 187.247 112.349 188.013 112.061C189.358 111.405 189.879 110.57 190.479 109.224C190.879 107.871 190.842 106.571 190.723 105.176Z" fill="black"/>
</svg>
