<svg width="300" height="300" viewBox="0 0 300 300" fill="none" xmlns="http://www.w3.org/2000/svg">
<path d="M205.922 81.6835C208.773 83.3049 212.37 85.7724 213.869 88.7697C214.394 95.1374 212.07 100.55 208.522 105.725C206.688 108.404 205.605 110.634 205.959 113.965C206.046 114.346 206.143 114.725 206.252 115.1C206.957 117.612 206.84 120.139 205.58 122.434C205.005 123.139 204.504 123.376 203.688 123.761C202.959 124.134 202.959 124.134 202.443 124.805C202.126 126.14 202.204 127.534 202.194 128.898C202.111 135.432 198.469 141.289 193.957 145.755C192.358 147.266 190.615 148.375 188.673 149.414C188.243 149.645 188.243 149.645 187.804 149.881C185.874 150.879 185.874 150.879 185.158 150.879C185.079 151.094 185 151.309 184.918 151.531C184.584 152.316 184.21 152.939 183.72 153.635C183.552 153.875 183.384 154.115 183.211 154.362C183.032 154.615 182.852 154.867 182.668 155.127C182.482 155.389 182.297 155.652 182.106 155.922C180.635 157.993 179.125 160.025 177.541 162.012C177.395 162.196 177.249 162.38 177.098 162.57C175.234 164.914 173.33 167.197 171.281 169.382C170.707 170.001 170.157 170.626 169.609 171.267C168.284 172.787 166.857 174.205 165.429 175.627C164.962 176.092 164.497 176.558 164.033 177.025C162.433 178.625 160.807 180.173 159.084 181.641C158.755 181.933 158.427 182.226 158.099 182.52C147.866 191.614 135.999 198.569 122.831 202.398C120.426 203.098 118.069 203.907 115.724 204.785C115.412 204.902 115.1 205.019 114.778 205.139C110.724 206.74 107.235 209.136 103.727 211.676C103.165 212.082 102.599 212.484 102.033 212.883C100.494 213.97 98.9779 215.068 97.5041 216.241C95.5215 217.813 93.7587 219.062 91.116 218.928C89.0234 218.642 87.8848 217.824 86.5293 216.221C85.3673 214.467 85.6905 212.104 86.0314 210.132C86.8794 206.21 88.7055 202.83 90.5542 199.303C92.3765 195.821 94.1412 192.361 95.5094 188.672C95.5925 188.45 95.6756 188.228 95.7612 187.999C97.2431 183.943 98.1432 179.758 99.0687 175.549C101.291 165.449 104.788 156.024 111.037 147.656C111.223 147.406 111.409 147.156 111.601 146.898C112.086 146.263 112.584 145.64 113.088 145.02C113.285 144.772 113.482 144.524 113.685 144.269C117.355 139.704 121.452 135.203 126.071 131.58C126.793 131.008 127.489 130.413 128.183 129.808C131.041 127.327 134.146 125.198 137.307 123.124C139.787 121.497 142.162 119.746 144.484 117.901C144.822 117.637 145.166 117.379 145.518 117.133C146.901 116.121 147.314 114.966 147.878 113.416C150.467 106.825 155.145 101.536 161.635 98.6029C165.558 96.9209 169.233 96.8565 173.439 96.9728C173.551 96.5718 173.551 96.5718 173.666 96.1626C174.033 95.1952 174.318 94.7841 175.087 94.1164C175.272 93.9487 175.457 93.781 175.648 93.6083C177.879 92.234 180.234 92.5965 182.724 92.8158C186.232 93.058 188.472 92.0199 191.15 89.7561C192.737 88.3529 194.186 86.8031 195.647 85.272C198.541 82.251 201.536 79.707 205.922 81.6835ZM196.063 90.8176C193.275 93.7473 189.915 96.9399 185.675 97.3253C184.344 97.3529 183.042 97.199 181.722 97.0415C181.023 96.9694 180.331 96.9223 179.628 96.8996C179.417 96.892 179.207 96.8845 178.99 96.8767C178.392 96.9359 178.392 96.9359 177.886 97.3436C177.483 97.8297 177.483 97.8297 177.56 98.4343C177.911 99.1899 178.31 99.4752 178.987 99.9575C180.549 101.117 181.969 102.396 183.4 103.711C183.802 104.078 183.802 104.078 184.213 104.452C186.787 106.802 189.332 109.185 191.878 111.566C192.439 112.091 193.001 112.616 193.562 113.141C193.744 113.311 193.925 113.48 194.112 113.655C194.973 114.459 195.837 115.259 196.711 116.049C196.869 116.192 197.027 116.335 197.19 116.483C197.613 116.865 198.038 117.246 198.463 117.627C199.278 118.415 199.975 119.235 200.685 120.117C201.169 120.021 201.652 119.924 202.15 119.824C202.498 118.433 202.414 117.509 202.022 116.126C200.98 112.224 201.646 108.765 203.456 105.218C204.004 104.285 204.6 103.394 205.217 102.505C207.586 99.0642 209.842 94.9222 209.742 90.6202C209.407 89.4037 208.974 89.0436 207.973 88.2936C207.681 88.0723 207.389 87.851 207.088 87.623C206.674 87.3205 206.674 87.3205 206.252 87.0119C205.951 86.7728 205.951 86.7728 205.644 86.529C201.705 83.466 198.687 88.0491 196.063 90.8176ZM155.918 108.149C154.129 110.331 152.944 112.605 151.985 115.254C151.862 115.59 151.739 115.926 151.613 116.272C151.454 116.733 151.454 116.733 151.293 117.204C150.478 118.911 148.892 120.004 147.438 121.161C147.247 121.313 147.056 121.466 146.859 121.622C144.207 123.713 141.429 125.626 138.632 127.517C133.269 131.146 128.136 135.07 123.634 139.746C122.17 141.211 122.17 141.211 121.609 141.741C119.788 143.494 118.244 145.396 116.722 147.406C116.319 147.938 115.911 148.466 115.502 148.994C109.26 157.171 104.944 167.033 103.172 177.167C101.571 186.315 98.2761 195.304 93.5685 203.321C92.5782 205.022 91.7903 206.752 91.0966 208.594C91.0089 208.822 90.9213 209.049 90.8309 209.284C90.295 210.775 90.1266 211.99 90.236 213.574C90.3327 213.768 90.4294 213.961 90.529 214.16C92.3176 214.286 93.4774 214.113 94.9235 212.988C95.3849 212.565 95.8421 212.137 96.2968 211.707C101.117 207.218 107.004 203.734 113.088 201.27C113.332 201.169 113.577 201.067 113.829 200.963C117.066 199.627 120.312 198.455 123.671 197.461C127.107 196.439 130.352 195.174 133.595 193.653C133.841 193.539 134.086 193.425 134.339 193.307C139.662 190.81 144.523 187.726 149.159 184.118C149.7 183.698 150.244 183.283 150.788 182.868C152.771 181.345 154.65 179.75 156.472 178.038C157.096 177.46 157.724 176.904 158.371 176.353C159.938 174.987 161.397 173.512 162.863 172.04C163.349 171.553 163.837 171.067 164.324 170.581C165.959 168.947 167.555 167.296 169.045 165.528C169.312 165.218 169.579 164.909 169.847 164.599C172.388 161.619 174.761 158.532 177.065 155.365C177.305 155.035 177.305 155.035 177.551 154.698C178.383 153.543 179.181 152.376 179.937 151.169C180.164 150.811 180.164 150.811 180.396 150.446C180.681 149.992 180.96 149.535 181.233 149.074C182.275 147.42 183.341 146.837 185.158 146.192C190.969 143.607 194.609 139.437 196.877 133.594C197.921 130.614 198.833 126.064 197.534 123.052C195.703 120.082 192.694 117.767 190.138 115.43C189.828 115.145 189.518 114.86 189.208 114.575C188.635 114.049 188.061 113.523 187.487 112.998C186.581 112.169 185.676 111.337 184.773 110.504C184.617 110.36 184.46 110.216 184.299 110.068C183.432 109.269 182.573 108.464 181.72 107.65C176.299 102.492 176.299 102.492 169.168 101.276C163.957 101.493 159.29 104.244 155.918 108.149Z" fill="black"/>
</svg>
