<svg width="300" height="300" viewBox="0 0 300 300" fill="none" xmlns="http://www.w3.org/2000/svg">
<path d="M160.877 57.3305C166.513 62.0387 170.314 70.0587 171.095 77.3439C171.283 80.7716 170.873 83.998 170.285 87.3684C170.14 88.1995 170 89.0314 169.861 89.8636C169.466 92.2189 169.058 94.5713 168.626 96.9202C168.569 97.2404 168.511 97.5607 168.452 97.8906C168.35 98.4508 168.245 99.0101 168.133 99.5683C167.842 101.173 167.728 102.787 168.458 104.297C169.534 104.978 170.31 104.962 171.541 104.778C176.199 103.573 179.462 98.5413 182.123 94.8771C185.994 89.6021 190.691 86.1164 197.155 84.7826C200.022 84.415 203.138 84.2349 205.665 85.84C208.717 88.7592 209.696 93.7115 209.826 97.7785C209.935 105.113 208.169 112.083 203.321 117.774C203.061 118.098 203.061 118.098 202.795 118.428C198.132 124.016 191.151 126.28 184.529 128.65C179.497 130.459 174.51 132.265 170.509 135.938C170.296 136.131 170.083 136.324 169.863 136.522C168.17 138.131 166.793 139.74 166.407 142.09C175.458 144.464 184.61 141.423 192.505 137.169C198.528 133.932 205.677 130.56 212.698 132.019C215.113 132.846 216.75 134.58 217.933 136.798C219.778 140.873 219.353 145 217.95 149.172C215.686 154.94 211.452 159.939 205.752 162.514C202.411 163.816 198.983 163.889 195.449 163.845C194.644 163.835 193.84 163.83 193.035 163.827C191.613 163.82 190.191 163.809 188.769 163.796C186.5 163.775 184.231 163.759 181.963 163.748C181.182 163.744 180.402 163.735 179.622 163.726C177.037 163.705 174.483 163.787 171.908 164.023C171.659 164.045 171.41 164.068 171.153 164.091C167.816 164.43 164.283 165.29 161.72 167.578C161.082 168.534 161.051 168.819 161.134 169.922C161.23 170.212 161.327 170.502 161.427 170.801C162.047 171.128 162.047 171.128 162.891 171.387C163.165 171.488 163.165 171.488 163.445 171.592C165.159 172.206 166.823 172.51 168.627 172.724C169.065 172.778 169.065 172.778 169.511 172.833C173.032 173.258 176.567 173.527 180.103 173.798C183.118 174.031 186.117 174.286 189.105 174.751C189.326 174.786 189.546 174.82 189.774 174.855C193.565 175.482 196.855 176.781 199.311 179.846C201.587 183.125 202.194 186.784 201.856 190.723C201.265 193.867 199.987 196.256 197.388 198.157C193.958 200.215 189.577 200.409 185.711 199.619C183.836 199.15 181.991 198.582 180.145 198.011C175.919 196.73 170.978 195.477 166.752 197.355C164.028 199.061 162.737 201.552 161.946 204.603C160.538 210.763 160.127 217.233 159.962 223.535C159.944 224.08 159.944 224.08 159.925 224.636C159.83 230.115 160.265 235.743 160.981 241.173C161.142 242.485 161.19 243.641 160.841 244.922C159.331 246.105 157.179 246.713 155.274 246.68C154.345 246.022 154.119 245.573 153.827 244.465C153.76 244.033 153.7 243.599 153.645 243.165C153.61 242.924 153.576 242.682 153.54 242.433C153.051 238.874 152.701 235.295 152.345 231.72C152.287 231.15 152.287 231.15 152.229 230.568C151.169 220.002 150.494 209.458 150.098 198.847C150.088 198.58 150.078 198.312 150.068 198.037C150.026 196.868 149.988 195.702 150.001 194.531C152.163 193.385 154.368 192.476 156.666 191.638C157.013 191.511 157.36 191.384 157.717 191.254C163.279 189.236 168.844 187.648 174.61 186.328C175.492 186.125 176.373 185.92 177.254 185.714C177.784 185.59 178.314 185.467 178.845 185.346C179.199 185.264 179.199 185.264 179.56 185.179C179.765 185.132 179.97 185.085 180.181 185.037C180.81 184.849 181.356 184.587 181.934 184.278C181.838 183.987 181.741 183.697 181.641 183.399C172.445 181.217 161.304 185.312 152.767 188.663C151.895 189.005 151.24 189.258 150.294 189.258C150.274 185.592 150.325 181.929 150.403 178.264C150.422 177.363 150.439 176.463 150.457 175.563C150.493 173.78 150.537 171.997 150.587 170.215C150.595 169.901 150.604 169.588 150.613 169.265C150.641 168.334 150.673 167.403 150.707 166.473C150.72 166.047 150.72 166.047 150.732 165.612C150.743 165.349 150.753 165.085 150.764 164.814C150.776 164.468 150.776 164.468 150.789 164.115C150.89 163.402 151.092 162.918 151.466 162.305C151.975 161.994 151.975 161.994 152.603 161.76C152.843 161.67 153.083 161.58 153.331 161.488C153.597 161.395 153.864 161.302 154.139 161.206C154.567 161.056 154.567 161.056 155.003 160.902C162.853 158.232 170.932 156.933 179.102 155.686C181.311 155.348 183.518 155.003 185.725 154.651C185.95 154.615 186.175 154.579 186.407 154.542C192.188 153.87 192.188 153.87 197.462 151.758C197.558 151.468 197.655 151.178 197.755 150.879C183.211 148.508 167.888 152.816 154.288 157.634C153.354 157.964 152.429 158.266 151.466 158.496C151.649 154.052 151.934 149.62 152.265 145.185C152.346 144.107 152.424 143.028 152.502 141.95C152.553 141.261 152.605 140.572 152.656 139.882C152.691 139.401 152.691 139.401 152.726 138.911C152.749 138.614 152.771 138.317 152.794 138.011C152.814 137.751 152.833 137.491 152.853 137.224C152.926 136.562 152.995 135.977 153.223 135.352C153.886 134.996 154.503 134.722 155.201 134.455C159.433 132.718 163.48 130.537 167.333 128.075C167.97 127.673 168.612 127.28 169.254 126.888C180.005 120.346 180.005 120.346 189.552 112.207C189.69 112.068 189.829 111.928 189.971 111.785C191.985 109.733 194.009 107.582 194.239 104.59C190.887 105.998 188.155 108.662 185.415 111.001C183.614 112.533 181.759 113.99 179.884 115.43C179.662 115.601 179.44 115.772 179.211 115.948C161.189 129.785 161.189 129.785 154.102 129.785C154.327 125.951 154.691 122.133 155.061 118.31C155.618 112.527 155.93 106.812 155.933 101.001C155.934 100.692 155.934 100.383 155.934 100.064C155.997 86.6929 155.997 86.6929 152.052 74.1213C151.858 74.0246 151.665 73.9279 151.466 73.8283C150.139 76.4808 151.318 81.6473 151.485 84.5081C152.217 97.0396 152.593 109.649 151.466 122.168C151.436 122.503 151.436 122.503 151.405 122.844C151.113 126.11 150.789 129.373 150.452 132.635C150.317 133.95 150.186 135.266 150.056 136.582C149.954 137.616 149.85 138.649 149.746 139.683C149.696 140.173 149.648 140.663 149.6 141.154C149.534 141.831 149.464 142.508 149.394 143.185C149.336 143.761 149.336 143.761 149.277 144.348C149.14 145.198 148.979 145.757 148.536 146.485C146.61 145.141 144.803 143.738 143.078 142.143C142.224 141.357 141.34 140.611 140.45 139.866C140.04 139.453 140.04 139.453 140.04 138.867C139.75 138.771 139.46 138.674 139.161 138.574C138.73 138.146 138.73 138.146 138.264 137.586C137.424 136.594 136.563 135.629 135.682 134.674C134.241 133.091 132.876 131.461 131.544 129.785C131.399 129.605 131.254 129.424 131.105 129.238C127.533 124.774 124.208 120.124 121.171 115.28C119.769 113.092 118.36 111.374 116.016 110.156C115.823 110.156 115.63 110.156 115.43 110.156C115.43 112.715 116.559 114.698 117.748 116.891C118.04 117.431 118.325 117.975 118.61 118.52C120.186 121.43 122.157 123.984 124.22 126.563C124.456 126.859 124.693 127.156 124.937 127.461C126.228 129.053 127.553 130.615 128.881 132.175C129.745 133.193 130.594 134.222 131.434 135.26C132.481 136.547 133.575 137.779 134.693 139.004C135.378 139.776 136.025 140.57 136.671 141.376C137.713 142.665 138.821 143.834 140.009 144.989C140.572 145.552 141.085 146.131 141.596 146.741C142.487 147.777 143.45 148.709 144.453 149.634C144.67 149.836 144.67 149.836 144.892 150.042C145.644 150.726 146.239 151.192 147.18 151.598C147.95 152.344 147.95 152.344 148.034 153.146C148.024 153.639 148.024 153.639 148.014 154.142C148.006 154.511 147.999 154.881 147.992 155.262C147.926 157.255 147.822 159.246 147.704 161.237C147.678 161.682 147.653 162.128 147.627 162.573C147.574 163.496 147.52 164.42 147.465 165.343C147.395 166.527 147.328 167.71 147.261 168.894C147.208 169.809 147.155 170.724 147.101 171.639C147.076 172.076 147.051 172.512 147.026 172.949C146.992 173.556 146.955 174.163 146.919 174.77C146.899 175.115 146.879 175.46 146.858 175.815C146.778 176.66 146.778 176.66 146.485 177.539C145.109 177.361 143.948 176.981 142.665 176.454C142.371 176.334 142.371 176.334 142.07 176.211C141.429 175.948 140.789 175.682 140.15 175.415C139.929 175.324 139.709 175.232 139.482 175.138C132.843 172.381 126.373 169.374 120.118 165.82C119.638 165.549 119.638 165.549 119.148 165.272C115.561 163.245 111.994 161.189 108.454 159.082C103.232 155.963 103.232 155.963 97.5594 153.809C101.046 163.653 118.514 169.619 127.238 174.058C127.962 174.426 128.684 174.796 129.405 175.168C133.988 177.534 138.608 179.707 143.384 181.656C143.571 181.732 143.757 181.809 143.949 181.887C144.454 182.092 144.959 182.296 145.465 182.5C146.192 182.813 146.192 182.813 146.485 183.106C146.508 183.85 146.513 184.586 146.504 185.33C146.502 185.681 146.502 185.681 146.5 186.04C146.497 186.555 146.494 187.07 146.489 187.584C146.478 188.992 146.473 190.4 146.466 191.808C146.465 192.106 146.463 192.403 146.461 192.71C146.402 204.484 146.564 216.18 147.364 227.93C147.396 228.396 147.396 228.396 147.428 228.872C147.687 232.673 147.687 232.673 147.975 236.471C148.161 238.855 148.284 241.229 148.304 243.62C148.309 243.979 148.309 243.979 148.314 244.345C148.313 246.024 148.313 246.024 147.657 246.68C145.744 246.902 143.612 246.778 141.798 246.094C141.369 245.236 141.417 244.355 141.378 243.413C141.363 243.088 141.363 243.088 141.347 242.757C141.325 242.284 141.304 241.81 141.284 241.337C141.25 240.576 141.215 239.815 141.179 239.054C141.078 236.888 140.981 234.722 140.884 232.556C140.626 226.813 140.336 221.077 139.881 215.346C139.863 215.116 139.844 214.886 139.826 214.649C139.048 204.912 137.484 196.035 129.757 189.338C125.799 186.237 121.074 184.392 116.45 182.521C103.007 177.073 88.8389 170.955 82.325 157.031C80.5105 152.669 79.94 148.388 81.4461 143.848C82.8203 140.783 84.8853 138.264 88.0734 137.017C92.1521 135.845 95.4082 137.146 98.9635 139.083C101.369 140.462 103.595 142.036 105.781 143.738C114.653 151.283 114.653 151.283 125.391 154.395C126.723 154.08 127.8 153.449 128.614 152.344C129.631 150.285 129.7 148.355 129.009 146.174C127.291 142.241 123.101 139.391 119.825 136.817C119.504 136.563 119.183 136.309 118.861 136.056C117.182 134.731 115.497 133.414 113.801 132.111C113.645 131.991 113.489 131.871 113.328 131.747C112.542 131.144 111.754 130.542 110.964 129.943C105.386 125.707 99.9181 121.398 97.5594 114.551C97.491 114.358 97.4227 114.164 97.3522 113.965C95.8237 108.863 96.8466 103.192 99.244 98.5475C102.028 93.7024 106.078 90.2094 111.487 88.6804C114.43 88.0891 117.463 88.1445 120.118 89.6486C125.81 93.7648 128.05 100.91 129.885 107.386C130.859 110.769 132.181 113.909 134.657 116.474C134.92 116.752 135.184 117.03 135.455 117.317C137.108 118.962 137.108 118.962 139.253 119.623C140.553 119.513 140.94 119.336 141.798 118.36C144.247 114.083 142.913 107.263 141.729 102.817C141.199 100.923 140.481 99.1176 139.721 97.305C135.828 87.9834 131.536 74.9671 135.596 65.0295C136.614 62.7104 137.8 60.5239 139.454 58.5939C139.675 58.3118 139.896 58.0297 140.123 57.739C145.719 51.0408 154.592 52.5947 160.877 57.3305Z" fill="black"/>
</svg>
