<svg width="300" height="300" viewBox="0 0 300 300" fill="none" xmlns="http://www.w3.org/2000/svg">
<path d="M150.366 84.916C154.184 84.7671 158.089 85.5917 161.793 86.4438C163.967 86.9412 166.106 87.1574 168.33 87.3044C171.403 87.5151 174.283 87.9293 177.247 88.7692C177.476 88.8328 177.705 88.8965 177.941 88.962C187.76 91.7659 196.362 97.1101 203.826 103.977C204.274 104.389 204.728 104.794 205.188 105.193C208.4 107.994 211.25 111.192 213.868 114.55C214.003 114.723 214.139 114.896 214.279 115.074C216.284 117.644 218.116 120.257 219.717 123.097C220.013 123.62 220.317 124.139 220.621 124.658C224.335 131.14 226.482 138.928 226.525 146.403C226.527 146.641 226.529 146.88 226.531 147.126C226.566 152.236 226.587 157.272 225.587 162.304C225.527 162.608 225.467 162.912 225.406 163.225C223.213 174.058 218.974 184.485 211.524 192.773C211.212 193.151 210.9 193.529 210.59 193.908C209.631 195.016 208.549 195.941 207.423 196.875C207.139 197.118 206.855 197.36 206.563 197.611C203.082 200.534 199.246 202.945 195.411 205.371C195.181 205.516 194.951 205.662 194.714 205.812C186.111 211.218 177.333 214.349 167.147 214.556C166.835 214.563 166.524 214.57 166.202 214.577C165.19 214.598 164.178 214.618 163.166 214.636C162.817 214.642 162.468 214.649 162.108 214.655C137.819 215.079 111.913 214.498 93.3782 196.619C90.7779 194.058 88.4638 191.406 86.4265 188.379C86.3035 188.197 86.1804 188.016 86.0536 187.83C77.0751 174.458 71.3272 157.883 74.253 141.731C75.0884 137.533 76.266 133.436 77.9304 129.492C78.0726 129.152 78.0726 129.152 78.2175 128.805C80.5283 123.328 83.4724 118.439 87.0125 113.672C87.3212 113.254 87.3212 113.254 87.6362 112.828C92.1148 107.087 97.7882 102.461 104.005 98.7301C104.184 98.6215 104.363 98.5129 104.547 98.401C113.633 92.9362 124.055 90.2841 134.577 89.5958C136.855 89.4252 138.896 88.9638 140.791 87.6339C143.673 85.8278 147.018 85.143 150.366 84.916ZM147.95 87.5973C148.01 87.7673 148.07 87.9372 148.132 88.1123C148.96 90.5128 149.175 92.6483 149.177 95.1779C149.18 95.4577 149.184 95.7376 149.188 96.0259C149.19 97.296 149.159 98.4632 148.828 99.6937C148.544 100.749 148.475 101.598 148.499 102.685C148.505 102.99 148.51 103.296 148.515 103.61C148.522 103.836 148.529 104.063 148.536 104.297C147.968 104.187 147.968 104.187 147.364 104.004C146.535 102.346 146.984 99.8235 147.382 98.071C147.68 96.625 147.677 95.2705 147.602 93.8046C147.593 93.5943 147.584 93.3841 147.575 93.1674C147.485 91.8076 147.169 90.8227 146.485 89.6481C144.182 89.4223 142.43 90.2243 140.333 91.1129C139.994 91.2527 139.655 91.3924 139.306 91.5364C138.475 91.8799 137.645 92.2271 136.817 92.5778C137.565 93.1795 138.316 93.7755 139.079 94.3585C141.134 95.9637 142.532 97.2947 143.299 99.8105C143.262 100.781 143.262 100.781 142.622 101.605C140.54 103.224 138.254 103.163 135.706 103.186C135.211 103.194 134.716 103.202 134.22 103.21C133.965 103.214 133.71 103.218 133.447 103.222C129.247 103.29 125.133 103.42 120.992 104.195C120.022 104.365 119.046 104.475 118.067 104.59C117.97 104.203 117.874 103.816 117.774 103.418C118.469 103.232 119.165 103.049 119.862 102.868C120.051 102.817 120.24 102.766 120.435 102.714C124.821 101.586 129.185 101.554 133.681 101.504C134.494 101.494 135.307 101.481 136.12 101.468C136.366 101.466 136.612 101.464 136.865 101.463C138.322 101.438 139.536 101.245 140.919 100.781C141.145 100.106 141.145 100.106 141.212 99.3161C139.843 96.9083 137.294 95.2391 134.703 94.4661C132.688 94.1438 130.721 94.3494 128.724 94.7018C128.495 94.7418 128.266 94.7817 128.03 94.8229C113.916 97.3734 101.309 105.19 92.69 116.65C92.2866 117.186 91.8784 117.718 91.4699 118.25C82.0868 130.609 78.0984 146.264 79.9292 161.662C80.8715 168.285 83.1102 174.429 87.0125 179.882C87.1265 180.042 87.2405 180.202 87.3579 180.366C89.2045 182.917 91.2815 185.228 93.4578 187.5C93.6545 187.705 93.8513 187.911 94.054 188.122C104.85 199.139 118.32 203.649 133.009 206.836C133.009 207.222 133.009 207.609 133.009 208.007C131.013 208.128 129.179 207.682 127.241 207.238C126.889 207.159 126.538 207.079 126.176 206.997C116.726 204.811 107.705 201.276 99.9031 195.41C99.7286 195.279 99.554 195.148 99.3742 195.013C94.4871 191.315 89.9347 187.349 86.1336 182.519C86.0369 182.713 85.9402 182.906 85.8406 183.105C86.1958 183.803 86.5651 184.455 86.9759 185.119C87.1572 185.416 87.1572 185.416 87.3423 185.718C89.3265 188.911 91.6557 191.714 94.248 194.422C94.5587 194.749 94.863 195.082 95.1652 195.417C106.026 207.1 126.899 209.08 141.908 209.721C146.122 209.856 150.333 209.777 154.542 209.546C154.772 209.533 155.002 209.52 155.24 209.507C173.004 208.512 191.413 205.03 204.2 191.601C205.665 190.136 205.665 190.136 206.142 189.711C215.136 181.374 218.792 168.465 219.81 156.661C220.034 150.107 218.146 143.12 215.988 136.995C215.903 136.754 215.818 136.512 215.73 136.263C215.653 136.051 215.577 135.839 215.498 135.621C215.333 135.058 215.333 135.058 215.333 134.179C216.212 134.472 216.212 134.472 216.517 135.038C216.652 135.403 216.652 135.403 216.79 135.775C216.89 136.042 216.99 136.309 217.093 136.585C217.246 137.008 217.246 137.008 217.402 137.439C217.505 137.714 217.608 137.989 217.714 138.272C218.252 139.726 218.741 141.177 219.141 142.675C220.414 139.364 217.247 133.369 215.919 130.371C213.204 124.537 209.899 119.113 205.665 114.257C205.456 114.009 205.246 113.761 205.031 113.506C203.449 111.675 201.718 110.167 199.805 108.691C199.527 108.471 199.25 108.25 198.963 108.023C190.928 101.783 181.066 98.667 170.93 98.6752C170.623 98.6754 170.316 98.6757 170 98.6759C166.758 98.7012 163.644 99.0697 160.456 99.6457C156.251 100.37 156.251 100.37 154.459 99.5118C153.809 99.0231 153.809 99.0231 153.498 98.1442C153.36 96.234 154.253 94.1935 155.384 92.6877C156.455 91.5362 157.839 90.7491 159.178 89.9466C159.643 89.6657 160.097 89.3654 160.548 89.0622C160.548 88.8688 160.548 88.6754 160.548 88.4762C156.319 87.8271 152.228 87.4708 147.95 87.5973ZM156.556 94.3642C155.863 95.3229 155.464 96.3924 155.274 97.5583C155.371 97.7516 155.468 97.945 155.567 98.1442C157.436 98.2182 159.163 98.0662 161.001 97.7271C173.495 95.4333 186.776 97.4175 197.385 104.643C198.523 105.458 199.607 106.334 200.684 107.226C200.854 107.365 201.024 107.504 201.199 107.647C212.167 116.621 220.422 131.026 221.98 145.166C222.7 155.556 221.617 166.988 217.615 176.664C217.134 177.806 217.134 177.806 217.384 179.004C224.171 164.799 227.041 148.184 221.887 132.95C219.161 125.267 214.689 118.535 209.187 112.56C208.669 111.995 208.173 111.419 207.679 110.833C205.029 107.801 202.114 104.997 198.927 102.539C198.481 102.184 198.481 102.184 198.026 101.821C190.919 96.1911 182.841 92.343 174.024 90.234C173.726 90.1619 173.428 90.0898 173.121 90.0155C166.984 88.7708 161.016 89.636 156.556 94.3642ZM115.156 95.892C114.848 96.0103 114.848 96.0103 114.534 96.131C106.9 99.1552 99.9952 103.636 94.0437 109.277C93.9008 109.41 93.7578 109.544 93.6106 109.681C82.7083 119.912 76.1657 135.212 75.6092 150.097C75.471 155.989 76.5569 161.727 78.5164 167.285C78.8988 166.02 78.6508 164.949 78.4065 163.678C75.6829 148.418 79.5767 132.033 88.3371 119.311C90.4429 116.322 92.73 113.52 95.203 110.827C95.6276 110.351 96.0342 109.859 96.4275 109.357C96.9734 108.691 96.9734 108.691 97.5593 108.398C97.5593 108.205 97.5593 108.011 97.5593 107.812C97.724 107.742 97.8887 107.672 98.0583 107.6C98.8784 107.144 99.4492 106.58 100.123 105.926C105.201 101.174 111.651 98.026 118.067 95.5075C116.917 95.124 116.236 95.4729 115.156 95.892ZM219.434 142.968C219.727 143.847 219.727 143.847 219.727 143.847L219.434 142.968ZM216.798 179.004C217.091 179.59 217.091 179.59 217.091 179.59L216.798 179.004ZM216.505 179.59C216.798 180.175 216.798 180.175 216.798 180.175L216.505 179.59ZM216.212 180.175C216.505 180.761 216.505 180.761 216.505 180.761L216.212 180.175ZM215.919 180.761C216.212 181.347 216.212 181.347 216.212 181.347L215.919 180.761ZM207.423 190.722C207.423 191.601 207.423 191.601 207.423 191.601V190.722ZM204.786 193.359C204.323 193.815 204.323 193.815 203.87 194.384C203.713 194.575 203.555 194.765 203.392 194.961C203.272 195.109 203.152 195.257 203.028 195.41C204.124 194.917 204.657 194.329 205.372 193.359C205.178 193.359 204.985 193.359 204.786 193.359ZM202.442 195.41C201.963 195.984 201.963 195.984 201.563 196.582C202.478 196.198 202.478 196.198 203.028 195.41C202.835 195.41 202.641 195.41 202.442 195.41ZM197.792 199.804C197.436 199.993 197.08 200.181 196.723 200.369C196.536 200.468 196.349 200.568 196.156 200.67C192.657 202.518 189.16 204.274 185.45 205.664C185.221 205.751 184.992 205.838 184.757 205.928C177.256 208.749 169.343 209.818 161.411 210.588C160.886 210.64 160.361 210.694 159.837 210.749C151.909 211.561 143.895 211.286 135.938 211.23C135.938 211.327 135.938 211.424 135.938 211.523C142.379 212.104 148.811 212.297 155.274 212.402C155.597 212.407 155.92 212.413 156.253 212.418C158.076 212.443 159.897 212.434 161.72 212.402C162.101 212.395 162.483 212.388 162.877 212.381C163.968 212.361 165.059 212.336 166.151 212.308C166.58 212.298 167.01 212.288 167.44 212.279C171.428 212.189 175.435 211.972 179.261 210.754C179.505 210.678 179.75 210.602 180.001 210.524C186.992 208.274 194.302 204.428 199.805 199.511C199.902 199.318 199.999 199.125 200.098 198.925C199.196 198.925 198.585 199.382 197.792 199.804Z" fill="black"/>
<path d="M111.037 102.832C110.939 103.685 110.867 104.169 110.262 104.796C110.052 104.945 109.843 105.095 109.627 105.249C109.387 105.425 109.147 105.602 108.9 105.783C108.638 105.97 108.377 106.156 108.107 106.348C102.849 110.106 98.4367 114.605 94.6304 119.824C94.5122 119.986 94.394 120.148 94.2723 120.314C87.9018 129.16 83.8771 139.659 83.4976 150.586C83.4896 150.792 83.4816 150.997 83.4734 151.209C83.1205 161.528 85.3036 171.321 91.0074 179.987C91.1402 180.191 91.2731 180.396 91.41 180.607C91.5896 180.876 91.5896 180.876 91.7729 181.15C91.9936 181.641 91.9936 181.641 91.7007 182.52C88.0222 180.94 85.6926 174.669 84.2483 171.146C83.394 168.939 82.8178 166.668 82.3257 164.355C82.2773 164.132 82.2289 163.909 82.179 163.679C79.2247 149.295 82.7493 134.42 90.5288 122.168C92.3588 119.394 94.3267 116.771 96.6159 114.359C97.41 113.521 98.1493 112.644 98.8864 111.756C99.3179 111.328 99.3179 111.328 100.197 111.035C100.342 110.6 100.342 110.6 100.49 110.156C100.907 109.725 100.907 109.725 101.46 109.259C101.672 109.08 101.883 108.902 102.101 108.718C102.464 108.415 102.464 108.415 102.833 108.105C103.105 107.87 103.377 107.635 103.657 107.393C108.988 102.832 108.988 102.832 111.037 102.832Z" fill="black"/>
<path d="M169.041 107.812C170.988 109.017 173.018 110.28 174.314 112.207C174.241 113.031 174.241 113.031 174.021 113.672C172.816 113.259 171.986 112.677 171 111.877C168.205 109.712 165.094 108.248 161.717 107.226C161.517 107.166 161.317 107.105 161.112 107.042C159.718 106.653 158.475 106.589 157.029 106.64C157.029 106.834 157.029 107.027 157.029 107.226C157.473 107.581 157.935 107.912 158.403 108.233C167.372 114.617 167.372 114.617 168.627 119.292C168.711 119.861 168.711 119.861 168.748 120.703C168.458 120.896 168.168 121.09 167.869 121.289C167.741 121.105 167.614 120.92 167.482 120.73C166.931 119.938 166.375 119.148 165.818 118.359C165.678 118.157 165.538 117.954 165.394 117.746C163.232 114.723 160.54 112.564 157.524 110.448C154.269 108.138 154.269 108.138 153.953 106.439C154.133 105.609 154.284 105.369 154.979 104.883C159.359 102.947 165.199 105.604 169.041 107.812Z" fill="black"/>
<path d="M147.07 108.105C147.457 108.202 147.844 108.299 148.242 108.398C148.073 109.717 147.554 110.62 146.869 111.749C145.043 114.858 143.781 118.008 142.891 121.493C142.539 122.861 142.091 124.105 141.504 125.391C141.117 125.294 140.73 125.197 140.332 125.098C139.106 121.681 141.985 116.281 143.412 113.19C144.361 111.215 145.51 109.637 147.07 108.105Z" fill="black"/>
<path d="M143.848 106.347C143.903 107.043 143.903 107.043 143.848 107.812C142.82 108.497 141.998 108.533 140.808 108.636C137.361 109.004 134.037 110.05 131.708 112.738C131.557 112.949 131.406 113.161 131.25 113.379C130.767 113.282 130.283 113.185 129.785 113.086C129.591 112.015 129.803 111.591 130.371 110.65C133.623 107.162 139.288 106.051 143.848 106.347Z" fill="black"/>
<path d="M90.8222 137.695C91.1122 137.792 91.4023 137.889 91.7011 137.988C91.559 139.778 91.3042 141.517 90.9687 143.28C90.59 145.289 90.3993 147.267 90.3215 149.309C90.2619 150.828 90.2619 150.828 89.9433 151.465C89.5566 151.368 89.1699 151.271 88.7714 151.172C88.6085 146.798 88.8803 142.101 90.5292 137.988C90.6259 137.892 90.7226 137.795 90.8222 137.695Z" fill="black"/>
<path d="M111.035 102.832C110.938 103.685 110.866 104.169 110.26 104.796C110.051 104.945 109.841 105.095 109.625 105.249C109.271 105.508 109.271 105.508 108.91 105.772C108.512 106.057 108.512 106.057 108.105 106.348C107.494 106.804 106.884 107.262 106.274 107.721C105.846 108.04 105.846 108.04 105.409 108.365C104.636 108.949 103.878 109.547 103.125 110.156C103.089 109.969 103.052 109.782 103.015 109.589C102.955 109.389 102.894 109.19 102.832 108.984C102.639 108.888 102.445 108.791 102.246 108.691C103.892 107.088 105.591 105.713 107.501 104.443C107.787 104.253 107.787 104.253 108.079 104.059C109.959 102.832 109.959 102.832 111.035 102.832Z" fill="black"/>
<path d="M191.602 108.984C192.823 109.082 193.556 109.885 194.403 110.687C194.555 110.829 194.707 110.97 194.864 111.116C196.73 112.88 198.67 114.753 200.098 116.895C200.098 117.281 200.098 117.668 200.098 118.066C199.206 117.974 198.931 117.779 198.307 117.112C198.094 116.835 197.881 116.558 197.662 116.272C196.071 114.259 194.371 112.569 192.392 110.94C191.866 110.421 191.598 109.952 191.309 109.277C191.405 109.181 191.502 109.084 191.602 108.984Z" fill="black"/>
<path d="M92.2852 182.52C93.614 183.524 94.5487 184.602 95.5444 185.933C96.2804 186.855 97.1093 187.653 97.9683 188.459C98.4375 188.965 98.4375 188.965 98.7305 189.844C98.2109 190.039 98.2109 190.039 97.5586 190.137C95.239 188.825 92.5344 185.611 91.6992 183.105C91.8926 182.912 92.0859 182.719 92.2852 182.52Z" fill="black"/>
<path d="M147.748 108.161C147.911 108.239 148.074 108.318 148.242 108.399C148.064 109.731 147.53 110.808 146.887 111.969C146.794 112.153 146.701 112.337 146.604 112.527C146.198 113.26 145.84 113.854 145.068 114.22C144.5 114.383 144.5 114.383 143.555 114.551C143.382 112.255 144.673 110.774 146.027 109.027C146.598 108.389 146.869 108.089 147.748 108.161Z" fill="black"/>
<path d="M88.7695 132.715C89.1563 132.812 89.543 132.908 89.9414 133.008C89.8916 133.162 89.8417 133.315 89.7903 133.474C89.024 135.923 88.4621 138.417 87.8906 140.918C87.4072 140.918 86.9238 140.918 86.4258 140.918C86.7708 138.103 87.1664 135.12 88.7695 132.715Z" fill="black"/>
<path d="M207.714 127.441C208.391 127.643 208.795 127.893 209.192 128.482C209.511 129.074 209.806 129.672 210.094 130.28C210.196 130.483 210.297 130.687 210.402 130.897C211.02 132.165 211.467 133.398 211.815 134.766C211.428 134.862 211.042 134.959 210.643 135.059C208.898 131.568 208.898 131.568 208.592 130.953C208.327 130.426 208.053 129.904 207.778 129.382C207.421 128.613 207.421 128.613 207.512 127.917C207.579 127.76 207.645 127.603 207.714 127.441Z" fill="black"/>
<path d="M100.195 122.461C100.485 122.558 100.775 122.654 101.074 122.754C100.892 123.813 100.443 124.476 99.8108 125.336C98.9768 126.494 98.2398 127.653 97.5586 128.906C97.1719 128.906 96.7852 128.906 96.3867 128.906C96.7286 126.459 98.3268 124.046 100.195 122.461Z" fill="black"/>
<path d="M111.035 112.207C110.948 113.117 110.762 113.362 110.05 113.964C109.765 114.158 109.48 114.351 109.186 114.55C108.345 115.125 107.599 115.637 106.903 116.381C106.348 116.894 106.348 116.894 105.176 116.894C105.354 115.24 106.173 114.663 107.396 113.635C109.781 111.789 109.781 111.789 111.035 112.207Z" fill="black"/>
<path d="M91.1118 175.781C92.2936 176.175 92.4227 176.701 93.0161 177.777C93.7112 179.043 93.7112 179.043 94.5451 180.216C94.9204 180.762 94.9204 180.762 94.9204 181.934C93.6283 181.538 93.1141 181.038 92.3753 179.919C92.1198 179.54 92.1198 179.54 91.8591 179.153C90.7938 177.43 90.7938 177.43 90.9287 176.44C90.9891 176.223 91.0496 176.005 91.1118 175.781Z" fill="black"/>
<path d="M108.984 194.824C110.062 195.34 111.09 195.934 112.115 196.545C112.289 196.645 112.463 196.744 112.642 196.846C113.905 197.604 113.905 197.604 114.227 198.415C114.242 198.668 114.242 198.668 114.258 198.926C112.209 198.88 110.512 197.924 108.984 196.582C108.726 195.799 108.726 195.799 108.691 195.117C108.788 195.021 108.885 194.924 108.984 194.824Z" fill="black"/>
<path d="M116.895 99.3164C116.991 99.6064 117.088 99.8965 117.188 100.195C116.314 100.79 115.435 101.375 114.551 101.953C114.356 102.081 114.161 102.209 113.96 102.341C112.667 103.142 112.667 103.142 111.786 103.052C111.635 102.979 111.484 102.907 111.328 102.832C111.367 102.314 111.367 102.314 111.621 101.66C112.388 101.107 112.388 101.107 113.342 100.58C113.812 100.315 113.812 100.315 114.292 100.045C115.226 99.5631 115.84 99.3164 116.895 99.3164Z" fill="black"/>
<path d="M213.281 169.629C213.668 169.629 214.055 169.629 214.453 169.629C214.307 171.724 213.482 173.558 212.695 175.488C212.309 175.488 211.922 175.488 211.523 175.488C211.681 173.752 212.023 170.888 213.281 169.629Z" fill="black"/>
<path d="M99.3164 189.844C100.425 190.242 101.309 190.75 102.264 191.437C102.51 191.612 102.755 191.786 103.007 191.967C103.636 192.426 104.261 192.89 104.883 193.359C104.786 193.746 104.689 194.133 104.59 194.531C103.331 194.098 102.376 193.459 101.312 192.664C101.006 192.438 100.7 192.212 100.384 191.979C99.6798 191.37 99.3428 190.995 99.0234 190.137C99.1201 190.04 99.2168 189.943 99.3164 189.844Z" fill="black"/>
<path d="M152.765 206.176C152.996 206.17 153.228 206.164 153.466 206.158C154.137 206.154 154.137 206.154 155.273 206.25C155.467 206.54 155.66 206.83 155.859 207.129C155.273 207.715 155.273 207.715 154.127 207.772C153.667 207.768 153.207 207.761 152.747 207.751C152.512 207.749 152.277 207.746 152.035 207.743C151.454 207.736 150.874 207.726 150.293 207.715C150.128 207.147 150.128 207.147 150 206.543C150.618 205.925 151.914 206.182 152.765 206.176Z" fill="black"/>
<path d="M90.5292 124.805C90.7225 124.901 90.9159 124.998 91.1151 125.098C90.1483 127.031 89.1815 128.965 88.1854 130.957C87.8925 129.785 87.8925 129.785 88.1854 129.199C87.8954 129.296 87.6054 129.393 87.3065 129.492C87.0086 128.714 86.9754 128.411 87.3054 127.629C87.4447 127.398 87.5841 127.167 87.7277 126.929C87.8663 126.695 88.0049 126.46 88.1477 126.219C88.2568 126.042 88.3659 125.866 88.4784 125.684C88.8651 125.877 89.2518 126.07 89.6503 126.27C89.9403 125.786 90.2304 125.303 90.5292 124.805Z" fill="black"/>
<path d="M180.762 198.633C180.665 199.116 180.568 199.6 180.469 200.098C177.093 201.107 177.093 201.107 175.488 200.977C175.488 200.59 175.488 200.203 175.488 199.805C176.147 199.607 176.806 199.413 177.466 199.219C177.833 199.11 178.2 199.001 178.578 198.889C179.59 198.633 179.59 198.633 180.762 198.633Z" fill="black"/>
<path d="M92.2852 193.359C92.3818 193.456 92.4785 193.553 92.5781 193.652C92.8682 193.846 93.1582 194.039 93.457 194.238C93.457 194.432 93.457 194.625 93.457 194.824C93.8438 195.018 94.2305 195.211 94.6289 195.41C94.6289 195.797 94.6289 196.184 94.6289 196.582C94.9189 197.017 94.9189 197.017 95.2148 197.461C95.5049 197.461 95.7949 197.461 96.0938 197.461C96.3838 197.558 96.6738 197.654 96.9727 197.754C96.4893 198.044 96.0059 198.334 95.5078 198.633C94.773 197.915 94.0415 197.194 93.3105 196.472C93.1009 196.267 92.8913 196.063 92.6754 195.852C92.4771 195.656 92.2789 195.459 92.0746 195.257C91.8905 195.076 91.7064 194.895 91.5167 194.708C91.1133 194.238 91.1133 194.238 91.1133 193.652C91.6992 193.359 91.6992 193.359 92.2852 193.359Z" fill="black"/>
<path d="M91.4062 126.562C91.793 126.562 92.1797 126.562 92.5781 126.562C92.4301 128.388 91.6037 129.918 90.8203 131.543C90.3369 131.543 89.8535 131.543 89.3555 131.543C89.5372 130.303 89.9722 129.339 90.5457 128.229C90.7062 127.916 90.8667 127.603 91.032 127.28C91.2173 126.925 91.2173 126.925 91.4062 126.562Z" fill="black"/>
<path d="M171.973 117.188C173.454 117.431 174.037 118.387 174.902 119.531C175.781 120.82 175.781 120.82 175.781 121.875C174.749 121.797 174.385 121.654 173.661 120.89C173.36 120.462 173.36 120.462 173.053 120.026C172.849 119.743 172.644 119.46 172.434 119.168C171.973 118.359 171.973 118.359 171.973 117.188Z" fill="black"/>
<path d="M86.4246 143.848C86.7146 143.944 87.0047 144.041 87.3035 144.141C87.2622 144.855 87.2192 145.569 87.1753 146.283C87.158 146.586 87.158 146.586 87.1404 146.896C87.084 147.794 87.0037 148.556 86.7176 149.414C86.3308 149.317 85.9441 149.221 85.5457 149.121C85.4482 147.124 85.4748 145.629 86.4246 143.848Z" fill="black"/>
<path d="M103.418 112.207C103.708 112.304 103.998 112.4 104.297 112.5C103.825 113.693 102.967 114.482 102.063 115.356C101.912 115.505 101.761 115.653 101.605 115.806C101.234 116.17 100.861 116.533 100.488 116.895C100.198 116.798 99.9082 116.701 99.6094 116.602C99.7523 115.35 100.472 114.761 101.349 113.91C101.611 113.652 101.874 113.394 102.144 113.128C102.832 112.5 102.832 112.5 103.418 112.207Z" fill="black"/>
<path d="M210.938 156.445C211.324 156.639 211.711 156.832 212.109 157.031C212.068 157.752 212.025 158.472 211.981 159.192C211.964 159.499 211.964 159.499 211.946 159.812C211.85 161.359 211.85 161.359 211.523 162.012C211.137 161.915 210.75 161.818 210.352 161.719C210.393 160.95 210.436 160.181 210.48 159.412C210.491 159.193 210.503 158.974 210.515 158.749C210.611 157.098 210.611 157.098 210.938 156.445Z" fill="black"/>
<path d="M171.971 130.957C172.85 131.25 172.85 131.25 173.331 132.135C173.491 132.504 173.648 132.874 173.802 133.246C173.884 133.43 173.967 133.615 174.052 133.805C174.392 134.607 174.629 135.194 174.512 136.069C174.447 136.219 174.382 136.369 174.315 136.523C173.385 136.217 173.162 135.973 172.698 135.088C172.573 134.752 172.448 134.416 172.319 134.07C172.19 133.735 172.061 133.401 171.929 133.056C171.689 132.17 171.636 131.792 171.971 130.957Z" fill="black"/>
<path d="M91.1132 167.285C91.6465 167.307 91.6465 167.307 92.2851 167.578C92.6353 168.258 92.888 168.856 93.1274 169.574C93.1969 169.758 93.2664 169.943 93.338 170.133C93.6393 170.998 93.8071 171.518 93.4959 172.397C93.3864 172.547 93.2769 172.697 93.164 172.852C91.7917 171.81 91.4435 170.374 91.1132 168.75C91.0997 168.262 91.0958 167.773 91.1132 167.285Z" fill="black"/>
<path d="M97.2661 180.762C98.2157 181.395 98.375 181.798 98.7813 182.826C99.1725 183.749 99.6859 184.588 100.196 185.449C99.8091 185.546 99.4224 185.643 99.0239 185.742C96.6413 182.943 96.6413 182.943 96.6802 181.348C96.8736 181.154 97.0669 180.961 97.2661 180.762Z" fill="black"/>
<path d="M93.1638 152.637C93.4538 152.733 93.7438 152.83 94.0427 152.93C94.0427 154.477 94.0427 156.023 94.0427 157.617C93.7526 157.714 93.4626 157.811 93.1638 157.91C92.464 156.861 92.499 156.353 92.5046 155.109C92.5031 154.77 92.5016 154.431 92.5 154.082C92.5778 153.223 92.5778 153.223 93.1638 152.637Z" fill="black"/>
<path d="M93.457 130.664C93.6504 130.761 93.8437 130.857 94.043 130.957C93.8942 132.705 93.344 134.074 92.5781 135.645C92.1914 135.548 91.8047 135.451 91.4062 135.352C91.582 133.594 92.1959 131.925 93.457 130.664Z" fill="black"/>
<path d="M88.1853 169.336C89.0642 169.629 89.0642 169.629 89.4807 170.385C89.6091 170.698 89.7375 171.01 89.8698 171.332C90.0013 171.642 90.1327 171.952 90.2681 172.271C90.5267 173.137 90.5629 173.493 90.236 174.316C89.4945 174.025 89.1269 173.829 88.6934 173.148C87.7065 170.818 87.7065 170.818 87.8923 169.629C87.989 169.532 88.0857 169.436 88.1853 169.336Z" fill="black"/>
<path d="M114.258 106.347C114.258 106.637 114.258 106.927 114.258 107.226C113.753 107.516 113.246 107.802 112.738 108.087C112.456 108.247 112.174 108.406 111.883 108.571C111.092 108.956 110.436 109.152 109.57 109.277C109.474 109.084 109.377 108.89 109.277 108.691C110.448 107.317 112.393 105.657 114.258 106.347Z" fill="black"/>
<path d="M95.8008 124.512C96.0908 124.608 96.3809 124.705 96.6797 124.805C96.5095 125.906 96.1957 126.718 95.636 127.679C95.5027 127.911 95.3694 128.142 95.232 128.381C95.0785 128.641 95.0785 128.641 94.9219 128.906C94.5352 128.906 94.1484 128.906 93.75 128.906C93.9567 127.17 94.4405 125.678 95.8008 124.512Z" fill="black"/>
<path d="M186.914 101.953C187.975 102.341 188.858 102.815 189.789 103.455C190.02 103.612 190.252 103.77 190.49 103.933C190.664 104.053 190.837 104.173 191.016 104.297C190.919 104.684 190.822 105.07 190.723 105.469C189.661 105.08 188.779 104.606 187.848 103.967C187.616 103.809 187.385 103.652 187.146 103.489C186.973 103.369 186.8 103.249 186.621 103.125C186.718 102.738 186.814 102.352 186.914 101.953Z" fill="black"/>
<path d="M181.348 141.504C181.638 141.504 181.928 141.504 182.227 141.504C182.693 143.136 182.874 144.495 182.813 146.191C182.426 146.288 182.04 146.385 181.641 146.484C181.253 145.708 181.238 145.023 181.165 144.159C181.137 143.848 181.109 143.537 181.08 143.217C181.055 142.383 181.055 142.383 181.348 141.504Z" fill="black"/>
<path d="M188.086 197.754C188.376 197.947 188.666 198.141 188.965 198.34C188.672 199.219 188.672 199.219 188.118 199.561C185.824 200.552 185.824 200.552 184.57 200.391C184.57 200.004 184.57 199.617 184.57 199.219C185.136 198.958 185.704 198.702 186.273 198.45C186.589 198.307 186.905 198.164 187.231 198.017C187.513 197.93 187.795 197.843 188.086 197.754Z" fill="black"/>
<path d="M173.73 203.614C173.634 204 173.537 204.387 173.438 204.786C171.951 205.156 170.588 205.451 169.043 205.372C169.14 204.985 169.236 204.598 169.336 204.2C169.848 204.043 170.361 203.892 170.874 203.742C171.16 203.657 171.445 203.572 171.739 203.484C172.548 203.323 172.966 203.339 173.73 203.614Z" fill="black"/>
<path d="M214.16 163.77C214.547 163.866 214.934 163.963 215.332 164.062C215.424 165.817 215.239 166.885 214.453 168.457C214.163 168.36 213.873 168.264 213.574 168.164C213.615 167.541 213.659 166.919 213.702 166.296C213.726 165.95 213.75 165.603 213.774 165.246C213.867 164.355 213.867 164.355 214.16 163.77Z" fill="black"/>
<path d="M212.987 148.828C213.277 148.925 213.567 149.021 213.866 149.121C214.362 150.634 214.518 151.933 214.452 153.516C214.065 153.516 213.679 153.516 213.28 153.516C212.553 150.476 212.553 150.476 212.987 148.828Z" fill="black"/>
<path d="M206.543 176.66C206.93 176.757 207.316 176.854 207.715 176.953C207.545 178.055 207.231 178.866 206.671 179.828C206.538 180.059 206.405 180.291 206.267 180.529C206.114 180.789 206.114 180.789 205.957 181.055C205.57 181.055 205.184 181.055 204.785 181.055C205.266 179.522 205.778 178.08 206.543 176.66Z" fill="black"/>
<path d="M217.092 150C217.478 150 217.865 150 218.264 150C218.513 151.076 218.588 152.064 218.575 153.168C218.572 153.454 218.57 153.739 218.567 154.034C218.563 154.25 218.56 154.465 218.556 154.688C217.989 154.596 217.989 154.596 217.385 154.395C217.064 153.432 217.062 152.714 217.073 151.703C217.076 151.385 217.079 151.066 217.081 150.738C217.085 150.495 217.088 150.251 217.092 150Z" fill="black"/>
<path d="M174.609 138.281C175.693 139.004 175.768 139.38 176.074 140.625C176.096 141.308 176.101 141.993 176.074 142.676C175.687 142.676 175.3 142.676 174.902 142.676C174.745 142.213 174.594 141.749 174.444 141.284C174.359 141.026 174.274 140.768 174.186 140.501C174.017 139.718 174.037 139.316 174.316 138.574C174.412 138.478 174.509 138.381 174.609 138.281Z" fill="black"/>
<path d="M100.488 118.359C100.778 118.456 101.068 118.553 101.367 118.652C101.191 119.693 100.789 120.277 100.104 121.069C99.9297 121.276 99.7556 121.483 99.5762 121.696C99.0234 122.168 99.0234 122.168 97.8516 122.168C98.2969 120.585 99.3966 119.536 100.488 118.359Z" fill="black"/>
<path d="M89.6478 159.082C90.0346 159.179 90.4213 159.275 90.8197 159.375C91.4924 162.132 91.4924 162.132 91.4056 163.477C91.0189 163.477 90.6322 163.477 90.2338 163.477C89.6173 161.974 89.5841 160.675 89.6478 159.082Z" fill="black"/>
<path d="M86.1328 174.023C86.8137 174.077 86.8137 174.077 87.5977 174.316C88.0611 174.986 88.0611 174.986 88.4216 175.8C88.5444 176.069 88.6671 176.338 88.7936 176.616C88.8823 176.824 88.9711 177.032 89.0625 177.246C88.8691 177.439 88.6758 177.633 88.4766 177.832C88.1865 177.832 87.8965 177.832 87.5977 177.832C86.7934 176.535 86.2838 175.571 86.1328 174.023Z" fill="black"/>
<path d="M211.231 142.09C211.785 142.271 211.785 142.271 212.403 142.676C212.71 143.502 212.71 143.502 212.916 144.47C212.987 144.791 213.058 145.112 213.131 145.443C213.181 145.69 213.231 145.937 213.282 146.191C212.895 146.288 212.509 146.385 212.11 146.484C211.534 145.62 211.372 145.121 211.176 144.122C211.124 143.865 211.071 143.608 211.017 143.343C210.938 142.676 210.938 142.676 211.231 142.09Z" fill="black"/>
<path d="M108.984 123.34C108.837 124.633 108.395 125.317 107.52 126.27C106.641 126.855 106.641 126.855 105.469 126.855C105.643 125.881 105.968 125.341 106.622 124.603C106.776 124.427 106.93 124.251 107.088 124.069C107.747 123.403 108.031 123.34 108.984 123.34Z" fill="black"/>
<path d="M86.4274 163.77C86.9801 163.828 86.9801 163.828 87.5992 164.062C87.9162 164.691 87.9162 164.691 88.1302 165.472C88.2046 165.728 88.279 165.984 88.3557 166.247C88.4801 167.004 88.4311 167.446 88.1852 168.164C87.8951 168.164 87.6051 168.164 87.3063 168.164C86.7481 166.669 86.3026 165.392 86.4274 163.77Z" fill="black"/>
<path d="M85.5467 154.98C85.8368 155.077 86.1268 155.174 86.4256 155.273C86.5223 156.724 86.619 158.174 86.7186 159.668C86.3319 159.668 85.9452 159.668 85.5467 159.668C85.2289 158.714 85.2147 157.996 85.2171 156.995C85.2164 156.68 85.2156 156.365 85.2148 156.04C85.2538 155.273 85.2538 155.273 85.5467 154.98Z" fill="black"/>
<path d="M175.783 134.18C176.073 134.18 176.363 134.18 176.662 134.18C177.335 136.937 177.335 136.937 177.248 138.281C176.861 138.281 176.474 138.281 176.076 138.281C175.653 136.961 175.39 135.876 175.49 134.473C175.587 134.376 175.683 134.279 175.783 134.18Z" fill="black"/>
<path d="M98.1452 141.211C98.3386 141.211 98.5319 141.211 98.7311 141.211C99.2032 142.885 98.7575 144.049 98.1452 145.605C97.8552 145.605 97.5651 145.605 97.2663 145.605C97.2138 144.083 97.2586 142.936 97.8522 141.504C97.9489 141.407 98.0456 141.311 98.1452 141.211Z" fill="black"/>
<path d="M106.641 190.723C107.609 190.875 108.36 191.282 109.204 191.766C109.555 191.966 109.555 191.966 109.914 192.17C110.09 192.273 110.267 192.375 110.449 192.48C110.353 192.867 110.256 193.254 110.156 193.652C108.806 193.266 107.757 192.751 106.641 191.895C106.544 191.604 106.447 191.314 106.348 191.016C106.444 190.919 106.541 190.822 106.641 190.723Z" fill="black"/>
<path d="M203.319 124.805C204.303 125.218 204.823 125.693 205.462 126.544C205.695 126.847 205.695 126.847 205.934 127.156C206.038 127.347 206.142 127.538 206.249 127.734C206.152 128.024 206.056 128.314 205.956 128.613C204.867 128.454 204.465 128.074 203.814 127.203C203.58 126.901 203.58 126.901 203.341 126.593C203.026 125.977 203.026 125.977 203.124 125.314C203.188 125.146 203.253 124.978 203.319 124.805Z" fill="black"/>
<path d="M208.594 120.41C209.643 121.401 210.518 122.372 211.23 123.633C211.134 123.923 211.037 124.213 210.938 124.512C209.49 123.809 208.874 122.894 208.008 121.582C208.201 121.195 208.395 120.809 208.594 120.41Z" fill="black"/>
<path d="M167.285 205.371C167.188 205.758 167.092 206.145 166.992 206.543C166.468 206.6 165.943 206.655 165.417 206.708C164.979 206.754 164.979 206.754 164.532 206.801C163.77 206.836 163.77 206.836 163.184 206.543C163.28 206.157 163.377 205.77 163.477 205.371C165.946 204.995 165.946 204.995 167.285 205.371Z" fill="black"/>
<path d="M183.691 107.52C185.065 107.603 185.804 108.256 186.81 109.11C187.207 109.57 187.207 109.57 187.207 110.449C185.613 110.35 184.589 109.364 183.398 108.398C183.495 108.108 183.592 107.818 183.691 107.52Z" fill="black"/>
<path d="M180.47 136.23C181.038 136.322 181.038 136.322 181.642 136.523C181.923 137.368 181.966 137.9 181.953 138.776C181.951 139.012 181.948 139.249 181.945 139.493C181.942 139.673 181.939 139.853 181.935 140.039C181.548 140.039 181.162 140.039 180.763 140.039C180.376 139.264 180.442 138.669 180.452 137.805C180.454 137.511 180.457 137.218 180.46 136.915C180.463 136.689 180.467 136.463 180.47 136.23Z" fill="black"/>
<path d="M179.005 129.785C179.548 129.852 179.548 129.852 180.176 130.078C180.558 130.653 180.558 130.653 180.854 131.36C180.956 131.592 181.057 131.824 181.162 132.063C181.348 132.715 181.348 132.715 181.055 133.594C180.524 133.575 180.524 133.575 179.883 133.301C179.241 132.108 178.881 131.144 179.005 129.785Z" fill="black"/>
<path d="M201.562 189.258C201.853 189.354 202.143 189.451 202.441 189.551C202.367 190.551 202.072 190.795 201.324 191.51C200.132 192.375 200.132 192.375 199.219 192.48C199.219 191.309 199.219 191.309 199.701 190.735C199.91 190.556 200.12 190.376 200.336 190.192C200.647 189.917 200.647 189.917 200.964 189.637C201.161 189.512 201.359 189.387 201.562 189.258Z" fill="black"/>
<path d="M93.1653 145.312C93.7454 145.458 93.7454 145.458 94.3372 145.605C94.2405 146.766 94.1438 147.926 94.0442 149.121C93.6575 149.121 93.2708 149.121 92.8724 149.121C92.8645 148.541 92.8588 147.961 92.854 147.382C92.8507 147.059 92.8473 146.736 92.8438 146.403C92.8724 145.605 92.8724 145.605 93.1653 145.312Z" fill="black"/>
<path d="M193.066 192.773C193.03 193.286 193.03 193.286 192.773 193.945C191.895 194.664 191.315 195.091 190.173 195.19C189.968 195.166 189.762 195.142 189.551 195.117C189.66 194.346 189.758 194.02 190.354 193.5C190.663 193.312 190.663 193.312 190.979 193.121C191.184 192.992 191.388 192.864 191.599 192.731C192.188 192.48 192.188 192.48 193.066 192.773Z" fill="black"/>
<path d="M168.457 125.391C169.448 125.464 169.711 125.766 170.435 126.489C171.097 127.446 171.259 127.784 171.094 128.906C170.381 128.792 170.004 128.696 169.487 128.177C169.303 127.913 169.303 127.913 169.116 127.643C168.991 127.469 168.865 127.295 168.736 127.115C168.457 126.562 168.457 126.562 168.457 125.391Z" fill="black"/>
<path d="M157.068 209.454C157.389 209.457 157.71 209.46 158.041 209.462C158.288 209.466 158.535 209.469 158.789 209.473C158.402 209.763 158.016 210.053 157.617 210.351C157.907 210.545 158.197 210.738 158.496 210.937C157.046 210.937 155.596 210.937 154.102 210.937C154.924 209.293 155.336 209.436 157.068 209.454Z" fill="black"/>
<path d="M215.918 167.578C216.305 167.675 216.691 167.771 217.09 167.871C216.8 169.031 216.51 170.191 216.211 171.387C215.824 171.29 215.438 171.193 215.039 171.094C215.29 168.583 215.29 168.583 215.918 167.578Z" fill="black"/>
<path d="M102.832 187.5C104.276 188.088 105.203 189.153 106.055 190.43C105.765 190.526 105.475 190.623 105.176 190.723C104.588 190.408 104.588 190.408 103.967 189.935C103.761 189.783 103.555 189.631 103.342 189.474C102.777 188.91 102.622 188.581 102.539 187.793C102.636 187.696 102.732 187.6 102.832 187.5Z" fill="black"/>
<path d="M197.462 113.965C198.415 114.891 199.341 115.8 200.099 116.895C200.099 117.281 200.099 117.668 200.099 118.066C199.019 117.906 198.609 117.536 197.957 116.675C197.163 115.57 197.163 115.57 197.206 114.551C197.29 114.357 197.375 114.164 197.462 113.965Z" fill="black"/>
<path d="M213.576 136.23C213.866 136.327 214.156 136.424 214.454 136.523C214.733 137.257 214.733 137.257 214.949 138.153C215.023 138.45 215.096 138.746 215.172 139.051C215.225 139.281 215.279 139.51 215.333 139.746C214.947 139.843 214.56 139.939 214.162 140.039C213.098 137.619 213.098 137.619 213.576 136.23Z" fill="black"/>
<path d="M194.531 106.641C195.531 106.676 195.805 107.035 196.527 107.758C197.168 108.691 197.168 108.691 197.062 109.336C197 109.51 196.938 109.684 196.875 109.863C196.488 109.599 196.104 109.329 195.721 109.058C195.507 108.908 195.293 108.759 195.073 108.604C194.469 108.048 194.318 107.742 194.238 106.934C194.335 106.837 194.432 106.74 194.531 106.641Z" fill="black"/>
<path d="M120.996 112.793C120.996 113.083 120.996 113.373 120.996 113.672C120.521 113.827 120.045 113.979 119.568 114.13C119.303 114.215 119.038 114.3 118.764 114.387C118.066 114.551 118.066 114.551 117.48 114.258C117.517 113.709 117.517 113.709 117.773 113.086C118.949 112.525 119.749 112.426 120.996 112.793Z" fill="black"/>
<path d="M210.645 166.113C210.935 166.21 211.225 166.307 211.523 166.406C211.384 167.871 210.928 168.744 210.059 169.922C209.865 169.825 209.672 169.729 209.473 169.629C209.61 168.23 209.837 167.272 210.645 166.113Z" fill="black"/>
<path d="M211.23 111.914C211.714 112.301 212.197 112.687 212.695 113.086C212.585 113.947 212.585 113.947 212.402 114.844C212.112 114.989 212.112 114.989 211.816 115.137C211.063 114.76 210.966 114.405 210.608 113.654C210.504 113.439 210.401 113.224 210.294 113.002C210.217 112.837 210.139 112.671 210.059 112.5C210.445 112.307 210.832 112.113 211.23 111.914Z" fill="black"/>
<path d="M111.035 102.832C110.991 103.613 110.891 104.136 110.352 104.72C109.129 105.762 109.129 105.762 108.398 105.762C108.398 105.375 108.398 104.988 108.398 104.59C108.205 104.493 108.012 104.396 107.812 104.297C108.239 104.051 108.666 103.807 109.094 103.564C109.332 103.428 109.57 103.293 109.815 103.152C110.449 102.832 110.449 102.832 111.035 102.832Z" fill="black"/>
<path d="M197.461 187.793C197.848 187.89 198.234 187.986 198.633 188.086C198.536 188.993 198.331 189.266 197.662 189.917C196.875 190.43 196.875 190.43 195.703 190.43C195.776 189.88 195.776 189.88 195.996 189.258C196.382 189.053 196.773 188.857 197.168 188.672C197.265 188.382 197.361 188.092 197.461 187.793Z" fill="black"/>
<path d="M111.035 112.207C110.929 112.999 110.836 113.304 110.201 113.814C109.987 113.936 109.773 114.059 109.552 114.185C109.337 114.31 109.122 114.435 108.901 114.565C108.735 114.657 108.569 114.749 108.398 114.844C108.398 114.457 108.398 114.07 108.398 113.672C108.205 113.575 108.012 113.479 107.812 113.379C108.182 113.125 108.555 112.876 108.929 112.628C109.137 112.489 109.344 112.35 109.558 112.206C110.156 111.914 110.156 111.914 111.035 112.207Z" fill="black"/>
<path d="M173.439 128.613C174.223 128.908 174.546 129.065 174.918 129.833C174.986 130.071 175.054 130.309 175.124 130.554C175.195 130.794 175.266 131.033 175.339 131.28C175.414 131.555 175.414 131.555 175.49 131.836C175.103 131.836 174.716 131.836 174.318 131.836C173.687 130.706 173.324 129.917 173.439 128.613Z" fill="black"/>
<path d="M194.238 195.117C194.528 195.214 194.818 195.311 195.117 195.41C194.69 196.764 194.69 196.764 193.982 197.26C193.359 197.461 193.359 197.461 192.188 197.461C192.224 196.948 192.224 196.948 192.48 196.289C193.323 195.612 193.323 195.612 194.238 195.117Z" fill="black"/>
<path d="M101.074 181.055C102.265 181.452 102.531 182.024 103.125 183.105C103.052 183.801 103.052 183.801 102.832 184.277C101.715 183.854 101.271 183.31 100.781 182.227C100.873 181.549 100.873 181.549 101.074 181.055Z" fill="black"/>
<path d="M211.523 128.906C212.183 128.925 212.183 128.925 212.988 129.199C213.521 129.857 213.803 130.467 214.16 131.25C214.063 131.443 213.967 131.637 213.867 131.836C213.354 131.818 213.354 131.818 212.695 131.543C212.107 130.752 211.523 129.917 211.523 128.906Z" fill="black"/>
<path d="M117.279 108.783C117.442 108.849 117.605 108.916 117.773 108.984C117.35 110.1 116.799 110.536 115.723 111.035C115.433 110.938 115.143 110.842 114.844 110.742C114.899 110.211 114.899 110.211 115.137 109.57C116.309 108.652 116.309 108.652 117.279 108.783Z" fill="black"/>
<path d="M96.9727 173.438C97.8516 173.73 97.8516 173.73 98.3643 174.408C98.7305 175.195 98.7305 175.195 98.6389 175.873C98.5724 176.036 98.506 176.199 98.4375 176.367C97.451 175.959 96.9768 175.494 96.3867 174.609C96.5801 174.223 96.7734 173.836 96.9727 173.438Z" fill="black"/>
<path d="M96.9746 148.828C97.5788 148.956 97.5788 148.956 98.1465 149.121C98.1831 151.099 98.1831 151.099 97.8535 151.758C97.4668 151.661 97.0801 151.564 96.6816 151.465C96.653 149.662 96.653 149.662 96.6816 149.121C96.7783 149.024 96.875 148.928 96.9746 148.828Z" fill="black"/>
<path d="M143.262 113.379C143.455 113.669 143.648 113.959 143.848 114.258C144.331 114.161 144.814 114.064 145.312 113.965C145.022 114.835 144.732 115.705 144.434 116.602C144.337 116.312 144.24 116.021 144.141 115.723C143.55 115.508 143.55 115.508 142.969 115.43C142.969 115.623 142.969 115.816 142.969 116.016C142.775 116.016 142.582 116.016 142.383 116.016C142.673 115.146 142.963 114.275 143.262 113.379Z" fill="black"/>
<path d="M104.59 102.246C104.88 102.343 105.17 102.439 105.469 102.539C104.744 103.554 104.744 103.554 104.004 104.59C104.101 104.783 104.197 104.977 104.297 105.176C102.905 104.626 102.905 104.626 102.246 104.297C103.001 103.521 103.686 102.848 104.59 102.246Z" fill="black"/>
<path d="M93.4564 161.719C94.0365 161.864 94.0365 161.864 94.6283 162.012C94.9579 163.989 94.9579 163.989 94.6283 164.648C94.3383 164.648 94.0482 164.648 93.7494 164.648C93.2112 163.54 93.1171 162.907 93.4564 161.719Z" fill="black"/>
<path d="M177.245 123.926C177.964 124.213 178.353 124.42 178.802 125.061C179.036 125.786 178.963 126.147 178.71 126.855C177.992 126.568 177.603 126.361 177.154 125.72C176.919 124.995 176.993 124.634 177.245 123.926Z" fill="black"/>
<path d="M198.926 122.461C199.216 122.461 199.506 122.461 199.805 122.461C200.211 122.889 200.211 122.889 200.592 123.45C200.72 123.633 200.848 123.817 200.98 124.006C201.27 124.512 201.27 124.512 201.27 125.098C200.979 125.194 200.689 125.291 200.391 125.391C199.488 124.578 199.017 123.907 198.633 122.754C198.729 122.657 198.826 122.561 198.926 122.461Z" fill="black"/>
<path d="M97.5586 160.254C97.9453 160.447 98.332 160.641 98.7305 160.84C98.7305 161.613 98.7305 162.387 98.7305 163.184C98.3437 163.184 97.957 163.184 97.5586 163.184C97.5017 162.75 97.4472 162.317 97.3938 161.884C97.3632 161.642 97.3326 161.401 97.3011 161.152C97.2894 160.952 97.2777 160.753 97.2656 160.547C97.3623 160.45 97.459 160.354 97.5586 160.254Z" fill="black"/>
<path d="M109.57 116.309C109.86 116.405 110.15 116.502 110.449 116.602C110.339 117.398 110.202 117.727 109.625 118.304C108.984 118.652 108.984 118.652 108.325 118.561C108.156 118.494 107.987 118.428 107.812 118.359C108.217 117.382 108.647 116.84 109.57 116.309Z" fill="black"/>
<path d="M191.602 108.984C192.52 109.083 192.781 109.285 193.433 109.973C193.945 110.742 193.945 110.742 193.945 111.621C192.701 111.483 192.129 110.752 191.309 109.863C191.405 109.573 191.502 109.283 191.602 108.984Z" fill="black"/>
<path d="M101.367 127.148C101.657 127.148 101.947 127.148 102.246 127.148C102.026 129.089 102.026 129.089 101.367 130.078C100.98 129.885 100.594 129.691 100.195 129.492C100.582 128.719 100.969 127.945 101.367 127.148Z" fill="black"/>
<path d="M155.568 104.883C156.381 105.289 156.626 105.847 157.033 106.641C156.84 106.834 156.646 107.027 156.447 107.227C156.35 106.937 156.254 106.646 156.154 106.348C155.864 106.348 155.574 106.348 155.275 106.348C155.179 106.638 155.082 106.928 154.982 107.227C154.789 107.42 154.596 107.613 154.396 107.812C154.005 105.927 154.005 105.927 154.451 105.176C154.982 104.883 154.982 104.883 155.568 104.883Z" fill="black"/>
<path d="M182.739 201.068C183.066 201.168 183.066 201.168 183.398 201.27C183.302 201.657 183.205 202.043 183.105 202.442C182.429 202.538 181.752 202.635 181.055 202.735C180.958 202.445 180.861 202.155 180.762 201.856C181.481 201.19 181.74 200.955 182.739 201.068Z" fill="black"/>
<path d="M203.029 129.492C204.132 129.86 204.278 130.233 204.786 131.25C204.786 131.54 204.786 131.83 204.786 132.129C204.091 132.037 204.091 132.037 203.322 131.836C202.736 130.957 202.736 130.957 202.845 130.17C202.906 129.946 202.966 129.723 203.029 129.492Z" fill="black"/>
<path d="M208.887 136.23C209.273 136.23 209.66 136.23 210.059 136.23C210.516 137.054 210.516 137.054 210.938 137.988C210.841 138.278 210.744 138.568 210.645 138.867C209.718 138.466 209.475 138.284 208.887 137.402C208.887 137.016 208.887 136.629 208.887 136.23Z" fill="black"/>
<path d="M91.4062 126.562C91.793 126.562 92.1797 126.562 92.5781 126.562C92.4322 127.657 92.3218 128.265 91.6992 129.199C91.5059 129.199 91.3125 129.199 91.1133 129.199C91.0166 129.393 90.9199 129.586 90.8203 129.785C90.8616 129.358 90.9047 128.931 90.9485 128.503C90.9723 128.265 90.9961 128.028 91.0206 127.782C91.1133 127.148 91.1133 127.148 91.4062 126.562Z" fill="black"/>
<path d="M204.199 116.602C205.176 117.006 205.719 117.436 206.25 118.359C206.153 118.649 206.057 118.939 205.957 119.238C204.98 118.834 204.438 118.403 203.906 117.48C204.003 117.19 204.1 116.9 204.199 116.602Z" fill="black"/>
<path d="M193.945 96.6797C194.042 96.873 194.139 97.0664 194.238 97.2656C194.625 97.2656 195.012 97.2656 195.41 97.2656C195.313 97.749 195.217 98.2324 195.117 98.7305C194.129 98.5701 193.628 98.4214 192.773 97.8516C192.773 97.5615 192.773 97.2715 192.773 96.9727C193.359 96.6797 193.359 96.6797 193.945 96.6797Z" fill="black"/>
<path d="M218.262 158.496C218.358 158.496 218.455 158.496 218.555 158.496C218.555 159.753 218.555 161.01 218.555 162.305C218.168 162.401 217.781 162.498 217.383 162.598C217.416 162.079 217.454 161.56 217.493 161.041C217.513 160.752 217.533 160.463 217.554 160.166C217.676 159.375 217.676 159.375 218.262 158.496Z" fill="black"/>
<path d="M218.262 130.664C218.358 131.05 218.455 131.437 218.555 131.836C218.168 131.836 217.781 131.836 217.383 131.836C217.286 132.319 217.189 132.802 217.09 133.3C216.507 132.425 216.228 131.661 215.918 130.664C216.882 130.342 217.299 130.429 218.262 130.664Z" fill="black"/>
<path d="M205.957 124.219C206.68 124.556 207.143 124.819 207.715 125.391C207.751 126.16 207.751 126.16 207.715 126.855C207.425 126.855 207.135 126.855 206.836 126.855C206.177 126.031 206.177 126.031 205.664 125.098C205.761 124.808 205.857 124.518 205.957 124.219Z" fill="black"/>
<path d="M205.078 185.449C205.368 185.546 205.658 185.643 205.957 185.742C205.764 186.322 205.57 186.902 205.371 187.5C204.888 187.597 204.404 187.693 203.906 187.793C204.052 186.713 204.229 186.151 205.078 185.449Z" fill="black"/>
<path d="M106.934 183.105C107.774 183.273 108.065 183.358 108.691 183.984C108.582 184.607 108.582 184.607 108.398 185.156C107.558 184.988 107.267 184.904 106.641 184.277C106.75 183.655 106.75 183.655 106.934 183.105Z" fill="black"/>
<path d="M103.125 177.539C103.512 177.539 103.898 177.539 104.297 177.539C105.005 178.273 105.176 178.553 105.176 179.59C104.886 179.687 104.596 179.783 104.297 179.883C103.711 179.37 103.711 179.37 103.125 178.711C103.125 178.324 103.125 177.938 103.125 177.539Z" fill="black"/>
<path d="M94.6301 168.457C95.0168 168.457 95.4035 168.457 95.802 168.457C95.8986 169.134 95.9953 169.811 96.0949 170.508C95.7082 170.604 95.3215 170.701 94.9231 170.801C94.5263 170.007 94.611 169.333 94.6301 168.457Z" fill="black"/>
<path d="M94.3359 121.582C94.626 121.679 94.916 121.775 95.2148 121.875C95.0215 122.552 94.8281 123.229 94.6289 123.926C94.2422 123.926 93.8555 123.926 93.457 123.926C93.6768 122.241 93.6768 122.241 94.3359 121.582Z" fill="black"/>
<path d="M103.125 118.652C103.415 118.749 103.705 118.846 104.004 118.945C103.748 120.374 103.748 120.374 103.418 120.703C102.93 120.715 102.441 120.716 101.953 120.703C102.118 119.745 102.392 119.289 103.125 118.652Z" fill="black"/>
<path d="M208.008 182.227C208.298 182.227 208.588 182.227 208.887 182.227C208.983 182.517 209.08 182.807 209.18 183.105C208.832 183.746 208.832 183.746 208.301 184.277C207.914 184.277 207.527 184.277 207.129 184.277C207.349 182.886 207.349 182.886 208.008 182.227Z" fill="black"/>
<path d="M95.8008 177.832C96.7542 178.662 97.1252 179.205 97.2656 180.469C96.9756 180.469 96.6855 180.469 96.3867 180.469C95.7458 179.59 95.7458 179.59 95.2148 178.711C95.4082 178.421 95.6016 178.131 95.8008 177.832Z" fill="black"/>
<path d="M88.1836 169.336C89.0625 169.629 89.0625 169.629 89.4104 170.178C89.6484 170.801 89.6484 170.801 89.6484 171.68C89.165 171.68 88.6816 171.68 88.1836 171.68C88.0721 170.998 87.9748 170.314 87.8906 169.629C87.9873 169.532 88.084 169.436 88.1836 169.336Z" fill="black"/>
<path d="M105.762 120.117C106.052 120.214 106.342 120.311 106.641 120.41C106.475 121.368 106.201 121.824 105.469 122.461C105.179 122.364 104.889 122.268 104.59 122.168C104.755 121.21 105.029 120.754 105.762 120.117Z" fill="black"/>
<path d="M173.73 203.613C173.634 204 173.537 204.387 173.438 204.785C172.761 204.882 172.084 204.978 171.387 205.078C171.387 204.691 171.387 204.305 171.387 203.906C172.285 203.361 172.734 203.257 173.73 203.613Z" fill="black"/>
<path d="M202.734 183.398C203.024 183.495 203.314 183.592 203.613 183.691C203.445 184.531 203.361 184.823 202.734 185.449C202.112 185.339 202.112 185.339 201.562 185.156C202.075 183.728 202.075 183.728 202.734 183.398Z" fill="black"/>
<path d="M218.555 175.781C218.651 175.781 218.748 175.781 218.848 175.781C219.241 177.964 219.241 177.964 218.774 178.711C218.262 179.004 218.262 179.004 217.383 179.004C217.523 178.576 217.663 178.149 217.804 177.722C217.882 177.484 217.96 177.246 218.041 177.001C218.262 176.367 218.262 176.367 218.555 175.781Z" fill="black"/>
<path d="M214.159 163.77C214.545 163.866 214.932 163.963 215.331 164.062C215.331 164.836 215.331 165.609 215.331 166.406C215.041 166.551 215.041 166.551 214.745 166.699C214.131 165.703 214.106 164.926 214.159 163.77Z" fill="black"/>
<path d="M90.8203 160.547C90.917 160.547 91.0137 160.547 91.1133 160.547C91.21 161.514 91.3066 162.48 91.4062 163.477C91.0195 163.477 90.6328 163.477 90.2344 163.477C90.1377 162.993 90.041 162.51 89.9414 162.012C90.2314 161.915 90.5215 161.818 90.8203 161.719C90.8203 161.332 90.8203 160.945 90.8203 160.547Z" fill="black"/>
<path d="M94.3362 140.625C94.6262 140.722 94.9163 140.818 95.2151 140.918C95.2151 141.401 95.2151 141.885 95.2151 142.383C94.635 142.673 94.635 142.673 94.0432 142.969C93.7502 142.676 93.7502 142.676 93.6953 141.962C93.7502 141.211 93.7502 141.211 94.3362 140.625Z" fill="black"/>
<path d="M205.957 137.109C206.525 137.329 206.525 137.329 207.129 137.695C207.367 138.281 207.367 138.281 207.422 138.867C207.325 139.061 207.229 139.254 207.129 139.453C206.561 139.252 206.561 139.252 205.957 138.867C205.719 138.116 205.719 138.116 205.664 137.402C205.761 137.306 205.857 137.209 205.957 137.109Z" fill="black"/>
<path d="M132.422 206.543C132.809 206.736 133.195 206.93 133.594 207.129C133.4 207.516 133.207 207.902 133.008 208.301C132.331 208.301 131.654 208.301 130.957 208.301C130.957 208.011 130.957 207.721 130.957 207.422C131.44 207.325 131.924 207.229 132.422 207.129C132.422 206.936 132.422 206.742 132.422 206.543Z" fill="black"/>
<path d="M208.594 175.195C208.98 175.195 209.367 175.195 209.766 175.195C209.669 175.872 209.572 176.549 209.473 177.246C209.086 177.246 208.699 177.246 208.301 177.246C208.397 176.569 208.494 175.893 208.594 175.195Z" fill="black"/>
<path d="M213.283 169.629C213.669 169.629 214.056 169.629 214.454 169.629C214.358 170.306 214.261 170.982 214.162 171.68C213.775 171.583 213.388 171.486 212.99 171.387C212.977 170.899 212.978 170.41 212.99 169.922C213.086 169.825 213.183 169.729 213.283 169.629Z" fill="black"/>
<path d="M93.7494 152.93C93.846 152.93 93.9427 152.93 94.0423 152.93C94.0423 154.477 94.0423 156.023 94.0423 157.617C93.7523 157.714 93.4622 157.811 93.1634 157.91C92.7728 157.129 92.9668 156.689 93.1634 155.859C93.3568 155.859 93.5501 155.859 93.7494 155.859C93.7494 154.893 93.7494 153.926 93.7494 152.93Z" fill="black"/>
<path d="M89.0625 154.395C89.3525 154.395 89.6426 154.395 89.9414 154.395C90.0381 154.878 90.1348 155.361 90.2344 155.859C89.6543 156.149 89.6543 156.149 89.0625 156.445C88.8691 156.059 88.6758 155.672 88.4766 155.273C88.6699 154.983 88.8633 154.693 89.0625 154.395Z" fill="black"/>
<path d="M98.1447 133.008C98.4347 133.008 98.7247 133.008 99.0236 133.008C98.9269 133.685 98.8302 134.361 98.7306 135.059C98.3439 135.059 97.9572 135.059 97.5587 135.059C97.5221 134.363 97.5221 134.363 97.5587 133.594C97.7521 133.4 97.9454 133.207 98.1447 133.008Z" fill="black"/>
<path d="M207.714 127.441C208.591 127.763 208.841 127.933 209.252 128.796C209.325 129.026 209.397 129.256 209.472 129.492C209.085 129.396 208.699 129.299 208.3 129.199C208.203 129.393 208.107 129.586 208.007 129.785C207.588 129.095 207.396 128.766 207.531 127.954C207.591 127.785 207.652 127.616 207.714 127.441Z" fill="black"/>
<path d="M200.684 113.965C201.27 114.331 201.27 114.331 201.855 114.844C201.855 115.23 201.855 115.617 201.855 116.016C201.372 115.919 200.889 115.822 200.391 115.723C200.208 115.173 200.208 115.173 200.098 114.551C200.291 114.357 200.484 114.164 200.684 113.965Z" fill="black"/>
<path d="M175.488 203.32C176.093 203.394 176.093 203.394 176.66 203.613C176.757 203.807 176.854 204 176.953 204.199C176.569 204.639 176.569 204.639 176.074 205.078C175.784 205.078 175.494 205.078 175.195 205.078C175.012 204.529 175.012 204.529 174.902 203.906C175.096 203.713 175.289 203.52 175.488 203.32Z" fill="black"/>
<path d="M222.07 172.852C222.264 172.852 222.457 172.852 222.656 172.852C222.517 173.328 222.376 173.804 222.235 174.28C222.157 174.545 222.079 174.81 221.998 175.083C221.777 175.781 221.777 175.781 221.484 176.367C221.194 176.271 220.904 176.174 220.605 176.074C220.799 175.978 220.992 175.881 221.191 175.781C221.293 175.098 221.39 174.415 221.484 173.73C221.678 173.44 221.871 173.15 222.07 172.852Z" fill="black"/>
<path d="M98.7318 166.699C99.8671 166.956 99.8671 166.956 100.197 167.285C100.209 167.773 100.209 168.262 100.197 168.75C99.0614 168.494 99.0614 168.494 98.7318 168.164C98.7199 167.676 98.7193 167.187 98.7318 166.699Z" fill="black"/>
<path d="M203.322 124.805C204.09 125.112 204.433 125.288 204.86 126.013C204.932 126.194 205.005 126.376 205.079 126.562C204.596 126.659 204.113 126.756 203.614 126.855C203.029 125.977 203.029 125.977 203.138 125.336C203.199 125.16 203.259 124.985 203.322 124.805Z" fill="black"/>
<path d="M194.531 115.723C195.256 115.868 195.256 115.868 195.996 116.016C196.093 116.499 196.189 116.982 196.289 117.48C195.806 117.384 195.322 117.287 194.824 117.188C194.728 116.704 194.631 116.221 194.531 115.723Z" fill="black"/>
<path d="M114.551 112.5C114.383 113.34 114.298 113.631 113.672 114.258C113.382 114.258 113.092 114.258 112.793 114.258C112.696 113.968 112.6 113.678 112.5 113.379C113.233 112.5 113.302 112.5 114.551 112.5Z" fill="black"/>
<path d="M105.176 110.742C105.563 110.742 105.949 110.742 106.348 110.742C106.444 111.032 106.541 111.322 106.641 111.621C106.351 111.911 106.061 112.201 105.762 112.5C105.375 112.307 104.988 112.113 104.59 111.914C104.783 111.527 104.977 111.141 105.176 110.742Z" fill="black"/>
<path d="M183.105 103.125C183.82 103.345 183.82 103.345 184.57 103.711C184.808 104.333 184.808 104.333 184.863 104.883C184.187 104.786 183.51 104.689 182.812 104.59C182.909 104.106 183.006 103.623 183.105 103.125Z" fill="black"/>
<path d="M160.84 205.371C161.227 205.371 161.613 205.371 162.012 205.371C162.177 205.939 162.177 205.939 162.305 206.543C162.012 206.836 162.012 206.836 161.261 206.854C160.908 206.845 160.908 206.845 160.547 206.836C160.547 205.664 160.547 205.664 160.84 205.371Z" fill="black"/>
<path d="M108.105 191.602C109.094 191.762 109.594 191.911 110.449 192.48C110.353 192.867 110.256 193.254 110.156 193.652C109.431 193.362 109.431 193.362 108.691 193.066C108.788 192.873 108.885 192.68 108.984 192.48C108.694 192.384 108.404 192.287 108.105 192.188C108.105 191.994 108.105 191.801 108.105 191.602Z" fill="black"/>
<path d="M114.258 119.238C114.548 119.335 114.838 119.432 115.137 119.531C115.04 119.918 114.943 120.305 114.844 120.703C114.36 120.8 113.877 120.896 113.379 120.996C113.489 120.282 113.489 120.282 113.672 119.531C113.865 119.435 114.059 119.338 114.258 119.238Z" fill="black"/>
<path d="M118.652 98.1445C118.942 98.2412 119.232 98.3379 119.531 98.4375C119.531 98.8242 119.531 99.2109 119.531 99.6094C119.048 99.7061 118.564 99.8027 118.066 99.9023C117.97 99.5156 117.873 99.1289 117.773 98.7305C118.063 98.5371 118.354 98.3438 118.652 98.1445Z" fill="black"/>
<path d="M115.723 199.512C116.206 199.608 116.689 199.705 117.188 199.805C117.078 200.372 117.078 200.372 116.895 200.977C116.604 201.122 116.604 201.122 116.309 201.27C116.019 201.076 115.729 200.883 115.43 200.684C115.526 200.297 115.623 199.91 115.723 199.512Z" fill="black"/>
<path d="M108.984 194.824C109.707 195.162 110.17 195.424 110.742 195.996C110.452 195.996 110.162 195.996 109.863 195.996C109.863 196.286 109.863 196.576 109.863 196.875C109.477 196.682 109.09 196.488 108.691 196.289C108.788 195.806 108.885 195.322 108.984 194.824Z" fill="black"/>
<path d="M94.6303 135.938C95.2345 136.066 95.2345 136.066 95.8021 136.23C95.7054 136.714 95.6088 137.197 95.5092 137.695C95.1224 137.695 94.7357 137.695 94.3373 137.695C94.3248 137.207 94.3254 136.719 94.3373 136.23C94.434 136.134 94.5306 136.037 94.6303 135.938Z" fill="black"/>
<path d="M168.457 125.391C169.592 125.647 169.592 125.647 169.922 125.977C169.934 126.465 169.934 126.953 169.922 127.441C169.632 127.441 169.342 127.441 169.043 127.441C168.457 126.562 168.457 126.562 168.457 125.391Z" fill="black"/>
<path d="M98.7305 123.926C98.8271 124.119 98.9238 124.312 99.0234 124.512C99.3135 124.512 99.6035 124.512 99.9023 124.512C99.5877 125.366 99.3814 125.912 98.7305 126.562C98.6338 126.272 98.5371 125.982 98.4375 125.684C98.2441 125.587 98.0508 125.49 97.8516 125.391C98.1416 124.907 98.4316 124.424 98.7305 123.926Z" fill="black"/>
<path d="M203.027 120.703C203.752 120.848 203.752 120.848 204.492 120.996C204.589 121.479 204.686 121.963 204.785 122.461C204.302 122.364 203.818 122.268 203.32 122.168C203.224 121.685 203.127 121.201 203.027 120.703Z" fill="black"/>
<path d="M140.918 106.348C141.885 106.348 142.852 106.348 143.848 106.348C143.848 106.831 143.848 107.314 143.848 107.812C143.558 107.958 143.558 107.958 143.262 108.105C142.972 107.912 142.682 107.719 142.383 107.52C142.479 107.326 142.576 107.133 142.676 106.934C141.806 106.789 141.806 106.789 140.918 106.641C140.918 106.544 140.918 106.447 140.918 106.348Z" fill="black"/>
<path d="M188.086 197.754C188.376 197.947 188.666 198.141 188.965 198.34C188.868 198.63 188.771 198.92 188.672 199.219C187.775 199.567 187.775 199.567 186.914 199.805C186.914 199.611 186.914 199.418 186.914 199.219C187.107 199.219 187.301 199.219 187.5 199.219C187.403 198.832 187.307 198.445 187.207 198.047C187.497 197.95 187.787 197.854 188.086 197.754Z" fill="black"/>
<path d="M85.5483 154.98C85.8384 155.077 86.1284 155.174 86.4272 155.273C86.4822 155.969 86.4822 155.969 86.4272 156.738C86.1372 156.932 85.8472 157.125 85.5483 157.324C85.2554 157.031 85.2554 157.031 85.2188 156.152C85.2554 155.273 85.2554 155.273 85.5483 154.98Z" fill="black"/>
<path d="M89.062 145.898C90.0188 147.334 89.9682 148.336 89.9409 150C89.5049 149.665 89.5049 149.665 89.062 149.121C88.9762 148.33 88.9762 148.33 89.0071 147.455C89.015 147.164 89.023 146.872 89.0311 146.572C89.0413 146.35 89.0515 146.128 89.062 145.898Z" fill="black"/>
<path d="M213.868 124.219C214.062 124.315 214.255 124.412 214.454 124.512C214.454 124.705 214.454 124.898 214.454 125.098C214.744 125.194 215.034 125.291 215.333 125.391C215.236 125.777 215.14 126.164 215.04 126.562C214.653 126.466 214.267 126.369 213.868 126.27C213.539 124.878 213.539 124.878 213.868 124.219Z" fill="black"/>
<path d="M189.258 109.863C189.983 110.008 189.983 110.008 190.723 110.156C190.723 110.64 190.723 111.123 190.723 111.621C190.336 111.524 189.949 111.428 189.551 111.328C189.454 110.845 189.357 110.361 189.258 109.863Z" fill="black"/>
<path d="M200.098 199.219C200.388 199.315 200.678 199.412 200.977 199.512C201.073 199.802 201.17 200.092 201.27 200.391C200.979 200.826 200.979 200.826 200.684 201.27C200.297 201.173 199.91 201.076 199.512 200.977C199.705 200.396 199.898 199.816 200.098 199.219Z" fill="black"/>
<path d="M214.16 160.254C214.644 160.351 215.127 160.447 215.625 160.547C215.528 160.934 215.432 161.32 215.332 161.719C214.849 161.622 214.365 161.525 213.867 161.426C213.964 161.039 214.061 160.652 214.16 160.254Z" fill="black"/>
<path d="M211.232 142.09C211.799 142.291 211.799 142.291 212.404 142.676C212.623 143.445 212.623 143.445 212.697 144.141C212.31 144.141 211.923 144.141 211.525 144.141C210.939 143.262 210.939 143.262 211.049 142.621C211.109 142.446 211.169 142.27 211.232 142.09Z" fill="black"/>
<path d="M213.867 137.988C214.254 138.085 214.641 138.182 215.039 138.281C215.136 138.765 215.232 139.248 215.332 139.746C214.945 139.843 214.559 139.939 214.16 140.039C214.063 139.362 213.967 138.686 213.867 137.988Z" fill="black"/>
<path d="M102.539 132.715C102.926 132.908 103.312 133.102 103.711 133.301C103.518 133.688 103.324 134.074 103.125 134.473C102.738 134.376 102.352 134.279 101.953 134.18C102.209 133.044 102.209 133.044 102.539 132.715Z" fill="black"/>
<path d="M217.09 131.543C217.815 131.688 217.815 131.688 218.555 131.836C218.458 132.416 218.361 132.996 218.262 133.594C217.875 133.497 217.488 133.4 217.09 133.301C217.09 132.721 217.09 132.141 217.09 131.543Z" fill="black"/>
<path d="M102.832 108.105C103.557 108.396 103.557 108.396 104.297 108.691C104.104 109.078 103.91 109.465 103.711 109.863C103.421 109.863 103.131 109.863 102.832 109.863C102.832 109.573 102.832 109.283 102.832 108.984C102.639 108.888 102.445 108.791 102.246 108.691C102.439 108.498 102.633 108.305 102.832 108.105Z" fill="black"/>
<path d="M187.5 105.762C188.225 105.907 188.225 105.907 188.965 106.055C188.965 106.538 188.965 107.021 188.965 107.52C188.24 107.229 188.24 107.229 187.5 106.934C187.5 106.547 187.5 106.16 187.5 105.762Z" fill="black"/>
<path d="M210.645 152.93C211.031 153.123 211.418 153.316 211.816 153.516C211.72 153.902 211.623 154.289 211.523 154.688C211.137 154.591 210.75 154.494 210.352 154.395C210.448 153.911 210.545 153.428 210.645 152.93Z" fill="black"/>
<path d="M104.883 129.199C105.173 129.296 105.463 129.393 105.762 129.492C105.665 129.976 105.568 130.459 105.469 130.957C105.082 130.957 104.695 130.957 104.297 130.957C104.553 129.529 104.553 129.529 104.883 129.199Z" fill="black"/>
<path d="M173.73 102.539C174.117 102.732 174.504 102.926 174.902 103.125C174.806 103.512 174.709 103.898 174.609 104.297C174.223 104.2 173.836 104.104 173.438 104.004C173.534 103.521 173.631 103.037 173.73 102.539Z" fill="black"/>
<path d="M195.703 203.613C195.993 203.613 196.283 203.613 196.582 203.613C196.679 203.903 196.775 204.193 196.875 204.492C196.295 204.782 195.715 205.072 195.117 205.371C195.117 204.199 195.117 204.199 195.703 203.613Z" fill="black"/>
<path d="M101.074 191.309C101.624 191.345 101.624 191.345 102.246 191.602C102.612 192.499 102.612 192.499 102.832 193.359C102.118 193.158 102.118 193.158 101.367 192.773C101.129 192.004 101.129 192.004 101.074 191.309Z" fill="black"/>
<path d="M197.461 188.965C197.461 189.352 197.461 189.738 197.461 190.137C196.881 190.233 196.301 190.33 195.703 190.43C195.795 189.862 195.795 189.862 195.996 189.258C196.875 188.965 196.875 188.965 197.461 188.965Z" fill="black"/>
<path d="M207.715 144.141C208.44 144.286 208.44 144.286 209.18 144.434C209.18 144.82 209.18 145.207 209.18 145.605C208.696 145.509 208.213 145.412 207.715 145.312C207.715 144.926 207.715 144.539 207.715 144.141Z" fill="black"/>
<path d="M98.7305 137.988C99.1172 137.988 99.5039 137.988 99.9023 137.988C99.8057 138.472 99.709 138.955 99.6094 139.453C99.2227 139.453 98.8359 139.453 98.4375 139.453C98.5342 138.97 98.6309 138.486 98.7305 137.988Z" fill="black"/>
<path d="M171.973 130.957C172.263 131.054 172.553 131.15 172.852 131.25C173.205 132.312 173.011 132.61 172.559 133.594C171.862 132.897 171.8 132.504 171.68 131.543C171.776 131.35 171.873 131.156 171.973 130.957Z" fill="black"/>
<path d="M145.02 112.793C145.116 113.18 145.213 113.566 145.312 113.965C144.732 114.158 144.152 114.352 143.555 114.551C143.665 113.837 143.665 113.837 143.848 113.086C144.434 112.793 144.434 112.793 145.02 112.793Z" fill="black"/>
<path d="M179.883 105.762C180.45 105.872 180.45 105.872 181.055 106.055C181.151 106.248 181.248 106.441 181.348 106.641C181.251 106.834 181.154 107.027 181.055 107.227C180.571 107.13 180.088 107.033 179.59 106.934C179.687 106.547 179.783 106.16 179.883 105.762Z" fill="black"/>
<path d="M140.039 94.922C139.942 95.212 139.846 95.5021 139.746 95.8009C138.973 95.8009 138.199 95.8009 137.402 95.8009C137.499 95.5109 137.596 95.2208 137.695 94.922C138.562 94.5634 139.159 94.6392 140.039 94.922Z" fill="black"/>
<path d="M202.148 200.391C202.148 200.584 202.148 200.777 202.148 200.977C201.508 201.418 201.508 201.418 200.684 201.892C200.412 202.05 200.14 202.208 199.86 202.37C199.542 202.551 199.542 202.551 199.219 202.734C199.329 202.015 199.392 201.66 199.968 201.192C201.497 200.391 201.497 200.391 202.148 200.391Z" fill="black"/>
<path d="M96.9727 173.438C97.2627 173.534 97.5527 173.631 97.8516 173.73C97.9482 174.021 98.0449 174.311 98.1445 174.609C97.7578 174.899 97.3711 175.189 96.9727 175.488C96.7793 175.005 96.5859 174.521 96.3867 174.023C96.5801 173.83 96.7734 173.637 96.9727 173.438Z" fill="black"/>
<path d="M198.926 116.309C199.313 116.502 199.699 116.695 200.098 116.895C200.098 117.281 200.098 117.668 200.098 118.066C199.711 117.97 199.324 117.873 198.926 117.773C198.761 117.206 198.761 117.206 198.633 116.602C198.729 116.505 198.826 116.408 198.926 116.309Z" fill="black"/>
<path d="M117.279 108.783C117.442 108.85 117.605 108.916 117.773 108.985C117.773 109.178 117.773 109.371 117.773 109.571C117.495 109.607 117.218 109.643 116.931 109.681C115.99 109.781 115.99 109.781 115.43 110.45C115.236 110.45 115.043 110.45 114.844 110.45C115.137 109.571 115.137 109.571 115.814 109.058C116.602 108.692 116.602 108.692 117.279 108.783Z" fill="black"/>
<path d="M209.18 193.066C209.47 193.453 209.76 193.84 210.059 194.238C209.962 194.432 209.865 194.625 209.766 194.824C209.085 194.944 208.401 195.042 207.715 195.117C207.902 194.888 208.089 194.658 208.282 194.421C208.881 193.712 208.881 193.712 209.18 193.066Z" fill="black"/>
<path d="M94.0442 184.863C95.1388 185.228 95.271 185.635 95.802 186.621C95.5119 186.524 95.2219 186.428 94.9231 186.328C94.7297 186.521 94.5363 186.715 94.3371 186.914C93.7512 186.035 93.7512 186.035 93.8611 185.394C93.9215 185.219 93.9819 185.044 94.0442 184.863Z" fill="black"/>
<path d="M182.52 143.848C182.616 143.848 182.713 143.848 182.812 143.848C182.812 144.621 182.812 145.395 182.812 146.191C182.426 146.288 182.039 146.385 181.641 146.484C181.544 145.808 181.447 145.131 181.348 144.434C181.638 144.82 181.928 145.207 182.227 145.605C182.323 145.025 182.42 144.445 182.52 143.848Z" fill="black"/>
<path d="M171.387 124.512C171.773 124.705 172.16 124.898 172.559 125.098C172.462 125.484 172.365 125.871 172.266 126.27C171.879 126.076 171.492 125.883 171.094 125.684C171.19 125.297 171.287 124.91 171.387 124.512Z" fill="black"/>
<path d="M103.418 103.418C103.805 103.611 104.191 103.805 104.59 104.004C104.396 104.197 104.203 104.391 104.004 104.59C104.101 104.783 104.197 104.977 104.297 105.176C102.905 104.626 102.905 104.626 102.246 104.297C102.633 104.007 103.02 103.717 103.418 103.418Z" fill="black"/>
<path d="M208.299 189.258C208.182 190.103 208.068 190.378 207.402 190.942C207.214 191.063 207.027 191.184 206.834 191.309C206.779 190.613 206.779 190.613 206.834 189.844C207.713 189.258 207.713 189.258 208.299 189.258Z" fill="black"/>
<path d="M215.332 144.434C215.719 144.53 216.105 144.627 216.504 144.727C216.504 145.307 216.504 145.887 216.504 146.484C216.311 146.388 216.117 146.291 215.918 146.191C215.918 145.998 215.918 145.805 215.918 145.605C215.725 145.605 215.531 145.605 215.332 145.605C215.332 145.219 215.332 144.832 215.332 144.434Z" fill="black"/>
<path d="M174.609 138.867C174.899 138.867 175.189 138.867 175.488 138.867C175.585 139.447 175.682 140.027 175.781 140.625C175.491 140.722 175.201 140.818 174.902 140.918C174.701 140.188 174.609 139.635 174.609 138.867Z" fill="black"/>
<path d="M185.449 108.691C186.299 108.828 186.582 108.945 187.207 109.57C187.207 109.86 187.207 110.15 187.207 110.449C186.82 110.353 186.434 110.256 186.035 110.156C186.132 109.866 186.229 109.576 186.328 109.277C185.941 109.181 185.555 109.084 185.156 108.984C185.253 108.888 185.35 108.791 185.449 108.691Z" fill="black"/>
<path d="M176.953 101.074C177.823 101.171 178.693 101.268 179.59 101.367C178.627 102.009 178.349 101.981 177.246 101.953C176.956 102.098 176.956 102.098 176.66 102.246C176.757 101.859 176.854 101.473 176.953 101.074Z" fill="black"/>
<path d="M98.4375 160.84C98.5342 160.84 98.6309 160.84 98.7305 160.84C98.7305 161.613 98.7305 162.387 98.7305 163.184C98.3437 163.184 97.957 163.184 97.5586 163.184C97.6553 162.797 97.752 162.41 97.8516 162.012C98.0449 162.012 98.2383 162.012 98.4375 162.012C98.4375 161.625 98.4375 161.238 98.4375 160.84Z" fill="black"/>
<path d="M172.853 132.129C173.311 132.495 173.311 132.495 173.732 133.008C173.64 133.649 173.64 133.649 173.439 134.18C173.149 134.083 172.859 133.986 172.56 133.887C172.547 133.399 172.548 132.91 172.56 132.422C172.657 132.325 172.753 132.229 172.853 132.129Z" fill="black"/>
<path d="M87.0117 122.168C87.4512 122.571 87.4512 122.571 87.8906 123.047C87.8906 123.24 87.8906 123.434 87.8906 123.633C87.4072 123.826 86.9238 124.02 86.4258 124.219C86.2244 123.688 86.2244 123.688 86.1328 123.047C86.554 122.534 86.554 122.534 87.0117 122.168Z" fill="black"/>
<path d="M82.0312 122.168C82.1279 122.361 82.2246 122.555 82.3242 122.754C82.6143 122.657 82.9043 122.561 83.2031 122.461C83.1064 122.848 83.0098 123.234 82.9102 123.633C82.7289 123.578 82.5476 123.524 82.3608 123.468C81.7261 123.27 81.7261 123.27 81.1523 123.633C81.2622 123.065 81.2622 123.065 81.4453 122.461C81.6387 122.364 81.832 122.268 82.0312 122.168Z" fill="black"/>
<path d="M144.727 110.742C144.823 110.742 144.92 110.742 145.02 110.742C145.111 111.566 145.111 111.566 145.02 112.5C144.287 113.049 144.287 113.049 143.555 113.379C143.906 112.476 144.28 111.603 144.727 110.742Z" fill="black"/>
<path d="M165.82 205.078C166.311 205.162 166.8 205.259 167.285 205.371C167.188 205.758 167.092 206.145 166.992 206.543C166.605 206.446 166.219 206.35 165.82 206.25C166.11 206.25 166.4 206.25 166.699 206.25C166.699 206.057 166.699 205.863 166.699 205.664C166.312 205.567 165.926 205.471 165.527 205.371C165.624 205.274 165.721 205.178 165.82 205.078Z" fill="black"/>
<path d="M201.855 195.703C201.855 196.09 201.855 196.477 201.855 196.875C201.674 196.815 201.493 196.754 201.306 196.692C201.101 196.656 200.895 196.619 200.684 196.582C200.49 196.775 200.297 196.969 200.098 197.168C200.098 196.781 200.098 196.395 200.098 195.996C200.706 195.834 201.224 195.703 201.855 195.703Z" fill="black"/>
<path d="M211.23 178.418C211.424 178.515 211.617 178.611 211.816 178.711C211.72 179.098 211.623 179.484 211.523 179.883C211.137 179.883 210.75 179.883 210.352 179.883C210.352 179.496 210.352 179.109 210.352 178.711C210.642 178.614 210.932 178.518 211.23 178.418Z" fill="black"/>
<path d="M209.18 137.402C209.663 137.402 210.146 137.402 210.645 137.402C210.741 137.789 210.838 138.176 210.938 138.574C210.551 138.574 210.164 138.574 209.766 138.574C209.572 138.187 209.379 137.801 209.18 137.402Z" fill="black"/>
<path d="M180.762 136.523C181.052 136.523 181.342 136.523 181.641 136.523C181.641 137.104 181.641 137.684 181.641 138.281C181.351 138.378 181.061 138.475 180.762 138.574C180.762 137.897 180.762 137.221 180.762 136.523Z" fill="black"/>
<path d="M91.6992 134.18C91.9893 134.18 92.2793 134.18 92.5781 134.18C92.5781 134.663 92.5781 135.146 92.5781 135.645C92.1914 135.548 91.8047 135.451 91.4062 135.352C91.5029 134.965 91.5996 134.578 91.6992 134.18Z" fill="black"/>
<path d="M191.016 104.297C190.919 104.684 190.822 105.071 190.723 105.469C189.869 105.154 189.323 104.948 188.672 104.297C189.51 103.878 190.117 104.121 191.016 104.297Z" fill="black"/>
<path d="M159.668 86.4258C159.958 86.5225 160.248 86.6191 160.547 86.7188C160.45 87.0088 160.354 87.2988 160.254 87.5977C160.061 87.5977 159.867 87.5977 159.668 87.5977C159.668 87.791 159.668 87.9844 159.668 88.1836C159.281 88.0869 158.895 87.9902 158.496 87.8906C158.689 87.8906 158.883 87.8906 159.082 87.8906C159.275 87.4072 159.469 86.9238 159.668 86.4258Z" fill="black"/>
<path d="M181.348 141.504C181.638 141.504 181.928 141.504 182.227 141.504C182.323 142.084 182.42 142.664 182.52 143.262C181.794 142.972 181.794 142.972 181.055 142.676C181.151 142.289 181.248 141.902 181.348 141.504Z" fill="black"/>
<path d="M123.34 94.0429C123.437 94.2363 123.533 94.4297 123.633 94.6289C122.753 94.9223 121.911 95.0725 120.996 95.2148C120.996 95.0215 120.996 94.8281 120.996 94.6289C121.942 93.9984 122.251 93.9841 123.34 94.0429Z" fill="black"/>
</svg>
