<svg width="300" height="300" viewBox="0 0 300 300" fill="none" xmlns="http://www.w3.org/2000/svg">
<path d="M157.031 64.0871C157.304 64.1051 157.576 64.1231 157.858 64.1417C159.474 64.2873 160.466 64.5738 161.718 65.6252C165.812 73.8116 161.955 91.7673 161.24 100.754C161.155 101.841 161.106 102.913 161.132 104.004C161.34 103.738 161.34 103.738 161.552 103.466C163.658 100.798 165.807 98.2373 168.457 96.0939C168.733 95.8681 169.01 95.6423 169.295 95.4096C171.62 93.5489 174.061 91.9766 176.66 90.5275C176.988 90.3432 177.316 90.1589 177.654 89.9691C185.913 85.5851 195.586 84.5509 204.549 87.2022C208.691 88.5147 212.347 90.6025 215.625 93.4572C215.865 93.6619 216.105 93.8666 216.352 94.0775C221.356 98.4443 224.871 103.728 227.929 109.571C228.085 109.864 228.085 109.864 228.245 110.164C238.393 129.313 240.574 153.475 234.292 174.187C234.032 175.013 233.766 175.837 233.496 176.66C233.418 176.9 233.34 177.139 233.26 177.386C230.094 186.984 224.854 196.035 218.554 203.906C218.246 204.3 218.246 204.3 217.931 204.702C213.83 209.844 209.139 214.299 203.906 218.262C203.738 218.391 203.569 218.521 203.396 218.654C200.201 221.109 196.825 223.243 193.359 225.293C193.167 225.407 192.976 225.52 192.778 225.637C183.095 231.293 171.637 234.545 160.546 235.84C160.22 235.881 160.22 235.881 159.887 235.924C156.94 236.25 153.968 236.204 151.007 236.206C150.566 236.207 150.566 236.207 150.116 236.207C145.522 236.204 141.064 236.001 136.523 235.254C136.255 235.213 135.987 235.173 135.71 235.13C119.258 232.617 103.773 225.274 91.4058 214.16C91.2374 214.01 91.0689 213.86 90.8953 213.705C89.1979 212.185 87.5276 210.664 86.066 208.91C85.4319 208.167 84.7554 207.47 84.0816 206.763C72.589 194.409 65.5996 177.923 62.9879 161.426C62.9486 161.182 62.9092 160.939 62.8687 160.687C61.756 153.405 61.9153 145.264 62.9879 137.988C63.0241 137.731 63.0603 137.474 63.0976 137.209C64.8761 124.901 69.4157 112.805 76.4644 102.539C76.5963 102.346 76.7281 102.154 76.864 101.955C78.9688 98.8988 81.2419 96.0146 83.744 93.273C84.3068 92.653 84.855 92.0237 85.4 91.3881C87.2434 89.2765 89.258 87.3455 91.4058 85.5471C91.5593 85.4173 91.7128 85.2875 91.8709 85.1538C110.288 69.6354 133.006 62.3105 157.031 64.0871ZM94.6285 90.8205C94.4709 90.96 94.3133 91.0995 94.151 91.2432C85.5087 98.674 85.5087 98.674 80.4561 108.344C80.6019 109.582 81.0915 109.96 82.0308 110.742C85.3719 112.413 91.4641 110.603 94.9293 110.084C111.269 107.65 127.569 106.584 143.933 109.517C144.213 109.566 144.494 109.616 144.783 109.667C145.151 109.734 145.151 109.734 145.525 109.803C146.217 109.866 146.705 109.78 147.363 109.571C145.38 106.968 143.327 104.48 141.062 102.118C140.776 101.818 140.491 101.517 140.207 101.214C134.491 95.1046 127.132 90.3972 118.945 88.4768C118.475 85.8942 118.475 85.8942 119.183 84.5034C119.96 83.6376 120.158 83.5161 121.312 83.4253C122.676 83.5096 123.755 83.8541 125.024 84.3386C125.265 84.4295 125.506 84.5204 125.754 84.614C137.217 89.0841 146.229 98.0452 153.424 107.794C153.759 108.239 153.759 108.239 154.101 108.692C154.198 108.692 154.295 108.692 154.394 108.692C154.543 106.544 154.69 104.397 154.837 102.249C154.906 101.251 154.974 100.253 155.043 99.2556C155.524 92.3005 155.91 85.3956 155.897 78.4224C155.896 77.398 155.897 76.3736 155.899 75.3492C155.899 74.6973 155.898 74.0454 155.898 73.3934C155.899 72.9344 155.899 72.9344 155.9 72.4661C155.899 72.1869 155.898 71.9076 155.897 71.6199C155.897 71.3737 155.896 71.1274 155.896 70.8738C155.921 70.3101 155.921 70.3101 155.566 70.0197C133.856 67.0768 110.576 76.5198 94.6285 90.8205ZM167.846 105.382C166.449 106.877 166.449 106.877 165.82 108.692C166.19 108.59 166.19 108.59 166.567 108.487C171.978 107.065 177.535 106.014 183.105 105.469C183.404 105.436 183.703 105.404 184.01 105.371C198.655 104.031 212.289 106.743 223.828 116.016C224.195 115.453 224.195 115.453 223.954 114.917C223.859 114.713 223.763 114.509 223.665 114.299C223.559 114.071 223.453 113.843 223.343 113.608C223.225 113.363 223.107 113.118 222.985 112.866C222.865 112.615 222.744 112.364 222.62 112.106C221.524 109.867 220.282 107.797 218.847 105.762C218.625 105.447 218.403 105.132 218.174 104.807C213.367 98.1943 206.995 93.3898 198.777 92.0842C186.653 90.5609 175.667 96.4507 167.846 105.382ZM163.476 116.016C164.238 116.61 164.992 117.106 165.849 117.552C171.251 120.413 176.096 123.792 180.761 127.735C181.005 127.937 181.249 128.139 181.501 128.347C182.662 129.328 183.66 130.382 184.641 131.543C185.14 132.111 185.666 132.619 186.218 133.136C198.667 145.465 205.679 165.426 205.775 182.656C205.775 183.19 205.775 183.725 205.774 184.259C205.773 184.535 205.773 184.81 205.773 185.094C205.747 194.912 203.641 203.829 199.141 212.56C198.731 213.378 198.368 214.184 198.046 215.039C199.488 214.262 200.715 213.423 201.947 212.348C202.112 212.205 202.277 212.063 202.447 211.916C202.935 211.494 203.421 211.07 203.906 210.645C204.151 210.433 204.396 210.221 204.649 210.003C207.989 207.064 211.149 203.917 213.867 200.391C214.1 200.097 214.334 199.803 214.574 199.5C226.731 184.112 233.15 164.264 231.08 144.659C229.995 135.658 226.544 127.602 220.312 120.996C220.055 120.716 220.055 120.716 219.793 120.43C213.407 113.7 203.161 111.322 194.229 111.004C183.932 110.802 173.015 111.878 163.476 116.016ZM100.867 115.131C100.559 115.17 100.559 115.17 100.245 115.21C98.1595 115.476 96.0742 115.745 93.9903 116.025C93.394 116.105 92.7975 116.184 92.201 116.262C91.4654 116.359 90.7301 116.458 89.9951 116.56C85.8005 117.11 81.4079 117.457 77.8183 114.841C77.311 114.475 77.311 114.475 76.4644 114.551C72.6879 122.032 70.1645 129.936 69.1585 138.263C69.1208 138.574 69.0831 138.884 69.0442 139.204C68.6228 143.184 69.2721 146.351 71.7655 149.57C73.8751 151.805 76.4908 152.887 79.5406 153.04C86.9303 152.847 92.8012 147.971 98.1361 143.394C100.7 141.195 103.349 139.131 106.054 137.11C106.363 136.877 106.363 136.877 106.678 136.64C118.35 127.885 131.986 120.21 146.191 116.602C146.191 116.408 146.191 116.215 146.191 116.016C130.978 113.072 116.199 113.176 100.867 115.131ZM147.217 127.036C146.792 127.428 146.36 127.813 145.928 128.198C142.389 131.362 139.159 134.839 136.23 138.574C135.918 138.962 135.605 139.35 135.293 139.738C125.701 151.739 118.67 166.276 116.894 181.641C116.865 181.89 116.836 182.14 116.807 182.397C116.63 184.167 116.585 185.915 116.603 187.691C116.607 188.023 116.607 188.023 116.61 188.362C116.621 189.278 116.634 190.195 116.651 191.112C116.664 191.791 116.671 192.469 116.677 193.148C116.685 193.456 116.685 193.456 116.693 193.771C116.7 195.059 116.518 195.856 115.722 196.875C114.646 197.592 113.75 197.67 112.5 197.461C111.63 196.814 111.378 196.44 111.035 195.41C110.995 194.554 110.973 193.704 110.965 192.847C110.961 192.461 110.961 192.461 110.956 192.068C110.905 186.242 110.988 180.625 112.207 174.903C112.266 174.613 112.326 174.324 112.387 174.025C116.386 155.129 127.257 138.199 140.918 124.805C139.913 124.47 139.783 124.537 138.854 124.936C138.616 125.038 138.377 125.14 138.132 125.245C137.873 125.359 137.614 125.474 137.347 125.592C137.075 125.711 136.803 125.83 136.523 125.953C127.195 130.092 117.883 135.153 109.863 141.504C109.534 141.759 109.205 142.013 108.875 142.267C107.171 143.588 105.496 144.937 103.857 146.338C95.9946 153.043 88.047 158.993 77.27 158.563C74.33 158.32 71.7527 157.055 69.4332 155.274C69.1431 155.08 68.8531 154.887 68.5543 154.688C68.0481 173.201 78.586 192.397 90.9519 205.481C93.4139 208.062 95.9068 210.506 98.7301 212.696C99.1561 213.041 99.1561 213.041 99.5907 213.394C105.27 217.923 111.852 221.557 118.945 223.242C119.236 223.314 119.528 223.385 119.828 223.459C125.352 224.593 131.168 223.924 136.23 221.485C136.491 221.365 136.751 221.246 137.02 221.123C147.152 216.101 152.732 204.075 156.152 193.946C159.161 184.674 160.62 174.968 160.839 165.235C160.849 164.852 160.849 164.852 160.859 164.462C161.169 150.26 159.284 134.832 153.808 121.582C151.96 121.582 148.621 125.729 147.217 127.036ZM160.546 121.875C160.917 123.824 161.353 125.744 161.853 127.664C161.993 128.205 162.132 128.747 162.271 129.289C162.342 129.567 162.414 129.846 162.487 130.133C163.722 134.969 164.929 139.764 165.527 144.727C165.567 145.054 165.608 145.382 165.65 145.719C167.905 164.457 166.711 183.997 159.375 201.563C159.283 201.788 159.191 202.013 159.096 202.245C154.607 213.163 147.348 223.222 136.223 227.921C135.738 228.122 135.252 228.319 134.765 228.516C139.116 230.897 146.111 230.076 150.915 230.091C151.222 230.093 151.529 230.095 151.845 230.097C157.593 230.131 163.269 229.64 168.896 228.424C169.33 228.332 169.33 228.332 169.772 228.237C179.586 226.045 187.701 219.875 193.121 211.505C200.885 199.08 201.645 183.398 198.596 169.373C195.329 155.392 187.997 141.026 176.66 131.836C176.345 131.573 176.03 131.309 175.714 131.045C168.717 125.008 168.717 125.008 160.546 121.875Z" fill="black"/>
<path d="M91.9922 153.809C92.8623 153.954 92.8623 153.954 93.75 154.102C92.3584 155.273 92.3584 155.273 91.6992 155.273C91.7959 154.79 91.8926 154.307 91.9922 153.809Z" fill="black"/>
<path d="M135.645 129.785C135.741 129.979 135.838 130.172 135.938 130.371C134.92 132.079 134.92 132.079 134.138 132.331C133.959 132.361 133.779 132.391 133.594 132.422C133.88 132.037 134.167 131.653 134.454 131.268C134.614 131.054 134.774 130.84 134.938 130.619C135.352 130.078 135.352 130.078 135.645 129.785Z" fill="black"/>
</svg>
