<svg width="300" height="300" viewBox="0 0 300 300" fill="none" xmlns="http://www.w3.org/2000/svg">
<path d="M164.647 56.8359C164.852 56.893 165.057 56.95 165.268 57.0087C171.202 58.7124 176.903 61.9357 181.347 66.2109C181.742 66.5485 182.138 66.8843 182.537 67.218C190.525 74.2298 193.721 83.5938 195.205 93.774C197.056 106.457 199.983 118.217 205.663 129.785C205.826 130.118 205.989 130.451 206.157 130.794C207.707 133.952 209.277 137.1 210.945 140.198C216.979 151.422 220.462 163.776 220.403 176.55C220.402 176.914 220.402 176.914 220.401 177.285C220.363 187.807 217.878 197.672 213.28 207.129C213.137 207.424 213.137 207.424 212.991 207.726C207.165 219.57 197.443 229.346 186.034 235.84C185.814 235.966 185.595 236.091 185.369 236.221C169.032 245.466 148.132 247.545 130.077 242.578C119.765 239.665 110.247 234.747 102.385 227.428C101.771 226.862 101.146 226.323 100.506 225.787C95.5791 221.472 91.8001 215.942 88.4755 210.352C88.3658 210.168 88.256 209.985 88.1429 209.797C78.8517 194.066 77.8258 174.882 82.1206 157.488C84.0369 150.169 87.2894 143.272 90.9261 136.668C98.1776 123.471 103.249 109.495 104.907 94.4791C106.075 83.929 109.652 75.7661 116.894 67.9688C117.055 67.7916 117.216 67.6145 117.382 67.432C129.197 54.9758 148.802 52.4088 164.647 56.8359ZM123.632 73.5352C123.632 73.7285 123.632 73.9219 123.632 74.1211C123.438 74.1211 123.245 74.1211 123.046 74.1211C116.895 79.7481 114.685 87.6653 113.796 95.6384C112.43 107.73 109.167 118.971 104.125 130.043C103.705 130.968 103.293 131.897 102.881 132.826C101.666 135.551 100.434 138.2 98.8506 140.731C89.5977 155.644 86.5229 173.976 90.262 191.06C92.6683 201.297 98.0919 211.307 105.761 218.555C107.226 220.02 107.226 220.02 107.635 220.46C116.69 229.979 131.34 235.297 144.265 235.871C144.984 235.888 145.703 235.896 146.423 235.899C146.687 235.901 146.95 235.903 147.222 235.906C148.068 235.911 148.915 235.913 149.761 235.913C150.195 235.913 150.195 235.913 150.637 235.914C154.876 235.909 159.015 235.806 163.183 234.961C163.56 234.888 163.56 234.888 163.945 234.813C169.75 233.66 175.276 231.64 180.468 228.809C180.643 228.715 180.818 228.621 180.998 228.525C183.712 227.068 186.213 225.387 188.671 223.535C188.928 223.345 189.184 223.154 189.449 222.958C193.887 219.506 197.841 215.306 200.976 210.645C201.18 210.341 201.385 210.037 201.596 209.723C202.201 208.777 202.768 207.814 203.319 206.836C203.441 206.623 203.563 206.41 203.689 206.19C211.902 191.694 213.351 174.987 209.068 159.001C207.586 153.736 205.596 148.673 203.026 143.848C202.809 143.437 202.592 143.027 202.375 142.616C202.042 141.986 201.708 141.357 201.373 140.728C200.329 138.763 199.322 136.782 198.343 134.785C198.145 134.381 197.945 133.977 197.744 133.575C191.416 120.86 187.721 107.433 186.162 93.3289C185.405 86.5994 183.04 81.0918 178.71 75.8789C178.486 75.5828 178.263 75.2867 178.032 74.9817C176.822 73.6588 175.438 72.5802 174.022 71.4844C173.683 71.221 173.683 71.221 173.337 70.9522C166.504 65.918 158.415 63.8013 150.017 63.794C149.713 63.7937 149.713 63.7937 149.403 63.7934C140.133 63.8077 130.379 66.9027 123.632 73.5352Z" fill="black"/>
<path d="M158.497 141.211C158.812 141.289 159.128 141.367 159.453 141.448C167.847 143.774 175.098 149.534 179.513 157.015C184.164 165.255 185.863 175.339 183.399 184.57C180.825 193.693 174.951 201.486 166.712 206.211C161.479 209.118 156.04 210.472 150.055 210.443C149.694 210.441 149.332 210.44 148.959 210.438C146.359 210.403 144.009 210.213 141.504 209.473C141.302 209.416 141.099 209.359 140.89 209.301C131.832 206.737 124.734 200.721 120.153 192.563C117.203 187.14 115.898 181.64 115.906 175.47C115.906 175.271 115.907 175.072 115.907 174.867C115.919 171.546 116.195 168.418 117.188 165.234C117.251 165.032 117.314 164.83 117.378 164.621C120.248 155.709 126.429 148.119 134.783 143.831C137.414 142.551 140.117 141.585 142.969 140.918C143.251 140.852 143.533 140.786 143.824 140.718C148.602 139.803 153.795 140.004 158.497 141.211ZM130.665 158.203C125.644 164.345 124.371 171.552 124.805 179.297C125.556 185.919 129.176 191.853 134.165 196.155C139.539 200.349 146.161 202.195 152.935 201.502C160.162 200.568 165.969 197.005 170.508 191.309C174.736 185.429 176.328 178.198 175.341 171.04C174.443 166.108 172.541 161.756 169.336 157.91C169.191 157.718 169.045 157.526 168.895 157.329C164.99 152.423 158.535 149.905 152.488 149.213C144.049 148.457 136.245 151.895 130.665 158.203Z" fill="black"/>
</svg>
