<svg width="300" height="300" viewBox="0 0 300 300" fill="none" xmlns="http://www.w3.org/2000/svg">
<path d="M164.063 78.5157C166.344 80.4707 167.929 82.723 168.249 85.7678C168.396 88.793 167.32 90.6133 165.527 92.9627C163.245 96.005 162.539 99.2843 162.561 103.015C162.562 103.246 162.562 103.478 162.563 103.716C162.575 105.377 162.676 107.019 162.825 108.674C162.933 110.144 162.915 111.613 162.891 113.086C163.178 112.916 163.466 112.746 163.762 112.571C175.273 105.862 188.597 105.243 201.352 108.473C207.859 110.258 214.177 113.766 219.1 118.363C219.606 118.834 220.118 119.269 220.66 119.696C221.738 120.63 222.628 121.655 223.535 122.754C223.898 123.188 223.898 123.188 224.269 123.632C235.212 136.97 239.214 154.889 237.689 171.845C236.286 185.422 231.433 199.002 221.777 208.887C221.544 209.139 221.31 209.391 221.069 209.65C215.301 215.719 206.995 219.791 198.586 220.048C197.919 220.058 197.252 220.068 196.585 220.077C192.857 220.133 189.999 220.67 186.586 222.139C181.589 224.174 175.254 222.868 170.36 221.227C168.752 220.623 168.752 220.623 167.147 220.91C166.896 221.063 166.646 221.217 166.388 221.375C162.768 223.46 158.884 224.747 154.688 225C154.236 225.028 154.236 225.028 153.775 225.057C148.743 225.219 143.201 224.17 138.994 221.257C138.032 220.773 137.552 220.914 136.524 221.191C135.878 221.411 135.238 221.644 134.601 221.887C132.63 222.608 130.67 223.127 128.613 223.535C128.281 223.602 127.949 223.668 127.606 223.737C122.773 224.161 117.721 223.599 113.421 221.178C111.933 220.354 110.835 220.172 109.149 220.258C108.682 220.268 108.215 220.278 107.747 220.286C107.513 220.292 107.279 220.297 107.038 220.302C96.2478 220.461 86.6106 216.352 78.8567 208.934C70.3957 200.614 65.6248 188.99 63.2813 177.539C63.2325 177.31 63.1837 177.082 63.1334 176.846C60.2605 162.776 62.5962 146.472 69.4337 133.887C69.5403 133.687 69.6469 133.488 69.7567 133.282C71.1368 130.707 72.6048 128.279 74.4142 125.977C74.6185 125.716 74.8228 125.455 75.0333 125.187C77.587 122.003 80.2256 119.07 83.4962 116.602C83.7266 116.426 83.7266 116.426 83.9617 116.247C92.5313 109.763 102.385 106.431 113.123 106.512C113.494 106.514 113.494 106.514 113.873 106.515C117.995 106.535 121.958 106.839 125.977 107.813C126.317 107.892 126.317 107.892 126.663 107.974C130.518 108.91 134.309 110.428 137.695 112.5C137.701 112.127 137.707 111.753 137.713 111.369C137.736 109.96 137.762 108.55 137.788 107.141C137.799 106.536 137.81 105.93 137.819 105.325C137.956 96.5036 138.766 88.0997 144.727 81.1524C144.928 80.9152 145.128 80.678 145.335 80.4337C150.483 74.8285 157.988 73.7179 164.063 78.5157ZM149.121 88.1836C145.577 94.0315 145.558 100.219 145.587 106.86C145.589 107.437 145.59 108.014 145.591 108.591C145.594 109.992 145.599 111.392 145.606 112.793C146.055 112.723 146.055 112.723 146.514 112.652C147.525 112.517 148.504 112.443 149.523 112.407C149.86 112.395 150.197 112.383 150.544 112.37C150.89 112.359 151.237 112.347 151.593 112.335C151.947 112.323 152.301 112.31 152.666 112.297C153.535 112.266 154.404 112.236 155.274 112.207C155.253 111.986 155.233 111.766 155.212 111.538C155.007 109.135 154.917 106.742 154.91 104.331C154.907 103.731 154.898 103.131 154.889 102.531C154.842 96.6394 156.726 91.864 159.961 87.0118C160.206 86.1837 160.206 86.1837 159.961 85.2539C159.153 84.161 158.238 83.3715 156.912 83.012C153.342 82.7804 150.968 85.4544 149.121 88.1836ZM83.0812 127.5C77.9219 133.363 74.1983 140.453 72.0704 147.949C71.9856 148.245 71.9856 148.245 71.8992 148.547C67.6916 163.668 70 180.47 77.3438 194.238C78.7686 196.753 80.4475 199.073 82.3243 201.27C82.5252 201.51 82.7261 201.75 82.9331 201.997C87.9169 207.77 94.4802 211.141 101.953 212.402C102.789 212.443 102.789 212.443 103.418 212.402C103.297 212.221 103.176 212.039 103.052 211.852C96.4013 201.653 93.1263 189.579 91.9923 177.539C91.9647 177.247 91.937 176.955 91.9086 176.654C91.6906 174.118 91.6285 171.587 91.6261 169.043C91.6258 168.828 91.6255 168.614 91.6252 168.393C91.6404 151.803 96.1522 133.686 108.051 121.509C111.16 118.441 114.714 116.382 118.652 114.551C118.652 114.454 118.652 114.357 118.652 114.258C104.823 113.93 92.7618 116.99 83.0812 127.5ZM182.52 114.258C183.334 115.257 184.459 115.696 185.596 116.235C193.171 119.961 198.342 125.833 202.149 133.301C202.248 133.491 202.347 133.681 202.449 133.876C206.714 142.113 208.67 151.403 209.766 160.547C209.791 160.757 209.816 160.967 209.843 161.184C210.06 163.135 210.11 165.068 210.118 167.03C210.12 167.366 210.122 167.702 210.123 168.049C210.126 168.759 210.128 169.469 210.129 170.18C210.132 171.24 210.141 172.301 210.15 173.361C210.177 179.178 209.712 184.911 208.521 190.613C208.459 190.911 208.397 191.21 208.334 191.517C206.796 198.684 204.264 205.574 200.391 211.816C201.728 212.243 202.752 211.82 204.035 211.377C204.27 211.296 204.505 211.216 204.748 211.132C213.928 207.877 220.274 200.324 224.373 191.744C227.158 185.676 228.906 179.184 229.688 172.559C229.715 172.325 229.743 172.091 229.771 171.85C230.918 160.877 229.58 149.53 225 139.453C224.858 139.139 224.858 139.139 224.714 138.819C220.294 129.161 212.754 121.072 202.753 117.196C196.204 114.805 189.444 114.169 182.52 114.258ZM113.672 126.856C113.291 127.218 113.291 127.218 112.903 127.588C112.673 127.83 112.444 128.071 112.207 128.32C112.041 128.488 111.874 128.656 111.702 128.83C103.799 137.173 100.438 150.058 99.3165 161.133C99.2784 161.48 99.2402 161.827 99.2009 162.185C97.8417 177.136 100.389 196.295 109.918 208.466C110.735 209.439 111.566 210.367 112.5 211.231C112.654 211.386 112.808 211.541 112.966 211.701C116.135 214.736 120.104 216.037 124.42 216.01C124.673 216.009 124.926 216.009 125.186 216.008C127.389 215.976 129.416 215.631 131.543 215.039C131.543 213.743 131.437 213.607 130.682 212.64C122.005 200.649 120.347 183.69 120.337 169.354C120.337 169.058 120.336 168.762 120.336 168.456C120.341 161.137 120.886 153.943 122.461 146.777C122.523 146.496 122.584 146.215 122.647 145.926C124.694 136.784 128.092 127.667 134.18 120.41C133.037 119.648 132.064 119.724 130.737 119.733C130.489 119.734 130.24 119.736 129.984 119.737C123.499 119.856 118.304 122.409 113.672 126.856ZM145.606 120.996C145.212 121.205 145.212 121.205 144.81 121.417C137.034 125.954 133.222 135.487 130.922 143.747C129.443 149.371 128.546 155.054 128.027 160.84C127.996 161.172 127.996 161.172 127.965 161.51C126.566 177.003 128.132 197.697 138.153 210.37C141.207 213.899 144.991 216.469 149.725 217.017C150.207 217.048 150.689 217.072 151.172 217.09C151.421 217.102 151.67 217.113 151.926 217.125C157.839 217.272 162.318 215.437 166.554 211.412C174.513 203.011 176.756 190.666 177.832 179.59C177.853 179.382 177.874 179.174 177.896 178.96C178.028 177.609 178.091 176.259 178.125 174.902C178.133 174.594 178.141 174.285 178.149 173.968C178.495 158.002 176.517 138.195 164.961 126.016C164.761 125.809 164.561 125.603 164.356 125.391C164.195 125.209 164.035 125.027 163.869 124.839C161.143 121.852 157.28 119.962 153.258 119.714C150.537 119.617 148.051 119.677 145.606 120.996ZM170.215 119.824C170.654 120.821 171.238 121.535 171.954 122.351C185.129 138.296 186.958 162.417 185.219 182.171C184.117 193.54 180.969 205.192 174.024 214.453C174.374 214.544 174.724 214.634 175.086 214.728C175.381 214.804 175.381 214.804 175.683 214.882C179.116 215.669 182.72 215.705 186.035 214.453C186.339 214.341 186.339 214.341 186.65 214.227C188.499 213.425 189.887 212.041 191.309 210.645C191.508 210.452 191.707 210.26 191.913 210.062C197.59 204.167 199.893 195.367 201.489 187.592C201.548 187.31 201.606 187.029 201.666 186.739C202.624 181.835 202.844 176.978 202.826 171.991C202.825 171.689 202.825 171.386 202.824 171.075C202.797 161.81 201.559 152.954 198.633 144.141C198.568 143.94 198.503 143.74 198.435 143.533C195.665 135.128 190.592 127.003 182.594 122.781C178.647 120.867 174.564 120.068 170.215 119.824Z" fill="black"/>
</svg>
