<svg width="300" height="300" viewBox="0 0 300 300" fill="none" xmlns="http://www.w3.org/2000/svg">
<path d="M164.743 67.9904C165.252 68.3216 165.252 68.3216 166.002 68.2801C166.747 67.9707 166.747 67.9707 167.541 67.4012C169.825 65.8933 172.494 65.9103 175.141 66.3472C177.189 66.8756 178.493 67.8786 179.827 69.4886C180.375 70.7862 180.554 72.1475 180.761 73.5352C181.149 73.2967 181.149 73.2967 181.545 73.0534C185.953 70.3986 190.175 69.5771 195.226 70.7886C199.807 72.0045 202.727 75.0159 205.077 79.0145C206.847 82.1251 207.806 85.2913 208.593 88.7696C208.764 88.5464 208.764 88.5464 208.938 88.3187C211.101 85.6573 213.945 84.0407 217.364 83.6609C220.454 83.8136 223.244 85.8271 225.348 87.9536C229.099 92.3655 232.26 99.3603 232.121 105.225C231.832 107.875 230.698 109.798 228.808 111.621C228.409 112.02 228.409 112.02 228.002 112.427C226.703 113.326 225.324 113.781 223.827 114.258C224.404 115.245 225.021 116.174 225.695 117.096C227.717 119.973 229.189 122.964 228.808 126.563C228.356 128.864 227.627 130.709 225.687 132.1C225.215 132.414 224.743 132.727 224.268 133.037C222.12 134.478 220.31 136.293 218.465 138.094C218.068 138.478 217.662 138.852 217.252 139.223C210.612 145.354 208.485 155.102 206.343 163.486C203.683 173.892 199.914 183.668 195.482 193.451C195.393 193.648 195.304 193.845 195.212 194.048C194.217 196.241 193.19 198.416 192.117 200.571C192.022 200.763 191.926 200.955 191.828 201.152C187.336 210.097 179.383 216.332 170.214 220.02C170.02 220.02 169.827 220.02 169.628 220.02C169.633 220.249 169.637 220.478 169.642 220.714C169.719 225.171 169.675 229.587 169.262 234.027C169.214 234.595 169.214 234.595 169.165 235.174C169.129 235.522 169.093 235.871 169.056 236.23C169.025 236.537 168.994 236.845 168.963 237.161C168.749 237.891 168.749 237.891 168.307 238.283C167.198 238.577 166.102 238.554 164.963 238.544C164.564 238.544 164.564 238.544 164.157 238.544C163.271 238.543 162.384 238.537 161.498 238.532C160.875 238.529 160.252 238.527 159.63 238.525C154.667 238.504 149.706 238.433 144.744 238.348C144.224 238.34 144.224 238.34 143.694 238.331C130.29 238.104 130.29 238.104 128.905 236.719C128.828 235.513 128.85 234.302 128.85 233.093C128.85 232.73 128.85 232.366 128.85 231.992C128.871 228.182 129.149 224.399 129.491 220.605C129.121 220.497 129.121 220.497 128.744 220.387C127.626 219.98 126.64 219.444 125.628 218.829C125.435 218.713 125.243 218.597 125.045 218.477C123.272 217.381 121.682 216.122 120.116 214.746C119.867 214.535 119.617 214.325 119.36 214.108C117.529 212.527 116.03 210.794 114.55 208.887C114.318 208.597 114.086 208.308 113.847 208.01C110.178 203.369 107.307 198.311 104.589 193.066C104.47 192.84 104.352 192.613 104.23 192.379C99.5572 183.322 96.4583 173.315 93.2214 163.677C88.3127 149.088 82.0284 135.254 72.9482 122.754C72.533 122.182 72.1181 121.609 71.7045 121.036C71.4571 120.694 71.2086 120.352 70.9585 120.011C69.1201 117.472 69.1201 117.472 69.1763 115.814C69.5265 114.488 69.5265 114.488 70.3115 113.965C70.9524 113.763 70.9524 113.763 71.4834 113.672C71.4247 112.292 71.1734 111.504 70.3664 110.376C68.8643 108.248 67.8119 105.763 68.2607 103.125C69.0404 100.322 70.374 98.2699 72.8567 96.7347C74.4982 95.8394 76.1024 95.2962 77.9287 94.9219C78.2187 94.8554 78.5088 94.789 78.8076 94.7205C86.4236 93.9272 94.1257 97.0161 100.03 101.697C100.476 102.074 100.922 102.452 101.366 102.832C101.914 103.273 102.463 103.713 103.014 104.15C103.441 104.492 103.869 104.834 104.296 105.176C104.244 104.837 104.192 104.499 104.138 104.15C103.985 102.909 104.032 101.727 104.186 100.488C104.213 100.274 104.239 100.06 104.266 99.8397C104.986 94.6551 107.033 89.5737 111.125 86.1534C116.351 82.2569 123.329 81.4097 129.656 82.2213C134.911 82.9901 139.998 84.4246 145.019 86.1328C145.067 85.9214 145.115 85.7099 145.165 85.492C145.893 84.1263 147.204 83.4579 148.644 82.9651C148.898 82.947 149.152 82.9289 149.413 82.9102C149.613 82.8921 149.813 82.8739 150.02 82.8553C154.156 82.6425 157.59 84.6042 160.674 87.1765C161.599 88.016 162.26 88.8655 162.89 89.9414C162.939 89.7885 162.989 89.6355 163.041 89.478C163.193 89.0161 163.347 88.5549 163.503 88.0944C163.679 87.5698 163.85 87.0433 164.016 86.5151C164.698 84.4501 165.668 81.9143 167.641 80.7782C167.813 80.7083 167.986 80.6384 168.163 80.5664C168.453 80.7598 168.743 80.9532 169.042 81.1524C168.915 82.7226 168.293 83.9671 167.638 85.373C166.75 87.2798 166.546 89.0338 166.405 91.1133C166.755 90.9932 167.105 90.8731 167.466 90.7494C167.936 90.5899 168.407 90.4304 168.877 90.271C169.107 90.1921 169.336 90.1132 169.572 90.0318C174.544 88.3543 179.835 87.7882 184.752 89.9964C187.061 91.3236 188.306 93.1388 189.068 95.6681C189.421 97.5595 189.344 99.4523 189.257 101.367C189.417 101.389 189.578 101.411 189.743 101.434C195.004 102.306 200.109 105.042 203.255 109.417C204.853 111.947 205.875 114.752 205.663 117.773C205.128 119.279 204.109 120.415 203.094 121.624C202.559 122.309 202.081 122.993 201.606 123.719C200.719 125.066 199.746 126.326 198.742 127.588C195.69 131.474 192.885 135.457 190.429 139.746C190.318 139.936 190.207 140.127 190.093 140.322C181.401 155.275 176.82 171.555 172.675 188.213C172.54 188.757 172.54 188.757 172.402 189.312C171.958 191.096 171.515 192.881 171.077 194.667C170.336 197.673 169.579 200.669 168.696 203.637C168.629 203.864 168.562 204.091 168.494 204.324C167.36 208.044 165.37 214.265 162.011 216.504C161.624 216.232 161.24 215.957 160.857 215.68C160.643 215.527 160.429 215.374 160.208 215.216C159.667 214.746 159.667 214.746 159.374 213.867C159.792 213.185 160.223 212.553 160.692 211.908C163.521 207.819 166.112 202.213 166.112 197.168C165.907 197.455 165.701 197.741 165.49 198.037C163.938 200.187 162.372 202.269 160.546 204.199C159.966 203.909 159.386 203.619 158.788 203.32C158.889 201.746 159.789 200.915 160.802 199.805C161.15 199.413 161.497 199.022 161.845 198.631C162.02 198.435 162.195 198.239 162.376 198.037C163.138 197.183 163.886 196.317 164.629 195.447C164.873 195.164 165.118 194.88 165.37 194.589C165.619 194.278 165.866 193.965 166.112 193.652C166.259 193.478 166.405 193.304 166.555 193.125C168.142 191.046 168.517 188.667 169.005 186.163C169.096 185.724 169.186 185.284 169.278 184.844C169.498 183.778 169.712 182.71 169.921 181.641C169.565 182.06 169.209 182.479 168.853 182.898C168.565 183.237 168.277 183.576 167.989 183.914C167.118 184.943 166.271 185.985 165.435 187.042C164.335 188.395 163.15 189.637 161.919 190.869C161.744 191.045 161.568 191.221 161.387 191.402C159.568 193.198 159.568 193.198 158.788 193.652C158.498 193.556 158.208 193.459 157.909 193.359C158.755 188.516 166.662 181.509 170.214 178.418C170.407 178.418 170.601 178.418 170.8 178.418C170.833 178.223 170.866 178.027 170.9 177.826C174.336 158.193 184.654 138.163 197.625 123.138C197.783 122.954 197.942 122.77 198.106 122.579C198.849 121.724 199.6 120.895 200.414 120.106C201.834 118.769 201.834 118.769 202.606 117.038C202.467 114.341 200.846 111.139 198.92 109.299C195.728 106.565 192.099 105.471 188.085 104.59C187.793 104.523 187.502 104.457 187.201 104.388C186.618 104.256 186.033 104.129 185.448 104.004C185.017 102.749 185.338 102.078 185.824 100.89C186.37 99.0886 186.328 97.0786 185.54 95.3614C184.546 93.701 183.259 92.9402 181.421 92.4443C177.666 91.8177 174.087 92.2145 170.507 93.4571C170.153 93.5779 169.798 93.6988 169.433 93.8233C164.863 95.5168 160.879 98.0503 157.323 101.367C157.165 101.512 157.006 101.656 156.843 101.805C154.216 104.216 152.183 106.848 150.292 109.863C150.13 110.117 150.13 110.117 149.964 110.377C144.854 118.446 142.825 128.363 141.448 137.677C141.403 137.98 141.357 138.282 141.31 138.594C140.347 145.49 140.124 152.48 139.837 159.43C139.827 159.664 139.817 159.898 139.807 160.139C139.478 168.1 139.314 176.023 139.745 183.984C139.759 184.239 139.773 184.494 139.787 184.757C140.373 195.31 141.124 206.074 145.113 215.962C145.32 216.527 145.469 217.09 145.604 217.676C144.389 217.855 143.299 217.913 142.089 217.676C141.094 216.871 140.597 215.884 140.038 214.746C139.889 214.449 139.74 214.151 139.586 213.844C139.102 212.794 138.677 211.73 138.28 210.645C138.208 210.448 138.136 210.251 138.062 210.049C136.895 206.763 136.251 203.417 135.68 199.988C135.102 196.515 134.378 193.146 133.429 189.752C132.491 186.375 131.676 182.974 130.868 179.564C127.992 167.445 124.975 155.365 120.995 143.555C120.878 143.205 120.761 142.855 120.64 142.495C115.493 127.295 107.296 108.358 92.1241 100.827C89.8988 99.7596 87.6567 99.0152 85.2529 98.4375C85.0275 98.3813 84.802 98.325 84.5697 98.267C81.0709 97.7189 77.1197 97.7737 74.0686 99.7238C72.7444 100.766 71.9149 101.847 71.6745 103.556C71.5551 105.733 72.1673 107.134 73.2412 108.984C75.3833 112.852 75.3833 112.852 74.999 114.844C74.3398 115.723 74.3398 115.723 73.5342 116.309C73.1474 116.309 72.7607 116.309 72.3623 116.309C73.5808 118.347 74.9321 120.25 76.354 122.15C85.2117 134.047 91.3951 147.558 96.1912 161.534C97.5942 165.578 99.4852 169.311 101.623 173.016C101.772 173.276 101.922 173.536 102.076 173.804C106.31 181.081 111.568 188.149 118.755 192.706C118.944 192.826 119.132 192.946 119.326 193.07C119.784 193.362 120.243 193.654 120.702 193.945C120.068 192.009 119.426 190.075 118.78 188.143C118.561 187.486 118.344 186.828 118.128 186.169C117.817 185.222 117.501 184.276 117.183 183.331C117.088 183.037 116.993 182.744 116.895 182.441C116.355 180.854 115.878 179.806 114.55 178.711C114.304 178.472 114.304 178.472 114.053 178.229C113.908 178.089 113.762 177.949 113.613 177.805C110.059 174.352 107.303 170.723 104.882 166.406C104.764 166.199 104.646 165.991 104.525 165.777C98.9271 155.837 96.1939 144.727 94.9312 133.459C94.9062 133.238 94.8812 133.017 94.8554 132.789C94.7295 131.674 94.6071 130.558 94.4911 129.442C94.1359 126.135 93.3043 123.705 91.5701 120.85C91.4154 120.594 91.2608 120.339 91.1014 120.075C89.5943 117.625 87.9332 115.327 86.1318 113.086C85.9852 112.902 85.8387 112.719 85.6876 112.53C83.9486 110.37 82.1995 108.509 79.9749 106.837C79.783 106.676 79.5912 106.514 79.3935 106.348C79.3935 105.762 79.3935 105.762 80.126 104.993C80.3677 104.763 80.6094 104.533 80.8584 104.297C85.5506 106.502 89.004 111.249 91.9617 115.326C92.0681 115.457 92.1745 115.588 92.2842 115.723C92.3808 115.723 92.4775 115.723 92.5771 115.723C92.5288 115.402 92.4805 115.082 92.4306 114.752C92.1942 112.857 92.0326 110.834 92.5771 108.984C93.1629 108.972 93.7491 108.972 94.3349 108.984C94.834 109.483 94.7487 110.155 94.8179 110.838C94.9629 112.22 95.1147 113.6 95.2791 114.98C95.3169 115.298 95.3547 115.617 95.3936 115.945C95.431 116.258 95.4683 116.572 95.5068 116.895C95.5464 117.246 95.5859 117.597 95.6266 117.959C96.0245 121.093 98.218 123.584 99.9743 126.105C109.63 140.223 113.796 157.591 117.824 173.959C120.305 184.005 123.68 194.193 128.612 203.32C128.791 203.656 128.97 203.993 129.154 204.339C132.962 211.267 138.048 217.385 144.433 222.07C144.087 223.963 144.087 223.963 143.261 224.707C141.465 224.861 139.85 224.446 138.115 224.011C137.846 223.946 137.577 223.881 137.299 223.814C135.935 223.481 134.637 223.102 133.3 222.656C133.106 224.397 132.913 226.137 132.714 227.93C134.182 227.572 134.182 227.572 135.649 227.211C139.197 226.362 142.678 226.055 146.319 226.062C146.657 226.061 146.657 226.061 147.002 226.061C153.299 226.062 159.56 226.712 165.819 227.344C165.723 225.894 165.626 224.443 165.526 222.949C165.128 223.088 164.729 223.227 164.318 223.37C161.144 224.42 158.435 224.263 155.272 223.242C154.982 223.049 154.692 222.855 154.394 222.656C154.557 221.677 154.79 220.889 155.272 220.02C155.653 220.089 155.653 220.089 156.04 220.16C159.64 220.714 163.403 220.26 166.458 218.138C168.683 216.209 170.184 213.55 171.605 211.004C171.85 210.568 172.101 210.134 172.356 209.702C175.703 203.995 177.382 197.643 179.33 191.365C181.524 184.318 184.039 177.475 187.206 170.801C187.334 170.53 187.461 170.259 187.593 169.98C191.527 161.683 196.71 153.671 202.949 146.917C203.306 146.526 203.662 146.133 204.005 145.729C205.622 143.83 207.382 142.074 209.146 140.311C209.688 139.768 210.227 139.223 210.767 138.678C214.7 134.726 218.895 131.293 223.897 128.778C224.923 128.307 224.923 128.307 225.585 127.441C226.11 123.551 224.488 120.781 222.252 117.719C222.057 117.467 221.861 117.215 221.66 116.955C220.815 115.792 220.801 114.783 220.897 113.379C221.381 112.342 221.693 111.97 222.655 111.328C223.188 111.161 223.726 111.009 224.267 110.87C225.108 110.652 225.932 110.431 226.757 110.156C227.089 109.55 227.089 109.55 227.343 108.691C227.457 108.418 227.457 108.418 227.574 108.139C229.016 104.277 228.527 99.5078 226.965 95.7779C225.216 92.0552 222.776 89.0776 218.883 87.5164C217.525 87.0547 216.592 86.9007 215.203 87.3047C211.888 88.9619 210.42 92.0394 208.88 95.2343C208.593 95.8008 208.593 95.8008 208.3 96.0938C207.308 96.204 206.746 96.2325 205.908 95.6635C205.125 94.5837 205.21 93.6425 205.205 92.3401C205.046 87.0641 203.974 81.7932 200.097 77.9297C197.165 75.3981 193.72 74.2904 189.881 74.3328C186.647 74.6195 184.152 76.6496 182.131 79.0524C181.319 80.1025 180.591 81.2027 179.882 82.3243C179.076 82.3243 179.076 82.3243 178.124 82.0313C176.766 80.3634 176.824 78.4902 176.916 76.4466C177.095 73.4182 177.095 73.4182 176 70.6604C174.279 69.4929 172.219 69.5035 170.214 69.7266C169.088 70.2692 168.596 70.6886 167.907 71.7224C167.701 71.9339 167.496 72.1454 167.284 72.3633C165.23 72.3382 163.823 71.5663 162.066 70.5689C154.982 66.7154 146.625 63.9428 138.584 66.1572C136.753 66.7574 135.327 67.5752 133.886 68.8477C133.708 69.0014 133.531 69.1551 133.348 69.3135C131.025 71.4686 129.863 74.2029 128.756 77.1069C128.319 77.9297 128.319 77.9297 127.736 78.2147C126.776 78.2277 126.193 77.8458 125.39 77.3438C124.268 76.1721 123.861 75.0203 123.43 73.4986C123.368 73.289 123.306 73.0794 123.242 72.8634C123.077 72.3066 122.915 71.7491 122.753 71.1914C122.656 70.9014 122.56 70.6114 122.46 70.3125C121.275 69.9176 120.183 69.8554 118.944 70.0196C118.211 70.5602 117.859 71.0481 117.392 71.822C116.894 72.3633 116.894 72.3633 116.218 72.424C115.97 72.3858 115.721 72.3477 115.465 72.3084C115.218 72.274 114.971 72.2396 114.717 72.2042C114.241 72.1196 113.767 72.0241 113.297 71.9136C109.729 71.3044 106.039 71.56 102.904 73.4253C100.097 75.4454 99.0133 78.7334 98.4365 82.0313C98.1148 86.8814 98.3102 91.623 100.094 96.183C100.482 97.2502 100.556 97.6791 100.194 98.7305C99.8076 98.8272 99.4209 98.9239 99.0224 99.0235C95.5095 95.4307 94.9708 89.8708 94.9129 85.0331C94.9696 80.3748 96.1065 75.8952 99.2593 72.3542C102.294 69.4772 106.014 68.4568 110.091 68.4883C111.137 68.562 112.129 68.7574 113.158 68.9576C114.55 69.1954 114.55 69.1954 115.865 68.8088C116.439 68.3614 116.958 67.8892 117.479 67.3828C118.781 66.6485 120.121 66.6064 121.581 66.7969C123.56 67.3655 124.638 68.5943 125.683 70.3125C126.105 71.0841 126.484 71.8576 126.854 72.6563C127.025 72.401 127.196 72.1457 127.372 71.8827C130.552 67.2238 134.708 62.7174 140.331 61.1389C148.763 59.6126 157.849 63.3802 164.743 67.9904ZM111.635 90.136C107.779 94.0699 106.879 99.4837 106.836 104.747C106.882 108.057 107.711 110.122 109.697 112.775C111.817 115.714 113.696 118.696 115.429 121.875C115.56 122.111 115.69 122.347 115.825 122.59C118.158 126.811 120.08 131.17 121.874 135.645C121.967 135.876 122.061 136.107 122.157 136.345C122.798 137.95 123.372 139.574 123.925 141.211C124.038 141.546 124.151 141.881 124.268 142.227C126.852 149.945 128.987 157.794 131.135 165.642C131.659 167.558 132.185 169.473 132.714 171.387C132.795 171.681 132.795 171.681 132.878 171.981C133.252 173.334 133.63 174.685 134.009 176.035C134.106 176.386 134.203 176.736 134.303 177.097C134.394 177.417 134.484 177.737 134.578 178.067C134.657 178.348 134.735 178.629 134.817 178.919C135.02 179.636 135.02 179.636 135.644 180.176C135.645 179.992 135.647 179.808 135.649 179.619C136.229 119.935 136.229 119.935 154.101 100.195C156.106 98.3494 158.281 96.7281 160.546 95.2149C160.012 93.0659 159.075 91.5905 157.616 89.9414C157.434 89.7318 157.252 89.5222 157.065 89.3063C155.27 87.3704 153.023 85.9121 150.323 85.7449C149.119 85.9303 148.387 86.6661 147.655 87.5977C147.274 88.2787 147.029 88.9045 146.776 89.6485C145.33 89.469 143.981 89.1797 142.575 88.781C142.163 88.6658 141.75 88.5506 141.338 88.4354C140.701 88.2561 140.065 88.0762 139.429 87.8955C135.623 86.8172 131.741 85.7827 127.77 85.6018C127.554 85.5916 127.338 85.5814 127.115 85.5708C121.539 85.3832 115.984 86.4233 111.635 90.136ZM96.6787 127.734C97.7465 143.066 101.063 163.318 113.279 174.163C113.698 174.513 114.123 174.855 114.55 175.195C114.186 173.039 113.728 170.93 113.166 168.816C113.09 168.525 113.013 168.234 112.934 167.934C112.687 166.997 112.438 166.061 112.188 165.125C112.102 164.804 112.017 164.483 111.929 164.153C108.596 151.667 104.915 138.664 97.2646 128.027C97.0713 127.931 96.8779 127.834 96.6787 127.734ZM208.007 145.606C205.955 147.521 204.238 149.607 202.542 151.832C202.18 152.302 201.808 152.765 201.436 153.227C190.584 166.818 184.432 183.856 179.757 200.399C178.651 204.283 177.306 208.04 175.524 211.67C175.406 211.914 175.288 212.159 175.167 212.41C174.885 212.995 174.601 213.578 174.315 214.16C177.607 213.219 180.394 210.64 182.812 208.301C182.97 208.151 183.128 208.001 183.291 207.846C184.545 206.632 185.602 205.355 186.602 203.925C186.754 203.707 186.906 203.49 187.062 203.266C188.381 201.336 189.463 199.355 190.428 197.23C190.628 196.788 190.832 196.348 191.039 195.909C192.922 191.907 194.432 187.785 195.904 183.618C195.998 183.353 196.092 183.088 196.19 182.815C196.459 182.057 196.724 181.298 196.987 180.537C197.069 180.307 197.151 180.077 197.236 179.839C197.698 178.557 197.698 178.557 197.46 177.246C195.932 178.956 194.488 180.722 193.065 182.52C191.811 184.095 190.554 185.667 189.257 187.207C188.773 187.11 188.29 187.014 187.792 186.914C187.934 185.542 188.56 184.696 189.403 183.655C189.536 183.487 189.668 183.32 189.804 183.148C190.205 182.643 190.609 182.141 191.015 181.641C191.228 181.377 191.441 181.113 191.661 180.841C192.082 180.324 192.505 179.809 192.929 179.295C193.785 178.256 194.634 177.211 195.482 176.166C196.497 174.916 197.512 173.666 198.53 172.419C198.703 172.206 198.877 171.994 199.056 171.774C199.389 171.366 199.722 170.957 200.056 170.549C200.282 170.272 200.282 170.272 200.512 169.989C200.644 169.827 200.777 169.666 200.913 169.499C201.611 168.604 201.938 167.97 202.096 166.862C202.156 166.467 202.156 166.467 202.218 166.063C202.283 165.635 202.283 165.635 202.349 165.198C203.363 159.006 205.038 152.534 207.947 146.936C208.064 146.691 208.18 146.445 208.3 146.191C208.155 145.901 208.155 145.901 208.007 145.606ZM103.71 180.762C106.63 193.136 114.38 207.624 125.29 214.739C130.161 217.825 130.161 217.825 135.644 219.141C135.215 218.158 134.665 217.51 133.922 216.742C130.212 212.675 127.001 207.72 124.895 202.635C123.069 198.296 121.433 196.126 117.226 193.989C115.784 193.213 114.59 192.103 113.378 191.016C113.226 190.881 113.075 190.747 112.918 190.608C109.947 187.967 107.317 185.156 104.936 181.967C104.631 181.56 104.318 181.16 104.003 180.762C103.906 180.762 103.81 180.762 103.71 180.762ZM132.421 231.152C132.421 232.022 132.421 232.893 132.421 233.789C132.603 233.762 132.786 233.736 132.974 233.708C141.806 232.474 151.168 232.15 159.96 233.789C160.459 233.878 160.958 233.966 161.457 234.053C162.135 234.173 162.812 234.294 163.488 234.426C163.97 234.518 164.455 234.595 164.94 234.668C165.448 234.16 165.354 233.456 165.416 232.764C165.444 232.471 165.472 232.178 165.501 231.876C165.509 231.637 165.518 231.398 165.526 231.152C164.934 230.56 163.793 230.662 162.979 230.574C162.744 230.549 162.509 230.523 162.266 230.497C147.12 228.407 147.12 228.407 132.421 231.152Z" fill="black"/>
<path d="M169.629 102.246C169.919 102.439 170.209 102.633 170.508 102.832C170.703 105.175 170.275 107.492 169.94 109.808C169.886 110.196 169.832 110.583 169.778 110.97C169.345 114.036 169.345 114.036 169.043 115.137C169.189 115.028 169.334 114.919 169.484 114.807C181.093 106.142 181.093 106.142 184.863 106.348C185.449 106.934 185.449 106.934 185.449 107.812C185.175 107.938 184.902 108.063 184.62 108.191C180.133 110.303 176.069 113.138 172.212 116.242C171.387 116.895 171.387 116.895 170.589 117.4C169.593 118.092 168.898 118.647 168.594 119.864C168.365 121.303 168.275 122.742 168.243 124.198C168.153 124.89 167.92 125.372 167.578 125.977C165.857 125.72 165.857 125.72 165.527 125.391C165.506 124.75 165.503 124.109 165.509 123.468C165.512 123.117 165.514 122.766 165.517 122.405C165.52 122.133 165.524 121.862 165.527 121.582C161.159 125.66 158.002 130.883 155.116 136.066C154.688 136.816 154.688 136.816 154.395 137.109C153.662 137.146 153.662 137.146 152.93 137.109C152.833 137.013 152.736 136.916 152.637 136.816C152.952 131.81 157.542 126.768 160.693 123.083C160.832 122.92 160.97 122.757 161.113 122.589C161.857 121.741 162.566 121.02 163.474 120.338C165.136 119.069 166.244 118.029 166.596 115.903C166.726 114.733 166.795 113.566 166.846 112.39C166.903 111.447 166.969 110.505 167.038 109.563C167.054 109.337 167.07 109.111 167.086 108.878C167.48 103.97 167.48 103.97 169.082 102.584C169.263 102.473 169.443 102.361 169.629 102.246Z" fill="black"/>
<path d="M193.819 115.375C194.227 115.368 194.227 115.368 194.644 115.362C195.434 115.432 195.908 115.613 196.584 116.016C196.584 116.306 196.584 116.596 196.584 116.894C196.391 116.931 196.197 116.967 195.998 117.004C188.839 118.496 182.441 121.217 176.662 125.683C176.376 125.904 176.089 126.125 175.795 126.352C167.129 133.245 162.639 142.67 159.353 153.015C159.249 153.338 159.146 153.662 159.039 153.995C158.949 154.284 158.858 154.573 158.765 154.871C158.498 155.566 158.498 155.566 157.912 156.152C157.143 156.042 157.143 156.042 156.447 155.859C155.977 154.402 156.361 153.236 156.758 151.813C156.826 151.566 156.893 151.32 156.962 151.067C158.918 144.097 162.166 137.275 166.994 131.836C167.183 131.622 167.183 131.622 167.376 131.405C168.307 130.361 169.257 129.337 170.217 128.32C170.452 128.069 170.686 127.819 170.929 127.56C176.494 121.794 185.485 115.433 193.819 115.375Z" fill="black"/>
<path d="M188.379 126.563C188.379 126.853 188.379 127.143 188.379 127.441C187.691 127.912 187.013 128.329 186.292 128.742C183.819 130.222 181.715 131.951 179.59 133.887C179.247 134.194 178.903 134.502 178.56 134.809C176.838 136.362 175.186 137.936 173.73 139.746C173.488 140.043 173.245 140.341 172.995 140.647C167.212 147.805 162.808 155.974 159.332 164.473C159.234 164.711 159.136 164.948 159.035 165.193C158.91 165.504 158.91 165.504 158.782 165.82C158.463 166.474 158.069 167.01 157.617 167.578C157.037 167.385 156.457 167.191 155.859 166.992C157.74 153.829 169.357 138.409 179.695 130.561C181.358 129.331 183.101 128.229 184.863 127.149C185.121 126.977 185.378 126.806 185.644 126.63C186.621 126.115 187.327 126.336 188.379 126.563Z" fill="black"/>
<path d="M215.624 118.359C215.914 118.456 216.204 118.553 216.503 118.652C215.941 119.866 215.333 120.818 214.452 121.82C212.671 123.939 211.233 126.272 209.765 128.613C210.07 128.461 210.375 128.309 210.69 128.152C218.992 124.083 218.992 124.083 222.656 124.512C223.181 124.951 223.181 124.951 223.534 125.391C223.389 125.826 223.389 125.826 223.241 126.27C222.507 126.554 222.507 126.554 221.545 126.807C219.527 127.388 217.692 128.17 215.807 129.089C215.491 129.242 215.175 129.395 214.849 129.552C212.623 130.649 210.549 131.868 208.532 133.312C207.714 133.887 207.714 133.887 207.047 134.166C206.297 134.621 206.243 135.143 206.03 135.974C205.923 136.374 205.923 136.374 205.814 136.782C205.765 136.987 205.715 137.191 205.663 137.402C204.968 137.439 204.968 137.439 204.198 137.402C203.613 136.816 203.613 136.816 203.484 135.992C203.665 130.537 208.343 124.345 212.109 120.703C213.219 119.828 214.357 118.993 215.624 118.359Z" fill="black"/>
<path d="M118.651 93.1641C121.703 94.3778 123.996 98.9839 125.808 101.589C126.573 102.682 127.354 103.765 128.136 104.846C128.292 105.062 128.448 105.278 128.609 105.501C129.809 107.157 131.022 108.804 132.237 110.449C132.739 111.13 133.24 111.811 133.741 112.492C134.011 112.859 134.281 113.225 134.552 113.59C134.851 113.994 135.147 114.4 135.442 114.807C135.667 115.114 135.667 115.114 135.896 115.427C136.28 116.106 136.408 116.713 136.522 117.48C135.58 117.705 135.58 117.705 134.471 117.773C133.774 117.293 133.774 117.293 133.135 116.528C133.014 116.386 132.893 116.243 132.769 116.096C129.555 112.222 126.732 108.009 123.863 103.879C122.952 102.57 122.037 101.264 121.123 99.9573C120.872 99.5979 120.872 99.5979 120.615 99.2312C120.456 99.0037 120.297 98.7761 120.133 98.5416C119.983 98.325 119.832 98.1084 119.677 97.8852C119.388 97.4784 119.09 97.0776 118.784 96.6838C117.755 95.3508 117.755 95.3508 117.845 94.6257C118.065 94.043 118.065 94.043 118.651 93.1641Z" fill="black"/>
<path d="M170.509 156.445C171.234 156.59 171.234 156.59 171.974 156.738C171.816 158.616 171.189 160.177 170.454 161.902C170.326 162.205 170.199 162.508 170.067 162.82C162.967 179.41 162.967 179.41 159.669 182.812C159.379 182.812 159.089 182.812 158.79 182.812C158.347 181.925 158.345 181.135 158.498 180.176C159.014 178.809 159.778 177.562 160.513 176.304C161.991 173.763 163.289 171.163 164.522 168.494C164.604 168.316 164.686 168.138 164.77 167.955C165.675 165.991 166.559 164.019 167.419 162.035C168.285 160.04 169.17 158.181 170.509 156.445Z" fill="black"/>
<path d="M200.976 132.715C201.701 133.15 201.701 133.15 202.44 133.594C201.995 134.761 201.457 135.862 200.902 136.981C198.57 141.861 197.181 147.414 196.964 152.808C196.935 153.042 196.905 153.275 196.874 153.516C196.008 153.949 195.192 153.826 194.237 153.809C194.149 151.303 194.38 148.993 194.878 146.539C194.944 146.206 195.011 145.873 195.079 145.53C196.073 140.705 197.482 136.323 200.976 132.715Z" fill="black"/>
<path d="M156.446 106.055C156.833 106.151 157.22 106.248 157.618 106.348C157.75 108.584 157.254 110.621 156.758 112.793C155.92 116.507 155.512 119.981 155.403 123.779C155.39 124.192 155.377 124.605 155.364 125.018C155.333 126.021 155.303 127.024 155.274 128.027C154.728 128.204 154.728 128.204 154.102 128.32C153.392 127.793 153.003 127.401 152.757 126.543C151.925 120.535 152.561 111.663 156.061 106.499C156.188 106.352 156.315 106.206 156.446 106.055Z" fill="black"/>
<path d="M133.595 92.8712C135.021 97.2984 136.374 101.737 137.55 106.238C137.649 106.61 137.748 106.983 137.85 107.367C138.389 109.471 138.759 111.501 138.868 113.672C137.914 113.601 137.636 113.319 136.944 112.629C136.138 111.591 135.751 110.513 135.371 109.266C135.298 109.038 135.226 108.81 135.151 108.576C134.352 106.029 133.627 103.459 132.932 100.882C132.712 100.071 132.486 99.2611 132.259 98.4513C132.118 97.9318 131.977 97.4123 131.837 96.8926C131.769 96.6525 131.701 96.4123 131.631 96.1649C131.191 94.4947 131.191 94.4947 131.495 93.6964C132.096 92.7614 132.459 92.8712 133.595 92.8712Z" fill="black"/>
<path d="M121.289 108.984C122.311 109.419 122.942 109.999 123.706 110.797C124.509 111.621 125.311 112.406 126.196 113.141C128.58 115.184 130.785 117.641 132.715 120.117C132.733 120.776 132.733 120.776 132.422 121.289C132.037 121.496 131.647 121.692 131.25 121.875C131.056 121.698 130.861 121.522 130.661 121.339C130.402 121.105 130.143 120.871 129.877 120.63C129.622 120.399 129.367 120.168 129.104 119.93C128.599 119.484 128.082 119.051 127.552 118.635C126.908 118.109 126.398 117.586 125.867 116.949C125.197 116.166 124.515 115.419 123.779 114.697C122.442 113.381 121.159 112.012 120.117 110.449C120.504 109.966 120.891 109.482 121.289 108.984Z" fill="black"/>
<path d="M82.9102 117.188C86.25 118.593 88.2267 124.823 89.6667 127.954C89.7858 128.209 89.9049 128.464 90.0276 128.726C90.1355 128.965 90.2434 129.205 90.3545 129.451C90.4516 129.664 90.5487 129.877 90.6487 130.096C90.8203 130.664 90.8203 130.664 90.5273 131.543C89.8022 131.688 89.8022 131.688 89.0625 131.836C87.3184 129.49 86.133 126.885 84.8877 124.255C84.5718 123.592 84.2553 122.929 83.9381 122.267C83.7423 121.857 83.5473 121.448 83.3532 121.037C82.9536 120.199 82.5477 119.427 82.0312 118.652C82.0312 118.362 82.0312 118.072 82.0312 117.773C82.3213 117.58 82.6113 117.387 82.9102 117.188Z" fill="black"/>
<path d="M121.289 116.309C122.792 117.531 124.026 118.801 125.226 120.319C125.389 120.523 125.553 120.728 125.721 120.939C126.199 121.542 126.674 122.148 127.148 122.754C127.282 122.923 127.416 123.092 127.555 123.266C127.9 123.702 128.238 124.143 128.577 124.585C128.763 124.828 128.95 125.071 129.142 125.322C129.492 125.977 129.492 125.977 129.44 126.613C129.199 127.148 129.199 127.148 128.613 127.734C127.754 127.696 127.429 127.431 126.789 126.852C125.012 124.869 123.44 122.809 121.93 120.619C121.335 119.762 120.725 118.915 120.117 118.066C120.504 117.486 120.891 116.906 121.289 116.309Z" fill="black"/>
<path d="M147.364 96.3867C147.848 96.5801 148.331 96.7734 148.829 96.9727C148.647 98.1709 148.253 99.1067 147.705 100.185C147.539 100.516 147.372 100.847 147.2 101.188C147.024 101.531 146.849 101.874 146.669 102.228C146.496 102.57 146.323 102.912 146.145 103.264C145.821 103.903 145.497 104.541 145.172 105.179C144.862 105.791 144.561 106.407 144.268 107.027C143.849 107.812 143.849 107.812 143.263 108.105C142.659 107.831 142.659 107.831 142.091 107.227C142.031 103.439 144.288 99.5459 146.851 96.8719C147.02 96.7118 147.19 96.5517 147.364 96.3867Z" fill="black"/>
<path d="M105.178 117.773C105.727 117.847 105.727 117.847 106.349 118.066C107.141 119.148 107.01 120.38 106.993 121.66C106.992 121.892 106.991 122.125 106.99 122.364C106.987 123.105 106.979 123.845 106.972 124.585C106.969 125.088 106.966 125.591 106.964 126.093C106.957 127.324 106.947 128.555 106.935 129.785C105.947 129.625 105.446 129.476 104.592 128.906C104.487 128.277 104.487 128.277 104.495 127.499C104.497 127.214 104.498 126.93 104.499 126.637C104.506 126.334 104.512 126.032 104.518 125.72C104.522 125.415 104.525 125.109 104.529 124.795C104.608 119.482 104.608 119.482 105.178 117.773Z" fill="black"/>
</svg>
