<svg width="300" height="300" viewBox="0 0 300 300" fill="none" xmlns="http://www.w3.org/2000/svg">
<path d="M158.057 84.3269C160.572 86.5075 161.616 89.6723 162.011 92.871C162.041 93.6928 162.059 94.5077 162.062 95.3294C162.064 95.5664 162.066 95.8035 162.068 96.0478C162.072 96.5596 162.075 97.0714 162.078 97.5833C162.083 98.3967 162.09 99.2102 162.097 100.024C162.118 102.335 162.135 104.647 162.151 106.959C162.16 108.377 162.172 109.794 162.186 111.212C162.19 111.749 162.194 112.285 162.197 112.822C162.229 119.606 163.129 124.311 167.943 129.401C169.523 130.917 171.3 132.132 173.144 133.301C173.457 133.5 173.771 133.7 174.094 133.905C177.482 135.946 181.146 137.31 184.872 138.609C197.132 142.883 207.98 149.457 213.892 161.488C216.637 167.339 218.09 173.465 218.059 179.938C218.058 180.31 218.056 180.683 218.054 181.067C218.017 183.976 217.794 186.727 217.089 189.551C217.002 189.903 217.002 189.903 216.913 190.263C216.015 193.764 214.771 196.955 212.987 200.098C212.825 200.385 212.663 200.673 212.495 200.97C211.14 203.22 209.455 205.174 207.714 207.129C207.546 207.321 207.379 207.514 207.206 207.713C201.815 213.52 193.132 217.288 185.282 217.717C179.119 217.927 172.426 217.403 166.962 214.216C166.122 213.779 166.122 213.779 165.22 214.046C164.368 214.447 163.606 214.893 162.817 215.405C157.093 218.806 150.252 219.606 143.81 218.097C141.026 217.381 138.217 216.111 135.93 214.362C134.787 213.714 134.264 213.833 133.007 214.16C132.316 214.415 131.632 214.691 130.956 214.984C128.752 215.904 126.549 216.552 124.218 217.09C123.947 217.156 123.676 217.223 123.397 217.291C114.501 219.145 105.094 216.599 97.5908 211.752C96.4435 210.968 95.3741 210.103 94.3351 209.18C94.179 209.041 94.0229 208.903 93.862 208.76C88.3008 203.728 84.5706 197.144 82.9093 189.844C82.8618 189.636 82.8142 189.428 82.7652 189.213C80.4343 178.451 82.6036 167.303 88.1827 157.91C88.9098 156.788 89.6939 155.733 90.5265 154.687C90.6454 154.537 90.7643 154.387 90.8868 154.232C97.1026 146.442 105.295 142.231 114.491 138.825C122.801 135.745 131.994 132.146 136.339 123.834C137.915 120.398 137.739 116.792 137.753 113.089C137.756 112.249 137.762 111.408 137.768 110.568C137.786 108.18 137.802 105.792 137.812 103.404C137.818 101.938 137.829 100.472 137.842 99.0062C137.846 98.4514 137.848 97.8966 137.849 97.3419C137.859 92.3174 138.373 88.3079 141.796 84.375C146.921 80.305 152.931 80.5687 158.057 84.3269ZM145.788 89.7766C144.511 91.7901 144.39 93.8224 144.387 96.1611C144.385 96.3967 144.384 96.6323 144.382 96.8751C144.379 97.3848 144.376 97.8946 144.374 98.4043C144.371 99.2156 144.365 100.027 144.359 100.838C144.341 103.144 144.325 105.45 144.315 107.756C144.309 109.169 144.299 110.583 144.286 111.996C144.282 112.53 144.279 113.064 144.278 113.599C144.265 120.376 143.05 126.097 138.866 131.543C138.719 131.741 138.572 131.939 138.42 132.143C137.142 133.753 135.509 134.986 133.886 136.23C133.616 136.439 133.346 136.647 133.068 136.861C127.975 140.581 122.211 142.928 116.308 145.019C105.54 148.886 96.776 154.697 91.6095 165.221C87.6808 173.608 87.3676 183.482 90.38 192.205C93.1098 199.61 98.2663 205.266 105.414 208.635C112.558 211.87 120.327 211.803 127.734 209.473C128.326 209.193 128.915 208.905 129.491 208.594C129.067 207.414 128.49 206.439 127.807 205.389C124.918 200.791 123.36 195.514 122.753 190.137C122.721 189.873 122.688 189.609 122.655 189.338C121.076 174.193 125.257 157.179 134.582 145.019C135.668 143.749 136.575 142.813 138.28 142.529C139.395 142.715 140.037 143.152 140.917 143.848C141.395 144.803 141.386 145.747 141.21 146.777C140.783 147.599 140.214 148.27 139.617 148.975C137.811 151.244 136.386 153.579 135.058 156.152C134.958 156.34 134.859 156.527 134.756 156.72C131.739 162.435 130.07 168.816 129.198 175.195C129.169 175.409 129.139 175.623 129.108 175.843C128.836 178.116 128.841 180.402 128.835 182.688C128.832 183.389 128.823 184.09 128.814 184.791C128.786 188.892 129.186 193.017 130.553 196.912C130.627 197.126 130.702 197.34 130.778 197.561C132.709 202.88 136.009 207.593 141.162 210.183C146.174 212.413 151.837 212.985 157.046 211.001C159.778 209.851 162 208.401 164.062 206.25C164.261 206.059 164.461 205.869 164.667 205.672C170.172 200.081 171.545 191.198 171.489 183.688C171.192 170.938 167.661 159.121 160.345 148.712C160.186 148.48 160.026 148.248 159.862 148.01C159.716 147.801 159.57 147.591 159.419 147.376C158.903 146.462 158.921 145.746 159.081 144.727C159.344 143.781 159.629 143.581 160.454 143.024C161.636 142.6 162.27 142.64 163.476 142.969C164.73 143.818 165.522 144.861 166.332 146.118C166.521 146.408 166.521 146.408 166.714 146.704C172.66 155.937 175.905 166.09 177.245 176.953C177.273 177.173 177.301 177.393 177.33 177.62C178.189 185.095 177.647 192.685 175.194 199.805C175.038 200.263 175.038 200.263 174.877 200.73C174.011 203.005 172.738 204.989 171.418 207.02C170.779 207.954 170.779 207.954 170.507 208.887C173.8 209.946 177.003 210.952 180.468 211.23C180.716 211.251 180.963 211.272 181.219 211.293C188.661 211.584 196.28 208.983 201.8 203.979C208.01 198.079 211.26 190.178 211.586 181.652C211.809 172.784 209.211 164.534 203.612 157.617C203.377 157.32 203.377 157.32 203.137 157.016C202.057 155.695 200.829 154.596 199.511 153.516C199.243 153.292 198.975 153.068 198.699 152.838C193.45 148.612 187.427 146.317 181.108 144.135C175.829 142.302 170.851 139.948 166.405 136.523C166.249 136.404 166.092 136.285 165.93 136.162C160.658 132.115 156.684 126.322 155.702 119.639C155.545 118.336 155.521 117.048 155.519 115.737C155.518 115.486 155.516 115.235 155.515 114.977C155.512 114.436 155.509 113.895 155.507 113.354C155.504 112.497 155.498 111.64 155.492 110.782C155.474 108.346 155.458 105.91 155.448 103.473C155.442 101.979 155.431 100.486 155.418 98.9917C155.414 98.4245 155.412 97.8573 155.411 97.2901C155.409 96.4958 155.403 95.7018 155.395 94.9075C155.395 94.6758 155.396 94.4441 155.397 94.2054C155.372 92.5314 155.15 90.802 153.999 89.4928C152.6 88.263 151.318 87.7449 149.449 87.7979C147.962 88.0197 146.824 88.7128 145.788 89.7766Z" fill="black"/>
</svg>
