<svg width="300" height="300" viewBox="0 0 300 300" fill="none" xmlns="http://www.w3.org/2000/svg">
<path d="M192.699 86.9567C192.906 87.0052 193.114 87.0536 193.327 87.1034C194.421 87.3925 194.759 87.5029 195.409 88.4765C195.928 94.8646 194.649 101.573 190.451 106.549C187.297 110.058 182.927 111.972 178.222 112.254C172.777 112.473 167.777 111.797 162.596 110.156C162.566 110.413 162.536 110.671 162.506 110.936C162.254 112.694 161.812 114.416 161.406 116.144C161.323 116.498 161.241 116.852 161.156 117.217C160.953 118.086 160.75 118.955 160.545 119.824C160.703 119.767 160.86 119.709 161.023 119.65C168.522 116.927 176.995 114.782 184.657 118.246C189.802 120.753 192.845 125.086 194.823 130.371C196.172 134.634 196.514 140.223 194.438 144.312C194.185 144.756 193.923 145.194 193.647 145.624C193.269 146.259 193.269 146.259 193.358 147.363C193.888 147.901 194.407 148.369 194.987 148.846C198.409 151.83 200.629 156.124 201.04 160.678C201.314 166.64 200.112 172.117 195.995 176.66C193.685 179.129 190.47 181.03 187.205 181.934C186.819 181.934 186.432 181.934 186.034 181.934C186.038 182.115 186.043 182.296 186.048 182.482C186.207 189.751 185.221 196.199 180.062 201.723C175.367 206.124 169.441 208.196 163.054 208.09C159.09 207.921 155.267 206.552 152.309 203.889C151.745 203.532 151.745 203.532 151.038 203.801C150.298 204.196 149.659 204.627 148.991 205.133C143.978 208.682 138.546 210.115 132.445 209.324C126.385 208.25 121.149 205.253 117.614 200.199C114.633 195.773 113.611 190.882 113.652 185.614C113.653 185.288 113.655 184.962 113.656 184.626C113.659 183.826 113.664 183.026 113.67 182.227C113.5 182.193 113.33 182.159 113.154 182.125C108.512 181.161 104.943 178.459 102.225 174.617C100.137 171.348 98.9098 167.358 98.7289 163.477C98.7138 163.285 98.6987 163.094 98.6831 162.896C98.4165 156.975 100.969 151.667 104.862 147.378C105.767 146.48 106.757 145.734 107.811 145.019C107.631 144.6 107.631 144.6 107.447 144.171C105.17 138.755 104.78 133.747 107.032 128.197C107.879 126.259 109.068 124.646 110.448 123.047C110.649 122.812 110.851 122.578 111.059 122.336C115.464 117.595 122.015 115.177 128.378 114.845C131.403 114.842 134.253 115.165 137.09 116.235C138.76 116.838 139.775 116.974 141.482 116.531C142.647 116.243 143.809 116.096 145 115.961C145.226 115.935 145.452 115.909 145.685 115.882C147.547 115.691 149.315 115.77 151.17 116.016C149.724 110.805 148.127 105.953 144.725 101.66C144.463 101.316 144.463 101.316 144.196 100.965C142.597 99.0205 140.7 97.649 138.634 96.2301C138.412 96.0771 138.19 95.9241 137.962 95.7664C137.762 95.6316 137.562 95.4969 137.357 95.358C136.375 94.5682 135.968 94.0027 135.808 92.7429C135.959 91.5095 136.16 91.0366 137.108 90.2343C138.388 89.9582 139.234 90.1861 140.33 90.8386C148.237 96.5864 153.289 105.909 155.17 115.358C155.312 116.275 155.312 117.14 155.272 118.066C155.562 117.97 155.852 117.873 156.151 117.773C156.416 117.109 156.62 116.482 156.81 115.796C156.938 115.364 157.067 114.933 157.197 114.502C157.265 114.271 157.333 114.041 157.403 113.803C160.142 104.564 164.291 94.6885 173.065 89.6495C175.796 88.1712 178.604 87.3385 181.639 86.7187C181.912 86.6624 182.184 86.6062 182.465 86.5482C185.837 86.105 189.387 86.1767 192.699 86.9567ZM169.92 97.2656C169.68 97.5186 169.439 97.7716 169.191 98.0323C167.816 99.5953 166.772 101.285 165.782 103.107C165.664 103.322 165.546 103.537 165.424 103.759C165.318 103.963 165.212 104.167 165.102 104.378C165.007 104.56 164.912 104.742 164.814 104.93C164.601 105.615 164.669 105.98 164.94 106.641C166.147 107.213 167.454 107.493 168.748 107.812C169.153 107.913 169.153 107.913 169.567 108.016C174.856 109.1 180.76 108.799 185.474 106.056C189.189 103.498 190.671 99.3297 191.508 95.0683C191.635 93.6509 191.623 92.2422 191.6 90.8203C184.19 87.7014 174.998 91.8617 169.92 97.2656ZM114.47 124.572C111.132 127.987 109.443 131.785 109.462 136.567C109.534 139.81 110.757 142.555 112.964 144.936C116.05 147.79 119.734 148.401 123.769 148.312C127.727 148.145 131.375 146.611 134.471 144.141C134.177 142.987 133.835 141.954 133.318 140.881C131.208 136.213 130.889 130.178 132.442 125.276C133.07 123.7 133.829 122.255 134.788 120.856C135.107 120.413 135.107 120.413 135.057 119.824C127.665 117.511 120.049 119.132 114.47 124.572ZM137.553 123.23C135.071 126.374 135.077 130.665 135.35 134.473C136.065 139.858 139.148 144.187 143.375 147.435C147.439 150.167 152.247 150.608 156.992 149.809C160.236 148.901 163.752 146.909 165.526 143.943C167.561 140.234 168.286 136.642 167.311 132.453C165.586 127.791 162.325 124.303 157.873 122.125C156.273 121.399 154.619 120.884 152.928 120.41C152.683 120.338 152.438 120.266 152.185 120.192C147.375 118.995 141.039 119.404 137.553 123.23ZM165.233 122.461C165.481 122.733 165.728 123.005 165.984 123.285C169.886 127.859 171.392 132.631 171.142 138.544C171.033 139.888 170.637 141.113 170.213 142.383C170.112 142.87 170.014 143.359 169.92 143.848C170.205 143.817 170.205 143.817 170.496 143.786C176.459 143.191 182.314 143.33 188.084 145.019C188.842 145.215 188.842 145.215 189.549 145.019C191.292 143.401 191.91 141.372 192.02 139.027C192.027 138.461 192.027 137.895 192.021 137.329C192.019 137.032 192.017 136.735 192.014 136.429C191.964 134.122 191.679 132.2 190.721 130.078C190.597 129.801 190.473 129.523 190.345 129.237C188.457 125.447 185.505 122.703 181.538 121.234C176.398 119.662 170.08 120.062 165.233 122.461ZM133.592 149.121C130.693 152.205 129.611 156.194 129.655 160.345C129.658 160.639 129.66 160.933 129.662 161.235C129.783 166.723 132.175 171.32 136.119 175.104C140.416 178.675 145.485 179.355 150.877 179.004C155.334 178.496 159.203 175.956 162.01 172.559C164.985 168.514 165.79 163.677 165.108 158.771C164.718 157.164 164.044 155.694 163.329 154.211C163.242 154.031 163.155 153.85 163.065 153.664C162.523 152.561 162.523 152.561 161.424 152.051C160.674 152.256 160.674 152.256 159.85 152.582C154.317 154.513 148.635 154.116 143.337 151.681C141.395 150.646 139.66 149.389 138.133 147.803C137.771 147.44 137.771 147.44 137.401 147.07C135.86 147.07 134.748 148.171 133.592 149.121ZM168.748 148.242C168.253 148.368 168.253 148.368 167.748 148.496C167.004 148.694 166.264 148.901 165.526 149.121C165.526 150.258 166 151.04 166.496 152.032C169.078 157.37 169.457 163.353 167.87 169.043C167.718 169.416 167.561 169.788 167.399 170.156C166.949 171.018 166.949 171.018 166.991 171.716C167.439 172.558 168.045 173.086 168.748 173.73C168.983 173.967 168.983 173.967 169.222 174.208C172.722 177.564 177.295 178.861 182.035 178.814C186.753 178.67 190.379 176.807 193.651 173.437C196.862 169.833 197.447 165.591 197.224 160.925C196.937 157.562 195.269 154.243 192.797 151.949C188.325 148.407 182.76 147.242 177.171 147.272C176.853 147.273 176.534 147.274 176.206 147.275C173.625 147.309 171.25 147.607 168.748 148.242ZM110.448 147.949C106.604 150.716 103.635 154.271 102.83 159.082C102.284 164.786 103.302 169.68 106.789 174.32C109.372 177.216 113.365 178.817 117.152 179.084C121.462 179.239 125.369 178.292 128.648 175.397C129.03 175.04 129.409 174.681 129.784 174.316C129.394 173.296 128.943 172.319 128.461 171.339C125.367 164.982 125.435 158.435 127.44 151.758C127.201 151.762 126.962 151.767 126.716 151.772C125.812 151.787 124.907 151.798 124.003 151.806C123.426 151.813 122.85 151.824 122.273 151.835C119.241 151.858 116.371 151.583 113.707 150.018C113.446 149.867 113.185 149.715 112.916 149.559C112.077 149.042 111.254 148.516 110.448 147.949ZM164.354 175.488C163.929 175.931 163.509 176.377 163.09 176.825C159.178 180.754 154.143 182.021 148.827 182.812C148.058 188.499 149.043 193.744 152.267 198.508C154.831 201.662 158.618 203.624 162.596 204.199C167.812 204.551 172.683 202.909 176.659 199.512C180.043 196.346 181.966 192.139 182.225 187.5C182.276 185.801 182.315 184.183 181.932 182.519C181.432 182.476 181.432 182.476 180.923 182.433C174.801 181.861 169.906 180.133 165.29 176.047C164.752 175.456 164.752 175.456 164.354 175.488ZM131.303 178.308C127.591 181.021 123.919 182.173 119.405 182.623C118.353 182.64 118.353 182.64 117.479 183.105C117.136 189.456 118.274 194.898 122.433 199.89C125.408 203.048 129.706 205.265 134.068 205.441C139.584 205.555 143.953 204.399 148.07 200.549C148.223 200.4 148.376 200.251 148.534 200.098C148.164 199.134 147.745 198.238 147.252 197.333C145.814 194.496 145.045 191.306 144.925 188.134C144.913 187.822 144.901 187.511 144.888 187.19C144.877 186.869 144.865 186.549 144.853 186.218C144.841 185.891 144.828 185.563 144.815 185.226C144.784 184.422 144.754 183.617 144.725 182.812C144.462 182.755 144.199 182.698 143.928 182.639C140.058 181.711 136.506 180.213 133.447 177.612C132.564 176.878 132.114 177.689 131.303 178.308Z" fill="black"/>
</svg>
