<svg width="300" height="300" viewBox="0 0 300 300" fill="none" xmlns="http://www.w3.org/2000/svg">
<path d="M221.636 58.8286C221.987 58.8122 221.987 58.8122 222.344 58.7954C222.552 58.7844 222.76 58.7735 222.974 58.7622C223.534 58.8869 223.534 58.8869 224.018 59.3184C224.586 60.3834 224.722 61.4355 224.889 62.6223C224.944 62.9935 224.944 62.9935 225 63.3722C225.326 65.6822 225.51 67.98 225.585 70.3127C225.591 70.5064 225.598 70.7 225.604 70.8995C225.701 74.2286 225.545 77.5519 224.614 80.7681C224.348 81.8586 224.511 82.604 224.816 83.6794C226.461 89.5193 224.866 97.8345 222.087 103.18C220.901 105.158 219.492 106.661 217.711 108.115C215.987 109.712 215.109 111.052 214.507 113.324C213.787 115.716 212.845 117.28 210.936 118.946C210.727 119.138 210.517 119.33 210.301 119.528C207.503 121.931 202.723 125.684 198.884 125.684C197.754 125.705 197.023 125.786 195.995 126.27C195.037 127.429 194.487 128.856 193.86 130.21C193.045 131.952 192.02 133.502 190.923 135.077C190.735 135.348 190.547 135.619 190.353 135.898C189.796 136.695 189.235 137.489 188.671 138.281C188.503 138.517 188.336 138.752 188.163 138.995C187.072 140.522 185.969 142.039 184.862 143.555C182.361 146.987 179.914 150.453 177.493 153.943C173.902 159.119 170.219 164.22 166.375 169.213C165.179 170.77 164.013 172.348 162.853 173.932C160.49 177.149 158.115 180.288 155.375 183.195C154.203 184.441 153.126 185.749 152.055 187.083C151.381 187.892 150.659 188.624 149.903 189.356C149.2 190.056 148.559 190.804 147.911 191.555C147.309 192.249 146.696 192.933 146.08 193.616C145.857 193.863 145.635 194.111 145.405 194.366C144.959 194.859 144.512 195.351 144.064 195.842C142.959 197.057 141.888 198.284 140.862 199.567C139.425 201.344 137.863 202.993 136.297 204.655C135.434 205.571 134.597 206.506 133.774 207.46C132.102 209.39 130.365 211.265 128.637 213.146C127.794 214.065 126.955 214.989 126.122 215.918C125.152 216.999 124.174 218.072 123.192 219.141C122.655 219.727 122.118 220.313 121.581 220.899C121.35 221.15 121.12 221.401 120.883 221.66C119.778 222.874 118.71 224.106 117.681 225.385C116.389 226.982 115.008 228.48 113.608 229.981C112.799 230.848 112.016 231.734 111.241 232.63C110.422 233.569 109.583 234.491 108.746 235.415C108.174 236.055 107.616 236.705 107.06 237.36C104.094 240.753 104.094 240.753 102.245 241.114C99.6979 241.114 97.501 240.081 95.2136 239.063C94.9585 238.95 94.7034 238.837 94.4407 238.721C86.6639 235.247 78.1725 230.28 74.7424 222.016C74.173 220.086 74.2968 218.702 75.1567 216.913C76.3563 214.946 78.1213 213.359 79.757 211.755C80.2354 211.268 80.6731 210.767 81.1122 210.244C82.8976 208.191 84.8778 206.316 86.8115 204.404C89.0954 202.175 89.0954 202.175 91.2448 199.819C92.8586 197.92 94.6886 196.209 96.4587 194.458C97.1996 193.725 97.9395 192.991 98.6788 192.256C98.8473 192.09 99.0158 191.924 99.1893 191.753C99.8469 191.1 100.452 190.478 101.003 189.73C101.123 189.574 101.242 189.418 101.366 189.258C101.559 189.258 101.753 189.258 101.952 189.258C102.028 189.086 102.104 188.915 102.182 188.738C102.564 188.038 102.975 187.586 103.546 187.031C103.839 186.743 103.839 186.743 104.137 186.45C104.34 186.253 104.544 186.055 104.753 185.852C105.157 185.458 105.56 185.064 105.963 184.669C106.142 184.495 106.321 184.322 106.505 184.143C106.961 183.705 106.961 183.705 107.225 183.106C107.419 183.106 107.612 183.106 107.811 183.106C107.925 182.848 107.925 182.848 108.041 182.586C108.424 181.884 108.836 181.433 109.408 180.876C109.608 180.679 109.808 180.482 110.015 180.279C110.224 180.076 110.434 179.873 110.649 179.663C112.033 178.314 113.367 176.952 114.627 175.486C115.677 174.281 116.789 173.133 117.888 171.973C118.986 170.809 120.054 169.626 121.103 168.418C121.774 167.65 122.464 166.9 123.155 166.15C124.172 165.047 125.179 163.938 126.177 162.818C127.161 161.72 128.184 160.676 129.233 159.641C129.929 158.935 130.57 158.192 131.216 157.441C132.039 156.507 132.889 155.598 133.739 154.688C135.218 153.1 136.667 151.495 138.077 149.845C138.523 149.323 138.969 148.801 139.415 148.279C139.567 148.101 139.719 147.924 139.876 147.74C140.985 146.446 142.116 145.173 143.26 143.91C144.427 142.62 145.566 141.308 146.693 139.984C148.128 138.298 149.572 136.627 151.079 135.004C152.314 133.673 153.481 132.3 154.619 130.885C155.287 130.061 155.975 129.256 156.664 128.449C158.411 126.357 159.981 124.144 161.558 121.923C161.967 121.349 162.382 120.781 162.801 120.215C166.734 114.872 169.375 109.521 170.936 103.057C172.204 97.8552 174.362 93.9549 178.908 90.8755C179.8 90.0356 180.038 89.1502 180.339 88.0007C180.461 87.579 180.584 87.1575 180.708 86.7361C180.766 86.5322 180.825 86.3282 180.885 86.118C182.014 82.2802 183.765 80.5003 187.206 78.5159C187.502 78.3637 187.798 78.2115 188.103 78.0547C190.219 76.9401 191.372 75.7578 192.739 73.8055C194.44 71.4538 196.552 70.2781 199.09 69.0136C200.511 68.2817 201.635 67.4804 202.77 66.3577C207.786 61.447 214.789 59.3691 221.636 58.8286ZM206.134 68.2013C203.784 71.4249 202.887 74.5656 203.319 78.5159C203.776 81.2759 204.425 83.9996 205.077 86.719C205.142 86.9922 205.208 87.2654 205.275 87.547C205.587 88.8369 205.91 90.1233 206.249 91.4065C207.708 90.9296 208.844 90.079 210.076 89.1909C210.296 89.0333 210.516 88.8757 210.743 88.7133C211.395 88.2459 212.045 87.7758 212.694 87.3049C212.868 87.1794 213.042 87.054 213.221 86.9247C218.867 83.0755 218.867 83.0755 222.069 77.344C222.194 75.7747 222.142 74.2263 222.069 72.6565C222.053 72.3161 222.038 71.9758 222.022 71.6251C221.965 70.473 221.9 69.3218 221.831 68.1704C221.811 67.7912 221.79 67.4119 221.769 67.0212C221.733 66.486 221.733 66.486 221.697 65.9399C221.677 65.6184 221.657 65.2969 221.637 64.9657C221.469 64.0855 221.336 63.7845 220.604 63.2815C219.842 63.1923 219.168 63.1561 218.407 63.1716C218.09 63.1767 218.09 63.1767 217.767 63.1819C213.686 63.3057 208.907 65.091 206.134 68.2013ZM196.733 74.1671C194.647 76.6977 194.485 80.0745 194.237 83.2034C195.3 83.0322 196.132 82.7502 197.075 82.2329C197.3 82.1132 197.525 81.9935 197.756 81.8701C198.438 81.3733 198.648 81.0672 198.925 80.2737C199.262 77.9523 199.26 75.5839 199.217 73.2424C198.013 73.2424 197.608 73.3699 196.733 74.1671ZM185.796 83.4048C184.489 85.384 184.112 87.4147 184.13 89.7585C184.13 90.009 184.131 90.2594 184.132 90.5175C184.218 93.9995 185.196 97.328 186.62 100.489C187.228 99.5759 187.426 98.9196 187.691 97.8632C187.779 97.5131 187.867 97.1631 187.958 96.8024C188.048 96.4357 188.138 96.069 188.231 95.6911C188.321 95.3358 188.412 94.9804 188.505 94.6143C189.363 91.1637 189.946 87.845 189.879 84.2837C189.876 84.0074 189.874 83.7312 189.871 83.4465C189.864 82.7795 189.855 82.1125 189.842 81.4455C188.202 81.4455 186.957 82.2956 185.796 83.4048ZM198.192 86.1697C194.89 89.5479 190.428 96.487 190.428 101.367C190.722 101.417 191.015 101.467 191.318 101.518C194.488 102.084 196.695 102.735 198.632 105.469C198.835 105.855 199.033 106.245 199.217 106.641C200.181 106.422 200.181 106.422 200.667 105.455C201.491 103.693 201.853 101.784 202.249 99.8898C202.384 99.2476 202.528 98.6076 202.673 97.9674C203.32 94.9936 203.842 91.8615 202.259 89.0891C201.391 87.7764 200.496 86.4816 199.51 85.2541C198.95 85.2541 198.576 85.806 198.192 86.1697ZM218.132 89.5205C217.925 89.5993 217.718 89.678 217.505 89.7592C213.71 91.2435 209.072 93.3916 207.149 97.2201C206.514 98.9148 206.302 100.709 206.013 102.487C205.649 104.599 204.921 106.099 203.612 107.813C204.869 107.839 206.127 107.854 207.384 107.868C207.737 107.875 208.089 107.882 208.453 107.89C211.121 107.912 213.965 107.776 216 105.827C219.388 101.437 221.635 94.2852 221.483 88.7698C220.221 88.7698 219.289 89.0786 218.132 89.5205ZM178.618 96.4785C176.574 97.7838 175.207 99.9238 174.608 102.246C174.081 104.883 174.294 107.266 174.901 109.864C177.759 109.005 180.007 107.457 181.668 104.992C182.076 103.919 182.04 102.872 182.042 101.734C182.049 101.507 182.057 101.28 182.064 101.047C182.072 99.4097 181.781 98.0006 180.76 96.6799C179.826 96.0491 179.723 96.0409 178.618 96.4785ZM182.523 109.893C181.052 112.009 179.884 114.377 178.853 116.736C178.417 117.481 178.417 117.481 177.861 117.79C177 117.767 176.589 117.425 175.89 116.931C174.494 116.051 173.063 115.376 171.385 115.723C170.097 116.769 169.326 118.059 168.511 119.477C168.392 119.68 168.272 119.883 168.15 120.092C167.859 120.587 167.571 121.085 167.284 121.582C168.143 122.255 169.032 122.795 169.976 123.34C172.981 125.246 174.956 128.194 176.073 131.543C176.11 132.327 176.086 133.102 176.073 133.887C174.441 133.791 173.702 133.144 172.649 131.983C172.341 131.66 172.033 131.339 171.723 131.019C171.569 130.86 171.415 130.7 171.256 130.536C169.195 128.471 166.42 125.981 163.475 125.391C163.365 125.579 163.254 125.768 163.14 125.962C161.808 128.148 160.271 130.037 158.598 131.96C158 132.658 157.424 133.373 156.847 134.088C155.996 135.136 155.12 136.149 154.21 137.146C153.024 138.447 151.935 139.804 150.878 141.211C151.543 141.951 152.193 142.356 153.085 142.788C153.345 142.917 153.605 143.046 153.873 143.179C154.147 143.315 154.422 143.451 154.705 143.592C157.872 145.21 160.742 146.937 162.303 150.293C162.691 151.568 162.691 151.568 162.303 152.344C161.015 152.311 160.343 151.941 159.392 151.135C156.924 149.125 153.931 148.011 150.914 147.089C150.716 147.027 150.518 146.965 150.313 146.901C148.881 146.491 147.367 146.103 145.897 146.485C145.05 147.135 144.469 147.93 143.846 148.792C143.491 149.253 143.136 149.713 142.78 150.173C142.611 150.397 142.442 150.62 142.268 150.85C140.664 152.939 138.783 154.784 136.914 156.631C136.143 157.412 135.431 158.23 134.719 159.064C133.841 160.045 132.893 160.955 131.957 161.88C131.159 162.689 130.418 163.533 129.68 164.396C129.048 165.112 128.369 165.774 127.688 166.443C127.164 166.975 126.674 167.524 126.187 168.09C125.161 169.27 124.101 170.415 123.027 171.552C122.641 171.963 122.254 172.373 121.868 172.784C121.674 172.99 121.48 173.196 121.28 173.409C119.874 174.903 118.474 176.404 117.077 177.906C116.764 178.242 116.451 178.578 116.137 178.913C114.529 180.633 112.987 182.356 111.62 184.278C112.083 185.469 112.886 186.121 113.835 186.951C115.4 188.322 115.4 188.322 115.721 188.965C115.733 189.649 115.734 190.332 115.721 191.016C114.451 191.651 112.971 191.456 111.656 191.047C111.221 190.886 111.221 190.886 110.778 190.723C108.883 190.05 107.082 189.68 105.131 190.354C103.572 191.199 102.582 192.54 101.508 193.918C100.72 194.899 99.884 195.813 99.0222 196.729C97.6897 198.149 96.4446 199.617 95.2273 201.138C94.5146 201.991 93.747 202.759 92.9328 203.514C92.5113 203.891 92.5113 203.891 92.5768 204.492C92.3835 204.492 92.1901 204.492 91.9909 204.492C91.5347 204.937 91.5347 204.937 91.0639 205.519C90.0025 206.767 88.9017 207.968 87.7795 209.162C87.5876 209.366 87.3958 209.571 87.1981 209.781C85.9776 211.078 84.7336 212.345 83.4651 213.595C82.7508 214.321 82.0953 215.089 81.4372 215.866C80.9735 216.377 80.504 216.851 80.0044 217.326C79.8553 217.469 79.7063 217.611 79.5528 217.759C79.2553 218.041 78.9549 218.321 78.6512 218.597C77.8703 219.315 77.8703 219.315 77.592 220.297C78.1025 221.21 78.7863 221.94 79.5031 222.693C79.6614 222.861 79.8196 223.029 79.9827 223.203C84.9372 228.409 93.1712 235.626 100.579 236.884C102.953 236.522 104.753 233.932 106.328 232.233C106.533 232.013 106.739 231.793 106.95 231.567C108.209 230.216 109.453 228.855 110.681 227.477C111.474 226.594 112.279 225.724 113.085 224.854C114.333 223.505 115.569 222.147 116.794 220.776C117.297 220.22 117.805 219.671 118.32 219.126C119.829 217.525 121.296 215.904 122.661 214.179C122.898 213.88 123.135 213.581 123.379 213.273C123.951 212.361 124.124 211.709 124.217 210.645C123.166 209.628 122.086 209.599 120.694 209.529C120.221 209.497 119.748 209.465 119.275 209.433C118.537 209.389 117.799 209.345 117.06 209.303C114 209.12 111.289 208.806 108.397 207.715C108.397 207.232 108.397 206.748 108.397 206.25C114.591 204.62 120.46 205.407 126.593 206.996C127.527 207.22 128.24 207.247 129.198 207.129C129.864 206.536 130.333 206.032 130.864 205.335C131.17 204.956 131.476 204.578 131.782 204.199C131.936 204.005 132.09 203.81 132.249 203.609C132.975 202.701 133.731 201.821 134.49 200.94C134.635 200.77 134.78 200.601 134.929 200.426C136.024 199.149 137.155 197.91 138.3 196.678C139.155 195.751 139.963 194.8 140.752 193.817C141.878 192.418 143.075 191.107 144.302 189.797C145.452 188.562 146.518 187.276 147.574 185.961C148.305 185.079 149.072 184.237 149.852 183.399C151.075 182.081 152.238 180.73 153.363 179.329C153.934 178.624 154.51 177.927 155.094 177.233C158.601 173.612 158.601 173.612 160.546 169.336C157.452 169.336 154.358 169.336 151.171 169.336C151.364 168.273 151.557 167.209 151.757 166.114C152.144 164.076 152.144 164.076 151.592 162.177C150.617 161.152 149.863 160.613 148.424 160.485C146.57 160.458 144.736 160.634 142.894 160.833C142.089 160.84 142.089 160.84 141.21 160.254C141.063 159.558 141.063 159.558 141.21 158.789C142.655 157.302 144.329 156.958 146.329 156.92C146.561 156.921 146.793 156.921 147.032 156.922C147.274 156.922 147.517 156.922 147.766 156.922C150.367 156.969 153.361 157.32 155.565 158.789C155.719 159.34 155.719 159.34 155.779 160C155.803 160.236 155.826 160.472 155.851 160.715C155.871 160.962 155.892 161.209 155.913 161.463C155.937 161.712 155.961 161.96 155.986 162.217C156.044 162.832 156.098 163.447 156.151 164.063C156.646 164.029 157.14 163.991 157.634 163.953C157.91 163.932 158.185 163.912 158.468 163.891C159.396 163.79 159.396 163.79 160.35 163.483C161.76 163.091 163.152 162.976 164.606 162.855C165.902 162.726 166.846 162.586 167.87 161.719C168.546 160.859 169.131 159.949 169.719 159.027C170.084 158.468 170.449 157.91 170.814 157.351C171.004 157.058 171.193 156.766 171.388 156.465C173.919 152.565 176.49 148.707 179.271 144.982C182.429 140.744 185.3 136.325 188.085 131.836C188.257 131.558 188.43 131.28 188.608 130.993C189.706 129.225 190.801 127.455 191.893 125.684C191.646 125.388 191.398 125.092 191.143 124.787C190.535 123.931 190.429 123.682 190.406 122.584C190.76 121.46 191.209 120.815 191.966 119.916C194.533 116.643 195.858 112.583 195.409 108.399C195.146 107.226 194.749 106.51 193.761 105.78C189.626 104.478 185.18 106.728 182.523 109.893ZM198.581 116.553C197.433 117.914 196.288 119.769 196.288 121.582C201.225 121.797 204.258 120.727 207.933 117.499C209.116 116.397 210.112 115.357 210.936 113.965C210.936 113.675 210.936 113.385 210.936 113.086C206.435 112.402 201.982 113.422 198.581 116.553Z" fill="black"/>
</svg>
