<svg width="300" height="300" viewBox="0 0 300 300" fill="none" xmlns="http://www.w3.org/2000/svg">
<path d="M184.63 75.5333C185.753 75.5295 186.387 75.6698 187.237 76.4282C187.872 77.1922 188.422 77.9773 188.965 78.8086C189.137 79.0593 189.308 79.3101 189.485 79.5685C191.535 82.7962 193.077 86.6499 193.731 90.4148C194.174 92.8899 195.076 93.9028 197.047 95.2964C197.409 95.5455 197.773 95.7931 198.138 96.0391C205.953 101.52 208.635 112.754 210.27 121.542C210.84 125.041 210.987 128.527 210.976 132.066C210.975 132.722 210.976 133.378 210.978 134.034C210.978 134.455 210.978 134.876 210.977 135.297C210.977 135.673 210.976 136.05 210.976 136.438C210.946 137.214 210.878 137.839 210.645 138.574C210.802 138.617 210.958 138.66 211.119 138.705C215.654 140.07 219.373 143.326 221.778 147.363C221.967 147.675 222.156 147.986 222.35 148.307C227.582 157.306 228.145 168.084 226.173 178.125C226.132 178.337 226.091 178.55 226.049 178.769C223.474 191.776 216.794 204.303 205.707 211.915C203.529 213.352 201.204 214.547 198.898 215.76C198.037 216.217 197.182 216.682 196.327 217.15C195.778 217.448 195.228 217.745 194.678 218.042C194.425 218.182 194.171 218.322 193.91 218.466C191.634 219.679 191.634 219.679 190.137 219.434C189.538 219.165 189.538 219.165 189.039 218.793C188.871 218.674 188.703 218.555 188.531 218.432C187.971 217.848 187.761 217.262 187.501 216.504C187.727 216.263 187.954 216.022 188.187 215.774C189.14 214.756 190.08 213.728 191.016 212.695C191.238 212.451 191.46 212.207 191.689 211.955C194.816 208.296 196.224 203.773 197.725 199.282C198.209 197.833 198.734 196.41 199.293 194.989C201.651 188.739 202.407 182.716 201.856 176.074C201.735 176.32 201.613 176.566 201.488 176.819C198.959 181.802 195.763 186.434 192.188 190.723C192.044 190.897 191.9 191.071 191.751 191.25C189.262 194.24 186.698 196.987 183.651 199.424C182.814 200.097 182 200.791 181.184 201.489C179.103 203.226 176.907 204.791 174.696 206.357C174.052 206.816 173.413 207.28 172.774 207.747C170.002 209.76 167.144 211.542 164.147 213.203C163.521 213.55 162.898 213.904 162.276 214.259C150.493 220.853 136.748 223.79 123.34 224.121C123.096 224.127 122.852 224.134 122.6 224.141C108.746 224.451 95.6511 221.632 82.9863 216.116C81.8042 215.603 80.6177 215.12 79.4112 214.667C79.1416 214.565 78.8721 214.463 78.5944 214.358C78.0954 214.171 77.5948 213.989 77.0923 213.812C75.5916 213.246 74.8698 212.719 74.1217 211.23C72.8749 207.837 72.3756 203.783 73.8288 200.391C74.8433 198.919 75.8315 198.272 77.4726 197.571C79.224 196.763 80.639 195.843 82.0685 194.55C83.9803 192.824 85.9607 191.432 88.1842 190.137C88.441 189.985 88.441 189.985 88.7029 189.83C95.7028 185.745 103.667 183.023 111.329 180.469C110.753 180.479 110.753 180.479 110.166 180.489C103.084 180.577 96.3005 179.719 89.3561 178.418C89.3016 176.744 89.3016 176.744 89.7921 175.988C90.7901 175.31 91.7566 175.229 92.9267 175.104C101.098 174.015 108.942 170.861 116.309 167.285C116.558 167.165 116.807 167.044 117.064 166.92C122.746 164.137 127.938 160.585 132.715 156.445C132.955 156.239 132.955 156.239 133.199 156.028C136.868 152.832 139.941 149.29 142.795 145.363C143.28 144.702 143.775 144.049 144.272 143.397C146.067 141.026 147.718 138.638 149.213 136.066C151.904 131.452 155.311 127.98 160.584 126.471C163.603 125.935 166.135 126.642 169.044 127.441C170.16 124.192 170.594 120.976 170.93 117.572C171.52 111.694 172.456 106.009 175.609 100.902C176.433 99.4878 176.626 98.2685 176.368 96.6797C175.994 95.2736 175.548 93.9014 175.071 92.5272C174.85 91.8871 174.634 91.2453 174.419 90.6029C173.792 88.7468 173.146 86.963 172.27 85.2058C171.807 84.2222 171.664 83.9121 171.809 82.8094C173.992 79.0972 176.658 77.2489 180.751 76.0986C182.068 75.7736 183.28 75.6435 184.63 75.5333ZM182.575 78.6438C181.378 79.0199 180.251 79.259 179.005 79.3945C179.367 80.5277 179.781 81.6056 180.268 82.6904C180.812 83.9596 181.199 85.1926 181.517 86.5297C182.261 89.604 183.625 91.9416 185.336 94.5772C190.001 101.881 192.334 110.95 193.067 119.531C193.099 119.875 193.131 120.218 193.164 120.572C193.729 127.34 193.197 134.181 192.481 140.918C194.441 140.336 194.441 140.336 196.39 139.717C199.203 138.858 201.958 138.64 204.885 138.481C205.205 138.463 205.524 138.444 205.854 138.425C206.142 138.411 206.43 138.397 206.727 138.383C207.476 138.344 207.476 138.344 208.008 137.695C209.969 126.52 207.281 112.752 200.922 103.349C198.75 100.377 196.315 97.8009 193.536 95.4025C192.234 94.081 191.836 92.7973 191.55 91.0201C190.81 86.4736 188.504 81.4854 185.157 78.2226C184.112 78.2226 183.539 78.3264 182.575 78.6438ZM175.788 80.7781C175.574 81.0043 175.361 81.2305 175.141 81.4636C174.925 81.6845 174.71 81.9055 174.488 82.1331C173.939 82.8997 173.939 82.8997 174.032 83.8909C174.346 85.0694 174.829 86.0629 175.416 87.1216C177.409 90.8991 179.016 95.5914 178.419 99.9023C177.957 101.327 177.275 102.669 176.633 104.019C174.079 109.509 173.579 115.684 172.779 121.618C172.75 121.836 172.72 122.054 172.69 122.278C172.632 122.708 172.576 123.137 172.52 123.567C172.389 124.558 172.239 125.533 172.052 126.516C171.988 126.854 171.924 127.192 171.858 127.541C171.765 127.981 171.765 127.981 171.671 128.43C171.603 129.239 171.603 129.239 172.199 129.863C172.649 130.236 173.111 130.594 173.58 130.942C178.275 134.77 178.855 143.584 179.59 149.121C180.529 148.706 181.161 148.201 181.898 147.491C183.033 146.46 184.216 145.605 185.505 144.781C185.675 144.672 185.846 144.563 186.021 144.451C186.824 143.947 187.601 143.511 188.473 143.136C189.303 142.748 189.303 142.748 189.591 141.983C189.826 140.732 189.826 140.732 190.038 139.477C190.139 138.856 190.261 138.242 190.385 137.625C192.305 127.084 191.087 116.155 188.288 105.926C188.222 105.681 188.156 105.436 188.087 105.183C187.269 102.188 186.336 99.5653 184.571 96.9726C184.413 96.7407 184.255 96.5088 184.093 96.2699C183.503 95.4266 182.894 94.5989 182.282 93.7712C180.723 91.6198 180.044 89.5297 179.499 86.9568C178.954 84.5096 178.256 82.4344 176.954 80.2734C176.313 80.2093 176.313 80.2093 175.788 80.7781ZM155.86 132.422C155.432 132.922 155.011 133.429 154.597 133.942C154.368 134.223 154.14 134.505 153.905 134.795C153.68 135.076 153.455 135.356 153.223 135.645C153.022 135.895 152.821 136.145 152.614 136.402C152.23 136.882 151.847 137.362 151.464 137.843C151.05 138.361 150.633 138.875 150.212 139.388C149.997 139.651 149.783 139.914 149.561 140.186C149.267 140.544 149.267 140.544 148.966 140.909C148.479 141.461 148.479 141.461 148.536 142.09C150.481 141.453 152.405 140.769 154.327 140.064C156.319 139.395 158.224 139.37 160.309 139.343C160.628 139.332 160.946 139.321 161.274 139.31C163.909 139.282 165.604 140.014 167.78 141.431C168.886 143.326 167.426 146.969 166.956 148.993C166.911 149.188 166.866 149.383 166.819 149.584C164.572 159.165 158.608 166.347 150.88 172.266C150.603 172.488 150.327 172.71 150.043 172.94C145.665 176.418 140.884 179.339 135.938 181.934C135.693 182.063 135.448 182.192 135.195 182.325C127.025 186.591 118.501 189.504 109.747 192.293C108.559 192.672 107.371 193.052 106.184 193.433C105.955 193.506 105.726 193.579 105.491 193.654C102.083 194.749 98.7576 195.95 95.5085 197.461C95.3151 196.978 95.1217 196.494 94.9225 195.996C98.7214 193.556 103.315 192.271 107.572 190.878C119.361 187.005 131.223 182.356 141.798 175.781C142.265 175.491 142.265 175.491 142.742 175.195C147.082 172.392 150.99 169.123 154.688 165.527C154.92 165.308 155.151 165.088 155.39 164.861C160.558 159.866 164.893 152.515 165.274 145.145C165.273 144.898 165.272 144.651 165.272 144.397C165.273 144.024 165.273 144.024 165.274 143.644C165.262 142.922 165.262 142.922 164.942 142.09C163.77 141.435 162.743 141.484 161.426 141.504C161.359 141.701 161.291 141.899 161.222 142.102C155.884 157.576 145.959 168.211 131.251 175.488C129.545 176.275 127.819 177.01 126.087 177.737C125.068 178.167 124.081 178.63 123.099 179.14C121.302 180.053 119.429 180.734 117.536 181.421C117.251 181.525 117.251 181.525 116.96 181.632C114.193 182.644 111.407 183.546 108.582 184.387C94.571 188.555 94.571 188.555 83.4967 197.461C83.2913 199.618 84.2844 201.045 85.3942 202.812C86.7578 204.986 88.2002 207.371 88.0595 210.025C87.7365 211.214 86.9523 212.094 86.1335 212.988C86.6375 214.385 87.628 214.754 88.9069 215.374C96.4536 218.879 104.865 220.339 113.087 221.191C113.642 221.249 113.642 221.249 114.208 221.308C115.202 221.394 116.191 221.448 117.188 221.484C117.475 221.496 117.475 221.496 117.767 221.509C132.779 222.058 147.428 218.412 160.84 211.816C161.103 211.688 161.366 211.559 161.637 211.426C167.312 208.623 172.667 205.315 177.54 201.27C177.824 201.041 178.108 200.813 178.401 200.577C179.981 199.305 181.507 197.985 183.005 196.617C183.633 196.049 184.273 195.5 184.919 194.952C185.86 194.129 186.686 193.259 187.493 192.304C187.946 191.768 188.406 191.24 188.873 190.716C192.158 187.002 194.866 183.008 197.425 178.766C197.606 178.465 197.787 178.165 197.974 177.856C200.936 173.192 200.936 173.192 201.02 167.937C200.233 164.875 198.964 162.146 197.462 159.375C197.268 159.375 197.075 159.375 196.876 159.375C196.754 159.721 196.632 160.066 196.507 160.422C193.572 168.541 189.738 176.383 184.278 183.105C184.072 183.368 183.866 183.63 183.653 183.901C178.348 190.566 172.04 196.006 164.942 200.684C164.744 200.814 164.545 200.945 164.341 201.08C159.561 204.212 154.584 206.945 149.451 209.454C149.194 209.582 148.937 209.71 148.672 209.842C144.226 211.972 139.436 212.923 134.638 213.904C134.324 213.968 134.011 214.032 133.688 214.099C123.748 216.126 113.849 216.925 103.712 215.918C103.808 215.338 103.905 214.758 104.005 214.16C104.333 214.165 104.661 214.169 104.999 214.174C121.683 214.386 139.779 212.653 154.688 204.492C154.928 204.364 155.167 204.236 155.414 204.104C161.705 200.724 167.642 196.793 172.852 191.895C173.179 191.594 173.506 191.293 173.834 190.993C174.78 190.125 175.724 189.256 176.661 188.379C177.006 188.055 177.006 188.055 177.359 187.725C177.899 187.252 177.899 187.252 177.833 186.621C178.026 186.621 178.219 186.621 178.419 186.621C178.419 186.428 178.419 186.234 178.419 186.035C178.709 185.938 178.999 185.842 179.298 185.742C180.054 185.028 180.691 184.203 181.348 183.398C181.56 183.142 181.771 182.886 181.989 182.623C186.712 176.704 195.885 164.279 195.037 156.263C194.34 153.969 192.133 152.84 190.201 151.67C188.271 150.651 186.576 150.44 184.424 150.385C184.154 150.365 183.883 150.346 183.604 150.326C182.072 150.29 182.072 150.29 180.823 151.082C180.35 151.774 179.967 152.474 179.59 153.223C179.312 153.719 179.034 154.215 178.755 154.71C178.344 155.472 177.937 156.235 177.531 156.999C176.84 158.278 176.162 159.449 175.196 160.547C174.809 160.45 174.423 160.353 174.024 160.254C174.479 158.081 175.086 155.985 175.746 153.866C177.615 147.773 176.816 141.337 174.024 135.645C172.253 132.617 169.835 130.171 166.407 129.199C162.197 128.234 158.798 129.344 155.86 132.422ZM201.27 140.918C201.27 141.111 201.27 141.305 201.27 141.504C201.803 141.919 201.803 141.919 202.479 142.328C208.398 146.045 211.82 152.798 213.357 159.437C216.65 175.125 209.467 191.782 201.05 204.84C200.186 206.159 199.287 207.447 198.359 208.722C197.119 210.469 196.193 212.276 196.29 214.453C200.999 211.879 205.52 209.021 209.473 205.371C209.617 205.239 209.761 205.106 209.909 204.97C218.828 196.645 223.754 182.504 224.388 170.499C224.401 170.068 224.401 170.068 224.415 169.629C224.426 169.324 224.438 169.019 224.45 168.704C224.634 159.471 222.328 151.363 215.919 144.562C214.575 143.285 213.259 142.442 211.524 141.797C211.284 141.704 211.043 141.611 210.795 141.515C207.74 140.552 204.435 140.84 201.27 140.918ZM145.606 147.656C145.366 147.864 145.125 148.072 144.877 148.287C142.509 150.376 140.172 152.581 138.135 154.999C133.004 160.964 125.846 165.416 118.946 169.043C118.727 169.161 118.507 169.278 118.282 169.4C113.722 171.824 108.87 173.373 103.963 174.927C102.592 175.365 101.248 175.853 99.903 176.367C99.903 176.561 99.903 176.754 99.903 176.953C102.867 177.413 105.742 177.644 108.747 177.631C108.944 177.63 109.14 177.629 109.343 177.629C112.707 177.611 115.954 177.403 119.239 176.66C119.476 176.607 119.713 176.553 119.958 176.498C130.006 174.122 139.082 169.155 146.485 162.012C146.716 161.796 146.947 161.58 147.184 161.358C151 157.702 153.638 153.239 156.098 148.608C156.235 148.352 156.373 148.096 156.514 147.831C157.525 145.898 158.497 144.011 158.497 141.797C153.451 141.401 149.221 144.5 145.606 147.656ZM186.915 147.07C186.721 147.36 186.528 147.65 186.329 147.949C186.633 148.013 186.938 148.078 187.251 148.144C192.661 149.348 195.97 152.089 198.99 156.697C204.901 166.111 206.302 178.497 203.907 189.258C203.159 192.226 202.182 195.135 201.143 198.013C200.901 198.643 200.901 198.643 201.27 199.219C208.071 189.187 213.93 174.548 211.655 162.335C210.278 155.835 207.473 148.401 201.73 144.541C196.633 141.617 191.309 143.893 186.915 147.07Z" fill="black"/>
</svg>
