<svg width="300" height="300" viewBox="0 0 300 300" fill="none" xmlns="http://www.w3.org/2000/svg">
<path d="M235.343 84.0117C235.948 84.0088 236.552 83.9997 237.157 83.9905C240.069 83.967 242.865 84.0951 245.079 86.1889C247.146 88.734 247.231 92.0884 246.974 95.2149C246.203 100.123 243.956 104.408 241.444 108.636C237.425 115.408 235.539 121.053 234.634 128.824C233.767 136.195 231.696 142.879 228.224 149.414C228.077 149.695 228.077 149.695 227.928 149.981C225.721 154.188 222.999 158.069 220.049 161.787C217.733 164.715 215.906 167.863 214.068 171.107C210.025 178.215 205.461 184.804 199.806 190.723C199.608 190.936 199.411 191.149 199.207 191.368C197.439 193.223 195.413 194.764 193.361 196.289C193.203 196.408 193.045 196.526 192.882 196.648C189.985 198.791 186.794 200.394 183.577 201.994C180.568 203.499 177.666 205.144 175.233 207.495C174.941 207.771 174.649 208.046 174.355 208.321C174.207 208.462 174.058 208.602 173.905 208.746C166.236 215.88 157.472 219.782 147.679 223.217C145.153 224.109 142.77 225.031 140.48 226.447C137.727 228.117 134.628 228.853 131.544 229.688C131.265 229.765 130.987 229.843 130.699 229.923C125.677 231.317 120.585 232.181 115.431 232.91C115.198 232.944 114.966 232.978 114.726 233.013C109.234 233.726 103.324 233.362 97.8529 232.617C97.4422 232.563 97.4422 232.563 97.0233 232.507C87.7217 231.236 78.3301 228.411 71.1927 222.07C70.8511 221.787 70.8511 221.787 70.5026 221.497C68.7405 220.008 67.3213 218.331 65.9193 216.504C65.7915 216.338 65.6638 216.172 65.5322 216.001C58.6874 207.057 53.4777 196.334 54.9215 184.775C55.6293 180.184 57.6042 176.035 59.7669 171.973C59.9158 171.69 59.9158 171.69 60.0676 171.401C62.5093 166.788 65.4442 162.453 68.849 158.496C69.0922 158.199 69.3354 157.902 69.586 157.597C73.0859 153.356 77.0063 149.163 81.4466 145.898C81.6906 145.714 81.6906 145.714 81.9396 145.525C87.4523 141.364 93.6222 138.189 99.6965 134.94C105.655 131.75 111.509 128.478 117.189 124.805C117.399 124.67 117.609 124.535 117.826 124.396C122.733 121.239 127.351 117.688 131.837 113.965C133.428 112.645 135.023 111.332 136.671 110.083C136.904 109.906 137.137 109.73 137.376 109.547C139.766 108.063 142.398 107.184 145.057 106.311C148.601 105.114 151.985 103.671 155.392 102.133C169.319 95.8884 169.319 95.8884 176.515 94.3909C176.926 94.305 176.926 94.305 177.346 94.2174C182.174 93.2922 187.099 93.098 192.001 92.9366C197.879 92.736 203.659 92.2963 209.474 91.4063C209.789 91.3586 210.104 91.311 210.429 91.2619C214.1 90.689 216.942 89.9458 219.984 87.7441C224.454 84.5412 230 84.0268 235.343 84.0117ZM219.801 93.7775C218.136 94.556 216.459 95.304 214.767 96.0229C213.748 96.4596 212.796 96.9511 211.836 97.5037C210.631 98.1089 209.466 98.3278 208.138 98.4741C207.813 98.5108 207.813 98.5108 207.482 98.5482C204.816 98.822 202.153 98.8055 199.476 98.7854C198.935 98.7838 198.394 98.7823 197.852 98.781C194.594 98.7677 191.343 98.6806 188.087 98.5474C178.518 98.1806 171.121 101.236 162.624 105.386C157.109 108.076 151.461 110.458 145.733 112.655C143.018 113.714 140.445 114.944 138.228 116.858C138.074 116.991 137.92 117.124 137.761 117.26C136.178 118.652 134.695 120.149 133.223 121.656C131.937 122.971 130.599 124.197 129.201 125.391C128.932 125.624 128.664 125.857 128.388 126.098C121.572 131.891 114.043 135.955 105.892 139.558C98.9081 142.648 92.2597 146.31 86.1341 150.879C85.8948 151.055 85.8948 151.055 85.6506 151.234C83.1139 153.102 80.7861 155.141 78.5169 157.324C78.3726 157.462 78.2282 157.6 78.0795 157.742C76.1097 159.632 74.3268 161.61 72.6576 163.77C72.54 163.919 72.4225 164.068 72.3014 164.221C65.6518 172.694 59.7203 183.201 61.0173 194.326C62.365 202.749 67.8706 210.953 74.7083 215.918C80.2051 219.699 87.3099 220.988 93.8795 220.166C97.3372 219.416 100.506 217.399 103.529 215.643C110.971 211.331 118.082 209.313 126.55 208.038C127.376 207.913 128.202 207.787 129.028 207.661C129.619 207.571 130.211 207.486 130.804 207.4C134.26 206.881 137.821 206.258 140.938 204.602C141.227 204.452 141.227 204.452 141.522 204.299C146.639 201.567 151.924 197.366 155.275 192.609C155.399 192.433 155.523 192.257 155.65 192.077C158.715 187.626 159.999 183.153 160.511 177.838C160.778 175.203 161.037 172.856 163.185 171.094C164.097 170.638 164.81 170.724 165.822 170.801C166.621 171.085 167.348 171.474 168.092 171.881C168.507 172.097 168.922 172.312 169.337 172.528C169.538 172.633 169.738 172.739 169.945 172.848C173.613 174.778 177.714 175.99 181.862 174.902C183.376 174.312 184.351 173.376 185.158 171.973C186.233 169.051 185.534 165.997 184.545 163.14C184.294 162.352 184.191 161.735 184.187 160.913C184.182 160.691 184.177 160.469 184.172 160.24C184.225 159.957 184.225 159.957 184.279 159.668C185.363 158.945 185.767 159.055 187.044 159.174C187.41 159.205 187.776 159.236 188.154 159.267C188.842 159.334 189.531 159.405 190.218 159.483C192.48 159.721 194.543 159.823 196.455 158.423C200.218 154.799 201.586 148.736 202.882 143.884C204.261 138.765 206.37 135.391 210.565 132.171C215.033 128.725 216.808 125.283 217.952 119.824C219.058 114.616 221.608 109.564 226.118 106.497C227.756 105.436 229.451 104.553 231.209 103.711C235.465 101.663 238.883 98.529 240.529 94.043C240.932 92.6544 241.059 91.3691 240.474 90.0147C239.696 89.0498 239.102 88.5586 237.842 88.393C231.314 88.1655 225.551 91.0857 219.801 93.7775Z" fill="black"/>
<path d="M171.676 132.881C172.256 133.081 172.828 133.296 173.399 133.52C173.602 133.599 173.805 133.678 174.014 133.758C179.138 135.773 179.138 135.773 179.881 137.402C180.055 140.262 179.049 143.389 177.245 145.605C176.337 146.547 175.542 147.242 174.297 147.675C172.951 147.646 172.033 147.133 171.092 146.191C171.063 144.97 171.295 143.799 171.715 142.657C172.237 140.903 171.762 139.326 170.933 137.758C170.189 136.627 169.28 135.63 168.377 134.624C167.87 133.887 167.87 133.887 167.903 133.223C168.6 131.858 170.464 132.535 171.676 132.881Z" fill="black"/>
<path d="M107.172 169.574C108.57 170.533 108.57 170.533 108.985 171.387C109.316 173.267 109.332 175.178 109.333 177.081C109.337 177.344 109.34 177.607 109.344 177.877C109.345 178.253 109.345 178.253 109.346 178.637C109.347 178.862 109.348 179.088 109.349 179.32C109.278 179.883 109.278 179.883 108.692 180.469C106.492 180.369 105.288 179.175 103.858 177.649C102.392 175.964 100.95 174.285 100.617 172.028C100.801 170.983 100.967 170.434 101.661 169.629C103.598 168.489 105.227 168.542 107.172 169.574Z" fill="black"/>
</svg>
