<svg width="300" height="300" viewBox="0 0 300 300" fill="none" xmlns="http://www.w3.org/2000/svg">
<path d="M201.866 87.017C205.544 87.8768 208.785 87.8064 212.402 86.737C217.016 85.434 222.265 84.4795 226.758 86.7187C229.458 88.2307 231.644 90.2601 232.818 93.164C233.001 93.6082 233.001 93.6082 233.188 94.0613C234.762 98.4621 233.579 103.498 231.817 107.668C231.186 108.907 230.426 110.062 229.659 111.219C228.518 113.24 228.077 115.1 228.131 117.407C228.133 117.644 228.136 117.88 228.138 118.124C228.179 120.223 228.383 122.301 228.596 124.388C230.139 139.6 221.497 156.762 212.695 168.75C212.573 168.916 212.451 169.083 212.326 169.254C211.497 170.376 210.642 171.474 209.765 172.559C209.573 172.797 209.573 172.797 209.376 173.041C206.227 176.901 202.705 180.448 198.925 183.691C198.598 183.977 198.271 184.262 197.944 184.547C195.75 186.447 193.513 188.275 191.216 190.048C190.744 190.413 190.274 190.781 189.803 191.148C167.123 208.792 141.317 216.927 112.646 214.764C111.197 214.657 109.747 214.551 108.297 214.445C107.777 214.407 107.777 214.407 107.246 214.367C104.999 214.204 102.752 214.064 100.501 213.971C94.8373 213.717 89.1037 212.065 84.0817 209.473C83.7702 209.32 83.4586 209.167 83.1376 209.009C75.9986 205.376 70.3162 199.12 67.8105 191.457C64.9265 181.946 66.0979 172.262 70.6052 163.477C72.4307 160.124 74.5953 157.021 76.9486 154.02C77.2922 153.581 77.6296 153.137 77.966 152.693C81.4323 148.245 85.6391 144.453 90.2341 141.211C90.4108 141.084 90.5875 140.958 90.7695 140.828C93.0925 139.175 95.5213 137.773 98.0161 136.395C100.542 134.995 102.832 133.51 105.022 131.629C105.453 131.264 105.894 130.911 106.336 130.56C108.561 128.761 110.587 126.771 112.61 124.75C112.749 124.611 112.888 124.472 113.031 124.329C114.524 122.836 115.978 121.325 117.354 119.723C117.857 119.142 118.382 118.59 118.927 118.048C119.184 117.789 119.184 117.789 119.447 117.525C120.02 116.986 120.603 116.473 121.199 115.961C122.371 114.937 123.473 113.86 124.563 112.749C124.954 112.354 125.346 111.959 125.738 111.564C126.342 110.953 126.945 110.341 127.548 109.728C129.859 107.382 132.162 105.148 134.765 103.125C135.218 102.754 135.669 102.381 136.12 102.008C154.709 87.2479 178.719 81.3825 201.866 87.017ZM166.113 93.164C165.786 93.2443 165.786 93.2443 165.452 93.3261C151.317 96.868 139.745 105.894 129.712 116.071C129.014 116.776 128.317 117.481 127.618 118.185C127.188 118.619 126.758 119.054 126.329 119.49C126.041 119.781 126.041 119.781 125.747 120.077C125.579 120.248 125.41 120.419 125.237 120.595C124.804 120.996 124.804 120.996 124.218 121.289C124.218 121.482 124.218 121.676 124.218 121.875C123.958 121.992 123.958 121.992 123.693 122.111C122.241 122.897 121.168 124.3 120.099 125.537C116.026 130.242 111.646 134.293 106.64 137.988C106.472 138.113 106.303 138.238 106.13 138.367C104.026 139.918 101.843 141.195 99.5517 142.441C97.3284 143.66 95.2337 145.023 93.1638 146.484C92.7066 146.801 92.7066 146.801 92.2402 147.124C87.7535 150.389 83.7746 154.562 80.5661 159.082C80.3837 159.335 80.3837 159.335 80.1976 159.593C77.1746 163.823 74.596 168.395 73.2419 173.437C73.149 173.771 73.0561 174.105 72.9604 174.449C71.2988 181.37 72.2603 188.694 75.8786 194.824C76.5981 195.867 77.3761 196.813 78.2224 197.754C78.4512 198.041 78.6801 198.327 78.9159 198.622C81.7574 202.039 86.1859 204.317 90.2707 205.884C90.5713 206.002 90.5713 206.002 90.8779 206.123C95.8873 207.939 101.187 208.246 106.457 208.502C107.102 208.536 107.746 208.571 108.39 208.606C109.325 208.656 110.259 208.706 111.194 208.754C112.726 208.832 114.255 208.927 115.784 209.053C118.518 209.256 121.258 209.251 123.999 209.253C124.427 209.253 124.427 209.253 124.863 209.253C129.397 209.249 133.801 209.054 138.281 208.301C138.584 208.252 138.888 208.203 139.2 208.153C158.501 204.993 174.958 195.746 189.843 183.398C190.387 182.959 190.93 182.519 191.473 182.08C192.763 181.026 194.01 179.933 195.239 178.809C195.853 178.254 196.475 177.711 197.101 177.171C200.314 174.364 203.399 171.291 205.957 167.871C206.186 167.567 206.415 167.262 206.651 166.949C210.171 162.191 212.97 157.035 215.625 151.758C215.805 151.404 215.805 151.404 215.989 151.043C219.656 143.801 223.011 135.587 223.004 127.35C223.004 127.124 223.004 126.898 223.004 126.665C222.99 124.986 222.851 123.34 222.656 121.674C222.042 116.36 222.505 112.289 224.98 107.531C226.915 103.798 228.852 99.6859 227.749 95.3899C227.073 93.8321 225.898 92.7862 224.414 91.9922C220.713 90.7736 217.291 91.4451 213.629 92.4316C208.207 93.791 204.329 93.6313 198.888 92.3906C187.938 89.9122 176.961 90.4489 166.113 93.164Z" fill="black"/>
<path d="M143.315 116.905C149.738 120.304 154.393 126.074 156.528 132.973C157.254 135.443 157.678 137.776 157.71 140.35C157.722 140.697 157.722 140.697 157.735 141.051C157.748 142.222 157.702 142.828 157.088 143.855C156.446 144.434 156.446 144.434 155.457 144.598C154.221 144.407 153.593 144.062 152.638 143.262C151.877 142.162 151.901 140.892 151.795 139.6C151.318 134.731 149.456 130.516 146.192 126.856C146.008 126.647 145.824 126.439 145.635 126.225C143.328 123.767 140.565 122.347 137.451 121.159C136.419 120.651 135.796 120.117 135.059 119.238C134.876 118.231 134.83 117.577 135.36 116.676C137.53 113.926 140.695 115.621 143.315 116.905Z" fill="black"/>
<path d="M160.842 170.215C161.661 170.884 162.241 171.45 162.376 172.527C162.525 177.236 160.329 181.652 157.326 185.156C157.134 185.394 156.942 185.632 156.744 185.877C152.748 190.626 147.251 192.897 141.172 193.442C139.478 193.499 137.722 193.358 136.232 192.481C135.543 191.409 135.491 190.52 135.646 189.258C136.391 188.332 136.861 187.876 137.99 187.5C138.502 187.473 139.014 187.447 139.526 187.43C144.027 187.27 148.164 186.035 151.54 182.922C154.293 179.952 155.86 176.261 156.887 172.394C157.16 171.462 157.343 171.073 157.985 170.306C159.083 169.783 159.684 169.878 160.842 170.215Z" fill="black"/>
<path d="M194.532 123.34C195.184 123.903 195.69 124.564 196.216 125.244C196.525 125.622 196.835 125.998 197.147 126.374C197.299 126.557 197.452 126.741 197.609 126.93C201.658 131.648 207.92 135.04 213.735 137.035C216.223 137.938 216.223 137.938 216.926 138.794C217.177 139.8 217.061 140.503 216.797 141.504C216.052 142.566 215.624 142.915 214.344 143.152C207.227 142.599 199.808 137.195 194.825 132.422C194.571 132.18 194.317 131.938 194.056 131.689C190.519 127.967 190.519 127.967 190.32 126.141C190.45 124.914 190.726 124.484 191.602 123.633C192.618 122.888 193.346 122.992 194.532 123.34Z" fill="black"/>
<path d="M180.925 93.5851C182.099 94.1187 182.57 94.6646 183.104 95.8007C183.452 96.9462 183.698 98.1092 183.947 99.2797C184.735 102.753 185.734 105.956 187.262 109.177C187.371 109.41 187.48 109.643 187.592 109.883C187.804 110.331 188.021 110.776 188.245 111.218C188.97 112.738 189.203 114.086 188.671 115.723C188.037 116.53 187.727 116.622 186.693 116.949C185.93 117.008 185.568 116.972 184.922 116.553C183.136 114.694 182.105 112.184 181.054 109.863C180.929 109.592 180.929 109.592 180.803 109.315C179.04 105.395 177.122 100.173 177.538 95.8007C178.324 94.2233 179.078 93.3583 180.925 93.5851Z" fill="black"/>
<path d="M106.147 191.913C106.9 192.778 106.988 193.716 106.934 194.824C106.429 196.086 105.771 196.551 104.59 197.168C103.643 197.436 103.643 197.436 102.613 197.644C102.276 197.714 101.939 197.785 101.592 197.857C96.3239 198.764 88.77 199.399 84.0823 196.289C83.3524 195.194 83.3622 194.656 83.4964 193.359C84.0224 192.553 84.3907 192.033 85.2542 191.602C86.6367 191.525 87.859 191.634 89.2184 191.892C91.0452 192.204 92.8152 192.288 94.6658 192.279C94.9817 192.279 95.2975 192.279 95.6229 192.279C97.8135 192.254 99.9107 192.051 102.054 191.596C103.557 191.281 104.739 191.266 106.147 191.913Z" fill="black"/>
<path d="M112.242 159.009C112.447 159.055 112.653 159.101 112.865 159.148C114.599 159.588 116.171 160.197 117.186 161.719C117.415 163.754 117.415 163.754 116.545 164.923C115.674 165.562 115.312 165.724 114.256 165.82C113.254 165.603 113.254 165.603 112.15 165.271C110.406 164.772 108.747 164.423 106.932 164.356C106.709 164.347 106.486 164.339 106.256 164.33C105.125 164.312 104.02 164.354 102.892 164.453C102.6 164.478 102.6 164.478 102.302 164.504C101.737 164.555 101.173 164.612 100.609 164.67C99.4872 164.646 99.0166 164.455 98.1426 163.77C97.4573 162.742 97.4357 162.343 97.5566 161.133C97.9804 160.121 98.3236 159.738 99.2595 159.155C103.044 157.671 108.343 158.134 112.242 159.009Z" fill="black"/>
<path d="M173.73 131.543C176.152 133.082 178.16 135.844 179.004 138.574C179.221 139.984 179.21 140.885 178.436 142.108C177.403 142.762 176.758 142.946 175.548 142.87C173.784 142.339 173.043 140.164 172.229 138.666C172.085 138.392 171.941 138.118 171.793 137.836C171.386 137.06 171.386 137.06 170.709 136.267C170.124 135.53 169.945 135.121 169.922 134.18C170.642 132.286 171.601 131.133 173.73 131.543Z" fill="black"/>
</svg>
