<svg width="300" height="300" viewBox="0 0 300 300" fill="none" xmlns="http://www.w3.org/2000/svg">
<path d="M165.82 42.7734C167.271 42.7734 168.721 42.7734 170.215 42.7734C170.106 45.4957 169.996 48.2178 169.885 50.9399C169.876 51.1593 169.867 51.3788 169.858 51.6048C169.395 62.9747 168.897 74.3431 168.402 85.7117C168.392 85.9441 168.382 86.1766 168.371 86.416C168.107 92.474 167.843 98.5319 167.578 104.59C167.794 104.47 168.009 104.35 168.232 104.226C168.517 104.068 168.803 103.91 169.098 103.748C169.38 103.591 169.662 103.435 169.953 103.274C170.712 102.878 171.465 102.548 172.266 102.246C172.287 101.795 172.287 101.795 172.308 101.335C172.504 97.2909 172.795 93.2548 173.09 89.217C173.252 86.9894 173.413 84.7615 173.573 82.5336C173.59 82.2919 173.607 82.0501 173.625 81.801C173.949 77.2768 174.259 72.7516 174.566 68.2262C174.589 67.8865 174.612 67.5468 174.636 67.1968C174.867 63.7852 175.097 60.3737 175.327 56.962C175.413 55.6761 175.5 54.3902 175.587 53.1043C175.647 52.2156 175.706 51.3268 175.766 50.4381C175.938 47.88 176.117 45.3254 176.367 42.7734C177.817 42.7734 179.268 42.7734 180.762 42.7734C180.439 49.1192 180.045 55.4591 179.608 61.7981C179.583 62.1637 179.558 62.5293 179.532 62.9059C179.186 67.9087 178.817 72.9089 178.378 77.9044C178.199 79.9681 178.07 82.0097 178.125 84.082C179.88 81.021 181.542 77.9242 183.138 74.7777C184.879 71.3485 186.64 67.936 188.505 64.5727C190.012 61.8379 191.422 59.0533 192.843 56.2732C194.613 52.812 196.43 49.3828 198.34 45.9961C198.97 46.2101 199.599 46.4312 200.226 46.6553C200.576 46.7776 200.926 46.9 201.287 47.0261C202.148 47.4609 202.148 47.4609 202.387 47.9982C202.457 48.8157 202.256 49.1463 201.835 49.8459C201.625 50.2022 201.625 50.2022 201.411 50.5656C201.255 50.8221 201.1 51.0786 200.94 51.3428C200.612 51.8997 200.285 52.457 199.958 53.0148C199.787 53.3054 199.616 53.5961 199.44 53.8955C198.604 55.3415 197.812 56.811 197.021 58.2825C196.7 58.8791 196.379 59.4757 196.058 60.0723C195.901 60.3644 195.743 60.6566 195.582 60.9575C195.141 61.7722 194.697 62.5845 194.25 63.3957C192.235 67.0557 190.298 70.7523 188.388 74.4678C187.444 76.3031 186.492 78.1337 185.537 79.9633C185.313 80.3942 185.313 80.3942 185.084 80.8338C184.322 82.2942 183.556 83.7527 182.784 85.2075C179.24 91.8891 175.951 98.1142 174.781 105.645C174.487 107.35 174.04 109.015 173.602 110.687C173.455 111.257 173.309 111.826 173.164 112.396C173.103 112.63 173.043 112.863 172.98 113.104C172.83 113.67 172.83 113.67 172.852 114.258C173.548 113.001 174.244 111.744 174.939 110.486C175.097 110.199 175.097 110.199 175.259 109.907C176.739 107.228 178.201 104.541 179.645 101.843C181.072 99.1783 182.538 96.5388 184.034 93.9119C185.352 91.5919 186.626 89.2495 187.893 86.9009C188.814 85.1928 189.742 83.4888 190.686 81.7932C190.859 81.4827 190.859 81.4827 191.035 81.1659C191.576 80.1957 192.118 79.2263 192.661 78.2574C194.856 74.3383 197.012 70.4032 199.109 66.4307C201.002 62.8452 202.95 59.2973 204.97 55.7814C205.352 55.1123 205.725 54.4395 206.096 53.7643C206.258 53.4713 206.258 53.4713 206.423 53.1723C206.7 52.6708 206.975 52.1682 207.25 51.6655C207.715 50.9766 207.715 50.9766 208.594 50.6836C209.32 51.0086 209.32 51.0086 210.114 51.4893C210.378 51.6449 210.641 51.8004 210.913 51.9608C211.115 52.1194 211.316 52.278 211.523 52.4414C211.523 53.4646 211.282 53.8689 210.793 54.7588C210.558 55.1895 210.558 55.1895 210.319 55.6289C210.063 56.0904 210.063 56.0904 209.802 56.5613C209.54 57.0389 209.54 57.0389 209.273 57.5262C208.756 58.4691 208.236 59.4106 207.715 60.3516C207.584 60.5889 207.453 60.8263 207.318 61.0708C206.478 62.5914 205.632 64.1083 204.785 65.625C202.473 69.7703 200.173 73.9214 197.918 78.0981C196.518 80.6908 195.092 83.2686 193.652 85.8398C193.495 86.1212 193.337 86.4026 193.175 86.6926C192.472 87.9474 191.77 89.2021 191.067 90.4568C190.561 91.3592 190.056 92.2616 189.551 93.1641C189.416 93.4043 189.282 93.6445 189.143 93.892C187.478 96.8699 185.845 99.8644 184.223 102.866C183.162 104.83 182.086 106.786 180.996 108.734C180.32 109.945 179.655 111.161 178.999 112.383C176.478 117.08 173.84 121.7 171.094 126.27C171.424 125.939 171.755 125.608 172.085 125.277C172.424 124.939 172.764 124.603 173.106 124.268C174.245 123.144 175.329 121.994 176.373 120.781C177.09 119.961 177.826 119.16 178.564 118.359C179.632 117.199 180.686 116.03 181.718 114.838C182.306 114.167 182.907 113.508 183.508 112.848C184.414 111.846 185.281 110.824 186.127 109.772C187.418 108.175 188.799 106.677 190.2 105.176C191.008 104.309 191.791 103.423 192.566 102.526C193.165 101.84 193.774 101.164 194.385 100.488C195.173 99.6151 195.956 98.7385 196.729 97.8516C198.467 95.8578 200.248 93.9027 202.039 91.9556C203.094 90.8071 204.135 89.6477 205.158 88.4697C206.578 86.8439 208.033 85.249 209.501 83.666C210.917 82.1361 212.253 80.5652 213.56 78.9402C214.078 78.3211 214.606 77.757 215.186 77.1973C216.007 76.4036 216.723 75.5615 217.438 74.6704C218.449 73.4134 219.503 72.2207 220.605 71.0449C221.938 69.6215 223.198 68.1583 224.42 66.6378C225.179 65.696 225.966 64.7812 226.758 63.8672C226.892 63.9839 227.027 64.1006 227.165 64.2208C228.083 65.0131 228.996 65.7949 229.98 66.5039C229.808 67.4713 229.512 67.9655 228.834 68.6691C228.66 68.8516 228.487 69.0341 228.308 69.2222C228.03 69.5081 228.03 69.5081 227.747 69.7998C227.369 70.1963 226.991 70.593 226.614 70.99C226.434 71.1784 226.254 71.3669 226.068 71.5611C225.367 72.3018 224.699 73.069 224.034 73.8419C223.391 74.5799 222.73 75.3021 222.07 76.0254C221.059 77.1348 220.06 78.2533 219.075 79.3865C218.469 80.0786 217.853 80.7621 217.236 81.4453C216.448 82.3185 215.665 83.1951 214.893 84.082C213.898 85.2244 212.883 86.3485 211.868 87.4729C211.326 88.0773 210.791 88.6867 210.26 89.3005C209.197 90.5211 208.097 91.7059 206.997 92.893C205.659 94.3377 204.341 95.7988 203.027 97.2656C202.594 97.748 202.161 98.2301 201.727 98.7122C201.51 98.9539 201.293 99.1956 201.069 99.4446C200.604 99.9594 200.136 100.472 199.666 100.983C198.475 102.278 197.315 103.582 196.216 104.956C194.785 106.73 193.227 108.373 191.666 110.03C190.508 111.26 189.397 112.524 188.304 113.812C186.527 115.904 184.729 117.967 182.858 119.976C181.916 120.988 180.995 122.014 180.09 123.059C179.491 123.746 178.882 124.422 178.271 125.098C177.941 125.465 177.941 125.465 177.604 125.839C177.18 126.31 176.755 126.78 176.329 127.249C176.142 127.458 175.956 127.666 175.763 127.881C175.596 128.065 175.43 128.249 175.258 128.439C174.843 128.886 174.843 128.886 174.902 129.492C175.386 129.686 175.869 129.879 176.367 130.078C176.562 129.897 176.758 129.716 176.959 129.53C178.332 128.268 179.709 127.035 181.165 125.867C182.618 124.698 183.981 123.452 185.328 122.164C186.102 121.432 186.798 120.811 187.793 120.41C187.793 120.217 187.793 120.023 187.793 119.824C188.223 119.401 188.223 119.401 188.818 118.909C190.108 117.812 191.295 116.638 192.48 115.43C193.988 113.892 195.536 112.439 197.168 111.035C198.919 109.49 200.638 107.945 202.143 106.154C202.967 105.199 203.831 104.283 204.694 103.363C205.052 102.98 205.411 102.597 205.769 102.214C206.036 101.929 206.036 101.929 206.309 101.638C208.862 98.9176 208.862 98.9176 211.34 96.1304C212.518 94.7666 213.759 93.4613 214.995 92.1508C216.002 91.0801 216.967 89.9916 217.891 88.8486C218.014 88.7258 218.136 88.603 218.262 88.4766C218.455 88.4766 218.648 88.4766 218.848 88.4766C218.916 88.3119 218.984 88.1472 219.055 87.9776C219.527 87.1385 220.113 86.5803 220.807 85.9131C221.698 85.041 222.563 84.1717 223.37 83.2214C224.339 82.0885 225.389 81.0475 226.449 80.0019C227.414 79.0449 228.315 78.0531 229.197 77.0199C229.91 76.213 230.681 75.4682 231.449 74.7128C232.213 73.9368 232.923 73.1213 233.63 72.2935C234.056 71.8072 234.498 71.3498 234.961 70.8984C236.058 71.2643 236.205 71.6274 236.792 72.6013C236.951 72.857 237.109 73.1127 237.273 73.3761C237.646 74.2322 237.614 74.4395 237.305 75.293C236.961 75.7407 236.961 75.7407 236.524 76.1687C236.361 76.3312 236.197 76.4936 236.029 76.661C235.851 76.8334 235.673 77.0059 235.49 77.1835C235.215 77.4556 235.215 77.4556 234.934 77.7331C234.347 78.3135 233.757 78.8907 233.167 79.4678C232.396 80.225 231.626 80.9835 230.857 81.7429C230.581 82.0154 230.581 82.0154 230.299 82.2935C229.205 83.3783 228.157 84.4849 227.162 85.6622C226.529 86.3988 225.841 87.0658 225.146 87.7441C224.239 88.638 223.354 89.5381 222.528 90.509C221.503 91.7122 220.383 92.8088 219.259 93.9187C218.279 94.8914 217.359 95.8939 216.465 96.9463C215.271 98.2833 213.971 99.5225 212.695 100.781C215.525 99.3828 218.329 97.9466 221.108 96.4494C224.746 94.493 228.413 92.5945 232.104 90.74C232.604 90.489 233.103 90.2374 233.602 89.9852C234.3 89.6326 234.999 89.2825 235.699 88.9332C235.908 88.8272 236.118 88.7213 236.333 88.6121C237.79 87.8906 237.79 87.8906 238.77 87.8906C238.976 88.2971 239.176 88.7067 239.374 89.1174C239.486 89.3452 239.598 89.5729 239.714 89.8075C239.992 90.6869 239.932 91.1187 239.648 91.9922C239.117 92.4032 239.117 92.4032 238.416 92.7269C238.156 92.8511 237.896 92.9753 237.628 93.1032C237.205 93.2965 237.205 93.2965 236.774 93.4937C236.183 93.7753 235.593 94.058 235.003 94.3417C234.703 94.4854 234.403 94.6291 234.093 94.7773C232.733 95.4458 231.412 96.1776 230.09 96.9177C228.621 97.7372 227.156 98.5472 225.641 99.2798C223.682 100.24 221.799 101.33 219.905 102.41C217.737 103.643 215.555 104.851 213.367 106.049C210.55 107.595 207.743 109.157 204.968 110.779C204.711 110.928 204.453 111.076 204.188 111.23C201.834 112.621 200.076 113.882 198.944 116.418C198.645 117.065 198.346 117.712 198.047 118.359C201.972 116.524 205.861 114.622 209.736 112.681C210.643 112.226 211.551 111.773 212.46 111.32C215.436 109.832 218.396 108.321 221.335 106.762C223.285 105.731 225.259 104.765 227.252 103.821C227.932 103.496 228.613 103.17 229.293 102.845C229.613 102.691 229.933 102.538 230.263 102.38C233.303 100.92 236.298 99.3829 239.266 97.7818C239.586 97.6114 239.905 97.4411 240.234 97.2656C240.548 97.0923 240.861 96.9189 241.184 96.7403C241.992 96.3867 241.992 96.3867 242.871 96.6797C243.277 97.3183 243.277 97.3183 243.658 98.1079C243.85 98.4965 243.85 98.4965 244.046 98.893C244.336 99.6094 244.336 99.6094 244.336 100.488C244.174 100.565 244.011 100.642 243.844 100.721C239.415 102.82 235.018 104.978 230.636 107.173C229.611 107.686 228.586 108.197 227.561 108.709C226.889 109.045 226.217 109.382 225.545 109.718C225.249 109.866 224.952 110.014 224.647 110.166C222.821 111.082 221.01 112.024 219.205 112.981C215.853 114.753 212.462 116.447 209.07 118.141C208.395 118.478 207.72 118.816 207.045 119.154C205.64 119.856 204.234 120.559 202.829 121.261C201.22 122.064 199.612 122.869 198.005 123.673C196.436 124.458 194.868 125.242 193.299 126.026C192.641 126.355 191.983 126.684 191.326 127.013C188.215 128.57 185.102 130.119 181.963 131.618C181.73 131.731 181.497 131.843 181.257 131.958C179.66 132.715 179.66 132.715 179.004 132.715C180.164 134.2 181.336 135.646 182.629 137.018C190.77 146.011 193.836 158.063 193.359 169.922C192.524 181.645 186.326 194.069 177.539 201.855C170.519 207.789 162.319 212.363 153.163 213.722C152.912 213.759 152.66 213.797 152.401 213.835C149.226 214.292 146.034 214.547 142.839 214.813C140.094 215.044 137.368 215.293 134.653 215.768C134.458 215.802 134.262 215.837 134.06 215.872C127.795 217.039 122.458 220.457 118.823 225.662C116.871 228.618 115.43 231.838 114.418 235.225C113.42 238.557 111.934 240.978 109.782 243.691C108.945 244.761 108.162 245.868 107.373 246.973C107.059 247.408 106.745 247.843 106.43 248.278C106.273 248.495 106.117 248.712 105.955 248.936C105.448 249.638 104.941 250.339 104.434 251.041C104.264 251.276 104.094 251.512 103.919 251.755C103.596 252.202 103.272 252.649 102.949 253.096C102.027 254.372 101.109 255.651 100.195 256.934C99.7736 256.801 99.3526 256.666 98.9319 256.531C98.6974 256.456 98.4628 256.381 98.2212 256.304C97.5586 256.055 97.5586 256.055 96.6797 255.469C97.1604 253.945 98.1022 252.78 99.0417 251.514C99.3907 251.037 99.7394 250.56 100.088 250.083C100.258 249.851 100.428 249.618 100.603 249.379C101.42 248.255 102.205 247.11 102.991 245.964C103.566 245.128 104.149 244.297 104.733 243.467C104.915 243.209 105.096 242.951 105.283 242.684C105.642 242.175 106 241.666 106.36 241.158C106.526 240.921 106.693 240.684 106.865 240.439C107.012 240.23 107.16 240.021 107.312 239.806C107.477 239.561 107.642 239.315 107.812 239.062C107.931 238.895 108.05 238.727 108.172 238.554C109.186 237.052 109.64 235.659 109.997 233.893C110.054 233.632 110.11 233.371 110.168 233.102C110.346 232.276 110.516 231.449 110.687 230.621C110.807 230.061 110.928 229.5 111.048 228.94C111.266 227.918 111.484 226.896 111.695 225.872C111.738 225.668 111.78 225.464 111.824 225.253C111.938 224.655 111.938 224.655 111.914 223.828C110.14 226.047 108.41 228.292 106.732 230.585C103.808 234.579 100.792 238.505 97.7657 242.422C97.1065 243.279 96.4552 244.141 95.8042 245.004C95.5956 245.28 95.3869 245.556 95.1719 245.84C94.7575 246.388 94.3439 246.937 93.9314 247.487C92.9601 248.77 92.0008 249.978 90.8203 251.074C89.6602 250.494 88.5 249.914 87.3047 249.316C89.3428 246.581 91.4299 243.884 93.5274 241.194C95.1582 239.102 96.782 237.006 98.3603 234.874C98.795 234.288 99.2321 233.703 99.6689 233.118C105.786 226.082 105.786 226.082 109.277 217.969C108.968 218.293 108.968 218.293 108.652 218.624C105.506 221.878 101.992 224.49 98.3206 227.12C96.7156 228.271 95.1484 229.459 93.5886 230.671C91.6656 232.155 89.6956 233.577 87.7371 235.014C87.0249 235.537 86.3137 236.062 85.603 236.587C83.3111 238.28 81.0129 239.963 78.6987 241.626C76.9004 242.919 75.1352 244.243 73.3864 245.603C71.4359 247.108 69.4387 248.554 67.4473 250.005C67.0053 250.333 66.5691 250.67 66.1384 251.013C65.8282 251.259 65.8282 251.259 65.5117 251.509C65.3287 251.658 65.1456 251.806 64.957 251.96C64.7907 252.054 64.6245 252.149 64.4531 252.246C63.4499 251.912 63.2555 251.647 62.6404 250.818C62.4852 250.613 62.3299 250.408 62.17 250.198C61.8164 249.609 61.8164 249.609 61.8164 248.73C62.3924 248.256 62.9565 247.844 63.5742 247.43C63.9557 247.167 64.3367 246.902 64.7175 246.637C64.9165 246.5 65.1154 246.362 65.3204 246.22C66.2735 245.551 67.204 244.854 68.1335 244.153C68.3242 244.009 68.5148 243.866 68.7112 243.718C70.6651 242.245 72.61 240.76 74.5554 239.276C76.4541 237.827 78.3597 236.389 80.2734 234.961C82.2489 233.486 84.2152 232 86.1667 230.494C87.8034 229.232 89.4568 227.993 91.1133 226.758C82.1425 228.596 82.1425 228.596 74.1221 232.775C73.4669 233.253 72.8023 233.716 72.1355 234.178C71.1372 234.872 70.1423 235.57 69.1498 236.271C67.1321 237.692 65.0795 239.06 63.0172 240.415C62.4039 240.819 61.7931 241.227 61.1824 241.635C60.8079 241.883 60.4333 242.13 60.0586 242.377C59.8029 242.549 59.8029 242.549 59.542 242.724C59.1396 242.987 58.7214 243.225 58.3008 243.457C57.5666 243.09 57.4559 242.773 57.0923 242.047C56.9888 241.846 56.8853 241.645 56.7787 241.437C56.543 240.82 56.543 240.82 56.543 239.648C56.947 239.24 56.947 239.24 57.5237 238.866C57.8485 238.65 57.8485 238.65 58.1798 238.429C58.4191 238.276 58.6584 238.122 58.905 237.964C59.4168 237.625 59.9284 237.286 60.4397 236.946C60.8473 236.678 60.8473 236.678 61.2632 236.404C62.7092 235.44 64.1287 234.438 65.5518 233.441C70.0712 230.29 70.0712 230.29 72.2809 228.856C72.8837 228.459 73.4777 228.048 74.057 227.617C78.2909 224.645 83.8701 223.692 88.8016 222.355C89.2252 222.24 89.2252 222.24 89.6575 222.123C91.0613 221.743 92.466 221.367 93.8725 220.997C99.5801 219.638 99.5801 219.638 104.59 216.797C104.783 216.797 104.977 216.797 105.176 216.797C105.291 216.543 105.291 216.543 105.409 216.284C105.78 215.59 106.208 215.055 106.714 214.453C108.467 212.226 110.295 209.147 110.449 206.25C110 204.274 109.061 202.449 108.197 200.629C106.81 197.65 105.499 194.643 104.221 191.617C104.018 191.138 103.816 190.66 103.612 190.182C101.763 185.828 99.9734 181.489 99.0784 176.825C98.9891 176.392 98.9891 176.392 98.8981 175.951C96.5464 164.224 98.9348 151.301 105.507 141.292C108.306 137.108 111.576 133.321 115.43 130.078C115.666 129.878 115.666 129.878 115.908 129.675C125.48 121.776 137.837 118.878 150 119.531C152.161 119.767 154.293 120.153 156.421 120.596C157.072 120.729 157.072 120.729 157.91 120.703C153.134 108.416 147.956 96.2986 142.763 84.1825C142.584 83.7641 142.405 83.3458 142.226 82.9274C141.287 80.7362 140.346 78.5461 139.398 76.3592C138.984 75.4043 138.571 74.4489 138.159 73.4935C137.961 73.0363 137.763 72.5794 137.564 72.1228C137.289 71.4925 137.017 70.8614 136.744 70.2301C136.662 70.0429 136.58 69.8558 136.495 69.6629C136.145 68.8462 135.938 68.2827 135.938 67.3828C137.098 66.8027 138.258 66.2227 139.453 65.625C141.208 68.9851 142.66 72.4649 144.141 75.9521C144.692 77.2456 145.243 78.5387 145.795 79.8317C145.931 80.1494 146.066 80.467 146.206 80.7943C147.319 83.3996 148.454 85.9946 149.597 88.5864C151.375 92.6195 153.052 96.6887 154.688 100.781C154.797 101.055 154.906 101.328 155.019 101.61C155.145 101.925 155.145 101.925 155.273 102.246C155.524 101.363 155.62 100.544 155.659 99.6277C155.672 99.3446 155.684 99.0615 155.697 98.7698C155.732 97.8207 155.761 96.8715 155.79 95.9221C155.823 94.8012 155.886 93.6992 156.012 92.585C156.418 88.1108 154.454 84.4316 152.577 80.5039C151.768 78.8075 151.015 77.0858 150.256 75.3662C149.971 74.7238 149.685 74.0814 149.399 73.439C148.485 71.3754 147.579 69.3091 146.686 67.2363C146.543 66.9109 146.401 66.5854 146.254 66.2501C146.125 65.9502 145.997 65.6502 145.865 65.3412C145.694 64.9449 145.694 64.9449 145.519 64.5407C145.312 63.8672 145.312 63.8672 145.605 62.9883C146.18 62.582 146.18 62.582 146.887 62.2009C147.119 62.0729 147.351 61.9449 147.59 61.813C148.242 61.5234 148.242 61.5234 149.121 61.5234C153.927 72.4488 153.927 72.4488 155.51 76.1044C155.594 76.2971 155.677 76.4898 155.763 76.6884C156.159 77.6011 156.552 78.5146 156.943 79.4293C157.673 81.1329 158.419 82.8141 159.274 84.4595C160.156 86.3363 160.692 87.8775 160.624 89.9883C160.62 90.2133 160.616 90.4382 160.612 90.67C160.555 93.5235 160.403 96.3749 160.254 99.2249C159.787 106.411 159.787 106.411 160.638 113.525C160.705 113.838 160.772 114.151 160.84 114.473C160.972 115.093 161.105 115.712 161.24 116.331C161.493 117.499 161.726 118.67 161.957 119.843C162.025 120.184 162.093 120.526 162.164 120.878C162.234 121.227 162.234 121.227 162.305 121.582C162.681 120.453 162.679 119.364 162.715 118.185C162.724 117.925 162.734 117.664 162.743 117.396C162.763 116.822 162.782 116.249 162.801 115.676C162.832 114.74 162.864 113.805 162.897 112.869C162.944 111.506 162.991 110.142 163.037 108.778C163.162 105.098 163.292 101.417 163.423 97.7371C163.436 97.353 163.45 96.9689 163.464 96.5731C163.793 87.2993 164.172 78.0277 164.557 68.7561C164.573 68.372 164.589 67.9879 164.605 67.5921C164.652 66.4525 164.7 65.3129 164.747 64.1732C164.762 63.806 164.778 63.4388 164.793 63.0604C164.865 61.348 164.936 59.6356 165.008 57.9232C165.021 57.6146 165.034 57.306 165.047 56.9881C165.072 56.3833 165.098 55.7786 165.123 55.1738C165.19 53.5692 165.252 51.9646 165.308 50.3596C165.321 50.0149 165.333 49.6702 165.346 49.315C165.369 48.6551 165.392 47.9951 165.413 47.3351C165.424 47.0364 165.434 46.7377 165.445 46.4299C165.454 46.1688 165.463 45.9076 165.472 45.6385C165.537 44.6787 165.684 43.7258 165.82 42.7734ZM129.199 126.855C129.581 127.735 129.919 128.213 130.716 128.746C131.003 128.942 131.003 128.942 131.295 129.142C131.504 129.282 131.713 129.422 131.927 129.565C134.009 130.995 136.037 132.481 138.043 134.015C138.302 134.212 138.561 134.41 138.828 134.613C140.135 135.614 141.421 136.63 142.676 137.695C140.866 137.1 139.068 136.477 137.275 135.831C136.747 135.642 136.219 135.452 135.691 135.263C134.875 134.97 134.06 134.677 133.244 134.384C131.665 133.816 130.084 133.251 128.501 132.693C127.99 132.512 127.478 132.33 126.968 132.147C126.244 131.889 125.52 131.636 124.794 131.384C124.58 131.306 124.365 131.229 124.143 131.149C122.986 130.753 122.166 130.544 120.996 130.957C117.902 132.938 113.481 136.349 111.914 139.746C112.003 140.467 112.101 140.819 112.637 141.32C112.821 141.441 113.006 141.561 113.196 141.685C113.406 141.824 113.616 141.964 113.833 142.107C114.062 142.255 114.292 142.402 114.529 142.554C114.767 142.711 115.004 142.867 115.249 143.028C116.021 143.537 116.797 144.04 117.572 144.543C118.364 145.063 119.154 145.583 119.945 146.104C120.464 146.446 120.984 146.787 121.503 147.129C123.366 148.353 125.204 149.605 127.02 150.897C129.171 152.424 131.359 153.875 133.594 155.273C132.508 155.273 131.803 154.955 130.792 154.554C130.6 154.478 130.409 154.402 130.211 154.324C129.58 154.074 128.95 153.822 128.32 153.571C127.881 153.396 127.442 153.222 127.003 153.048C124.304 151.976 121.614 150.883 118.927 149.78C116.353 148.724 113.768 147.703 111.163 146.722C110.863 146.609 110.563 146.496 110.254 146.379C109.98 146.277 109.705 146.174 109.423 146.069C109.061 145.934 109.061 145.934 108.692 145.796C108.115 145.575 108.115 145.575 107.52 145.605C105.475 149.612 103.828 153.737 103.125 158.203C105.579 159.256 108.062 160.207 110.57 161.122C116.925 163.446 123.209 165.948 129.492 168.457C127.728 168.208 125.964 167.957 124.2 167.706C123.796 167.649 123.796 167.649 123.384 167.59C120.036 167.114 116.69 166.628 113.346 166.126C113.032 166.079 112.718 166.032 112.395 165.983C110.861 165.753 109.328 165.522 107.794 165.289C107.233 165.204 106.673 165.12 106.112 165.035C105.728 164.976 105.728 164.976 105.336 164.916C104.981 164.863 104.981 164.863 104.62 164.809C104.312 164.762 104.312 164.762 103.999 164.714C103.321 164.626 103.321 164.626 102.246 164.648C102.142 168.851 102.215 172.841 103.125 176.953C103.193 177.287 103.261 177.622 103.331 177.966C104.678 183.745 107.37 189.272 109.772 194.678C109.962 195.107 110.153 195.536 110.343 195.966C110.435 196.174 110.528 196.382 110.623 196.597C110.975 197.392 111.327 198.187 111.679 198.982C111.892 199.462 112.106 199.943 112.319 200.423C114.887 206.258 115.672 212.112 115.887 218.445C115.9 218.795 115.913 219.145 115.926 219.506C115.957 220.361 115.986 221.215 116.016 222.07C116.917 221.378 117.686 220.705 118.396 219.818C124.632 212.64 133.707 211.19 142.668 210.372C142.932 210.348 143.197 210.324 143.469 210.298C144.803 210.176 146.137 210.058 147.473 209.948C152.022 209.556 156.723 209.034 160.95 207.202C161.19 207.102 161.43 207.002 161.677 206.899C164.742 205.588 167.63 203.975 170.215 201.855C169.776 200.748 169.179 200.271 168.219 199.585C167.9 199.353 167.581 199.121 167.262 198.888C167.082 198.757 166.902 198.626 166.716 198.491C165.519 197.609 164.345 196.699 163.165 195.795C159.6 193.071 156 190.393 152.344 187.793C153.371 188.01 154.278 188.394 155.238 188.816C155.41 188.892 155.583 188.967 155.76 189.045C156.138 189.211 156.515 189.377 156.892 189.544C157.498 189.811 158.105 190.077 158.712 190.343C160.948 191.324 163.179 192.315 165.405 193.318C166.554 193.835 167.703 194.349 168.852 194.864C169.418 195.118 169.985 195.374 170.55 195.631C171.348 195.993 172.148 196.352 172.948 196.709C173.187 196.819 173.427 196.93 173.674 197.043C173.896 197.142 174.119 197.24 174.348 197.341C174.541 197.428 174.733 197.516 174.932 197.605C175.621 197.789 175.997 197.712 176.66 197.461C184.364 189.877 189.218 177.557 189.314 166.836C189.303 157.354 186.551 148.758 180.762 141.211C180.554 140.937 180.346 140.663 180.132 140.381C172.786 131.055 162.694 125.689 150.977 124.167C144.032 123.37 135.579 123.666 129.199 126.855Z" fill="black"/>
</svg>
