<svg width="300" height="300" viewBox="0 0 300 300" fill="none" xmlns="http://www.w3.org/2000/svg">
<path d="M150.879 56.8359C151.5 57.272 151.5 57.272 152.05 58.0077C152.163 58.8917 152.204 59.6676 152.191 60.5511C152.192 60.8105 152.193 61.0699 152.194 61.3372C152.196 62.2081 152.19 63.0788 152.184 63.9498C152.183 64.5734 152.183 65.197 152.184 65.8207C152.184 67.5154 152.177 69.2101 152.169 70.9049C152.162 72.6753 152.161 74.4458 152.16 76.2163C152.156 79.5697 152.147 82.9231 152.135 86.2765C152.122 90.0939 152.115 93.9113 152.109 97.7287C152.097 105.582 152.077 113.436 152.05 121.289C153.211 121.289 154.371 121.289 155.566 121.289C155.578 121.042 155.589 120.796 155.601 120.541C155.982 112.645 156.549 104.766 157.165 96.8837C157.3 95.1665 157.431 93.4491 157.561 91.7316C157.664 90.3914 157.767 89.0513 157.872 87.7112C157.921 87.0773 157.97 86.4433 158.018 85.8092C158.084 84.9296 158.154 84.0501 158.223 83.1707C158.252 82.7872 158.252 82.7872 158.281 82.396C158.643 77.9425 158.643 77.9425 159.961 76.6479C161.599 75.3648 163.421 74.3313 165.204 73.265C166.77 72.3264 168.31 71.3504 169.848 70.3674C170.118 70.1949 170.388 70.0225 170.667 69.8449C171.218 69.4929 171.769 69.1408 172.32 68.7885C173.668 67.9273 175.017 67.0692 176.367 66.2109C176.901 65.871 177.435 65.5311 177.969 65.1912C179.074 64.4883 180.178 63.7856 181.283 63.0832C181.842 62.7281 182.4 62.3729 182.959 62.0177C183.226 61.8475 183.494 61.6773 183.77 61.502C185.654 60.3029 187.533 59.0964 189.409 57.883C190.672 57.0825 191.653 57.0727 193.12 57.059C193.358 57.0567 193.595 57.0543 193.84 57.0519C194.343 57.0478 194.846 57.0447 195.35 57.0424C196.12 57.0373 196.89 57.0244 197.66 57.0115C198.149 57.0086 198.637 57.0061 199.126 57.0041C199.356 56.999 199.587 56.9938 199.825 56.9885C201.428 56.9949 201.428 56.9949 202.063 57.6283C202.512 58.4262 202.552 58.9098 202.553 59.822C202.555 60.1297 202.558 60.4373 202.56 60.7543C202.558 61.2581 202.558 61.2581 202.555 61.7722C202.557 62.3047 202.557 62.3047 202.56 62.848C202.563 63.8208 202.562 64.7934 202.559 65.7661C202.557 66.7848 202.559 67.8035 202.56 68.8221C202.562 70.533 202.56 72.2439 202.556 73.9549C202.551 75.9316 202.552 77.9082 202.557 79.885C202.561 81.5831 202.562 83.2812 202.56 84.9793C202.558 85.9931 202.558 87.0069 202.561 88.0207C202.564 89.1513 202.56 90.2818 202.555 91.4124C202.557 91.7477 202.558 92.083 202.56 92.4285C202.558 92.737 202.555 93.0454 202.553 93.3632C202.552 93.6304 202.552 93.8976 202.552 94.1729C202.182 96.676 199.609 98.2296 197.731 99.6287C197.035 100.142 196.337 100.653 195.638 101.163C193.834 102.477 192.054 103.818 190.283 105.176C188.344 106.66 186.394 108.127 184.424 109.57C182.171 111.22 179.946 112.903 177.728 114.599C175.603 116.223 173.466 117.831 171.324 119.432C170.803 119.823 170.282 120.214 169.761 120.606C169.599 120.728 169.437 120.85 169.27 120.975C168.838 121.3 168.407 121.625 167.975 121.95C167.462 122.33 166.937 122.693 166.406 123.047C166.601 123.108 166.797 123.17 166.998 123.233C175.18 125.842 182.185 129.381 188.379 135.351C188.661 135.611 188.661 135.611 188.95 135.877C195.996 142.529 200.354 153.058 200.719 162.651C201.078 175.74 197.13 187.405 188.153 197.058C182.234 203.29 174.933 207.684 167.522 211.913C165.093 213.303 162.709 214.751 160.348 216.252C160.111 216.401 159.875 216.55 159.631 216.704C159.322 216.901 159.322 216.901 159.006 217.103C158.496 217.383 158.496 217.383 157.91 217.383C157.834 217.625 157.758 217.868 157.679 218.118C157.284 219.255 156.817 220.341 156.326 221.44C156.231 221.655 156.135 221.87 156.037 222.092C155.734 222.775 155.431 223.457 155.127 224.139C154.823 224.823 154.519 225.506 154.216 226.19C154.028 226.614 153.84 227.038 153.651 227.462C153.408 228.008 153.169 228.554 152.929 229.101C152.814 229.336 152.699 229.57 152.58 229.812C152.229 230.93 152.256 232.012 152.253 233.178C152.246 233.69 152.238 234.202 152.231 234.714C152.222 235.517 152.215 236.321 152.21 237.125C152.203 237.903 152.192 238.68 152.18 239.458C152.18 239.699 152.18 239.94 152.18 240.188C152.151 241.861 152.151 241.861 151.668 242.495C150.845 243.118 150.112 242.977 149.121 242.871C148.52 242.421 148.28 242.137 148.089 241.407C147.978 239.984 147.949 238.59 147.99 237.163C148.114 231.519 146.933 227.503 144.354 222.496C143.847 221.484 143.847 221.484 143.4 220.403C142.167 217.54 140.653 216.351 137.933 214.947C137.557 214.742 137.181 214.535 136.806 214.327C136.03 213.897 135.251 213.471 134.471 213.048C132.592 212.021 130.769 210.901 128.943 209.784C128.596 209.573 128.249 209.361 127.902 209.15C124.078 206.816 120.377 204.384 116.894 201.562C116.725 201.426 116.557 201.289 116.383 201.148C106.836 193.351 100.679 182.476 99.3826 170.148C98.4898 159.243 101.305 147.825 108.252 139.197C108.687 138.693 109.126 138.192 109.57 137.695C109.802 137.425 110.034 137.154 110.273 136.876C111.937 134.976 113.707 133.356 115.722 131.836C115.998 131.626 116.273 131.416 116.557 131.2C121.058 127.924 128.205 123.34 133.886 123.34C133.886 123.146 133.886 122.953 133.886 122.754C133.694 122.695 133.501 122.636 133.303 122.575C132.069 122.005 131.097 121.185 130.041 120.337C128.178 118.864 126.299 117.42 124.383 116.016C124.153 115.847 123.922 115.678 123.685 115.504C123.218 115.161 122.75 114.819 122.282 114.477C121.119 113.626 119.959 112.77 118.799 111.914C118.335 111.572 117.871 111.23 117.407 110.889C116.479 110.205 115.551 109.521 114.624 108.838C114.279 108.584 114.279 108.584 113.928 108.325C113.464 107.984 113.001 107.642 112.538 107.3C111.372 106.441 110.205 105.582 109.037 104.726C106.132 102.594 103.239 100.447 100.397 98.2323C99.9667 97.9012 99.5266 97.5833 99.0849 97.2678C98.1014 96.3746 97.6228 95.5163 97.4773 94.1747C97.4437 93.2313 97.4396 92.2916 97.4446 91.3476C97.4423 90.8093 97.4423 90.8093 97.4399 90.26C97.4367 89.2795 97.4375 88.2991 97.4402 87.3185C97.4425 86.2913 97.4404 85.2642 97.439 84.2371C97.4374 82.5134 97.4395 80.7897 97.4437 79.0661C97.4485 77.073 97.447 75.08 97.4421 73.087C97.4381 71.3747 97.4376 69.6624 97.4399 67.95C97.4412 66.9278 97.4414 65.9055 97.4385 64.8833C97.4355 63.7449 97.4397 62.6066 97.4446 61.4682C97.4428 61.129 97.441 60.7897 97.4392 60.4402C97.4417 60.1309 97.4441 59.8216 97.4467 59.503C97.4472 59.0993 97.4472 59.0993 97.4477 58.6875C97.5583 58.0077 97.5583 58.0077 97.939 57.4837C98.7919 56.8762 99.7919 56.9671 100.804 56.9503C101.157 56.9428 101.157 56.9428 101.517 56.9351C102.018 56.9268 102.518 56.9211 103.019 56.9177C103.77 56.9093 104.519 56.8821 105.269 56.8542C108.893 56.7842 111.064 57.6456 113.965 59.7655C114.393 60.0415 114.823 60.315 115.257 60.5838C115.614 60.8169 115.97 61.0508 116.327 61.2853C118.228 62.5264 120.14 63.7501 122.058 64.9657C124.627 66.5955 127.177 68.2519 129.722 69.919C131.373 70.9982 133.033 72.0579 134.71 73.0956C140.559 76.7277 140.559 76.7277 141.139 78.6693C141.192 79.083 141.192 79.083 141.246 79.5051C141.289 79.8423 141.332 80.1795 141.376 80.5269C141.663 83.169 141.891 85.8162 142.117 88.4639C142.174 89.1182 142.231 89.7724 142.288 90.4267C142.437 92.1438 142.585 93.861 142.732 95.5782C142.88 97.304 143.03 99.0297 143.18 100.755C143.477 104.177 143.773 107.598 144.064 111.02C144.144 111.96 144.227 112.9 144.309 113.84C144.363 114.47 144.417 115.1 144.472 115.73C144.497 116.018 144.523 116.307 144.549 116.603C144.683 118.172 144.752 119.714 144.726 121.289C145.693 121.192 146.66 121.096 147.656 120.996C147.656 120.672 147.656 120.349 147.656 120.016C147.661 112.15 147.673 104.284 147.695 96.4188C147.705 92.6151 147.712 88.8114 147.713 85.0076C147.714 81.693 147.72 78.3785 147.732 75.0639C147.739 73.3082 147.742 71.5525 147.74 69.7968C147.738 68.1452 147.742 66.4939 147.752 64.8423C147.754 64.2353 147.754 63.6282 147.752 63.0212C147.748 62.1939 147.754 61.3672 147.762 60.5399C147.759 60.2983 147.755 60.0566 147.752 59.8076C147.773 58.6509 147.836 58.1266 148.646 57.2727C149.511 56.7807 149.905 56.6361 150.879 56.8359ZM101.66 61.2304C101.609 62.6948 101.572 64.1587 101.547 65.6238C101.537 66.1215 101.523 66.619 101.505 67.1164C101.314 69.923 101.314 69.923 102.089 72.5397C102.604 73.0573 103.098 73.4353 103.711 73.828C104.063 74.1348 104.411 74.4457 104.754 74.7619C105.501 75.4069 106.251 76.0468 107.002 76.6868C107.351 76.985 107.701 77.2833 108.05 77.5817C108.228 77.7331 108.405 77.8846 108.588 78.0406C109.684 78.9797 110.76 79.9369 111.822 80.9142C112.834 81.8432 113.864 82.7285 114.935 83.5876C116.416 84.7812 117.797 86.0598 119.18 87.3626C120.452 88.5531 121.771 89.6606 123.131 90.7493C124.01 91.4762 124.849 92.2407 125.683 93.0175C127.034 94.2742 128.431 95.4503 129.868 96.6075C130.695 97.2914 131.486 98.0038 132.275 98.7304C133.607 99.9559 134.981 101.114 136.389 102.251C136.99 102.736 137.582 103.229 138.171 103.729C138.755 104.328 138.755 104.328 139.16 104.297C138.98 99.7054 138.705 95.1206 138.322 90.5417C138.235 89.4989 138.155 88.4562 138.087 87.412C138.02 86.3815 137.939 85.3532 137.847 84.3248C137.799 83.7537 137.767 83.1814 137.735 82.6092C137.587 81.094 137.479 80.0712 136.399 78.9497C135.585 78.3506 134.767 77.8395 133.886 77.3437C133.396 77.0257 132.906 76.7057 132.419 76.3824C131.92 76.067 131.42 75.7527 130.92 75.4394C130.356 75.0832 129.792 74.7269 129.228 74.3705C128.936 74.1867 128.645 74.0028 128.344 73.8135C126.8 72.8364 125.262 71.8485 123.724 70.8617C122.026 69.7736 120.328 68.6859 118.622 67.6105C118.392 67.4648 118.161 67.3192 117.923 67.1692C117.472 66.8861 117.02 66.605 116.566 66.326C115.382 65.5925 114.256 64.8264 113.152 63.9758C109.355 61.132 106.351 60.7172 101.66 61.2304ZM187.473 63.7379C186.531 64.4493 185.53 65.0665 184.533 65.6982C184.117 65.9682 183.7 66.2387 183.284 66.5095C179.776 68.7825 176.24 71.0115 172.705 73.2421C172.256 73.5255 171.808 73.809 171.359 74.0924C170.596 74.5746 169.832 75.0562 169.068 75.5368C168.18 76.0953 167.293 76.6553 166.406 77.2155C165.988 77.4775 165.988 77.4775 165.562 77.7448C165.303 77.9089 165.043 78.073 164.776 78.242C164.546 78.3869 164.316 78.5317 164.079 78.681C162.871 79.5158 162.871 79.5158 162.425 80.9045C162.396 81.2858 162.366 81.6671 162.336 82.06C162.319 82.2707 162.302 82.4813 162.284 82.6984C162.228 83.3955 162.177 84.0928 162.127 84.7903C162.089 85.2761 162.051 85.7619 162.013 86.2476C161.933 87.2668 161.855 88.2861 161.78 89.3057C161.684 90.6079 161.584 91.9097 161.482 93.2114C161.384 94.457 161.288 95.7028 161.193 96.9485C161.175 97.1843 161.157 97.42 161.138 97.6629C161.087 98.3365 161.037 99.0102 160.987 99.6839C160.958 100.066 160.93 100.449 160.9 100.843C160.837 101.999 160.829 103.14 160.84 104.297C161.635 103.927 162.275 103.534 162.933 102.954C163.105 102.804 163.277 102.654 163.454 102.499C163.636 102.337 163.819 102.175 164.007 102.008C164.401 101.663 164.795 101.317 165.189 100.972C165.491 100.707 165.491 100.707 165.8 100.435C166.755 99.595 167.715 98.7593 168.676 97.9247C168.86 97.7651 169.044 97.6054 169.233 97.4409C170.289 96.5258 171.359 95.6331 172.448 94.757C173.827 93.642 175.121 92.4543 176.414 91.2431C177.649 90.0938 178.935 89.0275 180.25 87.9718C181.132 87.2407 181.974 86.4733 182.812 85.6933C184.156 84.4425 185.547 83.2741 186.978 82.1227C188.019 81.2572 189.006 80.341 189.996 79.419C190.937 78.5486 191.902 77.7246 192.901 76.9225C193.145 76.7196 193.389 76.5167 193.641 76.3077C194.259 75.8066 194.869 75.3436 195.515 74.8845C197.009 73.7563 198.338 72.6994 198.647 70.7691C198.759 69.3169 198.674 67.8812 198.578 66.4306C198.558 65.9244 198.541 65.4182 198.526 64.912C198.484 63.683 198.419 62.4575 198.34 61.2304C193.953 60.8556 190.993 61.014 187.473 63.7379ZM101.953 77.6366C101.878 79.7682 101.821 81.8994 101.786 84.0319C101.769 85.0225 101.746 86.0122 101.71 87.0023C101.67 88.1436 101.652 89.2836 101.638 90.4254C101.621 90.7771 101.605 91.1287 101.588 91.4911C101.587 93.0161 101.62 93.9545 102.647 95.1314C103.463 95.805 104.289 96.3965 105.175 96.9726C105.601 97.2858 106.026 97.6008 106.448 97.919C106.853 98.2087 107.259 98.4975 107.666 98.7853C108.124 99.1131 108.582 99.4412 109.04 99.7695C109.272 99.9359 109.505 100.102 109.744 100.274C110.907 101.111 112.061 101.962 113.214 102.814C113.559 103.068 113.559 103.068 113.911 103.328C114.377 103.673 114.844 104.018 115.311 104.363C116.02 104.886 116.729 105.408 117.439 105.93C119.8 107.666 122.154 109.41 124.496 111.172C126.689 112.819 128.899 114.442 131.109 116.066C131.862 116.621 132.613 117.176 133.365 117.732C133.614 117.917 133.864 118.102 134.122 118.292C134.599 118.644 135.075 118.997 135.551 119.35C136.166 119.804 136.784 120.254 137.402 120.703C137.566 120.827 137.73 120.951 137.899 121.079C138.867 121.783 139.446 121.926 140.625 121.875C140.66 119.584 140.561 117.327 140.368 115.045C140.345 114.739 140.322 114.433 140.299 114.118C140.132 111.368 140.132 111.368 138.707 109.11C138.397 108.857 138.084 108.608 137.768 108.362C137.423 108.081 137.078 107.8 136.733 107.519C136.554 107.376 136.374 107.232 136.19 107.083C135.292 106.354 134.415 105.6 133.539 104.846C133.366 104.698 133.194 104.551 133.016 104.399C132.005 103.531 131.009 102.649 130.023 101.752C129.052 100.87 128.059 100.03 127.038 99.2065C125.704 98.1276 124.441 96.993 123.186 95.8247C122.252 94.9602 121.294 94.1426 120.3 93.3471C118.824 92.1603 117.45 90.887 116.072 89.5896C114.808 88.4054 113.494 87.3058 112.142 86.2231C111.203 85.4434 110.314 84.6226 109.424 83.789C108 82.4562 106.537 81.196 105.015 79.9747C104.36 79.446 103.722 78.9037 103.088 78.3507C102.393 77.6051 102.393 77.6051 101.953 77.6366ZM195.868 79.3761C194.714 80.4571 193.548 81.4977 192.315 82.4889C191.212 83.3769 190.153 84.2946 189.111 85.2538C188.069 86.2131 187.01 87.1307 185.907 88.0187C184.578 89.0905 183.323 90.2189 182.074 91.3809C180.877 92.4887 179.625 93.5146 178.354 94.5373C177.468 95.2733 176.623 96.0421 175.781 96.8261C174.437 98.0768 173.046 99.2453 171.615 100.397C170.574 101.262 169.588 102.178 168.597 103.1C167.656 103.971 166.691 104.795 165.692 105.597C165.447 105.8 165.203 106.003 164.95 106.213C164.338 106.71 163.734 107.169 163.094 107.625C161.263 109.009 160.095 110.205 159.757 112.538C159.642 113.82 159.6 115.095 159.576 116.382C159.553 116.916 159.528 117.451 159.501 117.985C159.44 119.282 159.401 120.577 159.375 121.875C160.635 121.949 161.322 121.898 162.326 121.122C162.651 120.876 162.651 120.876 162.983 120.625C163.212 120.446 163.441 120.266 163.678 120.08C164.177 119.7 164.676 119.32 165.176 118.941C165.429 118.746 165.683 118.551 165.944 118.35C167.098 117.468 168.273 116.615 169.446 115.759C171.434 114.299 173.401 112.81 175.36 111.31C177.481 109.685 179.624 108.097 181.796 106.541C183.837 105.077 185.847 103.571 187.852 102.057C188.637 101.465 189.423 100.876 190.21 100.287C190.488 100.078 190.766 99.8691 191.053 99.6539C191.635 99.2178 192.217 98.7822 192.799 98.347C194.18 97.3145 195.56 96.28 196.93 95.2331C197.244 94.9935 197.244 94.9935 197.565 94.749C198.082 94.3594 198.082 94.3594 198.34 93.7499C198.358 93.244 198.357 92.7373 198.346 92.2311C198.34 91.9145 198.334 91.5978 198.328 91.2715C198.316 90.7569 198.316 90.7569 198.304 90.232C198.297 89.8817 198.29 89.5314 198.283 89.1704C198.261 88.048 198.236 86.9256 198.211 85.8031C198.196 85.0436 198.18 84.2841 198.165 83.5246C198.127 81.6596 198.088 79.7946 198.047 77.9296C197.078 77.9296 196.536 78.7381 195.868 79.3761ZM116.601 136.23C116.18 136.587 116.18 136.587 115.75 136.951C108.51 143.237 104.501 152.284 103.418 161.719C103.337 163.002 103.32 164.278 103.326 165.564C103.328 165.907 103.329 166.251 103.33 166.605C103.482 177.965 108.375 188.013 116.396 195.909C118.218 197.661 120.085 199.245 122.168 200.684C122.378 200.831 122.589 200.979 122.806 201.131C126.769 203.894 130.902 206.318 135.101 208.702C136.687 209.608 138.251 210.546 139.808 211.5C140.396 211.855 140.991 212.2 141.586 212.544C142.01 212.796 142.435 213.048 142.859 213.299C143.053 213.409 143.248 213.52 143.448 213.633C146.257 215.328 147.075 218.414 148.187 221.338C148.335 221.722 148.484 222.107 148.633 222.491C148.993 223.424 149.351 224.358 149.707 225.293C149.9 225.293 150.093 225.293 150.293 225.293C150.432 224.947 150.432 224.947 150.575 224.595C150.923 223.733 151.272 222.871 151.621 222.01C151.772 221.638 151.922 221.267 152.072 220.895C152.289 220.358 152.507 219.821 152.725 219.285C152.855 218.963 152.985 218.64 153.12 218.308C153.393 217.67 153.689 217.041 154.004 216.422C154.437 215.685 154.437 215.685 154.394 215.039C154.549 214.965 154.704 214.892 154.863 214.816C155.744 214.361 156.587 213.85 157.434 213.336C159.302 212.209 161.177 211.094 163.055 209.985C163.328 209.824 163.601 209.662 163.882 209.496C165.266 208.677 166.653 207.864 168.046 207.061C172.801 204.311 177.462 201.339 181.64 197.754C181.875 197.555 182.109 197.356 182.351 197.151C191.123 189.497 195.938 179.103 196.875 167.578C197.529 157.656 193.896 147.457 187.383 140.024C184.796 137.161 181.944 134.811 178.711 132.715C178.488 132.563 178.265 132.41 178.035 132.254C160.475 120.848 132.451 122.72 116.601 136.23Z" fill="black"/>
<path d="M183.984 104.59C184.178 104.687 184.371 104.783 184.57 104.883C184.25 105.185 183.926 105.484 183.6 105.78C183.42 105.947 183.24 106.113 183.054 106.285C182.878 106.402 182.701 106.52 182.52 106.641C182.229 106.544 181.939 106.447 181.641 106.348C182.414 105.768 183.187 105.187 183.984 104.59Z" fill="black"/>
</svg>
