<svg width="300" height="300" viewBox="0 0 300 300" fill="none" xmlns="http://www.w3.org/2000/svg">
<path d="M178.949 75.9888C179.565 76.5263 180.166 77.0776 180.762 77.6367C180.922 77.7855 181.082 77.9343 181.246 78.0876C183.699 80.397 186.259 82.9481 187.869 85.9383C188.7 86.7324 189.707 86.5865 190.796 86.5906C198.274 86.8214 205.426 89.5118 210.938 94.6289C211.205 94.8721 211.471 95.1154 211.746 95.3659C217.884 101.213 221.848 109.533 222.144 118.048C222.311 120.277 223.828 121.626 225.385 123.084C230.255 127.844 232.579 134.837 232.756 141.497C232.825 149.803 230.294 156.874 224.58 163.012C219.339 168.321 212.303 170.983 204.914 171.167C200.475 171.056 196.34 169.971 192.439 167.847C191.909 167.535 191.909 167.535 191.309 167.578C190.888 168.038 190.489 168.518 190.101 169.006C189.864 169.303 189.628 169.6 189.384 169.906C189.149 170.201 188.914 170.497 188.672 170.801C188.474 171.036 188.275 171.271 188.07 171.513C185.701 174.339 183.877 177.397 182.557 180.835C182.476 181.037 182.396 181.238 182.313 181.446C180.34 186.913 180.654 192.814 180.702 198.53C180.711 199.725 180.714 200.921 180.717 202.117C180.727 205.143 180.744 208.168 180.762 211.194C180.782 214.476 180.8 217.758 180.809 221.041C180.814 222.46 180.822 223.879 180.834 225.299C180.841 226.179 180.844 227.06 180.846 227.94C180.847 228.347 180.85 228.755 180.855 229.163C180.862 229.719 180.862 230.276 180.862 230.832C180.865 231.299 180.865 231.299 180.868 231.775C180.739 232.802 180.589 233.315 179.883 234.082C179.038 234.231 178.362 234.278 177.515 234.264C177.27 234.266 177.026 234.268 176.775 234.27C175.953 234.274 175.132 234.268 174.311 234.262C173.724 234.263 173.136 234.265 172.549 234.267C170.951 234.271 169.353 234.266 167.755 234.26C166.085 234.254 164.415 234.255 162.745 234.256C159.94 234.256 157.135 234.25 154.331 234.241C151.085 234.23 147.839 234.227 144.594 234.23C141.475 234.231 138.357 234.228 135.239 234.222C133.91 234.22 132.581 234.219 131.252 234.22C129.688 234.22 128.124 234.216 126.56 234.208C125.985 234.206 125.41 234.206 124.835 234.207C124.052 234.208 123.269 234.203 122.486 234.198C122.142 234.2 122.142 234.2 121.791 234.202C120.945 234.192 120.281 234.176 119.537 233.748C119.1 232.949 119.128 232.304 119.128 231.394C119.125 231.015 119.123 230.636 119.121 230.245C119.122 229.824 119.124 229.403 119.126 228.982C119.125 228.54 119.123 228.097 119.121 227.654C119.118 226.699 119.117 225.744 119.118 224.789C119.12 223.276 119.116 221.762 119.11 220.248C119.099 217.029 119.095 213.809 119.092 210.59C119.089 207.127 119.084 203.664 119.072 200.201C119.066 198.701 119.065 197.2 119.067 195.7C119.068 194.759 119.064 193.818 119.06 192.877C119.059 192.446 119.059 192.015 119.061 191.583C119.102 182.063 115.134 174.399 108.692 167.578C108.387 167.713 108.082 167.847 107.767 167.986C100.103 171.296 92.5751 172.129 84.6685 169.043C77.9279 166.265 72.6053 161.013 69.6172 154.395C66.5006 146.625 66.5053 138.358 69.7744 130.658C71.2203 127.44 73.357 124.811 75.6643 122.177C75.8009 122.02 75.9376 121.863 76.0785 121.702C76.4653 121.289 76.4653 121.289 77.1302 120.779C77.9811 119.669 77.934 118.367 78.0584 117.004C79.0486 108.252 82.701 100.047 89.5608 94.2799C94.7036 90.2372 100.994 86.8691 107.668 86.6719C107.903 86.6638 108.138 86.6558 108.38 86.6475C108.847 86.6343 109.314 86.6277 109.782 86.6287C110.967 86.5992 111.476 86.5408 112.434 85.7849C113.083 84.9648 113.72 84.1433 114.332 83.2947C115.571 81.6195 116.85 79.9586 118.36 78.5157C118.553 78.5157 118.747 78.5157 118.946 78.5157C119.042 78.2256 119.139 77.9356 119.239 77.6367C119.82 77.1118 120.396 76.6302 121.015 76.1536C121.198 76.012 121.381 75.8705 121.569 75.7247C137.991 63.2348 162.782 62.3952 178.949 75.9888ZM124.219 85.2539C123.896 85.544 123.896 85.544 123.567 85.8399C120.911 88.3175 118.81 91.5202 117.159 94.7457C116.895 95.2149 116.895 95.2149 116.309 95.8008C115.094 95.9468 113.871 95.8297 112.665 95.6543C106.904 94.8457 100.915 96.5679 96.2819 100.032C91.179 104.046 88.0007 109.687 86.8451 116.058C86.6366 117.929 86.614 119.809 86.5676 121.691C86.5576 121.994 86.5476 122.297 86.5373 122.61C86.5263 123.021 86.5263 123.021 86.515 123.44C86.384 124.59 86.1523 125.427 85.2452 126.172C85.0066 126.319 84.7679 126.466 84.522 126.617C80.2556 129.476 77.4403 133.588 76.2559 138.578C75.2357 143.999 76.3227 149.233 79.3447 153.817C82.4368 158.049 86.4549 161.053 91.6997 162.012C97.0407 162.76 101.712 161.609 106.101 158.506C107.158 157.774 107.988 157.398 109.278 157.324C116.283 159.659 121.569 169.089 124.722 175.307C126.965 180.137 127.772 185.39 127.79 190.672C127.794 191.242 127.798 191.812 127.802 192.382C127.805 192.99 127.808 193.598 127.811 194.206C127.817 195.475 127.825 196.744 127.834 198.014C127.853 200.933 127.869 203.853 127.885 206.773C127.9 209.456 127.916 212.139 127.933 214.821C127.942 216.084 127.949 217.347 127.954 218.609C127.957 219.204 127.961 219.799 127.965 220.393C127.97 221.12 127.974 221.846 127.976 222.573C127.978 222.89 127.981 223.208 127.983 223.535C127.985 223.812 127.986 224.09 127.988 224.376C127.959 224.995 127.959 224.995 128.321 225.293C128.88 225.322 129.44 225.33 130 225.33C130.365 225.331 130.73 225.332 131.106 225.333C131.514 225.332 131.922 225.332 132.33 225.331C132.756 225.331 133.183 225.332 133.61 225.332C134.772 225.334 135.934 225.333 137.096 225.332C138.31 225.332 139.523 225.332 140.737 225.333C142.775 225.333 144.814 225.333 146.852 225.331C149.212 225.33 151.572 225.33 153.932 225.332C155.954 225.333 157.977 225.333 159.999 225.332C161.209 225.332 162.419 225.332 163.628 225.333C164.765 225.334 165.902 225.333 167.039 225.331C167.457 225.331 167.876 225.331 168.294 225.332C168.863 225.333 169.432 225.331 170.001 225.33C170.479 225.33 170.479 225.33 170.968 225.33C171.665 225.373 171.665 225.373 171.973 225C172.003 224.515 172.012 224.028 172.014 223.541C172.016 223.067 172.016 223.067 172.018 222.583C172.019 222.233 172.019 221.883 172.019 221.523C172.021 221.156 172.022 220.79 172.024 220.413C172.027 219.613 172.03 218.813 172.032 218.014C172.035 216.745 172.041 215.476 172.047 214.207C172.065 210.597 172.081 206.988 172.091 203.378C172.096 201.386 172.105 199.395 172.117 197.403C172.123 196.351 172.127 195.299 172.128 194.246C172.132 189.028 172.177 183.968 173.932 178.986C174.007 178.769 174.082 178.553 174.159 178.329C176.15 172.755 179.312 167.739 183.269 163.365C183.723 162.855 184.163 162.336 184.603 161.814C185.234 161.075 185.878 160.407 186.622 159.778C186.819 159.61 187.016 159.443 187.219 159.27C187.409 159.111 187.598 158.953 187.793 158.789C187.965 158.643 188.136 158.496 188.313 158.345C189.385 157.435 190.097 156.874 191.549 156.892C193 157.209 194.206 158.254 195.411 159.082C199.328 161.64 203.291 162.924 207.983 162.104C213.313 160.94 217.626 158.193 220.797 153.71C223.987 148.694 224.719 143.374 223.506 137.644C222.412 132.989 219.484 129.206 215.68 126.379C214.602 125.547 213.951 124.987 213.575 123.633C213.543 122.728 213.558 121.829 213.577 120.923C213.562 113.71 210.987 107.179 206.031 101.898C201.466 97.5507 195.639 95.4201 189.377 95.4781C188.736 95.5051 188.117 95.5661 187.482 95.6543C184.839 95.99 184.839 95.99 183.692 95.8008C182.735 95.0077 182.295 93.9171 181.714 92.8345C177.452 84.895 169.944 79.1469 161.371 76.5381C148.098 72.753 134.22 75.6964 124.219 85.2539Z" fill="black"/>
<path d="M201.269 135.004C202.34 136.175 202.589 137.162 202.553 138.72C202.064 141.919 199.615 144.189 197.212 146.101C191.779 150.08 185.47 151.557 178.82 150.549C175.557 150.01 172.565 148.877 169.628 147.363C169.585 147.532 169.541 147.701 169.497 147.875C169.026 149.653 168.5 151.41 167.946 153.163C165.926 159.465 165.926 159.465 164.3 165.875C164.219 166.247 164.219 166.247 164.137 166.625C163.445 170.068 163.444 173.52 163.481 177.015C163.489 177.799 163.494 178.582 163.498 179.366C163.511 181.591 163.525 183.816 163.548 186.042C163.563 187.41 163.571 188.777 163.576 190.145C163.579 190.664 163.584 191.182 163.591 191.7C163.601 192.425 163.603 193.149 163.604 193.874C163.609 194.084 163.614 194.295 163.619 194.512C163.609 196.092 163.177 197.312 162.304 198.633C161.159 199.672 160.081 200.039 158.566 200.146C157.096 200.038 156.162 199.245 155.163 198.194C154.273 196.825 154.349 195.481 154.347 193.887C154.345 193.645 154.344 193.404 154.342 193.155C154.338 192.354 154.336 191.552 154.334 190.751C154.333 190.338 154.333 190.338 154.332 189.916C154.328 188.452 154.325 186.988 154.324 185.524C154.322 184.028 154.315 182.533 154.307 181.037C154.301 179.874 154.3 178.711 154.299 177.548C154.298 176.997 154.296 176.447 154.292 175.897C154.259 170.836 154.692 165.824 156.133 160.95C156.209 160.683 156.285 160.417 156.362 160.142C156.895 158.293 157.477 156.471 158.203 154.688C158.002 154.751 157.801 154.815 157.594 154.88C155.05 155.557 152.604 155.664 149.981 155.676C149.638 155.68 149.295 155.684 148.942 155.688C146.555 155.676 144.391 155.316 142.089 154.688C142.147 154.848 142.204 155.008 142.264 155.173C144.399 161.183 145.348 166.81 145.371 173.196C145.373 173.55 145.375 173.905 145.376 174.27C145.379 175.013 145.381 175.755 145.382 176.498C145.385 177.633 145.394 178.767 145.403 179.902C145.405 180.627 145.407 181.352 145.408 182.077C145.412 182.414 145.415 182.751 145.419 183.099C145.413 185.372 145.234 186.872 143.701 188.635C142.501 189.655 141.406 189.654 139.893 189.63C138.771 189.509 138.214 189.153 137.402 188.379C136.111 186.415 136.068 184.702 136.088 182.386C136.093 181.768 136.09 181.152 136.086 180.534C136.078 178.999 136.081 177.464 136.085 175.928C136.122 168.313 136.122 168.313 134.765 160.84C134.682 160.531 134.6 160.222 134.514 159.903C134.302 159.168 134.067 158.449 133.813 157.727C133.728 157.478 133.643 157.228 133.555 156.972C132.77 154.725 131.816 152.564 130.811 150.409C130.37 149.414 130.37 149.414 130.37 148.828C130.083 148.98 129.796 149.133 129.5 149.289C122.75 152.804 116.042 154.317 108.594 152.136C105.537 151.061 102.894 149.539 100.488 147.363C100.277 147.176 100.066 146.99 99.8491 146.797C98.0978 145.155 96.2605 142.959 96.0233 140.482C95.9882 139.145 95.9993 138.199 96.5509 136.963C97.3948 136.098 98.1224 135.548 99.3158 135.352C101.13 135.445 102.37 135.856 103.71 137.11C104.102 137.67 104.474 138.245 104.827 138.831C106.753 141.795 109.351 143.203 112.754 144.021C117.067 144.85 121.38 143.749 125.097 141.504C126.495 140.551 127.43 139.386 128.448 138.043C129.838 136.31 129.838 136.31 131.011 136.084C132.383 136.264 133.021 136.668 133.886 137.695C134.486 138.496 135.067 139.309 135.647 140.124C138.194 143.597 141.958 145.494 146.131 146.362C151.886 147.113 157.6 146.113 162.325 142.591C163.978 141.172 165.171 139.706 166.22 137.797C166.993 136.687 167.824 136.295 169.134 136.048C170.693 136.312 171.459 137.197 172.558 138.281C175.748 141.135 179.836 142.023 184.015 141.879C187.034 141.661 190.152 140.795 192.413 138.673C192.85 138.166 193.253 137.646 193.652 137.11C195.681 134.545 198.122 133.102 201.269 135.004Z" fill="black"/>
</svg>
