<svg width="300" height="300" viewBox="0 0 300 300" fill="none" xmlns="http://www.w3.org/2000/svg">
<path d="M150.849 56.5704C157.132 60.427 160.474 71.5103 162.163 78.2331C163.402 83.4387 163.621 89.0025 163.478 94.3359C163.648 94.0662 163.819 93.7966 163.995 93.5188C168.156 87.0512 173.238 82.1879 180.067 78.5705C180.318 78.4368 180.57 78.3032 180.829 78.1655C183.452 76.8098 185.964 75.5929 188.966 75.8789C189.552 76.4648 189.552 76.4648 189.633 77.4959C189.594 78.9436 189.246 80.2636 188.838 81.6467C188.759 81.9141 188.681 82.1815 188.6 82.4571C185.518 92.5929 179.746 102.303 172.581 110.081C172.035 110.675 171.509 111.281 170.985 111.896C168.698 114.509 166.2 116.795 163.478 118.945C163.125 119.229 162.773 119.513 162.421 119.798C162.047 120.1 161.673 120.401 161.299 120.703C161.131 120.838 160.963 120.974 160.791 121.113C159.081 122.483 157.324 123.789 155.567 125.098C155.871 125.1 156.175 125.103 156.488 125.106C157.639 125.118 158.79 125.137 159.941 125.158C160.435 125.167 160.929 125.173 161.422 125.177C167.632 125.233 173.022 126.384 177.54 130.957C177.727 131.137 177.913 131.317 178.105 131.503C181.717 135.25 182.685 140.201 182.606 145.215C182.502 147.919 181.874 150.534 181.294 153.168C181.159 153.801 181.024 154.434 180.89 155.068C180.605 156.413 180.317 157.758 180.027 159.103C179.61 161.038 179.206 162.975 178.806 164.914C176.328 176.893 173.733 188.848 171.153 200.805C171.077 201.156 171.001 201.507 170.923 201.868C170.546 203.614 170.169 205.359 169.791 207.104C169.114 210.226 168.441 213.349 167.787 216.476C167.499 217.851 167.208 219.226 166.918 220.601C166.782 221.245 166.648 221.889 166.516 222.534C165.268 228.588 163.718 234.024 158.497 237.891C155.115 239.995 151.711 241.056 147.718 240.391C142.769 239.184 139.118 236.222 136.408 231.975C135.611 230.547 135.168 229.089 134.809 227.501C134.759 227.286 134.709 227.07 134.658 226.847C134.074 224.283 133.543 221.706 133.014 219.13C132.822 218.195 132.629 217.26 132.436 216.326C132.156 214.969 131.877 213.613 131.597 212.257C130.846 208.61 130.092 204.964 129.338 201.319C129.26 200.944 129.182 200.568 129.102 200.182C127.036 190.199 124.929 180.225 122.816 170.252C122.492 168.721 122.168 167.19 121.847 165.658C121.265 162.893 120.679 160.129 120.071 157.369C119.791 156.099 119.517 154.828 119.242 153.556C119.113 152.961 118.981 152.367 118.847 151.772C117.471 145.656 116.828 139.815 120.191 134.216C123.111 130.016 127.008 126.746 132.13 125.684C133.136 125.591 134.14 125.575 135.15 125.562C135.575 125.554 135.575 125.554 136.008 125.545C136.907 125.528 137.805 125.514 138.703 125.5C139.315 125.489 139.927 125.478 140.538 125.466C142.032 125.438 143.526 125.413 145.021 125.391C144.294 124.638 143.573 123.983 142.715 123.384C142.5 123.233 142.285 123.081 142.064 122.925C141.837 122.766 141.61 122.607 141.377 122.443C139.066 120.798 136.895 119.061 134.767 117.187C134.589 117.035 134.412 116.883 134.229 116.726C130.578 113.577 127.147 110.154 124.294 106.26C123.919 105.751 123.535 105.249 123.15 104.748C117.649 97.5221 109.681 86.0055 110.45 76.4648C111.036 75.8789 111.036 75.8789 112.098 75.7324C119.27 75.9383 126.905 82.4546 131.526 87.3229C133.058 89.0326 134.329 90.9014 135.601 92.8092C136.136 93.6738 136.136 93.6738 136.524 94.0429C136.529 93.8178 136.533 93.5926 136.537 93.3606C136.821 79.8926 139.646 67.3626 148.691 56.94C149.468 56.2246 149.875 56.2025 150.849 56.5704ZM152.345 67.0898C152.345 84.7822 152.345 102.475 152.345 120.703C156.467 115.206 157.49 106.567 158.204 99.9023C158.232 99.6506 158.259 99.399 158.288 99.1397C158.556 96.3706 158.568 93.5999 158.57 90.8203C158.571 90.5664 158.571 90.3125 158.571 90.051C158.56 81.584 156.791 74.511 152.638 67.0898C152.541 67.0898 152.444 67.0898 152.345 67.0898ZM147.071 67.6757C139.975 80.51 140.076 96.8456 143.849 110.742C144.777 113.957 145.846 117.129 147.364 120.117C147.461 120.117 147.558 120.117 147.657 120.117C147.666 114.947 147.672 109.778 147.676 104.608C147.676 104.228 147.676 103.847 147.676 103.455C147.682 94.006 147.677 84.558 147.511 75.1098C147.507 74.9107 147.504 74.7116 147.5 74.5064C147.46 72.2294 147.415 69.9525 147.364 67.6757C147.268 67.6757 147.171 67.6757 147.071 67.6757ZM116.603 82.3242C116.972 84.2356 117.512 85.9044 118.324 87.6709C118.439 87.9226 118.554 88.1743 118.673 88.4336C122.346 96.2949 127.358 103.278 133.302 109.57C133.659 109.952 133.659 109.952 134.024 110.34C135.875 112.258 137.9 113.853 140.04 115.43C140.559 114.391 139.899 113.319 139.556 112.263C136.69 103.752 132.769 95.6539 126.564 89.0625C126.388 88.8642 126.212 88.6659 126.03 88.4616C123.481 85.7085 120.069 83.6935 116.603 82.3242ZM173.2 89.154C171.471 90.9144 170.055 92.827 168.751 94.9218C168.642 95.092 168.534 95.2621 168.421 95.4374C164.547 101.53 161.451 108.137 159.669 115.137C162.181 115.137 165.479 111.04 167.286 109.277C173.186 103.328 177.85 95.9708 181.312 88.3667C181.42 88.1299 181.529 87.8932 181.64 87.6493C182.369 86.0072 182.921 84.3482 183.399 82.6171C179.971 82.6171 175.532 86.8602 173.2 89.154ZM160.916 130.142C160.587 130.149 160.258 130.155 159.919 130.162C158.871 130.183 157.824 130.204 156.776 130.225C156.064 130.239 155.352 130.253 154.64 130.267C152.899 130.301 151.157 130.336 149.415 130.371C149.408 132.729 149.403 135.087 149.4 137.446C149.398 138.541 149.396 139.635 149.393 140.73C149.39 141.787 149.388 142.843 149.387 143.899C149.387 144.302 149.386 144.706 149.384 145.109C149.382 145.673 149.382 146.237 149.382 146.801C149.381 147.123 149.381 147.444 149.38 147.775C149.363 148.531 149.363 148.531 149.708 149.121C150.057 149.128 150.406 149.136 150.765 149.143C152.06 149.171 153.355 149.2 154.65 149.23C155.211 149.243 155.771 149.255 156.332 149.267C157.137 149.284 157.943 149.302 158.749 149.321C158.999 149.326 159.249 149.331 159.507 149.336C159.859 149.345 159.859 149.345 160.218 149.354C160.424 149.358 160.629 149.363 160.841 149.368C161.454 149.416 162.008 149.542 162.599 149.707C162.656 150.177 162.71 150.647 162.763 151.117C162.809 151.509 162.809 151.509 162.856 151.91C162.892 152.637 162.892 152.637 162.599 153.516C161.805 153.78 161.309 153.851 160.49 153.869C160.121 153.877 160.121 153.877 159.744 153.886C159.48 153.891 159.215 153.896 158.942 153.901C158.67 153.907 158.399 153.913 158.118 153.92C157.25 153.939 156.381 153.956 155.513 153.973C154.924 153.986 154.335 153.999 153.746 154.012C152.302 154.043 150.859 154.073 149.415 154.102C149.408 156.266 149.403 158.43 149.399 160.594C149.398 161.331 149.396 162.068 149.393 162.805C149.389 163.862 149.388 164.918 149.386 165.975C149.385 166.306 149.383 166.638 149.382 166.98C149.382 167.285 149.382 167.59 149.382 167.904C149.381 168.174 149.381 168.444 149.38 168.722C149.347 169.332 149.347 169.332 149.708 169.629C150.124 169.659 150.542 169.669 150.96 169.67C151.226 169.672 151.492 169.675 151.766 169.677C152.056 169.678 152.345 169.679 152.643 169.68C153.251 169.687 153.859 169.694 154.467 169.702C155.43 169.712 156.392 169.72 157.355 169.724C158.281 169.729 159.206 169.741 160.132 169.754C160.42 169.753 160.708 169.752 161.005 169.752C163.003 169.788 163.003 169.788 163.945 170.483C164.378 171.126 164.603 171.492 164.649 172.266C164.429 173.168 164.205 173.612 163.49 174.21C162.203 174.786 161.04 174.713 159.646 174.685C159.363 174.683 159.079 174.681 158.787 174.679C157.885 174.672 156.983 174.659 156.08 174.646C155.174 174.636 154.267 174.627 153.36 174.619C152.797 174.614 152.233 174.607 151.669 174.599C151.416 174.596 151.162 174.593 150.901 174.59C150.677 174.587 150.454 174.583 150.223 174.58C149.7 174.552 149.7 174.552 149.415 174.902C149.388 175.334 149.381 175.767 149.382 176.2C149.382 176.475 149.382 176.751 149.382 177.035C149.383 177.335 149.385 177.634 149.386 177.943C149.387 178.248 149.387 178.553 149.388 178.868C149.389 179.847 149.393 180.826 149.397 181.805C149.398 182.467 149.4 183.129 149.401 183.791C149.404 185.418 149.409 187.045 149.415 188.672C151.075 188.858 152.701 189 154.374 188.973C154.728 188.969 155.082 188.966 155.447 188.962C156.18 188.952 156.913 188.94 157.646 188.928C157.998 188.924 158.351 188.921 158.713 188.918C159.189 188.91 159.189 188.91 159.675 188.903C160.589 188.968 161.204 189.125 162.013 189.551C162.739 190.641 162.734 191.191 162.599 192.48C162.177 193.12 162.177 193.12 161.427 193.652C160.514 193.831 159.613 193.83 158.685 193.831C158.45 193.835 158.215 193.84 157.973 193.845C157.098 193.86 156.223 193.865 155.348 193.872C153.39 193.896 151.432 193.92 149.415 193.945C149.415 198.296 149.415 202.646 149.415 207.129C152.255 207.202 152.255 207.202 155.095 207.269C155.448 207.279 155.802 207.29 156.167 207.301C156.529 207.31 156.891 207.319 157.264 207.328C158.142 207.416 158.652 207.519 159.376 208.008C159.836 208.929 159.737 209.929 159.669 210.937C159.572 211.227 159.476 211.518 159.376 211.816C157.376 212.126 155.427 212.134 153.407 212.109C152.776 212.102 152.145 212.096 151.514 212.091C151.237 212.088 150.961 212.084 150.676 212.081C149.993 212.064 149.993 212.064 149.415 212.402C149.408 214.024 149.403 215.646 149.399 217.268C149.398 217.82 149.396 218.372 149.393 218.924C149.389 219.716 149.388 220.508 149.386 221.3C149.385 221.548 149.383 221.797 149.382 222.053C149.382 222.645 149.397 223.237 149.415 223.828C149.725 224.206 149.725 224.206 150.434 224.129C150.89 224.116 150.89 224.116 151.356 224.103C152.798 224.091 153.935 224.171 155.274 224.707C155.731 225.62 155.733 226.642 155.567 227.637C155.118 228.2 154.848 228.48 154.136 228.638C153.934 228.643 153.732 228.649 153.524 228.655C153.193 228.669 153.193 228.669 152.855 228.683C152.626 228.688 152.397 228.693 152.162 228.699C150.67 228.61 150.67 228.61 149.415 229.102C149.39 229.602 149.384 230.103 149.386 230.604C149.387 230.907 149.388 231.21 149.389 231.523C149.392 231.841 149.394 232.16 149.397 232.489C149.398 232.809 149.399 233.129 149.401 233.459C149.404 234.253 149.409 235.046 149.415 235.84C152.407 235.92 154.717 235.124 157.032 233.177C159.531 230.791 160.531 227.839 161.213 224.52C161.271 224.25 161.328 223.98 161.388 223.701C161.58 222.798 161.769 221.894 161.958 220.99C162.097 220.334 162.236 219.677 162.376 219.021C162.761 217.205 163.143 215.388 163.525 213.572C163.905 211.76 164.288 209.95 164.671 208.139C164.895 207.079 165.119 206.019 165.343 204.959C165.388 204.746 165.434 204.532 165.48 204.312C165.806 202.77 166.131 201.228 166.456 199.686C167.707 193.753 168.971 187.822 170.244 181.894C171.729 174.976 173.209 168.058 174.679 161.138C174.809 160.521 174.94 159.905 175.072 159.289C175.605 156.779 176.135 154.269 176.661 151.758C176.724 151.46 176.787 151.162 176.852 150.854C177.021 150.049 177.188 149.242 177.354 148.436C177.401 148.21 177.449 147.985 177.498 147.753C178.275 143.921 178.168 140.058 176.199 136.587C175.703 135.846 175.18 135.158 174.61 134.473C174.38 134.188 174.38 134.188 174.146 133.898C172.113 131.628 169.118 130.367 166.114 130.078C164.382 130.058 162.649 130.107 160.916 130.142Z" fill="black"/>
</svg>
