<svg width="300" height="300" viewBox="0 0 300 300" fill="none" xmlns="http://www.w3.org/2000/svg">
<path d="M150.881 65.3319C155.561 67.8594 158.092 73.3061 159.631 78.1584C160.449 81.0579 161.269 84.2782 161.135 87.3045C161.444 87.1202 161.753 86.9359 162.072 86.746C167.583 83.5328 173.773 80.8092 180.251 80.731C180.457 80.728 180.663 80.725 180.875 80.7219C182.153 80.7442 182.973 80.9557 183.986 81.7381C185.583 83.8955 185.423 86.4944 185.158 89.0623C184.718 91.9258 183.771 94.6585 182.521 97.2655C182.44 97.4357 182.358 97.6059 182.274 97.7813C180.312 101.816 177.689 105.139 174.611 108.398C174.396 108.632 174.181 108.866 173.96 109.107C170.597 112.638 166.602 115.233 162.306 117.48C162.032 117.628 161.757 117.775 161.474 117.927C159.757 118.822 157.986 119.494 156.154 120.117C156.512 120.238 156.869 120.359 157.238 120.483C161.601 121.997 165.147 123.842 168.459 127.148C168.685 127.371 168.91 127.593 169.143 127.822C173.548 132.415 175.845 138.676 175.823 144.996C175.74 146.857 175.436 148.696 175.16 150.537C175.094 150.991 175.027 151.445 174.961 151.899C174.259 156.669 173.474 161.426 172.68 166.182C172.473 167.426 172.267 168.671 172.061 169.916C172.019 170.171 171.977 170.426 171.933 170.688C171.848 171.207 171.762 171.726 171.676 172.244C171.546 173.029 171.416 173.814 171.286 174.598C170.412 179.881 169.547 185.165 168.688 190.45C168.569 191.179 168.45 191.908 168.331 192.637C167.501 197.732 166.681 202.829 165.89 207.931C165.777 208.656 165.665 209.381 165.552 210.106C165.234 212.153 164.917 214.2 164.605 216.248C164.479 217.071 164.352 217.894 164.224 218.717C164.139 219.272 164.055 219.827 163.972 220.382C163.251 225.004 161.925 228.685 158.205 231.738C154.626 234.134 150.903 234.983 146.633 234.183C143.093 233.214 140.103 231.022 138.063 227.966C136.432 225.103 136.103 221.883 135.597 218.682C135.506 218.117 135.415 217.553 135.323 216.989C135.125 215.762 134.928 214.535 134.731 213.307C134.247 210.277 133.755 207.248 133.264 204.219C133.145 203.487 133.027 202.756 132.908 202.024C131.847 195.473 130.764 188.926 129.672 182.38C129.633 182.141 129.593 181.903 129.552 181.657C128.954 178.069 128.354 174.48 127.754 170.892C127.596 169.944 127.437 168.995 127.279 168.047C127.24 167.814 127.201 167.582 127.161 167.343C126.859 165.533 126.556 163.723 126.254 161.913C126.045 160.658 125.835 159.402 125.624 158.146C125.526 157.56 125.428 156.974 125.33 156.388C125.213 155.685 125.095 154.981 124.977 154.277C124.707 152.659 124.443 151.04 124.186 149.42C124.139 149.119 124.091 148.818 124.042 148.509C123.867 147.203 123.827 145.914 123.836 144.598C123.837 144.334 123.839 144.07 123.84 143.798C123.953 137.342 126.644 131.638 131.063 127.009C134.601 123.633 138.882 121.463 143.556 120.117C143.03 119.904 143.03 119.904 142.493 119.687C136.127 117.08 130.829 113.85 125.685 109.277C125.376 109.005 125.376 109.005 125.06 108.728C119.1 103.142 114.806 95.0234 114.461 86.8101C114.517 84.9118 114.957 83.1983 116.164 81.7198C117.91 80.3666 120.357 80.6676 122.463 80.8592C128.165 81.7204 133.173 83.9196 137.99 87.0115C138.024 86.81 138.057 86.6084 138.092 86.4006C139.336 79.0956 141.137 70.7264 147.511 66.0643C148.68 65.3381 149.489 65.0693 150.881 65.3319ZM149.416 71.7772C144.055 77.7893 142.84 86.5646 143.263 94.3358C143.351 95.3596 143.472 96.3756 143.611 97.3936C143.641 97.6198 143.67 97.846 143.701 98.079C144.404 102.751 145.951 107.33 147.313 111.841C147.571 112.7 147.827 113.56 148.082 114.42C148.247 114.968 148.412 115.516 148.577 116.064C148.69 116.448 148.69 116.448 148.806 116.841C148.992 117.45 149.202 118.052 149.416 118.652C149.609 118.749 149.802 118.846 150.002 118.945C151.205 114.965 152.328 110.964 153.397 106.946C153.524 106.469 153.652 105.992 153.781 105.515C155.081 100.682 156.035 96.042 155.989 91.0216C155.988 90.8131 155.987 90.6046 155.987 90.3898C155.946 84.0058 154.833 77.4073 150.588 72.3631C149.97 71.974 149.97 71.974 149.416 71.7772ZM120.705 86.4256C119.797 87.7872 120.13 88.9611 120.412 90.5272C121.535 95.036 123.784 99.0665 126.857 102.539C127.091 102.815 127.325 103.09 127.566 103.374C131.271 107.661 136.03 111.086 141.213 113.379C141.503 113.379 141.793 113.379 142.092 113.379C141.912 111.371 141.401 109.54 140.828 107.611C140.133 105.203 139.513 102.805 139.052 100.342C139.007 100.099 138.961 99.8562 138.914 99.6061C138.75 98.6899 138.59 97.7914 138.533 96.8615C138.43 95.1832 138.07 94.3759 136.818 93.1639C136.208 92.6548 135.616 92.1896 134.969 91.7357C134.792 91.6112 134.616 91.4867 134.434 91.3584C130.513 88.6699 125.566 86.1068 120.705 86.4256ZM164.064 92.285C163.793 92.4602 163.523 92.6355 163.244 92.816C163.007 92.9791 162.77 93.1423 162.526 93.3104C162.325 93.4463 162.124 93.5823 161.917 93.7224C161.143 94.6918 161.049 95.7695 160.842 96.9725C160.744 97.4895 160.645 98.0064 160.546 98.5232C160.468 98.9389 160.468 98.9389 160.388 99.3631C159.685 103.052 158.789 106.663 157.792 110.28C157.694 110.638 157.595 110.995 157.494 111.363C157.405 111.682 157.316 112 157.225 112.329C157.009 113.05 157.009 113.05 157.033 113.672C165.308 111.149 172.933 103.887 176.961 96.4177C178.537 93.3769 179.855 90.2039 179.592 86.7186C179.259 86.321 179.259 86.321 178.382 86.3787C173.192 86.5934 168.226 89.3897 164.064 92.285ZM134.089 131.505C132.17 133.931 130.633 136.462 129.787 139.453C129.722 139.664 129.656 139.876 129.589 140.094C128.696 143.399 129.22 146.916 129.786 150.231C129.848 150.612 129.911 150.992 129.975 151.384C130.144 152.418 130.317 153.451 130.491 154.484C130.676 155.587 130.857 156.691 131.039 157.795C131.382 159.879 131.729 161.961 132.078 164.044C132.339 165.603 132.598 167.163 132.857 168.722C132.892 168.933 132.927 169.144 132.963 169.362C133.033 169.786 133.103 170.21 133.174 170.634C134.054 175.939 134.941 181.244 135.829 186.548C136.296 189.332 136.762 192.116 137.227 194.9C137.402 195.948 137.577 196.996 137.753 198.044C138.463 202.281 139.164 206.518 139.824 210.762C139.915 211.344 140.006 211.927 140.097 212.509C140.378 214.306 140.657 216.103 140.928 217.902C141.026 218.536 141.125 219.171 141.225 219.806C141.266 220.087 141.307 220.369 141.349 220.659C141.772 223.321 142.646 225.824 144.728 227.637C146.845 229.154 148.911 229.431 151.467 229.101C153.672 228.601 155.447 227.455 156.74 225.586C158.053 223.182 158.353 220.477 158.751 217.807C158.864 217.052 158.983 216.298 159.102 215.544C159.177 215.057 159.252 214.571 159.326 214.084C159.361 213.862 159.396 213.64 159.432 213.411C159.642 211.985 159.7 210.621 159.67 209.18C159.506 209.215 159.342 209.251 159.174 209.287C158.418 209.449 157.661 209.607 156.905 209.765C156.519 209.849 156.519 209.849 156.125 209.935C151.903 210.807 151.903 210.807 150.441 209.894C149.862 208.953 149.748 208.228 149.709 207.129C149.97 206.368 150.154 206.04 150.851 205.627C152.972 204.878 155.111 204.435 157.328 204.073C158.777 203.817 159.822 203.584 160.842 202.441C161.185 201.624 161.185 201.624 161.336 200.702C161.402 200.366 161.469 200.031 161.537 199.686C161.598 199.338 161.658 198.991 161.72 198.633C161.781 198.291 161.841 197.95 161.904 197.598C162.157 196.065 162.318 194.621 162.306 193.066C161.965 193.135 161.965 193.135 161.617 193.205C160.578 193.413 159.538 193.615 158.498 193.817C158.14 193.889 157.783 193.962 157.414 194.036C155.532 194.397 153.933 194.674 152.052 194.238C151.467 193.762 151.467 193.762 151.174 193.066C151.063 191.833 151.021 190.864 151.76 189.844C152.572 189.514 152.572 189.514 153.627 189.258C153.912 189.186 153.912 189.186 154.203 189.113C155.357 188.831 156.517 188.6 157.686 188.389C157.946 188.341 158.205 188.293 158.472 188.244C158.979 188.153 159.488 188.066 159.998 187.986C161.288 187.756 162.448 187.492 163.433 186.558C164.203 185.367 164.287 183.917 164.467 182.538C164.515 182.224 164.563 181.91 164.612 181.586C164.828 180.124 164.966 178.726 164.943 177.246C162.361 177.436 159.882 177.95 157.356 178.497C152.982 179.412 152.982 179.412 151.631 178.546C151.022 177.595 150.9 176.908 150.881 175.781C151.119 174.975 151.119 174.975 151.76 174.316C153.469 173.587 155.348 173.293 157.167 172.954C157.388 172.913 157.61 172.872 157.838 172.829C158.762 172.658 159.687 172.487 160.613 172.325C161.296 172.204 161.978 172.076 162.66 171.947C162.868 171.913 163.075 171.878 163.289 171.843C164.741 171.56 165.504 171.09 166.408 169.922C166.707 169.171 166.707 169.171 166.807 168.366C166.856 168.075 166.904 167.784 166.953 167.484C166.997 167.182 167.041 166.881 167.085 166.571C167.135 166.271 167.184 165.971 167.235 165.662C167.46 164.24 167.647 162.869 167.58 161.426C165.441 161.63 163.39 162.018 161.295 162.488C159.591 162.85 157.897 163.085 156.154 162.89C155.297 162.326 155.068 161.958 154.726 161.004C154.681 160.078 154.81 159.593 155.275 158.789C156.453 157.92 157.661 157.657 159.075 157.406C159.297 157.364 159.519 157.322 159.747 157.279C160.692 157.099 161.637 156.927 162.583 156.753C163.276 156.626 163.967 156.494 164.659 156.363C164.871 156.325 165.084 156.288 165.302 156.249C166.515 156.018 167.473 155.735 168.459 154.98C169.272 153.282 169.574 151.58 169.832 149.725C169.87 149.478 169.908 149.232 169.947 148.977C170.184 147.349 170.251 145.785 170.217 144.14C168.243 144.304 166.33 144.587 164.392 144.985C163.851 145.092 163.31 145.2 162.77 145.307C161.931 145.474 161.093 145.643 160.255 145.814C159.437 145.98 158.619 146.142 157.8 146.303C157.552 146.355 157.304 146.407 157.049 146.461C155.391 146.783 153.602 147.043 152.071 146.155C151.577 145.283 151.501 144.549 151.467 143.555C151.845 142.608 152.092 142.208 153.02 141.776C153.777 141.515 154.493 141.341 155.28 141.2C155.707 141.122 155.707 141.122 156.142 141.043C156.446 140.989 156.75 140.935 157.063 140.88C157.377 140.823 157.692 140.766 158.016 140.707C159.018 140.526 160.022 140.346 161.025 140.167C162.03 139.986 163.035 139.805 164.04 139.624C164.665 139.511 165.29 139.399 165.915 139.287C166.198 139.236 166.48 139.185 166.771 139.133C167.02 139.089 167.269 139.044 167.525 138.998C168.214 138.87 168.214 138.87 169.045 138.574C168.736 135.169 166.237 132.047 163.771 129.785C162.74 129.013 161.674 128.358 160.549 127.734C160.303 127.596 160.058 127.457 159.806 127.314C151.642 122.954 140.418 124.702 134.089 131.505Z" fill="black"/>
</svg>
