<svg width="300" height="300" viewBox="0 0 300 300" fill="none" xmlns="http://www.w3.org/2000/svg">
<path d="M147.252 118.341C156.942 118.142 166.287 119.199 173.624 126.163C173.852 126.391 174.081 126.62 174.317 126.855C174.564 127.099 174.811 127.342 175.065 127.593C180.003 132.719 182.513 139.83 182.438 146.906C182.321 149.668 181.846 152.305 181.296 155.004C181.193 155.52 181.09 156.036 180.987 156.552C180.69 158.037 180.389 159.522 180.088 161.007C179.873 162.062 179.659 163.118 179.446 164.173C178.337 169.651 177.219 175.126 176.098 180.602C175.816 181.983 175.534 183.364 175.251 184.745C172.996 195.777 170.737 206.808 168.457 217.835C168.295 218.619 168.133 219.403 167.971 220.187C167.427 222.817 166.881 225.446 166.329 228.075C166.194 228.722 166.058 229.369 165.924 230.016C165.768 230.767 165.609 231.516 165.449 232.266C165.371 232.637 165.292 233.008 165.211 233.391C164.085 237.507 161.178 240.889 157.542 243.037C153.795 244.996 149.756 245.623 145.643 244.446C141.166 242.861 137.791 239.868 135.683 235.618C134.486 232.919 134.037 229.999 133.46 227.122C133.337 226.513 133.212 225.905 133.088 225.297C132.824 224.004 132.561 222.71 132.3 221.417C131.888 219.38 131.473 217.343 131.058 215.307C130.638 213.252 130.219 211.197 129.801 209.141C128.729 203.872 127.638 198.608 126.536 193.345C124.908 185.575 123.298 177.801 121.735 170.018C121.583 169.264 121.431 168.509 121.279 167.754C121.206 167.39 121.133 167.025 121.057 166.649C120.586 164.314 120.093 161.984 119.588 159.656C117.449 149.721 116.216 140.518 121.87 131.496C122.43 130.701 123.014 129.947 123.633 129.199C123.838 128.95 124.043 128.701 124.254 128.445C129.373 122.497 136.548 119.115 144.324 118.432C145.3 118.386 146.275 118.364 147.252 118.341ZM130.665 130.371C130.327 130.668 130.327 130.668 129.981 130.972C126.016 134.667 123.823 139.905 123.611 145.299C123.588 146.947 123.762 148.485 124.06 150.104C124.136 150.528 124.136 150.528 124.214 150.96C125.126 155.951 126.158 160.92 127.168 165.891C127.353 166.802 127.538 167.714 127.722 168.625C129.613 177.954 131.52 187.28 133.464 196.598C133.515 196.838 133.565 197.078 133.616 197.325C133.82 198.303 134.024 199.281 134.228 200.259C134.983 203.874 135.727 207.491 136.466 211.11C136.908 213.274 137.353 215.438 137.798 217.601C138.106 219.095 138.412 220.59 138.714 222.085C138.997 223.481 139.283 224.876 139.572 226.27C139.678 226.783 139.782 227.295 139.884 227.808C140.688 231.82 141.528 235.131 145.02 237.597C147.459 239.026 149.707 239.263 152.442 238.686C154.951 238.014 156.87 236.574 158.287 234.377C159.454 232.025 159.998 229.073 159.962 226.465C159.756 226.463 159.551 226.462 159.339 226.461C158.405 226.451 157.472 226.431 156.538 226.41C156.214 226.408 155.891 226.406 155.558 226.405C152.879 226.332 152.879 226.332 151.99 225.46C151.196 224.32 151.196 224.32 151.173 223.535C151.445 222.421 151.709 221.604 152.637 220.898C153.586 220.582 154.334 220.545 155.332 220.513C155.686 220.5 156.041 220.488 156.405 220.475C156.775 220.464 157.145 220.452 157.526 220.44C157.9 220.428 158.273 220.415 158.658 220.402C159.58 220.371 160.503 220.341 161.426 220.312C162.23 217.267 162.913 214.204 163.55 211.12C163.59 210.928 163.63 210.736 163.672 210.537C164.149 208.556 164.149 208.556 164.356 206.543C164.176 206.541 163.996 206.539 163.81 206.538C161.933 206.519 160.055 206.494 158.178 206.466C157.478 206.456 156.777 206.448 156.077 206.441C155.069 206.431 154.062 206.416 153.055 206.4C152.742 206.398 152.429 206.396 152.107 206.394C149.361 206.34 149.361 206.34 148.243 205.371C147.517 204.282 147.568 203.73 147.657 202.441C147.877 201.599 147.877 201.599 148.243 200.976C149.161 200.648 150.058 200.639 151.027 200.623C151.349 200.617 151.672 200.612 152.004 200.606C152.524 200.598 152.524 200.598 153.054 200.591C153.41 200.585 153.766 200.579 154.133 200.572C155.27 200.553 156.407 200.536 157.545 200.519C158.316 200.506 159.086 200.493 159.857 200.48C161.748 200.449 163.638 200.419 165.528 200.39C166.075 198.259 166.582 196.128 167.005 193.968C167.056 193.713 167.107 193.458 167.159 193.195C167.318 192.395 167.476 191.595 167.634 190.796C167.743 190.247 167.851 189.699 167.96 189.15C168.225 187.819 168.488 186.488 168.751 185.156C168.563 185.154 168.375 185.153 168.182 185.151C166.229 185.132 164.276 185.107 162.322 185.079C161.593 185.069 160.865 185.061 160.136 185.055C159.088 185.045 158.04 185.029 156.992 185.013C156.666 185.011 156.34 185.009 156.005 185.007C155.7 185.002 155.395 184.996 155.081 184.99C154.68 184.985 154.68 184.985 154.271 184.98C153.358 184.839 152.798 184.52 152.051 183.984C151.586 183.053 151.678 182.07 151.758 181.054C152.101 180.052 152.307 179.907 153.223 179.297C153.963 179.215 153.963 179.215 154.856 179.203C155.357 179.195 155.357 179.195 155.869 179.186C156.23 179.182 156.59 179.179 156.962 179.175C157.331 179.17 157.701 179.164 158.082 179.158C159.063 179.144 160.044 179.132 161.025 179.121C162.026 179.109 163.028 179.094 164.029 179.079C165.994 179.051 167.958 179.026 169.923 179.004C170.578 176.478 171.14 173.942 171.656 171.384C171.771 170.818 171.771 170.818 171.889 170.241C172.05 169.451 172.21 168.66 172.37 167.87C172.575 166.856 172.781 165.843 172.987 164.83C173.185 163.859 173.382 162.888 173.579 161.918C173.653 161.554 173.727 161.19 173.804 160.815C173.871 160.48 173.939 160.145 174.008 159.8C174.068 159.505 174.128 159.21 174.189 158.906C174.334 158.226 174.334 158.226 174.317 157.617C174.059 157.615 173.801 157.612 173.535 157.61C171.104 157.587 168.673 157.561 166.242 157.533C164.992 157.518 163.742 157.505 162.492 157.493C161.285 157.483 160.079 157.469 158.873 157.453C158.413 157.448 157.953 157.444 157.492 157.44C156.848 157.435 156.203 157.427 155.559 157.417C155.192 157.414 154.825 157.41 154.447 157.406C153.56 157.328 153.07 157.239 152.344 156.738C151.562 155.564 151.516 154.603 151.758 153.222C152.5 152.261 152.953 151.848 154.102 151.465C154.798 151.43 155.495 151.413 156.192 151.404C156.404 151.402 156.615 151.399 156.833 151.396C157.532 151.386 158.231 151.379 158.93 151.372C159.415 151.366 159.9 151.36 160.385 151.353C161.661 151.337 162.937 151.323 164.212 151.309C165.514 151.294 166.816 151.278 168.118 151.261C170.673 151.23 173.227 151.2 175.782 151.172C175.879 150.466 175.976 149.761 176.072 149.055C176.113 148.757 176.113 148.757 176.156 148.453C176.93 142.733 175.26 137.706 171.965 133.047C169.824 130.25 167.182 128.355 164.081 126.745C163.904 126.651 163.726 126.557 163.542 126.46C159.628 124.532 155.509 124.658 151.247 124.674C150.207 124.676 149.168 124.668 148.129 124.659C141.43 124.637 135.797 125.726 130.665 130.371Z" fill="black"/>
<path d="M156.792 56.4698C159.783 58.3857 161.77 61.1124 162.871 64.5082C163.667 68.1571 163.304 71.5643 162.015 75.0381C161.605 76.1416 161.223 77.2546 160.835 78.3658C160.703 78.7415 160.703 78.7415 160.568 79.1248C159.723 81.537 158.938 83.9677 158.16 86.4019C158.095 86.6055 158.029 86.8091 157.962 87.0188C157.366 88.8815 156.772 90.7447 156.178 92.6082C155.863 93.596 155.547 94.5832 155.23 95.5702C155.056 96.1142 154.883 96.6588 154.711 97.2034C154.605 97.5332 154.499 97.863 154.39 98.2029C154.298 98.4898 154.206 98.7768 154.112 99.0725C153.583 100.516 153.035 101.924 151.757 102.832C150.437 103.223 149.45 103.258 148.168 102.741C146.219 100.836 145.497 97.9995 144.704 95.4576C144.597 95.121 144.49 94.7844 144.379 94.4376C144.035 93.3546 143.694 92.2706 143.352 91.1866C143.116 90.4423 142.88 89.6979 142.643 88.9538C142.292 87.8513 141.941 86.7488 141.591 85.6461C140.605 82.5465 139.588 79.4592 138.546 76.3783C138.259 75.5292 137.975 74.6792 137.694 73.8282C137.607 73.5684 137.521 73.3086 137.431 73.041C136.172 69.1116 136.559 65.2156 138.429 61.5327C140.357 58.2694 143.004 56.2442 146.576 55.0451C150.13 54.1896 153.634 54.6989 156.792 56.4698ZM146.483 61.5236C146.187 61.6746 145.891 61.8257 145.586 61.9813C144.046 63.2594 143.098 64.6174 142.837 66.6374C142.79 69.8232 143.475 72.3911 144.561 75.3663C144.722 75.8244 144.882 76.2827 145.042 76.7413C145.284 77.4373 145.527 78.1331 145.773 78.828C146.302 80.3235 146.805 81.8249 147.283 83.3371C147.344 83.5286 147.405 83.72 147.467 83.9173C147.749 84.8124 148.03 85.7082 148.309 86.6041C148.408 86.9173 148.508 87.2305 148.61 87.5531C148.695 87.8251 148.78 88.097 148.867 88.3772C149.114 89.1265 149.114 89.1265 149.706 89.9415C149.996 89.9415 150.286 89.9415 150.585 89.9415C150.958 88.782 151.33 87.6223 151.702 86.4625C151.859 85.9754 151.859 85.9754 152.018 85.4783C152.324 84.5253 152.627 83.5714 152.929 82.6173C153.022 82.3291 153.116 82.0408 153.212 81.7438C153.295 81.4815 153.378 81.2191 153.463 80.9488C153.537 80.7183 153.611 80.4879 153.687 80.2505C153.873 79.6667 153.873 79.6667 153.515 79.1017C153.708 79.1017 153.901 79.1017 154.101 79.1017C154.526 77.9279 154.943 76.7514 155.352 75.5719C155.492 75.1728 155.634 74.7745 155.779 74.3771C156.934 71.1922 157.853 67.9129 156.444 64.6364C156.257 64.2782 156.065 63.9222 155.858 63.5743C155.665 63.5743 155.472 63.5743 155.273 63.5743C155.218 63.3568 155.164 63.1393 155.108 62.9152C154.532 61.8143 153.756 61.4198 152.636 60.9376C150.506 60.281 148.439 60.4706 146.483 61.5236Z" fill="black"/>
<path d="M183.765 77.9478C186.477 79.9881 188.109 82.9081 188.892 86.1692C189.25 90.2795 188.207 93.4955 185.806 96.8168C185.042 97.6898 184.19 98.3525 183.253 99.0232C183.06 99.1626 182.867 99.302 182.668 99.4457C180.704 100.85 178.68 102.158 176.649 103.464C174.718 104.705 172.799 105.967 170.881 107.228C170.272 107.628 169.663 108.028 169.054 108.427C167.362 109.537 165.67 110.647 163.983 111.763C163.223 112.266 162.462 112.767 161.701 113.269C161.433 113.447 161.165 113.626 160.889 113.809C157.515 116.027 157.515 116.027 155.993 116.004C155.78 115.947 155.567 115.891 155.347 115.832C155.023 115.754 155.023 115.754 154.693 115.674C154.021 115.396 153.679 115.114 153.223 114.551C152.608 112.705 152.989 111.166 153.683 109.41C153.763 109.2 153.843 108.99 153.925 108.774C154.188 108.086 154.456 107.4 154.725 106.714C154.911 106.23 155.097 105.747 155.283 105.263C155.86 103.767 156.445 102.274 157.032 100.781C157.124 100.548 157.215 100.314 157.31 100.074C158.413 97.2698 159.532 94.4723 160.666 91.6803C161.107 90.5933 161.544 89.5045 161.98 88.4157C162.235 87.7888 162.49 87.162 162.745 86.5354C162.854 86.2615 162.963 85.9876 163.076 85.7054C164.716 81.7225 167.339 78.4119 171.369 76.6809C175.662 75.1816 179.911 75.5076 183.765 77.9478ZM170.508 84.3748C169.095 86.6439 168.181 89.2287 167.231 91.7173C166.954 92.4351 166.677 93.1526 166.399 93.87C166.293 94.1428 166.293 94.1428 166.185 94.4212C165.674 95.7371 165.139 97.0424 164.593 98.3446C164.48 98.6164 164.48 98.6164 164.364 98.8938C164 99.7656 163.634 100.636 163.262 101.504C163.132 101.816 163.002 102.127 162.868 102.447C162.752 102.72 162.636 102.993 162.517 103.275C162.29 104.055 162.319 104.424 162.598 105.176C164.088 104.342 165.527 103.454 166.956 102.521C167.397 102.234 167.838 101.947 168.279 101.66C168.503 101.514 168.727 101.368 168.957 101.218C169.606 100.796 170.256 100.376 170.907 99.9571C173.623 98.2065 176.33 96.4428 179.004 94.6287C179.372 94.3857 179.372 94.3857 179.747 94.1377C181.136 93.1743 182.257 92.1607 182.813 90.5271C183.137 87.8089 182.875 85.9651 181.257 83.7339C179.938 82.3537 178.63 81.8819 176.764 81.7415C174.257 81.729 172.322 82.6561 170.508 84.3748Z" fill="black"/>
<path d="M129.95 77.458C130.607 77.8797 131.222 78.3271 131.836 78.8084C132.016 78.9406 132.196 79.0728 132.381 79.209C134.903 81.1839 136.254 83.958 137.384 86.8834C137.517 87.2162 137.649 87.5491 137.785 87.8921C138.162 88.8461 138.536 89.8016 138.908 90.7578C139.273 91.6951 139.641 92.6313 140.009 93.5676C141.018 96.1355 142.019 98.7061 143.016 101.279C143.529 102.601 144.046 103.923 144.568 105.242C144.91 106.104 145.248 106.967 145.587 107.831C145.707 108.128 145.826 108.425 145.949 108.731C147.393 112.43 147.393 112.43 146.741 114.349C146.107 115.258 145.769 115.63 144.727 116.015C142.711 116.073 141.358 115.436 139.746 114.294C139.362 114.032 138.978 113.771 138.593 113.509C138.372 113.357 138.151 113.205 137.923 113.049C136.893 112.354 135.85 111.68 134.805 111.006C132.273 109.374 129.754 107.722 127.238 106.066C126.525 105.596 125.811 105.126 125.097 104.657C123.947 103.9 122.798 103.143 121.65 102.384C121.218 102.099 120.786 101.815 120.354 101.53C119.754 101.135 119.155 100.739 118.555 100.343C118.381 100.228 118.206 100.113 118.026 99.9953C114.755 97.8247 112.194 95.2606 111.174 91.374C110.62 87.9889 110.818 84.568 112.659 81.5939C116.786 75.9847 123.62 74.0227 129.95 77.458ZM118.196 83.8919C116.827 85.4575 116.733 87.0715 116.795 89.0829C117.084 91.5708 118.539 92.8312 120.41 94.3358C121.247 94.9441 122.106 95.5128 122.974 96.0753C123.441 96.3819 123.908 96.6886 124.375 96.9954C124.599 97.1421 124.824 97.2888 125.056 97.44C125.88 97.9796 126.697 98.5287 127.515 99.0782C128.922 100.017 130.343 100.934 131.768 101.845C133.22 102.774 134.651 103.731 136.077 104.698C136.702 105.102 137.316 105.447 137.989 105.762C137.367 103.444 136.501 101.245 135.593 99.0278C134.848 97.2034 134.126 95.3711 133.422 93.5301C133.222 93.0089 133.222 93.0089 133.017 92.4772C132.743 91.7639 132.471 91.0498 132.2 90.3349C130.918 87.0223 129.714 84.1823 126.526 82.3973C123.594 81.1223 120.514 81.6869 118.196 83.8919Z" fill="black"/>
</svg>
