<svg width="300" height="300" viewBox="0 0 300 300" fill="none" xmlns="http://www.w3.org/2000/svg">
<path d="M181.622 85.7848C182.352 86.5597 182.788 87.1556 182.846 88.2373C182.688 89.7117 182.487 90.6545 181.347 91.6992C180.213 92.2291 179.069 92.4779 177.85 92.7429C172.935 93.9084 168.363 96.1241 164.062 98.7304C163.908 112.762 167.583 125.847 173.364 138.554C173.846 139.619 174.274 140.674 174.609 141.797C174.778 141.75 174.946 141.703 175.12 141.654C182.587 139.956 192.089 142.949 198.467 146.819C206.755 152.072 212.712 160.192 214.896 169.804C216.913 179.75 215.327 189.767 209.804 198.307C209.23 199.122 208.63 199.905 208.007 200.684C207.877 200.846 207.747 201.009 207.613 201.177C205.7 203.552 203.724 205.589 201.269 207.422C200.896 207.718 200.896 207.718 200.516 208.02C195.741 211.705 189.894 213.801 183.984 214.746C183.758 214.785 183.532 214.823 183.299 214.863C174.273 216.142 164.608 213.418 157.256 208.138C154.921 206.374 152.901 204.253 150.878 202.148C149.712 202.61 148.989 203.433 148.15 204.327C141.421 211.232 132.181 214.865 122.608 215.141C112.217 215.247 102.697 211.337 95.1982 204.181C88.4368 197.54 84.5047 188.422 84.2707 178.95C84.1931 168.557 88.1291 159.559 95.2142 152.051C95.5371 151.694 95.5371 151.694 95.8665 151.331C102.154 144.655 111.762 140.906 120.826 140.601C122.25 140.578 123.673 140.593 125.097 140.625C125.197 140.079 125.197 140.079 125.298 139.522C125.691 137.763 126.406 136.181 127.148 134.546C127.365 134.063 127.365 134.063 127.586 133.57C127.883 132.912 128.181 132.254 128.481 131.597C128.86 130.765 129.233 129.931 129.605 129.096C132.403 122.925 135.955 117.027 140.038 111.621C140.174 111.441 140.309 111.26 140.449 111.074C142.097 108.889 143.841 106.824 145.714 104.829C146.443 104.047 147.151 103.25 147.857 102.447C148.802 101.396 149.779 100.446 150.861 99.5372C151.276 99.184 151.68 98.8193 152.076 98.4454C158.728 92.1806 167.037 88.0027 175.781 85.5468C175.99 85.4878 176.199 85.4287 176.415 85.3678C178.324 84.8569 179.904 84.7252 181.622 85.7848ZM153.405 106.97C153.257 107.118 153.11 107.265 152.957 107.417C150.856 109.521 148.868 111.651 147.128 114.067C146.754 114.582 146.37 115.086 145.984 115.591C143.892 118.345 142.083 121.24 140.331 124.219C140.222 124.401 140.113 124.584 140 124.772C138.368 127.506 136.961 130.348 135.571 133.209C135.483 133.388 135.396 133.567 135.306 133.752C133.117 137.756 133.117 137.756 132.128 142.09C132.301 142.156 132.473 142.222 132.65 142.29C137.738 144.259 142.053 146.39 146.191 150C146.397 150.168 146.604 150.335 146.817 150.508C153.46 155.99 157.52 165.008 158.495 173.437C158.586 174.903 158.607 176.363 158.605 177.832C158.605 178.03 158.605 178.229 158.605 178.433C158.585 183.902 157.544 188.88 155.202 193.837C154.923 194.709 154.967 195.134 155.273 195.996C155.803 196.731 155.803 196.731 156.481 197.424C156.843 197.808 156.843 197.808 157.211 198.199C157.557 198.559 157.557 198.559 157.91 198.926C158.073 199.108 158.237 199.291 158.406 199.478C163.45 204.915 171.239 207.452 178.469 207.74C185.652 207.851 192.649 205.418 198.046 200.684C198.265 200.507 198.483 200.331 198.708 200.149C204.702 195.168 207.913 187.462 208.655 179.832C209.135 172.578 206.617 164.861 201.855 159.375C201.663 159.142 201.472 158.908 201.275 158.668C196.854 153.466 189.948 149.753 183.105 149.121C181.64 149.066 180.176 149.085 178.71 149.121C179.153 150.286 179.685 151.381 180.255 152.489C180.349 152.671 180.442 152.853 180.539 153.04C180.844 153.633 181.15 154.224 181.457 154.816C181.562 155.019 181.668 155.223 181.776 155.433C183.347 158.47 184.955 161.483 186.603 164.478C187.746 166.555 188.861 168.648 189.977 170.74C190.951 172.566 191.93 174.389 192.934 176.199C193.096 176.491 193.257 176.783 193.424 177.084C193.725 177.626 194.027 178.167 194.331 178.707C196.097 181.892 196.097 181.892 195.912 183.569C195.303 185.316 195.303 185.316 194.476 185.907C191.809 186.322 191.809 186.322 190.604 185.632C189.499 184.515 188.906 183.223 188.213 181.824C187.902 181.21 187.59 180.597 187.277 179.985C187.04 179.518 187.04 179.518 186.799 179.042C186.086 177.655 185.339 176.287 184.588 174.921C184.295 174.386 184.002 173.852 183.709 173.317C183.562 173.049 183.415 172.782 183.264 172.506C182.48 171.073 181.703 169.637 180.926 168.201C180.689 167.762 180.689 167.762 180.446 167.315C180.126 166.722 179.805 166.129 179.484 165.537C179.006 164.654 178.528 163.771 178.05 162.888C177.893 162.598 177.736 162.308 177.574 162.009C177.259 161.429 176.945 160.849 176.631 160.269C175.792 158.721 174.954 157.172 174.119 155.622C173.944 155.297 173.768 154.972 173.587 154.638C173.249 154.01 172.91 153.382 172.572 152.754C172.421 152.474 172.27 152.194 172.114 151.905C171.98 151.657 171.846 151.409 171.709 151.153C171.429 150.603 171.429 150.603 171.093 150.293C169.38 150.409 168.014 150.791 166.461 151.501C166.257 151.593 166.054 151.684 165.844 151.778C163.157 153.017 160.832 154.627 158.552 156.505C157.959 156.991 157.355 157.455 156.738 157.91C156.672 157.71 156.606 157.509 156.539 157.302C156.05 156.22 155.387 155.374 154.65 154.449C154.445 154.187 154.445 154.187 154.235 153.919C153.899 153.49 153.561 153.063 153.222 152.637C153.677 151.4 154.593 150.726 155.602 149.945C155.784 149.804 155.965 149.663 156.152 149.518C159.648 146.876 163.507 145.121 167.577 143.555C167.396 142.441 167.068 141.525 166.59 140.505C166.447 140.195 166.305 139.885 166.157 139.566C165.927 139.066 165.927 139.066 165.692 138.556C160.664 127.424 157.943 116.119 156.738 104.004C155.678 104.004 154.176 106.2 153.405 106.97ZM101.66 155.859C101.389 156.106 101.118 156.353 100.839 156.608C96.5434 160.707 93.5963 165.894 92.2845 171.68C92.2188 171.954 92.1531 172.228 92.0854 172.51C90.6217 179.668 92.2032 187.088 95.8001 193.359C100.783 200.829 107.595 205.425 116.361 207.331C123.922 208.68 131.787 207.11 138.281 203.027C139.313 202.302 140.264 201.517 141.21 200.684C141.454 200.482 141.697 200.281 141.947 200.074C147.572 195.285 150.988 188.054 151.757 180.762C152.376 172.371 149.896 164.608 144.433 158.203C144.209 157.907 143.986 157.611 143.755 157.306C140.297 153.526 135.311 150.534 130.37 149.121C129.984 149.121 129.597 149.121 129.199 149.121C127.205 154.636 125.586 160.235 124.053 165.893C123.959 166.242 123.864 166.591 123.767 166.951C122.842 170.368 121.931 173.787 121.048 177.215C120.927 177.681 120.807 178.148 120.686 178.614C120.471 179.444 120.261 180.275 120.055 181.107C119.962 181.468 119.87 181.828 119.774 182.2C119.66 182.658 119.66 182.658 119.543 183.126C119.132 184.282 118.614 185.468 117.48 186.035C116.887 186.084 116.887 186.084 116.198 186.09C115.972 186.094 115.746 186.098 115.514 186.103C114.765 186.027 114.309 185.843 113.671 185.449C112.726 184.268 112.708 183.417 112.792 181.934C112.975 180.954 113.225 179.996 113.481 179.034C113.555 178.75 113.628 178.467 113.704 178.175C113.947 177.242 114.193 176.31 114.44 175.378C114.611 174.727 114.782 174.076 114.953 173.425C117.035 165.53 119.151 157.605 121.684 149.84C121.924 149.056 121.924 149.056 121.874 147.949C114.399 147.949 107.142 150.833 101.66 155.859Z" fill="black"/>
</svg>
