<svg width="300" height="300" viewBox="0 0 300 300" fill="none" xmlns="http://www.w3.org/2000/svg">
<path d="M135.644 85.8399C136.429 86.1523 137.123 86.4676 137.86 86.8653C138.165 87.0246 138.165 87.0246 138.476 87.1871C139.097 87.5143 139.715 87.8481 140.332 88.1837C140.513 88.2807 140.694 88.3776 140.881 88.4775C144.819 90.5913 148.363 93.1939 151.757 96.0939C151.973 96.277 152.189 96.4602 152.412 96.6489C156.183 99.9449 159.862 103.525 162.89 107.52C163.186 107.895 163.482 108.271 163.778 108.646C173.111 120.538 179.016 134.104 182.226 148.828C182.4 148.676 182.574 148.524 182.754 148.367C186.2 145.468 190.34 143.877 194.911 144.058C202.529 144.851 208.984 148.414 213.879 154.324C220.141 162.239 222.711 172.612 221.581 182.568C220.633 189.624 217.827 196.375 213.281 201.856C213.07 202.111 212.859 202.366 212.642 202.629C207.07 209.094 198.877 213.05 190.429 213.867C181.202 214.526 171.568 211.495 164.524 205.45C164.275 205.231 164.026 205.011 163.769 204.785C163.526 204.581 163.283 204.377 163.032 204.166C156.839 198.839 152.34 191.166 150.879 183.106C150.814 183.362 150.75 183.618 150.684 183.881C147.907 194.651 142.832 203.326 133.007 209.18C128.672 211.654 124.165 213.115 119.238 213.867C118.975 213.91 118.713 213.952 118.443 213.995C109.678 215.103 100.044 212.398 92.9902 207.14C92.2525 206.567 91.5345 205.973 90.8199 205.371C90.6168 205.209 90.4136 205.046 90.2042 204.879C88.8872 203.806 87.7909 202.584 86.7184 201.27C86.4153 200.905 86.4153 200.905 86.1061 200.534C79.8633 192.667 77.6285 182.995 78.6526 173.109C79.5528 165.988 82.5904 159.488 87.3043 154.102C87.4958 153.881 87.6873 153.66 87.8845 153.432C92.6632 148.307 99.5433 145.411 106.455 144.954C111.26 144.829 115.558 146.065 119.824 148.242C119.836 148.033 119.849 147.824 119.862 147.608C120.021 145.323 120.379 143.135 120.868 140.9C120.945 140.545 121.022 140.191 121.101 139.826C124.461 124.824 130.626 110.568 139.64 98.1099C140.265 97.2454 140.884 96.3764 141.504 95.5079C141.34 95.4272 141.177 95.3465 141.009 95.2634C139.708 94.6075 138.428 93.9106 137.146 93.2191C136.858 93.0663 136.571 92.9136 136.275 92.7562C132.38 90.651 132.38 90.651 131.817 89.0626C131.839 88.0055 132.081 87.5554 132.714 86.7189C132.835 86.5436 132.956 86.3684 133.081 86.1878C133.924 85.6153 134.645 85.7642 135.644 85.8399ZM145.898 99.0235C145.35 99.6644 144.843 100.306 144.342 100.983C144.186 101.193 144.03 101.403 143.87 101.619C134.515 114.458 128.776 129.608 125.848 145.129C125.809 145.334 125.771 145.539 125.731 145.75C125.226 148.296 125.226 148.296 125.097 150.879C125.434 150.887 125.77 150.894 126.117 150.902C132.955 151.122 138.182 153.789 142.943 158.692C143.955 159.823 144.796 161.023 145.605 162.305C145.795 162.602 145.985 162.9 146.181 163.207C147.765 165.821 148.811 168.533 149.782 171.427C150.011 172.055 150.011 172.055 150.586 172.852C150.636 172.609 150.636 172.609 150.687 172.361C152.183 165.307 154.772 158.554 160.821 154.138C161.309 153.823 161.804 153.518 162.304 153.223C162.568 153.067 162.832 152.911 163.104 152.75C167.334 150.45 171.642 150.097 176.367 150C175.349 135.87 167.006 121.498 158.203 110.742C158.071 110.58 157.94 110.418 157.804 110.251C154.558 106.272 150.844 101.807 146.484 99.0235C146.291 99.0235 146.097 99.0235 145.898 99.0235ZM185.101 153.699C184.819 154.035 184.819 154.035 184.531 154.377C183.502 155.511 182.513 156.087 180.963 156.262C180.117 156.176 179.362 156.044 178.538 155.859C173.969 154.934 169.1 155.256 165.033 157.636C160.084 161.07 157.408 165.777 156.216 171.632C154.995 179.684 157.017 188.112 161.784 194.736C162.506 195.677 163.281 196.569 164.062 197.461C164.26 197.713 164.459 197.964 164.663 198.223C169.439 204.099 177.46 207.361 184.794 208.181C192.218 208.836 199.599 206.747 205.381 202.01C211.741 196.589 215.41 188.743 216.211 180.469C216.813 172.026 214.415 163.523 208.886 157.031C205.143 152.729 200.471 150.168 194.756 149.648C190.996 149.558 187.564 150.825 185.101 153.699ZM90.527 158.789C85.1544 165.33 83.5656 173.632 84.1629 181.884C84.8481 187.595 87.194 193.01 90.8199 197.461C91.1117 197.825 91.1117 197.825 91.4093 198.196C94.9463 202.367 99.5035 205.193 104.644 206.946C104.849 207.016 105.054 207.086 105.266 207.158C108.236 208.107 111.224 208.409 114.331 208.392C114.65 208.391 114.97 208.389 115.299 208.387C122.871 208.274 130.045 205.515 135.644 200.391C135.912 200.151 136.179 199.91 136.454 199.663C141.917 194.505 144.948 187.45 145.305 179.974C145.488 172.895 142.864 166.497 138.016 161.357C135.128 158.382 131.749 156.468 127.543 156.307C125.342 156.28 123.505 156.501 121.458 157.39C120.504 157.677 119.897 157.6 118.945 157.324C118.324 156.393 118.319 156.213 118.322 155.164C118.245 154.353 118.198 153.947 117.63 153.352C117.011 152.954 116.394 152.643 115.722 152.344C115.493 152.236 115.265 152.128 115.029 152.017C106.228 148.164 96.5872 151.921 90.527 158.789Z" fill="black"/>
<path d="M87.5977 153.809C87.6943 154.099 87.791 154.389 87.8906 154.688C87.2139 155.364 86.5371 156.041 85.8398 156.738C85.8398 155.687 86.0345 155.535 86.7188 154.779C86.8819 154.597 87.045 154.414 87.2131 154.226C87.34 154.088 87.4669 153.951 87.5977 153.809Z" fill="black"/>
</svg>
