<svg width="300" height="300" viewBox="0 0 300 300" fill="none" xmlns="http://www.w3.org/2000/svg">
<path d="M180.597 78.2411C181.734 78.5404 182.143 78.7341 182.813 79.6876C183.142 80.5836 183.22 81.1769 182.841 82.0664C182.428 82.7982 181.987 83.5043 181.531 84.2104C181.205 84.7329 180.88 85.2556 180.554 85.7782C180.391 86.0358 180.228 86.2935 180.06 86.559C179.398 87.6096 178.761 88.6738 178.125 89.7401C177.926 90.0713 177.727 90.4025 177.521 90.7438C176.93 91.7397 176.354 92.7429 175.782 93.7501C176.042 93.8541 176.042 93.8541 176.307 93.9601C176.823 94.1666 177.339 94.3732 177.855 94.5798C178.406 94.7999 178.957 95.0189 179.508 95.2367C187.494 98.399 194.539 102.413 200.977 108.106C201.245 108.338 201.514 108.571 201.791 108.811C203.31 110.145 204.678 111.521 205.957 113.086C206.084 113.238 206.21 113.39 206.34 113.546C211.035 119.208 214.747 125.251 217.383 132.129C217.465 132.343 217.547 132.556 217.632 132.776C223.712 148.971 221.57 167.064 214.783 182.684C208.339 196.804 197.437 208.666 183.691 215.86C183.464 215.979 183.237 216.099 183.003 216.222C182.452 216.512 181.9 216.801 181.348 217.09C181.539 217.09 181.729 217.091 181.926 217.091C186.564 217.102 191.203 217.119 195.841 217.144C198.084 217.156 200.327 217.165 202.57 217.169C204.525 217.173 206.48 217.181 208.435 217.194C209.47 217.201 210.505 217.205 211.541 217.205C212.696 217.205 213.851 217.213 215.007 217.223C215.35 217.222 215.694 217.22 216.048 217.219C216.363 217.223 216.677 217.227 217.002 217.231C217.275 217.232 217.548 217.233 217.83 217.234C218.784 217.43 219.135 217.794 219.727 218.555C219.873 219.58 219.873 219.58 219.727 220.606C219.18 221.298 218.754 221.678 217.969 222.07C217.242 222.1 216.523 222.111 215.796 222.11C215.455 222.111 215.455 222.111 215.106 222.112C214.335 222.114 213.564 222.114 212.792 222.114C212.237 222.115 211.682 222.116 211.126 222.117C209.594 222.12 208.062 222.121 206.529 222.122C204.879 222.123 203.229 222.126 201.579 222.128C197.59 222.134 193.602 222.137 189.614 222.14C187.738 222.141 185.861 222.142 183.985 222.144C177.751 222.149 171.517 222.153 165.283 222.155C164.88 222.155 164.477 222.156 164.073 222.156C163.873 222.156 163.673 222.156 163.467 222.156C162.454 222.156 161.441 222.157 160.427 222.157C160.226 222.157 160.025 222.157 159.818 222.157C153.296 222.159 146.774 222.166 140.251 222.176C133.359 222.186 126.466 222.192 119.574 222.193C115.815 222.193 112.057 222.196 108.299 222.203C105.099 222.21 101.899 222.212 98.6988 222.209C97.0651 222.208 95.4315 222.208 93.7978 222.214C92.3035 222.219 90.8092 222.219 89.3149 222.214C88.7731 222.214 88.2313 222.215 87.6896 222.218C86.9552 222.223 86.2212 222.22 85.4868 222.215C85.2746 222.218 85.0624 222.221 84.8438 222.225C83.4401 222.205 82.7193 221.901 81.7387 220.899C81.4457 220.184 81.4457 220.184 81.4457 219.434C81.9208 218.412 82.2556 218.015 83.2035 217.383C83.9248 217.306 83.9248 217.306 84.7996 217.301C85.2969 217.296 85.2969 217.296 85.8042 217.291C86.1682 217.291 86.5321 217.29 86.9071 217.29C87.2901 217.287 87.6731 217.284 88.0678 217.281C89.1185 217.273 90.1692 217.268 91.2199 217.264C92.3179 217.26 93.4158 217.252 94.5137 217.244C96.593 217.231 98.6723 217.22 100.752 217.21C103.119 217.199 105.486 217.185 107.853 217.17C112.722 217.14 117.592 217.113 122.461 217.09C122.139 216.929 121.816 216.767 121.484 216.601C121.057 216.388 120.63 216.174 120.203 215.961C119.991 215.855 119.778 215.749 119.56 215.639C112.308 212.014 105.762 207.796 99.9027 202.149C99.7254 201.978 99.5481 201.807 99.3654 201.631C97.0433 199.379 94.8509 197.096 92.8715 194.531C92.6381 194.241 92.4047 193.951 92.1643 193.651C82.7993 181.918 77.4769 166.871 79.0343 151.817C80.9518 135.581 90.2163 120.86 102.704 110.504C103.233 110.092 103.764 109.684 104.297 109.277C104.666 108.985 105.035 108.692 105.404 108.399C119.589 97.2039 137.195 90.7726 155.274 90.7289C155.591 90.7273 155.591 90.7273 155.915 90.7256C160.149 90.7144 164.271 91.1599 168.422 92.0015C169.234 92.163 169.97 92.2853 170.801 92.2853C171.254 91.6536 171.639 91.0413 172.022 90.3684C172.139 90.1694 172.256 89.9703 172.376 89.7652C172.751 89.1238 173.122 88.48 173.493 87.8358C173.737 87.4162 173.981 86.9968 174.226 86.5776C174.588 85.9562 174.951 85.3349 175.313 84.7131C176.086 83.3865 176.866 82.0648 177.664 80.7531C177.936 80.3048 177.936 80.3048 178.214 79.8475C179.301 78.2175 179.301 78.2175 180.597 78.2411ZM102.246 117.188C102.076 117.349 101.905 117.51 101.73 117.676C92.9867 125.984 86.2773 136.867 84.0824 148.828C84.0167 149.182 83.951 149.535 83.8833 149.899C83.021 155.522 83.1463 161.439 84.3754 166.992C84.4241 167.217 84.4728 167.442 84.523 167.673C86.6971 177.402 91.7802 186.065 98.1449 193.652C98.3066 193.858 98.4682 194.063 98.6347 194.275C104.443 200.982 119.098 202.871 127.362 203.56C129.334 203.669 131.307 203.679 133.281 203.684C134.043 203.687 134.805 203.696 135.568 203.705C139.837 203.732 144.025 203.316 148.096 201.947C148.324 201.872 148.552 201.797 148.787 201.72C155.259 199.531 161.091 196.163 166.407 191.895C166.573 191.762 166.74 191.629 166.912 191.492C170.637 188.503 174.053 185.147 176.954 181.348C177.074 181.192 177.195 181.037 177.32 180.876C185.395 170.452 191.294 157.167 191.369 143.816C191.371 143.569 191.373 143.323 191.375 143.069C191.38 142.279 191.382 141.489 191.382 140.698C191.382 140.429 191.383 140.159 191.383 139.881C191.378 135.962 191.273 132.162 190.43 128.32C190.381 128.083 190.333 127.846 190.282 127.601C188.523 119.16 184.7 111.285 178.779 104.996C178.245 104.425 177.752 103.845 177.265 103.235C176.289 102.082 175.122 101.169 173.939 100.237C173.472 99.8681 173.012 99.4902 172.57 99.0923C154.495 83.4635 115.863 104.247 102.246 117.188ZM182.52 101.953C183.284 103.121 184.083 104.236 184.937 105.341C194.367 117.889 197.365 134.244 195.387 149.631C195.156 151.135 194.865 152.618 194.532 154.102C194.462 154.412 194.393 154.721 194.322 155.041C191.312 168.061 184.719 179.921 175.489 189.551C175.341 189.706 175.194 189.861 175.043 190.021C172.724 192.455 170.274 194.578 167.579 196.582C167.415 196.706 167.252 196.83 167.083 196.958C157.342 204.354 146.107 208.147 133.924 208.1C133.484 208.099 133.484 208.099 133.035 208.098C126.712 208.076 120.869 207.4 114.712 205.926C114.394 205.85 114.076 205.774 113.748 205.696C113.464 205.627 113.181 205.557 112.889 205.485C112.203 205.302 112.203 205.302 111.621 205.664C114.349 207.577 117.09 209.251 120.111 210.659C120.678 210.926 121.239 211.202 121.801 211.48C124.913 212.978 128.162 214.061 131.434 215.149C131.667 215.227 131.9 215.304 132.141 215.384C132.818 215.609 133.495 215.831 134.173 216.053C134.375 216.12 134.577 216.186 134.785 216.254C137.099 217.004 139.171 217.471 141.605 217.473C141.868 217.475 142.132 217.478 142.403 217.48C143.268 217.487 144.134 217.49 144.999 217.492C145.607 217.494 146.215 217.497 146.823 217.5C148.098 217.505 149.372 217.507 150.646 217.508C152.264 217.509 153.883 217.52 155.501 217.534C156.758 217.542 158.015 217.544 159.272 217.545C159.868 217.546 160.464 217.55 161.059 217.556C164.934 217.593 168.305 217.193 171.973 215.918C172.318 215.799 172.662 215.679 173.017 215.556C173.881 215.245 174.731 214.911 175.58 214.563C176.042 214.375 176.042 214.375 176.514 214.184C183.135 211.435 188.896 207.789 194.239 203.027C194.472 202.822 194.472 202.822 194.709 202.612C196.532 200.996 198.266 199.355 199.805 197.461C199.93 197.31 200.056 197.159 200.185 197.004C203.556 192.939 206.43 188.659 208.887 183.985C208.995 183.779 209.104 183.574 209.215 183.363C212.411 177.219 214.396 170.567 215.625 163.77C215.662 163.569 215.698 163.369 215.736 163.163C216.446 159.131 216.609 154.966 216.504 150.879C216.496 150.507 216.488 150.136 216.479 149.753C215.988 135.219 208.54 121.681 198.175 111.786C194.739 108.659 187.311 101.953 182.52 101.953Z" fill="black"/>
<path d="M171.315 108.197C171.737 108.549 172.152 108.91 172.56 109.277C172.819 109.508 173.077 109.74 173.343 109.978C179.011 115.332 182.238 123.634 182.564 131.382C182.57 132.326 182.576 133.269 182.576 134.213C182.576 134.814 182.582 135.415 182.587 136.016C182.616 142.178 182.616 142.178 181.362 143.635C180.725 144.173 180.419 144.383 179.592 144.434C178.65 144.204 178.232 143.981 177.628 143.217C177.131 142.126 177.275 141.525 177.486 140.35C178.759 132.064 177.477 123.314 172.579 116.364C168.563 111.097 162.902 108.554 156.431 107.615C141.211 105.934 125.955 112.534 114.26 121.875C110.875 124.63 107.883 127.52 105.178 130.957C104.963 131.225 104.749 131.493 104.528 131.77C99.2721 138.524 95.2311 147.109 96.0956 155.859C96.8606 160.854 98.9966 164.817 102.889 168.073C106.154 170.465 109.764 171.697 113.674 172.559C113.994 172.631 113.994 172.631 114.32 172.705C121.924 174.335 131.058 174.164 138.576 172.266C138.801 172.211 139.026 172.156 139.257 172.099C145.065 170.608 150.619 167.365 155.409 163.823C156.468 163.066 157.14 162.628 158.443 162.415C159.377 162.598 159.377 162.598 160.091 163.055C160.757 164.094 160.795 164.607 160.549 165.82C159.097 167.463 157.151 168.614 155.294 169.739C155.024 169.903 154.755 170.067 154.477 170.237C146.723 174.924 138.38 178.412 129.166 178.488C128.882 178.491 128.598 178.494 128.305 178.496C116.311 178.593 116.311 178.593 111.33 177.246C111.091 177.182 110.852 177.117 110.606 177.051C103.915 175.17 97.8173 171.697 94.2462 165.546C90.5739 158.963 90.4876 151.767 92.4335 144.635C94.5898 137.236 98.83 130.764 104.019 125.139C104.483 124.631 104.917 124.117 105.342 123.578C106.086 122.72 106.873 122.01 107.737 121.278C108.195 120.881 108.643 120.473 109.082 120.055C112.723 116.604 116.909 113.755 121.291 111.328C121.537 111.191 121.784 111.054 122.038 110.913C125.971 108.746 129.928 106.911 134.182 105.469C134.54 105.345 134.54 105.345 134.905 105.22C146.565 101.265 160.96 100.513 171.315 108.197Z" fill="black"/>
<path d="M94.2322 177.564C95.5138 177.914 96.5539 178.517 97.7043 179.169C105.689 183.509 114.547 185.288 123.577 185.248C123.811 185.248 124.044 185.248 124.285 185.247C129.624 185.235 134.821 184.647 140.093 183.816C142.615 183.436 142.615 183.436 143.829 184.314C144.433 185.156 144.433 185.156 144.598 186.054C144.393 187.125 144.134 187.443 143.261 188.086C141.989 188.577 140.775 188.809 139.425 188.975C139.131 189.012 139.131 189.012 138.831 189.05C138.418 189.101 138.004 189.151 137.59 189.201C136.972 189.275 136.354 189.352 135.735 189.43C121.276 191.223 105.511 190.426 93.0466 182.029C92.292 181.405 92.0095 180.881 91.8633 179.92C91.9915 179.004 91.9915 179.004 92.614 178.144C93.4563 177.539 93.4563 177.539 94.2322 177.564Z" fill="black"/>
<path d="M199.512 163.77C199.802 163.915 199.802 163.915 200.098 164.062C200.529 165.531 200.244 166.647 199.763 168.052C199.694 168.265 199.624 168.477 199.552 168.696C199.324 169.387 199.089 170.076 198.853 170.764C198.773 171 198.693 171.235 198.611 171.478C193.377 186.904 183.654 201.431 168.768 208.96C162.533 212.008 155.963 213.475 149.121 214.453C148.903 214.485 148.686 214.517 148.462 214.549C146.529 214.799 144.603 214.779 142.657 214.764C142.32 214.763 141.983 214.762 141.635 214.76C140.81 214.757 139.985 214.752 139.16 214.746C139.16 214.553 139.16 214.359 139.16 214.16C139.492 214.098 139.823 214.037 140.165 213.973C148.844 212.422 148.844 212.422 157.324 210.059C157.673 209.942 157.673 209.942 158.029 209.822C174.845 204.102 186.111 191.964 193.913 176.282C195.488 173.037 196.876 169.706 198.261 166.378C198.648 165.492 199.072 164.631 199.512 163.77Z" fill="black"/>
<path d="M146.191 113.086C146.283 113.91 146.283 113.91 146.191 114.844C144.959 115.823 143.491 116.09 141.998 116.474C134.789 118.441 128.096 121.732 122.168 126.27C121.754 126.585 121.754 126.585 121.333 126.906C118.428 129.2 115.593 131.807 113.544 134.909C113.086 135.352 113.086 135.352 112.335 135.456C111.621 135.352 111.621 135.352 111.035 134.766C111.035 131.535 113.81 129.176 115.901 126.99C116.276 126.597 116.645 126.199 117.014 125.8C120.257 122.395 124.167 119.922 128.32 117.774C128.497 117.682 128.673 117.589 128.855 117.495C132.975 115.377 137.412 113.931 141.925 112.921C142.152 112.868 142.379 112.815 142.613 112.761C143.986 112.478 144.869 112.501 146.191 113.086Z" fill="black"/>
<path d="M197.461 118.652C197.654 118.652 197.848 118.652 198.047 118.652C198.477 119.26 198.861 119.861 199.237 120.502C199.411 120.796 199.411 120.796 199.588 121.097C204.604 129.77 207.649 139.925 207.806 149.963C207.812 150.192 207.817 150.421 207.822 150.656C207.821 151.298 207.821 151.298 207.715 152.344C206.836 152.93 206.836 152.93 205.957 152.948C205.078 152.637 205.078 152.637 204.599 151.736C204.157 150.603 204.023 149.482 203.952 148.274C203.936 148.058 203.92 147.842 203.904 147.619C203.871 147.16 203.839 146.701 203.808 146.242C203.727 145.047 203.632 143.852 203.537 142.657C203.518 142.425 203.5 142.193 203.481 141.953C202.896 134.691 201.322 126.808 197.985 120.282C197.461 119.238 197.461 119.238 197.461 118.652Z" fill="black"/>
</svg>
