<svg width="300" height="300" viewBox="0 0 300 300" fill="none" xmlns="http://www.w3.org/2000/svg">
<path d="M131.95 88.4276C132.285 88.4243 132.62 88.4209 132.966 88.4174C133.335 88.4153 133.705 88.4131 134.085 88.4109C134.477 88.4076 134.869 88.4042 135.261 88.4008C136.549 88.39 137.838 88.3827 139.126 88.376C139.455 88.3742 139.455 88.3742 139.791 88.3725C141.86 88.3618 143.929 88.3526 145.998 88.3464C148.643 88.3383 151.288 88.3234 153.932 88.2993C155.793 88.283 157.653 88.2745 159.514 88.2718C160.624 88.27 161.735 88.2647 162.845 88.2509C163.891 88.2381 164.937 88.235 165.983 88.2394C166.548 88.2392 167.112 88.2289 167.676 88.2183C169.411 88.2348 170.535 88.3088 171.877 89.4688C172.21 89.8142 172.536 90.1665 172.852 90.5275C173.112 90.7812 173.372 91.035 173.639 91.2965C173.863 91.5261 174.087 91.7557 174.317 91.9923C175.355 93.0428 176.419 94.0281 177.541 94.9872C178.202 95.5761 178.822 96.1959 179.444 96.8263C180.237 97.6305 181.038 98.4003 181.898 99.1334C183.036 100.108 184.084 101.164 185.135 102.23C186.092 103.195 187.084 104.096 188.117 104.978C188.927 105.694 189.674 106.467 190.431 107.237C190.993 107.79 191.572 108.307 192.17 108.82C193.286 109.779 194.312 110.811 195.345 111.858C196.122 112.623 196.938 113.33 197.765 114.039C198.579 114.763 199.333 115.541 200.097 116.317C200.855 117.063 201.655 117.75 202.461 118.443C203.193 119.092 203.872 119.786 204.557 120.484C205.103 121.02 205.67 121.522 206.251 122.022C209.215 124.582 209.215 124.582 209.766 125.684C209.797 126.22 209.81 126.757 209.813 127.294C209.816 127.632 209.819 127.97 209.822 128.317C209.824 128.869 209.824 128.869 209.826 129.432C209.827 129.811 209.829 130.189 209.831 130.58C209.834 131.385 209.836 132.191 209.837 132.997C209.838 134.016 209.845 135.036 209.854 136.056C209.86 137.04 209.861 138.024 209.862 139.008C209.866 139.368 209.87 139.728 209.873 140.099C209.865 143.549 209.457 147.062 207.77 150.128C207.615 150.423 207.615 150.423 207.456 150.724C206.687 152.151 205.874 153.479 204.786 154.688C204.579 154.921 204.373 155.154 204.16 155.395C200.382 159.422 195.245 161.78 189.723 162.063C188.605 162.079 187.489 162.078 186.371 162.069C185.962 162.068 185.553 162.067 185.143 162.067C184.078 162.064 183.012 162.059 181.946 162.052C180.854 162.046 179.762 162.043 178.67 162.04C176.535 162.034 174.401 162.024 172.266 162.012C172.267 162.389 172.267 162.389 172.268 162.773C172.281 168.884 172.29 174.994 172.297 181.104C172.3 184.058 172.304 187.013 172.31 189.968C172.316 192.543 172.32 195.117 172.321 197.692C172.322 199.056 172.324 200.42 172.328 201.784C172.332 203.067 172.333 204.35 172.332 205.632C172.333 206.104 172.334 206.576 172.336 207.047C172.339 207.69 172.338 208.332 172.337 208.975C172.337 209.514 172.337 209.514 172.338 210.065C172.266 210.938 172.266 210.938 171.68 211.817C170.932 211.925 170.932 211.925 169.966 211.924C169.418 211.927 169.418 211.927 168.859 211.929C168.452 211.926 168.045 211.924 167.638 211.921C167.211 211.921 166.785 211.922 166.358 211.923C165.197 211.924 164.036 211.92 162.875 211.915C161.662 211.911 160.449 211.911 159.237 211.911C157.2 211.91 155.164 211.906 153.127 211.899C150.51 211.89 147.892 211.887 145.275 211.886C143.028 211.885 140.782 211.881 138.536 211.877C137.812 211.876 137.088 211.875 136.364 211.874C135.228 211.873 134.092 211.87 132.957 211.866C132.539 211.864 132.121 211.864 131.703 211.863C131.135 211.863 130.566 211.86 129.998 211.858C129.68 211.857 129.361 211.856 129.032 211.855C128.321 211.817 128.321 211.817 128.028 211.524C127.999 210.886 127.992 210.247 127.993 209.609C127.992 209.406 127.992 209.204 127.992 208.995C127.991 208.312 127.993 207.629 127.995 206.945C127.995 206.457 127.995 205.97 127.994 205.482C127.994 204.153 127.996 202.825 127.998 201.496C128 200.109 128 198.722 128.001 197.335C128.001 194.707 128.004 192.079 128.007 189.451C128.01 186.46 128.012 183.468 128.013 180.477C128.016 174.322 128.021 168.167 128.028 162.012C127.658 162.011 127.658 162.011 127.281 162.011C124.937 162.005 122.593 161.993 120.249 161.973C119.045 161.963 117.84 161.956 116.636 161.955C115.469 161.953 114.303 161.945 113.137 161.932C112.696 161.928 112.255 161.927 111.814 161.928C105.928 161.942 100.552 160.019 96.3071 155.829C92.0007 151.257 90.3479 146.053 90.3207 139.868C90.3162 139.447 90.3116 139.026 90.3068 138.605C90.2986 137.732 90.2951 136.859 90.2946 135.986C90.2931 134.873 90.2739 133.762 90.2506 132.65C90.2353 131.784 90.2321 130.919 90.2321 130.053C90.2302 129.643 90.224 129.233 90.2133 128.823C90.1374 125.662 90.1374 125.662 91.093 124.281C91.7523 123.613 92.4229 123.034 93.1646 122.461C93.5645 122.11 93.9631 121.758 94.3594 121.404C94.5503 121.24 94.7412 121.075 94.9379 120.906C95.9105 120.061 96.8423 119.172 97.7789 118.286C99.7416 116.438 101.72 114.61 103.711 112.793C105.625 111.045 107.531 109.29 109.424 107.52C111.317 105.749 113.224 103.994 115.137 102.246C115.723 101.709 116.309 101.172 116.895 100.635C117.763 99.8389 118.631 99.0432 119.501 98.2488C121.137 96.7524 122.765 95.2467 124.384 93.7318C125.722 92.4814 127.061 91.2327 128.412 89.9965C128.665 89.7649 128.918 89.5334 129.178 89.2949C130.14 88.4631 130.699 88.4379 131.95 88.4276ZM129.2 94.0431C128.976 94.2481 128.753 94.4531 128.523 94.6644C128.345 94.8332 128.168 95.0021 127.984 95.176C127.782 95.3674 127.58 95.5587 127.372 95.7558C127.165 95.952 126.959 96.1481 126.746 96.3502C125.196 97.8161 123.636 99.2667 122.044 100.686C120.874 101.742 119.726 102.821 118.576 103.898C117.233 105.155 115.883 106.405 114.53 107.651C113.668 108.445 112.81 109.242 111.955 110.043C111.762 110.223 111.569 110.404 111.371 110.59C111.003 110.935 110.634 111.28 110.267 111.626C109.372 112.465 108.468 113.286 107.542 114.09C106.294 115.175 105.093 116.305 103.895 117.444C102.254 118.997 100.603 120.531 98.9038 122.02C98.6732 122.239 98.6732 122.239 98.438 122.461C98.438 122.558 98.438 122.654 98.438 122.754C132.469 122.754 166.501 122.754 201.563 122.754C199.913 120.83 198.267 119.036 196.345 117.389C195.352 116.536 194.425 115.629 193.506 114.697C192.419 113.595 191.304 112.55 190.126 111.546C189.231 110.751 188.404 109.89 187.563 109.038C186.98 108.463 186.383 107.924 185.761 107.391C184.831 106.595 183.966 105.754 183.106 104.883C182.264 104.03 181.419 103.206 180.506 102.429C179.464 101.539 178.502 100.584 177.54 99.6095C176.431 98.4876 175.325 97.3993 174.089 96.4154C173.438 95.8009 173.438 95.8009 172.792 94.8815C171.709 93.4159 170.587 92.2404 168.778 91.7717C166.407 91.4465 164.017 91.4933 161.63 91.5386C160.58 91.5549 159.53 91.551 158.48 91.5499C156.719 91.551 154.959 91.5668 153.199 91.5923C151.168 91.6216 149.139 91.6303 147.108 91.6274C145.146 91.6248 143.184 91.634 141.222 91.6494C140.391 91.6559 139.56 91.6589 138.728 91.6591C137.567 91.6602 136.406 91.6787 135.245 91.699C134.904 91.6977 134.562 91.6963 134.21 91.6948C131.885 91.7556 130.748 92.3214 129.2 94.0431ZM94.0435 126.563C92.1397 138.141 92.1397 138.141 95.2154 147.656C95.7972 147.685 96.3801 147.693 96.9626 147.692C97.3449 147.693 97.7271 147.694 98.121 147.694C98.5508 147.693 98.9805 147.692 99.4103 147.692C99.8625 147.692 100.315 147.692 100.767 147.692C102.016 147.693 103.264 147.692 104.513 147.69C105.857 147.689 107.201 147.69 108.545 147.69C110.876 147.69 113.207 147.689 115.538 147.687C118.909 147.685 122.279 147.684 125.649 147.684C131.116 147.683 136.584 147.681 142.051 147.678C147.363 147.676 152.676 147.674 157.988 147.672C158.479 147.672 158.479 147.672 158.98 147.672C160.621 147.672 162.263 147.671 163.904 147.671C177.531 147.668 191.159 147.663 204.786 147.656C208.222 141.083 205.958 135.045 205.958 126.563C169.026 126.563 132.094 126.563 94.0435 126.563ZM97.5591 151.465C99.0142 154.478 102.163 156.24 105.212 157.36C108.218 158.278 111.355 158.276 114.467 158.196C114.861 158.189 115.256 158.181 115.651 158.174C116.675 158.155 117.699 158.132 118.723 158.108C119.774 158.084 120.825 158.064 121.876 158.043C123.926 158.002 125.977 157.958 128.028 157.91C128.036 156.891 128.042 155.872 128.046 154.852C128.05 154.416 128.05 154.416 128.054 153.971C128.055 153.556 128.055 153.556 128.056 153.132C128.059 152.748 128.059 152.748 128.061 152.356C128.095 151.76 128.095 151.76 127.735 151.465C127.342 151.437 126.948 151.429 126.554 151.43C126.3 151.429 126.045 151.429 125.783 151.429C125.362 151.43 125.362 151.43 124.932 151.432C124.637 151.432 124.343 151.432 124.04 151.432C123.062 151.432 122.083 151.434 121.105 151.436C120.429 151.437 119.753 151.437 119.077 151.438C117.293 151.439 115.51 151.442 113.726 151.445C111.908 151.448 110.09 151.449 108.271 151.451C104.701 151.454 101.13 151.459 97.5591 151.465ZM131.836 151.465C131.157 153.503 131.724 155.765 131.836 157.91C143.825 157.91 155.813 157.91 168.165 157.91C168.643 156.953 168.499 155.903 168.494 154.852C168.495 154.625 168.496 154.397 168.498 154.163C168.496 153.19 168.474 152.394 168.165 151.465C156.176 151.465 144.188 151.465 131.836 151.465ZM172.266 151.465C172.266 153.592 172.266 155.719 172.266 157.91C174.566 158.123 176.833 158.25 179.142 158.252C179.447 158.253 179.752 158.254 180.067 158.255C180.707 158.257 181.347 158.258 181.987 158.258C182.957 158.258 183.927 158.264 184.897 158.269C185.524 158.27 186.151 158.27 186.777 158.271C187.062 158.273 187.347 158.275 187.64 158.277C192.229 158.262 196.4 157.178 200.098 154.395C200.37 154.201 200.642 154.008 200.922 153.809C201.743 153.106 201.743 153.106 202.735 151.465C192.68 151.465 182.626 151.465 172.266 151.465ZM131.836 161.719C131.836 177.091 131.836 192.463 131.836 208.301C144.044 208.301 156.252 208.202 168.458 208.008C168.458 192.829 168.458 177.651 168.458 162.012C156.373 161.915 144.288 161.818 131.836 161.719Z" fill="black"/>
</svg>
