<svg width="300" height="300" viewBox="0 0 300 300" fill="none" xmlns="http://www.w3.org/2000/svg">
<path d="M178.418 93.1639C178.671 93.3599 178.923 93.5559 179.184 93.7579C180.706 94.9537 182.157 96.2131 183.587 97.5172C184.183 98.0585 184.785 98.5888 185.394 99.1148C188.631 101.944 191.7 104.935 194.735 107.978C195.378 108.622 196.022 109.265 196.667 109.908C197.083 110.325 197.5 110.742 197.916 111.159C198.105 111.347 198.294 111.535 198.489 111.729C199.767 113.013 200.966 114.35 202.148 115.723C202.426 116.037 202.705 116.35 202.984 116.663C210.442 125.125 216.392 134.848 215.918 146.484C215.518 151.257 214.074 155.539 210.553 158.88C206.232 162.488 200.804 162.707 195.433 162.228C190.494 161.697 185.694 160.561 180.88 159.374C180.646 159.317 180.411 159.259 180.169 159.2C179.726 159.09 179.283 158.98 178.841 158.868C177.992 158.657 177.246 158.496 176.367 158.496C176.849 162.359 177.6 166.151 178.4 169.958C179.287 174.187 180.086 178.409 180.666 182.693C180.747 183.291 180.838 183.887 180.931 184.483C181.575 189.814 181.508 195.848 179.883 200.976C179.818 201.183 179.754 201.389 179.688 201.601C178.015 206.793 175.246 211.475 170.416 214.257C164.107 217.441 156.166 217.196 149.289 217.182C148.331 217.181 147.373 217.188 146.415 217.196C139.751 217.216 133.282 216.756 127.734 212.695C127.531 212.549 127.327 212.403 127.117 212.252C122.231 208.381 119.768 201.723 119.039 195.729C118.274 187.005 119.917 178.162 121.582 169.629C121.624 169.414 121.666 169.199 121.709 168.978C122.201 166.455 122.699 163.934 123.207 161.415C123.32 160.856 123.32 160.856 123.434 160.286C123.633 159.375 123.633 159.375 123.926 158.496C123.696 158.537 123.466 158.579 123.229 158.621C100.225 162.734 100.225 162.734 91.5344 156.813C87.8915 154.053 85.5052 150.282 84.5134 145.804C83.5209 138.078 85.4726 130.756 90.2091 124.536C91.9662 122.305 93.8619 120.214 95.8126 118.153C99.0563 114.72 101.823 110.96 104.279 106.933C106.519 103.279 109.246 100.061 112.207 96.9725C112.356 96.8157 112.505 96.659 112.658 96.4974C129.966 78.3418 159.047 77.8913 178.418 93.1639ZM115.264 102.505C113.606 104.358 112.15 106.351 110.742 108.398C110.629 108.563 110.515 108.728 110.398 108.898C105.809 115.637 100.104 124.945 101.55 133.447C102.076 135.541 103.279 136.913 105.066 138.08C114.937 143.387 131.351 138.125 141.72 136.396C155.21 134.158 155.21 134.158 161.839 134.12C162.086 134.118 162.332 134.116 162.587 134.114C163.378 134.109 164.169 134.107 164.96 134.106C165.367 134.106 165.367 134.106 165.783 134.105C172.352 134.11 178.754 134.709 185.156 136.23C185.406 136.289 185.656 136.347 185.914 136.407C194.533 138.465 202.682 141.773 208.887 148.242C210.12 147.009 209.844 144.814 209.857 143.152C209.857 134.664 205.143 127.347 199.35 121.443C198.886 120.954 198.45 120.448 198.012 119.936C196.816 118.565 195.545 117.28 194.258 115.996C194.013 115.751 193.767 115.505 193.515 115.252C192.999 114.737 192.484 114.221 191.967 113.706C191.183 112.923 190.4 112.139 189.617 111.354C189.113 110.85 188.609 110.347 188.105 109.844C187.874 109.612 187.643 109.38 187.404 109.141C186.18 107.922 184.935 106.749 183.62 105.629C183.099 105.17 182.616 104.688 182.135 104.187C181.059 103.094 179.887 102.144 178.691 101.185C178.126 100.727 177.568 100.259 177.018 99.782C158.671 83.9016 131.717 84.5966 115.264 102.505ZM95.8007 125.098C91.7974 129.82 89.7358 136.206 90.1689 142.346C90.5387 145.865 92.009 149.034 94.6105 151.446C98.2388 154.342 102.689 154.563 107.153 154.523C107.378 154.521 107.604 154.52 107.836 154.518C115.256 154.457 122.271 152.782 129.488 151.196C134.253 150.152 139.015 149.21 143.848 148.535C144.168 148.488 144.168 148.488 144.496 148.439C146.661 148.155 148.845 148.171 151.025 148.169C151.238 148.169 151.451 148.168 151.671 148.168C161.152 148.182 170.221 150.373 179.354 152.737C191.996 156.551 191.996 156.551 204.785 155.273C205.577 154.741 206.164 154.203 206.836 153.515C203.902 147.766 196.428 144.518 190.546 142.597C183.922 140.576 177.123 139.632 170.215 139.453C169.972 139.445 169.73 139.437 169.48 139.429C157.214 139.061 144.97 141.472 132.988 143.801C109.84 148.279 109.84 148.279 100.106 141.943C97.6967 140.059 96.0376 137.165 95.5078 134.18C95.2645 131.09 95.3909 128.117 96.0937 125.098C95.997 125.098 95.9003 125.098 95.8007 125.098ZM139.16 153.223C138.897 153.27 138.635 153.317 138.364 153.365C137.597 153.506 136.831 153.655 136.066 153.808C135.728 153.876 135.728 153.876 135.384 153.945C133.709 154.308 132.321 154.686 131.189 156.055C130.593 157.163 130.208 158.259 129.877 159.466C129.805 159.724 129.733 159.982 129.659 160.247C127.819 167.083 126.399 174.054 125.244 181.036C125.208 181.255 125.172 181.474 125.134 181.7C123.904 189.192 122.732 198.167 127.02 204.92C129.877 208.795 133.21 210.594 137.923 211.344C140.654 211.71 143.42 211.641 146.17 211.622C147.188 211.615 148.205 211.616 149.223 211.618C152.633 211.614 156.022 211.513 159.422 211.257C159.732 211.233 160.042 211.21 160.361 211.186C164.664 210.829 168.633 210.019 171.753 206.817C175.199 202.675 175.833 197.417 175.873 192.242C175.881 191.896 175.89 191.55 175.898 191.193C175.942 184.803 174.371 178.457 173.016 172.247C172.81 171.292 172.604 170.336 172.398 169.38C172.263 168.749 172.126 168.119 171.989 167.488C171.64 165.871 171.307 164.251 171 162.625C170.937 162.295 170.874 161.965 170.809 161.626C170.69 161 170.575 160.374 170.463 159.748C169.941 156.876 169.941 156.876 168.266 154.582C166.34 153.35 163.937 153.223 161.719 152.93C161.485 152.899 161.251 152.868 161.01 152.836C153.792 151.93 146.326 151.933 139.16 153.223Z" fill="black"/>
</svg>
