<svg width="300" height="300" viewBox="0 0 300 300" fill="none" xmlns="http://www.w3.org/2000/svg">
<path d="M192.554 74.6519C192.901 74.676 193.248 74.7001 193.605 74.7249C199.18 75.157 199.18 75.157 200.739 76.2266C201.455 77.3376 201.478 77.7872 201.27 79.1014C199.466 84.9781 194.884 89.719 189.551 92.578C186.891 93.9445 184.199 94.8912 181.294 95.5878C180.502 95.7174 180.502 95.7174 180.176 96.0936C180.335 96.1655 180.493 96.2373 180.657 96.3114C188.259 99.7779 195.119 104.112 201.096 109.992C201.517 110.404 201.944 110.809 202.372 111.214C214.234 122.611 220.347 139.686 220.899 155.859C220.917 156.336 220.917 156.336 220.935 156.823C221.083 164.554 219.715 172.328 217.09 179.59C217.007 179.82 216.925 180.05 216.84 180.288C214.735 186.061 211.93 191.614 208.301 196.582C208.119 196.832 208.119 196.832 207.933 197.087C206.5 199.033 204.98 200.883 203.34 202.66C202.803 203.246 202.292 203.846 201.782 204.455C197.456 209.384 191.931 213.179 186.328 216.504C186.144 216.613 185.959 216.723 185.768 216.836C175.681 222.73 163.933 225.472 152.344 225.879C152.033 225.891 151.722 225.904 151.401 225.917C139.194 226.163 127.042 223.125 116.309 217.383C115.97 217.203 115.631 217.023 115.282 216.838C111.377 214.688 107.695 212.064 104.297 209.18C104.085 209 103.873 208.821 103.655 208.636C102.876 207.955 102.118 207.255 101.367 206.543C101.175 206.361 100.983 206.179 100.785 205.991C97.6285 202.973 94.7869 199.872 92.2853 196.289C92.0789 195.995 92.0789 195.995 91.8684 195.696C81.5778 180.886 77.3834 162.704 80.4933 144.928C82.4781 134.426 87.1362 124.659 93.7501 116.308C93.9483 116.058 93.9483 116.058 94.1505 115.803C97.3166 111.848 100.884 108.283 104.956 105.265C105.471 104.881 105.979 104.487 106.486 104.092C118.179 95.0969 133.578 90.0941 148.297 90.2159C148.862 90.2193 149.427 90.2225 149.992 90.2257C150.483 90.2285 150.974 90.2314 151.465 90.2342C151.462 90.0729 151.46 89.9117 151.457 89.7455C151.431 88.0631 151.413 86.3807 151.401 84.6981C151.395 84.0707 151.387 83.4433 151.377 82.8159C151.362 81.9126 151.356 81.0095 151.351 80.1062C151.341 79.6872 151.341 79.6872 151.332 79.2598C151.332 77.5927 151.494 76.5998 152.637 75.2928C153.713 74.5754 154.609 74.4632 155.86 74.7069C156.803 75.4494 157.238 75.9118 157.617 77.0506C157.643 77.4957 157.652 77.9417 157.651 78.3875C157.651 78.6572 157.651 78.927 157.651 79.2049C157.649 79.4952 157.647 79.7854 157.646 80.0844C157.645 80.5313 157.645 80.5313 157.645 80.9871C157.643 81.9394 157.639 82.8916 157.636 83.8438C157.634 84.4891 157.633 85.1343 157.632 85.7796C157.628 87.3621 157.623 88.9447 157.617 90.5272C158.487 90.5272 159.358 90.5272 160.254 90.5272C160.333 90.3497 160.411 90.1722 160.492 89.9893C163.592 83.3621 169.845 79.0298 176.542 76.5345C178.985 75.6671 181.399 74.9796 183.985 74.7069C184.282 74.668 184.58 74.6291 184.887 74.589C187.462 74.3271 189.977 74.4725 192.554 74.6519ZM168.704 87.9282C167.854 88.8075 167.854 88.8075 167.578 89.9412C174.148 91.4915 182.08 90.4067 187.857 87.0417C190.304 85.5273 192.359 83.5573 193.945 81.1522C193.945 80.9588 193.945 80.7655 193.945 80.5662C185.456 78.0429 174.792 81.9175 168.704 87.9282ZM103.583 113.873C103.392 114.051 103.202 114.228 103.006 114.411C99.2517 117.97 96.131 122.149 93.4572 126.562C93.3508 126.733 93.2444 126.904 93.1349 127.081C85.0597 140.135 83.3586 156.268 86.8127 171.042C88.9055 179.435 92.5625 187.381 97.8517 194.238C98.0654 194.519 98.2792 194.8 98.4994 195.09C102.124 199.731 106.28 203.947 111.035 207.422C111.193 207.538 111.352 207.653 111.515 207.773C112.605 208.564 113.717 209.319 114.844 210.058C115.006 210.165 115.167 210.271 115.334 210.381C122.291 214.902 130.18 217.57 138.281 219.14C138.636 219.213 138.636 219.213 138.999 219.287C155.335 222.518 173.325 218.581 187.08 209.39C189.906 207.458 192.532 205.34 195.051 203.021C195.703 202.441 195.703 202.441 196.374 201.962C196.539 201.83 196.705 201.698 196.875 201.562C196.875 201.369 196.875 201.176 196.875 200.976C197.165 200.88 197.455 200.783 197.754 200.683C198.208 200.258 198.208 200.258 198.651 199.713C198.832 199.499 199.012 199.285 199.198 199.064C199.398 198.825 199.599 198.586 199.805 198.34C200.023 198.092 200.241 197.843 200.466 197.588C211.705 184.596 215.945 168.167 214.98 151.309C214.149 141.361 210.575 131.194 204.785 123.047C204.579 122.755 204.372 122.463 204.159 122.162C200.938 117.749 197.353 113.84 193.067 110.449C192.77 110.21 192.474 109.97 192.168 109.723C189.858 107.879 187.437 106.333 184.863 104.883C184.675 104.774 184.486 104.666 184.292 104.554C173.822 98.5748 161.919 96.029 149.945 96.0203C149.699 96.0201 149.452 96.0199 149.199 96.0197C132.159 96.0414 116.072 102.236 103.583 113.873Z" fill="black"/>
<path d="M185.812 117.752C187.2 118.985 188.535 120.266 189.844 121.582C190.212 121.95 190.212 121.95 190.587 122.325C200.967 133.308 205.557 148.572 205.191 163.426C204.727 177.702 197.649 190.555 187.421 200.219C176.509 210.226 162.155 214.08 147.657 213.574C134.653 212.798 122.244 207.931 112.433 199.339C111.913 198.886 111.382 198.445 110.84 198.018C110.23 197.521 109.745 197.037 109.241 196.436C108.637 195.724 108.026 195.034 107.382 194.358C98.0746 184.596 93.0165 171.226 93.0549 157.8C93.0553 157.57 93.0556 157.339 93.056 157.102C93.1134 143.257 98.66 131.212 108.106 121.289C108.309 121.067 108.512 120.846 108.721 120.617C126.724 101.574 158.918 99.5226 185.812 117.752ZM111.106 126.126C107.414 130.231 104.359 134.75 102.176 139.823C101.99 140.248 101.786 140.666 101.578 141.08C101.181 142.431 101.527 143.541 102.079 144.801C107.286 153.933 115.994 159.354 125.962 162.14C127.864 162.661 129.746 163.128 131.69 163.458C132.589 163.634 132.996 163.76 133.759 164.301C134.258 165.059 134.452 165.495 134.473 166.406C134.132 167.322 133.858 167.957 133.082 168.567C131.216 169.085 129.378 168.594 127.552 168.146C127.285 168.081 127.017 168.015 126.742 167.948C122.264 166.823 117.972 165.403 113.914 163.182C113.395 162.899 112.869 162.627 112.344 162.355C107.357 159.679 103.124 155.843 99.8298 151.262C99.6606 151.039 99.4914 150.816 99.3171 150.586C99.2204 150.586 99.1238 150.586 99.0241 150.586C98.1611 156.008 98.3275 162.244 99.6101 167.578C99.6683 167.821 99.7265 168.064 99.7865 168.315C101.959 177.083 106.047 184.943 112.346 191.433C112.789 191.889 113.227 192.35 113.665 192.811C116.556 195.817 119.767 198.234 123.341 200.391C123.549 200.522 123.757 200.653 123.971 200.789C125.795 201.921 127.654 202.817 129.639 203.632C129.948 203.758 130.256 203.885 130.574 204.016C136.635 206.456 143.169 207.811 149.708 208.008C149.972 208.019 150.236 208.031 150.509 208.043C161.016 208.296 171.408 205.145 179.884 198.926C180.057 198.8 180.23 198.674 180.408 198.544C184.091 195.835 187.459 192.686 190.137 188.965C190.255 188.801 190.374 188.637 190.495 188.469C190.878 187.931 191.25 187.387 191.621 186.841C191.74 186.671 191.859 186.502 191.982 186.327C192.525 185.499 192.776 184.968 192.758 183.969C191.642 180.487 189.245 177.509 186.036 175.781C184.488 175.136 182.947 175.022 181.293 174.884C180.77 174.839 180.247 174.793 179.724 174.746C179.495 174.726 179.265 174.707 179.028 174.687C178.419 174.609 178.419 174.609 177.54 174.316C177.185 173.251 177.131 172.507 177.247 171.387C178.001 170.255 178.764 169.827 180.048 169.501C183.98 168.888 188.15 170.607 191.309 172.852C193.144 174.317 194.689 175.88 195.997 177.832C196.714 177.557 196.714 177.557 196.983 176.476C201.269 162.874 200.028 148.99 193.541 136.308C191.556 132.553 189.144 129.36 186.245 126.248C185.743 125.684 185.743 125.684 185.45 125.098C185.257 125.098 185.063 125.098 184.864 125.098C184.787 124.923 184.711 124.749 184.632 124.569C183.997 123.415 182.944 122.698 181.934 121.875C181.662 121.65 181.389 121.426 181.108 121.194C161.311 105.391 132.74 107.035 111.106 126.126Z" fill="black"/>
</svg>
