<svg width="300" height="300" viewBox="0 0 300 300" fill="none" xmlns="http://www.w3.org/2000/svg">
<path d="M199.019 78.9918C199.277 78.9922 199.534 78.9926 199.8 78.9929C201.954 79.0224 201.954 79.0224 203.029 79.6876C204.24 82.1103 203.284 86.2238 202.505 88.6312C202.329 89.1348 202.329 89.1348 202.15 89.6485C200.584 94.2641 199.767 98.839 199.513 103.711C199.803 103.904 200.093 104.098 200.392 104.297C200.199 104.394 200.006 104.49 199.806 104.59C199.618 105.236 199.618 105.236 199.503 106.018C199.453 106.307 199.404 106.595 199.353 106.892C199.303 107.196 199.253 107.5 199.202 107.813C199.102 108.411 199.001 109.009 198.899 109.607C198.833 110.007 198.833 110.007 198.766 110.415C198.634 111.035 198.634 111.035 198.341 111.328C198.304 111.864 198.29 112.402 198.287 112.94C198.282 113.233 198.278 113.526 198.274 113.828C198.439 116.316 199.259 118.349 200.301 120.593C202.769 126.117 204.248 131.71 205.08 137.695C205.124 138.015 205.169 138.334 205.215 138.662C205.306 139.515 205.348 140.354 205.373 141.211C205.38 141.436 205.388 141.66 205.396 141.891C205.818 156.105 201.636 170.334 193.361 181.934C193.238 182.108 193.115 182.282 192.989 182.462C190.854 185.47 188.495 188.184 185.922 190.825C185.533 191.224 185.148 191.627 184.764 192.031C178.315 198.704 169.572 203.683 160.64 206.067C160.38 206.137 160.119 206.207 159.851 206.279C155.336 207.411 150.925 207.489 146.303 207.422C138.491 207.168 138.491 207.168 131.545 210.352C131.34 210.738 131.143 211.128 130.959 211.524C130.409 211.835 130.409 211.835 129.787 212.109C129.612 212.248 129.436 212.387 129.256 212.531C128.615 212.988 128.615 212.988 127.608 213.41C126.609 213.848 125.932 214.349 125.099 215.039C124.906 215.039 124.713 215.039 124.513 215.039C124.513 215.233 124.513 215.426 124.513 215.625C124.093 215.773 123.671 215.919 123.25 216.065C122.898 216.187 122.898 216.187 122.539 216.312C121.877 216.504 121.877 216.504 120.998 216.504C120.998 216.697 120.998 216.891 120.998 217.09C120.418 217.187 119.838 217.283 119.24 217.383C119.24 217.576 119.24 217.77 119.24 217.969C118.176 218.162 117.113 218.356 116.017 218.555C116.017 218.748 116.017 218.942 116.017 219.141C115.833 219.18 115.649 219.22 115.459 219.261C114.911 219.38 114.363 219.498 113.816 219.617C113.191 219.752 112.566 219.886 111.941 220.019C110.41 220.347 108.913 220.71 107.411 221.155C105.496 221.61 103.579 221.512 101.625 221.448C101.298 221.438 100.971 221.428 100.634 221.418C100.172 221.395 100.172 221.395 99.7003 221.372C99.4223 221.359 99.1443 221.346 98.8578 221.332C98.0345 221.169 97.7591 220.984 97.2672 220.313C96.5223 216.707 97.8885 213.59 99.2413 210.31C100.746 206.573 101.115 202.892 101.146 198.9C101.148 198.599 101.15 198.299 101.153 197.989C101.157 197.358 101.16 196.727 101.162 196.096C101.166 195.456 101.172 194.816 101.18 194.176C101.193 193.242 101.198 192.308 101.201 191.374C101.206 191.092 101.211 190.81 101.216 190.52C101.207 187.627 100.196 185.247 98.7687 182.776C92.2113 170.932 92.6588 155.834 96.2304 143.152C98.8988 134.325 103.789 126.061 110.094 119.347C110.656 118.746 111.187 118.131 111.714 117.499C114.256 114.588 117.288 112.121 120.412 109.863C120.569 109.748 120.727 109.633 120.889 109.514C130.529 102.52 142.166 98.5661 154.077 98.6703C154.708 98.6756 155.34 98.6763 155.971 98.6762C158.359 98.6823 160.728 98.7749 163.109 98.9542C167.101 99.2504 167.101 99.2504 170.619 97.577C170.943 97.1656 171.254 96.7437 171.553 96.3136C171.762 96.0598 171.762 96.0598 171.974 95.8009C172.264 95.8009 172.554 95.8009 172.853 95.8009C172.925 95.6396 172.997 95.4784 173.071 95.3122C174.653 92.3779 177.38 89.6818 180.389 88.2336C181.827 87.5383 183.152 86.742 184.48 85.8583C186.451 84.5679 188.433 83.2978 190.431 82.0497C190.683 81.8905 190.935 81.7313 191.194 81.5674C193.834 79.9244 195.864 78.902 199.019 78.9918ZM180.003 98.6463C176.713 102.042 172.803 105.563 167.833 105.807C166.919 105.814 166.007 105.811 165.093 105.797C164.475 105.788 163.857 105.783 163.238 105.779C161.481 105.768 159.725 105.749 157.968 105.728C150.865 105.63 150.865 105.63 143.849 106.641C143.395 106.742 143.395 106.742 142.932 106.845C142.192 107.025 141.465 107.226 140.736 107.446C140.354 107.56 140.354 107.56 139.964 107.675C131.398 110.282 123.66 115.095 117.482 121.582C116.017 123.047 116.017 123.047 115.574 123.459C108.442 130.243 103.747 140.211 101.662 149.707C101.589 150.029 101.589 150.029 101.515 150.357C100.113 156.873 100.08 164.623 101.662 171.094C101.743 171.461 101.825 171.829 101.909 172.207C102.895 176.3 104.545 180.075 106.702 183.677C108.222 186.712 108.254 190.225 108.217 193.543C108.216 193.852 108.216 193.852 108.214 194.167C108.192 198.725 107.83 203.27 107.071 207.768C106.94 208.562 106.887 209.309 106.88 210.114C106.874 210.482 106.874 210.482 106.868 210.859C106.891 211.606 106.891 211.606 107.521 212.402C110.782 213.489 115.621 213.018 118.654 211.524C120.593 210.384 122.318 209.012 124.056 207.595C128.997 203.567 133.725 200.59 140.281 200.686C140.916 200.691 141.551 200.696 142.186 200.701C143.176 200.71 144.166 200.72 145.155 200.734C159.357 200.921 170.69 196.086 180.938 186.253C183.399 183.839 185.506 181.225 187.502 178.418C187.705 178.132 187.705 178.132 187.912 177.841C196.445 165.729 200.433 149.97 197.895 135.26C197.024 130.848 195.475 126.774 193.669 122.67C190.183 114.727 191.335 107.134 193.033 98.9137C193.395 97.1288 193.696 95.3738 193.727 93.5487C193.735 93.2817 193.742 93.0147 193.75 92.7396C193.633 91.8309 193.442 91.4474 192.775 90.8204C187.469 89.6546 183.279 95.2551 180.003 98.6463Z" fill="black"/>
<path d="M188.964 140.332C189.922 140.841 190.809 141.387 191.307 142.383C192.39 155.347 187.049 168.568 178.819 178.381C175.06 182.774 175.06 182.774 173.436 183.399C172.2 183.399 171.609 183.301 170.671 182.483C170.072 181.381 170.003 180.832 170.214 179.59C170.982 178.199 172.122 177.083 173.198 175.928C179.63 168.858 184.718 158.417 184.577 148.733C184.573 148.331 184.57 147.929 184.566 147.528C184.559 146.903 184.551 146.278 184.541 145.653C184.532 145.044 184.527 144.435 184.522 143.826C184.517 143.465 184.512 143.103 184.507 142.731C184.566 141.838 184.661 141.359 185.155 140.625C186.387 139.793 187.579 139.964 188.964 140.332Z" fill="black"/>
<path d="M129.198 123.047C129.909 123.663 130.061 124.164 130.333 125.061C130.38 126.219 130.081 126.742 129.491 127.734C128.803 128.369 128.803 128.369 128.008 128.961C124.304 131.877 121.822 135.589 119.414 139.573C118.944 140.332 118.944 140.332 118.651 140.625C117.25 140.783 116.074 140.791 114.788 140.185C114.257 139.453 114.257 139.453 114.184 138.464C114.904 134.903 117.281 131.932 119.53 129.199C119.673 129.008 119.817 128.816 119.964 128.619C120.923 127.376 122.116 126.435 123.339 125.464C123.6 125.256 123.6 125.256 123.866 125.044C125.534 123.753 127.001 122.756 129.198 123.047Z" fill="black"/>
<path d="M154.118 113.837C154.49 113.828 154.49 113.828 154.87 113.819C156.58 113.82 157.964 114.122 159.373 115.137C159.854 116.098 159.699 116.498 159.373 117.517C158.512 118.755 157.473 119.064 156.04 119.403C154.621 119.639 153.191 119.585 151.756 119.586C151.44 119.59 151.123 119.593 150.797 119.597C150.338 119.598 150.338 119.598 149.87 119.599C149.593 119.6 149.315 119.601 149.029 119.602C148.181 119.526 147.546 119.298 146.776 118.945C146.616 117.639 146.69 116.829 147.49 115.796C149.055 113.887 151.843 113.817 154.118 113.837Z" fill="black"/>
<path d="M112.794 153.809C113.71 154.411 113.926 154.793 114.154 155.864C114.325 157.259 114.205 158.622 114.076 160.016C114.059 160.276 114.042 160.537 114.025 160.805C113.851 162.697 113.851 162.697 112.971 163.655C112.208 164.063 112.208 164.063 111.329 164.081C110.174 163.672 109.703 163.308 108.986 162.305C108.226 159.843 108.891 156.906 109.859 154.585C110.533 153.494 111.64 153.709 112.794 153.809Z" fill="black"/>
<path d="M152.639 188.965C153.188 189.459 153.188 189.459 153.517 190.137C153.517 191.25 153.376 191.73 152.62 192.554C150.855 193.606 148.812 193.912 146.779 193.652C146.049 193.351 145.688 193.178 145.223 192.535C144.957 191.69 144.996 191.257 145.314 190.43C146.464 189.581 147.586 189.311 148.976 189.038C149.354 188.961 149.732 188.884 150.121 188.805C151.09 188.682 151.716 188.671 152.639 188.965Z" fill="black"/>
</svg>
