<svg width="300" height="300" viewBox="0 0 300 300" fill="none" xmlns="http://www.w3.org/2000/svg">
<path d="M171.096 79.3945C173.17 84.3556 171.997 90.2356 170.107 95.0317C169.046 97.4293 167.643 99.5417 166.115 101.66C166.49 101.579 166.864 101.498 167.25 101.414C167.751 101.307 168.251 101.2 168.752 101.093C169.121 101.012 169.121 101.012 169.497 100.931C180.235 98.6415 191.776 101.014 200.978 106.934C202.104 107.76 203.157 108.644 204.201 109.57C204.414 109.748 204.627 109.926 204.847 110.109C206.243 111.284 207.43 112.564 208.596 113.965C208.804 114.206 209.013 114.447 209.227 114.696C210.906 116.676 212.284 118.747 213.576 120.996C213.769 121.327 213.962 121.658 214.161 121.999C217.776 128.362 219.886 135.7 220.607 142.969C220.639 143.268 220.672 143.567 220.705 143.875C221.964 157.44 218.463 170.881 212.111 182.813C212.004 183.018 211.896 183.223 211.786 183.434C208.701 189.299 204.906 194.854 200.412 199.731C199.878 200.313 199.365 200.906 198.854 201.508C196.387 204.329 193.685 206.884 190.725 209.18C190.34 209.485 189.955 209.79 189.571 210.095C184.149 214.362 178.103 217.929 171.389 219.727C171.074 219.812 171.074 219.812 170.753 219.899C163.154 221.882 154.865 221.166 147.382 218.927C146.085 218.561 145.181 218.53 143.85 218.848C143.405 218.94 142.959 219.031 142.514 219.122C141.798 219.277 141.083 219.434 140.368 219.592C131.913 221.417 124.06 219.405 116.603 215.332C116.297 215.166 115.99 215 115.674 214.83C112.243 212.901 109.077 210.524 106.057 208.008C105.901 207.879 105.745 207.75 105.585 207.617C102.083 204.699 98.9224 201.639 96.0956 198.047C95.8369 197.727 95.5779 197.407 95.3186 197.087C92.0884 193.078 89.4078 188.833 87.0136 184.277C86.8489 183.97 86.8489 183.97 86.6809 183.656C78.5076 168.237 76.3876 148.974 81.4064 132.261C83.5911 125.41 87.2287 119.049 91.9941 113.672C92.1364 113.51 92.2787 113.349 92.4254 113.182C94.4669 110.879 96.5548 108.786 99.0253 106.934C99.1765 106.817 99.3277 106.701 99.4835 106.582C108.199 99.9094 118.836 96.8381 129.782 97.9395C131.476 98.1797 133.123 98.5569 134.768 99.0234C134.984 99.0847 135.2 99.1459 135.422 99.209C141.004 100.858 145.673 103.975 150.002 107.813C152.575 103.218 153.008 98.1192 153.087 92.9647C153.158 88.7696 153.554 85.5813 156.52 82.3975C159.475 79.668 167.509 75.9575 171.096 79.3945ZM158.379 86.3125C157.415 87.7005 157.287 88.8481 157.264 90.5022C157.257 90.9146 157.249 91.3271 157.241 91.7395C157.237 91.9545 157.233 92.1696 157.229 92.3911C157.158 96.0449 156.971 99.5498 156.154 103.125C156.053 103.71 155.954 104.296 155.861 104.883C157.355 104.089 158.556 103.226 159.78 102.063C159.944 101.908 160.109 101.752 160.278 101.592C160.763 101.13 161.242 100.663 161.721 100.195C161.968 99.9555 162.215 99.7157 162.47 99.4686C165.959 95.859 167.902 91.0948 167.965 86.0779C167.938 84.9865 167.82 83.9752 167.58 82.9102C164.274 82.6898 160.626 83.7343 158.379 86.3125ZM94.3378 117.188C91.988 119.959 90.1406 123.048 88.4784 126.27C88.3848 126.451 88.2912 126.632 88.1948 126.819C81.0198 140.929 81.6617 157.576 86.4277 172.339C89.5743 181.686 94.6498 190.248 101.369 197.461C101.725 197.869 102.079 198.277 102.431 198.688C104.089 200.586 105.899 202.272 107.814 203.906C108.06 204.123 108.306 204.34 108.559 204.563C113.93 209.201 120.016 212.816 126.857 214.746C127.207 214.846 127.556 214.946 127.916 215.048C130.69 215.739 133.395 215.712 136.232 215.625C135.635 214.982 135.076 214.55 134.299 214.143C134.092 214.032 133.884 213.921 133.669 213.806C133.334 213.628 133.334 213.628 132.991 213.446C124.365 208.742 116.275 202.214 110.451 194.238C110.173 193.869 109.894 193.5 109.616 193.132C106.045 188.351 103.021 183.233 100.49 177.832C100.394 177.632 100.298 177.431 100.199 177.225C97.7115 172.019 95.9389 166.521 94.9238 160.84C94.88 160.598 94.8361 160.357 94.791 160.108C93.5712 153.087 93.4745 145.564 94.9238 138.574C94.9645 138.374 95.0053 138.174 95.0474 137.968C96.9576 129.01 102.661 120.336 110.252 115.221C115.072 112.13 120.499 110.622 126.198 110.651C126.7 110.653 126.7 110.653 127.212 110.655C130.55 110.701 135.756 110.852 138.283 113.379C138.389 115.564 138.389 115.564 137.697 116.602C135.775 116.464 133.969 116.066 132.112 115.564C125.505 113.814 118.598 115.224 112.72 118.555C105.742 122.741 101.17 130.308 99.0253 137.988C96.744 147.219 97.5582 157.052 100.197 166.113C100.26 166.33 100.323 166.547 100.388 166.77C103.778 178.161 110.162 188.61 118.361 197.168C118.523 197.339 118.684 197.51 118.851 197.686C129.449 208.868 145.088 215.729 160.474 216.563C172.3 216.714 182.959 210.809 191.393 202.89C192.066 202.263 192.751 201.662 193.453 201.068C194.402 200.244 195.22 199.357 196.03 198.397C196.418 197.946 196.82 197.506 197.229 197.074C201.99 192.052 205.676 185.982 208.889 179.883C209.01 179.654 209.131 179.425 209.256 179.189C212.445 173.082 214.907 166.207 215.92 159.375C215.996 158.874 215.996 158.874 216.073 158.363C216.494 155.348 216.612 152.384 216.597 149.341C216.597 149.103 216.596 148.866 216.595 148.621C216.58 145.013 216.451 141.515 215.627 137.988C215.569 137.733 215.51 137.478 215.45 137.216C213.75 129.972 210.791 123.183 205.959 117.48C205.758 117.242 205.758 117.242 205.553 116.999C200.832 111.474 195.086 107.975 188.088 106.055C187.87 105.993 187.651 105.931 187.426 105.868C181.054 104.137 173.919 104.228 167.58 106.055C167.306 106.133 167.032 106.212 166.75 106.293C161.397 107.875 156.29 110.045 151.548 113.005C150.913 113.361 150.433 113.596 149.709 113.672C149.164 113.201 148.717 112.744 148.244 112.207C143.313 106.842 136.911 103.801 129.787 102.539C129.57 102.5 129.353 102.461 129.129 102.421C115.814 100.526 102.991 107.554 94.3378 117.188Z" fill="black"/>
<path d="M191.212 122.738C191.437 122.937 191.662 123.135 191.894 123.34C192.137 123.545 192.381 123.749 192.631 123.96C200.649 130.871 203.945 140.943 204.986 151.172C205.869 164.4 202.207 176.949 195.117 188.086C194.924 188.28 194.73 188.473 194.531 188.672C193.417 188.631 192.688 188.514 191.748 187.903C191.241 187.101 191.262 186.687 191.418 185.769C191.801 184.487 192.558 183.38 193.249 182.245C194.769 179.666 196.083 177.105 197.168 174.317C197.299 173.981 197.43 173.644 197.565 173.298C199.661 167.48 200.459 161.458 200.464 155.31C200.464 155.081 200.464 154.853 200.464 154.617C200.459 151.154 200.335 147.813 199.511 144.434C199.463 144.225 199.414 144.017 199.364 143.802C197.564 136.326 193.175 129.268 186.621 125.098C181.575 122.162 176.397 120.88 170.562 120.886C170.195 120.886 169.828 120.886 169.45 120.885C166.466 120.919 163.638 121.305 160.722 121.912C159.669 122.127 158.696 122.263 157.617 122.168C156.969 121.65 156.781 121.252 156.645 120.438C156.585 119.394 156.563 118.883 157.218 118.023C158.575 116.959 160.346 116.877 162.011 116.602C162.363 116.541 162.714 116.48 163.076 116.418C172.718 114.978 183.548 116.216 191.212 122.738Z" fill="black"/>
</svg>
