<svg width="300" height="300" viewBox="0 0 300 300" fill="none" xmlns="http://www.w3.org/2000/svg">
<path d="M189.397 64.4563C190.893 65.7794 192.3 67.1848 193.68 68.6277C194.234 69.2047 194.234 69.2047 195.119 69.4334C196.145 67.4989 196.977 65.5416 197.722 63.4824C198.049 62.6951 198.049 62.6951 198.634 62.1091C199.967 62.0306 201.03 62.2467 202.15 62.9697C202.736 63.574 202.736 63.574 203.029 64.1599C202.994 66.2914 202.333 67.8267 201.381 69.7218C201.013 70.5288 200.84 71.2046 200.685 72.0701C200.851 72.1176 201.018 72.1651 201.189 72.2141C208.451 74.3363 216.336 76.8152 220.314 83.7888C223.217 89.6156 223.032 94.7609 221.641 100.956C221.405 102.029 221.196 103.107 220.992 104.187C220.924 104.535 220.856 104.883 220.787 105.242C219.532 112.961 220.482 120.561 221.944 128.158C224.122 139.469 225.399 151.157 223.244 162.597C223.157 163.083 223.157 163.083 223.067 163.579C219.739 181.839 212.06 199.263 199.806 213.281C199.587 213.533 199.368 213.785 199.143 214.044C196.457 217.082 193.63 219.866 190.431 222.363C190.167 222.577 189.903 222.791 189.63 223.012C179.086 231.394 166.856 236.606 153.517 238.476C153.304 238.507 153.091 238.538 152.871 238.569C150.204 238.894 147.502 238.841 144.82 238.843C144.551 238.843 144.283 238.843 144.007 238.843C139.894 238.838 135.883 238.699 131.838 237.89C131.582 237.84 131.326 237.79 131.062 237.738C126.232 236.758 121.579 235.235 117.098 233.185C116.9 233.096 116.702 233.006 116.498 232.915C115.107 232.251 113.829 231.431 112.795 230.273C112.487 229.223 112.407 228.581 112.685 227.527C113.253 226.855 113.689 226.848 114.552 226.758C115.217 226.961 115.217 226.961 115.899 227.298C116.155 227.42 116.411 227.543 116.675 227.669C116.947 227.804 117.22 227.938 117.5 228.076C133.181 235.469 151.384 236.13 167.712 230.279C176.102 227.098 183.744 222.49 190.268 216.33C190.893 215.741 191.53 215.186 192.189 214.636C208.969 200.01 217.634 175.39 219.362 153.845C219.395 153.15 219.418 152.454 219.435 151.758C219.441 151.531 219.447 151.304 219.453 151.071C219.665 141.884 218.191 132.957 216.511 123.959C216.309 122.875 216.112 121.789 215.92 120.703C215.863 120.388 215.863 120.388 215.806 120.068C215.484 117.953 215.555 115.787 215.553 113.653C215.553 113.432 215.553 113.21 215.553 112.982C215.557 108.509 216.055 104.234 216.825 99.83C218.167 92.2553 218.167 92.2553 215.59 85.1438C213.64 82.6396 210.811 81.287 207.991 79.9619C207.671 79.8106 207.351 79.6592 207.021 79.5033C202.069 77.1179 202.069 77.1179 196.704 76.507C194.627 76.3824 193.178 74.5624 191.86 73.1321C191.185 72.3643 190.52 71.5896 189.863 70.8067C187.791 68.3597 185.771 67.0494 182.52 66.7028C175.429 66.4418 169.647 70.4751 164.687 75.073C164.369 75.3718 164.052 75.6708 163.735 75.9702C163.089 76.5738 162.439 77.1492 161.757 77.7097C160.877 78.4524 160.146 79.2794 159.401 80.1553C158.493 81.2026 157.546 82.2129 156.601 83.2264C155.812 84.0759 155.04 84.9359 154.282 85.8133C153.218 87.0343 152.1 88.1925 150.954 89.3369C150.748 89.5421 150.543 89.7472 150.331 89.9586C148.979 91.295 147.601 92.5345 146.106 93.7097C145.359 94.2999 144.636 94.9092 143.915 95.5293C142.166 97.0307 140.374 98.4487 138.514 99.8107C137.914 100.251 137.316 100.694 136.717 101.137C131.077 105.311 125.376 109.394 119.597 113.374C113.305 117.713 107.422 122.234 101.991 127.624C101.61 128.002 101.61 128.002 101.221 128.386C99.4868 130.129 97.9118 131.958 96.3884 133.886C96.2197 134.098 96.051 134.309 95.8772 134.527C86.6332 146.194 81.0779 159.053 80.2751 174.023C80.2573 174.342 80.2396 174.66 80.2213 174.988C80.2003 175.845 80.2274 176.683 80.2751 177.539C80.2871 177.763 80.2992 177.988 80.3116 178.219C81.1689 192.958 86.4916 205.871 96.6813 216.504C96.8894 216.724 97.0975 216.944 97.3119 217.171C99.1411 219.06 101.189 220.683 103.28 222.272C103.539 222.468 103.539 222.468 103.803 222.669C104.139 222.924 104.476 223.177 104.814 223.429C105.589 224.013 106.097 224.475 106.642 225.293C106.775 227.145 106.775 227.145 106.056 228.222C104.724 228.524 104.06 228.412 102.855 227.756C89.3489 218.652 79.6911 203.662 76.5294 187.736C76.4054 187.072 76.2879 186.407 76.1735 185.742C76.1074 185.368 76.0413 184.993 75.9732 184.608C73.3719 166.793 79.4715 149.026 90.0495 134.815C90.9653 133.606 91.9134 132.425 92.8727 131.25C92.998 131.094 93.1233 130.938 93.2524 130.777C95.2325 128.324 97.4077 126.068 99.6293 123.834C99.8959 123.565 100.162 123.295 100.437 123.018C102.22 121.243 104.086 119.629 106.056 118.066C106.42 117.769 106.784 117.472 107.147 117.174C109.713 115.089 112.362 113.139 115.054 111.221C115.713 110.75 116.37 110.275 117.025 109.799C119.305 108.144 121.597 106.51 123.909 104.901C134.275 97.6738 144.235 89.828 153.206 80.9141C153.353 80.7683 153.5 80.6225 153.652 80.4723C154.413 79.7126 154.413 79.7126 154.982 78.8084C155.175 78.8084 155.369 78.8084 155.568 78.8084C155.643 78.6375 155.718 78.4665 155.796 78.2904C156.187 77.5769 156.613 77.1147 157.195 76.5482C157.4 76.3471 157.604 76.146 157.815 75.9388C158.135 75.628 158.135 75.628 158.461 75.3111C160.071 73.7545 160.071 73.7545 161.54 72.0689C161.696 71.876 161.852 71.683 162.013 71.4841C162.207 71.4841 162.4 71.4841 162.599 71.4841C162.599 71.2908 162.599 71.0974 162.599 70.8982C162.793 70.8982 162.986 70.8982 163.185 70.8982C163.185 70.7048 163.185 70.5115 163.185 70.3123C163.897 69.5556 164.727 68.92 165.529 68.2615C165.806 68.0292 166.083 67.797 166.368 67.5577C169.664 64.8598 173.307 62.8477 177.541 62.1091C177.747 62.0714 177.952 62.0336 178.164 61.9947C182.259 61.3661 186.129 61.7934 189.397 64.4563Z" fill="black"/>
<path d="M184.531 111.65C185.919 112.668 186.73 114.185 187.052 115.855C187.142 116.652 187.213 117.45 187.28 118.25C187.537 120.687 188.033 122.835 188.928 125.116C194.234 138.684 192.69 154.462 187.215 167.779C186.767 168.788 186.244 169.739 185.687 170.691C185.452 171.098 185.218 171.505 184.984 171.912C184.866 172.117 184.748 172.321 184.626 172.532C184.29 173.121 183.965 173.715 183.643 174.313C180.376 180.347 176.127 185.78 171.386 190.723C171.157 190.964 170.928 191.205 170.692 191.454C169.227 192.96 167.669 194.306 166.02 195.606C165.475 196.037 164.936 196.473 164.396 196.909C152.574 206.371 138.708 214.497 123.046 213.574C121.901 213.407 120.894 213.131 119.824 212.695C119.573 212.596 119.322 212.496 119.063 212.393C115.573 210.835 113.942 208.209 112.5 204.785C107.699 192.149 111.461 174.877 116.7 162.83C119.743 156.094 124.097 150.024 129.092 144.604C129.666 143.977 130.223 143.341 130.774 142.694C132.72 140.457 134.86 138.354 137.118 136.433C137.776 135.868 138.411 135.28 139.05 134.692C140.707 133.198 142.454 131.832 144.22 130.47C144.682 130.112 145.14 129.75 145.598 129.387C149.859 126.037 154.346 122.977 158.977 120.164C161.663 118.526 164.284 116.791 166.904 115.052C172.366 111.436 178.071 107.852 184.531 111.65ZM172.559 116.327C172.28 116.509 172 116.69 171.711 116.877C170.397 117.748 169.087 118.625 167.779 119.506C164.54 121.687 161.283 123.82 157.946 125.848C154.056 128.215 150.262 130.652 146.777 133.594C146.621 133.726 146.464 133.857 146.303 133.993C144.082 135.872 141.895 137.786 139.746 139.746C139.469 139.995 139.193 140.245 138.908 140.501C136.01 143.123 133.164 145.818 130.664 148.828C130.53 148.985 130.397 149.142 130.26 149.304C118.962 162.632 113.955 179.987 115.227 197.409C115.712 203.213 115.712 203.213 118.652 208.008C121.804 210.424 125.873 210.114 129.672 209.678C131.299 209.421 132.884 209.024 134.472 208.594C134.817 208.504 134.817 208.504 135.168 208.413C143.008 206.351 151.396 202.929 157.91 198.047C158.139 197.878 158.139 197.878 158.372 197.706C160.33 196.26 162.199 194.737 163.989 193.085C164.568 192.554 165.161 192.05 165.765 191.547C168.978 188.727 171.624 185.382 174.157 181.957C174.587 181.377 175.023 180.803 175.462 180.23C178.517 176.201 180.853 171.971 182.832 167.325C183.176 166.537 183.548 165.765 183.923 164.991C189.684 153.057 189.976 137.954 185.705 125.501C185.631 125.293 185.557 125.085 185.48 124.87C184.586 122.361 184.192 119.907 183.942 117.256C183.627 116.066 183.178 115.61 182.226 114.844C179.102 113.23 175.316 114.534 172.559 116.327Z" fill="black"/>
<path d="M175.783 120.703C176.314 121.436 176.314 121.436 176.662 122.168C176.035 123.354 175.36 124.047 174.3 124.86C172.869 125.995 171.589 127.209 170.314 128.515C169.715 129.115 169.104 129.674 168.459 130.225C165.957 132.247 165.957 132.247 164.064 134.766C163.871 134.766 163.678 134.766 163.478 134.766C163.407 134.933 163.336 135.101 163.262 135.274C162.827 136.056 162.312 136.564 161.666 137.183C160.637 138.188 159.67 139.216 158.734 140.307C158.142 140.991 157.533 141.659 156.923 142.328C155.797 143.578 154.719 144.859 153.662 146.168C153.135 146.818 152.606 147.466 152.073 148.111C143.862 158.076 136.701 168.754 131.838 180.762C131.742 180.998 131.645 181.233 131.546 181.476C129.191 187.321 127.7 193.392 126.806 199.621C126.766 199.892 126.726 200.164 126.685 200.443C126.601 201.017 126.522 201.591 126.445 202.166C126.38 202.597 126.38 202.597 126.314 203.038C126.277 203.296 126.241 203.554 126.204 203.821C125.918 204.673 125.578 204.93 124.807 205.371C124.001 205.426 124.001 205.426 123.342 205.371C118.494 196.79 119.044 185.947 121.523 176.682C123.891 168.455 127.811 160.323 133.01 153.516C133.14 153.344 133.27 153.171 133.405 152.994C135.012 150.878 136.687 148.861 138.495 146.913C139.091 146.268 139.67 145.612 140.242 144.946C141.679 143.298 143.225 141.797 144.882 140.371C145.454 139.878 146.022 139.382 146.589 138.883C168.57 119.594 168.57 119.594 175.783 120.703Z" fill="black"/>
<path d="M187.921 75.311C188.672 75.5857 188.672 75.5857 189.24 76.4097C189.551 77.3435 189.551 77.3435 189.391 77.8814C188.775 78.7988 187.972 79.4894 187.152 80.2183C186.805 80.5331 186.458 80.8482 186.112 81.1636C185.946 81.314 185.78 81.4644 185.609 81.6193C184.056 83.0321 182.726 84.5096 181.46 86.1852C181.055 86.7185 181.055 86.7185 180.762 87.0115C180.315 86.9853 179.869 86.9396 179.425 86.8833C179.183 86.8535 178.941 86.8236 178.691 86.7929C178.505 86.7684 178.318 86.7438 178.125 86.7185C177.901 86.1154 177.901 86.1154 177.832 85.2537C178.216 84.4989 178.593 83.8696 179.077 83.1846C179.21 82.9926 179.342 82.8005 179.479 82.6027C184.686 75.2281 184.686 75.2281 187.921 75.311Z" fill="black"/>
<path d="M201.564 80.8596C203.566 82.4257 204.26 84.9714 204.585 87.4033C204.632 88.8766 204.431 90.7043 203.532 91.91C202.871 92.403 202.471 92.3758 201.655 92.3403C201.3 92.3284 201.3 92.3284 200.938 92.3163C200.758 92.3061 200.578 92.2959 200.392 92.2854C199.732 90.9851 199.78 89.8213 199.843 88.4036C199.888 86.6139 199.766 85.3321 198.901 83.7286C198.49 82.9198 198.446 82.3249 198.634 81.4455C199.619 80.5735 200.348 80.3259 201.564 80.8596Z" fill="black"/>
</svg>
