<svg width="300" height="300" viewBox="0 0 300 300" fill="none" xmlns="http://www.w3.org/2000/svg">
<path d="M193.195 73.4069C194.223 74.3847 194.8 75.3204 194.841 76.7738C194.73 78.0298 194.474 79.0223 193.652 79.9804C192.052 80.7764 190.448 81.1592 188.709 81.5368C180.291 83.4678 170.506 87.7464 165.234 94.9218C165.418 94.9643 165.602 95.0068 165.792 95.0506C175.501 97.3207 183.78 100.835 191.016 107.812C191.24 108.019 191.465 108.225 191.697 108.437C195.12 111.67 197.666 115.661 199.805 119.824C199.954 120.11 199.954 120.11 200.106 120.401C205.253 130.342 207.201 141.754 207.184 152.856C207.184 153.077 207.184 153.297 207.183 153.524C207.177 156.688 207.083 159.767 206.543 162.891C206.467 163.38 206.391 163.87 206.315 164.36C203.263 183.24 193.026 202.048 177.451 213.501C176.954 213.866 176.463 214.239 175.971 214.612C173.504 216.458 170.89 217.972 168.169 219.413C167.67 219.678 167.173 219.948 166.678 220.219C157.153 225.246 146.489 227.082 135.827 227.103C135.396 227.104 134.966 227.106 134.535 227.108C133.14 227.114 131.746 227.118 130.352 227.121C129.868 227.122 129.385 227.123 128.901 227.124C126.634 227.13 124.366 227.134 122.099 227.136C119.49 227.139 116.881 227.147 114.272 227.159C112.246 227.168 110.221 227.172 108.196 227.173C106.99 227.174 105.783 227.176 104.577 227.184C103.445 227.19 102.313 227.192 101.181 227.189C100.767 227.188 100.352 227.19 99.9375 227.194C96.0851 227.23 96.0851 227.23 94.629 225.879C94.3752 225.67 94.3752 225.67 94.1163 225.458C92.9541 224.005 93.0807 222.38 93.0878 220.615C93.0867 220.318 93.0856 220.021 93.0844 219.716C93.0814 218.721 93.0825 217.725 93.0837 216.73C93.0824 216.017 93.0809 215.304 93.0792 214.59C93.0757 212.852 93.0749 211.113 93.0756 209.375C93.0761 207.958 93.0756 206.542 93.0744 205.126C93.0742 204.924 93.074 204.722 93.0738 204.514C93.0735 204.104 93.0731 203.694 93.0728 203.283C93.0696 199.434 93.0702 195.584 93.072 191.735C93.0735 188.228 93.0702 184.722 93.0646 181.215C93.0589 177.605 93.0566 173.995 93.0576 170.385C93.0582 168.363 93.0575 166.34 93.0533 164.317C93.0494 162.409 93.0503 160.501 93.054 158.593C93.0547 157.898 93.054 157.203 93.0515 156.508C93.0325 150.663 93.4109 144.843 94.8671 139.16C94.9428 138.856 95.0186 138.552 95.0967 138.239C95.7408 135.731 96.5305 133.332 97.5587 130.957C97.6393 130.766 97.7199 130.575 97.8029 130.377C100.721 123.521 105.034 117.568 110.156 112.207C110.523 111.822 110.523 111.822 110.897 111.43C121.072 100.998 135.458 94.5799 150 94.0429C150.872 94.0329 151.744 94.0342 152.616 94.0372C152.845 94.0376 153.073 94.038 153.309 94.0385C153.866 94.0395 154.423 94.0412 154.981 94.0429C154.978 93.7249 154.978 93.7249 154.975 93.4005C154.957 91.3964 154.944 89.3923 154.935 87.3881C154.93 86.3578 154.924 85.3277 154.914 84.2975C154.903 83.1114 154.899 81.9253 154.895 80.7392C154.89 80.3717 154.886 80.0042 154.881 79.6255C154.881 77.3868 154.925 75.7213 156.5 74.0112C157.56 73.3988 158.445 73.1821 159.668 73.2421C161.052 73.7212 161.783 74.3792 162.598 75.5859C162.939 76.609 162.953 77.4584 162.983 78.5373C162.99 78.7377 162.996 78.938 163.002 79.1444C163.021 79.7832 163.038 80.4219 163.056 81.0607C163.068 81.4943 163.081 81.9278 163.094 82.3614C163.125 83.4232 163.155 84.485 163.184 85.5468C163.371 85.3733 163.559 85.1997 163.752 85.0209C165.165 83.73 166.555 82.5009 168.164 81.4636C168.348 81.3437 168.532 81.2239 168.722 81.1004C174.328 77.5036 186.326 70.2847 193.195 73.4069ZM116.895 116.894C116.603 117.167 116.312 117.44 116.02 117.713C108.807 124.569 103.9 134.131 101.953 143.848C101.904 144.08 101.854 144.313 101.803 144.553C101.185 147.908 101.29 151.279 101.301 154.678C101.301 155.385 101.301 156.093 101.301 156.801C101.3 158.515 101.303 160.229 101.307 161.943C101.311 163.939 101.312 165.935 101.312 167.932C101.314 171.491 101.318 175.051 101.323 178.61C101.328 182.065 101.333 185.521 101.335 188.976C101.335 189.19 101.335 189.403 101.336 189.623C101.336 190.694 101.337 191.764 101.338 192.835C101.344 201.701 101.354 210.567 101.367 219.434C106.184 219.447 111 219.458 115.816 219.464C118.053 219.467 120.29 219.471 122.527 219.478C124.48 219.484 126.433 219.487 128.386 219.489C129.417 219.489 130.449 219.491 131.48 219.495C140.325 219.532 140.325 219.532 149.048 218.188C149.326 218.125 149.604 218.061 149.891 217.996C158.663 215.926 166.714 211.887 173.731 206.25C173.899 206.116 174.067 205.981 174.241 205.843C177.859 202.931 181.165 199.694 183.984 195.996C184.122 195.819 184.259 195.643 184.4 195.461C191.566 186.182 196.958 174.56 198.633 162.891C198.682 162.569 198.682 162.569 198.733 162.242C199.717 155.625 199.832 148.091 198.633 141.504C198.589 141.255 198.545 141.007 198.499 140.751C196.523 129.994 192.38 119.781 184.277 112.207C184.181 112.207 184.084 112.207 183.984 112.207C183.984 112.538 183.984 112.538 183.983 112.876C183.972 118.284 183.955 123.693 183.931 129.101C183.919 131.717 183.909 134.332 183.905 136.948C183.901 139.232 183.893 141.516 183.881 143.799C183.874 145.005 183.869 146.211 183.87 147.416C183.869 164.538 179.181 179.611 167.12 192.133C161.022 197.996 153.551 202.201 145.459 204.584C145.121 204.685 145.121 204.685 144.777 204.788C140.163 206.073 135.524 206.385 130.759 206.367C130.2 206.367 129.641 206.368 129.081 206.369C127.922 206.371 126.763 206.369 125.603 206.365C124.12 206.359 122.637 206.362 121.154 206.368C120.005 206.371 118.855 206.37 117.706 206.368C117.159 206.367 116.612 206.368 116.064 206.37C115.303 206.372 114.541 206.369 113.779 206.364C113.444 206.366 113.444 206.366 113.103 206.369C111.711 206.353 110.742 206.128 109.57 205.371C108.913 204.268 108.692 203.543 108.692 202.258C109.092 200.907 109.786 200.231 110.959 199.477C111.867 199.123 112.651 199.14 113.624 199.135C113.824 199.133 114.023 199.131 114.229 199.129C114.661 199.125 115.094 199.122 115.527 199.12C116.218 199.118 116.908 199.112 117.599 199.105C119.073 199.091 120.547 199.081 122.022 199.072C137.368 198.977 150.13 197.406 161.719 186.328C161.93 186.135 162.141 185.943 162.359 185.744C171.266 177.329 175.56 164.92 176.074 152.93C176.121 151.158 176.109 149.385 176.102 147.613C176.101 147.083 176.1 146.554 176.099 146.025C176.08 138.692 176.006 131.359 175.939 124.026C175.922 122.253 175.906 120.479 175.891 118.706C175.855 114.684 175.818 110.662 175.781 106.641C174.866 106.265 173.95 105.892 173.034 105.52C172.651 105.363 172.651 105.363 172.261 105.202C169.59 104.123 166.882 103.401 164.063 102.832C163.829 102.784 163.595 102.736 163.353 102.687C146.214 99.3322 129.319 104.894 116.895 116.894Z" fill="black"/>
<path d="M157.031 120.996C158.265 121.495 159.312 122.15 159.961 123.34C160.275 124.556 160.296 125.722 160.303 126.974C160.304 127.183 160.306 127.392 160.307 127.607C160.31 128.284 160.31 128.961 160.309 129.639C160.309 129.87 160.308 130.101 160.308 130.339C160.268 145.86 155.08 158.905 144.434 170.215C144.23 170.438 144.026 170.66 143.817 170.89C136.63 178.48 126.376 183.289 116.29 185.449C115.983 185.517 115.677 185.585 115.361 185.656C113.327 186.061 111.41 186.244 109.587 185.089C108.806 184.476 108.455 183.963 108.251 182.986C108.192 181.726 108.331 180.903 108.874 179.755C110.313 178.203 112.045 177.935 114.038 177.594C118.748 176.71 122.945 175.132 127.148 172.851C127.327 172.757 127.505 172.663 127.688 172.565C131.537 170.521 134.825 167.929 137.988 164.941C138.222 164.726 138.456 164.512 138.697 164.29C146.87 156.507 151.842 145.125 152.156 133.883C152.184 132.316 152.194 130.75 152.201 129.183C152.205 128.402 152.215 127.621 152.225 126.84C152.224 126.607 152.223 126.373 152.222 126.132C152.243 124.599 152.499 123.528 153.223 122.168C154.471 121.061 155.378 120.764 157.031 120.996Z" fill="black"/>
<path d="M164.062 169.043C164.829 169.594 165.143 169.971 165.471 170.85C165.551 172.033 165.076 172.877 164.539 173.895C164.43 174.104 164.321 174.312 164.209 174.527C161.852 178.935 157.328 185.081 152.49 186.896C151.418 186.923 150.878 186.646 150 186.035C149.414 185.046 149.414 185.046 149.121 183.984C149.441 182.863 149.903 182.227 150.761 181.454C150.97 181.262 151.18 181.071 151.396 180.873C151.729 180.573 151.729 180.573 152.069 180.267C152.525 179.846 152.98 179.424 153.434 179.002C153.761 178.698 153.761 178.698 154.095 178.388C156.307 176.313 157.875 174.126 159.362 171.509C160.673 169.317 161.445 168.374 164.062 169.043Z" fill="black"/>
<path d="M136.815 154.395C137.731 155.046 137.95 155.395 138.188 156.5C137.892 158.14 137.011 159.018 135.936 160.254C135.664 160.585 135.393 160.916 135.123 161.248C134.839 161.595 134.554 161.941 134.269 162.286C134.134 162.453 133.998 162.619 133.858 162.791C132.806 164.044 132.15 164.571 130.534 164.777C129.49 164.648 129.49 164.648 128.648 164.026C127.926 163.049 127.637 162.645 127.733 161.426C128.144 160.809 128.614 160.304 129.128 159.77C129.89 158.97 130.587 158.124 131.285 157.269C134.468 153.389 134.468 153.389 136.815 154.395Z" fill="black"/>
<path d="M169.629 152.344C170.42 152.871 170.96 153.247 171.387 154.102C171.468 156.043 171.268 157.821 170.892 159.723C170.849 159.976 170.805 160.229 170.76 160.489C170.433 162.167 170.005 163.175 168.75 164.356C167.569 164.545 166.934 164.468 165.857 163.953C165.234 163.477 165.234 163.477 164.941 162.891C164.963 162.299 164.963 162.299 165.046 161.578C165.075 161.315 165.105 161.053 165.135 160.782C165.168 160.511 165.201 160.24 165.234 159.961C165.264 159.708 165.293 159.456 165.323 159.196C165.414 158.443 165.515 157.691 165.619 156.94C165.65 156.686 165.68 156.432 165.712 156.17C165.921 154.679 166.162 153.725 167.285 152.637C168.121 152.219 168.702 152.253 169.629 152.344Z" fill="black"/>
<path d="M144.142 187.207C144.856 187.848 144.856 187.848 145.314 188.672C145.314 189.746 145.237 190.423 144.603 191.302C143.471 192.192 142.223 192.565 140.864 193.012C140.598 193.107 140.332 193.202 140.058 193.299C138.337 193.875 136.84 194.147 135.06 193.653C134.313 193.022 134.203 192.554 133.925 191.62C133.879 190.507 134.055 190.108 134.767 189.258C136.142 188.468 137.554 188.034 139.07 187.61C139.511 187.484 139.951 187.358 140.392 187.232C140.759 187.127 141.127 187.022 141.505 186.914C142.639 186.536 143.063 186.723 144.142 187.207Z" fill="black"/>
<path d="M143.554 140.332C144.548 140.97 145.179 141.405 145.565 142.542C145.622 144 145.178 145.177 144.689 146.539C144.602 146.803 144.516 147.067 144.426 147.34C144.024 148.484 143.756 149.24 142.826 150.043C141.663 150.437 140.848 150.189 139.745 149.707C139.159 149.212 139.159 149.212 138.866 148.535C138.733 146.788 139.117 145.403 139.672 143.774C139.746 143.539 139.82 143.304 139.896 143.062C140.229 142.069 140.467 141.367 141.217 140.62C142.077 140.192 142.604 140.18 143.554 140.332Z" fill="black"/>
<path d="M122.752 164.942C123.678 165.748 123.897 166.215 124.071 167.432C123.89 168.699 123.714 169.072 122.752 169.922C120.84 171.041 118.844 171.818 116.6 171.68C115.601 171.305 115.273 171.032 114.732 170.123C114.503 169.137 114.534 168.545 114.842 167.578C115.92 166.563 117.108 165.981 118.468 165.436C118.746 165.314 118.746 165.314 119.031 165.191C120.382 164.643 121.343 164.586 122.752 164.942Z" fill="black"/>
</svg>
