<svg width="300" height="300" viewBox="0 0 300 300" fill="none" xmlns="http://www.w3.org/2000/svg">
<path d="M131.838 79.6875C132.719 80.1618 133.378 80.5827 133.998 81.3721C134.434 82.9402 134.203 84.5617 133.888 86.1328C134.673 86.525 135.403 86.4727 136.266 86.4957C151.187 86.9249 164.87 93.7028 175.197 104.297C176.647 105.868 177.974 107.531 179.28 109.222C179.547 109.566 179.547 109.566 179.819 109.917C180.999 111.444 182.15 112.986 183.267 114.56C183.965 115.505 184.431 115.816 185.548 116.113C185.804 116.183 186.06 116.252 186.324 116.324C186.598 116.398 186.872 116.471 187.154 116.547C200.345 120.227 211.254 128.882 218.007 140.808C220.61 145.548 222.345 150.594 223.537 155.859C223.589 156.09 223.642 156.321 223.696 156.559C225.317 164.141 225.017 172.961 223.244 180.469C223.194 180.697 223.144 180.925 223.092 181.161C221.099 190.099 216.274 197.895 210.06 204.492C209.776 204.805 209.776 204.805 209.486 205.124C201.535 213.532 188.776 219.296 177.224 219.763C162.544 220.094 149.181 216.134 138.283 205.957C137.971 205.652 137.971 205.652 137.653 205.34C135.642 203.527 133.994 203.244 131.343 203.119C130.586 203.062 129.829 203.001 129.073 202.938C128.699 202.907 128.325 202.876 127.94 202.845C113.339 201.359 98.8846 192.896 89.5872 181.704C88.7997 180.725 88.0492 179.723 87.3064 178.711C87.1251 178.47 86.9438 178.228 86.7571 177.98C77.652 165.481 74.1706 149.872 76.4746 134.642C77.8209 126.583 80.8085 118.6 85.5486 111.914C85.6811 111.726 85.8137 111.539 85.9503 111.346C87.971 108.513 90.1618 105.917 92.5798 103.418C92.7656 103.22 92.9514 103.023 93.1429 102.819C96.5169 99.3089 100.683 96.4637 104.885 94.043C105.097 93.9194 105.309 93.7958 105.527 93.6685C108.64 91.877 111.786 90.4628 115.193 89.3188C115.522 89.208 115.851 89.0972 116.189 88.983C120.824 87.4957 120.824 87.4957 122.756 88.2202C123.458 88.8787 123.709 89.2956 123.927 90.2344C123.905 91.326 123.743 91.8499 123.078 92.72C121.838 93.726 120.602 94.0073 119.075 94.4092C111.439 96.5793 105.097 100.407 99.0251 105.469C98.7572 105.687 98.7572 105.687 98.4838 105.909C88.8078 113.804 83.2108 126.642 81.9441 138.844C80.7753 151.973 84.3128 165.678 92.5798 176.074C92.7 176.227 92.8201 176.38 92.9439 176.537C97.4857 182.269 102.794 187.022 109.284 190.419C109.857 190.719 110.426 191.026 110.996 191.334C116.669 194.345 123.902 197.039 130.373 196.875C130.189 196.541 130.004 196.207 129.814 195.863C122.557 182.522 120.102 167.72 124.22 152.93C125.856 147.444 128.347 142.627 131.747 138.04C132.367 137.187 132.932 136.322 133.486 135.425C134.481 133.834 135.612 132.393 136.818 130.957C136.99 130.749 137.163 130.54 137.34 130.325C138.523 128.927 139.794 127.718 141.213 126.562C141.49 126.336 141.768 126.109 142.054 125.876C147.676 121.376 154.084 118.266 161.025 116.4C161.245 116.341 161.465 116.281 161.692 116.22C165.016 115.361 168.334 115.017 171.755 114.807C172.148 114.782 172.541 114.756 172.935 114.73C173.884 114.669 174.833 114.609 175.783 114.551C173.864 111.97 171.847 109.555 169.631 107.227C169.424 107.001 169.218 106.776 169.006 106.544C160.756 97.8243 148.031 92.9428 136.232 92.2852C134.774 92.2714 133.318 92.3051 131.861 92.3481C129.19 92.3871 129.19 92.3871 128.029 91.4062C126.871 90.0827 126.776 88.8898 126.791 87.1914C126.872 86.2593 127.134 85.5418 127.506 84.6909C127.775 83.98 127.889 83.2934 128.011 82.5439C128.228 81.3555 128.477 80.7114 129.494 79.9805C130.334 79.5606 130.904 79.5977 131.838 79.6875ZM164.064 121.289C163.843 121.341 163.622 121.393 163.395 121.447C156.976 123.005 151.101 126.043 145.9 130.078C146.828 130.363 147.206 130.35 148.226 130.188C149.157 130.049 149.379 130.061 150.276 130.481C151.163 131.18 151.163 131.18 151.254 131.804C151.264 132.032 151.273 132.26 151.283 132.495C151.298 132.72 151.312 132.945 151.327 133.177C151.087 134.287 150.608 134.669 149.709 135.352C148.774 135.67 147.822 135.835 146.852 136.011C141.692 137.096 137.306 139.506 134.361 143.982C134.205 144.227 134.049 144.473 133.888 144.727C133.668 145.055 133.668 145.055 133.443 145.389C127.366 154.833 126.591 167.527 128.763 178.269C130.564 186.516 134.48 194.012 140.334 200.098C140.472 200.245 140.611 200.393 140.753 200.545C148.551 208.838 159.662 213.678 171.011 214.196C183.168 214.539 194.28 210.909 203.615 203.027C203.859 202.823 204.104 202.618 204.355 202.407C209.278 198.145 214.566 191.228 215.121 184.474C215.248 180.04 213.972 176.66 211.617 172.952C211.068 171.972 211.074 171.32 211.232 170.215C211.886 169.355 212.408 168.879 213.393 168.439C214.572 168.467 215.354 168.858 216.213 169.629C216.813 170.458 217.342 171.304 217.858 172.188C217.992 172.407 218.126 172.626 218.263 172.852C218.36 172.852 218.457 172.852 218.556 172.852C219.496 167.591 218.963 161.952 217.97 156.738C217.933 156.527 217.895 156.315 217.856 156.097C216.256 147.297 211.502 139.65 205.373 133.301C205.113 133.014 205.113 133.014 204.849 132.721C198.083 125.418 186.661 120.85 176.843 120.361C172.523 120.222 168.275 120.253 164.064 121.289Z" fill="black"/>
<path d="M177.071 130.025C178.541 130.689 179.703 131.559 180.927 132.605C183.047 134.385 184.611 134.759 187.354 134.912C190.417 135.083 192.194 135.643 194.446 137.797C196.141 139.758 196.984 142.189 197.709 144.645C198.259 145.731 199.112 146.06 200.234 146.428C200.473 146.489 200.712 146.55 200.958 146.612C203.059 147.217 204.39 148.209 205.664 150C206.424 151.706 206.678 153.068 206.635 154.925C206.632 155.155 206.63 155.386 206.627 155.623C206.596 157.159 206.443 158.622 206.085 160.12C205.768 161.904 206.003 163.235 206.671 164.904C207.579 167.339 208.16 169.491 207.129 171.972C206.303 173.558 205.333 174.681 203.943 175.799C202.88 176.708 202.88 176.708 202.496 178.07C202.61 179.056 202.958 179.915 203.32 180.835C204.255 183.236 204.253 185.709 203.309 188.118C202.147 190.405 199.361 191.566 197.131 192.59C194.932 193.676 193.587 195.347 192.206 197.332C190.831 199.281 189.205 200.796 186.914 201.562C185.291 201.787 183.966 201.553 182.497 200.847C181.694 200.614 181.262 200.706 180.469 200.976C179.869 201.438 179.322 201.896 178.766 202.404C176.95 203.983 175.409 204.997 172.888 204.864C170.331 204.539 168.939 203.666 167.085 201.885C166.184 201.068 165.528 200.706 164.356 200.39C163.768 200.478 163.182 200.577 162.598 200.683C160.01 200.913 158 200.768 155.859 199.218C155.153 198.57 154.463 197.909 153.778 197.237C152.281 195.826 150.588 195.011 148.73 194.166C146.974 193.348 145.799 192.606 144.946 190.814C144.736 190.386 144.736 190.386 144.521 189.95C143.551 187.436 143.338 184.776 143.063 182.113C142.729 179.273 141.879 177.007 140.167 174.719C138.525 172.435 137.595 170.451 137.988 167.578C138.645 165.256 140.199 163.494 141.734 161.69C142.486 160.767 142.93 160.154 143.17 158.972C142.979 157.963 142.712 157.357 142.236 156.463C141.36 154.807 141.216 153.735 141.688 151.933C142.899 148.408 145.574 146.585 148.564 144.631C150.492 143.338 151.906 142.123 152.966 140.039C153.993 138.071 154.964 136.37 157.05 135.406C157.295 135.289 157.54 135.173 157.792 135.053C159.927 134.181 162.177 134.366 164.429 134.655C166.111 134.824 167.23 134.663 168.621 133.614C169.178 133.155 169.732 132.692 170.284 132.226C172.472 130.38 174.159 129.031 177.071 130.025ZM174.317 134.179C173.165 135.42 173.056 136.607 173.081 138.272C173.181 139.204 173.508 139.851 174.024 140.625C174.624 141.036 174.624 141.036 175.195 141.211C176.003 140.513 176.331 139.878 176.66 138.867C176.726 137.343 176.596 136.032 175.818 134.71C175.22 134.084 175.22 134.084 174.317 134.179ZM158.284 139.357C157.603 140.599 157.738 141.886 157.91 143.261C158.273 144.415 158.631 145.349 159.709 145.961C159.979 146.075 159.979 146.075 160.254 146.191C161.206 145.686 161.206 145.686 161.426 144.726C161.57 142.808 161.672 141.097 160.547 139.453C160.354 139.259 160.16 139.066 159.961 138.867C158.812 138.731 158.812 138.731 158.284 139.357ZM188.379 139.453C187.643 141.488 187.694 143.143 188.489 145.166C188.911 145.981 188.911 145.981 189.844 146.191C190.951 145.119 191.356 144.587 191.4 143.042C191.391 141.438 190.983 140.592 189.844 139.453C189.356 139.441 188.867 139.44 188.379 139.453ZM165.656 140.039C164.608 141.496 164.432 143.564 164.649 145.312C165.028 146.938 165.553 147.894 166.992 148.828C168.16 147.773 168.411 147.158 168.517 145.609C168.551 143.188 168.341 141.769 166.992 139.746C166.146 139.667 166.146 139.667 165.656 140.039ZM180.465 140.523C179.101 142.134 178.905 144.44 179.059 146.484C179.171 147.49 179.386 148.237 179.883 149.121C181.033 149.068 181.506 148.974 182.3 148.114C183.282 146.115 183.632 144.255 183.039 142.085C182.714 141.251 182.28 140.658 181.641 140.039C181.003 139.977 181.003 139.977 180.465 140.523ZM172.101 146.338C170.91 148.408 170.915 150.631 171.387 152.929C171.712 153.759 171.712 153.759 172.266 154.394C173.025 154.654 173.025 154.654 173.731 154.687C174.97 152.568 175.659 150.9 175.025 148.466C174.667 147.416 174.305 146.596 173.438 145.898C172.559 145.797 172.559 145.797 172.101 146.338ZM188.635 150.933C187.476 151.952 186.729 153.22 186.54 154.763C186.518 155.47 186.518 155.47 186.621 156.445C186.936 156.816 186.936 156.816 187.665 156.866C189.124 156.68 189.978 155.995 191.016 154.98C192.34 153.248 192.815 151.907 192.774 149.707C191.028 149.142 190.054 149.94 188.635 150.933ZM154.688 150.586C154.766 152.812 155.476 154.259 157.012 155.866C158.051 156.828 158.793 157.504 160.254 157.617C160.952 157.042 160.952 157.042 160.95 155.969C160.899 154.311 160.311 153.003 159.154 151.816C158.103 150.896 156.04 149.233 154.688 150.586ZM145.606 151.464C145.507 152.528 145.522 153.084 146.082 154.01C147.485 155.376 148.703 155.664 150.6 155.654C151.24 155.613 151.24 155.613 151.758 154.98C151.731 153.966 151.484 153.539 150.842 152.746C149.375 151.534 147.468 150.533 145.606 151.464ZM195.978 153.808C195.645 154.384 195.645 154.384 195.776 155.035C195.955 155.562 195.955 155.562 196.289 155.859C197.858 156.022 199.135 156.051 200.556 155.328C201.312 154.703 201.312 154.703 201.856 153.808C201.81 153.041 201.81 153.041 201.563 152.343C199.59 151.357 197.432 152.398 195.978 153.808ZM166.113 154.98C165.522 156.162 165.626 157.61 166.031 158.846C166.864 160.613 168.098 162.095 169.922 162.89C170.597 162.688 170.597 162.688 171.094 162.304C171.255 160.447 170.853 158.945 169.922 157.324C168.801 156.03 167.834 155.222 166.113 154.98ZM177.832 156.445C176.482 157.897 175.763 159.487 175.726 161.48C175.73 162.575 175.73 162.575 176.074 163.476C177.286 163.405 177.959 163.319 178.912 162.542C180.553 160.547 181.598 158.808 181.348 156.152C180.987 155.571 180.987 155.571 180.469 155.273C179.442 155.273 178.635 155.855 177.832 156.445ZM190.137 161.425C190.234 162.33 190.431 162.598 191.107 163.238C192.754 164.349 194.656 164.206 196.582 164.062C197.656 163.692 198.142 163.498 198.743 162.542C198.833 162.28 198.833 162.28 198.926 162.011C197.547 160.764 196.476 160.053 194.568 159.887C192.907 160.02 191.401 160.267 190.137 161.425ZM147.656 161.425C147.326 162.191 147.326 162.191 147.363 162.89C149.288 164.12 150.964 164.243 153.223 164.062C154.359 163.78 155.31 163.44 156.152 162.597C156.099 161.772 155.928 161.487 155.31 160.931C153.019 159.516 149.775 159.918 147.656 161.425ZM160.547 166.113C160.642 167.004 160.834 167.279 161.499 167.907C163.279 169.121 164.885 169.245 166.992 169.043C168.045 168.753 168.847 168.359 169.629 167.578C169.576 166.752 169.405 166.468 168.787 165.911C167.566 165.158 166.404 165.171 165.015 165.161C164.812 165.155 164.61 165.149 164.401 165.142C162.906 165.131 161.886 165.447 160.547 166.113ZM179.883 166.699C179.786 166.989 179.69 167.279 179.59 167.578C180.88 169.02 181.894 169.539 183.82 169.727C186.492 169.798 186.492 169.798 188.672 168.457C188.685 167.76 188.685 167.76 188.379 166.992C185.996 165.086 182.344 164.777 179.883 166.699ZM142.676 169.336C142.394 169.896 142.394 169.896 142.383 170.507C142.887 171.459 142.887 171.459 143.848 171.679C145.534 171.846 146.777 171.729 148.242 170.8C148.912 170.262 148.912 170.262 148.865 169.445C148.853 169.216 148.841 168.986 148.828 168.75C146.637 167.894 144.584 167.828 142.676 169.336ZM195.703 169.043C195.462 169.639 195.462 169.639 195.41 170.214C196.945 171.569 198.368 172.108 200.401 172.046C201.335 171.927 201.971 171.634 202.734 171.093C203.018 170.336 203.018 170.336 203.027 169.629C201.883 168.66 200.761 168.237 199.274 168.072C198.038 168.193 196.794 168.427 195.703 169.043ZM151.172 171.386C151.184 171.95 151.184 171.95 151.465 172.558C153.03 173.742 154.868 173.623 156.738 173.437C157.651 173.214 158.51 172.925 159.375 172.558C159.472 172.075 159.568 171.591 159.668 171.093C156.896 169.265 153.747 168.972 151.172 171.386ZM170.801 171.972C169.697 174.102 169.404 176.083 169.922 178.418C170.328 179.149 170.328 179.149 170.801 179.589C171.956 179.204 172.658 178.772 173.438 177.832C174.025 176.647 174.119 175.631 174.133 174.316C174.142 173.966 174.15 173.615 174.159 173.254C174 172.096 173.678 171.612 172.852 170.8C171.887 170.8 171.483 171.323 170.801 171.972ZM186.621 172.558C186.365 173.103 186.365 173.103 186.328 173.73C187.097 175.255 188.479 176.152 190.026 176.762C191.135 177.066 192.223 177.149 193.359 176.953C193.65 176.759 193.94 176.566 194.238 176.367C194.116 174.938 193.546 174.36 192.481 173.437C190.859 172.11 188.534 171.303 186.621 172.558ZM179.004 173.73C178.185 174.738 177.985 175.606 178.042 176.9C178.305 178.911 178.978 180.547 180.469 181.933C181.399 182.215 181.399 182.215 182.227 182.226C183.107 180.906 182.976 179.672 182.813 178.125C182.31 176.188 181.29 174.798 179.59 173.73C179.397 173.73 179.203 173.73 179.004 173.73ZM159.961 177.246C158.727 178.894 158.163 180.202 158.185 182.281C158.188 182.599 158.19 182.918 158.193 183.246C158.196 183.489 158.2 183.733 158.203 183.984C158.747 184.176 158.747 184.176 159.375 184.277C161.713 183.033 162.75 181.346 163.58 178.917C163.837 177.844 163.759 177.131 163.477 176.074C161.916 175.925 161.153 176.232 159.961 177.246ZM146.777 179.297C146.681 179.587 146.584 179.877 146.484 180.175C146.787 180.837 146.787 180.837 147.363 181.347C149.339 181.817 151.009 181.308 152.702 180.289C153.301 179.866 153.301 179.866 153.809 179.004C153.931 178.259 153.931 178.259 153.809 177.539C151.345 175.896 148.667 177.497 146.777 179.297ZM186.914 181.054C186.071 181.897 186.11 182.509 186.035 183.691C186.285 185.976 187.186 187.757 188.965 189.257C189.591 189.488 189.591 189.488 190.137 189.55C190.88 188.808 191.016 188.375 191.144 187.317C191.059 185.499 190.491 183.822 189.265 182.463C188.234 181.431 188.234 181.431 186.914 181.054ZM193.945 181.347C193.638 181.974 193.638 181.974 193.652 182.812C194.397 184.013 195.272 184.901 196.582 185.449C197.966 185.751 198.826 185.811 200.098 185.156C200.098 184.206 199.953 183.584 199.356 182.835C198.111 181.639 197.132 181.116 195.405 181.018C194.762 181.033 194.762 181.033 193.945 181.347ZM166.992 182.812C165.433 184.528 165.108 186.284 165.16 188.542C165.274 189.64 165.546 190.357 166.113 191.308C166.64 191.745 166.64 191.745 167.285 191.601C168.734 190.541 169.324 189.224 169.629 187.5C169.667 185.912 169.561 184.328 168.457 183.105C167.698 182.845 167.698 182.845 166.992 182.812ZM176.074 184.57C175.207 185.437 175.146 186.341 175.104 187.536C175.129 189.475 175.797 191.372 177.1 192.828C177.774 193.438 177.774 193.438 178.51 193.304C178.673 193.226 178.836 193.147 179.004 193.066C179.768 190.82 179.969 188.999 178.931 186.804C178.412 185.796 177.933 185.159 176.953 184.57C176.663 184.57 176.373 184.57 176.074 184.57ZM152.307 186.181C151.279 187.075 150.84 187.717 150.293 188.964C150.339 189.988 150.446 190.289 151.172 191.015C152.344 190.983 153.126 190.496 153.995 189.726C154.689 188.912 155.078 187.961 155.274 186.914C155.177 186.624 155.08 186.334 154.981 186.035C153.864 185.716 153.371 185.671 152.307 186.181ZM159.448 191.253C158.632 192.672 158.41 193.762 158.496 195.41C158.754 196.099 158.754 196.099 159.082 196.582C160.232 196.516 160.536 196.301 161.353 195.446C162.135 194.36 162.349 193.64 162.36 192.334C162.366 191.994 162.366 191.994 162.372 191.647C162.345 190.928 162.345 190.928 161.719 190.136C160.462 189.763 160.089 190.243 159.448 191.253ZM183.984 190.722C183.242 191.465 183.295 191.778 183.27 192.81C183.301 194.262 183.556 195.26 184.402 196.445C185.168 197.158 185.903 197.187 186.914 197.168C187.384 196.698 187.291 196.206 187.317 195.556C187.306 193.621 186.516 192.082 185.156 190.722C184.77 190.722 184.383 190.722 183.984 190.722ZM170.801 193.359C169.925 194.827 170.04 196.389 170.215 198.047C170.496 198.944 170.773 199.35 171.387 200.097C172.155 200.403 172.155 200.403 172.852 200.39C173.613 199.375 173.904 198.526 173.853 197.245C173.613 195.944 173.086 194.691 172.266 193.652C171.508 193.402 171.508 193.402 170.801 193.359Z" fill="black"/>
<path d="M111.037 105.175C111.875 105.764 112.396 106.182 112.632 107.207C112.693 108.285 112.62 108.802 112.015 109.731C111.249 110.533 110.57 110.907 109.572 111.383C105.416 113.542 102.704 116.544 100.618 120.703C99.5805 122.679 99.5805 122.679 98.5854 123.193C97.2605 123.382 96.6438 123.159 95.5093 122.46C94.7319 121.61 94.6356 121.14 94.5938 119.989C95.4527 115.229 99.4956 110.753 103.314 108.059C108.589 104.45 108.589 104.45 111.037 105.175Z" fill="black"/>
<path d="M98.4372 129.492C99.4111 130.276 99.5747 130.804 99.8471 132.019C99.7756 133.604 98.65 134.57 97.6532 135.709C95.416 138.386 94.6799 141.725 94.5187 145.148C94.4431 146.206 94.3577 146.993 93.7497 147.876C92.7144 148.652 92.1345 148.775 90.8658 148.691C89.8503 148.441 89.3791 147.89 88.7692 147.07C87.6202 143.623 89.0097 138.718 90.432 135.48C92.1854 132.252 94.3022 128.442 98.4372 129.492Z" fill="black"/>
<path d="M154.979 104.004C158.325 106.624 158.325 106.624 158.641 108.838C158.495 109.864 158.495 109.864 157.89 110.706C156.85 111.458 156.262 111.644 154.979 111.621C154.059 111.151 153.386 110.591 152.604 109.921C149.744 107.522 146.64 106.03 143.038 105.135C142.059 104.871 141.571 104.678 140.938 103.868C140.54 102.927 140.458 102.381 140.624 101.368C141.123 100.515 141.685 99.7609 142.638 99.4037C146.698 98.8365 151.822 101.752 154.979 104.004Z" fill="black"/>
<path d="M99.6078 166.113C100.719 166.723 101.659 167.317 102.245 168.457C102.548 169.71 102.683 170.721 102.208 171.936C101.563 172.667 101.101 173.066 100.194 173.437C98.9404 173.437 98.3331 173.291 97.3373 172.522C96.3908 171.313 95.7863 170.276 95.8176 168.713C96.1363 167.736 96.5616 167.151 97.2641 166.406C98.1038 165.986 98.6742 166.024 99.6078 166.113Z" fill="black"/>
<path d="M114.844 178.418C115.884 179.109 116.487 179.911 116.739 181.141C116.793 182.496 116.624 183.508 115.723 184.571C114.488 185.316 113.321 185.36 111.914 185.157C111.009 184.637 110.586 184.209 110.046 183.326C109.792 182.207 109.768 181.252 110.156 180.176C111.306 178.562 112.906 177.843 114.844 178.418Z" fill="black"/>
</svg>
