<svg width="300" height="300" viewBox="0 0 300 300" fill="none" xmlns="http://www.w3.org/2000/svg">
<path d="M143.28 68.4816C143.483 68.4814 143.686 68.4812 143.895 68.481C161.498 68.5079 179.647 74.3538 193.36 85.547C193.655 85.7823 193.949 86.0175 194.253 86.26C197.734 89.0814 201.282 92.2361 203.815 95.9474C205.174 97.8778 206.952 98.9094 208.922 100.134C214.584 103.773 219.675 108.71 223.828 113.965C224.041 114.216 224.254 114.468 224.473 114.727C236.45 128.899 242.723 148.931 241.187 167.359C240.541 174.903 238.962 182.327 235.84 189.258C235.687 189.602 235.687 189.602 235.53 189.954C230.992 200.064 224.193 209.442 215.332 216.211C215.175 216.334 215.018 216.456 214.856 216.582C211.349 219.307 207.583 221.55 203.613 223.535C215.602 223.632 227.59 223.729 239.942 223.828C239.942 226.342 239.942 228.856 239.942 231.445C180.484 231.445 121.026 231.445 59.7658 231.445C59.7658 224.121 59.7658 224.121 60.0588 223.828C60.8367 223.796 61.6071 223.783 62.3852 223.782C62.6319 223.78 62.8786 223.779 63.1328 223.778C63.9659 223.773 64.799 223.771 65.6322 223.768C66.2268 223.765 66.8214 223.762 67.416 223.759C69.0358 223.751 70.6555 223.745 72.2753 223.739C73.966 223.733 75.6567 223.725 77.3474 223.717C80.5514 223.702 83.7554 223.689 86.9594 223.677C90.6061 223.662 94.2527 223.646 97.8994 223.63C105.403 223.597 112.907 223.565 120.41 223.535C120.174 223.451 119.937 223.367 119.694 223.281C118.806 222.966 117.919 222.65 117.032 222.334C116.65 222.198 116.267 222.062 115.885 221.927C113.27 220.999 110.687 220.052 108.161 218.903C107.841 218.759 107.521 218.615 107.192 218.467C99.0639 214.737 91.7209 209.731 85.1202 203.707C84.5994 203.232 84.075 202.761 83.5478 202.293C81.9413 200.859 80.4827 199.402 79.1018 197.754C78.8469 197.466 78.5919 197.178 78.3293 196.882C74.5763 192.634 71.373 188.02 68.5549 183.106C68.3687 182.781 68.3687 182.781 68.1787 182.451C59.5851 167.291 56.2993 148.787 60.9778 131.844C63.4181 123.628 67.4926 115.81 72.6565 108.984C72.7868 108.812 72.9171 108.639 73.0514 108.461C74.6602 106.345 76.3365 104.326 78.1462 102.377C78.7181 101.758 79.2697 101.129 79.8159 100.488C81.1544 98.944 82.6262 97.5262 84.0823 96.0939C82.2291 93.8178 80.1046 91.8049 78.0198 89.7445C74.5083 86.2704 74.5083 86.2704 73.0421 84.5229C72.6231 84.0243 72.6231 84.0243 71.924 83.4413C71.4846 82.9103 71.4846 82.9103 71.5475 82.2156C72.1243 80.2846 74.0034 78.9154 75.4957 77.6529C76.5098 76.7504 77.4546 75.7813 78.4022 74.8099C78.8255 74.3792 79.2539 73.9553 79.6877 73.5353C79.8387 73.3888 79.9897 73.2424 80.1452 73.0915C81.2747 72.0641 81.2747 72.0641 81.989 72.0904C82.8949 72.484 83.4458 73.0831 84.1418 73.7813C84.2832 73.9226 84.4246 74.0638 84.5703 74.2094C84.8677 74.5075 85.1642 74.8068 85.4595 75.107C85.9132 75.5677 86.3707 76.0242 86.8288 76.4804C89.0627 78.7269 89.0627 78.7269 89.0627 79.3946C89.2561 79.3946 89.4494 79.3946 89.6487 79.3946C90.0206 79.7734 90.0206 79.7734 90.4726 80.3285C92.0376 82.1764 93.7855 83.8478 95.508 85.547C96.7278 84.8794 97.8423 84.1895 98.9438 83.3347C111.408 73.6859 127.602 68.4955 143.28 68.4816ZM104.004 89.0626C103.815 89.1985 103.625 89.3343 103.43 89.4743C100.57 91.5427 97.8578 93.7549 95.2151 96.0939C94.9398 96.3363 94.6644 96.5788 94.3808 96.8286C93.0991 97.9691 91.8558 99.1317 90.666 100.368C90.2346 100.781 90.2346 100.781 89.3557 101.367C89.3557 101.561 89.3557 101.754 89.3557 101.953C89.1816 102.028 89.0075 102.104 88.8281 102.181C88.1221 102.573 87.7594 102.96 87.25 103.583C86.4885 104.486 85.6989 105.324 84.8513 106.146C83.3966 107.584 82.133 109.145 80.8596 110.742C80.6806 110.953 80.5016 111.165 80.3171 111.382C70.2867 123.355 65.2795 138.008 66.6392 153.575C68.2511 168.461 75.0225 182.724 85.4143 193.479C86.133 194.238 86.133 194.238 86.7499 195.013C87.2506 195.636 87.7392 196.125 88.3486 196.637C89.0215 197.209 89.6807 197.784 90.3216 198.393C94.5061 202.356 99.3077 205.455 104.297 208.301C104.573 208.463 104.573 208.463 104.854 208.627C112.13 212.892 120.518 215.439 128.668 217.42C129.052 217.513 129.052 217.513 129.444 217.608C130.661 217.958 130.661 217.958 131.836 217.676C131.637 217.53 131.437 217.384 131.232 217.233C130.255 216.51 129.286 215.777 128.321 215.039C128.143 214.904 127.966 214.769 127.784 214.63C123.197 211.107 118.933 207.054 115.43 202.442C115.208 202.166 114.987 201.891 114.758 201.607C110.861 196.706 107.311 191.231 104.883 185.449C104.69 185.449 104.496 185.449 104.297 185.449C104.255 185.274 104.212 185.099 104.169 184.918C104.037 184.406 103.878 183.9 103.711 183.399C103.518 183.399 103.324 183.399 103.125 183.399C103.043 183.028 102.961 182.657 102.876 182.275C102.795 181.913 102.795 181.913 102.713 181.544C102.599 181.029 102.485 180.515 102.372 180.001C102.2 179.216 102.022 178.432 101.843 177.649C101.757 177.252 101.757 177.252 101.67 176.848C101.296 175.224 100.806 173.961 99.9026 172.559C100.193 172.752 100.483 172.945 100.781 173.145C100.739 172.886 100.696 172.628 100.652 172.362C100.491 171.389 100.331 170.415 100.172 169.441C100.103 169.023 100.034 168.604 99.9646 168.186C98.5167 159.459 98.2009 149.935 100.649 141.344C100.958 139.671 100.137 138.367 99.4082 136.908C96.0915 130.015 94.5631 122.525 94.5559 114.899C94.5556 114.683 94.5553 114.468 94.555 114.246C94.5593 109.636 95.0691 105.383 96.4545 100.983C96.7202 100.191 96.7202 100.191 96.6799 99.3165C97.0341 99.2825 97.3884 99.2485 97.7534 99.2135C99.2379 99.0486 100.699 98.7882 102.168 98.5214C109.105 97.2624 116.151 96.3237 123.212 96.3502C123.515 96.3491 123.817 96.3479 124.129 96.3468C125.636 96.3487 127.121 96.3973 128.622 96.5356C129.205 96.585 129.788 96.6331 130.371 96.6798C130.666 96.7047 130.96 96.7295 131.263 96.7551C133.601 96.8669 135.034 96.2712 137.018 95.0868C151.086 87.2406 167.863 86.16 183.399 89.3556C183.948 89.4657 184.497 89.5756 185.047 89.6852C185.474 89.7706 185.901 89.8561 186.328 89.9415C185.561 89.1275 184.832 88.5213 183.861 87.9686C183.611 87.8257 183.361 87.6828 183.104 87.5355C182.839 87.3869 182.573 87.2382 182.3 87.0851C182.025 86.93 181.751 86.7749 181.468 86.6151C179.122 85.3 176.751 84.0541 174.317 82.9103C174.002 82.7615 173.687 82.6127 173.363 82.4594C166.076 79.1797 157.978 77.038 150 76.465C149.744 76.4457 149.488 76.4265 149.224 76.4067C133.129 75.2834 117.135 79.6254 104.004 89.0626ZM150.586 97.2657C150.261 97.3555 150.261 97.3555 149.929 97.4471C141.165 99.9229 132.837 104.912 126.217 111.139C125.684 111.621 125.684 111.621 125.098 111.914C125.098 112.108 125.098 112.301 125.098 112.5C124.942 112.559 124.785 112.617 124.624 112.677C123.616 113.268 122.914 114.076 122.132 114.935C121.963 115.119 121.795 115.302 121.622 115.491C120.033 117.245 118.568 119.073 117.188 120.996C117.011 121.241 117.011 121.241 116.83 121.491C107.68 134.277 104.103 150.758 106.632 166.252C108.976 179.222 114.42 191.179 123.508 200.807C124.127 201.465 124.716 202.137 125.299 202.826C126.312 203.989 127.435 204.966 128.614 205.957C128.884 206.195 129.155 206.433 129.434 206.678C142.42 218.034 159.932 224.206 177.204 223.162C191.905 222.124 205.293 216.089 215.918 205.957C216.183 205.712 216.447 205.466 216.719 205.213C220.408 201.685 223.33 197.47 225.879 193.067C225.992 192.872 226.106 192.677 226.222 192.477C234.56 177.951 235.946 160.39 231.635 144.375C227.646 130.121 219.059 116.966 207.129 108.106C206.886 107.922 206.886 107.922 206.639 107.734C190.788 95.7427 169.693 91.867 150.586 97.2657ZM107.245 105.652C107.025 105.684 106.804 105.716 106.577 105.75C104.388 105.872 104.388 105.872 102.539 106.641C101.351 114.038 101.798 121.248 104.297 128.32C104.975 127.698 105.392 127.116 105.8 126.293C105.971 125.954 105.971 125.954 106.146 125.608C106.267 125.367 106.388 125.126 106.513 124.878C107.85 122.279 109.339 119.858 111.035 117.481C111.249 117.181 111.462 116.881 111.682 116.572C114.686 112.47 118.183 107.98 122.296 104.941C122.447 104.825 122.598 104.709 122.754 104.59C122.754 104.397 122.754 104.203 122.754 104.004C117.615 104.004 112.319 104.902 107.245 105.652Z" fill="black"/>
<path d="M178.125 107.52C178.398 107.664 178.67 107.808 178.951 107.957C180.563 108.852 181.922 109.795 183.289 111.035C184.316 111.93 184.316 111.93 185.582 112.309C186.298 112.235 186.298 112.235 187.017 112.074C193.215 110.795 200.154 113.377 205.371 116.602C206.418 117.317 207.365 118.091 208.301 118.946C208.514 119.14 208.514 119.14 208.732 119.339C210.803 121.253 212.523 123.181 213.867 125.684C214.045 126.012 214.222 126.339 214.405 126.677C217.821 133.303 218.209 141.287 216.046 148.371C215.919 148.767 215.79 149.164 215.66 149.56C215.552 149.898 215.444 150.237 215.332 150.586C215.247 150.838 215.163 151.09 215.076 151.349C215.021 152.401 215.491 152.916 216.083 153.772C218.82 157.954 220.426 163.16 220.605 168.164C220.621 168.498 220.636 168.833 220.651 169.177C220.905 179.801 216.656 189.186 209.473 196.875C201.58 204.878 189.808 209.159 178.701 209.291C178.144 209.291 178.144 209.291 177.576 209.29C177.38 209.29 177.185 209.289 176.984 209.289C167.683 209.255 159.35 206.789 152.051 200.977C151.244 200.439 150.927 200.296 150.023 200.139C149.684 200.076 149.684 200.076 149.339 200.012C149.098 199.968 148.857 199.924 148.608 199.878C144.563 199.071 141.222 197.766 137.988 195.117C137.782 194.965 137.575 194.813 137.362 194.656C134.394 192.341 132.608 188.778 131.836 185.156C131.818 184.782 131.8 184.407 131.781 184.021C131.447 182.737 130.721 182.372 129.667 181.619C123.302 176.901 119.937 168.718 118.652 161.133C117.352 152.02 119.018 142.771 124.199 135.099C125.956 132.809 128.234 130.199 130.664 128.613C130.857 128.613 131.051 128.613 131.25 128.613C131.277 128.07 131.277 128.07 131.305 127.515C131.629 124.656 133.043 122.083 134.766 119.824C135.002 119.505 135.002 119.505 135.244 119.179C138.621 114.998 143.695 112.841 148.865 111.969C151.266 111.556 152.694 110.889 154.633 109.389C161.31 104.405 170.749 103.556 178.125 107.52ZM155.951 116.71C153.874 118.712 152.362 118.938 149.525 118.923C146.061 118.914 143.191 120.554 140.698 122.827C139.086 124.552 138.272 126.209 138.197 128.586C138.093 131.099 138.093 131.099 137.285 132.002C136.221 132.861 135.032 133.51 133.836 134.165C129.45 136.686 126.643 141.867 125.329 146.591C123.257 154.439 123.605 163.021 127.745 170.152C130.312 174.351 133.841 177.49 138.281 179.59C138.274 179.81 138.268 180.03 138.261 180.256C138.198 183.796 138.595 186.861 141.028 189.569C144.204 192.574 148.141 193.434 152.378 193.409C153.098 193.367 153.707 193.274 154.395 193.067C154.467 193.279 154.54 193.491 154.614 193.71C156.393 197.7 160.775 199.84 164.63 201.342C168.867 202.892 173.23 203.432 177.722 203.412C178.108 203.41 178.493 203.409 178.89 203.407C189.718 203.273 199.021 199.406 206.67 191.769C212.343 185.771 215.299 177.712 215.112 169.502C214.969 166.124 214.187 163.005 212.695 159.961C212.566 159.691 212.436 159.42 212.303 159.142C211.364 157.301 210.218 155.792 208.844 154.251C208.252 153.45 208.035 153.043 208.008 152.051C208.323 151.176 208.323 151.176 208.795 150.202C211.531 144.273 212.078 137.573 209.994 131.357C207.996 126.309 204.384 122.486 199.512 120.117C196.822 119.044 194.336 118.593 191.455 118.579C191.189 118.576 190.923 118.573 190.649 118.57C188.869 118.575 187.216 118.783 185.47 119.117C182.012 119.764 182.012 119.764 180.838 119.03C180.286 118.286 180.286 118.286 179.811 117.454C178.067 114.561 174.409 113.11 171.264 112.323C165.907 111.504 159.898 112.887 155.951 116.71Z" fill="black"/>
<path d="M178.955 148.143C181.965 150.147 183.906 152.96 185.033 156.372C185.596 159.371 185.359 162.508 183.985 165.234C183.864 165.483 183.743 165.732 183.619 165.988C181.822 169.323 178.836 171.563 175.233 172.65C171.775 173.364 168.284 172.757 165.29 170.874C164.874 170.566 164.465 170.249 164.063 169.922C163.862 169.76 163.661 169.599 163.453 169.432C161.16 167.38 159.494 164.244 159.306 161.16C159.198 156.722 160.025 153.325 163.149 150C167.464 145.955 173.876 145.165 178.955 148.143Z" fill="black"/>
<path d="M173.216 118.524C175.353 120.266 176.85 122.965 177.245 125.684C177.707 130.614 176.83 134.881 173.729 138.867C169.815 143.576 169.815 143.576 167.87 144.434C165.641 144.228 163.719 141.501 162.352 139.939C159.399 136.32 157.509 131.887 157.909 127.149C158.511 123.537 159.623 120.509 162.592 118.201C166.116 115.871 169.772 116.221 173.216 118.524Z" fill="black"/>
<path d="M198.926 126.855C202.02 128.278 204.084 132.933 205.371 135.938C206.346 138.866 206.504 141.506 205.719 144.47C205.67 144.668 205.622 144.867 205.572 145.071C204.951 147.495 204.064 149.037 201.903 150.32C201.326 150.631 200.743 150.923 200.153 151.208C199.843 151.361 199.843 151.361 199.527 151.516C196.073 153.185 192.703 154.202 188.965 152.93C189.974 143.848 195.139 135.042 198.926 126.855Z" fill="black"/>
<path d="M155.558 143.097C157.731 144.936 159.96 146.954 161.426 149.414C161.426 149.704 161.426 149.994 161.426 150.293C156.615 153.099 152.527 154.345 147.027 152.903C141.522 151.292 137.403 147.488 134.575 142.616C134.2 141.839 134.009 141.182 133.887 140.332C141.7 137.523 148.833 137.865 155.558 143.097Z" fill="black"/>
<path d="M205.371 159.082C207.591 160.928 209.124 162.925 209.491 165.838C209.624 168.902 208.666 171.843 207.422 174.609C205.641 174.454 204.207 173.903 202.588 173.163C202.202 172.987 202.202 172.987 201.809 172.807C195.61 169.898 189.986 165.106 186.621 159.082C186.621 158.792 186.621 158.502 186.621 158.203C193.058 155.773 199.444 154.754 205.371 159.082Z" fill="black"/>
<path d="M193.945 170.801C200.006 174.364 203.451 179.938 205.371 186.621C205.371 186.814 205.371 187.008 205.371 187.207C201.75 188.467 197.899 187.685 194.493 186.08C189.552 183.552 186.074 179.726 183.563 174.811C183.463 174.614 183.362 174.418 183.259 174.216C182.703 173.079 182.367 172.075 182.227 170.801C185.671 168.759 190.4 169.129 193.945 170.801Z" fill="black"/>
<path d="M191.894 124.512C193.205 131.579 191.18 139.551 187.279 145.512C186.066 147.138 184.642 148.676 183.105 150C182.912 150 182.718 150 182.519 150C179.522 146.301 178.43 141.771 178.71 137.109C179.43 133.02 182.03 129.799 185.284 127.35C187.25 125.986 189.428 124.512 191.894 124.512Z" fill="black"/>
<path d="M176.073 174.902C178.451 176.99 179.446 181.353 179.658 184.398C179.742 188.522 178.773 192.129 176.011 195.267C174.94 196.372 173.934 197.335 172.557 198.047C172.267 198.047 171.977 198.047 171.678 198.047C171.439 197.303 171.201 196.558 170.964 195.813C170.897 195.604 170.83 195.395 170.76 195.18C169.411 190.919 169.013 185.117 171.093 181.055C171.22 180.802 171.348 180.549 171.479 180.289C172.622 178.233 174.101 176.217 176.073 174.902Z" fill="black"/>
<path d="M153.259 163.147C153.559 163.145 153.559 163.145 153.864 163.143C155.048 163.146 156.163 163.249 157.324 163.476C156.77 166.984 154.172 169.899 151.501 172.082C148.551 174.17 144.738 174.719 141.211 174.316C138.902 173.751 136.887 172.911 135.059 171.387C138.419 166.84 144.201 164.284 149.615 163.275C150.826 163.152 152.043 163.154 153.259 163.147Z" fill="black"/>
<path d="M130.666 150.879C132.178 151.054 133.564 151.396 135.01 151.877C135.226 151.947 135.443 152.018 135.666 152.091C136.368 152.32 137.069 152.551 137.77 152.783C138.255 152.942 138.74 153.101 139.224 153.26C140.439 153.658 141.653 154.058 142.867 154.459C143.52 154.676 144.174 154.891 144.828 155.107C145.936 155.472 147.044 155.84 148.152 156.207C148.482 156.317 148.812 156.426 149.152 156.539C149.601 156.689 149.601 156.689 150.06 156.842C150.319 156.929 150.579 157.016 150.846 157.105C151.466 157.324 151.466 157.324 152.052 157.617C151.63 158.703 151.166 159.049 150.131 159.557C149.857 159.691 149.583 159.826 149.301 159.964C149.007 160.102 148.712 160.24 148.409 160.382C148.107 160.524 147.806 160.667 147.496 160.813C139.523 164.465 139.523 164.465 136.138 163.228C133.29 161.311 131.874 158.828 130.764 155.584C130.615 154.673 130.639 153.778 130.647 152.856C130.65 152.486 130.653 152.116 130.655 151.735C130.659 151.452 130.662 151.17 130.666 150.879Z" fill="black"/>
<path d="M158.497 173.438C157.341 182.336 157.341 182.336 154.102 185.449C151.483 187.426 148.586 188.359 145.313 188.379C144.822 188.295 144.333 188.201 143.848 188.086C143.578 184.762 144.465 181.737 146.494 179.085C149.551 175.549 153.771 173.333 158.497 173.438Z" fill="black"/>
<path d="M165.528 174.316C167.408 175.89 167.648 179.003 167.853 181.293C168.115 186.412 166.36 191.217 163.477 195.41C161.367 194.515 159.937 192.398 158.992 190.378C157.938 187.597 158.128 183.904 159.299 181.198C160.839 178.16 162.449 175.887 165.528 174.316Z" fill="black"/>
<path d="M151.171 125.39C154.625 128.339 156.276 133.05 157.03 137.402C157.046 137.89 157.053 138.379 157.03 138.867C155.407 138.701 154.046 138.288 152.544 137.659C152.216 137.521 152.216 137.521 151.881 137.381C148.848 136.069 145.995 134.191 144.386 131.205C143.621 129.238 143.471 126.811 144.14 124.805C146.495 124.295 149.068 124.081 151.171 125.39Z" fill="black"/>
<path d="M182.811 180.762C186.973 183.113 190.731 186.975 192.186 191.602C192.322 192.311 192.322 192.311 192.186 193.066C191.667 193.756 191.181 194.316 190.574 194.916C190.426 195.077 190.278 195.238 190.126 195.404C189.275 196.26 188.686 196.688 187.455 196.714C185.794 196.52 184.639 196.092 183.465 194.872C181.975 192.984 181.53 191.255 181.547 188.855C181.548 188.627 181.549 188.399 181.549 188.164C181.589 185.807 181.74 182.902 182.811 180.762Z" fill="black"/>
</svg>
