<svg width="300" height="300" viewBox="0 0 300 300" fill="none" xmlns="http://www.w3.org/2000/svg">
<path d="M220.385 88.4037C223.108 90.6328 224.371 93.231 225.255 96.5885C225.329 96.8658 225.402 97.143 225.478 97.4287C229.87 114.371 230.817 131.84 226.171 148.828C226.104 149.082 226.036 149.336 225.967 149.597C224.403 155.468 221.966 161.04 219.139 166.407C218.941 166.79 218.743 167.173 218.546 167.556C215.182 174.019 210.861 179.79 205.956 185.157C205.705 185.438 205.455 185.719 205.197 186.008C202.291 189.257 199.115 192.079 195.646 194.715C195.294 194.982 194.944 195.25 194.596 195.52C190.239 198.889 185.456 201.586 180.468 203.907C180.264 204.002 180.061 204.097 179.851 204.196C173.56 207.105 166.776 208.888 159.96 210.059C159.685 210.107 159.41 210.155 159.127 210.204C139.383 213.49 118.226 208.61 101.897 197.095C100.111 195.81 98.3652 194.481 96.6785 193.067C96.4611 192.888 96.4611 192.888 96.2394 192.706C92.3673 189.527 88.6459 186.057 85.5526 182.104C84.9079 181.282 84.2304 180.493 83.5499 179.7C75.0329 169.438 69.689 157.117 65.9168 144.434C65.8275 144.137 65.7382 143.84 65.6462 143.535C64.2859 138.95 62.9724 134.292 65.3309 129.786C67.3328 126.665 70.9513 125.795 74.3294 124.887C74.7823 124.762 75.2351 124.637 75.6878 124.511C76.8786 124.181 78.0707 123.857 79.2633 123.534C80.1908 123.283 81.1175 123.028 82.0442 122.774C84.8694 121.997 87.6974 121.231 90.5259 120.467C91.8215 120.117 93.1169 119.766 94.4122 119.414C95.9985 118.984 97.5847 118.554 99.171 118.125C103.938 116.834 108.704 115.539 113.469 114.24C113.662 114.187 113.854 114.135 114.052 114.081C121.5 112.051 128.941 109.997 136.381 107.938C142.517 106.24 148.655 104.55 154.796 102.869C160.951 101.184 167.102 99.4869 173.249 97.7756C173.898 97.595 174.547 97.4145 175.195 97.2339C175.683 97.0981 175.683 97.0981 176.181 96.9594C178.609 96.2842 181.037 95.6123 183.466 94.9416C185.117 94.4856 186.768 94.0293 188.42 93.573C189.033 93.4034 189.647 93.2339 190.261 93.0644C194.234 91.9668 198.207 90.8657 202.168 89.7255C202.457 89.6424 202.745 89.5594 203.043 89.4738C204.347 89.098 205.651 88.7199 206.954 88.3382C216.428 85.5796 216.428 85.5796 220.385 88.4037ZM210.076 93.7687C209.681 93.8747 209.286 93.9804 208.892 94.0858C207.52 94.4545 206.152 94.8345 204.784 95.2152C204.268 95.3585 203.751 95.5018 203.235 95.6451C200.247 96.4753 197.261 97.3136 194.276 98.1541C189.774 99.4211 185.268 100.67 180.761 101.917C180.559 101.973 180.358 102.028 180.151 102.086C177.716 102.759 175.282 103.432 172.847 104.105C171.531 104.469 170.215 104.833 168.899 105.197C160.587 107.496 152.271 109.779 143.95 112.044C137.71 113.743 131.474 115.458 125.243 117.188C119.336 118.828 113.426 120.456 107.511 122.066C106.333 122.387 105.155 122.708 103.977 123.029C103.377 123.193 102.777 123.356 102.177 123.52C101.771 123.631 101.364 123.742 100.957 123.852C98.4024 124.549 95.8469 125.244 93.2909 125.938C90.8583 126.599 88.4263 127.261 85.9947 127.925C84.6752 128.285 83.3554 128.645 82.035 129.002C80.7956 129.338 79.5569 129.675 78.3186 130.015C77.862 130.139 77.4051 130.263 76.948 130.386C73.1509 131.145 73.1509 131.145 70.2559 133.295C69.3331 135.595 70.7204 138.976 71.3367 141.23C71.3881 141.419 71.4395 141.609 71.4925 141.805C73.1364 147.854 75.1615 153.743 77.9285 159.375C78.0706 159.665 78.2126 159.955 78.359 160.253C80.3893 164.355 82.5792 168.256 85.2528 171.973C85.3736 172.142 85.4944 172.31 85.6188 172.484C86.3545 173.502 87.1139 174.5 87.8895 175.489C88.0957 175.751 88.3019 176.014 88.5143 176.285C91.9198 180.533 95.7185 184.661 99.9916 188.046C100.509 188.457 101.02 188.878 101.523 189.307C112.787 198.906 128.729 204.768 143.493 204.845C143.757 204.847 144.021 204.849 144.292 204.851C145.139 204.856 145.985 204.858 146.831 204.859C147.265 204.859 147.265 204.859 147.708 204.859C151.953 204.855 156.075 204.722 160.253 203.907C160.516 203.859 160.778 203.812 161.049 203.764C173.119 201.58 184.124 196.328 193.651 188.672C194.096 188.318 194.096 188.318 194.55 187.957C198.52 184.732 202.299 181.05 205.37 176.953C205.491 176.795 205.612 176.636 205.736 176.473C219.302 158.638 225.602 136.561 222.575 114.255C221.511 103.215 221.511 103.215 217.18 93.4574C214.751 92.407 212.501 93.0953 210.076 93.7687Z" fill="black"/>
<path d="M210.645 100.782C212.972 103.231 213.176 107.495 213.758 110.688C213.848 111.182 213.848 111.182 213.941 111.686C214.745 116.259 215.153 120.768 215.131 125.409C215.13 125.76 215.13 125.76 215.129 126.118C215.114 130.22 214.864 134.234 214.161 138.282C214.113 138.556 214.066 138.831 214.018 139.115C211.452 153.467 204.486 166.141 194.532 176.66C194.275 176.933 194.019 177.205 193.755 177.486C191.726 179.579 189.535 181.359 187.207 183.106C186.929 183.317 186.651 183.529 186.364 183.747C172.638 193.976 154.932 198.455 137.989 195.996C125.817 194.033 114.361 189.336 104.883 181.348C104.725 181.216 104.568 181.084 104.405 180.949C101.416 178.448 98.5875 175.858 96.0941 172.852C95.8634 172.574 95.6326 172.296 95.3949 172.01C88.4856 163.528 79.8191 150.451 79.895 139.072C80.0488 137.655 80.7471 136.929 81.7387 135.938C82.3315 135.839 82.3315 135.839 83.0204 135.828C83.2462 135.82 83.4721 135.811 83.7048 135.803C84.6396 135.991 84.939 136.382 85.5473 137.11C85.8583 137.952 85.8583 137.952 86.092 138.93C86.1819 139.292 86.2718 139.653 86.3644 140.026C86.4331 140.311 86.4331 140.311 86.5031 140.603C87.8768 146.281 89.8065 151.592 92.5785 156.739C92.6816 156.933 92.7846 157.127 92.8908 157.328C100.511 171.64 113.659 182.835 129.2 187.592C132.184 188.463 135.213 189.066 138.282 189.551C138.498 189.586 138.714 189.621 138.937 189.656C151.542 191.592 164.594 189.101 175.782 183.106C175.974 183.005 176.166 182.905 176.364 182.802C183.857 178.878 190.34 173.142 195.411 166.407C195.622 166.128 195.834 165.849 196.053 165.562C197.531 163.577 198.849 161.512 200.098 159.375C200.285 159.058 200.471 158.741 200.663 158.414C207.265 146.643 209.851 132.724 208.558 119.348C208.539 119.157 208.521 118.966 208.502 118.77C208.047 114.092 207.254 109.366 205.904 104.859C205.594 103.753 205.625 103.054 205.957 101.953C207.483 100.666 208.711 100.218 210.645 100.782Z" fill="black"/>
<path d="M194.532 108.398C195.604 108.845 195.905 109.126 196.51 110.119C197.653 112.977 197.657 117.509 196.583 120.41C195.884 121.38 195.055 121.795 193.928 122.186C192.771 122.161 192.437 121.781 191.602 120.996C191.085 120.153 191.085 120.153 190.65 119.238C190.504 118.936 190.357 118.634 190.206 118.322C189.485 116.642 189.479 115.096 189.46 113.287C189.452 113.016 189.443 112.745 189.434 112.466C189.418 110.654 189.651 109.58 190.724 108.105C191.873 107.53 193.328 108.105 194.532 108.398Z" fill="black"/>
<path d="M174.022 113.379C175.662 114.634 176.224 117.297 176.564 119.244C176.688 120.391 176.744 121.529 176.768 122.681C176.78 122.998 176.78 122.998 176.791 123.321C176.796 124.838 176.446 125.693 175.486 126.856C174.647 127.276 174.076 127.239 173.143 127.149C170.771 125.868 169.859 124.048 169.041 121.582C168.441 119.542 168.227 117.516 168.748 115.43C170.155 113.516 171.77 113.198 174.022 113.379Z" fill="black"/>
<path d="M111.858 156.115C113.404 156.661 114.703 157.318 115.685 158.66C116.636 161.566 117.14 165.014 116.326 167.999C115.419 169.125 114.401 169.903 113.085 170.507C111.968 170.562 111.968 170.562 111.034 170.214C109.193 168.523 109.055 165.906 108.945 163.538C108.851 158.654 108.851 158.654 110.228 156.665C111.034 156.152 111.034 156.152 111.858 156.115Z" fill="black"/>
<path d="M186.238 130.279C187.743 130.421 188.588 131.143 189.607 132.22C191.471 134.984 191.415 137.823 191.163 141.046C191.146 141.389 191.146 141.389 191.128 141.74C190.972 143.325 190.972 143.325 190.281 143.965C188.871 144.814 187.911 144.956 186.33 144.726C184.835 143.697 184.386 142.326 183.986 140.625C183.86 139.456 183.849 138.302 183.858 137.127C183.852 136.829 183.846 136.53 183.84 136.222C183.841 134.414 183.944 130.546 186.238 130.279Z" fill="black"/>
<path d="M172.266 160.254C173.839 160.285 174.733 160.673 175.85 161.718C176.874 162.88 177.655 164.183 178.418 165.527C178.525 165.712 178.632 165.897 178.742 166.088C179.455 167.501 179.522 168.968 179.297 170.508C178.846 171.745 178.152 172.838 176.953 173.438C176 173.654 175.457 173.601 174.623 173.08C172.125 171.059 170.523 168.085 169.922 164.941C169.937 163.354 170.237 162.336 171.259 161.115C171.494 160.927 171.73 160.74 171.973 160.547C172.069 160.45 172.166 160.354 172.266 160.254Z" fill="black"/>
<path d="M117.042 130.06C118.653 130.744 119.464 132.024 120.118 133.594C120.745 136.241 120.631 138.559 119.239 140.918C117.343 143.932 117.343 143.932 116.016 144.726C114.93 144.545 114.4 144.291 113.644 143.487C112.23 141.428 112.382 138.835 112.812 136.468C113.28 134.186 113.975 132.184 115.577 130.462C116.309 130.078 116.309 130.078 117.042 130.06Z" fill="black"/>
<path d="M136.817 148.535C138.074 149.066 138.56 149.675 139.161 150.879C139.431 151.833 139.619 152.798 139.802 153.772C139.854 154.028 139.906 154.283 139.959 154.547C140.359 156.6 140.619 158.39 139.765 160.364C139.607 160.739 139.607 160.739 139.446 161.122C139.161 161.719 139.161 161.719 138.868 162.012C137.055 162.032 135.373 161.605 133.888 160.547C132.684 159.234 132.783 157.861 132.716 156.152C132.7 155.791 132.685 155.43 132.669 155.057C132.572 150.884 132.572 150.884 133.595 149.121C134.683 148.396 135.556 148.377 136.817 148.535Z" fill="black"/>
<path d="M157.048 141.064C158.596 141.261 159.728 141.869 160.838 142.969C161.819 144.708 161.938 146.439 162.083 148.407C162.11 148.704 162.136 149.002 162.163 149.308C162.451 152.855 162.451 152.855 161.649 154.056C160.54 154.781 159.17 154.579 157.908 154.395C156.105 153.411 155.562 151.915 154.979 150C154.641 148.69 154.622 147.408 154.612 146.063C154.606 145.847 154.6 145.631 154.594 145.408C154.584 143.984 154.793 143.038 155.565 141.797C156.15 141.211 156.15 141.211 157.048 141.064Z" fill="black"/>
<path d="M153.224 119.238C155.393 122.404 155.373 126.641 154.744 130.297C154.55 131.271 154.313 131.806 153.517 132.421C152.288 132.584 151.634 132.51 150.533 131.927C148.443 130.209 147.642 128.049 147.365 125.39C147.321 125.088 147.321 125.088 147.277 124.779C147.185 123.724 147.2 123.024 147.761 122.105C149.011 120.625 151.114 118.315 153.224 119.238Z" fill="black"/>
<path d="M153.514 168.457C154.87 169.344 155.576 170.176 156.15 171.68C156.277 172.805 156.273 173.918 156.26 175.049C156.264 175.348 156.267 175.646 156.271 175.954C156.262 178.071 155.942 179.598 154.448 181.183C153.75 181.843 153.622 181.932 152.617 181.952C151.193 181.437 150.498 181.16 149.778 179.773C149.164 177.993 149.058 176.386 149.046 174.518C149.037 174.159 149.037 174.159 149.028 173.793C149.017 172.108 149.29 170.871 149.998 169.336C151.096 168.361 152.078 168.256 153.514 168.457Z" fill="black"/>
</svg>
