<svg width="300" height="300" viewBox="0 0 300 300" fill="none" xmlns="http://www.w3.org/2000/svg">
<path d="M152.491 88.422C153.572 88.4213 154.654 88.416 155.736 88.4105C161.072 88.3972 166.064 88.8234 171.296 89.9411C171.501 89.9847 171.706 90.0284 171.917 90.0733C184.499 92.7829 198.205 98.0619 207.715 106.933C208.08 107.246 208.447 107.557 208.814 107.867C211.486 110.203 213.997 112.752 216.192 115.542C216.593 116.05 217.006 116.549 217.43 117.038C226.946 128.081 228.761 142.725 227.849 156.785C227.746 157.953 227.57 159.103 227.344 160.254C227.298 160.487 227.253 160.721 227.206 160.961C225.114 171.243 220.332 180.017 212.989 187.5C212.772 187.724 212.555 187.949 212.332 188.181C211.048 189.492 209.696 190.703 208.301 191.894C207.885 192.261 207.885 192.261 207.461 192.636C205.142 194.667 202.712 196.415 200.098 198.047C199.911 198.164 199.724 198.281 199.531 198.402C190.551 203.98 180.886 208.059 170.453 209.82C170.188 209.866 169.923 209.911 169.649 209.958C163.065 210.988 156.409 211.055 149.762 211.047C149.327 211.047 148.891 211.047 148.455 211.047C141.974 211.043 135.605 210.835 129.2 209.765C128.764 209.697 128.764 209.697 128.32 209.628C113.803 207.318 99.934 199.946 89.3559 189.843C88.9491 189.46 88.9491 189.46 88.5342 189.069C78.3887 179.254 72.2439 165.671 71.9422 151.57C71.869 146.557 72.0944 141.717 73.2426 136.816C73.2928 136.586 73.3429 136.356 73.3946 136.118C75.3553 127.255 80.5173 119.018 86.7191 112.5C86.8671 112.344 87.0151 112.188 87.1676 112.027C89.5839 109.497 92.1085 107.252 94.9223 105.175C95.0899 105.05 95.2575 104.925 95.4302 104.796C101.765 100.074 108.823 96.2793 116.309 93.7497C116.597 93.6516 116.885 93.5535 117.181 93.4524C123.348 91.3811 129.651 89.9505 136.103 89.1171C136.356 89.0843 136.61 89.0516 136.871 89.0178C142.052 88.4167 147.283 88.4216 152.491 88.422ZM145.276 93.1088C145 93.1218 144.724 93.1347 144.44 93.1481C133.332 93.6812 123.01 95.7383 112.793 100.195C112.576 100.289 112.358 100.384 112.134 100.481C107.139 102.668 102.126 105.288 97.852 108.691C97.5369 108.93 97.2214 109.168 96.9055 109.405C86.527 117.283 78.6722 128.382 76.8131 141.467C75.0205 155.732 78.6119 169.305 87.2822 180.728C92.3144 187.199 98.3494 192.267 105.469 196.289C105.725 196.433 105.981 196.578 106.245 196.727C111.387 199.596 116.711 201.703 122.333 203.43C122.549 203.496 122.764 203.563 122.986 203.631C126.574 204.684 130.241 205.223 133.948 205.629C134.6 205.7 135.252 205.775 135.904 205.85C140.161 206.333 144.395 206.597 148.682 206.579C149.063 206.578 149.443 206.576 149.835 206.575C150.965 206.568 152.094 206.557 153.223 206.543C153.53 206.539 153.837 206.535 154.153 206.532C167.637 206.312 180.07 203.412 192.188 197.461C192.431 197.343 192.674 197.225 192.924 197.104C197.735 194.751 201.966 191.638 205.957 188.086C206.181 187.889 206.181 187.889 206.409 187.689C215.383 179.788 222.462 168.97 223.454 156.808C224.327 142.751 222.367 130.311 213.282 119.238C213.046 118.942 212.81 118.647 212.566 118.342C207.776 112.43 202.282 107.782 195.704 104.004C195.485 103.878 195.267 103.753 195.042 103.624C179.814 94.9916 162.526 92.2953 145.276 93.1088Z" fill="black"/>
<path d="M79.3945 150.586C81.2428 150.727 83.0539 150.939 84.8788 151.262C88.7026 151.928 92.5227 152.258 96.3906 152.547C105.075 153.2 113.314 154.613 121.768 156.672C140.975 161.349 158.156 162.495 177.595 158.041C189.043 155.421 189.043 155.421 194.55 154.523C194.757 154.489 194.964 154.455 195.178 154.42C213.372 151.473 213.372 151.473 219.727 154.688C219.823 154.881 219.92 155.074 220.02 155.273C201.293 168.183 182.587 173.962 159.957 173.825C159.086 173.821 158.215 173.823 157.344 173.824C147.533 173.837 137.868 173.216 128.138 171.967C127.229 171.852 126.32 171.74 125.41 171.629C110.277 169.771 91.5609 167.32 81.1523 154.688C79.3945 151.953 79.3945 151.953 79.3945 150.586Z" fill="black"/>
<path d="M150 120.996C150.229 121.026 150.458 121.055 150.694 121.085C159.787 122.256 168.802 123.948 177.807 125.656C179.046 125.891 180.286 126.122 181.527 126.351C188.193 127.585 194.737 129.014 201.226 130.992C201.638 131.116 201.638 131.116 202.058 131.244C215.309 135.295 215.309 135.295 218.335 140.479C219.394 142.77 219.804 145.741 219.727 148.242C218.58 147.795 218.049 147.101 217.31 146.137C211.761 139.24 202.372 138.102 194.049 137.114C189.23 136.646 184.402 136.506 179.562 136.472C179.13 136.469 178.698 136.466 178.266 136.463C177.938 136.46 177.938 136.46 177.604 136.458C177.383 136.456 177.162 136.455 176.934 136.453C176.709 136.452 176.485 136.45 176.254 136.448C166.273 136.375 156.374 135.949 146.422 135.188C128.347 133.805 111.076 136.501 93.861 142.017C92.9635 142.304 92.0659 142.591 91.1682 142.877C90.9468 142.948 90.7255 143.019 90.4974 143.091C82.5882 145.606 82.5882 145.606 79.6875 145.606C79.8487 144.163 80.3071 143.008 80.9875 141.742C81.0898 141.551 81.1921 141.36 81.2975 141.163C82.3594 139.261 83.7052 137.762 85.2539 136.231C85.5013 135.982 85.7486 135.734 86.0035 135.478C86.2395 135.243 86.4756 135.008 86.7188 134.766C86.9053 134.58 87.0919 134.394 87.2841 134.203C89.2307 132.373 91.4158 131.05 93.75 129.785C94.0691 129.612 94.0691 129.612 94.3946 129.435C103.222 124.739 113.742 121.847 123.633 120.703C123.864 120.674 124.094 120.644 124.332 120.613C132.815 119.532 141.546 119.882 150 120.996Z" fill="black"/>
<path d="M79.9805 160.547C83.5438 161.019 86.413 165.299 88.6047 167.889C100.48 181.449 125.028 189.558 142.383 191.309C142.642 191.336 142.9 191.364 143.167 191.392C151.295 192.145 160.129 192.235 168.164 190.723C168.538 190.655 168.912 190.587 169.297 190.518C185.748 187.511 202.076 181.556 213.887 169.28C214.26 168.897 214.648 168.529 215.039 168.164C215.232 168.164 215.426 168.164 215.625 168.164C215.217 171.818 212.795 175.223 210.352 177.832C210.121 178.081 210.121 178.081 209.886 178.334C199.009 189.959 183.358 197.159 167.798 199.567C167.509 199.612 167.221 199.657 166.924 199.704C160.825 200.588 154.685 200.781 148.531 200.76C147.414 200.757 146.297 200.76 145.18 200.764C139.856 200.767 134.595 200.53 129.346 199.585C128.93 199.511 128.93 199.511 128.505 199.435C110.912 196.14 95.4837 185.891 85.286 171.26C79.9805 163.443 79.9805 163.443 79.9805 160.547Z" fill="black"/>
<path d="M141.058 99.5499C141.442 99.5468 141.442 99.5468 141.835 99.5436C159.329 99.435 176.935 101.774 192.773 109.57C193.008 109.686 193.242 109.801 193.484 109.92C201.669 113.989 213.168 120.847 217.09 129.492C216.896 129.589 216.703 129.686 216.504 129.785C215.777 129.486 215.095 129.169 214.397 128.812C214.188 128.706 213.978 128.6 213.762 128.491C211.741 127.443 209.864 126.218 207.991 124.928C207.043 124.275 206.087 123.633 205.132 122.99C204.947 122.865 204.762 122.74 204.572 122.612C182.012 107.452 155.771 107.812 120.489 112.069C108.224 114.648 98.5385 120.222 89.0335 128.15C88.2541 128.798 87.4683 129.438 86.6821 130.078C85.7942 130.801 84.9227 131.537 84.0637 132.294C83.2031 133.008 83.2031 133.008 82.6172 133.008C83.0567 129.034 85.2985 125.962 87.8906 123.047C88.0177 122.902 88.1447 122.758 88.2756 122.608C91.4952 118.95 95.1243 115.985 99.0234 113.086C99.2065 112.949 99.3896 112.813 99.5782 112.672C102.125 110.782 104.752 109.069 107.52 107.52C107.701 107.418 107.883 107.316 108.071 107.211C117.587 101.964 130.232 99.6088 141.058 99.5499Z" fill="black"/>
</svg>
