<svg width="300" height="300" viewBox="0 0 300 300" fill="none" xmlns="http://www.w3.org/2000/svg">
<path d="M168.238 57.0693C168.432 57.0684 168.626 57.0676 168.826 57.0668C169.857 57.0624 170.888 57.0597 171.919 57.0584C172.752 57.0571 173.585 57.0531 174.419 57.0464C194.743 56.8862 216.372 62.3672 232.03 75.8788C232.218 76.0398 232.406 76.2009 232.6 76.3669C238.897 81.8089 245.856 89.0472 247.806 97.4577C248.211 98.6334 248.621 98.8819 249.608 99.6092C260.021 110.934 262.173 127.614 261.646 142.362C261.308 150.057 259.558 157.627 257.225 164.941C257.146 165.191 257.067 165.441 256.985 165.699C253.505 176.533 247.95 186.639 241.112 195.703C240.982 195.877 240.852 196.051 240.719 196.231C237.094 201.097 233.01 205.578 228.734 209.875C228.544 210.067 228.353 210.259 228.157 210.456C226.859 211.75 225.513 212.97 224.12 214.16C223.936 214.318 223.752 214.476 223.563 214.639C216.75 220.459 209.21 225.269 201.268 229.394C201.053 229.506 200.838 229.618 200.617 229.733C196.874 231.649 192.929 233 188.963 234.375C188.335 234.595 187.707 234.815 187.079 235.035C185.493 235.59 183.904 236.136 182.314 236.679C181.341 237.014 180.368 237.352 179.396 237.691C169.66 241.054 159.396 243.495 149.043 243.506C148.707 243.507 148.37 243.508 148.024 243.509C147.314 243.511 146.604 243.511 145.894 243.511C144.833 243.512 143.772 243.517 142.71 243.523C122.354 243.572 101.491 237.919 85.8384 224.414C85.6167 224.225 85.395 224.036 85.1666 223.841C84.399 223.168 83.6499 222.479 82.9087 221.777C82.7266 221.605 82.5444 221.433 82.3567 221.255C74.314 213.587 66.626 202.878 66.1008 191.358C66.0145 187.073 66.3495 183.771 68.8462 180.176C68.614 180.258 68.3817 180.34 68.1424 180.424C49.4618 186.844 49.4618 186.844 41.0691 183.673C39.1384 181.963 38.8886 179.092 38.6704 176.66C38.6071 175.031 38.7532 173.609 39.1648 172.027C39.2084 171.841 39.2521 171.655 39.297 171.464C39.7473 169.682 40.5168 168.06 41.3072 166.406C43.224 166.399 45.1409 166.394 47.0578 166.39C47.7078 166.389 48.3579 166.387 49.0079 166.384C52.3774 166.371 55.7282 166.373 59.089 166.634C60.5836 166.735 62.0756 166.725 63.5728 166.699C63.4206 166.462 63.2684 166.224 63.1116 165.979C57.0255 156.316 56.2217 145.788 58.6118 134.754C63.0275 115.472 76.0144 97.9661 91.4048 85.8397C91.7379 85.5682 92.0705 85.2962 92.4027 85.0237C113.294 67.9611 141.143 57.1609 168.238 57.0693ZM159.96 63.8671C159.402 63.9567 159.402 63.9567 158.834 64.0482C150.629 65.3775 142.635 67.3331 134.764 70.0194C134.36 70.1557 134.36 70.1557 133.948 70.2948C127.885 72.3569 121.993 74.9574 116.314 77.9158C115.652 78.2585 114.985 78.5929 114.318 78.9275C104.016 84.1474 94.6504 90.9653 86.1314 98.7303C85.7212 99.0946 85.7212 99.0946 85.3028 99.4662C81.6765 102.703 78.5004 106.273 75.5845 110.156C75.3602 110.45 75.3602 110.45 75.1315 110.751C68.9746 118.858 64.2176 128.28 62.1079 138.281C62.0456 138.559 61.9833 138.837 61.9191 139.123C60.3253 147.196 61.1167 156.39 65.6785 163.385C66.3705 164.489 66.3705 164.489 67.3814 165.234C67.7169 163.948 68.0191 162.665 68.2729 161.36C71.3909 145.337 78.9227 130.694 88.7681 117.773C88.8982 117.603 89.0283 117.432 89.1623 117.256C94.0085 110.928 99.3999 104.65 105.501 99.4959C106.135 98.9531 106.742 98.3835 107.353 97.8148C109.248 96.1062 111.286 94.5906 113.324 93.0604C113.93 92.6033 114.531 92.1409 115.131 91.6762C118.041 89.4344 121.079 87.4548 124.217 85.5467C124.423 85.4207 124.629 85.2947 124.841 85.1648C138.935 76.5567 154.565 70.9505 170.854 68.3165C171.207 68.2594 171.559 68.2024 171.922 68.1436C173.011 67.9752 174.101 67.8216 175.194 67.6756C175.395 67.6483 175.597 67.621 175.804 67.5929C179.95 67.046 184.072 66.9841 188.249 66.9982C188.755 66.9991 188.755 66.9991 189.271 67.0001C197.099 67.0236 205.093 67.4478 212.552 70.0915C213.354 70.3347 213.67 70.2512 214.452 70.0194C206.94 66.9926 199.311 65.0692 191.307 63.8671C190.995 63.8187 190.682 63.7703 190.36 63.7204C180.523 62.2626 169.767 62.2229 159.96 63.8671ZM118.651 97.8514C118.34 98.0874 118.34 98.0874 118.023 98.3281C113.974 101.415 110.106 104.671 106.346 108.105C106.069 108.356 105.791 108.606 105.505 108.864C103.551 110.637 101.66 112.468 99.791 114.331C99.5716 114.549 99.3522 114.767 99.1261 114.992C97.9231 116.198 96.7704 117.432 95.6584 118.723C95.1089 119.359 94.5388 119.975 93.9683 120.593C92.3315 122.41 90.8416 124.33 89.354 126.269C89.2108 126.455 89.0675 126.64 88.9199 126.831C86.6525 129.766 84.5687 132.784 82.6158 135.937C82.4943 136.132 82.3728 136.327 82.2477 136.528C76.7481 145.417 71.6303 155.871 70.604 166.406C70.8759 166.533 71.1479 166.66 71.428 166.791C72.2205 167.21 72.6414 167.535 73.2408 168.164C73.4341 168.164 73.6275 168.164 73.8267 168.164C74.2561 167.741 74.2561 167.741 74.7051 167.178C76.0002 165.656 77.4012 164.254 78.8152 162.844C79.0957 162.563 79.3761 162.282 79.6566 162.001C80.2409 161.417 80.8257 160.832 81.4109 160.249C82.1548 159.506 82.8974 158.763 83.6397 158.019C84.2175 157.44 84.7961 156.862 85.3748 156.284C85.7802 155.879 86.185 155.473 86.5898 155.067C87.8973 153.764 89.2219 152.503 90.622 151.3C91.1895 150.812 91.7353 150.305 92.2757 149.787C92.4703 149.602 92.6648 149.416 92.8653 149.225C93.0661 149.034 93.267 148.842 93.4739 148.645C95.585 146.645 97.7461 144.718 99.9596 142.833C100.485 142.384 101.007 141.932 101.528 141.479C103.858 139.456 106.246 137.526 108.69 135.644C108.922 135.464 109.155 135.284 109.395 135.099C112.705 132.538 116.04 130.045 119.53 127.734C119.817 127.543 120.105 127.353 120.402 127.156C127.533 122.434 127.533 122.434 130.979 120.443C131.613 120.076 132.244 119.704 132.875 119.333C136.589 117.166 140.389 115.181 144.216 113.222C145.532 112.548 146.84 111.862 148.139 111.156C152.631 108.717 157.337 106.652 162.01 104.59C161.708 104.775 161.708 104.775 161.399 104.964C155.582 108.533 149.8 112.143 144.094 115.889C142.009 117.256 139.912 118.602 137.804 119.934C133.786 122.479 129.912 125.198 126.064 127.992C124.964 128.79 123.86 129.582 122.752 130.371C116.819 134.602 110.919 138.873 105.189 143.376C104.634 143.812 104.078 144.245 103.522 144.677C98.4965 148.589 93.5874 152.662 88.894 156.968C88.2978 157.512 87.6949 158.043 87.0835 158.569C84.0854 161.188 81.2148 163.952 78.3738 166.74C78.0772 167.03 77.7794 167.318 77.4803 167.606C77.0585 168.012 76.6418 168.423 76.2254 168.835C75.9818 169.072 75.7382 169.31 75.4872 169.555C74.9256 170.162 74.9256 170.162 75.0489 170.837C75.129 171.018 75.209 171.2 75.2915 171.387C75.3943 171.652 75.497 171.918 75.6028 172.192C76.1318 172.962 76.1318 172.962 77.1401 172.931C78.8883 172.879 80.5988 172.544 82.3171 172.239C82.6874 172.175 83.0577 172.111 83.4392 172.044C84.4403 171.87 85.4408 171.694 86.4413 171.516C87.0695 171.404 87.6979 171.293 88.3262 171.182C91.2092 170.672 94.0906 170.152 96.9712 169.629C97.4515 169.542 97.4515 169.542 97.9415 169.453C118.361 165.754 138.516 160.024 158.202 153.515C158.486 153.422 158.77 153.328 159.062 153.231C167.262 150.523 175.409 147.719 183.397 144.433C183.606 144.348 183.815 144.262 184.03 144.173C199.108 137.958 214.207 130.909 227.049 120.703C227.313 120.495 227.577 120.287 227.849 120.072C229.912 118.417 231.866 116.659 233.788 114.844C234.042 114.605 234.296 114.367 234.558 114.121C238.313 110.495 242.753 105.054 243.271 99.6481C243.231 98.2597 242.688 97.2436 242.009 96.057C241.89 95.8417 241.771 95.6263 241.649 95.4045C240.486 93.3274 239.232 91.32 237.889 89.3553C237.692 89.0645 237.495 88.7737 237.292 88.4741C230.04 78.2891 218.086 73.7144 206.139 71.652C178.591 67.2249 150.219 76.2973 118.651 97.8514ZM245.506 102.539C245.431 102.759 245.356 102.98 245.279 103.207C243.38 108.475 240.43 112.528 236.615 116.603C236.069 117.136 236.069 117.136 236.131 117.773C235.962 117.84 235.793 117.906 235.619 117.975C234.921 118.329 234.921 118.329 234.447 119C233.735 119.89 232.965 120.573 232.1 121.31C231.432 121.885 230.789 122.483 230.144 123.083C228.051 124.969 225.792 126.639 223.534 128.32C223.324 128.477 223.113 128.635 222.897 128.797C212.21 136.766 200.299 143.251 188.147 148.698C187.276 149.089 186.408 149.487 185.54 149.887C161.762 160.716 136.245 168.221 77.3423 175.488C77.0073 176.158 77.0191 176.541 77.031 177.283C77.0371 177.657 77.0431 178.032 77.0493 178.418C80.2172 179.316 83.387 180.011 86.6258 180.597C86.8644 180.64 87.103 180.684 87.3489 180.729C95.5857 182.227 103.863 183.29 112.206 183.984C112.437 184.004 112.669 184.023 112.908 184.043C114.235 184.151 115.563 184.223 116.893 184.277C117.204 184.29 117.514 184.303 117.834 184.316C122.599 184.506 127.359 184.645 132.127 184.57C132.584 184.565 132.584 184.565 133.049 184.559C149.589 184.322 166.141 182.249 182.419 179.416C183.088 179.299 183.758 179.184 184.427 179.068C186.242 178.755 188.057 178.436 189.87 178.109C190.129 178.062 190.388 178.015 190.654 177.967C191.353 177.836 191.353 177.836 192.186 177.539C192.186 177.732 192.186 177.926 192.186 178.125C192.02 178.155 191.853 178.185 191.682 178.216C189.547 178.621 187.468 179.179 185.375 179.755C176.302 182.207 167.187 184.238 157.909 185.742C157.693 185.777 157.477 185.812 157.254 185.849C151.882 186.719 146.499 187.359 141.081 187.866C140.822 187.89 140.563 187.915 140.296 187.94C134.214 188.505 128.164 188.733 122.057 188.727C121.736 188.726 121.415 188.726 121.084 188.726C106.392 188.704 92.0642 186.964 78.3406 181.476C78.1052 181.382 77.8698 181.288 77.6273 181.192C77.4226 181.109 77.2179 181.025 77.0071 180.94C76.4195 180.716 76.4195 180.716 75.5845 180.762C76.1068 183.194 76.8502 185.36 77.9466 187.591C78.0883 187.883 78.2301 188.175 78.3761 188.476C79.5973 190.937 80.9937 193.197 82.6158 195.41C82.8322 195.712 83.0485 196.014 83.2715 196.324C84.9015 198.551 86.6679 200.652 88.4751 202.734C88.7748 203.084 88.7748 203.084 89.0805 203.44C92.0676 206.848 95.2856 210.201 98.8618 212.992C99.6819 213.632 100.466 214.306 101.256 214.984C114.781 226.209 132.512 232.85 149.999 234.082C150.307 234.106 150.307 234.106 150.621 234.131C167.745 235.46 185.121 232.306 200.389 224.414C200.634 224.288 200.878 224.162 201.13 224.033C211.766 218.507 222.474 210.061 229.923 200.609C230.497 199.89 231.093 199.198 231.701 198.508C233.732 196.181 235.444 193.662 237.152 191.093C237.548 190.502 237.949 189.917 238.355 189.333C250.962 171.086 258.852 147.122 255.126 124.85C254.961 123.952 254.78 123.06 254.588 122.168C254.526 121.873 254.463 121.578 254.398 121.274C252.986 114.884 250.47 107.567 246.092 102.539C245.899 102.539 245.706 102.539 245.506 102.539ZM43.3579 173.437C43.2274 175.476 43.1569 176.837 44.5298 178.418C45.0747 178.963 45.9228 178.787 46.6538 178.802C54.6244 178.794 63.0243 175.71 70.604 173.437C70.604 173.244 70.604 173.051 70.604 172.851C70.2885 172.867 70.2885 172.867 69.9666 172.882C67.6697 172.942 65.532 172.705 63.2732 172.311C56.7363 171.172 49.6636 171.152 43.3579 173.437ZM72.0689 183.105C71.8785 183.52 71.6895 183.935 71.5013 184.35C71.3432 184.697 71.3432 184.697 71.182 185.051C69.1738 189.922 70.8808 196.097 72.7713 200.742C74.5455 204.881 76.8081 208.651 79.6861 212.109C79.8294 212.282 79.9728 212.455 80.1205 212.634C84.9052 218.382 90.5139 223.048 97.0207 226.746C97.5336 227.037 98.0433 227.334 98.5528 227.632C113.011 235.755 130.435 238.138 146.776 237.89C146.776 237.794 146.776 237.697 146.776 237.598C146.607 237.579 146.438 237.56 146.264 237.54C136.614 236.432 127.085 234.055 118.358 229.687C117.946 229.485 117.946 229.485 117.526 229.278C113.216 227.146 109.134 224.798 105.174 222.07C104.985 221.942 104.797 221.813 104.602 221.68C97.3528 216.727 90.2901 210.609 84.9595 203.613C84.734 203.331 84.5086 203.048 84.2763 202.757C79.6731 196.963 75.0102 190.171 72.6548 183.105C72.4615 183.105 72.2681 183.105 72.0689 183.105Z" fill="black"/>
<path d="M246.094 155.566C246.859 157.861 245.163 161.164 244.135 163.257C241.443 168.484 236.692 172.798 231.996 176.254C231.402 176.692 230.813 177.136 230.223 177.58C226.027 180.707 221.635 183.405 216.925 185.687C216.662 185.816 216.398 185.945 216.127 186.077C215.882 186.192 215.638 186.307 215.386 186.425C215.062 186.578 215.062 186.578 214.732 186.734C214.16 186.914 214.16 186.914 213.281 186.621C213.608 186.426 213.934 186.231 214.27 186.029C223.278 180.604 232.017 174.228 238.477 165.82C238.771 165.443 239.065 165.066 239.359 164.69C241.36 162.112 243.272 159.48 245.137 156.802C245.801 155.859 245.801 155.859 246.094 155.566Z" fill="black"/>
</svg>
