<svg width="300" height="300" viewBox="0 0 300 300" fill="none" xmlns="http://www.w3.org/2000/svg">
<path d="M232.616 81.7383C233.653 82.6821 233.979 83.596 234.256 84.9472C234.327 85.2883 234.398 85.6294 234.471 85.9808C234.577 86.5274 234.577 86.5274 234.685 87.0849C234.798 87.651 234.798 87.651 234.913 88.2286C235.95 93.53 236.563 98.897 236.718 104.297C236.736 104.857 236.736 104.857 236.754 105.429C237.038 123.335 231.932 140.764 221.996 155.658C221.886 155.823 221.776 155.989 221.662 156.159C220.234 158.292 218.724 160.328 217.089 162.305C216.881 162.559 216.881 162.559 216.669 162.818C213.651 166.497 210.46 170.055 206.835 173.145C206.547 173.396 206.259 173.648 205.963 173.907C193.29 184.907 177.415 191.852 160.732 193.668C160.489 193.695 160.245 193.722 159.994 193.749C159.396 193.815 158.799 193.88 158.202 193.945C158.428 193.945 158.654 193.946 158.886 193.946C172.261 193.956 185.636 193.973 199.01 193.997C200.615 194 202.22 194.003 203.824 194.006C204.144 194.007 204.463 194.007 204.793 194.008C209.97 194.017 215.148 194.022 220.326 194.025C225.636 194.029 230.946 194.037 236.257 194.049C239.535 194.057 242.814 194.06 246.092 194.06C248.338 194.06 250.584 194.064 252.83 194.072C254.127 194.076 255.425 194.079 256.722 194.076C257.908 194.073 259.095 194.076 260.281 194.084C260.712 194.085 261.142 194.085 261.572 194.083C262.155 194.079 262.738 194.084 263.321 194.089C263.808 194.09 263.808 194.09 264.304 194.091C265.334 194.273 265.679 194.589 266.307 195.41C266.472 196.289 266.472 196.289 266.307 197.168C265.463 198.072 264.959 198.323 263.724 198.499C263.275 198.511 262.824 198.516 262.374 198.516C262.123 198.521 261.872 198.526 261.614 198.531C260.761 198.545 259.908 198.551 259.055 198.556C258.43 198.564 257.806 198.573 257.181 198.581C255.047 198.608 252.914 198.621 250.78 198.633C250.211 198.636 250.211 198.636 249.63 198.64C243.651 198.675 237.672 198.685 231.693 198.688C229.081 198.689 226.469 198.692 223.857 198.696C217.264 198.703 210.671 198.708 204.078 198.712C202.291 198.713 200.504 198.714 198.718 198.715C187.598 198.723 176.479 198.729 165.359 198.733C162.798 198.734 160.236 198.734 157.675 198.735C157.197 198.736 157.197 198.736 156.711 198.736C146.357 198.739 136.003 198.748 125.649 198.761C114.978 198.773 104.308 198.781 93.6373 198.782C92.1326 198.783 90.6279 198.783 89.1232 198.783C88.6791 198.783 88.6791 198.783 88.226 198.783C83.4598 198.784 78.6937 198.79 73.9275 198.798C69.1489 198.806 64.3702 198.808 59.5915 198.805C56.7518 198.803 53.9121 198.805 51.0724 198.814C49.1782 198.819 47.284 198.818 45.3897 198.814C44.3092 198.811 43.2289 198.811 42.1484 198.817C40.9867 198.824 39.8252 198.82 38.6635 198.814C38.3254 198.818 37.9874 198.821 37.639 198.825C35.3907 198.801 35.3907 198.801 34.2045 197.955C33.6902 197.168 33.6902 197.168 33.6719 196.106C34.0194 195.002 34.1767 194.795 35.155 194.238C35.9618 194.127 35.9618 194.127 36.9098 194.126C37.2713 194.123 37.6329 194.12 38.0054 194.117C38.4073 194.119 38.8091 194.12 39.211 194.121C39.6374 194.12 40.0637 194.118 40.4901 194.116C41.6633 194.11 42.8364 194.11 44.0095 194.111C45.2741 194.112 46.5386 194.107 47.8031 194.103C49.9945 194.096 52.1859 194.092 54.3773 194.091C57.5457 194.089 60.714 194.082 63.8824 194.075C69.0227 194.062 74.1629 194.053 79.3032 194.047C84.297 194.041 89.2908 194.033 94.2846 194.022C94.7462 194.021 94.7462 194.021 95.2172 194.02C96.7609 194.017 98.3046 194.014 99.8484 194.01C112.659 193.983 125.469 193.962 138.28 193.945C137.127 193.556 135.988 193.214 134.803 192.936C123.259 190.176 112.241 185.96 102.538 179.004C102.234 178.786 102.234 178.786 101.924 178.564C100.543 177.568 99.1882 176.542 97.8503 175.488C97.6893 175.362 97.5282 175.236 97.3623 175.105C94.7908 173.061 92.4683 170.752 90.1416 168.439C89.9915 168.29 89.8415 168.142 89.6868 167.989C87.6808 165.999 85.8284 163.945 84.0808 161.719C83.9368 161.538 83.7928 161.357 83.6444 161.171C73.5089 148.381 66.6434 133.132 63.4631 117.151C63.4239 116.958 63.3847 116.764 63.3444 116.565C62.2639 111.183 62.2639 111.183 62.6941 109.57C63.7888 108.77 64.7673 108.512 66.0942 108.296C66.2855 108.264 66.4768 108.232 66.6739 108.199C67.3152 108.092 67.9572 107.99 68.5992 107.888C69.0634 107.812 69.5275 107.735 69.9917 107.659C71.2656 107.449 72.5401 107.243 73.8148 107.038C75.1833 106.817 76.5513 106.592 77.9193 106.368C80.5937 105.93 83.2686 105.496 85.9438 105.063C88.1322 104.709 90.3204 104.353 92.5084 103.996C92.8209 103.945 93.1333 103.894 93.4552 103.841C94.0893 103.738 94.7234 103.635 95.3574 103.531C103.414 102.218 111.472 100.912 119.53 99.6094C119.826 99.5615 120.122 99.5136 120.427 99.4643C133.513 97.3483 146.6 95.2426 159.689 93.1429C167.55 91.8818 175.411 90.6168 183.271 89.3486C183.661 89.2856 183.661 89.2856 184.06 89.2214C188.345 88.53 192.631 87.8382 196.916 87.1464C198.077 86.9591 199.237 86.7717 200.398 86.5844C200.85 86.5114 201.302 86.4384 201.755 86.3654C204.12 85.9835 206.486 85.6018 208.852 85.2209C209.461 85.1227 210.071 85.0246 210.681 84.9264C211.078 84.8624 211.476 84.7983 211.874 84.7343C214.345 84.3365 216.815 83.9362 219.284 83.5333C220.666 83.3081 222.047 83.0841 223.429 82.8603C224.06 82.7577 224.691 82.6546 225.322 82.5509C226.174 82.4108 227.027 82.2727 227.879 82.1351C228.124 82.0943 228.369 82.0535 228.621 82.0115C229.963 81.7972 231.253 81.6417 232.616 81.7383ZM216.158 87.9535C215.918 87.9919 215.678 88.0302 215.431 88.0696C214.627 88.1981 213.824 88.3281 213.021 88.4582C212.448 88.5504 211.874 88.6424 211.3 88.7343C209.737 88.9849 208.175 89.2369 206.613 89.4892C204.943 89.7587 203.273 90.0268 201.603 90.2951C197.81 90.9048 194.017 91.5166 190.225 92.1288C189.018 92.3237 187.811 92.5184 186.604 92.7131C181.821 93.4848 177.038 94.2574 172.255 95.0315C164.253 96.3266 156.25 97.6183 148.247 98.9076C142.921 99.7655 137.596 100.624 132.271 101.483C132.031 101.522 131.79 101.561 131.543 101.601C129.113 101.993 126.684 102.385 124.255 102.778C123.043 102.973 121.831 103.169 120.619 103.365C120.38 103.403 120.141 103.442 119.894 103.482C116.067 104.1 112.24 104.716 108.413 105.331C104.586 105.946 100.76 106.563 96.9347 107.182C94.6351 107.554 92.3353 107.924 90.0352 108.293C88.3049 108.57 86.575 108.85 84.8453 109.131C84.1399 109.245 83.4344 109.358 82.7287 109.471C81.7737 109.623 80.8192 109.778 79.8647 109.934C79.5847 109.978 79.3046 110.022 79.0161 110.067C78.763 110.109 78.51 110.151 78.2492 110.194C78.03 110.23 77.8109 110.265 77.585 110.301C76.9819 110.42 76.9819 110.42 76.4636 111.035C82.7677 129.97 90.9383 149.183 107.225 161.719C107.509 161.948 107.792 162.178 108.084 162.415C116.749 169.384 127.39 173.812 138.225 176.019C138.644 176.105 138.644 176.105 139.07 176.192C143.736 177.088 148.369 177.358 153.112 177.338C153.515 177.337 153.515 177.337 153.928 177.336C160.768 177.31 167.128 176.433 173.729 174.609C173.988 174.539 174.246 174.468 174.512 174.395C181.331 172.468 187.963 169.149 193.651 164.941C193.826 164.815 194.001 164.688 194.181 164.557C196.301 163.015 198.261 161.33 200.169 159.534C200.735 159.011 201.299 158.517 201.894 158.03C202.578 157.454 203.149 156.906 203.722 156.226C204.239 155.616 204.754 155.012 205.301 154.429C217.727 141.115 223.063 122.706 222.695 104.83C222.727 95.7094 222.727 95.7094 220.018 87.5976C218.711 87.5094 217.444 87.7434 216.158 87.9535ZM228.154 86.0321C227.919 86.0717 227.684 86.1114 227.442 86.1522C227.075 86.2151 227.075 86.2151 226.702 86.2793C226.33 86.3422 226.33 86.3422 225.951 86.4063C225.341 86.5098 224.73 86.6142 224.12 86.7187C224.341 89.4729 224.8 92.1892 225.246 94.9137C225.935 99.1369 226.241 103.278 226.244 107.556C226.244 107.902 226.244 107.902 226.245 108.256C226.218 127.655 218.69 145.64 205.37 159.668C205.222 159.824 205.074 159.981 204.921 160.142C202.604 162.573 200.156 164.7 197.46 166.699C197.295 166.823 197.13 166.948 196.96 167.075C188.183 173.664 178.067 177.87 167.321 179.974C167.102 180.017 166.884 180.061 166.659 180.105C162.144 180.925 157.6 181.166 153.02 181.146C152.638 181.145 152.638 181.145 152.249 181.145C148.121 181.13 144.107 180.906 140.038 180.176C139.764 180.13 139.49 180.085 139.208 180.038C121.036 176.965 103.371 166.58 92.3676 151.68C91.9877 151.167 91.6004 150.661 91.2116 150.156C82.3793 138.549 77.4341 124.942 72.655 111.328C69.8997 111.763 69.8997 111.763 67.0886 112.207C66.8189 113.556 66.8098 114.115 67.0692 115.406C67.1373 115.745 67.2054 116.085 67.2755 116.434C67.3528 116.798 67.4301 117.161 67.5098 117.535C67.6294 118.102 67.6294 118.102 67.7515 118.681C68.5663 122.456 69.6497 126.13 70.8972 129.785C70.998 130.081 71.0988 130.376 71.2026 130.681C76.6354 146.353 86.3184 161.774 99.6082 171.973C99.9261 172.228 100.243 172.485 100.56 172.742C117.268 186.227 138.652 192.09 159.9 189.948C177.682 187.977 194.288 179.981 207.128 167.578C207.401 167.315 207.401 167.315 207.679 167.046C209.996 164.799 212.183 162.52 214.159 159.961C214.382 159.684 214.605 159.407 214.835 159.122C218.308 154.749 221.258 149.972 223.827 145.02C223.939 144.804 224.05 144.589 224.165 144.367C232.523 128.014 234.489 109.357 231.591 91.3696C231.559 91.1739 231.528 90.9783 231.495 90.7767C231.093 88.2508 231.093 88.2508 230.272 85.8398C229.522 85.8398 228.889 85.907 228.154 86.0321Z" fill="black"/>
<path d="M122.168 128.027C123.546 130.876 123.855 133.983 123.146 137.074C122.44 138.882 121.158 139.979 119.54 140.983C118.945 141.211 118.945 141.211 118.326 141.174C117.382 140.736 117.214 139.949 116.844 139.023C116.132 136.845 116.171 135.08 117.187 133.008C120.156 128.027 120.156 128.027 122.168 128.027Z" fill="black"/>
<path d="M203.705 121.216C205.082 122.368 206.356 123.754 207.129 125.39C206.836 126.269 206.836 126.269 206.344 126.611C204.553 127.443 202.942 127.799 200.977 127.441C197.824 126.205 195.558 123.299 193.945 120.41C193.945 120.217 193.945 120.023 193.945 119.824C196.869 118.857 201.063 119.82 203.705 121.216Z" fill="black"/>
<path d="M139.454 123.047C142.033 125.469 143.921 127.983 144.16 131.609C144.11 133.818 143.131 135.415 141.798 137.109C140.113 136.818 139.181 135.557 138.183 134.253C137.075 132.423 137.124 130.385 137.403 128.32C138.529 123.972 138.529 123.972 139.454 123.047Z" fill="black"/>
<path d="M166.112 141.797C168.633 143.466 171.802 146.06 172.557 149.121C172.784 151.261 172.737 153.084 171.679 154.98C169.329 154.682 167.938 153.871 166.405 152.051C164.864 149.656 164.877 146.761 165.434 144.041C165.637 143.283 165.858 142.539 166.112 141.797Z" fill="black"/>
<path d="M182.52 135.938C185.544 136.355 189.371 138.266 191.309 140.625C192.589 142.546 192.265 144.847 192.188 147.07C189.727 146.968 187.764 146.494 185.797 144.965C184.077 142.753 182.52 138.759 182.52 135.938Z" fill="black"/>
<path d="M149.415 146.191C151.744 147.839 153.29 150.346 153.994 153.102C154.377 155.592 153.553 157.221 152.125 159.21C152.004 159.361 151.883 159.512 151.759 159.668C150.101 159.166 148.787 158.17 147.852 156.715C146.53 154.035 147.025 151.952 147.937 149.214C148.322 148.123 148.784 147.16 149.415 146.191Z" fill="black"/>
<path d="M211.395 105.285C211.625 105.414 211.855 105.544 212.092 105.677C212.592 105.989 213.084 106.313 213.574 106.64C213.415 107.806 212.857 108.354 212.036 109.167C211.699 109.508 211.699 109.508 211.354 109.856C209.868 111.098 208.476 111.164 206.599 111.125C203.954 110.869 201.678 109.689 199.805 107.812C199.708 107.522 199.611 107.232 199.512 106.933C200.558 106.533 201.609 106.146 202.661 105.761C202.953 105.65 203.245 105.538 203.546 105.423C206.065 104.512 208.941 103.849 211.395 105.285Z" fill="black"/>
<path d="M175.488 114.258C178.983 114.543 182.704 115.322 185.248 117.865C186.387 119.679 186.735 121.209 186.621 123.34C181.504 123.58 181.504 123.58 179.36 121.712C177.494 119.801 175.878 116.913 175.488 114.258Z" fill="black"/>
<path d="M133.594 149.121C134.197 152.283 134.411 155.928 132.715 158.789C131.36 160.45 129.791 161.219 127.735 161.719C126.688 159.625 126.282 157.587 126.819 155.273C127.763 152.556 129.973 150.779 132.403 149.403C133.008 149.121 133.008 149.121 133.594 149.121Z" fill="black"/>
<path d="M108.399 125.684C107.99 127.699 107.3 129.519 106.404 131.36C106.263 131.658 106.263 131.658 106.12 131.962C105.297 133.6 104.307 134.626 102.632 135.444C101.232 135.734 99.8621 135.691 98.4386 135.645C97.9516 133.658 98.3469 131.788 99.3358 130.005C101.173 127.366 105.214 125.48 108.399 125.684Z" fill="black"/>
<path d="M158.202 119.531C160.891 121.195 163.23 123.038 164.446 126.05C164.892 128.478 164.395 130.31 163.183 132.422C161.057 132.023 159.687 130.963 158.38 129.25C156.827 126.462 157.368 122.473 158.202 119.531Z" fill="black"/>
</svg>
