<svg width="300" height="300" viewBox="0 0 300 300" fill="none" xmlns="http://www.w3.org/2000/svg">
<g filter="url(#filter0_d_57_717)">
<path d="M159.708 73.3447C162.563 75.985 164.468 79.6225 164.896 83.4663C165.089 85.6365 165.089 85.6365 166.205 87.4187C167.025 87.9203 167.025 87.9203 167.899 88.3388C171.743 90.2815 174.2 95.1904 175.567 99.1157C177.746 105.942 178.809 113.211 180.176 120.227C180.249 120.6 180.322 120.974 180.397 121.359C180.606 122.43 180.813 123.501 181.018 124.573C181.113 125.057 181.113 125.057 181.209 125.551C181.48 126.979 181.726 128.324 181.641 129.785C182.511 129.688 183.381 129.591 184.277 129.492C184.084 129.588 183.891 129.685 183.691 129.785C183.691 129.978 183.691 130.171 183.691 130.371C184.007 130.207 184.323 130.044 184.648 129.875C189.252 127.578 194.155 125.748 199.219 124.804C199.453 124.754 199.686 124.705 199.927 124.653C200.599 124.536 201.176 124.449 201.855 124.511C202.606 125.225 202.606 125.225 203.027 125.976C202.871 126.222 202.715 126.468 202.554 126.721C199.978 130.846 197.841 135.168 196.289 139.782C196.207 140.025 196.126 140.267 196.042 140.517C195.112 143.42 194.738 146.249 194.718 149.29C194.713 149.613 194.709 149.936 194.705 150.268C194.695 150.963 194.687 151.658 194.681 152.353C194.67 153.459 194.655 154.565 194.639 155.671C194.601 158.418 194.567 161.166 194.536 163.914C194.51 166.237 194.481 168.559 194.447 170.882C194.437 171.61 194.428 172.339 194.422 173.068C194.373 178.389 194.135 183.668 192.59 188.8C192.517 189.049 192.443 189.299 192.368 189.556C189.947 197.452 185.662 205.251 179.59 210.937C179.396 210.937 179.203 210.937 179.004 210.937C178.907 211.227 178.811 211.517 178.711 211.816C177.11 213.281 177.11 213.281 176.367 213.281C176.367 213.474 176.367 213.667 176.367 213.867C175.73 214.347 175.095 214.788 174.426 215.222C174.227 215.352 174.029 215.482 173.824 215.616C170.016 218.085 166.123 220.292 161.719 221.484C161.726 221.812 161.726 221.812 161.733 222.147C161.751 223.134 161.762 224.122 161.774 225.109C161.781 225.454 161.788 225.798 161.796 226.153C161.8 226.646 161.8 226.646 161.805 227.149C161.811 227.604 161.811 227.604 161.819 228.069C161.786 228.313 161.753 228.557 161.719 228.808C160.67 229.507 159.932 229.473 158.723 229.461C158.509 229.461 158.294 229.461 158.073 229.461C157.365 229.46 156.656 229.456 155.947 229.451C155.456 229.45 154.965 229.449 154.473 229.449C153.18 229.447 151.887 229.441 150.594 229.434C149.274 229.428 147.955 229.426 146.635 229.423C144.046 229.416 141.456 229.406 138.867 229.394C138.541 226.83 138.541 226.83 138.482 225.54C138.463 225.154 138.463 225.154 138.444 224.761C138.433 224.502 138.421 224.242 138.409 223.974C138.397 223.705 138.384 223.436 138.371 223.159C138.34 222.503 138.31 221.847 138.281 221.191C137.75 221.01 137.75 221.01 137.208 220.825C133.074 219.381 129.595 217.608 126.075 214.965C125.526 214.554 124.976 214.167 124.402 213.793C123.616 213.269 122.877 212.734 122.168 212.109C122.168 211.916 122.168 211.722 122.168 211.523C121.923 211.423 121.923 211.423 121.672 211.322C114.754 207.388 110.219 196.132 108.105 188.964C107.054 185.064 106.311 181.259 106.292 177.214C106.289 176.783 106.289 176.783 106.285 176.343C106.28 175.723 106.275 175.103 106.271 174.482C106.265 173.496 106.257 172.51 106.249 171.524C106.231 169.428 106.216 167.331 106.201 165.234C106.184 162.81 106.165 160.386 106.145 157.963C106.137 156.999 106.131 156.035 106.125 155.071C106.168 148.857 106.168 148.857 105.286 142.73C105.235 142.515 105.185 142.299 105.133 142.077C103.765 136.517 101.353 131.585 97.9214 127.016C97.8017 126.77 97.6819 126.523 97.5586 126.269C97.8289 125.49 97.8289 125.49 98.1445 124.804C100.595 124.928 102.84 125.313 105.194 125.994C105.51 126.085 105.826 126.175 106.152 126.268C110.021 127.407 113.723 128.904 117.207 130.947C117.753 131.295 117.753 131.295 118.359 131.25C118.387 131.092 118.414 130.935 118.442 130.772C119.633 123.881 120.838 116.996 122.388 110.174C122.44 109.944 122.492 109.713 122.546 109.475C122.894 107.941 123.257 106.41 123.633 104.882C123.692 104.642 123.751 104.401 123.811 104.154C123.996 103.41 124.184 102.667 124.373 101.924C124.429 101.7 124.485 101.476 124.542 101.245C125.801 96.3989 128.69 91.7714 132.715 88.7691C133.245 88.5406 133.776 88.3147 134.308 88.0916C135.119 87.6436 135.547 87.3105 135.838 86.4164C136.148 84.9051 136.281 83.373 136.437 81.8397C136.886 78.2771 139.108 75.2128 141.797 72.9487C147.464 68.9018 154.179 69.2 159.708 73.3447ZM143.758 80.1173C142.54 81.936 141.852 83.9418 142.09 86.1323C142.542 86.5847 142.963 86.4626 143.593 86.4632C143.85 86.4641 144.108 86.4651 144.373 86.466C144.654 86.4654 144.936 86.4648 145.226 86.4642C145.515 86.4645 145.805 86.4648 146.103 86.4651C146.72 86.4653 147.337 86.4647 147.954 86.4635C148.885 86.462 149.817 86.4635 150.748 86.4654C153.735 86.4662 156.695 86.4496 159.668 86.1323C159.24 83.2264 158.577 80.5352 156.15 78.6422C151.893 75.6476 147.104 76.0543 143.758 80.1173ZM134.473 95.5073C132.971 97.2728 131.25 99.5808 131.25 101.953C136.471 101.953 141.691 101.953 147.07 101.953C147.07 99.0523 147.07 96.1519 147.07 93.1636C143.042 91.8209 137.589 92.6637 134.473 95.5073ZM153.223 92.8706C153.223 95.8677 153.223 98.8648 153.223 101.953C158.733 101.953 164.244 101.953 169.922 101.953C168.52 98.307 167.179 95.2136 163.55 93.5086C161.456 92.6802 159.38 92.7717 157.159 92.8157C155.86 92.8338 154.561 92.8519 153.223 92.8706ZM129.199 108.398C128.953 109.545 128.71 110.693 128.467 111.84C128.397 112.166 128.327 112.491 128.255 112.827C128.156 113.297 128.156 113.297 128.055 113.777C127.993 114.065 127.932 114.354 127.869 114.651C127.701 115.49 127.701 115.49 127.734 116.601C134.115 116.601 140.496 116.601 147.07 116.601C147.07 113.894 147.07 111.187 147.07 108.398C141.1 108.006 135.174 108.199 129.199 108.398ZM153.223 108.398C153.223 111.105 153.223 113.812 153.223 116.601C159.507 116.601 165.791 116.601 172.266 116.601C172.019 113.054 172.019 113.054 170.801 108.398C165 108.398 159.199 108.398 153.223 108.398ZM126.27 123.339C126.079 124.133 126.079 124.133 125.956 125.063C125.905 125.405 125.854 125.746 125.801 126.099C125.75 126.457 125.7 126.815 125.647 127.185C125.594 127.545 125.54 127.906 125.486 128.277C125.354 129.17 125.225 130.063 125.098 130.957C126.167 131.292 127.169 131.285 128.285 131.283C128.485 131.283 128.686 131.283 128.892 131.283C129.551 131.283 130.211 131.28 130.87 131.278C131.328 131.278 131.786 131.277 132.244 131.277C133.448 131.276 134.653 131.273 135.857 131.27C137.086 131.267 138.315 131.265 139.545 131.264C141.956 131.261 144.366 131.256 146.777 131.25C146.968 130.333 147.108 129.487 147.109 128.55C147.11 128.325 147.11 128.099 147.11 127.867C147.109 127.636 147.108 127.405 147.107 127.166C147.108 126.936 147.109 126.706 147.11 126.469C147.11 126.243 147.11 126.017 147.109 125.785C147.109 125.481 147.109 125.481 147.108 125.172C147.061 124.353 146.916 123.561 146.777 122.753C144.19 122.74 141.603 122.729 139.015 122.723C137.814 122.72 136.613 122.716 135.411 122.709C134.252 122.703 133.094 122.699 131.935 122.698C131.492 122.697 131.05 122.695 130.607 122.691C129.988 122.687 129.369 122.687 128.751 122.687C128.222 122.685 128.222 122.685 127.682 122.683C126.816 122.667 126.816 122.667 126.27 123.339ZM153.223 123.046C153.223 125.657 153.223 128.267 153.223 130.957C154.652 131.161 155.862 131.286 157.281 131.283C157.565 131.283 157.565 131.283 157.854 131.283C158.47 131.283 159.087 131.28 159.703 131.278C160.134 131.278 160.565 131.277 160.995 131.277C162.123 131.276 163.25 131.273 164.378 131.27C165.531 131.267 166.683 131.265 167.836 131.264C170.094 131.261 172.352 131.256 174.609 131.25C174.857 130.126 174.888 129.315 174.685 128.178C174.632 127.88 174.58 127.582 174.526 127.275C174.469 126.967 174.412 126.659 174.353 126.342C174.298 126.03 174.244 125.718 174.187 125.396C174.048 123.967 174.048 123.967 173.438 122.753C172.872 122.724 172.305 122.716 171.738 122.716C171.192 122.714 171.192 122.714 170.635 122.713C170.235 122.713 169.834 122.714 169.433 122.715C169.024 122.714 168.615 122.714 168.206 122.714C167.346 122.713 166.486 122.714 165.626 122.715C164.527 122.717 163.428 122.716 162.329 122.714C161.483 122.713 160.637 122.713 159.79 122.714C159.385 122.714 158.98 122.714 158.576 122.714C158.007 122.713 157.438 122.714 156.87 122.716C156.547 122.716 156.223 122.716 155.891 122.716C154.833 122.741 154.833 122.741 153.223 123.046ZM182.227 130.371C182.52 130.957 182.52 130.957 182.52 130.957L182.227 130.371ZM108.984 133.593C109.099 133.938 109.214 134.282 109.332 134.637C109.412 134.879 109.492 135.121 109.574 135.371C109.781 135.986 109.996 136.598 110.217 137.208C111.953 142.122 112.335 146.754 112.327 151.93C112.326 152.97 112.33 154.011 112.336 155.051C112.346 157.262 112.35 159.472 112.354 161.682C112.357 164.245 112.363 166.807 112.377 169.37C112.381 170.385 112.38 171.4 112.378 172.415C112.39 177.197 112.776 181.831 114.148 186.438C114.222 186.689 114.296 186.94 114.372 187.199C115.821 191.935 117.861 196.333 120.703 200.39C120.821 200.559 120.939 200.728 121.061 200.902C126.355 208.353 134.543 214.181 143.573 216.027C144.144 216.118 144.144 216.118 144.727 216.21C144.723 216.391 144.72 216.571 144.716 216.756C144.714 216.993 144.711 217.23 144.708 217.474C144.705 217.708 144.701 217.943 144.698 218.185C144.698 218.897 144.698 218.897 145.02 219.726C145.165 221.321 145.165 221.321 145.312 222.949C148.6 223.045 151.887 223.142 155.273 223.242C155.37 220.921 155.467 218.601 155.566 216.21C156.394 216.005 157.222 215.8 158.075 215.588C163.744 214.118 168.587 211.694 173.145 208.007C173.394 207.806 173.644 207.606 173.901 207.399C182.2 200.341 186.806 188.74 187.734 178.099C187.822 176.824 187.827 175.556 187.817 174.279C187.816 174.001 187.815 173.724 187.814 173.439C187.812 172.842 187.809 172.246 187.806 171.649C187.801 170.7 187.798 169.751 187.796 168.801C187.788 166.104 187.778 163.406 187.765 160.709C187.757 159.052 187.752 157.396 187.749 155.74C187.747 155.115 187.744 154.489 187.74 153.864C187.713 149.778 187.869 145.772 188.478 141.726C188.718 140.534 188.718 140.534 188.269 139.471C188.033 139.317 188.033 139.317 187.793 139.16C187.696 139.063 187.6 138.966 187.5 138.867C186.852 138.992 186.334 139.157 185.742 139.453C185.742 139.646 185.742 139.839 185.742 140.039C185.549 140.039 185.355 140.039 185.156 140.039C185.06 139.845 184.963 139.652 184.863 139.453C184.573 139.453 184.283 139.453 183.984 139.453C183.888 139.743 183.791 140.033 183.691 140.332C183.691 140.138 183.691 139.945 183.691 139.746C183.305 139.939 182.918 140.132 182.52 140.332C182.52 140.525 182.52 140.718 182.52 140.917C182.229 140.917 181.939 140.917 181.641 140.917C181.532 141.184 181.532 141.184 181.421 141.457C180.992 142.197 180.624 142.427 179.883 142.84C178.997 143.337 178.711 143.553 178.125 144.433C177.932 144.24 177.738 144.046 177.539 143.847C177.249 143.944 176.959 144.041 176.66 144.14C176.66 144.334 176.66 144.527 176.66 144.726C176.467 144.726 176.273 144.726 176.074 144.726C175.978 145.016 175.881 145.306 175.781 145.605C175.301 146.005 174.811 146.395 174.316 146.777C173.251 147.789 172.288 148.841 171.387 150C171.387 150.193 171.387 150.386 171.387 150.585C171.097 150.682 170.807 150.779 170.508 150.878C169.74 151.683 169.116 152.621 168.457 153.515C168.178 153.879 167.899 154.242 167.62 154.606C154.533 171.913 152.948 192.103 152.051 212.988C151.857 212.988 151.664 212.988 151.465 212.988C151.465 213.181 151.465 213.375 151.465 213.574C150.334 213.995 149.444 214.192 148.242 214.16C148.068 211.351 147.943 208.545 147.882 205.731C147.554 190.827 145.484 176.466 138.281 163.183C138.099 162.843 137.916 162.503 137.729 162.152C133.496 154.502 127.532 146.444 120.703 140.917C120.416 140.678 120.128 140.438 119.832 140.191C114.838 135.85 114.838 135.85 108.984 133.593ZM126.27 137.402C127.631 138.992 127.631 138.992 129.001 140.573C129.163 140.759 129.326 140.946 129.493 141.138C129.825 141.519 130.158 141.901 130.491 142.282C130.652 142.467 130.813 142.653 130.979 142.844C131.123 143.008 131.266 143.173 131.414 143.343C131.836 143.847 131.836 143.847 132.182 144.484C133.01 145.315 133.949 145.202 135.059 145.208C135.29 145.213 135.522 145.219 135.761 145.225C136.252 145.235 136.744 145.243 137.235 145.249C137.978 145.257 138.719 145.273 139.461 145.291C139.941 145.3 140.42 145.309 140.9 145.318C141.117 145.322 141.335 145.326 141.559 145.331C143.335 145.348 144.982 145.182 146.777 145.019C146.777 142.505 146.777 139.992 146.777 137.402C140.01 137.402 133.242 137.402 126.27 137.402ZM153.223 137.402C153.223 139.916 153.223 142.429 153.223 145.019C155.178 145.08 157.13 145.132 159.086 145.164C159.75 145.177 160.414 145.195 161.078 145.218C164.849 145.542 164.849 145.542 168.323 144.441C168.996 143.783 169.492 143.217 169.922 142.382C169.922 142.189 169.922 141.996 169.922 141.796C170.115 141.796 170.309 141.796 170.508 141.796C170.997 141.313 170.997 141.313 171.497 140.698C172.212 139.856 172.933 139.047 173.73 138.281C173.585 137.846 173.585 137.846 173.438 137.402C166.767 137.402 160.096 137.402 153.223 137.402ZM187.793 137.988C188.083 138.278 188.373 138.568 188.672 138.867C188.575 138.577 188.479 138.287 188.379 137.988C188.186 137.988 187.992 137.988 187.793 137.988ZM185.156 138.281C185.156 138.474 185.156 138.667 185.156 138.867C185.543 138.77 185.93 138.673 186.328 138.574C185.941 138.477 185.555 138.38 185.156 138.281ZM188.672 139.16C188.965 139.746 188.965 139.746 188.965 139.746L188.672 139.16ZM138.281 151.171C138.422 151.446 138.562 151.72 138.707 152.003C139.111 152.829 139.352 153.562 139.585 154.447C140.26 156.353 141.059 158.165 142.969 159.082C145.299 159.698 147.735 159.651 150.128 159.631C150.45 159.631 150.773 159.632 151.104 159.632C152.044 159.626 152.979 159.597 153.917 159.555C154.204 159.549 154.49 159.543 154.785 159.537C155.972 159.452 156.737 159.385 157.586 158.508C158.038 157.838 158.418 157.163 158.789 156.445C159.056 156.015 159.327 155.587 159.602 155.162C159.856 154.754 160.11 154.345 160.364 153.936C160.496 153.725 160.627 153.513 160.763 153.295C161.082 152.783 161.4 152.27 161.719 151.757C160.642 151.066 159.607 151.092 158.37 151.105C158.153 151.105 157.935 151.105 157.711 151.105C156.995 151.105 156.278 151.11 155.562 151.114C155.064 151.115 154.567 151.116 154.069 151.117C152.761 151.119 151.453 151.125 150.145 151.131C148.81 151.137 147.474 151.14 146.139 151.143C143.52 151.149 140.9 151.159 138.281 151.171Z" fill="black"/>
</g>
<defs>
<filter id="filter0_d_57_717" x="-4" y="0" width="308" height="308" filterUnits="userSpaceOnUse" color-interpolation-filters="sRGB">
<feFlood flood-opacity="0" result="BackgroundImageFix"/>
<feColorMatrix in="SourceAlpha" type="matrix" values="0 0 0 0 0 0 0 0 0 0 0 0 0 0 0 0 0 0 127 0" result="hardAlpha"/>
<feOffset dy="4"/>
<feGaussianBlur stdDeviation="2"/>
<feComposite in2="hardAlpha" operator="out"/>
<feColorMatrix type="matrix" values="0 0 0 0 0 0 0 0 0 0 0 0 0 0 0 0 0 0 0.25 0"/>
<feBlend mode="normal" in2="BackgroundImageFix" result="effect1_dropShadow_57_717"/>
<feBlend mode="normal" in="SourceGraphic" in2="effect1_dropShadow_57_717" result="shape"/>
</filter>
</defs>
</svg>
