<svg width="300" height="300" viewBox="0 0 300 300" fill="none" xmlns="http://www.w3.org/2000/svg">
<path d="M151.17 69.4337C156.936 72.4856 160.449 79.0343 162.362 85.0476C164.685 92.8934 164.2 101.383 164.209 109.467C164.212 111.196 164.219 112.924 164.226 114.653C164.239 117.914 164.248 121.175 164.254 124.435C164.262 128.153 164.275 131.871 164.288 135.588C164.316 143.224 164.337 150.86 164.354 158.496C164.55 158.199 164.746 157.901 164.947 157.595C165.21 157.198 165.472 156.802 165.735 156.405C165.863 156.21 165.992 156.015 166.124 155.814C167.282 154.069 168.547 152.461 169.92 150.879C170.13 150.636 170.341 150.393 170.557 150.143C173.56 146.746 176.691 143.728 180.467 141.211C180.306 138.876 180.028 136.595 179.621 134.291C179.566 133.971 179.511 133.651 179.454 133.321C179.272 132.274 179.089 131.227 178.905 130.18C178.777 129.445 178.648 128.711 178.52 127.976C178.252 126.441 177.983 124.905 177.713 123.37C177.402 121.606 177.095 119.84 176.789 118.075C176.492 116.364 176.192 114.654 175.892 112.944C175.765 112.222 175.64 111.5 175.515 110.778C174.291 102.828 174.291 102.828 169.847 96.3319C168.799 95.3188 168.255 94.5783 167.869 93.1642C167.889 92.0059 167.984 91.3637 168.657 90.4176C169.513 89.8161 170.045 89.6695 171.092 89.6486C174.714 90.9084 177.034 94.6524 178.653 97.9403C179.617 100.001 180.154 102.095 180.596 104.32C180.658 104.627 180.72 104.934 180.785 105.25C181.434 108.48 182.013 111.722 182.578 114.967C182.688 115.592 182.797 116.216 182.907 116.84C183.133 118.131 183.359 119.422 183.584 120.713C183.873 122.368 184.163 124.022 184.454 125.676C184.679 126.957 184.903 128.238 185.127 129.52C185.234 130.13 185.341 130.741 185.449 131.352C185.597 132.199 185.745 133.046 185.892 133.893C185.937 134.144 185.981 134.394 186.026 134.652C186.066 134.883 186.106 135.114 186.147 135.351C186.182 135.55 186.217 135.75 186.253 135.955C186.326 136.524 186.326 136.524 186.326 137.695C186.52 137.608 186.713 137.521 186.912 137.431C187.796 137.034 188.682 136.642 189.567 136.249C189.871 136.112 190.176 135.974 190.489 135.833C193.44 134.531 193.44 134.531 195.115 134.473C195.972 134.872 196.5 135.272 197.166 135.938C197.391 138.606 197.1 141.319 196.835 143.975C196.8 144.345 196.765 144.714 196.728 145.095C196.633 146.098 196.534 147.099 196.436 148.101C196.353 148.945 196.271 149.79 196.189 150.634C195.996 152.631 195.8 154.629 195.603 156.626C195.402 158.667 195.204 160.708 195.008 162.749C194.838 164.517 194.666 166.286 194.492 168.054C194.389 169.103 194.287 170.152 194.187 171.201C192.816 185.497 190.019 199.277 179.881 210.059C179.712 210.25 179.543 210.441 179.369 210.638C172.657 217.903 161.963 221.077 152.342 221.485C141.044 221.909 129.982 219.109 121.489 211.377C115.903 206.141 112.06 199.621 109.605 192.389C109.453 191.948 109.453 191.948 109.299 191.497C108.966 190.465 108.671 189.428 108.397 188.379C108.339 188.162 108.282 187.944 108.223 187.72C106.711 181.767 106.27 175.647 105.696 169.55C105.557 168.077 105.413 166.604 105.27 165.131C105.044 162.808 104.821 160.485 104.6 158.161C104.34 155.436 104.072 152.712 103.799 149.989C103.697 148.952 103.594 147.916 103.491 146.88C103.43 146.259 103.368 145.637 103.305 145.016C102.492 136.894 102.492 136.894 103.306 135.297C104.194 134.619 104.637 134.531 105.76 134.473C106.761 134.717 107.71 135.076 108.671 135.443C109.18 135.632 109.69 135.82 110.199 136.007C110.534 136.135 110.534 136.135 110.876 136.264C111.797 136.586 112.732 136.844 113.67 137.11C113.725 136.791 113.78 136.472 113.836 136.143C114.36 133.098 114.886 130.052 115.412 127.007C115.683 125.442 115.953 123.878 116.222 122.313C118.276 110.365 118.276 110.365 119.298 105.271C119.36 104.951 119.422 104.632 119.486 104.303C120.543 99.2076 122.869 93.6528 127.164 90.444C128.352 89.7515 128.995 89.6486 130.369 89.6486C131.207 90.1656 131.687 90.5262 132.127 91.4064C132.378 93.1599 131.873 94.0796 130.889 95.4588C130.412 96.0422 129.922 96.5252 129.362 97.0277C126.623 99.6762 125.862 103.456 125.263 107.056C125.181 107.516 125.1 107.976 125.017 108.435C124.8 109.654 124.59 110.874 124.383 112.094C124.166 113.36 123.942 114.625 123.719 115.889C123.363 117.911 123.011 119.933 122.662 121.956C122.223 124.494 121.767 127.028 121.304 129.562C121.118 130.588 120.932 131.613 120.746 132.639C120.632 133.272 120.516 133.905 120.4 134.538C120.242 135.401 120.087 136.264 119.933 137.128C119.864 137.499 119.864 137.499 119.793 137.878C119.499 139.555 119.499 139.555 119.822 141.211C120.561 141.908 120.561 141.908 121.507 142.548C126.853 146.458 131.131 151.378 134.667 156.958C134.85 157.246 135.034 157.535 135.222 157.832C135.361 158.051 135.5 158.27 135.643 158.496C135.644 158.178 135.645 157.86 135.646 157.533C135.669 149.776 135.696 142.018 135.727 134.261C135.742 130.51 135.755 126.759 135.766 123.007C135.776 119.735 135.788 116.464 135.802 113.192C135.809 111.461 135.815 109.731 135.819 108C135.823 106.367 135.83 104.734 135.838 103.101C135.841 102.506 135.842 101.911 135.843 101.316C135.849 96.5571 135.997 91.7606 137.162 87.1217C137.225 86.8677 137.288 86.6137 137.353 86.352C139.042 79.8279 142.456 73.8153 147.947 69.7267C149.183 69.1463 149.843 69.0256 151.17 69.4337ZM148.886 76.3963C143.902 82.7356 142.08 89.8419 142.025 97.8257C142.022 98.1344 142.019 98.443 142.016 98.761C142.006 99.7887 141.998 100.816 141.99 101.844C141.983 102.584 141.976 103.324 141.97 104.064C141.91 110.838 141.877 117.612 141.851 124.386C141.848 125.294 141.844 126.202 141.841 127.11C141.84 127.336 141.839 127.561 141.838 127.794C141.823 131.426 141.792 135.058 141.756 138.689C141.718 142.44 141.697 146.189 141.69 149.94C141.686 152.037 141.675 154.133 141.645 156.23C141.521 165.371 141.827 173.437 145.461 181.936C146.251 183.785 146.824 185.655 147.339 187.6C147.454 188.025 147.454 188.025 147.572 188.46C147.774 189.207 147.971 189.956 148.167 190.704C148.383 191.517 148.6 192.329 148.819 193.14C148.951 193.63 149.08 194.12 149.208 194.61C149.526 195.862 149.526 195.862 150.291 196.875C150.361 196.593 150.432 196.311 150.504 196.021C152.171 189.373 154.078 182.86 156.327 176.386C156.39 176.196 156.453 176.006 156.517 175.81C156.736 175.195 156.736 175.195 157.028 174.567C158.378 171.324 158.068 167.829 158.051 164.381C158.051 163.64 158.052 162.898 158.054 162.157C158.057 160.358 158.054 158.559 158.048 156.759C158.042 154.658 158.042 152.557 158.042 150.456C158.043 146.701 158.037 142.947 158.029 139.192C158.021 135.562 158.016 131.931 158.017 128.301C158.017 128.078 158.017 127.854 158.017 127.624C158.017 127.401 158.017 127.179 158.017 126.949C158.017 122.8 158.014 118.652 158.009 114.504C158.007 113.045 158.006 111.586 158.006 110.127C158.006 108.155 158.002 106.183 157.996 104.211C157.994 103.492 157.994 102.772 157.994 102.053C157.996 93.4761 157.756 84.4145 151.756 77.6369C151.487 77.289 151.219 76.9411 150.95 76.5932C150.733 76.3575 150.515 76.1219 150.291 75.8791C149.394 75.7764 149.394 75.7764 148.886 76.3963ZM109.275 142.09C109.466 145.881 109.789 149.651 110.153 153.429C110.211 154.031 110.268 154.633 110.325 155.235C110.475 156.809 110.626 158.382 110.777 159.956C110.929 161.541 111.08 163.126 111.231 164.712C111.402 166.504 111.573 168.297 111.744 170.09C111.77 170.362 111.796 170.635 111.823 170.916C111.875 171.452 111.926 171.988 111.978 172.524C112.109 173.886 112.237 175.247 112.363 176.609C112.389 176.887 112.415 177.166 112.442 177.452C112.491 177.979 112.539 178.506 112.587 179.033C112.759 180.877 113.029 182.674 113.45 184.479C113.514 184.758 113.577 185.037 113.643 185.325C116.002 195.363 121.021 204.975 129.96 210.609C138.997 216.072 150.762 216.852 160.875 214.417C166.522 212.964 171.27 210.28 175.486 206.25C175.684 206.074 175.882 205.898 176.086 205.717C179.276 202.769 181.326 198.73 183.104 194.824C183.26 194.483 183.416 194.141 183.577 193.789C186.68 186.531 187.595 178.702 188.289 170.918C188.36 170.14 188.431 169.363 188.502 168.586C188.65 166.966 188.796 165.346 188.941 163.727C189.109 161.858 189.278 159.989 189.449 158.121C189.614 156.313 189.779 154.506 189.942 152.698C190.012 151.932 190.081 151.167 190.151 150.401C190.248 149.334 190.343 148.267 190.439 147.2C190.468 146.885 190.496 146.57 190.526 146.246C190.649 144.856 190.758 143.487 190.721 142.09C181.086 144.81 172.904 155.084 168.155 163.353C165.309 168.46 163.042 173.778 161.131 179.297C161.031 179.579 160.932 179.862 160.829 180.153C158.828 185.868 157.344 191.725 155.846 197.588C153.55 206.522 153.55 206.522 151.756 208.008C150.497 208.313 149.735 208.371 148.478 208.1C146.441 206.424 145.852 202.969 145.146 200.501C145.049 200.171 144.953 199.84 144.853 199.5C144.228 197.352 143.621 195.198 143.016 193.044C139.078 179.031 134.681 164.623 124.803 153.516C124.551 153.225 124.299 152.935 124.039 152.636C122.306 150.666 120.454 148.947 118.357 147.363C118.202 147.245 118.047 147.126 117.887 147.004C113.902 143.732 113.902 143.732 109.275 142.09Z" fill="black"/>
</svg>
