<svg width="300" height="300" viewBox="0 0 300 300" fill="none" xmlns="http://www.w3.org/2000/svg">
<path d="M105.762 108.398C106.598 109.213 107.198 109.934 107.752 110.964C107.909 111.255 108.065 111.546 108.227 111.845C108.398 112.17 108.57 112.495 108.746 112.83C108.837 113.001 108.928 113.172 109.021 113.348C122.123 138.052 132.414 163.845 147.345 237.762C147.378 238.077 147.412 238.391 147.446 238.715C147.539 239.6 147.63 240.485 147.719 241.371C147.747 241.638 147.775 241.905 147.804 242.18C147.865 242.8 147.909 243.421 147.949 244.043C147.656 244.336 147.656 244.336 147.075 244.352C139.115 243.835 131.405 240.773 125.391 235.547C125.151 235.343 124.911 235.138 124.664 234.928C111.603 223.527 107.362 205.896 106.186 189.275C106.025 186.906 105.944 184.537 105.887 182.162C105.878 181.805 105.878 181.805 105.869 181.44C105.703 174.633 105.724 167.825 105.732 161.016C105.734 159.158 105.734 157.3 105.734 155.442C105.735 152.338 105.737 149.234 105.74 146.13C105.742 142.94 105.744 139.75 105.746 136.56C105.746 136.362 105.746 136.163 105.746 135.959C105.746 134.964 105.747 133.969 105.747 132.974C105.75 124.782 105.755 116.59 105.762 108.398Z" fill="black"/>
<path d="M193.652 108.398C193.749 108.398 193.846 108.398 193.945 108.398C193.966 118.104 193.981 127.81 193.99 137.516C193.991 138.669 193.992 139.821 193.994 140.973C193.994 141.202 193.994 141.432 193.994 141.668C193.998 145.356 194.005 149.044 194.013 152.732C194.021 156.531 194.026 160.329 194.028 164.128C194.029 166.256 194.032 168.384 194.038 170.511C194.098 190.449 194.019 212.604 181.055 229.102C180.837 229.379 180.619 229.657 180.394 229.943C173.721 238.265 164.353 243.011 153.809 244.336C153.223 244.345 152.637 244.347 152.051 244.336C152.211 240.439 152.584 236.595 153.076 232.727C153.114 232.43 153.151 232.132 153.19 231.825C155.175 216.183 157.926 200.684 162.012 185.449C162.068 185.237 162.125 185.025 162.184 184.806C167.28 165.812 174.272 147.156 182.96 129.51C183.521 128.363 184.069 127.21 184.616 126.056C187.453 120.076 190.404 114.167 193.652 108.398Z" fill="black"/>
<path d="M140.039 246.973C143.207 247.54 143.207 247.54 144.184 247.718C147.413 248.287 150.277 248.514 153.534 248.053C153.83 248.015 154.126 247.976 154.432 247.937C156.301 247.688 158.103 247.344 159.961 246.973C159.961 251.323 159.961 255.674 159.961 260.156C153.387 260.156 146.813 260.156 140.039 260.156C140.039 255.806 140.039 251.455 140.039 246.973Z" fill="black"/>
<path d="M150.769 202.826C151.099 202.849 151.429 202.872 151.769 202.896C152.637 203.027 152.637 203.027 153.516 203.613C153.47 203.878 153.424 204.142 153.378 204.414C152.219 211.163 151.196 217.92 150.293 224.707C150.1 224.707 149.906 224.707 149.707 224.707C149.329 222.346 148.952 219.985 148.576 217.624C148.402 216.528 148.227 215.431 148.051 214.335C147.882 213.275 147.713 212.215 147.544 211.155C147.48 210.752 147.415 210.35 147.351 209.947C147.013 207.839 146.696 205.738 146.484 203.613C147.907 202.665 149.093 202.697 150.769 202.826Z" fill="black"/>
<path d="M152.747 56.5608C154.048 58.017 154.564 59.5664 154.479 61.5195C154.206 63.4236 153.394 65.1298 151.831 66.302C150.35 66.7546 149.235 66.7066 147.876 66.0273C146.461 64.8055 145.73 63.58 145.536 61.7392C145.48 59.9056 145.682 58.3537 146.777 56.8354C148.616 55.2586 150.752 55.3418 152.747 56.5608Z" fill="black"/>
<path d="M151.466 188.379C152.924 189.122 153.49 189.81 154.103 191.309C154.23 192.38 154.23 192.38 154.231 193.506C154.24 194.064 154.24 194.064 154.248 194.632C154.039 196.177 153.335 197.057 152.253 198.139C151.257 198.764 150.592 198.906 149.415 198.926C147.899 198.464 147.025 197.939 146.193 196.582C145.39 194.455 145.311 192.474 146.177 190.38C147.366 188.318 149.245 187.841 151.466 188.379Z" fill="black"/>
<path d="M150.877 99.6094C152.064 100.02 152.803 100.581 153.477 101.66C154.279 103.797 154.396 105.732 153.511 107.863C152.881 109.027 152.123 109.741 150.877 110.156C149.667 110.27 148.985 110.237 147.893 109.68C146.423 108.439 145.849 107.427 145.622 105.524C145.539 103.899 145.682 102.51 146.483 101.074C147.843 99.7474 148.99 99.3674 150.877 99.6094Z" fill="black"/>
<path d="M151.439 173.941C152.606 174.554 153.271 175.17 153.81 176.367C154.331 178.11 154.293 179.857 153.755 181.586C153.02 182.878 152.313 183.8 150.88 184.277C149.205 184.435 148.373 184.17 147.071 183.105C145.922 181.956 145.608 180.429 145.605 178.848C145.735 177.097 146.009 175.6 147.364 174.371C148.64 173.614 150.027 173.409 151.439 173.941Z" fill="black"/>
<path d="M152.051 144.727C153.224 145.599 153.793 146.84 154.102 148.242C154.286 150.483 153.94 152.366 152.472 154.12C151.119 154.883 150.055 154.952 148.536 154.688C146.865 153.898 146.315 152.894 145.697 151.209C145.416 149.297 145.507 147.593 146.485 145.899C148.172 144.036 149.772 143.929 152.051 144.727Z" fill="black"/>
<path d="M151.467 159.375C152.943 160.304 153.596 161.228 154.103 162.89C154.289 164.813 154.063 166.77 152.857 168.353C151.916 169.243 150.974 169.588 149.714 169.665C148.655 169.6 147.971 169.303 147.072 168.75C145.612 166.874 145.378 164.895 145.607 162.597C146.04 161.222 146.653 160.086 147.951 159.375C149.183 158.964 150.212 159.066 151.467 159.375Z" fill="black"/>
<path d="M152.437 115.448C153.624 116.745 154.024 117.926 154.213 119.659C154.034 121.361 153.726 123.003 152.437 124.218C151.203 124.963 150.564 125.097 149.122 125.097C147.74 124.619 146.988 123.974 146.193 122.754C145.36 120.923 145.332 118.996 145.955 117.096C146.482 115.848 147.241 115.161 148.482 114.605C150.059 114.47 151.107 114.62 152.437 115.448Z" fill="black"/>
<path d="M151.997 84.9977C153.152 85.9877 154.001 87.2136 154.162 88.7537C154.205 90.7606 153.918 92.5895 152.638 94.1896C151.395 95.122 150.024 95.0584 148.536 94.922C147.477 94.5453 146.971 94.0081 146.394 93.0727C145.613 91.3616 145.663 89.4336 145.9 87.5978C146.35 86.5555 146.757 85.6739 147.657 84.9611C149.107 84.4779 150.569 84.4265 151.997 84.9977Z" fill="black"/>
<path d="M151.465 129.785C152.586 130.417 153.311 131.238 153.808 132.422C154.287 134.475 154.14 136.373 153.222 138.281C152.187 139.317 151.377 139.791 149.926 139.838C148.565 139.82 147.817 139.49 146.777 138.574C145.641 137.006 145.42 135.509 145.605 133.594C145.892 132.219 146.213 131.228 147.217 130.225C148.664 129.356 149.863 129.383 151.465 129.785Z" fill="black"/>
<path d="M151.434 40.9355C152.609 41.5442 153.309 42.1379 153.809 43.3594C154.563 46.175 153.304 48.7635 152.051 51.2695C150.697 51.2695 149.344 51.2695 147.949 51.2695C146.42 48.6677 145.353 46.4744 145.898 43.3594C146.425 42.1852 146.835 41.7584 147.894 41.0522C149.143 40.6114 150.167 40.4497 151.434 40.9355Z" fill="black"/>
<path d="M141.411 46.1424C142.87 47.0984 143.643 48.4145 144.066 50.0872C144.211 50.8707 144.335 51.6504 144.432 52.4412C143.781 52.8775 143.127 53.3102 142.473 53.7413C142.198 53.9262 142.198 53.9262 141.917 54.1149C140.063 55.3281 140.063 55.3281 138.866 55.3709C137.424 54.8072 136.121 53.7761 135.35 52.4412C134.852 50.9869 134.658 49.8901 135.075 48.3946C136.622 45.8494 138.623 45.0084 141.411 46.1424Z" fill="black"/>
<path d="M161.719 45.7027C163.096 46.2058 163.831 46.8353 164.648 48.0464C165.114 49.4433 165.251 50.831 164.666 52.2144C163.797 53.6682 162.87 54.8332 161.188 55.3123C160.008 55.386 159.583 55.0893 158.624 54.4185C158.358 54.2357 158.092 54.0529 157.817 53.8646C157.558 53.6849 157.299 53.5051 157.031 53.3199C156.545 53.0231 156.058 52.7288 155.566 52.441C155.87 49.9684 156.15 48.2018 158.093 46.4901C159.29 45.6395 160.274 45.5544 161.719 45.7027Z" fill="black"/>
<path d="M162.56 159.411C163.68 160.083 164.123 160.517 164.647 161.718C164.866 164.219 163.766 166.745 162.475 168.834C161.749 169.617 161.128 169.613 160.094 169.667C159.838 169.667 159.582 169.666 159.319 169.665C159.061 169.666 158.803 169.667 158.537 169.667C157.909 169.628 157.909 169.628 157.616 169.336C157.59 168.597 157.582 167.866 157.587 167.128C157.588 166.907 157.588 166.687 157.589 166.459C157.59 165.752 157.594 165.044 157.598 164.337C157.599 163.858 157.601 163.38 157.602 162.901C157.605 161.726 157.61 160.55 157.616 159.375C159.194 158.849 160.986 158.832 162.56 159.411Z" fill="black"/>
<path d="M171.682 129.492C173.008 129.888 173.769 130.564 174.447 131.763C175.155 133.411 175.11 134.86 174.593 136.56C173.909 138.198 172.665 139.143 171.077 139.856C169.956 140.095 168.923 140.271 167.873 139.746C167.851 138.38 167.835 137.014 167.825 135.648C167.82 135.183 167.814 134.718 167.807 134.253C167.796 133.585 167.791 132.918 167.787 132.25C167.783 132.042 167.778 131.833 167.773 131.619C167.773 131.032 167.773 131.032 167.873 130.078C169.128 129.241 170.209 129.318 171.682 129.492Z" fill="black"/>
<path d="M151.455 70.8056C152.756 71.4715 153.327 72.1759 153.807 73.535C154.266 75.2742 154.023 76.6394 153.221 78.2225C152.127 79.3164 151.303 79.6524 149.76 79.7789C148.135 79.7551 147.233 78.9604 146.098 77.8563C145.317 76.5833 145.172 75.4506 145.44 74.0111C145.858 72.5582 146.315 71.7021 147.654 70.8983C148.936 70.471 150.171 70.3608 151.455 70.8056Z" fill="black"/>
<path d="M162.589 70.8267C163.814 71.4901 164.647 72.1736 165.142 73.4806C165.422 75.4378 165.244 76.914 164.062 78.516C163.128 79.3416 162.21 79.6636 160.968 79.8161C159.455 79.6235 158.55 79.1934 157.525 78.0583C156.516 76.6003 156.6 75.2734 156.738 73.5356C157.182 72.2908 157.649 71.5757 158.789 70.8988C160.067 70.4726 161.318 70.341 162.589 70.8267Z" fill="black"/>
<path d="M161.135 144.14C162.489 144.664 163.293 145.309 164.064 146.539C164.635 148.713 164.608 150.614 163.569 152.641C162.902 153.652 162.27 154.247 161.135 154.687C160.251 154.743 160.251 154.743 159.304 154.723C158.988 154.718 158.672 154.712 158.347 154.707C157.987 154.697 157.987 154.697 157.619 154.687C157.597 153.279 157.581 151.872 157.571 150.464C157.566 149.984 157.56 149.505 157.553 149.026C157.542 148.338 157.537 147.65 157.533 146.962C157.529 146.748 157.524 146.533 157.52 146.311C157.519 145.707 157.519 145.707 157.619 144.726C158.814 143.93 159.732 143.923 161.135 144.14Z" fill="black"/>
<path d="M141.026 71.0818C142.113 72.0653 142.589 72.8314 142.767 74.3033C142.84 76.0527 142.718 77.1646 141.502 78.5159C140.535 79.4834 139.633 79.6427 138.279 79.6878C137.019 79.4239 136.154 79.0274 135.24 78.1131C134.27 76.5468 134.062 75.4949 134.293 73.6648C134.634 72.2932 135.388 71.5266 136.595 70.7889C138.205 70.4229 139.519 70.3561 141.026 71.0818Z" fill="black"/>
<path d="M161.133 129.492C162.699 130.064 163.61 130.931 164.355 132.422C164.54 134.994 164.485 136.756 162.817 138.794C161.43 139.929 159.965 140.162 158.203 140.039C158.01 139.942 157.816 139.846 157.617 139.746C157.617 136.556 157.617 133.365 157.617 130.078C158.867 129.453 159.774 129.324 161.133 129.492Z" fill="black"/>
<path d="M129.546 70.9537C130.591 71.6272 131.295 72.3325 131.761 73.4989C131.975 75.3133 131.844 76.6 130.956 78.223C130.011 79.2485 129.148 79.6098 127.748 79.7153C126.519 79.6592 125.535 79.2354 124.653 78.3787C123.446 76.9668 123.237 76.0906 123.255 74.2805C123.408 72.9196 124.117 72.123 125.115 71.2467C126.549 70.3679 127.996 70.3762 129.546 70.9537Z" fill="black"/>
<path d="M160.842 114.551C162.385 115.095 163.125 115.899 164.064 117.187C164.624 118.866 164.625 120.637 163.881 122.259C163.096 123.64 162.076 124.589 160.549 125.098C160.043 125.117 159.536 125.122 159.029 125.116C158.765 125.113 158.501 125.111 158.229 125.108C158.028 125.104 157.827 125.101 157.619 125.098C157.597 123.69 157.581 122.282 157.571 120.874C157.566 120.395 157.56 119.916 157.553 119.437C157.542 118.749 157.537 118.061 157.533 117.373C157.529 117.158 157.524 116.943 157.52 116.722C157.519 116.118 157.519 116.118 157.619 115.137C158.712 114.408 159.577 114.399 160.842 114.551Z" fill="black"/>
<path d="M142.09 159.375C142.097 160.788 142.102 162.201 142.106 163.614C142.107 164.095 142.109 164.577 142.112 165.058C142.115 165.748 142.117 166.438 142.118 167.128C142.12 167.344 142.121 167.561 142.123 167.784C142.123 168.301 142.108 168.818 142.09 169.336C141.609 169.816 141.065 169.69 140.405 169.702C140.153 169.709 139.9 169.717 139.641 169.725C138.663 169.603 138.174 169.364 137.402 168.75C136.885 167.862 136.885 167.862 136.45 166.845C136.303 166.51 136.157 166.175 136.006 165.829C135.435 164.426 135.185 163.232 135.351 161.718C135.905 160.472 136.635 159.676 137.915 159.173C139.353 158.973 140.686 159.007 142.09 159.375Z" fill="black"/>
<path d="M140.535 114.661C140.766 114.687 140.997 114.714 141.234 114.741C141.799 114.844 141.799 114.844 142.092 115.137C142.121 115.851 142.132 116.556 142.13 117.27C142.131 117.59 142.131 117.59 142.131 117.917C142.132 118.369 142.131 118.821 142.13 119.274C142.128 119.968 142.13 120.662 142.132 121.357C142.131 121.795 142.131 122.234 142.13 122.672C142.131 122.881 142.132 123.09 142.132 123.305C142.125 124.771 142.125 124.771 141.799 125.098C140.139 125.28 138.813 125.18 137.404 124.219C136.036 122.82 135.441 121.655 135.262 119.715C135.409 118.01 135.774 116.606 137.093 115.448C138.313 114.627 139.089 114.484 140.535 114.661Z" fill="black"/>
<path d="M171.094 114.55C172.788 115.158 173.627 116.083 174.408 117.681C174.788 119.512 174.623 121.213 173.712 122.863C172.885 124.034 171.907 124.759 170.508 125.097C169.638 125.097 168.768 125.097 167.871 125.097C167.871 121.713 167.871 118.33 167.871 114.843C168.884 114.337 169.984 114.447 171.094 114.55Z" fill="black"/>
<path d="M159.285 99.5363C160.853 99.5631 161.902 99.7671 163.031 100.935C164.351 102.677 164.312 104.535 164.064 106.641C163.565 108.196 162.714 108.926 161.428 109.863C160.544 110.158 159.951 110.187 159.029 110.175C158.765 110.172 158.501 110.169 158.229 110.167C158.028 110.163 157.827 110.16 157.619 110.156C157.612 108.701 157.607 107.247 157.603 105.792C157.602 105.296 157.6 104.801 157.597 104.306C157.593 103.595 157.592 102.885 157.591 102.174C157.589 101.951 157.587 101.729 157.586 101.499C157.586 100.967 157.601 100.435 157.619 99.9025C158.097 99.4249 158.628 99.5481 159.285 99.5363Z" fill="black"/>
<path d="M141.798 99.6097C142.306 100.117 142.129 100.77 142.132 101.447C142.131 101.662 142.131 101.878 142.13 102.1C142.131 102.43 142.131 102.43 142.131 102.767C142.131 103.232 142.131 103.698 142.129 104.164C142.128 104.88 142.129 105.596 142.131 106.311C142.131 106.763 142.131 107.215 142.13 107.666C142.131 107.882 142.131 108.097 142.132 108.319C142.125 109.83 142.125 109.83 141.798 110.157C139.894 110.406 138.646 110.128 137.111 108.985C135.566 106.992 135.47 105.283 135.646 102.832C136.046 101.61 136.668 100.684 137.69 99.8752C138.962 99.3055 140.439 99.4617 141.798 99.6097Z" fill="black"/>
<path d="M141.569 144.437C141.741 144.532 141.913 144.628 142.09 144.726C142.097 146.098 142.102 147.469 142.106 148.841C142.107 149.308 142.109 149.774 142.112 150.241C142.115 150.911 142.117 151.581 142.118 152.251C142.12 152.461 142.121 152.671 142.123 152.887C142.123 153.389 142.108 153.892 142.09 154.394C141.609 154.874 141.065 154.749 140.405 154.76C139.151 154.744 138.385 154.646 137.402 153.808C135.786 152.054 135.525 150.531 135.571 148.206C135.7 146.72 136.177 145.926 137.256 144.928C138.57 144.041 140.087 143.762 141.569 144.437Z" fill="black"/>
<path d="M173.729 70.8983C174.843 71.526 175.596 72.3469 176.072 73.535C176.303 75.1218 176.34 76.5897 175.413 77.9478C174.678 78.8754 173.919 79.3258 172.742 79.4928C171.064 79.5189 170.048 79.3952 168.748 78.2225C167.684 77.052 167.739 75.8049 167.786 74.2937C167.937 72.9184 168.479 72.3128 169.481 71.411C170.883 70.429 172.119 70.4946 173.729 70.8983Z" fill="black"/>
<path d="M140.369 129.602C140.63 129.629 140.89 129.655 141.159 129.683C141.797 129.786 141.797 129.786 142.09 130.078C142.116 130.796 142.124 131.505 142.119 132.222C142.119 132.436 142.118 132.65 142.118 132.871C142.116 133.558 142.112 134.244 142.109 134.931C142.107 135.395 142.106 135.86 142.105 136.324C142.101 137.465 142.096 138.606 142.09 139.746C140.156 140.067 138.875 140.017 137.183 138.941C135.843 137.6 135.584 136.482 135.535 134.619C135.573 133.189 135.646 132.138 136.524 130.957C137.798 129.779 138.653 129.417 140.369 129.602Z" fill="black"/>
<path d="M167.871 99.6094C171.512 99.6094 171.512 99.6094 172.852 100.781C173.105 100.981 173.105 100.981 173.364 101.184C174.308 102.411 174.448 103.859 174.408 105.359C174.183 107.067 173.581 108.335 172.247 109.424C170.557 110.287 170.047 110.156 167.871 110.156C167.871 106.676 167.871 103.195 167.871 99.6094Z" fill="black"/>
<path d="M161.133 84.6681C162.442 85.4328 163.278 86.3068 163.934 87.6711C164.212 90.049 164.057 92.0968 162.598 94.0431C161.417 95.0268 160.281 95.1203 158.789 95.215C158.402 95.1183 158.016 95.0217 157.617 94.922C157.617 91.5383 157.617 88.1545 157.617 84.6681C158.733 84.1101 159.958 84.3634 161.133 84.6681Z" fill="black"/>
<path d="M129.949 129.455C130.179 129.455 130.409 129.454 130.645 129.453C131.249 129.492 131.249 129.492 131.835 129.785C131.842 131.198 131.847 132.611 131.851 134.025C131.852 134.506 131.854 134.987 131.857 135.468C131.86 136.158 131.862 136.848 131.863 137.538C131.865 137.755 131.866 137.971 131.868 138.194C131.868 138.711 131.853 139.229 131.835 139.746C131.542 140.039 131.542 140.039 131.019 140.055C129.228 139.914 127.931 139.465 126.561 138.281C125.319 136.759 125.223 135.48 125.295 133.538C125.463 132.067 125.927 131.272 127.001 130.279C128.007 129.6 128.761 129.452 129.949 129.455Z" fill="black"/>
<path d="M136.817 57.7149C136.697 57.9449 136.577 58.1749 136.453 58.4119C135.081 61.0886 134.389 63.5524 133.888 66.504C132.346 66.5965 131.381 66.4744 130.079 65.6251C128.933 64.4267 128.091 63.4274 127.988 61.7421C128.041 59.9399 128.528 58.8649 129.801 57.589C131.955 55.8539 134.507 56.7447 136.817 57.7149Z" fill="black"/>
<path d="M169.757 57.3122C171.187 58.6374 171.872 59.8093 171.999 61.7479C171.946 63.0609 171.514 64.0141 170.609 64.9603C169.121 66.2868 168.134 66.5422 166.113 66.5041C166.046 66.1785 165.978 65.853 165.908 65.5176C165.417 63.2466 164.931 61.1781 163.756 59.1455C163.477 58.5939 163.477 58.5939 163.477 57.715C165.502 56.635 167.631 56.307 169.757 57.3122Z" fill="black"/>
<path d="M131.835 114.844C131.835 118.228 131.835 121.612 131.835 125.098C129.448 125.098 128.64 125.023 126.928 123.505C125.577 121.966 125.557 120.724 125.589 118.713C125.745 117.151 126.288 116.254 127.441 115.174C129.017 114.287 129.928 114.632 131.835 114.844Z" fill="black"/>
<path d="M177.832 99.6094C181.136 99.6094 181.136 99.6094 182.886 101.019C183.932 102.327 184.12 103.748 184.076 105.379C183.858 106.983 183.118 108.215 181.897 109.259C180.253 110.438 180.374 110.156 177.832 110.156C177.832 106.676 177.832 103.195 177.832 99.6094Z" fill="black"/>
<path d="M131.834 99.6094C131.834 103.09 131.834 106.57 131.834 110.156C129.866 110.156 128.974 110.088 127.44 108.984C126.028 107.482 125.584 106.094 125.619 104.029C125.803 102.244 126.694 101.035 128.026 99.9023C128.905 99.6094 128.905 99.6094 131.834 99.6094Z" fill="black"/>
<path d="M122.17 99.6097C122.17 103.09 122.17 106.571 122.17 110.157C119.863 110.157 119.111 110.115 117.482 108.692C116.238 107.279 115.948 105.554 116.017 103.711C116.262 102.36 116.737 101.413 117.775 100.507C119.412 99.382 119.923 99.6097 122.17 99.6097Z" fill="black"/>
<path d="M142.088 84.6678C142.088 88.0516 142.088 91.4354 142.088 94.9217C138.833 94.9217 138.833 94.9217 137.539 93.949C136.102 92.309 136.079 90.6652 136.125 88.5817C136.294 86.984 136.807 86.1037 137.987 84.9974C139.22 84.3036 140.783 84.0149 142.088 84.6678Z" fill="black"/>
<path d="M123.341 84.3746C123.634 84.6676 123.634 84.6676 123.668 85.6422C123.667 86.0745 123.666 86.5069 123.663 86.9393C123.662 87.1665 123.662 87.3936 123.662 87.6277C123.66 88.3561 123.656 89.0845 123.653 89.8129C123.651 90.3055 123.65 90.7982 123.649 91.2909C123.645 92.5011 123.64 93.7113 123.634 94.9215C122.095 95.2602 121.204 95.1027 119.826 94.3356C118.617 93.1794 118.05 92.1756 117.775 90.527C117.75 88.5843 118.037 87.0889 119.24 85.5465C120.528 84.6209 121.738 84.1792 123.341 84.3746Z" fill="black"/>
<path d="M120.265 114.514C120.614 114.513 120.614 114.513 120.97 114.512C121.584 114.551 121.584 114.551 122.17 114.844C122.17 118.227 122.17 121.611 122.17 125.098C121.3 125.098 120.429 125.098 119.533 125.098C119.057 124.194 118.581 123.291 118.105 122.388C117.903 122.004 117.903 122.004 117.696 121.613C117.566 121.365 117.436 121.118 117.301 120.863C117.122 120.523 117.122 120.523 116.939 120.175C116.828 119.963 116.717 119.75 116.603 119.531C116.493 119.328 116.382 119.124 116.268 118.915C115.863 118.018 115.996 117.525 116.31 116.601C117.485 115.335 118.513 114.508 120.265 114.514Z" fill="black"/>
<path d="M168.492 84.2832C169.797 84.3885 170.697 84.6942 171.678 85.5466C172.979 87.1047 173.012 88.8622 172.942 90.8224C172.777 92.3891 172.258 93.1486 171.202 94.2808C170.425 94.894 169.812 95.0252 168.833 95.1082C168.479 95.1403 168.479 95.1403 168.118 95.173C167.939 95.1868 167.76 95.2005 167.576 95.2146C167.527 93.718 167.48 92.2213 167.435 90.7246C167.419 90.215 167.403 89.7055 167.386 89.1959C167.362 88.4651 167.34 87.7343 167.319 87.0035C167.311 86.7743 167.303 86.5451 167.295 86.309C167.279 85.7621 167.28 85.2148 167.283 84.6677C167.576 84.3748 167.576 84.3748 168.492 84.2832Z" fill="black"/>
<path d="M179.5 114.478C180.825 114.497 181.71 114.641 182.814 115.43C183.547 116.236 183.547 116.236 183.986 117.188C183.664 118.772 183.015 120.071 182.229 121.472C181.572 122.657 180.94 123.823 180.471 125.098C179.601 125.098 178.73 125.098 177.834 125.098C177.827 123.643 177.821 122.188 177.818 120.733C177.816 120.238 177.814 119.742 177.812 119.247C177.808 118.537 177.807 117.826 177.805 117.116C177.804 116.893 177.802 116.67 177.801 116.44C177.801 115.908 177.816 115.376 177.834 114.844C178.312 114.366 178.843 114.49 179.5 114.478Z" fill="black"/>
<path d="M176.955 84.375C178.548 84.4687 179.542 84.8084 180.764 85.8398C181.966 87.3587 182.122 88.6231 182.045 90.5457C181.848 92.0901 181.412 93.1855 180.226 94.2181C178.97 95.0817 178.195 95.242 176.662 95.2148C176.655 93.7182 176.65 92.2215 176.646 90.7248C176.645 90.2153 176.643 89.7057 176.64 89.1962C176.636 88.4654 176.635 87.7345 176.633 87.0037C176.632 86.7745 176.63 86.5453 176.629 86.3092C176.629 85.762 176.644 85.2149 176.662 84.668C176.759 84.5713 176.855 84.4746 176.955 84.375Z" fill="black"/>
<path d="M132.42 84.375C132.42 87.9521 132.42 91.5293 132.42 95.2148C130.128 94.9283 129.399 94.835 128.026 93.1641C127.109 91.6173 126.918 89.9491 127.147 88.1836C127.664 86.4606 128.358 85.6779 129.783 84.668C130.662 84.375 130.662 84.375 132.42 84.375Z" fill="black"/>
<path d="M157.91 58.3008C159.628 59.1597 160.428 60.515 161.148 62.2765C161.643 63.8103 161.719 64.8168 161.719 66.5039C160.269 66.5039 158.818 66.5039 157.324 66.5039C157.518 63.7969 157.711 61.0898 157.91 58.3008Z" fill="black"/>
<path d="M141.506 58.3008C141.602 58.3008 141.699 58.3008 141.798 58.3008C141.823 58.5486 141.823 58.5486 141.848 58.8015C141.922 59.5623 141.998 60.3232 142.073 61.084C142.099 61.3438 142.124 61.6036 142.15 61.8713C142.304 63.4189 142.477 64.9616 142.677 66.5039C141.227 66.5039 139.777 66.5039 138.283 66.5039C138.076 63.2997 139.158 61.0155 141.213 58.5938C141.309 58.4971 141.406 58.4004 141.506 58.3008Z" fill="black"/>
</svg>
