<svg width="300" height="300" viewBox="0 0 300 300" fill="none" xmlns="http://www.w3.org/2000/svg">
<path d="M173.625 68.5201C176.305 70.7552 178.206 73.5624 178.712 77.0505C178.972 80.0827 178.85 82.9104 176.98 85.4184C175.66 86.4603 174.234 86.806 172.633 87.2678C165.816 88.9918 165.816 88.9918 160.731 93.3652C159.949 95.3808 159.899 97.6486 159.737 99.786C159.647 100.708 159.511 101.622 159.376 102.539C159.628 102.425 159.879 102.312 160.139 102.195C170.002 97.7601 170.002 97.7601 174.903 96.3864C175.232 96.2903 175.232 96.2903 175.568 96.1923C184.742 93.5877 195.23 95.2762 203.525 99.8483C212.52 105.036 218.698 113.046 221.554 123.051C223.997 132.179 223.706 141.343 222.071 150.586C222.012 150.923 222.012 150.923 221.951 151.268C220.804 157.702 219.443 164.004 217.384 170.215C217.284 170.521 217.184 170.828 217.081 171.144C214.531 178.925 211.391 186.492 208.009 193.945C207.863 194.266 207.718 194.586 207.569 194.917C194.964 222.643 194.964 222.643 184.227 227.067C180.913 228.176 177.496 227.82 174.317 226.465C173.082 225.733 172.185 225.025 171.388 223.828C171.228 224.033 171.068 224.239 170.904 224.45C167.029 229.325 162.509 231.956 156.336 232.837C150.985 233.25 145.28 233.221 140.953 229.672C139.976 228.773 139.116 227.79 138.282 226.758C138.204 226.924 138.125 227.091 138.044 227.262C136.785 229.743 135.337 231.222 132.679 232.141C127.454 233.735 121.723 233.09 116.895 230.566C109.539 226.07 105.17 219.466 101.075 212.109C100.83 211.669 100.83 211.669 100.58 211.22C89.6447 191.483 81.1974 169.705 77.6376 147.363C77.5663 146.936 77.5663 146.936 77.4936 146.5C76.32 139.328 76.1468 131.649 77.6376 124.511C77.6784 124.312 77.7192 124.112 77.7612 123.907C79.3881 116.275 83.7165 109.554 89.0634 104.004C89.2515 103.797 89.4395 103.59 89.6333 103.378C95.7879 96.81 105.356 92.8762 114.263 92.4863C122.103 92.2719 127.648 94.6624 134.314 98.5824C136.656 99.9546 139.006 101.186 141.505 102.246C141.817 100.707 142.12 99.1672 142.407 97.6235C143.085 94.0234 143.898 90.5531 145.089 87.0881C145.32 86.4061 145.538 85.7209 145.754 85.0339C148.001 77.9338 151.813 72.3011 158.467 68.678C159.249 68.3063 160.031 67.9801 160.841 67.6755C161.079 67.5822 161.317 67.4889 161.562 67.3928C165.366 66.1229 170.302 66.147 173.625 68.5201ZM158.497 75.5856C158.256 75.779 158.015 75.9724 157.767 76.1716C153.535 79.7731 152.024 84.074 150.587 89.3002C150.384 90.0244 150.181 90.7484 149.978 91.4723C149.882 91.8157 149.785 92.1591 149.686 92.5129C149.35 93.6838 148.985 94.8435 148.609 96.0019C148.099 97.6068 147.662 99.2166 147.273 100.854C147.222 101.064 147.172 101.274 147.12 101.49C146.896 102.462 146.778 103.292 146.778 104.297C147.738 104.776 148.783 104.68 149.836 104.699C150.064 104.71 150.291 104.721 150.526 104.733C151.274 104.76 151.274 104.76 152.345 104.59C154.018 102.753 153.816 99.4092 153.938 97.0639C154.16 93.5095 155.069 91.233 157.663 88.7521C161.133 85.7897 165.109 84.3046 169.411 82.978C169.729 82.8759 170.048 82.7737 170.376 82.6684C170.806 82.5366 170.806 82.5366 171.244 82.4021C172.153 81.9397 172.421 81.4764 172.852 80.5661C173.226 78.5593 172.675 76.5117 171.671 74.7674C170.741 73.4946 169.663 72.9658 168.165 72.656C164.623 72.2084 161.248 73.377 158.497 75.5856ZM95.5087 106.054C95.2171 106.298 94.9256 106.542 94.6252 106.793C86.9785 113.391 83.4673 122.275 82.7096 132.164C80.9023 158.981 94.476 189.398 112.794 219.433C113.071 219.783 113.071 219.783 113.355 220.141C116.116 223.448 120.398 226.576 124.806 227.05C127.696 227.228 130.405 227.365 132.716 225.439C133.853 224.017 133.825 222.384 133.684 220.623C133.355 218.391 132.361 216.247 131.544 214.16C128.01 205.111 125.276 196.065 123.048 186.621C122.979 186.331 122.911 186.042 122.84 185.744C120.331 175.116 117.999 164.665 118.012 153.698C118.013 153.439 118.013 153.179 118.013 152.911C118.023 147.318 118.179 141.906 119.825 136.523C119.92 136.204 119.92 136.204 120.018 135.878C121.28 131.693 122.815 127.876 125.684 124.511C125.864 124.272 126.043 124.033 126.228 123.786C129.918 119.443 136.449 117.677 141.798 116.601C142.154 116.529 142.51 116.457 142.877 116.383C147.971 115.544 153.419 115.742 158.497 116.601C158.666 116.329 158.835 116.057 159.01 115.777C160.203 114.087 161.395 113.722 163.331 113.232C163.577 113.17 163.824 113.107 164.078 113.043C172.454 110.987 181.197 110.451 188.906 114.851C192.525 117.051 195.413 119.931 197.462 123.633C197.636 123.939 197.811 124.246 197.991 124.562C201.608 131.301 202.328 139.203 200.26 146.548C199.627 148.59 198.768 150.465 197.755 152.343C197.51 152.813 197.51 152.813 197.26 153.291C196.113 155.384 194.729 157.083 193.067 158.789C192.807 159.067 192.548 159.345 192.28 159.631C190.852 160.943 189.747 161.545 187.837 161.753C187.097 161.712 186.664 161.52 186.036 161.133C185.492 160.408 185.449 160.012 185.468 159.1C185.87 157.788 186.671 157.16 187.733 156.325C192.305 152.611 195.041 146.37 195.704 140.625C196.04 134.217 194.629 128.231 190.339 123.285C187.294 120.047 183.509 117.721 178.989 117.421C177.974 117.391 176.962 117.384 175.947 117.389C175.586 117.389 175.226 117.39 174.855 117.391C169.993 117.347 169.993 117.347 165.528 118.945C165.829 119.105 166.13 119.265 166.44 119.429C171.418 122.118 175.279 125.413 178.126 130.371C178.351 130.757 178.351 130.757 178.581 131.15C180.622 134.909 181.802 139.312 182.227 143.554C182.26 143.863 182.292 144.171 182.325 144.488C182.692 148.565 182.485 152.581 182.136 156.646C182.116 156.884 182.096 157.121 182.075 157.365C181.936 159.012 181.791 160.658 181.642 162.304C181.609 162.666 181.576 163.028 181.542 163.401C180.896 170.283 179.739 177.102 178.486 183.896C178.421 184.249 178.421 184.249 178.355 184.608C178.29 184.961 178.29 184.961 178.224 185.321C177.143 191.189 176.272 197.061 175.564 202.985C175.492 203.592 175.417 204.199 175.343 204.805C174.931 208.179 174.54 211.546 174.5 214.947C174.496 215.159 174.492 215.371 174.488 215.59C174.503 217.27 174.772 219.191 175.904 220.498C177.344 221.739 178.609 221.901 180.441 221.874C184.183 221.473 187.306 218.823 189.631 216.013C204.482 196.066 215.524 166.201 217.072 129.529C215.822 121.373 211.786 113.131 205.16 108.008C197.798 102.624 188.95 99.9572 179.837 101.265C174.502 102.175 169.67 104.235 164.805 106.536C157.219 110.092 149.965 111.56 141.854 108.641C137.761 107.094 133.989 105.032 130.201 102.859C118.624 96.2263 105.945 97.3338 95.5087 106.054ZM129.523 128.599C125.692 133.116 124.403 140.142 123.927 145.898C123.895 146.219 123.862 146.54 123.829 146.871C122.876 157.63 124.663 168.306 127.039 178.766C127.116 179.106 127.193 179.446 127.272 179.797C131.987 205.154 131.987 205.154 145.606 225.879C149.736 228.113 154.816 227.493 159.18 226.238C161.726 225.387 163.821 224.159 165.528 222.07C165.66 221.91 165.791 221.749 165.926 221.584C168.123 218.499 168.664 214.383 168.985 210.707C169.089 209.523 169.212 208.342 169.331 207.16C169.355 206.915 169.379 206.67 169.404 206.418C170.361 196.778 171.882 187.214 173.736 177.708C174.8 172.222 175.451 166.683 176.075 161.133C176.115 160.783 176.155 160.433 176.196 160.073C177.238 150.587 178 139.126 171.911 131.073C167.542 125.691 161.199 122.741 154.395 121.875C153.015 121.79 151.64 121.777 150.257 121.783C149.882 121.785 149.507 121.786 149.121 121.788C142.258 121.872 134.482 123.497 129.523 128.599Z" fill="black"/>
<path d="M136.229 112.793C136.777 113.661 136.82 114.131 136.778 115.155C136.473 116.179 136.221 116.569 135.35 117.187C133.472 117.665 131.946 117.244 130.095 116.785C123.805 115.331 117.396 115.215 111.722 118.696C106.422 122.154 103.3 127.263 101.872 133.363C100.785 139.027 101.246 144.022 103.988 149.155C104.788 150.711 105.17 152.051 104.881 153.809C104.284 154.727 103.894 154.926 102.849 155.237C101.6 155.288 100.969 155.101 100.012 154.28C95.8991 150.066 94.8214 143.297 94.877 137.672C95.1419 130.673 97.705 123.785 102.538 118.652C102.667 118.51 102.796 118.368 102.929 118.222C110.591 109.808 126.289 105.662 136.229 112.793Z" fill="black"/>
</svg>
