<svg width="300" height="300" viewBox="0 0 300 300" fill="none" xmlns="http://www.w3.org/2000/svg">
<path d="M149.853 50.043C155.26 52.6108 158.394 58.3967 161.131 63.4108C161.514 64.109 161.916 64.7478 162.362 65.4135C163.108 66.5394 163.219 67.3296 163.212 68.6499C163.211 68.9511 163.21 69.2523 163.209 69.5626C163.207 69.8766 163.204 70.1906 163.202 70.5142C163.201 70.8316 163.199 71.149 163.198 71.476C163.194 72.2602 163.19 73.0443 163.184 73.8284C163.732 74.0308 163.732 74.0308 164.355 74.1213C165.212 73.3969 165.898 72.5667 166.608 71.7043C167.285 70.8987 167.285 70.8987 167.871 70.6057C168.457 70.594 169.043 70.593 169.629 70.6057C171.333 74.0133 169.277 79.6712 168.281 83.0535C168.201 83.3253 168.121 83.5971 168.039 83.8771C167.883 84.4016 167.723 84.9249 167.558 85.4467C166.813 87.9023 166.638 89.9659 167.817 92.2991C168.339 93.1599 168.719 93.5885 169.629 94.0432C171.792 94.2543 173.945 93.9014 176.074 93.5488C176.372 93.5052 176.669 93.4616 176.976 93.4166C179.591 92.9892 181.758 92.0566 183.874 90.4543C185.128 89.5995 185.974 89.3048 187.5 89.3557C191.042 91.7226 192.165 97.818 192.973 101.751C193.391 105.269 193.044 108.175 190.851 111.035C188.723 113.522 186.393 115.72 183.837 117.758C183.016 118.433 182.28 119.158 181.542 119.921C180.844 120.623 180.096 121.262 179.347 121.91C178.142 122.954 176.958 124.022 175.781 125.098C175.603 125.256 175.425 125.414 175.242 125.577C174.071 126.672 173.13 127.905 172.192 129.199C172.068 129.37 171.943 129.54 171.815 129.716C170.238 131.946 169.527 134.062 169.629 136.817C169.726 137.107 169.822 137.397 169.922 137.696C171.798 137.773 173.196 137.603 174.939 136.927C175.152 136.848 175.365 136.769 175.584 136.688C177.021 136.152 178.443 135.58 179.864 135.004C184.58 133.097 184.58 133.097 186.621 133.301C186.814 133.398 187.008 133.494 187.207 133.594C187.39 134.345 187.39 134.345 187.5 135.059C188.619 134.735 189.581 134.301 190.594 133.74C193.009 132.517 195.657 132.107 198.295 132.787C199.891 133.346 200.846 134.142 201.62 135.656C203.04 139.124 203.083 144.352 201.889 147.874C200.492 150.706 198.335 152.449 195.41 153.516C194.245 153.817 193.151 153.839 191.949 153.827C191.609 153.825 191.269 153.822 190.918 153.819C190.531 153.814 190.531 153.814 190.137 153.809C190.137 154.002 190.137 154.196 190.137 154.395C190.39 154.494 190.39 154.494 190.649 154.596C191.507 155.097 191.953 155.605 192.48 156.446C192.499 157.215 192.499 157.215 192.187 157.91C190.808 159.006 189.085 159.218 187.408 159.595C181.418 161.021 174.889 163.651 171.094 168.75C170.661 169.616 170.783 170.433 170.801 171.387C172.756 172.304 174.848 172.31 176.97 172.284C177.299 172.283 177.299 172.283 177.634 172.281C178.557 172.276 179.48 172.268 180.403 172.26C182.894 172.24 185.374 172.249 187.862 172.389C188.061 172.4 188.261 172.411 188.467 172.422C192.768 172.695 197.163 173.937 200.098 177.246C200.967 178.607 200.823 180.083 200.684 181.641C199.805 184.568 197.776 186.115 195.197 187.58C192.385 189.063 189.427 189.219 186.306 189.478C185.679 189.541 185.679 189.541 184.863 189.844C184.84 190.984 184.876 191.985 185.101 193.103C185.156 194.239 185.156 194.239 184.57 195.117C183.458 195.859 182.967 195.81 181.641 195.703C180.719 195.461 179.828 195.143 178.931 194.824C175.912 193.822 173.547 193.414 170.555 194.766C169.022 195.617 168.238 196.75 167.578 198.34C167.537 198.572 167.496 198.803 167.453 199.042C167.288 199.882 167.118 200.52 166.699 201.27C165.853 201.83 164.993 202.213 164.064 202.619C161.608 203.759 160.29 206.05 159.316 208.498C156.68 216.186 156.494 225.069 156.383 233.132C156.379 233.428 156.375 233.724 156.371 234.029C156.354 235.248 156.338 236.468 156.328 237.687C156.32 238.592 156.306 239.497 156.292 240.402C156.291 240.674 156.29 240.947 156.289 241.228C156.251 243.233 156.04 245.034 154.559 246.515C152.686 247.657 150.314 247.471 148.216 247.11C146.704 246.737 145.755 246.437 144.727 245.215C144.44 244.357 144.402 243.832 144.414 242.94C144.417 242.656 144.42 242.372 144.423 242.079C144.427 241.771 144.431 241.462 144.436 241.144C144.441 240.482 144.446 239.82 144.451 239.158C144.46 238.122 144.47 237.085 144.484 236.049C144.555 230.405 144.251 224.909 142.859 219.416C142.796 219.163 142.734 218.91 142.669 218.65C141.431 213.801 139.483 208.879 135.146 206.021C131.972 204.213 128.969 203.694 125.391 203.321C125.063 202.231 125.063 202.231 125.372 201.49C125.813 200.349 125.802 199.562 125.684 198.34C124.84 197.285 123.45 197.096 122.168 196.875C120.483 196.741 118.792 196.672 117.103 196.618C111.193 196.417 106.908 193.667 102.832 189.551C100.282 186.803 98.6224 183.793 98.6893 180.002C98.7407 179.123 98.807 178.563 99.3164 177.832C101.35 176.506 103.568 177.002 105.856 177.427C106.882 177.646 107.906 177.876 108.929 178.107C119.83 180.537 119.83 180.537 130.389 178.455C131.262 177.497 131.508 176.973 131.653 175.672C131.456 173.771 130.33 172.73 128.938 171.555C127.814 170.716 126.563 170.118 125.317 169.483C122.524 168.013 120.025 166.318 117.529 164.393C115.501 162.847 113.487 161.74 111.108 160.822C110.722 160.669 110.722 160.669 110.329 160.514C108.942 159.971 107.553 159.48 106.128 159.046C104.639 158.568 103.313 157.908 102.246 156.739C101.906 155.859 101.921 155.647 102.283 154.743C102.702 154.03 103.114 153.444 103.619 152.802C104.153 152.058 104.308 151.702 104.498 150.769C104.093 148.634 102.596 147.132 101.221 145.514C98.5013 142.253 97.6041 139.184 97.799 135.033C97.9532 133.389 98.668 132.087 99.8291 130.939C100.971 130.258 101.839 130.244 103.125 130.371C103.899 130.571 104.585 130.779 105.322 131.067C105.523 131.144 105.724 131.222 105.93 131.302C108.933 132.52 111.581 134.349 114.153 136.295C118.252 139.435 118.252 139.435 123.102 140.863C124.447 140.577 124.896 140.282 125.684 139.16C126.654 137.178 126.227 135.082 125.684 133.008C124.476 129.716 122.306 127.213 119.824 124.805C119.571 124.556 119.318 124.307 119.057 124.051C117.497 122.578 115.841 121.279 114.13 119.989C110.898 117.549 107.944 115.1 105.762 111.621C105.762 111.525 105.762 111.428 105.762 111.328C106.023 111.333 106.023 111.333 106.29 111.338C107.078 111.35 107.867 111.357 108.655 111.365C109.067 111.372 109.067 111.372 109.487 111.38C109.88 111.383 109.88 111.383 110.282 111.386C110.646 111.39 110.646 111.39 111.017 111.395C111.687 111.385 111.687 111.385 112.207 110.742C112.134 109.029 111.694 107.785 110.889 106.275C109.196 102.851 109.244 99.3056 110.385 95.6545C110.661 94.9894 110.974 94.377 111.328 93.7502C111.473 93.4882 111.618 93.2261 111.768 92.956C112.962 90.9375 114.454 88.9648 116.602 87.8909C117.736 87.6837 118.779 87.6384 119.809 88.2044C122.742 90.6511 125.103 93.9892 127.396 97.0198C127.604 97.2944 127.813 97.5689 128.027 97.8518C128.231 98.1215 128.435 98.3911 128.645 98.6689C129.269 99.3978 129.757 99.6254 130.664 99.9026C132.439 98.3047 132.594 96.6052 132.719 94.3018C132.704 90.5092 131.444 87.7809 129.492 84.6682C128.296 82.6182 128.296 82.6182 128.394 81.4456C128.502 81.1555 128.502 81.1555 128.613 80.8596C129.773 80.5696 129.773 80.5696 130.957 80.2737C131.088 78.1609 130.763 76.2946 130.297 74.2369C129.773 71.8556 129.518 69.9111 130.664 67.676C131.369 66.6182 132.098 65.8308 133.173 65.1492C133.887 65.0393 133.887 65.0393 134.637 65.3689C135.333 65.9042 135.947 66.4279 136.523 67.0901C136.523 67.2834 136.523 67.4768 136.523 67.676C136.91 67.676 137.297 67.676 137.695 67.676C137.952 67.0843 138.209 66.4922 138.464 65.8999C138.584 65.6244 138.584 65.6244 138.705 65.3434C139.119 64.381 139.519 63.4167 139.889 62.4369C141.25 58.8452 143.161 55.9807 145.605 53.0276C145.798 52.7753 145.991 52.523 146.189 52.2631C147.138 51.1338 148.343 50.1563 149.853 50.043ZM150.293 58.0081C149.752 66.2077 149.543 74.4018 149.414 82.6174C147.391 82.6174 145.012 79.8165 143.621 78.5204C143.035 77.9899 142.437 77.5132 141.797 77.051C142.27 78.2265 143.093 79.0299 143.976 79.9075C144.114 80.0502 144.252 80.193 144.394 80.3401C145.139 81.0855 145.808 81.6868 146.73 82.2145C148.978 83.544 148.978 83.544 149.384 85.071C149.451 86.2832 149.417 87.4504 149.341 88.6599C149.325 89.0911 149.312 89.5223 149.299 89.9536C149.264 91.0216 149.212 92.0878 149.152 93.1547C149.106 94.0421 149.075 94.9301 149.043 95.8182C148.989 97.2786 148.915 98.7367 148.828 100.196C145.635 97.3233 142.766 94.4818 140.438 90.8465C139.618 89.5686 139.618 89.5686 138.574 88.4768C139.903 93.1006 143.31 97.0399 146.613 100.397C146.765 100.552 146.918 100.708 147.075 100.868C147.813 101.699 147.813 101.699 148.828 101.953C149.021 111.525 149.215 121.096 149.414 130.957C144.65 128.235 144.65 128.235 142.914 127.021C142.736 126.899 142.558 126.778 142.374 126.654C139.432 124.618 136.813 122.262 134.3 119.728C133.85 119.275 133.398 118.826 132.945 118.377C131.079 116.513 129.367 114.575 127.734 112.5C127.469 112.172 127.204 111.845 126.939 111.517C123.608 107.273 121.171 102.759 118.945 97.8518C118.459 99.3116 119.179 100.608 119.659 102.027C119.767 102.345 119.874 102.663 119.985 102.991C120.872 105.539 121.911 107.87 123.34 110.156C123.455 110.342 123.571 110.527 123.69 110.718C125.679 113.861 127.948 116.714 130.371 119.531C122.763 119.592 122.763 119.592 119.531 119.239C119.531 119.335 119.531 119.432 119.531 119.531C122.762 120.373 125.83 121.076 129.181 121.088C131.565 121.108 131.565 121.108 132.636 121.825C133.129 122.406 133.498 122.982 133.887 123.633C134.08 123.633 134.273 123.633 134.473 123.633C134.548 123.807 134.624 123.98 134.702 124.159C135.09 124.861 135.473 125.242 136.084 125.757C136.289 125.931 136.495 126.105 136.707 126.285C137.905 127.269 139.114 128.239 140.332 129.199C133.073 130.538 133.073 130.538 129.785 130.664C129.785 130.761 129.785 130.858 129.785 130.957C131.535 131.236 133.185 131.243 134.951 131.101C142.862 130.484 142.862 130.484 145.74 132.916C146.046 133.197 146.348 133.484 146.644 133.776C147.406 134.498 148.334 135.352 149.414 135.352C149.414 137.382 149.414 139.412 149.414 141.504C148.931 141.341 148.447 141.178 147.949 141.01C143.285 139.579 138.447 138.723 133.594 138.281C133.594 138.475 133.594 138.668 133.594 138.867C133.869 138.94 133.869 138.94 134.15 139.014C138.148 140.076 142.058 141.266 145.932 142.721C146.222 142.83 146.512 142.938 146.812 143.05C147.067 143.148 147.323 143.245 147.586 143.345C148.267 143.6 148.267 143.6 149.121 143.555C149.116 144.108 149.116 144.108 149.111 144.673C149.072 151.333 149.258 157.991 149.414 164.649C149.138 164.528 149.138 164.528 148.857 164.404C144.889 162.67 140.887 161.162 136.78 159.796C136.547 159.719 136.315 159.641 136.076 159.561C135.407 159.338 134.737 159.118 134.068 158.898C133.868 158.832 133.669 158.766 133.463 158.698C132.341 158.335 131.246 158.073 130.078 157.91C130.102 157.645 130.126 157.379 130.151 157.105C130.119 153.11 127.381 149.553 125.098 146.485C124.72 147.069 124.72 147.069 125.012 147.73C125.119 147.996 125.226 148.261 125.336 148.535C126.207 150.834 126.585 153.132 126.855 155.567C120.975 151.582 115.416 147.181 110.449 142.09C110.214 141.854 109.978 141.619 109.735 141.376C109.584 141.225 109.433 141.074 109.277 140.918C109.717 142.256 110.474 143.26 111.346 144.342C111.564 144.615 111.564 144.615 111.786 144.893C113.724 147.301 115.815 149.53 117.993 151.721C118.18 151.91 118.367 152.098 118.56 152.292C119.525 153.254 120.495 154.155 121.582 154.981C120.691 155.22 119.8 155.458 118.909 155.695C118.658 155.762 118.407 155.83 118.149 155.899C116.857 156.242 115.584 156.549 114.258 156.739C114.258 156.835 114.258 156.932 114.258 157.031C114.96 157.005 115.662 156.974 116.364 156.94C116.577 156.931 116.791 156.922 117.012 156.913C118.41 156.834 119.511 156.557 120.831 156.061C121.742 155.836 122.392 155.694 123.266 156.094C124.072 156.603 124.815 157.18 125.564 157.77C127.537 159.306 129.649 160.465 131.873 161.591C132.055 161.684 132.238 161.777 132.426 161.873C135.148 163.257 137.9 164.578 140.663 165.88C147.171 168.965 147.171 168.965 148.828 170.508C148.901 171.588 148.901 171.588 148.828 172.559C148.659 172.517 148.49 172.476 148.315 172.433C146.278 171.975 144.338 171.882 142.255 171.9C141.924 171.901 141.594 171.902 141.254 171.903C138.382 171.932 135.56 172.175 132.715 172.559C132.715 172.656 132.715 172.752 132.715 172.852C132.974 172.856 133.234 172.86 133.501 172.865C138.786 172.962 143.709 173.147 148.828 174.61C148.828 182.054 148.828 189.498 148.828 197.168C147.475 196.781 146.121 196.395 144.727 195.996C144.05 195.9 143.373 195.803 142.676 195.703C142.652 195.377 142.627 195.051 142.603 194.715C142.32 192.472 141.37 190.478 140.039 188.672C139.55 189.649 140.106 190.565 140.422 191.567C140.671 192.689 140.656 193.677 140.625 194.824C140.377 194.74 140.129 194.656 139.874 194.569C138.937 194.252 138 193.936 137.063 193.621C136.661 193.485 136.258 193.349 135.856 193.213C133.369 192.368 130.884 191.602 128.32 191.016C128.314 190.744 128.308 190.472 128.302 190.192C128.043 188.328 126.761 186.385 125.323 185.207C125.066 185.037 125.066 185.037 124.805 184.864C125.245 186.104 125.874 187.178 126.556 188.297C126.899 189.063 126.878 189.6 126.855 190.43C114.051 186.829 114.051 186.829 109.455 185.217C108.608 184.934 107.812 184.714 106.934 184.571C110.551 188.618 117.761 189.809 122.72 191.309C128.578 193.084 134.145 195.33 139.761 197.758C141.665 198.579 143.577 199.383 145.496 200.171C145.766 200.283 146.037 200.395 146.316 200.511C146.563 200.612 146.809 200.713 147.063 200.817C147.278 200.905 147.493 200.993 147.714 201.084C148.241 201.302 148.241 201.302 148.828 201.27C148.803 204.375 148.775 207.48 148.744 210.585C148.729 212.028 148.716 213.471 148.705 214.914C148.539 235.676 148.539 235.676 146.777 242.578C146.699 243.24 146.699 243.24 146.686 243.915C146.675 244.139 146.664 244.363 146.653 244.594C146.726 245.256 146.726 245.256 147.277 245.721C148.025 246.136 148.565 246.256 149.414 246.332C149.662 246.358 149.91 246.384 150.165 246.411C150.976 246.384 151.386 246.264 152.051 245.801C152.693 244.809 152.715 243.968 152.727 242.802C152.733 242.426 152.738 242.05 152.744 241.663C152.747 241.248 152.749 240.832 152.752 240.416C152.757 239.977 152.763 239.539 152.769 239.1C152.78 238.155 152.79 237.211 152.798 236.266C152.811 234.766 152.829 233.267 152.847 231.768C152.874 229.39 152.899 227.012 152.923 224.635C152.966 220.394 153.013 216.153 153.061 211.912C153.075 210.668 153.089 209.425 153.101 208.181C153.127 205.554 153.158 202.926 153.205 200.298C153.216 199.618 153.225 198.937 153.23 198.257C153.236 197.462 153.252 196.668 153.271 195.873C153.27 195.659 153.27 195.445 153.269 195.225C153.311 194.061 153.49 193.679 154.316 192.831C155.288 192.178 156.237 191.741 157.324 191.309C157.745 191.107 157.745 191.107 158.173 190.9C161.275 189.462 164.68 188.692 168.005 187.955C173.768 186.673 179.361 185.018 184.988 183.236C186.938 182.619 188.895 182.02 190.851 181.421C191.461 181.234 192.071 181.046 192.681 180.858C193.102 180.728 193.524 180.599 193.945 180.469C193.945 180.372 193.945 180.276 193.945 180.176C191.02 180.357 188.223 181.057 185.376 181.714C184.849 181.834 184.322 181.955 183.795 182.075C182.52 182.365 181.247 182.657 179.973 182.95C178.736 183.235 177.498 183.518 176.26 183.8C175.741 183.919 175.222 184.038 174.703 184.158C173.504 184.433 172.31 184.677 171.094 184.864C171.969 182.797 173.063 181.25 174.613 179.628C175.237 178.994 175.237 178.994 175.781 178.125C173.361 179.233 170.505 181.831 169.574 184.334C169.043 185.156 169.043 185.156 168.508 185.351C167.835 185.462 167.178 185.52 166.498 185.559C166.264 185.579 166.031 185.599 165.79 185.62C165.215 185.668 164.639 185.706 164.062 185.742C164.187 184.948 164.316 184.155 164.447 183.362C164.499 183.028 164.499 183.028 164.552 182.687C164.784 181.308 165.171 180.256 165.82 179.004C165.724 178.811 165.627 178.617 165.527 178.418C163.487 180.747 162.149 183.236 161.719 186.328C160.849 186.425 159.978 186.522 159.082 186.621C157.148 187.201 155.215 187.781 153.223 188.379C153.319 180.935 153.416 173.49 153.516 165.821C160.547 162.598 160.547 162.598 164.062 161.426C164.062 161.329 164.062 161.233 164.062 161.133C161.937 161.269 160.002 161.675 157.965 162.287C157.563 162.403 157.563 162.403 157.153 162.522C155.915 162.885 154.701 163.256 153.516 163.77C153.369 163.001 153.369 163.001 153.516 162.012C154.174 161.249 155.002 160.772 155.859 160.254C156.128 160.09 156.397 159.926 156.674 159.756C161.063 157.264 166.232 154.898 171.094 153.516C171.708 153.792 171.708 153.792 172.284 154.267C174.513 155.908 177.119 156.869 179.883 157.031C179.229 156.596 178.644 156.253 177.944 155.917C177.742 155.818 177.54 155.72 177.332 155.618C176.911 155.414 176.49 155.211 176.068 155.009C174.875 154.425 173.86 153.812 172.852 152.93C173.192 152.752 173.533 152.575 173.884 152.392C178.696 149.878 183.42 147.259 188.068 144.452C188.251 144.342 188.435 144.231 188.624 144.117C189.15 143.801 189.675 143.482 190.2 143.162C190.505 142.977 190.811 142.792 191.125 142.601C191.766 142.176 192.264 141.78 192.773 141.211C191.539 141.594 190.427 142.064 189.282 142.661C188.943 142.835 188.605 143.009 188.256 143.189C188.076 143.281 187.897 143.374 187.712 143.469C184.082 145.334 180.399 147.033 176.642 148.627C176.306 148.769 176.306 148.769 175.964 148.914C174.152 149.682 172.338 150.446 170.508 151.172C169.319 148.497 169.9 145.435 170.508 142.676C168.781 144.163 167.94 146.002 167.578 148.242C167.558 148.956 167.553 149.671 167.56 150.385C167.562 150.752 167.565 151.12 167.568 151.498C167.571 151.777 167.575 152.056 167.578 152.344C167.319 152.432 167.059 152.521 166.792 152.612C160.122 154.88 160.122 154.88 153.516 157.324C153.424 154.712 153.346 152.099 153.284 149.485C153.249 148.107 153.195 146.732 153.122 145.356C153.08 144.511 153.052 143.667 153.026 142.822C153.003 142.231 152.964 141.64 152.925 141.049C152.861 138.428 152.861 138.428 153.867 137.206C154.695 136.519 155.54 135.932 156.445 135.352C156.888 135.023 157.328 134.692 157.765 134.356C158.366 133.914 158.969 133.473 159.572 133.034C159.767 132.89 159.963 132.747 160.163 132.598C160.336 132.472 160.509 132.347 160.687 132.217C161.212 131.803 161.212 131.803 161.719 130.957C160.584 131.372 159.614 131.906 158.593 132.551C158.283 132.746 157.974 132.942 157.654 133.143C157.334 133.346 157.013 133.549 156.683 133.759C156.044 134.162 155.406 134.565 154.766 134.968C154.484 135.147 154.202 135.326 153.911 135.51C153.223 135.938 153.223 135.938 152.637 136.231C152.125 129.296 152.125 129.296 153.328 127.399C154.421 126.389 155.75 125.883 157.135 125.387C157.969 125.076 158.759 124.71 159.562 124.324C162.186 123.068 164.831 121.959 167.578 120.996C166.382 120.644 165.349 120.793 164.136 120.978C163.931 121.007 163.727 121.037 163.517 121.067C163.015 121.139 162.513 121.214 162.012 121.289C162.26 121.119 162.509 120.948 162.765 120.772C164.674 119.444 166.513 118.068 168.274 116.547C168.446 116.399 168.618 116.25 168.795 116.098C169.519 115.469 170.224 114.835 170.911 114.165C171.201 113.885 171.201 113.885 171.497 113.599C171.65 113.44 171.803 113.282 171.961 113.118C172.74 112.695 173.405 112.765 174.274 112.795C175.285 112.792 176.238 112.552 177.209 112.299C177.411 112.248 177.614 112.196 177.822 112.143C179.502 111.693 181.016 111.038 182.52 110.156C181.349 109.766 180.581 110.142 179.462 110.523C177.472 111.175 175.478 111.732 173.437 112.207C174.919 110.464 176.477 108.797 178.041 107.129C179.456 105.617 180.85 104.087 182.227 102.539C181.937 102.443 181.646 102.346 181.348 102.246C180.562 102.777 180.562 102.777 179.736 103.528C179.419 103.803 179.101 104.077 178.783 104.351C178.623 104.49 178.463 104.63 178.299 104.773C177.624 105.356 176.932 105.915 176.239 106.476C175.01 107.48 173.79 108.493 172.577 109.516C172.418 109.649 172.258 109.783 172.094 109.921C171.233 110.649 170.413 111.397 169.629 112.207C169.339 112.111 169.049 112.014 168.75 111.914C167.952 109.779 168.098 107.574 168.127 105.323C168.13 104.942 168.133 104.561 168.135 104.169C168.142 103.235 168.152 102.301 168.164 101.367C168.067 101.367 167.971 101.367 167.871 101.367C166.951 105.765 166.951 105.765 166.786 110.222C167.012 113.741 167.012 113.741 166.213 115.061C165.442 115.764 164.641 116.321 163.77 116.895C163.413 117.163 163.059 117.434 162.706 117.708C160.25 119.612 157.712 121.408 155.169 123.195C154.998 123.315 154.827 123.435 154.651 123.559C153.993 123.999 153.316 124.4 152.637 124.805C152.523 122.439 152.428 120.074 152.355 117.707C152.321 116.607 152.28 115.509 152.226 114.41C152.173 113.349 152.137 112.288 152.112 111.225C152.099 110.821 152.081 110.417 152.057 110.014C151.983 108.731 151.979 107.585 152.344 106.348C153.295 105.317 154.351 104.684 155.566 104.004C155.943 103.716 156.314 103.42 156.673 103.112C156.829 102.979 156.985 102.846 157.146 102.71C157.37 102.517 157.37 102.517 157.599 102.32C157.756 102.186 157.913 102.053 158.076 101.916C158.937 101.181 159.759 100.422 160.547 99.6096C159.29 100.053 158.227 100.709 157.123 101.441C156.761 101.677 156.399 101.913 156.037 102.149C155.859 102.265 155.681 102.38 155.498 102.5C154.367 103.226 153.21 103.909 152.051 104.59C151.966 103.627 151.895 102.665 151.841 101.699C151.795 100.887 151.702 100.1 151.574 99.2961C151.412 98.0128 151.408 97.0635 151.758 95.801C152.867 94.4597 154.415 93.5808 155.872 92.6618C158.401 91.0018 161.028 87.7729 161.938 84.8387C161.963 84.6858 161.987 84.5328 162.012 84.3752C161.12 85.213 160.363 86.0669 159.631 87.0486C157.283 90.0951 154.615 92.2153 151.465 94.3362C151.455 92.3345 151.461 90.3333 151.477 88.3316C151.481 87.6514 151.481 86.9711 151.478 86.2908C151.474 85.3102 151.482 84.3304 151.493 83.3499C151.489 83.0479 151.485 82.746 151.481 82.435C151.52 80.4825 151.91 79.4855 153.312 78.1099C153.476 77.9538 153.64 77.7978 153.809 77.637C154.157 77.1574 154.496 76.6711 154.816 76.1721C154.96 75.9485 155.105 75.725 155.254 75.4946C155.357 75.3315 155.46 75.1683 155.566 75.0002C155.47 74.8069 155.373 74.6135 155.273 74.4143C155.048 74.6858 154.822 74.9574 154.589 75.2371C154.292 75.5916 153.996 75.9459 153.699 76.3003C153.55 76.4795 153.401 76.6587 153.248 76.8433C152.117 78.1897 152.117 78.1897 151.465 78.5159C151.468 78.1668 151.471 77.8178 151.474 77.4581C151.496 73.9937 151.406 70.5459 151.231 67.0861C151.19 66.2727 151.151 65.4592 151.113 64.6456C151.087 64.1192 151.062 63.5928 151.036 63.0663C151.024 62.8277 151.013 62.589 151.001 62.3431C150.926 60.8858 150.783 59.454 150.586 58.0081C150.489 58.0081 150.393 58.0081 150.293 58.0081ZM155.566 73.8284C155.859 74.4143 155.859 74.4143 155.859 74.4143L155.566 73.8284ZM138.281 87.8909C138.574 88.4768 138.574 88.4768 138.574 88.4768L138.281 87.8909ZM118.359 97.2659C118.652 97.8518 118.652 97.8518 118.652 97.8518L118.359 97.2659ZM161.133 98.7307C161.036 98.9241 160.939 99.1174 160.84 99.3167C161.13 99.22 161.42 99.1233 161.719 99.0237C161.525 98.927 161.332 98.8303 161.133 98.7307ZM162.012 130.371C161.915 130.565 161.818 130.758 161.719 130.957C162.009 130.861 162.299 130.764 162.598 130.664C162.404 130.568 162.211 130.471 162.012 130.371ZM112.207 157.031C112.207 157.128 112.207 157.225 112.207 157.324C112.69 157.324 113.174 157.324 113.672 157.324C113.672 157.228 113.672 157.131 113.672 157.031C113.188 157.031 112.705 157.031 112.207 157.031ZM164.648 160.84C164.648 160.937 164.648 161.033 164.648 161.133C165.132 161.133 165.615 161.133 166.113 161.133C166.113 161.036 166.113 160.94 166.113 160.84C165.63 160.84 165.146 160.84 164.648 160.84ZM166.37 177.246C166.188 177.44 166.007 177.633 165.82 177.832C165.917 178.026 166.014 178.219 166.113 178.418C166.597 177.838 167.08 177.258 167.578 176.66C166.921 176.593 166.921 176.593 166.37 177.246ZM176.074 177.539C175.978 177.733 175.881 177.926 175.781 178.125C176.071 178.029 176.361 177.932 176.66 177.832C176.467 177.736 176.273 177.639 176.074 177.539ZM106.055 183.985C106.151 184.178 106.248 184.371 106.348 184.571C106.541 184.474 106.734 184.377 106.934 184.278C106.644 184.181 106.353 184.084 106.055 183.985ZM139.16 187.793C139.257 188.083 139.353 188.373 139.453 188.672C139.453 188.382 139.453 188.092 139.453 187.793C139.356 187.793 139.26 187.793 139.16 187.793Z" fill="black"/>
</svg>
