<svg width="300" height="300" viewBox="0 0 300 300" fill="none" xmlns="http://www.w3.org/2000/svg">
<path d="M180.205 56.1384C181.002 56.1407 181.798 56.1365 182.595 56.1323C183.553 56.1283 184.512 56.1311 185.47 56.1333C185.824 56.1315 186.179 56.1297 186.544 56.1279C188.576 56.1449 190.094 56.2074 191.602 57.7148C191.769 58.6102 191.757 59.455 191.602 60.3516C190.888 61.2587 190.215 61.7645 189.258 62.4023C188.512 62.478 188.512 62.478 187.61 62.4818C187.102 62.4863 187.102 62.4863 186.583 62.4908C186.216 62.4915 185.849 62.4921 185.471 62.4927C184.891 62.4982 184.312 62.5037 183.732 62.5095C182.305 62.5227 180.878 62.5296 179.451 62.536C178.652 62.5398 177.852 62.5459 177.053 62.5543C176.303 62.5619 175.552 62.566 174.802 62.5661C169.494 62.6256 165.259 64.0511 161.133 67.3828C160.97 67.5512 160.807 67.7197 160.639 67.8932C160.254 68.2617 160.254 68.2617 159.668 68.2617C159.591 68.4275 159.515 68.5933 159.436 68.7641C159.052 69.4903 158.601 70.1112 158.112 70.7703C155.332 74.7264 154.017 79.5595 154.102 84.375C154.435 84.4392 154.768 84.5034 155.111 84.5695C159.738 85.5015 163.261 86.9534 166.992 89.9414C167.389 90.2044 167.785 90.4669 168.182 90.7287C170.101 92.1568 172.001 94.5469 172.971 96.7292C173.85 97.6892 174.036 97.6928 175.281 97.7757C175.934 97.7838 176.586 97.7825 177.238 97.7737C177.762 97.7777 177.762 97.7777 178.297 97.7817C179.418 97.7888 180.538 97.7841 181.659 97.7783C183.121 97.7789 184.583 97.7841 186.046 97.792C186.4 97.7937 186.755 97.7955 187.12 97.7972C190.977 97.8321 194.872 98.0317 198.596 99.115C198.826 99.1789 199.055 99.2427 199.291 99.3085C205.569 101.101 210.596 104.229 215.332 108.691C215.533 108.874 215.735 109.056 215.942 109.244C222.522 115.435 225.849 125.029 226.165 133.875C226.321 141.807 223.867 150.147 218.555 156.152C218.168 156.355 217.778 156.553 217.383 156.738C217.186 157.128 216.991 157.519 216.797 157.91C213.306 161.354 208.809 164.029 203.906 164.648C203.957 164.801 204.007 164.954 204.058 165.112C206.989 174.152 206.981 182.97 202.723 191.645C201.353 194.285 199.509 196.496 197.461 198.633C197.273 198.836 197.084 199.04 196.89 199.25C195.951 200.238 195.249 200.809 193.945 201.27C193.849 201.56 193.752 201.85 193.652 202.148C192.922 202.658 192.206 203.114 191.437 203.558C191.102 203.753 191.102 203.753 190.76 203.952C186.378 206.427 181.688 207.71 176.66 208.008C176.721 208.58 176.721 208.58 176.953 209.18C177.456 209.511 177.456 209.511 178.07 209.729C179.321 210.315 179.87 210.82 180.469 212.109C182.205 217.715 179.954 224.439 177.365 229.413C175.725 232.335 173.675 235.136 171.094 237.305C170.9 237.305 170.707 237.305 170.508 237.305C170.411 237.595 170.315 237.885 170.215 238.184C166.652 241.597 161.197 243.666 156.445 244.629C156.17 244.694 155.895 244.759 155.611 244.826C147.267 246.563 138.96 244.131 131.961 239.552C131.079 238.944 130.271 238.334 129.492 237.598C129.492 237.404 129.492 237.211 129.492 237.012C129.321 236.935 129.15 236.858 128.974 236.779C124.812 234.527 121.978 228.531 120.641 224.211C119.545 220.501 118.593 215.776 120.122 212.049C120.844 210.734 121.794 209.722 123.047 208.887C122.95 208.597 122.854 208.307 122.754 208.008C122.495 207.982 122.235 207.957 121.968 207.931C113.44 206.964 105.886 203.076 100.398 196.409C95.0939 189.614 92.9319 181.005 93.82 172.472C94.1894 169.791 94.9375 167.208 95.8009 164.648C95.4625 164.6 95.1241 164.552 94.7755 164.502C91.2743 163.718 88.0096 161.591 85.254 159.375C85.0557 159.218 84.8574 159.061 84.6532 158.899C83.5391 157.983 82.6045 157.014 81.7384 155.859C81.7384 155.666 81.7384 155.473 81.7384 155.273C81.545 155.273 81.3516 155.273 81.1524 155.273C75.7969 149.252 74.0381 140.426 74.3661 132.629C74.8175 125.183 77.6003 117.997 82.3243 112.207C82.5158 111.971 82.7072 111.736 82.9045 111.493C83.8969 110.314 83.8969 110.314 84.3751 109.863C84.5684 109.863 84.7618 109.863 84.961 109.863C85.0577 109.477 85.1544 109.09 85.254 108.691C85.4353 108.667 85.6165 108.643 85.8033 108.618C86.471 108.465 86.471 108.465 86.6811 107.866C88.7657 103.834 96.4374 100.983 100.452 99.7009C104.803 98.3665 109.1 97.8045 113.644 97.8229C114.035 97.8235 114.426 97.8239 114.817 97.8242C115.838 97.8253 116.859 97.8282 117.88 97.8314C118.925 97.8344 119.97 97.8358 121.014 97.8372C123.059 97.8404 125.104 97.8454 127.149 97.8516C127.28 97.506 127.28 97.506 127.415 97.1535C127.817 96.1898 128.391 95.5977 129.1 94.8475C129.534 94.3585 129.534 94.3585 129.619 93.7237C129.785 93.1641 129.785 93.1641 130.338 92.8528C130.542 92.7621 130.747 92.6715 130.957 92.5781C131.378 92.1734 131.378 92.1734 131.781 91.6992C135.843 87.5504 141.467 85.3967 147.07 84.375C147.36 84.375 147.65 84.375 147.949 84.375C147.957 84.0944 147.964 83.8138 147.972 83.5247C148.273 75.5863 151.151 68.9478 156.738 63.2812C157.06 62.9544 157.06 62.9544 157.387 62.6209C163.723 56.5924 171.934 56.0963 180.205 56.1384ZM133.887 98.1445C130.01 103.05 128.633 108.127 128.906 114.258C129.785 113.928 130.443 113.62 131.213 113.068C132.263 112.417 132.949 112.229 134.18 112.207C135.004 112.5 135.004 112.5 135.645 113.086C136.187 114.262 136.31 114.87 135.939 116.119C135.327 117.445 134.289 118.138 133.136 118.982C127.906 123.04 124.894 128.857 123.853 135.37C122.943 142.824 124.798 150.485 129.419 156.482C129.827 156.964 130.242 157.44 130.664 157.91C130.902 158.176 131.14 158.441 131.385 158.715C135.874 163.461 141.843 166.221 148.398 166.489C156.005 166.67 162.41 164.785 168.055 159.492C173.43 154.056 176.265 146.94 176.441 139.325C176.318 133.354 174.815 127.379 170.952 122.707C170.508 122.168 170.508 122.168 169.922 121.289C169.729 121.289 169.535 121.289 169.336 121.289C169.336 121.096 169.336 120.902 169.336 120.703C168.498 120.016 167.641 119.369 166.77 118.726C165.711 117.924 164.92 117.254 164.356 116.016C164.205 114.809 164.23 114.186 164.832 113.123C165.697 112.348 166.126 112.207 167.285 112.207C168.712 112.691 169.854 113.416 171.094 114.258C171.334 107.689 170.079 101.855 165.622 96.793C161.599 92.661 156.621 90.6205 150.897 90.4175C144.332 90.6396 138.214 93.0458 133.887 98.1445ZM118.966 104.008C118.549 104.016 118.549 104.016 118.124 104.023C117.536 104.034 116.949 104.046 116.361 104.059C115.479 104.077 114.597 104.089 113.715 104.101C103.445 104.287 95.1654 107.582 87.8724 114.861C82.6586 120.473 80.0009 128.296 80.2014 135.887C80.5029 142.264 82.8631 147.809 87.0118 152.637C87.164 152.817 87.3162 152.998 87.473 153.184C89.7002 155.618 92.9539 157.523 96.0938 158.496C96.3023 158.561 96.5108 158.627 96.7255 158.694C98.961 159.289 101.919 159.648 104.004 158.496C104.398 157.905 104.398 157.905 104.59 157.324C104.255 157.206 104.255 157.206 103.914 157.086C101.306 156.097 99.0941 154.84 97.6868 152.344C97.1618 151.112 97.0914 150.157 97.2657 148.828C97.7912 148.005 98.1501 147.507 99.0235 147.07C100.824 146.904 100.824 146.904 101.733 147.51C102.2 148.176 102.423 148.675 102.686 149.432C102.937 150.144 103.111 150.569 103.601 151.154C104.772 151.677 105.64 152.01 106.934 151.758C108.139 151.001 109.202 150.111 110.29 149.197C112.288 147.566 114.525 146.705 116.951 145.921C117.81 145.698 117.81 145.698 118.066 145.02C118 144.47 117.932 143.92 117.855 143.372C116.879 135.073 119.204 127.508 123.34 120.41C123.63 120.12 123.63 120.12 123.926 119.824C123.877 119.096 123.877 119.096 123.688 118.286C123.603 117.876 123.603 117.876 123.517 117.458C123.459 117.175 123.4 116.893 123.34 116.602C122.516 112.561 122.903 108.259 123.926 104.297C122.256 104.006 120.658 103.975 118.966 104.008ZM176.367 104.297C176.412 104.663 176.457 105.029 176.504 105.407C176.529 105.613 176.554 105.819 176.58 106.031C176.65 106.566 176.735 107.099 176.822 107.632C176.986 108.955 177.008 110.253 177.008 111.584C177.01 111.855 177.013 112.125 177.015 112.404C177.013 113.919 176.892 115.317 176.594 116.8C176.1 119.372 176.645 120.719 178.076 122.876C182.323 129.285 183.03 137.87 181.934 145.312C182.16 145.405 182.387 145.497 182.62 145.592C183.566 145.98 184.508 146.377 185.449 146.777C185.654 146.862 185.859 146.946 186.071 147.033C187.621 147.729 188.916 148.766 190.238 149.819C191.917 151.204 191.917 151.204 193.927 151.886C195.14 151.713 195.672 151.417 196.582 150.586C196.93 149.849 197.2 149.119 197.445 148.342C197.813 147.525 198.156 147.224 198.926 146.777C200.109 146.629 200.71 146.574 201.672 147.308C202.535 148.469 202.534 149.469 202.441 150.879C201.804 153.523 199.955 155 197.754 156.445C197.078 156.787 196.414 157.058 195.703 157.324C195.873 157.91 195.873 157.91 196.289 158.496C199.156 159.895 202.955 158.917 205.844 157.946C206.49 157.671 207.099 157.368 207.715 157.031C207.948 156.908 208.182 156.785 208.422 156.658C213.989 153.539 217.413 148.209 219.192 142.186C221.17 134.198 220.107 126.073 215.961 118.953C213.606 115.053 210.392 111.712 206.543 109.277C206.207 109.053 206.207 109.053 205.863 108.824C200.544 105.419 194.267 104.239 188.04 104.268C187.538 104.269 187.538 104.269 187.026 104.27C185.963 104.271 184.901 104.275 183.838 104.279C183.115 104.28 182.391 104.281 181.668 104.283C179.901 104.286 178.134 104.291 176.367 104.297ZM180.176 151.465C180.11 151.614 180.044 151.762 179.976 151.915C176.087 160.588 170.337 167.247 161.348 170.768C158.69 171.759 156.052 172.53 153.223 172.852C152.411 179.661 153.119 187.042 157.406 192.68C161.245 197.407 166.746 200.801 172.852 201.562C180.61 202.021 186.747 200.265 192.747 195.234C197.429 190.904 200.083 184.167 200.436 177.9C200.57 173.391 199.709 168.459 197.168 164.648C196.617 164.347 196.054 164.069 195.483 163.806C192.996 162.592 191.483 161.242 190.137 158.789C190.025 158.407 189.921 158.022 189.826 157.635C188.989 155.208 185.833 153.647 183.655 152.581C181.987 151.753 181.987 151.753 180.176 151.465ZM112.5 155.273C112.121 155.539 112.121 155.539 111.734 155.809C110.872 156.594 110.547 157.339 110.083 158.405C108.708 161.348 106.679 163.3 103.711 164.648C103.334 164.764 103.334 164.764 102.949 164.882C102.001 165.357 101.858 165.813 101.477 166.791C101.365 167.068 101.252 167.344 101.136 167.63C100.152 170.549 99.7465 173.386 99.7742 176.459C99.7763 176.804 99.7783 177.148 99.7803 177.504C99.8303 180.223 100.165 182.59 101.074 185.156C101.233 185.621 101.233 185.621 101.396 186.096C103.601 191.919 108.233 196.773 113.818 199.475C120.15 202.116 126.776 202.327 133.228 200.024C139.03 197.634 142.935 193.276 145.521 187.635C145.708 187.133 145.708 187.133 145.899 186.621C146.018 186.301 146.018 186.301 146.139 185.974C146.987 183.367 146.876 180.778 146.832 178.07C146.828 177.591 146.824 177.111 146.82 176.632C146.811 175.469 146.796 174.307 146.777 173.145C146.446 173.069 146.114 172.994 145.772 172.916C145.326 172.814 144.881 172.712 144.436 172.609C144.218 172.56 144.001 172.511 143.777 172.46C134.953 170.416 127.665 165.213 122.754 157.617C121.903 156.188 121.149 154.712 120.41 153.223C120.244 152.891 120.078 152.559 119.907 152.217C119.783 151.969 119.659 151.72 119.531 151.465C117.046 151.465 114.33 153.819 112.5 155.273ZM150 192.48C149.76 192.874 149.76 192.874 149.516 193.275C148.104 195.553 146.629 197.606 144.727 199.512C144.508 199.734 144.289 199.956 144.064 200.185C140.529 203.573 135.856 206.061 131.03 206.909C130.182 207.068 130.182 207.068 129.492 207.422C129.099 208.14 128.965 208.775 128.817 209.578C128.468 210.905 127.547 211.778 126.563 212.695C126.351 212.815 126.139 212.935 125.921 213.059C125.287 213.571 125.287 213.571 125.235 214.585C125.23 214.999 125.234 215.413 125.244 215.826C125.248 216.048 125.252 216.269 125.256 216.497C125.441 221.643 127.472 226.754 130.957 230.566C131.309 230.958 131.309 230.958 131.668 231.358C136.291 236.256 142.613 238.771 149.279 239.099C155.528 239.247 162.124 237.393 166.809 233.112C171.328 228.777 174.162 223.624 174.902 217.383C174.941 217.071 174.98 216.76 175.02 216.439C175.085 215.523 175.102 214.764 174.902 213.867C174.375 213.3 173.84 212.962 173.177 212.566C171.686 211.465 171.099 209.478 170.801 207.715C170.475 207.615 170.148 207.515 169.812 207.413C162.42 205.093 156.144 201.392 151.781 194.839C151.222 194.018 150.631 193.247 150 192.48Z" fill="black"/>
</svg>
